<?xml version="1.0" encoding="utf-8" standalone="no"?>
<!DOCTYPE svg PUBLIC "-//W3C//DTD SVG 1.1//EN"
  "http://www.w3.org/Graphics/SVG/1.1/DTD/svg11.dtd">
<svg xmlns:xlink="http://www.w3.org/1999/xlink" width="864pt" height="576pt" viewBox="0 0 864 576" xmlns="http://www.w3.org/2000/svg" version="1.1">
 <metadata>
  <rdf:RDF xmlns:dc="http://purl.org/dc/elements/1.1/" xmlns:cc="http://creativecommons.org/ns#" xmlns:rdf="http://www.w3.org/1999/02/22-rdf-syntax-ns#">
   <cc:Work>
    <dc:type rdf:resource="http://purl.org/dc/dcmitype/StillImage"/>
    <dc:date>2025-06-12T16:31:02.478278</dc:date>
    <dc:format>image/svg+xml</dc:format>
    <dc:creator>
     <cc:Agent>
      <dc:title>Matplotlib v3.7.2, https://matplotlib.org/</dc:title>
     </cc:Agent>
    </dc:creator>
   </cc:Work>
  </rdf:RDF>
 </metadata>
 <defs>
  <style type="text/css">*{stroke-linejoin: round; stroke-linecap: butt}</style>
 </defs>
 <g id="figure_1">
  <g id="patch_1">
   <path d="M 0 576 
L 864 576 
L 864 0 
L 0 0 
z
" style="fill: #ffffff"/>
  </g>
  <g id="axes_1">
   <g id="patch_2">
    <path d="M 114.16 489.2325 
L 833.191364 489.2325 
L 833.191364 28.08 
L 114.16 28.08 
z
" style="fill: #ffffff"/>
   </g>
   <g id="matplotlib.axis_1">
    <g id="xtick_1">
     <g id="line2d_1">
      <path d="M 146.843244 489.2325 
L 146.843244 28.08 
" clip-path="url(#p0b70503143)" style="fill: none; stroke-dasharray: 3.7,1.6; stroke-dashoffset: 0; stroke: #b0b0b0; stroke-opacity: 0.5"/>
     </g>
     <g id="line2d_2">
      <defs>
       <path id="m4d0419fe05" d="M 0 0 
L 0 -10 
" style="stroke: #000000; stroke-width: 2"/>
      </defs>
      <g>
       <use xlink:href="#m4d0419fe05" x="146.843244" y="489.2325" style="stroke: #000000; stroke-width: 2"/>
      </g>
     </g>
     <g id="line2d_3">
      <defs>
       <path id="mea40f8a16e" d="M 0 0 
L 0 10 
" style="stroke: #000000; stroke-width: 2"/>
      </defs>
      <g>
       <use xlink:href="#mea40f8a16e" x="146.843244" y="28.08" style="stroke: #000000; stroke-width: 2"/>
      </g>
     </g>
     <g id="text_1">
      <!-- 0 -->
      <g transform="translate(138.571994 512.488438) scale(0.26 -0.26)">
       <defs>
        <path id="DejaVuSerif-30" d="M 2034 219 
Q 2513 219 2750 744 
Q 2988 1269 2988 2328 
Q 2988 3391 2750 3916 
Q 2513 4441 2034 4441 
Q 1556 4441 1318 3916 
Q 1081 3391 1081 2328 
Q 1081 1269 1318 744 
Q 1556 219 2034 219 
z
M 2034 -91 
Q 1275 -91 848 546 
Q 422 1184 422 2328 
Q 422 3475 848 4112 
Q 1275 4750 2034 4750 
Q 2797 4750 3222 4112 
Q 3647 3475 3647 2328 
Q 3647 1184 3222 546 
Q 2797 -91 2034 -91 
z
" transform="scale(0.015625)"/>
       </defs>
       <use xlink:href="#DejaVuSerif-30"/>
      </g>
     </g>
    </g>
    <g id="xtick_2">
     <g id="line2d_4">
      <path d="M 277.576219 489.2325 
L 277.576219 28.08 
" clip-path="url(#p0b70503143)" style="fill: none; stroke-dasharray: 3.7,1.6; stroke-dashoffset: 0; stroke: #b0b0b0; stroke-opacity: 0.5"/>
     </g>
     <g id="line2d_5">
      <g>
       <use xlink:href="#m4d0419fe05" x="277.576219" y="489.2325" style="stroke: #000000; stroke-width: 2"/>
      </g>
     </g>
     <g id="line2d_6">
      <g>
       <use xlink:href="#mea40f8a16e" x="277.576219" y="28.08" style="stroke: #000000; stroke-width: 2"/>
      </g>
     </g>
     <g id="text_2">
      <!-- 500 -->
      <g transform="translate(252.762469 512.488438) scale(0.26 -0.26)">
       <defs>
        <path id="DejaVuSerif-35" d="M 3219 4666 
L 3219 4153 
L 1081 4153 
L 1081 2816 
Q 1244 2928 1461 2984 
Q 1678 3041 1947 3041 
Q 2703 3041 3140 2622 
Q 3578 2203 3578 1478 
Q 3578 738 3136 323 
Q 2694 -91 1894 -91 
Q 1572 -91 1234 -12 
Q 897 66 544 225 
L 544 1131 
L 897 1131 
Q 925 688 1179 453 
Q 1434 219 1894 219 
Q 2388 219 2653 544 
Q 2919 869 2919 1478 
Q 2919 2084 2655 2407 
Q 2391 2731 1894 2731 
Q 1613 2731 1398 2631 
Q 1184 2531 1019 2322 
L 750 2322 
L 750 4666 
L 3219 4666 
z
" transform="scale(0.015625)"/>
       </defs>
       <use xlink:href="#DejaVuSerif-35"/>
       <use xlink:href="#DejaVuSerif-30" x="63.623047"/>
       <use xlink:href="#DejaVuSerif-30" x="127.246094"/>
      </g>
     </g>
    </g>
    <g id="xtick_3">
     <g id="line2d_7">
      <path d="M 408.309194 489.2325 
L 408.309194 28.08 
" clip-path="url(#p0b70503143)" style="fill: none; stroke-dasharray: 3.7,1.6; stroke-dashoffset: 0; stroke: #b0b0b0; stroke-opacity: 0.5"/>
     </g>
     <g id="line2d_8">
      <g>
       <use xlink:href="#m4d0419fe05" x="408.309194" y="489.2325" style="stroke: #000000; stroke-width: 2"/>
      </g>
     </g>
     <g id="line2d_9">
      <g>
       <use xlink:href="#mea40f8a16e" x="408.309194" y="28.08" style="stroke: #000000; stroke-width: 2"/>
      </g>
     </g>
     <g id="text_3">
      <!-- 1000 -->
      <g transform="translate(375.224194 512.488438) scale(0.26 -0.26)">
       <defs>
        <path id="DejaVuSerif-31" d="M 909 0 
L 909 331 
L 1722 331 
L 1722 4213 
L 781 3603 
L 781 4013 
L 1919 4750 
L 2350 4750 
L 2350 331 
L 3163 331 
L 3163 0 
L 909 0 
z
" transform="scale(0.015625)"/>
       </defs>
       <use xlink:href="#DejaVuSerif-31"/>
       <use xlink:href="#DejaVuSerif-30" x="63.623047"/>
       <use xlink:href="#DejaVuSerif-30" x="127.246094"/>
       <use xlink:href="#DejaVuSerif-30" x="190.869141"/>
      </g>
     </g>
    </g>
    <g id="xtick_4">
     <g id="line2d_10">
      <path d="M 539.042169 489.2325 
L 539.042169 28.08 
" clip-path="url(#p0b70503143)" style="fill: none; stroke-dasharray: 3.7,1.6; stroke-dashoffset: 0; stroke: #b0b0b0; stroke-opacity: 0.5"/>
     </g>
     <g id="line2d_11">
      <g>
       <use xlink:href="#m4d0419fe05" x="539.042169" y="489.2325" style="stroke: #000000; stroke-width: 2"/>
      </g>
     </g>
     <g id="line2d_12">
      <g>
       <use xlink:href="#mea40f8a16e" x="539.042169" y="28.08" style="stroke: #000000; stroke-width: 2"/>
      </g>
     </g>
     <g id="text_4">
      <!-- 1500 -->
      <g transform="translate(505.957169 512.488438) scale(0.26 -0.26)">
       <use xlink:href="#DejaVuSerif-31"/>
       <use xlink:href="#DejaVuSerif-35" x="63.623047"/>
       <use xlink:href="#DejaVuSerif-30" x="127.246094"/>
       <use xlink:href="#DejaVuSerif-30" x="190.869141"/>
      </g>
     </g>
    </g>
    <g id="xtick_5">
     <g id="line2d_13">
      <path d="M 669.775145 489.2325 
L 669.775145 28.08 
" clip-path="url(#p0b70503143)" style="fill: none; stroke-dasharray: 3.7,1.6; stroke-dashoffset: 0; stroke: #b0b0b0; stroke-opacity: 0.5"/>
     </g>
     <g id="line2d_14">
      <g>
       <use xlink:href="#m4d0419fe05" x="669.775145" y="489.2325" style="stroke: #000000; stroke-width: 2"/>
      </g>
     </g>
     <g id="line2d_15">
      <g>
       <use xlink:href="#mea40f8a16e" x="669.775145" y="28.08" style="stroke: #000000; stroke-width: 2"/>
      </g>
     </g>
     <g id="text_5">
      <!-- 2000 -->
      <g transform="translate(636.690145 512.488438) scale(0.26 -0.26)">
       <defs>
        <path id="DejaVuSerif-32" d="M 819 3553 
L 469 3553 
L 469 4384 
Q 803 4563 1142 4656 
Q 1481 4750 1806 4750 
Q 2534 4750 2956 4397 
Q 3378 4044 3378 3438 
Q 3378 2753 2422 1800 
Q 2347 1728 2309 1691 
L 1131 513 
L 3078 513 
L 3078 1088 
L 3444 1088 
L 3444 0 
L 434 0 
L 434 341 
L 1850 1753 
Q 2319 2222 2519 2614 
Q 2719 3006 2719 3438 
Q 2719 3909 2473 4175 
Q 2228 4441 1797 4441 
Q 1350 4441 1106 4219 
Q 863 3997 819 3553 
z
" transform="scale(0.015625)"/>
       </defs>
       <use xlink:href="#DejaVuSerif-32"/>
       <use xlink:href="#DejaVuSerif-30" x="63.623047"/>
       <use xlink:href="#DejaVuSerif-30" x="127.246094"/>
       <use xlink:href="#DejaVuSerif-30" x="190.869141"/>
      </g>
     </g>
    </g>
    <g id="xtick_6">
     <g id="line2d_16">
      <path d="M 800.50812 489.2325 
L 800.50812 28.08 
" clip-path="url(#p0b70503143)" style="fill: none; stroke-dasharray: 3.7,1.6; stroke-dashoffset: 0; stroke: #b0b0b0; stroke-opacity: 0.5"/>
     </g>
     <g id="line2d_17">
      <g>
       <use xlink:href="#m4d0419fe05" x="800.50812" y="489.2325" style="stroke: #000000; stroke-width: 2"/>
      </g>
     </g>
     <g id="line2d_18">
      <g>
       <use xlink:href="#mea40f8a16e" x="800.50812" y="28.08" style="stroke: #000000; stroke-width: 2"/>
      </g>
     </g>
     <g id="text_6">
      <!-- 2500 -->
      <g transform="translate(767.42312 512.488438) scale(0.26 -0.26)">
       <use xlink:href="#DejaVuSerif-32"/>
       <use xlink:href="#DejaVuSerif-35" x="63.623047"/>
       <use xlink:href="#DejaVuSerif-30" x="127.246094"/>
       <use xlink:href="#DejaVuSerif-30" x="190.869141"/>
      </g>
     </g>
    </g>
    <g id="text_7">
     <!-- $t$ (a.u.) -->
     <g transform="translate(430.255682 541.651562) scale(0.26 -0.26)">
      <defs>
       <path id="Cmmi10-74" d="M 397 519 
Q 397 613 416 697 
L 878 2534 
L 206 2534 
Q 141 2534 141 2619 
Q 166 2759 225 2759 
L 934 2759 
L 1191 3803 
Q 1216 3888 1291 3947 
Q 1366 4006 1459 4006 
Q 1541 4006 1595 3957 
Q 1650 3909 1650 3828 
Q 1650 3809 1648 3798 
Q 1647 3788 1644 3775 
L 1388 2759 
L 2047 2759 
Q 2113 2759 2113 2675 
Q 2109 2659 2100 2621 
Q 2091 2584 2075 2559 
Q 2059 2534 2028 2534 
L 1331 2534 
L 872 684 
Q 825 503 825 372 
Q 825 97 1013 97 
Q 1294 97 1511 361 
Q 1728 625 1844 941 
Q 1869 978 1894 978 
L 1972 978 
Q 1997 978 2012 961 
Q 2028 944 2028 922 
Q 2028 909 2022 903 
Q 1881 516 1612 222 
Q 1344 -72 997 -72 
Q 744 -72 570 93 
Q 397 259 397 519 
z
" transform="scale(0.015625)"/>
       <path id="DejaVuSerif-20" transform="scale(0.015625)"/>
       <path id="DejaVuSerif-28" d="M 2041 -997 
Q 1281 -656 893 83 
Q 506 822 506 1931 
Q 506 3044 893 3783 
Q 1281 4522 2041 4863 
L 2041 4556 
Q 1559 4225 1350 3623 
Q 1141 3022 1141 1931 
Q 1141 844 1350 242 
Q 1559 -359 2041 -691 
L 2041 -997 
z
" transform="scale(0.015625)"/>
       <path id="DejaVuSerif-61" d="M 2547 1044 
L 2547 1747 
L 1806 1747 
Q 1378 1747 1168 1562 
Q 959 1378 959 997 
Q 959 650 1171 447 
Q 1384 244 1747 244 
Q 2106 244 2326 466 
Q 2547 688 2547 1044 
z
M 3122 2075 
L 3122 331 
L 3634 331 
L 3634 0 
L 2547 0 
L 2547 359 
Q 2356 128 2106 18 
Q 1856 -91 1522 -91 
Q 969 -91 644 203 
Q 319 497 319 997 
Q 319 1513 691 1797 
Q 1063 2081 1741 2081 
L 2547 2081 
L 2547 2309 
Q 2547 2688 2317 2895 
Q 2088 3103 1672 3103 
Q 1328 3103 1125 2947 
Q 922 2791 872 2484 
L 575 2484 
L 575 3156 
Q 875 3284 1158 3348 
Q 1441 3413 1709 3413 
Q 2400 3413 2761 3070 
Q 3122 2728 3122 2075 
z
" transform="scale(0.015625)"/>
       <path id="DejaVuSerif-2e" d="M 603 325 
Q 603 500 722 622 
Q 841 744 1019 744 
Q 1191 744 1312 622 
Q 1434 500 1434 325 
Q 1434 153 1312 31 
Q 1191 -91 1019 -91 
Q 841 -91 722 29 
Q 603 150 603 325 
z
" transform="scale(0.015625)"/>
       <path id="DejaVuSerif-75" d="M 2266 3322 
L 3341 3322 
L 3341 331 
L 3884 331 
L 3884 0 
L 2766 0 
L 2766 588 
Q 2606 256 2353 82 
Q 2100 -91 1766 -91 
Q 1213 -91 952 223 
Q 691 538 691 1209 
L 691 2988 
L 172 2988 
L 172 3322 
L 1269 3322 
L 1269 1388 
Q 1269 781 1417 556 
Q 1566 331 1947 331 
Q 2347 331 2556 625 
Q 2766 919 2766 1478 
L 2766 2988 
L 2266 2988 
L 2266 3322 
z
" transform="scale(0.015625)"/>
       <path id="DejaVuSerif-29" d="M 453 -997 
L 453 -691 
Q 934 -359 1145 242 
Q 1356 844 1356 1931 
Q 1356 3022 1145 3623 
Q 934 4225 453 4556 
L 453 4863 
Q 1216 4522 1603 3783 
Q 1991 3044 1991 1931 
Q 1991 822 1603 83 
Q 1216 -656 453 -997 
z
" transform="scale(0.015625)"/>
      </defs>
      <use xlink:href="#Cmmi10-74" transform="translate(0 0.015625)"/>
      <use xlink:href="#DejaVuSerif-20" transform="translate(36.083984 0.015625)"/>
      <use xlink:href="#DejaVuSerif-28" transform="translate(67.871094 0.015625)"/>
      <use xlink:href="#DejaVuSerif-61" transform="translate(106.884766 0.015625)"/>
      <use xlink:href="#DejaVuSerif-2e" transform="translate(166.503906 0.015625)"/>
      <use xlink:href="#DejaVuSerif-75" transform="translate(198.291016 0.015625)"/>
      <use xlink:href="#DejaVuSerif-2e" transform="translate(262.695312 0.015625)"/>
      <use xlink:href="#DejaVuSerif-29" transform="translate(294.482422 0.015625)"/>
     </g>
    </g>
   </g>
   <g id="matplotlib.axis_2">
    <g id="ytick_1">
     <g id="line2d_19">
      <path d="M 114.16 437.64412 
L 833.191364 437.64412 
" clip-path="url(#p0b70503143)" style="fill: none; stroke-dasharray: 3.7,1.6; stroke-dashoffset: 0; stroke: #b0b0b0; stroke-opacity: 0.5"/>
     </g>
     <g id="line2d_20">
      <defs>
       <path id="me7555fd66a" d="M 0 0 
L 10 0 
" style="stroke: #000000; stroke-width: 2"/>
      </defs>
      <g>
       <use xlink:href="#me7555fd66a" x="114.16" y="437.64412" style="stroke: #000000; stroke-width: 2"/>
      </g>
     </g>
     <g id="line2d_21">
      <defs>
       <path id="m93829df669" d="M 0 0 
L -10 0 
" style="stroke: #000000; stroke-width: 2"/>
      </defs>
      <g>
       <use xlink:href="#m93829df669" x="833.191364" y="437.64412" style="stroke: #000000; stroke-width: 2"/>
      </g>
     </g>
     <g id="text_8">
      <!-- 2 -->
      <g transform="translate(94.1175 447.522089) scale(0.26 -0.26)">
       <use xlink:href="#DejaVuSerif-32"/>
      </g>
     </g>
    </g>
    <g id="ytick_2">
     <g id="line2d_22">
      <path d="M 114.16 368.484124 
L 833.191364 368.484124 
" clip-path="url(#p0b70503143)" style="fill: none; stroke-dasharray: 3.7,1.6; stroke-dashoffset: 0; stroke: #b0b0b0; stroke-opacity: 0.5"/>
     </g>
     <g id="line2d_23">
      <g>
       <use xlink:href="#me7555fd66a" x="114.16" y="368.484124" style="stroke: #000000; stroke-width: 2"/>
      </g>
     </g>
     <g id="line2d_24">
      <g>
       <use xlink:href="#m93829df669" x="833.191364" y="368.484124" style="stroke: #000000; stroke-width: 2"/>
      </g>
     </g>
     <g id="text_9">
      <!-- 4 -->
      <g transform="translate(94.1175 378.362093) scale(0.26 -0.26)">
       <defs>
        <path id="DejaVuSerif-34" d="M 2234 1581 
L 2234 4063 
L 641 1581 
L 2234 1581 
z
M 3609 0 
L 1484 0 
L 1484 331 
L 2234 331 
L 2234 1247 
L 197 1247 
L 197 1588 
L 2241 4750 
L 2859 4750 
L 2859 1581 
L 3750 1581 
L 3750 1247 
L 2859 1247 
L 2859 331 
L 3609 331 
L 3609 0 
z
" transform="scale(0.015625)"/>
       </defs>
       <use xlink:href="#DejaVuSerif-34"/>
      </g>
     </g>
    </g>
    <g id="ytick_3">
     <g id="line2d_25">
      <path d="M 114.16 299.324128 
L 833.191364 299.324128 
" clip-path="url(#p0b70503143)" style="fill: none; stroke-dasharray: 3.7,1.6; stroke-dashoffset: 0; stroke: #b0b0b0; stroke-opacity: 0.5"/>
     </g>
     <g id="line2d_26">
      <g>
       <use xlink:href="#me7555fd66a" x="114.16" y="299.324128" style="stroke: #000000; stroke-width: 2"/>
      </g>
     </g>
     <g id="line2d_27">
      <g>
       <use xlink:href="#m93829df669" x="833.191364" y="299.324128" style="stroke: #000000; stroke-width: 2"/>
      </g>
     </g>
     <g id="text_10">
      <!-- 6 -->
      <g transform="translate(94.1175 309.202097) scale(0.26 -0.26)">
       <defs>
        <path id="DejaVuSerif-36" d="M 2094 219 
Q 2534 219 2771 542 
Q 3009 866 3009 1472 
Q 3009 2078 2771 2401 
Q 2534 2725 2094 2725 
Q 1647 2725 1412 2412 
Q 1178 2100 1178 1509 
Q 1178 888 1415 553 
Q 1653 219 2094 219 
z
M 1075 2569 
Q 1288 2803 1556 2918 
Q 1825 3034 2163 3034 
Q 2859 3034 3264 2615 
Q 3669 2197 3669 1472 
Q 3669 763 3233 336 
Q 2797 -91 2069 -91 
Q 1278 -91 853 498 
Q 428 1088 428 2181 
Q 428 3406 931 4078 
Q 1434 4750 2350 4750 
Q 2597 4750 2869 4703 
Q 3141 4656 3425 4563 
L 3425 3794 
L 3072 3794 
Q 3034 4109 2831 4275 
Q 2628 4441 2284 4441 
Q 1678 4441 1381 3981 
Q 1084 3522 1075 2569 
z
" transform="scale(0.015625)"/>
       </defs>
       <use xlink:href="#DejaVuSerif-36"/>
      </g>
     </g>
    </g>
    <g id="ytick_4">
     <g id="line2d_28">
      <path d="M 114.16 230.164132 
L 833.191364 230.164132 
" clip-path="url(#p0b70503143)" style="fill: none; stroke-dasharray: 3.7,1.6; stroke-dashoffset: 0; stroke: #b0b0b0; stroke-opacity: 0.5"/>
     </g>
     <g id="line2d_29">
      <g>
       <use xlink:href="#me7555fd66a" x="114.16" y="230.164132" style="stroke: #000000; stroke-width: 2"/>
      </g>
     </g>
     <g id="line2d_30">
      <g>
       <use xlink:href="#m93829df669" x="833.191364" y="230.164132" style="stroke: #000000; stroke-width: 2"/>
      </g>
     </g>
     <g id="text_11">
      <!-- 8 -->
      <g transform="translate(94.1175 240.042101) scale(0.26 -0.26)">
       <defs>
        <path id="DejaVuSerif-38" d="M 2981 1275 
Q 2981 1775 2732 2051 
Q 2484 2328 2034 2328 
Q 1584 2328 1336 2051 
Q 1088 1775 1088 1275 
Q 1088 772 1336 495 
Q 1584 219 2034 219 
Q 2484 219 2732 495 
Q 2981 772 2981 1275 
z
M 2853 3541 
Q 2853 3966 2637 4203 
Q 2422 4441 2034 4441 
Q 1650 4441 1433 4203 
Q 1216 3966 1216 3541 
Q 1216 3113 1433 2875 
Q 1650 2638 2034 2638 
Q 2422 2638 2637 2875 
Q 2853 3113 2853 3541 
z
M 2516 2484 
Q 3047 2413 3344 2092 
Q 3641 1772 3641 1275 
Q 3641 619 3225 264 
Q 2809 -91 2034 -91 
Q 1263 -91 845 264 
Q 428 619 428 1275 
Q 428 1772 725 2092 
Q 1022 2413 1556 2484 
Q 1084 2569 832 2842 
Q 581 3116 581 3541 
Q 581 4103 968 4426 
Q 1356 4750 2034 4750 
Q 2713 4750 3100 4426 
Q 3488 4103 3488 3541 
Q 3488 3116 3236 2842 
Q 2984 2569 2516 2484 
z
" transform="scale(0.015625)"/>
       </defs>
       <use xlink:href="#DejaVuSerif-38"/>
      </g>
     </g>
    </g>
    <g id="ytick_5">
     <g id="line2d_31">
      <path d="M 114.16 161.004136 
L 833.191364 161.004136 
" clip-path="url(#p0b70503143)" style="fill: none; stroke-dasharray: 3.7,1.6; stroke-dashoffset: 0; stroke: #b0b0b0; stroke-opacity: 0.5"/>
     </g>
     <g id="line2d_32">
      <g>
       <use xlink:href="#me7555fd66a" x="114.16" y="161.004136" style="stroke: #000000; stroke-width: 2"/>
      </g>
     </g>
     <g id="line2d_33">
      <g>
       <use xlink:href="#m93829df669" x="833.191364" y="161.004136" style="stroke: #000000; stroke-width: 2"/>
      </g>
     </g>
     <g id="text_12">
      <!-- 10 -->
      <g transform="translate(77.575 170.882105) scale(0.26 -0.26)">
       <use xlink:href="#DejaVuSerif-31"/>
       <use xlink:href="#DejaVuSerif-30" x="63.623047"/>
      </g>
     </g>
    </g>
    <g id="ytick_6">
     <g id="line2d_34">
      <path d="M 114.16 91.84414 
L 833.191364 91.84414 
" clip-path="url(#p0b70503143)" style="fill: none; stroke-dasharray: 3.7,1.6; stroke-dashoffset: 0; stroke: #b0b0b0; stroke-opacity: 0.5"/>
     </g>
     <g id="line2d_35">
      <g>
       <use xlink:href="#me7555fd66a" x="114.16" y="91.84414" style="stroke: #000000; stroke-width: 2"/>
      </g>
     </g>
     <g id="line2d_36">
      <g>
       <use xlink:href="#m93829df669" x="833.191364" y="91.84414" style="stroke: #000000; stroke-width: 2"/>
      </g>
     </g>
     <g id="text_13">
      <!-- 12 -->
      <g transform="translate(77.575 101.722109) scale(0.26 -0.26)">
       <use xlink:href="#DejaVuSerif-31"/>
       <use xlink:href="#DejaVuSerif-32" x="63.623047"/>
      </g>
     </g>
    </g>
    <g id="text_14">
     <!-- $|\vec{p}_i|$ (a.u.) -->
     <g transform="translate(67.075 315.72625) rotate(-90) scale(0.26 -0.26)">
      <defs>
       <path id="Cmsy10-6a" d="M 763 -1484 
L 763 4684 
Q 763 4734 800 4767 
Q 838 4800 891 4800 
Q 938 4800 978 4767 
Q 1019 4734 1019 4684 
L 1019 -1484 
Q 1019 -1534 978 -1567 
Q 938 -1600 891 -1600 
Q 838 -1600 800 -1567 
Q 763 -1534 763 -1484 
z
" transform="scale(0.015625)"/>
       <path id="Cmmi10-7e" d="M 1281 3809 
Q 1231 3809 1198 3846 
Q 1166 3884 1166 3938 
Q 1166 3984 1198 4023 
Q 1231 4063 1281 4063 
L 3547 4063 
Q 3378 4291 3378 4441 
Q 3378 4497 3417 4533 
Q 3456 4569 3506 4569 
Q 3613 4569 3634 4469 
Q 3697 4194 3938 4044 
Q 4000 4003 4000 3938 
Q 4000 3859 3938 3828 
Q 3575 3647 3353 3347 
Q 3328 3303 3256 3303 
Q 3209 3303 3168 3340 
Q 3128 3378 3128 3431 
Q 3128 3547 3438 3809 
L 1281 3809 
z
" transform="scale(0.015625)"/>
       <path id="Cmmi10-70" d="M -159 -1241 
Q -219 -1241 -219 -1159 
Q -197 -1019 -134 -1019 
Q 66 -1019 145 -983 
Q 225 -947 269 -800 
L 991 2081 
Q 1038 2200 1038 2388 
Q 1038 2663 850 2663 
Q 650 2663 553 2423 
Q 456 2184 366 1819 
Q 366 1778 313 1778 
L 238 1778 
Q 222 1778 203 1801 
Q 184 1825 184 1844 
Q 253 2122 317 2315 
Q 381 2509 517 2668 
Q 653 2828 856 2828 
Q 1075 2828 1240 2704 
Q 1406 2581 1453 2369 
Q 1628 2572 1840 2700 
Q 2053 2828 2278 2828 
Q 2547 2828 2745 2684 
Q 2944 2541 3044 2308 
Q 3144 2075 3144 1806 
Q 3144 1394 2933 953 
Q 2722 513 2361 220 
Q 2000 -72 1588 -72 
Q 1400 -72 1248 34 
Q 1097 141 1013 313 
L 722 -825 
Q 706 -919 703 -934 
Q 703 -1019 1125 -1019 
Q 1191 -1019 1191 -1100 
Q 1169 -1184 1155 -1212 
Q 1141 -1241 1081 -1241 
L -159 -1241 
z
M 1594 97 
Q 1816 97 2006 280 
Q 2197 463 2316 691 
Q 2403 863 2479 1111 
Q 2556 1359 2612 1640 
Q 2669 1922 2669 2088 
Q 2669 2234 2630 2362 
Q 2591 2491 2502 2577 
Q 2413 2663 2266 2663 
Q 2031 2663 1823 2495 
Q 1616 2328 1447 2081 
L 1447 2059 
L 1094 647 
Q 1138 419 1263 258 
Q 1388 97 1594 97 
z
" transform="scale(0.015625)"/>
       <path id="Cmmi10-69" d="M 500 459 
Q 500 578 550 709 
L 1069 2088 
Q 1153 2322 1153 2472 
Q 1153 2663 1013 2663 
Q 759 2663 595 2402 
Q 431 2141 353 1819 
Q 341 1778 300 1778 
L 225 1778 
Q 172 1778 172 1838 
L 172 1856 
Q 275 2238 487 2533 
Q 700 2828 1025 2828 
Q 1253 2828 1411 2678 
Q 1569 2528 1569 2297 
Q 1569 2178 1516 2047 
L 997 672 
Q 909 459 909 288 
Q 909 97 1056 97 
Q 1306 97 1473 364 
Q 1641 631 1709 941 
Q 1722 978 1759 978 
L 1838 978 
Q 1863 978 1878 961 
Q 1894 944 1894 922 
Q 1894 916 1888 903 
Q 1800 541 1583 234 
Q 1366 -72 1044 -72 
Q 819 -72 659 83 
Q 500 238 500 459 
z
M 1222 3878 
Q 1222 4013 1334 4122 
Q 1447 4231 1581 4231 
Q 1691 4231 1761 4164 
Q 1831 4097 1831 3994 
Q 1831 3850 1717 3742 
Q 1603 3634 1466 3634 
Q 1363 3634 1292 3704 
Q 1222 3775 1222 3878 
z
" transform="scale(0.015625)"/>
      </defs>
      <use xlink:href="#Cmsy10-6a" transform="translate(0 0.53125)"/>
      <use xlink:href="#Cmmi10-7e" transform="translate(19.040039 5.609375)"/>
      <use xlink:href="#Cmmi10-70" transform="translate(27.685547 0.53125)"/>
      <use xlink:href="#Cmmi10-69" transform="translate(82.442656 -16.475) scale(0.7)"/>
      <use xlink:href="#Cmsy10-6a" transform="translate(112.91668 0.53125)"/>
      <use xlink:href="#DejaVuSerif-20" transform="translate(140.602227 0.53125)"/>
      <use xlink:href="#DejaVuSerif-28" transform="translate(172.389336 0.53125)"/>
      <use xlink:href="#DejaVuSerif-61" transform="translate(211.403008 0.53125)"/>
      <use xlink:href="#DejaVuSerif-2e" transform="translate(271.022148 0.53125)"/>
      <use xlink:href="#DejaVuSerif-75" transform="translate(302.809258 0.53125)"/>
      <use xlink:href="#DejaVuSerif-2e" transform="translate(367.213555 0.53125)"/>
      <use xlink:href="#DejaVuSerif-29" transform="translate(399.000664 0.53125)"/>
     </g>
    </g>
   </g>
   <g id="line2d_37">
    <path d="M 146.843244 377.708806 
L 147.497563 339.128526 
L 148.151882 339.634979 
L 149.460521 339.854691 
L 152.732117 339.986609 
L 163.201224 340.057517 
L 222.74427 340.089645 
L 800.50812 340.097521 
L 800.50812 340.097521 
" clip-path="url(#p0b70503143)" style="fill: none; stroke: #1f77b4; stroke-width: 3; stroke-linecap: square"/>
   </g>
   <g id="line2d_38">
    <path d="M 146.843244 377.708764 
L 147.497563 228.694916 
L 148.806201 228.600772 
L 250.879996 228.609232 
L 800.50812 228.609571 
L 800.50812 228.609571 
" clip-path="url(#p0b70503143)" style="fill: none; stroke-dasharray: 11.1,4.8; stroke-dashoffset: 0; stroke: #ff7f0e; stroke-width: 3"/>
   </g>
   <g id="line2d_39">
    <path d="M 146.843244 471.340234 
L 147.497563 314.956157 
L 148.151882 315.39097 
L 149.460521 315.589333 
L 153.386436 315.697012 
L 169.744416 315.745306 
L 329.398299 315.761619 
L 800.50812 315.763295 
L 800.50812 315.763295 
" clip-path="url(#p0b70503143)" style="fill: none; stroke-dasharray: 19.2,4.8,3,4.8; stroke-dashoffset: 0; stroke: #2ca02c; stroke-width: 3"/>
   </g>
   <g id="line2d_40">
    <path d="M 146.843244 471.340235 
L 147.497563 452.068167 
L 148.151882 404.725798 
L 148.806201 480.396224 
L 149.460521 468.496604 
L 150.11484 441.369432 
L 150.769159 352.173027 
L 151.423478 478.482689 
L 152.077797 460.291722 
L 152.732117 429.251091 
L 153.386436 440.98341 
L 154.040755 473.243378 
L 154.695074 450.385639 
L 155.349393 408.489361 
L 156.003713 479.40625 
L 156.658032 469.088001 
L 157.312351 442.746252 
L 157.96667 372.043625 
L 158.620989 480.611596 
L 159.275309 464.88954 
L 159.929628 436.889507 
L 160.583947 320.833482 
L 161.238266 477.177677 
L 161.892585 458.762656 
L 162.546904 430.066741 
L 163.201224 270.834596 
L 163.855543 475.445824 
L 164.509862 454.221473 
L 165.164181 418.652678 
L 165.8185 449.371887 
L 166.47282 474.692957 
L 167.127139 453.144394 
L 167.781458 411.080852 
L 168.435777 476.351811 
L 169.090096 473.578087 
L 169.744416 453.849039 
L 170.398735 413.971962 
L 171.053054 478.377598 
L 171.707373 471.521278 
L 172.361692 453.134141 
L 173.016012 418.783891 
L 173.670331 473.082256 
L 174.32465 472.067428 
L 174.978969 450.93866 
L 175.633288 418.142248 
L 176.287608 449.655585 
L 176.941927 474.629079 
L 177.596246 453.768714 
L 178.250565 417.388806 
L 178.904884 398.120342 
L 179.559204 477.767208 
L 180.213523 459.832371 
L 180.867842 428.566048 
L 181.522161 268.381745 
L 182.17648 478.912809 
L 182.8308 464.921449 
L 183.485119 440.697231 
L 184.139438 371.592043 
L 184.793757 480.503127 
L 185.448076 466.762227 
L 186.102396 448.744011 
L 186.756715 409.105331 
L 187.411034 479.450989 
L 188.065353 470.592735 
L 188.719672 451.547118 
L 189.373991 425.503351 
L 190.028311 287.299433 
L 190.68263 477.390134 
L 191.336949 458.863118 
L 191.991268 432.069763 
L 192.645587 383.096763 
L 193.299907 480.948537 
L 193.954226 468.955325 
L 194.608545 445.86044 
L 195.262864 401.59382 
L 195.917183 457.269362 
L 196.571503 477.38668 
L 197.225822 459.692899 
L 197.880141 429.142275 
L 198.53446 306.655506 
L 199.188779 480.512028 
L 199.843099 470.297332 
L 200.497418 450.154211 
L 201.151737 407.549845 
L 201.806056 478.22696 
L 202.460375 474.983762 
L 203.114695 463.178966 
L 203.769014 440.242194 
L 204.423333 373.090809 
L 205.077652 480.641193 
L 206.386291 455.59385 
L 207.04061 429.77812 
L 207.694929 290.556736 
L 208.349248 477.394917 
L 209.657887 446.916667 
L 210.312206 418.673803 
L 210.966525 464.623183 
L 211.620844 473.82884 
L 212.929483 434.076119 
L 213.583802 404.595207 
L 214.238121 478.871605 
L 214.89244 470.583881 
L 215.546759 448.049639 
L 216.855398 376.590598 
L 217.509717 481.255353 
L 218.164036 467.61784 
L 218.818355 441.857069 
L 219.472674 378.809628 
L 220.126994 461.444627 
L 220.781313 480.357535 
L 221.435632 464.780977 
L 222.089951 436.273568 
L 222.74427 315.717556 
L 223.39859 478.117955 
L 224.052909 472.587061 
L 224.707228 460.545197 
L 225.361547 428.913616 
L 226.015866 462.440107 
L 226.670186 472.003844 
L 227.324505 448.480881 
L 227.978824 434.708437 
L 228.633143 411.49641 
L 229.287462 481.159874 
L 229.941782 465.971698 
L 230.596101 433.139313 
L 231.25042 365.164953 
L 231.904739 267.442058 
L 232.559058 476.532 
L 233.213378 450.781745 
L 234.522016 298.697535 
L 235.176335 481.222144 
L 235.830654 462.055579 
L 236.484974 451.201013 
L 237.139293 401.164112 
L 237.793612 477.125634 
L 238.447931 480.949653 
L 239.10225 457.974749 
L 239.75657 459.987603 
L 240.410889 448.138134 
L 241.065208 464.75416 
L 242.373846 406.046993 
L 243.028166 470.812539 
L 243.682485 442.576893 
L 244.336804 429.748306 
L 244.991123 379.813201 
L 246.299761 453.672732 
L 246.954081 466.200292 
L 247.6084 482.459508 
L 248.262719 484.273199 
L 248.917038 469.260788 
L 249.571357 470.713196 
L 250.225677 467.688261 
L 250.879996 470.215075 
L 251.534315 477.281814 
L 252.188634 482.474179 
L 252.842953 357.255625 
L 253.497273 466.528633 
L 254.151592 453.337724 
L 254.805911 430.754715 
L 255.46023 474.929384 
L 256.114549 451.296892 
L 256.768869 348.775314 
L 257.423188 424.555455 
L 258.077507 436.476181 
L 258.731826 451.569315 
L 259.386145 459.99662 
L 260.694784 405.859067 
L 261.349103 462.675921 
L 262.003422 472.732872 
L 262.657741 451.605485 
L 263.312061 390.258325 
L 264.620699 441.453422 
L 265.275018 448.450371 
L 265.929337 442.524912 
L 266.583657 399.142098 
L 267.237976 421.37755 
L 267.892295 464.115309 
L 268.546614 469.4258 
L 269.200933 430.192896 
L 269.855253 420.912666 
L 270.509572 470.375515 
L 271.163891 474.931996 
L 271.81821 440.669901 
L 272.472529 378.165405 
L 273.126848 452.610547 
L 273.781168 458.871864 
L 274.435487 434.139917 
L 275.089806 388.066606 
L 275.744125 431.991074 
L 276.398444 446.910604 
L 277.052764 440.937997 
L 277.707083 411.909716 
L 278.361402 408.213968 
L 279.015721 445.918844 
L 279.67004 454.312782 
L 280.32436 428.840956 
L 280.978679 387.058111 
L 281.632998 454.791807 
L 282.287317 467.025903 
L 282.941636 438.752822 
L 283.595956 391.385706 
L 284.250275 466.337839 
L 284.904594 477.292897 
L 285.558913 445.210356 
L 286.213232 388.379819 
L 286.867552 467.138743 
L 287.521871 476.482576 
L 288.17619 442.852749 
L 288.830509 388.040482 
L 289.484828 461.023453 
L 290.139148 465.814578 
L 291.447786 398.202656 
L 292.102105 453.620378 
L 292.756424 455.628938 
L 293.410744 420.406097 
L 294.065063 403.142219 
L 294.719382 445.241593 
L 295.373701 447.782029 
L 296.02802 421.730369 
L 296.68234 403.800676 
L 297.336659 437.132265 
L 297.990978 444.999093 
L 298.645297 428.919505 
L 299.299616 399.927101 
L 299.953935 432.129604 
L 300.608255 448.106893 
L 301.262574 436.294095 
L 301.916893 390.154452 
L 302.571212 433.748315 
L 303.225531 454.745128 
L 303.879851 441.518613 
L 304.53417 372.119654 
L 305.188489 441.781298 
L 305.842808 462.170576 
L 306.497127 443.893747 
L 307.151447 353.693369 
L 307.805766 452.486808 
L 308.460085 468.827235 
L 309.114404 443.041352 
L 309.768723 377.656729 
L 310.423043 463.14743 
L 311.077362 473.902854 
L 311.731681 438.475694 
L 312.386 411.920154 
L 313.040319 472.323284 
L 313.694639 477.174179 
L 314.348958 437.162201 
L 315.003277 416.504547 
L 315.657596 472.329043 
L 316.311915 473.426997 
L 316.966235 424.260162 
L 317.620554 427.401359 
L 318.274873 470.449866 
L 318.929192 464.369202 
L 319.583511 397.084402 
L 320.237831 435.931704 
L 320.89215 466.947624 
L 321.546469 454.376365 
L 322.200788 367.713664 
L 322.855107 440.409165 
L 323.509427 462.088406 
L 324.163746 443.809224 
L 324.818065 369.473152 
L 325.472384 441.99693 
L 326.126703 456.402335 
L 326.781022 433.769646 
L 327.435342 387.307917 
L 328.089661 441.411656 
L 328.74398 450.631135 
L 330.052618 399.397326 
L 330.706938 439.374354 
L 331.361257 445.874572 
L 332.015576 423.486792 
L 332.669895 405.088729 
L 333.324214 436.9186 
L 333.978534 443.387761 
L 335.287172 405.877933 
L 335.941491 435.558395 
L 336.59581 443.758294 
L 337.25013 425.42915 
L 337.904449 403.190181 
L 338.558768 436.867582 
L 339.213087 446.320269 
L 339.867406 425.432984 
L 340.521726 399.769664 
L 341.176045 441.326713 
L 341.830364 449.685037 
L 342.484683 422.527697 
L 343.139002 401.337909 
L 343.793322 447.900222 
L 344.447641 452.578233 
L 345.10196 415.178219 
L 345.756279 411.902027 
L 346.410598 455.081786 
L 347.064918 454.090752 
L 347.719237 400.51659 
L 348.373556 427.083352 
L 349.027875 461.771528 
L 349.682194 453.591853 
L 350.336514 371.376931 
L 350.990833 441.655321 
L 351.645152 467.318309 
L 352.299471 450.510082 
L 352.95379 333.296228 
L 353.608109 454.096955 
L 354.262429 471.240032 
L 354.916748 444.135378 
L 355.571067 382.206773 
L 356.225386 464.490733 
L 356.879705 473.075663 
L 357.534025 433.037562 
L 358.188344 420.157685 
L 358.842663 473.020425 
L 359.496982 472.627407 
L 360.151301 416.533958 
L 360.805621 438.310833 
L 361.45994 477.737901 
L 362.114259 470.972341 
L 362.768578 402.151267 
L 363.422897 444.656087 
L 364.077217 477.350072 
L 364.731536 463.32228 
L 365.385855 341.662293 
L 366.040174 453.114746 
L 366.694493 474.827031 
L 367.348813 451.528537 
L 368.003132 343.754361 
L 368.657451 458.813096 
L 369.31177 470.164163 
L 370.620409 398.286063 
L 371.274728 461.688984 
L 371.929047 463.713173 
L 372.583366 415.665124 
L 373.237685 421.053811 
L 373.892005 462.150019 
L 374.546324 455.672541 
L 375.200643 388.682986 
L 375.854962 433.270976 
L 376.509281 460.543856 
L 377.163601 446.131011 
L 377.81792 371.533683 
L 378.472239 440.204831 
L 379.126558 457.254888 
L 379.780877 435.322024 
L 380.435196 384.22873 
L 381.089516 443.776055 
L 381.743835 452.734014 
L 382.398154 424.146178 
L 383.052473 401.106821 
L 383.706792 444.991003 
L 384.361112 447.551616 
L 385.015431 414.707238 
L 385.66975 412.276932 
L 386.324069 444.621041 
L 386.978388 442.456505 
L 387.632708 409.294809 
L 388.287027 418.777427 
L 388.941346 443.472343 
L 389.595665 438.299824 
L 390.249984 407.695252 
L 390.904304 422.271822 
L 391.558623 442.437423 
L 392.212942 435.632567 
L 392.867261 407.295925 
L 394.1759 442.333494 
L 394.830219 434.253317 
L 395.484538 405.766255 
L 396.138857 426.501834 
L 396.793176 443.533052 
L 397.447496 433.22712 
L 398.101815 402.249693 
L 398.756134 430.162118 
L 399.410453 445.742438 
L 400.064772 431.322579 
L 400.719092 398.001266 
L 401.373411 435.707399 
L 402.02773 448.197304 
L 402.682049 427.287401 
L 403.336368 397.653599 
L 403.990688 442.454151 
L 404.645007 450.034282 
L 405.299326 419.712426 
L 405.953645 406.073416 
L 406.607964 449.328379 
L 407.262284 450.48741 
L 407.916603 406.448146 
L 408.570922 420.413265 
L 409.225241 455.45964 
L 409.87956 448.893897 
L 410.533879 384.120549 
L 411.188199 434.933519 
L 411.842518 460.264326 
L 412.496837 444.551059 
L 413.151156 361.376877 
L 413.805475 447.348592 
L 414.459795 463.29378 
L 415.114114 436.410388 
L 415.768433 385.437623 
L 416.422752 457.445948 
L 417.077071 464.144205 
L 417.731391 422.164019 
L 418.38571 417.628754 
L 419.040029 465.414193 
L 419.694348 462.441192 
L 420.348667 394.619645 
L 421.002987 439.135892 
L 421.657306 471.288206 
L 422.311625 457.795774 
L 422.965944 323.503676 
L 423.620263 454.239901 
L 424.274583 474.813673 
L 424.928902 449.573897 
L 425.583221 371.161926 
L 426.23754 465.58315 
L 426.891859 475.60335 
L 427.546179 436.604883 
L 428.200498 418.934137 
L 428.854817 473.702807 
L 429.509136 473.961598 
L 430.163455 420.496172 
L 430.817775 436.3062 
L 431.472094 477.11211 
L 432.126413 469.782993 
L 432.780732 393.66376 
L 433.435051 447.314653 
L 434.089371 477.341494 
L 434.74369 460.31638 
L 435.398009 297.916688 
L 436.052328 457.102978 
L 436.706647 474.880076 
L 437.360966 446.546174 
L 438.015286 379.869119 
L 438.669605 463.373927 
L 439.323924 469.699012 
L 439.978243 426.774179 
L 440.632562 418.335437 
L 441.286882 466.438234 
L 441.941201 462.114123 
L 442.59552 394.629272 
L 443.249839 436.328275 
L 443.904158 466.609473 
L 444.558478 452.067634 
L 445.212797 351.337258 
L 445.867116 446.578694 
L 446.521435 464.174664 
L 447.175754 438.990317 
L 447.830074 377.323913 
L 448.484393 452.384313 
L 449.138712 459.45488 
L 449.793031 421.901113 
L 450.44735 407.895933 
L 451.10167 454.979597 
L 451.755989 452.736661 
L 452.410308 401.010082 
L 453.064627 424.663643 
L 453.718946 455.012918 
L 454.373266 444.263687 
L 455.027585 385.649927 
L 455.681904 434.2196 
L 456.336223 452.994214 
L 456.990542 434.423821 
L 457.644862 390.036523 
L 458.299181 439.503799 
L 458.9535 449.459931 
L 460.262138 402.817835 
L 460.916458 441.974506 
L 461.570777 445.043562 
L 462.225096 415.405948 
L 462.879415 413.101492 
L 463.533734 442.631802 
L 464.188053 440.499016 
L 464.842373 409.949232 
L 465.496692 419.776454 
L 466.151011 442.384398 
L 466.80533 436.558111 
L 467.459649 407.589014 
L 468.768288 442.108145 
L 469.422607 433.550472 
L 470.076926 406.331614 
L 470.731245 427.224701 
L 471.385565 442.440921 
L 472.039884 431.09359 
L 472.694203 404.708382 
L 473.348522 430.766396 
L 474.002841 443.507844 
L 474.657161 428.159883 
L 475.31148 403.224174 
L 475.965799 435.401563 
L 476.620118 444.857992 
L 477.928757 404.732955 
L 478.583076 441.012283 
L 479.237395 445.697629 
L 479.891714 415.355004 
L 480.546033 412.036762 
L 481.200353 446.842028 
L 481.854672 445.156521 
L 482.508991 402.284731 
L 483.16331 423.7268 
L 483.817629 452.030568 
L 484.471949 442.361216 
L 485.126268 384.730137 
L 485.780587 436.120215 
L 486.434906 455.865099 
L 487.089225 436.284907 
L 487.743545 380.232313 
L 488.397864 447.09265 
L 489.052183 457.763819 
L 489.706502 425.178101 
L 490.360821 402.885095 
L 491.01514 456.033766 
L 491.66946 457.205823 
L 492.323779 404.914231 
L 492.978098 426.638888 
L 493.632417 462.789637 
L 494.286736 453.640201 
L 494.941056 364.376396 
L 495.595375 444.156026 
L 496.249694 467.161102 
L 496.904013 446.259541 
L 497.558332 356.517016 
L 498.212652 457.088953 
L 498.866971 468.791043 
L 499.52129 433.211884 
L 500.175609 409.018214 
L 500.829928 466.815779 
L 501.484248 467.283903 
L 502.138567 408.464483 
L 502.792886 437.359749 
L 503.447205 473.825871 
L 504.101524 462.30447 
L 504.755844 337.725614 
L 505.410163 454.972928 
L 506.064482 477.862089 
L 506.718801 453.712826 
L 507.37312 359.530429 
L 508.02744 466.45343 
L 508.681759 478.56865 
L 509.990397 407.233195 
L 510.644716 471.766649 
L 511.299036 475.265358 
L 511.953355 426.917566 
L 512.607674 430.877326 
L 513.261993 474.569838 
L 513.916312 466.993262 
L 514.570632 383.798225 
L 515.224951 447.316692 
L 515.87927 474.498515 
L 516.533589 455.077012 
L 517.187908 318.608742 
L 517.842227 457.201266 
L 518.496547 471.046689 
L 519.150866 438.580521 
L 519.805185 396.515764 
L 520.459504 462.634603 
L 521.113823 464.620719 
L 521.768143 413.628935 
L 522.422462 425.585761 
L 523.076781 464.468142 
L 523.7311 455.446834 
L 524.385419 374.041271 
L 525.039739 440.117296 
L 525.694058 463.147909 
L 526.348377 443.275463 
L 527.002696 366.042735 
L 527.657015 448.056759 
L 528.311335 459.10434 
L 529.619973 398.776955 
L 530.274292 451.806091 
L 530.928611 452.786139 
L 531.582931 408.462563 
L 532.23725 418.775245 
L 532.891569 452.444414 
L 533.545888 444.684443 
L 534.200207 393.193286 
L 534.854527 429.73129 
L 535.508846 450.761117 
L 536.163165 435.541703 
L 536.817484 393.231564 
L 537.471803 435.531995 
L 538.126123 447.586237 
L 538.780442 426.699796 
L 539.434761 402.177252 
L 540.08908 438.198665 
L 540.743399 443.911825 
L 541.397719 419.890155 
L 542.052038 410.031177 
L 542.706357 439.216918 
L 543.360676 440.785286 
L 544.014995 415.611271 
L 544.669315 414.999662 
L 545.323634 439.996341 
L 545.977953 438.83691 
L 546.632272 412.216634 
L 547.286591 418.531814 
L 547.94091 441.660508 
L 548.59523 437.767136 
L 549.249549 407.367892 
L 549.903868 422.893476 
L 550.558187 444.527362 
L 551.212506 436.414892 
L 551.866826 399.911893 
L 552.521145 429.614275 
L 553.175464 447.98227 
L 553.829783 433.249711 
L 554.484102 392.975945 
L 555.138422 438.252322 
L 555.792741 450.945971 
L 556.44706 426.51524 
L 557.101379 397.332585 
L 557.755698 447.218643 
L 558.410018 452.351664 
L 559.064337 413.582591 
L 559.718656 414.739242 
L 560.372975 455.185702 
L 561.027294 451.260652 
L 561.681614 389.005155 
L 562.335933 433.429473 
L 562.990252 461.359911 
L 563.644571 446.712754 
L 564.29889 355.607837 
L 564.95321 448.670996 
L 565.607529 465.146631 
L 566.261848 437.227671 
L 566.916167 389.395639 
L 567.570486 460.545761 
L 568.224806 465.958167 
L 568.879125 419.022128 
L 569.533444 426.052881 
L 570.187763 469.580189 
L 570.842082 463.235673 
L 571.496402 375.840799 
L 572.150721 448.218737 
L 572.80504 475.773435 
L 573.459359 456.432171 
L 574.113678 317.213177 
L 574.767997 463.21907 
L 575.422317 478.545398 
L 576.076636 446.468349 
L 576.730955 399.316151 
L 577.385274 470.758303 
L 578.039593 477.154116 
L 578.693913 434.545173 
L 579.348232 423.32327 
L 580.002551 473.348416 
L 580.65687 469.028115 
L 581.311189 399.784145 
L 581.965509 442.397071 
L 582.619828 473.207195 
L 583.274147 456.95453 
L 583.928466 323.632377 
L 584.582785 452.891368 
L 585.237105 469.405202 
L 585.891424 440.898475 
L 586.545743 382.54836 
L 587.200062 457.985678 
L 587.854381 462.581131 
L 588.508701 418.851003 
L 589.16302 415.844086 
L 589.817339 459.036243 
L 590.471658 453.329445 
L 591.125977 391.485792 
L 591.780297 430.712545 
L 592.434616 456.900106 
L 593.088935 442.271611 
L 593.743254 381.16318 
L 594.397573 437.615715 
L 595.051893 452.539498 
L 595.706212 430.902091 
L 596.360531 394.35107 
L 597.01485 439.902686 
L 597.669169 447.312964 
L 598.323489 422.301386 
L 598.977808 405.656051 
L 599.632127 439.634709 
L 600.286446 443.111088 
L 600.940765 418.613248 
L 601.595084 410.517416 
L 602.249404 439.07901 
L 602.903723 441.656557 
L 603.558042 417.392771 
L 604.212361 411.372014 
L 604.86668 440.713781 
L 605.521 442.915946 
L 606.175319 414.105253 
L 606.829638 413.128363 
L 607.483957 445.625422 
L 608.138276 445.013126 
L 608.792596 404.694407 
L 609.446915 421.34664 
L 610.101234 452.588841 
L 610.755553 445.75648 
L 611.409872 384.331216 
L 612.064192 435.227455 
L 612.718511 459.585338 
L 613.37283 443.372822 
L 614.027149 360.805535 
L 614.681468 449.806294 
L 615.335788 465.072433 
L 615.990107 436.048383 
L 616.644426 394.146402 
L 617.298745 462.671967 
L 617.953064 467.933244 
L 618.607384 420.130037 
L 619.261703 429.765981 
L 619.916022 473.422265 
L 620.570341 467.308182 
L 621.22466 382.466719 
L 621.87898 450.789147 
L 622.533299 480.405973 
L 623.187618 465.51522 
L 623.841937 344.29452 
L 624.496256 455.106351 
L 625.150576 477.034646 
L 625.804895 452.670014 
L 626.459214 346.066533 
L 627.113533 459.522063 
L 627.767852 469.179216 
L 629.076491 401.510781 
L 629.73081 459.348698 
L 630.385129 459.04621 
L 631.039448 410.263986 
L 631.693767 419.270584 
L 632.348087 455.374783 
L 633.002406 448.170962 
L 633.656725 397.280188 
L 634.965363 449.23143 
L 635.619683 440.074216 
L 636.274002 402.326308 
L 637.58264 444.204358 
L 638.236959 439.241002 
L 638.891279 408.641091 
L 639.545598 417.396561 
L 640.199917 445.119932 
L 640.854236 444.751273 
L 641.508555 407.868417 
L 642.162875 417.011474 
L 642.817194 453.215257 
L 643.471513 451.665724 
L 644.125832 395.982904 
L 645.434471 464.600855 
L 646.08879 456.722049 
L 646.743109 358.425961 
L 647.397428 449.062673 
L 648.051747 476.006067 
L 648.706067 458.488942 
L 649.360386 270.319351 
L 650.014705 460.573925 
L 650.669024 480.107435 
L 651.323343 456.410984 
L 651.977663 315.847886 
L 652.631982 456.644665 
L 653.286301 468.426064 
L 653.94062 439.138053 
L 654.594939 377.041001 
L 655.249258 448.813025 
L 655.903578 455.214617 
L 656.557897 428.928871 
L 657.212216 394.024409 
L 657.866535 435.083362 
L 658.520854 446.926892 
L 659.175174 437.523271 
L 659.829493 400.894261 
L 660.483812 420.820077 
L 661.138131 453.305283 
L 661.79245 454.545795 
L 662.44677 407.528627 
L 663.101089 425.630476 
L 663.755408 469.766488 
L 664.409727 470.749082 
L 665.064046 419.994479 
L 665.718366 426.974519 
L 666.372685 471.366541 
L 667.027004 467.748026 
L 667.681323 423.501945 
L 668.335642 402.533483 
L 668.989962 448.274454 
L 669.644281 451.374163 
L 670.2986 436.885854 
L 670.952919 402.247679 
L 671.607238 411.429962 
L 672.261558 455.020096 
L 672.915877 468.411589 
L 673.570196 449.033408 
L 674.224515 322.745584 
L 674.878834 462.035289 
L 675.533154 415.537157 
L 676.187473 449.115587 
L 676.841792 437.042988 
L 677.496111 464.766266 
L 678.15043 485.253593 
L 678.80475 376.166868 
L 679.459069 330.213111 
L 680.113388 483.182802 
L 680.767707 468.505492 
L 681.422026 449.829529 
L 682.076345 444.211894 
L 682.730665 446.561754 
L 683.384984 438.487306 
L 684.039303 435.749625 
L 684.693622 487.280098 
L 685.347941 392.222969 
L 686.002261 454.533643 
L 686.65658 477.637172 
L 687.310899 449.106955 
L 687.965218 447.795771 
L 688.619537 439.306503 
L 689.273857 428.648955 
L 689.928176 484.374584 
L 690.582495 460.324037 
L 691.236814 270.47368 
L 691.891133 411.094397 
L 692.545453 482.346261 
L 693.199772 463.265526 
L 693.854091 438.716439 
L 694.50841 402.957356 
L 695.162729 328.649289 
L 695.817049 346.463741 
L 696.471368 415.281231 
L 697.125687 434.828276 
L 697.780006 446.16449 
L 698.434325 454.290668 
L 699.742964 466.500352 
L 701.051602 476.16521 
L 701.705921 480.298694 
L 702.360241 482.422267 
L 703.01456 481.646925 
L 704.323198 478.357553 
L 704.977517 477.029842 
L 705.631837 476.076058 
L 706.286156 475.549612 
L 706.940475 475.468789 
L 707.594794 475.822421 
L 708.249113 476.574528 
L 708.903433 477.673088 
L 710.86639 481.623827 
L 711.520709 481.216946 
L 714.137986 474.867516 
L 714.792305 473.69996 
L 715.446624 472.804294 
L 716.100944 472.207076 
L 716.755263 471.926787 
L 717.409582 471.971664 
L 718.063901 472.338154 
L 718.71822 473.011818 
L 719.37254 473.969276 
L 720.681178 476.606888 
L 722.644136 481.37296 
L 723.298455 482.137639 
L 723.952774 481.862357 
L 725.261412 480.03138 
L 727.22437 477.24452 
L 728.533008 475.896483 
L 729.187328 475.437378 
L 729.841647 475.137737 
L 730.495966 475.002687 
L 731.150285 475.031101 
L 731.804604 475.215246 
L 733.113243 475.990644 
L 734.421881 477.156639 
L 737.039158 479.662288 
L 737.693477 480.081538 
L 738.347796 480.259963 
L 739.002115 479.957823 
L 739.656435 478.905957 
L 740.965073 475.223102 
L 744.890988 463.013573 
L 747.508265 455.79089 
L 750.125542 448.711873 
L 751.43418 444.598593 
L 752.742819 439.534406 
L 754.051457 432.846685 
L 754.705776 428.589444 
L 755.360095 423.512514 
L 756.668734 410.943731 
L 757.323053 403.940242 
L 757.977372 394.934578 
L 758.631691 380.854717 
L 759.286011 358.995688 
L 760.594649 297.497609 
L 761.248968 310.750893 
L 761.903287 340.401509 
L 762.557607 362.746239 
L 763.211926 378.478078 
L 763.866245 390.058629 
L 764.520564 399.017382 
L 765.829202 412.310607 
L 767.137841 422.225815 
L 768.446479 430.462712 
L 770.409437 441.346271 
L 773.026714 454.545632 
L 774.989671 463.429314 
L 775.64399 465.776879 
L 776.29831 467.409454 
L 776.952629 468.385174 
L 778.261267 469.624413 
L 778.915586 470.026964 
L 780.224225 470.445692 
L 782.187182 470.571386 
L 783.495821 470.723814 
L 784.15014 470.920168 
L 784.804459 471.234407 
L 785.458778 471.688284 
L 786.113098 472.297397 
L 787.421736 474.009509 
L 788.730374 476.361501 
L 790.039013 479.251952 
L 791.347651 482.370032 
L 792.00197 483.538207 
L 792.656289 483.780011 
L 793.310609 483.009532 
L 796.582205 476.773184 
L 797.236524 475.938362 
L 797.890843 475.367288 
L 798.545162 475.09898 
L 799.199481 475.162541 
L 799.853801 475.57384 
L 800.50812 476.334177 
L 800.50812 476.334177 
" clip-path="url(#p0b70503143)" style="fill: none; stroke-dasharray: 3,4.95; stroke-dashoffset: 0; stroke: #d62728; stroke-width: 3"/>
   </g>
   <g id="line2d_41">
    <path d="M 366.021365 -1 
L 371.274728 23.856609 
L 375.854962 44.506561 
L 380.435196 64.260251 
L 386.324069 88.330134 
L 390.249984 103.630349 
L 396.138857 125.377565 
L 400.064772 139.150313 
L 405.299326 156.520655 
L 409.87956 170.832754 
L 414.459795 184.26743 
L 419.040029 196.797315 
L 422.965944 206.776653 
L 426.23754 214.580658 
L 432.126413 227.847455 
L 435.398009 234.788454 
L 438.669605 241.143936 
L 441.286882 245.814156 
L 443.904158 250.093865 
L 446.521435 253.9691 
L 449.138712 257.426202 
L 451.755989 260.452097 
L 453.718946 262.423873 
L 455.681904 264.141921 
L 457.644862 265.611753 
L 459.607819 266.827228 
L 461.570777 267.770614 
L 463.533734 268.44133 
L 465.496692 268.840613 
L 466.80533 268.973927 
L 468.768288 268.933191 
L 470.731245 268.616366 
L 472.039884 268.257069 
L 474.002841 267.505034 
L 475.965799 266.481493 
L 477.928757 265.18667 
L 479.891714 263.630168 
L 481.854672 261.829778 
L 484.471949 259.028484 
L 486.434906 256.648927 
L 489.052183 253.089208 
L 491.66946 249.11389 
L 494.286736 244.736753 
L 496.904013 239.971829 
L 499.52129 234.833158 
L 502.138567 229.334528 
L 505.410163 221.976817 
L 508.681759 214.049104 
L 517.187908 192.346744 
L 520.459504 183.330456 
L 524.385419 171.871198 
L 528.311335 159.811884 
L 533.545888 142.727584 
L 538.780442 124.548783 
L 543.360676 107.775274 
L 548.59523 87.56291 
L 553.175464 68.989594 
L 558.410018 46.6742 
L 562.990252 26.193791 
L 568.224806 1.603278 
L 568.764903 -1 
L 568.764903 -1 
" clip-path="url(#p0b70503143)" style="fill: none; stroke: #000000; stroke-width: 3; stroke-linecap: square"/>
   </g>
   <g id="patch_3">
    <path d="M 114.16 489.2325 
L 114.16 28.08 
" style="fill: none; stroke: #000000; stroke-width: 2; stroke-linejoin: miter; stroke-linecap: square"/>
   </g>
   <g id="patch_4">
    <path d="M 833.191364 489.2325 
L 833.191364 28.08 
" style="fill: none; stroke: #000000; stroke-width: 2; stroke-linejoin: miter; stroke-linecap: square"/>
   </g>
   <g id="patch_5">
    <path d="M 114.16 489.2325 
L 833.191364 489.2325 
" style="fill: none; stroke: #000000; stroke-width: 2; stroke-linejoin: miter; stroke-linecap: square"/>
   </g>
   <g id="patch_6">
    <path d="M 114.16 28.08 
L 833.191364 28.08 
" style="fill: none; stroke: #000000; stroke-width: 2; stroke-linejoin: miter; stroke-linecap: square"/>
   </g>
   <g id="legend_1">
    <g id="patch_7">
     <path d="M 683.493864 158.305 
L 821.991364 158.305 
Q 825.191364 158.305 825.191364 155.105 
L 825.191364 39.28 
Q 825.191364 36.08 821.991364 36.08 
L 683.493864 36.08 
Q 680.293864 36.08 680.293864 39.28 
L 680.293864 155.105 
Q 680.293864 158.305 683.493864 158.305 
z
" style="fill: #ffffff; opacity: 0.8; stroke: #cccccc; stroke-linejoin: miter"/>
    </g>
    <g id="line2d_42">
     <path d="M 686.693864 49.0375 
L 702.693864 49.0375 
L 718.693864 49.0375 
" style="fill: none; stroke: #1f77b4; stroke-width: 3; stroke-linecap: square"/>
    </g>
    <g id="text_15">
     <!-- Electron 1 -->
     <g transform="translate(731.493864 54.6375) scale(0.16 -0.16)">
      <defs>
       <path id="DejaVuSerif-45" d="M 353 0 
L 353 331 
L 947 331 
L 947 4331 
L 353 4331 
L 353 4666 
L 4109 4666 
L 4109 3628 
L 3725 3628 
L 3725 4281 
L 1581 4281 
L 1581 2719 
L 3109 2719 
L 3109 3303 
L 3494 3303 
L 3494 1753 
L 3109 1753 
L 3109 2338 
L 1581 2338 
L 1581 384 
L 3775 384 
L 3775 1038 
L 4159 1038 
L 4159 0 
L 353 0 
z
" transform="scale(0.015625)"/>
       <path id="DejaVuSerif-6c" d="M 1313 331 
L 1856 331 
L 1856 0 
L 184 0 
L 184 331 
L 738 331 
L 738 4531 
L 184 4531 
L 184 4863 
L 1313 4863 
L 1313 331 
z
" transform="scale(0.015625)"/>
       <path id="DejaVuSerif-65" d="M 3469 1600 
L 991 1600 
L 991 1575 
Q 991 903 1244 561 
Q 1497 219 1991 219 
Q 2369 219 2611 417 
Q 2853 616 2950 1006 
L 3413 1006 
Q 3275 459 2904 184 
Q 2534 -91 1931 -91 
Q 1203 -91 761 389 
Q 319 869 319 1663 
Q 319 2450 753 2931 
Q 1188 3413 1894 3413 
Q 2647 3413 3050 2948 
Q 3453 2484 3469 1600 
z
M 2791 1931 
Q 2772 2513 2545 2808 
Q 2319 3103 1894 3103 
Q 1497 3103 1269 2806 
Q 1041 2509 991 1931 
L 2791 1931 
z
" transform="scale(0.015625)"/>
       <path id="DejaVuSerif-63" d="M 3291 997 
Q 3169 466 2822 187 
Q 2475 -91 1925 -91 
Q 1200 -91 759 389 
Q 319 869 319 1663 
Q 319 2459 759 2936 
Q 1200 3413 1925 3413 
Q 2241 3413 2553 3339 
Q 2866 3266 3181 3116 
L 3181 2266 
L 2847 2266 
Q 2781 2703 2561 2903 
Q 2341 3103 1931 3103 
Q 1466 3103 1228 2742 
Q 991 2381 991 1663 
Q 991 944 1227 581 
Q 1463 219 1931 219 
Q 2303 219 2525 412 
Q 2747 606 2828 997 
L 3291 997 
z
" transform="scale(0.015625)"/>
       <path id="DejaVuSerif-74" d="M 691 2988 
L 184 2988 
L 184 3322 
L 691 3322 
L 691 4353 
L 1269 4353 
L 1269 3322 
L 2350 3322 
L 2350 2988 
L 1269 2988 
L 1269 878 
Q 1269 456 1350 337 
Q 1431 219 1650 219 
Q 1875 219 1978 351 
Q 2081 484 2088 781 
L 2522 781 
Q 2497 328 2275 118 
Q 2053 -91 1600 -91 
Q 1103 -91 897 129 
Q 691 350 691 878 
L 691 2988 
z
" transform="scale(0.015625)"/>
       <path id="DejaVuSerif-72" d="M 3059 3328 
L 3059 2497 
L 2728 2497 
Q 2713 2744 2591 2866 
Q 2469 2988 2234 2988 
Q 1809 2988 1582 2694 
Q 1356 2400 1356 1850 
L 1356 331 
L 2022 331 
L 2022 0 
L 263 0 
L 263 331 
L 781 331 
L 781 2994 
L 231 2994 
L 231 3322 
L 1356 3322 
L 1356 2731 
Q 1525 3078 1790 3245 
Q 2056 3413 2438 3413 
Q 2578 3413 2733 3391 
Q 2888 3369 3059 3328 
z
" transform="scale(0.015625)"/>
       <path id="DejaVuSerif-6f" d="M 1925 219 
Q 2388 219 2623 584 
Q 2859 950 2859 1663 
Q 2859 2375 2623 2739 
Q 2388 3103 1925 3103 
Q 1463 3103 1227 2739 
Q 991 2375 991 1663 
Q 991 950 1228 584 
Q 1466 219 1925 219 
z
M 1925 -91 
Q 1200 -91 759 389 
Q 319 869 319 1663 
Q 319 2456 758 2934 
Q 1197 3413 1925 3413 
Q 2653 3413 3092 2934 
Q 3531 2456 3531 1663 
Q 3531 869 3092 389 
Q 2653 -91 1925 -91 
z
" transform="scale(0.015625)"/>
       <path id="DejaVuSerif-6e" d="M 263 0 
L 263 331 
L 781 331 
L 781 2988 
L 231 2988 
L 231 3322 
L 1356 3322 
L 1356 2731 
Q 1516 3069 1770 3241 
Q 2025 3413 2363 3413 
Q 2913 3413 3172 3097 
Q 3431 2781 3431 2113 
L 3431 331 
L 3944 331 
L 3944 0 
L 2356 0 
L 2356 331 
L 2853 331 
L 2853 1931 
Q 2853 2541 2703 2767 
Q 2553 2994 2175 2994 
Q 1775 2994 1565 2701 
Q 1356 2409 1356 1850 
L 1356 331 
L 1856 331 
L 1856 0 
L 263 0 
z
" transform="scale(0.015625)"/>
      </defs>
      <use xlink:href="#DejaVuSerif-45"/>
      <use xlink:href="#DejaVuSerif-6c" x="72.998047"/>
      <use xlink:href="#DejaVuSerif-65" x="104.980469"/>
      <use xlink:href="#DejaVuSerif-63" x="164.160156"/>
      <use xlink:href="#DejaVuSerif-74" x="220.166016"/>
      <use xlink:href="#DejaVuSerif-72" x="260.351562"/>
      <use xlink:href="#DejaVuSerif-6f" x="308.154297"/>
      <use xlink:href="#DejaVuSerif-6e" x="368.359375"/>
      <use xlink:href="#DejaVuSerif-20" x="432.763672"/>
      <use xlink:href="#DejaVuSerif-31" x="464.550781"/>
     </g>
    </g>
    <g id="line2d_43">
     <path d="M 686.693864 72.5225 
L 702.693864 72.5225 
L 718.693864 72.5225 
" style="fill: none; stroke-dasharray: 11.1,4.8; stroke-dashoffset: 0; stroke: #ff7f0e; stroke-width: 3"/>
    </g>
    <g id="text_16">
     <!-- Electron 2 -->
     <g transform="translate(731.493864 78.1225) scale(0.16 -0.16)">
      <use xlink:href="#DejaVuSerif-45"/>
      <use xlink:href="#DejaVuSerif-6c" x="72.998047"/>
      <use xlink:href="#DejaVuSerif-65" x="104.980469"/>
      <use xlink:href="#DejaVuSerif-63" x="164.160156"/>
      <use xlink:href="#DejaVuSerif-74" x="220.166016"/>
      <use xlink:href="#DejaVuSerif-72" x="260.351562"/>
      <use xlink:href="#DejaVuSerif-6f" x="308.154297"/>
      <use xlink:href="#DejaVuSerif-6e" x="368.359375"/>
      <use xlink:href="#DejaVuSerif-20" x="432.763672"/>
      <use xlink:href="#DejaVuSerif-32" x="464.550781"/>
     </g>
    </g>
    <g id="line2d_44">
     <path d="M 686.693864 96.0075 
L 702.693864 96.0075 
L 718.693864 96.0075 
" style="fill: none; stroke-dasharray: 19.2,4.8,3,4.8; stroke-dashoffset: 0; stroke: #2ca02c; stroke-width: 3"/>
    </g>
    <g id="text_17">
     <!-- Electron 3 -->
     <g transform="translate(731.493864 101.6075) scale(0.16 -0.16)">
      <defs>
       <path id="DejaVuSerif-33" d="M 622 4469 
Q 988 4606 1323 4678 
Q 1659 4750 1953 4750 
Q 2638 4750 3022 4454 
Q 3406 4159 3406 3634 
Q 3406 3213 3140 2930 
Q 2875 2647 2388 2547 
Q 2963 2466 3280 2130 
Q 3597 1794 3597 1259 
Q 3597 606 3158 257 
Q 2719 -91 1894 -91 
Q 1528 -91 1179 -12 
Q 831 66 488 225 
L 488 1131 
L 838 1131 
Q 869 681 1141 450 
Q 1413 219 1906 219 
Q 2384 219 2661 495 
Q 2938 772 2938 1253 
Q 2938 1803 2653 2086 
Q 2369 2369 1819 2369 
L 1522 2369 
L 1522 2688 
L 1678 2688 
Q 2225 2688 2498 2914 
Q 2772 3141 2772 3597 
Q 2772 4006 2547 4223 
Q 2322 4441 1900 4441 
Q 1478 4441 1245 4241 
Q 1013 4041 972 3647 
L 622 3647 
L 622 4469 
z
" transform="scale(0.015625)"/>
      </defs>
      <use xlink:href="#DejaVuSerif-45"/>
      <use xlink:href="#DejaVuSerif-6c" x="72.998047"/>
      <use xlink:href="#DejaVuSerif-65" x="104.980469"/>
      <use xlink:href="#DejaVuSerif-63" x="164.160156"/>
      <use xlink:href="#DejaVuSerif-74" x="220.166016"/>
      <use xlink:href="#DejaVuSerif-72" x="260.351562"/>
      <use xlink:href="#DejaVuSerif-6f" x="308.154297"/>
      <use xlink:href="#DejaVuSerif-6e" x="368.359375"/>
      <use xlink:href="#DejaVuSerif-20" x="432.763672"/>
      <use xlink:href="#DejaVuSerif-33" x="464.550781"/>
     </g>
    </g>
    <g id="line2d_45">
     <path d="M 686.693864 119.4925 
L 702.693864 119.4925 
L 718.693864 119.4925 
" style="fill: none; stroke-dasharray: 3,4.95; stroke-dashoffset: 0; stroke: #d62728; stroke-width: 3"/>
    </g>
    <g id="text_18">
     <!-- Electron 4 -->
     <g transform="translate(731.493864 125.0925) scale(0.16 -0.16)">
      <use xlink:href="#DejaVuSerif-45"/>
      <use xlink:href="#DejaVuSerif-6c" x="72.998047"/>
      <use xlink:href="#DejaVuSerif-65" x="104.980469"/>
      <use xlink:href="#DejaVuSerif-63" x="164.160156"/>
      <use xlink:href="#DejaVuSerif-74" x="220.166016"/>
      <use xlink:href="#DejaVuSerif-72" x="260.351562"/>
      <use xlink:href="#DejaVuSerif-6f" x="308.154297"/>
      <use xlink:href="#DejaVuSerif-6e" x="368.359375"/>
      <use xlink:href="#DejaVuSerif-20" x="432.763672"/>
      <use xlink:href="#DejaVuSerif-34" x="464.550781"/>
     </g>
    </g>
    <g id="line2d_46">
     <path d="M 686.693864 142.9775 
L 702.693864 142.9775 
L 718.693864 142.9775 
" style="fill: none; stroke: #000000; stroke-width: 3; stroke-linecap: square"/>
    </g>
    <g id="text_19">
     <!-- Antiproton -->
     <g transform="translate(731.493864 148.5775) scale(0.16 -0.16)">
      <defs>
       <path id="DejaVuSerif-41" d="M 1281 1691 
L 2994 1691 
L 2138 3909 
L 1281 1691 
z
M -38 0 
L -38 331 
L 372 331 
L 2034 4666 
L 2559 4666 
L 4225 331 
L 4684 331 
L 4684 0 
L 2988 0 
L 2988 331 
L 3506 331 
L 3116 1356 
L 1153 1356 
L 763 331 
L 1275 331 
L 1275 0 
L -38 0 
z
" transform="scale(0.015625)"/>
       <path id="DejaVuSerif-69" d="M 622 4353 
Q 622 4497 726 4603 
Q 831 4709 978 4709 
Q 1122 4709 1226 4603 
Q 1331 4497 1331 4353 
Q 1331 4206 1228 4103 
Q 1125 4000 978 4000 
Q 831 4000 726 4103 
Q 622 4206 622 4353 
z
M 1356 331 
L 1900 331 
L 1900 0 
L 231 0 
L 231 331 
L 781 331 
L 781 2988 
L 231 2988 
L 231 3322 
L 1356 3322 
L 1356 331 
z
" transform="scale(0.015625)"/>
       <path id="DejaVuSerif-70" d="M 1313 1825 
L 1313 1497 
Q 1313 897 1542 583 
Q 1772 269 2209 269 
Q 2650 269 2876 622 
Q 3103 975 3103 1663 
Q 3103 2353 2876 2703 
Q 2650 3053 2209 3053 
Q 1772 3053 1542 2737 
Q 1313 2422 1313 1825 
z
M 738 2988 
L 184 2988 
L 184 3322 
L 1313 3322 
L 1313 2803 
Q 1481 3116 1742 3264 
Q 2003 3413 2388 3413 
Q 3000 3413 3387 2928 
Q 3775 2444 3775 1663 
Q 3775 881 3387 395 
Q 3000 -91 2388 -91 
Q 2003 -91 1742 57 
Q 1481 206 1313 519 
L 1313 -997 
L 1856 -997 
L 1856 -1331 
L 184 -1331 
L 184 -997 
L 738 -997 
L 738 2988 
z
" transform="scale(0.015625)"/>
      </defs>
      <use xlink:href="#DejaVuSerif-41"/>
      <use xlink:href="#DejaVuSerif-6e" x="72.216797"/>
      <use xlink:href="#DejaVuSerif-74" x="136.621094"/>
      <use xlink:href="#DejaVuSerif-69" x="176.806641"/>
      <use xlink:href="#DejaVuSerif-70" x="208.789062"/>
      <use xlink:href="#DejaVuSerif-72" x="272.802734"/>
      <use xlink:href="#DejaVuSerif-6f" x="320.605469"/>
      <use xlink:href="#DejaVuSerif-74" x="380.810547"/>
      <use xlink:href="#DejaVuSerif-6f" x="420.996094"/>
      <use xlink:href="#DejaVuSerif-6e" x="481.201172"/>
     </g>
    </g>
   </g>
  </g>
 </g>
 <defs>
  <clipPath id="p0b70503143">
   <rect x="114.16" y="28.08" width="719.031364" height="461.1525"/>
  </clipPath>
 </defs>
</svg>
