<?xml version="1.0" encoding="utf-8" standalone="no"?>
<!DOCTYPE svg PUBLIC "-//W3C//DTD SVG 1.1//EN"
  "http://www.w3.org/Graphics/SVG/1.1/DTD/svg11.dtd">
<svg xmlns:xlink="http://www.w3.org/1999/xlink" width="864pt" height="576pt" viewBox="0 0 864 576" xmlns="http://www.w3.org/2000/svg" version="1.1">
 <metadata>
  <rdf:RDF xmlns:dc="http://purl.org/dc/elements/1.1/" xmlns:cc="http://creativecommons.org/ns#" xmlns:rdf="http://www.w3.org/1999/02/22-rdf-syntax-ns#">
   <cc:Work>
    <dc:type rdf:resource="http://purl.org/dc/dcmitype/StillImage"/>
    <dc:date>2025-06-13T17:49:27.708420</dc:date>
    <dc:format>image/svg+xml</dc:format>
    <dc:creator>
     <cc:Agent>
      <dc:title>Matplotlib v3.7.2, https://matplotlib.org/</dc:title>
     </cc:Agent>
    </dc:creator>
   </cc:Work>
  </rdf:RDF>
 </metadata>
 <defs>
  <style type="text/css">*{stroke-linejoin: round; stroke-linecap: butt}</style>
 </defs>
 <g id="figure_1">
  <g id="patch_1">
   <path d="M 0 576 
L 864 576 
L 864 0 
L 0 0 
z
" style="fill: #ffffff"/>
  </g>
  <g id="axes_1">
   <g id="patch_2">
    <path d="M 93.675 489.2325 
L 833.191364 489.2325 
L 833.191364 28.08 
L 93.675 28.08 
z
" style="fill: #ffffff"/>
   </g>
   <g id="matplotlib.axis_1">
    <g id="xtick_1">
     <g id="line2d_1">
      <path d="M 127.28938 489.2325 
L 127.28938 28.08 
" clip-path="url(#pbf457b5ee7)" style="fill: none; stroke-dasharray: 3.7,1.6; stroke-dashoffset: 0; stroke: #b0b0b0; stroke-opacity: 0.5"/>
     </g>
     <g id="line2d_2">
      <defs>
       <path id="mbac7aaa511" d="M 0 0 
L 0 -10 
" style="stroke: #000000; stroke-width: 2"/>
      </defs>
      <g>
       <use xlink:href="#mbac7aaa511" x="127.28938" y="489.2325" style="stroke: #000000; stroke-width: 2"/>
      </g>
     </g>
     <g id="line2d_3">
      <defs>
       <path id="m6ff4e0e058" d="M 0 0 
L 0 10 
" style="stroke: #000000; stroke-width: 2"/>
      </defs>
      <g>
       <use xlink:href="#m6ff4e0e058" x="127.28938" y="28.08" style="stroke: #000000; stroke-width: 2"/>
      </g>
     </g>
     <g id="text_1">
      <!-- 0 -->
      <g transform="translate(119.01813 512.488438) scale(0.26 -0.26)">
       <defs>
        <path id="DejaVuSerif-30" d="M 2034 219 
Q 2513 219 2750 744 
Q 2988 1269 2988 2328 
Q 2988 3391 2750 3916 
Q 2513 4441 2034 4441 
Q 1556 4441 1318 3916 
Q 1081 3391 1081 2328 
Q 1081 1269 1318 744 
Q 1556 219 2034 219 
z
M 2034 -91 
Q 1275 -91 848 546 
Q 422 1184 422 2328 
Q 422 3475 848 4112 
Q 1275 4750 2034 4750 
Q 2797 4750 3222 4112 
Q 3647 3475 3647 2328 
Q 3647 1184 3222 546 
Q 2797 -91 2034 -91 
z
" transform="scale(0.015625)"/>
       </defs>
       <use xlink:href="#DejaVuSerif-30"/>
      </g>
     </g>
    </g>
    <g id="xtick_2">
     <g id="line2d_4">
      <path d="M 261.746901 489.2325 
L 261.746901 28.08 
" clip-path="url(#pbf457b5ee7)" style="fill: none; stroke-dasharray: 3.7,1.6; stroke-dashoffset: 0; stroke: #b0b0b0; stroke-opacity: 0.5"/>
     </g>
     <g id="line2d_5">
      <g>
       <use xlink:href="#mbac7aaa511" x="261.746901" y="489.2325" style="stroke: #000000; stroke-width: 2"/>
      </g>
     </g>
     <g id="line2d_6">
      <g>
       <use xlink:href="#m6ff4e0e058" x="261.746901" y="28.08" style="stroke: #000000; stroke-width: 2"/>
      </g>
     </g>
     <g id="text_2">
      <!-- 500 -->
      <g transform="translate(236.933151 512.488438) scale(0.26 -0.26)">
       <defs>
        <path id="DejaVuSerif-35" d="M 3219 4666 
L 3219 4153 
L 1081 4153 
L 1081 2816 
Q 1244 2928 1461 2984 
Q 1678 3041 1947 3041 
Q 2703 3041 3140 2622 
Q 3578 2203 3578 1478 
Q 3578 738 3136 323 
Q 2694 -91 1894 -91 
Q 1572 -91 1234 -12 
Q 897 66 544 225 
L 544 1131 
L 897 1131 
Q 925 688 1179 453 
Q 1434 219 1894 219 
Q 2388 219 2653 544 
Q 2919 869 2919 1478 
Q 2919 2084 2655 2407 
Q 2391 2731 1894 2731 
Q 1613 2731 1398 2631 
Q 1184 2531 1019 2322 
L 750 2322 
L 750 4666 
L 3219 4666 
z
" transform="scale(0.015625)"/>
       </defs>
       <use xlink:href="#DejaVuSerif-35"/>
       <use xlink:href="#DejaVuSerif-30" x="63.623047"/>
       <use xlink:href="#DejaVuSerif-30" x="127.246094"/>
      </g>
     </g>
    </g>
    <g id="xtick_3">
     <g id="line2d_7">
      <path d="M 396.204421 489.2325 
L 396.204421 28.08 
" clip-path="url(#pbf457b5ee7)" style="fill: none; stroke-dasharray: 3.7,1.6; stroke-dashoffset: 0; stroke: #b0b0b0; stroke-opacity: 0.5"/>
     </g>
     <g id="line2d_8">
      <g>
       <use xlink:href="#mbac7aaa511" x="396.204421" y="489.2325" style="stroke: #000000; stroke-width: 2"/>
      </g>
     </g>
     <g id="line2d_9">
      <g>
       <use xlink:href="#m6ff4e0e058" x="396.204421" y="28.08" style="stroke: #000000; stroke-width: 2"/>
      </g>
     </g>
     <g id="text_3">
      <!-- 1000 -->
      <g transform="translate(363.119421 512.488438) scale(0.26 -0.26)">
       <defs>
        <path id="DejaVuSerif-31" d="M 909 0 
L 909 331 
L 1722 331 
L 1722 4213 
L 781 3603 
L 781 4013 
L 1919 4750 
L 2350 4750 
L 2350 331 
L 3163 331 
L 3163 0 
L 909 0 
z
" transform="scale(0.015625)"/>
       </defs>
       <use xlink:href="#DejaVuSerif-31"/>
       <use xlink:href="#DejaVuSerif-30" x="63.623047"/>
       <use xlink:href="#DejaVuSerif-30" x="127.246094"/>
       <use xlink:href="#DejaVuSerif-30" x="190.869141"/>
      </g>
     </g>
    </g>
    <g id="xtick_4">
     <g id="line2d_10">
      <path d="M 530.661942 489.2325 
L 530.661942 28.08 
" clip-path="url(#pbf457b5ee7)" style="fill: none; stroke-dasharray: 3.7,1.6; stroke-dashoffset: 0; stroke: #b0b0b0; stroke-opacity: 0.5"/>
     </g>
     <g id="line2d_11">
      <g>
       <use xlink:href="#mbac7aaa511" x="530.661942" y="489.2325" style="stroke: #000000; stroke-width: 2"/>
      </g>
     </g>
     <g id="line2d_12">
      <g>
       <use xlink:href="#m6ff4e0e058" x="530.661942" y="28.08" style="stroke: #000000; stroke-width: 2"/>
      </g>
     </g>
     <g id="text_4">
      <!-- 1500 -->
      <g transform="translate(497.576942 512.488438) scale(0.26 -0.26)">
       <use xlink:href="#DejaVuSerif-31"/>
       <use xlink:href="#DejaVuSerif-35" x="63.623047"/>
       <use xlink:href="#DejaVuSerif-30" x="127.246094"/>
       <use xlink:href="#DejaVuSerif-30" x="190.869141"/>
      </g>
     </g>
    </g>
    <g id="xtick_5">
     <g id="line2d_13">
      <path d="M 665.119463 489.2325 
L 665.119463 28.08 
" clip-path="url(#pbf457b5ee7)" style="fill: none; stroke-dasharray: 3.7,1.6; stroke-dashoffset: 0; stroke: #b0b0b0; stroke-opacity: 0.5"/>
     </g>
     <g id="line2d_14">
      <g>
       <use xlink:href="#mbac7aaa511" x="665.119463" y="489.2325" style="stroke: #000000; stroke-width: 2"/>
      </g>
     </g>
     <g id="line2d_15">
      <g>
       <use xlink:href="#m6ff4e0e058" x="665.119463" y="28.08" style="stroke: #000000; stroke-width: 2"/>
      </g>
     </g>
     <g id="text_5">
      <!-- 2000 -->
      <g transform="translate(632.034463 512.488438) scale(0.26 -0.26)">
       <defs>
        <path id="DejaVuSerif-32" d="M 819 3553 
L 469 3553 
L 469 4384 
Q 803 4563 1142 4656 
Q 1481 4750 1806 4750 
Q 2534 4750 2956 4397 
Q 3378 4044 3378 3438 
Q 3378 2753 2422 1800 
Q 2347 1728 2309 1691 
L 1131 513 
L 3078 513 
L 3078 1088 
L 3444 1088 
L 3444 0 
L 434 0 
L 434 341 
L 1850 1753 
Q 2319 2222 2519 2614 
Q 2719 3006 2719 3438 
Q 2719 3909 2473 4175 
Q 2228 4441 1797 4441 
Q 1350 4441 1106 4219 
Q 863 3997 819 3553 
z
" transform="scale(0.015625)"/>
       </defs>
       <use xlink:href="#DejaVuSerif-32"/>
       <use xlink:href="#DejaVuSerif-30" x="63.623047"/>
       <use xlink:href="#DejaVuSerif-30" x="127.246094"/>
       <use xlink:href="#DejaVuSerif-30" x="190.869141"/>
      </g>
     </g>
    </g>
    <g id="xtick_6">
     <g id="line2d_16">
      <path d="M 799.576983 489.2325 
L 799.576983 28.08 
" clip-path="url(#pbf457b5ee7)" style="fill: none; stroke-dasharray: 3.7,1.6; stroke-dashoffset: 0; stroke: #b0b0b0; stroke-opacity: 0.5"/>
     </g>
     <g id="line2d_17">
      <g>
       <use xlink:href="#mbac7aaa511" x="799.576983" y="489.2325" style="stroke: #000000; stroke-width: 2"/>
      </g>
     </g>
     <g id="line2d_18">
      <g>
       <use xlink:href="#m6ff4e0e058" x="799.576983" y="28.08" style="stroke: #000000; stroke-width: 2"/>
      </g>
     </g>
     <g id="text_6">
      <!-- 2500 -->
      <g transform="translate(766.491983 512.488438) scale(0.26 -0.26)">
       <use xlink:href="#DejaVuSerif-32"/>
       <use xlink:href="#DejaVuSerif-35" x="63.623047"/>
       <use xlink:href="#DejaVuSerif-30" x="127.246094"/>
       <use xlink:href="#DejaVuSerif-30" x="190.869141"/>
      </g>
     </g>
    </g>
    <g id="text_7">
     <!-- $t$ (a.u.) -->
     <g transform="translate(420.013182 541.651562) scale(0.26 -0.26)">
      <defs>
       <path id="Cmmi10-74" d="M 397 519 
Q 397 613 416 697 
L 878 2534 
L 206 2534 
Q 141 2534 141 2619 
Q 166 2759 225 2759 
L 934 2759 
L 1191 3803 
Q 1216 3888 1291 3947 
Q 1366 4006 1459 4006 
Q 1541 4006 1595 3957 
Q 1650 3909 1650 3828 
Q 1650 3809 1648 3798 
Q 1647 3788 1644 3775 
L 1388 2759 
L 2047 2759 
Q 2113 2759 2113 2675 
Q 2109 2659 2100 2621 
Q 2091 2584 2075 2559 
Q 2059 2534 2028 2534 
L 1331 2534 
L 872 684 
Q 825 503 825 372 
Q 825 97 1013 97 
Q 1294 97 1511 361 
Q 1728 625 1844 941 
Q 1869 978 1894 978 
L 1972 978 
Q 1997 978 2012 961 
Q 2028 944 2028 922 
Q 2028 909 2022 903 
Q 1881 516 1612 222 
Q 1344 -72 997 -72 
Q 744 -72 570 93 
Q 397 259 397 519 
z
" transform="scale(0.015625)"/>
       <path id="DejaVuSerif-20" transform="scale(0.015625)"/>
       <path id="DejaVuSerif-28" d="M 2041 -997 
Q 1281 -656 893 83 
Q 506 822 506 1931 
Q 506 3044 893 3783 
Q 1281 4522 2041 4863 
L 2041 4556 
Q 1559 4225 1350 3623 
Q 1141 3022 1141 1931 
Q 1141 844 1350 242 
Q 1559 -359 2041 -691 
L 2041 -997 
z
" transform="scale(0.015625)"/>
       <path id="DejaVuSerif-61" d="M 2547 1044 
L 2547 1747 
L 1806 1747 
Q 1378 1747 1168 1562 
Q 959 1378 959 997 
Q 959 650 1171 447 
Q 1384 244 1747 244 
Q 2106 244 2326 466 
Q 2547 688 2547 1044 
z
M 3122 2075 
L 3122 331 
L 3634 331 
L 3634 0 
L 2547 0 
L 2547 359 
Q 2356 128 2106 18 
Q 1856 -91 1522 -91 
Q 969 -91 644 203 
Q 319 497 319 997 
Q 319 1513 691 1797 
Q 1063 2081 1741 2081 
L 2547 2081 
L 2547 2309 
Q 2547 2688 2317 2895 
Q 2088 3103 1672 3103 
Q 1328 3103 1125 2947 
Q 922 2791 872 2484 
L 575 2484 
L 575 3156 
Q 875 3284 1158 3348 
Q 1441 3413 1709 3413 
Q 2400 3413 2761 3070 
Q 3122 2728 3122 2075 
z
" transform="scale(0.015625)"/>
       <path id="DejaVuSerif-2e" d="M 603 325 
Q 603 500 722 622 
Q 841 744 1019 744 
Q 1191 744 1312 622 
Q 1434 500 1434 325 
Q 1434 153 1312 31 
Q 1191 -91 1019 -91 
Q 841 -91 722 29 
Q 603 150 603 325 
z
" transform="scale(0.015625)"/>
       <path id="DejaVuSerif-75" d="M 2266 3322 
L 3341 3322 
L 3341 331 
L 3884 331 
L 3884 0 
L 2766 0 
L 2766 588 
Q 2606 256 2353 82 
Q 2100 -91 1766 -91 
Q 1213 -91 952 223 
Q 691 538 691 1209 
L 691 2988 
L 172 2988 
L 172 3322 
L 1269 3322 
L 1269 1388 
Q 1269 781 1417 556 
Q 1566 331 1947 331 
Q 2347 331 2556 625 
Q 2766 919 2766 1478 
L 2766 2988 
L 2266 2988 
L 2266 3322 
z
" transform="scale(0.015625)"/>
       <path id="DejaVuSerif-29" d="M 453 -997 
L 453 -691 
Q 934 -359 1145 242 
Q 1356 844 1356 1931 
Q 1356 3022 1145 3623 
Q 934 4225 453 4556 
L 453 4863 
Q 1216 4522 1603 3783 
Q 1991 3044 1991 1931 
Q 1991 822 1603 83 
Q 1216 -656 453 -997 
z
" transform="scale(0.015625)"/>
      </defs>
      <use xlink:href="#Cmmi10-74" transform="translate(0 0.015625)"/>
      <use xlink:href="#DejaVuSerif-20" transform="translate(36.083984 0.015625)"/>
      <use xlink:href="#DejaVuSerif-28" transform="translate(67.871094 0.015625)"/>
      <use xlink:href="#DejaVuSerif-61" transform="translate(106.884766 0.015625)"/>
      <use xlink:href="#DejaVuSerif-2e" transform="translate(166.503906 0.015625)"/>
      <use xlink:href="#DejaVuSerif-75" transform="translate(198.291016 0.015625)"/>
      <use xlink:href="#DejaVuSerif-2e" transform="translate(262.695312 0.015625)"/>
      <use xlink:href="#DejaVuSerif-29" transform="translate(294.482422 0.015625)"/>
     </g>
    </g>
   </g>
   <g id="matplotlib.axis_2">
    <g id="ytick_1">
     <g id="line2d_19">
      <path d="M 93.675 479.989461 
L 833.191364 479.989461 
" clip-path="url(#pbf457b5ee7)" style="fill: none; stroke-dasharray: 3.7,1.6; stroke-dashoffset: 0; stroke: #b0b0b0; stroke-opacity: 0.5"/>
     </g>
     <g id="line2d_20">
      <defs>
       <path id="m0d666789a3" d="M 0 0 
L 10 0 
" style="stroke: #000000; stroke-width: 2"/>
      </defs>
      <g>
       <use xlink:href="#m0d666789a3" x="93.675" y="479.989461" style="stroke: #000000; stroke-width: 2"/>
      </g>
     </g>
     <g id="line2d_21">
      <defs>
       <path id="md6f8e52389" d="M 0 0 
L -10 0 
" style="stroke: #000000; stroke-width: 2"/>
      </defs>
      <g>
       <use xlink:href="#md6f8e52389" x="833.191364" y="479.989461" style="stroke: #000000; stroke-width: 2"/>
      </g>
     </g>
     <g id="text_8">
      <!-- 0 -->
      <g transform="translate(73.6325 489.86743) scale(0.26 -0.26)">
       <use xlink:href="#DejaVuSerif-30"/>
      </g>
     </g>
    </g>
    <g id="ytick_2">
     <g id="line2d_22">
      <path d="M 93.675 416.51289 
L 833.191364 416.51289 
" clip-path="url(#pbf457b5ee7)" style="fill: none; stroke-dasharray: 3.7,1.6; stroke-dashoffset: 0; stroke: #b0b0b0; stroke-opacity: 0.5"/>
     </g>
     <g id="line2d_23">
      <g>
       <use xlink:href="#m0d666789a3" x="93.675" y="416.51289" style="stroke: #000000; stroke-width: 2"/>
      </g>
     </g>
     <g id="line2d_24">
      <g>
       <use xlink:href="#md6f8e52389" x="833.191364" y="416.51289" style="stroke: #000000; stroke-width: 2"/>
      </g>
     </g>
     <g id="text_9">
      <!-- 5 -->
      <g transform="translate(73.6325 426.390859) scale(0.26 -0.26)">
       <use xlink:href="#DejaVuSerif-35"/>
      </g>
     </g>
    </g>
    <g id="ytick_3">
     <g id="line2d_25">
      <path d="M 93.675 353.036319 
L 833.191364 353.036319 
" clip-path="url(#pbf457b5ee7)" style="fill: none; stroke-dasharray: 3.7,1.6; stroke-dashoffset: 0; stroke: #b0b0b0; stroke-opacity: 0.5"/>
     </g>
     <g id="line2d_26">
      <g>
       <use xlink:href="#m0d666789a3" x="93.675" y="353.036319" style="stroke: #000000; stroke-width: 2"/>
      </g>
     </g>
     <g id="line2d_27">
      <g>
       <use xlink:href="#md6f8e52389" x="833.191364" y="353.036319" style="stroke: #000000; stroke-width: 2"/>
      </g>
     </g>
     <g id="text_10">
      <!-- 10 -->
      <g transform="translate(57.09 362.914288) scale(0.26 -0.26)">
       <use xlink:href="#DejaVuSerif-31"/>
       <use xlink:href="#DejaVuSerif-30" x="63.623047"/>
      </g>
     </g>
    </g>
    <g id="ytick_4">
     <g id="line2d_28">
      <path d="M 93.675 289.559748 
L 833.191364 289.559748 
" clip-path="url(#pbf457b5ee7)" style="fill: none; stroke-dasharray: 3.7,1.6; stroke-dashoffset: 0; stroke: #b0b0b0; stroke-opacity: 0.5"/>
     </g>
     <g id="line2d_29">
      <g>
       <use xlink:href="#m0d666789a3" x="93.675" y="289.559748" style="stroke: #000000; stroke-width: 2"/>
      </g>
     </g>
     <g id="line2d_30">
      <g>
       <use xlink:href="#md6f8e52389" x="833.191364" y="289.559748" style="stroke: #000000; stroke-width: 2"/>
      </g>
     </g>
     <g id="text_11">
      <!-- 15 -->
      <g transform="translate(57.09 299.437717) scale(0.26 -0.26)">
       <use xlink:href="#DejaVuSerif-31"/>
       <use xlink:href="#DejaVuSerif-35" x="63.623047"/>
      </g>
     </g>
    </g>
    <g id="ytick_5">
     <g id="line2d_31">
      <path d="M 93.675 226.083177 
L 833.191364 226.083177 
" clip-path="url(#pbf457b5ee7)" style="fill: none; stroke-dasharray: 3.7,1.6; stroke-dashoffset: 0; stroke: #b0b0b0; stroke-opacity: 0.5"/>
     </g>
     <g id="line2d_32">
      <g>
       <use xlink:href="#m0d666789a3" x="93.675" y="226.083177" style="stroke: #000000; stroke-width: 2"/>
      </g>
     </g>
     <g id="line2d_33">
      <g>
       <use xlink:href="#md6f8e52389" x="833.191364" y="226.083177" style="stroke: #000000; stroke-width: 2"/>
      </g>
     </g>
     <g id="text_12">
      <!-- 20 -->
      <g transform="translate(57.09 235.961146) scale(0.26 -0.26)">
       <use xlink:href="#DejaVuSerif-32"/>
       <use xlink:href="#DejaVuSerif-30" x="63.623047"/>
      </g>
     </g>
    </g>
    <g id="ytick_6">
     <g id="line2d_34">
      <path d="M 93.675 162.606606 
L 833.191364 162.606606 
" clip-path="url(#pbf457b5ee7)" style="fill: none; stroke-dasharray: 3.7,1.6; stroke-dashoffset: 0; stroke: #b0b0b0; stroke-opacity: 0.5"/>
     </g>
     <g id="line2d_35">
      <g>
       <use xlink:href="#m0d666789a3" x="93.675" y="162.606606" style="stroke: #000000; stroke-width: 2"/>
      </g>
     </g>
     <g id="line2d_36">
      <g>
       <use xlink:href="#md6f8e52389" x="833.191364" y="162.606606" style="stroke: #000000; stroke-width: 2"/>
      </g>
     </g>
     <g id="text_13">
      <!-- 25 -->
      <g transform="translate(57.09 172.484575) scale(0.26 -0.26)">
       <use xlink:href="#DejaVuSerif-32"/>
       <use xlink:href="#DejaVuSerif-35" x="63.623047"/>
      </g>
     </g>
    </g>
    <g id="ytick_7">
     <g id="line2d_37">
      <path d="M 93.675 99.130035 
L 833.191364 99.130035 
" clip-path="url(#pbf457b5ee7)" style="fill: none; stroke-dasharray: 3.7,1.6; stroke-dashoffset: 0; stroke: #b0b0b0; stroke-opacity: 0.5"/>
     </g>
     <g id="line2d_38">
      <g>
       <use xlink:href="#m0d666789a3" x="93.675" y="99.130035" style="stroke: #000000; stroke-width: 2"/>
      </g>
     </g>
     <g id="line2d_39">
      <g>
       <use xlink:href="#md6f8e52389" x="833.191364" y="99.130035" style="stroke: #000000; stroke-width: 2"/>
      </g>
     </g>
     <g id="text_14">
      <!-- 30 -->
      <g transform="translate(57.09 109.008004) scale(0.26 -0.26)">
       <defs>
        <path id="DejaVuSerif-33" d="M 622 4469 
Q 988 4606 1323 4678 
Q 1659 4750 1953 4750 
Q 2638 4750 3022 4454 
Q 3406 4159 3406 3634 
Q 3406 3213 3140 2930 
Q 2875 2647 2388 2547 
Q 2963 2466 3280 2130 
Q 3597 1794 3597 1259 
Q 3597 606 3158 257 
Q 2719 -91 1894 -91 
Q 1528 -91 1179 -12 
Q 831 66 488 225 
L 488 1131 
L 838 1131 
Q 869 681 1141 450 
Q 1413 219 1906 219 
Q 2384 219 2661 495 
Q 2938 772 2938 1253 
Q 2938 1803 2653 2086 
Q 2369 2369 1819 2369 
L 1522 2369 
L 1522 2688 
L 1678 2688 
Q 2225 2688 2498 2914 
Q 2772 3141 2772 3597 
Q 2772 4006 2547 4223 
Q 2322 4441 1900 4441 
Q 1478 4441 1245 4241 
Q 1013 4041 972 3647 
L 622 3647 
L 622 4469 
z
" transform="scale(0.015625)"/>
       </defs>
       <use xlink:href="#DejaVuSerif-33"/>
       <use xlink:href="#DejaVuSerif-30" x="63.623047"/>
      </g>
     </g>
    </g>
    <g id="ytick_8">
     <g id="line2d_40">
      <path d="M 93.675 35.653464 
L 833.191364 35.653464 
" clip-path="url(#pbf457b5ee7)" style="fill: none; stroke-dasharray: 3.7,1.6; stroke-dashoffset: 0; stroke: #b0b0b0; stroke-opacity: 0.5"/>
     </g>
     <g id="line2d_41">
      <g>
       <use xlink:href="#m0d666789a3" x="93.675" y="35.653464" style="stroke: #000000; stroke-width: 2"/>
      </g>
     </g>
     <g id="line2d_42">
      <g>
       <use xlink:href="#md6f8e52389" x="833.191364" y="35.653464" style="stroke: #000000; stroke-width: 2"/>
      </g>
     </g>
     <g id="text_15">
      <!-- 35 -->
      <g transform="translate(57.09 45.531433) scale(0.26 -0.26)">
       <use xlink:href="#DejaVuSerif-33"/>
       <use xlink:href="#DejaVuSerif-35" x="63.623047"/>
      </g>
     </g>
    </g>
    <g id="text_16">
     <!-- Particle energy (a.u.) -->
     <g transform="translate(47.313125 397.733906) rotate(-90) scale(0.26 -0.26)">
      <defs>
       <path id="DejaVuSerif-50" d="M 1581 2375 
L 2406 2375 
Q 2872 2375 3115 2626 
Q 3359 2878 3359 3353 
Q 3359 3831 3115 4081 
Q 2872 4331 2406 4331 
L 1581 4331 
L 1581 2375 
z
M 353 0 
L 353 331 
L 947 331 
L 947 4331 
L 353 4331 
L 353 4666 
L 2559 4666 
Q 3259 4666 3668 4311 
Q 4078 3956 4078 3353 
Q 4078 2753 3668 2397 
Q 3259 2041 2559 2041 
L 1581 2041 
L 1581 331 
L 2303 331 
L 2303 0 
L 353 0 
z
" transform="scale(0.015625)"/>
       <path id="DejaVuSerif-72" d="M 3059 3328 
L 3059 2497 
L 2728 2497 
Q 2713 2744 2591 2866 
Q 2469 2988 2234 2988 
Q 1809 2988 1582 2694 
Q 1356 2400 1356 1850 
L 1356 331 
L 2022 331 
L 2022 0 
L 263 0 
L 263 331 
L 781 331 
L 781 2994 
L 231 2994 
L 231 3322 
L 1356 3322 
L 1356 2731 
Q 1525 3078 1790 3245 
Q 2056 3413 2438 3413 
Q 2578 3413 2733 3391 
Q 2888 3369 3059 3328 
z
" transform="scale(0.015625)"/>
       <path id="DejaVuSerif-74" d="M 691 2988 
L 184 2988 
L 184 3322 
L 691 3322 
L 691 4353 
L 1269 4353 
L 1269 3322 
L 2350 3322 
L 2350 2988 
L 1269 2988 
L 1269 878 
Q 1269 456 1350 337 
Q 1431 219 1650 219 
Q 1875 219 1978 351 
Q 2081 484 2088 781 
L 2522 781 
Q 2497 328 2275 118 
Q 2053 -91 1600 -91 
Q 1103 -91 897 129 
Q 691 350 691 878 
L 691 2988 
z
" transform="scale(0.015625)"/>
       <path id="DejaVuSerif-69" d="M 622 4353 
Q 622 4497 726 4603 
Q 831 4709 978 4709 
Q 1122 4709 1226 4603 
Q 1331 4497 1331 4353 
Q 1331 4206 1228 4103 
Q 1125 4000 978 4000 
Q 831 4000 726 4103 
Q 622 4206 622 4353 
z
M 1356 331 
L 1900 331 
L 1900 0 
L 231 0 
L 231 331 
L 781 331 
L 781 2988 
L 231 2988 
L 231 3322 
L 1356 3322 
L 1356 331 
z
" transform="scale(0.015625)"/>
       <path id="DejaVuSerif-63" d="M 3291 997 
Q 3169 466 2822 187 
Q 2475 -91 1925 -91 
Q 1200 -91 759 389 
Q 319 869 319 1663 
Q 319 2459 759 2936 
Q 1200 3413 1925 3413 
Q 2241 3413 2553 3339 
Q 2866 3266 3181 3116 
L 3181 2266 
L 2847 2266 
Q 2781 2703 2561 2903 
Q 2341 3103 1931 3103 
Q 1466 3103 1228 2742 
Q 991 2381 991 1663 
Q 991 944 1227 581 
Q 1463 219 1931 219 
Q 2303 219 2525 412 
Q 2747 606 2828 997 
L 3291 997 
z
" transform="scale(0.015625)"/>
       <path id="DejaVuSerif-6c" d="M 1313 331 
L 1856 331 
L 1856 0 
L 184 0 
L 184 331 
L 738 331 
L 738 4531 
L 184 4531 
L 184 4863 
L 1313 4863 
L 1313 331 
z
" transform="scale(0.015625)"/>
       <path id="DejaVuSerif-65" d="M 3469 1600 
L 991 1600 
L 991 1575 
Q 991 903 1244 561 
Q 1497 219 1991 219 
Q 2369 219 2611 417 
Q 2853 616 2950 1006 
L 3413 1006 
Q 3275 459 2904 184 
Q 2534 -91 1931 -91 
Q 1203 -91 761 389 
Q 319 869 319 1663 
Q 319 2450 753 2931 
Q 1188 3413 1894 3413 
Q 2647 3413 3050 2948 
Q 3453 2484 3469 1600 
z
M 2791 1931 
Q 2772 2513 2545 2808 
Q 2319 3103 1894 3103 
Q 1497 3103 1269 2806 
Q 1041 2509 991 1931 
L 2791 1931 
z
" transform="scale(0.015625)"/>
       <path id="DejaVuSerif-6e" d="M 263 0 
L 263 331 
L 781 331 
L 781 2988 
L 231 2988 
L 231 3322 
L 1356 3322 
L 1356 2731 
Q 1516 3069 1770 3241 
Q 2025 3413 2363 3413 
Q 2913 3413 3172 3097 
Q 3431 2781 3431 2113 
L 3431 331 
L 3944 331 
L 3944 0 
L 2356 0 
L 2356 331 
L 2853 331 
L 2853 1931 
Q 2853 2541 2703 2767 
Q 2553 2994 2175 2994 
Q 1775 2994 1565 2701 
Q 1356 2409 1356 1850 
L 1356 331 
L 1856 331 
L 1856 0 
L 263 0 
z
" transform="scale(0.015625)"/>
       <path id="DejaVuSerif-67" d="M 3359 2988 
L 3359 72 
Q 3359 -644 2965 -1033 
Q 2572 -1422 1844 -1422 
Q 1516 -1422 1216 -1362 
Q 916 -1303 641 -1184 
L 641 -488 
L 941 -488 
Q 997 -813 1206 -963 
Q 1416 -1113 1806 -1113 
Q 2313 -1113 2548 -827 
Q 2784 -541 2784 72 
L 2784 519 
Q 2616 206 2355 57 
Q 2094 -91 1709 -91 
Q 1097 -91 708 395 
Q 319 881 319 1663 
Q 319 2444 706 2928 
Q 1094 3413 1709 3413 
Q 2094 3413 2355 3264 
Q 2616 3116 2784 2803 
L 2784 3322 
L 3909 3322 
L 3909 2988 
L 3359 2988 
z
M 2784 1825 
Q 2784 2422 2554 2737 
Q 2325 3053 1888 3053 
Q 1444 3053 1217 2703 
Q 991 2353 991 1663 
Q 991 975 1217 622 
Q 1444 269 1888 269 
Q 2325 269 2554 583 
Q 2784 897 2784 1497 
L 2784 1825 
z
" transform="scale(0.015625)"/>
       <path id="DejaVuSerif-79" d="M 1381 -609 
L 1600 -56 
L 359 2988 
L -19 2988 
L -19 3322 
L 1509 3322 
L 1509 2988 
L 978 2988 
L 1913 703 
L 2847 2988 
L 2350 2988 
L 2350 3322 
L 3597 3322 
L 3597 2988 
L 3225 2988 
L 1703 -750 
Q 1547 -1138 1356 -1280 
Q 1166 -1422 819 -1422 
Q 672 -1422 517 -1397 
Q 363 -1372 206 -1325 
L 206 -691 
L 500 -691 
Q 519 -903 608 -995 
Q 697 -1088 884 -1088 
Q 1056 -1088 1161 -992 
Q 1266 -897 1381 -609 
z
" transform="scale(0.015625)"/>
      </defs>
      <use xlink:href="#DejaVuSerif-50"/>
      <use xlink:href="#DejaVuSerif-61" x="62.785156"/>
      <use xlink:href="#DejaVuSerif-72" x="122.404297"/>
      <use xlink:href="#DejaVuSerif-74" x="170.207031"/>
      <use xlink:href="#DejaVuSerif-69" x="210.392578"/>
      <use xlink:href="#DejaVuSerif-63" x="242.375"/>
      <use xlink:href="#DejaVuSerif-6c" x="298.380859"/>
      <use xlink:href="#DejaVuSerif-65" x="330.363281"/>
      <use xlink:href="#DejaVuSerif-20" x="389.542969"/>
      <use xlink:href="#DejaVuSerif-65" x="421.330078"/>
      <use xlink:href="#DejaVuSerif-6e" x="480.509766"/>
      <use xlink:href="#DejaVuSerif-65" x="544.914062"/>
      <use xlink:href="#DejaVuSerif-72" x="604.09375"/>
      <use xlink:href="#DejaVuSerif-67" x="651.896484"/>
      <use xlink:href="#DejaVuSerif-79" x="715.910156"/>
      <use xlink:href="#DejaVuSerif-20" x="772.404297"/>
      <use xlink:href="#DejaVuSerif-28" x="804.191406"/>
      <use xlink:href="#DejaVuSerif-61" x="843.205078"/>
      <use xlink:href="#DejaVuSerif-2e" x="902.824219"/>
      <use xlink:href="#DejaVuSerif-75" x="934.611328"/>
      <use xlink:href="#DejaVuSerif-2e" x="999.015625"/>
      <use xlink:href="#DejaVuSerif-29" x="1030.802734"/>
     </g>
    </g>
   </g>
   <g id="line2d_43">
    <path d="M 127.298113 577 
L 127.962341 333.750829 
L 128.635301 333.125316 
L 129.981222 332.793351 
L 132.673065 332.630038 
L 140.075631 332.534649 
L 171.031817 332.485476 
L 451.656372 332.467864 
L 799.576983 332.466441 
L 799.576983 332.466441 
" clip-path="url(#pbf457b5ee7)" style="fill: none; stroke: #1f77b4; stroke-width: 3; stroke-linecap: square"/>
   </g>
   <g id="line2d_44">
    <path d="M 127.29361 577 
L 127.962341 70.863365 
L 128.635301 70.015772 
L 129.308262 69.728537 
L 130.654183 69.500969 
L 133.346025 69.349894 
L 140.748591 69.245994 
L 168.339975 69.188854 
L 368.882223 69.165714 
L 799.576983 69.162678 
L 799.576983 69.162678 
" clip-path="url(#pbf457b5ee7)" style="fill: none; stroke: #ff7f0e; stroke-width: 3; stroke-linecap: square"/>
   </g>
   <g id="line2d_45">
    <path d="M 127.28938 525.405089 
L 127.962341 287.618684 
L 128.635301 286.956159 
L 129.981222 286.610747 
L 132.673065 286.431936 
L 139.40267 286.332311 
L 165.648132 286.277589 
L 369.555183 286.256301 
L 799.576983 286.25374 
L 799.576983 286.25374 
" clip-path="url(#pbf457b5ee7)" style="fill: none; stroke: #2ca02c; stroke-width: 3; stroke-linecap: square"/>
   </g>
   <g id="line2d_46">
    <path d="M 127.28938 525.413637 
L 127.962341 516.5256 
L 130.654183 516.553267 
L 169.685896 516.274941 
L 190.547673 515.78393 
L 199.969121 515.297047 
L 205.352806 514.935748 
L 210.06353 514.470325 
L 212.082411 514.135 
L 214.101293 513.840259 
L 214.774253 513.60935 
L 216.793135 513.286223 
L 218.139056 512.781398 
L 218.812017 512.586108 
L 219.484977 512.205459 
L 220.830899 511.677811 
L 222.17682 510.738311 
L 222.84978 509.622561 
L 223.522741 508.806681 
L 224.195701 508.405369 
L 224.868662 507.366962 
L 225.541622 506.071681 
L 226.214583 505.813846 
L 228.233465 503.195344 
L 228.906425 502.679936 
L 230.252346 502.313621 
L 230.925307 502.561444 
L 231.598268 503.619435 
L 232.271228 503.608089 
L 232.944189 503.740407 
L 234.29011 504.782954 
L 235.636031 505.792981 
L 236.308992 506.675739 
L 237.654913 507.208649 
L 239.673794 508.54195 
L 245.057479 509.982497 
L 253.133006 511.022102 
L 257.170769 511.319978 
L 268.611099 511.935288 
L 280.051428 512.279471 
L 300.913206 512.682124 
L 338.598997 513.039409 
L 381.668473 513.233125 
L 467.134465 513.3575 
L 545.19789 513.250934 
L 594.996972 512.979252 
L 624.607237 512.606176 
L 642.104212 512.168809 
L 651.525659 511.770031 
L 660.947107 511.145572 
L 666.330792 510.496242 
L 669.695595 509.988957 
L 672.387437 508.906121 
L 673.733358 508.555708 
L 675.079279 508.101592 
L 675.75224 507.63802 
L 677.098161 507.056066 
L 678.444082 506.235479 
L 679.117043 505.781662 
L 680.462964 504.505424 
L 681.135924 504.349898 
L 682.481845 501.164037 
L 683.154806 501.510237 
L 683.827766 501.556147 
L 684.500727 503.134251 
L 685.173688 502.151641 
L 685.846648 501.422713 
L 686.519609 502.030679 
L 687.192569 502.258865 
L 687.86553 502.832381 
L 688.53849 502.963172 
L 689.884412 503.581494 
L 691.903293 504.671596 
L 697.286978 505.797182 
L 699.97882 506.15668 
L 706.035465 506.702437 
L 712.09211 507.034997 
L 722.186519 507.379584 
L 738.337572 507.638654 
L 758.526389 507.698961 
L 776.696324 507.550566 
L 792.174417 507.181407 
L 799.576983 506.827801 
L 799.576983 506.827801 
" clip-path="url(#pbf457b5ee7)" style="fill: none; stroke: #d62728; stroke-width: 3; stroke-linecap: square"/>
   </g>
   <g id="line2d_47">
    <path d="M 127.28938 475.907931 
L 127.962341 476.747004 
L 128.635301 478.067551 
L 129.981222 478.877337 
L 130.654183 479.051919 
L 132.673065 479.028053 
L 133.346025 479.2215 
L 134.691946 479.325839 
L 135.364907 479.17037 
L 136.710828 479.281641 
L 137.383789 479.417464 
L 138.72971 479.264186 
L 139.40267 479.115381 
L 140.748591 479.418794 
L 142.767473 479.156436 
L 143.440434 479.320433 
L 145.459315 479.329621 
L 146.132276 479.224309 
L 148.151158 479.471889 
L 149.497079 479.196266 
L 150.170039 479.199108 
L 150.843 479.4293 
L 152.188921 479.399228 
L 152.861882 479.166738 
L 153.534842 479.200733 
L 154.207803 479.393633 
L 155.553724 479.441913 
L 156.226684 479.192842 
L 157.572606 479.355109 
L 158.245566 479.512306 
L 158.918527 479.429087 
L 159.591487 479.224518 
L 160.937408 479.311582 
L 161.610369 479.484768 
L 162.95629 479.269848 
L 163.629251 478.982142 
L 164.975172 479.443815 
L 166.321093 479.313973 
L 166.994053 478.978673 
L 168.339975 479.384718 
L 169.012935 479.474576 
L 169.685896 479.33352 
L 170.358856 478.99798 
L 172.377738 479.517955 
L 173.050699 479.342475 
L 173.723659 479.030821 
L 175.742541 479.498823 
L 176.415501 479.342634 
L 177.088462 479.071578 
L 177.761422 479.068128 
L 179.107344 479.467838 
L 180.453265 479.11922 
L 181.126225 478.686737 
L 181.799186 479.195398 
L 182.472146 479.424925 
L 183.818068 479.171539 
L 184.491028 478.60535 
L 185.163989 479.071575 
L 185.836949 479.367799 
L 186.50991 479.233286 
L 187.18287 479.300309 
L 187.855831 478.639851 
L 188.528791 478.90619 
L 189.201752 479.292344 
L 189.874713 479.132566 
L 190.547673 479.377414 
L 191.220634 478.7639 
L 191.893594 478.692957 
L 192.566555 479.191899 
L 193.912476 479.432292 
L 195.258397 478.486558 
L 195.931358 479.051787 
L 196.604318 479.350302 
L 197.277279 479.463697 
L 197.950239 479.109746 
L 198.6232 478.474877 
L 199.969121 479.273549 
L 200.642082 479.456964 
L 201.315042 479.226719 
L 201.988003 478.666068 
L 202.660963 478.282478 
L 203.333924 478.933397 
L 204.006884 479.377605 
L 204.679845 479.25979 
L 205.352806 478.732505 
L 206.025766 478.585373 
L 206.698727 477.522277 
L 207.371687 479.082819 
L 208.044648 479.158479 
L 208.717608 479.033176 
L 209.390569 479.313139 
L 210.73649 477.508509 
L 211.409451 478.742506 
L 212.082411 479.267886 
L 212.755372 479.305795 
L 213.428332 478.769542 
L 214.101293 477.718715 
L 214.774253 478.150382 
L 215.447214 479.145048 
L 216.120175 478.960064 
L 216.793135 477.674665 
L 217.466096 477.672904 
L 218.139056 478.697347 
L 218.812017 478.103952 
L 219.484977 477.13371 
L 220.157938 477.847381 
L 220.830899 476.732775 
L 221.503859 478.313684 
L 222.17682 470.103775 
L 222.84978 475.8259 
L 223.522741 476.533018 
L 224.195701 477.747794 
L 224.868662 474.308728 
L 225.541622 478.623789 
L 226.214583 481.686411 
L 226.887544 479.252733 
L 227.560504 473.244929 
L 228.233465 466.016696 
L 228.906425 467.726297 
L 229.579386 474.304753 
L 230.252346 476.829504 
L 230.925307 478.285965 
L 231.598268 478.130515 
L 232.271228 477.641199 
L 232.944189 482.670189 
L 233.617149 483.562834 
L 234.29011 483.800961 
L 234.96307 483.756582 
L 235.636031 484.41397 
L 236.308992 480.794503 
L 237.654913 480.787288 
L 238.327873 482.583818 
L 239.000834 480.139909 
L 239.673794 482.502014 
L 240.346755 480.888258 
L 241.019715 480.272402 
L 241.692676 482.720075 
L 242.365637 483.035777 
L 243.038597 482.281049 
L 243.711558 480.869239 
L 244.384518 482.354812 
L 245.057479 482.075469 
L 245.730439 482.797919 
L 246.4034 483.115881 
L 247.076361 482.414964 
L 247.749321 481.519969 
L 248.422282 482.990773 
L 249.095242 483.264444 
L 249.768203 482.69222 
L 250.441163 481.497034 
L 251.114124 483.066102 
L 251.787084 483.161021 
L 252.460045 482.81068 
L 253.133006 482.19467 
L 253.805966 482.938877 
L 254.478927 482.898121 
L 255.151887 483.142581 
L 255.824848 483.225785 
L 256.497808 482.187957 
L 257.84373 483.287359 
L 258.51669 483.3213 
L 259.189651 482.37747 
L 260.535572 483.393271 
L 261.208532 483.306181 
L 261.881493 482.573446 
L 263.227414 483.430123 
L 263.900375 483.263591 
L 264.573335 482.727424 
L 265.919256 483.4095 
L 266.592217 483.237695 
L 267.265177 482.855756 
L 267.938138 483.24654 
L 268.611099 483.375706 
L 270.62998 483.011866 
L 271.975901 483.363941 
L 272.648862 483.415604 
L 273.321823 482.87632 
L 274.667744 483.427778 
L 275.340704 483.453418 
L 276.013665 482.891191 
L 277.359586 483.495012 
L 278.032546 483.441824 
L 278.705507 482.921122 
L 279.378468 483.329782 
L 280.051428 483.543961 
L 280.724389 483.393171 
L 281.397349 482.96548 
L 282.07031 483.414259 
L 282.74327 483.563288 
L 284.089192 483.024091 
L 284.762152 483.492087 
L 285.435113 483.553441 
L 286.781034 483.098988 
L 287.453994 483.545635 
L 288.126955 483.527435 
L 288.799915 483.279005 
L 289.472876 483.197687 
L 290.145837 483.566852 
L 290.818797 483.498879 
L 291.491758 483.271933 
L 292.164718 483.332528 
L 292.837679 483.564532 
L 294.1836 483.276592 
L 295.529521 483.55222 
L 296.875442 483.294323 
L 297.548403 483.520324 
L 298.894324 483.643619 
L 299.567285 483.573183 
L 300.240245 483.362947 
L 301.586166 483.563135 
L 302.259127 483.557723 
L 302.932087 483.308563 
L 304.278008 483.584522 
L 304.950969 483.542769 
L 305.62393 483.335491 
L 306.969851 483.614004 
L 308.315772 483.371509 
L 308.988732 483.560966 
L 309.661693 483.633355 
L 310.334654 483.389925 
L 311.007614 483.415518 
L 311.680575 483.60216 
L 312.353535 483.635585 
L 313.026496 483.337361 
L 315.045377 483.615724 
L 315.718338 483.322526 
L 317.064259 483.663272 
L 317.73722 483.576618 
L 318.41018 483.334577 
L 319.083141 483.577027 
L 319.756101 483.672872 
L 321.102023 483.368513 
L 321.774983 483.626558 
L 322.447944 483.665735 
L 323.120904 483.484903 
L 323.793865 483.422501 
L 324.466825 483.662665 
L 325.139786 483.645595 
L 325.812747 483.449723 
L 326.485707 483.493715 
L 327.158668 483.680866 
L 327.831628 483.618565 
L 328.504589 483.426294 
L 329.85051 483.68246 
L 331.196431 483.416084 
L 331.869392 483.632802 
L 332.542352 483.672633 
L 333.888273 483.421833 
L 334.561234 483.666963 
L 335.907155 483.541128 
L 336.580116 483.452621 
L 337.253076 483.678605 
L 339.271958 483.536583 
L 339.944918 483.677214 
L 341.290839 483.511183 
L 342.636761 483.669916 
L 343.982682 483.5063 
L 344.655642 483.659749 
L 346.001563 483.63568 
L 346.674524 483.548395 
L 348.020445 483.766974 
L 349.366366 483.657127 
L 350.039327 483.573211 
L 351.385248 483.687061 
L 352.731169 483.559246 
L 354.07709 483.692489 
L 354.750051 483.525233 
L 356.768932 483.697979 
L 357.441893 483.506979 
L 358.787814 483.692917 
L 359.460775 483.689606 
L 360.133735 483.517185 
L 361.479656 483.710701 
L 362.825578 483.539267 
L 364.171499 483.722254 
L 365.51742 483.56851 
L 366.863341 483.72331 
L 367.536301 483.533757 
L 369.555183 483.708885 
L 370.228144 483.515099 
L 371.574065 483.732766 
L 373.592947 483.674409 
L 374.265907 483.740369 
L 375.611828 483.552305 
L 376.284789 483.706747 
L 376.957749 483.735291 
L 377.63071 483.582581 
L 378.30367 483.592033 
L 378.976631 483.73172 
L 379.649592 483.716978 
L 380.322552 483.54753 
L 381.668473 483.745902 
L 383.687355 483.682378 
L 384.360316 483.747561 
L 385.706237 483.542851 
L 386.379197 483.718751 
L 387.052158 483.73756 
L 388.398079 483.578572 
L 389.07104 483.741578 
L 393.781763 483.689088 
L 394.454724 483.746165 
L 395.800645 483.556563 
L 396.473606 483.726618 
L 397.819527 483.642698 
L 398.492487 483.571408 
L 399.165448 483.74361 
L 403.203211 483.59954 
L 404.549132 483.739589 
L 405.895054 483.586266 
L 406.568014 483.728157 
L 407.913935 483.660331 
L 408.586896 483.584372 
L 409.259856 483.738154 
L 413.29762 483.629598 
L 414.643541 483.735278 
L 416.662423 483.730997 
L 418.008344 483.765614 
L 419.354265 483.726344 
L 420.700186 483.777769 
L 422.046107 483.65082 
L 423.392028 483.741236 
L 424.737949 483.648534 
L 426.083871 483.742038 
L 426.756831 483.602339 
L 428.775713 483.739611 
L 429.448673 483.603015 
L 430.794594 483.742702 
L 434.832358 483.637484 
L 436.178279 483.755524 
L 436.85124 483.601989 
L 438.870121 483.746019 
L 439.543082 483.591126 
L 440.889003 483.75717 
L 442.907885 483.712753 
L 443.580845 483.764561 
L 444.926766 483.62839 
L 446.272687 483.761031 
L 446.945648 483.607846 
L 448.96453 483.742206 
L 449.63749 483.585629 
L 450.983411 483.767945 
L 452.329333 483.592929 
L 453.675254 483.768989 
L 455.021175 483.620031 
L 455.694135 483.748937 
L 456.367096 483.756854 
L 457.040056 483.614838 
L 459.058938 483.731642 
L 459.731899 483.587393 
L 461.07782 483.771369 
L 462.423741 483.586225 
L 463.096702 483.734721 
L 463.769662 483.763946 
L 465.115583 483.613298 
L 465.788544 483.758899 
L 470.499268 483.710473 
L 471.172228 483.765285 
L 472.518149 483.585705 
L 473.19111 483.745469 
L 474.537031 483.656027 
L 475.209992 483.609145 
L 475.882952 483.761202 
L 477.901834 483.668401 
L 478.574795 483.761573 
L 479.920716 483.602604 
L 481.266637 483.751819 
L 482.612558 483.591028 
L 483.285518 483.748181 
L 490.015124 483.612239 
L 491.361045 483.734884 
L 492.706966 483.600383 
L 493.379927 483.739265 
L 498.090651 483.690742 
L 499.436572 483.787673 
L 501.455454 483.755095 
L 502.801375 483.735598 
L 503.474335 483.622001 
L 504.820256 483.732913 
L 506.839138 483.698353 
L 507.512099 483.736421 
L 508.185059 483.619221 
L 510.203941 483.737374 
L 510.876902 483.580582 
L 512.895783 483.724058 
L 513.568744 483.585429 
L 514.914665 483.740593 
L 516.260586 483.603583 
L 517.606507 483.745219 
L 518.279468 483.59424 
L 520.298349 483.736242 
L 520.97131 483.557196 
L 522.317231 483.740949 
L 524.336113 483.687252 
L 525.009073 483.74883 
L 526.354995 483.586427 
L 527.700916 483.742577 
L 528.373876 483.573075 
L 530.392758 483.716532 
L 531.065718 483.536632 
L 532.41164 483.748166 
L 533.757561 483.539645 
L 534.430521 483.699601 
L 535.103482 483.743634 
L 536.449403 483.572786 
L 537.122364 483.728578 
L 537.795324 483.721439 
L 538.468285 483.555293 
L 540.487166 483.683779 
L 541.160127 483.520621 
L 542.506048 483.739391 
L 543.851969 483.521097 
L 544.52493 483.714185 
L 545.19789 483.719797 
L 546.543811 483.565074 
L 547.216772 483.731912 
L 549.235654 483.6364 
L 549.908614 483.729336 
L 551.254535 483.5105 
L 551.927496 483.691856 
L 552.600457 483.711929 
L 553.946378 483.508019 
L 554.619338 483.714193 
L 556.63822 483.568519 
L 557.31118 483.712572 
L 558.657102 483.533609 
L 560.003023 483.697333 
L 561.348944 483.507142 
L 562.021904 483.687794 
L 563.367826 483.588481 
L 564.040786 483.502331 
L 564.713747 483.68812 
L 566.732628 483.593682 
L 567.405589 483.696336 
L 570.097431 483.738583 
L 571.443352 483.685616 
L 572.116313 483.512117 
L 573.462234 483.666969 
L 575.481116 483.616722 
L 576.154076 483.673473 
L 576.827037 483.541409 
L 577.499997 483.525842 
L 578.845919 483.675296 
L 579.518879 483.441508 
L 580.8648 483.660355 
L 581.537761 483.6554 
L 582.210721 483.429279 
L 583.556642 483.677349 
L 584.902564 483.447797 
L 586.248485 483.681437 
L 586.921445 483.473629 
L 587.594406 483.484252 
L 588.267366 483.65163 
L 588.940327 483.660564 
L 589.613288 483.385182 
L 590.959209 483.674856 
L 591.632169 483.604333 
L 592.30513 483.358064 
L 592.97809 483.5862 
L 593.651051 483.67819 
L 594.996972 483.382213 
L 595.669933 483.633882 
L 596.342893 483.653648 
L 597.015854 483.424266 
L 597.688814 483.445846 
L 598.361775 483.661892 
L 599.034735 483.602358 
L 599.707696 483.346139 
L 601.053617 483.660651 
L 602.399538 483.301326 
L 603.072499 483.600682 
L 603.745459 483.631807 
L 605.091381 483.311994 
L 605.764341 483.630615 
L 606.437302 483.584771 
L 607.110262 483.390655 
L 607.783223 483.416184 
L 608.456183 483.622129 
L 609.802104 483.330657 
L 610.475065 483.538168 
L 611.148026 483.590495 
L 612.493947 483.286296 
L 613.166907 483.568778 
L 614.512828 483.431417 
L 615.185789 483.277395 
L 615.85875 483.62102 
L 616.53171 483.703346 
L 617.204671 483.669011 
L 617.877631 483.423074 
L 618.550592 483.361837 
L 619.896513 483.553692 
L 620.569473 483.221297 
L 622.588355 483.547362 
L 623.261316 483.145272 
L 624.607237 483.55172 
L 625.280197 483.490116 
L 625.953158 483.126411 
L 626.626119 483.434534 
L 627.299079 483.572413 
L 628.645 483.145256 
L 629.317961 483.492558 
L 629.990921 483.557841 
L 630.663882 483.16682 
L 631.336843 483.204 
L 632.009803 483.542371 
L 632.682764 483.488614 
L 633.355724 483.020879 
L 634.701645 483.553386 
L 635.374606 483.378048 
L 636.047566 482.922092 
L 636.720527 483.412508 
L 637.393488 483.509587 
L 638.066448 483.257967 
L 638.739409 482.872812 
L 639.412369 483.463565 
L 640.08533 483.427767 
L 641.431251 482.890045 
L 642.104212 483.431725 
L 642.777172 483.337053 
L 643.450133 483.093812 
L 644.123093 483.000288 
L 644.796054 483.446653 
L 646.141975 483.381814 
L 646.814935 482.832768 
L 647.487896 483.011985 
L 648.160857 483.324807 
L 648.833817 483.390301 
L 649.506778 482.585775 
L 650.852699 483.390364 
L 651.525659 483.326301 
L 652.19862 482.39548 
L 652.871581 483.073857 
L 653.544541 483.4301 
L 654.217502 483.157118 
L 654.890462 482.246473 
L 655.563423 483.179291 
L 656.236383 483.363736 
L 656.909344 482.972362 
L 657.582304 482.173736 
L 658.255265 483.203022 
L 658.928226 483.196245 
L 659.601186 482.849324 
L 660.274147 482.374707 
L 660.947107 482.324766 
L 661.620068 482.836903 
L 662.293028 483.163373 
L 662.965989 483.075054 
L 663.63895 481.590379 
L 664.31191 482.772457 
L 664.984871 483.277229 
L 665.657831 482.960708 
L 666.330792 481.229513 
L 667.003752 482.703077 
L 667.676713 483.16528 
L 668.349674 482.751687 
L 669.022634 481.744984 
L 669.695595 480.973239 
L 670.368555 479.87506 
L 671.041516 482.590083 
L 671.714476 480.862445 
L 672.387437 478.505409 
L 673.060397 480.310552 
L 673.733358 483.710466 
L 674.406319 479.581193 
L 675.079279 480.743862 
L 675.75224 483.215991 
L 677.098161 483.330261 
L 677.771121 482.230105 
L 678.444082 479.937371 
L 679.117043 479.000593 
L 679.790003 472.400507 
L 680.462964 483.255928 
L 681.135924 470.592808 
L 681.808885 468.231051 
L 682.481845 482.772732 
L 683.154806 466.8896 
L 683.827766 456.341759 
L 684.500727 461.342345 
L 685.846648 480.789564 
L 686.519609 482.846616 
L 687.192569 476.356941 
L 687.86553 478.727151 
L 688.53849 485.458999 
L 689.211451 485.470041 
L 689.884412 485.095676 
L 690.557372 484.336764 
L 691.903293 481.541648 
L 692.576254 485.690812 
L 693.249214 486.386236 
L 693.922175 486.787366 
L 695.268096 487.211043 
L 698.632899 487.834488 
L 699.97882 487.818291 
L 704.016583 488.000479 
L 732.280927 488.318349 
L 735.64573 488.347725 
L 736.991651 488.383562 
L 741.029414 488.341526 
L 747.086059 488.173585 
L 755.161586 487.887476 
L 756.507507 487.894733 
L 760.545271 487.576838 
L 770.639679 488.227588 
L 774.677443 488.27373 
L 776.696324 488.170008 
L 788.809614 488.233212 
L 799.576983 488.096183 
L 799.576983 488.096183 
" clip-path="url(#pbf457b5ee7)" style="fill: none; stroke: #000000; stroke-width: 3; stroke-linecap: square"/>
   </g>
   <g id="patch_3">
    <path d="M 93.675 489.2325 
L 93.675 28.08 
" style="fill: none; stroke: #000000; stroke-width: 2; stroke-linejoin: miter; stroke-linecap: square"/>
   </g>
   <g id="patch_4">
    <path d="M 833.191364 489.2325 
L 833.191364 28.08 
" style="fill: none; stroke: #000000; stroke-width: 2; stroke-linejoin: miter; stroke-linecap: square"/>
   </g>
   <g id="patch_5">
    <path d="M 93.675 489.2325 
L 833.191364 489.2325 
" style="fill: none; stroke: #000000; stroke-width: 2; stroke-linejoin: miter; stroke-linecap: square"/>
   </g>
   <g id="patch_6">
    <path d="M 93.675 28.08 
L 833.191364 28.08 
" style="fill: none; stroke: #000000; stroke-width: 2; stroke-linejoin: miter; stroke-linecap: square"/>
   </g>
   <g id="legend_1">
    <g id="patch_7">
     <path d="M 394.184432 481.2325 
L 532.681932 481.2325 
Q 535.881932 481.2325 535.881932 478.0325 
L 535.881932 362.2075 
Q 535.881932 359.0075 532.681932 359.0075 
L 394.184432 359.0075 
Q 390.984432 359.0075 390.984432 362.2075 
L 390.984432 478.0325 
Q 390.984432 481.2325 394.184432 481.2325 
z
" style="fill: #ffffff; opacity: 0.8; stroke: #cccccc; stroke-linejoin: miter"/>
    </g>
    <g id="line2d_48">
     <path d="M 397.384432 371.965 
L 413.384432 371.965 
L 429.384432 371.965 
" style="fill: none; stroke: #1f77b4; stroke-width: 3; stroke-linecap: square"/>
    </g>
    <g id="text_17">
     <!-- Electron 1 -->
     <g transform="translate(442.184432 377.565) scale(0.16 -0.16)">
      <defs>
       <path id="DejaVuSerif-45" d="M 353 0 
L 353 331 
L 947 331 
L 947 4331 
L 353 4331 
L 353 4666 
L 4109 4666 
L 4109 3628 
L 3725 3628 
L 3725 4281 
L 1581 4281 
L 1581 2719 
L 3109 2719 
L 3109 3303 
L 3494 3303 
L 3494 1753 
L 3109 1753 
L 3109 2338 
L 1581 2338 
L 1581 384 
L 3775 384 
L 3775 1038 
L 4159 1038 
L 4159 0 
L 353 0 
z
" transform="scale(0.015625)"/>
       <path id="DejaVuSerif-6f" d="M 1925 219 
Q 2388 219 2623 584 
Q 2859 950 2859 1663 
Q 2859 2375 2623 2739 
Q 2388 3103 1925 3103 
Q 1463 3103 1227 2739 
Q 991 2375 991 1663 
Q 991 950 1228 584 
Q 1466 219 1925 219 
z
M 1925 -91 
Q 1200 -91 759 389 
Q 319 869 319 1663 
Q 319 2456 758 2934 
Q 1197 3413 1925 3413 
Q 2653 3413 3092 2934 
Q 3531 2456 3531 1663 
Q 3531 869 3092 389 
Q 2653 -91 1925 -91 
z
" transform="scale(0.015625)"/>
      </defs>
      <use xlink:href="#DejaVuSerif-45"/>
      <use xlink:href="#DejaVuSerif-6c" x="72.998047"/>
      <use xlink:href="#DejaVuSerif-65" x="104.980469"/>
      <use xlink:href="#DejaVuSerif-63" x="164.160156"/>
      <use xlink:href="#DejaVuSerif-74" x="220.166016"/>
      <use xlink:href="#DejaVuSerif-72" x="260.351562"/>
      <use xlink:href="#DejaVuSerif-6f" x="308.154297"/>
      <use xlink:href="#DejaVuSerif-6e" x="368.359375"/>
      <use xlink:href="#DejaVuSerif-20" x="432.763672"/>
      <use xlink:href="#DejaVuSerif-31" x="464.550781"/>
     </g>
    </g>
    <g id="line2d_49">
     <path d="M 397.384432 395.45 
L 413.384432 395.45 
L 429.384432 395.45 
" style="fill: none; stroke: #ff7f0e; stroke-width: 3; stroke-linecap: square"/>
    </g>
    <g id="text_18">
     <!-- Electron 2 -->
     <g transform="translate(442.184432 401.05) scale(0.16 -0.16)">
      <use xlink:href="#DejaVuSerif-45"/>
      <use xlink:href="#DejaVuSerif-6c" x="72.998047"/>
      <use xlink:href="#DejaVuSerif-65" x="104.980469"/>
      <use xlink:href="#DejaVuSerif-63" x="164.160156"/>
      <use xlink:href="#DejaVuSerif-74" x="220.166016"/>
      <use xlink:href="#DejaVuSerif-72" x="260.351562"/>
      <use xlink:href="#DejaVuSerif-6f" x="308.154297"/>
      <use xlink:href="#DejaVuSerif-6e" x="368.359375"/>
      <use xlink:href="#DejaVuSerif-20" x="432.763672"/>
      <use xlink:href="#DejaVuSerif-32" x="464.550781"/>
     </g>
    </g>
    <g id="line2d_50">
     <path d="M 397.384432 418.935 
L 413.384432 418.935 
L 429.384432 418.935 
" style="fill: none; stroke: #2ca02c; stroke-width: 3; stroke-linecap: square"/>
    </g>
    <g id="text_19">
     <!-- Electron 3 -->
     <g transform="translate(442.184432 424.535) scale(0.16 -0.16)">
      <use xlink:href="#DejaVuSerif-45"/>
      <use xlink:href="#DejaVuSerif-6c" x="72.998047"/>
      <use xlink:href="#DejaVuSerif-65" x="104.980469"/>
      <use xlink:href="#DejaVuSerif-63" x="164.160156"/>
      <use xlink:href="#DejaVuSerif-74" x="220.166016"/>
      <use xlink:href="#DejaVuSerif-72" x="260.351562"/>
      <use xlink:href="#DejaVuSerif-6f" x="308.154297"/>
      <use xlink:href="#DejaVuSerif-6e" x="368.359375"/>
      <use xlink:href="#DejaVuSerif-20" x="432.763672"/>
      <use xlink:href="#DejaVuSerif-33" x="464.550781"/>
     </g>
    </g>
    <g id="line2d_51">
     <path d="M 397.384432 442.42 
L 413.384432 442.42 
L 429.384432 442.42 
" style="fill: none; stroke: #d62728; stroke-width: 3; stroke-linecap: square"/>
    </g>
    <g id="text_20">
     <!-- Electron 4 -->
     <g transform="translate(442.184432 448.02) scale(0.16 -0.16)">
      <defs>
       <path id="DejaVuSerif-34" d="M 2234 1581 
L 2234 4063 
L 641 1581 
L 2234 1581 
z
M 3609 0 
L 1484 0 
L 1484 331 
L 2234 331 
L 2234 1247 
L 197 1247 
L 197 1588 
L 2241 4750 
L 2859 4750 
L 2859 1581 
L 3750 1581 
L 3750 1247 
L 2859 1247 
L 2859 331 
L 3609 331 
L 3609 0 
z
" transform="scale(0.015625)"/>
      </defs>
      <use xlink:href="#DejaVuSerif-45"/>
      <use xlink:href="#DejaVuSerif-6c" x="72.998047"/>
      <use xlink:href="#DejaVuSerif-65" x="104.980469"/>
      <use xlink:href="#DejaVuSerif-63" x="164.160156"/>
      <use xlink:href="#DejaVuSerif-74" x="220.166016"/>
      <use xlink:href="#DejaVuSerif-72" x="260.351562"/>
      <use xlink:href="#DejaVuSerif-6f" x="308.154297"/>
      <use xlink:href="#DejaVuSerif-6e" x="368.359375"/>
      <use xlink:href="#DejaVuSerif-20" x="432.763672"/>
      <use xlink:href="#DejaVuSerif-34" x="464.550781"/>
     </g>
    </g>
    <g id="line2d_52">
     <path d="M 397.384432 465.905 
L 413.384432 465.905 
L 429.384432 465.905 
" style="fill: none; stroke: #000000; stroke-width: 3; stroke-linecap: square"/>
    </g>
    <g id="text_21">
     <!-- Antiproton -->
     <g transform="translate(442.184432 471.505) scale(0.16 -0.16)">
      <defs>
       <path id="DejaVuSerif-41" d="M 1281 1691 
L 2994 1691 
L 2138 3909 
L 1281 1691 
z
M -38 0 
L -38 331 
L 372 331 
L 2034 4666 
L 2559 4666 
L 4225 331 
L 4684 331 
L 4684 0 
L 2988 0 
L 2988 331 
L 3506 331 
L 3116 1356 
L 1153 1356 
L 763 331 
L 1275 331 
L 1275 0 
L -38 0 
z
" transform="scale(0.015625)"/>
       <path id="DejaVuSerif-70" d="M 1313 1825 
L 1313 1497 
Q 1313 897 1542 583 
Q 1772 269 2209 269 
Q 2650 269 2876 622 
Q 3103 975 3103 1663 
Q 3103 2353 2876 2703 
Q 2650 3053 2209 3053 
Q 1772 3053 1542 2737 
Q 1313 2422 1313 1825 
z
M 738 2988 
L 184 2988 
L 184 3322 
L 1313 3322 
L 1313 2803 
Q 1481 3116 1742 3264 
Q 2003 3413 2388 3413 
Q 3000 3413 3387 2928 
Q 3775 2444 3775 1663 
Q 3775 881 3387 395 
Q 3000 -91 2388 -91 
Q 2003 -91 1742 57 
Q 1481 206 1313 519 
L 1313 -997 
L 1856 -997 
L 1856 -1331 
L 184 -1331 
L 184 -997 
L 738 -997 
L 738 2988 
z
" transform="scale(0.015625)"/>
      </defs>
      <use xlink:href="#DejaVuSerif-41"/>
      <use xlink:href="#DejaVuSerif-6e" x="72.216797"/>
      <use xlink:href="#DejaVuSerif-74" x="136.621094"/>
      <use xlink:href="#DejaVuSerif-69" x="176.806641"/>
      <use xlink:href="#DejaVuSerif-70" x="208.789062"/>
      <use xlink:href="#DejaVuSerif-72" x="272.802734"/>
      <use xlink:href="#DejaVuSerif-6f" x="320.605469"/>
      <use xlink:href="#DejaVuSerif-74" x="380.810547"/>
      <use xlink:href="#DejaVuSerif-6f" x="420.996094"/>
      <use xlink:href="#DejaVuSerif-6e" x="481.201172"/>
     </g>
    </g>
   </g>
  </g>
 </g>
 <defs>
  <clipPath id="pbf457b5ee7">
   <rect x="93.675" y="28.08" width="739.516364" height="461.1525"/>
  </clipPath>
 </defs>
</svg>
