<?xml version="1.0" encoding="utf-8" standalone="no"?>
<!DOCTYPE svg PUBLIC "-//W3C//DTD SVG 1.1//EN"
  "http://www.w3.org/Graphics/SVG/1.1/DTD/svg11.dtd">
<svg xmlns:xlink="http://www.w3.org/1999/xlink" width="864pt" height="576pt" viewBox="0 0 864 576" xmlns="http://www.w3.org/2000/svg" version="1.1">
 <metadata>
  <rdf:RDF xmlns:dc="http://purl.org/dc/elements/1.1/" xmlns:cc="http://creativecommons.org/ns#" xmlns:rdf="http://www.w3.org/1999/02/22-rdf-syntax-ns#">
   <cc:Work>
    <dc:type rdf:resource="http://purl.org/dc/dcmitype/StillImage"/>
    <dc:date>2025-06-12T16:17:03.353799</dc:date>
    <dc:format>image/svg+xml</dc:format>
    <dc:creator>
     <cc:Agent>
      <dc:title>Matplotlib v3.7.2, https://matplotlib.org/</dc:title>
     </cc:Agent>
    </dc:creator>
   </cc:Work>
  </rdf:RDF>
 </metadata>
 <defs>
  <style type="text/css">*{stroke-linejoin: round; stroke-linecap: butt}</style>
 </defs>
 <g id="figure_1">
  <g id="patch_1">
   <path d="M 0 576 
L 864 576 
L 864 0 
L 0 0 
z
" style="fill: #ffffff"/>
  </g>
  <g id="axes_1">
   <g id="patch_2">
    <path d="M 115.365 489.2325 
L 833.191364 489.2325 
L 833.191364 28.08 
L 115.365 28.08 
z
" style="fill: #ffffff"/>
   </g>
   <g id="matplotlib.axis_1">
    <g id="xtick_1">
     <g id="line2d_1">
      <path d="M 147.993471 489.2325 
L 147.993471 28.08 
" clip-path="url(#p8497dbb72c)" style="fill: none; stroke-dasharray: 3.7,1.6; stroke-dashoffset: 0; stroke: #b0b0b0; stroke-opacity: 0.5"/>
     </g>
     <g id="line2d_2">
      <defs>
       <path id="m16529dd578" d="M 0 0 
L 0 -10 
" style="stroke: #000000; stroke-width: 2"/>
      </defs>
      <g>
       <use xlink:href="#m16529dd578" x="147.993471" y="489.2325" style="stroke: #000000; stroke-width: 2"/>
      </g>
     </g>
     <g id="line2d_3">
      <defs>
       <path id="m22d72af466" d="M 0 0 
L 0 10 
" style="stroke: #000000; stroke-width: 2"/>
      </defs>
      <g>
       <use xlink:href="#m22d72af466" x="147.993471" y="28.08" style="stroke: #000000; stroke-width: 2"/>
      </g>
     </g>
     <g id="text_1">
      <!-- 0 -->
      <g transform="translate(139.722221 512.488438) scale(0.26 -0.26)">
       <defs>
        <path id="DejaVuSerif-30" d="M 2034 219 
Q 2513 219 2750 744 
Q 2988 1269 2988 2328 
Q 2988 3391 2750 3916 
Q 2513 4441 2034 4441 
Q 1556 4441 1318 3916 
Q 1081 3391 1081 2328 
Q 1081 1269 1318 744 
Q 1556 219 2034 219 
z
M 2034 -91 
Q 1275 -91 848 546 
Q 422 1184 422 2328 
Q 422 3475 848 4112 
Q 1275 4750 2034 4750 
Q 2797 4750 3222 4112 
Q 3647 3475 3647 2328 
Q 3647 1184 3222 546 
Q 2797 -91 2034 -91 
z
" transform="scale(0.015625)"/>
       </defs>
       <use xlink:href="#DejaVuSerif-30"/>
      </g>
     </g>
    </g>
    <g id="xtick_2">
     <g id="line2d_4">
      <path d="M 278.507355 489.2325 
L 278.507355 28.08 
" clip-path="url(#p8497dbb72c)" style="fill: none; stroke-dasharray: 3.7,1.6; stroke-dashoffset: 0; stroke: #b0b0b0; stroke-opacity: 0.5"/>
     </g>
     <g id="line2d_5">
      <g>
       <use xlink:href="#m16529dd578" x="278.507355" y="489.2325" style="stroke: #000000; stroke-width: 2"/>
      </g>
     </g>
     <g id="line2d_6">
      <g>
       <use xlink:href="#m22d72af466" x="278.507355" y="28.08" style="stroke: #000000; stroke-width: 2"/>
      </g>
     </g>
     <g id="text_2">
      <!-- 500 -->
      <g transform="translate(253.693605 512.488438) scale(0.26 -0.26)">
       <defs>
        <path id="DejaVuSerif-35" d="M 3219 4666 
L 3219 4153 
L 1081 4153 
L 1081 2816 
Q 1244 2928 1461 2984 
Q 1678 3041 1947 3041 
Q 2703 3041 3140 2622 
Q 3578 2203 3578 1478 
Q 3578 738 3136 323 
Q 2694 -91 1894 -91 
Q 1572 -91 1234 -12 
Q 897 66 544 225 
L 544 1131 
L 897 1131 
Q 925 688 1179 453 
Q 1434 219 1894 219 
Q 2388 219 2653 544 
Q 2919 869 2919 1478 
Q 2919 2084 2655 2407 
Q 2391 2731 1894 2731 
Q 1613 2731 1398 2631 
Q 1184 2531 1019 2322 
L 750 2322 
L 750 4666 
L 3219 4666 
z
" transform="scale(0.015625)"/>
       </defs>
       <use xlink:href="#DejaVuSerif-35"/>
       <use xlink:href="#DejaVuSerif-30" x="63.623047"/>
       <use xlink:href="#DejaVuSerif-30" x="127.246094"/>
      </g>
     </g>
    </g>
    <g id="xtick_3">
     <g id="line2d_7">
      <path d="M 409.02124 489.2325 
L 409.02124 28.08 
" clip-path="url(#p8497dbb72c)" style="fill: none; stroke-dasharray: 3.7,1.6; stroke-dashoffset: 0; stroke: #b0b0b0; stroke-opacity: 0.5"/>
     </g>
     <g id="line2d_8">
      <g>
       <use xlink:href="#m16529dd578" x="409.02124" y="489.2325" style="stroke: #000000; stroke-width: 2"/>
      </g>
     </g>
     <g id="line2d_9">
      <g>
       <use xlink:href="#m22d72af466" x="409.02124" y="28.08" style="stroke: #000000; stroke-width: 2"/>
      </g>
     </g>
     <g id="text_3">
      <!-- 1000 -->
      <g transform="translate(375.93624 512.488438) scale(0.26 -0.26)">
       <defs>
        <path id="DejaVuSerif-31" d="M 909 0 
L 909 331 
L 1722 331 
L 1722 4213 
L 781 3603 
L 781 4013 
L 1919 4750 
L 2350 4750 
L 2350 331 
L 3163 331 
L 3163 0 
L 909 0 
z
" transform="scale(0.015625)"/>
       </defs>
       <use xlink:href="#DejaVuSerif-31"/>
       <use xlink:href="#DejaVuSerif-30" x="63.623047"/>
       <use xlink:href="#DejaVuSerif-30" x="127.246094"/>
       <use xlink:href="#DejaVuSerif-30" x="190.869141"/>
      </g>
     </g>
    </g>
    <g id="xtick_4">
     <g id="line2d_10">
      <path d="M 539.535124 489.2325 
L 539.535124 28.08 
" clip-path="url(#p8497dbb72c)" style="fill: none; stroke-dasharray: 3.7,1.6; stroke-dashoffset: 0; stroke: #b0b0b0; stroke-opacity: 0.5"/>
     </g>
     <g id="line2d_11">
      <g>
       <use xlink:href="#m16529dd578" x="539.535124" y="489.2325" style="stroke: #000000; stroke-width: 2"/>
      </g>
     </g>
     <g id="line2d_12">
      <g>
       <use xlink:href="#m22d72af466" x="539.535124" y="28.08" style="stroke: #000000; stroke-width: 2"/>
      </g>
     </g>
     <g id="text_4">
      <!-- 1500 -->
      <g transform="translate(506.450124 512.488438) scale(0.26 -0.26)">
       <use xlink:href="#DejaVuSerif-31"/>
       <use xlink:href="#DejaVuSerif-35" x="63.623047"/>
       <use xlink:href="#DejaVuSerif-30" x="127.246094"/>
       <use xlink:href="#DejaVuSerif-30" x="190.869141"/>
      </g>
     </g>
    </g>
    <g id="xtick_5">
     <g id="line2d_13">
      <path d="M 670.049008 489.2325 
L 670.049008 28.08 
" clip-path="url(#p8497dbb72c)" style="fill: none; stroke-dasharray: 3.7,1.6; stroke-dashoffset: 0; stroke: #b0b0b0; stroke-opacity: 0.5"/>
     </g>
     <g id="line2d_14">
      <g>
       <use xlink:href="#m16529dd578" x="670.049008" y="489.2325" style="stroke: #000000; stroke-width: 2"/>
      </g>
     </g>
     <g id="line2d_15">
      <g>
       <use xlink:href="#m22d72af466" x="670.049008" y="28.08" style="stroke: #000000; stroke-width: 2"/>
      </g>
     </g>
     <g id="text_5">
      <!-- 2000 -->
      <g transform="translate(636.964008 512.488438) scale(0.26 -0.26)">
       <defs>
        <path id="DejaVuSerif-32" d="M 819 3553 
L 469 3553 
L 469 4384 
Q 803 4563 1142 4656 
Q 1481 4750 1806 4750 
Q 2534 4750 2956 4397 
Q 3378 4044 3378 3438 
Q 3378 2753 2422 1800 
Q 2347 1728 2309 1691 
L 1131 513 
L 3078 513 
L 3078 1088 
L 3444 1088 
L 3444 0 
L 434 0 
L 434 341 
L 1850 1753 
Q 2319 2222 2519 2614 
Q 2719 3006 2719 3438 
Q 2719 3909 2473 4175 
Q 2228 4441 1797 4441 
Q 1350 4441 1106 4219 
Q 863 3997 819 3553 
z
" transform="scale(0.015625)"/>
       </defs>
       <use xlink:href="#DejaVuSerif-32"/>
       <use xlink:href="#DejaVuSerif-30" x="63.623047"/>
       <use xlink:href="#DejaVuSerif-30" x="127.246094"/>
       <use xlink:href="#DejaVuSerif-30" x="190.869141"/>
      </g>
     </g>
    </g>
    <g id="xtick_6">
     <g id="line2d_16">
      <path d="M 800.562893 489.2325 
L 800.562893 28.08 
" clip-path="url(#p8497dbb72c)" style="fill: none; stroke-dasharray: 3.7,1.6; stroke-dashoffset: 0; stroke: #b0b0b0; stroke-opacity: 0.5"/>
     </g>
     <g id="line2d_17">
      <g>
       <use xlink:href="#m16529dd578" x="800.562893" y="489.2325" style="stroke: #000000; stroke-width: 2"/>
      </g>
     </g>
     <g id="line2d_18">
      <g>
       <use xlink:href="#m22d72af466" x="800.562893" y="28.08" style="stroke: #000000; stroke-width: 2"/>
      </g>
     </g>
     <g id="text_6">
      <!-- 2500 -->
      <g transform="translate(767.477893 512.488438) scale(0.26 -0.26)">
       <use xlink:href="#DejaVuSerif-32"/>
       <use xlink:href="#DejaVuSerif-35" x="63.623047"/>
       <use xlink:href="#DejaVuSerif-30" x="127.246094"/>
       <use xlink:href="#DejaVuSerif-30" x="190.869141"/>
      </g>
     </g>
    </g>
    <g id="text_7">
     <!-- $t$ (a.u.) -->
     <g transform="translate(430.858182 541.651562) scale(0.26 -0.26)">
      <defs>
       <path id="Cmmi10-74" d="M 397 519 
Q 397 613 416 697 
L 878 2534 
L 206 2534 
Q 141 2534 141 2619 
Q 166 2759 225 2759 
L 934 2759 
L 1191 3803 
Q 1216 3888 1291 3947 
Q 1366 4006 1459 4006 
Q 1541 4006 1595 3957 
Q 1650 3909 1650 3828 
Q 1650 3809 1648 3798 
Q 1647 3788 1644 3775 
L 1388 2759 
L 2047 2759 
Q 2113 2759 2113 2675 
Q 2109 2659 2100 2621 
Q 2091 2584 2075 2559 
Q 2059 2534 2028 2534 
L 1331 2534 
L 872 684 
Q 825 503 825 372 
Q 825 97 1013 97 
Q 1294 97 1511 361 
Q 1728 625 1844 941 
Q 1869 978 1894 978 
L 1972 978 
Q 1997 978 2012 961 
Q 2028 944 2028 922 
Q 2028 909 2022 903 
Q 1881 516 1612 222 
Q 1344 -72 997 -72 
Q 744 -72 570 93 
Q 397 259 397 519 
z
" transform="scale(0.015625)"/>
       <path id="DejaVuSerif-20" transform="scale(0.015625)"/>
       <path id="DejaVuSerif-28" d="M 2041 -997 
Q 1281 -656 893 83 
Q 506 822 506 1931 
Q 506 3044 893 3783 
Q 1281 4522 2041 4863 
L 2041 4556 
Q 1559 4225 1350 3623 
Q 1141 3022 1141 1931 
Q 1141 844 1350 242 
Q 1559 -359 2041 -691 
L 2041 -997 
z
" transform="scale(0.015625)"/>
       <path id="DejaVuSerif-61" d="M 2547 1044 
L 2547 1747 
L 1806 1747 
Q 1378 1747 1168 1562 
Q 959 1378 959 997 
Q 959 650 1171 447 
Q 1384 244 1747 244 
Q 2106 244 2326 466 
Q 2547 688 2547 1044 
z
M 3122 2075 
L 3122 331 
L 3634 331 
L 3634 0 
L 2547 0 
L 2547 359 
Q 2356 128 2106 18 
Q 1856 -91 1522 -91 
Q 969 -91 644 203 
Q 319 497 319 997 
Q 319 1513 691 1797 
Q 1063 2081 1741 2081 
L 2547 2081 
L 2547 2309 
Q 2547 2688 2317 2895 
Q 2088 3103 1672 3103 
Q 1328 3103 1125 2947 
Q 922 2791 872 2484 
L 575 2484 
L 575 3156 
Q 875 3284 1158 3348 
Q 1441 3413 1709 3413 
Q 2400 3413 2761 3070 
Q 3122 2728 3122 2075 
z
" transform="scale(0.015625)"/>
       <path id="DejaVuSerif-2e" d="M 603 325 
Q 603 500 722 622 
Q 841 744 1019 744 
Q 1191 744 1312 622 
Q 1434 500 1434 325 
Q 1434 153 1312 31 
Q 1191 -91 1019 -91 
Q 841 -91 722 29 
Q 603 150 603 325 
z
" transform="scale(0.015625)"/>
       <path id="DejaVuSerif-75" d="M 2266 3322 
L 3341 3322 
L 3341 331 
L 3884 331 
L 3884 0 
L 2766 0 
L 2766 588 
Q 2606 256 2353 82 
Q 2100 -91 1766 -91 
Q 1213 -91 952 223 
Q 691 538 691 1209 
L 691 2988 
L 172 2988 
L 172 3322 
L 1269 3322 
L 1269 1388 
Q 1269 781 1417 556 
Q 1566 331 1947 331 
Q 2347 331 2556 625 
Q 2766 919 2766 1478 
L 2766 2988 
L 2266 2988 
L 2266 3322 
z
" transform="scale(0.015625)"/>
       <path id="DejaVuSerif-29" d="M 453 -997 
L 453 -691 
Q 934 -359 1145 242 
Q 1356 844 1356 1931 
Q 1356 3022 1145 3623 
Q 934 4225 453 4556 
L 453 4863 
Q 1216 4522 1603 3783 
Q 1991 3044 1991 1931 
Q 1991 822 1603 83 
Q 1216 -656 453 -997 
z
" transform="scale(0.015625)"/>
      </defs>
      <use xlink:href="#Cmmi10-74" transform="translate(0 0.015625)"/>
      <use xlink:href="#DejaVuSerif-20" transform="translate(36.083984 0.015625)"/>
      <use xlink:href="#DejaVuSerif-28" transform="translate(67.871094 0.015625)"/>
      <use xlink:href="#DejaVuSerif-61" transform="translate(106.884766 0.015625)"/>
      <use xlink:href="#DejaVuSerif-2e" transform="translate(166.503906 0.015625)"/>
      <use xlink:href="#DejaVuSerif-75" transform="translate(198.291016 0.015625)"/>
      <use xlink:href="#DejaVuSerif-2e" transform="translate(262.695312 0.015625)"/>
      <use xlink:href="#DejaVuSerif-29" transform="translate(294.482422 0.015625)"/>
     </g>
    </g>
   </g>
   <g id="matplotlib.axis_2">
    <g id="ytick_1">
     <g id="line2d_19">
      <path d="M 115.365 488.691212 
L 833.191364 488.691212 
" clip-path="url(#p8497dbb72c)" style="fill: none; stroke-dasharray: 3.7,1.6; stroke-dashoffset: 0; stroke: #b0b0b0; stroke-opacity: 0.5"/>
     </g>
     <g id="line2d_20">
      <defs>
       <path id="md3d574b91c" d="M 0 0 
L 10 0 
" style="stroke: #000000; stroke-width: 2"/>
      </defs>
      <g>
       <use xlink:href="#md3d574b91c" x="115.365" y="488.691212" style="stroke: #000000; stroke-width: 2"/>
      </g>
     </g>
     <g id="line2d_21">
      <defs>
       <path id="me413b80252" d="M 0 0 
L -10 0 
" style="stroke: #000000; stroke-width: 2"/>
      </defs>
      <g>
       <use xlink:href="#me413b80252" x="833.191364" y="488.691212" style="stroke: #000000; stroke-width: 2"/>
      </g>
     </g>
     <g id="text_8">
      <!-- 0 -->
      <g transform="translate(95.3225 498.56918) scale(0.26 -0.26)">
       <use xlink:href="#DejaVuSerif-30"/>
      </g>
     </g>
    </g>
    <g id="ytick_2">
     <g id="line2d_22">
      <path d="M 115.365 430.426171 
L 833.191364 430.426171 
" clip-path="url(#p8497dbb72c)" style="fill: none; stroke-dasharray: 3.7,1.6; stroke-dashoffset: 0; stroke: #b0b0b0; stroke-opacity: 0.5"/>
     </g>
     <g id="line2d_23">
      <g>
       <use xlink:href="#md3d574b91c" x="115.365" y="430.426171" style="stroke: #000000; stroke-width: 2"/>
      </g>
     </g>
     <g id="line2d_24">
      <g>
       <use xlink:href="#me413b80252" x="833.191364" y="430.426171" style="stroke: #000000; stroke-width: 2"/>
      </g>
     </g>
     <g id="text_9">
      <!-- 5 -->
      <g transform="translate(95.3225 440.30414) scale(0.26 -0.26)">
       <use xlink:href="#DejaVuSerif-35"/>
      </g>
     </g>
    </g>
    <g id="ytick_3">
     <g id="line2d_25">
      <path d="M 115.365 372.16113 
L 833.191364 372.16113 
" clip-path="url(#p8497dbb72c)" style="fill: none; stroke-dasharray: 3.7,1.6; stroke-dashoffset: 0; stroke: #b0b0b0; stroke-opacity: 0.5"/>
     </g>
     <g id="line2d_26">
      <g>
       <use xlink:href="#md3d574b91c" x="115.365" y="372.16113" style="stroke: #000000; stroke-width: 2"/>
      </g>
     </g>
     <g id="line2d_27">
      <g>
       <use xlink:href="#me413b80252" x="833.191364" y="372.16113" style="stroke: #000000; stroke-width: 2"/>
      </g>
     </g>
     <g id="text_10">
      <!-- 10 -->
      <g transform="translate(78.78 382.039099) scale(0.26 -0.26)">
       <use xlink:href="#DejaVuSerif-31"/>
       <use xlink:href="#DejaVuSerif-30" x="63.623047"/>
      </g>
     </g>
    </g>
    <g id="ytick_4">
     <g id="line2d_28">
      <path d="M 115.365 313.89609 
L 833.191364 313.89609 
" clip-path="url(#p8497dbb72c)" style="fill: none; stroke-dasharray: 3.7,1.6; stroke-dashoffset: 0; stroke: #b0b0b0; stroke-opacity: 0.5"/>
     </g>
     <g id="line2d_29">
      <g>
       <use xlink:href="#md3d574b91c" x="115.365" y="313.89609" style="stroke: #000000; stroke-width: 2"/>
      </g>
     </g>
     <g id="line2d_30">
      <g>
       <use xlink:href="#me413b80252" x="833.191364" y="313.89609" style="stroke: #000000; stroke-width: 2"/>
      </g>
     </g>
     <g id="text_11">
      <!-- 15 -->
      <g transform="translate(78.78 323.774058) scale(0.26 -0.26)">
       <use xlink:href="#DejaVuSerif-31"/>
       <use xlink:href="#DejaVuSerif-35" x="63.623047"/>
      </g>
     </g>
    </g>
    <g id="ytick_5">
     <g id="line2d_31">
      <path d="M 115.365 255.631049 
L 833.191364 255.631049 
" clip-path="url(#p8497dbb72c)" style="fill: none; stroke-dasharray: 3.7,1.6; stroke-dashoffset: 0; stroke: #b0b0b0; stroke-opacity: 0.5"/>
     </g>
     <g id="line2d_32">
      <g>
       <use xlink:href="#md3d574b91c" x="115.365" y="255.631049" style="stroke: #000000; stroke-width: 2"/>
      </g>
     </g>
     <g id="line2d_33">
      <g>
       <use xlink:href="#me413b80252" x="833.191364" y="255.631049" style="stroke: #000000; stroke-width: 2"/>
      </g>
     </g>
     <g id="text_12">
      <!-- 20 -->
      <g transform="translate(78.78 265.509018) scale(0.26 -0.26)">
       <use xlink:href="#DejaVuSerif-32"/>
       <use xlink:href="#DejaVuSerif-30" x="63.623047"/>
      </g>
     </g>
    </g>
    <g id="ytick_6">
     <g id="line2d_34">
      <path d="M 115.365 197.366008 
L 833.191364 197.366008 
" clip-path="url(#p8497dbb72c)" style="fill: none; stroke-dasharray: 3.7,1.6; stroke-dashoffset: 0; stroke: #b0b0b0; stroke-opacity: 0.5"/>
     </g>
     <g id="line2d_35">
      <g>
       <use xlink:href="#md3d574b91c" x="115.365" y="197.366008" style="stroke: #000000; stroke-width: 2"/>
      </g>
     </g>
     <g id="line2d_36">
      <g>
       <use xlink:href="#me413b80252" x="833.191364" y="197.366008" style="stroke: #000000; stroke-width: 2"/>
      </g>
     </g>
     <g id="text_13">
      <!-- 25 -->
      <g transform="translate(78.78 207.243977) scale(0.26 -0.26)">
       <use xlink:href="#DejaVuSerif-32"/>
       <use xlink:href="#DejaVuSerif-35" x="63.623047"/>
      </g>
     </g>
    </g>
    <g id="ytick_7">
     <g id="line2d_37">
      <path d="M 115.365 139.100968 
L 833.191364 139.100968 
" clip-path="url(#p8497dbb72c)" style="fill: none; stroke-dasharray: 3.7,1.6; stroke-dashoffset: 0; stroke: #b0b0b0; stroke-opacity: 0.5"/>
     </g>
     <g id="line2d_38">
      <g>
       <use xlink:href="#md3d574b91c" x="115.365" y="139.100968" style="stroke: #000000; stroke-width: 2"/>
      </g>
     </g>
     <g id="line2d_39">
      <g>
       <use xlink:href="#me413b80252" x="833.191364" y="139.100968" style="stroke: #000000; stroke-width: 2"/>
      </g>
     </g>
     <g id="text_14">
      <!-- 30 -->
      <g transform="translate(78.78 148.978937) scale(0.26 -0.26)">
       <defs>
        <path id="DejaVuSerif-33" d="M 622 4469 
Q 988 4606 1323 4678 
Q 1659 4750 1953 4750 
Q 2638 4750 3022 4454 
Q 3406 4159 3406 3634 
Q 3406 3213 3140 2930 
Q 2875 2647 2388 2547 
Q 2963 2466 3280 2130 
Q 3597 1794 3597 1259 
Q 3597 606 3158 257 
Q 2719 -91 1894 -91 
Q 1528 -91 1179 -12 
Q 831 66 488 225 
L 488 1131 
L 838 1131 
Q 869 681 1141 450 
Q 1413 219 1906 219 
Q 2384 219 2661 495 
Q 2938 772 2938 1253 
Q 2938 1803 2653 2086 
Q 2369 2369 1819 2369 
L 1522 2369 
L 1522 2688 
L 1678 2688 
Q 2225 2688 2498 2914 
Q 2772 3141 2772 3597 
Q 2772 4006 2547 4223 
Q 2322 4441 1900 4441 
Q 1478 4441 1245 4241 
Q 1013 4041 972 3647 
L 622 3647 
L 622 4469 
z
" transform="scale(0.015625)"/>
       </defs>
       <use xlink:href="#DejaVuSerif-33"/>
       <use xlink:href="#DejaVuSerif-30" x="63.623047"/>
      </g>
     </g>
    </g>
    <g id="ytick_8">
     <g id="line2d_40">
      <path d="M 115.365 80.835927 
L 833.191364 80.835927 
" clip-path="url(#p8497dbb72c)" style="fill: none; stroke-dasharray: 3.7,1.6; stroke-dashoffset: 0; stroke: #b0b0b0; stroke-opacity: 0.5"/>
     </g>
     <g id="line2d_41">
      <g>
       <use xlink:href="#md3d574b91c" x="115.365" y="80.835927" style="stroke: #000000; stroke-width: 2"/>
      </g>
     </g>
     <g id="line2d_42">
      <g>
       <use xlink:href="#me413b80252" x="833.191364" y="80.835927" style="stroke: #000000; stroke-width: 2"/>
      </g>
     </g>
     <g id="text_15">
      <!-- 35 -->
      <g transform="translate(78.78 90.713896) scale(0.26 -0.26)">
       <use xlink:href="#DejaVuSerif-33"/>
       <use xlink:href="#DejaVuSerif-35" x="63.623047"/>
      </g>
     </g>
    </g>
    <g id="text_16">
     <!-- Particle energy (a.u.) -->
     <g transform="translate(69.003125 397.733906) rotate(-90) scale(0.26 -0.26)">
      <defs>
       <path id="DejaVuSerif-50" d="M 1581 2375 
L 2406 2375 
Q 2872 2375 3115 2626 
Q 3359 2878 3359 3353 
Q 3359 3831 3115 4081 
Q 2872 4331 2406 4331 
L 1581 4331 
L 1581 2375 
z
M 353 0 
L 353 331 
L 947 331 
L 947 4331 
L 353 4331 
L 353 4666 
L 2559 4666 
Q 3259 4666 3668 4311 
Q 4078 3956 4078 3353 
Q 4078 2753 3668 2397 
Q 3259 2041 2559 2041 
L 1581 2041 
L 1581 331 
L 2303 331 
L 2303 0 
L 353 0 
z
" transform="scale(0.015625)"/>
       <path id="DejaVuSerif-72" d="M 3059 3328 
L 3059 2497 
L 2728 2497 
Q 2713 2744 2591 2866 
Q 2469 2988 2234 2988 
Q 1809 2988 1582 2694 
Q 1356 2400 1356 1850 
L 1356 331 
L 2022 331 
L 2022 0 
L 263 0 
L 263 331 
L 781 331 
L 781 2994 
L 231 2994 
L 231 3322 
L 1356 3322 
L 1356 2731 
Q 1525 3078 1790 3245 
Q 2056 3413 2438 3413 
Q 2578 3413 2733 3391 
Q 2888 3369 3059 3328 
z
" transform="scale(0.015625)"/>
       <path id="DejaVuSerif-74" d="M 691 2988 
L 184 2988 
L 184 3322 
L 691 3322 
L 691 4353 
L 1269 4353 
L 1269 3322 
L 2350 3322 
L 2350 2988 
L 1269 2988 
L 1269 878 
Q 1269 456 1350 337 
Q 1431 219 1650 219 
Q 1875 219 1978 351 
Q 2081 484 2088 781 
L 2522 781 
Q 2497 328 2275 118 
Q 2053 -91 1600 -91 
Q 1103 -91 897 129 
Q 691 350 691 878 
L 691 2988 
z
" transform="scale(0.015625)"/>
       <path id="DejaVuSerif-69" d="M 622 4353 
Q 622 4497 726 4603 
Q 831 4709 978 4709 
Q 1122 4709 1226 4603 
Q 1331 4497 1331 4353 
Q 1331 4206 1228 4103 
Q 1125 4000 978 4000 
Q 831 4000 726 4103 
Q 622 4206 622 4353 
z
M 1356 331 
L 1900 331 
L 1900 0 
L 231 0 
L 231 331 
L 781 331 
L 781 2988 
L 231 2988 
L 231 3322 
L 1356 3322 
L 1356 331 
z
" transform="scale(0.015625)"/>
       <path id="DejaVuSerif-63" d="M 3291 997 
Q 3169 466 2822 187 
Q 2475 -91 1925 -91 
Q 1200 -91 759 389 
Q 319 869 319 1663 
Q 319 2459 759 2936 
Q 1200 3413 1925 3413 
Q 2241 3413 2553 3339 
Q 2866 3266 3181 3116 
L 3181 2266 
L 2847 2266 
Q 2781 2703 2561 2903 
Q 2341 3103 1931 3103 
Q 1466 3103 1228 2742 
Q 991 2381 991 1663 
Q 991 944 1227 581 
Q 1463 219 1931 219 
Q 2303 219 2525 412 
Q 2747 606 2828 997 
L 3291 997 
z
" transform="scale(0.015625)"/>
       <path id="DejaVuSerif-6c" d="M 1313 331 
L 1856 331 
L 1856 0 
L 184 0 
L 184 331 
L 738 331 
L 738 4531 
L 184 4531 
L 184 4863 
L 1313 4863 
L 1313 331 
z
" transform="scale(0.015625)"/>
       <path id="DejaVuSerif-65" d="M 3469 1600 
L 991 1600 
L 991 1575 
Q 991 903 1244 561 
Q 1497 219 1991 219 
Q 2369 219 2611 417 
Q 2853 616 2950 1006 
L 3413 1006 
Q 3275 459 2904 184 
Q 2534 -91 1931 -91 
Q 1203 -91 761 389 
Q 319 869 319 1663 
Q 319 2450 753 2931 
Q 1188 3413 1894 3413 
Q 2647 3413 3050 2948 
Q 3453 2484 3469 1600 
z
M 2791 1931 
Q 2772 2513 2545 2808 
Q 2319 3103 1894 3103 
Q 1497 3103 1269 2806 
Q 1041 2509 991 1931 
L 2791 1931 
z
" transform="scale(0.015625)"/>
       <path id="DejaVuSerif-6e" d="M 263 0 
L 263 331 
L 781 331 
L 781 2988 
L 231 2988 
L 231 3322 
L 1356 3322 
L 1356 2731 
Q 1516 3069 1770 3241 
Q 2025 3413 2363 3413 
Q 2913 3413 3172 3097 
Q 3431 2781 3431 2113 
L 3431 331 
L 3944 331 
L 3944 0 
L 2356 0 
L 2356 331 
L 2853 331 
L 2853 1931 
Q 2853 2541 2703 2767 
Q 2553 2994 2175 2994 
Q 1775 2994 1565 2701 
Q 1356 2409 1356 1850 
L 1356 331 
L 1856 331 
L 1856 0 
L 263 0 
z
" transform="scale(0.015625)"/>
       <path id="DejaVuSerif-67" d="M 3359 2988 
L 3359 72 
Q 3359 -644 2965 -1033 
Q 2572 -1422 1844 -1422 
Q 1516 -1422 1216 -1362 
Q 916 -1303 641 -1184 
L 641 -488 
L 941 -488 
Q 997 -813 1206 -963 
Q 1416 -1113 1806 -1113 
Q 2313 -1113 2548 -827 
Q 2784 -541 2784 72 
L 2784 519 
Q 2616 206 2355 57 
Q 2094 -91 1709 -91 
Q 1097 -91 708 395 
Q 319 881 319 1663 
Q 319 2444 706 2928 
Q 1094 3413 1709 3413 
Q 2094 3413 2355 3264 
Q 2616 3116 2784 2803 
L 2784 3322 
L 3909 3322 
L 3909 2988 
L 3359 2988 
z
M 2784 1825 
Q 2784 2422 2554 2737 
Q 2325 3053 1888 3053 
Q 1444 3053 1217 2703 
Q 991 2353 991 1663 
Q 991 975 1217 622 
Q 1444 269 1888 269 
Q 2325 269 2554 583 
Q 2784 897 2784 1497 
L 2784 1825 
z
" transform="scale(0.015625)"/>
       <path id="DejaVuSerif-79" d="M 1381 -609 
L 1600 -56 
L 359 2988 
L -19 2988 
L -19 3322 
L 1509 3322 
L 1509 2988 
L 978 2988 
L 1913 703 
L 2847 2988 
L 2350 2988 
L 2350 3322 
L 3597 3322 
L 3597 2988 
L 3225 2988 
L 1703 -750 
Q 1547 -1138 1356 -1280 
Q 1166 -1422 819 -1422 
Q 672 -1422 517 -1397 
Q 363 -1372 206 -1325 
L 206 -691 
L 500 -691 
Q 519 -903 608 -995 
Q 697 -1088 884 -1088 
Q 1056 -1088 1161 -992 
Q 1266 -897 1381 -609 
z
" transform="scale(0.015625)"/>
      </defs>
      <use xlink:href="#DejaVuSerif-50"/>
      <use xlink:href="#DejaVuSerif-61" x="62.785156"/>
      <use xlink:href="#DejaVuSerif-72" x="122.404297"/>
      <use xlink:href="#DejaVuSerif-74" x="170.207031"/>
      <use xlink:href="#DejaVuSerif-69" x="210.392578"/>
      <use xlink:href="#DejaVuSerif-63" x="242.375"/>
      <use xlink:href="#DejaVuSerif-6c" x="298.380859"/>
      <use xlink:href="#DejaVuSerif-65" x="330.363281"/>
      <use xlink:href="#DejaVuSerif-20" x="389.542969"/>
      <use xlink:href="#DejaVuSerif-65" x="421.330078"/>
      <use xlink:href="#DejaVuSerif-6e" x="480.509766"/>
      <use xlink:href="#DejaVuSerif-65" x="544.914062"/>
      <use xlink:href="#DejaVuSerif-72" x="604.09375"/>
      <use xlink:href="#DejaVuSerif-67" x="651.896484"/>
      <use xlink:href="#DejaVuSerif-79" x="715.910156"/>
      <use xlink:href="#DejaVuSerif-20" x="772.404297"/>
      <use xlink:href="#DejaVuSerif-28" x="804.191406"/>
      <use xlink:href="#DejaVuSerif-61" x="843.205078"/>
      <use xlink:href="#DejaVuSerif-2e" x="902.824219"/>
      <use xlink:href="#DejaVuSerif-75" x="934.611328"/>
      <use xlink:href="#DejaVuSerif-2e" x="999.015625"/>
      <use xlink:href="#DejaVuSerif-29" x="1030.802734"/>
     </g>
    </g>
   </g>
   <g id="line2d_43">
    <path d="M 147.99823 577 
L 148.646694 71.3395 
L 149.299916 70.65191 
L 150.606362 70.301994 
L 153.219252 70.127564 
L 160.404701 70.026485 
L 188.493275 69.975157 
L 423.653427 69.95569 
L 800.562893 69.953747 
L 800.562893 69.953747 
" clip-path="url(#p8497dbb72c)" style="fill: none; stroke: #1f77b4; stroke-width: 3; stroke-linecap: square"/>
   </g>
   <g id="line2d_44">
    <path d="M 147.999906 577 
L 148.646694 206.723684 
L 149.299916 205.980535 
L 149.953139 205.730499 
L 151.259584 205.528296 
L 154.525698 205.378095 
L 163.670815 205.290202 
L 204.170618 205.244792 
L 613.087994 205.229075 
L 800.562893 205.228439 
L 800.562893 205.228439 
" clip-path="url(#p8497dbb72c)" style="fill: none; stroke: #ff7f0e; stroke-width: 3; stroke-linecap: square"/>
   </g>
   <g id="line2d_45">
    <path d="M 147.993471 530.27543 
L 149.299916 506.318587 
L 149.953139 526.684633 
L 150.606362 536.140525 
L 151.259584 547.948116 
L 151.912807 545.803059 
L 152.56603 546.055499 
L 153.219252 546.103884 
L 155.17892 545.796087 
L 156.485365 545.964711 
L 157.791811 545.762517 
L 159.098256 511.005891 
L 159.751479 533.919575 
L 160.404701 518.245471 
L 161.057924 517.503007 
L 161.711147 496.10504 
L 162.364369 492.724088 
L 163.017592 492.045819 
L 163.670815 491.733874 
L 164.97726 491.434072 
L 167.59015 491.192059 
L 171.509486 491.082851 
L 176.082045 491.146204 
L 179.348158 491.38651 
L 181.307826 491.778265 
L 181.961049 492.020571 
L 182.614271 492.383867 
L 183.920717 493.53212 
L 184.573939 493.582082 
L 185.227162 493.053579 
L 185.880384 492.698873 
L 186.533607 492.951206 
L 187.18683 494.578712 
L 187.840052 495.199675 
L 188.493275 492.93592 
L 189.146498 492.001447 
L 189.79972 491.547769 
L 191.106166 491.10395 
L 193.065834 490.811353 
L 196.331947 490.618531 
L 202.864173 490.511177 
L 211.356068 490.584447 
L 216.581849 490.827011 
L 218.541517 491.078713 
L 219.847962 491.443087 
L 220.501185 491.808576 
L 221.154407 492.579396 
L 221.80763 495.42511 
L 222.460853 530.999831 
L 223.114075 509.246485 
L 223.767298 495.936508 
L 224.42052 494.998754 
L 225.073743 494.707153 
L 225.726966 494.609262 
L 226.380188 494.645548 
L 227.033411 494.80696 
L 227.686634 495.275824 
L 228.339856 496.70101 
L 228.993079 538.424096 
L 229.646302 535.218396 
L 230.299524 534.873355 
L 230.952747 535.243888 
L 231.60597 526.777671 
L 232.259192 526.222856 
L 232.912415 505.350029 
L 233.565637 532.924934 
L 234.21886 533.078082 
L 234.872083 532.27468 
L 236.178528 531.781332 
L 236.831751 531.407747 
L 237.484973 532.26909 
L 238.138196 535.354998 
L 238.791419 536.590269 
L 239.444641 536.852829 
L 240.097864 536.943799 
L 242.710754 539.344483 
L 244.0172 540.323233 
L 245.323645 541.034675 
L 246.63009 541.69661 
L 249.896204 542.884919 
L 252.509094 543.568062 
L 257.081653 544.385172 
L 261.654211 544.979429 
L 268.186438 545.531329 
L 276.025109 545.978435 
L 288.43634 546.456499 
L 302.807238 546.806291 
L 326.323253 547.162722 
L 366.823057 547.542621 
L 439.983993 547.958259 
L 569.322077 548.422405 
L 637.257232 548.624008 
L 800.562893 549.021261 
L 800.562893 549.021261 
" clip-path="url(#p8497dbb72c)" style="fill: none; stroke: #2ca02c; stroke-width: 3; stroke-linecap: square"/>
   </g>
   <g id="line2d_46">
    <path d="M 147.993471 530.286725 
L 148.646694 529.488894 
L 149.299916 536.721345 
L 149.953139 539.225281 
L 150.606362 511.310807 
L 151.259584 506.043911 
L 151.912807 495.373557 
L 152.56603 494.446189 
L 153.219252 494.087548 
L 154.525698 493.848315 
L 155.832143 493.922003 
L 156.485365 494.10443 
L 157.138588 494.512061 
L 157.791811 495.686318 
L 158.445033 522.634412 
L 159.098256 531.910508 
L 159.751479 511.766808 
L 160.404701 527.59488 
L 161.057924 527.889363 
L 161.711147 547.872088 
L 162.364369 547.582855 
L 163.670815 547.738149 
L 164.97726 547.607017 
L 168.896596 547.648602 
L 172.162709 547.541511 
L 173.469154 547.566906 
L 174.775599 547.521235 
L 177.38849 547.492026 
L 179.348158 547.442242 
L 182.614271 547.331817 
L 183.920717 547.048992 
L 184.573939 547.604652 
L 187.840052 546.852534 
L 188.493275 547.259686 
L 189.146498 547.318166 
L 189.79972 547.165738 
L 209.3964 546.238112 
L 220.501185 545.007183 
L 221.154407 544.803206 
L 221.80763 544.161994 
L 222.460853 509.649029 
L 223.114075 548.411997 
L 223.767298 541.263481 
L 224.42052 541.024672 
L 225.073743 541.172221 
L 225.726966 540.711906 
L 227.033411 540.430917 
L 227.686634 539.879762 
L 228.339856 540.035098 
L 228.993079 549.898986 
L 229.646302 500.326961 
L 230.299524 499.67014 
L 230.952747 501.459451 
L 231.60597 507.680615 
L 232.259192 510.188085 
L 232.912415 529.932872 
L 233.565637 499.860125 
L 234.21886 496.609694 
L 234.872083 496.071527 
L 235.525305 496.013861 
L 236.178528 496.238268 
L 236.831751 496.974366 
L 237.484973 502.144961 
L 238.138196 493.792451 
L 238.791419 490.619238 
L 239.444641 489.825357 
L 240.751087 489.24596 
L 242.710754 488.898377 
L 245.976868 488.658737 
L 252.509094 488.474075 
L 267.533215 488.335329 
L 309.339464 488.237758 
L 466.766121 488.177572 
L 800.562893 488.157808 
L 800.562893 488.157808 
" clip-path="url(#p8497dbb72c)" style="fill: none; stroke: #d62728; stroke-width: 3; stroke-linecap: square"/>
   </g>
   <g id="line2d_47">
    <path d="M 147.993471 482.18935 
L 148.646694 483.729005 
L 149.953139 484.006191 
L 150.606362 484.338486 
L 151.912807 484.316031 
L 157.791811 484.454017 
L 158.445033 484.328994 
L 159.098256 484.491841 
L 159.751479 484.516314 
L 160.404701 484.314282 
L 161.057924 484.352163 
L 161.711147 484.258374 
L 162.364369 484.047183 
L 163.017592 484.056207 
L 164.97726 484.493265 
L 170.203041 484.870179 
L 173.469154 484.9555 
L 174.122377 484.993631 
L 174.775599 484.903058 
L 176.082045 485.010442 
L 176.735267 484.900138 
L 180.001381 484.956691 
L 181.307826 484.781143 
L 181.961049 484.846079 
L 183.267494 484.582017 
L 183.920717 484.449941 
L 184.573939 484.059512 
L 185.227162 482.997691 
L 185.880384 481.435804 
L 186.533607 482.131928 
L 187.18683 483.832377 
L 187.840052 484.546517 
L 188.493275 484.808722 
L 189.79972 484.778749 
L 190.452943 484.98199 
L 191.759388 484.937994 
L 193.065834 485.16614 
L 197.638392 485.132057 
L 198.291615 485.254051 
L 198.944837 485.05468 
L 199.59806 485.09149 
L 200.251283 485.262727 
L 200.904505 485.066084 
L 201.557728 485.049464 
L 202.210951 485.259344 
L 203.517396 484.993175 
L 204.170618 485.242117 
L 205.477064 484.923862 
L 206.130286 485.208843 
L 207.436732 484.849206 
L 208.089954 485.154698 
L 209.3964 484.784818 
L 210.049622 485.059858 
L 211.356068 484.917483 
L 212.00929 484.773899 
L 213.968958 484.900202 
L 214.622181 484.397351 
L 215.275403 484.466969 
L 215.928626 484.774038 
L 216.581849 484.215174 
L 217.235071 484.12866 
L 217.888294 484.553302 
L 218.541517 483.954308 
L 219.194739 483.575123 
L 219.847962 484.013454 
L 220.501185 483.329055 
L 221.154407 482.466849 
L 221.80763 481.207486 
L 222.460853 480.986304 
L 223.114075 480.093424 
L 224.42052 482.657993 
L 225.073743 483.434461 
L 225.726966 482.695997 
L 226.380188 483.742612 
L 227.033411 482.996326 
L 227.686634 482.45376 
L 228.339856 482.55462 
L 228.993079 475.774046 
L 229.646302 482.649404 
L 230.299524 482.373737 
L 230.952747 478.413585 
L 231.60597 477.685294 
L 232.259192 474.405489 
L 232.912415 474.532853 
L 233.565637 478.286774 
L 234.21886 483.739263 
L 234.872083 480.592238 
L 236.178528 484.939285 
L 236.831751 479.851151 
L 237.484973 479.290231 
L 238.138196 480.487743 
L 238.791419 484.389744 
L 239.444641 485.734584 
L 240.097864 487.584437 
L 240.751087 486.63796 
L 241.404309 483.16744 
L 242.057532 482.689746 
L 242.710754 487.265806 
L 244.0172 483.714097 
L 244.670422 485.530738 
L 245.323645 484.520343 
L 246.63009 487.365461 
L 247.283313 487.073049 
L 247.936536 487.74684 
L 248.589758 487.437199 
L 249.242981 486.622363 
L 249.896204 486.44578 
L 250.549426 487.47655 
L 251.202649 487.611839 
L 251.855871 487.051253 
L 252.509094 486.948257 
L 253.162317 487.675498 
L 254.468762 487.903433 
L 255.121985 487.839981 
L 255.775207 487.51846 
L 256.42843 487.485174 
L 257.734875 487.982886 
L 258.388098 487.585208 
L 259.041321 487.642292 
L 259.694543 488.021286 
L 260.347766 488.016209 
L 261.000989 487.685288 
L 261.654211 487.863909 
L 262.307434 488.16213 
L 263.613879 487.826351 
L 264.267102 488.081506 
L 264.920324 488.186024 
L 266.22677 487.981449 
L 266.879992 488.223268 
L 268.83966 488.127508 
L 269.492883 488.289975 
L 271.452551 488.277931 
L 276.678332 488.413677 
L 277.331555 488.309658 
L 279.291223 488.404365 
L 279.944445 488.346762 
L 281.25089 488.514787 
L 281.904113 488.396265 
L 283.210558 488.506567 
L 283.863781 488.524458 
L 284.517004 488.409109 
L 286.476672 488.505201 
L 287.129894 488.440776 
L 288.43634 488.599139 
L 289.742785 488.487615 
L 290.396007 488.599145 
L 296.928234 488.565507 
L 297.581457 488.668823 
L 299.541125 488.617267 
L 300.194347 488.695041 
L 301.500792 488.600958 
L 302.807238 488.696495 
L 304.113683 488.632465 
L 304.766906 488.720241 
L 306.726574 488.675496 
L 308.033019 488.69457 
L 309.339464 488.725407 
L 313.2588 488.722971 
L 317.178136 488.800309 
L 326.323253 488.805139 
L 328.936143 488.794934 
L 334.815147 488.825644 
L 336.121593 488.81881 
L 342.000596 488.854775 
L 344.613487 488.880301 
L 351.145713 488.867423 
L 352.452159 488.878104 
L 355.718272 488.875219 
L 357.024717 488.896181 
L 360.29083 488.883909 
L 361.597276 488.912225 
L 364.210166 488.901974 
L 370.08917 488.935256 
L 392.29874 488.964601 
L 400.790634 489.005379 
L 466.112899 489.048107 
L 480.483797 489.063691 
L 485.709578 489.084882 
L 503.346589 489.077503 
L 510.532039 489.087703 
L 526.209382 489.10212 
L 531.435163 489.0876 
L 543.846393 489.101147 
L 555.604401 489.108599 
L 563.443073 489.115901 
L 581.080084 489.116359 
L 593.491314 489.123543 
L 608.515435 489.123046 
L 624.192779 489.140358 
L 633.337896 489.135802 
L 645.095903 489.151518 
L 654.24102 489.142705 
L 664.03936 489.150087 
L 675.144145 489.147503 
L 683.636039 489.156546 
L 695.394047 489.157156 
L 800.562893 489.178807 
L 800.562893 489.178807 
" clip-path="url(#p8497dbb72c)" style="fill: none; stroke: #000000; stroke-width: 3; stroke-linecap: square"/>
   </g>
   <g id="patch_3">
    <path d="M 115.365 489.2325 
L 115.365 28.08 
" style="fill: none; stroke: #000000; stroke-width: 2; stroke-linejoin: miter; stroke-linecap: square"/>
   </g>
   <g id="patch_4">
    <path d="M 833.191364 489.2325 
L 833.191364 28.08 
" style="fill: none; stroke: #000000; stroke-width: 2; stroke-linejoin: miter; stroke-linecap: square"/>
   </g>
   <g id="patch_5">
    <path d="M 115.365 489.2325 
L 833.191364 489.2325 
" style="fill: none; stroke: #000000; stroke-width: 2; stroke-linejoin: miter; stroke-linecap: square"/>
   </g>
   <g id="patch_6">
    <path d="M 115.365 28.08 
L 833.191364 28.08 
" style="fill: none; stroke: #000000; stroke-width: 2; stroke-linejoin: miter; stroke-linecap: square"/>
   </g>
   <g id="legend_1">
    <g id="patch_7">
     <path d="M 683.493864 481.2325 
L 821.991364 481.2325 
Q 825.191364 481.2325 825.191364 478.0325 
L 825.191364 362.2075 
Q 825.191364 359.0075 821.991364 359.0075 
L 683.493864 359.0075 
Q 680.293864 359.0075 680.293864 362.2075 
L 680.293864 478.0325 
Q 680.293864 481.2325 683.493864 481.2325 
z
" style="fill: #ffffff; opacity: 0.8; stroke: #cccccc; stroke-linejoin: miter"/>
    </g>
    <g id="line2d_48">
     <path d="M 686.693864 371.965 
L 702.693864 371.965 
L 718.693864 371.965 
" style="fill: none; stroke: #1f77b4; stroke-width: 3; stroke-linecap: square"/>
    </g>
    <g id="text_17">
     <!-- Electron 1 -->
     <g transform="translate(731.493864 377.565) scale(0.16 -0.16)">
      <defs>
       <path id="DejaVuSerif-45" d="M 353 0 
L 353 331 
L 947 331 
L 947 4331 
L 353 4331 
L 353 4666 
L 4109 4666 
L 4109 3628 
L 3725 3628 
L 3725 4281 
L 1581 4281 
L 1581 2719 
L 3109 2719 
L 3109 3303 
L 3494 3303 
L 3494 1753 
L 3109 1753 
L 3109 2338 
L 1581 2338 
L 1581 384 
L 3775 384 
L 3775 1038 
L 4159 1038 
L 4159 0 
L 353 0 
z
" transform="scale(0.015625)"/>
       <path id="DejaVuSerif-6f" d="M 1925 219 
Q 2388 219 2623 584 
Q 2859 950 2859 1663 
Q 2859 2375 2623 2739 
Q 2388 3103 1925 3103 
Q 1463 3103 1227 2739 
Q 991 2375 991 1663 
Q 991 950 1228 584 
Q 1466 219 1925 219 
z
M 1925 -91 
Q 1200 -91 759 389 
Q 319 869 319 1663 
Q 319 2456 758 2934 
Q 1197 3413 1925 3413 
Q 2653 3413 3092 2934 
Q 3531 2456 3531 1663 
Q 3531 869 3092 389 
Q 2653 -91 1925 -91 
z
" transform="scale(0.015625)"/>
      </defs>
      <use xlink:href="#DejaVuSerif-45"/>
      <use xlink:href="#DejaVuSerif-6c" x="72.998047"/>
      <use xlink:href="#DejaVuSerif-65" x="104.980469"/>
      <use xlink:href="#DejaVuSerif-63" x="164.160156"/>
      <use xlink:href="#DejaVuSerif-74" x="220.166016"/>
      <use xlink:href="#DejaVuSerif-72" x="260.351562"/>
      <use xlink:href="#DejaVuSerif-6f" x="308.154297"/>
      <use xlink:href="#DejaVuSerif-6e" x="368.359375"/>
      <use xlink:href="#DejaVuSerif-20" x="432.763672"/>
      <use xlink:href="#DejaVuSerif-31" x="464.550781"/>
     </g>
    </g>
    <g id="line2d_49">
     <path d="M 686.693864 395.45 
L 702.693864 395.45 
L 718.693864 395.45 
" style="fill: none; stroke: #ff7f0e; stroke-width: 3; stroke-linecap: square"/>
    </g>
    <g id="text_18">
     <!-- Electron 2 -->
     <g transform="translate(731.493864 401.05) scale(0.16 -0.16)">
      <use xlink:href="#DejaVuSerif-45"/>
      <use xlink:href="#DejaVuSerif-6c" x="72.998047"/>
      <use xlink:href="#DejaVuSerif-65" x="104.980469"/>
      <use xlink:href="#DejaVuSerif-63" x="164.160156"/>
      <use xlink:href="#DejaVuSerif-74" x="220.166016"/>
      <use xlink:href="#DejaVuSerif-72" x="260.351562"/>
      <use xlink:href="#DejaVuSerif-6f" x="308.154297"/>
      <use xlink:href="#DejaVuSerif-6e" x="368.359375"/>
      <use xlink:href="#DejaVuSerif-20" x="432.763672"/>
      <use xlink:href="#DejaVuSerif-32" x="464.550781"/>
     </g>
    </g>
    <g id="line2d_50">
     <path d="M 686.693864 418.935 
L 702.693864 418.935 
L 718.693864 418.935 
" style="fill: none; stroke: #2ca02c; stroke-width: 3; stroke-linecap: square"/>
    </g>
    <g id="text_19">
     <!-- Electron 3 -->
     <g transform="translate(731.493864 424.535) scale(0.16 -0.16)">
      <use xlink:href="#DejaVuSerif-45"/>
      <use xlink:href="#DejaVuSerif-6c" x="72.998047"/>
      <use xlink:href="#DejaVuSerif-65" x="104.980469"/>
      <use xlink:href="#DejaVuSerif-63" x="164.160156"/>
      <use xlink:href="#DejaVuSerif-74" x="220.166016"/>
      <use xlink:href="#DejaVuSerif-72" x="260.351562"/>
      <use xlink:href="#DejaVuSerif-6f" x="308.154297"/>
      <use xlink:href="#DejaVuSerif-6e" x="368.359375"/>
      <use xlink:href="#DejaVuSerif-20" x="432.763672"/>
      <use xlink:href="#DejaVuSerif-33" x="464.550781"/>
     </g>
    </g>
    <g id="line2d_51">
     <path d="M 686.693864 442.42 
L 702.693864 442.42 
L 718.693864 442.42 
" style="fill: none; stroke: #d62728; stroke-width: 3; stroke-linecap: square"/>
    </g>
    <g id="text_20">
     <!-- Electron 4 -->
     <g transform="translate(731.493864 448.02) scale(0.16 -0.16)">
      <defs>
       <path id="DejaVuSerif-34" d="M 2234 1581 
L 2234 4063 
L 641 1581 
L 2234 1581 
z
M 3609 0 
L 1484 0 
L 1484 331 
L 2234 331 
L 2234 1247 
L 197 1247 
L 197 1588 
L 2241 4750 
L 2859 4750 
L 2859 1581 
L 3750 1581 
L 3750 1247 
L 2859 1247 
L 2859 331 
L 3609 331 
L 3609 0 
z
" transform="scale(0.015625)"/>
      </defs>
      <use xlink:href="#DejaVuSerif-45"/>
      <use xlink:href="#DejaVuSerif-6c" x="72.998047"/>
      <use xlink:href="#DejaVuSerif-65" x="104.980469"/>
      <use xlink:href="#DejaVuSerif-63" x="164.160156"/>
      <use xlink:href="#DejaVuSerif-74" x="220.166016"/>
      <use xlink:href="#DejaVuSerif-72" x="260.351562"/>
      <use xlink:href="#DejaVuSerif-6f" x="308.154297"/>
      <use xlink:href="#DejaVuSerif-6e" x="368.359375"/>
      <use xlink:href="#DejaVuSerif-20" x="432.763672"/>
      <use xlink:href="#DejaVuSerif-34" x="464.550781"/>
     </g>
    </g>
    <g id="line2d_52">
     <path d="M 686.693864 465.905 
L 702.693864 465.905 
L 718.693864 465.905 
" style="fill: none; stroke: #000000; stroke-width: 3; stroke-linecap: square"/>
    </g>
    <g id="text_21">
     <!-- Antiproton -->
     <g transform="translate(731.493864 471.505) scale(0.16 -0.16)">
      <defs>
       <path id="DejaVuSerif-41" d="M 1281 1691 
L 2994 1691 
L 2138 3909 
L 1281 1691 
z
M -38 0 
L -38 331 
L 372 331 
L 2034 4666 
L 2559 4666 
L 4225 331 
L 4684 331 
L 4684 0 
L 2988 0 
L 2988 331 
L 3506 331 
L 3116 1356 
L 1153 1356 
L 763 331 
L 1275 331 
L 1275 0 
L -38 0 
z
" transform="scale(0.015625)"/>
       <path id="DejaVuSerif-70" d="M 1313 1825 
L 1313 1497 
Q 1313 897 1542 583 
Q 1772 269 2209 269 
Q 2650 269 2876 622 
Q 3103 975 3103 1663 
Q 3103 2353 2876 2703 
Q 2650 3053 2209 3053 
Q 1772 3053 1542 2737 
Q 1313 2422 1313 1825 
z
M 738 2988 
L 184 2988 
L 184 3322 
L 1313 3322 
L 1313 2803 
Q 1481 3116 1742 3264 
Q 2003 3413 2388 3413 
Q 3000 3413 3387 2928 
Q 3775 2444 3775 1663 
Q 3775 881 3387 395 
Q 3000 -91 2388 -91 
Q 2003 -91 1742 57 
Q 1481 206 1313 519 
L 1313 -997 
L 1856 -997 
L 1856 -1331 
L 184 -1331 
L 184 -997 
L 738 -997 
L 738 2988 
z
" transform="scale(0.015625)"/>
      </defs>
      <use xlink:href="#DejaVuSerif-41"/>
      <use xlink:href="#DejaVuSerif-6e" x="72.216797"/>
      <use xlink:href="#DejaVuSerif-74" x="136.621094"/>
      <use xlink:href="#DejaVuSerif-69" x="176.806641"/>
      <use xlink:href="#DejaVuSerif-70" x="208.789062"/>
      <use xlink:href="#DejaVuSerif-72" x="272.802734"/>
      <use xlink:href="#DejaVuSerif-6f" x="320.605469"/>
      <use xlink:href="#DejaVuSerif-74" x="380.810547"/>
      <use xlink:href="#DejaVuSerif-6f" x="420.996094"/>
      <use xlink:href="#DejaVuSerif-6e" x="481.201172"/>
     </g>
    </g>
   </g>
  </g>
 </g>
 <defs>
  <clipPath id="p8497dbb72c">
   <rect x="115.365" y="28.08" width="717.826364" height="461.1525"/>
  </clipPath>
 </defs>
</svg>
