<?xml version="1.0" encoding="utf-8" standalone="no"?>
<!DOCTYPE svg PUBLIC "-//W3C//DTD SVG 1.1//EN"
  "http://www.w3.org/Graphics/SVG/1.1/DTD/svg11.dtd">
<svg xmlns:xlink="http://www.w3.org/1999/xlink" width="864pt" height="576pt" viewBox="0 0 864 576" xmlns="http://www.w3.org/2000/svg" version="1.1">
 <metadata>
  <rdf:RDF xmlns:dc="http://purl.org/dc/elements/1.1/" xmlns:cc="http://creativecommons.org/ns#" xmlns:rdf="http://www.w3.org/1999/02/22-rdf-syntax-ns#">
   <cc:Work>
    <dc:type rdf:resource="http://purl.org/dc/dcmitype/StillImage"/>
    <dc:date>2025-06-12T16:14:41.926365</dc:date>
    <dc:format>image/svg+xml</dc:format>
    <dc:creator>
     <cc:Agent>
      <dc:title>Matplotlib v3.7.2, https://matplotlib.org/</dc:title>
     </cc:Agent>
    </dc:creator>
   </cc:Work>
  </rdf:RDF>
 </metadata>
 <defs>
  <style type="text/css">*{stroke-linejoin: round; stroke-linecap: butt}</style>
 </defs>
 <g id="figure_1">
  <g id="patch_1">
   <path d="M 0 576 
L 864 576 
L 864 0 
L 0 0 
z
" style="fill: #ffffff"/>
  </g>
  <g id="axes_1">
   <g id="patch_2">
    <path d="M 93.675 489.2325 
L 826.97669 489.2325 
L 826.97669 28.08 
L 93.675 28.08 
z
" style="fill: #ffffff"/>
   </g>
   <g id="matplotlib.axis_1">
    <g id="xtick_1">
     <g id="line2d_1">
      <path d="M 120.54129 489.2325 
L 120.54129 28.08 
" clip-path="url(#pdea09c7df2)" style="fill: none; stroke-dasharray: 3.7,1.6; stroke-dashoffset: 0; stroke: #b0b0b0; stroke-opacity: 0.5"/>
     </g>
     <g id="line2d_2">
      <defs>
       <path id="m88d4bfdded" d="M 0 0 
L 0 -10 
" style="stroke: #000000; stroke-width: 2"/>
      </defs>
      <g>
       <use xlink:href="#m88d4bfdded" x="120.54129" y="489.2325" style="stroke: #000000; stroke-width: 2"/>
      </g>
     </g>
     <g id="line2d_3">
      <defs>
       <path id="m7cac4dec71" d="M 0 0 
L 0 10 
" style="stroke: #000000; stroke-width: 2"/>
      </defs>
      <g>
       <use xlink:href="#m7cac4dec71" x="120.54129" y="28.08" style="stroke: #000000; stroke-width: 2"/>
      </g>
     </g>
     <g id="text_1">
      <!-- 0 -->
      <g transform="translate(112.27004 512.488438) scale(0.26 -0.26)">
       <defs>
        <path id="DejaVuSerif-30" d="M 2034 219 
Q 2513 219 2750 744 
Q 2988 1269 2988 2328 
Q 2988 3391 2750 3916 
Q 2513 4441 2034 4441 
Q 1556 4441 1318 3916 
Q 1081 3391 1081 2328 
Q 1081 1269 1318 744 
Q 1556 219 2034 219 
z
M 2034 -91 
Q 1275 -91 848 546 
Q 422 1184 422 2328 
Q 422 3475 848 4112 
Q 1275 4750 2034 4750 
Q 2797 4750 3222 4112 
Q 3647 3475 3647 2328 
Q 3647 1184 3222 546 
Q 2797 -91 2034 -91 
z
" transform="scale(0.015625)"/>
       </defs>
       <use xlink:href="#DejaVuSerif-30"/>
      </g>
     </g>
    </g>
    <g id="xtick_2">
     <g id="line2d_4">
      <path d="M 256.523171 489.2325 
L 256.523171 28.08 
" clip-path="url(#pdea09c7df2)" style="fill: none; stroke-dasharray: 3.7,1.6; stroke-dashoffset: 0; stroke: #b0b0b0; stroke-opacity: 0.5"/>
     </g>
     <g id="line2d_5">
      <g>
       <use xlink:href="#m88d4bfdded" x="256.523171" y="489.2325" style="stroke: #000000; stroke-width: 2"/>
      </g>
     </g>
     <g id="line2d_6">
      <g>
       <use xlink:href="#m7cac4dec71" x="256.523171" y="28.08" style="stroke: #000000; stroke-width: 2"/>
      </g>
     </g>
     <g id="text_2">
      <!-- 500 -->
      <g transform="translate(231.709421 512.488438) scale(0.26 -0.26)">
       <defs>
        <path id="DejaVuSerif-35" d="M 3219 4666 
L 3219 4153 
L 1081 4153 
L 1081 2816 
Q 1244 2928 1461 2984 
Q 1678 3041 1947 3041 
Q 2703 3041 3140 2622 
Q 3578 2203 3578 1478 
Q 3578 738 3136 323 
Q 2694 -91 1894 -91 
Q 1572 -91 1234 -12 
Q 897 66 544 225 
L 544 1131 
L 897 1131 
Q 925 688 1179 453 
Q 1434 219 1894 219 
Q 2388 219 2653 544 
Q 2919 869 2919 1478 
Q 2919 2084 2655 2407 
Q 2391 2731 1894 2731 
Q 1613 2731 1398 2631 
Q 1184 2531 1019 2322 
L 750 2322 
L 750 4666 
L 3219 4666 
z
" transform="scale(0.015625)"/>
       </defs>
       <use xlink:href="#DejaVuSerif-35"/>
       <use xlink:href="#DejaVuSerif-30" x="63.623047"/>
       <use xlink:href="#DejaVuSerif-30" x="127.246094"/>
      </g>
     </g>
    </g>
    <g id="xtick_3">
     <g id="line2d_7">
      <path d="M 392.505052 489.2325 
L 392.505052 28.08 
" clip-path="url(#pdea09c7df2)" style="fill: none; stroke-dasharray: 3.7,1.6; stroke-dashoffset: 0; stroke: #b0b0b0; stroke-opacity: 0.5"/>
     </g>
     <g id="line2d_8">
      <g>
       <use xlink:href="#m88d4bfdded" x="392.505052" y="489.2325" style="stroke: #000000; stroke-width: 2"/>
      </g>
     </g>
     <g id="line2d_9">
      <g>
       <use xlink:href="#m7cac4dec71" x="392.505052" y="28.08" style="stroke: #000000; stroke-width: 2"/>
      </g>
     </g>
     <g id="text_3">
      <!-- 1000 -->
      <g transform="translate(359.420052 512.488438) scale(0.26 -0.26)">
       <defs>
        <path id="DejaVuSerif-31" d="M 909 0 
L 909 331 
L 1722 331 
L 1722 4213 
L 781 3603 
L 781 4013 
L 1919 4750 
L 2350 4750 
L 2350 331 
L 3163 331 
L 3163 0 
L 909 0 
z
" transform="scale(0.015625)"/>
       </defs>
       <use xlink:href="#DejaVuSerif-31"/>
       <use xlink:href="#DejaVuSerif-30" x="63.623047"/>
       <use xlink:href="#DejaVuSerif-30" x="127.246094"/>
       <use xlink:href="#DejaVuSerif-30" x="190.869141"/>
      </g>
     </g>
    </g>
    <g id="xtick_4">
     <g id="line2d_10">
      <path d="M 528.486933 489.2325 
L 528.486933 28.08 
" clip-path="url(#pdea09c7df2)" style="fill: none; stroke-dasharray: 3.7,1.6; stroke-dashoffset: 0; stroke: #b0b0b0; stroke-opacity: 0.5"/>
     </g>
     <g id="line2d_11">
      <g>
       <use xlink:href="#m88d4bfdded" x="528.486933" y="489.2325" style="stroke: #000000; stroke-width: 2"/>
      </g>
     </g>
     <g id="line2d_12">
      <g>
       <use xlink:href="#m7cac4dec71" x="528.486933" y="28.08" style="stroke: #000000; stroke-width: 2"/>
      </g>
     </g>
     <g id="text_4">
      <!-- 1500 -->
      <g transform="translate(495.401933 512.488438) scale(0.26 -0.26)">
       <use xlink:href="#DejaVuSerif-31"/>
       <use xlink:href="#DejaVuSerif-35" x="63.623047"/>
       <use xlink:href="#DejaVuSerif-30" x="127.246094"/>
       <use xlink:href="#DejaVuSerif-30" x="190.869141"/>
      </g>
     </g>
    </g>
    <g id="xtick_5">
     <g id="line2d_13">
      <path d="M 664.468814 489.2325 
L 664.468814 28.08 
" clip-path="url(#pdea09c7df2)" style="fill: none; stroke-dasharray: 3.7,1.6; stroke-dashoffset: 0; stroke: #b0b0b0; stroke-opacity: 0.5"/>
     </g>
     <g id="line2d_14">
      <g>
       <use xlink:href="#m88d4bfdded" x="664.468814" y="489.2325" style="stroke: #000000; stroke-width: 2"/>
      </g>
     </g>
     <g id="line2d_15">
      <g>
       <use xlink:href="#m7cac4dec71" x="664.468814" y="28.08" style="stroke: #000000; stroke-width: 2"/>
      </g>
     </g>
     <g id="text_5">
      <!-- 2000 -->
      <g transform="translate(631.383814 512.488438) scale(0.26 -0.26)">
       <defs>
        <path id="DejaVuSerif-32" d="M 819 3553 
L 469 3553 
L 469 4384 
Q 803 4563 1142 4656 
Q 1481 4750 1806 4750 
Q 2534 4750 2956 4397 
Q 3378 4044 3378 3438 
Q 3378 2753 2422 1800 
Q 2347 1728 2309 1691 
L 1131 513 
L 3078 513 
L 3078 1088 
L 3444 1088 
L 3444 0 
L 434 0 
L 434 341 
L 1850 1753 
Q 2319 2222 2519 2614 
Q 2719 3006 2719 3438 
Q 2719 3909 2473 4175 
Q 2228 4441 1797 4441 
Q 1350 4441 1106 4219 
Q 863 3997 819 3553 
z
" transform="scale(0.015625)"/>
       </defs>
       <use xlink:href="#DejaVuSerif-32"/>
       <use xlink:href="#DejaVuSerif-30" x="63.623047"/>
       <use xlink:href="#DejaVuSerif-30" x="127.246094"/>
       <use xlink:href="#DejaVuSerif-30" x="190.869141"/>
      </g>
     </g>
    </g>
    <g id="xtick_6">
     <g id="line2d_16">
      <path d="M 800.450695 489.2325 
L 800.450695 28.08 
" clip-path="url(#pdea09c7df2)" style="fill: none; stroke-dasharray: 3.7,1.6; stroke-dashoffset: 0; stroke: #b0b0b0; stroke-opacity: 0.5"/>
     </g>
     <g id="line2d_17">
      <g>
       <use xlink:href="#m88d4bfdded" x="800.450695" y="489.2325" style="stroke: #000000; stroke-width: 2"/>
      </g>
     </g>
     <g id="line2d_18">
      <g>
       <use xlink:href="#m7cac4dec71" x="800.450695" y="28.08" style="stroke: #000000; stroke-width: 2"/>
      </g>
     </g>
     <g id="text_6">
      <!-- 2500 -->
      <g transform="translate(767.365695 512.488438) scale(0.26 -0.26)">
       <use xlink:href="#DejaVuSerif-32"/>
       <use xlink:href="#DejaVuSerif-35" x="63.623047"/>
       <use xlink:href="#DejaVuSerif-30" x="127.246094"/>
       <use xlink:href="#DejaVuSerif-30" x="190.869141"/>
      </g>
     </g>
    </g>
    <g id="text_7">
     <!-- $t$ (a.u.) -->
     <g transform="translate(416.905845 541.651562) scale(0.26 -0.26)">
      <defs>
       <path id="Cmmi10-74" d="M 397 519 
Q 397 613 416 697 
L 878 2534 
L 206 2534 
Q 141 2534 141 2619 
Q 166 2759 225 2759 
L 934 2759 
L 1191 3803 
Q 1216 3888 1291 3947 
Q 1366 4006 1459 4006 
Q 1541 4006 1595 3957 
Q 1650 3909 1650 3828 
Q 1650 3809 1648 3798 
Q 1647 3788 1644 3775 
L 1388 2759 
L 2047 2759 
Q 2113 2759 2113 2675 
Q 2109 2659 2100 2621 
Q 2091 2584 2075 2559 
Q 2059 2534 2028 2534 
L 1331 2534 
L 872 684 
Q 825 503 825 372 
Q 825 97 1013 97 
Q 1294 97 1511 361 
Q 1728 625 1844 941 
Q 1869 978 1894 978 
L 1972 978 
Q 1997 978 2012 961 
Q 2028 944 2028 922 
Q 2028 909 2022 903 
Q 1881 516 1612 222 
Q 1344 -72 997 -72 
Q 744 -72 570 93 
Q 397 259 397 519 
z
" transform="scale(0.015625)"/>
       <path id="DejaVuSerif-20" transform="scale(0.015625)"/>
       <path id="DejaVuSerif-28" d="M 2041 -997 
Q 1281 -656 893 83 
Q 506 822 506 1931 
Q 506 3044 893 3783 
Q 1281 4522 2041 4863 
L 2041 4556 
Q 1559 4225 1350 3623 
Q 1141 3022 1141 1931 
Q 1141 844 1350 242 
Q 1559 -359 2041 -691 
L 2041 -997 
z
" transform="scale(0.015625)"/>
       <path id="DejaVuSerif-61" d="M 2547 1044 
L 2547 1747 
L 1806 1747 
Q 1378 1747 1168 1562 
Q 959 1378 959 997 
Q 959 650 1171 447 
Q 1384 244 1747 244 
Q 2106 244 2326 466 
Q 2547 688 2547 1044 
z
M 3122 2075 
L 3122 331 
L 3634 331 
L 3634 0 
L 2547 0 
L 2547 359 
Q 2356 128 2106 18 
Q 1856 -91 1522 -91 
Q 969 -91 644 203 
Q 319 497 319 997 
Q 319 1513 691 1797 
Q 1063 2081 1741 2081 
L 2547 2081 
L 2547 2309 
Q 2547 2688 2317 2895 
Q 2088 3103 1672 3103 
Q 1328 3103 1125 2947 
Q 922 2791 872 2484 
L 575 2484 
L 575 3156 
Q 875 3284 1158 3348 
Q 1441 3413 1709 3413 
Q 2400 3413 2761 3070 
Q 3122 2728 3122 2075 
z
" transform="scale(0.015625)"/>
       <path id="DejaVuSerif-2e" d="M 603 325 
Q 603 500 722 622 
Q 841 744 1019 744 
Q 1191 744 1312 622 
Q 1434 500 1434 325 
Q 1434 153 1312 31 
Q 1191 -91 1019 -91 
Q 841 -91 722 29 
Q 603 150 603 325 
z
" transform="scale(0.015625)"/>
       <path id="DejaVuSerif-75" d="M 2266 3322 
L 3341 3322 
L 3341 331 
L 3884 331 
L 3884 0 
L 2766 0 
L 2766 588 
Q 2606 256 2353 82 
Q 2100 -91 1766 -91 
Q 1213 -91 952 223 
Q 691 538 691 1209 
L 691 2988 
L 172 2988 
L 172 3322 
L 1269 3322 
L 1269 1388 
Q 1269 781 1417 556 
Q 1566 331 1947 331 
Q 2347 331 2556 625 
Q 2766 919 2766 1478 
L 2766 2988 
L 2266 2988 
L 2266 3322 
z
" transform="scale(0.015625)"/>
       <path id="DejaVuSerif-29" d="M 453 -997 
L 453 -691 
Q 934 -359 1145 242 
Q 1356 844 1356 1931 
Q 1356 3022 1145 3623 
Q 934 4225 453 4556 
L 453 4863 
Q 1216 4522 1603 3783 
Q 1991 3044 1991 1931 
Q 1991 822 1603 83 
Q 1216 -656 453 -997 
z
" transform="scale(0.015625)"/>
      </defs>
      <use xlink:href="#Cmmi10-74" transform="translate(0 0.015625)"/>
      <use xlink:href="#DejaVuSerif-20" transform="translate(36.083984 0.015625)"/>
      <use xlink:href="#DejaVuSerif-28" transform="translate(67.871094 0.015625)"/>
      <use xlink:href="#DejaVuSerif-61" transform="translate(106.884766 0.015625)"/>
      <use xlink:href="#DejaVuSerif-2e" transform="translate(166.503906 0.015625)"/>
      <use xlink:href="#DejaVuSerif-75" transform="translate(198.291016 0.015625)"/>
      <use xlink:href="#DejaVuSerif-2e" transform="translate(262.695312 0.015625)"/>
      <use xlink:href="#DejaVuSerif-29" transform="translate(294.482422 0.015625)"/>
     </g>
    </g>
   </g>
   <g id="matplotlib.axis_2">
    <g id="ytick_1">
     <g id="line2d_19">
      <path d="M 93.675 415.485616 
L 826.97669 415.485616 
" clip-path="url(#pdea09c7df2)" style="fill: none; stroke-dasharray: 3.7,1.6; stroke-dashoffset: 0; stroke: #b0b0b0; stroke-opacity: 0.5"/>
     </g>
     <g id="line2d_20">
      <defs>
       <path id="m909e9826a2" d="M 0 0 
L 10 0 
" style="stroke: #000000; stroke-width: 2"/>
      </defs>
      <g>
       <use xlink:href="#m909e9826a2" x="93.675" y="415.485616" style="stroke: #000000; stroke-width: 2"/>
      </g>
     </g>
     <g id="line2d_21">
      <defs>
       <path id="m2d58fa7499" d="M 0 0 
L -10 0 
" style="stroke: #000000; stroke-width: 2"/>
      </defs>
      <g>
       <use xlink:href="#m2d58fa7499" x="826.97669" y="415.485616" style="stroke: #000000; stroke-width: 2"/>
      </g>
     </g>
     <g id="text_8">
      <!-- 0 -->
      <g transform="translate(73.6325 425.363585) scale(0.26 -0.26)">
       <use xlink:href="#DejaVuSerif-30"/>
      </g>
     </g>
    </g>
    <g id="ytick_2">
     <g id="line2d_22">
      <path d="M 93.675 313.508195 
L 826.97669 313.508195 
" clip-path="url(#pdea09c7df2)" style="fill: none; stroke-dasharray: 3.7,1.6; stroke-dashoffset: 0; stroke: #b0b0b0; stroke-opacity: 0.5"/>
     </g>
     <g id="line2d_23">
      <g>
       <use xlink:href="#m909e9826a2" x="93.675" y="313.508195" style="stroke: #000000; stroke-width: 2"/>
      </g>
     </g>
     <g id="line2d_24">
      <g>
       <use xlink:href="#m2d58fa7499" x="826.97669" y="313.508195" style="stroke: #000000; stroke-width: 2"/>
      </g>
     </g>
     <g id="text_9">
      <!-- 10 -->
      <g transform="translate(57.09 323.386164) scale(0.26 -0.26)">
       <use xlink:href="#DejaVuSerif-31"/>
       <use xlink:href="#DejaVuSerif-30" x="63.623047"/>
      </g>
     </g>
    </g>
    <g id="ytick_3">
     <g id="line2d_25">
      <path d="M 93.675 211.530774 
L 826.97669 211.530774 
" clip-path="url(#pdea09c7df2)" style="fill: none; stroke-dasharray: 3.7,1.6; stroke-dashoffset: 0; stroke: #b0b0b0; stroke-opacity: 0.5"/>
     </g>
     <g id="line2d_26">
      <g>
       <use xlink:href="#m909e9826a2" x="93.675" y="211.530774" style="stroke: #000000; stroke-width: 2"/>
      </g>
     </g>
     <g id="line2d_27">
      <g>
       <use xlink:href="#m2d58fa7499" x="826.97669" y="211.530774" style="stroke: #000000; stroke-width: 2"/>
      </g>
     </g>
     <g id="text_10">
      <!-- 20 -->
      <g transform="translate(57.09 221.408743) scale(0.26 -0.26)">
       <use xlink:href="#DejaVuSerif-32"/>
       <use xlink:href="#DejaVuSerif-30" x="63.623047"/>
      </g>
     </g>
    </g>
    <g id="ytick_4">
     <g id="line2d_28">
      <path d="M 93.675 109.553353 
L 826.97669 109.553353 
" clip-path="url(#pdea09c7df2)" style="fill: none; stroke-dasharray: 3.7,1.6; stroke-dashoffset: 0; stroke: #b0b0b0; stroke-opacity: 0.5"/>
     </g>
     <g id="line2d_29">
      <g>
       <use xlink:href="#m909e9826a2" x="93.675" y="109.553353" style="stroke: #000000; stroke-width: 2"/>
      </g>
     </g>
     <g id="line2d_30">
      <g>
       <use xlink:href="#m2d58fa7499" x="826.97669" y="109.553353" style="stroke: #000000; stroke-width: 2"/>
      </g>
     </g>
     <g id="text_11">
      <!-- 30 -->
      <g transform="translate(57.09 119.431322) scale(0.26 -0.26)">
       <defs>
        <path id="DejaVuSerif-33" d="M 622 4469 
Q 988 4606 1323 4678 
Q 1659 4750 1953 4750 
Q 2638 4750 3022 4454 
Q 3406 4159 3406 3634 
Q 3406 3213 3140 2930 
Q 2875 2647 2388 2547 
Q 2963 2466 3280 2130 
Q 3597 1794 3597 1259 
Q 3597 606 3158 257 
Q 2719 -91 1894 -91 
Q 1528 -91 1179 -12 
Q 831 66 488 225 
L 488 1131 
L 838 1131 
Q 869 681 1141 450 
Q 1413 219 1906 219 
Q 2384 219 2661 495 
Q 2938 772 2938 1253 
Q 2938 1803 2653 2086 
Q 2369 2369 1819 2369 
L 1522 2369 
L 1522 2688 
L 1678 2688 
Q 2225 2688 2498 2914 
Q 2772 3141 2772 3597 
Q 2772 4006 2547 4223 
Q 2322 4441 1900 4441 
Q 1478 4441 1245 4241 
Q 1013 4041 972 3647 
L 622 3647 
L 622 4469 
z
" transform="scale(0.015625)"/>
       </defs>
       <use xlink:href="#DejaVuSerif-33"/>
       <use xlink:href="#DejaVuSerif-30" x="63.623047"/>
      </g>
     </g>
    </g>
    <g id="text_12">
     <!-- Particle energy (a.u.) -->
     <g transform="translate(47.313125 397.733906) rotate(-90) scale(0.26 -0.26)">
      <defs>
       <path id="DejaVuSerif-50" d="M 1581 2375 
L 2406 2375 
Q 2872 2375 3115 2626 
Q 3359 2878 3359 3353 
Q 3359 3831 3115 4081 
Q 2872 4331 2406 4331 
L 1581 4331 
L 1581 2375 
z
M 353 0 
L 353 331 
L 947 331 
L 947 4331 
L 353 4331 
L 353 4666 
L 2559 4666 
Q 3259 4666 3668 4311 
Q 4078 3956 4078 3353 
Q 4078 2753 3668 2397 
Q 3259 2041 2559 2041 
L 1581 2041 
L 1581 331 
L 2303 331 
L 2303 0 
L 353 0 
z
" transform="scale(0.015625)"/>
       <path id="DejaVuSerif-72" d="M 3059 3328 
L 3059 2497 
L 2728 2497 
Q 2713 2744 2591 2866 
Q 2469 2988 2234 2988 
Q 1809 2988 1582 2694 
Q 1356 2400 1356 1850 
L 1356 331 
L 2022 331 
L 2022 0 
L 263 0 
L 263 331 
L 781 331 
L 781 2994 
L 231 2994 
L 231 3322 
L 1356 3322 
L 1356 2731 
Q 1525 3078 1790 3245 
Q 2056 3413 2438 3413 
Q 2578 3413 2733 3391 
Q 2888 3369 3059 3328 
z
" transform="scale(0.015625)"/>
       <path id="DejaVuSerif-74" d="M 691 2988 
L 184 2988 
L 184 3322 
L 691 3322 
L 691 4353 
L 1269 4353 
L 1269 3322 
L 2350 3322 
L 2350 2988 
L 1269 2988 
L 1269 878 
Q 1269 456 1350 337 
Q 1431 219 1650 219 
Q 1875 219 1978 351 
Q 2081 484 2088 781 
L 2522 781 
Q 2497 328 2275 118 
Q 2053 -91 1600 -91 
Q 1103 -91 897 129 
Q 691 350 691 878 
L 691 2988 
z
" transform="scale(0.015625)"/>
       <path id="DejaVuSerif-69" d="M 622 4353 
Q 622 4497 726 4603 
Q 831 4709 978 4709 
Q 1122 4709 1226 4603 
Q 1331 4497 1331 4353 
Q 1331 4206 1228 4103 
Q 1125 4000 978 4000 
Q 831 4000 726 4103 
Q 622 4206 622 4353 
z
M 1356 331 
L 1900 331 
L 1900 0 
L 231 0 
L 231 331 
L 781 331 
L 781 2988 
L 231 2988 
L 231 3322 
L 1356 3322 
L 1356 331 
z
" transform="scale(0.015625)"/>
       <path id="DejaVuSerif-63" d="M 3291 997 
Q 3169 466 2822 187 
Q 2475 -91 1925 -91 
Q 1200 -91 759 389 
Q 319 869 319 1663 
Q 319 2459 759 2936 
Q 1200 3413 1925 3413 
Q 2241 3413 2553 3339 
Q 2866 3266 3181 3116 
L 3181 2266 
L 2847 2266 
Q 2781 2703 2561 2903 
Q 2341 3103 1931 3103 
Q 1466 3103 1228 2742 
Q 991 2381 991 1663 
Q 991 944 1227 581 
Q 1463 219 1931 219 
Q 2303 219 2525 412 
Q 2747 606 2828 997 
L 3291 997 
z
" transform="scale(0.015625)"/>
       <path id="DejaVuSerif-6c" d="M 1313 331 
L 1856 331 
L 1856 0 
L 184 0 
L 184 331 
L 738 331 
L 738 4531 
L 184 4531 
L 184 4863 
L 1313 4863 
L 1313 331 
z
" transform="scale(0.015625)"/>
       <path id="DejaVuSerif-65" d="M 3469 1600 
L 991 1600 
L 991 1575 
Q 991 903 1244 561 
Q 1497 219 1991 219 
Q 2369 219 2611 417 
Q 2853 616 2950 1006 
L 3413 1006 
Q 3275 459 2904 184 
Q 2534 -91 1931 -91 
Q 1203 -91 761 389 
Q 319 869 319 1663 
Q 319 2450 753 2931 
Q 1188 3413 1894 3413 
Q 2647 3413 3050 2948 
Q 3453 2484 3469 1600 
z
M 2791 1931 
Q 2772 2513 2545 2808 
Q 2319 3103 1894 3103 
Q 1497 3103 1269 2806 
Q 1041 2509 991 1931 
L 2791 1931 
z
" transform="scale(0.015625)"/>
       <path id="DejaVuSerif-6e" d="M 263 0 
L 263 331 
L 781 331 
L 781 2988 
L 231 2988 
L 231 3322 
L 1356 3322 
L 1356 2731 
Q 1516 3069 1770 3241 
Q 2025 3413 2363 3413 
Q 2913 3413 3172 3097 
Q 3431 2781 3431 2113 
L 3431 331 
L 3944 331 
L 3944 0 
L 2356 0 
L 2356 331 
L 2853 331 
L 2853 1931 
Q 2853 2541 2703 2767 
Q 2553 2994 2175 2994 
Q 1775 2994 1565 2701 
Q 1356 2409 1356 1850 
L 1356 331 
L 1856 331 
L 1856 0 
L 263 0 
z
" transform="scale(0.015625)"/>
       <path id="DejaVuSerif-67" d="M 3359 2988 
L 3359 72 
Q 3359 -644 2965 -1033 
Q 2572 -1422 1844 -1422 
Q 1516 -1422 1216 -1362 
Q 916 -1303 641 -1184 
L 641 -488 
L 941 -488 
Q 997 -813 1206 -963 
Q 1416 -1113 1806 -1113 
Q 2313 -1113 2548 -827 
Q 2784 -541 2784 72 
L 2784 519 
Q 2616 206 2355 57 
Q 2094 -91 1709 -91 
Q 1097 -91 708 395 
Q 319 881 319 1663 
Q 319 2444 706 2928 
Q 1094 3413 1709 3413 
Q 2094 3413 2355 3264 
Q 2616 3116 2784 2803 
L 2784 3322 
L 3909 3322 
L 3909 2988 
L 3359 2988 
z
M 2784 1825 
Q 2784 2422 2554 2737 
Q 2325 3053 1888 3053 
Q 1444 3053 1217 2703 
Q 991 2353 991 1663 
Q 991 975 1217 622 
Q 1444 269 1888 269 
Q 2325 269 2554 583 
Q 2784 897 2784 1497 
L 2784 1825 
z
" transform="scale(0.015625)"/>
       <path id="DejaVuSerif-79" d="M 1381 -609 
L 1600 -56 
L 359 2988 
L -19 2988 
L -19 3322 
L 1509 3322 
L 1509 2988 
L 978 2988 
L 1913 703 
L 2847 2988 
L 2350 2988 
L 2350 3322 
L 3597 3322 
L 3597 2988 
L 3225 2988 
L 1703 -750 
Q 1547 -1138 1356 -1280 
Q 1166 -1422 819 -1422 
Q 672 -1422 517 -1397 
Q 363 -1372 206 -1325 
L 206 -691 
L 500 -691 
Q 519 -903 608 -995 
Q 697 -1088 884 -1088 
Q 1056 -1088 1161 -992 
Q 1266 -897 1381 -609 
z
" transform="scale(0.015625)"/>
      </defs>
      <use xlink:href="#DejaVuSerif-50"/>
      <use xlink:href="#DejaVuSerif-61" x="62.785156"/>
      <use xlink:href="#DejaVuSerif-72" x="122.404297"/>
      <use xlink:href="#DejaVuSerif-74" x="170.207031"/>
      <use xlink:href="#DejaVuSerif-69" x="210.392578"/>
      <use xlink:href="#DejaVuSerif-63" x="242.375"/>
      <use xlink:href="#DejaVuSerif-6c" x="298.380859"/>
      <use xlink:href="#DejaVuSerif-65" x="330.363281"/>
      <use xlink:href="#DejaVuSerif-20" x="389.542969"/>
      <use xlink:href="#DejaVuSerif-65" x="421.330078"/>
      <use xlink:href="#DejaVuSerif-6e" x="480.509766"/>
      <use xlink:href="#DejaVuSerif-65" x="544.914062"/>
      <use xlink:href="#DejaVuSerif-72" x="604.09375"/>
      <use xlink:href="#DejaVuSerif-67" x="651.896484"/>
      <use xlink:href="#DejaVuSerif-79" x="715.910156"/>
      <use xlink:href="#DejaVuSerif-20" x="772.404297"/>
      <use xlink:href="#DejaVuSerif-28" x="804.191406"/>
      <use xlink:href="#DejaVuSerif-61" x="843.205078"/>
      <use xlink:href="#DejaVuSerif-2e" x="902.824219"/>
      <use xlink:href="#DejaVuSerif-75" x="934.611328"/>
      <use xlink:href="#DejaVuSerif-2e" x="999.015625"/>
      <use xlink:href="#DejaVuSerif-29" x="1030.802734"/>
     </g>
    </g>
   </g>
   <g id="line2d_31">
    <path d="M 127.006895 49.169988 
L 140.618695 49.082079 
L 154.230495 49.065243 
L 167.842295 49.058049 
L 181.454095 49.054072 
L 195.065895 49.051548 
L 208.677694 49.049803 
L 222.289494 49.048524 
L 235.901294 49.047546 
L 249.513094 49.046774 
L 263.124894 49.046149 
L 276.736694 49.045633 
L 290.348494 49.0452 
L 303.960294 49.044831 
L 317.572094 49.044512 
L 331.183894 49.044235 
L 344.795693 49.043992 
L 358.407493 49.043776 
L 372.019293 49.043584 
L 385.631093 49.043411 
L 399.242893 49.043255 
L 412.854693 49.043114 
L 426.466493 49.042985 
L 440.078293 49.042868 
L 453.690093 49.04276 
L 467.301892 49.04266 
L 480.913692 49.042568 
L 494.525492 49.042482 
L 508.137292 49.042403 
L 521.749092 49.042329 
L 535.360892 49.04226 
L 548.972692 49.042195 
L 562.584492 49.042134 
L 576.196292 49.042077 
L 589.808092 49.042023 
L 603.419891 49.041972 
L 617.031691 49.041924 
L 630.643491 49.041879 
L 644.255291 49.041836 
L 657.867091 49.041795 
L 671.478891 49.041756 
L 685.090691 49.041719 
L 698.702491 49.041684 
L 712.314291 49.04165 
L 725.926091 49.041618 
L 739.53789 49.041587 
L 753.14969 49.041558 
L 766.76149 49.04153 
L 780.37329 49.041503 
L 793.644795 49.041477 
" clip-path="url(#pdea09c7df2)" style="fill: none; stroke: #1f77b4; stroke-width: 3; stroke-linecap: square"/>
    <defs>
     <path id="me7c2dd0c9d" d="M 0 3 
C 0.795609 3 1.55874 2.683901 2.12132 2.12132 
C 2.683901 1.55874 3 0.795609 3 0 
C 3 -0.795609 2.683901 -1.55874 2.12132 -2.12132 
C 1.55874 -2.683901 0.795609 -3 0 -3 
C -0.795609 -3 -1.55874 -2.683901 -2.12132 -2.12132 
C -2.683901 -1.55874 -3 -0.795609 -3 0 
C -3 0.795609 -2.683901 1.55874 -2.12132 2.12132 
C -1.55874 2.683901 -0.795609 3 0 3 
z
" style="stroke: #1f77b4"/>
    </defs>
    <g clip-path="url(#pdea09c7df2)">
     <use xlink:href="#me7c2dd0c9d" x="127.006895" y="49.169988" style="fill: #1f77b4; stroke: #1f77b4"/>
     <use xlink:href="#me7c2dd0c9d" x="140.618695" y="49.082079" style="fill: #1f77b4; stroke: #1f77b4"/>
     <use xlink:href="#me7c2dd0c9d" x="154.230495" y="49.065243" style="fill: #1f77b4; stroke: #1f77b4"/>
     <use xlink:href="#me7c2dd0c9d" x="167.842295" y="49.058049" style="fill: #1f77b4; stroke: #1f77b4"/>
     <use xlink:href="#me7c2dd0c9d" x="181.454095" y="49.054072" style="fill: #1f77b4; stroke: #1f77b4"/>
     <use xlink:href="#me7c2dd0c9d" x="195.065895" y="49.051548" style="fill: #1f77b4; stroke: #1f77b4"/>
     <use xlink:href="#me7c2dd0c9d" x="208.677694" y="49.049803" style="fill: #1f77b4; stroke: #1f77b4"/>
     <use xlink:href="#me7c2dd0c9d" x="222.289494" y="49.048524" style="fill: #1f77b4; stroke: #1f77b4"/>
     <use xlink:href="#me7c2dd0c9d" x="235.901294" y="49.047546" style="fill: #1f77b4; stroke: #1f77b4"/>
     <use xlink:href="#me7c2dd0c9d" x="249.513094" y="49.046774" style="fill: #1f77b4; stroke: #1f77b4"/>
     <use xlink:href="#me7c2dd0c9d" x="263.124894" y="49.046149" style="fill: #1f77b4; stroke: #1f77b4"/>
     <use xlink:href="#me7c2dd0c9d" x="276.736694" y="49.045633" style="fill: #1f77b4; stroke: #1f77b4"/>
     <use xlink:href="#me7c2dd0c9d" x="290.348494" y="49.0452" style="fill: #1f77b4; stroke: #1f77b4"/>
     <use xlink:href="#me7c2dd0c9d" x="303.960294" y="49.044831" style="fill: #1f77b4; stroke: #1f77b4"/>
     <use xlink:href="#me7c2dd0c9d" x="317.572094" y="49.044512" style="fill: #1f77b4; stroke: #1f77b4"/>
     <use xlink:href="#me7c2dd0c9d" x="331.183894" y="49.044235" style="fill: #1f77b4; stroke: #1f77b4"/>
     <use xlink:href="#me7c2dd0c9d" x="344.795693" y="49.043992" style="fill: #1f77b4; stroke: #1f77b4"/>
     <use xlink:href="#me7c2dd0c9d" x="358.407493" y="49.043776" style="fill: #1f77b4; stroke: #1f77b4"/>
     <use xlink:href="#me7c2dd0c9d" x="372.019293" y="49.043584" style="fill: #1f77b4; stroke: #1f77b4"/>
     <use xlink:href="#me7c2dd0c9d" x="385.631093" y="49.043411" style="fill: #1f77b4; stroke: #1f77b4"/>
     <use xlink:href="#me7c2dd0c9d" x="399.242893" y="49.043255" style="fill: #1f77b4; stroke: #1f77b4"/>
     <use xlink:href="#me7c2dd0c9d" x="412.854693" y="49.043114" style="fill: #1f77b4; stroke: #1f77b4"/>
     <use xlink:href="#me7c2dd0c9d" x="426.466493" y="49.042985" style="fill: #1f77b4; stroke: #1f77b4"/>
     <use xlink:href="#me7c2dd0c9d" x="440.078293" y="49.042868" style="fill: #1f77b4; stroke: #1f77b4"/>
     <use xlink:href="#me7c2dd0c9d" x="453.690093" y="49.04276" style="fill: #1f77b4; stroke: #1f77b4"/>
     <use xlink:href="#me7c2dd0c9d" x="467.301892" y="49.04266" style="fill: #1f77b4; stroke: #1f77b4"/>
     <use xlink:href="#me7c2dd0c9d" x="480.913692" y="49.042568" style="fill: #1f77b4; stroke: #1f77b4"/>
     <use xlink:href="#me7c2dd0c9d" x="494.525492" y="49.042482" style="fill: #1f77b4; stroke: #1f77b4"/>
     <use xlink:href="#me7c2dd0c9d" x="508.137292" y="49.042403" style="fill: #1f77b4; stroke: #1f77b4"/>
     <use xlink:href="#me7c2dd0c9d" x="521.749092" y="49.042329" style="fill: #1f77b4; stroke: #1f77b4"/>
     <use xlink:href="#me7c2dd0c9d" x="535.360892" y="49.04226" style="fill: #1f77b4; stroke: #1f77b4"/>
     <use xlink:href="#me7c2dd0c9d" x="548.972692" y="49.042195" style="fill: #1f77b4; stroke: #1f77b4"/>
     <use xlink:href="#me7c2dd0c9d" x="562.584492" y="49.042134" style="fill: #1f77b4; stroke: #1f77b4"/>
     <use xlink:href="#me7c2dd0c9d" x="576.196292" y="49.042077" style="fill: #1f77b4; stroke: #1f77b4"/>
     <use xlink:href="#me7c2dd0c9d" x="589.808092" y="49.042023" style="fill: #1f77b4; stroke: #1f77b4"/>
     <use xlink:href="#me7c2dd0c9d" x="603.419891" y="49.041972" style="fill: #1f77b4; stroke: #1f77b4"/>
     <use xlink:href="#me7c2dd0c9d" x="617.031691" y="49.041924" style="fill: #1f77b4; stroke: #1f77b4"/>
     <use xlink:href="#me7c2dd0c9d" x="630.643491" y="49.041879" style="fill: #1f77b4; stroke: #1f77b4"/>
     <use xlink:href="#me7c2dd0c9d" x="644.255291" y="49.041836" style="fill: #1f77b4; stroke: #1f77b4"/>
     <use xlink:href="#me7c2dd0c9d" x="657.867091" y="49.041795" style="fill: #1f77b4; stroke: #1f77b4"/>
     <use xlink:href="#me7c2dd0c9d" x="671.478891" y="49.041756" style="fill: #1f77b4; stroke: #1f77b4"/>
     <use xlink:href="#me7c2dd0c9d" x="685.090691" y="49.041719" style="fill: #1f77b4; stroke: #1f77b4"/>
     <use xlink:href="#me7c2dd0c9d" x="698.702491" y="49.041684" style="fill: #1f77b4; stroke: #1f77b4"/>
     <use xlink:href="#me7c2dd0c9d" x="712.314291" y="49.04165" style="fill: #1f77b4; stroke: #1f77b4"/>
     <use xlink:href="#me7c2dd0c9d" x="725.926091" y="49.041618" style="fill: #1f77b4; stroke: #1f77b4"/>
     <use xlink:href="#me7c2dd0c9d" x="739.53789" y="49.041587" style="fill: #1f77b4; stroke: #1f77b4"/>
     <use xlink:href="#me7c2dd0c9d" x="753.14969" y="49.041558" style="fill: #1f77b4; stroke: #1f77b4"/>
     <use xlink:href="#me7c2dd0c9d" x="766.76149" y="49.04153" style="fill: #1f77b4; stroke: #1f77b4"/>
     <use xlink:href="#me7c2dd0c9d" x="780.37329" y="49.041503" style="fill: #1f77b4; stroke: #1f77b4"/>
     <use xlink:href="#me7c2dd0c9d" x="793.644795" y="49.041477" style="fill: #1f77b4; stroke: #1f77b4"/>
    </g>
   </g>
   <g id="line2d_32">
    <path d="M 127.006895 167.560841 
L 140.618695 167.466464 
L 154.230495 167.44833 
L 167.842295 167.440586 
L 181.454095 167.436316 
L 195.065895 167.433608 
L 208.677694 167.43173 
L 222.289494 167.430352 
L 235.901294 167.429292 
L 249.513094 167.428453 
L 263.124894 167.427771 
L 276.736694 167.427206 
L 290.348494 167.426731 
L 303.960294 167.426326 
L 317.572094 167.425976 
L 331.183894 167.425671 
L 344.795693 167.425403 
L 358.407493 167.425165 
L 372.019293 167.424953 
L 385.631093 167.424763 
L 399.242893 167.424591 
L 412.854693 167.424435 
L 426.466493 167.424293 
L 440.078293 167.424162 
L 453.690093 167.424043 
L 467.301892 167.423933 
L 480.913692 167.423831 
L 494.525492 167.423736 
L 508.137292 167.423648 
L 521.749092 167.423566 
L 535.360892 167.42349 
L 548.972692 167.423418 
L 562.584492 167.423351 
L 576.196292 167.423287 
L 589.808092 167.423228 
L 603.419891 167.423171 
L 617.031691 167.423118 
L 630.643491 167.423068 
L 644.255291 167.42302 
L 657.867091 167.422975 
L 671.478891 167.422931 
L 685.090691 167.42289 
L 698.702491 167.422851 
L 712.314291 167.422814 
L 725.926091 167.422778 
L 739.53789 167.422744 
L 753.14969 167.422711 
L 766.76149 167.42268 
L 780.37329 167.42265 
L 793.644795 167.422622 
" clip-path="url(#pdea09c7df2)" style="fill: none; stroke: #ff7f0e; stroke-width: 3; stroke-linecap: square"/>
    <defs>
     <path id="m6813457c1d" d="M 0 3 
C 0.795609 3 1.55874 2.683901 2.12132 2.12132 
C 2.683901 1.55874 3 0.795609 3 0 
C 3 -0.795609 2.683901 -1.55874 2.12132 -2.12132 
C 1.55874 -2.683901 0.795609 -3 0 -3 
C -0.795609 -3 -1.55874 -2.683901 -2.12132 -2.12132 
C -2.683901 -1.55874 -3 -0.795609 -3 0 
C -3 0.795609 -2.683901 1.55874 -2.12132 2.12132 
C -1.55874 2.683901 -0.795609 3 0 3 
z
" style="stroke: #ff7f0e"/>
    </defs>
    <g clip-path="url(#pdea09c7df2)">
     <use xlink:href="#m6813457c1d" x="127.006895" y="167.560841" style="fill: #ff7f0e; stroke: #ff7f0e"/>
     <use xlink:href="#m6813457c1d" x="140.618695" y="167.466464" style="fill: #ff7f0e; stroke: #ff7f0e"/>
     <use xlink:href="#m6813457c1d" x="154.230495" y="167.44833" style="fill: #ff7f0e; stroke: #ff7f0e"/>
     <use xlink:href="#m6813457c1d" x="167.842295" y="167.440586" style="fill: #ff7f0e; stroke: #ff7f0e"/>
     <use xlink:href="#m6813457c1d" x="181.454095" y="167.436316" style="fill: #ff7f0e; stroke: #ff7f0e"/>
     <use xlink:href="#m6813457c1d" x="195.065895" y="167.433608" style="fill: #ff7f0e; stroke: #ff7f0e"/>
     <use xlink:href="#m6813457c1d" x="208.677694" y="167.43173" style="fill: #ff7f0e; stroke: #ff7f0e"/>
     <use xlink:href="#m6813457c1d" x="222.289494" y="167.430352" style="fill: #ff7f0e; stroke: #ff7f0e"/>
     <use xlink:href="#m6813457c1d" x="235.901294" y="167.429292" style="fill: #ff7f0e; stroke: #ff7f0e"/>
     <use xlink:href="#m6813457c1d" x="249.513094" y="167.428453" style="fill: #ff7f0e; stroke: #ff7f0e"/>
     <use xlink:href="#m6813457c1d" x="263.124894" y="167.427771" style="fill: #ff7f0e; stroke: #ff7f0e"/>
     <use xlink:href="#m6813457c1d" x="276.736694" y="167.427206" style="fill: #ff7f0e; stroke: #ff7f0e"/>
     <use xlink:href="#m6813457c1d" x="290.348494" y="167.426731" style="fill: #ff7f0e; stroke: #ff7f0e"/>
     <use xlink:href="#m6813457c1d" x="303.960294" y="167.426326" style="fill: #ff7f0e; stroke: #ff7f0e"/>
     <use xlink:href="#m6813457c1d" x="317.572094" y="167.425976" style="fill: #ff7f0e; stroke: #ff7f0e"/>
     <use xlink:href="#m6813457c1d" x="331.183894" y="167.425671" style="fill: #ff7f0e; stroke: #ff7f0e"/>
     <use xlink:href="#m6813457c1d" x="344.795693" y="167.425403" style="fill: #ff7f0e; stroke: #ff7f0e"/>
     <use xlink:href="#m6813457c1d" x="358.407493" y="167.425165" style="fill: #ff7f0e; stroke: #ff7f0e"/>
     <use xlink:href="#m6813457c1d" x="372.019293" y="167.424953" style="fill: #ff7f0e; stroke: #ff7f0e"/>
     <use xlink:href="#m6813457c1d" x="385.631093" y="167.424763" style="fill: #ff7f0e; stroke: #ff7f0e"/>
     <use xlink:href="#m6813457c1d" x="399.242893" y="167.424591" style="fill: #ff7f0e; stroke: #ff7f0e"/>
     <use xlink:href="#m6813457c1d" x="412.854693" y="167.424435" style="fill: #ff7f0e; stroke: #ff7f0e"/>
     <use xlink:href="#m6813457c1d" x="426.466493" y="167.424293" style="fill: #ff7f0e; stroke: #ff7f0e"/>
     <use xlink:href="#m6813457c1d" x="440.078293" y="167.424162" style="fill: #ff7f0e; stroke: #ff7f0e"/>
     <use xlink:href="#m6813457c1d" x="453.690093" y="167.424043" style="fill: #ff7f0e; stroke: #ff7f0e"/>
     <use xlink:href="#m6813457c1d" x="467.301892" y="167.423933" style="fill: #ff7f0e; stroke: #ff7f0e"/>
     <use xlink:href="#m6813457c1d" x="480.913692" y="167.423831" style="fill: #ff7f0e; stroke: #ff7f0e"/>
     <use xlink:href="#m6813457c1d" x="494.525492" y="167.423736" style="fill: #ff7f0e; stroke: #ff7f0e"/>
     <use xlink:href="#m6813457c1d" x="508.137292" y="167.423648" style="fill: #ff7f0e; stroke: #ff7f0e"/>
     <use xlink:href="#m6813457c1d" x="521.749092" y="167.423566" style="fill: #ff7f0e; stroke: #ff7f0e"/>
     <use xlink:href="#m6813457c1d" x="535.360892" y="167.42349" style="fill: #ff7f0e; stroke: #ff7f0e"/>
     <use xlink:href="#m6813457c1d" x="548.972692" y="167.423418" style="fill: #ff7f0e; stroke: #ff7f0e"/>
     <use xlink:href="#m6813457c1d" x="562.584492" y="167.423351" style="fill: #ff7f0e; stroke: #ff7f0e"/>
     <use xlink:href="#m6813457c1d" x="576.196292" y="167.423287" style="fill: #ff7f0e; stroke: #ff7f0e"/>
     <use xlink:href="#m6813457c1d" x="589.808092" y="167.423228" style="fill: #ff7f0e; stroke: #ff7f0e"/>
     <use xlink:href="#m6813457c1d" x="603.419891" y="167.423171" style="fill: #ff7f0e; stroke: #ff7f0e"/>
     <use xlink:href="#m6813457c1d" x="617.031691" y="167.423118" style="fill: #ff7f0e; stroke: #ff7f0e"/>
     <use xlink:href="#m6813457c1d" x="630.643491" y="167.423068" style="fill: #ff7f0e; stroke: #ff7f0e"/>
     <use xlink:href="#m6813457c1d" x="644.255291" y="167.42302" style="fill: #ff7f0e; stroke: #ff7f0e"/>
     <use xlink:href="#m6813457c1d" x="657.867091" y="167.422975" style="fill: #ff7f0e; stroke: #ff7f0e"/>
     <use xlink:href="#m6813457c1d" x="671.478891" y="167.422931" style="fill: #ff7f0e; stroke: #ff7f0e"/>
     <use xlink:href="#m6813457c1d" x="685.090691" y="167.42289" style="fill: #ff7f0e; stroke: #ff7f0e"/>
     <use xlink:href="#m6813457c1d" x="698.702491" y="167.422851" style="fill: #ff7f0e; stroke: #ff7f0e"/>
     <use xlink:href="#m6813457c1d" x="712.314291" y="167.422814" style="fill: #ff7f0e; stroke: #ff7f0e"/>
     <use xlink:href="#m6813457c1d" x="725.926091" y="167.422778" style="fill: #ff7f0e; stroke: #ff7f0e"/>
     <use xlink:href="#m6813457c1d" x="739.53789" y="167.422744" style="fill: #ff7f0e; stroke: #ff7f0e"/>
     <use xlink:href="#m6813457c1d" x="753.14969" y="167.422711" style="fill: #ff7f0e; stroke: #ff7f0e"/>
     <use xlink:href="#m6813457c1d" x="766.76149" y="167.42268" style="fill: #ff7f0e; stroke: #ff7f0e"/>
     <use xlink:href="#m6813457c1d" x="780.37329" y="167.42265" style="fill: #ff7f0e; stroke: #ff7f0e"/>
     <use xlink:href="#m6813457c1d" x="793.644795" y="167.422622" style="fill: #ff7f0e; stroke: #ff7f0e"/>
    </g>
   </g>
   <g id="line2d_33">
    <path d="M 127.006895 465.444357 
L 140.618695 417.691773 
L 154.230495 417.982602 
L 167.842295 417.315997 
L 181.454095 417.088996 
L 195.065895 417.799008 
L 208.677694 453.519969 
L 222.289494 461.45435 
L 235.901294 464.434676 
L 249.513094 465.418389 
L 263.124894 465.937763 
L 276.736694 466.254459 
L 290.348494 466.470932 
L 303.960294 466.629904 
L 317.572094 466.762387 
L 331.183894 466.872519 
L 344.795693 466.967319 
L 358.407493 467.046457 
L 372.019293 467.115776 
L 385.631093 467.184193 
L 399.242893 467.244322 
L 412.854693 467.307279 
L 426.466493 467.356736 
L 440.078293 467.397636 
L 453.690093 467.438738 
L 467.301892 467.481273 
L 480.913692 467.519174 
L 494.525492 467.560167 
L 508.137292 467.602145 
L 521.749092 467.665907 
L 535.360892 467.702046 
L 548.972692 467.736055 
L 562.584492 467.761574 
L 576.196292 467.791657 
L 589.808092 467.833503 
L 603.419891 467.875224 
L 617.031691 467.904444 
L 630.643491 467.934532 
L 644.255291 467.959024 
L 657.867091 467.988271 
L 671.478891 468.025542 
L 685.090691 468.056082 
L 698.702491 468.080456 
L 712.314291 468.110215 
L 725.926091 468.133213 
L 739.53789 468.163482 
L 753.14969 468.194114 
L 766.76149 468.222881 
L 780.37329 468.248889 
L 793.644795 468.271023 
" clip-path="url(#pdea09c7df2)" style="fill: none; stroke: #2ca02c; stroke-width: 3; stroke-linecap: square"/>
    <defs>
     <path id="mf7e8c178c7" d="M 0 3 
C 0.795609 3 1.55874 2.683901 2.12132 2.12132 
C 2.683901 1.55874 3 0.795609 3 0 
C 3 -0.795609 2.683901 -1.55874 2.12132 -2.12132 
C 1.55874 -2.683901 0.795609 -3 0 -3 
C -0.795609 -3 -1.55874 -2.683901 -2.12132 -2.12132 
C -2.683901 -1.55874 -3 -0.795609 -3 0 
C -3 0.795609 -2.683901 1.55874 -2.12132 2.12132 
C -1.55874 2.683901 -0.795609 3 0 3 
z
" style="stroke: #2ca02c"/>
    </defs>
    <g clip-path="url(#pdea09c7df2)">
     <use xlink:href="#mf7e8c178c7" x="127.006895" y="465.444357" style="fill: #2ca02c; stroke: #2ca02c"/>
     <use xlink:href="#mf7e8c178c7" x="140.618695" y="417.691773" style="fill: #2ca02c; stroke: #2ca02c"/>
     <use xlink:href="#mf7e8c178c7" x="154.230495" y="417.982602" style="fill: #2ca02c; stroke: #2ca02c"/>
     <use xlink:href="#mf7e8c178c7" x="167.842295" y="417.315997" style="fill: #2ca02c; stroke: #2ca02c"/>
     <use xlink:href="#mf7e8c178c7" x="181.454095" y="417.088996" style="fill: #2ca02c; stroke: #2ca02c"/>
     <use xlink:href="#mf7e8c178c7" x="195.065895" y="417.799008" style="fill: #2ca02c; stroke: #2ca02c"/>
     <use xlink:href="#mf7e8c178c7" x="208.677694" y="453.519969" style="fill: #2ca02c; stroke: #2ca02c"/>
     <use xlink:href="#mf7e8c178c7" x="222.289494" y="461.45435" style="fill: #2ca02c; stroke: #2ca02c"/>
     <use xlink:href="#mf7e8c178c7" x="235.901294" y="464.434676" style="fill: #2ca02c; stroke: #2ca02c"/>
     <use xlink:href="#mf7e8c178c7" x="249.513094" y="465.418389" style="fill: #2ca02c; stroke: #2ca02c"/>
     <use xlink:href="#mf7e8c178c7" x="263.124894" y="465.937763" style="fill: #2ca02c; stroke: #2ca02c"/>
     <use xlink:href="#mf7e8c178c7" x="276.736694" y="466.254459" style="fill: #2ca02c; stroke: #2ca02c"/>
     <use xlink:href="#mf7e8c178c7" x="290.348494" y="466.470932" style="fill: #2ca02c; stroke: #2ca02c"/>
     <use xlink:href="#mf7e8c178c7" x="303.960294" y="466.629904" style="fill: #2ca02c; stroke: #2ca02c"/>
     <use xlink:href="#mf7e8c178c7" x="317.572094" y="466.762387" style="fill: #2ca02c; stroke: #2ca02c"/>
     <use xlink:href="#mf7e8c178c7" x="331.183894" y="466.872519" style="fill: #2ca02c; stroke: #2ca02c"/>
     <use xlink:href="#mf7e8c178c7" x="344.795693" y="466.967319" style="fill: #2ca02c; stroke: #2ca02c"/>
     <use xlink:href="#mf7e8c178c7" x="358.407493" y="467.046457" style="fill: #2ca02c; stroke: #2ca02c"/>
     <use xlink:href="#mf7e8c178c7" x="372.019293" y="467.115776" style="fill: #2ca02c; stroke: #2ca02c"/>
     <use xlink:href="#mf7e8c178c7" x="385.631093" y="467.184193" style="fill: #2ca02c; stroke: #2ca02c"/>
     <use xlink:href="#mf7e8c178c7" x="399.242893" y="467.244322" style="fill: #2ca02c; stroke: #2ca02c"/>
     <use xlink:href="#mf7e8c178c7" x="412.854693" y="467.307279" style="fill: #2ca02c; stroke: #2ca02c"/>
     <use xlink:href="#mf7e8c178c7" x="426.466493" y="467.356736" style="fill: #2ca02c; stroke: #2ca02c"/>
     <use xlink:href="#mf7e8c178c7" x="440.078293" y="467.397636" style="fill: #2ca02c; stroke: #2ca02c"/>
     <use xlink:href="#mf7e8c178c7" x="453.690093" y="467.438738" style="fill: #2ca02c; stroke: #2ca02c"/>
     <use xlink:href="#mf7e8c178c7" x="467.301892" y="467.481273" style="fill: #2ca02c; stroke: #2ca02c"/>
     <use xlink:href="#mf7e8c178c7" x="480.913692" y="467.519174" style="fill: #2ca02c; stroke: #2ca02c"/>
     <use xlink:href="#mf7e8c178c7" x="494.525492" y="467.560167" style="fill: #2ca02c; stroke: #2ca02c"/>
     <use xlink:href="#mf7e8c178c7" x="508.137292" y="467.602145" style="fill: #2ca02c; stroke: #2ca02c"/>
     <use xlink:href="#mf7e8c178c7" x="521.749092" y="467.665907" style="fill: #2ca02c; stroke: #2ca02c"/>
     <use xlink:href="#mf7e8c178c7" x="535.360892" y="467.702046" style="fill: #2ca02c; stroke: #2ca02c"/>
     <use xlink:href="#mf7e8c178c7" x="548.972692" y="467.736055" style="fill: #2ca02c; stroke: #2ca02c"/>
     <use xlink:href="#mf7e8c178c7" x="562.584492" y="467.761574" style="fill: #2ca02c; stroke: #2ca02c"/>
     <use xlink:href="#mf7e8c178c7" x="576.196292" y="467.791657" style="fill: #2ca02c; stroke: #2ca02c"/>
     <use xlink:href="#mf7e8c178c7" x="589.808092" y="467.833503" style="fill: #2ca02c; stroke: #2ca02c"/>
     <use xlink:href="#mf7e8c178c7" x="603.419891" y="467.875224" style="fill: #2ca02c; stroke: #2ca02c"/>
     <use xlink:href="#mf7e8c178c7" x="617.031691" y="467.904444" style="fill: #2ca02c; stroke: #2ca02c"/>
     <use xlink:href="#mf7e8c178c7" x="630.643491" y="467.934532" style="fill: #2ca02c; stroke: #2ca02c"/>
     <use xlink:href="#mf7e8c178c7" x="644.255291" y="467.959024" style="fill: #2ca02c; stroke: #2ca02c"/>
     <use xlink:href="#mf7e8c178c7" x="657.867091" y="467.988271" style="fill: #2ca02c; stroke: #2ca02c"/>
     <use xlink:href="#mf7e8c178c7" x="671.478891" y="468.025542" style="fill: #2ca02c; stroke: #2ca02c"/>
     <use xlink:href="#mf7e8c178c7" x="685.090691" y="468.056082" style="fill: #2ca02c; stroke: #2ca02c"/>
     <use xlink:href="#mf7e8c178c7" x="698.702491" y="468.080456" style="fill: #2ca02c; stroke: #2ca02c"/>
     <use xlink:href="#mf7e8c178c7" x="712.314291" y="468.110215" style="fill: #2ca02c; stroke: #2ca02c"/>
     <use xlink:href="#mf7e8c178c7" x="725.926091" y="468.133213" style="fill: #2ca02c; stroke: #2ca02c"/>
     <use xlink:href="#mf7e8c178c7" x="739.53789" y="468.163482" style="fill: #2ca02c; stroke: #2ca02c"/>
     <use xlink:href="#mf7e8c178c7" x="753.14969" y="468.194114" style="fill: #2ca02c; stroke: #2ca02c"/>
     <use xlink:href="#mf7e8c178c7" x="766.76149" y="468.222881" style="fill: #2ca02c; stroke: #2ca02c"/>
     <use xlink:href="#mf7e8c178c7" x="780.37329" y="468.248889" style="fill: #2ca02c; stroke: #2ca02c"/>
     <use xlink:href="#mf7e8c178c7" x="793.644795" y="468.271023" style="fill: #2ca02c; stroke: #2ca02c"/>
    </g>
   </g>
   <g id="line2d_34">
    <path d="M 127.006895 426.139202 
L 140.618695 467.051572 
L 154.230495 466.898813 
L 167.842295 466.529223 
L 181.454095 466.021707 
L 195.065895 464.91205 
L 208.677694 426.163785 
L 222.289494 415.471806 
L 235.901294 415.227156 
L 249.513094 415.157517 
L 263.124894 415.122672 
L 276.736694 415.101558 
L 290.348494 415.087259 
L 303.960294 415.076819 
L 317.572094 415.068827 
L 331.183894 415.062521 
L 344.795693 415.057404 
L 358.407493 415.053161 
L 372.019293 415.049582 
L 385.631093 415.046515 
L 399.242893 415.043851 
L 412.854693 415.041523 
L 426.466493 415.039469 
L 440.078293 415.037641 
L 453.690093 415.036005 
L 467.301892 415.034529 
L 480.913692 415.03319 
L 494.525492 415.031969 
L 508.137292 415.030855 
L 521.749092 415.029831 
L 535.360892 415.028888 
L 548.972692 415.028016 
L 562.584492 415.027206 
L 576.196292 415.026452 
L 589.808092 415.02575 
L 603.419891 415.025093 
L 617.031691 415.024478 
L 630.643491 415.0239 
L 644.255291 415.023356 
L 657.867091 415.022843 
L 671.478891 415.022359 
L 685.090691 415.021901 
L 698.702491 415.021467 
L 712.314291 415.021055 
L 725.926091 415.020664 
L 739.53789 415.020291 
L 753.14969 415.019937 
L 766.76149 415.019599 
L 780.37329 415.019276 
L 793.644795 415.018975 
" clip-path="url(#pdea09c7df2)" style="fill: none; stroke: #d62728; stroke-width: 3; stroke-linecap: square"/>
    <defs>
     <path id="ma2cb0e5238" d="M 0 3 
C 0.795609 3 1.55874 2.683901 2.12132 2.12132 
C 2.683901 1.55874 3 0.795609 3 0 
C 3 -0.795609 2.683901 -1.55874 2.12132 -2.12132 
C 1.55874 -2.683901 0.795609 -3 0 -3 
C -0.795609 -3 -1.55874 -2.683901 -2.12132 -2.12132 
C -2.683901 -1.55874 -3 -0.795609 -3 0 
C -3 0.795609 -2.683901 1.55874 -2.12132 2.12132 
C -1.55874 2.683901 -0.795609 3 0 3 
z
" style="stroke: #d62728"/>
    </defs>
    <g clip-path="url(#pdea09c7df2)">
     <use xlink:href="#ma2cb0e5238" x="127.006895" y="426.139202" style="fill: #d62728; stroke: #d62728"/>
     <use xlink:href="#ma2cb0e5238" x="140.618695" y="467.051572" style="fill: #d62728; stroke: #d62728"/>
     <use xlink:href="#ma2cb0e5238" x="154.230495" y="466.898813" style="fill: #d62728; stroke: #d62728"/>
     <use xlink:href="#ma2cb0e5238" x="167.842295" y="466.529223" style="fill: #d62728; stroke: #d62728"/>
     <use xlink:href="#ma2cb0e5238" x="181.454095" y="466.021707" style="fill: #d62728; stroke: #d62728"/>
     <use xlink:href="#ma2cb0e5238" x="195.065895" y="464.91205" style="fill: #d62728; stroke: #d62728"/>
     <use xlink:href="#ma2cb0e5238" x="208.677694" y="426.163785" style="fill: #d62728; stroke: #d62728"/>
     <use xlink:href="#ma2cb0e5238" x="222.289494" y="415.471806" style="fill: #d62728; stroke: #d62728"/>
     <use xlink:href="#ma2cb0e5238" x="235.901294" y="415.227156" style="fill: #d62728; stroke: #d62728"/>
     <use xlink:href="#ma2cb0e5238" x="249.513094" y="415.157517" style="fill: #d62728; stroke: #d62728"/>
     <use xlink:href="#ma2cb0e5238" x="263.124894" y="415.122672" style="fill: #d62728; stroke: #d62728"/>
     <use xlink:href="#ma2cb0e5238" x="276.736694" y="415.101558" style="fill: #d62728; stroke: #d62728"/>
     <use xlink:href="#ma2cb0e5238" x="290.348494" y="415.087259" style="fill: #d62728; stroke: #d62728"/>
     <use xlink:href="#ma2cb0e5238" x="303.960294" y="415.076819" style="fill: #d62728; stroke: #d62728"/>
     <use xlink:href="#ma2cb0e5238" x="317.572094" y="415.068827" style="fill: #d62728; stroke: #d62728"/>
     <use xlink:href="#ma2cb0e5238" x="331.183894" y="415.062521" style="fill: #d62728; stroke: #d62728"/>
     <use xlink:href="#ma2cb0e5238" x="344.795693" y="415.057404" style="fill: #d62728; stroke: #d62728"/>
     <use xlink:href="#ma2cb0e5238" x="358.407493" y="415.053161" style="fill: #d62728; stroke: #d62728"/>
     <use xlink:href="#ma2cb0e5238" x="372.019293" y="415.049582" style="fill: #d62728; stroke: #d62728"/>
     <use xlink:href="#ma2cb0e5238" x="385.631093" y="415.046515" style="fill: #d62728; stroke: #d62728"/>
     <use xlink:href="#ma2cb0e5238" x="399.242893" y="415.043851" style="fill: #d62728; stroke: #d62728"/>
     <use xlink:href="#ma2cb0e5238" x="412.854693" y="415.041523" style="fill: #d62728; stroke: #d62728"/>
     <use xlink:href="#ma2cb0e5238" x="426.466493" y="415.039469" style="fill: #d62728; stroke: #d62728"/>
     <use xlink:href="#ma2cb0e5238" x="440.078293" y="415.037641" style="fill: #d62728; stroke: #d62728"/>
     <use xlink:href="#ma2cb0e5238" x="453.690093" y="415.036005" style="fill: #d62728; stroke: #d62728"/>
     <use xlink:href="#ma2cb0e5238" x="467.301892" y="415.034529" style="fill: #d62728; stroke: #d62728"/>
     <use xlink:href="#ma2cb0e5238" x="480.913692" y="415.03319" style="fill: #d62728; stroke: #d62728"/>
     <use xlink:href="#ma2cb0e5238" x="494.525492" y="415.031969" style="fill: #d62728; stroke: #d62728"/>
     <use xlink:href="#ma2cb0e5238" x="508.137292" y="415.030855" style="fill: #d62728; stroke: #d62728"/>
     <use xlink:href="#ma2cb0e5238" x="521.749092" y="415.029831" style="fill: #d62728; stroke: #d62728"/>
     <use xlink:href="#ma2cb0e5238" x="535.360892" y="415.028888" style="fill: #d62728; stroke: #d62728"/>
     <use xlink:href="#ma2cb0e5238" x="548.972692" y="415.028016" style="fill: #d62728; stroke: #d62728"/>
     <use xlink:href="#ma2cb0e5238" x="562.584492" y="415.027206" style="fill: #d62728; stroke: #d62728"/>
     <use xlink:href="#ma2cb0e5238" x="576.196292" y="415.026452" style="fill: #d62728; stroke: #d62728"/>
     <use xlink:href="#ma2cb0e5238" x="589.808092" y="415.02575" style="fill: #d62728; stroke: #d62728"/>
     <use xlink:href="#ma2cb0e5238" x="603.419891" y="415.025093" style="fill: #d62728; stroke: #d62728"/>
     <use xlink:href="#ma2cb0e5238" x="617.031691" y="415.024478" style="fill: #d62728; stroke: #d62728"/>
     <use xlink:href="#ma2cb0e5238" x="630.643491" y="415.0239" style="fill: #d62728; stroke: #d62728"/>
     <use xlink:href="#ma2cb0e5238" x="644.255291" y="415.023356" style="fill: #d62728; stroke: #d62728"/>
     <use xlink:href="#ma2cb0e5238" x="657.867091" y="415.022843" style="fill: #d62728; stroke: #d62728"/>
     <use xlink:href="#ma2cb0e5238" x="671.478891" y="415.022359" style="fill: #d62728; stroke: #d62728"/>
     <use xlink:href="#ma2cb0e5238" x="685.090691" y="415.021901" style="fill: #d62728; stroke: #d62728"/>
     <use xlink:href="#ma2cb0e5238" x="698.702491" y="415.021467" style="fill: #d62728; stroke: #d62728"/>
     <use xlink:href="#ma2cb0e5238" x="712.314291" y="415.021055" style="fill: #d62728; stroke: #d62728"/>
     <use xlink:href="#ma2cb0e5238" x="725.926091" y="415.020664" style="fill: #d62728; stroke: #d62728"/>
     <use xlink:href="#ma2cb0e5238" x="739.53789" y="415.020291" style="fill: #d62728; stroke: #d62728"/>
     <use xlink:href="#ma2cb0e5238" x="753.14969" y="415.019937" style="fill: #d62728; stroke: #d62728"/>
     <use xlink:href="#ma2cb0e5238" x="766.76149" y="415.019599" style="fill: #d62728; stroke: #d62728"/>
     <use xlink:href="#ma2cb0e5238" x="780.37329" y="415.019276" style="fill: #d62728; stroke: #d62728"/>
     <use xlink:href="#ma2cb0e5238" x="793.644795" y="415.018975" style="fill: #d62728; stroke: #d62728"/>
    </g>
   </g>
   <g id="line2d_35">
    <path d="M 127.006895 411.696899 
L 140.618695 412.042894 
L 154.230495 412.129231 
L 167.842295 412.308627 
L 181.454095 412.297149 
L 195.065895 411.174357 
L 208.677694 409.177578 
L 222.289494 413.681957 
L 235.901294 414.734726 
L 249.513094 415.145054 
L 263.124894 415.310647 
L 276.736694 415.427556 
L 290.348494 415.514475 
L 303.960294 415.585861 
L 317.572094 415.610959 
L 331.183894 415.6448 
L 344.795693 415.671556 
L 358.407493 415.701658 
L 372.019293 415.725859 
L 385.631093 415.75445 
L 399.242893 415.759625 
L 412.854693 415.769121 
L 426.466493 415.779879 
L 440.078293 415.791438 
L 453.690093 415.802356 
L 467.301892 415.817797 
L 480.913692 415.82839 
L 494.525492 415.828947 
L 508.137292 415.833025 
L 521.749092 415.838233 
L 535.360892 415.845883 
L 548.972692 415.855749 
L 562.584492 415.863681 
L 576.196292 415.863371 
L 589.808092 415.864182 
L 603.419891 415.868392 
L 617.031691 415.873575 
L 630.643491 415.880716 
L 644.255291 415.886282 
L 657.867091 415.886697 
L 671.478891 415.885098 
L 685.090691 415.890899 
L 698.702491 415.893979 
L 712.314291 415.900729 
L 725.926091 415.901766 
L 739.53789 415.899882 
L 753.14969 415.901382 
L 766.76149 415.906139 
L 780.37329 415.909864 
L 793.644795 415.913279 
" clip-path="url(#pdea09c7df2)" style="fill: none; stroke: #000000; stroke-width: 3; stroke-linecap: square"/>
    <defs>
     <path id="me2e6d66f57" d="M 0 3 
C 0.795609 3 1.55874 2.683901 2.12132 2.12132 
C 2.683901 1.55874 3 0.795609 3 0 
C 3 -0.795609 2.683901 -1.55874 2.12132 -2.12132 
C 1.55874 -2.683901 0.795609 -3 0 -3 
C -0.795609 -3 -1.55874 -2.683901 -2.12132 -2.12132 
C -2.683901 -1.55874 -3 -0.795609 -3 0 
C -3 0.795609 -2.683901 1.55874 -2.12132 2.12132 
C -1.55874 2.683901 -0.795609 3 0 3 
z
" style="stroke: #000000"/>
    </defs>
    <g clip-path="url(#pdea09c7df2)">
     <use xlink:href="#me2e6d66f57" x="127.006895" y="411.696899" style="stroke: #000000"/>
     <use xlink:href="#me2e6d66f57" x="140.618695" y="412.042894" style="stroke: #000000"/>
     <use xlink:href="#me2e6d66f57" x="154.230495" y="412.129231" style="stroke: #000000"/>
     <use xlink:href="#me2e6d66f57" x="167.842295" y="412.308627" style="stroke: #000000"/>
     <use xlink:href="#me2e6d66f57" x="181.454095" y="412.297149" style="stroke: #000000"/>
     <use xlink:href="#me2e6d66f57" x="195.065895" y="411.174357" style="stroke: #000000"/>
     <use xlink:href="#me2e6d66f57" x="208.677694" y="409.177578" style="stroke: #000000"/>
     <use xlink:href="#me2e6d66f57" x="222.289494" y="413.681957" style="stroke: #000000"/>
     <use xlink:href="#me2e6d66f57" x="235.901294" y="414.734726" style="stroke: #000000"/>
     <use xlink:href="#me2e6d66f57" x="249.513094" y="415.145054" style="stroke: #000000"/>
     <use xlink:href="#me2e6d66f57" x="263.124894" y="415.310647" style="stroke: #000000"/>
     <use xlink:href="#me2e6d66f57" x="276.736694" y="415.427556" style="stroke: #000000"/>
     <use xlink:href="#me2e6d66f57" x="290.348494" y="415.514475" style="stroke: #000000"/>
     <use xlink:href="#me2e6d66f57" x="303.960294" y="415.585861" style="stroke: #000000"/>
     <use xlink:href="#me2e6d66f57" x="317.572094" y="415.610959" style="stroke: #000000"/>
     <use xlink:href="#me2e6d66f57" x="331.183894" y="415.6448" style="stroke: #000000"/>
     <use xlink:href="#me2e6d66f57" x="344.795693" y="415.671556" style="stroke: #000000"/>
     <use xlink:href="#me2e6d66f57" x="358.407493" y="415.701658" style="stroke: #000000"/>
     <use xlink:href="#me2e6d66f57" x="372.019293" y="415.725859" style="stroke: #000000"/>
     <use xlink:href="#me2e6d66f57" x="385.631093" y="415.75445" style="stroke: #000000"/>
     <use xlink:href="#me2e6d66f57" x="399.242893" y="415.759625" style="stroke: #000000"/>
     <use xlink:href="#me2e6d66f57" x="412.854693" y="415.769121" style="stroke: #000000"/>
     <use xlink:href="#me2e6d66f57" x="426.466493" y="415.779879" style="stroke: #000000"/>
     <use xlink:href="#me2e6d66f57" x="440.078293" y="415.791438" style="stroke: #000000"/>
     <use xlink:href="#me2e6d66f57" x="453.690093" y="415.802356" style="stroke: #000000"/>
     <use xlink:href="#me2e6d66f57" x="467.301892" y="415.817797" style="stroke: #000000"/>
     <use xlink:href="#me2e6d66f57" x="480.913692" y="415.82839" style="stroke: #000000"/>
     <use xlink:href="#me2e6d66f57" x="494.525492" y="415.828947" style="stroke: #000000"/>
     <use xlink:href="#me2e6d66f57" x="508.137292" y="415.833025" style="stroke: #000000"/>
     <use xlink:href="#me2e6d66f57" x="521.749092" y="415.838233" style="stroke: #000000"/>
     <use xlink:href="#me2e6d66f57" x="535.360892" y="415.845883" style="stroke: #000000"/>
     <use xlink:href="#me2e6d66f57" x="548.972692" y="415.855749" style="stroke: #000000"/>
     <use xlink:href="#me2e6d66f57" x="562.584492" y="415.863681" style="stroke: #000000"/>
     <use xlink:href="#me2e6d66f57" x="576.196292" y="415.863371" style="stroke: #000000"/>
     <use xlink:href="#me2e6d66f57" x="589.808092" y="415.864182" style="stroke: #000000"/>
     <use xlink:href="#me2e6d66f57" x="603.419891" y="415.868392" style="stroke: #000000"/>
     <use xlink:href="#me2e6d66f57" x="617.031691" y="415.873575" style="stroke: #000000"/>
     <use xlink:href="#me2e6d66f57" x="630.643491" y="415.880716" style="stroke: #000000"/>
     <use xlink:href="#me2e6d66f57" x="644.255291" y="415.886282" style="stroke: #000000"/>
     <use xlink:href="#me2e6d66f57" x="657.867091" y="415.886697" style="stroke: #000000"/>
     <use xlink:href="#me2e6d66f57" x="671.478891" y="415.885098" style="stroke: #000000"/>
     <use xlink:href="#me2e6d66f57" x="685.090691" y="415.890899" style="stroke: #000000"/>
     <use xlink:href="#me2e6d66f57" x="698.702491" y="415.893979" style="stroke: #000000"/>
     <use xlink:href="#me2e6d66f57" x="712.314291" y="415.900729" style="stroke: #000000"/>
     <use xlink:href="#me2e6d66f57" x="725.926091" y="415.901766" style="stroke: #000000"/>
     <use xlink:href="#me2e6d66f57" x="739.53789" y="415.899882" style="stroke: #000000"/>
     <use xlink:href="#me2e6d66f57" x="753.14969" y="415.901382" style="stroke: #000000"/>
     <use xlink:href="#me2e6d66f57" x="766.76149" y="415.906139" style="stroke: #000000"/>
     <use xlink:href="#me2e6d66f57" x="780.37329" y="415.909864" style="stroke: #000000"/>
     <use xlink:href="#me2e6d66f57" x="793.644795" y="415.913279" style="stroke: #000000"/>
    </g>
   </g>
   <g id="patch_3">
    <path d="M 93.675 489.2325 
L 93.675 28.08 
" style="fill: none; stroke: #000000; stroke-width: 2; stroke-linejoin: miter; stroke-linecap: square"/>
   </g>
   <g id="patch_4">
    <path d="M 826.97669 489.2325 
L 826.97669 28.08 
" style="fill: none; stroke: #000000; stroke-width: 2; stroke-linejoin: miter; stroke-linecap: square"/>
   </g>
   <g id="patch_5">
    <path d="M 93.675 489.2325 
L 826.97669 489.2325 
" style="fill: none; stroke: #000000; stroke-width: 2; stroke-linejoin: miter; stroke-linecap: square"/>
   </g>
   <g id="patch_6">
    <path d="M 93.675 28.08 
L 826.97669 28.08 
" style="fill: none; stroke: #000000; stroke-width: 2; stroke-linejoin: miter; stroke-linecap: square"/>
   </g>
   <g id="legend_1">
    <g id="patch_7">
     <path d="M 677.27919 319.76875 
L 815.77669 319.76875 
Q 818.97669 319.76875 818.97669 316.56875 
L 818.97669 200.74375 
Q 818.97669 197.54375 815.77669 197.54375 
L 677.27919 197.54375 
Q 674.07919 197.54375 674.07919 200.74375 
L 674.07919 316.56875 
Q 674.07919 319.76875 677.27919 319.76875 
z
" style="fill: #ffffff; opacity: 0.8; stroke: #cccccc; stroke-linejoin: miter"/>
    </g>
    <g id="line2d_36">
     <path d="M 680.47919 210.50125 
L 696.47919 210.50125 
L 712.47919 210.50125 
" style="fill: none; stroke: #1f77b4; stroke-width: 3; stroke-linecap: square"/>
     <g>
      <use xlink:href="#me7c2dd0c9d" x="696.47919" y="210.50125" style="fill: #1f77b4; stroke: #1f77b4"/>
     </g>
    </g>
    <g id="text_13">
     <!-- Electron 1 -->
     <g transform="translate(725.27919 216.10125) scale(0.16 -0.16)">
      <defs>
       <path id="DejaVuSerif-45" d="M 353 0 
L 353 331 
L 947 331 
L 947 4331 
L 353 4331 
L 353 4666 
L 4109 4666 
L 4109 3628 
L 3725 3628 
L 3725 4281 
L 1581 4281 
L 1581 2719 
L 3109 2719 
L 3109 3303 
L 3494 3303 
L 3494 1753 
L 3109 1753 
L 3109 2338 
L 1581 2338 
L 1581 384 
L 3775 384 
L 3775 1038 
L 4159 1038 
L 4159 0 
L 353 0 
z
" transform="scale(0.015625)"/>
       <path id="DejaVuSerif-6f" d="M 1925 219 
Q 2388 219 2623 584 
Q 2859 950 2859 1663 
Q 2859 2375 2623 2739 
Q 2388 3103 1925 3103 
Q 1463 3103 1227 2739 
Q 991 2375 991 1663 
Q 991 950 1228 584 
Q 1466 219 1925 219 
z
M 1925 -91 
Q 1200 -91 759 389 
Q 319 869 319 1663 
Q 319 2456 758 2934 
Q 1197 3413 1925 3413 
Q 2653 3413 3092 2934 
Q 3531 2456 3531 1663 
Q 3531 869 3092 389 
Q 2653 -91 1925 -91 
z
" transform="scale(0.015625)"/>
      </defs>
      <use xlink:href="#DejaVuSerif-45"/>
      <use xlink:href="#DejaVuSerif-6c" x="72.998047"/>
      <use xlink:href="#DejaVuSerif-65" x="104.980469"/>
      <use xlink:href="#DejaVuSerif-63" x="164.160156"/>
      <use xlink:href="#DejaVuSerif-74" x="220.166016"/>
      <use xlink:href="#DejaVuSerif-72" x="260.351562"/>
      <use xlink:href="#DejaVuSerif-6f" x="308.154297"/>
      <use xlink:href="#DejaVuSerif-6e" x="368.359375"/>
      <use xlink:href="#DejaVuSerif-20" x="432.763672"/>
      <use xlink:href="#DejaVuSerif-31" x="464.550781"/>
     </g>
    </g>
    <g id="line2d_37">
     <path d="M 680.47919 233.98625 
L 696.47919 233.98625 
L 712.47919 233.98625 
" style="fill: none; stroke: #ff7f0e; stroke-width: 3; stroke-linecap: square"/>
     <g>
      <use xlink:href="#m6813457c1d" x="696.47919" y="233.98625" style="fill: #ff7f0e; stroke: #ff7f0e"/>
     </g>
    </g>
    <g id="text_14">
     <!-- Electron 2 -->
     <g transform="translate(725.27919 239.58625) scale(0.16 -0.16)">
      <use xlink:href="#DejaVuSerif-45"/>
      <use xlink:href="#DejaVuSerif-6c" x="72.998047"/>
      <use xlink:href="#DejaVuSerif-65" x="104.980469"/>
      <use xlink:href="#DejaVuSerif-63" x="164.160156"/>
      <use xlink:href="#DejaVuSerif-74" x="220.166016"/>
      <use xlink:href="#DejaVuSerif-72" x="260.351562"/>
      <use xlink:href="#DejaVuSerif-6f" x="308.154297"/>
      <use xlink:href="#DejaVuSerif-6e" x="368.359375"/>
      <use xlink:href="#DejaVuSerif-20" x="432.763672"/>
      <use xlink:href="#DejaVuSerif-32" x="464.550781"/>
     </g>
    </g>
    <g id="line2d_38">
     <path d="M 680.47919 257.47125 
L 696.47919 257.47125 
L 712.47919 257.47125 
" style="fill: none; stroke: #2ca02c; stroke-width: 3; stroke-linecap: square"/>
     <g>
      <use xlink:href="#mf7e8c178c7" x="696.47919" y="257.47125" style="fill: #2ca02c; stroke: #2ca02c"/>
     </g>
    </g>
    <g id="text_15">
     <!-- Electron 3 -->
     <g transform="translate(725.27919 263.07125) scale(0.16 -0.16)">
      <use xlink:href="#DejaVuSerif-45"/>
      <use xlink:href="#DejaVuSerif-6c" x="72.998047"/>
      <use xlink:href="#DejaVuSerif-65" x="104.980469"/>
      <use xlink:href="#DejaVuSerif-63" x="164.160156"/>
      <use xlink:href="#DejaVuSerif-74" x="220.166016"/>
      <use xlink:href="#DejaVuSerif-72" x="260.351562"/>
      <use xlink:href="#DejaVuSerif-6f" x="308.154297"/>
      <use xlink:href="#DejaVuSerif-6e" x="368.359375"/>
      <use xlink:href="#DejaVuSerif-20" x="432.763672"/>
      <use xlink:href="#DejaVuSerif-33" x="464.550781"/>
     </g>
    </g>
    <g id="line2d_39">
     <path d="M 680.47919 280.95625 
L 696.47919 280.95625 
L 712.47919 280.95625 
" style="fill: none; stroke: #d62728; stroke-width: 3; stroke-linecap: square"/>
     <g>
      <use xlink:href="#ma2cb0e5238" x="696.47919" y="280.95625" style="fill: #d62728; stroke: #d62728"/>
     </g>
    </g>
    <g id="text_16">
     <!-- Electron 4 -->
     <g transform="translate(725.27919 286.55625) scale(0.16 -0.16)">
      <defs>
       <path id="DejaVuSerif-34" d="M 2234 1581 
L 2234 4063 
L 641 1581 
L 2234 1581 
z
M 3609 0 
L 1484 0 
L 1484 331 
L 2234 331 
L 2234 1247 
L 197 1247 
L 197 1588 
L 2241 4750 
L 2859 4750 
L 2859 1581 
L 3750 1581 
L 3750 1247 
L 2859 1247 
L 2859 331 
L 3609 331 
L 3609 0 
z
" transform="scale(0.015625)"/>
      </defs>
      <use xlink:href="#DejaVuSerif-45"/>
      <use xlink:href="#DejaVuSerif-6c" x="72.998047"/>
      <use xlink:href="#DejaVuSerif-65" x="104.980469"/>
      <use xlink:href="#DejaVuSerif-63" x="164.160156"/>
      <use xlink:href="#DejaVuSerif-74" x="220.166016"/>
      <use xlink:href="#DejaVuSerif-72" x="260.351562"/>
      <use xlink:href="#DejaVuSerif-6f" x="308.154297"/>
      <use xlink:href="#DejaVuSerif-6e" x="368.359375"/>
      <use xlink:href="#DejaVuSerif-20" x="432.763672"/>
      <use xlink:href="#DejaVuSerif-34" x="464.550781"/>
     </g>
    </g>
    <g id="line2d_40">
     <path d="M 680.47919 304.44125 
L 696.47919 304.44125 
L 712.47919 304.44125 
" style="fill: none; stroke: #000000; stroke-width: 3; stroke-linecap: square"/>
     <g>
      <use xlink:href="#me2e6d66f57" x="696.47919" y="304.44125" style="stroke: #000000"/>
     </g>
    </g>
    <g id="text_17">
     <!-- Antiproton -->
     <g transform="translate(725.27919 310.04125) scale(0.16 -0.16)">
      <defs>
       <path id="DejaVuSerif-41" d="M 1281 1691 
L 2994 1691 
L 2138 3909 
L 1281 1691 
z
M -38 0 
L -38 331 
L 372 331 
L 2034 4666 
L 2559 4666 
L 4225 331 
L 4684 331 
L 4684 0 
L 2988 0 
L 2988 331 
L 3506 331 
L 3116 1356 
L 1153 1356 
L 763 331 
L 1275 331 
L 1275 0 
L -38 0 
z
" transform="scale(0.015625)"/>
       <path id="DejaVuSerif-70" d="M 1313 1825 
L 1313 1497 
Q 1313 897 1542 583 
Q 1772 269 2209 269 
Q 2650 269 2876 622 
Q 3103 975 3103 1663 
Q 3103 2353 2876 2703 
Q 2650 3053 2209 3053 
Q 1772 3053 1542 2737 
Q 1313 2422 1313 1825 
z
M 738 2988 
L 184 2988 
L 184 3322 
L 1313 3322 
L 1313 2803 
Q 1481 3116 1742 3264 
Q 2003 3413 2388 3413 
Q 3000 3413 3387 2928 
Q 3775 2444 3775 1663 
Q 3775 881 3387 395 
Q 3000 -91 2388 -91 
Q 2003 -91 1742 57 
Q 1481 206 1313 519 
L 1313 -997 
L 1856 -997 
L 1856 -1331 
L 184 -1331 
L 184 -997 
L 738 -997 
L 738 2988 
z
" transform="scale(0.015625)"/>
      </defs>
      <use xlink:href="#DejaVuSerif-41"/>
      <use xlink:href="#DejaVuSerif-6e" x="72.216797"/>
      <use xlink:href="#DejaVuSerif-74" x="136.621094"/>
      <use xlink:href="#DejaVuSerif-69" x="176.806641"/>
      <use xlink:href="#DejaVuSerif-70" x="208.789062"/>
      <use xlink:href="#DejaVuSerif-72" x="272.802734"/>
      <use xlink:href="#DejaVuSerif-6f" x="320.605469"/>
      <use xlink:href="#DejaVuSerif-74" x="380.810547"/>
      <use xlink:href="#DejaVuSerif-6f" x="420.996094"/>
      <use xlink:href="#DejaVuSerif-6e" x="481.201172"/>
     </g>
    </g>
   </g>
  </g>
 </g>
 <defs>
  <clipPath id="pdea09c7df2">
   <rect x="93.675" y="28.08" width="733.30169" height="461.1525"/>
  </clipPath>
 </defs>
</svg>
