<?xml version="1.0" encoding="utf-8" standalone="no"?>
<!DOCTYPE svg PUBLIC "-//W3C//DTD SVG 1.1//EN"
  "http://www.w3.org/Graphics/SVG/1.1/DTD/svg11.dtd">
<svg xmlns:xlink="http://www.w3.org/1999/xlink" width="864pt" height="432pt" viewBox="0 0 864 432" xmlns="http://www.w3.org/2000/svg" version="1.1">
 <metadata>
  <rdf:RDF xmlns:dc="http://purl.org/dc/elements/1.1/" xmlns:cc="http://creativecommons.org/ns#" xmlns:rdf="http://www.w3.org/1999/02/22-rdf-syntax-ns#">
   <cc:Work>
    <dc:type rdf:resource="http://purl.org/dc/dcmitype/StillImage"/>
    <dc:date>2025-06-12T16:25:36.793191</dc:date>
    <dc:format>image/svg+xml</dc:format>
    <dc:creator>
     <cc:Agent>
      <dc:title>Matplotlib v3.7.2, https://matplotlib.org/</dc:title>
     </cc:Agent>
    </dc:creator>
   </cc:Work>
  </rdf:RDF>
 </metadata>
 <defs>
  <style type="text/css">*{stroke-linejoin: round; stroke-linecap: butt}</style>
 </defs>
 <g id="figure_1">
  <g id="patch_1">
   <path d="M 0 432 
L 864 432 
L 864 0 
L 0 0 
z
" style="fill: #ffffff"/>
  </g>
  <g id="axes_1">
   <g id="patch_2">
    <path d="M 123.24 345.2325 
L 450.76 345.2325 
L 450.76 28.08 
L 123.24 28.08 
z
" style="fill: #ffffff"/>
   </g>
   <g id="matplotlib.axis_1">
    <g id="xtick_1">
     <g id="line2d_1">
      <path d="M 135.239491 345.2325 
L 135.239491 28.08 
" clip-path="url(#p424d30734a)" style="fill: none; stroke-dasharray: 3.7,1.6; stroke-dashoffset: 0; stroke: #b0b0b0; stroke-opacity: 0.5"/>
     </g>
     <g id="line2d_2">
      <defs>
       <path id="mb3eaa5d74e" d="M 0 0 
L 0 -10 
" style="stroke: #000000; stroke-width: 2"/>
      </defs>
      <g>
       <use xlink:href="#mb3eaa5d74e" x="135.239491" y="345.2325" style="stroke: #000000; stroke-width: 2"/>
      </g>
     </g>
     <g id="line2d_3">
      <defs>
       <path id="m56e1d48958" d="M 0 0 
L 0 10 
" style="stroke: #000000; stroke-width: 2"/>
      </defs>
      <g>
       <use xlink:href="#m56e1d48958" x="135.239491" y="28.08" style="stroke: #000000; stroke-width: 2"/>
      </g>
     </g>
     <g id="text_1">
      <!-- 0 -->
      <g transform="translate(126.968241 368.488437) scale(0.26 -0.26)">
       <defs>
        <path id="DejaVuSerif-30" d="M 2034 219 
Q 2513 219 2750 744 
Q 2988 1269 2988 2328 
Q 2988 3391 2750 3916 
Q 2513 4441 2034 4441 
Q 1556 4441 1318 3916 
Q 1081 3391 1081 2328 
Q 1081 1269 1318 744 
Q 1556 219 2034 219 
z
M 2034 -91 
Q 1275 -91 848 546 
Q 422 1184 422 2328 
Q 422 3475 848 4112 
Q 1275 4750 2034 4750 
Q 2797 4750 3222 4112 
Q 3647 3475 3647 2328 
Q 3647 1184 3222 546 
Q 2797 -91 2034 -91 
z
" transform="scale(0.015625)"/>
       </defs>
       <use xlink:href="#DejaVuSerif-30"/>
      </g>
     </g>
    </g>
    <g id="xtick_2">
     <g id="line2d_4">
      <path d="M 256.708694 345.2325 
L 256.708694 28.08 
" clip-path="url(#p424d30734a)" style="fill: none; stroke-dasharray: 3.7,1.6; stroke-dashoffset: 0; stroke: #b0b0b0; stroke-opacity: 0.5"/>
     </g>
     <g id="line2d_5">
      <g>
       <use xlink:href="#mb3eaa5d74e" x="256.708694" y="345.2325" style="stroke: #000000; stroke-width: 2"/>
      </g>
     </g>
     <g id="line2d_6">
      <g>
       <use xlink:href="#m56e1d48958" x="256.708694" y="28.08" style="stroke: #000000; stroke-width: 2"/>
      </g>
     </g>
     <g id="text_2">
      <!-- 1000 -->
      <g transform="translate(223.623694 368.488437) scale(0.26 -0.26)">
       <defs>
        <path id="DejaVuSerif-31" d="M 909 0 
L 909 331 
L 1722 331 
L 1722 4213 
L 781 3603 
L 781 4013 
L 1919 4750 
L 2350 4750 
L 2350 331 
L 3163 331 
L 3163 0 
L 909 0 
z
" transform="scale(0.015625)"/>
       </defs>
       <use xlink:href="#DejaVuSerif-31"/>
       <use xlink:href="#DejaVuSerif-30" x="63.623047"/>
       <use xlink:href="#DejaVuSerif-30" x="127.246094"/>
       <use xlink:href="#DejaVuSerif-30" x="190.869141"/>
      </g>
     </g>
    </g>
    <g id="xtick_3">
     <g id="line2d_7">
      <path d="M 378.177896 345.2325 
L 378.177896 28.08 
" clip-path="url(#p424d30734a)" style="fill: none; stroke-dasharray: 3.7,1.6; stroke-dashoffset: 0; stroke: #b0b0b0; stroke-opacity: 0.5"/>
     </g>
     <g id="line2d_8">
      <g>
       <use xlink:href="#mb3eaa5d74e" x="378.177896" y="345.2325" style="stroke: #000000; stroke-width: 2"/>
      </g>
     </g>
     <g id="line2d_9">
      <g>
       <use xlink:href="#m56e1d48958" x="378.177896" y="28.08" style="stroke: #000000; stroke-width: 2"/>
      </g>
     </g>
     <g id="text_3">
      <!-- 2000 -->
      <g transform="translate(345.092896 368.488437) scale(0.26 -0.26)">
       <defs>
        <path id="DejaVuSerif-32" d="M 819 3553 
L 469 3553 
L 469 4384 
Q 803 4563 1142 4656 
Q 1481 4750 1806 4750 
Q 2534 4750 2956 4397 
Q 3378 4044 3378 3438 
Q 3378 2753 2422 1800 
Q 2347 1728 2309 1691 
L 1131 513 
L 3078 513 
L 3078 1088 
L 3444 1088 
L 3444 0 
L 434 0 
L 434 341 
L 1850 1753 
Q 2319 2222 2519 2614 
Q 2719 3006 2719 3438 
Q 2719 3909 2473 4175 
Q 2228 4441 1797 4441 
Q 1350 4441 1106 4219 
Q 863 3997 819 3553 
z
" transform="scale(0.015625)"/>
       </defs>
       <use xlink:href="#DejaVuSerif-32"/>
       <use xlink:href="#DejaVuSerif-30" x="63.623047"/>
       <use xlink:href="#DejaVuSerif-30" x="127.246094"/>
       <use xlink:href="#DejaVuSerif-30" x="190.869141"/>
      </g>
     </g>
    </g>
    <g id="text_4">
     <!-- $t$ (a.u.) -->
     <g transform="translate(243.58 397.651563) scale(0.26 -0.26)">
      <defs>
       <path id="Cmmi10-74" d="M 397 519 
Q 397 613 416 697 
L 878 2534 
L 206 2534 
Q 141 2534 141 2619 
Q 166 2759 225 2759 
L 934 2759 
L 1191 3803 
Q 1216 3888 1291 3947 
Q 1366 4006 1459 4006 
Q 1541 4006 1595 3957 
Q 1650 3909 1650 3828 
Q 1650 3809 1648 3798 
Q 1647 3788 1644 3775 
L 1388 2759 
L 2047 2759 
Q 2113 2759 2113 2675 
Q 2109 2659 2100 2621 
Q 2091 2584 2075 2559 
Q 2059 2534 2028 2534 
L 1331 2534 
L 872 684 
Q 825 503 825 372 
Q 825 97 1013 97 
Q 1294 97 1511 361 
Q 1728 625 1844 941 
Q 1869 978 1894 978 
L 1972 978 
Q 1997 978 2012 961 
Q 2028 944 2028 922 
Q 2028 909 2022 903 
Q 1881 516 1612 222 
Q 1344 -72 997 -72 
Q 744 -72 570 93 
Q 397 259 397 519 
z
" transform="scale(0.015625)"/>
       <path id="DejaVuSerif-20" transform="scale(0.015625)"/>
       <path id="DejaVuSerif-28" d="M 2041 -997 
Q 1281 -656 893 83 
Q 506 822 506 1931 
Q 506 3044 893 3783 
Q 1281 4522 2041 4863 
L 2041 4556 
Q 1559 4225 1350 3623 
Q 1141 3022 1141 1931 
Q 1141 844 1350 242 
Q 1559 -359 2041 -691 
L 2041 -997 
z
" transform="scale(0.015625)"/>
       <path id="DejaVuSerif-61" d="M 2547 1044 
L 2547 1747 
L 1806 1747 
Q 1378 1747 1168 1562 
Q 959 1378 959 997 
Q 959 650 1171 447 
Q 1384 244 1747 244 
Q 2106 244 2326 466 
Q 2547 688 2547 1044 
z
M 3122 2075 
L 3122 331 
L 3634 331 
L 3634 0 
L 2547 0 
L 2547 359 
Q 2356 128 2106 18 
Q 1856 -91 1522 -91 
Q 969 -91 644 203 
Q 319 497 319 997 
Q 319 1513 691 1797 
Q 1063 2081 1741 2081 
L 2547 2081 
L 2547 2309 
Q 2547 2688 2317 2895 
Q 2088 3103 1672 3103 
Q 1328 3103 1125 2947 
Q 922 2791 872 2484 
L 575 2484 
L 575 3156 
Q 875 3284 1158 3348 
Q 1441 3413 1709 3413 
Q 2400 3413 2761 3070 
Q 3122 2728 3122 2075 
z
" transform="scale(0.015625)"/>
       <path id="DejaVuSerif-2e" d="M 603 325 
Q 603 500 722 622 
Q 841 744 1019 744 
Q 1191 744 1312 622 
Q 1434 500 1434 325 
Q 1434 153 1312 31 
Q 1191 -91 1019 -91 
Q 841 -91 722 29 
Q 603 150 603 325 
z
" transform="scale(0.015625)"/>
       <path id="DejaVuSerif-75" d="M 2266 3322 
L 3341 3322 
L 3341 331 
L 3884 331 
L 3884 0 
L 2766 0 
L 2766 588 
Q 2606 256 2353 82 
Q 2100 -91 1766 -91 
Q 1213 -91 952 223 
Q 691 538 691 1209 
L 691 2988 
L 172 2988 
L 172 3322 
L 1269 3322 
L 1269 1388 
Q 1269 781 1417 556 
Q 1566 331 1947 331 
Q 2347 331 2556 625 
Q 2766 919 2766 1478 
L 2766 2988 
L 2266 2988 
L 2266 3322 
z
" transform="scale(0.015625)"/>
       <path id="DejaVuSerif-29" d="M 453 -997 
L 453 -691 
Q 934 -359 1145 242 
Q 1356 844 1356 1931 
Q 1356 3022 1145 3623 
Q 934 4225 453 4556 
L 453 4863 
Q 1216 4522 1603 3783 
Q 1991 3044 1991 1931 
Q 1991 822 1603 83 
Q 1216 -656 453 -997 
z
" transform="scale(0.015625)"/>
      </defs>
      <use xlink:href="#Cmmi10-74" transform="translate(0 0.015625)"/>
      <use xlink:href="#DejaVuSerif-20" transform="translate(36.083984 0.015625)"/>
      <use xlink:href="#DejaVuSerif-28" transform="translate(67.871094 0.015625)"/>
      <use xlink:href="#DejaVuSerif-61" transform="translate(106.884766 0.015625)"/>
      <use xlink:href="#DejaVuSerif-2e" transform="translate(166.503906 0.015625)"/>
      <use xlink:href="#DejaVuSerif-75" transform="translate(198.291016 0.015625)"/>
      <use xlink:href="#DejaVuSerif-2e" transform="translate(262.695312 0.015625)"/>
      <use xlink:href="#DejaVuSerif-29" transform="translate(294.482422 0.015625)"/>
     </g>
    </g>
   </g>
   <g id="matplotlib.axis_2">
    <g id="ytick_1">
     <g id="line2d_10">
      <path d="M 123.24 266.189787 
L 450.76 266.189787 
" clip-path="url(#p424d30734a)" style="fill: none; stroke-dasharray: 3.7,1.6; stroke-dashoffset: 0; stroke: #b0b0b0; stroke-opacity: 0.5"/>
     </g>
     <g id="line2d_11">
      <defs>
       <path id="ma318b7eaa3" d="M 0 0 
L 10 0 
" style="stroke: #000000; stroke-width: 2"/>
      </defs>
      <g>
       <use xlink:href="#ma318b7eaa3" x="123.24" y="266.189787" style="stroke: #000000; stroke-width: 2"/>
      </g>
     </g>
     <g id="line2d_12">
      <defs>
       <path id="m35ebf0a461" d="M 0 0 
L -10 0 
" style="stroke: #000000; stroke-width: 2"/>
      </defs>
      <g>
       <use xlink:href="#m35ebf0a461" x="450.76" y="266.189787" style="stroke: #000000; stroke-width: 2"/>
      </g>
     </g>
     <g id="text_5">
      <!-- 51.4 -->
      <g transform="translate(61.849375 276.067756) scale(0.26 -0.26)">
       <defs>
        <path id="DejaVuSerif-35" d="M 3219 4666 
L 3219 4153 
L 1081 4153 
L 1081 2816 
Q 1244 2928 1461 2984 
Q 1678 3041 1947 3041 
Q 2703 3041 3140 2622 
Q 3578 2203 3578 1478 
Q 3578 738 3136 323 
Q 2694 -91 1894 -91 
Q 1572 -91 1234 -12 
Q 897 66 544 225 
L 544 1131 
L 897 1131 
Q 925 688 1179 453 
Q 1434 219 1894 219 
Q 2388 219 2653 544 
Q 2919 869 2919 1478 
Q 2919 2084 2655 2407 
Q 2391 2731 1894 2731 
Q 1613 2731 1398 2631 
Q 1184 2531 1019 2322 
L 750 2322 
L 750 4666 
L 3219 4666 
z
" transform="scale(0.015625)"/>
        <path id="DejaVuSerif-34" d="M 2234 1581 
L 2234 4063 
L 641 1581 
L 2234 1581 
z
M 3609 0 
L 1484 0 
L 1484 331 
L 2234 331 
L 2234 1247 
L 197 1247 
L 197 1588 
L 2241 4750 
L 2859 4750 
L 2859 1581 
L 3750 1581 
L 3750 1247 
L 2859 1247 
L 2859 331 
L 3609 331 
L 3609 0 
z
" transform="scale(0.015625)"/>
       </defs>
       <use xlink:href="#DejaVuSerif-35"/>
       <use xlink:href="#DejaVuSerif-31" x="63.623047"/>
       <use xlink:href="#DejaVuSerif-2e" x="127.246094"/>
       <use xlink:href="#DejaVuSerif-34" x="159.033203"/>
      </g>
     </g>
    </g>
    <g id="ytick_2">
     <g id="line2d_13">
      <path d="M 123.24 172.487652 
L 450.76 172.487652 
" clip-path="url(#p424d30734a)" style="fill: none; stroke-dasharray: 3.7,1.6; stroke-dashoffset: 0; stroke: #b0b0b0; stroke-opacity: 0.5"/>
     </g>
     <g id="line2d_14">
      <g>
       <use xlink:href="#ma318b7eaa3" x="123.24" y="172.487652" style="stroke: #000000; stroke-width: 2"/>
      </g>
     </g>
     <g id="line2d_15">
      <g>
       <use xlink:href="#m35ebf0a461" x="450.76" y="172.487652" style="stroke: #000000; stroke-width: 2"/>
      </g>
     </g>
     <g id="text_6">
      <!-- 51.5 -->
      <g transform="translate(61.849375 182.365621) scale(0.26 -0.26)">
       <use xlink:href="#DejaVuSerif-35"/>
       <use xlink:href="#DejaVuSerif-31" x="63.623047"/>
       <use xlink:href="#DejaVuSerif-2e" x="127.246094"/>
       <use xlink:href="#DejaVuSerif-35" x="159.033203"/>
      </g>
     </g>
    </g>
    <g id="ytick_3">
     <g id="line2d_16">
      <path d="M 123.24 78.785516 
L 450.76 78.785516 
" clip-path="url(#p424d30734a)" style="fill: none; stroke-dasharray: 3.7,1.6; stroke-dashoffset: 0; stroke: #b0b0b0; stroke-opacity: 0.5"/>
     </g>
     <g id="line2d_17">
      <g>
       <use xlink:href="#ma318b7eaa3" x="123.24" y="78.785516" style="stroke: #000000; stroke-width: 2"/>
      </g>
     </g>
     <g id="line2d_18">
      <g>
       <use xlink:href="#m35ebf0a461" x="450.76" y="78.785516" style="stroke: #000000; stroke-width: 2"/>
      </g>
     </g>
     <g id="text_7">
      <!-- 51.6 -->
      <g transform="translate(61.849375 88.663485) scale(0.26 -0.26)">
       <defs>
        <path id="DejaVuSerif-36" d="M 2094 219 
Q 2534 219 2771 542 
Q 3009 866 3009 1472 
Q 3009 2078 2771 2401 
Q 2534 2725 2094 2725 
Q 1647 2725 1412 2412 
Q 1178 2100 1178 1509 
Q 1178 888 1415 553 
Q 1653 219 2094 219 
z
M 1075 2569 
Q 1288 2803 1556 2918 
Q 1825 3034 2163 3034 
Q 2859 3034 3264 2615 
Q 3669 2197 3669 1472 
Q 3669 763 3233 336 
Q 2797 -91 2069 -91 
Q 1278 -91 853 498 
Q 428 1088 428 2181 
Q 428 3406 931 4078 
Q 1434 4750 2350 4750 
Q 2597 4750 2869 4703 
Q 3141 4656 3425 4563 
L 3425 3794 
L 3072 3794 
Q 3034 4109 2831 4275 
Q 2628 4441 2284 4441 
Q 1678 4441 1381 3981 
Q 1084 3522 1075 2569 
z
" transform="scale(0.015625)"/>
       </defs>
       <use xlink:href="#DejaVuSerif-35"/>
       <use xlink:href="#DejaVuSerif-31" x="63.623047"/>
       <use xlink:href="#DejaVuSerif-2e" x="127.246094"/>
       <use xlink:href="#DejaVuSerif-36" x="159.033203"/>
      </g>
     </g>
    </g>
    <g id="text_8">
     <!-- $E(t)$ (a.u.) -->
     <g transform="translate(51.349375 249.70625) rotate(-90) scale(0.26 -0.26)">
      <defs>
       <path id="Cmmi10-45" d="M 300 0 
Q 238 0 238 84 
Q 241 100 250 139 
Q 259 178 276 201 
Q 294 225 319 225 
Q 709 225 863 269 
Q 947 297 984 441 
L 1863 3956 
Q 1875 4019 1875 4044 
Q 1875 4113 1797 4122 
Q 1678 4147 1338 4147 
Q 1275 4147 1275 4231 
Q 1278 4247 1287 4286 
Q 1297 4325 1314 4348 
Q 1331 4372 1356 4372 
L 4825 4372 
Q 4891 4372 4891 4288 
L 4738 2963 
Q 4738 2947 4714 2926 
Q 4691 2906 4672 2906 
L 4616 2906 
Q 4550 2906 4550 2988 
Q 4588 3300 4588 3450 
Q 4588 3706 4500 3848 
Q 4413 3991 4267 4053 
Q 4122 4116 3945 4131 
Q 3769 4147 3481 4147 
L 2753 4147 
Q 2578 4147 2522 4117 
Q 2466 4088 2419 3928 
L 2034 2381 
L 2534 2381 
Q 2859 2381 3025 2426 
Q 3191 2472 3287 2615 
Q 3384 2759 3463 3072 
Q 3469 3094 3486 3111 
Q 3503 3128 3525 3128 
L 3584 3128 
Q 3647 3128 3647 3047 
L 3250 1466 
Q 3238 1409 3188 1409 
L 3128 1409 
Q 3066 1409 3066 1491 
Q 3128 1747 3128 1869 
Q 3128 2056 2959 2106 
Q 2791 2156 2509 2156 
L 1978 2156 
L 1544 416 
Q 1516 338 1516 275 
Q 1516 225 1734 225 
L 2509 225 
Q 2972 225 3259 297 
Q 3547 369 3736 526 
Q 3925 684 4062 928 
Q 4200 1172 4397 1638 
Q 4409 1678 4453 1678 
L 4513 1678 
Q 4538 1678 4556 1656 
Q 4575 1634 4575 1606 
Q 4575 1594 4569 1581 
L 3909 38 
Q 3897 0 3859 0 
L 300 0 
z
" transform="scale(0.015625)"/>
       <path id="Cmr10-28" d="M 1984 -1588 
Q 1628 -1306 1370 -942 
Q 1113 -578 948 -165 
Q 784 247 703 697 
Q 622 1147 622 1600 
Q 622 2059 703 2509 
Q 784 2959 951 3375 
Q 1119 3791 1378 4153 
Q 1638 4516 1984 4788 
Q 1984 4800 2016 4800 
L 2075 4800 
Q 2094 4800 2109 4783 
Q 2125 4766 2125 4744 
Q 2125 4716 2113 4703 
Q 1800 4397 1592 4047 
Q 1384 3697 1257 3301 
Q 1131 2906 1075 2482 
Q 1019 2059 1019 1600 
Q 1019 -434 2106 -1491 
Q 2125 -1509 2125 -1544 
Q 2125 -1559 2108 -1579 
Q 2091 -1600 2075 -1600 
L 2016 -1600 
Q 1984 -1600 1984 -1588 
z
" transform="scale(0.015625)"/>
       <path id="Cmr10-29" d="M 416 -1600 
Q 359 -1600 359 -1544 
Q 359 -1516 372 -1503 
Q 1466 -434 1466 1600 
Q 1466 3634 384 4691 
Q 359 4706 359 4744 
Q 359 4766 376 4783 
Q 394 4800 416 4800 
L 475 4800 
Q 494 4800 506 4788 
Q 966 4425 1272 3906 
Q 1578 3388 1720 2800 
Q 1863 2213 1863 1600 
Q 1863 1147 1786 708 
Q 1709 269 1542 -157 
Q 1375 -584 1119 -945 
Q 863 -1306 506 -1588 
Q 494 -1600 475 -1600 
L 416 -1600 
z
" transform="scale(0.015625)"/>
      </defs>
      <use xlink:href="#Cmmi10-45" transform="translate(0 0.015625)"/>
      <use xlink:href="#Cmr10-28" transform="translate(73.779297 0.015625)"/>
      <use xlink:href="#Cmmi10-74" transform="translate(112.597656 0.015625)"/>
      <use xlink:href="#Cmr10-29" transform="translate(148.681641 0.015625)"/>
      <use xlink:href="#DejaVuSerif-20" transform="translate(187.5 0.015625)"/>
      <use xlink:href="#DejaVuSerif-28" transform="translate(219.287109 0.015625)"/>
      <use xlink:href="#DejaVuSerif-61" transform="translate(258.300781 0.015625)"/>
      <use xlink:href="#DejaVuSerif-2e" transform="translate(317.919922 0.015625)"/>
      <use xlink:href="#DejaVuSerif-75" transform="translate(349.707031 0.015625)"/>
      <use xlink:href="#DejaVuSerif-2e" transform="translate(414.111328 0.015625)"/>
      <use xlink:href="#DejaVuSerif-29" transform="translate(445.898438 0.015625)"/>
     </g>
    </g>
   </g>
   <g id="line2d_19">
    <path d="M 138.127273 294.366919 
L 144.206812 290.792691 
L 150.286352 286.720919 
L 156.365892 282.144252 
L 162.445431 275.927831 
L 168.524971 268.238994 
L 174.604511 256.664521 
L 180.68405 235.878622 
L 186.76359 179.102721 
L 192.84313 42.496023 
L 198.922669 239.057726 
L 205.002209 270.901246 
L 211.081749 285.447017 
L 217.161288 293.888849 
L 223.240828 299.618791 
L 229.320368 303.785896 
L 235.399907 306.965869 
L 241.479447 309.391498 
L 247.558986 311.774429 
L 253.638526 313.494044 
L 259.718066 314.791625 
L 265.797605 315.874795 
L 271.877145 316.889429 
L 277.956685 317.565355 
L 284.036224 317.924918 
L 290.115764 317.990296 
L 296.195304 317.961565 
L 302.274843 317.661622 
L 308.354383 316.909509 
L 314.433923 315.532746 
L 320.513462 313.475775 
L 326.593002 310.772741 
L 332.672542 306.306764 
L 338.752081 298.87604 
L 344.831621 285.651491 
L 350.911161 255.601986 
L 356.9907 92.929461 
L 363.07024 261.720056 
L 369.14978 314.058344 
L 375.229319 328.02588 
L 381.308859 330.816477 
L 387.388399 325.64192 
L 393.467938 304.993147 
L 399.547478 194.255654 
L 405.627017 108.052538 
L 411.706557 170.77152 
L 417.786097 185.979969 
L 423.865636 186.03039 
L 429.945176 169.930623 
L 435.872727 97.896603 
" clip-path="url(#p424d30734a)" style="fill: none; stroke: #1f77b4; stroke-width: 3; stroke-linecap: square"/>
    <defs>
     <path id="m3225729b58" d="M 0 3 
C 0.795609 3 1.55874 2.683901 2.12132 2.12132 
C 2.683901 1.55874 3 0.795609 3 0 
C 3 -0.795609 2.683901 -1.55874 2.12132 -2.12132 
C 1.55874 -2.683901 0.795609 -3 0 -3 
C -0.795609 -3 -1.55874 -2.683901 -2.12132 -2.12132 
C -2.683901 -1.55874 -3 -0.795609 -3 0 
C -3 0.795609 -2.683901 1.55874 -2.12132 2.12132 
C -1.55874 2.683901 -0.795609 3 0 3 
z
" style="stroke: #1f77b4"/>
    </defs>
    <g clip-path="url(#p424d30734a)">
     <use xlink:href="#m3225729b58" x="138.127273" y="294.366919" style="fill: #1f77b4; stroke: #1f77b4"/>
     <use xlink:href="#m3225729b58" x="144.206812" y="290.792691" style="fill: #1f77b4; stroke: #1f77b4"/>
     <use xlink:href="#m3225729b58" x="150.286352" y="286.720919" style="fill: #1f77b4; stroke: #1f77b4"/>
     <use xlink:href="#m3225729b58" x="156.365892" y="282.144252" style="fill: #1f77b4; stroke: #1f77b4"/>
     <use xlink:href="#m3225729b58" x="162.445431" y="275.927831" style="fill: #1f77b4; stroke: #1f77b4"/>
     <use xlink:href="#m3225729b58" x="168.524971" y="268.238994" style="fill: #1f77b4; stroke: #1f77b4"/>
     <use xlink:href="#m3225729b58" x="174.604511" y="256.664521" style="fill: #1f77b4; stroke: #1f77b4"/>
     <use xlink:href="#m3225729b58" x="180.68405" y="235.878622" style="fill: #1f77b4; stroke: #1f77b4"/>
     <use xlink:href="#m3225729b58" x="186.76359" y="179.102721" style="fill: #1f77b4; stroke: #1f77b4"/>
     <use xlink:href="#m3225729b58" x="192.84313" y="42.496023" style="fill: #1f77b4; stroke: #1f77b4"/>
     <use xlink:href="#m3225729b58" x="198.922669" y="239.057726" style="fill: #1f77b4; stroke: #1f77b4"/>
     <use xlink:href="#m3225729b58" x="205.002209" y="270.901246" style="fill: #1f77b4; stroke: #1f77b4"/>
     <use xlink:href="#m3225729b58" x="211.081749" y="285.447017" style="fill: #1f77b4; stroke: #1f77b4"/>
     <use xlink:href="#m3225729b58" x="217.161288" y="293.888849" style="fill: #1f77b4; stroke: #1f77b4"/>
     <use xlink:href="#m3225729b58" x="223.240828" y="299.618791" style="fill: #1f77b4; stroke: #1f77b4"/>
     <use xlink:href="#m3225729b58" x="229.320368" y="303.785896" style="fill: #1f77b4; stroke: #1f77b4"/>
     <use xlink:href="#m3225729b58" x="235.399907" y="306.965869" style="fill: #1f77b4; stroke: #1f77b4"/>
     <use xlink:href="#m3225729b58" x="241.479447" y="309.391498" style="fill: #1f77b4; stroke: #1f77b4"/>
     <use xlink:href="#m3225729b58" x="247.558986" y="311.774429" style="fill: #1f77b4; stroke: #1f77b4"/>
     <use xlink:href="#m3225729b58" x="253.638526" y="313.494044" style="fill: #1f77b4; stroke: #1f77b4"/>
     <use xlink:href="#m3225729b58" x="259.718066" y="314.791625" style="fill: #1f77b4; stroke: #1f77b4"/>
     <use xlink:href="#m3225729b58" x="265.797605" y="315.874795" style="fill: #1f77b4; stroke: #1f77b4"/>
     <use xlink:href="#m3225729b58" x="271.877145" y="316.889429" style="fill: #1f77b4; stroke: #1f77b4"/>
     <use xlink:href="#m3225729b58" x="277.956685" y="317.565355" style="fill: #1f77b4; stroke: #1f77b4"/>
     <use xlink:href="#m3225729b58" x="284.036224" y="317.924918" style="fill: #1f77b4; stroke: #1f77b4"/>
     <use xlink:href="#m3225729b58" x="290.115764" y="317.990296" style="fill: #1f77b4; stroke: #1f77b4"/>
     <use xlink:href="#m3225729b58" x="296.195304" y="317.961565" style="fill: #1f77b4; stroke: #1f77b4"/>
     <use xlink:href="#m3225729b58" x="302.274843" y="317.661622" style="fill: #1f77b4; stroke: #1f77b4"/>
     <use xlink:href="#m3225729b58" x="308.354383" y="316.909509" style="fill: #1f77b4; stroke: #1f77b4"/>
     <use xlink:href="#m3225729b58" x="314.433923" y="315.532746" style="fill: #1f77b4; stroke: #1f77b4"/>
     <use xlink:href="#m3225729b58" x="320.513462" y="313.475775" style="fill: #1f77b4; stroke: #1f77b4"/>
     <use xlink:href="#m3225729b58" x="326.593002" y="310.772741" style="fill: #1f77b4; stroke: #1f77b4"/>
     <use xlink:href="#m3225729b58" x="332.672542" y="306.306764" style="fill: #1f77b4; stroke: #1f77b4"/>
     <use xlink:href="#m3225729b58" x="338.752081" y="298.87604" style="fill: #1f77b4; stroke: #1f77b4"/>
     <use xlink:href="#m3225729b58" x="344.831621" y="285.651491" style="fill: #1f77b4; stroke: #1f77b4"/>
     <use xlink:href="#m3225729b58" x="350.911161" y="255.601986" style="fill: #1f77b4; stroke: #1f77b4"/>
     <use xlink:href="#m3225729b58" x="356.9907" y="92.929461" style="fill: #1f77b4; stroke: #1f77b4"/>
     <use xlink:href="#m3225729b58" x="363.07024" y="261.720056" style="fill: #1f77b4; stroke: #1f77b4"/>
     <use xlink:href="#m3225729b58" x="369.14978" y="314.058344" style="fill: #1f77b4; stroke: #1f77b4"/>
     <use xlink:href="#m3225729b58" x="375.229319" y="328.02588" style="fill: #1f77b4; stroke: #1f77b4"/>
     <use xlink:href="#m3225729b58" x="381.308859" y="330.816477" style="fill: #1f77b4; stroke: #1f77b4"/>
     <use xlink:href="#m3225729b58" x="387.388399" y="325.64192" style="fill: #1f77b4; stroke: #1f77b4"/>
     <use xlink:href="#m3225729b58" x="393.467938" y="304.993147" style="fill: #1f77b4; stroke: #1f77b4"/>
     <use xlink:href="#m3225729b58" x="399.547478" y="194.255654" style="fill: #1f77b4; stroke: #1f77b4"/>
     <use xlink:href="#m3225729b58" x="405.627017" y="108.052538" style="fill: #1f77b4; stroke: #1f77b4"/>
     <use xlink:href="#m3225729b58" x="411.706557" y="170.77152" style="fill: #1f77b4; stroke: #1f77b4"/>
     <use xlink:href="#m3225729b58" x="417.786097" y="185.979969" style="fill: #1f77b4; stroke: #1f77b4"/>
     <use xlink:href="#m3225729b58" x="423.865636" y="186.03039" style="fill: #1f77b4; stroke: #1f77b4"/>
     <use xlink:href="#m3225729b58" x="429.945176" y="169.930623" style="fill: #1f77b4; stroke: #1f77b4"/>
     <use xlink:href="#m3225729b58" x="435.872727" y="97.896603" style="fill: #1f77b4; stroke: #1f77b4"/>
    </g>
   </g>
   <g id="patch_3">
    <path d="M 123.24 345.2325 
L 123.24 28.08 
" style="fill: none; stroke: #000000; stroke-width: 2; stroke-linejoin: miter; stroke-linecap: square"/>
   </g>
   <g id="patch_4">
    <path d="M 450.76 345.2325 
L 450.76 28.08 
" style="fill: none; stroke: #000000; stroke-width: 2; stroke-linejoin: miter; stroke-linecap: square"/>
   </g>
   <g id="patch_5">
    <path d="M 123.24 345.2325 
L 450.76 345.2325 
" style="fill: none; stroke: #000000; stroke-width: 2; stroke-linejoin: miter; stroke-linecap: square"/>
   </g>
   <g id="patch_6">
    <path d="M 123.24 28.08 
L 450.76 28.08 
" style="fill: none; stroke: #000000; stroke-width: 2; stroke-linejoin: miter; stroke-linecap: square"/>
   </g>
  </g>
  <g id="axes_2">
   <g id="patch_7">
    <path d="M 508.4 345.2325 
L 835.92 345.2325 
L 835.92 28.08 
L 508.4 28.08 
z
" style="fill: #ffffff"/>
   </g>
   <g id="matplotlib.axis_3">
    <g id="xtick_4">
     <g id="line2d_20">
      <path d="M 520.399491 345.2325 
L 520.399491 28.08 
" clip-path="url(#p60760b1046)" style="fill: none; stroke-dasharray: 3.7,1.6; stroke-dashoffset: 0; stroke: #b0b0b0; stroke-opacity: 0.5"/>
     </g>
     <g id="line2d_21">
      <g>
       <use xlink:href="#mb3eaa5d74e" x="520.399491" y="345.2325" style="stroke: #000000; stroke-width: 2"/>
      </g>
     </g>
     <g id="line2d_22">
      <g>
       <use xlink:href="#m56e1d48958" x="520.399491" y="28.08" style="stroke: #000000; stroke-width: 2"/>
      </g>
     </g>
     <g id="text_9">
      <!-- 0 -->
      <g transform="translate(512.128241 368.488437) scale(0.26 -0.26)">
       <use xlink:href="#DejaVuSerif-30"/>
      </g>
     </g>
    </g>
    <g id="xtick_5">
     <g id="line2d_23">
      <path d="M 641.868694 345.2325 
L 641.868694 28.08 
" clip-path="url(#p60760b1046)" style="fill: none; stroke-dasharray: 3.7,1.6; stroke-dashoffset: 0; stroke: #b0b0b0; stroke-opacity: 0.5"/>
     </g>
     <g id="line2d_24">
      <g>
       <use xlink:href="#mb3eaa5d74e" x="641.868694" y="345.2325" style="stroke: #000000; stroke-width: 2"/>
      </g>
     </g>
     <g id="line2d_25">
      <g>
       <use xlink:href="#m56e1d48958" x="641.868694" y="28.08" style="stroke: #000000; stroke-width: 2"/>
      </g>
     </g>
     <g id="text_10">
      <!-- 1000 -->
      <g transform="translate(608.783694 368.488437) scale(0.26 -0.26)">
       <use xlink:href="#DejaVuSerif-31"/>
       <use xlink:href="#DejaVuSerif-30" x="63.623047"/>
       <use xlink:href="#DejaVuSerif-30" x="127.246094"/>
       <use xlink:href="#DejaVuSerif-30" x="190.869141"/>
      </g>
     </g>
    </g>
    <g id="xtick_6">
     <g id="line2d_26">
      <path d="M 763.337896 345.2325 
L 763.337896 28.08 
" clip-path="url(#p60760b1046)" style="fill: none; stroke-dasharray: 3.7,1.6; stroke-dashoffset: 0; stroke: #b0b0b0; stroke-opacity: 0.5"/>
     </g>
     <g id="line2d_27">
      <g>
       <use xlink:href="#mb3eaa5d74e" x="763.337896" y="345.2325" style="stroke: #000000; stroke-width: 2"/>
      </g>
     </g>
     <g id="line2d_28">
      <g>
       <use xlink:href="#m56e1d48958" x="763.337896" y="28.08" style="stroke: #000000; stroke-width: 2"/>
      </g>
     </g>
     <g id="text_11">
      <!-- 2000 -->
      <g transform="translate(730.252896 368.488437) scale(0.26 -0.26)">
       <use xlink:href="#DejaVuSerif-32"/>
       <use xlink:href="#DejaVuSerif-30" x="63.623047"/>
       <use xlink:href="#DejaVuSerif-30" x="127.246094"/>
       <use xlink:href="#DejaVuSerif-30" x="190.869141"/>
      </g>
     </g>
    </g>
    <g id="text_12">
     <!-- $t$ (a.u.) -->
     <g transform="translate(628.74 397.651563) scale(0.26 -0.26)">
      <use xlink:href="#Cmmi10-74" transform="translate(0 0.015625)"/>
      <use xlink:href="#DejaVuSerif-20" transform="translate(36.083984 0.015625)"/>
      <use xlink:href="#DejaVuSerif-28" transform="translate(67.871094 0.015625)"/>
      <use xlink:href="#DejaVuSerif-61" transform="translate(106.884766 0.015625)"/>
      <use xlink:href="#DejaVuSerif-2e" transform="translate(166.503906 0.015625)"/>
      <use xlink:href="#DejaVuSerif-75" transform="translate(198.291016 0.015625)"/>
      <use xlink:href="#DejaVuSerif-2e" transform="translate(262.695312 0.015625)"/>
      <use xlink:href="#DejaVuSerif-29" transform="translate(294.482422 0.015625)"/>
     </g>
    </g>
   </g>
   <g id="matplotlib.axis_4">
    <g id="text_13">
     <!-- |E(t) - E(0)| / |E(0)| -->
     <g transform="translate(498.269687 310.142031) rotate(-90) scale(0.26 -0.26)">
      <defs>
       <path id="DejaVuSerif-7c" d="M 1331 4891 
L 1331 -1509 
L 825 -1509 
L 825 4891 
L 1331 4891 
z
" transform="scale(0.015625)"/>
       <path id="DejaVuSerif-45" d="M 353 0 
L 353 331 
L 947 331 
L 947 4331 
L 353 4331 
L 353 4666 
L 4109 4666 
L 4109 3628 
L 3725 3628 
L 3725 4281 
L 1581 4281 
L 1581 2719 
L 3109 2719 
L 3109 3303 
L 3494 3303 
L 3494 1753 
L 3109 1753 
L 3109 2338 
L 1581 2338 
L 1581 384 
L 3775 384 
L 3775 1038 
L 4159 1038 
L 4159 0 
L 353 0 
z
" transform="scale(0.015625)"/>
       <path id="DejaVuSerif-74" d="M 691 2988 
L 184 2988 
L 184 3322 
L 691 3322 
L 691 4353 
L 1269 4353 
L 1269 3322 
L 2350 3322 
L 2350 2988 
L 1269 2988 
L 1269 878 
Q 1269 456 1350 337 
Q 1431 219 1650 219 
Q 1875 219 1978 351 
Q 2081 484 2088 781 
L 2522 781 
Q 2497 328 2275 118 
Q 2053 -91 1600 -91 
Q 1103 -91 897 129 
Q 691 350 691 878 
L 691 2988 
z
" transform="scale(0.015625)"/>
       <path id="DejaVuSerif-2d" d="M 281 1959 
L 1881 1959 
L 1881 1472 
L 281 1472 
L 281 1959 
z
" transform="scale(0.015625)"/>
       <path id="DejaVuSerif-2f" d="M 1656 4666 
L 2156 4666 
L 500 -594 
L 0 -594 
L 1656 4666 
z
" transform="scale(0.015625)"/>
      </defs>
      <use xlink:href="#DejaVuSerif-7c"/>
      <use xlink:href="#DejaVuSerif-45" x="33.691406"/>
      <use xlink:href="#DejaVuSerif-28" x="106.689453"/>
      <use xlink:href="#DejaVuSerif-74" x="145.703125"/>
      <use xlink:href="#DejaVuSerif-29" x="185.888672"/>
      <use xlink:href="#DejaVuSerif-20" x="224.902344"/>
      <use xlink:href="#DejaVuSerif-2d" x="256.689453"/>
      <use xlink:href="#DejaVuSerif-20" x="290.478516"/>
      <use xlink:href="#DejaVuSerif-45" x="322.265625"/>
      <use xlink:href="#DejaVuSerif-28" x="395.263672"/>
      <use xlink:href="#DejaVuSerif-30" x="434.277344"/>
      <use xlink:href="#DejaVuSerif-29" x="497.900391"/>
      <use xlink:href="#DejaVuSerif-7c" x="536.914062"/>
      <use xlink:href="#DejaVuSerif-20" x="570.605469"/>
      <use xlink:href="#DejaVuSerif-2f" x="602.392578"/>
      <use xlink:href="#DejaVuSerif-20" x="636.083984"/>
      <use xlink:href="#DejaVuSerif-7c" x="667.871094"/>
      <use xlink:href="#DejaVuSerif-45" x="701.5625"/>
      <use xlink:href="#DejaVuSerif-28" x="774.560547"/>
      <use xlink:href="#DejaVuSerif-30" x="813.574219"/>
      <use xlink:href="#DejaVuSerif-29" x="877.197266"/>
      <use xlink:href="#DejaVuSerif-7c" x="916.210938"/>
     </g>
    </g>
   </g>
   <g id="line2d_29">
    <path d="M 523.287273 294.293989 
L 529.366812 290.713749 
L 535.446352 286.635375 
L 541.525892 282.051604 
L 547.605431 275.826067 
L 553.684971 268.126805 
L 559.764511 256.538413 
L 565.84405 235.732867 
L 571.92359 178.938282 
L 578.00313 42.496023 
L 584.082669 238.914531 
L 590.162209 270.79256 
L 596.241749 285.359462 
L 602.321288 293.815103 
L 608.400828 299.555064 
L 614.480368 303.729784 
L 620.559907 306.915754 
L 626.639447 309.346065 
L 632.718986 311.733687 
L 638.798526 313.456745 
L 644.878066 314.756954 
L 650.957605 315.842339 
L 657.037145 316.859064 
L 663.116685 317.536392 
L 669.196224 317.896704 
L 675.275764 317.962219 
L 681.355304 317.933427 
L 687.434843 317.63286 
L 693.514383 316.879185 
L 699.593923 315.499588 
L 705.673462 313.438439 
L 711.753002 310.730017 
L 717.832542 306.255392 
L 723.912081 298.810984 
L 729.991621 285.564257 
L 736.071161 255.474707 
L 742.1507 92.834356 
L 748.23024 261.599765 
L 754.30978 314.022185 
L 760.389319 328.019548 
L 766.468859 330.816477 
L 772.548399 325.630277 
L 778.627938 304.939292 
L 784.707478 194.091195 
L 790.787017 107.936755 
L 796.866557 170.608645 
L 802.946097 185.815069 
L 809.025636 185.865489 
L 815.105176 169.767967 
L 821.032727 97.794308 
" clip-path="url(#p60760b1046)" style="fill: none; stroke: #1f77b4; stroke-width: 3; stroke-linecap: square"/>
    <g clip-path="url(#p60760b1046)">
     <use xlink:href="#m3225729b58" x="523.287273" y="294.293989" style="fill: #1f77b4; stroke: #1f77b4"/>
     <use xlink:href="#m3225729b58" x="529.366812" y="290.713749" style="fill: #1f77b4; stroke: #1f77b4"/>
     <use xlink:href="#m3225729b58" x="535.446352" y="286.635375" style="fill: #1f77b4; stroke: #1f77b4"/>
     <use xlink:href="#m3225729b58" x="541.525892" y="282.051604" style="fill: #1f77b4; stroke: #1f77b4"/>
     <use xlink:href="#m3225729b58" x="547.605431" y="275.826067" style="fill: #1f77b4; stroke: #1f77b4"/>
     <use xlink:href="#m3225729b58" x="553.684971" y="268.126805" style="fill: #1f77b4; stroke: #1f77b4"/>
     <use xlink:href="#m3225729b58" x="559.764511" y="256.538413" style="fill: #1f77b4; stroke: #1f77b4"/>
     <use xlink:href="#m3225729b58" x="565.84405" y="235.732867" style="fill: #1f77b4; stroke: #1f77b4"/>
     <use xlink:href="#m3225729b58" x="571.92359" y="178.938282" style="fill: #1f77b4; stroke: #1f77b4"/>
     <use xlink:href="#m3225729b58" x="578.00313" y="42.496023" style="fill: #1f77b4; stroke: #1f77b4"/>
     <use xlink:href="#m3225729b58" x="584.082669" y="238.914531" style="fill: #1f77b4; stroke: #1f77b4"/>
     <use xlink:href="#m3225729b58" x="590.162209" y="270.79256" style="fill: #1f77b4; stroke: #1f77b4"/>
     <use xlink:href="#m3225729b58" x="596.241749" y="285.359462" style="fill: #1f77b4; stroke: #1f77b4"/>
     <use xlink:href="#m3225729b58" x="602.321288" y="293.815103" style="fill: #1f77b4; stroke: #1f77b4"/>
     <use xlink:href="#m3225729b58" x="608.400828" y="299.555064" style="fill: #1f77b4; stroke: #1f77b4"/>
     <use xlink:href="#m3225729b58" x="614.480368" y="303.729784" style="fill: #1f77b4; stroke: #1f77b4"/>
     <use xlink:href="#m3225729b58" x="620.559907" y="306.915754" style="fill: #1f77b4; stroke: #1f77b4"/>
     <use xlink:href="#m3225729b58" x="626.639447" y="309.346065" style="fill: #1f77b4; stroke: #1f77b4"/>
     <use xlink:href="#m3225729b58" x="632.718986" y="311.733687" style="fill: #1f77b4; stroke: #1f77b4"/>
     <use xlink:href="#m3225729b58" x="638.798526" y="313.456745" style="fill: #1f77b4; stroke: #1f77b4"/>
     <use xlink:href="#m3225729b58" x="644.878066" y="314.756954" style="fill: #1f77b4; stroke: #1f77b4"/>
     <use xlink:href="#m3225729b58" x="650.957605" y="315.842339" style="fill: #1f77b4; stroke: #1f77b4"/>
     <use xlink:href="#m3225729b58" x="657.037145" y="316.859064" style="fill: #1f77b4; stroke: #1f77b4"/>
     <use xlink:href="#m3225729b58" x="663.116685" y="317.536392" style="fill: #1f77b4; stroke: #1f77b4"/>
     <use xlink:href="#m3225729b58" x="669.196224" y="317.896704" style="fill: #1f77b4; stroke: #1f77b4"/>
     <use xlink:href="#m3225729b58" x="675.275764" y="317.962219" style="fill: #1f77b4; stroke: #1f77b4"/>
     <use xlink:href="#m3225729b58" x="681.355304" y="317.933427" style="fill: #1f77b4; stroke: #1f77b4"/>
     <use xlink:href="#m3225729b58" x="687.434843" y="317.63286" style="fill: #1f77b4; stroke: #1f77b4"/>
     <use xlink:href="#m3225729b58" x="693.514383" y="316.879185" style="fill: #1f77b4; stroke: #1f77b4"/>
     <use xlink:href="#m3225729b58" x="699.593923" y="315.499588" style="fill: #1f77b4; stroke: #1f77b4"/>
     <use xlink:href="#m3225729b58" x="705.673462" y="313.438439" style="fill: #1f77b4; stroke: #1f77b4"/>
     <use xlink:href="#m3225729b58" x="711.753002" y="310.730017" style="fill: #1f77b4; stroke: #1f77b4"/>
     <use xlink:href="#m3225729b58" x="717.832542" y="306.255392" style="fill: #1f77b4; stroke: #1f77b4"/>
     <use xlink:href="#m3225729b58" x="723.912081" y="298.810984" style="fill: #1f77b4; stroke: #1f77b4"/>
     <use xlink:href="#m3225729b58" x="729.991621" y="285.564257" style="fill: #1f77b4; stroke: #1f77b4"/>
     <use xlink:href="#m3225729b58" x="736.071161" y="255.474707" style="fill: #1f77b4; stroke: #1f77b4"/>
     <use xlink:href="#m3225729b58" x="742.1507" y="92.834356" style="fill: #1f77b4; stroke: #1f77b4"/>
     <use xlink:href="#m3225729b58" x="748.23024" y="261.599765" style="fill: #1f77b4; stroke: #1f77b4"/>
     <use xlink:href="#m3225729b58" x="754.30978" y="314.022185" style="fill: #1f77b4; stroke: #1f77b4"/>
     <use xlink:href="#m3225729b58" x="760.389319" y="328.019548" style="fill: #1f77b4; stroke: #1f77b4"/>
     <use xlink:href="#m3225729b58" x="766.468859" y="330.816477" style="fill: #1f77b4; stroke: #1f77b4"/>
     <use xlink:href="#m3225729b58" x="772.548399" y="325.630277" style="fill: #1f77b4; stroke: #1f77b4"/>
     <use xlink:href="#m3225729b58" x="778.627938" y="304.939292" style="fill: #1f77b4; stroke: #1f77b4"/>
     <use xlink:href="#m3225729b58" x="784.707478" y="194.091195" style="fill: #1f77b4; stroke: #1f77b4"/>
     <use xlink:href="#m3225729b58" x="790.787017" y="107.936755" style="fill: #1f77b4; stroke: #1f77b4"/>
     <use xlink:href="#m3225729b58" x="796.866557" y="170.608645" style="fill: #1f77b4; stroke: #1f77b4"/>
     <use xlink:href="#m3225729b58" x="802.946097" y="185.815069" style="fill: #1f77b4; stroke: #1f77b4"/>
     <use xlink:href="#m3225729b58" x="809.025636" y="185.865489" style="fill: #1f77b4; stroke: #1f77b4"/>
     <use xlink:href="#m3225729b58" x="815.105176" y="169.767967" style="fill: #1f77b4; stroke: #1f77b4"/>
     <use xlink:href="#m3225729b58" x="821.032727" y="97.794308" style="fill: #1f77b4; stroke: #1f77b4"/>
    </g>
   </g>
   <g id="patch_8">
    <path d="M 508.4 345.2325 
L 508.4 28.08 
" style="fill: none; stroke: #000000; stroke-width: 2; stroke-linejoin: miter; stroke-linecap: square"/>
   </g>
   <g id="patch_9">
    <path d="M 835.92 345.2325 
L 835.92 28.08 
" style="fill: none; stroke: #000000; stroke-width: 2; stroke-linejoin: miter; stroke-linecap: square"/>
   </g>
   <g id="patch_10">
    <path d="M 508.4 345.2325 
L 835.92 345.2325 
" style="fill: none; stroke: #000000; stroke-width: 2; stroke-linejoin: miter; stroke-linecap: square"/>
   </g>
   <g id="patch_11">
    <path d="M 508.4 28.08 
L 835.92 28.08 
" style="fill: none; stroke: #000000; stroke-width: 2; stroke-linejoin: miter; stroke-linecap: square"/>
   </g>
  </g>
 </g>
 <defs>
  <clipPath id="p424d30734a">
   <rect x="123.24" y="28.08" width="327.52" height="317.1525"/>
  </clipPath>
  <clipPath id="p60760b1046">
   <rect x="508.4" y="28.08" width="327.52" height="317.1525"/>
  </clipPath>
 </defs>
</svg>
