<?xml version="1.0" encoding="utf-8" standalone="no"?>
<!DOCTYPE svg PUBLIC "-//W3C//DTD SVG 1.1//EN"
  "http://www.w3.org/Graphics/SVG/1.1/DTD/svg11.dtd">
<svg xmlns:xlink="http://www.w3.org/1999/xlink" width="864pt" height="576pt" viewBox="0 0 864 576" xmlns="http://www.w3.org/2000/svg" version="1.1">
 <metadata>
  <rdf:RDF xmlns:dc="http://purl.org/dc/elements/1.1/" xmlns:cc="http://creativecommons.org/ns#" xmlns:rdf="http://www.w3.org/1999/02/22-rdf-syntax-ns#">
   <cc:Work>
    <dc:type rdf:resource="http://purl.org/dc/dcmitype/StillImage"/>
    <dc:date>2025-06-12T16:26:09.238959</dc:date>
    <dc:format>image/svg+xml</dc:format>
    <dc:creator>
     <cc:Agent>
      <dc:title>Matplotlib v3.7.2, https://matplotlib.org/</dc:title>
     </cc:Agent>
    </dc:creator>
   </cc:Work>
  </rdf:RDF>
 </metadata>
 <defs>
  <style type="text/css">*{stroke-linejoin: round; stroke-linecap: butt}</style>
 </defs>
 <g id="figure_1">
  <g id="patch_1">
   <path d="M 0 576 
L 864 576 
L 864 0 
L 0 0 
z
" style="fill: #ffffff"/>
  </g>
  <g id="axes_1">
   <g id="patch_2">
    <path d="M 93.675 489.2325 
L 833.191364 489.2325 
L 833.191364 28.08 
L 93.675 28.08 
z
" style="fill: #ffffff"/>
   </g>
   <g id="matplotlib.axis_1">
    <g id="xtick_1">
     <g id="line2d_1">
      <path d="M 127.28938 489.2325 
L 127.28938 28.08 
" clip-path="url(#p34e0e19ce7)" style="fill: none; stroke-dasharray: 3.7,1.6; stroke-dashoffset: 0; stroke: #b0b0b0; stroke-opacity: 0.5"/>
     </g>
     <g id="line2d_2">
      <defs>
       <path id="m8caf2de690" d="M 0 0 
L 0 -10 
" style="stroke: #000000; stroke-width: 2"/>
      </defs>
      <g>
       <use xlink:href="#m8caf2de690" x="127.28938" y="489.2325" style="stroke: #000000; stroke-width: 2"/>
      </g>
     </g>
     <g id="line2d_3">
      <defs>
       <path id="mf1cf62cebb" d="M 0 0 
L 0 10 
" style="stroke: #000000; stroke-width: 2"/>
      </defs>
      <g>
       <use xlink:href="#mf1cf62cebb" x="127.28938" y="28.08" style="stroke: #000000; stroke-width: 2"/>
      </g>
     </g>
     <g id="text_1">
      <!-- 0 -->
      <g transform="translate(119.01813 512.488438) scale(0.26 -0.26)">
       <defs>
        <path id="DejaVuSerif-30" d="M 2034 219 
Q 2513 219 2750 744 
Q 2988 1269 2988 2328 
Q 2988 3391 2750 3916 
Q 2513 4441 2034 4441 
Q 1556 4441 1318 3916 
Q 1081 3391 1081 2328 
Q 1081 1269 1318 744 
Q 1556 219 2034 219 
z
M 2034 -91 
Q 1275 -91 848 546 
Q 422 1184 422 2328 
Q 422 3475 848 4112 
Q 1275 4750 2034 4750 
Q 2797 4750 3222 4112 
Q 3647 3475 3647 2328 
Q 3647 1184 3222 546 
Q 2797 -91 2034 -91 
z
" transform="scale(0.015625)"/>
       </defs>
       <use xlink:href="#DejaVuSerif-30"/>
      </g>
     </g>
    </g>
    <g id="xtick_2">
     <g id="line2d_4">
      <path d="M 261.746901 489.2325 
L 261.746901 28.08 
" clip-path="url(#p34e0e19ce7)" style="fill: none; stroke-dasharray: 3.7,1.6; stroke-dashoffset: 0; stroke: #b0b0b0; stroke-opacity: 0.5"/>
     </g>
     <g id="line2d_5">
      <g>
       <use xlink:href="#m8caf2de690" x="261.746901" y="489.2325" style="stroke: #000000; stroke-width: 2"/>
      </g>
     </g>
     <g id="line2d_6">
      <g>
       <use xlink:href="#mf1cf62cebb" x="261.746901" y="28.08" style="stroke: #000000; stroke-width: 2"/>
      </g>
     </g>
     <g id="text_2">
      <!-- 500 -->
      <g transform="translate(236.933151 512.488438) scale(0.26 -0.26)">
       <defs>
        <path id="DejaVuSerif-35" d="M 3219 4666 
L 3219 4153 
L 1081 4153 
L 1081 2816 
Q 1244 2928 1461 2984 
Q 1678 3041 1947 3041 
Q 2703 3041 3140 2622 
Q 3578 2203 3578 1478 
Q 3578 738 3136 323 
Q 2694 -91 1894 -91 
Q 1572 -91 1234 -12 
Q 897 66 544 225 
L 544 1131 
L 897 1131 
Q 925 688 1179 453 
Q 1434 219 1894 219 
Q 2388 219 2653 544 
Q 2919 869 2919 1478 
Q 2919 2084 2655 2407 
Q 2391 2731 1894 2731 
Q 1613 2731 1398 2631 
Q 1184 2531 1019 2322 
L 750 2322 
L 750 4666 
L 3219 4666 
z
" transform="scale(0.015625)"/>
       </defs>
       <use xlink:href="#DejaVuSerif-35"/>
       <use xlink:href="#DejaVuSerif-30" x="63.623047"/>
       <use xlink:href="#DejaVuSerif-30" x="127.246094"/>
      </g>
     </g>
    </g>
    <g id="xtick_3">
     <g id="line2d_7">
      <path d="M 396.204421 489.2325 
L 396.204421 28.08 
" clip-path="url(#p34e0e19ce7)" style="fill: none; stroke-dasharray: 3.7,1.6; stroke-dashoffset: 0; stroke: #b0b0b0; stroke-opacity: 0.5"/>
     </g>
     <g id="line2d_8">
      <g>
       <use xlink:href="#m8caf2de690" x="396.204421" y="489.2325" style="stroke: #000000; stroke-width: 2"/>
      </g>
     </g>
     <g id="line2d_9">
      <g>
       <use xlink:href="#mf1cf62cebb" x="396.204421" y="28.08" style="stroke: #000000; stroke-width: 2"/>
      </g>
     </g>
     <g id="text_3">
      <!-- 1000 -->
      <g transform="translate(363.119421 512.488438) scale(0.26 -0.26)">
       <defs>
        <path id="DejaVuSerif-31" d="M 909 0 
L 909 331 
L 1722 331 
L 1722 4213 
L 781 3603 
L 781 4013 
L 1919 4750 
L 2350 4750 
L 2350 331 
L 3163 331 
L 3163 0 
L 909 0 
z
" transform="scale(0.015625)"/>
       </defs>
       <use xlink:href="#DejaVuSerif-31"/>
       <use xlink:href="#DejaVuSerif-30" x="63.623047"/>
       <use xlink:href="#DejaVuSerif-30" x="127.246094"/>
       <use xlink:href="#DejaVuSerif-30" x="190.869141"/>
      </g>
     </g>
    </g>
    <g id="xtick_4">
     <g id="line2d_10">
      <path d="M 530.661942 489.2325 
L 530.661942 28.08 
" clip-path="url(#p34e0e19ce7)" style="fill: none; stroke-dasharray: 3.7,1.6; stroke-dashoffset: 0; stroke: #b0b0b0; stroke-opacity: 0.5"/>
     </g>
     <g id="line2d_11">
      <g>
       <use xlink:href="#m8caf2de690" x="530.661942" y="489.2325" style="stroke: #000000; stroke-width: 2"/>
      </g>
     </g>
     <g id="line2d_12">
      <g>
       <use xlink:href="#mf1cf62cebb" x="530.661942" y="28.08" style="stroke: #000000; stroke-width: 2"/>
      </g>
     </g>
     <g id="text_4">
      <!-- 1500 -->
      <g transform="translate(497.576942 512.488438) scale(0.26 -0.26)">
       <use xlink:href="#DejaVuSerif-31"/>
       <use xlink:href="#DejaVuSerif-35" x="63.623047"/>
       <use xlink:href="#DejaVuSerif-30" x="127.246094"/>
       <use xlink:href="#DejaVuSerif-30" x="190.869141"/>
      </g>
     </g>
    </g>
    <g id="xtick_5">
     <g id="line2d_13">
      <path d="M 665.119463 489.2325 
L 665.119463 28.08 
" clip-path="url(#p34e0e19ce7)" style="fill: none; stroke-dasharray: 3.7,1.6; stroke-dashoffset: 0; stroke: #b0b0b0; stroke-opacity: 0.5"/>
     </g>
     <g id="line2d_14">
      <g>
       <use xlink:href="#m8caf2de690" x="665.119463" y="489.2325" style="stroke: #000000; stroke-width: 2"/>
      </g>
     </g>
     <g id="line2d_15">
      <g>
       <use xlink:href="#mf1cf62cebb" x="665.119463" y="28.08" style="stroke: #000000; stroke-width: 2"/>
      </g>
     </g>
     <g id="text_5">
      <!-- 2000 -->
      <g transform="translate(632.034463 512.488438) scale(0.26 -0.26)">
       <defs>
        <path id="DejaVuSerif-32" d="M 819 3553 
L 469 3553 
L 469 4384 
Q 803 4563 1142 4656 
Q 1481 4750 1806 4750 
Q 2534 4750 2956 4397 
Q 3378 4044 3378 3438 
Q 3378 2753 2422 1800 
Q 2347 1728 2309 1691 
L 1131 513 
L 3078 513 
L 3078 1088 
L 3444 1088 
L 3444 0 
L 434 0 
L 434 341 
L 1850 1753 
Q 2319 2222 2519 2614 
Q 2719 3006 2719 3438 
Q 2719 3909 2473 4175 
Q 2228 4441 1797 4441 
Q 1350 4441 1106 4219 
Q 863 3997 819 3553 
z
" transform="scale(0.015625)"/>
       </defs>
       <use xlink:href="#DejaVuSerif-32"/>
       <use xlink:href="#DejaVuSerif-30" x="63.623047"/>
       <use xlink:href="#DejaVuSerif-30" x="127.246094"/>
       <use xlink:href="#DejaVuSerif-30" x="190.869141"/>
      </g>
     </g>
    </g>
    <g id="xtick_6">
     <g id="line2d_16">
      <path d="M 799.576983 489.2325 
L 799.576983 28.08 
" clip-path="url(#p34e0e19ce7)" style="fill: none; stroke-dasharray: 3.7,1.6; stroke-dashoffset: 0; stroke: #b0b0b0; stroke-opacity: 0.5"/>
     </g>
     <g id="line2d_17">
      <g>
       <use xlink:href="#m8caf2de690" x="799.576983" y="489.2325" style="stroke: #000000; stroke-width: 2"/>
      </g>
     </g>
     <g id="line2d_18">
      <g>
       <use xlink:href="#mf1cf62cebb" x="799.576983" y="28.08" style="stroke: #000000; stroke-width: 2"/>
      </g>
     </g>
     <g id="text_6">
      <!-- 2500 -->
      <g transform="translate(766.491983 512.488438) scale(0.26 -0.26)">
       <use xlink:href="#DejaVuSerif-32"/>
       <use xlink:href="#DejaVuSerif-35" x="63.623047"/>
       <use xlink:href="#DejaVuSerif-30" x="127.246094"/>
       <use xlink:href="#DejaVuSerif-30" x="190.869141"/>
      </g>
     </g>
    </g>
    <g id="text_7">
     <!-- $t$ (a.u.) -->
     <g transform="translate(420.013182 541.651562) scale(0.26 -0.26)">
      <defs>
       <path id="Cmmi10-74" d="M 397 519 
Q 397 613 416 697 
L 878 2534 
L 206 2534 
Q 141 2534 141 2619 
Q 166 2759 225 2759 
L 934 2759 
L 1191 3803 
Q 1216 3888 1291 3947 
Q 1366 4006 1459 4006 
Q 1541 4006 1595 3957 
Q 1650 3909 1650 3828 
Q 1650 3809 1648 3798 
Q 1647 3788 1644 3775 
L 1388 2759 
L 2047 2759 
Q 2113 2759 2113 2675 
Q 2109 2659 2100 2621 
Q 2091 2584 2075 2559 
Q 2059 2534 2028 2534 
L 1331 2534 
L 872 684 
Q 825 503 825 372 
Q 825 97 1013 97 
Q 1294 97 1511 361 
Q 1728 625 1844 941 
Q 1869 978 1894 978 
L 1972 978 
Q 1997 978 2012 961 
Q 2028 944 2028 922 
Q 2028 909 2022 903 
Q 1881 516 1612 222 
Q 1344 -72 997 -72 
Q 744 -72 570 93 
Q 397 259 397 519 
z
" transform="scale(0.015625)"/>
       <path id="DejaVuSerif-20" transform="scale(0.015625)"/>
       <path id="DejaVuSerif-28" d="M 2041 -997 
Q 1281 -656 893 83 
Q 506 822 506 1931 
Q 506 3044 893 3783 
Q 1281 4522 2041 4863 
L 2041 4556 
Q 1559 4225 1350 3623 
Q 1141 3022 1141 1931 
Q 1141 844 1350 242 
Q 1559 -359 2041 -691 
L 2041 -997 
z
" transform="scale(0.015625)"/>
       <path id="DejaVuSerif-61" d="M 2547 1044 
L 2547 1747 
L 1806 1747 
Q 1378 1747 1168 1562 
Q 959 1378 959 997 
Q 959 650 1171 447 
Q 1384 244 1747 244 
Q 2106 244 2326 466 
Q 2547 688 2547 1044 
z
M 3122 2075 
L 3122 331 
L 3634 331 
L 3634 0 
L 2547 0 
L 2547 359 
Q 2356 128 2106 18 
Q 1856 -91 1522 -91 
Q 969 -91 644 203 
Q 319 497 319 997 
Q 319 1513 691 1797 
Q 1063 2081 1741 2081 
L 2547 2081 
L 2547 2309 
Q 2547 2688 2317 2895 
Q 2088 3103 1672 3103 
Q 1328 3103 1125 2947 
Q 922 2791 872 2484 
L 575 2484 
L 575 3156 
Q 875 3284 1158 3348 
Q 1441 3413 1709 3413 
Q 2400 3413 2761 3070 
Q 3122 2728 3122 2075 
z
" transform="scale(0.015625)"/>
       <path id="DejaVuSerif-2e" d="M 603 325 
Q 603 500 722 622 
Q 841 744 1019 744 
Q 1191 744 1312 622 
Q 1434 500 1434 325 
Q 1434 153 1312 31 
Q 1191 -91 1019 -91 
Q 841 -91 722 29 
Q 603 150 603 325 
z
" transform="scale(0.015625)"/>
       <path id="DejaVuSerif-75" d="M 2266 3322 
L 3341 3322 
L 3341 331 
L 3884 331 
L 3884 0 
L 2766 0 
L 2766 588 
Q 2606 256 2353 82 
Q 2100 -91 1766 -91 
Q 1213 -91 952 223 
Q 691 538 691 1209 
L 691 2988 
L 172 2988 
L 172 3322 
L 1269 3322 
L 1269 1388 
Q 1269 781 1417 556 
Q 1566 331 1947 331 
Q 2347 331 2556 625 
Q 2766 919 2766 1478 
L 2766 2988 
L 2266 2988 
L 2266 3322 
z
" transform="scale(0.015625)"/>
       <path id="DejaVuSerif-29" d="M 453 -997 
L 453 -691 
Q 934 -359 1145 242 
Q 1356 844 1356 1931 
Q 1356 3022 1145 3623 
Q 934 4225 453 4556 
L 453 4863 
Q 1216 4522 1603 3783 
Q 1991 3044 1991 1931 
Q 1991 822 1603 83 
Q 1216 -656 453 -997 
z
" transform="scale(0.015625)"/>
      </defs>
      <use xlink:href="#Cmmi10-74" transform="translate(0 0.015625)"/>
      <use xlink:href="#DejaVuSerif-20" transform="translate(36.083984 0.015625)"/>
      <use xlink:href="#DejaVuSerif-28" transform="translate(67.871094 0.015625)"/>
      <use xlink:href="#DejaVuSerif-61" transform="translate(106.884766 0.015625)"/>
      <use xlink:href="#DejaVuSerif-2e" transform="translate(166.503906 0.015625)"/>
      <use xlink:href="#DejaVuSerif-75" transform="translate(198.291016 0.015625)"/>
      <use xlink:href="#DejaVuSerif-2e" transform="translate(262.695312 0.015625)"/>
      <use xlink:href="#DejaVuSerif-29" transform="translate(294.482422 0.015625)"/>
     </g>
    </g>
   </g>
   <g id="matplotlib.axis_2">
    <g id="ytick_1">
     <g id="line2d_19">
      <path d="M 93.675 471.896654 
L 833.191364 471.896654 
" clip-path="url(#p34e0e19ce7)" style="fill: none; stroke-dasharray: 3.7,1.6; stroke-dashoffset: 0; stroke: #b0b0b0; stroke-opacity: 0.5"/>
     </g>
     <g id="line2d_20">
      <defs>
       <path id="m9deed1e420" d="M 0 0 
L 10 0 
" style="stroke: #000000; stroke-width: 2"/>
      </defs>
      <g>
       <use xlink:href="#m9deed1e420" x="93.675" y="471.896654" style="stroke: #000000; stroke-width: 2"/>
      </g>
     </g>
     <g id="line2d_21">
      <defs>
       <path id="mea4139e5c5" d="M 0 0 
L -10 0 
" style="stroke: #000000; stroke-width: 2"/>
      </defs>
      <g>
       <use xlink:href="#mea4139e5c5" x="833.191364" y="471.896654" style="stroke: #000000; stroke-width: 2"/>
      </g>
     </g>
     <g id="text_8">
      <!-- 0 -->
      <g transform="translate(73.6325 481.774622) scale(0.26 -0.26)">
       <use xlink:href="#DejaVuSerif-30"/>
      </g>
     </g>
    </g>
    <g id="ytick_2">
     <g id="line2d_22">
      <path d="M 93.675 404.70966 
L 833.191364 404.70966 
" clip-path="url(#p34e0e19ce7)" style="fill: none; stroke-dasharray: 3.7,1.6; stroke-dashoffset: 0; stroke: #b0b0b0; stroke-opacity: 0.5"/>
     </g>
     <g id="line2d_23">
      <g>
       <use xlink:href="#m9deed1e420" x="93.675" y="404.70966" style="stroke: #000000; stroke-width: 2"/>
      </g>
     </g>
     <g id="line2d_24">
      <g>
       <use xlink:href="#mea4139e5c5" x="833.191364" y="404.70966" style="stroke: #000000; stroke-width: 2"/>
      </g>
     </g>
     <g id="text_9">
      <!-- 5 -->
      <g transform="translate(73.6325 414.587629) scale(0.26 -0.26)">
       <use xlink:href="#DejaVuSerif-35"/>
      </g>
     </g>
    </g>
    <g id="ytick_3">
     <g id="line2d_25">
      <path d="M 93.675 337.522667 
L 833.191364 337.522667 
" clip-path="url(#p34e0e19ce7)" style="fill: none; stroke-dasharray: 3.7,1.6; stroke-dashoffset: 0; stroke: #b0b0b0; stroke-opacity: 0.5"/>
     </g>
     <g id="line2d_26">
      <g>
       <use xlink:href="#m9deed1e420" x="93.675" y="337.522667" style="stroke: #000000; stroke-width: 2"/>
      </g>
     </g>
     <g id="line2d_27">
      <g>
       <use xlink:href="#mea4139e5c5" x="833.191364" y="337.522667" style="stroke: #000000; stroke-width: 2"/>
      </g>
     </g>
     <g id="text_10">
      <!-- 10 -->
      <g transform="translate(57.09 347.400635) scale(0.26 -0.26)">
       <use xlink:href="#DejaVuSerif-31"/>
       <use xlink:href="#DejaVuSerif-30" x="63.623047"/>
      </g>
     </g>
    </g>
    <g id="ytick_4">
     <g id="line2d_28">
      <path d="M 93.675 270.335673 
L 833.191364 270.335673 
" clip-path="url(#p34e0e19ce7)" style="fill: none; stroke-dasharray: 3.7,1.6; stroke-dashoffset: 0; stroke: #b0b0b0; stroke-opacity: 0.5"/>
     </g>
     <g id="line2d_29">
      <g>
       <use xlink:href="#m9deed1e420" x="93.675" y="270.335673" style="stroke: #000000; stroke-width: 2"/>
      </g>
     </g>
     <g id="line2d_30">
      <g>
       <use xlink:href="#mea4139e5c5" x="833.191364" y="270.335673" style="stroke: #000000; stroke-width: 2"/>
      </g>
     </g>
     <g id="text_11">
      <!-- 15 -->
      <g transform="translate(57.09 280.213642) scale(0.26 -0.26)">
       <use xlink:href="#DejaVuSerif-31"/>
       <use xlink:href="#DejaVuSerif-35" x="63.623047"/>
      </g>
     </g>
    </g>
    <g id="ytick_5">
     <g id="line2d_31">
      <path d="M 93.675 203.14868 
L 833.191364 203.14868 
" clip-path="url(#p34e0e19ce7)" style="fill: none; stroke-dasharray: 3.7,1.6; stroke-dashoffset: 0; stroke: #b0b0b0; stroke-opacity: 0.5"/>
     </g>
     <g id="line2d_32">
      <g>
       <use xlink:href="#m9deed1e420" x="93.675" y="203.14868" style="stroke: #000000; stroke-width: 2"/>
      </g>
     </g>
     <g id="line2d_33">
      <g>
       <use xlink:href="#mea4139e5c5" x="833.191364" y="203.14868" style="stroke: #000000; stroke-width: 2"/>
      </g>
     </g>
     <g id="text_12">
      <!-- 20 -->
      <g transform="translate(57.09 213.026648) scale(0.26 -0.26)">
       <use xlink:href="#DejaVuSerif-32"/>
       <use xlink:href="#DejaVuSerif-30" x="63.623047"/>
      </g>
     </g>
    </g>
    <g id="ytick_6">
     <g id="line2d_34">
      <path d="M 93.675 135.961686 
L 833.191364 135.961686 
" clip-path="url(#p34e0e19ce7)" style="fill: none; stroke-dasharray: 3.7,1.6; stroke-dashoffset: 0; stroke: #b0b0b0; stroke-opacity: 0.5"/>
     </g>
     <g id="line2d_35">
      <g>
       <use xlink:href="#m9deed1e420" x="93.675" y="135.961686" style="stroke: #000000; stroke-width: 2"/>
      </g>
     </g>
     <g id="line2d_36">
      <g>
       <use xlink:href="#mea4139e5c5" x="833.191364" y="135.961686" style="stroke: #000000; stroke-width: 2"/>
      </g>
     </g>
     <g id="text_13">
      <!-- 25 -->
      <g transform="translate(57.09 145.839655) scale(0.26 -0.26)">
       <use xlink:href="#DejaVuSerif-32"/>
       <use xlink:href="#DejaVuSerif-35" x="63.623047"/>
      </g>
     </g>
    </g>
    <g id="ytick_7">
     <g id="line2d_37">
      <path d="M 93.675 68.774693 
L 833.191364 68.774693 
" clip-path="url(#p34e0e19ce7)" style="fill: none; stroke-dasharray: 3.7,1.6; stroke-dashoffset: 0; stroke: #b0b0b0; stroke-opacity: 0.5"/>
     </g>
     <g id="line2d_38">
      <g>
       <use xlink:href="#m9deed1e420" x="93.675" y="68.774693" style="stroke: #000000; stroke-width: 2"/>
      </g>
     </g>
     <g id="line2d_39">
      <g>
       <use xlink:href="#mea4139e5c5" x="833.191364" y="68.774693" style="stroke: #000000; stroke-width: 2"/>
      </g>
     </g>
     <g id="text_14">
      <!-- 30 -->
      <g transform="translate(57.09 78.652661) scale(0.26 -0.26)">
       <defs>
        <path id="DejaVuSerif-33" d="M 622 4469 
Q 988 4606 1323 4678 
Q 1659 4750 1953 4750 
Q 2638 4750 3022 4454 
Q 3406 4159 3406 3634 
Q 3406 3213 3140 2930 
Q 2875 2647 2388 2547 
Q 2963 2466 3280 2130 
Q 3597 1794 3597 1259 
Q 3597 606 3158 257 
Q 2719 -91 1894 -91 
Q 1528 -91 1179 -12 
Q 831 66 488 225 
L 488 1131 
L 838 1131 
Q 869 681 1141 450 
Q 1413 219 1906 219 
Q 2384 219 2661 495 
Q 2938 772 2938 1253 
Q 2938 1803 2653 2086 
Q 2369 2369 1819 2369 
L 1522 2369 
L 1522 2688 
L 1678 2688 
Q 2225 2688 2498 2914 
Q 2772 3141 2772 3597 
Q 2772 4006 2547 4223 
Q 2322 4441 1900 4441 
Q 1478 4441 1245 4241 
Q 1013 4041 972 3647 
L 622 3647 
L 622 4469 
z
" transform="scale(0.015625)"/>
       </defs>
       <use xlink:href="#DejaVuSerif-33"/>
       <use xlink:href="#DejaVuSerif-30" x="63.623047"/>
      </g>
     </g>
    </g>
    <g id="text_15">
     <!-- Particle energy (a.u.) -->
     <g transform="translate(47.313125 397.733906) rotate(-90) scale(0.26 -0.26)">
      <defs>
       <path id="DejaVuSerif-50" d="M 1581 2375 
L 2406 2375 
Q 2872 2375 3115 2626 
Q 3359 2878 3359 3353 
Q 3359 3831 3115 4081 
Q 2872 4331 2406 4331 
L 1581 4331 
L 1581 2375 
z
M 353 0 
L 353 331 
L 947 331 
L 947 4331 
L 353 4331 
L 353 4666 
L 2559 4666 
Q 3259 4666 3668 4311 
Q 4078 3956 4078 3353 
Q 4078 2753 3668 2397 
Q 3259 2041 2559 2041 
L 1581 2041 
L 1581 331 
L 2303 331 
L 2303 0 
L 353 0 
z
" transform="scale(0.015625)"/>
       <path id="DejaVuSerif-72" d="M 3059 3328 
L 3059 2497 
L 2728 2497 
Q 2713 2744 2591 2866 
Q 2469 2988 2234 2988 
Q 1809 2988 1582 2694 
Q 1356 2400 1356 1850 
L 1356 331 
L 2022 331 
L 2022 0 
L 263 0 
L 263 331 
L 781 331 
L 781 2994 
L 231 2994 
L 231 3322 
L 1356 3322 
L 1356 2731 
Q 1525 3078 1790 3245 
Q 2056 3413 2438 3413 
Q 2578 3413 2733 3391 
Q 2888 3369 3059 3328 
z
" transform="scale(0.015625)"/>
       <path id="DejaVuSerif-74" d="M 691 2988 
L 184 2988 
L 184 3322 
L 691 3322 
L 691 4353 
L 1269 4353 
L 1269 3322 
L 2350 3322 
L 2350 2988 
L 1269 2988 
L 1269 878 
Q 1269 456 1350 337 
Q 1431 219 1650 219 
Q 1875 219 1978 351 
Q 2081 484 2088 781 
L 2522 781 
Q 2497 328 2275 118 
Q 2053 -91 1600 -91 
Q 1103 -91 897 129 
Q 691 350 691 878 
L 691 2988 
z
" transform="scale(0.015625)"/>
       <path id="DejaVuSerif-69" d="M 622 4353 
Q 622 4497 726 4603 
Q 831 4709 978 4709 
Q 1122 4709 1226 4603 
Q 1331 4497 1331 4353 
Q 1331 4206 1228 4103 
Q 1125 4000 978 4000 
Q 831 4000 726 4103 
Q 622 4206 622 4353 
z
M 1356 331 
L 1900 331 
L 1900 0 
L 231 0 
L 231 331 
L 781 331 
L 781 2988 
L 231 2988 
L 231 3322 
L 1356 3322 
L 1356 331 
z
" transform="scale(0.015625)"/>
       <path id="DejaVuSerif-63" d="M 3291 997 
Q 3169 466 2822 187 
Q 2475 -91 1925 -91 
Q 1200 -91 759 389 
Q 319 869 319 1663 
Q 319 2459 759 2936 
Q 1200 3413 1925 3413 
Q 2241 3413 2553 3339 
Q 2866 3266 3181 3116 
L 3181 2266 
L 2847 2266 
Q 2781 2703 2561 2903 
Q 2341 3103 1931 3103 
Q 1466 3103 1228 2742 
Q 991 2381 991 1663 
Q 991 944 1227 581 
Q 1463 219 1931 219 
Q 2303 219 2525 412 
Q 2747 606 2828 997 
L 3291 997 
z
" transform="scale(0.015625)"/>
       <path id="DejaVuSerif-6c" d="M 1313 331 
L 1856 331 
L 1856 0 
L 184 0 
L 184 331 
L 738 331 
L 738 4531 
L 184 4531 
L 184 4863 
L 1313 4863 
L 1313 331 
z
" transform="scale(0.015625)"/>
       <path id="DejaVuSerif-65" d="M 3469 1600 
L 991 1600 
L 991 1575 
Q 991 903 1244 561 
Q 1497 219 1991 219 
Q 2369 219 2611 417 
Q 2853 616 2950 1006 
L 3413 1006 
Q 3275 459 2904 184 
Q 2534 -91 1931 -91 
Q 1203 -91 761 389 
Q 319 869 319 1663 
Q 319 2450 753 2931 
Q 1188 3413 1894 3413 
Q 2647 3413 3050 2948 
Q 3453 2484 3469 1600 
z
M 2791 1931 
Q 2772 2513 2545 2808 
Q 2319 3103 1894 3103 
Q 1497 3103 1269 2806 
Q 1041 2509 991 1931 
L 2791 1931 
z
" transform="scale(0.015625)"/>
       <path id="DejaVuSerif-6e" d="M 263 0 
L 263 331 
L 781 331 
L 781 2988 
L 231 2988 
L 231 3322 
L 1356 3322 
L 1356 2731 
Q 1516 3069 1770 3241 
Q 2025 3413 2363 3413 
Q 2913 3413 3172 3097 
Q 3431 2781 3431 2113 
L 3431 331 
L 3944 331 
L 3944 0 
L 2356 0 
L 2356 331 
L 2853 331 
L 2853 1931 
Q 2853 2541 2703 2767 
Q 2553 2994 2175 2994 
Q 1775 2994 1565 2701 
Q 1356 2409 1356 1850 
L 1356 331 
L 1856 331 
L 1856 0 
L 263 0 
z
" transform="scale(0.015625)"/>
       <path id="DejaVuSerif-67" d="M 3359 2988 
L 3359 72 
Q 3359 -644 2965 -1033 
Q 2572 -1422 1844 -1422 
Q 1516 -1422 1216 -1362 
Q 916 -1303 641 -1184 
L 641 -488 
L 941 -488 
Q 997 -813 1206 -963 
Q 1416 -1113 1806 -1113 
Q 2313 -1113 2548 -827 
Q 2784 -541 2784 72 
L 2784 519 
Q 2616 206 2355 57 
Q 2094 -91 1709 -91 
Q 1097 -91 708 395 
Q 319 881 319 1663 
Q 319 2444 706 2928 
Q 1094 3413 1709 3413 
Q 2094 3413 2355 3264 
Q 2616 3116 2784 2803 
L 2784 3322 
L 3909 3322 
L 3909 2988 
L 3359 2988 
z
M 2784 1825 
Q 2784 2422 2554 2737 
Q 2325 3053 1888 3053 
Q 1444 3053 1217 2703 
Q 991 2353 991 1663 
Q 991 975 1217 622 
Q 1444 269 1888 269 
Q 2325 269 2554 583 
Q 2784 897 2784 1497 
L 2784 1825 
z
" transform="scale(0.015625)"/>
       <path id="DejaVuSerif-79" d="M 1381 -609 
L 1600 -56 
L 359 2988 
L -19 2988 
L -19 3322 
L 1509 3322 
L 1509 2988 
L 978 2988 
L 1913 703 
L 2847 2988 
L 2350 2988 
L 2350 3322 
L 3597 3322 
L 3597 2988 
L 3225 2988 
L 1703 -750 
Q 1547 -1138 1356 -1280 
Q 1166 -1422 819 -1422 
Q 672 -1422 517 -1397 
Q 363 -1372 206 -1325 
L 206 -691 
L 500 -691 
Q 519 -903 608 -995 
Q 697 -1088 884 -1088 
Q 1056 -1088 1161 -992 
Q 1266 -897 1381 -609 
z
" transform="scale(0.015625)"/>
      </defs>
      <use xlink:href="#DejaVuSerif-50"/>
      <use xlink:href="#DejaVuSerif-61" x="62.785156"/>
      <use xlink:href="#DejaVuSerif-72" x="122.404297"/>
      <use xlink:href="#DejaVuSerif-74" x="170.207031"/>
      <use xlink:href="#DejaVuSerif-69" x="210.392578"/>
      <use xlink:href="#DejaVuSerif-63" x="242.375"/>
      <use xlink:href="#DejaVuSerif-6c" x="298.380859"/>
      <use xlink:href="#DejaVuSerif-65" x="330.363281"/>
      <use xlink:href="#DejaVuSerif-20" x="389.542969"/>
      <use xlink:href="#DejaVuSerif-65" x="421.330078"/>
      <use xlink:href="#DejaVuSerif-6e" x="480.509766"/>
      <use xlink:href="#DejaVuSerif-65" x="544.914062"/>
      <use xlink:href="#DejaVuSerif-72" x="604.09375"/>
      <use xlink:href="#DejaVuSerif-67" x="651.896484"/>
      <use xlink:href="#DejaVuSerif-79" x="715.910156"/>
      <use xlink:href="#DejaVuSerif-20" x="772.404297"/>
      <use xlink:href="#DejaVuSerif-28" x="804.191406"/>
      <use xlink:href="#DejaVuSerif-61" x="843.205078"/>
      <use xlink:href="#DejaVuSerif-2e" x="902.824219"/>
      <use xlink:href="#DejaVuSerif-75" x="934.611328"/>
      <use xlink:href="#DejaVuSerif-2e" x="999.015625"/>
      <use xlink:href="#DejaVuSerif-29" x="1030.802734"/>
     </g>
    </g>
   </g>
   <g id="line2d_40">
    <path d="M 127.292588 577 
L 127.962341 373.153116 
L 128.635301 372.595009 
L 129.981222 372.318517 
L 132.673065 372.17713 
L 140.748591 372.090959 
L 177.761422 372.048386 
L 588.940327 372.034529 
L 799.576983 372.033995 
L 799.576983 372.033995 
" clip-path="url(#p34e0e19ce7)" style="fill: none; stroke: #1f77b4; stroke-width: 3; stroke-linecap: square"/>
   </g>
   <g id="line2d_41">
    <path d="M 127.290612 577 
L 127.962341 70.982583 
L 128.635301 69.690766 
L 129.308262 69.268057 
L 130.654183 68.929332 
L 132.673065 68.739464 
L 137.383789 68.592251 
L 150.170039 68.498415 
L 201.315042 68.447302 
L 627.97204 68.427831 
L 799.576983 68.426969 
L 799.576983 68.426969 
" clip-path="url(#p34e0e19ce7)" style="fill: none; stroke: #ff7f0e; stroke-width: 3; stroke-linecap: square"/>
   </g>
   <g id="line2d_42">
    <path d="M 127.28938 519.818859 
L 127.962341 234.486081 
L 128.635301 233.728002 
L 129.308262 233.46421 
L 130.654183 233.253391 
L 134.018986 233.093857 
L 143.440434 233.000205 
L 183.145107 232.952493 
L 555.292299 232.935586 
L 799.576983 232.934663 
L 799.576983 232.934663 
" clip-path="url(#p34e0e19ce7)" style="fill: none; stroke: #2ca02c; stroke-width: 3; stroke-linecap: square"/>
   </g>
   <g id="line2d_43">
    <path d="M 127.28938 519.857472 
L 127.962341 520.143596 
L 128.635301 520.010842 
L 130.654183 520.024068 
L 179.780304 519.505761 
L 199.29616 519.121568 
L 211.409451 518.740254 
L 220.830899 518.291708 
L 229.579386 517.609901 
L 234.96307 516.91485 
L 237.654913 516.438924 
L 240.346755 515.793199 
L 243.711558 514.431995 
L 244.384518 514.138477 
L 246.4034 512.558818 
L 247.076361 512.015813 
L 247.749321 511.182014 
L 249.095242 508.84502 
L 249.768203 506.427278 
L 250.441163 504.935851 
L 251.787084 497.689903 
L 253.133006 500.960886 
L 253.805966 503.284668 
L 254.478927 504.412245 
L 255.151887 506.833117 
L 255.824848 507.988631 
L 256.497808 509.397081 
L 258.51669 511.151685 
L 259.862611 512.030063 
L 261.881493 512.968889 
L 264.573335 513.872013 
L 266.592217 514.375094 
L 274.667744 515.605074 
L 286.108073 516.484107 
L 296.875442 516.940318 
L 311.007614 517.312187 
L 331.196431 517.644829 
L 362.825578 517.924991 
L 412.624659 518.126888 
L 481.266637 518.131425 
L 526.354995 517.931308 
L 557.31118 517.580423 
L 576.154076 517.139022 
L 588.267366 516.626288 
L 595.669933 516.098632 
L 601.726578 515.457764 
L 605.764341 514.759645 
L 608.456183 514.116723 
L 611.148026 513.14979 
L 612.493947 512.471447 
L 616.53171 509.653442 
L 617.204671 508.822532 
L 617.877631 508.172817 
L 619.223552 504.209945 
L 619.896513 501.794997 
L 620.569473 500.73796 
L 621.242434 502.10467 
L 621.915395 498.87143 
L 622.588355 497.549694 
L 623.934276 499.807745 
L 624.607237 500.89268 
L 625.280197 501.737744 
L 626.626119 502.817981 
L 627.299079 503.988205 
L 629.317961 505.435949 
L 631.336843 506.229702 
L 633.355724 506.847367 
L 637.393488 507.591642 
L 639.412369 507.909368 
L 642.104212 508.316122 
L 651.525659 509.077721 
L 664.31191 509.458985 
L 674.406319 509.469526 
L 683.827766 509.253322 
L 690.557372 508.885551 
L 700.651781 508.005814 
L 704.016583 507.471213 
L 706.035465 507.075379 
L 706.708426 506.83781 
L 707.381386 506.404751 
L 710.073228 505.302932 
L 710.746189 504.817861 
L 711.41915 504.182037 
L 712.09211 503.824892 
L 712.765071 503.298103 
L 714.783952 500.847743 
L 715.456913 500.010789 
L 716.129874 498.817484 
L 716.802834 496.487484 
L 717.475795 493.41711 
L 718.148755 494.155561 
L 719.494676 495.281953 
L 720.167637 497.036205 
L 721.513558 498.427529 
L 722.186519 499.329152 
L 722.859479 500.009531 
L 723.53244 500.423697 
L 724.878361 501.026625 
L 725.551321 501.405618 
L 726.224282 501.599311 
L 726.897243 502.085975 
L 728.243164 502.657499 
L 728.916124 502.803954 
L 730.262045 503.431807 
L 737.664612 505.024395 
L 742.375336 505.37822 
L 752.469744 505.798806 
L 759.87231 505.890255 
L 767.947837 505.766299 
L 776.023364 505.371823 
L 781.407048 504.947388 
L 785.444812 504.181959 
L 786.790733 503.864383 
L 789.482575 503.451486 
L 790.828496 503.110412 
L 791.501457 502.820697 
L 793.520338 502.222818 
L 794.193299 502.026863 
L 796.885141 499.654557 
L 798.231062 498.355736 
L 798.904023 497.06923 
L 799.576983 495.40496 
L 799.576983 495.40496 
" clip-path="url(#p34e0e19ce7)" style="fill: none; stroke: #d62728; stroke-width: 3; stroke-linecap: square"/>
   </g>
   <g id="line2d_44">
    <path d="M 127.28938 470.399876 
L 127.962341 471.793306 
L 128.635301 472.901535 
L 129.308262 473.51217 
L 129.981222 473.609811 
L 130.654183 473.866347 
L 136.710828 474.296222 
L 137.383789 474.140152 
L 138.056749 474.285517 
L 138.72971 474.227029 
L 140.075631 474.232345 
L 141.421552 474.289887 
L 142.094513 474.235383 
L 142.767473 474.351202 
L 143.440434 474.194453 
L 144.113394 474.377843 
L 144.786355 474.211544 
L 145.459315 474.350476 
L 146.132276 474.264235 
L 147.478197 474.284579 
L 150.170039 474.384013 
L 150.843 474.211112 
L 151.51596 474.392055 
L 152.188921 474.243194 
L 152.861882 474.349108 
L 154.880763 474.299137 
L 167.667014 474.279878 
L 168.339975 474.354802 
L 169.012935 474.186382 
L 169.685896 474.397988 
L 170.358856 474.176919 
L 171.031817 474.309013 
L 171.704777 474.240182 
L 172.377738 474.330894 
L 173.050699 474.218112 
L 173.723659 474.311493 
L 175.06958 474.232826 
L 175.742541 474.350654 
L 176.415501 474.140209 
L 177.088462 474.391926 
L 177.761422 474.116078 
L 178.434383 474.364703 
L 179.107344 474.181816 
L 179.780304 474.281132 
L 180.453265 474.215569 
L 181.799186 474.254958 
L 182.472146 474.189387 
L 183.145107 474.325814 
L 183.818068 474.103373 
L 184.491028 474.358766 
L 185.163989 474.095865 
L 185.836949 474.323501 
L 186.50991 474.187678 
L 188.528791 474.177197 
L 190.547673 474.268958 
L 191.220634 474.082017 
L 191.893594 474.302239 
L 192.566555 474.078606 
L 193.239515 474.258866 
L 194.585437 474.137516 
L 195.258397 474.289713 
L 195.931358 473.989413 
L 196.604318 474.342611 
L 197.277279 473.963648 
L 197.950239 474.248481 
L 198.6232 474.106169 
L 199.29616 474.207892 
L 199.969121 474.059124 
L 200.642082 474.176851 
L 201.988003 474.052344 
L 202.660963 474.247665 
L 203.333924 473.902732 
L 204.006884 474.301843 
L 204.679845 473.867318 
L 205.352806 474.262035 
L 206.025766 473.998576 
L 206.698727 474.125562 
L 209.390569 473.986954 
L 210.06353 474.149849 
L 210.73649 473.840356 
L 211.409451 474.206944 
L 212.082411 473.809305 
L 212.755372 474.157132 
L 213.428332 473.954453 
L 214.101293 473.980324 
L 214.774253 474.14407 
L 215.447214 473.714956 
L 216.120175 474.250005 
L 216.793135 473.588316 
L 217.466096 474.150984 
L 218.139056 473.773141 
L 218.812017 474.005674 
L 219.484977 473.763143 
L 220.157938 473.993954 
L 221.503859 473.811194 
L 222.17682 474.036908 
L 222.84978 473.513542 
L 223.522741 474.155788 
L 224.195701 473.343315 
L 224.868662 474.13611 
L 225.541622 473.539061 
L 226.214583 473.934616 
L 226.887544 473.874297 
L 227.560504 473.599377 
L 228.233465 473.949636 
L 228.906425 473.652343 
L 229.579386 473.695992 
L 230.252346 473.418762 
L 230.925307 473.867992 
L 231.598268 473.161755 
L 232.271228 473.880266 
L 232.944189 473.282448 
L 233.617149 473.656955 
L 234.29011 473.649325 
L 234.96307 473.124697 
L 235.636031 473.946335 
L 236.308992 472.360928 
L 236.981952 474.064766 
L 237.654913 472.140989 
L 238.327873 473.964971 
L 239.000834 472.818555 
L 239.673794 473.568294 
L 240.346755 473.414115 
L 241.019715 473.083457 
L 241.692676 473.443309 
L 242.365637 472.855645 
L 243.711558 472.524648 
L 244.384518 472.310297 
L 245.057479 472.232589 
L 245.730439 472.293445 
L 246.4034 471.908434 
L 247.076361 472.125704 
L 247.749321 474.238177 
L 248.422282 470.633788 
L 249.095242 468.977622 
L 249.768203 465.543146 
L 251.114124 470.440855 
L 251.787084 441.906434 
L 252.460045 465.223387 
L 253.133006 472.474941 
L 253.805966 476.599903 
L 254.478927 469.164346 
L 255.151887 478.761236 
L 255.824848 473.011416 
L 256.497808 476.426384 
L 257.170769 477.585157 
L 257.84373 475.554632 
L 258.51669 474.339694 
L 259.189651 471.443154 
L 260.535572 476.489543 
L 261.208532 477.172749 
L 262.554454 473.64752 
L 263.227414 474.210234 
L 263.900375 475.654139 
L 264.573335 476.130087 
L 265.246296 476.224798 
L 265.919256 476.110924 
L 266.592217 475.058012 
L 267.265177 476.110758 
L 269.95702 474.614017 
L 270.62998 474.843087 
L 271.302941 475.387042 
L 271.975901 475.78209 
L 272.648862 476.002438 
L 273.994783 476.132718 
L 274.667744 475.758162 
L 275.340704 476.146473 
L 276.686625 475.666515 
L 278.032546 475.269056 
L 278.705507 475.323683 
L 280.724389 476.250555 
L 281.397349 476.292144 
L 282.07031 476.126778 
L 283.416231 475.51792 
L 284.089192 475.536388 
L 286.108073 476.008621 
L 286.781034 476.276347 
L 289.472876 476.127113 
L 292.164718 475.716544 
L 292.837679 475.775682 
L 294.856561 476.346589 
L 296.202482 476.129907 
L 297.548403 475.817186 
L 298.894324 475.911007 
L 300.913206 476.307012 
L 301.586166 476.349553 
L 303.605048 475.91853 
L 305.62393 476.117052 
L 307.642811 476.390835 
L 308.315772 476.301625 
L 308.988732 476.420647 
L 311.007614 476.089059 
L 312.353535 476.014108 
L 313.026496 476.069451 
L 314.372417 476.385665 
L 316.391299 476.18955 
L 317.73722 476.043243 
L 319.083141 476.114872 
L 321.102023 476.413479 
L 324.466825 476.089569 
L 327.831628 476.391536 
L 329.177549 476.14863 
L 330.52347 476.143325 
L 333.888273 476.417441 
L 335.234194 476.184938 
L 336.580116 476.201185 
L 339.271958 476.495803 
L 339.944918 476.341787 
L 340.617879 476.473524 
L 341.9638 476.377739 
L 343.982682 476.209845 
L 345.328603 476.266664 
L 346.001563 476.408901 
L 347.347485 476.393708 
L 350.712287 476.217395 
L 353.40413 476.431802 
L 356.095972 476.218472 
L 357.441893 476.288817 
L 359.460775 476.464329 
L 362.152617 476.232362 
L 364.171499 476.371082 
L 365.51742 476.478956 
L 368.882223 476.267776 
L 372.247025 476.461978 
L 373.592947 476.288913 
L 375.611828 476.320419 
L 378.30367 476.474044 
L 380.322552 476.297221 
L 383.014394 476.485539 
L 383.687355 476.529361 
L 385.033276 476.469053 
L 385.706237 476.542681 
L 389.744 476.33609 
L 391.089921 476.481869 
L 395.800645 476.329557 
L 397.819527 476.479718 
L 401.85729 476.325126 
L 404.549132 476.464116 
L 407.240975 476.303862 
L 409.259856 476.442077 
L 410.605778 476.492548 
L 413.29762 476.307537 
L 415.989462 476.477452 
L 417.335383 476.463573 
L 419.354265 476.313609 
L 422.046107 476.451895 
L 423.392028 476.495407 
L 425.41091 476.322184 
L 428.102752 476.429475 
L 430.121634 476.452367 
L 431.467555 476.333932 
L 434.159397 476.422172 
L 436.178279 476.484039 
L 436.85124 476.390174 
L 439.543082 476.542455 
L 440.889003 476.379217 
L 458.385978 476.328879 
L 460.404859 476.364882 
L 462.423741 476.496743 
L 465.788544 476.309976 
L 469.826307 476.413316 
L 471.845189 476.30251 
L 476.555913 476.37196 
L 478.574795 476.311848 
L 482.612558 476.415856 
L 483.958479 476.303785 
L 486.650321 476.3962 
L 488.669203 476.472974 
L 490.015124 476.341632 
L 492.706966 476.534773 
L 494.052887 476.347059 
L 495.398809 476.474398 
L 500.109533 476.294178 
L 502.128414 476.466683 
L 506.166178 476.259848 
L 509.53098 476.417851 
L 512.222823 476.234076 
L 514.241704 476.395395 
L 515.587626 476.467347 
L 518.952428 476.224148 
L 522.990192 476.37806 
L 524.336113 476.216667 
L 526.354995 476.26964 
L 529.046837 476.444889 
L 531.065718 476.199492 
L 533.0846 476.286609 
L 535.103482 476.481836 
L 535.776442 476.336758 
L 536.449403 476.467685 
L 537.122364 476.482984 
L 539.814206 476.178581 
L 541.160127 476.186573 
L 542.506048 476.417445 
L 544.52493 476.281299 
L 547.216772 476.108202 
L 550.581575 476.354272 
L 553.273417 476.048864 
L 554.619338 476.160516 
L 556.63822 476.408881 
L 557.984141 476.22464 
L 559.330062 476.01824 
L 560.675983 476.068166 
L 564.040786 476.359805 
L 565.386707 476.043599 
L 566.059668 476.120036 
L 566.732628 476.461862 
L 567.405589 476.497642 
L 568.078549 476.166828 
L 568.75151 475.994297 
L 569.424471 475.969925 
L 570.097431 476.080648 
L 570.770392 476.312299 
L 572.116313 476.273413 
L 575.481116 475.810369 
L 576.827037 476.030983 
L 578.172958 476.332842 
L 578.845919 476.344094 
L 580.19184 476.013952 
L 581.537761 475.706185 
L 582.883682 475.830786 
L 585.575524 476.230913 
L 586.248485 476.265692 
L 586.921445 476.109232 
L 587.594406 476.33346 
L 588.267366 476.049322 
L 590.959209 475.454068 
L 591.632169 475.487272 
L 593.651051 476.253868 
L 594.324011 476.300585 
L 594.996972 476.191832 
L 597.015854 475.21264 
L 597.688814 475.273608 
L 598.361775 475.471502 
L 599.034735 476.374286 
L 599.707696 475.592764 
L 600.380657 475.077265 
L 601.053617 475.198045 
L 601.726578 475.809594 
L 602.399538 476.190777 
L 603.072499 476.28628 
L 603.745459 476.22344 
L 604.41842 475.937414 
L 605.764341 474.556453 
L 606.437302 474.765567 
L 607.110262 475.60157 
L 607.783223 474.76899 
L 609.129144 473.435371 
L 609.802104 473.632473 
L 610.475065 474.314613 
L 611.148026 477.345655 
L 611.820986 472.540065 
L 612.493947 472.118993 
L 613.166907 473.076053 
L 613.839868 476.691267 
L 614.512828 473.96019 
L 615.185789 476.074471 
L 615.85875 477.315881 
L 616.53171 476.550663 
L 617.204671 474.932721 
L 617.877631 470.265797 
L 618.550592 473.39934 
L 619.223552 471.118516 
L 619.896513 477.52532 
L 620.569473 470.164506 
L 621.242434 442.803748 
L 621.915395 466.984801 
L 622.588355 484.268686 
L 623.261316 482.872915 
L 623.934276 481.756247 
L 624.607237 485.117262 
L 625.280197 484.048274 
L 625.953158 485.78686 
L 627.299079 480.377242 
L 627.97204 483.949168 
L 628.645 477.29233 
L 629.317961 482.556022 
L 629.990921 481.28264 
L 630.663882 483.691327 
L 631.336843 479.594366 
L 632.009803 483.990584 
L 632.682764 481.700032 
L 633.355724 483.623395 
L 634.028685 483.630038 
L 634.701645 483.359983 
L 635.374606 484.417124 
L 636.047566 483.369892 
L 636.720527 483.659589 
L 637.393488 484.411214 
L 638.066448 483.57639 
L 638.739409 481.384805 
L 639.412369 483.179985 
L 640.08533 481.991839 
L 640.75829 482.129053 
L 641.431251 483.213025 
L 642.104212 481.864377 
L 642.777172 482.793438 
L 643.450133 483.184514 
L 644.123093 481.780739 
L 644.796054 482.90941 
L 645.469014 482.418848 
L 646.141975 482.360433 
L 646.814935 482.776744 
L 647.487896 481.818555 
L 648.160857 483.367436 
L 648.833817 481.650325 
L 649.506778 483.365841 
L 650.179738 481.783348 
L 650.852699 482.901693 
L 651.525659 482.294878 
L 652.19862 482.450615 
L 652.871581 483.291883 
L 653.544541 482.233513 
L 654.217502 483.414796 
L 654.890462 482.429875 
L 655.563423 482.912517 
L 656.236383 482.803936 
L 656.909344 482.53719 
L 657.582304 483.325731 
L 658.255265 482.351629 
L 658.928226 483.349841 
L 659.601186 482.366611 
L 660.274147 483.561163 
L 660.947107 483.136649 
L 661.620068 482.261766 
L 662.293028 483.279794 
L 662.965989 482.173451 
L 663.63895 483.515973 
L 664.31191 482.207625 
L 664.984871 483.413548 
L 665.657831 482.369638 
L 666.330792 483.087376 
L 667.003752 482.675127 
L 667.676713 482.828006 
L 668.349674 483.191745 
L 669.022634 482.683192 
L 669.695595 483.516754 
L 670.368555 483.317828 
L 671.041516 482.577139 
L 671.714476 482.964424 
L 672.387437 482.255808 
L 673.060397 483.253932 
L 673.733358 482.082062 
L 674.406319 483.522299 
L 675.079279 482.049268 
L 675.75224 483.384107 
L 676.4252 482.162811 
L 677.098161 483.057459 
L 677.771121 482.434482 
L 678.444082 482.804355 
L 679.790003 483.007548 
L 680.462964 483.250423 
L 681.135924 482.600543 
L 681.808885 482.509841 
L 682.481845 482.940455 
L 683.154806 482.083174 
L 683.827766 483.409615 
L 684.500727 481.884186 
L 685.173688 483.366777 
L 685.846648 481.914773 
L 686.519609 482.946498 
L 687.192569 482.230473 
L 687.86553 482.164732 
L 688.53849 483.149875 
L 689.211451 481.680333 
L 689.884412 482.538402 
L 690.557372 482.332454 
L 691.230333 481.690519 
L 691.903293 483.320563 
L 692.576254 481.708239 
L 693.249214 482.069532 
L 693.922175 484.078061 
L 694.595136 483.056895 
L 695.268096 484.149215 
L 695.941057 483.153472 
L 696.614017 484.269391 
L 697.286978 483.942247 
L 697.959938 481.717406 
L 698.632899 483.967742 
L 699.305859 483.691324 
L 699.97882 482.160919 
L 700.651781 482.092118 
L 701.324741 484.090225 
L 701.997702 483.117823 
L 702.670662 483.05363 
L 703.343623 480.505533 
L 704.016583 482.837877 
L 704.689544 479.596772 
L 705.362505 483.170848 
L 706.035465 483.615027 
L 706.708426 478.015769 
L 707.381386 477.503325 
L 708.054347 481.365392 
L 708.727307 482.590754 
L 709.400268 484.33447 
L 710.073228 478.367097 
L 710.746189 483.579859 
L 711.41915 476.920244 
L 712.09211 483.067581 
L 712.765071 481.004087 
L 713.438031 480.805174 
L 714.110992 480.962678 
L 714.783952 480.36153 
L 715.456913 485.148984 
L 716.129874 484.329022 
L 716.802834 483.010531 
L 717.475795 468.898797 
L 718.148755 473.095664 
L 718.821716 467.701314 
L 719.494676 484.525488 
L 720.167637 479.23846 
L 720.840597 487.656514 
L 721.513558 483.901246 
L 722.186519 486.127173 
L 722.859479 484.052205 
L 723.53244 487.011895 
L 724.2054 478.032435 
L 724.878361 484.895302 
L 725.551321 483.417603 
L 726.224282 480.476663 
L 727.570203 484.11511 
L 728.243164 486.708566 
L 728.916124 486.143545 
L 729.589085 481.728928 
L 730.262045 480.563178 
L 730.935006 485.386997 
L 731.607967 486.015864 
L 732.280927 482.463934 
L 732.953888 484.795756 
L 733.626848 480.599817 
L 734.299809 484.63244 
L 734.972769 482.675361 
L 735.64573 484.889979 
L 736.31869 481.103439 
L 736.991651 483.2019 
L 737.664612 483.570864 
L 738.337572 484.346275 
L 739.683493 485.398766 
L 740.356454 485.168435 
L 741.029414 484.50434 
L 741.702375 485.300596 
L 742.375336 484.848462 
L 743.048296 482.471948 
L 743.721257 482.758461 
L 744.394217 483.463175 
L 745.067178 485.162787 
L 745.740138 484.895238 
L 746.413099 485.197153 
L 747.086059 483.889793 
L 747.75902 483.177801 
L 748.431981 483.518048 
L 749.104941 484.057011 
L 749.777902 482.607382 
L 750.450862 484.65195 
L 751.123823 485.051172 
L 752.469744 483.192348 
L 753.142705 483.452613 
L 753.815665 484.704007 
L 754.488626 482.662275 
L 755.161586 484.432779 
L 755.834547 483.775129 
L 756.507507 482.943149 
L 757.180468 484.345081 
L 757.853429 484.6648 
L 758.526389 484.695411 
L 759.19935 483.359254 
L 759.87231 484.432558 
L 760.545271 484.739001 
L 761.218231 483.138986 
L 761.891192 484.762522 
L 762.564152 484.382548 
L 763.237113 483.122491 
L 763.910074 484.870631 
L 765.255995 483.3592 
L 765.928955 484.781864 
L 766.601916 483.701032 
L 767.274876 484.583674 
L 767.947837 482.681266 
L 768.620798 484.376919 
L 769.293758 483.349049 
L 769.966719 483.089485 
L 770.639679 484.32526 
L 771.31264 482.838557 
L 771.9856 484.622355 
L 772.658561 482.318564 
L 773.331521 483.291951 
L 774.004482 484.857872 
L 774.677443 483.058875 
L 775.350403 483.812447 
L 776.023364 485.088694 
L 776.696324 483.819792 
L 777.369285 484.47745 
L 778.042245 484.848762 
L 778.715206 484.19534 
L 779.388167 484.405219 
L 780.061127 484.936801 
L 780.734088 484.152025 
L 781.407048 483.925438 
L 782.080009 483.51306 
L 782.752969 480.534569 
L 783.42593 484.407615 
L 784.098891 484.671841 
L 784.771851 484.461137 
L 785.444812 482.341138 
L 786.117772 482.311315 
L 786.790733 485.074666 
L 787.463693 485.870616 
L 788.136654 485.057784 
L 788.809614 484.772297 
L 789.482575 480.423195 
L 790.155536 485.718754 
L 790.828496 481.300356 
L 791.501457 485.663235 
L 792.174417 484.327414 
L 792.847378 485.820188 
L 793.520338 486.070538 
L 794.193299 485.509761 
L 794.86626 482.040812 
L 795.53922 483.047831 
L 796.212181 485.198787 
L 796.885141 484.327096 
L 797.558102 486.231206 
L 798.231062 485.762593 
L 798.904023 480.509421 
L 799.576983 482.053055 
L 799.576983 482.053055 
" clip-path="url(#p34e0e19ce7)" style="fill: none; stroke: #000000; stroke-width: 3; stroke-linecap: square"/>
   </g>
   <g id="patch_3">
    <path d="M 93.675 489.2325 
L 93.675 28.08 
" style="fill: none; stroke: #000000; stroke-width: 2; stroke-linejoin: miter; stroke-linecap: square"/>
   </g>
   <g id="patch_4">
    <path d="M 833.191364 489.2325 
L 833.191364 28.08 
" style="fill: none; stroke: #000000; stroke-width: 2; stroke-linejoin: miter; stroke-linecap: square"/>
   </g>
   <g id="patch_5">
    <path d="M 93.675 489.2325 
L 833.191364 489.2325 
" style="fill: none; stroke: #000000; stroke-width: 2; stroke-linejoin: miter; stroke-linecap: square"/>
   </g>
   <g id="patch_6">
    <path d="M 93.675 28.08 
L 833.191364 28.08 
" style="fill: none; stroke: #000000; stroke-width: 2; stroke-linejoin: miter; stroke-linecap: square"/>
   </g>
   <g id="legend_1">
    <g id="patch_7">
     <path d="M 104.875 158.305 
L 243.3725 158.305 
Q 246.5725 158.305 246.5725 155.105 
L 246.5725 39.28 
Q 246.5725 36.08 243.3725 36.08 
L 104.875 36.08 
Q 101.675 36.08 101.675 39.28 
L 101.675 155.105 
Q 101.675 158.305 104.875 158.305 
z
" style="fill: #ffffff; opacity: 0.8; stroke: #cccccc; stroke-linejoin: miter"/>
    </g>
    <g id="line2d_45">
     <path d="M 108.075 49.0375 
L 124.075 49.0375 
L 140.075 49.0375 
" style="fill: none; stroke: #1f77b4; stroke-width: 3; stroke-linecap: square"/>
    </g>
    <g id="text_16">
     <!-- Electron 1 -->
     <g transform="translate(152.875 54.6375) scale(0.16 -0.16)">
      <defs>
       <path id="DejaVuSerif-45" d="M 353 0 
L 353 331 
L 947 331 
L 947 4331 
L 353 4331 
L 353 4666 
L 4109 4666 
L 4109 3628 
L 3725 3628 
L 3725 4281 
L 1581 4281 
L 1581 2719 
L 3109 2719 
L 3109 3303 
L 3494 3303 
L 3494 1753 
L 3109 1753 
L 3109 2338 
L 1581 2338 
L 1581 384 
L 3775 384 
L 3775 1038 
L 4159 1038 
L 4159 0 
L 353 0 
z
" transform="scale(0.015625)"/>
       <path id="DejaVuSerif-6f" d="M 1925 219 
Q 2388 219 2623 584 
Q 2859 950 2859 1663 
Q 2859 2375 2623 2739 
Q 2388 3103 1925 3103 
Q 1463 3103 1227 2739 
Q 991 2375 991 1663 
Q 991 950 1228 584 
Q 1466 219 1925 219 
z
M 1925 -91 
Q 1200 -91 759 389 
Q 319 869 319 1663 
Q 319 2456 758 2934 
Q 1197 3413 1925 3413 
Q 2653 3413 3092 2934 
Q 3531 2456 3531 1663 
Q 3531 869 3092 389 
Q 2653 -91 1925 -91 
z
" transform="scale(0.015625)"/>
      </defs>
      <use xlink:href="#DejaVuSerif-45"/>
      <use xlink:href="#DejaVuSerif-6c" x="72.998047"/>
      <use xlink:href="#DejaVuSerif-65" x="104.980469"/>
      <use xlink:href="#DejaVuSerif-63" x="164.160156"/>
      <use xlink:href="#DejaVuSerif-74" x="220.166016"/>
      <use xlink:href="#DejaVuSerif-72" x="260.351562"/>
      <use xlink:href="#DejaVuSerif-6f" x="308.154297"/>
      <use xlink:href="#DejaVuSerif-6e" x="368.359375"/>
      <use xlink:href="#DejaVuSerif-20" x="432.763672"/>
      <use xlink:href="#DejaVuSerif-31" x="464.550781"/>
     </g>
    </g>
    <g id="line2d_46">
     <path d="M 108.075 72.5225 
L 124.075 72.5225 
L 140.075 72.5225 
" style="fill: none; stroke: #ff7f0e; stroke-width: 3; stroke-linecap: square"/>
    </g>
    <g id="text_17">
     <!-- Electron 2 -->
     <g transform="translate(152.875 78.1225) scale(0.16 -0.16)">
      <use xlink:href="#DejaVuSerif-45"/>
      <use xlink:href="#DejaVuSerif-6c" x="72.998047"/>
      <use xlink:href="#DejaVuSerif-65" x="104.980469"/>
      <use xlink:href="#DejaVuSerif-63" x="164.160156"/>
      <use xlink:href="#DejaVuSerif-74" x="220.166016"/>
      <use xlink:href="#DejaVuSerif-72" x="260.351562"/>
      <use xlink:href="#DejaVuSerif-6f" x="308.154297"/>
      <use xlink:href="#DejaVuSerif-6e" x="368.359375"/>
      <use xlink:href="#DejaVuSerif-20" x="432.763672"/>
      <use xlink:href="#DejaVuSerif-32" x="464.550781"/>
     </g>
    </g>
    <g id="line2d_47">
     <path d="M 108.075 96.0075 
L 124.075 96.0075 
L 140.075 96.0075 
" style="fill: none; stroke: #2ca02c; stroke-width: 3; stroke-linecap: square"/>
    </g>
    <g id="text_18">
     <!-- Electron 3 -->
     <g transform="translate(152.875 101.6075) scale(0.16 -0.16)">
      <use xlink:href="#DejaVuSerif-45"/>
      <use xlink:href="#DejaVuSerif-6c" x="72.998047"/>
      <use xlink:href="#DejaVuSerif-65" x="104.980469"/>
      <use xlink:href="#DejaVuSerif-63" x="164.160156"/>
      <use xlink:href="#DejaVuSerif-74" x="220.166016"/>
      <use xlink:href="#DejaVuSerif-72" x="260.351562"/>
      <use xlink:href="#DejaVuSerif-6f" x="308.154297"/>
      <use xlink:href="#DejaVuSerif-6e" x="368.359375"/>
      <use xlink:href="#DejaVuSerif-20" x="432.763672"/>
      <use xlink:href="#DejaVuSerif-33" x="464.550781"/>
     </g>
    </g>
    <g id="line2d_48">
     <path d="M 108.075 119.4925 
L 124.075 119.4925 
L 140.075 119.4925 
" style="fill: none; stroke: #d62728; stroke-width: 3; stroke-linecap: square"/>
    </g>
    <g id="text_19">
     <!-- Electron 4 -->
     <g transform="translate(152.875 125.0925) scale(0.16 -0.16)">
      <defs>
       <path id="DejaVuSerif-34" d="M 2234 1581 
L 2234 4063 
L 641 1581 
L 2234 1581 
z
M 3609 0 
L 1484 0 
L 1484 331 
L 2234 331 
L 2234 1247 
L 197 1247 
L 197 1588 
L 2241 4750 
L 2859 4750 
L 2859 1581 
L 3750 1581 
L 3750 1247 
L 2859 1247 
L 2859 331 
L 3609 331 
L 3609 0 
z
" transform="scale(0.015625)"/>
      </defs>
      <use xlink:href="#DejaVuSerif-45"/>
      <use xlink:href="#DejaVuSerif-6c" x="72.998047"/>
      <use xlink:href="#DejaVuSerif-65" x="104.980469"/>
      <use xlink:href="#DejaVuSerif-63" x="164.160156"/>
      <use xlink:href="#DejaVuSerif-74" x="220.166016"/>
      <use xlink:href="#DejaVuSerif-72" x="260.351562"/>
      <use xlink:href="#DejaVuSerif-6f" x="308.154297"/>
      <use xlink:href="#DejaVuSerif-6e" x="368.359375"/>
      <use xlink:href="#DejaVuSerif-20" x="432.763672"/>
      <use xlink:href="#DejaVuSerif-34" x="464.550781"/>
     </g>
    </g>
    <g id="line2d_49">
     <path d="M 108.075 142.9775 
L 124.075 142.9775 
L 140.075 142.9775 
" style="fill: none; stroke: #000000; stroke-width: 3; stroke-linecap: square"/>
    </g>
    <g id="text_20">
     <!-- Antiproton -->
     <g transform="translate(152.875 148.5775) scale(0.16 -0.16)">
      <defs>
       <path id="DejaVuSerif-41" d="M 1281 1691 
L 2994 1691 
L 2138 3909 
L 1281 1691 
z
M -38 0 
L -38 331 
L 372 331 
L 2034 4666 
L 2559 4666 
L 4225 331 
L 4684 331 
L 4684 0 
L 2988 0 
L 2988 331 
L 3506 331 
L 3116 1356 
L 1153 1356 
L 763 331 
L 1275 331 
L 1275 0 
L -38 0 
z
" transform="scale(0.015625)"/>
       <path id="DejaVuSerif-70" d="M 1313 1825 
L 1313 1497 
Q 1313 897 1542 583 
Q 1772 269 2209 269 
Q 2650 269 2876 622 
Q 3103 975 3103 1663 
Q 3103 2353 2876 2703 
Q 2650 3053 2209 3053 
Q 1772 3053 1542 2737 
Q 1313 2422 1313 1825 
z
M 738 2988 
L 184 2988 
L 184 3322 
L 1313 3322 
L 1313 2803 
Q 1481 3116 1742 3264 
Q 2003 3413 2388 3413 
Q 3000 3413 3387 2928 
Q 3775 2444 3775 1663 
Q 3775 881 3387 395 
Q 3000 -91 2388 -91 
Q 2003 -91 1742 57 
Q 1481 206 1313 519 
L 1313 -997 
L 1856 -997 
L 1856 -1331 
L 184 -1331 
L 184 -997 
L 738 -997 
L 738 2988 
z
" transform="scale(0.015625)"/>
      </defs>
      <use xlink:href="#DejaVuSerif-41"/>
      <use xlink:href="#DejaVuSerif-6e" x="72.216797"/>
      <use xlink:href="#DejaVuSerif-74" x="136.621094"/>
      <use xlink:href="#DejaVuSerif-69" x="176.806641"/>
      <use xlink:href="#DejaVuSerif-70" x="208.789062"/>
      <use xlink:href="#DejaVuSerif-72" x="272.802734"/>
      <use xlink:href="#DejaVuSerif-6f" x="320.605469"/>
      <use xlink:href="#DejaVuSerif-74" x="380.810547"/>
      <use xlink:href="#DejaVuSerif-6f" x="420.996094"/>
      <use xlink:href="#DejaVuSerif-6e" x="481.201172"/>
     </g>
    </g>
   </g>
  </g>
 </g>
 <defs>
  <clipPath id="p34e0e19ce7">
   <rect x="93.675" y="28.08" width="739.516364" height="461.1525"/>
  </clipPath>
 </defs>
</svg>
