<?xml version="1.0" encoding="utf-8" standalone="no"?>
<!DOCTYPE svg PUBLIC "-//W3C//DTD SVG 1.1//EN"
  "http://www.w3.org/Graphics/SVG/1.1/DTD/svg11.dtd">
<svg xmlns:xlink="http://www.w3.org/1999/xlink" width="720pt" height="504pt" viewBox="0 0 720 504" xmlns="http://www.w3.org/2000/svg" version="1.1">
 <metadata>
  <rdf:RDF xmlns:dc="http://purl.org/dc/elements/1.1/" xmlns:cc="http://creativecommons.org/ns#" xmlns:rdf="http://www.w3.org/1999/02/22-rdf-syntax-ns#">
   <cc:Work>
    <dc:type rdf:resource="http://purl.org/dc/dcmitype/StillImage"/>
    <dc:date>2025-06-12T16:17:01.427085</dc:date>
    <dc:format>image/svg+xml</dc:format>
    <dc:creator>
     <cc:Agent>
      <dc:title>Matplotlib v3.7.2, https://matplotlib.org/</dc:title>
     </cc:Agent>
    </dc:creator>
   </cc:Work>
  </rdf:RDF>
 </metadata>
 <defs>
  <style type="text/css">*{stroke-linejoin: round; stroke-linecap: butt}</style>
 </defs>
 <g id="figure_1">
  <g id="patch_1">
   <path d="M 0 504 
L 720 504 
L 720 0 
L 0 0 
z
" style="fill: #ffffff"/>
  </g>
  <g id="axes_1">
   <g id="patch_2">
    <path d="M 120 417.2325 
L 684.118636 417.2325 
L 684.118636 28.08 
L 120 28.08 
z
" style="fill: #ffffff"/>
   </g>
   <g id="matplotlib.axis_1">
    <g id="xtick_1">
     <g id="line2d_1">
      <path d="M 145.641756 417.2325 
L 145.641756 28.08 
" clip-path="url(#p8376189c84)" style="fill: none; stroke-dasharray: 3.7,1.6; stroke-dashoffset: 0; stroke: #b0b0b0; stroke-opacity: 0.5"/>
     </g>
     <g id="line2d_2">
      <defs>
       <path id="mc0709cf858" d="M 0 0 
L 0 -10 
" style="stroke: #000000; stroke-width: 2"/>
      </defs>
      <g>
       <use xlink:href="#mc0709cf858" x="145.641756" y="417.2325" style="stroke: #000000; stroke-width: 2"/>
      </g>
     </g>
     <g id="line2d_3">
      <defs>
       <path id="m1be62524cf" d="M 0 0 
L 0 10 
" style="stroke: #000000; stroke-width: 2"/>
      </defs>
      <g>
       <use xlink:href="#m1be62524cf" x="145.641756" y="28.08" style="stroke: #000000; stroke-width: 2"/>
      </g>
     </g>
     <g id="text_1">
      <!-- 0 -->
      <g transform="translate(137.370506 440.488438) scale(0.26 -0.26)">
       <defs>
        <path id="DejaVuSerif-30" d="M 2034 219 
Q 2513 219 2750 744 
Q 2988 1269 2988 2328 
Q 2988 3391 2750 3916 
Q 2513 4441 2034 4441 
Q 1556 4441 1318 3916 
Q 1081 3391 1081 2328 
Q 1081 1269 1318 744 
Q 1556 219 2034 219 
z
M 2034 -91 
Q 1275 -91 848 546 
Q 422 1184 422 2328 
Q 422 3475 848 4112 
Q 1275 4750 2034 4750 
Q 2797 4750 3222 4112 
Q 3647 3475 3647 2328 
Q 3647 1184 3222 546 
Q 2797 -91 2034 -91 
z
" transform="scale(0.015625)"/>
       </defs>
       <use xlink:href="#DejaVuSerif-30"/>
      </g>
     </g>
    </g>
    <g id="xtick_2">
     <g id="line2d_4">
      <path d="M 248.208781 417.2325 
L 248.208781 28.08 
" clip-path="url(#p8376189c84)" style="fill: none; stroke-dasharray: 3.7,1.6; stroke-dashoffset: 0; stroke: #b0b0b0; stroke-opacity: 0.5"/>
     </g>
     <g id="line2d_5">
      <g>
       <use xlink:href="#mc0709cf858" x="248.208781" y="417.2325" style="stroke: #000000; stroke-width: 2"/>
      </g>
     </g>
     <g id="line2d_6">
      <g>
       <use xlink:href="#m1be62524cf" x="248.208781" y="28.08" style="stroke: #000000; stroke-width: 2"/>
      </g>
     </g>
     <g id="text_2">
      <!-- 500 -->
      <g transform="translate(223.395031 440.488438) scale(0.26 -0.26)">
       <defs>
        <path id="DejaVuSerif-35" d="M 3219 4666 
L 3219 4153 
L 1081 4153 
L 1081 2816 
Q 1244 2928 1461 2984 
Q 1678 3041 1947 3041 
Q 2703 3041 3140 2622 
Q 3578 2203 3578 1478 
Q 3578 738 3136 323 
Q 2694 -91 1894 -91 
Q 1572 -91 1234 -12 
Q 897 66 544 225 
L 544 1131 
L 897 1131 
Q 925 688 1179 453 
Q 1434 219 1894 219 
Q 2388 219 2653 544 
Q 2919 869 2919 1478 
Q 2919 2084 2655 2407 
Q 2391 2731 1894 2731 
Q 1613 2731 1398 2631 
Q 1184 2531 1019 2322 
L 750 2322 
L 750 4666 
L 3219 4666 
z
" transform="scale(0.015625)"/>
       </defs>
       <use xlink:href="#DejaVuSerif-35"/>
       <use xlink:href="#DejaVuSerif-30" x="63.623047"/>
       <use xlink:href="#DejaVuSerif-30" x="127.246094"/>
      </g>
     </g>
    </g>
    <g id="xtick_3">
     <g id="line2d_7">
      <path d="M 350.775806 417.2325 
L 350.775806 28.08 
" clip-path="url(#p8376189c84)" style="fill: none; stroke-dasharray: 3.7,1.6; stroke-dashoffset: 0; stroke: #b0b0b0; stroke-opacity: 0.5"/>
     </g>
     <g id="line2d_8">
      <g>
       <use xlink:href="#mc0709cf858" x="350.775806" y="417.2325" style="stroke: #000000; stroke-width: 2"/>
      </g>
     </g>
     <g id="line2d_9">
      <g>
       <use xlink:href="#m1be62524cf" x="350.775806" y="28.08" style="stroke: #000000; stroke-width: 2"/>
      </g>
     </g>
     <g id="text_3">
      <!-- 1000 -->
      <g transform="translate(317.690806 440.488438) scale(0.26 -0.26)">
       <defs>
        <path id="DejaVuSerif-31" d="M 909 0 
L 909 331 
L 1722 331 
L 1722 4213 
L 781 3603 
L 781 4013 
L 1919 4750 
L 2350 4750 
L 2350 331 
L 3163 331 
L 3163 0 
L 909 0 
z
" transform="scale(0.015625)"/>
       </defs>
       <use xlink:href="#DejaVuSerif-31"/>
       <use xlink:href="#DejaVuSerif-30" x="63.623047"/>
       <use xlink:href="#DejaVuSerif-30" x="127.246094"/>
       <use xlink:href="#DejaVuSerif-30" x="190.869141"/>
      </g>
     </g>
    </g>
    <g id="xtick_4">
     <g id="line2d_10">
      <path d="M 453.342831 417.2325 
L 453.342831 28.08 
" clip-path="url(#p8376189c84)" style="fill: none; stroke-dasharray: 3.7,1.6; stroke-dashoffset: 0; stroke: #b0b0b0; stroke-opacity: 0.5"/>
     </g>
     <g id="line2d_11">
      <g>
       <use xlink:href="#mc0709cf858" x="453.342831" y="417.2325" style="stroke: #000000; stroke-width: 2"/>
      </g>
     </g>
     <g id="line2d_12">
      <g>
       <use xlink:href="#m1be62524cf" x="453.342831" y="28.08" style="stroke: #000000; stroke-width: 2"/>
      </g>
     </g>
     <g id="text_4">
      <!-- 1500 -->
      <g transform="translate(420.257831 440.488438) scale(0.26 -0.26)">
       <use xlink:href="#DejaVuSerif-31"/>
       <use xlink:href="#DejaVuSerif-35" x="63.623047"/>
       <use xlink:href="#DejaVuSerif-30" x="127.246094"/>
       <use xlink:href="#DejaVuSerif-30" x="190.869141"/>
      </g>
     </g>
    </g>
    <g id="xtick_5">
     <g id="line2d_13">
      <path d="M 555.909855 417.2325 
L 555.909855 28.08 
" clip-path="url(#p8376189c84)" style="fill: none; stroke-dasharray: 3.7,1.6; stroke-dashoffset: 0; stroke: #b0b0b0; stroke-opacity: 0.5"/>
     </g>
     <g id="line2d_14">
      <g>
       <use xlink:href="#mc0709cf858" x="555.909855" y="417.2325" style="stroke: #000000; stroke-width: 2"/>
      </g>
     </g>
     <g id="line2d_15">
      <g>
       <use xlink:href="#m1be62524cf" x="555.909855" y="28.08" style="stroke: #000000; stroke-width: 2"/>
      </g>
     </g>
     <g id="text_5">
      <!-- 2000 -->
      <g transform="translate(522.824855 440.488438) scale(0.26 -0.26)">
       <defs>
        <path id="DejaVuSerif-32" d="M 819 3553 
L 469 3553 
L 469 4384 
Q 803 4563 1142 4656 
Q 1481 4750 1806 4750 
Q 2534 4750 2956 4397 
Q 3378 4044 3378 3438 
Q 3378 2753 2422 1800 
Q 2347 1728 2309 1691 
L 1131 513 
L 3078 513 
L 3078 1088 
L 3444 1088 
L 3444 0 
L 434 0 
L 434 341 
L 1850 1753 
Q 2319 2222 2519 2614 
Q 2719 3006 2719 3438 
Q 2719 3909 2473 4175 
Q 2228 4441 1797 4441 
Q 1350 4441 1106 4219 
Q 863 3997 819 3553 
z
" transform="scale(0.015625)"/>
       </defs>
       <use xlink:href="#DejaVuSerif-32"/>
       <use xlink:href="#DejaVuSerif-30" x="63.623047"/>
       <use xlink:href="#DejaVuSerif-30" x="127.246094"/>
       <use xlink:href="#DejaVuSerif-30" x="190.869141"/>
      </g>
     </g>
    </g>
    <g id="xtick_6">
     <g id="line2d_16">
      <path d="M 658.47688 417.2325 
L 658.47688 28.08 
" clip-path="url(#p8376189c84)" style="fill: none; stroke-dasharray: 3.7,1.6; stroke-dashoffset: 0; stroke: #b0b0b0; stroke-opacity: 0.5"/>
     </g>
     <g id="line2d_17">
      <g>
       <use xlink:href="#mc0709cf858" x="658.47688" y="417.2325" style="stroke: #000000; stroke-width: 2"/>
      </g>
     </g>
     <g id="line2d_18">
      <g>
       <use xlink:href="#m1be62524cf" x="658.47688" y="28.08" style="stroke: #000000; stroke-width: 2"/>
      </g>
     </g>
     <g id="text_6">
      <!-- 2500 -->
      <g transform="translate(625.39188 440.488438) scale(0.26 -0.26)">
       <use xlink:href="#DejaVuSerif-32"/>
       <use xlink:href="#DejaVuSerif-35" x="63.623047"/>
       <use xlink:href="#DejaVuSerif-30" x="127.246094"/>
       <use xlink:href="#DejaVuSerif-30" x="190.869141"/>
      </g>
     </g>
    </g>
    <g id="text_7">
     <!-- $t$ (a.u.) -->
     <g transform="translate(358.639318 469.651563) scale(0.26 -0.26)">
      <defs>
       <path id="Cmmi10-74" d="M 397 519 
Q 397 613 416 697 
L 878 2534 
L 206 2534 
Q 141 2534 141 2619 
Q 166 2759 225 2759 
L 934 2759 
L 1191 3803 
Q 1216 3888 1291 3947 
Q 1366 4006 1459 4006 
Q 1541 4006 1595 3957 
Q 1650 3909 1650 3828 
Q 1650 3809 1648 3798 
Q 1647 3788 1644 3775 
L 1388 2759 
L 2047 2759 
Q 2113 2759 2113 2675 
Q 2109 2659 2100 2621 
Q 2091 2584 2075 2559 
Q 2059 2534 2028 2534 
L 1331 2534 
L 872 684 
Q 825 503 825 372 
Q 825 97 1013 97 
Q 1294 97 1511 361 
Q 1728 625 1844 941 
Q 1869 978 1894 978 
L 1972 978 
Q 1997 978 2012 961 
Q 2028 944 2028 922 
Q 2028 909 2022 903 
Q 1881 516 1612 222 
Q 1344 -72 997 -72 
Q 744 -72 570 93 
Q 397 259 397 519 
z
" transform="scale(0.015625)"/>
       <path id="DejaVuSerif-20" transform="scale(0.015625)"/>
       <path id="DejaVuSerif-28" d="M 2041 -997 
Q 1281 -656 893 83 
Q 506 822 506 1931 
Q 506 3044 893 3783 
Q 1281 4522 2041 4863 
L 2041 4556 
Q 1559 4225 1350 3623 
Q 1141 3022 1141 1931 
Q 1141 844 1350 242 
Q 1559 -359 2041 -691 
L 2041 -997 
z
" transform="scale(0.015625)"/>
       <path id="DejaVuSerif-61" d="M 2547 1044 
L 2547 1747 
L 1806 1747 
Q 1378 1747 1168 1562 
Q 959 1378 959 997 
Q 959 650 1171 447 
Q 1384 244 1747 244 
Q 2106 244 2326 466 
Q 2547 688 2547 1044 
z
M 3122 2075 
L 3122 331 
L 3634 331 
L 3634 0 
L 2547 0 
L 2547 359 
Q 2356 128 2106 18 
Q 1856 -91 1522 -91 
Q 969 -91 644 203 
Q 319 497 319 997 
Q 319 1513 691 1797 
Q 1063 2081 1741 2081 
L 2547 2081 
L 2547 2309 
Q 2547 2688 2317 2895 
Q 2088 3103 1672 3103 
Q 1328 3103 1125 2947 
Q 922 2791 872 2484 
L 575 2484 
L 575 3156 
Q 875 3284 1158 3348 
Q 1441 3413 1709 3413 
Q 2400 3413 2761 3070 
Q 3122 2728 3122 2075 
z
" transform="scale(0.015625)"/>
       <path id="DejaVuSerif-2e" d="M 603 325 
Q 603 500 722 622 
Q 841 744 1019 744 
Q 1191 744 1312 622 
Q 1434 500 1434 325 
Q 1434 153 1312 31 
Q 1191 -91 1019 -91 
Q 841 -91 722 29 
Q 603 150 603 325 
z
" transform="scale(0.015625)"/>
       <path id="DejaVuSerif-75" d="M 2266 3322 
L 3341 3322 
L 3341 331 
L 3884 331 
L 3884 0 
L 2766 0 
L 2766 588 
Q 2606 256 2353 82 
Q 2100 -91 1766 -91 
Q 1213 -91 952 223 
Q 691 538 691 1209 
L 691 2988 
L 172 2988 
L 172 3322 
L 1269 3322 
L 1269 1388 
Q 1269 781 1417 556 
Q 1566 331 1947 331 
Q 2347 331 2556 625 
Q 2766 919 2766 1478 
L 2766 2988 
L 2266 2988 
L 2266 3322 
z
" transform="scale(0.015625)"/>
       <path id="DejaVuSerif-29" d="M 453 -997 
L 453 -691 
Q 934 -359 1145 242 
Q 1356 844 1356 1931 
Q 1356 3022 1145 3623 
Q 934 4225 453 4556 
L 453 4863 
Q 1216 4522 1603 3783 
Q 1991 3044 1991 1931 
Q 1991 822 1603 83 
Q 1216 -656 453 -997 
z
" transform="scale(0.015625)"/>
      </defs>
      <use xlink:href="#Cmmi10-74" transform="translate(0 0.015625)"/>
      <use xlink:href="#DejaVuSerif-20" transform="translate(36.083984 0.015625)"/>
      <use xlink:href="#DejaVuSerif-28" transform="translate(67.871094 0.015625)"/>
      <use xlink:href="#DejaVuSerif-61" transform="translate(106.884766 0.015625)"/>
      <use xlink:href="#DejaVuSerif-2e" transform="translate(166.503906 0.015625)"/>
      <use xlink:href="#DejaVuSerif-75" transform="translate(198.291016 0.015625)"/>
      <use xlink:href="#DejaVuSerif-2e" transform="translate(262.695312 0.015625)"/>
      <use xlink:href="#DejaVuSerif-29" transform="translate(294.482422 0.015625)"/>
     </g>
    </g>
   </g>
   <g id="matplotlib.axis_2">
    <g id="ytick_1">
     <g id="line2d_19">
      <path d="M 120 417.2325 
L 684.118636 417.2325 
" clip-path="url(#p8376189c84)" style="fill: none; stroke-dasharray: 3.7,1.6; stroke-dashoffset: 0; stroke: #b0b0b0; stroke-opacity: 0.5"/>
     </g>
     <g id="line2d_20">
      <defs>
       <path id="m0e68e31d47" d="M 0 0 
L 10 0 
" style="stroke: #000000; stroke-width: 2"/>
      </defs>
      <g>
       <use xlink:href="#m0e68e31d47" x="120" y="417.2325" style="stroke: #000000; stroke-width: 2"/>
      </g>
     </g>
     <g id="line2d_21">
      <defs>
       <path id="m942a445821" d="M 0 0 
L -10 0 
" style="stroke: #000000; stroke-width: 2"/>
      </defs>
      <g>
       <use xlink:href="#m942a445821" x="684.118636" y="417.2325" style="stroke: #000000; stroke-width: 2"/>
      </g>
     </g>
     <g id="text_8">
      <!-- −2 -->
      <g transform="translate(78.170313 427.110469) scale(0.26 -0.26)">
       <defs>
        <path id="DejaVuSerif-2212" d="M 678 2259 
L 4684 2259 
L 4684 1753 
L 678 1753 
L 678 2259 
z
" transform="scale(0.015625)"/>
       </defs>
       <use xlink:href="#DejaVuSerif-2212"/>
       <use xlink:href="#DejaVuSerif-32" x="83.789062"/>
      </g>
     </g>
    </g>
    <g id="ytick_2">
     <g id="line2d_22">
      <path d="M 120 319.944375 
L 684.118636 319.944375 
" clip-path="url(#p8376189c84)" style="fill: none; stroke-dasharray: 3.7,1.6; stroke-dashoffset: 0; stroke: #b0b0b0; stroke-opacity: 0.5"/>
     </g>
     <g id="line2d_23">
      <g>
       <use xlink:href="#m0e68e31d47" x="120" y="319.944375" style="stroke: #000000; stroke-width: 2"/>
      </g>
     </g>
     <g id="line2d_24">
      <g>
       <use xlink:href="#m942a445821" x="684.118636" y="319.944375" style="stroke: #000000; stroke-width: 2"/>
      </g>
     </g>
     <g id="text_9">
      <!-- −1 -->
      <g transform="translate(78.170313 329.822344) scale(0.26 -0.26)">
       <use xlink:href="#DejaVuSerif-2212"/>
       <use xlink:href="#DejaVuSerif-31" x="83.789062"/>
      </g>
     </g>
    </g>
    <g id="ytick_3">
     <g id="line2d_25">
      <path d="M 120 222.65625 
L 684.118636 222.65625 
" clip-path="url(#p8376189c84)" style="fill: none; stroke-dasharray: 3.7,1.6; stroke-dashoffset: 0; stroke: #b0b0b0; stroke-opacity: 0.5"/>
     </g>
     <g id="line2d_26">
      <g>
       <use xlink:href="#m0e68e31d47" x="120" y="222.65625" style="stroke: #000000; stroke-width: 2"/>
      </g>
     </g>
     <g id="line2d_27">
      <g>
       <use xlink:href="#m942a445821" x="684.118636" y="222.65625" style="stroke: #000000; stroke-width: 2"/>
      </g>
     </g>
     <g id="text_10">
      <!-- 0 -->
      <g transform="translate(99.9575 232.534219) scale(0.26 -0.26)">
       <use xlink:href="#DejaVuSerif-30"/>
      </g>
     </g>
    </g>
    <g id="ytick_4">
     <g id="line2d_28">
      <path d="M 120 125.368125 
L 684.118636 125.368125 
" clip-path="url(#p8376189c84)" style="fill: none; stroke-dasharray: 3.7,1.6; stroke-dashoffset: 0; stroke: #b0b0b0; stroke-opacity: 0.5"/>
     </g>
     <g id="line2d_29">
      <g>
       <use xlink:href="#m0e68e31d47" x="120" y="125.368125" style="stroke: #000000; stroke-width: 2"/>
      </g>
     </g>
     <g id="line2d_30">
      <g>
       <use xlink:href="#m942a445821" x="684.118636" y="125.368125" style="stroke: #000000; stroke-width: 2"/>
      </g>
     </g>
     <g id="text_11">
      <!-- 1 -->
      <g transform="translate(99.9575 135.246094) scale(0.26 -0.26)">
       <use xlink:href="#DejaVuSerif-31"/>
      </g>
     </g>
    </g>
    <g id="ytick_5">
     <g id="line2d_31">
      <path d="M 120 28.08 
L 684.118636 28.08 
" clip-path="url(#p8376189c84)" style="fill: none; stroke-dasharray: 3.7,1.6; stroke-dashoffset: 0; stroke: #b0b0b0; stroke-opacity: 0.5"/>
     </g>
     <g id="line2d_32">
      <g>
       <use xlink:href="#m0e68e31d47" x="120" y="28.08" style="stroke: #000000; stroke-width: 2"/>
      </g>
     </g>
     <g id="line2d_33">
      <g>
       <use xlink:href="#m942a445821" x="684.118636" y="28.08" style="stroke: #000000; stroke-width: 2"/>
      </g>
     </g>
     <g id="text_12">
      <!-- 2 -->
      <g transform="translate(99.9575 37.957969) scale(0.26 -0.26)">
       <use xlink:href="#DejaVuSerif-32"/>
      </g>
     </g>
    </g>
    <g id="text_13">
     <!-- $E_i(t)$ (a.u.) -->
     <g transform="translate(67.670313 289.73625) rotate(-90) scale(0.26 -0.26)">
      <defs>
       <path id="Cmmi10-45" d="M 300 0 
Q 238 0 238 84 
Q 241 100 250 139 
Q 259 178 276 201 
Q 294 225 319 225 
Q 709 225 863 269 
Q 947 297 984 441 
L 1863 3956 
Q 1875 4019 1875 4044 
Q 1875 4113 1797 4122 
Q 1678 4147 1338 4147 
Q 1275 4147 1275 4231 
Q 1278 4247 1287 4286 
Q 1297 4325 1314 4348 
Q 1331 4372 1356 4372 
L 4825 4372 
Q 4891 4372 4891 4288 
L 4738 2963 
Q 4738 2947 4714 2926 
Q 4691 2906 4672 2906 
L 4616 2906 
Q 4550 2906 4550 2988 
Q 4588 3300 4588 3450 
Q 4588 3706 4500 3848 
Q 4413 3991 4267 4053 
Q 4122 4116 3945 4131 
Q 3769 4147 3481 4147 
L 2753 4147 
Q 2578 4147 2522 4117 
Q 2466 4088 2419 3928 
L 2034 2381 
L 2534 2381 
Q 2859 2381 3025 2426 
Q 3191 2472 3287 2615 
Q 3384 2759 3463 3072 
Q 3469 3094 3486 3111 
Q 3503 3128 3525 3128 
L 3584 3128 
Q 3647 3128 3647 3047 
L 3250 1466 
Q 3238 1409 3188 1409 
L 3128 1409 
Q 3066 1409 3066 1491 
Q 3128 1747 3128 1869 
Q 3128 2056 2959 2106 
Q 2791 2156 2509 2156 
L 1978 2156 
L 1544 416 
Q 1516 338 1516 275 
Q 1516 225 1734 225 
L 2509 225 
Q 2972 225 3259 297 
Q 3547 369 3736 526 
Q 3925 684 4062 928 
Q 4200 1172 4397 1638 
Q 4409 1678 4453 1678 
L 4513 1678 
Q 4538 1678 4556 1656 
Q 4575 1634 4575 1606 
Q 4575 1594 4569 1581 
L 3909 38 
Q 3897 0 3859 0 
L 300 0 
z
" transform="scale(0.015625)"/>
       <path id="Cmmi10-69" d="M 500 459 
Q 500 578 550 709 
L 1069 2088 
Q 1153 2322 1153 2472 
Q 1153 2663 1013 2663 
Q 759 2663 595 2402 
Q 431 2141 353 1819 
Q 341 1778 300 1778 
L 225 1778 
Q 172 1778 172 1838 
L 172 1856 
Q 275 2238 487 2533 
Q 700 2828 1025 2828 
Q 1253 2828 1411 2678 
Q 1569 2528 1569 2297 
Q 1569 2178 1516 2047 
L 997 672 
Q 909 459 909 288 
Q 909 97 1056 97 
Q 1306 97 1473 364 
Q 1641 631 1709 941 
Q 1722 978 1759 978 
L 1838 978 
Q 1863 978 1878 961 
Q 1894 944 1894 922 
Q 1894 916 1888 903 
Q 1800 541 1583 234 
Q 1366 -72 1044 -72 
Q 819 -72 659 83 
Q 500 238 500 459 
z
M 1222 3878 
Q 1222 4013 1334 4122 
Q 1447 4231 1581 4231 
Q 1691 4231 1761 4164 
Q 1831 4097 1831 3994 
Q 1831 3850 1717 3742 
Q 1603 3634 1466 3634 
Q 1363 3634 1292 3704 
Q 1222 3775 1222 3878 
z
" transform="scale(0.015625)"/>
       <path id="Cmr10-28" d="M 1984 -1588 
Q 1628 -1306 1370 -942 
Q 1113 -578 948 -165 
Q 784 247 703 697 
Q 622 1147 622 1600 
Q 622 2059 703 2509 
Q 784 2959 951 3375 
Q 1119 3791 1378 4153 
Q 1638 4516 1984 4788 
Q 1984 4800 2016 4800 
L 2075 4800 
Q 2094 4800 2109 4783 
Q 2125 4766 2125 4744 
Q 2125 4716 2113 4703 
Q 1800 4397 1592 4047 
Q 1384 3697 1257 3301 
Q 1131 2906 1075 2482 
Q 1019 2059 1019 1600 
Q 1019 -434 2106 -1491 
Q 2125 -1509 2125 -1544 
Q 2125 -1559 2108 -1579 
Q 2091 -1600 2075 -1600 
L 2016 -1600 
Q 1984 -1600 1984 -1588 
z
" transform="scale(0.015625)"/>
       <path id="Cmr10-29" d="M 416 -1600 
Q 359 -1600 359 -1544 
Q 359 -1516 372 -1503 
Q 1466 -434 1466 1600 
Q 1466 3634 384 4691 
Q 359 4706 359 4744 
Q 359 4766 376 4783 
Q 394 4800 416 4800 
L 475 4800 
Q 494 4800 506 4788 
Q 966 4425 1272 3906 
Q 1578 3388 1720 2800 
Q 1863 2213 1863 1600 
Q 1863 1147 1786 708 
Q 1709 269 1542 -157 
Q 1375 -584 1119 -945 
Q 863 -1306 506 -1588 
Q 494 -1600 475 -1600 
L 416 -1600 
z
" transform="scale(0.015625)"/>
      </defs>
      <use xlink:href="#Cmmi10-45" transform="translate(0 0.015625)"/>
      <use xlink:href="#Cmmi10-69" transform="translate(73.779297 -16.990625) scale(0.7)"/>
      <use xlink:href="#Cmr10-28" transform="translate(104.25332 0.015625)"/>
      <use xlink:href="#Cmmi10-74" transform="translate(143.07168 0.015625)"/>
      <use xlink:href="#Cmr10-29" transform="translate(179.155664 0.015625)"/>
      <use xlink:href="#DejaVuSerif-20" transform="translate(217.974023 0.015625)"/>
      <use xlink:href="#DejaVuSerif-28" transform="translate(249.761133 0.015625)"/>
      <use xlink:href="#DejaVuSerif-61" transform="translate(288.774805 0.015625)"/>
      <use xlink:href="#DejaVuSerif-2e" transform="translate(348.393945 0.015625)"/>
      <use xlink:href="#DejaVuSerif-75" transform="translate(380.181055 0.015625)"/>
      <use xlink:href="#DejaVuSerif-2e" transform="translate(444.585352 0.015625)"/>
      <use xlink:href="#DejaVuSerif-29" transform="translate(476.372461 0.015625)"/>
     </g>
    </g>
   </g>
   <g id="line2d_34">
    <path d="M 0 0 
" clip-path="url(#p8376189c84)" style="fill: none; stroke: #1f77b4; stroke-width: 3; stroke-linecap: square"/>
   </g>
   <g id="line2d_35">
    <path d="M 0 0 
" clip-path="url(#p8376189c84)" style="fill: none; stroke-dasharray: 11.1,4.8; stroke-dashoffset: 0; stroke: #ff7f0e; stroke-width: 3"/>
   </g>
   <g id="line2d_36">
    <path d="M 146.044139 -1 
L 146.155105 120.478514 
L 146.668453 170.808255 
L 147.140013 -1 
M 147.23189 -1 
L 147.69515 139.815116 
L 148.208499 86.311526 
L 148.721847 193.989621 
L 149.235196 200.082405 
L 150.261892 205.674972 
L 150.775241 207.466058 
L 151.288589 208.045636 
L 151.801938 206.890674 
L 152.828635 202.294921 
L 153.341983 193.096883 
L 153.855332 116.410163 
L 154.36868 180.774607 
L 154.882029 157.597104 
L 155.395377 156.249985 
L 155.908726 159.901831 
L 156.422074 171.653713 
L 156.935423 202.171916 
L 157.448771 206.659381 
L 158.475468 211.280253 
L 158.988816 212.299787 
L 159.502165 212.721366 
L 160.015513 212.860539 
L 161.04221 213.926019 
L 162.068907 213.977376 
L 163.095604 214.648382 
L 163.608953 214.393196 
L 164.122301 214.500289 
L 164.63565 214.871918 
L 165.148998 214.54876 
L 165.662347 214.428907 
L 166.175695 214.741499 
L 167.202392 214.080522 
L 167.715741 214.241346 
L 168.229089 213.946045 
L 168.742437 213.340879 
L 169.255786 213.192096 
L 169.769134 212.895339 
L 170.795831 211.042228 
L 171.30918 210.578754 
L 171.822528 208.891448 
L 173.362574 200.305903 
L 173.875922 196.194368 
L 174.389271 190.932481 
L 174.902619 196.218789 
L 175.415968 200.325751 
L 175.929316 198.232963 
L 176.442665 185.317678 
L 176.956013 181.060977 
L 177.469361 196.342947 
L 177.98271 203.455358 
L 178.496058 208.328209 
L 179.009407 210.604522 
L 179.522755 211.406258 
L 180.549452 213.888489 
L 181.062801 214.175661 
L 181.576149 214.596824 
L 182.602846 215.748473 
L 183.116195 216.004761 
L 183.629543 216.024215 
L 185.169589 216.592735 
L 185.682937 216.584031 
L 186.196286 216.849001 
L 186.709634 216.914908 
L 187.222982 216.821308 
L 187.736331 217.038786 
L 188.249679 217.10177 
L 188.763028 216.960167 
L 189.789725 217.188566 
L 190.303073 217.011255 
L 191.32977 217.187874 
L 191.843119 216.976429 
L 192.869816 217.100204 
L 193.383164 216.848585 
L 194.409861 216.921417 
L 194.92321 216.631442 
L 195.436558 216.499286 
L 196.976603 216.459997 
L 198.0033 215.783529 
L 198.516649 215.737326 
L 199.029997 215.336195 
L 199.543346 214.646482 
L 200.056694 214.487076 
L 200.570043 213.746106 
L 201.083391 212.434029 
L 201.59674 211.777919 
L 202.110088 209.851131 
L 202.623437 205.859721 
L 203.136785 200.242303 
L 203.650134 180.847077 
L 204.163482 169.674074 
L 204.676831 25.775424 
L 205.190179 194.849455 
L 205.703527 203.586211 
L 206.216876 203.042123 
L 206.730224 206.085985 
L 207.243573 205.130793 
L 207.756921 202.600704 
L 208.27027 201.522201 
L 208.783618 185.414941 
L 209.003798 -1 
M 209.588313 -1 
L 209.810315 188.133903 
L 210.323664 192.881825 
L 210.837012 170.251048 
L 211.350361 179.629565 
L 211.863709 158.15333 
L 212.377058 162.454894 
L 212.890406 175.299255 
L 213.403755 196.22635 
L 213.917103 201.594509 
L 214.430452 198.964512 
L 214.9438 199.153776 
L 215.457148 193.619955 
L 215.970497 148.367647 
L 216.483845 187.235885 
L 216.997194 203.006288 
L 217.510542 208.729436 
L 218.023891 212.056817 
L 218.537239 213.423887 
L 219.563936 215.20819 
L 220.077285 216.289394 
L 223.157376 218.410556 
L 225.210769 219.060359 
L 230.344254 220.061583 
L 242.151269 221.013509 
L 262.171859 221.586694 
L 341.227524 222.176477 
L 425.416674 222.346945 
L 537.326641 222.444974 
L 658.47688 222.498535 
L 658.47688 222.498535 
" clip-path="url(#p8376189c84)" style="fill: none; stroke-dasharray: 19.2,4.8,3,4.8; stroke-dashoffset: 0; stroke: #2ca02c; stroke-width: 3"/>
   </g>
   <g id="line2d_37">
    <path d="M 145.641756 92.473457 
L 146.155105 222.656211 
L 146.668453 211.082559 
L 147.181802 222.65624 
L 147.69515 222.656167 
L 148.208499 222.110396 
L 148.721847 222.655286 
L 149.235196 222.645776 
L 149.748544 221.551362 
L 150.261892 212.706892 
L 150.775241 216.29768 
L 151.288589 222.388303 
L 151.801938 222.654223 
L 152.315286 222.634905 
L 152.828635 187.795621 
L 153.341983 222.655417 
L 154.882029 222.65625 
L 155.395377 204.656603 
L 155.908726 222.649095 
L 157.448771 222.621902 
L 157.96212 218.11322 
L 158.475468 222.636557 
L 158.988816 222.149796 
L 159.502165 222.647605 
L 160.015513 222.653959 
L 160.528862 221.937912 
L 161.04221 222.653773 
L 161.555559 222.642221 
L 162.068907 222.457526 
L 162.582256 222.651211 
L 163.095604 222.501714 
L 164.122301 222.648253 
L 164.63565 222.280155 
L 165.148998 222.633574 
L 165.662347 222.645825 
L 166.175695 222.301678 
L 166.689044 222.644024 
L 167.202392 222.643622 
L 167.715741 222.388985 
L 168.229089 222.64781 
L 168.742437 222.640057 
L 169.255786 222.432189 
L 169.769134 222.649357 
L 170.282483 222.630619 
L 170.795831 222.459605 
L 171.30918 222.650409 
L 172.335877 222.583402 
L 172.849225 222.652691 
L 173.362574 222.523842 
L 173.875922 222.651531 
L 179.009407 222.646592 
L 179.522755 222.504663 
L 180.036104 222.652584 
L 180.549452 222.606558 
L 181.062801 222.388331 
L 181.576149 222.6258 
L 182.089498 209.842058 
L 182.602846 222.623677 
L 183.116195 222.338912 
L 183.629543 222.621323 
L 184.142892 222.652955 
L 184.65624 222.496321 
L 185.169589 222.650284 
L 192.356467 222.651898 
L 192.869816 222.586262 
L 193.896513 222.648019 
L 194.409861 222.02658 
L 194.92321 222.5658 
L 195.436558 222.550869 
L 195.949906 220.46092 
L 196.463255 222.650264 
L 196.976603 221.974533 
L 197.489952 222.653372 
L 202.110088 222.653754 
L 202.623437 222.404361 
L 203.136785 222.653568 
L 203.650134 222.547517 
L 204.163482 222.65625 
L 204.676831 222.508173 
L 204.933027 -1 
M 205.450945 -1 
L 205.703527 216.300618 
L 206.216876 222.653523 
L 206.730224 222.320104 
L 207.243573 148.877151 
L 207.756921 222.57878 
L 208.27027 222.655766 
L 208.531557 -1 
M 209.037679 -1 
L 209.296967 219.198104 
L 209.810315 222.656219 
L 210.837012 222.655974 
L 211.350361 157.584343 
L 211.863709 182.682563 
L 212.377058 222.656086 
L 213.403755 222.656232 
L 213.917103 181.87153 
L 214.430452 222.472379 
L 214.9438 222.648109 
L 215.970497 222.656103 
L 216.483845 208.051349 
L 216.997194 222.654647 
L 217.510542 222.655827 
L 218.023891 178.012991 
L 218.537239 222.655704 
L 218.99615 -1 
M 219.105027 -1 
L 219.563936 222.649105 
L 221.103982 222.651367 
L 221.61733 220.140378 
L 222.130679 222.646743 
L 223.157376 222.655236 
L 223.670724 222.271225 
L 224.184072 221.285238 
L 224.697421 222.654898 
L 225.210769 222.586388 
L 226.237466 222.654884 
L 228.29086 222.653789 
L 228.804209 222.316671 
L 229.317557 221.672131 
L 229.830906 222.654682 
L 230.344254 222.295899 
L 230.857603 222.641204 
L 233.937693 222.654252 
L 241.124572 222.65339 
L 241.637921 222.423952 
L 242.664617 222.644236 
L 243.177966 222.653988 
L 243.691314 222.380473 
L 244.204663 222.58625 
L 245.23136 222.654502 
L 245.744708 222.482254 
L 246.258057 222.648802 
L 246.771405 222.100651 
L 247.284754 222.6536 
L 247.798102 222.591761 
L 248.824799 222.615206 
L 250.878193 222.653866 
L 259.605117 222.652112 
L 271.92548 222.653071 
L 272.438829 222.336238 
L 272.952177 222.652351 
L 273.465526 222.585105 
L 274.492223 222.639473 
L 277.058965 222.439666 
L 277.572314 222.64844 
L 278.085662 220.156788 
L 278.599011 222.651523 
L 279.112359 222.271848 
L 279.625708 222.654106 
L 280.139056 222.237724 
L 280.652404 222.63002 
L 281.165753 222.440505 
L 281.679101 222.65391 
L 284.245844 222.654475 
L 284.759192 222.489221 
L 285.272541 222.652597 
L 285.785889 221.88984 
L 286.299238 222.649831 
L 286.812586 222.580055 
L 287.839283 222.648605 
L 290.406025 222.609476 
L 291.946071 222.648456 
L 301.186343 222.649559 
L 317.100146 222.654405 
L 323.773676 222.643228 
L 327.880464 222.654331 
L 330.447206 222.640494 
L 332.5006 222.65392 
L 333.013949 222.524103 
L 333.527297 222.648296 
L 336.094039 222.653283 
L 336.607388 222.349719 
L 337.120736 222.647455 
L 338.147433 222.649279 
L 339.687479 222.651652 
L 340.200827 221.840949 
L 340.714176 222.648034 
L 341.227524 222.557467 
L 342.254221 222.652954 
L 342.76757 222.535281 
L 343.280918 222.646955 
L 343.794267 221.263871 
L 344.307615 222.65053 
L 344.820964 222.476119 
L 345.334312 222.654129 
L 346.874357 222.636776 
L 347.387706 222.038181 
L 347.901054 222.652874 
L 348.414403 222.447395 
L 348.927751 222.65439 
L 350.981145 222.452041 
L 351.494494 222.653741 
L 352.007842 222.502771 
L 352.521191 222.654365 
L 354.574584 222.492016 
L 355.087933 222.653795 
L 355.601281 222.560464 
L 356.627978 222.639343 
L 357.654675 222.645879 
L 358.168024 222.435852 
L 358.681372 222.65335 
L 359.708069 222.653863 
L 361.248115 222.651258 
L 361.761463 222.409246 
L 362.274812 222.652022 
L 364.328205 222.620401 
L 364.841554 222.653702 
L 365.354902 222.551489 
L 366.381599 222.641796 
L 373.055129 222.633957 
L 376.13522 222.654297 
L 378.188614 222.642867 
L 382.295402 222.654075 
L 383.322099 222.648221 
L 392.562371 222.649754 
L 393.07572 222.5035 
L 393.589068 222.652901 
L 395.642462 222.613073 
L 396.155811 222.653792 
L 396.669159 222.568148 
L 397.695856 222.64165 
L 398.209205 222.573981 
L 398.722553 222.653839 
L 399.235902 222.597815 
L 400.262599 222.650584 
L 401.289295 222.651709 
L 401.802644 222.281992 
L 402.315992 222.647205 
L 404.369386 222.555626 
L 404.882735 222.654212 
L 406.42278 222.644136 
L 406.936129 222.051235 
L 407.449477 222.650975 
L 407.962826 222.563736 
L 408.989523 222.653773 
L 409.502871 222.523454 
L 410.01622 222.652943 
L 410.529568 222.402019 
L 411.042916 222.628607 
L 415.149704 222.648298 
L 415.663053 221.533175 
L 416.176401 222.64492 
L 416.68975 222.58021 
L 417.716447 222.654218 
L 418.229795 222.501156 
L 418.743144 222.654078 
L 420.283189 222.642485 
L 420.796537 222.031863 
L 421.309886 222.650768 
L 421.823234 222.57805 
L 422.849931 222.653975 
L 423.36328 222.554704 
L 423.876628 222.653864 
L 424.903325 222.626263 
L 425.416674 222.643712 
L 425.930022 222.315752 
L 426.443371 222.651815 
L 427.470068 222.649433 
L 430.550158 222.648818 
L 431.063507 222.353214 
L 431.576855 222.6507 
L 433.630249 222.602984 
L 434.656946 222.647857 
L 436.71034 222.64689 
L 442.357173 222.650903 
L 442.870522 222.469469 
L 443.38387 222.650094 
L 448.517355 222.633694 
L 449.030703 222.651632 
L 449.544052 222.482138 
L 450.0574 222.647884 
L 457.244279 222.647585 
L 457.757627 222.384272 
L 458.270976 222.650076 
L 460.837718 222.652153 
L 463.917809 222.651348 
L 464.431158 222.380059 
L 464.944506 222.638929 
L 465.457855 222.638182 
L 465.971203 222.354027 
L 466.484551 222.651093 
L 467.511248 222.638317 
L 468.024597 222.653982 
L 468.537945 222.549058 
L 469.564642 222.652286 
L 470.077991 222.551501 
L 470.591339 222.653423 
L 471.618036 222.603768 
L 472.131385 222.64673 
L 472.644733 221.849507 
L 473.158082 222.640775 
L 473.67143 222.617327 
L 474.184779 222.477686 
L 474.698127 222.652189 
L 475.211476 222.548833 
L 476.238172 222.654025 
L 476.751521 222.502378 
L 477.264869 222.654031 
L 478.804915 222.652066 
L 479.318263 222.465601 
L 479.831612 222.616775 
L 480.34496 222.640329 
L 480.858309 221.805338 
L 481.371657 222.646268 
L 482.398354 222.591368 
L 482.911703 222.653226 
L 483.425051 222.549038 
L 484.451748 222.653809 
L 484.965096 222.537932 
L 485.478445 222.654025 
L 488.558536 222.645494 
L 489.071884 222.128016 
L 489.585233 222.646069 
L 492.151975 222.643642 
L 495.745414 222.643963 
L 497.28546 222.579458 
L 498.312157 222.649658 
L 498.825505 222.392919 
L 499.338854 222.644727 
L 499.852202 222.642708 
L 500.365551 222.445387 
L 500.878899 222.650715 
L 503.445641 222.644004 
L 507.039081 222.650833 
L 508.065778 222.653836 
L 512.172566 222.640723 
L 512.685914 222.647245 
L 513.199262 222.379796 
L 513.712611 222.646889 
L 514.225959 222.640602 
L 514.739308 222.458493 
L 515.252656 222.650598 
L 517.819399 222.633325 
L 519.872793 222.653899 
L 520.386141 222.586006 
L 521.412838 222.653423 
L 521.926186 222.578302 
L 522.952883 222.651366 
L 523.466232 222.579775 
L 524.492929 222.643738 
L 525.006277 222.589963 
L 526.032974 222.611995 
L 528.599717 222.647281 
L 529.113065 222.16093 
L 529.626414 222.633813 
L 530.139762 222.639578 
L 530.653111 221.959631 
L 531.166459 222.642993 
L 531.679807 222.625797 
L 532.193156 222.260644 
L 532.706504 222.648606 
L 533.733201 222.538091 
L 534.24655 222.651683 
L 534.759898 222.57543 
L 535.786595 222.653211 
L 536.299944 222.545412 
L 537.326641 222.65381 
L 537.839989 222.522898 
L 538.353338 222.652207 
L 538.866686 222.653694 
L 539.380035 222.515612 
L 539.893383 222.653607 
L 540.406732 222.652541 
L 540.92008 222.525474 
L 541.433428 222.653843 
L 547.59361 222.648948 
L 548.106959 222.345747 
L 548.620307 222.628237 
L 549.133656 222.64616 
L 549.647004 222.198316 
L 550.160352 222.636798 
L 550.673701 222.642892 
L 551.187049 222.165211 
L 551.700398 222.642313 
L 552.213746 222.639412 
L 552.727095 222.23838 
L 553.240443 222.645841 
L 553.753792 222.635973 
L 554.26714 222.344709 
L 554.780489 222.648145 
L 555.293837 222.632784 
L 555.807186 222.435795 
L 556.320534 222.649664 
L 558.887277 222.541214 
L 559.400625 222.651332 
L 561.967367 222.581469 
L 562.994064 222.62377 
L 565.047458 222.597095 
L 566.074155 222.622569 
L 568.127549 222.599821 
L 569.154246 222.622366 
L 571.20764 222.590555 
L 572.234337 222.622703 
L 573.261034 222.6519 
L 575.827776 222.559257 
L 576.341125 222.651333 
L 578.907867 222.516284 
L 579.421215 222.650439 
L 579.934564 222.623887 
L 580.447912 222.484126 
L 580.961261 222.649832 
L 581.474609 222.624375 
L 581.987958 222.442711 
L 582.501306 222.649097 
L 583.014655 222.624987 
L 583.528003 222.389454 
L 584.041352 222.648184 
L 584.5547 222.625847 
L 585.068049 222.320778 
L 585.581397 222.647033 
L 586.094746 222.627091 
L 586.608094 222.233367 
L 587.121442 222.645588 
L 587.634791 222.628633 
L 588.148139 222.13456 
L 588.661488 222.643871 
L 589.174836 222.630429 
L 589.688185 222.029849 
L 590.201533 222.64179 
L 590.714882 222.63249 
L 591.22823 221.933738 
L 591.741579 222.639233 
L 592.254927 222.634897 
L 592.768276 221.86856 
L 593.281624 222.636134 
L 593.794973 222.637499 
L 594.308321 221.86034 
L 594.82167 222.632494 
L 595.335018 222.640154 
L 595.848367 221.922019 
L 596.361715 222.628208 
L 596.875063 222.642768 
L 597.388412 222.049462 
L 597.90176 222.623152 
L 598.415109 222.645232 
L 598.928457 222.208974 
L 599.441806 222.61739 
L 599.955154 222.647415 
L 600.468503 222.363118 
L 600.981851 222.610817 
L 601.4952 222.649291 
L 602.008548 222.48503 
L 603.035245 222.650815 
L 603.548594 222.56513 
L 606.115336 222.652842 
L 608.682078 222.572453 
L 609.708775 222.650182 
L 610.222124 222.569019 
L 611.248821 222.652428 
L 611.762169 222.570143 
L 612.788866 222.653369 
L 613.302215 222.576675 
L 614.328912 222.653603 
L 614.84226 222.588314 
L 615.868957 222.653288 
L 616.895654 222.621726 
L 617.922351 222.618585 
L 618.435699 222.549951 
L 618.949048 222.650248 
L 619.462396 222.631851 
L 619.975745 222.395908 
L 620.489093 222.646376 
L 621.002442 222.641517 
L 621.51579 222.310996 
L 622.029139 222.639673 
L 622.542487 222.647655 
L 623.055836 222.448267 
L 623.569184 222.629029 
L 626.135926 222.63922 
L 627.162623 222.653551 
L 634.349502 222.630764 
L 634.86285 222.300364 
L 635.376199 222.643287 
L 635.889547 222.642499 
L 636.402896 222.262873 
L 636.916244 222.630174 
L 637.429593 222.649139 
L 637.942941 222.525744 
L 638.969638 222.65229 
L 641.536381 222.555382 
L 642.563078 222.653183 
L 643.076426 222.550332 
L 644.103123 222.653396 
L 644.616471 222.568419 
L 645.643168 222.651832 
L 646.669865 222.455717 
L 647.183214 222.647046 
L 647.696562 222.625465 
L 648.209911 221.958392 
L 648.723259 222.635026 
L 649.236608 222.642145 
L 649.749956 222.204247 
L 650.263305 222.610101 
L 651.290002 222.581349 
L 653.343395 222.53628 
L 653.856744 222.653448 
L 654.370092 222.652558 
L 654.883441 222.526415 
L 655.396789 222.651299 
L 657.963532 222.59332 
L 658.47688 222.479829 
L 658.47688 222.479829 
" clip-path="url(#p8376189c84)" style="fill: none; stroke-dasharray: 3,4.95; stroke-dashoffset: 0; stroke: #d62728; stroke-width: 3"/>
   </g>
   <g id="line2d_38">
    <path d="M 145.641756 222.54446 
L 146.668453 222.65625 
L 658.47688 222.65625 
L 658.47688 222.65625 
" clip-path="url(#p8376189c84)" style="fill: none; stroke-dasharray: 9,3,3,3; stroke-dashoffset: 0; stroke: #9467bd; stroke-width: 3"/>
   </g>
   <g id="line2d_39">
    <path d="M 145.735814 505 
L 145.773349 -1 
L 145.773349 -1 
" clip-path="url(#p8376189c84)" style="fill: none; stroke: #808080; stroke-width: 3; stroke-linecap: square"/>
   </g>
   <g id="patch_3">
    <path d="M 120 417.2325 
L 120 28.08 
" style="fill: none; stroke: #000000; stroke-width: 2; stroke-linejoin: miter; stroke-linecap: square"/>
   </g>
   <g id="patch_4">
    <path d="M 684.118636 417.2325 
L 684.118636 28.08 
" style="fill: none; stroke: #000000; stroke-width: 2; stroke-linejoin: miter; stroke-linecap: square"/>
   </g>
   <g id="patch_5">
    <path d="M 120 417.2325 
L 684.118636 417.2325 
" style="fill: none; stroke: #000000; stroke-width: 2; stroke-linejoin: miter; stroke-linecap: square"/>
   </g>
   <g id="patch_6">
    <path d="M 120 28.08 
L 684.118636 28.08 
" style="fill: none; stroke: #000000; stroke-width: 2; stroke-linejoin: miter; stroke-linecap: square"/>
   </g>
   <g id="legend_1">
    <g id="patch_7">
     <path d="M 527.591136 182.0175 
L 672.918636 182.0175 
Q 676.118636 182.0175 676.118636 178.8175 
L 676.118636 39.28 
Q 676.118636 36.08 672.918636 36.08 
L 527.591136 36.08 
Q 524.391136 36.08 524.391136 39.28 
L 524.391136 178.8175 
Q 524.391136 182.0175 527.591136 182.0175 
z
" style="fill: #ffffff; opacity: 0.8; stroke: #cccccc; stroke-linejoin: miter"/>
    </g>
    <g id="line2d_40">
     <path d="M 530.791136 49.0375 
L 546.791136 49.0375 
L 562.791136 49.0375 
" style="fill: none; stroke: #1f77b4; stroke-width: 3; stroke-linecap: square"/>
    </g>
    <g id="text_14">
     <!-- Kinetic -->
     <g transform="translate(575.591136 54.6375) scale(0.16 -0.16)">
      <defs>
       <path id="DejaVuSerif-4b" d="M 353 0 
L 353 331 
L 947 331 
L 947 4331 
L 353 4331 
L 353 4666 
L 2175 4666 
L 2175 4331 
L 1581 4331 
L 1581 2566 
L 3591 4331 
L 3084 4331 
L 3084 4666 
L 4634 4666 
L 4634 4331 
L 4109 4331 
L 2106 2572 
L 4347 331 
L 4878 331 
L 4878 0 
L 3794 0 
L 1581 2216 
L 1581 331 
L 2175 331 
L 2175 0 
L 353 0 
z
" transform="scale(0.015625)"/>
       <path id="DejaVuSerif-69" d="M 622 4353 
Q 622 4497 726 4603 
Q 831 4709 978 4709 
Q 1122 4709 1226 4603 
Q 1331 4497 1331 4353 
Q 1331 4206 1228 4103 
Q 1125 4000 978 4000 
Q 831 4000 726 4103 
Q 622 4206 622 4353 
z
M 1356 331 
L 1900 331 
L 1900 0 
L 231 0 
L 231 331 
L 781 331 
L 781 2988 
L 231 2988 
L 231 3322 
L 1356 3322 
L 1356 331 
z
" transform="scale(0.015625)"/>
       <path id="DejaVuSerif-6e" d="M 263 0 
L 263 331 
L 781 331 
L 781 2988 
L 231 2988 
L 231 3322 
L 1356 3322 
L 1356 2731 
Q 1516 3069 1770 3241 
Q 2025 3413 2363 3413 
Q 2913 3413 3172 3097 
Q 3431 2781 3431 2113 
L 3431 331 
L 3944 331 
L 3944 0 
L 2356 0 
L 2356 331 
L 2853 331 
L 2853 1931 
Q 2853 2541 2703 2767 
Q 2553 2994 2175 2994 
Q 1775 2994 1565 2701 
Q 1356 2409 1356 1850 
L 1356 331 
L 1856 331 
L 1856 0 
L 263 0 
z
" transform="scale(0.015625)"/>
       <path id="DejaVuSerif-65" d="M 3469 1600 
L 991 1600 
L 991 1575 
Q 991 903 1244 561 
Q 1497 219 1991 219 
Q 2369 219 2611 417 
Q 2853 616 2950 1006 
L 3413 1006 
Q 3275 459 2904 184 
Q 2534 -91 1931 -91 
Q 1203 -91 761 389 
Q 319 869 319 1663 
Q 319 2450 753 2931 
Q 1188 3413 1894 3413 
Q 2647 3413 3050 2948 
Q 3453 2484 3469 1600 
z
M 2791 1931 
Q 2772 2513 2545 2808 
Q 2319 3103 1894 3103 
Q 1497 3103 1269 2806 
Q 1041 2509 991 1931 
L 2791 1931 
z
" transform="scale(0.015625)"/>
       <path id="DejaVuSerif-74" d="M 691 2988 
L 184 2988 
L 184 3322 
L 691 3322 
L 691 4353 
L 1269 4353 
L 1269 3322 
L 2350 3322 
L 2350 2988 
L 1269 2988 
L 1269 878 
Q 1269 456 1350 337 
Q 1431 219 1650 219 
Q 1875 219 1978 351 
Q 2081 484 2088 781 
L 2522 781 
Q 2497 328 2275 118 
Q 2053 -91 1600 -91 
Q 1103 -91 897 129 
Q 691 350 691 878 
L 691 2988 
z
" transform="scale(0.015625)"/>
       <path id="DejaVuSerif-63" d="M 3291 997 
Q 3169 466 2822 187 
Q 2475 -91 1925 -91 
Q 1200 -91 759 389 
Q 319 869 319 1663 
Q 319 2459 759 2936 
Q 1200 3413 1925 3413 
Q 2241 3413 2553 3339 
Q 2866 3266 3181 3116 
L 3181 2266 
L 2847 2266 
Q 2781 2703 2561 2903 
Q 2341 3103 1931 3103 
Q 1466 3103 1228 2742 
Q 991 2381 991 1663 
Q 991 944 1227 581 
Q 1463 219 1931 219 
Q 2303 219 2525 412 
Q 2747 606 2828 997 
L 3291 997 
z
" transform="scale(0.015625)"/>
      </defs>
      <use xlink:href="#DejaVuSerif-4b"/>
      <use xlink:href="#DejaVuSerif-69" x="74.707031"/>
      <use xlink:href="#DejaVuSerif-6e" x="106.689453"/>
      <use xlink:href="#DejaVuSerif-65" x="171.09375"/>
      <use xlink:href="#DejaVuSerif-74" x="230.273438"/>
      <use xlink:href="#DejaVuSerif-69" x="270.458984"/>
      <use xlink:href="#DejaVuSerif-63" x="302.441406"/>
     </g>
    </g>
    <g id="line2d_41">
     <path d="M 530.791136 72.5225 
L 546.791136 72.5225 
L 562.791136 72.5225 
" style="fill: none; stroke-dasharray: 11.1,4.8; stroke-dashoffset: 0; stroke: #ff7f0e; stroke-width: 3"/>
    </g>
    <g id="text_15">
     <!-- $e^-$-nucleus -->
     <g transform="translate(575.591136 78.1225) scale(0.16 -0.16)">
      <defs>
       <path id="Cmmi10-65" d="M 1288 -72 
Q 981 -72 751 87 
Q 522 247 401 517 
Q 281 788 281 1088 
Q 281 1544 511 1945 
Q 741 2347 1134 2587 
Q 1528 2828 1978 2828 
Q 2253 2828 2458 2686 
Q 2663 2544 2663 2278 
Q 2663 1909 2369 1729 
Q 2075 1550 1706 1508 
Q 1338 1466 891 1466 
L 872 1466 
Q 769 1084 769 813 
Q 769 528 900 312 
Q 1031 97 1300 97 
Q 1681 97 2032 272 
Q 2384 447 2606 756 
Q 2625 775 2656 775 
Q 2688 775 2720 739 
Q 2753 703 2753 672 
Q 2753 647 2741 634 
Q 2506 306 2109 117 
Q 1713 -72 1288 -72 
z
M 909 1631 
Q 1281 1631 1597 1665 
Q 1913 1700 2169 1839 
Q 2425 1978 2425 2272 
Q 2425 2391 2359 2480 
Q 2294 2569 2189 2616 
Q 2084 2663 1972 2663 
Q 1700 2663 1483 2516 
Q 1266 2369 1125 2133 
Q 984 1897 909 1631 
z
" transform="scale(0.015625)"/>
       <path id="Cmsy10-a1" d="M 653 1472 
Q 600 1472 565 1512 
Q 531 1553 531 1600 
Q 531 1647 565 1687 
Q 600 1728 653 1728 
L 4325 1728 
Q 4375 1728 4408 1687 
Q 4441 1647 4441 1600 
Q 4441 1553 4408 1512 
Q 4375 1472 4325 1472 
L 653 1472 
z
" transform="scale(0.015625)"/>
       <path id="DejaVuSerif-2d" d="M 281 1959 
L 1881 1959 
L 1881 1472 
L 281 1472 
L 281 1959 
z
" transform="scale(0.015625)"/>
       <path id="DejaVuSerif-6c" d="M 1313 331 
L 1856 331 
L 1856 0 
L 184 0 
L 184 331 
L 738 331 
L 738 4531 
L 184 4531 
L 184 4863 
L 1313 4863 
L 1313 331 
z
" transform="scale(0.015625)"/>
       <path id="DejaVuSerif-73" d="M 359 184 
L 359 959 
L 691 959 
Q 703 588 923 403 
Q 1144 219 1575 219 
Q 1963 219 2166 364 
Q 2369 509 2369 788 
Q 2369 1006 2220 1140 
Q 2072 1275 1594 1428 
L 1178 1569 
Q 750 1706 558 1912 
Q 366 2119 366 2438 
Q 366 2894 700 3153 
Q 1034 3413 1625 3413 
Q 1888 3413 2178 3344 
Q 2469 3275 2778 3144 
L 2778 2419 
L 2447 2419 
Q 2434 2741 2221 2922 
Q 2009 3103 1644 3103 
Q 1281 3103 1095 2975 
Q 909 2847 909 2591 
Q 909 2381 1050 2254 
Q 1191 2128 1613 1997 
L 2069 1856 
Q 2541 1709 2748 1489 
Q 2956 1269 2956 922 
Q 2956 450 2595 179 
Q 2234 -91 1600 -91 
Q 1278 -91 972 -22 
Q 666 47 359 184 
z
" transform="scale(0.015625)"/>
      </defs>
      <use xlink:href="#Cmmi10-65" transform="translate(0 0.015625)"/>
      <use xlink:href="#Cmsy10-a1" transform="translate(65.078672 38.279688) scale(0.7)"/>
      <use xlink:href="#DejaVuSerif-2d" transform="translate(138.126914 0.015625)"/>
      <use xlink:href="#DejaVuSerif-6e" transform="translate(171.915977 0.015625)"/>
      <use xlink:href="#DejaVuSerif-75" transform="translate(236.320273 0.015625)"/>
      <use xlink:href="#DejaVuSerif-63" transform="translate(300.72457 0.015625)"/>
      <use xlink:href="#DejaVuSerif-6c" transform="translate(356.73043 0.015625)"/>
      <use xlink:href="#DejaVuSerif-65" transform="translate(388.712852 0.015625)"/>
      <use xlink:href="#DejaVuSerif-75" transform="translate(447.892539 0.015625)"/>
      <use xlink:href="#DejaVuSerif-73" transform="translate(512.296836 0.015625)"/>
     </g>
    </g>
    <g id="line2d_42">
     <path d="M 530.791136 96.0075 
L 546.791136 96.0075 
L 562.791136 96.0075 
" style="fill: none; stroke-dasharray: 19.2,4.8,3,4.8; stroke-dashoffset: 0; stroke: #2ca02c; stroke-width: 3"/>
    </g>
    <g id="text_16">
     <!-- $e^-$-$e^-$ -->
     <g transform="translate(575.591136 101.6075) scale(0.16 -0.16)">
      <use xlink:href="#Cmmi10-65" transform="translate(0 0.835938)"/>
      <use xlink:href="#Cmsy10-a1" transform="translate(65.078672 39.1) scale(0.7)"/>
      <use xlink:href="#DejaVuSerif-2d" transform="translate(138.126914 0.835938)"/>
      <use xlink:href="#Cmmi10-65" transform="translate(171.915977 0.835938)"/>
      <use xlink:href="#Cmsy10-a1" transform="translate(236.994648 39.1) scale(0.7)"/>
     </g>
    </g>
    <g id="line2d_43">
     <path d="M 530.791136 119.4925 
L 546.791136 119.4925 
L 562.791136 119.4925 
" style="fill: none; stroke-dasharray: 3,4.95; stroke-dashoffset: 0; stroke: #d62728; stroke-width: 3"/>
    </g>
    <g id="text_17">
     <!-- Heisenberg -->
     <g transform="translate(575.591136 125.0925) scale(0.16 -0.16)">
      <defs>
       <path id="DejaVuSerif-48" d="M 353 0 
L 353 331 
L 947 331 
L 947 4331 
L 353 4331 
L 353 4666 
L 2175 4666 
L 2175 4331 
L 1581 4331 
L 1581 2719 
L 4000 2719 
L 4000 4331 
L 3406 4331 
L 3406 4666 
L 5228 4666 
L 5228 4331 
L 4634 4331 
L 4634 331 
L 5228 331 
L 5228 0 
L 3406 0 
L 3406 331 
L 4000 331 
L 4000 2338 
L 1581 2338 
L 1581 331 
L 2175 331 
L 2175 0 
L 353 0 
z
" transform="scale(0.015625)"/>
       <path id="DejaVuSerif-62" d="M 738 331 
L 738 4531 
L 184 4531 
L 184 4863 
L 1313 4863 
L 1313 2803 
Q 1481 3116 1742 3264 
Q 2003 3413 2388 3413 
Q 3000 3413 3387 2928 
Q 3775 2444 3775 1663 
Q 3775 881 3387 395 
Q 3000 -91 2388 -91 
Q 2003 -91 1742 57 
Q 1481 206 1313 519 
L 1313 0 
L 184 0 
L 184 331 
L 738 331 
z
M 1313 1497 
Q 1313 897 1542 583 
Q 1772 269 2209 269 
Q 2650 269 2876 622 
Q 3103 975 3103 1663 
Q 3103 2353 2876 2703 
Q 2650 3053 2209 3053 
Q 1772 3053 1542 2737 
Q 1313 2422 1313 1825 
L 1313 1497 
z
" transform="scale(0.015625)"/>
       <path id="DejaVuSerif-72" d="M 3059 3328 
L 3059 2497 
L 2728 2497 
Q 2713 2744 2591 2866 
Q 2469 2988 2234 2988 
Q 1809 2988 1582 2694 
Q 1356 2400 1356 1850 
L 1356 331 
L 2022 331 
L 2022 0 
L 263 0 
L 263 331 
L 781 331 
L 781 2994 
L 231 2994 
L 231 3322 
L 1356 3322 
L 1356 2731 
Q 1525 3078 1790 3245 
Q 2056 3413 2438 3413 
Q 2578 3413 2733 3391 
Q 2888 3369 3059 3328 
z
" transform="scale(0.015625)"/>
       <path id="DejaVuSerif-67" d="M 3359 2988 
L 3359 72 
Q 3359 -644 2965 -1033 
Q 2572 -1422 1844 -1422 
Q 1516 -1422 1216 -1362 
Q 916 -1303 641 -1184 
L 641 -488 
L 941 -488 
Q 997 -813 1206 -963 
Q 1416 -1113 1806 -1113 
Q 2313 -1113 2548 -827 
Q 2784 -541 2784 72 
L 2784 519 
Q 2616 206 2355 57 
Q 2094 -91 1709 -91 
Q 1097 -91 708 395 
Q 319 881 319 1663 
Q 319 2444 706 2928 
Q 1094 3413 1709 3413 
Q 2094 3413 2355 3264 
Q 2616 3116 2784 2803 
L 2784 3322 
L 3909 3322 
L 3909 2988 
L 3359 2988 
z
M 2784 1825 
Q 2784 2422 2554 2737 
Q 2325 3053 1888 3053 
Q 1444 3053 1217 2703 
Q 991 2353 991 1663 
Q 991 975 1217 622 
Q 1444 269 1888 269 
Q 2325 269 2554 583 
Q 2784 897 2784 1497 
L 2784 1825 
z
" transform="scale(0.015625)"/>
      </defs>
      <use xlink:href="#DejaVuSerif-48"/>
      <use xlink:href="#DejaVuSerif-65" x="87.207031"/>
      <use xlink:href="#DejaVuSerif-69" x="146.386719"/>
      <use xlink:href="#DejaVuSerif-73" x="178.369141"/>
      <use xlink:href="#DejaVuSerif-65" x="229.6875"/>
      <use xlink:href="#DejaVuSerif-6e" x="288.867188"/>
      <use xlink:href="#DejaVuSerif-62" x="353.271484"/>
      <use xlink:href="#DejaVuSerif-65" x="417.285156"/>
      <use xlink:href="#DejaVuSerif-72" x="476.464844"/>
      <use xlink:href="#DejaVuSerif-67" x="524.267578"/>
     </g>
    </g>
    <g id="line2d_44">
     <path d="M 530.791136 143.205 
L 546.791136 143.205 
L 562.791136 143.205 
" style="fill: none; stroke-dasharray: 9,3,3,3; stroke-dashoffset: 0; stroke: #9467bd; stroke-width: 3"/>
    </g>
    <g id="text_18">
     <!-- Pauli -->
     <g transform="translate(575.591136 148.805) scale(0.16 -0.16)">
      <defs>
       <path id="DejaVuSerif-50" d="M 1581 2375 
L 2406 2375 
Q 2872 2375 3115 2626 
Q 3359 2878 3359 3353 
Q 3359 3831 3115 4081 
Q 2872 4331 2406 4331 
L 1581 4331 
L 1581 2375 
z
M 353 0 
L 353 331 
L 947 331 
L 947 4331 
L 353 4331 
L 353 4666 
L 2559 4666 
Q 3259 4666 3668 4311 
Q 4078 3956 4078 3353 
Q 4078 2753 3668 2397 
Q 3259 2041 2559 2041 
L 1581 2041 
L 1581 331 
L 2303 331 
L 2303 0 
L 353 0 
z
" transform="scale(0.015625)"/>
      </defs>
      <use xlink:href="#DejaVuSerif-50"/>
      <use xlink:href="#DejaVuSerif-61" x="62.785156"/>
      <use xlink:href="#DejaVuSerif-75" x="122.404297"/>
      <use xlink:href="#DejaVuSerif-6c" x="186.808594"/>
      <use xlink:href="#DejaVuSerif-69" x="218.791016"/>
     </g>
    </g>
    <g id="line2d_45">
     <path d="M 530.791136 166.69 
L 546.791136 166.69 
L 562.791136 166.69 
" style="fill: none; stroke: #808080; stroke-width: 3; stroke-linecap: square"/>
    </g>
    <g id="text_19">
     <!-- Total -->
     <g transform="translate(575.591136 172.29) scale(0.16 -0.16)">
      <defs>
       <path id="DejaVuSerif-54" d="M 1222 0 
L 1222 331 
L 1819 331 
L 1819 4294 
L 447 4294 
L 447 3566 
L 63 3566 
L 63 4666 
L 4206 4666 
L 4206 3566 
L 3822 3566 
L 3822 4294 
L 2450 4294 
L 2450 331 
L 3047 331 
L 3047 0 
L 1222 0 
z
" transform="scale(0.015625)"/>
       <path id="DejaVuSerif-6f" d="M 1925 219 
Q 2388 219 2623 584 
Q 2859 950 2859 1663 
Q 2859 2375 2623 2739 
Q 2388 3103 1925 3103 
Q 1463 3103 1227 2739 
Q 991 2375 991 1663 
Q 991 950 1228 584 
Q 1466 219 1925 219 
z
M 1925 -91 
Q 1200 -91 759 389 
Q 319 869 319 1663 
Q 319 2456 758 2934 
Q 1197 3413 1925 3413 
Q 2653 3413 3092 2934 
Q 3531 2456 3531 1663 
Q 3531 869 3092 389 
Q 2653 -91 1925 -91 
z
" transform="scale(0.015625)"/>
      </defs>
      <use xlink:href="#DejaVuSerif-54"/>
      <use xlink:href="#DejaVuSerif-6f" x="58.949219"/>
      <use xlink:href="#DejaVuSerif-74" x="119.154297"/>
      <use xlink:href="#DejaVuSerif-61" x="159.339844"/>
      <use xlink:href="#DejaVuSerif-6c" x="218.958984"/>
     </g>
    </g>
   </g>
  </g>
 </g>
 <defs>
  <clipPath id="p8376189c84">
   <rect x="120" y="28.08" width="564.118636" height="389.1525"/>
  </clipPath>
 </defs>
</svg>
