<?xml version="1.0" encoding="utf-8" standalone="no"?>
<!DOCTYPE svg PUBLIC "-//W3C//DTD SVG 1.1//EN"
  "http://www.w3.org/Graphics/SVG/1.1/DTD/svg11.dtd">
<svg xmlns:xlink="http://www.w3.org/1999/xlink" width="864pt" height="576pt" viewBox="0 0 864 576" xmlns="http://www.w3.org/2000/svg" version="1.1">
 <metadata>
  <rdf:RDF xmlns:dc="http://purl.org/dc/elements/1.1/" xmlns:cc="http://creativecommons.org/ns#" xmlns:rdf="http://www.w3.org/1999/02/22-rdf-syntax-ns#">
   <cc:Work>
    <dc:type rdf:resource="http://purl.org/dc/dcmitype/StillImage"/>
    <dc:date>2025-06-12T16:25:35.775052</dc:date>
    <dc:format>image/svg+xml</dc:format>
    <dc:creator>
     <cc:Agent>
      <dc:title>Matplotlib v3.7.2, https://matplotlib.org/</dc:title>
     </cc:Agent>
    </dc:creator>
   </cc:Work>
  </rdf:RDF>
 </metadata>
 <defs>
  <style type="text/css">*{stroke-linejoin: round; stroke-linecap: butt}</style>
 </defs>
 <g id="figure_1">
  <g id="patch_1">
   <path d="M 0 576 
L 864 576 
L 864 0 
L 0 0 
z
" style="fill: #ffffff"/>
  </g>
  <g id="axes_1">
   <g id="patch_2">
    <path d="M 97.51 489.2325 
L 826.97669 489.2325 
L 826.97669 28.08 
L 97.51 28.08 
z
" style="fill: #ffffff"/>
   </g>
   <g id="matplotlib.axis_1">
    <g id="xtick_1">
     <g id="line2d_1">
      <path d="M 124.235786 489.2325 
L 124.235786 28.08 
" clip-path="url(#p9902d5dd95)" style="fill: none; stroke-dasharray: 3.7,1.6; stroke-dashoffset: 0; stroke: #b0b0b0; stroke-opacity: 0.5"/>
     </g>
     <g id="line2d_2">
      <defs>
       <path id="m0894a28e8d" d="M 0 0 
L 0 -10 
" style="stroke: #000000; stroke-width: 2"/>
      </defs>
      <g>
       <use xlink:href="#m0894a28e8d" x="124.235786" y="489.2325" style="stroke: #000000; stroke-width: 2"/>
      </g>
     </g>
     <g id="line2d_3">
      <defs>
       <path id="me1f7416791" d="M 0 0 
L 0 10 
" style="stroke: #000000; stroke-width: 2"/>
      </defs>
      <g>
       <use xlink:href="#me1f7416791" x="124.235786" y="28.08" style="stroke: #000000; stroke-width: 2"/>
      </g>
     </g>
     <g id="text_1">
      <!-- 0 -->
      <g transform="translate(115.964536 512.488438) scale(0.26 -0.26)">
       <defs>
        <path id="DejaVuSerif-30" d="M 2034 219 
Q 2513 219 2750 744 
Q 2988 1269 2988 2328 
Q 2988 3391 2750 3916 
Q 2513 4441 2034 4441 
Q 1556 4441 1318 3916 
Q 1081 3391 1081 2328 
Q 1081 1269 1318 744 
Q 1556 219 2034 219 
z
M 2034 -91 
Q 1275 -91 848 546 
Q 422 1184 422 2328 
Q 422 3475 848 4112 
Q 1275 4750 2034 4750 
Q 2797 4750 3222 4112 
Q 3647 3475 3647 2328 
Q 3647 1184 3222 546 
Q 2797 -91 2034 -91 
z
" transform="scale(0.015625)"/>
       </defs>
       <use xlink:href="#DejaVuSerif-30"/>
      </g>
     </g>
    </g>
    <g id="xtick_2">
     <g id="line2d_4">
      <path d="M 259.506512 489.2325 
L 259.506512 28.08 
" clip-path="url(#p9902d5dd95)" style="fill: none; stroke-dasharray: 3.7,1.6; stroke-dashoffset: 0; stroke: #b0b0b0; stroke-opacity: 0.5"/>
     </g>
     <g id="line2d_5">
      <g>
       <use xlink:href="#m0894a28e8d" x="259.506512" y="489.2325" style="stroke: #000000; stroke-width: 2"/>
      </g>
     </g>
     <g id="line2d_6">
      <g>
       <use xlink:href="#me1f7416791" x="259.506512" y="28.08" style="stroke: #000000; stroke-width: 2"/>
      </g>
     </g>
     <g id="text_2">
      <!-- 500 -->
      <g transform="translate(234.692762 512.488438) scale(0.26 -0.26)">
       <defs>
        <path id="DejaVuSerif-35" d="M 3219 4666 
L 3219 4153 
L 1081 4153 
L 1081 2816 
Q 1244 2928 1461 2984 
Q 1678 3041 1947 3041 
Q 2703 3041 3140 2622 
Q 3578 2203 3578 1478 
Q 3578 738 3136 323 
Q 2694 -91 1894 -91 
Q 1572 -91 1234 -12 
Q 897 66 544 225 
L 544 1131 
L 897 1131 
Q 925 688 1179 453 
Q 1434 219 1894 219 
Q 2388 219 2653 544 
Q 2919 869 2919 1478 
Q 2919 2084 2655 2407 
Q 2391 2731 1894 2731 
Q 1613 2731 1398 2631 
Q 1184 2531 1019 2322 
L 750 2322 
L 750 4666 
L 3219 4666 
z
" transform="scale(0.015625)"/>
       </defs>
       <use xlink:href="#DejaVuSerif-35"/>
       <use xlink:href="#DejaVuSerif-30" x="63.623047"/>
       <use xlink:href="#DejaVuSerif-30" x="127.246094"/>
      </g>
     </g>
    </g>
    <g id="xtick_3">
     <g id="line2d_7">
      <path d="M 394.777239 489.2325 
L 394.777239 28.08 
" clip-path="url(#p9902d5dd95)" style="fill: none; stroke-dasharray: 3.7,1.6; stroke-dashoffset: 0; stroke: #b0b0b0; stroke-opacity: 0.5"/>
     </g>
     <g id="line2d_8">
      <g>
       <use xlink:href="#m0894a28e8d" x="394.777239" y="489.2325" style="stroke: #000000; stroke-width: 2"/>
      </g>
     </g>
     <g id="line2d_9">
      <g>
       <use xlink:href="#me1f7416791" x="394.777239" y="28.08" style="stroke: #000000; stroke-width: 2"/>
      </g>
     </g>
     <g id="text_3">
      <!-- 1000 -->
      <g transform="translate(361.692239 512.488438) scale(0.26 -0.26)">
       <defs>
        <path id="DejaVuSerif-31" d="M 909 0 
L 909 331 
L 1722 331 
L 1722 4213 
L 781 3603 
L 781 4013 
L 1919 4750 
L 2350 4750 
L 2350 331 
L 3163 331 
L 3163 0 
L 909 0 
z
" transform="scale(0.015625)"/>
       </defs>
       <use xlink:href="#DejaVuSerif-31"/>
       <use xlink:href="#DejaVuSerif-30" x="63.623047"/>
       <use xlink:href="#DejaVuSerif-30" x="127.246094"/>
       <use xlink:href="#DejaVuSerif-30" x="190.869141"/>
      </g>
     </g>
    </g>
    <g id="xtick_4">
     <g id="line2d_10">
      <path d="M 530.047966 489.2325 
L 530.047966 28.08 
" clip-path="url(#p9902d5dd95)" style="fill: none; stroke-dasharray: 3.7,1.6; stroke-dashoffset: 0; stroke: #b0b0b0; stroke-opacity: 0.5"/>
     </g>
     <g id="line2d_11">
      <g>
       <use xlink:href="#m0894a28e8d" x="530.047966" y="489.2325" style="stroke: #000000; stroke-width: 2"/>
      </g>
     </g>
     <g id="line2d_12">
      <g>
       <use xlink:href="#me1f7416791" x="530.047966" y="28.08" style="stroke: #000000; stroke-width: 2"/>
      </g>
     </g>
     <g id="text_4">
      <!-- 1500 -->
      <g transform="translate(496.962966 512.488438) scale(0.26 -0.26)">
       <use xlink:href="#DejaVuSerif-31"/>
       <use xlink:href="#DejaVuSerif-35" x="63.623047"/>
       <use xlink:href="#DejaVuSerif-30" x="127.246094"/>
       <use xlink:href="#DejaVuSerif-30" x="190.869141"/>
      </g>
     </g>
    </g>
    <g id="xtick_5">
     <g id="line2d_13">
      <path d="M 665.318693 489.2325 
L 665.318693 28.08 
" clip-path="url(#p9902d5dd95)" style="fill: none; stroke-dasharray: 3.7,1.6; stroke-dashoffset: 0; stroke: #b0b0b0; stroke-opacity: 0.5"/>
     </g>
     <g id="line2d_14">
      <g>
       <use xlink:href="#m0894a28e8d" x="665.318693" y="489.2325" style="stroke: #000000; stroke-width: 2"/>
      </g>
     </g>
     <g id="line2d_15">
      <g>
       <use xlink:href="#me1f7416791" x="665.318693" y="28.08" style="stroke: #000000; stroke-width: 2"/>
      </g>
     </g>
     <g id="text_5">
      <!-- 2000 -->
      <g transform="translate(632.233693 512.488438) scale(0.26 -0.26)">
       <defs>
        <path id="DejaVuSerif-32" d="M 819 3553 
L 469 3553 
L 469 4384 
Q 803 4563 1142 4656 
Q 1481 4750 1806 4750 
Q 2534 4750 2956 4397 
Q 3378 4044 3378 3438 
Q 3378 2753 2422 1800 
Q 2347 1728 2309 1691 
L 1131 513 
L 3078 513 
L 3078 1088 
L 3444 1088 
L 3444 0 
L 434 0 
L 434 341 
L 1850 1753 
Q 2319 2222 2519 2614 
Q 2719 3006 2719 3438 
Q 2719 3909 2473 4175 
Q 2228 4441 1797 4441 
Q 1350 4441 1106 4219 
Q 863 3997 819 3553 
z
" transform="scale(0.015625)"/>
       </defs>
       <use xlink:href="#DejaVuSerif-32"/>
       <use xlink:href="#DejaVuSerif-30" x="63.623047"/>
       <use xlink:href="#DejaVuSerif-30" x="127.246094"/>
       <use xlink:href="#DejaVuSerif-30" x="190.869141"/>
      </g>
     </g>
    </g>
    <g id="xtick_6">
     <g id="line2d_16">
      <path d="M 800.58942 489.2325 
L 800.58942 28.08 
" clip-path="url(#p9902d5dd95)" style="fill: none; stroke-dasharray: 3.7,1.6; stroke-dashoffset: 0; stroke: #b0b0b0; stroke-opacity: 0.5"/>
     </g>
     <g id="line2d_17">
      <g>
       <use xlink:href="#m0894a28e8d" x="800.58942" y="489.2325" style="stroke: #000000; stroke-width: 2"/>
      </g>
     </g>
     <g id="line2d_18">
      <g>
       <use xlink:href="#me1f7416791" x="800.58942" y="28.08" style="stroke: #000000; stroke-width: 2"/>
      </g>
     </g>
     <g id="text_6">
      <!-- 2500 -->
      <g transform="translate(767.50442 512.488438) scale(0.26 -0.26)">
       <use xlink:href="#DejaVuSerif-32"/>
       <use xlink:href="#DejaVuSerif-35" x="63.623047"/>
       <use xlink:href="#DejaVuSerif-30" x="127.246094"/>
       <use xlink:href="#DejaVuSerif-30" x="190.869141"/>
      </g>
     </g>
    </g>
    <g id="text_7">
     <!-- $t$ (a.u.) -->
     <g transform="translate(418.823345 541.651562) scale(0.26 -0.26)">
      <defs>
       <path id="Cmmi10-74" d="M 397 519 
Q 397 613 416 697 
L 878 2534 
L 206 2534 
Q 141 2534 141 2619 
Q 166 2759 225 2759 
L 934 2759 
L 1191 3803 
Q 1216 3888 1291 3947 
Q 1366 4006 1459 4006 
Q 1541 4006 1595 3957 
Q 1650 3909 1650 3828 
Q 1650 3809 1648 3798 
Q 1647 3788 1644 3775 
L 1388 2759 
L 2047 2759 
Q 2113 2759 2113 2675 
Q 2109 2659 2100 2621 
Q 2091 2584 2075 2559 
Q 2059 2534 2028 2534 
L 1331 2534 
L 872 684 
Q 825 503 825 372 
Q 825 97 1013 97 
Q 1294 97 1511 361 
Q 1728 625 1844 941 
Q 1869 978 1894 978 
L 1972 978 
Q 1997 978 2012 961 
Q 2028 944 2028 922 
Q 2028 909 2022 903 
Q 1881 516 1612 222 
Q 1344 -72 997 -72 
Q 744 -72 570 93 
Q 397 259 397 519 
z
" transform="scale(0.015625)"/>
       <path id="DejaVuSerif-20" transform="scale(0.015625)"/>
       <path id="DejaVuSerif-28" d="M 2041 -997 
Q 1281 -656 893 83 
Q 506 822 506 1931 
Q 506 3044 893 3783 
Q 1281 4522 2041 4863 
L 2041 4556 
Q 1559 4225 1350 3623 
Q 1141 3022 1141 1931 
Q 1141 844 1350 242 
Q 1559 -359 2041 -691 
L 2041 -997 
z
" transform="scale(0.015625)"/>
       <path id="DejaVuSerif-61" d="M 2547 1044 
L 2547 1747 
L 1806 1747 
Q 1378 1747 1168 1562 
Q 959 1378 959 997 
Q 959 650 1171 447 
Q 1384 244 1747 244 
Q 2106 244 2326 466 
Q 2547 688 2547 1044 
z
M 3122 2075 
L 3122 331 
L 3634 331 
L 3634 0 
L 2547 0 
L 2547 359 
Q 2356 128 2106 18 
Q 1856 -91 1522 -91 
Q 969 -91 644 203 
Q 319 497 319 997 
Q 319 1513 691 1797 
Q 1063 2081 1741 2081 
L 2547 2081 
L 2547 2309 
Q 2547 2688 2317 2895 
Q 2088 3103 1672 3103 
Q 1328 3103 1125 2947 
Q 922 2791 872 2484 
L 575 2484 
L 575 3156 
Q 875 3284 1158 3348 
Q 1441 3413 1709 3413 
Q 2400 3413 2761 3070 
Q 3122 2728 3122 2075 
z
" transform="scale(0.015625)"/>
       <path id="DejaVuSerif-2e" d="M 603 325 
Q 603 500 722 622 
Q 841 744 1019 744 
Q 1191 744 1312 622 
Q 1434 500 1434 325 
Q 1434 153 1312 31 
Q 1191 -91 1019 -91 
Q 841 -91 722 29 
Q 603 150 603 325 
z
" transform="scale(0.015625)"/>
       <path id="DejaVuSerif-75" d="M 2266 3322 
L 3341 3322 
L 3341 331 
L 3884 331 
L 3884 0 
L 2766 0 
L 2766 588 
Q 2606 256 2353 82 
Q 2100 -91 1766 -91 
Q 1213 -91 952 223 
Q 691 538 691 1209 
L 691 2988 
L 172 2988 
L 172 3322 
L 1269 3322 
L 1269 1388 
Q 1269 781 1417 556 
Q 1566 331 1947 331 
Q 2347 331 2556 625 
Q 2766 919 2766 1478 
L 2766 2988 
L 2266 2988 
L 2266 3322 
z
" transform="scale(0.015625)"/>
       <path id="DejaVuSerif-29" d="M 453 -997 
L 453 -691 
Q 934 -359 1145 242 
Q 1356 844 1356 1931 
Q 1356 3022 1145 3623 
Q 934 4225 453 4556 
L 453 4863 
Q 1216 4522 1603 3783 
Q 1991 3044 1991 1931 
Q 1991 822 1603 83 
Q 1216 -656 453 -997 
z
" transform="scale(0.015625)"/>
      </defs>
      <use xlink:href="#Cmmi10-74" transform="translate(0 0.015625)"/>
      <use xlink:href="#DejaVuSerif-20" transform="translate(36.083984 0.015625)"/>
      <use xlink:href="#DejaVuSerif-28" transform="translate(67.871094 0.015625)"/>
      <use xlink:href="#DejaVuSerif-61" transform="translate(106.884766 0.015625)"/>
      <use xlink:href="#DejaVuSerif-2e" transform="translate(166.503906 0.015625)"/>
      <use xlink:href="#DejaVuSerif-75" transform="translate(198.291016 0.015625)"/>
      <use xlink:href="#DejaVuSerif-2e" transform="translate(262.695312 0.015625)"/>
      <use xlink:href="#DejaVuSerif-29" transform="translate(294.482422 0.015625)"/>
     </g>
    </g>
   </g>
   <g id="matplotlib.axis_2">
    <g id="ytick_1">
     <g id="line2d_19">
      <path d="M 97.51 472.681807 
L 826.97669 472.681807 
" clip-path="url(#p9902d5dd95)" style="fill: none; stroke-dasharray: 3.7,1.6; stroke-dashoffset: 0; stroke: #b0b0b0; stroke-opacity: 0.5"/>
     </g>
     <g id="line2d_20">
      <defs>
       <path id="mf92b4f0056" d="M 0 0 
L 10 0 
" style="stroke: #000000; stroke-width: 2"/>
      </defs>
      <g>
       <use xlink:href="#mf92b4f0056" x="97.51" y="472.681807" style="stroke: #000000; stroke-width: 2"/>
      </g>
     </g>
     <g id="line2d_21">
      <defs>
       <path id="m891817451d" d="M 0 0 
L -10 0 
" style="stroke: #000000; stroke-width: 2"/>
      </defs>
      <g>
       <use xlink:href="#m891817451d" x="826.97669" y="472.681807" style="stroke: #000000; stroke-width: 2"/>
      </g>
     </g>
     <g id="text_8">
      <!-- 0 -->
      <g transform="translate(77.4675 482.559775) scale(0.26 -0.26)">
       <use xlink:href="#DejaVuSerif-30"/>
      </g>
     </g>
    </g>
    <g id="ytick_2">
     <g id="line2d_22">
      <path d="M 97.51 378.851592 
L 826.97669 378.851592 
" clip-path="url(#p9902d5dd95)" style="fill: none; stroke-dasharray: 3.7,1.6; stroke-dashoffset: 0; stroke: #b0b0b0; stroke-opacity: 0.5"/>
     </g>
     <g id="line2d_23">
      <g>
       <use xlink:href="#mf92b4f0056" x="97.51" y="378.851592" style="stroke: #000000; stroke-width: 2"/>
      </g>
     </g>
     <g id="line2d_24">
      <g>
       <use xlink:href="#m891817451d" x="826.97669" y="378.851592" style="stroke: #000000; stroke-width: 2"/>
      </g>
     </g>
     <g id="text_9">
      <!-- 20 -->
      <g transform="translate(60.925 388.72956) scale(0.26 -0.26)">
       <use xlink:href="#DejaVuSerif-32"/>
       <use xlink:href="#DejaVuSerif-30" x="63.623047"/>
      </g>
     </g>
    </g>
    <g id="ytick_3">
     <g id="line2d_25">
      <path d="M 97.51 285.021377 
L 826.97669 285.021377 
" clip-path="url(#p9902d5dd95)" style="fill: none; stroke-dasharray: 3.7,1.6; stroke-dashoffset: 0; stroke: #b0b0b0; stroke-opacity: 0.5"/>
     </g>
     <g id="line2d_26">
      <g>
       <use xlink:href="#mf92b4f0056" x="97.51" y="285.021377" style="stroke: #000000; stroke-width: 2"/>
      </g>
     </g>
     <g id="line2d_27">
      <g>
       <use xlink:href="#m891817451d" x="826.97669" y="285.021377" style="stroke: #000000; stroke-width: 2"/>
      </g>
     </g>
     <g id="text_10">
      <!-- 40 -->
      <g transform="translate(60.925 294.899345) scale(0.26 -0.26)">
       <defs>
        <path id="DejaVuSerif-34" d="M 2234 1581 
L 2234 4063 
L 641 1581 
L 2234 1581 
z
M 3609 0 
L 1484 0 
L 1484 331 
L 2234 331 
L 2234 1247 
L 197 1247 
L 197 1588 
L 2241 4750 
L 2859 4750 
L 2859 1581 
L 3750 1581 
L 3750 1247 
L 2859 1247 
L 2859 331 
L 3609 331 
L 3609 0 
z
" transform="scale(0.015625)"/>
       </defs>
       <use xlink:href="#DejaVuSerif-34"/>
       <use xlink:href="#DejaVuSerif-30" x="63.623047"/>
      </g>
     </g>
    </g>
    <g id="ytick_4">
     <g id="line2d_28">
      <path d="M 97.51 191.191162 
L 826.97669 191.191162 
" clip-path="url(#p9902d5dd95)" style="fill: none; stroke-dasharray: 3.7,1.6; stroke-dashoffset: 0; stroke: #b0b0b0; stroke-opacity: 0.5"/>
     </g>
     <g id="line2d_29">
      <g>
       <use xlink:href="#mf92b4f0056" x="97.51" y="191.191162" style="stroke: #000000; stroke-width: 2"/>
      </g>
     </g>
     <g id="line2d_30">
      <g>
       <use xlink:href="#m891817451d" x="826.97669" y="191.191162" style="stroke: #000000; stroke-width: 2"/>
      </g>
     </g>
     <g id="text_11">
      <!-- 60 -->
      <g transform="translate(60.925 201.069131) scale(0.26 -0.26)">
       <defs>
        <path id="DejaVuSerif-36" d="M 2094 219 
Q 2534 219 2771 542 
Q 3009 866 3009 1472 
Q 3009 2078 2771 2401 
Q 2534 2725 2094 2725 
Q 1647 2725 1412 2412 
Q 1178 2100 1178 1509 
Q 1178 888 1415 553 
Q 1653 219 2094 219 
z
M 1075 2569 
Q 1288 2803 1556 2918 
Q 1825 3034 2163 3034 
Q 2859 3034 3264 2615 
Q 3669 2197 3669 1472 
Q 3669 763 3233 336 
Q 2797 -91 2069 -91 
Q 1278 -91 853 498 
Q 428 1088 428 2181 
Q 428 3406 931 4078 
Q 1434 4750 2350 4750 
Q 2597 4750 2869 4703 
Q 3141 4656 3425 4563 
L 3425 3794 
L 3072 3794 
Q 3034 4109 2831 4275 
Q 2628 4441 2284 4441 
Q 1678 4441 1381 3981 
Q 1084 3522 1075 2569 
z
" transform="scale(0.015625)"/>
       </defs>
       <use xlink:href="#DejaVuSerif-36"/>
       <use xlink:href="#DejaVuSerif-30" x="63.623047"/>
      </g>
     </g>
    </g>
    <g id="ytick_5">
     <g id="line2d_31">
      <path d="M 97.51 97.360947 
L 826.97669 97.360947 
" clip-path="url(#p9902d5dd95)" style="fill: none; stroke-dasharray: 3.7,1.6; stroke-dashoffset: 0; stroke: #b0b0b0; stroke-opacity: 0.5"/>
     </g>
     <g id="line2d_32">
      <g>
       <use xlink:href="#mf92b4f0056" x="97.51" y="97.360947" style="stroke: #000000; stroke-width: 2"/>
      </g>
     </g>
     <g id="line2d_33">
      <g>
       <use xlink:href="#m891817451d" x="826.97669" y="97.360947" style="stroke: #000000; stroke-width: 2"/>
      </g>
     </g>
     <g id="text_12">
      <!-- 80 -->
      <g transform="translate(60.925 107.238916) scale(0.26 -0.26)">
       <defs>
        <path id="DejaVuSerif-38" d="M 2981 1275 
Q 2981 1775 2732 2051 
Q 2484 2328 2034 2328 
Q 1584 2328 1336 2051 
Q 1088 1775 1088 1275 
Q 1088 772 1336 495 
Q 1584 219 2034 219 
Q 2484 219 2732 495 
Q 2981 772 2981 1275 
z
M 2853 3541 
Q 2853 3966 2637 4203 
Q 2422 4441 2034 4441 
Q 1650 4441 1433 4203 
Q 1216 3966 1216 3541 
Q 1216 3113 1433 2875 
Q 1650 2638 2034 2638 
Q 2422 2638 2637 2875 
Q 2853 3113 2853 3541 
z
M 2516 2484 
Q 3047 2413 3344 2092 
Q 3641 1772 3641 1275 
Q 3641 619 3225 264 
Q 2809 -91 2034 -91 
Q 1263 -91 845 264 
Q 428 619 428 1275 
Q 428 1772 725 2092 
Q 1022 2413 1556 2484 
Q 1084 2569 832 2842 
Q 581 3116 581 3541 
Q 581 4103 968 4426 
Q 1356 4750 2034 4750 
Q 2713 4750 3100 4426 
Q 3488 4103 3488 3541 
Q 3488 3116 3236 2842 
Q 2984 2569 2516 2484 
z
" transform="scale(0.015625)"/>
       </defs>
       <use xlink:href="#DejaVuSerif-38"/>
       <use xlink:href="#DejaVuSerif-30" x="63.623047"/>
      </g>
     </g>
    </g>
    <g id="text_13">
     <!-- $|\vec{p}_i|$ (a.u.) -->
     <g transform="translate(50.425 315.72625) rotate(-90) scale(0.26 -0.26)">
      <defs>
       <path id="Cmsy10-6a" d="M 763 -1484 
L 763 4684 
Q 763 4734 800 4767 
Q 838 4800 891 4800 
Q 938 4800 978 4767 
Q 1019 4734 1019 4684 
L 1019 -1484 
Q 1019 -1534 978 -1567 
Q 938 -1600 891 -1600 
Q 838 -1600 800 -1567 
Q 763 -1534 763 -1484 
z
" transform="scale(0.015625)"/>
       <path id="Cmmi10-7e" d="M 1281 3809 
Q 1231 3809 1198 3846 
Q 1166 3884 1166 3938 
Q 1166 3984 1198 4023 
Q 1231 4063 1281 4063 
L 3547 4063 
Q 3378 4291 3378 4441 
Q 3378 4497 3417 4533 
Q 3456 4569 3506 4569 
Q 3613 4569 3634 4469 
Q 3697 4194 3938 4044 
Q 4000 4003 4000 3938 
Q 4000 3859 3938 3828 
Q 3575 3647 3353 3347 
Q 3328 3303 3256 3303 
Q 3209 3303 3168 3340 
Q 3128 3378 3128 3431 
Q 3128 3547 3438 3809 
L 1281 3809 
z
" transform="scale(0.015625)"/>
       <path id="Cmmi10-70" d="M -159 -1241 
Q -219 -1241 -219 -1159 
Q -197 -1019 -134 -1019 
Q 66 -1019 145 -983 
Q 225 -947 269 -800 
L 991 2081 
Q 1038 2200 1038 2388 
Q 1038 2663 850 2663 
Q 650 2663 553 2423 
Q 456 2184 366 1819 
Q 366 1778 313 1778 
L 238 1778 
Q 222 1778 203 1801 
Q 184 1825 184 1844 
Q 253 2122 317 2315 
Q 381 2509 517 2668 
Q 653 2828 856 2828 
Q 1075 2828 1240 2704 
Q 1406 2581 1453 2369 
Q 1628 2572 1840 2700 
Q 2053 2828 2278 2828 
Q 2547 2828 2745 2684 
Q 2944 2541 3044 2308 
Q 3144 2075 3144 1806 
Q 3144 1394 2933 953 
Q 2722 513 2361 220 
Q 2000 -72 1588 -72 
Q 1400 -72 1248 34 
Q 1097 141 1013 313 
L 722 -825 
Q 706 -919 703 -934 
Q 703 -1019 1125 -1019 
Q 1191 -1019 1191 -1100 
Q 1169 -1184 1155 -1212 
Q 1141 -1241 1081 -1241 
L -159 -1241 
z
M 1594 97 
Q 1816 97 2006 280 
Q 2197 463 2316 691 
Q 2403 863 2479 1111 
Q 2556 1359 2612 1640 
Q 2669 1922 2669 2088 
Q 2669 2234 2630 2362 
Q 2591 2491 2502 2577 
Q 2413 2663 2266 2663 
Q 2031 2663 1823 2495 
Q 1616 2328 1447 2081 
L 1447 2059 
L 1094 647 
Q 1138 419 1263 258 
Q 1388 97 1594 97 
z
" transform="scale(0.015625)"/>
       <path id="Cmmi10-69" d="M 500 459 
Q 500 578 550 709 
L 1069 2088 
Q 1153 2322 1153 2472 
Q 1153 2663 1013 2663 
Q 759 2663 595 2402 
Q 431 2141 353 1819 
Q 341 1778 300 1778 
L 225 1778 
Q 172 1778 172 1838 
L 172 1856 
Q 275 2238 487 2533 
Q 700 2828 1025 2828 
Q 1253 2828 1411 2678 
Q 1569 2528 1569 2297 
Q 1569 2178 1516 2047 
L 997 672 
Q 909 459 909 288 
Q 909 97 1056 97 
Q 1306 97 1473 364 
Q 1641 631 1709 941 
Q 1722 978 1759 978 
L 1838 978 
Q 1863 978 1878 961 
Q 1894 944 1894 922 
Q 1894 916 1888 903 
Q 1800 541 1583 234 
Q 1366 -72 1044 -72 
Q 819 -72 659 83 
Q 500 238 500 459 
z
M 1222 3878 
Q 1222 4013 1334 4122 
Q 1447 4231 1581 4231 
Q 1691 4231 1761 4164 
Q 1831 4097 1831 3994 
Q 1831 3850 1717 3742 
Q 1603 3634 1466 3634 
Q 1363 3634 1292 3704 
Q 1222 3775 1222 3878 
z
" transform="scale(0.015625)"/>
      </defs>
      <use xlink:href="#Cmsy10-6a" transform="translate(0 0.53125)"/>
      <use xlink:href="#Cmmi10-7e" transform="translate(19.040039 5.609375)"/>
      <use xlink:href="#Cmmi10-70" transform="translate(27.685547 0.53125)"/>
      <use xlink:href="#Cmmi10-69" transform="translate(82.442656 -16.475) scale(0.7)"/>
      <use xlink:href="#Cmsy10-6a" transform="translate(112.91668 0.53125)"/>
      <use xlink:href="#DejaVuSerif-20" transform="translate(140.602227 0.53125)"/>
      <use xlink:href="#DejaVuSerif-28" transform="translate(172.389336 0.53125)"/>
      <use xlink:href="#DejaVuSerif-61" transform="translate(211.403008 0.53125)"/>
      <use xlink:href="#DejaVuSerif-2e" transform="translate(271.022148 0.53125)"/>
      <use xlink:href="#DejaVuSerif-75" transform="translate(302.809258 0.53125)"/>
      <use xlink:href="#DejaVuSerif-2e" transform="translate(367.213555 0.53125)"/>
      <use xlink:href="#DejaVuSerif-29" transform="translate(399.000664 0.53125)"/>
     </g>
    </g>
   </g>
   <g id="line2d_34">
    <path d="M 130.667577 454.568573 
L 144.20819 454.585268 
L 157.748803 454.58899 
L 171.289417 454.590571 
L 184.83003 454.591445 
L 198.370643 454.592 
L 211.911257 454.592384 
L 225.45187 454.592665 
L 238.992483 454.59288 
L 252.533097 454.59305 
L 266.07371 454.593187 
L 279.614323 454.5933 
L 293.154936 454.593395 
L 306.69555 454.593476 
L 320.236163 454.593546 
L 333.776776 454.593607 
L 347.31739 454.59366 
L 360.858003 454.593707 
L 374.398616 454.59375 
L 387.93923 454.593787 
L 401.479843 454.593822 
L 415.020456 454.593853 
L 428.561069 454.593881 
L 442.101683 454.593907 
L 455.642296 454.59393 
L 469.182909 454.593952 
L 482.723523 454.593972 
L 496.264136 454.593991 
L 509.804749 454.594008 
L 523.345363 454.594025 
L 536.885976 454.59404 
L 550.426589 454.594054 
L 563.967202 454.594067 
L 577.507816 454.59408 
L 591.048429 454.594092 
L 604.589042 454.594103 
L 618.129656 454.594113 
L 631.670269 454.594123 
L 645.210882 454.594133 
L 658.751496 454.594142 
L 672.292109 454.59415 
L 685.832722 454.594158 
L 699.373335 454.594166 
L 712.913949 454.594173 
L 726.454562 454.59418 
L 739.995175 454.594187 
L 753.535789 454.594194 
L 767.076402 454.5942 
L 780.617015 454.594206 
L 793.819113 454.594211 
" clip-path="url(#p9902d5dd95)" style="fill: none; stroke: #1f77b4; stroke-width: 3; stroke-linecap: square"/>
    <defs>
     <path id="m03f6af3a1e" d="M 0 3 
C 0.795609 3 1.55874 2.683901 2.12132 2.12132 
C 2.683901 1.55874 3 0.795609 3 0 
C 3 -0.795609 2.683901 -1.55874 2.12132 -2.12132 
C 1.55874 -2.683901 0.795609 -3 0 -3 
C -0.795609 -3 -1.55874 -2.683901 -2.12132 -2.12132 
C -2.683901 -1.55874 -3 -0.795609 -3 0 
C -3 0.795609 -2.683901 1.55874 -2.12132 2.12132 
C -1.55874 2.683901 -0.795609 3 0 3 
z
" style="stroke: #1f77b4"/>
    </defs>
    <g clip-path="url(#p9902d5dd95)">
     <use xlink:href="#m03f6af3a1e" x="130.667577" y="454.568573" style="fill: #1f77b4; stroke: #1f77b4"/>
     <use xlink:href="#m03f6af3a1e" x="144.20819" y="454.585268" style="fill: #1f77b4; stroke: #1f77b4"/>
     <use xlink:href="#m03f6af3a1e" x="157.748803" y="454.58899" style="fill: #1f77b4; stroke: #1f77b4"/>
     <use xlink:href="#m03f6af3a1e" x="171.289417" y="454.590571" style="fill: #1f77b4; stroke: #1f77b4"/>
     <use xlink:href="#m03f6af3a1e" x="184.83003" y="454.591445" style="fill: #1f77b4; stroke: #1f77b4"/>
     <use xlink:href="#m03f6af3a1e" x="198.370643" y="454.592" style="fill: #1f77b4; stroke: #1f77b4"/>
     <use xlink:href="#m03f6af3a1e" x="211.911257" y="454.592384" style="fill: #1f77b4; stroke: #1f77b4"/>
     <use xlink:href="#m03f6af3a1e" x="225.45187" y="454.592665" style="fill: #1f77b4; stroke: #1f77b4"/>
     <use xlink:href="#m03f6af3a1e" x="238.992483" y="454.59288" style="fill: #1f77b4; stroke: #1f77b4"/>
     <use xlink:href="#m03f6af3a1e" x="252.533097" y="454.59305" style="fill: #1f77b4; stroke: #1f77b4"/>
     <use xlink:href="#m03f6af3a1e" x="266.07371" y="454.593187" style="fill: #1f77b4; stroke: #1f77b4"/>
     <use xlink:href="#m03f6af3a1e" x="279.614323" y="454.5933" style="fill: #1f77b4; stroke: #1f77b4"/>
     <use xlink:href="#m03f6af3a1e" x="293.154936" y="454.593395" style="fill: #1f77b4; stroke: #1f77b4"/>
     <use xlink:href="#m03f6af3a1e" x="306.69555" y="454.593476" style="fill: #1f77b4; stroke: #1f77b4"/>
     <use xlink:href="#m03f6af3a1e" x="320.236163" y="454.593546" style="fill: #1f77b4; stroke: #1f77b4"/>
     <use xlink:href="#m03f6af3a1e" x="333.776776" y="454.593607" style="fill: #1f77b4; stroke: #1f77b4"/>
     <use xlink:href="#m03f6af3a1e" x="347.31739" y="454.59366" style="fill: #1f77b4; stroke: #1f77b4"/>
     <use xlink:href="#m03f6af3a1e" x="360.858003" y="454.593707" style="fill: #1f77b4; stroke: #1f77b4"/>
     <use xlink:href="#m03f6af3a1e" x="374.398616" y="454.59375" style="fill: #1f77b4; stroke: #1f77b4"/>
     <use xlink:href="#m03f6af3a1e" x="387.93923" y="454.593787" style="fill: #1f77b4; stroke: #1f77b4"/>
     <use xlink:href="#m03f6af3a1e" x="401.479843" y="454.593822" style="fill: #1f77b4; stroke: #1f77b4"/>
     <use xlink:href="#m03f6af3a1e" x="415.020456" y="454.593853" style="fill: #1f77b4; stroke: #1f77b4"/>
     <use xlink:href="#m03f6af3a1e" x="428.561069" y="454.593881" style="fill: #1f77b4; stroke: #1f77b4"/>
     <use xlink:href="#m03f6af3a1e" x="442.101683" y="454.593907" style="fill: #1f77b4; stroke: #1f77b4"/>
     <use xlink:href="#m03f6af3a1e" x="455.642296" y="454.59393" style="fill: #1f77b4; stroke: #1f77b4"/>
     <use xlink:href="#m03f6af3a1e" x="469.182909" y="454.593952" style="fill: #1f77b4; stroke: #1f77b4"/>
     <use xlink:href="#m03f6af3a1e" x="482.723523" y="454.593972" style="fill: #1f77b4; stroke: #1f77b4"/>
     <use xlink:href="#m03f6af3a1e" x="496.264136" y="454.593991" style="fill: #1f77b4; stroke: #1f77b4"/>
     <use xlink:href="#m03f6af3a1e" x="509.804749" y="454.594008" style="fill: #1f77b4; stroke: #1f77b4"/>
     <use xlink:href="#m03f6af3a1e" x="523.345363" y="454.594025" style="fill: #1f77b4; stroke: #1f77b4"/>
     <use xlink:href="#m03f6af3a1e" x="536.885976" y="454.59404" style="fill: #1f77b4; stroke: #1f77b4"/>
     <use xlink:href="#m03f6af3a1e" x="550.426589" y="454.594054" style="fill: #1f77b4; stroke: #1f77b4"/>
     <use xlink:href="#m03f6af3a1e" x="563.967202" y="454.594067" style="fill: #1f77b4; stroke: #1f77b4"/>
     <use xlink:href="#m03f6af3a1e" x="577.507816" y="454.59408" style="fill: #1f77b4; stroke: #1f77b4"/>
     <use xlink:href="#m03f6af3a1e" x="591.048429" y="454.594092" style="fill: #1f77b4; stroke: #1f77b4"/>
     <use xlink:href="#m03f6af3a1e" x="604.589042" y="454.594103" style="fill: #1f77b4; stroke: #1f77b4"/>
     <use xlink:href="#m03f6af3a1e" x="618.129656" y="454.594113" style="fill: #1f77b4; stroke: #1f77b4"/>
     <use xlink:href="#m03f6af3a1e" x="631.670269" y="454.594123" style="fill: #1f77b4; stroke: #1f77b4"/>
     <use xlink:href="#m03f6af3a1e" x="645.210882" y="454.594133" style="fill: #1f77b4; stroke: #1f77b4"/>
     <use xlink:href="#m03f6af3a1e" x="658.751496" y="454.594142" style="fill: #1f77b4; stroke: #1f77b4"/>
     <use xlink:href="#m03f6af3a1e" x="672.292109" y="454.59415" style="fill: #1f77b4; stroke: #1f77b4"/>
     <use xlink:href="#m03f6af3a1e" x="685.832722" y="454.594158" style="fill: #1f77b4; stroke: #1f77b4"/>
     <use xlink:href="#m03f6af3a1e" x="699.373335" y="454.594166" style="fill: #1f77b4; stroke: #1f77b4"/>
     <use xlink:href="#m03f6af3a1e" x="712.913949" y="454.594173" style="fill: #1f77b4; stroke: #1f77b4"/>
     <use xlink:href="#m03f6af3a1e" x="726.454562" y="454.59418" style="fill: #1f77b4; stroke: #1f77b4"/>
     <use xlink:href="#m03f6af3a1e" x="739.995175" y="454.594187" style="fill: #1f77b4; stroke: #1f77b4"/>
     <use xlink:href="#m03f6af3a1e" x="753.535789" y="454.594194" style="fill: #1f77b4; stroke: #1f77b4"/>
     <use xlink:href="#m03f6af3a1e" x="767.076402" y="454.5942" style="fill: #1f77b4; stroke: #1f77b4"/>
     <use xlink:href="#m03f6af3a1e" x="780.617015" y="454.594206" style="fill: #1f77b4; stroke: #1f77b4"/>
     <use xlink:href="#m03f6af3a1e" x="793.819113" y="454.594211" style="fill: #1f77b4; stroke: #1f77b4"/>
    </g>
   </g>
   <g id="line2d_35">
    <path d="M 130.667577 436.327876 
L 144.20819 436.326408 
L 157.748803 436.326135 
L 171.289417 436.32602 
L 184.83003 436.325957 
L 198.370643 436.325917 
L 211.911257 436.325889 
L 225.45187 436.325869 
L 238.992483 436.325853 
L 252.533097 436.325841 
L 266.07371 436.325831 
L 279.614323 436.325823 
L 293.154936 436.325816 
L 306.69555 436.32581 
L 320.236163 436.325805 
L 333.776776 436.325801 
L 347.31739 436.325797 
L 360.858003 436.325794 
L 374.398616 436.32579 
L 387.93923 436.325788 
L 401.479843 436.325785 
L 415.020456 436.325783 
L 428.561069 436.325781 
L 442.101683 436.325779 
L 455.642296 436.325777 
L 469.182909 436.325776 
L 482.723523 436.325774 
L 496.264136 436.325773 
L 509.804749 436.325772 
L 523.345363 436.325771 
L 536.885976 436.32577 
L 550.426589 436.325769 
L 563.967202 436.325768 
L 577.507816 436.325767 
L 591.048429 436.325766 
L 604.589042 436.325765 
L 618.129656 436.325764 
L 631.670269 436.325764 
L 645.210882 436.325763 
L 658.751496 436.325762 
L 672.292109 436.325762 
L 685.832722 436.325761 
L 699.373335 436.325761 
L 712.913949 436.32576 
L 726.454562 436.325759 
L 739.995175 436.325759 
L 753.535789 436.325759 
L 767.076402 436.325758 
L 780.617015 436.325758 
L 793.819113 436.325757 
" clip-path="url(#p9902d5dd95)" style="fill: none; stroke-dasharray: 11.1,4.8; stroke-dashoffset: 0; stroke: #ff7f0e; stroke-width: 3"/>
    <defs>
     <path id="m7f17fab052" d="M 0 3 
C 0.795609 3 1.55874 2.683901 2.12132 2.12132 
C 2.683901 1.55874 3 0.795609 3 0 
C 3 -0.795609 2.683901 -1.55874 2.12132 -2.12132 
C 1.55874 -2.683901 0.795609 -3 0 -3 
C -0.795609 -3 -1.55874 -2.683901 -2.12132 -2.12132 
C -2.683901 -1.55874 -3 -0.795609 -3 0 
C -3 0.795609 -2.683901 1.55874 -2.12132 2.12132 
C -1.55874 2.683901 -0.795609 3 0 3 
z
" style="stroke: #ff7f0e"/>
    </defs>
    <g clip-path="url(#p9902d5dd95)">
     <use xlink:href="#m7f17fab052" x="130.667577" y="436.327876" style="fill: #ff7f0e; stroke: #ff7f0e"/>
     <use xlink:href="#m7f17fab052" x="144.20819" y="436.326408" style="fill: #ff7f0e; stroke: #ff7f0e"/>
     <use xlink:href="#m7f17fab052" x="157.748803" y="436.326135" style="fill: #ff7f0e; stroke: #ff7f0e"/>
     <use xlink:href="#m7f17fab052" x="171.289417" y="436.32602" style="fill: #ff7f0e; stroke: #ff7f0e"/>
     <use xlink:href="#m7f17fab052" x="184.83003" y="436.325957" style="fill: #ff7f0e; stroke: #ff7f0e"/>
     <use xlink:href="#m7f17fab052" x="198.370643" y="436.325917" style="fill: #ff7f0e; stroke: #ff7f0e"/>
     <use xlink:href="#m7f17fab052" x="211.911257" y="436.325889" style="fill: #ff7f0e; stroke: #ff7f0e"/>
     <use xlink:href="#m7f17fab052" x="225.45187" y="436.325869" style="fill: #ff7f0e; stroke: #ff7f0e"/>
     <use xlink:href="#m7f17fab052" x="238.992483" y="436.325853" style="fill: #ff7f0e; stroke: #ff7f0e"/>
     <use xlink:href="#m7f17fab052" x="252.533097" y="436.325841" style="fill: #ff7f0e; stroke: #ff7f0e"/>
     <use xlink:href="#m7f17fab052" x="266.07371" y="436.325831" style="fill: #ff7f0e; stroke: #ff7f0e"/>
     <use xlink:href="#m7f17fab052" x="279.614323" y="436.325823" style="fill: #ff7f0e; stroke: #ff7f0e"/>
     <use xlink:href="#m7f17fab052" x="293.154936" y="436.325816" style="fill: #ff7f0e; stroke: #ff7f0e"/>
     <use xlink:href="#m7f17fab052" x="306.69555" y="436.32581" style="fill: #ff7f0e; stroke: #ff7f0e"/>
     <use xlink:href="#m7f17fab052" x="320.236163" y="436.325805" style="fill: #ff7f0e; stroke: #ff7f0e"/>
     <use xlink:href="#m7f17fab052" x="333.776776" y="436.325801" style="fill: #ff7f0e; stroke: #ff7f0e"/>
     <use xlink:href="#m7f17fab052" x="347.31739" y="436.325797" style="fill: #ff7f0e; stroke: #ff7f0e"/>
     <use xlink:href="#m7f17fab052" x="360.858003" y="436.325794" style="fill: #ff7f0e; stroke: #ff7f0e"/>
     <use xlink:href="#m7f17fab052" x="374.398616" y="436.32579" style="fill: #ff7f0e; stroke: #ff7f0e"/>
     <use xlink:href="#m7f17fab052" x="387.93923" y="436.325788" style="fill: #ff7f0e; stroke: #ff7f0e"/>
     <use xlink:href="#m7f17fab052" x="401.479843" y="436.325785" style="fill: #ff7f0e; stroke: #ff7f0e"/>
     <use xlink:href="#m7f17fab052" x="415.020456" y="436.325783" style="fill: #ff7f0e; stroke: #ff7f0e"/>
     <use xlink:href="#m7f17fab052" x="428.561069" y="436.325781" style="fill: #ff7f0e; stroke: #ff7f0e"/>
     <use xlink:href="#m7f17fab052" x="442.101683" y="436.325779" style="fill: #ff7f0e; stroke: #ff7f0e"/>
     <use xlink:href="#m7f17fab052" x="455.642296" y="436.325777" style="fill: #ff7f0e; stroke: #ff7f0e"/>
     <use xlink:href="#m7f17fab052" x="469.182909" y="436.325776" style="fill: #ff7f0e; stroke: #ff7f0e"/>
     <use xlink:href="#m7f17fab052" x="482.723523" y="436.325774" style="fill: #ff7f0e; stroke: #ff7f0e"/>
     <use xlink:href="#m7f17fab052" x="496.264136" y="436.325773" style="fill: #ff7f0e; stroke: #ff7f0e"/>
     <use xlink:href="#m7f17fab052" x="509.804749" y="436.325772" style="fill: #ff7f0e; stroke: #ff7f0e"/>
     <use xlink:href="#m7f17fab052" x="523.345363" y="436.325771" style="fill: #ff7f0e; stroke: #ff7f0e"/>
     <use xlink:href="#m7f17fab052" x="536.885976" y="436.32577" style="fill: #ff7f0e; stroke: #ff7f0e"/>
     <use xlink:href="#m7f17fab052" x="550.426589" y="436.325769" style="fill: #ff7f0e; stroke: #ff7f0e"/>
     <use xlink:href="#m7f17fab052" x="563.967202" y="436.325768" style="fill: #ff7f0e; stroke: #ff7f0e"/>
     <use xlink:href="#m7f17fab052" x="577.507816" y="436.325767" style="fill: #ff7f0e; stroke: #ff7f0e"/>
     <use xlink:href="#m7f17fab052" x="591.048429" y="436.325766" style="fill: #ff7f0e; stroke: #ff7f0e"/>
     <use xlink:href="#m7f17fab052" x="604.589042" y="436.325765" style="fill: #ff7f0e; stroke: #ff7f0e"/>
     <use xlink:href="#m7f17fab052" x="618.129656" y="436.325764" style="fill: #ff7f0e; stroke: #ff7f0e"/>
     <use xlink:href="#m7f17fab052" x="631.670269" y="436.325764" style="fill: #ff7f0e; stroke: #ff7f0e"/>
     <use xlink:href="#m7f17fab052" x="645.210882" y="436.325763" style="fill: #ff7f0e; stroke: #ff7f0e"/>
     <use xlink:href="#m7f17fab052" x="658.751496" y="436.325762" style="fill: #ff7f0e; stroke: #ff7f0e"/>
     <use xlink:href="#m7f17fab052" x="672.292109" y="436.325762" style="fill: #ff7f0e; stroke: #ff7f0e"/>
     <use xlink:href="#m7f17fab052" x="685.832722" y="436.325761" style="fill: #ff7f0e; stroke: #ff7f0e"/>
     <use xlink:href="#m7f17fab052" x="699.373335" y="436.325761" style="fill: #ff7f0e; stroke: #ff7f0e"/>
     <use xlink:href="#m7f17fab052" x="712.913949" y="436.32576" style="fill: #ff7f0e; stroke: #ff7f0e"/>
     <use xlink:href="#m7f17fab052" x="726.454562" y="436.325759" style="fill: #ff7f0e; stroke: #ff7f0e"/>
     <use xlink:href="#m7f17fab052" x="739.995175" y="436.325759" style="fill: #ff7f0e; stroke: #ff7f0e"/>
     <use xlink:href="#m7f17fab052" x="753.535789" y="436.325759" style="fill: #ff7f0e; stroke: #ff7f0e"/>
     <use xlink:href="#m7f17fab052" x="767.076402" y="436.325758" style="fill: #ff7f0e; stroke: #ff7f0e"/>
     <use xlink:href="#m7f17fab052" x="780.617015" y="436.325758" style="fill: #ff7f0e; stroke: #ff7f0e"/>
     <use xlink:href="#m7f17fab052" x="793.819113" y="436.325757" style="fill: #ff7f0e; stroke: #ff7f0e"/>
    </g>
   </g>
   <g id="line2d_36">
    <path d="M 130.667577 444.696669 
L 144.20819 444.700426 
L 157.748803 444.701284 
L 171.289417 444.70165 
L 184.83003 444.701853 
L 198.370643 444.701982 
L 211.911257 444.702071 
L 225.45187 444.702137 
L 238.992483 444.702187 
L 252.533097 444.702226 
L 266.07371 444.702258 
L 279.614323 444.702285 
L 293.154936 444.702307 
L 306.69555 444.702326 
L 320.236163 444.702342 
L 333.776776 444.702356 
L 347.31739 444.702369 
L 360.858003 444.70238 
L 374.398616 444.70239 
L 387.93923 444.702398 
L 401.479843 444.702406 
L 415.020456 444.702413 
L 428.561069 444.70242 
L 442.101683 444.702426 
L 455.642296 444.702432 
L 469.182909 444.702437 
L 482.723523 444.702441 
L 496.264136 444.702446 
L 509.804749 444.70245 
L 523.345363 444.702454 
L 536.885976 444.702457 
L 550.426589 444.70246 
L 563.967202 444.702464 
L 577.507816 444.702466 
L 591.048429 444.702469 
L 604.589042 444.702472 
L 618.129656 444.702474 
L 631.670269 444.702477 
L 645.210882 444.702479 
L 658.751496 444.702481 
L 672.292109 444.702483 
L 685.832722 444.702485 
L 699.373335 444.702487 
L 712.913949 444.702488 
L 726.454562 444.70249 
L 739.995175 444.702492 
L 753.535789 444.702493 
L 767.076402 444.702494 
L 780.617015 444.702496 
L 793.819113 444.702497 
" clip-path="url(#p9902d5dd95)" style="fill: none; stroke-dasharray: 19.2,4.8,3,4.8; stroke-dashoffset: 0; stroke: #2ca02c; stroke-width: 3"/>
    <defs>
     <path id="m36c3903ecf" d="M 0 3 
C 0.795609 3 1.55874 2.683901 2.12132 2.12132 
C 2.683901 1.55874 3 0.795609 3 0 
C 3 -0.795609 2.683901 -1.55874 2.12132 -2.12132 
C 1.55874 -2.683901 0.795609 -3 0 -3 
C -0.795609 -3 -1.55874 -2.683901 -2.12132 -2.12132 
C -2.683901 -1.55874 -3 -0.795609 -3 0 
C -3 0.795609 -2.683901 1.55874 -2.12132 2.12132 
C -1.55874 2.683901 -0.795609 3 0 3 
z
" style="stroke: #2ca02c"/>
    </defs>
    <g clip-path="url(#p9902d5dd95)">
     <use xlink:href="#m36c3903ecf" x="130.667577" y="444.696669" style="fill: #2ca02c; stroke: #2ca02c"/>
     <use xlink:href="#m36c3903ecf" x="144.20819" y="444.700426" style="fill: #2ca02c; stroke: #2ca02c"/>
     <use xlink:href="#m36c3903ecf" x="157.748803" y="444.701284" style="fill: #2ca02c; stroke: #2ca02c"/>
     <use xlink:href="#m36c3903ecf" x="171.289417" y="444.70165" style="fill: #2ca02c; stroke: #2ca02c"/>
     <use xlink:href="#m36c3903ecf" x="184.83003" y="444.701853" style="fill: #2ca02c; stroke: #2ca02c"/>
     <use xlink:href="#m36c3903ecf" x="198.370643" y="444.701982" style="fill: #2ca02c; stroke: #2ca02c"/>
     <use xlink:href="#m36c3903ecf" x="211.911257" y="444.702071" style="fill: #2ca02c; stroke: #2ca02c"/>
     <use xlink:href="#m36c3903ecf" x="225.45187" y="444.702137" style="fill: #2ca02c; stroke: #2ca02c"/>
     <use xlink:href="#m36c3903ecf" x="238.992483" y="444.702187" style="fill: #2ca02c; stroke: #2ca02c"/>
     <use xlink:href="#m36c3903ecf" x="252.533097" y="444.702226" style="fill: #2ca02c; stroke: #2ca02c"/>
     <use xlink:href="#m36c3903ecf" x="266.07371" y="444.702258" style="fill: #2ca02c; stroke: #2ca02c"/>
     <use xlink:href="#m36c3903ecf" x="279.614323" y="444.702285" style="fill: #2ca02c; stroke: #2ca02c"/>
     <use xlink:href="#m36c3903ecf" x="293.154936" y="444.702307" style="fill: #2ca02c; stroke: #2ca02c"/>
     <use xlink:href="#m36c3903ecf" x="306.69555" y="444.702326" style="fill: #2ca02c; stroke: #2ca02c"/>
     <use xlink:href="#m36c3903ecf" x="320.236163" y="444.702342" style="fill: #2ca02c; stroke: #2ca02c"/>
     <use xlink:href="#m36c3903ecf" x="333.776776" y="444.702356" style="fill: #2ca02c; stroke: #2ca02c"/>
     <use xlink:href="#m36c3903ecf" x="347.31739" y="444.702369" style="fill: #2ca02c; stroke: #2ca02c"/>
     <use xlink:href="#m36c3903ecf" x="360.858003" y="444.70238" style="fill: #2ca02c; stroke: #2ca02c"/>
     <use xlink:href="#m36c3903ecf" x="374.398616" y="444.70239" style="fill: #2ca02c; stroke: #2ca02c"/>
     <use xlink:href="#m36c3903ecf" x="387.93923" y="444.702398" style="fill: #2ca02c; stroke: #2ca02c"/>
     <use xlink:href="#m36c3903ecf" x="401.479843" y="444.702406" style="fill: #2ca02c; stroke: #2ca02c"/>
     <use xlink:href="#m36c3903ecf" x="415.020456" y="444.702413" style="fill: #2ca02c; stroke: #2ca02c"/>
     <use xlink:href="#m36c3903ecf" x="428.561069" y="444.70242" style="fill: #2ca02c; stroke: #2ca02c"/>
     <use xlink:href="#m36c3903ecf" x="442.101683" y="444.702426" style="fill: #2ca02c; stroke: #2ca02c"/>
     <use xlink:href="#m36c3903ecf" x="455.642296" y="444.702432" style="fill: #2ca02c; stroke: #2ca02c"/>
     <use xlink:href="#m36c3903ecf" x="469.182909" y="444.702437" style="fill: #2ca02c; stroke: #2ca02c"/>
     <use xlink:href="#m36c3903ecf" x="482.723523" y="444.702441" style="fill: #2ca02c; stroke: #2ca02c"/>
     <use xlink:href="#m36c3903ecf" x="496.264136" y="444.702446" style="fill: #2ca02c; stroke: #2ca02c"/>
     <use xlink:href="#m36c3903ecf" x="509.804749" y="444.70245" style="fill: #2ca02c; stroke: #2ca02c"/>
     <use xlink:href="#m36c3903ecf" x="523.345363" y="444.702454" style="fill: #2ca02c; stroke: #2ca02c"/>
     <use xlink:href="#m36c3903ecf" x="536.885976" y="444.702457" style="fill: #2ca02c; stroke: #2ca02c"/>
     <use xlink:href="#m36c3903ecf" x="550.426589" y="444.70246" style="fill: #2ca02c; stroke: #2ca02c"/>
     <use xlink:href="#m36c3903ecf" x="563.967202" y="444.702464" style="fill: #2ca02c; stroke: #2ca02c"/>
     <use xlink:href="#m36c3903ecf" x="577.507816" y="444.702466" style="fill: #2ca02c; stroke: #2ca02c"/>
     <use xlink:href="#m36c3903ecf" x="591.048429" y="444.702469" style="fill: #2ca02c; stroke: #2ca02c"/>
     <use xlink:href="#m36c3903ecf" x="604.589042" y="444.702472" style="fill: #2ca02c; stroke: #2ca02c"/>
     <use xlink:href="#m36c3903ecf" x="618.129656" y="444.702474" style="fill: #2ca02c; stroke: #2ca02c"/>
     <use xlink:href="#m36c3903ecf" x="631.670269" y="444.702477" style="fill: #2ca02c; stroke: #2ca02c"/>
     <use xlink:href="#m36c3903ecf" x="645.210882" y="444.702479" style="fill: #2ca02c; stroke: #2ca02c"/>
     <use xlink:href="#m36c3903ecf" x="658.751496" y="444.702481" style="fill: #2ca02c; stroke: #2ca02c"/>
     <use xlink:href="#m36c3903ecf" x="672.292109" y="444.702483" style="fill: #2ca02c; stroke: #2ca02c"/>
     <use xlink:href="#m36c3903ecf" x="685.832722" y="444.702485" style="fill: #2ca02c; stroke: #2ca02c"/>
     <use xlink:href="#m36c3903ecf" x="699.373335" y="444.702487" style="fill: #2ca02c; stroke: #2ca02c"/>
     <use xlink:href="#m36c3903ecf" x="712.913949" y="444.702488" style="fill: #2ca02c; stroke: #2ca02c"/>
     <use xlink:href="#m36c3903ecf" x="726.454562" y="444.70249" style="fill: #2ca02c; stroke: #2ca02c"/>
     <use xlink:href="#m36c3903ecf" x="739.995175" y="444.702492" style="fill: #2ca02c; stroke: #2ca02c"/>
     <use xlink:href="#m36c3903ecf" x="753.535789" y="444.702493" style="fill: #2ca02c; stroke: #2ca02c"/>
     <use xlink:href="#m36c3903ecf" x="767.076402" y="444.702494" style="fill: #2ca02c; stroke: #2ca02c"/>
     <use xlink:href="#m36c3903ecf" x="780.617015" y="444.702496" style="fill: #2ca02c; stroke: #2ca02c"/>
     <use xlink:href="#m36c3903ecf" x="793.819113" y="444.702497" style="fill: #2ca02c; stroke: #2ca02c"/>
    </g>
   </g>
   <g id="line2d_37">
    <path d="M 130.667577 465.709722 
L 144.20819 465.288657 
L 157.748803 463.077574 
L 171.289417 465.903943 
L 184.83003 463.666609 
L 198.370643 466.304382 
L 211.911257 462.018404 
L 225.45187 463.863659 
L 238.992483 465.545478 
L 252.533097 463.881221 
L 266.07371 462.556293 
L 279.614323 462.726038 
L 293.154936 461.966737 
L 306.69555 463.280905 
L 320.236163 461.737344 
L 333.776776 463.886178 
L 347.31739 462.732823 
L 360.858003 461.497982 
L 374.398616 463.774927 
L 387.93923 463.787963 
L 401.479843 462.020309 
L 415.020456 461.680182 
L 428.561069 463.442959 
L 442.101683 463.313034 
L 455.642296 462.23998 
L 469.182909 461.868542 
L 482.723523 463.197585 
L 496.264136 464.041311 
L 509.804749 460.998427 
L 523.345363 462.630063 
L 536.885976 463.954527 
L 550.426589 461.967905 
L 563.967202 463.104693 
L 577.507816 462.446867 
L 591.048429 460.893593 
L 604.589042 463.75043 
L 618.129656 463.769072 
L 631.670269 464.460961 
L 645.210882 462.877346 
L 658.751496 463.948069 
L 672.292109 462.583256 
L 685.832722 462.885995 
L 699.373335 467.136791 
L 712.913949 466.907831 
L 726.454562 467.520021 
L 739.995175 466.15878 
L 753.535789 464.9837 
L 767.076402 462.788728 
L 780.617015 465.518129 
L 793.819113 467.257294 
" clip-path="url(#p9902d5dd95)" style="fill: none; stroke-dasharray: 3,4.95; stroke-dashoffset: 0; stroke: #d62728; stroke-width: 3"/>
    <defs>
     <path id="m2f7eccd6a8" d="M 0 3 
C 0.795609 3 1.55874 2.683901 2.12132 2.12132 
C 2.683901 1.55874 3 0.795609 3 0 
C 3 -0.795609 2.683901 -1.55874 2.12132 -2.12132 
C 1.55874 -2.683901 0.795609 -3 0 -3 
C -0.795609 -3 -1.55874 -2.683901 -2.12132 -2.12132 
C -2.683901 -1.55874 -3 -0.795609 -3 0 
C -3 0.795609 -2.683901 1.55874 -2.12132 2.12132 
C -1.55874 2.683901 -0.795609 3 0 3 
z
" style="stroke: #d62728"/>
    </defs>
    <g clip-path="url(#p9902d5dd95)">
     <use xlink:href="#m2f7eccd6a8" x="130.667577" y="465.709722" style="fill: #d62728; stroke: #d62728"/>
     <use xlink:href="#m2f7eccd6a8" x="144.20819" y="465.288657" style="fill: #d62728; stroke: #d62728"/>
     <use xlink:href="#m2f7eccd6a8" x="157.748803" y="463.077574" style="fill: #d62728; stroke: #d62728"/>
     <use xlink:href="#m2f7eccd6a8" x="171.289417" y="465.903943" style="fill: #d62728; stroke: #d62728"/>
     <use xlink:href="#m2f7eccd6a8" x="184.83003" y="463.666609" style="fill: #d62728; stroke: #d62728"/>
     <use xlink:href="#m2f7eccd6a8" x="198.370643" y="466.304382" style="fill: #d62728; stroke: #d62728"/>
     <use xlink:href="#m2f7eccd6a8" x="211.911257" y="462.018404" style="fill: #d62728; stroke: #d62728"/>
     <use xlink:href="#m2f7eccd6a8" x="225.45187" y="463.863659" style="fill: #d62728; stroke: #d62728"/>
     <use xlink:href="#m2f7eccd6a8" x="238.992483" y="465.545478" style="fill: #d62728; stroke: #d62728"/>
     <use xlink:href="#m2f7eccd6a8" x="252.533097" y="463.881221" style="fill: #d62728; stroke: #d62728"/>
     <use xlink:href="#m2f7eccd6a8" x="266.07371" y="462.556293" style="fill: #d62728; stroke: #d62728"/>
     <use xlink:href="#m2f7eccd6a8" x="279.614323" y="462.726038" style="fill: #d62728; stroke: #d62728"/>
     <use xlink:href="#m2f7eccd6a8" x="293.154936" y="461.966737" style="fill: #d62728; stroke: #d62728"/>
     <use xlink:href="#m2f7eccd6a8" x="306.69555" y="463.280905" style="fill: #d62728; stroke: #d62728"/>
     <use xlink:href="#m2f7eccd6a8" x="320.236163" y="461.737344" style="fill: #d62728; stroke: #d62728"/>
     <use xlink:href="#m2f7eccd6a8" x="333.776776" y="463.886178" style="fill: #d62728; stroke: #d62728"/>
     <use xlink:href="#m2f7eccd6a8" x="347.31739" y="462.732823" style="fill: #d62728; stroke: #d62728"/>
     <use xlink:href="#m2f7eccd6a8" x="360.858003" y="461.497982" style="fill: #d62728; stroke: #d62728"/>
     <use xlink:href="#m2f7eccd6a8" x="374.398616" y="463.774927" style="fill: #d62728; stroke: #d62728"/>
     <use xlink:href="#m2f7eccd6a8" x="387.93923" y="463.787963" style="fill: #d62728; stroke: #d62728"/>
     <use xlink:href="#m2f7eccd6a8" x="401.479843" y="462.020309" style="fill: #d62728; stroke: #d62728"/>
     <use xlink:href="#m2f7eccd6a8" x="415.020456" y="461.680182" style="fill: #d62728; stroke: #d62728"/>
     <use xlink:href="#m2f7eccd6a8" x="428.561069" y="463.442959" style="fill: #d62728; stroke: #d62728"/>
     <use xlink:href="#m2f7eccd6a8" x="442.101683" y="463.313034" style="fill: #d62728; stroke: #d62728"/>
     <use xlink:href="#m2f7eccd6a8" x="455.642296" y="462.23998" style="fill: #d62728; stroke: #d62728"/>
     <use xlink:href="#m2f7eccd6a8" x="469.182909" y="461.868542" style="fill: #d62728; stroke: #d62728"/>
     <use xlink:href="#m2f7eccd6a8" x="482.723523" y="463.197585" style="fill: #d62728; stroke: #d62728"/>
     <use xlink:href="#m2f7eccd6a8" x="496.264136" y="464.041311" style="fill: #d62728; stroke: #d62728"/>
     <use xlink:href="#m2f7eccd6a8" x="509.804749" y="460.998427" style="fill: #d62728; stroke: #d62728"/>
     <use xlink:href="#m2f7eccd6a8" x="523.345363" y="462.630063" style="fill: #d62728; stroke: #d62728"/>
     <use xlink:href="#m2f7eccd6a8" x="536.885976" y="463.954527" style="fill: #d62728; stroke: #d62728"/>
     <use xlink:href="#m2f7eccd6a8" x="550.426589" y="461.967905" style="fill: #d62728; stroke: #d62728"/>
     <use xlink:href="#m2f7eccd6a8" x="563.967202" y="463.104693" style="fill: #d62728; stroke: #d62728"/>
     <use xlink:href="#m2f7eccd6a8" x="577.507816" y="462.446867" style="fill: #d62728; stroke: #d62728"/>
     <use xlink:href="#m2f7eccd6a8" x="591.048429" y="460.893593" style="fill: #d62728; stroke: #d62728"/>
     <use xlink:href="#m2f7eccd6a8" x="604.589042" y="463.75043" style="fill: #d62728; stroke: #d62728"/>
     <use xlink:href="#m2f7eccd6a8" x="618.129656" y="463.769072" style="fill: #d62728; stroke: #d62728"/>
     <use xlink:href="#m2f7eccd6a8" x="631.670269" y="464.460961" style="fill: #d62728; stroke: #d62728"/>
     <use xlink:href="#m2f7eccd6a8" x="645.210882" y="462.877346" style="fill: #d62728; stroke: #d62728"/>
     <use xlink:href="#m2f7eccd6a8" x="658.751496" y="463.948069" style="fill: #d62728; stroke: #d62728"/>
     <use xlink:href="#m2f7eccd6a8" x="672.292109" y="462.583256" style="fill: #d62728; stroke: #d62728"/>
     <use xlink:href="#m2f7eccd6a8" x="685.832722" y="462.885995" style="fill: #d62728; stroke: #d62728"/>
     <use xlink:href="#m2f7eccd6a8" x="699.373335" y="467.136791" style="fill: #d62728; stroke: #d62728"/>
     <use xlink:href="#m2f7eccd6a8" x="712.913949" y="466.907831" style="fill: #d62728; stroke: #d62728"/>
     <use xlink:href="#m2f7eccd6a8" x="726.454562" y="467.520021" style="fill: #d62728; stroke: #d62728"/>
     <use xlink:href="#m2f7eccd6a8" x="739.995175" y="466.15878" style="fill: #d62728; stroke: #d62728"/>
     <use xlink:href="#m2f7eccd6a8" x="753.535789" y="464.9837" style="fill: #d62728; stroke: #d62728"/>
     <use xlink:href="#m2f7eccd6a8" x="767.076402" y="462.788728" style="fill: #d62728; stroke: #d62728"/>
     <use xlink:href="#m2f7eccd6a8" x="780.617015" y="465.518129" style="fill: #d62728; stroke: #d62728"/>
     <use xlink:href="#m2f7eccd6a8" x="793.819113" y="467.257294" style="fill: #d62728; stroke: #d62728"/>
    </g>
   </g>
   <g id="line2d_38">
    <path d="M 130.667577 384.726074 
L 144.20819 376.797447 
L 157.748803 367.696446 
L 171.289417 356.982845 
L 184.83003 343.935221 
L 198.370643 327.258254 
L 211.911257 304.272844 
L 225.45187 268.029324 
L 238.992483 189.052108 
L 252.533097 49.041477 
L 266.07371 252.15881 
L 279.614323 308.123007 
L 293.154936 340.485104 
L 306.69555 363.326757 
L 320.236163 381.093524 
L 333.776776 395.844352 
L 347.31739 408.841468 
L 360.858003 420.294868 
L 374.398616 430.80827 
L 387.93923 440.819243 
L 401.479843 450.185848 
L 415.020456 459.23546 
L 428.561069 468.10955 
L 442.101683 468.271023 
L 455.642296 459.393866 
L 469.182909 450.346881 
L 482.723523 440.989884 
L 496.264136 430.989262 
L 509.804749 420.487457 
L 523.345363 409.055216 
L 536.885976 396.113361 
L 550.426589 381.377811 
L 563.967202 363.739262 
L 577.507816 340.933505 
L 591.048429 308.816192 
L 604.589042 253.680905 
L 618.129656 70.150067 
L 631.670269 255.391771 
L 645.210882 366.404426 
L 658.751496 428.687053 
L 672.292109 459.260514 
L 685.832722 408.627532 
L 699.373335 335.999477 
L 712.913949 163.111999 
L 726.454562 239.134488 
L 739.995175 365.377186 
L 753.535789 442.268917 
L 767.076402 438.904992 
L 780.617015 363.351754 
L 793.819113 223.829389 
" clip-path="url(#p9902d5dd95)" style="fill: none; stroke: #000000; stroke-width: 3; stroke-linecap: square"/>
    <defs>
     <path id="m228a7358aa" d="M 0 3 
C 0.795609 3 1.55874 2.683901 2.12132 2.12132 
C 2.683901 1.55874 3 0.795609 3 0 
C 3 -0.795609 2.683901 -1.55874 2.12132 -2.12132 
C 1.55874 -2.683901 0.795609 -3 0 -3 
C -0.795609 -3 -1.55874 -2.683901 -2.12132 -2.12132 
C -2.683901 -1.55874 -3 -0.795609 -3 0 
C -3 0.795609 -2.683901 1.55874 -2.12132 2.12132 
C -1.55874 2.683901 -0.795609 3 0 3 
z
" style="stroke: #000000"/>
    </defs>
    <g clip-path="url(#p9902d5dd95)">
     <use xlink:href="#m228a7358aa" x="130.667577" y="384.726074" style="stroke: #000000"/>
     <use xlink:href="#m228a7358aa" x="144.20819" y="376.797447" style="stroke: #000000"/>
     <use xlink:href="#m228a7358aa" x="157.748803" y="367.696446" style="stroke: #000000"/>
     <use xlink:href="#m228a7358aa" x="171.289417" y="356.982845" style="stroke: #000000"/>
     <use xlink:href="#m228a7358aa" x="184.83003" y="343.935221" style="stroke: #000000"/>
     <use xlink:href="#m228a7358aa" x="198.370643" y="327.258254" style="stroke: #000000"/>
     <use xlink:href="#m228a7358aa" x="211.911257" y="304.272844" style="stroke: #000000"/>
     <use xlink:href="#m228a7358aa" x="225.45187" y="268.029324" style="stroke: #000000"/>
     <use xlink:href="#m228a7358aa" x="238.992483" y="189.052108" style="stroke: #000000"/>
     <use xlink:href="#m228a7358aa" x="252.533097" y="49.041477" style="stroke: #000000"/>
     <use xlink:href="#m228a7358aa" x="266.07371" y="252.15881" style="stroke: #000000"/>
     <use xlink:href="#m228a7358aa" x="279.614323" y="308.123007" style="stroke: #000000"/>
     <use xlink:href="#m228a7358aa" x="293.154936" y="340.485104" style="stroke: #000000"/>
     <use xlink:href="#m228a7358aa" x="306.69555" y="363.326757" style="stroke: #000000"/>
     <use xlink:href="#m228a7358aa" x="320.236163" y="381.093524" style="stroke: #000000"/>
     <use xlink:href="#m228a7358aa" x="333.776776" y="395.844352" style="stroke: #000000"/>
     <use xlink:href="#m228a7358aa" x="347.31739" y="408.841468" style="stroke: #000000"/>
     <use xlink:href="#m228a7358aa" x="360.858003" y="420.294868" style="stroke: #000000"/>
     <use xlink:href="#m228a7358aa" x="374.398616" y="430.80827" style="stroke: #000000"/>
     <use xlink:href="#m228a7358aa" x="387.93923" y="440.819243" style="stroke: #000000"/>
     <use xlink:href="#m228a7358aa" x="401.479843" y="450.185848" style="stroke: #000000"/>
     <use xlink:href="#m228a7358aa" x="415.020456" y="459.23546" style="stroke: #000000"/>
     <use xlink:href="#m228a7358aa" x="428.561069" y="468.10955" style="stroke: #000000"/>
     <use xlink:href="#m228a7358aa" x="442.101683" y="468.271023" style="stroke: #000000"/>
     <use xlink:href="#m228a7358aa" x="455.642296" y="459.393866" style="stroke: #000000"/>
     <use xlink:href="#m228a7358aa" x="469.182909" y="450.346881" style="stroke: #000000"/>
     <use xlink:href="#m228a7358aa" x="482.723523" y="440.989884" style="stroke: #000000"/>
     <use xlink:href="#m228a7358aa" x="496.264136" y="430.989262" style="stroke: #000000"/>
     <use xlink:href="#m228a7358aa" x="509.804749" y="420.487457" style="stroke: #000000"/>
     <use xlink:href="#m228a7358aa" x="523.345363" y="409.055216" style="stroke: #000000"/>
     <use xlink:href="#m228a7358aa" x="536.885976" y="396.113361" style="stroke: #000000"/>
     <use xlink:href="#m228a7358aa" x="550.426589" y="381.377811" style="stroke: #000000"/>
     <use xlink:href="#m228a7358aa" x="563.967202" y="363.739262" style="stroke: #000000"/>
     <use xlink:href="#m228a7358aa" x="577.507816" y="340.933505" style="stroke: #000000"/>
     <use xlink:href="#m228a7358aa" x="591.048429" y="308.816192" style="stroke: #000000"/>
     <use xlink:href="#m228a7358aa" x="604.589042" y="253.680905" style="stroke: #000000"/>
     <use xlink:href="#m228a7358aa" x="618.129656" y="70.150067" style="stroke: #000000"/>
     <use xlink:href="#m228a7358aa" x="631.670269" y="255.391771" style="stroke: #000000"/>
     <use xlink:href="#m228a7358aa" x="645.210882" y="366.404426" style="stroke: #000000"/>
     <use xlink:href="#m228a7358aa" x="658.751496" y="428.687053" style="stroke: #000000"/>
     <use xlink:href="#m228a7358aa" x="672.292109" y="459.260514" style="stroke: #000000"/>
     <use xlink:href="#m228a7358aa" x="685.832722" y="408.627532" style="stroke: #000000"/>
     <use xlink:href="#m228a7358aa" x="699.373335" y="335.999477" style="stroke: #000000"/>
     <use xlink:href="#m228a7358aa" x="712.913949" y="163.111999" style="stroke: #000000"/>
     <use xlink:href="#m228a7358aa" x="726.454562" y="239.134488" style="stroke: #000000"/>
     <use xlink:href="#m228a7358aa" x="739.995175" y="365.377186" style="stroke: #000000"/>
     <use xlink:href="#m228a7358aa" x="753.535789" y="442.268917" style="stroke: #000000"/>
     <use xlink:href="#m228a7358aa" x="767.076402" y="438.904992" style="stroke: #000000"/>
     <use xlink:href="#m228a7358aa" x="780.617015" y="363.351754" style="stroke: #000000"/>
     <use xlink:href="#m228a7358aa" x="793.819113" y="223.829389" style="stroke: #000000"/>
    </g>
   </g>
   <g id="patch_3">
    <path d="M 97.51 489.2325 
L 97.51 28.08 
" style="fill: none; stroke: #000000; stroke-width: 2; stroke-linejoin: miter; stroke-linecap: square"/>
   </g>
   <g id="patch_4">
    <path d="M 826.97669 489.2325 
L 826.97669 28.08 
" style="fill: none; stroke: #000000; stroke-width: 2; stroke-linejoin: miter; stroke-linecap: square"/>
   </g>
   <g id="patch_5">
    <path d="M 97.51 489.2325 
L 826.97669 489.2325 
" style="fill: none; stroke: #000000; stroke-width: 2; stroke-linejoin: miter; stroke-linecap: square"/>
   </g>
   <g id="patch_6">
    <path d="M 97.51 28.08 
L 826.97669 28.08 
" style="fill: none; stroke: #000000; stroke-width: 2; stroke-linejoin: miter; stroke-linecap: square"/>
   </g>
   <g id="legend_1">
    <g id="patch_7">
     <path d="M 677.27919 158.305 
L 815.77669 158.305 
Q 818.97669 158.305 818.97669 155.105 
L 818.97669 39.28 
Q 818.97669 36.08 815.77669 36.08 
L 677.27919 36.08 
Q 674.07919 36.08 674.07919 39.28 
L 674.07919 155.105 
Q 674.07919 158.305 677.27919 158.305 
z
" style="fill: #ffffff; opacity: 0.8; stroke: #cccccc; stroke-linejoin: miter"/>
    </g>
    <g id="line2d_39">
     <path d="M 680.47919 49.0375 
L 696.47919 49.0375 
L 712.47919 49.0375 
" style="fill: none; stroke: #1f77b4; stroke-width: 3; stroke-linecap: square"/>
     <g>
      <use xlink:href="#m03f6af3a1e" x="696.47919" y="49.0375" style="fill: #1f77b4; stroke: #1f77b4"/>
     </g>
    </g>
    <g id="text_14">
     <!-- Electron 1 -->
     <g transform="translate(725.27919 54.6375) scale(0.16 -0.16)">
      <defs>
       <path id="DejaVuSerif-45" d="M 353 0 
L 353 331 
L 947 331 
L 947 4331 
L 353 4331 
L 353 4666 
L 4109 4666 
L 4109 3628 
L 3725 3628 
L 3725 4281 
L 1581 4281 
L 1581 2719 
L 3109 2719 
L 3109 3303 
L 3494 3303 
L 3494 1753 
L 3109 1753 
L 3109 2338 
L 1581 2338 
L 1581 384 
L 3775 384 
L 3775 1038 
L 4159 1038 
L 4159 0 
L 353 0 
z
" transform="scale(0.015625)"/>
       <path id="DejaVuSerif-6c" d="M 1313 331 
L 1856 331 
L 1856 0 
L 184 0 
L 184 331 
L 738 331 
L 738 4531 
L 184 4531 
L 184 4863 
L 1313 4863 
L 1313 331 
z
" transform="scale(0.015625)"/>
       <path id="DejaVuSerif-65" d="M 3469 1600 
L 991 1600 
L 991 1575 
Q 991 903 1244 561 
Q 1497 219 1991 219 
Q 2369 219 2611 417 
Q 2853 616 2950 1006 
L 3413 1006 
Q 3275 459 2904 184 
Q 2534 -91 1931 -91 
Q 1203 -91 761 389 
Q 319 869 319 1663 
Q 319 2450 753 2931 
Q 1188 3413 1894 3413 
Q 2647 3413 3050 2948 
Q 3453 2484 3469 1600 
z
M 2791 1931 
Q 2772 2513 2545 2808 
Q 2319 3103 1894 3103 
Q 1497 3103 1269 2806 
Q 1041 2509 991 1931 
L 2791 1931 
z
" transform="scale(0.015625)"/>
       <path id="DejaVuSerif-63" d="M 3291 997 
Q 3169 466 2822 187 
Q 2475 -91 1925 -91 
Q 1200 -91 759 389 
Q 319 869 319 1663 
Q 319 2459 759 2936 
Q 1200 3413 1925 3413 
Q 2241 3413 2553 3339 
Q 2866 3266 3181 3116 
L 3181 2266 
L 2847 2266 
Q 2781 2703 2561 2903 
Q 2341 3103 1931 3103 
Q 1466 3103 1228 2742 
Q 991 2381 991 1663 
Q 991 944 1227 581 
Q 1463 219 1931 219 
Q 2303 219 2525 412 
Q 2747 606 2828 997 
L 3291 997 
z
" transform="scale(0.015625)"/>
       <path id="DejaVuSerif-74" d="M 691 2988 
L 184 2988 
L 184 3322 
L 691 3322 
L 691 4353 
L 1269 4353 
L 1269 3322 
L 2350 3322 
L 2350 2988 
L 1269 2988 
L 1269 878 
Q 1269 456 1350 337 
Q 1431 219 1650 219 
Q 1875 219 1978 351 
Q 2081 484 2088 781 
L 2522 781 
Q 2497 328 2275 118 
Q 2053 -91 1600 -91 
Q 1103 -91 897 129 
Q 691 350 691 878 
L 691 2988 
z
" transform="scale(0.015625)"/>
       <path id="DejaVuSerif-72" d="M 3059 3328 
L 3059 2497 
L 2728 2497 
Q 2713 2744 2591 2866 
Q 2469 2988 2234 2988 
Q 1809 2988 1582 2694 
Q 1356 2400 1356 1850 
L 1356 331 
L 2022 331 
L 2022 0 
L 263 0 
L 263 331 
L 781 331 
L 781 2994 
L 231 2994 
L 231 3322 
L 1356 3322 
L 1356 2731 
Q 1525 3078 1790 3245 
Q 2056 3413 2438 3413 
Q 2578 3413 2733 3391 
Q 2888 3369 3059 3328 
z
" transform="scale(0.015625)"/>
       <path id="DejaVuSerif-6f" d="M 1925 219 
Q 2388 219 2623 584 
Q 2859 950 2859 1663 
Q 2859 2375 2623 2739 
Q 2388 3103 1925 3103 
Q 1463 3103 1227 2739 
Q 991 2375 991 1663 
Q 991 950 1228 584 
Q 1466 219 1925 219 
z
M 1925 -91 
Q 1200 -91 759 389 
Q 319 869 319 1663 
Q 319 2456 758 2934 
Q 1197 3413 1925 3413 
Q 2653 3413 3092 2934 
Q 3531 2456 3531 1663 
Q 3531 869 3092 389 
Q 2653 -91 1925 -91 
z
" transform="scale(0.015625)"/>
       <path id="DejaVuSerif-6e" d="M 263 0 
L 263 331 
L 781 331 
L 781 2988 
L 231 2988 
L 231 3322 
L 1356 3322 
L 1356 2731 
Q 1516 3069 1770 3241 
Q 2025 3413 2363 3413 
Q 2913 3413 3172 3097 
Q 3431 2781 3431 2113 
L 3431 331 
L 3944 331 
L 3944 0 
L 2356 0 
L 2356 331 
L 2853 331 
L 2853 1931 
Q 2853 2541 2703 2767 
Q 2553 2994 2175 2994 
Q 1775 2994 1565 2701 
Q 1356 2409 1356 1850 
L 1356 331 
L 1856 331 
L 1856 0 
L 263 0 
z
" transform="scale(0.015625)"/>
      </defs>
      <use xlink:href="#DejaVuSerif-45"/>
      <use xlink:href="#DejaVuSerif-6c" x="72.998047"/>
      <use xlink:href="#DejaVuSerif-65" x="104.980469"/>
      <use xlink:href="#DejaVuSerif-63" x="164.160156"/>
      <use xlink:href="#DejaVuSerif-74" x="220.166016"/>
      <use xlink:href="#DejaVuSerif-72" x="260.351562"/>
      <use xlink:href="#DejaVuSerif-6f" x="308.154297"/>
      <use xlink:href="#DejaVuSerif-6e" x="368.359375"/>
      <use xlink:href="#DejaVuSerif-20" x="432.763672"/>
      <use xlink:href="#DejaVuSerif-31" x="464.550781"/>
     </g>
    </g>
    <g id="line2d_40">
     <path d="M 680.47919 72.5225 
L 696.47919 72.5225 
L 712.47919 72.5225 
" style="fill: none; stroke-dasharray: 11.1,4.8; stroke-dashoffset: 0; stroke: #ff7f0e; stroke-width: 3"/>
     <g>
      <use xlink:href="#m7f17fab052" x="696.47919" y="72.5225" style="fill: #ff7f0e; stroke: #ff7f0e"/>
     </g>
    </g>
    <g id="text_15">
     <!-- Electron 2 -->
     <g transform="translate(725.27919 78.1225) scale(0.16 -0.16)">
      <use xlink:href="#DejaVuSerif-45"/>
      <use xlink:href="#DejaVuSerif-6c" x="72.998047"/>
      <use xlink:href="#DejaVuSerif-65" x="104.980469"/>
      <use xlink:href="#DejaVuSerif-63" x="164.160156"/>
      <use xlink:href="#DejaVuSerif-74" x="220.166016"/>
      <use xlink:href="#DejaVuSerif-72" x="260.351562"/>
      <use xlink:href="#DejaVuSerif-6f" x="308.154297"/>
      <use xlink:href="#DejaVuSerif-6e" x="368.359375"/>
      <use xlink:href="#DejaVuSerif-20" x="432.763672"/>
      <use xlink:href="#DejaVuSerif-32" x="464.550781"/>
     </g>
    </g>
    <g id="line2d_41">
     <path d="M 680.47919 96.0075 
L 696.47919 96.0075 
L 712.47919 96.0075 
" style="fill: none; stroke-dasharray: 19.2,4.8,3,4.8; stroke-dashoffset: 0; stroke: #2ca02c; stroke-width: 3"/>
     <g>
      <use xlink:href="#m36c3903ecf" x="696.47919" y="96.0075" style="fill: #2ca02c; stroke: #2ca02c"/>
     </g>
    </g>
    <g id="text_16">
     <!-- Electron 3 -->
     <g transform="translate(725.27919 101.6075) scale(0.16 -0.16)">
      <defs>
       <path id="DejaVuSerif-33" d="M 622 4469 
Q 988 4606 1323 4678 
Q 1659 4750 1953 4750 
Q 2638 4750 3022 4454 
Q 3406 4159 3406 3634 
Q 3406 3213 3140 2930 
Q 2875 2647 2388 2547 
Q 2963 2466 3280 2130 
Q 3597 1794 3597 1259 
Q 3597 606 3158 257 
Q 2719 -91 1894 -91 
Q 1528 -91 1179 -12 
Q 831 66 488 225 
L 488 1131 
L 838 1131 
Q 869 681 1141 450 
Q 1413 219 1906 219 
Q 2384 219 2661 495 
Q 2938 772 2938 1253 
Q 2938 1803 2653 2086 
Q 2369 2369 1819 2369 
L 1522 2369 
L 1522 2688 
L 1678 2688 
Q 2225 2688 2498 2914 
Q 2772 3141 2772 3597 
Q 2772 4006 2547 4223 
Q 2322 4441 1900 4441 
Q 1478 4441 1245 4241 
Q 1013 4041 972 3647 
L 622 3647 
L 622 4469 
z
" transform="scale(0.015625)"/>
      </defs>
      <use xlink:href="#DejaVuSerif-45"/>
      <use xlink:href="#DejaVuSerif-6c" x="72.998047"/>
      <use xlink:href="#DejaVuSerif-65" x="104.980469"/>
      <use xlink:href="#DejaVuSerif-63" x="164.160156"/>
      <use xlink:href="#DejaVuSerif-74" x="220.166016"/>
      <use xlink:href="#DejaVuSerif-72" x="260.351562"/>
      <use xlink:href="#DejaVuSerif-6f" x="308.154297"/>
      <use xlink:href="#DejaVuSerif-6e" x="368.359375"/>
      <use xlink:href="#DejaVuSerif-20" x="432.763672"/>
      <use xlink:href="#DejaVuSerif-33" x="464.550781"/>
     </g>
    </g>
    <g id="line2d_42">
     <path d="M 680.47919 119.4925 
L 696.47919 119.4925 
L 712.47919 119.4925 
" style="fill: none; stroke-dasharray: 3,4.95; stroke-dashoffset: 0; stroke: #d62728; stroke-width: 3"/>
     <g>
      <use xlink:href="#m2f7eccd6a8" x="696.47919" y="119.4925" style="fill: #d62728; stroke: #d62728"/>
     </g>
    </g>
    <g id="text_17">
     <!-- Electron 4 -->
     <g transform="translate(725.27919 125.0925) scale(0.16 -0.16)">
      <use xlink:href="#DejaVuSerif-45"/>
      <use xlink:href="#DejaVuSerif-6c" x="72.998047"/>
      <use xlink:href="#DejaVuSerif-65" x="104.980469"/>
      <use xlink:href="#DejaVuSerif-63" x="164.160156"/>
      <use xlink:href="#DejaVuSerif-74" x="220.166016"/>
      <use xlink:href="#DejaVuSerif-72" x="260.351562"/>
      <use xlink:href="#DejaVuSerif-6f" x="308.154297"/>
      <use xlink:href="#DejaVuSerif-6e" x="368.359375"/>
      <use xlink:href="#DejaVuSerif-20" x="432.763672"/>
      <use xlink:href="#DejaVuSerif-34" x="464.550781"/>
     </g>
    </g>
    <g id="line2d_43">
     <path d="M 680.47919 142.9775 
L 696.47919 142.9775 
L 712.47919 142.9775 
" style="fill: none; stroke: #000000; stroke-width: 3; stroke-linecap: square"/>
     <g>
      <use xlink:href="#m228a7358aa" x="696.47919" y="142.9775" style="stroke: #000000"/>
     </g>
    </g>
    <g id="text_18">
     <!-- Antiproton -->
     <g transform="translate(725.27919 148.5775) scale(0.16 -0.16)">
      <defs>
       <path id="DejaVuSerif-41" d="M 1281 1691 
L 2994 1691 
L 2138 3909 
L 1281 1691 
z
M -38 0 
L -38 331 
L 372 331 
L 2034 4666 
L 2559 4666 
L 4225 331 
L 4684 331 
L 4684 0 
L 2988 0 
L 2988 331 
L 3506 331 
L 3116 1356 
L 1153 1356 
L 763 331 
L 1275 331 
L 1275 0 
L -38 0 
z
" transform="scale(0.015625)"/>
       <path id="DejaVuSerif-69" d="M 622 4353 
Q 622 4497 726 4603 
Q 831 4709 978 4709 
Q 1122 4709 1226 4603 
Q 1331 4497 1331 4353 
Q 1331 4206 1228 4103 
Q 1125 4000 978 4000 
Q 831 4000 726 4103 
Q 622 4206 622 4353 
z
M 1356 331 
L 1900 331 
L 1900 0 
L 231 0 
L 231 331 
L 781 331 
L 781 2988 
L 231 2988 
L 231 3322 
L 1356 3322 
L 1356 331 
z
" transform="scale(0.015625)"/>
       <path id="DejaVuSerif-70" d="M 1313 1825 
L 1313 1497 
Q 1313 897 1542 583 
Q 1772 269 2209 269 
Q 2650 269 2876 622 
Q 3103 975 3103 1663 
Q 3103 2353 2876 2703 
Q 2650 3053 2209 3053 
Q 1772 3053 1542 2737 
Q 1313 2422 1313 1825 
z
M 738 2988 
L 184 2988 
L 184 3322 
L 1313 3322 
L 1313 2803 
Q 1481 3116 1742 3264 
Q 2003 3413 2388 3413 
Q 3000 3413 3387 2928 
Q 3775 2444 3775 1663 
Q 3775 881 3387 395 
Q 3000 -91 2388 -91 
Q 2003 -91 1742 57 
Q 1481 206 1313 519 
L 1313 -997 
L 1856 -997 
L 1856 -1331 
L 184 -1331 
L 184 -997 
L 738 -997 
L 738 2988 
z
" transform="scale(0.015625)"/>
      </defs>
      <use xlink:href="#DejaVuSerif-41"/>
      <use xlink:href="#DejaVuSerif-6e" x="72.216797"/>
      <use xlink:href="#DejaVuSerif-74" x="136.621094"/>
      <use xlink:href="#DejaVuSerif-69" x="176.806641"/>
      <use xlink:href="#DejaVuSerif-70" x="208.789062"/>
      <use xlink:href="#DejaVuSerif-72" x="272.802734"/>
      <use xlink:href="#DejaVuSerif-6f" x="320.605469"/>
      <use xlink:href="#DejaVuSerif-74" x="380.810547"/>
      <use xlink:href="#DejaVuSerif-6f" x="420.996094"/>
      <use xlink:href="#DejaVuSerif-6e" x="481.201172"/>
     </g>
    </g>
   </g>
  </g>
 </g>
 <defs>
  <clipPath id="p9902d5dd95">
   <rect x="97.51" y="28.08" width="729.46669" height="461.1525"/>
  </clipPath>
 </defs>
</svg>
