<?xml version="1.0" encoding="utf-8" standalone="no"?>
<!DOCTYPE svg PUBLIC "-//W3C//DTD SVG 1.1//EN"
  "http://www.w3.org/Graphics/SVG/1.1/DTD/svg11.dtd">
<svg xmlns:xlink="http://www.w3.org/1999/xlink" width="864pt" height="576pt" viewBox="0 0 864 576" xmlns="http://www.w3.org/2000/svg" version="1.1">
 <metadata>
  <rdf:RDF xmlns:dc="http://purl.org/dc/elements/1.1/" xmlns:cc="http://creativecommons.org/ns#" xmlns:rdf="http://www.w3.org/1999/02/22-rdf-syntax-ns#">
   <cc:Work>
    <dc:type rdf:resource="http://purl.org/dc/dcmitype/StillImage"/>
    <dc:date>2025-06-12T16:14:29.979569</dc:date>
    <dc:format>image/svg+xml</dc:format>
    <dc:creator>
     <cc:Agent>
      <dc:title>Matplotlib v3.7.2, https://matplotlib.org/</dc:title>
     </cc:Agent>
    </dc:creator>
   </cc:Work>
  </rdf:RDF>
 </metadata>
 <defs>
  <style type="text/css">*{stroke-linejoin: round; stroke-linecap: butt}</style>
 </defs>
 <g id="figure_1">
  <g id="patch_1">
   <path d="M 0 576 
L 864 576 
L 864 0 
L 0 0 
z
" style="fill: #ffffff"/>
  </g>
  <g id="axes_1">
   <g id="patch_2">
    <path d="M 147.28 489.2325 
L 826.97669 489.2325 
L 826.97669 28.08 
L 147.28 28.08 
z
" style="fill: #ffffff"/>
   </g>
   <g id="matplotlib.axis_1">
    <g id="xtick_1">
     <g id="line2d_1">
      <path d="M 172.182341 489.2325 
L 172.182341 28.08 
" clip-path="url(#pa6da856b45)" style="fill: none; stroke-dasharray: 3.7,1.6; stroke-dashoffset: 0; stroke: #b0b0b0; stroke-opacity: 0.5"/>
     </g>
     <g id="line2d_2">
      <defs>
       <path id="m7577814ca3" d="M 0 0 
L 0 -10 
" style="stroke: #000000; stroke-width: 2"/>
      </defs>
      <g>
       <use xlink:href="#m7577814ca3" x="172.182341" y="489.2325" style="stroke: #000000; stroke-width: 2"/>
      </g>
     </g>
     <g id="line2d_3">
      <defs>
       <path id="m7a3494ac6c" d="M 0 0 
L 0 10 
" style="stroke: #000000; stroke-width: 2"/>
      </defs>
      <g>
       <use xlink:href="#m7a3494ac6c" x="172.182341" y="28.08" style="stroke: #000000; stroke-width: 2"/>
      </g>
     </g>
     <g id="text_1">
      <!-- 0 -->
      <g transform="translate(163.911091 512.488438) scale(0.26 -0.26)">
       <defs>
        <path id="DejaVuSerif-30" d="M 2034 219 
Q 2513 219 2750 744 
Q 2988 1269 2988 2328 
Q 2988 3391 2750 3916 
Q 2513 4441 2034 4441 
Q 1556 4441 1318 3916 
Q 1081 3391 1081 2328 
Q 1081 1269 1318 744 
Q 1556 219 2034 219 
z
M 2034 -91 
Q 1275 -91 848 546 
Q 422 1184 422 2328 
Q 422 3475 848 4112 
Q 1275 4750 2034 4750 
Q 2797 4750 3222 4112 
Q 3647 3475 3647 2328 
Q 3647 1184 3222 546 
Q 2797 -91 2034 -91 
z
" transform="scale(0.015625)"/>
       </defs>
       <use xlink:href="#DejaVuSerif-30"/>
      </g>
     </g>
    </g>
    <g id="xtick_2">
     <g id="line2d_4">
      <path d="M 298.223826 489.2325 
L 298.223826 28.08 
" clip-path="url(#pa6da856b45)" style="fill: none; stroke-dasharray: 3.7,1.6; stroke-dashoffset: 0; stroke: #b0b0b0; stroke-opacity: 0.5"/>
     </g>
     <g id="line2d_5">
      <g>
       <use xlink:href="#m7577814ca3" x="298.223826" y="489.2325" style="stroke: #000000; stroke-width: 2"/>
      </g>
     </g>
     <g id="line2d_6">
      <g>
       <use xlink:href="#m7a3494ac6c" x="298.223826" y="28.08" style="stroke: #000000; stroke-width: 2"/>
      </g>
     </g>
     <g id="text_2">
      <!-- 500 -->
      <g transform="translate(273.410076 512.488438) scale(0.26 -0.26)">
       <defs>
        <path id="DejaVuSerif-35" d="M 3219 4666 
L 3219 4153 
L 1081 4153 
L 1081 2816 
Q 1244 2928 1461 2984 
Q 1678 3041 1947 3041 
Q 2703 3041 3140 2622 
Q 3578 2203 3578 1478 
Q 3578 738 3136 323 
Q 2694 -91 1894 -91 
Q 1572 -91 1234 -12 
Q 897 66 544 225 
L 544 1131 
L 897 1131 
Q 925 688 1179 453 
Q 1434 219 1894 219 
Q 2388 219 2653 544 
Q 2919 869 2919 1478 
Q 2919 2084 2655 2407 
Q 2391 2731 1894 2731 
Q 1613 2731 1398 2631 
Q 1184 2531 1019 2322 
L 750 2322 
L 750 4666 
L 3219 4666 
z
" transform="scale(0.015625)"/>
       </defs>
       <use xlink:href="#DejaVuSerif-35"/>
       <use xlink:href="#DejaVuSerif-30" x="63.623047"/>
       <use xlink:href="#DejaVuSerif-30" x="127.246094"/>
      </g>
     </g>
    </g>
    <g id="xtick_3">
     <g id="line2d_7">
      <path d="M 424.265312 489.2325 
L 424.265312 28.08 
" clip-path="url(#pa6da856b45)" style="fill: none; stroke-dasharray: 3.7,1.6; stroke-dashoffset: 0; stroke: #b0b0b0; stroke-opacity: 0.5"/>
     </g>
     <g id="line2d_8">
      <g>
       <use xlink:href="#m7577814ca3" x="424.265312" y="489.2325" style="stroke: #000000; stroke-width: 2"/>
      </g>
     </g>
     <g id="line2d_9">
      <g>
       <use xlink:href="#m7a3494ac6c" x="424.265312" y="28.08" style="stroke: #000000; stroke-width: 2"/>
      </g>
     </g>
     <g id="text_3">
      <!-- 1000 -->
      <g transform="translate(391.180312 512.488438) scale(0.26 -0.26)">
       <defs>
        <path id="DejaVuSerif-31" d="M 909 0 
L 909 331 
L 1722 331 
L 1722 4213 
L 781 3603 
L 781 4013 
L 1919 4750 
L 2350 4750 
L 2350 331 
L 3163 331 
L 3163 0 
L 909 0 
z
" transform="scale(0.015625)"/>
       </defs>
       <use xlink:href="#DejaVuSerif-31"/>
       <use xlink:href="#DejaVuSerif-30" x="63.623047"/>
       <use xlink:href="#DejaVuSerif-30" x="127.246094"/>
       <use xlink:href="#DejaVuSerif-30" x="190.869141"/>
      </g>
     </g>
    </g>
    <g id="xtick_4">
     <g id="line2d_10">
      <path d="M 550.306797 489.2325 
L 550.306797 28.08 
" clip-path="url(#pa6da856b45)" style="fill: none; stroke-dasharray: 3.7,1.6; stroke-dashoffset: 0; stroke: #b0b0b0; stroke-opacity: 0.5"/>
     </g>
     <g id="line2d_11">
      <g>
       <use xlink:href="#m7577814ca3" x="550.306797" y="489.2325" style="stroke: #000000; stroke-width: 2"/>
      </g>
     </g>
     <g id="line2d_12">
      <g>
       <use xlink:href="#m7a3494ac6c" x="550.306797" y="28.08" style="stroke: #000000; stroke-width: 2"/>
      </g>
     </g>
     <g id="text_4">
      <!-- 1500 -->
      <g transform="translate(517.221797 512.488438) scale(0.26 -0.26)">
       <use xlink:href="#DejaVuSerif-31"/>
       <use xlink:href="#DejaVuSerif-35" x="63.623047"/>
       <use xlink:href="#DejaVuSerif-30" x="127.246094"/>
       <use xlink:href="#DejaVuSerif-30" x="190.869141"/>
      </g>
     </g>
    </g>
    <g id="xtick_5">
     <g id="line2d_13">
      <path d="M 676.348283 489.2325 
L 676.348283 28.08 
" clip-path="url(#pa6da856b45)" style="fill: none; stroke-dasharray: 3.7,1.6; stroke-dashoffset: 0; stroke: #b0b0b0; stroke-opacity: 0.5"/>
     </g>
     <g id="line2d_14">
      <g>
       <use xlink:href="#m7577814ca3" x="676.348283" y="489.2325" style="stroke: #000000; stroke-width: 2"/>
      </g>
     </g>
     <g id="line2d_15">
      <g>
       <use xlink:href="#m7a3494ac6c" x="676.348283" y="28.08" style="stroke: #000000; stroke-width: 2"/>
      </g>
     </g>
     <g id="text_5">
      <!-- 2000 -->
      <g transform="translate(643.263283 512.488438) scale(0.26 -0.26)">
       <defs>
        <path id="DejaVuSerif-32" d="M 819 3553 
L 469 3553 
L 469 4384 
Q 803 4563 1142 4656 
Q 1481 4750 1806 4750 
Q 2534 4750 2956 4397 
Q 3378 4044 3378 3438 
Q 3378 2753 2422 1800 
Q 2347 1728 2309 1691 
L 1131 513 
L 3078 513 
L 3078 1088 
L 3444 1088 
L 3444 0 
L 434 0 
L 434 341 
L 1850 1753 
Q 2319 2222 2519 2614 
Q 2719 3006 2719 3438 
Q 2719 3909 2473 4175 
Q 2228 4441 1797 4441 
Q 1350 4441 1106 4219 
Q 863 3997 819 3553 
z
" transform="scale(0.015625)"/>
       </defs>
       <use xlink:href="#DejaVuSerif-32"/>
       <use xlink:href="#DejaVuSerif-30" x="63.623047"/>
       <use xlink:href="#DejaVuSerif-30" x="127.246094"/>
       <use xlink:href="#DejaVuSerif-30" x="190.869141"/>
      </g>
     </g>
    </g>
    <g id="xtick_6">
     <g id="line2d_16">
      <path d="M 802.389769 489.2325 
L 802.389769 28.08 
" clip-path="url(#pa6da856b45)" style="fill: none; stroke-dasharray: 3.7,1.6; stroke-dashoffset: 0; stroke: #b0b0b0; stroke-opacity: 0.5"/>
     </g>
     <g id="line2d_17">
      <g>
       <use xlink:href="#m7577814ca3" x="802.389769" y="489.2325" style="stroke: #000000; stroke-width: 2"/>
      </g>
     </g>
     <g id="line2d_18">
      <g>
       <use xlink:href="#m7a3494ac6c" x="802.389769" y="28.08" style="stroke: #000000; stroke-width: 2"/>
      </g>
     </g>
     <g id="text_6">
      <!-- 2500 -->
      <g transform="translate(769.304769 512.488438) scale(0.26 -0.26)">
       <use xlink:href="#DejaVuSerif-32"/>
       <use xlink:href="#DejaVuSerif-35" x="63.623047"/>
       <use xlink:href="#DejaVuSerif-30" x="127.246094"/>
       <use xlink:href="#DejaVuSerif-30" x="190.869141"/>
      </g>
     </g>
    </g>
    <g id="text_7">
     <!-- $t$ (a.u.) -->
     <g transform="translate(443.708345 541.651562) scale(0.26 -0.26)">
      <defs>
       <path id="Cmmi10-74" d="M 397 519 
Q 397 613 416 697 
L 878 2534 
L 206 2534 
Q 141 2534 141 2619 
Q 166 2759 225 2759 
L 934 2759 
L 1191 3803 
Q 1216 3888 1291 3947 
Q 1366 4006 1459 4006 
Q 1541 4006 1595 3957 
Q 1650 3909 1650 3828 
Q 1650 3809 1648 3798 
Q 1647 3788 1644 3775 
L 1388 2759 
L 2047 2759 
Q 2113 2759 2113 2675 
Q 2109 2659 2100 2621 
Q 2091 2584 2075 2559 
Q 2059 2534 2028 2534 
L 1331 2534 
L 872 684 
Q 825 503 825 372 
Q 825 97 1013 97 
Q 1294 97 1511 361 
Q 1728 625 1844 941 
Q 1869 978 1894 978 
L 1972 978 
Q 1997 978 2012 961 
Q 2028 944 2028 922 
Q 2028 909 2022 903 
Q 1881 516 1612 222 
Q 1344 -72 997 -72 
Q 744 -72 570 93 
Q 397 259 397 519 
z
" transform="scale(0.015625)"/>
       <path id="DejaVuSerif-20" transform="scale(0.015625)"/>
       <path id="DejaVuSerif-28" d="M 2041 -997 
Q 1281 -656 893 83 
Q 506 822 506 1931 
Q 506 3044 893 3783 
Q 1281 4522 2041 4863 
L 2041 4556 
Q 1559 4225 1350 3623 
Q 1141 3022 1141 1931 
Q 1141 844 1350 242 
Q 1559 -359 2041 -691 
L 2041 -997 
z
" transform="scale(0.015625)"/>
       <path id="DejaVuSerif-61" d="M 2547 1044 
L 2547 1747 
L 1806 1747 
Q 1378 1747 1168 1562 
Q 959 1378 959 997 
Q 959 650 1171 447 
Q 1384 244 1747 244 
Q 2106 244 2326 466 
Q 2547 688 2547 1044 
z
M 3122 2075 
L 3122 331 
L 3634 331 
L 3634 0 
L 2547 0 
L 2547 359 
Q 2356 128 2106 18 
Q 1856 -91 1522 -91 
Q 969 -91 644 203 
Q 319 497 319 997 
Q 319 1513 691 1797 
Q 1063 2081 1741 2081 
L 2547 2081 
L 2547 2309 
Q 2547 2688 2317 2895 
Q 2088 3103 1672 3103 
Q 1328 3103 1125 2947 
Q 922 2791 872 2484 
L 575 2484 
L 575 3156 
Q 875 3284 1158 3348 
Q 1441 3413 1709 3413 
Q 2400 3413 2761 3070 
Q 3122 2728 3122 2075 
z
" transform="scale(0.015625)"/>
       <path id="DejaVuSerif-2e" d="M 603 325 
Q 603 500 722 622 
Q 841 744 1019 744 
Q 1191 744 1312 622 
Q 1434 500 1434 325 
Q 1434 153 1312 31 
Q 1191 -91 1019 -91 
Q 841 -91 722 29 
Q 603 150 603 325 
z
" transform="scale(0.015625)"/>
       <path id="DejaVuSerif-75" d="M 2266 3322 
L 3341 3322 
L 3341 331 
L 3884 331 
L 3884 0 
L 2766 0 
L 2766 588 
Q 2606 256 2353 82 
Q 2100 -91 1766 -91 
Q 1213 -91 952 223 
Q 691 538 691 1209 
L 691 2988 
L 172 2988 
L 172 3322 
L 1269 3322 
L 1269 1388 
Q 1269 781 1417 556 
Q 1566 331 1947 331 
Q 2347 331 2556 625 
Q 2766 919 2766 1478 
L 2766 2988 
L 2266 2988 
L 2266 3322 
z
" transform="scale(0.015625)"/>
       <path id="DejaVuSerif-29" d="M 453 -997 
L 453 -691 
Q 934 -359 1145 242 
Q 1356 844 1356 1931 
Q 1356 3022 1145 3623 
Q 934 4225 453 4556 
L 453 4863 
Q 1216 4522 1603 3783 
Q 1991 3044 1991 1931 
Q 1991 822 1603 83 
Q 1216 -656 453 -997 
z
" transform="scale(0.015625)"/>
      </defs>
      <use xlink:href="#Cmmi10-74" transform="translate(0 0.015625)"/>
      <use xlink:href="#DejaVuSerif-20" transform="translate(36.083984 0.015625)"/>
      <use xlink:href="#DejaVuSerif-28" transform="translate(67.871094 0.015625)"/>
      <use xlink:href="#DejaVuSerif-61" transform="translate(106.884766 0.015625)"/>
      <use xlink:href="#DejaVuSerif-2e" transform="translate(166.503906 0.015625)"/>
      <use xlink:href="#DejaVuSerif-75" transform="translate(198.291016 0.015625)"/>
      <use xlink:href="#DejaVuSerif-2e" transform="translate(262.695312 0.015625)"/>
      <use xlink:href="#DejaVuSerif-29" transform="translate(294.482422 0.015625)"/>
     </g>
    </g>
   </g>
   <g id="matplotlib.axis_2">
    <g id="ytick_1">
     <g id="line2d_19">
      <path d="M 147.28 429.049287 
L 826.97669 429.049287 
" clip-path="url(#pa6da856b45)" style="fill: none; stroke-dasharray: 3.7,1.6; stroke-dashoffset: 0; stroke: #b0b0b0; stroke-opacity: 0.5"/>
     </g>
     <g id="line2d_20">
      <defs>
       <path id="m924fb3c176" d="M 0 0 
L 10 0 
" style="stroke: #000000; stroke-width: 2"/>
      </defs>
      <g>
       <use xlink:href="#m924fb3c176" x="147.28" y="429.049287" style="stroke: #000000; stroke-width: 2"/>
      </g>
     </g>
     <g id="line2d_21">
      <defs>
       <path id="md1c26e8cdd" d="M 0 0 
L -10 0 
" style="stroke: #000000; stroke-width: 2"/>
      </defs>
      <g>
       <use xlink:href="#md1c26e8cdd" x="826.97669" y="429.049287" style="stroke: #000000; stroke-width: 2"/>
      </g>
     </g>
     <g id="text_8">
      <!-- 5 -->
      <g transform="translate(127.2375 438.927256) scale(0.26 -0.26)">
       <use xlink:href="#DejaVuSerif-35"/>
      </g>
     </g>
    </g>
    <g id="ytick_2">
     <g id="line2d_22">
      <path d="M 147.28 354.226661 
L 826.97669 354.226661 
" clip-path="url(#pa6da856b45)" style="fill: none; stroke-dasharray: 3.7,1.6; stroke-dashoffset: 0; stroke: #b0b0b0; stroke-opacity: 0.5"/>
     </g>
     <g id="line2d_23">
      <g>
       <use xlink:href="#m924fb3c176" x="147.28" y="354.226661" style="stroke: #000000; stroke-width: 2"/>
      </g>
     </g>
     <g id="line2d_24">
      <g>
       <use xlink:href="#md1c26e8cdd" x="826.97669" y="354.226661" style="stroke: #000000; stroke-width: 2"/>
      </g>
     </g>
     <g id="text_9">
      <!-- 10 -->
      <g transform="translate(110.695 364.10463) scale(0.26 -0.26)">
       <use xlink:href="#DejaVuSerif-31"/>
       <use xlink:href="#DejaVuSerif-30" x="63.623047"/>
      </g>
     </g>
    </g>
    <g id="ytick_3">
     <g id="line2d_25">
      <path d="M 147.28 279.404036 
L 826.97669 279.404036 
" clip-path="url(#pa6da856b45)" style="fill: none; stroke-dasharray: 3.7,1.6; stroke-dashoffset: 0; stroke: #b0b0b0; stroke-opacity: 0.5"/>
     </g>
     <g id="line2d_26">
      <g>
       <use xlink:href="#m924fb3c176" x="147.28" y="279.404036" style="stroke: #000000; stroke-width: 2"/>
      </g>
     </g>
     <g id="line2d_27">
      <g>
       <use xlink:href="#md1c26e8cdd" x="826.97669" y="279.404036" style="stroke: #000000; stroke-width: 2"/>
      </g>
     </g>
     <g id="text_10">
      <!-- 15 -->
      <g transform="translate(110.695 289.282004) scale(0.26 -0.26)">
       <use xlink:href="#DejaVuSerif-31"/>
       <use xlink:href="#DejaVuSerif-35" x="63.623047"/>
      </g>
     </g>
    </g>
    <g id="ytick_4">
     <g id="line2d_28">
      <path d="M 147.28 204.58141 
L 826.97669 204.58141 
" clip-path="url(#pa6da856b45)" style="fill: none; stroke-dasharray: 3.7,1.6; stroke-dashoffset: 0; stroke: #b0b0b0; stroke-opacity: 0.5"/>
     </g>
     <g id="line2d_29">
      <g>
       <use xlink:href="#m924fb3c176" x="147.28" y="204.58141" style="stroke: #000000; stroke-width: 2"/>
      </g>
     </g>
     <g id="line2d_30">
      <g>
       <use xlink:href="#md1c26e8cdd" x="826.97669" y="204.58141" style="stroke: #000000; stroke-width: 2"/>
      </g>
     </g>
     <g id="text_11">
      <!-- 20 -->
      <g transform="translate(110.695 214.459378) scale(0.26 -0.26)">
       <use xlink:href="#DejaVuSerif-32"/>
       <use xlink:href="#DejaVuSerif-30" x="63.623047"/>
      </g>
     </g>
    </g>
    <g id="ytick_5">
     <g id="line2d_31">
      <path d="M 147.28 129.758784 
L 826.97669 129.758784 
" clip-path="url(#pa6da856b45)" style="fill: none; stroke-dasharray: 3.7,1.6; stroke-dashoffset: 0; stroke: #b0b0b0; stroke-opacity: 0.5"/>
     </g>
     <g id="line2d_32">
      <g>
       <use xlink:href="#m924fb3c176" x="147.28" y="129.758784" style="stroke: #000000; stroke-width: 2"/>
      </g>
     </g>
     <g id="line2d_33">
      <g>
       <use xlink:href="#md1c26e8cdd" x="826.97669" y="129.758784" style="stroke: #000000; stroke-width: 2"/>
      </g>
     </g>
     <g id="text_12">
      <!-- 25 -->
      <g transform="translate(110.695 139.636752) scale(0.26 -0.26)">
       <use xlink:href="#DejaVuSerif-32"/>
       <use xlink:href="#DejaVuSerif-35" x="63.623047"/>
      </g>
     </g>
    </g>
    <g id="ytick_6">
     <g id="line2d_34">
      <path d="M 147.28 54.936158 
L 826.97669 54.936158 
" clip-path="url(#pa6da856b45)" style="fill: none; stroke-dasharray: 3.7,1.6; stroke-dashoffset: 0; stroke: #b0b0b0; stroke-opacity: 0.5"/>
     </g>
     <g id="line2d_35">
      <g>
       <use xlink:href="#m924fb3c176" x="147.28" y="54.936158" style="stroke: #000000; stroke-width: 2"/>
      </g>
     </g>
     <g id="line2d_36">
      <g>
       <use xlink:href="#md1c26e8cdd" x="826.97669" y="54.936158" style="stroke: #000000; stroke-width: 2"/>
      </g>
     </g>
     <g id="text_13">
      <!-- 30 -->
      <g transform="translate(110.695 64.814127) scale(0.26 -0.26)">
       <defs>
        <path id="DejaVuSerif-33" d="M 622 4469 
Q 988 4606 1323 4678 
Q 1659 4750 1953 4750 
Q 2638 4750 3022 4454 
Q 3406 4159 3406 3634 
Q 3406 3213 3140 2930 
Q 2875 2647 2388 2547 
Q 2963 2466 3280 2130 
Q 3597 1794 3597 1259 
Q 3597 606 3158 257 
Q 2719 -91 1894 -91 
Q 1528 -91 1179 -12 
Q 831 66 488 225 
L 488 1131 
L 838 1131 
Q 869 681 1141 450 
Q 1413 219 1906 219 
Q 2384 219 2661 495 
Q 2938 772 2938 1253 
Q 2938 1803 2653 2086 
Q 2369 2369 1819 2369 
L 1522 2369 
L 1522 2688 
L 1678 2688 
Q 2225 2688 2498 2914 
Q 2772 3141 2772 3597 
Q 2772 4006 2547 4223 
Q 2322 4441 1900 4441 
Q 1478 4441 1245 4241 
Q 1013 4041 972 3647 
L 622 3647 
L 622 4469 
z
" transform="scale(0.015625)"/>
       </defs>
       <use xlink:href="#DejaVuSerif-33"/>
       <use xlink:href="#DejaVuSerif-30" x="63.623047"/>
      </g>
     </g>
    </g>
    <g id="text_14">
     <!-- $|\vec{r}_i|$ (a.u.) -->
     <g transform="translate(100.195 314.94625) rotate(-90) scale(0.26 -0.26)">
      <defs>
       <path id="Cmsy10-6a" d="M 763 -1484 
L 763 4684 
Q 763 4734 800 4767 
Q 838 4800 891 4800 
Q 938 4800 978 4767 
Q 1019 4734 1019 4684 
L 1019 -1484 
Q 1019 -1534 978 -1567 
Q 938 -1600 891 -1600 
Q 838 -1600 800 -1567 
Q 763 -1534 763 -1484 
z
" transform="scale(0.015625)"/>
       <path id="Cmmi10-7e" d="M 1281 3809 
Q 1231 3809 1198 3846 
Q 1166 3884 1166 3938 
Q 1166 3984 1198 4023 
Q 1231 4063 1281 4063 
L 3547 4063 
Q 3378 4291 3378 4441 
Q 3378 4497 3417 4533 
Q 3456 4569 3506 4569 
Q 3613 4569 3634 4469 
Q 3697 4194 3938 4044 
Q 4000 4003 4000 3938 
Q 4000 3859 3938 3828 
Q 3575 3647 3353 3347 
Q 3328 3303 3256 3303 
Q 3209 3303 3168 3340 
Q 3128 3378 3128 3431 
Q 3128 3547 3438 3809 
L 1281 3809 
z
" transform="scale(0.015625)"/>
       <path id="Cmmi10-72" d="M 494 109 
Q 494 147 500 166 
L 978 2075 
Q 1025 2253 1025 2388 
Q 1025 2663 838 2663 
Q 638 2663 541 2423 
Q 444 2184 353 1819 
Q 353 1800 334 1789 
Q 316 1778 300 1778 
L 225 1778 
Q 203 1778 187 1801 
Q 172 1825 172 1844 
Q 241 2122 305 2315 
Q 369 2509 505 2668 
Q 641 2828 844 2828 
Q 1066 2828 1233 2700 
Q 1400 2572 1441 2363 
Q 1603 2575 1811 2701 
Q 2019 2828 2266 2828 
Q 2469 2828 2623 2709 
Q 2778 2591 2778 2388 
Q 2778 2225 2676 2104 
Q 2575 1984 2406 1984 
Q 2303 1984 2233 2048 
Q 2163 2113 2163 2216 
Q 2163 2356 2266 2467 
Q 2369 2578 2503 2578 
Q 2400 2663 2253 2663 
Q 1978 2663 1775 2467 
Q 1572 2272 1409 1972 
L 953 141 
Q 931 53 854 -9 
Q 778 -72 684 -72 
Q 606 -72 550 -22 
Q 494 28 494 109 
z
" transform="scale(0.015625)"/>
       <path id="Cmmi10-69" d="M 500 459 
Q 500 578 550 709 
L 1069 2088 
Q 1153 2322 1153 2472 
Q 1153 2663 1013 2663 
Q 759 2663 595 2402 
Q 431 2141 353 1819 
Q 341 1778 300 1778 
L 225 1778 
Q 172 1778 172 1838 
L 172 1856 
Q 275 2238 487 2533 
Q 700 2828 1025 2828 
Q 1253 2828 1411 2678 
Q 1569 2528 1569 2297 
Q 1569 2178 1516 2047 
L 997 672 
Q 909 459 909 288 
Q 909 97 1056 97 
Q 1306 97 1473 364 
Q 1641 631 1709 941 
Q 1722 978 1759 978 
L 1838 978 
Q 1863 978 1878 961 
Q 1894 944 1894 922 
Q 1894 916 1888 903 
Q 1800 541 1583 234 
Q 1366 -72 1044 -72 
Q 819 -72 659 83 
Q 500 238 500 459 
z
M 1222 3878 
Q 1222 4013 1334 4122 
Q 1447 4231 1581 4231 
Q 1691 4231 1761 4164 
Q 1831 4097 1831 3994 
Q 1831 3850 1717 3742 
Q 1603 3634 1466 3634 
Q 1363 3634 1292 3704 
Q 1222 3775 1222 3878 
z
" transform="scale(0.015625)"/>
      </defs>
      <use xlink:href="#Cmsy10-6a" transform="translate(0 0.53125)"/>
      <use xlink:href="#Cmmi10-7e" transform="translate(15.746094 5.609375)"/>
      <use xlink:href="#Cmmi10-72" transform="translate(27.685547 0.53125)"/>
      <use xlink:href="#Cmmi10-69" transform="translate(77.266875 -16.475) scale(0.7)"/>
      <use xlink:href="#Cmsy10-6a" transform="translate(107.740898 0.53125)"/>
      <use xlink:href="#DejaVuSerif-20" transform="translate(135.426445 0.53125)"/>
      <use xlink:href="#DejaVuSerif-28" transform="translate(167.213555 0.53125)"/>
      <use xlink:href="#DejaVuSerif-61" transform="translate(206.227227 0.53125)"/>
      <use xlink:href="#DejaVuSerif-2e" transform="translate(265.846367 0.53125)"/>
      <use xlink:href="#DejaVuSerif-75" transform="translate(297.633477 0.53125)"/>
      <use xlink:href="#DejaVuSerif-2e" transform="translate(362.037773 0.53125)"/>
      <use xlink:href="#DejaVuSerif-29" transform="translate(393.824883 0.53125)"/>
     </g>
    </g>
   </g>
   <g id="line2d_37">
    <path clip-path="url(#pa6da856b45)" style="fill: none; stroke: #1f77b4; stroke-width: 3; stroke-linecap: square"/>
    <defs>
     <path id="mb1e368a15f" d="M 0 3 
C 0.795609 3 1.55874 2.683901 2.12132 2.12132 
C 2.683901 1.55874 3 0.795609 3 0 
C 3 -0.795609 2.683901 -1.55874 2.12132 -2.12132 
C 1.55874 -2.683901 0.795609 -3 0 -3 
C -0.795609 -3 -1.55874 -2.683901 -2.12132 -2.12132 
C -2.683901 -1.55874 -3 -0.795609 -3 0 
C -3 0.795609 -2.683901 1.55874 -2.12132 2.12132 
C -1.55874 2.683901 -0.795609 3 0 3 
z
" style="stroke: #1f77b4"/>
    </defs>
    <g clip-path="url(#pa6da856b45)"/>
   </g>
   <g id="line2d_38">
    <path clip-path="url(#pa6da856b45)" style="fill: none; stroke-dasharray: 11.1,4.8; stroke-dashoffset: 0; stroke: #ff7f0e; stroke-width: 3"/>
    <defs>
     <path id="me33548f3bc" d="M 0 3 
C 0.795609 3 1.55874 2.683901 2.12132 2.12132 
C 2.683901 1.55874 3 0.795609 3 0 
C 3 -0.795609 2.683901 -1.55874 2.12132 -2.12132 
C 1.55874 -2.683901 0.795609 -3 0 -3 
C -0.795609 -3 -1.55874 -2.683901 -2.12132 -2.12132 
C -2.683901 -1.55874 -3 -0.795609 -3 0 
C -3 0.795609 -2.683901 1.55874 -2.12132 2.12132 
C -1.55874 2.683901 -0.795609 3 0 3 
z
" style="stroke: #ff7f0e"/>
    </defs>
    <g clip-path="url(#pa6da856b45)"/>
   </g>
   <g id="line2d_39">
    <path d="M 178.175304 494.798312 
L 190.792069 325.616893 
L 203.408835 376.866991 
L 216.0256 315.288671 
L 228.642365 232.609891 
L 241.259131 377.329194 
L 253.875896 494.562876 
L 266.492661 497.791407 
L 279.109427 497.768359 
L 291.726192 496.826481 
L 304.342957 497.794464 
L 316.959723 497.679561 
L 329.576488 496.943723 
L 342.193253 496.76658 
L 354.810019 497.49539 
L 367.426784 497.774149 
L 380.043549 497.912114 
L 392.660315 497.712337 
L 405.27708 497.239876 
L 417.893845 496.622073 
L 430.510611 497.311997 
L 443.127376 497.280246 
L 455.744141 497.593733 
L 468.360907 497.553303 
L 480.977672 497.241076 
L 493.594437 496.9672 
L 506.211203 497.03883 
L 518.827968 497.196461 
L 531.444733 497.530143 
L 544.061499 497.401453 
L 556.678264 497.388925 
L 569.295029 496.911749 
L 581.911795 497.179171 
L 594.52856 497.46806 
L 607.145325 497.064899 
L 619.762091 497.491902 
L 632.378856 497.635271 
L 644.995621 496.856658 
L 657.612387 497.634027 
L 670.229152 496.673619 
L 682.845917 497.056972 
L 695.462683 497.168679 
L 708.079448 496.8491 
L 720.696213 496.46618 
L 733.312979 496.922722 
L 745.929744 497.881281 
L 758.546509 497.015286 
L 771.163274 497.128868 
L 783.78004 497.494376 
L 796.081386 497.260782 
" clip-path="url(#pa6da856b45)" style="fill: none; stroke-dasharray: 19.2,4.8,3,4.8; stroke-dashoffset: 0; stroke: #2ca02c; stroke-width: 3"/>
    <defs>
     <path id="m89e272f64a" d="M 0 3 
C 0.795609 3 1.55874 2.683901 2.12132 2.12132 
C 2.683901 1.55874 3 0.795609 3 0 
C 3 -0.795609 2.683901 -1.55874 2.12132 -2.12132 
C 1.55874 -2.683901 0.795609 -3 0 -3 
C -0.795609 -3 -1.55874 -2.683901 -2.12132 -2.12132 
C -2.683901 -1.55874 -3 -0.795609 -3 0 
C -3 0.795609 -2.683901 1.55874 -2.12132 2.12132 
C -1.55874 2.683901 -0.795609 3 0 3 
z
" style="stroke: #2ca02c"/>
    </defs>
    <g clip-path="url(#pa6da856b45)">
     <use xlink:href="#m89e272f64a" x="178.175304" y="494.798312" style="fill: #2ca02c; stroke: #2ca02c"/>
     <use xlink:href="#m89e272f64a" x="190.792069" y="325.616893" style="fill: #2ca02c; stroke: #2ca02c"/>
     <use xlink:href="#m89e272f64a" x="203.408835" y="376.866991" style="fill: #2ca02c; stroke: #2ca02c"/>
     <use xlink:href="#m89e272f64a" x="216.0256" y="315.288671" style="fill: #2ca02c; stroke: #2ca02c"/>
     <use xlink:href="#m89e272f64a" x="228.642365" y="232.609891" style="fill: #2ca02c; stroke: #2ca02c"/>
     <use xlink:href="#m89e272f64a" x="241.259131" y="377.329194" style="fill: #2ca02c; stroke: #2ca02c"/>
     <use xlink:href="#m89e272f64a" x="253.875896" y="494.562876" style="fill: #2ca02c; stroke: #2ca02c"/>
     <use xlink:href="#m89e272f64a" x="266.492661" y="497.791407" style="fill: #2ca02c; stroke: #2ca02c"/>
     <use xlink:href="#m89e272f64a" x="279.109427" y="497.768359" style="fill: #2ca02c; stroke: #2ca02c"/>
     <use xlink:href="#m89e272f64a" x="291.726192" y="496.826481" style="fill: #2ca02c; stroke: #2ca02c"/>
     <use xlink:href="#m89e272f64a" x="304.342957" y="497.794464" style="fill: #2ca02c; stroke: #2ca02c"/>
     <use xlink:href="#m89e272f64a" x="316.959723" y="497.679561" style="fill: #2ca02c; stroke: #2ca02c"/>
     <use xlink:href="#m89e272f64a" x="329.576488" y="496.943723" style="fill: #2ca02c; stroke: #2ca02c"/>
     <use xlink:href="#m89e272f64a" x="342.193253" y="496.76658" style="fill: #2ca02c; stroke: #2ca02c"/>
     <use xlink:href="#m89e272f64a" x="354.810019" y="497.49539" style="fill: #2ca02c; stroke: #2ca02c"/>
     <use xlink:href="#m89e272f64a" x="367.426784" y="497.774149" style="fill: #2ca02c; stroke: #2ca02c"/>
     <use xlink:href="#m89e272f64a" x="380.043549" y="497.912114" style="fill: #2ca02c; stroke: #2ca02c"/>
     <use xlink:href="#m89e272f64a" x="392.660315" y="497.712337" style="fill: #2ca02c; stroke: #2ca02c"/>
     <use xlink:href="#m89e272f64a" x="405.27708" y="497.239876" style="fill: #2ca02c; stroke: #2ca02c"/>
     <use xlink:href="#m89e272f64a" x="417.893845" y="496.622073" style="fill: #2ca02c; stroke: #2ca02c"/>
     <use xlink:href="#m89e272f64a" x="430.510611" y="497.311997" style="fill: #2ca02c; stroke: #2ca02c"/>
     <use xlink:href="#m89e272f64a" x="443.127376" y="497.280246" style="fill: #2ca02c; stroke: #2ca02c"/>
     <use xlink:href="#m89e272f64a" x="455.744141" y="497.593733" style="fill: #2ca02c; stroke: #2ca02c"/>
     <use xlink:href="#m89e272f64a" x="468.360907" y="497.553303" style="fill: #2ca02c; stroke: #2ca02c"/>
     <use xlink:href="#m89e272f64a" x="480.977672" y="497.241076" style="fill: #2ca02c; stroke: #2ca02c"/>
     <use xlink:href="#m89e272f64a" x="493.594437" y="496.9672" style="fill: #2ca02c; stroke: #2ca02c"/>
     <use xlink:href="#m89e272f64a" x="506.211203" y="497.03883" style="fill: #2ca02c; stroke: #2ca02c"/>
     <use xlink:href="#m89e272f64a" x="518.827968" y="497.196461" style="fill: #2ca02c; stroke: #2ca02c"/>
     <use xlink:href="#m89e272f64a" x="531.444733" y="497.530143" style="fill: #2ca02c; stroke: #2ca02c"/>
     <use xlink:href="#m89e272f64a" x="544.061499" y="497.401453" style="fill: #2ca02c; stroke: #2ca02c"/>
     <use xlink:href="#m89e272f64a" x="556.678264" y="497.388925" style="fill: #2ca02c; stroke: #2ca02c"/>
     <use xlink:href="#m89e272f64a" x="569.295029" y="496.911749" style="fill: #2ca02c; stroke: #2ca02c"/>
     <use xlink:href="#m89e272f64a" x="581.911795" y="497.179171" style="fill: #2ca02c; stroke: #2ca02c"/>
     <use xlink:href="#m89e272f64a" x="594.52856" y="497.46806" style="fill: #2ca02c; stroke: #2ca02c"/>
     <use xlink:href="#m89e272f64a" x="607.145325" y="497.064899" style="fill: #2ca02c; stroke: #2ca02c"/>
     <use xlink:href="#m89e272f64a" x="619.762091" y="497.491902" style="fill: #2ca02c; stroke: #2ca02c"/>
     <use xlink:href="#m89e272f64a" x="632.378856" y="497.635271" style="fill: #2ca02c; stroke: #2ca02c"/>
     <use xlink:href="#m89e272f64a" x="644.995621" y="496.856658" style="fill: #2ca02c; stroke: #2ca02c"/>
     <use xlink:href="#m89e272f64a" x="657.612387" y="497.634027" style="fill: #2ca02c; stroke: #2ca02c"/>
     <use xlink:href="#m89e272f64a" x="670.229152" y="496.673619" style="fill: #2ca02c; stroke: #2ca02c"/>
     <use xlink:href="#m89e272f64a" x="682.845917" y="497.056972" style="fill: #2ca02c; stroke: #2ca02c"/>
     <use xlink:href="#m89e272f64a" x="695.462683" y="497.168679" style="fill: #2ca02c; stroke: #2ca02c"/>
     <use xlink:href="#m89e272f64a" x="708.079448" y="496.8491" style="fill: #2ca02c; stroke: #2ca02c"/>
     <use xlink:href="#m89e272f64a" x="720.696213" y="496.46618" style="fill: #2ca02c; stroke: #2ca02c"/>
     <use xlink:href="#m89e272f64a" x="733.312979" y="496.922722" style="fill: #2ca02c; stroke: #2ca02c"/>
     <use xlink:href="#m89e272f64a" x="745.929744" y="497.881281" style="fill: #2ca02c; stroke: #2ca02c"/>
     <use xlink:href="#m89e272f64a" x="758.546509" y="497.015286" style="fill: #2ca02c; stroke: #2ca02c"/>
     <use xlink:href="#m89e272f64a" x="771.163274" y="497.128868" style="fill: #2ca02c; stroke: #2ca02c"/>
     <use xlink:href="#m89e272f64a" x="783.78004" y="497.494376" style="fill: #2ca02c; stroke: #2ca02c"/>
     <use xlink:href="#m89e272f64a" x="796.081386" y="497.260782" style="fill: #2ca02c; stroke: #2ca02c"/>
    </g>
   </g>
   <g id="line2d_40">
    <path d="M 178.175304 465.925787 
L 190.792069 496.805549 
L 203.408835 497.019468 
L 216.0256 497.271243 
L 228.642365 497.397607 
L 241.259131 498.242763 
L 253.875896 475.883429 
L 266.492661 182.631988 
L 273.132169 -1 
" clip-path="url(#pa6da856b45)" style="fill: none; stroke-dasharray: 3,4.95; stroke-dashoffset: 0; stroke: #d62728; stroke-width: 3"/>
    <defs>
     <path id="m7323b5df86" d="M 0 3 
C 0.795609 3 1.55874 2.683901 2.12132 2.12132 
C 2.683901 1.55874 3 0.795609 3 0 
C 3 -0.795609 2.683901 -1.55874 2.12132 -2.12132 
C 1.55874 -2.683901 0.795609 -3 0 -3 
C -0.795609 -3 -1.55874 -2.683901 -2.12132 -2.12132 
C -2.683901 -1.55874 -3 -0.795609 -3 0 
C -3 0.795609 -2.683901 1.55874 -2.12132 2.12132 
C -1.55874 2.683901 -0.795609 3 0 3 
z
" style="stroke: #d62728"/>
    </defs>
    <g clip-path="url(#pa6da856b45)">
     <use xlink:href="#m7323b5df86" x="178.175304" y="465.925787" style="fill: #d62728; stroke: #d62728"/>
     <use xlink:href="#m7323b5df86" x="190.792069" y="496.805549" style="fill: #d62728; stroke: #d62728"/>
     <use xlink:href="#m7323b5df86" x="203.408835" y="497.019468" style="fill: #d62728; stroke: #d62728"/>
     <use xlink:href="#m7323b5df86" x="216.0256" y="497.271243" style="fill: #d62728; stroke: #d62728"/>
     <use xlink:href="#m7323b5df86" x="228.642365" y="497.397607" style="fill: #d62728; stroke: #d62728"/>
     <use xlink:href="#m7323b5df86" x="241.259131" y="498.242763" style="fill: #d62728; stroke: #d62728"/>
     <use xlink:href="#m7323b5df86" x="253.875896" y="475.883429" style="fill: #d62728; stroke: #d62728"/>
     <use xlink:href="#m7323b5df86" x="266.492661" y="182.631988" style="fill: #d62728; stroke: #d62728"/>
     <use xlink:href="#m7323b5df86" x="273.132169" y="-1" style="fill: #d62728; stroke: #d62728"/>
    </g>
   </g>
   <g id="line2d_41">
    <path d="M 178.175304 358.831255 
L 190.792069 377.263116 
L 203.408835 396.348702 
L 216.0256 416.160213 
L 228.642365 437.201283 
L 241.259131 460.402423 
L 253.875896 485.46947 
L 266.492661 480.41026 
L 279.109427 457.971899 
L 291.726192 438.351775 
L 304.342957 420.887777 
L 316.959723 404.943036 
L 329.576488 390.145911 
L 342.193253 376.263597 
L 354.810019 363.13374 
L 367.426784 350.630798 
L 380.043549 338.66606 
L 392.660315 327.171585 
L 405.27708 316.093761 
L 417.893845 305.390304 
L 430.510611 295.027508 
L 443.127376 284.97274 
L 455.744141 275.19871 
L 468.360907 265.683238 
L 480.977672 256.40748 
L 493.594437 247.355403 
L 506.211203 238.513707 
L 518.827968 229.869758 
L 531.444733 221.410682 
L 544.061499 213.125556 
L 556.678264 205.00506 
L 569.295029 197.041122 
L 581.911795 189.22689 
L 594.52856 181.555782 
L 607.145325 174.020663 
L 619.762091 166.615144 
L 632.378856 159.333769 
L 644.995621 152.171838 
L 657.612387 145.125316 
L 670.229152 138.190075 
L 682.845917 131.361582 
L 695.462683 124.635759 
L 708.079448 118.009133 
L 720.696213 111.478754 
L 733.312979 105.041986 
L 745.929744 98.695861 
L 758.546509 92.43725 
L 771.163274 86.263422 
L 783.78004 80.172083 
L 796.081386 74.310573 
" clip-path="url(#pa6da856b45)" style="fill: none; stroke: #000000; stroke-width: 3; stroke-linecap: square"/>
    <defs>
     <path id="m3fa62b6195" d="M 0 3 
C 0.795609 3 1.55874 2.683901 2.12132 2.12132 
C 2.683901 1.55874 3 0.795609 3 0 
C 3 -0.795609 2.683901 -1.55874 2.12132 -2.12132 
C 1.55874 -2.683901 0.795609 -3 0 -3 
C -0.795609 -3 -1.55874 -2.683901 -2.12132 -2.12132 
C -2.683901 -1.55874 -3 -0.795609 -3 0 
C -3 0.795609 -2.683901 1.55874 -2.12132 2.12132 
C -1.55874 2.683901 -0.795609 3 0 3 
z
" style="stroke: #000000"/>
    </defs>
    <g clip-path="url(#pa6da856b45)">
     <use xlink:href="#m3fa62b6195" x="178.175304" y="358.831255" style="stroke: #000000"/>
     <use xlink:href="#m3fa62b6195" x="190.792069" y="377.263116" style="stroke: #000000"/>
     <use xlink:href="#m3fa62b6195" x="203.408835" y="396.348702" style="stroke: #000000"/>
     <use xlink:href="#m3fa62b6195" x="216.0256" y="416.160213" style="stroke: #000000"/>
     <use xlink:href="#m3fa62b6195" x="228.642365" y="437.201283" style="stroke: #000000"/>
     <use xlink:href="#m3fa62b6195" x="241.259131" y="460.402423" style="stroke: #000000"/>
     <use xlink:href="#m3fa62b6195" x="253.875896" y="485.46947" style="stroke: #000000"/>
     <use xlink:href="#m3fa62b6195" x="266.492661" y="480.41026" style="stroke: #000000"/>
     <use xlink:href="#m3fa62b6195" x="279.109427" y="457.971899" style="stroke: #000000"/>
     <use xlink:href="#m3fa62b6195" x="291.726192" y="438.351775" style="stroke: #000000"/>
     <use xlink:href="#m3fa62b6195" x="304.342957" y="420.887777" style="stroke: #000000"/>
     <use xlink:href="#m3fa62b6195" x="316.959723" y="404.943036" style="stroke: #000000"/>
     <use xlink:href="#m3fa62b6195" x="329.576488" y="390.145911" style="stroke: #000000"/>
     <use xlink:href="#m3fa62b6195" x="342.193253" y="376.263597" style="stroke: #000000"/>
     <use xlink:href="#m3fa62b6195" x="354.810019" y="363.13374" style="stroke: #000000"/>
     <use xlink:href="#m3fa62b6195" x="367.426784" y="350.630798" style="stroke: #000000"/>
     <use xlink:href="#m3fa62b6195" x="380.043549" y="338.66606" style="stroke: #000000"/>
     <use xlink:href="#m3fa62b6195" x="392.660315" y="327.171585" style="stroke: #000000"/>
     <use xlink:href="#m3fa62b6195" x="405.27708" y="316.093761" style="stroke: #000000"/>
     <use xlink:href="#m3fa62b6195" x="417.893845" y="305.390304" style="stroke: #000000"/>
     <use xlink:href="#m3fa62b6195" x="430.510611" y="295.027508" style="stroke: #000000"/>
     <use xlink:href="#m3fa62b6195" x="443.127376" y="284.97274" style="stroke: #000000"/>
     <use xlink:href="#m3fa62b6195" x="455.744141" y="275.19871" style="stroke: #000000"/>
     <use xlink:href="#m3fa62b6195" x="468.360907" y="265.683238" style="stroke: #000000"/>
     <use xlink:href="#m3fa62b6195" x="480.977672" y="256.40748" style="stroke: #000000"/>
     <use xlink:href="#m3fa62b6195" x="493.594437" y="247.355403" style="stroke: #000000"/>
     <use xlink:href="#m3fa62b6195" x="506.211203" y="238.513707" style="stroke: #000000"/>
     <use xlink:href="#m3fa62b6195" x="518.827968" y="229.869758" style="stroke: #000000"/>
     <use xlink:href="#m3fa62b6195" x="531.444733" y="221.410682" style="stroke: #000000"/>
     <use xlink:href="#m3fa62b6195" x="544.061499" y="213.125556" style="stroke: #000000"/>
     <use xlink:href="#m3fa62b6195" x="556.678264" y="205.00506" style="stroke: #000000"/>
     <use xlink:href="#m3fa62b6195" x="569.295029" y="197.041122" style="stroke: #000000"/>
     <use xlink:href="#m3fa62b6195" x="581.911795" y="189.22689" style="stroke: #000000"/>
     <use xlink:href="#m3fa62b6195" x="594.52856" y="181.555782" style="stroke: #000000"/>
     <use xlink:href="#m3fa62b6195" x="607.145325" y="174.020663" style="stroke: #000000"/>
     <use xlink:href="#m3fa62b6195" x="619.762091" y="166.615144" style="stroke: #000000"/>
     <use xlink:href="#m3fa62b6195" x="632.378856" y="159.333769" style="stroke: #000000"/>
     <use xlink:href="#m3fa62b6195" x="644.995621" y="152.171838" style="stroke: #000000"/>
     <use xlink:href="#m3fa62b6195" x="657.612387" y="145.125316" style="stroke: #000000"/>
     <use xlink:href="#m3fa62b6195" x="670.229152" y="138.190075" style="stroke: #000000"/>
     <use xlink:href="#m3fa62b6195" x="682.845917" y="131.361582" style="stroke: #000000"/>
     <use xlink:href="#m3fa62b6195" x="695.462683" y="124.635759" style="stroke: #000000"/>
     <use xlink:href="#m3fa62b6195" x="708.079448" y="118.009133" style="stroke: #000000"/>
     <use xlink:href="#m3fa62b6195" x="720.696213" y="111.478754" style="stroke: #000000"/>
     <use xlink:href="#m3fa62b6195" x="733.312979" y="105.041986" style="stroke: #000000"/>
     <use xlink:href="#m3fa62b6195" x="745.929744" y="98.695861" style="stroke: #000000"/>
     <use xlink:href="#m3fa62b6195" x="758.546509" y="92.43725" style="stroke: #000000"/>
     <use xlink:href="#m3fa62b6195" x="771.163274" y="86.263422" style="stroke: #000000"/>
     <use xlink:href="#m3fa62b6195" x="783.78004" y="80.172083" style="stroke: #000000"/>
     <use xlink:href="#m3fa62b6195" x="796.081386" y="74.310573" style="stroke: #000000"/>
    </g>
   </g>
   <g id="patch_3">
    <path d="M 147.28 489.2325 
L 147.28 28.08 
" style="fill: none; stroke: #000000; stroke-width: 2; stroke-linejoin: miter; stroke-linecap: square"/>
   </g>
   <g id="patch_4">
    <path d="M 826.97669 489.2325 
L 826.97669 28.08 
" style="fill: none; stroke: #000000; stroke-width: 2; stroke-linejoin: miter; stroke-linecap: square"/>
   </g>
   <g id="patch_5">
    <path d="M 147.28 489.2325 
L 826.97669 489.2325 
" style="fill: none; stroke: #000000; stroke-width: 2; stroke-linejoin: miter; stroke-linecap: square"/>
   </g>
   <g id="patch_6">
    <path d="M 147.28 28.08 
L 826.97669 28.08 
" style="fill: none; stroke: #000000; stroke-width: 2; stroke-linejoin: miter; stroke-linecap: square"/>
   </g>
   <g id="legend_1">
    <g id="patch_7">
     <path d="M 677.27919 481.2325 
L 815.77669 481.2325 
Q 818.97669 481.2325 818.97669 478.0325 
L 818.97669 362.2075 
Q 818.97669 359.0075 815.77669 359.0075 
L 677.27919 359.0075 
Q 674.07919 359.0075 674.07919 362.2075 
L 674.07919 478.0325 
Q 674.07919 481.2325 677.27919 481.2325 
z
" style="fill: #ffffff; opacity: 0.8; stroke: #cccccc; stroke-linejoin: miter"/>
    </g>
    <g id="line2d_42">
     <path d="M 680.47919 371.965 
L 696.47919 371.965 
L 712.47919 371.965 
" style="fill: none; stroke: #1f77b4; stroke-width: 3; stroke-linecap: square"/>
     <g>
      <use xlink:href="#mb1e368a15f" x="696.47919" y="371.965" style="fill: #1f77b4; stroke: #1f77b4"/>
     </g>
    </g>
    <g id="text_15">
     <!-- Electron 1 -->
     <g transform="translate(725.27919 377.565) scale(0.16 -0.16)">
      <defs>
       <path id="DejaVuSerif-45" d="M 353 0 
L 353 331 
L 947 331 
L 947 4331 
L 353 4331 
L 353 4666 
L 4109 4666 
L 4109 3628 
L 3725 3628 
L 3725 4281 
L 1581 4281 
L 1581 2719 
L 3109 2719 
L 3109 3303 
L 3494 3303 
L 3494 1753 
L 3109 1753 
L 3109 2338 
L 1581 2338 
L 1581 384 
L 3775 384 
L 3775 1038 
L 4159 1038 
L 4159 0 
L 353 0 
z
" transform="scale(0.015625)"/>
       <path id="DejaVuSerif-6c" d="M 1313 331 
L 1856 331 
L 1856 0 
L 184 0 
L 184 331 
L 738 331 
L 738 4531 
L 184 4531 
L 184 4863 
L 1313 4863 
L 1313 331 
z
" transform="scale(0.015625)"/>
       <path id="DejaVuSerif-65" d="M 3469 1600 
L 991 1600 
L 991 1575 
Q 991 903 1244 561 
Q 1497 219 1991 219 
Q 2369 219 2611 417 
Q 2853 616 2950 1006 
L 3413 1006 
Q 3275 459 2904 184 
Q 2534 -91 1931 -91 
Q 1203 -91 761 389 
Q 319 869 319 1663 
Q 319 2450 753 2931 
Q 1188 3413 1894 3413 
Q 2647 3413 3050 2948 
Q 3453 2484 3469 1600 
z
M 2791 1931 
Q 2772 2513 2545 2808 
Q 2319 3103 1894 3103 
Q 1497 3103 1269 2806 
Q 1041 2509 991 1931 
L 2791 1931 
z
" transform="scale(0.015625)"/>
       <path id="DejaVuSerif-63" d="M 3291 997 
Q 3169 466 2822 187 
Q 2475 -91 1925 -91 
Q 1200 -91 759 389 
Q 319 869 319 1663 
Q 319 2459 759 2936 
Q 1200 3413 1925 3413 
Q 2241 3413 2553 3339 
Q 2866 3266 3181 3116 
L 3181 2266 
L 2847 2266 
Q 2781 2703 2561 2903 
Q 2341 3103 1931 3103 
Q 1466 3103 1228 2742 
Q 991 2381 991 1663 
Q 991 944 1227 581 
Q 1463 219 1931 219 
Q 2303 219 2525 412 
Q 2747 606 2828 997 
L 3291 997 
z
" transform="scale(0.015625)"/>
       <path id="DejaVuSerif-74" d="M 691 2988 
L 184 2988 
L 184 3322 
L 691 3322 
L 691 4353 
L 1269 4353 
L 1269 3322 
L 2350 3322 
L 2350 2988 
L 1269 2988 
L 1269 878 
Q 1269 456 1350 337 
Q 1431 219 1650 219 
Q 1875 219 1978 351 
Q 2081 484 2088 781 
L 2522 781 
Q 2497 328 2275 118 
Q 2053 -91 1600 -91 
Q 1103 -91 897 129 
Q 691 350 691 878 
L 691 2988 
z
" transform="scale(0.015625)"/>
       <path id="DejaVuSerif-72" d="M 3059 3328 
L 3059 2497 
L 2728 2497 
Q 2713 2744 2591 2866 
Q 2469 2988 2234 2988 
Q 1809 2988 1582 2694 
Q 1356 2400 1356 1850 
L 1356 331 
L 2022 331 
L 2022 0 
L 263 0 
L 263 331 
L 781 331 
L 781 2994 
L 231 2994 
L 231 3322 
L 1356 3322 
L 1356 2731 
Q 1525 3078 1790 3245 
Q 2056 3413 2438 3413 
Q 2578 3413 2733 3391 
Q 2888 3369 3059 3328 
z
" transform="scale(0.015625)"/>
       <path id="DejaVuSerif-6f" d="M 1925 219 
Q 2388 219 2623 584 
Q 2859 950 2859 1663 
Q 2859 2375 2623 2739 
Q 2388 3103 1925 3103 
Q 1463 3103 1227 2739 
Q 991 2375 991 1663 
Q 991 950 1228 584 
Q 1466 219 1925 219 
z
M 1925 -91 
Q 1200 -91 759 389 
Q 319 869 319 1663 
Q 319 2456 758 2934 
Q 1197 3413 1925 3413 
Q 2653 3413 3092 2934 
Q 3531 2456 3531 1663 
Q 3531 869 3092 389 
Q 2653 -91 1925 -91 
z
" transform="scale(0.015625)"/>
       <path id="DejaVuSerif-6e" d="M 263 0 
L 263 331 
L 781 331 
L 781 2988 
L 231 2988 
L 231 3322 
L 1356 3322 
L 1356 2731 
Q 1516 3069 1770 3241 
Q 2025 3413 2363 3413 
Q 2913 3413 3172 3097 
Q 3431 2781 3431 2113 
L 3431 331 
L 3944 331 
L 3944 0 
L 2356 0 
L 2356 331 
L 2853 331 
L 2853 1931 
Q 2853 2541 2703 2767 
Q 2553 2994 2175 2994 
Q 1775 2994 1565 2701 
Q 1356 2409 1356 1850 
L 1356 331 
L 1856 331 
L 1856 0 
L 263 0 
z
" transform="scale(0.015625)"/>
      </defs>
      <use xlink:href="#DejaVuSerif-45"/>
      <use xlink:href="#DejaVuSerif-6c" x="72.998047"/>
      <use xlink:href="#DejaVuSerif-65" x="104.980469"/>
      <use xlink:href="#DejaVuSerif-63" x="164.160156"/>
      <use xlink:href="#DejaVuSerif-74" x="220.166016"/>
      <use xlink:href="#DejaVuSerif-72" x="260.351562"/>
      <use xlink:href="#DejaVuSerif-6f" x="308.154297"/>
      <use xlink:href="#DejaVuSerif-6e" x="368.359375"/>
      <use xlink:href="#DejaVuSerif-20" x="432.763672"/>
      <use xlink:href="#DejaVuSerif-31" x="464.550781"/>
     </g>
    </g>
    <g id="line2d_43">
     <path d="M 680.47919 395.45 
L 696.47919 395.45 
L 712.47919 395.45 
" style="fill: none; stroke-dasharray: 11.1,4.8; stroke-dashoffset: 0; stroke: #ff7f0e; stroke-width: 3"/>
     <g>
      <use xlink:href="#me33548f3bc" x="696.47919" y="395.45" style="fill: #ff7f0e; stroke: #ff7f0e"/>
     </g>
    </g>
    <g id="text_16">
     <!-- Electron 2 -->
     <g transform="translate(725.27919 401.05) scale(0.16 -0.16)">
      <use xlink:href="#DejaVuSerif-45"/>
      <use xlink:href="#DejaVuSerif-6c" x="72.998047"/>
      <use xlink:href="#DejaVuSerif-65" x="104.980469"/>
      <use xlink:href="#DejaVuSerif-63" x="164.160156"/>
      <use xlink:href="#DejaVuSerif-74" x="220.166016"/>
      <use xlink:href="#DejaVuSerif-72" x="260.351562"/>
      <use xlink:href="#DejaVuSerif-6f" x="308.154297"/>
      <use xlink:href="#DejaVuSerif-6e" x="368.359375"/>
      <use xlink:href="#DejaVuSerif-20" x="432.763672"/>
      <use xlink:href="#DejaVuSerif-32" x="464.550781"/>
     </g>
    </g>
    <g id="line2d_44">
     <path d="M 680.47919 418.935 
L 696.47919 418.935 
L 712.47919 418.935 
" style="fill: none; stroke-dasharray: 19.2,4.8,3,4.8; stroke-dashoffset: 0; stroke: #2ca02c; stroke-width: 3"/>
     <g>
      <use xlink:href="#m89e272f64a" x="696.47919" y="418.935" style="fill: #2ca02c; stroke: #2ca02c"/>
     </g>
    </g>
    <g id="text_17">
     <!-- Electron 3 -->
     <g transform="translate(725.27919 424.535) scale(0.16 -0.16)">
      <use xlink:href="#DejaVuSerif-45"/>
      <use xlink:href="#DejaVuSerif-6c" x="72.998047"/>
      <use xlink:href="#DejaVuSerif-65" x="104.980469"/>
      <use xlink:href="#DejaVuSerif-63" x="164.160156"/>
      <use xlink:href="#DejaVuSerif-74" x="220.166016"/>
      <use xlink:href="#DejaVuSerif-72" x="260.351562"/>
      <use xlink:href="#DejaVuSerif-6f" x="308.154297"/>
      <use xlink:href="#DejaVuSerif-6e" x="368.359375"/>
      <use xlink:href="#DejaVuSerif-20" x="432.763672"/>
      <use xlink:href="#DejaVuSerif-33" x="464.550781"/>
     </g>
    </g>
    <g id="line2d_45">
     <path d="M 680.47919 442.42 
L 696.47919 442.42 
L 712.47919 442.42 
" style="fill: none; stroke-dasharray: 3,4.95; stroke-dashoffset: 0; stroke: #d62728; stroke-width: 3"/>
     <g>
      <use xlink:href="#m7323b5df86" x="696.47919" y="442.42" style="fill: #d62728; stroke: #d62728"/>
     </g>
    </g>
    <g id="text_18">
     <!-- Electron 4 -->
     <g transform="translate(725.27919 448.02) scale(0.16 -0.16)">
      <defs>
       <path id="DejaVuSerif-34" d="M 2234 1581 
L 2234 4063 
L 641 1581 
L 2234 1581 
z
M 3609 0 
L 1484 0 
L 1484 331 
L 2234 331 
L 2234 1247 
L 197 1247 
L 197 1588 
L 2241 4750 
L 2859 4750 
L 2859 1581 
L 3750 1581 
L 3750 1247 
L 2859 1247 
L 2859 331 
L 3609 331 
L 3609 0 
z
" transform="scale(0.015625)"/>
      </defs>
      <use xlink:href="#DejaVuSerif-45"/>
      <use xlink:href="#DejaVuSerif-6c" x="72.998047"/>
      <use xlink:href="#DejaVuSerif-65" x="104.980469"/>
      <use xlink:href="#DejaVuSerif-63" x="164.160156"/>
      <use xlink:href="#DejaVuSerif-74" x="220.166016"/>
      <use xlink:href="#DejaVuSerif-72" x="260.351562"/>
      <use xlink:href="#DejaVuSerif-6f" x="308.154297"/>
      <use xlink:href="#DejaVuSerif-6e" x="368.359375"/>
      <use xlink:href="#DejaVuSerif-20" x="432.763672"/>
      <use xlink:href="#DejaVuSerif-34" x="464.550781"/>
     </g>
    </g>
    <g id="line2d_46">
     <path d="M 680.47919 465.905 
L 696.47919 465.905 
L 712.47919 465.905 
" style="fill: none; stroke: #000000; stroke-width: 3; stroke-linecap: square"/>
     <g>
      <use xlink:href="#m3fa62b6195" x="696.47919" y="465.905" style="stroke: #000000"/>
     </g>
    </g>
    <g id="text_19">
     <!-- Antiproton -->
     <g transform="translate(725.27919 471.505) scale(0.16 -0.16)">
      <defs>
       <path id="DejaVuSerif-41" d="M 1281 1691 
L 2994 1691 
L 2138 3909 
L 1281 1691 
z
M -38 0 
L -38 331 
L 372 331 
L 2034 4666 
L 2559 4666 
L 4225 331 
L 4684 331 
L 4684 0 
L 2988 0 
L 2988 331 
L 3506 331 
L 3116 1356 
L 1153 1356 
L 763 331 
L 1275 331 
L 1275 0 
L -38 0 
z
" transform="scale(0.015625)"/>
       <path id="DejaVuSerif-69" d="M 622 4353 
Q 622 4497 726 4603 
Q 831 4709 978 4709 
Q 1122 4709 1226 4603 
Q 1331 4497 1331 4353 
Q 1331 4206 1228 4103 
Q 1125 4000 978 4000 
Q 831 4000 726 4103 
Q 622 4206 622 4353 
z
M 1356 331 
L 1900 331 
L 1900 0 
L 231 0 
L 231 331 
L 781 331 
L 781 2988 
L 231 2988 
L 231 3322 
L 1356 3322 
L 1356 331 
z
" transform="scale(0.015625)"/>
       <path id="DejaVuSerif-70" d="M 1313 1825 
L 1313 1497 
Q 1313 897 1542 583 
Q 1772 269 2209 269 
Q 2650 269 2876 622 
Q 3103 975 3103 1663 
Q 3103 2353 2876 2703 
Q 2650 3053 2209 3053 
Q 1772 3053 1542 2737 
Q 1313 2422 1313 1825 
z
M 738 2988 
L 184 2988 
L 184 3322 
L 1313 3322 
L 1313 2803 
Q 1481 3116 1742 3264 
Q 2003 3413 2388 3413 
Q 3000 3413 3387 2928 
Q 3775 2444 3775 1663 
Q 3775 881 3387 395 
Q 3000 -91 2388 -91 
Q 2003 -91 1742 57 
Q 1481 206 1313 519 
L 1313 -997 
L 1856 -997 
L 1856 -1331 
L 184 -1331 
L 184 -997 
L 738 -997 
L 738 2988 
z
" transform="scale(0.015625)"/>
      </defs>
      <use xlink:href="#DejaVuSerif-41"/>
      <use xlink:href="#DejaVuSerif-6e" x="72.216797"/>
      <use xlink:href="#DejaVuSerif-74" x="136.621094"/>
      <use xlink:href="#DejaVuSerif-69" x="176.806641"/>
      <use xlink:href="#DejaVuSerif-70" x="208.789062"/>
      <use xlink:href="#DejaVuSerif-72" x="272.802734"/>
      <use xlink:href="#DejaVuSerif-6f" x="320.605469"/>
      <use xlink:href="#DejaVuSerif-74" x="380.810547"/>
      <use xlink:href="#DejaVuSerif-6f" x="420.996094"/>
      <use xlink:href="#DejaVuSerif-6e" x="481.201172"/>
     </g>
    </g>
   </g>
  </g>
 </g>
 <defs>
  <clipPath id="pa6da856b45">
   <rect x="147.28" y="28.08" width="679.69669" height="461.1525"/>
  </clipPath>
 </defs>
</svg>
