<?xml version="1.0" encoding="utf-8" standalone="no"?>
<!DOCTYPE svg PUBLIC "-//W3C//DTD SVG 1.1//EN"
  "http://www.w3.org/Graphics/SVG/1.1/DTD/svg11.dtd">
<svg xmlns:xlink="http://www.w3.org/1999/xlink" width="720pt" height="504pt" viewBox="0 0 720 504" xmlns="http://www.w3.org/2000/svg" version="1.1">
 <metadata>
  <rdf:RDF xmlns:dc="http://purl.org/dc/elements/1.1/" xmlns:cc="http://creativecommons.org/ns#" xmlns:rdf="http://www.w3.org/1999/02/22-rdf-syntax-ns#">
   <cc:Work>
    <dc:type rdf:resource="http://purl.org/dc/dcmitype/StillImage"/>
    <dc:date>2025-06-12T16:31:03.494688</dc:date>
    <dc:format>image/svg+xml</dc:format>
    <dc:creator>
     <cc:Agent>
      <dc:title>Matplotlib v3.7.2, https://matplotlib.org/</dc:title>
     </cc:Agent>
    </dc:creator>
   </cc:Work>
  </rdf:RDF>
 </metadata>
 <defs>
  <style type="text/css">*{stroke-linejoin: round; stroke-linecap: butt}</style>
 </defs>
 <g id="figure_1">
  <g id="patch_1">
   <path d="M 0 504 
L 720 504 
L 720 0 
L 0 0 
z
" style="fill: #ffffff"/>
  </g>
  <g id="axes_1">
   <g id="patch_2">
    <path d="M 120 417.2325 
L 684.118636 417.2325 
L 684.118636 28.08 
L 120 28.08 
z
" style="fill: #ffffff"/>
   </g>
   <g id="matplotlib.axis_1">
    <g id="xtick_1">
     <g id="line2d_1">
      <path d="M 145.641756 417.2325 
L 145.641756 28.08 
" clip-path="url(#p752e4f3a8c)" style="fill: none; stroke-dasharray: 3.7,1.6; stroke-dashoffset: 0; stroke: #b0b0b0; stroke-opacity: 0.5"/>
     </g>
     <g id="line2d_2">
      <defs>
       <path id="maaa97348e5" d="M 0 0 
L 0 -10 
" style="stroke: #000000; stroke-width: 2"/>
      </defs>
      <g>
       <use xlink:href="#maaa97348e5" x="145.641756" y="417.2325" style="stroke: #000000; stroke-width: 2"/>
      </g>
     </g>
     <g id="line2d_3">
      <defs>
       <path id="mfdc1e1eb82" d="M 0 0 
L 0 10 
" style="stroke: #000000; stroke-width: 2"/>
      </defs>
      <g>
       <use xlink:href="#mfdc1e1eb82" x="145.641756" y="28.08" style="stroke: #000000; stroke-width: 2"/>
      </g>
     </g>
     <g id="text_1">
      <!-- 0 -->
      <g transform="translate(137.370506 440.488438) scale(0.26 -0.26)">
       <defs>
        <path id="DejaVuSerif-30" d="M 2034 219 
Q 2513 219 2750 744 
Q 2988 1269 2988 2328 
Q 2988 3391 2750 3916 
Q 2513 4441 2034 4441 
Q 1556 4441 1318 3916 
Q 1081 3391 1081 2328 
Q 1081 1269 1318 744 
Q 1556 219 2034 219 
z
M 2034 -91 
Q 1275 -91 848 546 
Q 422 1184 422 2328 
Q 422 3475 848 4112 
Q 1275 4750 2034 4750 
Q 2797 4750 3222 4112 
Q 3647 3475 3647 2328 
Q 3647 1184 3222 546 
Q 2797 -91 2034 -91 
z
" transform="scale(0.015625)"/>
       </defs>
       <use xlink:href="#DejaVuSerif-30"/>
      </g>
     </g>
    </g>
    <g id="xtick_2">
     <g id="line2d_4">
      <path d="M 248.208781 417.2325 
L 248.208781 28.08 
" clip-path="url(#p752e4f3a8c)" style="fill: none; stroke-dasharray: 3.7,1.6; stroke-dashoffset: 0; stroke: #b0b0b0; stroke-opacity: 0.5"/>
     </g>
     <g id="line2d_5">
      <g>
       <use xlink:href="#maaa97348e5" x="248.208781" y="417.2325" style="stroke: #000000; stroke-width: 2"/>
      </g>
     </g>
     <g id="line2d_6">
      <g>
       <use xlink:href="#mfdc1e1eb82" x="248.208781" y="28.08" style="stroke: #000000; stroke-width: 2"/>
      </g>
     </g>
     <g id="text_2">
      <!-- 500 -->
      <g transform="translate(223.395031 440.488438) scale(0.26 -0.26)">
       <defs>
        <path id="DejaVuSerif-35" d="M 3219 4666 
L 3219 4153 
L 1081 4153 
L 1081 2816 
Q 1244 2928 1461 2984 
Q 1678 3041 1947 3041 
Q 2703 3041 3140 2622 
Q 3578 2203 3578 1478 
Q 3578 738 3136 323 
Q 2694 -91 1894 -91 
Q 1572 -91 1234 -12 
Q 897 66 544 225 
L 544 1131 
L 897 1131 
Q 925 688 1179 453 
Q 1434 219 1894 219 
Q 2388 219 2653 544 
Q 2919 869 2919 1478 
Q 2919 2084 2655 2407 
Q 2391 2731 1894 2731 
Q 1613 2731 1398 2631 
Q 1184 2531 1019 2322 
L 750 2322 
L 750 4666 
L 3219 4666 
z
" transform="scale(0.015625)"/>
       </defs>
       <use xlink:href="#DejaVuSerif-35"/>
       <use xlink:href="#DejaVuSerif-30" x="63.623047"/>
       <use xlink:href="#DejaVuSerif-30" x="127.246094"/>
      </g>
     </g>
    </g>
    <g id="xtick_3">
     <g id="line2d_7">
      <path d="M 350.775806 417.2325 
L 350.775806 28.08 
" clip-path="url(#p752e4f3a8c)" style="fill: none; stroke-dasharray: 3.7,1.6; stroke-dashoffset: 0; stroke: #b0b0b0; stroke-opacity: 0.5"/>
     </g>
     <g id="line2d_8">
      <g>
       <use xlink:href="#maaa97348e5" x="350.775806" y="417.2325" style="stroke: #000000; stroke-width: 2"/>
      </g>
     </g>
     <g id="line2d_9">
      <g>
       <use xlink:href="#mfdc1e1eb82" x="350.775806" y="28.08" style="stroke: #000000; stroke-width: 2"/>
      </g>
     </g>
     <g id="text_3">
      <!-- 1000 -->
      <g transform="translate(317.690806 440.488438) scale(0.26 -0.26)">
       <defs>
        <path id="DejaVuSerif-31" d="M 909 0 
L 909 331 
L 1722 331 
L 1722 4213 
L 781 3603 
L 781 4013 
L 1919 4750 
L 2350 4750 
L 2350 331 
L 3163 331 
L 3163 0 
L 909 0 
z
" transform="scale(0.015625)"/>
       </defs>
       <use xlink:href="#DejaVuSerif-31"/>
       <use xlink:href="#DejaVuSerif-30" x="63.623047"/>
       <use xlink:href="#DejaVuSerif-30" x="127.246094"/>
       <use xlink:href="#DejaVuSerif-30" x="190.869141"/>
      </g>
     </g>
    </g>
    <g id="xtick_4">
     <g id="line2d_10">
      <path d="M 453.342831 417.2325 
L 453.342831 28.08 
" clip-path="url(#p752e4f3a8c)" style="fill: none; stroke-dasharray: 3.7,1.6; stroke-dashoffset: 0; stroke: #b0b0b0; stroke-opacity: 0.5"/>
     </g>
     <g id="line2d_11">
      <g>
       <use xlink:href="#maaa97348e5" x="453.342831" y="417.2325" style="stroke: #000000; stroke-width: 2"/>
      </g>
     </g>
     <g id="line2d_12">
      <g>
       <use xlink:href="#mfdc1e1eb82" x="453.342831" y="28.08" style="stroke: #000000; stroke-width: 2"/>
      </g>
     </g>
     <g id="text_4">
      <!-- 1500 -->
      <g transform="translate(420.257831 440.488438) scale(0.26 -0.26)">
       <use xlink:href="#DejaVuSerif-31"/>
       <use xlink:href="#DejaVuSerif-35" x="63.623047"/>
       <use xlink:href="#DejaVuSerif-30" x="127.246094"/>
       <use xlink:href="#DejaVuSerif-30" x="190.869141"/>
      </g>
     </g>
    </g>
    <g id="xtick_5">
     <g id="line2d_13">
      <path d="M 555.909855 417.2325 
L 555.909855 28.08 
" clip-path="url(#p752e4f3a8c)" style="fill: none; stroke-dasharray: 3.7,1.6; stroke-dashoffset: 0; stroke: #b0b0b0; stroke-opacity: 0.5"/>
     </g>
     <g id="line2d_14">
      <g>
       <use xlink:href="#maaa97348e5" x="555.909855" y="417.2325" style="stroke: #000000; stroke-width: 2"/>
      </g>
     </g>
     <g id="line2d_15">
      <g>
       <use xlink:href="#mfdc1e1eb82" x="555.909855" y="28.08" style="stroke: #000000; stroke-width: 2"/>
      </g>
     </g>
     <g id="text_5">
      <!-- 2000 -->
      <g transform="translate(522.824855 440.488438) scale(0.26 -0.26)">
       <defs>
        <path id="DejaVuSerif-32" d="M 819 3553 
L 469 3553 
L 469 4384 
Q 803 4563 1142 4656 
Q 1481 4750 1806 4750 
Q 2534 4750 2956 4397 
Q 3378 4044 3378 3438 
Q 3378 2753 2422 1800 
Q 2347 1728 2309 1691 
L 1131 513 
L 3078 513 
L 3078 1088 
L 3444 1088 
L 3444 0 
L 434 0 
L 434 341 
L 1850 1753 
Q 2319 2222 2519 2614 
Q 2719 3006 2719 3438 
Q 2719 3909 2473 4175 
Q 2228 4441 1797 4441 
Q 1350 4441 1106 4219 
Q 863 3997 819 3553 
z
" transform="scale(0.015625)"/>
       </defs>
       <use xlink:href="#DejaVuSerif-32"/>
       <use xlink:href="#DejaVuSerif-30" x="63.623047"/>
       <use xlink:href="#DejaVuSerif-30" x="127.246094"/>
       <use xlink:href="#DejaVuSerif-30" x="190.869141"/>
      </g>
     </g>
    </g>
    <g id="xtick_6">
     <g id="line2d_16">
      <path d="M 658.47688 417.2325 
L 658.47688 28.08 
" clip-path="url(#p752e4f3a8c)" style="fill: none; stroke-dasharray: 3.7,1.6; stroke-dashoffset: 0; stroke: #b0b0b0; stroke-opacity: 0.5"/>
     </g>
     <g id="line2d_17">
      <g>
       <use xlink:href="#maaa97348e5" x="658.47688" y="417.2325" style="stroke: #000000; stroke-width: 2"/>
      </g>
     </g>
     <g id="line2d_18">
      <g>
       <use xlink:href="#mfdc1e1eb82" x="658.47688" y="28.08" style="stroke: #000000; stroke-width: 2"/>
      </g>
     </g>
     <g id="text_6">
      <!-- 2500 -->
      <g transform="translate(625.39188 440.488438) scale(0.26 -0.26)">
       <use xlink:href="#DejaVuSerif-32"/>
       <use xlink:href="#DejaVuSerif-35" x="63.623047"/>
       <use xlink:href="#DejaVuSerif-30" x="127.246094"/>
       <use xlink:href="#DejaVuSerif-30" x="190.869141"/>
      </g>
     </g>
    </g>
    <g id="text_7">
     <!-- $t$ (a.u.) -->
     <g transform="translate(358.639318 469.651563) scale(0.26 -0.26)">
      <defs>
       <path id="Cmmi10-74" d="M 397 519 
Q 397 613 416 697 
L 878 2534 
L 206 2534 
Q 141 2534 141 2619 
Q 166 2759 225 2759 
L 934 2759 
L 1191 3803 
Q 1216 3888 1291 3947 
Q 1366 4006 1459 4006 
Q 1541 4006 1595 3957 
Q 1650 3909 1650 3828 
Q 1650 3809 1648 3798 
Q 1647 3788 1644 3775 
L 1388 2759 
L 2047 2759 
Q 2113 2759 2113 2675 
Q 2109 2659 2100 2621 
Q 2091 2584 2075 2559 
Q 2059 2534 2028 2534 
L 1331 2534 
L 872 684 
Q 825 503 825 372 
Q 825 97 1013 97 
Q 1294 97 1511 361 
Q 1728 625 1844 941 
Q 1869 978 1894 978 
L 1972 978 
Q 1997 978 2012 961 
Q 2028 944 2028 922 
Q 2028 909 2022 903 
Q 1881 516 1612 222 
Q 1344 -72 997 -72 
Q 744 -72 570 93 
Q 397 259 397 519 
z
" transform="scale(0.015625)"/>
       <path id="DejaVuSerif-20" transform="scale(0.015625)"/>
       <path id="DejaVuSerif-28" d="M 2041 -997 
Q 1281 -656 893 83 
Q 506 822 506 1931 
Q 506 3044 893 3783 
Q 1281 4522 2041 4863 
L 2041 4556 
Q 1559 4225 1350 3623 
Q 1141 3022 1141 1931 
Q 1141 844 1350 242 
Q 1559 -359 2041 -691 
L 2041 -997 
z
" transform="scale(0.015625)"/>
       <path id="DejaVuSerif-61" d="M 2547 1044 
L 2547 1747 
L 1806 1747 
Q 1378 1747 1168 1562 
Q 959 1378 959 997 
Q 959 650 1171 447 
Q 1384 244 1747 244 
Q 2106 244 2326 466 
Q 2547 688 2547 1044 
z
M 3122 2075 
L 3122 331 
L 3634 331 
L 3634 0 
L 2547 0 
L 2547 359 
Q 2356 128 2106 18 
Q 1856 -91 1522 -91 
Q 969 -91 644 203 
Q 319 497 319 997 
Q 319 1513 691 1797 
Q 1063 2081 1741 2081 
L 2547 2081 
L 2547 2309 
Q 2547 2688 2317 2895 
Q 2088 3103 1672 3103 
Q 1328 3103 1125 2947 
Q 922 2791 872 2484 
L 575 2484 
L 575 3156 
Q 875 3284 1158 3348 
Q 1441 3413 1709 3413 
Q 2400 3413 2761 3070 
Q 3122 2728 3122 2075 
z
" transform="scale(0.015625)"/>
       <path id="DejaVuSerif-2e" d="M 603 325 
Q 603 500 722 622 
Q 841 744 1019 744 
Q 1191 744 1312 622 
Q 1434 500 1434 325 
Q 1434 153 1312 31 
Q 1191 -91 1019 -91 
Q 841 -91 722 29 
Q 603 150 603 325 
z
" transform="scale(0.015625)"/>
       <path id="DejaVuSerif-75" d="M 2266 3322 
L 3341 3322 
L 3341 331 
L 3884 331 
L 3884 0 
L 2766 0 
L 2766 588 
Q 2606 256 2353 82 
Q 2100 -91 1766 -91 
Q 1213 -91 952 223 
Q 691 538 691 1209 
L 691 2988 
L 172 2988 
L 172 3322 
L 1269 3322 
L 1269 1388 
Q 1269 781 1417 556 
Q 1566 331 1947 331 
Q 2347 331 2556 625 
Q 2766 919 2766 1478 
L 2766 2988 
L 2266 2988 
L 2266 3322 
z
" transform="scale(0.015625)"/>
       <path id="DejaVuSerif-29" d="M 453 -997 
L 453 -691 
Q 934 -359 1145 242 
Q 1356 844 1356 1931 
Q 1356 3022 1145 3623 
Q 934 4225 453 4556 
L 453 4863 
Q 1216 4522 1603 3783 
Q 1991 3044 1991 1931 
Q 1991 822 1603 83 
Q 1216 -656 453 -997 
z
" transform="scale(0.015625)"/>
      </defs>
      <use xlink:href="#Cmmi10-74" transform="translate(0 0.015625)"/>
      <use xlink:href="#DejaVuSerif-20" transform="translate(36.083984 0.015625)"/>
      <use xlink:href="#DejaVuSerif-28" transform="translate(67.871094 0.015625)"/>
      <use xlink:href="#DejaVuSerif-61" transform="translate(106.884766 0.015625)"/>
      <use xlink:href="#DejaVuSerif-2e" transform="translate(166.503906 0.015625)"/>
      <use xlink:href="#DejaVuSerif-75" transform="translate(198.291016 0.015625)"/>
      <use xlink:href="#DejaVuSerif-2e" transform="translate(262.695312 0.015625)"/>
      <use xlink:href="#DejaVuSerif-29" transform="translate(294.482422 0.015625)"/>
     </g>
    </g>
   </g>
   <g id="matplotlib.axis_2">
    <g id="ytick_1">
     <g id="line2d_19">
      <path d="M 120 417.2325 
L 684.118636 417.2325 
" clip-path="url(#p752e4f3a8c)" style="fill: none; stroke-dasharray: 3.7,1.6; stroke-dashoffset: 0; stroke: #b0b0b0; stroke-opacity: 0.5"/>
     </g>
     <g id="line2d_20">
      <defs>
       <path id="m94817aaae9" d="M 0 0 
L 10 0 
" style="stroke: #000000; stroke-width: 2"/>
      </defs>
      <g>
       <use xlink:href="#m94817aaae9" x="120" y="417.2325" style="stroke: #000000; stroke-width: 2"/>
      </g>
     </g>
     <g id="line2d_21">
      <defs>
       <path id="mf150bf0853" d="M 0 0 
L -10 0 
" style="stroke: #000000; stroke-width: 2"/>
      </defs>
      <g>
       <use xlink:href="#mf150bf0853" x="684.118636" y="417.2325" style="stroke: #000000; stroke-width: 2"/>
      </g>
     </g>
     <g id="text_8">
      <!-- −2 -->
      <g transform="translate(78.170313 427.110469) scale(0.26 -0.26)">
       <defs>
        <path id="DejaVuSerif-2212" d="M 678 2259 
L 4684 2259 
L 4684 1753 
L 678 1753 
L 678 2259 
z
" transform="scale(0.015625)"/>
       </defs>
       <use xlink:href="#DejaVuSerif-2212"/>
       <use xlink:href="#DejaVuSerif-32" x="83.789062"/>
      </g>
     </g>
    </g>
    <g id="ytick_2">
     <g id="line2d_22">
      <path d="M 120 319.944375 
L 684.118636 319.944375 
" clip-path="url(#p752e4f3a8c)" style="fill: none; stroke-dasharray: 3.7,1.6; stroke-dashoffset: 0; stroke: #b0b0b0; stroke-opacity: 0.5"/>
     </g>
     <g id="line2d_23">
      <g>
       <use xlink:href="#m94817aaae9" x="120" y="319.944375" style="stroke: #000000; stroke-width: 2"/>
      </g>
     </g>
     <g id="line2d_24">
      <g>
       <use xlink:href="#mf150bf0853" x="684.118636" y="319.944375" style="stroke: #000000; stroke-width: 2"/>
      </g>
     </g>
     <g id="text_9">
      <!-- −1 -->
      <g transform="translate(78.170313 329.822344) scale(0.26 -0.26)">
       <use xlink:href="#DejaVuSerif-2212"/>
       <use xlink:href="#DejaVuSerif-31" x="83.789062"/>
      </g>
     </g>
    </g>
    <g id="ytick_3">
     <g id="line2d_25">
      <path d="M 120 222.65625 
L 684.118636 222.65625 
" clip-path="url(#p752e4f3a8c)" style="fill: none; stroke-dasharray: 3.7,1.6; stroke-dashoffset: 0; stroke: #b0b0b0; stroke-opacity: 0.5"/>
     </g>
     <g id="line2d_26">
      <g>
       <use xlink:href="#m94817aaae9" x="120" y="222.65625" style="stroke: #000000; stroke-width: 2"/>
      </g>
     </g>
     <g id="line2d_27">
      <g>
       <use xlink:href="#mf150bf0853" x="684.118636" y="222.65625" style="stroke: #000000; stroke-width: 2"/>
      </g>
     </g>
     <g id="text_10">
      <!-- 0 -->
      <g transform="translate(99.9575 232.534219) scale(0.26 -0.26)">
       <use xlink:href="#DejaVuSerif-30"/>
      </g>
     </g>
    </g>
    <g id="ytick_4">
     <g id="line2d_28">
      <path d="M 120 125.368125 
L 684.118636 125.368125 
" clip-path="url(#p752e4f3a8c)" style="fill: none; stroke-dasharray: 3.7,1.6; stroke-dashoffset: 0; stroke: #b0b0b0; stroke-opacity: 0.5"/>
     </g>
     <g id="line2d_29">
      <g>
       <use xlink:href="#m94817aaae9" x="120" y="125.368125" style="stroke: #000000; stroke-width: 2"/>
      </g>
     </g>
     <g id="line2d_30">
      <g>
       <use xlink:href="#mf150bf0853" x="684.118636" y="125.368125" style="stroke: #000000; stroke-width: 2"/>
      </g>
     </g>
     <g id="text_11">
      <!-- 1 -->
      <g transform="translate(99.9575 135.246094) scale(0.26 -0.26)">
       <use xlink:href="#DejaVuSerif-31"/>
      </g>
     </g>
    </g>
    <g id="ytick_5">
     <g id="line2d_31">
      <path d="M 120 28.08 
L 684.118636 28.08 
" clip-path="url(#p752e4f3a8c)" style="fill: none; stroke-dasharray: 3.7,1.6; stroke-dashoffset: 0; stroke: #b0b0b0; stroke-opacity: 0.5"/>
     </g>
     <g id="line2d_32">
      <g>
       <use xlink:href="#m94817aaae9" x="120" y="28.08" style="stroke: #000000; stroke-width: 2"/>
      </g>
     </g>
     <g id="line2d_33">
      <g>
       <use xlink:href="#mf150bf0853" x="684.118636" y="28.08" style="stroke: #000000; stroke-width: 2"/>
      </g>
     </g>
     <g id="text_12">
      <!-- 2 -->
      <g transform="translate(99.9575 37.957969) scale(0.26 -0.26)">
       <use xlink:href="#DejaVuSerif-32"/>
      </g>
     </g>
    </g>
    <g id="text_13">
     <!-- $E_i(t)$ (a.u.) -->
     <g transform="translate(67.670313 289.73625) rotate(-90) scale(0.26 -0.26)">
      <defs>
       <path id="Cmmi10-45" d="M 300 0 
Q 238 0 238 84 
Q 241 100 250 139 
Q 259 178 276 201 
Q 294 225 319 225 
Q 709 225 863 269 
Q 947 297 984 441 
L 1863 3956 
Q 1875 4019 1875 4044 
Q 1875 4113 1797 4122 
Q 1678 4147 1338 4147 
Q 1275 4147 1275 4231 
Q 1278 4247 1287 4286 
Q 1297 4325 1314 4348 
Q 1331 4372 1356 4372 
L 4825 4372 
Q 4891 4372 4891 4288 
L 4738 2963 
Q 4738 2947 4714 2926 
Q 4691 2906 4672 2906 
L 4616 2906 
Q 4550 2906 4550 2988 
Q 4588 3300 4588 3450 
Q 4588 3706 4500 3848 
Q 4413 3991 4267 4053 
Q 4122 4116 3945 4131 
Q 3769 4147 3481 4147 
L 2753 4147 
Q 2578 4147 2522 4117 
Q 2466 4088 2419 3928 
L 2034 2381 
L 2534 2381 
Q 2859 2381 3025 2426 
Q 3191 2472 3287 2615 
Q 3384 2759 3463 3072 
Q 3469 3094 3486 3111 
Q 3503 3128 3525 3128 
L 3584 3128 
Q 3647 3128 3647 3047 
L 3250 1466 
Q 3238 1409 3188 1409 
L 3128 1409 
Q 3066 1409 3066 1491 
Q 3128 1747 3128 1869 
Q 3128 2056 2959 2106 
Q 2791 2156 2509 2156 
L 1978 2156 
L 1544 416 
Q 1516 338 1516 275 
Q 1516 225 1734 225 
L 2509 225 
Q 2972 225 3259 297 
Q 3547 369 3736 526 
Q 3925 684 4062 928 
Q 4200 1172 4397 1638 
Q 4409 1678 4453 1678 
L 4513 1678 
Q 4538 1678 4556 1656 
Q 4575 1634 4575 1606 
Q 4575 1594 4569 1581 
L 3909 38 
Q 3897 0 3859 0 
L 300 0 
z
" transform="scale(0.015625)"/>
       <path id="Cmmi10-69" d="M 500 459 
Q 500 578 550 709 
L 1069 2088 
Q 1153 2322 1153 2472 
Q 1153 2663 1013 2663 
Q 759 2663 595 2402 
Q 431 2141 353 1819 
Q 341 1778 300 1778 
L 225 1778 
Q 172 1778 172 1838 
L 172 1856 
Q 275 2238 487 2533 
Q 700 2828 1025 2828 
Q 1253 2828 1411 2678 
Q 1569 2528 1569 2297 
Q 1569 2178 1516 2047 
L 997 672 
Q 909 459 909 288 
Q 909 97 1056 97 
Q 1306 97 1473 364 
Q 1641 631 1709 941 
Q 1722 978 1759 978 
L 1838 978 
Q 1863 978 1878 961 
Q 1894 944 1894 922 
Q 1894 916 1888 903 
Q 1800 541 1583 234 
Q 1366 -72 1044 -72 
Q 819 -72 659 83 
Q 500 238 500 459 
z
M 1222 3878 
Q 1222 4013 1334 4122 
Q 1447 4231 1581 4231 
Q 1691 4231 1761 4164 
Q 1831 4097 1831 3994 
Q 1831 3850 1717 3742 
Q 1603 3634 1466 3634 
Q 1363 3634 1292 3704 
Q 1222 3775 1222 3878 
z
" transform="scale(0.015625)"/>
       <path id="Cmr10-28" d="M 1984 -1588 
Q 1628 -1306 1370 -942 
Q 1113 -578 948 -165 
Q 784 247 703 697 
Q 622 1147 622 1600 
Q 622 2059 703 2509 
Q 784 2959 951 3375 
Q 1119 3791 1378 4153 
Q 1638 4516 1984 4788 
Q 1984 4800 2016 4800 
L 2075 4800 
Q 2094 4800 2109 4783 
Q 2125 4766 2125 4744 
Q 2125 4716 2113 4703 
Q 1800 4397 1592 4047 
Q 1384 3697 1257 3301 
Q 1131 2906 1075 2482 
Q 1019 2059 1019 1600 
Q 1019 -434 2106 -1491 
Q 2125 -1509 2125 -1544 
Q 2125 -1559 2108 -1579 
Q 2091 -1600 2075 -1600 
L 2016 -1600 
Q 1984 -1600 1984 -1588 
z
" transform="scale(0.015625)"/>
       <path id="Cmr10-29" d="M 416 -1600 
Q 359 -1600 359 -1544 
Q 359 -1516 372 -1503 
Q 1466 -434 1466 1600 
Q 1466 3634 384 4691 
Q 359 4706 359 4744 
Q 359 4766 376 4783 
Q 394 4800 416 4800 
L 475 4800 
Q 494 4800 506 4788 
Q 966 4425 1272 3906 
Q 1578 3388 1720 2800 
Q 1863 2213 1863 1600 
Q 1863 1147 1786 708 
Q 1709 269 1542 -157 
Q 1375 -584 1119 -945 
Q 863 -1306 506 -1588 
Q 494 -1600 475 -1600 
L 416 -1600 
z
" transform="scale(0.015625)"/>
      </defs>
      <use xlink:href="#Cmmi10-45" transform="translate(0 0.015625)"/>
      <use xlink:href="#Cmmi10-69" transform="translate(73.779297 -16.990625) scale(0.7)"/>
      <use xlink:href="#Cmr10-28" transform="translate(104.25332 0.015625)"/>
      <use xlink:href="#Cmmi10-74" transform="translate(143.07168 0.015625)"/>
      <use xlink:href="#Cmr10-29" transform="translate(179.155664 0.015625)"/>
      <use xlink:href="#DejaVuSerif-20" transform="translate(217.974023 0.015625)"/>
      <use xlink:href="#DejaVuSerif-28" transform="translate(249.761133 0.015625)"/>
      <use xlink:href="#DejaVuSerif-61" transform="translate(288.774805 0.015625)"/>
      <use xlink:href="#DejaVuSerif-2e" transform="translate(348.393945 0.015625)"/>
      <use xlink:href="#DejaVuSerif-75" transform="translate(380.181055 0.015625)"/>
      <use xlink:href="#DejaVuSerif-2e" transform="translate(444.585352 0.015625)"/>
      <use xlink:href="#DejaVuSerif-29" transform="translate(476.372461 0.015625)"/>
     </g>
    </g>
   </g>
   <g id="line2d_34">
    <path d="M 0 0 
" clip-path="url(#p752e4f3a8c)" style="fill: none; stroke: #1f77b4; stroke-width: 3; stroke-linecap: square"/>
   </g>
   <g id="line2d_35">
    <path d="M 224.346839 505 
L 224.697421 475.170679 
L 224.872351 505 
M 227.434272 505 
L 228.29086 481.649686 
L 228.303956 505 
M 564.018298 505 
L 564.020761 498.933651 
L 564.115253 505 
M 567.586342 505 
L 567.614201 491.033351 
L 567.626387 505 
M 569.061278 505 
L 569.154246 469.152181 
L 569.242175 505 
M 571.666672 505 
L 571.720988 474.024728 
L 571.980936 505 
M 573.728993 505 
L 573.774382 470.063173 
L 574.09292 505 
M 579.780964 505 
L 580.447912 488.140307 
L 580.961261 478.294298 
L 581.474609 472.438074 
L 581.987958 474.874828 
L 583.528003 485.400348 
L 584.041352 487.838996 
L 584.5547 489.28523 
L 585.068049 489.636374 
L 585.581397 488.904881 
L 586.094746 487.214987 
L 587.121442 481.758219 
L 588.148139 475.883353 
L 588.661488 477.279778 
L 590.201533 489.350576 
L 591.22823 495.895087 
L 591.741579 498.286105 
L 592.254927 499.910637 
L 592.768276 500.67617 
L 593.281624 500.538916 
L 593.794973 499.513817 
L 594.308321 497.670498 
L 594.82167 495.121374 
L 595.848367 488.488801 
L 597.388412 477.569102 
L 597.90176 475.849943 
L 598.415109 476.905171 
L 601.4952 489.067705 
L 602.521897 491.666946 
L 603.035245 492.420677 
L 603.548594 492.771664 
L 604.061942 492.717439 
L 604.575291 492.279783 
L 605.088639 491.498093 
L 606.115336 489.15288 
L 608.682078 482.338414 
L 609.195427 481.372947 
L 609.708775 480.704707 
L 610.222124 481.04936 
L 610.735472 483.482946 
L 611.762169 492.706023 
L 612.851807 505 
M 645.168329 505 
L 645.643168 504.359405 
L 646.156517 503.342788 
L 646.669865 501.950881 
L 647.696562 497.958641 
L 648.723259 492.482905 
L 650.263305 482.538758 
L 651.290002 475.889677 
L 651.80335 473.384899 
L 652.316698 472.907963 
L 652.830047 474.658908 
L 654.370092 482.74342 
L 655.396789 487.804199 
L 655.910138 489.74376 
L 656.423486 491.076621 
L 656.936835 491.669005 
L 657.450183 491.427857 
L 657.963532 490.320184 
L 658.47688 488.378009 
L 658.47688 488.378009 
" clip-path="url(#p752e4f3a8c)" style="fill: none; stroke-dasharray: 11.1,4.8; stroke-dashoffset: 0; stroke: #ff7f0e; stroke-width: 3"/>
   </g>
   <g id="line2d_36">
    <path d="M 146.010373 -1 
L 146.155105 189.537948 
L 146.668453 205.699617 
L 147.181802 211.259605 
L 147.69515 214.095043 
L 148.208499 215.838545 
L 148.721847 216.974225 
L 149.235196 217.790652 
L 150.261892 218.855296 
L 151.288589 219.554928 
L 152.828635 220.211038 
L 154.882029 220.756122 
L 157.448771 221.168967 
L 161.555559 221.552869 
L 167.715741 221.860652 
L 178.496058 222.1215 
L 198.0033 222.320623 
L 238.044481 222.466055 
L 340.714176 222.566152 
L 658.47688 222.621977 
L 658.47688 222.621977 
" clip-path="url(#p752e4f3a8c)" style="fill: none; stroke-dasharray: 19.2,4.8,3,4.8; stroke-dashoffset: 0; stroke: #2ca02c; stroke-width: 3"/>
   </g>
   <g id="line2d_37">
    <path d="M 145.641756 92.473457 
L 146.155105 222.65625 
L 146.668453 222.65625 
L 147.181802 166.924267 
L 147.69515 222.655832 
L 148.721847 222.656248 
L 149.235196 220.948382 
L 149.748544 222.65625 
L 150.261892 222.65625 
L 150.491396 -1 
M 151.059102 -1 
L 151.288589 222.627957 
L 152.315286 222.65625 
L 152.828635 145.62542 
L 153.341983 222.65555 
L 154.36868 222.65625 
L 154.882029 212.917729 
L 155.395377 222.656235 
L 156.422074 222.645746 
L 156.935423 221.991296 
L 157.448771 222.65625 
L 157.96212 222.65625 
L 158.454167 -1 
M 158.496784 -1 
L 158.988816 222.489972 
L 159.502165 222.65625 
L 160.015513 222.65625 
L 160.283968 -1 
M 160.773811 -1 
L 161.04221 222.559439 
L 162.068907 222.65625 
L 162.582256 98.871272 
L 163.095604 222.605479 
L 164.122301 222.65625 
L 164.63565 128.317524 
L 165.148998 222.646592 
L 166.175695 222.65625 
L 166.689044 50.255226 
L 167.202392 222.644526 
L 168.229089 222.65625 
L 168.499229 -1 
M 168.985698 -1 
L 169.255786 222.564516 
L 170.282483 222.65625 
L 170.437829 -1 
M 171.154367 -1 
L 171.30918 221.556709 
L 171.822528 222.65625 
L 172.335877 222.65625 
L 172.849225 160.014303 
L 173.362574 219.592141 
L 173.875922 222.65623 
L 174.902619 222.65625 
L 175.415968 214.198296 
L 175.929316 222.656076 
L 176.956013 222.65625 
L 177.469361 146.577097 
L 177.98271 222.652499 
L 179.009407 222.65625 
L 179.522755 219.00696 
L 180.036104 221.925442 
L 180.549452 222.65625 
L 181.576149 222.65625 
L 182.089498 183.040099 
L 182.602846 222.655554 
L 183.629543 222.65625 
L 183.958117 -1 
M 184.328113 -1 
L 184.65624 221.812865 
L 185.169589 222.65625 
L 185.682937 222.65625 
L 186.196286 222.476272 
L 186.709634 207.544038 
L 187.222982 222.65296 
L 188.249679 222.65625 
L 188.763028 128.961457 
L 189.276376 222.413094 
L 189.789725 222.656245 
L 190.816422 222.65625 
L 191.32977 213.303541 
L 191.843119 222.655579 
L 192.869816 222.65625 
L 193.383164 220.340467 
L 193.896513 221.889519 
L 194.409861 222.656249 
L 195.436558 222.65625 
L 195.855241 -1 
M 196.044589 -1 
L 196.463255 222.608486 
L 198.0033 222.65625 
L 198.516649 135.841534 
L 199.029997 222.653561 
L 200.570043 222.65625 
L 201.083391 191.352881 
L 201.59674 222.656096 
L 202.623437 222.65625 
L 203.005246 -1 
M 203.271927 -1 
L 203.650134 214.640333 
L 204.163482 222.656241 
L 205.190179 222.622819 
L 205.703527 220.866778 
L 206.216876 222.581408 
L 207.243573 222.65625 
L 207.626996 -1 
M 207.88685 -1 
L 208.27027 222.648225 
L 209.810315 222.65625 
L 210.323664 176.540448 
L 210.837012 222.65623 
L 211.350361 222.65625 
L 211.496265 -1 
M 212.282779 -1 
L 212.377058 125.716585 
L 212.890406 222.383054 
L 213.403755 222.65625 
L 213.917103 222.65625 
L 214.129371 -1 
M 214.738 -1 
L 214.9438 211.279964 
L 215.457148 222.656249 
L 216.483845 222.65625 
L 216.997194 221.266304 
L 217.510542 215.161142 
L 218.023891 222.655593 
L 218.537239 222.656248 
L 218.803027 -1 
M 219.298149 -1 
L 219.563936 222.656246 
L 224.697421 222.597508 
L 225.210769 146.531896 
L 225.724118 222.656248 
L 227.777512 222.655812 
L 228.29086 222.513477 
L 228.804209 222.65625 
L 371.515084 222.65625 
L 372.028433 222.227384 
L 372.541781 222.65625 
L 384.862144 222.65625 
L 429.010113 222.65625 
L 429.523461 222.514078 
L 430.03681 222.65625 
L 481.371657 222.65625 
L 481.885006 222.510103 
L 482.398354 222.65625 
L 518.332747 222.65625 
L 518.846096 222.046892 
L 519.359444 222.65625 
L 539.380035 222.65625 
L 539.893383 195.578421 
L 540.406732 222.65625 
L 540.92008 222.159169 
L 541.433428 222.65625 
L 545.026868 222.65625 
L 561.454019 222.65625 
L 561.850265 -1 
M 562.090296 -1 
L 562.480716 208.92312 
L 562.994064 222.65625 
L 563.507413 222.655712 
L 564.020761 220.819137 
L 564.53411 222.65625 
L 567.100852 222.65625 
L 567.614201 202.145577 
L 568.127549 222.65625 
L 571.20764 222.65625 
L 571.720988 222.078736 
L 572.234337 222.65625 
L 572.747685 188.373177 
L 573.261034 222.65625 
L 575.314428 222.65625 
L 626.649275 222.656012 
L 627.162623 222.423063 
L 627.675972 222.640017 
L 631.269411 222.65625 
L 651.290002 222.595125 
L 652.316698 222.399274 
L 653.343395 222.625508 
L 655.910138 222.656241 
L 658.47688 222.656234 
L 658.47688 222.656234 
" clip-path="url(#p752e4f3a8c)" style="fill: none; stroke-dasharray: 3,4.95; stroke-dashoffset: 0; stroke: #d62728; stroke-width: 3"/>
   </g>
   <g id="line2d_38">
    <path d="M 145.641756 222.560258 
L 146.668453 222.65625 
L 658.47688 222.65625 
L 658.47688 222.65625 
" clip-path="url(#p752e4f3a8c)" style="fill: none; stroke-dasharray: 9,3,3,3; stroke-dashoffset: 0; stroke: #9467bd; stroke-width: 3"/>
   </g>
   <g id="line2d_39">
    <path d="M 145.733067 505 
L 145.770143 -1 
L 145.770143 -1 
" clip-path="url(#p752e4f3a8c)" style="fill: none; stroke: #808080; stroke-width: 3; stroke-linecap: square"/>
   </g>
   <g id="patch_3">
    <path d="M 120 417.2325 
L 120 28.08 
" style="fill: none; stroke: #000000; stroke-width: 2; stroke-linejoin: miter; stroke-linecap: square"/>
   </g>
   <g id="patch_4">
    <path d="M 684.118636 417.2325 
L 684.118636 28.08 
" style="fill: none; stroke: #000000; stroke-width: 2; stroke-linejoin: miter; stroke-linecap: square"/>
   </g>
   <g id="patch_5">
    <path d="M 120 417.2325 
L 684.118636 417.2325 
" style="fill: none; stroke: #000000; stroke-width: 2; stroke-linejoin: miter; stroke-linecap: square"/>
   </g>
   <g id="patch_6">
    <path d="M 120 28.08 
L 684.118636 28.08 
" style="fill: none; stroke: #000000; stroke-width: 2; stroke-linejoin: miter; stroke-linecap: square"/>
   </g>
   <g id="legend_1">
    <g id="patch_7">
     <path d="M 527.591136 409.2325 
L 672.918636 409.2325 
Q 676.118636 409.2325 676.118636 406.0325 
L 676.118636 266.495 
Q 676.118636 263.295 672.918636 263.295 
L 527.591136 263.295 
Q 524.391136 263.295 524.391136 266.495 
L 524.391136 406.0325 
Q 524.391136 409.2325 527.591136 409.2325 
z
" style="fill: #ffffff; opacity: 0.8; stroke: #cccccc; stroke-linejoin: miter"/>
    </g>
    <g id="line2d_40">
     <path d="M 530.791136 276.2525 
L 546.791136 276.2525 
L 562.791136 276.2525 
" style="fill: none; stroke: #1f77b4; stroke-width: 3; stroke-linecap: square"/>
    </g>
    <g id="text_14">
     <!-- Kinetic -->
     <g transform="translate(575.591136 281.8525) scale(0.16 -0.16)">
      <defs>
       <path id="DejaVuSerif-4b" d="M 353 0 
L 353 331 
L 947 331 
L 947 4331 
L 353 4331 
L 353 4666 
L 2175 4666 
L 2175 4331 
L 1581 4331 
L 1581 2566 
L 3591 4331 
L 3084 4331 
L 3084 4666 
L 4634 4666 
L 4634 4331 
L 4109 4331 
L 2106 2572 
L 4347 331 
L 4878 331 
L 4878 0 
L 3794 0 
L 1581 2216 
L 1581 331 
L 2175 331 
L 2175 0 
L 353 0 
z
" transform="scale(0.015625)"/>
       <path id="DejaVuSerif-69" d="M 622 4353 
Q 622 4497 726 4603 
Q 831 4709 978 4709 
Q 1122 4709 1226 4603 
Q 1331 4497 1331 4353 
Q 1331 4206 1228 4103 
Q 1125 4000 978 4000 
Q 831 4000 726 4103 
Q 622 4206 622 4353 
z
M 1356 331 
L 1900 331 
L 1900 0 
L 231 0 
L 231 331 
L 781 331 
L 781 2988 
L 231 2988 
L 231 3322 
L 1356 3322 
L 1356 331 
z
" transform="scale(0.015625)"/>
       <path id="DejaVuSerif-6e" d="M 263 0 
L 263 331 
L 781 331 
L 781 2988 
L 231 2988 
L 231 3322 
L 1356 3322 
L 1356 2731 
Q 1516 3069 1770 3241 
Q 2025 3413 2363 3413 
Q 2913 3413 3172 3097 
Q 3431 2781 3431 2113 
L 3431 331 
L 3944 331 
L 3944 0 
L 2356 0 
L 2356 331 
L 2853 331 
L 2853 1931 
Q 2853 2541 2703 2767 
Q 2553 2994 2175 2994 
Q 1775 2994 1565 2701 
Q 1356 2409 1356 1850 
L 1356 331 
L 1856 331 
L 1856 0 
L 263 0 
z
" transform="scale(0.015625)"/>
       <path id="DejaVuSerif-65" d="M 3469 1600 
L 991 1600 
L 991 1575 
Q 991 903 1244 561 
Q 1497 219 1991 219 
Q 2369 219 2611 417 
Q 2853 616 2950 1006 
L 3413 1006 
Q 3275 459 2904 184 
Q 2534 -91 1931 -91 
Q 1203 -91 761 389 
Q 319 869 319 1663 
Q 319 2450 753 2931 
Q 1188 3413 1894 3413 
Q 2647 3413 3050 2948 
Q 3453 2484 3469 1600 
z
M 2791 1931 
Q 2772 2513 2545 2808 
Q 2319 3103 1894 3103 
Q 1497 3103 1269 2806 
Q 1041 2509 991 1931 
L 2791 1931 
z
" transform="scale(0.015625)"/>
       <path id="DejaVuSerif-74" d="M 691 2988 
L 184 2988 
L 184 3322 
L 691 3322 
L 691 4353 
L 1269 4353 
L 1269 3322 
L 2350 3322 
L 2350 2988 
L 1269 2988 
L 1269 878 
Q 1269 456 1350 337 
Q 1431 219 1650 219 
Q 1875 219 1978 351 
Q 2081 484 2088 781 
L 2522 781 
Q 2497 328 2275 118 
Q 2053 -91 1600 -91 
Q 1103 -91 897 129 
Q 691 350 691 878 
L 691 2988 
z
" transform="scale(0.015625)"/>
       <path id="DejaVuSerif-63" d="M 3291 997 
Q 3169 466 2822 187 
Q 2475 -91 1925 -91 
Q 1200 -91 759 389 
Q 319 869 319 1663 
Q 319 2459 759 2936 
Q 1200 3413 1925 3413 
Q 2241 3413 2553 3339 
Q 2866 3266 3181 3116 
L 3181 2266 
L 2847 2266 
Q 2781 2703 2561 2903 
Q 2341 3103 1931 3103 
Q 1466 3103 1228 2742 
Q 991 2381 991 1663 
Q 991 944 1227 581 
Q 1463 219 1931 219 
Q 2303 219 2525 412 
Q 2747 606 2828 997 
L 3291 997 
z
" transform="scale(0.015625)"/>
      </defs>
      <use xlink:href="#DejaVuSerif-4b"/>
      <use xlink:href="#DejaVuSerif-69" x="74.707031"/>
      <use xlink:href="#DejaVuSerif-6e" x="106.689453"/>
      <use xlink:href="#DejaVuSerif-65" x="171.09375"/>
      <use xlink:href="#DejaVuSerif-74" x="230.273438"/>
      <use xlink:href="#DejaVuSerif-69" x="270.458984"/>
      <use xlink:href="#DejaVuSerif-63" x="302.441406"/>
     </g>
    </g>
    <g id="line2d_41">
     <path d="M 530.791136 299.7375 
L 546.791136 299.7375 
L 562.791136 299.7375 
" style="fill: none; stroke-dasharray: 11.1,4.8; stroke-dashoffset: 0; stroke: #ff7f0e; stroke-width: 3"/>
    </g>
    <g id="text_15">
     <!-- $e^-$-nucleus -->
     <g transform="translate(575.591136 305.3375) scale(0.16 -0.16)">
      <defs>
       <path id="Cmmi10-65" d="M 1288 -72 
Q 981 -72 751 87 
Q 522 247 401 517 
Q 281 788 281 1088 
Q 281 1544 511 1945 
Q 741 2347 1134 2587 
Q 1528 2828 1978 2828 
Q 2253 2828 2458 2686 
Q 2663 2544 2663 2278 
Q 2663 1909 2369 1729 
Q 2075 1550 1706 1508 
Q 1338 1466 891 1466 
L 872 1466 
Q 769 1084 769 813 
Q 769 528 900 312 
Q 1031 97 1300 97 
Q 1681 97 2032 272 
Q 2384 447 2606 756 
Q 2625 775 2656 775 
Q 2688 775 2720 739 
Q 2753 703 2753 672 
Q 2753 647 2741 634 
Q 2506 306 2109 117 
Q 1713 -72 1288 -72 
z
M 909 1631 
Q 1281 1631 1597 1665 
Q 1913 1700 2169 1839 
Q 2425 1978 2425 2272 
Q 2425 2391 2359 2480 
Q 2294 2569 2189 2616 
Q 2084 2663 1972 2663 
Q 1700 2663 1483 2516 
Q 1266 2369 1125 2133 
Q 984 1897 909 1631 
z
" transform="scale(0.015625)"/>
       <path id="Cmsy10-a1" d="M 653 1472 
Q 600 1472 565 1512 
Q 531 1553 531 1600 
Q 531 1647 565 1687 
Q 600 1728 653 1728 
L 4325 1728 
Q 4375 1728 4408 1687 
Q 4441 1647 4441 1600 
Q 4441 1553 4408 1512 
Q 4375 1472 4325 1472 
L 653 1472 
z
" transform="scale(0.015625)"/>
       <path id="DejaVuSerif-2d" d="M 281 1959 
L 1881 1959 
L 1881 1472 
L 281 1472 
L 281 1959 
z
" transform="scale(0.015625)"/>
       <path id="DejaVuSerif-6c" d="M 1313 331 
L 1856 331 
L 1856 0 
L 184 0 
L 184 331 
L 738 331 
L 738 4531 
L 184 4531 
L 184 4863 
L 1313 4863 
L 1313 331 
z
" transform="scale(0.015625)"/>
       <path id="DejaVuSerif-73" d="M 359 184 
L 359 959 
L 691 959 
Q 703 588 923 403 
Q 1144 219 1575 219 
Q 1963 219 2166 364 
Q 2369 509 2369 788 
Q 2369 1006 2220 1140 
Q 2072 1275 1594 1428 
L 1178 1569 
Q 750 1706 558 1912 
Q 366 2119 366 2438 
Q 366 2894 700 3153 
Q 1034 3413 1625 3413 
Q 1888 3413 2178 3344 
Q 2469 3275 2778 3144 
L 2778 2419 
L 2447 2419 
Q 2434 2741 2221 2922 
Q 2009 3103 1644 3103 
Q 1281 3103 1095 2975 
Q 909 2847 909 2591 
Q 909 2381 1050 2254 
Q 1191 2128 1613 1997 
L 2069 1856 
Q 2541 1709 2748 1489 
Q 2956 1269 2956 922 
Q 2956 450 2595 179 
Q 2234 -91 1600 -91 
Q 1278 -91 972 -22 
Q 666 47 359 184 
z
" transform="scale(0.015625)"/>
      </defs>
      <use xlink:href="#Cmmi10-65" transform="translate(0 0.015625)"/>
      <use xlink:href="#Cmsy10-a1" transform="translate(65.078672 38.279688) scale(0.7)"/>
      <use xlink:href="#DejaVuSerif-2d" transform="translate(138.126914 0.015625)"/>
      <use xlink:href="#DejaVuSerif-6e" transform="translate(171.915977 0.015625)"/>
      <use xlink:href="#DejaVuSerif-75" transform="translate(236.320273 0.015625)"/>
      <use xlink:href="#DejaVuSerif-63" transform="translate(300.72457 0.015625)"/>
      <use xlink:href="#DejaVuSerif-6c" transform="translate(356.73043 0.015625)"/>
      <use xlink:href="#DejaVuSerif-65" transform="translate(388.712852 0.015625)"/>
      <use xlink:href="#DejaVuSerif-75" transform="translate(447.892539 0.015625)"/>
      <use xlink:href="#DejaVuSerif-73" transform="translate(512.296836 0.015625)"/>
     </g>
    </g>
    <g id="line2d_42">
     <path d="M 530.791136 323.2225 
L 546.791136 323.2225 
L 562.791136 323.2225 
" style="fill: none; stroke-dasharray: 19.2,4.8,3,4.8; stroke-dashoffset: 0; stroke: #2ca02c; stroke-width: 3"/>
    </g>
    <g id="text_16">
     <!-- $e^-$-$e^-$ -->
     <g transform="translate(575.591136 328.8225) scale(0.16 -0.16)">
      <use xlink:href="#Cmmi10-65" transform="translate(0 0.835938)"/>
      <use xlink:href="#Cmsy10-a1" transform="translate(65.078672 39.1) scale(0.7)"/>
      <use xlink:href="#DejaVuSerif-2d" transform="translate(138.126914 0.835938)"/>
      <use xlink:href="#Cmmi10-65" transform="translate(171.915977 0.835938)"/>
      <use xlink:href="#Cmsy10-a1" transform="translate(236.994648 39.1) scale(0.7)"/>
     </g>
    </g>
    <g id="line2d_43">
     <path d="M 530.791136 346.7075 
L 546.791136 346.7075 
L 562.791136 346.7075 
" style="fill: none; stroke-dasharray: 3,4.95; stroke-dashoffset: 0; stroke: #d62728; stroke-width: 3"/>
    </g>
    <g id="text_17">
     <!-- Heisenberg -->
     <g transform="translate(575.591136 352.3075) scale(0.16 -0.16)">
      <defs>
       <path id="DejaVuSerif-48" d="M 353 0 
L 353 331 
L 947 331 
L 947 4331 
L 353 4331 
L 353 4666 
L 2175 4666 
L 2175 4331 
L 1581 4331 
L 1581 2719 
L 4000 2719 
L 4000 4331 
L 3406 4331 
L 3406 4666 
L 5228 4666 
L 5228 4331 
L 4634 4331 
L 4634 331 
L 5228 331 
L 5228 0 
L 3406 0 
L 3406 331 
L 4000 331 
L 4000 2338 
L 1581 2338 
L 1581 331 
L 2175 331 
L 2175 0 
L 353 0 
z
" transform="scale(0.015625)"/>
       <path id="DejaVuSerif-62" d="M 738 331 
L 738 4531 
L 184 4531 
L 184 4863 
L 1313 4863 
L 1313 2803 
Q 1481 3116 1742 3264 
Q 2003 3413 2388 3413 
Q 3000 3413 3387 2928 
Q 3775 2444 3775 1663 
Q 3775 881 3387 395 
Q 3000 -91 2388 -91 
Q 2003 -91 1742 57 
Q 1481 206 1313 519 
L 1313 0 
L 184 0 
L 184 331 
L 738 331 
z
M 1313 1497 
Q 1313 897 1542 583 
Q 1772 269 2209 269 
Q 2650 269 2876 622 
Q 3103 975 3103 1663 
Q 3103 2353 2876 2703 
Q 2650 3053 2209 3053 
Q 1772 3053 1542 2737 
Q 1313 2422 1313 1825 
L 1313 1497 
z
" transform="scale(0.015625)"/>
       <path id="DejaVuSerif-72" d="M 3059 3328 
L 3059 2497 
L 2728 2497 
Q 2713 2744 2591 2866 
Q 2469 2988 2234 2988 
Q 1809 2988 1582 2694 
Q 1356 2400 1356 1850 
L 1356 331 
L 2022 331 
L 2022 0 
L 263 0 
L 263 331 
L 781 331 
L 781 2994 
L 231 2994 
L 231 3322 
L 1356 3322 
L 1356 2731 
Q 1525 3078 1790 3245 
Q 2056 3413 2438 3413 
Q 2578 3413 2733 3391 
Q 2888 3369 3059 3328 
z
" transform="scale(0.015625)"/>
       <path id="DejaVuSerif-67" d="M 3359 2988 
L 3359 72 
Q 3359 -644 2965 -1033 
Q 2572 -1422 1844 -1422 
Q 1516 -1422 1216 -1362 
Q 916 -1303 641 -1184 
L 641 -488 
L 941 -488 
Q 997 -813 1206 -963 
Q 1416 -1113 1806 -1113 
Q 2313 -1113 2548 -827 
Q 2784 -541 2784 72 
L 2784 519 
Q 2616 206 2355 57 
Q 2094 -91 1709 -91 
Q 1097 -91 708 395 
Q 319 881 319 1663 
Q 319 2444 706 2928 
Q 1094 3413 1709 3413 
Q 2094 3413 2355 3264 
Q 2616 3116 2784 2803 
L 2784 3322 
L 3909 3322 
L 3909 2988 
L 3359 2988 
z
M 2784 1825 
Q 2784 2422 2554 2737 
Q 2325 3053 1888 3053 
Q 1444 3053 1217 2703 
Q 991 2353 991 1663 
Q 991 975 1217 622 
Q 1444 269 1888 269 
Q 2325 269 2554 583 
Q 2784 897 2784 1497 
L 2784 1825 
z
" transform="scale(0.015625)"/>
      </defs>
      <use xlink:href="#DejaVuSerif-48"/>
      <use xlink:href="#DejaVuSerif-65" x="87.207031"/>
      <use xlink:href="#DejaVuSerif-69" x="146.386719"/>
      <use xlink:href="#DejaVuSerif-73" x="178.369141"/>
      <use xlink:href="#DejaVuSerif-65" x="229.6875"/>
      <use xlink:href="#DejaVuSerif-6e" x="288.867188"/>
      <use xlink:href="#DejaVuSerif-62" x="353.271484"/>
      <use xlink:href="#DejaVuSerif-65" x="417.285156"/>
      <use xlink:href="#DejaVuSerif-72" x="476.464844"/>
      <use xlink:href="#DejaVuSerif-67" x="524.267578"/>
     </g>
    </g>
    <g id="line2d_44">
     <path d="M 530.791136 370.42 
L 546.791136 370.42 
L 562.791136 370.42 
" style="fill: none; stroke-dasharray: 9,3,3,3; stroke-dashoffset: 0; stroke: #9467bd; stroke-width: 3"/>
    </g>
    <g id="text_18">
     <!-- Pauli -->
     <g transform="translate(575.591136 376.02) scale(0.16 -0.16)">
      <defs>
       <path id="DejaVuSerif-50" d="M 1581 2375 
L 2406 2375 
Q 2872 2375 3115 2626 
Q 3359 2878 3359 3353 
Q 3359 3831 3115 4081 
Q 2872 4331 2406 4331 
L 1581 4331 
L 1581 2375 
z
M 353 0 
L 353 331 
L 947 331 
L 947 4331 
L 353 4331 
L 353 4666 
L 2559 4666 
Q 3259 4666 3668 4311 
Q 4078 3956 4078 3353 
Q 4078 2753 3668 2397 
Q 3259 2041 2559 2041 
L 1581 2041 
L 1581 331 
L 2303 331 
L 2303 0 
L 353 0 
z
" transform="scale(0.015625)"/>
      </defs>
      <use xlink:href="#DejaVuSerif-50"/>
      <use xlink:href="#DejaVuSerif-61" x="62.785156"/>
      <use xlink:href="#DejaVuSerif-75" x="122.404297"/>
      <use xlink:href="#DejaVuSerif-6c" x="186.808594"/>
      <use xlink:href="#DejaVuSerif-69" x="218.791016"/>
     </g>
    </g>
    <g id="line2d_45">
     <path d="M 530.791136 393.905 
L 546.791136 393.905 
L 562.791136 393.905 
" style="fill: none; stroke: #808080; stroke-width: 3; stroke-linecap: square"/>
    </g>
    <g id="text_19">
     <!-- Total -->
     <g transform="translate(575.591136 399.505) scale(0.16 -0.16)">
      <defs>
       <path id="DejaVuSerif-54" d="M 1222 0 
L 1222 331 
L 1819 331 
L 1819 4294 
L 447 4294 
L 447 3566 
L 63 3566 
L 63 4666 
L 4206 4666 
L 4206 3566 
L 3822 3566 
L 3822 4294 
L 2450 4294 
L 2450 331 
L 3047 331 
L 3047 0 
L 1222 0 
z
" transform="scale(0.015625)"/>
       <path id="DejaVuSerif-6f" d="M 1925 219 
Q 2388 219 2623 584 
Q 2859 950 2859 1663 
Q 2859 2375 2623 2739 
Q 2388 3103 1925 3103 
Q 1463 3103 1227 2739 
Q 991 2375 991 1663 
Q 991 950 1228 584 
Q 1466 219 1925 219 
z
M 1925 -91 
Q 1200 -91 759 389 
Q 319 869 319 1663 
Q 319 2456 758 2934 
Q 1197 3413 1925 3413 
Q 2653 3413 3092 2934 
Q 3531 2456 3531 1663 
Q 3531 869 3092 389 
Q 2653 -91 1925 -91 
z
" transform="scale(0.015625)"/>
      </defs>
      <use xlink:href="#DejaVuSerif-54"/>
      <use xlink:href="#DejaVuSerif-6f" x="58.949219"/>
      <use xlink:href="#DejaVuSerif-74" x="119.154297"/>
      <use xlink:href="#DejaVuSerif-61" x="159.339844"/>
      <use xlink:href="#DejaVuSerif-6c" x="218.958984"/>
     </g>
    </g>
   </g>
  </g>
 </g>
 <defs>
  <clipPath id="p752e4f3a8c">
   <rect x="120" y="28.08" width="564.118636" height="389.1525"/>
  </clipPath>
 </defs>
</svg>
