<?xml version="1.0" encoding="utf-8" standalone="no"?>
<!DOCTYPE svg PUBLIC "-//W3C//DTD SVG 1.1//EN"
  "http://www.w3.org/Graphics/SVG/1.1/DTD/svg11.dtd">
<svg xmlns:xlink="http://www.w3.org/1999/xlink" width="864pt" height="576pt" viewBox="0 0 864 576" xmlns="http://www.w3.org/2000/svg" version="1.1">
 <metadata>
  <rdf:RDF xmlns:dc="http://purl.org/dc/elements/1.1/" xmlns:cc="http://creativecommons.org/ns#" xmlns:rdf="http://www.w3.org/1999/02/22-rdf-syntax-ns#">
   <cc:Work>
    <dc:type rdf:resource="http://purl.org/dc/dcmitype/StillImage"/>
    <dc:date>2025-06-12T16:26:06.401111</dc:date>
    <dc:format>image/svg+xml</dc:format>
    <dc:creator>
     <cc:Agent>
      <dc:title>Matplotlib v3.7.2, https://matplotlib.org/</dc:title>
     </cc:Agent>
    </dc:creator>
   </cc:Work>
  </rdf:RDF>
 </metadata>
 <defs>
  <style type="text/css">*{stroke-linejoin: round; stroke-linecap: butt}</style>
 </defs>
 <g id="figure_1">
  <g id="patch_1">
   <path d="M 0 576 
L 864 576 
L 864 0 
L 0 0 
z
" style="fill: #ffffff"/>
  </g>
  <g id="axes_1">
   <g id="patch_2">
    <path d="M 147.28 489.2325 
L 833.191364 489.2325 
L 833.191364 30.682754 
L 147.28 30.682754 
z
" style="fill: #ffffff"/>
   </g>
   <g id="matplotlib.axis_1">
    <g id="xtick_1">
     <g id="line2d_1">
      <path d="M 178.457789 489.2325 
L 178.457789 30.682754 
" clip-path="url(#p171aa6781c)" style="fill: none; stroke-dasharray: 3.7,1.6; stroke-dashoffset: 0; stroke: #b0b0b0; stroke-opacity: 0.5"/>
     </g>
     <g id="line2d_2">
      <defs>
       <path id="meeb88f7aa3" d="M 0 0 
L 0 -10 
" style="stroke: #000000; stroke-width: 2"/>
      </defs>
      <g>
       <use xlink:href="#meeb88f7aa3" x="178.457789" y="489.2325" style="stroke: #000000; stroke-width: 2"/>
      </g>
     </g>
     <g id="line2d_3">
      <defs>
       <path id="m4d6f79cc86" d="M 0 0 
L 0 10 
" style="stroke: #000000; stroke-width: 2"/>
      </defs>
      <g>
       <use xlink:href="#m4d6f79cc86" x="178.457789" y="30.682754" style="stroke: #000000; stroke-width: 2"/>
      </g>
     </g>
     <g id="text_1">
      <!-- 0 -->
      <g transform="translate(170.186539 512.488438) scale(0.26 -0.26)">
       <defs>
        <path id="DejaVuSerif-30" d="M 2034 219 
Q 2513 219 2750 744 
Q 2988 1269 2988 2328 
Q 2988 3391 2750 3916 
Q 2513 4441 2034 4441 
Q 1556 4441 1318 3916 
Q 1081 3391 1081 2328 
Q 1081 1269 1318 744 
Q 1556 219 2034 219 
z
M 2034 -91 
Q 1275 -91 848 546 
Q 422 1184 422 2328 
Q 422 3475 848 4112 
Q 1275 4750 2034 4750 
Q 2797 4750 3222 4112 
Q 3647 3475 3647 2328 
Q 3647 1184 3222 546 
Q 2797 -91 2034 -91 
z
" transform="scale(0.015625)"/>
       </defs>
       <use xlink:href="#DejaVuSerif-30"/>
      </g>
     </g>
    </g>
    <g id="xtick_2">
     <g id="line2d_4">
      <path d="M 303.168946 489.2325 
L 303.168946 30.682754 
" clip-path="url(#p171aa6781c)" style="fill: none; stroke-dasharray: 3.7,1.6; stroke-dashoffset: 0; stroke: #b0b0b0; stroke-opacity: 0.5"/>
     </g>
     <g id="line2d_5">
      <g>
       <use xlink:href="#meeb88f7aa3" x="303.168946" y="489.2325" style="stroke: #000000; stroke-width: 2"/>
      </g>
     </g>
     <g id="line2d_6">
      <g>
       <use xlink:href="#m4d6f79cc86" x="303.168946" y="30.682754" style="stroke: #000000; stroke-width: 2"/>
      </g>
     </g>
     <g id="text_2">
      <!-- 500 -->
      <g transform="translate(278.355196 512.488438) scale(0.26 -0.26)">
       <defs>
        <path id="DejaVuSerif-35" d="M 3219 4666 
L 3219 4153 
L 1081 4153 
L 1081 2816 
Q 1244 2928 1461 2984 
Q 1678 3041 1947 3041 
Q 2703 3041 3140 2622 
Q 3578 2203 3578 1478 
Q 3578 738 3136 323 
Q 2694 -91 1894 -91 
Q 1572 -91 1234 -12 
Q 897 66 544 225 
L 544 1131 
L 897 1131 
Q 925 688 1179 453 
Q 1434 219 1894 219 
Q 2388 219 2653 544 
Q 2919 869 2919 1478 
Q 2919 2084 2655 2407 
Q 2391 2731 1894 2731 
Q 1613 2731 1398 2631 
Q 1184 2531 1019 2322 
L 750 2322 
L 750 4666 
L 3219 4666 
z
" transform="scale(0.015625)"/>
       </defs>
       <use xlink:href="#DejaVuSerif-35"/>
       <use xlink:href="#DejaVuSerif-30" x="63.623047"/>
       <use xlink:href="#DejaVuSerif-30" x="127.246094"/>
      </g>
     </g>
    </g>
    <g id="xtick_3">
     <g id="line2d_7">
      <path d="M 427.880103 489.2325 
L 427.880103 30.682754 
" clip-path="url(#p171aa6781c)" style="fill: none; stroke-dasharray: 3.7,1.6; stroke-dashoffset: 0; stroke: #b0b0b0; stroke-opacity: 0.5"/>
     </g>
     <g id="line2d_8">
      <g>
       <use xlink:href="#meeb88f7aa3" x="427.880103" y="489.2325" style="stroke: #000000; stroke-width: 2"/>
      </g>
     </g>
     <g id="line2d_9">
      <g>
       <use xlink:href="#m4d6f79cc86" x="427.880103" y="30.682754" style="stroke: #000000; stroke-width: 2"/>
      </g>
     </g>
     <g id="text_3">
      <!-- 1000 -->
      <g transform="translate(394.795103 512.488438) scale(0.26 -0.26)">
       <defs>
        <path id="DejaVuSerif-31" d="M 909 0 
L 909 331 
L 1722 331 
L 1722 4213 
L 781 3603 
L 781 4013 
L 1919 4750 
L 2350 4750 
L 2350 331 
L 3163 331 
L 3163 0 
L 909 0 
z
" transform="scale(0.015625)"/>
       </defs>
       <use xlink:href="#DejaVuSerif-31"/>
       <use xlink:href="#DejaVuSerif-30" x="63.623047"/>
       <use xlink:href="#DejaVuSerif-30" x="127.246094"/>
       <use xlink:href="#DejaVuSerif-30" x="190.869141"/>
      </g>
     </g>
    </g>
    <g id="xtick_4">
     <g id="line2d_10">
      <path d="M 552.59126 489.2325 
L 552.59126 30.682754 
" clip-path="url(#p171aa6781c)" style="fill: none; stroke-dasharray: 3.7,1.6; stroke-dashoffset: 0; stroke: #b0b0b0; stroke-opacity: 0.5"/>
     </g>
     <g id="line2d_11">
      <g>
       <use xlink:href="#meeb88f7aa3" x="552.59126" y="489.2325" style="stroke: #000000; stroke-width: 2"/>
      </g>
     </g>
     <g id="line2d_12">
      <g>
       <use xlink:href="#m4d6f79cc86" x="552.59126" y="30.682754" style="stroke: #000000; stroke-width: 2"/>
      </g>
     </g>
     <g id="text_4">
      <!-- 1500 -->
      <g transform="translate(519.50626 512.488438) scale(0.26 -0.26)">
       <use xlink:href="#DejaVuSerif-31"/>
       <use xlink:href="#DejaVuSerif-35" x="63.623047"/>
       <use xlink:href="#DejaVuSerif-30" x="127.246094"/>
       <use xlink:href="#DejaVuSerif-30" x="190.869141"/>
      </g>
     </g>
    </g>
    <g id="xtick_5">
     <g id="line2d_13">
      <path d="M 677.302417 489.2325 
L 677.302417 30.682754 
" clip-path="url(#p171aa6781c)" style="fill: none; stroke-dasharray: 3.7,1.6; stroke-dashoffset: 0; stroke: #b0b0b0; stroke-opacity: 0.5"/>
     </g>
     <g id="line2d_14">
      <g>
       <use xlink:href="#meeb88f7aa3" x="677.302417" y="489.2325" style="stroke: #000000; stroke-width: 2"/>
      </g>
     </g>
     <g id="line2d_15">
      <g>
       <use xlink:href="#m4d6f79cc86" x="677.302417" y="30.682754" style="stroke: #000000; stroke-width: 2"/>
      </g>
     </g>
     <g id="text_5">
      <!-- 2000 -->
      <g transform="translate(644.217417 512.488438) scale(0.26 -0.26)">
       <defs>
        <path id="DejaVuSerif-32" d="M 819 3553 
L 469 3553 
L 469 4384 
Q 803 4563 1142 4656 
Q 1481 4750 1806 4750 
Q 2534 4750 2956 4397 
Q 3378 4044 3378 3438 
Q 3378 2753 2422 1800 
Q 2347 1728 2309 1691 
L 1131 513 
L 3078 513 
L 3078 1088 
L 3444 1088 
L 3444 0 
L 434 0 
L 434 341 
L 1850 1753 
Q 2319 2222 2519 2614 
Q 2719 3006 2719 3438 
Q 2719 3909 2473 4175 
Q 2228 4441 1797 4441 
Q 1350 4441 1106 4219 
Q 863 3997 819 3553 
z
" transform="scale(0.015625)"/>
       </defs>
       <use xlink:href="#DejaVuSerif-32"/>
       <use xlink:href="#DejaVuSerif-30" x="63.623047"/>
       <use xlink:href="#DejaVuSerif-30" x="127.246094"/>
       <use xlink:href="#DejaVuSerif-30" x="190.869141"/>
      </g>
     </g>
    </g>
    <g id="xtick_6">
     <g id="line2d_16">
      <path d="M 802.013574 489.2325 
L 802.013574 30.682754 
" clip-path="url(#p171aa6781c)" style="fill: none; stroke-dasharray: 3.7,1.6; stroke-dashoffset: 0; stroke: #b0b0b0; stroke-opacity: 0.5"/>
     </g>
     <g id="line2d_17">
      <g>
       <use xlink:href="#meeb88f7aa3" x="802.013574" y="489.2325" style="stroke: #000000; stroke-width: 2"/>
      </g>
     </g>
     <g id="line2d_18">
      <g>
       <use xlink:href="#m4d6f79cc86" x="802.013574" y="30.682754" style="stroke: #000000; stroke-width: 2"/>
      </g>
     </g>
     <g id="text_6">
      <!-- 2500 -->
      <g transform="translate(768.928574 512.488438) scale(0.26 -0.26)">
       <use xlink:href="#DejaVuSerif-32"/>
       <use xlink:href="#DejaVuSerif-35" x="63.623047"/>
       <use xlink:href="#DejaVuSerif-30" x="127.246094"/>
       <use xlink:href="#DejaVuSerif-30" x="190.869141"/>
      </g>
     </g>
    </g>
    <g id="text_7">
     <!-- $t$ (a.u.) -->
     <g transform="translate(446.815682 541.651562) scale(0.26 -0.26)">
      <defs>
       <path id="Cmmi10-74" d="M 397 519 
Q 397 613 416 697 
L 878 2534 
L 206 2534 
Q 141 2534 141 2619 
Q 166 2759 225 2759 
L 934 2759 
L 1191 3803 
Q 1216 3888 1291 3947 
Q 1366 4006 1459 4006 
Q 1541 4006 1595 3957 
Q 1650 3909 1650 3828 
Q 1650 3809 1648 3798 
Q 1647 3788 1644 3775 
L 1388 2759 
L 2047 2759 
Q 2113 2759 2113 2675 
Q 2109 2659 2100 2621 
Q 2091 2584 2075 2559 
Q 2059 2534 2028 2534 
L 1331 2534 
L 872 684 
Q 825 503 825 372 
Q 825 97 1013 97 
Q 1294 97 1511 361 
Q 1728 625 1844 941 
Q 1869 978 1894 978 
L 1972 978 
Q 1997 978 2012 961 
Q 2028 944 2028 922 
Q 2028 909 2022 903 
Q 1881 516 1612 222 
Q 1344 -72 997 -72 
Q 744 -72 570 93 
Q 397 259 397 519 
z
" transform="scale(0.015625)"/>
       <path id="DejaVuSerif-20" transform="scale(0.015625)"/>
       <path id="DejaVuSerif-28" d="M 2041 -997 
Q 1281 -656 893 83 
Q 506 822 506 1931 
Q 506 3044 893 3783 
Q 1281 4522 2041 4863 
L 2041 4556 
Q 1559 4225 1350 3623 
Q 1141 3022 1141 1931 
Q 1141 844 1350 242 
Q 1559 -359 2041 -691 
L 2041 -997 
z
" transform="scale(0.015625)"/>
       <path id="DejaVuSerif-61" d="M 2547 1044 
L 2547 1747 
L 1806 1747 
Q 1378 1747 1168 1562 
Q 959 1378 959 997 
Q 959 650 1171 447 
Q 1384 244 1747 244 
Q 2106 244 2326 466 
Q 2547 688 2547 1044 
z
M 3122 2075 
L 3122 331 
L 3634 331 
L 3634 0 
L 2547 0 
L 2547 359 
Q 2356 128 2106 18 
Q 1856 -91 1522 -91 
Q 969 -91 644 203 
Q 319 497 319 997 
Q 319 1513 691 1797 
Q 1063 2081 1741 2081 
L 2547 2081 
L 2547 2309 
Q 2547 2688 2317 2895 
Q 2088 3103 1672 3103 
Q 1328 3103 1125 2947 
Q 922 2791 872 2484 
L 575 2484 
L 575 3156 
Q 875 3284 1158 3348 
Q 1441 3413 1709 3413 
Q 2400 3413 2761 3070 
Q 3122 2728 3122 2075 
z
" transform="scale(0.015625)"/>
       <path id="DejaVuSerif-2e" d="M 603 325 
Q 603 500 722 622 
Q 841 744 1019 744 
Q 1191 744 1312 622 
Q 1434 500 1434 325 
Q 1434 153 1312 31 
Q 1191 -91 1019 -91 
Q 841 -91 722 29 
Q 603 150 603 325 
z
" transform="scale(0.015625)"/>
       <path id="DejaVuSerif-75" d="M 2266 3322 
L 3341 3322 
L 3341 331 
L 3884 331 
L 3884 0 
L 2766 0 
L 2766 588 
Q 2606 256 2353 82 
Q 2100 -91 1766 -91 
Q 1213 -91 952 223 
Q 691 538 691 1209 
L 691 2988 
L 172 2988 
L 172 3322 
L 1269 3322 
L 1269 1388 
Q 1269 781 1417 556 
Q 1566 331 1947 331 
Q 2347 331 2556 625 
Q 2766 919 2766 1478 
L 2766 2988 
L 2266 2988 
L 2266 3322 
z
" transform="scale(0.015625)"/>
       <path id="DejaVuSerif-29" d="M 453 -997 
L 453 -691 
Q 934 -359 1145 242 
Q 1356 844 1356 1931 
Q 1356 3022 1145 3623 
Q 934 4225 453 4556 
L 453 4863 
Q 1216 4522 1603 3783 
Q 1991 3044 1991 1931 
Q 1991 822 1603 83 
Q 1216 -656 453 -997 
z
" transform="scale(0.015625)"/>
      </defs>
      <use xlink:href="#Cmmi10-74" transform="translate(0 0.015625)"/>
      <use xlink:href="#DejaVuSerif-20" transform="translate(36.083984 0.015625)"/>
      <use xlink:href="#DejaVuSerif-28" transform="translate(67.871094 0.015625)"/>
      <use xlink:href="#DejaVuSerif-61" transform="translate(106.884766 0.015625)"/>
      <use xlink:href="#DejaVuSerif-2e" transform="translate(166.503906 0.015625)"/>
      <use xlink:href="#DejaVuSerif-75" transform="translate(198.291016 0.015625)"/>
      <use xlink:href="#DejaVuSerif-2e" transform="translate(262.695312 0.015625)"/>
      <use xlink:href="#DejaVuSerif-29" transform="translate(294.482422 0.015625)"/>
     </g>
    </g>
   </g>
   <g id="matplotlib.axis_2">
    <g id="ytick_1">
     <g id="line2d_19">
      <path d="M 147.28 409.750264 
L 833.191364 409.750264 
" clip-path="url(#p171aa6781c)" style="fill: none; stroke-dasharray: 3.7,1.6; stroke-dashoffset: 0; stroke: #b0b0b0; stroke-opacity: 0.5"/>
     </g>
     <g id="line2d_20">
      <defs>
       <path id="m507fe97180" d="M 0 0 
L 10 0 
" style="stroke: #000000; stroke-width: 2"/>
      </defs>
      <g>
       <use xlink:href="#m507fe97180" x="147.28" y="409.750264" style="stroke: #000000; stroke-width: 2"/>
      </g>
     </g>
     <g id="line2d_21">
      <defs>
       <path id="m27e43dbc87" d="M 0 0 
L -10 0 
" style="stroke: #000000; stroke-width: 2"/>
      </defs>
      <g>
       <use xlink:href="#m27e43dbc87" x="833.191364" y="409.750264" style="stroke: #000000; stroke-width: 2"/>
      </g>
     </g>
     <g id="text_8">
      <!-- 2 -->
      <g transform="translate(127.2375 419.628232) scale(0.26 -0.26)">
       <use xlink:href="#DejaVuSerif-32"/>
      </g>
     </g>
    </g>
    <g id="ytick_2">
     <g id="line2d_22">
      <path d="M 147.28 325.513569 
L 833.191364 325.513569 
" clip-path="url(#p171aa6781c)" style="fill: none; stroke-dasharray: 3.7,1.6; stroke-dashoffset: 0; stroke: #b0b0b0; stroke-opacity: 0.5"/>
     </g>
     <g id="line2d_23">
      <g>
       <use xlink:href="#m507fe97180" x="147.28" y="325.513569" style="stroke: #000000; stroke-width: 2"/>
      </g>
     </g>
     <g id="line2d_24">
      <g>
       <use xlink:href="#m27e43dbc87" x="833.191364" y="325.513569" style="stroke: #000000; stroke-width: 2"/>
      </g>
     </g>
     <g id="text_9">
      <!-- 4 -->
      <g transform="translate(127.2375 335.391538) scale(0.26 -0.26)">
       <defs>
        <path id="DejaVuSerif-34" d="M 2234 1581 
L 2234 4063 
L 641 1581 
L 2234 1581 
z
M 3609 0 
L 1484 0 
L 1484 331 
L 2234 331 
L 2234 1247 
L 197 1247 
L 197 1588 
L 2241 4750 
L 2859 4750 
L 2859 1581 
L 3750 1581 
L 3750 1247 
L 2859 1247 
L 2859 331 
L 3609 331 
L 3609 0 
z
" transform="scale(0.015625)"/>
       </defs>
       <use xlink:href="#DejaVuSerif-34"/>
      </g>
     </g>
    </g>
    <g id="ytick_3">
     <g id="line2d_25">
      <path d="M 147.28 241.276875 
L 833.191364 241.276875 
" clip-path="url(#p171aa6781c)" style="fill: none; stroke-dasharray: 3.7,1.6; stroke-dashoffset: 0; stroke: #b0b0b0; stroke-opacity: 0.5"/>
     </g>
     <g id="line2d_26">
      <g>
       <use xlink:href="#m507fe97180" x="147.28" y="241.276875" style="stroke: #000000; stroke-width: 2"/>
      </g>
     </g>
     <g id="line2d_27">
      <g>
       <use xlink:href="#m27e43dbc87" x="833.191364" y="241.276875" style="stroke: #000000; stroke-width: 2"/>
      </g>
     </g>
     <g id="text_10">
      <!-- 6 -->
      <g transform="translate(127.2375 251.154843) scale(0.26 -0.26)">
       <defs>
        <path id="DejaVuSerif-36" d="M 2094 219 
Q 2534 219 2771 542 
Q 3009 866 3009 1472 
Q 3009 2078 2771 2401 
Q 2534 2725 2094 2725 
Q 1647 2725 1412 2412 
Q 1178 2100 1178 1509 
Q 1178 888 1415 553 
Q 1653 219 2094 219 
z
M 1075 2569 
Q 1288 2803 1556 2918 
Q 1825 3034 2163 3034 
Q 2859 3034 3264 2615 
Q 3669 2197 3669 1472 
Q 3669 763 3233 336 
Q 2797 -91 2069 -91 
Q 1278 -91 853 498 
Q 428 1088 428 2181 
Q 428 3406 931 4078 
Q 1434 4750 2350 4750 
Q 2597 4750 2869 4703 
Q 3141 4656 3425 4563 
L 3425 3794 
L 3072 3794 
Q 3034 4109 2831 4275 
Q 2628 4441 2284 4441 
Q 1678 4441 1381 3981 
Q 1084 3522 1075 2569 
z
" transform="scale(0.015625)"/>
       </defs>
       <use xlink:href="#DejaVuSerif-36"/>
      </g>
     </g>
    </g>
    <g id="ytick_4">
     <g id="line2d_28">
      <path d="M 147.28 157.04018 
L 833.191364 157.04018 
" clip-path="url(#p171aa6781c)" style="fill: none; stroke-dasharray: 3.7,1.6; stroke-dashoffset: 0; stroke: #b0b0b0; stroke-opacity: 0.5"/>
     </g>
     <g id="line2d_29">
      <g>
       <use xlink:href="#m507fe97180" x="147.28" y="157.04018" style="stroke: #000000; stroke-width: 2"/>
      </g>
     </g>
     <g id="line2d_30">
      <g>
       <use xlink:href="#m27e43dbc87" x="833.191364" y="157.04018" style="stroke: #000000; stroke-width: 2"/>
      </g>
     </g>
     <g id="text_11">
      <!-- 8 -->
      <g transform="translate(127.2375 166.918149) scale(0.26 -0.26)">
       <defs>
        <path id="DejaVuSerif-38" d="M 2981 1275 
Q 2981 1775 2732 2051 
Q 2484 2328 2034 2328 
Q 1584 2328 1336 2051 
Q 1088 1775 1088 1275 
Q 1088 772 1336 495 
Q 1584 219 2034 219 
Q 2484 219 2732 495 
Q 2981 772 2981 1275 
z
M 2853 3541 
Q 2853 3966 2637 4203 
Q 2422 4441 2034 4441 
Q 1650 4441 1433 4203 
Q 1216 3966 1216 3541 
Q 1216 3113 1433 2875 
Q 1650 2638 2034 2638 
Q 2422 2638 2637 2875 
Q 2853 3113 2853 3541 
z
M 2516 2484 
Q 3047 2413 3344 2092 
Q 3641 1772 3641 1275 
Q 3641 619 3225 264 
Q 2809 -91 2034 -91 
Q 1263 -91 845 264 
Q 428 619 428 1275 
Q 428 1772 725 2092 
Q 1022 2413 1556 2484 
Q 1084 2569 832 2842 
Q 581 3116 581 3541 
Q 581 4103 968 4426 
Q 1356 4750 2034 4750 
Q 2713 4750 3100 4426 
Q 3488 4103 3488 3541 
Q 3488 3116 3236 2842 
Q 2984 2569 2516 2484 
z
" transform="scale(0.015625)"/>
       </defs>
       <use xlink:href="#DejaVuSerif-38"/>
      </g>
     </g>
    </g>
    <g id="ytick_5">
     <g id="line2d_31">
      <path d="M 147.28 72.803486 
L 833.191364 72.803486 
" clip-path="url(#p171aa6781c)" style="fill: none; stroke-dasharray: 3.7,1.6; stroke-dashoffset: 0; stroke: #b0b0b0; stroke-opacity: 0.5"/>
     </g>
     <g id="line2d_32">
      <g>
       <use xlink:href="#m507fe97180" x="147.28" y="72.803486" style="stroke: #000000; stroke-width: 2"/>
      </g>
     </g>
     <g id="line2d_33">
      <g>
       <use xlink:href="#m27e43dbc87" x="833.191364" y="72.803486" style="stroke: #000000; stroke-width: 2"/>
      </g>
     </g>
     <g id="text_12">
      <!-- 10 -->
      <g transform="translate(110.695 82.681455) scale(0.26 -0.26)">
       <use xlink:href="#DejaVuSerif-31"/>
       <use xlink:href="#DejaVuSerif-30" x="63.623047"/>
      </g>
     </g>
    </g>
    <g id="text_13">
     <!-- $|\vec{r}_i|$ (a.u.) -->
     <g transform="translate(100.195 316.247627) rotate(-90) scale(0.26 -0.26)">
      <defs>
       <path id="Cmsy10-6a" d="M 763 -1484 
L 763 4684 
Q 763 4734 800 4767 
Q 838 4800 891 4800 
Q 938 4800 978 4767 
Q 1019 4734 1019 4684 
L 1019 -1484 
Q 1019 -1534 978 -1567 
Q 938 -1600 891 -1600 
Q 838 -1600 800 -1567 
Q 763 -1534 763 -1484 
z
" transform="scale(0.015625)"/>
       <path id="Cmmi10-7e" d="M 1281 3809 
Q 1231 3809 1198 3846 
Q 1166 3884 1166 3938 
Q 1166 3984 1198 4023 
Q 1231 4063 1281 4063 
L 3547 4063 
Q 3378 4291 3378 4441 
Q 3378 4497 3417 4533 
Q 3456 4569 3506 4569 
Q 3613 4569 3634 4469 
Q 3697 4194 3938 4044 
Q 4000 4003 4000 3938 
Q 4000 3859 3938 3828 
Q 3575 3647 3353 3347 
Q 3328 3303 3256 3303 
Q 3209 3303 3168 3340 
Q 3128 3378 3128 3431 
Q 3128 3547 3438 3809 
L 1281 3809 
z
" transform="scale(0.015625)"/>
       <path id="Cmmi10-72" d="M 494 109 
Q 494 147 500 166 
L 978 2075 
Q 1025 2253 1025 2388 
Q 1025 2663 838 2663 
Q 638 2663 541 2423 
Q 444 2184 353 1819 
Q 353 1800 334 1789 
Q 316 1778 300 1778 
L 225 1778 
Q 203 1778 187 1801 
Q 172 1825 172 1844 
Q 241 2122 305 2315 
Q 369 2509 505 2668 
Q 641 2828 844 2828 
Q 1066 2828 1233 2700 
Q 1400 2572 1441 2363 
Q 1603 2575 1811 2701 
Q 2019 2828 2266 2828 
Q 2469 2828 2623 2709 
Q 2778 2591 2778 2388 
Q 2778 2225 2676 2104 
Q 2575 1984 2406 1984 
Q 2303 1984 2233 2048 
Q 2163 2113 2163 2216 
Q 2163 2356 2266 2467 
Q 2369 2578 2503 2578 
Q 2400 2663 2253 2663 
Q 1978 2663 1775 2467 
Q 1572 2272 1409 1972 
L 953 141 
Q 931 53 854 -9 
Q 778 -72 684 -72 
Q 606 -72 550 -22 
Q 494 28 494 109 
z
" transform="scale(0.015625)"/>
       <path id="Cmmi10-69" d="M 500 459 
Q 500 578 550 709 
L 1069 2088 
Q 1153 2322 1153 2472 
Q 1153 2663 1013 2663 
Q 759 2663 595 2402 
Q 431 2141 353 1819 
Q 341 1778 300 1778 
L 225 1778 
Q 172 1778 172 1838 
L 172 1856 
Q 275 2238 487 2533 
Q 700 2828 1025 2828 
Q 1253 2828 1411 2678 
Q 1569 2528 1569 2297 
Q 1569 2178 1516 2047 
L 997 672 
Q 909 459 909 288 
Q 909 97 1056 97 
Q 1306 97 1473 364 
Q 1641 631 1709 941 
Q 1722 978 1759 978 
L 1838 978 
Q 1863 978 1878 961 
Q 1894 944 1894 922 
Q 1894 916 1888 903 
Q 1800 541 1583 234 
Q 1366 -72 1044 -72 
Q 819 -72 659 83 
Q 500 238 500 459 
z
M 1222 3878 
Q 1222 4013 1334 4122 
Q 1447 4231 1581 4231 
Q 1691 4231 1761 4164 
Q 1831 4097 1831 3994 
Q 1831 3850 1717 3742 
Q 1603 3634 1466 3634 
Q 1363 3634 1292 3704 
Q 1222 3775 1222 3878 
z
" transform="scale(0.015625)"/>
      </defs>
      <use xlink:href="#Cmsy10-6a" transform="translate(0 0.53125)"/>
      <use xlink:href="#Cmmi10-7e" transform="translate(15.746094 5.609375)"/>
      <use xlink:href="#Cmmi10-72" transform="translate(27.685547 0.53125)"/>
      <use xlink:href="#Cmmi10-69" transform="translate(77.266875 -16.475) scale(0.7)"/>
      <use xlink:href="#Cmsy10-6a" transform="translate(107.740898 0.53125)"/>
      <use xlink:href="#DejaVuSerif-20" transform="translate(135.426445 0.53125)"/>
      <use xlink:href="#DejaVuSerif-28" transform="translate(167.213555 0.53125)"/>
      <use xlink:href="#DejaVuSerif-61" transform="translate(206.227227 0.53125)"/>
      <use xlink:href="#DejaVuSerif-2e" transform="translate(265.846367 0.53125)"/>
      <use xlink:href="#DejaVuSerif-75" transform="translate(297.633477 0.53125)"/>
      <use xlink:href="#DejaVuSerif-2e" transform="translate(362.037773 0.53125)"/>
      <use xlink:href="#DejaVuSerif-29" transform="translate(393.824883 0.53125)"/>
     </g>
    </g>
   </g>
   <g id="line2d_34">
    <path d="M 178.457789 483.183586 
L 179.198415 -1 
L 179.198415 -1 
" clip-path="url(#p171aa6781c)" style="fill: none; stroke: #1f77b4; stroke-width: 3; stroke-linecap: square"/>
   </g>
   <g id="line2d_35">
    <path d="M 178.457789 483.18359 
L 178.831547 -1 
L 178.831547 -1 
" clip-path="url(#p171aa6781c)" style="fill: none; stroke-dasharray: 11.1,4.8; stroke-dashoffset: 0; stroke: #ff7f0e; stroke-width: 3"/>
   </g>
   <g id="line2d_36">
    <path d="M 178.457789 454.153431 
L 178.928116 -1 
L 178.928116 -1 
" clip-path="url(#p171aa6781c)" style="fill: none; stroke-dasharray: 19.2,4.8,3,4.8; stroke-dashoffset: 0; stroke: #2ca02c; stroke-width: 3"/>
   </g>
   <g id="line2d_37">
    <path d="M 178.457789 454.153422 
L 179.081969 457.162639 
L 179.706149 455.004699 
L 180.330329 454.388073 
L 180.954509 459.629326 
L 181.578689 477.569477 
L 182.202869 483.348975 
L 182.827049 475.957483 
L 184.075409 466.468003 
L 185.323769 460.02214 
L 186.572129 455.520982 
L 187.196309 454.226336 
L 187.820489 456.988746 
L 188.444669 469.92083 
L 189.068849 486.64069 
L 189.693029 478.201614 
L 190.941389 468.176271 
L 192.189748 461.421982 
L 192.813928 458.741825 
L 194.062288 454.661142 
L 194.686468 454.666018 
L 195.310648 460.611571 
L 195.934828 477.018726 
L 196.559008 482.862927 
L 197.807368 471.264284 
L 199.055728 463.765126 
L 199.679908 460.710455 
L 200.928268 456.029187 
L 201.552448 454.65356 
L 202.176628 454.962317 
L 202.800808 460.829878 
L 203.424988 481.516284 
L 204.049168 483.21222 
L 204.673348 476.391285 
L 205.921708 467.588993 
L 206.545888 463.950698 
L 207.794248 458.511472 
L 209.042608 454.754676 
L 209.666788 454.334713 
L 210.290967 458.940214 
L 211.539327 485.670939 
L 212.163507 478.518813 
L 213.411867 468.819171 
L 215.284407 459.88915 
L 215.908587 457.406012 
L 216.532767 455.609362 
L 217.156947 454.408885 
L 217.781127 455.290327 
L 218.405307 463.108728 
L 219.029487 483.412733 
L 219.653667 482.966142 
L 220.277847 476.13995 
L 221.526207 467.545982 
L 223.398747 459.181378 
L 224.647107 455.198007 
L 225.271287 454.406044 
L 225.895467 455.803272 
L 226.519647 462.71145 
L 227.143827 484.363988 
L 227.768006 483.50801 
L 228.392186 476.611732 
L 229.640546 468.390739 
L 230.264726 465.118181 
L 231.513086 459.705549 
L 232.137266 457.986546 
L 232.761446 455.734457 
L 233.385626 454.642335 
L 234.009806 454.686987 
L 234.633986 458.146936 
L 235.882346 487.381823 
L 236.506526 480.166028 
L 237.130706 474.83092 
L 238.379066 466.946899 
L 239.003246 464.546115 
L 239.627426 461.302764 
L 240.251606 459.471562 
L 240.875786 457.179673 
L 241.499966 455.575269 
L 242.124146 454.507918 
L 242.748326 454.582191 
L 243.372506 459.613513 
L 244.620866 487.476028 
L 245.245046 479.346164 
L 245.869225 475.544468 
L 246.493405 470.443248 
L 247.117585 467.696378 
L 247.741765 464.349405 
L 248.990125 459.82522 
L 249.614305 457.444197 
L 250.238485 456.281251 
L 250.862665 454.369492 
L 251.486845 454.334577 
L 252.111025 457.978592 
L 252.735205 464.615808 
L 253.359385 487.637088 
L 253.983565 483.113794 
L 254.607745 477.116633 
L 255.231925 472.79645 
L 255.856105 469.757662 
L 256.480285 465.840881 
L 257.104465 464.085583 
L 257.728645 460.742876 
L 258.352825 459.43763 
L 258.977005 457.022377 
L 260.225365 454.633357 
L 260.849545 454.064707 
L 261.473725 457.66167 
L 262.097905 466.739339 
L 262.722085 479.986218 
L 263.346265 482.381262 
L 263.970444 479.404141 
L 264.594624 473.006508 
L 265.218804 470.938301 
L 265.842984 466.830527 
L 267.715524 459.741821 
L 268.339704 458.906696 
L 268.963884 456.083117 
L 269.588064 455.785935 
L 270.212244 454.026096 
L 270.836424 454.156462 
L 271.460604 459.911198 
L 272.084784 463.636435 
L 272.708964 485.60375 
L 273.333144 484.535425 
L 273.957324 480.405651 
L 274.581504 474.428047 
L 275.205684 473.695446 
L 275.829864 467.803671 
L 276.454044 467.780229 
L 277.078224 463.153347 
L 277.702404 462.71126 
L 278.326584 460.095563 
L 278.950764 458.575256 
L 279.574944 458.248225 
L 280.199124 455.353037 
L 280.823304 456.532256 
L 281.447483 453.464187 
L 282.071663 454.594372 
L 282.695843 457.129836 
L 283.320023 454.843703 
L 283.944203 472.882247 
L 284.568383 462.552442 
L 285.192563 487.065001 
L 285.816743 480.800583 
L 287.065103 486.882477 
L 287.689283 484.389402 
L 288.313463 478.31222 
L 288.937643 486.796266 
L 289.561823 462.426256 
L 290.186003 461.912668 
L 290.810183 485.296279 
L 291.434363 461.536251 
L 292.058543 478.06811 
L 292.682723 469.724381 
L 293.306903 457.716561 
L 293.931083 440.801065 
L 294.555263 470.384053 
L 295.179443 460.307532 
L 295.803623 465.619238 
L 296.427803 478.211042 
L 297.051983 448.184527 
L 297.676163 471.941019 
L 298.300343 461.581624 
L 298.924523 449.281032 
L 299.548702 452.1007 
L 300.172882 462.357607 
L 300.797062 470.413996 
L 302.045422 450.640638 
L 302.669602 450.323826 
L 303.293782 452.609167 
L 303.917962 464.449302 
L 304.542142 473.825654 
L 305.166322 471.689049 
L 305.790502 468.100421 
L 306.414682 469.290595 
L 307.038862 477.443388 
L 307.663042 482.244718 
L 308.287222 460.614432 
L 308.911402 458.506477 
L 309.535582 459.759392 
L 310.783942 465.550273 
L 311.408122 465.672128 
L 312.032302 463.811595 
L 312.656482 462.532376 
L 313.280662 463.691614 
L 313.904842 468.583192 
L 314.529022 479.475062 
L 315.153202 475.232618 
L 315.777382 460.147437 
L 316.401562 456.952929 
L 317.025742 456.874556 
L 317.649921 459.078753 
L 319.522461 470.804914 
L 320.146641 472.846276 
L 320.770821 474.361117 
L 321.395001 476.392089 
L 322.019181 477.665534 
L 322.643361 474.475981 
L 323.891721 461.745352 
L 324.515901 457.363881 
L 325.140081 455.296877 
L 325.764261 455.835231 
L 326.388441 459.749841 
L 327.012621 472.270433 
L 327.636801 482.020212 
L 328.260981 467.791287 
L 328.885161 460.922537 
L 329.509341 457.669751 
L 330.133521 457.12862 
L 330.757701 458.888325 
L 331.381881 462.661553 
L 333.254421 477.912921 
L 333.878601 476.8972 
L 335.75114 467.241478 
L 336.37532 464.94128 
L 336.9995 463.329204 
L 337.62368 462.70691 
L 338.24786 463.462409 
L 338.87204 466.028742 
L 339.49622 470.860421 
L 340.1204 477.99672 
L 340.74458 481.361885 
L 341.99294 464.622952 
L 342.61712 458.781665 
L 343.2413 455.552008 
L 343.86548 454.90186 
L 344.48966 457.010009 
L 345.11384 462.69434 
L 345.73802 475.240063 
L 346.3622 480.292223 
L 346.98638 464.458594 
L 347.61056 457.596043 
L 348.23474 454.819362 
L 348.85892 454.899999 
L 349.4831 457.568996 
L 350.10728 462.888892 
L 350.73146 471.061022 
L 351.35564 481.048554 
L 351.97982 479.587922 
L 352.604 471.00416 
L 353.228179 465.028172 
L 353.852359 461.69505 
L 354.476539 460.603 
L 355.100719 461.473271 
L 355.724899 464.099955 
L 356.349079 468.239094 
L 356.973259 473.297546 
L 357.597439 477.37005 
L 358.221619 477.047385 
L 360.094159 465.423701 
L 360.718339 463.341334 
L 361.342519 462.662251 
L 361.966699 463.505877 
L 362.590879 466.023633 
L 363.215059 470.347979 
L 363.839239 476.129923 
L 364.463419 479.731364 
L 365.087599 475.186039 
L 365.711779 468.262893 
L 366.335959 462.848515 
L 366.960139 459.552583 
L 367.584319 458.475569 
L 368.208499 459.732365 
L 368.832679 463.586557 
L 369.456859 470.554476 
L 370.081039 481.007368 
L 370.705219 480.498435 
L 371.329398 469.055409 
L 371.953578 461.007565 
L 372.577758 456.135769 
L 373.201938 454.076792 
L 373.826118 454.744564 
L 374.450298 458.641724 
L 375.074478 467.352685 
L 375.698658 485.143974 
L 376.947018 461.672476 
L 377.571198 456.097119 
L 378.195378 454.107025 
L 378.819558 454.918485 
L 379.443738 458.450009 
L 380.067918 464.934268 
L 381.316278 484.565286 
L 382.564638 466.148804 
L 383.188818 460.812423 
L 383.812998 458.284251 
L 384.437178 458.215475 
L 385.061358 460.473326 
L 385.685538 465.056195 
L 386.933898 479.431059 
L 387.558078 478.957522 
L 388.182258 472.004565 
L 388.806437 466.297544 
L 389.430617 462.78912 
L 390.054797 461.359732 
L 390.678977 461.860481 
L 391.303157 464.191288 
L 391.927337 468.231589 
L 393.175697 477.960765 
L 393.799877 477.012574 
L 395.048237 467.372819 
L 395.672417 464.080971 
L 396.296597 462.445509 
L 396.920777 462.512299 
L 397.544957 464.324871 
L 398.169137 467.927174 
L 399.417497 478.3429 
L 400.041677 477.782583 
L 401.290037 466.217675 
L 401.914217 462.29258 
L 402.538397 460.362448 
L 403.162577 460.499642 
L 403.786757 462.82257 
L 404.410937 467.549485 
L 405.659297 481.857598 
L 406.283477 476.499583 
L 406.907656 467.918058 
L 407.531836 461.756901 
L 408.156016 458.165288 
L 408.780196 457.012644 
L 409.404376 458.304702 
L 410.028556 462.25002 
L 410.652736 469.362404 
L 411.276916 480.381296 
L 411.901096 481.524998 
L 412.525276 469.470252 
L 413.149456 461.189561 
L 413.773636 456.194032 
L 414.397816 454.031223 
L 415.021996 454.557287 
L 415.646176 458.150261 
L 416.270356 465.897562 
L 416.894536 480.745063 
L 417.518716 477.663948 
L 418.142896 463.982138 
L 418.767076 456.957692 
L 419.391256 454.016237 
L 420.015436 454.094084 
L 420.639616 456.906719 
L 421.263796 462.642394 
L 421.887976 471.871929 
L 422.512156 484.343019 
L 423.136336 477.434601 
L 423.760516 467.187784 
L 424.384696 460.81549 
L 425.008875 457.46234 
L 425.633055 456.689286 
L 426.257235 458.343042 
L 426.881415 462.469993 
L 427.505595 469.262914 
L 428.129775 478.457452 
L 428.753955 481.514109 
L 430.002315 465.98289 
L 430.626495 461.604454 
L 431.250675 459.637686 
L 431.874855 459.878226 
L 432.499035 462.244206 
L 433.123215 466.717102 
L 434.371575 479.251075 
L 434.995755 477.985224 
L 436.244115 466.3983 
L 436.868295 463.040364 
L 437.492475 461.630468 
L 438.116655 462.08661 
L 438.740835 464.357088 
L 439.365015 468.366468 
L 440.613375 478.242784 
L 441.237555 477.063246 
L 442.485914 466.952328 
L 443.110094 463.617839 
L 443.734274 462.027588 
L 444.358454 462.21435 
L 444.982634 464.214287 
L 445.606814 468.063361 
L 446.855174 478.798421 
L 447.479354 477.638528 
L 448.727714 465.949758 
L 449.351894 462.186226 
L 449.976074 460.399706 
L 450.600254 460.630515 
L 451.224434 462.971501 
L 451.848614 467.598662 
L 453.096974 481.393507 
L 453.721154 477.084007 
L 454.345334 468.871444 
L 454.969514 462.756547 
L 455.593694 459.064522 
L 456.217874 457.68785 
L 456.842054 458.613901 
L 457.466234 461.991365 
L 458.090414 468.195653 
L 458.714594 477.755236 
L 459.338774 483.576352 
L 459.962954 472.775039 
L 460.587133 463.992581 
L 461.211313 458.380896 
L 461.835493 455.476722 
L 462.459673 455.071212 
L 463.083853 457.198629 
L 463.708033 462.202721 
L 464.332213 470.966554 
L 464.956393 485.100876 
L 465.580573 476.151879 
L 466.204753 463.863384 
L 466.828933 456.419551 
L 467.453113 453.132478 
L 468.077293 453.483559 
L 468.701473 457.291839 
L 469.325653 464.609357 
L 469.949833 476.176046 
L 470.574013 485.477253 
L 471.198193 472.116848 
L 471.822373 463.238003 
L 472.446553 458.029794 
L 473.070733 455.656177 
L 473.694913 455.775821 
L 474.319093 458.324562 
L 474.943273 463.458714 
L 475.567453 471.542037 
L 476.191633 481.989422 
L 476.815813 479.516274 
L 477.439993 469.925552 
L 478.064172 463.355266 
L 478.688352 459.576937 
L 479.312532 458.207708 
L 479.936712 459.066758 
L 480.560892 462.122279 
L 481.185072 467.430334 
L 482.433432 481.027855 
L 483.057612 476.953402 
L 483.681792 469.878673 
L 484.305972 464.699499 
L 484.930152 461.695552 
L 485.554332 460.719068 
L 486.178512 461.657964 
L 486.802692 464.454623 
L 487.426872 469.021056 
L 488.051052 474.821711 
L 488.675232 478.974979 
L 489.299412 476.533518 
L 490.547772 466.411406 
L 491.171952 463.411788 
L 491.796132 462.115873 
L 492.420312 462.502263 
L 493.044492 464.560879 
L 493.668672 468.265246 
L 494.917032 478.067719 
L 495.541212 477.686422 
L 496.789571 467.367384 
L 497.413751 463.609281 
L 498.037931 461.56889 
L 498.662111 461.306568 
L 499.286291 462.886464 
L 499.910471 466.414133 
L 500.534651 471.948158 
L 501.158831 478.571878 
L 501.783011 479.726018 
L 503.031371 466.411069 
L 503.655551 461.774193 
L 504.279731 459.23742 
L 504.903911 458.782798 
L 505.528091 460.470926 
L 506.152271 464.495338 
L 506.776451 471.212964 
L 507.400631 480.484194 
L 508.024811 480.969528 
L 508.648991 471.032963 
L 509.273171 463.378387 
L 509.897351 458.47431 
L 510.521531 456.024017 
L 511.145711 455.897356 
L 511.769891 458.157082 
L 512.394071 463.113436 
L 513.018251 471.516233 
L 513.642431 484.396324 
L 514.26661 477.76225 
L 514.89079 465.859796 
L 515.51497 458.127172 
L 516.13915 453.790877 
L 516.76333 452.949651 
L 517.38751 455.606608 
L 518.01169 462.27056 
L 518.63587 473.171382 
L 519.26005 486.87355 
L 519.88423 474.470126 
L 520.50841 464.726274 
L 521.13259 458.908002 
L 521.75677 455.969277 
L 522.38095 455.478945 
L 523.00513 457.299239 
L 523.62931 461.504069 
L 524.25349 468.348032 
L 524.87767 477.968165 
L 525.50185 482.972125 
L 526.75021 466.396876 
L 527.37439 461.607122 
L 527.99857 459.212648 
L 528.62275 458.952003 
L 529.24693 460.704108 
L 529.87111 464.437115 
L 530.49529 470.091921 
L 531.11947 476.916707 
L 531.743649 480.125957 
L 532.367829 475.353665 
L 532.992009 469.44943 
L 533.616189 465.136811 
L 534.240369 462.627971 
L 534.864549 461.823014 
L 535.488729 462.620215 
L 536.112909 464.941488 
L 536.737089 468.671721 
L 537.985449 477.5634 
L 538.609629 477.528068 
L 540.482169 465.123923 
L 541.106349 462.858004 
L 541.730529 462.054713 
L 542.354709 462.775066 
L 542.978889 465.102868 
L 543.603069 469.12214 
L 544.851429 479.659735 
L 545.475609 477.725998 
L 546.723969 465.405224 
L 547.348149 461.344734 
L 547.972329 459.168432 
L 548.596509 458.912095 
L 549.220689 460.677338 
L 549.844868 464.692387 
L 550.469048 471.363925 
L 551.093228 480.766399 
L 551.717408 481.414148 
L 552.341588 471.058378 
L 552.965768 463.113566 
L 553.589948 457.905368 
L 554.214128 455.105967 
L 554.838308 454.580392 
L 555.462488 456.411893 
L 556.086668 461.1235 
L 556.710848 470.233777 
L 557.335028 487.214234 
L 557.959208 472.084742 
L 558.583388 461.325752 
L 559.207568 456.123963 
L 559.831748 454.221022 
L 560.455928 454.782783 
L 561.080108 457.66033 
L 561.704288 462.963645 
L 562.328468 471.008842 
L 562.952648 481.469208 
L 563.576828 480.840965 
L 564.201008 471.525258 
L 564.825188 464.970928 
L 565.449368 461.058279 
L 566.073548 459.351891 
L 566.697728 459.590199 
L 567.321908 461.617364 
L 567.946087 465.309496 
L 569.194447 476.032367 
L 569.818627 478.906822 
L 570.442807 476.264777 
L 571.691167 467.863824 
L 572.315347 465.163902 
L 572.939527 463.623669 
L 573.563707 463.177009 
L 574.187887 463.794541 
L 574.812067 465.500587 
L 575.436247 468.35901 
L 576.684607 476.941838 
L 577.308787 479.146406 
L 577.932967 475.58194 
L 579.181327 464.490248 
L 579.805507 460.738296 
L 580.429687 458.650047 
L 581.053867 458.343207 
L 581.678047 459.983354 
L 582.302227 463.867262 
L 582.926407 470.555135 
L 583.550587 480.936895 
L 584.174767 482.467845 
L 584.798947 469.924372 
L 585.423126 460.575247 
L 586.047306 454.206059 
L 586.671486 452.588769 
L 587.295666 454.993028 
L 587.919846 460.383869 
L 588.544026 468.336844 
L 589.168206 479.190236 
L 589.792386 483.360452 
L 590.416566 473.772902 
L 591.040746 466.806719 
L 591.664926 462.646606 
L 592.289106 460.701552 
L 592.913286 460.566109 
L 593.537466 461.914952 
L 594.161646 464.41019 
L 596.034186 474.004183 
L 596.658366 476.087242 
L 597.282546 476.852124 
L 597.906726 475.787083 
L 598.530906 472.801141 
L 600.403446 461.081931 
L 601.027626 458.849776 
L 601.651806 458.157701 
L 602.275986 459.308384 
L 602.900166 462.70226 
L 603.524345 469.107273 
L 604.148525 481.293653 
L 604.772705 475.411647 
L 605.396885 461.53884 
L 606.021065 457.146207 
L 606.645245 455.895094 
L 607.269425 456.818739 
L 607.893605 459.595818 
L 609.766145 472.971085 
L 610.390325 474.983854 
L 611.638685 475.922679 
L 612.262865 476.968275 
L 612.887045 476.567669 
L 613.511225 472.270554 
L 614.759585 459.593383 
L 615.383765 454.891842 
L 616.007945 452.143091 
L 616.632125 456.831119 
L 617.880485 474.796457 
L 618.504665 480.433313 
L 619.753025 474.846651 
L 620.377205 474.916236 
L 621.001385 477.125691 
L 621.625564 476.743673 
L 622.249744 469.100425 
L 622.873924 459.584505 
L 623.498104 453.115697 
L 624.122284 456.610889 
L 624.746464 461.27401 
L 625.370644 464.347817 
L 625.994824 462.293814 
L 627.243184 450.439663 
L 627.867364 460.698008 
L 628.491544 463.967608 
L 629.115724 458.610418 
L 629.739904 450.899982 
L 630.364084 467.739124 
L 630.988264 472.448129 
L 631.612444 460.438161 
L 632.860804 480.854033 
L 633.484984 480.398437 
L 634.109164 462.380921 
L 634.733344 460.31352 
L 635.357524 445.037773 
L 635.981704 462.899158 
L 636.605884 471.84666 
L 637.230064 467.126581 
L 637.854244 430.00507 
L 638.478424 456.291337 
L 639.102603 445.850167 
L 639.726783 454.898814 
L 640.350963 445.511757 
L 640.975143 445.51226 
L 641.599323 484.832767 
L 642.223503 448.144621 
L 642.847683 468.2348 
L 643.471863 468.768077 
L 644.096043 447.502965 
L 644.720223 453.519332 
L 645.344403 454.968381 
L 645.968583 470.217775 
L 647.216943 459.078508 
L 647.841123 463.150199 
L 648.465303 444.181411 
L 649.089483 479.885494 
L 649.713663 448.828309 
L 650.337843 445.080399 
L 650.962023 472.261284 
L 651.586203 444.878369 
L 652.210383 463.570516 
L 652.834563 451.189718 
L 653.458743 477.242522 
L 654.082923 463.260969 
L 654.707103 456.943746 
L 655.331283 483.430674 
L 655.955463 447.254273 
L 656.579643 479.133993 
L 657.203822 486.276349 
L 657.828002 446.530325 
L 658.452182 478.882633 
L 659.076362 446.433939 
L 659.700542 474.741609 
L 660.324722 457.056466 
L 660.948902 462.642295 
L 661.573082 472.814615 
L 662.197262 457.442741 
L 662.821442 469.253815 
L 663.445622 457.646113 
L 664.069802 453.499648 
L 664.693982 462.065586 
L 665.318162 450.041855 
L 665.942342 466.063401 
L 666.566522 452.110381 
L 667.190702 478.947664 
L 667.814882 457.66997 
L 668.439062 468.782438 
L 669.063242 467.396692 
L 669.687422 458.351886 
L 670.311602 479.030032 
L 670.935782 452.31372 
L 671.559962 469.58251 
L 672.184142 450.338271 
L 672.808322 458.022587 
L 673.432502 449.85893 
L 674.056682 459.518405 
L 674.680862 460.086476 
L 675.305041 457.819155 
L 675.929221 471.703561 
L 676.553401 459.301369 
L 677.177581 471.711532 
L 677.801761 463.921319 
L 678.425941 461.478963 
L 679.050121 472.243802 
L 679.674301 452.830003 
L 680.298481 483.966363 
L 680.922661 447.418953 
L 681.546841 474.000045 
L 682.171021 445.074559 
L 682.795201 474.069208 
L 683.419381 452.113097 
L 684.043561 464.752735 
L 685.291921 460.489973 
L 685.916101 473.256353 
L 686.540281 460.002272 
L 687.164461 468.317265 
L 687.788641 463.151757 
L 688.412821 456.653716 
L 689.037001 470.748225 
L 689.661181 448.031368 
L 690.285361 484.352124 
L 690.909541 445.313308 
L 691.533721 485.966826 
L 692.157901 450.673053 
L 692.78208 471.213064 
L 693.40626 460.770803 
L 694.03044 461.354769 
L 694.65462 474.388879 
L 695.2788 457.181226 
L 695.90298 468.876309 
L 696.52716 457.870415 
L 697.15134 453.902146 
L 697.77552 463.27474 
L 698.3997 449.03629 
L 699.02388 474.025587 
L 699.64806 450.826464 
L 700.27224 468.384138 
L 700.89642 463.82643 
L 701.5206 452.329139 
L 702.14478 479.881152 
L 702.76896 449.080273 
L 703.39314 466.281146 
L 704.01732 446.402581 
L 704.6415 485.469951 
L 705.26568 443.327877 
L 705.88986 488.082593 
L 706.51404 443.912234 
L 707.13822 458.263747 
L 707.7624 454.531931 
L 708.38658 452.232366 
L 709.01076 446.097947 
L 709.63494 464.540312 
L 710.25912 464.349827 
L 710.883299 446.646314 
L 711.507479 455.747062 
L 712.131659 470.626332 
L 713.380019 447.812755 
L 714.004199 452.786809 
L 714.628379 444.046074 
L 715.252559 451.926804 
L 715.876739 450.631626 
L 716.500919 451.160724 
L 717.125099 460.328793 
L 717.749279 481.904413 
L 718.373459 442.264964 
L 718.997639 455.129525 
L 719.621819 470.431112 
L 720.245999 466.528413 
L 720.870179 463.755344 
L 721.494359 447.871541 
L 722.118539 461.706545 
L 722.742719 463.024083 
L 723.366899 451.136067 
L 723.991079 435.136084 
L 724.615259 441.345208 
L 725.239439 435.115601 
L 725.863619 447.0143 
L 726.487799 431.804556 
L 727.111979 454.963047 
L 727.736159 430.323521 
L 728.360338 465.38467 
L 728.984518 431.777868 
L 729.608698 441.157963 
L 730.232878 459.015667 
L 730.857058 438.847022 
L 731.481238 437.952838 
L 732.105418 466.725129 
L 732.729598 461.84864 
L 733.353778 485.699639 
L 733.977958 468.88067 
L 735.226318 453.822232 
L 735.850498 434.915808 
L 736.474678 440.999398 
L 737.098858 457.808764 
L 737.723038 445.570025 
L 738.347218 444.839438 
L 738.971398 438.095931 
L 739.595578 442.39527 
L 740.219758 477.805869 
L 740.843938 453.652604 
L 741.468118 476.897916 
L 742.092298 442.27092 
L 742.716478 451.805121 
L 743.340658 451.768152 
L 743.964838 470.935806 
L 744.589018 441.76768 
L 745.213198 460.818638 
L 745.837378 463.240301 
L 746.461557 444.143747 
L 747.085737 446.267814 
L 747.709917 473.923074 
L 748.334097 448.889066 
L 748.958277 445.282236 
L 749.582457 446.679323 
L 750.206637 444.882298 
L 750.830817 441.593767 
L 751.454997 454.636676 
L 752.079177 440.413349 
L 752.703357 450.581941 
L 753.327537 442.359118 
L 754.575897 465.890563 
L 755.200077 464.215837 
L 755.824257 443.026571 
L 756.448437 463.976262 
L 757.072617 439.615449 
L 757.696797 451.568815 
L 758.320977 465.728896 
L 758.945157 451.242505 
L 759.569337 475.891421 
L 760.193517 454.767342 
L 760.817697 475.314241 
L 761.441877 451.370872 
L 762.066057 457.996258 
L 762.690237 456.684643 
L 763.314417 439.923487 
L 763.938597 465.521964 
L 764.562776 456.835608 
L 765.186956 451.081794 
L 765.811136 473.245554 
L 766.435316 461.060957 
L 767.059496 465.16784 
L 767.683676 460.737762 
L 768.307856 464.085431 
L 768.932036 466.29077 
L 769.556216 447.279802 
L 770.180396 465.041887 
L 771.428756 441.858362 
L 772.052936 478.978113 
L 772.677116 451.172241 
L 773.301296 464.987723 
L 773.925476 459.437346 
L 774.549656 461.572899 
L 775.173836 460.528747 
L 775.798016 447.202621 
L 776.422196 480.865982 
L 777.046376 444.85874 
L 777.670556 469.676361 
L 778.294736 467.968819 
L 778.918916 443.5947 
L 779.543096 441.422403 
L 780.167276 459.760355 
L 781.415636 482.470412 
L 782.039815 458.804852 
L 782.663995 477.767896 
L 783.288175 480.958797 
L 784.536535 440.859867 
L 785.160715 473.553211 
L 785.784895 465.29462 
L 786.409075 447.920486 
L 787.033255 484.838879 
L 787.657435 439.65041 
L 788.281615 460.832976 
L 788.905795 456.156195 
L 789.529975 444.264364 
L 790.154155 471.285735 
L 790.778335 446.446446 
L 791.402515 439.526651 
L 792.026695 463.443752 
L 793.275055 440.606416 
L 793.899235 447.890876 
L 794.523415 440.049154 
L 795.147595 439.40931 
L 795.771775 441.70588 
L 796.395955 435.974398 
L 797.020135 445.228825 
L 797.644315 456.538291 
L 798.268495 447.810535 
L 798.892675 454.192017 
L 799.516855 442.17018 
L 800.141034 432.765229 
L 800.765214 429.433762 
L 801.389394 452.178048 
L 802.013574 432.660044 
L 802.013574 432.660044 
" clip-path="url(#p171aa6781c)" style="fill: none; stroke-dasharray: 3,4.95; stroke-dashoffset: 0; stroke: #d62728; stroke-width: 3"/>
   </g>
   <g id="line2d_38">
    <path d="M 178.457789 72.801318 
L 184.699589 84.683356 
L 190.941389 97.078221 
L 196.559008 108.700247 
L 202.176628 120.792413 
L 207.794248 133.385739 
L 213.411867 146.515932 
L 219.029487 160.224457 
L 224.647107 174.559968 
L 229.640546 187.875524 
L 234.633986 201.780121 
L 239.627426 216.331541 
L 244.620866 231.599807 
L 248.990125 245.614806 
L 253.359385 260.31601 
L 257.728645 275.793147 
L 262.097905 292.161247 
L 265.842984 307.014272 
L 269.588064 322.760287 
L 273.333144 339.572988 
L 276.454044 354.576337 
L 279.574944 370.702709 
L 282.071663 384.622105 
L 284.568383 399.717222 
L 287.065103 416.413196 
L 288.937643 430.45272 
L 290.810183 446.550708 
L 292.058543 459.24339 
L 292.682723 466.691459 
L 293.306903 475.578263 
L 293.931083 488.704227 
L 295.803623 461.925234 
L 297.051983 449.229716 
L 298.924523 433.379299 
L 300.797062 419.774628 
L 302.669602 407.599119 
L 305.166322 392.955776 
L 307.663042 379.642417 
L 310.159762 367.380967 
L 313.280662 353.205564 
L 316.401562 340.091793 
L 319.522461 327.873381 
L 323.267541 314.19518 
L 327.012621 301.446337 
L 330.757701 289.530926 
L 334.502781 278.334098 
L 338.24786 267.781888 
L 341.99294 257.816495 
L 346.3622 246.8714 
L 350.73146 236.617565 
L 355.100719 226.982919 
L 359.469979 217.922488 
L 363.839239 209.399575 
L 368.208499 201.382994 
L 372.577758 193.845966 
L 376.947018 186.770657 
L 381.316278 180.143464 
L 385.685538 173.933515 
L 390.054797 168.124352 
L 394.424057 162.701894 
L 398.793317 157.653721 
L 403.162577 152.968845 
L 407.531836 148.637531 
L 411.901096 144.651165 
L 416.270356 141.002936 
L 420.015436 138.14776 
L 423.760516 135.535739 
L 427.505595 133.159132 
L 431.250675 131.014673 
L 434.995755 129.099614 
L 438.740835 127.411567 
L 442.485914 125.948444 
L 446.230994 124.708484 
L 449.976074 123.690227 
L 453.721154 122.892479 
L 457.466234 122.314342 
L 461.211313 121.955189 
L 464.956393 121.826442 
L 466.204753 121.817845 
L 469.949833 121.977198 
L 473.694913 122.359603 
L 477.439993 122.961291 
L 481.185072 123.782722 
L 484.930152 124.82481 
L 488.675232 126.088761 
L 492.420312 127.576071 
L 496.165391 129.288516 
L 499.910471 131.228204 
L 503.655551 133.397559 
L 507.400631 135.799342 
L 511.145711 138.436706 
L 514.89079 141.313472 
L 518.63587 144.439578 
L 523.00513 148.408182 
L 527.37439 152.72182 
L 531.743649 157.388657 
L 536.112909 162.418347 
L 540.482169 167.821775 
L 544.851429 173.611258 
L 549.220689 179.800757 
L 553.589948 186.406116 
L 557.959208 193.448202 
L 562.328468 200.960263 
L 566.697728 208.952092 
L 571.066987 217.448984 
L 575.436247 226.481832 
L 579.805507 236.086912 
L 584.174767 246.307368 
L 587.919846 255.605489 
L 591.664926 265.445349 
L 595.410006 275.861011 
L 599.155086 286.907322 
L 602.900166 298.652528 
L 606.645245 311.196926 
L 610.390325 324.654305 
L 613.511225 336.659074 
L 616.632125 349.506372 
L 619.753025 363.375795 
L 622.249744 375.334459 
L 624.746464 388.246581 
L 627.243184 402.325008 
L 629.739904 417.95385 
L 631.612444 431.184602 
L 632.860804 441.134486 
L 634.109164 452.44189 
L 635.357524 465.922839 
L 635.981704 474.451346 
L 636.605884 486.613936 
L 637.230064 480.646195 
L 637.854244 470.721319 
L 639.102603 456.660606 
L 640.350963 445.77234 
L 641.599323 436.611899 
L 643.471863 424.729769 
L 645.344403 414.471185 
L 647.216943 405.491944 
L 649.089483 397.535962 
L 650.962023 390.458419 
L 652.834563 384.115857 
L 655.331283 376.586186 
L 657.203822 371.547843 
L 659.076362 367.009959 
L 660.948902 362.923948 
L 662.821442 359.252416 
L 664.693982 355.975171 
L 666.566522 353.093756 
L 668.439062 350.582196 
L 670.311602 348.423588 
L 672.184142 346.608719 
L 674.056682 345.141708 
L 675.929221 344.013932 
L 677.801761 343.213526 
L 679.674301 342.736358 
L 681.546841 342.582004 
L 682.795201 342.665577 
L 684.667741 343.062417 
L 686.540281 343.780522 
L 688.412821 344.821853 
L 690.285361 346.192513 
L 692.157901 347.911173 
L 694.03044 349.971035 
L 695.90298 352.376571 
L 697.77552 355.140515 
L 699.64806 358.286826 
L 701.5206 361.800898 
L 703.39314 365.700062 
L 705.26568 370.053146 
L 707.13822 374.919689 
L 709.01076 380.366511 
L 710.883299 386.434866 
L 712.755839 393.19776 
L 714.628379 400.749298 
L 716.500919 409.213357 
L 718.373459 418.661467 
L 720.245999 429.520106 
L 721.494359 437.779289 
L 722.742719 447.175192 
L 723.991079 458.418826 
L 724.615259 465.19531 
L 725.239439 473.291573 
L 725.863619 484.345232 
L 726.487799 482.545962 
L 727.111979 472.054336 
L 728.360338 457.709298 
L 729.608698 446.781577 
L 730.857058 437.652489 
L 732.105418 429.721434 
L 733.977958 419.524918 
L 735.850498 410.710722 
L 737.723038 402.979866 
L 739.595578 396.073661 
L 741.468118 389.914583 
L 743.340658 384.374936 
L 745.213198 379.363543 
L 747.085737 374.932043 
L 748.958277 371.06945 
L 750.830817 367.732673 
L 752.703357 364.88818 
L 754.575897 362.507063 
L 756.448437 360.549335 
L 758.320977 359.028432 
L 760.193517 357.90016 
L 761.441877 357.35752 
L 762.690237 356.982007 
L 763.938597 356.779831 
L 765.186956 356.761141 
L 766.435316 356.919596 
L 767.683676 357.256612 
L 768.932036 357.773351 
L 770.180396 358.472006 
L 771.428756 359.355984 
L 773.301296 361.01546 
L 775.173836 363.066424 
L 777.046376 365.526978 
L 778.918916 368.433172 
L 780.791456 371.838802 
L 782.663995 375.779793 
L 784.536535 380.294044 
L 786.409075 385.397466 
L 788.281615 391.024319 
L 790.154155 397.338094 
L 792.026695 404.522132 
L 793.899235 412.784357 
L 795.771775 422.296495 
L 797.020135 429.572602 
L 798.268495 437.781801 
L 799.516855 447.208169 
L 800.765214 458.511123 
L 801.389394 465.335436 
L 802.013574 473.517727 
L 802.013574 473.517727 
" clip-path="url(#p171aa6781c)" style="fill: none; stroke: #000000; stroke-width: 3; stroke-linecap: square"/>
   </g>
   <g id="patch_3">
    <path d="M 147.28 489.2325 
L 147.28 30.682754 
" style="fill: none; stroke: #000000; stroke-width: 2; stroke-linejoin: miter; stroke-linecap: square"/>
   </g>
   <g id="patch_4">
    <path d="M 833.191364 489.2325 
L 833.191364 30.682754 
" style="fill: none; stroke: #000000; stroke-width: 2; stroke-linejoin: miter; stroke-linecap: square"/>
   </g>
   <g id="patch_5">
    <path d="M 147.28 489.2325 
L 833.191364 489.2325 
" style="fill: none; stroke: #000000; stroke-width: 2; stroke-linejoin: miter; stroke-linecap: square"/>
   </g>
   <g id="patch_6">
    <path d="M 147.28 30.682754 
L 833.191364 30.682754 
" style="fill: none; stroke: #000000; stroke-width: 2; stroke-linejoin: miter; stroke-linecap: square"/>
   </g>
   <g id="legend_1">
    <g id="patch_7">
     <path d="M 683.493864 160.907754 
L 821.991364 160.907754 
Q 825.191364 160.907754 825.191364 157.707754 
L 825.191364 41.882754 
Q 825.191364 38.682754 821.991364 38.682754 
L 683.493864 38.682754 
Q 680.293864 38.682754 680.293864 41.882754 
L 680.293864 157.707754 
Q 680.293864 160.907754 683.493864 160.907754 
z
" style="fill: #ffffff; opacity: 0.8; stroke: #cccccc; stroke-linejoin: miter"/>
    </g>
    <g id="line2d_39">
     <path d="M 686.693864 51.640254 
L 702.693864 51.640254 
L 718.693864 51.640254 
" style="fill: none; stroke: #1f77b4; stroke-width: 3; stroke-linecap: square"/>
    </g>
    <g id="text_14">
     <!-- Electron 1 -->
     <g transform="translate(731.493864 57.240254) scale(0.16 -0.16)">
      <defs>
       <path id="DejaVuSerif-45" d="M 353 0 
L 353 331 
L 947 331 
L 947 4331 
L 353 4331 
L 353 4666 
L 4109 4666 
L 4109 3628 
L 3725 3628 
L 3725 4281 
L 1581 4281 
L 1581 2719 
L 3109 2719 
L 3109 3303 
L 3494 3303 
L 3494 1753 
L 3109 1753 
L 3109 2338 
L 1581 2338 
L 1581 384 
L 3775 384 
L 3775 1038 
L 4159 1038 
L 4159 0 
L 353 0 
z
" transform="scale(0.015625)"/>
       <path id="DejaVuSerif-6c" d="M 1313 331 
L 1856 331 
L 1856 0 
L 184 0 
L 184 331 
L 738 331 
L 738 4531 
L 184 4531 
L 184 4863 
L 1313 4863 
L 1313 331 
z
" transform="scale(0.015625)"/>
       <path id="DejaVuSerif-65" d="M 3469 1600 
L 991 1600 
L 991 1575 
Q 991 903 1244 561 
Q 1497 219 1991 219 
Q 2369 219 2611 417 
Q 2853 616 2950 1006 
L 3413 1006 
Q 3275 459 2904 184 
Q 2534 -91 1931 -91 
Q 1203 -91 761 389 
Q 319 869 319 1663 
Q 319 2450 753 2931 
Q 1188 3413 1894 3413 
Q 2647 3413 3050 2948 
Q 3453 2484 3469 1600 
z
M 2791 1931 
Q 2772 2513 2545 2808 
Q 2319 3103 1894 3103 
Q 1497 3103 1269 2806 
Q 1041 2509 991 1931 
L 2791 1931 
z
" transform="scale(0.015625)"/>
       <path id="DejaVuSerif-63" d="M 3291 997 
Q 3169 466 2822 187 
Q 2475 -91 1925 -91 
Q 1200 -91 759 389 
Q 319 869 319 1663 
Q 319 2459 759 2936 
Q 1200 3413 1925 3413 
Q 2241 3413 2553 3339 
Q 2866 3266 3181 3116 
L 3181 2266 
L 2847 2266 
Q 2781 2703 2561 2903 
Q 2341 3103 1931 3103 
Q 1466 3103 1228 2742 
Q 991 2381 991 1663 
Q 991 944 1227 581 
Q 1463 219 1931 219 
Q 2303 219 2525 412 
Q 2747 606 2828 997 
L 3291 997 
z
" transform="scale(0.015625)"/>
       <path id="DejaVuSerif-74" d="M 691 2988 
L 184 2988 
L 184 3322 
L 691 3322 
L 691 4353 
L 1269 4353 
L 1269 3322 
L 2350 3322 
L 2350 2988 
L 1269 2988 
L 1269 878 
Q 1269 456 1350 337 
Q 1431 219 1650 219 
Q 1875 219 1978 351 
Q 2081 484 2088 781 
L 2522 781 
Q 2497 328 2275 118 
Q 2053 -91 1600 -91 
Q 1103 -91 897 129 
Q 691 350 691 878 
L 691 2988 
z
" transform="scale(0.015625)"/>
       <path id="DejaVuSerif-72" d="M 3059 3328 
L 3059 2497 
L 2728 2497 
Q 2713 2744 2591 2866 
Q 2469 2988 2234 2988 
Q 1809 2988 1582 2694 
Q 1356 2400 1356 1850 
L 1356 331 
L 2022 331 
L 2022 0 
L 263 0 
L 263 331 
L 781 331 
L 781 2994 
L 231 2994 
L 231 3322 
L 1356 3322 
L 1356 2731 
Q 1525 3078 1790 3245 
Q 2056 3413 2438 3413 
Q 2578 3413 2733 3391 
Q 2888 3369 3059 3328 
z
" transform="scale(0.015625)"/>
       <path id="DejaVuSerif-6f" d="M 1925 219 
Q 2388 219 2623 584 
Q 2859 950 2859 1663 
Q 2859 2375 2623 2739 
Q 2388 3103 1925 3103 
Q 1463 3103 1227 2739 
Q 991 2375 991 1663 
Q 991 950 1228 584 
Q 1466 219 1925 219 
z
M 1925 -91 
Q 1200 -91 759 389 
Q 319 869 319 1663 
Q 319 2456 758 2934 
Q 1197 3413 1925 3413 
Q 2653 3413 3092 2934 
Q 3531 2456 3531 1663 
Q 3531 869 3092 389 
Q 2653 -91 1925 -91 
z
" transform="scale(0.015625)"/>
       <path id="DejaVuSerif-6e" d="M 263 0 
L 263 331 
L 781 331 
L 781 2988 
L 231 2988 
L 231 3322 
L 1356 3322 
L 1356 2731 
Q 1516 3069 1770 3241 
Q 2025 3413 2363 3413 
Q 2913 3413 3172 3097 
Q 3431 2781 3431 2113 
L 3431 331 
L 3944 331 
L 3944 0 
L 2356 0 
L 2356 331 
L 2853 331 
L 2853 1931 
Q 2853 2541 2703 2767 
Q 2553 2994 2175 2994 
Q 1775 2994 1565 2701 
Q 1356 2409 1356 1850 
L 1356 331 
L 1856 331 
L 1856 0 
L 263 0 
z
" transform="scale(0.015625)"/>
      </defs>
      <use xlink:href="#DejaVuSerif-45"/>
      <use xlink:href="#DejaVuSerif-6c" x="72.998047"/>
      <use xlink:href="#DejaVuSerif-65" x="104.980469"/>
      <use xlink:href="#DejaVuSerif-63" x="164.160156"/>
      <use xlink:href="#DejaVuSerif-74" x="220.166016"/>
      <use xlink:href="#DejaVuSerif-72" x="260.351562"/>
      <use xlink:href="#DejaVuSerif-6f" x="308.154297"/>
      <use xlink:href="#DejaVuSerif-6e" x="368.359375"/>
      <use xlink:href="#DejaVuSerif-20" x="432.763672"/>
      <use xlink:href="#DejaVuSerif-31" x="464.550781"/>
     </g>
    </g>
    <g id="line2d_40">
     <path d="M 686.693864 75.125254 
L 702.693864 75.125254 
L 718.693864 75.125254 
" style="fill: none; stroke-dasharray: 11.1,4.8; stroke-dashoffset: 0; stroke: #ff7f0e; stroke-width: 3"/>
    </g>
    <g id="text_15">
     <!-- Electron 2 -->
     <g transform="translate(731.493864 80.725254) scale(0.16 -0.16)">
      <use xlink:href="#DejaVuSerif-45"/>
      <use xlink:href="#DejaVuSerif-6c" x="72.998047"/>
      <use xlink:href="#DejaVuSerif-65" x="104.980469"/>
      <use xlink:href="#DejaVuSerif-63" x="164.160156"/>
      <use xlink:href="#DejaVuSerif-74" x="220.166016"/>
      <use xlink:href="#DejaVuSerif-72" x="260.351562"/>
      <use xlink:href="#DejaVuSerif-6f" x="308.154297"/>
      <use xlink:href="#DejaVuSerif-6e" x="368.359375"/>
      <use xlink:href="#DejaVuSerif-20" x="432.763672"/>
      <use xlink:href="#DejaVuSerif-32" x="464.550781"/>
     </g>
    </g>
    <g id="line2d_41">
     <path d="M 686.693864 98.610254 
L 702.693864 98.610254 
L 718.693864 98.610254 
" style="fill: none; stroke-dasharray: 19.2,4.8,3,4.8; stroke-dashoffset: 0; stroke: #2ca02c; stroke-width: 3"/>
    </g>
    <g id="text_16">
     <!-- Electron 3 -->
     <g transform="translate(731.493864 104.210254) scale(0.16 -0.16)">
      <defs>
       <path id="DejaVuSerif-33" d="M 622 4469 
Q 988 4606 1323 4678 
Q 1659 4750 1953 4750 
Q 2638 4750 3022 4454 
Q 3406 4159 3406 3634 
Q 3406 3213 3140 2930 
Q 2875 2647 2388 2547 
Q 2963 2466 3280 2130 
Q 3597 1794 3597 1259 
Q 3597 606 3158 257 
Q 2719 -91 1894 -91 
Q 1528 -91 1179 -12 
Q 831 66 488 225 
L 488 1131 
L 838 1131 
Q 869 681 1141 450 
Q 1413 219 1906 219 
Q 2384 219 2661 495 
Q 2938 772 2938 1253 
Q 2938 1803 2653 2086 
Q 2369 2369 1819 2369 
L 1522 2369 
L 1522 2688 
L 1678 2688 
Q 2225 2688 2498 2914 
Q 2772 3141 2772 3597 
Q 2772 4006 2547 4223 
Q 2322 4441 1900 4441 
Q 1478 4441 1245 4241 
Q 1013 4041 972 3647 
L 622 3647 
L 622 4469 
z
" transform="scale(0.015625)"/>
      </defs>
      <use xlink:href="#DejaVuSerif-45"/>
      <use xlink:href="#DejaVuSerif-6c" x="72.998047"/>
      <use xlink:href="#DejaVuSerif-65" x="104.980469"/>
      <use xlink:href="#DejaVuSerif-63" x="164.160156"/>
      <use xlink:href="#DejaVuSerif-74" x="220.166016"/>
      <use xlink:href="#DejaVuSerif-72" x="260.351562"/>
      <use xlink:href="#DejaVuSerif-6f" x="308.154297"/>
      <use xlink:href="#DejaVuSerif-6e" x="368.359375"/>
      <use xlink:href="#DejaVuSerif-20" x="432.763672"/>
      <use xlink:href="#DejaVuSerif-33" x="464.550781"/>
     </g>
    </g>
    <g id="line2d_42">
     <path d="M 686.693864 122.095254 
L 702.693864 122.095254 
L 718.693864 122.095254 
" style="fill: none; stroke-dasharray: 3,4.95; stroke-dashoffset: 0; stroke: #d62728; stroke-width: 3"/>
    </g>
    <g id="text_17">
     <!-- Electron 4 -->
     <g transform="translate(731.493864 127.695254) scale(0.16 -0.16)">
      <use xlink:href="#DejaVuSerif-45"/>
      <use xlink:href="#DejaVuSerif-6c" x="72.998047"/>
      <use xlink:href="#DejaVuSerif-65" x="104.980469"/>
      <use xlink:href="#DejaVuSerif-63" x="164.160156"/>
      <use xlink:href="#DejaVuSerif-74" x="220.166016"/>
      <use xlink:href="#DejaVuSerif-72" x="260.351562"/>
      <use xlink:href="#DejaVuSerif-6f" x="308.154297"/>
      <use xlink:href="#DejaVuSerif-6e" x="368.359375"/>
      <use xlink:href="#DejaVuSerif-20" x="432.763672"/>
      <use xlink:href="#DejaVuSerif-34" x="464.550781"/>
     </g>
    </g>
    <g id="line2d_43">
     <path d="M 686.693864 145.580254 
L 702.693864 145.580254 
L 718.693864 145.580254 
" style="fill: none; stroke: #000000; stroke-width: 3; stroke-linecap: square"/>
    </g>
    <g id="text_18">
     <!-- Antiproton -->
     <g transform="translate(731.493864 151.180254) scale(0.16 -0.16)">
      <defs>
       <path id="DejaVuSerif-41" d="M 1281 1691 
L 2994 1691 
L 2138 3909 
L 1281 1691 
z
M -38 0 
L -38 331 
L 372 331 
L 2034 4666 
L 2559 4666 
L 4225 331 
L 4684 331 
L 4684 0 
L 2988 0 
L 2988 331 
L 3506 331 
L 3116 1356 
L 1153 1356 
L 763 331 
L 1275 331 
L 1275 0 
L -38 0 
z
" transform="scale(0.015625)"/>
       <path id="DejaVuSerif-69" d="M 622 4353 
Q 622 4497 726 4603 
Q 831 4709 978 4709 
Q 1122 4709 1226 4603 
Q 1331 4497 1331 4353 
Q 1331 4206 1228 4103 
Q 1125 4000 978 4000 
Q 831 4000 726 4103 
Q 622 4206 622 4353 
z
M 1356 331 
L 1900 331 
L 1900 0 
L 231 0 
L 231 331 
L 781 331 
L 781 2988 
L 231 2988 
L 231 3322 
L 1356 3322 
L 1356 331 
z
" transform="scale(0.015625)"/>
       <path id="DejaVuSerif-70" d="M 1313 1825 
L 1313 1497 
Q 1313 897 1542 583 
Q 1772 269 2209 269 
Q 2650 269 2876 622 
Q 3103 975 3103 1663 
Q 3103 2353 2876 2703 
Q 2650 3053 2209 3053 
Q 1772 3053 1542 2737 
Q 1313 2422 1313 1825 
z
M 738 2988 
L 184 2988 
L 184 3322 
L 1313 3322 
L 1313 2803 
Q 1481 3116 1742 3264 
Q 2003 3413 2388 3413 
Q 3000 3413 3387 2928 
Q 3775 2444 3775 1663 
Q 3775 881 3387 395 
Q 3000 -91 2388 -91 
Q 2003 -91 1742 57 
Q 1481 206 1313 519 
L 1313 -997 
L 1856 -997 
L 1856 -1331 
L 184 -1331 
L 184 -997 
L 738 -997 
L 738 2988 
z
" transform="scale(0.015625)"/>
      </defs>
      <use xlink:href="#DejaVuSerif-41"/>
      <use xlink:href="#DejaVuSerif-6e" x="72.216797"/>
      <use xlink:href="#DejaVuSerif-74" x="136.621094"/>
      <use xlink:href="#DejaVuSerif-69" x="176.806641"/>
      <use xlink:href="#DejaVuSerif-70" x="208.789062"/>
      <use xlink:href="#DejaVuSerif-72" x="272.802734"/>
      <use xlink:href="#DejaVuSerif-6f" x="320.605469"/>
      <use xlink:href="#DejaVuSerif-74" x="380.810547"/>
      <use xlink:href="#DejaVuSerif-6f" x="420.996094"/>
      <use xlink:href="#DejaVuSerif-6e" x="481.201172"/>
     </g>
    </g>
   </g>
  </g>
 </g>
 <defs>
  <clipPath id="p171aa6781c">
   <rect x="147.28" y="30.682754" width="685.911364" height="458.549746"/>
  </clipPath>
 </defs>
</svg>
