<?xml version="1.0" encoding="utf-8" standalone="no"?>
<!DOCTYPE svg PUBLIC "-//W3C//DTD SVG 1.1//EN"
  "http://www.w3.org/Graphics/SVG/1.1/DTD/svg11.dtd">
<svg xmlns:xlink="http://www.w3.org/1999/xlink" width="864pt" height="576pt" viewBox="0 0 864 576" xmlns="http://www.w3.org/2000/svg" version="1.1">
 <metadata>
  <rdf:RDF xmlns:dc="http://purl.org/dc/elements/1.1/" xmlns:cc="http://creativecommons.org/ns#" xmlns:rdf="http://www.w3.org/1999/02/22-rdf-syntax-ns#">
   <cc:Work>
    <dc:type rdf:resource="http://purl.org/dc/dcmitype/StillImage"/>
    <dc:date>2025-06-12T16:26:06.877430</dc:date>
    <dc:format>image/svg+xml</dc:format>
    <dc:creator>
     <cc:Agent>
      <dc:title>Matplotlib v3.7.2, https://matplotlib.org/</dc:title>
     </cc:Agent>
    </dc:creator>
   </cc:Work>
  </rdf:RDF>
 </metadata>
 <defs>
  <style type="text/css">*{stroke-linejoin: round; stroke-linecap: butt}</style>
 </defs>
 <g id="figure_1">
  <g id="patch_1">
   <path d="M 0 576 
L 864 576 
L 864 0 
L 0 0 
z
" style="fill: #ffffff"/>
  </g>
  <g id="axes_1">
   <g id="patch_2">
    <path d="M 114.16 489.2325 
L 833.191364 489.2325 
L 833.191364 28.08 
L 114.16 28.08 
z
" style="fill: #ffffff"/>
   </g>
   <g id="matplotlib.axis_1">
    <g id="xtick_1">
     <g id="line2d_1">
      <path d="M 146.843244 489.2325 
L 146.843244 28.08 
" clip-path="url(#p967d820930)" style="fill: none; stroke-dasharray: 3.7,1.6; stroke-dashoffset: 0; stroke: #b0b0b0; stroke-opacity: 0.5"/>
     </g>
     <g id="line2d_2">
      <defs>
       <path id="m4ff177bc70" d="M 0 0 
L 0 -10 
" style="stroke: #000000; stroke-width: 2"/>
      </defs>
      <g>
       <use xlink:href="#m4ff177bc70" x="146.843244" y="489.2325" style="stroke: #000000; stroke-width: 2"/>
      </g>
     </g>
     <g id="line2d_3">
      <defs>
       <path id="m369bd8abdb" d="M 0 0 
L 0 10 
" style="stroke: #000000; stroke-width: 2"/>
      </defs>
      <g>
       <use xlink:href="#m369bd8abdb" x="146.843244" y="28.08" style="stroke: #000000; stroke-width: 2"/>
      </g>
     </g>
     <g id="text_1">
      <!-- 0 -->
      <g transform="translate(138.571994 512.488438) scale(0.26 -0.26)">
       <defs>
        <path id="DejaVuSerif-30" d="M 2034 219 
Q 2513 219 2750 744 
Q 2988 1269 2988 2328 
Q 2988 3391 2750 3916 
Q 2513 4441 2034 4441 
Q 1556 4441 1318 3916 
Q 1081 3391 1081 2328 
Q 1081 1269 1318 744 
Q 1556 219 2034 219 
z
M 2034 -91 
Q 1275 -91 848 546 
Q 422 1184 422 2328 
Q 422 3475 848 4112 
Q 1275 4750 2034 4750 
Q 2797 4750 3222 4112 
Q 3647 3475 3647 2328 
Q 3647 1184 3222 546 
Q 2797 -91 2034 -91 
z
" transform="scale(0.015625)"/>
       </defs>
       <use xlink:href="#DejaVuSerif-30"/>
      </g>
     </g>
    </g>
    <g id="xtick_2">
     <g id="line2d_4">
      <path d="M 277.576219 489.2325 
L 277.576219 28.08 
" clip-path="url(#p967d820930)" style="fill: none; stroke-dasharray: 3.7,1.6; stroke-dashoffset: 0; stroke: #b0b0b0; stroke-opacity: 0.5"/>
     </g>
     <g id="line2d_5">
      <g>
       <use xlink:href="#m4ff177bc70" x="277.576219" y="489.2325" style="stroke: #000000; stroke-width: 2"/>
      </g>
     </g>
     <g id="line2d_6">
      <g>
       <use xlink:href="#m369bd8abdb" x="277.576219" y="28.08" style="stroke: #000000; stroke-width: 2"/>
      </g>
     </g>
     <g id="text_2">
      <!-- 500 -->
      <g transform="translate(252.762469 512.488438) scale(0.26 -0.26)">
       <defs>
        <path id="DejaVuSerif-35" d="M 3219 4666 
L 3219 4153 
L 1081 4153 
L 1081 2816 
Q 1244 2928 1461 2984 
Q 1678 3041 1947 3041 
Q 2703 3041 3140 2622 
Q 3578 2203 3578 1478 
Q 3578 738 3136 323 
Q 2694 -91 1894 -91 
Q 1572 -91 1234 -12 
Q 897 66 544 225 
L 544 1131 
L 897 1131 
Q 925 688 1179 453 
Q 1434 219 1894 219 
Q 2388 219 2653 544 
Q 2919 869 2919 1478 
Q 2919 2084 2655 2407 
Q 2391 2731 1894 2731 
Q 1613 2731 1398 2631 
Q 1184 2531 1019 2322 
L 750 2322 
L 750 4666 
L 3219 4666 
z
" transform="scale(0.015625)"/>
       </defs>
       <use xlink:href="#DejaVuSerif-35"/>
       <use xlink:href="#DejaVuSerif-30" x="63.623047"/>
       <use xlink:href="#DejaVuSerif-30" x="127.246094"/>
      </g>
     </g>
    </g>
    <g id="xtick_3">
     <g id="line2d_7">
      <path d="M 408.309194 489.2325 
L 408.309194 28.08 
" clip-path="url(#p967d820930)" style="fill: none; stroke-dasharray: 3.7,1.6; stroke-dashoffset: 0; stroke: #b0b0b0; stroke-opacity: 0.5"/>
     </g>
     <g id="line2d_8">
      <g>
       <use xlink:href="#m4ff177bc70" x="408.309194" y="489.2325" style="stroke: #000000; stroke-width: 2"/>
      </g>
     </g>
     <g id="line2d_9">
      <g>
       <use xlink:href="#m369bd8abdb" x="408.309194" y="28.08" style="stroke: #000000; stroke-width: 2"/>
      </g>
     </g>
     <g id="text_3">
      <!-- 1000 -->
      <g transform="translate(375.224194 512.488438) scale(0.26 -0.26)">
       <defs>
        <path id="DejaVuSerif-31" d="M 909 0 
L 909 331 
L 1722 331 
L 1722 4213 
L 781 3603 
L 781 4013 
L 1919 4750 
L 2350 4750 
L 2350 331 
L 3163 331 
L 3163 0 
L 909 0 
z
" transform="scale(0.015625)"/>
       </defs>
       <use xlink:href="#DejaVuSerif-31"/>
       <use xlink:href="#DejaVuSerif-30" x="63.623047"/>
       <use xlink:href="#DejaVuSerif-30" x="127.246094"/>
       <use xlink:href="#DejaVuSerif-30" x="190.869141"/>
      </g>
     </g>
    </g>
    <g id="xtick_4">
     <g id="line2d_10">
      <path d="M 539.042169 489.2325 
L 539.042169 28.08 
" clip-path="url(#p967d820930)" style="fill: none; stroke-dasharray: 3.7,1.6; stroke-dashoffset: 0; stroke: #b0b0b0; stroke-opacity: 0.5"/>
     </g>
     <g id="line2d_11">
      <g>
       <use xlink:href="#m4ff177bc70" x="539.042169" y="489.2325" style="stroke: #000000; stroke-width: 2"/>
      </g>
     </g>
     <g id="line2d_12">
      <g>
       <use xlink:href="#m369bd8abdb" x="539.042169" y="28.08" style="stroke: #000000; stroke-width: 2"/>
      </g>
     </g>
     <g id="text_4">
      <!-- 1500 -->
      <g transform="translate(505.957169 512.488438) scale(0.26 -0.26)">
       <use xlink:href="#DejaVuSerif-31"/>
       <use xlink:href="#DejaVuSerif-35" x="63.623047"/>
       <use xlink:href="#DejaVuSerif-30" x="127.246094"/>
       <use xlink:href="#DejaVuSerif-30" x="190.869141"/>
      </g>
     </g>
    </g>
    <g id="xtick_5">
     <g id="line2d_13">
      <path d="M 669.775145 489.2325 
L 669.775145 28.08 
" clip-path="url(#p967d820930)" style="fill: none; stroke-dasharray: 3.7,1.6; stroke-dashoffset: 0; stroke: #b0b0b0; stroke-opacity: 0.5"/>
     </g>
     <g id="line2d_14">
      <g>
       <use xlink:href="#m4ff177bc70" x="669.775145" y="489.2325" style="stroke: #000000; stroke-width: 2"/>
      </g>
     </g>
     <g id="line2d_15">
      <g>
       <use xlink:href="#m369bd8abdb" x="669.775145" y="28.08" style="stroke: #000000; stroke-width: 2"/>
      </g>
     </g>
     <g id="text_5">
      <!-- 2000 -->
      <g transform="translate(636.690145 512.488438) scale(0.26 -0.26)">
       <defs>
        <path id="DejaVuSerif-32" d="M 819 3553 
L 469 3553 
L 469 4384 
Q 803 4563 1142 4656 
Q 1481 4750 1806 4750 
Q 2534 4750 2956 4397 
Q 3378 4044 3378 3438 
Q 3378 2753 2422 1800 
Q 2347 1728 2309 1691 
L 1131 513 
L 3078 513 
L 3078 1088 
L 3444 1088 
L 3444 0 
L 434 0 
L 434 341 
L 1850 1753 
Q 2319 2222 2519 2614 
Q 2719 3006 2719 3438 
Q 2719 3909 2473 4175 
Q 2228 4441 1797 4441 
Q 1350 4441 1106 4219 
Q 863 3997 819 3553 
z
" transform="scale(0.015625)"/>
       </defs>
       <use xlink:href="#DejaVuSerif-32"/>
       <use xlink:href="#DejaVuSerif-30" x="63.623047"/>
       <use xlink:href="#DejaVuSerif-30" x="127.246094"/>
       <use xlink:href="#DejaVuSerif-30" x="190.869141"/>
      </g>
     </g>
    </g>
    <g id="xtick_6">
     <g id="line2d_16">
      <path d="M 800.50812 489.2325 
L 800.50812 28.08 
" clip-path="url(#p967d820930)" style="fill: none; stroke-dasharray: 3.7,1.6; stroke-dashoffset: 0; stroke: #b0b0b0; stroke-opacity: 0.5"/>
     </g>
     <g id="line2d_17">
      <g>
       <use xlink:href="#m4ff177bc70" x="800.50812" y="489.2325" style="stroke: #000000; stroke-width: 2"/>
      </g>
     </g>
     <g id="line2d_18">
      <g>
       <use xlink:href="#m369bd8abdb" x="800.50812" y="28.08" style="stroke: #000000; stroke-width: 2"/>
      </g>
     </g>
     <g id="text_6">
      <!-- 2500 -->
      <g transform="translate(767.42312 512.488438) scale(0.26 -0.26)">
       <use xlink:href="#DejaVuSerif-32"/>
       <use xlink:href="#DejaVuSerif-35" x="63.623047"/>
       <use xlink:href="#DejaVuSerif-30" x="127.246094"/>
       <use xlink:href="#DejaVuSerif-30" x="190.869141"/>
      </g>
     </g>
    </g>
    <g id="text_7">
     <!-- $t$ (a.u.) -->
     <g transform="translate(430.255682 541.651562) scale(0.26 -0.26)">
      <defs>
       <path id="Cmmi10-74" d="M 397 519 
Q 397 613 416 697 
L 878 2534 
L 206 2534 
Q 141 2534 141 2619 
Q 166 2759 225 2759 
L 934 2759 
L 1191 3803 
Q 1216 3888 1291 3947 
Q 1366 4006 1459 4006 
Q 1541 4006 1595 3957 
Q 1650 3909 1650 3828 
Q 1650 3809 1648 3798 
Q 1647 3788 1644 3775 
L 1388 2759 
L 2047 2759 
Q 2113 2759 2113 2675 
Q 2109 2659 2100 2621 
Q 2091 2584 2075 2559 
Q 2059 2534 2028 2534 
L 1331 2534 
L 872 684 
Q 825 503 825 372 
Q 825 97 1013 97 
Q 1294 97 1511 361 
Q 1728 625 1844 941 
Q 1869 978 1894 978 
L 1972 978 
Q 1997 978 2012 961 
Q 2028 944 2028 922 
Q 2028 909 2022 903 
Q 1881 516 1612 222 
Q 1344 -72 997 -72 
Q 744 -72 570 93 
Q 397 259 397 519 
z
" transform="scale(0.015625)"/>
       <path id="DejaVuSerif-20" transform="scale(0.015625)"/>
       <path id="DejaVuSerif-28" d="M 2041 -997 
Q 1281 -656 893 83 
Q 506 822 506 1931 
Q 506 3044 893 3783 
Q 1281 4522 2041 4863 
L 2041 4556 
Q 1559 4225 1350 3623 
Q 1141 3022 1141 1931 
Q 1141 844 1350 242 
Q 1559 -359 2041 -691 
L 2041 -997 
z
" transform="scale(0.015625)"/>
       <path id="DejaVuSerif-61" d="M 2547 1044 
L 2547 1747 
L 1806 1747 
Q 1378 1747 1168 1562 
Q 959 1378 959 997 
Q 959 650 1171 447 
Q 1384 244 1747 244 
Q 2106 244 2326 466 
Q 2547 688 2547 1044 
z
M 3122 2075 
L 3122 331 
L 3634 331 
L 3634 0 
L 2547 0 
L 2547 359 
Q 2356 128 2106 18 
Q 1856 -91 1522 -91 
Q 969 -91 644 203 
Q 319 497 319 997 
Q 319 1513 691 1797 
Q 1063 2081 1741 2081 
L 2547 2081 
L 2547 2309 
Q 2547 2688 2317 2895 
Q 2088 3103 1672 3103 
Q 1328 3103 1125 2947 
Q 922 2791 872 2484 
L 575 2484 
L 575 3156 
Q 875 3284 1158 3348 
Q 1441 3413 1709 3413 
Q 2400 3413 2761 3070 
Q 3122 2728 3122 2075 
z
" transform="scale(0.015625)"/>
       <path id="DejaVuSerif-2e" d="M 603 325 
Q 603 500 722 622 
Q 841 744 1019 744 
Q 1191 744 1312 622 
Q 1434 500 1434 325 
Q 1434 153 1312 31 
Q 1191 -91 1019 -91 
Q 841 -91 722 29 
Q 603 150 603 325 
z
" transform="scale(0.015625)"/>
       <path id="DejaVuSerif-75" d="M 2266 3322 
L 3341 3322 
L 3341 331 
L 3884 331 
L 3884 0 
L 2766 0 
L 2766 588 
Q 2606 256 2353 82 
Q 2100 -91 1766 -91 
Q 1213 -91 952 223 
Q 691 538 691 1209 
L 691 2988 
L 172 2988 
L 172 3322 
L 1269 3322 
L 1269 1388 
Q 1269 781 1417 556 
Q 1566 331 1947 331 
Q 2347 331 2556 625 
Q 2766 919 2766 1478 
L 2766 2988 
L 2266 2988 
L 2266 3322 
z
" transform="scale(0.015625)"/>
       <path id="DejaVuSerif-29" d="M 453 -997 
L 453 -691 
Q 934 -359 1145 242 
Q 1356 844 1356 1931 
Q 1356 3022 1145 3623 
Q 934 4225 453 4556 
L 453 4863 
Q 1216 4522 1603 3783 
Q 1991 3044 1991 1931 
Q 1991 822 1603 83 
Q 1216 -656 453 -997 
z
" transform="scale(0.015625)"/>
      </defs>
      <use xlink:href="#Cmmi10-74" transform="translate(0 0.015625)"/>
      <use xlink:href="#DejaVuSerif-20" transform="translate(36.083984 0.015625)"/>
      <use xlink:href="#DejaVuSerif-28" transform="translate(67.871094 0.015625)"/>
      <use xlink:href="#DejaVuSerif-61" transform="translate(106.884766 0.015625)"/>
      <use xlink:href="#DejaVuSerif-2e" transform="translate(166.503906 0.015625)"/>
      <use xlink:href="#DejaVuSerif-75" transform="translate(198.291016 0.015625)"/>
      <use xlink:href="#DejaVuSerif-2e" transform="translate(262.695312 0.015625)"/>
      <use xlink:href="#DejaVuSerif-29" transform="translate(294.482422 0.015625)"/>
     </g>
    </g>
   </g>
   <g id="matplotlib.axis_2">
    <g id="ytick_1">
     <g id="line2d_19">
      <path d="M 114.16 437.645017 
L 833.191364 437.645017 
" clip-path="url(#p967d820930)" style="fill: none; stroke-dasharray: 3.7,1.6; stroke-dashoffset: 0; stroke: #b0b0b0; stroke-opacity: 0.5"/>
     </g>
     <g id="line2d_20">
      <defs>
       <path id="md4519ad2e7" d="M 0 0 
L 10 0 
" style="stroke: #000000; stroke-width: 2"/>
      </defs>
      <g>
       <use xlink:href="#md4519ad2e7" x="114.16" y="437.645017" style="stroke: #000000; stroke-width: 2"/>
      </g>
     </g>
     <g id="line2d_21">
      <defs>
       <path id="m0bd9f361dd" d="M 0 0 
L -10 0 
" style="stroke: #000000; stroke-width: 2"/>
      </defs>
      <g>
       <use xlink:href="#m0bd9f361dd" x="833.191364" y="437.645017" style="stroke: #000000; stroke-width: 2"/>
      </g>
     </g>
     <g id="text_8">
      <!-- 2 -->
      <g transform="translate(94.1175 447.522986) scale(0.26 -0.26)">
       <use xlink:href="#DejaVuSerif-32"/>
      </g>
     </g>
    </g>
    <g id="ytick_2">
     <g id="line2d_22">
      <path d="M 114.16 367.846063 
L 833.191364 367.846063 
" clip-path="url(#p967d820930)" style="fill: none; stroke-dasharray: 3.7,1.6; stroke-dashoffset: 0; stroke: #b0b0b0; stroke-opacity: 0.5"/>
     </g>
     <g id="line2d_23">
      <g>
       <use xlink:href="#md4519ad2e7" x="114.16" y="367.846063" style="stroke: #000000; stroke-width: 2"/>
      </g>
     </g>
     <g id="line2d_24">
      <g>
       <use xlink:href="#m0bd9f361dd" x="833.191364" y="367.846063" style="stroke: #000000; stroke-width: 2"/>
      </g>
     </g>
     <g id="text_9">
      <!-- 4 -->
      <g transform="translate(94.1175 377.724032) scale(0.26 -0.26)">
       <defs>
        <path id="DejaVuSerif-34" d="M 2234 1581 
L 2234 4063 
L 641 1581 
L 2234 1581 
z
M 3609 0 
L 1484 0 
L 1484 331 
L 2234 331 
L 2234 1247 
L 197 1247 
L 197 1588 
L 2241 4750 
L 2859 4750 
L 2859 1581 
L 3750 1581 
L 3750 1247 
L 2859 1247 
L 2859 331 
L 3609 331 
L 3609 0 
z
" transform="scale(0.015625)"/>
       </defs>
       <use xlink:href="#DejaVuSerif-34"/>
      </g>
     </g>
    </g>
    <g id="ytick_3">
     <g id="line2d_25">
      <path d="M 114.16 298.04711 
L 833.191364 298.04711 
" clip-path="url(#p967d820930)" style="fill: none; stroke-dasharray: 3.7,1.6; stroke-dashoffset: 0; stroke: #b0b0b0; stroke-opacity: 0.5"/>
     </g>
     <g id="line2d_26">
      <g>
       <use xlink:href="#md4519ad2e7" x="114.16" y="298.04711" style="stroke: #000000; stroke-width: 2"/>
      </g>
     </g>
     <g id="line2d_27">
      <g>
       <use xlink:href="#m0bd9f361dd" x="833.191364" y="298.04711" style="stroke: #000000; stroke-width: 2"/>
      </g>
     </g>
     <g id="text_10">
      <!-- 6 -->
      <g transform="translate(94.1175 307.925079) scale(0.26 -0.26)">
       <defs>
        <path id="DejaVuSerif-36" d="M 2094 219 
Q 2534 219 2771 542 
Q 3009 866 3009 1472 
Q 3009 2078 2771 2401 
Q 2534 2725 2094 2725 
Q 1647 2725 1412 2412 
Q 1178 2100 1178 1509 
Q 1178 888 1415 553 
Q 1653 219 2094 219 
z
M 1075 2569 
Q 1288 2803 1556 2918 
Q 1825 3034 2163 3034 
Q 2859 3034 3264 2615 
Q 3669 2197 3669 1472 
Q 3669 763 3233 336 
Q 2797 -91 2069 -91 
Q 1278 -91 853 498 
Q 428 1088 428 2181 
Q 428 3406 931 4078 
Q 1434 4750 2350 4750 
Q 2597 4750 2869 4703 
Q 3141 4656 3425 4563 
L 3425 3794 
L 3072 3794 
Q 3034 4109 2831 4275 
Q 2628 4441 2284 4441 
Q 1678 4441 1381 3981 
Q 1084 3522 1075 2569 
z
" transform="scale(0.015625)"/>
       </defs>
       <use xlink:href="#DejaVuSerif-36"/>
      </g>
     </g>
    </g>
    <g id="ytick_4">
     <g id="line2d_28">
      <path d="M 114.16 228.248156 
L 833.191364 228.248156 
" clip-path="url(#p967d820930)" style="fill: none; stroke-dasharray: 3.7,1.6; stroke-dashoffset: 0; stroke: #b0b0b0; stroke-opacity: 0.5"/>
     </g>
     <g id="line2d_29">
      <g>
       <use xlink:href="#md4519ad2e7" x="114.16" y="228.248156" style="stroke: #000000; stroke-width: 2"/>
      </g>
     </g>
     <g id="line2d_30">
      <g>
       <use xlink:href="#m0bd9f361dd" x="833.191364" y="228.248156" style="stroke: #000000; stroke-width: 2"/>
      </g>
     </g>
     <g id="text_11">
      <!-- 8 -->
      <g transform="translate(94.1175 238.126125) scale(0.26 -0.26)">
       <defs>
        <path id="DejaVuSerif-38" d="M 2981 1275 
Q 2981 1775 2732 2051 
Q 2484 2328 2034 2328 
Q 1584 2328 1336 2051 
Q 1088 1775 1088 1275 
Q 1088 772 1336 495 
Q 1584 219 2034 219 
Q 2484 219 2732 495 
Q 2981 772 2981 1275 
z
M 2853 3541 
Q 2853 3966 2637 4203 
Q 2422 4441 2034 4441 
Q 1650 4441 1433 4203 
Q 1216 3966 1216 3541 
Q 1216 3113 1433 2875 
Q 1650 2638 2034 2638 
Q 2422 2638 2637 2875 
Q 2853 3113 2853 3541 
z
M 2516 2484 
Q 3047 2413 3344 2092 
Q 3641 1772 3641 1275 
Q 3641 619 3225 264 
Q 2809 -91 2034 -91 
Q 1263 -91 845 264 
Q 428 619 428 1275 
Q 428 1772 725 2092 
Q 1022 2413 1556 2484 
Q 1084 2569 832 2842 
Q 581 3116 581 3541 
Q 581 4103 968 4426 
Q 1356 4750 2034 4750 
Q 2713 4750 3100 4426 
Q 3488 4103 3488 3541 
Q 3488 3116 3236 2842 
Q 2984 2569 2516 2484 
z
" transform="scale(0.015625)"/>
       </defs>
       <use xlink:href="#DejaVuSerif-38"/>
      </g>
     </g>
    </g>
    <g id="ytick_5">
     <g id="line2d_31">
      <path d="M 114.16 158.449203 
L 833.191364 158.449203 
" clip-path="url(#p967d820930)" style="fill: none; stroke-dasharray: 3.7,1.6; stroke-dashoffset: 0; stroke: #b0b0b0; stroke-opacity: 0.5"/>
     </g>
     <g id="line2d_32">
      <g>
       <use xlink:href="#md4519ad2e7" x="114.16" y="158.449203" style="stroke: #000000; stroke-width: 2"/>
      </g>
     </g>
     <g id="line2d_33">
      <g>
       <use xlink:href="#m0bd9f361dd" x="833.191364" y="158.449203" style="stroke: #000000; stroke-width: 2"/>
      </g>
     </g>
     <g id="text_12">
      <!-- 10 -->
      <g transform="translate(77.575 168.327171) scale(0.26 -0.26)">
       <use xlink:href="#DejaVuSerif-31"/>
       <use xlink:href="#DejaVuSerif-30" x="63.623047"/>
      </g>
     </g>
    </g>
    <g id="ytick_6">
     <g id="line2d_34">
      <path d="M 114.16 88.650249 
L 833.191364 88.650249 
" clip-path="url(#p967d820930)" style="fill: none; stroke-dasharray: 3.7,1.6; stroke-dashoffset: 0; stroke: #b0b0b0; stroke-opacity: 0.5"/>
     </g>
     <g id="line2d_35">
      <g>
       <use xlink:href="#md4519ad2e7" x="114.16" y="88.650249" style="stroke: #000000; stroke-width: 2"/>
      </g>
     </g>
     <g id="line2d_36">
      <g>
       <use xlink:href="#m0bd9f361dd" x="833.191364" y="88.650249" style="stroke: #000000; stroke-width: 2"/>
      </g>
     </g>
     <g id="text_13">
      <!-- 12 -->
      <g transform="translate(77.575 98.528218) scale(0.26 -0.26)">
       <use xlink:href="#DejaVuSerif-31"/>
       <use xlink:href="#DejaVuSerif-32" x="63.623047"/>
      </g>
     </g>
    </g>
    <g id="text_14">
     <!-- $|\vec{p}_i|$ (a.u.) -->
     <g transform="translate(67.075 315.72625) rotate(-90) scale(0.26 -0.26)">
      <defs>
       <path id="Cmsy10-6a" d="M 763 -1484 
L 763 4684 
Q 763 4734 800 4767 
Q 838 4800 891 4800 
Q 938 4800 978 4767 
Q 1019 4734 1019 4684 
L 1019 -1484 
Q 1019 -1534 978 -1567 
Q 938 -1600 891 -1600 
Q 838 -1600 800 -1567 
Q 763 -1534 763 -1484 
z
" transform="scale(0.015625)"/>
       <path id="Cmmi10-7e" d="M 1281 3809 
Q 1231 3809 1198 3846 
Q 1166 3884 1166 3938 
Q 1166 3984 1198 4023 
Q 1231 4063 1281 4063 
L 3547 4063 
Q 3378 4291 3378 4441 
Q 3378 4497 3417 4533 
Q 3456 4569 3506 4569 
Q 3613 4569 3634 4469 
Q 3697 4194 3938 4044 
Q 4000 4003 4000 3938 
Q 4000 3859 3938 3828 
Q 3575 3647 3353 3347 
Q 3328 3303 3256 3303 
Q 3209 3303 3168 3340 
Q 3128 3378 3128 3431 
Q 3128 3547 3438 3809 
L 1281 3809 
z
" transform="scale(0.015625)"/>
       <path id="Cmmi10-70" d="M -159 -1241 
Q -219 -1241 -219 -1159 
Q -197 -1019 -134 -1019 
Q 66 -1019 145 -983 
Q 225 -947 269 -800 
L 991 2081 
Q 1038 2200 1038 2388 
Q 1038 2663 850 2663 
Q 650 2663 553 2423 
Q 456 2184 366 1819 
Q 366 1778 313 1778 
L 238 1778 
Q 222 1778 203 1801 
Q 184 1825 184 1844 
Q 253 2122 317 2315 
Q 381 2509 517 2668 
Q 653 2828 856 2828 
Q 1075 2828 1240 2704 
Q 1406 2581 1453 2369 
Q 1628 2572 1840 2700 
Q 2053 2828 2278 2828 
Q 2547 2828 2745 2684 
Q 2944 2541 3044 2308 
Q 3144 2075 3144 1806 
Q 3144 1394 2933 953 
Q 2722 513 2361 220 
Q 2000 -72 1588 -72 
Q 1400 -72 1248 34 
Q 1097 141 1013 313 
L 722 -825 
Q 706 -919 703 -934 
Q 703 -1019 1125 -1019 
Q 1191 -1019 1191 -1100 
Q 1169 -1184 1155 -1212 
Q 1141 -1241 1081 -1241 
L -159 -1241 
z
M 1594 97 
Q 1816 97 2006 280 
Q 2197 463 2316 691 
Q 2403 863 2479 1111 
Q 2556 1359 2612 1640 
Q 2669 1922 2669 2088 
Q 2669 2234 2630 2362 
Q 2591 2491 2502 2577 
Q 2413 2663 2266 2663 
Q 2031 2663 1823 2495 
Q 1616 2328 1447 2081 
L 1447 2059 
L 1094 647 
Q 1138 419 1263 258 
Q 1388 97 1594 97 
z
" transform="scale(0.015625)"/>
       <path id="Cmmi10-69" d="M 500 459 
Q 500 578 550 709 
L 1069 2088 
Q 1153 2322 1153 2472 
Q 1153 2663 1013 2663 
Q 759 2663 595 2402 
Q 431 2141 353 1819 
Q 341 1778 300 1778 
L 225 1778 
Q 172 1778 172 1838 
L 172 1856 
Q 275 2238 487 2533 
Q 700 2828 1025 2828 
Q 1253 2828 1411 2678 
Q 1569 2528 1569 2297 
Q 1569 2178 1516 2047 
L 997 672 
Q 909 459 909 288 
Q 909 97 1056 97 
Q 1306 97 1473 364 
Q 1641 631 1709 941 
Q 1722 978 1759 978 
L 1838 978 
Q 1863 978 1878 961 
Q 1894 944 1894 922 
Q 1894 916 1888 903 
Q 1800 541 1583 234 
Q 1366 -72 1044 -72 
Q 819 -72 659 83 
Q 500 238 500 459 
z
M 1222 3878 
Q 1222 4013 1334 4122 
Q 1447 4231 1581 4231 
Q 1691 4231 1761 4164 
Q 1831 4097 1831 3994 
Q 1831 3850 1717 3742 
Q 1603 3634 1466 3634 
Q 1363 3634 1292 3704 
Q 1222 3775 1222 3878 
z
" transform="scale(0.015625)"/>
      </defs>
      <use xlink:href="#Cmsy10-6a" transform="translate(0 0.53125)"/>
      <use xlink:href="#Cmmi10-7e" transform="translate(19.040039 5.609375)"/>
      <use xlink:href="#Cmmi10-70" transform="translate(27.685547 0.53125)"/>
      <use xlink:href="#Cmmi10-69" transform="translate(82.442656 -16.475) scale(0.7)"/>
      <use xlink:href="#Cmsy10-6a" transform="translate(112.91668 0.53125)"/>
      <use xlink:href="#DejaVuSerif-20" transform="translate(140.602227 0.53125)"/>
      <use xlink:href="#DejaVuSerif-28" transform="translate(172.389336 0.53125)"/>
      <use xlink:href="#DejaVuSerif-61" transform="translate(211.403008 0.53125)"/>
      <use xlink:href="#DejaVuSerif-2e" transform="translate(271.022148 0.53125)"/>
      <use xlink:href="#DejaVuSerif-75" transform="translate(302.809258 0.53125)"/>
      <use xlink:href="#DejaVuSerif-2e" transform="translate(367.213555 0.53125)"/>
      <use xlink:href="#DejaVuSerif-29" transform="translate(399.000664 0.53125)"/>
     </g>
    </g>
   </g>
   <g id="line2d_37">
    <path d="M 146.843244 377.15597 
L 147.497563 370.661425 
L 148.151882 371.848576 
L 148.806201 372.213413 
L 150.11484 372.490258 
L 152.732117 372.670641 
L 159.275309 372.788622 
L 180.867842 372.856065 
L 307.151447 372.886718 
L 800.50812 372.892959 
L 800.50812 372.892959 
" clip-path="url(#p967d820930)" style="fill: none; stroke: #1f77b4; stroke-width: 3; stroke-linecap: square"/>
   </g>
   <g id="line2d_38">
    <path d="M 146.843244 377.155928 
L 147.497563 237.159532 
L 148.806201 237.04951 
L 155.349393 237.007866 
L 250.225677 236.9973 
L 800.50812 236.996523 
L 800.50812 236.996523 
" clip-path="url(#p967d820930)" style="fill: none; stroke-dasharray: 11.1,4.8; stroke-dashoffset: 0; stroke: #ff7f0e; stroke-width: 3"/>
   </g>
   <g id="line2d_39">
    <path d="M 146.843244 471.652444 
L 147.497563 298.910566 
L 148.151882 299.106654 
L 150.11484 299.221462 
L 157.96667 299.283039 
L 216.201078 299.305919 
L 800.50812 299.309898 
L 800.50812 299.309898 
" clip-path="url(#p967d820930)" style="fill: none; stroke-dasharray: 19.2,4.8,3,4.8; stroke-dashoffset: 0; stroke: #2ca02c; stroke-width: 3"/>
   </g>
   <g id="line2d_40">
    <path d="M 146.843244 471.652444 
L 147.497563 460.967064 
L 148.151882 468.286853 
L 148.806201 473.177407 
L 149.460521 472.648648 
L 150.11484 437.330748 
L 150.769159 335.389925 
L 151.423478 389.981279 
L 152.077797 412.891572 
L 152.732117 430.325126 
L 154.040755 451.689493 
L 155.349393 466.476655 
L 156.003713 472.111597 
L 156.658032 473.893347 
L 157.312351 460.291657 
L 157.96667 291.226163 
L 158.620989 376.926911 
L 159.275309 404.387775 
L 159.929628 424.174509 
L 161.238266 447.223041 
L 162.546904 462.783231 
L 163.201224 469.263568 
L 163.855543 473.420781 
L 164.509862 472.026634 
L 165.164181 439.767567 
L 165.8185 340.324316 
L 166.47282 385.606369 
L 167.127139 412.083127 
L 167.781458 427.40492 
L 168.435777 439.606164 
L 169.090096 449.301648 
L 170.398735 464.323222 
L 171.053054 469.756253 
L 171.707373 473.956054 
L 172.361692 471.846677 
L 173.016012 412.67899 
L 173.670331 336.790772 
L 174.32465 387.622175 
L 174.978969 410.760373 
L 175.633288 426.388416 
L 176.287608 438.789057 
L 177.596246 456.275296 
L 178.904884 469.014124 
L 179.559204 473.077843 
L 180.213523 473.087472 
L 180.867842 456.653471 
L 181.522161 306.526042 
L 182.17648 374.874786 
L 182.8308 402.347792 
L 183.485119 421.671951 
L 184.793757 444.572714 
L 186.756715 465.733956 
L 187.411034 471.253374 
L 188.065353 474.196463 
L 188.719672 469.835081 
L 189.373991 393.419696 
L 190.028311 339.307716 
L 190.68263 388.93738 
L 191.991268 426.403301 
L 193.299907 446.736403 
L 194.608545 460.898452 
L 195.262864 466.983755 
L 195.917183 471.518552 
L 196.571503 474.259616 
L 197.225822 470.233686 
L 197.880141 380.508864 
L 198.53446 333.664281 
L 199.188779 386.343646 
L 199.843099 406.763234 
L 200.497418 423.378802 
L 201.151737 434.816372 
L 202.460375 452.330131 
L 204.423333 469.531237 
L 205.077652 473.755098 
L 205.731971 473.568729 
L 206.386291 455.053298 
L 207.04061 278.503558 
L 207.694929 363.460738 
L 208.349248 395.727016 
L 209.657887 428.439295 
L 210.312206 436.984368 
L 210.966525 447.320983 
L 211.620844 453.272379 
L 212.275163 460.668218 
L 213.583802 470.741136 
L 214.238121 473.985374 
L 214.89244 472.648016 
L 215.546759 452.073884 
L 216.201078 277.001553 
L 216.855398 369.281347 
L 218.164036 415.32381 
L 220.126994 445.420509 
L 221.435632 459.338221 
L 222.089951 463.9871 
L 222.74427 469.982414 
L 223.39859 472.743884 
L 224.052909 473.651093 
L 224.707228 468.275323 
L 225.361547 296.56893 
L 226.670186 383.492523 
L 227.324505 405.286864 
L 228.633143 432.188987 
L 229.287462 438.618691 
L 229.941782 448.949378 
L 230.596101 453.402263 
L 231.25042 461.072049 
L 231.904739 464.992601 
L 232.559058 470.249767 
L 233.213378 473.487818 
L 233.867697 473.579204 
L 234.522016 465.606276 
L 235.176335 424.051897 
L 235.830654 344.875286 
L 236.484974 368.99536 
L 237.139293 404.339604 
L 237.793612 413.357738 
L 238.447931 428.997537 
L 240.410889 451.798917 
L 241.065208 455.804047 
L 241.719527 463.382095 
L 242.373846 465.626884 
L 243.028166 472.032435 
L 243.682485 473.246007 
L 244.336804 472.499283 
L 244.991123 469.417531 
L 245.645442 358.538076 
L 246.299761 321.753531 
L 247.6084 397.514195 
L 248.262719 401.594265 
L 248.917038 425.053444 
L 249.571357 425.764485 
L 250.225677 441.149088 
L 250.879996 442.54498 
L 251.534315 451.676056 
L 252.842953 458.865858 
L 253.497273 464.843151 
L 254.151592 464.952604 
L 254.805911 472.319122 
L 255.46023 470.696097 
L 256.114549 474.245325 
L 256.768869 474.485135 
L 257.423188 453.67726 
L 258.077507 470.59008 
L 258.731826 283.837425 
L 259.386145 418.389404 
L 260.040465 331.892736 
L 260.694784 287.080059 
L 261.349103 323.579261 
L 262.003422 433.777346 
L 262.657741 288.501088 
L 263.312061 470.692643 
L 263.96638 441.186135 
L 264.620699 311.904132 
L 265.275018 448.411604 
L 265.929337 380.335 
L 266.583657 417.794051 
L 267.892295 476.627313 
L 268.546614 410.923899 
L 269.200933 442.411049 
L 269.855253 424.645926 
L 270.509572 377.702719 
L 271.163891 469.917188 
L 271.81821 407.786897 
L 273.126848 472.73891 
L 273.781168 469.844481 
L 275.089806 416.761231 
L 275.744125 450.503089 
L 276.398444 475.158573 
L 277.052764 473.400987 
L 277.707083 470.266641 
L 279.015721 399.924624 
L 279.67004 408.147826 
L 280.32436 421.515132 
L 280.978679 417.138766 
L 282.287317 345.400028 
L 282.941636 445.898814 
L 283.595956 452.862059 
L 284.250275 449.599321 
L 285.558913 432.446969 
L 286.213232 431.79648 
L 286.867552 437.285326 
L 287.521871 440.842278 
L 288.17619 436.944027 
L 288.830509 420.306956 
L 289.484828 367.021554 
L 290.139148 392.339253 
L 290.793467 447.774741 
L 291.447786 457.884511 
L 292.102105 458.489424 
L 292.756424 452.202662 
L 293.410744 440.699339 
L 294.719382 412.424989 
L 295.373701 403.51032 
L 296.02802 396.372767 
L 296.68234 385.971908 
L 297.336659 378.824961 
L 297.990978 396.248256 
L 298.645297 423.494132 
L 299.299616 444.095888 
L 299.953935 457.294266 
L 300.608255 463.356981 
L 301.262574 461.397891 
L 301.916893 449.162248 
L 302.571212 405.950928 
L 303.225531 347.142536 
L 303.879851 423.407032 
L 304.53417 445.903139 
L 305.188489 455.921775 
L 305.842808 457.794539 
L 306.497127 452.668695 
L 307.151447 441.148795 
L 307.805766 423.010528 
L 309.114404 377.379481 
L 309.768723 383.281985 
L 310.423043 400.698798 
L 311.077362 415.054291 
L 311.731681 425.773748 
L 312.386 433.754156 
L 313.040319 439.000186 
L 313.694639 440.844703 
L 314.348958 438.264249 
L 315.003277 429.698457 
L 315.657596 411.896318 
L 316.311915 376.846885 
L 316.966235 352.941147 
L 317.620554 402.959209 
L 318.274873 434.745239 
L 318.929192 452.938762 
L 319.583511 462.679682 
L 320.237831 464.533448 
L 320.89215 457.857762 
L 321.546469 440.373985 
L 322.200788 392.204886 
L 322.855107 361.365532 
L 323.509427 434.707217 
L 324.163746 456.032374 
L 324.818065 464.75814 
L 325.472384 464.682906 
L 326.126703 456.575597 
L 326.781022 440.278776 
L 327.435342 411.399964 
L 328.089661 355.545758 
L 328.74398 366.444649 
L 329.398299 411.37217 
L 330.052618 433.077652 
L 330.706938 443.800977 
L 331.361257 447.29211 
L 332.015576 444.708085 
L 332.669895 436.422722 
L 333.324214 422.214078 
L 334.632853 380.679241 
L 335.287172 382.526467 
L 336.59581 420.12669 
L 337.25013 432.006914 
L 337.904449 438.852555 
L 338.558768 440.983383 
L 339.213087 438.219155 
L 339.867406 429.845286 
L 340.521726 414.046433 
L 341.830364 365.472751 
L 343.139002 422.143449 
L 343.793322 440.392909 
L 344.447641 450.535409 
L 345.10196 453.712773 
L 345.756279 449.79727 
L 346.410598 437.774134 
L 347.064918 413.221055 
L 347.719237 355.833449 
L 348.373556 359.903783 
L 349.027875 419.210418 
L 349.682194 446.082472 
L 350.336514 460.876449 
L 350.990833 467.247489 
L 351.645152 464.931509 
L 352.299471 452.865325 
L 352.95379 425.06426 
L 353.608109 313.140578 
L 354.262429 402.227985 
L 354.916748 443.636183 
L 355.571067 460.688474 
L 356.225386 467.095879 
L 356.879705 464.624535 
L 357.534025 453.855061 
L 358.188344 433.628352 
L 358.842663 394.117013 
L 359.496982 320.587492 
L 360.151301 393.830522 
L 360.805621 429.362677 
L 361.45994 446.492823 
L 362.114259 454.258616 
L 362.768578 454.551477 
L 363.422897 447.734895 
L 364.077217 433.241455 
L 364.731536 407.860688 
L 365.385855 367.638509 
L 366.040174 370.805764 
L 366.694493 407.307704 
L 367.348813 428.909885 
L 368.003132 440.448845 
L 368.657451 444.980286 
L 369.31177 443.47166 
L 369.966089 436.073204 
L 370.620409 422.211551 
L 371.929047 377.181696 
L 372.583366 382.790184 
L 373.237685 406.952185 
L 373.892005 425.259236 
L 374.546324 436.41144 
L 375.200643 441.646499 
L 375.854962 441.41621 
L 376.509281 435.572944 
L 377.163601 423.238962 
L 377.81792 402.311021 
L 378.472239 374.800368 
L 379.126558 378.300239 
L 379.780877 407.885933 
L 380.435196 429.333564 
L 381.089516 442.121349 
L 381.743835 448.058997 
L 382.398154 447.577615 
L 383.052473 440.308069 
L 383.706792 424.547994 
L 384.361112 394.360417 
L 385.015431 348.732021 
L 386.324069 423.387048 
L 386.978388 443.783607 
L 387.632708 454.733189 
L 388.287027 458.177729 
L 388.941346 454.183764 
L 389.595665 442.065863 
L 390.249984 417.908919 
L 390.904304 360.754559 
L 391.558623 351.656862 
L 392.212942 417.646209 
L 392.867261 445.519939 
L 393.52158 460.711405 
L 394.1759 467.447385 
L 394.830219 465.613715 
L 395.484538 454.466846 
L 396.138857 430.159992 
L 396.793176 357.97173 
L 397.447496 379.017966 
L 398.101815 436.437002 
L 398.756134 458.055085 
L 399.410453 467.359072 
L 400.064772 467.245245 
L 400.719092 458.533705 
L 401.373411 441.000792 
L 402.02773 408.030662 
L 402.682049 323.336058 
L 403.336368 380.3793 
L 403.990688 425.835786 
L 404.645007 446.528914 
L 405.299326 456.774846 
L 405.953645 459.197393 
L 406.607964 454.213958 
L 407.262284 441.567092 
L 407.916603 418.439234 
L 408.570922 374.167326 
L 409.225241 351.705141 
L 409.87956 402.782219 
L 410.533879 430.007552 
L 411.188199 444.151363 
L 411.842518 450.241582 
L 412.496837 449.56055 
L 413.151156 442.28681 
L 413.805475 427.631719 
L 414.459795 402.728471 
L 415.114114 368.892889 
L 415.768433 377.063463 
L 416.422752 408.618699 
L 417.077071 428.63752 
L 417.731391 439.719748 
L 418.38571 444.185319 
L 419.040029 442.786077 
L 419.694348 435.543466 
L 420.348667 421.734955 
L 421.657306 375.470583 
L 422.311625 382.54892 
L 422.965944 408.115006 
L 423.620263 426.779804 
L 424.274583 437.933765 
L 424.928902 442.974399 
L 425.583221 442.371426 
L 426.23754 435.964654 
L 426.891859 422.792186 
L 427.546179 400.489979 
L 428.200498 371.906436 
L 428.854817 379.204377 
L 429.509136 409.45245 
L 430.163455 430.268728 
L 430.817775 442.482943 
L 431.472094 447.984998 
L 432.126413 447.229915 
L 432.780732 439.897918 
L 433.435051 424.42911 
L 434.089371 395.605287 
L 434.74369 352.735201 
L 435.398009 382.49843 
L 436.052328 419.922133 
L 436.706647 440.690776 
L 437.360966 452.057677 
L 438.015286 456.195971 
L 438.669605 453.326405 
L 439.323924 442.94107 
L 439.978243 422.278231 
L 441.286882 332.062921 
L 441.941201 404.152237 
L 442.59552 436.744229 
L 443.249839 454.132371 
L 443.904158 462.991013 
L 444.558478 464.198711 
L 445.212797 457.572865 
L 445.867116 442.248639 
L 446.521435 411.673965 
L 447.175754 313.737842 
L 447.830074 387.711043 
L 448.484393 437.02731 
L 449.138712 459.71467 
L 449.793031 470.140683 
L 450.44735 469.021712 
L 451.10167 457.253332 
L 451.755989 434.693182 
L 452.410308 387.590001 
L 453.064627 308.550972 
L 453.718946 406.906858 
L 454.373266 439.008763 
L 455.027585 455.066503 
L 455.681904 462.389464 
L 456.336223 462.080073 
L 456.990542 454.322368 
L 457.644862 438.47471 
L 458.299181 409.448073 
L 458.9535 347.633229 
L 459.607819 367.070999 
L 460.262138 415.814516 
L 460.916458 438.666584 
L 461.570777 450.421615 
L 462.225096 454.640712 
L 462.879415 452.079207 
L 463.533734 442.710378 
L 464.188053 425.175582 
L 464.842373 394.583377 
L 465.496692 355.758084 
L 466.151011 383.196483 
L 466.80533 416.008602 
L 467.459649 434.361851 
L 468.113969 443.972174 
L 468.768288 447.03862 
L 469.422607 444.167737 
L 470.076926 435.277998 
L 470.731245 419.367616 
L 472.039884 370.764977 
L 472.694203 385.555693 
L 473.348522 411.406532 
L 474.002841 428.671401 
L 474.657161 438.625161 
L 475.31148 442.749311 
L 475.965799 441.536013 
L 476.620118 434.907702 
L 477.274437 422.12144 
L 477.928757 401.575166 
L 478.583076 376.58511 
L 479.237395 378.923933 
L 479.891714 405.029637 
L 480.546033 425.388412 
L 481.200353 438.026039 
L 481.854672 444.458091 
L 482.508991 445.23858 
L 483.16331 440.250361 
L 483.817629 428.622879 
L 484.471949 407.646726 
L 485.126268 373.405194 
L 485.780587 365.622751 
L 486.434906 403.036363 
L 487.089225 428.750106 
L 487.743545 443.824918 
L 488.397864 451.591536 
L 489.052183 452.92233 
L 489.706502 447.717556 
L 490.360821 435.012692 
L 491.01514 410.704698 
L 491.66946 360.015665 
L 492.323779 356.266076 
L 492.978098 411.566386 
L 493.632417 438.771713 
L 494.286736 453.920913 
L 494.941056 461.372312 
L 495.595375 461.700901 
L 496.249694 454.728905 
L 496.904013 439.438362 
L 497.558332 409.455229 
L 498.212652 322.703769 
L 499.52129 430.595527 
L 500.175609 454.80301 
L 500.829928 468.051027 
L 501.484248 470.894913 
L 502.138567 462.24464 
L 502.792886 442.118911 
L 503.447205 402.409849 
L 504.101524 286.509215 
L 504.755844 396.235355 
L 505.410163 434.236656 
L 506.064482 452.438731 
L 506.718801 461.468922 
L 507.37312 463.067479 
L 508.02744 457.513175 
L 508.681759 444.68472 
L 509.336078 421.921818 
L 510.644716 338.33784 
L 511.299036 398.568921 
L 511.953355 428.6621 
L 512.607674 444.218217 
L 513.261993 451.623139 
L 513.916312 452.485129 
L 514.570632 447.175508 
L 515.224951 435.400823 
L 515.87927 415.334064 
L 516.533589 383.483692 
L 517.187908 362.709818 
L 518.496547 417.686554 
L 519.150866 432.981054 
L 519.805185 441.142503 
L 520.459504 443.722319 
L 521.113823 441.246179 
L 521.768143 433.742068 
L 522.422462 420.698637 
L 523.7311 379.659237 
L 524.385419 379.866384 
L 525.694058 420.367332 
L 526.348377 433.135076 
L 527.002696 440.50461 
L 527.657015 443.020136 
L 528.311335 440.702512 
L 528.965654 433.111292 
L 529.619973 418.931233 
L 530.274292 395.272833 
L 530.928611 366.070416 
L 531.582931 378.737461 
L 532.23725 410.809579 
L 532.891569 432.229685 
L 533.545888 445.242717 
L 534.200207 451.879827 
L 534.854527 452.586507 
L 535.508846 447.117309 
L 536.163165 434.38196 
L 536.817484 410.087695 
L 537.471803 357.832645 
L 538.126123 352.640193 
L 538.780442 411.512803 
L 539.434761 439.689829 
L 540.08908 455.739825 
L 540.743399 464.319315 
L 541.397719 465.886646 
L 542.052038 460.028326 
L 542.706357 445.567364 
L 543.360676 414.557 
L 544.014995 280.609073 
L 544.669315 407.013548 
L 545.323634 444.857423 
L 545.977953 460.828174 
L 546.632272 467.008034 
L 547.286591 465.336018 
L 547.94091 456.499435 
L 548.59523 440.188558 
L 549.249549 411.73557 
L 549.903868 352.185873 
L 550.558187 357.242026 
L 551.212506 409.411277 
L 551.866826 433.457096 
L 552.521145 445.946801 
L 553.175464 451.268539 
L 553.829783 450.640688 
L 554.484102 444.463628 
L 555.138422 432.614986 
L 555.792741 414.073811 
L 556.44706 388.365065 
L 557.101379 371.217226 
L 557.755698 387.012885 
L 558.410018 408.586376 
L 559.064337 423.60922 
L 559.718656 433.021228 
L 560.372975 438.142005 
L 561.027294 439.604736 
L 561.681614 437.581135 
L 562.335933 431.880355 
L 562.990252 421.796336 
L 563.644571 405.8535 
L 564.29889 383.239862 
L 564.95321 369.615767 
L 565.607529 390.758652 
L 566.261848 416.939328 
L 566.916167 435.370685 
L 567.570486 447.231703 
L 568.224806 453.541753 
L 568.879125 454.351606 
L 569.533444 449.23447 
L 570.187763 437.031708 
L 570.842082 413.328413 
L 571.496402 356.462071 
L 572.150721 343.300456 
L 572.80504 416.07974 
L 573.459359 447.529239 
L 574.113678 466.405033 
L 574.767997 472.188811 
L 575.422317 464.526998 
L 576.076636 448.278292 
L 576.730955 422.099045 
L 577.385274 369.456868 
L 578.039593 334.332398 
L 578.693913 399.48731 
L 579.348232 427.183524 
L 580.002551 440.941762 
L 580.65687 447.123301 
L 581.311189 447.710915 
L 581.965509 443.673595 
L 582.619828 435.753807 
L 583.274147 424.704663 
L 584.582785 398.45996 
L 585.237105 387.90017 
L 585.891424 383.680036 
L 586.545743 389.562433 
L 589.16302 446.331824 
L 589.817339 453.02102 
L 590.471658 454.914379 
L 591.125977 451.221854 
L 591.780297 440.6391 
L 592.434616 418.808856 
L 593.088935 353.493913 
L 593.743254 391.528804 
L 594.397573 443.935642 
L 595.051893 457.68656 
L 595.706212 461.780386 
L 596.360531 459.19805 
L 597.01485 450.956264 
L 597.669169 437.816086 
L 598.977808 403.414686 
L 599.632127 393.645866 
L 600.286446 391.384805 
L 600.940765 388.611492 
L 601.595084 382.944703 
L 602.249404 385.418045 
L 602.903723 406.687559 
L 603.558042 431.586978 
L 604.212361 451.188781 
L 604.86668 465.399486 
L 605.521 473.040789 
L 606.175319 458.993783 
L 606.829638 433.031857 
L 608.138276 360.358024 
L 608.792596 379.093299 
L 609.446915 393.895462 
L 610.101234 393.577558 
L 610.755553 381.985747 
L 611.409872 384.662986 
L 612.718511 451.427377 
L 613.37283 470.103842 
L 614.027149 460.473719 
L 614.681468 446.896703 
L 615.335788 437.803367 
L 615.990107 444.206108 
L 616.644426 461.1622 
L 617.298745 473.755816 
L 617.953064 450.688436 
L 618.607384 440.336395 
L 619.916022 472.825663 
L 620.570341 424.572566 
L 621.22466 403.988504 
L 621.87898 443.053248 
L 622.533299 409.320625 
L 623.187618 356.321448 
L 623.841937 362.425557 
L 624.496256 440.525408 
L 625.150576 448.919978 
L 625.804895 481.323985 
L 626.459214 435.097999 
L 627.113533 410.043711 
L 627.767852 419.299197 
L 628.422171 486.618019 
L 629.076491 441.761414 
L 629.73081 468.504217 
L 630.385129 444.523263 
L 631.039448 467.006169 
L 631.693767 464.12621 
L 632.348087 313.38322 
L 633.002406 471.45181 
L 633.656725 413.140236 
L 634.311044 418.020155 
L 634.965363 468.950518 
L 635.619683 457.030916 
L 636.274002 449.693524 
L 636.928321 410.885464 
L 638.236959 442.887034 
L 638.891279 429.618607 
L 639.545598 476.272146 
L 640.199917 359.858783 
L 640.854236 463.295538 
L 641.508555 481.224779 
L 642.162875 399.746481 
L 642.817194 482.158913 
L 643.471513 428.883349 
L 644.125832 464.247428 
L 644.780151 376.653376 
L 645.434471 431.723124 
L 646.08879 448.484754 
L 646.743109 330.055926 
L 647.397428 474.018809 
L 648.051747 365.542304 
L 648.706067 344.364495 
L 649.360386 478.342736 
L 650.014705 367.131639 
L 650.669024 475.103533 
L 651.323343 390.244871 
L 651.977663 447.469826 
L 652.631982 433.952776 
L 653.286301 398.036438 
L 653.94062 448.257095 
L 654.594939 411.659048 
L 655.249258 447.561167 
L 655.903578 456.158716 
L 656.557897 435.067205 
L 657.212216 465.645434 
L 657.866535 422.260428 
L 658.520854 460.905282 
L 659.175174 366.495265 
L 659.829493 446.625759 
L 660.483812 413.81064 
L 661.138131 418.574724 
L 661.79245 444.748269 
L 662.44677 366.041982 
L 663.101089 460.260141 
L 663.755408 410.620757 
L 664.409727 465.236336 
L 665.064046 444.148594 
L 665.718366 464.811814 
L 666.372685 442.141777 
L 667.027004 439.269368 
L 667.681323 446.717478 
L 668.335642 402.560108 
L 668.989962 442.808124 
L 669.644281 402.62177 
L 670.2986 429.827327 
L 670.952919 435.829453 
L 671.607238 401.124398 
L 672.261558 458.167447 
L 672.915877 324.475947 
L 673.570196 472.203846 
L 674.224515 392.926038 
L 674.878834 477.292532 
L 675.533154 393.359145 
L 676.187473 459.673691 
L 676.841792 427.499795 
L 677.496111 432.347983 
L 678.15043 439.81636 
L 678.80475 396.180175 
L 679.459069 441.169704 
L 680.113388 414.997944 
L 681.422026 448.340149 
L 682.076345 407.203992 
L 682.730665 470.216686 
L 683.384984 320.194673 
L 684.039303 477.713994 
L 684.693622 298.414856 
L 685.347941 463.889235 
L 686.002261 405.331553 
L 686.65658 437.868095 
L 687.310899 437.390093 
L 687.965218 391.197401 
L 688.619537 448.727044 
L 689.273857 413.046738 
L 689.928176 446.874828 
L 690.582495 455.173903 
L 691.236814 431.758574 
L 691.891133 468.903356 
L 692.545453 393.009368 
L 693.199772 465.2573 
L 693.854091 415.477973 
L 694.50841 429.984603 
L 695.162729 461.289839 
L 695.817049 360.236739 
L 696.471368 469.700709 
L 697.125687 422.786213 
L 697.780006 470.760261 
L 698.434325 362.428633 
L 699.088645 479.791459 
L 699.742964 267.761985 
L 700.397283 481.521592 
L 701.051602 442.612152 
L 701.705921 455.311764 
L 702.360241 456.875097 
L 703.01456 472.056698 
L 703.668879 469.993545 
L 704.323198 428.379031 
L 704.977517 469.479914 
L 705.631837 477.97518 
L 706.286156 406.620457 
L 706.940475 445.985344 
L 707.594794 469.195106 
L 708.249113 463.195684 
L 708.903433 479.936578 
L 709.557752 480.19634 
L 710.212071 473.032509 
L 710.86639 476.419361 
L 711.520709 474.314392 
L 712.175028 344.409389 
L 712.829348 477.843435 
L 713.483667 457.926391 
L 714.137986 406.046937 
L 714.792305 426.054173 
L 715.446624 427.398575 
L 716.100944 469.979078 
L 716.755263 435.088063 
L 717.409582 430.78337 
L 718.063901 460.50557 
L 718.71822 484.316707 
L 719.37254 467.63206 
L 720.026859 474.373479 
L 720.681178 454.856303 
L 721.335497 474.553648 
L 721.989816 461.352323 
L 722.644136 483.761946 
L 723.298455 422.162936 
L 723.952774 477.643338 
L 724.607093 471.730799 
L 725.261412 432.772166 
L 725.915732 478.274866 
L 727.22437 466.873821 
L 727.878689 428.603874 
L 728.533008 358.163495 
L 729.187328 412.870413 
L 729.841647 434.942514 
L 730.495966 448.740543 
L 731.150285 482.823017 
L 731.804604 471.218556 
L 732.458924 443.401514 
L 733.113243 475.732451 
L 733.767562 465.566497 
L 734.421881 478.279798 
L 735.0762 480.283004 
L 735.73052 370.931083 
L 736.384839 455.658307 
L 737.039158 376.113492 
L 737.693477 480.479831 
L 738.347796 452.692166 
L 739.002115 459.499218 
L 739.656435 403.719233 
L 740.310754 477.946648 
L 740.965073 433.097682 
L 741.619392 426.190686 
L 742.273711 467.811108 
L 742.928031 483.311093 
L 743.58235 390.72101 
L 744.236669 458.340996 
L 744.890988 466.792691 
L 745.545307 469.132948 
L 746.199627 482.180065 
L 746.853946 479.762503 
L 747.508265 446.592626 
L 748.162584 483.545797 
L 748.816903 455.187938 
L 749.471223 482.876941 
L 750.779861 420.419752 
L 751.43418 471.059979 
L 752.088499 480.908863 
L 752.742819 424.725518 
L 753.397138 479.588525 
L 754.051457 455.037192 
L 754.705776 421.287607 
L 755.360095 456.97185 
L 756.014415 381.54051 
L 756.668734 450.297534 
L 757.323053 384.560085 
L 757.977372 456.136248 
L 758.631691 442.220894 
L 759.286011 443.358846 
L 759.94033 480.547686 
L 760.594649 420.348443 
L 761.248968 444.417746 
L 761.903287 455.622509 
L 762.557607 393.592579 
L 763.211926 434.299208 
L 763.866245 421.299588 
L 764.520564 433.586156 
L 765.829202 417.895139 
L 766.483522 464.377071 
L 767.137841 423.141641 
L 768.446479 478.205472 
L 769.100798 364.278828 
L 769.755118 458.51372 
L 770.409437 422.185089 
L 771.063756 438.08725 
L 771.718075 432.965771 
L 772.372394 434.115387 
L 773.026714 467.255705 
L 773.681033 351.093598 
L 774.335352 474.211671 
L 774.989671 408.390553 
L 775.64399 412.628915 
L 776.29831 475.267035 
L 776.952629 482.362503 
L 777.606948 475.881527 
L 778.261267 461.482565 
L 778.915586 337.750258 
L 779.569906 476.6485 
L 780.224225 437.88809 
L 780.878544 350.41049 
L 781.532863 434.617483 
L 782.187182 478.477443 
L 782.841502 392.688165 
L 783.495821 421.903641 
L 784.15014 470.212454 
L 784.804459 312.395822 
L 785.458778 479.536131 
L 786.113098 474.840119 
L 786.767417 446.826237 
L 787.421736 474.599772 
L 788.076055 400.610324 
L 788.730374 461.379124 
L 789.384694 484.173534 
L 790.039013 425.289367 
L 790.693332 461.805349 
L 791.347651 472.822536 
L 792.00197 467.091802 
L 792.656289 473.670635 
L 793.310609 478.68491 
L 793.964928 485.101684 
L 794.619247 480.024842 
L 795.927885 444.373542 
L 796.582205 461.219696 
L 797.236524 444.113329 
L 797.890843 468.234755 
L 798.545162 487.209003 
L 799.199481 485.948203 
L 799.853801 449.948159 
L 800.50812 474.822151 
L 800.50812 474.822151 
" clip-path="url(#p967d820930)" style="fill: none; stroke-dasharray: 3,4.95; stroke-dashoffset: 0; stroke: #d62728; stroke-width: 3"/>
   </g>
   <g id="line2d_41">
    <path d="M 357.64086 -1 
L 362.114259 30.302968 
L 367.348813 65.471985 
L 373.237685 103.396203 
L 379.126558 139.83119 
L 385.66975 178.825118 
L 392.212942 216.508193 
L 403.990688 282.833013 
L 412.496837 328.09402 
L 421.002987 372.304984 
L 434.089371 438.88404 
L 447.175754 504.593798 
L 447.830074 506.446994 
L 449.138712 499.934911 
L 453.718946 476.276863 
L 470.731245 390.235954 
L 481.200353 336.165898 
L 490.360821 287.595845 
L 497.558332 248.357729 
L 500.829928 229.792909 
L 506.718801 195.412766 
L 513.261993 157.006605 
L 519.805185 117.147425 
L 525.694058 79.805529 
L 530.928611 45.229491 
L 535.508846 13.739219 
L 537.596651 -1 
M 657.835452 -1 
L 659.829493 65.198037 
L 661.79245 128.941521 
L 665.064046 231.789492 
L 666.372685 273.978319 
L 672.261558 447.852903 
L 673.570196 483.106048 
L 674.224515 491.999508 
L 674.878834 479.991778 
L 678.80475 366.842261 
L 683.384984 229.884575 
L 684.693622 186.513609 
L 687.965218 84.181024 
L 690.555791 -1 
M 747.928334 -1 
L 748.816903 38.918287 
L 749.471223 68.227312 
L 750.125542 89.617036 
L 754.705776 270.181974 
L 758.631691 405.497041 
L 761.248968 497.176281 
L 761.903287 486.567213 
L 767.137841 293.871567 
L 769.755118 196.748934 
L 773.026714 77.276892 
L 773.681033 52.822064 
L 774.955798 -1 
L 774.955798 -1 
" clip-path="url(#p967d820930)" style="fill: none; stroke: #000000; stroke-width: 3; stroke-linecap: square"/>
   </g>
   <g id="patch_3">
    <path d="M 114.16 489.2325 
L 114.16 28.08 
" style="fill: none; stroke: #000000; stroke-width: 2; stroke-linejoin: miter; stroke-linecap: square"/>
   </g>
   <g id="patch_4">
    <path d="M 833.191364 489.2325 
L 833.191364 28.08 
" style="fill: none; stroke: #000000; stroke-width: 2; stroke-linejoin: miter; stroke-linecap: square"/>
   </g>
   <g id="patch_5">
    <path d="M 114.16 489.2325 
L 833.191364 489.2325 
" style="fill: none; stroke: #000000; stroke-width: 2; stroke-linejoin: miter; stroke-linecap: square"/>
   </g>
   <g id="patch_6">
    <path d="M 114.16 28.08 
L 833.191364 28.08 
" style="fill: none; stroke: #000000; stroke-width: 2; stroke-linejoin: miter; stroke-linecap: square"/>
   </g>
   <g id="legend_1">
    <g id="patch_7">
     <path d="M 125.36 158.305 
L 263.8575 158.305 
Q 267.0575 158.305 267.0575 155.105 
L 267.0575 39.28 
Q 267.0575 36.08 263.8575 36.08 
L 125.36 36.08 
Q 122.16 36.08 122.16 39.28 
L 122.16 155.105 
Q 122.16 158.305 125.36 158.305 
z
" style="fill: #ffffff; opacity: 0.8; stroke: #cccccc; stroke-linejoin: miter"/>
    </g>
    <g id="line2d_42">
     <path d="M 128.56 49.0375 
L 144.56 49.0375 
L 160.56 49.0375 
" style="fill: none; stroke: #1f77b4; stroke-width: 3; stroke-linecap: square"/>
    </g>
    <g id="text_15">
     <!-- Electron 1 -->
     <g transform="translate(173.36 54.6375) scale(0.16 -0.16)">
      <defs>
       <path id="DejaVuSerif-45" d="M 353 0 
L 353 331 
L 947 331 
L 947 4331 
L 353 4331 
L 353 4666 
L 4109 4666 
L 4109 3628 
L 3725 3628 
L 3725 4281 
L 1581 4281 
L 1581 2719 
L 3109 2719 
L 3109 3303 
L 3494 3303 
L 3494 1753 
L 3109 1753 
L 3109 2338 
L 1581 2338 
L 1581 384 
L 3775 384 
L 3775 1038 
L 4159 1038 
L 4159 0 
L 353 0 
z
" transform="scale(0.015625)"/>
       <path id="DejaVuSerif-6c" d="M 1313 331 
L 1856 331 
L 1856 0 
L 184 0 
L 184 331 
L 738 331 
L 738 4531 
L 184 4531 
L 184 4863 
L 1313 4863 
L 1313 331 
z
" transform="scale(0.015625)"/>
       <path id="DejaVuSerif-65" d="M 3469 1600 
L 991 1600 
L 991 1575 
Q 991 903 1244 561 
Q 1497 219 1991 219 
Q 2369 219 2611 417 
Q 2853 616 2950 1006 
L 3413 1006 
Q 3275 459 2904 184 
Q 2534 -91 1931 -91 
Q 1203 -91 761 389 
Q 319 869 319 1663 
Q 319 2450 753 2931 
Q 1188 3413 1894 3413 
Q 2647 3413 3050 2948 
Q 3453 2484 3469 1600 
z
M 2791 1931 
Q 2772 2513 2545 2808 
Q 2319 3103 1894 3103 
Q 1497 3103 1269 2806 
Q 1041 2509 991 1931 
L 2791 1931 
z
" transform="scale(0.015625)"/>
       <path id="DejaVuSerif-63" d="M 3291 997 
Q 3169 466 2822 187 
Q 2475 -91 1925 -91 
Q 1200 -91 759 389 
Q 319 869 319 1663 
Q 319 2459 759 2936 
Q 1200 3413 1925 3413 
Q 2241 3413 2553 3339 
Q 2866 3266 3181 3116 
L 3181 2266 
L 2847 2266 
Q 2781 2703 2561 2903 
Q 2341 3103 1931 3103 
Q 1466 3103 1228 2742 
Q 991 2381 991 1663 
Q 991 944 1227 581 
Q 1463 219 1931 219 
Q 2303 219 2525 412 
Q 2747 606 2828 997 
L 3291 997 
z
" transform="scale(0.015625)"/>
       <path id="DejaVuSerif-74" d="M 691 2988 
L 184 2988 
L 184 3322 
L 691 3322 
L 691 4353 
L 1269 4353 
L 1269 3322 
L 2350 3322 
L 2350 2988 
L 1269 2988 
L 1269 878 
Q 1269 456 1350 337 
Q 1431 219 1650 219 
Q 1875 219 1978 351 
Q 2081 484 2088 781 
L 2522 781 
Q 2497 328 2275 118 
Q 2053 -91 1600 -91 
Q 1103 -91 897 129 
Q 691 350 691 878 
L 691 2988 
z
" transform="scale(0.015625)"/>
       <path id="DejaVuSerif-72" d="M 3059 3328 
L 3059 2497 
L 2728 2497 
Q 2713 2744 2591 2866 
Q 2469 2988 2234 2988 
Q 1809 2988 1582 2694 
Q 1356 2400 1356 1850 
L 1356 331 
L 2022 331 
L 2022 0 
L 263 0 
L 263 331 
L 781 331 
L 781 2994 
L 231 2994 
L 231 3322 
L 1356 3322 
L 1356 2731 
Q 1525 3078 1790 3245 
Q 2056 3413 2438 3413 
Q 2578 3413 2733 3391 
Q 2888 3369 3059 3328 
z
" transform="scale(0.015625)"/>
       <path id="DejaVuSerif-6f" d="M 1925 219 
Q 2388 219 2623 584 
Q 2859 950 2859 1663 
Q 2859 2375 2623 2739 
Q 2388 3103 1925 3103 
Q 1463 3103 1227 2739 
Q 991 2375 991 1663 
Q 991 950 1228 584 
Q 1466 219 1925 219 
z
M 1925 -91 
Q 1200 -91 759 389 
Q 319 869 319 1663 
Q 319 2456 758 2934 
Q 1197 3413 1925 3413 
Q 2653 3413 3092 2934 
Q 3531 2456 3531 1663 
Q 3531 869 3092 389 
Q 2653 -91 1925 -91 
z
" transform="scale(0.015625)"/>
       <path id="DejaVuSerif-6e" d="M 263 0 
L 263 331 
L 781 331 
L 781 2988 
L 231 2988 
L 231 3322 
L 1356 3322 
L 1356 2731 
Q 1516 3069 1770 3241 
Q 2025 3413 2363 3413 
Q 2913 3413 3172 3097 
Q 3431 2781 3431 2113 
L 3431 331 
L 3944 331 
L 3944 0 
L 2356 0 
L 2356 331 
L 2853 331 
L 2853 1931 
Q 2853 2541 2703 2767 
Q 2553 2994 2175 2994 
Q 1775 2994 1565 2701 
Q 1356 2409 1356 1850 
L 1356 331 
L 1856 331 
L 1856 0 
L 263 0 
z
" transform="scale(0.015625)"/>
      </defs>
      <use xlink:href="#DejaVuSerif-45"/>
      <use xlink:href="#DejaVuSerif-6c" x="72.998047"/>
      <use xlink:href="#DejaVuSerif-65" x="104.980469"/>
      <use xlink:href="#DejaVuSerif-63" x="164.160156"/>
      <use xlink:href="#DejaVuSerif-74" x="220.166016"/>
      <use xlink:href="#DejaVuSerif-72" x="260.351562"/>
      <use xlink:href="#DejaVuSerif-6f" x="308.154297"/>
      <use xlink:href="#DejaVuSerif-6e" x="368.359375"/>
      <use xlink:href="#DejaVuSerif-20" x="432.763672"/>
      <use xlink:href="#DejaVuSerif-31" x="464.550781"/>
     </g>
    </g>
    <g id="line2d_43">
     <path d="M 128.56 72.5225 
L 144.56 72.5225 
L 160.56 72.5225 
" style="fill: none; stroke-dasharray: 11.1,4.8; stroke-dashoffset: 0; stroke: #ff7f0e; stroke-width: 3"/>
    </g>
    <g id="text_16">
     <!-- Electron 2 -->
     <g transform="translate(173.36 78.1225) scale(0.16 -0.16)">
      <use xlink:href="#DejaVuSerif-45"/>
      <use xlink:href="#DejaVuSerif-6c" x="72.998047"/>
      <use xlink:href="#DejaVuSerif-65" x="104.980469"/>
      <use xlink:href="#DejaVuSerif-63" x="164.160156"/>
      <use xlink:href="#DejaVuSerif-74" x="220.166016"/>
      <use xlink:href="#DejaVuSerif-72" x="260.351562"/>
      <use xlink:href="#DejaVuSerif-6f" x="308.154297"/>
      <use xlink:href="#DejaVuSerif-6e" x="368.359375"/>
      <use xlink:href="#DejaVuSerif-20" x="432.763672"/>
      <use xlink:href="#DejaVuSerif-32" x="464.550781"/>
     </g>
    </g>
    <g id="line2d_44">
     <path d="M 128.56 96.0075 
L 144.56 96.0075 
L 160.56 96.0075 
" style="fill: none; stroke-dasharray: 19.2,4.8,3,4.8; stroke-dashoffset: 0; stroke: #2ca02c; stroke-width: 3"/>
    </g>
    <g id="text_17">
     <!-- Electron 3 -->
     <g transform="translate(173.36 101.6075) scale(0.16 -0.16)">
      <defs>
       <path id="DejaVuSerif-33" d="M 622 4469 
Q 988 4606 1323 4678 
Q 1659 4750 1953 4750 
Q 2638 4750 3022 4454 
Q 3406 4159 3406 3634 
Q 3406 3213 3140 2930 
Q 2875 2647 2388 2547 
Q 2963 2466 3280 2130 
Q 3597 1794 3597 1259 
Q 3597 606 3158 257 
Q 2719 -91 1894 -91 
Q 1528 -91 1179 -12 
Q 831 66 488 225 
L 488 1131 
L 838 1131 
Q 869 681 1141 450 
Q 1413 219 1906 219 
Q 2384 219 2661 495 
Q 2938 772 2938 1253 
Q 2938 1803 2653 2086 
Q 2369 2369 1819 2369 
L 1522 2369 
L 1522 2688 
L 1678 2688 
Q 2225 2688 2498 2914 
Q 2772 3141 2772 3597 
Q 2772 4006 2547 4223 
Q 2322 4441 1900 4441 
Q 1478 4441 1245 4241 
Q 1013 4041 972 3647 
L 622 3647 
L 622 4469 
z
" transform="scale(0.015625)"/>
      </defs>
      <use xlink:href="#DejaVuSerif-45"/>
      <use xlink:href="#DejaVuSerif-6c" x="72.998047"/>
      <use xlink:href="#DejaVuSerif-65" x="104.980469"/>
      <use xlink:href="#DejaVuSerif-63" x="164.160156"/>
      <use xlink:href="#DejaVuSerif-74" x="220.166016"/>
      <use xlink:href="#DejaVuSerif-72" x="260.351562"/>
      <use xlink:href="#DejaVuSerif-6f" x="308.154297"/>
      <use xlink:href="#DejaVuSerif-6e" x="368.359375"/>
      <use xlink:href="#DejaVuSerif-20" x="432.763672"/>
      <use xlink:href="#DejaVuSerif-33" x="464.550781"/>
     </g>
    </g>
    <g id="line2d_45">
     <path d="M 128.56 119.4925 
L 144.56 119.4925 
L 160.56 119.4925 
" style="fill: none; stroke-dasharray: 3,4.95; stroke-dashoffset: 0; stroke: #d62728; stroke-width: 3"/>
    </g>
    <g id="text_18">
     <!-- Electron 4 -->
     <g transform="translate(173.36 125.0925) scale(0.16 -0.16)">
      <use xlink:href="#DejaVuSerif-45"/>
      <use xlink:href="#DejaVuSerif-6c" x="72.998047"/>
      <use xlink:href="#DejaVuSerif-65" x="104.980469"/>
      <use xlink:href="#DejaVuSerif-63" x="164.160156"/>
      <use xlink:href="#DejaVuSerif-74" x="220.166016"/>
      <use xlink:href="#DejaVuSerif-72" x="260.351562"/>
      <use xlink:href="#DejaVuSerif-6f" x="308.154297"/>
      <use xlink:href="#DejaVuSerif-6e" x="368.359375"/>
      <use xlink:href="#DejaVuSerif-20" x="432.763672"/>
      <use xlink:href="#DejaVuSerif-34" x="464.550781"/>
     </g>
    </g>
    <g id="line2d_46">
     <path d="M 128.56 142.9775 
L 144.56 142.9775 
L 160.56 142.9775 
" style="fill: none; stroke: #000000; stroke-width: 3; stroke-linecap: square"/>
    </g>
    <g id="text_19">
     <!-- Antiproton -->
     <g transform="translate(173.36 148.5775) scale(0.16 -0.16)">
      <defs>
       <path id="DejaVuSerif-41" d="M 1281 1691 
L 2994 1691 
L 2138 3909 
L 1281 1691 
z
M -38 0 
L -38 331 
L 372 331 
L 2034 4666 
L 2559 4666 
L 4225 331 
L 4684 331 
L 4684 0 
L 2988 0 
L 2988 331 
L 3506 331 
L 3116 1356 
L 1153 1356 
L 763 331 
L 1275 331 
L 1275 0 
L -38 0 
z
" transform="scale(0.015625)"/>
       <path id="DejaVuSerif-69" d="M 622 4353 
Q 622 4497 726 4603 
Q 831 4709 978 4709 
Q 1122 4709 1226 4603 
Q 1331 4497 1331 4353 
Q 1331 4206 1228 4103 
Q 1125 4000 978 4000 
Q 831 4000 726 4103 
Q 622 4206 622 4353 
z
M 1356 331 
L 1900 331 
L 1900 0 
L 231 0 
L 231 331 
L 781 331 
L 781 2988 
L 231 2988 
L 231 3322 
L 1356 3322 
L 1356 331 
z
" transform="scale(0.015625)"/>
       <path id="DejaVuSerif-70" d="M 1313 1825 
L 1313 1497 
Q 1313 897 1542 583 
Q 1772 269 2209 269 
Q 2650 269 2876 622 
Q 3103 975 3103 1663 
Q 3103 2353 2876 2703 
Q 2650 3053 2209 3053 
Q 1772 3053 1542 2737 
Q 1313 2422 1313 1825 
z
M 738 2988 
L 184 2988 
L 184 3322 
L 1313 3322 
L 1313 2803 
Q 1481 3116 1742 3264 
Q 2003 3413 2388 3413 
Q 3000 3413 3387 2928 
Q 3775 2444 3775 1663 
Q 3775 881 3387 395 
Q 3000 -91 2388 -91 
Q 2003 -91 1742 57 
Q 1481 206 1313 519 
L 1313 -997 
L 1856 -997 
L 1856 -1331 
L 184 -1331 
L 184 -997 
L 738 -997 
L 738 2988 
z
" transform="scale(0.015625)"/>
      </defs>
      <use xlink:href="#DejaVuSerif-41"/>
      <use xlink:href="#DejaVuSerif-6e" x="72.216797"/>
      <use xlink:href="#DejaVuSerif-74" x="136.621094"/>
      <use xlink:href="#DejaVuSerif-69" x="176.806641"/>
      <use xlink:href="#DejaVuSerif-70" x="208.789062"/>
      <use xlink:href="#DejaVuSerif-72" x="272.802734"/>
      <use xlink:href="#DejaVuSerif-6f" x="320.605469"/>
      <use xlink:href="#DejaVuSerif-74" x="380.810547"/>
      <use xlink:href="#DejaVuSerif-6f" x="420.996094"/>
      <use xlink:href="#DejaVuSerif-6e" x="481.201172"/>
     </g>
    </g>
   </g>
  </g>
 </g>
 <defs>
  <clipPath id="p967d820930">
   <rect x="114.16" y="28.08" width="719.031364" height="461.1525"/>
  </clipPath>
 </defs>
</svg>
