<?xml version="1.0" encoding="utf-8" standalone="no"?>
<!DOCTYPE svg PUBLIC "-//W3C//DTD SVG 1.1//EN"
  "http://www.w3.org/Graphics/SVG/1.1/DTD/svg11.dtd">
<svg xmlns:xlink="http://www.w3.org/1999/xlink" width="864pt" height="576pt" viewBox="0 0 864 576" xmlns="http://www.w3.org/2000/svg" version="1.1">
 <metadata>
  <rdf:RDF xmlns:dc="http://purl.org/dc/elements/1.1/" xmlns:cc="http://creativecommons.org/ns#" xmlns:rdf="http://www.w3.org/1999/02/22-rdf-syntax-ns#">
   <cc:Work>
    <dc:type rdf:resource="http://purl.org/dc/dcmitype/StillImage"/>
    <dc:date>2025-06-12T16:16:57.704119</dc:date>
    <dc:format>image/svg+xml</dc:format>
    <dc:creator>
     <cc:Agent>
      <dc:title>Matplotlib v3.7.2, https://matplotlib.org/</dc:title>
     </cc:Agent>
    </dc:creator>
   </cc:Work>
  </rdf:RDF>
 </metadata>
 <defs>
  <style type="text/css">*{stroke-linejoin: round; stroke-linecap: butt}</style>
 </defs>
 <g id="figure_1">
  <g id="patch_1">
   <path d="M 0 576 
L 864 576 
L 864 0 
L 0 0 
z
" style="fill: #ffffff"/>
  </g>
  <g id="axes_1">
   <g id="patch_2">
    <path d="M 114.07 489.2325 
L 833.191364 489.2325 
L 833.191364 28.08 
L 114.07 28.08 
z
" style="fill: #ffffff"/>
   </g>
   <g id="matplotlib.axis_1">
    <g id="xtick_1">
     <g id="line2d_1">
      <path d="M 146.757335 489.2325 
L 146.757335 28.08 
" clip-path="url(#p4e2a7984de)" style="fill: none; stroke-dasharray: 3.7,1.6; stroke-dashoffset: 0; stroke: #b0b0b0; stroke-opacity: 0.5"/>
     </g>
     <g id="line2d_2">
      <defs>
       <path id="mf0887f1f8a" d="M 0 0 
L 0 -10 
" style="stroke: #000000; stroke-width: 2"/>
      </defs>
      <g>
       <use xlink:href="#mf0887f1f8a" x="146.757335" y="489.2325" style="stroke: #000000; stroke-width: 2"/>
      </g>
     </g>
     <g id="line2d_3">
      <defs>
       <path id="m20be2b6d72" d="M 0 0 
L 0 10 
" style="stroke: #000000; stroke-width: 2"/>
      </defs>
      <g>
       <use xlink:href="#m20be2b6d72" x="146.757335" y="28.08" style="stroke: #000000; stroke-width: 2"/>
      </g>
     </g>
     <g id="text_1">
      <!-- 0 -->
      <g transform="translate(138.486085 512.488438) scale(0.26 -0.26)">
       <defs>
        <path id="DejaVuSerif-30" d="M 2034 219 
Q 2513 219 2750 744 
Q 2988 1269 2988 2328 
Q 2988 3391 2750 3916 
Q 2513 4441 2034 4441 
Q 1556 4441 1318 3916 
Q 1081 3391 1081 2328 
Q 1081 1269 1318 744 
Q 1556 219 2034 219 
z
M 2034 -91 
Q 1275 -91 848 546 
Q 422 1184 422 2328 
Q 422 3475 848 4112 
Q 1275 4750 2034 4750 
Q 2797 4750 3222 4112 
Q 3647 3475 3647 2328 
Q 3647 1184 3222 546 
Q 2797 -91 2034 -91 
z
" transform="scale(0.015625)"/>
       </defs>
       <use xlink:href="#DejaVuSerif-30"/>
      </g>
     </g>
    </g>
    <g id="xtick_2">
     <g id="line2d_4">
      <path d="M 277.506674 489.2325 
L 277.506674 28.08 
" clip-path="url(#p4e2a7984de)" style="fill: none; stroke-dasharray: 3.7,1.6; stroke-dashoffset: 0; stroke: #b0b0b0; stroke-opacity: 0.5"/>
     </g>
     <g id="line2d_5">
      <g>
       <use xlink:href="#mf0887f1f8a" x="277.506674" y="489.2325" style="stroke: #000000; stroke-width: 2"/>
      </g>
     </g>
     <g id="line2d_6">
      <g>
       <use xlink:href="#m20be2b6d72" x="277.506674" y="28.08" style="stroke: #000000; stroke-width: 2"/>
      </g>
     </g>
     <g id="text_2">
      <!-- 500 -->
      <g transform="translate(252.692924 512.488438) scale(0.26 -0.26)">
       <defs>
        <path id="DejaVuSerif-35" d="M 3219 4666 
L 3219 4153 
L 1081 4153 
L 1081 2816 
Q 1244 2928 1461 2984 
Q 1678 3041 1947 3041 
Q 2703 3041 3140 2622 
Q 3578 2203 3578 1478 
Q 3578 738 3136 323 
Q 2694 -91 1894 -91 
Q 1572 -91 1234 -12 
Q 897 66 544 225 
L 544 1131 
L 897 1131 
Q 925 688 1179 453 
Q 1434 219 1894 219 
Q 2388 219 2653 544 
Q 2919 869 2919 1478 
Q 2919 2084 2655 2407 
Q 2391 2731 1894 2731 
Q 1613 2731 1398 2631 
Q 1184 2531 1019 2322 
L 750 2322 
L 750 4666 
L 3219 4666 
z
" transform="scale(0.015625)"/>
       </defs>
       <use xlink:href="#DejaVuSerif-35"/>
       <use xlink:href="#DejaVuSerif-30" x="63.623047"/>
       <use xlink:href="#DejaVuSerif-30" x="127.246094"/>
      </g>
     </g>
    </g>
    <g id="xtick_3">
     <g id="line2d_7">
      <path d="M 408.256012 489.2325 
L 408.256012 28.08 
" clip-path="url(#p4e2a7984de)" style="fill: none; stroke-dasharray: 3.7,1.6; stroke-dashoffset: 0; stroke: #b0b0b0; stroke-opacity: 0.5"/>
     </g>
     <g id="line2d_8">
      <g>
       <use xlink:href="#mf0887f1f8a" x="408.256012" y="489.2325" style="stroke: #000000; stroke-width: 2"/>
      </g>
     </g>
     <g id="line2d_9">
      <g>
       <use xlink:href="#m20be2b6d72" x="408.256012" y="28.08" style="stroke: #000000; stroke-width: 2"/>
      </g>
     </g>
     <g id="text_3">
      <!-- 1000 -->
      <g transform="translate(375.171012 512.488438) scale(0.26 -0.26)">
       <defs>
        <path id="DejaVuSerif-31" d="M 909 0 
L 909 331 
L 1722 331 
L 1722 4213 
L 781 3603 
L 781 4013 
L 1919 4750 
L 2350 4750 
L 2350 331 
L 3163 331 
L 3163 0 
L 909 0 
z
" transform="scale(0.015625)"/>
       </defs>
       <use xlink:href="#DejaVuSerif-31"/>
       <use xlink:href="#DejaVuSerif-30" x="63.623047"/>
       <use xlink:href="#DejaVuSerif-30" x="127.246094"/>
       <use xlink:href="#DejaVuSerif-30" x="190.869141"/>
      </g>
     </g>
    </g>
    <g id="xtick_4">
     <g id="line2d_10">
      <path d="M 539.005351 489.2325 
L 539.005351 28.08 
" clip-path="url(#p4e2a7984de)" style="fill: none; stroke-dasharray: 3.7,1.6; stroke-dashoffset: 0; stroke: #b0b0b0; stroke-opacity: 0.5"/>
     </g>
     <g id="line2d_11">
      <g>
       <use xlink:href="#mf0887f1f8a" x="539.005351" y="489.2325" style="stroke: #000000; stroke-width: 2"/>
      </g>
     </g>
     <g id="line2d_12">
      <g>
       <use xlink:href="#m20be2b6d72" x="539.005351" y="28.08" style="stroke: #000000; stroke-width: 2"/>
      </g>
     </g>
     <g id="text_4">
      <!-- 1500 -->
      <g transform="translate(505.920351 512.488438) scale(0.26 -0.26)">
       <use xlink:href="#DejaVuSerif-31"/>
       <use xlink:href="#DejaVuSerif-35" x="63.623047"/>
       <use xlink:href="#DejaVuSerif-30" x="127.246094"/>
       <use xlink:href="#DejaVuSerif-30" x="190.869141"/>
      </g>
     </g>
    </g>
    <g id="xtick_5">
     <g id="line2d_13">
      <path d="M 669.75469 489.2325 
L 669.75469 28.08 
" clip-path="url(#p4e2a7984de)" style="fill: none; stroke-dasharray: 3.7,1.6; stroke-dashoffset: 0; stroke: #b0b0b0; stroke-opacity: 0.5"/>
     </g>
     <g id="line2d_14">
      <g>
       <use xlink:href="#mf0887f1f8a" x="669.75469" y="489.2325" style="stroke: #000000; stroke-width: 2"/>
      </g>
     </g>
     <g id="line2d_15">
      <g>
       <use xlink:href="#m20be2b6d72" x="669.75469" y="28.08" style="stroke: #000000; stroke-width: 2"/>
      </g>
     </g>
     <g id="text_5">
      <!-- 2000 -->
      <g transform="translate(636.66969 512.488438) scale(0.26 -0.26)">
       <defs>
        <path id="DejaVuSerif-32" d="M 819 3553 
L 469 3553 
L 469 4384 
Q 803 4563 1142 4656 
Q 1481 4750 1806 4750 
Q 2534 4750 2956 4397 
Q 3378 4044 3378 3438 
Q 3378 2753 2422 1800 
Q 2347 1728 2309 1691 
L 1131 513 
L 3078 513 
L 3078 1088 
L 3444 1088 
L 3444 0 
L 434 0 
L 434 341 
L 1850 1753 
Q 2319 2222 2519 2614 
Q 2719 3006 2719 3438 
Q 2719 3909 2473 4175 
Q 2228 4441 1797 4441 
Q 1350 4441 1106 4219 
Q 863 3997 819 3553 
z
" transform="scale(0.015625)"/>
       </defs>
       <use xlink:href="#DejaVuSerif-32"/>
       <use xlink:href="#DejaVuSerif-30" x="63.623047"/>
       <use xlink:href="#DejaVuSerif-30" x="127.246094"/>
       <use xlink:href="#DejaVuSerif-30" x="190.869141"/>
      </g>
     </g>
    </g>
    <g id="xtick_6">
     <g id="line2d_16">
      <path d="M 800.504029 489.2325 
L 800.504029 28.08 
" clip-path="url(#p4e2a7984de)" style="fill: none; stroke-dasharray: 3.7,1.6; stroke-dashoffset: 0; stroke: #b0b0b0; stroke-opacity: 0.5"/>
     </g>
     <g id="line2d_17">
      <g>
       <use xlink:href="#mf0887f1f8a" x="800.504029" y="489.2325" style="stroke: #000000; stroke-width: 2"/>
      </g>
     </g>
     <g id="line2d_18">
      <g>
       <use xlink:href="#m20be2b6d72" x="800.504029" y="28.08" style="stroke: #000000; stroke-width: 2"/>
      </g>
     </g>
     <g id="text_6">
      <!-- 2500 -->
      <g transform="translate(767.419029 512.488438) scale(0.26 -0.26)">
       <use xlink:href="#DejaVuSerif-32"/>
       <use xlink:href="#DejaVuSerif-35" x="63.623047"/>
       <use xlink:href="#DejaVuSerif-30" x="127.246094"/>
       <use xlink:href="#DejaVuSerif-30" x="190.869141"/>
      </g>
     </g>
    </g>
    <g id="text_7">
     <!-- $t$ (a.u.) -->
     <g transform="translate(430.210682 541.651562) scale(0.26 -0.26)">
      <defs>
       <path id="Cmmi10-74" d="M 397 519 
Q 397 613 416 697 
L 878 2534 
L 206 2534 
Q 141 2534 141 2619 
Q 166 2759 225 2759 
L 934 2759 
L 1191 3803 
Q 1216 3888 1291 3947 
Q 1366 4006 1459 4006 
Q 1541 4006 1595 3957 
Q 1650 3909 1650 3828 
Q 1650 3809 1648 3798 
Q 1647 3788 1644 3775 
L 1388 2759 
L 2047 2759 
Q 2113 2759 2113 2675 
Q 2109 2659 2100 2621 
Q 2091 2584 2075 2559 
Q 2059 2534 2028 2534 
L 1331 2534 
L 872 684 
Q 825 503 825 372 
Q 825 97 1013 97 
Q 1294 97 1511 361 
Q 1728 625 1844 941 
Q 1869 978 1894 978 
L 1972 978 
Q 1997 978 2012 961 
Q 2028 944 2028 922 
Q 2028 909 2022 903 
Q 1881 516 1612 222 
Q 1344 -72 997 -72 
Q 744 -72 570 93 
Q 397 259 397 519 
z
" transform="scale(0.015625)"/>
       <path id="DejaVuSerif-20" transform="scale(0.015625)"/>
       <path id="DejaVuSerif-28" d="M 2041 -997 
Q 1281 -656 893 83 
Q 506 822 506 1931 
Q 506 3044 893 3783 
Q 1281 4522 2041 4863 
L 2041 4556 
Q 1559 4225 1350 3623 
Q 1141 3022 1141 1931 
Q 1141 844 1350 242 
Q 1559 -359 2041 -691 
L 2041 -997 
z
" transform="scale(0.015625)"/>
       <path id="DejaVuSerif-61" d="M 2547 1044 
L 2547 1747 
L 1806 1747 
Q 1378 1747 1168 1562 
Q 959 1378 959 997 
Q 959 650 1171 447 
Q 1384 244 1747 244 
Q 2106 244 2326 466 
Q 2547 688 2547 1044 
z
M 3122 2075 
L 3122 331 
L 3634 331 
L 3634 0 
L 2547 0 
L 2547 359 
Q 2356 128 2106 18 
Q 1856 -91 1522 -91 
Q 969 -91 644 203 
Q 319 497 319 997 
Q 319 1513 691 1797 
Q 1063 2081 1741 2081 
L 2547 2081 
L 2547 2309 
Q 2547 2688 2317 2895 
Q 2088 3103 1672 3103 
Q 1328 3103 1125 2947 
Q 922 2791 872 2484 
L 575 2484 
L 575 3156 
Q 875 3284 1158 3348 
Q 1441 3413 1709 3413 
Q 2400 3413 2761 3070 
Q 3122 2728 3122 2075 
z
" transform="scale(0.015625)"/>
       <path id="DejaVuSerif-2e" d="M 603 325 
Q 603 500 722 622 
Q 841 744 1019 744 
Q 1191 744 1312 622 
Q 1434 500 1434 325 
Q 1434 153 1312 31 
Q 1191 -91 1019 -91 
Q 841 -91 722 29 
Q 603 150 603 325 
z
" transform="scale(0.015625)"/>
       <path id="DejaVuSerif-75" d="M 2266 3322 
L 3341 3322 
L 3341 331 
L 3884 331 
L 3884 0 
L 2766 0 
L 2766 588 
Q 2606 256 2353 82 
Q 2100 -91 1766 -91 
Q 1213 -91 952 223 
Q 691 538 691 1209 
L 691 2988 
L 172 2988 
L 172 3322 
L 1269 3322 
L 1269 1388 
Q 1269 781 1417 556 
Q 1566 331 1947 331 
Q 2347 331 2556 625 
Q 2766 919 2766 1478 
L 2766 2988 
L 2266 2988 
L 2266 3322 
z
" transform="scale(0.015625)"/>
       <path id="DejaVuSerif-29" d="M 453 -997 
L 453 -691 
Q 934 -359 1145 242 
Q 1356 844 1356 1931 
Q 1356 3022 1145 3623 
Q 934 4225 453 4556 
L 453 4863 
Q 1216 4522 1603 3783 
Q 1991 3044 1991 1931 
Q 1991 822 1603 83 
Q 1216 -656 453 -997 
z
" transform="scale(0.015625)"/>
      </defs>
      <use xlink:href="#Cmmi10-74" transform="translate(0 0.015625)"/>
      <use xlink:href="#DejaVuSerif-20" transform="translate(36.083984 0.015625)"/>
      <use xlink:href="#DejaVuSerif-28" transform="translate(67.871094 0.015625)"/>
      <use xlink:href="#DejaVuSerif-61" transform="translate(106.884766 0.015625)"/>
      <use xlink:href="#DejaVuSerif-2e" transform="translate(166.503906 0.015625)"/>
      <use xlink:href="#DejaVuSerif-75" transform="translate(198.291016 0.015625)"/>
      <use xlink:href="#DejaVuSerif-2e" transform="translate(262.695312 0.015625)"/>
      <use xlink:href="#DejaVuSerif-29" transform="translate(294.482422 0.015625)"/>
     </g>
    </g>
   </g>
   <g id="matplotlib.axis_2">
    <g id="ytick_1">
     <g id="line2d_19">
      <path d="M 114.07 414.050951 
L 833.191364 414.050951 
" clip-path="url(#p4e2a7984de)" style="fill: none; stroke-dasharray: 3.7,1.6; stroke-dashoffset: 0; stroke: #b0b0b0; stroke-opacity: 0.5"/>
     </g>
     <g id="line2d_20">
      <defs>
       <path id="m8f604faafd" d="M 0 0 
L 10 0 
" style="stroke: #000000; stroke-width: 2"/>
      </defs>
      <g>
       <use xlink:href="#m8f604faafd" x="114.07" y="414.050951" style="stroke: #000000; stroke-width: 2"/>
      </g>
     </g>
     <g id="line2d_21">
      <defs>
       <path id="m815622317f" d="M 0 0 
L -10 0 
" style="stroke: #000000; stroke-width: 2"/>
      </defs>
      <g>
       <use xlink:href="#m815622317f" x="833.191364" y="414.050951" style="stroke: #000000; stroke-width: 2"/>
      </g>
     </g>
     <g id="text_8">
      <!-- 2 -->
      <g transform="translate(94.0275 423.92892) scale(0.26 -0.26)">
       <use xlink:href="#DejaVuSerif-32"/>
      </g>
     </g>
    </g>
    <g id="ytick_2">
     <g id="line2d_22">
      <path d="M 114.07 333.327969 
L 833.191364 333.327969 
" clip-path="url(#p4e2a7984de)" style="fill: none; stroke-dasharray: 3.7,1.6; stroke-dashoffset: 0; stroke: #b0b0b0; stroke-opacity: 0.5"/>
     </g>
     <g id="line2d_23">
      <g>
       <use xlink:href="#m8f604faafd" x="114.07" y="333.327969" style="stroke: #000000; stroke-width: 2"/>
      </g>
     </g>
     <g id="line2d_24">
      <g>
       <use xlink:href="#m815622317f" x="833.191364" y="333.327969" style="stroke: #000000; stroke-width: 2"/>
      </g>
     </g>
     <g id="text_9">
      <!-- 4 -->
      <g transform="translate(94.0275 343.205938) scale(0.26 -0.26)">
       <defs>
        <path id="DejaVuSerif-34" d="M 2234 1581 
L 2234 4063 
L 641 1581 
L 2234 1581 
z
M 3609 0 
L 1484 0 
L 1484 331 
L 2234 331 
L 2234 1247 
L 197 1247 
L 197 1588 
L 2241 4750 
L 2859 4750 
L 2859 1581 
L 3750 1581 
L 3750 1247 
L 2859 1247 
L 2859 331 
L 3609 331 
L 3609 0 
z
" transform="scale(0.015625)"/>
       </defs>
       <use xlink:href="#DejaVuSerif-34"/>
      </g>
     </g>
    </g>
    <g id="ytick_3">
     <g id="line2d_25">
      <path d="M 114.07 252.604987 
L 833.191364 252.604987 
" clip-path="url(#p4e2a7984de)" style="fill: none; stroke-dasharray: 3.7,1.6; stroke-dashoffset: 0; stroke: #b0b0b0; stroke-opacity: 0.5"/>
     </g>
     <g id="line2d_26">
      <g>
       <use xlink:href="#m8f604faafd" x="114.07" y="252.604987" style="stroke: #000000; stroke-width: 2"/>
      </g>
     </g>
     <g id="line2d_27">
      <g>
       <use xlink:href="#m815622317f" x="833.191364" y="252.604987" style="stroke: #000000; stroke-width: 2"/>
      </g>
     </g>
     <g id="text_10">
      <!-- 6 -->
      <g transform="translate(94.0275 262.482955) scale(0.26 -0.26)">
       <defs>
        <path id="DejaVuSerif-36" d="M 2094 219 
Q 2534 219 2771 542 
Q 3009 866 3009 1472 
Q 3009 2078 2771 2401 
Q 2534 2725 2094 2725 
Q 1647 2725 1412 2412 
Q 1178 2100 1178 1509 
Q 1178 888 1415 553 
Q 1653 219 2094 219 
z
M 1075 2569 
Q 1288 2803 1556 2918 
Q 1825 3034 2163 3034 
Q 2859 3034 3264 2615 
Q 3669 2197 3669 1472 
Q 3669 763 3233 336 
Q 2797 -91 2069 -91 
Q 1278 -91 853 498 
Q 428 1088 428 2181 
Q 428 3406 931 4078 
Q 1434 4750 2350 4750 
Q 2597 4750 2869 4703 
Q 3141 4656 3425 4563 
L 3425 3794 
L 3072 3794 
Q 3034 4109 2831 4275 
Q 2628 4441 2284 4441 
Q 1678 4441 1381 3981 
Q 1084 3522 1075 2569 
z
" transform="scale(0.015625)"/>
       </defs>
       <use xlink:href="#DejaVuSerif-36"/>
      </g>
     </g>
    </g>
    <g id="ytick_4">
     <g id="line2d_28">
      <path d="M 114.07 171.882004 
L 833.191364 171.882004 
" clip-path="url(#p4e2a7984de)" style="fill: none; stroke-dasharray: 3.7,1.6; stroke-dashoffset: 0; stroke: #b0b0b0; stroke-opacity: 0.5"/>
     </g>
     <g id="line2d_29">
      <g>
       <use xlink:href="#m8f604faafd" x="114.07" y="171.882004" style="stroke: #000000; stroke-width: 2"/>
      </g>
     </g>
     <g id="line2d_30">
      <g>
       <use xlink:href="#m815622317f" x="833.191364" y="171.882004" style="stroke: #000000; stroke-width: 2"/>
      </g>
     </g>
     <g id="text_11">
      <!-- 8 -->
      <g transform="translate(94.0275 181.759973) scale(0.26 -0.26)">
       <defs>
        <path id="DejaVuSerif-38" d="M 2981 1275 
Q 2981 1775 2732 2051 
Q 2484 2328 2034 2328 
Q 1584 2328 1336 2051 
Q 1088 1775 1088 1275 
Q 1088 772 1336 495 
Q 1584 219 2034 219 
Q 2484 219 2732 495 
Q 2981 772 2981 1275 
z
M 2853 3541 
Q 2853 3966 2637 4203 
Q 2422 4441 2034 4441 
Q 1650 4441 1433 4203 
Q 1216 3966 1216 3541 
Q 1216 3113 1433 2875 
Q 1650 2638 2034 2638 
Q 2422 2638 2637 2875 
Q 2853 3113 2853 3541 
z
M 2516 2484 
Q 3047 2413 3344 2092 
Q 3641 1772 3641 1275 
Q 3641 619 3225 264 
Q 2809 -91 2034 -91 
Q 1263 -91 845 264 
Q 428 619 428 1275 
Q 428 1772 725 2092 
Q 1022 2413 1556 2484 
Q 1084 2569 832 2842 
Q 581 3116 581 3541 
Q 581 4103 968 4426 
Q 1356 4750 2034 4750 
Q 2713 4750 3100 4426 
Q 3488 4103 3488 3541 
Q 3488 3116 3236 2842 
Q 2984 2569 2516 2484 
z
" transform="scale(0.015625)"/>
       </defs>
       <use xlink:href="#DejaVuSerif-38"/>
      </g>
     </g>
    </g>
    <g id="ytick_5">
     <g id="line2d_31">
      <path d="M 114.07 91.159022 
L 833.191364 91.159022 
" clip-path="url(#p4e2a7984de)" style="fill: none; stroke-dasharray: 3.7,1.6; stroke-dashoffset: 0; stroke: #b0b0b0; stroke-opacity: 0.5"/>
     </g>
     <g id="line2d_32">
      <g>
       <use xlink:href="#m8f604faafd" x="114.07" y="91.159022" style="stroke: #000000; stroke-width: 2"/>
      </g>
     </g>
     <g id="line2d_33">
      <g>
       <use xlink:href="#m815622317f" x="833.191364" y="91.159022" style="stroke: #000000; stroke-width: 2"/>
      </g>
     </g>
     <g id="text_12">
      <!-- 10 -->
      <g transform="translate(77.485 101.036991) scale(0.26 -0.26)">
       <use xlink:href="#DejaVuSerif-31"/>
       <use xlink:href="#DejaVuSerif-30" x="63.623047"/>
      </g>
     </g>
    </g>
    <g id="text_13">
     <!-- $|\vec{p}_i|$ (a.u.) -->
     <g transform="translate(66.985 315.72625) rotate(-90) scale(0.26 -0.26)">
      <defs>
       <path id="Cmsy10-6a" d="M 763 -1484 
L 763 4684 
Q 763 4734 800 4767 
Q 838 4800 891 4800 
Q 938 4800 978 4767 
Q 1019 4734 1019 4684 
L 1019 -1484 
Q 1019 -1534 978 -1567 
Q 938 -1600 891 -1600 
Q 838 -1600 800 -1567 
Q 763 -1534 763 -1484 
z
" transform="scale(0.015625)"/>
       <path id="Cmmi10-7e" d="M 1281 3809 
Q 1231 3809 1198 3846 
Q 1166 3884 1166 3938 
Q 1166 3984 1198 4023 
Q 1231 4063 1281 4063 
L 3547 4063 
Q 3378 4291 3378 4441 
Q 3378 4497 3417 4533 
Q 3456 4569 3506 4569 
Q 3613 4569 3634 4469 
Q 3697 4194 3938 4044 
Q 4000 4003 4000 3938 
Q 4000 3859 3938 3828 
Q 3575 3647 3353 3347 
Q 3328 3303 3256 3303 
Q 3209 3303 3168 3340 
Q 3128 3378 3128 3431 
Q 3128 3547 3438 3809 
L 1281 3809 
z
" transform="scale(0.015625)"/>
       <path id="Cmmi10-70" d="M -159 -1241 
Q -219 -1241 -219 -1159 
Q -197 -1019 -134 -1019 
Q 66 -1019 145 -983 
Q 225 -947 269 -800 
L 991 2081 
Q 1038 2200 1038 2388 
Q 1038 2663 850 2663 
Q 650 2663 553 2423 
Q 456 2184 366 1819 
Q 366 1778 313 1778 
L 238 1778 
Q 222 1778 203 1801 
Q 184 1825 184 1844 
Q 253 2122 317 2315 
Q 381 2509 517 2668 
Q 653 2828 856 2828 
Q 1075 2828 1240 2704 
Q 1406 2581 1453 2369 
Q 1628 2572 1840 2700 
Q 2053 2828 2278 2828 
Q 2547 2828 2745 2684 
Q 2944 2541 3044 2308 
Q 3144 2075 3144 1806 
Q 3144 1394 2933 953 
Q 2722 513 2361 220 
Q 2000 -72 1588 -72 
Q 1400 -72 1248 34 
Q 1097 141 1013 313 
L 722 -825 
Q 706 -919 703 -934 
Q 703 -1019 1125 -1019 
Q 1191 -1019 1191 -1100 
Q 1169 -1184 1155 -1212 
Q 1141 -1241 1081 -1241 
L -159 -1241 
z
M 1594 97 
Q 1816 97 2006 280 
Q 2197 463 2316 691 
Q 2403 863 2479 1111 
Q 2556 1359 2612 1640 
Q 2669 1922 2669 2088 
Q 2669 2234 2630 2362 
Q 2591 2491 2502 2577 
Q 2413 2663 2266 2663 
Q 2031 2663 1823 2495 
Q 1616 2328 1447 2081 
L 1447 2059 
L 1094 647 
Q 1138 419 1263 258 
Q 1388 97 1594 97 
z
" transform="scale(0.015625)"/>
       <path id="Cmmi10-69" d="M 500 459 
Q 500 578 550 709 
L 1069 2088 
Q 1153 2322 1153 2472 
Q 1153 2663 1013 2663 
Q 759 2663 595 2402 
Q 431 2141 353 1819 
Q 341 1778 300 1778 
L 225 1778 
Q 172 1778 172 1838 
L 172 1856 
Q 275 2238 487 2533 
Q 700 2828 1025 2828 
Q 1253 2828 1411 2678 
Q 1569 2528 1569 2297 
Q 1569 2178 1516 2047 
L 997 672 
Q 909 459 909 288 
Q 909 97 1056 97 
Q 1306 97 1473 364 
Q 1641 631 1709 941 
Q 1722 978 1759 978 
L 1838 978 
Q 1863 978 1878 961 
Q 1894 944 1894 922 
Q 1894 916 1888 903 
Q 1800 541 1583 234 
Q 1366 -72 1044 -72 
Q 819 -72 659 83 
Q 500 238 500 459 
z
M 1222 3878 
Q 1222 4013 1334 4122 
Q 1447 4231 1581 4231 
Q 1691 4231 1761 4164 
Q 1831 4097 1831 3994 
Q 1831 3850 1717 3742 
Q 1603 3634 1466 3634 
Q 1363 3634 1292 3704 
Q 1222 3775 1222 3878 
z
" transform="scale(0.015625)"/>
      </defs>
      <use xlink:href="#Cmsy10-6a" transform="translate(0 0.53125)"/>
      <use xlink:href="#Cmmi10-7e" transform="translate(19.040039 5.609375)"/>
      <use xlink:href="#Cmmi10-70" transform="translate(27.685547 0.53125)"/>
      <use xlink:href="#Cmmi10-69" transform="translate(82.442656 -16.475) scale(0.7)"/>
      <use xlink:href="#Cmsy10-6a" transform="translate(112.91668 0.53125)"/>
      <use xlink:href="#DejaVuSerif-20" transform="translate(140.602227 0.53125)"/>
      <use xlink:href="#DejaVuSerif-28" transform="translate(172.389336 0.53125)"/>
      <use xlink:href="#DejaVuSerif-61" transform="translate(211.403008 0.53125)"/>
      <use xlink:href="#DejaVuSerif-2e" transform="translate(271.022148 0.53125)"/>
      <use xlink:href="#DejaVuSerif-75" transform="translate(302.809258 0.53125)"/>
      <use xlink:href="#DejaVuSerif-2e" transform="translate(367.213555 0.53125)"/>
      <use xlink:href="#DejaVuSerif-29" transform="translate(399.000664 0.53125)"/>
     </g>
    </g>
   </g>
   <g id="line2d_34">
    <path d="M 146.757335 344.094942 
L 147.411736 152.454261 
L 148.720538 152.570463 
L 157.227752 152.603269 
L 360.746493 152.609248 
L 800.504029 152.60944 
L 800.504029 152.60944 
" clip-path="url(#p4e2a7984de)" style="fill: none; stroke: #1f77b4; stroke-width: 3; stroke-linecap: square"/>
   </g>
   <g id="line2d_35">
    <path d="M 146.757335 344.094893 
L 147.411736 212.894204 
L 148.066137 213.096636 
L 150.02934 213.196886 
L 159.845357 213.239513 
L 291.379977 213.250916 
L 800.504029 213.251682 
L 800.504029 213.251682 
" clip-path="url(#p4e2a7984de)" style="fill: none; stroke-dasharray: 11.1,4.8; stroke-dashoffset: 0; stroke: #ff7f0e; stroke-width: 3"/>
   </g>
   <g id="line2d_36">
    <path d="M 146.757335 453.38078 
L 147.411736 446.426802 
L 148.066137 480.201892 
L 148.720538 427.647363 
L 149.374939 415.234781 
L 150.02934 294.869496 
L 150.683741 359.786681 
L 151.338142 402.987127 
L 151.992543 425.911392 
L 152.646945 434.573103 
L 153.301346 433.321207 
L 153.955747 420.476867 
L 154.610148 390.97214 
L 155.91895 248.90339 
L 156.573351 364.446385 
L 157.227752 362.92403 
L 157.882153 464.305098 
L 158.536554 390.157633 
L 159.190956 468.917066 
L 159.845357 460.400518 
L 160.499758 426.86021 
L 161.154159 459.957833 
L 161.80856 469.63208 
L 162.462961 474.772352 
L 163.117362 478.009897 
L 163.771763 480.256095 
L 164.426164 481.910447 
L 165.080565 483.169627 
L 165.734966 484.147917 
L 166.389368 484.909257 
L 167.043769 485.4891 
L 167.69817 485.906185 
L 168.352571 486.176912 
L 169.006972 486.309283 
L 169.661373 486.30641 
L 170.315774 486.176999 
L 171.624576 485.563791 
L 172.933379 484.516624 
L 174.242181 483.054738 
L 175.550983 481.154283 
L 176.859785 478.713905 
L 178.168587 475.501091 
L 178.822988 473.476587 
L 179.477389 471.045716 
L 180.131791 468.048767 
L 180.786192 464.263242 
L 181.440593 459.426975 
L 182.094994 453.545379 
L 182.749395 448.817478 
L 183.403796 450.703537 
L 184.058197 459.10192 
L 184.712598 470.474269 
L 185.366999 461.643972 
L 186.0214 436.663001 
L 186.675802 431.296459 
L 187.330203 452.472762 
L 187.984604 462.213447 
L 188.639005 467.870715 
L 189.293406 471.700761 
L 189.947807 474.51219 
L 190.602208 476.706878 
L 191.91101 480.005121 
L 193.219812 482.454628 
L 194.528615 484.435014 
L 195.837417 486.084759 
L 197.80062 488.134829 
L 199.763823 489.809396 
L 201.727027 491.118302 
L 203.035829 491.704194 
L 204.344631 491.938784 
L 205.653433 491.753345 
L 206.962235 491.203328 
L 208.271038 490.398886 
L 210.234241 488.860051 
L 211.543043 487.613373 
L 212.851845 486.153585 
L 214.160648 484.450363 
L 215.46945 482.385333 
L 216.778252 479.732432 
L 217.432653 478.052214 
L 218.087054 475.981205 
L 218.741455 473.264723 
L 219.395856 469.392967 
L 220.050257 462.700306 
L 220.704658 440.938776 
L 221.35906 366.326875 
L 222.013461 380.224867 
L 222.667862 467.29401 
L 223.322263 477.504603 
L 223.976664 483.134279 
L 224.631065 485.507681 
L 225.285466 484.034524 
L 225.939867 479.181906 
L 226.594268 471.583947 
L 227.248669 456.293037 
L 227.903071 348.812791 
L 228.557472 391.077644 
L 229.211873 377.739755 
L 229.866274 361.110839 
L 230.520675 448.240153 
L 231.175076 446.535325 
L 231.829477 446.572784 
L 232.483878 411.247698 
L 233.138279 367.111596 
L 233.79268 440.227227 
L 234.447081 365.511042 
L 235.101483 422.167625 
L 235.755884 336.111487 
L 237.064686 440.376874 
L 237.719087 344.003512 
L 238.373488 365.791207 
L 239.027889 440.277803 
L 239.68229 361.994703 
L 240.336691 412.44594 
L 240.991092 380.234677 
L 241.645494 388.865364 
L 242.299895 350.161724 
L 242.954296 362.526983 
L 243.608697 278.376967 
L 244.263098 343.375697 
L 244.917499 362.682979 
L 245.5719 370.612579 
L 246.226301 420.036073 
L 246.880702 426.717907 
L 247.535103 377.896557 
L 248.189504 314.89598 
L 248.843906 372.90647 
L 249.498307 368.791051 
L 250.152708 382.762278 
L 250.807109 393.498815 
L 251.46151 336.74489 
L 252.115911 352.119951 
L 252.770312 419.126343 
L 253.424713 424.104234 
L 254.079114 376.763705 
L 254.733515 297.792582 
L 255.387917 400.441553 
L 256.042318 405.811681 
L 256.696719 351.578368 
L 257.35112 345.367744 
L 258.005521 384.628466 
L 258.659922 373.855059 
L 259.314323 357.732511 
L 259.968724 368.774978 
L 260.623125 358.55046 
L 261.277526 360.784959 
L 261.931927 386.130447 
L 262.586329 374.18091 
L 263.24073 324.704471 
L 263.895131 381.689074 
L 264.549532 403.970279 
L 265.858334 322.870068 
L 266.512735 404.354924 
L 267.167136 410.708979 
L 267.821537 341.727941 
L 268.475938 351.153568 
L 269.13034 416.775638 
L 269.784741 413.233823 
L 270.439142 332.434364 
L 271.093543 356.264586 
L 271.747944 417.532719 
L 272.402345 410.602956 
L 273.056746 321.3871 
L 274.365548 415.06596 
L 275.019949 395.946922 
L 275.67435 293.144975 
L 276.328752 383.871513 
L 276.983153 409.829067 
L 277.637554 370.915012 
L 278.291955 319.491535 
L 278.946356 394.783649 
L 279.600757 398.000027 
L 280.255158 339.08581 
L 280.909559 356.08378 
L 281.56396 396.703898 
L 282.218361 378.846282 
L 282.872763 328.335769 
L 283.527164 376.454428 
L 284.181565 390.006234 
L 284.835966 355.462656 
L 285.490367 349.750557 
L 286.144768 384.282713 
L 286.799169 375.363327 
L 287.45357 343.705326 
L 288.107971 370.568251 
L 288.762372 381.787546 
L 289.416773 355.992449 
L 290.071175 356.271768 
L 290.725576 381.251024 
L 291.379977 369.750501 
L 292.034378 345.769274 
L 292.688779 374.827244 
L 293.34318 381.672145 
L 293.997581 350.075768 
L 294.651982 358.260562 
L 295.306383 386.869626 
L 295.960784 371.617905 
L 296.615186 336.148856 
L 297.269587 378.440815 
L 297.923988 389.97981 
L 298.578389 350.245028 
L 299.23279 349.819296 
L 299.887191 393.295796 
L 300.541592 383.295753 
L 301.195993 323.565298 
L 301.850394 375.350378 
L 302.504795 400.02891 
L 303.813598 328.162645 
L 304.467999 395.207783 
L 305.1224 398.019602 
L 305.776801 331.406257 
L 306.431202 361.832573 
L 307.085603 406.743068 
L 307.740004 386.377609 
L 308.394405 298.906585 
L 309.048806 389.345215 
L 309.703207 410.24878 
L 310.357609 362.742498 
L 311.01201 328.945581 
L 311.666411 406.793639 
L 312.320812 406.258104 
L 312.975213 322.175391 
L 314.284015 416.108632 
L 314.938416 395.839871 
L 315.592817 277.794932 
L 316.247218 391.464316 
L 316.901619 418.923685 
L 317.556021 380.211353 
L 318.210422 296.263387 
L 318.864823 404.580846 
L 319.519224 416.127498 
L 320.173625 356.167196 
L 320.828026 338.983609 
L 321.482427 412.081237 
L 322.136828 406.806614 
L 322.791229 314.515724 
L 323.44563 372.140942 
L 324.100032 414.718874 
L 324.754433 388.464509 
L 325.408834 290.109535 
L 326.063235 393.941663 
L 326.717636 410.602451 
L 327.372037 356.759688 
L 328.026438 338.304708 
L 328.680839 405.618722 
L 329.33524 397.756099 
L 329.989641 311.451736 
L 330.644042 375.514892 
L 331.298444 407.79248 
L 331.952845 373.480138 
L 332.607246 316.869293 
L 333.261647 395.527288 
L 333.916048 400.052918 
L 334.570449 334.924626 
L 335.22485 359.803168 
L 335.879251 403.110536 
L 336.533652 381.123984 
L 337.188053 313.529203 
L 337.842455 386.24619 
L 338.496856 399.641141 
L 339.151257 348.951482 
L 339.805658 348.168674 
L 340.460059 398.242289 
L 341.11446 384.738157 
L 341.768861 319.245827 
L 342.423262 378.673047 
L 343.077663 398.217852 
L 343.732064 356.938458 
L 344.386465 341.219851 
L 345.040867 394.10607 
L 345.695268 386.357893 
L 346.349669 325.679163 
L 347.00407 373.114296 
L 347.658471 396.784684 
L 348.312872 361.690597 
L 348.967273 337.418302 
L 349.621674 391.064968 
L 350.276075 387.244395 
L 350.930476 330.256017 
L 351.584878 369.49276 
L 352.239279 395.86037 
L 353.548081 335.498761 
L 354.202482 389.414749 
L 354.856883 387.861496 
L 355.511284 332.489441 
L 356.165685 367.593555 
L 356.820086 395.719781 
L 358.128888 333.907885 
L 358.78329 388.915162 
L 359.437691 388.800956 
L 360.092092 333.15016 
L 361.400894 396.377989 
L 362.055295 367.334729 
L 362.709696 331.850725 
L 363.364097 389.258327 
L 364.018498 390.25748 
L 364.672899 332.921897 
L 365.981702 397.717972 
L 366.636103 369.144496 
L 367.290504 328.737606 
L 367.944905 389.996824 
L 368.599306 392.372738 
L 369.253707 332.648686 
L 370.562509 399.541913 
L 371.21691 371.422476 
L 371.871311 324.741554 
L 372.525713 391.085321 
L 373.180114 394.864761 
L 373.834515 332.291407 
L 375.143317 401.718265 
L 375.797718 373.9168 
L 376.452119 320.13241 
L 377.10652 392.514154 
L 377.760921 397.588384 
L 378.415322 331.959226 
L 379.069724 364.105774 
L 379.724125 404.151915 
L 380.378526 376.637843 
L 381.032927 314.809029 
L 381.687328 394.088491 
L 382.341729 400.615881 
L 382.99613 332.521868 
L 383.650531 363.355329 
L 384.304932 406.71867 
L 384.959333 380.117817 
L 385.613734 308.100833 
L 386.268136 395.447118 
L 386.922537 404.008434 
L 387.576938 334.838191 
L 388.231339 361.749053 
L 388.88574 409.289842 
L 389.540141 384.487846 
L 390.194542 299.662854 
L 390.848943 396.278079 
L 391.503344 407.755977 
L 392.157745 339.992143 
L 392.812147 358.277488 
L 393.466548 411.571997 
L 394.120949 390.077109 
L 394.77535 289.728875 
L 395.429751 395.700023 
L 396.084152 411.683847 
L 396.738553 349.23799 
L 397.392954 350.846109 
L 398.047355 412.776701 
L 398.701756 396.627785 
L 399.356158 284.210648 
L 400.010559 392.39292 
L 400.66496 414.806796 
L 401.319361 361.04734 
L 401.973762 338.169067 
L 402.628163 411.745157 
L 403.282564 402.065002 
L 403.936965 292.62901 
L 404.591366 386.293334 
L 405.245767 415.533096 
L 406.55457 325.37026 
L 407.208971 408.74089 
L 407.863372 403.828225 
L 408.517773 303.85747 
L 409.172174 381.246523 
L 409.826575 413.915774 
L 411.135377 322.931735 
L 411.789778 406.291081 
L 412.444179 401.777993 
L 413.098581 306.064657 
L 413.752982 380.635534 
L 414.407383 411.397633 
L 415.716185 329.705925 
L 416.370586 405.308361 
L 417.024987 397.33266 
L 417.679388 303.123683 
L 418.333789 383.595826 
L 418.98819 408.494637 
L 419.642591 358.010478 
L 420.296993 341.592217 
L 420.951394 405.40514 
L 421.605795 390.660995 
L 422.260196 302.004041 
L 422.914597 388.679613 
L 423.568998 404.835661 
L 424.223399 344.329307 
L 424.8778 355.588563 
L 425.532201 405.676478 
L 426.186602 381.230337 
L 426.841004 310.692167 
L 427.495405 394.321151 
L 428.149806 399.662107 
L 428.804207 326.82171 
L 430.113009 405.107701 
L 431.421811 329.602201 
L 432.076212 399.339447 
L 432.730613 391.979896 
L 433.385014 311.795523 
L 434.039416 382.006493 
L 434.693817 402.729602 
L 435.348218 349.886757 
L 436.002619 350.823595 
L 436.65702 402.574595 
L 437.311421 380.934732 
L 437.965822 313.802036 
L 438.620223 391.910535 
L 439.274624 397.732747 
L 439.929025 328.087382 
L 440.583427 369.407793 
L 441.237828 403.388849 
L 442.54663 333.468005 
L 443.201031 398.974521 
L 443.855432 389.351635 
L 444.509833 311.899931 
L 445.164234 384.048197 
L 445.818635 401.233151 
L 446.473036 344.270944 
L 447.127437 356.455554 
L 447.781839 402.970175 
L 448.43624 376.556353 
L 449.090641 318.834074 
L 449.745042 394.862905 
L 450.399443 395.516034 
L 451.053844 319.913838 
L 451.708245 375.720491 
L 452.362646 403.616266 
L 453.017047 357.92074 
L 453.671448 342.740984 
L 454.32585 401.966999 
L 454.980251 385.430723 
L 455.634652 309.173045 
L 456.289053 390.306228 
L 456.943454 400.480796 
L 457.597855 332.182223 
L 458.906657 405.350042 
L 460.215459 328.148287 
L 460.86986 400.580177 
L 461.524262 392.839238 
L 462.178663 307.023079 
L 462.833064 385.303106 
L 463.487465 404.676245 
L 464.141866 345.294732 
L 464.796267 356.324795 
L 465.450668 406.623615 
L 466.105069 379.55734 
L 466.75947 312.602193 
L 467.413871 398.692435 
L 468.068273 399.491842 
L 468.722674 313.336373 
L 469.377075 379.258235 
L 470.031476 408.369046 
L 470.685877 358.604943 
L 471.340278 343.414513 
L 471.994679 407.314822 
L 472.64908 389.035362 
L 473.303481 297.991659 
L 473.957882 395.791056 
L 474.612283 405.634913 
L 475.266685 327.293191 
L 476.575487 411.380498 
L 477.229888 372.070447 
L 477.884289 325.509136 
L 478.53869 406.793546 
L 479.193091 398.04428 
L 479.847492 293.129309 
L 480.501893 390.723928 
L 481.156294 410.910274 
L 481.810696 345.864891 
L 482.465097 358.389098 
L 483.119498 412.847161 
L 483.773899 384.826165 
L 484.4283 301.979564 
L 485.082701 403.82134 
L 485.737102 405.611844 
L 486.391503 308.499664 
L 487.045904 381.91272 
L 487.700305 413.96595 
L 488.354706 363.703857 
L 489.009108 340.007135 
L 489.663509 411.386809 
L 490.31791 394.583979 
L 490.972311 286.766133 
L 491.626712 397.493936 
L 492.281113 409.809622 
L 492.935514 331.070643 
L 494.244316 413.612049 
L 494.898717 375.431696 
L 495.553119 321.633314 
L 496.20752 407.356248 
L 496.861921 398.957048 
L 497.516322 292.855245 
L 498.170723 390.875357 
L 498.825124 409.914181 
L 499.479525 342.192482 
L 500.133926 361.73035 
L 500.788327 411.31611 
L 501.442728 378.270368 
L 502.097129 316.543511 
L 502.751531 404.185531 
L 503.405932 398.173932 
L 504.060333 299.063949 
L 504.714734 388.393199 
L 505.369135 407.730768 
L 506.023536 341.2446 
L 506.677937 362.207945 
L 507.332338 409.239174 
L 507.986739 374.209644 
L 508.64114 323.879776 
L 509.295542 403.583193 
L 509.949943 393.719378 
L 510.604344 300.297758 
L 511.258745 390.78872 
L 511.913146 404.176435 
L 512.567547 330.690734 
L 513.876349 407.586606 
L 514.53075 364.147202 
L 515.185151 338.694943 
L 515.839552 404.706779 
L 516.493954 386.007622 
L 517.148355 306.601019 
L 517.802756 395.618158 
L 518.457157 399.051026 
L 519.111558 315.251039 
L 519.765959 379.920859 
L 520.42036 405.318946 
L 521.074761 348.078129 
L 521.729162 356.493155 
L 522.383563 405.896718 
L 523.037965 373.548788 
L 523.692366 325.826783 
L 524.346767 401.28572 
L 525.001168 390.181799 
L 525.655569 305.305133 
L 526.30997 391.60831 
L 526.964371 400.264485 
L 527.618772 321.783645 
L 528.273173 376.481887 
L 528.927574 405.164336 
L 529.581975 350.45181 
L 530.236377 355.112346 
L 530.890778 405.602113 
L 531.545179 372.78228 
L 532.19958 327.983724 
L 532.853981 401.974374 
L 533.508382 388.26907 
L 534.162783 306.114119 
L 534.817184 394.34496 
L 535.471585 398.527821 
L 536.125986 313.414311 
L 536.780388 382.346256 
L 537.434789 404.537056 
L 538.08919 339.628301 
L 538.743591 365.106242 
L 539.397992 406.785204 
L 540.052393 363.739431 
L 540.706794 341.512292 
L 541.361195 405.429628 
L 542.015596 381.763591 
L 542.669997 313.949484 
L 543.324398 400.406441 
L 543.9788 394.560951 
L 544.633201 301.630471 
L 545.287602 391.395417 
L 545.942003 403.066797 
L 546.596404 321.373359 
L 547.250805 377.664042 
L 547.905206 407.773842 
L 548.559607 349.596013 
L 549.214008 357.881969 
L 549.868409 408.879235 
L 551.177212 330.592375 
L 551.831613 406.373002 
L 552.486014 388.770188 
L 553.140415 301.503757 
L 553.794816 400.043855 
L 554.449217 400.307317 
L 555.103618 300.604499 
L 555.758019 389.403364 
L 556.41242 407.666255 
L 557.066821 330.143665 
L 558.375624 411.22523 
L 559.030025 359.002045 
L 559.684426 350.22481 
L 560.338827 411.101211 
L 560.993228 380.282549 
L 561.647629 318.070305 
L 562.30203 407.184289 
L 562.956431 395.277668 
L 563.610832 290.549909 
L 564.265234 399.166117 
L 564.919635 405.359254 
L 565.574036 306.016646 
L 566.228437 386.362782 
L 566.882838 411.222834 
L 567.537239 340.858964 
L 568.19164 367.414338 
L 568.846041 413.141132 
L 569.500442 367.974147 
L 570.154843 340.130435 
L 570.809244 411.218866 
L 571.463646 386.724176 
L 572.118047 305.360978 
L 572.772448 405.430654 
L 573.426849 399.348901 
L 574.08125 290.013015 
L 574.735651 395.637181 
L 575.390052 407.237203 
L 576.044453 316.391535 
L 576.698854 381.485722 
L 577.353255 411.179602 
L 578.007657 347.440027 
L 578.662058 362.167685 
L 579.316459 411.696364 
L 579.97086 369.972383 
L 580.625261 336.863243 
L 581.279662 409.139252 
L 581.934063 385.543811 
L 582.588464 308.61773 
L 583.242865 403.755247 
L 583.897266 396.198017 
L 584.551667 294.977815 
L 585.206069 395.674295 
L 585.86047 403.182379 
L 586.514871 309.879265 
L 587.169272 384.885492 
L 587.823673 407.248135 
L 588.478074 334.384202 
L 589.786876 408.8798 
L 590.441277 355.241957 
L 591.095678 354.430003 
L 591.75008 408.415824 
L 593.058882 334.77963 
L 593.713283 406.095917 
L 594.367684 382.832639 
L 595.022085 314.775934 
L 595.676486 402.075357 
L 596.330887 391.544857 
L 596.985288 302.179949 
L 597.639689 396.540163 
L 598.29409 397.830791 
L 598.948492 304.459743 
L 599.602893 389.598417 
L 600.257294 402.211621 
L 600.911695 318.12285 
L 601.566096 381.160923 
L 602.220497 405.071969 
L 602.874898 334.908663 
L 604.1837 406.606499 
L 604.838101 350.392406 
L 605.492503 359.200049 
L 606.146904 406.925507 
L 606.801305 363.26364 
L 607.455706 345.859775 
L 608.110107 406.177727 
L 608.764508 373.577144 
L 609.418909 331.624858 
L 610.07331 404.517343 
L 610.727711 381.890251 
L 611.382112 317.664936 
L 612.036513 402.016983 
L 612.690915 388.683309 
L 613.345316 306.536347 
L 613.999717 398.705279 
L 614.654118 394.229068 
L 615.308519 301.792913 
L 615.96292 394.578265 
L 616.617321 398.734965 
L 617.271722 305.232546 
L 617.926123 389.593391 
L 618.580524 402.341781 
L 619.234926 315.08622 
L 619.889327 383.654465 
L 620.543728 405.137764 
L 621.198129 327.858757 
L 621.85253 376.651713 
L 622.506931 407.171902 
L 623.161332 340.901507 
L 623.815733 368.433573 
L 624.470134 408.476185 
L 625.124535 352.977956 
L 625.778936 358.834679 
L 626.433338 409.066306 
L 627.087739 363.669514 
L 627.74214 347.704662 
L 628.396541 408.954886 
L 629.705343 334.890137 
L 630.359744 408.127241 
L 631.014145 381.164887 
L 631.668546 320.773015 
L 632.322947 406.583238 
L 632.977349 388.115443 
L 633.63175 306.793681 
L 634.286151 404.321231 
L 634.940552 394.043567 
L 635.594953 295.895547 
L 636.249354 401.266064 
L 636.903755 399.102459 
L 637.558156 292.377618 
L 638.212557 397.361081 
L 638.866958 403.300524 
L 639.521359 298.237977 
L 640.175761 392.554698 
L 640.830162 406.665793 
L 641.484563 310.629623 
L 642.138964 386.800836 
L 642.793365 409.214597 
L 643.447766 325.153205 
L 644.102167 380.03344 
L 644.756568 410.971366 
L 645.410969 339.00594 
L 646.06537 372.187071 
L 646.719772 411.973647 
L 647.374173 351.220934 
L 648.028574 363.162488 
L 648.682975 412.255303 
L 649.337376 361.67645 
L 649.991777 352.916879 
L 650.646178 411.856423 
L 651.300579 370.412726 
L 651.95498 341.668175 
L 652.609381 410.842712 
L 653.263782 377.602586 
L 653.918184 329.884088 
L 654.572585 409.306791 
L 655.226986 383.461429 
L 655.881387 318.321375 
L 656.535788 407.345774 
L 657.190189 388.190128 
L 657.84459 308.216096 
L 658.498991 405.082347 
L 659.153392 391.953198 
L 659.807793 300.787854 
L 660.462195 402.614637 
L 661.116596 394.924251 
L 661.770997 296.797517 
L 662.425398 400.060141 
L 663.079799 397.234596 
L 663.7342 296.085896 
L 664.388601 397.519306 
L 665.043002 398.992465 
L 665.697403 297.758906 
L 666.351804 395.08497 
L 667.006205 400.329414 
L 667.660607 300.787516 
L 668.315008 392.786788 
L 668.969409 401.338432 
L 669.62381 304.341841 
L 670.278211 390.674796 
L 670.932612 402.097477 
L 671.587013 307.902418 
L 672.241414 388.798249 
L 672.895815 402.645142 
L 673.550216 311.046832 
L 674.204618 387.225831 
L 674.859019 403.01083 
L 675.51342 313.579841 
L 676.167821 385.996537 
L 676.822222 403.252493 
L 677.476623 315.53436 
L 678.131024 385.041657 
L 678.785425 403.423071 
L 679.439826 317.001985 
L 680.094227 384.330763 
L 680.748628 403.546801 
L 681.40303 318.012203 
L 682.057431 383.863681 
L 682.711832 403.636137 
L 683.366233 318.60328 
L 684.020634 383.631844 
L 684.675035 403.672163 
L 685.329436 318.543349 
L 685.983837 383.783804 
L 686.638238 403.631783 
L 687.292639 317.881545 
L 687.947041 384.200277 
L 688.601442 403.585599 
L 689.255843 316.96714 
L 689.910244 384.722138 
L 690.564645 403.552951 
L 691.219046 315.876416 
L 691.873447 385.346814 
L 692.527848 403.521777 
L 693.182249 314.522552 
L 693.83665 386.114068 
L 694.491051 403.478137 
L 695.145453 312.937229 
L 695.799854 386.982402 
L 696.454255 403.426232 
L 697.108656 311.149254 
L 697.763057 387.943474 
L 698.417458 403.359073 
L 699.071859 309.170892 
L 699.72626 388.989042 
L 700.380661 403.272239 
L 701.035062 307.051794 
L 701.689464 390.088565 
L 702.343865 403.16505 
L 702.998266 304.845022 
L 703.652667 391.223109 
L 704.307068 403.027827 
L 704.961469 302.566563 
L 705.61587 392.406107 
L 706.270271 402.830374 
L 706.924672 300.216369 
L 707.579073 393.648127 
L 708.233474 402.537575 
L 708.887876 297.841956 
L 709.542277 394.939162 
L 710.196678 402.165768 
L 710.851079 295.675678 
L 711.50548 396.193596 
L 712.159881 401.698055 
L 712.814282 293.784704 
L 713.468683 397.437268 
L 714.123084 401.108352 
L 714.777485 292.30876 
L 715.431887 398.683311 
L 716.086288 400.340113 
L 716.740689 291.414882 
L 717.39509 399.91106 
L 718.049491 399.382114 
L 718.703892 291.312515 
L 719.358293 401.086644 
L 720.012694 398.227215 
L 720.667095 292.162373 
L 721.321496 402.217046 
L 721.975897 396.810159 
L 722.630299 294.154358 
L 723.2847 403.312198 
L 723.939101 395.11353 
L 724.593502 297.323345 
L 725.247903 404.342161 
L 725.902304 393.105613 
L 726.556705 301.691838 
L 727.211106 405.315212 
L 727.865507 390.714938 
L 728.519908 307.234193 
L 729.17431 406.234222 
L 729.828711 387.891041 
L 730.483112 313.764598 
L 731.137513 407.076534 
L 731.791914 384.554796 
L 732.446315 321.107493 
L 733.100716 407.82839 
L 733.755117 380.591428 
L 734.409518 329.050273 
L 735.063919 408.453092 
L 735.71832 375.884145 
L 736.372722 337.339006 
L 737.027123 408.904291 
L 737.681524 370.30913 
L 738.335925 345.68746 
L 738.990326 409.119242 
L 739.644727 363.687722 
L 740.299128 353.923377 
L 740.953529 409.031606 
L 741.60793 355.881731 
L 742.262331 361.84948 
L 742.916733 408.559644 
L 743.571134 346.652055 
L 744.225535 369.39946 
L 744.879936 407.619419 
L 745.534337 335.991339 
L 746.188738 376.434713 
L 746.843139 406.114992 
L 747.49754 324.174604 
L 748.151941 382.88014 
L 748.806342 403.943733 
L 749.460743 312.267905 
L 750.115145 388.701686 
L 750.769546 401.004606 
L 751.423947 303.027523 
L 752.078348 393.802107 
L 752.732749 397.220944 
L 753.38715 300.121032 
L 754.041551 398.132775 
L 754.695952 392.488999 
L 755.350353 305.363683 
L 756.004754 401.72065 
L 756.659156 386.519233 
L 757.313557 317.278945 
L 757.967958 404.595352 
L 758.622359 378.936051 
L 759.27676 332.301181 
L 759.931161 406.622276 
L 760.585562 369.505902 
L 761.239963 347.142999 
L 761.894364 407.673589 
L 762.548765 358.086311 
L 763.203166 360.36119 
L 763.857568 407.707956 
L 764.511969 344.417211 
L 765.16637 371.721904 
L 765.820771 406.681085 
L 766.475172 328.585769 
L 767.129573 381.355238 
L 767.783974 404.530322 
L 768.438375 312.132713 
L 769.092776 389.409831 
L 769.747177 401.173178 
L 770.401579 299.884592 
L 771.05598 396.035719 
L 771.710381 396.495964 
L 772.364782 298.858845 
L 773.019183 401.335131 
L 773.673584 390.341499 
L 774.327985 310.269242 
L 774.982386 405.37022 
L 775.636787 382.486915 
L 776.291188 327.619424 
L 776.945589 408.166279 
L 777.599991 372.556206 
L 778.254392 345.177241 
L 778.908793 409.725926 
L 779.563194 360.001183 
L 780.217595 360.682279 
L 780.871996 409.993103 
L 781.526397 344.378309 
L 782.180798 373.617248 
L 782.835199 408.920051 
L 783.4896 325.689091 
L 784.144002 384.231901 
L 784.798403 406.433125 
L 785.452804 305.893316 
L 786.107205 392.874369 
L 786.761606 402.388563 
L 787.416007 292.9667 
L 788.070408 399.773368 
L 788.724809 396.601378 
L 789.37921 297.500165 
L 790.033611 405.01929 
L 790.688012 388.821283 
L 791.342414 316.160173 
L 791.996815 408.635241 
L 792.651216 378.796865 
L 793.305617 337.263525 
L 793.960018 410.647855 
L 794.614419 365.996615 
L 795.26882 355.702676 
L 795.923221 411.081192 
L 796.577622 349.744736 
L 797.232023 370.755019 
L 797.886425 409.872454 
L 798.540826 329.450079 
L 799.195227 382.885345 
L 799.849628 406.892553 
L 800.504029 307.264045 
L 800.504029 307.264045 
" clip-path="url(#p4e2a7984de)" style="fill: none; stroke-dasharray: 19.2,4.8,3,4.8; stroke-dashoffset: 0; stroke: #2ca02c; stroke-width: 3"/>
   </g>
   <g id="line2d_37">
    <path d="M 146.757335 453.38078 
L 147.411736 432.074254 
L 148.066137 436.611995 
L 148.720538 382.349208 
L 149.374939 460.08157 
L 150.02934 363.090007 
L 150.683741 458.963876 
L 151.338142 472.549865 
L 151.992543 480.187112 
L 152.646945 485.458556 
L 153.301346 488.616785 
L 153.955747 488.107226 
L 154.610148 484.383712 
L 155.264549 478.805918 
L 155.91895 470.706994 
L 156.573351 455.499991 
L 157.227752 377.312132 
L 157.882153 424.406238 
L 158.536554 442.293937 
L 159.190956 433.092805 
L 159.845357 326.790985 
L 160.499758 322.071101 
L 161.154159 406.864098 
L 161.80856 404.253576 
L 162.462961 272.401314 
L 163.117362 401.087492 
L 163.771763 419.226958 
L 164.426164 338.968671 
L 165.080565 371.908344 
L 165.734966 420.78288 
L 167.043769 333.351949 
L 167.69817 414.253167 
L 168.352571 388.875481 
L 169.006972 307.609086 
L 169.661373 407.321791 
L 170.315774 393.443334 
L 170.970175 298.454726 
L 171.624576 401.38257 
L 172.278977 395.648065 
L 172.933379 299.020517 
L 173.58778 396.779958 
L 174.242181 397.119438 
L 174.896582 301.895517 
L 175.550983 393.640006 
L 176.205384 398.953629 
L 176.859785 303.712399 
L 177.514186 391.81119 
L 178.168587 402.165078 
L 178.822988 305.122461 
L 179.477389 390.287863 
L 180.131791 407.717917 
L 180.786192 315.505254 
L 181.440593 383.899364 
L 182.094994 412.317767 
L 182.749395 346.214486 
L 183.403796 364.278514 
L 184.058197 395.168839 
L 184.712598 332.3333 
L 185.366999 378.034729 
L 186.0214 410.492546 
L 186.675802 378.455029 
L 187.330203 333.002794 
L 187.984604 408.756818 
L 189.293406 337.441577 
L 189.947807 412.751124 
L 190.602208 383.369492 
L 191.256609 319.156729 
L 191.91101 415.977645 
L 192.565411 403.662837 
L 193.219812 261.426967 
L 193.874214 404.181102 
L 194.528615 416.868169 
L 195.183016 322.896005 
L 195.837417 381.31394 
L 196.491818 413.078219 
L 197.146219 343.862257 
L 197.80062 367.580169 
L 198.455021 405.520479 
L 199.109422 347.854775 
L 199.763823 362.882702 
L 200.418225 397.223159 
L 201.072626 345.668687 
L 202.381428 389.564624 
L 203.035829 339.399613 
L 203.69023 374.915407 
L 204.344631 384.632749 
L 204.999032 329.438349 
L 205.653433 386.73476 
L 206.307834 384.994795 
L 206.962235 315.46757 
L 207.616637 399.399681 
L 208.271038 392.440608 
L 208.925439 293.06812 
L 209.57984 410.25512 
L 210.234241 410.871971 
L 210.888642 280.354032 
L 211.543043 390.452992 
L 212.197444 420.484168 
L 212.851845 355.735977 
L 213.506246 360.197349 
L 214.160648 402.585757 
L 214.815049 350.991912 
L 215.46945 363.321612 
L 216.123851 379.060772 
L 216.778252 347.075245 
L 217.432653 386.674326 
L 218.087054 357.889684 
L 218.741455 357.694841 
L 219.395856 415.164183 
L 220.050257 367.84357 
L 220.704658 310.829245 
L 221.35906 451.180792 
L 222.013461 319.614319 
L 222.667862 383.534986 
L 223.322263 434.767976 
L 223.976664 399.265517 
L 224.631065 294.186517 
L 225.285466 437.674867 
L 225.939867 416.487694 
L 226.594268 374.406931 
L 227.248669 387.082282 
L 227.903071 291.747059 
L 228.557472 467.900571 
L 229.211873 477.516043 
L 229.866274 458.654463 
L 230.520675 459.65537 
L 231.175076 415.205446 
L 231.829477 354.404544 
L 232.483878 442.18537 
L 233.138279 472.772443 
L 233.79268 482.79007 
L 234.447081 486.111903 
L 235.101483 481.811808 
L 235.755884 470.462153 
L 236.410285 442.266689 
L 237.064686 442.746934 
L 237.719087 457.357643 
L 238.373488 462.518667 
L 239.027889 465.562129 
L 239.68229 467.515752 
L 240.336691 468.969176 
L 240.991092 470.072473 
L 242.299895 471.693228 
L 243.608697 472.855898 
L 244.917499 473.738446 
L 246.880702 474.742545 
L 248.843906 475.496353 
L 251.46151 476.263881 
L 254.733515 476.98256 
L 259.314323 477.709521 
L 265.203933 478.373857 
L 272.402345 478.947132 
L 282.218361 479.487005 
L 295.306383 479.974466 
L 313.629614 480.422189 
L 339.805658 480.823091 
L 379.069724 481.181853 
L 439.274624 481.489438 
L 538.08919 481.75017 
L 713.468683 481.963778 
L 800.504029 482.023509 
L 800.504029 482.023509 
" clip-path="url(#p4e2a7984de)" style="fill: none; stroke-dasharray: 3,4.95; stroke-dashoffset: 0; stroke: #d62728; stroke-width: 3"/>
   </g>
   <g id="line2d_38">
    <path d="M 0 0 
" clip-path="url(#p4e2a7984de)" style="fill: none; stroke: #000000; stroke-width: 3; stroke-linecap: square"/>
   </g>
   <g id="patch_3">
    <path d="M 114.07 489.2325 
L 114.07 28.08 
" style="fill: none; stroke: #000000; stroke-width: 2; stroke-linejoin: miter; stroke-linecap: square"/>
   </g>
   <g id="patch_4">
    <path d="M 833.191364 489.2325 
L 833.191364 28.08 
" style="fill: none; stroke: #000000; stroke-width: 2; stroke-linejoin: miter; stroke-linecap: square"/>
   </g>
   <g id="patch_5">
    <path d="M 114.07 489.2325 
L 833.191364 489.2325 
" style="fill: none; stroke: #000000; stroke-width: 2; stroke-linejoin: miter; stroke-linecap: square"/>
   </g>
   <g id="patch_6">
    <path d="M 114.07 28.08 
L 833.191364 28.08 
" style="fill: none; stroke: #000000; stroke-width: 2; stroke-linejoin: miter; stroke-linecap: square"/>
   </g>
   <g id="legend_1">
    <g id="patch_7">
     <path d="M 683.493864 481.2325 
L 821.991364 481.2325 
Q 825.191364 481.2325 825.191364 478.0325 
L 825.191364 362.2075 
Q 825.191364 359.0075 821.991364 359.0075 
L 683.493864 359.0075 
Q 680.293864 359.0075 680.293864 362.2075 
L 680.293864 478.0325 
Q 680.293864 481.2325 683.493864 481.2325 
z
" style="fill: #ffffff; opacity: 0.8; stroke: #cccccc; stroke-linejoin: miter"/>
    </g>
    <g id="line2d_39">
     <path d="M 686.693864 371.965 
L 702.693864 371.965 
L 718.693864 371.965 
" style="fill: none; stroke: #1f77b4; stroke-width: 3; stroke-linecap: square"/>
    </g>
    <g id="text_14">
     <!-- Electron 1 -->
     <g transform="translate(731.493864 377.565) scale(0.16 -0.16)">
      <defs>
       <path id="DejaVuSerif-45" d="M 353 0 
L 353 331 
L 947 331 
L 947 4331 
L 353 4331 
L 353 4666 
L 4109 4666 
L 4109 3628 
L 3725 3628 
L 3725 4281 
L 1581 4281 
L 1581 2719 
L 3109 2719 
L 3109 3303 
L 3494 3303 
L 3494 1753 
L 3109 1753 
L 3109 2338 
L 1581 2338 
L 1581 384 
L 3775 384 
L 3775 1038 
L 4159 1038 
L 4159 0 
L 353 0 
z
" transform="scale(0.015625)"/>
       <path id="DejaVuSerif-6c" d="M 1313 331 
L 1856 331 
L 1856 0 
L 184 0 
L 184 331 
L 738 331 
L 738 4531 
L 184 4531 
L 184 4863 
L 1313 4863 
L 1313 331 
z
" transform="scale(0.015625)"/>
       <path id="DejaVuSerif-65" d="M 3469 1600 
L 991 1600 
L 991 1575 
Q 991 903 1244 561 
Q 1497 219 1991 219 
Q 2369 219 2611 417 
Q 2853 616 2950 1006 
L 3413 1006 
Q 3275 459 2904 184 
Q 2534 -91 1931 -91 
Q 1203 -91 761 389 
Q 319 869 319 1663 
Q 319 2450 753 2931 
Q 1188 3413 1894 3413 
Q 2647 3413 3050 2948 
Q 3453 2484 3469 1600 
z
M 2791 1931 
Q 2772 2513 2545 2808 
Q 2319 3103 1894 3103 
Q 1497 3103 1269 2806 
Q 1041 2509 991 1931 
L 2791 1931 
z
" transform="scale(0.015625)"/>
       <path id="DejaVuSerif-63" d="M 3291 997 
Q 3169 466 2822 187 
Q 2475 -91 1925 -91 
Q 1200 -91 759 389 
Q 319 869 319 1663 
Q 319 2459 759 2936 
Q 1200 3413 1925 3413 
Q 2241 3413 2553 3339 
Q 2866 3266 3181 3116 
L 3181 2266 
L 2847 2266 
Q 2781 2703 2561 2903 
Q 2341 3103 1931 3103 
Q 1466 3103 1228 2742 
Q 991 2381 991 1663 
Q 991 944 1227 581 
Q 1463 219 1931 219 
Q 2303 219 2525 412 
Q 2747 606 2828 997 
L 3291 997 
z
" transform="scale(0.015625)"/>
       <path id="DejaVuSerif-74" d="M 691 2988 
L 184 2988 
L 184 3322 
L 691 3322 
L 691 4353 
L 1269 4353 
L 1269 3322 
L 2350 3322 
L 2350 2988 
L 1269 2988 
L 1269 878 
Q 1269 456 1350 337 
Q 1431 219 1650 219 
Q 1875 219 1978 351 
Q 2081 484 2088 781 
L 2522 781 
Q 2497 328 2275 118 
Q 2053 -91 1600 -91 
Q 1103 -91 897 129 
Q 691 350 691 878 
L 691 2988 
z
" transform="scale(0.015625)"/>
       <path id="DejaVuSerif-72" d="M 3059 3328 
L 3059 2497 
L 2728 2497 
Q 2713 2744 2591 2866 
Q 2469 2988 2234 2988 
Q 1809 2988 1582 2694 
Q 1356 2400 1356 1850 
L 1356 331 
L 2022 331 
L 2022 0 
L 263 0 
L 263 331 
L 781 331 
L 781 2994 
L 231 2994 
L 231 3322 
L 1356 3322 
L 1356 2731 
Q 1525 3078 1790 3245 
Q 2056 3413 2438 3413 
Q 2578 3413 2733 3391 
Q 2888 3369 3059 3328 
z
" transform="scale(0.015625)"/>
       <path id="DejaVuSerif-6f" d="M 1925 219 
Q 2388 219 2623 584 
Q 2859 950 2859 1663 
Q 2859 2375 2623 2739 
Q 2388 3103 1925 3103 
Q 1463 3103 1227 2739 
Q 991 2375 991 1663 
Q 991 950 1228 584 
Q 1466 219 1925 219 
z
M 1925 -91 
Q 1200 -91 759 389 
Q 319 869 319 1663 
Q 319 2456 758 2934 
Q 1197 3413 1925 3413 
Q 2653 3413 3092 2934 
Q 3531 2456 3531 1663 
Q 3531 869 3092 389 
Q 2653 -91 1925 -91 
z
" transform="scale(0.015625)"/>
       <path id="DejaVuSerif-6e" d="M 263 0 
L 263 331 
L 781 331 
L 781 2988 
L 231 2988 
L 231 3322 
L 1356 3322 
L 1356 2731 
Q 1516 3069 1770 3241 
Q 2025 3413 2363 3413 
Q 2913 3413 3172 3097 
Q 3431 2781 3431 2113 
L 3431 331 
L 3944 331 
L 3944 0 
L 2356 0 
L 2356 331 
L 2853 331 
L 2853 1931 
Q 2853 2541 2703 2767 
Q 2553 2994 2175 2994 
Q 1775 2994 1565 2701 
Q 1356 2409 1356 1850 
L 1356 331 
L 1856 331 
L 1856 0 
L 263 0 
z
" transform="scale(0.015625)"/>
      </defs>
      <use xlink:href="#DejaVuSerif-45"/>
      <use xlink:href="#DejaVuSerif-6c" x="72.998047"/>
      <use xlink:href="#DejaVuSerif-65" x="104.980469"/>
      <use xlink:href="#DejaVuSerif-63" x="164.160156"/>
      <use xlink:href="#DejaVuSerif-74" x="220.166016"/>
      <use xlink:href="#DejaVuSerif-72" x="260.351562"/>
      <use xlink:href="#DejaVuSerif-6f" x="308.154297"/>
      <use xlink:href="#DejaVuSerif-6e" x="368.359375"/>
      <use xlink:href="#DejaVuSerif-20" x="432.763672"/>
      <use xlink:href="#DejaVuSerif-31" x="464.550781"/>
     </g>
    </g>
    <g id="line2d_40">
     <path d="M 686.693864 395.45 
L 702.693864 395.45 
L 718.693864 395.45 
" style="fill: none; stroke-dasharray: 11.1,4.8; stroke-dashoffset: 0; stroke: #ff7f0e; stroke-width: 3"/>
    </g>
    <g id="text_15">
     <!-- Electron 2 -->
     <g transform="translate(731.493864 401.05) scale(0.16 -0.16)">
      <use xlink:href="#DejaVuSerif-45"/>
      <use xlink:href="#DejaVuSerif-6c" x="72.998047"/>
      <use xlink:href="#DejaVuSerif-65" x="104.980469"/>
      <use xlink:href="#DejaVuSerif-63" x="164.160156"/>
      <use xlink:href="#DejaVuSerif-74" x="220.166016"/>
      <use xlink:href="#DejaVuSerif-72" x="260.351562"/>
      <use xlink:href="#DejaVuSerif-6f" x="308.154297"/>
      <use xlink:href="#DejaVuSerif-6e" x="368.359375"/>
      <use xlink:href="#DejaVuSerif-20" x="432.763672"/>
      <use xlink:href="#DejaVuSerif-32" x="464.550781"/>
     </g>
    </g>
    <g id="line2d_41">
     <path d="M 686.693864 418.935 
L 702.693864 418.935 
L 718.693864 418.935 
" style="fill: none; stroke-dasharray: 19.2,4.8,3,4.8; stroke-dashoffset: 0; stroke: #2ca02c; stroke-width: 3"/>
    </g>
    <g id="text_16">
     <!-- Electron 3 -->
     <g transform="translate(731.493864 424.535) scale(0.16 -0.16)">
      <defs>
       <path id="DejaVuSerif-33" d="M 622 4469 
Q 988 4606 1323 4678 
Q 1659 4750 1953 4750 
Q 2638 4750 3022 4454 
Q 3406 4159 3406 3634 
Q 3406 3213 3140 2930 
Q 2875 2647 2388 2547 
Q 2963 2466 3280 2130 
Q 3597 1794 3597 1259 
Q 3597 606 3158 257 
Q 2719 -91 1894 -91 
Q 1528 -91 1179 -12 
Q 831 66 488 225 
L 488 1131 
L 838 1131 
Q 869 681 1141 450 
Q 1413 219 1906 219 
Q 2384 219 2661 495 
Q 2938 772 2938 1253 
Q 2938 1803 2653 2086 
Q 2369 2369 1819 2369 
L 1522 2369 
L 1522 2688 
L 1678 2688 
Q 2225 2688 2498 2914 
Q 2772 3141 2772 3597 
Q 2772 4006 2547 4223 
Q 2322 4441 1900 4441 
Q 1478 4441 1245 4241 
Q 1013 4041 972 3647 
L 622 3647 
L 622 4469 
z
" transform="scale(0.015625)"/>
      </defs>
      <use xlink:href="#DejaVuSerif-45"/>
      <use xlink:href="#DejaVuSerif-6c" x="72.998047"/>
      <use xlink:href="#DejaVuSerif-65" x="104.980469"/>
      <use xlink:href="#DejaVuSerif-63" x="164.160156"/>
      <use xlink:href="#DejaVuSerif-74" x="220.166016"/>
      <use xlink:href="#DejaVuSerif-72" x="260.351562"/>
      <use xlink:href="#DejaVuSerif-6f" x="308.154297"/>
      <use xlink:href="#DejaVuSerif-6e" x="368.359375"/>
      <use xlink:href="#DejaVuSerif-20" x="432.763672"/>
      <use xlink:href="#DejaVuSerif-33" x="464.550781"/>
     </g>
    </g>
    <g id="line2d_42">
     <path d="M 686.693864 442.42 
L 702.693864 442.42 
L 718.693864 442.42 
" style="fill: none; stroke-dasharray: 3,4.95; stroke-dashoffset: 0; stroke: #d62728; stroke-width: 3"/>
    </g>
    <g id="text_17">
     <!-- Electron 4 -->
     <g transform="translate(731.493864 448.02) scale(0.16 -0.16)">
      <use xlink:href="#DejaVuSerif-45"/>
      <use xlink:href="#DejaVuSerif-6c" x="72.998047"/>
      <use xlink:href="#DejaVuSerif-65" x="104.980469"/>
      <use xlink:href="#DejaVuSerif-63" x="164.160156"/>
      <use xlink:href="#DejaVuSerif-74" x="220.166016"/>
      <use xlink:href="#DejaVuSerif-72" x="260.351562"/>
      <use xlink:href="#DejaVuSerif-6f" x="308.154297"/>
      <use xlink:href="#DejaVuSerif-6e" x="368.359375"/>
      <use xlink:href="#DejaVuSerif-20" x="432.763672"/>
      <use xlink:href="#DejaVuSerif-34" x="464.550781"/>
     </g>
    </g>
    <g id="line2d_43">
     <path d="M 686.693864 465.905 
L 702.693864 465.905 
L 718.693864 465.905 
" style="fill: none; stroke: #000000; stroke-width: 3; stroke-linecap: square"/>
    </g>
    <g id="text_18">
     <!-- Antiproton -->
     <g transform="translate(731.493864 471.505) scale(0.16 -0.16)">
      <defs>
       <path id="DejaVuSerif-41" d="M 1281 1691 
L 2994 1691 
L 2138 3909 
L 1281 1691 
z
M -38 0 
L -38 331 
L 372 331 
L 2034 4666 
L 2559 4666 
L 4225 331 
L 4684 331 
L 4684 0 
L 2988 0 
L 2988 331 
L 3506 331 
L 3116 1356 
L 1153 1356 
L 763 331 
L 1275 331 
L 1275 0 
L -38 0 
z
" transform="scale(0.015625)"/>
       <path id="DejaVuSerif-69" d="M 622 4353 
Q 622 4497 726 4603 
Q 831 4709 978 4709 
Q 1122 4709 1226 4603 
Q 1331 4497 1331 4353 
Q 1331 4206 1228 4103 
Q 1125 4000 978 4000 
Q 831 4000 726 4103 
Q 622 4206 622 4353 
z
M 1356 331 
L 1900 331 
L 1900 0 
L 231 0 
L 231 331 
L 781 331 
L 781 2988 
L 231 2988 
L 231 3322 
L 1356 3322 
L 1356 331 
z
" transform="scale(0.015625)"/>
       <path id="DejaVuSerif-70" d="M 1313 1825 
L 1313 1497 
Q 1313 897 1542 583 
Q 1772 269 2209 269 
Q 2650 269 2876 622 
Q 3103 975 3103 1663 
Q 3103 2353 2876 2703 
Q 2650 3053 2209 3053 
Q 1772 3053 1542 2737 
Q 1313 2422 1313 1825 
z
M 738 2988 
L 184 2988 
L 184 3322 
L 1313 3322 
L 1313 2803 
Q 1481 3116 1742 3264 
Q 2003 3413 2388 3413 
Q 3000 3413 3387 2928 
Q 3775 2444 3775 1663 
Q 3775 881 3387 395 
Q 3000 -91 2388 -91 
Q 2003 -91 1742 57 
Q 1481 206 1313 519 
L 1313 -997 
L 1856 -997 
L 1856 -1331 
L 184 -1331 
L 184 -997 
L 738 -997 
L 738 2988 
z
" transform="scale(0.015625)"/>
      </defs>
      <use xlink:href="#DejaVuSerif-41"/>
      <use xlink:href="#DejaVuSerif-6e" x="72.216797"/>
      <use xlink:href="#DejaVuSerif-74" x="136.621094"/>
      <use xlink:href="#DejaVuSerif-69" x="176.806641"/>
      <use xlink:href="#DejaVuSerif-70" x="208.789062"/>
      <use xlink:href="#DejaVuSerif-72" x="272.802734"/>
      <use xlink:href="#DejaVuSerif-6f" x="320.605469"/>
      <use xlink:href="#DejaVuSerif-74" x="380.810547"/>
      <use xlink:href="#DejaVuSerif-6f" x="420.996094"/>
      <use xlink:href="#DejaVuSerif-6e" x="481.201172"/>
     </g>
    </g>
   </g>
  </g>
 </g>
 <defs>
  <clipPath id="p4e2a7984de">
   <rect x="114.07" y="28.08" width="719.121364" height="461.1525"/>
  </clipPath>
 </defs>
</svg>
