<?xml version="1.0" encoding="utf-8" standalone="no"?>
<!DOCTYPE svg PUBLIC "-//W3C//DTD SVG 1.1//EN"
  "http://www.w3.org/Graphics/SVG/1.1/DTD/svg11.dtd">
<svg xmlns:xlink="http://www.w3.org/1999/xlink" width="864pt" height="576pt" viewBox="0 0 864 576" xmlns="http://www.w3.org/2000/svg" version="1.1">
 <metadata>
  <rdf:RDF xmlns:dc="http://purl.org/dc/elements/1.1/" xmlns:cc="http://creativecommons.org/ns#" xmlns:rdf="http://www.w3.org/1999/02/22-rdf-syntax-ns#">
   <cc:Work>
    <dc:type rdf:resource="http://purl.org/dc/dcmitype/StillImage"/>
    <dc:date>2025-06-12T16:31:02.211665</dc:date>
    <dc:format>image/svg+xml</dc:format>
    <dc:creator>
     <cc:Agent>
      <dc:title>Matplotlib v3.7.2, https://matplotlib.org/</dc:title>
     </cc:Agent>
    </dc:creator>
   </cc:Work>
  </rdf:RDF>
 </metadata>
 <defs>
  <style type="text/css">*{stroke-linejoin: round; stroke-linecap: butt}</style>
 </defs>
 <g id="figure_1">
  <g id="patch_1">
   <path d="M 0 576 
L 864 576 
L 864 0 
L 0 0 
z
" style="fill: #ffffff"/>
  </g>
  <g id="axes_1">
   <g id="patch_2">
    <path d="M 147.28 489.2325 
L 833.191364 489.2325 
L 833.191364 28.08 
L 147.28 28.08 
z
" style="fill: #ffffff"/>
   </g>
   <g id="matplotlib.axis_1">
    <g id="xtick_1">
     <g id="line2d_1">
      <path d="M 178.457789 489.2325 
L 178.457789 28.08 
" clip-path="url(#p6327ece909)" style="fill: none; stroke-dasharray: 3.7,1.6; stroke-dashoffset: 0; stroke: #b0b0b0; stroke-opacity: 0.5"/>
     </g>
     <g id="line2d_2">
      <defs>
       <path id="md341a59a72" d="M 0 0 
L 0 -10 
" style="stroke: #000000; stroke-width: 2"/>
      </defs>
      <g>
       <use xlink:href="#md341a59a72" x="178.457789" y="489.2325" style="stroke: #000000; stroke-width: 2"/>
      </g>
     </g>
     <g id="line2d_3">
      <defs>
       <path id="m2df00c4fff" d="M 0 0 
L 0 10 
" style="stroke: #000000; stroke-width: 2"/>
      </defs>
      <g>
       <use xlink:href="#m2df00c4fff" x="178.457789" y="28.08" style="stroke: #000000; stroke-width: 2"/>
      </g>
     </g>
     <g id="text_1">
      <!-- 0 -->
      <g transform="translate(170.186539 512.488438) scale(0.26 -0.26)">
       <defs>
        <path id="DejaVuSerif-30" d="M 2034 219 
Q 2513 219 2750 744 
Q 2988 1269 2988 2328 
Q 2988 3391 2750 3916 
Q 2513 4441 2034 4441 
Q 1556 4441 1318 3916 
Q 1081 3391 1081 2328 
Q 1081 1269 1318 744 
Q 1556 219 2034 219 
z
M 2034 -91 
Q 1275 -91 848 546 
Q 422 1184 422 2328 
Q 422 3475 848 4112 
Q 1275 4750 2034 4750 
Q 2797 4750 3222 4112 
Q 3647 3475 3647 2328 
Q 3647 1184 3222 546 
Q 2797 -91 2034 -91 
z
" transform="scale(0.015625)"/>
       </defs>
       <use xlink:href="#DejaVuSerif-30"/>
      </g>
     </g>
    </g>
    <g id="xtick_2">
     <g id="line2d_4">
      <path d="M 303.168946 489.2325 
L 303.168946 28.08 
" clip-path="url(#p6327ece909)" style="fill: none; stroke-dasharray: 3.7,1.6; stroke-dashoffset: 0; stroke: #b0b0b0; stroke-opacity: 0.5"/>
     </g>
     <g id="line2d_5">
      <g>
       <use xlink:href="#md341a59a72" x="303.168946" y="489.2325" style="stroke: #000000; stroke-width: 2"/>
      </g>
     </g>
     <g id="line2d_6">
      <g>
       <use xlink:href="#m2df00c4fff" x="303.168946" y="28.08" style="stroke: #000000; stroke-width: 2"/>
      </g>
     </g>
     <g id="text_2">
      <!-- 500 -->
      <g transform="translate(278.355196 512.488438) scale(0.26 -0.26)">
       <defs>
        <path id="DejaVuSerif-35" d="M 3219 4666 
L 3219 4153 
L 1081 4153 
L 1081 2816 
Q 1244 2928 1461 2984 
Q 1678 3041 1947 3041 
Q 2703 3041 3140 2622 
Q 3578 2203 3578 1478 
Q 3578 738 3136 323 
Q 2694 -91 1894 -91 
Q 1572 -91 1234 -12 
Q 897 66 544 225 
L 544 1131 
L 897 1131 
Q 925 688 1179 453 
Q 1434 219 1894 219 
Q 2388 219 2653 544 
Q 2919 869 2919 1478 
Q 2919 2084 2655 2407 
Q 2391 2731 1894 2731 
Q 1613 2731 1398 2631 
Q 1184 2531 1019 2322 
L 750 2322 
L 750 4666 
L 3219 4666 
z
" transform="scale(0.015625)"/>
       </defs>
       <use xlink:href="#DejaVuSerif-35"/>
       <use xlink:href="#DejaVuSerif-30" x="63.623047"/>
       <use xlink:href="#DejaVuSerif-30" x="127.246094"/>
      </g>
     </g>
    </g>
    <g id="xtick_3">
     <g id="line2d_7">
      <path d="M 427.880103 489.2325 
L 427.880103 28.08 
" clip-path="url(#p6327ece909)" style="fill: none; stroke-dasharray: 3.7,1.6; stroke-dashoffset: 0; stroke: #b0b0b0; stroke-opacity: 0.5"/>
     </g>
     <g id="line2d_8">
      <g>
       <use xlink:href="#md341a59a72" x="427.880103" y="489.2325" style="stroke: #000000; stroke-width: 2"/>
      </g>
     </g>
     <g id="line2d_9">
      <g>
       <use xlink:href="#m2df00c4fff" x="427.880103" y="28.08" style="stroke: #000000; stroke-width: 2"/>
      </g>
     </g>
     <g id="text_3">
      <!-- 1000 -->
      <g transform="translate(394.795103 512.488438) scale(0.26 -0.26)">
       <defs>
        <path id="DejaVuSerif-31" d="M 909 0 
L 909 331 
L 1722 331 
L 1722 4213 
L 781 3603 
L 781 4013 
L 1919 4750 
L 2350 4750 
L 2350 331 
L 3163 331 
L 3163 0 
L 909 0 
z
" transform="scale(0.015625)"/>
       </defs>
       <use xlink:href="#DejaVuSerif-31"/>
       <use xlink:href="#DejaVuSerif-30" x="63.623047"/>
       <use xlink:href="#DejaVuSerif-30" x="127.246094"/>
       <use xlink:href="#DejaVuSerif-30" x="190.869141"/>
      </g>
     </g>
    </g>
    <g id="xtick_4">
     <g id="line2d_10">
      <path d="M 552.59126 489.2325 
L 552.59126 28.08 
" clip-path="url(#p6327ece909)" style="fill: none; stroke-dasharray: 3.7,1.6; stroke-dashoffset: 0; stroke: #b0b0b0; stroke-opacity: 0.5"/>
     </g>
     <g id="line2d_11">
      <g>
       <use xlink:href="#md341a59a72" x="552.59126" y="489.2325" style="stroke: #000000; stroke-width: 2"/>
      </g>
     </g>
     <g id="line2d_12">
      <g>
       <use xlink:href="#m2df00c4fff" x="552.59126" y="28.08" style="stroke: #000000; stroke-width: 2"/>
      </g>
     </g>
     <g id="text_4">
      <!-- 1500 -->
      <g transform="translate(519.50626 512.488438) scale(0.26 -0.26)">
       <use xlink:href="#DejaVuSerif-31"/>
       <use xlink:href="#DejaVuSerif-35" x="63.623047"/>
       <use xlink:href="#DejaVuSerif-30" x="127.246094"/>
       <use xlink:href="#DejaVuSerif-30" x="190.869141"/>
      </g>
     </g>
    </g>
    <g id="xtick_5">
     <g id="line2d_13">
      <path d="M 677.302417 489.2325 
L 677.302417 28.08 
" clip-path="url(#p6327ece909)" style="fill: none; stroke-dasharray: 3.7,1.6; stroke-dashoffset: 0; stroke: #b0b0b0; stroke-opacity: 0.5"/>
     </g>
     <g id="line2d_14">
      <g>
       <use xlink:href="#md341a59a72" x="677.302417" y="489.2325" style="stroke: #000000; stroke-width: 2"/>
      </g>
     </g>
     <g id="line2d_15">
      <g>
       <use xlink:href="#m2df00c4fff" x="677.302417" y="28.08" style="stroke: #000000; stroke-width: 2"/>
      </g>
     </g>
     <g id="text_5">
      <!-- 2000 -->
      <g transform="translate(644.217417 512.488438) scale(0.26 -0.26)">
       <defs>
        <path id="DejaVuSerif-32" d="M 819 3553 
L 469 3553 
L 469 4384 
Q 803 4563 1142 4656 
Q 1481 4750 1806 4750 
Q 2534 4750 2956 4397 
Q 3378 4044 3378 3438 
Q 3378 2753 2422 1800 
Q 2347 1728 2309 1691 
L 1131 513 
L 3078 513 
L 3078 1088 
L 3444 1088 
L 3444 0 
L 434 0 
L 434 341 
L 1850 1753 
Q 2319 2222 2519 2614 
Q 2719 3006 2719 3438 
Q 2719 3909 2473 4175 
Q 2228 4441 1797 4441 
Q 1350 4441 1106 4219 
Q 863 3997 819 3553 
z
" transform="scale(0.015625)"/>
       </defs>
       <use xlink:href="#DejaVuSerif-32"/>
       <use xlink:href="#DejaVuSerif-30" x="63.623047"/>
       <use xlink:href="#DejaVuSerif-30" x="127.246094"/>
       <use xlink:href="#DejaVuSerif-30" x="190.869141"/>
      </g>
     </g>
    </g>
    <g id="xtick_6">
     <g id="line2d_16">
      <path d="M 802.013574 489.2325 
L 802.013574 28.08 
" clip-path="url(#p6327ece909)" style="fill: none; stroke-dasharray: 3.7,1.6; stroke-dashoffset: 0; stroke: #b0b0b0; stroke-opacity: 0.5"/>
     </g>
     <g id="line2d_17">
      <g>
       <use xlink:href="#md341a59a72" x="802.013574" y="489.2325" style="stroke: #000000; stroke-width: 2"/>
      </g>
     </g>
     <g id="line2d_18">
      <g>
       <use xlink:href="#m2df00c4fff" x="802.013574" y="28.08" style="stroke: #000000; stroke-width: 2"/>
      </g>
     </g>
     <g id="text_6">
      <!-- 2500 -->
      <g transform="translate(768.928574 512.488438) scale(0.26 -0.26)">
       <use xlink:href="#DejaVuSerif-32"/>
       <use xlink:href="#DejaVuSerif-35" x="63.623047"/>
       <use xlink:href="#DejaVuSerif-30" x="127.246094"/>
       <use xlink:href="#DejaVuSerif-30" x="190.869141"/>
      </g>
     </g>
    </g>
    <g id="text_7">
     <!-- $t$ (a.u.) -->
     <g transform="translate(446.815682 541.651562) scale(0.26 -0.26)">
      <defs>
       <path id="Cmmi10-74" d="M 397 519 
Q 397 613 416 697 
L 878 2534 
L 206 2534 
Q 141 2534 141 2619 
Q 166 2759 225 2759 
L 934 2759 
L 1191 3803 
Q 1216 3888 1291 3947 
Q 1366 4006 1459 4006 
Q 1541 4006 1595 3957 
Q 1650 3909 1650 3828 
Q 1650 3809 1648 3798 
Q 1647 3788 1644 3775 
L 1388 2759 
L 2047 2759 
Q 2113 2759 2113 2675 
Q 2109 2659 2100 2621 
Q 2091 2584 2075 2559 
Q 2059 2534 2028 2534 
L 1331 2534 
L 872 684 
Q 825 503 825 372 
Q 825 97 1013 97 
Q 1294 97 1511 361 
Q 1728 625 1844 941 
Q 1869 978 1894 978 
L 1972 978 
Q 1997 978 2012 961 
Q 2028 944 2028 922 
Q 2028 909 2022 903 
Q 1881 516 1612 222 
Q 1344 -72 997 -72 
Q 744 -72 570 93 
Q 397 259 397 519 
z
" transform="scale(0.015625)"/>
       <path id="DejaVuSerif-20" transform="scale(0.015625)"/>
       <path id="DejaVuSerif-28" d="M 2041 -997 
Q 1281 -656 893 83 
Q 506 822 506 1931 
Q 506 3044 893 3783 
Q 1281 4522 2041 4863 
L 2041 4556 
Q 1559 4225 1350 3623 
Q 1141 3022 1141 1931 
Q 1141 844 1350 242 
Q 1559 -359 2041 -691 
L 2041 -997 
z
" transform="scale(0.015625)"/>
       <path id="DejaVuSerif-61" d="M 2547 1044 
L 2547 1747 
L 1806 1747 
Q 1378 1747 1168 1562 
Q 959 1378 959 997 
Q 959 650 1171 447 
Q 1384 244 1747 244 
Q 2106 244 2326 466 
Q 2547 688 2547 1044 
z
M 3122 2075 
L 3122 331 
L 3634 331 
L 3634 0 
L 2547 0 
L 2547 359 
Q 2356 128 2106 18 
Q 1856 -91 1522 -91 
Q 969 -91 644 203 
Q 319 497 319 997 
Q 319 1513 691 1797 
Q 1063 2081 1741 2081 
L 2547 2081 
L 2547 2309 
Q 2547 2688 2317 2895 
Q 2088 3103 1672 3103 
Q 1328 3103 1125 2947 
Q 922 2791 872 2484 
L 575 2484 
L 575 3156 
Q 875 3284 1158 3348 
Q 1441 3413 1709 3413 
Q 2400 3413 2761 3070 
Q 3122 2728 3122 2075 
z
" transform="scale(0.015625)"/>
       <path id="DejaVuSerif-2e" d="M 603 325 
Q 603 500 722 622 
Q 841 744 1019 744 
Q 1191 744 1312 622 
Q 1434 500 1434 325 
Q 1434 153 1312 31 
Q 1191 -91 1019 -91 
Q 841 -91 722 29 
Q 603 150 603 325 
z
" transform="scale(0.015625)"/>
       <path id="DejaVuSerif-75" d="M 2266 3322 
L 3341 3322 
L 3341 331 
L 3884 331 
L 3884 0 
L 2766 0 
L 2766 588 
Q 2606 256 2353 82 
Q 2100 -91 1766 -91 
Q 1213 -91 952 223 
Q 691 538 691 1209 
L 691 2988 
L 172 2988 
L 172 3322 
L 1269 3322 
L 1269 1388 
Q 1269 781 1417 556 
Q 1566 331 1947 331 
Q 2347 331 2556 625 
Q 2766 919 2766 1478 
L 2766 2988 
L 2266 2988 
L 2266 3322 
z
" transform="scale(0.015625)"/>
       <path id="DejaVuSerif-29" d="M 453 -997 
L 453 -691 
Q 934 -359 1145 242 
Q 1356 844 1356 1931 
Q 1356 3022 1145 3623 
Q 934 4225 453 4556 
L 453 4863 
Q 1216 4522 1603 3783 
Q 1991 3044 1991 1931 
Q 1991 822 1603 83 
Q 1216 -656 453 -997 
z
" transform="scale(0.015625)"/>
      </defs>
      <use xlink:href="#Cmmi10-74" transform="translate(0 0.015625)"/>
      <use xlink:href="#DejaVuSerif-20" transform="translate(36.083984 0.015625)"/>
      <use xlink:href="#DejaVuSerif-28" transform="translate(67.871094 0.015625)"/>
      <use xlink:href="#DejaVuSerif-61" transform="translate(106.884766 0.015625)"/>
      <use xlink:href="#DejaVuSerif-2e" transform="translate(166.503906 0.015625)"/>
      <use xlink:href="#DejaVuSerif-75" transform="translate(198.291016 0.015625)"/>
      <use xlink:href="#DejaVuSerif-2e" transform="translate(262.695312 0.015625)"/>
      <use xlink:href="#DejaVuSerif-29" transform="translate(294.482422 0.015625)"/>
     </g>
    </g>
   </g>
   <g id="matplotlib.axis_2">
    <g id="ytick_1">
     <g id="line2d_19">
      <path d="M 147.28 420.62634 
L 833.191364 420.62634 
" clip-path="url(#p6327ece909)" style="fill: none; stroke-dasharray: 3.7,1.6; stroke-dashoffset: 0; stroke: #b0b0b0; stroke-opacity: 0.5"/>
     </g>
     <g id="line2d_20">
      <defs>
       <path id="m93b3628f9b" d="M 0 0 
L 10 0 
" style="stroke: #000000; stroke-width: 2"/>
      </defs>
      <g>
       <use xlink:href="#m93b3628f9b" x="147.28" y="420.62634" style="stroke: #000000; stroke-width: 2"/>
      </g>
     </g>
     <g id="line2d_21">
      <defs>
       <path id="mc55556c5cf" d="M 0 0 
L -10 0 
" style="stroke: #000000; stroke-width: 2"/>
      </defs>
      <g>
       <use xlink:href="#mc55556c5cf" x="833.191364" y="420.62634" style="stroke: #000000; stroke-width: 2"/>
      </g>
     </g>
     <g id="text_8">
      <!-- 2 -->
      <g transform="translate(127.2375 430.504308) scale(0.26 -0.26)">
       <use xlink:href="#DejaVuSerif-32"/>
      </g>
     </g>
    </g>
    <g id="ytick_2">
     <g id="line2d_22">
      <path d="M 147.28 335.923596 
L 833.191364 335.923596 
" clip-path="url(#p6327ece909)" style="fill: none; stroke-dasharray: 3.7,1.6; stroke-dashoffset: 0; stroke: #b0b0b0; stroke-opacity: 0.5"/>
     </g>
     <g id="line2d_23">
      <g>
       <use xlink:href="#m93b3628f9b" x="147.28" y="335.923596" style="stroke: #000000; stroke-width: 2"/>
      </g>
     </g>
     <g id="line2d_24">
      <g>
       <use xlink:href="#mc55556c5cf" x="833.191364" y="335.923596" style="stroke: #000000; stroke-width: 2"/>
      </g>
     </g>
     <g id="text_9">
      <!-- 4 -->
      <g transform="translate(127.2375 345.801565) scale(0.26 -0.26)">
       <defs>
        <path id="DejaVuSerif-34" d="M 2234 1581 
L 2234 4063 
L 641 1581 
L 2234 1581 
z
M 3609 0 
L 1484 0 
L 1484 331 
L 2234 331 
L 2234 1247 
L 197 1247 
L 197 1588 
L 2241 4750 
L 2859 4750 
L 2859 1581 
L 3750 1581 
L 3750 1247 
L 2859 1247 
L 2859 331 
L 3609 331 
L 3609 0 
z
" transform="scale(0.015625)"/>
       </defs>
       <use xlink:href="#DejaVuSerif-34"/>
      </g>
     </g>
    </g>
    <g id="ytick_3">
     <g id="line2d_25">
      <path d="M 147.28 251.220853 
L 833.191364 251.220853 
" clip-path="url(#p6327ece909)" style="fill: none; stroke-dasharray: 3.7,1.6; stroke-dashoffset: 0; stroke: #b0b0b0; stroke-opacity: 0.5"/>
     </g>
     <g id="line2d_26">
      <g>
       <use xlink:href="#m93b3628f9b" x="147.28" y="251.220853" style="stroke: #000000; stroke-width: 2"/>
      </g>
     </g>
     <g id="line2d_27">
      <g>
       <use xlink:href="#mc55556c5cf" x="833.191364" y="251.220853" style="stroke: #000000; stroke-width: 2"/>
      </g>
     </g>
     <g id="text_10">
      <!-- 6 -->
      <g transform="translate(127.2375 261.098821) scale(0.26 -0.26)">
       <defs>
        <path id="DejaVuSerif-36" d="M 2094 219 
Q 2534 219 2771 542 
Q 3009 866 3009 1472 
Q 3009 2078 2771 2401 
Q 2534 2725 2094 2725 
Q 1647 2725 1412 2412 
Q 1178 2100 1178 1509 
Q 1178 888 1415 553 
Q 1653 219 2094 219 
z
M 1075 2569 
Q 1288 2803 1556 2918 
Q 1825 3034 2163 3034 
Q 2859 3034 3264 2615 
Q 3669 2197 3669 1472 
Q 3669 763 3233 336 
Q 2797 -91 2069 -91 
Q 1278 -91 853 498 
Q 428 1088 428 2181 
Q 428 3406 931 4078 
Q 1434 4750 2350 4750 
Q 2597 4750 2869 4703 
Q 3141 4656 3425 4563 
L 3425 3794 
L 3072 3794 
Q 3034 4109 2831 4275 
Q 2628 4441 2284 4441 
Q 1678 4441 1381 3981 
Q 1084 3522 1075 2569 
z
" transform="scale(0.015625)"/>
       </defs>
       <use xlink:href="#DejaVuSerif-36"/>
      </g>
     </g>
    </g>
    <g id="ytick_4">
     <g id="line2d_28">
      <path d="M 147.28 166.518109 
L 833.191364 166.518109 
" clip-path="url(#p6327ece909)" style="fill: none; stroke-dasharray: 3.7,1.6; stroke-dashoffset: 0; stroke: #b0b0b0; stroke-opacity: 0.5"/>
     </g>
     <g id="line2d_29">
      <g>
       <use xlink:href="#m93b3628f9b" x="147.28" y="166.518109" style="stroke: #000000; stroke-width: 2"/>
      </g>
     </g>
     <g id="line2d_30">
      <g>
       <use xlink:href="#mc55556c5cf" x="833.191364" y="166.518109" style="stroke: #000000; stroke-width: 2"/>
      </g>
     </g>
     <g id="text_11">
      <!-- 8 -->
      <g transform="translate(127.2375 176.396078) scale(0.26 -0.26)">
       <defs>
        <path id="DejaVuSerif-38" d="M 2981 1275 
Q 2981 1775 2732 2051 
Q 2484 2328 2034 2328 
Q 1584 2328 1336 2051 
Q 1088 1775 1088 1275 
Q 1088 772 1336 495 
Q 1584 219 2034 219 
Q 2484 219 2732 495 
Q 2981 772 2981 1275 
z
M 2853 3541 
Q 2853 3966 2637 4203 
Q 2422 4441 2034 4441 
Q 1650 4441 1433 4203 
Q 1216 3966 1216 3541 
Q 1216 3113 1433 2875 
Q 1650 2638 2034 2638 
Q 2422 2638 2637 2875 
Q 2853 3113 2853 3541 
z
M 2516 2484 
Q 3047 2413 3344 2092 
Q 3641 1772 3641 1275 
Q 3641 619 3225 264 
Q 2809 -91 2034 -91 
Q 1263 -91 845 264 
Q 428 619 428 1275 
Q 428 1772 725 2092 
Q 1022 2413 1556 2484 
Q 1084 2569 832 2842 
Q 581 3116 581 3541 
Q 581 4103 968 4426 
Q 1356 4750 2034 4750 
Q 2713 4750 3100 4426 
Q 3488 4103 3488 3541 
Q 3488 3116 3236 2842 
Q 2984 2569 2516 2484 
z
" transform="scale(0.015625)"/>
       </defs>
       <use xlink:href="#DejaVuSerif-38"/>
      </g>
     </g>
    </g>
    <g id="ytick_5">
     <g id="line2d_31">
      <path d="M 147.28 81.815366 
L 833.191364 81.815366 
" clip-path="url(#p6327ece909)" style="fill: none; stroke-dasharray: 3.7,1.6; stroke-dashoffset: 0; stroke: #b0b0b0; stroke-opacity: 0.5"/>
     </g>
     <g id="line2d_32">
      <g>
       <use xlink:href="#m93b3628f9b" x="147.28" y="81.815366" style="stroke: #000000; stroke-width: 2"/>
      </g>
     </g>
     <g id="line2d_33">
      <g>
       <use xlink:href="#mc55556c5cf" x="833.191364" y="81.815366" style="stroke: #000000; stroke-width: 2"/>
      </g>
     </g>
     <g id="text_12">
      <!-- 10 -->
      <g transform="translate(110.695 91.693335) scale(0.26 -0.26)">
       <use xlink:href="#DejaVuSerif-31"/>
       <use xlink:href="#DejaVuSerif-30" x="63.623047"/>
      </g>
     </g>
    </g>
    <g id="text_13">
     <!-- $|\vec{r}_i|$ (a.u.) -->
     <g transform="translate(100.195 314.94625) rotate(-90) scale(0.26 -0.26)">
      <defs>
       <path id="Cmsy10-6a" d="M 763 -1484 
L 763 4684 
Q 763 4734 800 4767 
Q 838 4800 891 4800 
Q 938 4800 978 4767 
Q 1019 4734 1019 4684 
L 1019 -1484 
Q 1019 -1534 978 -1567 
Q 938 -1600 891 -1600 
Q 838 -1600 800 -1567 
Q 763 -1534 763 -1484 
z
" transform="scale(0.015625)"/>
       <path id="Cmmi10-7e" d="M 1281 3809 
Q 1231 3809 1198 3846 
Q 1166 3884 1166 3938 
Q 1166 3984 1198 4023 
Q 1231 4063 1281 4063 
L 3547 4063 
Q 3378 4291 3378 4441 
Q 3378 4497 3417 4533 
Q 3456 4569 3506 4569 
Q 3613 4569 3634 4469 
Q 3697 4194 3938 4044 
Q 4000 4003 4000 3938 
Q 4000 3859 3938 3828 
Q 3575 3647 3353 3347 
Q 3328 3303 3256 3303 
Q 3209 3303 3168 3340 
Q 3128 3378 3128 3431 
Q 3128 3547 3438 3809 
L 1281 3809 
z
" transform="scale(0.015625)"/>
       <path id="Cmmi10-72" d="M 494 109 
Q 494 147 500 166 
L 978 2075 
Q 1025 2253 1025 2388 
Q 1025 2663 838 2663 
Q 638 2663 541 2423 
Q 444 2184 353 1819 
Q 353 1800 334 1789 
Q 316 1778 300 1778 
L 225 1778 
Q 203 1778 187 1801 
Q 172 1825 172 1844 
Q 241 2122 305 2315 
Q 369 2509 505 2668 
Q 641 2828 844 2828 
Q 1066 2828 1233 2700 
Q 1400 2572 1441 2363 
Q 1603 2575 1811 2701 
Q 2019 2828 2266 2828 
Q 2469 2828 2623 2709 
Q 2778 2591 2778 2388 
Q 2778 2225 2676 2104 
Q 2575 1984 2406 1984 
Q 2303 1984 2233 2048 
Q 2163 2113 2163 2216 
Q 2163 2356 2266 2467 
Q 2369 2578 2503 2578 
Q 2400 2663 2253 2663 
Q 1978 2663 1775 2467 
Q 1572 2272 1409 1972 
L 953 141 
Q 931 53 854 -9 
Q 778 -72 684 -72 
Q 606 -72 550 -22 
Q 494 28 494 109 
z
" transform="scale(0.015625)"/>
       <path id="Cmmi10-69" d="M 500 459 
Q 500 578 550 709 
L 1069 2088 
Q 1153 2322 1153 2472 
Q 1153 2663 1013 2663 
Q 759 2663 595 2402 
Q 431 2141 353 1819 
Q 341 1778 300 1778 
L 225 1778 
Q 172 1778 172 1838 
L 172 1856 
Q 275 2238 487 2533 
Q 700 2828 1025 2828 
Q 1253 2828 1411 2678 
Q 1569 2528 1569 2297 
Q 1569 2178 1516 2047 
L 997 672 
Q 909 459 909 288 
Q 909 97 1056 97 
Q 1306 97 1473 364 
Q 1641 631 1709 941 
Q 1722 978 1759 978 
L 1838 978 
Q 1863 978 1878 961 
Q 1894 944 1894 922 
Q 1894 916 1888 903 
Q 1800 541 1583 234 
Q 1366 -72 1044 -72 
Q 819 -72 659 83 
Q 500 238 500 459 
z
M 1222 3878 
Q 1222 4013 1334 4122 
Q 1447 4231 1581 4231 
Q 1691 4231 1761 4164 
Q 1831 4097 1831 3994 
Q 1831 3850 1717 3742 
Q 1603 3634 1466 3634 
Q 1363 3634 1292 3704 
Q 1222 3775 1222 3878 
z
" transform="scale(0.015625)"/>
      </defs>
      <use xlink:href="#Cmsy10-6a" transform="translate(0 0.53125)"/>
      <use xlink:href="#Cmmi10-7e" transform="translate(15.746094 5.609375)"/>
      <use xlink:href="#Cmmi10-72" transform="translate(27.685547 0.53125)"/>
      <use xlink:href="#Cmmi10-69" transform="translate(77.266875 -16.475) scale(0.7)"/>
      <use xlink:href="#Cmsy10-6a" transform="translate(107.740898 0.53125)"/>
      <use xlink:href="#DejaVuSerif-20" transform="translate(135.426445 0.53125)"/>
      <use xlink:href="#DejaVuSerif-28" transform="translate(167.213555 0.53125)"/>
      <use xlink:href="#DejaVuSerif-61" transform="translate(206.227227 0.53125)"/>
      <use xlink:href="#DejaVuSerif-2e" transform="translate(265.846367 0.53125)"/>
      <use xlink:href="#DejaVuSerif-75" transform="translate(297.633477 0.53125)"/>
      <use xlink:href="#DejaVuSerif-2e" transform="translate(362.037773 0.53125)"/>
      <use xlink:href="#DejaVuSerif-29" transform="translate(393.824883 0.53125)"/>
     </g>
    </g>
   </g>
   <g id="line2d_34">
    <path d="M 178.457789 494.46594 
L 179.071892 -1 
L 179.071892 -1 
" clip-path="url(#p6327ece909)" style="fill: none; stroke: #1f77b4; stroke-width: 3; stroke-linecap: square"/>
   </g>
   <g id="line2d_35">
    <path d="M 178.457789 494.465944 
L 178.823606 -1 
L 178.823606 -1 
" clip-path="url(#p6327ece909)" style="fill: none; stroke-dasharray: 11.1,4.8; stroke-dashoffset: 0; stroke: #ff7f0e; stroke-width: 3"/>
   </g>
   <g id="line2d_36">
    <path d="M 178.457789 465.275172 
L 178.970983 -1 
L 178.970983 -1 
" clip-path="url(#p6327ece909)" style="fill: none; stroke-dasharray: 19.2,4.8,3,4.8; stroke-dashoffset: 0; stroke: #2ca02c; stroke-width: 3"/>
   </g>
   <g id="line2d_37">
    <path d="M 178.457789 465.275164 
L 179.081969 465.249292 
L 179.706149 482.251949 
L 180.330329 461.358135 
L 180.954509 458.135278 
L 181.578689 469.759926 
L 182.202869 492.275785 
L 182.827049 454.627654 
L 183.451229 461.836647 
L 184.699589 488.270687 
L 185.323769 456.15814 
L 185.947949 466.107971 
L 186.572129 481.228416 
L 187.196309 463.887023 
L 187.820489 457.851251 
L 188.444669 469.236856 
L 189.068849 489.317878 
L 189.693029 455.301309 
L 190.317209 459.787002 
L 190.941389 471.587069 
L 191.565569 495.618407 
L 192.189748 454.913008 
L 192.813928 462.60257 
L 193.438108 474.242587 
L 194.062288 499.419557 
L 194.686468 455.328537 
L 195.310648 464.449137 
L 195.934828 478.204764 
L 196.559008 486.000607 
L 197.183188 455.670494 
L 197.807368 464.824832 
L 198.431548 480.494472 
L 199.679908 456.410792 
L 200.304088 464.565969 
L 200.928268 479.611057 
L 201.552448 465.872767 
L 202.176628 457.269037 
L 202.800808 465.054255 
L 203.424988 478.121392 
L 204.049168 472.934836 
L 204.673348 456.756526 
L 205.297528 466.002182 
L 205.921708 478.38563 
L 206.545888 485.911747 
L 207.170068 455.689663 
L 207.794248 464.627224 
L 209.042608 494.424326 
L 209.666788 454.907694 
L 210.290967 461.94669 
L 210.915147 474.796421 
L 211.539327 499.149203 
L 212.163507 455.191603 
L 212.787687 459.944503 
L 213.411867 470.131082 
L 214.036047 489.40461 
L 214.660227 455.087497 
L 215.284407 459.448363 
L 215.908587 466.930117 
L 216.532767 481.062642 
L 217.156947 463.78387 
L 217.781127 457.504931 
L 218.405307 465.905023 
L 219.029487 475.962088 
L 219.653667 498.021593 
L 220.277847 454.745968 
L 220.902027 462.495649 
L 221.526207 473.686118 
L 222.150387 487.317773 
L 222.774567 459.290818 
L 223.398747 458.0066 
L 224.022927 468.064652 
L 224.647107 483.162973 
L 225.271287 483.131626 
L 225.895467 455.01416 
L 226.519647 462.001689 
L 227.143827 474.613581 
L 227.768006 496.756851 
L 228.392186 456.760251 
L 229.016366 457.750529 
L 229.640546 466.176243 
L 230.264726 481.517732 
L 230.888906 466.014663 
L 231.513086 456.573562 
L 232.137266 460.83567 
L 232.761446 470.33201 
L 233.385626 489.155162 
L 234.009806 455.135857 
L 234.633986 459.288538 
L 235.258166 464.207042 
L 235.882346 474.379698 
L 236.506526 497.82728 
L 237.130706 454.825928 
L 238.379066 467.991031 
L 239.003246 478.204695 
L 239.627426 479.476326 
L 240.251606 455.980459 
L 242.124146 482.353851 
L 242.748326 464.989042 
L 243.372506 457.196262 
L 243.996686 467.189476 
L 244.620866 480.233244 
L 245.245046 488.565621 
L 245.869225 457.968208 
L 246.493405 458.38645 
L 247.117585 469.647608 
L 247.741765 488.178016 
L 248.365945 481.1535 
L 248.990125 455.185644 
L 249.614305 459.618127 
L 250.238485 471.818131 
L 250.862665 496.063449 
L 251.486845 455.315665 
L 252.735205 461.633605 
L 253.359385 474.588652 
L 253.983565 480.714829 
L 254.607745 456.434532 
L 255.231925 467.232672 
L 255.856105 473.176622 
L 256.480285 480.39347 
L 257.104465 459.543493 
L 257.728645 458.810693 
L 258.352825 473.074754 
L 258.977005 496.659128 
L 259.601185 499.274171 
L 260.225365 454.424423 
L 260.849545 465.59988 
L 261.473725 489.01218 
L 262.097905 498.986916 
L 262.722085 454.708956 
L 263.970444 466.454655 
L 264.594624 483.230082 
L 265.218804 456.360641 
L 265.842984 453.975895 
L 266.467164 468.282818 
L 267.091344 463.313063 
L 267.715524 486.345694 
L 268.339704 459.105359 
L 268.963884 472.968117 
L 269.588064 481.299359 
L 270.212244 449.928123 
L 270.836424 466.619595 
L 271.460604 474.695121 
L 272.084784 488.806679 
L 272.708964 479.418476 
L 273.333144 460.286878 
L 274.581504 439.926893 
L 275.205684 456.789037 
L 275.829864 453.214749 
L 276.454044 447.009265 
L 277.078224 448.809705 
L 277.702404 447.865538 
L 278.950764 441.571828 
L 279.574944 491.288151 
L 280.199124 455.706659 
L 280.823304 462.42339 
L 281.447483 471.73702 
L 282.071663 453.24743 
L 282.695843 462.33639 
L 283.320023 492.525884 
L 283.944203 475.477288 
L 284.568383 469.50822 
L 285.192563 462.100459 
L 285.816743 458.594148 
L 286.440923 471.529741 
L 287.065103 481.038129 
L 287.689283 457.669976 
L 288.313463 451.946964 
L 288.937643 462.347002 
L 289.561823 485.175954 
L 290.186003 477.815636 
L 290.810183 467.460647 
L 291.434363 463.941773 
L 292.058543 467.217381 
L 292.682723 483.215642 
L 293.306903 475.8386 
L 293.931083 456.224218 
L 294.555263 454.023971 
L 295.179443 472.891604 
L 295.803623 476.103596 
L 296.427803 453.553157 
L 297.051983 451.110136 
L 297.676163 467.881564 
L 298.300343 487.860636 
L 298.924523 462.539453 
L 299.548702 458.98949 
L 300.172882 470.76852 
L 300.797062 485.778106 
L 301.421242 471.927942 
L 302.045422 464.920083 
L 302.669602 467.803925 
L 303.293782 479.365197 
L 303.917962 480.388173 
L 304.542142 465.414496 
L 305.166322 461.446881 
L 306.414682 485.89469 
L 307.038862 461.109752 
L 307.663042 455.148816 
L 308.911402 484.883289 
L 309.535582 455.368884 
L 310.159762 450.314094 
L 310.783942 466.030368 
L 311.408122 485.633689 
L 312.032302 455.204051 
L 312.656482 450.604542 
L 313.904842 485.741488 
L 314.529022 458.316015 
L 315.153202 455.669078 
L 315.777382 472.959119 
L 316.401562 483.282561 
L 317.025742 461.97252 
L 317.649921 460.761212 
L 318.274101 476.281735 
L 318.898281 481.948579 
L 319.522461 465.982185 
L 320.146641 464.616533 
L 320.770821 475.831769 
L 321.395001 481.759065 
L 322.019181 469.633641 
L 322.643361 465.951875 
L 323.267541 473.118954 
L 323.891721 482.815369 
L 324.515901 471.740539 
L 325.140081 464.490344 
L 325.764261 470.085489 
L 326.388441 485.242528 
L 327.012621 471.044112 
L 327.636801 461.264735 
L 328.260981 467.795647 
L 328.885161 488.918723 
L 329.509341 467.492224 
L 330.133521 457.583918 
L 330.757701 466.724801 
L 331.381881 491.810555 
L 332.006061 462.384233 
L 332.630241 454.326234 
L 333.254421 467.126976 
L 333.878601 487.854799 
L 334.502781 457.070269 
L 335.12696 451.948953 
L 335.75114 469.182433 
L 336.37532 479.192479 
L 336.9995 452.512907 
L 337.62368 450.245399 
L 338.24786 469.603058 
L 338.87204 477.739483 
L 339.49622 452.682963 
L 340.1204 452.079217 
L 340.74458 474.888941 
L 341.36876 473.796528 
L 341.99294 453.611205 
L 342.61712 456.479261 
L 343.2413 483.476553 
L 344.48966 455.28493 
L 345.11384 461.475555 
L 345.73802 489.663572 
L 346.3622 468.313064 
L 346.98638 457.671663 
L 347.61056 466.585148 
L 348.23474 489.375335 
L 348.85892 467.573617 
L 349.4831 460.494863 
L 350.10728 471.065763 
L 350.73146 485.875792 
L 351.35564 467.814015 
L 351.97982 463.331605 
L 353.228179 482.930838 
L 353.852359 468.703319 
L 354.476539 465.61349 
L 355.100719 475.200801 
L 355.724899 481.35272 
L 356.349079 469.76002 
L 356.973259 466.782063 
L 357.597439 475.018548 
L 358.221619 481.117032 
L 358.845799 470.326826 
L 359.469979 466.621037 
L 360.718339 481.875767 
L 361.342519 469.742954 
L 361.966699 465.435832 
L 363.215059 482.800219 
L 363.839239 467.743887 
L 364.463419 463.847287 
L 365.087599 475.633734 
L 365.711779 482.358037 
L 366.335959 464.664348 
L 366.960139 462.46411 
L 367.584319 478.210479 
L 368.208499 479.208309 
L 368.832679 461.157405 
L 369.456859 461.748346 
L 370.081039 482.621541 
L 370.705219 473.811018 
L 371.329398 457.827914 
L 371.953578 462.021102 
L 372.577758 489.045808 
L 373.201938 467.615499 
L 373.826118 455.095095 
L 374.450298 463.549367 
L 375.074478 494.268981 
L 375.698658 461.661198 
L 376.322838 453.222741 
L 376.947018 466.593102 
L 377.571198 486.942822 
L 378.195378 456.475257 
L 378.819558 452.383448 
L 379.443738 471.498137 
L 380.067918 476.417425 
L 380.692098 452.328463 
L 381.316278 452.568114 
L 381.940458 477.723689 
L 382.564638 469.124824 
L 383.188818 450.081792 
L 383.812998 453.209342 
L 384.437178 482.125517 
L 385.685538 450.422477 
L 386.309718 457.063606 
L 386.933898 493.338698 
L 387.558078 462.277029 
L 388.182258 451.551538 
L 388.806437 462.944676 
L 389.430617 493.096679 
L 390.054797 459.436004 
L 390.678977 453.721893 
L 391.303157 470.030263 
L 391.927337 483.209241 
L 392.551517 457.978706 
L 393.175697 456.877984 
L 393.799877 477.977193 
L 394.424057 476.164827 
L 395.048237 457.72434 
L 395.672417 460.891204 
L 396.296597 485.533123 
L 397.544957 458.50318 
L 398.169137 465.541169 
L 398.793317 489.008913 
L 399.417497 468.384334 
L 400.041677 460.126883 
L 400.665857 470.438011 
L 401.290037 486.54001 
L 401.914217 466.735628 
L 402.538397 462.355242 
L 403.162577 474.953612 
L 403.786757 482.457945 
L 404.410937 466.147008 
L 405.035117 464.865129 
L 405.659297 478.30923 
L 406.283477 479.151361 
L 406.907656 466.297634 
L 407.531836 467.257278 
L 408.156016 480.055049 
L 408.780196 476.968534 
L 409.404376 466.812641 
L 410.028556 469.140773 
L 410.652736 480.555897 
L 411.276916 475.704041 
L 411.901096 467.276362 
L 412.525276 470.319082 
L 413.149456 480.686687 
L 413.773636 474.926479 
L 414.397816 467.317352 
L 415.021996 470.926579 
L 415.646176 481.14295 
L 416.894536 466.764258 
L 417.518716 471.379681 
L 418.142896 482.14207 
L 418.767076 472.609223 
L 419.391256 465.738578 
L 420.015436 472.188345 
L 420.639616 483.278338 
L 421.263796 470.279981 
L 421.887976 464.585594 
L 423.136336 483.357264 
L 423.760516 467.267869 
L 424.384696 463.72011 
L 425.008875 476.643665 
L 425.633055 481.014007 
L 426.257235 464.023137 
L 426.881415 463.523893 
L 427.505595 480.940789 
L 428.129775 476.333032 
L 428.753955 461.021919 
L 429.378135 464.317221 
L 430.002315 486.563684 
L 430.626495 470.617705 
L 431.250675 458.639367 
L 431.874855 466.393592 
L 432.499035 490.691335 
L 433.123215 464.981705 
L 433.747395 457.147181 
L 434.371575 470.067078 
L 434.995755 486.260169 
L 435.619935 460.032816 
L 436.244115 456.747504 
L 436.868295 475.758963 
L 437.492475 477.316375 
L 438.116655 456.064078 
L 438.740835 457.618503 
L 439.365015 484.143351 
L 440.613375 453.220445 
L 441.237555 459.955333 
L 441.861735 495.2337 
L 442.485914 461.637076 
L 443.110094 451.596921 
L 443.734274 464.01117 
L 444.358454 489.069022 
L 444.982634 455.979855 
L 445.606814 451.247802 
L 446.230994 469.971334 
L 446.855174 476.864277 
L 447.479354 452.021223 
L 448.103534 451.91052 
L 448.727714 476.323493 
L 449.351894 470.047808 
L 449.976074 450.473702 
L 450.600254 453.877739 
L 451.224434 484.35519 
L 451.848614 465.083893 
L 452.472794 450.473617 
L 453.096974 458.611293 
L 453.721154 497.253857 
L 454.345334 460.308 
L 454.969514 451.565355 
L 455.593694 465.38345 
L 456.217874 487.44222 
L 456.842054 457.167946 
L 457.466234 453.985757 
L 458.090414 473.964038 
L 458.714594 477.125178 
L 459.338774 455.631625 
L 459.962954 457.716186 
L 460.587133 484.116885 
L 461.835493 455.526026 
L 462.459673 462.711494 
L 463.083853 492.131203 
L 463.708033 465.450255 
L 464.332213 456.710819 
L 464.956393 468.858825 
L 465.580573 487.944196 
L 466.204753 462.635562 
L 466.828933 459.051711 
L 467.453113 475.801321 
L 468.077293 480.510754 
L 468.701473 461.336246 
L 469.325653 462.38245 
L 469.949833 482.453412 
L 470.574013 474.836044 
L 471.198193 461.297709 
L 471.822373 466.449691 
L 472.446553 486.224972 
L 473.070733 471.005122 
L 473.694913 462.27525 
L 474.319093 470.845927 
L 474.943273 485.246366 
L 475.567453 468.693756 
L 476.191633 463.986089 
L 476.815813 474.959673 
L 477.439993 481.986788 
L 478.064172 467.558554 
L 478.688352 466.084549 
L 479.312532 478.091626 
L 479.936712 478.887955 
L 480.560892 467.23711 
L 481.185072 468.178831 
L 481.809252 479.865551 
L 482.433432 476.618201 
L 483.057612 467.333785 
L 483.681792 469.933425 
L 484.305972 480.59825 
L 484.930152 475.062872 
L 485.554332 467.44975 
L 486.178512 471.233912 
L 486.802692 480.979426 
L 488.051052 467.294147 
L 488.675232 472.271015 
L 489.299412 481.451899 
L 489.923592 472.385359 
L 490.547772 466.807208 
L 491.171952 473.467666 
L 491.796132 481.867081 
L 492.420312 470.433566 
L 493.044492 466.191385 
L 493.668672 475.29873 
L 494.292852 481.425339 
L 494.917032 467.949552 
L 495.541212 465.816375 
L 496.165391 478.149171 
L 496.789571 479.194128 
L 497.413751 465.240629 
L 498.037931 466.093026 
L 498.662111 482.136911 
L 499.286291 475.131522 
L 499.910471 462.743248 
L 500.534651 467.409625 
L 501.158831 486.434536 
L 501.783011 470.12322 
L 502.407191 460.866756 
L 503.031371 470.129725 
L 503.655551 487.362328 
L 504.279731 465.124554 
L 504.903911 459.944309 
L 505.528091 474.646519 
L 506.152271 481.934727 
L 506.776451 460.763919 
L 507.400631 460.246624 
L 508.024811 481.391914 
L 508.648991 474.021149 
L 509.273171 457.40407 
L 509.897351 462.035298 
L 510.521531 490.226547 
L 511.145711 466.514864 
L 511.769891 455.259257 
L 512.394071 465.615623 
L 513.018251 491.412671 
L 513.642431 460.242911 
L 514.26661 454.488418 
L 514.89079 471.441618 
L 515.51497 480.133575 
L 516.13915 455.408328 
L 516.76333 455.247702 
L 517.38751 480.339885 
L 518.01169 469.597295 
L 518.63587 452.069688 
L 519.26005 457.729527 
L 519.88423 493.795535 
L 520.50841 461.301067 
L 521.13259 450.278212 
L 521.75677 461.995072 
L 522.38095 490.969734 
L 523.00513 455.536423 
L 523.62931 449.886076 
L 524.87767 480.688347 
L 525.50185 452.987046 
L 526.12603 451.347062 
L 526.75021 473.918119 
L 527.37439 472.397508 
L 527.99857 451.763674 
L 528.62275 455.321357 
L 529.24693 486.618114 
L 529.87111 465.12049 
L 530.49529 451.787779 
L 531.11947 461.251985 
L 531.743649 495.67267 
L 532.367829 460.286264 
L 532.992009 453.379687 
L 534.240369 483.673943 
L 534.864549 457.559954 
L 535.488729 456.497444 
L 536.112909 478.674544 
L 536.737089 474.497978 
L 537.361269 456.624953 
L 537.985449 461.063484 
L 538.609629 488.554972 
L 539.233809 468.457282 
L 539.857989 457.256132 
L 540.482169 466.92637 
L 541.106349 489.957277 
L 541.730529 464.762707 
L 542.354709 459.253676 
L 542.978889 473.695825 
L 543.603069 483.09186 
L 544.227249 462.928346 
L 544.851429 462.376813 
L 545.475609 480.308709 
L 546.099789 476.991899 
L 546.723969 462.589573 
L 547.348149 466.266382 
L 547.972329 484.488781 
L 548.596509 472.874674 
L 549.220689 463.387571 
L 549.844868 470.379037 
L 550.469048 484.492864 
L 551.093228 470.451353 
L 551.717408 464.901316 
L 552.965768 482.176792 
L 553.589948 469.269189 
L 554.214128 466.624726 
L 554.838308 476.556582 
L 555.462488 479.874454 
L 556.086668 468.793703 
L 556.710848 468.061314 
L 557.335028 478.05355 
L 557.959208 478.27036 
L 558.583388 468.425819 
L 559.207568 468.947705 
L 559.831748 479.181502 
L 560.455928 477.050471 
L 561.080108 467.661836 
L 561.704288 469.44166 
L 562.328468 480.687475 
L 562.952648 475.463624 
L 563.576828 466.338499 
L 564.201008 470.057227 
L 564.825188 482.795146 
L 565.449368 472.85282 
L 566.073548 464.715606 
L 566.697728 471.428089 
L 567.321908 484.553938 
L 567.946087 469.195064 
L 568.570267 463.306518 
L 569.818627 483.446593 
L 570.442807 465.069261 
L 571.066987 462.649385 
L 571.691167 478.751765 
L 572.315347 478.311138 
L 572.939527 461.195411 
L 573.563707 463.213349 
L 574.187887 485.498466 
L 575.436247 458.136984 
L 576.060427 465.423379 
L 576.684607 491.549587 
L 577.308787 464.379334 
L 577.932967 456.282642 
L 579.181327 485.380028 
L 579.805507 458.525562 
L 580.429687 455.915422 
L 581.053867 476.913075 
L 581.678047 474.256184 
L 582.302227 454.081028 
L 582.926407 457.293517 
L 583.550587 488.236949 
L 584.174767 464.607656 
L 584.798947 451.214395 
L 585.423126 460.697262 
L 586.047306 495.791627 
L 586.671486 457.179488 
L 587.295666 449.974496 
L 588.544026 482.921507 
L 589.168206 453.420964 
L 589.792386 450.470027 
L 590.416566 470.809196 
L 591.040746 475.355428 
L 591.664926 452.357957 
L 592.289106 454.335302 
L 592.913286 482.791236 
L 594.161646 452.407847 
L 594.785826 460.317492 
L 595.410006 495.223884 
L 596.034186 462.455982 
L 596.658366 454.17746 
L 597.282546 468.016648 
L 597.906726 486.911743 
L 598.530906 459.911975 
L 599.155086 457.509281 
L 599.779266 476.904056 
L 600.403446 478.016142 
L 601.027626 459.352596 
L 601.651806 462.099674 
L 602.275986 484.895225 
L 603.524345 460.377895 
L 604.148525 467.376226 
L 604.772705 487.18988 
L 605.396885 469.583486 
L 606.021065 462.501348 
L 606.645245 472.321574 
L 607.269425 484.239381 
L 607.893605 468.539609 
L 608.517785 465.011274 
L 609.141965 475.676985 
L 609.766145 481.21271 
L 610.390325 468.621117 
L 611.014505 466.978781 
L 611.638685 477.026854 
L 612.262865 479.741525 
L 612.887045 468.834231 
L 613.511225 467.65802 
L 614.135405 477.479876 
L 614.759585 479.451659 
L 615.383765 468.0771 
L 616.007945 467.109085 
L 616.632125 478.603766 
L 617.256305 478.860416 
L 617.880485 465.799563 
L 618.504665 466.176446 
L 619.128845 481.496385 
L 619.753025 476.011658 
L 620.377205 462.452926 
L 621.001385 465.873757 
L 621.625564 486.54518 
L 622.249744 470.498482 
L 622.873924 459.007434 
L 623.498104 467.022201 
L 624.122284 490.788548 
L 624.746464 463.804911 
L 625.370644 456.318787 
L 626.619004 484.243253 
L 627.243184 457.43654 
L 627.867364 454.964506 
L 628.491544 476.555277 
L 629.115724 472.78468 
L 629.739904 452.238637 
L 630.364084 455.302635 
L 630.988264 486.935903 
L 631.612444 463.298726 
L 632.236624 449.037464 
L 632.860804 455.896583 
L 633.484984 493.031945 
L 634.109164 461.387664 
L 634.733344 450.639725 
L 635.357524 462.412557 
L 635.981704 492.827872 
L 636.605884 459.192554 
L 637.230064 454.235912 
L 637.854244 471.3597 
L 638.478424 482.400377 
L 639.102603 459.230971 
L 639.726783 459.214524 
L 640.350963 479.744605 
L 640.975143 476.888611 
L 641.599323 461.143905 
L 642.223503 464.550523 
L 642.847683 483.470173 
L 643.471863 474.92045 
L 644.096043 464.089381 
L 644.720223 468.326656 
L 645.344403 482.157465 
L 645.968583 475.562038 
L 646.592763 466.427725 
L 647.216943 468.729501 
L 647.841123 480.363058 
L 648.465303 477.448418 
L 649.089483 465.972199 
L 649.713663 466.265782 
L 650.337843 480.615853 
L 650.962023 477.531074 
L 651.586203 462.062545 
L 652.210383 463.031151 
L 652.834563 483.882252 
L 653.458743 472.553916 
L 654.082923 456.415071 
L 654.707103 460.61278 
L 655.331283 491.171105 
L 655.955463 464.114722 
L 656.579643 451.027544 
L 657.203822 459.758835 
L 657.828002 498.914809 
L 658.452182 458.345663 
L 659.076362 449.216691 
L 659.700542 460.480743 
L 660.324722 495.920343 
L 660.948902 460.688741 
L 661.573082 454.505437 
L 662.197262 468.706963 
L 662.821442 488.068307 
L 663.445622 464.459502 
L 664.069802 460.994777 
L 665.318162 484.421956 
L 665.942342 470.619113 
L 666.566522 464.990537 
L 667.190702 469.496292 
L 667.814882 482.685192 
L 668.439062 476.159704 
L 669.063242 461.858235 
L 669.687422 461.570803 
L 670.311602 480.819456 
L 670.935782 474.320624 
L 671.559962 453.686251 
L 672.184142 453.613235 
L 672.808322 476.706269 
L 673.432502 474.154004 
L 674.056682 453.235483 
L 674.680862 454.558402 
L 675.305041 475.104913 
L 675.929221 482.324595 
L 676.553401 464.552949 
L 677.177581 462.594826 
L 677.801761 469.629794 
L 678.425941 482.453114 
L 679.050121 479.339453 
L 679.674301 460.697357 
L 680.298481 454.287164 
L 680.922661 464.73092 
L 681.546841 495.363167 
L 682.171021 460.196512 
L 682.795201 477.916761 
L 683.419381 465.176008 
L 684.043561 471.728679 
L 684.667741 479.559576 
L 685.291921 447.220831 
L 685.916101 488.442024 
L 686.540281 494.628864 
L 687.164461 445.653626 
L 687.788641 452.015617 
L 688.412821 461.917864 
L 689.037001 465.462137 
L 689.661181 465.789045 
L 690.909541 473.974625 
L 691.533721 443.896491 
L 692.157901 486.089173 
L 692.78208 468.238035 
L 693.40626 438.441138 
L 694.03044 469.16141 
L 694.65462 474.400201 
L 695.90298 475.034046 
L 696.52716 439.73835 
L 697.15134 452.579812 
L 697.77552 498.962194 
L 698.3997 479.675287 
L 699.02388 438.687807 
L 699.64806 451.046023 
L 701.5206 494.656361 
L 702.14478 492.75666 
L 702.76896 476.689531 
L 703.39314 467.988886 
L 704.01732 461.754873 
L 705.26568 452.691645 
L 706.51404 445.960499 
L 707.7624 440.834747 
L 708.38658 439.322115 
L 709.01076 439.960093 
L 710.883299 442.579786 
L 711.507479 443.157064 
L 712.131659 443.494438 
L 712.755839 443.575819 
L 713.380019 443.406124 
L 714.004199 443.010471 
L 715.252559 441.697604 
L 716.500919 440.220869 
L 717.125099 440.578098 
L 718.997639 443.509869 
L 720.245999 444.991085 
L 720.870179 445.514699 
L 721.494359 445.865311 
L 722.118539 446.029122 
L 722.742719 445.999845 
L 723.366899 445.780121 
L 723.991079 445.380876 
L 725.239439 444.119891 
L 726.487799 442.422557 
L 727.736159 440.652069 
L 728.360338 440.212788 
L 728.984518 440.483167 
L 732.105418 443.036247 
L 733.353778 443.783763 
L 734.602138 444.214239 
L 735.850498 444.281463 
L 737.098858 444.004532 
L 738.347218 443.464732 
L 742.092298 441.6039 
L 742.716478 441.438846 
L 743.340658 441.524118 
L 743.964838 442.119661 
L 745.213198 444.279215 
L 750.830817 455.220155 
L 755.200077 462.982045 
L 756.448437 465.751952 
L 757.696797 469.14122 
L 758.945157 473.368759 
L 761.441877 483.121026 
L 762.066057 486.568651 
L 763.314417 494.691587 
L 763.938597 497.161268 
L 764.562776 496.170637 
L 767.059496 484.446514 
L 768.307856 479.784755 
L 770.180396 473.852971 
L 778.294736 450.060484 
L 778.918916 449.069481 
L 779.543096 448.548119 
L 780.791456 447.849898 
L 782.039815 447.394798 
L 783.288175 447.192007 
L 785.784895 446.95027 
L 787.033255 446.59472 
L 788.281615 445.920196 
L 789.529975 444.880353 
L 790.778335 443.505114 
L 793.899235 439.574893 
L 794.523415 439.449558 
L 795.147595 439.907465 
L 798.268495 443.151968 
L 798.892675 443.603646 
L 799.516855 443.910258 
L 800.141034 444.045565 
L 800.765214 443.990582 
L 801.389394 443.736688 
L 802.013574 443.286389 
L 802.013574 443.286389 
" clip-path="url(#p6327ece909)" style="fill: none; stroke-dasharray: 3,4.95; stroke-dashoffset: 0; stroke: #d62728; stroke-width: 3"/>
   </g>
   <g id="line2d_38">
    <path d="M 178.457789 71.46628 
L 186.572129 97.57956 
L 194.062288 122.391528 
L 201.552448 147.972244 
L 208.418428 172.18723 
L 215.284407 197.240976 
L 221.526207 220.85528 
L 227.143827 242.898165 
L 232.761446 265.816142 
L 237.754886 287.052229 
L 242.748326 309.252343 
L 247.117585 329.636499 
L 251.486845 351.123523 
L 255.231925 370.63067 
L 258.977005 391.429729 
L 262.097905 410.020304 
L 265.218804 430.043178 
L 268.339704 451.65766 
L 272.708964 483.933208 
L 273.333144 486.848865 
L 273.957324 487.443991 
L 274.581504 485.37916 
L 275.205684 481.592971 
L 280.823304 441.49061 
L 283.320023 426.094202 
L 285.816743 411.953946 
L 288.937643 395.741978 
L 292.058543 380.839792 
L 295.179443 366.990051 
L 298.300343 354.035818 
L 302.045422 339.486119 
L 305.790502 325.863205 
L 309.535582 313.046568 
L 313.280662 300.950991 
L 317.649921 287.647744 
L 322.019181 275.116571 
L 326.388441 263.281204 
L 330.757701 252.080415 
L 335.12696 241.463879 
L 339.49622 231.392927 
L 343.86548 221.83431 
L 348.23474 212.748456 
L 353.228179 202.908231 
L 358.221619 193.614087 
L 363.215059 184.835681 
L 368.208499 176.546794 
L 373.201938 168.724574 
L 378.195378 161.348951 
L 383.188818 154.403188 
L 388.182258 147.878289 
L 393.175697 141.752777 
L 398.169137 136.012659 
L 403.162577 130.64645 
L 408.156016 125.643896 
L 413.149456 120.99585 
L 417.518716 117.213179 
L 421.887976 113.690774 
L 426.257235 110.42422 
L 430.626495 107.409535 
L 434.995755 104.643144 
L 439.365015 102.121842 
L 443.734274 99.842774 
L 448.103534 97.80391 
L 452.472794 96.007443 
L 456.842054 94.448565 
L 461.211313 93.123336 
L 465.580573 92.03021 
L 469.949833 91.167956 
L 474.319093 90.535607 
L 478.688352 90.13245 
L 483.057612 89.958031 
L 487.426872 90.012145 
L 491.796132 90.294842 
L 496.165391 90.806426 
L 500.534651 91.547458 
L 504.903911 92.518759 
L 509.273171 93.721413 
L 513.642431 95.15677 
L 518.01169 96.826453 
L 522.38095 98.732549 
L 526.75021 100.880993 
L 531.11947 103.273869 
L 535.488729 105.91048 
L 539.857989 108.793713 
L 544.227249 111.926935 
L 548.596509 115.313893 
L 552.965768 118.958753 
L 557.335028 122.866128 
L 561.704288 127.041133 
L 566.073548 131.489424 
L 571.066987 136.915881 
L 576.060427 142.717871 
L 581.053867 148.907055 
L 586.047306 155.496544 
L 590.416566 161.605577 
L 595.410006 168.996956 
L 600.403446 176.83591 
L 605.396885 185.142425 
L 610.390325 193.939416 
L 614.759585 202.059689 
L 619.128845 210.595665 
L 623.498104 219.570366 
L 627.867364 229.010321 
L 632.236624 238.946909 
L 636.605884 249.425261 
L 640.975143 260.478261 
L 645.344403 272.152823 
L 649.713663 284.506907 
L 654.082923 297.612147 
L 657.828002 309.511431 
L 661.573082 322.111466 
L 665.318162 335.491658 
L 669.063242 349.75994 
L 672.184142 362.435351 
L 675.305041 375.959232 
L 678.425941 390.482949 
L 681.546841 406.217351 
L 684.667741 423.273149 
L 687.164461 438.14744 
L 689.661181 454.518522 
L 694.03044 484.749438 
L 694.65462 486.797341 
L 695.2788 486.518392 
L 695.90298 483.949233 
L 697.15134 475.769157 
L 700.27224 454.157308 
L 702.14478 442.645567 
L 704.01732 432.211411 
L 706.51404 419.727123 
L 709.01076 408.581758 
L 711.507479 398.549538 
L 714.004199 389.463364 
L 716.500919 381.203366 
L 718.997639 373.681534 
L 721.494359 366.823652 
L 723.991079 360.57209 
L 726.487799 354.881559 
L 728.984518 349.716393 
L 731.481238 345.047444 
L 733.977958 340.846325 
L 736.474678 337.091219 
L 738.971398 333.764233 
L 741.468118 330.850656 
L 743.964838 328.339304 
L 746.461557 326.22112 
L 748.334097 324.883886 
L 750.206637 323.758645 
L 752.079177 322.842927 
L 753.951717 322.134793 
L 755.824257 321.632813 
L 757.696797 321.336041 
L 759.569337 321.24403 
L 761.441877 321.357463 
L 763.314417 321.677142 
L 765.186956 322.202509 
L 767.059496 322.934363 
L 768.932036 323.874141 
L 770.804576 325.023779 
L 772.677116 326.385741 
L 774.549656 327.963056 
L 777.046376 330.407505 
L 779.543096 333.252564 
L 782.039815 336.511722 
L 784.536535 340.197451 
L 787.033255 344.326726 
L 789.529975 348.920195 
L 792.026695 354.002887 
L 794.523415 359.605693 
L 797.020135 365.767232 
L 799.516855 372.528866 
L 802.013574 379.944197 
L 802.013574 379.944197 
" clip-path="url(#p6327ece909)" style="fill: none; stroke: #000000; stroke-width: 3; stroke-linecap: square"/>
   </g>
   <g id="patch_3">
    <path d="M 147.28 489.2325 
L 147.28 28.08 
" style="fill: none; stroke: #000000; stroke-width: 2; stroke-linejoin: miter; stroke-linecap: square"/>
   </g>
   <g id="patch_4">
    <path d="M 833.191364 489.2325 
L 833.191364 28.08 
" style="fill: none; stroke: #000000; stroke-width: 2; stroke-linejoin: miter; stroke-linecap: square"/>
   </g>
   <g id="patch_5">
    <path d="M 147.28 489.2325 
L 833.191364 489.2325 
" style="fill: none; stroke: #000000; stroke-width: 2; stroke-linejoin: miter; stroke-linecap: square"/>
   </g>
   <g id="patch_6">
    <path d="M 147.28 28.08 
L 833.191364 28.08 
" style="fill: none; stroke: #000000; stroke-width: 2; stroke-linejoin: miter; stroke-linecap: square"/>
   </g>
   <g id="legend_1">
    <g id="patch_7">
     <path d="M 683.493864 158.305 
L 821.991364 158.305 
Q 825.191364 158.305 825.191364 155.105 
L 825.191364 39.28 
Q 825.191364 36.08 821.991364 36.08 
L 683.493864 36.08 
Q 680.293864 36.08 680.293864 39.28 
L 680.293864 155.105 
Q 680.293864 158.305 683.493864 158.305 
z
" style="fill: #ffffff; opacity: 0.8; stroke: #cccccc; stroke-linejoin: miter"/>
    </g>
    <g id="line2d_39">
     <path d="M 686.693864 49.0375 
L 702.693864 49.0375 
L 718.693864 49.0375 
" style="fill: none; stroke: #1f77b4; stroke-width: 3; stroke-linecap: square"/>
    </g>
    <g id="text_14">
     <!-- Electron 1 -->
     <g transform="translate(731.493864 54.6375) scale(0.16 -0.16)">
      <defs>
       <path id="DejaVuSerif-45" d="M 353 0 
L 353 331 
L 947 331 
L 947 4331 
L 353 4331 
L 353 4666 
L 4109 4666 
L 4109 3628 
L 3725 3628 
L 3725 4281 
L 1581 4281 
L 1581 2719 
L 3109 2719 
L 3109 3303 
L 3494 3303 
L 3494 1753 
L 3109 1753 
L 3109 2338 
L 1581 2338 
L 1581 384 
L 3775 384 
L 3775 1038 
L 4159 1038 
L 4159 0 
L 353 0 
z
" transform="scale(0.015625)"/>
       <path id="DejaVuSerif-6c" d="M 1313 331 
L 1856 331 
L 1856 0 
L 184 0 
L 184 331 
L 738 331 
L 738 4531 
L 184 4531 
L 184 4863 
L 1313 4863 
L 1313 331 
z
" transform="scale(0.015625)"/>
       <path id="DejaVuSerif-65" d="M 3469 1600 
L 991 1600 
L 991 1575 
Q 991 903 1244 561 
Q 1497 219 1991 219 
Q 2369 219 2611 417 
Q 2853 616 2950 1006 
L 3413 1006 
Q 3275 459 2904 184 
Q 2534 -91 1931 -91 
Q 1203 -91 761 389 
Q 319 869 319 1663 
Q 319 2450 753 2931 
Q 1188 3413 1894 3413 
Q 2647 3413 3050 2948 
Q 3453 2484 3469 1600 
z
M 2791 1931 
Q 2772 2513 2545 2808 
Q 2319 3103 1894 3103 
Q 1497 3103 1269 2806 
Q 1041 2509 991 1931 
L 2791 1931 
z
" transform="scale(0.015625)"/>
       <path id="DejaVuSerif-63" d="M 3291 997 
Q 3169 466 2822 187 
Q 2475 -91 1925 -91 
Q 1200 -91 759 389 
Q 319 869 319 1663 
Q 319 2459 759 2936 
Q 1200 3413 1925 3413 
Q 2241 3413 2553 3339 
Q 2866 3266 3181 3116 
L 3181 2266 
L 2847 2266 
Q 2781 2703 2561 2903 
Q 2341 3103 1931 3103 
Q 1466 3103 1228 2742 
Q 991 2381 991 1663 
Q 991 944 1227 581 
Q 1463 219 1931 219 
Q 2303 219 2525 412 
Q 2747 606 2828 997 
L 3291 997 
z
" transform="scale(0.015625)"/>
       <path id="DejaVuSerif-74" d="M 691 2988 
L 184 2988 
L 184 3322 
L 691 3322 
L 691 4353 
L 1269 4353 
L 1269 3322 
L 2350 3322 
L 2350 2988 
L 1269 2988 
L 1269 878 
Q 1269 456 1350 337 
Q 1431 219 1650 219 
Q 1875 219 1978 351 
Q 2081 484 2088 781 
L 2522 781 
Q 2497 328 2275 118 
Q 2053 -91 1600 -91 
Q 1103 -91 897 129 
Q 691 350 691 878 
L 691 2988 
z
" transform="scale(0.015625)"/>
       <path id="DejaVuSerif-72" d="M 3059 3328 
L 3059 2497 
L 2728 2497 
Q 2713 2744 2591 2866 
Q 2469 2988 2234 2988 
Q 1809 2988 1582 2694 
Q 1356 2400 1356 1850 
L 1356 331 
L 2022 331 
L 2022 0 
L 263 0 
L 263 331 
L 781 331 
L 781 2994 
L 231 2994 
L 231 3322 
L 1356 3322 
L 1356 2731 
Q 1525 3078 1790 3245 
Q 2056 3413 2438 3413 
Q 2578 3413 2733 3391 
Q 2888 3369 3059 3328 
z
" transform="scale(0.015625)"/>
       <path id="DejaVuSerif-6f" d="M 1925 219 
Q 2388 219 2623 584 
Q 2859 950 2859 1663 
Q 2859 2375 2623 2739 
Q 2388 3103 1925 3103 
Q 1463 3103 1227 2739 
Q 991 2375 991 1663 
Q 991 950 1228 584 
Q 1466 219 1925 219 
z
M 1925 -91 
Q 1200 -91 759 389 
Q 319 869 319 1663 
Q 319 2456 758 2934 
Q 1197 3413 1925 3413 
Q 2653 3413 3092 2934 
Q 3531 2456 3531 1663 
Q 3531 869 3092 389 
Q 2653 -91 1925 -91 
z
" transform="scale(0.015625)"/>
       <path id="DejaVuSerif-6e" d="M 263 0 
L 263 331 
L 781 331 
L 781 2988 
L 231 2988 
L 231 3322 
L 1356 3322 
L 1356 2731 
Q 1516 3069 1770 3241 
Q 2025 3413 2363 3413 
Q 2913 3413 3172 3097 
Q 3431 2781 3431 2113 
L 3431 331 
L 3944 331 
L 3944 0 
L 2356 0 
L 2356 331 
L 2853 331 
L 2853 1931 
Q 2853 2541 2703 2767 
Q 2553 2994 2175 2994 
Q 1775 2994 1565 2701 
Q 1356 2409 1356 1850 
L 1356 331 
L 1856 331 
L 1856 0 
L 263 0 
z
" transform="scale(0.015625)"/>
      </defs>
      <use xlink:href="#DejaVuSerif-45"/>
      <use xlink:href="#DejaVuSerif-6c" x="72.998047"/>
      <use xlink:href="#DejaVuSerif-65" x="104.980469"/>
      <use xlink:href="#DejaVuSerif-63" x="164.160156"/>
      <use xlink:href="#DejaVuSerif-74" x="220.166016"/>
      <use xlink:href="#DejaVuSerif-72" x="260.351562"/>
      <use xlink:href="#DejaVuSerif-6f" x="308.154297"/>
      <use xlink:href="#DejaVuSerif-6e" x="368.359375"/>
      <use xlink:href="#DejaVuSerif-20" x="432.763672"/>
      <use xlink:href="#DejaVuSerif-31" x="464.550781"/>
     </g>
    </g>
    <g id="line2d_40">
     <path d="M 686.693864 72.5225 
L 702.693864 72.5225 
L 718.693864 72.5225 
" style="fill: none; stroke-dasharray: 11.1,4.8; stroke-dashoffset: 0; stroke: #ff7f0e; stroke-width: 3"/>
    </g>
    <g id="text_15">
     <!-- Electron 2 -->
     <g transform="translate(731.493864 78.1225) scale(0.16 -0.16)">
      <use xlink:href="#DejaVuSerif-45"/>
      <use xlink:href="#DejaVuSerif-6c" x="72.998047"/>
      <use xlink:href="#DejaVuSerif-65" x="104.980469"/>
      <use xlink:href="#DejaVuSerif-63" x="164.160156"/>
      <use xlink:href="#DejaVuSerif-74" x="220.166016"/>
      <use xlink:href="#DejaVuSerif-72" x="260.351562"/>
      <use xlink:href="#DejaVuSerif-6f" x="308.154297"/>
      <use xlink:href="#DejaVuSerif-6e" x="368.359375"/>
      <use xlink:href="#DejaVuSerif-20" x="432.763672"/>
      <use xlink:href="#DejaVuSerif-32" x="464.550781"/>
     </g>
    </g>
    <g id="line2d_41">
     <path d="M 686.693864 96.0075 
L 702.693864 96.0075 
L 718.693864 96.0075 
" style="fill: none; stroke-dasharray: 19.2,4.8,3,4.8; stroke-dashoffset: 0; stroke: #2ca02c; stroke-width: 3"/>
    </g>
    <g id="text_16">
     <!-- Electron 3 -->
     <g transform="translate(731.493864 101.6075) scale(0.16 -0.16)">
      <defs>
       <path id="DejaVuSerif-33" d="M 622 4469 
Q 988 4606 1323 4678 
Q 1659 4750 1953 4750 
Q 2638 4750 3022 4454 
Q 3406 4159 3406 3634 
Q 3406 3213 3140 2930 
Q 2875 2647 2388 2547 
Q 2963 2466 3280 2130 
Q 3597 1794 3597 1259 
Q 3597 606 3158 257 
Q 2719 -91 1894 -91 
Q 1528 -91 1179 -12 
Q 831 66 488 225 
L 488 1131 
L 838 1131 
Q 869 681 1141 450 
Q 1413 219 1906 219 
Q 2384 219 2661 495 
Q 2938 772 2938 1253 
Q 2938 1803 2653 2086 
Q 2369 2369 1819 2369 
L 1522 2369 
L 1522 2688 
L 1678 2688 
Q 2225 2688 2498 2914 
Q 2772 3141 2772 3597 
Q 2772 4006 2547 4223 
Q 2322 4441 1900 4441 
Q 1478 4441 1245 4241 
Q 1013 4041 972 3647 
L 622 3647 
L 622 4469 
z
" transform="scale(0.015625)"/>
      </defs>
      <use xlink:href="#DejaVuSerif-45"/>
      <use xlink:href="#DejaVuSerif-6c" x="72.998047"/>
      <use xlink:href="#DejaVuSerif-65" x="104.980469"/>
      <use xlink:href="#DejaVuSerif-63" x="164.160156"/>
      <use xlink:href="#DejaVuSerif-74" x="220.166016"/>
      <use xlink:href="#DejaVuSerif-72" x="260.351562"/>
      <use xlink:href="#DejaVuSerif-6f" x="308.154297"/>
      <use xlink:href="#DejaVuSerif-6e" x="368.359375"/>
      <use xlink:href="#DejaVuSerif-20" x="432.763672"/>
      <use xlink:href="#DejaVuSerif-33" x="464.550781"/>
     </g>
    </g>
    <g id="line2d_42">
     <path d="M 686.693864 119.4925 
L 702.693864 119.4925 
L 718.693864 119.4925 
" style="fill: none; stroke-dasharray: 3,4.95; stroke-dashoffset: 0; stroke: #d62728; stroke-width: 3"/>
    </g>
    <g id="text_17">
     <!-- Electron 4 -->
     <g transform="translate(731.493864 125.0925) scale(0.16 -0.16)">
      <use xlink:href="#DejaVuSerif-45"/>
      <use xlink:href="#DejaVuSerif-6c" x="72.998047"/>
      <use xlink:href="#DejaVuSerif-65" x="104.980469"/>
      <use xlink:href="#DejaVuSerif-63" x="164.160156"/>
      <use xlink:href="#DejaVuSerif-74" x="220.166016"/>
      <use xlink:href="#DejaVuSerif-72" x="260.351562"/>
      <use xlink:href="#DejaVuSerif-6f" x="308.154297"/>
      <use xlink:href="#DejaVuSerif-6e" x="368.359375"/>
      <use xlink:href="#DejaVuSerif-20" x="432.763672"/>
      <use xlink:href="#DejaVuSerif-34" x="464.550781"/>
     </g>
    </g>
    <g id="line2d_43">
     <path d="M 686.693864 142.9775 
L 702.693864 142.9775 
L 718.693864 142.9775 
" style="fill: none; stroke: #000000; stroke-width: 3; stroke-linecap: square"/>
    </g>
    <g id="text_18">
     <!-- Antiproton -->
     <g transform="translate(731.493864 148.5775) scale(0.16 -0.16)">
      <defs>
       <path id="DejaVuSerif-41" d="M 1281 1691 
L 2994 1691 
L 2138 3909 
L 1281 1691 
z
M -38 0 
L -38 331 
L 372 331 
L 2034 4666 
L 2559 4666 
L 4225 331 
L 4684 331 
L 4684 0 
L 2988 0 
L 2988 331 
L 3506 331 
L 3116 1356 
L 1153 1356 
L 763 331 
L 1275 331 
L 1275 0 
L -38 0 
z
" transform="scale(0.015625)"/>
       <path id="DejaVuSerif-69" d="M 622 4353 
Q 622 4497 726 4603 
Q 831 4709 978 4709 
Q 1122 4709 1226 4603 
Q 1331 4497 1331 4353 
Q 1331 4206 1228 4103 
Q 1125 4000 978 4000 
Q 831 4000 726 4103 
Q 622 4206 622 4353 
z
M 1356 331 
L 1900 331 
L 1900 0 
L 231 0 
L 231 331 
L 781 331 
L 781 2988 
L 231 2988 
L 231 3322 
L 1356 3322 
L 1356 331 
z
" transform="scale(0.015625)"/>
       <path id="DejaVuSerif-70" d="M 1313 1825 
L 1313 1497 
Q 1313 897 1542 583 
Q 1772 269 2209 269 
Q 2650 269 2876 622 
Q 3103 975 3103 1663 
Q 3103 2353 2876 2703 
Q 2650 3053 2209 3053 
Q 1772 3053 1542 2737 
Q 1313 2422 1313 1825 
z
M 738 2988 
L 184 2988 
L 184 3322 
L 1313 3322 
L 1313 2803 
Q 1481 3116 1742 3264 
Q 2003 3413 2388 3413 
Q 3000 3413 3387 2928 
Q 3775 2444 3775 1663 
Q 3775 881 3387 395 
Q 3000 -91 2388 -91 
Q 2003 -91 1742 57 
Q 1481 206 1313 519 
L 1313 -997 
L 1856 -997 
L 1856 -1331 
L 184 -1331 
L 184 -997 
L 738 -997 
L 738 2988 
z
" transform="scale(0.015625)"/>
      </defs>
      <use xlink:href="#DejaVuSerif-41"/>
      <use xlink:href="#DejaVuSerif-6e" x="72.216797"/>
      <use xlink:href="#DejaVuSerif-74" x="136.621094"/>
      <use xlink:href="#DejaVuSerif-69" x="176.806641"/>
      <use xlink:href="#DejaVuSerif-70" x="208.789062"/>
      <use xlink:href="#DejaVuSerif-72" x="272.802734"/>
      <use xlink:href="#DejaVuSerif-6f" x="320.605469"/>
      <use xlink:href="#DejaVuSerif-74" x="380.810547"/>
      <use xlink:href="#DejaVuSerif-6f" x="420.996094"/>
      <use xlink:href="#DejaVuSerif-6e" x="481.201172"/>
     </g>
    </g>
   </g>
  </g>
 </g>
 <defs>
  <clipPath id="p6327ece909">
   <rect x="147.28" y="28.08" width="685.911364" height="461.1525"/>
  </clipPath>
 </defs>
</svg>
