<?xml version="1.0" encoding="utf-8" standalone="no"?>
<!DOCTYPE svg PUBLIC "-//W3C//DTD SVG 1.1//EN"
  "http://www.w3.org/Graphics/SVG/1.1/DTD/svg11.dtd">
<svg xmlns:xlink="http://www.w3.org/1999/xlink" width="720pt" height="504pt" viewBox="0 0 720 504" xmlns="http://www.w3.org/2000/svg" version="1.1">
 <metadata>
  <rdf:RDF xmlns:dc="http://purl.org/dc/elements/1.1/" xmlns:cc="http://creativecommons.org/ns#" xmlns:rdf="http://www.w3.org/1999/02/22-rdf-syntax-ns#">
   <cc:Work>
    <dc:type rdf:resource="http://purl.org/dc/dcmitype/StillImage"/>
    <dc:date>2025-06-01T11:09:42.849036</dc:date>
    <dc:format>image/svg+xml</dc:format>
    <dc:creator>
     <cc:Agent>
      <dc:title>Matplotlib v3.7.2, https://matplotlib.org/</dc:title>
     </cc:Agent>
    </dc:creator>
   </cc:Work>
  </rdf:RDF>
 </metadata>
 <defs>
  <style type="text/css">*{stroke-linejoin: round; stroke-linecap: butt}</style>
 </defs>
 <g id="figure_1">
  <g id="patch_1">
   <path d="M 0 504 
L 720 504 
L 720 0 
L 0 0 
z
" style="fill: #ffffff"/>
  </g>
  <g id="axes_1">
   <g id="patch_2">
    <path d="M 98.805 419.46 
L 691.92 419.46 
L 691.92 58.32 
L 98.805 58.32 
z
" style="fill: #ffffff"/>
   </g>
   <g id="matplotlib.axis_1">
    <g id="xtick_1">
     <g id="line2d_1">
      <path d="M 125.764773 419.46 
L 125.764773 58.32 
" clip-path="url(#pc9377d42c4)" style="fill: none; stroke-dasharray: 3.7,1.6; stroke-dashoffset: 0; stroke: #b0b0b0"/>
     </g>
     <g id="line2d_2">
      <defs>
       <path id="m7341799da0" d="M 0 0 
L 0 -10 
" style="stroke: #000000; stroke-width: 2"/>
      </defs>
      <g>
       <use xlink:href="#m7341799da0" x="125.764773" y="419.46" style="stroke: #000000; stroke-width: 2"/>
      </g>
     </g>
     <g id="text_1">
      <!-- 0 -->
      <g transform="translate(117.493523 442.715937) scale(0.26 -0.26)">
       <defs>
        <path id="DejaVuSerif-30" d="M 2034 219 
Q 2513 219 2750 744 
Q 2988 1269 2988 2328 
Q 2988 3391 2750 3916 
Q 2513 4441 2034 4441 
Q 1556 4441 1318 3916 
Q 1081 3391 1081 2328 
Q 1081 1269 1318 744 
Q 1556 219 2034 219 
z
M 2034 -91 
Q 1275 -91 848 546 
Q 422 1184 422 2328 
Q 422 3475 848 4112 
Q 1275 4750 2034 4750 
Q 2797 4750 3222 4112 
Q 3647 3475 3647 2328 
Q 3647 1184 3222 546 
Q 2797 -91 2034 -91 
z
" transform="scale(0.015625)"/>
       </defs>
       <use xlink:href="#DejaVuSerif-30"/>
      </g>
     </g>
    </g>
    <g id="xtick_2">
     <g id="line2d_3">
      <path d="M 233.603864 419.46 
L 233.603864 58.32 
" clip-path="url(#pc9377d42c4)" style="fill: none; stroke-dasharray: 3.7,1.6; stroke-dashoffset: 0; stroke: #b0b0b0"/>
     </g>
     <g id="line2d_4">
      <g>
       <use xlink:href="#m7341799da0" x="233.603864" y="419.46" style="stroke: #000000; stroke-width: 2"/>
      </g>
     </g>
     <g id="text_2">
      <!-- 1 -->
      <g transform="translate(225.332614 442.715937) scale(0.26 -0.26)">
       <defs>
        <path id="DejaVuSerif-31" d="M 909 0 
L 909 331 
L 1722 331 
L 1722 4213 
L 781 3603 
L 781 4013 
L 1919 4750 
L 2350 4750 
L 2350 331 
L 3163 331 
L 3163 0 
L 909 0 
z
" transform="scale(0.015625)"/>
       </defs>
       <use xlink:href="#DejaVuSerif-31"/>
      </g>
     </g>
    </g>
    <g id="xtick_3">
     <g id="line2d_5">
      <path d="M 341.442955 419.46 
L 341.442955 58.32 
" clip-path="url(#pc9377d42c4)" style="fill: none; stroke-dasharray: 3.7,1.6; stroke-dashoffset: 0; stroke: #b0b0b0"/>
     </g>
     <g id="line2d_6">
      <g>
       <use xlink:href="#m7341799da0" x="341.442955" y="419.46" style="stroke: #000000; stroke-width: 2"/>
      </g>
     </g>
     <g id="text_3">
      <!-- 2 -->
      <g transform="translate(333.171705 442.715937) scale(0.26 -0.26)">
       <defs>
        <path id="DejaVuSerif-32" d="M 819 3553 
L 469 3553 
L 469 4384 
Q 803 4563 1142 4656 
Q 1481 4750 1806 4750 
Q 2534 4750 2956 4397 
Q 3378 4044 3378 3438 
Q 3378 2753 2422 1800 
Q 2347 1728 2309 1691 
L 1131 513 
L 3078 513 
L 3078 1088 
L 3444 1088 
L 3444 0 
L 434 0 
L 434 341 
L 1850 1753 
Q 2319 2222 2519 2614 
Q 2719 3006 2719 3438 
Q 2719 3909 2473 4175 
Q 2228 4441 1797 4441 
Q 1350 4441 1106 4219 
Q 863 3997 819 3553 
z
" transform="scale(0.015625)"/>
       </defs>
       <use xlink:href="#DejaVuSerif-32"/>
      </g>
     </g>
    </g>
    <g id="xtick_4">
     <g id="line2d_7">
      <path d="M 449.282045 419.46 
L 449.282045 58.32 
" clip-path="url(#pc9377d42c4)" style="fill: none; stroke-dasharray: 3.7,1.6; stroke-dashoffset: 0; stroke: #b0b0b0"/>
     </g>
     <g id="line2d_8">
      <g>
       <use xlink:href="#m7341799da0" x="449.282045" y="419.46" style="stroke: #000000; stroke-width: 2"/>
      </g>
     </g>
     <g id="text_4">
      <!-- 3 -->
      <g transform="translate(441.010795 442.715937) scale(0.26 -0.26)">
       <defs>
        <path id="DejaVuSerif-33" d="M 622 4469 
Q 988 4606 1323 4678 
Q 1659 4750 1953 4750 
Q 2638 4750 3022 4454 
Q 3406 4159 3406 3634 
Q 3406 3213 3140 2930 
Q 2875 2647 2388 2547 
Q 2963 2466 3280 2130 
Q 3597 1794 3597 1259 
Q 3597 606 3158 257 
Q 2719 -91 1894 -91 
Q 1528 -91 1179 -12 
Q 831 66 488 225 
L 488 1131 
L 838 1131 
Q 869 681 1141 450 
Q 1413 219 1906 219 
Q 2384 219 2661 495 
Q 2938 772 2938 1253 
Q 2938 1803 2653 2086 
Q 2369 2369 1819 2369 
L 1522 2369 
L 1522 2688 
L 1678 2688 
Q 2225 2688 2498 2914 
Q 2772 3141 2772 3597 
Q 2772 4006 2547 4223 
Q 2322 4441 1900 4441 
Q 1478 4441 1245 4241 
Q 1013 4041 972 3647 
L 622 3647 
L 622 4469 
z
" transform="scale(0.015625)"/>
       </defs>
       <use xlink:href="#DejaVuSerif-33"/>
      </g>
     </g>
    </g>
    <g id="xtick_5">
     <g id="line2d_9">
      <path d="M 557.121136 419.46 
L 557.121136 58.32 
" clip-path="url(#pc9377d42c4)" style="fill: none; stroke-dasharray: 3.7,1.6; stroke-dashoffset: 0; stroke: #b0b0b0"/>
     </g>
     <g id="line2d_10">
      <g>
       <use xlink:href="#m7341799da0" x="557.121136" y="419.46" style="stroke: #000000; stroke-width: 2"/>
      </g>
     </g>
     <g id="text_5">
      <!-- 4 -->
      <g transform="translate(548.849886 442.715937) scale(0.26 -0.26)">
       <defs>
        <path id="DejaVuSerif-34" d="M 2234 1581 
L 2234 4063 
L 641 1581 
L 2234 1581 
z
M 3609 0 
L 1484 0 
L 1484 331 
L 2234 331 
L 2234 1247 
L 197 1247 
L 197 1588 
L 2241 4750 
L 2859 4750 
L 2859 1581 
L 3750 1581 
L 3750 1247 
L 2859 1247 
L 2859 331 
L 3609 331 
L 3609 0 
z
" transform="scale(0.015625)"/>
       </defs>
       <use xlink:href="#DejaVuSerif-34"/>
      </g>
     </g>
    </g>
    <g id="xtick_6">
     <g id="line2d_11">
      <path d="M 664.960227 419.46 
L 664.960227 58.32 
" clip-path="url(#pc9377d42c4)" style="fill: none; stroke-dasharray: 3.7,1.6; stroke-dashoffset: 0; stroke: #b0b0b0"/>
     </g>
     <g id="line2d_12">
      <g>
       <use xlink:href="#m7341799da0" x="664.960227" y="419.46" style="stroke: #000000; stroke-width: 2"/>
      </g>
     </g>
     <g id="text_6">
      <!-- 5 -->
      <g transform="translate(656.688977 442.715937) scale(0.26 -0.26)">
       <defs>
        <path id="DejaVuSerif-35" d="M 3219 4666 
L 3219 4153 
L 1081 4153 
L 1081 2816 
Q 1244 2928 1461 2984 
Q 1678 3041 1947 3041 
Q 2703 3041 3140 2622 
Q 3578 2203 3578 1478 
Q 3578 738 3136 323 
Q 2694 -91 1894 -91 
Q 1572 -91 1234 -12 
Q 897 66 544 225 
L 544 1131 
L 897 1131 
Q 925 688 1179 453 
Q 1434 219 1894 219 
Q 2388 219 2653 544 
Q 2919 869 2919 1478 
Q 2919 2084 2655 2407 
Q 2391 2731 1894 2731 
Q 1613 2731 1398 2631 
Q 1184 2531 1019 2322 
L 750 2322 
L 750 4666 
L 3219 4666 
z
" transform="scale(0.015625)"/>
       </defs>
       <use xlink:href="#DejaVuSerif-35"/>
      </g>
     </g>
    </g>
    <g id="text_7">
     <!-- Time (a.u.) -->
     <g transform="translate(323.848281 471.879062) scale(0.26 -0.26)">
      <defs>
       <path id="DejaVuSerif-54" d="M 1222 0 
L 1222 331 
L 1819 331 
L 1819 4294 
L 447 4294 
L 447 3566 
L 63 3566 
L 63 4666 
L 4206 4666 
L 4206 3566 
L 3822 3566 
L 3822 4294 
L 2450 4294 
L 2450 331 
L 3047 331 
L 3047 0 
L 1222 0 
z
" transform="scale(0.015625)"/>
       <path id="DejaVuSerif-69" d="M 622 4353 
Q 622 4497 726 4603 
Q 831 4709 978 4709 
Q 1122 4709 1226 4603 
Q 1331 4497 1331 4353 
Q 1331 4206 1228 4103 
Q 1125 4000 978 4000 
Q 831 4000 726 4103 
Q 622 4206 622 4353 
z
M 1356 331 
L 1900 331 
L 1900 0 
L 231 0 
L 231 331 
L 781 331 
L 781 2988 
L 231 2988 
L 231 3322 
L 1356 3322 
L 1356 331 
z
" transform="scale(0.015625)"/>
       <path id="DejaVuSerif-6d" d="M 3316 2675 
Q 3481 3041 3739 3227 
Q 3997 3413 4341 3413 
Q 4863 3413 5119 3089 
Q 5375 2766 5375 2113 
L 5375 331 
L 5894 331 
L 5894 0 
L 4300 0 
L 4300 331 
L 4800 331 
L 4800 2047 
Q 4800 2556 4650 2772 
Q 4500 2988 4153 2988 
Q 3769 2988 3567 2697 
Q 3366 2406 3366 1850 
L 3366 331 
L 3866 331 
L 3866 0 
L 2291 0 
L 2291 331 
L 2791 331 
L 2791 2069 
Q 2791 2566 2641 2777 
Q 2491 2988 2144 2988 
Q 1759 2988 1557 2697 
Q 1356 2406 1356 1850 
L 1356 331 
L 1856 331 
L 1856 0 
L 263 0 
L 263 331 
L 781 331 
L 781 2994 
L 231 2994 
L 231 3322 
L 1356 3322 
L 1356 2731 
Q 1516 3063 1762 3238 
Q 2009 3413 2322 3413 
Q 2709 3413 2968 3220 
Q 3228 3028 3316 2675 
z
" transform="scale(0.015625)"/>
       <path id="DejaVuSerif-65" d="M 3469 1600 
L 991 1600 
L 991 1575 
Q 991 903 1244 561 
Q 1497 219 1991 219 
Q 2369 219 2611 417 
Q 2853 616 2950 1006 
L 3413 1006 
Q 3275 459 2904 184 
Q 2534 -91 1931 -91 
Q 1203 -91 761 389 
Q 319 869 319 1663 
Q 319 2450 753 2931 
Q 1188 3413 1894 3413 
Q 2647 3413 3050 2948 
Q 3453 2484 3469 1600 
z
M 2791 1931 
Q 2772 2513 2545 2808 
Q 2319 3103 1894 3103 
Q 1497 3103 1269 2806 
Q 1041 2509 991 1931 
L 2791 1931 
z
" transform="scale(0.015625)"/>
       <path id="DejaVuSerif-20" transform="scale(0.015625)"/>
       <path id="DejaVuSerif-28" d="M 2041 -997 
Q 1281 -656 893 83 
Q 506 822 506 1931 
Q 506 3044 893 3783 
Q 1281 4522 2041 4863 
L 2041 4556 
Q 1559 4225 1350 3623 
Q 1141 3022 1141 1931 
Q 1141 844 1350 242 
Q 1559 -359 2041 -691 
L 2041 -997 
z
" transform="scale(0.015625)"/>
       <path id="DejaVuSerif-61" d="M 2547 1044 
L 2547 1747 
L 1806 1747 
Q 1378 1747 1168 1562 
Q 959 1378 959 997 
Q 959 650 1171 447 
Q 1384 244 1747 244 
Q 2106 244 2326 466 
Q 2547 688 2547 1044 
z
M 3122 2075 
L 3122 331 
L 3634 331 
L 3634 0 
L 2547 0 
L 2547 359 
Q 2356 128 2106 18 
Q 1856 -91 1522 -91 
Q 969 -91 644 203 
Q 319 497 319 997 
Q 319 1513 691 1797 
Q 1063 2081 1741 2081 
L 2547 2081 
L 2547 2309 
Q 2547 2688 2317 2895 
Q 2088 3103 1672 3103 
Q 1328 3103 1125 2947 
Q 922 2791 872 2484 
L 575 2484 
L 575 3156 
Q 875 3284 1158 3348 
Q 1441 3413 1709 3413 
Q 2400 3413 2761 3070 
Q 3122 2728 3122 2075 
z
" transform="scale(0.015625)"/>
       <path id="DejaVuSerif-2e" d="M 603 325 
Q 603 500 722 622 
Q 841 744 1019 744 
Q 1191 744 1312 622 
Q 1434 500 1434 325 
Q 1434 153 1312 31 
Q 1191 -91 1019 -91 
Q 841 -91 722 29 
Q 603 150 603 325 
z
" transform="scale(0.015625)"/>
       <path id="DejaVuSerif-75" d="M 2266 3322 
L 3341 3322 
L 3341 331 
L 3884 331 
L 3884 0 
L 2766 0 
L 2766 588 
Q 2606 256 2353 82 
Q 2100 -91 1766 -91 
Q 1213 -91 952 223 
Q 691 538 691 1209 
L 691 2988 
L 172 2988 
L 172 3322 
L 1269 3322 
L 1269 1388 
Q 1269 781 1417 556 
Q 1566 331 1947 331 
Q 2347 331 2556 625 
Q 2766 919 2766 1478 
L 2766 2988 
L 2266 2988 
L 2266 3322 
z
" transform="scale(0.015625)"/>
       <path id="DejaVuSerif-29" d="M 453 -997 
L 453 -691 
Q 934 -359 1145 242 
Q 1356 844 1356 1931 
Q 1356 3022 1145 3623 
Q 934 4225 453 4556 
L 453 4863 
Q 1216 4522 1603 3783 
Q 1991 3044 1991 1931 
Q 1991 822 1603 83 
Q 1216 -656 453 -997 
z
" transform="scale(0.015625)"/>
      </defs>
      <use xlink:href="#DejaVuSerif-54"/>
      <use xlink:href="#DejaVuSerif-69" x="66.699219"/>
      <use xlink:href="#DejaVuSerif-6d" x="98.681641"/>
      <use xlink:href="#DejaVuSerif-65" x="193.505859"/>
      <use xlink:href="#DejaVuSerif-20" x="252.685547"/>
      <use xlink:href="#DejaVuSerif-28" x="284.472656"/>
      <use xlink:href="#DejaVuSerif-61" x="323.486328"/>
      <use xlink:href="#DejaVuSerif-2e" x="383.105469"/>
      <use xlink:href="#DejaVuSerif-75" x="414.892578"/>
      <use xlink:href="#DejaVuSerif-2e" x="479.296875"/>
      <use xlink:href="#DejaVuSerif-29" x="511.083984"/>
     </g>
    </g>
   </g>
   <g id="matplotlib.axis_2">
    <g id="ytick_1">
     <g id="line2d_13">
      <path d="M 98.805 369.488132 
L 691.92 369.488132 
" clip-path="url(#pc9377d42c4)" style="fill: none; stroke-dasharray: 3.7,1.6; stroke-dashoffset: 0; stroke: #b0b0b0"/>
     </g>
     <g id="line2d_14">
      <defs>
       <path id="mf2e4b8825b" d="M 0 0 
L 10 0 
" style="stroke: #000000; stroke-width: 2"/>
      </defs>
      <g>
       <use xlink:href="#mf2e4b8825b" x="98.805" y="369.488132" style="stroke: #000000; stroke-width: 2"/>
      </g>
     </g>
     <g id="text_8">
      <!-- −6 -->
      <g transform="translate(56.975313 379.366101) scale(0.26 -0.26)">
       <defs>
        <path id="DejaVuSerif-2212" d="M 678 2259 
L 4684 2259 
L 4684 1753 
L 678 1753 
L 678 2259 
z
" transform="scale(0.015625)"/>
        <path id="DejaVuSerif-36" d="M 2094 219 
Q 2534 219 2771 542 
Q 3009 866 3009 1472 
Q 3009 2078 2771 2401 
Q 2534 2725 2094 2725 
Q 1647 2725 1412 2412 
Q 1178 2100 1178 1509 
Q 1178 888 1415 553 
Q 1653 219 2094 219 
z
M 1075 2569 
Q 1288 2803 1556 2918 
Q 1825 3034 2163 3034 
Q 2859 3034 3264 2615 
Q 3669 2197 3669 1472 
Q 3669 763 3233 336 
Q 2797 -91 2069 -91 
Q 1278 -91 853 498 
Q 428 1088 428 2181 
Q 428 3406 931 4078 
Q 1434 4750 2350 4750 
Q 2597 4750 2869 4703 
Q 3141 4656 3425 4563 
L 3425 3794 
L 3072 3794 
Q 3034 4109 2831 4275 
Q 2628 4441 2284 4441 
Q 1678 4441 1381 3981 
Q 1084 3522 1075 2569 
z
" transform="scale(0.015625)"/>
       </defs>
       <use xlink:href="#DejaVuSerif-2212"/>
       <use xlink:href="#DejaVuSerif-36" x="83.789062"/>
      </g>
     </g>
    </g>
    <g id="ytick_2">
     <g id="line2d_15">
      <path d="M 98.805 302.381285 
L 691.92 302.381285 
" clip-path="url(#pc9377d42c4)" style="fill: none; stroke-dasharray: 3.7,1.6; stroke-dashoffset: 0; stroke: #b0b0b0"/>
     </g>
     <g id="line2d_16">
      <g>
       <use xlink:href="#mf2e4b8825b" x="98.805" y="302.381285" style="stroke: #000000; stroke-width: 2"/>
      </g>
     </g>
     <g id="text_9">
      <!-- −4 -->
      <g transform="translate(56.975313 312.259254) scale(0.26 -0.26)">
       <use xlink:href="#DejaVuSerif-2212"/>
       <use xlink:href="#DejaVuSerif-34" x="83.789062"/>
      </g>
     </g>
    </g>
    <g id="ytick_3">
     <g id="line2d_17">
      <path d="M 98.805 235.274437 
L 691.92 235.274437 
" clip-path="url(#pc9377d42c4)" style="fill: none; stroke-dasharray: 3.7,1.6; stroke-dashoffset: 0; stroke: #b0b0b0"/>
     </g>
     <g id="line2d_18">
      <g>
       <use xlink:href="#mf2e4b8825b" x="98.805" y="235.274437" style="stroke: #000000; stroke-width: 2"/>
      </g>
     </g>
     <g id="text_10">
      <!-- −2 -->
      <g transform="translate(56.975313 245.152406) scale(0.26 -0.26)">
       <use xlink:href="#DejaVuSerif-2212"/>
       <use xlink:href="#DejaVuSerif-32" x="83.789062"/>
      </g>
     </g>
    </g>
    <g id="ytick_4">
     <g id="line2d_19">
      <path d="M 98.805 168.16759 
L 691.92 168.16759 
" clip-path="url(#pc9377d42c4)" style="fill: none; stroke-dasharray: 3.7,1.6; stroke-dashoffset: 0; stroke: #b0b0b0"/>
     </g>
     <g id="line2d_20">
      <g>
       <use xlink:href="#mf2e4b8825b" x="98.805" y="168.16759" style="stroke: #000000; stroke-width: 2"/>
      </g>
     </g>
     <g id="text_11">
      <!-- 0 -->
      <g transform="translate(78.7625 178.045559) scale(0.26 -0.26)">
       <use xlink:href="#DejaVuSerif-30"/>
      </g>
     </g>
    </g>
    <g id="ytick_5">
     <g id="line2d_21">
      <path d="M 98.805 101.060743 
L 691.92 101.060743 
" clip-path="url(#pc9377d42c4)" style="fill: none; stroke-dasharray: 3.7,1.6; stroke-dashoffset: 0; stroke: #b0b0b0"/>
     </g>
     <g id="line2d_22">
      <g>
       <use xlink:href="#mf2e4b8825b" x="98.805" y="101.060743" style="stroke: #000000; stroke-width: 2"/>
      </g>
     </g>
     <g id="text_12">
      <!-- 2 -->
      <g transform="translate(78.7625 110.938711) scale(0.26 -0.26)">
       <use xlink:href="#DejaVuSerif-32"/>
      </g>
     </g>
    </g>
    <g id="text_13">
     <!-- Energy Components (a.u.) -->
     <g transform="translate(47.198437 411.706719) rotate(-90) scale(0.26 -0.26)">
      <defs>
       <path id="DejaVuSerif-45" d="M 353 0 
L 353 331 
L 947 331 
L 947 4331 
L 353 4331 
L 353 4666 
L 4109 4666 
L 4109 3628 
L 3725 3628 
L 3725 4281 
L 1581 4281 
L 1581 2719 
L 3109 2719 
L 3109 3303 
L 3494 3303 
L 3494 1753 
L 3109 1753 
L 3109 2338 
L 1581 2338 
L 1581 384 
L 3775 384 
L 3775 1038 
L 4159 1038 
L 4159 0 
L 353 0 
z
" transform="scale(0.015625)"/>
       <path id="DejaVuSerif-6e" d="M 263 0 
L 263 331 
L 781 331 
L 781 2988 
L 231 2988 
L 231 3322 
L 1356 3322 
L 1356 2731 
Q 1516 3069 1770 3241 
Q 2025 3413 2363 3413 
Q 2913 3413 3172 3097 
Q 3431 2781 3431 2113 
L 3431 331 
L 3944 331 
L 3944 0 
L 2356 0 
L 2356 331 
L 2853 331 
L 2853 1931 
Q 2853 2541 2703 2767 
Q 2553 2994 2175 2994 
Q 1775 2994 1565 2701 
Q 1356 2409 1356 1850 
L 1356 331 
L 1856 331 
L 1856 0 
L 263 0 
z
" transform="scale(0.015625)"/>
       <path id="DejaVuSerif-72" d="M 3059 3328 
L 3059 2497 
L 2728 2497 
Q 2713 2744 2591 2866 
Q 2469 2988 2234 2988 
Q 1809 2988 1582 2694 
Q 1356 2400 1356 1850 
L 1356 331 
L 2022 331 
L 2022 0 
L 263 0 
L 263 331 
L 781 331 
L 781 2994 
L 231 2994 
L 231 3322 
L 1356 3322 
L 1356 2731 
Q 1525 3078 1790 3245 
Q 2056 3413 2438 3413 
Q 2578 3413 2733 3391 
Q 2888 3369 3059 3328 
z
" transform="scale(0.015625)"/>
       <path id="DejaVuSerif-67" d="M 3359 2988 
L 3359 72 
Q 3359 -644 2965 -1033 
Q 2572 -1422 1844 -1422 
Q 1516 -1422 1216 -1362 
Q 916 -1303 641 -1184 
L 641 -488 
L 941 -488 
Q 997 -813 1206 -963 
Q 1416 -1113 1806 -1113 
Q 2313 -1113 2548 -827 
Q 2784 -541 2784 72 
L 2784 519 
Q 2616 206 2355 57 
Q 2094 -91 1709 -91 
Q 1097 -91 708 395 
Q 319 881 319 1663 
Q 319 2444 706 2928 
Q 1094 3413 1709 3413 
Q 2094 3413 2355 3264 
Q 2616 3116 2784 2803 
L 2784 3322 
L 3909 3322 
L 3909 2988 
L 3359 2988 
z
M 2784 1825 
Q 2784 2422 2554 2737 
Q 2325 3053 1888 3053 
Q 1444 3053 1217 2703 
Q 991 2353 991 1663 
Q 991 975 1217 622 
Q 1444 269 1888 269 
Q 2325 269 2554 583 
Q 2784 897 2784 1497 
L 2784 1825 
z
" transform="scale(0.015625)"/>
       <path id="DejaVuSerif-79" d="M 1381 -609 
L 1600 -56 
L 359 2988 
L -19 2988 
L -19 3322 
L 1509 3322 
L 1509 2988 
L 978 2988 
L 1913 703 
L 2847 2988 
L 2350 2988 
L 2350 3322 
L 3597 3322 
L 3597 2988 
L 3225 2988 
L 1703 -750 
Q 1547 -1138 1356 -1280 
Q 1166 -1422 819 -1422 
Q 672 -1422 517 -1397 
Q 363 -1372 206 -1325 
L 206 -691 
L 500 -691 
Q 519 -903 608 -995 
Q 697 -1088 884 -1088 
Q 1056 -1088 1161 -992 
Q 1266 -897 1381 -609 
z
" transform="scale(0.015625)"/>
       <path id="DejaVuSerif-43" d="M 4513 1234 
Q 4306 581 3820 245 
Q 3334 -91 2591 -91 
Q 2134 -91 1743 65 
Q 1353 222 1050 525 
Q 700 875 529 1320 
Q 359 1766 359 2328 
Q 359 3416 987 4083 
Q 1616 4750 2644 4750 
Q 3025 4750 3456 4650 
Q 3888 4550 4384 4347 
L 4384 3272 
L 4031 3272 
Q 3916 3859 3567 4137 
Q 3219 4416 2591 4416 
Q 1844 4416 1459 3886 
Q 1075 3356 1075 2328 
Q 1075 1303 1459 773 
Q 1844 244 2591 244 
Q 3113 244 3450 492 
Q 3788 741 3938 1234 
L 4513 1234 
z
" transform="scale(0.015625)"/>
       <path id="DejaVuSerif-6f" d="M 1925 219 
Q 2388 219 2623 584 
Q 2859 950 2859 1663 
Q 2859 2375 2623 2739 
Q 2388 3103 1925 3103 
Q 1463 3103 1227 2739 
Q 991 2375 991 1663 
Q 991 950 1228 584 
Q 1466 219 1925 219 
z
M 1925 -91 
Q 1200 -91 759 389 
Q 319 869 319 1663 
Q 319 2456 758 2934 
Q 1197 3413 1925 3413 
Q 2653 3413 3092 2934 
Q 3531 2456 3531 1663 
Q 3531 869 3092 389 
Q 2653 -91 1925 -91 
z
" transform="scale(0.015625)"/>
       <path id="DejaVuSerif-70" d="M 1313 1825 
L 1313 1497 
Q 1313 897 1542 583 
Q 1772 269 2209 269 
Q 2650 269 2876 622 
Q 3103 975 3103 1663 
Q 3103 2353 2876 2703 
Q 2650 3053 2209 3053 
Q 1772 3053 1542 2737 
Q 1313 2422 1313 1825 
z
M 738 2988 
L 184 2988 
L 184 3322 
L 1313 3322 
L 1313 2803 
Q 1481 3116 1742 3264 
Q 2003 3413 2388 3413 
Q 3000 3413 3387 2928 
Q 3775 2444 3775 1663 
Q 3775 881 3387 395 
Q 3000 -91 2388 -91 
Q 2003 -91 1742 57 
Q 1481 206 1313 519 
L 1313 -997 
L 1856 -997 
L 1856 -1331 
L 184 -1331 
L 184 -997 
L 738 -997 
L 738 2988 
z
" transform="scale(0.015625)"/>
       <path id="DejaVuSerif-74" d="M 691 2988 
L 184 2988 
L 184 3322 
L 691 3322 
L 691 4353 
L 1269 4353 
L 1269 3322 
L 2350 3322 
L 2350 2988 
L 1269 2988 
L 1269 878 
Q 1269 456 1350 337 
Q 1431 219 1650 219 
Q 1875 219 1978 351 
Q 2081 484 2088 781 
L 2522 781 
Q 2497 328 2275 118 
Q 2053 -91 1600 -91 
Q 1103 -91 897 129 
Q 691 350 691 878 
L 691 2988 
z
" transform="scale(0.015625)"/>
       <path id="DejaVuSerif-73" d="M 359 184 
L 359 959 
L 691 959 
Q 703 588 923 403 
Q 1144 219 1575 219 
Q 1963 219 2166 364 
Q 2369 509 2369 788 
Q 2369 1006 2220 1140 
Q 2072 1275 1594 1428 
L 1178 1569 
Q 750 1706 558 1912 
Q 366 2119 366 2438 
Q 366 2894 700 3153 
Q 1034 3413 1625 3413 
Q 1888 3413 2178 3344 
Q 2469 3275 2778 3144 
L 2778 2419 
L 2447 2419 
Q 2434 2741 2221 2922 
Q 2009 3103 1644 3103 
Q 1281 3103 1095 2975 
Q 909 2847 909 2591 
Q 909 2381 1050 2254 
Q 1191 2128 1613 1997 
L 2069 1856 
Q 2541 1709 2748 1489 
Q 2956 1269 2956 922 
Q 2956 450 2595 179 
Q 2234 -91 1600 -91 
Q 1278 -91 972 -22 
Q 666 47 359 184 
z
" transform="scale(0.015625)"/>
      </defs>
      <use xlink:href="#DejaVuSerif-45"/>
      <use xlink:href="#DejaVuSerif-6e" x="72.998047"/>
      <use xlink:href="#DejaVuSerif-65" x="137.402344"/>
      <use xlink:href="#DejaVuSerif-72" x="196.582031"/>
      <use xlink:href="#DejaVuSerif-67" x="244.384766"/>
      <use xlink:href="#DejaVuSerif-79" x="308.398438"/>
      <use xlink:href="#DejaVuSerif-20" x="364.892578"/>
      <use xlink:href="#DejaVuSerif-43" x="396.679688"/>
      <use xlink:href="#DejaVuSerif-6f" x="473.193359"/>
      <use xlink:href="#DejaVuSerif-6d" x="533.398438"/>
      <use xlink:href="#DejaVuSerif-70" x="628.222656"/>
      <use xlink:href="#DejaVuSerif-6f" x="692.236328"/>
      <use xlink:href="#DejaVuSerif-6e" x="752.441406"/>
      <use xlink:href="#DejaVuSerif-65" x="816.845703"/>
      <use xlink:href="#DejaVuSerif-6e" x="876.025391"/>
      <use xlink:href="#DejaVuSerif-74" x="940.429688"/>
      <use xlink:href="#DejaVuSerif-73" x="980.615234"/>
      <use xlink:href="#DejaVuSerif-20" x="1031.933594"/>
      <use xlink:href="#DejaVuSerif-28" x="1063.720703"/>
      <use xlink:href="#DejaVuSerif-61" x="1102.734375"/>
      <use xlink:href="#DejaVuSerif-2e" x="1162.353516"/>
      <use xlink:href="#DejaVuSerif-75" x="1194.140625"/>
      <use xlink:href="#DejaVuSerif-2e" x="1258.544922"/>
      <use xlink:href="#DejaVuSerif-29" x="1290.332031"/>
     </g>
    </g>
   </g>
   <g id="line2d_23">
    <path d="M 125.764773 74.73893 
L 131.211191 74.737186 
L 136.65761 74.735997 
L 142.104029 74.735538 
L 147.550448 74.735838 
L 152.996866 74.736785 
L 158.443285 74.738145 
L 163.889704 74.739604 
L 169.336123 74.740866 
L 174.782541 74.741694 
L 180.22896 74.741925 
L 185.675379 74.741516 
L 191.121798 74.740636 
L 196.568216 74.739514 
L 202.014635 74.738442 
L 207.461054 74.737701 
L 212.907472 74.737503 
L 218.353891 74.73796 
L 223.80031 74.739051 
L 229.246729 74.74059 
L 234.693147 74.742303 
L 240.139566 74.743866 
L 245.585985 74.744974 
L 251.032404 74.745393 
L 256.478822 74.745014 
L 261.925241 74.74388 
L 267.37166 74.742171 
L 272.818079 74.740172 
L 278.264497 74.738221 
L 283.710916 74.736631 
L 289.157335 74.73568 
L 294.603753 74.735521 
L 300.050172 74.736099 
L 305.496591 74.737184 
L 310.94301 74.738609 
L 316.389428 74.740038 
L 321.835847 74.741223 
L 327.282266 74.742007 
L 332.728685 74.742104 
L 338.175103 74.741359 
L 343.621522 74.74007 
L 349.067941 74.73895 
L 354.51436 74.738316 
L 359.960778 74.737761 
L 365.407197 74.737778 
L 370.853616 74.738412 
L 376.300034 74.739632 
L 381.746453 74.741246 
L 387.192872 74.742871 
L 392.639291 74.744223 
L 398.085709 74.745071 
L 403.532128 74.745214 
L 408.978547 74.744581 
L 414.424966 74.743214 
L 419.871384 74.741364 
L 425.317803 74.739419 
L 430.764222 74.737592 
L 436.21064 74.736242 
L 441.657059 74.735487 
L 447.103478 74.735455 
L 452.549897 74.736265 
L 457.996315 74.737741 
L 463.442734 74.739289 
L 468.889153 74.74042 
L 474.335572 74.741411 
L 479.78199 74.741876 
L 485.228409 74.741772 
L 490.674828 74.741124 
L 496.121247 74.740078 
L 501.567665 74.738995 
L 507.014084 74.738226 
L 512.460503 74.737846 
L 517.906921 74.738058 
L 523.35334 74.738854 
L 528.799759 74.740176 
L 534.246178 74.74182 
L 539.692596 74.74337 
L 545.139015 74.744506 
L 550.585434 74.745101 
L 556.031853 74.744966 
L 561.478271 74.744117 
L 566.92469 74.742594 
L 572.371109 74.7406 
L 577.817528 74.738606 
L 583.263946 74.737032 
L 588.710365 74.735893 
L 594.156784 74.735459 
L 599.603202 74.73572 
L 605.049621 74.736642 
L 610.49604 74.738074 
L 615.942459 74.73961 
L 621.388877 74.740798 
L 626.835296 74.741646 
L 632.281715 74.741937 
L 637.728134 74.741678 
L 643.174552 74.740932 
L 648.620971 74.739853 
L 654.06739 74.738803 
L 659.513809 74.738175 
L 664.960227 74.737983 
" clip-path="url(#pc9377d42c4)" style="fill: none; stroke: #1f77b4; stroke-width: 3; stroke-linecap: square"/>
   </g>
   <g id="line2d_24">
    <path d="M 125.764773 403.041655 
L 131.211191 403.043417 
L 136.65761 403.044344 
L 142.104029 403.044315 
L 147.550448 403.043394 
L 152.996866 403.041806 
L 158.443285 403.0399 
L 163.889704 403.038065 
L 169.336123 403.036659 
L 174.782541 403.035942 
L 180.22896 403.036006 
L 185.675379 403.036765 
L 191.121798 403.038005 
L 196.568216 403.039392 
L 202.014635 403.040568 
L 207.461054 403.04121 
L 212.907472 403.041099 
L 218.353891 403.040201 
L 223.80031 403.038676 
L 229.246729 403.036769 
L 234.693147 403.034849 
L 240.139566 403.033301 
L 245.585985 403.032458 
L 251.032404 403.032561 
L 256.478822 403.033642 
L 261.925241 403.035483 
L 267.37166 403.037796 
L 272.818079 403.040251 
L 278.264497 403.042406 
L 283.710916 403.043937 
L 289.157335 403.044545 
L 294.603753 403.044107 
L 300.050172 403.042835 
L 305.496591 403.04117 
L 310.94301 403.039264 
L 316.389428 403.037545 
L 321.835847 403.036273 
L 327.282266 403.03556 
L 332.728685 403.035736 
L 338.175103 403.036968 
L 343.621522 403.038784 
L 349.067941 403.040131 
L 354.51436 403.040625 
L 359.960778 403.041024 
L 365.407197 403.040688 
L 370.853616 403.039647 
L 376.300034 403.038013 
L 381.746453 403.036075 
L 387.192872 403.03433 
L 392.639291 403.0331 
L 398.085709 403.032609 
L 403.532128 403.033016 
L 408.978547 403.034313 
L 414.424966 403.036365 
L 419.871384 403.038793 
L 425.317803 403.041087 
L 430.764222 403.043009 
L 436.21064 403.044174 
L 441.657059 403.044529 
L 447.103478 403.044009 
L 452.549897 403.042535 
L 457.996315 403.040389 
L 463.442734 403.038373 
L 468.889153 403.0371 
L 474.335572 403.03612 
L 479.78199 403.035857 
L 485.228409 403.036286 
L 490.674828 403.0373 
L 496.121247 403.038668 
L 501.567665 403.039927 
L 507.014084 403.040666 
L 512.460503 403.040844 
L 517.906921 403.04029 
L 523.35334 403.039095 
L 528.799759 403.037397 
L 534.246178 403.035493 
L 539.692596 403.033897 
L 545.139015 403.032971 
L 550.585434 403.0328 
L 556.031853 403.033525 
L 561.478271 403.035033 
L 566.92469 403.037193 
L 572.371109 403.039705 
L 577.817528 403.041976 
L 583.263946 403.043519 
L 588.710365 403.044383 
L 594.156784 403.044328 
L 599.603202 403.043459 
L 605.049621 403.041903 
L 610.49604 403.039907 
L 615.942459 403.037985 
L 621.388877 403.036668 
L 626.835296 403.035895 
L 632.281715 403.035857 
L 637.728134 403.036465 
L 643.174552 403.037569 
L 648.620971 403.038933 
L 654.06739 403.040114 
L 659.513809 403.040661 
L 664.960227 403.040613 
" clip-path="url(#pc9377d42c4)" style="fill: none; stroke: #ff7f0e; stroke-width: 3; stroke-linecap: square"/>
   </g>
   <g id="line2d_25">
    <path d="M 125.764773 138.808332 
L 131.211191 138.808112 
L 136.65761 138.807996 
L 142.104029 138.807999 
L 147.550448 138.808115 
L 152.996866 138.808313 
L 158.443285 138.808551 
L 163.889704 138.808781 
L 169.336123 138.808956 
L 174.782541 138.809046 
L 180.22896 138.809038 
L 185.675379 138.808943 
L 191.121798 138.808788 
L 196.568216 138.808615 
L 202.014635 138.808468 
L 207.461054 138.808388 
L 212.907472 138.808401 
L 218.353891 138.808514 
L 223.80031 138.808704 
L 229.246729 138.808943 
L 234.693147 138.809183 
L 240.139566 138.809376 
L 245.585985 138.809482 
L 251.032404 138.809469 
L 256.478822 138.809334 
L 261.925241 138.809103 
L 267.37166 138.808814 
L 272.818079 138.808507 
L 278.264497 138.808238 
L 283.710916 138.808047 
L 289.157335 138.807971 
L 294.603753 138.808025 
L 300.050172 138.808184 
L 305.496591 138.808393 
L 310.94301 138.808631 
L 316.389428 138.808846 
L 321.835847 138.809005 
L 327.282266 138.809094 
L 332.728685 138.809072 
L 338.175103 138.808918 
L 343.621522 138.808691 
L 349.067941 138.808522 
L 354.51436 138.808461 
L 359.960778 138.808411 
L 365.407197 138.808453 
L 370.853616 138.808583 
L 376.300034 138.808787 
L 381.746453 138.809029 
L 387.192872 138.809248 
L 392.639291 138.809401 
L 398.085709 138.809463 
L 403.532128 138.809412 
L 408.978547 138.80925 
L 414.424966 138.808993 
L 419.871384 138.80869 
L 425.317803 138.808403 
L 430.764222 138.808163 
L 436.21064 138.808017 
L 441.657059 138.807973 
L 447.103478 138.808038 
L 452.549897 138.808222 
L 457.996315 138.80849 
L 463.442734 138.808742 
L 468.889153 138.808901 
L 474.335572 138.809024 
L 479.78199 138.809057 
L 485.228409 138.809003 
L 490.674828 138.808876 
L 496.121247 138.808705 
L 501.567665 138.808548 
L 507.014084 138.808456 
L 512.460503 138.808433 
L 517.906921 138.808503 
L 523.35334 138.808652 
L 528.799759 138.808864 
L 534.246178 138.809102 
L 539.692596 138.809302 
L 545.139015 138.809417 
L 550.585434 138.809439 
L 556.031853 138.809348 
L 561.478271 138.80916 
L 566.92469 138.80889 
L 572.371109 138.808576 
L 577.817528 138.808292 
L 583.263946 138.808099 
L 588.710365 138.807991 
L 594.156784 138.807998 
L 599.603202 138.808106 
L 605.049621 138.808301 
L 610.49604 138.80855 
L 615.942459 138.808791 
L 621.388877 138.808955 
L 626.835296 138.809052 
L 632.281715 138.809057 
L 637.728134 138.808981 
L 643.174552 138.808843 
L 648.620971 138.808672 
L 654.06739 138.808525 
L 659.513809 138.808456 
L 664.960227 138.808462 
" clip-path="url(#pc9377d42c4)" style="fill: none; stroke: #2ca02c; stroke-width: 3; stroke-linecap: square"/>
   </g>
   <g id="line2d_26">
    <path d="M 125.764773 158.824813 
L 131.211191 158.825015 
L 136.65761 158.825392 
L 142.104029 158.825877 
L 147.550448 158.826382 
L 152.996866 158.826825 
L 158.443285 158.827133 
L 163.889704 158.82728 
L 169.336123 158.827248 
L 174.782541 158.827048 
L 180.22896 158.826761 
L 185.675379 158.826506 
L 191.121798 158.826301 
L 196.568216 158.826209 
L 202.014635 158.826252 
L 207.461054 158.826431 
L 212.907472 158.826725 
L 218.353891 158.827055 
L 223.80031 158.827298 
L 229.246729 158.827428 
L 234.693147 158.827395 
L 240.139566 158.827187 
L 245.585985 158.826817 
L 251.032404 158.826308 
L 256.478822 158.825741 
L 261.925241 158.825264 
L 267.37166 158.824949 
L 272.818079 158.8248 
L 278.264497 158.824864 
L 283.710916 158.825114 
L 289.157335 158.825533 
L 294.603753 158.826075 
L 300.050172 158.826611 
L 305.496591 158.826983 
L 310.94301 158.827225 
L 316.389428 158.827301 
L 321.835847 158.827229 
L 327.282266 158.827069 
L 332.728685 158.826819 
L 338.175103 158.826485 
L 343.621522 158.826185 
L 349.067941 158.826126 
L 354.51436 158.826327 
L 359.960778 158.826534 
L 365.407197 158.82681 
L 370.853616 158.827087 
L 376.300034 158.827297 
L 381.746453 158.827379 
L 387.192872 158.827282 
L 392.639291 158.827006 
L 398.085709 158.826588 
L 403.532128 158.826089 
L 408.978547 158.825586 
L 414.424966 158.825158 
L 419.871384 158.824883 
L 425.317803 158.824821 
L 430.764222 158.824965 
L 436.21064 158.825296 
L 441.657059 158.82574 
L 447.103478 158.826227 
L 452.549897 158.826708 
L 457.996315 158.827109 
L 463.442734 158.827325 
L 468.889153 158.827308 
L 474.335572 158.827175 
L 479.78199 158.82694 
L 485.228409 158.826668 
L 490.674828 158.826429 
L 496.121247 158.826278 
L 501.567665 158.826259 
L 507.014084 158.826382 
L 512.460503 158.826606 
L 517.906921 158.826879 
L 523.35334 158.827129 
L 528.799759 158.827292 
L 534.246178 158.827315 
L 539.692596 158.827161 
L 545.139015 158.826836 
L 550.585434 158.826391 
L 556.031853 158.825891 
L 561.478271 158.825421 
L 566.92469 158.825053 
L 572.371109 158.824849 
L 577.817528 158.824856 
L 583.263946 158.82508 
L 588.710365 158.825462 
L 594.156784 158.825945 
L 599.603202 158.826444 
L 605.049621 158.826883 
L 610.49604 158.827197 
L 615.942459 158.827344 
L 621.388877 158.827309 
L 626.835296 158.827137 
L 632.281715 158.826879 
L 637.728134 158.826606 
L 643.174552 158.826387 
L 648.620971 158.826271 
L 654.06739 158.826288 
L 659.513809 158.826436 
L 664.960227 158.826672 
" clip-path="url(#pc9377d42c4)" style="fill: none; stroke: #d62728; stroke-width: 3; stroke-linecap: square"/>
   </g>
   <g id="line2d_27">
    <path d="M 125.764773 168.16759 
L 131.211191 168.16759 
L 136.65761 168.16759 
L 142.104029 168.16759 
L 147.550448 168.16759 
L 152.996866 168.16759 
L 158.443285 168.16759 
L 163.889704 168.16759 
L 169.336123 168.16759 
L 174.782541 168.16759 
L 180.22896 168.16759 
L 185.675379 168.16759 
L 191.121798 168.16759 
L 196.568216 168.16759 
L 202.014635 168.16759 
L 207.461054 168.16759 
L 212.907472 168.16759 
L 218.353891 168.16759 
L 223.80031 168.16759 
L 229.246729 168.16759 
L 234.693147 168.16759 
L 240.139566 168.16759 
L 245.585985 168.16759 
L 251.032404 168.16759 
L 256.478822 168.16759 
L 261.925241 168.16759 
L 267.37166 168.16759 
L 272.818079 168.16759 
L 278.264497 168.16759 
L 283.710916 168.16759 
L 289.157335 168.16759 
L 294.603753 168.16759 
L 300.050172 168.16759 
L 305.496591 168.16759 
L 310.94301 168.16759 
L 316.389428 168.16759 
L 321.835847 168.16759 
L 327.282266 168.16759 
L 332.728685 168.16759 
L 338.175103 168.16759 
L 343.621522 168.16759 
L 349.067941 168.16759 
L 354.51436 168.16759 
L 359.960778 168.16759 
L 365.407197 168.16759 
L 370.853616 168.16759 
L 376.300034 168.16759 
L 381.746453 168.16759 
L 387.192872 168.16759 
L 392.639291 168.16759 
L 398.085709 168.16759 
L 403.532128 168.16759 
L 408.978547 168.16759 
L 414.424966 168.16759 
L 419.871384 168.16759 
L 425.317803 168.16759 
L 430.764222 168.16759 
L 436.21064 168.16759 
L 441.657059 168.16759 
L 447.103478 168.16759 
L 452.549897 168.16759 
L 457.996315 168.16759 
L 463.442734 168.16759 
L 468.889153 168.16759 
L 474.335572 168.16759 
L 479.78199 168.16759 
L 485.228409 168.16759 
L 490.674828 168.16759 
L 496.121247 168.16759 
L 501.567665 168.16759 
L 507.014084 168.16759 
L 512.460503 168.16759 
L 517.906921 168.16759 
L 523.35334 168.16759 
L 528.799759 168.16759 
L 534.246178 168.16759 
L 539.692596 168.16759 
L 545.139015 168.16759 
L 550.585434 168.16759 
L 556.031853 168.16759 
L 561.478271 168.16759 
L 566.92469 168.16759 
L 572.371109 168.16759 
L 577.817528 168.16759 
L 583.263946 168.16759 
L 588.710365 168.16759 
L 594.156784 168.16759 
L 599.603202 168.16759 
L 605.049621 168.16759 
L 610.49604 168.16759 
L 615.942459 168.16759 
L 621.388877 168.16759 
L 626.835296 168.16759 
L 632.281715 168.16759 
L 637.728134 168.16759 
L 643.174552 168.16759 
L 648.620971 168.16759 
L 654.06739 168.16759 
L 659.513809 168.16759 
L 664.960227 168.16759 
" clip-path="url(#pc9377d42c4)" style="fill: none; stroke: #9467bd; stroke-width: 3; stroke-linecap: square"/>
   </g>
   <g id="line2d_28">
    <path d="M 125.764773 270.910959 
L 131.211191 270.910959 
L 136.65761 270.910959 
L 142.104029 270.910959 
L 147.550448 270.910959 
L 152.996866 270.910959 
L 158.443285 270.910959 
L 163.889704 270.910959 
L 169.336123 270.91096 
L 174.782541 270.91096 
L 180.22896 270.91096 
L 185.675379 270.91096 
L 191.121798 270.910959 
L 196.568216 270.910959 
L 202.014635 270.910959 
L 207.461054 270.910959 
L 212.907472 270.910959 
L 218.353891 270.910959 
L 223.80031 270.910959 
L 229.246729 270.910959 
L 234.693147 270.91096 
L 240.139566 270.91096 
L 245.585985 270.91096 
L 251.032404 270.91096 
L 256.478822 270.91096 
L 261.925241 270.91096 
L 267.37166 270.91096 
L 272.818079 270.910959 
L 278.264497 270.910959 
L 283.710916 270.910959 
L 289.157335 270.910959 
L 294.603753 270.910959 
L 300.050172 270.910959 
L 305.496591 270.910959 
L 310.94301 270.910959 
L 316.389428 270.910959 
L 321.835847 270.91096 
L 327.282266 270.91096 
L 332.728685 270.91096 
L 338.175103 270.91096 
L 343.621522 270.910959 
L 349.067941 270.910959 
L 354.51436 270.910959 
L 359.960778 270.910959 
L 365.407197 270.910959 
L 370.853616 270.910959 
L 376.300034 270.910959 
L 381.746453 270.91096 
L 387.192872 270.91096 
L 392.639291 270.91096 
L 398.085709 270.91096 
L 403.532128 270.91096 
L 408.978547 270.91096 
L 414.424966 270.91096 
L 419.871384 270.91096 
L 425.317803 270.910959 
L 430.764222 270.910959 
L 436.21064 270.910959 
L 441.657059 270.910959 
L 447.103478 270.910959 
L 452.549897 270.910959 
L 457.996315 270.910959 
L 463.442734 270.910959 
L 468.889153 270.910959 
L 474.335572 270.91096 
L 479.78199 270.91096 
L 485.228409 270.91096 
L 490.674828 270.91096 
L 496.121247 270.910959 
L 501.567665 270.910959 
L 507.014084 270.910959 
L 512.460503 270.910959 
L 517.906921 270.910959 
L 523.35334 270.910959 
L 528.799759 270.910959 
L 534.246178 270.91096 
L 539.692596 270.91096 
L 545.139015 270.91096 
L 550.585434 270.91096 
L 556.031853 270.91096 
L 561.478271 270.91096 
L 566.92469 270.91096 
L 572.371109 270.910959 
L 577.817528 270.910959 
L 583.263946 270.910959 
L 588.710365 270.910959 
L 594.156784 270.910959 
L 599.603202 270.910959 
L 605.049621 270.910959 
L 610.49604 270.910959 
L 615.942459 270.910959 
L 621.388877 270.91096 
L 626.835296 270.91096 
L 632.281715 270.91096 
L 637.728134 270.91096 
L 643.174552 270.91096 
L 648.620971 270.910959 
L 654.06739 270.910959 
L 659.513809 270.910959 
L 664.960227 270.910959 
" clip-path="url(#pc9377d42c4)" style="fill: none; stroke-dasharray: 11.1,4.8; stroke-dashoffset: 0; stroke: #000000; stroke-width: 3"/>
   </g>
   <g id="patch_3">
    <path d="M 98.805 419.46 
L 98.805 58.32 
" style="fill: none; stroke: #000000; stroke-width: 2; stroke-linejoin: miter; stroke-linecap: square"/>
   </g>
   <g id="patch_4">
    <path d="M 691.92 419.46 
L 691.92 58.32 
" style="fill: none; stroke: #000000; stroke-width: 2; stroke-linejoin: miter; stroke-linecap: square"/>
   </g>
   <g id="patch_5">
    <path d="M 98.805 419.46 
L 691.92 419.46 
" style="fill: none; stroke: #000000; stroke-width: 2; stroke-linejoin: miter; stroke-linecap: square"/>
   </g>
   <g id="patch_6">
    <path d="M 98.805 58.32 
L 691.92 58.32 
" style="fill: none; stroke: #000000; stroke-width: 2; stroke-linejoin: miter; stroke-linecap: square"/>
   </g>
   <g id="text_14">
    <!-- Energy Components vs. Time -->
    <g transform="translate(163.26375 51.38775) scale(0.312 -0.312)">
     <defs>
      <path id="DejaVuSerif-76" d="M 1581 0 
L 359 2988 
L -19 2988 
L -19 3322 
L 1509 3322 
L 1509 2988 
L 978 2988 
L 1913 703 
L 2847 2988 
L 2350 2988 
L 2350 3322 
L 3597 3322 
L 3597 2988 
L 3225 2988 
L 2003 0 
L 1581 0 
z
" transform="scale(0.015625)"/>
     </defs>
     <use xlink:href="#DejaVuSerif-45"/>
     <use xlink:href="#DejaVuSerif-6e" x="72.998047"/>
     <use xlink:href="#DejaVuSerif-65" x="137.402344"/>
     <use xlink:href="#DejaVuSerif-72" x="196.582031"/>
     <use xlink:href="#DejaVuSerif-67" x="244.384766"/>
     <use xlink:href="#DejaVuSerif-79" x="308.398438"/>
     <use xlink:href="#DejaVuSerif-20" x="364.892578"/>
     <use xlink:href="#DejaVuSerif-43" x="396.679688"/>
     <use xlink:href="#DejaVuSerif-6f" x="473.193359"/>
     <use xlink:href="#DejaVuSerif-6d" x="533.398438"/>
     <use xlink:href="#DejaVuSerif-70" x="628.222656"/>
     <use xlink:href="#DejaVuSerif-6f" x="692.236328"/>
     <use xlink:href="#DejaVuSerif-6e" x="752.441406"/>
     <use xlink:href="#DejaVuSerif-65" x="816.845703"/>
     <use xlink:href="#DejaVuSerif-6e" x="876.025391"/>
     <use xlink:href="#DejaVuSerif-74" x="940.429688"/>
     <use xlink:href="#DejaVuSerif-73" x="980.615234"/>
     <use xlink:href="#DejaVuSerif-20" x="1031.933594"/>
     <use xlink:href="#DejaVuSerif-76" x="1063.720703"/>
     <use xlink:href="#DejaVuSerif-73" x="1120.214844"/>
     <use xlink:href="#DejaVuSerif-2e" x="1171.533203"/>
     <use xlink:href="#DejaVuSerif-20" x="1203.320312"/>
     <use xlink:href="#DejaVuSerif-54" x="1235.107422"/>
     <use xlink:href="#DejaVuSerif-69" x="1301.806641"/>
     <use xlink:href="#DejaVuSerif-6d" x="1333.789062"/>
     <use xlink:href="#DejaVuSerif-65" x="1428.613281"/>
    </g>
   </g>
   <g id="legend_1">
    <g id="patch_7">
     <path d="M 112.805 409.46 
L 328.876875 409.46 
Q 332.876875 409.46 332.876875 405.46 
L 332.876875 231.038125 
Q 332.876875 227.038125 328.876875 227.038125 
L 112.805 227.038125 
Q 108.805 227.038125 108.805 231.038125 
L 108.805 405.46 
Q 108.805 409.46 112.805 409.46 
z
" style="fill: #ffffff; opacity: 0.8; stroke: #cccccc; stroke-linejoin: miter"/>
    </g>
    <g id="line2d_29">
     <path d="M 116.805 243.235 
L 136.805 243.235 
L 156.805 243.235 
" style="fill: none; stroke: #1f77b4; stroke-width: 3; stroke-linecap: square"/>
    </g>
    <g id="text_15">
     <!-- Kinetic E -->
     <g transform="translate(172.805 250.235) scale(0.2 -0.2)">
      <defs>
       <path id="DejaVuSerif-4b" d="M 353 0 
L 353 331 
L 947 331 
L 947 4331 
L 353 4331 
L 353 4666 
L 2175 4666 
L 2175 4331 
L 1581 4331 
L 1581 2566 
L 3591 4331 
L 3084 4331 
L 3084 4666 
L 4634 4666 
L 4634 4331 
L 4109 4331 
L 2106 2572 
L 4347 331 
L 4878 331 
L 4878 0 
L 3794 0 
L 1581 2216 
L 1581 331 
L 2175 331 
L 2175 0 
L 353 0 
z
" transform="scale(0.015625)"/>
       <path id="DejaVuSerif-63" d="M 3291 997 
Q 3169 466 2822 187 
Q 2475 -91 1925 -91 
Q 1200 -91 759 389 
Q 319 869 319 1663 
Q 319 2459 759 2936 
Q 1200 3413 1925 3413 
Q 2241 3413 2553 3339 
Q 2866 3266 3181 3116 
L 3181 2266 
L 2847 2266 
Q 2781 2703 2561 2903 
Q 2341 3103 1931 3103 
Q 1466 3103 1228 2742 
Q 991 2381 991 1663 
Q 991 944 1227 581 
Q 1463 219 1931 219 
Q 2303 219 2525 412 
Q 2747 606 2828 997 
L 3291 997 
z
" transform="scale(0.015625)"/>
      </defs>
      <use xlink:href="#DejaVuSerif-4b"/>
      <use xlink:href="#DejaVuSerif-69" x="74.707031"/>
      <use xlink:href="#DejaVuSerif-6e" x="106.689453"/>
      <use xlink:href="#DejaVuSerif-65" x="171.09375"/>
      <use xlink:href="#DejaVuSerif-74" x="230.273438"/>
      <use xlink:href="#DejaVuSerif-69" x="270.458984"/>
      <use xlink:href="#DejaVuSerif-63" x="302.441406"/>
      <use xlink:href="#DejaVuSerif-20" x="358.447266"/>
      <use xlink:href="#DejaVuSerif-45" x="390.234375"/>
     </g>
    </g>
    <g id="line2d_30">
     <path d="M 116.805 272.59125 
L 136.805 272.59125 
L 156.805 272.59125 
" style="fill: none; stroke: #ff7f0e; stroke-width: 3; stroke-linecap: square"/>
    </g>
    <g id="text_16">
     <!-- PE e-N -->
     <g transform="translate(172.805 279.59125) scale(0.2 -0.2)">
      <defs>
       <path id="DejaVuSerif-50" d="M 1581 2375 
L 2406 2375 
Q 2872 2375 3115 2626 
Q 3359 2878 3359 3353 
Q 3359 3831 3115 4081 
Q 2872 4331 2406 4331 
L 1581 4331 
L 1581 2375 
z
M 353 0 
L 353 331 
L 947 331 
L 947 4331 
L 353 4331 
L 353 4666 
L 2559 4666 
Q 3259 4666 3668 4311 
Q 4078 3956 4078 3353 
Q 4078 2753 3668 2397 
Q 3259 2041 2559 2041 
L 1581 2041 
L 1581 331 
L 2303 331 
L 2303 0 
L 353 0 
z
" transform="scale(0.015625)"/>
       <path id="DejaVuSerif-2d" d="M 281 1959 
L 1881 1959 
L 1881 1472 
L 281 1472 
L 281 1959 
z
" transform="scale(0.015625)"/>
       <path id="DejaVuSerif-4e" d="M 313 0 
L 313 331 
L 941 331 
L 941 4331 
L 313 4331 
L 313 4666 
L 1509 4666 
L 4306 984 
L 4306 4331 
L 3681 4331 
L 3681 4666 
L 5319 4666 
L 5319 4331 
L 4691 4331 
L 4691 -91 
L 4313 -91 
L 1325 3841 
L 1325 331 
L 1953 331 
L 1953 0 
L 313 0 
z
" transform="scale(0.015625)"/>
      </defs>
      <use xlink:href="#DejaVuSerif-50"/>
      <use xlink:href="#DejaVuSerif-45" x="67.285156"/>
      <use xlink:href="#DejaVuSerif-20" x="140.283203"/>
      <use xlink:href="#DejaVuSerif-65" x="172.070312"/>
      <use xlink:href="#DejaVuSerif-2d" x="231.25"/>
      <use xlink:href="#DejaVuSerif-4e" x="265.039062"/>
     </g>
    </g>
    <g id="line2d_31">
     <path d="M 116.805 301.9475 
L 136.805 301.9475 
L 156.805 301.9475 
" style="fill: none; stroke: #2ca02c; stroke-width: 3; stroke-linecap: square"/>
    </g>
    <g id="text_17">
     <!-- PE e-e -->
     <g transform="translate(172.805 308.9475) scale(0.2 -0.2)">
      <use xlink:href="#DejaVuSerif-50"/>
      <use xlink:href="#DejaVuSerif-45" x="67.285156"/>
      <use xlink:href="#DejaVuSerif-20" x="140.283203"/>
      <use xlink:href="#DejaVuSerif-65" x="172.070312"/>
      <use xlink:href="#DejaVuSerif-2d" x="231.25"/>
      <use xlink:href="#DejaVuSerif-65" x="265.039062"/>
     </g>
    </g>
    <g id="line2d_32">
     <path d="M 116.805 331.30375 
L 136.805 331.30375 
L 156.805 331.30375 
" style="fill: none; stroke: #d62728; stroke-width: 3; stroke-linecap: square"/>
    </g>
    <g id="text_18">
     <!-- PE Heisenberg -->
     <g transform="translate(172.805 338.30375) scale(0.2 -0.2)">
      <defs>
       <path id="DejaVuSerif-48" d="M 353 0 
L 353 331 
L 947 331 
L 947 4331 
L 353 4331 
L 353 4666 
L 2175 4666 
L 2175 4331 
L 1581 4331 
L 1581 2719 
L 4000 2719 
L 4000 4331 
L 3406 4331 
L 3406 4666 
L 5228 4666 
L 5228 4331 
L 4634 4331 
L 4634 331 
L 5228 331 
L 5228 0 
L 3406 0 
L 3406 331 
L 4000 331 
L 4000 2338 
L 1581 2338 
L 1581 331 
L 2175 331 
L 2175 0 
L 353 0 
z
" transform="scale(0.015625)"/>
       <path id="DejaVuSerif-62" d="M 738 331 
L 738 4531 
L 184 4531 
L 184 4863 
L 1313 4863 
L 1313 2803 
Q 1481 3116 1742 3264 
Q 2003 3413 2388 3413 
Q 3000 3413 3387 2928 
Q 3775 2444 3775 1663 
Q 3775 881 3387 395 
Q 3000 -91 2388 -91 
Q 2003 -91 1742 57 
Q 1481 206 1313 519 
L 1313 0 
L 184 0 
L 184 331 
L 738 331 
z
M 1313 1497 
Q 1313 897 1542 583 
Q 1772 269 2209 269 
Q 2650 269 2876 622 
Q 3103 975 3103 1663 
Q 3103 2353 2876 2703 
Q 2650 3053 2209 3053 
Q 1772 3053 1542 2737 
Q 1313 2422 1313 1825 
L 1313 1497 
z
" transform="scale(0.015625)"/>
      </defs>
      <use xlink:href="#DejaVuSerif-50"/>
      <use xlink:href="#DejaVuSerif-45" x="67.285156"/>
      <use xlink:href="#DejaVuSerif-20" x="140.283203"/>
      <use xlink:href="#DejaVuSerif-48" x="172.070312"/>
      <use xlink:href="#DejaVuSerif-65" x="259.277344"/>
      <use xlink:href="#DejaVuSerif-69" x="318.457031"/>
      <use xlink:href="#DejaVuSerif-73" x="350.439453"/>
      <use xlink:href="#DejaVuSerif-65" x="401.757812"/>
      <use xlink:href="#DejaVuSerif-6e" x="460.9375"/>
      <use xlink:href="#DejaVuSerif-62" x="525.341797"/>
      <use xlink:href="#DejaVuSerif-65" x="589.355469"/>
      <use xlink:href="#DejaVuSerif-72" x="648.535156"/>
      <use xlink:href="#DejaVuSerif-67" x="696.337891"/>
     </g>
    </g>
    <g id="line2d_33">
     <path d="M 116.805 360.944375 
L 136.805 360.944375 
L 156.805 360.944375 
" style="fill: none; stroke: #9467bd; stroke-width: 3; stroke-linecap: square"/>
    </g>
    <g id="text_19">
     <!-- PE Pauli -->
     <g transform="translate(172.805 367.944375) scale(0.2 -0.2)">
      <defs>
       <path id="DejaVuSerif-6c" d="M 1313 331 
L 1856 331 
L 1856 0 
L 184 0 
L 184 331 
L 738 331 
L 738 4531 
L 184 4531 
L 184 4863 
L 1313 4863 
L 1313 331 
z
" transform="scale(0.015625)"/>
      </defs>
      <use xlink:href="#DejaVuSerif-50"/>
      <use xlink:href="#DejaVuSerif-45" x="67.285156"/>
      <use xlink:href="#DejaVuSerif-20" x="140.283203"/>
      <use xlink:href="#DejaVuSerif-50" x="172.070312"/>
      <use xlink:href="#DejaVuSerif-61" x="234.855469"/>
      <use xlink:href="#DejaVuSerif-75" x="294.474609"/>
      <use xlink:href="#DejaVuSerif-6c" x="358.878906"/>
      <use xlink:href="#DejaVuSerif-69" x="390.861328"/>
     </g>
    </g>
    <g id="line2d_34">
     <path d="M 116.805 390.300625 
L 136.805 390.300625 
L 156.805 390.300625 
" style="fill: none; stroke-dasharray: 11.1,4.8; stroke-dashoffset: 0; stroke: #000000; stroke-width: 3"/>
    </g>
    <g id="text_20">
     <!-- Total E -->
     <g transform="translate(172.805 397.300625) scale(0.2 -0.2)">
      <use xlink:href="#DejaVuSerif-54"/>
      <use xlink:href="#DejaVuSerif-6f" x="58.949219"/>
      <use xlink:href="#DejaVuSerif-74" x="119.154297"/>
      <use xlink:href="#DejaVuSerif-61" x="159.339844"/>
      <use xlink:href="#DejaVuSerif-6c" x="218.958984"/>
      <use xlink:href="#DejaVuSerif-20" x="250.941406"/>
      <use xlink:href="#DejaVuSerif-45" x="282.728516"/>
     </g>
    </g>
   </g>
  </g>
 </g>
 <defs>
  <clipPath id="pc9377d42c4">
   <rect x="98.805" y="58.32" width="593.115" height="361.14"/>
  </clipPath>
 </defs>
</svg>
