<?xml version="1.0" encoding="utf-8" standalone="no"?>
<!DOCTYPE svg PUBLIC "-//W3C//DTD SVG 1.1//EN"
  "http://www.w3.org/Graphics/SVG/1.1/DTD/svg11.dtd">
<svg xmlns:xlink="http://www.w3.org/1999/xlink" width="720pt" height="504pt" viewBox="0 0 720 504" xmlns="http://www.w3.org/2000/svg" version="1.1">
 <metadata>
  <rdf:RDF xmlns:dc="http://purl.org/dc/elements/1.1/" xmlns:cc="http://creativecommons.org/ns#" xmlns:rdf="http://www.w3.org/1999/02/22-rdf-syntax-ns#">
   <cc:Work>
    <dc:type rdf:resource="http://purl.org/dc/dcmitype/StillImage"/>
    <dc:date>2025-05-29T09:04:18.932589</dc:date>
    <dc:format>image/svg+xml</dc:format>
    <dc:creator>
     <cc:Agent>
      <dc:title>Matplotlib v3.7.2, https://matplotlib.org/</dc:title>
     </cc:Agent>
    </dc:creator>
   </cc:Work>
  </rdf:RDF>
 </metadata>
 <defs>
  <style type="text/css">*{stroke-linejoin: round; stroke-linecap: butt}</style>
 </defs>
 <g id="figure_1">
  <g id="patch_1">
   <path d="M 0 504 
L 720 504 
L 720 0 
L 0 0 
z
" style="fill: #ffffff"/>
  </g>
  <g id="axes_1">
   <g id="patch_2">
    <path d="M 98.805 419.46 
L 691.92 419.46 
L 691.92 58.32 
L 98.805 58.32 
z
" style="fill: #ffffff"/>
   </g>
   <g id="matplotlib.axis_1">
    <g id="xtick_1">
     <g id="line2d_1">
      <path d="M 125.764773 419.46 
L 125.764773 58.32 
" clip-path="url(#pb68e077a7e)" style="fill: none; stroke-dasharray: 3.7,1.6; stroke-dashoffset: 0; stroke: #b0b0b0"/>
     </g>
     <g id="line2d_2">
      <defs>
       <path id="m83da5911e6" d="M 0 0 
L 0 -10 
" style="stroke: #000000; stroke-width: 2"/>
      </defs>
      <g>
       <use xlink:href="#m83da5911e6" x="125.764773" y="419.46" style="stroke: #000000; stroke-width: 2"/>
      </g>
     </g>
     <g id="text_1">
      <!-- 0 -->
      <g transform="translate(117.493523 442.715937) scale(0.26 -0.26)">
       <defs>
        <path id="DejaVuSerif-30" d="M 2034 219 
Q 2513 219 2750 744 
Q 2988 1269 2988 2328 
Q 2988 3391 2750 3916 
Q 2513 4441 2034 4441 
Q 1556 4441 1318 3916 
Q 1081 3391 1081 2328 
Q 1081 1269 1318 744 
Q 1556 219 2034 219 
z
M 2034 -91 
Q 1275 -91 848 546 
Q 422 1184 422 2328 
Q 422 3475 848 4112 
Q 1275 4750 2034 4750 
Q 2797 4750 3222 4112 
Q 3647 3475 3647 2328 
Q 3647 1184 3222 546 
Q 2797 -91 2034 -91 
z
" transform="scale(0.015625)"/>
       </defs>
       <use xlink:href="#DejaVuSerif-30"/>
      </g>
     </g>
    </g>
    <g id="xtick_2">
     <g id="line2d_3">
      <path d="M 233.603864 419.46 
L 233.603864 58.32 
" clip-path="url(#pb68e077a7e)" style="fill: none; stroke-dasharray: 3.7,1.6; stroke-dashoffset: 0; stroke: #b0b0b0"/>
     </g>
     <g id="line2d_4">
      <g>
       <use xlink:href="#m83da5911e6" x="233.603864" y="419.46" style="stroke: #000000; stroke-width: 2"/>
      </g>
     </g>
     <g id="text_2">
      <!-- 1 -->
      <g transform="translate(225.332614 442.715937) scale(0.26 -0.26)">
       <defs>
        <path id="DejaVuSerif-31" d="M 909 0 
L 909 331 
L 1722 331 
L 1722 4213 
L 781 3603 
L 781 4013 
L 1919 4750 
L 2350 4750 
L 2350 331 
L 3163 331 
L 3163 0 
L 909 0 
z
" transform="scale(0.015625)"/>
       </defs>
       <use xlink:href="#DejaVuSerif-31"/>
      </g>
     </g>
    </g>
    <g id="xtick_3">
     <g id="line2d_5">
      <path d="M 341.442955 419.46 
L 341.442955 58.32 
" clip-path="url(#pb68e077a7e)" style="fill: none; stroke-dasharray: 3.7,1.6; stroke-dashoffset: 0; stroke: #b0b0b0"/>
     </g>
     <g id="line2d_6">
      <g>
       <use xlink:href="#m83da5911e6" x="341.442955" y="419.46" style="stroke: #000000; stroke-width: 2"/>
      </g>
     </g>
     <g id="text_3">
      <!-- 2 -->
      <g transform="translate(333.171705 442.715937) scale(0.26 -0.26)">
       <defs>
        <path id="DejaVuSerif-32" d="M 819 3553 
L 469 3553 
L 469 4384 
Q 803 4563 1142 4656 
Q 1481 4750 1806 4750 
Q 2534 4750 2956 4397 
Q 3378 4044 3378 3438 
Q 3378 2753 2422 1800 
Q 2347 1728 2309 1691 
L 1131 513 
L 3078 513 
L 3078 1088 
L 3444 1088 
L 3444 0 
L 434 0 
L 434 341 
L 1850 1753 
Q 2319 2222 2519 2614 
Q 2719 3006 2719 3438 
Q 2719 3909 2473 4175 
Q 2228 4441 1797 4441 
Q 1350 4441 1106 4219 
Q 863 3997 819 3553 
z
" transform="scale(0.015625)"/>
       </defs>
       <use xlink:href="#DejaVuSerif-32"/>
      </g>
     </g>
    </g>
    <g id="xtick_4">
     <g id="line2d_7">
      <path d="M 449.282045 419.46 
L 449.282045 58.32 
" clip-path="url(#pb68e077a7e)" style="fill: none; stroke-dasharray: 3.7,1.6; stroke-dashoffset: 0; stroke: #b0b0b0"/>
     </g>
     <g id="line2d_8">
      <g>
       <use xlink:href="#m83da5911e6" x="449.282045" y="419.46" style="stroke: #000000; stroke-width: 2"/>
      </g>
     </g>
     <g id="text_4">
      <!-- 3 -->
      <g transform="translate(441.010795 442.715937) scale(0.26 -0.26)">
       <defs>
        <path id="DejaVuSerif-33" d="M 622 4469 
Q 988 4606 1323 4678 
Q 1659 4750 1953 4750 
Q 2638 4750 3022 4454 
Q 3406 4159 3406 3634 
Q 3406 3213 3140 2930 
Q 2875 2647 2388 2547 
Q 2963 2466 3280 2130 
Q 3597 1794 3597 1259 
Q 3597 606 3158 257 
Q 2719 -91 1894 -91 
Q 1528 -91 1179 -12 
Q 831 66 488 225 
L 488 1131 
L 838 1131 
Q 869 681 1141 450 
Q 1413 219 1906 219 
Q 2384 219 2661 495 
Q 2938 772 2938 1253 
Q 2938 1803 2653 2086 
Q 2369 2369 1819 2369 
L 1522 2369 
L 1522 2688 
L 1678 2688 
Q 2225 2688 2498 2914 
Q 2772 3141 2772 3597 
Q 2772 4006 2547 4223 
Q 2322 4441 1900 4441 
Q 1478 4441 1245 4241 
Q 1013 4041 972 3647 
L 622 3647 
L 622 4469 
z
" transform="scale(0.015625)"/>
       </defs>
       <use xlink:href="#DejaVuSerif-33"/>
      </g>
     </g>
    </g>
    <g id="xtick_5">
     <g id="line2d_9">
      <path d="M 557.121136 419.46 
L 557.121136 58.32 
" clip-path="url(#pb68e077a7e)" style="fill: none; stroke-dasharray: 3.7,1.6; stroke-dashoffset: 0; stroke: #b0b0b0"/>
     </g>
     <g id="line2d_10">
      <g>
       <use xlink:href="#m83da5911e6" x="557.121136" y="419.46" style="stroke: #000000; stroke-width: 2"/>
      </g>
     </g>
     <g id="text_5">
      <!-- 4 -->
      <g transform="translate(548.849886 442.715937) scale(0.26 -0.26)">
       <defs>
        <path id="DejaVuSerif-34" d="M 2234 1581 
L 2234 4063 
L 641 1581 
L 2234 1581 
z
M 3609 0 
L 1484 0 
L 1484 331 
L 2234 331 
L 2234 1247 
L 197 1247 
L 197 1588 
L 2241 4750 
L 2859 4750 
L 2859 1581 
L 3750 1581 
L 3750 1247 
L 2859 1247 
L 2859 331 
L 3609 331 
L 3609 0 
z
" transform="scale(0.015625)"/>
       </defs>
       <use xlink:href="#DejaVuSerif-34"/>
      </g>
     </g>
    </g>
    <g id="xtick_6">
     <g id="line2d_11">
      <path d="M 664.960227 419.46 
L 664.960227 58.32 
" clip-path="url(#pb68e077a7e)" style="fill: none; stroke-dasharray: 3.7,1.6; stroke-dashoffset: 0; stroke: #b0b0b0"/>
     </g>
     <g id="line2d_12">
      <g>
       <use xlink:href="#m83da5911e6" x="664.960227" y="419.46" style="stroke: #000000; stroke-width: 2"/>
      </g>
     </g>
     <g id="text_6">
      <!-- 5 -->
      <g transform="translate(656.688977 442.715937) scale(0.26 -0.26)">
       <defs>
        <path id="DejaVuSerif-35" d="M 3219 4666 
L 3219 4153 
L 1081 4153 
L 1081 2816 
Q 1244 2928 1461 2984 
Q 1678 3041 1947 3041 
Q 2703 3041 3140 2622 
Q 3578 2203 3578 1478 
Q 3578 738 3136 323 
Q 2694 -91 1894 -91 
Q 1572 -91 1234 -12 
Q 897 66 544 225 
L 544 1131 
L 897 1131 
Q 925 688 1179 453 
Q 1434 219 1894 219 
Q 2388 219 2653 544 
Q 2919 869 2919 1478 
Q 2919 2084 2655 2407 
Q 2391 2731 1894 2731 
Q 1613 2731 1398 2631 
Q 1184 2531 1019 2322 
L 750 2322 
L 750 4666 
L 3219 4666 
z
" transform="scale(0.015625)"/>
       </defs>
       <use xlink:href="#DejaVuSerif-35"/>
      </g>
     </g>
    </g>
    <g id="text_7">
     <!-- Time (a.u.) -->
     <g transform="translate(323.848281 471.879062) scale(0.26 -0.26)">
      <defs>
       <path id="DejaVuSerif-54" d="M 1222 0 
L 1222 331 
L 1819 331 
L 1819 4294 
L 447 4294 
L 447 3566 
L 63 3566 
L 63 4666 
L 4206 4666 
L 4206 3566 
L 3822 3566 
L 3822 4294 
L 2450 4294 
L 2450 331 
L 3047 331 
L 3047 0 
L 1222 0 
z
" transform="scale(0.015625)"/>
       <path id="DejaVuSerif-69" d="M 622 4353 
Q 622 4497 726 4603 
Q 831 4709 978 4709 
Q 1122 4709 1226 4603 
Q 1331 4497 1331 4353 
Q 1331 4206 1228 4103 
Q 1125 4000 978 4000 
Q 831 4000 726 4103 
Q 622 4206 622 4353 
z
M 1356 331 
L 1900 331 
L 1900 0 
L 231 0 
L 231 331 
L 781 331 
L 781 2988 
L 231 2988 
L 231 3322 
L 1356 3322 
L 1356 331 
z
" transform="scale(0.015625)"/>
       <path id="DejaVuSerif-6d" d="M 3316 2675 
Q 3481 3041 3739 3227 
Q 3997 3413 4341 3413 
Q 4863 3413 5119 3089 
Q 5375 2766 5375 2113 
L 5375 331 
L 5894 331 
L 5894 0 
L 4300 0 
L 4300 331 
L 4800 331 
L 4800 2047 
Q 4800 2556 4650 2772 
Q 4500 2988 4153 2988 
Q 3769 2988 3567 2697 
Q 3366 2406 3366 1850 
L 3366 331 
L 3866 331 
L 3866 0 
L 2291 0 
L 2291 331 
L 2791 331 
L 2791 2069 
Q 2791 2566 2641 2777 
Q 2491 2988 2144 2988 
Q 1759 2988 1557 2697 
Q 1356 2406 1356 1850 
L 1356 331 
L 1856 331 
L 1856 0 
L 263 0 
L 263 331 
L 781 331 
L 781 2994 
L 231 2994 
L 231 3322 
L 1356 3322 
L 1356 2731 
Q 1516 3063 1762 3238 
Q 2009 3413 2322 3413 
Q 2709 3413 2968 3220 
Q 3228 3028 3316 2675 
z
" transform="scale(0.015625)"/>
       <path id="DejaVuSerif-65" d="M 3469 1600 
L 991 1600 
L 991 1575 
Q 991 903 1244 561 
Q 1497 219 1991 219 
Q 2369 219 2611 417 
Q 2853 616 2950 1006 
L 3413 1006 
Q 3275 459 2904 184 
Q 2534 -91 1931 -91 
Q 1203 -91 761 389 
Q 319 869 319 1663 
Q 319 2450 753 2931 
Q 1188 3413 1894 3413 
Q 2647 3413 3050 2948 
Q 3453 2484 3469 1600 
z
M 2791 1931 
Q 2772 2513 2545 2808 
Q 2319 3103 1894 3103 
Q 1497 3103 1269 2806 
Q 1041 2509 991 1931 
L 2791 1931 
z
" transform="scale(0.015625)"/>
       <path id="DejaVuSerif-20" transform="scale(0.015625)"/>
       <path id="DejaVuSerif-28" d="M 2041 -997 
Q 1281 -656 893 83 
Q 506 822 506 1931 
Q 506 3044 893 3783 
Q 1281 4522 2041 4863 
L 2041 4556 
Q 1559 4225 1350 3623 
Q 1141 3022 1141 1931 
Q 1141 844 1350 242 
Q 1559 -359 2041 -691 
L 2041 -997 
z
" transform="scale(0.015625)"/>
       <path id="DejaVuSerif-61" d="M 2547 1044 
L 2547 1747 
L 1806 1747 
Q 1378 1747 1168 1562 
Q 959 1378 959 997 
Q 959 650 1171 447 
Q 1384 244 1747 244 
Q 2106 244 2326 466 
Q 2547 688 2547 1044 
z
M 3122 2075 
L 3122 331 
L 3634 331 
L 3634 0 
L 2547 0 
L 2547 359 
Q 2356 128 2106 18 
Q 1856 -91 1522 -91 
Q 969 -91 644 203 
Q 319 497 319 997 
Q 319 1513 691 1797 
Q 1063 2081 1741 2081 
L 2547 2081 
L 2547 2309 
Q 2547 2688 2317 2895 
Q 2088 3103 1672 3103 
Q 1328 3103 1125 2947 
Q 922 2791 872 2484 
L 575 2484 
L 575 3156 
Q 875 3284 1158 3348 
Q 1441 3413 1709 3413 
Q 2400 3413 2761 3070 
Q 3122 2728 3122 2075 
z
" transform="scale(0.015625)"/>
       <path id="DejaVuSerif-2e" d="M 603 325 
Q 603 500 722 622 
Q 841 744 1019 744 
Q 1191 744 1312 622 
Q 1434 500 1434 325 
Q 1434 153 1312 31 
Q 1191 -91 1019 -91 
Q 841 -91 722 29 
Q 603 150 603 325 
z
" transform="scale(0.015625)"/>
       <path id="DejaVuSerif-75" d="M 2266 3322 
L 3341 3322 
L 3341 331 
L 3884 331 
L 3884 0 
L 2766 0 
L 2766 588 
Q 2606 256 2353 82 
Q 2100 -91 1766 -91 
Q 1213 -91 952 223 
Q 691 538 691 1209 
L 691 2988 
L 172 2988 
L 172 3322 
L 1269 3322 
L 1269 1388 
Q 1269 781 1417 556 
Q 1566 331 1947 331 
Q 2347 331 2556 625 
Q 2766 919 2766 1478 
L 2766 2988 
L 2266 2988 
L 2266 3322 
z
" transform="scale(0.015625)"/>
       <path id="DejaVuSerif-29" d="M 453 -997 
L 453 -691 
Q 934 -359 1145 242 
Q 1356 844 1356 1931 
Q 1356 3022 1145 3623 
Q 934 4225 453 4556 
L 453 4863 
Q 1216 4522 1603 3783 
Q 1991 3044 1991 1931 
Q 1991 822 1603 83 
Q 1216 -656 453 -997 
z
" transform="scale(0.015625)"/>
      </defs>
      <use xlink:href="#DejaVuSerif-54"/>
      <use xlink:href="#DejaVuSerif-69" x="66.699219"/>
      <use xlink:href="#DejaVuSerif-6d" x="98.681641"/>
      <use xlink:href="#DejaVuSerif-65" x="193.505859"/>
      <use xlink:href="#DejaVuSerif-20" x="252.685547"/>
      <use xlink:href="#DejaVuSerif-28" x="284.472656"/>
      <use xlink:href="#DejaVuSerif-61" x="323.486328"/>
      <use xlink:href="#DejaVuSerif-2e" x="383.105469"/>
      <use xlink:href="#DejaVuSerif-75" x="414.892578"/>
      <use xlink:href="#DejaVuSerif-2e" x="479.296875"/>
      <use xlink:href="#DejaVuSerif-29" x="511.083984"/>
     </g>
    </g>
   </g>
   <g id="matplotlib.axis_2">
    <g id="ytick_1">
     <g id="line2d_13">
      <path d="M 98.805 369.488415 
L 691.92 369.488415 
" clip-path="url(#pb68e077a7e)" style="fill: none; stroke-dasharray: 3.7,1.6; stroke-dashoffset: 0; stroke: #b0b0b0"/>
     </g>
     <g id="line2d_14">
      <defs>
       <path id="m1fd6157a3d" d="M 0 0 
L 10 0 
" style="stroke: #000000; stroke-width: 2"/>
      </defs>
      <g>
       <use xlink:href="#m1fd6157a3d" x="98.805" y="369.488415" style="stroke: #000000; stroke-width: 2"/>
      </g>
     </g>
     <g id="text_8">
      <!-- −6 -->
      <g transform="translate(56.975313 379.366383) scale(0.26 -0.26)">
       <defs>
        <path id="DejaVuSerif-2212" d="M 678 2259 
L 4684 2259 
L 4684 1753 
L 678 1753 
L 678 2259 
z
" transform="scale(0.015625)"/>
        <path id="DejaVuSerif-36" d="M 2094 219 
Q 2534 219 2771 542 
Q 3009 866 3009 1472 
Q 3009 2078 2771 2401 
Q 2534 2725 2094 2725 
Q 1647 2725 1412 2412 
Q 1178 2100 1178 1509 
Q 1178 888 1415 553 
Q 1653 219 2094 219 
z
M 1075 2569 
Q 1288 2803 1556 2918 
Q 1825 3034 2163 3034 
Q 2859 3034 3264 2615 
Q 3669 2197 3669 1472 
Q 3669 763 3233 336 
Q 2797 -91 2069 -91 
Q 1278 -91 853 498 
Q 428 1088 428 2181 
Q 428 3406 931 4078 
Q 1434 4750 2350 4750 
Q 2597 4750 2869 4703 
Q 3141 4656 3425 4563 
L 3425 3794 
L 3072 3794 
Q 3034 4109 2831 4275 
Q 2628 4441 2284 4441 
Q 1678 4441 1381 3981 
Q 1084 3522 1075 2569 
z
" transform="scale(0.015625)"/>
       </defs>
       <use xlink:href="#DejaVuSerif-2212"/>
       <use xlink:href="#DejaVuSerif-36" x="83.789062"/>
      </g>
     </g>
    </g>
    <g id="ytick_2">
     <g id="line2d_15">
      <path d="M 98.805 302.381571 
L 691.92 302.381571 
" clip-path="url(#pb68e077a7e)" style="fill: none; stroke-dasharray: 3.7,1.6; stroke-dashoffset: 0; stroke: #b0b0b0"/>
     </g>
     <g id="line2d_16">
      <g>
       <use xlink:href="#m1fd6157a3d" x="98.805" y="302.381571" style="stroke: #000000; stroke-width: 2"/>
      </g>
     </g>
     <g id="text_9">
      <!-- −4 -->
      <g transform="translate(56.975313 312.25954) scale(0.26 -0.26)">
       <use xlink:href="#DejaVuSerif-2212"/>
       <use xlink:href="#DejaVuSerif-34" x="83.789062"/>
      </g>
     </g>
    </g>
    <g id="ytick_3">
     <g id="line2d_17">
      <path d="M 98.805 235.274727 
L 691.92 235.274727 
" clip-path="url(#pb68e077a7e)" style="fill: none; stroke-dasharray: 3.7,1.6; stroke-dashoffset: 0; stroke: #b0b0b0"/>
     </g>
     <g id="line2d_18">
      <g>
       <use xlink:href="#m1fd6157a3d" x="98.805" y="235.274727" style="stroke: #000000; stroke-width: 2"/>
      </g>
     </g>
     <g id="text_10">
      <!-- −2 -->
      <g transform="translate(56.975313 245.152696) scale(0.26 -0.26)">
       <use xlink:href="#DejaVuSerif-2212"/>
       <use xlink:href="#DejaVuSerif-32" x="83.789062"/>
      </g>
     </g>
    </g>
    <g id="ytick_4">
     <g id="line2d_19">
      <path d="M 98.805 168.167884 
L 691.92 168.167884 
" clip-path="url(#pb68e077a7e)" style="fill: none; stroke-dasharray: 3.7,1.6; stroke-dashoffset: 0; stroke: #b0b0b0"/>
     </g>
     <g id="line2d_20">
      <g>
       <use xlink:href="#m1fd6157a3d" x="98.805" y="168.167884" style="stroke: #000000; stroke-width: 2"/>
      </g>
     </g>
     <g id="text_11">
      <!-- 0 -->
      <g transform="translate(78.7625 178.045853) scale(0.26 -0.26)">
       <use xlink:href="#DejaVuSerif-30"/>
      </g>
     </g>
    </g>
    <g id="ytick_5">
     <g id="line2d_21">
      <path d="M 98.805 101.06104 
L 691.92 101.06104 
" clip-path="url(#pb68e077a7e)" style="fill: none; stroke-dasharray: 3.7,1.6; stroke-dashoffset: 0; stroke: #b0b0b0"/>
     </g>
     <g id="line2d_22">
      <g>
       <use xlink:href="#m1fd6157a3d" x="98.805" y="101.06104" style="stroke: #000000; stroke-width: 2"/>
      </g>
     </g>
     <g id="text_12">
      <!-- 2 -->
      <g transform="translate(78.7625 110.939009) scale(0.26 -0.26)">
       <use xlink:href="#DejaVuSerif-32"/>
      </g>
     </g>
    </g>
    <g id="text_13">
     <!-- Energy Components (a.u.) -->
     <g transform="translate(47.198437 411.706719) rotate(-90) scale(0.26 -0.26)">
      <defs>
       <path id="DejaVuSerif-45" d="M 353 0 
L 353 331 
L 947 331 
L 947 4331 
L 353 4331 
L 353 4666 
L 4109 4666 
L 4109 3628 
L 3725 3628 
L 3725 4281 
L 1581 4281 
L 1581 2719 
L 3109 2719 
L 3109 3303 
L 3494 3303 
L 3494 1753 
L 3109 1753 
L 3109 2338 
L 1581 2338 
L 1581 384 
L 3775 384 
L 3775 1038 
L 4159 1038 
L 4159 0 
L 353 0 
z
" transform="scale(0.015625)"/>
       <path id="DejaVuSerif-6e" d="M 263 0 
L 263 331 
L 781 331 
L 781 2988 
L 231 2988 
L 231 3322 
L 1356 3322 
L 1356 2731 
Q 1516 3069 1770 3241 
Q 2025 3413 2363 3413 
Q 2913 3413 3172 3097 
Q 3431 2781 3431 2113 
L 3431 331 
L 3944 331 
L 3944 0 
L 2356 0 
L 2356 331 
L 2853 331 
L 2853 1931 
Q 2853 2541 2703 2767 
Q 2553 2994 2175 2994 
Q 1775 2994 1565 2701 
Q 1356 2409 1356 1850 
L 1356 331 
L 1856 331 
L 1856 0 
L 263 0 
z
" transform="scale(0.015625)"/>
       <path id="DejaVuSerif-72" d="M 3059 3328 
L 3059 2497 
L 2728 2497 
Q 2713 2744 2591 2866 
Q 2469 2988 2234 2988 
Q 1809 2988 1582 2694 
Q 1356 2400 1356 1850 
L 1356 331 
L 2022 331 
L 2022 0 
L 263 0 
L 263 331 
L 781 331 
L 781 2994 
L 231 2994 
L 231 3322 
L 1356 3322 
L 1356 2731 
Q 1525 3078 1790 3245 
Q 2056 3413 2438 3413 
Q 2578 3413 2733 3391 
Q 2888 3369 3059 3328 
z
" transform="scale(0.015625)"/>
       <path id="DejaVuSerif-67" d="M 3359 2988 
L 3359 72 
Q 3359 -644 2965 -1033 
Q 2572 -1422 1844 -1422 
Q 1516 -1422 1216 -1362 
Q 916 -1303 641 -1184 
L 641 -488 
L 941 -488 
Q 997 -813 1206 -963 
Q 1416 -1113 1806 -1113 
Q 2313 -1113 2548 -827 
Q 2784 -541 2784 72 
L 2784 519 
Q 2616 206 2355 57 
Q 2094 -91 1709 -91 
Q 1097 -91 708 395 
Q 319 881 319 1663 
Q 319 2444 706 2928 
Q 1094 3413 1709 3413 
Q 2094 3413 2355 3264 
Q 2616 3116 2784 2803 
L 2784 3322 
L 3909 3322 
L 3909 2988 
L 3359 2988 
z
M 2784 1825 
Q 2784 2422 2554 2737 
Q 2325 3053 1888 3053 
Q 1444 3053 1217 2703 
Q 991 2353 991 1663 
Q 991 975 1217 622 
Q 1444 269 1888 269 
Q 2325 269 2554 583 
Q 2784 897 2784 1497 
L 2784 1825 
z
" transform="scale(0.015625)"/>
       <path id="DejaVuSerif-79" d="M 1381 -609 
L 1600 -56 
L 359 2988 
L -19 2988 
L -19 3322 
L 1509 3322 
L 1509 2988 
L 978 2988 
L 1913 703 
L 2847 2988 
L 2350 2988 
L 2350 3322 
L 3597 3322 
L 3597 2988 
L 3225 2988 
L 1703 -750 
Q 1547 -1138 1356 -1280 
Q 1166 -1422 819 -1422 
Q 672 -1422 517 -1397 
Q 363 -1372 206 -1325 
L 206 -691 
L 500 -691 
Q 519 -903 608 -995 
Q 697 -1088 884 -1088 
Q 1056 -1088 1161 -992 
Q 1266 -897 1381 -609 
z
" transform="scale(0.015625)"/>
       <path id="DejaVuSerif-43" d="M 4513 1234 
Q 4306 581 3820 245 
Q 3334 -91 2591 -91 
Q 2134 -91 1743 65 
Q 1353 222 1050 525 
Q 700 875 529 1320 
Q 359 1766 359 2328 
Q 359 3416 987 4083 
Q 1616 4750 2644 4750 
Q 3025 4750 3456 4650 
Q 3888 4550 4384 4347 
L 4384 3272 
L 4031 3272 
Q 3916 3859 3567 4137 
Q 3219 4416 2591 4416 
Q 1844 4416 1459 3886 
Q 1075 3356 1075 2328 
Q 1075 1303 1459 773 
Q 1844 244 2591 244 
Q 3113 244 3450 492 
Q 3788 741 3938 1234 
L 4513 1234 
z
" transform="scale(0.015625)"/>
       <path id="DejaVuSerif-6f" d="M 1925 219 
Q 2388 219 2623 584 
Q 2859 950 2859 1663 
Q 2859 2375 2623 2739 
Q 2388 3103 1925 3103 
Q 1463 3103 1227 2739 
Q 991 2375 991 1663 
Q 991 950 1228 584 
Q 1466 219 1925 219 
z
M 1925 -91 
Q 1200 -91 759 389 
Q 319 869 319 1663 
Q 319 2456 758 2934 
Q 1197 3413 1925 3413 
Q 2653 3413 3092 2934 
Q 3531 2456 3531 1663 
Q 3531 869 3092 389 
Q 2653 -91 1925 -91 
z
" transform="scale(0.015625)"/>
       <path id="DejaVuSerif-70" d="M 1313 1825 
L 1313 1497 
Q 1313 897 1542 583 
Q 1772 269 2209 269 
Q 2650 269 2876 622 
Q 3103 975 3103 1663 
Q 3103 2353 2876 2703 
Q 2650 3053 2209 3053 
Q 1772 3053 1542 2737 
Q 1313 2422 1313 1825 
z
M 738 2988 
L 184 2988 
L 184 3322 
L 1313 3322 
L 1313 2803 
Q 1481 3116 1742 3264 
Q 2003 3413 2388 3413 
Q 3000 3413 3387 2928 
Q 3775 2444 3775 1663 
Q 3775 881 3387 395 
Q 3000 -91 2388 -91 
Q 2003 -91 1742 57 
Q 1481 206 1313 519 
L 1313 -997 
L 1856 -997 
L 1856 -1331 
L 184 -1331 
L 184 -997 
L 738 -997 
L 738 2988 
z
" transform="scale(0.015625)"/>
       <path id="DejaVuSerif-74" d="M 691 2988 
L 184 2988 
L 184 3322 
L 691 3322 
L 691 4353 
L 1269 4353 
L 1269 3322 
L 2350 3322 
L 2350 2988 
L 1269 2988 
L 1269 878 
Q 1269 456 1350 337 
Q 1431 219 1650 219 
Q 1875 219 1978 351 
Q 2081 484 2088 781 
L 2522 781 
Q 2497 328 2275 118 
Q 2053 -91 1600 -91 
Q 1103 -91 897 129 
Q 691 350 691 878 
L 691 2988 
z
" transform="scale(0.015625)"/>
       <path id="DejaVuSerif-73" d="M 359 184 
L 359 959 
L 691 959 
Q 703 588 923 403 
Q 1144 219 1575 219 
Q 1963 219 2166 364 
Q 2369 509 2369 788 
Q 2369 1006 2220 1140 
Q 2072 1275 1594 1428 
L 1178 1569 
Q 750 1706 558 1912 
Q 366 2119 366 2438 
Q 366 2894 700 3153 
Q 1034 3413 1625 3413 
Q 1888 3413 2178 3344 
Q 2469 3275 2778 3144 
L 2778 2419 
L 2447 2419 
Q 2434 2741 2221 2922 
Q 2009 3103 1644 3103 
Q 1281 3103 1095 2975 
Q 909 2847 909 2591 
Q 909 2381 1050 2254 
Q 1191 2128 1613 1997 
L 2069 1856 
Q 2541 1709 2748 1489 
Q 2956 1269 2956 922 
Q 2956 450 2595 179 
Q 2234 -91 1600 -91 
Q 1278 -91 972 -22 
Q 666 47 359 184 
z
" transform="scale(0.015625)"/>
      </defs>
      <use xlink:href="#DejaVuSerif-45"/>
      <use xlink:href="#DejaVuSerif-6e" x="72.998047"/>
      <use xlink:href="#DejaVuSerif-65" x="137.402344"/>
      <use xlink:href="#DejaVuSerif-72" x="196.582031"/>
      <use xlink:href="#DejaVuSerif-67" x="244.384766"/>
      <use xlink:href="#DejaVuSerif-79" x="308.398438"/>
      <use xlink:href="#DejaVuSerif-20" x="364.892578"/>
      <use xlink:href="#DejaVuSerif-43" x="396.679688"/>
      <use xlink:href="#DejaVuSerif-6f" x="473.193359"/>
      <use xlink:href="#DejaVuSerif-6d" x="533.398438"/>
      <use xlink:href="#DejaVuSerif-70" x="628.222656"/>
      <use xlink:href="#DejaVuSerif-6f" x="692.236328"/>
      <use xlink:href="#DejaVuSerif-6e" x="752.441406"/>
      <use xlink:href="#DejaVuSerif-65" x="816.845703"/>
      <use xlink:href="#DejaVuSerif-6e" x="876.025391"/>
      <use xlink:href="#DejaVuSerif-74" x="940.429688"/>
      <use xlink:href="#DejaVuSerif-73" x="980.615234"/>
      <use xlink:href="#DejaVuSerif-20" x="1031.933594"/>
      <use xlink:href="#DejaVuSerif-28" x="1063.720703"/>
      <use xlink:href="#DejaVuSerif-61" x="1102.734375"/>
      <use xlink:href="#DejaVuSerif-2e" x="1162.353516"/>
      <use xlink:href="#DejaVuSerif-75" x="1194.140625"/>
      <use xlink:href="#DejaVuSerif-2e" x="1258.544922"/>
      <use xlink:href="#DejaVuSerif-29" x="1290.332031"/>
     </g>
    </g>
   </g>
   <g id="line2d_23">
    <path d="M 125.764773 74.739229 
L 131.211191 74.737928 
L 136.65761 74.737182 
L 142.104029 74.737157 
L 147.550448 74.73786 
L 152.996866 74.73914 
L 158.443285 74.740718 
L 163.889704 74.742248 
L 169.336123 74.743388 
L 174.782541 74.743878 
L 180.22896 74.743591 
L 185.675379 74.742564 
L 191.121798 74.74099 
L 196.568216 74.739177 
L 202.014635 74.737483 
L 207.461054 74.736243 
L 212.907472 74.735695 
L 218.353891 74.735934 
L 223.80031 74.736888 
L 229.246729 74.738339 
L 234.693147 74.739963 
L 240.139566 74.741409 
L 245.585985 74.742363 
L 251.032404 74.742625 
L 256.478822 74.742144 
L 261.925241 74.741033 
L 267.37166 74.739541 
L 272.818079 74.738005 
L 278.264497 74.736773 
L 283.710916 74.73613 
L 289.157335 74.736239 
L 294.603753 74.737103 
L 300.050172 74.738566 
L 305.496591 74.740342 
L 310.94301 74.74208 
L 316.389428 74.743432 
L 321.835847 74.744132 
L 327.282266 74.744048 
L 332.728685 74.743211 
L 338.175103 74.74181 
L 343.621522 74.740146 
L 349.067941 74.738574 
L 354.51436 74.737425 
L 359.960778 74.736933 
L 365.407197 74.73719 
L 370.853616 74.738124 
L 376.300034 74.739516 
L 381.746453 74.741046 
L 387.192872 74.742364 
L 392.639291 74.743162 
L 398.085709 74.743244 
L 403.532128 74.742566 
L 408.978547 74.741246 
L 414.424966 74.739541 
L 419.871384 74.737793 
L 425.317803 74.736356 
L 430.764222 74.73552 
L 436.21064 74.735455 
L 441.657059 74.736166 
L 447.103478 74.737503 
L 452.549897 74.739184 
L 457.996315 74.740858 
L 463.442734 74.742183 
L 468.889153 74.742893 
L 474.335572 74.742855 
L 479.78199 74.742103 
L 485.228409 74.740819 
L 490.674828 74.739303 
L 496.121247 74.737906 
L 501.567665 74.736951 
L 507.014084 74.736668 
L 512.460503 74.737141 
L 517.906921 74.738291 
L 523.35334 74.739893 
L 528.799759 74.74162 
L 534.246178 74.743117 
L 539.692596 74.744072 
L 545.139015 74.744284 
L 550.585434 74.743706 
L 556.031853 74.742453 
L 561.478271 74.740781 
L 566.92469 74.739031 
L 572.371109 74.737555 
L 577.817528 74.736646 
L 583.263946 74.736472 
L 588.710365 74.737045 
L 594.156784 74.738216 
L 599.603202 74.739708 
L 605.049621 74.741178 
L 610.49604 74.742288 
L 615.942459 74.742779 
L 621.388877 74.742528 
L 626.835296 74.741571 
L 632.281715 74.740101 
L 637.728134 74.738421 
L 643.174552 74.736887 
L 648.620971 74.735825 
L 654.06739 74.735469 
L 659.513809 74.735904 
L 664.960227 74.737052 
" clip-path="url(#pb68e077a7e)" style="fill: none; stroke: #1f77b4; stroke-width: 3; stroke-linecap: square"/>
   </g>
   <g id="line2d_24">
    <path d="M 125.764773 403.041936 
L 131.211191 403.043134 
L 136.65761 403.043504 
L 142.104029 403.042948 
L 147.550448 403.041564 
L 152.996866 403.039632 
L 158.443285 403.03755 
L 163.889704 403.035752 
L 169.336123 403.034615 
L 174.782541 403.034381 
L 180.22896 403.035101 
L 185.675379 403.036629 
L 191.121798 403.03865 
L 196.568216 403.040749 
L 202.014635 403.042495 
L 207.461054 403.043536 
L 212.907472 403.043672 
L 218.353891 403.042896 
L 223.80031 403.041397 
L 229.246729 403.039517 
L 234.693147 403.037679 
L 240.139566 403.036295 
L 245.585985 403.035678 
L 251.032404 403.035976 
L 256.478822 403.037138 
L 261.925241 403.038928 
L 267.37166 403.040971 
L 272.818079 403.042833 
L 278.264497 403.044118 
L 283.710916 403.044545 
L 289.157335 403.044015 
L 294.603753 403.042627 
L 300.050172 403.04066 
L 305.496591 403.038515 
L 310.94301 403.036626 
L 316.389428 403.035374 
L 321.835847 403.035002 
L 327.282266 403.035564 
L 332.728685 403.03692 
L 338.175103 403.038759 
L 343.621522 403.040671 
L 349.067941 403.04223 
L 354.51436 403.043092 
L 359.960778 403.043062 
L 365.407197 403.04214 
L 370.853616 403.040519 
L 376.300034 403.038545 
L 381.746453 403.036643 
L 387.192872 403.035226 
L 392.639291 403.034608 
L 398.085709 403.034936 
L 403.532128 403.036159 
L 408.978547 403.038035 
L 414.424966 403.04019 
L 419.871384 403.042186 
L 425.317803 403.043623 
L 430.764222 403.044217 
L 436.21064 403.043864 
L 441.657059 403.042659 
L 447.103478 403.040877 
L 452.549897 403.038911 
L 457.996315 403.037191 
L 463.442734 403.036092 
L 468.889153 403.03585 
L 474.335572 403.036517 
L 479.78199 403.037948 
L 485.228409 403.03983 
L 490.674828 403.041751 
L 496.121247 403.043287 
L 501.567665 403.044094 
L 507.014084 403.04398 
L 512.460503 403.042948 
L 517.906921 403.041194 
L 523.35334 403.039069 
L 528.799759 403.037002 
L 534.246178 403.035411 
L 539.692596 403.034613 
L 545.139015 403.03476 
L 550.585434 403.035805 
L 556.031853 403.037513 
L 561.478271 403.039513 
L 566.92469 403.041374 
L 572.371109 403.042699 
L 577.817528 403.043209 
L 583.263946 403.042802 
L 588.710365 403.041576 
L 594.156784 403.039807 
L 599.603202 403.037887 
L 605.049621 403.036244 
L 610.49604 403.035251 
L 615.942459 403.035139 
L 621.388877 403.035957 
L 626.835296 403.037554 
L 632.281715 403.039611 
L 637.728134 403.041713 
L 643.174552 403.04343 
L 648.620971 403.044414 
L 654.06739 403.044468 
L 659.513809 403.04359 
L 664.960227 403.041973 
" clip-path="url(#pb68e077a7e)" style="fill: none; stroke: #ff7f0e; stroke-width: 3; stroke-linecap: square"/>
   </g>
   <g id="line2d_25">
    <path d="M 125.764773 138.808627 
L 131.211191 138.808478 
L 136.65761 138.808431 
L 142.104029 138.808501 
L 147.550448 138.808674 
L 152.996866 138.808915 
L 158.443285 138.809175 
L 163.889704 138.8094 
L 169.336123 138.809542 
L 174.782541 138.809572 
L 180.22896 138.809482 
L 185.675379 138.809291 
L 191.121798 138.809038 
L 196.568216 138.808776 
L 202.014635 138.808557 
L 207.461054 138.808427 
L 212.907472 138.80841 
L 218.353891 138.808507 
L 223.80031 138.808695 
L 229.246729 138.80893 
L 234.693147 138.809159 
L 240.139566 138.809332 
L 245.585985 138.809409 
L 251.032404 138.809372 
L 256.478822 138.809227 
L 261.925241 138.809003 
L 267.37166 138.808748 
L 272.818079 138.808515 
L 278.264497 138.808354 
L 283.710916 138.808301 
L 289.157335 138.808367 
L 294.603753 138.808541 
L 300.050172 138.808787 
L 305.496591 138.809055 
L 310.94301 138.809291 
L 316.389428 138.809447 
L 321.835847 138.809494 
L 327.282266 138.809424 
L 332.728685 138.809254 
L 338.175103 138.809024 
L 343.621522 138.808785 
L 349.067941 138.80859 
L 354.51436 138.808483 
L 359.960778 138.808486 
L 365.407197 138.808602 
L 370.853616 138.808804 
L 376.300034 138.809051 
L 381.746453 138.809289 
L 387.192872 138.809466 
L 392.639291 138.809543 
L 398.085709 138.809502 
L 403.532128 138.809349 
L 408.978547 138.809115 
L 414.424966 138.808846 
L 419.871384 138.808596 
L 425.317803 138.808416 
L 430.764222 138.808342 
L 436.21064 138.808386 
L 441.657059 138.808537 
L 447.103478 138.80876 
L 452.549897 138.809005 
L 457.996315 138.80922 
L 463.442734 138.809358 
L 468.889153 138.809388 
L 474.335572 138.809305 
L 479.78199 138.809126 
L 485.228409 138.808891 
L 490.674828 138.80865 
L 496.121247 138.808458 
L 501.567665 138.808358 
L 507.014084 138.808372 
L 512.460503 138.808501 
L 517.906921 138.80872 
L 523.35334 138.808986 
L 528.799759 138.809244 
L 534.246178 138.809443 
L 539.692596 138.809543 
L 545.139015 138.809524 
L 550.585434 138.809394 
L 556.031853 138.80918 
L 561.478271 138.80893 
L 566.92469 138.808697 
L 572.371109 138.808532 
L 577.817528 138.808468 
L 583.263946 138.808519 
L 588.710365 138.808672 
L 594.156784 138.808893 
L 599.603202 138.809133 
L 605.049621 138.809339 
L 610.49604 138.809463 
L 615.942459 138.809477 
L 621.388877 138.809375 
L 626.835296 138.809175 
L 632.281715 138.808918 
L 637.728134 138.808655 
L 643.174552 138.80844 
L 648.620971 138.808317 
L 654.06739 138.808311 
L 659.513809 138.808421 
L 664.960227 138.808623 
" clip-path="url(#pb68e077a7e)" style="fill: none; stroke: #2ca02c; stroke-width: 3; stroke-linecap: square"/>
   </g>
   <g id="line2d_26">
    <path d="M 125.764773 158.825107 
L 131.211191 158.825359 
L 136.65761 158.825781 
L 142.104029 158.826293 
L 147.550448 158.826801 
L 152.996866 158.827211 
L 158.443285 158.827455 
L 163.889704 158.827499 
L 169.336123 158.827353 
L 174.782541 158.827069 
L 180.22896 158.826726 
L 185.675379 158.826416 
L 191.121798 158.826221 
L 196.568216 158.826197 
L 202.014635 158.826363 
L 207.461054 158.826692 
L 212.907472 158.827121 
L 218.353891 158.827561 
L 223.80031 158.827918 
L 229.246729 158.828113 
L 234.693147 158.828097 
L 240.139566 158.827863 
L 245.585985 158.827448 
L 251.032404 158.826926 
L 256.478822 158.82639 
L 261.925241 158.825935 
L 267.37166 158.825639 
L 272.818079 158.825545 
L 278.264497 158.825653 
L 283.710916 158.825922 
L 289.157335 158.826277 
L 294.603753 158.826627 
L 300.050172 158.826886 
L 305.496591 158.826987 
L 310.94301 158.826902 
L 316.389428 158.826645 
L 321.835847 158.826272 
L 327.282266 158.825863 
L 332.728685 158.825513 
L 338.175103 158.825305 
L 343.621522 158.825296 
L 349.067941 158.825503 
L 354.51436 158.825898 
L 359.960778 158.826416 
L 365.407197 158.826966 
L 370.853616 158.82745 
L 376.300034 158.827786 
L 381.746453 158.82792 
L 387.192872 158.827843 
L 392.639291 158.827585 
L 398.085709 158.827216 
L 403.532128 158.826825 
L 408.978547 158.826503 
L 414.424966 158.826322 
L 419.871384 158.826323 
L 425.317803 158.826503 
L 430.764222 158.826819 
L 436.21064 158.827193 
L 441.657059 158.827536 
L 447.103478 158.827759 
L 452.549897 158.827799 
L 457.996315 158.827629 
L 463.442734 158.827267 
L 468.889153 158.826769 
L 474.335572 158.826222 
L 479.78199 158.825723 
L 485.228409 158.82536 
L 490.674828 158.825194 
L 496.121247 158.825247 
L 501.567665 158.825496 
L 507.014084 158.825879 
L 512.460503 158.826309 
L 517.906921 158.826693 
L 523.35334 158.826951 
L 528.799759 158.827033 
L 534.246178 158.826928 
L 539.692596 158.826672 
L 545.139015 158.826331 
L 550.585434 158.825995 
L 556.031853 158.825752 
L 561.478271 158.825674 
L 566.92469 158.825796 
L 572.371109 158.826113 
L 577.817528 158.826576 
L 583.263946 158.827105 
L 588.710365 158.827604 
L 594.156784 158.827982 
L 599.603202 158.82817 
L 605.049621 158.828138 
L 610.49604 158.827897 
L 615.942459 158.827504 
L 621.388877 158.827039 
L 626.835296 158.826599 
L 632.281715 158.826269 
L 637.728134 158.826109 
L 643.174552 158.826141 
L 648.620971 158.826341 
L 654.06739 158.82665 
L 659.513809 158.826984 
L 664.960227 158.827251 
" clip-path="url(#pb68e077a7e)" style="fill: none; stroke: #d62728; stroke-width: 3; stroke-linecap: square"/>
   </g>
   <g id="line2d_27">
    <path d="M 125.764773 270.911247 
L 131.211191 270.911247 
L 136.65761 270.911247 
L 142.104029 270.911247 
L 147.550448 270.911247 
L 152.996866 270.911247 
L 158.443285 270.911247 
L 163.889704 270.911248 
L 169.336123 270.911248 
L 174.782541 270.911248 
L 180.22896 270.911248 
L 185.675379 270.911248 
L 191.121798 270.911247 
L 196.568216 270.911247 
L 202.014635 270.911247 
L 207.461054 270.911247 
L 212.907472 270.911247 
L 218.353891 270.911247 
L 223.80031 270.911247 
L 229.246729 270.911247 
L 234.693147 270.911247 
L 240.139566 270.911247 
L 245.585985 270.911248 
L 251.032404 270.911248 
L 256.478822 270.911248 
L 261.925241 270.911247 
L 267.37166 270.911247 
L 272.818079 270.911247 
L 278.264497 270.911247 
L 283.710916 270.911247 
L 289.157335 270.911247 
L 294.603753 270.911247 
L 300.050172 270.911247 
L 305.496591 270.911247 
L 310.94301 270.911248 
L 316.389428 270.911248 
L 321.835847 270.911248 
L 327.282266 270.911248 
L 332.728685 270.911248 
L 338.175103 270.911248 
L 343.621522 270.911247 
L 349.067941 270.911247 
L 354.51436 270.911247 
L 359.960778 270.911247 
L 365.407197 270.911247 
L 370.853616 270.911247 
L 376.300034 270.911247 
L 381.746453 270.911247 
L 387.192872 270.911248 
L 392.639291 270.911248 
L 398.085709 270.911248 
L 403.532128 270.911248 
L 408.978547 270.911247 
L 414.424966 270.911247 
L 419.871384 270.911247 
L 425.317803 270.911247 
L 430.764222 270.911247 
L 436.21064 270.911247 
L 441.657059 270.911247 
L 447.103478 270.911247 
L 452.549897 270.911247 
L 457.996315 270.911247 
L 463.442734 270.911248 
L 468.889153 270.911248 
L 474.335572 270.911248 
L 479.78199 270.911248 
L 485.228409 270.911247 
L 490.674828 270.911247 
L 496.121247 270.911247 
L 501.567665 270.911247 
L 507.014084 270.911247 
L 512.460503 270.911247 
L 517.906921 270.911247 
L 523.35334 270.911247 
L 528.799759 270.911247 
L 534.246178 270.911248 
L 539.692596 270.911248 
L 545.139015 270.911248 
L 550.585434 270.911248 
L 556.031853 270.911248 
L 561.478271 270.911247 
L 566.92469 270.911247 
L 572.371109 270.911247 
L 577.817528 270.911247 
L 583.263946 270.911247 
L 588.710365 270.911247 
L 594.156784 270.911247 
L 599.603202 270.911247 
L 605.049621 270.911247 
L 610.49604 270.911248 
L 615.942459 270.911248 
L 621.388877 270.911248 
L 626.835296 270.911247 
L 632.281715 270.911247 
L 637.728134 270.911247 
L 643.174552 270.911247 
L 648.620971 270.911247 
L 654.06739 270.911247 
L 659.513809 270.911247 
L 664.960227 270.911247 
" clip-path="url(#pb68e077a7e)" style="fill: none; stroke-dasharray: 11.1,4.8; stroke-dashoffset: 0; stroke: #000000; stroke-width: 3"/>
   </g>
   <g id="patch_3">
    <path d="M 98.805 419.46 
L 98.805 58.32 
" style="fill: none; stroke: #000000; stroke-width: 2; stroke-linejoin: miter; stroke-linecap: square"/>
   </g>
   <g id="patch_4">
    <path d="M 691.92 419.46 
L 691.92 58.32 
" style="fill: none; stroke: #000000; stroke-width: 2; stroke-linejoin: miter; stroke-linecap: square"/>
   </g>
   <g id="patch_5">
    <path d="M 98.805 419.46 
L 691.92 419.46 
" style="fill: none; stroke: #000000; stroke-width: 2; stroke-linejoin: miter; stroke-linecap: square"/>
   </g>
   <g id="patch_6">
    <path d="M 98.805 58.32 
L 691.92 58.32 
" style="fill: none; stroke: #000000; stroke-width: 2; stroke-linejoin: miter; stroke-linecap: square"/>
   </g>
   <g id="text_14">
    <!-- Energy Components vs. Time -->
    <g transform="translate(163.26375 51.38775) scale(0.312 -0.312)">
     <defs>
      <path id="DejaVuSerif-76" d="M 1581 0 
L 359 2988 
L -19 2988 
L -19 3322 
L 1509 3322 
L 1509 2988 
L 978 2988 
L 1913 703 
L 2847 2988 
L 2350 2988 
L 2350 3322 
L 3597 3322 
L 3597 2988 
L 3225 2988 
L 2003 0 
L 1581 0 
z
" transform="scale(0.015625)"/>
     </defs>
     <use xlink:href="#DejaVuSerif-45"/>
     <use xlink:href="#DejaVuSerif-6e" x="72.998047"/>
     <use xlink:href="#DejaVuSerif-65" x="137.402344"/>
     <use xlink:href="#DejaVuSerif-72" x="196.582031"/>
     <use xlink:href="#DejaVuSerif-67" x="244.384766"/>
     <use xlink:href="#DejaVuSerif-79" x="308.398438"/>
     <use xlink:href="#DejaVuSerif-20" x="364.892578"/>
     <use xlink:href="#DejaVuSerif-43" x="396.679688"/>
     <use xlink:href="#DejaVuSerif-6f" x="473.193359"/>
     <use xlink:href="#DejaVuSerif-6d" x="533.398438"/>
     <use xlink:href="#DejaVuSerif-70" x="628.222656"/>
     <use xlink:href="#DejaVuSerif-6f" x="692.236328"/>
     <use xlink:href="#DejaVuSerif-6e" x="752.441406"/>
     <use xlink:href="#DejaVuSerif-65" x="816.845703"/>
     <use xlink:href="#DejaVuSerif-6e" x="876.025391"/>
     <use xlink:href="#DejaVuSerif-74" x="940.429688"/>
     <use xlink:href="#DejaVuSerif-73" x="980.615234"/>
     <use xlink:href="#DejaVuSerif-20" x="1031.933594"/>
     <use xlink:href="#DejaVuSerif-76" x="1063.720703"/>
     <use xlink:href="#DejaVuSerif-73" x="1120.214844"/>
     <use xlink:href="#DejaVuSerif-2e" x="1171.533203"/>
     <use xlink:href="#DejaVuSerif-20" x="1203.320312"/>
     <use xlink:href="#DejaVuSerif-54" x="1235.107422"/>
     <use xlink:href="#DejaVuSerif-69" x="1301.806641"/>
     <use xlink:href="#DejaVuSerif-6d" x="1333.789062"/>
     <use xlink:href="#DejaVuSerif-65" x="1428.613281"/>
    </g>
   </g>
   <g id="legend_1">
    <g id="patch_7">
     <path d="M 461.848125 315.422813 
L 677.92 315.422813 
Q 681.92 315.422813 681.92 311.422813 
L 681.92 166.357188 
Q 681.92 162.357188 677.92 162.357188 
L 461.848125 162.357188 
Q 457.848125 162.357188 457.848125 166.357188 
L 457.848125 311.422813 
Q 457.848125 315.422813 461.848125 315.422813 
z
" style="fill: #ffffff; opacity: 0.8; stroke: #cccccc; stroke-linejoin: miter"/>
    </g>
    <g id="line2d_28">
     <path d="M 465.848125 178.554063 
L 485.848125 178.554063 
L 505.848125 178.554063 
" style="fill: none; stroke: #1f77b4; stroke-width: 3; stroke-linecap: square"/>
    </g>
    <g id="text_15">
     <!-- Kinetic E -->
     <g transform="translate(521.848125 185.554063) scale(0.2 -0.2)">
      <defs>
       <path id="DejaVuSerif-4b" d="M 353 0 
L 353 331 
L 947 331 
L 947 4331 
L 353 4331 
L 353 4666 
L 2175 4666 
L 2175 4331 
L 1581 4331 
L 1581 2566 
L 3591 4331 
L 3084 4331 
L 3084 4666 
L 4634 4666 
L 4634 4331 
L 4109 4331 
L 2106 2572 
L 4347 331 
L 4878 331 
L 4878 0 
L 3794 0 
L 1581 2216 
L 1581 331 
L 2175 331 
L 2175 0 
L 353 0 
z
" transform="scale(0.015625)"/>
       <path id="DejaVuSerif-63" d="M 3291 997 
Q 3169 466 2822 187 
Q 2475 -91 1925 -91 
Q 1200 -91 759 389 
Q 319 869 319 1663 
Q 319 2459 759 2936 
Q 1200 3413 1925 3413 
Q 2241 3413 2553 3339 
Q 2866 3266 3181 3116 
L 3181 2266 
L 2847 2266 
Q 2781 2703 2561 2903 
Q 2341 3103 1931 3103 
Q 1466 3103 1228 2742 
Q 991 2381 991 1663 
Q 991 944 1227 581 
Q 1463 219 1931 219 
Q 2303 219 2525 412 
Q 2747 606 2828 997 
L 3291 997 
z
" transform="scale(0.015625)"/>
      </defs>
      <use xlink:href="#DejaVuSerif-4b"/>
      <use xlink:href="#DejaVuSerif-69" x="74.707031"/>
      <use xlink:href="#DejaVuSerif-6e" x="106.689453"/>
      <use xlink:href="#DejaVuSerif-65" x="171.09375"/>
      <use xlink:href="#DejaVuSerif-74" x="230.273438"/>
      <use xlink:href="#DejaVuSerif-69" x="270.458984"/>
      <use xlink:href="#DejaVuSerif-63" x="302.441406"/>
      <use xlink:href="#DejaVuSerif-20" x="358.447266"/>
      <use xlink:href="#DejaVuSerif-45" x="390.234375"/>
     </g>
    </g>
    <g id="line2d_29">
     <path d="M 465.848125 207.910313 
L 485.848125 207.910313 
L 505.848125 207.910313 
" style="fill: none; stroke: #ff7f0e; stroke-width: 3; stroke-linecap: square"/>
    </g>
    <g id="text_16">
     <!-- PE e-N -->
     <g transform="translate(521.848125 214.910313) scale(0.2 -0.2)">
      <defs>
       <path id="DejaVuSerif-50" d="M 1581 2375 
L 2406 2375 
Q 2872 2375 3115 2626 
Q 3359 2878 3359 3353 
Q 3359 3831 3115 4081 
Q 2872 4331 2406 4331 
L 1581 4331 
L 1581 2375 
z
M 353 0 
L 353 331 
L 947 331 
L 947 4331 
L 353 4331 
L 353 4666 
L 2559 4666 
Q 3259 4666 3668 4311 
Q 4078 3956 4078 3353 
Q 4078 2753 3668 2397 
Q 3259 2041 2559 2041 
L 1581 2041 
L 1581 331 
L 2303 331 
L 2303 0 
L 353 0 
z
" transform="scale(0.015625)"/>
       <path id="DejaVuSerif-2d" d="M 281 1959 
L 1881 1959 
L 1881 1472 
L 281 1472 
L 281 1959 
z
" transform="scale(0.015625)"/>
       <path id="DejaVuSerif-4e" d="M 313 0 
L 313 331 
L 941 331 
L 941 4331 
L 313 4331 
L 313 4666 
L 1509 4666 
L 4306 984 
L 4306 4331 
L 3681 4331 
L 3681 4666 
L 5319 4666 
L 5319 4331 
L 4691 4331 
L 4691 -91 
L 4313 -91 
L 1325 3841 
L 1325 331 
L 1953 331 
L 1953 0 
L 313 0 
z
" transform="scale(0.015625)"/>
      </defs>
      <use xlink:href="#DejaVuSerif-50"/>
      <use xlink:href="#DejaVuSerif-45" x="67.285156"/>
      <use xlink:href="#DejaVuSerif-20" x="140.283203"/>
      <use xlink:href="#DejaVuSerif-65" x="172.070312"/>
      <use xlink:href="#DejaVuSerif-2d" x="231.25"/>
      <use xlink:href="#DejaVuSerif-4e" x="265.039062"/>
     </g>
    </g>
    <g id="line2d_30">
     <path d="M 465.848125 237.266563 
L 485.848125 237.266563 
L 505.848125 237.266563 
" style="fill: none; stroke: #2ca02c; stroke-width: 3; stroke-linecap: square"/>
    </g>
    <g id="text_17">
     <!-- PE e-e -->
     <g transform="translate(521.848125 244.266563) scale(0.2 -0.2)">
      <use xlink:href="#DejaVuSerif-50"/>
      <use xlink:href="#DejaVuSerif-45" x="67.285156"/>
      <use xlink:href="#DejaVuSerif-20" x="140.283203"/>
      <use xlink:href="#DejaVuSerif-65" x="172.070312"/>
      <use xlink:href="#DejaVuSerif-2d" x="231.25"/>
      <use xlink:href="#DejaVuSerif-65" x="265.039062"/>
     </g>
    </g>
    <g id="line2d_31">
     <path d="M 465.848125 266.622813 
L 485.848125 266.622813 
L 505.848125 266.622813 
" style="fill: none; stroke: #d62728; stroke-width: 3; stroke-linecap: square"/>
    </g>
    <g id="text_18">
     <!-- PE Heisenberg -->
     <g transform="translate(521.848125 273.622813) scale(0.2 -0.2)">
      <defs>
       <path id="DejaVuSerif-48" d="M 353 0 
L 353 331 
L 947 331 
L 947 4331 
L 353 4331 
L 353 4666 
L 2175 4666 
L 2175 4331 
L 1581 4331 
L 1581 2719 
L 4000 2719 
L 4000 4331 
L 3406 4331 
L 3406 4666 
L 5228 4666 
L 5228 4331 
L 4634 4331 
L 4634 331 
L 5228 331 
L 5228 0 
L 3406 0 
L 3406 331 
L 4000 331 
L 4000 2338 
L 1581 2338 
L 1581 331 
L 2175 331 
L 2175 0 
L 353 0 
z
" transform="scale(0.015625)"/>
       <path id="DejaVuSerif-62" d="M 738 331 
L 738 4531 
L 184 4531 
L 184 4863 
L 1313 4863 
L 1313 2803 
Q 1481 3116 1742 3264 
Q 2003 3413 2388 3413 
Q 3000 3413 3387 2928 
Q 3775 2444 3775 1663 
Q 3775 881 3387 395 
Q 3000 -91 2388 -91 
Q 2003 -91 1742 57 
Q 1481 206 1313 519 
L 1313 0 
L 184 0 
L 184 331 
L 738 331 
z
M 1313 1497 
Q 1313 897 1542 583 
Q 1772 269 2209 269 
Q 2650 269 2876 622 
Q 3103 975 3103 1663 
Q 3103 2353 2876 2703 
Q 2650 3053 2209 3053 
Q 1772 3053 1542 2737 
Q 1313 2422 1313 1825 
L 1313 1497 
z
" transform="scale(0.015625)"/>
      </defs>
      <use xlink:href="#DejaVuSerif-50"/>
      <use xlink:href="#DejaVuSerif-45" x="67.285156"/>
      <use xlink:href="#DejaVuSerif-20" x="140.283203"/>
      <use xlink:href="#DejaVuSerif-48" x="172.070312"/>
      <use xlink:href="#DejaVuSerif-65" x="259.277344"/>
      <use xlink:href="#DejaVuSerif-69" x="318.457031"/>
      <use xlink:href="#DejaVuSerif-73" x="350.439453"/>
      <use xlink:href="#DejaVuSerif-65" x="401.757812"/>
      <use xlink:href="#DejaVuSerif-6e" x="460.9375"/>
      <use xlink:href="#DejaVuSerif-62" x="525.341797"/>
      <use xlink:href="#DejaVuSerif-65" x="589.355469"/>
      <use xlink:href="#DejaVuSerif-72" x="648.535156"/>
      <use xlink:href="#DejaVuSerif-67" x="696.337891"/>
     </g>
    </g>
    <g id="line2d_32">
     <path d="M 465.848125 296.263438 
L 485.848125 296.263438 
L 505.848125 296.263438 
" style="fill: none; stroke-dasharray: 11.1,4.8; stroke-dashoffset: 0; stroke: #000000; stroke-width: 3"/>
    </g>
    <g id="text_19">
     <!-- Total E -->
     <g transform="translate(521.848125 303.263438) scale(0.2 -0.2)">
      <defs>
       <path id="DejaVuSerif-6c" d="M 1313 331 
L 1856 331 
L 1856 0 
L 184 0 
L 184 331 
L 738 331 
L 738 4531 
L 184 4531 
L 184 4863 
L 1313 4863 
L 1313 331 
z
" transform="scale(0.015625)"/>
      </defs>
      <use xlink:href="#DejaVuSerif-54"/>
      <use xlink:href="#DejaVuSerif-6f" x="58.949219"/>
      <use xlink:href="#DejaVuSerif-74" x="119.154297"/>
      <use xlink:href="#DejaVuSerif-61" x="159.339844"/>
      <use xlink:href="#DejaVuSerif-6c" x="218.958984"/>
      <use xlink:href="#DejaVuSerif-20" x="250.941406"/>
      <use xlink:href="#DejaVuSerif-45" x="282.728516"/>
     </g>
    </g>
   </g>
  </g>
 </g>
 <defs>
  <clipPath id="pb68e077a7e">
   <rect x="98.805" y="58.32" width="593.115" height="361.14"/>
  </clipPath>
 </defs>
</svg>
