<?xml version="1.0" encoding="utf-8" standalone="no"?>
<!DOCTYPE svg PUBLIC "-//W3C//DTD SVG 1.1//EN"
  "http://www.w3.org/Graphics/SVG/1.1/DTD/svg11.dtd">
<svg xmlns:xlink="http://www.w3.org/1999/xlink" width="720pt" height="504pt" viewBox="0 0 720 504" xmlns="http://www.w3.org/2000/svg" version="1.1">
 <metadata>
  <rdf:RDF xmlns:dc="http://purl.org/dc/elements/1.1/" xmlns:cc="http://creativecommons.org/ns#" xmlns:rdf="http://www.w3.org/1999/02/22-rdf-syntax-ns#">
   <cc:Work>
    <dc:type rdf:resource="http://purl.org/dc/dcmitype/StillImage"/>
    <dc:date>2025-05-30T12:06:11.437737</dc:date>
    <dc:format>image/svg+xml</dc:format>
    <dc:creator>
     <cc:Agent>
      <dc:title>Matplotlib v3.7.2, https://matplotlib.org/</dc:title>
     </cc:Agent>
    </dc:creator>
   </cc:Work>
  </rdf:RDF>
 </metadata>
 <defs>
  <style type="text/css">*{stroke-linejoin: round; stroke-linecap: butt}</style>
 </defs>
 <g id="figure_1">
  <g id="patch_1">
   <path d="M 0 504 
L 720 504 
L 720 0 
L 0 0 
z
" style="fill: #ffffff"/>
  </g>
  <g id="axes_1">
   <g id="patch_2">
    <path d="M 140.295 419.46 
L 691.92 419.46 
L 691.92 58.32 
L 140.295 58.32 
z
" style="fill: #ffffff"/>
   </g>
   <g id="matplotlib.axis_1">
    <g id="xtick_1">
     <g id="line2d_1">
      <path d="M 165.368864 419.46 
L 165.368864 58.32 
" clip-path="url(#pb0fd8cbdbb)" style="fill: none; stroke-dasharray: 3.7,1.6; stroke-dashoffset: 0; stroke: #b0b0b0"/>
     </g>
     <g id="line2d_2">
      <defs>
       <path id="mcfeb35143c" d="M 0 0 
L 0 -10 
" style="stroke: #000000; stroke-width: 2"/>
      </defs>
      <g>
       <use xlink:href="#mcfeb35143c" x="165.368864" y="419.46" style="stroke: #000000; stroke-width: 2"/>
      </g>
     </g>
     <g id="text_1">
      <!-- 0 -->
      <g transform="translate(157.097614 442.715937) scale(0.26 -0.26)">
       <defs>
        <path id="DejaVuSerif-30" d="M 2034 219 
Q 2513 219 2750 744 
Q 2988 1269 2988 2328 
Q 2988 3391 2750 3916 
Q 2513 4441 2034 4441 
Q 1556 4441 1318 3916 
Q 1081 3391 1081 2328 
Q 1081 1269 1318 744 
Q 1556 219 2034 219 
z
M 2034 -91 
Q 1275 -91 848 546 
Q 422 1184 422 2328 
Q 422 3475 848 4112 
Q 1275 4750 2034 4750 
Q 2797 4750 3222 4112 
Q 3647 3475 3647 2328 
Q 3647 1184 3222 546 
Q 2797 -91 2034 -91 
z
" transform="scale(0.015625)"/>
       </defs>
       <use xlink:href="#DejaVuSerif-30"/>
      </g>
     </g>
    </g>
    <g id="xtick_2">
     <g id="line2d_3">
      <path d="M 265.664318 419.46 
L 265.664318 58.32 
" clip-path="url(#pb0fd8cbdbb)" style="fill: none; stroke-dasharray: 3.7,1.6; stroke-dashoffset: 0; stroke: #b0b0b0"/>
     </g>
     <g id="line2d_4">
      <g>
       <use xlink:href="#mcfeb35143c" x="265.664318" y="419.46" style="stroke: #000000; stroke-width: 2"/>
      </g>
     </g>
     <g id="text_2">
      <!-- 1 -->
      <g transform="translate(257.393068 442.715937) scale(0.26 -0.26)">
       <defs>
        <path id="DejaVuSerif-31" d="M 909 0 
L 909 331 
L 1722 331 
L 1722 4213 
L 781 3603 
L 781 4013 
L 1919 4750 
L 2350 4750 
L 2350 331 
L 3163 331 
L 3163 0 
L 909 0 
z
" transform="scale(0.015625)"/>
       </defs>
       <use xlink:href="#DejaVuSerif-31"/>
      </g>
     </g>
    </g>
    <g id="xtick_3">
     <g id="line2d_5">
      <path d="M 365.959773 419.46 
L 365.959773 58.32 
" clip-path="url(#pb0fd8cbdbb)" style="fill: none; stroke-dasharray: 3.7,1.6; stroke-dashoffset: 0; stroke: #b0b0b0"/>
     </g>
     <g id="line2d_6">
      <g>
       <use xlink:href="#mcfeb35143c" x="365.959773" y="419.46" style="stroke: #000000; stroke-width: 2"/>
      </g>
     </g>
     <g id="text_3">
      <!-- 2 -->
      <g transform="translate(357.688523 442.715937) scale(0.26 -0.26)">
       <defs>
        <path id="DejaVuSerif-32" d="M 819 3553 
L 469 3553 
L 469 4384 
Q 803 4563 1142 4656 
Q 1481 4750 1806 4750 
Q 2534 4750 2956 4397 
Q 3378 4044 3378 3438 
Q 3378 2753 2422 1800 
Q 2347 1728 2309 1691 
L 1131 513 
L 3078 513 
L 3078 1088 
L 3444 1088 
L 3444 0 
L 434 0 
L 434 341 
L 1850 1753 
Q 2319 2222 2519 2614 
Q 2719 3006 2719 3438 
Q 2719 3909 2473 4175 
Q 2228 4441 1797 4441 
Q 1350 4441 1106 4219 
Q 863 3997 819 3553 
z
" transform="scale(0.015625)"/>
       </defs>
       <use xlink:href="#DejaVuSerif-32"/>
      </g>
     </g>
    </g>
    <g id="xtick_4">
     <g id="line2d_7">
      <path d="M 466.255227 419.46 
L 466.255227 58.32 
" clip-path="url(#pb0fd8cbdbb)" style="fill: none; stroke-dasharray: 3.7,1.6; stroke-dashoffset: 0; stroke: #b0b0b0"/>
     </g>
     <g id="line2d_8">
      <g>
       <use xlink:href="#mcfeb35143c" x="466.255227" y="419.46" style="stroke: #000000; stroke-width: 2"/>
      </g>
     </g>
     <g id="text_4">
      <!-- 3 -->
      <g transform="translate(457.983977 442.715937) scale(0.26 -0.26)">
       <defs>
        <path id="DejaVuSerif-33" d="M 622 4469 
Q 988 4606 1323 4678 
Q 1659 4750 1953 4750 
Q 2638 4750 3022 4454 
Q 3406 4159 3406 3634 
Q 3406 3213 3140 2930 
Q 2875 2647 2388 2547 
Q 2963 2466 3280 2130 
Q 3597 1794 3597 1259 
Q 3597 606 3158 257 
Q 2719 -91 1894 -91 
Q 1528 -91 1179 -12 
Q 831 66 488 225 
L 488 1131 
L 838 1131 
Q 869 681 1141 450 
Q 1413 219 1906 219 
Q 2384 219 2661 495 
Q 2938 772 2938 1253 
Q 2938 1803 2653 2086 
Q 2369 2369 1819 2369 
L 1522 2369 
L 1522 2688 
L 1678 2688 
Q 2225 2688 2498 2914 
Q 2772 3141 2772 3597 
Q 2772 4006 2547 4223 
Q 2322 4441 1900 4441 
Q 1478 4441 1245 4241 
Q 1013 4041 972 3647 
L 622 3647 
L 622 4469 
z
" transform="scale(0.015625)"/>
       </defs>
       <use xlink:href="#DejaVuSerif-33"/>
      </g>
     </g>
    </g>
    <g id="xtick_5">
     <g id="line2d_9">
      <path d="M 566.550682 419.46 
L 566.550682 58.32 
" clip-path="url(#pb0fd8cbdbb)" style="fill: none; stroke-dasharray: 3.7,1.6; stroke-dashoffset: 0; stroke: #b0b0b0"/>
     </g>
     <g id="line2d_10">
      <g>
       <use xlink:href="#mcfeb35143c" x="566.550682" y="419.46" style="stroke: #000000; stroke-width: 2"/>
      </g>
     </g>
     <g id="text_5">
      <!-- 4 -->
      <g transform="translate(558.279432 442.715937) scale(0.26 -0.26)">
       <defs>
        <path id="DejaVuSerif-34" d="M 2234 1581 
L 2234 4063 
L 641 1581 
L 2234 1581 
z
M 3609 0 
L 1484 0 
L 1484 331 
L 2234 331 
L 2234 1247 
L 197 1247 
L 197 1588 
L 2241 4750 
L 2859 4750 
L 2859 1581 
L 3750 1581 
L 3750 1247 
L 2859 1247 
L 2859 331 
L 3609 331 
L 3609 0 
z
" transform="scale(0.015625)"/>
       </defs>
       <use xlink:href="#DejaVuSerif-34"/>
      </g>
     </g>
    </g>
    <g id="xtick_6">
     <g id="line2d_11">
      <path d="M 666.846136 419.46 
L 666.846136 58.32 
" clip-path="url(#pb0fd8cbdbb)" style="fill: none; stroke-dasharray: 3.7,1.6; stroke-dashoffset: 0; stroke: #b0b0b0"/>
     </g>
     <g id="line2d_12">
      <g>
       <use xlink:href="#mcfeb35143c" x="666.846136" y="419.46" style="stroke: #000000; stroke-width: 2"/>
      </g>
     </g>
     <g id="text_6">
      <!-- 5 -->
      <g transform="translate(658.574886 442.715937) scale(0.26 -0.26)">
       <defs>
        <path id="DejaVuSerif-35" d="M 3219 4666 
L 3219 4153 
L 1081 4153 
L 1081 2816 
Q 1244 2928 1461 2984 
Q 1678 3041 1947 3041 
Q 2703 3041 3140 2622 
Q 3578 2203 3578 1478 
Q 3578 738 3136 323 
Q 2694 -91 1894 -91 
Q 1572 -91 1234 -12 
Q 897 66 544 225 
L 544 1131 
L 897 1131 
Q 925 688 1179 453 
Q 1434 219 1894 219 
Q 2388 219 2653 544 
Q 2919 869 2919 1478 
Q 2919 2084 2655 2407 
Q 2391 2731 1894 2731 
Q 1613 2731 1398 2631 
Q 1184 2531 1019 2322 
L 750 2322 
L 750 4666 
L 3219 4666 
z
" transform="scale(0.015625)"/>
       </defs>
       <use xlink:href="#DejaVuSerif-35"/>
      </g>
     </g>
    </g>
    <g id="text_7">
     <!-- Time (a.u.) -->
     <g transform="translate(344.593281 471.879062) scale(0.26 -0.26)">
      <defs>
       <path id="DejaVuSerif-54" d="M 1222 0 
L 1222 331 
L 1819 331 
L 1819 4294 
L 447 4294 
L 447 3566 
L 63 3566 
L 63 4666 
L 4206 4666 
L 4206 3566 
L 3822 3566 
L 3822 4294 
L 2450 4294 
L 2450 331 
L 3047 331 
L 3047 0 
L 1222 0 
z
" transform="scale(0.015625)"/>
       <path id="DejaVuSerif-69" d="M 622 4353 
Q 622 4497 726 4603 
Q 831 4709 978 4709 
Q 1122 4709 1226 4603 
Q 1331 4497 1331 4353 
Q 1331 4206 1228 4103 
Q 1125 4000 978 4000 
Q 831 4000 726 4103 
Q 622 4206 622 4353 
z
M 1356 331 
L 1900 331 
L 1900 0 
L 231 0 
L 231 331 
L 781 331 
L 781 2988 
L 231 2988 
L 231 3322 
L 1356 3322 
L 1356 331 
z
" transform="scale(0.015625)"/>
       <path id="DejaVuSerif-6d" d="M 3316 2675 
Q 3481 3041 3739 3227 
Q 3997 3413 4341 3413 
Q 4863 3413 5119 3089 
Q 5375 2766 5375 2113 
L 5375 331 
L 5894 331 
L 5894 0 
L 4300 0 
L 4300 331 
L 4800 331 
L 4800 2047 
Q 4800 2556 4650 2772 
Q 4500 2988 4153 2988 
Q 3769 2988 3567 2697 
Q 3366 2406 3366 1850 
L 3366 331 
L 3866 331 
L 3866 0 
L 2291 0 
L 2291 331 
L 2791 331 
L 2791 2069 
Q 2791 2566 2641 2777 
Q 2491 2988 2144 2988 
Q 1759 2988 1557 2697 
Q 1356 2406 1356 1850 
L 1356 331 
L 1856 331 
L 1856 0 
L 263 0 
L 263 331 
L 781 331 
L 781 2994 
L 231 2994 
L 231 3322 
L 1356 3322 
L 1356 2731 
Q 1516 3063 1762 3238 
Q 2009 3413 2322 3413 
Q 2709 3413 2968 3220 
Q 3228 3028 3316 2675 
z
" transform="scale(0.015625)"/>
       <path id="DejaVuSerif-65" d="M 3469 1600 
L 991 1600 
L 991 1575 
Q 991 903 1244 561 
Q 1497 219 1991 219 
Q 2369 219 2611 417 
Q 2853 616 2950 1006 
L 3413 1006 
Q 3275 459 2904 184 
Q 2534 -91 1931 -91 
Q 1203 -91 761 389 
Q 319 869 319 1663 
Q 319 2450 753 2931 
Q 1188 3413 1894 3413 
Q 2647 3413 3050 2948 
Q 3453 2484 3469 1600 
z
M 2791 1931 
Q 2772 2513 2545 2808 
Q 2319 3103 1894 3103 
Q 1497 3103 1269 2806 
Q 1041 2509 991 1931 
L 2791 1931 
z
" transform="scale(0.015625)"/>
       <path id="DejaVuSerif-20" transform="scale(0.015625)"/>
       <path id="DejaVuSerif-28" d="M 2041 -997 
Q 1281 -656 893 83 
Q 506 822 506 1931 
Q 506 3044 893 3783 
Q 1281 4522 2041 4863 
L 2041 4556 
Q 1559 4225 1350 3623 
Q 1141 3022 1141 1931 
Q 1141 844 1350 242 
Q 1559 -359 2041 -691 
L 2041 -997 
z
" transform="scale(0.015625)"/>
       <path id="DejaVuSerif-61" d="M 2547 1044 
L 2547 1747 
L 1806 1747 
Q 1378 1747 1168 1562 
Q 959 1378 959 997 
Q 959 650 1171 447 
Q 1384 244 1747 244 
Q 2106 244 2326 466 
Q 2547 688 2547 1044 
z
M 3122 2075 
L 3122 331 
L 3634 331 
L 3634 0 
L 2547 0 
L 2547 359 
Q 2356 128 2106 18 
Q 1856 -91 1522 -91 
Q 969 -91 644 203 
Q 319 497 319 997 
Q 319 1513 691 1797 
Q 1063 2081 1741 2081 
L 2547 2081 
L 2547 2309 
Q 2547 2688 2317 2895 
Q 2088 3103 1672 3103 
Q 1328 3103 1125 2947 
Q 922 2791 872 2484 
L 575 2484 
L 575 3156 
Q 875 3284 1158 3348 
Q 1441 3413 1709 3413 
Q 2400 3413 2761 3070 
Q 3122 2728 3122 2075 
z
" transform="scale(0.015625)"/>
       <path id="DejaVuSerif-2e" d="M 603 325 
Q 603 500 722 622 
Q 841 744 1019 744 
Q 1191 744 1312 622 
Q 1434 500 1434 325 
Q 1434 153 1312 31 
Q 1191 -91 1019 -91 
Q 841 -91 722 29 
Q 603 150 603 325 
z
" transform="scale(0.015625)"/>
       <path id="DejaVuSerif-75" d="M 2266 3322 
L 3341 3322 
L 3341 331 
L 3884 331 
L 3884 0 
L 2766 0 
L 2766 588 
Q 2606 256 2353 82 
Q 2100 -91 1766 -91 
Q 1213 -91 952 223 
Q 691 538 691 1209 
L 691 2988 
L 172 2988 
L 172 3322 
L 1269 3322 
L 1269 1388 
Q 1269 781 1417 556 
Q 1566 331 1947 331 
Q 2347 331 2556 625 
Q 2766 919 2766 1478 
L 2766 2988 
L 2266 2988 
L 2266 3322 
z
" transform="scale(0.015625)"/>
       <path id="DejaVuSerif-29" d="M 453 -997 
L 453 -691 
Q 934 -359 1145 242 
Q 1356 844 1356 1931 
Q 1356 3022 1145 3623 
Q 934 4225 453 4556 
L 453 4863 
Q 1216 4522 1603 3783 
Q 1991 3044 1991 1931 
Q 1991 822 1603 83 
Q 1216 -656 453 -997 
z
" transform="scale(0.015625)"/>
      </defs>
      <use xlink:href="#DejaVuSerif-54"/>
      <use xlink:href="#DejaVuSerif-69" x="66.699219"/>
      <use xlink:href="#DejaVuSerif-6d" x="98.681641"/>
      <use xlink:href="#DejaVuSerif-65" x="193.505859"/>
      <use xlink:href="#DejaVuSerif-20" x="252.685547"/>
      <use xlink:href="#DejaVuSerif-28" x="284.472656"/>
      <use xlink:href="#DejaVuSerif-61" x="323.486328"/>
      <use xlink:href="#DejaVuSerif-2e" x="383.105469"/>
      <use xlink:href="#DejaVuSerif-75" x="414.892578"/>
      <use xlink:href="#DejaVuSerif-2e" x="479.296875"/>
      <use xlink:href="#DejaVuSerif-29" x="511.083984"/>
     </g>
    </g>
   </g>
   <g id="matplotlib.axis_2">
    <g id="ytick_1">
     <g id="line2d_13">
      <path d="M 140.295 403.034691 
L 691.92 403.034691 
" clip-path="url(#pb0fd8cbdbb)" style="fill: none; stroke-dasharray: 3.7,1.6; stroke-dashoffset: 0; stroke: #b0b0b0"/>
     </g>
     <g id="line2d_14">
      <defs>
       <path id="mbb3be7a3c2" d="M 0 0 
L 10 0 
" style="stroke: #000000; stroke-width: 2"/>
      </defs>
      <g>
       <use xlink:href="#mbb3be7a3c2" x="140.295" y="403.034691" style="stroke: #000000; stroke-width: 2"/>
      </g>
     </g>
     <g id="text_8">
      <!-- −1.0 -->
      <g transform="translate(73.659688 412.91266) scale(0.26 -0.26)">
       <defs>
        <path id="DejaVuSerif-2212" d="M 678 2259 
L 4684 2259 
L 4684 1753 
L 678 1753 
L 678 2259 
z
" transform="scale(0.015625)"/>
       </defs>
       <use xlink:href="#DejaVuSerif-2212"/>
       <use xlink:href="#DejaVuSerif-31" x="83.789062"/>
       <use xlink:href="#DejaVuSerif-2e" x="147.412109"/>
       <use xlink:href="#DejaVuSerif-30" x="179.199219"/>
      </g>
     </g>
    </g>
    <g id="ytick_2">
     <g id="line2d_15">
      <path d="M 140.295 290.195726 
L 691.92 290.195726 
" clip-path="url(#pb0fd8cbdbb)" style="fill: none; stroke-dasharray: 3.7,1.6; stroke-dashoffset: 0; stroke: #b0b0b0"/>
     </g>
     <g id="line2d_16">
      <g>
       <use xlink:href="#mbb3be7a3c2" x="140.295" y="290.195726" style="stroke: #000000; stroke-width: 2"/>
      </g>
     </g>
     <g id="text_9">
      <!-- −0.5 -->
      <g transform="translate(73.659688 300.073695) scale(0.26 -0.26)">
       <use xlink:href="#DejaVuSerif-2212"/>
       <use xlink:href="#DejaVuSerif-30" x="83.789062"/>
       <use xlink:href="#DejaVuSerif-2e" x="147.412109"/>
       <use xlink:href="#DejaVuSerif-35" x="179.199219"/>
      </g>
     </g>
    </g>
    <g id="ytick_3">
     <g id="line2d_17">
      <path d="M 140.295 177.356762 
L 691.92 177.356762 
" clip-path="url(#pb0fd8cbdbb)" style="fill: none; stroke-dasharray: 3.7,1.6; stroke-dashoffset: 0; stroke: #b0b0b0"/>
     </g>
     <g id="line2d_18">
      <g>
       <use xlink:href="#mbb3be7a3c2" x="140.295" y="177.356762" style="stroke: #000000; stroke-width: 2"/>
      </g>
     </g>
     <g id="text_10">
      <!-- 0.0 -->
      <g transform="translate(95.446875 187.23473) scale(0.26 -0.26)">
       <use xlink:href="#DejaVuSerif-30"/>
       <use xlink:href="#DejaVuSerif-2e" x="63.623047"/>
       <use xlink:href="#DejaVuSerif-30" x="95.410156"/>
      </g>
     </g>
    </g>
    <g id="ytick_4">
     <g id="line2d_19">
      <path d="M 140.295 64.517797 
L 691.92 64.517797 
" clip-path="url(#pb0fd8cbdbb)" style="fill: none; stroke-dasharray: 3.7,1.6; stroke-dashoffset: 0; stroke: #b0b0b0"/>
     </g>
     <g id="line2d_20">
      <g>
       <use xlink:href="#mbb3be7a3c2" x="140.295" y="64.517797" style="stroke: #000000; stroke-width: 2"/>
      </g>
     </g>
     <g id="text_11">
      <!-- 0.5 -->
      <g transform="translate(95.446875 74.395766) scale(0.26 -0.26)">
       <use xlink:href="#DejaVuSerif-30"/>
       <use xlink:href="#DejaVuSerif-2e" x="63.623047"/>
       <use xlink:href="#DejaVuSerif-35" x="95.410156"/>
      </g>
     </g>
    </g>
    <g id="text_12">
     <!-- Energy Components (a.u.) -->
     <g transform="translate(63.882813 411.706719) rotate(-90) scale(0.26 -0.26)">
      <defs>
       <path id="DejaVuSerif-45" d="M 353 0 
L 353 331 
L 947 331 
L 947 4331 
L 353 4331 
L 353 4666 
L 4109 4666 
L 4109 3628 
L 3725 3628 
L 3725 4281 
L 1581 4281 
L 1581 2719 
L 3109 2719 
L 3109 3303 
L 3494 3303 
L 3494 1753 
L 3109 1753 
L 3109 2338 
L 1581 2338 
L 1581 384 
L 3775 384 
L 3775 1038 
L 4159 1038 
L 4159 0 
L 353 0 
z
" transform="scale(0.015625)"/>
       <path id="DejaVuSerif-6e" d="M 263 0 
L 263 331 
L 781 331 
L 781 2988 
L 231 2988 
L 231 3322 
L 1356 3322 
L 1356 2731 
Q 1516 3069 1770 3241 
Q 2025 3413 2363 3413 
Q 2913 3413 3172 3097 
Q 3431 2781 3431 2113 
L 3431 331 
L 3944 331 
L 3944 0 
L 2356 0 
L 2356 331 
L 2853 331 
L 2853 1931 
Q 2853 2541 2703 2767 
Q 2553 2994 2175 2994 
Q 1775 2994 1565 2701 
Q 1356 2409 1356 1850 
L 1356 331 
L 1856 331 
L 1856 0 
L 263 0 
z
" transform="scale(0.015625)"/>
       <path id="DejaVuSerif-72" d="M 3059 3328 
L 3059 2497 
L 2728 2497 
Q 2713 2744 2591 2866 
Q 2469 2988 2234 2988 
Q 1809 2988 1582 2694 
Q 1356 2400 1356 1850 
L 1356 331 
L 2022 331 
L 2022 0 
L 263 0 
L 263 331 
L 781 331 
L 781 2994 
L 231 2994 
L 231 3322 
L 1356 3322 
L 1356 2731 
Q 1525 3078 1790 3245 
Q 2056 3413 2438 3413 
Q 2578 3413 2733 3391 
Q 2888 3369 3059 3328 
z
" transform="scale(0.015625)"/>
       <path id="DejaVuSerif-67" d="M 3359 2988 
L 3359 72 
Q 3359 -644 2965 -1033 
Q 2572 -1422 1844 -1422 
Q 1516 -1422 1216 -1362 
Q 916 -1303 641 -1184 
L 641 -488 
L 941 -488 
Q 997 -813 1206 -963 
Q 1416 -1113 1806 -1113 
Q 2313 -1113 2548 -827 
Q 2784 -541 2784 72 
L 2784 519 
Q 2616 206 2355 57 
Q 2094 -91 1709 -91 
Q 1097 -91 708 395 
Q 319 881 319 1663 
Q 319 2444 706 2928 
Q 1094 3413 1709 3413 
Q 2094 3413 2355 3264 
Q 2616 3116 2784 2803 
L 2784 3322 
L 3909 3322 
L 3909 2988 
L 3359 2988 
z
M 2784 1825 
Q 2784 2422 2554 2737 
Q 2325 3053 1888 3053 
Q 1444 3053 1217 2703 
Q 991 2353 991 1663 
Q 991 975 1217 622 
Q 1444 269 1888 269 
Q 2325 269 2554 583 
Q 2784 897 2784 1497 
L 2784 1825 
z
" transform="scale(0.015625)"/>
       <path id="DejaVuSerif-79" d="M 1381 -609 
L 1600 -56 
L 359 2988 
L -19 2988 
L -19 3322 
L 1509 3322 
L 1509 2988 
L 978 2988 
L 1913 703 
L 2847 2988 
L 2350 2988 
L 2350 3322 
L 3597 3322 
L 3597 2988 
L 3225 2988 
L 1703 -750 
Q 1547 -1138 1356 -1280 
Q 1166 -1422 819 -1422 
Q 672 -1422 517 -1397 
Q 363 -1372 206 -1325 
L 206 -691 
L 500 -691 
Q 519 -903 608 -995 
Q 697 -1088 884 -1088 
Q 1056 -1088 1161 -992 
Q 1266 -897 1381 -609 
z
" transform="scale(0.015625)"/>
       <path id="DejaVuSerif-43" d="M 4513 1234 
Q 4306 581 3820 245 
Q 3334 -91 2591 -91 
Q 2134 -91 1743 65 
Q 1353 222 1050 525 
Q 700 875 529 1320 
Q 359 1766 359 2328 
Q 359 3416 987 4083 
Q 1616 4750 2644 4750 
Q 3025 4750 3456 4650 
Q 3888 4550 4384 4347 
L 4384 3272 
L 4031 3272 
Q 3916 3859 3567 4137 
Q 3219 4416 2591 4416 
Q 1844 4416 1459 3886 
Q 1075 3356 1075 2328 
Q 1075 1303 1459 773 
Q 1844 244 2591 244 
Q 3113 244 3450 492 
Q 3788 741 3938 1234 
L 4513 1234 
z
" transform="scale(0.015625)"/>
       <path id="DejaVuSerif-6f" d="M 1925 219 
Q 2388 219 2623 584 
Q 2859 950 2859 1663 
Q 2859 2375 2623 2739 
Q 2388 3103 1925 3103 
Q 1463 3103 1227 2739 
Q 991 2375 991 1663 
Q 991 950 1228 584 
Q 1466 219 1925 219 
z
M 1925 -91 
Q 1200 -91 759 389 
Q 319 869 319 1663 
Q 319 2456 758 2934 
Q 1197 3413 1925 3413 
Q 2653 3413 3092 2934 
Q 3531 2456 3531 1663 
Q 3531 869 3092 389 
Q 2653 -91 1925 -91 
z
" transform="scale(0.015625)"/>
       <path id="DejaVuSerif-70" d="M 1313 1825 
L 1313 1497 
Q 1313 897 1542 583 
Q 1772 269 2209 269 
Q 2650 269 2876 622 
Q 3103 975 3103 1663 
Q 3103 2353 2876 2703 
Q 2650 3053 2209 3053 
Q 1772 3053 1542 2737 
Q 1313 2422 1313 1825 
z
M 738 2988 
L 184 2988 
L 184 3322 
L 1313 3322 
L 1313 2803 
Q 1481 3116 1742 3264 
Q 2003 3413 2388 3413 
Q 3000 3413 3387 2928 
Q 3775 2444 3775 1663 
Q 3775 881 3387 395 
Q 3000 -91 2388 -91 
Q 2003 -91 1742 57 
Q 1481 206 1313 519 
L 1313 -997 
L 1856 -997 
L 1856 -1331 
L 184 -1331 
L 184 -997 
L 738 -997 
L 738 2988 
z
" transform="scale(0.015625)"/>
       <path id="DejaVuSerif-74" d="M 691 2988 
L 184 2988 
L 184 3322 
L 691 3322 
L 691 4353 
L 1269 4353 
L 1269 3322 
L 2350 3322 
L 2350 2988 
L 1269 2988 
L 1269 878 
Q 1269 456 1350 337 
Q 1431 219 1650 219 
Q 1875 219 1978 351 
Q 2081 484 2088 781 
L 2522 781 
Q 2497 328 2275 118 
Q 2053 -91 1600 -91 
Q 1103 -91 897 129 
Q 691 350 691 878 
L 691 2988 
z
" transform="scale(0.015625)"/>
       <path id="DejaVuSerif-73" d="M 359 184 
L 359 959 
L 691 959 
Q 703 588 923 403 
Q 1144 219 1575 219 
Q 1963 219 2166 364 
Q 2369 509 2369 788 
Q 2369 1006 2220 1140 
Q 2072 1275 1594 1428 
L 1178 1569 
Q 750 1706 558 1912 
Q 366 2119 366 2438 
Q 366 2894 700 3153 
Q 1034 3413 1625 3413 
Q 1888 3413 2178 3344 
Q 2469 3275 2778 3144 
L 2778 2419 
L 2447 2419 
Q 2434 2741 2221 2922 
Q 2009 3103 1644 3103 
Q 1281 3103 1095 2975 
Q 909 2847 909 2591 
Q 909 2381 1050 2254 
Q 1191 2128 1613 1997 
L 2069 1856 
Q 2541 1709 2748 1489 
Q 2956 1269 2956 922 
Q 2956 450 2595 179 
Q 2234 -91 1600 -91 
Q 1278 -91 972 -22 
Q 666 47 359 184 
z
" transform="scale(0.015625)"/>
      </defs>
      <use xlink:href="#DejaVuSerif-45"/>
      <use xlink:href="#DejaVuSerif-6e" x="72.998047"/>
      <use xlink:href="#DejaVuSerif-65" x="137.402344"/>
      <use xlink:href="#DejaVuSerif-72" x="196.582031"/>
      <use xlink:href="#DejaVuSerif-67" x="244.384766"/>
      <use xlink:href="#DejaVuSerif-79" x="308.398438"/>
      <use xlink:href="#DejaVuSerif-20" x="364.892578"/>
      <use xlink:href="#DejaVuSerif-43" x="396.679688"/>
      <use xlink:href="#DejaVuSerif-6f" x="473.193359"/>
      <use xlink:href="#DejaVuSerif-6d" x="533.398438"/>
      <use xlink:href="#DejaVuSerif-70" x="628.222656"/>
      <use xlink:href="#DejaVuSerif-6f" x="692.236328"/>
      <use xlink:href="#DejaVuSerif-6e" x="752.441406"/>
      <use xlink:href="#DejaVuSerif-65" x="816.845703"/>
      <use xlink:href="#DejaVuSerif-6e" x="876.025391"/>
      <use xlink:href="#DejaVuSerif-74" x="940.429688"/>
      <use xlink:href="#DejaVuSerif-73" x="980.615234"/>
      <use xlink:href="#DejaVuSerif-20" x="1031.933594"/>
      <use xlink:href="#DejaVuSerif-28" x="1063.720703"/>
      <use xlink:href="#DejaVuSerif-61" x="1102.734375"/>
      <use xlink:href="#DejaVuSerif-2e" x="1162.353516"/>
      <use xlink:href="#DejaVuSerif-75" x="1194.140625"/>
      <use xlink:href="#DejaVuSerif-2e" x="1258.544922"/>
      <use xlink:href="#DejaVuSerif-29" x="1290.332031"/>
     </g>
    </g>
   </g>
   <g id="line2d_21">
    <path d="M 165.368864 74.748924 
L 170.434291 74.745884 
L 175.499718 74.743026 
L 180.565145 74.740484 
L 185.630572 74.738373 
L 190.695999 74.736791 
L 195.761426 74.73581 
L 200.826853 74.735476 
L 205.89228 74.735803 
L 210.957707 74.736776 
L 216.023134 74.738352 
L 221.088561 74.740456 
L 226.153988 74.742993 
L 231.219415 74.745847 
L 236.284842 74.748888 
L 241.350269 74.751976 
L 246.415696 74.754971 
L 251.481123 74.757736 
L 256.54655 74.760143 
L 261.611977 74.762084 
L 266.677404 74.763468 
L 271.742831 74.764233 
L 276.808258 74.764344 
L 281.873685 74.763795 
L 286.939112 74.762612 
L 292.004539 74.760848 
L 297.069966 74.758585 
L 302.135393 74.755926 
L 307.20082 74.752992 
L 312.266247 74.749918 
L 317.331674 74.746843 
L 322.397101 74.743908 
L 327.462528 74.741248 
L 332.527955 74.738984 
L 337.593382 74.737221 
L 342.658809 74.73604 
L 347.724236 74.735494 
L 352.789663 74.735608 
L 357.85509 74.736378 
L 362.920517 74.737768 
L 367.985944 74.739714 
L 373.051371 74.742127 
L 378.116798 74.744897 
L 383.182225 74.747897 
L 388.247652 74.750978 
L 393.313079 74.754033 
L 398.378506 74.756888 
L 403.443933 74.759428 
L 408.50936 74.761533 
L 413.574787 74.763107 
L 418.640213 74.764078 
L 423.70564 74.764402 
L 428.771067 74.764063 
L 433.836494 74.763077 
L 438.901921 74.761491 
L 443.967348 74.759375 
L 449.032775 74.756826 
L 454.098202 74.753962 
L 459.163629 74.750913 
L 464.229056 74.747819 
L 469.294483 74.744821 
L 474.35991 74.742057 
L 479.425337 74.739653 
L 484.490764 74.737719 
L 489.556191 74.736344 
L 494.621618 74.73559 
L 499.687045 74.735493 
L 504.752472 74.736055 
L 509.817899 74.737252 
L 514.883326 74.739029 
L 519.948753 74.741304 
L 525.01418 74.743973 
L 530.079607 74.746915 
L 535.145034 74.749995 
L 540.210461 74.753071 
L 545.275888 74.756004 
L 550.341315 74.758659 
L 555.406742 74.760915 
L 560.472169 74.762667 
L 565.537596 74.763837 
L 570.603023 74.764371 
L 575.66845 74.764243 
L 580.733877 74.76346 
L 585.799304 74.762059 
L 590.864731 74.760102 
L 595.930158 74.75768 
L 600.995585 74.754904 
L 606.061012 74.7519 
L 611.126439 74.748806 
L 616.191866 74.745763 
L 621.257293 74.74291 
L 626.32272 74.740379 
L 631.388147 74.738284 
L 636.453574 74.736722 
L 641.519001 74.735764 
L 646.584428 74.735455 
L 651.649855 74.735807 
L 656.715282 74.736805 
L 661.780709 74.738403 
L 666.846136 74.740529 
" clip-path="url(#pb0fd8cbdbb)" style="fill: none; stroke: #1f77b4; stroke-width: 3; stroke-linecap: square"/>
   </g>
   <g id="line2d_22">
    <path d="M 165.368864 403.033836 
L 170.434291 403.036847 
L 175.499718 403.039508 
L 180.565145 403.041692 
L 185.630572 403.043301 
L 190.695999 403.044261 
L 195.761426 403.044526 
L 200.826853 403.044085 
L 205.89228 403.042959 
L 210.957707 403.041198 
L 216.023134 403.038884 
L 221.088561 403.036124 
L 226.153988 403.033043 
L 231.219415 403.029781 
L 236.284842 403.026489 
L 241.350269 403.023316 
L 246.415696 403.020407 
L 251.481123 403.017896 
L 256.54655 403.015897 
L 261.611977 403.014503 
L 266.677404 403.013776 
L 271.742831 403.01375 
L 276.808258 403.014427 
L 281.873685 403.015775 
L 286.939112 403.017733 
L 292.004539 403.020212 
L 297.069966 403.023097 
L 302.135393 403.026257 
L 307.20082 403.029547 
L 312.266247 403.032818 
L 317.331674 403.03592 
L 322.397101 403.038711 
L 327.462528 403.041064 
L 332.527955 403.04287 
L 337.593382 403.044045 
L 342.658809 403.044537 
L 347.724236 403.044322 
L 352.789663 403.043411 
L 357.85509 403.041845 
L 362.920517 403.039697 
L 367.985944 403.037063 
L 373.051371 403.034066 
L 378.116798 403.030842 
L 383.182225 403.027539 
L 388.247652 403.024318 
L 393.313079 403.021295 
L 398.378506 403.01864 
L 403.443933 403.016461 
L 408.50936 403.014861 
L 413.574787 403.013912 
L 418.640213 403.013659 
L 423.70564 403.014112 
L 428.771067 403.015252 
L 433.836494 403.017025 
L 438.901921 403.019351 
L 443.967348 403.022123 
L 449.032775 403.025214 
L 454.098202 403.028484 
L 459.163629 403.031782 
L 464.229056 403.034959 
L 469.294483 403.037867 
L 474.35991 403.040374 
L 479.425337 403.042365 
L 484.490764 403.043749 
L 489.556191 403.044463 
L 494.621618 403.044475 
L 499.687045 403.043784 
L 504.752472 403.042421 
L 509.817899 403.040449 
L 514.883326 403.037958 
L 519.948753 403.035063 
L 525.01418 403.031895 
L 530.079607 403.028599 
L 535.145034 403.025326 
L 540.210461 403.022226 
L 545.275888 403.019441 
L 550.341315 403.017097 
L 555.406742 403.015303 
L 560.472169 403.01414 
L 565.537596 403.013662 
L 570.603023 403.013891 
L 575.66845 403.014815 
L 580.733877 403.016394 
L 585.799304 403.018554 
L 590.864731 403.021196 
L 595.930158 403.0242 
L 600.995585 403.027428 
L 606.061012 403.030733 
L 611.126439 403.033963 
L 616.191866 403.036971 
L 621.257293 403.039619 
L 626.32272 403.041786 
L 631.388147 403.043373 
L 636.453574 403.044307 
L 641.519001 403.044545 
L 646.584428 403.044077 
L 651.649855 403.042924 
L 656.715282 403.041139 
L 661.780709 403.038804 
L 666.846136 403.036025 
" clip-path="url(#pb0fd8cbdbb)" style="fill: none; stroke: #ff7f0e; stroke-width: 3; stroke-linecap: square"/>
   </g>
   <g id="line2d_23">
    <path d="M 165.368864 177.356762 
L 170.434291 177.356762 
L 175.499718 177.356762 
L 180.565145 177.356762 
L 185.630572 177.356762 
L 190.695999 177.356762 
L 195.761426 177.356762 
L 200.826853 177.356762 
L 205.89228 177.356762 
L 210.957707 177.356762 
L 216.023134 177.356762 
L 221.088561 177.356762 
L 226.153988 177.356762 
L 231.219415 177.356762 
L 236.284842 177.356762 
L 241.350269 177.356762 
L 246.415696 177.356762 
L 251.481123 177.356762 
L 256.54655 177.356762 
L 261.611977 177.356762 
L 266.677404 177.356762 
L 271.742831 177.356762 
L 276.808258 177.356762 
L 281.873685 177.356762 
L 286.939112 177.356762 
L 292.004539 177.356762 
L 297.069966 177.356762 
L 302.135393 177.356762 
L 307.20082 177.356762 
L 312.266247 177.356762 
L 317.331674 177.356762 
L 322.397101 177.356762 
L 327.462528 177.356762 
L 332.527955 177.356762 
L 337.593382 177.356762 
L 342.658809 177.356762 
L 347.724236 177.356762 
L 352.789663 177.356762 
L 357.85509 177.356762 
L 362.920517 177.356762 
L 367.985944 177.356762 
L 373.051371 177.356762 
L 378.116798 177.356762 
L 383.182225 177.356762 
L 388.247652 177.356762 
L 393.313079 177.356762 
L 398.378506 177.356762 
L 403.443933 177.356762 
L 408.50936 177.356762 
L 413.574787 177.356762 
L 418.640213 177.356762 
L 423.70564 177.356762 
L 428.771067 177.356762 
L 433.836494 177.356762 
L 438.901921 177.356762 
L 443.967348 177.356762 
L 449.032775 177.356762 
L 454.098202 177.356762 
L 459.163629 177.356762 
L 464.229056 177.356762 
L 469.294483 177.356762 
L 474.35991 177.356762 
L 479.425337 177.356762 
L 484.490764 177.356762 
L 489.556191 177.356762 
L 494.621618 177.356762 
L 499.687045 177.356762 
L 504.752472 177.356762 
L 509.817899 177.356762 
L 514.883326 177.356762 
L 519.948753 177.356762 
L 525.01418 177.356762 
L 530.079607 177.356762 
L 535.145034 177.356762 
L 540.210461 177.356762 
L 545.275888 177.356762 
L 550.341315 177.356762 
L 555.406742 177.356762 
L 560.472169 177.356762 
L 565.537596 177.356762 
L 570.603023 177.356762 
L 575.66845 177.356762 
L 580.733877 177.356762 
L 585.799304 177.356762 
L 590.864731 177.356762 
L 595.930158 177.356762 
L 600.995585 177.356762 
L 606.061012 177.356762 
L 611.126439 177.356762 
L 616.191866 177.356762 
L 621.257293 177.356762 
L 626.32272 177.356762 
L 631.388147 177.356762 
L 636.453574 177.356762 
L 641.519001 177.356762 
L 646.584428 177.356762 
L 651.649855 177.356762 
L 656.715282 177.356762 
L 661.780709 177.356762 
L 666.846136 177.356762 
" clip-path="url(#pb0fd8cbdbb)" style="fill: none; stroke: #2ca02c; stroke-width: 3; stroke-linecap: square"/>
   </g>
   <g id="line2d_24">
    <path d="M 165.368864 167.095764 
L 170.434291 167.095791 
L 175.499718 167.095988 
L 180.565145 167.096345 
L 185.630572 167.096846 
L 190.695999 167.097468 
L 195.761426 167.098183 
L 200.826853 167.098958 
L 205.89228 167.099758 
L 210.957707 167.100545 
L 216.023134 167.101284 
L 221.088561 167.101941 
L 226.153988 167.102486 
L 231.219415 167.102894 
L 236.284842 167.103147 
L 241.350269 167.103232 
L 246.415696 167.103146 
L 251.481123 167.102894 
L 256.54655 167.102486 
L 261.611977 167.10194 
L 266.677404 167.101283 
L 271.742831 167.100544 
L 276.808258 167.099756 
L 281.873685 167.098957 
L 286.939112 167.098182 
L 292.004539 167.097466 
L 297.069966 167.096844 
L 302.135393 167.096342 
L 307.20082 167.095985 
L 312.266247 167.095787 
L 317.331674 167.095759 
L 322.397101 167.095902 
L 327.462528 167.096209 
L 332.527955 167.096666 
L 337.593382 167.097253 
L 342.658809 167.097943 
L 347.724236 167.098703 
L 352.789663 167.0995 
L 357.85509 167.100296 
L 362.920517 167.101056 
L 367.985944 167.101743 
L 373.051371 167.102328 
L 378.116798 167.102783 
L 383.182225 167.103088 
L 388.247652 167.103228 
L 393.313079 167.103197 
L 398.378506 167.102997 
L 403.443933 167.102637 
L 408.50936 167.102133 
L 413.574787 167.101508 
L 418.640213 167.10079 
L 423.70564 167.100013 
L 428.771067 167.099213 
L 433.836494 167.098424 
L 438.901921 167.097685 
L 443.967348 167.097029 
L 449.032775 167.096485 
L 454.098202 167.096078 
L 459.163629 167.095828 
L 464.229056 167.095745 
L 469.294483 167.095834 
L 474.35991 167.096091 
L 479.425337 167.096503 
L 484.490764 167.097052 
L 489.556191 167.097712 
L 494.621618 167.098454 
L 499.687045 167.099243 
L 504.752472 167.100044 
L 509.817899 167.100819 
L 514.883326 167.101533 
L 519.948753 167.102154 
L 525.01418 167.102654 
L 530.079607 167.103008 
L 535.145034 167.103202 
L 540.210461 167.103227 
L 545.275888 167.10308 
L 550.341315 167.102769 
L 555.406742 167.102309 
L 560.472169 167.101719 
L 565.537596 167.101028 
L 570.603023 167.100266 
L 575.66845 167.099469 
L 580.733877 167.098673 
L 585.799304 167.097914 
L 590.864731 167.097228 
L 595.930158 167.096645 
L 600.995585 167.096192 
L 606.061012 167.095891 
L 611.126439 167.095754 
L 616.191866 167.095788 
L 621.257293 167.095992 
L 626.32272 167.096356 
L 631.388147 167.096863 
L 636.453574 167.097491 
L 641.519001 167.09821 
L 646.584428 167.098987 
L 651.649855 167.099788 
L 656.715282 167.100575 
L 661.780709 167.101313 
L 666.846136 167.101967 
" clip-path="url(#pb0fd8cbdbb)" style="fill: none; stroke: #d62728; stroke-width: 3; stroke-linecap: square"/>
   </g>
   <g id="line2d_25">
    <path d="M 165.368864 290.165 
L 170.434291 290.164999 
L 175.499718 290.164998 
L 180.565145 290.164997 
L 185.630572 290.164997 
L 190.695999 290.164996 
L 195.761426 290.164996 
L 200.826853 290.164996 
L 205.89228 290.164996 
L 210.957707 290.164996 
L 216.023134 290.164997 
L 221.088561 290.164997 
L 226.153988 290.164998 
L 231.219415 290.164999 
L 236.284842 290.165 
L 241.350269 290.165 
L 246.415696 290.165001 
L 251.481123 290.165002 
L 256.54655 290.165003 
L 261.611977 290.165003 
L 266.677404 290.165004 
L 271.742831 290.165004 
L 276.808258 290.165004 
L 281.873685 290.165004 
L 286.939112 290.165003 
L 292.004539 290.165003 
L 297.069966 290.165002 
L 302.135393 290.165002 
L 307.20082 290.165001 
L 312.266247 290.165 
L 317.331674 290.164999 
L 322.397101 290.164998 
L 327.462528 290.164998 
L 332.527955 290.164997 
L 337.593382 290.164996 
L 342.658809 290.164996 
L 347.724236 290.164996 
L 352.789663 290.164996 
L 357.85509 290.164996 
L 362.920517 290.164997 
L 367.985944 290.164997 
L 373.051371 290.164998 
L 378.116798 290.164999 
L 383.182225 290.164999 
L 388.247652 290.165 
L 393.313079 290.165001 
L 398.378506 290.165002 
L 403.443933 290.165002 
L 408.50936 290.165003 
L 413.574787 290.165003 
L 418.640213 290.165004 
L 423.70564 290.165004 
L 428.771067 290.165004 
L 433.836494 290.165003 
L 438.901921 290.165003 
L 443.967348 290.165002 
L 449.032775 290.165002 
L 454.098202 290.165001 
L 459.163629 290.165 
L 464.229056 290.164999 
L 469.294483 290.164999 
L 474.35991 290.164998 
L 479.425337 290.164997 
L 484.490764 290.164997 
L 489.556191 290.164996 
L 494.621618 290.164996 
L 499.687045 290.164996 
L 504.752472 290.164996 
L 509.817899 290.164996 
L 514.883326 290.164997 
L 519.948753 290.164998 
L 525.01418 290.164998 
L 530.079607 290.164999 
L 535.145034 290.165 
L 540.210461 290.165001 
L 545.275888 290.165002 
L 550.341315 290.165002 
L 555.406742 290.165003 
L 560.472169 290.165003 
L 565.537596 290.165004 
L 570.603023 290.165004 
L 575.66845 290.165004 
L 580.733877 290.165004 
L 585.799304 290.165003 
L 590.864731 290.165003 
L 595.930158 290.165002 
L 600.995585 290.165001 
L 606.061012 290.165 
L 611.126439 290.165 
L 616.191866 290.164999 
L 621.257293 290.164998 
L 626.32272 290.164997 
L 631.388147 290.164997 
L 636.453574 290.164996 
L 641.519001 290.164996 
L 646.584428 290.164996 
L 651.649855 290.164996 
L 656.715282 290.164996 
L 661.780709 290.164997 
L 666.846136 290.164997 
" clip-path="url(#pb0fd8cbdbb)" style="fill: none; stroke-dasharray: 11.1,4.8; stroke-dashoffset: 0; stroke: #000000; stroke-width: 3"/>
   </g>
   <g id="patch_3">
    <path d="M 140.295 419.46 
L 140.295 58.32 
" style="fill: none; stroke: #000000; stroke-width: 2; stroke-linejoin: miter; stroke-linecap: square"/>
   </g>
   <g id="patch_4">
    <path d="M 691.92 419.46 
L 691.92 58.32 
" style="fill: none; stroke: #000000; stroke-width: 2; stroke-linejoin: miter; stroke-linecap: square"/>
   </g>
   <g id="patch_5">
    <path d="M 140.295 419.46 
L 691.92 419.46 
" style="fill: none; stroke: #000000; stroke-width: 2; stroke-linejoin: miter; stroke-linecap: square"/>
   </g>
   <g id="patch_6">
    <path d="M 140.295 58.32 
L 691.92 58.32 
" style="fill: none; stroke: #000000; stroke-width: 2; stroke-linejoin: miter; stroke-linecap: square"/>
   </g>
   <g id="text_13">
    <!-- Energy Components vs. Time -->
    <g transform="translate(184.00875 51.38775) scale(0.312 -0.312)">
     <defs>
      <path id="DejaVuSerif-76" d="M 1581 0 
L 359 2988 
L -19 2988 
L -19 3322 
L 1509 3322 
L 1509 2988 
L 978 2988 
L 1913 703 
L 2847 2988 
L 2350 2988 
L 2350 3322 
L 3597 3322 
L 3597 2988 
L 3225 2988 
L 2003 0 
L 1581 0 
z
" transform="scale(0.015625)"/>
     </defs>
     <use xlink:href="#DejaVuSerif-45"/>
     <use xlink:href="#DejaVuSerif-6e" x="72.998047"/>
     <use xlink:href="#DejaVuSerif-65" x="137.402344"/>
     <use xlink:href="#DejaVuSerif-72" x="196.582031"/>
     <use xlink:href="#DejaVuSerif-67" x="244.384766"/>
     <use xlink:href="#DejaVuSerif-79" x="308.398438"/>
     <use xlink:href="#DejaVuSerif-20" x="364.892578"/>
     <use xlink:href="#DejaVuSerif-43" x="396.679688"/>
     <use xlink:href="#DejaVuSerif-6f" x="473.193359"/>
     <use xlink:href="#DejaVuSerif-6d" x="533.398438"/>
     <use xlink:href="#DejaVuSerif-70" x="628.222656"/>
     <use xlink:href="#DejaVuSerif-6f" x="692.236328"/>
     <use xlink:href="#DejaVuSerif-6e" x="752.441406"/>
     <use xlink:href="#DejaVuSerif-65" x="816.845703"/>
     <use xlink:href="#DejaVuSerif-6e" x="876.025391"/>
     <use xlink:href="#DejaVuSerif-74" x="940.429688"/>
     <use xlink:href="#DejaVuSerif-73" x="980.615234"/>
     <use xlink:href="#DejaVuSerif-20" x="1031.933594"/>
     <use xlink:href="#DejaVuSerif-76" x="1063.720703"/>
     <use xlink:href="#DejaVuSerif-73" x="1120.214844"/>
     <use xlink:href="#DejaVuSerif-2e" x="1171.533203"/>
     <use xlink:href="#DejaVuSerif-20" x="1203.320312"/>
     <use xlink:href="#DejaVuSerif-54" x="1235.107422"/>
     <use xlink:href="#DejaVuSerif-69" x="1301.806641"/>
     <use xlink:href="#DejaVuSerif-6d" x="1333.789062"/>
     <use xlink:href="#DejaVuSerif-65" x="1428.613281"/>
    </g>
   </g>
   <g id="legend_1">
    <g id="patch_7">
     <path d="M 154.295 409.46 
L 370.366875 409.46 
Q 374.366875 409.46 374.366875 405.46 
L 374.366875 260.394375 
Q 374.366875 256.394375 370.366875 256.394375 
L 154.295 256.394375 
Q 150.295 256.394375 150.295 260.394375 
L 150.295 405.46 
Q 150.295 409.46 154.295 409.46 
z
" style="fill: #ffffff; opacity: 0.8; stroke: #cccccc; stroke-linejoin: miter"/>
    </g>
    <g id="line2d_26">
     <path d="M 158.295 272.59125 
L 178.295 272.59125 
L 198.295 272.59125 
" style="fill: none; stroke: #1f77b4; stroke-width: 3; stroke-linecap: square"/>
    </g>
    <g id="text_14">
     <!-- Kinetic E -->
     <g transform="translate(214.295 279.59125) scale(0.2 -0.2)">
      <defs>
       <path id="DejaVuSerif-4b" d="M 353 0 
L 353 331 
L 947 331 
L 947 4331 
L 353 4331 
L 353 4666 
L 2175 4666 
L 2175 4331 
L 1581 4331 
L 1581 2566 
L 3591 4331 
L 3084 4331 
L 3084 4666 
L 4634 4666 
L 4634 4331 
L 4109 4331 
L 2106 2572 
L 4347 331 
L 4878 331 
L 4878 0 
L 3794 0 
L 1581 2216 
L 1581 331 
L 2175 331 
L 2175 0 
L 353 0 
z
" transform="scale(0.015625)"/>
       <path id="DejaVuSerif-63" d="M 3291 997 
Q 3169 466 2822 187 
Q 2475 -91 1925 -91 
Q 1200 -91 759 389 
Q 319 869 319 1663 
Q 319 2459 759 2936 
Q 1200 3413 1925 3413 
Q 2241 3413 2553 3339 
Q 2866 3266 3181 3116 
L 3181 2266 
L 2847 2266 
Q 2781 2703 2561 2903 
Q 2341 3103 1931 3103 
Q 1466 3103 1228 2742 
Q 991 2381 991 1663 
Q 991 944 1227 581 
Q 1463 219 1931 219 
Q 2303 219 2525 412 
Q 2747 606 2828 997 
L 3291 997 
z
" transform="scale(0.015625)"/>
      </defs>
      <use xlink:href="#DejaVuSerif-4b"/>
      <use xlink:href="#DejaVuSerif-69" x="74.707031"/>
      <use xlink:href="#DejaVuSerif-6e" x="106.689453"/>
      <use xlink:href="#DejaVuSerif-65" x="171.09375"/>
      <use xlink:href="#DejaVuSerif-74" x="230.273438"/>
      <use xlink:href="#DejaVuSerif-69" x="270.458984"/>
      <use xlink:href="#DejaVuSerif-63" x="302.441406"/>
      <use xlink:href="#DejaVuSerif-20" x="358.447266"/>
      <use xlink:href="#DejaVuSerif-45" x="390.234375"/>
     </g>
    </g>
    <g id="line2d_27">
     <path d="M 158.295 301.9475 
L 178.295 301.9475 
L 198.295 301.9475 
" style="fill: none; stroke: #ff7f0e; stroke-width: 3; stroke-linecap: square"/>
    </g>
    <g id="text_15">
     <!-- PE e-N -->
     <g transform="translate(214.295 308.9475) scale(0.2 -0.2)">
      <defs>
       <path id="DejaVuSerif-50" d="M 1581 2375 
L 2406 2375 
Q 2872 2375 3115 2626 
Q 3359 2878 3359 3353 
Q 3359 3831 3115 4081 
Q 2872 4331 2406 4331 
L 1581 4331 
L 1581 2375 
z
M 353 0 
L 353 331 
L 947 331 
L 947 4331 
L 353 4331 
L 353 4666 
L 2559 4666 
Q 3259 4666 3668 4311 
Q 4078 3956 4078 3353 
Q 4078 2753 3668 2397 
Q 3259 2041 2559 2041 
L 1581 2041 
L 1581 331 
L 2303 331 
L 2303 0 
L 353 0 
z
" transform="scale(0.015625)"/>
       <path id="DejaVuSerif-2d" d="M 281 1959 
L 1881 1959 
L 1881 1472 
L 281 1472 
L 281 1959 
z
" transform="scale(0.015625)"/>
       <path id="DejaVuSerif-4e" d="M 313 0 
L 313 331 
L 941 331 
L 941 4331 
L 313 4331 
L 313 4666 
L 1509 4666 
L 4306 984 
L 4306 4331 
L 3681 4331 
L 3681 4666 
L 5319 4666 
L 5319 4331 
L 4691 4331 
L 4691 -91 
L 4313 -91 
L 1325 3841 
L 1325 331 
L 1953 331 
L 1953 0 
L 313 0 
z
" transform="scale(0.015625)"/>
      </defs>
      <use xlink:href="#DejaVuSerif-50"/>
      <use xlink:href="#DejaVuSerif-45" x="67.285156"/>
      <use xlink:href="#DejaVuSerif-20" x="140.283203"/>
      <use xlink:href="#DejaVuSerif-65" x="172.070312"/>
      <use xlink:href="#DejaVuSerif-2d" x="231.25"/>
      <use xlink:href="#DejaVuSerif-4e" x="265.039062"/>
     </g>
    </g>
    <g id="line2d_28">
     <path d="M 158.295 331.30375 
L 178.295 331.30375 
L 198.295 331.30375 
" style="fill: none; stroke: #2ca02c; stroke-width: 3; stroke-linecap: square"/>
    </g>
    <g id="text_16">
     <!-- PE e-e -->
     <g transform="translate(214.295 338.30375) scale(0.2 -0.2)">
      <use xlink:href="#DejaVuSerif-50"/>
      <use xlink:href="#DejaVuSerif-45" x="67.285156"/>
      <use xlink:href="#DejaVuSerif-20" x="140.283203"/>
      <use xlink:href="#DejaVuSerif-65" x="172.070312"/>
      <use xlink:href="#DejaVuSerif-2d" x="231.25"/>
      <use xlink:href="#DejaVuSerif-65" x="265.039062"/>
     </g>
    </g>
    <g id="line2d_29">
     <path d="M 158.295 360.66 
L 178.295 360.66 
L 198.295 360.66 
" style="fill: none; stroke: #d62728; stroke-width: 3; stroke-linecap: square"/>
    </g>
    <g id="text_17">
     <!-- PE Heisenberg -->
     <g transform="translate(214.295 367.66) scale(0.2 -0.2)">
      <defs>
       <path id="DejaVuSerif-48" d="M 353 0 
L 353 331 
L 947 331 
L 947 4331 
L 353 4331 
L 353 4666 
L 2175 4666 
L 2175 4331 
L 1581 4331 
L 1581 2719 
L 4000 2719 
L 4000 4331 
L 3406 4331 
L 3406 4666 
L 5228 4666 
L 5228 4331 
L 4634 4331 
L 4634 331 
L 5228 331 
L 5228 0 
L 3406 0 
L 3406 331 
L 4000 331 
L 4000 2338 
L 1581 2338 
L 1581 331 
L 2175 331 
L 2175 0 
L 353 0 
z
" transform="scale(0.015625)"/>
       <path id="DejaVuSerif-62" d="M 738 331 
L 738 4531 
L 184 4531 
L 184 4863 
L 1313 4863 
L 1313 2803 
Q 1481 3116 1742 3264 
Q 2003 3413 2388 3413 
Q 3000 3413 3387 2928 
Q 3775 2444 3775 1663 
Q 3775 881 3387 395 
Q 3000 -91 2388 -91 
Q 2003 -91 1742 57 
Q 1481 206 1313 519 
L 1313 0 
L 184 0 
L 184 331 
L 738 331 
z
M 1313 1497 
Q 1313 897 1542 583 
Q 1772 269 2209 269 
Q 2650 269 2876 622 
Q 3103 975 3103 1663 
Q 3103 2353 2876 2703 
Q 2650 3053 2209 3053 
Q 1772 3053 1542 2737 
Q 1313 2422 1313 1825 
L 1313 1497 
z
" transform="scale(0.015625)"/>
      </defs>
      <use xlink:href="#DejaVuSerif-50"/>
      <use xlink:href="#DejaVuSerif-45" x="67.285156"/>
      <use xlink:href="#DejaVuSerif-20" x="140.283203"/>
      <use xlink:href="#DejaVuSerif-48" x="172.070312"/>
      <use xlink:href="#DejaVuSerif-65" x="259.277344"/>
      <use xlink:href="#DejaVuSerif-69" x="318.457031"/>
      <use xlink:href="#DejaVuSerif-73" x="350.439453"/>
      <use xlink:href="#DejaVuSerif-65" x="401.757812"/>
      <use xlink:href="#DejaVuSerif-6e" x="460.9375"/>
      <use xlink:href="#DejaVuSerif-62" x="525.341797"/>
      <use xlink:href="#DejaVuSerif-65" x="589.355469"/>
      <use xlink:href="#DejaVuSerif-72" x="648.535156"/>
      <use xlink:href="#DejaVuSerif-67" x="696.337891"/>
     </g>
    </g>
    <g id="line2d_30">
     <path d="M 158.295 390.300625 
L 178.295 390.300625 
L 198.295 390.300625 
" style="fill: none; stroke-dasharray: 11.1,4.8; stroke-dashoffset: 0; stroke: #000000; stroke-width: 3"/>
    </g>
    <g id="text_18">
     <!-- Total E -->
     <g transform="translate(214.295 397.300625) scale(0.2 -0.2)">
      <defs>
       <path id="DejaVuSerif-6c" d="M 1313 331 
L 1856 331 
L 1856 0 
L 184 0 
L 184 331 
L 738 331 
L 738 4531 
L 184 4531 
L 184 4863 
L 1313 4863 
L 1313 331 
z
" transform="scale(0.015625)"/>
      </defs>
      <use xlink:href="#DejaVuSerif-54"/>
      <use xlink:href="#DejaVuSerif-6f" x="58.949219"/>
      <use xlink:href="#DejaVuSerif-74" x="119.154297"/>
      <use xlink:href="#DejaVuSerif-61" x="159.339844"/>
      <use xlink:href="#DejaVuSerif-6c" x="218.958984"/>
      <use xlink:href="#DejaVuSerif-20" x="250.941406"/>
      <use xlink:href="#DejaVuSerif-45" x="282.728516"/>
     </g>
    </g>
   </g>
  </g>
 </g>
 <defs>
  <clipPath id="pb0fd8cbdbb">
   <rect x="140.295" y="58.32" width="551.625" height="361.14"/>
  </clipPath>
 </defs>
</svg>
