<?xml version="1.0" encoding="utf-8" standalone="no"?>
<!DOCTYPE svg PUBLIC "-//W3C//DTD SVG 1.1//EN"
  "http://www.w3.org/Graphics/SVG/1.1/DTD/svg11.dtd">
<svg xmlns:xlink="http://www.w3.org/1999/xlink" width="864pt" height="576pt" viewBox="0 0 864 576" xmlns="http://www.w3.org/2000/svg" version="1.1">
 <metadata>
  <rdf:RDF xmlns:dc="http://purl.org/dc/elements/1.1/" xmlns:cc="http://creativecommons.org/ns#" xmlns:rdf="http://www.w3.org/1999/02/22-rdf-syntax-ns#">
   <cc:Work>
    <dc:type rdf:resource="http://purl.org/dc/dcmitype/StillImage"/>
    <dc:date>2025-06-07T11:40:48.738261</dc:date>
    <dc:format>image/svg+xml</dc:format>
    <dc:creator>
     <cc:Agent>
      <dc:title>Matplotlib v3.7.2, https://matplotlib.org/</dc:title>
     </cc:Agent>
    </dc:creator>
   </cc:Work>
  </rdf:RDF>
 </metadata>
 <defs>
  <style type="text/css">*{stroke-linejoin: round; stroke-linecap: butt}</style>
 </defs>
 <g id="figure_1">
  <g id="patch_1">
   <path d="M 0 576 
L 864 576 
L 864 0 
L 0 0 
z
" style="fill: #ffffff"/>
  </g>
  <g id="axes_1">
   <g id="patch_2">
    <path d="M 99.923625 487.758375 
L 835.92 487.758375 
L 835.92 28.08 
L 99.923625 28.08 
z
" style="fill: #ffffff"/>
   </g>
   <g id="matplotlib.axis_1">
    <g id="xtick_1">
     <g id="line2d_1">
      <path d="M 131.460849 487.758375 
L 131.460849 28.08 
" clip-path="url(#p30500203b1)" style="fill: none; stroke-dasharray: 3.7,1.6; stroke-dashoffset: 0; stroke: #b0b0b0; stroke-opacity: 0.5"/>
     </g>
     <g id="line2d_2">
      <defs>
       <path id="m16551d7940" d="M 0 0 
L 0 -10 
" style="stroke: #000000; stroke-width: 2"/>
      </defs>
      <g>
       <use xlink:href="#m16551d7940" x="131.460849" y="487.758375" style="stroke: #000000; stroke-width: 2"/>
      </g>
     </g>
     <g id="line2d_3">
      <defs>
       <path id="me8e9684190" d="M 0 0 
L 0 10 
" style="stroke: #000000; stroke-width: 2"/>
      </defs>
      <g>
       <use xlink:href="#me8e9684190" x="131.460849" y="28.08" style="stroke: #000000; stroke-width: 2"/>
      </g>
     </g>
     <g id="text_1">
      <!-- 0.0 -->
      <g transform="translate(110.786787 511.014312) scale(0.26 -0.26)">
       <defs>
        <path id="DejaVuSerif-30" d="M 2034 219 
Q 2513 219 2750 744 
Q 2988 1269 2988 2328 
Q 2988 3391 2750 3916 
Q 2513 4441 2034 4441 
Q 1556 4441 1318 3916 
Q 1081 3391 1081 2328 
Q 1081 1269 1318 744 
Q 1556 219 2034 219 
z
M 2034 -91 
Q 1275 -91 848 546 
Q 422 1184 422 2328 
Q 422 3475 848 4112 
Q 1275 4750 2034 4750 
Q 2797 4750 3222 4112 
Q 3647 3475 3647 2328 
Q 3647 1184 3222 546 
Q 2797 -91 2034 -91 
z
" transform="scale(0.015625)"/>
        <path id="DejaVuSerif-2e" d="M 603 325 
Q 603 500 722 622 
Q 841 744 1019 744 
Q 1191 744 1312 622 
Q 1434 500 1434 325 
Q 1434 153 1312 31 
Q 1191 -91 1019 -91 
Q 841 -91 722 29 
Q 603 150 603 325 
z
" transform="scale(0.015625)"/>
       </defs>
       <use xlink:href="#DejaVuSerif-30"/>
       <use xlink:href="#DejaVuSerif-2e" x="63.623047"/>
       <use xlink:href="#DejaVuSerif-30" x="95.410156"/>
      </g>
     </g>
    </g>
    <g id="xtick_2">
     <g id="line2d_4">
      <path d="M 227.318673 487.758375 
L 227.318673 28.08 
" clip-path="url(#p30500203b1)" style="fill: none; stroke-dasharray: 3.7,1.6; stroke-dashoffset: 0; stroke: #b0b0b0; stroke-opacity: 0.5"/>
     </g>
     <g id="line2d_5">
      <g>
       <use xlink:href="#m16551d7940" x="227.318673" y="487.758375" style="stroke: #000000; stroke-width: 2"/>
      </g>
     </g>
     <g id="line2d_6">
      <g>
       <use xlink:href="#me8e9684190" x="227.318673" y="28.08" style="stroke: #000000; stroke-width: 2"/>
      </g>
     </g>
     <g id="text_2">
      <!-- 0.5 -->
      <g transform="translate(206.644611 511.014312) scale(0.26 -0.26)">
       <defs>
        <path id="DejaVuSerif-35" d="M 3219 4666 
L 3219 4153 
L 1081 4153 
L 1081 2816 
Q 1244 2928 1461 2984 
Q 1678 3041 1947 3041 
Q 2703 3041 3140 2622 
Q 3578 2203 3578 1478 
Q 3578 738 3136 323 
Q 2694 -91 1894 -91 
Q 1572 -91 1234 -12 
Q 897 66 544 225 
L 544 1131 
L 897 1131 
Q 925 688 1179 453 
Q 1434 219 1894 219 
Q 2388 219 2653 544 
Q 2919 869 2919 1478 
Q 2919 2084 2655 2407 
Q 2391 2731 1894 2731 
Q 1613 2731 1398 2631 
Q 1184 2531 1019 2322 
L 750 2322 
L 750 4666 
L 3219 4666 
z
" transform="scale(0.015625)"/>
       </defs>
       <use xlink:href="#DejaVuSerif-30"/>
       <use xlink:href="#DejaVuSerif-2e" x="63.623047"/>
       <use xlink:href="#DejaVuSerif-35" x="95.410156"/>
      </g>
     </g>
    </g>
    <g id="xtick_3">
     <g id="line2d_7">
      <path d="M 323.176498 487.758375 
L 323.176498 28.08 
" clip-path="url(#p30500203b1)" style="fill: none; stroke-dasharray: 3.7,1.6; stroke-dashoffset: 0; stroke: #b0b0b0; stroke-opacity: 0.5"/>
     </g>
     <g id="line2d_8">
      <g>
       <use xlink:href="#m16551d7940" x="323.176498" y="487.758375" style="stroke: #000000; stroke-width: 2"/>
      </g>
     </g>
     <g id="line2d_9">
      <g>
       <use xlink:href="#me8e9684190" x="323.176498" y="28.08" style="stroke: #000000; stroke-width: 2"/>
      </g>
     </g>
     <g id="text_3">
      <!-- 1.0 -->
      <g transform="translate(302.502435 511.014312) scale(0.26 -0.26)">
       <defs>
        <path id="DejaVuSerif-31" d="M 909 0 
L 909 331 
L 1722 331 
L 1722 4213 
L 781 3603 
L 781 4013 
L 1919 4750 
L 2350 4750 
L 2350 331 
L 3163 331 
L 3163 0 
L 909 0 
z
" transform="scale(0.015625)"/>
       </defs>
       <use xlink:href="#DejaVuSerif-31"/>
       <use xlink:href="#DejaVuSerif-2e" x="63.623047"/>
       <use xlink:href="#DejaVuSerif-30" x="95.410156"/>
      </g>
     </g>
    </g>
    <g id="xtick_4">
     <g id="line2d_10">
      <path d="M 419.034322 487.758375 
L 419.034322 28.08 
" clip-path="url(#p30500203b1)" style="fill: none; stroke-dasharray: 3.7,1.6; stroke-dashoffset: 0; stroke: #b0b0b0; stroke-opacity: 0.5"/>
     </g>
     <g id="line2d_11">
      <g>
       <use xlink:href="#m16551d7940" x="419.034322" y="487.758375" style="stroke: #000000; stroke-width: 2"/>
      </g>
     </g>
     <g id="line2d_12">
      <g>
       <use xlink:href="#me8e9684190" x="419.034322" y="28.08" style="stroke: #000000; stroke-width: 2"/>
      </g>
     </g>
     <g id="text_4">
      <!-- 1.5 -->
      <g transform="translate(398.36026 511.014312) scale(0.26 -0.26)">
       <use xlink:href="#DejaVuSerif-31"/>
       <use xlink:href="#DejaVuSerif-2e" x="63.623047"/>
       <use xlink:href="#DejaVuSerif-35" x="95.410156"/>
      </g>
     </g>
    </g>
    <g id="xtick_5">
     <g id="line2d_13">
      <path d="M 514.892146 487.758375 
L 514.892146 28.08 
" clip-path="url(#p30500203b1)" style="fill: none; stroke-dasharray: 3.7,1.6; stroke-dashoffset: 0; stroke: #b0b0b0; stroke-opacity: 0.5"/>
     </g>
     <g id="line2d_14">
      <g>
       <use xlink:href="#m16551d7940" x="514.892146" y="487.758375" style="stroke: #000000; stroke-width: 2"/>
      </g>
     </g>
     <g id="line2d_15">
      <g>
       <use xlink:href="#me8e9684190" x="514.892146" y="28.08" style="stroke: #000000; stroke-width: 2"/>
      </g>
     </g>
     <g id="text_5">
      <!-- 2.0 -->
      <g transform="translate(494.218084 511.014312) scale(0.26 -0.26)">
       <defs>
        <path id="DejaVuSerif-32" d="M 819 3553 
L 469 3553 
L 469 4384 
Q 803 4563 1142 4656 
Q 1481 4750 1806 4750 
Q 2534 4750 2956 4397 
Q 3378 4044 3378 3438 
Q 3378 2753 2422 1800 
Q 2347 1728 2309 1691 
L 1131 513 
L 3078 513 
L 3078 1088 
L 3444 1088 
L 3444 0 
L 434 0 
L 434 341 
L 1850 1753 
Q 2319 2222 2519 2614 
Q 2719 3006 2719 3438 
Q 2719 3909 2473 4175 
Q 2228 4441 1797 4441 
Q 1350 4441 1106 4219 
Q 863 3997 819 3553 
z
" transform="scale(0.015625)"/>
       </defs>
       <use xlink:href="#DejaVuSerif-32"/>
       <use xlink:href="#DejaVuSerif-2e" x="63.623047"/>
       <use xlink:href="#DejaVuSerif-30" x="95.410156"/>
      </g>
     </g>
    </g>
    <g id="xtick_6">
     <g id="line2d_16">
      <path d="M 610.749971 487.758375 
L 610.749971 28.08 
" clip-path="url(#p30500203b1)" style="fill: none; stroke-dasharray: 3.7,1.6; stroke-dashoffset: 0; stroke: #b0b0b0; stroke-opacity: 0.5"/>
     </g>
     <g id="line2d_17">
      <g>
       <use xlink:href="#m16551d7940" x="610.749971" y="487.758375" style="stroke: #000000; stroke-width: 2"/>
      </g>
     </g>
     <g id="line2d_18">
      <g>
       <use xlink:href="#me8e9684190" x="610.749971" y="28.08" style="stroke: #000000; stroke-width: 2"/>
      </g>
     </g>
     <g id="text_6">
      <!-- 2.5 -->
      <g transform="translate(590.075908 511.014312) scale(0.26 -0.26)">
       <use xlink:href="#DejaVuSerif-32"/>
       <use xlink:href="#DejaVuSerif-2e" x="63.623047"/>
       <use xlink:href="#DejaVuSerif-35" x="95.410156"/>
      </g>
     </g>
    </g>
    <g id="xtick_7">
     <g id="line2d_19">
      <path d="M 706.607795 487.758375 
L 706.607795 28.08 
" clip-path="url(#p30500203b1)" style="fill: none; stroke-dasharray: 3.7,1.6; stroke-dashoffset: 0; stroke: #b0b0b0; stroke-opacity: 0.5"/>
     </g>
     <g id="line2d_20">
      <g>
       <use xlink:href="#m16551d7940" x="706.607795" y="487.758375" style="stroke: #000000; stroke-width: 2"/>
      </g>
     </g>
     <g id="line2d_21">
      <g>
       <use xlink:href="#me8e9684190" x="706.607795" y="28.08" style="stroke: #000000; stroke-width: 2"/>
      </g>
     </g>
     <g id="text_7">
      <!-- 3.0 -->
      <g transform="translate(685.933733 511.014312) scale(0.26 -0.26)">
       <defs>
        <path id="DejaVuSerif-33" d="M 622 4469 
Q 988 4606 1323 4678 
Q 1659 4750 1953 4750 
Q 2638 4750 3022 4454 
Q 3406 4159 3406 3634 
Q 3406 3213 3140 2930 
Q 2875 2647 2388 2547 
Q 2963 2466 3280 2130 
Q 3597 1794 3597 1259 
Q 3597 606 3158 257 
Q 2719 -91 1894 -91 
Q 1528 -91 1179 -12 
Q 831 66 488 225 
L 488 1131 
L 838 1131 
Q 869 681 1141 450 
Q 1413 219 1906 219 
Q 2384 219 2661 495 
Q 2938 772 2938 1253 
Q 2938 1803 2653 2086 
Q 2369 2369 1819 2369 
L 1522 2369 
L 1522 2688 
L 1678 2688 
Q 2225 2688 2498 2914 
Q 2772 3141 2772 3597 
Q 2772 4006 2547 4223 
Q 2322 4441 1900 4441 
Q 1478 4441 1245 4241 
Q 1013 4041 972 3647 
L 622 3647 
L 622 4469 
z
" transform="scale(0.015625)"/>
       </defs>
       <use xlink:href="#DejaVuSerif-33"/>
       <use xlink:href="#DejaVuSerif-2e" x="63.623047"/>
       <use xlink:href="#DejaVuSerif-30" x="95.410156"/>
      </g>
     </g>
    </g>
    <g id="xtick_8">
     <g id="line2d_22">
      <path d="M 802.465619 487.758375 
L 802.465619 28.08 
" clip-path="url(#p30500203b1)" style="fill: none; stroke-dasharray: 3.7,1.6; stroke-dashoffset: 0; stroke: #b0b0b0; stroke-opacity: 0.5"/>
     </g>
     <g id="line2d_23">
      <g>
       <use xlink:href="#m16551d7940" x="802.465619" y="487.758375" style="stroke: #000000; stroke-width: 2"/>
      </g>
     </g>
     <g id="line2d_24">
      <g>
       <use xlink:href="#me8e9684190" x="802.465619" y="28.08" style="stroke: #000000; stroke-width: 2"/>
      </g>
     </g>
     <g id="text_8">
      <!-- 3.5 -->
      <g transform="translate(781.791557 511.014312) scale(0.26 -0.26)">
       <use xlink:href="#DejaVuSerif-33"/>
       <use xlink:href="#DejaVuSerif-2e" x="63.623047"/>
       <use xlink:href="#DejaVuSerif-35" x="95.410156"/>
      </g>
     </g>
    </g>
    <g id="text_9">
     <!-- $E_{0}$ (a.u.) -->
     <g transform="translate(414.231813 540.177437) scale(0.26 -0.26)">
      <defs>
       <path id="Cmmi10-45" d="M 300 0 
Q 238 0 238 84 
Q 241 100 250 139 
Q 259 178 276 201 
Q 294 225 319 225 
Q 709 225 863 269 
Q 947 297 984 441 
L 1863 3956 
Q 1875 4019 1875 4044 
Q 1875 4113 1797 4122 
Q 1678 4147 1338 4147 
Q 1275 4147 1275 4231 
Q 1278 4247 1287 4286 
Q 1297 4325 1314 4348 
Q 1331 4372 1356 4372 
L 4825 4372 
Q 4891 4372 4891 4288 
L 4738 2963 
Q 4738 2947 4714 2926 
Q 4691 2906 4672 2906 
L 4616 2906 
Q 4550 2906 4550 2988 
Q 4588 3300 4588 3450 
Q 4588 3706 4500 3848 
Q 4413 3991 4267 4053 
Q 4122 4116 3945 4131 
Q 3769 4147 3481 4147 
L 2753 4147 
Q 2578 4147 2522 4117 
Q 2466 4088 2419 3928 
L 2034 2381 
L 2534 2381 
Q 2859 2381 3025 2426 
Q 3191 2472 3287 2615 
Q 3384 2759 3463 3072 
Q 3469 3094 3486 3111 
Q 3503 3128 3525 3128 
L 3584 3128 
Q 3647 3128 3647 3047 
L 3250 1466 
Q 3238 1409 3188 1409 
L 3128 1409 
Q 3066 1409 3066 1491 
Q 3128 1747 3128 1869 
Q 3128 2056 2959 2106 
Q 2791 2156 2509 2156 
L 1978 2156 
L 1544 416 
Q 1516 338 1516 275 
Q 1516 225 1734 225 
L 2509 225 
Q 2972 225 3259 297 
Q 3547 369 3736 526 
Q 3925 684 4062 928 
Q 4200 1172 4397 1638 
Q 4409 1678 4453 1678 
L 4513 1678 
Q 4538 1678 4556 1656 
Q 4575 1634 4575 1606 
Q 4575 1594 4569 1581 
L 3909 38 
Q 3897 0 3859 0 
L 300 0 
z
" transform="scale(0.015625)"/>
       <path id="Cmr10-30" d="M 1600 -141 
Q 816 -141 533 504 
Q 250 1150 250 2041 
Q 250 2597 351 3087 
Q 453 3578 754 3920 
Q 1056 4263 1600 4263 
Q 2022 4263 2290 4056 
Q 2559 3850 2700 3523 
Q 2841 3197 2892 2823 
Q 2944 2450 2944 2041 
Q 2944 1491 2842 1011 
Q 2741 531 2444 195 
Q 2147 -141 1600 -141 
z
M 1600 25 
Q 1956 25 2131 390 
Q 2306 756 2347 1200 
Q 2388 1644 2388 2144 
Q 2388 2625 2347 3031 
Q 2306 3438 2132 3767 
Q 1959 4097 1600 4097 
Q 1238 4097 1063 3765 
Q 888 3434 847 3029 
Q 806 2625 806 2144 
Q 806 1788 823 1472 
Q 841 1156 916 820 
Q 991 484 1158 254 
Q 1325 25 1600 25 
z
" transform="scale(0.015625)"/>
       <path id="DejaVuSerif-20" transform="scale(0.015625)"/>
       <path id="DejaVuSerif-28" d="M 2041 -997 
Q 1281 -656 893 83 
Q 506 822 506 1931 
Q 506 3044 893 3783 
Q 1281 4522 2041 4863 
L 2041 4556 
Q 1559 4225 1350 3623 
Q 1141 3022 1141 1931 
Q 1141 844 1350 242 
Q 1559 -359 2041 -691 
L 2041 -997 
z
" transform="scale(0.015625)"/>
       <path id="DejaVuSerif-61" d="M 2547 1044 
L 2547 1747 
L 1806 1747 
Q 1378 1747 1168 1562 
Q 959 1378 959 997 
Q 959 650 1171 447 
Q 1384 244 1747 244 
Q 2106 244 2326 466 
Q 2547 688 2547 1044 
z
M 3122 2075 
L 3122 331 
L 3634 331 
L 3634 0 
L 2547 0 
L 2547 359 
Q 2356 128 2106 18 
Q 1856 -91 1522 -91 
Q 969 -91 644 203 
Q 319 497 319 997 
Q 319 1513 691 1797 
Q 1063 2081 1741 2081 
L 2547 2081 
L 2547 2309 
Q 2547 2688 2317 2895 
Q 2088 3103 1672 3103 
Q 1328 3103 1125 2947 
Q 922 2791 872 2484 
L 575 2484 
L 575 3156 
Q 875 3284 1158 3348 
Q 1441 3413 1709 3413 
Q 2400 3413 2761 3070 
Q 3122 2728 3122 2075 
z
" transform="scale(0.015625)"/>
       <path id="DejaVuSerif-75" d="M 2266 3322 
L 3341 3322 
L 3341 331 
L 3884 331 
L 3884 0 
L 2766 0 
L 2766 588 
Q 2606 256 2353 82 
Q 2100 -91 1766 -91 
Q 1213 -91 952 223 
Q 691 538 691 1209 
L 691 2988 
L 172 2988 
L 172 3322 
L 1269 3322 
L 1269 1388 
Q 1269 781 1417 556 
Q 1566 331 1947 331 
Q 2347 331 2556 625 
Q 2766 919 2766 1478 
L 2766 2988 
L 2266 2988 
L 2266 3322 
z
" transform="scale(0.015625)"/>
       <path id="DejaVuSerif-29" d="M 453 -997 
L 453 -691 
Q 934 -359 1145 242 
Q 1356 844 1356 1931 
Q 1356 3022 1145 3623 
Q 934 4225 453 4556 
L 453 4863 
Q 1216 4522 1603 3783 
Q 1991 3044 1991 1931 
Q 1991 822 1603 83 
Q 1216 -656 453 -997 
z
" transform="scale(0.015625)"/>
      </defs>
      <use xlink:href="#Cmmi10-45" transform="translate(0 0.015625)"/>
      <use xlink:href="#Cmr10-30" transform="translate(73.779297 -16.990625) scale(0.7)"/>
      <use xlink:href="#DejaVuSerif-20" transform="translate(115.156641 0.015625)"/>
      <use xlink:href="#DejaVuSerif-28" transform="translate(146.94375 0.015625)"/>
      <use xlink:href="#DejaVuSerif-61" transform="translate(185.957422 0.015625)"/>
      <use xlink:href="#DejaVuSerif-2e" transform="translate(245.576562 0.015625)"/>
      <use xlink:href="#DejaVuSerif-75" transform="translate(277.363672 0.015625)"/>
      <use xlink:href="#DejaVuSerif-2e" transform="translate(341.767969 0.015625)"/>
      <use xlink:href="#DejaVuSerif-29" transform="translate(373.555078 0.015625)"/>
     </g>
    </g>
   </g>
   <g id="matplotlib.axis_2">
    <g id="ytick_1">
     <g id="line2d_25">
      <path d="M 99.923625 466.863903 
L 835.92 466.863903 
" clip-path="url(#p30500203b1)" style="fill: none; stroke-dasharray: 3.7,1.6; stroke-dashoffset: 0; stroke: #b0b0b0; stroke-opacity: 0.5"/>
     </g>
     <g id="line2d_26">
      <defs>
       <path id="mf644c258b4" d="M 0 0 
L 10 0 
" style="stroke: #000000; stroke-width: 2"/>
      </defs>
      <g>
       <use xlink:href="#mf644c258b4" x="99.923625" y="466.863903" style="stroke: #000000; stroke-width: 2"/>
      </g>
     </g>
     <g id="line2d_27">
      <defs>
       <path id="m837808378a" d="M 0 0 
L -10 0 
" style="stroke: #000000; stroke-width: 2"/>
      </defs>
      <g>
       <use xlink:href="#m837808378a" x="835.92" y="466.863903" style="stroke: #000000; stroke-width: 2"/>
      </g>
     </g>
     <g id="text_10">
      <!-- 0 -->
      <g transform="translate(79.881125 476.741872) scale(0.26 -0.26)">
       <use xlink:href="#DejaVuSerif-30"/>
      </g>
     </g>
    </g>
    <g id="ytick_2">
     <g id="line2d_28">
      <path d="M 99.923625 392.964827 
L 835.92 392.964827 
" clip-path="url(#p30500203b1)" style="fill: none; stroke-dasharray: 3.7,1.6; stroke-dashoffset: 0; stroke: #b0b0b0; stroke-opacity: 0.5"/>
     </g>
     <g id="line2d_29">
      <g>
       <use xlink:href="#mf644c258b4" x="99.923625" y="392.964827" style="stroke: #000000; stroke-width: 2"/>
      </g>
     </g>
     <g id="line2d_30">
      <g>
       <use xlink:href="#m837808378a" x="835.92" y="392.964827" style="stroke: #000000; stroke-width: 2"/>
      </g>
     </g>
     <g id="text_11">
      <!-- 5 -->
      <g transform="translate(79.881125 402.842796) scale(0.26 -0.26)">
       <use xlink:href="#DejaVuSerif-35"/>
      </g>
     </g>
    </g>
    <g id="ytick_3">
     <g id="line2d_31">
      <path d="M 99.923625 319.065751 
L 835.92 319.065751 
" clip-path="url(#p30500203b1)" style="fill: none; stroke-dasharray: 3.7,1.6; stroke-dashoffset: 0; stroke: #b0b0b0; stroke-opacity: 0.5"/>
     </g>
     <g id="line2d_32">
      <g>
       <use xlink:href="#mf644c258b4" x="99.923625" y="319.065751" style="stroke: #000000; stroke-width: 2"/>
      </g>
     </g>
     <g id="line2d_33">
      <g>
       <use xlink:href="#m837808378a" x="835.92" y="319.065751" style="stroke: #000000; stroke-width: 2"/>
      </g>
     </g>
     <g id="text_12">
      <!-- 10 -->
      <g transform="translate(63.338625 328.94372) scale(0.26 -0.26)">
       <use xlink:href="#DejaVuSerif-31"/>
       <use xlink:href="#DejaVuSerif-30" x="63.623047"/>
      </g>
     </g>
    </g>
    <g id="ytick_4">
     <g id="line2d_34">
      <path d="M 99.923625 245.166674 
L 835.92 245.166674 
" clip-path="url(#p30500203b1)" style="fill: none; stroke-dasharray: 3.7,1.6; stroke-dashoffset: 0; stroke: #b0b0b0; stroke-opacity: 0.5"/>
     </g>
     <g id="line2d_35">
      <g>
       <use xlink:href="#mf644c258b4" x="99.923625" y="245.166674" style="stroke: #000000; stroke-width: 2"/>
      </g>
     </g>
     <g id="line2d_36">
      <g>
       <use xlink:href="#m837808378a" x="835.92" y="245.166674" style="stroke: #000000; stroke-width: 2"/>
      </g>
     </g>
     <g id="text_13">
      <!-- 15 -->
      <g transform="translate(63.338625 255.044643) scale(0.26 -0.26)">
       <use xlink:href="#DejaVuSerif-31"/>
       <use xlink:href="#DejaVuSerif-35" x="63.623047"/>
      </g>
     </g>
    </g>
    <g id="ytick_5">
     <g id="line2d_37">
      <path d="M 99.923625 171.267598 
L 835.92 171.267598 
" clip-path="url(#p30500203b1)" style="fill: none; stroke-dasharray: 3.7,1.6; stroke-dashoffset: 0; stroke: #b0b0b0; stroke-opacity: 0.5"/>
     </g>
     <g id="line2d_38">
      <g>
       <use xlink:href="#mf644c258b4" x="99.923625" y="171.267598" style="stroke: #000000; stroke-width: 2"/>
      </g>
     </g>
     <g id="line2d_39">
      <g>
       <use xlink:href="#m837808378a" x="835.92" y="171.267598" style="stroke: #000000; stroke-width: 2"/>
      </g>
     </g>
     <g id="text_14">
      <!-- 20 -->
      <g transform="translate(63.338625 181.145567) scale(0.26 -0.26)">
       <use xlink:href="#DejaVuSerif-32"/>
       <use xlink:href="#DejaVuSerif-30" x="63.623047"/>
      </g>
     </g>
    </g>
    <g id="ytick_6">
     <g id="line2d_40">
      <path d="M 99.923625 97.368522 
L 835.92 97.368522 
" clip-path="url(#p30500203b1)" style="fill: none; stroke-dasharray: 3.7,1.6; stroke-dashoffset: 0; stroke: #b0b0b0; stroke-opacity: 0.5"/>
     </g>
     <g id="line2d_41">
      <g>
       <use xlink:href="#mf644c258b4" x="99.923625" y="97.368522" style="stroke: #000000; stroke-width: 2"/>
      </g>
     </g>
     <g id="line2d_42">
      <g>
       <use xlink:href="#m837808378a" x="835.92" y="97.368522" style="stroke: #000000; stroke-width: 2"/>
      </g>
     </g>
     <g id="text_15">
      <!-- 25 -->
      <g transform="translate(63.338625 107.246491) scale(0.26 -0.26)">
       <use xlink:href="#DejaVuSerif-32"/>
       <use xlink:href="#DejaVuSerif-35" x="63.623047"/>
      </g>
     </g>
    </g>
    <g id="text_16">
     <!-- $\sigma_{cap}$ (a₀²) -->
     <g transform="translate(51.278625 311.999187) rotate(-90) scale(0.26 -0.26)">
      <defs>
       <path id="Cmmi10-be" d="M 1197 -72 
Q 913 -72 692 64 
Q 472 200 351 431 
Q 231 663 231 941 
Q 231 1238 365 1566 
Q 500 1894 733 2166 
Q 966 2438 1259 2598 
Q 1553 2759 1863 2759 
L 3475 2759 
Q 3541 2759 3587 2715 
Q 3634 2672 3634 2597 
Q 3634 2503 3567 2433 
Q 3500 2363 3406 2363 
L 2625 2363 
Q 2809 2088 2809 1697 
Q 2809 1375 2684 1062 
Q 2559 750 2337 492 
Q 2116 234 1820 81 
Q 1525 -72 1197 -72 
z
M 1203 97 
Q 1553 97 1823 370 
Q 2094 644 2237 1039 
Q 2381 1434 2381 1772 
Q 2381 2047 2229 2205 
Q 2078 2363 1806 2363 
Q 1434 2363 1173 2113 
Q 913 1863 783 1484 
Q 653 1106 653 756 
Q 653 481 798 289 
Q 944 97 1203 97 
z
" transform="scale(0.015625)"/>
       <path id="Cmmi10-63" d="M 750 763 
Q 750 484 892 290 
Q 1034 97 1300 97 
Q 1681 97 2032 272 
Q 2384 447 2606 756 
Q 2625 775 2656 775 
Q 2688 775 2720 739 
Q 2753 703 2753 672 
Q 2753 647 2741 634 
Q 2506 306 2109 117 
Q 1713 -72 1288 -72 
Q 981 -72 747 73 
Q 513 219 384 462 
Q 256 706 256 1013 
Q 256 1444 497 1869 
Q 738 2294 1138 2561 
Q 1538 2828 1978 2828 
Q 2266 2828 2495 2689 
Q 2725 2550 2725 2278 
Q 2725 2103 2623 1979 
Q 2522 1856 2350 1856 
Q 2247 1856 2176 1920 
Q 2106 1984 2106 2088 
Q 2106 2238 2215 2344 
Q 2325 2450 2472 2450 
L 2484 2450 
Q 2409 2559 2267 2611 
Q 2125 2663 1972 2663 
Q 1597 2663 1315 2342 
Q 1034 2022 892 1576 
Q 750 1131 750 763 
z
" transform="scale(0.015625)"/>
       <path id="Cmmi10-61" d="M 1113 -72 
Q 709 -72 476 233 
Q 244 538 244 953 
Q 244 1363 456 1803 
Q 669 2244 1030 2536 
Q 1391 2828 1806 2828 
Q 1997 2828 2147 2725 
Q 2297 2622 2381 2444 
Q 2453 2700 2663 2700 
Q 2744 2700 2798 2651 
Q 2853 2603 2853 2522 
Q 2853 2503 2851 2493 
Q 2850 2484 2847 2472 
L 2400 684 
Q 2356 494 2356 372 
Q 2356 97 2541 97 
Q 2741 97 2845 351 
Q 2950 606 3022 941 
Q 3034 978 3072 978 
L 3150 978 
Q 3175 978 3190 956 
Q 3206 934 3206 916 
Q 3094 469 2961 198 
Q 2828 -72 2528 -72 
Q 2313 -72 2147 54 
Q 1981 181 1941 391 
Q 1528 -72 1113 -72 
z
M 1119 97 
Q 1350 97 1567 270 
Q 1784 444 1941 678 
Q 1947 684 1947 697 
L 2291 2088 
L 2297 2106 
Q 2259 2334 2132 2498 
Q 2006 2663 1791 2663 
Q 1575 2663 1389 2486 
Q 1203 2309 1075 2069 
Q 950 1813 836 1366 
Q 722 919 722 672 
Q 722 450 817 273 
Q 913 97 1119 97 
z
" transform="scale(0.015625)"/>
       <path id="Cmmi10-70" d="M -159 -1241 
Q -219 -1241 -219 -1159 
Q -197 -1019 -134 -1019 
Q 66 -1019 145 -983 
Q 225 -947 269 -800 
L 991 2081 
Q 1038 2200 1038 2388 
Q 1038 2663 850 2663 
Q 650 2663 553 2423 
Q 456 2184 366 1819 
Q 366 1778 313 1778 
L 238 1778 
Q 222 1778 203 1801 
Q 184 1825 184 1844 
Q 253 2122 317 2315 
Q 381 2509 517 2668 
Q 653 2828 856 2828 
Q 1075 2828 1240 2704 
Q 1406 2581 1453 2369 
Q 1628 2572 1840 2700 
Q 2053 2828 2278 2828 
Q 2547 2828 2745 2684 
Q 2944 2541 3044 2308 
Q 3144 2075 3144 1806 
Q 3144 1394 2933 953 
Q 2722 513 2361 220 
Q 2000 -72 1588 -72 
Q 1400 -72 1248 34 
Q 1097 141 1013 313 
L 722 -825 
Q 706 -919 703 -934 
Q 703 -1019 1125 -1019 
Q 1191 -1019 1191 -1100 
Q 1169 -1184 1155 -1212 
Q 1141 -1241 1081 -1241 
L -159 -1241 
z
M 1594 97 
Q 1816 97 2006 280 
Q 2197 463 2316 691 
Q 2403 863 2479 1111 
Q 2556 1359 2612 1640 
Q 2669 1922 2669 2088 
Q 2669 2234 2630 2362 
Q 2591 2491 2502 2577 
Q 2413 2663 2266 2663 
Q 2031 2663 1823 2495 
Q 1616 2328 1447 2081 
L 1447 2059 
L 1094 647 
Q 1138 419 1263 258 
Q 1388 97 1594 97 
z
" transform="scale(0.015625)"/>
       <path id="DejaVuSerif-2080" d="M 784 394 
Q 950 101 1281 101 
Q 1613 101 1778 394 
Q 1944 688 1944 1285 
Q 1944 1879 1778 2172 
Q 1613 2466 1281 2466 
Q 950 2466 784 2172 
Q 619 1879 619 1285 
Q 619 688 784 394 
z
M 2106 285 
Q 1809 -71 1281 -71 
Q 753 -71 456 285 
Q 163 641 163 1285 
Q 163 1926 456 2282 
Q 753 2638 1281 2638 
Q 1809 2638 2106 2282 
Q 2400 1926 2400 1285 
Q 2400 641 2106 285 
z
" transform="scale(0.015625)"/>
       <path id="DejaVuSerif-b2" d="M 531 4050 
L 313 4050 
L 313 4544 
Q 519 4644 737 4697 
Q 956 4750 1172 4750 
Q 1603 4750 1870 4544 
Q 2138 4338 2138 4013 
Q 2138 3631 1531 3088 
L 1472 3034 
L 728 2363 
L 1931 2363 
L 1931 2700 
L 2163 2700 
L 2163 2088 
L 281 2088 
L 281 2322 
L 1172 3116 
Q 1441 3356 1556 3547 
Q 1672 3738 1672 3944 
Q 1672 4209 1520 4364 
Q 1369 4519 1106 4519 
Q 863 4519 716 4400 
Q 569 4281 531 4050 
z
" transform="scale(0.015625)"/>
      </defs>
      <use xlink:href="#Cmmi10-be" transform="translate(0 0.015625)"/>
      <use xlink:href="#Cmmi10-63" transform="translate(57.080078 -16.990625) scale(0.7)"/>
      <use xlink:href="#Cmmi10-61" transform="translate(87.329102 -16.990625) scale(0.7)"/>
      <use xlink:href="#Cmmi10-70" transform="translate(124.277344 -16.990625) scale(0.7)"/>
      <use xlink:href="#DejaVuSerif-20" transform="translate(165.859766 0.015625)"/>
      <use xlink:href="#DejaVuSerif-28" transform="translate(197.646875 0.015625)"/>
      <use xlink:href="#DejaVuSerif-61" transform="translate(236.660547 0.015625)"/>
      <use xlink:href="#DejaVuSerif-2080" transform="translate(296.279688 0.015625)"/>
      <use xlink:href="#DejaVuSerif-b2" transform="translate(336.367578 0.015625)"/>
      <use xlink:href="#DejaVuSerif-29" transform="translate(376.455469 0.015625)"/>
     </g>
    </g>
   </g>
   <g id="LineCollection_1">
    <path d="M 133.378006 48.974472 
L 133.378006 48.974472 
" clip-path="url(#p30500203b1)" style="fill: none; stroke: #000000; stroke-width: 3"/>
    <path d="M 171.465515 243.296042 
L 171.465515 214.037813 
" clip-path="url(#p30500203b1)" style="fill: none; stroke: #000000; stroke-width: 3"/>
    <path d="M 177.983847 318.299668 
L 177.983847 289.474383 
" clip-path="url(#p30500203b1)" style="fill: none; stroke: #000000; stroke-width: 3"/>
    <path d="M 190.509269 305.934623 
L 190.509269 276.766061 
" clip-path="url(#p30500203b1)" style="fill: none; stroke: #000000; stroke-width: 3"/>
    <path d="M 222.589688 441.449258 
L 222.589688 425.41624 
" clip-path="url(#p30500203b1)" style="fill: none; stroke: #000000; stroke-width: 3"/>
    <path d="M 228.596778 416.67425 
L 228.596778 395.865622 
" clip-path="url(#p30500203b1)" style="fill: none; stroke: #000000; stroke-width: 3"/>
    <path d="M 247.640532 450.616629 
L 247.640532 437.14334 
" clip-path="url(#p30500203b1)" style="fill: none; stroke: #000000; stroke-width: 3"/>
    <path d="M 266.684287 455.938772 
L 266.684287 444.35788 
" clip-path="url(#p30500203b1)" style="fill: none; stroke: #000000; stroke-width: 3"/>
    <path d="M 267.195528 455.938772 
L 267.195528 444.35788 
" clip-path="url(#p30500203b1)" style="fill: none; stroke: #000000; stroke-width: 3"/>
    <path d="M 285.728041 464.187345 
L 285.728041 457.003779 
" clip-path="url(#p30500203b1)" style="fill: none; stroke: #000000; stroke-width: 3"/>
    <path d="M 304.771796 464.187345 
L 304.771796 457.003779 
" clip-path="url(#p30500203b1)" style="fill: none; stroke: #000000; stroke-width: 3"/>
    <path d="M 311.801369 466.858673 
L 311.801369 462.690239 
" clip-path="url(#p30500203b1)" style="fill: none; stroke: #000000; stroke-width: 3"/>
    <path d="M 323.81555 462.643009 
L 323.81555 454.36922 
" clip-path="url(#p30500203b1)" style="fill: none; stroke: #000000; stroke-width: 3"/>
    <path d="M 342.859304 462.643009 
L 342.859304 454.36922 
" clip-path="url(#p30500203b1)" style="fill: none; stroke: #000000; stroke-width: 3"/>
    <path d="M 356.40721 465.625122 
L 356.40721 459.744896 
" clip-path="url(#p30500203b1)" style="fill: none; stroke: #000000; stroke-width: 3"/>
    <path d="M 361.903059 462.77698 
L 361.903059 457.949822 
" clip-path="url(#p30500203b1)" style="fill: none; stroke: #000000; stroke-width: 3"/>
    <path d="M 380.946813 463.532366 
L 380.946813 459.051723 
" clip-path="url(#p30500203b1)" style="fill: none; stroke: #000000; stroke-width: 3"/>
    <path d="M 399.990568 463.532366 
L 399.990568 459.051723 
" clip-path="url(#p30500203b1)" style="fill: none; stroke: #000000; stroke-width: 3"/>
    <path d="M 401.013051 466.313334 
L 401.013051 463.6999 
" clip-path="url(#p30500203b1)" style="fill: none; stroke: #000000; stroke-width: 3"/>
    <path d="M 419.034322 466.313334 
L 419.034322 463.6999 
" clip-path="url(#p30500203b1)" style="fill: none; stroke: #000000; stroke-width: 3"/>
    <path d="M 445.618892 466.313334 
L 445.618892 463.6999 
" clip-path="url(#p30500203b1)" style="fill: none; stroke: #000000; stroke-width: 3"/>
    <path d="M 490.224733 466.861579 
L 490.224733 465.008942 
" clip-path="url(#p30500203b1)" style="fill: none; stroke: #000000; stroke-width: 3"/>
    <path d="M 534.830574 466.863903 
L 534.830574 466.863903 
" clip-path="url(#p30500203b1)" style="fill: none; stroke: #000000; stroke-width: 3"/>
    <path d="M 579.436415 466.394915 
L 579.436415 465.475605 
" clip-path="url(#p30500203b1)" style="fill: none; stroke: #000000; stroke-width: 3"/>
    <path d="M 624.042256 466.726261 
L 624.042256 466.072903 
" clip-path="url(#p30500203b1)" style="fill: none; stroke: #000000; stroke-width: 3"/>
    <path d="M 668.648097 466.726261 
L 668.648097 466.072903 
" clip-path="url(#p30500203b1)" style="fill: none; stroke: #000000; stroke-width: 3"/>
    <path d="M 713.253938 466.566508 
L 713.253938 465.768334 
" clip-path="url(#p30500203b1)" style="fill: none; stroke: #000000; stroke-width: 3"/>
    <path d="M 757.859778 466.863903 
L 757.859778 466.863903 
" clip-path="url(#p30500203b1)" style="fill: none; stroke: #000000; stroke-width: 3"/>
    <path d="M 802.465619 466.863322 
L 802.465619 466.400163 
" clip-path="url(#p30500203b1)" style="fill: none; stroke: #000000; stroke-width: 3"/>
   </g>
   <g id="line2d_43">
    <defs>
     <path id="m22f77f2ba0" d="M 5 0 
L -5 -0 
" style="stroke: #000000"/>
    </defs>
    <g clip-path="url(#p30500203b1)">
     <use xlink:href="#m22f77f2ba0" x="133.378006" y="48.974472" style="stroke: #000000"/>
     <use xlink:href="#m22f77f2ba0" x="171.465515" y="243.296042" style="stroke: #000000"/>
     <use xlink:href="#m22f77f2ba0" x="177.983847" y="318.299668" style="stroke: #000000"/>
     <use xlink:href="#m22f77f2ba0" x="190.509269" y="305.934623" style="stroke: #000000"/>
     <use xlink:href="#m22f77f2ba0" x="222.589688" y="441.449258" style="stroke: #000000"/>
     <use xlink:href="#m22f77f2ba0" x="228.596778" y="416.67425" style="stroke: #000000"/>
     <use xlink:href="#m22f77f2ba0" x="247.640532" y="450.616629" style="stroke: #000000"/>
     <use xlink:href="#m22f77f2ba0" x="266.684287" y="455.938772" style="stroke: #000000"/>
     <use xlink:href="#m22f77f2ba0" x="267.195528" y="455.938772" style="stroke: #000000"/>
     <use xlink:href="#m22f77f2ba0" x="285.728041" y="464.187345" style="stroke: #000000"/>
     <use xlink:href="#m22f77f2ba0" x="304.771796" y="464.187345" style="stroke: #000000"/>
     <use xlink:href="#m22f77f2ba0" x="311.801369" y="466.858673" style="stroke: #000000"/>
     <use xlink:href="#m22f77f2ba0" x="323.81555" y="462.643009" style="stroke: #000000"/>
     <use xlink:href="#m22f77f2ba0" x="342.859304" y="462.643009" style="stroke: #000000"/>
     <use xlink:href="#m22f77f2ba0" x="356.40721" y="465.625122" style="stroke: #000000"/>
     <use xlink:href="#m22f77f2ba0" x="361.903059" y="462.77698" style="stroke: #000000"/>
     <use xlink:href="#m22f77f2ba0" x="380.946813" y="463.532366" style="stroke: #000000"/>
     <use xlink:href="#m22f77f2ba0" x="399.990568" y="463.532366" style="stroke: #000000"/>
     <use xlink:href="#m22f77f2ba0" x="401.013051" y="466.313334" style="stroke: #000000"/>
     <use xlink:href="#m22f77f2ba0" x="419.034322" y="466.313334" style="stroke: #000000"/>
     <use xlink:href="#m22f77f2ba0" x="445.618892" y="466.313334" style="stroke: #000000"/>
     <use xlink:href="#m22f77f2ba0" x="490.224733" y="466.861579" style="stroke: #000000"/>
     <use xlink:href="#m22f77f2ba0" x="534.830574" y="466.863903" style="stroke: #000000"/>
     <use xlink:href="#m22f77f2ba0" x="579.436415" y="466.394915" style="stroke: #000000"/>
     <use xlink:href="#m22f77f2ba0" x="624.042256" y="466.726261" style="stroke: #000000"/>
     <use xlink:href="#m22f77f2ba0" x="668.648097" y="466.726261" style="stroke: #000000"/>
     <use xlink:href="#m22f77f2ba0" x="713.253938" y="466.566508" style="stroke: #000000"/>
     <use xlink:href="#m22f77f2ba0" x="757.859778" y="466.863903" style="stroke: #000000"/>
     <use xlink:href="#m22f77f2ba0" x="802.465619" y="466.863322" style="stroke: #000000"/>
    </g>
   </g>
   <g id="line2d_44">
    <g clip-path="url(#p30500203b1)">
     <use xlink:href="#m22f77f2ba0" x="133.378006" y="48.974472" style="stroke: #000000"/>
     <use xlink:href="#m22f77f2ba0" x="171.465515" y="214.037813" style="stroke: #000000"/>
     <use xlink:href="#m22f77f2ba0" x="177.983847" y="289.474383" style="stroke: #000000"/>
     <use xlink:href="#m22f77f2ba0" x="190.509269" y="276.766061" style="stroke: #000000"/>
     <use xlink:href="#m22f77f2ba0" x="222.589688" y="425.41624" style="stroke: #000000"/>
     <use xlink:href="#m22f77f2ba0" x="228.596778" y="395.865622" style="stroke: #000000"/>
     <use xlink:href="#m22f77f2ba0" x="247.640532" y="437.14334" style="stroke: #000000"/>
     <use xlink:href="#m22f77f2ba0" x="266.684287" y="444.35788" style="stroke: #000000"/>
     <use xlink:href="#m22f77f2ba0" x="267.195528" y="444.35788" style="stroke: #000000"/>
     <use xlink:href="#m22f77f2ba0" x="285.728041" y="457.003779" style="stroke: #000000"/>
     <use xlink:href="#m22f77f2ba0" x="304.771796" y="457.003779" style="stroke: #000000"/>
     <use xlink:href="#m22f77f2ba0" x="311.801369" y="462.690239" style="stroke: #000000"/>
     <use xlink:href="#m22f77f2ba0" x="323.81555" y="454.36922" style="stroke: #000000"/>
     <use xlink:href="#m22f77f2ba0" x="342.859304" y="454.36922" style="stroke: #000000"/>
     <use xlink:href="#m22f77f2ba0" x="356.40721" y="459.744896" style="stroke: #000000"/>
     <use xlink:href="#m22f77f2ba0" x="361.903059" y="457.949822" style="stroke: #000000"/>
     <use xlink:href="#m22f77f2ba0" x="380.946813" y="459.051723" style="stroke: #000000"/>
     <use xlink:href="#m22f77f2ba0" x="399.990568" y="459.051723" style="stroke: #000000"/>
     <use xlink:href="#m22f77f2ba0" x="401.013051" y="463.6999" style="stroke: #000000"/>
     <use xlink:href="#m22f77f2ba0" x="419.034322" y="463.6999" style="stroke: #000000"/>
     <use xlink:href="#m22f77f2ba0" x="445.618892" y="463.6999" style="stroke: #000000"/>
     <use xlink:href="#m22f77f2ba0" x="490.224733" y="465.008942" style="stroke: #000000"/>
     <use xlink:href="#m22f77f2ba0" x="534.830574" y="466.863903" style="stroke: #000000"/>
     <use xlink:href="#m22f77f2ba0" x="579.436415" y="465.475605" style="stroke: #000000"/>
     <use xlink:href="#m22f77f2ba0" x="624.042256" y="466.072903" style="stroke: #000000"/>
     <use xlink:href="#m22f77f2ba0" x="668.648097" y="466.072903" style="stroke: #000000"/>
     <use xlink:href="#m22f77f2ba0" x="713.253938" y="465.768334" style="stroke: #000000"/>
     <use xlink:href="#m22f77f2ba0" x="757.859778" y="466.863903" style="stroke: #000000"/>
     <use xlink:href="#m22f77f2ba0" x="802.465619" y="466.400163" style="stroke: #000000"/>
    </g>
   </g>
   <g id="line2d_45">
    <path d="M 133.378006 395.8227 
L 171.465515 270.455871 
L 177.983847 339.407627 
L 190.509269 326.870944 
L 222.589688 448.058879 
L 228.596778 422.985513 
L 247.640532 460.595562 
L 266.684287 454.32722 
L 267.195528 458.506115 
L 285.728041 464.774456 
L 304.771796 464.774456 
L 311.801369 464.774456 
L 323.81555 462.685009 
L 342.859304 460.595562 
L 356.40721 462.685009 
L 361.903059 466.863903 
L 380.946813 465.006617 
L 399.990568 466.863903 
L 401.013051 465.93526 
L 419.034322 466.863903 
L 445.618892 465.93526 
L 490.224733 466.863903 
L 534.830574 466.863903 
L 579.436415 466.399582 
L 624.042256 466.631743 
L 668.648097 466.631743 
L 713.253938 466.631743 
L 757.859778 466.863903 
L 802.465619 466.863903 
" clip-path="url(#p30500203b1)" style="fill: none; stroke: #ff7f0e; stroke-width: 3; stroke-linecap: square"/>
    <defs>
     <path id="m4937d076b7" d="M -3 3 
L 3 3 
L 3 -3 
L -3 -3 
z
" style="stroke: #ff7f0e; stroke-linejoin: miter"/>
    </defs>
    <g clip-path="url(#p30500203b1)">
     <use xlink:href="#m4937d076b7" x="133.378006" y="395.8227" style="fill: #ff7f0e; stroke: #ff7f0e; stroke-linejoin: miter"/>
     <use xlink:href="#m4937d076b7" x="171.465515" y="270.455871" style="fill: #ff7f0e; stroke: #ff7f0e; stroke-linejoin: miter"/>
     <use xlink:href="#m4937d076b7" x="177.983847" y="339.407627" style="fill: #ff7f0e; stroke: #ff7f0e; stroke-linejoin: miter"/>
     <use xlink:href="#m4937d076b7" x="190.509269" y="326.870944" style="fill: #ff7f0e; stroke: #ff7f0e; stroke-linejoin: miter"/>
     <use xlink:href="#m4937d076b7" x="222.589688" y="448.058879" style="fill: #ff7f0e; stroke: #ff7f0e; stroke-linejoin: miter"/>
     <use xlink:href="#m4937d076b7" x="228.596778" y="422.985513" style="fill: #ff7f0e; stroke: #ff7f0e; stroke-linejoin: miter"/>
     <use xlink:href="#m4937d076b7" x="247.640532" y="460.595562" style="fill: #ff7f0e; stroke: #ff7f0e; stroke-linejoin: miter"/>
     <use xlink:href="#m4937d076b7" x="266.684287" y="454.32722" style="fill: #ff7f0e; stroke: #ff7f0e; stroke-linejoin: miter"/>
     <use xlink:href="#m4937d076b7" x="267.195528" y="458.506115" style="fill: #ff7f0e; stroke: #ff7f0e; stroke-linejoin: miter"/>
     <use xlink:href="#m4937d076b7" x="285.728041" y="464.774456" style="fill: #ff7f0e; stroke: #ff7f0e; stroke-linejoin: miter"/>
     <use xlink:href="#m4937d076b7" x="304.771796" y="464.774456" style="fill: #ff7f0e; stroke: #ff7f0e; stroke-linejoin: miter"/>
     <use xlink:href="#m4937d076b7" x="311.801369" y="464.774456" style="fill: #ff7f0e; stroke: #ff7f0e; stroke-linejoin: miter"/>
     <use xlink:href="#m4937d076b7" x="323.81555" y="462.685009" style="fill: #ff7f0e; stroke: #ff7f0e; stroke-linejoin: miter"/>
     <use xlink:href="#m4937d076b7" x="342.859304" y="460.595562" style="fill: #ff7f0e; stroke: #ff7f0e; stroke-linejoin: miter"/>
     <use xlink:href="#m4937d076b7" x="356.40721" y="462.685009" style="fill: #ff7f0e; stroke: #ff7f0e; stroke-linejoin: miter"/>
     <use xlink:href="#m4937d076b7" x="361.903059" y="466.863903" style="fill: #ff7f0e; stroke: #ff7f0e; stroke-linejoin: miter"/>
     <use xlink:href="#m4937d076b7" x="380.946813" y="465.006617" style="fill: #ff7f0e; stroke: #ff7f0e; stroke-linejoin: miter"/>
     <use xlink:href="#m4937d076b7" x="399.990568" y="466.863903" style="fill: #ff7f0e; stroke: #ff7f0e; stroke-linejoin: miter"/>
     <use xlink:href="#m4937d076b7" x="401.013051" y="465.93526" style="fill: #ff7f0e; stroke: #ff7f0e; stroke-linejoin: miter"/>
     <use xlink:href="#m4937d076b7" x="419.034322" y="466.863903" style="fill: #ff7f0e; stroke: #ff7f0e; stroke-linejoin: miter"/>
     <use xlink:href="#m4937d076b7" x="445.618892" y="465.93526" style="fill: #ff7f0e; stroke: #ff7f0e; stroke-linejoin: miter"/>
     <use xlink:href="#m4937d076b7" x="490.224733" y="466.863903" style="fill: #ff7f0e; stroke: #ff7f0e; stroke-linejoin: miter"/>
     <use xlink:href="#m4937d076b7" x="534.830574" y="466.863903" style="fill: #ff7f0e; stroke: #ff7f0e; stroke-linejoin: miter"/>
     <use xlink:href="#m4937d076b7" x="579.436415" y="466.399582" style="fill: #ff7f0e; stroke: #ff7f0e; stroke-linejoin: miter"/>
     <use xlink:href="#m4937d076b7" x="624.042256" y="466.631743" style="fill: #ff7f0e; stroke: #ff7f0e; stroke-linejoin: miter"/>
     <use xlink:href="#m4937d076b7" x="668.648097" y="466.631743" style="fill: #ff7f0e; stroke: #ff7f0e; stroke-linejoin: miter"/>
     <use xlink:href="#m4937d076b7" x="713.253938" y="466.631743" style="fill: #ff7f0e; stroke: #ff7f0e; stroke-linejoin: miter"/>
     <use xlink:href="#m4937d076b7" x="757.859778" y="466.863903" style="fill: #ff7f0e; stroke: #ff7f0e; stroke-linejoin: miter"/>
     <use xlink:href="#m4937d076b7" x="802.465619" y="466.863903" style="fill: #ff7f0e; stroke: #ff7f0e; stroke-linejoin: miter"/>
    </g>
   </g>
   <g id="line2d_46">
    <path d="M 133.378006 120.015675 
L 171.465515 425.07496 
L 177.983847 431.343302 
L 190.509269 431.343302 
L 222.589688 452.237773 
L 228.596778 450.148326 
L 247.640532 450.148326 
L 266.684287 462.685009 
L 267.195528 458.506115 
L 285.728041 462.685009 
L 304.771796 462.685009 
L 311.801369 466.863903 
L 323.81555 462.685009 
L 342.859304 464.774456 
L 356.40721 466.863903 
L 361.903059 460.363401 
L 380.946813 463.149331 
L 399.990568 461.292044 
L 401.013051 465.93526 
L 419.034322 465.006617 
L 445.618892 465.93526 
L 490.224733 465.93526 
L 534.830574 466.863903 
L 579.436415 466.399582 
L 624.042256 466.631743 
L 668.648097 466.631743 
L 713.253938 466.399582 
L 757.859778 466.863903 
L 802.465619 466.631743 
" clip-path="url(#p30500203b1)" style="fill: none; stroke: #2ca02c; stroke-width: 3; stroke-linecap: square"/>
    <defs>
     <path id="maaffd7a3f0" d="M 0 -3 
L -3 3 
L 3 3 
z
" style="stroke: #2ca02c; stroke-linejoin: miter"/>
    </defs>
    <g clip-path="url(#p30500203b1)">
     <use xlink:href="#maaffd7a3f0" x="133.378006" y="120.015675" style="fill: #2ca02c; stroke: #2ca02c; stroke-linejoin: miter"/>
     <use xlink:href="#maaffd7a3f0" x="171.465515" y="425.07496" style="fill: #2ca02c; stroke: #2ca02c; stroke-linejoin: miter"/>
     <use xlink:href="#maaffd7a3f0" x="177.983847" y="431.343302" style="fill: #2ca02c; stroke: #2ca02c; stroke-linejoin: miter"/>
     <use xlink:href="#maaffd7a3f0" x="190.509269" y="431.343302" style="fill: #2ca02c; stroke: #2ca02c; stroke-linejoin: miter"/>
     <use xlink:href="#maaffd7a3f0" x="222.589688" y="452.237773" style="fill: #2ca02c; stroke: #2ca02c; stroke-linejoin: miter"/>
     <use xlink:href="#maaffd7a3f0" x="228.596778" y="450.148326" style="fill: #2ca02c; stroke: #2ca02c; stroke-linejoin: miter"/>
     <use xlink:href="#maaffd7a3f0" x="247.640532" y="450.148326" style="fill: #2ca02c; stroke: #2ca02c; stroke-linejoin: miter"/>
     <use xlink:href="#maaffd7a3f0" x="266.684287" y="462.685009" style="fill: #2ca02c; stroke: #2ca02c; stroke-linejoin: miter"/>
     <use xlink:href="#maaffd7a3f0" x="267.195528" y="458.506115" style="fill: #2ca02c; stroke: #2ca02c; stroke-linejoin: miter"/>
     <use xlink:href="#maaffd7a3f0" x="285.728041" y="462.685009" style="fill: #2ca02c; stroke: #2ca02c; stroke-linejoin: miter"/>
     <use xlink:href="#maaffd7a3f0" x="304.771796" y="462.685009" style="fill: #2ca02c; stroke: #2ca02c; stroke-linejoin: miter"/>
     <use xlink:href="#maaffd7a3f0" x="311.801369" y="466.863903" style="fill: #2ca02c; stroke: #2ca02c; stroke-linejoin: miter"/>
     <use xlink:href="#maaffd7a3f0" x="323.81555" y="462.685009" style="fill: #2ca02c; stroke: #2ca02c; stroke-linejoin: miter"/>
     <use xlink:href="#maaffd7a3f0" x="342.859304" y="464.774456" style="fill: #2ca02c; stroke: #2ca02c; stroke-linejoin: miter"/>
     <use xlink:href="#maaffd7a3f0" x="356.40721" y="466.863903" style="fill: #2ca02c; stroke: #2ca02c; stroke-linejoin: miter"/>
     <use xlink:href="#maaffd7a3f0" x="361.903059" y="460.363401" style="fill: #2ca02c; stroke: #2ca02c; stroke-linejoin: miter"/>
     <use xlink:href="#maaffd7a3f0" x="380.946813" y="463.149331" style="fill: #2ca02c; stroke: #2ca02c; stroke-linejoin: miter"/>
     <use xlink:href="#maaffd7a3f0" x="399.990568" y="461.292044" style="fill: #2ca02c; stroke: #2ca02c; stroke-linejoin: miter"/>
     <use xlink:href="#maaffd7a3f0" x="401.013051" y="465.93526" style="fill: #2ca02c; stroke: #2ca02c; stroke-linejoin: miter"/>
     <use xlink:href="#maaffd7a3f0" x="419.034322" y="465.006617" style="fill: #2ca02c; stroke: #2ca02c; stroke-linejoin: miter"/>
     <use xlink:href="#maaffd7a3f0" x="445.618892" y="465.93526" style="fill: #2ca02c; stroke: #2ca02c; stroke-linejoin: miter"/>
     <use xlink:href="#maaffd7a3f0" x="490.224733" y="465.93526" style="fill: #2ca02c; stroke: #2ca02c; stroke-linejoin: miter"/>
     <use xlink:href="#maaffd7a3f0" x="534.830574" y="466.863903" style="fill: #2ca02c; stroke: #2ca02c; stroke-linejoin: miter"/>
     <use xlink:href="#maaffd7a3f0" x="579.436415" y="466.399582" style="fill: #2ca02c; stroke: #2ca02c; stroke-linejoin: miter"/>
     <use xlink:href="#maaffd7a3f0" x="624.042256" y="466.631743" style="fill: #2ca02c; stroke: #2ca02c; stroke-linejoin: miter"/>
     <use xlink:href="#maaffd7a3f0" x="668.648097" y="466.631743" style="fill: #2ca02c; stroke: #2ca02c; stroke-linejoin: miter"/>
     <use xlink:href="#maaffd7a3f0" x="713.253938" y="466.399582" style="fill: #2ca02c; stroke: #2ca02c; stroke-linejoin: miter"/>
     <use xlink:href="#maaffd7a3f0" x="757.859778" y="466.863903" style="fill: #2ca02c; stroke: #2ca02c; stroke-linejoin: miter"/>
     <use xlink:href="#maaffd7a3f0" x="802.465619" y="466.631743" style="fill: #2ca02c; stroke: #2ca02c; stroke-linejoin: miter"/>
    </g>
   </g>
   <g id="line2d_47">
    <path d="M 133.378006 48.974472 
L 171.465515 228.666927 
L 177.983847 303.887025 
L 190.509269 291.350342 
L 222.589688 433.432749 
L 228.596778 406.269936 
L 247.640532 443.879985 
L 266.684287 450.148326 
L 267.195528 450.148326 
L 285.728041 460.595562 
L 304.771796 460.595562 
L 311.801369 464.774456 
L 323.81555 458.506115 
L 342.859304 458.506115 
L 356.40721 462.685009 
L 361.903059 460.363401 
L 380.946813 461.292044 
L 399.990568 461.292044 
L 401.013051 465.006617 
L 419.034322 465.006617 
L 445.618892 465.006617 
L 490.224733 465.93526 
L 534.830574 466.863903 
L 579.436415 465.93526 
L 624.042256 466.399582 
L 668.648097 466.399582 
L 713.253938 466.167421 
L 757.859778 466.863903 
L 802.465619 466.631743 
" clip-path="url(#p30500203b1)" style="fill: none; stroke: #1f77b4; stroke-width: 3; stroke-linecap: square"/>
    <defs>
     <path id="m3d8aec82ab" d="M 0 3 
C 0.795609 3 1.55874 2.683901 2.12132 2.12132 
C 2.683901 1.55874 3 0.795609 3 0 
C 3 -0.795609 2.683901 -1.55874 2.12132 -2.12132 
C 1.55874 -2.683901 0.795609 -3 0 -3 
C -0.795609 -3 -1.55874 -2.683901 -2.12132 -2.12132 
C -2.683901 -1.55874 -3 -0.795609 -3 0 
C -3 0.795609 -2.683901 1.55874 -2.12132 2.12132 
C -1.55874 2.683901 -0.795609 3 0 3 
z
" style="stroke: #1f77b4"/>
    </defs>
    <g clip-path="url(#p30500203b1)">
     <use xlink:href="#m3d8aec82ab" x="133.378006" y="48.974472" style="fill: #1f77b4; stroke: #1f77b4"/>
     <use xlink:href="#m3d8aec82ab" x="171.465515" y="228.666927" style="fill: #1f77b4; stroke: #1f77b4"/>
     <use xlink:href="#m3d8aec82ab" x="177.983847" y="303.887025" style="fill: #1f77b4; stroke: #1f77b4"/>
     <use xlink:href="#m3d8aec82ab" x="190.509269" y="291.350342" style="fill: #1f77b4; stroke: #1f77b4"/>
     <use xlink:href="#m3d8aec82ab" x="222.589688" y="433.432749" style="fill: #1f77b4; stroke: #1f77b4"/>
     <use xlink:href="#m3d8aec82ab" x="228.596778" y="406.269936" style="fill: #1f77b4; stroke: #1f77b4"/>
     <use xlink:href="#m3d8aec82ab" x="247.640532" y="443.879985" style="fill: #1f77b4; stroke: #1f77b4"/>
     <use xlink:href="#m3d8aec82ab" x="266.684287" y="450.148326" style="fill: #1f77b4; stroke: #1f77b4"/>
     <use xlink:href="#m3d8aec82ab" x="267.195528" y="450.148326" style="fill: #1f77b4; stroke: #1f77b4"/>
     <use xlink:href="#m3d8aec82ab" x="285.728041" y="460.595562" style="fill: #1f77b4; stroke: #1f77b4"/>
     <use xlink:href="#m3d8aec82ab" x="304.771796" y="460.595562" style="fill: #1f77b4; stroke: #1f77b4"/>
     <use xlink:href="#m3d8aec82ab" x="311.801369" y="464.774456" style="fill: #1f77b4; stroke: #1f77b4"/>
     <use xlink:href="#m3d8aec82ab" x="323.81555" y="458.506115" style="fill: #1f77b4; stroke: #1f77b4"/>
     <use xlink:href="#m3d8aec82ab" x="342.859304" y="458.506115" style="fill: #1f77b4; stroke: #1f77b4"/>
     <use xlink:href="#m3d8aec82ab" x="356.40721" y="462.685009" style="fill: #1f77b4; stroke: #1f77b4"/>
     <use xlink:href="#m3d8aec82ab" x="361.903059" y="460.363401" style="fill: #1f77b4; stroke: #1f77b4"/>
     <use xlink:href="#m3d8aec82ab" x="380.946813" y="461.292044" style="fill: #1f77b4; stroke: #1f77b4"/>
     <use xlink:href="#m3d8aec82ab" x="399.990568" y="461.292044" style="fill: #1f77b4; stroke: #1f77b4"/>
     <use xlink:href="#m3d8aec82ab" x="401.013051" y="465.006617" style="fill: #1f77b4; stroke: #1f77b4"/>
     <use xlink:href="#m3d8aec82ab" x="419.034322" y="465.006617" style="fill: #1f77b4; stroke: #1f77b4"/>
     <use xlink:href="#m3d8aec82ab" x="445.618892" y="465.006617" style="fill: #1f77b4; stroke: #1f77b4"/>
     <use xlink:href="#m3d8aec82ab" x="490.224733" y="465.93526" style="fill: #1f77b4; stroke: #1f77b4"/>
     <use xlink:href="#m3d8aec82ab" x="534.830574" y="466.863903" style="fill: #1f77b4; stroke: #1f77b4"/>
     <use xlink:href="#m3d8aec82ab" x="579.436415" y="465.93526" style="fill: #1f77b4; stroke: #1f77b4"/>
     <use xlink:href="#m3d8aec82ab" x="624.042256" y="466.399582" style="fill: #1f77b4; stroke: #1f77b4"/>
     <use xlink:href="#m3d8aec82ab" x="668.648097" y="466.399582" style="fill: #1f77b4; stroke: #1f77b4"/>
     <use xlink:href="#m3d8aec82ab" x="713.253938" y="466.167421" style="fill: #1f77b4; stroke: #1f77b4"/>
     <use xlink:href="#m3d8aec82ab" x="757.859778" y="466.863903" style="fill: #1f77b4; stroke: #1f77b4"/>
     <use xlink:href="#m3d8aec82ab" x="802.465619" y="466.631743" style="fill: #1f77b4; stroke: #1f77b4"/>
    </g>
   </g>
   <g id="patch_3">
    <path d="M 99.923625 487.758375 
L 99.923625 28.08 
" style="fill: none; stroke: #000000; stroke-width: 2; stroke-linejoin: miter; stroke-linecap: square"/>
   </g>
   <g id="patch_4">
    <path d="M 835.92 487.758375 
L 835.92 28.08 
" style="fill: none; stroke: #000000; stroke-width: 2; stroke-linejoin: miter; stroke-linecap: square"/>
   </g>
   <g id="patch_5">
    <path d="M 99.923625 487.758375 
L 835.92 487.758375 
" style="fill: none; stroke: #000000; stroke-width: 2; stroke-linejoin: miter; stroke-linecap: square"/>
   </g>
   <g id="patch_6">
    <path d="M 99.923625 28.08 
L 835.92 28.08 
" style="fill: none; stroke: #000000; stroke-width: 2; stroke-linejoin: miter; stroke-linecap: square"/>
   </g>
   <g id="legend_1">
    <g id="patch_7">
     <path d="M 720.0825 111.335 
L 824.72 111.335 
Q 827.92 111.335 827.92 108.135 
L 827.92 39.28 
Q 827.92 36.08 824.72 36.08 
L 720.0825 36.08 
Q 716.8825 36.08 716.8825 39.28 
L 716.8825 108.135 
Q 716.8825 111.335 720.0825 111.335 
z
" style="fill: #ffffff; opacity: 0.8; stroke: #cccccc; stroke-linejoin: miter"/>
    </g>
    <g id="line2d_48">
     <path d="M 723.2825 49.0375 
L 739.2825 49.0375 
L 755.2825 49.0375 
" style="fill: none; stroke: #ff7f0e; stroke-width: 3; stroke-linecap: square"/>
     <g>
      <use xlink:href="#m4937d076b7" x="739.2825" y="49.0375" style="fill: #ff7f0e; stroke: #ff7f0e; stroke-linejoin: miter"/>
     </g>
    </g>
    <g id="text_17">
     <!-- Partial -->
     <g transform="translate(768.0825 54.6375) scale(0.16 -0.16)">
      <defs>
       <path id="DejaVuSerif-50" d="M 1581 2375 
L 2406 2375 
Q 2872 2375 3115 2626 
Q 3359 2878 3359 3353 
Q 3359 3831 3115 4081 
Q 2872 4331 2406 4331 
L 1581 4331 
L 1581 2375 
z
M 353 0 
L 353 331 
L 947 331 
L 947 4331 
L 353 4331 
L 353 4666 
L 2559 4666 
Q 3259 4666 3668 4311 
Q 4078 3956 4078 3353 
Q 4078 2753 3668 2397 
Q 3259 2041 2559 2041 
L 1581 2041 
L 1581 331 
L 2303 331 
L 2303 0 
L 353 0 
z
" transform="scale(0.015625)"/>
       <path id="DejaVuSerif-72" d="M 3059 3328 
L 3059 2497 
L 2728 2497 
Q 2713 2744 2591 2866 
Q 2469 2988 2234 2988 
Q 1809 2988 1582 2694 
Q 1356 2400 1356 1850 
L 1356 331 
L 2022 331 
L 2022 0 
L 263 0 
L 263 331 
L 781 331 
L 781 2994 
L 231 2994 
L 231 3322 
L 1356 3322 
L 1356 2731 
Q 1525 3078 1790 3245 
Q 2056 3413 2438 3413 
Q 2578 3413 2733 3391 
Q 2888 3369 3059 3328 
z
" transform="scale(0.015625)"/>
       <path id="DejaVuSerif-74" d="M 691 2988 
L 184 2988 
L 184 3322 
L 691 3322 
L 691 4353 
L 1269 4353 
L 1269 3322 
L 2350 3322 
L 2350 2988 
L 1269 2988 
L 1269 878 
Q 1269 456 1350 337 
Q 1431 219 1650 219 
Q 1875 219 1978 351 
Q 2081 484 2088 781 
L 2522 781 
Q 2497 328 2275 118 
Q 2053 -91 1600 -91 
Q 1103 -91 897 129 
Q 691 350 691 878 
L 691 2988 
z
" transform="scale(0.015625)"/>
       <path id="DejaVuSerif-69" d="M 622 4353 
Q 622 4497 726 4603 
Q 831 4709 978 4709 
Q 1122 4709 1226 4603 
Q 1331 4497 1331 4353 
Q 1331 4206 1228 4103 
Q 1125 4000 978 4000 
Q 831 4000 726 4103 
Q 622 4206 622 4353 
z
M 1356 331 
L 1900 331 
L 1900 0 
L 231 0 
L 231 331 
L 781 331 
L 781 2988 
L 231 2988 
L 231 3322 
L 1356 3322 
L 1356 331 
z
" transform="scale(0.015625)"/>
       <path id="DejaVuSerif-6c" d="M 1313 331 
L 1856 331 
L 1856 0 
L 184 0 
L 184 331 
L 738 331 
L 738 4531 
L 184 4531 
L 184 4863 
L 1313 4863 
L 1313 331 
z
" transform="scale(0.015625)"/>
      </defs>
      <use xlink:href="#DejaVuSerif-50"/>
      <use xlink:href="#DejaVuSerif-61" x="62.785156"/>
      <use xlink:href="#DejaVuSerif-72" x="122.404297"/>
      <use xlink:href="#DejaVuSerif-74" x="170.207031"/>
      <use xlink:href="#DejaVuSerif-69" x="210.392578"/>
      <use xlink:href="#DejaVuSerif-61" x="242.375"/>
      <use xlink:href="#DejaVuSerif-6c" x="301.994141"/>
     </g>
    </g>
    <g id="line2d_49">
     <path d="M 723.2825 72.5225 
L 739.2825 72.5225 
L 755.2825 72.5225 
" style="fill: none; stroke: #2ca02c; stroke-width: 3; stroke-linecap: square"/>
     <g>
      <use xlink:href="#maaffd7a3f0" x="739.2825" y="72.5225" style="fill: #2ca02c; stroke: #2ca02c; stroke-linejoin: miter"/>
     </g>
    </g>
    <g id="text_18">
     <!-- Full -->
     <g transform="translate(768.0825 78.1225) scale(0.16 -0.16)">
      <defs>
       <path id="DejaVuSerif-46" d="M 353 0 
L 353 331 
L 947 331 
L 947 4331 
L 353 4331 
L 353 4666 
L 4172 4666 
L 4172 3628 
L 3788 3628 
L 3788 4281 
L 1581 4281 
L 1581 2719 
L 3175 2719 
L 3175 3303 
L 3559 3303 
L 3559 1753 
L 3175 1753 
L 3175 2338 
L 1581 2338 
L 1581 331 
L 2328 331 
L 2328 0 
L 353 0 
z
" transform="scale(0.015625)"/>
      </defs>
      <use xlink:href="#DejaVuSerif-46"/>
      <use xlink:href="#DejaVuSerif-75" x="69.384766"/>
      <use xlink:href="#DejaVuSerif-6c" x="133.789062"/>
      <use xlink:href="#DejaVuSerif-6c" x="165.771484"/>
     </g>
    </g>
    <g id="LineCollection_2">
     <path d="M 739.2825 104.0075 
L 739.2825 88.0075 
" style="fill: none; stroke: #000000; stroke-width: 3"/>
    </g>
    <g id="line2d_50">
     <g>
      <use xlink:href="#m22f77f2ba0" x="739.2825" y="104.0075" style="stroke: #000000"/>
     </g>
    </g>
    <g id="line2d_51">
     <g>
      <use xlink:href="#m22f77f2ba0" x="739.2825" y="88.0075" style="stroke: #000000"/>
     </g>
    </g>
    <g id="line2d_52">
     <path d="M 723.2825 96.0075 
L 755.2825 96.0075 
" style="fill: none; stroke: #1f77b4; stroke-width: 3; stroke-linecap: square"/>
    </g>
    <g id="line2d_53">
     <g>
      <use xlink:href="#m3d8aec82ab" x="739.2825" y="96.0075" style="fill: #1f77b4; stroke: #1f77b4"/>
     </g>
    </g>
    <g id="text_19">
     <!-- Total -->
     <g transform="translate(768.0825 101.6075) scale(0.16 -0.16)">
      <defs>
       <path id="DejaVuSerif-54" d="M 1222 0 
L 1222 331 
L 1819 331 
L 1819 4294 
L 447 4294 
L 447 3566 
L 63 3566 
L 63 4666 
L 4206 4666 
L 4206 3566 
L 3822 3566 
L 3822 4294 
L 2450 4294 
L 2450 331 
L 3047 331 
L 3047 0 
L 1222 0 
z
" transform="scale(0.015625)"/>
       <path id="DejaVuSerif-6f" d="M 1925 219 
Q 2388 219 2623 584 
Q 2859 950 2859 1663 
Q 2859 2375 2623 2739 
Q 2388 3103 1925 3103 
Q 1463 3103 1227 2739 
Q 991 2375 991 1663 
Q 991 950 1228 584 
Q 1466 219 1925 219 
z
M 1925 -91 
Q 1200 -91 759 389 
Q 319 869 319 1663 
Q 319 2456 758 2934 
Q 1197 3413 1925 3413 
Q 2653 3413 3092 2934 
Q 3531 2456 3531 1663 
Q 3531 869 3092 389 
Q 2653 -91 1925 -91 
z
" transform="scale(0.015625)"/>
      </defs>
      <use xlink:href="#DejaVuSerif-54"/>
      <use xlink:href="#DejaVuSerif-6f" x="58.949219"/>
      <use xlink:href="#DejaVuSerif-74" x="119.154297"/>
      <use xlink:href="#DejaVuSerif-61" x="159.339844"/>
      <use xlink:href="#DejaVuSerif-6c" x="218.958984"/>
     </g>
    </g>
   </g>
  </g>
 </g>
 <defs>
  <clipPath id="p30500203b1">
   <rect x="99.923625" y="28.08" width="735.996375" height="459.678375"/>
  </clipPath>
 </defs>
</svg>
