<?xml version="1.0" encoding="utf-8" standalone="no"?>
<!DOCTYPE svg PUBLIC "-//W3C//DTD SVG 1.1//EN"
  "http://www.w3.org/Graphics/SVG/1.1/DTD/svg11.dtd">
<svg xmlns:xlink="http://www.w3.org/1999/xlink" width="720pt" height="504pt" viewBox="0 0 720 504" xmlns="http://www.w3.org/2000/svg" version="1.1">
 <metadata>
  <rdf:RDF xmlns:dc="http://purl.org/dc/elements/1.1/" xmlns:cc="http://creativecommons.org/ns#" xmlns:rdf="http://www.w3.org/1999/02/22-rdf-syntax-ns#">
   <cc:Work>
    <dc:type rdf:resource="http://purl.org/dc/dcmitype/StillImage"/>
    <dc:date>2025-05-30T16:27:23.432980</dc:date>
    <dc:format>image/svg+xml</dc:format>
    <dc:creator>
     <cc:Agent>
      <dc:title>Matplotlib v3.7.2, https://matplotlib.org/</dc:title>
     </cc:Agent>
    </dc:creator>
   </cc:Work>
  </rdf:RDF>
 </metadata>
 <defs>
  <style type="text/css">*{stroke-linejoin: round; stroke-linecap: butt}</style>
 </defs>
 <g id="figure_1">
  <g id="patch_1">
   <path d="M 0 504 
L 720 504 
L 720 0 
L 0 0 
z
" style="fill: #ffffff"/>
  </g>
  <g id="axes_1">
   <g id="patch_2">
    <path d="M 115.455 419.46 
L 691.92 419.46 
L 691.92 58.32 
L 115.455 58.32 
z
" style="fill: #ffffff"/>
   </g>
   <g id="matplotlib.axis_1">
    <g id="xtick_1">
     <g id="line2d_1">
      <path d="M 141.657955 419.46 
L 141.657955 58.32 
" clip-path="url(#p67c629e18a)" style="fill: none; stroke-dasharray: 3.7,1.6; stroke-dashoffset: 0; stroke: #b0b0b0"/>
     </g>
     <g id="line2d_2">
      <defs>
       <path id="m0b75808e04" d="M 0 0 
L 0 -10 
" style="stroke: #000000; stroke-width: 2"/>
      </defs>
      <g>
       <use xlink:href="#m0b75808e04" x="141.657955" y="419.46" style="stroke: #000000; stroke-width: 2"/>
      </g>
     </g>
     <g id="text_1">
      <!-- 0 -->
      <g transform="translate(133.386705 442.715937) scale(0.26 -0.26)">
       <defs>
        <path id="DejaVuSerif-30" d="M 2034 219 
Q 2513 219 2750 744 
Q 2988 1269 2988 2328 
Q 2988 3391 2750 3916 
Q 2513 4441 2034 4441 
Q 1556 4441 1318 3916 
Q 1081 3391 1081 2328 
Q 1081 1269 1318 744 
Q 1556 219 2034 219 
z
M 2034 -91 
Q 1275 -91 848 546 
Q 422 1184 422 2328 
Q 422 3475 848 4112 
Q 1275 4750 2034 4750 
Q 2797 4750 3222 4112 
Q 3647 3475 3647 2328 
Q 3647 1184 3222 546 
Q 2797 -91 2034 -91 
z
" transform="scale(0.015625)"/>
       </defs>
       <use xlink:href="#DejaVuSerif-30"/>
      </g>
     </g>
    </g>
    <g id="xtick_2">
     <g id="line2d_3">
      <path d="M 246.469773 419.46 
L 246.469773 58.32 
" clip-path="url(#p67c629e18a)" style="fill: none; stroke-dasharray: 3.7,1.6; stroke-dashoffset: 0; stroke: #b0b0b0"/>
     </g>
     <g id="line2d_4">
      <g>
       <use xlink:href="#m0b75808e04" x="246.469773" y="419.46" style="stroke: #000000; stroke-width: 2"/>
      </g>
     </g>
     <g id="text_2">
      <!-- 1 -->
      <g transform="translate(238.198523 442.715937) scale(0.26 -0.26)">
       <defs>
        <path id="DejaVuSerif-31" d="M 909 0 
L 909 331 
L 1722 331 
L 1722 4213 
L 781 3603 
L 781 4013 
L 1919 4750 
L 2350 4750 
L 2350 331 
L 3163 331 
L 3163 0 
L 909 0 
z
" transform="scale(0.015625)"/>
       </defs>
       <use xlink:href="#DejaVuSerif-31"/>
      </g>
     </g>
    </g>
    <g id="xtick_3">
     <g id="line2d_5">
      <path d="M 351.281591 419.46 
L 351.281591 58.32 
" clip-path="url(#p67c629e18a)" style="fill: none; stroke-dasharray: 3.7,1.6; stroke-dashoffset: 0; stroke: #b0b0b0"/>
     </g>
     <g id="line2d_6">
      <g>
       <use xlink:href="#m0b75808e04" x="351.281591" y="419.46" style="stroke: #000000; stroke-width: 2"/>
      </g>
     </g>
     <g id="text_3">
      <!-- 2 -->
      <g transform="translate(343.010341 442.715937) scale(0.26 -0.26)">
       <defs>
        <path id="DejaVuSerif-32" d="M 819 3553 
L 469 3553 
L 469 4384 
Q 803 4563 1142 4656 
Q 1481 4750 1806 4750 
Q 2534 4750 2956 4397 
Q 3378 4044 3378 3438 
Q 3378 2753 2422 1800 
Q 2347 1728 2309 1691 
L 1131 513 
L 3078 513 
L 3078 1088 
L 3444 1088 
L 3444 0 
L 434 0 
L 434 341 
L 1850 1753 
Q 2319 2222 2519 2614 
Q 2719 3006 2719 3438 
Q 2719 3909 2473 4175 
Q 2228 4441 1797 4441 
Q 1350 4441 1106 4219 
Q 863 3997 819 3553 
z
" transform="scale(0.015625)"/>
       </defs>
       <use xlink:href="#DejaVuSerif-32"/>
      </g>
     </g>
    </g>
    <g id="xtick_4">
     <g id="line2d_7">
      <path d="M 456.093409 419.46 
L 456.093409 58.32 
" clip-path="url(#p67c629e18a)" style="fill: none; stroke-dasharray: 3.7,1.6; stroke-dashoffset: 0; stroke: #b0b0b0"/>
     </g>
     <g id="line2d_8">
      <g>
       <use xlink:href="#m0b75808e04" x="456.093409" y="419.46" style="stroke: #000000; stroke-width: 2"/>
      </g>
     </g>
     <g id="text_4">
      <!-- 3 -->
      <g transform="translate(447.822159 442.715937) scale(0.26 -0.26)">
       <defs>
        <path id="DejaVuSerif-33" d="M 622 4469 
Q 988 4606 1323 4678 
Q 1659 4750 1953 4750 
Q 2638 4750 3022 4454 
Q 3406 4159 3406 3634 
Q 3406 3213 3140 2930 
Q 2875 2647 2388 2547 
Q 2963 2466 3280 2130 
Q 3597 1794 3597 1259 
Q 3597 606 3158 257 
Q 2719 -91 1894 -91 
Q 1528 -91 1179 -12 
Q 831 66 488 225 
L 488 1131 
L 838 1131 
Q 869 681 1141 450 
Q 1413 219 1906 219 
Q 2384 219 2661 495 
Q 2938 772 2938 1253 
Q 2938 1803 2653 2086 
Q 2369 2369 1819 2369 
L 1522 2369 
L 1522 2688 
L 1678 2688 
Q 2225 2688 2498 2914 
Q 2772 3141 2772 3597 
Q 2772 4006 2547 4223 
Q 2322 4441 1900 4441 
Q 1478 4441 1245 4241 
Q 1013 4041 972 3647 
L 622 3647 
L 622 4469 
z
" transform="scale(0.015625)"/>
       </defs>
       <use xlink:href="#DejaVuSerif-33"/>
      </g>
     </g>
    </g>
    <g id="xtick_5">
     <g id="line2d_9">
      <path d="M 560.905227 419.46 
L 560.905227 58.32 
" clip-path="url(#p67c629e18a)" style="fill: none; stroke-dasharray: 3.7,1.6; stroke-dashoffset: 0; stroke: #b0b0b0"/>
     </g>
     <g id="line2d_10">
      <g>
       <use xlink:href="#m0b75808e04" x="560.905227" y="419.46" style="stroke: #000000; stroke-width: 2"/>
      </g>
     </g>
     <g id="text_5">
      <!-- 4 -->
      <g transform="translate(552.633977 442.715937) scale(0.26 -0.26)">
       <defs>
        <path id="DejaVuSerif-34" d="M 2234 1581 
L 2234 4063 
L 641 1581 
L 2234 1581 
z
M 3609 0 
L 1484 0 
L 1484 331 
L 2234 331 
L 2234 1247 
L 197 1247 
L 197 1588 
L 2241 4750 
L 2859 4750 
L 2859 1581 
L 3750 1581 
L 3750 1247 
L 2859 1247 
L 2859 331 
L 3609 331 
L 3609 0 
z
" transform="scale(0.015625)"/>
       </defs>
       <use xlink:href="#DejaVuSerif-34"/>
      </g>
     </g>
    </g>
    <g id="xtick_6">
     <g id="line2d_11">
      <path d="M 665.717045 419.46 
L 665.717045 58.32 
" clip-path="url(#p67c629e18a)" style="fill: none; stroke-dasharray: 3.7,1.6; stroke-dashoffset: 0; stroke: #b0b0b0"/>
     </g>
     <g id="line2d_12">
      <g>
       <use xlink:href="#m0b75808e04" x="665.717045" y="419.46" style="stroke: #000000; stroke-width: 2"/>
      </g>
     </g>
     <g id="text_6">
      <!-- 5 -->
      <g transform="translate(657.445795 442.715937) scale(0.26 -0.26)">
       <defs>
        <path id="DejaVuSerif-35" d="M 3219 4666 
L 3219 4153 
L 1081 4153 
L 1081 2816 
Q 1244 2928 1461 2984 
Q 1678 3041 1947 3041 
Q 2703 3041 3140 2622 
Q 3578 2203 3578 1478 
Q 3578 738 3136 323 
Q 2694 -91 1894 -91 
Q 1572 -91 1234 -12 
Q 897 66 544 225 
L 544 1131 
L 897 1131 
Q 925 688 1179 453 
Q 1434 219 1894 219 
Q 2388 219 2653 544 
Q 2919 869 2919 1478 
Q 2919 2084 2655 2407 
Q 2391 2731 1894 2731 
Q 1613 2731 1398 2631 
Q 1184 2531 1019 2322 
L 750 2322 
L 750 4666 
L 3219 4666 
z
" transform="scale(0.015625)"/>
       </defs>
       <use xlink:href="#DejaVuSerif-35"/>
      </g>
     </g>
    </g>
    <g id="text_7">
     <!-- Time (a.u.) -->
     <g transform="translate(332.173281 471.879062) scale(0.26 -0.26)">
      <defs>
       <path id="DejaVuSerif-54" d="M 1222 0 
L 1222 331 
L 1819 331 
L 1819 4294 
L 447 4294 
L 447 3566 
L 63 3566 
L 63 4666 
L 4206 4666 
L 4206 3566 
L 3822 3566 
L 3822 4294 
L 2450 4294 
L 2450 331 
L 3047 331 
L 3047 0 
L 1222 0 
z
" transform="scale(0.015625)"/>
       <path id="DejaVuSerif-69" d="M 622 4353 
Q 622 4497 726 4603 
Q 831 4709 978 4709 
Q 1122 4709 1226 4603 
Q 1331 4497 1331 4353 
Q 1331 4206 1228 4103 
Q 1125 4000 978 4000 
Q 831 4000 726 4103 
Q 622 4206 622 4353 
z
M 1356 331 
L 1900 331 
L 1900 0 
L 231 0 
L 231 331 
L 781 331 
L 781 2988 
L 231 2988 
L 231 3322 
L 1356 3322 
L 1356 331 
z
" transform="scale(0.015625)"/>
       <path id="DejaVuSerif-6d" d="M 3316 2675 
Q 3481 3041 3739 3227 
Q 3997 3413 4341 3413 
Q 4863 3413 5119 3089 
Q 5375 2766 5375 2113 
L 5375 331 
L 5894 331 
L 5894 0 
L 4300 0 
L 4300 331 
L 4800 331 
L 4800 2047 
Q 4800 2556 4650 2772 
Q 4500 2988 4153 2988 
Q 3769 2988 3567 2697 
Q 3366 2406 3366 1850 
L 3366 331 
L 3866 331 
L 3866 0 
L 2291 0 
L 2291 331 
L 2791 331 
L 2791 2069 
Q 2791 2566 2641 2777 
Q 2491 2988 2144 2988 
Q 1759 2988 1557 2697 
Q 1356 2406 1356 1850 
L 1356 331 
L 1856 331 
L 1856 0 
L 263 0 
L 263 331 
L 781 331 
L 781 2994 
L 231 2994 
L 231 3322 
L 1356 3322 
L 1356 2731 
Q 1516 3063 1762 3238 
Q 2009 3413 2322 3413 
Q 2709 3413 2968 3220 
Q 3228 3028 3316 2675 
z
" transform="scale(0.015625)"/>
       <path id="DejaVuSerif-65" d="M 3469 1600 
L 991 1600 
L 991 1575 
Q 991 903 1244 561 
Q 1497 219 1991 219 
Q 2369 219 2611 417 
Q 2853 616 2950 1006 
L 3413 1006 
Q 3275 459 2904 184 
Q 2534 -91 1931 -91 
Q 1203 -91 761 389 
Q 319 869 319 1663 
Q 319 2450 753 2931 
Q 1188 3413 1894 3413 
Q 2647 3413 3050 2948 
Q 3453 2484 3469 1600 
z
M 2791 1931 
Q 2772 2513 2545 2808 
Q 2319 3103 1894 3103 
Q 1497 3103 1269 2806 
Q 1041 2509 991 1931 
L 2791 1931 
z
" transform="scale(0.015625)"/>
       <path id="DejaVuSerif-20" transform="scale(0.015625)"/>
       <path id="DejaVuSerif-28" d="M 2041 -997 
Q 1281 -656 893 83 
Q 506 822 506 1931 
Q 506 3044 893 3783 
Q 1281 4522 2041 4863 
L 2041 4556 
Q 1559 4225 1350 3623 
Q 1141 3022 1141 1931 
Q 1141 844 1350 242 
Q 1559 -359 2041 -691 
L 2041 -997 
z
" transform="scale(0.015625)"/>
       <path id="DejaVuSerif-61" d="M 2547 1044 
L 2547 1747 
L 1806 1747 
Q 1378 1747 1168 1562 
Q 959 1378 959 997 
Q 959 650 1171 447 
Q 1384 244 1747 244 
Q 2106 244 2326 466 
Q 2547 688 2547 1044 
z
M 3122 2075 
L 3122 331 
L 3634 331 
L 3634 0 
L 2547 0 
L 2547 359 
Q 2356 128 2106 18 
Q 1856 -91 1522 -91 
Q 969 -91 644 203 
Q 319 497 319 997 
Q 319 1513 691 1797 
Q 1063 2081 1741 2081 
L 2547 2081 
L 2547 2309 
Q 2547 2688 2317 2895 
Q 2088 3103 1672 3103 
Q 1328 3103 1125 2947 
Q 922 2791 872 2484 
L 575 2484 
L 575 3156 
Q 875 3284 1158 3348 
Q 1441 3413 1709 3413 
Q 2400 3413 2761 3070 
Q 3122 2728 3122 2075 
z
" transform="scale(0.015625)"/>
       <path id="DejaVuSerif-2e" d="M 603 325 
Q 603 500 722 622 
Q 841 744 1019 744 
Q 1191 744 1312 622 
Q 1434 500 1434 325 
Q 1434 153 1312 31 
Q 1191 -91 1019 -91 
Q 841 -91 722 29 
Q 603 150 603 325 
z
" transform="scale(0.015625)"/>
       <path id="DejaVuSerif-75" d="M 2266 3322 
L 3341 3322 
L 3341 331 
L 3884 331 
L 3884 0 
L 2766 0 
L 2766 588 
Q 2606 256 2353 82 
Q 2100 -91 1766 -91 
Q 1213 -91 952 223 
Q 691 538 691 1209 
L 691 2988 
L 172 2988 
L 172 3322 
L 1269 3322 
L 1269 1388 
Q 1269 781 1417 556 
Q 1566 331 1947 331 
Q 2347 331 2556 625 
Q 2766 919 2766 1478 
L 2766 2988 
L 2266 2988 
L 2266 3322 
z
" transform="scale(0.015625)"/>
       <path id="DejaVuSerif-29" d="M 453 -997 
L 453 -691 
Q 934 -359 1145 242 
Q 1356 844 1356 1931 
Q 1356 3022 1145 3623 
Q 934 4225 453 4556 
L 453 4863 
Q 1216 4522 1603 3783 
Q 1991 3044 1991 1931 
Q 1991 822 1603 83 
Q 1216 -656 453 -997 
z
" transform="scale(0.015625)"/>
      </defs>
      <use xlink:href="#DejaVuSerif-54"/>
      <use xlink:href="#DejaVuSerif-69" x="66.699219"/>
      <use xlink:href="#DejaVuSerif-6d" x="98.681641"/>
      <use xlink:href="#DejaVuSerif-65" x="193.505859"/>
      <use xlink:href="#DejaVuSerif-20" x="252.685547"/>
      <use xlink:href="#DejaVuSerif-28" x="284.472656"/>
      <use xlink:href="#DejaVuSerif-61" x="323.486328"/>
      <use xlink:href="#DejaVuSerif-2e" x="383.105469"/>
      <use xlink:href="#DejaVuSerif-75" x="414.892578"/>
      <use xlink:href="#DejaVuSerif-2e" x="479.296875"/>
      <use xlink:href="#DejaVuSerif-29" x="511.083984"/>
     </g>
    </g>
   </g>
   <g id="matplotlib.axis_2">
    <g id="ytick_1">
     <g id="line2d_13">
      <path d="M 115.455 401.153337 
L 691.92 401.153337 
" clip-path="url(#p67c629e18a)" style="fill: none; stroke-dasharray: 3.7,1.6; stroke-dashoffset: 0; stroke: #b0b0b0"/>
     </g>
     <g id="line2d_14">
      <defs>
       <path id="m6ca15a0c78" d="M 0 0 
L 10 0 
" style="stroke: #000000; stroke-width: 2"/>
      </defs>
      <g>
       <use xlink:href="#m6ca15a0c78" x="115.455" y="401.153337" style="stroke: #000000; stroke-width: 2"/>
      </g>
     </g>
     <g id="text_8">
      <!-- −20 -->
      <g transform="translate(57.082813 411.031306) scale(0.26 -0.26)">
       <defs>
        <path id="DejaVuSerif-2212" d="M 678 2259 
L 4684 2259 
L 4684 1753 
L 678 1753 
L 678 2259 
z
" transform="scale(0.015625)"/>
       </defs>
       <use xlink:href="#DejaVuSerif-2212"/>
       <use xlink:href="#DejaVuSerif-32" x="83.789062"/>
       <use xlink:href="#DejaVuSerif-30" x="147.412109"/>
      </g>
     </g>
    </g>
    <g id="ytick_2">
     <g id="line2d_15">
      <path d="M 115.455 285.015279 
L 691.92 285.015279 
" clip-path="url(#p67c629e18a)" style="fill: none; stroke-dasharray: 3.7,1.6; stroke-dashoffset: 0; stroke: #b0b0b0"/>
     </g>
     <g id="line2d_16">
      <g>
       <use xlink:href="#m6ca15a0c78" x="115.455" y="285.015279" style="stroke: #000000; stroke-width: 2"/>
      </g>
     </g>
     <g id="text_9">
      <!-- −10 -->
      <g transform="translate(57.082813 294.893247) scale(0.26 -0.26)">
       <use xlink:href="#DejaVuSerif-2212"/>
       <use xlink:href="#DejaVuSerif-31" x="83.789062"/>
       <use xlink:href="#DejaVuSerif-30" x="147.412109"/>
      </g>
     </g>
    </g>
    <g id="ytick_3">
     <g id="line2d_17">
      <path d="M 115.455 168.87722 
L 691.92 168.87722 
" clip-path="url(#p67c629e18a)" style="fill: none; stroke-dasharray: 3.7,1.6; stroke-dashoffset: 0; stroke: #b0b0b0"/>
     </g>
     <g id="line2d_18">
      <g>
       <use xlink:href="#m6ca15a0c78" x="115.455" y="168.87722" style="stroke: #000000; stroke-width: 2"/>
      </g>
     </g>
     <g id="text_10">
      <!-- 0 -->
      <g transform="translate(95.4125 178.755189) scale(0.26 -0.26)">
       <use xlink:href="#DejaVuSerif-30"/>
      </g>
     </g>
    </g>
    <g id="text_11">
     <!-- Energy Components (a.u.) -->
     <g transform="translate(47.305937 411.706719) rotate(-90) scale(0.26 -0.26)">
      <defs>
       <path id="DejaVuSerif-45" d="M 353 0 
L 353 331 
L 947 331 
L 947 4331 
L 353 4331 
L 353 4666 
L 4109 4666 
L 4109 3628 
L 3725 3628 
L 3725 4281 
L 1581 4281 
L 1581 2719 
L 3109 2719 
L 3109 3303 
L 3494 3303 
L 3494 1753 
L 3109 1753 
L 3109 2338 
L 1581 2338 
L 1581 384 
L 3775 384 
L 3775 1038 
L 4159 1038 
L 4159 0 
L 353 0 
z
" transform="scale(0.015625)"/>
       <path id="DejaVuSerif-6e" d="M 263 0 
L 263 331 
L 781 331 
L 781 2988 
L 231 2988 
L 231 3322 
L 1356 3322 
L 1356 2731 
Q 1516 3069 1770 3241 
Q 2025 3413 2363 3413 
Q 2913 3413 3172 3097 
Q 3431 2781 3431 2113 
L 3431 331 
L 3944 331 
L 3944 0 
L 2356 0 
L 2356 331 
L 2853 331 
L 2853 1931 
Q 2853 2541 2703 2767 
Q 2553 2994 2175 2994 
Q 1775 2994 1565 2701 
Q 1356 2409 1356 1850 
L 1356 331 
L 1856 331 
L 1856 0 
L 263 0 
z
" transform="scale(0.015625)"/>
       <path id="DejaVuSerif-72" d="M 3059 3328 
L 3059 2497 
L 2728 2497 
Q 2713 2744 2591 2866 
Q 2469 2988 2234 2988 
Q 1809 2988 1582 2694 
Q 1356 2400 1356 1850 
L 1356 331 
L 2022 331 
L 2022 0 
L 263 0 
L 263 331 
L 781 331 
L 781 2994 
L 231 2994 
L 231 3322 
L 1356 3322 
L 1356 2731 
Q 1525 3078 1790 3245 
Q 2056 3413 2438 3413 
Q 2578 3413 2733 3391 
Q 2888 3369 3059 3328 
z
" transform="scale(0.015625)"/>
       <path id="DejaVuSerif-67" d="M 3359 2988 
L 3359 72 
Q 3359 -644 2965 -1033 
Q 2572 -1422 1844 -1422 
Q 1516 -1422 1216 -1362 
Q 916 -1303 641 -1184 
L 641 -488 
L 941 -488 
Q 997 -813 1206 -963 
Q 1416 -1113 1806 -1113 
Q 2313 -1113 2548 -827 
Q 2784 -541 2784 72 
L 2784 519 
Q 2616 206 2355 57 
Q 2094 -91 1709 -91 
Q 1097 -91 708 395 
Q 319 881 319 1663 
Q 319 2444 706 2928 
Q 1094 3413 1709 3413 
Q 2094 3413 2355 3264 
Q 2616 3116 2784 2803 
L 2784 3322 
L 3909 3322 
L 3909 2988 
L 3359 2988 
z
M 2784 1825 
Q 2784 2422 2554 2737 
Q 2325 3053 1888 3053 
Q 1444 3053 1217 2703 
Q 991 2353 991 1663 
Q 991 975 1217 622 
Q 1444 269 1888 269 
Q 2325 269 2554 583 
Q 2784 897 2784 1497 
L 2784 1825 
z
" transform="scale(0.015625)"/>
       <path id="DejaVuSerif-79" d="M 1381 -609 
L 1600 -56 
L 359 2988 
L -19 2988 
L -19 3322 
L 1509 3322 
L 1509 2988 
L 978 2988 
L 1913 703 
L 2847 2988 
L 2350 2988 
L 2350 3322 
L 3597 3322 
L 3597 2988 
L 3225 2988 
L 1703 -750 
Q 1547 -1138 1356 -1280 
Q 1166 -1422 819 -1422 
Q 672 -1422 517 -1397 
Q 363 -1372 206 -1325 
L 206 -691 
L 500 -691 
Q 519 -903 608 -995 
Q 697 -1088 884 -1088 
Q 1056 -1088 1161 -992 
Q 1266 -897 1381 -609 
z
" transform="scale(0.015625)"/>
       <path id="DejaVuSerif-43" d="M 4513 1234 
Q 4306 581 3820 245 
Q 3334 -91 2591 -91 
Q 2134 -91 1743 65 
Q 1353 222 1050 525 
Q 700 875 529 1320 
Q 359 1766 359 2328 
Q 359 3416 987 4083 
Q 1616 4750 2644 4750 
Q 3025 4750 3456 4650 
Q 3888 4550 4384 4347 
L 4384 3272 
L 4031 3272 
Q 3916 3859 3567 4137 
Q 3219 4416 2591 4416 
Q 1844 4416 1459 3886 
Q 1075 3356 1075 2328 
Q 1075 1303 1459 773 
Q 1844 244 2591 244 
Q 3113 244 3450 492 
Q 3788 741 3938 1234 
L 4513 1234 
z
" transform="scale(0.015625)"/>
       <path id="DejaVuSerif-6f" d="M 1925 219 
Q 2388 219 2623 584 
Q 2859 950 2859 1663 
Q 2859 2375 2623 2739 
Q 2388 3103 1925 3103 
Q 1463 3103 1227 2739 
Q 991 2375 991 1663 
Q 991 950 1228 584 
Q 1466 219 1925 219 
z
M 1925 -91 
Q 1200 -91 759 389 
Q 319 869 319 1663 
Q 319 2456 758 2934 
Q 1197 3413 1925 3413 
Q 2653 3413 3092 2934 
Q 3531 2456 3531 1663 
Q 3531 869 3092 389 
Q 2653 -91 1925 -91 
z
" transform="scale(0.015625)"/>
       <path id="DejaVuSerif-70" d="M 1313 1825 
L 1313 1497 
Q 1313 897 1542 583 
Q 1772 269 2209 269 
Q 2650 269 2876 622 
Q 3103 975 3103 1663 
Q 3103 2353 2876 2703 
Q 2650 3053 2209 3053 
Q 1772 3053 1542 2737 
Q 1313 2422 1313 1825 
z
M 738 2988 
L 184 2988 
L 184 3322 
L 1313 3322 
L 1313 2803 
Q 1481 3116 1742 3264 
Q 2003 3413 2388 3413 
Q 3000 3413 3387 2928 
Q 3775 2444 3775 1663 
Q 3775 881 3387 395 
Q 3000 -91 2388 -91 
Q 2003 -91 1742 57 
Q 1481 206 1313 519 
L 1313 -997 
L 1856 -997 
L 1856 -1331 
L 184 -1331 
L 184 -997 
L 738 -997 
L 738 2988 
z
" transform="scale(0.015625)"/>
       <path id="DejaVuSerif-74" d="M 691 2988 
L 184 2988 
L 184 3322 
L 691 3322 
L 691 4353 
L 1269 4353 
L 1269 3322 
L 2350 3322 
L 2350 2988 
L 1269 2988 
L 1269 878 
Q 1269 456 1350 337 
Q 1431 219 1650 219 
Q 1875 219 1978 351 
Q 2081 484 2088 781 
L 2522 781 
Q 2497 328 2275 118 
Q 2053 -91 1600 -91 
Q 1103 -91 897 129 
Q 691 350 691 878 
L 691 2988 
z
" transform="scale(0.015625)"/>
       <path id="DejaVuSerif-73" d="M 359 184 
L 359 959 
L 691 959 
Q 703 588 923 403 
Q 1144 219 1575 219 
Q 1963 219 2166 364 
Q 2369 509 2369 788 
Q 2369 1006 2220 1140 
Q 2072 1275 1594 1428 
L 1178 1569 
Q 750 1706 558 1912 
Q 366 2119 366 2438 
Q 366 2894 700 3153 
Q 1034 3413 1625 3413 
Q 1888 3413 2178 3344 
Q 2469 3275 2778 3144 
L 2778 2419 
L 2447 2419 
Q 2434 2741 2221 2922 
Q 2009 3103 1644 3103 
Q 1281 3103 1095 2975 
Q 909 2847 909 2591 
Q 909 2381 1050 2254 
Q 1191 2128 1613 1997 
L 2069 1856 
Q 2541 1709 2748 1489 
Q 2956 1269 2956 922 
Q 2956 450 2595 179 
Q 2234 -91 1600 -91 
Q 1278 -91 972 -22 
Q 666 47 359 184 
z
" transform="scale(0.015625)"/>
      </defs>
      <use xlink:href="#DejaVuSerif-45"/>
      <use xlink:href="#DejaVuSerif-6e" x="72.998047"/>
      <use xlink:href="#DejaVuSerif-65" x="137.402344"/>
      <use xlink:href="#DejaVuSerif-72" x="196.582031"/>
      <use xlink:href="#DejaVuSerif-67" x="244.384766"/>
      <use xlink:href="#DejaVuSerif-79" x="308.398438"/>
      <use xlink:href="#DejaVuSerif-20" x="364.892578"/>
      <use xlink:href="#DejaVuSerif-43" x="396.679688"/>
      <use xlink:href="#DejaVuSerif-6f" x="473.193359"/>
      <use xlink:href="#DejaVuSerif-6d" x="533.398438"/>
      <use xlink:href="#DejaVuSerif-70" x="628.222656"/>
      <use xlink:href="#DejaVuSerif-6f" x="692.236328"/>
      <use xlink:href="#DejaVuSerif-6e" x="752.441406"/>
      <use xlink:href="#DejaVuSerif-65" x="816.845703"/>
      <use xlink:href="#DejaVuSerif-6e" x="876.025391"/>
      <use xlink:href="#DejaVuSerif-74" x="940.429688"/>
      <use xlink:href="#DejaVuSerif-73" x="980.615234"/>
      <use xlink:href="#DejaVuSerif-20" x="1031.933594"/>
      <use xlink:href="#DejaVuSerif-28" x="1063.720703"/>
      <use xlink:href="#DejaVuSerif-61" x="1102.734375"/>
      <use xlink:href="#DejaVuSerif-2e" x="1162.353516"/>
      <use xlink:href="#DejaVuSerif-75" x="1194.140625"/>
      <use xlink:href="#DejaVuSerif-2e" x="1258.544922"/>
      <use xlink:href="#DejaVuSerif-29" x="1290.332031"/>
     </g>
    </g>
   </g>
   <g id="line2d_19">
    <path d="M 141.657955 83.861513 
L 146.951481 86.322007 
L 152.245007 89.021353 
L 157.538533 89.822943 
L 162.832059 88.269253 
L 168.125585 85.294555 
L 173.419112 86.580885 
L 178.712638 88.476559 
L 184.006164 88.737171 
L 189.29969 88.861655 
L 194.593216 87.193181 
L 199.886742 86.846875 
L 205.180269 88.163857 
L 210.473795 87.929498 
L 215.767321 87.784378 
L 221.060847 87.425617 
L 226.354373 87.10948 
L 231.647899 88.664052 
L 236.941426 87.445025 
L 242.234952 82.293366 
L 247.528478 79.973868 
L 252.822004 85.400651 
L 258.11553 89.41825 
L 263.409056 84.997242 
L 268.702583 77.967516 
L 273.996109 78.718795 
L 279.289635 84.013802 
L 284.583161 85.189996 
L 289.876687 83.108311 
L 295.170213 84.858727 
L 300.46374 84.2622 
L 305.757266 79.841568 
L 311.050792 79.832172 
L 316.344318 86.29428 
L 321.637844 89.745532 
L 326.931371 85.753328 
L 332.224897 78.809165 
L 337.518423 79.146039 
L 342.811949 86.713133 
L 348.105475 90.050006 
L 353.399001 85.430278 
L 358.692528 80.67093 
L 363.986054 81.087344 
L 369.27958 85.021904 
L 374.573106 87.814687 
L 379.866632 84.908071 
L 385.160158 82.607755 
L 390.453685 83.460289 
L 395.747211 83.866228 
L 401.040737 84.336564 
L 406.334263 83.736301 
L 411.627789 83.724425 
L 416.921315 85.150345 
L 422.214842 83.995418 
L 427.508368 81.256548 
L 432.801894 81.018718 
L 438.09542 83.473102 
L 443.388946 85.90083 
L 448.682472 84.839678 
L 453.975999 80.289738 
L 459.269525 77.420155 
L 464.563051 80.430628 
L 469.856577 84.911975 
L 475.150103 85.661528 
L 480.443629 81.867642 
L 485.737156 76.726485 
L 491.030682 75.557548 
L 496.324208 79.277959 
L 501.617734 82.987544 
L 506.91126 83.055847 
L 512.204787 80.13726 
L 517.498313 77.641448 
L 522.791839 77.179456 
L 528.085365 77.546215 
L 533.378891 77.323881 
L 538.672417 75.990422 
L 543.965944 74.735455 
L 549.25947 75.200797 
L 554.552996 76.953217 
L 559.846522 78.777143 
L 565.140048 80.1409 
L 570.433574 81.429358 
L 575.727101 83.850236 
L 581.020627 86.934189 
L 586.314153 87.899028 
L 591.607679 84.78637 
L 596.901205 79.659174 
L 602.194731 78.830676 
L 607.488258 83.938631 
L 612.781784 89.963777 
L 618.07531 92.444801 
L 623.368836 89.402928 
L 628.662362 82.3314 
L 633.955888 79.682256 
L 639.249415 85.65745 
L 644.542941 91.974966 
L 649.836467 93.045711 
L 655.129993 88.251873 
L 660.423519 81.152518 
L 665.717045 80.278684 
" clip-path="url(#p67c629e18a)" style="fill: none; stroke: #1f77b4; stroke-width: 3; stroke-linecap: square"/>
   </g>
   <g id="line2d_20">
    <path d="M 141.657955 387.283321 
L 146.951481 382.879209 
L 152.245007 380.127573 
L 157.538533 381.187432 
L 162.832059 384.730256 
L 168.125585 387.008099 
L 173.419112 383.677741 
L 178.712638 381.444803 
L 184.006164 383.048579 
L 189.29969 385.458382 
L 194.593216 387.478142 
L 199.886742 386.13521 
L 205.180269 384.202993 
L 210.473795 386.069527 
L 215.767321 389.218347 
L 221.060847 391.013064 
L 226.354373 389.958175 
L 231.647899 387.254453 
L 236.941426 389.59601 
L 242.234952 397.62461 
L 247.528478 401.20736 
L 252.822004 393.93008 
L 258.11553 388.560315 
L 263.409056 393.28624 
L 268.702583 400.248514 
L 273.996109 399.699753 
L 279.289635 395.295259 
L 284.583161 394.080964 
L 289.876687 393.918108 
L 295.170213 390.154797 
L 300.46374 391.169388 
L 305.757266 397.694042 
L 311.050792 398.208495 
L 316.344318 389.464161 
L 321.637844 384.275984 
L 326.931371 388.423646 
L 332.224897 396.066928 
L 337.518423 396.217613 
L 342.811949 388.356664 
L 348.105475 384.349151 
L 353.399001 388.628021 
L 358.692528 392.467584 
L 363.986054 391.932892 
L 369.27958 389.053577 
L 374.573106 387.192821 
L 379.866632 389.778031 
L 385.160158 390.20125 
L 390.453685 388.391808 
L 395.747211 389.071983 
L 401.040737 390.795302 
L 406.334263 391.942119 
L 411.627789 389.94906 
L 416.921315 386.839123 
L 422.214842 388.366085 
L 427.508368 393.384053 
L 432.801894 395.399054 
L 438.09542 391.834839 
L 443.388946 387.462621 
L 448.682472 388.019065 
L 453.975999 393.885527 
L 459.269525 398.823168 
L 464.563051 396.40533 
L 469.856577 390.790424 
L 475.150103 389.081244 
L 480.443629 392.965653 
L 485.737156 398.912665 
L 491.030682 401.077261 
L 496.324208 398.03389 
L 501.617734 394.510472 
L 506.91126 394.476105 
L 512.204787 397.105651 
L 517.498313 398.83922 
L 522.791839 398.767048 
L 528.085365 398.654784 
L 533.378891 399.795267 
L 538.672417 401.956348 
L 543.965944 403.044545 
L 549.25947 401.448475 
L 554.552996 398.391734 
L 559.846522 395.70229 
L 565.140048 394.043492 
L 570.433574 392.575417 
L 575.727101 389.766483 
L 581.020627 386.603641 
L 586.314153 386.299719 
L 591.607679 390.270536 
L 596.901205 395.08634 
L 602.194731 394.258607 
L 607.488258 387.714673 
L 612.781784 381.501186 
L 618.07531 380.302314 
L 623.368836 385.488373 
L 628.662362 393.411952 
L 633.955888 394.20116 
L 639.249415 386.532549 
L 644.542941 380.45523 
L 649.836467 381.371838 
L 655.129993 388.732554 
L 660.423519 396.628025 
L 665.717045 395.65998 
" clip-path="url(#p67c629e18a)" style="fill: none; stroke: #ff7f0e; stroke-width: 3; stroke-linecap: square"/>
   </g>
   <g id="line2d_21">
    <path d="M 141.657955 136.729566 
L 146.951481 137.230481 
L 152.245007 137.65128 
L 157.538533 137.562559 
L 162.832059 137.010781 
L 168.125585 136.625212 
L 173.419112 136.883757 
L 178.712638 137.143456 
L 184.006164 136.973482 
L 189.29969 136.460679 
L 194.593216 135.950641 
L 199.886742 135.856873 
L 205.180269 135.844884 
L 210.473795 135.427297 
L 215.767321 134.694532 
L 221.060847 134.031505 
L 226.354373 133.653297 
L 231.647899 133.194115 
L 236.941426 132.13826 
L 242.234952 130.714588 
L 247.528478 129.982974 
L 252.822004 130.282939 
L 258.11553 130.431581 
L 263.409056 129.974328 
L 268.702583 129.264834 
L 273.996109 129.054336 
L 279.289635 129.548871 
L 284.583161 130.219338 
L 289.876687 130.710148 
L 295.170213 131.078034 
L 300.46374 131.05265 
L 305.757266 130.729419 
L 311.050792 131.04131 
L 316.344318 132.155109 
L 321.637844 132.863313 
L 326.931371 132.687859 
L 332.224897 132.139359 
L 337.518423 132.290809 
L 342.811949 133.216339 
L 348.105475 133.750297 
L 353.399001 133.494716 
L 358.692528 133.234733 
L 363.986054 133.429987 
L 369.27958 133.842831 
L 374.573106 134.008362 
L 379.866632 133.742643 
L 385.160158 133.736983 
L 390.453685 134.033866 
L 395.747211 134.124194 
L 401.040737 133.903239 
L 406.334263 133.590761 
L 411.627789 133.660837 
L 416.921315 133.99713 
L 422.214842 134.016103 
L 427.508368 133.57687 
L 432.801894 133.146058 
L 438.09542 133.156998 
L 443.388946 133.402625 
L 448.682472 133.435469 
L 453.975999 133.032589 
L 459.269525 132.514683 
L 464.563051 132.413876 
L 469.856577 132.505131 
L 475.150103 132.443335 
L 480.443629 132.156748 
L 485.737156 131.772324 
L 491.030682 131.62609 
L 496.324208 131.734628 
L 501.617734 131.676153 
L 506.91126 131.325323 
L 512.204787 131.013498 
L 517.498313 131.11926 
L 522.791839 131.577582 
L 528.085365 132.012422 
L 533.378891 132.187273 
L 538.672417 132.17438 
L 543.965944 132.313176 
L 549.25947 132.81732 
L 554.552996 133.475887 
L 559.846522 133.944376 
L 565.140048 134.058303 
L 570.433574 133.985279 
L 575.727101 134.085358 
L 581.020627 134.437273 
L 586.314153 134.77089 
L 591.607679 134.776725 
L 596.901205 134.482367 
L 602.194731 134.359936 
L 607.488258 134.581792 
L 612.781784 134.800688 
L 618.07531 134.685327 
L 623.368836 134.147518 
L 628.662362 133.448975 
L 633.955888 133.230715 
L 639.249415 133.521159 
L 644.542941 133.583713 
L 649.836467 132.972613 
L 655.129993 131.75977 
L 660.423519 130.590884 
L 665.717045 130.26755 
" clip-path="url(#p67c629e18a)" style="fill: none; stroke: #2ca02c; stroke-width: 3; stroke-linecap: square"/>
   </g>
   <g id="line2d_22">
    <path d="M 141.657955 160.77972 
L 146.951481 162.222647 
L 152.245007 161.854383 
L 157.538533 160.081727 
L 162.832059 158.64423 
L 168.125585 159.726385 
L 173.419112 161.511984 
L 178.712638 161.589721 
L 184.006164 159.895331 
L 189.29969 157.873859 
L 194.593216 158.03246 
L 199.886742 159.815434 
L 205.180269 160.442778 
L 210.473795 159.228168 
L 215.767321 156.95722 
L 221.060847 156.184261 
L 226.354373 157.933465 
L 231.647899 159.541938 
L 236.941426 159.475152 
L 242.234952 158.021421 
L 247.528478 157.489548 
L 252.822004 159.040597 
L 258.11553 160.244487 
L 263.409056 160.396422 
L 268.702583 161.172731 
L 273.996109 161.180779 
L 279.289635 159.796211 
L 284.583161 159.163953 
L 289.876687 160.917498 
L 295.170213 162.56266 
L 300.46374 162.169928 
L 305.757266 160.388716 
L 311.050792 159.571796 
L 316.344318 160.740809 
L 321.637844 161.769839 
L 326.931371 161.78947 
L 332.224897 161.638227 
L 337.518423 160.999247 
L 342.811949 160.368261 
L 348.105475 160.505244 
L 353.399001 161.101264 
L 358.692528 162.2806 
L 363.986054 162.203663 
L 369.27958 160.735929 
L 374.573106 159.638627 
L 379.866632 160.225483 
L 385.160158 162.108037 
L 390.453685 162.76814 
L 395.747211 161.591734 
L 401.040737 159.619077 
L 406.334263 159.384947 
L 411.627789 161.319805 
L 416.921315 162.667659 
L 422.214842 162.276545 
L 427.508368 160.436432 
L 432.801894 159.090053 
L 438.09542 160.189166 
L 443.388946 161.888249 
L 448.682472 162.360017 
L 453.975999 161.445963 
L 459.269525 159.89555 
L 464.563051 159.403995 
L 469.856577 160.446704 
L 475.150103 161.468196 
L 480.443629 161.663916 
L 485.737156 161.242019 
L 491.030682 160.392488 
L 496.324208 159.607248 
L 501.617734 159.479892 
L 506.91126 159.796793 
L 512.204787 160.397395 
L 517.498313 161.053648 
L 522.791839 161.129449 
L 528.085365 160.440147 
L 533.378891 159.347126 
L 538.672417 158.532277 
L 543.965944 158.560135 
L 549.25947 159.186763 
L 554.552996 159.832676 
L 559.846522 160.229871 
L 565.140048 160.411109 
L 570.433574 160.663865 
L 575.727101 160.952063 
L 581.020627 160.679316 
L 586.314153 159.684871 
L 591.607679 158.820591 
L 596.901205 159.425878 
L 602.194731 161.204465 
L 607.488258 162.419053 
L 612.781784 162.389043 
L 618.07531 161.222491 
L 623.368836 159.615827 
L 628.662362 159.461676 
L 633.955888 161.539631 
L 639.249415 162.943148 
L 644.542941 162.64097 
L 649.836467 161.264814 
L 655.129993 159.910345 
L 660.423519 160.282469 
L 665.717045 162.44761 
" clip-path="url(#p67c629e18a)" style="fill: none; stroke: #d62728; stroke-width: 3; stroke-linecap: square"/>
   </g>
   <g id="line2d_23">
    <path d="M 141.657955 262.02246 
L 146.951481 262.022683 
L 152.245007 262.022928 
L 157.538533 262.023001 
L 162.832059 262.02286 
L 168.125585 262.02259 
L 173.419112 262.022707 
L 178.712638 262.022879 
L 184.006164 262.022903 
L 189.29969 262.022915 
L 194.593216 262.022764 
L 199.886742 262.022732 
L 205.180269 262.022852 
L 210.473795 262.02283 
L 215.767321 262.022818 
L 221.060847 262.022786 
L 226.354373 262.022757 
L 231.647899 262.022898 
L 236.941426 262.022788 
L 242.234952 262.022325 
L 247.528478 262.02209 
L 252.822004 262.022607 
L 258.11553 262.022973 
L 263.409056 262.022572 
L 268.702583 262.021934 
L 273.996109 262.022003 
L 279.289635 262.022482 
L 284.583161 262.02259 
L 289.876687 262.022405 
L 295.170213 262.022559 
L 300.46374 262.022505 
L 305.757266 262.022085 
L 311.050792 262.022113 
L 316.344318 262.022698 
L 321.637844 262.023009 
L 326.931371 262.022644 
L 332.224897 262.022018 
L 337.518423 262.022049 
L 342.811949 262.022736 
L 348.105475 262.023038 
L 353.399001 262.022619 
L 358.692528 262.022187 
L 363.986054 262.022225 
L 369.27958 262.022582 
L 374.573106 262.022836 
L 379.866632 262.022569 
L 385.160158 262.022366 
L 390.453685 262.022442 
L 395.747211 262.022479 
L 401.040737 262.022522 
L 406.334263 262.022468 
L 411.627789 262.022467 
L 416.921315 262.022597 
L 422.214842 262.02249 
L 427.508368 262.022244 
L 432.801894 262.022222 
L 438.09542 262.022445 
L 443.388946 262.022665 
L 448.682472 262.022569 
L 453.975999 262.022156 
L 459.269525 262.021896 
L 464.563051 262.022169 
L 469.856577 262.022574 
L 475.150103 262.022644 
L 480.443629 262.022299 
L 485.737156 262.021833 
L 491.030682 262.021727 
L 496.324208 262.022065 
L 501.617734 262.022401 
L 506.91126 262.022407 
L 512.204787 262.022143 
L 517.498313 262.021917 
L 522.791839 262.021874 
L 528.085365 262.021908 
L 533.378891 262.021887 
L 538.672417 262.021767 
L 543.965944 262.021651 
L 549.25947 262.021695 
L 554.552996 262.021854 
L 559.846522 262.02202 
L 565.140048 262.022143 
L 570.433574 262.02226 
L 575.727101 262.02248 
L 581.020627 262.02276 
L 586.314153 262.022847 
L 591.607679 262.022562 
L 596.901205 262.022099 
L 602.194731 262.022024 
L 607.488258 262.022488 
L 612.781784 262.023034 
L 618.07531 262.023274 
L 623.368836 262.022986 
L 628.662362 262.022344 
L 633.955888 262.022103 
L 639.249415 262.022646 
L 644.542941 262.023219 
L 649.836467 262.023316 
L 655.129993 262.022881 
L 660.423519 262.022235 
L 665.717045 262.022163 
" clip-path="url(#p67c629e18a)" style="fill: none; stroke-dasharray: 11.1,4.8; stroke-dashoffset: 0; stroke: #000000; stroke-width: 3"/>
   </g>
   <g id="patch_3">
    <path d="M 115.455 419.46 
L 115.455 58.32 
" style="fill: none; stroke: #000000; stroke-width: 2; stroke-linejoin: miter; stroke-linecap: square"/>
   </g>
   <g id="patch_4">
    <path d="M 691.92 419.46 
L 691.92 58.32 
" style="fill: none; stroke: #000000; stroke-width: 2; stroke-linejoin: miter; stroke-linecap: square"/>
   </g>
   <g id="patch_5">
    <path d="M 115.455 419.46 
L 691.92 419.46 
" style="fill: none; stroke: #000000; stroke-width: 2; stroke-linejoin: miter; stroke-linecap: square"/>
   </g>
   <g id="patch_6">
    <path d="M 115.455 58.32 
L 691.92 58.32 
" style="fill: none; stroke: #000000; stroke-width: 2; stroke-linejoin: miter; stroke-linecap: square"/>
   </g>
   <g id="text_12">
    <!-- Energy Components vs. Time -->
    <g transform="translate(171.58875 51.38775) scale(0.312 -0.312)">
     <defs>
      <path id="DejaVuSerif-76" d="M 1581 0 
L 359 2988 
L -19 2988 
L -19 3322 
L 1509 3322 
L 1509 2988 
L 978 2988 
L 1913 703 
L 2847 2988 
L 2350 2988 
L 2350 3322 
L 3597 3322 
L 3597 2988 
L 3225 2988 
L 2003 0 
L 1581 0 
z
" transform="scale(0.015625)"/>
     </defs>
     <use xlink:href="#DejaVuSerif-45"/>
     <use xlink:href="#DejaVuSerif-6e" x="72.998047"/>
     <use xlink:href="#DejaVuSerif-65" x="137.402344"/>
     <use xlink:href="#DejaVuSerif-72" x="196.582031"/>
     <use xlink:href="#DejaVuSerif-67" x="244.384766"/>
     <use xlink:href="#DejaVuSerif-79" x="308.398438"/>
     <use xlink:href="#DejaVuSerif-20" x="364.892578"/>
     <use xlink:href="#DejaVuSerif-43" x="396.679688"/>
     <use xlink:href="#DejaVuSerif-6f" x="473.193359"/>
     <use xlink:href="#DejaVuSerif-6d" x="533.398438"/>
     <use xlink:href="#DejaVuSerif-70" x="628.222656"/>
     <use xlink:href="#DejaVuSerif-6f" x="692.236328"/>
     <use xlink:href="#DejaVuSerif-6e" x="752.441406"/>
     <use xlink:href="#DejaVuSerif-65" x="816.845703"/>
     <use xlink:href="#DejaVuSerif-6e" x="876.025391"/>
     <use xlink:href="#DejaVuSerif-74" x="940.429688"/>
     <use xlink:href="#DejaVuSerif-73" x="980.615234"/>
     <use xlink:href="#DejaVuSerif-20" x="1031.933594"/>
     <use xlink:href="#DejaVuSerif-76" x="1063.720703"/>
     <use xlink:href="#DejaVuSerif-73" x="1120.214844"/>
     <use xlink:href="#DejaVuSerif-2e" x="1171.533203"/>
     <use xlink:href="#DejaVuSerif-20" x="1203.320312"/>
     <use xlink:href="#DejaVuSerif-54" x="1235.107422"/>
     <use xlink:href="#DejaVuSerif-69" x="1301.806641"/>
     <use xlink:href="#DejaVuSerif-6d" x="1333.789062"/>
     <use xlink:href="#DejaVuSerif-65" x="1428.613281"/>
    </g>
   </g>
   <g id="legend_1">
    <g id="patch_7">
     <path d="M 129.455 315.422813 
L 345.526875 315.422813 
Q 349.526875 315.422813 349.526875 311.422813 
L 349.526875 166.357188 
Q 349.526875 162.357188 345.526875 162.357188 
L 129.455 162.357188 
Q 125.455 162.357188 125.455 166.357188 
L 125.455 311.422813 
Q 125.455 315.422813 129.455 315.422813 
z
" style="fill: #ffffff; opacity: 0.8; stroke: #cccccc; stroke-linejoin: miter"/>
    </g>
    <g id="line2d_24">
     <path d="M 133.455 178.554063 
L 153.455 178.554063 
L 173.455 178.554063 
" style="fill: none; stroke: #1f77b4; stroke-width: 3; stroke-linecap: square"/>
    </g>
    <g id="text_13">
     <!-- Kinetic E -->
     <g transform="translate(189.455 185.554063) scale(0.2 -0.2)">
      <defs>
       <path id="DejaVuSerif-4b" d="M 353 0 
L 353 331 
L 947 331 
L 947 4331 
L 353 4331 
L 353 4666 
L 2175 4666 
L 2175 4331 
L 1581 4331 
L 1581 2566 
L 3591 4331 
L 3084 4331 
L 3084 4666 
L 4634 4666 
L 4634 4331 
L 4109 4331 
L 2106 2572 
L 4347 331 
L 4878 331 
L 4878 0 
L 3794 0 
L 1581 2216 
L 1581 331 
L 2175 331 
L 2175 0 
L 353 0 
z
" transform="scale(0.015625)"/>
       <path id="DejaVuSerif-63" d="M 3291 997 
Q 3169 466 2822 187 
Q 2475 -91 1925 -91 
Q 1200 -91 759 389 
Q 319 869 319 1663 
Q 319 2459 759 2936 
Q 1200 3413 1925 3413 
Q 2241 3413 2553 3339 
Q 2866 3266 3181 3116 
L 3181 2266 
L 2847 2266 
Q 2781 2703 2561 2903 
Q 2341 3103 1931 3103 
Q 1466 3103 1228 2742 
Q 991 2381 991 1663 
Q 991 944 1227 581 
Q 1463 219 1931 219 
Q 2303 219 2525 412 
Q 2747 606 2828 997 
L 3291 997 
z
" transform="scale(0.015625)"/>
      </defs>
      <use xlink:href="#DejaVuSerif-4b"/>
      <use xlink:href="#DejaVuSerif-69" x="74.707031"/>
      <use xlink:href="#DejaVuSerif-6e" x="106.689453"/>
      <use xlink:href="#DejaVuSerif-65" x="171.09375"/>
      <use xlink:href="#DejaVuSerif-74" x="230.273438"/>
      <use xlink:href="#DejaVuSerif-69" x="270.458984"/>
      <use xlink:href="#DejaVuSerif-63" x="302.441406"/>
      <use xlink:href="#DejaVuSerif-20" x="358.447266"/>
      <use xlink:href="#DejaVuSerif-45" x="390.234375"/>
     </g>
    </g>
    <g id="line2d_25">
     <path d="M 133.455 207.910313 
L 153.455 207.910313 
L 173.455 207.910313 
" style="fill: none; stroke: #ff7f0e; stroke-width: 3; stroke-linecap: square"/>
    </g>
    <g id="text_14">
     <!-- PE e-N -->
     <g transform="translate(189.455 214.910313) scale(0.2 -0.2)">
      <defs>
       <path id="DejaVuSerif-50" d="M 1581 2375 
L 2406 2375 
Q 2872 2375 3115 2626 
Q 3359 2878 3359 3353 
Q 3359 3831 3115 4081 
Q 2872 4331 2406 4331 
L 1581 4331 
L 1581 2375 
z
M 353 0 
L 353 331 
L 947 331 
L 947 4331 
L 353 4331 
L 353 4666 
L 2559 4666 
Q 3259 4666 3668 4311 
Q 4078 3956 4078 3353 
Q 4078 2753 3668 2397 
Q 3259 2041 2559 2041 
L 1581 2041 
L 1581 331 
L 2303 331 
L 2303 0 
L 353 0 
z
" transform="scale(0.015625)"/>
       <path id="DejaVuSerif-2d" d="M 281 1959 
L 1881 1959 
L 1881 1472 
L 281 1472 
L 281 1959 
z
" transform="scale(0.015625)"/>
       <path id="DejaVuSerif-4e" d="M 313 0 
L 313 331 
L 941 331 
L 941 4331 
L 313 4331 
L 313 4666 
L 1509 4666 
L 4306 984 
L 4306 4331 
L 3681 4331 
L 3681 4666 
L 5319 4666 
L 5319 4331 
L 4691 4331 
L 4691 -91 
L 4313 -91 
L 1325 3841 
L 1325 331 
L 1953 331 
L 1953 0 
L 313 0 
z
" transform="scale(0.015625)"/>
      </defs>
      <use xlink:href="#DejaVuSerif-50"/>
      <use xlink:href="#DejaVuSerif-45" x="67.285156"/>
      <use xlink:href="#DejaVuSerif-20" x="140.283203"/>
      <use xlink:href="#DejaVuSerif-65" x="172.070312"/>
      <use xlink:href="#DejaVuSerif-2d" x="231.25"/>
      <use xlink:href="#DejaVuSerif-4e" x="265.039062"/>
     </g>
    </g>
    <g id="line2d_26">
     <path d="M 133.455 237.266563 
L 153.455 237.266563 
L 173.455 237.266563 
" style="fill: none; stroke: #2ca02c; stroke-width: 3; stroke-linecap: square"/>
    </g>
    <g id="text_15">
     <!-- PE e-e -->
     <g transform="translate(189.455 244.266563) scale(0.2 -0.2)">
      <use xlink:href="#DejaVuSerif-50"/>
      <use xlink:href="#DejaVuSerif-45" x="67.285156"/>
      <use xlink:href="#DejaVuSerif-20" x="140.283203"/>
      <use xlink:href="#DejaVuSerif-65" x="172.070312"/>
      <use xlink:href="#DejaVuSerif-2d" x="231.25"/>
      <use xlink:href="#DejaVuSerif-65" x="265.039062"/>
     </g>
    </g>
    <g id="line2d_27">
     <path d="M 133.455 266.622813 
L 153.455 266.622813 
L 173.455 266.622813 
" style="fill: none; stroke: #d62728; stroke-width: 3; stroke-linecap: square"/>
    </g>
    <g id="text_16">
     <!-- PE Heisenberg -->
     <g transform="translate(189.455 273.622813) scale(0.2 -0.2)">
      <defs>
       <path id="DejaVuSerif-48" d="M 353 0 
L 353 331 
L 947 331 
L 947 4331 
L 353 4331 
L 353 4666 
L 2175 4666 
L 2175 4331 
L 1581 4331 
L 1581 2719 
L 4000 2719 
L 4000 4331 
L 3406 4331 
L 3406 4666 
L 5228 4666 
L 5228 4331 
L 4634 4331 
L 4634 331 
L 5228 331 
L 5228 0 
L 3406 0 
L 3406 331 
L 4000 331 
L 4000 2338 
L 1581 2338 
L 1581 331 
L 2175 331 
L 2175 0 
L 353 0 
z
" transform="scale(0.015625)"/>
       <path id="DejaVuSerif-62" d="M 738 331 
L 738 4531 
L 184 4531 
L 184 4863 
L 1313 4863 
L 1313 2803 
Q 1481 3116 1742 3264 
Q 2003 3413 2388 3413 
Q 3000 3413 3387 2928 
Q 3775 2444 3775 1663 
Q 3775 881 3387 395 
Q 3000 -91 2388 -91 
Q 2003 -91 1742 57 
Q 1481 206 1313 519 
L 1313 0 
L 184 0 
L 184 331 
L 738 331 
z
M 1313 1497 
Q 1313 897 1542 583 
Q 1772 269 2209 269 
Q 2650 269 2876 622 
Q 3103 975 3103 1663 
Q 3103 2353 2876 2703 
Q 2650 3053 2209 3053 
Q 1772 3053 1542 2737 
Q 1313 2422 1313 1825 
L 1313 1497 
z
" transform="scale(0.015625)"/>
      </defs>
      <use xlink:href="#DejaVuSerif-50"/>
      <use xlink:href="#DejaVuSerif-45" x="67.285156"/>
      <use xlink:href="#DejaVuSerif-20" x="140.283203"/>
      <use xlink:href="#DejaVuSerif-48" x="172.070312"/>
      <use xlink:href="#DejaVuSerif-65" x="259.277344"/>
      <use xlink:href="#DejaVuSerif-69" x="318.457031"/>
      <use xlink:href="#DejaVuSerif-73" x="350.439453"/>
      <use xlink:href="#DejaVuSerif-65" x="401.757812"/>
      <use xlink:href="#DejaVuSerif-6e" x="460.9375"/>
      <use xlink:href="#DejaVuSerif-62" x="525.341797"/>
      <use xlink:href="#DejaVuSerif-65" x="589.355469"/>
      <use xlink:href="#DejaVuSerif-72" x="648.535156"/>
      <use xlink:href="#DejaVuSerif-67" x="696.337891"/>
     </g>
    </g>
    <g id="line2d_28">
     <path d="M 133.455 296.263438 
L 153.455 296.263438 
L 173.455 296.263438 
" style="fill: none; stroke-dasharray: 11.1,4.8; stroke-dashoffset: 0; stroke: #000000; stroke-width: 3"/>
    </g>
    <g id="text_17">
     <!-- Total E -->
     <g transform="translate(189.455 303.263438) scale(0.2 -0.2)">
      <defs>
       <path id="DejaVuSerif-6c" d="M 1313 331 
L 1856 331 
L 1856 0 
L 184 0 
L 184 331 
L 738 331 
L 738 4531 
L 184 4531 
L 184 4863 
L 1313 4863 
L 1313 331 
z
" transform="scale(0.015625)"/>
      </defs>
      <use xlink:href="#DejaVuSerif-54"/>
      <use xlink:href="#DejaVuSerif-6f" x="58.949219"/>
      <use xlink:href="#DejaVuSerif-74" x="119.154297"/>
      <use xlink:href="#DejaVuSerif-61" x="159.339844"/>
      <use xlink:href="#DejaVuSerif-6c" x="218.958984"/>
      <use xlink:href="#DejaVuSerif-20" x="250.941406"/>
      <use xlink:href="#DejaVuSerif-45" x="282.728516"/>
     </g>
    </g>
   </g>
  </g>
 </g>
 <defs>
  <clipPath id="p67c629e18a">
   <rect x="115.455" y="58.32" width="576.465" height="361.14"/>
  </clipPath>
 </defs>
</svg>
