<?xml version="1.0" encoding="utf-8" standalone="no"?>
<!DOCTYPE svg PUBLIC "-//W3C//DTD SVG 1.1//EN"
  "http://www.w3.org/Graphics/SVG/1.1/DTD/svg11.dtd">
<svg xmlns:xlink="http://www.w3.org/1999/xlink" width="864pt" height="432pt" viewBox="0 0 864 432" xmlns="http://www.w3.org/2000/svg" version="1.1">
 <metadata>
  <rdf:RDF xmlns:dc="http://purl.org/dc/elements/1.1/" xmlns:cc="http://creativecommons.org/ns#" xmlns:rdf="http://www.w3.org/1999/02/22-rdf-syntax-ns#">
   <cc:Work>
    <dc:type rdf:resource="http://purl.org/dc/dcmitype/StillImage"/>
    <dc:date>2025-06-01T11:13:33.322648</dc:date>
    <dc:format>image/svg+xml</dc:format>
    <dc:creator>
     <cc:Agent>
      <dc:title>Matplotlib v3.7.2, https://matplotlib.org/</dc:title>
     </cc:Agent>
    </dc:creator>
   </cc:Work>
  </rdf:RDF>
 </metadata>
 <defs>
  <style type="text/css">*{stroke-linejoin: round; stroke-linecap: butt}</style>
 </defs>
 <g id="figure_1">
  <g id="patch_1">
   <path d="M 0 432 
L 864 432 
L 864 0 
L 0 0 
z
" style="fill: #ffffff"/>
  </g>
  <g id="axes_1">
   <g id="patch_2">
    <path d="M 98.805 347.46 
L 390.459317 347.46 
L 390.459317 81.12 
L 98.805 81.12 
z
" style="fill: #ffffff"/>
   </g>
   <g id="matplotlib.axis_1">
    <g id="xtick_1">
     <g id="line2d_1">
      <path d="M 112.062014 347.46 
L 112.062014 81.12 
" clip-path="url(#p109588b50e)" style="fill: none; stroke-dasharray: 3.7,1.6; stroke-dashoffset: 0; stroke: #b0b0b0"/>
     </g>
     <g id="line2d_2">
      <defs>
       <path id="m8b0ef5b889" d="M 0 0 
L 0 -10 
" style="stroke: #000000; stroke-width: 2"/>
      </defs>
      <g>
       <use xlink:href="#m8b0ef5b889" x="112.062014" y="347.46" style="stroke: #000000; stroke-width: 2"/>
      </g>
     </g>
     <g id="text_1">
      <!-- 0 -->
      <g transform="translate(103.790764 370.715937) scale(0.26 -0.26)">
       <defs>
        <path id="DejaVuSerif-30" d="M 2034 219 
Q 2513 219 2750 744 
Q 2988 1269 2988 2328 
Q 2988 3391 2750 3916 
Q 2513 4441 2034 4441 
Q 1556 4441 1318 3916 
Q 1081 3391 1081 2328 
Q 1081 1269 1318 744 
Q 1556 219 2034 219 
z
M 2034 -91 
Q 1275 -91 848 546 
Q 422 1184 422 2328 
Q 422 3475 848 4112 
Q 1275 4750 2034 4750 
Q 2797 4750 3222 4112 
Q 3647 3475 3647 2328 
Q 3647 1184 3222 546 
Q 2797 -91 2034 -91 
z
" transform="scale(0.015625)"/>
       </defs>
       <use xlink:href="#DejaVuSerif-30"/>
      </g>
     </g>
    </g>
    <g id="xtick_2">
     <g id="line2d_3">
      <path d="M 218.118129 347.46 
L 218.118129 81.12 
" clip-path="url(#p109588b50e)" style="fill: none; stroke-dasharray: 3.7,1.6; stroke-dashoffset: 0; stroke: #b0b0b0"/>
     </g>
     <g id="line2d_4">
      <g>
       <use xlink:href="#m8b0ef5b889" x="218.118129" y="347.46" style="stroke: #000000; stroke-width: 2"/>
      </g>
     </g>
     <g id="text_2">
      <!-- 2 -->
      <g transform="translate(209.846879 370.715937) scale(0.26 -0.26)">
       <defs>
        <path id="DejaVuSerif-32" d="M 819 3553 
L 469 3553 
L 469 4384 
Q 803 4563 1142 4656 
Q 1481 4750 1806 4750 
Q 2534 4750 2956 4397 
Q 3378 4044 3378 3438 
Q 3378 2753 2422 1800 
Q 2347 1728 2309 1691 
L 1131 513 
L 3078 513 
L 3078 1088 
L 3444 1088 
L 3444 0 
L 434 0 
L 434 341 
L 1850 1753 
Q 2319 2222 2519 2614 
Q 2719 3006 2719 3438 
Q 2719 3909 2473 4175 
Q 2228 4441 1797 4441 
Q 1350 4441 1106 4219 
Q 863 3997 819 3553 
z
" transform="scale(0.015625)"/>
       </defs>
       <use xlink:href="#DejaVuSerif-32"/>
      </g>
     </g>
    </g>
    <g id="xtick_3">
     <g id="line2d_5">
      <path d="M 324.174245 347.46 
L 324.174245 81.12 
" clip-path="url(#p109588b50e)" style="fill: none; stroke-dasharray: 3.7,1.6; stroke-dashoffset: 0; stroke: #b0b0b0"/>
     </g>
     <g id="line2d_6">
      <g>
       <use xlink:href="#m8b0ef5b889" x="324.174245" y="347.46" style="stroke: #000000; stroke-width: 2"/>
      </g>
     </g>
     <g id="text_3">
      <!-- 4 -->
      <g transform="translate(315.902995 370.715937) scale(0.26 -0.26)">
       <defs>
        <path id="DejaVuSerif-34" d="M 2234 1581 
L 2234 4063 
L 641 1581 
L 2234 1581 
z
M 3609 0 
L 1484 0 
L 1484 331 
L 2234 331 
L 2234 1247 
L 197 1247 
L 197 1588 
L 2241 4750 
L 2859 4750 
L 2859 1581 
L 3750 1581 
L 3750 1247 
L 2859 1247 
L 2859 331 
L 3609 331 
L 3609 0 
z
" transform="scale(0.015625)"/>
       </defs>
       <use xlink:href="#DejaVuSerif-34"/>
      </g>
     </g>
    </g>
    <g id="text_4">
     <!-- Time (a.u.) -->
     <g transform="translate(173.11794 399.879062) scale(0.26 -0.26)">
      <defs>
       <path id="DejaVuSerif-54" d="M 1222 0 
L 1222 331 
L 1819 331 
L 1819 4294 
L 447 4294 
L 447 3566 
L 63 3566 
L 63 4666 
L 4206 4666 
L 4206 3566 
L 3822 3566 
L 3822 4294 
L 2450 4294 
L 2450 331 
L 3047 331 
L 3047 0 
L 1222 0 
z
" transform="scale(0.015625)"/>
       <path id="DejaVuSerif-69" d="M 622 4353 
Q 622 4497 726 4603 
Q 831 4709 978 4709 
Q 1122 4709 1226 4603 
Q 1331 4497 1331 4353 
Q 1331 4206 1228 4103 
Q 1125 4000 978 4000 
Q 831 4000 726 4103 
Q 622 4206 622 4353 
z
M 1356 331 
L 1900 331 
L 1900 0 
L 231 0 
L 231 331 
L 781 331 
L 781 2988 
L 231 2988 
L 231 3322 
L 1356 3322 
L 1356 331 
z
" transform="scale(0.015625)"/>
       <path id="DejaVuSerif-6d" d="M 3316 2675 
Q 3481 3041 3739 3227 
Q 3997 3413 4341 3413 
Q 4863 3413 5119 3089 
Q 5375 2766 5375 2113 
L 5375 331 
L 5894 331 
L 5894 0 
L 4300 0 
L 4300 331 
L 4800 331 
L 4800 2047 
Q 4800 2556 4650 2772 
Q 4500 2988 4153 2988 
Q 3769 2988 3567 2697 
Q 3366 2406 3366 1850 
L 3366 331 
L 3866 331 
L 3866 0 
L 2291 0 
L 2291 331 
L 2791 331 
L 2791 2069 
Q 2791 2566 2641 2777 
Q 2491 2988 2144 2988 
Q 1759 2988 1557 2697 
Q 1356 2406 1356 1850 
L 1356 331 
L 1856 331 
L 1856 0 
L 263 0 
L 263 331 
L 781 331 
L 781 2994 
L 231 2994 
L 231 3322 
L 1356 3322 
L 1356 2731 
Q 1516 3063 1762 3238 
Q 2009 3413 2322 3413 
Q 2709 3413 2968 3220 
Q 3228 3028 3316 2675 
z
" transform="scale(0.015625)"/>
       <path id="DejaVuSerif-65" d="M 3469 1600 
L 991 1600 
L 991 1575 
Q 991 903 1244 561 
Q 1497 219 1991 219 
Q 2369 219 2611 417 
Q 2853 616 2950 1006 
L 3413 1006 
Q 3275 459 2904 184 
Q 2534 -91 1931 -91 
Q 1203 -91 761 389 
Q 319 869 319 1663 
Q 319 2450 753 2931 
Q 1188 3413 1894 3413 
Q 2647 3413 3050 2948 
Q 3453 2484 3469 1600 
z
M 2791 1931 
Q 2772 2513 2545 2808 
Q 2319 3103 1894 3103 
Q 1497 3103 1269 2806 
Q 1041 2509 991 1931 
L 2791 1931 
z
" transform="scale(0.015625)"/>
       <path id="DejaVuSerif-20" transform="scale(0.015625)"/>
       <path id="DejaVuSerif-28" d="M 2041 -997 
Q 1281 -656 893 83 
Q 506 822 506 1931 
Q 506 3044 893 3783 
Q 1281 4522 2041 4863 
L 2041 4556 
Q 1559 4225 1350 3623 
Q 1141 3022 1141 1931 
Q 1141 844 1350 242 
Q 1559 -359 2041 -691 
L 2041 -997 
z
" transform="scale(0.015625)"/>
       <path id="DejaVuSerif-61" d="M 2547 1044 
L 2547 1747 
L 1806 1747 
Q 1378 1747 1168 1562 
Q 959 1378 959 997 
Q 959 650 1171 447 
Q 1384 244 1747 244 
Q 2106 244 2326 466 
Q 2547 688 2547 1044 
z
M 3122 2075 
L 3122 331 
L 3634 331 
L 3634 0 
L 2547 0 
L 2547 359 
Q 2356 128 2106 18 
Q 1856 -91 1522 -91 
Q 969 -91 644 203 
Q 319 497 319 997 
Q 319 1513 691 1797 
Q 1063 2081 1741 2081 
L 2547 2081 
L 2547 2309 
Q 2547 2688 2317 2895 
Q 2088 3103 1672 3103 
Q 1328 3103 1125 2947 
Q 922 2791 872 2484 
L 575 2484 
L 575 3156 
Q 875 3284 1158 3348 
Q 1441 3413 1709 3413 
Q 2400 3413 2761 3070 
Q 3122 2728 3122 2075 
z
" transform="scale(0.015625)"/>
       <path id="DejaVuSerif-2e" d="M 603 325 
Q 603 500 722 622 
Q 841 744 1019 744 
Q 1191 744 1312 622 
Q 1434 500 1434 325 
Q 1434 153 1312 31 
Q 1191 -91 1019 -91 
Q 841 -91 722 29 
Q 603 150 603 325 
z
" transform="scale(0.015625)"/>
       <path id="DejaVuSerif-75" d="M 2266 3322 
L 3341 3322 
L 3341 331 
L 3884 331 
L 3884 0 
L 2766 0 
L 2766 588 
Q 2606 256 2353 82 
Q 2100 -91 1766 -91 
Q 1213 -91 952 223 
Q 691 538 691 1209 
L 691 2988 
L 172 2988 
L 172 3322 
L 1269 3322 
L 1269 1388 
Q 1269 781 1417 556 
Q 1566 331 1947 331 
Q 2347 331 2556 625 
Q 2766 919 2766 1478 
L 2766 2988 
L 2266 2988 
L 2266 3322 
z
" transform="scale(0.015625)"/>
       <path id="DejaVuSerif-29" d="M 453 -997 
L 453 -691 
Q 934 -359 1145 242 
Q 1356 844 1356 1931 
Q 1356 3022 1145 3623 
Q 934 4225 453 4556 
L 453 4863 
Q 1216 4522 1603 3783 
Q 1991 3044 1991 1931 
Q 1991 822 1603 83 
Q 1216 -656 453 -997 
z
" transform="scale(0.015625)"/>
      </defs>
      <use xlink:href="#DejaVuSerif-54"/>
      <use xlink:href="#DejaVuSerif-69" x="66.699219"/>
      <use xlink:href="#DejaVuSerif-6d" x="98.681641"/>
      <use xlink:href="#DejaVuSerif-65" x="193.505859"/>
      <use xlink:href="#DejaVuSerif-20" x="252.685547"/>
      <use xlink:href="#DejaVuSerif-28" x="284.472656"/>
      <use xlink:href="#DejaVuSerif-61" x="323.486328"/>
      <use xlink:href="#DejaVuSerif-2e" x="383.105469"/>
      <use xlink:href="#DejaVuSerif-75" x="414.892578"/>
      <use xlink:href="#DejaVuSerif-2e" x="479.296875"/>
      <use xlink:href="#DejaVuSerif-29" x="511.083984"/>
     </g>
    </g>
   </g>
   <g id="matplotlib.axis_2">
    <g id="ytick_1">
     <g id="line2d_7">
      <path d="M 98.805 307.672464 
L 390.459317 307.672464 
" clip-path="url(#p109588b50e)" style="fill: none; stroke-dasharray: 3.7,1.6; stroke-dashoffset: 0; stroke: #b0b0b0"/>
     </g>
     <g id="line2d_8">
      <defs>
       <path id="m4b2bb0cb32" d="M 0 0 
L 10 0 
" style="stroke: #000000; stroke-width: 2"/>
      </defs>
      <g>
       <use xlink:href="#m4b2bb0cb32" x="98.805" y="307.672464" style="stroke: #000000; stroke-width: 2"/>
      </g>
     </g>
     <g id="text_5">
      <!-- −6 -->
      <g transform="translate(56.975313 317.550433) scale(0.26 -0.26)">
       <defs>
        <path id="DejaVuSerif-2212" d="M 678 2259 
L 4684 2259 
L 4684 1753 
L 678 1753 
L 678 2259 
z
" transform="scale(0.015625)"/>
        <path id="DejaVuSerif-36" d="M 2094 219 
Q 2534 219 2771 542 
Q 3009 866 3009 1472 
Q 3009 2078 2771 2401 
Q 2534 2725 2094 2725 
Q 1647 2725 1412 2412 
Q 1178 2100 1178 1509 
Q 1178 888 1415 553 
Q 1653 219 2094 219 
z
M 1075 2569 
Q 1288 2803 1556 2918 
Q 1825 3034 2163 3034 
Q 2859 3034 3264 2615 
Q 3669 2197 3669 1472 
Q 3669 763 3233 336 
Q 2797 -91 2069 -91 
Q 1278 -91 853 498 
Q 428 1088 428 2181 
Q 428 3406 931 4078 
Q 1434 4750 2350 4750 
Q 2597 4750 2869 4703 
Q 3141 4656 3425 4563 
L 3425 3794 
L 3072 3794 
Q 3034 4109 2831 4275 
Q 2628 4441 2284 4441 
Q 1678 4441 1381 3981 
Q 1084 3522 1075 2569 
z
" transform="scale(0.015625)"/>
       </defs>
       <use xlink:href="#DejaVuSerif-2212"/>
       <use xlink:href="#DejaVuSerif-36" x="83.789062"/>
      </g>
     </g>
    </g>
    <g id="ytick_2">
     <g id="line2d_9">
      <path d="M 98.805 249.899388 
L 390.459317 249.899388 
" clip-path="url(#p109588b50e)" style="fill: none; stroke-dasharray: 3.7,1.6; stroke-dashoffset: 0; stroke: #b0b0b0"/>
     </g>
     <g id="line2d_10">
      <g>
       <use xlink:href="#m4b2bb0cb32" x="98.805" y="249.899388" style="stroke: #000000; stroke-width: 2"/>
      </g>
     </g>
     <g id="text_6">
      <!-- −4 -->
      <g transform="translate(56.975313 259.777356) scale(0.26 -0.26)">
       <use xlink:href="#DejaVuSerif-2212"/>
       <use xlink:href="#DejaVuSerif-34" x="83.789062"/>
      </g>
     </g>
    </g>
    <g id="ytick_3">
     <g id="line2d_11">
      <path d="M 98.805 192.126311 
L 390.459317 192.126311 
" clip-path="url(#p109588b50e)" style="fill: none; stroke-dasharray: 3.7,1.6; stroke-dashoffset: 0; stroke: #b0b0b0"/>
     </g>
     <g id="line2d_12">
      <g>
       <use xlink:href="#m4b2bb0cb32" x="98.805" y="192.126311" style="stroke: #000000; stroke-width: 2"/>
      </g>
     </g>
     <g id="text_7">
      <!-- −2 -->
      <g transform="translate(56.975313 202.00428) scale(0.26 -0.26)">
       <use xlink:href="#DejaVuSerif-2212"/>
       <use xlink:href="#DejaVuSerif-32" x="83.789062"/>
      </g>
     </g>
    </g>
    <g id="ytick_4">
     <g id="line2d_13">
      <path d="M 98.805 134.353235 
L 390.459317 134.353235 
" clip-path="url(#p109588b50e)" style="fill: none; stroke-dasharray: 3.7,1.6; stroke-dashoffset: 0; stroke: #b0b0b0"/>
     </g>
     <g id="line2d_14">
      <g>
       <use xlink:href="#m4b2bb0cb32" x="98.805" y="134.353235" style="stroke: #000000; stroke-width: 2"/>
      </g>
     </g>
     <g id="text_8">
      <!-- 0 -->
      <g transform="translate(78.7625 144.231204) scale(0.26 -0.26)">
       <use xlink:href="#DejaVuSerif-30"/>
      </g>
     </g>
    </g>
    <g id="text_9">
     <!-- Energy (a.u.) -->
     <g transform="translate(47.198438 300.390625) rotate(-90) scale(0.26 -0.26)">
      <defs>
       <path id="DejaVuSerif-45" d="M 353 0 
L 353 331 
L 947 331 
L 947 4331 
L 353 4331 
L 353 4666 
L 4109 4666 
L 4109 3628 
L 3725 3628 
L 3725 4281 
L 1581 4281 
L 1581 2719 
L 3109 2719 
L 3109 3303 
L 3494 3303 
L 3494 1753 
L 3109 1753 
L 3109 2338 
L 1581 2338 
L 1581 384 
L 3775 384 
L 3775 1038 
L 4159 1038 
L 4159 0 
L 353 0 
z
" transform="scale(0.015625)"/>
       <path id="DejaVuSerif-6e" d="M 263 0 
L 263 331 
L 781 331 
L 781 2988 
L 231 2988 
L 231 3322 
L 1356 3322 
L 1356 2731 
Q 1516 3069 1770 3241 
Q 2025 3413 2363 3413 
Q 2913 3413 3172 3097 
Q 3431 2781 3431 2113 
L 3431 331 
L 3944 331 
L 3944 0 
L 2356 0 
L 2356 331 
L 2853 331 
L 2853 1931 
Q 2853 2541 2703 2767 
Q 2553 2994 2175 2994 
Q 1775 2994 1565 2701 
Q 1356 2409 1356 1850 
L 1356 331 
L 1856 331 
L 1856 0 
L 263 0 
z
" transform="scale(0.015625)"/>
       <path id="DejaVuSerif-72" d="M 3059 3328 
L 3059 2497 
L 2728 2497 
Q 2713 2744 2591 2866 
Q 2469 2988 2234 2988 
Q 1809 2988 1582 2694 
Q 1356 2400 1356 1850 
L 1356 331 
L 2022 331 
L 2022 0 
L 263 0 
L 263 331 
L 781 331 
L 781 2994 
L 231 2994 
L 231 3322 
L 1356 3322 
L 1356 2731 
Q 1525 3078 1790 3245 
Q 2056 3413 2438 3413 
Q 2578 3413 2733 3391 
Q 2888 3369 3059 3328 
z
" transform="scale(0.015625)"/>
       <path id="DejaVuSerif-67" d="M 3359 2988 
L 3359 72 
Q 3359 -644 2965 -1033 
Q 2572 -1422 1844 -1422 
Q 1516 -1422 1216 -1362 
Q 916 -1303 641 -1184 
L 641 -488 
L 941 -488 
Q 997 -813 1206 -963 
Q 1416 -1113 1806 -1113 
Q 2313 -1113 2548 -827 
Q 2784 -541 2784 72 
L 2784 519 
Q 2616 206 2355 57 
Q 2094 -91 1709 -91 
Q 1097 -91 708 395 
Q 319 881 319 1663 
Q 319 2444 706 2928 
Q 1094 3413 1709 3413 
Q 2094 3413 2355 3264 
Q 2616 3116 2784 2803 
L 2784 3322 
L 3909 3322 
L 3909 2988 
L 3359 2988 
z
M 2784 1825 
Q 2784 2422 2554 2737 
Q 2325 3053 1888 3053 
Q 1444 3053 1217 2703 
Q 991 2353 991 1663 
Q 991 975 1217 622 
Q 1444 269 1888 269 
Q 2325 269 2554 583 
Q 2784 897 2784 1497 
L 2784 1825 
z
" transform="scale(0.015625)"/>
       <path id="DejaVuSerif-79" d="M 1381 -609 
L 1600 -56 
L 359 2988 
L -19 2988 
L -19 3322 
L 1509 3322 
L 1509 2988 
L 978 2988 
L 1913 703 
L 2847 2988 
L 2350 2988 
L 2350 3322 
L 3597 3322 
L 3597 2988 
L 3225 2988 
L 1703 -750 
Q 1547 -1138 1356 -1280 
Q 1166 -1422 819 -1422 
Q 672 -1422 517 -1397 
Q 363 -1372 206 -1325 
L 206 -691 
L 500 -691 
Q 519 -903 608 -995 
Q 697 -1088 884 -1088 
Q 1056 -1088 1161 -992 
Q 1266 -897 1381 -609 
z
" transform="scale(0.015625)"/>
      </defs>
      <use xlink:href="#DejaVuSerif-45"/>
      <use xlink:href="#DejaVuSerif-6e" x="72.998047"/>
      <use xlink:href="#DejaVuSerif-65" x="137.402344"/>
      <use xlink:href="#DejaVuSerif-72" x="196.582031"/>
      <use xlink:href="#DejaVuSerif-67" x="244.384766"/>
      <use xlink:href="#DejaVuSerif-79" x="308.398438"/>
      <use xlink:href="#DejaVuSerif-20" x="364.892578"/>
      <use xlink:href="#DejaVuSerif-28" x="396.679688"/>
      <use xlink:href="#DejaVuSerif-61" x="435.693359"/>
      <use xlink:href="#DejaVuSerif-2e" x="495.3125"/>
      <use xlink:href="#DejaVuSerif-75" x="527.099609"/>
      <use xlink:href="#DejaVuSerif-2e" x="591.503906"/>
      <use xlink:href="#DejaVuSerif-29" x="623.291016"/>
     </g>
    </g>
    <g id="text_10">
     <!-- 1e−5−7.9963 -->
     <g transform="translate(98.805 78.12) scale(0.26 -0.26)">
      <defs>
       <path id="DejaVuSerif-31" d="M 909 0 
L 909 331 
L 1722 331 
L 1722 4213 
L 781 3603 
L 781 4013 
L 1919 4750 
L 2350 4750 
L 2350 331 
L 3163 331 
L 3163 0 
L 909 0 
z
" transform="scale(0.015625)"/>
       <path id="DejaVuSerif-35" d="M 3219 4666 
L 3219 4153 
L 1081 4153 
L 1081 2816 
Q 1244 2928 1461 2984 
Q 1678 3041 1947 3041 
Q 2703 3041 3140 2622 
Q 3578 2203 3578 1478 
Q 3578 738 3136 323 
Q 2694 -91 1894 -91 
Q 1572 -91 1234 -12 
Q 897 66 544 225 
L 544 1131 
L 897 1131 
Q 925 688 1179 453 
Q 1434 219 1894 219 
Q 2388 219 2653 544 
Q 2919 869 2919 1478 
Q 2919 2084 2655 2407 
Q 2391 2731 1894 2731 
Q 1613 2731 1398 2631 
Q 1184 2531 1019 2322 
L 750 2322 
L 750 4666 
L 3219 4666 
z
" transform="scale(0.015625)"/>
       <path id="DejaVuSerif-37" d="M 3609 4347 
L 1784 0 
L 1319 0 
L 3059 4153 
L 903 4153 
L 903 3578 
L 538 3578 
L 538 4666 
L 3609 4666 
L 3609 4347 
z
" transform="scale(0.015625)"/>
       <path id="DejaVuSerif-39" d="M 2994 2091 
Q 2784 1856 2512 1740 
Q 2241 1625 1900 1625 
Q 1206 1625 804 2044 
Q 403 2463 403 3188 
Q 403 3897 839 4323 
Q 1275 4750 2003 4750 
Q 2794 4750 3217 4161 
Q 3641 3572 3641 2478 
Q 3641 1253 3137 581 
Q 2634 -91 1722 -91 
Q 1475 -91 1203 -44 
Q 931 3 647 97 
L 647 872 
L 997 872 
Q 1038 556 1241 387 
Q 1444 219 1784 219 
Q 2391 219 2687 676 
Q 2984 1134 2994 2091 
z
M 1978 4441 
Q 1534 4441 1298 4117 
Q 1063 3794 1063 3188 
Q 1063 2581 1298 2256 
Q 1534 1931 1978 1931 
Q 2422 1931 2658 2245 
Q 2894 2559 2894 3150 
Q 2894 3772 2656 4106 
Q 2419 4441 1978 4441 
z
" transform="scale(0.015625)"/>
       <path id="DejaVuSerif-33" d="M 622 4469 
Q 988 4606 1323 4678 
Q 1659 4750 1953 4750 
Q 2638 4750 3022 4454 
Q 3406 4159 3406 3634 
Q 3406 3213 3140 2930 
Q 2875 2647 2388 2547 
Q 2963 2466 3280 2130 
Q 3597 1794 3597 1259 
Q 3597 606 3158 257 
Q 2719 -91 1894 -91 
Q 1528 -91 1179 -12 
Q 831 66 488 225 
L 488 1131 
L 838 1131 
Q 869 681 1141 450 
Q 1413 219 1906 219 
Q 2384 219 2661 495 
Q 2938 772 2938 1253 
Q 2938 1803 2653 2086 
Q 2369 2369 1819 2369 
L 1522 2369 
L 1522 2688 
L 1678 2688 
Q 2225 2688 2498 2914 
Q 2772 3141 2772 3597 
Q 2772 4006 2547 4223 
Q 2322 4441 1900 4441 
Q 1478 4441 1245 4241 
Q 1013 4041 972 3647 
L 622 3647 
L 622 4469 
z
" transform="scale(0.015625)"/>
      </defs>
      <use xlink:href="#DejaVuSerif-31"/>
      <use xlink:href="#DejaVuSerif-65" x="63.623047"/>
      <use xlink:href="#DejaVuSerif-2212" x="122.802734"/>
      <use xlink:href="#DejaVuSerif-35" x="206.591797"/>
      <use xlink:href="#DejaVuSerif-2212" x="270.214844"/>
      <use xlink:href="#DejaVuSerif-37" x="354.003906"/>
      <use xlink:href="#DejaVuSerif-2e" x="417.626953"/>
      <use xlink:href="#DejaVuSerif-39" x="449.414062"/>
      <use xlink:href="#DejaVuSerif-39" x="513.037109"/>
      <use xlink:href="#DejaVuSerif-36" x="576.660156"/>
      <use xlink:href="#DejaVuSerif-33" x="640.283203"/>
     </g>
    </g>
   </g>
   <g id="line2d_15">
    <path d="M 112.062014 197.867792 
L 114.740199 137.828185 
L 117.418384 93.548862 
L 120.096569 137.493812 
L 122.774753 190.71186 
L 125.452938 177.202696 
L 128.131123 127.022613 
L 130.809307 126.973637 
L 133.487492 180.384056 
L 136.165677 220.529467 
L 138.843862 208.57906 
L 141.522046 169.714788 
L 144.200231 162.551755 
L 146.878416 198.735079 
L 149.556601 244.264636 
L 152.234785 258.721821 
L 154.91297 240.811599 
L 157.591155 219.50874 
L 160.269339 221.572563 
L 162.947524 242.584564 
L 165.625709 262.100406 
L 168.303894 266.342977 
L 170.982078 261.901528 
L 173.660263 267.26427 
L 176.338448 287.122338 
L 179.016633 299.408564 
L 181.694817 286.902188 
L 184.373002 257.226781 
L 187.051187 234.675025 
L 189.729371 244.307184 
L 192.407556 286.627362 
L 195.085741 328.231845 
L 197.763926 335.353636 
L 200.44211 303.244261 
L 203.120295 256.400145 
L 205.79848 230.965632 
L 208.476664 242.669255 
L 211.154849 271.049313 
L 213.833034 286.514615 
L 216.511219 276.434633 
L 219.189403 251.649854 
L 221.867588 234.989385 
L 224.545773 236.104912 
L 227.223958 237.917157 
L 229.902142 223.042381 
L 232.580327 193.476392 
L 235.258512 165.020188 
L 237.936696 156.465635 
L 240.614881 170.385838 
L 243.293066 183.783951 
L 245.971251 173.378264 
L 248.649435 139.959005 
L 251.32762 105.423319 
L 254.005805 93.226364 
L 256.68399 114.480523 
L 259.362174 150.044379 
L 262.040359 166.595323 
L 264.718544 151.635518 
L 267.396728 119.815239 
L 270.074913 99.080649 
L 272.753098 112.065622 
L 275.431283 156.534525 
L 278.109467 199.061026 
L 280.787652 209.840117 
L 283.465837 186.303559 
L 286.144022 151.044594 
L 288.822206 137.973043 
L 291.500391 163.736435 
L 294.178576 214.521346 
L 296.85676 254.983195 
L 299.534945 258.689437 
L 302.21313 226.923879 
L 304.891315 187.345477 
L 307.569499 174.069331 
L 310.247684 199.854759 
L 312.925869 244.799482 
L 315.604053 276.556158 
L 318.282238 274.049785 
L 320.960423 241.467931 
L 323.638608 205.640558 
L 326.316792 196.82618 
L 328.994977 220.573005 
L 331.673162 254.695652 
L 334.351347 268.207081 
L 337.029531 247.922803 
L 339.707716 205.616581 
L 342.385901 179.588358 
L 345.064085 195.85749 
L 347.74227 236.048736 
L 350.420455 253.58502 
L 353.09864 213.214734 
L 355.776824 138.997803 
L 358.455009 117.861504 
L 361.133194 176.472303 
L 363.811379 228.560855 
L 366.489563 189.498104 
L 369.167748 114.543009 
L 371.845933 110.254838 
L 374.524117 142.266373 
L 377.202302 122.784375 
" clip-path="url(#p109588b50e)" style="fill: none; stroke: #1f77b4; stroke-width: 3; stroke-linecap: square"/>
   </g>
   <g id="patch_3">
    <path d="M 98.805 347.46 
L 98.805 81.12 
" style="fill: none; stroke: #000000; stroke-width: 2; stroke-linejoin: miter; stroke-linecap: square"/>
   </g>
   <g id="patch_4">
    <path d="M 390.459317 347.46 
L 390.459317 81.12 
" style="fill: none; stroke: #000000; stroke-width: 2; stroke-linejoin: miter; stroke-linecap: square"/>
   </g>
   <g id="patch_5">
    <path d="M 98.805 347.46 
L 390.459317 347.46 
" style="fill: none; stroke: #000000; stroke-width: 2; stroke-linejoin: miter; stroke-linecap: square"/>
   </g>
   <g id="patch_6">
    <path d="M 98.805 81.12 
L 390.459317 81.12 
" style="fill: none; stroke: #000000; stroke-width: 2; stroke-linejoin: miter; stroke-linecap: square"/>
   </g>
   <g id="text_11">
    <!-- Total Energy vs. Time -->
    <g transform="translate(72.486158 51.431812) scale(0.312 -0.312)">
     <defs>
      <path id="DejaVuSerif-6f" d="M 1925 219 
Q 2388 219 2623 584 
Q 2859 950 2859 1663 
Q 2859 2375 2623 2739 
Q 2388 3103 1925 3103 
Q 1463 3103 1227 2739 
Q 991 2375 991 1663 
Q 991 950 1228 584 
Q 1466 219 1925 219 
z
M 1925 -91 
Q 1200 -91 759 389 
Q 319 869 319 1663 
Q 319 2456 758 2934 
Q 1197 3413 1925 3413 
Q 2653 3413 3092 2934 
Q 3531 2456 3531 1663 
Q 3531 869 3092 389 
Q 2653 -91 1925 -91 
z
" transform="scale(0.015625)"/>
      <path id="DejaVuSerif-74" d="M 691 2988 
L 184 2988 
L 184 3322 
L 691 3322 
L 691 4353 
L 1269 4353 
L 1269 3322 
L 2350 3322 
L 2350 2988 
L 1269 2988 
L 1269 878 
Q 1269 456 1350 337 
Q 1431 219 1650 219 
Q 1875 219 1978 351 
Q 2081 484 2088 781 
L 2522 781 
Q 2497 328 2275 118 
Q 2053 -91 1600 -91 
Q 1103 -91 897 129 
Q 691 350 691 878 
L 691 2988 
z
" transform="scale(0.015625)"/>
      <path id="DejaVuSerif-6c" d="M 1313 331 
L 1856 331 
L 1856 0 
L 184 0 
L 184 331 
L 738 331 
L 738 4531 
L 184 4531 
L 184 4863 
L 1313 4863 
L 1313 331 
z
" transform="scale(0.015625)"/>
      <path id="DejaVuSerif-76" d="M 1581 0 
L 359 2988 
L -19 2988 
L -19 3322 
L 1509 3322 
L 1509 2988 
L 978 2988 
L 1913 703 
L 2847 2988 
L 2350 2988 
L 2350 3322 
L 3597 3322 
L 3597 2988 
L 3225 2988 
L 2003 0 
L 1581 0 
z
" transform="scale(0.015625)"/>
      <path id="DejaVuSerif-73" d="M 359 184 
L 359 959 
L 691 959 
Q 703 588 923 403 
Q 1144 219 1575 219 
Q 1963 219 2166 364 
Q 2369 509 2369 788 
Q 2369 1006 2220 1140 
Q 2072 1275 1594 1428 
L 1178 1569 
Q 750 1706 558 1912 
Q 366 2119 366 2438 
Q 366 2894 700 3153 
Q 1034 3413 1625 3413 
Q 1888 3413 2178 3344 
Q 2469 3275 2778 3144 
L 2778 2419 
L 2447 2419 
Q 2434 2741 2221 2922 
Q 2009 3103 1644 3103 
Q 1281 3103 1095 2975 
Q 909 2847 909 2591 
Q 909 2381 1050 2254 
Q 1191 2128 1613 1997 
L 2069 1856 
Q 2541 1709 2748 1489 
Q 2956 1269 2956 922 
Q 2956 450 2595 179 
Q 2234 -91 1600 -91 
Q 1278 -91 972 -22 
Q 666 47 359 184 
z
" transform="scale(0.015625)"/>
     </defs>
     <use xlink:href="#DejaVuSerif-54"/>
     <use xlink:href="#DejaVuSerif-6f" x="58.949219"/>
     <use xlink:href="#DejaVuSerif-74" x="119.154297"/>
     <use xlink:href="#DejaVuSerif-61" x="159.339844"/>
     <use xlink:href="#DejaVuSerif-6c" x="218.958984"/>
     <use xlink:href="#DejaVuSerif-20" x="250.941406"/>
     <use xlink:href="#DejaVuSerif-45" x="282.728516"/>
     <use xlink:href="#DejaVuSerif-6e" x="355.726562"/>
     <use xlink:href="#DejaVuSerif-65" x="420.130859"/>
     <use xlink:href="#DejaVuSerif-72" x="479.310547"/>
     <use xlink:href="#DejaVuSerif-67" x="527.113281"/>
     <use xlink:href="#DejaVuSerif-79" x="591.126953"/>
     <use xlink:href="#DejaVuSerif-20" x="647.621094"/>
     <use xlink:href="#DejaVuSerif-76" x="679.408203"/>
     <use xlink:href="#DejaVuSerif-73" x="735.902344"/>
     <use xlink:href="#DejaVuSerif-2e" x="787.220703"/>
     <use xlink:href="#DejaVuSerif-20" x="819.007812"/>
     <use xlink:href="#DejaVuSerif-54" x="850.794922"/>
     <use xlink:href="#DejaVuSerif-69" x="917.494141"/>
     <use xlink:href="#DejaVuSerif-6d" x="949.476562"/>
     <use xlink:href="#DejaVuSerif-65" x="1044.300781"/>
    </g>
   </g>
   <g id="legend_1">
    <g id="patch_7">
     <path d="M 112.805 337.46 
L 306.333125 337.46 
Q 310.333125 337.46 310.333125 333.46 
L 310.333125 305.819375 
Q 310.333125 301.819375 306.333125 301.819375 
L 112.805 301.819375 
Q 108.805 301.819375 108.805 305.819375 
L 108.805 333.46 
Q 108.805 337.46 112.805 337.46 
z
" style="fill: #ffffff; opacity: 0.8; stroke: #cccccc; stroke-linejoin: miter"/>
    </g>
    <g id="line2d_16">
     <path d="M 116.805 318.01625 
L 136.805 318.01625 
L 156.805 318.01625 
" style="fill: none; stroke: #1f77b4; stroke-width: 3; stroke-linecap: square"/>
    </g>
    <g id="text_12">
     <!-- Total Energy -->
     <g transform="translate(172.805 325.01625) scale(0.2 -0.2)">
      <use xlink:href="#DejaVuSerif-54"/>
      <use xlink:href="#DejaVuSerif-6f" x="58.949219"/>
      <use xlink:href="#DejaVuSerif-74" x="119.154297"/>
      <use xlink:href="#DejaVuSerif-61" x="159.339844"/>
      <use xlink:href="#DejaVuSerif-6c" x="218.958984"/>
      <use xlink:href="#DejaVuSerif-20" x="250.941406"/>
      <use xlink:href="#DejaVuSerif-45" x="282.728516"/>
      <use xlink:href="#DejaVuSerif-6e" x="355.726562"/>
      <use xlink:href="#DejaVuSerif-65" x="420.130859"/>
      <use xlink:href="#DejaVuSerif-72" x="479.310547"/>
      <use xlink:href="#DejaVuSerif-67" x="527.113281"/>
      <use xlink:href="#DejaVuSerif-79" x="591.126953"/>
     </g>
    </g>
   </g>
  </g>
  <g id="axes_2">
   <g id="patch_8">
    <path d="M 544.265683 347.46 
L 835.92 347.46 
L 835.92 81.12 
L 544.265683 81.12 
z
" style="fill: #ffffff"/>
   </g>
   <g id="matplotlib.axis_3">
    <g id="xtick_4">
     <g id="line2d_17">
      <path d="M 557.522698 347.46 
L 557.522698 81.12 
" clip-path="url(#p2f64e0fe46)" style="fill: none; stroke-dasharray: 3.7,1.6; stroke-dashoffset: 0; stroke: #b0b0b0"/>
     </g>
     <g id="line2d_18">
      <g>
       <use xlink:href="#m8b0ef5b889" x="557.522698" y="347.46" style="stroke: #000000; stroke-width: 2"/>
      </g>
     </g>
     <g id="text_13">
      <!-- 0 -->
      <g transform="translate(549.251448 370.715937) scale(0.26 -0.26)">
       <use xlink:href="#DejaVuSerif-30"/>
      </g>
     </g>
    </g>
    <g id="xtick_5">
     <g id="line2d_19">
      <path d="M 663.578813 347.46 
L 663.578813 81.12 
" clip-path="url(#p2f64e0fe46)" style="fill: none; stroke-dasharray: 3.7,1.6; stroke-dashoffset: 0; stroke: #b0b0b0"/>
     </g>
     <g id="line2d_20">
      <g>
       <use xlink:href="#m8b0ef5b889" x="663.578813" y="347.46" style="stroke: #000000; stroke-width: 2"/>
      </g>
     </g>
     <g id="text_14">
      <!-- 2 -->
      <g transform="translate(655.307563 370.715937) scale(0.26 -0.26)">
       <use xlink:href="#DejaVuSerif-32"/>
      </g>
     </g>
    </g>
    <g id="xtick_6">
     <g id="line2d_21">
      <path d="M 769.634928 347.46 
L 769.634928 81.12 
" clip-path="url(#p2f64e0fe46)" style="fill: none; stroke-dasharray: 3.7,1.6; stroke-dashoffset: 0; stroke: #b0b0b0"/>
     </g>
     <g id="line2d_22">
      <g>
       <use xlink:href="#m8b0ef5b889" x="769.634928" y="347.46" style="stroke: #000000; stroke-width: 2"/>
      </g>
     </g>
     <g id="text_15">
      <!-- 4 -->
      <g transform="translate(761.363678 370.715937) scale(0.26 -0.26)">
       <use xlink:href="#DejaVuSerif-34"/>
      </g>
     </g>
    </g>
    <g id="text_16">
     <!-- Time (a.u.) -->
     <g transform="translate(618.578623 399.879062) scale(0.26 -0.26)">
      <use xlink:href="#DejaVuSerif-54"/>
      <use xlink:href="#DejaVuSerif-69" x="66.699219"/>
      <use xlink:href="#DejaVuSerif-6d" x="98.681641"/>
      <use xlink:href="#DejaVuSerif-65" x="193.505859"/>
      <use xlink:href="#DejaVuSerif-20" x="252.685547"/>
      <use xlink:href="#DejaVuSerif-28" x="284.472656"/>
      <use xlink:href="#DejaVuSerif-61" x="323.486328"/>
      <use xlink:href="#DejaVuSerif-2e" x="383.105469"/>
      <use xlink:href="#DejaVuSerif-75" x="414.892578"/>
      <use xlink:href="#DejaVuSerif-2e" x="479.296875"/>
      <use xlink:href="#DejaVuSerif-29" x="511.083984"/>
     </g>
    </g>
   </g>
   <g id="matplotlib.axis_4">
    <g id="ytick_5">
     <g id="line2d_23">
      <path d="M 544.265683 340.035516 
L 835.92 340.035516 
" clip-path="url(#p2f64e0fe46)" style="fill: none; stroke-dasharray: 3.7,1.6; stroke-dashoffset: 0; stroke: #b0b0b0"/>
     </g>
     <g id="line2d_24">
      <g>
       <use xlink:href="#m4b2bb0cb32" x="544.265683" y="340.035516" style="stroke: #000000; stroke-width: 2"/>
      </g>
     </g>
     <g id="text_17">
      <!-- $\mathdefault{-10^{-5}}$ -->
      <g transform="translate(458.085683 349.913485) scale(0.26 -0.26)">
       <use xlink:href="#DejaVuSerif-2212" transform="translate(0 0.63125)"/>
       <use xlink:href="#DejaVuSerif-31" transform="translate(83.789062 0.63125)"/>
       <use xlink:href="#DejaVuSerif-30" transform="translate(147.412109 0.63125)"/>
       <use xlink:href="#DejaVuSerif-2212" transform="translate(211.943516 36.965625) scale(0.7)"/>
       <use xlink:href="#DejaVuSerif-35" transform="translate(270.595859 36.965625) scale(0.7)"/>
      </g>
     </g>
    </g>
    <g id="ytick_6">
     <g id="line2d_25">
      <path d="M 544.265683 319.257432 
L 835.92 319.257432 
" clip-path="url(#p2f64e0fe46)" style="fill: none; stroke-dasharray: 3.7,1.6; stroke-dashoffset: 0; stroke: #b0b0b0"/>
     </g>
     <g id="line2d_26">
      <g>
       <use xlink:href="#m4b2bb0cb32" x="544.265683" y="319.257432" style="stroke: #000000; stroke-width: 2"/>
      </g>
     </g>
     <g id="text_18">
      <!-- $\mathdefault{-10^{-6}}$ -->
      <g transform="translate(458.085683 329.135401) scale(0.26 -0.26)">
       <use xlink:href="#DejaVuSerif-2212" transform="translate(0 0.7125)"/>
       <use xlink:href="#DejaVuSerif-31" transform="translate(83.789062 0.7125)"/>
       <use xlink:href="#DejaVuSerif-30" transform="translate(147.412109 0.7125)"/>
       <use xlink:href="#DejaVuSerif-2212" transform="translate(211.943516 37.046875) scale(0.7)"/>
       <use xlink:href="#DejaVuSerif-36" transform="translate(270.595859 37.046875) scale(0.7)"/>
      </g>
     </g>
    </g>
    <g id="ytick_7">
     <g id="line2d_27">
      <path d="M 544.265683 298.479347 
L 835.92 298.479347 
" clip-path="url(#p2f64e0fe46)" style="fill: none; stroke-dasharray: 3.7,1.6; stroke-dashoffset: 0; stroke: #b0b0b0"/>
     </g>
     <g id="line2d_28">
      <g>
       <use xlink:href="#m4b2bb0cb32" x="544.265683" y="298.479347" style="stroke: #000000; stroke-width: 2"/>
      </g>
     </g>
     <g id="text_19">
      <!-- $\mathdefault{-10^{-7}}$ -->
      <g transform="translate(458.085683 308.357316) scale(0.26 -0.26)">
       <use xlink:href="#DejaVuSerif-2212" transform="translate(0 0.63125)"/>
       <use xlink:href="#DejaVuSerif-31" transform="translate(83.789062 0.63125)"/>
       <use xlink:href="#DejaVuSerif-30" transform="translate(147.412109 0.63125)"/>
       <use xlink:href="#DejaVuSerif-2212" transform="translate(211.943516 36.965625) scale(0.7)"/>
       <use xlink:href="#DejaVuSerif-37" transform="translate(270.595859 36.965625) scale(0.7)"/>
      </g>
     </g>
    </g>
    <g id="ytick_8">
     <g id="line2d_29">
      <path d="M 544.265683 277.701263 
L 835.92 277.701263 
" clip-path="url(#p2f64e0fe46)" style="fill: none; stroke-dasharray: 3.7,1.6; stroke-dashoffset: 0; stroke: #b0b0b0"/>
     </g>
     <g id="line2d_30">
      <g>
       <use xlink:href="#m4b2bb0cb32" x="544.265683" y="277.701263" style="stroke: #000000; stroke-width: 2"/>
      </g>
     </g>
     <g id="text_20">
      <!-- $\mathdefault{-10^{-8}}$ -->
      <g transform="translate(458.085683 287.579232) scale(0.26 -0.26)">
       <defs>
        <path id="DejaVuSerif-38" d="M 2981 1275 
Q 2981 1775 2732 2051 
Q 2484 2328 2034 2328 
Q 1584 2328 1336 2051 
Q 1088 1775 1088 1275 
Q 1088 772 1336 495 
Q 1584 219 2034 219 
Q 2484 219 2732 495 
Q 2981 772 2981 1275 
z
M 2853 3541 
Q 2853 3966 2637 4203 
Q 2422 4441 2034 4441 
Q 1650 4441 1433 4203 
Q 1216 3966 1216 3541 
Q 1216 3113 1433 2875 
Q 1650 2638 2034 2638 
Q 2422 2638 2637 2875 
Q 2853 3113 2853 3541 
z
M 2516 2484 
Q 3047 2413 3344 2092 
Q 3641 1772 3641 1275 
Q 3641 619 3225 264 
Q 2809 -91 2034 -91 
Q 1263 -91 845 264 
Q 428 619 428 1275 
Q 428 1772 725 2092 
Q 1022 2413 1556 2484 
Q 1084 2569 832 2842 
Q 581 3116 581 3541 
Q 581 4103 968 4426 
Q 1356 4750 2034 4750 
Q 2713 4750 3100 4426 
Q 3488 4103 3488 3541 
Q 3488 3116 3236 2842 
Q 2984 2569 2516 2484 
z
" transform="scale(0.015625)"/>
       </defs>
       <use xlink:href="#DejaVuSerif-2212" transform="translate(0 0.7125)"/>
       <use xlink:href="#DejaVuSerif-31" transform="translate(83.789062 0.7125)"/>
       <use xlink:href="#DejaVuSerif-30" transform="translate(147.412109 0.7125)"/>
       <use xlink:href="#DejaVuSerif-2212" transform="translate(211.943516 37.046875) scale(0.7)"/>
       <use xlink:href="#DejaVuSerif-38" transform="translate(270.595859 37.046875) scale(0.7)"/>
      </g>
     </g>
    </g>
    <g id="ytick_9">
     <g id="line2d_31">
      <path d="M 544.265683 256.923179 
L 835.92 256.923179 
" clip-path="url(#p2f64e0fe46)" style="fill: none; stroke-dasharray: 3.7,1.6; stroke-dashoffset: 0; stroke: #b0b0b0"/>
     </g>
     <g id="line2d_32">
      <g>
       <use xlink:href="#m4b2bb0cb32" x="544.265683" y="256.923179" style="stroke: #000000; stroke-width: 2"/>
      </g>
     </g>
     <g id="text_21">
      <!-- $\mathdefault{-10^{-9}}$ -->
      <g transform="translate(458.085683 266.801148) scale(0.26 -0.26)">
       <use xlink:href="#DejaVuSerif-2212" transform="translate(0 0.7125)"/>
       <use xlink:href="#DejaVuSerif-31" transform="translate(83.789062 0.7125)"/>
       <use xlink:href="#DejaVuSerif-30" transform="translate(147.412109 0.7125)"/>
       <use xlink:href="#DejaVuSerif-2212" transform="translate(211.943516 37.046875) scale(0.7)"/>
       <use xlink:href="#DejaVuSerif-39" transform="translate(270.595859 37.046875) scale(0.7)"/>
      </g>
     </g>
    </g>
    <g id="ytick_10">
     <g id="line2d_33">
      <path d="M 544.265683 236.145094 
L 835.92 236.145094 
" clip-path="url(#p2f64e0fe46)" style="fill: none; stroke-dasharray: 3.7,1.6; stroke-dashoffset: 0; stroke: #b0b0b0"/>
     </g>
     <g id="line2d_34">
      <g>
       <use xlink:href="#m4b2bb0cb32" x="544.265683" y="236.145094" style="stroke: #000000; stroke-width: 2"/>
      </g>
     </g>
     <g id="text_22">
      <!-- $\mathdefault{-10^{-10}}$ -->
      <g transform="translate(446.385683 246.023063) scale(0.26 -0.26)">
       <use xlink:href="#DejaVuSerif-2212" transform="translate(0 0.7125)"/>
       <use xlink:href="#DejaVuSerif-31" transform="translate(83.789062 0.7125)"/>
       <use xlink:href="#DejaVuSerif-30" transform="translate(147.412109 0.7125)"/>
       <use xlink:href="#DejaVuSerif-2212" transform="translate(211.943516 37.046875) scale(0.7)"/>
       <use xlink:href="#DejaVuSerif-31" transform="translate(270.595859 37.046875) scale(0.7)"/>
       <use xlink:href="#DejaVuSerif-30" transform="translate(315.131992 37.046875) scale(0.7)"/>
      </g>
     </g>
    </g>
    <g id="ytick_11">
     <g id="line2d_35">
      <path d="M 544.265683 213.058334 
L 835.92 213.058334 
" clip-path="url(#p2f64e0fe46)" style="fill: none; stroke-dasharray: 3.7,1.6; stroke-dashoffset: 0; stroke: #b0b0b0"/>
     </g>
     <g id="line2d_36">
      <g>
       <use xlink:href="#m4b2bb0cb32" x="544.265683" y="213.058334" style="stroke: #000000; stroke-width: 2"/>
      </g>
     </g>
     <g id="text_23">
      <!-- $\mathdefault{0}$ -->
      <g transform="translate(524.125683 222.936303) scale(0.26 -0.26)">
       <use xlink:href="#DejaVuSerif-30" transform="translate(0 0.78125)"/>
      </g>
     </g>
    </g>
    <g id="ytick_12">
     <g id="line2d_37">
      <path d="M 544.265683 189.971574 
L 835.92 189.971574 
" clip-path="url(#p2f64e0fe46)" style="fill: none; stroke-dasharray: 3.7,1.6; stroke-dashoffset: 0; stroke: #b0b0b0"/>
     </g>
     <g id="line2d_38">
      <g>
       <use xlink:href="#m4b2bb0cb32" x="544.265683" y="189.971574" style="stroke: #000000; stroke-width: 2"/>
      </g>
     </g>
     <g id="text_24">
      <!-- $\mathdefault{10^{-10}}$ -->
      <g transform="translate(468.225683 199.849543) scale(0.26 -0.26)">
       <use xlink:href="#DejaVuSerif-31" transform="translate(0 0.7125)"/>
       <use xlink:href="#DejaVuSerif-30" transform="translate(63.623047 0.7125)"/>
       <use xlink:href="#DejaVuSerif-2212" transform="translate(128.154453 37.046875) scale(0.7)"/>
       <use xlink:href="#DejaVuSerif-31" transform="translate(186.806797 37.046875) scale(0.7)"/>
       <use xlink:href="#DejaVuSerif-30" transform="translate(231.34293 37.046875) scale(0.7)"/>
      </g>
     </g>
    </g>
    <g id="ytick_13">
     <g id="line2d_39">
      <path d="M 544.265683 169.193489 
L 835.92 169.193489 
" clip-path="url(#p2f64e0fe46)" style="fill: none; stroke-dasharray: 3.7,1.6; stroke-dashoffset: 0; stroke: #b0b0b0"/>
     </g>
     <g id="line2d_40">
      <g>
       <use xlink:href="#m4b2bb0cb32" x="544.265683" y="169.193489" style="stroke: #000000; stroke-width: 2"/>
      </g>
     </g>
     <g id="text_25">
      <!-- $\mathdefault{10^{-9}}$ -->
      <g transform="translate(479.925683 179.071458) scale(0.26 -0.26)">
       <use xlink:href="#DejaVuSerif-31" transform="translate(0 0.7125)"/>
       <use xlink:href="#DejaVuSerif-30" transform="translate(63.623047 0.7125)"/>
       <use xlink:href="#DejaVuSerif-2212" transform="translate(128.154453 37.046875) scale(0.7)"/>
       <use xlink:href="#DejaVuSerif-39" transform="translate(186.806797 37.046875) scale(0.7)"/>
      </g>
     </g>
    </g>
    <g id="ytick_14">
     <g id="line2d_41">
      <path d="M 544.265683 148.415405 
L 835.92 148.415405 
" clip-path="url(#p2f64e0fe46)" style="fill: none; stroke-dasharray: 3.7,1.6; stroke-dashoffset: 0; stroke: #b0b0b0"/>
     </g>
     <g id="line2d_42">
      <g>
       <use xlink:href="#m4b2bb0cb32" x="544.265683" y="148.415405" style="stroke: #000000; stroke-width: 2"/>
      </g>
     </g>
     <g id="text_26">
      <!-- $\mathdefault{10^{-8}}$ -->
      <g transform="translate(479.925683 158.293374) scale(0.26 -0.26)">
       <use xlink:href="#DejaVuSerif-31" transform="translate(0 0.7125)"/>
       <use xlink:href="#DejaVuSerif-30" transform="translate(63.623047 0.7125)"/>
       <use xlink:href="#DejaVuSerif-2212" transform="translate(128.154453 37.046875) scale(0.7)"/>
       <use xlink:href="#DejaVuSerif-38" transform="translate(186.806797 37.046875) scale(0.7)"/>
      </g>
     </g>
    </g>
    <g id="ytick_15">
     <g id="line2d_43">
      <path d="M 544.265683 127.637321 
L 835.92 127.637321 
" clip-path="url(#p2f64e0fe46)" style="fill: none; stroke-dasharray: 3.7,1.6; stroke-dashoffset: 0; stroke: #b0b0b0"/>
     </g>
     <g id="line2d_44">
      <g>
       <use xlink:href="#m4b2bb0cb32" x="544.265683" y="127.637321" style="stroke: #000000; stroke-width: 2"/>
      </g>
     </g>
     <g id="text_27">
      <!-- $\mathdefault{10^{-7}}$ -->
      <g transform="translate(479.925683 137.51529) scale(0.26 -0.26)">
       <use xlink:href="#DejaVuSerif-31" transform="translate(0 0.63125)"/>
       <use xlink:href="#DejaVuSerif-30" transform="translate(63.623047 0.63125)"/>
       <use xlink:href="#DejaVuSerif-2212" transform="translate(128.154453 36.965625) scale(0.7)"/>
       <use xlink:href="#DejaVuSerif-37" transform="translate(186.806797 36.965625) scale(0.7)"/>
      </g>
     </g>
    </g>
    <g id="ytick_16">
     <g id="line2d_45">
      <path d="M 544.265683 106.859236 
L 835.92 106.859236 
" clip-path="url(#p2f64e0fe46)" style="fill: none; stroke-dasharray: 3.7,1.6; stroke-dashoffset: 0; stroke: #b0b0b0"/>
     </g>
     <g id="line2d_46">
      <g>
       <use xlink:href="#m4b2bb0cb32" x="544.265683" y="106.859236" style="stroke: #000000; stroke-width: 2"/>
      </g>
     </g>
     <g id="text_28">
      <!-- $\mathdefault{10^{-6}}$ -->
      <g transform="translate(479.925683 116.737205) scale(0.26 -0.26)">
       <use xlink:href="#DejaVuSerif-31" transform="translate(0 0.7125)"/>
       <use xlink:href="#DejaVuSerif-30" transform="translate(63.623047 0.7125)"/>
       <use xlink:href="#DejaVuSerif-2212" transform="translate(128.154453 37.046875) scale(0.7)"/>
       <use xlink:href="#DejaVuSerif-36" transform="translate(186.806797 37.046875) scale(0.7)"/>
      </g>
     </g>
    </g>
    <g id="ytick_17">
     <g id="line2d_47">
      <path d="M 544.265683 86.081152 
L 835.92 86.081152 
" clip-path="url(#p2f64e0fe46)" style="fill: none; stroke-dasharray: 3.7,1.6; stroke-dashoffset: 0; stroke: #b0b0b0"/>
     </g>
     <g id="line2d_48">
      <g>
       <use xlink:href="#m4b2bb0cb32" x="544.265683" y="86.081152" style="stroke: #000000; stroke-width: 2"/>
      </g>
     </g>
     <g id="text_29">
      <!-- $\mathdefault{10^{-5}}$ -->
      <g transform="translate(479.925683 95.959121) scale(0.26 -0.26)">
       <use xlink:href="#DejaVuSerif-31" transform="translate(0 0.63125)"/>
       <use xlink:href="#DejaVuSerif-30" transform="translate(63.623047 0.63125)"/>
       <use xlink:href="#DejaVuSerif-2212" transform="translate(128.154453 36.965625) scale(0.7)"/>
       <use xlink:href="#DejaVuSerif-35" transform="translate(186.806797 36.965625) scale(0.7)"/>
      </g>
     </g>
    </g>
    <g id="text_30">
     <!-- (E(t) - E(0)) / E(0) -->
     <g transform="translate(436.978496 330.402344) rotate(-90) scale(0.26 -0.26)">
      <defs>
       <path id="DejaVuSerif-2d" d="M 281 1959 
L 1881 1959 
L 1881 1472 
L 281 1472 
L 281 1959 
z
" transform="scale(0.015625)"/>
       <path id="DejaVuSerif-2f" d="M 1656 4666 
L 2156 4666 
L 500 -594 
L 0 -594 
L 1656 4666 
z
" transform="scale(0.015625)"/>
      </defs>
      <use xlink:href="#DejaVuSerif-28"/>
      <use xlink:href="#DejaVuSerif-45" x="39.013672"/>
      <use xlink:href="#DejaVuSerif-28" x="112.011719"/>
      <use xlink:href="#DejaVuSerif-74" x="151.025391"/>
      <use xlink:href="#DejaVuSerif-29" x="191.210938"/>
      <use xlink:href="#DejaVuSerif-20" x="230.224609"/>
      <use xlink:href="#DejaVuSerif-2d" x="262.011719"/>
      <use xlink:href="#DejaVuSerif-20" x="295.800781"/>
      <use xlink:href="#DejaVuSerif-45" x="327.587891"/>
      <use xlink:href="#DejaVuSerif-28" x="400.585938"/>
      <use xlink:href="#DejaVuSerif-30" x="439.599609"/>
      <use xlink:href="#DejaVuSerif-29" x="503.222656"/>
      <use xlink:href="#DejaVuSerif-29" x="542.236328"/>
      <use xlink:href="#DejaVuSerif-20" x="581.25"/>
      <use xlink:href="#DejaVuSerif-2f" x="613.037109"/>
      <use xlink:href="#DejaVuSerif-20" x="646.728516"/>
      <use xlink:href="#DejaVuSerif-45" x="678.515625"/>
      <use xlink:href="#DejaVuSerif-28" x="751.513672"/>
      <use xlink:href="#DejaVuSerif-30" x="790.527344"/>
      <use xlink:href="#DejaVuSerif-29" x="854.150391"/>
     </g>
    </g>
   </g>
   <g id="line2d_49">
    <path d="M 557.522698 213.058334 
L 560.200883 98.239405 
L 562.879067 93.254217 
L 565.557252 98.189289 
L 568.235437 117.43361 
L 570.913621 107.863822 
L 573.591806 96.746033 
L 576.269991 96.739797 
L 578.948176 109.372377 
L 581.62636 319.085103 
L 584.304545 312.322852 
L 586.98273 105.073589 
L 589.660915 103.028044 
L 592.339099 289.639874 
L 595.017284 325.551169 
L 597.695469 327.998846 
L 600.373653 324.853277 
L 603.051838 318.669215 
L 605.730023 319.491185 
L 608.408208 325.218346 
L 611.086392 328.48643 
L 613.764577 329.063596 
L 616.442762 328.458447 
L 619.120947 329.184196 
L 621.799131 331.455093 
L 624.477316 332.618876 
L 627.155501 331.432808 
L 629.833685 327.774384 
L 632.51187 323.461823 
L 635.190055 325.55944 
L 637.86824 331.404911 
L 640.546424 334.87366 
L 643.224609 335.353636 
L 645.902794 332.95347 
L 648.580978 327.647834 
L 651.259163 322.503257 
L 653.937348 325.23542 
L 656.615533 329.663422 
L 659.293717 331.393441 
L 661.971902 330.304173 
L 664.650087 326.884062 
L 667.328272 323.538566 
L 670.006456 323.805742 
L 672.684641 324.223599 
L 675.362826 320.034046 
L 678.04101 121.839878 
L 680.719195 103.681895 
L 683.39738 101.593297 
L 686.075565 105.291284 
L 688.753749 111.323713 
L 691.431934 106.331584 
L 694.110119 98.565483 
L 696.788304 94.344696 
L 699.466488 93.226364 
L 702.144673 95.275164 
L 704.822858 100.292223 
L 707.501042 104.125331 
L 710.179227 100.597564 
L 712.857412 95.871758 
L 715.535597 93.745883 
L 718.213781 95.017546 
L 720.891966 101.608324 
L 723.570151 292.518939 
L 726.248336 313.327215 
L 728.92652 113.102405 
L 731.604705 100.482956 
L 734.28289 98.261203 
L 736.961074 103.335943 
L 739.639259 316.305305 
L 742.317444 327.426699 
L 744.995629 327.994043 
L 747.673813 321.327996 
L 750.351998 113.954421 
L 753.030183 106.589888 
L 755.708367 297.120561 
L 758.386552 325.654597 
L 761.064737 330.31812 
L 763.742922 330.026018 
L 766.421106 324.990149 
L 769.099291 309.429186 
L 771.777476 134.824034 
L 774.455661 319.102423 
L 777.133845 327.381154 
L 779.81203 329.305967 
L 782.490215 326.235996 
L 785.168399 309.401307 
L 787.846584 108.970768 
L 790.524769 128.890749 
L 793.202954 323.792475 
L 795.881138 327.203049 
L 798.559323 315.567994 
L 801.237508 98.416931 
L 803.915693 95.648663 
L 806.593877 107.550389 
L 809.272062 321.822579 
L 811.950247 116.019805 
L 814.628431 95.281928 
L 817.306616 94.829088 
L 819.984801 98.932395 
L 822.662986 96.221725 
" clip-path="url(#p2f64e0fe46)" style="fill: none; stroke: #1f77b4; stroke-width: 3; stroke-linecap: square"/>
   </g>
   <g id="patch_9">
    <path d="M 544.265683 347.46 
L 544.265683 81.12 
" style="fill: none; stroke: #000000; stroke-width: 2; stroke-linejoin: miter; stroke-linecap: square"/>
   </g>
   <g id="patch_10">
    <path d="M 835.92 347.46 
L 835.92 81.12 
" style="fill: none; stroke: #000000; stroke-width: 2; stroke-linejoin: miter; stroke-linecap: square"/>
   </g>
   <g id="patch_11">
    <path d="M 544.265683 347.46 
L 835.92 347.46 
" style="fill: none; stroke: #000000; stroke-width: 2; stroke-linejoin: miter; stroke-linecap: square"/>
   </g>
   <g id="patch_12">
    <path d="M 544.265683 81.12 
L 835.92 81.12 
" style="fill: none; stroke: #000000; stroke-width: 2; stroke-linejoin: miter; stroke-linecap: square"/>
   </g>
   <g id="text_31">
    <!-- Relative Energy Error vs. Time -->
    <g transform="translate(444.412342 74.18775) scale(0.312 -0.312)">
     <defs>
      <path id="DejaVuSerif-52" d="M 3066 2316 
Q 3284 2256 3442 2114 
Q 3600 1972 3725 1716 
L 4403 331 
L 4972 331 
L 4972 0 
L 3872 0 
L 3144 1484 
Q 2934 1916 2759 2042 
Q 2584 2169 2278 2169 
L 1581 2169 
L 1581 331 
L 2241 331 
L 2241 0 
L 353 0 
L 353 331 
L 947 331 
L 947 4331 
L 353 4331 
L 353 4666 
L 2719 4666 
Q 3400 4666 3770 4341 
Q 4141 4016 4141 3419 
Q 4141 2938 3870 2661 
Q 3600 2384 3066 2316 
z
M 1581 2503 
L 2503 2503 
Q 2975 2503 3200 2726 
Q 3425 2950 3425 3419 
Q 3425 3888 3200 4109 
Q 2975 4331 2503 4331 
L 1581 4331 
L 1581 2503 
z
" transform="scale(0.015625)"/>
     </defs>
     <use xlink:href="#DejaVuSerif-52"/>
     <use xlink:href="#DejaVuSerif-65" x="75.292969"/>
     <use xlink:href="#DejaVuSerif-6c" x="134.472656"/>
     <use xlink:href="#DejaVuSerif-61" x="166.455078"/>
     <use xlink:href="#DejaVuSerif-74" x="226.074219"/>
     <use xlink:href="#DejaVuSerif-69" x="266.259766"/>
     <use xlink:href="#DejaVuSerif-76" x="298.242188"/>
     <use xlink:href="#DejaVuSerif-65" x="354.736328"/>
     <use xlink:href="#DejaVuSerif-20" x="413.916016"/>
     <use xlink:href="#DejaVuSerif-45" x="445.703125"/>
     <use xlink:href="#DejaVuSerif-6e" x="518.701172"/>
     <use xlink:href="#DejaVuSerif-65" x="583.105469"/>
     <use xlink:href="#DejaVuSerif-72" x="642.285156"/>
     <use xlink:href="#DejaVuSerif-67" x="690.087891"/>
     <use xlink:href="#DejaVuSerif-79" x="754.101562"/>
     <use xlink:href="#DejaVuSerif-20" x="810.595703"/>
     <use xlink:href="#DejaVuSerif-45" x="842.382812"/>
     <use xlink:href="#DejaVuSerif-72" x="915.380859"/>
     <use xlink:href="#DejaVuSerif-72" x="963.183594"/>
     <use xlink:href="#DejaVuSerif-6f" x="1010.986328"/>
     <use xlink:href="#DejaVuSerif-72" x="1071.191406"/>
     <use xlink:href="#DejaVuSerif-20" x="1118.994141"/>
     <use xlink:href="#DejaVuSerif-76" x="1150.78125"/>
     <use xlink:href="#DejaVuSerif-73" x="1207.275391"/>
     <use xlink:href="#DejaVuSerif-2e" x="1258.59375"/>
     <use xlink:href="#DejaVuSerif-20" x="1290.380859"/>
     <use xlink:href="#DejaVuSerif-54" x="1322.167969"/>
     <use xlink:href="#DejaVuSerif-69" x="1388.867188"/>
     <use xlink:href="#DejaVuSerif-6d" x="1420.849609"/>
     <use xlink:href="#DejaVuSerif-65" x="1515.673828"/>
    </g>
   </g>
   <g id="legend_2">
    <g id="patch_13">
     <path d="M 534.116875 232.110312 
L 821.92 232.110312 
Q 825.92 232.110312 825.92 228.110312 
L 825.92 200.469687 
Q 825.92 196.469687 821.92 196.469687 
L 534.116875 196.469687 
Q 530.116875 196.469687 530.116875 200.469687 
L 530.116875 228.110312 
Q 530.116875 232.110312 534.116875 232.110312 
z
" style="fill: #ffffff; opacity: 0.8; stroke: #cccccc; stroke-linejoin: miter"/>
    </g>
    <g id="line2d_50">
     <path d="M 538.116875 212.666562 
L 558.116875 212.666562 
L 578.116875 212.666562 
" style="fill: none; stroke: #1f77b4; stroke-width: 3; stroke-linecap: square"/>
    </g>
    <g id="text_32">
     <!-- Relative Energy Error -->
     <g transform="translate(594.116875 219.666562) scale(0.2 -0.2)">
      <use xlink:href="#DejaVuSerif-52"/>
      <use xlink:href="#DejaVuSerif-65" x="75.292969"/>
      <use xlink:href="#DejaVuSerif-6c" x="134.472656"/>
      <use xlink:href="#DejaVuSerif-61" x="166.455078"/>
      <use xlink:href="#DejaVuSerif-74" x="226.074219"/>
      <use xlink:href="#DejaVuSerif-69" x="266.259766"/>
      <use xlink:href="#DejaVuSerif-76" x="298.242188"/>
      <use xlink:href="#DejaVuSerif-65" x="354.736328"/>
      <use xlink:href="#DejaVuSerif-20" x="413.916016"/>
      <use xlink:href="#DejaVuSerif-45" x="445.703125"/>
      <use xlink:href="#DejaVuSerif-6e" x="518.701172"/>
      <use xlink:href="#DejaVuSerif-65" x="583.105469"/>
      <use xlink:href="#DejaVuSerif-72" x="642.285156"/>
      <use xlink:href="#DejaVuSerif-67" x="690.087891"/>
      <use xlink:href="#DejaVuSerif-79" x="754.101562"/>
      <use xlink:href="#DejaVuSerif-20" x="810.595703"/>
      <use xlink:href="#DejaVuSerif-45" x="842.382812"/>
      <use xlink:href="#DejaVuSerif-72" x="915.380859"/>
      <use xlink:href="#DejaVuSerif-72" x="963.183594"/>
      <use xlink:href="#DejaVuSerif-6f" x="1010.986328"/>
      <use xlink:href="#DejaVuSerif-72" x="1071.191406"/>
     </g>
    </g>
   </g>
  </g>
 </g>
 <defs>
  <clipPath id="p109588b50e">
   <rect x="98.805" y="81.12" width="291.654317" height="266.34"/>
  </clipPath>
  <clipPath id="p2f64e0fe46">
   <rect x="544.265683" y="81.12" width="291.654317" height="266.34"/>
  </clipPath>
 </defs>
</svg>
