<?xml version="1.0" encoding="utf-8" standalone="no"?>
<!DOCTYPE svg PUBLIC "-//W3C//DTD SVG 1.1//EN"
  "http://www.w3.org/Graphics/SVG/1.1/DTD/svg11.dtd">
<svg xmlns:xlink="http://www.w3.org/1999/xlink" width="720pt" height="504pt" viewBox="0 0 720 504" xmlns="http://www.w3.org/2000/svg" version="1.1">
 <metadata>
  <rdf:RDF xmlns:dc="http://purl.org/dc/elements/1.1/" xmlns:cc="http://creativecommons.org/ns#" xmlns:rdf="http://www.w3.org/1999/02/22-rdf-syntax-ns#">
   <cc:Work>
    <dc:type rdf:resource="http://purl.org/dc/dcmitype/StillImage"/>
    <dc:date>2025-05-28T17:17:06.587906</dc:date>
    <dc:format>image/svg+xml</dc:format>
    <dc:creator>
     <cc:Agent>
      <dc:title>Matplotlib v3.7.2, https://matplotlib.org/</dc:title>
     </cc:Agent>
    </dc:creator>
   </cc:Work>
  </rdf:RDF>
 </metadata>
 <defs>
  <style type="text/css">*{stroke-linejoin: round; stroke-linecap: butt}</style>
 </defs>
 <g id="figure_1">
  <g id="patch_1">
   <path d="M 0 504 
L 720 504 
L 720 0 
L 0 0 
z
" style="fill: #ffffff"/>
  </g>
  <g id="axes_1">
   <g id="patch_2">
    <path d="M 140.295 419.46 
L 691.92 419.46 
L 691.92 58.32 
L 140.295 58.32 
z
" style="fill: #ffffff"/>
   </g>
   <g id="matplotlib.axis_1">
    <g id="xtick_1">
     <g id="line2d_1">
      <path d="M 165.368864 419.46 
L 165.368864 58.32 
" clip-path="url(#pd5443f06b2)" style="fill: none; stroke-dasharray: 3.7,1.6; stroke-dashoffset: 0; stroke: #b0b0b0"/>
     </g>
     <g id="line2d_2">
      <defs>
       <path id="m2eaa8d17a0" d="M 0 0 
L 0 -10 
" style="stroke: #000000; stroke-width: 2"/>
      </defs>
      <g>
       <use xlink:href="#m2eaa8d17a0" x="165.368864" y="419.46" style="stroke: #000000; stroke-width: 2"/>
      </g>
     </g>
     <g id="text_1">
      <!-- 0 -->
      <g transform="translate(157.097614 442.715937) scale(0.26 -0.26)">
       <defs>
        <path id="DejaVuSerif-30" d="M 2034 219 
Q 2513 219 2750 744 
Q 2988 1269 2988 2328 
Q 2988 3391 2750 3916 
Q 2513 4441 2034 4441 
Q 1556 4441 1318 3916 
Q 1081 3391 1081 2328 
Q 1081 1269 1318 744 
Q 1556 219 2034 219 
z
M 2034 -91 
Q 1275 -91 848 546 
Q 422 1184 422 2328 
Q 422 3475 848 4112 
Q 1275 4750 2034 4750 
Q 2797 4750 3222 4112 
Q 3647 3475 3647 2328 
Q 3647 1184 3222 546 
Q 2797 -91 2034 -91 
z
" transform="scale(0.015625)"/>
       </defs>
       <use xlink:href="#DejaVuSerif-30"/>
      </g>
     </g>
    </g>
    <g id="xtick_2">
     <g id="line2d_3">
      <path d="M 265.664318 419.46 
L 265.664318 58.32 
" clip-path="url(#pd5443f06b2)" style="fill: none; stroke-dasharray: 3.7,1.6; stroke-dashoffset: 0; stroke: #b0b0b0"/>
     </g>
     <g id="line2d_4">
      <g>
       <use xlink:href="#m2eaa8d17a0" x="265.664318" y="419.46" style="stroke: #000000; stroke-width: 2"/>
      </g>
     </g>
     <g id="text_2">
      <!-- 1 -->
      <g transform="translate(257.393068 442.715937) scale(0.26 -0.26)">
       <defs>
        <path id="DejaVuSerif-31" d="M 909 0 
L 909 331 
L 1722 331 
L 1722 4213 
L 781 3603 
L 781 4013 
L 1919 4750 
L 2350 4750 
L 2350 331 
L 3163 331 
L 3163 0 
L 909 0 
z
" transform="scale(0.015625)"/>
       </defs>
       <use xlink:href="#DejaVuSerif-31"/>
      </g>
     </g>
    </g>
    <g id="xtick_3">
     <g id="line2d_5">
      <path d="M 365.959773 419.46 
L 365.959773 58.32 
" clip-path="url(#pd5443f06b2)" style="fill: none; stroke-dasharray: 3.7,1.6; stroke-dashoffset: 0; stroke: #b0b0b0"/>
     </g>
     <g id="line2d_6">
      <g>
       <use xlink:href="#m2eaa8d17a0" x="365.959773" y="419.46" style="stroke: #000000; stroke-width: 2"/>
      </g>
     </g>
     <g id="text_3">
      <!-- 2 -->
      <g transform="translate(357.688523 442.715937) scale(0.26 -0.26)">
       <defs>
        <path id="DejaVuSerif-32" d="M 819 3553 
L 469 3553 
L 469 4384 
Q 803 4563 1142 4656 
Q 1481 4750 1806 4750 
Q 2534 4750 2956 4397 
Q 3378 4044 3378 3438 
Q 3378 2753 2422 1800 
Q 2347 1728 2309 1691 
L 1131 513 
L 3078 513 
L 3078 1088 
L 3444 1088 
L 3444 0 
L 434 0 
L 434 341 
L 1850 1753 
Q 2319 2222 2519 2614 
Q 2719 3006 2719 3438 
Q 2719 3909 2473 4175 
Q 2228 4441 1797 4441 
Q 1350 4441 1106 4219 
Q 863 3997 819 3553 
z
" transform="scale(0.015625)"/>
       </defs>
       <use xlink:href="#DejaVuSerif-32"/>
      </g>
     </g>
    </g>
    <g id="xtick_4">
     <g id="line2d_7">
      <path d="M 466.255227 419.46 
L 466.255227 58.32 
" clip-path="url(#pd5443f06b2)" style="fill: none; stroke-dasharray: 3.7,1.6; stroke-dashoffset: 0; stroke: #b0b0b0"/>
     </g>
     <g id="line2d_8">
      <g>
       <use xlink:href="#m2eaa8d17a0" x="466.255227" y="419.46" style="stroke: #000000; stroke-width: 2"/>
      </g>
     </g>
     <g id="text_4">
      <!-- 3 -->
      <g transform="translate(457.983977 442.715937) scale(0.26 -0.26)">
       <defs>
        <path id="DejaVuSerif-33" d="M 622 4469 
Q 988 4606 1323 4678 
Q 1659 4750 1953 4750 
Q 2638 4750 3022 4454 
Q 3406 4159 3406 3634 
Q 3406 3213 3140 2930 
Q 2875 2647 2388 2547 
Q 2963 2466 3280 2130 
Q 3597 1794 3597 1259 
Q 3597 606 3158 257 
Q 2719 -91 1894 -91 
Q 1528 -91 1179 -12 
Q 831 66 488 225 
L 488 1131 
L 838 1131 
Q 869 681 1141 450 
Q 1413 219 1906 219 
Q 2384 219 2661 495 
Q 2938 772 2938 1253 
Q 2938 1803 2653 2086 
Q 2369 2369 1819 2369 
L 1522 2369 
L 1522 2688 
L 1678 2688 
Q 2225 2688 2498 2914 
Q 2772 3141 2772 3597 
Q 2772 4006 2547 4223 
Q 2322 4441 1900 4441 
Q 1478 4441 1245 4241 
Q 1013 4041 972 3647 
L 622 3647 
L 622 4469 
z
" transform="scale(0.015625)"/>
       </defs>
       <use xlink:href="#DejaVuSerif-33"/>
      </g>
     </g>
    </g>
    <g id="xtick_5">
     <g id="line2d_9">
      <path d="M 566.550682 419.46 
L 566.550682 58.32 
" clip-path="url(#pd5443f06b2)" style="fill: none; stroke-dasharray: 3.7,1.6; stroke-dashoffset: 0; stroke: #b0b0b0"/>
     </g>
     <g id="line2d_10">
      <g>
       <use xlink:href="#m2eaa8d17a0" x="566.550682" y="419.46" style="stroke: #000000; stroke-width: 2"/>
      </g>
     </g>
     <g id="text_5">
      <!-- 4 -->
      <g transform="translate(558.279432 442.715937) scale(0.26 -0.26)">
       <defs>
        <path id="DejaVuSerif-34" d="M 2234 1581 
L 2234 4063 
L 641 1581 
L 2234 1581 
z
M 3609 0 
L 1484 0 
L 1484 331 
L 2234 331 
L 2234 1247 
L 197 1247 
L 197 1588 
L 2241 4750 
L 2859 4750 
L 2859 1581 
L 3750 1581 
L 3750 1247 
L 2859 1247 
L 2859 331 
L 3609 331 
L 3609 0 
z
" transform="scale(0.015625)"/>
       </defs>
       <use xlink:href="#DejaVuSerif-34"/>
      </g>
     </g>
    </g>
    <g id="xtick_6">
     <g id="line2d_11">
      <path d="M 666.846136 419.46 
L 666.846136 58.32 
" clip-path="url(#pd5443f06b2)" style="fill: none; stroke-dasharray: 3.7,1.6; stroke-dashoffset: 0; stroke: #b0b0b0"/>
     </g>
     <g id="line2d_12">
      <g>
       <use xlink:href="#m2eaa8d17a0" x="666.846136" y="419.46" style="stroke: #000000; stroke-width: 2"/>
      </g>
     </g>
     <g id="text_6">
      <!-- 5 -->
      <g transform="translate(658.574886 442.715937) scale(0.26 -0.26)">
       <defs>
        <path id="DejaVuSerif-35" d="M 3219 4666 
L 3219 4153 
L 1081 4153 
L 1081 2816 
Q 1244 2928 1461 2984 
Q 1678 3041 1947 3041 
Q 2703 3041 3140 2622 
Q 3578 2203 3578 1478 
Q 3578 738 3136 323 
Q 2694 -91 1894 -91 
Q 1572 -91 1234 -12 
Q 897 66 544 225 
L 544 1131 
L 897 1131 
Q 925 688 1179 453 
Q 1434 219 1894 219 
Q 2388 219 2653 544 
Q 2919 869 2919 1478 
Q 2919 2084 2655 2407 
Q 2391 2731 1894 2731 
Q 1613 2731 1398 2631 
Q 1184 2531 1019 2322 
L 750 2322 
L 750 4666 
L 3219 4666 
z
" transform="scale(0.015625)"/>
       </defs>
       <use xlink:href="#DejaVuSerif-35"/>
      </g>
     </g>
    </g>
    <g id="text_7">
     <!-- Time (a.u.) -->
     <g transform="translate(344.593281 471.879062) scale(0.26 -0.26)">
      <defs>
       <path id="DejaVuSerif-54" d="M 1222 0 
L 1222 331 
L 1819 331 
L 1819 4294 
L 447 4294 
L 447 3566 
L 63 3566 
L 63 4666 
L 4206 4666 
L 4206 3566 
L 3822 3566 
L 3822 4294 
L 2450 4294 
L 2450 331 
L 3047 331 
L 3047 0 
L 1222 0 
z
" transform="scale(0.015625)"/>
       <path id="DejaVuSerif-69" d="M 622 4353 
Q 622 4497 726 4603 
Q 831 4709 978 4709 
Q 1122 4709 1226 4603 
Q 1331 4497 1331 4353 
Q 1331 4206 1228 4103 
Q 1125 4000 978 4000 
Q 831 4000 726 4103 
Q 622 4206 622 4353 
z
M 1356 331 
L 1900 331 
L 1900 0 
L 231 0 
L 231 331 
L 781 331 
L 781 2988 
L 231 2988 
L 231 3322 
L 1356 3322 
L 1356 331 
z
" transform="scale(0.015625)"/>
       <path id="DejaVuSerif-6d" d="M 3316 2675 
Q 3481 3041 3739 3227 
Q 3997 3413 4341 3413 
Q 4863 3413 5119 3089 
Q 5375 2766 5375 2113 
L 5375 331 
L 5894 331 
L 5894 0 
L 4300 0 
L 4300 331 
L 4800 331 
L 4800 2047 
Q 4800 2556 4650 2772 
Q 4500 2988 4153 2988 
Q 3769 2988 3567 2697 
Q 3366 2406 3366 1850 
L 3366 331 
L 3866 331 
L 3866 0 
L 2291 0 
L 2291 331 
L 2791 331 
L 2791 2069 
Q 2791 2566 2641 2777 
Q 2491 2988 2144 2988 
Q 1759 2988 1557 2697 
Q 1356 2406 1356 1850 
L 1356 331 
L 1856 331 
L 1856 0 
L 263 0 
L 263 331 
L 781 331 
L 781 2994 
L 231 2994 
L 231 3322 
L 1356 3322 
L 1356 2731 
Q 1516 3063 1762 3238 
Q 2009 3413 2322 3413 
Q 2709 3413 2968 3220 
Q 3228 3028 3316 2675 
z
" transform="scale(0.015625)"/>
       <path id="DejaVuSerif-65" d="M 3469 1600 
L 991 1600 
L 991 1575 
Q 991 903 1244 561 
Q 1497 219 1991 219 
Q 2369 219 2611 417 
Q 2853 616 2950 1006 
L 3413 1006 
Q 3275 459 2904 184 
Q 2534 -91 1931 -91 
Q 1203 -91 761 389 
Q 319 869 319 1663 
Q 319 2450 753 2931 
Q 1188 3413 1894 3413 
Q 2647 3413 3050 2948 
Q 3453 2484 3469 1600 
z
M 2791 1931 
Q 2772 2513 2545 2808 
Q 2319 3103 1894 3103 
Q 1497 3103 1269 2806 
Q 1041 2509 991 1931 
L 2791 1931 
z
" transform="scale(0.015625)"/>
       <path id="DejaVuSerif-20" transform="scale(0.015625)"/>
       <path id="DejaVuSerif-28" d="M 2041 -997 
Q 1281 -656 893 83 
Q 506 822 506 1931 
Q 506 3044 893 3783 
Q 1281 4522 2041 4863 
L 2041 4556 
Q 1559 4225 1350 3623 
Q 1141 3022 1141 1931 
Q 1141 844 1350 242 
Q 1559 -359 2041 -691 
L 2041 -997 
z
" transform="scale(0.015625)"/>
       <path id="DejaVuSerif-61" d="M 2547 1044 
L 2547 1747 
L 1806 1747 
Q 1378 1747 1168 1562 
Q 959 1378 959 997 
Q 959 650 1171 447 
Q 1384 244 1747 244 
Q 2106 244 2326 466 
Q 2547 688 2547 1044 
z
M 3122 2075 
L 3122 331 
L 3634 331 
L 3634 0 
L 2547 0 
L 2547 359 
Q 2356 128 2106 18 
Q 1856 -91 1522 -91 
Q 969 -91 644 203 
Q 319 497 319 997 
Q 319 1513 691 1797 
Q 1063 2081 1741 2081 
L 2547 2081 
L 2547 2309 
Q 2547 2688 2317 2895 
Q 2088 3103 1672 3103 
Q 1328 3103 1125 2947 
Q 922 2791 872 2484 
L 575 2484 
L 575 3156 
Q 875 3284 1158 3348 
Q 1441 3413 1709 3413 
Q 2400 3413 2761 3070 
Q 3122 2728 3122 2075 
z
" transform="scale(0.015625)"/>
       <path id="DejaVuSerif-2e" d="M 603 325 
Q 603 500 722 622 
Q 841 744 1019 744 
Q 1191 744 1312 622 
Q 1434 500 1434 325 
Q 1434 153 1312 31 
Q 1191 -91 1019 -91 
Q 841 -91 722 29 
Q 603 150 603 325 
z
" transform="scale(0.015625)"/>
       <path id="DejaVuSerif-75" d="M 2266 3322 
L 3341 3322 
L 3341 331 
L 3884 331 
L 3884 0 
L 2766 0 
L 2766 588 
Q 2606 256 2353 82 
Q 2100 -91 1766 -91 
Q 1213 -91 952 223 
Q 691 538 691 1209 
L 691 2988 
L 172 2988 
L 172 3322 
L 1269 3322 
L 1269 1388 
Q 1269 781 1417 556 
Q 1566 331 1947 331 
Q 2347 331 2556 625 
Q 2766 919 2766 1478 
L 2766 2988 
L 2266 2988 
L 2266 3322 
z
" transform="scale(0.015625)"/>
       <path id="DejaVuSerif-29" d="M 453 -997 
L 453 -691 
Q 934 -359 1145 242 
Q 1356 844 1356 1931 
Q 1356 3022 1145 3623 
Q 934 4225 453 4556 
L 453 4863 
Q 1216 4522 1603 3783 
Q 1991 3044 1991 1931 
Q 1991 822 1603 83 
Q 1216 -656 453 -997 
z
" transform="scale(0.015625)"/>
      </defs>
      <use xlink:href="#DejaVuSerif-54"/>
      <use xlink:href="#DejaVuSerif-69" x="66.699219"/>
      <use xlink:href="#DejaVuSerif-6d" x="98.681641"/>
      <use xlink:href="#DejaVuSerif-65" x="193.505859"/>
      <use xlink:href="#DejaVuSerif-20" x="252.685547"/>
      <use xlink:href="#DejaVuSerif-28" x="284.472656"/>
      <use xlink:href="#DejaVuSerif-61" x="323.486328"/>
      <use xlink:href="#DejaVuSerif-2e" x="383.105469"/>
      <use xlink:href="#DejaVuSerif-75" x="414.892578"/>
      <use xlink:href="#DejaVuSerif-2e" x="479.296875"/>
      <use xlink:href="#DejaVuSerif-29" x="511.083984"/>
     </g>
    </g>
   </g>
   <g id="matplotlib.axis_2">
    <g id="ytick_1">
     <g id="line2d_13">
      <path d="M 140.295 403.0347 
L 691.92 403.0347 
" clip-path="url(#pd5443f06b2)" style="fill: none; stroke-dasharray: 3.7,1.6; stroke-dashoffset: 0; stroke: #b0b0b0"/>
     </g>
     <g id="line2d_14">
      <defs>
       <path id="mbef842eb67" d="M 0 0 
L 10 0 
" style="stroke: #000000; stroke-width: 2"/>
      </defs>
      <g>
       <use xlink:href="#mbef842eb67" x="140.295" y="403.0347" style="stroke: #000000; stroke-width: 2"/>
      </g>
     </g>
     <g id="text_8">
      <!-- −1.0 -->
      <g transform="translate(73.659688 412.912668) scale(0.26 -0.26)">
       <defs>
        <path id="DejaVuSerif-2212" d="M 678 2259 
L 4684 2259 
L 4684 1753 
L 678 1753 
L 678 2259 
z
" transform="scale(0.015625)"/>
       </defs>
       <use xlink:href="#DejaVuSerif-2212"/>
       <use xlink:href="#DejaVuSerif-31" x="83.789062"/>
       <use xlink:href="#DejaVuSerif-2e" x="147.412109"/>
       <use xlink:href="#DejaVuSerif-30" x="179.199219"/>
      </g>
     </g>
    </g>
    <g id="ytick_2">
     <g id="line2d_15">
      <path d="M 140.295 290.195725 
L 691.92 290.195725 
" clip-path="url(#pd5443f06b2)" style="fill: none; stroke-dasharray: 3.7,1.6; stroke-dashoffset: 0; stroke: #b0b0b0"/>
     </g>
     <g id="line2d_16">
      <g>
       <use xlink:href="#mbef842eb67" x="140.295" y="290.195725" style="stroke: #000000; stroke-width: 2"/>
      </g>
     </g>
     <g id="text_9">
      <!-- −0.5 -->
      <g transform="translate(73.659688 300.073693) scale(0.26 -0.26)">
       <use xlink:href="#DejaVuSerif-2212"/>
       <use xlink:href="#DejaVuSerif-30" x="83.789062"/>
       <use xlink:href="#DejaVuSerif-2e" x="147.412109"/>
       <use xlink:href="#DejaVuSerif-35" x="179.199219"/>
      </g>
     </g>
    </g>
    <g id="ytick_3">
     <g id="line2d_17">
      <path d="M 140.295 177.35675 
L 691.92 177.35675 
" clip-path="url(#pd5443f06b2)" style="fill: none; stroke-dasharray: 3.7,1.6; stroke-dashoffset: 0; stroke: #b0b0b0"/>
     </g>
     <g id="line2d_18">
      <g>
       <use xlink:href="#mbef842eb67" x="140.295" y="177.35675" style="stroke: #000000; stroke-width: 2"/>
      </g>
     </g>
     <g id="text_10">
      <!-- 0.0 -->
      <g transform="translate(95.446875 187.234718) scale(0.26 -0.26)">
       <use xlink:href="#DejaVuSerif-30"/>
       <use xlink:href="#DejaVuSerif-2e" x="63.623047"/>
       <use xlink:href="#DejaVuSerif-30" x="95.410156"/>
      </g>
     </g>
    </g>
    <g id="ytick_4">
     <g id="line2d_19">
      <path d="M 140.295 64.517775 
L 691.92 64.517775 
" clip-path="url(#pd5443f06b2)" style="fill: none; stroke-dasharray: 3.7,1.6; stroke-dashoffset: 0; stroke: #b0b0b0"/>
     </g>
     <g id="line2d_20">
      <g>
       <use xlink:href="#mbef842eb67" x="140.295" y="64.517775" style="stroke: #000000; stroke-width: 2"/>
      </g>
     </g>
     <g id="text_11">
      <!-- 0.5 -->
      <g transform="translate(95.446875 74.395743) scale(0.26 -0.26)">
       <use xlink:href="#DejaVuSerif-30"/>
       <use xlink:href="#DejaVuSerif-2e" x="63.623047"/>
       <use xlink:href="#DejaVuSerif-35" x="95.410156"/>
      </g>
     </g>
    </g>
    <g id="text_12">
     <!-- Energy Components (a.u.) -->
     <g transform="translate(63.882813 411.706719) rotate(-90) scale(0.26 -0.26)">
      <defs>
       <path id="DejaVuSerif-45" d="M 353 0 
L 353 331 
L 947 331 
L 947 4331 
L 353 4331 
L 353 4666 
L 4109 4666 
L 4109 3628 
L 3725 3628 
L 3725 4281 
L 1581 4281 
L 1581 2719 
L 3109 2719 
L 3109 3303 
L 3494 3303 
L 3494 1753 
L 3109 1753 
L 3109 2338 
L 1581 2338 
L 1581 384 
L 3775 384 
L 3775 1038 
L 4159 1038 
L 4159 0 
L 353 0 
z
" transform="scale(0.015625)"/>
       <path id="DejaVuSerif-6e" d="M 263 0 
L 263 331 
L 781 331 
L 781 2988 
L 231 2988 
L 231 3322 
L 1356 3322 
L 1356 2731 
Q 1516 3069 1770 3241 
Q 2025 3413 2363 3413 
Q 2913 3413 3172 3097 
Q 3431 2781 3431 2113 
L 3431 331 
L 3944 331 
L 3944 0 
L 2356 0 
L 2356 331 
L 2853 331 
L 2853 1931 
Q 2853 2541 2703 2767 
Q 2553 2994 2175 2994 
Q 1775 2994 1565 2701 
Q 1356 2409 1356 1850 
L 1356 331 
L 1856 331 
L 1856 0 
L 263 0 
z
" transform="scale(0.015625)"/>
       <path id="DejaVuSerif-72" d="M 3059 3328 
L 3059 2497 
L 2728 2497 
Q 2713 2744 2591 2866 
Q 2469 2988 2234 2988 
Q 1809 2988 1582 2694 
Q 1356 2400 1356 1850 
L 1356 331 
L 2022 331 
L 2022 0 
L 263 0 
L 263 331 
L 781 331 
L 781 2994 
L 231 2994 
L 231 3322 
L 1356 3322 
L 1356 2731 
Q 1525 3078 1790 3245 
Q 2056 3413 2438 3413 
Q 2578 3413 2733 3391 
Q 2888 3369 3059 3328 
z
" transform="scale(0.015625)"/>
       <path id="DejaVuSerif-67" d="M 3359 2988 
L 3359 72 
Q 3359 -644 2965 -1033 
Q 2572 -1422 1844 -1422 
Q 1516 -1422 1216 -1362 
Q 916 -1303 641 -1184 
L 641 -488 
L 941 -488 
Q 997 -813 1206 -963 
Q 1416 -1113 1806 -1113 
Q 2313 -1113 2548 -827 
Q 2784 -541 2784 72 
L 2784 519 
Q 2616 206 2355 57 
Q 2094 -91 1709 -91 
Q 1097 -91 708 395 
Q 319 881 319 1663 
Q 319 2444 706 2928 
Q 1094 3413 1709 3413 
Q 2094 3413 2355 3264 
Q 2616 3116 2784 2803 
L 2784 3322 
L 3909 3322 
L 3909 2988 
L 3359 2988 
z
M 2784 1825 
Q 2784 2422 2554 2737 
Q 2325 3053 1888 3053 
Q 1444 3053 1217 2703 
Q 991 2353 991 1663 
Q 991 975 1217 622 
Q 1444 269 1888 269 
Q 2325 269 2554 583 
Q 2784 897 2784 1497 
L 2784 1825 
z
" transform="scale(0.015625)"/>
       <path id="DejaVuSerif-79" d="M 1381 -609 
L 1600 -56 
L 359 2988 
L -19 2988 
L -19 3322 
L 1509 3322 
L 1509 2988 
L 978 2988 
L 1913 703 
L 2847 2988 
L 2350 2988 
L 2350 3322 
L 3597 3322 
L 3597 2988 
L 3225 2988 
L 1703 -750 
Q 1547 -1138 1356 -1280 
Q 1166 -1422 819 -1422 
Q 672 -1422 517 -1397 
Q 363 -1372 206 -1325 
L 206 -691 
L 500 -691 
Q 519 -903 608 -995 
Q 697 -1088 884 -1088 
Q 1056 -1088 1161 -992 
Q 1266 -897 1381 -609 
z
" transform="scale(0.015625)"/>
       <path id="DejaVuSerif-43" d="M 4513 1234 
Q 4306 581 3820 245 
Q 3334 -91 2591 -91 
Q 2134 -91 1743 65 
Q 1353 222 1050 525 
Q 700 875 529 1320 
Q 359 1766 359 2328 
Q 359 3416 987 4083 
Q 1616 4750 2644 4750 
Q 3025 4750 3456 4650 
Q 3888 4550 4384 4347 
L 4384 3272 
L 4031 3272 
Q 3916 3859 3567 4137 
Q 3219 4416 2591 4416 
Q 1844 4416 1459 3886 
Q 1075 3356 1075 2328 
Q 1075 1303 1459 773 
Q 1844 244 2591 244 
Q 3113 244 3450 492 
Q 3788 741 3938 1234 
L 4513 1234 
z
" transform="scale(0.015625)"/>
       <path id="DejaVuSerif-6f" d="M 1925 219 
Q 2388 219 2623 584 
Q 2859 950 2859 1663 
Q 2859 2375 2623 2739 
Q 2388 3103 1925 3103 
Q 1463 3103 1227 2739 
Q 991 2375 991 1663 
Q 991 950 1228 584 
Q 1466 219 1925 219 
z
M 1925 -91 
Q 1200 -91 759 389 
Q 319 869 319 1663 
Q 319 2456 758 2934 
Q 1197 3413 1925 3413 
Q 2653 3413 3092 2934 
Q 3531 2456 3531 1663 
Q 3531 869 3092 389 
Q 2653 -91 1925 -91 
z
" transform="scale(0.015625)"/>
       <path id="DejaVuSerif-70" d="M 1313 1825 
L 1313 1497 
Q 1313 897 1542 583 
Q 1772 269 2209 269 
Q 2650 269 2876 622 
Q 3103 975 3103 1663 
Q 3103 2353 2876 2703 
Q 2650 3053 2209 3053 
Q 1772 3053 1542 2737 
Q 1313 2422 1313 1825 
z
M 738 2988 
L 184 2988 
L 184 3322 
L 1313 3322 
L 1313 2803 
Q 1481 3116 1742 3264 
Q 2003 3413 2388 3413 
Q 3000 3413 3387 2928 
Q 3775 2444 3775 1663 
Q 3775 881 3387 395 
Q 3000 -91 2388 -91 
Q 2003 -91 1742 57 
Q 1481 206 1313 519 
L 1313 -997 
L 1856 -997 
L 1856 -1331 
L 184 -1331 
L 184 -997 
L 738 -997 
L 738 2988 
z
" transform="scale(0.015625)"/>
       <path id="DejaVuSerif-74" d="M 691 2988 
L 184 2988 
L 184 3322 
L 691 3322 
L 691 4353 
L 1269 4353 
L 1269 3322 
L 2350 3322 
L 2350 2988 
L 1269 2988 
L 1269 878 
Q 1269 456 1350 337 
Q 1431 219 1650 219 
Q 1875 219 1978 351 
Q 2081 484 2088 781 
L 2522 781 
Q 2497 328 2275 118 
Q 2053 -91 1600 -91 
Q 1103 -91 897 129 
Q 691 350 691 878 
L 691 2988 
z
" transform="scale(0.015625)"/>
       <path id="DejaVuSerif-73" d="M 359 184 
L 359 959 
L 691 959 
Q 703 588 923 403 
Q 1144 219 1575 219 
Q 1963 219 2166 364 
Q 2369 509 2369 788 
Q 2369 1006 2220 1140 
Q 2072 1275 1594 1428 
L 1178 1569 
Q 750 1706 558 1912 
Q 366 2119 366 2438 
Q 366 2894 700 3153 
Q 1034 3413 1625 3413 
Q 1888 3413 2178 3344 
Q 2469 3275 2778 3144 
L 2778 2419 
L 2447 2419 
Q 2434 2741 2221 2922 
Q 2009 3103 1644 3103 
Q 1281 3103 1095 2975 
Q 909 2847 909 2591 
Q 909 2381 1050 2254 
Q 1191 2128 1613 1997 
L 2069 1856 
Q 2541 1709 2748 1489 
Q 2956 1269 2956 922 
Q 2956 450 2595 179 
Q 2234 -91 1600 -91 
Q 1278 -91 972 -22 
Q 666 47 359 184 
z
" transform="scale(0.015625)"/>
      </defs>
      <use xlink:href="#DejaVuSerif-45"/>
      <use xlink:href="#DejaVuSerif-6e" x="72.998047"/>
      <use xlink:href="#DejaVuSerif-65" x="137.402344"/>
      <use xlink:href="#DejaVuSerif-72" x="196.582031"/>
      <use xlink:href="#DejaVuSerif-67" x="244.384766"/>
      <use xlink:href="#DejaVuSerif-79" x="308.398438"/>
      <use xlink:href="#DejaVuSerif-20" x="364.892578"/>
      <use xlink:href="#DejaVuSerif-43" x="396.679688"/>
      <use xlink:href="#DejaVuSerif-6f" x="473.193359"/>
      <use xlink:href="#DejaVuSerif-6d" x="533.398438"/>
      <use xlink:href="#DejaVuSerif-70" x="628.222656"/>
      <use xlink:href="#DejaVuSerif-6f" x="692.236328"/>
      <use xlink:href="#DejaVuSerif-6e" x="752.441406"/>
      <use xlink:href="#DejaVuSerif-65" x="816.845703"/>
      <use xlink:href="#DejaVuSerif-6e" x="876.025391"/>
      <use xlink:href="#DejaVuSerif-74" x="940.429688"/>
      <use xlink:href="#DejaVuSerif-73" x="980.615234"/>
      <use xlink:href="#DejaVuSerif-20" x="1031.933594"/>
      <use xlink:href="#DejaVuSerif-28" x="1063.720703"/>
      <use xlink:href="#DejaVuSerif-61" x="1102.734375"/>
      <use xlink:href="#DejaVuSerif-2e" x="1162.353516"/>
      <use xlink:href="#DejaVuSerif-75" x="1194.140625"/>
      <use xlink:href="#DejaVuSerif-2e" x="1258.544922"/>
      <use xlink:href="#DejaVuSerif-29" x="1290.332031"/>
     </g>
    </g>
   </g>
   <g id="line2d_21">
    <path d="M 165.368864 74.748902 
L 170.434291 74.745862 
L 175.499718 74.743004 
L 180.565145 74.740462 
L 185.630572 74.738351 
L 190.695999 74.736769 
L 195.761426 74.735789 
L 200.826853 74.735455 
L 205.89228 74.735782 
L 210.957707 74.736755 
L 216.023134 74.738331 
L 221.088561 74.740434 
L 226.153988 74.742971 
L 231.219415 74.745825 
L 236.284842 74.748866 
L 241.350269 74.751955 
L 246.415696 74.75495 
L 251.481123 74.757714 
L 256.54655 74.760122 
L 261.611977 74.762062 
L 266.677404 74.763447 
L 271.742831 74.764212 
L 276.808258 74.764323 
L 281.873685 74.763774 
L 286.939112 74.762591 
L 292.004539 74.760827 
L 297.069966 74.758564 
L 302.135393 74.755904 
L 307.20082 74.752971 
L 312.266247 74.749896 
L 317.331674 74.746822 
L 322.397101 74.743887 
L 327.462528 74.741226 
L 332.527955 74.738963 
L 337.593382 74.7372 
L 342.658809 74.736018 
L 347.724236 74.735472 
L 352.789663 74.735586 
L 357.85509 74.736356 
L 362.920517 74.737746 
L 367.985944 74.739692 
L 373.051371 74.742106 
L 378.116798 74.744875 
L 383.182225 74.747875 
L 388.247652 74.750968 
L 393.313079 74.754012 
L 398.378506 74.756866 
L 403.443933 74.759406 
L 408.50936 74.761511 
L 413.574787 74.763086 
L 418.640213 74.764057 
L 423.70564 74.76438 
L 428.771067 74.764042 
L 433.836494 74.763057 
L 438.901921 74.76147 
L 443.967348 74.759354 
L 449.032775 74.756806 
L 454.098202 74.753942 
L 459.163629 74.750893 
L 464.229056 74.747799 
L 469.294483 74.744801 
L 474.35991 74.742037 
L 479.425337 74.739632 
L 484.490764 74.737698 
L 489.556191 74.736323 
L 494.621618 74.73557 
L 499.687045 74.735473 
L 504.752472 74.736035 
L 509.817899 74.737232 
L 514.883326 74.739009 
L 519.948753 74.741284 
L 525.01418 74.743953 
L 530.079607 74.746894 
L 535.145034 74.749972 
L 540.210461 74.753047 
L 545.275888 74.755977 
L 550.341315 74.75863 
L 555.406742 74.760883 
L 560.472169 74.762634 
L 565.537596 74.763802 
L 570.603023 74.764334 
L 575.66845 74.764206 
L 580.733877 74.763424 
L 585.799304 74.762023 
L 590.864731 74.760068 
L 595.930158 74.757649 
L 600.995585 74.754875 
L 606.061012 74.751875 
L 611.126439 74.748784 
L 616.191866 74.745745 
L 621.257293 74.742897 
L 626.32272 74.740371 
L 631.388147 74.73828 
L 636.453574 74.736723 
L 641.519001 74.735769 
L 646.584428 74.735462 
L 651.649855 74.735816 
L 656.715282 74.736815 
L 661.780709 74.738412 
L 666.846136 74.740535 
" clip-path="url(#pd5443f06b2)" style="fill: none; stroke: #1f77b4; stroke-width: 3; stroke-linecap: square"/>
   </g>
   <g id="line2d_22">
    <path d="M 165.368864 403.033844 
L 170.434291 403.036856 
L 175.499718 403.039517 
L 180.565145 403.041701 
L 185.630572 403.04331 
L 190.695999 403.04427 
L 195.761426 403.044534 
L 200.826853 403.044094 
L 205.89228 403.042967 
L 210.957707 403.041207 
L 216.023134 403.038892 
L 221.088561 403.036133 
L 226.153988 403.033051 
L 231.219415 403.02979 
L 236.284842 403.026497 
L 241.350269 403.023324 
L 246.415696 403.020415 
L 251.481123 403.017904 
L 256.54655 403.015906 
L 261.611977 403.014511 
L 266.677404 403.013784 
L 271.742831 403.013758 
L 276.808258 403.014435 
L 281.873685 403.015783 
L 286.939112 403.017742 
L 292.004539 403.02022 
L 297.069966 403.023105 
L 302.135393 403.026265 
L 307.20082 403.029556 
L 312.266247 403.032826 
L 317.331674 403.035929 
L 322.397101 403.03872 
L 327.462528 403.041073 
L 332.527955 403.042878 
L 337.593382 403.044054 
L 342.658809 403.044545 
L 347.724236 403.044331 
L 352.789663 403.04342 
L 357.85509 403.041854 
L 362.920517 403.039705 
L 367.985944 403.037072 
L 373.051371 403.034074 
L 378.116798 403.03085 
L 383.182225 403.027547 
L 388.247652 403.024315 
L 393.313079 403.021302 
L 398.378506 403.018649 
L 403.443933 403.01647 
L 408.50936 403.01487 
L 413.574787 403.01392 
L 418.640213 403.013667 
L 423.70564 403.01412 
L 428.771067 403.015259 
L 433.836494 403.017032 
L 438.901921 403.019358 
L 443.967348 403.02213 
L 449.032775 403.025222 
L 454.098202 403.028491 
L 459.163629 403.031789 
L 464.229056 403.034965 
L 469.294483 403.037873 
L 474.35991 403.040381 
L 479.425337 403.042373 
L 484.490764 403.043758 
L 489.556191 403.044472 
L 494.621618 403.044483 
L 499.687045 403.043791 
L 504.752472 403.042428 
L 509.817899 403.040456 
L 514.883326 403.037966 
L 519.948753 403.035071 
L 525.01418 403.031903 
L 530.079607 403.028608 
L 535.145034 403.025338 
L 540.210461 403.02224 
L 545.275888 403.019457 
L 550.341315 403.017115 
L 555.406742 403.015323 
L 560.472169 403.014162 
L 565.537596 403.013685 
L 570.603023 403.013914 
L 575.66845 403.014839 
L 580.733877 403.016416 
L 585.799304 403.018574 
L 590.864731 403.021214 
L 595.930158 403.024215 
L 600.995585 403.027439 
L 606.061012 403.03074 
L 611.126439 403.033966 
L 616.191866 403.03697 
L 621.257293 403.039613 
L 626.32272 403.041776 
L 631.388147 403.043358 
L 636.453574 403.044288 
L 641.519001 403.044524 
L 646.584428 403.044055 
L 651.649855 403.042901 
L 656.715282 403.041117 
L 661.780709 403.038784 
L 666.846136 403.036009 
" clip-path="url(#pd5443f06b2)" style="fill: none; stroke: #ff7f0e; stroke-width: 3; stroke-linecap: square"/>
   </g>
   <g id="line2d_23">
    <path d="M 165.368864 177.35675 
L 170.434291 177.35675 
L 175.499718 177.35675 
L 180.565145 177.35675 
L 185.630572 177.35675 
L 190.695999 177.35675 
L 195.761426 177.35675 
L 200.826853 177.35675 
L 205.89228 177.35675 
L 210.957707 177.35675 
L 216.023134 177.35675 
L 221.088561 177.35675 
L 226.153988 177.35675 
L 231.219415 177.35675 
L 236.284842 177.35675 
L 241.350269 177.35675 
L 246.415696 177.35675 
L 251.481123 177.35675 
L 256.54655 177.35675 
L 261.611977 177.35675 
L 266.677404 177.35675 
L 271.742831 177.35675 
L 276.808258 177.35675 
L 281.873685 177.35675 
L 286.939112 177.35675 
L 292.004539 177.35675 
L 297.069966 177.35675 
L 302.135393 177.35675 
L 307.20082 177.35675 
L 312.266247 177.35675 
L 317.331674 177.35675 
L 322.397101 177.35675 
L 327.462528 177.35675 
L 332.527955 177.35675 
L 337.593382 177.35675 
L 342.658809 177.35675 
L 347.724236 177.35675 
L 352.789663 177.35675 
L 357.85509 177.35675 
L 362.920517 177.35675 
L 367.985944 177.35675 
L 373.051371 177.35675 
L 378.116798 177.35675 
L 383.182225 177.35675 
L 388.247652 177.35675 
L 393.313079 177.35675 
L 398.378506 177.35675 
L 403.443933 177.35675 
L 408.50936 177.35675 
L 413.574787 177.35675 
L 418.640213 177.35675 
L 423.70564 177.35675 
L 428.771067 177.35675 
L 433.836494 177.35675 
L 438.901921 177.35675 
L 443.967348 177.35675 
L 449.032775 177.35675 
L 454.098202 177.35675 
L 459.163629 177.35675 
L 464.229056 177.35675 
L 469.294483 177.35675 
L 474.35991 177.35675 
L 479.425337 177.35675 
L 484.490764 177.35675 
L 489.556191 177.35675 
L 494.621618 177.35675 
L 499.687045 177.35675 
L 504.752472 177.35675 
L 509.817899 177.35675 
L 514.883326 177.35675 
L 519.948753 177.35675 
L 525.01418 177.35675 
L 530.079607 177.35675 
L 535.145034 177.35675 
L 540.210461 177.35675 
L 545.275888 177.35675 
L 550.341315 177.35675 
L 555.406742 177.35675 
L 560.472169 177.35675 
L 565.537596 177.35675 
L 570.603023 177.35675 
L 575.66845 177.35675 
L 580.733877 177.35675 
L 585.799304 177.35675 
L 590.864731 177.35675 
L 595.930158 177.35675 
L 600.995585 177.35675 
L 606.061012 177.35675 
L 611.126439 177.35675 
L 616.191866 177.35675 
L 621.257293 177.35675 
L 626.32272 177.35675 
L 631.388147 177.35675 
L 636.453574 177.35675 
L 641.519001 177.35675 
L 646.584428 177.35675 
L 651.649855 177.35675 
L 656.715282 177.35675 
L 661.780709 177.35675 
L 666.846136 177.35675 
" clip-path="url(#pd5443f06b2)" style="fill: none; stroke: #2ca02c; stroke-width: 3; stroke-linecap: square"/>
   </g>
   <g id="line2d_24">
    <path d="M 165.368864 167.09575 
L 170.434291 167.095778 
L 175.499718 167.095975 
L 180.565145 167.096332 
L 185.630572 167.096833 
L 190.695999 167.097455 
L 195.761426 167.09817 
L 200.826853 167.098945 
L 205.89228 167.099745 
L 210.957707 167.100532 
L 216.023134 167.101271 
L 221.088561 167.101928 
L 226.153988 167.102473 
L 231.219415 167.102881 
L 236.284842 167.103133 
L 241.350269 167.103219 
L 246.415696 167.103133 
L 251.481123 167.102881 
L 256.54655 167.102472 
L 261.611977 167.101927 
L 266.677404 167.10127 
L 271.742831 167.100531 
L 276.808258 167.099743 
L 281.873685 167.098944 
L 286.939112 167.098169 
L 292.004539 167.097453 
L 297.069966 167.096831 
L 302.135393 167.096329 
L 307.20082 167.095972 
L 312.266247 167.095774 
L 317.331674 167.095746 
L 322.397101 167.095889 
L 327.462528 167.096196 
L 332.527955 167.096653 
L 337.593382 167.09724 
L 342.658809 167.09793 
L 347.724236 167.09869 
L 352.789663 167.099487 
L 357.85509 167.100283 
L 362.920517 167.101043 
L 367.985944 167.10173 
L 373.051371 167.102315 
L 378.116798 167.10277 
L 383.182225 167.103075 
L 388.247652 167.103215 
L 393.313079 167.103184 
L 398.378506 167.102984 
L 403.443933 167.102624 
L 408.50936 167.10212 
L 413.574787 167.101495 
L 418.640213 167.100778 
L 423.70564 167.100001 
L 428.771067 167.0992 
L 433.836494 167.098412 
L 438.901921 167.097672 
L 443.967348 167.097016 
L 449.032775 167.096472 
L 454.098202 167.096065 
L 459.163629 167.095815 
L 464.229056 167.095732 
L 469.294483 167.095821 
L 474.35991 167.096077 
L 479.425337 167.096489 
L 484.490764 167.097038 
L 489.556191 167.097699 
L 494.621618 167.09844 
L 499.687045 167.09923 
L 504.752472 167.10003 
L 509.817899 167.100805 
L 514.883326 167.10152 
L 519.948753 167.10214 
L 525.01418 167.10264 
L 530.079607 167.102994 
L 535.145034 167.103188 
L 540.210461 167.103212 
L 545.275888 167.103065 
L 550.341315 167.102754 
L 555.406742 167.102294 
L 560.472169 167.101705 
L 565.537596 167.101014 
L 570.603023 167.100253 
L 575.66845 167.099456 
L 580.733877 167.098661 
L 585.799304 167.097903 
L 590.864731 167.097218 
L 595.930158 167.096636 
L 600.995585 167.096184 
L 606.061012 167.095883 
L 611.126439 167.095746 
L 616.191866 167.095781 
L 621.257293 167.095985 
L 626.32272 167.096348 
L 631.388147 167.096855 
L 636.453574 167.097482 
L 641.519001 167.098201 
L 646.584428 167.098977 
L 651.649855 167.099776 
L 656.715282 167.100562 
L 661.780709 167.101298 
L 666.846136 167.10195 
" clip-path="url(#pd5443f06b2)" style="fill: none; stroke: #d62728; stroke-width: 3; stroke-linecap: square"/>
   </g>
   <g id="line2d_25">
    <path d="M 165.368864 290.164998 
L 170.434291 290.164997 
L 175.499718 290.164996 
L 180.565145 290.164995 
L 185.630572 290.164995 
L 190.695999 290.164994 
L 195.761426 290.164994 
L 200.826853 290.164994 
L 205.89228 290.164994 
L 210.957707 290.164994 
L 216.023134 290.164995 
L 221.088561 290.164995 
L 226.153988 290.164996 
L 231.219415 290.164997 
L 236.284842 290.164998 
L 241.350269 290.164999 
L 246.415696 290.164999 
L 251.481123 290.165 
L 256.54655 290.165001 
L 261.611977 290.165001 
L 266.677404 290.165002 
L 271.742831 290.165002 
L 276.808258 290.165002 
L 281.873685 290.165002 
L 286.939112 290.165001 
L 292.004539 290.165001 
L 297.069966 290.165 
L 302.135393 290.165 
L 307.20082 290.164999 
L 312.266247 290.164998 
L 317.331674 290.164997 
L 322.397101 290.164996 
L 327.462528 290.164996 
L 332.527955 290.164995 
L 337.593382 290.164995 
L 342.658809 290.164994 
L 347.724236 290.164994 
L 352.789663 290.164994 
L 357.85509 290.164994 
L 362.920517 290.164995 
L 367.985944 290.164995 
L 373.051371 290.164996 
L 378.116798 290.164997 
L 383.182225 290.164997 
L 388.247652 290.164998 
L 393.313079 290.164999 
L 398.378506 290.165 
L 403.443933 290.165001 
L 408.50936 290.165001 
L 413.574787 290.165002 
L 418.640213 290.165002 
L 423.70564 290.165002 
L 428.771067 290.165002 
L 433.836494 290.165002 
L 438.901921 290.165001 
L 443.967348 290.165001 
L 449.032775 290.165 
L 454.098202 290.164999 
L 459.163629 290.164998 
L 464.229056 290.164997 
L 469.294483 290.164997 
L 474.35991 290.164996 
L 479.425337 290.164995 
L 484.490764 290.164995 
L 489.556191 290.164994 
L 494.621618 290.164994 
L 499.687045 290.164994 
L 504.752472 290.164994 
L 509.817899 290.164995 
L 514.883326 290.164995 
L 519.948753 290.164996 
L 525.01418 290.164996 
L 530.079607 290.164997 
L 535.145034 290.164998 
L 540.210461 290.164999 
L 545.275888 290.165 
L 550.341315 290.165 
L 555.406742 290.165001 
L 560.472169 290.165002 
L 565.537596 290.165002 
L 570.603023 290.165002 
L 575.66845 290.165002 
L 580.733877 290.165002 
L 585.799304 290.165001 
L 590.864731 290.165001 
L 595.930158 290.165 
L 600.995585 290.164999 
L 606.061012 290.164999 
L 611.126439 290.164998 
L 616.191866 290.164997 
L 621.257293 290.164996 
L 626.32272 290.164995 
L 631.388147 290.164995 
L 636.453574 290.164994 
L 641.519001 290.164994 
L 646.584428 290.164994 
L 651.649855 290.164994 
L 656.715282 290.164994 
L 661.780709 290.164995 
L 666.846136 290.164995 
" clip-path="url(#pd5443f06b2)" style="fill: none; stroke-dasharray: 11.1,4.8; stroke-dashoffset: 0; stroke: #000000; stroke-width: 3"/>
   </g>
   <g id="patch_3">
    <path d="M 140.295 419.46 
L 140.295 58.32 
" style="fill: none; stroke: #000000; stroke-width: 2; stroke-linejoin: miter; stroke-linecap: square"/>
   </g>
   <g id="patch_4">
    <path d="M 691.92 419.46 
L 691.92 58.32 
" style="fill: none; stroke: #000000; stroke-width: 2; stroke-linejoin: miter; stroke-linecap: square"/>
   </g>
   <g id="patch_5">
    <path d="M 140.295 419.46 
L 691.92 419.46 
" style="fill: none; stroke: #000000; stroke-width: 2; stroke-linejoin: miter; stroke-linecap: square"/>
   </g>
   <g id="patch_6">
    <path d="M 140.295 58.32 
L 691.92 58.32 
" style="fill: none; stroke: #000000; stroke-width: 2; stroke-linejoin: miter; stroke-linecap: square"/>
   </g>
   <g id="text_13">
    <!-- Energy Components vs. Time -->
    <g transform="translate(184.00875 51.38775) scale(0.312 -0.312)">
     <defs>
      <path id="DejaVuSerif-76" d="M 1581 0 
L 359 2988 
L -19 2988 
L -19 3322 
L 1509 3322 
L 1509 2988 
L 978 2988 
L 1913 703 
L 2847 2988 
L 2350 2988 
L 2350 3322 
L 3597 3322 
L 3597 2988 
L 3225 2988 
L 2003 0 
L 1581 0 
z
" transform="scale(0.015625)"/>
     </defs>
     <use xlink:href="#DejaVuSerif-45"/>
     <use xlink:href="#DejaVuSerif-6e" x="72.998047"/>
     <use xlink:href="#DejaVuSerif-65" x="137.402344"/>
     <use xlink:href="#DejaVuSerif-72" x="196.582031"/>
     <use xlink:href="#DejaVuSerif-67" x="244.384766"/>
     <use xlink:href="#DejaVuSerif-79" x="308.398438"/>
     <use xlink:href="#DejaVuSerif-20" x="364.892578"/>
     <use xlink:href="#DejaVuSerif-43" x="396.679688"/>
     <use xlink:href="#DejaVuSerif-6f" x="473.193359"/>
     <use xlink:href="#DejaVuSerif-6d" x="533.398438"/>
     <use xlink:href="#DejaVuSerif-70" x="628.222656"/>
     <use xlink:href="#DejaVuSerif-6f" x="692.236328"/>
     <use xlink:href="#DejaVuSerif-6e" x="752.441406"/>
     <use xlink:href="#DejaVuSerif-65" x="816.845703"/>
     <use xlink:href="#DejaVuSerif-6e" x="876.025391"/>
     <use xlink:href="#DejaVuSerif-74" x="940.429688"/>
     <use xlink:href="#DejaVuSerif-73" x="980.615234"/>
     <use xlink:href="#DejaVuSerif-20" x="1031.933594"/>
     <use xlink:href="#DejaVuSerif-76" x="1063.720703"/>
     <use xlink:href="#DejaVuSerif-73" x="1120.214844"/>
     <use xlink:href="#DejaVuSerif-2e" x="1171.533203"/>
     <use xlink:href="#DejaVuSerif-20" x="1203.320312"/>
     <use xlink:href="#DejaVuSerif-54" x="1235.107422"/>
     <use xlink:href="#DejaVuSerif-69" x="1301.806641"/>
     <use xlink:href="#DejaVuSerif-6d" x="1333.789062"/>
     <use xlink:href="#DejaVuSerif-65" x="1428.613281"/>
    </g>
   </g>
   <g id="legend_1">
    <g id="patch_7">
     <path d="M 154.295 409.46 
L 370.366875 409.46 
Q 374.366875 409.46 374.366875 405.46 
L 374.366875 260.394375 
Q 374.366875 256.394375 370.366875 256.394375 
L 154.295 256.394375 
Q 150.295 256.394375 150.295 260.394375 
L 150.295 405.46 
Q 150.295 409.46 154.295 409.46 
z
" style="fill: #ffffff; opacity: 0.8; stroke: #cccccc; stroke-linejoin: miter"/>
    </g>
    <g id="line2d_26">
     <path d="M 158.295 272.59125 
L 178.295 272.59125 
L 198.295 272.59125 
" style="fill: none; stroke: #1f77b4; stroke-width: 3; stroke-linecap: square"/>
    </g>
    <g id="text_14">
     <!-- Kinetic E -->
     <g transform="translate(214.295 279.59125) scale(0.2 -0.2)">
      <defs>
       <path id="DejaVuSerif-4b" d="M 353 0 
L 353 331 
L 947 331 
L 947 4331 
L 353 4331 
L 353 4666 
L 2175 4666 
L 2175 4331 
L 1581 4331 
L 1581 2566 
L 3591 4331 
L 3084 4331 
L 3084 4666 
L 4634 4666 
L 4634 4331 
L 4109 4331 
L 2106 2572 
L 4347 331 
L 4878 331 
L 4878 0 
L 3794 0 
L 1581 2216 
L 1581 331 
L 2175 331 
L 2175 0 
L 353 0 
z
" transform="scale(0.015625)"/>
       <path id="DejaVuSerif-63" d="M 3291 997 
Q 3169 466 2822 187 
Q 2475 -91 1925 -91 
Q 1200 -91 759 389 
Q 319 869 319 1663 
Q 319 2459 759 2936 
Q 1200 3413 1925 3413 
Q 2241 3413 2553 3339 
Q 2866 3266 3181 3116 
L 3181 2266 
L 2847 2266 
Q 2781 2703 2561 2903 
Q 2341 3103 1931 3103 
Q 1466 3103 1228 2742 
Q 991 2381 991 1663 
Q 991 944 1227 581 
Q 1463 219 1931 219 
Q 2303 219 2525 412 
Q 2747 606 2828 997 
L 3291 997 
z
" transform="scale(0.015625)"/>
      </defs>
      <use xlink:href="#DejaVuSerif-4b"/>
      <use xlink:href="#DejaVuSerif-69" x="74.707031"/>
      <use xlink:href="#DejaVuSerif-6e" x="106.689453"/>
      <use xlink:href="#DejaVuSerif-65" x="171.09375"/>
      <use xlink:href="#DejaVuSerif-74" x="230.273438"/>
      <use xlink:href="#DejaVuSerif-69" x="270.458984"/>
      <use xlink:href="#DejaVuSerif-63" x="302.441406"/>
      <use xlink:href="#DejaVuSerif-20" x="358.447266"/>
      <use xlink:href="#DejaVuSerif-45" x="390.234375"/>
     </g>
    </g>
    <g id="line2d_27">
     <path d="M 158.295 301.9475 
L 178.295 301.9475 
L 198.295 301.9475 
" style="fill: none; stroke: #ff7f0e; stroke-width: 3; stroke-linecap: square"/>
    </g>
    <g id="text_15">
     <!-- PE e-N -->
     <g transform="translate(214.295 308.9475) scale(0.2 -0.2)">
      <defs>
       <path id="DejaVuSerif-50" d="M 1581 2375 
L 2406 2375 
Q 2872 2375 3115 2626 
Q 3359 2878 3359 3353 
Q 3359 3831 3115 4081 
Q 2872 4331 2406 4331 
L 1581 4331 
L 1581 2375 
z
M 353 0 
L 353 331 
L 947 331 
L 947 4331 
L 353 4331 
L 353 4666 
L 2559 4666 
Q 3259 4666 3668 4311 
Q 4078 3956 4078 3353 
Q 4078 2753 3668 2397 
Q 3259 2041 2559 2041 
L 1581 2041 
L 1581 331 
L 2303 331 
L 2303 0 
L 353 0 
z
" transform="scale(0.015625)"/>
       <path id="DejaVuSerif-2d" d="M 281 1959 
L 1881 1959 
L 1881 1472 
L 281 1472 
L 281 1959 
z
" transform="scale(0.015625)"/>
       <path id="DejaVuSerif-4e" d="M 313 0 
L 313 331 
L 941 331 
L 941 4331 
L 313 4331 
L 313 4666 
L 1509 4666 
L 4306 984 
L 4306 4331 
L 3681 4331 
L 3681 4666 
L 5319 4666 
L 5319 4331 
L 4691 4331 
L 4691 -91 
L 4313 -91 
L 1325 3841 
L 1325 331 
L 1953 331 
L 1953 0 
L 313 0 
z
" transform="scale(0.015625)"/>
      </defs>
      <use xlink:href="#DejaVuSerif-50"/>
      <use xlink:href="#DejaVuSerif-45" x="67.285156"/>
      <use xlink:href="#DejaVuSerif-20" x="140.283203"/>
      <use xlink:href="#DejaVuSerif-65" x="172.070312"/>
      <use xlink:href="#DejaVuSerif-2d" x="231.25"/>
      <use xlink:href="#DejaVuSerif-4e" x="265.039062"/>
     </g>
    </g>
    <g id="line2d_28">
     <path d="M 158.295 331.30375 
L 178.295 331.30375 
L 198.295 331.30375 
" style="fill: none; stroke: #2ca02c; stroke-width: 3; stroke-linecap: square"/>
    </g>
    <g id="text_16">
     <!-- PE e-e -->
     <g transform="translate(214.295 338.30375) scale(0.2 -0.2)">
      <use xlink:href="#DejaVuSerif-50"/>
      <use xlink:href="#DejaVuSerif-45" x="67.285156"/>
      <use xlink:href="#DejaVuSerif-20" x="140.283203"/>
      <use xlink:href="#DejaVuSerif-65" x="172.070312"/>
      <use xlink:href="#DejaVuSerif-2d" x="231.25"/>
      <use xlink:href="#DejaVuSerif-65" x="265.039062"/>
     </g>
    </g>
    <g id="line2d_29">
     <path d="M 158.295 360.66 
L 178.295 360.66 
L 198.295 360.66 
" style="fill: none; stroke: #d62728; stroke-width: 3; stroke-linecap: square"/>
    </g>
    <g id="text_17">
     <!-- PE Heisenberg -->
     <g transform="translate(214.295 367.66) scale(0.2 -0.2)">
      <defs>
       <path id="DejaVuSerif-48" d="M 353 0 
L 353 331 
L 947 331 
L 947 4331 
L 353 4331 
L 353 4666 
L 2175 4666 
L 2175 4331 
L 1581 4331 
L 1581 2719 
L 4000 2719 
L 4000 4331 
L 3406 4331 
L 3406 4666 
L 5228 4666 
L 5228 4331 
L 4634 4331 
L 4634 331 
L 5228 331 
L 5228 0 
L 3406 0 
L 3406 331 
L 4000 331 
L 4000 2338 
L 1581 2338 
L 1581 331 
L 2175 331 
L 2175 0 
L 353 0 
z
" transform="scale(0.015625)"/>
       <path id="DejaVuSerif-62" d="M 738 331 
L 738 4531 
L 184 4531 
L 184 4863 
L 1313 4863 
L 1313 2803 
Q 1481 3116 1742 3264 
Q 2003 3413 2388 3413 
Q 3000 3413 3387 2928 
Q 3775 2444 3775 1663 
Q 3775 881 3387 395 
Q 3000 -91 2388 -91 
Q 2003 -91 1742 57 
Q 1481 206 1313 519 
L 1313 0 
L 184 0 
L 184 331 
L 738 331 
z
M 1313 1497 
Q 1313 897 1542 583 
Q 1772 269 2209 269 
Q 2650 269 2876 622 
Q 3103 975 3103 1663 
Q 3103 2353 2876 2703 
Q 2650 3053 2209 3053 
Q 1772 3053 1542 2737 
Q 1313 2422 1313 1825 
L 1313 1497 
z
" transform="scale(0.015625)"/>
      </defs>
      <use xlink:href="#DejaVuSerif-50"/>
      <use xlink:href="#DejaVuSerif-45" x="67.285156"/>
      <use xlink:href="#DejaVuSerif-20" x="140.283203"/>
      <use xlink:href="#DejaVuSerif-48" x="172.070312"/>
      <use xlink:href="#DejaVuSerif-65" x="259.277344"/>
      <use xlink:href="#DejaVuSerif-69" x="318.457031"/>
      <use xlink:href="#DejaVuSerif-73" x="350.439453"/>
      <use xlink:href="#DejaVuSerif-65" x="401.757812"/>
      <use xlink:href="#DejaVuSerif-6e" x="460.9375"/>
      <use xlink:href="#DejaVuSerif-62" x="525.341797"/>
      <use xlink:href="#DejaVuSerif-65" x="589.355469"/>
      <use xlink:href="#DejaVuSerif-72" x="648.535156"/>
      <use xlink:href="#DejaVuSerif-67" x="696.337891"/>
     </g>
    </g>
    <g id="line2d_30">
     <path d="M 158.295 390.300625 
L 178.295 390.300625 
L 198.295 390.300625 
" style="fill: none; stroke-dasharray: 11.1,4.8; stroke-dashoffset: 0; stroke: #000000; stroke-width: 3"/>
    </g>
    <g id="text_18">
     <!-- Total E -->
     <g transform="translate(214.295 397.300625) scale(0.2 -0.2)">
      <defs>
       <path id="DejaVuSerif-6c" d="M 1313 331 
L 1856 331 
L 1856 0 
L 184 0 
L 184 331 
L 738 331 
L 738 4531 
L 184 4531 
L 184 4863 
L 1313 4863 
L 1313 331 
z
" transform="scale(0.015625)"/>
      </defs>
      <use xlink:href="#DejaVuSerif-54"/>
      <use xlink:href="#DejaVuSerif-6f" x="58.949219"/>
      <use xlink:href="#DejaVuSerif-74" x="119.154297"/>
      <use xlink:href="#DejaVuSerif-61" x="159.339844"/>
      <use xlink:href="#DejaVuSerif-6c" x="218.958984"/>
      <use xlink:href="#DejaVuSerif-20" x="250.941406"/>
      <use xlink:href="#DejaVuSerif-45" x="282.728516"/>
     </g>
    </g>
   </g>
  </g>
 </g>
 <defs>
  <clipPath id="pd5443f06b2">
   <rect x="140.295" y="58.32" width="551.625" height="361.14"/>
  </clipPath>
 </defs>
</svg>
