<?xml version="1.0" encoding="utf-8" standalone="no"?>
<!DOCTYPE svg PUBLIC "-//W3C//DTD SVG 1.1//EN"
  "http://www.w3.org/Graphics/SVG/1.1/DTD/svg11.dtd">
<svg xmlns:xlink="http://www.w3.org/1999/xlink" width="720pt" height="504pt" viewBox="0 0 720 504" xmlns="http://www.w3.org/2000/svg" version="1.1">
 <metadata>
  <rdf:RDF xmlns:dc="http://purl.org/dc/elements/1.1/" xmlns:cc="http://creativecommons.org/ns#" xmlns:rdf="http://www.w3.org/1999/02/22-rdf-syntax-ns#">
   <cc:Work>
    <dc:type rdf:resource="http://purl.org/dc/dcmitype/StillImage"/>
    <dc:date>2025-06-01T16:55:34.328286</dc:date>
    <dc:format>image/svg+xml</dc:format>
    <dc:creator>
     <cc:Agent>
      <dc:title>Matplotlib v3.7.2, https://matplotlib.org/</dc:title>
     </cc:Agent>
    </dc:creator>
   </cc:Work>
  </rdf:RDF>
 </metadata>
 <defs>
  <style type="text/css">*{stroke-linejoin: round; stroke-linecap: butt}</style>
 </defs>
 <g id="figure_1">
  <g id="patch_1">
   <path d="M 0 504 
L 720 504 
L 720 0 
L 0 0 
z
" style="fill: #ffffff"/>
  </g>
  <g id="axes_1">
   <g id="patch_2">
    <path d="M 115.455 419.46 
L 691.92 419.46 
L 691.92 58.32 
L 115.455 58.32 
z
" style="fill: #ffffff"/>
   </g>
   <g id="matplotlib.axis_1">
    <g id="xtick_1">
     <g id="line2d_1">
      <path d="M 141.657955 419.46 
L 141.657955 58.32 
" clip-path="url(#p3dcc4bb895)" style="fill: none; stroke-dasharray: 3.7,1.6; stroke-dashoffset: 0; stroke: #b0b0b0"/>
     </g>
     <g id="line2d_2">
      <defs>
       <path id="macc539b563" d="M 0 0 
L 0 -10 
" style="stroke: #000000; stroke-width: 2"/>
      </defs>
      <g>
       <use xlink:href="#macc539b563" x="141.657955" y="419.46" style="stroke: #000000; stroke-width: 2"/>
      </g>
     </g>
     <g id="text_1">
      <!-- 0 -->
      <g transform="translate(133.386705 442.715937) scale(0.26 -0.26)">
       <defs>
        <path id="DejaVuSerif-30" d="M 2034 219 
Q 2513 219 2750 744 
Q 2988 1269 2988 2328 
Q 2988 3391 2750 3916 
Q 2513 4441 2034 4441 
Q 1556 4441 1318 3916 
Q 1081 3391 1081 2328 
Q 1081 1269 1318 744 
Q 1556 219 2034 219 
z
M 2034 -91 
Q 1275 -91 848 546 
Q 422 1184 422 2328 
Q 422 3475 848 4112 
Q 1275 4750 2034 4750 
Q 2797 4750 3222 4112 
Q 3647 3475 3647 2328 
Q 3647 1184 3222 546 
Q 2797 -91 2034 -91 
z
" transform="scale(0.015625)"/>
       </defs>
       <use xlink:href="#DejaVuSerif-30"/>
      </g>
     </g>
    </g>
    <g id="xtick_2">
     <g id="line2d_3">
      <path d="M 246.469773 419.46 
L 246.469773 58.32 
" clip-path="url(#p3dcc4bb895)" style="fill: none; stroke-dasharray: 3.7,1.6; stroke-dashoffset: 0; stroke: #b0b0b0"/>
     </g>
     <g id="line2d_4">
      <g>
       <use xlink:href="#macc539b563" x="246.469773" y="419.46" style="stroke: #000000; stroke-width: 2"/>
      </g>
     </g>
     <g id="text_2">
      <!-- 10 -->
      <g transform="translate(229.927273 442.715937) scale(0.26 -0.26)">
       <defs>
        <path id="DejaVuSerif-31" d="M 909 0 
L 909 331 
L 1722 331 
L 1722 4213 
L 781 3603 
L 781 4013 
L 1919 4750 
L 2350 4750 
L 2350 331 
L 3163 331 
L 3163 0 
L 909 0 
z
" transform="scale(0.015625)"/>
       </defs>
       <use xlink:href="#DejaVuSerif-31"/>
       <use xlink:href="#DejaVuSerif-30" x="63.623047"/>
      </g>
     </g>
    </g>
    <g id="xtick_3">
     <g id="line2d_5">
      <path d="M 351.281591 419.46 
L 351.281591 58.32 
" clip-path="url(#p3dcc4bb895)" style="fill: none; stroke-dasharray: 3.7,1.6; stroke-dashoffset: 0; stroke: #b0b0b0"/>
     </g>
     <g id="line2d_6">
      <g>
       <use xlink:href="#macc539b563" x="351.281591" y="419.46" style="stroke: #000000; stroke-width: 2"/>
      </g>
     </g>
     <g id="text_3">
      <!-- 20 -->
      <g transform="translate(334.739091 442.715937) scale(0.26 -0.26)">
       <defs>
        <path id="DejaVuSerif-32" d="M 819 3553 
L 469 3553 
L 469 4384 
Q 803 4563 1142 4656 
Q 1481 4750 1806 4750 
Q 2534 4750 2956 4397 
Q 3378 4044 3378 3438 
Q 3378 2753 2422 1800 
Q 2347 1728 2309 1691 
L 1131 513 
L 3078 513 
L 3078 1088 
L 3444 1088 
L 3444 0 
L 434 0 
L 434 341 
L 1850 1753 
Q 2319 2222 2519 2614 
Q 2719 3006 2719 3438 
Q 2719 3909 2473 4175 
Q 2228 4441 1797 4441 
Q 1350 4441 1106 4219 
Q 863 3997 819 3553 
z
" transform="scale(0.015625)"/>
       </defs>
       <use xlink:href="#DejaVuSerif-32"/>
       <use xlink:href="#DejaVuSerif-30" x="63.623047"/>
      </g>
     </g>
    </g>
    <g id="xtick_4">
     <g id="line2d_7">
      <path d="M 456.093409 419.46 
L 456.093409 58.32 
" clip-path="url(#p3dcc4bb895)" style="fill: none; stroke-dasharray: 3.7,1.6; stroke-dashoffset: 0; stroke: #b0b0b0"/>
     </g>
     <g id="line2d_8">
      <g>
       <use xlink:href="#macc539b563" x="456.093409" y="419.46" style="stroke: #000000; stroke-width: 2"/>
      </g>
     </g>
     <g id="text_4">
      <!-- 30 -->
      <g transform="translate(439.550909 442.715937) scale(0.26 -0.26)">
       <defs>
        <path id="DejaVuSerif-33" d="M 622 4469 
Q 988 4606 1323 4678 
Q 1659 4750 1953 4750 
Q 2638 4750 3022 4454 
Q 3406 4159 3406 3634 
Q 3406 3213 3140 2930 
Q 2875 2647 2388 2547 
Q 2963 2466 3280 2130 
Q 3597 1794 3597 1259 
Q 3597 606 3158 257 
Q 2719 -91 1894 -91 
Q 1528 -91 1179 -12 
Q 831 66 488 225 
L 488 1131 
L 838 1131 
Q 869 681 1141 450 
Q 1413 219 1906 219 
Q 2384 219 2661 495 
Q 2938 772 2938 1253 
Q 2938 1803 2653 2086 
Q 2369 2369 1819 2369 
L 1522 2369 
L 1522 2688 
L 1678 2688 
Q 2225 2688 2498 2914 
Q 2772 3141 2772 3597 
Q 2772 4006 2547 4223 
Q 2322 4441 1900 4441 
Q 1478 4441 1245 4241 
Q 1013 4041 972 3647 
L 622 3647 
L 622 4469 
z
" transform="scale(0.015625)"/>
       </defs>
       <use xlink:href="#DejaVuSerif-33"/>
       <use xlink:href="#DejaVuSerif-30" x="63.623047"/>
      </g>
     </g>
    </g>
    <g id="xtick_5">
     <g id="line2d_9">
      <path d="M 560.905227 419.46 
L 560.905227 58.32 
" clip-path="url(#p3dcc4bb895)" style="fill: none; stroke-dasharray: 3.7,1.6; stroke-dashoffset: 0; stroke: #b0b0b0"/>
     </g>
     <g id="line2d_10">
      <g>
       <use xlink:href="#macc539b563" x="560.905227" y="419.46" style="stroke: #000000; stroke-width: 2"/>
      </g>
     </g>
     <g id="text_5">
      <!-- 40 -->
      <g transform="translate(544.362727 442.715937) scale(0.26 -0.26)">
       <defs>
        <path id="DejaVuSerif-34" d="M 2234 1581 
L 2234 4063 
L 641 1581 
L 2234 1581 
z
M 3609 0 
L 1484 0 
L 1484 331 
L 2234 331 
L 2234 1247 
L 197 1247 
L 197 1588 
L 2241 4750 
L 2859 4750 
L 2859 1581 
L 3750 1581 
L 3750 1247 
L 2859 1247 
L 2859 331 
L 3609 331 
L 3609 0 
z
" transform="scale(0.015625)"/>
       </defs>
       <use xlink:href="#DejaVuSerif-34"/>
       <use xlink:href="#DejaVuSerif-30" x="63.623047"/>
      </g>
     </g>
    </g>
    <g id="xtick_6">
     <g id="line2d_11">
      <path d="M 665.717045 419.46 
L 665.717045 58.32 
" clip-path="url(#p3dcc4bb895)" style="fill: none; stroke-dasharray: 3.7,1.6; stroke-dashoffset: 0; stroke: #b0b0b0"/>
     </g>
     <g id="line2d_12">
      <g>
       <use xlink:href="#macc539b563" x="665.717045" y="419.46" style="stroke: #000000; stroke-width: 2"/>
      </g>
     </g>
     <g id="text_6">
      <!-- 50 -->
      <g transform="translate(649.174545 442.715937) scale(0.26 -0.26)">
       <defs>
        <path id="DejaVuSerif-35" d="M 3219 4666 
L 3219 4153 
L 1081 4153 
L 1081 2816 
Q 1244 2928 1461 2984 
Q 1678 3041 1947 3041 
Q 2703 3041 3140 2622 
Q 3578 2203 3578 1478 
Q 3578 738 3136 323 
Q 2694 -91 1894 -91 
Q 1572 -91 1234 -12 
Q 897 66 544 225 
L 544 1131 
L 897 1131 
Q 925 688 1179 453 
Q 1434 219 1894 219 
Q 2388 219 2653 544 
Q 2919 869 2919 1478 
Q 2919 2084 2655 2407 
Q 2391 2731 1894 2731 
Q 1613 2731 1398 2631 
Q 1184 2531 1019 2322 
L 750 2322 
L 750 4666 
L 3219 4666 
z
" transform="scale(0.015625)"/>
       </defs>
       <use xlink:href="#DejaVuSerif-35"/>
       <use xlink:href="#DejaVuSerif-30" x="63.623047"/>
      </g>
     </g>
    </g>
    <g id="text_7">
     <!-- Time (a.u.) -->
     <g transform="translate(332.173281 471.879062) scale(0.26 -0.26)">
      <defs>
       <path id="DejaVuSerif-54" d="M 1222 0 
L 1222 331 
L 1819 331 
L 1819 4294 
L 447 4294 
L 447 3566 
L 63 3566 
L 63 4666 
L 4206 4666 
L 4206 3566 
L 3822 3566 
L 3822 4294 
L 2450 4294 
L 2450 331 
L 3047 331 
L 3047 0 
L 1222 0 
z
" transform="scale(0.015625)"/>
       <path id="DejaVuSerif-69" d="M 622 4353 
Q 622 4497 726 4603 
Q 831 4709 978 4709 
Q 1122 4709 1226 4603 
Q 1331 4497 1331 4353 
Q 1331 4206 1228 4103 
Q 1125 4000 978 4000 
Q 831 4000 726 4103 
Q 622 4206 622 4353 
z
M 1356 331 
L 1900 331 
L 1900 0 
L 231 0 
L 231 331 
L 781 331 
L 781 2988 
L 231 2988 
L 231 3322 
L 1356 3322 
L 1356 331 
z
" transform="scale(0.015625)"/>
       <path id="DejaVuSerif-6d" d="M 3316 2675 
Q 3481 3041 3739 3227 
Q 3997 3413 4341 3413 
Q 4863 3413 5119 3089 
Q 5375 2766 5375 2113 
L 5375 331 
L 5894 331 
L 5894 0 
L 4300 0 
L 4300 331 
L 4800 331 
L 4800 2047 
Q 4800 2556 4650 2772 
Q 4500 2988 4153 2988 
Q 3769 2988 3567 2697 
Q 3366 2406 3366 1850 
L 3366 331 
L 3866 331 
L 3866 0 
L 2291 0 
L 2291 331 
L 2791 331 
L 2791 2069 
Q 2791 2566 2641 2777 
Q 2491 2988 2144 2988 
Q 1759 2988 1557 2697 
Q 1356 2406 1356 1850 
L 1356 331 
L 1856 331 
L 1856 0 
L 263 0 
L 263 331 
L 781 331 
L 781 2994 
L 231 2994 
L 231 3322 
L 1356 3322 
L 1356 2731 
Q 1516 3063 1762 3238 
Q 2009 3413 2322 3413 
Q 2709 3413 2968 3220 
Q 3228 3028 3316 2675 
z
" transform="scale(0.015625)"/>
       <path id="DejaVuSerif-65" d="M 3469 1600 
L 991 1600 
L 991 1575 
Q 991 903 1244 561 
Q 1497 219 1991 219 
Q 2369 219 2611 417 
Q 2853 616 2950 1006 
L 3413 1006 
Q 3275 459 2904 184 
Q 2534 -91 1931 -91 
Q 1203 -91 761 389 
Q 319 869 319 1663 
Q 319 2450 753 2931 
Q 1188 3413 1894 3413 
Q 2647 3413 3050 2948 
Q 3453 2484 3469 1600 
z
M 2791 1931 
Q 2772 2513 2545 2808 
Q 2319 3103 1894 3103 
Q 1497 3103 1269 2806 
Q 1041 2509 991 1931 
L 2791 1931 
z
" transform="scale(0.015625)"/>
       <path id="DejaVuSerif-20" transform="scale(0.015625)"/>
       <path id="DejaVuSerif-28" d="M 2041 -997 
Q 1281 -656 893 83 
Q 506 822 506 1931 
Q 506 3044 893 3783 
Q 1281 4522 2041 4863 
L 2041 4556 
Q 1559 4225 1350 3623 
Q 1141 3022 1141 1931 
Q 1141 844 1350 242 
Q 1559 -359 2041 -691 
L 2041 -997 
z
" transform="scale(0.015625)"/>
       <path id="DejaVuSerif-61" d="M 2547 1044 
L 2547 1747 
L 1806 1747 
Q 1378 1747 1168 1562 
Q 959 1378 959 997 
Q 959 650 1171 447 
Q 1384 244 1747 244 
Q 2106 244 2326 466 
Q 2547 688 2547 1044 
z
M 3122 2075 
L 3122 331 
L 3634 331 
L 3634 0 
L 2547 0 
L 2547 359 
Q 2356 128 2106 18 
Q 1856 -91 1522 -91 
Q 969 -91 644 203 
Q 319 497 319 997 
Q 319 1513 691 1797 
Q 1063 2081 1741 2081 
L 2547 2081 
L 2547 2309 
Q 2547 2688 2317 2895 
Q 2088 3103 1672 3103 
Q 1328 3103 1125 2947 
Q 922 2791 872 2484 
L 575 2484 
L 575 3156 
Q 875 3284 1158 3348 
Q 1441 3413 1709 3413 
Q 2400 3413 2761 3070 
Q 3122 2728 3122 2075 
z
" transform="scale(0.015625)"/>
       <path id="DejaVuSerif-2e" d="M 603 325 
Q 603 500 722 622 
Q 841 744 1019 744 
Q 1191 744 1312 622 
Q 1434 500 1434 325 
Q 1434 153 1312 31 
Q 1191 -91 1019 -91 
Q 841 -91 722 29 
Q 603 150 603 325 
z
" transform="scale(0.015625)"/>
       <path id="DejaVuSerif-75" d="M 2266 3322 
L 3341 3322 
L 3341 331 
L 3884 331 
L 3884 0 
L 2766 0 
L 2766 588 
Q 2606 256 2353 82 
Q 2100 -91 1766 -91 
Q 1213 -91 952 223 
Q 691 538 691 1209 
L 691 2988 
L 172 2988 
L 172 3322 
L 1269 3322 
L 1269 1388 
Q 1269 781 1417 556 
Q 1566 331 1947 331 
Q 2347 331 2556 625 
Q 2766 919 2766 1478 
L 2766 2988 
L 2266 2988 
L 2266 3322 
z
" transform="scale(0.015625)"/>
       <path id="DejaVuSerif-29" d="M 453 -997 
L 453 -691 
Q 934 -359 1145 242 
Q 1356 844 1356 1931 
Q 1356 3022 1145 3623 
Q 934 4225 453 4556 
L 453 4863 
Q 1216 4522 1603 3783 
Q 1991 3044 1991 1931 
Q 1991 822 1603 83 
Q 1216 -656 453 -997 
z
" transform="scale(0.015625)"/>
      </defs>
      <use xlink:href="#DejaVuSerif-54"/>
      <use xlink:href="#DejaVuSerif-69" x="66.699219"/>
      <use xlink:href="#DejaVuSerif-6d" x="98.681641"/>
      <use xlink:href="#DejaVuSerif-65" x="193.505859"/>
      <use xlink:href="#DejaVuSerif-20" x="252.685547"/>
      <use xlink:href="#DejaVuSerif-28" x="284.472656"/>
      <use xlink:href="#DejaVuSerif-61" x="323.486328"/>
      <use xlink:href="#DejaVuSerif-2e" x="383.105469"/>
      <use xlink:href="#DejaVuSerif-75" x="414.892578"/>
      <use xlink:href="#DejaVuSerif-2e" x="479.296875"/>
      <use xlink:href="#DejaVuSerif-29" x="511.083984"/>
     </g>
    </g>
   </g>
   <g id="matplotlib.axis_2">
    <g id="ytick_1">
     <g id="line2d_13">
      <path d="M 115.455 409.844701 
L 691.92 409.844701 
" clip-path="url(#p3dcc4bb895)" style="fill: none; stroke-dasharray: 3.7,1.6; stroke-dashoffset: 0; stroke: #b0b0b0"/>
     </g>
     <g id="line2d_14">
      <defs>
       <path id="m9b96d3071f" d="M 0 0 
L 10 0 
" style="stroke: #000000; stroke-width: 2"/>
      </defs>
      <g>
       <use xlink:href="#m9b96d3071f" x="115.455" y="409.844701" style="stroke: #000000; stroke-width: 2"/>
      </g>
     </g>
     <g id="text_8">
      <!-- −20 -->
      <g transform="translate(57.082813 419.722669) scale(0.26 -0.26)">
       <defs>
        <path id="DejaVuSerif-2212" d="M 678 2259 
L 4684 2259 
L 4684 1753 
L 678 1753 
L 678 2259 
z
" transform="scale(0.015625)"/>
       </defs>
       <use xlink:href="#DejaVuSerif-2212"/>
       <use xlink:href="#DejaVuSerif-32" x="83.789062"/>
       <use xlink:href="#DejaVuSerif-30" x="147.412109"/>
      </g>
     </g>
    </g>
    <g id="ytick_2">
     <g id="line2d_15">
      <path d="M 115.455 289.706585 
L 691.92 289.706585 
" clip-path="url(#p3dcc4bb895)" style="fill: none; stroke-dasharray: 3.7,1.6; stroke-dashoffset: 0; stroke: #b0b0b0"/>
     </g>
     <g id="line2d_16">
      <g>
       <use xlink:href="#m9b96d3071f" x="115.455" y="289.706585" style="stroke: #000000; stroke-width: 2"/>
      </g>
     </g>
     <g id="text_9">
      <!-- −10 -->
      <g transform="translate(57.082813 299.584554) scale(0.26 -0.26)">
       <use xlink:href="#DejaVuSerif-2212"/>
       <use xlink:href="#DejaVuSerif-31" x="83.789062"/>
       <use xlink:href="#DejaVuSerif-30" x="147.412109"/>
      </g>
     </g>
    </g>
    <g id="ytick_3">
     <g id="line2d_17">
      <path d="M 115.455 169.568469 
L 691.92 169.568469 
" clip-path="url(#p3dcc4bb895)" style="fill: none; stroke-dasharray: 3.7,1.6; stroke-dashoffset: 0; stroke: #b0b0b0"/>
     </g>
     <g id="line2d_18">
      <g>
       <use xlink:href="#m9b96d3071f" x="115.455" y="169.568469" style="stroke: #000000; stroke-width: 2"/>
      </g>
     </g>
     <g id="text_10">
      <!-- 0 -->
      <g transform="translate(95.4125 179.446438) scale(0.26 -0.26)">
       <use xlink:href="#DejaVuSerif-30"/>
      </g>
     </g>
    </g>
    <g id="text_11">
     <!-- Energy Components (a.u.) -->
     <g transform="translate(47.305937 411.706719) rotate(-90) scale(0.26 -0.26)">
      <defs>
       <path id="DejaVuSerif-45" d="M 353 0 
L 353 331 
L 947 331 
L 947 4331 
L 353 4331 
L 353 4666 
L 4109 4666 
L 4109 3628 
L 3725 3628 
L 3725 4281 
L 1581 4281 
L 1581 2719 
L 3109 2719 
L 3109 3303 
L 3494 3303 
L 3494 1753 
L 3109 1753 
L 3109 2338 
L 1581 2338 
L 1581 384 
L 3775 384 
L 3775 1038 
L 4159 1038 
L 4159 0 
L 353 0 
z
" transform="scale(0.015625)"/>
       <path id="DejaVuSerif-6e" d="M 263 0 
L 263 331 
L 781 331 
L 781 2988 
L 231 2988 
L 231 3322 
L 1356 3322 
L 1356 2731 
Q 1516 3069 1770 3241 
Q 2025 3413 2363 3413 
Q 2913 3413 3172 3097 
Q 3431 2781 3431 2113 
L 3431 331 
L 3944 331 
L 3944 0 
L 2356 0 
L 2356 331 
L 2853 331 
L 2853 1931 
Q 2853 2541 2703 2767 
Q 2553 2994 2175 2994 
Q 1775 2994 1565 2701 
Q 1356 2409 1356 1850 
L 1356 331 
L 1856 331 
L 1856 0 
L 263 0 
z
" transform="scale(0.015625)"/>
       <path id="DejaVuSerif-72" d="M 3059 3328 
L 3059 2497 
L 2728 2497 
Q 2713 2744 2591 2866 
Q 2469 2988 2234 2988 
Q 1809 2988 1582 2694 
Q 1356 2400 1356 1850 
L 1356 331 
L 2022 331 
L 2022 0 
L 263 0 
L 263 331 
L 781 331 
L 781 2994 
L 231 2994 
L 231 3322 
L 1356 3322 
L 1356 2731 
Q 1525 3078 1790 3245 
Q 2056 3413 2438 3413 
Q 2578 3413 2733 3391 
Q 2888 3369 3059 3328 
z
" transform="scale(0.015625)"/>
       <path id="DejaVuSerif-67" d="M 3359 2988 
L 3359 72 
Q 3359 -644 2965 -1033 
Q 2572 -1422 1844 -1422 
Q 1516 -1422 1216 -1362 
Q 916 -1303 641 -1184 
L 641 -488 
L 941 -488 
Q 997 -813 1206 -963 
Q 1416 -1113 1806 -1113 
Q 2313 -1113 2548 -827 
Q 2784 -541 2784 72 
L 2784 519 
Q 2616 206 2355 57 
Q 2094 -91 1709 -91 
Q 1097 -91 708 395 
Q 319 881 319 1663 
Q 319 2444 706 2928 
Q 1094 3413 1709 3413 
Q 2094 3413 2355 3264 
Q 2616 3116 2784 2803 
L 2784 3322 
L 3909 3322 
L 3909 2988 
L 3359 2988 
z
M 2784 1825 
Q 2784 2422 2554 2737 
Q 2325 3053 1888 3053 
Q 1444 3053 1217 2703 
Q 991 2353 991 1663 
Q 991 975 1217 622 
Q 1444 269 1888 269 
Q 2325 269 2554 583 
Q 2784 897 2784 1497 
L 2784 1825 
z
" transform="scale(0.015625)"/>
       <path id="DejaVuSerif-79" d="M 1381 -609 
L 1600 -56 
L 359 2988 
L -19 2988 
L -19 3322 
L 1509 3322 
L 1509 2988 
L 978 2988 
L 1913 703 
L 2847 2988 
L 2350 2988 
L 2350 3322 
L 3597 3322 
L 3597 2988 
L 3225 2988 
L 1703 -750 
Q 1547 -1138 1356 -1280 
Q 1166 -1422 819 -1422 
Q 672 -1422 517 -1397 
Q 363 -1372 206 -1325 
L 206 -691 
L 500 -691 
Q 519 -903 608 -995 
Q 697 -1088 884 -1088 
Q 1056 -1088 1161 -992 
Q 1266 -897 1381 -609 
z
" transform="scale(0.015625)"/>
       <path id="DejaVuSerif-43" d="M 4513 1234 
Q 4306 581 3820 245 
Q 3334 -91 2591 -91 
Q 2134 -91 1743 65 
Q 1353 222 1050 525 
Q 700 875 529 1320 
Q 359 1766 359 2328 
Q 359 3416 987 4083 
Q 1616 4750 2644 4750 
Q 3025 4750 3456 4650 
Q 3888 4550 4384 4347 
L 4384 3272 
L 4031 3272 
Q 3916 3859 3567 4137 
Q 3219 4416 2591 4416 
Q 1844 4416 1459 3886 
Q 1075 3356 1075 2328 
Q 1075 1303 1459 773 
Q 1844 244 2591 244 
Q 3113 244 3450 492 
Q 3788 741 3938 1234 
L 4513 1234 
z
" transform="scale(0.015625)"/>
       <path id="DejaVuSerif-6f" d="M 1925 219 
Q 2388 219 2623 584 
Q 2859 950 2859 1663 
Q 2859 2375 2623 2739 
Q 2388 3103 1925 3103 
Q 1463 3103 1227 2739 
Q 991 2375 991 1663 
Q 991 950 1228 584 
Q 1466 219 1925 219 
z
M 1925 -91 
Q 1200 -91 759 389 
Q 319 869 319 1663 
Q 319 2456 758 2934 
Q 1197 3413 1925 3413 
Q 2653 3413 3092 2934 
Q 3531 2456 3531 1663 
Q 3531 869 3092 389 
Q 2653 -91 1925 -91 
z
" transform="scale(0.015625)"/>
       <path id="DejaVuSerif-70" d="M 1313 1825 
L 1313 1497 
Q 1313 897 1542 583 
Q 1772 269 2209 269 
Q 2650 269 2876 622 
Q 3103 975 3103 1663 
Q 3103 2353 2876 2703 
Q 2650 3053 2209 3053 
Q 1772 3053 1542 2737 
Q 1313 2422 1313 1825 
z
M 738 2988 
L 184 2988 
L 184 3322 
L 1313 3322 
L 1313 2803 
Q 1481 3116 1742 3264 
Q 2003 3413 2388 3413 
Q 3000 3413 3387 2928 
Q 3775 2444 3775 1663 
Q 3775 881 3387 395 
Q 3000 -91 2388 -91 
Q 2003 -91 1742 57 
Q 1481 206 1313 519 
L 1313 -997 
L 1856 -997 
L 1856 -1331 
L 184 -1331 
L 184 -997 
L 738 -997 
L 738 2988 
z
" transform="scale(0.015625)"/>
       <path id="DejaVuSerif-74" d="M 691 2988 
L 184 2988 
L 184 3322 
L 691 3322 
L 691 4353 
L 1269 4353 
L 1269 3322 
L 2350 3322 
L 2350 2988 
L 1269 2988 
L 1269 878 
Q 1269 456 1350 337 
Q 1431 219 1650 219 
Q 1875 219 1978 351 
Q 2081 484 2088 781 
L 2522 781 
Q 2497 328 2275 118 
Q 2053 -91 1600 -91 
Q 1103 -91 897 129 
Q 691 350 691 878 
L 691 2988 
z
" transform="scale(0.015625)"/>
       <path id="DejaVuSerif-73" d="M 359 184 
L 359 959 
L 691 959 
Q 703 588 923 403 
Q 1144 219 1575 219 
Q 1963 219 2166 364 
Q 2369 509 2369 788 
Q 2369 1006 2220 1140 
Q 2072 1275 1594 1428 
L 1178 1569 
Q 750 1706 558 1912 
Q 366 2119 366 2438 
Q 366 2894 700 3153 
Q 1034 3413 1625 3413 
Q 1888 3413 2178 3344 
Q 2469 3275 2778 3144 
L 2778 2419 
L 2447 2419 
Q 2434 2741 2221 2922 
Q 2009 3103 1644 3103 
Q 1281 3103 1095 2975 
Q 909 2847 909 2591 
Q 909 2381 1050 2254 
Q 1191 2128 1613 1997 
L 2069 1856 
Q 2541 1709 2748 1489 
Q 2956 1269 2956 922 
Q 2956 450 2595 179 
Q 2234 -91 1600 -91 
Q 1278 -91 972 -22 
Q 666 47 359 184 
z
" transform="scale(0.015625)"/>
      </defs>
      <use xlink:href="#DejaVuSerif-45"/>
      <use xlink:href="#DejaVuSerif-6e" x="72.998047"/>
      <use xlink:href="#DejaVuSerif-65" x="137.402344"/>
      <use xlink:href="#DejaVuSerif-72" x="196.582031"/>
      <use xlink:href="#DejaVuSerif-67" x="244.384766"/>
      <use xlink:href="#DejaVuSerif-79" x="308.398438"/>
      <use xlink:href="#DejaVuSerif-20" x="364.892578"/>
      <use xlink:href="#DejaVuSerif-43" x="396.679688"/>
      <use xlink:href="#DejaVuSerif-6f" x="473.193359"/>
      <use xlink:href="#DejaVuSerif-6d" x="533.398438"/>
      <use xlink:href="#DejaVuSerif-70" x="628.222656"/>
      <use xlink:href="#DejaVuSerif-6f" x="692.236328"/>
      <use xlink:href="#DejaVuSerif-6e" x="752.441406"/>
      <use xlink:href="#DejaVuSerif-65" x="816.845703"/>
      <use xlink:href="#DejaVuSerif-6e" x="876.025391"/>
      <use xlink:href="#DejaVuSerif-74" x="940.429688"/>
      <use xlink:href="#DejaVuSerif-73" x="980.615234"/>
      <use xlink:href="#DejaVuSerif-20" x="1031.933594"/>
      <use xlink:href="#DejaVuSerif-28" x="1063.720703"/>
      <use xlink:href="#DejaVuSerif-61" x="1102.734375"/>
      <use xlink:href="#DejaVuSerif-2e" x="1162.353516"/>
      <use xlink:href="#DejaVuSerif-75" x="1194.140625"/>
      <use xlink:href="#DejaVuSerif-2e" x="1258.544922"/>
      <use xlink:href="#DejaVuSerif-29" x="1290.332031"/>
     </g>
    </g>
   </g>
   <g id="line2d_19">
    <path d="M 141.657955 81.624629 
L 146.951481 80.367846 
L 152.245007 80.270528 
L 157.538533 79.903599 
L 162.832059 79.558656 
L 168.125585 81.453659 
L 173.419112 82.273919 
L 178.712638 79.130996 
L 184.006164 79.71776 
L 189.29969 80.573303 
L 194.593216 78.719166 
L 199.886742 76.254153 
L 205.180269 78.528769 
L 210.473795 79.586216 
L 215.767321 80.92314 
L 221.060847 80.596254 
L 226.354373 82.638909 
L 231.647899 81.564725 
L 236.941426 81.57707 
L 242.234952 82.872705 
L 247.528478 83.716174 
L 252.822004 83.754241 
L 258.11553 84.37922 
L 263.409056 84.966468 
L 268.702583 85.37848 
L 273.996109 85.974697 
L 279.289635 85.959641 
L 284.583161 85.891855 
L 289.876687 85.279868 
L 295.170213 84.525316 
L 300.46374 82.48564 
L 305.757266 81.827677 
L 311.050792 81.33045 
L 316.344318 81.113011 
L 321.637844 79.64307 
L 326.931371 79.441091 
L 332.224897 80.50529 
L 337.518423 81.584814 
L 342.811949 83.028022 
L 348.105475 84.118244 
L 353.399001 84.495783 
L 358.692528 84.182296 
L 363.986054 85.052731 
L 369.27958 85.514676 
L 374.573106 86.792021 
L 379.866632 87.102178 
L 385.160158 85.205541 
L 390.453685 83.143437 
L 395.747211 82.31422 
L 401.040737 81.394651 
L 406.334263 80.014573 
L 411.627789 79.035919 
L 416.921315 79.934534 
L 422.214842 81.65776 
L 427.508368 82.03153 
L 432.801894 79.969562 
L 438.09542 79.901906 
L 443.388946 82.423135 
L 448.682472 83.223826 
L 453.975999 81.711509 
L 459.269525 80.738257 
L 464.563051 84.275348 
L 469.856577 84.01386 
L 475.150103 80.952278 
L 480.443629 82.567054 
L 485.737156 84.119477 
L 491.030682 82.822426 
L 496.324208 80.941647 
L 501.617734 85.016936 
L 506.91126 84.023611 
L 512.204787 81.483166 
L 517.498313 85.561514 
L 522.791839 86.84533 
L 528.085365 85.293684 
L 533.378891 82.796063 
L 538.672417 82.33723 
L 543.965944 80.922343 
L 549.25947 78.936596 
L 554.552996 78.698405 
L 559.846522 77.057546 
L 565.140048 74.735455 
L 570.433574 77.29428 
L 575.727101 79.343897 
L 581.020627 83.855213 
L 586.314153 80.327269 
L 591.607679 77.45304 
L 596.901205 78.677163 
L 602.194731 81.456076 
L 607.488258 80.763989 
L 612.781784 79.341511 
L 618.07531 81.366308 
L 623.368836 79.80574 
L 628.662362 79.315677 
L 633.955888 79.542466 
L 639.249415 79.213144 
L 644.542941 78.82295 
L 649.836467 79.970163 
L 655.129993 79.443102 
L 660.423519 79.982609 
L 665.717045 80.858513 
" clip-path="url(#p3dcc4bb895)" style="fill: none; stroke: #1f77b4; stroke-width: 3; stroke-linecap: square"/>
   </g>
   <g id="line2d_20">
    <path d="M 141.657955 395.49697 
L 146.951481 396.363373 
L 152.245007 395.977733 
L 157.538533 396.418926 
L 162.832059 396.833728 
L 168.125585 394.438631 
L 173.419112 393.859588 
L 178.712638 396.985453 
L 184.006164 396.884129 
L 189.29969 395.238425 
L 194.593216 397.458359 
L 199.886742 399.744864 
L 205.180269 397.202673 
L 210.473795 395.738478 
L 215.767321 394.55868 
L 221.060847 394.549275 
L 226.354373 392.167261 
L 231.647899 393.00369 
L 236.941426 393.168798 
L 242.234952 391.458976 
L 247.528478 390.614318 
L 252.822004 390.482757 
L 258.11553 389.407027 
L 263.409056 388.563558 
L 268.702583 388.044617 
L 273.996109 387.20019 
L 279.289635 386.86977 
L 284.583161 387.049409 
L 289.876687 387.628905 
L 295.170213 388.99935 
L 300.46374 392.202649 
L 305.757266 393.736938 
L 311.050792 394.660327 
L 316.344318 394.457811 
L 321.637844 395.557793 
L 326.931371 395.532339 
L 332.224897 394.139999 
L 337.518423 392.93863 
L 342.811949 391.13317 
L 348.105475 390.246742 
L 353.399001 390.386905 
L 358.692528 391.125156 
L 363.986054 389.805041 
L 369.27958 388.78703 
L 374.573106 386.678587 
L 379.866632 386.543195 
L 385.160158 388.700113 
L 390.453685 391.158344 
L 395.747211 391.980843 
L 401.040737 393.242028 
L 406.334263 395.875623 
L 411.627789 397.684098 
L 416.921315 395.252263 
L 422.214842 392.33903 
L 427.508368 392.386234 
L 432.801894 395.542404 
L 438.09542 396.036243 
L 443.388946 391.45918 
L 448.682472 390.118648 
L 453.975999 393.124725 
L 459.269525 394.711664 
L 464.563051 388.936488 
L 469.856577 389.617742 
L 475.150103 394.174158 
L 480.443629 392.169519 
L 485.737156 389.106472 
L 491.030682 391.750122 
L 496.324208 394.682197 
L 501.617734 388.650916 
L 506.91126 390.268174 
L 512.204787 394.495506 
L 517.498313 388.313195 
L 522.791839 386.00732 
L 528.085365 387.956665 
L 533.378891 391.086432 
L 538.672417 391.580835 
L 543.965944 394.280593 
L 549.25947 398.001281 
L 554.552996 398.904818 
L 559.846522 400.024118 
L 565.140048 403.044545 
L 570.433574 399.791965 
L 575.727101 395.096181 
L 581.020627 390.720633 
L 586.314153 393.913558 
L 591.607679 397.94495 
L 596.901205 396.372202 
L 602.194731 394.946914 
L 607.488258 394.070229 
L 612.781784 396.832988 
L 618.07531 393.297954 
L 623.368836 395.929952 
L 628.662362 395.836458 
L 633.955888 395.771743 
L 639.249415 396.783991 
L 644.542941 397.869928 
L 649.836467 396.237204 
L 655.129993 397.953788 
L 660.423519 396.068317 
L 665.717045 394.349925 
" clip-path="url(#p3dcc4bb895)" style="fill: none; stroke: #ff7f0e; stroke-width: 3; stroke-linecap: square"/>
   </g>
   <g id="line2d_21">
    <path d="M 141.657955 136.122507 
L 146.951481 136.17172 
L 152.245007 136.537039 
L 157.538533 136.616838 
L 162.832059 136.516429 
L 168.125585 136.99321 
L 173.419112 137.405764 
L 178.712638 137.146488 
L 184.006164 137.202799 
L 189.29969 137.723907 
L 194.593216 137.633193 
L 199.886742 137.317437 
L 205.180269 137.613861 
L 210.473795 137.849561 
L 215.767321 137.915438 
L 221.060847 138.128352 
L 226.354373 138.475816 
L 231.647899 138.41522 
L 236.941426 138.556453 
L 242.234952 138.88177 
L 247.528478 138.994441 
L 252.822004 139.080493 
L 258.11553 139.337209 
L 263.409056 139.543799 
L 268.702583 139.672496 
L 273.996109 139.820552 
L 279.289635 139.903049 
L 284.583161 139.874398 
L 289.876687 139.679611 
L 295.170213 139.224829 
L 300.46374 138.391569 
L 305.757266 137.68014 
L 311.050792 137.410202 
L 316.344318 137.785317 
L 321.637844 138.050098 
L 326.931371 138.270754 
L 332.224897 138.521316 
L 337.518423 138.652567 
L 342.811949 138.711993 
L 348.105475 138.547865 
L 353.399001 138.200951 
L 358.692528 137.87434 
L 363.986054 138.096029 
L 369.27958 138.629636 
L 374.573106 139.164728 
L 379.866632 139.026627 
L 385.160158 138.661723 
L 390.453685 138.828205 
L 395.747211 138.914669 
L 401.040737 138.413624 
L 406.334263 137.302187 
L 411.627789 136.738028 
L 416.921315 138.242819 
L 422.214842 139.19546 
L 427.508368 138.86497 
L 432.801894 137.794745 
L 438.09542 137.791687 
L 443.388946 139.346137 
L 448.682472 139.50884 
L 453.975999 138.40895 
L 459.269525 137.994641 
L 464.563051 139.693039 
L 469.856577 139.458978 
L 475.150103 138.057042 
L 480.443629 138.664324 
L 485.737156 139.666408 
L 491.030682 138.56537 
L 496.324208 137.69638 
L 501.617734 139.461262 
L 506.91126 138.754802 
L 512.204787 137.219947 
L 517.498313 138.978987 
L 522.791839 139.665102 
L 528.085365 139.17773 
L 533.378891 139.260118 
L 538.672417 138.98962 
L 543.965944 137.722567 
L 549.25947 136.204063 
L 554.552996 135.918452 
L 559.846522 136.183145 
L 565.140048 136.145246 
L 570.433574 137.112662 
L 575.727101 138.458225 
L 581.020627 139.16694 
L 586.314153 138.666674 
L 591.607679 137.784226 
L 596.901205 137.424195 
L 602.194731 137.633263 
L 607.488258 138.108094 
L 612.781784 138.060326 
L 618.07531 138.344695 
L 623.368836 137.989531 
L 628.662362 137.824939 
L 633.955888 137.606861 
L 639.249415 137.2579 
L 644.542941 136.904093 
L 649.836467 136.76247 
L 655.129993 136.357884 
L 660.423519 136.888431 
L 665.717045 137.537105 
" clip-path="url(#p3dcc4bb895)" style="fill: none; stroke: #2ca02c; stroke-width: 3; stroke-linecap: square"/>
   </g>
   <g id="line2d_22">
    <path d="M 141.657955 161.192073 
L 146.951481 161.477029 
L 152.245007 161.547886 
L 157.538533 161.403221 
L 162.832059 161.481151 
L 168.125585 161.468691 
L 173.419112 160.783731 
L 178.712638 161.104045 
L 184.006164 160.562097 
L 189.29969 160.773155 
L 194.593216 160.514639 
L 199.886742 161.062157 
L 205.180269 161.040609 
L 210.473795 161.174379 
L 215.767321 160.994794 
L 221.060847 161.084424 
L 226.354373 161.052534 
L 231.647899 161.375594 
L 236.941426 161.025545 
L 242.234952 161.09232 
L 247.528478 161.004231 
L 252.822004 160.991066 
L 258.11553 161.155366 
L 263.409056 161.189362 
L 268.702583 161.16557 
L 273.996109 161.271138 
L 279.289635 161.520302 
L 284.583161 161.430897 
L 289.876687 161.662498 
L 295.170213 161.543855 
L 300.46374 161.260609 
L 305.757266 161.196872 
L 311.050792 161.054104 
L 316.344318 161.115028 
L 321.637844 161.201547 
L 326.931371 161.171566 
L 332.224897 161.184731 
L 337.518423 161.117451 
L 342.811949 161.406339 
L 348.105475 161.365892 
L 353.399001 161.210764 
L 358.692528 161.143795 
L 363.986054 161.379224 
L 369.27958 161.330726 
L 374.573106 161.64235 
L 379.866632 161.66085 
L 385.160158 161.882228 
L 390.453685 161.257904 
L 395.747211 161.056539 
L 401.040737 161.191325 
L 406.334263 161.12451 
L 411.627789 160.957143 
L 416.921315 160.843696 
L 422.214842 161.036571 
L 427.508368 160.990746 
L 432.801894 161.072361 
L 438.09542 160.682152 
L 443.388946 161.016277 
L 448.682472 161.387655 
L 453.975999 161.125728 
L 459.269525 161.017119 
L 464.563051 161.349471 
L 469.856577 161.176614 
L 475.150103 161.283979 
L 480.443629 160.99054 
L 485.737156 161.344345 
L 491.030682 161.249911 
L 496.324208 161.21302 
L 501.617734 161.134579 
L 506.91126 161.273452 
L 512.204787 161.347314 
L 517.498313 161.503986 
L 522.791839 161.815771 
L 528.085365 162.080239 
L 533.378891 161.273312 
L 538.672417 161.388906 
L 543.965944 161.433843 
L 549.25947 161.448063 
L 554.552996 160.999097 
L 559.846522 161.00875 
L 565.140048 160.438685 
L 570.433574 160.215561 
L 575.727101 161.378994 
L 581.020627 160.598163 
L 586.314153 161.371079 
L 591.607679 161.10782 
L 596.901205 161.939936 
L 602.194731 160.495274 
L 607.488258 161.473051 
L 612.781784 160.132659 
L 618.07531 161.503696 
L 623.368836 160.62938 
L 628.662362 161.314352 
L 633.955888 161.370712 
L 639.249415 161.056326 
L 644.542941 160.741552 
L 649.836467 161.465696 
L 655.129993 160.830347 
L 660.423519 161.371228 
L 665.717045 161.490015 
" clip-path="url(#p3dcc4bb895)" style="fill: none; stroke: #d62728; stroke-width: 3; stroke-linecap: square"/>
   </g>
   <g id="line2d_23">
    <path d="M 141.657955 169.305976 
L 146.951481 169.362074 
L 152.245007 169.408847 
L 157.538533 169.399416 
L 162.832059 169.352005 
L 168.125585 169.387951 
L 173.419112 169.419216 
L 178.712638 169.374952 
L 184.006164 169.375203 
L 189.29969 169.433275 
L 194.593216 169.41654 
L 199.886742 169.363063 
L 205.180269 169.35597 
L 210.473795 169.393342 
L 215.767321 169.350046 
L 221.060847 169.383764 
L 226.354373 169.407735 
L 231.647899 169.382929 
L 236.941426 169.414293 
L 242.234952 169.436506 
L 247.528478 169.41319 
L 252.822004 169.433801 
L 258.11553 169.463591 
L 263.409056 169.479281 
L 268.702583 169.481342 
L 273.996109 169.475982 
L 279.289635 169.489797 
L 284.583161 169.495992 
L 289.876687 169.491615 
L 295.170213 169.449079 
L 300.46374 169.401776 
L 305.757266 169.300557 
L 311.050792 169.287056 
L 316.344318 169.270952 
L 321.637844 169.289478 
L 326.931371 169.326218 
L 332.224897 169.390728 
L 337.518423 169.448701 
L 342.811949 169.46277 
L 348.105475 169.46365 
L 353.399001 169.448023 
L 358.692528 169.416811 
L 363.986054 169.409453 
L 369.27958 169.480452 
L 374.573106 169.46495 
L 379.866632 169.409815 
L 385.160158 169.292887 
L 390.453685 169.354415 
L 395.747211 169.47596 
L 401.040737 169.50052 
L 406.334263 169.425129 
L 411.627789 169.326746 
L 416.921315 169.468703 
L 422.214842 169.513352 
L 427.508368 169.468726 
L 432.801894 169.362948 
L 438.09542 169.330025 
L 443.388946 169.497514 
L 448.682472 169.503345 
L 453.975999 169.371266 
L 459.269525 169.280409 
L 464.563051 169.488066 
L 469.856577 169.475195 
L 475.150103 169.274653 
L 480.443629 169.350821 
L 485.737156 169.505697 
L 491.030682 169.354452 
L 496.324208 169.208867 
L 501.617734 169.478787 
L 506.91126 169.422351 
L 512.204787 169.196227 
L 517.498313 169.384849 
L 522.791839 169.409124 
L 528.085365 169.234188 
L 533.378891 169.326355 
L 538.672417 169.445648 
L 543.965944 169.382765 
L 549.25947 169.151927 
L 554.552996 169.221136 
L 559.846522 169.4682 
L 565.140048 169.377618 
L 570.433574 169.327314 
L 575.727101 169.464671 
L 581.020627 169.401429 
L 586.314153 169.463479 
L 591.607679 169.451764 
L 596.901205 169.328423 
L 602.194731 169.210651 
L 607.488258 169.326753 
L 612.781784 169.37451 
L 618.07531 169.229539 
L 623.368836 169.38747 
L 628.662362 169.450617 
L 633.955888 169.450297 
L 639.249415 169.430715 
L 644.542941 169.403515 
L 649.836467 169.30663 
L 655.129993 169.156998 
L 660.423519 169.431599 
L 665.717045 169.506708 
" clip-path="url(#p3dcc4bb895)" style="fill: none; stroke: #9467bd; stroke-width: 3; stroke-linecap: square"/>
   </g>
   <g id="line2d_24">
    <path d="M 141.657955 265.468278 
L 146.951481 265.468164 
L 152.245007 265.468156 
L 157.538533 265.468124 
L 162.832059 265.468092 
L 168.125585 265.468265 
L 173.419112 265.46834 
L 178.712638 265.468056 
L 184.006164 265.46811 
L 189.29969 265.468188 
L 194.593216 265.46802 
L 199.886742 265.467797 
L 205.180269 265.468003 
L 210.473795 265.468099 
L 215.767321 265.468221 
L 221.060847 265.468191 
L 226.354373 265.468378 
L 231.647899 265.468281 
L 236.941426 265.468282 
L 242.234952 265.4684 
L 247.528478 265.468477 
L 252.822004 265.46848 
L 258.11553 265.468537 
L 263.409056 265.468591 
L 268.702583 265.468628 
L 273.996109 265.468682 
L 279.289635 265.468681 
L 284.583161 265.468675 
L 289.876687 265.46862 
L 295.170213 265.468551 
L 300.46374 265.468367 
L 305.757266 265.468307 
L 311.050792 265.468262 
L 316.344318 265.468242 
L 321.637844 265.468109 
L 326.931371 265.468091 
L 332.224897 265.468187 
L 337.518423 265.468285 
L 342.811949 265.468417 
L 348.105475 265.468515 
L 353.399001 265.468551 
L 358.692528 265.468522 
L 363.986054 265.468601 
L 369.27958 265.468643 
L 374.573106 265.46876 
L 379.866632 265.468788 
L 385.160158 265.468616 
L 390.453685 265.468429 
L 395.747211 265.468354 
L 401.040737 265.46827 
L 406.334263 265.468145 
L 411.627789 265.468057 
L 416.921315 265.468138 
L 422.214842 265.468295 
L 427.508368 265.468329 
L 432.801894 265.468142 
L 438.09542 265.468136 
L 443.388946 265.468365 
L 448.682472 265.468438 
L 453.975999 265.468301 
L 459.269525 265.468213 
L 464.563051 265.468535 
L 469.856577 265.468511 
L 475.150103 265.468234 
L 480.443629 265.468381 
L 485.737156 265.468522 
L 491.030682 265.468404 
L 496.324208 265.468233 
L 501.617734 265.468603 
L 506.91126 265.468513 
L 512.204787 265.468283 
L 517.498313 265.468653 
L 522.791839 265.46877 
L 528.085365 265.468629 
L 533.378891 265.468403 
L 538.672417 265.468361 
L 543.965944 265.468233 
L 549.25947 265.468052 
L 554.552996 265.468031 
L 559.846522 265.467882 
L 565.140048 265.467672 
L 570.433574 265.467904 
L 575.727101 265.468092 
L 581.020627 265.468502 
L 586.314153 265.468182 
L 591.607679 265.467923 
L 596.901205 265.468042 
L 602.194731 265.468301 
L 607.488258 265.46824 
L 612.781784 265.468118 
L 618.07531 265.468315 
L 623.368836 265.468195 
L 628.662362 265.468166 
L 633.955888 265.468203 
L 639.249415 265.468198 
L 644.542941 265.468161 
L 649.836467 265.468285 
L 655.129993 265.468242 
L 660.423519 265.468308 
L 665.717045 265.46839 
" clip-path="url(#p3dcc4bb895)" style="fill: none; stroke-dasharray: 11.1,4.8; stroke-dashoffset: 0; stroke: #000000; stroke-width: 3"/>
   </g>
   <g id="patch_3">
    <path d="M 115.455 419.46 
L 115.455 58.32 
" style="fill: none; stroke: #000000; stroke-width: 2; stroke-linejoin: miter; stroke-linecap: square"/>
   </g>
   <g id="patch_4">
    <path d="M 691.92 419.46 
L 691.92 58.32 
" style="fill: none; stroke: #000000; stroke-width: 2; stroke-linejoin: miter; stroke-linecap: square"/>
   </g>
   <g id="patch_5">
    <path d="M 115.455 419.46 
L 691.92 419.46 
" style="fill: none; stroke: #000000; stroke-width: 2; stroke-linejoin: miter; stroke-linecap: square"/>
   </g>
   <g id="patch_6">
    <path d="M 115.455 58.32 
L 691.92 58.32 
" style="fill: none; stroke: #000000; stroke-width: 2; stroke-linejoin: miter; stroke-linecap: square"/>
   </g>
   <g id="text_12">
    <!-- Energy Components vs. Time -->
    <g transform="translate(171.58875 51.38775) scale(0.312 -0.312)">
     <defs>
      <path id="DejaVuSerif-76" d="M 1581 0 
L 359 2988 
L -19 2988 
L -19 3322 
L 1509 3322 
L 1509 2988 
L 978 2988 
L 1913 703 
L 2847 2988 
L 2350 2988 
L 2350 3322 
L 3597 3322 
L 3597 2988 
L 3225 2988 
L 2003 0 
L 1581 0 
z
" transform="scale(0.015625)"/>
     </defs>
     <use xlink:href="#DejaVuSerif-45"/>
     <use xlink:href="#DejaVuSerif-6e" x="72.998047"/>
     <use xlink:href="#DejaVuSerif-65" x="137.402344"/>
     <use xlink:href="#DejaVuSerif-72" x="196.582031"/>
     <use xlink:href="#DejaVuSerif-67" x="244.384766"/>
     <use xlink:href="#DejaVuSerif-79" x="308.398438"/>
     <use xlink:href="#DejaVuSerif-20" x="364.892578"/>
     <use xlink:href="#DejaVuSerif-43" x="396.679688"/>
     <use xlink:href="#DejaVuSerif-6f" x="473.193359"/>
     <use xlink:href="#DejaVuSerif-6d" x="533.398438"/>
     <use xlink:href="#DejaVuSerif-70" x="628.222656"/>
     <use xlink:href="#DejaVuSerif-6f" x="692.236328"/>
     <use xlink:href="#DejaVuSerif-6e" x="752.441406"/>
     <use xlink:href="#DejaVuSerif-65" x="816.845703"/>
     <use xlink:href="#DejaVuSerif-6e" x="876.025391"/>
     <use xlink:href="#DejaVuSerif-74" x="940.429688"/>
     <use xlink:href="#DejaVuSerif-73" x="980.615234"/>
     <use xlink:href="#DejaVuSerif-20" x="1031.933594"/>
     <use xlink:href="#DejaVuSerif-76" x="1063.720703"/>
     <use xlink:href="#DejaVuSerif-73" x="1120.214844"/>
     <use xlink:href="#DejaVuSerif-2e" x="1171.533203"/>
     <use xlink:href="#DejaVuSerif-20" x="1203.320312"/>
     <use xlink:href="#DejaVuSerif-54" x="1235.107422"/>
     <use xlink:href="#DejaVuSerif-69" x="1301.806641"/>
     <use xlink:href="#DejaVuSerif-6d" x="1333.789062"/>
     <use xlink:href="#DejaVuSerif-65" x="1428.613281"/>
    </g>
   </g>
   <g id="legend_1">
    <g id="patch_7">
     <path d="M 129.455 409.46 
L 345.526875 409.46 
Q 349.526875 409.46 349.526875 405.46 
L 349.526875 231.038125 
Q 349.526875 227.038125 345.526875 227.038125 
L 129.455 227.038125 
Q 125.455 227.038125 125.455 231.038125 
L 125.455 405.46 
Q 125.455 409.46 129.455 409.46 
z
" style="fill: #ffffff; opacity: 0.8; stroke: #cccccc; stroke-linejoin: miter"/>
    </g>
    <g id="line2d_25">
     <path d="M 133.455 243.235 
L 153.455 243.235 
L 173.455 243.235 
" style="fill: none; stroke: #1f77b4; stroke-width: 3; stroke-linecap: square"/>
    </g>
    <g id="text_13">
     <!-- Kinetic E -->
     <g transform="translate(189.455 250.235) scale(0.2 -0.2)">
      <defs>
       <path id="DejaVuSerif-4b" d="M 353 0 
L 353 331 
L 947 331 
L 947 4331 
L 353 4331 
L 353 4666 
L 2175 4666 
L 2175 4331 
L 1581 4331 
L 1581 2566 
L 3591 4331 
L 3084 4331 
L 3084 4666 
L 4634 4666 
L 4634 4331 
L 4109 4331 
L 2106 2572 
L 4347 331 
L 4878 331 
L 4878 0 
L 3794 0 
L 1581 2216 
L 1581 331 
L 2175 331 
L 2175 0 
L 353 0 
z
" transform="scale(0.015625)"/>
       <path id="DejaVuSerif-63" d="M 3291 997 
Q 3169 466 2822 187 
Q 2475 -91 1925 -91 
Q 1200 -91 759 389 
Q 319 869 319 1663 
Q 319 2459 759 2936 
Q 1200 3413 1925 3413 
Q 2241 3413 2553 3339 
Q 2866 3266 3181 3116 
L 3181 2266 
L 2847 2266 
Q 2781 2703 2561 2903 
Q 2341 3103 1931 3103 
Q 1466 3103 1228 2742 
Q 991 2381 991 1663 
Q 991 944 1227 581 
Q 1463 219 1931 219 
Q 2303 219 2525 412 
Q 2747 606 2828 997 
L 3291 997 
z
" transform="scale(0.015625)"/>
      </defs>
      <use xlink:href="#DejaVuSerif-4b"/>
      <use xlink:href="#DejaVuSerif-69" x="74.707031"/>
      <use xlink:href="#DejaVuSerif-6e" x="106.689453"/>
      <use xlink:href="#DejaVuSerif-65" x="171.09375"/>
      <use xlink:href="#DejaVuSerif-74" x="230.273438"/>
      <use xlink:href="#DejaVuSerif-69" x="270.458984"/>
      <use xlink:href="#DejaVuSerif-63" x="302.441406"/>
      <use xlink:href="#DejaVuSerif-20" x="358.447266"/>
      <use xlink:href="#DejaVuSerif-45" x="390.234375"/>
     </g>
    </g>
    <g id="line2d_26">
     <path d="M 133.455 272.59125 
L 153.455 272.59125 
L 173.455 272.59125 
" style="fill: none; stroke: #ff7f0e; stroke-width: 3; stroke-linecap: square"/>
    </g>
    <g id="text_14">
     <!-- PE e-N -->
     <g transform="translate(189.455 279.59125) scale(0.2 -0.2)">
      <defs>
       <path id="DejaVuSerif-50" d="M 1581 2375 
L 2406 2375 
Q 2872 2375 3115 2626 
Q 3359 2878 3359 3353 
Q 3359 3831 3115 4081 
Q 2872 4331 2406 4331 
L 1581 4331 
L 1581 2375 
z
M 353 0 
L 353 331 
L 947 331 
L 947 4331 
L 353 4331 
L 353 4666 
L 2559 4666 
Q 3259 4666 3668 4311 
Q 4078 3956 4078 3353 
Q 4078 2753 3668 2397 
Q 3259 2041 2559 2041 
L 1581 2041 
L 1581 331 
L 2303 331 
L 2303 0 
L 353 0 
z
" transform="scale(0.015625)"/>
       <path id="DejaVuSerif-2d" d="M 281 1959 
L 1881 1959 
L 1881 1472 
L 281 1472 
L 281 1959 
z
" transform="scale(0.015625)"/>
       <path id="DejaVuSerif-4e" d="M 313 0 
L 313 331 
L 941 331 
L 941 4331 
L 313 4331 
L 313 4666 
L 1509 4666 
L 4306 984 
L 4306 4331 
L 3681 4331 
L 3681 4666 
L 5319 4666 
L 5319 4331 
L 4691 4331 
L 4691 -91 
L 4313 -91 
L 1325 3841 
L 1325 331 
L 1953 331 
L 1953 0 
L 313 0 
z
" transform="scale(0.015625)"/>
      </defs>
      <use xlink:href="#DejaVuSerif-50"/>
      <use xlink:href="#DejaVuSerif-45" x="67.285156"/>
      <use xlink:href="#DejaVuSerif-20" x="140.283203"/>
      <use xlink:href="#DejaVuSerif-65" x="172.070312"/>
      <use xlink:href="#DejaVuSerif-2d" x="231.25"/>
      <use xlink:href="#DejaVuSerif-4e" x="265.039062"/>
     </g>
    </g>
    <g id="line2d_27">
     <path d="M 133.455 301.9475 
L 153.455 301.9475 
L 173.455 301.9475 
" style="fill: none; stroke: #2ca02c; stroke-width: 3; stroke-linecap: square"/>
    </g>
    <g id="text_15">
     <!-- PE e-e -->
     <g transform="translate(189.455 308.9475) scale(0.2 -0.2)">
      <use xlink:href="#DejaVuSerif-50"/>
      <use xlink:href="#DejaVuSerif-45" x="67.285156"/>
      <use xlink:href="#DejaVuSerif-20" x="140.283203"/>
      <use xlink:href="#DejaVuSerif-65" x="172.070312"/>
      <use xlink:href="#DejaVuSerif-2d" x="231.25"/>
      <use xlink:href="#DejaVuSerif-65" x="265.039062"/>
     </g>
    </g>
    <g id="line2d_28">
     <path d="M 133.455 331.30375 
L 153.455 331.30375 
L 173.455 331.30375 
" style="fill: none; stroke: #d62728; stroke-width: 3; stroke-linecap: square"/>
    </g>
    <g id="text_16">
     <!-- PE Heisenberg -->
     <g transform="translate(189.455 338.30375) scale(0.2 -0.2)">
      <defs>
       <path id="DejaVuSerif-48" d="M 353 0 
L 353 331 
L 947 331 
L 947 4331 
L 353 4331 
L 353 4666 
L 2175 4666 
L 2175 4331 
L 1581 4331 
L 1581 2719 
L 4000 2719 
L 4000 4331 
L 3406 4331 
L 3406 4666 
L 5228 4666 
L 5228 4331 
L 4634 4331 
L 4634 331 
L 5228 331 
L 5228 0 
L 3406 0 
L 3406 331 
L 4000 331 
L 4000 2338 
L 1581 2338 
L 1581 331 
L 2175 331 
L 2175 0 
L 353 0 
z
" transform="scale(0.015625)"/>
       <path id="DejaVuSerif-62" d="M 738 331 
L 738 4531 
L 184 4531 
L 184 4863 
L 1313 4863 
L 1313 2803 
Q 1481 3116 1742 3264 
Q 2003 3413 2388 3413 
Q 3000 3413 3387 2928 
Q 3775 2444 3775 1663 
Q 3775 881 3387 395 
Q 3000 -91 2388 -91 
Q 2003 -91 1742 57 
Q 1481 206 1313 519 
L 1313 0 
L 184 0 
L 184 331 
L 738 331 
z
M 1313 1497 
Q 1313 897 1542 583 
Q 1772 269 2209 269 
Q 2650 269 2876 622 
Q 3103 975 3103 1663 
Q 3103 2353 2876 2703 
Q 2650 3053 2209 3053 
Q 1772 3053 1542 2737 
Q 1313 2422 1313 1825 
L 1313 1497 
z
" transform="scale(0.015625)"/>
      </defs>
      <use xlink:href="#DejaVuSerif-50"/>
      <use xlink:href="#DejaVuSerif-45" x="67.285156"/>
      <use xlink:href="#DejaVuSerif-20" x="140.283203"/>
      <use xlink:href="#DejaVuSerif-48" x="172.070312"/>
      <use xlink:href="#DejaVuSerif-65" x="259.277344"/>
      <use xlink:href="#DejaVuSerif-69" x="318.457031"/>
      <use xlink:href="#DejaVuSerif-73" x="350.439453"/>
      <use xlink:href="#DejaVuSerif-65" x="401.757812"/>
      <use xlink:href="#DejaVuSerif-6e" x="460.9375"/>
      <use xlink:href="#DejaVuSerif-62" x="525.341797"/>
      <use xlink:href="#DejaVuSerif-65" x="589.355469"/>
      <use xlink:href="#DejaVuSerif-72" x="648.535156"/>
      <use xlink:href="#DejaVuSerif-67" x="696.337891"/>
     </g>
    </g>
    <g id="line2d_29">
     <path d="M 133.455 360.944375 
L 153.455 360.944375 
L 173.455 360.944375 
" style="fill: none; stroke: #9467bd; stroke-width: 3; stroke-linecap: square"/>
    </g>
    <g id="text_17">
     <!-- PE Pauli -->
     <g transform="translate(189.455 367.944375) scale(0.2 -0.2)">
      <defs>
       <path id="DejaVuSerif-6c" d="M 1313 331 
L 1856 331 
L 1856 0 
L 184 0 
L 184 331 
L 738 331 
L 738 4531 
L 184 4531 
L 184 4863 
L 1313 4863 
L 1313 331 
z
" transform="scale(0.015625)"/>
      </defs>
      <use xlink:href="#DejaVuSerif-50"/>
      <use xlink:href="#DejaVuSerif-45" x="67.285156"/>
      <use xlink:href="#DejaVuSerif-20" x="140.283203"/>
      <use xlink:href="#DejaVuSerif-50" x="172.070312"/>
      <use xlink:href="#DejaVuSerif-61" x="234.855469"/>
      <use xlink:href="#DejaVuSerif-75" x="294.474609"/>
      <use xlink:href="#DejaVuSerif-6c" x="358.878906"/>
      <use xlink:href="#DejaVuSerif-69" x="390.861328"/>
     </g>
    </g>
    <g id="line2d_30">
     <path d="M 133.455 390.300625 
L 153.455 390.300625 
L 173.455 390.300625 
" style="fill: none; stroke-dasharray: 11.1,4.8; stroke-dashoffset: 0; stroke: #000000; stroke-width: 3"/>
    </g>
    <g id="text_18">
     <!-- Total E -->
     <g transform="translate(189.455 397.300625) scale(0.2 -0.2)">
      <use xlink:href="#DejaVuSerif-54"/>
      <use xlink:href="#DejaVuSerif-6f" x="58.949219"/>
      <use xlink:href="#DejaVuSerif-74" x="119.154297"/>
      <use xlink:href="#DejaVuSerif-61" x="159.339844"/>
      <use xlink:href="#DejaVuSerif-6c" x="218.958984"/>
      <use xlink:href="#DejaVuSerif-20" x="250.941406"/>
      <use xlink:href="#DejaVuSerif-45" x="282.728516"/>
     </g>
    </g>
   </g>
  </g>
 </g>
 <defs>
  <clipPath id="p3dcc4bb895">
   <rect x="115.455" y="58.32" width="576.465" height="361.14"/>
  </clipPath>
 </defs>
</svg>
