<?xml version="1.0" encoding="utf-8" standalone="no"?>
<!DOCTYPE svg PUBLIC "-//W3C//DTD SVG 1.1//EN"
  "http://www.w3.org/Graphics/SVG/1.1/DTD/svg11.dtd">
<svg xmlns:xlink="http://www.w3.org/1999/xlink" width="720pt" height="432pt" viewBox="0 0 720 432" xmlns="http://www.w3.org/2000/svg" version="1.1">
 <metadata>
  <rdf:RDF xmlns:dc="http://purl.org/dc/elements/1.1/" xmlns:cc="http://creativecommons.org/ns#" xmlns:rdf="http://www.w3.org/1999/02/22-rdf-syntax-ns#">
   <cc:Work>
    <dc:type rdf:resource="http://purl.org/dc/dcmitype/StillImage"/>
    <dc:date>2025-05-25T11:12:36.447859</dc:date>
    <dc:format>image/svg+xml</dc:format>
    <dc:creator>
     <cc:Agent>
      <dc:title>Matplotlib v3.7.2, https://matplotlib.org/</dc:title>
     </cc:Agent>
    </dc:creator>
   </cc:Work>
  </rdf:RDF>
 </metadata>
 <defs>
  <style type="text/css">*{stroke-linejoin: round; stroke-linecap: butt}</style>
 </defs>
 <g id="figure_1">
  <g id="patch_1">
   <path d="M 0 432 
L 720 432 
L 720 0 
L 0 0 
z
" style="fill: #ffffff"/>
  </g>
  <g id="axes_1">
   <g id="patch_2">
    <path d="M 77.8956 366.18 
L 709.2 366.18 
L 709.2 10.8 
L 77.8956 10.8 
z
" style="fill: #ffffff"/>
   </g>
   <g id="matplotlib.axis_1">
    <g id="xtick_1">
     <g id="line2d_1">
      <path d="M 95.338057 366.18 
L 95.338057 10.8 
" clip-path="url(#pd9d505e830)" style="fill: none; stroke: #b0b0b0; stroke-width: 0.8; stroke-linecap: square"/>
     </g>
     <g id="line2d_2">
      <defs>
       <path id="meba770796b" d="M 0 0 
L 0 -5 
" style="stroke: #000000; stroke-width: 2"/>
      </defs>
      <g>
       <use xlink:href="#meba770796b" x="95.338057" y="366.18" style="stroke: #000000; stroke-width: 2"/>
      </g>
     </g>
     <g id="line2d_3">
      <defs>
       <path id="m58afe0f7d0" d="M 0 0 
L 0 5 
" style="stroke: #000000; stroke-width: 2"/>
      </defs>
      <g>
       <use xlink:href="#m58afe0f7d0" x="95.338057" y="10.8" style="stroke: #000000; stroke-width: 2"/>
      </g>
     </g>
     <g id="text_1">
      <!-- 0 -->
      <g transform="translate(87.703057 387.91625) scale(0.24 -0.24)">
       <defs>
        <path id="DejaVuSans-30" d="M 2034 4250 
Q 1547 4250 1301 3770 
Q 1056 3291 1056 2328 
Q 1056 1369 1301 889 
Q 1547 409 2034 409 
Q 2525 409 2770 889 
Q 3016 1369 3016 2328 
Q 3016 3291 2770 3770 
Q 2525 4250 2034 4250 
z
M 2034 4750 
Q 2819 4750 3233 4129 
Q 3647 3509 3647 2328 
Q 3647 1150 3233 529 
Q 2819 -91 2034 -91 
Q 1250 -91 836 529 
Q 422 1150 422 2328 
Q 422 3509 836 4129 
Q 1250 4750 2034 4750 
z
" transform="scale(0.015625)"/>
       </defs>
       <use xlink:href="#DejaVuSans-30"/>
      </g>
     </g>
    </g>
    <g id="xtick_2">
     <g id="line2d_4">
      <path d="M 207.870035 366.18 
L 207.870035 10.8 
" clip-path="url(#pd9d505e830)" style="fill: none; stroke: #b0b0b0; stroke-width: 0.8; stroke-linecap: square"/>
     </g>
     <g id="line2d_5">
      <g>
       <use xlink:href="#meba770796b" x="207.870035" y="366.18" style="stroke: #000000; stroke-width: 2"/>
      </g>
     </g>
     <g id="line2d_6">
      <g>
       <use xlink:href="#m58afe0f7d0" x="207.870035" y="10.8" style="stroke: #000000; stroke-width: 2"/>
      </g>
     </g>
     <g id="text_2">
      <!-- 10 -->
      <g transform="translate(192.600035 387.91625) scale(0.24 -0.24)">
       <defs>
        <path id="DejaVuSans-31" d="M 794 531 
L 1825 531 
L 1825 4091 
L 703 3866 
L 703 4441 
L 1819 4666 
L 2450 4666 
L 2450 531 
L 3481 531 
L 3481 0 
L 794 0 
L 794 531 
z
" transform="scale(0.015625)"/>
       </defs>
       <use xlink:href="#DejaVuSans-31"/>
       <use xlink:href="#DejaVuSans-30" x="63.623047"/>
      </g>
     </g>
    </g>
    <g id="xtick_3">
     <g id="line2d_7">
      <path d="M 320.402014 366.18 
L 320.402014 10.8 
" clip-path="url(#pd9d505e830)" style="fill: none; stroke: #b0b0b0; stroke-width: 0.8; stroke-linecap: square"/>
     </g>
     <g id="line2d_8">
      <g>
       <use xlink:href="#meba770796b" x="320.402014" y="366.18" style="stroke: #000000; stroke-width: 2"/>
      </g>
     </g>
     <g id="line2d_9">
      <g>
       <use xlink:href="#m58afe0f7d0" x="320.402014" y="10.8" style="stroke: #000000; stroke-width: 2"/>
      </g>
     </g>
     <g id="text_3">
      <!-- 20 -->
      <g transform="translate(305.132014 387.91625) scale(0.24 -0.24)">
       <defs>
        <path id="DejaVuSans-32" d="M 1228 531 
L 3431 531 
L 3431 0 
L 469 0 
L 469 531 
Q 828 903 1448 1529 
Q 2069 2156 2228 2338 
Q 2531 2678 2651 2914 
Q 2772 3150 2772 3378 
Q 2772 3750 2511 3984 
Q 2250 4219 1831 4219 
Q 1534 4219 1204 4116 
Q 875 4013 500 3803 
L 500 4441 
Q 881 4594 1212 4672 
Q 1544 4750 1819 4750 
Q 2544 4750 2975 4387 
Q 3406 4025 3406 3419 
Q 3406 3131 3298 2873 
Q 3191 2616 2906 2266 
Q 2828 2175 2409 1742 
Q 1991 1309 1228 531 
z
" transform="scale(0.015625)"/>
       </defs>
       <use xlink:href="#DejaVuSans-32"/>
       <use xlink:href="#DejaVuSans-30" x="63.623047"/>
      </g>
     </g>
    </g>
    <g id="xtick_4">
     <g id="line2d_10">
      <path d="M 432.933993 366.18 
L 432.933993 10.8 
" clip-path="url(#pd9d505e830)" style="fill: none; stroke: #b0b0b0; stroke-width: 0.8; stroke-linecap: square"/>
     </g>
     <g id="line2d_11">
      <g>
       <use xlink:href="#meba770796b" x="432.933993" y="366.18" style="stroke: #000000; stroke-width: 2"/>
      </g>
     </g>
     <g id="line2d_12">
      <g>
       <use xlink:href="#m58afe0f7d0" x="432.933993" y="10.8" style="stroke: #000000; stroke-width: 2"/>
      </g>
     </g>
     <g id="text_4">
      <!-- 30 -->
      <g transform="translate(417.663993 387.91625) scale(0.24 -0.24)">
       <defs>
        <path id="DejaVuSans-33" d="M 2597 2516 
Q 3050 2419 3304 2112 
Q 3559 1806 3559 1356 
Q 3559 666 3084 287 
Q 2609 -91 1734 -91 
Q 1441 -91 1130 -33 
Q 819 25 488 141 
L 488 750 
Q 750 597 1062 519 
Q 1375 441 1716 441 
Q 2309 441 2620 675 
Q 2931 909 2931 1356 
Q 2931 1769 2642 2001 
Q 2353 2234 1838 2234 
L 1294 2234 
L 1294 2753 
L 1863 2753 
Q 2328 2753 2575 2939 
Q 2822 3125 2822 3475 
Q 2822 3834 2567 4026 
Q 2313 4219 1838 4219 
Q 1578 4219 1281 4162 
Q 984 4106 628 3988 
L 628 4550 
Q 988 4650 1302 4700 
Q 1616 4750 1894 4750 
Q 2613 4750 3031 4423 
Q 3450 4097 3450 3541 
Q 3450 3153 3228 2886 
Q 3006 2619 2597 2516 
z
" transform="scale(0.015625)"/>
       </defs>
       <use xlink:href="#DejaVuSans-33"/>
       <use xlink:href="#DejaVuSans-30" x="63.623047"/>
      </g>
     </g>
    </g>
    <g id="xtick_5">
     <g id="line2d_13">
      <path d="M 545.465971 366.18 
L 545.465971 10.8 
" clip-path="url(#pd9d505e830)" style="fill: none; stroke: #b0b0b0; stroke-width: 0.8; stroke-linecap: square"/>
     </g>
     <g id="line2d_14">
      <g>
       <use xlink:href="#meba770796b" x="545.465971" y="366.18" style="stroke: #000000; stroke-width: 2"/>
      </g>
     </g>
     <g id="line2d_15">
      <g>
       <use xlink:href="#m58afe0f7d0" x="545.465971" y="10.8" style="stroke: #000000; stroke-width: 2"/>
      </g>
     </g>
     <g id="text_5">
      <!-- 40 -->
      <g transform="translate(530.195971 387.91625) scale(0.24 -0.24)">
       <defs>
        <path id="DejaVuSans-34" d="M 2419 4116 
L 825 1625 
L 2419 1625 
L 2419 4116 
z
M 2253 4666 
L 3047 4666 
L 3047 1625 
L 3713 1625 
L 3713 1100 
L 3047 1100 
L 3047 0 
L 2419 0 
L 2419 1100 
L 313 1100 
L 313 1709 
L 2253 4666 
z
" transform="scale(0.015625)"/>
       </defs>
       <use xlink:href="#DejaVuSans-34"/>
       <use xlink:href="#DejaVuSans-30" x="63.623047"/>
      </g>
     </g>
    </g>
    <g id="xtick_6">
     <g id="line2d_16">
      <path d="M 657.99795 366.18 
L 657.99795 10.8 
" clip-path="url(#pd9d505e830)" style="fill: none; stroke: #b0b0b0; stroke-width: 0.8; stroke-linecap: square"/>
     </g>
     <g id="line2d_17">
      <g>
       <use xlink:href="#meba770796b" x="657.99795" y="366.18" style="stroke: #000000; stroke-width: 2"/>
      </g>
     </g>
     <g id="line2d_18">
      <g>
       <use xlink:href="#m58afe0f7d0" x="657.99795" y="10.8" style="stroke: #000000; stroke-width: 2"/>
      </g>
     </g>
     <g id="text_6">
      <!-- 50 -->
      <g transform="translate(642.72795 387.91625) scale(0.24 -0.24)">
       <defs>
        <path id="DejaVuSans-35" d="M 691 4666 
L 3169 4666 
L 3169 4134 
L 1269 4134 
L 1269 2991 
Q 1406 3038 1543 3061 
Q 1681 3084 1819 3084 
Q 2600 3084 3056 2656 
Q 3513 2228 3513 1497 
Q 3513 744 3044 326 
Q 2575 -91 1722 -91 
Q 1428 -91 1123 -41 
Q 819 9 494 109 
L 494 744 
Q 775 591 1075 516 
Q 1375 441 1709 441 
Q 2250 441 2565 725 
Q 2881 1009 2881 1497 
Q 2881 1984 2565 2268 
Q 2250 2553 1709 2553 
Q 1456 2553 1204 2497 
Q 953 2441 691 2322 
L 691 4666 
z
" transform="scale(0.015625)"/>
       </defs>
       <use xlink:href="#DejaVuSans-35"/>
       <use xlink:href="#DejaVuSans-30" x="63.623047"/>
      </g>
     </g>
    </g>
    <g id="text_7">
     <!-- $Z$ -->
     <g transform="translate(385.2678 415.14375) scale(0.24 -0.24)">
      <defs>
       <path id="DejaVuSans-Oblique-5a" d="M 838 4666 
L 4500 4666 
L 4409 4184 
L 794 531 
L 3769 531 
L 3669 0 
L -141 0 
L -50 481 
L 3566 4134 
L 738 4134 
L 838 4666 
z
" transform="scale(0.015625)"/>
      </defs>
      <use xlink:href="#DejaVuSans-Oblique-5a" transform="translate(0 0.09375)"/>
     </g>
    </g>
   </g>
   <g id="matplotlib.axis_2">
    <g id="ytick_1">
     <g id="line2d_19">
      <path d="M 77.8956 353.448472 
L 709.2 353.448472 
" clip-path="url(#pd9d505e830)" style="fill: none; stroke: #b0b0b0; stroke-width: 0.8; stroke-linecap: square"/>
     </g>
     <g id="line2d_20">
      <defs>
       <path id="mcff39986d4" d="M 0 0 
L 5 0 
" style="stroke: #000000; stroke-width: 2"/>
      </defs>
      <g>
       <use xlink:href="#mcff39986d4" x="77.8956" y="353.448472" style="stroke: #000000; stroke-width: 2"/>
      </g>
     </g>
     <g id="line2d_21">
      <defs>
       <path id="m097c081607" d="M 0 0 
L -5 0 
" style="stroke: #000000; stroke-width: 2"/>
      </defs>
      <g>
       <use xlink:href="#m097c081607" x="709.2" y="353.448472" style="stroke: #000000; stroke-width: 2"/>
      </g>
     </g>
     <g id="text_8">
      <!-- 0 -->
      <g transform="translate(59.1256 362.566597) scale(0.24 -0.24)">
       <use xlink:href="#DejaVuSans-30"/>
      </g>
     </g>
    </g>
    <g id="ytick_2">
     <g id="line2d_22">
      <path d="M 77.8956 310.162685 
L 709.2 310.162685 
" clip-path="url(#pd9d505e830)" style="fill: none; stroke: #b0b0b0; stroke-width: 0.8; stroke-linecap: square"/>
     </g>
     <g id="line2d_23">
      <g>
       <use xlink:href="#mcff39986d4" x="77.8956" y="310.162685" style="stroke: #000000; stroke-width: 2"/>
      </g>
     </g>
     <g id="line2d_24">
      <g>
       <use xlink:href="#m097c081607" x="709.2" y="310.162685" style="stroke: #000000; stroke-width: 2"/>
      </g>
     </g>
     <g id="text_9">
      <!-- 1 -->
      <g transform="translate(59.1256 319.28081) scale(0.24 -0.24)">
       <use xlink:href="#DejaVuSans-31"/>
      </g>
     </g>
    </g>
    <g id="ytick_3">
     <g id="line2d_25">
      <path d="M 77.8956 266.876899 
L 709.2 266.876899 
" clip-path="url(#pd9d505e830)" style="fill: none; stroke: #b0b0b0; stroke-width: 0.8; stroke-linecap: square"/>
     </g>
     <g id="line2d_26">
      <g>
       <use xlink:href="#mcff39986d4" x="77.8956" y="266.876899" style="stroke: #000000; stroke-width: 2"/>
      </g>
     </g>
     <g id="line2d_27">
      <g>
       <use xlink:href="#m097c081607" x="709.2" y="266.876899" style="stroke: #000000; stroke-width: 2"/>
      </g>
     </g>
     <g id="text_10">
      <!-- 2 -->
      <g transform="translate(59.1256 275.995024) scale(0.24 -0.24)">
       <use xlink:href="#DejaVuSans-32"/>
      </g>
     </g>
    </g>
    <g id="ytick_4">
     <g id="line2d_28">
      <path d="M 77.8956 223.591112 
L 709.2 223.591112 
" clip-path="url(#pd9d505e830)" style="fill: none; stroke: #b0b0b0; stroke-width: 0.8; stroke-linecap: square"/>
     </g>
     <g id="line2d_29">
      <g>
       <use xlink:href="#mcff39986d4" x="77.8956" y="223.591112" style="stroke: #000000; stroke-width: 2"/>
      </g>
     </g>
     <g id="line2d_30">
      <g>
       <use xlink:href="#m097c081607" x="709.2" y="223.591112" style="stroke: #000000; stroke-width: 2"/>
      </g>
     </g>
     <g id="text_11">
      <!-- 3 -->
      <g transform="translate(59.1256 232.709237) scale(0.24 -0.24)">
       <use xlink:href="#DejaVuSans-33"/>
      </g>
     </g>
    </g>
    <g id="ytick_5">
     <g id="line2d_31">
      <path d="M 77.8956 180.305326 
L 709.2 180.305326 
" clip-path="url(#pd9d505e830)" style="fill: none; stroke: #b0b0b0; stroke-width: 0.8; stroke-linecap: square"/>
     </g>
     <g id="line2d_32">
      <g>
       <use xlink:href="#mcff39986d4" x="77.8956" y="180.305326" style="stroke: #000000; stroke-width: 2"/>
      </g>
     </g>
     <g id="line2d_33">
      <g>
       <use xlink:href="#m097c081607" x="709.2" y="180.305326" style="stroke: #000000; stroke-width: 2"/>
      </g>
     </g>
     <g id="text_12">
      <!-- 4 -->
      <g transform="translate(59.1256 189.423451) scale(0.24 -0.24)">
       <use xlink:href="#DejaVuSans-34"/>
      </g>
     </g>
    </g>
    <g id="ytick_6">
     <g id="line2d_34">
      <path d="M 77.8956 137.01954 
L 709.2 137.01954 
" clip-path="url(#pd9d505e830)" style="fill: none; stroke: #b0b0b0; stroke-width: 0.8; stroke-linecap: square"/>
     </g>
     <g id="line2d_35">
      <g>
       <use xlink:href="#mcff39986d4" x="77.8956" y="137.01954" style="stroke: #000000; stroke-width: 2"/>
      </g>
     </g>
     <g id="line2d_36">
      <g>
       <use xlink:href="#m097c081607" x="709.2" y="137.01954" style="stroke: #000000; stroke-width: 2"/>
      </g>
     </g>
     <g id="text_13">
      <!-- 5 -->
      <g transform="translate(59.1256 146.137665) scale(0.24 -0.24)">
       <use xlink:href="#DejaVuSans-35"/>
      </g>
     </g>
    </g>
    <g id="ytick_7">
     <g id="line2d_37">
      <path d="M 77.8956 93.733753 
L 709.2 93.733753 
" clip-path="url(#pd9d505e830)" style="fill: none; stroke: #b0b0b0; stroke-width: 0.8; stroke-linecap: square"/>
     </g>
     <g id="line2d_38">
      <g>
       <use xlink:href="#mcff39986d4" x="77.8956" y="93.733753" style="stroke: #000000; stroke-width: 2"/>
      </g>
     </g>
     <g id="line2d_39">
      <g>
       <use xlink:href="#m097c081607" x="709.2" y="93.733753" style="stroke: #000000; stroke-width: 2"/>
      </g>
     </g>
     <g id="text_14">
      <!-- 6 -->
      <g transform="translate(59.1256 102.851878) scale(0.24 -0.24)">
       <defs>
        <path id="DejaVuSans-36" d="M 2113 2584 
Q 1688 2584 1439 2293 
Q 1191 2003 1191 1497 
Q 1191 994 1439 701 
Q 1688 409 2113 409 
Q 2538 409 2786 701 
Q 3034 994 3034 1497 
Q 3034 2003 2786 2293 
Q 2538 2584 2113 2584 
z
M 3366 4563 
L 3366 3988 
Q 3128 4100 2886 4159 
Q 2644 4219 2406 4219 
Q 1781 4219 1451 3797 
Q 1122 3375 1075 2522 
Q 1259 2794 1537 2939 
Q 1816 3084 2150 3084 
Q 2853 3084 3261 2657 
Q 3669 2231 3669 1497 
Q 3669 778 3244 343 
Q 2819 -91 2113 -91 
Q 1303 -91 875 529 
Q 447 1150 447 2328 
Q 447 3434 972 4092 
Q 1497 4750 2381 4750 
Q 2619 4750 2861 4703 
Q 3103 4656 3366 4563 
z
" transform="scale(0.015625)"/>
       </defs>
       <use xlink:href="#DejaVuSans-36"/>
      </g>
     </g>
    </g>
    <g id="ytick_8">
     <g id="line2d_40">
      <path d="M 77.8956 50.447967 
L 709.2 50.447967 
" clip-path="url(#pd9d505e830)" style="fill: none; stroke: #b0b0b0; stroke-width: 0.8; stroke-linecap: square"/>
     </g>
     <g id="line2d_41">
      <g>
       <use xlink:href="#mcff39986d4" x="77.8956" y="50.447967" style="stroke: #000000; stroke-width: 2"/>
      </g>
     </g>
     <g id="line2d_42">
      <g>
       <use xlink:href="#m097c081607" x="709.2" y="50.447967" style="stroke: #000000; stroke-width: 2"/>
      </g>
     </g>
     <g id="text_15">
      <!-- 7 -->
      <g transform="translate(59.1256 59.566092) scale(0.24 -0.24)">
       <defs>
        <path id="DejaVuSans-37" d="M 525 4666 
L 3525 4666 
L 3525 4397 
L 1831 0 
L 1172 0 
L 2766 4134 
L 525 4134 
L 525 4666 
z
" transform="scale(0.015625)"/>
       </defs>
       <use xlink:href="#DejaVuSans-37"/>
      </g>
     </g>
    </g>
    <g id="text_16">
     <!-- $|\frac{E_{GS, BFGS} -E_{GS, NIST}}{E_{GS, NIST}}|$ (%) -->
     <g transform="translate(41.6856 295.89) rotate(-90) scale(0.24 -0.24)">
      <defs>
       <path id="DejaVuSans-7c" d="M 1344 4891 
L 1344 -1509 
L 813 -1509 
L 813 4891 
L 1344 4891 
z
" transform="scale(0.015625)"/>
       <path id="DejaVuSans-Oblique-45" d="M 1081 4666 
L 4031 4666 
L 3928 4134 
L 1606 4134 
L 1338 2753 
L 3566 2753 
L 3463 2222 
L 1234 2222 
L 909 531 
L 3284 531 
L 3181 0 
L 172 0 
L 1081 4666 
z
" transform="scale(0.015625)"/>
       <path id="DejaVuSans-Oblique-47" d="M 3494 697 
L 3738 1919 
L 2700 1919 
L 2797 2438 
L 4453 2438 
L 4050 384 
Q 3634 156 3143 32 
Q 2653 -91 2156 -91 
Q 1278 -91 783 396 
Q 288 884 288 1753 
Q 288 2475 589 3126 
Q 891 3778 1422 4213 
Q 1756 4484 2153 4617 
Q 2550 4750 3034 4750 
Q 3472 4750 3873 4639 
Q 4275 4528 4641 4306 
L 4513 3634 
Q 4231 3928 3853 4083 
Q 3475 4238 3047 4238 
Q 2550 4238 2172 4048 
Q 1794 3859 1497 3463 
Q 1244 3125 1098 2667 
Q 953 2209 953 1734 
Q 953 1081 1287 751 
Q 1622 422 2284 422 
Q 2616 422 2925 492 
Q 3234 563 3494 697 
z
" transform="scale(0.015625)"/>
       <path id="DejaVuSans-Oblique-53" d="M 3859 4513 
L 3738 3897 
Q 3422 4066 3111 4152 
Q 2800 4238 2509 4238 
Q 1944 4238 1609 3991 
Q 1275 3744 1275 3334 
Q 1275 3109 1398 2989 
Q 1522 2869 2034 2731 
L 2413 2638 
Q 3053 2472 3303 2217 
Q 3553 1963 3553 1503 
Q 3553 797 2998 353 
Q 2444 -91 1538 -91 
Q 1166 -91 791 -17 
Q 416 56 38 206 
L 166 856 
Q 513 641 861 531 
Q 1209 422 1556 422 
Q 2147 422 2503 684 
Q 2859 947 2859 1369 
Q 2859 1650 2717 1795 
Q 2575 1941 2106 2059 
L 1728 2156 
Q 1081 2325 845 2545 
Q 609 2766 609 3163 
Q 609 3859 1145 4304 
Q 1681 4750 2541 4750 
Q 2875 4750 3203 4690 
Q 3531 4631 3859 4513 
z
" transform="scale(0.015625)"/>
       <path id="DejaVuSans-2c" d="M 750 794 
L 1409 794 
L 1409 256 
L 897 -744 
L 494 -744 
L 750 256 
L 750 794 
z
" transform="scale(0.015625)"/>
       <path id="DejaVuSans-Oblique-42" d="M 1081 4666 
L 2694 4666 
Q 3350 4666 3675 4422 
Q 4000 4178 4000 3688 
Q 4000 3238 3720 2911 
Q 3441 2584 2988 2516 
Q 3375 2428 3569 2181 
Q 3763 1934 3763 1522 
Q 3763 819 3242 409 
Q 2722 0 1819 0 
L 172 0 
L 1081 4666 
z
M 1234 2228 
L 903 519 
L 1919 519 
Q 2491 519 2800 781 
Q 3109 1044 3109 1522 
Q 3109 1891 2904 2059 
Q 2700 2228 2247 2228 
L 1234 2228 
z
M 1606 4147 
L 1331 2741 
L 2272 2741 
Q 2775 2741 3058 2959 
Q 3341 3178 3341 3566 
Q 3341 3869 3150 4008 
Q 2959 4147 2541 4147 
L 1606 4147 
z
" transform="scale(0.015625)"/>
       <path id="DejaVuSans-Oblique-46" d="M 1081 4666 
L 3756 4666 
L 3653 4134 
L 1606 4134 
L 1338 2759 
L 3188 2759 
L 3084 2228 
L 1234 2228 
L 800 0 
L 172 0 
L 1081 4666 
z
" transform="scale(0.015625)"/>
       <path id="DejaVuSans-2212" d="M 678 2272 
L 4684 2272 
L 4684 1741 
L 678 1741 
L 678 2272 
z
" transform="scale(0.015625)"/>
       <path id="DejaVuSans-Oblique-4e" d="M 1081 4666 
L 1931 4666 
L 3219 666 
L 4000 4666 
L 4616 4666 
L 3706 0 
L 2853 0 
L 1569 4025 
L 788 0 
L 172 0 
L 1081 4666 
z
" transform="scale(0.015625)"/>
       <path id="DejaVuSans-Oblique-49" d="M 1081 4666 
L 1716 4666 
L 806 0 
L 172 0 
L 1081 4666 
z
" transform="scale(0.015625)"/>
       <path id="DejaVuSans-Oblique-54" d="M 378 4666 
L 4325 4666 
L 4225 4134 
L 2559 4134 
L 1759 0 
L 1125 0 
L 1925 4134 
L 275 4134 
L 378 4666 
z
" transform="scale(0.015625)"/>
       <path id="DejaVuSans-20" transform="scale(0.015625)"/>
       <path id="DejaVuSans-28" d="M 1984 4856 
Q 1566 4138 1362 3434 
Q 1159 2731 1159 2009 
Q 1159 1288 1364 580 
Q 1569 -128 1984 -844 
L 1484 -844 
Q 1016 -109 783 600 
Q 550 1309 550 2009 
Q 550 2706 781 3412 
Q 1013 4119 1484 4856 
L 1984 4856 
z
" transform="scale(0.015625)"/>
       <path id="DejaVuSans-25" d="M 4653 2053 
Q 4381 2053 4226 1822 
Q 4072 1591 4072 1178 
Q 4072 772 4226 539 
Q 4381 306 4653 306 
Q 4919 306 5073 539 
Q 5228 772 5228 1178 
Q 5228 1588 5073 1820 
Q 4919 2053 4653 2053 
z
M 4653 2450 
Q 5147 2450 5437 2106 
Q 5728 1763 5728 1178 
Q 5728 594 5436 251 
Q 5144 -91 4653 -91 
Q 4153 -91 3862 251 
Q 3572 594 3572 1178 
Q 3572 1766 3864 2108 
Q 4156 2450 4653 2450 
z
M 1428 4353 
Q 1159 4353 1004 4120 
Q 850 3888 850 3481 
Q 850 3069 1003 2837 
Q 1156 2606 1428 2606 
Q 1700 2606 1854 2837 
Q 2009 3069 2009 3481 
Q 2009 3884 1853 4118 
Q 1697 4353 1428 4353 
z
M 4250 4750 
L 4750 4750 
L 1831 -91 
L 1331 -91 
L 4250 4750 
z
M 1428 4750 
Q 1922 4750 2215 4408 
Q 2509 4066 2509 3481 
Q 2509 2891 2217 2550 
Q 1925 2209 1428 2209 
Q 931 2209 642 2551 
Q 353 2894 353 3481 
Q 353 4063 643 4406 
Q 934 4750 1428 4750 
z
" transform="scale(0.015625)"/>
       <path id="DejaVuSans-29" d="M 513 4856 
L 1013 4856 
Q 1481 4119 1714 3412 
Q 1947 2706 1947 2009 
Q 1947 1309 1714 600 
Q 1481 -109 1013 -844 
L 513 -844 
Q 928 -128 1133 580 
Q 1338 1288 1338 2009 
Q 1338 2731 1133 3434 
Q 928 4138 513 4856 
z
" transform="scale(0.015625)"/>
      </defs>
      <use xlink:href="#DejaVuSans-7c" transform="translate(0 0.988125)"/>
      <use xlink:href="#DejaVuSans-Oblique-45" transform="translate(33.691406 61.965625) scale(0.7)"/>
      <use xlink:href="#DejaVuSans-Oblique-47" transform="translate(77.919922 50.48125) scale(0.49)"/>
      <use xlink:href="#DejaVuSans-Oblique-53" transform="translate(115.890137 50.48125) scale(0.49)"/>
      <use xlink:href="#DejaVuSans-2c" transform="translate(146.993652 50.48125) scale(0.49)"/>
      <use xlink:href="#DejaVuSans-Oblique-42" transform="translate(172.115723 50.48125) scale(0.49)"/>
      <use xlink:href="#DejaVuSans-Oblique-46" transform="translate(205.731445 50.48125) scale(0.49)"/>
      <use xlink:href="#DejaVuSans-Oblique-47" transform="translate(233.916016 50.48125) scale(0.49)"/>
      <use xlink:href="#DejaVuSans-Oblique-53" transform="translate(271.88623 50.48125) scale(0.49)"/>
      <use xlink:href="#DejaVuSans-2212" transform="translate(318.541504 61.965625) scale(0.7)"/>
      <use xlink:href="#DejaVuSans-Oblique-45" transform="translate(390.831543 61.965625) scale(0.7)"/>
      <use xlink:href="#DejaVuSans-Oblique-47" transform="translate(435.060059 50.48125) scale(0.49)"/>
      <use xlink:href="#DejaVuSans-Oblique-53" transform="translate(473.030273 50.48125) scale(0.49)"/>
      <use xlink:href="#DejaVuSans-2c" transform="translate(504.133789 50.48125) scale(0.49)"/>
      <use xlink:href="#DejaVuSans-Oblique-4e" transform="translate(529.255859 50.48125) scale(0.49)"/>
      <use xlink:href="#DejaVuSans-Oblique-49" transform="translate(565.910156 50.48125) scale(0.49)"/>
      <use xlink:href="#DejaVuSans-Oblique-53" transform="translate(580.361328 50.48125) scale(0.49)"/>
      <use xlink:href="#DejaVuSans-Oblique-54" transform="translate(611.464844 50.48125) scale(0.49)"/>
      <use xlink:href="#DejaVuSans-Oblique-45" transform="translate(212.691406 -37.499375) scale(0.7)"/>
      <use xlink:href="#DejaVuSans-Oblique-47" transform="translate(256.919922 -48.98375) scale(0.49)"/>
      <use xlink:href="#DejaVuSans-Oblique-53" transform="translate(294.890137 -48.98375) scale(0.49)"/>
      <use xlink:href="#DejaVuSans-2c" transform="translate(325.993652 -48.98375) scale(0.49)"/>
      <use xlink:href="#DejaVuSans-Oblique-4e" transform="translate(351.115723 -48.98375) scale(0.49)"/>
      <use xlink:href="#DejaVuSans-Oblique-49" transform="translate(387.77002 -48.98375) scale(0.49)"/>
      <use xlink:href="#DejaVuSans-Oblique-53" transform="translate(402.221191 -48.98375) scale(0.49)"/>
      <use xlink:href="#DejaVuSans-Oblique-54" transform="translate(433.324707 -48.98375) scale(0.49)"/>
      <use xlink:href="#DejaVuSans-7c" transform="translate(655.810059 0.988125)"/>
      <use xlink:href="#DejaVuSans-20" transform="translate(689.501465 0.988125)"/>
      <use xlink:href="#DejaVuSans-28" transform="translate(721.288574 0.988125)"/>
      <use xlink:href="#DejaVuSans-25" transform="translate(760.302246 0.988125)"/>
      <use xlink:href="#DejaVuSans-29" transform="translate(855.321777 0.988125)"/>
      <path d="M 33.691406 19.785 
L 33.691406 26.035 
L 643.310059 26.035 
L 643.310059 19.785 
L 33.691406 19.785 
z
"/>
     </g>
    </g>
   </g>
   <g id="line2d_43">
    <defs>
     <path id="m868d0c4905" d="M 0 3.5 
C 0.928211 3.5 1.81853 3.131218 2.474874 2.474874 
C 3.131218 1.81853 3.5 0.928211 3.5 0 
C 3.5 -0.928211 3.131218 -1.81853 2.474874 -2.474874 
C 1.81853 -3.131218 0.928211 -3.5 0 -3.5 
C -0.928211 -3.5 -1.81853 -3.131218 -2.474874 -2.474874 
C -3.131218 -1.81853 -3.5 -0.928211 -3.5 0 
C -3.5 0.928211 -3.131218 1.81853 -2.474874 2.474874 
C -1.81853 3.131218 -0.928211 3.5 0 3.5 
z
" style="stroke: #0000ff"/>
    </defs>
    <g clip-path="url(#pd9d505e830)">
     <use xlink:href="#m868d0c4905" x="106.591255" y="262.840579" style="fill: #0000ff; stroke: #0000ff"/>
    </g>
   </g>
   <g id="line2d_44">
    <g clip-path="url(#pd9d505e830)">
     <use xlink:href="#m868d0c4905" x="117.844452" y="275.825772" style="fill: #0000ff; stroke: #0000ff"/>
    </g>
   </g>
   <g id="line2d_45">
    <g clip-path="url(#pd9d505e830)">
     <use xlink:href="#m868d0c4905" x="129.09765" y="336.810294" style="fill: #0000ff; stroke: #0000ff"/>
    </g>
   </g>
   <g id="line2d_46">
    <g clip-path="url(#pd9d505e830)">
     <use xlink:href="#m868d0c4905" x="140.350848" y="207.29971" style="fill: #0000ff; stroke: #0000ff"/>
    </g>
   </g>
   <g id="line2d_47">
    <g clip-path="url(#pd9d505e830)">
     <use xlink:href="#m868d0c4905" x="151.604046" y="104.01989" style="fill: #0000ff; stroke: #0000ff"/>
    </g>
   </g>
   <g id="line2d_48">
    <g clip-path="url(#pd9d505e830)">
     <use xlink:href="#m868d0c4905" x="162.857244" y="39.177283" style="fill: #0000ff; stroke: #0000ff"/>
    </g>
   </g>
   <g id="line2d_49">
    <g clip-path="url(#pd9d505e830)">
     <use xlink:href="#m868d0c4905" x="174.110442" y="26.953636" style="fill: #0000ff; stroke: #0000ff"/>
    </g>
   </g>
   <g id="line2d_50">
    <g clip-path="url(#pd9d505e830)">
     <use xlink:href="#m868d0c4905" x="185.36364" y="41.217635" style="fill: #0000ff; stroke: #0000ff"/>
    </g>
   </g>
   <g id="line2d_51">
    <g clip-path="url(#pd9d505e830)">
     <use xlink:href="#m868d0c4905" x="196.616837" y="87.602388" style="fill: #0000ff; stroke: #0000ff"/>
    </g>
   </g>
   <g id="line2d_52">
    <g clip-path="url(#pd9d505e830)">
     <use xlink:href="#m868d0c4905" x="207.870035" y="144.856037" style="fill: #0000ff; stroke: #0000ff"/>
    </g>
   </g>
   <g id="line2d_53">
    <g clip-path="url(#pd9d505e830)">
     <use xlink:href="#m868d0c4905" x="219.123233" y="186.302228" style="fill: #0000ff; stroke: #0000ff"/>
    </g>
   </g>
   <g id="line2d_54">
    <g clip-path="url(#pd9d505e830)">
     <use xlink:href="#m868d0c4905" x="230.376431" y="222.930068" style="fill: #0000ff; stroke: #0000ff"/>
    </g>
   </g>
   <g id="line2d_55">
    <g clip-path="url(#pd9d505e830)">
     <use xlink:href="#m868d0c4905" x="241.629629" y="256.686372" style="fill: #0000ff; stroke: #0000ff"/>
    </g>
   </g>
   <g id="line2d_56">
    <g clip-path="url(#pd9d505e830)">
     <use xlink:href="#m868d0c4905" x="252.882827" y="278.657621" style="fill: #0000ff; stroke: #0000ff"/>
    </g>
   </g>
   <g id="line2d_57">
    <g clip-path="url(#pd9d505e830)">
     <use xlink:href="#m868d0c4905" x="264.136025" y="296.814308" style="fill: #0000ff; stroke: #0000ff"/>
    </g>
   </g>
   <g id="line2d_58">
    <g clip-path="url(#pd9d505e830)">
     <use xlink:href="#m868d0c4905" x="275.389222" y="316.057276" style="fill: #0000ff; stroke: #0000ff"/>
    </g>
   </g>
   <g id="line2d_59">
    <g clip-path="url(#pd9d505e830)">
     <use xlink:href="#m868d0c4905" x="286.64242" y="331.68761" style="fill: #0000ff; stroke: #0000ff"/>
    </g>
   </g>
   <g id="line2d_60">
    <g clip-path="url(#pd9d505e830)">
     <use xlink:href="#m868d0c4905" x="297.895618" y="350.026364" style="fill: #0000ff; stroke: #0000ff"/>
    </g>
   </g>
   <g id="line2d_61">
    <g clip-path="url(#pd9d505e830)">
     <use xlink:href="#m868d0c4905" x="309.148816" y="342.351416" style="fill: #0000ff; stroke: #0000ff"/>
    </g>
   </g>
   <g id="line2d_62">
    <g clip-path="url(#pd9d505e830)">
     <use xlink:href="#m868d0c4905" x="320.402014" y="333.787673" style="fill: #0000ff; stroke: #0000ff"/>
    </g>
   </g>
   <g id="line2d_63">
    <g clip-path="url(#pd9d505e830)">
     <use xlink:href="#m868d0c4905" x="331.655212" y="320.640778" style="fill: #0000ff; stroke: #0000ff"/>
    </g>
   </g>
   <g id="line2d_64">
    <g clip-path="url(#pd9d505e830)">
     <use xlink:href="#m868d0c4905" x="342.90841" y="307.846127" style="fill: #0000ff; stroke: #0000ff"/>
    </g>
   </g>
   <g id="line2d_65">
    <g clip-path="url(#pd9d505e830)">
     <use xlink:href="#m868d0c4905" x="354.161607" y="296.98353" style="fill: #0000ff; stroke: #0000ff"/>
    </g>
   </g>
   <g id="line2d_66">
    <g clip-path="url(#pd9d505e830)">
     <use xlink:href="#m868d0c4905" x="365.414805" y="288.761619" style="fill: #0000ff; stroke: #0000ff"/>
    </g>
   </g>
   <g id="line2d_67">
    <g clip-path="url(#pd9d505e830)">
     <use xlink:href="#m868d0c4905" x="376.668003" y="275.152313" style="fill: #0000ff; stroke: #0000ff"/>
    </g>
   </g>
   <g id="line2d_68">
    <g clip-path="url(#pd9d505e830)">
     <use xlink:href="#m868d0c4905" x="387.921201" y="263.512476" style="fill: #0000ff; stroke: #0000ff"/>
    </g>
   </g>
   <g id="line2d_69">
    <g clip-path="url(#pd9d505e830)">
     <use xlink:href="#m868d0c4905" x="399.174399" y="252.711343" style="fill: #0000ff; stroke: #0000ff"/>
    </g>
   </g>
   <g id="line2d_70">
    <g clip-path="url(#pd9d505e830)">
     <use xlink:href="#m868d0c4905" x="410.427597" y="237.325701" style="fill: #0000ff; stroke: #0000ff"/>
    </g>
   </g>
   <g id="line2d_71">
    <g clip-path="url(#pd9d505e830)">
     <use xlink:href="#m868d0c4905" x="421.680795" y="225.382276" style="fill: #0000ff; stroke: #0000ff"/>
    </g>
   </g>
   <g id="line2d_72">
    <g clip-path="url(#pd9d505e830)">
     <use xlink:href="#m868d0c4905" x="432.933993" y="219.374464" style="fill: #0000ff; stroke: #0000ff"/>
    </g>
   </g>
   <g id="line2d_73">
    <g clip-path="url(#pd9d505e830)">
     <use xlink:href="#m868d0c4905" x="444.18719" y="207.728009" style="fill: #0000ff; stroke: #0000ff"/>
    </g>
   </g>
   <g id="line2d_74">
    <g clip-path="url(#pd9d505e830)">
     <use xlink:href="#m868d0c4905" x="455.440388" y="195.19577" style="fill: #0000ff; stroke: #0000ff"/>
    </g>
   </g>
   <g id="line2d_75">
    <g clip-path="url(#pd9d505e830)">
     <use xlink:href="#m868d0c4905" x="466.693586" y="184.69185" style="fill: #0000ff; stroke: #0000ff"/>
    </g>
   </g>
   <g id="line2d_76">
    <g clip-path="url(#pd9d505e830)">
     <use xlink:href="#m868d0c4905" x="477.946784" y="173.648537" style="fill: #0000ff; stroke: #0000ff"/>
    </g>
   </g>
   <g id="line2d_77">
    <g clip-path="url(#pd9d505e830)">
     <use xlink:href="#m868d0c4905" x="489.199982" y="161.606219" style="fill: #0000ff; stroke: #0000ff"/>
    </g>
   </g>
   <g id="line2d_78">
    <g clip-path="url(#pd9d505e830)">
     <use xlink:href="#m868d0c4905" x="500.45318" y="153.118557" style="fill: #0000ff; stroke: #0000ff"/>
    </g>
   </g>
   <g id="line2d_79">
    <g clip-path="url(#pd9d505e830)">
     <use xlink:href="#m868d0c4905" x="511.706378" y="146.774781" style="fill: #0000ff; stroke: #0000ff"/>
    </g>
   </g>
   <g id="line2d_80">
    <g clip-path="url(#pd9d505e830)">
     <use xlink:href="#m868d0c4905" x="522.959575" y="136.465574" style="fill: #0000ff; stroke: #0000ff"/>
    </g>
   </g>
   <g id="line2d_81">
    <g clip-path="url(#pd9d505e830)">
     <use xlink:href="#m868d0c4905" x="534.212773" y="124.371804" style="fill: #0000ff; stroke: #0000ff"/>
    </g>
   </g>
   <g id="line2d_82">
    <g clip-path="url(#pd9d505e830)">
     <use xlink:href="#m868d0c4905" x="545.465971" y="123.061239" style="fill: #0000ff; stroke: #0000ff"/>
    </g>
   </g>
   <g id="line2d_83">
    <g clip-path="url(#pd9d505e830)">
     <use xlink:href="#m868d0c4905" x="556.719169" y="116.812832" style="fill: #0000ff; stroke: #0000ff"/>
    </g>
   </g>
   <g id="line2d_84">
    <g clip-path="url(#pd9d505e830)">
     <use xlink:href="#m868d0c4905" x="567.972367" y="106.344179" style="fill: #0000ff; stroke: #0000ff"/>
    </g>
   </g>
   <g id="line2d_85">
    <g clip-path="url(#pd9d505e830)">
     <use xlink:href="#m868d0c4905" x="579.225565" y="97.866911" style="fill: #0000ff; stroke: #0000ff"/>
    </g>
   </g>
   <g id="line2d_86">
    <g clip-path="url(#pd9d505e830)">
     <use xlink:href="#m868d0c4905" x="590.478763" y="91.189297" style="fill: #0000ff; stroke: #0000ff"/>
    </g>
   </g>
   <g id="line2d_87">
    <g clip-path="url(#pd9d505e830)">
     <use xlink:href="#m868d0c4905" x="601.73196" y="88.772365" style="fill: #0000ff; stroke: #0000ff"/>
    </g>
   </g>
   <g id="line2d_88">
    <g clip-path="url(#pd9d505e830)">
     <use xlink:href="#m868d0c4905" x="612.985158" y="72.663172" style="fill: #0000ff; stroke: #0000ff"/>
    </g>
   </g>
   <g id="line2d_89">
    <g clip-path="url(#pd9d505e830)">
     <use xlink:href="#m868d0c4905" x="624.238356" y="73.752969" style="fill: #0000ff; stroke: #0000ff"/>
    </g>
   </g>
   <g id="line2d_90">
    <g clip-path="url(#pd9d505e830)">
     <use xlink:href="#m868d0c4905" x="635.491554" y="65.840491" style="fill: #0000ff; stroke: #0000ff"/>
    </g>
   </g>
   <g id="line2d_91">
    <g clip-path="url(#pd9d505e830)">
     <use xlink:href="#m868d0c4905" x="646.744752" y="63.321019" style="fill: #0000ff; stroke: #0000ff"/>
    </g>
   </g>
   <g id="line2d_92">
    <g clip-path="url(#pd9d505e830)">
     <use xlink:href="#m868d0c4905" x="657.99795" y="52.087649" style="fill: #0000ff; stroke: #0000ff"/>
    </g>
   </g>
   <g id="line2d_93">
    <g clip-path="url(#pd9d505e830)">
     <use xlink:href="#m868d0c4905" x="669.251148" y="36.675588" style="fill: #0000ff; stroke: #0000ff"/>
    </g>
   </g>
   <g id="line2d_94">
    <g clip-path="url(#pd9d505e830)">
     <use xlink:href="#m868d0c4905" x="680.504345" y="41.490857" style="fill: #0000ff; stroke: #0000ff"/>
    </g>
   </g>
   <g id="patch_3">
    <path d="M 77.8956 366.18 
L 77.8956 10.8 
" style="fill: none; stroke: #000000; stroke-width: 0.8; stroke-linejoin: miter; stroke-linecap: square"/>
   </g>
   <g id="patch_4">
    <path d="M 709.2 366.18 
L 709.2 10.8 
" style="fill: none; stroke: #000000; stroke-width: 0.8; stroke-linejoin: miter; stroke-linecap: square"/>
   </g>
   <g id="patch_5">
    <path d="M 77.8956 366.18 
L 709.2 366.18 
" style="fill: none; stroke: #000000; stroke-width: 0.8; stroke-linejoin: miter; stroke-linecap: square"/>
   </g>
   <g id="patch_6">
    <path d="M 77.8956 10.8 
L 709.2 10.8 
" style="fill: none; stroke: #000000; stroke-width: 0.8; stroke-linejoin: miter; stroke-linecap: square"/>
   </g>
  </g>
 </g>
 <defs>
  <clipPath id="pd9d505e830">
   <rect x="77.8956" y="10.8" width="631.3044" height="355.38"/>
  </clipPath>
 </defs>
</svg>
