<?xml version="1.0" encoding="utf-8" standalone="no"?>
<!DOCTYPE svg PUBLIC "-//W3C//DTD SVG 1.1//EN"
  "http://www.w3.org/Graphics/SVG/1.1/DTD/svg11.dtd">
<svg xmlns:xlink="http://www.w3.org/1999/xlink" width="864pt" height="576pt" viewBox="0 0 864 576" xmlns="http://www.w3.org/2000/svg" version="1.1">
 <metadata>
  <rdf:RDF xmlns:dc="http://purl.org/dc/elements/1.1/" xmlns:cc="http://creativecommons.org/ns#" xmlns:rdf="http://www.w3.org/1999/02/22-rdf-syntax-ns#">
   <cc:Work>
    <dc:type rdf:resource="http://purl.org/dc/dcmitype/StillImage"/>
    <dc:date>2025-06-13T17:55:57.208027</dc:date>
    <dc:format>image/svg+xml</dc:format>
    <dc:creator>
     <cc:Agent>
      <dc:title>Matplotlib v3.7.2, https://matplotlib.org/</dc:title>
     </cc:Agent>
    </dc:creator>
   </cc:Work>
  </rdf:RDF>
 </metadata>
 <defs>
  <style type="text/css">*{stroke-linejoin: round; stroke-linecap: butt}</style>
 </defs>
 <g id="figure_1">
  <g id="patch_1">
   <path d="M 0 576 
L 864 576 
L 864 0 
L 0 0 
z
" style="fill: #ffffff"/>
  </g>
  <g id="axes_1">
   <g id="patch_2">
    <path d="M 99.923625 487.758375 
L 835.92 487.758375 
L 835.92 28.08 
L 99.923625 28.08 
z
" style="fill: #ffffff"/>
   </g>
   <g id="matplotlib.axis_1">
    <g id="xtick_1">
     <g id="line2d_1">
      <path d="M 177.000209 487.758375 
L 177.000209 28.08 
" clip-path="url(#p25f9e410da)" style="fill: none; stroke-dasharray: 3.7,1.6; stroke-dashoffset: 0; stroke: #b0b0b0; stroke-opacity: 0.5"/>
     </g>
     <g id="line2d_2">
      <defs>
       <path id="mee396f79ea" d="M 0 0 
L 0 -10 
" style="stroke: #000000; stroke-width: 2"/>
      </defs>
      <g>
       <use xlink:href="#mee396f79ea" x="177.000209" y="487.758375" style="stroke: #000000; stroke-width: 2"/>
      </g>
     </g>
     <g id="line2d_3">
      <defs>
       <path id="m6a8167aa10" d="M 0 0 
L 0 10 
" style="stroke: #000000; stroke-width: 2"/>
      </defs>
      <g>
       <use xlink:href="#m6a8167aa10" x="177.000209" y="28.08" style="stroke: #000000; stroke-width: 2"/>
      </g>
     </g>
     <g id="text_1">
      <!-- 0.2 -->
      <g transform="translate(156.326146 511.014312) scale(0.26 -0.26)">
       <defs>
        <path id="DejaVuSerif-30" d="M 2034 219 
Q 2513 219 2750 744 
Q 2988 1269 2988 2328 
Q 2988 3391 2750 3916 
Q 2513 4441 2034 4441 
Q 1556 4441 1318 3916 
Q 1081 3391 1081 2328 
Q 1081 1269 1318 744 
Q 1556 219 2034 219 
z
M 2034 -91 
Q 1275 -91 848 546 
Q 422 1184 422 2328 
Q 422 3475 848 4112 
Q 1275 4750 2034 4750 
Q 2797 4750 3222 4112 
Q 3647 3475 3647 2328 
Q 3647 1184 3222 546 
Q 2797 -91 2034 -91 
z
" transform="scale(0.015625)"/>
        <path id="DejaVuSerif-2e" d="M 603 325 
Q 603 500 722 622 
Q 841 744 1019 744 
Q 1191 744 1312 622 
Q 1434 500 1434 325 
Q 1434 153 1312 31 
Q 1191 -91 1019 -91 
Q 841 -91 722 29 
Q 603 150 603 325 
z
" transform="scale(0.015625)"/>
        <path id="DejaVuSerif-32" d="M 819 3553 
L 469 3553 
L 469 4384 
Q 803 4563 1142 4656 
Q 1481 4750 1806 4750 
Q 2534 4750 2956 4397 
Q 3378 4044 3378 3438 
Q 3378 2753 2422 1800 
Q 2347 1728 2309 1691 
L 1131 513 
L 3078 513 
L 3078 1088 
L 3444 1088 
L 3444 0 
L 434 0 
L 434 341 
L 1850 1753 
Q 2319 2222 2519 2614 
Q 2719 3006 2719 3438 
Q 2719 3909 2473 4175 
Q 2228 4441 1797 4441 
Q 1350 4441 1106 4219 
Q 863 3997 819 3553 
z
" transform="scale(0.015625)"/>
       </defs>
       <use xlink:href="#DejaVuSerif-30"/>
       <use xlink:href="#DejaVuSerif-2e" x="63.623047"/>
       <use xlink:href="#DejaVuSerif-32" x="95.410156"/>
      </g>
     </g>
    </g>
    <g id="xtick_2">
     <g id="line2d_4">
      <path d="M 273.225656 487.758375 
L 273.225656 28.08 
" clip-path="url(#p25f9e410da)" style="fill: none; stroke-dasharray: 3.7,1.6; stroke-dashoffset: 0; stroke: #b0b0b0; stroke-opacity: 0.5"/>
     </g>
     <g id="line2d_5">
      <g>
       <use xlink:href="#mee396f79ea" x="273.225656" y="487.758375" style="stroke: #000000; stroke-width: 2"/>
      </g>
     </g>
     <g id="line2d_6">
      <g>
       <use xlink:href="#m6a8167aa10" x="273.225656" y="28.08" style="stroke: #000000; stroke-width: 2"/>
      </g>
     </g>
     <g id="text_2">
      <!-- 0.4 -->
      <g transform="translate(252.551594 511.014312) scale(0.26 -0.26)">
       <defs>
        <path id="DejaVuSerif-34" d="M 2234 1581 
L 2234 4063 
L 641 1581 
L 2234 1581 
z
M 3609 0 
L 1484 0 
L 1484 331 
L 2234 331 
L 2234 1247 
L 197 1247 
L 197 1588 
L 2241 4750 
L 2859 4750 
L 2859 1581 
L 3750 1581 
L 3750 1247 
L 2859 1247 
L 2859 331 
L 3609 331 
L 3609 0 
z
" transform="scale(0.015625)"/>
       </defs>
       <use xlink:href="#DejaVuSerif-30"/>
       <use xlink:href="#DejaVuSerif-2e" x="63.623047"/>
       <use xlink:href="#DejaVuSerif-34" x="95.410156"/>
      </g>
     </g>
    </g>
    <g id="xtick_3">
     <g id="line2d_7">
      <path d="M 369.451104 487.758375 
L 369.451104 28.08 
" clip-path="url(#p25f9e410da)" style="fill: none; stroke-dasharray: 3.7,1.6; stroke-dashoffset: 0; stroke: #b0b0b0; stroke-opacity: 0.5"/>
     </g>
     <g id="line2d_8">
      <g>
       <use xlink:href="#mee396f79ea" x="369.451104" y="487.758375" style="stroke: #000000; stroke-width: 2"/>
      </g>
     </g>
     <g id="line2d_9">
      <g>
       <use xlink:href="#m6a8167aa10" x="369.451104" y="28.08" style="stroke: #000000; stroke-width: 2"/>
      </g>
     </g>
     <g id="text_3">
      <!-- 0.6 -->
      <g transform="translate(348.777042 511.014312) scale(0.26 -0.26)">
       <defs>
        <path id="DejaVuSerif-36" d="M 2094 219 
Q 2534 219 2771 542 
Q 3009 866 3009 1472 
Q 3009 2078 2771 2401 
Q 2534 2725 2094 2725 
Q 1647 2725 1412 2412 
Q 1178 2100 1178 1509 
Q 1178 888 1415 553 
Q 1653 219 2094 219 
z
M 1075 2569 
Q 1288 2803 1556 2918 
Q 1825 3034 2163 3034 
Q 2859 3034 3264 2615 
Q 3669 2197 3669 1472 
Q 3669 763 3233 336 
Q 2797 -91 2069 -91 
Q 1278 -91 853 498 
Q 428 1088 428 2181 
Q 428 3406 931 4078 
Q 1434 4750 2350 4750 
Q 2597 4750 2869 4703 
Q 3141 4656 3425 4563 
L 3425 3794 
L 3072 3794 
Q 3034 4109 2831 4275 
Q 2628 4441 2284 4441 
Q 1678 4441 1381 3981 
Q 1084 3522 1075 2569 
z
" transform="scale(0.015625)"/>
       </defs>
       <use xlink:href="#DejaVuSerif-30"/>
       <use xlink:href="#DejaVuSerif-2e" x="63.623047"/>
       <use xlink:href="#DejaVuSerif-36" x="95.410156"/>
      </g>
     </g>
    </g>
    <g id="xtick_4">
     <g id="line2d_10">
      <path d="M 465.676552 487.758375 
L 465.676552 28.08 
" clip-path="url(#p25f9e410da)" style="fill: none; stroke-dasharray: 3.7,1.6; stroke-dashoffset: 0; stroke: #b0b0b0; stroke-opacity: 0.5"/>
     </g>
     <g id="line2d_11">
      <g>
       <use xlink:href="#mee396f79ea" x="465.676552" y="487.758375" style="stroke: #000000; stroke-width: 2"/>
      </g>
     </g>
     <g id="line2d_12">
      <g>
       <use xlink:href="#m6a8167aa10" x="465.676552" y="28.08" style="stroke: #000000; stroke-width: 2"/>
      </g>
     </g>
     <g id="text_4">
      <!-- 0.8 -->
      <g transform="translate(445.00249 511.014312) scale(0.26 -0.26)">
       <defs>
        <path id="DejaVuSerif-38" d="M 2981 1275 
Q 2981 1775 2732 2051 
Q 2484 2328 2034 2328 
Q 1584 2328 1336 2051 
Q 1088 1775 1088 1275 
Q 1088 772 1336 495 
Q 1584 219 2034 219 
Q 2484 219 2732 495 
Q 2981 772 2981 1275 
z
M 2853 3541 
Q 2853 3966 2637 4203 
Q 2422 4441 2034 4441 
Q 1650 4441 1433 4203 
Q 1216 3966 1216 3541 
Q 1216 3113 1433 2875 
Q 1650 2638 2034 2638 
Q 2422 2638 2637 2875 
Q 2853 3113 2853 3541 
z
M 2516 2484 
Q 3047 2413 3344 2092 
Q 3641 1772 3641 1275 
Q 3641 619 3225 264 
Q 2809 -91 2034 -91 
Q 1263 -91 845 264 
Q 428 619 428 1275 
Q 428 1772 725 2092 
Q 1022 2413 1556 2484 
Q 1084 2569 832 2842 
Q 581 3116 581 3541 
Q 581 4103 968 4426 
Q 1356 4750 2034 4750 
Q 2713 4750 3100 4426 
Q 3488 4103 3488 3541 
Q 3488 3116 3236 2842 
Q 2984 2569 2516 2484 
z
" transform="scale(0.015625)"/>
       </defs>
       <use xlink:href="#DejaVuSerif-30"/>
       <use xlink:href="#DejaVuSerif-2e" x="63.623047"/>
       <use xlink:href="#DejaVuSerif-38" x="95.410156"/>
      </g>
     </g>
    </g>
    <g id="xtick_5">
     <g id="line2d_13">
      <path d="M 561.902 487.758375 
L 561.902 28.08 
" clip-path="url(#p25f9e410da)" style="fill: none; stroke-dasharray: 3.7,1.6; stroke-dashoffset: 0; stroke: #b0b0b0; stroke-opacity: 0.5"/>
     </g>
     <g id="line2d_14">
      <g>
       <use xlink:href="#mee396f79ea" x="561.902" y="487.758375" style="stroke: #000000; stroke-width: 2"/>
      </g>
     </g>
     <g id="line2d_15">
      <g>
       <use xlink:href="#m6a8167aa10" x="561.902" y="28.08" style="stroke: #000000; stroke-width: 2"/>
      </g>
     </g>
     <g id="text_5">
      <!-- 1.0 -->
      <g transform="translate(541.227937 511.014312) scale(0.26 -0.26)">
       <defs>
        <path id="DejaVuSerif-31" d="M 909 0 
L 909 331 
L 1722 331 
L 1722 4213 
L 781 3603 
L 781 4013 
L 1919 4750 
L 2350 4750 
L 2350 331 
L 3163 331 
L 3163 0 
L 909 0 
z
" transform="scale(0.015625)"/>
       </defs>
       <use xlink:href="#DejaVuSerif-31"/>
       <use xlink:href="#DejaVuSerif-2e" x="63.623047"/>
       <use xlink:href="#DejaVuSerif-30" x="95.410156"/>
      </g>
     </g>
    </g>
    <g id="xtick_6">
     <g id="line2d_16">
      <path d="M 658.127448 487.758375 
L 658.127448 28.08 
" clip-path="url(#p25f9e410da)" style="fill: none; stroke-dasharray: 3.7,1.6; stroke-dashoffset: 0; stroke: #b0b0b0; stroke-opacity: 0.5"/>
     </g>
     <g id="line2d_17">
      <g>
       <use xlink:href="#mee396f79ea" x="658.127448" y="487.758375" style="stroke: #000000; stroke-width: 2"/>
      </g>
     </g>
     <g id="line2d_18">
      <g>
       <use xlink:href="#m6a8167aa10" x="658.127448" y="28.08" style="stroke: #000000; stroke-width: 2"/>
      </g>
     </g>
     <g id="text_6">
      <!-- 1.2 -->
      <g transform="translate(637.453385 511.014312) scale(0.26 -0.26)">
       <use xlink:href="#DejaVuSerif-31"/>
       <use xlink:href="#DejaVuSerif-2e" x="63.623047"/>
       <use xlink:href="#DejaVuSerif-32" x="95.410156"/>
      </g>
     </g>
    </g>
    <g id="xtick_7">
     <g id="line2d_19">
      <path d="M 754.352895 487.758375 
L 754.352895 28.08 
" clip-path="url(#p25f9e410da)" style="fill: none; stroke-dasharray: 3.7,1.6; stroke-dashoffset: 0; stroke: #b0b0b0; stroke-opacity: 0.5"/>
     </g>
     <g id="line2d_20">
      <g>
       <use xlink:href="#mee396f79ea" x="754.352895" y="487.758375" style="stroke: #000000; stroke-width: 2"/>
      </g>
     </g>
     <g id="line2d_21">
      <g>
       <use xlink:href="#m6a8167aa10" x="754.352895" y="28.08" style="stroke: #000000; stroke-width: 2"/>
      </g>
     </g>
     <g id="text_7">
      <!-- 1.4 -->
      <g transform="translate(733.678833 511.014312) scale(0.26 -0.26)">
       <use xlink:href="#DejaVuSerif-31"/>
       <use xlink:href="#DejaVuSerif-2e" x="63.623047"/>
       <use xlink:href="#DejaVuSerif-34" x="95.410156"/>
      </g>
     </g>
    </g>
    <g id="text_8">
     <!-- $E_{0}$ (a.u.) -->
     <g transform="translate(414.231813 540.177437) scale(0.26 -0.26)">
      <defs>
       <path id="Cmmi10-45" d="M 300 0 
Q 238 0 238 84 
Q 241 100 250 139 
Q 259 178 276 201 
Q 294 225 319 225 
Q 709 225 863 269 
Q 947 297 984 441 
L 1863 3956 
Q 1875 4019 1875 4044 
Q 1875 4113 1797 4122 
Q 1678 4147 1338 4147 
Q 1275 4147 1275 4231 
Q 1278 4247 1287 4286 
Q 1297 4325 1314 4348 
Q 1331 4372 1356 4372 
L 4825 4372 
Q 4891 4372 4891 4288 
L 4738 2963 
Q 4738 2947 4714 2926 
Q 4691 2906 4672 2906 
L 4616 2906 
Q 4550 2906 4550 2988 
Q 4588 3300 4588 3450 
Q 4588 3706 4500 3848 
Q 4413 3991 4267 4053 
Q 4122 4116 3945 4131 
Q 3769 4147 3481 4147 
L 2753 4147 
Q 2578 4147 2522 4117 
Q 2466 4088 2419 3928 
L 2034 2381 
L 2534 2381 
Q 2859 2381 3025 2426 
Q 3191 2472 3287 2615 
Q 3384 2759 3463 3072 
Q 3469 3094 3486 3111 
Q 3503 3128 3525 3128 
L 3584 3128 
Q 3647 3128 3647 3047 
L 3250 1466 
Q 3238 1409 3188 1409 
L 3128 1409 
Q 3066 1409 3066 1491 
Q 3128 1747 3128 1869 
Q 3128 2056 2959 2106 
Q 2791 2156 2509 2156 
L 1978 2156 
L 1544 416 
Q 1516 338 1516 275 
Q 1516 225 1734 225 
L 2509 225 
Q 2972 225 3259 297 
Q 3547 369 3736 526 
Q 3925 684 4062 928 
Q 4200 1172 4397 1638 
Q 4409 1678 4453 1678 
L 4513 1678 
Q 4538 1678 4556 1656 
Q 4575 1634 4575 1606 
Q 4575 1594 4569 1581 
L 3909 38 
Q 3897 0 3859 0 
L 300 0 
z
" transform="scale(0.015625)"/>
       <path id="Cmr10-30" d="M 1600 -141 
Q 816 -141 533 504 
Q 250 1150 250 2041 
Q 250 2597 351 3087 
Q 453 3578 754 3920 
Q 1056 4263 1600 4263 
Q 2022 4263 2290 4056 
Q 2559 3850 2700 3523 
Q 2841 3197 2892 2823 
Q 2944 2450 2944 2041 
Q 2944 1491 2842 1011 
Q 2741 531 2444 195 
Q 2147 -141 1600 -141 
z
M 1600 25 
Q 1956 25 2131 390 
Q 2306 756 2347 1200 
Q 2388 1644 2388 2144 
Q 2388 2625 2347 3031 
Q 2306 3438 2132 3767 
Q 1959 4097 1600 4097 
Q 1238 4097 1063 3765 
Q 888 3434 847 3029 
Q 806 2625 806 2144 
Q 806 1788 823 1472 
Q 841 1156 916 820 
Q 991 484 1158 254 
Q 1325 25 1600 25 
z
" transform="scale(0.015625)"/>
       <path id="DejaVuSerif-20" transform="scale(0.015625)"/>
       <path id="DejaVuSerif-28" d="M 2041 -997 
Q 1281 -656 893 83 
Q 506 822 506 1931 
Q 506 3044 893 3783 
Q 1281 4522 2041 4863 
L 2041 4556 
Q 1559 4225 1350 3623 
Q 1141 3022 1141 1931 
Q 1141 844 1350 242 
Q 1559 -359 2041 -691 
L 2041 -997 
z
" transform="scale(0.015625)"/>
       <path id="DejaVuSerif-61" d="M 2547 1044 
L 2547 1747 
L 1806 1747 
Q 1378 1747 1168 1562 
Q 959 1378 959 997 
Q 959 650 1171 447 
Q 1384 244 1747 244 
Q 2106 244 2326 466 
Q 2547 688 2547 1044 
z
M 3122 2075 
L 3122 331 
L 3634 331 
L 3634 0 
L 2547 0 
L 2547 359 
Q 2356 128 2106 18 
Q 1856 -91 1522 -91 
Q 969 -91 644 203 
Q 319 497 319 997 
Q 319 1513 691 1797 
Q 1063 2081 1741 2081 
L 2547 2081 
L 2547 2309 
Q 2547 2688 2317 2895 
Q 2088 3103 1672 3103 
Q 1328 3103 1125 2947 
Q 922 2791 872 2484 
L 575 2484 
L 575 3156 
Q 875 3284 1158 3348 
Q 1441 3413 1709 3413 
Q 2400 3413 2761 3070 
Q 3122 2728 3122 2075 
z
" transform="scale(0.015625)"/>
       <path id="DejaVuSerif-75" d="M 2266 3322 
L 3341 3322 
L 3341 331 
L 3884 331 
L 3884 0 
L 2766 0 
L 2766 588 
Q 2606 256 2353 82 
Q 2100 -91 1766 -91 
Q 1213 -91 952 223 
Q 691 538 691 1209 
L 691 2988 
L 172 2988 
L 172 3322 
L 1269 3322 
L 1269 1388 
Q 1269 781 1417 556 
Q 1566 331 1947 331 
Q 2347 331 2556 625 
Q 2766 919 2766 1478 
L 2766 2988 
L 2266 2988 
L 2266 3322 
z
" transform="scale(0.015625)"/>
       <path id="DejaVuSerif-29" d="M 453 -997 
L 453 -691 
Q 934 -359 1145 242 
Q 1356 844 1356 1931 
Q 1356 3022 1145 3623 
Q 934 4225 453 4556 
L 453 4863 
Q 1216 4522 1603 3783 
Q 1991 3044 1991 1931 
Q 1991 822 1603 83 
Q 1216 -656 453 -997 
z
" transform="scale(0.015625)"/>
      </defs>
      <use xlink:href="#Cmmi10-45" transform="translate(0 0.015625)"/>
      <use xlink:href="#Cmr10-30" transform="translate(73.779297 -16.990625) scale(0.7)"/>
      <use xlink:href="#DejaVuSerif-20" transform="translate(115.156641 0.015625)"/>
      <use xlink:href="#DejaVuSerif-28" transform="translate(146.94375 0.015625)"/>
      <use xlink:href="#DejaVuSerif-61" transform="translate(185.957422 0.015625)"/>
      <use xlink:href="#DejaVuSerif-2e" transform="translate(245.576562 0.015625)"/>
      <use xlink:href="#DejaVuSerif-75" transform="translate(277.363672 0.015625)"/>
      <use xlink:href="#DejaVuSerif-2e" transform="translate(341.767969 0.015625)"/>
      <use xlink:href="#DejaVuSerif-29" transform="translate(373.555078 0.015625)"/>
     </g>
    </g>
   </g>
   <g id="matplotlib.axis_2">
    <g id="ytick_1">
     <g id="line2d_22">
      <path d="M 99.923625 468.127321 
L 835.92 468.127321 
" clip-path="url(#p25f9e410da)" style="fill: none; stroke-dasharray: 3.7,1.6; stroke-dashoffset: 0; stroke: #b0b0b0; stroke-opacity: 0.5"/>
     </g>
     <g id="line2d_23">
      <defs>
       <path id="mf6dded0d3f" d="M 0 0 
L 10 0 
" style="stroke: #000000; stroke-width: 2"/>
      </defs>
      <g>
       <use xlink:href="#mf6dded0d3f" x="99.923625" y="468.127321" style="stroke: #000000; stroke-width: 2"/>
      </g>
     </g>
     <g id="line2d_24">
      <defs>
       <path id="me01da4d5d7" d="M 0 0 
L -10 0 
" style="stroke: #000000; stroke-width: 2"/>
      </defs>
      <g>
       <use xlink:href="#me01da4d5d7" x="835.92" y="468.127321" style="stroke: #000000; stroke-width: 2"/>
      </g>
     </g>
     <g id="text_9">
      <!-- 0 -->
      <g transform="translate(79.881125 478.00529) scale(0.26 -0.26)">
       <use xlink:href="#DejaVuSerif-30"/>
      </g>
     </g>
    </g>
    <g id="ytick_2">
     <g id="line2d_25">
      <path d="M 99.923625 367.587762 
L 835.92 367.587762 
" clip-path="url(#p25f9e410da)" style="fill: none; stroke-dasharray: 3.7,1.6; stroke-dashoffset: 0; stroke: #b0b0b0; stroke-opacity: 0.5"/>
     </g>
     <g id="line2d_26">
      <g>
       <use xlink:href="#mf6dded0d3f" x="99.923625" y="367.587762" style="stroke: #000000; stroke-width: 2"/>
      </g>
     </g>
     <g id="line2d_27">
      <g>
       <use xlink:href="#me01da4d5d7" x="835.92" y="367.587762" style="stroke: #000000; stroke-width: 2"/>
      </g>
     </g>
     <g id="text_10">
      <!-- 5 -->
      <g transform="translate(79.881125 377.46573) scale(0.26 -0.26)">
       <defs>
        <path id="DejaVuSerif-35" d="M 3219 4666 
L 3219 4153 
L 1081 4153 
L 1081 2816 
Q 1244 2928 1461 2984 
Q 1678 3041 1947 3041 
Q 2703 3041 3140 2622 
Q 3578 2203 3578 1478 
Q 3578 738 3136 323 
Q 2694 -91 1894 -91 
Q 1572 -91 1234 -12 
Q 897 66 544 225 
L 544 1131 
L 897 1131 
Q 925 688 1179 453 
Q 1434 219 1894 219 
Q 2388 219 2653 544 
Q 2919 869 2919 1478 
Q 2919 2084 2655 2407 
Q 2391 2731 1894 2731 
Q 1613 2731 1398 2631 
Q 1184 2531 1019 2322 
L 750 2322 
L 750 4666 
L 3219 4666 
z
" transform="scale(0.015625)"/>
       </defs>
       <use xlink:href="#DejaVuSerif-35"/>
      </g>
     </g>
    </g>
    <g id="ytick_3">
     <g id="line2d_28">
      <path d="M 99.923625 267.048203 
L 835.92 267.048203 
" clip-path="url(#p25f9e410da)" style="fill: none; stroke-dasharray: 3.7,1.6; stroke-dashoffset: 0; stroke: #b0b0b0; stroke-opacity: 0.5"/>
     </g>
     <g id="line2d_29">
      <g>
       <use xlink:href="#mf6dded0d3f" x="99.923625" y="267.048203" style="stroke: #000000; stroke-width: 2"/>
      </g>
     </g>
     <g id="line2d_30">
      <g>
       <use xlink:href="#me01da4d5d7" x="835.92" y="267.048203" style="stroke: #000000; stroke-width: 2"/>
      </g>
     </g>
     <g id="text_11">
      <!-- 10 -->
      <g transform="translate(63.338625 276.926171) scale(0.26 -0.26)">
       <use xlink:href="#DejaVuSerif-31"/>
       <use xlink:href="#DejaVuSerif-30" x="63.623047"/>
      </g>
     </g>
    </g>
    <g id="ytick_4">
     <g id="line2d_31">
      <path d="M 99.923625 166.508644 
L 835.92 166.508644 
" clip-path="url(#p25f9e410da)" style="fill: none; stroke-dasharray: 3.7,1.6; stroke-dashoffset: 0; stroke: #b0b0b0; stroke-opacity: 0.5"/>
     </g>
     <g id="line2d_32">
      <g>
       <use xlink:href="#mf6dded0d3f" x="99.923625" y="166.508644" style="stroke: #000000; stroke-width: 2"/>
      </g>
     </g>
     <g id="line2d_33">
      <g>
       <use xlink:href="#me01da4d5d7" x="835.92" y="166.508644" style="stroke: #000000; stroke-width: 2"/>
      </g>
     </g>
     <g id="text_12">
      <!-- 15 -->
      <g transform="translate(63.338625 176.386612) scale(0.26 -0.26)">
       <use xlink:href="#DejaVuSerif-31"/>
       <use xlink:href="#DejaVuSerif-35" x="63.623047"/>
      </g>
     </g>
    </g>
    <g id="ytick_5">
     <g id="line2d_34">
      <path d="M 99.923625 65.969085 
L 835.92 65.969085 
" clip-path="url(#p25f9e410da)" style="fill: none; stroke-dasharray: 3.7,1.6; stroke-dashoffset: 0; stroke: #b0b0b0; stroke-opacity: 0.5"/>
     </g>
     <g id="line2d_35">
      <g>
       <use xlink:href="#mf6dded0d3f" x="99.923625" y="65.969085" style="stroke: #000000; stroke-width: 2"/>
      </g>
     </g>
     <g id="line2d_36">
      <g>
       <use xlink:href="#me01da4d5d7" x="835.92" y="65.969085" style="stroke: #000000; stroke-width: 2"/>
      </g>
     </g>
     <g id="text_13">
      <!-- 20 -->
      <g transform="translate(63.338625 75.847053) scale(0.26 -0.26)">
       <use xlink:href="#DejaVuSerif-32"/>
       <use xlink:href="#DejaVuSerif-30" x="63.623047"/>
      </g>
     </g>
    </g>
    <g id="text_14">
     <!-- $\sigma_{cap}$ (a₀²) -->
     <g transform="translate(51.278625 311.999187) rotate(-90) scale(0.26 -0.26)">
      <defs>
       <path id="Cmmi10-be" d="M 1197 -72 
Q 913 -72 692 64 
Q 472 200 351 431 
Q 231 663 231 941 
Q 231 1238 365 1566 
Q 500 1894 733 2166 
Q 966 2438 1259 2598 
Q 1553 2759 1863 2759 
L 3475 2759 
Q 3541 2759 3587 2715 
Q 3634 2672 3634 2597 
Q 3634 2503 3567 2433 
Q 3500 2363 3406 2363 
L 2625 2363 
Q 2809 2088 2809 1697 
Q 2809 1375 2684 1062 
Q 2559 750 2337 492 
Q 2116 234 1820 81 
Q 1525 -72 1197 -72 
z
M 1203 97 
Q 1553 97 1823 370 
Q 2094 644 2237 1039 
Q 2381 1434 2381 1772 
Q 2381 2047 2229 2205 
Q 2078 2363 1806 2363 
Q 1434 2363 1173 2113 
Q 913 1863 783 1484 
Q 653 1106 653 756 
Q 653 481 798 289 
Q 944 97 1203 97 
z
" transform="scale(0.015625)"/>
       <path id="Cmmi10-63" d="M 750 763 
Q 750 484 892 290 
Q 1034 97 1300 97 
Q 1681 97 2032 272 
Q 2384 447 2606 756 
Q 2625 775 2656 775 
Q 2688 775 2720 739 
Q 2753 703 2753 672 
Q 2753 647 2741 634 
Q 2506 306 2109 117 
Q 1713 -72 1288 -72 
Q 981 -72 747 73 
Q 513 219 384 462 
Q 256 706 256 1013 
Q 256 1444 497 1869 
Q 738 2294 1138 2561 
Q 1538 2828 1978 2828 
Q 2266 2828 2495 2689 
Q 2725 2550 2725 2278 
Q 2725 2103 2623 1979 
Q 2522 1856 2350 1856 
Q 2247 1856 2176 1920 
Q 2106 1984 2106 2088 
Q 2106 2238 2215 2344 
Q 2325 2450 2472 2450 
L 2484 2450 
Q 2409 2559 2267 2611 
Q 2125 2663 1972 2663 
Q 1597 2663 1315 2342 
Q 1034 2022 892 1576 
Q 750 1131 750 763 
z
" transform="scale(0.015625)"/>
       <path id="Cmmi10-61" d="M 1113 -72 
Q 709 -72 476 233 
Q 244 538 244 953 
Q 244 1363 456 1803 
Q 669 2244 1030 2536 
Q 1391 2828 1806 2828 
Q 1997 2828 2147 2725 
Q 2297 2622 2381 2444 
Q 2453 2700 2663 2700 
Q 2744 2700 2798 2651 
Q 2853 2603 2853 2522 
Q 2853 2503 2851 2493 
Q 2850 2484 2847 2472 
L 2400 684 
Q 2356 494 2356 372 
Q 2356 97 2541 97 
Q 2741 97 2845 351 
Q 2950 606 3022 941 
Q 3034 978 3072 978 
L 3150 978 
Q 3175 978 3190 956 
Q 3206 934 3206 916 
Q 3094 469 2961 198 
Q 2828 -72 2528 -72 
Q 2313 -72 2147 54 
Q 1981 181 1941 391 
Q 1528 -72 1113 -72 
z
M 1119 97 
Q 1350 97 1567 270 
Q 1784 444 1941 678 
Q 1947 684 1947 697 
L 2291 2088 
L 2297 2106 
Q 2259 2334 2132 2498 
Q 2006 2663 1791 2663 
Q 1575 2663 1389 2486 
Q 1203 2309 1075 2069 
Q 950 1813 836 1366 
Q 722 919 722 672 
Q 722 450 817 273 
Q 913 97 1119 97 
z
" transform="scale(0.015625)"/>
       <path id="Cmmi10-70" d="M -159 -1241 
Q -219 -1241 -219 -1159 
Q -197 -1019 -134 -1019 
Q 66 -1019 145 -983 
Q 225 -947 269 -800 
L 991 2081 
Q 1038 2200 1038 2388 
Q 1038 2663 850 2663 
Q 650 2663 553 2423 
Q 456 2184 366 1819 
Q 366 1778 313 1778 
L 238 1778 
Q 222 1778 203 1801 
Q 184 1825 184 1844 
Q 253 2122 317 2315 
Q 381 2509 517 2668 
Q 653 2828 856 2828 
Q 1075 2828 1240 2704 
Q 1406 2581 1453 2369 
Q 1628 2572 1840 2700 
Q 2053 2828 2278 2828 
Q 2547 2828 2745 2684 
Q 2944 2541 3044 2308 
Q 3144 2075 3144 1806 
Q 3144 1394 2933 953 
Q 2722 513 2361 220 
Q 2000 -72 1588 -72 
Q 1400 -72 1248 34 
Q 1097 141 1013 313 
L 722 -825 
Q 706 -919 703 -934 
Q 703 -1019 1125 -1019 
Q 1191 -1019 1191 -1100 
Q 1169 -1184 1155 -1212 
Q 1141 -1241 1081 -1241 
L -159 -1241 
z
M 1594 97 
Q 1816 97 2006 280 
Q 2197 463 2316 691 
Q 2403 863 2479 1111 
Q 2556 1359 2612 1640 
Q 2669 1922 2669 2088 
Q 2669 2234 2630 2362 
Q 2591 2491 2502 2577 
Q 2413 2663 2266 2663 
Q 2031 2663 1823 2495 
Q 1616 2328 1447 2081 
L 1447 2059 
L 1094 647 
Q 1138 419 1263 258 
Q 1388 97 1594 97 
z
" transform="scale(0.015625)"/>
       <path id="DejaVuSerif-2080" d="M 784 394 
Q 950 101 1281 101 
Q 1613 101 1778 394 
Q 1944 688 1944 1285 
Q 1944 1879 1778 2172 
Q 1613 2466 1281 2466 
Q 950 2466 784 2172 
Q 619 1879 619 1285 
Q 619 688 784 394 
z
M 2106 285 
Q 1809 -71 1281 -71 
Q 753 -71 456 285 
Q 163 641 163 1285 
Q 163 1926 456 2282 
Q 753 2638 1281 2638 
Q 1809 2638 2106 2282 
Q 2400 1926 2400 1285 
Q 2400 641 2106 285 
z
" transform="scale(0.015625)"/>
       <path id="DejaVuSerif-b2" d="M 531 4050 
L 313 4050 
L 313 4544 
Q 519 4644 737 4697 
Q 956 4750 1172 4750 
Q 1603 4750 1870 4544 
Q 2138 4338 2138 4013 
Q 2138 3631 1531 3088 
L 1472 3034 
L 728 2363 
L 1931 2363 
L 1931 2700 
L 2163 2700 
L 2163 2088 
L 281 2088 
L 281 2322 
L 1172 3116 
Q 1441 3356 1556 3547 
Q 1672 3738 1672 3944 
Q 1672 4209 1520 4364 
Q 1369 4519 1106 4519 
Q 863 4519 716 4400 
Q 569 4281 531 4050 
z
" transform="scale(0.015625)"/>
      </defs>
      <use xlink:href="#Cmmi10-be" transform="translate(0 0.015625)"/>
      <use xlink:href="#Cmmi10-63" transform="translate(57.080078 -16.990625) scale(0.7)"/>
      <use xlink:href="#Cmmi10-61" transform="translate(87.329102 -16.990625) scale(0.7)"/>
      <use xlink:href="#Cmmi10-70" transform="translate(124.277344 -16.990625) scale(0.7)"/>
      <use xlink:href="#DejaVuSerif-20" transform="translate(165.859766 0.015625)"/>
      <use xlink:href="#DejaVuSerif-28" transform="translate(197.646875 0.015625)"/>
      <use xlink:href="#DejaVuSerif-61" transform="translate(236.660547 0.015625)"/>
      <use xlink:href="#DejaVuSerif-2080" transform="translate(296.279688 0.015625)"/>
      <use xlink:href="#DejaVuSerif-b2" transform="translate(336.367578 0.015625)"/>
      <use xlink:href="#DejaVuSerif-29" transform="translate(376.455469 0.015625)"/>
     </g>
    </g>
   </g>
   <g id="LineCollection_1">
    <path d="M 133.378006 85.641855 
L 133.378006 48.974472 
" clip-path="url(#p25f9e410da)" style="fill: none; stroke: #000000; stroke-width: 3"/>
    <path d="M 181.169978 192.572418 
L 181.169978 152.402898 
" clip-path="url(#p25f9e410da)" style="fill: none; stroke: #000000; stroke-width: 3"/>
    <path d="M 276.753923 356.99383 
L 276.753923 323.418796 
" clip-path="url(#p25f9e410da)" style="fill: none; stroke: #000000; stroke-width: 3"/>
    <path d="M 324.545895 425.903966 
L 324.545895 402.328491 
" clip-path="url(#p25f9e410da)" style="fill: none; stroke: #000000; stroke-width: 3"/>
    <path d="M 372.337868 425.903966 
L 372.337868 402.328491 
" clip-path="url(#p25f9e410da)" style="fill: none; stroke: #000000; stroke-width: 3"/>
    <path d="M 420.12984 441.08312 
L 420.12984 421.261606 
" clip-path="url(#p25f9e410da)" style="fill: none; stroke: #000000; stroke-width: 3"/>
    <path d="M 467.921813 446.022934 
L 467.921813 427.692548 
" clip-path="url(#p25f9e410da)" style="fill: none; stroke: #000000; stroke-width: 3"/>
    <path d="M 515.713785 453.263699 
L 515.713785 437.507917 
" clip-path="url(#p25f9e410da)" style="fill: none; stroke: #000000; stroke-width: 3"/>
    <path d="M 563.505757 457.929082 
L 563.505757 444.213291 
" clip-path="url(#p25f9e410da)" style="fill: none; stroke: #000000; stroke-width: 3"/>
    <path d="M 611.29773 455.616755 
L 611.29773 440.84024 
" clip-path="url(#p25f9e410da)" style="fill: none; stroke: #000000; stroke-width: 3"/>
    <path d="M 659.089702 459.387261 
L 659.089702 451.599033 
" clip-path="url(#p25f9e410da)" style="fill: none; stroke: #000000; stroke-width: 3"/>
    <path d="M 706.881675 462.567069 
L 706.881675 455.999729 
" clip-path="url(#p25f9e410da)" style="fill: none; stroke: #000000; stroke-width: 3"/>
    <path d="M 754.673647 462.567069 
L 754.673647 455.999729 
" clip-path="url(#p25f9e410da)" style="fill: none; stroke: #000000; stroke-width: 3"/>
    <path d="M 802.465619 464.599784 
L 802.465619 459.020684 
" clip-path="url(#p25f9e410da)" style="fill: none; stroke: #000000; stroke-width: 3"/>
   </g>
   <g id="line2d_37">
    <defs>
     <path id="mc828c44e98" d="M 5 0 
L -5 -0 
" style="stroke: #000000"/>
    </defs>
    <g clip-path="url(#p25f9e410da)">
     <use xlink:href="#mc828c44e98" x="133.378006" y="85.641855" style="stroke: #000000"/>
     <use xlink:href="#mc828c44e98" x="181.169978" y="192.572418" style="stroke: #000000"/>
     <use xlink:href="#mc828c44e98" x="276.753923" y="356.99383" style="stroke: #000000"/>
     <use xlink:href="#mc828c44e98" x="324.545895" y="425.903966" style="stroke: #000000"/>
     <use xlink:href="#mc828c44e98" x="372.337868" y="425.903966" style="stroke: #000000"/>
     <use xlink:href="#mc828c44e98" x="420.12984" y="441.08312" style="stroke: #000000"/>
     <use xlink:href="#mc828c44e98" x="467.921813" y="446.022934" style="stroke: #000000"/>
     <use xlink:href="#mc828c44e98" x="515.713785" y="453.263699" style="stroke: #000000"/>
     <use xlink:href="#mc828c44e98" x="563.505757" y="457.929082" style="stroke: #000000"/>
     <use xlink:href="#mc828c44e98" x="611.29773" y="455.616755" style="stroke: #000000"/>
     <use xlink:href="#mc828c44e98" x="659.089702" y="459.387261" style="stroke: #000000"/>
     <use xlink:href="#mc828c44e98" x="706.881675" y="462.567069" style="stroke: #000000"/>
     <use xlink:href="#mc828c44e98" x="754.673647" y="462.567069" style="stroke: #000000"/>
     <use xlink:href="#mc828c44e98" x="802.465619" y="464.599784" style="stroke: #000000"/>
    </g>
   </g>
   <g id="line2d_38">
    <g clip-path="url(#p25f9e410da)">
     <use xlink:href="#mc828c44e98" x="133.378006" y="48.974472" style="stroke: #000000"/>
     <use xlink:href="#mc828c44e98" x="181.169978" y="152.402898" style="stroke: #000000"/>
     <use xlink:href="#mc828c44e98" x="276.753923" y="323.418796" style="stroke: #000000"/>
     <use xlink:href="#mc828c44e98" x="324.545895" y="402.328491" style="stroke: #000000"/>
     <use xlink:href="#mc828c44e98" x="372.337868" y="402.328491" style="stroke: #000000"/>
     <use xlink:href="#mc828c44e98" x="420.12984" y="421.261606" style="stroke: #000000"/>
     <use xlink:href="#mc828c44e98" x="467.921813" y="427.692548" style="stroke: #000000"/>
     <use xlink:href="#mc828c44e98" x="515.713785" y="437.507917" style="stroke: #000000"/>
     <use xlink:href="#mc828c44e98" x="563.505757" y="444.213291" style="stroke: #000000"/>
     <use xlink:href="#mc828c44e98" x="611.29773" y="440.84024" style="stroke: #000000"/>
     <use xlink:href="#mc828c44e98" x="659.089702" y="451.599033" style="stroke: #000000"/>
     <use xlink:href="#mc828c44e98" x="706.881675" y="455.999729" style="stroke: #000000"/>
     <use xlink:href="#mc828c44e98" x="754.673647" y="455.999729" style="stroke: #000000"/>
     <use xlink:href="#mc828c44e98" x="802.465619" y="459.020684" style="stroke: #000000"/>
    </g>
   </g>
   <g id="line2d_39">
    <path d="M 133.378006 166.80228 
L 181.169978 220.813373 
L 276.753923 362.947826 
L 324.545895 425.486985 
L 372.337868 422.644296 
L 420.12984 436.857741 
L 467.921813 439.70043 
L 515.713785 451.071186 
L 563.505757 456.756565 
L 611.29773 451.071186 
L 659.089702 460.546817 
L 706.881675 461.810234 
L 754.673647 461.810234 
L 802.465619 463.073651 
" clip-path="url(#p25f9e410da)" style="fill: none; stroke: #ff7f0e; stroke-width: 3; stroke-linecap: square"/>
    <defs>
     <path id="mc63077cc34" d="M -4 4 
L 4 4 
L 4 -4 
L -4 -4 
z
" style="stroke: #ff7f0e; stroke-linejoin: miter"/>
    </defs>
    <g clip-path="url(#p25f9e410da)">
     <use xlink:href="#mc63077cc34" x="133.378006" y="166.80228" style="fill: #ff7f0e; stroke: #ff7f0e; stroke-linejoin: miter"/>
     <use xlink:href="#mc63077cc34" x="181.169978" y="220.813373" style="fill: #ff7f0e; stroke: #ff7f0e; stroke-linejoin: miter"/>
     <use xlink:href="#mc63077cc34" x="276.753923" y="362.947826" style="fill: #ff7f0e; stroke: #ff7f0e; stroke-linejoin: miter"/>
     <use xlink:href="#mc63077cc34" x="324.545895" y="425.486985" style="fill: #ff7f0e; stroke: #ff7f0e; stroke-linejoin: miter"/>
     <use xlink:href="#mc63077cc34" x="372.337868" y="422.644296" style="fill: #ff7f0e; stroke: #ff7f0e; stroke-linejoin: miter"/>
     <use xlink:href="#mc63077cc34" x="420.12984" y="436.857741" style="fill: #ff7f0e; stroke: #ff7f0e; stroke-linejoin: miter"/>
     <use xlink:href="#mc63077cc34" x="467.921813" y="439.70043" style="fill: #ff7f0e; stroke: #ff7f0e; stroke-linejoin: miter"/>
     <use xlink:href="#mc63077cc34" x="515.713785" y="451.071186" style="fill: #ff7f0e; stroke: #ff7f0e; stroke-linejoin: miter"/>
     <use xlink:href="#mc63077cc34" x="563.505757" y="456.756565" style="fill: #ff7f0e; stroke: #ff7f0e; stroke-linejoin: miter"/>
     <use xlink:href="#mc63077cc34" x="611.29773" y="451.071186" style="fill: #ff7f0e; stroke: #ff7f0e; stroke-linejoin: miter"/>
     <use xlink:href="#mc63077cc34" x="659.089702" y="460.546817" style="fill: #ff7f0e; stroke: #ff7f0e; stroke-linejoin: miter"/>
     <use xlink:href="#mc63077cc34" x="706.881675" y="461.810234" style="fill: #ff7f0e; stroke: #ff7f0e; stroke-linejoin: miter"/>
     <use xlink:href="#mc63077cc34" x="754.673647" y="461.810234" style="fill: #ff7f0e; stroke: #ff7f0e; stroke-linejoin: miter"/>
     <use xlink:href="#mc63077cc34" x="802.465619" y="463.073651" style="fill: #ff7f0e; stroke: #ff7f0e; stroke-linejoin: miter"/>
    </g>
   </g>
   <g id="line2d_40">
    <path d="M 133.378006 368.633204 
L 181.169978 419.801607 
L 276.753923 445.385808 
L 324.545895 456.756565 
L 372.337868 459.599254 
L 420.12984 462.441943 
L 467.921813 465.284632 
L 515.713785 462.441943 
L 563.505757 462.441943 
L 611.29773 465.284632 
L 659.089702 463.073651 
L 706.881675 465.600486 
L 754.673647 465.600486 
L 802.465619 466.863903 
" clip-path="url(#p25f9e410da)" style="fill: none; stroke: #2ca02c; stroke-width: 3; stroke-linecap: square"/>
    <defs>
     <path id="m999923387b" d="M 0 -4 
L -4 4 
L 4 4 
z
" style="stroke: #2ca02c; stroke-linejoin: miter"/>
    </defs>
    <g clip-path="url(#p25f9e410da)">
     <use xlink:href="#m999923387b" x="133.378006" y="368.633204" style="fill: #2ca02c; stroke: #2ca02c; stroke-linejoin: miter"/>
     <use xlink:href="#m999923387b" x="181.169978" y="419.801607" style="fill: #2ca02c; stroke: #2ca02c; stroke-linejoin: miter"/>
     <use xlink:href="#m999923387b" x="276.753923" y="445.385808" style="fill: #2ca02c; stroke: #2ca02c; stroke-linejoin: miter"/>
     <use xlink:href="#m999923387b" x="324.545895" y="456.756565" style="fill: #2ca02c; stroke: #2ca02c; stroke-linejoin: miter"/>
     <use xlink:href="#m999923387b" x="372.337868" y="459.599254" style="fill: #2ca02c; stroke: #2ca02c; stroke-linejoin: miter"/>
     <use xlink:href="#m999923387b" x="420.12984" y="462.441943" style="fill: #2ca02c; stroke: #2ca02c; stroke-linejoin: miter"/>
     <use xlink:href="#m999923387b" x="467.921813" y="465.284632" style="fill: #2ca02c; stroke: #2ca02c; stroke-linejoin: miter"/>
     <use xlink:href="#m999923387b" x="515.713785" y="462.441943" style="fill: #2ca02c; stroke: #2ca02c; stroke-linejoin: miter"/>
     <use xlink:href="#m999923387b" x="563.505757" y="462.441943" style="fill: #2ca02c; stroke: #2ca02c; stroke-linejoin: miter"/>
     <use xlink:href="#m999923387b" x="611.29773" y="465.284632" style="fill: #2ca02c; stroke: #2ca02c; stroke-linejoin: miter"/>
     <use xlink:href="#m999923387b" x="659.089702" y="463.073651" style="fill: #2ca02c; stroke: #2ca02c; stroke-linejoin: miter"/>
     <use xlink:href="#m999923387b" x="706.881675" y="465.600486" style="fill: #2ca02c; stroke: #2ca02c; stroke-linejoin: miter"/>
     <use xlink:href="#m999923387b" x="754.673647" y="465.600486" style="fill: #2ca02c; stroke: #2ca02c; stroke-linejoin: miter"/>
     <use xlink:href="#m999923387b" x="802.465619" y="466.863903" style="fill: #2ca02c; stroke: #2ca02c; stroke-linejoin: miter"/>
    </g>
   </g>
   <g id="line2d_41">
    <path d="M 133.378006 67.308163 
L 181.169978 172.487658 
L 276.753923 340.206313 
L 324.545895 414.116229 
L 372.337868 414.116229 
L 420.12984 431.172363 
L 467.921813 436.857741 
L 515.713785 445.385808 
L 563.505757 451.071186 
L 611.29773 448.228497 
L 659.089702 455.493147 
L 706.881675 459.283399 
L 754.673647 459.283399 
L 802.465619 461.810234 
" clip-path="url(#p25f9e410da)" style="fill: none; stroke: #1f77b4; stroke-width: 3; stroke-linecap: square"/>
    <defs>
     <path id="md7f5aa2f98" d="M 0 4 
C 1.060812 4 2.078319 3.578535 2.828427 2.828427 
C 3.578535 2.078319 4 1.060812 4 0 
C 4 -1.060812 3.578535 -2.078319 2.828427 -2.828427 
C 2.078319 -3.578535 1.060812 -4 0 -4 
C -1.060812 -4 -2.078319 -3.578535 -2.828427 -2.828427 
C -3.578535 -2.078319 -4 -1.060812 -4 0 
C -4 1.060812 -3.578535 2.078319 -2.828427 2.828427 
C -2.078319 3.578535 -1.060812 4 0 4 
z
" style="stroke: #1f77b4"/>
    </defs>
    <g clip-path="url(#p25f9e410da)">
     <use xlink:href="#md7f5aa2f98" x="133.378006" y="67.308163" style="fill: #1f77b4; stroke: #1f77b4"/>
     <use xlink:href="#md7f5aa2f98" x="181.169978" y="172.487658" style="fill: #1f77b4; stroke: #1f77b4"/>
     <use xlink:href="#md7f5aa2f98" x="276.753923" y="340.206313" style="fill: #1f77b4; stroke: #1f77b4"/>
     <use xlink:href="#md7f5aa2f98" x="324.545895" y="414.116229" style="fill: #1f77b4; stroke: #1f77b4"/>
     <use xlink:href="#md7f5aa2f98" x="372.337868" y="414.116229" style="fill: #1f77b4; stroke: #1f77b4"/>
     <use xlink:href="#md7f5aa2f98" x="420.12984" y="431.172363" style="fill: #1f77b4; stroke: #1f77b4"/>
     <use xlink:href="#md7f5aa2f98" x="467.921813" y="436.857741" style="fill: #1f77b4; stroke: #1f77b4"/>
     <use xlink:href="#md7f5aa2f98" x="515.713785" y="445.385808" style="fill: #1f77b4; stroke: #1f77b4"/>
     <use xlink:href="#md7f5aa2f98" x="563.505757" y="451.071186" style="fill: #1f77b4; stroke: #1f77b4"/>
     <use xlink:href="#md7f5aa2f98" x="611.29773" y="448.228497" style="fill: #1f77b4; stroke: #1f77b4"/>
     <use xlink:href="#md7f5aa2f98" x="659.089702" y="455.493147" style="fill: #1f77b4; stroke: #1f77b4"/>
     <use xlink:href="#md7f5aa2f98" x="706.881675" y="459.283399" style="fill: #1f77b4; stroke: #1f77b4"/>
     <use xlink:href="#md7f5aa2f98" x="754.673647" y="459.283399" style="fill: #1f77b4; stroke: #1f77b4"/>
     <use xlink:href="#md7f5aa2f98" x="802.465619" y="461.810234" style="fill: #1f77b4; stroke: #1f77b4"/>
    </g>
   </g>
   <g id="patch_3">
    <path d="M 99.923625 487.758375 
L 99.923625 28.08 
" style="fill: none; stroke: #000000; stroke-width: 2; stroke-linejoin: miter; stroke-linecap: square"/>
   </g>
   <g id="patch_4">
    <path d="M 835.92 487.758375 
L 835.92 28.08 
" style="fill: none; stroke: #000000; stroke-width: 2; stroke-linejoin: miter; stroke-linecap: square"/>
   </g>
   <g id="patch_5">
    <path d="M 99.923625 487.758375 
L 835.92 487.758375 
" style="fill: none; stroke: #000000; stroke-width: 2; stroke-linejoin: miter; stroke-linecap: square"/>
   </g>
   <g id="patch_6">
    <path d="M 99.923625 28.08 
L 835.92 28.08 
" style="fill: none; stroke: #000000; stroke-width: 2; stroke-linejoin: miter; stroke-linecap: square"/>
   </g>
   <g id="legend_1">
    <g id="patch_7">
     <path d="M 720.0825 111.335 
L 824.72 111.335 
Q 827.92 111.335 827.92 108.135 
L 827.92 39.28 
Q 827.92 36.08 824.72 36.08 
L 720.0825 36.08 
Q 716.8825 36.08 716.8825 39.28 
L 716.8825 108.135 
Q 716.8825 111.335 720.0825 111.335 
z
" style="fill: #ffffff; opacity: 0.8; stroke: #cccccc; stroke-linejoin: miter"/>
    </g>
    <g id="line2d_42">
     <path d="M 723.2825 49.0375 
L 739.2825 49.0375 
L 755.2825 49.0375 
" style="fill: none; stroke: #ff7f0e; stroke-width: 3; stroke-linecap: square"/>
     <g>
      <use xlink:href="#mc63077cc34" x="739.2825" y="49.0375" style="fill: #ff7f0e; stroke: #ff7f0e; stroke-linejoin: miter"/>
     </g>
    </g>
    <g id="text_15">
     <!-- Partial -->
     <g transform="translate(768.0825 54.6375) scale(0.16 -0.16)">
      <defs>
       <path id="DejaVuSerif-50" d="M 1581 2375 
L 2406 2375 
Q 2872 2375 3115 2626 
Q 3359 2878 3359 3353 
Q 3359 3831 3115 4081 
Q 2872 4331 2406 4331 
L 1581 4331 
L 1581 2375 
z
M 353 0 
L 353 331 
L 947 331 
L 947 4331 
L 353 4331 
L 353 4666 
L 2559 4666 
Q 3259 4666 3668 4311 
Q 4078 3956 4078 3353 
Q 4078 2753 3668 2397 
Q 3259 2041 2559 2041 
L 1581 2041 
L 1581 331 
L 2303 331 
L 2303 0 
L 353 0 
z
" transform="scale(0.015625)"/>
       <path id="DejaVuSerif-72" d="M 3059 3328 
L 3059 2497 
L 2728 2497 
Q 2713 2744 2591 2866 
Q 2469 2988 2234 2988 
Q 1809 2988 1582 2694 
Q 1356 2400 1356 1850 
L 1356 331 
L 2022 331 
L 2022 0 
L 263 0 
L 263 331 
L 781 331 
L 781 2994 
L 231 2994 
L 231 3322 
L 1356 3322 
L 1356 2731 
Q 1525 3078 1790 3245 
Q 2056 3413 2438 3413 
Q 2578 3413 2733 3391 
Q 2888 3369 3059 3328 
z
" transform="scale(0.015625)"/>
       <path id="DejaVuSerif-74" d="M 691 2988 
L 184 2988 
L 184 3322 
L 691 3322 
L 691 4353 
L 1269 4353 
L 1269 3322 
L 2350 3322 
L 2350 2988 
L 1269 2988 
L 1269 878 
Q 1269 456 1350 337 
Q 1431 219 1650 219 
Q 1875 219 1978 351 
Q 2081 484 2088 781 
L 2522 781 
Q 2497 328 2275 118 
Q 2053 -91 1600 -91 
Q 1103 -91 897 129 
Q 691 350 691 878 
L 691 2988 
z
" transform="scale(0.015625)"/>
       <path id="DejaVuSerif-69" d="M 622 4353 
Q 622 4497 726 4603 
Q 831 4709 978 4709 
Q 1122 4709 1226 4603 
Q 1331 4497 1331 4353 
Q 1331 4206 1228 4103 
Q 1125 4000 978 4000 
Q 831 4000 726 4103 
Q 622 4206 622 4353 
z
M 1356 331 
L 1900 331 
L 1900 0 
L 231 0 
L 231 331 
L 781 331 
L 781 2988 
L 231 2988 
L 231 3322 
L 1356 3322 
L 1356 331 
z
" transform="scale(0.015625)"/>
       <path id="DejaVuSerif-6c" d="M 1313 331 
L 1856 331 
L 1856 0 
L 184 0 
L 184 331 
L 738 331 
L 738 4531 
L 184 4531 
L 184 4863 
L 1313 4863 
L 1313 331 
z
" transform="scale(0.015625)"/>
      </defs>
      <use xlink:href="#DejaVuSerif-50"/>
      <use xlink:href="#DejaVuSerif-61" x="62.785156"/>
      <use xlink:href="#DejaVuSerif-72" x="122.404297"/>
      <use xlink:href="#DejaVuSerif-74" x="170.207031"/>
      <use xlink:href="#DejaVuSerif-69" x="210.392578"/>
      <use xlink:href="#DejaVuSerif-61" x="242.375"/>
      <use xlink:href="#DejaVuSerif-6c" x="301.994141"/>
     </g>
    </g>
    <g id="line2d_43">
     <path d="M 723.2825 72.5225 
L 739.2825 72.5225 
L 755.2825 72.5225 
" style="fill: none; stroke: #2ca02c; stroke-width: 3; stroke-linecap: square"/>
     <g>
      <use xlink:href="#m999923387b" x="739.2825" y="72.5225" style="fill: #2ca02c; stroke: #2ca02c; stroke-linejoin: miter"/>
     </g>
    </g>
    <g id="text_16">
     <!-- Full -->
     <g transform="translate(768.0825 78.1225) scale(0.16 -0.16)">
      <defs>
       <path id="DejaVuSerif-46" d="M 353 0 
L 353 331 
L 947 331 
L 947 4331 
L 353 4331 
L 353 4666 
L 4172 4666 
L 4172 3628 
L 3788 3628 
L 3788 4281 
L 1581 4281 
L 1581 2719 
L 3175 2719 
L 3175 3303 
L 3559 3303 
L 3559 1753 
L 3175 1753 
L 3175 2338 
L 1581 2338 
L 1581 331 
L 2328 331 
L 2328 0 
L 353 0 
z
" transform="scale(0.015625)"/>
      </defs>
      <use xlink:href="#DejaVuSerif-46"/>
      <use xlink:href="#DejaVuSerif-75" x="69.384766"/>
      <use xlink:href="#DejaVuSerif-6c" x="133.789062"/>
      <use xlink:href="#DejaVuSerif-6c" x="165.771484"/>
     </g>
    </g>
    <g id="LineCollection_2">
     <path d="M 739.2825 104.0075 
L 739.2825 88.0075 
" style="fill: none; stroke: #000000; stroke-width: 3"/>
    </g>
    <g id="line2d_44">
     <g>
      <use xlink:href="#mc828c44e98" x="739.2825" y="104.0075" style="stroke: #000000"/>
     </g>
    </g>
    <g id="line2d_45">
     <g>
      <use xlink:href="#mc828c44e98" x="739.2825" y="88.0075" style="stroke: #000000"/>
     </g>
    </g>
    <g id="line2d_46">
     <path d="M 723.2825 96.0075 
L 755.2825 96.0075 
" style="fill: none; stroke: #1f77b4; stroke-width: 3; stroke-linecap: square"/>
    </g>
    <g id="line2d_47">
     <g>
      <use xlink:href="#md7f5aa2f98" x="739.2825" y="96.0075" style="fill: #1f77b4; stroke: #1f77b4"/>
     </g>
    </g>
    <g id="text_17">
     <!-- Total -->
     <g transform="translate(768.0825 101.6075) scale(0.16 -0.16)">
      <defs>
       <path id="DejaVuSerif-54" d="M 1222 0 
L 1222 331 
L 1819 331 
L 1819 4294 
L 447 4294 
L 447 3566 
L 63 3566 
L 63 4666 
L 4206 4666 
L 4206 3566 
L 3822 3566 
L 3822 4294 
L 2450 4294 
L 2450 331 
L 3047 331 
L 3047 0 
L 1222 0 
z
" transform="scale(0.015625)"/>
       <path id="DejaVuSerif-6f" d="M 1925 219 
Q 2388 219 2623 584 
Q 2859 950 2859 1663 
Q 2859 2375 2623 2739 
Q 2388 3103 1925 3103 
Q 1463 3103 1227 2739 
Q 991 2375 991 1663 
Q 991 950 1228 584 
Q 1466 219 1925 219 
z
M 1925 -91 
Q 1200 -91 759 389 
Q 319 869 319 1663 
Q 319 2456 758 2934 
Q 1197 3413 1925 3413 
Q 2653 3413 3092 2934 
Q 3531 2456 3531 1663 
Q 3531 869 3092 389 
Q 2653 -91 1925 -91 
z
" transform="scale(0.015625)"/>
      </defs>
      <use xlink:href="#DejaVuSerif-54"/>
      <use xlink:href="#DejaVuSerif-6f" x="58.949219"/>
      <use xlink:href="#DejaVuSerif-74" x="119.154297"/>
      <use xlink:href="#DejaVuSerif-61" x="159.339844"/>
      <use xlink:href="#DejaVuSerif-6c" x="218.958984"/>
     </g>
    </g>
   </g>
  </g>
 </g>
 <defs>
  <clipPath id="p25f9e410da">
   <rect x="99.923625" y="28.08" width="735.996375" height="459.678375"/>
  </clipPath>
 </defs>
</svg>
