<?xml version="1.0" encoding="utf-8" standalone="no"?>
<!DOCTYPE svg PUBLIC "-//W3C//DTD SVG 1.1//EN"
  "http://www.w3.org/Graphics/SVG/1.1/DTD/svg11.dtd">
<svg xmlns:xlink="http://www.w3.org/1999/xlink" width="864pt" height="576pt" viewBox="0 0 864 576" xmlns="http://www.w3.org/2000/svg" version="1.1">
 <metadata>
  <rdf:RDF xmlns:dc="http://purl.org/dc/elements/1.1/" xmlns:cc="http://creativecommons.org/ns#" xmlns:rdf="http://www.w3.org/1999/02/22-rdf-syntax-ns#">
   <cc:Work>
    <dc:type rdf:resource="http://purl.org/dc/dcmitype/StillImage"/>
    <dc:date>2025-06-05T19:49:23.867336</dc:date>
    <dc:format>image/svg+xml</dc:format>
    <dc:creator>
     <cc:Agent>
      <dc:title>Matplotlib v3.7.2, https://matplotlib.org/</dc:title>
     </cc:Agent>
    </dc:creator>
   </cc:Work>
  </rdf:RDF>
 </metadata>
 <defs>
  <style type="text/css">*{stroke-linejoin: round; stroke-linecap: butt}</style>
 </defs>
 <g id="figure_1">
  <g id="patch_1">
   <path d="M 0 576 
L 864 576 
L 864 0 
L 0 0 
z
" style="fill: #ffffff"/>
  </g>
  <g id="axes_1">
   <g id="patch_2">
    <path d="M 105.15 489.2325 
L 835.92 489.2325 
L 835.92 28.08 
L 105.15 28.08 
z
" style="fill: #ffffff"/>
   </g>
   <g id="matplotlib.axis_1">
    <g id="xtick_1">
     <g id="line2d_1">
      <path d="M 138.366818 489.2325 
L 138.366818 28.08 
" clip-path="url(#pebda80f6e3)" style="fill: none; stroke-dasharray: 3.7,1.6; stroke-dashoffset: 0; stroke: #b0b0b0; stroke-opacity: 0.5"/>
     </g>
     <g id="line2d_2">
      <defs>
       <path id="m430c3a10b0" d="M 0 0 
L 0 -10 
" style="stroke: #000000; stroke-width: 2"/>
      </defs>
      <g>
       <use xlink:href="#m430c3a10b0" x="138.366818" y="489.2325" style="stroke: #000000; stroke-width: 2"/>
      </g>
     </g>
     <g id="line2d_3">
      <defs>
       <path id="m0176f83447" d="M 0 0 
L 0 10 
" style="stroke: #000000; stroke-width: 2"/>
      </defs>
      <g>
       <use xlink:href="#m0176f83447" x="138.366818" y="28.08" style="stroke: #000000; stroke-width: 2"/>
      </g>
     </g>
     <g id="text_1">
      <!-- 0 -->
      <g transform="translate(130.095568 512.488438) scale(0.26 -0.26)">
       <defs>
        <path id="DejaVuSerif-30" d="M 2034 219 
Q 2513 219 2750 744 
Q 2988 1269 2988 2328 
Q 2988 3391 2750 3916 
Q 2513 4441 2034 4441 
Q 1556 4441 1318 3916 
Q 1081 3391 1081 2328 
Q 1081 1269 1318 744 
Q 1556 219 2034 219 
z
M 2034 -91 
Q 1275 -91 848 546 
Q 422 1184 422 2328 
Q 422 3475 848 4112 
Q 1275 4750 2034 4750 
Q 2797 4750 3222 4112 
Q 3647 3475 3647 2328 
Q 3647 1184 3222 546 
Q 2797 -91 2034 -91 
z
" transform="scale(0.015625)"/>
       </defs>
       <use xlink:href="#DejaVuSerif-30"/>
      </g>
     </g>
    </g>
    <g id="xtick_2">
     <g id="line2d_4">
      <path d="M 271.234091 489.2325 
L 271.234091 28.08 
" clip-path="url(#pebda80f6e3)" style="fill: none; stroke-dasharray: 3.7,1.6; stroke-dashoffset: 0; stroke: #b0b0b0; stroke-opacity: 0.5"/>
     </g>
     <g id="line2d_5">
      <g>
       <use xlink:href="#m430c3a10b0" x="271.234091" y="489.2325" style="stroke: #000000; stroke-width: 2"/>
      </g>
     </g>
     <g id="line2d_6">
      <g>
       <use xlink:href="#m0176f83447" x="271.234091" y="28.08" style="stroke: #000000; stroke-width: 2"/>
      </g>
     </g>
     <g id="text_2">
      <!-- 10 -->
      <g transform="translate(254.691591 512.488438) scale(0.26 -0.26)">
       <defs>
        <path id="DejaVuSerif-31" d="M 909 0 
L 909 331 
L 1722 331 
L 1722 4213 
L 781 3603 
L 781 4013 
L 1919 4750 
L 2350 4750 
L 2350 331 
L 3163 331 
L 3163 0 
L 909 0 
z
" transform="scale(0.015625)"/>
       </defs>
       <use xlink:href="#DejaVuSerif-31"/>
       <use xlink:href="#DejaVuSerif-30" x="63.623047"/>
      </g>
     </g>
    </g>
    <g id="xtick_3">
     <g id="line2d_7">
      <path d="M 404.101364 489.2325 
L 404.101364 28.08 
" clip-path="url(#pebda80f6e3)" style="fill: none; stroke-dasharray: 3.7,1.6; stroke-dashoffset: 0; stroke: #b0b0b0; stroke-opacity: 0.5"/>
     </g>
     <g id="line2d_8">
      <g>
       <use xlink:href="#m430c3a10b0" x="404.101364" y="489.2325" style="stroke: #000000; stroke-width: 2"/>
      </g>
     </g>
     <g id="line2d_9">
      <g>
       <use xlink:href="#m0176f83447" x="404.101364" y="28.08" style="stroke: #000000; stroke-width: 2"/>
      </g>
     </g>
     <g id="text_3">
      <!-- 20 -->
      <g transform="translate(387.558864 512.488438) scale(0.26 -0.26)">
       <defs>
        <path id="DejaVuSerif-32" d="M 819 3553 
L 469 3553 
L 469 4384 
Q 803 4563 1142 4656 
Q 1481 4750 1806 4750 
Q 2534 4750 2956 4397 
Q 3378 4044 3378 3438 
Q 3378 2753 2422 1800 
Q 2347 1728 2309 1691 
L 1131 513 
L 3078 513 
L 3078 1088 
L 3444 1088 
L 3444 0 
L 434 0 
L 434 341 
L 1850 1753 
Q 2319 2222 2519 2614 
Q 2719 3006 2719 3438 
Q 2719 3909 2473 4175 
Q 2228 4441 1797 4441 
Q 1350 4441 1106 4219 
Q 863 3997 819 3553 
z
" transform="scale(0.015625)"/>
       </defs>
       <use xlink:href="#DejaVuSerif-32"/>
       <use xlink:href="#DejaVuSerif-30" x="63.623047"/>
      </g>
     </g>
    </g>
    <g id="xtick_4">
     <g id="line2d_10">
      <path d="M 536.968636 489.2325 
L 536.968636 28.08 
" clip-path="url(#pebda80f6e3)" style="fill: none; stroke-dasharray: 3.7,1.6; stroke-dashoffset: 0; stroke: #b0b0b0; stroke-opacity: 0.5"/>
     </g>
     <g id="line2d_11">
      <g>
       <use xlink:href="#m430c3a10b0" x="536.968636" y="489.2325" style="stroke: #000000; stroke-width: 2"/>
      </g>
     </g>
     <g id="line2d_12">
      <g>
       <use xlink:href="#m0176f83447" x="536.968636" y="28.08" style="stroke: #000000; stroke-width: 2"/>
      </g>
     </g>
     <g id="text_4">
      <!-- 30 -->
      <g transform="translate(520.426136 512.488438) scale(0.26 -0.26)">
       <defs>
        <path id="DejaVuSerif-33" d="M 622 4469 
Q 988 4606 1323 4678 
Q 1659 4750 1953 4750 
Q 2638 4750 3022 4454 
Q 3406 4159 3406 3634 
Q 3406 3213 3140 2930 
Q 2875 2647 2388 2547 
Q 2963 2466 3280 2130 
Q 3597 1794 3597 1259 
Q 3597 606 3158 257 
Q 2719 -91 1894 -91 
Q 1528 -91 1179 -12 
Q 831 66 488 225 
L 488 1131 
L 838 1131 
Q 869 681 1141 450 
Q 1413 219 1906 219 
Q 2384 219 2661 495 
Q 2938 772 2938 1253 
Q 2938 1803 2653 2086 
Q 2369 2369 1819 2369 
L 1522 2369 
L 1522 2688 
L 1678 2688 
Q 2225 2688 2498 2914 
Q 2772 3141 2772 3597 
Q 2772 4006 2547 4223 
Q 2322 4441 1900 4441 
Q 1478 4441 1245 4241 
Q 1013 4041 972 3647 
L 622 3647 
L 622 4469 
z
" transform="scale(0.015625)"/>
       </defs>
       <use xlink:href="#DejaVuSerif-33"/>
       <use xlink:href="#DejaVuSerif-30" x="63.623047"/>
      </g>
     </g>
    </g>
    <g id="xtick_5">
     <g id="line2d_13">
      <path d="M 669.835909 489.2325 
L 669.835909 28.08 
" clip-path="url(#pebda80f6e3)" style="fill: none; stroke-dasharray: 3.7,1.6; stroke-dashoffset: 0; stroke: #b0b0b0; stroke-opacity: 0.5"/>
     </g>
     <g id="line2d_14">
      <g>
       <use xlink:href="#m430c3a10b0" x="669.835909" y="489.2325" style="stroke: #000000; stroke-width: 2"/>
      </g>
     </g>
     <g id="line2d_15">
      <g>
       <use xlink:href="#m0176f83447" x="669.835909" y="28.08" style="stroke: #000000; stroke-width: 2"/>
      </g>
     </g>
     <g id="text_5">
      <!-- 40 -->
      <g transform="translate(653.293409 512.488438) scale(0.26 -0.26)">
       <defs>
        <path id="DejaVuSerif-34" d="M 2234 1581 
L 2234 4063 
L 641 1581 
L 2234 1581 
z
M 3609 0 
L 1484 0 
L 1484 331 
L 2234 331 
L 2234 1247 
L 197 1247 
L 197 1588 
L 2241 4750 
L 2859 4750 
L 2859 1581 
L 3750 1581 
L 3750 1247 
L 2859 1247 
L 2859 331 
L 3609 331 
L 3609 0 
z
" transform="scale(0.015625)"/>
       </defs>
       <use xlink:href="#DejaVuSerif-34"/>
       <use xlink:href="#DejaVuSerif-30" x="63.623047"/>
      </g>
     </g>
    </g>
    <g id="xtick_6">
     <g id="line2d_16">
      <path d="M 802.703182 489.2325 
L 802.703182 28.08 
" clip-path="url(#pebda80f6e3)" style="fill: none; stroke-dasharray: 3.7,1.6; stroke-dashoffset: 0; stroke: #b0b0b0; stroke-opacity: 0.5"/>
     </g>
     <g id="line2d_17">
      <g>
       <use xlink:href="#m430c3a10b0" x="802.703182" y="489.2325" style="stroke: #000000; stroke-width: 2"/>
      </g>
     </g>
     <g id="line2d_18">
      <g>
       <use xlink:href="#m0176f83447" x="802.703182" y="28.08" style="stroke: #000000; stroke-width: 2"/>
      </g>
     </g>
     <g id="text_6">
      <!-- 50 -->
      <g transform="translate(786.160682 512.488438) scale(0.26 -0.26)">
       <defs>
        <path id="DejaVuSerif-35" d="M 3219 4666 
L 3219 4153 
L 1081 4153 
L 1081 2816 
Q 1244 2928 1461 2984 
Q 1678 3041 1947 3041 
Q 2703 3041 3140 2622 
Q 3578 2203 3578 1478 
Q 3578 738 3136 323 
Q 2694 -91 1894 -91 
Q 1572 -91 1234 -12 
Q 897 66 544 225 
L 544 1131 
L 897 1131 
Q 925 688 1179 453 
Q 1434 219 1894 219 
Q 2388 219 2653 544 
Q 2919 869 2919 1478 
Q 2919 2084 2655 2407 
Q 2391 2731 1894 2731 
Q 1613 2731 1398 2631 
Q 1184 2531 1019 2322 
L 750 2322 
L 750 4666 
L 3219 4666 
z
" transform="scale(0.015625)"/>
       </defs>
       <use xlink:href="#DejaVuSerif-35"/>
       <use xlink:href="#DejaVuSerif-30" x="63.623047"/>
      </g>
     </g>
    </g>
    <g id="text_7">
     <!-- $t$ (a.u.) -->
     <g transform="translate(427.115 541.651562) scale(0.26 -0.26)">
      <defs>
       <path id="Cmmi10-74" d="M 397 519 
Q 397 613 416 697 
L 878 2534 
L 206 2534 
Q 141 2534 141 2619 
Q 166 2759 225 2759 
L 934 2759 
L 1191 3803 
Q 1216 3888 1291 3947 
Q 1366 4006 1459 4006 
Q 1541 4006 1595 3957 
Q 1650 3909 1650 3828 
Q 1650 3809 1648 3798 
Q 1647 3788 1644 3775 
L 1388 2759 
L 2047 2759 
Q 2113 2759 2113 2675 
Q 2109 2659 2100 2621 
Q 2091 2584 2075 2559 
Q 2059 2534 2028 2534 
L 1331 2534 
L 872 684 
Q 825 503 825 372 
Q 825 97 1013 97 
Q 1294 97 1511 361 
Q 1728 625 1844 941 
Q 1869 978 1894 978 
L 1972 978 
Q 1997 978 2012 961 
Q 2028 944 2028 922 
Q 2028 909 2022 903 
Q 1881 516 1612 222 
Q 1344 -72 997 -72 
Q 744 -72 570 93 
Q 397 259 397 519 
z
" transform="scale(0.015625)"/>
       <path id="DejaVuSerif-20" transform="scale(0.015625)"/>
       <path id="DejaVuSerif-28" d="M 2041 -997 
Q 1281 -656 893 83 
Q 506 822 506 1931 
Q 506 3044 893 3783 
Q 1281 4522 2041 4863 
L 2041 4556 
Q 1559 4225 1350 3623 
Q 1141 3022 1141 1931 
Q 1141 844 1350 242 
Q 1559 -359 2041 -691 
L 2041 -997 
z
" transform="scale(0.015625)"/>
       <path id="DejaVuSerif-61" d="M 2547 1044 
L 2547 1747 
L 1806 1747 
Q 1378 1747 1168 1562 
Q 959 1378 959 997 
Q 959 650 1171 447 
Q 1384 244 1747 244 
Q 2106 244 2326 466 
Q 2547 688 2547 1044 
z
M 3122 2075 
L 3122 331 
L 3634 331 
L 3634 0 
L 2547 0 
L 2547 359 
Q 2356 128 2106 18 
Q 1856 -91 1522 -91 
Q 969 -91 644 203 
Q 319 497 319 997 
Q 319 1513 691 1797 
Q 1063 2081 1741 2081 
L 2547 2081 
L 2547 2309 
Q 2547 2688 2317 2895 
Q 2088 3103 1672 3103 
Q 1328 3103 1125 2947 
Q 922 2791 872 2484 
L 575 2484 
L 575 3156 
Q 875 3284 1158 3348 
Q 1441 3413 1709 3413 
Q 2400 3413 2761 3070 
Q 3122 2728 3122 2075 
z
" transform="scale(0.015625)"/>
       <path id="DejaVuSerif-2e" d="M 603 325 
Q 603 500 722 622 
Q 841 744 1019 744 
Q 1191 744 1312 622 
Q 1434 500 1434 325 
Q 1434 153 1312 31 
Q 1191 -91 1019 -91 
Q 841 -91 722 29 
Q 603 150 603 325 
z
" transform="scale(0.015625)"/>
       <path id="DejaVuSerif-75" d="M 2266 3322 
L 3341 3322 
L 3341 331 
L 3884 331 
L 3884 0 
L 2766 0 
L 2766 588 
Q 2606 256 2353 82 
Q 2100 -91 1766 -91 
Q 1213 -91 952 223 
Q 691 538 691 1209 
L 691 2988 
L 172 2988 
L 172 3322 
L 1269 3322 
L 1269 1388 
Q 1269 781 1417 556 
Q 1566 331 1947 331 
Q 2347 331 2556 625 
Q 2766 919 2766 1478 
L 2766 2988 
L 2266 2988 
L 2266 3322 
z
" transform="scale(0.015625)"/>
       <path id="DejaVuSerif-29" d="M 453 -997 
L 453 -691 
Q 934 -359 1145 242 
Q 1356 844 1356 1931 
Q 1356 3022 1145 3623 
Q 934 4225 453 4556 
L 453 4863 
Q 1216 4522 1603 3783 
Q 1991 3044 1991 1931 
Q 1991 822 1603 83 
Q 1216 -656 453 -997 
z
" transform="scale(0.015625)"/>
      </defs>
      <use xlink:href="#Cmmi10-74" transform="translate(0 0.015625)"/>
      <use xlink:href="#DejaVuSerif-20" transform="translate(36.083984 0.015625)"/>
      <use xlink:href="#DejaVuSerif-28" transform="translate(67.871094 0.015625)"/>
      <use xlink:href="#DejaVuSerif-61" transform="translate(106.884766 0.015625)"/>
      <use xlink:href="#DejaVuSerif-2e" transform="translate(166.503906 0.015625)"/>
      <use xlink:href="#DejaVuSerif-75" transform="translate(198.291016 0.015625)"/>
      <use xlink:href="#DejaVuSerif-2e" transform="translate(262.695312 0.015625)"/>
      <use xlink:href="#DejaVuSerif-29" transform="translate(294.482422 0.015625)"/>
     </g>
    </g>
   </g>
   <g id="matplotlib.axis_2">
    <g id="ytick_1">
     <g id="line2d_19">
      <path d="M 105.15 473.665403 
L 835.92 473.665403 
" clip-path="url(#pebda80f6e3)" style="fill: none; stroke-dasharray: 3.7,1.6; stroke-dashoffset: 0; stroke: #b0b0b0; stroke-opacity: 0.5"/>
     </g>
     <g id="line2d_20">
      <defs>
       <path id="m44cec07b22" d="M 0 0 
L 10 0 
" style="stroke: #000000; stroke-width: 2"/>
      </defs>
      <g>
       <use xlink:href="#m44cec07b22" x="105.15" y="473.665403" style="stroke: #000000; stroke-width: 2"/>
      </g>
     </g>
     <g id="line2d_21">
      <defs>
       <path id="m2f3b7a3596" d="M 0 0 
L -10 0 
" style="stroke: #000000; stroke-width: 2"/>
      </defs>
      <g>
       <use xlink:href="#m2f3b7a3596" x="835.92" y="473.665403" style="stroke: #000000; stroke-width: 2"/>
      </g>
     </g>
     <g id="text_8">
      <!-- 2.4 -->
      <g transform="translate(60.301875 483.543372) scale(0.26 -0.26)">
       <use xlink:href="#DejaVuSerif-32"/>
       <use xlink:href="#DejaVuSerif-2e" x="63.623047"/>
       <use xlink:href="#DejaVuSerif-34" x="95.410156"/>
      </g>
     </g>
    </g>
    <g id="ytick_2">
     <g id="line2d_22">
      <path d="M 105.15 380.812321 
L 835.92 380.812321 
" clip-path="url(#pebda80f6e3)" style="fill: none; stroke-dasharray: 3.7,1.6; stroke-dashoffset: 0; stroke: #b0b0b0; stroke-opacity: 0.5"/>
     </g>
     <g id="line2d_23">
      <g>
       <use xlink:href="#m44cec07b22" x="105.15" y="380.812321" style="stroke: #000000; stroke-width: 2"/>
      </g>
     </g>
     <g id="line2d_24">
      <g>
       <use xlink:href="#m2f3b7a3596" x="835.92" y="380.812321" style="stroke: #000000; stroke-width: 2"/>
      </g>
     </g>
     <g id="text_9">
      <!-- 2.5 -->
      <g transform="translate(60.301875 390.69029) scale(0.26 -0.26)">
       <use xlink:href="#DejaVuSerif-32"/>
       <use xlink:href="#DejaVuSerif-2e" x="63.623047"/>
       <use xlink:href="#DejaVuSerif-35" x="95.410156"/>
      </g>
     </g>
    </g>
    <g id="ytick_3">
     <g id="line2d_25">
      <path d="M 105.15 287.959239 
L 835.92 287.959239 
" clip-path="url(#pebda80f6e3)" style="fill: none; stroke-dasharray: 3.7,1.6; stroke-dashoffset: 0; stroke: #b0b0b0; stroke-opacity: 0.5"/>
     </g>
     <g id="line2d_26">
      <g>
       <use xlink:href="#m44cec07b22" x="105.15" y="287.959239" style="stroke: #000000; stroke-width: 2"/>
      </g>
     </g>
     <g id="line2d_27">
      <g>
       <use xlink:href="#m2f3b7a3596" x="835.92" y="287.959239" style="stroke: #000000; stroke-width: 2"/>
      </g>
     </g>
     <g id="text_10">
      <!-- 2.6 -->
      <g transform="translate(60.301875 297.837208) scale(0.26 -0.26)">
       <defs>
        <path id="DejaVuSerif-36" d="M 2094 219 
Q 2534 219 2771 542 
Q 3009 866 3009 1472 
Q 3009 2078 2771 2401 
Q 2534 2725 2094 2725 
Q 1647 2725 1412 2412 
Q 1178 2100 1178 1509 
Q 1178 888 1415 553 
Q 1653 219 2094 219 
z
M 1075 2569 
Q 1288 2803 1556 2918 
Q 1825 3034 2163 3034 
Q 2859 3034 3264 2615 
Q 3669 2197 3669 1472 
Q 3669 763 3233 336 
Q 2797 -91 2069 -91 
Q 1278 -91 853 498 
Q 428 1088 428 2181 
Q 428 3406 931 4078 
Q 1434 4750 2350 4750 
Q 2597 4750 2869 4703 
Q 3141 4656 3425 4563 
L 3425 3794 
L 3072 3794 
Q 3034 4109 2831 4275 
Q 2628 4441 2284 4441 
Q 1678 4441 1381 3981 
Q 1084 3522 1075 2569 
z
" transform="scale(0.015625)"/>
       </defs>
       <use xlink:href="#DejaVuSerif-32"/>
       <use xlink:href="#DejaVuSerif-2e" x="63.623047"/>
       <use xlink:href="#DejaVuSerif-36" x="95.410156"/>
      </g>
     </g>
    </g>
    <g id="ytick_4">
     <g id="line2d_28">
      <path d="M 105.15 195.106157 
L 835.92 195.106157 
" clip-path="url(#pebda80f6e3)" style="fill: none; stroke-dasharray: 3.7,1.6; stroke-dashoffset: 0; stroke: #b0b0b0; stroke-opacity: 0.5"/>
     </g>
     <g id="line2d_29">
      <g>
       <use xlink:href="#m44cec07b22" x="105.15" y="195.106157" style="stroke: #000000; stroke-width: 2"/>
      </g>
     </g>
     <g id="line2d_30">
      <g>
       <use xlink:href="#m2f3b7a3596" x="835.92" y="195.106157" style="stroke: #000000; stroke-width: 2"/>
      </g>
     </g>
     <g id="text_11">
      <!-- 2.7 -->
      <g transform="translate(60.301875 204.984126) scale(0.26 -0.26)">
       <defs>
        <path id="DejaVuSerif-37" d="M 3609 4347 
L 1784 0 
L 1319 0 
L 3059 4153 
L 903 4153 
L 903 3578 
L 538 3578 
L 538 4666 
L 3609 4666 
L 3609 4347 
z
" transform="scale(0.015625)"/>
       </defs>
       <use xlink:href="#DejaVuSerif-32"/>
       <use xlink:href="#DejaVuSerif-2e" x="63.623047"/>
       <use xlink:href="#DejaVuSerif-37" x="95.410156"/>
      </g>
     </g>
    </g>
    <g id="ytick_5">
     <g id="line2d_31">
      <path d="M 105.15 102.253075 
L 835.92 102.253075 
" clip-path="url(#pebda80f6e3)" style="fill: none; stroke-dasharray: 3.7,1.6; stroke-dashoffset: 0; stroke: #b0b0b0; stroke-opacity: 0.5"/>
     </g>
     <g id="line2d_32">
      <g>
       <use xlink:href="#m44cec07b22" x="105.15" y="102.253075" style="stroke: #000000; stroke-width: 2"/>
      </g>
     </g>
     <g id="line2d_33">
      <g>
       <use xlink:href="#m2f3b7a3596" x="835.92" y="102.253075" style="stroke: #000000; stroke-width: 2"/>
      </g>
     </g>
     <g id="text_12">
      <!-- 2.8 -->
      <g transform="translate(60.301875 112.131044) scale(0.26 -0.26)">
       <defs>
        <path id="DejaVuSerif-38" d="M 2981 1275 
Q 2981 1775 2732 2051 
Q 2484 2328 2034 2328 
Q 1584 2328 1336 2051 
Q 1088 1775 1088 1275 
Q 1088 772 1336 495 
Q 1584 219 2034 219 
Q 2484 219 2732 495 
Q 2981 772 2981 1275 
z
M 2853 3541 
Q 2853 3966 2637 4203 
Q 2422 4441 2034 4441 
Q 1650 4441 1433 4203 
Q 1216 3966 1216 3541 
Q 1216 3113 1433 2875 
Q 1650 2638 2034 2638 
Q 2422 2638 2637 2875 
Q 2853 3113 2853 3541 
z
M 2516 2484 
Q 3047 2413 3344 2092 
Q 3641 1772 3641 1275 
Q 3641 619 3225 264 
Q 2809 -91 2034 -91 
Q 1263 -91 845 264 
Q 428 619 428 1275 
Q 428 1772 725 2092 
Q 1022 2413 1556 2484 
Q 1084 2569 832 2842 
Q 581 3116 581 3541 
Q 581 4103 968 4426 
Q 1356 4750 2034 4750 
Q 2713 4750 3100 4426 
Q 3488 4103 3488 3541 
Q 3488 3116 3236 2842 
Q 2984 2569 2516 2484 
z
" transform="scale(0.015625)"/>
       </defs>
       <use xlink:href="#DejaVuSerif-32"/>
       <use xlink:href="#DejaVuSerif-2e" x="63.623047"/>
       <use xlink:href="#DejaVuSerif-38" x="95.410156"/>
      </g>
     </g>
    </g>
    <g id="text_13">
     <!-- $p_i$ (a.u.) -->
     <g transform="translate(50.894688 307.92625) rotate(-90) scale(0.26 -0.26)">
      <defs>
       <path id="Cmmi10-70" d="M -159 -1241 
Q -219 -1241 -219 -1159 
Q -197 -1019 -134 -1019 
Q 66 -1019 145 -983 
Q 225 -947 269 -800 
L 991 2081 
Q 1038 2200 1038 2388 
Q 1038 2663 850 2663 
Q 650 2663 553 2423 
Q 456 2184 366 1819 
Q 366 1778 313 1778 
L 238 1778 
Q 222 1778 203 1801 
Q 184 1825 184 1844 
Q 253 2122 317 2315 
Q 381 2509 517 2668 
Q 653 2828 856 2828 
Q 1075 2828 1240 2704 
Q 1406 2581 1453 2369 
Q 1628 2572 1840 2700 
Q 2053 2828 2278 2828 
Q 2547 2828 2745 2684 
Q 2944 2541 3044 2308 
Q 3144 2075 3144 1806 
Q 3144 1394 2933 953 
Q 2722 513 2361 220 
Q 2000 -72 1588 -72 
Q 1400 -72 1248 34 
Q 1097 141 1013 313 
L 722 -825 
Q 706 -919 703 -934 
Q 703 -1019 1125 -1019 
Q 1191 -1019 1191 -1100 
Q 1169 -1184 1155 -1212 
Q 1141 -1241 1081 -1241 
L -159 -1241 
z
M 1594 97 
Q 1816 97 2006 280 
Q 2197 463 2316 691 
Q 2403 863 2479 1111 
Q 2556 1359 2612 1640 
Q 2669 1922 2669 2088 
Q 2669 2234 2630 2362 
Q 2591 2491 2502 2577 
Q 2413 2663 2266 2663 
Q 2031 2663 1823 2495 
Q 1616 2328 1447 2081 
L 1447 2059 
L 1094 647 
Q 1138 419 1263 258 
Q 1388 97 1594 97 
z
" transform="scale(0.015625)"/>
       <path id="Cmmi10-69" d="M 500 459 
Q 500 578 550 709 
L 1069 2088 
Q 1153 2322 1153 2472 
Q 1153 2663 1013 2663 
Q 759 2663 595 2402 
Q 431 2141 353 1819 
Q 341 1778 300 1778 
L 225 1778 
Q 172 1778 172 1838 
L 172 1856 
Q 275 2238 487 2533 
Q 700 2828 1025 2828 
Q 1253 2828 1411 2678 
Q 1569 2528 1569 2297 
Q 1569 2178 1516 2047 
L 997 672 
Q 909 459 909 288 
Q 909 97 1056 97 
Q 1306 97 1473 364 
Q 1641 631 1709 941 
Q 1722 978 1759 978 
L 1838 978 
Q 1863 978 1878 961 
Q 1894 944 1894 922 
Q 1894 916 1888 903 
Q 1800 541 1583 234 
Q 1366 -72 1044 -72 
Q 819 -72 659 83 
Q 500 238 500 459 
z
M 1222 3878 
Q 1222 4013 1334 4122 
Q 1447 4231 1581 4231 
Q 1691 4231 1761 4164 
Q 1831 4097 1831 3994 
Q 1831 3850 1717 3742 
Q 1603 3634 1466 3634 
Q 1363 3634 1292 3704 
Q 1222 3775 1222 3878 
z
" transform="scale(0.015625)"/>
      </defs>
      <use xlink:href="#Cmmi10-70" transform="translate(0 0.015625)"/>
      <use xlink:href="#Cmmi10-69" transform="translate(50.292969 -16.990625) scale(0.7)"/>
      <use xlink:href="#DejaVuSerif-20" transform="translate(80.766992 0.015625)"/>
      <use xlink:href="#DejaVuSerif-28" transform="translate(112.554102 0.015625)"/>
      <use xlink:href="#DejaVuSerif-61" transform="translate(151.567773 0.015625)"/>
      <use xlink:href="#DejaVuSerif-2e" transform="translate(211.186914 0.015625)"/>
      <use xlink:href="#DejaVuSerif-75" transform="translate(242.974023 0.015625)"/>
      <use xlink:href="#DejaVuSerif-2e" transform="translate(307.37832 0.015625)"/>
      <use xlink:href="#DejaVuSerif-29" transform="translate(339.16543 0.015625)"/>
     </g>
    </g>
   </g>
   <g id="line2d_34">
    <path d="M 138.366818 267.510558 
L 139.03182 274.81783 
L 139.696821 287.334093 
L 140.361822 281.165169 
L 141.026824 270.272419 
L 141.691825 278.47517 
L 142.356826 290.4064 
L 143.021828 283.491228 
L 143.686829 273.144893 
L 144.35183 281.916728 
L 145.016832 293.398358 
L 145.681833 286.110618 
L 146.346835 276.119071 
L 147.011836 285.047675 
L 147.676837 296.345259 
L 148.341839 289.158652 
L 149.00684 279.199847 
L 149.671841 287.785555 
L 150.336843 299.252348 
L 151.001844 292.734319 
L 151.666845 282.442847 
L 152.331847 290.061446 
L 152.996848 302.049271 
L 153.66185 296.91478 
L 154.326851 286.011278 
L 154.991852 291.847689 
L 155.656854 304.546745 
L 156.321855 301.732297 
L 156.986856 290.213792 
L 157.651858 293.234476 
L 158.316859 306.416628 
L 158.98186 306.998306 
L 159.646862 295.488897 
L 160.311863 294.58015 
L 160.976865 307.24416 
L 161.641866 312.183682 
L 162.306867 302.265335 
L 162.971869 296.722561 
L 164.301871 316.236031 
L 164.966873 310.501513 
L 165.631874 301.056664 
L 166.296876 305.627864 
L 166.961877 317.758267 
L 167.626878 318.942657 
L 168.29188 308.962082 
L 168.956881 305.859223 
L 170.286884 324.691456 
L 170.951885 319.987617 
L 171.616886 311.048073 
L 172.281888 313.39099 
L 172.946889 324.740204 
L 173.611891 329.704009 
L 174.941893 316.016144 
L 175.606895 320.713006 
L 176.271896 331.583632 
L 176.936897 335.238124 
L 178.2669 322.60501 
L 178.931901 326.83331 
L 179.596903 337.154618 
L 180.261904 342.142146 
L 180.926906 337.621201 
L 181.591907 331.146139 
L 182.256908 332.350368 
L 183.586911 349.170938 
L 184.251912 349.328485 
L 184.916914 343.687231 
L 185.581915 340.330273 
L 186.246916 344.477449 
L 186.911918 353.36389 
L 187.576919 360.018212 
L 188.241921 360.284205 
L 188.906922 356.181454 
L 189.571923 353.527044 
L 190.236925 356.439721 
L 191.566927 371.810121 
L 192.231929 375.918669 
L 192.89693 375.625304 
L 193.561931 373.468958 
L 194.226933 373.046577 
L 194.891934 376.437648 
L 196.886938 397.257688 
L 197.55194 401.223955 
L 198.216941 403.100275 
L 198.881942 404.235958 
L 199.546944 406.130451 
L 200.211945 409.728515 
L 200.876946 415.156482 
L 204.201953 447.954338 
L 204.866955 452.475538 
L 205.531956 456.071357 
L 206.196957 458.677534 
L 206.861959 460.114037 
L 207.52696 460.102109 
L 208.191962 458.341162 
L 208.856963 454.632421 
L 209.521964 449.030419 
L 211.516968 427.892573 
L 212.18197 423.835382 
L 212.846971 423.502276 
L 213.511972 426.95096 
L 214.176974 432.536281 
L 214.841975 437.002585 
L 215.506977 436.459299 
L 216.171978 427.998082 
L 216.836979 411.387582 
L 218.166982 371.680756 
L 218.831983 364.122268 
L 219.496985 371.756268 
L 220.826987 406.139827 
L 221.491989 408.059844 
L 222.15699 391.154701 
L 222.821992 362.384782 
L 223.486993 338.469023 
L 224.151994 336.784996 
L 224.816996 359.37794 
L 225.481997 386.529331 
L 226.146998 393.605674 
L 226.812 372.161105 
L 227.477001 336.398436 
L 228.142002 315.62787 
L 228.807004 330.76733 
L 229.472005 366.667571 
L 230.137007 384.782086 
L 230.802008 365.283518 
L 231.467009 324.265693 
L 232.132011 302.049267 
L 232.797012 325.209441 
L 233.462013 366.237347 
L 234.127015 375.176026 
L 234.792016 340.47719 
L 235.457017 298.359301 
L 236.122019 299.911009 
L 236.78702 344.787043 
L 237.452022 371.850258 
L 238.117023 345.867972 
L 238.782024 296.737766 
L 239.447026 287.859774 
L 240.112027 333.994563 
L 240.777028 366.858271 
L 241.44203 340.29797 
L 242.107031 288.16311 
L 242.772032 283.728109 
L 243.437034 335.912179 
L 244.102035 362.234203 
L 244.767037 323.822179 
L 245.432038 274.122003 
L 246.097039 290.380375 
L 246.762041 347.103944 
L 247.427042 350.873511 
L 248.092043 295.9489 
L 248.757045 265.587455 
L 250.087048 355.261872 
L 250.752049 322.428361 
L 251.41705 265.657965 
L 252.082052 280.85141 
L 252.747053 342.200089 
L 253.412054 340.080814 
L 254.077056 278.399775 
L 254.742057 260.613435 
L 255.407058 321.683736 
L 256.07206 347.119062 
L 256.737061 293.151174 
L 257.402063 251.517673 
L 258.732065 346.560116 
L 259.397067 304.895519 
L 260.062068 249.030623 
L 260.727069 284.505771 
L 261.392071 342.086799 
L 262.057072 312.386148 
L 262.722073 249.095986 
L 263.387075 272.202086 
L 264.052076 336.503727 
L 264.717078 316.051287 
L 265.382079 249.196865 
L 266.04708 263.786961 
L 266.712082 331.468545 
L 267.377083 316.722077 
L 268.042084 248.174573 
L 268.707086 258.309582 
L 269.372087 327.664795 
L 270.037088 315.150588 
L 270.70209 245.710019 
L 271.367091 255.116837 
L 272.032093 325.158805 
L 272.697094 311.857398 
L 273.362095 241.971962 
L 274.027097 253.6908 
L 274.692098 323.650045 
L 275.357099 307.194258 
L 276.022101 237.362354 
L 276.687102 253.640731 
L 277.352103 322.67898 
L 278.017105 301.445108 
L 278.682106 232.37211 
L 279.347108 254.607108 
L 280.012109 321.771317 
L 280.67711 294.923281 
L 281.342112 227.45534 
L 282.007113 256.219239 
L 282.672114 320.547245 
L 283.337116 288.029182 
L 284.002117 222.938477 
L 284.667118 257.918372 
L 285.33212 318.785678 
L 285.997121 281.232144 
L 286.662123 218.990606 
L 287.327124 259.102234 
L 287.992125 316.448534 
L 288.657127 275.063325 
L 289.322128 215.581334 
L 289.987129 259.112246 
L 290.652131 313.630525 
L 291.317132 270.072186 
L 291.982133 212.569418 
L 292.647135 257.468242 
L 293.312136 310.471038 
L 293.977138 266.779127 
L 294.642139 209.846132 
L 295.30714 253.525221 
L 295.972142 306.995346 
L 296.637143 265.68282 
L 297.302144 207.514878 
L 297.967146 246.76402 
L 298.632147 302.889166 
L 299.297149 267.196461 
L 299.96215 206.172228 
L 300.627151 236.716752 
L 301.292153 297.25194 
L 301.957154 271.469389 
L 302.622155 207.139656 
L 303.287157 223.456963 
L 303.952158 288.32408 
L 304.617159 277.942548 
L 305.282161 212.468681 
L 305.947162 208.271343 
L 306.612164 273.474974 
L 307.277165 284.489478 
L 307.942166 224.345928 
L 308.607168 195.113877 
L 309.272169 250.161249 
L 309.93717 286.324631 
L 310.602172 243.139779 
L 311.267173 191.276174 
L 311.932174 219.175626 
L 312.597176 275.616412 
L 313.262177 264.086467 
L 313.927179 204.518387 
L 314.59218 190.397261 
L 315.257181 244.985873 
L 315.922183 274.151118 
L 316.587184 234.274687 
L 317.252185 184.26837 
L 317.917187 200.207813 
L 318.582188 254.509847 
L 319.247189 261.412416 
L 319.912191 213.081722 
L 320.577192 175.505956 
L 321.242194 202.295181 
L 321.907195 250.379591 
L 322.572196 250.328219 
L 323.237198 203.893583 
L 323.902199 169.003946 
L 324.5672 190.563191 
L 325.232202 235.635936 
L 325.897203 243.71 
L 327.227206 165.825904 
L 327.892207 166.992943 
L 328.557209 205.237928 
L 329.22221 231.59948 
L 329.887211 217.58776 
L 330.552213 177.702077 
L 331.217214 149.318731 
L 331.882215 158.024358 
L 332.547217 190.054699 
L 333.212218 210.130299 
L 333.877219 199.852091 
L 335.207222 137.47769 
L 335.872224 129.410748 
L 336.537225 144.604443 
L 337.202226 165.542339 
L 337.867228 173.784479 
L 338.532229 162.986722 
L 339.862232 113.127668 
L 340.527233 95.892006 
L 341.192235 90.777555 
L 341.857236 93.887842 
L 342.522237 97.854882 
L 343.187239 96.875864 
L 343.85224 89.210938 
L 345.847244 54.119158 
L 346.512245 50.741352 
L 347.177247 54.531501 
L 347.842248 64.227171 
L 349.172251 88.051298 
L 349.837252 94.585189 
L 350.502254 95.039702 
L 351.167255 91.777402 
L 351.832256 90.672823 
L 352.497258 98.24992 
L 353.162259 116.955133 
L 354.492262 163.552833 
L 355.157263 170.925143 
L 355.822265 160.56132 
L 356.487266 140.725257 
L 357.152267 129.711511 
L 357.817269 141.883944 
L 359.147271 201.374572 
L 359.812273 206.648783 
L 360.477274 184.106012 
L 361.142275 155.137545 
L 361.807277 152.525695 
L 362.472278 183.577632 
L 363.13728 220.192703 
L 363.802281 228.128973 
L 365.132284 165.003063 
L 365.797285 170.670025 
L 366.462286 212.269345 
L 367.127288 243.569292 
L 367.792289 229.455104 
L 368.45729 185.827019 
L 369.122292 172.311491 
L 370.452295 251.551922 
L 371.117296 244.266469 
L 371.782297 196.82167 
L 372.447299 179.009155 
L 373.777301 261.974424 
L 374.442303 247.331115 
L 375.107304 195.689753 
L 375.772305 189.845632 
L 376.437307 240.855764 
L 377.102308 271.907923 
L 377.76731 236.591488 
L 378.432311 189.541715 
L 379.097312 212.599999 
L 379.762314 267.819272 
L 380.427315 268.948595 
L 381.092316 212.426452 
L 381.757318 196.562857 
L 382.422319 250.833815 
L 383.087321 283.86056 
L 384.417323 195.739339 
L 385.082325 233.389835 
L 385.747326 286.17491 
L 386.412327 264.595346 
L 387.077329 204.699426 
L 387.74233 220.973406 
L 388.407331 282.669817 
L 389.072333 280.986951 
L 389.737334 217.110704 
L 390.402336 214.317286 
L 391.067337 278.05893 
L 391.732338 291.515989 
L 392.39734 228.863242 
L 393.062341 212.127562 
L 393.727342 274.807547 
L 394.392344 298.245372 
L 395.057345 238.139022 
L 395.722346 212.672606 
L 396.387348 273.829784 
L 397.052349 302.898093 
L 397.717351 244.508052 
L 398.382352 214.755651 
L 399.047353 275.22269 
L 399.712355 306.414731 
L 400.377356 248.204662 
L 401.042357 217.679719 
L 401.707359 278.682311 
L 402.37236 309.241412 
L 403.037361 249.733795 
L 403.702363 221.209346 
L 404.367364 283.716708 
L 405.032366 311.497829 
L 405.697367 249.698105 
L 406.362368 225.304451 
L 407.02737 289.765998 
L 407.692371 313.169655 
L 408.357372 248.776111 
L 409.022374 229.962784 
L 409.687375 296.257668 
L 410.352376 314.272722 
L 411.017378 247.573297 
L 411.682379 235.103029 
L 412.347381 302.662524 
L 413.012382 314.924317 
L 413.677383 246.66426 
L 414.342385 240.503339 
L 415.007386 308.544826 
L 415.672387 315.405062 
L 416.337389 246.492719 
L 417.00239 245.829825 
L 417.667391 313.597364 
L 418.332393 316.056358 
L 418.997394 247.34959 
L 419.662396 250.63015 
L 420.327397 317.637785 
L 420.992398 317.364035 
L 421.6574 249.410907 
L 422.322401 254.428708 
L 422.987402 320.545762 
L 423.652404 319.866081 
L 424.317405 252.849421 
L 424.982406 256.824261 
L 425.647408 322.13453 
L 426.312409 323.894644 
L 426.977411 258.010089 
L 427.642412 257.532179 
L 428.307413 321.987093 
L 428.972415 329.588653 
L 429.637416 265.588495 
L 430.302417 256.602578 
L 430.967419 319.312407 
L 431.63242 336.530491 
L 432.297422 276.706405 
L 432.962423 254.850513 
L 433.627424 312.965523 
L 434.292426 343.272851 
L 434.957427 292.562218 
L 435.622428 254.540696 
L 436.952431 346.897791 
L 437.617432 313.250632 
L 438.282434 259.963451 
L 438.947435 286.732356 
L 439.612437 343.164165 
L 440.277438 335.749956 
L 440.942439 276.578142 
L 441.607441 271.761846 
L 442.272442 328.215147 
L 442.937443 352.31624 
L 444.267446 267.621456 
L 444.932447 302.832869 
L 445.597449 352.160255 
L 446.26245 341.637271 
L 446.927452 287.63596 
L 447.592453 279.31056 
L 448.257454 328.769276 
L 448.922456 360.537375 
L 449.587457 330.740194 
L 450.252458 283.905454 
L 450.91746 293.844085 
L 451.582461 343.544757 
L 452.247462 364.250705 
L 452.912464 329.863265 
L 453.577465 289.021363 
L 454.242467 301.868441 
L 454.907468 348.559531 
L 455.572469 369.845695 
L 456.237471 341.557702 
L 456.902472 300.603991 
L 457.567473 302.460497 
L 458.232475 343.278273 
L 458.897476 374.557825 
L 459.562477 364.107695 
L 460.227479 325.167154 
L 460.89248 304.853438 
L 461.557482 326.990234 
L 462.222483 365.786883 
L 462.887484 383.750726 
L 463.552486 366.456426 
L 464.217487 332.847827 
L 464.882488 318.615273 
L 465.54749 337.859806 
L 466.212491 371.580676 
L 466.877492 392.52899 
L 467.542494 387.11133 
L 468.872497 340.902429 
L 469.537498 341.005613 
L 470.202499 362.250971 
L 470.867501 389.432469 
L 471.532502 406.904222 
L 472.197503 407.406953 
L 472.862505 394.027535 
L 473.527506 377.360364 
L 474.192508 368.838879 
L 474.857509 373.81451 
L 475.52251 389.688317 
L 476.852513 426.43344 
L 477.517514 436.720537 
L 478.182516 439.822627 
L 478.847517 437.755801 
L 479.512518 433.676554 
L 480.17752 430.492041 
L 480.842521 429.933604 
L 481.507523 432.320842 
L 482.172524 436.900323 
L 483.502527 447.657971 
L 484.167528 451.69439 
L 484.832529 454.059327 
L 485.497531 454.697915 
L 486.162532 453.886124 
L 486.827533 452.104935 
L 489.487539 443.089496 
L 490.15254 439.845033 
L 490.817542 434.915983 
L 491.482543 427.722442 
L 493.477547 398.704541 
L 494.142548 392.796346 
L 494.80755 391.670578 
L 495.472551 394.525354 
L 496.137553 398.167776 
L 496.802554 398.402925 
L 497.467555 392.445516 
L 498.797558 368.513203 
L 499.462559 361.3892 
L 500.127561 363.350432 
L 500.792562 371.707536 
L 501.457563 378.270056 
L 502.122565 375.533259 
L 502.787566 362.906558 
L 503.452568 348.122385 
L 504.117569 342.162511 
L 504.78257 349.458816 
L 505.447572 361.833852 
L 506.112573 365.432146 
L 506.777574 354.392193 
L 507.442576 337.01348 
L 508.107577 329.222625 
L 508.772578 338.444501 
L 509.43758 353.086028 
L 510.102581 354.771114 
L 511.432584 322.373459 
L 512.097585 322.540436 
L 512.762587 338.761942 
L 513.427588 348.759704 
L 514.092589 337.993212 
L 514.757591 317.970473 
L 515.422592 313.307965 
L 516.087594 329.543607 
L 516.752595 342.490916 
L 517.417596 332.364001 
L 518.082598 311.085115 
L 518.747599 307.383382 
L 519.4126 326.039253 
L 520.077602 337.519069 
L 520.742603 322.964691 
L 521.407604 301.889054 
L 522.072606 305.327056 
L 522.737607 327.13152 
L 523.402609 331.049542 
L 524.06761 309.184221 
L 524.732611 294.093641 
L 525.397613 309.709827 
L 526.062614 328.801521 
L 526.727615 318.214082 
L 527.392617 293.50149 
L 528.057618 294.694306 
L 528.722619 318.963504 
L 529.387621 322.603864 
L 530.052622 298.011281 
L 530.717624 285.829809 
L 531.382625 306.907091 
L 532.047626 321.718994 
L 533.377629 281.894728 
L 534.04263 296.256478 
L 534.707632 317.661082 
L 535.372633 305.218574 
L 536.037634 280.253306 
L 536.702636 288.059137 
L 537.367637 312.621227 
L 538.032639 305.744416 
L 538.69764 278.994912 
L 539.362641 281.898753 
L 540.027643 307.876318 
L 540.692644 304.840956 
L 541.357645 277.268802 
L 542.022647 277.070763 
L 542.687648 303.862298 
L 543.352649 303.070577 
L 544.017651 274.887577 
L 544.682652 273.095445 
L 545.347654 300.575424 
L 546.012655 300.712652 
L 546.677656 271.928692 
L 547.342658 269.768729 
L 548.007659 297.862531 
L 548.67266 297.836783 
L 549.337662 268.533323 
L 550.002663 267.041125 
L 550.667664 295.544594 
L 551.332666 294.432157 
L 551.997667 264.845886 
L 552.662669 264.893984 
L 553.32767 293.448502 
L 553.992671 290.505269 
L 554.657673 261.005195 
L 555.322674 263.260985 
L 555.987675 291.415354 
L 556.652677 286.131597 
L 557.317678 257.136806 
L 557.982679 261.993434 
L 558.647681 289.313199 
L 559.312682 281.470272 
L 559.977684 253.335813 
L 560.642685 260.859147 
L 561.307686 287.052188 
L 561.972688 276.754069 
L 562.637689 249.652252 
L 563.30269 259.556468 
L 563.967692 284.588754 
L 564.632693 272.262466 
L 565.297695 246.093529 
L 565.962696 257.754494 
L 566.627697 281.901624 
L 567.292699 268.289102 
L 567.9577 242.659195 
L 568.622701 255.120113 
L 569.287703 278.943005 
L 569.952704 265.108382 
L 570.617705 239.405714 
L 571.282707 251.352885 
L 571.947708 275.563347 
L 572.61271 262.927935 
L 573.277711 236.529175 
L 573.942712 246.246234 
L 574.607714 271.427959 
L 575.272715 261.810461 
L 575.937716 234.43682 
L 576.602718 239.798568 
L 577.267719 265.959135 
L 577.93272 261.533865 
L 578.597722 233.7511 
L 579.262723 232.413114 
L 579.927725 258.369843 
L 580.592726 261.372746 
L 581.257727 235.152925 
L 581.922729 225.176088 
L 582.58773 247.9181 
L 583.252731 259.83615 
L 584.582734 220.070318 
L 585.247735 234.58939 
L 585.912737 254.543926 
L 586.577738 244.124351 
L 587.24274 219.686511 
L 587.907741 220.36557 
L 588.572742 242.820847 
L 589.237744 247.317185 
L 589.902745 225.577054 
L 590.567746 210.482616 
L 591.232748 224.247582 
L 591.897749 242.197105 
L 592.56275 234.631252 
L 593.227752 211.693927 
L 593.892753 205.742218 
L 594.557755 223.43503 
L 595.222756 235.671732 
L 595.887757 223.316823 
L 596.552759 202.024087 
L 597.21776 199.092069 
L 597.882761 215.951818 
L 598.547763 226.712764 
L 599.212764 215.61006 
L 599.877765 195.051165 
L 600.542767 188.376635 
L 601.87277 214.193708 
L 602.537771 210.196664 
L 603.202772 191.978379 
L 603.867774 177.237802 
L 604.532775 178.983923 
L 605.197776 191.653564 
L 605.862778 198.75839 
L 606.527779 191.213454 
L 607.192781 174.259112 
L 607.857782 160.678904 
L 608.522783 159.029813 
L 609.852786 172.785097 
L 610.517787 170.034947 
L 611.182789 158.059649 
L 611.84779 142.770357 
L 612.512791 131.096499 
L 613.177793 126.291787 
L 613.842794 126.46037 
L 614.507796 126.830241 
L 615.172797 123.33195 
L 615.837798 114.659372 
L 618.497804 65.906384 
L 619.162805 58.588097 
L 619.827806 53.472599 
L 620.492808 50.199542 
L 621.157809 49.041477 
L 621.822811 50.957228 
L 622.487812 57.131821 
L 623.152813 68.144911 
L 625.147817 112.927906 
L 625.812819 120.071736 
L 626.47782 119.504247 
L 627.142821 114.156049 
L 627.807823 110.998536 
L 628.472824 117.361855 
L 629.137826 135.201292 
L 629.802827 158.236982 
L 630.467828 175.110861 
L 631.13283 176.556677 
L 632.462832 146.856369 
L 633.127834 146.293388 
L 633.792835 166.697585 
L 634.457836 194.311744 
L 635.122838 207.701824 
L 635.787839 195.884911 
L 636.452841 170.927443 
L 637.117842 161.655629 
L 637.782843 182.443324 
L 638.447845 214.41443 
L 639.112846 226.127397 
L 639.777847 205.429476 
L 640.442849 176.636427 
L 641.10785 178.404512 
L 641.772851 211.938358 
L 642.437853 238.779118 
L 643.102854 227.7043 
L 643.767856 192.38319 
L 644.432857 182.834067 
L 645.76286 247.879423 
L 646.427861 238.321134 
L 647.092862 199.495361 
L 647.757864 190.685988 
L 648.422865 227.703013 
L 649.087867 257.737136 
L 649.752868 238.498482 
L 650.417869 198.582876 
L 651.082871 204.109694 
L 651.747872 247.754933 
L 652.412873 263.268735 
L 653.077875 226.815413 
L 653.742876 198.568197 
L 654.407877 228.959431 
L 655.072879 268.047846 
L 655.73788 253.714974 
L 656.402882 209.403647 
L 657.067883 215.248623 
L 657.732884 261.924953 
L 658.397886 270.960414 
L 659.062887 226.724537 
L 659.727888 209.925599 
L 660.39289 253.214859 
L 661.057891 279.890983 
L 662.387894 210.809444 
L 663.717897 284.103082 
L 664.382898 257.123556 
L 665.047899 214.80761 
L 665.712901 241.447151 
L 666.377902 286.379491 
L 667.042903 267.441052 
L 667.707905 219.699674 
L 668.372906 239.450393 
L 669.037907 288.279757 
L 669.702909 274.989286 
L 670.36791 224.298231 
L 671.032912 239.600128 
L 671.697913 290.543426 
L 672.362914 280.306082 
L 673.027916 228.125322 
L 673.692917 241.540218 
L 674.357918 293.408191 
L 675.02292 283.78856 
L 675.687921 231.106266 
L 676.352922 244.995297 
L 677.017924 296.847131 
L 677.682925 285.716872 
L 678.347927 233.40055 
L 679.012928 249.715436 
L 679.677929 300.689235 
L 680.342931 286.384389 
L 681.007932 235.276194 
L 681.672933 255.415151 
L 682.337935 304.707366 
L 683.002936 286.132846 
L 683.667937 237.026056 
L 684.332939 261.73269 
L 684.99794 308.689738 
L 685.662942 285.377883 
L 686.327943 238.88475 
L 686.992944 268.225392 
L 687.657946 312.488614 
L 688.322947 284.633821 
L 688.987948 240.980261 
L 689.65295 274.399498 
L 690.317951 316.045239 
L 690.982952 284.447351 
L 691.647954 243.337655 
L 692.977957 319.364288 
L 694.307959 245.930461 
L 695.637962 322.454337 
L 696.967965 248.76318 
L 698.297968 325.259758 
L 698.962969 292.099685 
L 699.62797 251.973779 
L 700.957973 327.579025 
L 701.622974 298.457808 
L 702.287976 255.921235 
L 702.952977 285.670217 
L 703.617978 328.996101 
L 704.28298 306.851945 
L 704.947981 261.271304 
L 705.612983 282.476466 
L 706.277984 328.785686 
L 706.942985 317.018121 
L 707.607987 269.162189 
L 708.272988 277.810743 
L 708.937989 325.7895 
L 709.602991 328.070017 
L 710.267992 281.196576 
L 710.932993 272.991466 
L 711.597995 318.425885 
L 712.262996 337.7948 
L 712.927998 298.986668 
L 713.592999 271.438161 
L 714.923002 341.787884 
L 715.588003 321.844286 
L 716.253004 279.498477 
L 716.918006 289.592428 
L 717.583007 334.235726 
L 718.248008 342.955364 
L 718.91301 303.017179 
L 719.578011 280.652756 
L 720.908014 348.887953 
L 721.573015 336.20511 
L 722.238017 295.179443 
L 722.903018 291.345201 
L 723.568019 330.0505 
L 724.233021 355.126167 
L 724.898022 333.718066 
L 725.563023 297.481165 
L 726.228025 301.000342 
L 726.893026 338.33753 
L 727.558028 359.788333 
L 728.223029 339.936912 
L 728.88803 306.449529 
L 729.553032 306.214139 
L 730.218033 338.961167 
L 730.883034 364.278874 
L 731.548036 354.7165 
L 732.213037 323.463627 
L 732.878038 310.4165 
L 733.54304 331.75339 
L 734.208041 362.723768 
L 734.873043 372.217965 
L 735.538044 352.892753 
L 736.203045 327.036962 
L 736.868047 323.872088 
L 737.533048 346.755736 
L 738.198049 373.74167 
L 738.863051 382.766834 
L 739.528052 368.810166 
L 740.193054 346.424971 
L 740.858055 337.16427 
L 741.523056 349.56283 
L 742.188058 373.602647 
L 742.853059 392.784294 
L 743.51806 396.656384 
L 744.183062 385.806098 
L 744.848063 370.206983 
L 745.513064 362.096249 
L 746.178066 367.505764 
L 748.17307 415.795404 
L 748.838071 421.369965 
L 749.503073 419.445043 
L 750.833075 408.780374 
L 751.498077 407.922579 
L 752.163078 412.229323 
L 752.828079 420.730402 
L 754.823084 451.709197 
L 755.488085 459.092676 
L 756.153086 464.228266 
L 756.818088 467.235137 
L 757.483089 468.271023 
L 758.14809 467.352107 
L 758.813092 464.319783 
L 759.478093 458.948225 
L 760.143094 451.163271 
L 762.8031 413.216797 
L 763.468101 411.326419 
L 764.133103 415.44013 
L 765.463105 432.92743 
L 766.128107 436.758862 
L 766.793108 430.916422 
L 767.458109 414.032263 
L 768.788112 366.286844 
L 769.453114 355.088503 
L 770.118115 362.938971 
L 771.448118 406.840161 
L 772.113119 411.395627 
L 772.77812 392.770177 
L 774.108123 330.293387 
L 774.773124 328.765739 
L 775.438126 357.161901 
L 776.103127 390.380787 
L 776.768129 398.245319 
L 777.43313 371.743198 
L 778.098131 329.093683 
L 778.763133 306.328829 
L 779.428134 327.823922 
L 780.093135 371.67845 
L 780.758137 390.515267 
L 781.423138 364.234819 
L 782.08814 315.508158 
L 782.753141 293.573554 
L 783.418142 326.326839 
L 784.083144 373.83516 
L 784.748145 378.353363 
L 786.078148 287.793595 
L 786.743149 298.357037 
L 787.40815 353.394362 
L 788.073152 377.28709 
L 788.738153 339.668146 
L 789.403155 284.670945 
L 790.068156 285.920731 
L 790.733157 344.526428 
L 791.398159 373.056779 
L 792.06316 332.436004 
L 792.728161 274.885463 
L 793.393163 284.342903 
L 794.058164 348.849936 
L 794.723165 366.510067 
L 796.053168 261.922467 
L 796.71817 297.127961 
L 797.383171 360.429025 
L 798.048172 349.162104 
L 798.713174 280.658404 
L 799.378175 260.243821 
L 800.043176 326.564276 
L 800.708178 363.173995 
L 802.03818 252.287487 
L 802.703182 288.340247 
L 802.703182 288.340247 
" clip-path="url(#pebda80f6e3)" style="fill: none; stroke: #1f77b4; stroke-width: 3; stroke-linecap: square"/>
   </g>
   <g id="line2d_35">
    <path d="M 138.366818 267.51378 
L 139.03182 274.818817 
L 139.696821 287.331697 
L 140.361822 281.163924 
L 141.026824 270.274987 
L 141.691825 278.477608 
L 142.356826 290.405112 
L 143.021828 283.488861 
L 143.686829 273.145986 
L 144.35183 281.919886 
L 145.016832 293.398824 
L 145.681833 286.108131 
L 146.346835 276.118322 
L 147.011836 285.0504 
L 147.676837 296.347482 
L 148.341839 289.157295 
L 149.00684 279.197676 
L 149.671841 287.786662 
L 150.336843 299.255445 
L 151.001844 292.735034 
L 151.666845 282.440563 
L 152.331847 290.060401 
L 152.996848 302.051622 
L 153.66185 296.917451 
L 154.326851 286.010614 
L 154.991852 291.845296 
L 155.656854 304.54685 
L 156.321855 301.735322 
L 156.986856 290.215689 
L 157.651858 293.23287 
L 158.316859 306.414498 
L 158.98186 306.999347 
L 159.646862 295.492172 
L 160.311863 294.581307 
L 160.976865 307.24207 
L 161.641866 312.181886 
L 162.306867 302.266966 
L 162.971869 296.72582 
L 164.301871 316.233861 
L 164.966873 310.499902 
L 165.631874 301.058372 
L 166.296876 305.631049 
L 166.961877 317.75927 
L 167.626878 318.940818 
L 168.29188 308.96036 
L 168.956881 305.860376 
L 170.286884 324.693264 
L 170.951885 319.98669 
L 171.616886 311.046148 
L 172.281888 313.390919 
L 172.946889 324.742575 
L 173.611891 329.706793 
L 174.941893 316.014739 
L 175.606895 320.711514 
L 176.271896 331.584193 
L 176.936897 335.240813 
L 178.2669 322.60583 
L 178.931901 326.831951 
L 179.596903 337.153019 
L 180.261904 342.14243 
L 180.926906 337.623835 
L 181.591907 331.149489 
L 182.256908 332.352171 
L 183.586911 349.169224 
L 184.251912 349.327682 
L 184.916914 343.688678 
L 185.581915 340.333555 
L 186.246916 344.480837 
L 186.911918 353.365798 
L 187.576919 360.018249 
L 188.241921 360.283224 
L 188.906922 356.180867 
L 189.571923 353.527916 
L 190.236925 356.442205 
L 191.566927 371.81362 
L 192.231929 375.921521 
L 192.89693 375.627236 
L 193.561931 373.470112 
L 194.226933 373.047367 
L 194.891934 376.438581 
L 196.886938 397.261202 
L 197.55194 401.228545 
L 198.216941 403.105801 
L 198.881942 404.242173 
L 199.546944 406.137067 
L 200.211945 409.735285 
L 200.876946 415.163263 
L 204.201953 447.962712 
L 204.866955 452.484566 
L 205.531956 456.080854 
L 206.196957 458.687058 
L 206.861959 460.122839 
L 207.52696 460.109085 
L 208.191962 458.344825 
L 208.856963 454.630906 
L 209.521964 449.021544 
L 211.516968 427.848068 
L 212.18197 423.776135 
L 212.846971 423.429093 
L 213.511972 426.867027 
L 214.176974 432.447701 
L 214.841975 436.91849 
L 215.506977 436.391297 
L 216.171978 427.958876 
L 216.836979 411.388579 
L 218.166982 371.771655 
L 218.831983 364.23873 
L 219.496985 371.867307 
L 220.826987 406.148306 
L 221.491989 408.001397 
L 222.15699 391.046023 
L 222.821992 362.262212 
L 223.486993 338.383651 
L 224.151994 336.782931 
L 224.816996 359.466768 
L 225.481997 386.666602 
L 226.146998 393.72622 
L 226.812 372.20831 
L 227.477001 336.344499 
L 228.142002 315.49772 
L 228.807004 330.64664 
L 229.472005 366.642922 
L 230.137007 384.869053 
L 230.802008 365.42795 
L 231.467009 324.37493 
L 232.132011 302.03531 
L 232.797012 325.074691 
L 233.462013 366.095931 
L 234.127015 375.137715 
L 234.792016 340.569329 
L 235.457017 298.512223 
L 236.122019 299.979839 
L 236.78702 344.697246 
L 237.452022 371.689867 
L 238.117023 345.775681 
L 238.782024 296.799652 
L 239.447026 288.022631 
L 240.112027 334.075648 
L 240.777028 366.775086 
L 241.44203 340.137357 
L 242.107031 288.085926 
L 242.772032 283.834785 
L 243.437034 336.077356 
L 244.102035 362.270869 
L 244.767037 323.700141 
L 245.432038 273.975129 
L 246.097039 290.403916 
L 246.762041 347.271572 
L 247.427042 350.985326 
L 248.092043 295.883796 
L 248.757045 265.420024 
L 250.087048 355.406888 
L 250.752049 322.571493 
L 251.41705 265.620127 
L 252.082052 280.674676 
L 252.747053 342.145585 
L 253.412054 340.212142 
L 254.077056 278.548697 
L 254.742057 260.560582 
L 255.407058 321.5021 
L 256.07206 347.06996 
L 256.737061 293.290386 
L 257.402063 251.649474 
L 258.732065 346.385988 
L 259.397067 304.879046 
L 260.062068 249.198279 
L 260.727069 284.586236 
L 261.392071 341.948646 
L 262.057072 312.235156 
L 262.722073 249.151791 
L 263.387075 272.383995 
L 264.052076 336.505917 
L 264.717078 315.882549 
L 265.382079 249.107791 
L 266.04708 263.93935 
L 266.712082 331.603486 
L 267.377083 316.641027 
L 268.042084 248.003906 
L 268.707086 258.346132 
L 269.372087 327.851395 
L 270.037088 315.195781 
L 270.70209 245.550774 
L 271.367091 255.02657 
L 272.032093 325.305474 
L 272.697094 312.001777 
L 273.362095 241.894425 
L 274.027097 253.519172 
L 274.692098 323.697382 
L 275.357099 307.374584 
L 276.022101 237.393022 
L 276.687102 253.45623 
L 277.352103 322.61358 
L 278.017105 301.593737 
L 278.682106 232.496235 
L 279.347108 254.473813 
L 280.012109 321.61981 
L 280.67711 294.990552 
L 281.342112 227.630247 
L 282.007113 256.179443 
L 282.672114 320.361422 
L 283.337116 287.994816 
L 284.002117 223.109198 
L 284.667118 257.984203 
L 285.33212 318.625552 
L 285.997121 281.107815 
L 286.662123 219.104207 
L 287.327124 259.253992 
L 287.992125 316.366075 
L 288.657127 274.888937 
L 289.322128 215.600175 
L 289.987129 259.301908 
L 290.652131 313.654936 
L 291.317132 269.90655 
L 291.982133 212.483802 
L 292.647135 257.629621 
L 293.312136 310.59677 
L 293.977138 266.684492 
L 294.642139 209.684082 
L 295.30714 253.593464 
L 295.972142 307.176053 
L 296.637143 265.701981 
L 297.302144 207.343299 
L 297.967146 246.703873 
L 298.632147 303.045054 
L 299.297149 267.326437 
L 299.96215 206.07809 
L 300.627151 236.553087 
L 301.292153 297.298772 
L 301.957154 271.644721 
L 302.622155 207.183801 
L 303.287157 223.286948 
L 303.952158 288.225474 
L 304.617159 278.052139 
L 305.282161 212.626261 
L 305.947162 208.222676 
L 306.612164 273.29579 
L 307.277165 284.445253 
L 307.942166 224.487989 
L 308.607168 195.234097 
L 309.272169 250.061305 
L 309.93717 286.158999 
L 310.602172 243.123587 
L 311.267173 191.433062 
L 311.932174 219.270769 
L 312.597176 275.509141 
L 313.262177 263.926771 
L 313.927179 204.504655 
L 314.59218 190.556675 
L 315.257181 245.088811 
L 315.922183 274.067961 
L 316.587184 234.1132 
L 317.252185 184.225421 
L 317.917187 200.35004 
L 318.582188 254.6478 
L 319.247189 261.39041 
L 319.912191 212.932097 
L 320.577192 175.400816 
L 321.242194 202.372132 
L 321.907195 250.543651 
L 322.572196 250.407011 
L 323.237198 203.816811 
L 323.902199 168.850091 
L 324.5672 190.506649 
L 325.232202 235.735872 
L 325.897203 243.863673 
L 327.227206 165.758303 
L 327.892207 166.844262 
L 328.557209 205.15192 
L 329.22221 231.643684 
L 329.887211 217.720292 
L 330.552213 177.827377 
L 331.217214 149.344369 
L 331.882215 157.931813 
L 332.547217 189.918478 
L 333.212218 210.040897 
L 333.877219 199.854623 
L 335.207222 137.603405 
L 335.872224 129.506798 
L 336.537225 144.625519 
L 337.202226 165.488307 
L 337.867228 173.685585 
L 338.532229 162.880372 
L 339.862232 113.092086 
L 340.527233 95.907986 
L 341.192235 90.835814 
L 341.857236 93.971588 
L 342.522237 97.948757 
L 343.187239 96.970284 
L 343.85224 89.301688 
L 345.847244 54.197905 
L 346.512245 50.816531 
L 347.177247 54.600906 
L 347.842248 64.285666 
L 349.172251 88.057364 
L 349.837252 94.541761 
L 350.502254 94.929125 
L 351.167255 91.589612 
L 351.832256 90.419443 
L 352.497258 97.975356 
L 353.162259 116.730258 
L 354.492262 163.617068 
L 355.157263 171.156653 
L 355.822265 160.899031 
L 356.487266 141.039922 
L 357.152267 129.845882 
L 357.817269 141.756332 
L 359.147271 201.020185 
L 359.812273 206.460419 
L 360.477274 184.215366 
L 361.142275 155.495564 
L 361.807277 152.869722 
L 362.472278 183.644241 
L 363.13728 219.932307 
L 363.802281 227.715132 
L 365.132284 165.150621 
L 365.797285 171.080014 
L 366.462286 212.55433 
L 367.127288 243.477153 
L 367.792289 229.042079 
L 368.45729 185.483174 
L 369.122292 172.417718 
L 370.452295 251.860432 
L 371.117296 244.138214 
L 371.782297 196.366218 
L 372.447299 178.781336 
L 373.777301 262.430917 
L 374.442303 247.476651 
L 375.107304 195.323144 
L 375.772305 189.462945 
L 376.437307 240.955158 
L 377.102308 272.373865 
L 377.76731 236.876336 
L 378.432311 189.246718 
L 379.097312 212.168844 
L 379.762314 267.835403 
L 380.427315 269.412439 
L 381.092316 212.73208 
L 381.757318 196.254307 
L 382.422319 250.395956 
L 383.087321 283.887886 
L 384.417323 195.954592 
L 385.082325 233.008453 
L 385.747326 285.764492 
L 386.412327 264.733946 
L 387.077329 205.199353 
L 387.74233 221.009021 
L 388.407331 282.205783 
L 389.072333 280.674124 
L 389.737334 217.445396 
L 390.402336 214.723154 
L 391.067337 277.881155 
L 391.732338 291.001581 
L 392.39734 228.798362 
L 393.062341 212.613704 
L 393.727342 275.008391 
L 394.392344 297.845536 
L 395.057345 237.732035 
L 395.722346 212.961325 
L 396.387348 274.284961 
L 397.052349 302.806076 
L 397.717351 243.978448 
L 398.382352 214.719803 
L 399.047353 275.715454 
L 399.712355 306.65532 
L 400.377356 247.784333 
L 401.042357 217.350194 
L 401.707359 279.016065 
L 402.37236 309.708728 
L 403.037361 249.57627 
L 403.702363 220.718808 
L 404.367364 283.777036 
L 405.032366 312.02128 
L 405.697367 249.848377 
L 406.362368 224.821199 
L 407.02737 289.538532 
L 407.692371 313.575372 
L 408.357372 249.179135 
L 409.022374 229.638814 
L 409.687375 295.817959 
L 410.352376 314.430641 
L 411.017378 248.101184 
L 411.682379 235.038545 
L 412.347381 302.150748 
L 413.012382 314.780462 
L 413.677383 247.151967 
L 414.342385 240.722527 
L 415.007386 308.129338 
L 415.672387 314.999039 
L 416.337389 246.779721 
L 417.00239 246.267003 
L 417.667391 313.427525 
L 418.332393 315.524996 
L 418.997394 247.327655 
L 419.662396 251.133954 
L 420.327397 317.789075 
L 420.992398 316.910204 
L 421.6574 249.074621 
L 422.322401 254.794702 
L 422.987402 320.969109 
L 423.652404 319.694229 
L 424.317405 252.334073 
L 424.982406 256.87165 
L 425.647408 322.637619 
L 426.312409 324.107033 
L 426.977411 257.577996 
L 427.642412 257.215955 
L 428.307413 322.290601 
L 428.972415 330.080443 
L 429.637416 265.516511 
L 430.302417 256.106436 
L 430.967419 319.206402 
L 431.63242 336.976431 
L 432.297422 277.072659 
L 432.962423 254.549484 
L 433.627424 312.512861 
L 434.292426 343.311341 
L 434.957427 293.069958 
L 435.622428 254.729361 
L 436.952431 346.482053 
L 437.617432 313.379022 
L 438.282434 260.459951 
L 438.947435 286.830023 
L 439.612437 342.749865 
L 440.277438 335.336236 
L 440.942439 276.731715 
L 441.607441 272.239338 
L 442.272442 328.343536 
L 442.937443 351.938233 
L 444.267446 267.715942 
L 444.932447 303.299894 
L 445.597449 352.416071 
L 446.26245 341.382369 
L 446.927452 287.159045 
L 447.592453 279.235874 
L 448.257454 329.157048 
L 448.922456 360.95636 
L 449.587457 330.7437 
L 450.252458 283.4794 
L 450.91746 293.519459 
L 451.582461 343.667996 
L 452.247462 364.697133 
L 452.912464 330.209174 
L 453.577465 288.895585 
L 454.242467 301.434879 
L 454.907468 348.267062 
L 455.572469 369.949953 
L 456.237471 341.984429 
L 456.902472 300.957133 
L 457.567473 302.403101 
L 458.232475 342.895072 
L 458.897476 374.164455 
L 459.562477 363.999019 
L 460.227479 325.438197 
L 460.89248 305.271496 
L 461.557482 327.210981 
L 462.222483 365.669524 
L 462.887484 383.380599 
L 463.552486 366.059609 
L 464.217487 332.682763 
L 464.882488 318.785124 
L 465.54749 338.230528 
L 466.212491 371.9277 
L 466.877492 392.682553 
L 467.542494 387.004049 
L 468.872497 340.53845 
L 469.537498 340.769809 
L 470.202499 362.234251 
L 470.867501 389.621999 
L 471.532502 407.224281 
L 472.197503 407.757221 
L 472.862505 394.308741 
L 473.527506 377.498834 
L 474.192508 368.80843 
L 474.857509 373.639734 
L 475.52251 389.424837 
L 476.852513 426.163516 
L 477.517514 436.504541 
L 478.182516 439.676719 
L 478.847517 437.6831 
L 479.512518 433.671148 
L 480.17752 430.542893 
L 480.842521 430.027782 
L 481.507523 432.445792 
L 482.172524 437.045175 
L 483.502527 447.81861 
L 484.167528 451.854584 
L 484.832529 454.214932 
L 485.497531 454.844824 
L 486.162532 454.019377 
L 486.827533 452.217867 
L 489.487539 443.007655 
L 490.15254 439.681507 
L 490.817542 434.665182 
L 491.482543 427.390757 
L 493.477547 398.353332 
L 494.142548 392.569301 
L 494.80755 391.631959 
L 495.472551 394.705271 
L 496.137553 398.54203 
L 496.802554 398.888016 
L 497.467555 392.911798 
L 498.797558 368.531065 
L 499.462559 361.093784 
L 500.127561 362.844142 
L 500.792562 371.205524 
L 501.457563 378.003097 
L 502.122565 375.634661 
L 502.787566 363.34314 
L 503.452568 348.683124 
L 504.117569 342.530174 
L 504.78257 349.394354 
L 505.447572 361.363979 
L 506.112573 364.846017 
L 506.777574 354.060237 
L 507.442576 337.169915 
L 508.107577 329.779962 
L 508.772578 338.985581 
L 509.43758 353.184078 
L 510.102581 354.349792 
L 511.432584 322.065916 
L 512.097585 322.838208 
L 512.762587 339.407851 
L 513.427588 349.168641 
L 514.092589 337.802916 
L 514.757591 317.345467 
L 515.422592 312.861167 
L 516.087594 329.754216 
L 516.752595 343.144614 
L 517.417596 332.806061 
L 518.082598 310.856204 
L 518.747599 306.712044 
L 519.4126 325.694925 
L 520.077602 337.889616 
L 520.742603 323.638129 
L 521.407604 302.102009 
L 522.072606 304.796995 
L 522.737607 326.509361 
L 523.402609 331.082715 
L 524.06761 309.828745 
L 524.732611 294.552394 
L 525.397613 309.35863 
L 526.062614 328.100293 
L 526.727615 318.048907 
L 527.392617 294.088383 
L 528.057618 295.244256 
L 528.722619 318.695377 
L 529.387621 321.891119 
L 530.052622 297.802995 
L 530.717624 286.435747 
L 531.382625 307.448946 
L 532.047626 321.41916 
L 533.377629 281.793895 
L 534.04263 296.944325 
L 534.707632 318.09894 
L 535.372633 304.785552 
L 536.037634 279.584686 
L 536.702636 288.207433 
L 537.367637 313.362895 
L 538.032639 305.963399 
L 538.69764 278.366366 
L 539.362641 281.414449 
L 540.027643 308.332167 
L 540.692644 305.517598 
L 541.357645 277.129085 
L 542.022647 276.323225 
L 542.687648 303.750791 
L 543.352649 303.759879 
L 544.017651 275.292128 
L 544.682652 272.53077 
L 545.347654 299.989234 
L 546.012655 301.050725 
L 546.677656 272.640758 
L 547.342658 269.652068 
L 548.007659 297.103161 
L 548.67266 297.689231 
L 549.337662 269.225354 
L 550.002663 267.397874 
L 550.667664 294.931661 
L 551.332666 293.881412 
L 551.997667 265.253666 
L 552.662669 265.570272 
L 553.32767 293.199284 
L 553.992671 289.764485 
L 554.657673 260.998978 
L 555.322674 264.017831 
L 555.987675 291.601094 
L 556.652677 285.450836 
L 557.317678 256.729575 
L 557.982679 262.589736 
L 558.647681 289.865953 
L 559.312682 281.062769 
L 559.977684 252.658124 
L 560.642685 261.112456 
L 561.307686 287.797633 
L 561.972688 276.745924 
L 562.637689 248.91229 
L 563.30269 259.384992 
L 563.967692 285.292692 
L 564.632693 272.66124 
L 565.297695 245.527542 
L 565.962696 257.204285 
L 566.627697 282.328291 
L 567.292699 268.970305 
L 567.9577 242.468974 
L 568.622701 254.372611 
L 569.287703 278.927165 
L 569.952704 265.828755 
L 570.617705 239.681927 
L 571.282707 250.696192 
L 571.947708 275.09057 
L 572.61271 263.384831 
L 573.277711 237.175208 
L 573.942712 245.986193 
L 574.607714 270.695708 
L 575.272715 261.765111 
L 575.937716 235.140586 
L 576.602718 240.098428 
L 577.267719 265.357968 
L 577.93272 260.982197 
L 578.597722 234.084336 
L 579.262723 233.111612 
L 579.927725 258.307023 
L 580.592726 260.664511 
L 581.257727 234.850813 
L 581.922729 225.749993 
L 582.58773 248.476364 
L 583.252731 259.55056 
L 584.582734 219.973752 
L 585.247735 235.254424 
L 585.912737 254.991241 
L 586.577738 243.754573 
L 587.24274 219.014335 
L 587.907741 220.349458 
L 588.572742 243.485256 
L 589.237744 247.76032 
L 589.902745 225.243491 
L 590.567746 209.810224 
L 591.232748 224.146663 
L 591.897749 242.788954 
L 592.56275 235.175436 
L 593.227752 211.544186 
L 593.892753 205.08005 
L 594.557755 223.088209 
L 595.222756 236.037594 
L 595.887757 223.966126 
L 596.552759 202.243033 
L 597.21776 198.631582 
L 597.882761 215.33597 
L 598.547763 226.594119 
L 599.212764 216.082999 
L 599.877765 195.644905 
L 600.542767 188.50166 
L 601.87277 213.597718 
L 602.537771 209.982059 
L 603.202772 192.307105 
L 603.867774 177.82906 
L 604.532775 179.344405 
L 605.197776 191.506749 
L 605.862778 198.240884 
L 606.527779 190.695372 
L 607.192781 174.074144 
L 607.857782 160.93382 
L 608.522783 159.550726 
L 609.187785 166.956036 
L 609.852786 172.959257 
L 610.517787 169.857129 
L 611.182789 157.636452 
L 611.84779 142.294191 
L 612.512791 130.756102 
L 613.177793 126.196475 
L 614.507796 127.157236 
L 615.172797 123.735006 
L 615.837798 115.053377 
L 618.497804 65.996059 
L 619.162805 58.639598 
L 619.827806 53.510205 
L 620.492808 50.238276 
L 621.157809 49.083762 
L 621.822811 50.991856 
L 622.487812 57.135172 
L 623.152813 68.085115 
L 625.147817 112.525123 
L 625.812819 119.565181 
L 626.47782 118.958837 
L 627.142821 113.687083 
L 627.807823 110.753673 
L 628.472824 117.45807 
L 629.137826 135.645199 
L 629.802827 158.894697 
L 630.467828 175.745663 
L 631.13283 176.90177 
L 632.462832 146.262997 
L 633.127834 145.569302 
L 633.792835 166.288149 
L 634.457836 194.478743 
L 635.122838 208.372298 
L 635.787839 196.660088 
L 636.452841 171.24912 
L 637.117842 161.24599 
L 637.782843 181.638424 
L 638.447845 213.862207 
L 639.112846 226.277333 
L 639.777847 206.208149 
L 640.442849 177.356864 
L 641.10785 178.351024 
L 641.772851 211.177458 
L 642.437853 238.021152 
L 643.102854 227.675238 
L 643.767856 193.161699 
L 644.432857 183.55369 
L 645.76286 247.026459 
L 646.427861 237.63725 
L 647.092862 199.788128 
L 647.757864 191.595698 
L 648.422865 228.088586 
L 649.087867 257.146366 
L 649.752868 237.572688 
L 650.417869 198.501069 
L 651.082871 204.9713 
L 651.747872 248.402436 
L 652.412873 262.887797 
L 653.077875 225.837034 
L 653.742876 198.367295 
L 654.407877 229.796788 
L 655.072879 268.777928 
L 655.73788 253.357649 
L 656.402882 208.424697 
L 657.067883 215.143101 
L 657.732884 262.817994 
L 658.397886 271.639326 
L 659.062887 226.188325 
L 659.727888 209.017617 
L 660.39289 253.354602 
L 661.057891 280.883072 
L 662.387894 209.984541 
L 663.717897 284.596281 
L 664.382898 258.127339 
L 665.047899 214.707996 
L 665.712901 240.453924 
L 666.377902 286.079006 
L 667.042903 268.331873 
L 667.707905 220.355204 
L 668.372906 238.76355 
L 669.037907 287.40055 
L 669.702909 275.288471 
L 670.36791 225.318454 
L 671.032912 239.548143 
L 671.697913 289.535742 
L 672.362914 279.906967 
L 673.027916 229.02791 
L 673.692917 242.11322 
L 674.357918 292.696592 
L 675.02292 282.885127 
L 675.687921 231.541691 
L 676.352922 245.947837 
L 677.017924 296.684461 
L 677.682925 284.654444 
L 678.347927 233.235168 
L 679.012928 250.706992 
L 679.677929 301.116752 
L 680.342931 285.521418 
L 681.007932 234.581504 
L 681.672933 256.125297 
L 682.337935 305.57932 
L 683.002936 285.742053 
L 683.667937 236.025335 
L 684.332939 261.940373 
L 684.99794 309.729679 
L 685.662942 285.58325 
L 686.327943 237.885589 
L 686.992944 267.860043 
L 687.657946 313.3631 
L 688.322947 285.379181 
L 688.987948 240.299774 
L 689.65295 273.567853 
L 690.317951 316.452692 
L 690.982952 285.495036 
L 691.647954 243.217265 
L 692.977957 319.136334 
L 693.642958 286.321635 
L 694.307959 246.440343 
L 695.637962 321.653194 
L 696.967965 249.719103 
L 698.297968 324.225383 
L 698.962969 291.843412 
L 699.62797 252.927166 
L 700.957973 326.850014 
L 701.622974 297.555206 
L 702.287976 256.311669 
L 702.952977 286.6448 
L 703.617978 329.041554 
L 704.28298 305.858834 
L 704.947981 260.786656 
L 705.612983 283.256811 
L 706.277984 329.609033 
L 706.942985 316.701035 
L 707.607987 268.151772 
L 708.272988 277.721412 
L 708.937989 326.711013 
L 709.602991 328.745018 
L 710.267992 280.641225 
L 710.932993 272.081501 
L 711.597995 318.505894 
L 712.262996 338.758269 
L 712.927998 299.568035 
L 713.592999 270.799346 
L 714.923002 341.830348 
L 715.588003 322.788798 
L 716.253004 280.093834 
L 716.918006 289.032043 
L 717.583007 333.306272 
L 718.248008 342.769454 
L 718.91301 303.836272 
L 719.578011 281.400435 
L 720.908014 347.9517 
L 721.573015 335.62692 
L 722.238017 295.650453 
L 722.903018 292.257834 
L 723.568019 330.328605 
L 724.233021 354.492977 
L 724.898022 332.796727 
L 725.563023 297.273557 
L 726.228025 301.7068 
L 726.893026 339.16827 
L 727.558028 359.958249 
L 728.223029 339.27081 
L 728.88803 305.588213 
L 729.553032 306.024959 
L 730.218033 339.574504 
L 730.883034 365.149658 
L 731.548036 355.145093 
L 732.213037 323.081878 
L 732.878038 309.577582 
L 733.54304 331.186434 
L 734.208041 362.838185 
L 734.873043 372.922548 
L 735.538044 353.714154 
L 736.203045 327.391852 
L 736.868047 323.527784 
L 737.533048 345.994 
L 738.198049 373.045025 
L 738.863051 382.513861 
L 739.528052 369.1335 
L 740.193054 347.143418 
L 740.858055 337.870296 
L 741.523056 349.89412 
L 742.188058 373.4373 
L 742.853059 392.223853 
L 743.51806 395.928505 
L 744.183062 385.177318 
L 744.848063 369.895827 
L 745.513064 362.191017 
L 746.178066 367.942125 
L 748.17307 416.301258 
L 748.838071 421.671551 
L 749.503073 419.514594 
L 750.833075 408.464476 
L 751.498077 407.498711 
L 752.163078 411.758485 
L 752.828079 420.262229 
L 754.823084 451.388386 
L 755.488085 458.825431 
L 756.153086 464.006243 
L 756.818088 467.049483 
L 757.483089 468.115487 
L 758.14809 467.225145 
L 758.813092 464.225693 
L 759.478093 458.897315 
L 760.143094 451.171026 
L 762.8031 413.628444 
L 763.468101 411.84768 
L 764.133103 416.043379 
L 765.463105 433.530396 
L 766.128107 437.248411 
L 766.793108 431.210011 
L 767.458109 414.058625 
L 768.788112 365.727516 
L 769.453114 354.3707 
L 770.118115 362.275402 
L 771.448118 406.882935 
L 772.113119 411.86197 
L 772.77812 393.525042 
L 774.108123 330.772171 
L 774.773124 328.653905 
L 775.438126 356.47796 
L 776.103127 389.480316 
L 776.768129 397.573643 
L 777.43313 371.624675 
L 778.098131 329.622715 
L 778.763133 307.227545 
L 779.428134 328.460317 
L 780.093135 371.57932 
L 780.758137 389.766586 
L 781.423138 363.309845 
L 782.08814 315.020994 
L 782.753141 293.965646 
L 783.418142 327.314811 
L 784.083144 374.56364 
L 784.748145 378.284243 
L 786.078148 286.90438 
L 786.743149 298.285383 
L 787.40815 354.249563 
L 788.073152 378.251309 
L 788.738153 339.941911 
L 789.403155 283.97551 
L 790.068156 284.944559 
L 790.733157 344.411125 
L 791.398159 373.885549 
L 792.06316 333.400186 
L 792.728161 274.998801 
L 793.393163 283.37632 
L 794.058164 347.998651 
L 794.723165 366.697739 
L 796.053168 262.597645 
L 796.71817 296.517737 
L 797.383171 359.330953 
L 798.048172 348.829208 
L 798.713174 281.442501 
L 799.378175 261.17073 
L 800.043176 326.258506 
L 800.708178 362.078588 
L 802.03818 252.979965 
L 802.703182 289.364724 
L 802.703182 289.364724 
" clip-path="url(#pebda80f6e3)" style="fill: none; stroke-dasharray: 11.1,4.8; stroke-dashoffset: 0; stroke: #ff7f0e; stroke-width: 3"/>
   </g>
   <g id="patch_3">
    <path d="M 105.15 489.2325 
L 105.15 28.08 
" style="fill: none; stroke: #000000; stroke-width: 2; stroke-linejoin: miter; stroke-linecap: square"/>
   </g>
   <g id="patch_4">
    <path d="M 835.92 489.2325 
L 835.92 28.08 
" style="fill: none; stroke: #000000; stroke-width: 2; stroke-linejoin: miter; stroke-linecap: square"/>
   </g>
   <g id="patch_5">
    <path d="M 105.15 489.2325 
L 835.92 489.2325 
" style="fill: none; stroke: #000000; stroke-width: 2; stroke-linejoin: miter; stroke-linecap: square"/>
   </g>
   <g id="patch_6">
    <path d="M 105.15 28.08 
L 835.92 28.08 
" style="fill: none; stroke: #000000; stroke-width: 2; stroke-linejoin: miter; stroke-linecap: square"/>
   </g>
  </g>
 </g>
 <defs>
  <clipPath id="pebda80f6e3">
   <rect x="105.15" y="28.08" width="730.77" height="461.1525"/>
  </clipPath>
 </defs>
</svg>
