<?xml version="1.0" encoding="utf-8" standalone="no"?>
<!DOCTYPE svg PUBLIC "-//W3C//DTD SVG 1.1//EN"
  "http://www.w3.org/Graphics/SVG/1.1/DTD/svg11.dtd">
<svg xmlns:xlink="http://www.w3.org/1999/xlink" width="864pt" height="576pt" viewBox="0 0 864 576" xmlns="http://www.w3.org/2000/svg" version="1.1">
 <metadata>
  <rdf:RDF xmlns:dc="http://purl.org/dc/elements/1.1/" xmlns:cc="http://creativecommons.org/ns#" xmlns:rdf="http://www.w3.org/1999/02/22-rdf-syntax-ns#">
   <cc:Work>
    <dc:type rdf:resource="http://purl.org/dc/dcmitype/StillImage"/>
    <dc:date>2025-06-05T19:49:23.434835</dc:date>
    <dc:format>image/svg+xml</dc:format>
    <dc:creator>
     <cc:Agent>
      <dc:title>Matplotlib v3.7.2, https://matplotlib.org/</dc:title>
     </cc:Agent>
    </dc:creator>
   </cc:Work>
  </rdf:RDF>
 </metadata>
 <defs>
  <style type="text/css">*{stroke-linejoin: round; stroke-linecap: butt}</style>
 </defs>
 <g id="figure_1">
  <g id="patch_1">
   <path d="M 0 576 
L 864 576 
L 864 0 
L 0 0 
z
" style="fill: #ffffff"/>
  </g>
  <g id="axes_1">
   <g id="patch_2">
    <path d="M 121.181625 489.2325 
L 835.92 489.2325 
L 835.92 32.078538 
L 121.181625 32.078538 
z
" style="fill: #ffffff"/>
   </g>
   <g id="matplotlib.axis_1">
    <g id="xtick_1">
     <g id="line2d_1">
      <path d="M 153.669733 489.2325 
L 153.669733 32.078538 
" clip-path="url(#pf6b153a695)" style="fill: none; stroke-dasharray: 3.7,1.6; stroke-dashoffset: 0; stroke: #b0b0b0; stroke-opacity: 0.5"/>
     </g>
     <g id="line2d_2">
      <defs>
       <path id="m9460252959" d="M 0 0 
L 0 -10 
" style="stroke: #000000; stroke-width: 2"/>
      </defs>
      <g>
       <use xlink:href="#m9460252959" x="153.669733" y="489.2325" style="stroke: #000000; stroke-width: 2"/>
      </g>
     </g>
     <g id="line2d_3">
      <defs>
       <path id="ma3380da3bf" d="M 0 0 
L 0 10 
" style="stroke: #000000; stroke-width: 2"/>
      </defs>
      <g>
       <use xlink:href="#ma3380da3bf" x="153.669733" y="32.078538" style="stroke: #000000; stroke-width: 2"/>
      </g>
     </g>
     <g id="text_1">
      <!-- 0 -->
      <g transform="translate(145.398483 512.488438) scale(0.26 -0.26)">
       <defs>
        <path id="DejaVuSerif-30" d="M 2034 219 
Q 2513 219 2750 744 
Q 2988 1269 2988 2328 
Q 2988 3391 2750 3916 
Q 2513 4441 2034 4441 
Q 1556 4441 1318 3916 
Q 1081 3391 1081 2328 
Q 1081 1269 1318 744 
Q 1556 219 2034 219 
z
M 2034 -91 
Q 1275 -91 848 546 
Q 422 1184 422 2328 
Q 422 3475 848 4112 
Q 1275 4750 2034 4750 
Q 2797 4750 3222 4112 
Q 3647 3475 3647 2328 
Q 3647 1184 3222 546 
Q 2797 -91 2034 -91 
z
" transform="scale(0.015625)"/>
       </defs>
       <use xlink:href="#DejaVuSerif-30"/>
      </g>
     </g>
    </g>
    <g id="xtick_2">
     <g id="line2d_4">
      <path d="M 283.622165 489.2325 
L 283.622165 32.078538 
" clip-path="url(#pf6b153a695)" style="fill: none; stroke-dasharray: 3.7,1.6; stroke-dashoffset: 0; stroke: #b0b0b0; stroke-opacity: 0.5"/>
     </g>
     <g id="line2d_5">
      <g>
       <use xlink:href="#m9460252959" x="283.622165" y="489.2325" style="stroke: #000000; stroke-width: 2"/>
      </g>
     </g>
     <g id="line2d_6">
      <g>
       <use xlink:href="#ma3380da3bf" x="283.622165" y="32.078538" style="stroke: #000000; stroke-width: 2"/>
      </g>
     </g>
     <g id="text_2">
      <!-- 10 -->
      <g transform="translate(267.079665 512.488438) scale(0.26 -0.26)">
       <defs>
        <path id="DejaVuSerif-31" d="M 909 0 
L 909 331 
L 1722 331 
L 1722 4213 
L 781 3603 
L 781 4013 
L 1919 4750 
L 2350 4750 
L 2350 331 
L 3163 331 
L 3163 0 
L 909 0 
z
" transform="scale(0.015625)"/>
       </defs>
       <use xlink:href="#DejaVuSerif-31"/>
       <use xlink:href="#DejaVuSerif-30" x="63.623047"/>
      </g>
     </g>
    </g>
    <g id="xtick_3">
     <g id="line2d_7">
      <path d="M 413.574597 489.2325 
L 413.574597 32.078538 
" clip-path="url(#pf6b153a695)" style="fill: none; stroke-dasharray: 3.7,1.6; stroke-dashoffset: 0; stroke: #b0b0b0; stroke-opacity: 0.5"/>
     </g>
     <g id="line2d_8">
      <g>
       <use xlink:href="#m9460252959" x="413.574597" y="489.2325" style="stroke: #000000; stroke-width: 2"/>
      </g>
     </g>
     <g id="line2d_9">
      <g>
       <use xlink:href="#ma3380da3bf" x="413.574597" y="32.078538" style="stroke: #000000; stroke-width: 2"/>
      </g>
     </g>
     <g id="text_3">
      <!-- 20 -->
      <g transform="translate(397.032097 512.488438) scale(0.26 -0.26)">
       <defs>
        <path id="DejaVuSerif-32" d="M 819 3553 
L 469 3553 
L 469 4384 
Q 803 4563 1142 4656 
Q 1481 4750 1806 4750 
Q 2534 4750 2956 4397 
Q 3378 4044 3378 3438 
Q 3378 2753 2422 1800 
Q 2347 1728 2309 1691 
L 1131 513 
L 3078 513 
L 3078 1088 
L 3444 1088 
L 3444 0 
L 434 0 
L 434 341 
L 1850 1753 
Q 2319 2222 2519 2614 
Q 2719 3006 2719 3438 
Q 2719 3909 2473 4175 
Q 2228 4441 1797 4441 
Q 1350 4441 1106 4219 
Q 863 3997 819 3553 
z
" transform="scale(0.015625)"/>
       </defs>
       <use xlink:href="#DejaVuSerif-32"/>
       <use xlink:href="#DejaVuSerif-30" x="63.623047"/>
      </g>
     </g>
    </g>
    <g id="xtick_4">
     <g id="line2d_10">
      <path d="M 543.527028 489.2325 
L 543.527028 32.078538 
" clip-path="url(#pf6b153a695)" style="fill: none; stroke-dasharray: 3.7,1.6; stroke-dashoffset: 0; stroke: #b0b0b0; stroke-opacity: 0.5"/>
     </g>
     <g id="line2d_11">
      <g>
       <use xlink:href="#m9460252959" x="543.527028" y="489.2325" style="stroke: #000000; stroke-width: 2"/>
      </g>
     </g>
     <g id="line2d_12">
      <g>
       <use xlink:href="#ma3380da3bf" x="543.527028" y="32.078538" style="stroke: #000000; stroke-width: 2"/>
      </g>
     </g>
     <g id="text_4">
      <!-- 30 -->
      <g transform="translate(526.984528 512.488438) scale(0.26 -0.26)">
       <defs>
        <path id="DejaVuSerif-33" d="M 622 4469 
Q 988 4606 1323 4678 
Q 1659 4750 1953 4750 
Q 2638 4750 3022 4454 
Q 3406 4159 3406 3634 
Q 3406 3213 3140 2930 
Q 2875 2647 2388 2547 
Q 2963 2466 3280 2130 
Q 3597 1794 3597 1259 
Q 3597 606 3158 257 
Q 2719 -91 1894 -91 
Q 1528 -91 1179 -12 
Q 831 66 488 225 
L 488 1131 
L 838 1131 
Q 869 681 1141 450 
Q 1413 219 1906 219 
Q 2384 219 2661 495 
Q 2938 772 2938 1253 
Q 2938 1803 2653 2086 
Q 2369 2369 1819 2369 
L 1522 2369 
L 1522 2688 
L 1678 2688 
Q 2225 2688 2498 2914 
Q 2772 3141 2772 3597 
Q 2772 4006 2547 4223 
Q 2322 4441 1900 4441 
Q 1478 4441 1245 4241 
Q 1013 4041 972 3647 
L 622 3647 
L 622 4469 
z
" transform="scale(0.015625)"/>
       </defs>
       <use xlink:href="#DejaVuSerif-33"/>
       <use xlink:href="#DejaVuSerif-30" x="63.623047"/>
      </g>
     </g>
    </g>
    <g id="xtick_5">
     <g id="line2d_13">
      <path d="M 673.47946 489.2325 
L 673.47946 32.078538 
" clip-path="url(#pf6b153a695)" style="fill: none; stroke-dasharray: 3.7,1.6; stroke-dashoffset: 0; stroke: #b0b0b0; stroke-opacity: 0.5"/>
     </g>
     <g id="line2d_14">
      <g>
       <use xlink:href="#m9460252959" x="673.47946" y="489.2325" style="stroke: #000000; stroke-width: 2"/>
      </g>
     </g>
     <g id="line2d_15">
      <g>
       <use xlink:href="#ma3380da3bf" x="673.47946" y="32.078538" style="stroke: #000000; stroke-width: 2"/>
      </g>
     </g>
     <g id="text_5">
      <!-- 40 -->
      <g transform="translate(656.93696 512.488438) scale(0.26 -0.26)">
       <defs>
        <path id="DejaVuSerif-34" d="M 2234 1581 
L 2234 4063 
L 641 1581 
L 2234 1581 
z
M 3609 0 
L 1484 0 
L 1484 331 
L 2234 331 
L 2234 1247 
L 197 1247 
L 197 1588 
L 2241 4750 
L 2859 4750 
L 2859 1581 
L 3750 1581 
L 3750 1247 
L 2859 1247 
L 2859 331 
L 3609 331 
L 3609 0 
z
" transform="scale(0.015625)"/>
       </defs>
       <use xlink:href="#DejaVuSerif-34"/>
       <use xlink:href="#DejaVuSerif-30" x="63.623047"/>
      </g>
     </g>
    </g>
    <g id="xtick_6">
     <g id="line2d_16">
      <path d="M 803.431892 489.2325 
L 803.431892 32.078538 
" clip-path="url(#pf6b153a695)" style="fill: none; stroke-dasharray: 3.7,1.6; stroke-dashoffset: 0; stroke: #b0b0b0; stroke-opacity: 0.5"/>
     </g>
     <g id="line2d_17">
      <g>
       <use xlink:href="#m9460252959" x="803.431892" y="489.2325" style="stroke: #000000; stroke-width: 2"/>
      </g>
     </g>
     <g id="line2d_18">
      <g>
       <use xlink:href="#ma3380da3bf" x="803.431892" y="32.078538" style="stroke: #000000; stroke-width: 2"/>
      </g>
     </g>
     <g id="text_6">
      <!-- 50 -->
      <g transform="translate(786.889392 512.488438) scale(0.26 -0.26)">
       <defs>
        <path id="DejaVuSerif-35" d="M 3219 4666 
L 3219 4153 
L 1081 4153 
L 1081 2816 
Q 1244 2928 1461 2984 
Q 1678 3041 1947 3041 
Q 2703 3041 3140 2622 
Q 3578 2203 3578 1478 
Q 3578 738 3136 323 
Q 2694 -91 1894 -91 
Q 1572 -91 1234 -12 
Q 897 66 544 225 
L 544 1131 
L 897 1131 
Q 925 688 1179 453 
Q 1434 219 1894 219 
Q 2388 219 2653 544 
Q 2919 869 2919 1478 
Q 2919 2084 2655 2407 
Q 2391 2731 1894 2731 
Q 1613 2731 1398 2631 
Q 1184 2531 1019 2322 
L 750 2322 
L 750 4666 
L 3219 4666 
z
" transform="scale(0.015625)"/>
       </defs>
       <use xlink:href="#DejaVuSerif-35"/>
       <use xlink:href="#DejaVuSerif-30" x="63.623047"/>
      </g>
     </g>
    </g>
    <g id="text_7">
     <!-- $t$ (a.u.) -->
     <g transform="translate(435.130812 541.651562) scale(0.26 -0.26)">
      <defs>
       <path id="Cmmi10-74" d="M 397 519 
Q 397 613 416 697 
L 878 2534 
L 206 2534 
Q 141 2534 141 2619 
Q 166 2759 225 2759 
L 934 2759 
L 1191 3803 
Q 1216 3888 1291 3947 
Q 1366 4006 1459 4006 
Q 1541 4006 1595 3957 
Q 1650 3909 1650 3828 
Q 1650 3809 1648 3798 
Q 1647 3788 1644 3775 
L 1388 2759 
L 2047 2759 
Q 2113 2759 2113 2675 
Q 2109 2659 2100 2621 
Q 2091 2584 2075 2559 
Q 2059 2534 2028 2534 
L 1331 2534 
L 872 684 
Q 825 503 825 372 
Q 825 97 1013 97 
Q 1294 97 1511 361 
Q 1728 625 1844 941 
Q 1869 978 1894 978 
L 1972 978 
Q 1997 978 2012 961 
Q 2028 944 2028 922 
Q 2028 909 2022 903 
Q 1881 516 1612 222 
Q 1344 -72 997 -72 
Q 744 -72 570 93 
Q 397 259 397 519 
z
" transform="scale(0.015625)"/>
       <path id="DejaVuSerif-20" transform="scale(0.015625)"/>
       <path id="DejaVuSerif-28" d="M 2041 -997 
Q 1281 -656 893 83 
Q 506 822 506 1931 
Q 506 3044 893 3783 
Q 1281 4522 2041 4863 
L 2041 4556 
Q 1559 4225 1350 3623 
Q 1141 3022 1141 1931 
Q 1141 844 1350 242 
Q 1559 -359 2041 -691 
L 2041 -997 
z
" transform="scale(0.015625)"/>
       <path id="DejaVuSerif-61" d="M 2547 1044 
L 2547 1747 
L 1806 1747 
Q 1378 1747 1168 1562 
Q 959 1378 959 997 
Q 959 650 1171 447 
Q 1384 244 1747 244 
Q 2106 244 2326 466 
Q 2547 688 2547 1044 
z
M 3122 2075 
L 3122 331 
L 3634 331 
L 3634 0 
L 2547 0 
L 2547 359 
Q 2356 128 2106 18 
Q 1856 -91 1522 -91 
Q 969 -91 644 203 
Q 319 497 319 997 
Q 319 1513 691 1797 
Q 1063 2081 1741 2081 
L 2547 2081 
L 2547 2309 
Q 2547 2688 2317 2895 
Q 2088 3103 1672 3103 
Q 1328 3103 1125 2947 
Q 922 2791 872 2484 
L 575 2484 
L 575 3156 
Q 875 3284 1158 3348 
Q 1441 3413 1709 3413 
Q 2400 3413 2761 3070 
Q 3122 2728 3122 2075 
z
" transform="scale(0.015625)"/>
       <path id="DejaVuSerif-2e" d="M 603 325 
Q 603 500 722 622 
Q 841 744 1019 744 
Q 1191 744 1312 622 
Q 1434 500 1434 325 
Q 1434 153 1312 31 
Q 1191 -91 1019 -91 
Q 841 -91 722 29 
Q 603 150 603 325 
z
" transform="scale(0.015625)"/>
       <path id="DejaVuSerif-75" d="M 2266 3322 
L 3341 3322 
L 3341 331 
L 3884 331 
L 3884 0 
L 2766 0 
L 2766 588 
Q 2606 256 2353 82 
Q 2100 -91 1766 -91 
Q 1213 -91 952 223 
Q 691 538 691 1209 
L 691 2988 
L 172 2988 
L 172 3322 
L 1269 3322 
L 1269 1388 
Q 1269 781 1417 556 
Q 1566 331 1947 331 
Q 2347 331 2556 625 
Q 2766 919 2766 1478 
L 2766 2988 
L 2266 2988 
L 2266 3322 
z
" transform="scale(0.015625)"/>
       <path id="DejaVuSerif-29" d="M 453 -997 
L 453 -691 
Q 934 -359 1145 242 
Q 1356 844 1356 1931 
Q 1356 3022 1145 3623 
Q 934 4225 453 4556 
L 453 4863 
Q 1216 4522 1603 3783 
Q 1991 3044 1991 1931 
Q 1991 822 1603 83 
Q 1216 -656 453 -997 
z
" transform="scale(0.015625)"/>
      </defs>
      <use xlink:href="#Cmmi10-74" transform="translate(0 0.015625)"/>
      <use xlink:href="#DejaVuSerif-20" transform="translate(36.083984 0.015625)"/>
      <use xlink:href="#DejaVuSerif-28" transform="translate(67.871094 0.015625)"/>
      <use xlink:href="#DejaVuSerif-61" transform="translate(106.884766 0.015625)"/>
      <use xlink:href="#DejaVuSerif-2e" transform="translate(166.503906 0.015625)"/>
      <use xlink:href="#DejaVuSerif-75" transform="translate(198.291016 0.015625)"/>
      <use xlink:href="#DejaVuSerif-2e" transform="translate(262.695312 0.015625)"/>
      <use xlink:href="#DejaVuSerif-29" transform="translate(294.482422 0.015625)"/>
     </g>
    </g>
   </g>
   <g id="matplotlib.axis_2">
    <g id="ytick_1">
     <g id="line2d_19">
      <path d="M 121.181625 436.056068 
L 835.92 436.056068 
" clip-path="url(#pf6b153a695)" style="fill: none; stroke-dasharray: 3.7,1.6; stroke-dashoffset: 0; stroke: #b0b0b0; stroke-opacity: 0.5"/>
     </g>
     <g id="line2d_20">
      <defs>
       <path id="m6e2ef51b3e" d="M 0 0 
L 10 0 
" style="stroke: #000000; stroke-width: 2"/>
      </defs>
      <g>
       <use xlink:href="#m6e2ef51b3e" x="121.181625" y="436.056068" style="stroke: #000000; stroke-width: 2"/>
      </g>
     </g>
     <g id="line2d_21">
      <defs>
       <path id="m7aa4384458" d="M 0 0 
L -10 0 
" style="stroke: #000000; stroke-width: 2"/>
      </defs>
      <g>
       <use xlink:href="#m7aa4384458" x="835.92" y="436.056068" style="stroke: #000000; stroke-width: 2"/>
      </g>
     </g>
     <g id="text_8">
      <!-- 0.34 -->
      <g transform="translate(59.791 445.934036) scale(0.26 -0.26)">
       <use xlink:href="#DejaVuSerif-30"/>
       <use xlink:href="#DejaVuSerif-2e" x="63.623047"/>
       <use xlink:href="#DejaVuSerif-33" x="95.410156"/>
       <use xlink:href="#DejaVuSerif-34" x="159.033203"/>
      </g>
     </g>
    </g>
    <g id="ytick_2">
     <g id="line2d_22">
      <path d="M 121.181625 369.70937 
L 835.92 369.70937 
" clip-path="url(#pf6b153a695)" style="fill: none; stroke-dasharray: 3.7,1.6; stroke-dashoffset: 0; stroke: #b0b0b0; stroke-opacity: 0.5"/>
     </g>
     <g id="line2d_23">
      <g>
       <use xlink:href="#m6e2ef51b3e" x="121.181625" y="369.70937" style="stroke: #000000; stroke-width: 2"/>
      </g>
     </g>
     <g id="line2d_24">
      <g>
       <use xlink:href="#m7aa4384458" x="835.92" y="369.70937" style="stroke: #000000; stroke-width: 2"/>
      </g>
     </g>
     <g id="text_9">
      <!-- 0.35 -->
      <g transform="translate(59.791 379.587338) scale(0.26 -0.26)">
       <use xlink:href="#DejaVuSerif-30"/>
       <use xlink:href="#DejaVuSerif-2e" x="63.623047"/>
       <use xlink:href="#DejaVuSerif-33" x="95.410156"/>
       <use xlink:href="#DejaVuSerif-35" x="159.033203"/>
      </g>
     </g>
    </g>
    <g id="ytick_3">
     <g id="line2d_25">
      <path d="M 121.181625 303.362672 
L 835.92 303.362672 
" clip-path="url(#pf6b153a695)" style="fill: none; stroke-dasharray: 3.7,1.6; stroke-dashoffset: 0; stroke: #b0b0b0; stroke-opacity: 0.5"/>
     </g>
     <g id="line2d_26">
      <g>
       <use xlink:href="#m6e2ef51b3e" x="121.181625" y="303.362672" style="stroke: #000000; stroke-width: 2"/>
      </g>
     </g>
     <g id="line2d_27">
      <g>
       <use xlink:href="#m7aa4384458" x="835.92" y="303.362672" style="stroke: #000000; stroke-width: 2"/>
      </g>
     </g>
     <g id="text_10">
      <!-- 0.36 -->
      <g transform="translate(59.791 313.24064) scale(0.26 -0.26)">
       <defs>
        <path id="DejaVuSerif-36" d="M 2094 219 
Q 2534 219 2771 542 
Q 3009 866 3009 1472 
Q 3009 2078 2771 2401 
Q 2534 2725 2094 2725 
Q 1647 2725 1412 2412 
Q 1178 2100 1178 1509 
Q 1178 888 1415 553 
Q 1653 219 2094 219 
z
M 1075 2569 
Q 1288 2803 1556 2918 
Q 1825 3034 2163 3034 
Q 2859 3034 3264 2615 
Q 3669 2197 3669 1472 
Q 3669 763 3233 336 
Q 2797 -91 2069 -91 
Q 1278 -91 853 498 
Q 428 1088 428 2181 
Q 428 3406 931 4078 
Q 1434 4750 2350 4750 
Q 2597 4750 2869 4703 
Q 3141 4656 3425 4563 
L 3425 3794 
L 3072 3794 
Q 3034 4109 2831 4275 
Q 2628 4441 2284 4441 
Q 1678 4441 1381 3981 
Q 1084 3522 1075 2569 
z
" transform="scale(0.015625)"/>
       </defs>
       <use xlink:href="#DejaVuSerif-30"/>
       <use xlink:href="#DejaVuSerif-2e" x="63.623047"/>
       <use xlink:href="#DejaVuSerif-33" x="95.410156"/>
       <use xlink:href="#DejaVuSerif-36" x="159.033203"/>
      </g>
     </g>
    </g>
    <g id="ytick_4">
     <g id="line2d_28">
      <path d="M 121.181625 237.015974 
L 835.92 237.015974 
" clip-path="url(#pf6b153a695)" style="fill: none; stroke-dasharray: 3.7,1.6; stroke-dashoffset: 0; stroke: #b0b0b0; stroke-opacity: 0.5"/>
     </g>
     <g id="line2d_29">
      <g>
       <use xlink:href="#m6e2ef51b3e" x="121.181625" y="237.015974" style="stroke: #000000; stroke-width: 2"/>
      </g>
     </g>
     <g id="line2d_30">
      <g>
       <use xlink:href="#m7aa4384458" x="835.92" y="237.015974" style="stroke: #000000; stroke-width: 2"/>
      </g>
     </g>
     <g id="text_11">
      <!-- 0.37 -->
      <g transform="translate(59.791 246.893942) scale(0.26 -0.26)">
       <defs>
        <path id="DejaVuSerif-37" d="M 3609 4347 
L 1784 0 
L 1319 0 
L 3059 4153 
L 903 4153 
L 903 3578 
L 538 3578 
L 538 4666 
L 3609 4666 
L 3609 4347 
z
" transform="scale(0.015625)"/>
       </defs>
       <use xlink:href="#DejaVuSerif-30"/>
       <use xlink:href="#DejaVuSerif-2e" x="63.623047"/>
       <use xlink:href="#DejaVuSerif-33" x="95.410156"/>
       <use xlink:href="#DejaVuSerif-37" x="159.033203"/>
      </g>
     </g>
    </g>
    <g id="ytick_5">
     <g id="line2d_31">
      <path d="M 121.181625 170.669276 
L 835.92 170.669276 
" clip-path="url(#pf6b153a695)" style="fill: none; stroke-dasharray: 3.7,1.6; stroke-dashoffset: 0; stroke: #b0b0b0; stroke-opacity: 0.5"/>
     </g>
     <g id="line2d_32">
      <g>
       <use xlink:href="#m6e2ef51b3e" x="121.181625" y="170.669276" style="stroke: #000000; stroke-width: 2"/>
      </g>
     </g>
     <g id="line2d_33">
      <g>
       <use xlink:href="#m7aa4384458" x="835.92" y="170.669276" style="stroke: #000000; stroke-width: 2"/>
      </g>
     </g>
     <g id="text_12">
      <!-- 0.38 -->
      <g transform="translate(59.791 180.547244) scale(0.26 -0.26)">
       <defs>
        <path id="DejaVuSerif-38" d="M 2981 1275 
Q 2981 1775 2732 2051 
Q 2484 2328 2034 2328 
Q 1584 2328 1336 2051 
Q 1088 1775 1088 1275 
Q 1088 772 1336 495 
Q 1584 219 2034 219 
Q 2484 219 2732 495 
Q 2981 772 2981 1275 
z
M 2853 3541 
Q 2853 3966 2637 4203 
Q 2422 4441 2034 4441 
Q 1650 4441 1433 4203 
Q 1216 3966 1216 3541 
Q 1216 3113 1433 2875 
Q 1650 2638 2034 2638 
Q 2422 2638 2637 2875 
Q 2853 3113 2853 3541 
z
M 2516 2484 
Q 3047 2413 3344 2092 
Q 3641 1772 3641 1275 
Q 3641 619 3225 264 
Q 2809 -91 2034 -91 
Q 1263 -91 845 264 
Q 428 619 428 1275 
Q 428 1772 725 2092 
Q 1022 2413 1556 2484 
Q 1084 2569 832 2842 
Q 581 3116 581 3541 
Q 581 4103 968 4426 
Q 1356 4750 2034 4750 
Q 2713 4750 3100 4426 
Q 3488 4103 3488 3541 
Q 3488 3116 3236 2842 
Q 2984 2569 2516 2484 
z
" transform="scale(0.015625)"/>
       </defs>
       <use xlink:href="#DejaVuSerif-30"/>
       <use xlink:href="#DejaVuSerif-2e" x="63.623047"/>
       <use xlink:href="#DejaVuSerif-33" x="95.410156"/>
       <use xlink:href="#DejaVuSerif-38" x="159.033203"/>
      </g>
     </g>
    </g>
    <g id="ytick_6">
     <g id="line2d_34">
      <path d="M 121.181625 104.322578 
L 835.92 104.322578 
" clip-path="url(#pf6b153a695)" style="fill: none; stroke-dasharray: 3.7,1.6; stroke-dashoffset: 0; stroke: #b0b0b0; stroke-opacity: 0.5"/>
     </g>
     <g id="line2d_35">
      <g>
       <use xlink:href="#m6e2ef51b3e" x="121.181625" y="104.322578" style="stroke: #000000; stroke-width: 2"/>
      </g>
     </g>
     <g id="line2d_36">
      <g>
       <use xlink:href="#m7aa4384458" x="835.92" y="104.322578" style="stroke: #000000; stroke-width: 2"/>
      </g>
     </g>
     <g id="text_13">
      <!-- 0.39 -->
      <g transform="translate(59.791 114.200546) scale(0.26 -0.26)">
       <defs>
        <path id="DejaVuSerif-39" d="M 2994 2091 
Q 2784 1856 2512 1740 
Q 2241 1625 1900 1625 
Q 1206 1625 804 2044 
Q 403 2463 403 3188 
Q 403 3897 839 4323 
Q 1275 4750 2003 4750 
Q 2794 4750 3217 4161 
Q 3641 3572 3641 2478 
Q 3641 1253 3137 581 
Q 2634 -91 1722 -91 
Q 1475 -91 1203 -44 
Q 931 3 647 97 
L 647 872 
L 997 872 
Q 1038 556 1241 387 
Q 1444 219 1784 219 
Q 2391 219 2687 676 
Q 2984 1134 2994 2091 
z
M 1978 4441 
Q 1534 4441 1298 4117 
Q 1063 3794 1063 3188 
Q 1063 2581 1298 2256 
Q 1534 1931 1978 1931 
Q 2422 1931 2658 2245 
Q 2894 2559 2894 3150 
Q 2894 3772 2656 4106 
Q 2419 4441 1978 4441 
z
" transform="scale(0.015625)"/>
       </defs>
       <use xlink:href="#DejaVuSerif-30"/>
       <use xlink:href="#DejaVuSerif-2e" x="63.623047"/>
       <use xlink:href="#DejaVuSerif-33" x="95.410156"/>
       <use xlink:href="#DejaVuSerif-39" x="159.033203"/>
      </g>
     </g>
    </g>
    <g id="ytick_7">
     <g id="line2d_37">
      <path d="M 121.181625 37.97588 
L 835.92 37.97588 
" clip-path="url(#pf6b153a695)" style="fill: none; stroke-dasharray: 3.7,1.6; stroke-dashoffset: 0; stroke: #b0b0b0; stroke-opacity: 0.5"/>
     </g>
     <g id="line2d_38">
      <g>
       <use xlink:href="#m6e2ef51b3e" x="121.181625" y="37.97588" style="stroke: #000000; stroke-width: 2"/>
      </g>
     </g>
     <g id="line2d_39">
      <g>
       <use xlink:href="#m7aa4384458" x="835.92" y="37.97588" style="stroke: #000000; stroke-width: 2"/>
      </g>
     </g>
     <g id="text_14">
      <!-- 0.40 -->
      <g transform="translate(59.791 47.853849) scale(0.26 -0.26)">
       <use xlink:href="#DejaVuSerif-30"/>
       <use xlink:href="#DejaVuSerif-2e" x="63.623047"/>
       <use xlink:href="#DejaVuSerif-34" x="95.410156"/>
       <use xlink:href="#DejaVuSerif-30" x="159.033203"/>
      </g>
     </g>
    </g>
    <g id="text_15">
     <!-- $r_i$ (a.u.) -->
     <g transform="translate(50.383813 309.275519) rotate(-90) scale(0.26 -0.26)">
      <defs>
       <path id="Cmmi10-72" d="M 494 109 
Q 494 147 500 166 
L 978 2075 
Q 1025 2253 1025 2388 
Q 1025 2663 838 2663 
Q 638 2663 541 2423 
Q 444 2184 353 1819 
Q 353 1800 334 1789 
Q 316 1778 300 1778 
L 225 1778 
Q 203 1778 187 1801 
Q 172 1825 172 1844 
Q 241 2122 305 2315 
Q 369 2509 505 2668 
Q 641 2828 844 2828 
Q 1066 2828 1233 2700 
Q 1400 2572 1441 2363 
Q 1603 2575 1811 2701 
Q 2019 2828 2266 2828 
Q 2469 2828 2623 2709 
Q 2778 2591 2778 2388 
Q 2778 2225 2676 2104 
Q 2575 1984 2406 1984 
Q 2303 1984 2233 2048 
Q 2163 2113 2163 2216 
Q 2163 2356 2266 2467 
Q 2369 2578 2503 2578 
Q 2400 2663 2253 2663 
Q 1978 2663 1775 2467 
Q 1572 2272 1409 1972 
L 953 141 
Q 931 53 854 -9 
Q 778 -72 684 -72 
Q 606 -72 550 -22 
Q 494 28 494 109 
z
" transform="scale(0.015625)"/>
       <path id="Cmmi10-69" d="M 500 459 
Q 500 578 550 709 
L 1069 2088 
Q 1153 2322 1153 2472 
Q 1153 2663 1013 2663 
Q 759 2663 595 2402 
Q 431 2141 353 1819 
Q 341 1778 300 1778 
L 225 1778 
Q 172 1778 172 1838 
L 172 1856 
Q 275 2238 487 2533 
Q 700 2828 1025 2828 
Q 1253 2828 1411 2678 
Q 1569 2528 1569 2297 
Q 1569 2178 1516 2047 
L 997 672 
Q 909 459 909 288 
Q 909 97 1056 97 
Q 1306 97 1473 364 
Q 1641 631 1709 941 
Q 1722 978 1759 978 
L 1838 978 
Q 1863 978 1878 961 
Q 1894 944 1894 922 
Q 1894 916 1888 903 
Q 1800 541 1583 234 
Q 1366 -72 1044 -72 
Q 819 -72 659 83 
Q 500 238 500 459 
z
M 1222 3878 
Q 1222 4013 1334 4122 
Q 1447 4231 1581 4231 
Q 1691 4231 1761 4164 
Q 1831 4097 1831 3994 
Q 1831 3850 1717 3742 
Q 1603 3634 1466 3634 
Q 1363 3634 1292 3704 
Q 1222 3775 1222 3878 
z
" transform="scale(0.015625)"/>
      </defs>
      <use xlink:href="#Cmmi10-72" transform="translate(0 0.015625)"/>
      <use xlink:href="#Cmmi10-69" transform="translate(45.117188 -16.990625) scale(0.7)"/>
      <use xlink:href="#DejaVuSerif-20" transform="translate(75.591211 0.015625)"/>
      <use xlink:href="#DejaVuSerif-28" transform="translate(107.37832 0.015625)"/>
      <use xlink:href="#DejaVuSerif-61" transform="translate(146.391992 0.015625)"/>
      <use xlink:href="#DejaVuSerif-2e" transform="translate(206.011133 0.015625)"/>
      <use xlink:href="#DejaVuSerif-75" transform="translate(237.798242 0.015625)"/>
      <use xlink:href="#DejaVuSerif-2e" transform="translate(302.202539 0.015625)"/>
      <use xlink:href="#DejaVuSerif-29" transform="translate(333.989648 0.015625)"/>
     </g>
    </g>
   </g>
   <g id="line2d_40">
    <path d="M 153.669733 279.236823 
L 154.970558 259.259644 
L 156.271383 276.308612 
L 157.572208 256.324787 
L 158.873034 273.31472 
L 160.173859 253.399029 
L 160.824271 262.809548 
L 161.474684 270.288202 
L 162.125096 259.322006 
L 162.775509 250.422027 
L 163.425922 259.733522 
L 164.076334 267.246636 
L 165.377159 247.364459 
L 166.677984 264.159317 
L 167.97881 244.273545 
L 168.629222 251.867605 
L 169.279635 260.884316 
L 169.930047 252.488628 
L 170.58046 241.32356 
L 171.230872 246.872798 
L 171.881285 257.116629 
L 172.531698 251.238211 
L 173.18211 238.858718 
L 173.832523 241.217612 
L 174.482935 252.373273 
L 175.133348 250.272865 
L 175.78376 237.382213 
L 176.434173 235.299352 
L 177.084586 246.06522 
L 177.734998 248.87873 
L 178.385411 237.344255 
L 179.035823 230.103729 
L 180.336648 245.657028 
L 180.987061 238.558933 
L 181.637474 227.201913 
L 182.287886 228.737136 
L 182.938299 238.855362 
L 183.588711 239.25663 
L 184.239124 227.870788 
L 184.889536 221.306485 
L 186.190362 235.718998 
L 186.840774 230.80691 
L 187.491187 219.382992 
L 188.141599 216.808268 
L 188.792012 224.939616 
L 189.442424 229.990843 
L 190.092837 223.046285 
L 190.74325 212.496163 
L 191.393662 211.147995 
L 192.044075 218.806205 
L 192.694487 223.146104 
L 193.3449 216.727753 
L 193.995312 206.41934 
L 194.645725 203.458102 
L 195.94655 214.830758 
L 196.596963 211.376649 
L 197.247375 201.571037 
L 197.897788 194.876285 
L 198.5482 196.588551 
L 199.198613 202.549028 
L 199.849026 204.254436 
L 200.499438 198.171256 
L 201.149851 188.833345 
L 201.800263 183.40861 
L 202.450676 184.699493 
L 203.101088 189.080239 
L 203.751501 190.376681 
L 204.401914 185.576324 
L 205.702739 169.545997 
L 206.353151 166.644496 
L 207.003564 167.849739 
L 207.653976 169.769344 
L 208.304389 168.820039 
L 208.954802 163.664806 
L 210.255627 147.519806 
L 210.906039 141.423416 
L 211.556452 137.991449 
L 212.857277 134.533218 
L 213.50769 131.277998 
L 214.158102 125.833971 
L 215.458927 109.933588 
L 216.759752 92.979287 
L 218.060578 78.915802 
L 219.361403 67.680037 
L 220.011815 63.091648 
L 220.662228 59.544606 
L 221.31264 57.556262 
L 221.963053 57.738902 
L 222.613466 60.641942 
L 223.263878 66.551078 
L 223.914291 75.270265 
L 225.865528 106.218225 
L 226.515941 111.588455 
L 227.166354 111.862997 
L 227.816766 107.672804 
L 228.467179 101.912871 
L 229.117591 99.131145 
L 229.768004 103.815777 
L 230.418416 118.115701 
L 231.719242 162.580232 
L 232.369654 176.652913 
L 233.020067 175.157143 
L 233.670479 159.220372 
L 234.320892 139.652182 
L 234.971304 131.101934 
L 235.621717 142.547553 
L 236.922542 199.643048 
L 237.572955 209.744223 
L 238.223367 192.763514 
L 238.87378 163.157008 
L 239.524192 147.768154 
L 240.174605 162.46559 
L 240.825018 198.470216 
L 241.47543 226.921336 
L 242.125843 221.142163 
L 242.776255 186.430618 
L 243.426668 159.762703 
L 244.07708 170.50801 
L 244.727493 210.928815 
L 245.377906 241.809182 
L 246.028318 228.66835 
L 246.678731 186.391888 
L 247.329143 166.568715 
L 247.979556 194.118657 
L 248.629968 240.230819 
L 249.280381 250.66452 
L 250.581206 174.19398 
L 251.231619 189.871381 
L 251.882031 240.138599 
L 252.532444 261.145634 
L 253.833269 180.253879 
L 254.483682 195.607527 
L 255.134094 249.084558 
L 255.784507 266.659537 
L 256.434919 220.551604 
L 257.085332 182.798966 
L 257.735744 211.188745 
L 258.386157 265.705246 
L 259.03657 263.790412 
L 259.686982 207.348472 
L 260.337395 189.539068 
L 261.63822 280.246762 
L 262.288632 244.514927 
L 262.939045 192.999683 
L 263.589458 213.241813 
L 264.23987 273.28132 
L 264.890283 273.53954 
L 265.540695 212.2921 
L 266.191108 199.342779 
L 266.84152 257.071137 
L 267.491933 288.516225 
L 268.142346 235.880588 
L 268.792758 196.876329 
L 270.093583 292.852527 
L 270.743996 256.799201 
L 271.394408 201.498831 
L 272.044821 230.240064 
L 272.695234 291.943686 
L 273.345646 272.569305 
L 273.996059 209.002895 
L 274.646471 223.784467 
L 275.296884 289.752999 
L 275.947296 283.589173 
L 276.597709 216.570287 
L 277.248122 221.117737 
L 277.898534 288.444399 
L 278.548947 290.966719 
L 279.199359 222.749221 
L 279.849772 221.14227 
L 280.500184 288.868511 
L 281.150597 295.856894 
L 281.80101 227.07429 
L 282.451422 223.02352 
L 283.101835 291.134527 
L 283.752247 298.950598 
L 284.40266 229.646627 
L 285.053072 226.267836 
L 285.703485 294.959234 
L 286.353898 300.676774 
L 287.00431 230.870236 
L 287.654723 230.608582 
L 288.305135 299.882608 
L 288.955548 301.295641 
L 289.60596 231.27851 
L 290.256373 235.869531 
L 290.906786 305.377446 
L 291.557198 301.023453 
L 292.207611 231.418435 
L 292.858023 241.845813 
L 293.508436 310.945185 
L 294.158848 300.108811 
L 294.809261 231.76169 
L 295.459674 248.226338 
L 296.110086 316.185973 
L 296.760499 299.000943 
L 297.410911 232.641578 
L 298.061324 254.60525 
L 298.711736 320.832716 
L 299.362149 298.233617 
L 300.012562 234.223637 
L 300.662974 260.48644 
L 301.313387 324.784643 
L 301.963799 298.423414 
L 302.614212 236.54366 
L 303.264624 265.337538 
L 303.915037 328.044521 
L 304.56545 300.076227 
L 305.215862 239.58973 
L 305.866275 268.655375 
L 306.516687 330.586793 
L 307.1671 303.787173 
L 307.817512 243.457716 
L 308.467925 269.998076 
L 309.118338 332.206482 
L 309.76875 309.9685 
L 310.419163 248.557502 
L 311.069575 269.084444 
L 311.719988 332.28344 
L 312.3704 318.829789 
L 313.020813 255.817379 
L 313.671226 266.015589 
L 314.321638 329.636878 
L 314.972051 329.883786 
L 315.622463 266.828361 
L 316.272876 261.734101 
L 316.923288 322.637438 
L 317.573701 341.360161 
L 318.224114 283.596345 
L 318.874526 258.801834 
L 319.524939 309.927711 
L 320.175351 349.194668 
L 321.476176 262.155068 
L 322.126589 292.346803 
L 322.777002 347.117805 
L 323.427414 334.873681 
L 324.077827 278.588275 
L 324.728239 275.913478 
L 325.378652 329.937948 
L 326.029064 355.622046 
L 327.32989 273.832748 
L 327.980302 301.438306 
L 328.630715 352.655287 
L 329.281127 350.878552 
L 329.93154 300.988419 
L 330.581952 282.431504 
L 331.882778 363.35717 
L 332.53319 350.149507 
L 333.183603 303.836884 
L 333.834015 292.415911 
L 335.13484 369.091559 
L 335.785253 360.177987 
L 336.435666 318.672114 
L 337.086078 301.10848 
L 337.736491 328.33883 
L 338.386903 368.992371 
L 339.037316 378.04827 
L 340.338141 318.219477 
L 340.988554 321.965595 
L 342.289379 386.208109 
L 342.939791 387.158344 
L 344.240616 338.42621 
L 344.891029 339.883351 
L 345.541442 364.720113 
L 346.191854 394.090964 
L 346.842267 407.944317 
L 347.492679 400.333371 
L 348.143092 382.343323 
L 348.793504 370.473684 
L 349.443917 373.949269 
L 350.09433 391.144913 
L 350.744742 413.437603 
L 351.395155 431.483405 
L 352.045567 440.324392 
L 352.69598 440.986085 
L 353.346392 438.242593 
L 353.996805 436.90405 
L 354.647218 439.361217 
L 355.29763 445.209124 
L 355.948043 452.233919 
L 356.598455 457.78279 
L 357.248868 459.885572 
L 357.89928 457.895052 
L 358.549693 452.649307 
L 359.200106 446.191609 
L 359.850518 441.043884 
L 360.500931 439.074877 
L 361.151343 440.244052 
L 361.801756 441.878145 
L 362.452168 439.376404 
L 363.102581 428.796182 
L 365.053819 374.646558 
L 365.704231 373.889423 
L 366.354644 386.689249 
L 367.005056 402.711637 
L 367.655469 406.430472 
L 368.305882 389.695906 
L 368.956294 360.892974 
L 369.606707 339.841868 
L 370.257119 342.58067 
L 371.557944 388.377266 
L 372.208357 382.326514 
L 373.509182 320.924982 
L 374.159595 322.538204 
L 374.810007 353.678404 
L 375.46042 378.354625 
L 376.110832 363.870725 
L 376.761245 323.976359 
L 377.411658 302.761936 
L 378.06207 324.819162 
L 378.712483 363.162303 
L 379.362895 364.881968 
L 380.013308 324.605713 
L 380.66372 292.878286 
L 381.314133 310.247542 
L 381.964546 353.838933 
L 382.614958 358.856625 
L 383.265371 315.337837 
L 383.915783 283.638363 
L 384.566196 308.197202 
L 385.216608 353.384422 
L 385.867021 346.493878 
L 386.517434 296.36385 
L 387.167846 277.723843 
L 388.468671 354.490231 
L 389.119084 322.213442 
L 389.769496 274.165148 
L 390.419909 286.069713 
L 391.070322 339.548789 
L 391.720734 340.832874 
L 392.371147 286.169521 
L 393.021559 266.465911 
L 393.671972 315.358656 
L 394.322384 346.577625 
L 395.62321 259.279511 
L 396.273622 292.517156 
L 396.924035 342.554839 
L 397.574447 314.087595 
L 398.22486 259.090424 
L 398.875272 275.07073 
L 399.525685 333.924961 
L 400.176098 321.787289 
L 400.82651 261.299735 
L 401.476923 262.989774 
L 402.127335 324.614191 
L 402.777748 325.239035 
L 403.42816 263.167079 
L 404.078573 254.90703 
L 404.728986 316.733711 
L 405.379398 325.714073 
L 406.029811 263.435589 
L 406.680223 249.409328 
L 407.330636 311.050577 
L 407.981048 324.22102 
L 408.631461 261.77456 
L 409.281874 245.581848 
L 409.932286 307.575939 
L 410.582699 321.43966 
L 411.233111 258.338386 
L 411.883524 242.905891 
L 412.533936 305.943139 
L 413.184349 317.683577 
L 413.834762 253.535324 
L 414.485174 241.147006 
L 415.135587 305.619933 
L 415.785999 313.116041 
L 416.436412 247.879761 
L 417.086824 240.182862 
L 417.737237 305.97289 
L 418.38765 307.872024 
L 419.038062 241.904839 
L 419.688475 239.862937 
L 420.338887 306.456619 
L 420.9893 302.152004 
L 421.639712 236.091775 
L 422.290125 239.94666 
L 422.940538 306.581039 
L 423.59095 296.266942 
L 424.241363 230.807606 
L 424.891775 240.079669 
L 425.542188 306.009811 
L 426.1926 290.604801 
L 426.843013 226.276106 
L 427.493426 239.818116 
L 428.143838 304.579851 
L 428.794251 285.636529 
L 429.444663 222.57323 
L 430.095076 238.638515 
L 430.745488 302.244077 
L 431.395901 281.840472 
L 432.046314 219.708881 
L 432.696726 236.015626 
L 433.347139 298.94212 
L 433.997551 279.639713 
L 434.647964 217.776727 
L 435.298376 231.535333 
L 435.948789 294.425888 
L 436.599202 279.396799 
L 437.249614 217.13306 
L 437.900027 224.905473 
L 438.550439 288.041463 
L 439.200852 281.248253 
L 439.851264 218.595889 
L 440.501677 216.28224 
L 441.15209 278.550624 
L 441.802502 284.716119 
L 442.452915 223.519252 
L 443.103327 206.787942 
L 443.75374 264.284763 
L 444.404152 287.991671 
L 445.054565 233.425614 
L 445.704978 199.178073 
L 447.005803 287.095912 
L 447.656215 248.747668 
L 448.306628 198.083322 
L 448.95704 219.560704 
L 449.607453 276.009038 
L 450.257866 266.362377 
L 450.908278 208.680728 
L 451.558691 197.446798 
L 452.209103 249.952335 
L 452.859516 276.725123 
L 454.160341 189.807152 
L 454.810754 213.266203 
L 455.461166 265.039274 
L 456.111579 259.855559 
L 456.761991 207.199322 
L 457.412404 185.808789 
L 458.713229 265.100011 
L 459.363642 243.259145 
L 460.014054 193.4471 
L 460.664467 183.850958 
L 461.314879 225.93631 
L 461.965292 258.828342 
L 462.615704 234.982003 
L 463.266117 188.114987 
L 463.91653 177.011885 
L 465.217355 249.004322 
L 465.867767 235.969738 
L 466.51818 191.938905 
L 467.168592 167.858091 
L 467.819005 188.424494 
L 468.469418 228.002272 
L 469.11983 238.694525 
L 469.770243 208.521508 
L 470.420655 170.482721 
L 471.071068 160.866758 
L 471.72148 186.148901 
L 472.371893 218.615812 
L 473.022306 224.067755 
L 473.672718 197.484977 
L 474.323131 163.345269 
L 474.973543 148.57512 
L 475.623956 161.818086 
L 476.274368 189.069249 
L 476.924781 205.767355 
L 477.575194 197.767936 
L 478.876019 144.282861 
L 479.526431 131.51462 
L 480.176844 137.184519 
L 481.477669 169.413384 
L 482.128082 172.58455 
L 482.778494 161.35118 
L 484.079319 119.830012 
L 484.729732 104.302657 
L 485.380145 97.121433 
L 486.030557 97.138004 
L 487.331382 104.224666 
L 487.981795 104.47014 
L 488.632207 100.557292 
L 489.28262 93.157423 
L 490.583445 74.782033 
L 491.233858 67.278054 
L 491.88427 62.423793 
L 492.534683 60.601781 
L 493.185095 61.653392 
L 493.835508 65.00681 
L 497.087571 88.413204 
L 497.737983 92.142006 
L 498.388396 96.938909 
L 499.038809 103.866617 
L 499.689221 113.392953 
L 500.990046 136.350764 
L 501.640459 145.157953 
L 502.290871 149.059642 
L 502.941284 147.809232 
L 503.591697 143.945164 
L 504.242109 141.957039 
L 504.892522 145.86525 
L 505.542934 156.499728 
L 506.193347 170.22378 
L 506.843759 180.390232 
L 507.494172 181.575212 
L 508.794997 165.967768 
L 509.44541 165.567752 
L 510.095822 176.390547 
L 510.746235 192.415431 
L 511.396647 202.062202 
L 512.04706 197.961164 
L 512.697473 185.259925 
L 513.347885 178.14362 
L 513.998298 186.074604 
L 514.64871 203.909711 
L 515.299123 215.616906 
L 515.949535 210.005631 
L 516.599948 194.587627 
L 517.250361 188.679456 
L 517.900773 201.289565 
L 518.551186 220.297177 
L 519.201598 224.863187 
L 520.502423 197.001867 
L 521.152836 203.618725 
L 521.803249 224.101821 
L 522.453661 233.537093 
L 523.104074 220.219706 
L 523.754486 204.099899 
L 524.404899 209.623629 
L 525.055311 231.237551 
L 525.705724 240.037289 
L 527.006549 208.591412 
L 527.656962 218.741919 
L 528.307374 241.447636 
L 528.957787 243.62949 
L 529.608199 222.67006 
L 530.258612 213.400248 
L 531.559437 251.51203 
L 532.20985 240.867766 
L 532.860262 219.144462 
L 533.510675 224.11344 
L 534.161087 249.387125 
L 534.8115 254.301217 
L 535.461913 231.320385 
L 536.112325 221.850468 
L 536.762738 243.734417 
L 537.41315 260.906714 
L 538.713975 224.95577 
L 539.364388 239.194028 
L 540.014801 262.994368 
L 540.665213 254.500297 
L 541.315626 230.702383 
L 541.966038 237.217175 
L 542.616451 263.456738 
L 543.266863 262.062566 
L 543.917276 236.820701 
L 544.567689 237.379238 
L 545.218101 264.050945 
L 545.868514 267.640293 
L 546.518926 242.204127 
L 547.169339 238.813415 
L 547.819751 265.413505 
L 548.470164 272.080116 
L 549.120577 246.593412 
L 549.770989 240.904017 
L 550.421402 267.59136 
L 551.071814 275.869541 
L 551.722227 250.094787 
L 552.372639 243.391854 
L 553.023052 270.448108 
L 553.673465 279.179712 
L 554.323877 252.898314 
L 554.97429 246.245671 
L 555.624702 273.831748 
L 556.275115 282.022597 
L 556.925527 255.187605 
L 557.57594 249.51458 
L 558.226353 277.602599 
L 558.876765 284.379955 
L 559.527178 257.135779 
L 560.17759 253.228366 
L 560.828003 281.621067 
L 561.478415 286.279493 
L 562.128828 258.913419 
L 562.779241 257.346347 
L 563.429653 285.744511 
L 564.080066 287.829905 
L 564.730478 260.682698 
L 565.380891 261.741369 
L 566.031303 289.840957 
L 566.681716 289.226053 
L 567.332129 262.582343 
L 567.982541 266.207571 
L 568.632954 293.805373 
L 569.283366 290.737917 
L 569.933779 264.71942 
L 570.584191 270.487946 
L 571.234604 297.563722 
L 571.885017 292.670678 
L 572.535429 267.183932 
L 573.185842 274.312118 
L 573.836254 301.047919 
L 574.486667 295.328182 
L 575.137079 270.089092 
L 575.787492 277.439486 
L 576.437905 304.144105 
L 577.088317 298.962838 
L 577.73873 273.632756 
L 578.389142 279.720567 
L 579.039555 306.629396 
L 579.689967 303.697995 
L 580.34038 278.158992 
L 580.990793 281.185821 
L 581.641205 308.12854 
L 582.291618 309.410295 
L 582.94203 284.17934 
L 583.592443 282.18338 
L 584.242855 308.148132 
L 584.893268 315.554605 
L 585.543681 292.283125 
L 586.194093 283.56396 
L 586.844506 306.272858 
L 587.494918 320.971465 
L 588.795743 286.846151 
L 589.446156 302.62661 
L 590.096569 323.842155 
L 590.746981 315.240309 
L 591.397394 294.134312 
L 592.047806 298.659233 
L 592.698219 322.192292 
L 593.348631 327.057018 
L 593.999044 307.216206 
L 594.649457 298.020655 
L 595.950282 333.349423 
L 596.600694 324.943455 
L 597.251107 306.248814 
L 597.901519 308.402182 
L 598.551932 329.329164 
L 599.202345 339.482654 
L 600.50317 311.388739 
L 601.153582 318.621087 
L 601.803995 338.844711 
L 602.454407 346.101236 
L 603.755233 319.971986 
L 604.405645 326.167173 
L 605.056058 345.04182 
L 605.70647 355.106352 
L 606.356883 346.621717 
L 607.007295 333.017207 
L 607.657708 332.665221 
L 608.958533 363.008449 
L 609.608946 365.239235 
L 610.909771 346.409563 
L 611.560183 349.824084 
L 612.861009 377.760936 
L 613.511421 382.410421 
L 614.161834 377.550544 
L 614.812246 370.962702 
L 615.462659 370.700665 
L 616.113071 379.00224 
L 617.413897 403.714883 
L 618.064309 410.107962 
L 618.714722 411.439687 
L 619.365134 411.01264 
L 620.015547 412.472994 
L 620.665959 417.712701 
L 621.316372 426.414748 
L 622.617197 447.038907 
L 623.26761 455.606176 
L 623.918022 462.008193 
L 624.568435 466.259875 
L 625.218847 468.452774 
L 625.86926 468.394196 
L 626.519673 465.569816 
L 627.170085 459.470106 
L 627.820498 450.155066 
L 629.121323 427.665399 
L 629.771735 419.733266 
L 630.422148 417.110151 
L 631.072561 419.541584 
L 631.722973 423.470003 
L 632.373386 423.062679 
L 633.023798 413.677555 
L 634.324623 376.818891 
L 634.975036 366.052944 
L 635.625449 369.504329 
L 636.275861 383.414961 
L 636.926274 394.470761 
L 637.576686 389.358842 
L 638.877511 344.832128 
L 639.527924 338.580548 
L 640.178337 354.01329 
L 640.828749 374.967818 
L 641.479162 376.676222 
L 642.779987 326.124348 
L 643.430399 322.454073 
L 644.731225 368.017963 
L 645.381637 358.620668 
L 646.03205 325.853938 
L 646.682462 307.177651 
L 647.332875 324.77067 
L 647.983287 355.789933 
L 648.6337 355.876808 
L 649.284113 321.901473 
L 649.934525 297.510429 
L 650.584938 314.725293 
L 651.23535 349.272254 
L 651.885763 348.025575 
L 652.536175 310.35858 
L 653.186588 289.466641 
L 653.837001 315.285155 
L 654.487413 348.060635 
L 655.137826 333.407579 
L 655.788238 292.719887 
L 656.438651 287.676115 
L 657.089063 326.063212 
L 657.739476 343.485253 
L 659.040301 277.617351 
L 659.690714 300.52649 
L 660.341126 338.283257 
L 660.991539 322.576796 
L 661.641951 279.523235 
L 662.292364 281.515668 
L 662.942777 325.108222 
L 663.593189 330.085857 
L 664.243602 285.763519 
L 664.894014 269.934569 
L 665.544427 310.567467 
L 666.194839 331.823824 
L 666.845252 291.835174 
L 667.495665 263.32732 
L 668.79649 330.126415 
L 670.097315 259.252171 
L 670.747727 287.71398 
L 671.39814 326.957607 
L 672.048553 297.985519 
L 672.698965 256.162795 
L 673.349378 280.135646 
L 673.99979 323.480886 
L 674.650203 297.920723 
L 675.300615 253.234113 
L 675.951028 274.767764 
L 676.601441 320.23173 
L 677.251853 296.063435 
L 677.902266 250.149057 
L 678.552678 271.297745 
L 679.203091 317.359514 
L 679.853503 292.653215 
L 680.503916 246.861664 
L 681.154329 269.45645 
L 681.804741 314.785192 
L 682.455154 287.946727 
L 683.105566 243.469818 
L 683.755979 268.9154 
L 684.406391 312.331734 
L 685.056804 282.250789 
L 685.707217 240.117993 
L 686.357629 269.282934 
L 687.008042 309.813366 
L 688.308867 236.918884 
L 689.609692 307.113825 
L 690.910517 233.908131 
L 692.211342 304.230407 
L 692.861755 263.342119 
L 693.512167 231.02513 
L 694.16258 271.054285 
L 694.812993 301.259033 
L 695.463405 257.996647 
L 696.113818 228.148712 
L 696.76423 270.138246 
L 697.414643 298.335577 
L 698.065055 253.873259 
L 698.715468 225.167192 
L 699.365881 267.70471 
L 700.016293 295.549899 
L 700.666706 251.324998 
L 701.317118 222.052828 
L 701.967531 263.413071 
L 702.617943 292.843699 
L 703.268356 250.619938 
L 703.918769 218.948392 
L 705.219594 289.92356 
L 706.520419 216.241555 
L 707.170831 248.35571 
L 707.821244 286.175969 
L 708.471657 255.382109 
L 709.122069 214.670462 
L 709.772482 237.423949 
L 710.422894 280.437497 
L 711.073307 260.821328 
L 711.723719 215.50383 
L 712.374132 224.693449 
L 713.024545 270.919495 
L 713.674957 267.415913 
L 714.32537 220.676378 
L 714.975782 211.906342 
L 715.626195 255.277995 
L 716.276607 272.332245 
L 716.92702 232.128001 
L 717.577433 203.366241 
L 718.227845 232.607242 
L 718.878258 269.317776 
L 719.52867 249.023978 
L 720.179083 205.947448 
L 720.829495 207.873881 
L 721.479908 250.565632 
L 722.130321 262.670168 
L 722.780733 224.198856 
L 723.431146 194.913509 
L 724.081558 217.1771 
L 724.731971 255.607813 
L 725.382383 249.064528 
L 726.032796 207.909071 
L 726.683209 190.846971 
L 727.984034 251.584427 
L 728.634446 238.569681 
L 729.284859 199.814091 
L 729.935271 186.112596 
L 731.236097 242.853436 
L 731.886509 234.062049 
L 732.536922 198.565708 
L 733.187334 179.200787 
L 733.837747 196.644056 
L 734.488159 227.652071 
L 735.138572 232.716496 
L 736.439397 176.443053 
L 737.08981 174.337178 
L 738.390635 221.55816 
L 739.041047 217.099633 
L 740.341873 164.801684 
L 740.992285 162.247683 
L 742.29311 202.521542 
L 742.943523 205.564259 
L 743.593935 187.367986 
L 744.244348 161.824789 
L 744.894761 145.849835 
L 745.545173 147.414243 
L 746.845998 176.726935 
L 747.496411 180.204106 
L 748.146823 169.377655 
L 749.447649 131.111459 
L 750.098061 119.59292 
L 750.748474 117.393462 
L 751.398886 121.854334 
L 752.049299 127.8715 
L 752.699711 130.623761 
L 753.350124 127.537938 
L 754.000537 118.756952 
L 756.602187 70.523436 
L 757.252599 63.20421 
L 757.903012 58.203802 
L 758.553425 54.99684 
L 759.203837 53.212545 
L 759.85425 52.858264 
L 760.504662 54.350471 
L 761.155075 58.362215 
L 761.805487 65.522334 
L 762.4559 76.027604 
L 764.407138 116.178187 
L 765.05755 124.122027 
L 765.707963 125.089309 
L 766.358375 119.066244 
L 767.008788 109.232447 
L 767.659201 101.466142 
L 768.309613 102.188902 
L 768.960026 115.265979 
L 770.911263 185.087784 
L 771.561676 184.893635 
L 772.212089 165.80738 
L 772.862501 140.685046 
L 773.512914 128.122322 
L 774.163326 139.933891 
L 775.464151 207.048981 
L 776.114564 218.619191 
L 776.764977 196.955716 
L 777.415389 160.464937 
L 778.065802 142.415345 
L 778.716214 161.093979 
L 779.366627 204.408449 
L 780.017039 236.610511 
L 780.667452 226.165638 
L 781.317865 182.752553 
L 781.968277 153.035979 
L 782.61869 169.461563 
L 783.269102 218.464341 
L 783.919515 251.316326 
L 784.569927 229.862161 
L 785.22034 179.075746 
L 785.870753 161.335596 
L 786.521165 198.786879 
L 787.171578 251.000916 
L 787.82199 254.723853 
L 788.472403 203.255235 
L 789.122815 166.673645 
L 789.773228 193.688007 
L 790.423641 252.176212 
L 791.074053 265.89645 
L 791.724466 213.119635 
L 792.374878 171.557254 
L 793.025291 200.843948 
L 793.675703 262.678366 
L 794.326116 269.376407 
L 794.976529 208.240678 
L 795.626941 175.315267 
L 796.277354 220.333732 
L 796.927766 279.320957 
L 797.578179 260.53695 
L 798.228591 192.942187 
L 798.879004 187.612895 
L 799.529417 253.035404 
L 800.179829 288.716573 
L 801.480654 181.967507 
L 802.131067 220.928498 
L 802.781479 287.808757 
L 803.431892 269.723594 
L 803.431892 269.723594 
" clip-path="url(#pf6b153a695)" style="fill: none; stroke: #1f77b4; stroke-width: 3; stroke-linecap: square"/>
   </g>
   <g id="line2d_41">
    <path d="M 153.669733 279.233705 
L 154.970558 259.262175 
L 156.271383 276.305778 
L 157.572208 256.32653 
L 158.873034 273.313079 
L 160.173859 253.399171 
L 160.824271 262.812049 
L 161.474684 270.288339 
L 162.125096 259.319057 
L 162.775509 250.420298 
L 163.425922 259.735283 
L 164.076334 267.248422 
L 165.377159 247.361478 
L 166.677984 264.161671 
L 167.97881 244.270834 
L 168.629222 251.865332 
L 169.279635 260.885486 
L 169.930047 252.490833 
L 170.58046 241.322845 
L 171.230872 246.869646 
L 171.881285 257.115295 
L 172.531698 251.240187 
L 173.18211 238.860488 
L 173.832523 241.215983 
L 174.482935 252.370082 
L 175.133348 250.272327 
L 175.78376 237.384568 
L 176.434173 235.300682 
L 177.084586 246.063058 
L 177.734998 248.875655 
L 178.385411 237.344079 
L 179.035823 230.106119 
L 180.336648 245.654809 
L 180.987061 238.555884 
L 181.637474 227.201481 
L 182.287886 228.739242 
L 182.938299 238.85668 
L 183.588711 239.25493 
L 184.239124 227.867691 
L 184.889536 221.305134 
L 186.190362 235.720756 
L 186.840774 230.806439 
L 187.491187 219.380267 
L 188.141599 216.805659 
L 188.792012 224.939288 
L 189.442424 229.992475 
L 190.092837 223.047483 
L 190.74325 212.495048 
L 191.393662 211.144993 
L 192.044075 218.803592 
L 192.694487 223.14579 
L 193.3449 216.729373 
L 193.995312 206.42069 
L 194.645725 203.457228 
L 195.94655 214.827497 
L 196.596963 211.375328 
L 197.247375 201.572025 
L 197.897788 194.878008 
L 198.5482 196.588879 
L 199.198613 202.546956 
L 199.849026 204.250812 
L 200.499438 198.167974 
L 201.149851 188.831838 
L 201.800263 183.408946 
L 202.450676 184.700531 
L 203.101088 189.080486 
L 203.751501 190.375232 
L 204.401914 185.573277 
L 205.702739 169.542376 
L 206.353151 166.641719 
L 207.003564 167.847949 
L 207.653976 169.768255 
L 208.304389 168.819129 
L 208.954802 163.663522 
L 210.255627 147.516581 
L 210.906039 141.418974 
L 211.556452 137.985855 
L 212.857277 134.526006 
L 213.50769 131.27039 
L 214.158102 125.826156 
L 215.458927 109.925327 
L 216.759752 92.96963 
L 218.060578 78.903451 
L 219.361403 67.664459 
L 220.011815 63.074798 
L 220.662228 59.527146 
L 221.31264 57.539272 
L 221.963053 57.723941 
L 222.613466 60.631074 
L 223.263878 66.546837 
L 223.914291 75.275528 
L 225.865528 106.268451 
L 226.515941 111.656513 
L 227.166354 111.947237 
L 227.816766 107.768395 
L 228.467179 102.011052 
L 229.117591 99.219213 
L 229.768004 103.878427 
L 230.418416 118.138033 
L 231.719242 162.501572 
L 232.369654 176.537611 
L 233.020067 175.033686 
L 233.670479 159.125136 
L 234.320892 139.616739 
L 234.971304 131.140449 
L 235.621717 142.64977 
L 236.922542 199.750142 
L 237.572955 209.775107 
L 238.223367 192.696163 
L 238.87378 163.019588 
L 239.524192 147.625911 
L 240.174605 162.387171 
L 240.825018 198.496315 
L 241.47543 227.039205 
L 242.125843 221.276342 
L 242.776255 186.48544 
L 243.426668 159.696881 
L 244.07708 170.361749 
L 244.727493 210.79692 
L 245.377906 241.789728 
L 246.028318 228.784203 
L 246.678731 186.549251 
L 247.329143 166.640957 
L 247.979556 194.051831 
L 248.629968 240.079412 
L 249.280381 250.568131 
L 250.581206 174.359581 
L 251.231619 189.994795 
L 251.882031 240.111048 
L 252.532444 260.992602 
L 253.833269 180.309539 
L 254.483682 195.770869 
L 255.134094 249.191454 
L 255.784507 266.586212 
L 256.434919 220.378931 
L 257.085332 182.72631 
L 257.735744 211.287654 
L 258.386157 265.861246 
L 259.03657 263.803163 
L 259.686982 207.189281 
L 260.337395 189.396802 
L 261.63822 280.407095 
L 262.288632 244.580413 
L 262.939045 192.871538 
L 263.589458 213.077455 
L 264.23987 273.280248 
L 264.890283 273.705207 
L 265.540695 212.381132 
L 266.191108 199.233478 
L 266.84152 256.908091 
L 267.491933 288.529412 
L 268.142346 236.060314 
L 268.792758 196.962753 
L 270.093583 292.705049 
L 270.743996 256.859372 
L 271.394408 201.684663 
L 272.044821 230.295332 
L 272.695234 291.79971 
L 273.345646 272.460235 
L 273.996059 209.117434 
L 274.646471 223.95552 
L 275.296884 289.738154 
L 275.947296 283.412084 
L 276.597709 216.530336 
L 277.248122 221.274654 
L 277.898534 288.562024 
L 278.548947 290.847709 
L 279.199359 222.589098 
L 279.849772 221.188482 
L 280.500184 289.038947 
L 281.150597 295.860286 
L 281.80101 226.88881 
L 282.451422 222.940268 
L 283.101835 291.266322 
L 283.752247 299.066309 
L 284.40266 229.525171 
L 285.053072 226.100333 
L 285.703485 294.995862 
L 286.353898 300.84892 
L 287.00431 230.860178 
L 287.654723 230.429305 
L 288.305135 299.814886 
L 288.955548 301.456836 
L 289.60596 231.378734 
L 290.256373 235.74496 
L 290.906786 305.23401 
L 291.557198 301.118762 
L 292.207611 231.590426 
L 292.858023 241.816319 
L 293.508436 310.775277 
L 294.158848 300.108621 
L 294.809261 231.947188 
L 295.459674 248.298758 
L 296.110086 316.042787 
L 296.760499 298.905364 
L 297.410911 232.780657 
L 298.061324 254.754686 
L 298.711736 320.76013 
L 299.362149 298.07147 
L 300.012562 234.270934 
L 300.662974 260.664007 
L 301.313387 324.806498 
L 301.963799 298.246521 
L 302.614212 236.481815 
L 303.264624 265.482822 
L 303.915037 328.155781 
L 304.56545 299.94709 
L 305.215862 239.43839 
L 305.866275 268.71342 
L 306.516687 330.748647 
L 307.1671 303.758783 
L 307.817512 243.274594 
L 308.467925 269.94115 
L 309.118338 332.350891 
L 309.76875 310.05775 
L 310.419163 248.42478 
L 311.069575 268.933431 
L 311.719988 332.335889 
L 312.3704 318.994257 
L 313.020813 255.807498 
L 313.671226 265.84791 
L 314.321638 329.560202 
L 314.972051 330.022979 
L 315.622463 266.95293 
L 316.272876 261.657057 
L 316.923288 322.478378 
L 317.573701 341.368608 
L 318.224114 283.767202 
L 318.874526 258.879934 
L 319.524939 309.816293 
L 320.175351 349.062946 
L 321.476176 262.324295 
L 322.126589 292.398121 
L 322.777002 346.991386 
L 323.427414 334.760179 
L 324.077827 278.663208 
L 324.728239 276.075766 
L 325.378652 329.985907 
L 326.029064 355.493998 
L 327.32989 273.882597 
L 327.980302 301.59238 
L 328.630715 352.726741 
L 329.281127 350.77144 
L 329.93154 300.841443 
L 330.581952 282.418952 
L 331.882778 363.474285 
L 332.53319 350.110266 
L 333.183603 303.684195 
L 333.834015 292.313075 
L 335.13484 369.227709 
L 335.785253 360.256328 
L 336.435666 318.604746 
L 337.086078 300.962271 
L 337.736491 328.241594 
L 338.386903 369.023782 
L 339.037316 378.174855 
L 340.338141 318.206724 
L 340.988554 321.855205 
L 342.289379 386.15768 
L 342.939791 387.217115 
L 344.240616 338.526313 
L 344.891029 339.907495 
L 345.541442 364.661074 
L 346.191854 393.984333 
L 346.842267 407.847278 
L 347.492679 400.292051 
L 348.143092 382.370122 
L 348.793504 370.550872 
L 349.443917 374.045573 
L 350.09433 391.229281 
L 350.744742 413.487718 
L 351.395155 431.490265 
L 352.045567 440.292031 
L 352.69598 440.926228 
L 353.346392 438.167858 
L 353.996805 436.823936 
L 354.647218 439.281518 
L 355.29763 445.133007 
L 355.948043 452.163169 
L 356.598455 457.718829 
L 357.248868 459.830327 
L 357.89928 457.851762 
L 358.549693 452.6232 
L 359.200106 446.190323 
L 359.850518 441.077465 
L 360.500931 439.154782 
L 361.151343 440.379786 
L 361.801756 442.070021 
L 362.452168 439.605598 
L 363.102581 429.019034 
L 365.053819 374.527401 
L 365.704231 373.63895 
L 366.354644 386.384249 
L 367.005056 402.475446 
L 367.655469 406.383081 
L 368.305882 389.875258 
L 368.956294 361.215654 
L 369.606707 340.140723 
L 370.257119 342.684692 
L 371.557944 388.039192 
L 372.208357 382.067494 
L 373.509182 321.22745 
L 374.159595 322.915642 
L 374.810007 353.835314 
L 375.46042 378.1481 
L 376.110832 363.494583 
L 376.761245 323.780076 
L 377.411658 302.933407 
L 378.06207 325.225407 
L 378.712483 363.405915 
L 379.362895 364.699811 
L 380.013308 324.194086 
L 380.66372 292.654594 
L 381.314133 310.452137 
L 381.964546 354.253502 
L 382.614958 358.974851 
L 383.265371 315.012423 
L 383.915783 283.220174 
L 384.566196 308.151754 
L 385.216608 353.765551 
L 385.867021 346.780443 
L 386.517434 296.173618 
L 387.167846 277.258922 
L 388.468671 354.826529 
L 389.119084 322.568354 
L 389.769496 274.049052 
L 390.419909 285.598955 
L 391.070322 339.355117 
L 391.720734 341.187467 
L 392.371147 286.542352 
L 393.021559 266.339008 
L 393.671972 314.88677 
L 394.322384 346.479805 
L 395.62321 259.619639 
L 396.273622 292.291715 
L 396.924035 342.120388 
L 397.574447 314.160844 
L 398.22486 259.576248 
L 398.875272 275.287 
L 399.525685 333.549218 
L 400.176098 321.477476 
L 400.82651 261.571474 
L 401.476923 263.476139 
L 402.127335 324.570081 
L 402.777748 324.774462 
L 403.42816 263.072141 
L 404.078573 255.360858 
L 404.728986 317.03625 
L 405.379398 325.363018 
L 406.029811 263.042445 
L 406.680223 249.603208 
L 407.330636 311.53348 
L 407.981048 324.143909 
L 408.631461 261.273084 
L 409.281874 245.441515 
L 409.932286 308.023682 
L 410.582699 321.655145 
L 411.233111 257.931076 
L 411.883524 242.497005 
L 412.533936 306.187744 
L 413.184349 318.102261 
L 413.834762 253.366138 
L 414.485174 240.620694 
L 415.135587 305.584577 
L 415.785999 313.593624 
L 416.436412 248.002594 
L 417.086824 239.715643 
L 417.737237 305.675418 
L 418.38765 308.257142 
L 419.038062 242.280288 
L 419.688475 239.605279 
L 420.338887 305.992089 
L 420.9893 302.32347 
L 421.639712 236.601873 
L 422.290125 239.98405 
L 422.940538 306.09351 
L 423.59095 296.164096 
L 424.241363 231.285372 
L 424.891775 240.407067 
L 425.542188 305.6575 
L 426.1926 290.251492 
L 426.843013 226.550507 
L 427.493426 240.327839 
L 428.143838 304.491748 
L 428.794251 285.15067 
L 429.444663 222.528366 
L 430.095076 239.138457 
L 430.745488 302.468318 
L 431.395901 281.41646 
L 432.046314 219.346701 
L 432.696726 236.284929 
L 433.347139 299.395936 
L 433.997551 279.482996 
L 434.647964 217.256685 
L 435.298376 231.423481 
L 435.948789 294.883368 
L 436.599202 279.609928 
L 437.249614 216.739965 
L 437.900027 224.454216 
L 438.550439 288.213312 
L 439.200852 281.713537 
L 439.851264 218.594549 
L 440.501677 215.782465 
L 441.15209 278.283292 
L 441.802502 285.086124 
L 442.452915 223.927148 
L 443.103327 206.643054 
L 443.75374 263.781162 
L 444.404152 287.916582 
L 445.054565 233.883061 
L 445.704978 199.541474 
L 447.005803 286.637122 
L 447.656215 248.759244 
L 448.306628 198.562915 
L 448.95704 219.911978 
L 449.607453 275.766599 
L 450.257866 265.914194 
L 450.908278 208.653792 
L 451.558691 197.897104 
L 452.209103 250.329561 
L 452.859516 276.533255 
L 454.160341 189.632242 
L 454.810754 213.605658 
L 455.461166 265.473405 
L 456.111579 259.824035 
L 456.761991 206.749686 
L 457.412404 185.42521 
L 458.713229 265.543036 
L 459.363642 243.504892 
L 460.014054 193.223353 
L 460.664467 183.364602 
L 461.314879 225.662074 
L 461.965292 259.042359 
L 462.615704 235.425565 
L 463.266117 188.341543 
L 463.91653 176.810943 
L 465.217355 248.724177 
L 465.867767 236.122959 
L 466.51818 192.374628 
L 467.168592 168.22842 
L 467.819005 188.44664 
L 468.469418 227.666626 
L 469.11983 238.294951 
L 469.770243 208.378627 
L 470.420655 170.693316 
L 471.071068 161.294564 
L 471.72148 186.523974 
L 472.371893 218.697966 
L 473.022306 223.820224 
L 473.672718 197.08215 
L 474.323131 163.020186 
L 474.973543 148.489957 
L 475.623956 162.007271 
L 476.274368 189.431297 
L 476.924781 206.117946 
L 477.575194 197.943794 
L 478.876019 144.014465 
L 479.526431 131.139629 
L 480.176844 136.821179 
L 481.477669 169.337694 
L 482.128082 172.686613 
L 482.778494 161.589459 
L 484.079319 120.146361 
L 484.729732 104.574613 
L 485.380145 97.318045 
L 486.030557 97.247705 
L 487.331382 104.179363 
L 487.981795 104.369155 
L 488.632207 100.416195 
L 489.28262 92.989688 
L 490.583445 74.590073 
L 491.233858 67.083165 
L 491.88427 62.229443 
L 492.534683 60.410465 
L 493.185095 61.46762 
L 493.835508 64.830177 
L 495.136333 75.055178 
L 496.437158 84.6338 
L 497.737983 92.252675 
L 498.388396 97.151249 
L 499.038809 104.18137 
L 499.689221 113.792226 
L 500.990046 136.771884 
L 501.640459 145.477427 
L 502.290871 149.198752 
L 502.941284 147.715666 
L 503.591697 143.618501 
L 504.242109 141.463898 
L 504.892522 145.334565 
L 505.542934 156.094343 
L 506.193347 170.090394 
L 506.843759 180.596246 
L 507.494172 182.055889 
L 508.144585 174.871291 
L 508.794997 166.347665 
L 509.44541 165.581737 
L 510.095822 176.017597 
L 510.746235 191.835756 
L 511.396647 201.596522 
L 512.04706 197.900558 
L 512.697473 185.661449 
L 513.347885 178.766186 
L 513.998298 186.52335 
L 514.64871 203.880908 
L 515.299123 215.116693 
L 515.949535 209.402303 
L 516.599948 194.356745 
L 517.250361 189.009903 
L 517.900773 201.92737 
L 518.551186 220.722697 
L 519.201598 224.692204 
L 520.502423 196.479336 
L 521.152836 203.675567 
L 521.803249 224.685247 
L 522.453661 234.07724 
L 523.104074 220.145166 
L 523.754486 203.470037 
L 524.404899 209.070983 
L 525.055311 231.325412 
L 525.705724 240.676801 
L 527.006549 208.341799 
L 527.656962 218.054437 
L 528.307374 241.098421 
L 528.957787 244.047879 
L 529.608199 223.352468 
L 530.258612 213.516363 
L 531.559437 250.956128 
L 532.20985 241.079486 
L 532.860262 219.863937 
L 533.510675 224.426058 
L 534.161087 248.902976 
L 534.8115 253.676203 
L 535.461913 231.443655 
L 536.112325 222.564365 
L 536.762738 244.086095 
L 537.41315 260.410727 
L 538.713975 225.11277 
L 539.364388 239.909539 
L 540.014801 263.245123 
L 540.665213 253.894684 
L 541.315626 230.146422 
L 541.966038 237.51653 
L 542.616451 264.157071 
L 543.266863 262.072812 
L 543.917276 236.099198 
L 544.567689 237.013222 
L 545.218101 264.571542 
L 545.868514 268.218216 
L 546.518926 241.8832 
L 547.169339 238.086245 
L 547.819751 265.390522 
L 548.470164 272.792183 
L 549.120577 246.856173 
L 549.770989 240.287204 
L 550.421402 267.070975 
L 551.071814 276.2977 
L 551.722227 250.76103 
L 552.372639 243.203478 
L 553.023052 269.72482 
L 553.673465 279.133321 
L 554.323877 253.631742 
L 554.97429 246.546268 
L 555.624702 273.233227 
L 556.275115 281.548601 
L 556.925527 255.685091 
L 557.57594 250.158505 
L 558.226353 277.351281 
L 558.876765 283.675005 
L 559.527178 257.22693 
L 560.17759 253.969894 
L 560.828003 281.787667 
L 561.478415 285.589171 
L 562.128828 258.582036 
L 562.779241 257.9374 
L 563.429653 286.261368 
L 564.080066 287.371368 
L 564.730478 260.043308 
L 565.380891 261.999536 
L 566.031303 290.541964 
L 566.681716 289.137782 
L 567.332129 261.836528 
L 567.982541 266.055806 
L 568.632954 294.474186 
L 569.283366 291.049612 
L 569.933779 264.102671 
L 570.584191 269.972498 
L 571.234604 297.986186 
L 571.885017 293.288972 
L 572.535429 266.904541 
L 573.185842 273.600365 
L 573.836254 301.071593 
L 574.486667 296.0439 
L 575.137079 270.259197 
L 575.787492 276.789886 
L 576.437905 303.743636 
L 577.088317 299.495404 
L 577.73873 274.201278 
L 578.389142 279.409545 
L 579.039555 305.959739 
L 579.689967 303.794669 
L 580.34038 278.877417 
L 580.990793 281.38298 
L 581.641205 307.519674 
L 582.291618 308.99727 
L 582.94203 284.657775 
L 583.592443 282.804242 
L 584.242855 307.976389 
L 584.893268 314.873482 
L 585.543681 292.19359 
L 586.194093 284.206149 
L 586.844506 306.689197 
L 587.494918 320.54044 
L 588.795743 286.97938 
L 589.446156 303.294331 
L 590.096569 324.075966 
L 590.746981 314.687197 
L 591.397394 293.60347 
L 592.047806 298.87999 
L 592.698219 322.840726 
L 593.348631 327.214675 
L 593.999044 306.650098 
L 594.649457 297.497157 
L 595.950282 333.979729 
L 596.600694 325.172262 
L 597.251107 305.771249 
L 597.901519 307.816092 
L 598.551932 329.328841 
L 599.202345 340.054259 
L 600.50317 311.164249 
L 601.153582 318.01008 
L 601.803995 338.520901 
L 602.454407 346.417265 
L 603.755233 320.208168 
L 604.405645 325.82231 
L 605.056058 344.470222 
L 605.70647 354.871361 
L 606.356883 346.947714 
L 607.007295 333.586456 
L 607.657708 332.975215 
L 608.958533 362.49238 
L 609.608946 364.829787 
L 610.909771 346.82308 
L 611.560183 350.331534 
L 612.861009 377.637662 
L 613.511421 381.989518 
L 614.161834 377.092189 
L 614.812246 370.712295 
L 615.462659 370.761923 
L 616.113071 379.321477 
L 617.413897 404.070968 
L 618.064309 410.278443 
L 618.714722 411.392609 
L 619.365134 410.788614 
L 620.015547 412.147521 
L 620.665959 417.361921 
L 621.316372 426.095819 
L 622.617197 446.854324 
L 623.26761 455.48329 
L 623.918022 461.929768 
L 624.568435 466.209068 
L 625.218847 468.419104 
L 625.86926 468.376794 
L 626.519673 465.578298 
L 627.170085 459.523112 
L 627.820498 450.276137 
L 629.121323 427.977244 
L 629.771735 420.138135 
L 630.422148 417.571955 
L 631.072561 419.98912 
L 631.722973 423.798498 
L 632.373386 423.15801 
L 633.023798 413.469263 
L 634.324623 376.211302 
L 634.975036 365.545895 
L 635.625449 369.322922 
L 636.275861 383.673004 
L 636.926274 395.062288 
L 637.576686 389.955123 
L 638.877511 344.528594 
L 639.527924 337.892613 
L 640.178337 353.369702 
L 640.828749 374.836937 
L 641.479162 377.174284 
L 642.129574 353.921772 
L 642.779987 326.503559 
L 643.430399 322.151071 
L 644.731225 367.485331 
L 645.381637 358.845844 
L 646.03205 326.631766 
L 646.682462 307.791897 
L 647.332875 324.620815 
L 647.983287 355.01681 
L 648.6337 355.348708 
L 649.284113 322.220078 
L 649.934525 298.369952 
L 650.584938 315.227873 
L 651.23535 348.837651 
L 651.885763 347.208703 
L 652.536175 310.177105 
L 653.186588 290.170906 
L 653.837001 316.082533 
L 654.487413 347.940793 
L 655.137826 332.553208 
L 655.788238 292.254678 
L 656.438651 288.213398 
L 657.089063 326.934724 
L 657.739476 343.46794 
L 659.040301 277.054468 
L 659.690714 301.040996 
L 660.341126 339.133322 
L 660.991539 322.467305 
L 661.641951 278.59116 
L 662.292364 281.022128 
L 662.942777 325.761446 
L 663.593189 330.827387 
L 664.243602 285.423273 
L 664.894014 268.951202 
L 665.544427 310.360378 
L 666.194839 332.682038 
L 666.845252 292.336424 
L 667.495665 262.669352 
L 668.79649 330.425984 
L 670.097315 259.339811 
L 670.747727 286.77215 
L 671.39814 326.531157 
L 672.048553 298.785101 
L 672.698965 256.907269 
L 673.349378 279.653388 
L 673.99979 322.593221 
L 674.650203 298.188115 
L 675.300615 254.248259 
L 675.951028 274.951137 
L 676.601441 319.310013 
L 677.251853 295.709435 
L 677.902266 250.999529 
L 678.552678 272.045456 
L 679.203091 316.769078 
L 679.853503 291.836594 
L 680.503916 247.237032 
L 681.154329 270.477519 
L 681.804741 314.721012 
L 682.455154 286.961113 
L 683.105566 243.250942 
L 683.755979 269.86137 
L 684.406391 312.800764 
L 685.056804 281.417328 
L 685.707217 239.380086 
L 686.357629 269.852948 
L 687.008042 310.664757 
L 688.308867 235.894477 
L 689.609692 308.088372 
L 690.910517 232.924608 
L 692.211342 305.021537 
L 692.861755 264.013193 
L 693.512167 230.419457 
L 694.16258 270.105932 
L 694.812993 301.589878 
L 695.463405 258.981595 
L 696.113818 228.160727 
L 696.76423 269.128788 
L 697.414643 298.057123 
L 698.065055 254.797536 
L 698.715468 225.824054 
L 699.365881 267.051058 
L 700.016293 294.744776 
L 700.666706 251.76958 
L 701.317118 223.087142 
L 701.967531 263.450366 
L 702.617943 291.87956 
L 703.268356 250.326202 
L 703.918769 219.830366 
L 705.219594 289.358545 
L 706.520419 216.413219 
L 707.821244 286.436482 
L 708.471657 254.488962 
L 709.122069 213.968755 
L 709.772482 237.93377 
L 710.422894 281.36173 
L 711.073307 260.68877 
L 711.723719 214.496895 
L 712.374132 224.182724 
L 713.024545 271.618359 
L 713.674957 268.204094 
L 714.32537 220.381103 
L 714.975782 210.880783 
L 715.626195 254.891187 
L 716.276607 273.09727 
L 716.92702 232.906148 
L 717.577433 203.113281 
L 718.227845 231.613405 
L 718.878258 268.921227 
L 719.52867 249.740607 
L 720.179083 206.836755 
L 720.829495 207.860317 
L 721.479908 249.667739 
L 722.130321 262.085112 
L 722.780733 224.667164 
L 723.431146 195.902277 
L 724.081558 217.591291 
L 724.731971 254.983361 
L 725.382383 248.209391 
L 726.032796 207.82352 
L 726.683209 191.640241 
L 727.984034 251.590319 
L 728.634446 237.753297 
L 729.284859 199.045204 
L 729.935271 186.129404 
L 731.236097 243.629799 
L 731.886509 234.055703 
L 732.536922 197.80317 
L 733.187334 178.32965 
L 733.837747 196.373509 
L 734.488159 228.191515 
L 735.138572 233.56094 
L 736.439397 176.14069 
L 737.08981 173.508933 
L 738.390635 221.371394 
L 739.041047 217.604997 
L 740.341873 165.444381 
L 740.992285 162.348991 
L 742.29311 201.740054 
L 742.943523 204.920352 
L 743.593935 187.181396 
L 744.244348 162.159445 
L 744.894761 146.546285 
L 745.545173 148.192595 
L 746.845998 176.906134 
L 747.496411 179.956408 
L 748.146823 168.813667 
L 749.447649 130.464861 
L 750.098061 119.130631 
L 750.748474 117.184202 
L 751.398886 121.904457 
L 752.049299 128.140952 
L 752.699711 131.047057 
L 753.350124 128.043607 
L 754.000537 119.281685 
L 756.602187 70.827439 
L 757.252599 63.451911 
L 757.903012 58.409473 
L 758.553425 55.174407 
L 759.203837 53.372177 
L 759.85425 53.004066 
L 760.504662 54.479167 
L 761.155075 58.462841 
L 761.805487 65.577005 
L 762.4559 76.013473 
L 764.407138 115.824141 
L 765.05755 123.634908 
L 765.707963 124.484674 
L 766.358375 118.38231 
L 767.008788 108.532994 
L 767.659201 100.838927 
L 768.309613 101.735905 
L 768.960026 115.083528 
L 770.911263 185.796784 
L 771.561676 185.636488 
L 772.212089 166.33973 
L 772.862501 140.807147 
L 773.512914 127.764583 
L 774.163326 139.194444 
L 775.464151 206.413844 
L 776.114564 218.54165 
L 776.764977 197.520418 
L 777.415389 161.404063 
L 778.065802 143.25667 
L 778.716214 161.417044 
L 779.366627 204.037479 
L 780.017039 235.750797 
L 780.667452 225.400487 
L 781.317865 182.658007 
L 781.968277 153.700236 
L 782.61869 170.458994 
L 783.269102 219.134994 
L 783.919515 251.135229 
L 784.569927 228.934152 
L 785.22034 178.185269 
L 785.870753 161.19423 
L 786.521165 199.478503 
L 787.171578 251.947977 
L 787.82199 255.005368 
L 788.472403 202.519508 
L 789.122815 165.592476 
L 789.773228 193.188892 
L 790.423641 252.684606 
L 791.074053 266.891981 
L 791.724466 213.448534 
L 792.374878 170.831751 
L 793.025291 199.780812 
L 793.675703 262.336677 
L 794.326116 270.183204 
L 794.976529 209.232216 
L 795.626941 175.347367 
L 796.277354 219.417502 
L 796.927766 278.504681 
L 797.578179 260.926029 
L 798.228591 194.097375 
L 798.879004 188.182295 
L 799.529417 252.43629 
L 800.179829 287.733657 
L 801.480654 183.063926 
L 802.131067 221.727747 
L 802.781479 287.350685 
L 803.431892 268.654096 
L 803.431892 268.654096 
" clip-path="url(#pf6b153a695)" style="fill: none; stroke-dasharray: 11.1,4.8; stroke-dashoffset: 0; stroke: #ff7f0e; stroke-width: 3"/>
   </g>
   <g id="patch_3">
    <path d="M 121.181625 489.2325 
L 121.181625 32.078538 
" style="fill: none; stroke: #000000; stroke-width: 2; stroke-linejoin: miter; stroke-linecap: square"/>
   </g>
   <g id="patch_4">
    <path d="M 835.92 489.2325 
L 835.92 32.078538 
" style="fill: none; stroke: #000000; stroke-width: 2; stroke-linejoin: miter; stroke-linecap: square"/>
   </g>
   <g id="patch_5">
    <path d="M 121.181625 489.2325 
L 835.92 489.2325 
" style="fill: none; stroke: #000000; stroke-width: 2; stroke-linejoin: miter; stroke-linecap: square"/>
   </g>
   <g id="patch_6">
    <path d="M 121.181625 32.078538 
L 835.92 32.078538 
" style="fill: none; stroke: #000000; stroke-width: 2; stroke-linejoin: miter; stroke-linecap: square"/>
   </g>
  </g>
 </g>
 <defs>
  <clipPath id="pf6b153a695">
   <rect x="121.181625" y="32.078538" width="714.738375" height="457.153962"/>
  </clipPath>
 </defs>
</svg>
