<?xml version="1.0" encoding="utf-8" standalone="no"?>
<!DOCTYPE svg PUBLIC "-//W3C//DTD SVG 1.1//EN"
  "http://www.w3.org/Graphics/SVG/1.1/DTD/svg11.dtd">
<svg xmlns:xlink="http://www.w3.org/1999/xlink" width="720pt" height="504pt" viewBox="0 0 720 504" xmlns="http://www.w3.org/2000/svg" version="1.1">
 <metadata>
  <rdf:RDF xmlns:dc="http://purl.org/dc/elements/1.1/" xmlns:cc="http://creativecommons.org/ns#" xmlns:rdf="http://www.w3.org/1999/02/22-rdf-syntax-ns#">
   <cc:Work>
    <dc:type rdf:resource="http://purl.org/dc/dcmitype/StillImage"/>
    <dc:date>2025-05-28T17:21:32.521839</dc:date>
    <dc:format>image/svg+xml</dc:format>
    <dc:creator>
     <cc:Agent>
      <dc:title>Matplotlib v3.7.2, https://matplotlib.org/</dc:title>
     </cc:Agent>
    </dc:creator>
   </cc:Work>
  </rdf:RDF>
 </metadata>
 <defs>
  <style type="text/css">*{stroke-linejoin: round; stroke-linecap: butt}</style>
 </defs>
 <g id="figure_1">
  <g id="patch_1">
   <path d="M 0 504 
L 720 504 
L 720 0 
L 0 0 
z
" style="fill: #ffffff"/>
  </g>
  <g id="axes_1">
   <g id="patch_2">
    <path d="M 93.585 419.46 
L 691.92 419.46 
L 691.92 58.32 
L 93.585 58.32 
z
" style="fill: #ffffff"/>
   </g>
   <g id="matplotlib.axis_1">
    <g id="xtick_1">
     <g id="line2d_1">
      <path d="M 120.782045 419.46 
L 120.782045 58.32 
" clip-path="url(#pd780500f12)" style="fill: none; stroke-dasharray: 3.7,1.6; stroke-dashoffset: 0; stroke: #b0b0b0"/>
     </g>
     <g id="line2d_2">
      <defs>
       <path id="m7aa9be7987" d="M 0 0 
L 0 -10 
" style="stroke: #000000; stroke-width: 2"/>
      </defs>
      <g>
       <use xlink:href="#m7aa9be7987" x="120.782045" y="419.46" style="stroke: #000000; stroke-width: 2"/>
      </g>
     </g>
     <g id="text_1">
      <!-- 0 -->
      <g transform="translate(112.510795 442.715937) scale(0.26 -0.26)">
       <defs>
        <path id="DejaVuSerif-30" d="M 2034 219 
Q 2513 219 2750 744 
Q 2988 1269 2988 2328 
Q 2988 3391 2750 3916 
Q 2513 4441 2034 4441 
Q 1556 4441 1318 3916 
Q 1081 3391 1081 2328 
Q 1081 1269 1318 744 
Q 1556 219 2034 219 
z
M 2034 -91 
Q 1275 -91 848 546 
Q 422 1184 422 2328 
Q 422 3475 848 4112 
Q 1275 4750 2034 4750 
Q 2797 4750 3222 4112 
Q 3647 3475 3647 2328 
Q 3647 1184 3222 546 
Q 2797 -91 2034 -91 
z
" transform="scale(0.015625)"/>
       </defs>
       <use xlink:href="#DejaVuSerif-30"/>
      </g>
     </g>
    </g>
    <g id="xtick_2">
     <g id="line2d_3">
      <path d="M 229.570227 419.46 
L 229.570227 58.32 
" clip-path="url(#pd780500f12)" style="fill: none; stroke-dasharray: 3.7,1.6; stroke-dashoffset: 0; stroke: #b0b0b0"/>
     </g>
     <g id="line2d_4">
      <g>
       <use xlink:href="#m7aa9be7987" x="229.570227" y="419.46" style="stroke: #000000; stroke-width: 2"/>
      </g>
     </g>
     <g id="text_2">
      <!-- 1 -->
      <g transform="translate(221.298977 442.715937) scale(0.26 -0.26)">
       <defs>
        <path id="DejaVuSerif-31" d="M 909 0 
L 909 331 
L 1722 331 
L 1722 4213 
L 781 3603 
L 781 4013 
L 1919 4750 
L 2350 4750 
L 2350 331 
L 3163 331 
L 3163 0 
L 909 0 
z
" transform="scale(0.015625)"/>
       </defs>
       <use xlink:href="#DejaVuSerif-31"/>
      </g>
     </g>
    </g>
    <g id="xtick_3">
     <g id="line2d_5">
      <path d="M 338.358409 419.46 
L 338.358409 58.32 
" clip-path="url(#pd780500f12)" style="fill: none; stroke-dasharray: 3.7,1.6; stroke-dashoffset: 0; stroke: #b0b0b0"/>
     </g>
     <g id="line2d_6">
      <g>
       <use xlink:href="#m7aa9be7987" x="338.358409" y="419.46" style="stroke: #000000; stroke-width: 2"/>
      </g>
     </g>
     <g id="text_3">
      <!-- 2 -->
      <g transform="translate(330.087159 442.715937) scale(0.26 -0.26)">
       <defs>
        <path id="DejaVuSerif-32" d="M 819 3553 
L 469 3553 
L 469 4384 
Q 803 4563 1142 4656 
Q 1481 4750 1806 4750 
Q 2534 4750 2956 4397 
Q 3378 4044 3378 3438 
Q 3378 2753 2422 1800 
Q 2347 1728 2309 1691 
L 1131 513 
L 3078 513 
L 3078 1088 
L 3444 1088 
L 3444 0 
L 434 0 
L 434 341 
L 1850 1753 
Q 2319 2222 2519 2614 
Q 2719 3006 2719 3438 
Q 2719 3909 2473 4175 
Q 2228 4441 1797 4441 
Q 1350 4441 1106 4219 
Q 863 3997 819 3553 
z
" transform="scale(0.015625)"/>
       </defs>
       <use xlink:href="#DejaVuSerif-32"/>
      </g>
     </g>
    </g>
    <g id="xtick_4">
     <g id="line2d_7">
      <path d="M 447.146591 419.46 
L 447.146591 58.32 
" clip-path="url(#pd780500f12)" style="fill: none; stroke-dasharray: 3.7,1.6; stroke-dashoffset: 0; stroke: #b0b0b0"/>
     </g>
     <g id="line2d_8">
      <g>
       <use xlink:href="#m7aa9be7987" x="447.146591" y="419.46" style="stroke: #000000; stroke-width: 2"/>
      </g>
     </g>
     <g id="text_4">
      <!-- 3 -->
      <g transform="translate(438.875341 442.715937) scale(0.26 -0.26)">
       <defs>
        <path id="DejaVuSerif-33" d="M 622 4469 
Q 988 4606 1323 4678 
Q 1659 4750 1953 4750 
Q 2638 4750 3022 4454 
Q 3406 4159 3406 3634 
Q 3406 3213 3140 2930 
Q 2875 2647 2388 2547 
Q 2963 2466 3280 2130 
Q 3597 1794 3597 1259 
Q 3597 606 3158 257 
Q 2719 -91 1894 -91 
Q 1528 -91 1179 -12 
Q 831 66 488 225 
L 488 1131 
L 838 1131 
Q 869 681 1141 450 
Q 1413 219 1906 219 
Q 2384 219 2661 495 
Q 2938 772 2938 1253 
Q 2938 1803 2653 2086 
Q 2369 2369 1819 2369 
L 1522 2369 
L 1522 2688 
L 1678 2688 
Q 2225 2688 2498 2914 
Q 2772 3141 2772 3597 
Q 2772 4006 2547 4223 
Q 2322 4441 1900 4441 
Q 1478 4441 1245 4241 
Q 1013 4041 972 3647 
L 622 3647 
L 622 4469 
z
" transform="scale(0.015625)"/>
       </defs>
       <use xlink:href="#DejaVuSerif-33"/>
      </g>
     </g>
    </g>
    <g id="xtick_5">
     <g id="line2d_9">
      <path d="M 555.934773 419.46 
L 555.934773 58.32 
" clip-path="url(#pd780500f12)" style="fill: none; stroke-dasharray: 3.7,1.6; stroke-dashoffset: 0; stroke: #b0b0b0"/>
     </g>
     <g id="line2d_10">
      <g>
       <use xlink:href="#m7aa9be7987" x="555.934773" y="419.46" style="stroke: #000000; stroke-width: 2"/>
      </g>
     </g>
     <g id="text_5">
      <!-- 4 -->
      <g transform="translate(547.663523 442.715937) scale(0.26 -0.26)">
       <defs>
        <path id="DejaVuSerif-34" d="M 2234 1581 
L 2234 4063 
L 641 1581 
L 2234 1581 
z
M 3609 0 
L 1484 0 
L 1484 331 
L 2234 331 
L 2234 1247 
L 197 1247 
L 197 1588 
L 2241 4750 
L 2859 4750 
L 2859 1581 
L 3750 1581 
L 3750 1247 
L 2859 1247 
L 2859 331 
L 3609 331 
L 3609 0 
z
" transform="scale(0.015625)"/>
       </defs>
       <use xlink:href="#DejaVuSerif-34"/>
      </g>
     </g>
    </g>
    <g id="xtick_6">
     <g id="line2d_11">
      <path d="M 664.722955 419.46 
L 664.722955 58.32 
" clip-path="url(#pd780500f12)" style="fill: none; stroke-dasharray: 3.7,1.6; stroke-dashoffset: 0; stroke: #b0b0b0"/>
     </g>
     <g id="line2d_12">
      <g>
       <use xlink:href="#m7aa9be7987" x="664.722955" y="419.46" style="stroke: #000000; stroke-width: 2"/>
      </g>
     </g>
     <g id="text_6">
      <!-- 5 -->
      <g transform="translate(656.451705 442.715937) scale(0.26 -0.26)">
       <defs>
        <path id="DejaVuSerif-35" d="M 3219 4666 
L 3219 4153 
L 1081 4153 
L 1081 2816 
Q 1244 2928 1461 2984 
Q 1678 3041 1947 3041 
Q 2703 3041 3140 2622 
Q 3578 2203 3578 1478 
Q 3578 738 3136 323 
Q 2694 -91 1894 -91 
Q 1572 -91 1234 -12 
Q 897 66 544 225 
L 544 1131 
L 897 1131 
Q 925 688 1179 453 
Q 1434 219 1894 219 
Q 2388 219 2653 544 
Q 2919 869 2919 1478 
Q 2919 2084 2655 2407 
Q 2391 2731 1894 2731 
Q 1613 2731 1398 2631 
Q 1184 2531 1019 2322 
L 750 2322 
L 750 4666 
L 3219 4666 
z
" transform="scale(0.015625)"/>
       </defs>
       <use xlink:href="#DejaVuSerif-35"/>
      </g>
     </g>
    </g>
    <g id="text_7">
     <!-- Time (a.u.) -->
     <g transform="translate(321.238281 471.879062) scale(0.26 -0.26)">
      <defs>
       <path id="DejaVuSerif-54" d="M 1222 0 
L 1222 331 
L 1819 331 
L 1819 4294 
L 447 4294 
L 447 3566 
L 63 3566 
L 63 4666 
L 4206 4666 
L 4206 3566 
L 3822 3566 
L 3822 4294 
L 2450 4294 
L 2450 331 
L 3047 331 
L 3047 0 
L 1222 0 
z
" transform="scale(0.015625)"/>
       <path id="DejaVuSerif-69" d="M 622 4353 
Q 622 4497 726 4603 
Q 831 4709 978 4709 
Q 1122 4709 1226 4603 
Q 1331 4497 1331 4353 
Q 1331 4206 1228 4103 
Q 1125 4000 978 4000 
Q 831 4000 726 4103 
Q 622 4206 622 4353 
z
M 1356 331 
L 1900 331 
L 1900 0 
L 231 0 
L 231 331 
L 781 331 
L 781 2988 
L 231 2988 
L 231 3322 
L 1356 3322 
L 1356 331 
z
" transform="scale(0.015625)"/>
       <path id="DejaVuSerif-6d" d="M 3316 2675 
Q 3481 3041 3739 3227 
Q 3997 3413 4341 3413 
Q 4863 3413 5119 3089 
Q 5375 2766 5375 2113 
L 5375 331 
L 5894 331 
L 5894 0 
L 4300 0 
L 4300 331 
L 4800 331 
L 4800 2047 
Q 4800 2556 4650 2772 
Q 4500 2988 4153 2988 
Q 3769 2988 3567 2697 
Q 3366 2406 3366 1850 
L 3366 331 
L 3866 331 
L 3866 0 
L 2291 0 
L 2291 331 
L 2791 331 
L 2791 2069 
Q 2791 2566 2641 2777 
Q 2491 2988 2144 2988 
Q 1759 2988 1557 2697 
Q 1356 2406 1356 1850 
L 1356 331 
L 1856 331 
L 1856 0 
L 263 0 
L 263 331 
L 781 331 
L 781 2994 
L 231 2994 
L 231 3322 
L 1356 3322 
L 1356 2731 
Q 1516 3063 1762 3238 
Q 2009 3413 2322 3413 
Q 2709 3413 2968 3220 
Q 3228 3028 3316 2675 
z
" transform="scale(0.015625)"/>
       <path id="DejaVuSerif-65" d="M 3469 1600 
L 991 1600 
L 991 1575 
Q 991 903 1244 561 
Q 1497 219 1991 219 
Q 2369 219 2611 417 
Q 2853 616 2950 1006 
L 3413 1006 
Q 3275 459 2904 184 
Q 2534 -91 1931 -91 
Q 1203 -91 761 389 
Q 319 869 319 1663 
Q 319 2450 753 2931 
Q 1188 3413 1894 3413 
Q 2647 3413 3050 2948 
Q 3453 2484 3469 1600 
z
M 2791 1931 
Q 2772 2513 2545 2808 
Q 2319 3103 1894 3103 
Q 1497 3103 1269 2806 
Q 1041 2509 991 1931 
L 2791 1931 
z
" transform="scale(0.015625)"/>
       <path id="DejaVuSerif-20" transform="scale(0.015625)"/>
       <path id="DejaVuSerif-28" d="M 2041 -997 
Q 1281 -656 893 83 
Q 506 822 506 1931 
Q 506 3044 893 3783 
Q 1281 4522 2041 4863 
L 2041 4556 
Q 1559 4225 1350 3623 
Q 1141 3022 1141 1931 
Q 1141 844 1350 242 
Q 1559 -359 2041 -691 
L 2041 -997 
z
" transform="scale(0.015625)"/>
       <path id="DejaVuSerif-61" d="M 2547 1044 
L 2547 1747 
L 1806 1747 
Q 1378 1747 1168 1562 
Q 959 1378 959 997 
Q 959 650 1171 447 
Q 1384 244 1747 244 
Q 2106 244 2326 466 
Q 2547 688 2547 1044 
z
M 3122 2075 
L 3122 331 
L 3634 331 
L 3634 0 
L 2547 0 
L 2547 359 
Q 2356 128 2106 18 
Q 1856 -91 1522 -91 
Q 969 -91 644 203 
Q 319 497 319 997 
Q 319 1513 691 1797 
Q 1063 2081 1741 2081 
L 2547 2081 
L 2547 2309 
Q 2547 2688 2317 2895 
Q 2088 3103 1672 3103 
Q 1328 3103 1125 2947 
Q 922 2791 872 2484 
L 575 2484 
L 575 3156 
Q 875 3284 1158 3348 
Q 1441 3413 1709 3413 
Q 2400 3413 2761 3070 
Q 3122 2728 3122 2075 
z
" transform="scale(0.015625)"/>
       <path id="DejaVuSerif-2e" d="M 603 325 
Q 603 500 722 622 
Q 841 744 1019 744 
Q 1191 744 1312 622 
Q 1434 500 1434 325 
Q 1434 153 1312 31 
Q 1191 -91 1019 -91 
Q 841 -91 722 29 
Q 603 150 603 325 
z
" transform="scale(0.015625)"/>
       <path id="DejaVuSerif-75" d="M 2266 3322 
L 3341 3322 
L 3341 331 
L 3884 331 
L 3884 0 
L 2766 0 
L 2766 588 
Q 2606 256 2353 82 
Q 2100 -91 1766 -91 
Q 1213 -91 952 223 
Q 691 538 691 1209 
L 691 2988 
L 172 2988 
L 172 3322 
L 1269 3322 
L 1269 1388 
Q 1269 781 1417 556 
Q 1566 331 1947 331 
Q 2347 331 2556 625 
Q 2766 919 2766 1478 
L 2766 2988 
L 2266 2988 
L 2266 3322 
z
" transform="scale(0.015625)"/>
       <path id="DejaVuSerif-29" d="M 453 -997 
L 453 -691 
Q 934 -359 1145 242 
Q 1356 844 1356 1931 
Q 1356 3022 1145 3623 
Q 934 4225 453 4556 
L 453 4863 
Q 1216 4522 1603 3783 
Q 1991 3044 1991 1931 
Q 1991 822 1603 83 
Q 1216 -656 453 -997 
z
" transform="scale(0.015625)"/>
      </defs>
      <use xlink:href="#DejaVuSerif-54"/>
      <use xlink:href="#DejaVuSerif-69" x="66.699219"/>
      <use xlink:href="#DejaVuSerif-6d" x="98.681641"/>
      <use xlink:href="#DejaVuSerif-65" x="193.505859"/>
      <use xlink:href="#DejaVuSerif-20" x="252.685547"/>
      <use xlink:href="#DejaVuSerif-28" x="284.472656"/>
      <use xlink:href="#DejaVuSerif-61" x="323.486328"/>
      <use xlink:href="#DejaVuSerif-2e" x="383.105469"/>
      <use xlink:href="#DejaVuSerif-75" x="414.892578"/>
      <use xlink:href="#DejaVuSerif-2e" x="479.296875"/>
      <use xlink:href="#DejaVuSerif-29" x="511.083984"/>
     </g>
    </g>
   </g>
   <g id="matplotlib.axis_2">
    <g id="ytick_1">
     <g id="line2d_13">
      <path d="M 93.585 373.622391 
L 691.92 373.622391 
" clip-path="url(#pd780500f12)" style="fill: none; stroke-dasharray: 3.7,1.6; stroke-dashoffset: 0; stroke: #b0b0b0"/>
     </g>
     <g id="line2d_14">
      <defs>
       <path id="mba70a4b6e8" d="M 0 0 
L 10 0 
" style="stroke: #000000; stroke-width: 2"/>
      </defs>
      <g>
       <use xlink:href="#mba70a4b6e8" x="93.585" y="373.622391" style="stroke: #000000; stroke-width: 2"/>
      </g>
     </g>
     <g id="text_8">
      <!-- 0 -->
      <g transform="translate(73.5425 383.50036) scale(0.26 -0.26)">
       <use xlink:href="#DejaVuSerif-30"/>
      </g>
     </g>
    </g>
    <g id="ytick_2">
     <g id="line2d_15">
      <path d="M 93.585 294.745532 
L 691.92 294.745532 
" clip-path="url(#pd780500f12)" style="fill: none; stroke-dasharray: 3.7,1.6; stroke-dashoffset: 0; stroke: #b0b0b0"/>
     </g>
     <g id="line2d_16">
      <g>
       <use xlink:href="#mba70a4b6e8" x="93.585" y="294.745532" style="stroke: #000000; stroke-width: 2"/>
      </g>
     </g>
     <g id="text_9">
      <!-- 20 -->
      <g transform="translate(57 304.623501) scale(0.26 -0.26)">
       <use xlink:href="#DejaVuSerif-32"/>
       <use xlink:href="#DejaVuSerif-30" x="63.623047"/>
      </g>
     </g>
    </g>
    <g id="ytick_3">
     <g id="line2d_17">
      <path d="M 93.585 215.868672 
L 691.92 215.868672 
" clip-path="url(#pd780500f12)" style="fill: none; stroke-dasharray: 3.7,1.6; stroke-dashoffset: 0; stroke: #b0b0b0"/>
     </g>
     <g id="line2d_18">
      <g>
       <use xlink:href="#mba70a4b6e8" x="93.585" y="215.868672" style="stroke: #000000; stroke-width: 2"/>
      </g>
     </g>
     <g id="text_10">
      <!-- 40 -->
      <g transform="translate(57 225.746641) scale(0.26 -0.26)">
       <use xlink:href="#DejaVuSerif-34"/>
       <use xlink:href="#DejaVuSerif-30" x="63.623047"/>
      </g>
     </g>
    </g>
    <g id="ytick_4">
     <g id="line2d_19">
      <path d="M 93.585 136.991812 
L 691.92 136.991812 
" clip-path="url(#pd780500f12)" style="fill: none; stroke-dasharray: 3.7,1.6; stroke-dashoffset: 0; stroke: #b0b0b0"/>
     </g>
     <g id="line2d_20">
      <g>
       <use xlink:href="#mba70a4b6e8" x="93.585" y="136.991812" style="stroke: #000000; stroke-width: 2"/>
      </g>
     </g>
     <g id="text_11">
      <!-- 60 -->
      <g transform="translate(57 146.869781) scale(0.26 -0.26)">
       <defs>
        <path id="DejaVuSerif-36" d="M 2094 219 
Q 2534 219 2771 542 
Q 3009 866 3009 1472 
Q 3009 2078 2771 2401 
Q 2534 2725 2094 2725 
Q 1647 2725 1412 2412 
Q 1178 2100 1178 1509 
Q 1178 888 1415 553 
Q 1653 219 2094 219 
z
M 1075 2569 
Q 1288 2803 1556 2918 
Q 1825 3034 2163 3034 
Q 2859 3034 3264 2615 
Q 3669 2197 3669 1472 
Q 3669 763 3233 336 
Q 2797 -91 2069 -91 
Q 1278 -91 853 498 
Q 428 1088 428 2181 
Q 428 3406 931 4078 
Q 1434 4750 2350 4750 
Q 2597 4750 2869 4703 
Q 3141 4656 3425 4563 
L 3425 3794 
L 3072 3794 
Q 3034 4109 2831 4275 
Q 2628 4441 2284 4441 
Q 1678 4441 1381 3981 
Q 1084 3522 1075 2569 
z
" transform="scale(0.015625)"/>
       </defs>
       <use xlink:href="#DejaVuSerif-36"/>
       <use xlink:href="#DejaVuSerif-30" x="63.623047"/>
      </g>
     </g>
    </g>
    <g id="text_12">
     <!-- Energy Components (a.u.) -->
     <g transform="translate(47.223125 411.706719) rotate(-90) scale(0.26 -0.26)">
      <defs>
       <path id="DejaVuSerif-45" d="M 353 0 
L 353 331 
L 947 331 
L 947 4331 
L 353 4331 
L 353 4666 
L 4109 4666 
L 4109 3628 
L 3725 3628 
L 3725 4281 
L 1581 4281 
L 1581 2719 
L 3109 2719 
L 3109 3303 
L 3494 3303 
L 3494 1753 
L 3109 1753 
L 3109 2338 
L 1581 2338 
L 1581 384 
L 3775 384 
L 3775 1038 
L 4159 1038 
L 4159 0 
L 353 0 
z
" transform="scale(0.015625)"/>
       <path id="DejaVuSerif-6e" d="M 263 0 
L 263 331 
L 781 331 
L 781 2988 
L 231 2988 
L 231 3322 
L 1356 3322 
L 1356 2731 
Q 1516 3069 1770 3241 
Q 2025 3413 2363 3413 
Q 2913 3413 3172 3097 
Q 3431 2781 3431 2113 
L 3431 331 
L 3944 331 
L 3944 0 
L 2356 0 
L 2356 331 
L 2853 331 
L 2853 1931 
Q 2853 2541 2703 2767 
Q 2553 2994 2175 2994 
Q 1775 2994 1565 2701 
Q 1356 2409 1356 1850 
L 1356 331 
L 1856 331 
L 1856 0 
L 263 0 
z
" transform="scale(0.015625)"/>
       <path id="DejaVuSerif-72" d="M 3059 3328 
L 3059 2497 
L 2728 2497 
Q 2713 2744 2591 2866 
Q 2469 2988 2234 2988 
Q 1809 2988 1582 2694 
Q 1356 2400 1356 1850 
L 1356 331 
L 2022 331 
L 2022 0 
L 263 0 
L 263 331 
L 781 331 
L 781 2994 
L 231 2994 
L 231 3322 
L 1356 3322 
L 1356 2731 
Q 1525 3078 1790 3245 
Q 2056 3413 2438 3413 
Q 2578 3413 2733 3391 
Q 2888 3369 3059 3328 
z
" transform="scale(0.015625)"/>
       <path id="DejaVuSerif-67" d="M 3359 2988 
L 3359 72 
Q 3359 -644 2965 -1033 
Q 2572 -1422 1844 -1422 
Q 1516 -1422 1216 -1362 
Q 916 -1303 641 -1184 
L 641 -488 
L 941 -488 
Q 997 -813 1206 -963 
Q 1416 -1113 1806 -1113 
Q 2313 -1113 2548 -827 
Q 2784 -541 2784 72 
L 2784 519 
Q 2616 206 2355 57 
Q 2094 -91 1709 -91 
Q 1097 -91 708 395 
Q 319 881 319 1663 
Q 319 2444 706 2928 
Q 1094 3413 1709 3413 
Q 2094 3413 2355 3264 
Q 2616 3116 2784 2803 
L 2784 3322 
L 3909 3322 
L 3909 2988 
L 3359 2988 
z
M 2784 1825 
Q 2784 2422 2554 2737 
Q 2325 3053 1888 3053 
Q 1444 3053 1217 2703 
Q 991 2353 991 1663 
Q 991 975 1217 622 
Q 1444 269 1888 269 
Q 2325 269 2554 583 
Q 2784 897 2784 1497 
L 2784 1825 
z
" transform="scale(0.015625)"/>
       <path id="DejaVuSerif-79" d="M 1381 -609 
L 1600 -56 
L 359 2988 
L -19 2988 
L -19 3322 
L 1509 3322 
L 1509 2988 
L 978 2988 
L 1913 703 
L 2847 2988 
L 2350 2988 
L 2350 3322 
L 3597 3322 
L 3597 2988 
L 3225 2988 
L 1703 -750 
Q 1547 -1138 1356 -1280 
Q 1166 -1422 819 -1422 
Q 672 -1422 517 -1397 
Q 363 -1372 206 -1325 
L 206 -691 
L 500 -691 
Q 519 -903 608 -995 
Q 697 -1088 884 -1088 
Q 1056 -1088 1161 -992 
Q 1266 -897 1381 -609 
z
" transform="scale(0.015625)"/>
       <path id="DejaVuSerif-43" d="M 4513 1234 
Q 4306 581 3820 245 
Q 3334 -91 2591 -91 
Q 2134 -91 1743 65 
Q 1353 222 1050 525 
Q 700 875 529 1320 
Q 359 1766 359 2328 
Q 359 3416 987 4083 
Q 1616 4750 2644 4750 
Q 3025 4750 3456 4650 
Q 3888 4550 4384 4347 
L 4384 3272 
L 4031 3272 
Q 3916 3859 3567 4137 
Q 3219 4416 2591 4416 
Q 1844 4416 1459 3886 
Q 1075 3356 1075 2328 
Q 1075 1303 1459 773 
Q 1844 244 2591 244 
Q 3113 244 3450 492 
Q 3788 741 3938 1234 
L 4513 1234 
z
" transform="scale(0.015625)"/>
       <path id="DejaVuSerif-6f" d="M 1925 219 
Q 2388 219 2623 584 
Q 2859 950 2859 1663 
Q 2859 2375 2623 2739 
Q 2388 3103 1925 3103 
Q 1463 3103 1227 2739 
Q 991 2375 991 1663 
Q 991 950 1228 584 
Q 1466 219 1925 219 
z
M 1925 -91 
Q 1200 -91 759 389 
Q 319 869 319 1663 
Q 319 2456 758 2934 
Q 1197 3413 1925 3413 
Q 2653 3413 3092 2934 
Q 3531 2456 3531 1663 
Q 3531 869 3092 389 
Q 2653 -91 1925 -91 
z
" transform="scale(0.015625)"/>
       <path id="DejaVuSerif-70" d="M 1313 1825 
L 1313 1497 
Q 1313 897 1542 583 
Q 1772 269 2209 269 
Q 2650 269 2876 622 
Q 3103 975 3103 1663 
Q 3103 2353 2876 2703 
Q 2650 3053 2209 3053 
Q 1772 3053 1542 2737 
Q 1313 2422 1313 1825 
z
M 738 2988 
L 184 2988 
L 184 3322 
L 1313 3322 
L 1313 2803 
Q 1481 3116 1742 3264 
Q 2003 3413 2388 3413 
Q 3000 3413 3387 2928 
Q 3775 2444 3775 1663 
Q 3775 881 3387 395 
Q 3000 -91 2388 -91 
Q 2003 -91 1742 57 
Q 1481 206 1313 519 
L 1313 -997 
L 1856 -997 
L 1856 -1331 
L 184 -1331 
L 184 -997 
L 738 -997 
L 738 2988 
z
" transform="scale(0.015625)"/>
       <path id="DejaVuSerif-74" d="M 691 2988 
L 184 2988 
L 184 3322 
L 691 3322 
L 691 4353 
L 1269 4353 
L 1269 3322 
L 2350 3322 
L 2350 2988 
L 1269 2988 
L 1269 878 
Q 1269 456 1350 337 
Q 1431 219 1650 219 
Q 1875 219 1978 351 
Q 2081 484 2088 781 
L 2522 781 
Q 2497 328 2275 118 
Q 2053 -91 1600 -91 
Q 1103 -91 897 129 
Q 691 350 691 878 
L 691 2988 
z
" transform="scale(0.015625)"/>
       <path id="DejaVuSerif-73" d="M 359 184 
L 359 959 
L 691 959 
Q 703 588 923 403 
Q 1144 219 1575 219 
Q 1963 219 2166 364 
Q 2369 509 2369 788 
Q 2369 1006 2220 1140 
Q 2072 1275 1594 1428 
L 1178 1569 
Q 750 1706 558 1912 
Q 366 2119 366 2438 
Q 366 2894 700 3153 
Q 1034 3413 1625 3413 
Q 1888 3413 2178 3344 
Q 2469 3275 2778 3144 
L 2778 2419 
L 2447 2419 
Q 2434 2741 2221 2922 
Q 2009 3103 1644 3103 
Q 1281 3103 1095 2975 
Q 909 2847 909 2591 
Q 909 2381 1050 2254 
Q 1191 2128 1613 1997 
L 2069 1856 
Q 2541 1709 2748 1489 
Q 2956 1269 2956 922 
Q 2956 450 2595 179 
Q 2234 -91 1600 -91 
Q 1278 -91 972 -22 
Q 666 47 359 184 
z
" transform="scale(0.015625)"/>
      </defs>
      <use xlink:href="#DejaVuSerif-45"/>
      <use xlink:href="#DejaVuSerif-6e" x="72.998047"/>
      <use xlink:href="#DejaVuSerif-65" x="137.402344"/>
      <use xlink:href="#DejaVuSerif-72" x="196.582031"/>
      <use xlink:href="#DejaVuSerif-67" x="244.384766"/>
      <use xlink:href="#DejaVuSerif-79" x="308.398438"/>
      <use xlink:href="#DejaVuSerif-20" x="364.892578"/>
      <use xlink:href="#DejaVuSerif-43" x="396.679688"/>
      <use xlink:href="#DejaVuSerif-6f" x="473.193359"/>
      <use xlink:href="#DejaVuSerif-6d" x="533.398438"/>
      <use xlink:href="#DejaVuSerif-70" x="628.222656"/>
      <use xlink:href="#DejaVuSerif-6f" x="692.236328"/>
      <use xlink:href="#DejaVuSerif-6e" x="752.441406"/>
      <use xlink:href="#DejaVuSerif-65" x="816.845703"/>
      <use xlink:href="#DejaVuSerif-6e" x="876.025391"/>
      <use xlink:href="#DejaVuSerif-74" x="940.429688"/>
      <use xlink:href="#DejaVuSerif-73" x="980.615234"/>
      <use xlink:href="#DejaVuSerif-20" x="1031.933594"/>
      <use xlink:href="#DejaVuSerif-28" x="1063.720703"/>
      <use xlink:href="#DejaVuSerif-61" x="1102.734375"/>
      <use xlink:href="#DejaVuSerif-2e" x="1162.353516"/>
      <use xlink:href="#DejaVuSerif-75" x="1194.140625"/>
      <use xlink:href="#DejaVuSerif-2e" x="1258.544922"/>
      <use xlink:href="#DejaVuSerif-29" x="1290.332031"/>
     </g>
    </g>
   </g>
   <g id="line2d_21">
    <path d="M 120.782045 362.64086 
L 126.276398 362.445921 
L 131.770751 361.995772 
L 137.265103 361.321324 
L 142.759456 360.562402 
L 148.253809 359.920318 
L 153.748161 359.513858 
L 159.242514 359.326837 
L 164.736866 359.299287 
L 170.231219 359.411608 
L 175.725572 359.674578 
L 181.219924 360.113242 
L 186.714277 360.751217 
L 192.208629 361.591958 
L 197.702982 362.587509 
L 203.197335 363.567174 
L 208.691687 364.107572 
L 214.18604 363.249203 
L 219.680393 359.38934 
L 225.174745 346.655099 
L 230.669098 297.475965 
L 236.16345 204.346064 
L 241.657803 147.726919 
L 247.152156 122.825406 
L 252.646508 110.094706 
L 258.140861 102.598962 
L 263.635213 97.722867 
L 269.129566 94.318562 
L 274.623919 91.796661 
L 280.118271 89.799913 
L 285.612624 88.177156 
L 291.106977 86.833408 
L 296.601329 85.70299 
L 302.095682 84.739163 
L 307.590034 83.907816 
L 313.084387 83.183507 
L 318.57874 82.546885 
L 324.073092 81.982981 
L 329.567445 81.48004 
L 335.061798 81.028703 
L 340.55615 80.621428 
L 346.050503 80.252074 
L 351.544855 79.915585 
L 357.039208 79.607767 
L 362.533561 79.32511 
L 368.027913 79.06465 
L 373.522266 78.823875 
L 379.016618 78.600635 
L 384.510971 78.393083 
L 390.005324 78.199622 
L 395.499676 78.018864 
L 400.994029 77.849599 
L 406.488382 77.690765 
L 411.982734 77.541426 
L 417.477087 77.400756 
L 422.971439 77.268021 
L 428.465792 77.142569 
L 433.960145 77.023816 
L 439.454497 76.911239 
L 444.94885 76.80437 
L 450.443202 76.702784 
L 455.937555 76.606099 
L 461.431908 76.513969 
L 466.92626 76.42608 
L 472.420613 76.342145 
L 477.914966 76.261903 
L 483.409318 76.185116 
L 488.903671 76.111565 
L 494.398023 76.041051 
L 499.892376 75.973388 
L 505.386729 75.908407 
L 510.881081 75.845951 
L 516.375434 75.785877 
L 521.869787 75.728051 
L 527.364139 75.672349 
L 532.858492 75.618655 
L 538.352844 75.566864 
L 543.847197 75.516875 
L 549.34155 75.468597 
L 554.835902 75.421942 
L 560.330255 75.376831 
L 565.824607 75.333188 
L 571.31896 75.290943 
L 576.813313 75.250029 
L 582.307665 75.210384 
L 587.802018 75.171951 
L 593.296371 75.134674 
L 598.790723 75.098503 
L 604.285076 75.063388 
L 609.779428 75.029284 
L 615.273781 74.996148 
L 620.768134 74.963939 
L 626.262486 74.93262 
L 631.756839 74.902153 
L 637.251191 74.872504 
L 642.745544 74.843641 
L 648.239897 74.815534 
L 653.734249 74.788151 
L 659.228602 74.761467 
L 664.722955 74.735455 
" clip-path="url(#pd780500f12)" style="fill: none; stroke: #1f77b4; stroke-width: 3; stroke-linecap: square"/>
   </g>
   <g id="line2d_22">
    <path d="M 120.782045 401.229304 
L 126.276398 401.356581 
L 131.770751 401.729716 
L 137.265103 402.261892 
L 142.759456 402.76527 
L 148.253809 403.044545 
L 153.748161 403.037177 
L 159.242514 402.814592 
L 164.736866 402.467006 
L 170.231219 402.03709 
L 175.725572 401.527778 
L 181.219924 400.91731 
L 186.714277 400.175575 
L 192.208629 399.272741 
L 197.702982 398.195426 
L 203.197335 396.99712 
L 208.691687 395.85022 
L 214.18604 395.025859 
L 219.680393 394.334125 
L 225.174745 392.611651 
L 230.669098 389.972911 
L 236.16345 386.675717 
L 241.657803 383.903325 
L 247.152156 381.92763 
L 252.646508 380.526591 
L 258.140861 379.503138 
L 263.635213 378.730741 
L 269.129566 378.130567 
L 274.623919 377.65246 
L 280.118271 377.263465 
L 285.612624 376.94126 
L 291.106977 376.670292 
L 296.601329 376.439422 
L 302.095682 376.240483 
L 307.590034 376.067362 
L 313.084387 375.915394 
L 318.57874 375.780968 
L 324.073092 375.661239 
L 329.567445 375.553945 
L 335.061798 375.45726 
L 340.55615 375.369696 
L 346.050503 375.290031 
L 351.544855 375.217249 
L 357.039208 375.150502 
L 362.533561 375.089072 
L 368.027913 375.032352 
L 373.522266 374.979825 
L 379.016618 374.931044 
L 384.510971 374.885623 
L 390.005324 374.84323 
L 395.499676 374.803572 
L 400.994029 374.766395 
L 406.488382 374.731473 
L 411.982734 374.698609 
L 417.477087 374.667626 
L 422.971439 374.638368 
L 428.465792 374.610695 
L 433.960145 374.584482 
L 439.454497 374.559618 
L 444.94885 374.536001 
L 450.443202 374.513539 
L 455.937555 374.492151 
L 461.431908 374.471761 
L 466.92626 374.452301 
L 472.420613 374.43371 
L 477.914966 374.41593 
L 483.409318 374.39891 
L 488.903671 374.382602 
L 494.398023 374.366963 
L 499.892376 374.351951 
L 505.386729 374.337532 
L 510.881081 374.323669 
L 516.375434 374.310331 
L 521.869787 374.29749 
L 527.364139 374.285118 
L 532.858492 374.27319 
L 538.352844 374.261683 
L 543.847197 374.250574 
L 549.34155 374.239844 
L 554.835902 374.229473 
L 560.330255 374.219444 
L 565.824607 374.209739 
L 571.31896 374.200345 
L 576.813313 374.191245 
L 582.307665 374.182427 
L 587.802018 374.173877 
L 593.296371 374.165584 
L 598.790723 374.157536 
L 604.285076 374.149722 
L 609.779428 374.142133 
L 615.273781 374.134759 
L 620.768134 374.12759 
L 626.262486 374.120619 
L 631.756839 374.113837 
L 637.251191 374.107237 
L 642.745544 374.100812 
L 648.239897 374.094554 
L 653.734249 374.088457 
L 659.228602 374.082516 
L 664.722955 374.076724 
" clip-path="url(#pd780500f12)" style="fill: none; stroke: #ff7f0e; stroke-width: 3; stroke-linecap: square"/>
   </g>
   <g id="line2d_23">
    <path d="M 120.782045 370.171527 
L 126.276398 370.155591 
L 131.770751 370.108358 
L 137.265103 370.037829 
L 142.759456 369.959514 
L 148.253809 369.885297 
L 153.748161 369.811338 
L 159.242514 369.720026 
L 164.736866 369.590974 
L 170.231219 369.407324 
L 175.725572 369.15614 
L 181.219924 368.827787 
L 186.714277 368.411513 
L 192.208629 367.881987 
L 197.702982 367.165234 
L 203.197335 366.082462 
L 208.691687 364.382233 
L 214.18604 362.245435 
L 219.680393 359.553271 
L 225.174745 352.673617 
L 230.669098 344.286744 
L 236.16345 350.215685 
L 241.657803 358.318339 
L 247.152156 362.765744 
L 252.646508 365.306433 
L 258.140861 366.909659 
L 263.635213 368.003754 
L 269.129566 368.794947 
L 274.623919 369.392574 
L 280.118271 369.859427 
L 285.612624 370.23396 
L 291.106977 370.540971 
L 296.601329 370.797143 
L 302.095682 371.014101 
L 307.590034 371.200184 
L 313.084387 371.361532 
L 318.57874 371.50276 
L 324.073092 371.627403 
L 329.567445 371.738219 
L 335.061798 371.837383 
L 340.55615 371.926639 
L 346.050503 372.007401 
L 351.544855 372.080825 
L 357.039208 372.147866 
L 362.533561 372.209322 
L 368.027913 372.265863 
L 373.522266 372.318054 
L 379.016618 372.36638 
L 384.510971 372.411253 
L 390.005324 372.453032 
L 395.499676 372.492025 
L 400.994029 372.528502 
L 406.488382 372.562698 
L 411.982734 372.594822 
L 417.477087 372.625055 
L 422.971439 372.653561 
L 428.465792 372.680483 
L 433.960145 372.705948 
L 439.454497 372.730074 
L 444.94885 372.752961 
L 450.443202 372.774704 
L 455.937555 372.795386 
L 461.431908 372.815083 
L 466.92626 372.833864 
L 472.420613 372.85179 
L 477.914966 372.86892 
L 483.409318 372.885304 
L 488.903671 372.900991 
L 494.398023 372.916025 
L 499.892376 372.930444 
L 505.386729 372.944287 
L 510.881081 372.957586 
L 516.375434 372.970374 
L 521.869787 372.982679 
L 527.364139 372.994529 
L 532.858492 373.005947 
L 538.352844 373.016958 
L 543.847197 373.027582 
L 549.34155 373.037839 
L 554.835902 373.047749 
L 560.330255 373.057328 
L 565.824607 373.066593 
L 571.31896 373.07556 
L 576.813313 373.084241 
L 582.307665 373.092651 
L 587.802018 373.100802 
L 593.296371 373.108707 
L 598.790723 373.116375 
L 604.285076 373.123818 
L 609.779428 373.131044 
L 615.273781 373.138065 
L 620.768134 373.144887 
L 626.262486 373.15152 
L 631.756839 373.157972 
L 637.251191 373.164248 
L 642.745544 373.170358 
L 648.239897 373.176306 
L 653.734249 373.1821 
L 659.228602 373.187746 
L 664.722955 373.193248 
" clip-path="url(#pd780500f12)" style="fill: none; stroke: #2ca02c; stroke-width: 3; stroke-linecap: square"/>
   </g>
   <g id="line2d_24">
    <path d="M 120.782045 372.524249 
L 126.276398 372.580696 
L 131.770751 372.618161 
L 137.265103 372.675175 
L 142.759456 372.779202 
L 148.253809 372.916347 
L 153.748161 373.044301 
L 159.242514 373.13589 
L 164.736866 373.190742 
L 170.231219 373.21824 
L 175.725572 373.232391 
L 181.219924 373.25064 
L 186.714277 373.291683 
L 192.208629 373.371753 
L 197.702982 373.488406 
L 203.197335 373.583761 
L 208.691687 373.556227 
L 214.18604 373.283298 
L 219.680393 373.526819 
L 225.174745 373.622391 
L 230.669098 373.622391 
L 236.16345 373.622391 
L 241.657803 373.622391 
L 247.152156 373.622391 
L 252.646508 373.622391 
L 258.140861 373.622391 
L 263.635213 373.622391 
L 269.129566 373.622391 
L 274.623919 373.622391 
L 280.118271 373.622391 
L 285.612624 373.622391 
L 291.106977 373.622391 
L 296.601329 373.622391 
L 302.095682 373.622391 
L 307.590034 373.622391 
L 313.084387 373.622391 
L 318.57874 373.622391 
L 324.073092 373.622391 
L 329.567445 373.622391 
L 335.061798 373.622391 
L 340.55615 373.622391 
L 346.050503 373.622391 
L 351.544855 373.622391 
L 357.039208 373.622391 
L 362.533561 373.622391 
L 368.027913 373.622391 
L 373.522266 373.622391 
L 379.016618 373.622391 
L 384.510971 373.622391 
L 390.005324 373.622391 
L 395.499676 373.622391 
L 400.994029 373.622391 
L 406.488382 373.622391 
L 411.982734 373.622391 
L 417.477087 373.622391 
L 422.971439 373.622391 
L 428.465792 373.622391 
L 433.960145 373.622391 
L 439.454497 373.622391 
L 444.94885 373.622391 
L 450.443202 373.622391 
L 455.937555 373.622391 
L 461.431908 373.622391 
L 466.92626 373.622391 
L 472.420613 373.622391 
L 477.914966 373.622391 
L 483.409318 373.622391 
L 488.903671 373.622391 
L 494.398023 373.622391 
L 499.892376 373.622391 
L 505.386729 373.622391 
L 510.881081 373.622391 
L 516.375434 373.622391 
L 521.869787 373.622391 
L 527.364139 373.622391 
L 532.858492 373.622391 
L 538.352844 373.622391 
L 543.847197 373.622391 
L 549.34155 373.622391 
L 554.835902 373.622391 
L 560.330255 373.622391 
L 565.824607 373.622391 
L 571.31896 373.622391 
L 576.813313 373.622391 
L 582.307665 373.622391 
L 587.802018 373.622391 
L 593.296371 373.622391 
L 598.790723 373.622391 
L 604.285076 373.622391 
L 609.779428 373.622391 
L 615.273781 373.622391 
L 620.768134 373.622391 
L 626.262486 373.622391 
L 631.756839 373.622391 
L 637.251191 373.622391 
L 642.745544 373.622391 
L 648.239897 373.622391 
L 653.734249 373.622391 
L 659.228602 373.622391 
L 664.722955 373.622391 
" clip-path="url(#pd780500f12)" style="fill: none; stroke: #d62728; stroke-width: 3; stroke-linecap: square"/>
   </g>
   <g id="line2d_25">
    <path d="M 120.782045 385.698766 
L 126.276398 385.671614 
L 131.770751 385.584832 
L 137.265103 385.429045 
L 142.759456 385.199213 
L 148.253809 384.899333 
L 153.748161 384.5395 
L 159.242514 384.130171 
L 164.736866 383.680835 
L 170.231219 383.207088 
L 175.725572 382.723712 
L 181.219924 382.241805 
L 186.714277 381.762813 
L 192.208629 381.251265 
L 197.702982 380.569401 
L 203.197335 379.363342 
L 208.691687 377.029079 
L 214.18604 372.936621 
L 219.680393 365.93638 
L 225.174745 344.695584 
L 230.669098 284.490837 
L 236.16345 193.992682 
L 241.657803 142.7038 
L 247.152156 120.273998 
L 252.646508 108.682948 
L 258.140861 101.766976 
L 263.635213 97.212578 
L 269.129566 93.999293 
L 274.623919 91.596913 
L 280.118271 89.678022 
L 285.612624 88.107593 
L 291.106977 86.799887 
L 296.601329 85.694772 
L 302.095682 84.748963 
L 307.590034 83.930579 
L 313.084387 83.21565 
L 318.57874 82.585829 
L 324.073092 82.026841 
L 329.567445 81.527421 
L 335.061798 81.078562 
L 340.55615 80.672981 
L 346.050503 80.304723 
L 351.544855 79.968876 
L 357.039208 79.661352 
L 362.533561 79.378721 
L 368.027913 79.118082 
L 373.522266 78.876971 
L 379.016618 78.653275 
L 384.510971 78.445177 
L 390.005324 78.251101 
L 395.499676 78.069679 
L 400.994029 77.899713 
L 406.488382 77.740154 
L 411.982734 77.590074 
L 417.477087 77.448655 
L 422.971439 77.315167 
L 428.465792 77.188964 
L 433.960145 77.069464 
L 439.454497 76.956148 
L 444.94885 76.848549 
L 450.443202 76.746244 
L 455.937555 76.648853 
L 461.431908 76.55603 
L 466.92626 76.467462 
L 472.420613 76.382862 
L 477.914966 76.30197 
L 483.409318 76.224547 
L 488.903671 76.150376 
L 494.398023 76.079255 
L 499.892376 76.011 
L 505.386729 75.945442 
L 510.881081 75.882423 
L 516.375434 75.8218 
L 521.869787 75.763438 
L 527.364139 75.707213 
L 532.858492 75.65301 
L 538.352844 75.600721 
L 543.847197 75.550248 
L 549.34155 75.501497 
L 554.835902 75.454381 
L 560.330255 75.40882 
L 565.824607 75.364738 
L 571.31896 75.322064 
L 576.813313 75.280732 
L 582.307665 75.240679 
L 587.802018 75.201848 
L 593.296371 75.164182 
L 598.790723 75.127631 
L 604.285076 75.092145 
L 609.779428 75.057678 
L 615.273781 75.024188 
L 620.768134 74.991634 
L 626.262486 74.959976 
L 631.756839 74.929178 
L 637.251191 74.899207 
L 642.745544 74.870028 
L 648.239897 74.841611 
L 653.734249 74.813926 
L 659.228602 74.786946 
L 664.722955 74.760644 
" clip-path="url(#pd780500f12)" style="fill: none; stroke-dasharray: 11.1,4.8; stroke-dashoffset: 0; stroke: #000000; stroke-width: 3"/>
   </g>
   <g id="patch_3">
    <path d="M 93.585 419.46 
L 93.585 58.32 
" style="fill: none; stroke: #000000; stroke-width: 2; stroke-linejoin: miter; stroke-linecap: square"/>
   </g>
   <g id="patch_4">
    <path d="M 691.92 419.46 
L 691.92 58.32 
" style="fill: none; stroke: #000000; stroke-width: 2; stroke-linejoin: miter; stroke-linecap: square"/>
   </g>
   <g id="patch_5">
    <path d="M 93.585 419.46 
L 691.92 419.46 
" style="fill: none; stroke: #000000; stroke-width: 2; stroke-linejoin: miter; stroke-linecap: square"/>
   </g>
   <g id="patch_6">
    <path d="M 93.585 58.32 
L 691.92 58.32 
" style="fill: none; stroke: #000000; stroke-width: 2; stroke-linejoin: miter; stroke-linecap: square"/>
   </g>
   <g id="text_13">
    <!-- Energy Components vs. Time -->
    <g transform="translate(160.65375 51.38775) scale(0.312 -0.312)">
     <defs>
      <path id="DejaVuSerif-76" d="M 1581 0 
L 359 2988 
L -19 2988 
L -19 3322 
L 1509 3322 
L 1509 2988 
L 978 2988 
L 1913 703 
L 2847 2988 
L 2350 2988 
L 2350 3322 
L 3597 3322 
L 3597 2988 
L 3225 2988 
L 2003 0 
L 1581 0 
z
" transform="scale(0.015625)"/>
     </defs>
     <use xlink:href="#DejaVuSerif-45"/>
     <use xlink:href="#DejaVuSerif-6e" x="72.998047"/>
     <use xlink:href="#DejaVuSerif-65" x="137.402344"/>
     <use xlink:href="#DejaVuSerif-72" x="196.582031"/>
     <use xlink:href="#DejaVuSerif-67" x="244.384766"/>
     <use xlink:href="#DejaVuSerif-79" x="308.398438"/>
     <use xlink:href="#DejaVuSerif-20" x="364.892578"/>
     <use xlink:href="#DejaVuSerif-43" x="396.679688"/>
     <use xlink:href="#DejaVuSerif-6f" x="473.193359"/>
     <use xlink:href="#DejaVuSerif-6d" x="533.398438"/>
     <use xlink:href="#DejaVuSerif-70" x="628.222656"/>
     <use xlink:href="#DejaVuSerif-6f" x="692.236328"/>
     <use xlink:href="#DejaVuSerif-6e" x="752.441406"/>
     <use xlink:href="#DejaVuSerif-65" x="816.845703"/>
     <use xlink:href="#DejaVuSerif-6e" x="876.025391"/>
     <use xlink:href="#DejaVuSerif-74" x="940.429688"/>
     <use xlink:href="#DejaVuSerif-73" x="980.615234"/>
     <use xlink:href="#DejaVuSerif-20" x="1031.933594"/>
     <use xlink:href="#DejaVuSerif-76" x="1063.720703"/>
     <use xlink:href="#DejaVuSerif-73" x="1120.214844"/>
     <use xlink:href="#DejaVuSerif-2e" x="1171.533203"/>
     <use xlink:href="#DejaVuSerif-20" x="1203.320312"/>
     <use xlink:href="#DejaVuSerif-54" x="1235.107422"/>
     <use xlink:href="#DejaVuSerif-69" x="1301.806641"/>
     <use xlink:href="#DejaVuSerif-6d" x="1333.789062"/>
     <use xlink:href="#DejaVuSerif-65" x="1428.613281"/>
    </g>
   </g>
   <g id="legend_1">
    <g id="patch_7">
     <path d="M 461.848125 315.422813 
L 677.92 315.422813 
Q 681.92 315.422813 681.92 311.422813 
L 681.92 166.357188 
Q 681.92 162.357188 677.92 162.357188 
L 461.848125 162.357188 
Q 457.848125 162.357188 457.848125 166.357188 
L 457.848125 311.422813 
Q 457.848125 315.422813 461.848125 315.422813 
z
" style="fill: #ffffff; opacity: 0.8; stroke: #cccccc; stroke-linejoin: miter"/>
    </g>
    <g id="line2d_26">
     <path d="M 465.848125 178.554063 
L 485.848125 178.554063 
L 505.848125 178.554063 
" style="fill: none; stroke: #1f77b4; stroke-width: 3; stroke-linecap: square"/>
    </g>
    <g id="text_14">
     <!-- Kinetic E -->
     <g transform="translate(521.848125 185.554063) scale(0.2 -0.2)">
      <defs>
       <path id="DejaVuSerif-4b" d="M 353 0 
L 353 331 
L 947 331 
L 947 4331 
L 353 4331 
L 353 4666 
L 2175 4666 
L 2175 4331 
L 1581 4331 
L 1581 2566 
L 3591 4331 
L 3084 4331 
L 3084 4666 
L 4634 4666 
L 4634 4331 
L 4109 4331 
L 2106 2572 
L 4347 331 
L 4878 331 
L 4878 0 
L 3794 0 
L 1581 2216 
L 1581 331 
L 2175 331 
L 2175 0 
L 353 0 
z
" transform="scale(0.015625)"/>
       <path id="DejaVuSerif-63" d="M 3291 997 
Q 3169 466 2822 187 
Q 2475 -91 1925 -91 
Q 1200 -91 759 389 
Q 319 869 319 1663 
Q 319 2459 759 2936 
Q 1200 3413 1925 3413 
Q 2241 3413 2553 3339 
Q 2866 3266 3181 3116 
L 3181 2266 
L 2847 2266 
Q 2781 2703 2561 2903 
Q 2341 3103 1931 3103 
Q 1466 3103 1228 2742 
Q 991 2381 991 1663 
Q 991 944 1227 581 
Q 1463 219 1931 219 
Q 2303 219 2525 412 
Q 2747 606 2828 997 
L 3291 997 
z
" transform="scale(0.015625)"/>
      </defs>
      <use xlink:href="#DejaVuSerif-4b"/>
      <use xlink:href="#DejaVuSerif-69" x="74.707031"/>
      <use xlink:href="#DejaVuSerif-6e" x="106.689453"/>
      <use xlink:href="#DejaVuSerif-65" x="171.09375"/>
      <use xlink:href="#DejaVuSerif-74" x="230.273438"/>
      <use xlink:href="#DejaVuSerif-69" x="270.458984"/>
      <use xlink:href="#DejaVuSerif-63" x="302.441406"/>
      <use xlink:href="#DejaVuSerif-20" x="358.447266"/>
      <use xlink:href="#DejaVuSerif-45" x="390.234375"/>
     </g>
    </g>
    <g id="line2d_27">
     <path d="M 465.848125 207.910313 
L 485.848125 207.910313 
L 505.848125 207.910313 
" style="fill: none; stroke: #ff7f0e; stroke-width: 3; stroke-linecap: square"/>
    </g>
    <g id="text_15">
     <!-- PE e-N -->
     <g transform="translate(521.848125 214.910313) scale(0.2 -0.2)">
      <defs>
       <path id="DejaVuSerif-50" d="M 1581 2375 
L 2406 2375 
Q 2872 2375 3115 2626 
Q 3359 2878 3359 3353 
Q 3359 3831 3115 4081 
Q 2872 4331 2406 4331 
L 1581 4331 
L 1581 2375 
z
M 353 0 
L 353 331 
L 947 331 
L 947 4331 
L 353 4331 
L 353 4666 
L 2559 4666 
Q 3259 4666 3668 4311 
Q 4078 3956 4078 3353 
Q 4078 2753 3668 2397 
Q 3259 2041 2559 2041 
L 1581 2041 
L 1581 331 
L 2303 331 
L 2303 0 
L 353 0 
z
" transform="scale(0.015625)"/>
       <path id="DejaVuSerif-2d" d="M 281 1959 
L 1881 1959 
L 1881 1472 
L 281 1472 
L 281 1959 
z
" transform="scale(0.015625)"/>
       <path id="DejaVuSerif-4e" d="M 313 0 
L 313 331 
L 941 331 
L 941 4331 
L 313 4331 
L 313 4666 
L 1509 4666 
L 4306 984 
L 4306 4331 
L 3681 4331 
L 3681 4666 
L 5319 4666 
L 5319 4331 
L 4691 4331 
L 4691 -91 
L 4313 -91 
L 1325 3841 
L 1325 331 
L 1953 331 
L 1953 0 
L 313 0 
z
" transform="scale(0.015625)"/>
      </defs>
      <use xlink:href="#DejaVuSerif-50"/>
      <use xlink:href="#DejaVuSerif-45" x="67.285156"/>
      <use xlink:href="#DejaVuSerif-20" x="140.283203"/>
      <use xlink:href="#DejaVuSerif-65" x="172.070312"/>
      <use xlink:href="#DejaVuSerif-2d" x="231.25"/>
      <use xlink:href="#DejaVuSerif-4e" x="265.039062"/>
     </g>
    </g>
    <g id="line2d_28">
     <path d="M 465.848125 237.266563 
L 485.848125 237.266563 
L 505.848125 237.266563 
" style="fill: none; stroke: #2ca02c; stroke-width: 3; stroke-linecap: square"/>
    </g>
    <g id="text_16">
     <!-- PE e-e -->
     <g transform="translate(521.848125 244.266563) scale(0.2 -0.2)">
      <use xlink:href="#DejaVuSerif-50"/>
      <use xlink:href="#DejaVuSerif-45" x="67.285156"/>
      <use xlink:href="#DejaVuSerif-20" x="140.283203"/>
      <use xlink:href="#DejaVuSerif-65" x="172.070312"/>
      <use xlink:href="#DejaVuSerif-2d" x="231.25"/>
      <use xlink:href="#DejaVuSerif-65" x="265.039062"/>
     </g>
    </g>
    <g id="line2d_29">
     <path d="M 465.848125 266.622813 
L 485.848125 266.622813 
L 505.848125 266.622813 
" style="fill: none; stroke: #d62728; stroke-width: 3; stroke-linecap: square"/>
    </g>
    <g id="text_17">
     <!-- PE Heisenberg -->
     <g transform="translate(521.848125 273.622813) scale(0.2 -0.2)">
      <defs>
       <path id="DejaVuSerif-48" d="M 353 0 
L 353 331 
L 947 331 
L 947 4331 
L 353 4331 
L 353 4666 
L 2175 4666 
L 2175 4331 
L 1581 4331 
L 1581 2719 
L 4000 2719 
L 4000 4331 
L 3406 4331 
L 3406 4666 
L 5228 4666 
L 5228 4331 
L 4634 4331 
L 4634 331 
L 5228 331 
L 5228 0 
L 3406 0 
L 3406 331 
L 4000 331 
L 4000 2338 
L 1581 2338 
L 1581 331 
L 2175 331 
L 2175 0 
L 353 0 
z
" transform="scale(0.015625)"/>
       <path id="DejaVuSerif-62" d="M 738 331 
L 738 4531 
L 184 4531 
L 184 4863 
L 1313 4863 
L 1313 2803 
Q 1481 3116 1742 3264 
Q 2003 3413 2388 3413 
Q 3000 3413 3387 2928 
Q 3775 2444 3775 1663 
Q 3775 881 3387 395 
Q 3000 -91 2388 -91 
Q 2003 -91 1742 57 
Q 1481 206 1313 519 
L 1313 0 
L 184 0 
L 184 331 
L 738 331 
z
M 1313 1497 
Q 1313 897 1542 583 
Q 1772 269 2209 269 
Q 2650 269 2876 622 
Q 3103 975 3103 1663 
Q 3103 2353 2876 2703 
Q 2650 3053 2209 3053 
Q 1772 3053 1542 2737 
Q 1313 2422 1313 1825 
L 1313 1497 
z
" transform="scale(0.015625)"/>
      </defs>
      <use xlink:href="#DejaVuSerif-50"/>
      <use xlink:href="#DejaVuSerif-45" x="67.285156"/>
      <use xlink:href="#DejaVuSerif-20" x="140.283203"/>
      <use xlink:href="#DejaVuSerif-48" x="172.070312"/>
      <use xlink:href="#DejaVuSerif-65" x="259.277344"/>
      <use xlink:href="#DejaVuSerif-69" x="318.457031"/>
      <use xlink:href="#DejaVuSerif-73" x="350.439453"/>
      <use xlink:href="#DejaVuSerif-65" x="401.757812"/>
      <use xlink:href="#DejaVuSerif-6e" x="460.9375"/>
      <use xlink:href="#DejaVuSerif-62" x="525.341797"/>
      <use xlink:href="#DejaVuSerif-65" x="589.355469"/>
      <use xlink:href="#DejaVuSerif-72" x="648.535156"/>
      <use xlink:href="#DejaVuSerif-67" x="696.337891"/>
     </g>
    </g>
    <g id="line2d_30">
     <path d="M 465.848125 296.263438 
L 485.848125 296.263438 
L 505.848125 296.263438 
" style="fill: none; stroke-dasharray: 11.1,4.8; stroke-dashoffset: 0; stroke: #000000; stroke-width: 3"/>
    </g>
    <g id="text_18">
     <!-- Total E -->
     <g transform="translate(521.848125 303.263438) scale(0.2 -0.2)">
      <defs>
       <path id="DejaVuSerif-6c" d="M 1313 331 
L 1856 331 
L 1856 0 
L 184 0 
L 184 331 
L 738 331 
L 738 4531 
L 184 4531 
L 184 4863 
L 1313 4863 
L 1313 331 
z
" transform="scale(0.015625)"/>
      </defs>
      <use xlink:href="#DejaVuSerif-54"/>
      <use xlink:href="#DejaVuSerif-6f" x="58.949219"/>
      <use xlink:href="#DejaVuSerif-74" x="119.154297"/>
      <use xlink:href="#DejaVuSerif-61" x="159.339844"/>
      <use xlink:href="#DejaVuSerif-6c" x="218.958984"/>
      <use xlink:href="#DejaVuSerif-20" x="250.941406"/>
      <use xlink:href="#DejaVuSerif-45" x="282.728516"/>
     </g>
    </g>
   </g>
  </g>
 </g>
 <defs>
  <clipPath id="pd780500f12">
   <rect x="93.585" y="58.32" width="598.335" height="361.14"/>
  </clipPath>
 </defs>
</svg>
