<?xml version="1.0" encoding="utf-8" standalone="no"?>
<!DOCTYPE svg PUBLIC "-//W3C//DTD SVG 1.1//EN"
  "http://www.w3.org/Graphics/SVG/1.1/DTD/svg11.dtd">
<svg xmlns:xlink="http://www.w3.org/1999/xlink" width="864pt" height="576pt" viewBox="0 0 864 576" xmlns="http://www.w3.org/2000/svg" version="1.1">
 <metadata>
  <rdf:RDF xmlns:dc="http://purl.org/dc/elements/1.1/" xmlns:cc="http://creativecommons.org/ns#" xmlns:rdf="http://www.w3.org/1999/02/22-rdf-syntax-ns#">
   <cc:Work>
    <dc:type rdf:resource="http://purl.org/dc/dcmitype/StillImage"/>
    <dc:date>2025-06-10T13:42:28.660224</dc:date>
    <dc:format>image/svg+xml</dc:format>
    <dc:creator>
     <cc:Agent>
      <dc:title>Matplotlib v3.7.2, https://matplotlib.org/</dc:title>
     </cc:Agent>
    </dc:creator>
   </cc:Work>
  </rdf:RDF>
 </metadata>
 <defs>
  <style type="text/css">*{stroke-linejoin: round; stroke-linecap: butt}</style>
 </defs>
 <g id="figure_1">
  <g id="patch_1">
   <path d="M 0 576 
L 864 576 
L 864 0 
L 0 0 
z
" style="fill: #ffffff"/>
  </g>
  <g id="axes_1">
   <g id="patch_2">
    <path d="M 110.145 489.2325 
L 833.191364 489.2325 
L 833.191364 35.735588 
L 110.145 35.735588 
z
" style="fill: #ffffff"/>
   </g>
   <g id="matplotlib.axis_1">
    <g id="xtick_1">
     <g id="line2d_1">
      <path d="M 143.010744 489.2325 
L 143.010744 35.735588 
" clip-path="url(#p62a8f51a61)" style="fill: none; stroke-dasharray: 3.7,1.6; stroke-dashoffset: 0; stroke: #b0b0b0; stroke-opacity: 0.5"/>
     </g>
     <g id="line2d_2">
      <defs>
       <path id="m723b5dd37c" d="M 0 0 
L 0 -10 
" style="stroke: #000000; stroke-width: 2"/>
      </defs>
      <g>
       <use xlink:href="#m723b5dd37c" x="143.010744" y="489.2325" style="stroke: #000000; stroke-width: 2"/>
      </g>
     </g>
     <g id="line2d_3">
      <defs>
       <path id="m1de0babe43" d="M 0 0 
L 0 10 
" style="stroke: #000000; stroke-width: 2"/>
      </defs>
      <g>
       <use xlink:href="#m1de0babe43" x="143.010744" y="35.735588" style="stroke: #000000; stroke-width: 2"/>
      </g>
     </g>
     <g id="text_1">
      <!-- 0 -->
      <g transform="translate(134.739494 512.488438) scale(0.26 -0.26)">
       <defs>
        <path id="DejaVuSerif-30" d="M 2034 219 
Q 2513 219 2750 744 
Q 2988 1269 2988 2328 
Q 2988 3391 2750 3916 
Q 2513 4441 2034 4441 
Q 1556 4441 1318 3916 
Q 1081 3391 1081 2328 
Q 1081 1269 1318 744 
Q 1556 219 2034 219 
z
M 2034 -91 
Q 1275 -91 848 546 
Q 422 1184 422 2328 
Q 422 3475 848 4112 
Q 1275 4750 2034 4750 
Q 2797 4750 3222 4112 
Q 3647 3475 3647 2328 
Q 3647 1184 3222 546 
Q 2797 -91 2034 -91 
z
" transform="scale(0.015625)"/>
       </defs>
       <use xlink:href="#DejaVuSerif-30"/>
      </g>
     </g>
    </g>
    <g id="xtick_2">
     <g id="line2d_4">
      <path d="M 274.473719 489.2325 
L 274.473719 35.735588 
" clip-path="url(#p62a8f51a61)" style="fill: none; stroke-dasharray: 3.7,1.6; stroke-dashoffset: 0; stroke: #b0b0b0; stroke-opacity: 0.5"/>
     </g>
     <g id="line2d_5">
      <g>
       <use xlink:href="#m723b5dd37c" x="274.473719" y="489.2325" style="stroke: #000000; stroke-width: 2"/>
      </g>
     </g>
     <g id="line2d_6">
      <g>
       <use xlink:href="#m1de0babe43" x="274.473719" y="35.735588" style="stroke: #000000; stroke-width: 2"/>
      </g>
     </g>
     <g id="text_2">
      <!-- 500 -->
      <g transform="translate(249.659969 512.488438) scale(0.26 -0.26)">
       <defs>
        <path id="DejaVuSerif-35" d="M 3219 4666 
L 3219 4153 
L 1081 4153 
L 1081 2816 
Q 1244 2928 1461 2984 
Q 1678 3041 1947 3041 
Q 2703 3041 3140 2622 
Q 3578 2203 3578 1478 
Q 3578 738 3136 323 
Q 2694 -91 1894 -91 
Q 1572 -91 1234 -12 
Q 897 66 544 225 
L 544 1131 
L 897 1131 
Q 925 688 1179 453 
Q 1434 219 1894 219 
Q 2388 219 2653 544 
Q 2919 869 2919 1478 
Q 2919 2084 2655 2407 
Q 2391 2731 1894 2731 
Q 1613 2731 1398 2631 
Q 1184 2531 1019 2322 
L 750 2322 
L 750 4666 
L 3219 4666 
z
" transform="scale(0.015625)"/>
       </defs>
       <use xlink:href="#DejaVuSerif-35"/>
       <use xlink:href="#DejaVuSerif-30" x="63.623047"/>
       <use xlink:href="#DejaVuSerif-30" x="127.246094"/>
      </g>
     </g>
    </g>
    <g id="xtick_3">
     <g id="line2d_7">
      <path d="M 405.936694 489.2325 
L 405.936694 35.735588 
" clip-path="url(#p62a8f51a61)" style="fill: none; stroke-dasharray: 3.7,1.6; stroke-dashoffset: 0; stroke: #b0b0b0; stroke-opacity: 0.5"/>
     </g>
     <g id="line2d_8">
      <g>
       <use xlink:href="#m723b5dd37c" x="405.936694" y="489.2325" style="stroke: #000000; stroke-width: 2"/>
      </g>
     </g>
     <g id="line2d_9">
      <g>
       <use xlink:href="#m1de0babe43" x="405.936694" y="35.735588" style="stroke: #000000; stroke-width: 2"/>
      </g>
     </g>
     <g id="text_3">
      <!-- 1000 -->
      <g transform="translate(372.851694 512.488438) scale(0.26 -0.26)">
       <defs>
        <path id="DejaVuSerif-31" d="M 909 0 
L 909 331 
L 1722 331 
L 1722 4213 
L 781 3603 
L 781 4013 
L 1919 4750 
L 2350 4750 
L 2350 331 
L 3163 331 
L 3163 0 
L 909 0 
z
" transform="scale(0.015625)"/>
       </defs>
       <use xlink:href="#DejaVuSerif-31"/>
       <use xlink:href="#DejaVuSerif-30" x="63.623047"/>
       <use xlink:href="#DejaVuSerif-30" x="127.246094"/>
       <use xlink:href="#DejaVuSerif-30" x="190.869141"/>
      </g>
     </g>
    </g>
    <g id="xtick_4">
     <g id="line2d_10">
      <path d="M 537.399669 489.2325 
L 537.399669 35.735588 
" clip-path="url(#p62a8f51a61)" style="fill: none; stroke-dasharray: 3.7,1.6; stroke-dashoffset: 0; stroke: #b0b0b0; stroke-opacity: 0.5"/>
     </g>
     <g id="line2d_11">
      <g>
       <use xlink:href="#m723b5dd37c" x="537.399669" y="489.2325" style="stroke: #000000; stroke-width: 2"/>
      </g>
     </g>
     <g id="line2d_12">
      <g>
       <use xlink:href="#m1de0babe43" x="537.399669" y="35.735588" style="stroke: #000000; stroke-width: 2"/>
      </g>
     </g>
     <g id="text_4">
      <!-- 1500 -->
      <g transform="translate(504.314669 512.488438) scale(0.26 -0.26)">
       <use xlink:href="#DejaVuSerif-31"/>
       <use xlink:href="#DejaVuSerif-35" x="63.623047"/>
       <use xlink:href="#DejaVuSerif-30" x="127.246094"/>
       <use xlink:href="#DejaVuSerif-30" x="190.869141"/>
      </g>
     </g>
    </g>
    <g id="xtick_5">
     <g id="line2d_13">
      <path d="M 668.862645 489.2325 
L 668.862645 35.735588 
" clip-path="url(#p62a8f51a61)" style="fill: none; stroke-dasharray: 3.7,1.6; stroke-dashoffset: 0; stroke: #b0b0b0; stroke-opacity: 0.5"/>
     </g>
     <g id="line2d_14">
      <g>
       <use xlink:href="#m723b5dd37c" x="668.862645" y="489.2325" style="stroke: #000000; stroke-width: 2"/>
      </g>
     </g>
     <g id="line2d_15">
      <g>
       <use xlink:href="#m1de0babe43" x="668.862645" y="35.735588" style="stroke: #000000; stroke-width: 2"/>
      </g>
     </g>
     <g id="text_5">
      <!-- 2000 -->
      <g transform="translate(635.777645 512.488438) scale(0.26 -0.26)">
       <defs>
        <path id="DejaVuSerif-32" d="M 819 3553 
L 469 3553 
L 469 4384 
Q 803 4563 1142 4656 
Q 1481 4750 1806 4750 
Q 2534 4750 2956 4397 
Q 3378 4044 3378 3438 
Q 3378 2753 2422 1800 
Q 2347 1728 2309 1691 
L 1131 513 
L 3078 513 
L 3078 1088 
L 3444 1088 
L 3444 0 
L 434 0 
L 434 341 
L 1850 1753 
Q 2319 2222 2519 2614 
Q 2719 3006 2719 3438 
Q 2719 3909 2473 4175 
Q 2228 4441 1797 4441 
Q 1350 4441 1106 4219 
Q 863 3997 819 3553 
z
" transform="scale(0.015625)"/>
       </defs>
       <use xlink:href="#DejaVuSerif-32"/>
       <use xlink:href="#DejaVuSerif-30" x="63.623047"/>
       <use xlink:href="#DejaVuSerif-30" x="127.246094"/>
       <use xlink:href="#DejaVuSerif-30" x="190.869141"/>
      </g>
     </g>
    </g>
    <g id="xtick_6">
     <g id="line2d_16">
      <path d="M 800.32562 489.2325 
L 800.32562 35.735588 
" clip-path="url(#p62a8f51a61)" style="fill: none; stroke-dasharray: 3.7,1.6; stroke-dashoffset: 0; stroke: #b0b0b0; stroke-opacity: 0.5"/>
     </g>
     <g id="line2d_17">
      <g>
       <use xlink:href="#m723b5dd37c" x="800.32562" y="489.2325" style="stroke: #000000; stroke-width: 2"/>
      </g>
     </g>
     <g id="line2d_18">
      <g>
       <use xlink:href="#m1de0babe43" x="800.32562" y="35.735588" style="stroke: #000000; stroke-width: 2"/>
      </g>
     </g>
     <g id="text_6">
      <!-- 2500 -->
      <g transform="translate(767.24062 512.488438) scale(0.26 -0.26)">
       <use xlink:href="#DejaVuSerif-32"/>
       <use xlink:href="#DejaVuSerif-35" x="63.623047"/>
       <use xlink:href="#DejaVuSerif-30" x="127.246094"/>
       <use xlink:href="#DejaVuSerif-30" x="190.869141"/>
      </g>
     </g>
    </g>
    <g id="text_7">
     <!-- $t$ (a.u.) -->
     <g transform="translate(428.248182 541.651562) scale(0.26 -0.26)">
      <defs>
       <path id="Cmmi10-74" d="M 397 519 
Q 397 613 416 697 
L 878 2534 
L 206 2534 
Q 141 2534 141 2619 
Q 166 2759 225 2759 
L 934 2759 
L 1191 3803 
Q 1216 3888 1291 3947 
Q 1366 4006 1459 4006 
Q 1541 4006 1595 3957 
Q 1650 3909 1650 3828 
Q 1650 3809 1648 3798 
Q 1647 3788 1644 3775 
L 1388 2759 
L 2047 2759 
Q 2113 2759 2113 2675 
Q 2109 2659 2100 2621 
Q 2091 2584 2075 2559 
Q 2059 2534 2028 2534 
L 1331 2534 
L 872 684 
Q 825 503 825 372 
Q 825 97 1013 97 
Q 1294 97 1511 361 
Q 1728 625 1844 941 
Q 1869 978 1894 978 
L 1972 978 
Q 1997 978 2012 961 
Q 2028 944 2028 922 
Q 2028 909 2022 903 
Q 1881 516 1612 222 
Q 1344 -72 997 -72 
Q 744 -72 570 93 
Q 397 259 397 519 
z
" transform="scale(0.015625)"/>
       <path id="DejaVuSerif-20" transform="scale(0.015625)"/>
       <path id="DejaVuSerif-28" d="M 2041 -997 
Q 1281 -656 893 83 
Q 506 822 506 1931 
Q 506 3044 893 3783 
Q 1281 4522 2041 4863 
L 2041 4556 
Q 1559 4225 1350 3623 
Q 1141 3022 1141 1931 
Q 1141 844 1350 242 
Q 1559 -359 2041 -691 
L 2041 -997 
z
" transform="scale(0.015625)"/>
       <path id="DejaVuSerif-61" d="M 2547 1044 
L 2547 1747 
L 1806 1747 
Q 1378 1747 1168 1562 
Q 959 1378 959 997 
Q 959 650 1171 447 
Q 1384 244 1747 244 
Q 2106 244 2326 466 
Q 2547 688 2547 1044 
z
M 3122 2075 
L 3122 331 
L 3634 331 
L 3634 0 
L 2547 0 
L 2547 359 
Q 2356 128 2106 18 
Q 1856 -91 1522 -91 
Q 969 -91 644 203 
Q 319 497 319 997 
Q 319 1513 691 1797 
Q 1063 2081 1741 2081 
L 2547 2081 
L 2547 2309 
Q 2547 2688 2317 2895 
Q 2088 3103 1672 3103 
Q 1328 3103 1125 2947 
Q 922 2791 872 2484 
L 575 2484 
L 575 3156 
Q 875 3284 1158 3348 
Q 1441 3413 1709 3413 
Q 2400 3413 2761 3070 
Q 3122 2728 3122 2075 
z
" transform="scale(0.015625)"/>
       <path id="DejaVuSerif-2e" d="M 603 325 
Q 603 500 722 622 
Q 841 744 1019 744 
Q 1191 744 1312 622 
Q 1434 500 1434 325 
Q 1434 153 1312 31 
Q 1191 -91 1019 -91 
Q 841 -91 722 29 
Q 603 150 603 325 
z
" transform="scale(0.015625)"/>
       <path id="DejaVuSerif-75" d="M 2266 3322 
L 3341 3322 
L 3341 331 
L 3884 331 
L 3884 0 
L 2766 0 
L 2766 588 
Q 2606 256 2353 82 
Q 2100 -91 1766 -91 
Q 1213 -91 952 223 
Q 691 538 691 1209 
L 691 2988 
L 172 2988 
L 172 3322 
L 1269 3322 
L 1269 1388 
Q 1269 781 1417 556 
Q 1566 331 1947 331 
Q 2347 331 2556 625 
Q 2766 919 2766 1478 
L 2766 2988 
L 2266 2988 
L 2266 3322 
z
" transform="scale(0.015625)"/>
       <path id="DejaVuSerif-29" d="M 453 -997 
L 453 -691 
Q 934 -359 1145 242 
Q 1356 844 1356 1931 
Q 1356 3022 1145 3623 
Q 934 4225 453 4556 
L 453 4863 
Q 1216 4522 1603 3783 
Q 1991 3044 1991 1931 
Q 1991 822 1603 83 
Q 1216 -656 453 -997 
z
" transform="scale(0.015625)"/>
      </defs>
      <use xlink:href="#Cmmi10-74" transform="translate(0 0.015625)"/>
      <use xlink:href="#DejaVuSerif-20" transform="translate(36.083984 0.015625)"/>
      <use xlink:href="#DejaVuSerif-28" transform="translate(67.871094 0.015625)"/>
      <use xlink:href="#DejaVuSerif-61" transform="translate(106.884766 0.015625)"/>
      <use xlink:href="#DejaVuSerif-2e" transform="translate(166.503906 0.015625)"/>
      <use xlink:href="#DejaVuSerif-75" transform="translate(198.291016 0.015625)"/>
      <use xlink:href="#DejaVuSerif-2e" transform="translate(262.695312 0.015625)"/>
      <use xlink:href="#DejaVuSerif-29" transform="translate(294.482422 0.015625)"/>
     </g>
    </g>
   </g>
   <g id="matplotlib.axis_2">
    <g id="ytick_1">
     <g id="line2d_19">
      <path d="M 110.145 478.365004 
L 833.191364 478.365004 
" clip-path="url(#p62a8f51a61)" style="fill: none; stroke-dasharray: 3.7,1.6; stroke-dashoffset: 0; stroke: #b0b0b0; stroke-opacity: 0.5"/>
     </g>
     <g id="line2d_20">
      <defs>
       <path id="mefa0225b82" d="M 0 0 
L 10 0 
" style="stroke: #000000; stroke-width: 2"/>
      </defs>
      <g>
       <use xlink:href="#mefa0225b82" x="110.145" y="478.365004" style="stroke: #000000; stroke-width: 2"/>
      </g>
     </g>
     <g id="line2d_21">
      <defs>
       <path id="m227cc154bf" d="M 0 0 
L -10 0 
" style="stroke: #000000; stroke-width: 2"/>
      </defs>
      <g>
       <use xlink:href="#m227cc154bf" x="833.191364" y="478.365004" style="stroke: #000000; stroke-width: 2"/>
      </g>
     </g>
     <g id="text_8">
      <!-- −3.5 -->
      <g transform="translate(43.509687 488.242973) scale(0.26 -0.26)">
       <defs>
        <path id="DejaVuSerif-2212" d="M 678 2259 
L 4684 2259 
L 4684 1753 
L 678 1753 
L 678 2259 
z
" transform="scale(0.015625)"/>
        <path id="DejaVuSerif-33" d="M 622 4469 
Q 988 4606 1323 4678 
Q 1659 4750 1953 4750 
Q 2638 4750 3022 4454 
Q 3406 4159 3406 3634 
Q 3406 3213 3140 2930 
Q 2875 2647 2388 2547 
Q 2963 2466 3280 2130 
Q 3597 1794 3597 1259 
Q 3597 606 3158 257 
Q 2719 -91 1894 -91 
Q 1528 -91 1179 -12 
Q 831 66 488 225 
L 488 1131 
L 838 1131 
Q 869 681 1141 450 
Q 1413 219 1906 219 
Q 2384 219 2661 495 
Q 2938 772 2938 1253 
Q 2938 1803 2653 2086 
Q 2369 2369 1819 2369 
L 1522 2369 
L 1522 2688 
L 1678 2688 
Q 2225 2688 2498 2914 
Q 2772 3141 2772 3597 
Q 2772 4006 2547 4223 
Q 2322 4441 1900 4441 
Q 1478 4441 1245 4241 
Q 1013 4041 972 3647 
L 622 3647 
L 622 4469 
z
" transform="scale(0.015625)"/>
       </defs>
       <use xlink:href="#DejaVuSerif-2212"/>
       <use xlink:href="#DejaVuSerif-33" x="83.789062"/>
       <use xlink:href="#DejaVuSerif-2e" x="147.412109"/>
       <use xlink:href="#DejaVuSerif-35" x="179.199219"/>
      </g>
     </g>
    </g>
    <g id="ytick_2">
     <g id="line2d_22">
      <path d="M 110.145 416.04691 
L 833.191364 416.04691 
" clip-path="url(#p62a8f51a61)" style="fill: none; stroke-dasharray: 3.7,1.6; stroke-dashoffset: 0; stroke: #b0b0b0; stroke-opacity: 0.5"/>
     </g>
     <g id="line2d_23">
      <g>
       <use xlink:href="#mefa0225b82" x="110.145" y="416.04691" style="stroke: #000000; stroke-width: 2"/>
      </g>
     </g>
     <g id="line2d_24">
      <g>
       <use xlink:href="#m227cc154bf" x="833.191364" y="416.04691" style="stroke: #000000; stroke-width: 2"/>
      </g>
     </g>
     <g id="text_9">
      <!-- −3.0 -->
      <g transform="translate(43.509687 425.924879) scale(0.26 -0.26)">
       <use xlink:href="#DejaVuSerif-2212"/>
       <use xlink:href="#DejaVuSerif-33" x="83.789062"/>
       <use xlink:href="#DejaVuSerif-2e" x="147.412109"/>
       <use xlink:href="#DejaVuSerif-30" x="179.199219"/>
      </g>
     </g>
    </g>
    <g id="ytick_3">
     <g id="line2d_25">
      <path d="M 110.145 353.728816 
L 833.191364 353.728816 
" clip-path="url(#p62a8f51a61)" style="fill: none; stroke-dasharray: 3.7,1.6; stroke-dashoffset: 0; stroke: #b0b0b0; stroke-opacity: 0.5"/>
     </g>
     <g id="line2d_26">
      <g>
       <use xlink:href="#mefa0225b82" x="110.145" y="353.728816" style="stroke: #000000; stroke-width: 2"/>
      </g>
     </g>
     <g id="line2d_27">
      <g>
       <use xlink:href="#m227cc154bf" x="833.191364" y="353.728816" style="stroke: #000000; stroke-width: 2"/>
      </g>
     </g>
     <g id="text_10">
      <!-- −2.5 -->
      <g transform="translate(43.509687 363.606785) scale(0.26 -0.26)">
       <use xlink:href="#DejaVuSerif-2212"/>
       <use xlink:href="#DejaVuSerif-32" x="83.789062"/>
       <use xlink:href="#DejaVuSerif-2e" x="147.412109"/>
       <use xlink:href="#DejaVuSerif-35" x="179.199219"/>
      </g>
     </g>
    </g>
    <g id="ytick_4">
     <g id="line2d_28">
      <path d="M 110.145 291.410722 
L 833.191364 291.410722 
" clip-path="url(#p62a8f51a61)" style="fill: none; stroke-dasharray: 3.7,1.6; stroke-dashoffset: 0; stroke: #b0b0b0; stroke-opacity: 0.5"/>
     </g>
     <g id="line2d_29">
      <g>
       <use xlink:href="#mefa0225b82" x="110.145" y="291.410722" style="stroke: #000000; stroke-width: 2"/>
      </g>
     </g>
     <g id="line2d_30">
      <g>
       <use xlink:href="#m227cc154bf" x="833.191364" y="291.410722" style="stroke: #000000; stroke-width: 2"/>
      </g>
     </g>
     <g id="text_11">
      <!-- −2.0 -->
      <g transform="translate(43.509687 301.288691) scale(0.26 -0.26)">
       <use xlink:href="#DejaVuSerif-2212"/>
       <use xlink:href="#DejaVuSerif-32" x="83.789062"/>
       <use xlink:href="#DejaVuSerif-2e" x="147.412109"/>
       <use xlink:href="#DejaVuSerif-30" x="179.199219"/>
      </g>
     </g>
    </g>
    <g id="ytick_5">
     <g id="line2d_31">
      <path d="M 110.145 229.092628 
L 833.191364 229.092628 
" clip-path="url(#p62a8f51a61)" style="fill: none; stroke-dasharray: 3.7,1.6; stroke-dashoffset: 0; stroke: #b0b0b0; stroke-opacity: 0.5"/>
     </g>
     <g id="line2d_32">
      <g>
       <use xlink:href="#mefa0225b82" x="110.145" y="229.092628" style="stroke: #000000; stroke-width: 2"/>
      </g>
     </g>
     <g id="line2d_33">
      <g>
       <use xlink:href="#m227cc154bf" x="833.191364" y="229.092628" style="stroke: #000000; stroke-width: 2"/>
      </g>
     </g>
     <g id="text_12">
      <!-- −1.5 -->
      <g transform="translate(43.509687 238.970597) scale(0.26 -0.26)">
       <use xlink:href="#DejaVuSerif-2212"/>
       <use xlink:href="#DejaVuSerif-31" x="83.789062"/>
       <use xlink:href="#DejaVuSerif-2e" x="147.412109"/>
       <use xlink:href="#DejaVuSerif-35" x="179.199219"/>
      </g>
     </g>
    </g>
    <g id="ytick_6">
     <g id="line2d_34">
      <path d="M 110.145 166.774534 
L 833.191364 166.774534 
" clip-path="url(#p62a8f51a61)" style="fill: none; stroke-dasharray: 3.7,1.6; stroke-dashoffset: 0; stroke: #b0b0b0; stroke-opacity: 0.5"/>
     </g>
     <g id="line2d_35">
      <g>
       <use xlink:href="#mefa0225b82" x="110.145" y="166.774534" style="stroke: #000000; stroke-width: 2"/>
      </g>
     </g>
     <g id="line2d_36">
      <g>
       <use xlink:href="#m227cc154bf" x="833.191364" y="166.774534" style="stroke: #000000; stroke-width: 2"/>
      </g>
     </g>
     <g id="text_13">
      <!-- −1.0 -->
      <g transform="translate(43.509687 176.652503) scale(0.26 -0.26)">
       <use xlink:href="#DejaVuSerif-2212"/>
       <use xlink:href="#DejaVuSerif-31" x="83.789062"/>
       <use xlink:href="#DejaVuSerif-2e" x="147.412109"/>
       <use xlink:href="#DejaVuSerif-30" x="179.199219"/>
      </g>
     </g>
    </g>
    <g id="ytick_7">
     <g id="line2d_37">
      <path d="M 110.145 104.45644 
L 833.191364 104.45644 
" clip-path="url(#p62a8f51a61)" style="fill: none; stroke-dasharray: 3.7,1.6; stroke-dashoffset: 0; stroke: #b0b0b0; stroke-opacity: 0.5"/>
     </g>
     <g id="line2d_38">
      <g>
       <use xlink:href="#mefa0225b82" x="110.145" y="104.45644" style="stroke: #000000; stroke-width: 2"/>
      </g>
     </g>
     <g id="line2d_39">
      <g>
       <use xlink:href="#m227cc154bf" x="833.191364" y="104.45644" style="stroke: #000000; stroke-width: 2"/>
      </g>
     </g>
     <g id="text_14">
      <!-- −0.5 -->
      <g transform="translate(43.509687 114.334409) scale(0.26 -0.26)">
       <use xlink:href="#DejaVuSerif-2212"/>
       <use xlink:href="#DejaVuSerif-30" x="83.789062"/>
       <use xlink:href="#DejaVuSerif-2e" x="147.412109"/>
       <use xlink:href="#DejaVuSerif-35" x="179.199219"/>
      </g>
     </g>
    </g>
    <g id="ytick_8">
     <g id="line2d_40">
      <path d="M 110.145 42.138346 
L 833.191364 42.138346 
" clip-path="url(#p62a8f51a61)" style="fill: none; stroke-dasharray: 3.7,1.6; stroke-dashoffset: 0; stroke: #b0b0b0; stroke-opacity: 0.5"/>
     </g>
     <g id="line2d_41">
      <g>
       <use xlink:href="#mefa0225b82" x="110.145" y="42.138346" style="stroke: #000000; stroke-width: 2"/>
      </g>
     </g>
     <g id="line2d_42">
      <g>
       <use xlink:href="#m227cc154bf" x="833.191364" y="42.138346" style="stroke: #000000; stroke-width: 2"/>
      </g>
     </g>
     <g id="text_15">
      <!-- 0.0 -->
      <g transform="translate(65.296875 52.016315) scale(0.26 -0.26)">
       <use xlink:href="#DejaVuSerif-30"/>
       <use xlink:href="#DejaVuSerif-2e" x="63.623047"/>
       <use xlink:href="#DejaVuSerif-30" x="95.410156"/>
      </g>
     </g>
    </g>
    <g id="text_16">
     <!-- Particle energy (a.u.) -->
     <g transform="translate(33.732812 401.5617) rotate(-90) scale(0.26 -0.26)">
      <defs>
       <path id="DejaVuSerif-50" d="M 1581 2375 
L 2406 2375 
Q 2872 2375 3115 2626 
Q 3359 2878 3359 3353 
Q 3359 3831 3115 4081 
Q 2872 4331 2406 4331 
L 1581 4331 
L 1581 2375 
z
M 353 0 
L 353 331 
L 947 331 
L 947 4331 
L 353 4331 
L 353 4666 
L 2559 4666 
Q 3259 4666 3668 4311 
Q 4078 3956 4078 3353 
Q 4078 2753 3668 2397 
Q 3259 2041 2559 2041 
L 1581 2041 
L 1581 331 
L 2303 331 
L 2303 0 
L 353 0 
z
" transform="scale(0.015625)"/>
       <path id="DejaVuSerif-72" d="M 3059 3328 
L 3059 2497 
L 2728 2497 
Q 2713 2744 2591 2866 
Q 2469 2988 2234 2988 
Q 1809 2988 1582 2694 
Q 1356 2400 1356 1850 
L 1356 331 
L 2022 331 
L 2022 0 
L 263 0 
L 263 331 
L 781 331 
L 781 2994 
L 231 2994 
L 231 3322 
L 1356 3322 
L 1356 2731 
Q 1525 3078 1790 3245 
Q 2056 3413 2438 3413 
Q 2578 3413 2733 3391 
Q 2888 3369 3059 3328 
z
" transform="scale(0.015625)"/>
       <path id="DejaVuSerif-74" d="M 691 2988 
L 184 2988 
L 184 3322 
L 691 3322 
L 691 4353 
L 1269 4353 
L 1269 3322 
L 2350 3322 
L 2350 2988 
L 1269 2988 
L 1269 878 
Q 1269 456 1350 337 
Q 1431 219 1650 219 
Q 1875 219 1978 351 
Q 2081 484 2088 781 
L 2522 781 
Q 2497 328 2275 118 
Q 2053 -91 1600 -91 
Q 1103 -91 897 129 
Q 691 350 691 878 
L 691 2988 
z
" transform="scale(0.015625)"/>
       <path id="DejaVuSerif-69" d="M 622 4353 
Q 622 4497 726 4603 
Q 831 4709 978 4709 
Q 1122 4709 1226 4603 
Q 1331 4497 1331 4353 
Q 1331 4206 1228 4103 
Q 1125 4000 978 4000 
Q 831 4000 726 4103 
Q 622 4206 622 4353 
z
M 1356 331 
L 1900 331 
L 1900 0 
L 231 0 
L 231 331 
L 781 331 
L 781 2988 
L 231 2988 
L 231 3322 
L 1356 3322 
L 1356 331 
z
" transform="scale(0.015625)"/>
       <path id="DejaVuSerif-63" d="M 3291 997 
Q 3169 466 2822 187 
Q 2475 -91 1925 -91 
Q 1200 -91 759 389 
Q 319 869 319 1663 
Q 319 2459 759 2936 
Q 1200 3413 1925 3413 
Q 2241 3413 2553 3339 
Q 2866 3266 3181 3116 
L 3181 2266 
L 2847 2266 
Q 2781 2703 2561 2903 
Q 2341 3103 1931 3103 
Q 1466 3103 1228 2742 
Q 991 2381 991 1663 
Q 991 944 1227 581 
Q 1463 219 1931 219 
Q 2303 219 2525 412 
Q 2747 606 2828 997 
L 3291 997 
z
" transform="scale(0.015625)"/>
       <path id="DejaVuSerif-6c" d="M 1313 331 
L 1856 331 
L 1856 0 
L 184 0 
L 184 331 
L 738 331 
L 738 4531 
L 184 4531 
L 184 4863 
L 1313 4863 
L 1313 331 
z
" transform="scale(0.015625)"/>
       <path id="DejaVuSerif-65" d="M 3469 1600 
L 991 1600 
L 991 1575 
Q 991 903 1244 561 
Q 1497 219 1991 219 
Q 2369 219 2611 417 
Q 2853 616 2950 1006 
L 3413 1006 
Q 3275 459 2904 184 
Q 2534 -91 1931 -91 
Q 1203 -91 761 389 
Q 319 869 319 1663 
Q 319 2450 753 2931 
Q 1188 3413 1894 3413 
Q 2647 3413 3050 2948 
Q 3453 2484 3469 1600 
z
M 2791 1931 
Q 2772 2513 2545 2808 
Q 2319 3103 1894 3103 
Q 1497 3103 1269 2806 
Q 1041 2509 991 1931 
L 2791 1931 
z
" transform="scale(0.015625)"/>
       <path id="DejaVuSerif-6e" d="M 263 0 
L 263 331 
L 781 331 
L 781 2988 
L 231 2988 
L 231 3322 
L 1356 3322 
L 1356 2731 
Q 1516 3069 1770 3241 
Q 2025 3413 2363 3413 
Q 2913 3413 3172 3097 
Q 3431 2781 3431 2113 
L 3431 331 
L 3944 331 
L 3944 0 
L 2356 0 
L 2356 331 
L 2853 331 
L 2853 1931 
Q 2853 2541 2703 2767 
Q 2553 2994 2175 2994 
Q 1775 2994 1565 2701 
Q 1356 2409 1356 1850 
L 1356 331 
L 1856 331 
L 1856 0 
L 263 0 
z
" transform="scale(0.015625)"/>
       <path id="DejaVuSerif-67" d="M 3359 2988 
L 3359 72 
Q 3359 -644 2965 -1033 
Q 2572 -1422 1844 -1422 
Q 1516 -1422 1216 -1362 
Q 916 -1303 641 -1184 
L 641 -488 
L 941 -488 
Q 997 -813 1206 -963 
Q 1416 -1113 1806 -1113 
Q 2313 -1113 2548 -827 
Q 2784 -541 2784 72 
L 2784 519 
Q 2616 206 2355 57 
Q 2094 -91 1709 -91 
Q 1097 -91 708 395 
Q 319 881 319 1663 
Q 319 2444 706 2928 
Q 1094 3413 1709 3413 
Q 2094 3413 2355 3264 
Q 2616 3116 2784 2803 
L 2784 3322 
L 3909 3322 
L 3909 2988 
L 3359 2988 
z
M 2784 1825 
Q 2784 2422 2554 2737 
Q 2325 3053 1888 3053 
Q 1444 3053 1217 2703 
Q 991 2353 991 1663 
Q 991 975 1217 622 
Q 1444 269 1888 269 
Q 2325 269 2554 583 
Q 2784 897 2784 1497 
L 2784 1825 
z
" transform="scale(0.015625)"/>
       <path id="DejaVuSerif-79" d="M 1381 -609 
L 1600 -56 
L 359 2988 
L -19 2988 
L -19 3322 
L 1509 3322 
L 1509 2988 
L 978 2988 
L 1913 703 
L 2847 2988 
L 2350 2988 
L 2350 3322 
L 3597 3322 
L 3597 2988 
L 3225 2988 
L 1703 -750 
Q 1547 -1138 1356 -1280 
Q 1166 -1422 819 -1422 
Q 672 -1422 517 -1397 
Q 363 -1372 206 -1325 
L 206 -691 
L 500 -691 
Q 519 -903 608 -995 
Q 697 -1088 884 -1088 
Q 1056 -1088 1161 -992 
Q 1266 -897 1381 -609 
z
" transform="scale(0.015625)"/>
      </defs>
      <use xlink:href="#DejaVuSerif-50"/>
      <use xlink:href="#DejaVuSerif-61" x="62.785156"/>
      <use xlink:href="#DejaVuSerif-72" x="122.404297"/>
      <use xlink:href="#DejaVuSerif-74" x="170.207031"/>
      <use xlink:href="#DejaVuSerif-69" x="210.392578"/>
      <use xlink:href="#DejaVuSerif-63" x="242.375"/>
      <use xlink:href="#DejaVuSerif-6c" x="298.380859"/>
      <use xlink:href="#DejaVuSerif-65" x="330.363281"/>
      <use xlink:href="#DejaVuSerif-20" x="389.542969"/>
      <use xlink:href="#DejaVuSerif-65" x="421.330078"/>
      <use xlink:href="#DejaVuSerif-6e" x="480.509766"/>
      <use xlink:href="#DejaVuSerif-65" x="544.914062"/>
      <use xlink:href="#DejaVuSerif-72" x="604.09375"/>
      <use xlink:href="#DejaVuSerif-67" x="651.896484"/>
      <use xlink:href="#DejaVuSerif-79" x="715.910156"/>
      <use xlink:href="#DejaVuSerif-20" x="772.404297"/>
      <use xlink:href="#DejaVuSerif-28" x="804.191406"/>
      <use xlink:href="#DejaVuSerif-61" x="843.205078"/>
      <use xlink:href="#DejaVuSerif-2e" x="902.824219"/>
      <use xlink:href="#DejaVuSerif-75" x="934.611328"/>
      <use xlink:href="#DejaVuSerif-2e" x="999.015625"/>
      <use xlink:href="#DejaVuSerif-29" x="1030.802734"/>
     </g>
    </g>
   </g>
   <g id="line2d_43">
    <path d="M 143.010744 275.152484 
L 145.642635 274.944629 
L 146.958581 274.734072 
L 148.274527 274.815518 
L 148.932499 274.654858 
L 152.222364 274.459452 
L 152.880337 274.377107 
L 153.538309 274.46061 
L 158.144119 274.092831 
L 158.802092 273.942452 
L 159.460065 274.009825 
L 160.118038 273.856321 
L 160.776011 273.90437 
L 163.407902 273.525519 
L 164.065875 273.55497 
L 166.039794 273.295757 
L 169.329658 273.09809 
L 170.645603 273.221775 
L 172.619522 273.135376 
L 173.277495 272.935863 
L 173.935468 273.052043 
L 174.593441 272.925708 
L 175.251413 273.040883 
L 175.909386 272.786251 
L 179.19925 272.673122 
L 179.857223 272.517636 
L 180.515196 272.536749 
L 181.173169 272.707323 
L 181.831142 272.452296 
L 183.80506 272.353999 
L 184.463033 272.271263 
L 185.121006 272.417808 
L 185.778979 272.095617 
L 186.436952 272.112538 
L 187.094925 272.269984 
L 187.752898 272.178538 
L 189.068843 271.818536 
L 193.674653 271.426719 
L 196.306545 271.456661 
L 196.964517 271.199708 
L 197.62249 271.066345 
L 198.938436 271.275319 
L 199.596409 270.991687 
L 200.254382 270.830587 
L 200.912355 271.041521 
L 201.570327 270.929105 
L 202.2283 270.623633 
L 202.886273 270.82031 
L 203.544246 270.737259 
L 204.202219 270.430234 
L 204.860192 270.670889 
L 206.176137 270.297778 
L 206.83411 270.497075 
L 207.492083 270.101447 
L 208.150056 270.283209 
L 209.466002 269.96075 
L 210.123974 270.139836 
L 210.781947 269.743447 
L 211.43992 269.996845 
L 212.097893 269.665832 
L 212.755866 269.726533 
L 213.413839 269.654222 
L 214.071811 269.446747 
L 214.729784 269.622722 
L 215.387757 269.224882 
L 216.04573 269.482435 
L 216.703703 269.105362 
L 217.361676 269.254841 
L 218.677621 268.967317 
L 219.335594 269.028934 
L 219.993567 268.694052 
L 220.65154 268.935591 
L 221.309513 268.524013 
L 221.967486 268.705907 
L 223.283431 268.369923 
L 223.941404 268.482958 
L 224.599377 268.084913 
L 225.25735 268.320986 
L 225.915323 268.021233 
L 226.573296 267.948547 
L 227.231268 268.04061 
L 227.889241 267.654798 
L 228.547214 267.827978 
L 229.205187 267.681326 
L 229.86316 267.389037 
L 230.521133 267.585599 
L 231.837078 267.106457 
L 232.495051 267.287346 
L 233.153024 267.105233 
L 233.810997 266.803894 
L 235.126943 266.934256 
L 236.442888 266.409787 
L 237.758834 266.531833 
L 239.732753 265.906794 
L 243.022617 265.664895 
L 244.996535 265.246165 
L 245.654508 265.19563 
L 246.312481 265.01395 
L 246.970454 264.955048 
L 247.628427 264.72902 
L 248.2864 264.634924 
L 249.602345 264.278993 
L 252.234237 263.909734 
L 256.182074 263.173045 
L 256.840047 262.974565 
L 258.813965 262.743275 
L 262.761802 262.035621 
L 267.367612 260.513792 
L 268.683558 260.26488 
L 269.999504 259.810991 
L 271.315449 259.209696 
L 271.973422 259.242381 
L 272.631395 258.820853 
L 273.289368 258.74508 
L 273.947341 258.394113 
L 274.605314 258.407671 
L 275.263286 257.931383 
L 277.237205 257.522281 
L 279.211124 256.570278 
L 288.422743 253.091323 
L 289.080716 252.603369 
L 289.738689 252.357502 
L 290.396662 252.254559 
L 291.054635 251.670682 
L 291.712608 251.578593 
L 292.37058 250.998798 
L 293.028553 250.897539 
L 296.318418 249.010066 
L 297.634363 248.17216 
L 298.292336 247.855704 
L 299.608282 246.864072 
L 301.5822 245.455082 
L 306.18801 242.539794 
L 309.477875 239.916984 
L 310.79382 238.485816 
L 311.451793 237.990729 
L 312.109766 237.121688 
L 312.767739 236.547099 
L 314.083685 235.047241 
L 316.057603 233.008681 
L 318.689494 229.49116 
L 320.00544 227.329324 
L 322.637332 221.962765 
L 323.953277 218.880153 
L 325.269223 215.032166 
L 326.585169 210.553544 
L 327.901114 205.476574 
L 330.533006 193.346091 
L 331.190979 190.674467 
L 331.848951 187.349686 
L 333.164897 179.278742 
L 333.82287 174.353094 
L 334.480843 167.619695 
L 335.138816 158.307171 
L 335.796789 145.702869 
L 336.454761 128.645258 
L 337.112734 102.778037 
L 337.770707 111.907878 
L 338.42868 128.179129 
L 339.086653 130.306043 
L 339.744626 143.190291 
L 340.402598 145.8862 
L 342.376517 158.671281 
L 343.03449 158.333683 
L 343.692463 159.527083 
L 345.008408 160.90755 
L 345.666381 160.852328 
L 346.324354 160.205199 
L 346.982327 160.04801 
L 347.6403 159.070008 
L 348.956246 155.173583 
L 349.614218 151.545944 
L 351.588137 134.878327 
L 352.24611 126.198841 
L 352.904083 112.766408 
L 353.562055 94.751903 
L 354.220028 118.749204 
L 355.535974 149.887303 
L 356.193947 158.626606 
L 357.509893 168.152464 
L 358.167865 171.243153 
L 358.825838 173.759751 
L 360.141784 177.528342 
L 360.799757 178.853887 
L 361.45773 179.627186 
L 362.115702 180.125092 
L 362.773675 180.410218 
L 363.431648 180.193405 
L 364.089621 179.53915 
L 364.747594 178.605433 
L 366.06354 176.114807 
L 366.721512 174.448267 
L 367.379485 172.4089 
L 368.037458 169.628235 
L 368.695431 165.378708 
L 370.66935 145.119904 
L 371.327322 134.327625 
L 371.985295 115.702738 
L 372.643268 85.163146 
L 373.301241 76.777849 
L 373.959214 76.821028 
L 375.275159 77.329309 
L 375.933132 77.075938 
L 377.249078 77.529472 
L 377.907051 77.403448 
L 378.565024 76.907542 
L 379.222997 75.760366 
L 380.538942 74.368909 
L 381.196915 73.881647 
L 381.854888 74.063504 
L 382.512861 74.502249 
L 383.170834 52.360617 
L 383.828806 54.435635 
L 384.486779 55.150907 
L 385.144752 55.457258 
L 386.460698 55.666492 
L 388.434616 55.604298 
L 389.750562 55.406285 
L 391.066508 54.990622 
L 391.724481 55.061236 
L 393.040426 55.435159 
L 395.014345 55.63847 
L 396.988263 55.588807 
L 398.304209 55.337706 
L 398.962182 55.172347 
L 399.620155 60.241631 
L 400.278128 59.222553 
L 400.936101 59.874501 
L 402.252046 60.518256 
L 404.883938 61.516325 
L 406.199883 61.428504 
L 406.857856 61.282357 
L 407.515829 60.978838 
L 408.173802 60.20184 
L 408.831775 52.898285 
L 409.489748 51.990798 
L 410.14772 52.26649 
L 412.121639 52.482373 
L 414.75353 52.526869 
L 416.069476 52.42606 
L 417.385422 52.098221 
L 418.043395 51.634945 
L 418.701367 51.897441 
L 419.35934 52.817659 
L 420.017313 54.4416 
L 420.675286 56.69691 
L 425.281096 56.697309 
L 425.939069 56.502689 
L 426.597042 51.712205 
L 427.255015 38.865425 
L 427.912987 37.625905 
L 428.57096 37.300081 
L 429.886906 37.085559 
L 432.518797 37.044115 
L 438.440553 37.073462 
L 451.60001 37.065313 
L 507.527702 36.94316 
L 642.412136 36.841188 
L 800.32562 36.798854 
L 800.32562 36.798854 
" clip-path="url(#p62a8f51a61)" style="fill: none; stroke: #1f77b4; stroke-width: 3; stroke-linecap: square"/>
   </g>
   <g id="line2d_44">
    <path d="M 143.010744 274.991151 
L 146.958581 274.846476 
L 148.274527 274.83374 
L 151.564391 274.528838 
L 152.880337 274.529677 
L 155.512228 274.225962 
L 157.486146 274.227644 
L 162.091956 273.798012 
L 165.381821 273.624432 
L 169.329658 273.307568 
L 188.41087 271.76049 
L 191.042762 271.55234 
L 193.674653 271.298376 
L 195.648572 271.107729 
L 197.62249 270.930012 
L 203.544246 270.336691 
L 208.808029 269.781967 
L 215.387757 268.996085 
L 216.703703 268.803317 
L 221.309513 268.239078 
L 239.07478 265.582122 
L 239.732753 265.381589 
L 242.364644 265.082774 
L 243.022617 264.876305 
L 243.68059 264.847958 
L 244.338563 264.641559 
L 244.996535 264.61407 
L 245.654508 264.42102 
L 246.312481 264.393314 
L 246.970454 264.197941 
L 247.628427 264.124295 
L 249.602345 263.506201 
L 250.260318 263.341367 
L 252.234237 263.226623 
L 253.550182 262.741791 
L 254.208155 262.522571 
L 255.524101 262.546813 
L 256.840047 261.979575 
L 257.49802 262.085079 
L 258.155992 261.718341 
L 258.813965 261.672733 
L 259.471938 261.43858 
L 260.129911 261.429775 
L 260.787884 261.008781 
L 262.103829 260.946764 
L 264.735721 260.277468 
L 265.393694 260.132942 
L 266.709639 259.605891 
L 268.025585 259.38003 
L 275.921259 257.170519 
L 283.816933 253.898505 
L 289.738689 251.07271 
L 291.054635 250.338144 
L 292.37058 249.600174 
L 293.686526 248.8447 
L 297.634363 246.13572 
L 301.5822 244.617602 
L 302.898146 243.73931 
L 304.872065 242.426945 
L 310.79382 237.567331 
L 312.109766 236.50961 
L 314.083685 235.338124 
L 314.741657 234.844312 
L 316.057603 233.098403 
L 320.00544 226.79871 
L 321.979359 223.029027 
L 323.953277 218.469401 
L 325.269223 215.258943 
L 327.901114 209.97626 
L 329.21706 206.076611 
L 329.875033 203.852034 
L 331.848951 195.407132 
L 332.506924 191.928873 
L 333.164897 186.288661 
L 333.82287 178.171403 
L 334.480843 166.940479 
L 335.138816 152.788845 
L 335.796789 134.158449 
L 336.454761 104.075064 
L 337.112734 82.302596 
L 338.42868 68.303635 
L 339.744626 60.287371 
L 340.402598 57.249861 
L 341.060571 54.900529 
L 342.376517 51.151013 
L 343.692463 48.576342 
L 345.008408 46.922684 
L 346.324354 45.66476 
L 348.298273 44.146353 
L 350.272191 43.022991 
L 351.588137 42.41217 
L 354.220028 41.484286 
L 356.85192 40.787713 
L 360.141784 40.109099 
L 364.747594 39.436162 
L 371.327322 38.766218 
L 378.565024 38.278411 
L 389.750562 37.769601 
L 404.225965 37.341272 
L 425.281096 36.983704 
L 454.231901 36.721197 
L 503.579865 36.530683 
L 608.197548 36.392845 
L 800.32562 36.317657 
L 800.32562 36.317657 
" clip-path="url(#p62a8f51a61)" style="fill: none; stroke: #ff7f0e; stroke-width: 3; stroke-linecap: square"/>
   </g>
   <g id="line2d_45">
    <path d="M 143.010744 27.22102 
L 262.103829 27.317684 
L 271.315449 27.407035 
L 273.947341 27.43281 
L 279.211124 27.473137 
L 296.318418 27.49303 
L 301.5822 28.265208 
L 306.845983 28.135427 
L 312.767739 28.065267 
L 314.083685 28.442424 
L 314.741657 28.863555 
L 315.39963 29.143628 
L 318.031522 29.105303 
L 320.00544 28.885577 
L 321.979359 28.60208 
L 323.953277 28.651927 
L 324.61125 28.810298 
L 326.585169 29.988641 
L 328.559087 30.045928 
L 329.21706 30.346536 
L 330.533006 31.522684 
L 331.190979 31.465039 
L 331.848951 31.069055 
L 332.506924 31.215683 
L 333.164897 31.915949 
L 334.480843 34.23818 
L 335.138816 32.228303 
L 335.796789 21.934678 
L 336.172233 -1 
M 337.430563 -1 
L 337.770707 148.765476 
L 338.42868 169.35266 
L 339.086653 186.09934 
L 339.744626 173.038168 
L 340.402598 211.867524 
L 341.060571 169.048319 
L 341.718544 150.35237 
L 342.376517 183.839851 
L 343.03449 196.835814 
L 343.692463 191.519255 
L 344.350436 214.452671 
L 345.008408 203.979853 
L 345.666381 196.531236 
L 346.324354 209.461501 
L 346.982327 195.491478 
L 347.6403 221.166359 
L 348.298273 221.439508 
L 349.614218 155.380791 
L 350.272191 181.369556 
L 350.930164 217.624018 
L 351.588137 213.025598 
L 352.24611 203.600244 
L 352.904083 153.651769 
L 352.986516 -1 
M 354.172364 -1 
L 354.220028 83.328541 
L 354.878001 132.820739 
L 355.535974 147.295366 
L 356.193947 179.77823 
L 356.85192 163.12532 
L 357.509893 199.054205 
L 358.167865 201.770684 
L 358.825838 199.613526 
L 359.483811 189.691829 
L 360.141784 175.841005 
L 361.45773 206.945452 
L 362.115702 210.170343 
L 362.773675 204.371168 
L 363.431648 181.441891 
L 364.089621 185.36757 
L 364.747594 180.506513 
L 365.405567 207.926503 
L 366.06354 203.59996 
L 366.721512 209.121685 
L 367.379485 202.068344 
L 368.037458 178.249261 
L 368.695431 176.148639 
L 369.353404 159.345526 
L 370.011377 184.507749 
L 370.66935 191.535885 
L 371.327322 114.447708 
L 371.985295 54.600415 
L 372.643268 47.426226 
L 373.301241 237.598436 
L 373.959214 271.193161 
L 374.617187 322.508764 
L 375.275159 318.213741 
L 375.933132 318.351883 
L 376.591105 329.993194 
L 377.249078 330.381003 
L 377.907051 306.099794 
L 378.565024 211.282361 
L 379.222997 327.415508 
L 379.880969 330.895212 
L 380.538942 320.727201 
L 381.196915 293.326743 
L 381.854888 208.506421 
L 382.423078 -1 
M 382.591437 -1 
L 383.170834 243.109569 
L 383.828806 333.24659 
L 384.486779 360.951897 
L 385.144752 374.612905 
L 385.802725 382.17637 
L 386.460698 386.190964 
L 387.118671 387.623904 
L 387.776644 386.71829 
L 388.434616 383.151112 
L 389.092589 375.763242 
L 389.750562 361.339177 
L 390.408535 328.649861 
L 391.066508 186.238001 
L 391.724481 233.071397 
L 392.382454 336.45205 
L 393.040426 364.901536 
L 393.698399 377.899734 
L 394.356372 384.54082 
L 395.014345 387.565454 
L 395.672318 387.94542 
L 396.330291 385.866221 
L 396.988263 380.892178 
L 397.646236 371.633545 
L 398.304209 354.213762 
L 398.962182 313.29681 
L 399.620155 258.602499 
L 399.763691 -1 
M 400.780268 -1 
L 400.936101 287.743832 
L 401.594073 342.028107 
L 402.252046 360.901662 
L 402.910019 368.324433 
L 403.567992 368.03046 
L 404.225965 351.412571 
L 404.883938 379.606226 
L 405.541911 381.881561 
L 406.199883 377.678001 
L 406.857856 369.739223 
L 407.515829 355.10369 
L 408.173802 323.56483 
L 408.831775 271.268374 
L 408.901896 -1 
M 410.069563 -1 
L 410.14772 306.6803 
L 410.805693 360.773337 
L 411.463666 380.825433 
L 412.121639 390.783772 
L 412.779612 395.982189 
L 413.437585 398.243484 
L 414.095558 398.230685 
L 414.75353 396.016525 
L 415.411503 391.147917 
L 416.069476 382.317275 
L 416.727449 366.036299 
L 417.385422 330.143398 
L 418.043395 168.780577 
L 418.701367 239.587757 
L 419.35934 325.771311 
L 420.017313 315.85359 
L 420.675286 374.143678 
L 421.333259 385.050282 
L 421.991232 388.266279 
L 422.649205 388.731126 
L 423.307177 386.776417 
L 423.96515 382.023924 
L 424.623123 373.258793 
L 425.281096 357.291935 
L 425.939069 323.623997 
L 426.597042 172.657934 
L 426.681523 -1 
M 427.775199 -1 
L 427.912987 311.260819 
L 428.57096 369.802458 
L 429.228933 393.333548 
L 429.886906 405.593466 
L 430.544879 412.327303 
L 431.202852 415.548546 
L 431.860824 415.94263 
L 432.518797 413.415163 
L 433.17677 406.963406 
L 433.834743 393.569693 
L 434.492716 362.668481 
L 435.150689 233.299817 
L 435.808662 255.736473 
L 436.466634 367.515926 
L 437.124607 397.215581 
L 437.78258 410.817511 
L 438.440553 417.90503 
L 439.098526 421.317854 
L 439.756499 422.040785 
L 440.414471 420.217617 
L 441.072444 415.270395 
L 441.730417 405.368047 
L 442.38839 384.980742 
L 443.046363 328.918058 
L 443.276422 -1 
M 444.12747 -1 
L 444.362309 339.577755 
L 445.020281 389.093626 
L 445.678254 408.174978 
L 446.336227 417.684994 
L 446.9942 422.522033 
L 447.652173 424.335328 
L 448.310146 423.616517 
L 448.968119 420.142187 
L 449.626091 412.782098 
L 450.284064 398.273227 
L 450.942037 365.024615 
L 451.60001 214.527019 
L 452.257983 275.978377 
L 452.915956 374.752855 
L 453.573928 402.587136 
L 454.231901 415.405509 
L 454.889874 421.999891 
L 455.547847 425.024738 
L 456.20582 425.389193 
L 456.863793 423.179475 
L 457.521766 417.732203 
L 458.179738 407.007485 
L 458.837711 384.700056 
L 459.495684 319.659186 
L 460.104794 -1 
M 460.198463 -1 
L 460.81163 351.018637 
L 461.469603 394.604776 
L 462.127576 412.132721 
L 462.785548 420.92289 
L 463.443521 425.299418 
L 464.101494 426.733953 
L 464.759467 425.624207 
L 465.41744 421.647665 
L 466.075413 413.478515 
L 466.733385 397.254257 
L 467.391358 358.274525 
L 468.049331 117.346752 
L 468.707304 307.288594 
L 469.365277 382.9611 
L 470.02325 407.253706 
L 470.681223 418.765269 
L 471.339195 424.652443 
L 471.997168 427.171378 
L 472.655141 427.068992 
L 473.313114 424.309674 
L 473.971087 418.045329 
L 474.62906 405.764468 
L 475.287032 379.269124 
L 476.602978 193.318523 
L 477.260951 366.116621 
L 477.918924 401.17175 
L 478.576897 416.271765 
L 479.23487 423.931595 
L 479.892842 427.594205 
L 480.550815 428.440578 
L 481.208788 426.704098 
L 481.866761 421.874486 
L 482.524734 412.228382 
L 483.182707 392.579858 
L 483.84068 340.109786 
L 483.859063 -1 
M 485.138236 -1 
L 485.156625 340.226762 
L 485.814598 392.930191 
L 486.472571 412.654033 
L 487.130544 422.346606 
L 487.788517 427.211652 
L 488.446489 428.976221 
L 489.104462 428.149844 
L 489.762435 424.494177 
L 490.420408 416.814047 
L 491.078381 401.619711 
L 491.736354 366.151365 
L 492.394327 186.97631 
L 493.052299 293.96376 
L 493.710272 381.840392 
L 494.368245 408.055292 
L 495.026218 420.238832 
L 495.684191 426.446989 
L 496.342164 429.151956 
L 497.000137 429.177886 
L 497.658109 426.528526 
L 498.316082 420.390201 
L 498.974055 408.317899 
L 499.632028 382.367578 
L 500.290001 296.098857 
L 500.947974 182.286492 
L 501.605946 367.098302 
L 502.263919 402.954537 
L 502.921892 418.265325 
L 503.579865 425.993637 
L 504.237838 429.665414 
L 504.895811 430.481415 
L 505.553784 428.671806 
L 506.211756 423.699637 
L 506.869729 413.757901 
L 507.527702 393.344202 
L 508.185675 337.388661 
L 508.413179 -1 
M 509.2697 -1 
L 509.501621 347.532203 
L 510.159593 397.014374 
L 510.817566 415.948714 
L 511.475539 425.274568 
L 512.133512 429.889042 
L 512.791485 431.420613 
L 513.449458 430.31589 
L 514.107431 426.252341 
L 514.765403 417.846667 
L 515.423376 401.003067 
L 516.081349 359.663194 
L 516.739322 58.366065 
L 517.397295 320.350076 
L 518.055268 389.836216 
L 518.713241 412.964093 
L 519.371213 423.971076 
L 520.029186 429.518766 
L 520.687159 431.722617 
L 521.345132 431.247253 
L 522.003105 427.954004 
L 522.661078 420.77809 
L 523.31905 406.568254 
L 523.977023 374.199342 
L 524.634996 233.495994 
L 525.292969 277.894366 
L 525.950942 381.789881 
L 526.608915 410.169836 
L 527.266888 423.062741 
L 527.92486 429.579889 
L 528.582833 432.429701 
L 529.240806 432.508806 
L 529.898779 429.838091 
L 530.556752 423.58085 
L 531.214725 411.184631 
L 531.872697 384.209097 
L 533.188643 210.453518 
L 533.846616 372.714148 
L 534.504589 406.907101 
L 535.162562 421.676896 
L 535.820535 429.107998 
L 536.478507 432.544367 
L 537.13648 433.111208 
L 537.794453 430.971079 
L 538.452426 425.470098 
L 539.110399 414.496467 
L 539.768372 391.383146 
L 540.426345 321.816794 
L 541.084317 62.694225 
L 541.74229 362.520523 
L 542.400263 403.791508 
L 543.058236 420.593621 
L 543.716209 428.951547 
L 544.374182 432.948139 
L 545.032154 433.950532 
L 545.690127 432.251808 
L 546.3481 427.339785 
L 547.006073 417.408446 
L 547.664046 396.908234 
L 548.322019 340.370141 
L 548.582296 -1 
M 549.372587 -1 
L 549.637964 351.580943 
L 550.295937 400.516779 
L 550.95391 419.278194 
L 551.611883 428.486319 
L 552.269856 432.981416 
L 552.927829 434.362433 
L 553.585802 433.039364 
L 554.243774 428.617098 
L 554.901747 419.526653 
L 555.55972 401.027666 
L 556.217693 353.138126 
L 556.547643 -1 
M 557.210047 -1 
L 557.533639 339.707984 
L 558.191611 397.591693 
L 558.849584 418.374096 
L 559.507557 428.409323 
L 560.16553 433.364841 
L 560.823503 435.074845 
L 561.481476 434.05605 
L 562.139449 430.005033 
L 562.797421 421.516865 
L 563.455394 404.372393 
L 564.113367 361.744678 
L 564.77134 16.33221 
L 565.429313 328.280627 
L 566.087286 394.848678 
L 566.745258 417.37809 
L 567.403231 428.100238 
L 568.061204 433.430937 
L 568.719177 435.406642 
L 569.37715 434.632794 
L 570.035123 430.879151 
L 570.693096 422.868254 
L 571.351068 406.769985 
L 572.009041 367.937435 
L 572.667014 128.484791 
L 573.324987 317.07124 
L 573.98296 392.800466 
L 574.640933 416.974114 
L 575.298906 428.310725 
L 575.956878 433.960042 
L 576.614851 436.145694 
L 577.272824 435.547851 
L 577.930797 431.987987 
L 578.58877 424.264199 
L 579.246743 408.759914 
L 579.904715 371.951319 
L 580.562688 170.56381 
L 581.220661 309.137747 
L 581.878634 391.337994 
L 582.536607 416.574699 
L 583.19458 428.299229 
L 583.852553 434.148714 
L 584.510525 436.46745 
L 585.168498 435.983561 
L 585.826471 432.55213 
L 586.484444 425.022095 
L 587.142417 409.919301 
L 587.80039 374.449662 
L 588.458362 193.972314 
L 589.116335 303.362268 
L 589.774308 390.726714 
L 590.432281 416.75283 
L 591.090254 428.75299 
L 591.748227 434.73503 
L 592.4062 437.131074 
L 593.064172 436.700164 
L 593.722145 433.312722 
L 594.380118 425.83041 
L 595.038091 410.804763 
L 595.696064 375.558646 
L 596.354037 198.172913 
L 597.669982 390.890734 
L 598.327955 417.046981 
L 598.985928 429.088545 
L 599.643901 435.086112 
L 600.301874 437.485592 
L 600.959847 437.049182 
L 601.617819 433.645261 
L 602.275792 426.126532 
L 602.933765 411.01191 
L 603.591738 375.45351 
L 604.249711 193.463988 
L 604.907684 305.102813 
L 605.565657 392.019375 
L 606.223629 417.962574 
L 606.881602 429.916651 
L 607.539575 435.855818 
L 608.197548 438.199651 
L 608.855521 437.694379 
L 609.513494 434.187019 
L 610.171467 426.481991 
L 610.829439 410.945337 
L 611.487412 373.924669 
L 612.145385 168.433715 
L 612.803358 312.598192 
L 613.461331 393.912012 
L 614.119304 418.976619 
L 614.777276 430.605863 
L 615.435249 436.367639 
L 616.093222 438.580265 
L 616.751195 437.945585 
L 617.409168 434.27073 
L 618.067141 426.286943 
L 618.725114 410.134878 
L 619.383086 370.950838 
L 620.041059 122.863927 
L 620.699032 322.047239 
L 621.357005 396.606904 
L 622.014978 420.533968 
L 622.672951 431.729873 
L 623.330923 437.247692 
L 623.988896 439.272908 
L 624.646869 438.445616 
L 625.304842 434.512803 
L 625.962815 426.087073 
L 626.620788 408.932106 
L 627.278761 366.04068 
L 627.936733 8.428293 
L 628.594706 333.926871 
L 629.252679 399.788128 
L 629.910652 422.12064 
L 630.568625 432.699916 
L 631.226598 437.874849 
L 631.884571 439.644932 
L 632.542543 438.565224 
L 633.200516 434.303224 
L 633.858489 425.317345 
L 634.516462 406.870119 
L 635.174435 358.891644 
L 635.499672 -1 
M 636.171328 -1 
L 636.49038 345.604294 
L 637.148353 403.198633 
L 637.806326 423.847226 
L 638.464299 433.749956 
L 639.122272 438.538967 
L 639.780245 440.015029 
L 640.438218 438.637444 
L 641.09619 433.977503 
L 641.754163 424.297675 
L 642.412136 404.187798 
L 643.070109 349.051695 
L 643.268497 -1 
M 644.184474 -1 
L 644.386055 357.172796 
L 645.044027 407.104487 
L 645.702 426.012014 
L 646.359973 435.180044 
L 647.017946 439.531332 
L 647.675919 440.657232 
L 648.333892 438.90619 
L 648.991865 433.724135 
L 649.649837 423.093945 
L 650.30781 400.582556 
L 650.965783 333.691561 
L 651.623756 30.471437 
L 652.281729 368.681139 
L 652.939702 411.031551 
L 653.597675 428.020918 
L 654.255647 436.347228 
L 654.91362 440.187895 
L 655.571593 440.901736 
L 656.229566 438.708265 
L 656.887539 432.89914 
L 657.545512 421.096774 
L 658.203484 395.451249 
L 658.861457 310.207367 
L 659.51943 190.942181 
L 660.177403 378.968095 
L 660.835376 414.87759 
L 661.493349 430.044831 
L 662.151322 437.527708 
L 662.809294 440.834586 
L 663.467267 441.098967 
L 664.12524 438.401723 
L 664.783213 431.848076 
L 665.441186 418.58719 
L 666.099159 388.727966 
L 666.757132 271.416052 
L 667.415104 265.844338 
L 668.073077 388.22816 
L 668.73105 418.642753 
L 669.389023 432.083769 
L 670.046996 438.722136 
L 670.704969 441.469013 
L 671.362941 441.238936 
L 672.020914 437.960384 
L 672.678887 430.507247 
L 673.33686 415.384999 
L 673.994833 379.598358 
L 674.652806 193.31824 
L 675.310779 310.821194 
L 675.968751 396.504699 
L 676.626724 422.205165 
L 677.284697 434.012881 
L 677.94267 439.806901 
L 678.600643 441.967116 
L 679.258616 441.194144 
L 679.916588 437.247126 
L 680.574561 428.708728 
L 681.232534 411.197804 
L 681.890507 366.795966 
L 682.456423 -1 
M 682.646466 -1 
L 683.206453 340.922047 
L 683.864426 403.873886 
L 684.522398 425.594713 
L 685.180371 435.88855 
L 685.838344 440.851932 
L 686.496317 442.402265 
L 687.15429 441.032 
L 687.812263 436.30742 
L 688.470236 426.433521 
L 689.128208 405.754334 
L 689.786181 347.837651 
L 690.124903 -1 
M 690.756537 -1 
L 691.102127 362.735615 
L 691.7601 410.40428 
L 692.418073 428.732301 
L 693.076045 437.617521 
L 693.734018 441.760338 
L 694.391991 442.673144 
L 695.049964 440.641584 
L 695.707937 435.006148 
L 696.36591 423.470368 
L 697.023883 398.479212 
L 697.681855 317.233334 
L 698.339828 173.762885 
L 698.997801 379.229954 
L 699.655774 416.183824 
L 700.313747 431.632661 
L 700.97172 439.217711 
L 701.629693 442.553324 
L 702.287665 442.798124 
L 702.945638 440.028079 
L 703.603611 433.309853 
L 704.261584 419.65729 
L 704.919557 388.526572 
L 705.57753 259.064704 
L 706.235502 280.946653 
L 706.893475 392.216219 
L 707.551448 421.348416 
L 708.209421 434.334703 
L 708.867394 440.713157 
L 709.525367 443.247004 
L 710.18334 442.780853 
L 710.841312 439.168314 
L 711.499285 431.128882 
L 712.157258 414.678928 
L 712.815231 374.17113 
L 713.473204 91.877175 
L 714.131177 332.240653 
L 714.789149 403.113965 
L 715.447122 426.315485 
L 716.105095 437.157854 
L 716.763068 442.391823 
L 717.421041 444.10108 
L 718.079014 442.838662 
L 718.736987 438.201029 
L 719.394959 428.419254 
L 720.052932 407.895548 
L 720.710905 350.584488 
L 721.024242 -1 
M 721.707349 -1 
L 722.026851 364.03068 
L 722.684824 412.105959 
L 723.342797 430.507514 
L 724.000769 439.394946 
L 724.658742 443.503797 
L 725.316715 444.346829 
L 725.974688 442.191129 
L 726.632661 436.324387 
L 727.290634 424.290446 
L 727.948606 397.849175 
L 729.264552 216.151459 
L 729.922525 384.952656 
L 730.580498 419.473115 
L 731.238471 434.167554 
L 731.896444 441.363587 
L 732.554416 444.411208 
L 733.212389 444.363965 
L 733.870362 441.206552 
L 734.528335 433.839906 
L 735.186308 418.785644 
L 735.844281 383.068938 
L 736.502253 197.161144 
L 737.160226 314.43982 
L 737.818199 400.163021 
L 738.476172 425.819617 
L 739.134145 437.557604 
L 739.792118 443.251655 
L 740.450091 445.264601 
L 741.108063 444.261248 
L 741.766036 439.919778 
L 742.424009 430.606043 
L 743.081982 411.163216 
L 743.739955 358.632164 
L 743.768535 -1 
M 745.027253 -1 
L 745.055901 359.512982 
L 745.713873 411.693308 
L 746.371846 431.051533 
L 747.029819 440.324713 
L 747.687792 444.636025 
L 748.345765 445.607287 
L 749.003738 443.550016 
L 749.66171 437.781036 
L 750.319683 425.886917 
L 750.977656 399.778596 
L 752.293602 210.689022 
L 752.951575 385.938678 
L 753.609548 420.904079 
L 754.26752 435.708973 
L 754.925493 442.929328 
L 755.583466 445.958128 
L 756.241439 445.852609 
L 756.899412 442.578667 
L 757.557385 434.977058 
L 758.215358 419.363854 
L 758.87333 381.661024 
L 759.531303 161.720112 
L 760.189276 325.576884 
L 760.847249 404.081141 
L 761.505222 428.559857 
L 762.163195 439.83517 
L 762.821167 445.246451 
L 763.47914 447.01362 
L 764.137113 445.722522 
L 764.795086 440.950794 
L 765.453059 430.82832 
L 766.111032 409.33594 
L 766.769005 347.155707 
L 767.308709 -1 
M 767.538535 -1 
L 768.08495 372.690565 
L 768.742923 417.414429 
L 769.400896 434.919951 
L 770.058869 443.355078 
L 770.716842 447.117202 
L 771.374814 447.591017 
L 772.032787 444.929724 
L 772.69076 438.211391 
L 773.348733 424.377443 
L 774.006706 392.444469 
L 774.664679 254.010698 
L 775.322652 293.836113 
L 775.980624 398.76929 
L 776.638597 427.052586 
L 777.29657 439.671743 
L 777.954543 445.771668 
L 778.612516 448.003322 
L 779.270489 447.125913 
L 779.928462 442.85265 
L 780.586434 433.554106 
L 781.244407 414.029762 
L 781.90238 360.950284 
L 781.984974 -1 
M 783.135232 -1 
L 783.218326 363.460149 
L 783.876299 415.022231 
L 784.534271 434.193036 
L 785.192244 443.337699 
L 785.850217 447.513874 
L 786.50819 448.306043 
L 787.166163 445.973044 
L 787.824136 439.71494 
L 788.482109 426.773467 
L 789.140081 397.525042 
L 789.798054 284.596391 
L 790.456027 268.105052 
L 791.114 395.303159 
L 791.771973 426.116436 
L 792.429946 439.573577 
L 793.087918 446.086758 
L 793.745891 448.587577 
L 794.403864 447.941069 
L 795.061837 443.935582 
L 795.71981 435.063787 
L 796.377783 416.516718 
L 797.035756 367.555639 
L 797.297569 -1 
M 798.094061 -1 
L 798.351701 357.899868 
L 799.009674 413.917377 
L 799.667647 434.083849 
L 800.32562 443.633131 
L 800.32562 443.633131 
" clip-path="url(#p62a8f51a61)" style="fill: none; stroke: #000000; stroke-width: 3; stroke-linecap: square"/>
   </g>
   <g id="patch_3">
    <path d="M 110.145 489.2325 
L 110.145 35.735588 
" style="fill: none; stroke: #000000; stroke-width: 2; stroke-linejoin: miter; stroke-linecap: square"/>
   </g>
   <g id="patch_4">
    <path d="M 833.191364 489.2325 
L 833.191364 35.735588 
" style="fill: none; stroke: #000000; stroke-width: 2; stroke-linejoin: miter; stroke-linecap: square"/>
   </g>
   <g id="patch_5">
    <path d="M 110.145 489.2325 
L 833.191364 489.2325 
" style="fill: none; stroke: #000000; stroke-width: 2; stroke-linejoin: miter; stroke-linecap: square"/>
   </g>
   <g id="patch_6">
    <path d="M 110.145 35.735588 
L 833.191364 35.735588 
" style="fill: none; stroke: #000000; stroke-width: 2; stroke-linejoin: miter; stroke-linecap: square"/>
   </g>
   <g id="legend_1">
    <g id="patch_7">
     <path d="M 121.345 118.990588 
L 259.8425 118.990588 
Q 263.0425 118.990588 263.0425 115.790588 
L 263.0425 46.935588 
Q 263.0425 43.735588 259.8425 43.735588 
L 121.345 43.735588 
Q 118.145 43.735588 118.145 46.935588 
L 118.145 115.790588 
Q 118.145 118.990588 121.345 118.990588 
z
" style="fill: #ffffff; opacity: 0.8; stroke: #cccccc; stroke-linejoin: miter"/>
    </g>
    <g id="line2d_46">
     <path d="M 124.545 56.693088 
L 140.545 56.693088 
L 156.545 56.693088 
" style="fill: none; stroke: #1f77b4; stroke-width: 3; stroke-linecap: square"/>
    </g>
    <g id="text_17">
     <!-- Electron 1 -->
     <g transform="translate(169.345 62.293088) scale(0.16 -0.16)">
      <defs>
       <path id="DejaVuSerif-45" d="M 353 0 
L 353 331 
L 947 331 
L 947 4331 
L 353 4331 
L 353 4666 
L 4109 4666 
L 4109 3628 
L 3725 3628 
L 3725 4281 
L 1581 4281 
L 1581 2719 
L 3109 2719 
L 3109 3303 
L 3494 3303 
L 3494 1753 
L 3109 1753 
L 3109 2338 
L 1581 2338 
L 1581 384 
L 3775 384 
L 3775 1038 
L 4159 1038 
L 4159 0 
L 353 0 
z
" transform="scale(0.015625)"/>
       <path id="DejaVuSerif-6f" d="M 1925 219 
Q 2388 219 2623 584 
Q 2859 950 2859 1663 
Q 2859 2375 2623 2739 
Q 2388 3103 1925 3103 
Q 1463 3103 1227 2739 
Q 991 2375 991 1663 
Q 991 950 1228 584 
Q 1466 219 1925 219 
z
M 1925 -91 
Q 1200 -91 759 389 
Q 319 869 319 1663 
Q 319 2456 758 2934 
Q 1197 3413 1925 3413 
Q 2653 3413 3092 2934 
Q 3531 2456 3531 1663 
Q 3531 869 3092 389 
Q 2653 -91 1925 -91 
z
" transform="scale(0.015625)"/>
      </defs>
      <use xlink:href="#DejaVuSerif-45"/>
      <use xlink:href="#DejaVuSerif-6c" x="72.998047"/>
      <use xlink:href="#DejaVuSerif-65" x="104.980469"/>
      <use xlink:href="#DejaVuSerif-63" x="164.160156"/>
      <use xlink:href="#DejaVuSerif-74" x="220.166016"/>
      <use xlink:href="#DejaVuSerif-72" x="260.351562"/>
      <use xlink:href="#DejaVuSerif-6f" x="308.154297"/>
      <use xlink:href="#DejaVuSerif-6e" x="368.359375"/>
      <use xlink:href="#DejaVuSerif-20" x="432.763672"/>
      <use xlink:href="#DejaVuSerif-31" x="464.550781"/>
     </g>
    </g>
    <g id="line2d_47">
     <path d="M 124.545 80.178088 
L 140.545 80.178088 
L 156.545 80.178088 
" style="fill: none; stroke: #ff7f0e; stroke-width: 3; stroke-linecap: square"/>
    </g>
    <g id="text_18">
     <!-- Electron 2 -->
     <g transform="translate(169.345 85.778088) scale(0.16 -0.16)">
      <use xlink:href="#DejaVuSerif-45"/>
      <use xlink:href="#DejaVuSerif-6c" x="72.998047"/>
      <use xlink:href="#DejaVuSerif-65" x="104.980469"/>
      <use xlink:href="#DejaVuSerif-63" x="164.160156"/>
      <use xlink:href="#DejaVuSerif-74" x="220.166016"/>
      <use xlink:href="#DejaVuSerif-72" x="260.351562"/>
      <use xlink:href="#DejaVuSerif-6f" x="308.154297"/>
      <use xlink:href="#DejaVuSerif-6e" x="368.359375"/>
      <use xlink:href="#DejaVuSerif-20" x="432.763672"/>
      <use xlink:href="#DejaVuSerif-32" x="464.550781"/>
     </g>
    </g>
    <g id="line2d_48">
     <path d="M 124.545 103.663088 
L 140.545 103.663088 
L 156.545 103.663088 
" style="fill: none; stroke: #000000; stroke-width: 3; stroke-linecap: square"/>
    </g>
    <g id="text_19">
     <!-- Antiproton -->
     <g transform="translate(169.345 109.263088) scale(0.16 -0.16)">
      <defs>
       <path id="DejaVuSerif-41" d="M 1281 1691 
L 2994 1691 
L 2138 3909 
L 1281 1691 
z
M -38 0 
L -38 331 
L 372 331 
L 2034 4666 
L 2559 4666 
L 4225 331 
L 4684 331 
L 4684 0 
L 2988 0 
L 2988 331 
L 3506 331 
L 3116 1356 
L 1153 1356 
L 763 331 
L 1275 331 
L 1275 0 
L -38 0 
z
" transform="scale(0.015625)"/>
       <path id="DejaVuSerif-70" d="M 1313 1825 
L 1313 1497 
Q 1313 897 1542 583 
Q 1772 269 2209 269 
Q 2650 269 2876 622 
Q 3103 975 3103 1663 
Q 3103 2353 2876 2703 
Q 2650 3053 2209 3053 
Q 1772 3053 1542 2737 
Q 1313 2422 1313 1825 
z
M 738 2988 
L 184 2988 
L 184 3322 
L 1313 3322 
L 1313 2803 
Q 1481 3116 1742 3264 
Q 2003 3413 2388 3413 
Q 3000 3413 3387 2928 
Q 3775 2444 3775 1663 
Q 3775 881 3387 395 
Q 3000 -91 2388 -91 
Q 2003 -91 1742 57 
Q 1481 206 1313 519 
L 1313 -997 
L 1856 -997 
L 1856 -1331 
L 184 -1331 
L 184 -997 
L 738 -997 
L 738 2988 
z
" transform="scale(0.015625)"/>
      </defs>
      <use xlink:href="#DejaVuSerif-41"/>
      <use xlink:href="#DejaVuSerif-6e" x="72.216797"/>
      <use xlink:href="#DejaVuSerif-74" x="136.621094"/>
      <use xlink:href="#DejaVuSerif-69" x="176.806641"/>
      <use xlink:href="#DejaVuSerif-70" x="208.789062"/>
      <use xlink:href="#DejaVuSerif-72" x="272.802734"/>
      <use xlink:href="#DejaVuSerif-6f" x="320.605469"/>
      <use xlink:href="#DejaVuSerif-74" x="380.810547"/>
      <use xlink:href="#DejaVuSerif-6f" x="420.996094"/>
      <use xlink:href="#DejaVuSerif-6e" x="481.201172"/>
     </g>
    </g>
   </g>
  </g>
 </g>
 <defs>
  <clipPath id="p62a8f51a61">
   <rect x="110.145" y="35.735588" width="723.046364" height="453.496912"/>
  </clipPath>
 </defs>
</svg>
