<?xml version="1.0" encoding="utf-8" standalone="no"?>
<!DOCTYPE svg PUBLIC "-//W3C//DTD SVG 1.1//EN"
  "http://www.w3.org/Graphics/SVG/1.1/DTD/svg11.dtd">
<svg xmlns:xlink="http://www.w3.org/1999/xlink" width="864pt" height="576pt" viewBox="0 0 864 576" xmlns="http://www.w3.org/2000/svg" version="1.1">
 <metadata>
  <rdf:RDF xmlns:dc="http://purl.org/dc/elements/1.1/" xmlns:cc="http://creativecommons.org/ns#" xmlns:rdf="http://www.w3.org/1999/02/22-rdf-syntax-ns#">
   <cc:Work>
    <dc:type rdf:resource="http://purl.org/dc/dcmitype/StillImage"/>
    <dc:date>2025-06-10T11:19:06.052501</dc:date>
    <dc:format>image/svg+xml</dc:format>
    <dc:creator>
     <cc:Agent>
      <dc:title>Matplotlib v3.7.2, https://matplotlib.org/</dc:title>
     </cc:Agent>
    </dc:creator>
   </cc:Work>
  </rdf:RDF>
 </metadata>
 <defs>
  <style type="text/css">*{stroke-linejoin: round; stroke-linecap: butt}</style>
 </defs>
 <g id="figure_1">
  <g id="patch_1">
   <path d="M 0 576 
L 864 576 
L 864 0 
L 0 0 
z
" style="fill: #ffffff"/>
  </g>
  <g id="axes_1">
   <g id="patch_2">
    <path d="M 110.145 489.2325 
L 833.191364 489.2325 
L 833.191364 35.735588 
L 110.145 35.735588 
z
" style="fill: #ffffff"/>
   </g>
   <g id="matplotlib.axis_1">
    <g id="xtick_1">
     <g id="line2d_1">
      <path d="M 143.010744 489.2325 
L 143.010744 35.735588 
" clip-path="url(#pc5c92977c5)" style="fill: none; stroke-dasharray: 3.7,1.6; stroke-dashoffset: 0; stroke: #b0b0b0; stroke-opacity: 0.5"/>
     </g>
     <g id="line2d_2">
      <defs>
       <path id="m5c48bd7048" d="M 0 0 
L 0 -10 
" style="stroke: #000000; stroke-width: 2"/>
      </defs>
      <g>
       <use xlink:href="#m5c48bd7048" x="143.010744" y="489.2325" style="stroke: #000000; stroke-width: 2"/>
      </g>
     </g>
     <g id="line2d_3">
      <defs>
       <path id="m288ad29ee9" d="M 0 0 
L 0 10 
" style="stroke: #000000; stroke-width: 2"/>
      </defs>
      <g>
       <use xlink:href="#m288ad29ee9" x="143.010744" y="35.735588" style="stroke: #000000; stroke-width: 2"/>
      </g>
     </g>
     <g id="text_1">
      <!-- 0 -->
      <g transform="translate(134.739494 512.488438) scale(0.26 -0.26)">
       <defs>
        <path id="DejaVuSerif-30" d="M 2034 219 
Q 2513 219 2750 744 
Q 2988 1269 2988 2328 
Q 2988 3391 2750 3916 
Q 2513 4441 2034 4441 
Q 1556 4441 1318 3916 
Q 1081 3391 1081 2328 
Q 1081 1269 1318 744 
Q 1556 219 2034 219 
z
M 2034 -91 
Q 1275 -91 848 546 
Q 422 1184 422 2328 
Q 422 3475 848 4112 
Q 1275 4750 2034 4750 
Q 2797 4750 3222 4112 
Q 3647 3475 3647 2328 
Q 3647 1184 3222 546 
Q 2797 -91 2034 -91 
z
" transform="scale(0.015625)"/>
       </defs>
       <use xlink:href="#DejaVuSerif-30"/>
      </g>
     </g>
    </g>
    <g id="xtick_2">
     <g id="line2d_4">
      <path d="M 274.473719 489.2325 
L 274.473719 35.735588 
" clip-path="url(#pc5c92977c5)" style="fill: none; stroke-dasharray: 3.7,1.6; stroke-dashoffset: 0; stroke: #b0b0b0; stroke-opacity: 0.5"/>
     </g>
     <g id="line2d_5">
      <g>
       <use xlink:href="#m5c48bd7048" x="274.473719" y="489.2325" style="stroke: #000000; stroke-width: 2"/>
      </g>
     </g>
     <g id="line2d_6">
      <g>
       <use xlink:href="#m288ad29ee9" x="274.473719" y="35.735588" style="stroke: #000000; stroke-width: 2"/>
      </g>
     </g>
     <g id="text_2">
      <!-- 500 -->
      <g transform="translate(249.659969 512.488438) scale(0.26 -0.26)">
       <defs>
        <path id="DejaVuSerif-35" d="M 3219 4666 
L 3219 4153 
L 1081 4153 
L 1081 2816 
Q 1244 2928 1461 2984 
Q 1678 3041 1947 3041 
Q 2703 3041 3140 2622 
Q 3578 2203 3578 1478 
Q 3578 738 3136 323 
Q 2694 -91 1894 -91 
Q 1572 -91 1234 -12 
Q 897 66 544 225 
L 544 1131 
L 897 1131 
Q 925 688 1179 453 
Q 1434 219 1894 219 
Q 2388 219 2653 544 
Q 2919 869 2919 1478 
Q 2919 2084 2655 2407 
Q 2391 2731 1894 2731 
Q 1613 2731 1398 2631 
Q 1184 2531 1019 2322 
L 750 2322 
L 750 4666 
L 3219 4666 
z
" transform="scale(0.015625)"/>
       </defs>
       <use xlink:href="#DejaVuSerif-35"/>
       <use xlink:href="#DejaVuSerif-30" x="63.623047"/>
       <use xlink:href="#DejaVuSerif-30" x="127.246094"/>
      </g>
     </g>
    </g>
    <g id="xtick_3">
     <g id="line2d_7">
      <path d="M 405.936694 489.2325 
L 405.936694 35.735588 
" clip-path="url(#pc5c92977c5)" style="fill: none; stroke-dasharray: 3.7,1.6; stroke-dashoffset: 0; stroke: #b0b0b0; stroke-opacity: 0.5"/>
     </g>
     <g id="line2d_8">
      <g>
       <use xlink:href="#m5c48bd7048" x="405.936694" y="489.2325" style="stroke: #000000; stroke-width: 2"/>
      </g>
     </g>
     <g id="line2d_9">
      <g>
       <use xlink:href="#m288ad29ee9" x="405.936694" y="35.735588" style="stroke: #000000; stroke-width: 2"/>
      </g>
     </g>
     <g id="text_3">
      <!-- 1000 -->
      <g transform="translate(372.851694 512.488438) scale(0.26 -0.26)">
       <defs>
        <path id="DejaVuSerif-31" d="M 909 0 
L 909 331 
L 1722 331 
L 1722 4213 
L 781 3603 
L 781 4013 
L 1919 4750 
L 2350 4750 
L 2350 331 
L 3163 331 
L 3163 0 
L 909 0 
z
" transform="scale(0.015625)"/>
       </defs>
       <use xlink:href="#DejaVuSerif-31"/>
       <use xlink:href="#DejaVuSerif-30" x="63.623047"/>
       <use xlink:href="#DejaVuSerif-30" x="127.246094"/>
       <use xlink:href="#DejaVuSerif-30" x="190.869141"/>
      </g>
     </g>
    </g>
    <g id="xtick_4">
     <g id="line2d_10">
      <path d="M 537.399669 489.2325 
L 537.399669 35.735588 
" clip-path="url(#pc5c92977c5)" style="fill: none; stroke-dasharray: 3.7,1.6; stroke-dashoffset: 0; stroke: #b0b0b0; stroke-opacity: 0.5"/>
     </g>
     <g id="line2d_11">
      <g>
       <use xlink:href="#m5c48bd7048" x="537.399669" y="489.2325" style="stroke: #000000; stroke-width: 2"/>
      </g>
     </g>
     <g id="line2d_12">
      <g>
       <use xlink:href="#m288ad29ee9" x="537.399669" y="35.735588" style="stroke: #000000; stroke-width: 2"/>
      </g>
     </g>
     <g id="text_4">
      <!-- 1500 -->
      <g transform="translate(504.314669 512.488438) scale(0.26 -0.26)">
       <use xlink:href="#DejaVuSerif-31"/>
       <use xlink:href="#DejaVuSerif-35" x="63.623047"/>
       <use xlink:href="#DejaVuSerif-30" x="127.246094"/>
       <use xlink:href="#DejaVuSerif-30" x="190.869141"/>
      </g>
     </g>
    </g>
    <g id="xtick_5">
     <g id="line2d_13">
      <path d="M 668.862645 489.2325 
L 668.862645 35.735588 
" clip-path="url(#pc5c92977c5)" style="fill: none; stroke-dasharray: 3.7,1.6; stroke-dashoffset: 0; stroke: #b0b0b0; stroke-opacity: 0.5"/>
     </g>
     <g id="line2d_14">
      <g>
       <use xlink:href="#m5c48bd7048" x="668.862645" y="489.2325" style="stroke: #000000; stroke-width: 2"/>
      </g>
     </g>
     <g id="line2d_15">
      <g>
       <use xlink:href="#m288ad29ee9" x="668.862645" y="35.735588" style="stroke: #000000; stroke-width: 2"/>
      </g>
     </g>
     <g id="text_5">
      <!-- 2000 -->
      <g transform="translate(635.777645 512.488438) scale(0.26 -0.26)">
       <defs>
        <path id="DejaVuSerif-32" d="M 819 3553 
L 469 3553 
L 469 4384 
Q 803 4563 1142 4656 
Q 1481 4750 1806 4750 
Q 2534 4750 2956 4397 
Q 3378 4044 3378 3438 
Q 3378 2753 2422 1800 
Q 2347 1728 2309 1691 
L 1131 513 
L 3078 513 
L 3078 1088 
L 3444 1088 
L 3444 0 
L 434 0 
L 434 341 
L 1850 1753 
Q 2319 2222 2519 2614 
Q 2719 3006 2719 3438 
Q 2719 3909 2473 4175 
Q 2228 4441 1797 4441 
Q 1350 4441 1106 4219 
Q 863 3997 819 3553 
z
" transform="scale(0.015625)"/>
       </defs>
       <use xlink:href="#DejaVuSerif-32"/>
       <use xlink:href="#DejaVuSerif-30" x="63.623047"/>
       <use xlink:href="#DejaVuSerif-30" x="127.246094"/>
       <use xlink:href="#DejaVuSerif-30" x="190.869141"/>
      </g>
     </g>
    </g>
    <g id="xtick_6">
     <g id="line2d_16">
      <path d="M 800.32562 489.2325 
L 800.32562 35.735588 
" clip-path="url(#pc5c92977c5)" style="fill: none; stroke-dasharray: 3.7,1.6; stroke-dashoffset: 0; stroke: #b0b0b0; stroke-opacity: 0.5"/>
     </g>
     <g id="line2d_17">
      <g>
       <use xlink:href="#m5c48bd7048" x="800.32562" y="489.2325" style="stroke: #000000; stroke-width: 2"/>
      </g>
     </g>
     <g id="line2d_18">
      <g>
       <use xlink:href="#m288ad29ee9" x="800.32562" y="35.735588" style="stroke: #000000; stroke-width: 2"/>
      </g>
     </g>
     <g id="text_6">
      <!-- 2500 -->
      <g transform="translate(767.24062 512.488438) scale(0.26 -0.26)">
       <use xlink:href="#DejaVuSerif-32"/>
       <use xlink:href="#DejaVuSerif-35" x="63.623047"/>
       <use xlink:href="#DejaVuSerif-30" x="127.246094"/>
       <use xlink:href="#DejaVuSerif-30" x="190.869141"/>
      </g>
     </g>
    </g>
    <g id="text_7">
     <!-- $t$ (a.u.) -->
     <g transform="translate(428.248182 541.651562) scale(0.26 -0.26)">
      <defs>
       <path id="Cmmi10-74" d="M 397 519 
Q 397 613 416 697 
L 878 2534 
L 206 2534 
Q 141 2534 141 2619 
Q 166 2759 225 2759 
L 934 2759 
L 1191 3803 
Q 1216 3888 1291 3947 
Q 1366 4006 1459 4006 
Q 1541 4006 1595 3957 
Q 1650 3909 1650 3828 
Q 1650 3809 1648 3798 
Q 1647 3788 1644 3775 
L 1388 2759 
L 2047 2759 
Q 2113 2759 2113 2675 
Q 2109 2659 2100 2621 
Q 2091 2584 2075 2559 
Q 2059 2534 2028 2534 
L 1331 2534 
L 872 684 
Q 825 503 825 372 
Q 825 97 1013 97 
Q 1294 97 1511 361 
Q 1728 625 1844 941 
Q 1869 978 1894 978 
L 1972 978 
Q 1997 978 2012 961 
Q 2028 944 2028 922 
Q 2028 909 2022 903 
Q 1881 516 1612 222 
Q 1344 -72 997 -72 
Q 744 -72 570 93 
Q 397 259 397 519 
z
" transform="scale(0.015625)"/>
       <path id="DejaVuSerif-20" transform="scale(0.015625)"/>
       <path id="DejaVuSerif-28" d="M 2041 -997 
Q 1281 -656 893 83 
Q 506 822 506 1931 
Q 506 3044 893 3783 
Q 1281 4522 2041 4863 
L 2041 4556 
Q 1559 4225 1350 3623 
Q 1141 3022 1141 1931 
Q 1141 844 1350 242 
Q 1559 -359 2041 -691 
L 2041 -997 
z
" transform="scale(0.015625)"/>
       <path id="DejaVuSerif-61" d="M 2547 1044 
L 2547 1747 
L 1806 1747 
Q 1378 1747 1168 1562 
Q 959 1378 959 997 
Q 959 650 1171 447 
Q 1384 244 1747 244 
Q 2106 244 2326 466 
Q 2547 688 2547 1044 
z
M 3122 2075 
L 3122 331 
L 3634 331 
L 3634 0 
L 2547 0 
L 2547 359 
Q 2356 128 2106 18 
Q 1856 -91 1522 -91 
Q 969 -91 644 203 
Q 319 497 319 997 
Q 319 1513 691 1797 
Q 1063 2081 1741 2081 
L 2547 2081 
L 2547 2309 
Q 2547 2688 2317 2895 
Q 2088 3103 1672 3103 
Q 1328 3103 1125 2947 
Q 922 2791 872 2484 
L 575 2484 
L 575 3156 
Q 875 3284 1158 3348 
Q 1441 3413 1709 3413 
Q 2400 3413 2761 3070 
Q 3122 2728 3122 2075 
z
" transform="scale(0.015625)"/>
       <path id="DejaVuSerif-2e" d="M 603 325 
Q 603 500 722 622 
Q 841 744 1019 744 
Q 1191 744 1312 622 
Q 1434 500 1434 325 
Q 1434 153 1312 31 
Q 1191 -91 1019 -91 
Q 841 -91 722 29 
Q 603 150 603 325 
z
" transform="scale(0.015625)"/>
       <path id="DejaVuSerif-75" d="M 2266 3322 
L 3341 3322 
L 3341 331 
L 3884 331 
L 3884 0 
L 2766 0 
L 2766 588 
Q 2606 256 2353 82 
Q 2100 -91 1766 -91 
Q 1213 -91 952 223 
Q 691 538 691 1209 
L 691 2988 
L 172 2988 
L 172 3322 
L 1269 3322 
L 1269 1388 
Q 1269 781 1417 556 
Q 1566 331 1947 331 
Q 2347 331 2556 625 
Q 2766 919 2766 1478 
L 2766 2988 
L 2266 2988 
L 2266 3322 
z
" transform="scale(0.015625)"/>
       <path id="DejaVuSerif-29" d="M 453 -997 
L 453 -691 
Q 934 -359 1145 242 
Q 1356 844 1356 1931 
Q 1356 3022 1145 3623 
Q 934 4225 453 4556 
L 453 4863 
Q 1216 4522 1603 3783 
Q 1991 3044 1991 1931 
Q 1991 822 1603 83 
Q 1216 -656 453 -997 
z
" transform="scale(0.015625)"/>
      </defs>
      <use xlink:href="#Cmmi10-74" transform="translate(0 0.015625)"/>
      <use xlink:href="#DejaVuSerif-20" transform="translate(36.083984 0.015625)"/>
      <use xlink:href="#DejaVuSerif-28" transform="translate(67.871094 0.015625)"/>
      <use xlink:href="#DejaVuSerif-61" transform="translate(106.884766 0.015625)"/>
      <use xlink:href="#DejaVuSerif-2e" transform="translate(166.503906 0.015625)"/>
      <use xlink:href="#DejaVuSerif-75" transform="translate(198.291016 0.015625)"/>
      <use xlink:href="#DejaVuSerif-2e" transform="translate(262.695312 0.015625)"/>
      <use xlink:href="#DejaVuSerif-29" transform="translate(294.482422 0.015625)"/>
     </g>
    </g>
   </g>
   <g id="matplotlib.axis_2">
    <g id="ytick_1">
     <g id="line2d_19">
      <path d="M 110.145 489.2325 
L 833.191364 489.2325 
" clip-path="url(#pc5c92977c5)" style="fill: none; stroke-dasharray: 3.7,1.6; stroke-dashoffset: 0; stroke: #b0b0b0; stroke-opacity: 0.5"/>
     </g>
     <g id="line2d_20">
      <defs>
       <path id="m4af103cf0a" d="M 0 0 
L 10 0 
" style="stroke: #000000; stroke-width: 2"/>
      </defs>
      <g>
       <use xlink:href="#m4af103cf0a" x="110.145" y="489.2325" style="stroke: #000000; stroke-width: 2"/>
      </g>
     </g>
     <g id="line2d_21">
      <defs>
       <path id="mb2d4a68286" d="M 0 0 
L -10 0 
" style="stroke: #000000; stroke-width: 2"/>
      </defs>
      <g>
       <use xlink:href="#mb2d4a68286" x="833.191364" y="489.2325" style="stroke: #000000; stroke-width: 2"/>
      </g>
     </g>
     <g id="text_8">
      <!-- −5 -->
      <g transform="translate(68.315313 499.110469) scale(0.26 -0.26)">
       <defs>
        <path id="DejaVuSerif-2212" d="M 678 2259 
L 4684 2259 
L 4684 1753 
L 678 1753 
L 678 2259 
z
" transform="scale(0.015625)"/>
       </defs>
       <use xlink:href="#DejaVuSerif-2212"/>
       <use xlink:href="#DejaVuSerif-35" x="83.789062"/>
      </g>
     </g>
    </g>
    <g id="ytick_2">
     <g id="line2d_22">
      <path d="M 110.145 424.447227 
L 833.191364 424.447227 
" clip-path="url(#pc5c92977c5)" style="fill: none; stroke-dasharray: 3.7,1.6; stroke-dashoffset: 0; stroke: #b0b0b0; stroke-opacity: 0.5"/>
     </g>
     <g id="line2d_23">
      <g>
       <use xlink:href="#m4af103cf0a" x="110.145" y="424.447227" style="stroke: #000000; stroke-width: 2"/>
      </g>
     </g>
     <g id="line2d_24">
      <g>
       <use xlink:href="#mb2d4a68286" x="833.191364" y="424.447227" style="stroke: #000000; stroke-width: 2"/>
      </g>
     </g>
     <g id="text_9">
      <!-- −4 -->
      <g transform="translate(68.315313 434.325196) scale(0.26 -0.26)">
       <defs>
        <path id="DejaVuSerif-34" d="M 2234 1581 
L 2234 4063 
L 641 1581 
L 2234 1581 
z
M 3609 0 
L 1484 0 
L 1484 331 
L 2234 331 
L 2234 1247 
L 197 1247 
L 197 1588 
L 2241 4750 
L 2859 4750 
L 2859 1581 
L 3750 1581 
L 3750 1247 
L 2859 1247 
L 2859 331 
L 3609 331 
L 3609 0 
z
" transform="scale(0.015625)"/>
       </defs>
       <use xlink:href="#DejaVuSerif-2212"/>
       <use xlink:href="#DejaVuSerif-34" x="83.789062"/>
      </g>
     </g>
    </g>
    <g id="ytick_3">
     <g id="line2d_25">
      <path d="M 110.145 359.661954 
L 833.191364 359.661954 
" clip-path="url(#pc5c92977c5)" style="fill: none; stroke-dasharray: 3.7,1.6; stroke-dashoffset: 0; stroke: #b0b0b0; stroke-opacity: 0.5"/>
     </g>
     <g id="line2d_26">
      <g>
       <use xlink:href="#m4af103cf0a" x="110.145" y="359.661954" style="stroke: #000000; stroke-width: 2"/>
      </g>
     </g>
     <g id="line2d_27">
      <g>
       <use xlink:href="#mb2d4a68286" x="833.191364" y="359.661954" style="stroke: #000000; stroke-width: 2"/>
      </g>
     </g>
     <g id="text_10">
      <!-- −3 -->
      <g transform="translate(68.315313 369.539922) scale(0.26 -0.26)">
       <defs>
        <path id="DejaVuSerif-33" d="M 622 4469 
Q 988 4606 1323 4678 
Q 1659 4750 1953 4750 
Q 2638 4750 3022 4454 
Q 3406 4159 3406 3634 
Q 3406 3213 3140 2930 
Q 2875 2647 2388 2547 
Q 2963 2466 3280 2130 
Q 3597 1794 3597 1259 
Q 3597 606 3158 257 
Q 2719 -91 1894 -91 
Q 1528 -91 1179 -12 
Q 831 66 488 225 
L 488 1131 
L 838 1131 
Q 869 681 1141 450 
Q 1413 219 1906 219 
Q 2384 219 2661 495 
Q 2938 772 2938 1253 
Q 2938 1803 2653 2086 
Q 2369 2369 1819 2369 
L 1522 2369 
L 1522 2688 
L 1678 2688 
Q 2225 2688 2498 2914 
Q 2772 3141 2772 3597 
Q 2772 4006 2547 4223 
Q 2322 4441 1900 4441 
Q 1478 4441 1245 4241 
Q 1013 4041 972 3647 
L 622 3647 
L 622 4469 
z
" transform="scale(0.015625)"/>
       </defs>
       <use xlink:href="#DejaVuSerif-2212"/>
       <use xlink:href="#DejaVuSerif-33" x="83.789062"/>
      </g>
     </g>
    </g>
    <g id="ytick_4">
     <g id="line2d_28">
      <path d="M 110.145 294.876681 
L 833.191364 294.876681 
" clip-path="url(#pc5c92977c5)" style="fill: none; stroke-dasharray: 3.7,1.6; stroke-dashoffset: 0; stroke: #b0b0b0; stroke-opacity: 0.5"/>
     </g>
     <g id="line2d_29">
      <g>
       <use xlink:href="#m4af103cf0a" x="110.145" y="294.876681" style="stroke: #000000; stroke-width: 2"/>
      </g>
     </g>
     <g id="line2d_30">
      <g>
       <use xlink:href="#mb2d4a68286" x="833.191364" y="294.876681" style="stroke: #000000; stroke-width: 2"/>
      </g>
     </g>
     <g id="text_11">
      <!-- −2 -->
      <g transform="translate(68.315313 304.754649) scale(0.26 -0.26)">
       <use xlink:href="#DejaVuSerif-2212"/>
       <use xlink:href="#DejaVuSerif-32" x="83.789062"/>
      </g>
     </g>
    </g>
    <g id="ytick_5">
     <g id="line2d_31">
      <path d="M 110.145 230.091407 
L 833.191364 230.091407 
" clip-path="url(#pc5c92977c5)" style="fill: none; stroke-dasharray: 3.7,1.6; stroke-dashoffset: 0; stroke: #b0b0b0; stroke-opacity: 0.5"/>
     </g>
     <g id="line2d_32">
      <g>
       <use xlink:href="#m4af103cf0a" x="110.145" y="230.091407" style="stroke: #000000; stroke-width: 2"/>
      </g>
     </g>
     <g id="line2d_33">
      <g>
       <use xlink:href="#mb2d4a68286" x="833.191364" y="230.091407" style="stroke: #000000; stroke-width: 2"/>
      </g>
     </g>
     <g id="text_12">
      <!-- −1 -->
      <g transform="translate(68.315313 239.969376) scale(0.26 -0.26)">
       <use xlink:href="#DejaVuSerif-2212"/>
       <use xlink:href="#DejaVuSerif-31" x="83.789062"/>
      </g>
     </g>
    </g>
    <g id="ytick_6">
     <g id="line2d_34">
      <path d="M 110.145 165.306134 
L 833.191364 165.306134 
" clip-path="url(#pc5c92977c5)" style="fill: none; stroke-dasharray: 3.7,1.6; stroke-dashoffset: 0; stroke: #b0b0b0; stroke-opacity: 0.5"/>
     </g>
     <g id="line2d_35">
      <g>
       <use xlink:href="#m4af103cf0a" x="110.145" y="165.306134" style="stroke: #000000; stroke-width: 2"/>
      </g>
     </g>
     <g id="line2d_36">
      <g>
       <use xlink:href="#mb2d4a68286" x="833.191364" y="165.306134" style="stroke: #000000; stroke-width: 2"/>
      </g>
     </g>
     <g id="text_13">
      <!-- 0 -->
      <g transform="translate(90.1025 175.184103) scale(0.26 -0.26)">
       <use xlink:href="#DejaVuSerif-30"/>
      </g>
     </g>
    </g>
    <g id="ytick_7">
     <g id="line2d_37">
      <path d="M 110.145 100.520861 
L 833.191364 100.520861 
" clip-path="url(#pc5c92977c5)" style="fill: none; stroke-dasharray: 3.7,1.6; stroke-dashoffset: 0; stroke: #b0b0b0; stroke-opacity: 0.5"/>
     </g>
     <g id="line2d_38">
      <g>
       <use xlink:href="#m4af103cf0a" x="110.145" y="100.520861" style="stroke: #000000; stroke-width: 2"/>
      </g>
     </g>
     <g id="line2d_39">
      <g>
       <use xlink:href="#mb2d4a68286" x="833.191364" y="100.520861" style="stroke: #000000; stroke-width: 2"/>
      </g>
     </g>
     <g id="text_14">
      <!-- 1 -->
      <g transform="translate(90.1025 110.39883) scale(0.26 -0.26)">
       <use xlink:href="#DejaVuSerif-31"/>
      </g>
     </g>
    </g>
    <g id="ytick_8">
     <g id="line2d_40">
      <path d="M 110.145 35.735588 
L 833.191364 35.735588 
" clip-path="url(#pc5c92977c5)" style="fill: none; stroke-dasharray: 3.7,1.6; stroke-dashoffset: 0; stroke: #b0b0b0; stroke-opacity: 0.5"/>
     </g>
     <g id="line2d_41">
      <g>
       <use xlink:href="#m4af103cf0a" x="110.145" y="35.735588" style="stroke: #000000; stroke-width: 2"/>
      </g>
     </g>
     <g id="line2d_42">
      <g>
       <use xlink:href="#mb2d4a68286" x="833.191364" y="35.735588" style="stroke: #000000; stroke-width: 2"/>
      </g>
     </g>
     <g id="text_15">
      <!-- 2 -->
      <g transform="translate(90.1025 45.613557) scale(0.26 -0.26)">
       <use xlink:href="#DejaVuSerif-32"/>
      </g>
     </g>
    </g>
    <g id="text_16">
     <!-- Particle energy (a.u.) -->
     <g transform="translate(58.538438 401.5617) rotate(-90) scale(0.26 -0.26)">
      <defs>
       <path id="DejaVuSerif-50" d="M 1581 2375 
L 2406 2375 
Q 2872 2375 3115 2626 
Q 3359 2878 3359 3353 
Q 3359 3831 3115 4081 
Q 2872 4331 2406 4331 
L 1581 4331 
L 1581 2375 
z
M 353 0 
L 353 331 
L 947 331 
L 947 4331 
L 353 4331 
L 353 4666 
L 2559 4666 
Q 3259 4666 3668 4311 
Q 4078 3956 4078 3353 
Q 4078 2753 3668 2397 
Q 3259 2041 2559 2041 
L 1581 2041 
L 1581 331 
L 2303 331 
L 2303 0 
L 353 0 
z
" transform="scale(0.015625)"/>
       <path id="DejaVuSerif-72" d="M 3059 3328 
L 3059 2497 
L 2728 2497 
Q 2713 2744 2591 2866 
Q 2469 2988 2234 2988 
Q 1809 2988 1582 2694 
Q 1356 2400 1356 1850 
L 1356 331 
L 2022 331 
L 2022 0 
L 263 0 
L 263 331 
L 781 331 
L 781 2994 
L 231 2994 
L 231 3322 
L 1356 3322 
L 1356 2731 
Q 1525 3078 1790 3245 
Q 2056 3413 2438 3413 
Q 2578 3413 2733 3391 
Q 2888 3369 3059 3328 
z
" transform="scale(0.015625)"/>
       <path id="DejaVuSerif-74" d="M 691 2988 
L 184 2988 
L 184 3322 
L 691 3322 
L 691 4353 
L 1269 4353 
L 1269 3322 
L 2350 3322 
L 2350 2988 
L 1269 2988 
L 1269 878 
Q 1269 456 1350 337 
Q 1431 219 1650 219 
Q 1875 219 1978 351 
Q 2081 484 2088 781 
L 2522 781 
Q 2497 328 2275 118 
Q 2053 -91 1600 -91 
Q 1103 -91 897 129 
Q 691 350 691 878 
L 691 2988 
z
" transform="scale(0.015625)"/>
       <path id="DejaVuSerif-69" d="M 622 4353 
Q 622 4497 726 4603 
Q 831 4709 978 4709 
Q 1122 4709 1226 4603 
Q 1331 4497 1331 4353 
Q 1331 4206 1228 4103 
Q 1125 4000 978 4000 
Q 831 4000 726 4103 
Q 622 4206 622 4353 
z
M 1356 331 
L 1900 331 
L 1900 0 
L 231 0 
L 231 331 
L 781 331 
L 781 2988 
L 231 2988 
L 231 3322 
L 1356 3322 
L 1356 331 
z
" transform="scale(0.015625)"/>
       <path id="DejaVuSerif-63" d="M 3291 997 
Q 3169 466 2822 187 
Q 2475 -91 1925 -91 
Q 1200 -91 759 389 
Q 319 869 319 1663 
Q 319 2459 759 2936 
Q 1200 3413 1925 3413 
Q 2241 3413 2553 3339 
Q 2866 3266 3181 3116 
L 3181 2266 
L 2847 2266 
Q 2781 2703 2561 2903 
Q 2341 3103 1931 3103 
Q 1466 3103 1228 2742 
Q 991 2381 991 1663 
Q 991 944 1227 581 
Q 1463 219 1931 219 
Q 2303 219 2525 412 
Q 2747 606 2828 997 
L 3291 997 
z
" transform="scale(0.015625)"/>
       <path id="DejaVuSerif-6c" d="M 1313 331 
L 1856 331 
L 1856 0 
L 184 0 
L 184 331 
L 738 331 
L 738 4531 
L 184 4531 
L 184 4863 
L 1313 4863 
L 1313 331 
z
" transform="scale(0.015625)"/>
       <path id="DejaVuSerif-65" d="M 3469 1600 
L 991 1600 
L 991 1575 
Q 991 903 1244 561 
Q 1497 219 1991 219 
Q 2369 219 2611 417 
Q 2853 616 2950 1006 
L 3413 1006 
Q 3275 459 2904 184 
Q 2534 -91 1931 -91 
Q 1203 -91 761 389 
Q 319 869 319 1663 
Q 319 2450 753 2931 
Q 1188 3413 1894 3413 
Q 2647 3413 3050 2948 
Q 3453 2484 3469 1600 
z
M 2791 1931 
Q 2772 2513 2545 2808 
Q 2319 3103 1894 3103 
Q 1497 3103 1269 2806 
Q 1041 2509 991 1931 
L 2791 1931 
z
" transform="scale(0.015625)"/>
       <path id="DejaVuSerif-6e" d="M 263 0 
L 263 331 
L 781 331 
L 781 2988 
L 231 2988 
L 231 3322 
L 1356 3322 
L 1356 2731 
Q 1516 3069 1770 3241 
Q 2025 3413 2363 3413 
Q 2913 3413 3172 3097 
Q 3431 2781 3431 2113 
L 3431 331 
L 3944 331 
L 3944 0 
L 2356 0 
L 2356 331 
L 2853 331 
L 2853 1931 
Q 2853 2541 2703 2767 
Q 2553 2994 2175 2994 
Q 1775 2994 1565 2701 
Q 1356 2409 1356 1850 
L 1356 331 
L 1856 331 
L 1856 0 
L 263 0 
z
" transform="scale(0.015625)"/>
       <path id="DejaVuSerif-67" d="M 3359 2988 
L 3359 72 
Q 3359 -644 2965 -1033 
Q 2572 -1422 1844 -1422 
Q 1516 -1422 1216 -1362 
Q 916 -1303 641 -1184 
L 641 -488 
L 941 -488 
Q 997 -813 1206 -963 
Q 1416 -1113 1806 -1113 
Q 2313 -1113 2548 -827 
Q 2784 -541 2784 72 
L 2784 519 
Q 2616 206 2355 57 
Q 2094 -91 1709 -91 
Q 1097 -91 708 395 
Q 319 881 319 1663 
Q 319 2444 706 2928 
Q 1094 3413 1709 3413 
Q 2094 3413 2355 3264 
Q 2616 3116 2784 2803 
L 2784 3322 
L 3909 3322 
L 3909 2988 
L 3359 2988 
z
M 2784 1825 
Q 2784 2422 2554 2737 
Q 2325 3053 1888 3053 
Q 1444 3053 1217 2703 
Q 991 2353 991 1663 
Q 991 975 1217 622 
Q 1444 269 1888 269 
Q 2325 269 2554 583 
Q 2784 897 2784 1497 
L 2784 1825 
z
" transform="scale(0.015625)"/>
       <path id="DejaVuSerif-79" d="M 1381 -609 
L 1600 -56 
L 359 2988 
L -19 2988 
L -19 3322 
L 1509 3322 
L 1509 2988 
L 978 2988 
L 1913 703 
L 2847 2988 
L 2350 2988 
L 2350 3322 
L 3597 3322 
L 3597 2988 
L 3225 2988 
L 1703 -750 
Q 1547 -1138 1356 -1280 
Q 1166 -1422 819 -1422 
Q 672 -1422 517 -1397 
Q 363 -1372 206 -1325 
L 206 -691 
L 500 -691 
Q 519 -903 608 -995 
Q 697 -1088 884 -1088 
Q 1056 -1088 1161 -992 
Q 1266 -897 1381 -609 
z
" transform="scale(0.015625)"/>
      </defs>
      <use xlink:href="#DejaVuSerif-50"/>
      <use xlink:href="#DejaVuSerif-61" x="62.785156"/>
      <use xlink:href="#DejaVuSerif-72" x="122.404297"/>
      <use xlink:href="#DejaVuSerif-74" x="170.207031"/>
      <use xlink:href="#DejaVuSerif-69" x="210.392578"/>
      <use xlink:href="#DejaVuSerif-63" x="242.375"/>
      <use xlink:href="#DejaVuSerif-6c" x="298.380859"/>
      <use xlink:href="#DejaVuSerif-65" x="330.363281"/>
      <use xlink:href="#DejaVuSerif-20" x="389.542969"/>
      <use xlink:href="#DejaVuSerif-65" x="421.330078"/>
      <use xlink:href="#DejaVuSerif-6e" x="480.509766"/>
      <use xlink:href="#DejaVuSerif-65" x="544.914062"/>
      <use xlink:href="#DejaVuSerif-72" x="604.09375"/>
      <use xlink:href="#DejaVuSerif-67" x="651.896484"/>
      <use xlink:href="#DejaVuSerif-79" x="715.910156"/>
      <use xlink:href="#DejaVuSerif-20" x="772.404297"/>
      <use xlink:href="#DejaVuSerif-28" x="804.191406"/>
      <use xlink:href="#DejaVuSerif-61" x="843.205078"/>
      <use xlink:href="#DejaVuSerif-2e" x="902.824219"/>
      <use xlink:href="#DejaVuSerif-75" x="934.611328"/>
      <use xlink:href="#DejaVuSerif-2e" x="999.015625"/>
      <use xlink:href="#DejaVuSerif-29" x="1030.802734"/>
     </g>
    </g>
   </g>
   <g id="line2d_43">
    <path d="M 143.010744 286.425729 
L 155.512228 285.941615 
L 169.329658 285.357865 
L 171.303576 285.408235 
L 172.619522 285.377246 
L 173.277495 285.273541 
L 173.935468 285.33393 
L 174.593441 285.268262 
L 175.251413 285.328129 
L 175.909386 285.195773 
L 181.173169 285.154747 
L 181.831142 285.022185 
L 185.121006 285.004258 
L 185.778979 284.836785 
L 188.41087 284.771195 
L 190.384789 284.637912 
L 196.964517 284.371095 
L 197.62249 284.301774 
L 198.938436 284.410398 
L 200.254382 284.179228 
L 200.912355 284.288871 
L 204.202219 283.971127 
L 204.860192 284.096218 
L 206.176137 283.902277 
L 206.83411 284.00587 
L 207.492083 283.800225 
L 208.150056 283.894704 
L 209.466002 283.727091 
L 210.123974 283.820179 
L 210.781947 283.614138 
L 211.43992 283.745853 
L 212.097893 283.573794 
L 213.413839 283.567759 
L 214.071811 283.459915 
L 214.729784 283.551386 
L 215.387757 283.344591 
L 216.04573 283.478466 
L 216.703703 283.282465 
L 217.361676 283.360163 
L 218.677621 283.21071 
L 219.335594 283.242738 
L 219.993567 283.068668 
L 220.65154 283.194219 
L 221.309513 282.980282 
L 221.967486 283.07483 
L 223.283431 282.900187 
L 223.941404 282.958943 
L 224.599377 282.752041 
L 225.25735 282.87475 
L 225.915323 282.71894 
L 231.179106 282.367647 
L 231.837078 282.243444 
L 232.495051 282.337469 
L 234.46897 282.14203 
L 235.126943 282.153935 
L 236.442888 281.881319 
L 237.758834 281.944757 
L 240.390725 281.602566 
L 243.022617 281.494127 
L 244.996535 281.276473 
L 246.970454 281.125152 
L 248.944372 280.839371 
L 258.155992 280.023257 
L 262.761802 279.607649 
L 267.367612 278.816609 
L 269.341531 278.581434 
L 273.947341 277.714811 
L 274.605314 277.721858 
L 275.263286 277.474286 
L 277.237205 277.261637 
L 279.211124 276.76679 
L 288.422743 274.958447 
L 289.080716 274.704811 
L 291.712608 274.172137 
L 292.37058 273.870763 
L 293.028553 273.818129 
L 298.292336 272.236998 
L 307.503956 268.908351 
L 311.451793 267.109233 
L 312.109766 266.65751 
L 312.767739 266.358841 
L 314.083685 265.579222 
L 316.057603 264.519589 
L 319.347467 262.128734 
L 320.663413 260.876955 
L 322.637332 258.777976 
L 324.61125 256.212118 
L 325.927196 254.050768 
L 327.243141 251.598918 
L 328.559087 248.61358 
L 329.875033 245.315355 
L 331.190979 242.514474 
L 332.506924 238.748076 
L 333.164897 236.591032 
L 333.82287 234.030705 
L 334.480843 230.530718 
L 335.138816 225.690114 
L 335.796789 219.13846 
L 336.454761 210.271999 
L 337.112734 196.826345 
L 337.770707 201.571991 
L 338.42868 210.029707 
L 339.086653 211.135266 
L 339.744626 217.832434 
L 340.402598 219.233755 
L 342.376517 225.879377 
L 343.03449 225.703895 
L 343.692463 226.324218 
L 345.008408 227.041778 
L 345.666381 227.013074 
L 346.324354 226.6767 
L 346.982327 226.594993 
L 347.6403 226.086633 
L 348.956246 224.06129 
L 349.614218 222.175661 
L 351.588137 213.511917 
L 352.24611 209.000363 
L 352.904083 202.018251 
L 353.562055 192.654401 
L 354.220028 205.128078 
L 355.535974 221.313508 
L 356.193947 225.856155 
L 357.509893 230.807649 
L 358.167865 232.414174 
L 358.825838 233.722288 
L 360.141784 235.681183 
L 360.799757 236.370195 
L 361.45773 236.772152 
L 362.773675 237.179168 
L 363.431648 237.06647 
L 364.089621 236.726392 
L 365.405567 235.647173 
L 366.06354 234.946435 
L 366.721512 234.080176 
L 367.379485 233.020123 
L 368.037458 231.574747 
L 368.695431 229.365864 
L 370.66935 218.835438 
L 371.327322 213.225665 
L 371.985295 203.54454 
L 372.643268 187.670212 
L 373.301241 183.311576 
L 373.959214 183.33402 
L 375.275159 183.598222 
L 375.933132 183.466521 
L 377.249078 183.702266 
L 377.907051 183.636759 
L 378.565024 183.37899 
L 379.222997 182.782693 
L 380.538942 182.059421 
L 381.196915 181.806145 
L 381.854888 181.900673 
L 382.512861 182.128731 
L 383.170834 170.61962 
L 383.828806 171.698204 
L 384.486779 172.069999 
L 385.802725 172.304917 
L 387.776644 172.33315 
L 390.408535 172.118443 
L 391.066508 171.986684 
L 392.382454 172.142975 
L 394.356372 172.303148 
L 396.988263 172.297617 
L 398.962182 172.081143 
L 399.620155 174.716132 
L 400.278128 174.18642 
L 400.936101 174.5253 
L 402.910019 174.982554 
L 405.541911 175.368223 
L 406.857856 175.257096 
L 407.515829 175.099328 
L 408.173802 174.695449 
L 408.831775 170.899097 
L 409.489748 170.42739 
L 410.805693 170.622538 
L 414.095558 170.712614 
L 416.727449 170.593116 
L 417.385422 170.483228 
L 418.043395 170.242419 
L 418.701367 170.378864 
L 419.35934 170.857188 
L 420.017313 171.701304 
L 420.675286 172.873603 
L 425.939069 172.772648 
L 426.597042 170.282578 
L 427.255015 163.604886 
L 427.912987 162.960589 
L 429.228933 162.716615 
L 431.860824 162.653873 
L 450.284064 162.663318 
L 476.602978 162.634766 
L 521.345132 162.596109 
L 800.32562 162.530692 
L 800.32562 162.530692 
" clip-path="url(#pc5c92977c5)" style="fill: none; stroke: #1f77b4; stroke-width: 3; stroke-linecap: square"/>
   </g>
   <g id="line2d_44">
    <path d="M 143.010744 286.341869 
L 179.857223 285.03223 
L 196.964517 284.279318 
L 202.886273 283.951613 
L 210.781947 283.493834 
L 223.283431 282.700353 
L 225.915323 282.48037 
L 227.889241 282.339701 
L 248.944372 280.483944 
L 250.260318 280.286369 
L 252.89221 280.127181 
L 254.208155 279.860763 
L 255.524101 279.873364 
L 256.840047 279.578516 
L 257.49802 279.633357 
L 258.155992 279.442728 
L 260.129911 279.292733 
L 260.787884 279.073902 
L 262.761802 278.944358 
L 267.367612 278.30088 
L 273.289368 277.532508 
L 275.921259 277.078793 
L 285.790852 274.914214 
L 290.396662 273.749295 
L 297.634363 271.342959 
L 301.5822 270.553849 
L 304.214092 269.654522 
L 306.845983 268.584417 
L 310.135847 267.201756 
L 312.109766 266.339355 
L 314.741657 265.473741 
L 316.715576 264.035451 
L 318.689494 262.478713 
L 321.321386 260.008764 
L 322.637332 258.573052 
L 325.927196 254.622747 
L 327.243141 253.321526 
L 327.901114 252.547451 
L 329.21706 250.520432 
L 329.875033 249.364108 
L 331.848951 244.97449 
L 332.506924 243.166508 
L 333.164897 240.234754 
L 333.82287 236.015443 
L 334.480843 230.177665 
L 335.138816 222.821715 
L 335.796789 213.137728 
L 336.454761 197.500533 
L 337.112734 186.183312 
L 338.42868 178.906722 
L 339.744626 174.739907 
L 340.402598 173.161025 
L 341.718544 170.943551 
L 342.376517 169.990874 
L 343.692463 168.652573 
L 345.008408 167.793009 
L 346.982327 166.857588 
L 348.956246 166.142106 
L 352.24611 165.317532 
L 356.193947 164.686264 
L 361.45773 164.13937 
L 368.037458 163.710221 
L 377.907051 163.319774 
L 392.382454 162.986146 
L 413.437585 162.718973 
L 450.284064 162.503618 
L 520.029186 162.373102 
L 718.079014 162.291871 
L 800.32562 162.280569 
L 800.32562 162.280569 
" clip-path="url(#pc5c92977c5)" style="fill: none; stroke: #ff7f0e; stroke-width: 3; stroke-linecap: square"/>
   </g>
   <g id="line2d_45">
    <path d="M 143.010744 157.552182 
L 273.289368 157.650261 
L 280.527069 157.68041 
L 296.97639 157.750708 
L 299.608282 158.016773 
L 302.898146 158.093994 
L 308.161929 158.009031 
L 312.109766 157.952426 
L 313.425712 158.069895 
L 314.741657 158.405964 
L 315.39963 158.551544 
L 318.689494 158.507925 
L 321.979359 158.27005 
L 323.953277 158.29596 
L 324.61125 158.378281 
L 326.585169 158.990778 
L 329.21706 159.17681 
L 330.533006 159.788166 
L 331.190979 159.758202 
L 331.848951 159.552372 
L 332.506924 159.628588 
L 333.164897 159.992583 
L 334.480843 161.199667 
L 335.138816 160.154943 
L 335.796789 154.804368 
L 336.454761 133.912034 
L 337.112734 70.142988 
L 337.770707 220.730388 
L 338.42868 231.431504 
L 339.086653 240.136346 
L 339.744626 233.347213 
L 340.402598 253.53052 
L 341.060571 231.27331 
L 341.718544 221.555248 
L 342.376517 238.961874 
L 343.03449 245.717112 
L 343.692463 242.953591 
L 344.350436 254.874267 
L 345.008408 249.430548 
L 345.666381 245.558794 
L 346.324354 252.279881 
L 346.982327 245.018333 
L 347.6403 258.364009 
L 348.298273 258.50599 
L 349.614218 224.168996 
L 350.272191 237.677827 
L 350.930164 256.522717 
L 351.588137 254.132481 
L 352.24611 249.233229 
L 352.904083 223.270259 
L 353.134062 -1 
M 354.015905 -1 
L 354.220028 186.716593 
L 354.878001 212.442393 
L 355.535974 219.966232 
L 356.193947 236.850664 
L 356.85192 228.194564 
L 357.509893 246.87022 
L 358.167865 248.282233 
L 358.825838 247.160953 
L 359.483811 242.003704 
L 360.141784 234.804114 
L 361.45773 250.972051 
L 362.115702 252.648334 
L 362.773675 249.633951 
L 363.431648 237.715427 
L 364.089621 239.755975 
L 364.747594 237.229222 
L 365.405567 251.481997 
L 366.06354 249.233081 
L 366.721512 252.103247 
L 367.379485 248.436955 
L 368.037458 236.055914 
L 368.695431 234.964021 
L 369.353404 226.229846 
L 370.011377 239.309045 
L 370.66935 242.962235 
L 371.327322 202.892182 
L 371.985295 171.783856 
L 372.643268 168.054748 
L 373.301241 266.905321 
L 373.959214 284.367692 
L 374.617187 311.041289 
L 375.275159 308.808757 
L 375.933132 308.880562 
L 376.591105 314.931658 
L 377.249078 315.13324 
L 377.907051 302.511988 
L 378.565024 253.226355 
L 379.222997 313.59179 
L 379.880969 315.400523 
L 380.538942 310.115241 
L 381.196915 295.872619 
L 381.854888 251.783435 
L 382.512861 125.675073 
L 383.170834 269.76998 
L 383.828806 316.622757 
L 384.486779 331.023839 
L 385.144752 338.124763 
L 385.802725 342.056215 
L 386.460698 344.142981 
L 387.118671 344.887816 
L 387.776644 344.417082 
L 388.434616 342.562881 
L 389.092589 338.722702 
L 389.750562 331.225145 
L 390.408535 314.233401 
L 391.066508 240.208421 
L 391.724481 264.552188 
L 392.382454 318.28894 
L 393.040426 333.076842 
L 393.698399 339.833241 
L 394.356372 343.285244 
L 395.014345 344.857434 
L 395.672318 345.054938 
L 396.330291 343.974181 
L 396.988263 341.388698 
L 397.646236 336.576107 
L 398.304209 327.52139 
L 398.962182 306.25296 
L 399.620155 277.823129 
L 399.91674 -1 
M 400.630877 -1 
L 400.936101 292.970649 
L 401.594073 321.187346 
L 402.252046 330.997727 
L 402.910019 334.856047 
L 403.567992 334.703241 
L 404.225965 326.065344 
L 404.883938 340.720267 
L 405.541911 341.902975 
L 406.199883 339.717985 
L 406.857856 335.591448 
L 407.515829 327.98397 
L 408.173802 311.590227 
L 408.831775 284.406788 
L 408.973185 -1 
M 409.999248 -1 
L 410.14772 302.813732 
L 410.805693 330.931024 
L 411.463666 341.354005 
L 412.121639 346.530299 
L 412.779612 349.232411 
L 413.437585 350.407821 
L 414.095558 350.401168 
L 414.75353 349.250259 
L 415.411503 346.71958 
L 416.069476 342.129456 
L 416.727449 333.666686 
L 417.385422 315.009734 
L 418.043395 231.134138 
L 418.701367 267.93936 
L 419.35934 312.737145 
L 420.017313 307.581963 
L 420.675286 337.880861 
L 421.333259 343.55006 
L 421.991232 345.221719 
L 422.649205 345.463344 
L 423.307177 344.447296 
L 423.96515 341.976974 
L 424.623123 337.420903 
L 425.281096 329.121409 
L 425.939069 311.620981 
L 426.597042 233.14957 
L 426.816184 -1 
M 427.653055 -1 
L 427.912987 305.194663 
L 428.57096 335.624317 
L 429.228933 347.855661 
L 429.886906 354.228305 
L 430.544879 357.728521 
L 431.202852 359.402907 
L 431.860824 359.607749 
L 432.518797 358.293985 
L 433.17677 354.940393 
L 433.834743 347.978407 
L 434.492716 331.916111 
L 435.150689 264.67092 
L 435.808662 276.333383 
L 436.466634 334.435789 
L 437.124607 349.873522 
L 437.78258 356.943738 
L 438.440553 360.627795 
L 439.098526 362.401764 
L 439.756499 362.77754 
L 440.414471 361.829867 
L 441.072444 359.258325 
L 441.730417 354.111134 
L 442.38839 343.513913 
L 443.046363 314.372808 
L 443.469445 -1 
M 443.936602 -1 
L 444.362309 319.913666 
L 445.020281 345.65177 
L 445.678254 355.570163 
L 446.336227 360.513422 
L 446.9942 363.027691 
L 447.652173 363.970232 
L 448.310146 363.596598 
L 448.968119 361.790659 
L 449.626091 357.96492 
L 450.284064 350.423282 
L 450.942037 333.140818 
L 451.60001 254.912912 
L 452.257983 286.855024 
L 452.915956 338.197509 
L 453.573928 352.66563 
L 454.231901 359.328557 
L 454.889874 362.756284 
L 455.547847 364.328584 
L 456.20582 364.518026 
L 456.863793 363.369426 
L 457.521766 360.537961 
L 458.179738 354.963305 
L 458.837711 343.368014 
L 459.495684 309.560092 
L 460.153657 129.512156 
L 460.81163 325.860579 
L 461.469603 348.516438 
L 462.127576 357.627377 
L 462.785548 362.196464 
L 463.443521 364.471362 
L 464.101494 365.217026 
L 464.759467 364.640185 
L 465.41744 362.573199 
L 466.075413 358.326915 
L 466.733385 349.893626 
L 467.391358 329.632154 
L 468.049331 204.399091 
L 468.707304 303.12992 
L 469.365277 342.464114 
L 470.02325 355.09129 
L 470.681223 361.074943 
L 471.339195 364.135067 
L 471.997168 365.444397 
L 472.655141 365.391177 
L 473.313114 363.956897 
L 473.971087 360.700722 
L 474.62906 354.317191 
L 475.287032 340.545043 
L 476.602978 243.888842 
L 477.260951 333.708437 
L 477.918924 351.929919 
L 478.576897 359.778832 
L 479.23487 363.760374 
L 479.892842 365.664181 
L 480.550815 366.104121 
L 481.208788 365.201507 
L 481.866761 362.691099 
L 482.524734 357.677102 
L 483.182707 347.463896 
L 483.84068 320.190213 
L 483.873981 -1 
M 485.123318 -1 
L 485.156625 320.251016 
L 485.814598 347.645998 
L 486.472571 357.898353 
L 487.130544 362.936504 
L 487.788517 365.465331 
L 488.446489 366.382545 
L 489.104462 365.952999 
L 489.762435 364.052801 
L 490.420408 360.060708 
L 491.078381 352.162767 
L 491.736354 333.726497 
L 492.394327 240.59219 
L 493.052299 296.203737 
L 493.710272 341.881575 
L 494.368245 355.50795 
L 495.026218 361.840894 
L 495.684191 365.067863 
L 496.342164 366.473892 
L 497.000137 366.48737 
L 497.658109 365.110246 
L 498.316082 361.919575 
L 498.974055 355.644452 
L 499.632028 342.155604 
L 500.290001 297.31355 
L 500.947974 238.154446 
L 501.605946 334.21871 
L 502.263919 352.856603 
L 502.921892 360.815075 
L 503.579865 364.832213 
L 504.237838 366.740785 
L 504.895811 367.164938 
L 505.553784 366.224312 
L 506.211756 363.639803 
L 506.869729 358.472138 
L 507.527702 347.861199 
L 508.185675 318.775786 
L 508.599281 -1 
M 509.085507 -1 
L 509.501621 324.048348 
L 510.159593 349.768936 
L 510.817566 359.610912 
L 511.475539 364.458445 
L 512.133512 366.857026 
L 512.791485 367.653129 
L 513.449458 367.078899 
L 514.107431 364.966686 
L 514.765403 360.597459 
L 515.423376 351.842239 
L 516.081349 330.353977 
L 516.739322 173.741222 
L 517.397295 309.919213 
L 518.055268 346.037765 
L 518.713241 358.059521 
L 519.371213 363.780896 
L 520.029186 366.664558 
L 520.687159 367.810109 
L 521.345132 367.563017 
L 522.003105 365.851202 
L 522.661078 362.121198 
L 523.31905 354.734995 
L 523.977023 337.909795 
L 524.634996 264.772892 
L 525.292969 287.850945 
L 525.950942 341.85532 
L 526.608915 356.60708 
L 527.266888 363.308748 
L 527.92486 366.696329 
L 528.582833 368.177647 
L 529.240806 368.218766 
L 529.898779 366.830542 
L 530.556752 363.578059 
L 531.214725 357.134565 
L 531.872697 343.112816 
L 533.188643 252.795527 
L 533.846616 337.137799 
L 534.504589 354.911126 
L 535.162562 362.588392 
L 535.820535 366.451043 
L 536.478507 368.23725 
L 537.13648 368.531891 
L 537.794453 367.419463 
L 538.452426 364.56008 
L 539.110399 358.856041 
L 539.768372 346.841852 
L 540.426345 310.681606 
L 541.084317 175.990978 
L 541.74229 331.839203 
L 542.400263 353.291657 
L 543.058236 362.025312 
L 543.716209 366.36972 
L 544.374182 368.447129 
L 545.032154 368.968168 
L 545.690127 368.085179 
L 546.3481 365.531934 
L 547.006073 360.369673 
L 547.664046 349.713765 
L 548.322019 320.325544 
L 548.793347 -1 
M 549.164243 -1 
L 549.637964 326.152863 
L 550.295937 351.589469 
L 550.95391 361.341559 
L 551.611883 366.127897 
L 552.269856 368.464426 
L 552.927829 369.182272 
L 553.585802 368.494547 
L 554.243774 366.195875 
L 554.901747 361.470707 
L 555.55972 351.855025 
L 556.217693 326.96228 
L 556.805544 -1 
M 556.947146 -1 
L 557.533639 319.981358 
L 558.191611 350.069023 
L 558.849584 360.871614 
L 559.507557 366.087875 
L 560.16553 368.663728 
L 560.823503 369.55258 
L 561.481476 369.023016 
L 562.139449 366.917317 
L 562.797421 362.505209 
L 563.455394 353.593598 
L 564.113367 331.435922 
L 564.77134 151.892232 
L 565.429313 314.041475 
L 566.087286 348.643218 
L 566.745258 360.353895 
L 567.403231 365.927214 
L 568.061204 368.698085 
L 568.719177 369.725047 
L 569.37715 369.322804 
L 570.035123 367.371679 
L 570.693096 363.207655 
L 571.351068 354.839854 
L 572.009041 334.654887 
L 572.667014 210.188588 
L 573.324987 308.214891 
L 573.98296 347.578567 
L 574.640933 360.14391 
L 575.298906 366.036624 
L 575.956878 368.973111 
L 576.614851 370.109202 
L 577.272824 369.798446 
L 577.930797 367.948046 
L 578.58877 363.93326 
L 579.246743 355.874209 
L 579.904715 336.741284 
L 580.562688 232.061054 
L 581.220661 304.0911 
L 581.878634 346.818382 
L 582.536607 359.936296 
L 583.19458 366.030648 
L 583.852553 369.071182 
L 584.510525 370.276449 
L 585.168498 370.024926 
L 585.826471 368.241285 
L 586.484444 364.327211 
L 587.142417 356.476853 
L 587.80039 338.03991 
L 588.458362 244.228679 
L 589.116335 301.089035 
L 589.774308 346.500642 
L 590.432281 360.028887 
L 591.090254 366.266511 
L 591.748227 369.375946 
L 592.4062 370.621398 
L 593.064172 370.397413 
L 593.722145 368.636637 
L 594.380118 364.747369 
L 595.038091 356.937111 
L 595.696064 338.616355 
L 596.354037 246.412129 
L 597.669982 346.585898 
L 598.327955 360.181785 
L 598.985928 366.440931 
L 599.643901 369.558436 
L 600.301874 370.805674 
L 600.959847 370.578831 
L 601.617819 368.809489 
L 602.275792 364.901291 
L 602.933765 357.044786 
L 603.591738 338.561706 
L 604.249711 243.964453 
L 604.907684 301.993761 
L 605.565657 347.17256 
L 606.223629 360.657706 
L 606.881602 366.871377 
L 607.539575 369.958526 
L 608.197548 371.176839 
L 608.855521 370.914201 
L 609.513494 369.091092 
L 610.171467 365.086057 
L 610.829439 357.010181 
L 611.487412 337.767021 
L 612.145385 230.953841 
L 612.803358 305.889822 
L 613.461331 348.156344 
L 614.119304 361.184802 
L 614.777276 367.229625 
L 615.435249 370.224568 
L 616.093222 371.37468 
L 616.751195 371.044776 
L 617.409168 369.134605 
L 618.067141 364.984672 
L 618.725114 356.588909 
L 619.383086 336.221239 
L 620.041059 207.266891 
L 620.699032 310.801391 
L 621.357005 349.557135 
L 622.014978 361.994304 
L 622.672951 367.81388 
L 623.330923 370.682015 
L 623.988896 371.734713 
L 624.646869 371.30469 
L 625.304842 369.260434 
L 625.962815 364.880781 
L 626.620788 355.963714 
L 627.278761 333.668963 
L 627.936733 147.783816 
L 628.594706 316.976364 
L 629.252679 351.210719 
L 629.910652 362.819049 
L 630.568625 368.318104 
L 631.226598 371.008008 
L 631.884571 371.928089 
L 632.542543 371.366862 
L 633.200516 369.151495 
L 633.858489 364.48068 
L 634.516462 354.891903 
L 635.174435 329.95293 
L 635.749825 -1 
M 635.916525 -1 
L 636.49038 323.046231 
L 637.148353 352.983483 
L 637.806326 363.71652 
L 638.464299 368.863909 
L 639.122272 371.353213 
L 639.780245 372.120463 
L 640.438218 371.404401 
L 641.09619 368.982187 
L 641.754163 363.95066 
L 642.412136 353.497646 
L 643.070109 324.838173 
L 643.425375 -1 
M 644.028686 -1 
L 644.386055 329.059481 
L 645.044027 355.013727 
L 645.702 364.841765 
L 646.359973 369.607262 
L 647.017946 371.86904 
L 647.675919 372.454277 
L 648.333892 371.544094 
L 648.991865 368.850488 
L 649.649837 363.324968 
L 650.30781 351.623659 
L 650.965783 316.854051 
L 651.623756 159.241733 
L 652.281729 335.041461 
L 652.939702 357.054995 
L 653.597675 365.885984 
L 654.255647 370.213959 
L 654.91362 372.210318 
L 655.571593 372.581369 
L 656.229566 371.441214 
L 656.887539 368.421659 
L 657.545512 362.286848 
L 658.203484 348.956431 
L 658.861457 304.647083 
L 659.51943 242.653631 
L 660.177403 340.38857 
L 660.835376 359.054147 
L 661.493349 366.938004 
L 662.151322 370.827566 
L 662.809294 372.546465 
L 663.467267 372.683889 
L 664.12524 371.281875 
L 664.783213 367.875321 
L 665.441186 360.982379 
L 666.099159 345.461702 
L 666.757132 284.48355 
L 667.415104 281.587401 
L 668.073077 345.201905 
L 668.73105 361.01126 
L 669.389023 367.997833 
L 670.046996 371.448424 
L 670.704969 372.876237 
L 671.362941 372.756644 
L 672.020914 371.052469 
L 672.678887 367.178365 
L 673.33686 359.317896 
L 673.994833 340.716177 
L 674.652806 243.888694 
L 675.310779 304.966148 
L 675.968751 349.504009 
L 676.626724 362.862984 
L 677.284697 369.000576 
L 677.94267 372.012279 
L 678.600643 373.135148 
L 679.258616 372.733361 
L 679.916588 370.681721 
L 680.574561 366.243504 
L 681.232534 357.141413 
L 681.890507 334.061557 
L 682.54848 111.784121 
L 683.206453 320.612422 
L 683.864426 353.334476 
L 684.522398 364.624855 
L 685.180371 369.97554 
L 685.838344 372.555481 
L 686.496317 373.361337 
L 687.15429 372.64908 
L 687.812263 370.193266 
L 688.470236 365.060863 
L 689.128208 354.311924 
L 689.786181 324.207119 
L 690.393684 -1 
M 690.493539 -1 
L 691.102127 331.951007 
L 691.7601 356.728943 
L 692.418073 366.255757 
L 693.076045 370.87425 
L 693.734018 373.027666 
L 694.391991 373.502139 
L 695.049964 372.446143 
L 695.707937 369.516872 
L 696.36591 363.52063 
L 697.023883 350.530351 
L 697.681855 308.299146 
L 698.339828 233.723918 
L 698.997801 340.524682 
L 699.655774 359.733121 
L 700.313747 367.76335 
L 700.97172 371.706021 
L 701.629693 373.439856 
L 702.287665 373.567102 
L 702.945638 372.127247 
L 703.603611 368.635146 
L 704.261584 361.538612 
L 704.919557 345.357019 
L 705.57753 278.063381 
L 706.235502 289.43751 
L 706.893475 347.274879 
L 707.551448 362.417651 
L 708.209421 369.167858 
L 708.867394 372.483347 
L 709.525367 373.800428 
L 710.18334 373.558125 
L 710.841312 371.680345 
L 711.499285 367.501488 
L 712.157258 358.950884 
L 712.815231 337.895131 
L 713.473204 191.160131 
L 714.131177 316.099877 
L 714.789149 352.939473 
L 715.447122 364.999508 
L 716.105095 370.635318 
L 716.763068 373.355909 
L 717.421041 374.244373 
L 718.079014 373.588174 
L 718.736987 371.177555 
L 719.394959 366.093037 
L 720.052932 355.424916 
L 720.710905 325.634911 
L 721.270937 -1 
M 721.465067 -1 
L 722.026851 332.624175 
L 722.684824 357.613467 
L 723.342797 367.178504 
L 724.000769 371.798147 
L 724.658742 373.933908 
L 725.316715 374.372112 
L 725.974688 373.25159 
L 726.632661 370.202086 
L 727.290634 363.946903 
L 727.948606 350.202861 
L 729.264552 255.757289 
L 729.922525 343.499314 
L 730.580498 361.442878 
L 731.238471 369.080975 
L 731.896444 372.821437 
L 732.554416 374.405575 
L 733.212389 374.381019 
L 733.870362 372.739811 
L 734.528335 368.910665 
L 735.186308 361.085534 
L 735.844281 342.520167 
L 736.502253 245.886216 
L 737.160226 306.847092 
L 737.818199 351.405587 
L 738.476172 364.741759 
L 739.134145 370.843106 
L 739.792118 373.802845 
L 740.450091 374.849165 
L 741.108063 374.327627 
L 741.766036 372.070953 
L 742.424009 367.229719 
L 743.081982 357.123434 
L 743.739955 329.818053 
L 743.790534 -1 
M 745.005257 -1 
L 745.055901 330.275898 
L 745.713873 357.398973 
L 746.371846 367.461283 
L 747.029819 372.281436 
L 747.687792 374.522434 
L 748.345765 375.027292 
L 749.003738 373.957932 
L 749.66171 370.959245 
L 750.319683 364.776741 
L 750.977656 351.205765 
L 752.293602 252.91794 
L 752.951575 344.011844 
L 753.609548 362.186686 
L 754.26752 369.882197 
L 754.925493 373.635302 
L 755.583466 375.209657 
L 756.241439 375.154808 
L 756.899412 373.45303 
L 757.557385 369.501751 
L 758.215358 361.386085 
L 758.87333 341.788341 
L 759.531303 227.464144 
L 760.189276 312.636082 
L 760.847249 353.442206 
L 761.505222 366.166122 
L 762.163195 372.026974 
L 762.821167 374.839731 
L 763.47914 375.758296 
L 764.137113 375.08719 
L 764.795086 372.606869 
L 765.453059 367.345258 
L 766.111032 356.173625 
L 766.769005 323.852647 
L 767.426977 103.22608 
L 768.08495 337.125541 
L 768.742923 360.372784 
L 769.400896 369.472067 
L 770.058869 373.856604 
L 770.716842 375.812138 
L 771.374814 376.058424 
L 772.032787 374.675097 
L 772.69076 371.182941 
L 773.348733 363.992124 
L 774.006706 347.393522 
L 774.664679 275.436333 
L 775.322652 296.137387 
L 775.980624 350.681132 
L 776.638597 365.382649 
L 777.29657 371.942025 
L 777.954543 375.112736 
L 778.612516 376.272739 
L 779.270489 375.816665 
L 779.928462 373.595445 
L 780.586434 368.762108 
L 781.244407 358.61345 
L 781.90238 331.023 
L 782.048139 -1 
M 783.072122 -1 
L 783.218326 332.327616 
L 783.876299 359.129331 
L 784.534271 369.09422 
L 785.192244 373.847571 
L 785.850217 376.018326 
L 786.50819 376.430091 
L 787.166163 375.21741 
L 787.824136 371.964478 
L 788.482109 365.237565 
L 789.140081 350.034379 
L 789.798054 291.334625 
L 790.456027 282.762509 
L 791.114 348.879455 
L 791.771973 364.896044 
L 792.429946 371.890999 
L 793.087918 375.276518 
L 793.745891 376.576431 
L 794.403864 376.24038 
L 795.061837 374.158347 
L 795.71981 369.546832 
L 796.377783 359.906158 
L 797.035756 334.456431 
L 797.494207 -1 
M 797.895351 -1 
L 798.351701 329.437409 
L 799.009674 358.555033 
L 799.667647 369.037465 
L 800.32562 374.001135 
L 800.32562 374.001135 
" clip-path="url(#pc5c92977c5)" style="fill: none; stroke: #000000; stroke-width: 3; stroke-linecap: square"/>
   </g>
   <g id="patch_3">
    <path d="M 110.145 489.2325 
L 110.145 35.735588 
" style="fill: none; stroke: #000000; stroke-width: 2; stroke-linejoin: miter; stroke-linecap: square"/>
   </g>
   <g id="patch_4">
    <path d="M 833.191364 489.2325 
L 833.191364 35.735588 
" style="fill: none; stroke: #000000; stroke-width: 2; stroke-linejoin: miter; stroke-linecap: square"/>
   </g>
   <g id="patch_5">
    <path d="M 110.145 489.2325 
L 833.191364 489.2325 
" style="fill: none; stroke: #000000; stroke-width: 2; stroke-linejoin: miter; stroke-linecap: square"/>
   </g>
   <g id="patch_6">
    <path d="M 110.145 35.735588 
L 833.191364 35.735588 
" style="fill: none; stroke: #000000; stroke-width: 2; stroke-linejoin: miter; stroke-linecap: square"/>
   </g>
   <g id="legend_1">
    <g id="patch_7">
     <path d="M 121.345 118.990588 
L 259.8425 118.990588 
Q 263.0425 118.990588 263.0425 115.790588 
L 263.0425 46.935588 
Q 263.0425 43.735588 259.8425 43.735588 
L 121.345 43.735588 
Q 118.145 43.735588 118.145 46.935588 
L 118.145 115.790588 
Q 118.145 118.990588 121.345 118.990588 
z
" style="fill: #ffffff; opacity: 0.8; stroke: #cccccc; stroke-linejoin: miter"/>
    </g>
    <g id="line2d_46">
     <path d="M 124.545 56.693088 
L 140.545 56.693088 
L 156.545 56.693088 
" style="fill: none; stroke: #1f77b4; stroke-width: 3; stroke-linecap: square"/>
    </g>
    <g id="text_17">
     <!-- Electron 1 -->
     <g transform="translate(169.345 62.293088) scale(0.16 -0.16)">
      <defs>
       <path id="DejaVuSerif-45" d="M 353 0 
L 353 331 
L 947 331 
L 947 4331 
L 353 4331 
L 353 4666 
L 4109 4666 
L 4109 3628 
L 3725 3628 
L 3725 4281 
L 1581 4281 
L 1581 2719 
L 3109 2719 
L 3109 3303 
L 3494 3303 
L 3494 1753 
L 3109 1753 
L 3109 2338 
L 1581 2338 
L 1581 384 
L 3775 384 
L 3775 1038 
L 4159 1038 
L 4159 0 
L 353 0 
z
" transform="scale(0.015625)"/>
       <path id="DejaVuSerif-6f" d="M 1925 219 
Q 2388 219 2623 584 
Q 2859 950 2859 1663 
Q 2859 2375 2623 2739 
Q 2388 3103 1925 3103 
Q 1463 3103 1227 2739 
Q 991 2375 991 1663 
Q 991 950 1228 584 
Q 1466 219 1925 219 
z
M 1925 -91 
Q 1200 -91 759 389 
Q 319 869 319 1663 
Q 319 2456 758 2934 
Q 1197 3413 1925 3413 
Q 2653 3413 3092 2934 
Q 3531 2456 3531 1663 
Q 3531 869 3092 389 
Q 2653 -91 1925 -91 
z
" transform="scale(0.015625)"/>
      </defs>
      <use xlink:href="#DejaVuSerif-45"/>
      <use xlink:href="#DejaVuSerif-6c" x="72.998047"/>
      <use xlink:href="#DejaVuSerif-65" x="104.980469"/>
      <use xlink:href="#DejaVuSerif-63" x="164.160156"/>
      <use xlink:href="#DejaVuSerif-74" x="220.166016"/>
      <use xlink:href="#DejaVuSerif-72" x="260.351562"/>
      <use xlink:href="#DejaVuSerif-6f" x="308.154297"/>
      <use xlink:href="#DejaVuSerif-6e" x="368.359375"/>
      <use xlink:href="#DejaVuSerif-20" x="432.763672"/>
      <use xlink:href="#DejaVuSerif-31" x="464.550781"/>
     </g>
    </g>
    <g id="line2d_47">
     <path d="M 124.545 80.178088 
L 140.545 80.178088 
L 156.545 80.178088 
" style="fill: none; stroke: #ff7f0e; stroke-width: 3; stroke-linecap: square"/>
    </g>
    <g id="text_18">
     <!-- Electron 2 -->
     <g transform="translate(169.345 85.778088) scale(0.16 -0.16)">
      <use xlink:href="#DejaVuSerif-45"/>
      <use xlink:href="#DejaVuSerif-6c" x="72.998047"/>
      <use xlink:href="#DejaVuSerif-65" x="104.980469"/>
      <use xlink:href="#DejaVuSerif-63" x="164.160156"/>
      <use xlink:href="#DejaVuSerif-74" x="220.166016"/>
      <use xlink:href="#DejaVuSerif-72" x="260.351562"/>
      <use xlink:href="#DejaVuSerif-6f" x="308.154297"/>
      <use xlink:href="#DejaVuSerif-6e" x="368.359375"/>
      <use xlink:href="#DejaVuSerif-20" x="432.763672"/>
      <use xlink:href="#DejaVuSerif-32" x="464.550781"/>
     </g>
    </g>
    <g id="line2d_48">
     <path d="M 124.545 103.663088 
L 140.545 103.663088 
L 156.545 103.663088 
" style="fill: none; stroke: #000000; stroke-width: 3; stroke-linecap: square"/>
    </g>
    <g id="text_19">
     <!-- Antiproton -->
     <g transform="translate(169.345 109.263088) scale(0.16 -0.16)">
      <defs>
       <path id="DejaVuSerif-41" d="M 1281 1691 
L 2994 1691 
L 2138 3909 
L 1281 1691 
z
M -38 0 
L -38 331 
L 372 331 
L 2034 4666 
L 2559 4666 
L 4225 331 
L 4684 331 
L 4684 0 
L 2988 0 
L 2988 331 
L 3506 331 
L 3116 1356 
L 1153 1356 
L 763 331 
L 1275 331 
L 1275 0 
L -38 0 
z
" transform="scale(0.015625)"/>
       <path id="DejaVuSerif-70" d="M 1313 1825 
L 1313 1497 
Q 1313 897 1542 583 
Q 1772 269 2209 269 
Q 2650 269 2876 622 
Q 3103 975 3103 1663 
Q 3103 2353 2876 2703 
Q 2650 3053 2209 3053 
Q 1772 3053 1542 2737 
Q 1313 2422 1313 1825 
z
M 738 2988 
L 184 2988 
L 184 3322 
L 1313 3322 
L 1313 2803 
Q 1481 3116 1742 3264 
Q 2003 3413 2388 3413 
Q 3000 3413 3387 2928 
Q 3775 2444 3775 1663 
Q 3775 881 3387 395 
Q 3000 -91 2388 -91 
Q 2003 -91 1742 57 
Q 1481 206 1313 519 
L 1313 -997 
L 1856 -997 
L 1856 -1331 
L 184 -1331 
L 184 -997 
L 738 -997 
L 738 2988 
z
" transform="scale(0.015625)"/>
      </defs>
      <use xlink:href="#DejaVuSerif-41"/>
      <use xlink:href="#DejaVuSerif-6e" x="72.216797"/>
      <use xlink:href="#DejaVuSerif-74" x="136.621094"/>
      <use xlink:href="#DejaVuSerif-69" x="176.806641"/>
      <use xlink:href="#DejaVuSerif-70" x="208.789062"/>
      <use xlink:href="#DejaVuSerif-72" x="272.802734"/>
      <use xlink:href="#DejaVuSerif-6f" x="320.605469"/>
      <use xlink:href="#DejaVuSerif-74" x="380.810547"/>
      <use xlink:href="#DejaVuSerif-6f" x="420.996094"/>
      <use xlink:href="#DejaVuSerif-6e" x="481.201172"/>
     </g>
    </g>
   </g>
  </g>
 </g>
 <defs>
  <clipPath id="pc5c92977c5">
   <rect x="110.145" y="35.735588" width="723.046364" height="453.496912"/>
  </clipPath>
 </defs>
</svg>
