<?xml version="1.0" encoding="utf-8" standalone="no"?>
<!DOCTYPE svg PUBLIC "-//W3C//DTD SVG 1.1//EN"
  "http://www.w3.org/Graphics/SVG/1.1/DTD/svg11.dtd">
<svg xmlns:xlink="http://www.w3.org/1999/xlink" width="864pt" height="576pt" viewBox="0 0 864 576" xmlns="http://www.w3.org/2000/svg" version="1.1">
 <metadata>
  <rdf:RDF xmlns:dc="http://purl.org/dc/elements/1.1/" xmlns:cc="http://creativecommons.org/ns#" xmlns:rdf="http://www.w3.org/1999/02/22-rdf-syntax-ns#">
   <cc:Work>
    <dc:type rdf:resource="http://purl.org/dc/dcmitype/StillImage"/>
    <dc:date>2025-06-10T14:06:09.085869</dc:date>
    <dc:format>image/svg+xml</dc:format>
    <dc:creator>
     <cc:Agent>
      <dc:title>Matplotlib v3.7.2, https://matplotlib.org/</dc:title>
     </cc:Agent>
    </dc:creator>
   </cc:Work>
  </rdf:RDF>
 </metadata>
 <defs>
  <style type="text/css">*{stroke-linejoin: round; stroke-linecap: butt}</style>
 </defs>
 <g id="figure_1">
  <g id="patch_1">
   <path d="M 0 576 
L 864 576 
L 864 0 
L 0 0 
z
" style="fill: #ffffff"/>
  </g>
  <g id="axes_1">
   <g id="patch_2">
    <path d="M 114.16 489.2325 
L 833.191364 489.2325 
L 833.191364 28.08 
L 114.16 28.08 
z
" style="fill: #ffffff"/>
   </g>
   <g id="matplotlib.axis_1">
    <g id="xtick_1">
     <g id="line2d_1">
      <path d="M 146.843244 489.2325 
L 146.843244 28.08 
" clip-path="url(#pc2005f7d68)" style="fill: none; stroke-dasharray: 3.7,1.6; stroke-dashoffset: 0; stroke: #b0b0b0; stroke-opacity: 0.5"/>
     </g>
     <g id="line2d_2">
      <defs>
       <path id="m3f0ad40e67" d="M 0 0 
L 0 -10 
" style="stroke: #000000; stroke-width: 2"/>
      </defs>
      <g>
       <use xlink:href="#m3f0ad40e67" x="146.843244" y="489.2325" style="stroke: #000000; stroke-width: 2"/>
      </g>
     </g>
     <g id="line2d_3">
      <defs>
       <path id="md61866bc1e" d="M 0 0 
L 0 10 
" style="stroke: #000000; stroke-width: 2"/>
      </defs>
      <g>
       <use xlink:href="#md61866bc1e" x="146.843244" y="28.08" style="stroke: #000000; stroke-width: 2"/>
      </g>
     </g>
     <g id="text_1">
      <!-- 0 -->
      <g transform="translate(138.571994 512.488438) scale(0.26 -0.26)">
       <defs>
        <path id="DejaVuSerif-30" d="M 2034 219 
Q 2513 219 2750 744 
Q 2988 1269 2988 2328 
Q 2988 3391 2750 3916 
Q 2513 4441 2034 4441 
Q 1556 4441 1318 3916 
Q 1081 3391 1081 2328 
Q 1081 1269 1318 744 
Q 1556 219 2034 219 
z
M 2034 -91 
Q 1275 -91 848 546 
Q 422 1184 422 2328 
Q 422 3475 848 4112 
Q 1275 4750 2034 4750 
Q 2797 4750 3222 4112 
Q 3647 3475 3647 2328 
Q 3647 1184 3222 546 
Q 2797 -91 2034 -91 
z
" transform="scale(0.015625)"/>
       </defs>
       <use xlink:href="#DejaVuSerif-30"/>
      </g>
     </g>
    </g>
    <g id="xtick_2">
     <g id="line2d_4">
      <path d="M 277.576219 489.2325 
L 277.576219 28.08 
" clip-path="url(#pc2005f7d68)" style="fill: none; stroke-dasharray: 3.7,1.6; stroke-dashoffset: 0; stroke: #b0b0b0; stroke-opacity: 0.5"/>
     </g>
     <g id="line2d_5">
      <g>
       <use xlink:href="#m3f0ad40e67" x="277.576219" y="489.2325" style="stroke: #000000; stroke-width: 2"/>
      </g>
     </g>
     <g id="line2d_6">
      <g>
       <use xlink:href="#md61866bc1e" x="277.576219" y="28.08" style="stroke: #000000; stroke-width: 2"/>
      </g>
     </g>
     <g id="text_2">
      <!-- 500 -->
      <g transform="translate(252.762469 512.488438) scale(0.26 -0.26)">
       <defs>
        <path id="DejaVuSerif-35" d="M 3219 4666 
L 3219 4153 
L 1081 4153 
L 1081 2816 
Q 1244 2928 1461 2984 
Q 1678 3041 1947 3041 
Q 2703 3041 3140 2622 
Q 3578 2203 3578 1478 
Q 3578 738 3136 323 
Q 2694 -91 1894 -91 
Q 1572 -91 1234 -12 
Q 897 66 544 225 
L 544 1131 
L 897 1131 
Q 925 688 1179 453 
Q 1434 219 1894 219 
Q 2388 219 2653 544 
Q 2919 869 2919 1478 
Q 2919 2084 2655 2407 
Q 2391 2731 1894 2731 
Q 1613 2731 1398 2631 
Q 1184 2531 1019 2322 
L 750 2322 
L 750 4666 
L 3219 4666 
z
" transform="scale(0.015625)"/>
       </defs>
       <use xlink:href="#DejaVuSerif-35"/>
       <use xlink:href="#DejaVuSerif-30" x="63.623047"/>
       <use xlink:href="#DejaVuSerif-30" x="127.246094"/>
      </g>
     </g>
    </g>
    <g id="xtick_3">
     <g id="line2d_7">
      <path d="M 408.309194 489.2325 
L 408.309194 28.08 
" clip-path="url(#pc2005f7d68)" style="fill: none; stroke-dasharray: 3.7,1.6; stroke-dashoffset: 0; stroke: #b0b0b0; stroke-opacity: 0.5"/>
     </g>
     <g id="line2d_8">
      <g>
       <use xlink:href="#m3f0ad40e67" x="408.309194" y="489.2325" style="stroke: #000000; stroke-width: 2"/>
      </g>
     </g>
     <g id="line2d_9">
      <g>
       <use xlink:href="#md61866bc1e" x="408.309194" y="28.08" style="stroke: #000000; stroke-width: 2"/>
      </g>
     </g>
     <g id="text_3">
      <!-- 1000 -->
      <g transform="translate(375.224194 512.488438) scale(0.26 -0.26)">
       <defs>
        <path id="DejaVuSerif-31" d="M 909 0 
L 909 331 
L 1722 331 
L 1722 4213 
L 781 3603 
L 781 4013 
L 1919 4750 
L 2350 4750 
L 2350 331 
L 3163 331 
L 3163 0 
L 909 0 
z
" transform="scale(0.015625)"/>
       </defs>
       <use xlink:href="#DejaVuSerif-31"/>
       <use xlink:href="#DejaVuSerif-30" x="63.623047"/>
       <use xlink:href="#DejaVuSerif-30" x="127.246094"/>
       <use xlink:href="#DejaVuSerif-30" x="190.869141"/>
      </g>
     </g>
    </g>
    <g id="xtick_4">
     <g id="line2d_10">
      <path d="M 539.042169 489.2325 
L 539.042169 28.08 
" clip-path="url(#pc2005f7d68)" style="fill: none; stroke-dasharray: 3.7,1.6; stroke-dashoffset: 0; stroke: #b0b0b0; stroke-opacity: 0.5"/>
     </g>
     <g id="line2d_11">
      <g>
       <use xlink:href="#m3f0ad40e67" x="539.042169" y="489.2325" style="stroke: #000000; stroke-width: 2"/>
      </g>
     </g>
     <g id="line2d_12">
      <g>
       <use xlink:href="#md61866bc1e" x="539.042169" y="28.08" style="stroke: #000000; stroke-width: 2"/>
      </g>
     </g>
     <g id="text_4">
      <!-- 1500 -->
      <g transform="translate(505.957169 512.488438) scale(0.26 -0.26)">
       <use xlink:href="#DejaVuSerif-31"/>
       <use xlink:href="#DejaVuSerif-35" x="63.623047"/>
       <use xlink:href="#DejaVuSerif-30" x="127.246094"/>
       <use xlink:href="#DejaVuSerif-30" x="190.869141"/>
      </g>
     </g>
    </g>
    <g id="xtick_5">
     <g id="line2d_13">
      <path d="M 669.775145 489.2325 
L 669.775145 28.08 
" clip-path="url(#pc2005f7d68)" style="fill: none; stroke-dasharray: 3.7,1.6; stroke-dashoffset: 0; stroke: #b0b0b0; stroke-opacity: 0.5"/>
     </g>
     <g id="line2d_14">
      <g>
       <use xlink:href="#m3f0ad40e67" x="669.775145" y="489.2325" style="stroke: #000000; stroke-width: 2"/>
      </g>
     </g>
     <g id="line2d_15">
      <g>
       <use xlink:href="#md61866bc1e" x="669.775145" y="28.08" style="stroke: #000000; stroke-width: 2"/>
      </g>
     </g>
     <g id="text_5">
      <!-- 2000 -->
      <g transform="translate(636.690145 512.488438) scale(0.26 -0.26)">
       <defs>
        <path id="DejaVuSerif-32" d="M 819 3553 
L 469 3553 
L 469 4384 
Q 803 4563 1142 4656 
Q 1481 4750 1806 4750 
Q 2534 4750 2956 4397 
Q 3378 4044 3378 3438 
Q 3378 2753 2422 1800 
Q 2347 1728 2309 1691 
L 1131 513 
L 3078 513 
L 3078 1088 
L 3444 1088 
L 3444 0 
L 434 0 
L 434 341 
L 1850 1753 
Q 2319 2222 2519 2614 
Q 2719 3006 2719 3438 
Q 2719 3909 2473 4175 
Q 2228 4441 1797 4441 
Q 1350 4441 1106 4219 
Q 863 3997 819 3553 
z
" transform="scale(0.015625)"/>
       </defs>
       <use xlink:href="#DejaVuSerif-32"/>
       <use xlink:href="#DejaVuSerif-30" x="63.623047"/>
       <use xlink:href="#DejaVuSerif-30" x="127.246094"/>
       <use xlink:href="#DejaVuSerif-30" x="190.869141"/>
      </g>
     </g>
    </g>
    <g id="xtick_6">
     <g id="line2d_16">
      <path d="M 800.50812 489.2325 
L 800.50812 28.08 
" clip-path="url(#pc2005f7d68)" style="fill: none; stroke-dasharray: 3.7,1.6; stroke-dashoffset: 0; stroke: #b0b0b0; stroke-opacity: 0.5"/>
     </g>
     <g id="line2d_17">
      <g>
       <use xlink:href="#m3f0ad40e67" x="800.50812" y="489.2325" style="stroke: #000000; stroke-width: 2"/>
      </g>
     </g>
     <g id="line2d_18">
      <g>
       <use xlink:href="#md61866bc1e" x="800.50812" y="28.08" style="stroke: #000000; stroke-width: 2"/>
      </g>
     </g>
     <g id="text_6">
      <!-- 2500 -->
      <g transform="translate(767.42312 512.488438) scale(0.26 -0.26)">
       <use xlink:href="#DejaVuSerif-32"/>
       <use xlink:href="#DejaVuSerif-35" x="63.623047"/>
       <use xlink:href="#DejaVuSerif-30" x="127.246094"/>
       <use xlink:href="#DejaVuSerif-30" x="190.869141"/>
      </g>
     </g>
    </g>
    <g id="text_7">
     <!-- $t$ (a.u.) -->
     <g transform="translate(430.255682 541.651562) scale(0.26 -0.26)">
      <defs>
       <path id="Cmmi10-74" d="M 397 519 
Q 397 613 416 697 
L 878 2534 
L 206 2534 
Q 141 2534 141 2619 
Q 166 2759 225 2759 
L 934 2759 
L 1191 3803 
Q 1216 3888 1291 3947 
Q 1366 4006 1459 4006 
Q 1541 4006 1595 3957 
Q 1650 3909 1650 3828 
Q 1650 3809 1648 3798 
Q 1647 3788 1644 3775 
L 1388 2759 
L 2047 2759 
Q 2113 2759 2113 2675 
Q 2109 2659 2100 2621 
Q 2091 2584 2075 2559 
Q 2059 2534 2028 2534 
L 1331 2534 
L 872 684 
Q 825 503 825 372 
Q 825 97 1013 97 
Q 1294 97 1511 361 
Q 1728 625 1844 941 
Q 1869 978 1894 978 
L 1972 978 
Q 1997 978 2012 961 
Q 2028 944 2028 922 
Q 2028 909 2022 903 
Q 1881 516 1612 222 
Q 1344 -72 997 -72 
Q 744 -72 570 93 
Q 397 259 397 519 
z
" transform="scale(0.015625)"/>
       <path id="DejaVuSerif-20" transform="scale(0.015625)"/>
       <path id="DejaVuSerif-28" d="M 2041 -997 
Q 1281 -656 893 83 
Q 506 822 506 1931 
Q 506 3044 893 3783 
Q 1281 4522 2041 4863 
L 2041 4556 
Q 1559 4225 1350 3623 
Q 1141 3022 1141 1931 
Q 1141 844 1350 242 
Q 1559 -359 2041 -691 
L 2041 -997 
z
" transform="scale(0.015625)"/>
       <path id="DejaVuSerif-61" d="M 2547 1044 
L 2547 1747 
L 1806 1747 
Q 1378 1747 1168 1562 
Q 959 1378 959 997 
Q 959 650 1171 447 
Q 1384 244 1747 244 
Q 2106 244 2326 466 
Q 2547 688 2547 1044 
z
M 3122 2075 
L 3122 331 
L 3634 331 
L 3634 0 
L 2547 0 
L 2547 359 
Q 2356 128 2106 18 
Q 1856 -91 1522 -91 
Q 969 -91 644 203 
Q 319 497 319 997 
Q 319 1513 691 1797 
Q 1063 2081 1741 2081 
L 2547 2081 
L 2547 2309 
Q 2547 2688 2317 2895 
Q 2088 3103 1672 3103 
Q 1328 3103 1125 2947 
Q 922 2791 872 2484 
L 575 2484 
L 575 3156 
Q 875 3284 1158 3348 
Q 1441 3413 1709 3413 
Q 2400 3413 2761 3070 
Q 3122 2728 3122 2075 
z
" transform="scale(0.015625)"/>
       <path id="DejaVuSerif-2e" d="M 603 325 
Q 603 500 722 622 
Q 841 744 1019 744 
Q 1191 744 1312 622 
Q 1434 500 1434 325 
Q 1434 153 1312 31 
Q 1191 -91 1019 -91 
Q 841 -91 722 29 
Q 603 150 603 325 
z
" transform="scale(0.015625)"/>
       <path id="DejaVuSerif-75" d="M 2266 3322 
L 3341 3322 
L 3341 331 
L 3884 331 
L 3884 0 
L 2766 0 
L 2766 588 
Q 2606 256 2353 82 
Q 2100 -91 1766 -91 
Q 1213 -91 952 223 
Q 691 538 691 1209 
L 691 2988 
L 172 2988 
L 172 3322 
L 1269 3322 
L 1269 1388 
Q 1269 781 1417 556 
Q 1566 331 1947 331 
Q 2347 331 2556 625 
Q 2766 919 2766 1478 
L 2766 2988 
L 2266 2988 
L 2266 3322 
z
" transform="scale(0.015625)"/>
       <path id="DejaVuSerif-29" d="M 453 -997 
L 453 -691 
Q 934 -359 1145 242 
Q 1356 844 1356 1931 
Q 1356 3022 1145 3623 
Q 934 4225 453 4556 
L 453 4863 
Q 1216 4522 1603 3783 
Q 1991 3044 1991 1931 
Q 1991 822 1603 83 
Q 1216 -656 453 -997 
z
" transform="scale(0.015625)"/>
      </defs>
      <use xlink:href="#Cmmi10-74" transform="translate(0 0.015625)"/>
      <use xlink:href="#DejaVuSerif-20" transform="translate(36.083984 0.015625)"/>
      <use xlink:href="#DejaVuSerif-28" transform="translate(67.871094 0.015625)"/>
      <use xlink:href="#DejaVuSerif-61" transform="translate(106.884766 0.015625)"/>
      <use xlink:href="#DejaVuSerif-2e" transform="translate(166.503906 0.015625)"/>
      <use xlink:href="#DejaVuSerif-75" transform="translate(198.291016 0.015625)"/>
      <use xlink:href="#DejaVuSerif-2e" transform="translate(262.695312 0.015625)"/>
      <use xlink:href="#DejaVuSerif-29" transform="translate(294.482422 0.015625)"/>
     </g>
    </g>
   </g>
   <g id="matplotlib.axis_2">
    <g id="ytick_1">
     <g id="line2d_19">
      <path d="M 114.16 407.774707 
L 833.191364 407.774707 
" clip-path="url(#pc2005f7d68)" style="fill: none; stroke-dasharray: 3.7,1.6; stroke-dashoffset: 0; stroke: #b0b0b0; stroke-opacity: 0.5"/>
     </g>
     <g id="line2d_20">
      <defs>
       <path id="m7ac48f4dbc" d="M 0 0 
L 10 0 
" style="stroke: #000000; stroke-width: 2"/>
      </defs>
      <g>
       <use xlink:href="#m7ac48f4dbc" x="114.16" y="407.774707" style="stroke: #000000; stroke-width: 2"/>
      </g>
     </g>
     <g id="line2d_21">
      <defs>
       <path id="mf0f70348b6" d="M 0 0 
L -10 0 
" style="stroke: #000000; stroke-width: 2"/>
      </defs>
      <g>
       <use xlink:href="#mf0f70348b6" x="833.191364" y="407.774707" style="stroke: #000000; stroke-width: 2"/>
      </g>
     </g>
     <g id="text_8">
      <!-- 2 -->
      <g transform="translate(94.1175 417.652676) scale(0.26 -0.26)">
       <use xlink:href="#DejaVuSerif-32"/>
      </g>
     </g>
    </g>
    <g id="ytick_2">
     <g id="line2d_22">
      <path d="M 114.16 323.398637 
L 833.191364 323.398637 
" clip-path="url(#pc2005f7d68)" style="fill: none; stroke-dasharray: 3.7,1.6; stroke-dashoffset: 0; stroke: #b0b0b0; stroke-opacity: 0.5"/>
     </g>
     <g id="line2d_23">
      <g>
       <use xlink:href="#m7ac48f4dbc" x="114.16" y="323.398637" style="stroke: #000000; stroke-width: 2"/>
      </g>
     </g>
     <g id="line2d_24">
      <g>
       <use xlink:href="#mf0f70348b6" x="833.191364" y="323.398637" style="stroke: #000000; stroke-width: 2"/>
      </g>
     </g>
     <g id="text_9">
      <!-- 4 -->
      <g transform="translate(94.1175 333.276605) scale(0.26 -0.26)">
       <defs>
        <path id="DejaVuSerif-34" d="M 2234 1581 
L 2234 4063 
L 641 1581 
L 2234 1581 
z
M 3609 0 
L 1484 0 
L 1484 331 
L 2234 331 
L 2234 1247 
L 197 1247 
L 197 1588 
L 2241 4750 
L 2859 4750 
L 2859 1581 
L 3750 1581 
L 3750 1247 
L 2859 1247 
L 2859 331 
L 3609 331 
L 3609 0 
z
" transform="scale(0.015625)"/>
       </defs>
       <use xlink:href="#DejaVuSerif-34"/>
      </g>
     </g>
    </g>
    <g id="ytick_3">
     <g id="line2d_25">
      <path d="M 114.16 239.022566 
L 833.191364 239.022566 
" clip-path="url(#pc2005f7d68)" style="fill: none; stroke-dasharray: 3.7,1.6; stroke-dashoffset: 0; stroke: #b0b0b0; stroke-opacity: 0.5"/>
     </g>
     <g id="line2d_26">
      <g>
       <use xlink:href="#m7ac48f4dbc" x="114.16" y="239.022566" style="stroke: #000000; stroke-width: 2"/>
      </g>
     </g>
     <g id="line2d_27">
      <g>
       <use xlink:href="#mf0f70348b6" x="833.191364" y="239.022566" style="stroke: #000000; stroke-width: 2"/>
      </g>
     </g>
     <g id="text_10">
      <!-- 6 -->
      <g transform="translate(94.1175 248.900534) scale(0.26 -0.26)">
       <defs>
        <path id="DejaVuSerif-36" d="M 2094 219 
Q 2534 219 2771 542 
Q 3009 866 3009 1472 
Q 3009 2078 2771 2401 
Q 2534 2725 2094 2725 
Q 1647 2725 1412 2412 
Q 1178 2100 1178 1509 
Q 1178 888 1415 553 
Q 1653 219 2094 219 
z
M 1075 2569 
Q 1288 2803 1556 2918 
Q 1825 3034 2163 3034 
Q 2859 3034 3264 2615 
Q 3669 2197 3669 1472 
Q 3669 763 3233 336 
Q 2797 -91 2069 -91 
Q 1278 -91 853 498 
Q 428 1088 428 2181 
Q 428 3406 931 4078 
Q 1434 4750 2350 4750 
Q 2597 4750 2869 4703 
Q 3141 4656 3425 4563 
L 3425 3794 
L 3072 3794 
Q 3034 4109 2831 4275 
Q 2628 4441 2284 4441 
Q 1678 4441 1381 3981 
Q 1084 3522 1075 2569 
z
" transform="scale(0.015625)"/>
       </defs>
       <use xlink:href="#DejaVuSerif-36"/>
      </g>
     </g>
    </g>
    <g id="ytick_4">
     <g id="line2d_28">
      <path d="M 114.16 154.646495 
L 833.191364 154.646495 
" clip-path="url(#pc2005f7d68)" style="fill: none; stroke-dasharray: 3.7,1.6; stroke-dashoffset: 0; stroke: #b0b0b0; stroke-opacity: 0.5"/>
     </g>
     <g id="line2d_29">
      <g>
       <use xlink:href="#m7ac48f4dbc" x="114.16" y="154.646495" style="stroke: #000000; stroke-width: 2"/>
      </g>
     </g>
     <g id="line2d_30">
      <g>
       <use xlink:href="#mf0f70348b6" x="833.191364" y="154.646495" style="stroke: #000000; stroke-width: 2"/>
      </g>
     </g>
     <g id="text_11">
      <!-- 8 -->
      <g transform="translate(94.1175 164.524464) scale(0.26 -0.26)">
       <defs>
        <path id="DejaVuSerif-38" d="M 2981 1275 
Q 2981 1775 2732 2051 
Q 2484 2328 2034 2328 
Q 1584 2328 1336 2051 
Q 1088 1775 1088 1275 
Q 1088 772 1336 495 
Q 1584 219 2034 219 
Q 2484 219 2732 495 
Q 2981 772 2981 1275 
z
M 2853 3541 
Q 2853 3966 2637 4203 
Q 2422 4441 2034 4441 
Q 1650 4441 1433 4203 
Q 1216 3966 1216 3541 
Q 1216 3113 1433 2875 
Q 1650 2638 2034 2638 
Q 2422 2638 2637 2875 
Q 2853 3113 2853 3541 
z
M 2516 2484 
Q 3047 2413 3344 2092 
Q 3641 1772 3641 1275 
Q 3641 619 3225 264 
Q 2809 -91 2034 -91 
Q 1263 -91 845 264 
Q 428 619 428 1275 
Q 428 1772 725 2092 
Q 1022 2413 1556 2484 
Q 1084 2569 832 2842 
Q 581 3116 581 3541 
Q 581 4103 968 4426 
Q 1356 4750 2034 4750 
Q 2713 4750 3100 4426 
Q 3488 4103 3488 3541 
Q 3488 3116 3236 2842 
Q 2984 2569 2516 2484 
z
" transform="scale(0.015625)"/>
       </defs>
       <use xlink:href="#DejaVuSerif-38"/>
      </g>
     </g>
    </g>
    <g id="ytick_5">
     <g id="line2d_31">
      <path d="M 114.16 70.270424 
L 833.191364 70.270424 
" clip-path="url(#pc2005f7d68)" style="fill: none; stroke-dasharray: 3.7,1.6; stroke-dashoffset: 0; stroke: #b0b0b0; stroke-opacity: 0.5"/>
     </g>
     <g id="line2d_32">
      <g>
       <use xlink:href="#m7ac48f4dbc" x="114.16" y="70.270424" style="stroke: #000000; stroke-width: 2"/>
      </g>
     </g>
     <g id="line2d_33">
      <g>
       <use xlink:href="#mf0f70348b6" x="833.191364" y="70.270424" style="stroke: #000000; stroke-width: 2"/>
      </g>
     </g>
     <g id="text_12">
      <!-- 10 -->
      <g transform="translate(77.575 80.148393) scale(0.26 -0.26)">
       <use xlink:href="#DejaVuSerif-31"/>
       <use xlink:href="#DejaVuSerif-30" x="63.623047"/>
      </g>
     </g>
    </g>
    <g id="text_13">
     <!-- $|\vec{r}_i|$ (a.u.) -->
     <g transform="translate(67.075 314.94625) rotate(-90) scale(0.26 -0.26)">
      <defs>
       <path id="Cmsy10-6a" d="M 763 -1484 
L 763 4684 
Q 763 4734 800 4767 
Q 838 4800 891 4800 
Q 938 4800 978 4767 
Q 1019 4734 1019 4684 
L 1019 -1484 
Q 1019 -1534 978 -1567 
Q 938 -1600 891 -1600 
Q 838 -1600 800 -1567 
Q 763 -1534 763 -1484 
z
" transform="scale(0.015625)"/>
       <path id="Cmmi10-7e" d="M 1281 3809 
Q 1231 3809 1198 3846 
Q 1166 3884 1166 3938 
Q 1166 3984 1198 4023 
Q 1231 4063 1281 4063 
L 3547 4063 
Q 3378 4291 3378 4441 
Q 3378 4497 3417 4533 
Q 3456 4569 3506 4569 
Q 3613 4569 3634 4469 
Q 3697 4194 3938 4044 
Q 4000 4003 4000 3938 
Q 4000 3859 3938 3828 
Q 3575 3647 3353 3347 
Q 3328 3303 3256 3303 
Q 3209 3303 3168 3340 
Q 3128 3378 3128 3431 
Q 3128 3547 3438 3809 
L 1281 3809 
z
" transform="scale(0.015625)"/>
       <path id="Cmmi10-72" d="M 494 109 
Q 494 147 500 166 
L 978 2075 
Q 1025 2253 1025 2388 
Q 1025 2663 838 2663 
Q 638 2663 541 2423 
Q 444 2184 353 1819 
Q 353 1800 334 1789 
Q 316 1778 300 1778 
L 225 1778 
Q 203 1778 187 1801 
Q 172 1825 172 1844 
Q 241 2122 305 2315 
Q 369 2509 505 2668 
Q 641 2828 844 2828 
Q 1066 2828 1233 2700 
Q 1400 2572 1441 2363 
Q 1603 2575 1811 2701 
Q 2019 2828 2266 2828 
Q 2469 2828 2623 2709 
Q 2778 2591 2778 2388 
Q 2778 2225 2676 2104 
Q 2575 1984 2406 1984 
Q 2303 1984 2233 2048 
Q 2163 2113 2163 2216 
Q 2163 2356 2266 2467 
Q 2369 2578 2503 2578 
Q 2400 2663 2253 2663 
Q 1978 2663 1775 2467 
Q 1572 2272 1409 1972 
L 953 141 
Q 931 53 854 -9 
Q 778 -72 684 -72 
Q 606 -72 550 -22 
Q 494 28 494 109 
z
" transform="scale(0.015625)"/>
       <path id="Cmmi10-69" d="M 500 459 
Q 500 578 550 709 
L 1069 2088 
Q 1153 2322 1153 2472 
Q 1153 2663 1013 2663 
Q 759 2663 595 2402 
Q 431 2141 353 1819 
Q 341 1778 300 1778 
L 225 1778 
Q 172 1778 172 1838 
L 172 1856 
Q 275 2238 487 2533 
Q 700 2828 1025 2828 
Q 1253 2828 1411 2678 
Q 1569 2528 1569 2297 
Q 1569 2178 1516 2047 
L 997 672 
Q 909 459 909 288 
Q 909 97 1056 97 
Q 1306 97 1473 364 
Q 1641 631 1709 941 
Q 1722 978 1759 978 
L 1838 978 
Q 1863 978 1878 961 
Q 1894 944 1894 922 
Q 1894 916 1888 903 
Q 1800 541 1583 234 
Q 1366 -72 1044 -72 
Q 819 -72 659 83 
Q 500 238 500 459 
z
M 1222 3878 
Q 1222 4013 1334 4122 
Q 1447 4231 1581 4231 
Q 1691 4231 1761 4164 
Q 1831 4097 1831 3994 
Q 1831 3850 1717 3742 
Q 1603 3634 1466 3634 
Q 1363 3634 1292 3704 
Q 1222 3775 1222 3878 
z
" transform="scale(0.015625)"/>
      </defs>
      <use xlink:href="#Cmsy10-6a" transform="translate(0 0.53125)"/>
      <use xlink:href="#Cmmi10-7e" transform="translate(15.746094 5.609375)"/>
      <use xlink:href="#Cmmi10-72" transform="translate(27.685547 0.53125)"/>
      <use xlink:href="#Cmmi10-69" transform="translate(77.266875 -16.475) scale(0.7)"/>
      <use xlink:href="#Cmsy10-6a" transform="translate(107.740898 0.53125)"/>
      <use xlink:href="#DejaVuSerif-20" transform="translate(135.426445 0.53125)"/>
      <use xlink:href="#DejaVuSerif-28" transform="translate(167.213555 0.53125)"/>
      <use xlink:href="#DejaVuSerif-61" transform="translate(206.227227 0.53125)"/>
      <use xlink:href="#DejaVuSerif-2e" transform="translate(265.846367 0.53125)"/>
      <use xlink:href="#DejaVuSerif-75" transform="translate(297.633477 0.53125)"/>
      <use xlink:href="#DejaVuSerif-2e" transform="translate(362.037773 0.53125)"/>
      <use xlink:href="#DejaVuSerif-29" transform="translate(393.824883 0.53125)"/>
     </g>
    </g>
   </g>
   <g id="line2d_34">
    <path d="M 146.843244 468.043489 
L 160.583947 467.940681 
L 161.892585 467.914012 
L 163.855543 467.817481 
L 166.47282 467.758093 
L 169.090096 467.799321 
L 171.053054 467.884498 
L 171.707373 467.838935 
L 172.361692 467.932012 
L 173.016012 467.871337 
L 173.670331 467.975845 
L 175.633288 467.880214 
L 177.596246 467.936834 
L 178.904884 468.003275 
L 179.559204 467.905583 
L 180.867842 468.006593 
L 181.522161 467.920958 
L 182.17648 468.049795 
L 182.8308 467.918306 
L 183.485119 468.052275 
L 184.139438 467.931759 
L 184.793757 468.05019 
L 185.448076 467.948898 
L 186.102396 468.040768 
L 187.411034 468.001587 
L 188.065353 468.061248 
L 188.719672 467.955171 
L 190.028311 468.095074 
L 191.991268 468.046101 
L 193.299907 468.150927 
L 193.954226 468.083636 
L 195.917183 468.306664 
L 197.225822 468.349309 
L 199.188779 468.043164 
L 199.843099 468.071469 
L 200.497418 467.91845 
L 206.386291 467.601578 
L 209.003567 467.105551 
L 209.657887 466.979852 
L 210.966525 466.526404 
L 211.620844 466.426783 
L 216.855398 466.528638 
L 217.509717 466.018002 
L 218.164036 465.037539 
L 218.818355 463.152606 
L 219.472674 459.442936 
L 220.126994 451.895153 
L 220.781313 423.172543 
L 221.435632 375.279947 
L 222.74427 300.477044 
L 228.582943 -1 
L 228.582943 -1 
" clip-path="url(#pc2005f7d68)" style="fill: none; stroke: #1f77b4; stroke-width: 3; stroke-linecap: square"/>
   </g>
   <g id="line2d_35">
    <path d="M 146.843244 468.043191 
L 191.336949 468.028991 
L 199.843099 468.082798 
L 205.077652 467.819577 
L 207.694929 467.698791 
L 211.620844 467.760037 
L 212.929483 467.458758 
L 214.89244 466.568021 
L 215.546759 466.200323 
L 216.855398 465.013678 
L 218.164036 463.517015 
L 218.818355 462.524106 
L 219.472674 461.234977 
L 220.126994 459.353468 
L 220.781313 456.338142 
L 221.435632 449.636204 
L 222.089951 456.611055 
L 222.74427 467.356283 
L 223.39859 461.886031 
L 224.052909 463.51138 
L 224.707228 468.682318 
L 225.361547 470.674407 
L 226.015866 461.966846 
L 226.670186 468.931102 
L 227.324505 467.008448 
L 227.978824 471.012582 
L 228.633143 466.990502 
L 229.941782 473.49139 
L 230.596101 465.152648 
L 231.25042 470.073583 
L 232.559058 469.229326 
L 233.213378 469.862892 
L 233.867697 472.851628 
L 234.522016 469.960203 
L 235.176335 471.318333 
L 235.830654 469.61218 
L 236.484974 467.45401 
L 237.139293 470.92122 
L 237.793612 469.872151 
L 238.447931 470.625748 
L 239.10225 471.191325 
L 239.75657 469.983712 
L 240.410889 472.188589 
L 241.065208 471.766514 
L 241.719527 470.901038 
L 242.373846 471.895983 
L 243.028166 469.865732 
L 243.682485 470.866133 
L 244.336804 468.099995 
L 244.991123 473.267766 
L 245.645442 473.304749 
L 246.299761 469.793688 
L 246.954081 469.356691 
L 247.6084 467.939225 
L 248.262719 472.801006 
L 248.917038 468.394881 
L 249.571357 470.171659 
L 250.225677 473.50346 
L 250.879996 467.145576 
L 251.534315 470.795983 
L 252.188634 472.21289 
L 252.842953 467.230037 
L 253.497273 469.83761 
L 254.151592 469.423418 
L 254.805911 467.216897 
L 256.114549 470.453466 
L 256.768869 469.693744 
L 257.423188 471.089089 
L 258.077507 471.422505 
L 258.731826 472.501984 
L 259.386145 470.649775 
L 260.040465 469.981553 
L 260.694784 472.706575 
L 261.349103 472.669093 
L 262.003422 470.274846 
L 262.657741 472.366783 
L 263.312061 472.323678 
L 263.96638 471.360933 
L 264.620699 473.302928 
L 265.275018 470.223056 
L 265.929337 468.992938 
L 266.583657 468.213613 
L 267.237976 468.611133 
L 267.892295 469.379681 
L 268.546614 470.65582 
L 269.200933 472.246229 
L 269.855253 471.330577 
L 270.509572 469.943803 
L 271.163891 471.148796 
L 271.81821 470.458346 
L 272.472529 469.973965 
L 273.126848 472.337777 
L 273.781168 470.072097 
L 274.435487 470.68431 
L 275.089806 470.354858 
L 275.744125 472.00312 
L 276.398444 471.912318 
L 277.052764 469.952695 
L 277.707083 469.793337 
L 278.361402 469.889281 
L 279.015721 468.854575 
L 279.67004 472.368201 
L 280.32436 472.156495 
L 280.978679 469.397198 
L 281.632998 471.907757 
L 282.287317 468.040198 
L 282.941636 470.672352 
L 283.595956 468.253955 
L 284.250275 470.133769 
L 284.904594 468.100408 
L 285.558913 471.326747 
L 286.213232 470.927989 
L 286.867552 471.903644 
L 287.521871 471.505851 
L 288.17619 470.305187 
L 288.830509 470.85111 
L 289.484828 470.501855 
L 290.139148 471.351353 
L 290.793467 470.453332 
L 291.447786 470.785455 
L 292.102105 473.247453 
L 292.756424 472.980796 
L 293.410744 467.839009 
L 294.065063 470.776219 
L 294.719382 470.989128 
L 295.373701 467.426773 
L 296.02802 470.765647 
L 296.68234 467.674134 
L 297.336659 470.123696 
L 297.990978 470.458325 
L 298.645297 472.305098 
L 299.299616 469.854807 
L 299.953935 471.703619 
L 300.608255 469.654117 
L 301.262574 471.96824 
L 301.916893 472.88415 
L 302.571212 472.844036 
L 303.225531 468.336371 
L 303.879851 470.015683 
L 304.53417 470.987194 
L 305.188489 466.822822 
L 305.842808 471.953836 
L 306.497127 469.659063 
L 307.151447 467.880723 
L 307.805766 472.435541 
L 308.460085 471.139594 
L 309.114404 472.168699 
L 309.768723 471.975456 
L 310.423043 471.032254 
L 311.077362 469.479811 
L 311.731681 470.080957 
L 312.386 472.811002 
L 313.040319 471.769148 
L 313.694639 468.35711 
L 315.003277 472.141911 
L 315.657596 472.604747 
L 316.311915 471.285693 
L 316.966235 469.297437 
L 317.620554 472.449225 
L 318.274873 473.155537 
L 318.929192 469.948051 
L 319.583511 465.949652 
L 320.237831 468.291332 
L 320.89215 467.983154 
L 321.546469 472.686496 
L 322.200788 466.439093 
L 322.855107 472.610693 
L 323.509427 472.245433 
L 324.163746 473.079379 
L 324.818065 470.905919 
L 326.126703 469.539059 
L 326.781022 468.031712 
L 328.089661 466.316072 
L 328.74398 463.934741 
L 329.398299 470.269749 
L 330.052618 464.865103 
L 330.706938 470.272461 
L 331.361257 471.642772 
L 332.015576 461.298038 
L 332.669895 470.788717 
L 333.324214 460.798031 
L 333.978534 455.920634 
L 334.632853 446.966957 
L 335.287172 466.761447 
L 335.941491 462.994277 
L 336.59581 456.709441 
L 337.25013 471.722904 
L 337.904449 457.97819 
L 338.558768 471.01254 
L 339.213087 463.559488 
L 339.867406 470.518975 
L 340.521726 469.400289 
L 341.176045 473.17826 
L 341.830364 470.000923 
L 342.484683 471.884237 
L 343.139002 469.171495 
L 343.793322 463.352413 
L 344.447641 472.247603 
L 345.10196 463.848162 
L 345.756279 474.20962 
L 347.064918 475.21673 
L 347.719237 462.457294 
L 348.373556 472.252801 
L 349.027875 463.147767 
L 349.682194 472.618524 
L 350.336514 469.4814 
L 350.990833 469.541579 
L 351.645152 467.34757 
L 352.299471 473.756417 
L 352.95379 473.229164 
L 353.608109 470.191233 
L 354.262429 468.876098 
L 354.916748 472.124168 
L 355.571067 467.212647 
L 356.879705 471.060531 
L 357.534025 472.490762 
L 358.188344 474.190315 
L 358.842663 465.105471 
L 359.496982 467.889652 
L 360.151301 469.902069 
L 360.805621 470.420592 
L 361.45994 466.150529 
L 362.114259 471.734521 
L 362.768578 466.369011 
L 363.422897 474.345344 
L 364.077217 468.888438 
L 364.731536 467.162674 
L 366.040174 472.629576 
L 366.694493 465.93968 
L 367.348813 464.963258 
L 368.003132 466.156336 
L 368.657451 472.583141 
L 369.31177 469.11557 
L 369.966089 466.976485 
L 370.620409 474.282253 
L 371.274728 474.23636 
L 371.929047 466.589956 
L 372.583366 465.192186 
L 373.237685 474.827168 
L 373.892005 464.303235 
L 374.546324 465.61773 
L 375.200643 469.772014 
L 375.854962 466.798851 
L 376.509281 472.810055 
L 377.163601 469.567632 
L 377.81792 473.285758 
L 378.472239 473.782635 
L 379.126558 473.47159 
L 379.780877 472.864835 
L 380.435196 470.650136 
L 381.089516 474.443922 
L 381.743835 466.543141 
L 382.398154 466.310921 
L 383.052473 472.256264 
L 383.706792 466.055023 
L 384.361112 473.185748 
L 385.015431 470.046256 
L 385.66975 466.096358 
L 386.324069 466.137498 
L 386.978388 471.551476 
L 387.632708 466.231525 
L 388.287027 468.475679 
L 388.941346 471.51614 
L 389.595665 469.357834 
L 390.249984 472.349014 
L 390.904304 473.076856 
L 391.558623 467.899374 
L 392.212942 466.503514 
L 392.867261 474.089547 
L 393.52158 466.248885 
L 394.1759 468.130739 
L 394.830219 468.88772 
L 395.484538 472.677918 
L 396.138857 467.045602 
L 396.793176 468.076889 
L 397.447496 467.777088 
L 398.101815 468.021838 
L 398.756134 472.169947 
L 399.410453 470.1735 
L 400.064772 466.172421 
L 400.719092 467.249204 
L 401.373411 465.202039 
L 402.02773 471.208455 
L 402.682049 467.206105 
L 403.336368 473.956652 
L 403.990688 470.145534 
L 404.645007 469.781238 
L 405.299326 470.290793 
L 405.953645 471.889217 
L 406.607964 470.360848 
L 407.262284 469.341048 
L 408.570922 472.041286 
L 409.225241 472.306606 
L 409.87956 470.39327 
L 410.533879 467.144413 
L 411.188199 473.371089 
L 412.496837 463.981734 
L 413.151156 469.340165 
L 413.805475 465.083919 
L 414.459795 472.647776 
L 415.114114 465.764735 
L 415.768433 471.040558 
L 416.422752 460.926712 
L 417.077071 463.891557 
L 417.731391 472.788332 
L 418.38571 471.326755 
L 419.040029 469.198551 
L 419.694348 462.048759 
L 420.348667 470.481485 
L 421.002987 465.099416 
L 421.657306 474.376425 
L 422.311625 463.339669 
L 422.965944 455.493626 
L 423.620263 456.16255 
L 424.274583 445.286105 
L 424.928902 462.498048 
L 425.583221 446.952693 
L 426.891859 469.829014 
L 427.546179 469.055396 
L 428.200498 470.217197 
L 428.854817 464.952343 
L 429.509136 469.491176 
L 430.163455 461.39548 
L 430.817775 470.694043 
L 431.472094 472.543568 
L 432.126413 468.960359 
L 432.780732 469.065114 
L 433.435051 467.412545 
L 434.089371 471.931949 
L 434.74369 463.111589 
L 435.398009 464.243872 
L 436.052328 468.669843 
L 436.706647 468.496699 
L 437.360966 471.705901 
L 438.015286 472.19614 
L 438.669605 465.695833 
L 439.323924 475.159439 
L 439.978243 462.189022 
L 440.632562 463.601248 
L 441.286882 467.153383 
L 441.941201 473.399129 
L 442.59552 464.016078 
L 443.249839 466.045546 
L 443.904158 469.536331 
L 445.212797 470.047429 
L 445.867116 467.309245 
L 446.521435 467.736081 
L 447.175754 470.552769 
L 447.830074 469.765671 
L 448.484393 469.384037 
L 449.138712 471.949939 
L 449.793031 472.810019 
L 450.44735 468.464302 
L 451.10167 469.352929 
L 451.755989 466.804618 
L 452.410308 472.904196 
L 453.064627 472.463691 
L 453.718946 473.429859 
L 454.373266 468.004991 
L 455.027585 472.520274 
L 455.681904 472.470435 
L 456.336223 471.192556 
L 456.990542 467.407481 
L 457.644862 471.509399 
L 458.299181 473.685155 
L 458.9535 467.497263 
L 459.607819 466.257169 
L 460.262138 471.226151 
L 460.916458 472.84523 
L 461.570777 465.888047 
L 462.225096 474.29214 
L 462.879415 473.498524 
L 463.533734 473.396917 
L 464.188053 467.613068 
L 464.842373 470.377837 
L 465.496692 465.381606 
L 466.151011 469.115979 
L 466.80533 469.131527 
L 467.459649 473.865675 
L 468.113969 472.153474 
L 468.768288 467.196281 
L 469.422607 472.752467 
L 470.076926 472.575953 
L 470.731245 464.960723 
L 471.385565 465.020575 
L 472.694203 467.742473 
L 473.348522 466.595395 
L 474.002841 467.181376 
L 474.657161 468.72332 
L 475.31148 467.895746 
L 475.965799 467.341819 
L 476.620118 472.4649 
L 477.274437 474.446276 
L 477.928757 468.726575 
L 478.583076 470.401489 
L 479.237395 468.205062 
L 479.891714 469.235765 
L 480.546033 464.780919 
L 481.200353 467.482911 
L 481.854672 474.308701 
L 482.508991 473.945035 
L 483.16331 472.882971 
L 483.817629 471.404188 
L 484.471949 466.22674 
L 485.126268 471.46041 
L 485.780587 465.952944 
L 486.434906 472.926934 
L 487.089225 469.903772 
L 487.743545 467.887375 
L 488.397864 474.437665 
L 489.052183 471.250851 
L 489.706502 467.443631 
L 490.360821 471.090089 
L 491.01514 470.582409 
L 491.66946 472.611035 
L 492.323779 467.81048 
L 492.978098 467.814972 
L 493.632417 472.565875 
L 494.286736 468.215493 
L 494.941056 463.112418 
L 495.595375 468.349863 
L 496.249694 469.578355 
L 496.904013 464.995971 
L 497.558332 469.053335 
L 498.212652 471.09611 
L 498.866971 472.297185 
L 499.52129 472.132243 
L 500.175609 472.910801 
L 500.829928 470.724431 
L 501.484248 464.747408 
L 502.138567 465.829968 
L 502.792886 472.618915 
L 503.447205 469.963434 
L 504.101524 465.52142 
L 504.755844 466.99694 
L 505.410163 463.184076 
L 506.064482 467.245483 
L 506.718801 460.919652 
L 507.37312 462.537447 
L 508.02744 472.255185 
L 508.681759 466.684669 
L 509.336078 470.024702 
L 509.990397 459.079296 
L 510.644716 474.269949 
L 511.299036 453.889786 
L 511.953355 473.230688 
L 512.607674 455.253135 
L 513.261993 441.311377 
L 513.916312 453.697334 
L 514.570632 462.885072 
L 515.224951 461.167953 
L 515.87927 461.938379 
L 516.533589 463.179052 
L 517.187908 467.364353 
L 517.842227 459.236157 
L 518.496547 463.082506 
L 519.150866 470.693479 
L 519.805185 466.191244 
L 520.459504 472.156219 
L 521.113823 474.805622 
L 521.768143 465.52524 
L 522.422462 463.249449 
L 523.076781 470.493829 
L 523.7311 461.500311 
L 524.385419 468.79547 
L 525.039739 467.513891 
L 526.348377 470.656453 
L 527.002696 464.951281 
L 527.657015 466.431063 
L 528.311335 466.852012 
L 528.965654 468.048675 
L 529.619973 473.848945 
L 530.274292 465.179216 
L 530.928611 464.598028 
L 531.582931 472.875285 
L 532.23725 474.647868 
L 532.891569 468.220069 
L 533.545888 467.082764 
L 534.200207 464.055601 
L 534.854527 473.917829 
L 535.508846 474.711774 
L 536.163165 464.779099 
L 536.817484 464.728502 
L 537.471803 473.190724 
L 538.126123 474.276645 
L 538.780442 464.794067 
L 539.434761 469.88734 
L 540.08908 470.069811 
L 540.743399 473.984136 
L 541.397719 473.066795 
L 542.052038 473.833503 
L 542.706357 473.433796 
L 543.360676 466.85649 
L 544.014995 467.812407 
L 544.669315 468.212731 
L 545.323634 469.011264 
L 545.977953 467.657691 
L 546.632272 467.554068 
L 547.286591 467.675108 
L 547.94091 470.437993 
L 548.59523 471.000653 
L 549.249549 469.874484 
L 549.903868 470.1205 
L 550.558187 466.7012 
L 551.212506 470.179133 
L 551.866826 469.158258 
L 552.521145 473.756478 
L 553.829783 473.313066 
L 554.484102 469.682844 
L 555.138422 468.650458 
L 555.792741 471.569854 
L 556.44706 470.712715 
L 557.101379 468.177928 
L 557.755698 472.903245 
L 558.410018 466.73923 
L 559.064337 465.770206 
L 559.718656 473.796693 
L 560.372975 470.027748 
L 561.027294 468.594769 
L 561.681614 471.460804 
L 562.335933 469.840364 
L 562.990252 472.210768 
L 563.644571 469.513281 
L 564.29889 469.095341 
L 564.95321 474.193025 
L 566.261848 468.678708 
L 566.916167 472.248402 
L 567.570486 473.063838 
L 568.224806 474.164126 
L 569.533444 470.549739 
L 570.187763 471.695369 
L 570.842082 473.872648 
L 571.496402 473.884301 
L 572.150721 468.38156 
L 572.80504 473.695066 
L 574.113678 468.88847 
L 574.767997 473.811329 
L 575.422317 468.421952 
L 576.076636 469.488155 
L 576.730955 471.30966 
L 577.385274 471.406187 
L 578.039593 471.784342 
L 578.693913 467.202787 
L 579.348232 471.451868 
L 580.002551 471.959307 
L 580.65687 471.001761 
L 581.311189 471.287409 
L 581.965509 467.677507 
L 582.619828 469.173932 
L 583.274147 469.459441 
L 583.928466 471.517547 
L 584.582785 464.662955 
L 585.237105 473.237174 
L 585.891424 472.600541 
L 586.545743 471.141883 
L 587.200062 472.040571 
L 587.854381 467.611186 
L 588.508701 466.142913 
L 589.16302 468.034721 
L 589.817339 468.46995 
L 590.471658 470.106841 
L 591.125977 465.051222 
L 591.780297 474.367518 
L 592.434616 475.324959 
L 593.088935 475.224486 
L 593.743254 467.02481 
L 594.397573 465.237243 
L 595.051893 474.370918 
L 595.706212 470.797121 
L 596.360531 463.374749 
L 597.01485 471.5698 
L 597.669169 468.858767 
L 598.323489 471.129951 
L 598.977808 459.446963 
L 600.286446 473.604769 
L 600.940765 473.959745 
L 602.249404 473.055897 
L 602.903723 467.494213 
L 603.558042 454.261905 
L 604.212361 456.428592 
L 604.86668 456.302839 
L 605.521 443.244865 
L 606.175319 441.661459 
L 606.829638 453.720484 
L 607.483957 467.869107 
L 608.138276 457.310027 
L 608.792596 470.177951 
L 609.446915 459.977787 
L 610.101234 464.480995 
L 610.755553 454.375043 
L 611.409872 471.251457 
L 612.064192 470.386636 
L 612.718511 475.870092 
L 613.37283 472.765565 
L 614.027149 455.178621 
L 614.681468 475.889338 
L 615.335788 459.48976 
L 615.990107 464.417454 
L 616.644426 466.164445 
L 617.298745 475.151599 
L 617.953064 472.540378 
L 618.607384 475.722216 
L 619.261703 465.301612 
L 619.916022 470.970221 
L 620.570341 464.938098 
L 621.22466 462.608094 
L 621.87898 468.911205 
L 622.533299 464.267731 
L 623.187618 475.813424 
L 623.841937 476.099413 
L 624.496256 459.877854 
L 625.150576 472.938346 
L 625.804895 473.984677 
L 626.459214 475.436323 
L 627.113533 473.239061 
L 627.767852 467.93364 
L 628.422171 459.320594 
L 629.076491 470.296514 
L 629.73081 471.851735 
L 630.385129 468.235484 
L 631.039448 458.3664 
L 631.693767 463.019807 
L 632.348087 459.49594 
L 633.002406 461.263938 
L 633.656725 461.265924 
L 634.311044 465.486024 
L 634.965363 463.414705 
L 635.619683 464.012385 
L 636.274002 473.12498 
L 636.928321 471.587636 
L 637.58264 467.633004 
L 638.236959 472.052743 
L 638.891279 475.065346 
L 639.545598 475.005754 
L 640.199917 470.296377 
L 640.854236 476.034222 
L 641.508555 472.009128 
L 642.162875 469.388139 
L 642.817194 475.908556 
L 643.471513 476.226902 
L 644.125832 460.091125 
L 644.780151 461.355296 
L 645.434471 458.666406 
L 646.08879 459.212877 
L 646.743109 465.274567 
L 647.397428 459.477329 
L 648.051747 460.121969 
L 648.706067 462.022102 
L 649.360386 466.29403 
L 650.669024 471.949452 
L 651.323343 470.054601 
L 651.977663 464.716633 
L 652.631982 465.813035 
L 653.286301 463.20783 
L 653.94062 459.961011 
L 654.594939 467.780855 
L 655.249258 462.184777 
L 655.903578 461.944292 
L 656.557897 461.461915 
L 657.866535 470.482392 
L 658.520854 452.031071 
L 659.175174 457.93206 
L 659.829493 473.655393 
L 660.483812 448.256853 
L 661.138131 461.481674 
L 661.79245 468.565414 
L 662.44677 447.094343 
L 663.101089 456.757703 
L 663.755408 457.571092 
L 664.409727 458.768754 
L 665.064046 465.938515 
L 665.718366 452.147597 
L 666.372685 465.050154 
L 667.027004 459.062892 
L 667.681323 455.878624 
L 668.335642 464.1789 
L 668.989962 462.084228 
L 669.644281 469.367028 
L 670.2986 472.974395 
L 670.952919 467.866448 
L 671.607238 472.278439 
L 672.261558 472.544318 
L 672.915877 476.495494 
L 673.570196 473.139609 
L 674.224515 466.950359 
L 674.878834 470.648909 
L 675.533154 470.153128 
L 676.187473 458.665312 
L 676.841792 459.252428 
L 677.496111 461.430659 
L 678.15043 465.239376 
L 678.80475 465.608378 
L 679.459069 475.851054 
L 680.113388 459.315314 
L 681.422026 465.370136 
L 682.076345 462.499738 
L 683.384984 475.695878 
L 684.039303 472.217759 
L 684.693622 475.495867 
L 686.002261 463.521681 
L 686.65658 460.154373 
L 687.310899 470.728888 
L 687.965218 460.693193 
L 688.619537 461.58544 
L 689.273857 471.816171 
L 689.928176 460.324041 
L 690.582495 461.479182 
L 691.236814 474.537915 
L 691.891133 464.505166 
L 692.545453 476.283973 
L 693.199772 459.999332 
L 693.854091 467.421059 
L 694.50841 465.883912 
L 695.162729 461.842757 
L 696.471368 466.96786 
L 697.125687 462.213899 
L 697.780006 463.578926 
L 699.088645 474.824978 
L 699.742964 470.709108 
L 700.397283 465.467838 
L 701.051602 467.399396 
L 701.705921 472.10137 
L 702.360241 475.495936 
L 703.01456 463.397494 
L 703.668879 475.202298 
L 704.323198 467.159401 
L 704.977517 456.234734 
L 705.631837 457.129724 
L 706.286156 461.191202 
L 706.940475 471.417704 
L 707.594794 455.241515 
L 708.249113 456.723443 
L 708.903433 460.272318 
L 709.557752 457.061356 
L 710.212071 469.751281 
L 710.86639 463.972874 
L 711.520709 471.21186 
L 712.175028 455.512242 
L 712.829348 463.221506 
L 713.483667 451.35741 
L 714.137986 467.140051 
L 714.792305 460.895677 
L 715.446624 449.149455 
L 716.100944 454.686424 
L 716.755263 449.129084 
L 717.409582 455.521907 
L 718.063901 432.622112 
L 718.71822 439.494085 
L 719.37254 439.71648 
L 720.026859 463.615316 
L 720.681178 462.530705 
L 721.335497 456.720909 
L 721.989816 465.878032 
L 722.644136 473.328632 
L 723.298455 466.956378 
L 723.952774 469.509233 
L 724.607093 450.536846 
L 725.261412 455.343364 
L 725.915732 458.309548 
L 726.570051 476.191904 
L 727.22437 468.091024 
L 727.878689 477.239384 
L 728.533008 468.301641 
L 729.187328 472.185472 
L 729.841647 465.368658 
L 730.495966 454.219502 
L 731.150285 466.829656 
L 731.804604 473.822037 
L 732.458924 474.028374 
L 733.113243 470.728225 
L 733.767562 465.55246 
L 734.421881 470.505985 
L 735.0762 456.332668 
L 735.73052 470.29624 
L 736.384839 464.172391 
L 737.039158 466.840972 
L 737.693477 459.114952 
L 738.347796 454.368501 
L 739.002115 461.320438 
L 739.656435 459.549992 
L 740.310754 456.754946 
L 742.273711 474.374416 
L 742.928031 475.943279 
L 743.58235 471.31704 
L 744.890988 457.29967 
L 745.545307 459.754147 
L 746.199627 460.379603 
L 746.853946 457.467181 
L 747.508265 467.793129 
L 748.162584 466.440838 
L 748.816903 454.480083 
L 749.471223 460.222714 
L 750.125542 449.844112 
L 750.779861 463.030074 
L 751.43418 460.319125 
L 752.088499 468.259158 
L 752.742819 468.364019 
L 753.397138 452.202018 
L 754.051457 450.156 
L 754.705776 474.754788 
L 755.360095 458.984969 
L 756.014415 463.778627 
L 756.668734 446.324469 
L 757.323053 469.859661 
L 758.631691 416.412261 
L 759.286011 402.779969 
L 759.94033 409.544428 
L 760.594649 475.691405 
L 761.248968 427.511472 
L 761.903287 442.555566 
L 762.557607 469.883058 
L 763.211926 435.688478 
L 763.866245 478.109868 
L 765.174883 445.113649 
L 766.483522 465.933721 
L 767.137841 463.803792 
L 767.79216 459.580116 
L 768.446479 440.859877 
L 769.100798 462.458801 
L 769.755118 449.712966 
L 770.409437 441.677727 
L 771.063756 454.703131 
L 771.718075 461.515408 
L 772.372394 448.261352 
L 773.026714 463.982924 
L 773.681033 447.202529 
L 774.335352 447.045552 
L 774.989671 443.876899 
L 775.64399 465.601075 
L 776.29831 440.178865 
L 776.952629 439.215485 
L 777.606948 440.768496 
L 778.261267 434.448943 
L 778.915586 462.368317 
L 779.569906 468.914119 
L 780.224225 418.740043 
L 780.878544 461.147779 
L 781.532863 455.34959 
L 782.187182 433.543063 
L 782.841502 415.608743 
L 783.495821 469.803244 
L 784.15014 399.29477 
L 784.804459 355.520238 
L 785.458778 335.263587 
L 786.113098 395.853402 
L 786.767417 412.4337 
L 787.421736 361.129904 
L 788.076055 337.379689 
L 788.730374 332.864222 
L 789.384694 346.41739 
L 790.039013 381.943044 
L 790.693332 458.880512 
L 792.00197 362.558946 
L 792.656289 342.26578 
L 793.310609 341.124428 
L 793.964928 358.81389 
L 794.619247 400.754385 
L 795.273566 457.422475 
L 795.927885 396.926258 
L 796.582205 348.9862 
L 797.236524 321.450328 
L 797.890843 307.818237 
L 798.545162 305.791441 
L 799.199481 314.426856 
L 799.853801 334.391922 
L 800.50812 369.263239 
L 800.50812 369.263239 
" clip-path="url(#pc2005f7d68)" style="fill: none; stroke-dasharray: 11.1,4.8; stroke-dashoffset: 0; stroke: #ff7f0e; stroke-width: 3"/>
   </g>
   <g id="line2d_36">
    <path d="M 146.843244 70.268253 
L 203.114695 370.487136 
L 210.966525 413.354343 
L 214.89244 435.94751 
L 216.855398 448.1877 
L 218.164036 457.151266 
L 219.472674 467.506854 
L 220.126994 473.805725 
L 220.781313 481.99203 
L 221.435632 485.325285 
L 222.089951 476.0254 
L 222.74427 469.484523 
L 224.052909 459.378334 
L 225.361547 451.298782 
L 226.670186 444.38261 
L 228.633143 435.464814 
L 230.596101 427.773915 
L 232.559058 420.993653 
L 234.522016 414.903312 
L 237.139293 407.62328 
L 239.75657 401.145081 
L 242.373846 395.349638 
L 244.991123 390.145616 
L 247.6084 385.4938 
L 250.225677 381.357228 
L 252.842953 377.710755 
L 255.46023 374.528237 
L 258.077507 371.770015 
L 260.694784 369.378268 
L 263.312061 367.335631 
L 265.929337 365.645929 
L 267.892295 364.615153 
L 269.855253 363.778861 
L 272.472529 362.940599 
L 275.089806 362.407642 
L 277.052764 362.208916 
L 279.015721 362.197128 
L 280.978679 362.380803 
L 282.941636 362.7553 
L 284.904594 363.328133 
L 287.521871 364.377973 
L 290.139148 365.728615 
L 292.102105 366.947498 
L 294.065063 368.37475 
L 296.02802 370.02284 
L 297.990978 371.898017 
L 300.608255 374.752384 
L 303.225531 378.01334 
L 305.842808 381.706479 
L 308.460085 385.890877 
L 311.077362 390.576138 
L 313.694639 395.797676 
L 316.311915 401.657559 
L 318.274873 406.53729 
L 320.237831 411.906141 
L 322.200788 417.843459 
L 324.163746 424.454572 
L 326.126703 431.86616 
L 328.089661 440.349788 
L 329.398299 446.821184 
L 330.706938 454.223057 
L 332.015576 463.01371 
L 332.669895 468.276093 
L 333.324214 474.552786 
L 333.978534 483.012821 
L 334.632853 484.129724 
L 335.287172 475.369339 
L 335.941491 469.043302 
L 337.25013 459.329505 
L 338.558768 451.610465 
L 339.867406 445.031686 
L 341.830364 436.57137 
L 343.793322 429.299776 
L 345.756279 422.971471 
L 347.719237 417.419411 
L 349.682194 412.527862 
L 351.645152 408.177531 
L 353.608109 404.248061 
L 356.225386 399.585575 
L 358.188344 396.476634 
L 360.151301 393.712686 
L 362.768578 390.477907 
L 364.731536 388.379892 
L 366.694493 386.547428 
L 368.657451 384.993465 
L 370.620409 383.699435 
L 372.583366 382.685154 
L 374.546324 381.95062 
L 376.509281 381.493388 
L 378.472239 381.272269 
L 380.435196 381.283989 
L 382.398154 381.552518 
L 384.361112 382.083762 
L 386.324069 382.870142 
L 388.287027 383.909406 
L 390.249984 385.195854 
L 392.212942 386.725196 
L 394.1759 388.52385 
L 396.138857 390.601223 
L 398.101815 392.971471 
L 400.064772 395.639536 
L 402.02773 398.626333 
L 403.990688 401.982129 
L 405.953645 405.744464 
L 408.570922 411.340262 
L 410.533879 416.039335 
L 412.496837 421.264342 
L 414.459795 427.133561 
L 416.422752 433.80057 
L 418.38571 441.550952 
L 419.694348 447.542646 
L 421.002987 454.451796 
L 422.311625 462.777406 
L 422.965944 467.805239 
L 423.620263 473.832606 
L 424.274583 481.792434 
L 424.928902 485.588267 
L 425.583221 476.189911 
L 426.23754 469.673453 
L 427.546179 459.715365 
L 428.854817 451.855336 
L 430.163455 445.187486 
L 432.126413 436.703144 
L 434.089371 429.465519 
L 436.052328 423.137997 
L 438.015286 417.585316 
L 439.978243 412.68873 
L 441.941201 408.376498 
L 443.904158 404.566241 
L 445.867116 401.157092 
L 447.830074 398.102721 
L 450.44735 394.463109 
L 452.410308 392.045108 
L 454.373266 389.904642 
L 456.336223 388.026658 
L 458.299181 386.413511 
L 460.262138 385.078563 
L 462.225096 383.991085 
L 464.188053 383.160619 
L 466.151011 382.573599 
L 468.113969 382.221601 
L 470.076926 382.136966 
L 472.039884 382.31554 
L 474.002841 382.764389 
L 475.965799 383.483263 
L 477.928757 384.469143 
L 479.891714 385.736814 
L 481.854672 387.287266 
L 483.817629 389.133404 
L 485.780587 391.277077 
L 487.743545 393.729549 
L 489.706502 396.499709 
L 491.66946 399.615327 
L 493.632417 403.063724 
L 495.595375 406.877249 
L 497.558332 411.175175 
L 499.52129 416.042715 
L 501.484248 421.518723 
L 503.447205 427.679882 
L 505.410163 434.625788 
L 507.37312 442.728978 
L 508.681759 448.990981 
L 509.990397 456.252331 
L 511.299036 465.146456 
L 511.953355 470.63927 
L 512.607674 477.410484 
L 513.261993 487.853113 
L 514.570632 472.759674 
L 515.87927 461.9432 
L 517.187908 453.628085 
L 518.496547 446.671777 
L 519.805185 440.658196 
L 521.768143 432.866354 
L 523.7311 426.153524 
L 525.694058 420.294815 
L 527.657015 415.022761 
L 529.619973 410.275198 
L 531.582931 406.011347 
L 533.545888 402.199713 
L 535.508846 398.798425 
L 537.471803 395.784675 
L 539.434761 393.131209 
L 541.397719 390.800151 
L 543.360676 388.748183 
L 545.323634 386.957226 
L 547.286591 385.403555 
L 549.249549 384.079871 
L 551.212506 382.982504 
L 553.175464 382.104497 
L 555.138422 381.445187 
L 557.101379 381.002018 
L 559.064337 380.821606 
L 561.027294 380.900216 
L 562.990252 381.240873 
L 564.95321 381.840759 
L 566.916167 382.69977 
L 568.879125 383.798396 
L 570.842082 385.150188 
L 572.80504 386.753497 
L 574.767997 388.622746 
L 576.730955 390.76032 
L 579.348232 393.979514 
L 581.965509 397.648805 
L 583.928466 400.739602 
L 585.891424 404.169591 
L 588.508701 409.298092 
L 590.471658 413.616944 
L 592.434616 418.463274 
L 594.397573 424.003172 
L 596.360531 430.311151 
L 598.323489 437.507341 
L 599.632127 442.9669 
L 600.940765 449.181325 
L 602.249404 456.430622 
L 603.558042 465.308215 
L 604.212361 470.793491 
L 604.86668 477.604722 
L 605.521 488.215631 
L 606.829638 472.731256 
L 608.138276 462.259536 
L 609.446915 454.324941 
L 610.755553 447.819263 
L 612.064192 442.298897 
L 613.37283 437.514545 
L 614.681468 433.315771 
L 616.644426 427.933119 
L 618.607384 423.414211 
L 620.570341 419.608779 
L 622.533299 416.366961 
L 624.496256 413.695472 
L 626.459214 411.573017 
L 628.422171 409.9252 
L 629.73081 409.106884 
L 631.039448 408.527444 
L 632.348087 408.176141 
L 633.656725 408.056411 
L 634.965363 408.163693 
L 636.274002 408.48779 
L 637.58264 408.996557 
L 638.891279 409.694567 
L 640.199917 410.60894 
L 641.508555 411.729885 
L 642.817194 413.062868 
L 644.125832 414.634904 
L 645.434471 416.463596 
L 646.743109 418.585884 
L 648.051747 420.992517 
L 649.360386 423.725645 
L 651.323343 428.440655 
L 653.286301 434.005487 
L 654.594939 438.323291 
L 655.903578 443.210298 
L 657.212216 448.821607 
L 658.520854 455.396819 
L 659.829493 463.481255 
L 660.483812 468.40618 
L 661.138131 474.414611 
L 661.79245 482.593681 
L 662.44677 484.674386 
L 663.101089 475.766534 
L 663.755408 469.469873 
L 665.064046 460.007234 
L 666.372685 452.666558 
L 667.681323 446.613765 
L 668.989962 441.455387 
L 670.952919 434.895009 
L 672.915877 429.369541 
L 674.878834 424.764307 
L 676.841792 420.869735 
L 678.15043 418.669047 
L 679.459069 416.755429 
L 680.767707 415.112926 
L 682.076345 413.708452 
L 683.384984 412.548435 
L 684.693622 411.640997 
L 686.002261 410.961497 
L 687.310899 410.491103 
L 688.619537 410.221966 
L 689.928176 410.151543 
L 691.236814 410.281621 
L 692.545453 410.613912 
L 693.854091 411.156473 
L 695.162729 411.90691 
L 696.471368 412.8755 
L 697.780006 414.072158 
L 699.088645 415.490836 
L 701.051602 418.023857 
L 703.01456 421.117187 
L 704.323198 423.518915 
L 705.631837 426.241448 
L 706.940475 429.337647 
L 708.249113 432.861576 
L 709.557752 436.892981 
L 711.520709 443.963585 
L 712.829348 449.51019 
L 714.137986 456.121497 
L 715.446624 464.314011 
L 716.100944 469.408537 
L 716.755263 475.649374 
L 717.409582 484.47649 
L 718.063901 482.780369 
L 718.71822 474.598595 
L 719.37254 468.646132 
L 720.681178 459.612121 
L 721.989816 452.673388 
L 723.298455 446.994739 
L 724.607093 442.253738 
L 725.915732 438.278959 
L 727.22437 434.89943 
L 728.533008 432.041817 
L 729.841647 429.662796 
L 731.150285 427.676998 
L 732.458924 426.082943 
L 733.767562 424.850274 
L 735.0762 423.948674 
L 736.384839 423.346858 
L 737.693477 423.075142 
L 739.002115 423.143192 
L 740.310754 423.531027 
L 741.619392 424.2484 
L 742.928031 425.311021 
L 744.236669 426.729127 
L 745.545307 428.519348 
L 746.853946 430.688307 
L 748.162584 433.271458 
L 749.471223 436.295058 
L 750.779861 439.87271 
L 752.088499 444.087165 
L 753.397138 449.109573 
L 754.705776 455.195753 
L 756.014415 462.792412 
L 756.668734 467.467813 
L 757.323053 473.137601 
L 758.631691 487.550553 
L 759.286011 477.417181 
L 759.94033 470.969774 
L 761.248968 461.836554 
L 762.557607 455.338613 
L 763.866245 450.389612 
L 765.174883 446.619569 
L 766.483522 443.766678 
L 767.79216 441.680556 
L 768.446479 440.91046 
L 769.100798 440.338228 
L 769.755118 439.919286 
L 770.409437 439.662364 
L 771.063756 439.583494 
L 771.718075 439.679443 
L 772.372394 439.939772 
L 773.026714 440.362313 
L 773.681033 440.937283 
L 774.335352 441.677126 
L 774.989671 442.588591 
L 776.29831 444.984128 
L 777.606948 448.273646 
L 778.915586 452.675223 
L 780.224225 458.418348 
L 781.532863 466.241615 
L 782.187182 471.357322 
L 782.841502 478.00257 
L 783.495821 488.908247 
L 784.15014 479.926672 
L 784.804459 472.922979 
L 785.458778 467.771127 
L 786.113098 463.723106 
L 786.767417 460.441066 
L 787.421736 457.759427 
L 788.076055 455.610709 
L 788.730374 453.934849 
L 789.384694 452.690498 
L 790.039013 451.848741 
L 790.693332 451.385693 
L 791.347651 451.227894 
L 792.00197 451.416077 
L 792.656289 451.979202 
L 793.310609 452.930892 
L 793.964928 454.291092 
L 794.619247 456.088744 
L 795.273566 458.35077 
L 795.927885 461.067981 
L 796.582205 464.428109 
L 797.236524 468.624273 
L 797.890843 474.001184 
L 798.545162 481.478026 
L 799.199481 486.287571 
L 799.853801 476.900172 
L 800.50812 470.793849 
L 800.50812 470.793849 
" clip-path="url(#pc2005f7d68)" style="fill: none; stroke: #000000; stroke-width: 3; stroke-linecap: square"/>
   </g>
   <g id="patch_3">
    <path d="M 114.16 489.2325 
L 114.16 28.08 
" style="fill: none; stroke: #000000; stroke-width: 2; stroke-linejoin: miter; stroke-linecap: square"/>
   </g>
   <g id="patch_4">
    <path d="M 833.191364 489.2325 
L 833.191364 28.08 
" style="fill: none; stroke: #000000; stroke-width: 2; stroke-linejoin: miter; stroke-linecap: square"/>
   </g>
   <g id="patch_5">
    <path d="M 114.16 489.2325 
L 833.191364 489.2325 
" style="fill: none; stroke: #000000; stroke-width: 2; stroke-linejoin: miter; stroke-linecap: square"/>
   </g>
   <g id="patch_6">
    <path d="M 114.16 28.08 
L 833.191364 28.08 
" style="fill: none; stroke: #000000; stroke-width: 2; stroke-linejoin: miter; stroke-linecap: square"/>
   </g>
   <g id="legend_1">
    <g id="patch_7">
     <path d="M 683.493864 111.335 
L 821.991364 111.335 
Q 825.191364 111.335 825.191364 108.135 
L 825.191364 39.28 
Q 825.191364 36.08 821.991364 36.08 
L 683.493864 36.08 
Q 680.293864 36.08 680.293864 39.28 
L 680.293864 108.135 
Q 680.293864 111.335 683.493864 111.335 
z
" style="fill: #ffffff; opacity: 0.8; stroke: #cccccc; stroke-linejoin: miter"/>
    </g>
    <g id="line2d_37">
     <path d="M 686.693864 49.0375 
L 702.693864 49.0375 
L 718.693864 49.0375 
" style="fill: none; stroke: #1f77b4; stroke-width: 3; stroke-linecap: square"/>
    </g>
    <g id="text_14">
     <!-- Electron 1 -->
     <g transform="translate(731.493864 54.6375) scale(0.16 -0.16)">
      <defs>
       <path id="DejaVuSerif-45" d="M 353 0 
L 353 331 
L 947 331 
L 947 4331 
L 353 4331 
L 353 4666 
L 4109 4666 
L 4109 3628 
L 3725 3628 
L 3725 4281 
L 1581 4281 
L 1581 2719 
L 3109 2719 
L 3109 3303 
L 3494 3303 
L 3494 1753 
L 3109 1753 
L 3109 2338 
L 1581 2338 
L 1581 384 
L 3775 384 
L 3775 1038 
L 4159 1038 
L 4159 0 
L 353 0 
z
" transform="scale(0.015625)"/>
       <path id="DejaVuSerif-6c" d="M 1313 331 
L 1856 331 
L 1856 0 
L 184 0 
L 184 331 
L 738 331 
L 738 4531 
L 184 4531 
L 184 4863 
L 1313 4863 
L 1313 331 
z
" transform="scale(0.015625)"/>
       <path id="DejaVuSerif-65" d="M 3469 1600 
L 991 1600 
L 991 1575 
Q 991 903 1244 561 
Q 1497 219 1991 219 
Q 2369 219 2611 417 
Q 2853 616 2950 1006 
L 3413 1006 
Q 3275 459 2904 184 
Q 2534 -91 1931 -91 
Q 1203 -91 761 389 
Q 319 869 319 1663 
Q 319 2450 753 2931 
Q 1188 3413 1894 3413 
Q 2647 3413 3050 2948 
Q 3453 2484 3469 1600 
z
M 2791 1931 
Q 2772 2513 2545 2808 
Q 2319 3103 1894 3103 
Q 1497 3103 1269 2806 
Q 1041 2509 991 1931 
L 2791 1931 
z
" transform="scale(0.015625)"/>
       <path id="DejaVuSerif-63" d="M 3291 997 
Q 3169 466 2822 187 
Q 2475 -91 1925 -91 
Q 1200 -91 759 389 
Q 319 869 319 1663 
Q 319 2459 759 2936 
Q 1200 3413 1925 3413 
Q 2241 3413 2553 3339 
Q 2866 3266 3181 3116 
L 3181 2266 
L 2847 2266 
Q 2781 2703 2561 2903 
Q 2341 3103 1931 3103 
Q 1466 3103 1228 2742 
Q 991 2381 991 1663 
Q 991 944 1227 581 
Q 1463 219 1931 219 
Q 2303 219 2525 412 
Q 2747 606 2828 997 
L 3291 997 
z
" transform="scale(0.015625)"/>
       <path id="DejaVuSerif-74" d="M 691 2988 
L 184 2988 
L 184 3322 
L 691 3322 
L 691 4353 
L 1269 4353 
L 1269 3322 
L 2350 3322 
L 2350 2988 
L 1269 2988 
L 1269 878 
Q 1269 456 1350 337 
Q 1431 219 1650 219 
Q 1875 219 1978 351 
Q 2081 484 2088 781 
L 2522 781 
Q 2497 328 2275 118 
Q 2053 -91 1600 -91 
Q 1103 -91 897 129 
Q 691 350 691 878 
L 691 2988 
z
" transform="scale(0.015625)"/>
       <path id="DejaVuSerif-72" d="M 3059 3328 
L 3059 2497 
L 2728 2497 
Q 2713 2744 2591 2866 
Q 2469 2988 2234 2988 
Q 1809 2988 1582 2694 
Q 1356 2400 1356 1850 
L 1356 331 
L 2022 331 
L 2022 0 
L 263 0 
L 263 331 
L 781 331 
L 781 2994 
L 231 2994 
L 231 3322 
L 1356 3322 
L 1356 2731 
Q 1525 3078 1790 3245 
Q 2056 3413 2438 3413 
Q 2578 3413 2733 3391 
Q 2888 3369 3059 3328 
z
" transform="scale(0.015625)"/>
       <path id="DejaVuSerif-6f" d="M 1925 219 
Q 2388 219 2623 584 
Q 2859 950 2859 1663 
Q 2859 2375 2623 2739 
Q 2388 3103 1925 3103 
Q 1463 3103 1227 2739 
Q 991 2375 991 1663 
Q 991 950 1228 584 
Q 1466 219 1925 219 
z
M 1925 -91 
Q 1200 -91 759 389 
Q 319 869 319 1663 
Q 319 2456 758 2934 
Q 1197 3413 1925 3413 
Q 2653 3413 3092 2934 
Q 3531 2456 3531 1663 
Q 3531 869 3092 389 
Q 2653 -91 1925 -91 
z
" transform="scale(0.015625)"/>
       <path id="DejaVuSerif-6e" d="M 263 0 
L 263 331 
L 781 331 
L 781 2988 
L 231 2988 
L 231 3322 
L 1356 3322 
L 1356 2731 
Q 1516 3069 1770 3241 
Q 2025 3413 2363 3413 
Q 2913 3413 3172 3097 
Q 3431 2781 3431 2113 
L 3431 331 
L 3944 331 
L 3944 0 
L 2356 0 
L 2356 331 
L 2853 331 
L 2853 1931 
Q 2853 2541 2703 2767 
Q 2553 2994 2175 2994 
Q 1775 2994 1565 2701 
Q 1356 2409 1356 1850 
L 1356 331 
L 1856 331 
L 1856 0 
L 263 0 
z
" transform="scale(0.015625)"/>
      </defs>
      <use xlink:href="#DejaVuSerif-45"/>
      <use xlink:href="#DejaVuSerif-6c" x="72.998047"/>
      <use xlink:href="#DejaVuSerif-65" x="104.980469"/>
      <use xlink:href="#DejaVuSerif-63" x="164.160156"/>
      <use xlink:href="#DejaVuSerif-74" x="220.166016"/>
      <use xlink:href="#DejaVuSerif-72" x="260.351562"/>
      <use xlink:href="#DejaVuSerif-6f" x="308.154297"/>
      <use xlink:href="#DejaVuSerif-6e" x="368.359375"/>
      <use xlink:href="#DejaVuSerif-20" x="432.763672"/>
      <use xlink:href="#DejaVuSerif-31" x="464.550781"/>
     </g>
    </g>
    <g id="line2d_38">
     <path d="M 686.693864 72.5225 
L 702.693864 72.5225 
L 718.693864 72.5225 
" style="fill: none; stroke-dasharray: 11.1,4.8; stroke-dashoffset: 0; stroke: #ff7f0e; stroke-width: 3"/>
    </g>
    <g id="text_15">
     <!-- Electron 2 -->
     <g transform="translate(731.493864 78.1225) scale(0.16 -0.16)">
      <use xlink:href="#DejaVuSerif-45"/>
      <use xlink:href="#DejaVuSerif-6c" x="72.998047"/>
      <use xlink:href="#DejaVuSerif-65" x="104.980469"/>
      <use xlink:href="#DejaVuSerif-63" x="164.160156"/>
      <use xlink:href="#DejaVuSerif-74" x="220.166016"/>
      <use xlink:href="#DejaVuSerif-72" x="260.351562"/>
      <use xlink:href="#DejaVuSerif-6f" x="308.154297"/>
      <use xlink:href="#DejaVuSerif-6e" x="368.359375"/>
      <use xlink:href="#DejaVuSerif-20" x="432.763672"/>
      <use xlink:href="#DejaVuSerif-32" x="464.550781"/>
     </g>
    </g>
    <g id="line2d_39">
     <path d="M 686.693864 96.0075 
L 702.693864 96.0075 
L 718.693864 96.0075 
" style="fill: none; stroke: #000000; stroke-width: 3; stroke-linecap: square"/>
    </g>
    <g id="text_16">
     <!-- Antiproton -->
     <g transform="translate(731.493864 101.6075) scale(0.16 -0.16)">
      <defs>
       <path id="DejaVuSerif-41" d="M 1281 1691 
L 2994 1691 
L 2138 3909 
L 1281 1691 
z
M -38 0 
L -38 331 
L 372 331 
L 2034 4666 
L 2559 4666 
L 4225 331 
L 4684 331 
L 4684 0 
L 2988 0 
L 2988 331 
L 3506 331 
L 3116 1356 
L 1153 1356 
L 763 331 
L 1275 331 
L 1275 0 
L -38 0 
z
" transform="scale(0.015625)"/>
       <path id="DejaVuSerif-69" d="M 622 4353 
Q 622 4497 726 4603 
Q 831 4709 978 4709 
Q 1122 4709 1226 4603 
Q 1331 4497 1331 4353 
Q 1331 4206 1228 4103 
Q 1125 4000 978 4000 
Q 831 4000 726 4103 
Q 622 4206 622 4353 
z
M 1356 331 
L 1900 331 
L 1900 0 
L 231 0 
L 231 331 
L 781 331 
L 781 2988 
L 231 2988 
L 231 3322 
L 1356 3322 
L 1356 331 
z
" transform="scale(0.015625)"/>
       <path id="DejaVuSerif-70" d="M 1313 1825 
L 1313 1497 
Q 1313 897 1542 583 
Q 1772 269 2209 269 
Q 2650 269 2876 622 
Q 3103 975 3103 1663 
Q 3103 2353 2876 2703 
Q 2650 3053 2209 3053 
Q 1772 3053 1542 2737 
Q 1313 2422 1313 1825 
z
M 738 2988 
L 184 2988 
L 184 3322 
L 1313 3322 
L 1313 2803 
Q 1481 3116 1742 3264 
Q 2003 3413 2388 3413 
Q 3000 3413 3387 2928 
Q 3775 2444 3775 1663 
Q 3775 881 3387 395 
Q 3000 -91 2388 -91 
Q 2003 -91 1742 57 
Q 1481 206 1313 519 
L 1313 -997 
L 1856 -997 
L 1856 -1331 
L 184 -1331 
L 184 -997 
L 738 -997 
L 738 2988 
z
" transform="scale(0.015625)"/>
      </defs>
      <use xlink:href="#DejaVuSerif-41"/>
      <use xlink:href="#DejaVuSerif-6e" x="72.216797"/>
      <use xlink:href="#DejaVuSerif-74" x="136.621094"/>
      <use xlink:href="#DejaVuSerif-69" x="176.806641"/>
      <use xlink:href="#DejaVuSerif-70" x="208.789062"/>
      <use xlink:href="#DejaVuSerif-72" x="272.802734"/>
      <use xlink:href="#DejaVuSerif-6f" x="320.605469"/>
      <use xlink:href="#DejaVuSerif-74" x="380.810547"/>
      <use xlink:href="#DejaVuSerif-6f" x="420.996094"/>
      <use xlink:href="#DejaVuSerif-6e" x="481.201172"/>
     </g>
    </g>
   </g>
  </g>
 </g>
 <defs>
  <clipPath id="pc2005f7d68">
   <rect x="114.16" y="28.08" width="719.031364" height="461.1525"/>
  </clipPath>
 </defs>
</svg>
