<?xml version="1.0" encoding="utf-8" standalone="no"?>
<!DOCTYPE svg PUBLIC "-//W3C//DTD SVG 1.1//EN"
  "http://www.w3.org/Graphics/SVG/1.1/DTD/svg11.dtd">
<svg xmlns:xlink="http://www.w3.org/1999/xlink" width="864pt" height="576pt" viewBox="0 0 864 576" xmlns="http://www.w3.org/2000/svg" version="1.1">
 <metadata>
  <rdf:RDF xmlns:dc="http://purl.org/dc/elements/1.1/" xmlns:cc="http://creativecommons.org/ns#" xmlns:rdf="http://www.w3.org/1999/02/22-rdf-syntax-ns#">
   <cc:Work>
    <dc:type rdf:resource="http://purl.org/dc/dcmitype/StillImage"/>
    <dc:date>2025-06-11T15:02:36.130644</dc:date>
    <dc:format>image/svg+xml</dc:format>
    <dc:creator>
     <cc:Agent>
      <dc:title>Matplotlib v3.7.2, https://matplotlib.org/</dc:title>
     </cc:Agent>
    </dc:creator>
   </cc:Work>
  </rdf:RDF>
 </metadata>
 <defs>
  <style type="text/css">*{stroke-linejoin: round; stroke-linecap: butt}</style>
 </defs>
 <g id="figure_1">
  <g id="patch_1">
   <path d="M 0 576 
L 864 576 
L 864 0 
L 0 0 
z
" style="fill: #ffffff"/>
  </g>
  <g id="axes_1">
   <g id="patch_2">
    <path d="M 114.16 489.2325 
L 826.97669 489.2325 
L 826.97669 28.08 
L 114.16 28.08 
z
" style="fill: #ffffff"/>
   </g>
   <g id="matplotlib.axis_1">
    <g id="xtick_1">
     <g id="line2d_1">
      <path d="M 140.275772 489.2325 
L 140.275772 28.08 
" clip-path="url(#p88d18ed634)" style="fill: none; stroke-dasharray: 3.7,1.6; stroke-dashoffset: 0; stroke: #b0b0b0; stroke-opacity: 0.5"/>
     </g>
     <g id="line2d_2">
      <defs>
       <path id="mb4fc497e08" d="M 0 0 
L 0 -10 
" style="stroke: #000000; stroke-width: 2"/>
      </defs>
      <g>
       <use xlink:href="#mb4fc497e08" x="140.275772" y="489.2325" style="stroke: #000000; stroke-width: 2"/>
      </g>
     </g>
     <g id="line2d_3">
      <defs>
       <path id="m35c007b186" d="M 0 0 
L 0 10 
" style="stroke: #000000; stroke-width: 2"/>
      </defs>
      <g>
       <use xlink:href="#m35c007b186" x="140.275772" y="28.08" style="stroke: #000000; stroke-width: 2"/>
      </g>
     </g>
     <g id="text_1">
      <!-- 0 -->
      <g transform="translate(132.004522 512.488438) scale(0.26 -0.26)">
       <defs>
        <path id="DejaVuSerif-30" d="M 2034 219 
Q 2513 219 2750 744 
Q 2988 1269 2988 2328 
Q 2988 3391 2750 3916 
Q 2513 4441 2034 4441 
Q 1556 4441 1318 3916 
Q 1081 3391 1081 2328 
Q 1081 1269 1318 744 
Q 1556 219 2034 219 
z
M 2034 -91 
Q 1275 -91 848 546 
Q 422 1184 422 2328 
Q 422 3475 848 4112 
Q 1275 4750 2034 4750 
Q 2797 4750 3222 4112 
Q 3647 3475 3647 2328 
Q 3647 1184 3222 546 
Q 2797 -91 2034 -91 
z
" transform="scale(0.015625)"/>
       </defs>
       <use xlink:href="#DejaVuSerif-30"/>
      </g>
     </g>
    </g>
    <g id="xtick_2">
     <g id="line2d_4">
      <path d="M 272.458959 489.2325 
L 272.458959 28.08 
" clip-path="url(#p88d18ed634)" style="fill: none; stroke-dasharray: 3.7,1.6; stroke-dashoffset: 0; stroke: #b0b0b0; stroke-opacity: 0.5"/>
     </g>
     <g id="line2d_5">
      <g>
       <use xlink:href="#mb4fc497e08" x="272.458959" y="489.2325" style="stroke: #000000; stroke-width: 2"/>
      </g>
     </g>
     <g id="line2d_6">
      <g>
       <use xlink:href="#m35c007b186" x="272.458959" y="28.08" style="stroke: #000000; stroke-width: 2"/>
      </g>
     </g>
     <g id="text_2">
      <!-- 500 -->
      <g transform="translate(247.645209 512.488438) scale(0.26 -0.26)">
       <defs>
        <path id="DejaVuSerif-35" d="M 3219 4666 
L 3219 4153 
L 1081 4153 
L 1081 2816 
Q 1244 2928 1461 2984 
Q 1678 3041 1947 3041 
Q 2703 3041 3140 2622 
Q 3578 2203 3578 1478 
Q 3578 738 3136 323 
Q 2694 -91 1894 -91 
Q 1572 -91 1234 -12 
Q 897 66 544 225 
L 544 1131 
L 897 1131 
Q 925 688 1179 453 
Q 1434 219 1894 219 
Q 2388 219 2653 544 
Q 2919 869 2919 1478 
Q 2919 2084 2655 2407 
Q 2391 2731 1894 2731 
Q 1613 2731 1398 2631 
Q 1184 2531 1019 2322 
L 750 2322 
L 750 4666 
L 3219 4666 
z
" transform="scale(0.015625)"/>
       </defs>
       <use xlink:href="#DejaVuSerif-35"/>
       <use xlink:href="#DejaVuSerif-30" x="63.623047"/>
       <use xlink:href="#DejaVuSerif-30" x="127.246094"/>
      </g>
     </g>
    </g>
    <g id="xtick_3">
     <g id="line2d_7">
      <path d="M 404.642146 489.2325 
L 404.642146 28.08 
" clip-path="url(#p88d18ed634)" style="fill: none; stroke-dasharray: 3.7,1.6; stroke-dashoffset: 0; stroke: #b0b0b0; stroke-opacity: 0.5"/>
     </g>
     <g id="line2d_8">
      <g>
       <use xlink:href="#mb4fc497e08" x="404.642146" y="489.2325" style="stroke: #000000; stroke-width: 2"/>
      </g>
     </g>
     <g id="line2d_9">
      <g>
       <use xlink:href="#m35c007b186" x="404.642146" y="28.08" style="stroke: #000000; stroke-width: 2"/>
      </g>
     </g>
     <g id="text_3">
      <!-- 1000 -->
      <g transform="translate(371.557146 512.488438) scale(0.26 -0.26)">
       <defs>
        <path id="DejaVuSerif-31" d="M 909 0 
L 909 331 
L 1722 331 
L 1722 4213 
L 781 3603 
L 781 4013 
L 1919 4750 
L 2350 4750 
L 2350 331 
L 3163 331 
L 3163 0 
L 909 0 
z
" transform="scale(0.015625)"/>
       </defs>
       <use xlink:href="#DejaVuSerif-31"/>
       <use xlink:href="#DejaVuSerif-30" x="63.623047"/>
       <use xlink:href="#DejaVuSerif-30" x="127.246094"/>
       <use xlink:href="#DejaVuSerif-30" x="190.869141"/>
      </g>
     </g>
    </g>
    <g id="xtick_4">
     <g id="line2d_10">
      <path d="M 536.825333 489.2325 
L 536.825333 28.08 
" clip-path="url(#p88d18ed634)" style="fill: none; stroke-dasharray: 3.7,1.6; stroke-dashoffset: 0; stroke: #b0b0b0; stroke-opacity: 0.5"/>
     </g>
     <g id="line2d_11">
      <g>
       <use xlink:href="#mb4fc497e08" x="536.825333" y="489.2325" style="stroke: #000000; stroke-width: 2"/>
      </g>
     </g>
     <g id="line2d_12">
      <g>
       <use xlink:href="#m35c007b186" x="536.825333" y="28.08" style="stroke: #000000; stroke-width: 2"/>
      </g>
     </g>
     <g id="text_4">
      <!-- 1500 -->
      <g transform="translate(503.740333 512.488438) scale(0.26 -0.26)">
       <use xlink:href="#DejaVuSerif-31"/>
       <use xlink:href="#DejaVuSerif-35" x="63.623047"/>
       <use xlink:href="#DejaVuSerif-30" x="127.246094"/>
       <use xlink:href="#DejaVuSerif-30" x="190.869141"/>
      </g>
     </g>
    </g>
    <g id="xtick_5">
     <g id="line2d_13">
      <path d="M 669.00852 489.2325 
L 669.00852 28.08 
" clip-path="url(#p88d18ed634)" style="fill: none; stroke-dasharray: 3.7,1.6; stroke-dashoffset: 0; stroke: #b0b0b0; stroke-opacity: 0.5"/>
     </g>
     <g id="line2d_14">
      <g>
       <use xlink:href="#mb4fc497e08" x="669.00852" y="489.2325" style="stroke: #000000; stroke-width: 2"/>
      </g>
     </g>
     <g id="line2d_15">
      <g>
       <use xlink:href="#m35c007b186" x="669.00852" y="28.08" style="stroke: #000000; stroke-width: 2"/>
      </g>
     </g>
     <g id="text_5">
      <!-- 2000 -->
      <g transform="translate(635.92352 512.488438) scale(0.26 -0.26)">
       <defs>
        <path id="DejaVuSerif-32" d="M 819 3553 
L 469 3553 
L 469 4384 
Q 803 4563 1142 4656 
Q 1481 4750 1806 4750 
Q 2534 4750 2956 4397 
Q 3378 4044 3378 3438 
Q 3378 2753 2422 1800 
Q 2347 1728 2309 1691 
L 1131 513 
L 3078 513 
L 3078 1088 
L 3444 1088 
L 3444 0 
L 434 0 
L 434 341 
L 1850 1753 
Q 2319 2222 2519 2614 
Q 2719 3006 2719 3438 
Q 2719 3909 2473 4175 
Q 2228 4441 1797 4441 
Q 1350 4441 1106 4219 
Q 863 3997 819 3553 
z
" transform="scale(0.015625)"/>
       </defs>
       <use xlink:href="#DejaVuSerif-32"/>
       <use xlink:href="#DejaVuSerif-30" x="63.623047"/>
       <use xlink:href="#DejaVuSerif-30" x="127.246094"/>
       <use xlink:href="#DejaVuSerif-30" x="190.869141"/>
      </g>
     </g>
    </g>
    <g id="xtick_6">
     <g id="line2d_16">
      <path d="M 801.191707 489.2325 
L 801.191707 28.08 
" clip-path="url(#p88d18ed634)" style="fill: none; stroke-dasharray: 3.7,1.6; stroke-dashoffset: 0; stroke: #b0b0b0; stroke-opacity: 0.5"/>
     </g>
     <g id="line2d_17">
      <g>
       <use xlink:href="#mb4fc497e08" x="801.191707" y="489.2325" style="stroke: #000000; stroke-width: 2"/>
      </g>
     </g>
     <g id="line2d_18">
      <g>
       <use xlink:href="#m35c007b186" x="801.191707" y="28.08" style="stroke: #000000; stroke-width: 2"/>
      </g>
     </g>
     <g id="text_6">
      <!-- 2500 -->
      <g transform="translate(768.106707 512.488438) scale(0.26 -0.26)">
       <use xlink:href="#DejaVuSerif-32"/>
       <use xlink:href="#DejaVuSerif-35" x="63.623047"/>
       <use xlink:href="#DejaVuSerif-30" x="127.246094"/>
       <use xlink:href="#DejaVuSerif-30" x="190.869141"/>
      </g>
     </g>
    </g>
    <g id="text_7">
     <!-- $t$ (a.u.) -->
     <g transform="translate(427.148345 541.651562) scale(0.26 -0.26)">
      <defs>
       <path id="Cmmi10-74" d="M 397 519 
Q 397 613 416 697 
L 878 2534 
L 206 2534 
Q 141 2534 141 2619 
Q 166 2759 225 2759 
L 934 2759 
L 1191 3803 
Q 1216 3888 1291 3947 
Q 1366 4006 1459 4006 
Q 1541 4006 1595 3957 
Q 1650 3909 1650 3828 
Q 1650 3809 1648 3798 
Q 1647 3788 1644 3775 
L 1388 2759 
L 2047 2759 
Q 2113 2759 2113 2675 
Q 2109 2659 2100 2621 
Q 2091 2584 2075 2559 
Q 2059 2534 2028 2534 
L 1331 2534 
L 872 684 
Q 825 503 825 372 
Q 825 97 1013 97 
Q 1294 97 1511 361 
Q 1728 625 1844 941 
Q 1869 978 1894 978 
L 1972 978 
Q 1997 978 2012 961 
Q 2028 944 2028 922 
Q 2028 909 2022 903 
Q 1881 516 1612 222 
Q 1344 -72 997 -72 
Q 744 -72 570 93 
Q 397 259 397 519 
z
" transform="scale(0.015625)"/>
       <path id="DejaVuSerif-20" transform="scale(0.015625)"/>
       <path id="DejaVuSerif-28" d="M 2041 -997 
Q 1281 -656 893 83 
Q 506 822 506 1931 
Q 506 3044 893 3783 
Q 1281 4522 2041 4863 
L 2041 4556 
Q 1559 4225 1350 3623 
Q 1141 3022 1141 1931 
Q 1141 844 1350 242 
Q 1559 -359 2041 -691 
L 2041 -997 
z
" transform="scale(0.015625)"/>
       <path id="DejaVuSerif-61" d="M 2547 1044 
L 2547 1747 
L 1806 1747 
Q 1378 1747 1168 1562 
Q 959 1378 959 997 
Q 959 650 1171 447 
Q 1384 244 1747 244 
Q 2106 244 2326 466 
Q 2547 688 2547 1044 
z
M 3122 2075 
L 3122 331 
L 3634 331 
L 3634 0 
L 2547 0 
L 2547 359 
Q 2356 128 2106 18 
Q 1856 -91 1522 -91 
Q 969 -91 644 203 
Q 319 497 319 997 
Q 319 1513 691 1797 
Q 1063 2081 1741 2081 
L 2547 2081 
L 2547 2309 
Q 2547 2688 2317 2895 
Q 2088 3103 1672 3103 
Q 1328 3103 1125 2947 
Q 922 2791 872 2484 
L 575 2484 
L 575 3156 
Q 875 3284 1158 3348 
Q 1441 3413 1709 3413 
Q 2400 3413 2761 3070 
Q 3122 2728 3122 2075 
z
" transform="scale(0.015625)"/>
       <path id="DejaVuSerif-2e" d="M 603 325 
Q 603 500 722 622 
Q 841 744 1019 744 
Q 1191 744 1312 622 
Q 1434 500 1434 325 
Q 1434 153 1312 31 
Q 1191 -91 1019 -91 
Q 841 -91 722 29 
Q 603 150 603 325 
z
" transform="scale(0.015625)"/>
       <path id="DejaVuSerif-75" d="M 2266 3322 
L 3341 3322 
L 3341 331 
L 3884 331 
L 3884 0 
L 2766 0 
L 2766 588 
Q 2606 256 2353 82 
Q 2100 -91 1766 -91 
Q 1213 -91 952 223 
Q 691 538 691 1209 
L 691 2988 
L 172 2988 
L 172 3322 
L 1269 3322 
L 1269 1388 
Q 1269 781 1417 556 
Q 1566 331 1947 331 
Q 2347 331 2556 625 
Q 2766 919 2766 1478 
L 2766 2988 
L 2266 2988 
L 2266 3322 
z
" transform="scale(0.015625)"/>
       <path id="DejaVuSerif-29" d="M 453 -997 
L 453 -691 
Q 934 -359 1145 242 
Q 1356 844 1356 1931 
Q 1356 3022 1145 3623 
Q 934 4225 453 4556 
L 453 4863 
Q 1216 4522 1603 3783 
Q 1991 3044 1991 1931 
Q 1991 822 1603 83 
Q 1216 -656 453 -997 
z
" transform="scale(0.015625)"/>
      </defs>
      <use xlink:href="#Cmmi10-74" transform="translate(0 0.015625)"/>
      <use xlink:href="#DejaVuSerif-20" transform="translate(36.083984 0.015625)"/>
      <use xlink:href="#DejaVuSerif-28" transform="translate(67.871094 0.015625)"/>
      <use xlink:href="#DejaVuSerif-61" transform="translate(106.884766 0.015625)"/>
      <use xlink:href="#DejaVuSerif-2e" transform="translate(166.503906 0.015625)"/>
      <use xlink:href="#DejaVuSerif-75" transform="translate(198.291016 0.015625)"/>
      <use xlink:href="#DejaVuSerif-2e" transform="translate(262.695312 0.015625)"/>
      <use xlink:href="#DejaVuSerif-29" transform="translate(294.482422 0.015625)"/>
     </g>
    </g>
   </g>
   <g id="matplotlib.axis_2">
    <g id="ytick_1">
     <g id="line2d_19">
      <path d="M 114.16 408.309414 
L 826.97669 408.309414 
" clip-path="url(#p88d18ed634)" style="fill: none; stroke-dasharray: 3.7,1.6; stroke-dashoffset: 0; stroke: #b0b0b0; stroke-opacity: 0.5"/>
     </g>
     <g id="line2d_20">
      <defs>
       <path id="mdf338cd873" d="M 0 0 
L 10 0 
" style="stroke: #000000; stroke-width: 2"/>
      </defs>
      <g>
       <use xlink:href="#mdf338cd873" x="114.16" y="408.309414" style="stroke: #000000; stroke-width: 2"/>
      </g>
     </g>
     <g id="line2d_21">
      <defs>
       <path id="m88e73150ed" d="M 0 0 
L -10 0 
" style="stroke: #000000; stroke-width: 2"/>
      </defs>
      <g>
       <use xlink:href="#m88e73150ed" x="826.97669" y="408.309414" style="stroke: #000000; stroke-width: 2"/>
      </g>
     </g>
     <g id="text_8">
      <!-- 2 -->
      <g transform="translate(94.1175 418.187382) scale(0.26 -0.26)">
       <use xlink:href="#DejaVuSerif-32"/>
      </g>
     </g>
    </g>
    <g id="ytick_2">
     <g id="line2d_22">
      <path d="M 114.16 323.81452 
L 826.97669 323.81452 
" clip-path="url(#p88d18ed634)" style="fill: none; stroke-dasharray: 3.7,1.6; stroke-dashoffset: 0; stroke: #b0b0b0; stroke-opacity: 0.5"/>
     </g>
     <g id="line2d_23">
      <g>
       <use xlink:href="#mdf338cd873" x="114.16" y="323.81452" style="stroke: #000000; stroke-width: 2"/>
      </g>
     </g>
     <g id="line2d_24">
      <g>
       <use xlink:href="#m88e73150ed" x="826.97669" y="323.81452" style="stroke: #000000; stroke-width: 2"/>
      </g>
     </g>
     <g id="text_9">
      <!-- 4 -->
      <g transform="translate(94.1175 333.692489) scale(0.26 -0.26)">
       <defs>
        <path id="DejaVuSerif-34" d="M 2234 1581 
L 2234 4063 
L 641 1581 
L 2234 1581 
z
M 3609 0 
L 1484 0 
L 1484 331 
L 2234 331 
L 2234 1247 
L 197 1247 
L 197 1588 
L 2241 4750 
L 2859 4750 
L 2859 1581 
L 3750 1581 
L 3750 1247 
L 2859 1247 
L 2859 331 
L 3609 331 
L 3609 0 
z
" transform="scale(0.015625)"/>
       </defs>
       <use xlink:href="#DejaVuSerif-34"/>
      </g>
     </g>
    </g>
    <g id="ytick_3">
     <g id="line2d_25">
      <path d="M 114.16 239.319626 
L 826.97669 239.319626 
" clip-path="url(#p88d18ed634)" style="fill: none; stroke-dasharray: 3.7,1.6; stroke-dashoffset: 0; stroke: #b0b0b0; stroke-opacity: 0.5"/>
     </g>
     <g id="line2d_26">
      <g>
       <use xlink:href="#mdf338cd873" x="114.16" y="239.319626" style="stroke: #000000; stroke-width: 2"/>
      </g>
     </g>
     <g id="line2d_27">
      <g>
       <use xlink:href="#m88e73150ed" x="826.97669" y="239.319626" style="stroke: #000000; stroke-width: 2"/>
      </g>
     </g>
     <g id="text_10">
      <!-- 6 -->
      <g transform="translate(94.1175 249.197595) scale(0.26 -0.26)">
       <defs>
        <path id="DejaVuSerif-36" d="M 2094 219 
Q 2534 219 2771 542 
Q 3009 866 3009 1472 
Q 3009 2078 2771 2401 
Q 2534 2725 2094 2725 
Q 1647 2725 1412 2412 
Q 1178 2100 1178 1509 
Q 1178 888 1415 553 
Q 1653 219 2094 219 
z
M 1075 2569 
Q 1288 2803 1556 2918 
Q 1825 3034 2163 3034 
Q 2859 3034 3264 2615 
Q 3669 2197 3669 1472 
Q 3669 763 3233 336 
Q 2797 -91 2069 -91 
Q 1278 -91 853 498 
Q 428 1088 428 2181 
Q 428 3406 931 4078 
Q 1434 4750 2350 4750 
Q 2597 4750 2869 4703 
Q 3141 4656 3425 4563 
L 3425 3794 
L 3072 3794 
Q 3034 4109 2831 4275 
Q 2628 4441 2284 4441 
Q 1678 4441 1381 3981 
Q 1084 3522 1075 2569 
z
" transform="scale(0.015625)"/>
       </defs>
       <use xlink:href="#DejaVuSerif-36"/>
      </g>
     </g>
    </g>
    <g id="ytick_4">
     <g id="line2d_28">
      <path d="M 114.16 154.824732 
L 826.97669 154.824732 
" clip-path="url(#p88d18ed634)" style="fill: none; stroke-dasharray: 3.7,1.6; stroke-dashoffset: 0; stroke: #b0b0b0; stroke-opacity: 0.5"/>
     </g>
     <g id="line2d_29">
      <g>
       <use xlink:href="#mdf338cd873" x="114.16" y="154.824732" style="stroke: #000000; stroke-width: 2"/>
      </g>
     </g>
     <g id="line2d_30">
      <g>
       <use xlink:href="#m88e73150ed" x="826.97669" y="154.824732" style="stroke: #000000; stroke-width: 2"/>
      </g>
     </g>
     <g id="text_11">
      <!-- 8 -->
      <g transform="translate(94.1175 164.702701) scale(0.26 -0.26)">
       <defs>
        <path id="DejaVuSerif-38" d="M 2981 1275 
Q 2981 1775 2732 2051 
Q 2484 2328 2034 2328 
Q 1584 2328 1336 2051 
Q 1088 1775 1088 1275 
Q 1088 772 1336 495 
Q 1584 219 2034 219 
Q 2484 219 2732 495 
Q 2981 772 2981 1275 
z
M 2853 3541 
Q 2853 3966 2637 4203 
Q 2422 4441 2034 4441 
Q 1650 4441 1433 4203 
Q 1216 3966 1216 3541 
Q 1216 3113 1433 2875 
Q 1650 2638 2034 2638 
Q 2422 2638 2637 2875 
Q 2853 3113 2853 3541 
z
M 2516 2484 
Q 3047 2413 3344 2092 
Q 3641 1772 3641 1275 
Q 3641 619 3225 264 
Q 2809 -91 2034 -91 
Q 1263 -91 845 264 
Q 428 619 428 1275 
Q 428 1772 725 2092 
Q 1022 2413 1556 2484 
Q 1084 2569 832 2842 
Q 581 3116 581 3541 
Q 581 4103 968 4426 
Q 1356 4750 2034 4750 
Q 2713 4750 3100 4426 
Q 3488 4103 3488 3541 
Q 3488 3116 3236 2842 
Q 2984 2569 2516 2484 
z
" transform="scale(0.015625)"/>
       </defs>
       <use xlink:href="#DejaVuSerif-38"/>
      </g>
     </g>
    </g>
    <g id="ytick_5">
     <g id="line2d_31">
      <path d="M 114.16 70.329839 
L 826.97669 70.329839 
" clip-path="url(#p88d18ed634)" style="fill: none; stroke-dasharray: 3.7,1.6; stroke-dashoffset: 0; stroke: #b0b0b0; stroke-opacity: 0.5"/>
     </g>
     <g id="line2d_32">
      <g>
       <use xlink:href="#mdf338cd873" x="114.16" y="70.329839" style="stroke: #000000; stroke-width: 2"/>
      </g>
     </g>
     <g id="line2d_33">
      <g>
       <use xlink:href="#m88e73150ed" x="826.97669" y="70.329839" style="stroke: #000000; stroke-width: 2"/>
      </g>
     </g>
     <g id="text_12">
      <!-- 10 -->
      <g transform="translate(77.575 80.207807) scale(0.26 -0.26)">
       <use xlink:href="#DejaVuSerif-31"/>
       <use xlink:href="#DejaVuSerif-30" x="63.623047"/>
      </g>
     </g>
    </g>
    <g id="text_13">
     <!-- $|\vec{r}_i|$ (a.u.) -->
     <g transform="translate(67.075 314.94625) rotate(-90) scale(0.26 -0.26)">
      <defs>
       <path id="Cmsy10-6a" d="M 763 -1484 
L 763 4684 
Q 763 4734 800 4767 
Q 838 4800 891 4800 
Q 938 4800 978 4767 
Q 1019 4734 1019 4684 
L 1019 -1484 
Q 1019 -1534 978 -1567 
Q 938 -1600 891 -1600 
Q 838 -1600 800 -1567 
Q 763 -1534 763 -1484 
z
" transform="scale(0.015625)"/>
       <path id="Cmmi10-7e" d="M 1281 3809 
Q 1231 3809 1198 3846 
Q 1166 3884 1166 3938 
Q 1166 3984 1198 4023 
Q 1231 4063 1281 4063 
L 3547 4063 
Q 3378 4291 3378 4441 
Q 3378 4497 3417 4533 
Q 3456 4569 3506 4569 
Q 3613 4569 3634 4469 
Q 3697 4194 3938 4044 
Q 4000 4003 4000 3938 
Q 4000 3859 3938 3828 
Q 3575 3647 3353 3347 
Q 3328 3303 3256 3303 
Q 3209 3303 3168 3340 
Q 3128 3378 3128 3431 
Q 3128 3547 3438 3809 
L 1281 3809 
z
" transform="scale(0.015625)"/>
       <path id="Cmmi10-72" d="M 494 109 
Q 494 147 500 166 
L 978 2075 
Q 1025 2253 1025 2388 
Q 1025 2663 838 2663 
Q 638 2663 541 2423 
Q 444 2184 353 1819 
Q 353 1800 334 1789 
Q 316 1778 300 1778 
L 225 1778 
Q 203 1778 187 1801 
Q 172 1825 172 1844 
Q 241 2122 305 2315 
Q 369 2509 505 2668 
Q 641 2828 844 2828 
Q 1066 2828 1233 2700 
Q 1400 2572 1441 2363 
Q 1603 2575 1811 2701 
Q 2019 2828 2266 2828 
Q 2469 2828 2623 2709 
Q 2778 2591 2778 2388 
Q 2778 2225 2676 2104 
Q 2575 1984 2406 1984 
Q 2303 1984 2233 2048 
Q 2163 2113 2163 2216 
Q 2163 2356 2266 2467 
Q 2369 2578 2503 2578 
Q 2400 2663 2253 2663 
Q 1978 2663 1775 2467 
Q 1572 2272 1409 1972 
L 953 141 
Q 931 53 854 -9 
Q 778 -72 684 -72 
Q 606 -72 550 -22 
Q 494 28 494 109 
z
" transform="scale(0.015625)"/>
       <path id="Cmmi10-69" d="M 500 459 
Q 500 578 550 709 
L 1069 2088 
Q 1153 2322 1153 2472 
Q 1153 2663 1013 2663 
Q 759 2663 595 2402 
Q 431 2141 353 1819 
Q 341 1778 300 1778 
L 225 1778 
Q 172 1778 172 1838 
L 172 1856 
Q 275 2238 487 2533 
Q 700 2828 1025 2828 
Q 1253 2828 1411 2678 
Q 1569 2528 1569 2297 
Q 1569 2178 1516 2047 
L 997 672 
Q 909 459 909 288 
Q 909 97 1056 97 
Q 1306 97 1473 364 
Q 1641 631 1709 941 
Q 1722 978 1759 978 
L 1838 978 
Q 1863 978 1878 961 
Q 1894 944 1894 922 
Q 1894 916 1888 903 
Q 1800 541 1583 234 
Q 1366 -72 1044 -72 
Q 819 -72 659 83 
Q 500 238 500 459 
z
M 1222 3878 
Q 1222 4013 1334 4122 
Q 1447 4231 1581 4231 
Q 1691 4231 1761 4164 
Q 1831 4097 1831 3994 
Q 1831 3850 1717 3742 
Q 1603 3634 1466 3634 
Q 1363 3634 1292 3704 
Q 1222 3775 1222 3878 
z
" transform="scale(0.015625)"/>
      </defs>
      <use xlink:href="#Cmsy10-6a" transform="translate(0 0.53125)"/>
      <use xlink:href="#Cmmi10-7e" transform="translate(15.746094 5.609375)"/>
      <use xlink:href="#Cmmi10-72" transform="translate(27.685547 0.53125)"/>
      <use xlink:href="#Cmmi10-69" transform="translate(77.266875 -16.475) scale(0.7)"/>
      <use xlink:href="#Cmsy10-6a" transform="translate(107.740898 0.53125)"/>
      <use xlink:href="#DejaVuSerif-20" transform="translate(135.426445 0.53125)"/>
      <use xlink:href="#DejaVuSerif-28" transform="translate(167.213555 0.53125)"/>
      <use xlink:href="#DejaVuSerif-61" transform="translate(206.227227 0.53125)"/>
      <use xlink:href="#DejaVuSerif-2e" transform="translate(265.846367 0.53125)"/>
      <use xlink:href="#DejaVuSerif-75" transform="translate(297.633477 0.53125)"/>
      <use xlink:href="#DejaVuSerif-2e" transform="translate(362.037773 0.53125)"/>
      <use xlink:href="#DejaVuSerif-29" transform="translate(393.824883 0.53125)"/>
     </g>
    </g>
   </g>
   <g id="line2d_34">
    <path d="M 146.560759 468.600936 
L 159.792309 468.454556 
L 173.023859 468.553723 
L 186.255409 468.709 
L 199.48696 468.26483 
L 212.71851 464.709092 
L 222.675218 -1 
" clip-path="url(#p88d18ed634)" style="fill: none; stroke: #1f77b4; stroke-width: 3; stroke-linecap: square"/>
    <defs>
     <path id="m3a0193c47c" d="M 0 3 
C 0.795609 3 1.55874 2.683901 2.12132 2.12132 
C 2.683901 1.55874 3 0.795609 3 0 
C 3 -0.795609 2.683901 -1.55874 2.12132 -2.12132 
C 1.55874 -2.683901 0.795609 -3 0 -3 
C -0.795609 -3 -1.55874 -2.683901 -2.12132 -2.12132 
C -2.683901 -1.55874 -3 -0.795609 -3 0 
C -3 0.795609 -2.683901 1.55874 -2.12132 2.12132 
C -1.55874 2.683901 -0.795609 3 0 3 
z
" style="stroke: #1f77b4"/>
    </defs>
    <g clip-path="url(#p88d18ed634)">
     <use xlink:href="#m3a0193c47c" x="146.560759" y="468.600936" style="fill: #1f77b4; stroke: #1f77b4"/>
     <use xlink:href="#m3a0193c47c" x="159.792309" y="468.454556" style="fill: #1f77b4; stroke: #1f77b4"/>
     <use xlink:href="#m3a0193c47c" x="173.023859" y="468.553723" style="fill: #1f77b4; stroke: #1f77b4"/>
     <use xlink:href="#m3a0193c47c" x="186.255409" y="468.709" style="fill: #1f77b4; stroke: #1f77b4"/>
     <use xlink:href="#m3a0193c47c" x="199.48696" y="468.26483" style="fill: #1f77b4; stroke: #1f77b4"/>
     <use xlink:href="#m3a0193c47c" x="212.71851" y="464.709092" style="fill: #1f77b4; stroke: #1f77b4"/>
     <use xlink:href="#m3a0193c47c" x="222.675218" y="-1" style="fill: #1f77b4; stroke: #1f77b4"/>
    </g>
   </g>
   <g id="line2d_35">
    <path d="M 146.560759 468.667425 
L 159.792309 468.655019 
L 173.023859 468.62729 
L 186.255409 468.667329 
L 199.48696 468.442793 
L 212.71851 465.288559 
L 225.95006 470.48967 
L 239.18161 471.369327 
L 252.413161 471.346232 
L 265.644711 471.02951 
L 278.876261 471.210266 
L 292.107811 471.394354 
L 305.339361 471.709789 
L 318.570912 470.365529 
L 331.802462 468.700501 
L 345.034012 470.488553 
L 358.265562 470.142861 
L 371.497113 470.833708 
L 384.728663 469.302178 
L 397.960213 470.58567 
L 411.191763 469.890665 
L 424.423314 468.806233 
L 437.654864 468.736073 
L 450.886414 471.833392 
L 464.117964 469.744854 
L 477.349515 469.60207 
L 490.581065 470.363035 
L 503.812615 467.458691 
L 517.044165 465.001776 
L 530.275715 468.184626 
L 543.507266 470.50308 
L 556.738816 470.993089 
L 569.970366 472.208049 
L 583.201916 470.405171 
L 596.433467 471.587228 
L 609.665017 465.063743 
L 622.896567 471.256594 
L 636.128117 470.464371 
L 649.359668 462.714655 
L 662.591218 460.880919 
L 675.822768 468.027089 
L 689.054318 465.810107 
L 702.285869 466.834858 
L 715.517419 457.495008 
L 728.748969 468.816128 
L 741.980519 463.984206 
L 755.21207 457.336177 
L 768.44362 455.43967 
L 781.67517 437.407841 
L 794.575931 346.86569 
" clip-path="url(#p88d18ed634)" style="fill: none; stroke-dasharray: 11.1,4.8; stroke-dashoffset: 0; stroke: #ff7f0e; stroke-width: 3"/>
    <defs>
     <path id="m20dc9c4c8c" d="M 0 3 
C 0.795609 3 1.55874 2.683901 2.12132 2.12132 
C 2.683901 1.55874 3 0.795609 3 0 
C 3 -0.795609 2.683901 -1.55874 2.12132 -2.12132 
C 1.55874 -2.683901 0.795609 -3 0 -3 
C -0.795609 -3 -1.55874 -2.683901 -2.12132 -2.12132 
C -2.683901 -1.55874 -3 -0.795609 -3 0 
C -3 0.795609 -2.683901 1.55874 -2.12132 2.12132 
C -1.55874 2.683901 -0.795609 3 0 3 
z
" style="stroke: #ff7f0e"/>
    </defs>
    <g clip-path="url(#p88d18ed634)">
     <use xlink:href="#m20dc9c4c8c" x="146.560759" y="468.667425" style="fill: #ff7f0e; stroke: #ff7f0e"/>
     <use xlink:href="#m20dc9c4c8c" x="159.792309" y="468.655019" style="fill: #ff7f0e; stroke: #ff7f0e"/>
     <use xlink:href="#m20dc9c4c8c" x="173.023859" y="468.62729" style="fill: #ff7f0e; stroke: #ff7f0e"/>
     <use xlink:href="#m20dc9c4c8c" x="186.255409" y="468.667329" style="fill: #ff7f0e; stroke: #ff7f0e"/>
     <use xlink:href="#m20dc9c4c8c" x="199.48696" y="468.442793" style="fill: #ff7f0e; stroke: #ff7f0e"/>
     <use xlink:href="#m20dc9c4c8c" x="212.71851" y="465.288559" style="fill: #ff7f0e; stroke: #ff7f0e"/>
     <use xlink:href="#m20dc9c4c8c" x="225.95006" y="470.48967" style="fill: #ff7f0e; stroke: #ff7f0e"/>
     <use xlink:href="#m20dc9c4c8c" x="239.18161" y="471.369327" style="fill: #ff7f0e; stroke: #ff7f0e"/>
     <use xlink:href="#m20dc9c4c8c" x="252.413161" y="471.346232" style="fill: #ff7f0e; stroke: #ff7f0e"/>
     <use xlink:href="#m20dc9c4c8c" x="265.644711" y="471.02951" style="fill: #ff7f0e; stroke: #ff7f0e"/>
     <use xlink:href="#m20dc9c4c8c" x="278.876261" y="471.210266" style="fill: #ff7f0e; stroke: #ff7f0e"/>
     <use xlink:href="#m20dc9c4c8c" x="292.107811" y="471.394354" style="fill: #ff7f0e; stroke: #ff7f0e"/>
     <use xlink:href="#m20dc9c4c8c" x="305.339361" y="471.709789" style="fill: #ff7f0e; stroke: #ff7f0e"/>
     <use xlink:href="#m20dc9c4c8c" x="318.570912" y="470.365529" style="fill: #ff7f0e; stroke: #ff7f0e"/>
     <use xlink:href="#m20dc9c4c8c" x="331.802462" y="468.700501" style="fill: #ff7f0e; stroke: #ff7f0e"/>
     <use xlink:href="#m20dc9c4c8c" x="345.034012" y="470.488553" style="fill: #ff7f0e; stroke: #ff7f0e"/>
     <use xlink:href="#m20dc9c4c8c" x="358.265562" y="470.142861" style="fill: #ff7f0e; stroke: #ff7f0e"/>
     <use xlink:href="#m20dc9c4c8c" x="371.497113" y="470.833708" style="fill: #ff7f0e; stroke: #ff7f0e"/>
     <use xlink:href="#m20dc9c4c8c" x="384.728663" y="469.302178" style="fill: #ff7f0e; stroke: #ff7f0e"/>
     <use xlink:href="#m20dc9c4c8c" x="397.960213" y="470.58567" style="fill: #ff7f0e; stroke: #ff7f0e"/>
     <use xlink:href="#m20dc9c4c8c" x="411.191763" y="469.890665" style="fill: #ff7f0e; stroke: #ff7f0e"/>
     <use xlink:href="#m20dc9c4c8c" x="424.423314" y="468.806233" style="fill: #ff7f0e; stroke: #ff7f0e"/>
     <use xlink:href="#m20dc9c4c8c" x="437.654864" y="468.736073" style="fill: #ff7f0e; stroke: #ff7f0e"/>
     <use xlink:href="#m20dc9c4c8c" x="450.886414" y="471.833392" style="fill: #ff7f0e; stroke: #ff7f0e"/>
     <use xlink:href="#m20dc9c4c8c" x="464.117964" y="469.744854" style="fill: #ff7f0e; stroke: #ff7f0e"/>
     <use xlink:href="#m20dc9c4c8c" x="477.349515" y="469.60207" style="fill: #ff7f0e; stroke: #ff7f0e"/>
     <use xlink:href="#m20dc9c4c8c" x="490.581065" y="470.363035" style="fill: #ff7f0e; stroke: #ff7f0e"/>
     <use xlink:href="#m20dc9c4c8c" x="503.812615" y="467.458691" style="fill: #ff7f0e; stroke: #ff7f0e"/>
     <use xlink:href="#m20dc9c4c8c" x="517.044165" y="465.001776" style="fill: #ff7f0e; stroke: #ff7f0e"/>
     <use xlink:href="#m20dc9c4c8c" x="530.275715" y="468.184626" style="fill: #ff7f0e; stroke: #ff7f0e"/>
     <use xlink:href="#m20dc9c4c8c" x="543.507266" y="470.50308" style="fill: #ff7f0e; stroke: #ff7f0e"/>
     <use xlink:href="#m20dc9c4c8c" x="556.738816" y="470.993089" style="fill: #ff7f0e; stroke: #ff7f0e"/>
     <use xlink:href="#m20dc9c4c8c" x="569.970366" y="472.208049" style="fill: #ff7f0e; stroke: #ff7f0e"/>
     <use xlink:href="#m20dc9c4c8c" x="583.201916" y="470.405171" style="fill: #ff7f0e; stroke: #ff7f0e"/>
     <use xlink:href="#m20dc9c4c8c" x="596.433467" y="471.587228" style="fill: #ff7f0e; stroke: #ff7f0e"/>
     <use xlink:href="#m20dc9c4c8c" x="609.665017" y="465.063743" style="fill: #ff7f0e; stroke: #ff7f0e"/>
     <use xlink:href="#m20dc9c4c8c" x="622.896567" y="471.256594" style="fill: #ff7f0e; stroke: #ff7f0e"/>
     <use xlink:href="#m20dc9c4c8c" x="636.128117" y="470.464371" style="fill: #ff7f0e; stroke: #ff7f0e"/>
     <use xlink:href="#m20dc9c4c8c" x="649.359668" y="462.714655" style="fill: #ff7f0e; stroke: #ff7f0e"/>
     <use xlink:href="#m20dc9c4c8c" x="662.591218" y="460.880919" style="fill: #ff7f0e; stroke: #ff7f0e"/>
     <use xlink:href="#m20dc9c4c8c" x="675.822768" y="468.027089" style="fill: #ff7f0e; stroke: #ff7f0e"/>
     <use xlink:href="#m20dc9c4c8c" x="689.054318" y="465.810107" style="fill: #ff7f0e; stroke: #ff7f0e"/>
     <use xlink:href="#m20dc9c4c8c" x="702.285869" y="466.834858" style="fill: #ff7f0e; stroke: #ff7f0e"/>
     <use xlink:href="#m20dc9c4c8c" x="715.517419" y="457.495008" style="fill: #ff7f0e; stroke: #ff7f0e"/>
     <use xlink:href="#m20dc9c4c8c" x="728.748969" y="468.816128" style="fill: #ff7f0e; stroke: #ff7f0e"/>
     <use xlink:href="#m20dc9c4c8c" x="741.980519" y="463.984206" style="fill: #ff7f0e; stroke: #ff7f0e"/>
     <use xlink:href="#m20dc9c4c8c" x="755.21207" y="457.336177" style="fill: #ff7f0e; stroke: #ff7f0e"/>
     <use xlink:href="#m20dc9c4c8c" x="768.44362" y="455.43967" style="fill: #ff7f0e; stroke: #ff7f0e"/>
     <use xlink:href="#m20dc9c4c8c" x="781.67517" y="437.407841" style="fill: #ff7f0e; stroke: #ff7f0e"/>
     <use xlink:href="#m20dc9c4c8c" x="794.575931" y="346.86569" style="fill: #ff7f0e; stroke: #ff7f0e"/>
    </g>
   </g>
   <g id="line2d_36">
    <path d="M 146.560759 103.476507 
L 159.792309 173.271988 
L 173.023859 243.098766 
L 186.255409 313.021169 
L 199.48696 383.361555 
L 212.71851 456.760437 
L 225.95006 424.85714 
L 239.18161 391.280291 
L 252.413161 372.581502 
L 265.644711 363.90331 
L 278.876261 363.491448 
L 292.107811 371.417491 
L 305.339361 389.271706 
L 318.570912 421.621032 
L 331.802462 457.444543 
L 345.034012 413.852656 
L 358.265562 391.369248 
L 371.497113 382.189809 
L 384.728663 384.612224 
L 397.960213 398.630005 
L 411.191763 428.761258 
L 424.423314 457.594028 
L 437.654864 411.010049 
L 450.886414 390.756047 
L 464.117964 383.004209 
L 477.349515 386.48245 
L 490.581065 402.997393 
L 503.812615 439.103203 
L 517.044165 442.695346 
L 530.275715 404.59015 
L 543.507266 387.19014 
L 556.738816 381.678511 
L 569.970366 386.427668 
L 583.201916 402.937111 
L 596.433467 436.83014 
L 609.665017 446.977905 
L 622.896567 414.653336 
L 636.128117 409.394569 
L 649.359668 426.563318 
L 662.591218 458.274703 
L 675.822768 422.034716 
L 689.054318 411.317686 
L 702.285869 421.123803 
L 715.517419 458.472058 
L 728.748969 431.988512 
L 741.980519 425.050494 
L 755.21207 457.579513 
L 768.44362 442.261293 
L 781.67517 460.037157 
L 794.575931 456.21278 
" clip-path="url(#p88d18ed634)" style="fill: none; stroke: #000000; stroke-width: 3; stroke-linecap: square"/>
    <defs>
     <path id="m1dd426d1c3" d="M 0 3 
C 0.795609 3 1.55874 2.683901 2.12132 2.12132 
C 2.683901 1.55874 3 0.795609 3 0 
C 3 -0.795609 2.683901 -1.55874 2.12132 -2.12132 
C 1.55874 -2.683901 0.795609 -3 0 -3 
C -0.795609 -3 -1.55874 -2.683901 -2.12132 -2.12132 
C -2.683901 -1.55874 -3 -0.795609 -3 0 
C -3 0.795609 -2.683901 1.55874 -2.12132 2.12132 
C -1.55874 2.683901 -0.795609 3 0 3 
z
" style="stroke: #000000"/>
    </defs>
    <g clip-path="url(#p88d18ed634)">
     <use xlink:href="#m1dd426d1c3" x="146.560759" y="103.476507" style="stroke: #000000"/>
     <use xlink:href="#m1dd426d1c3" x="159.792309" y="173.271988" style="stroke: #000000"/>
     <use xlink:href="#m1dd426d1c3" x="173.023859" y="243.098766" style="stroke: #000000"/>
     <use xlink:href="#m1dd426d1c3" x="186.255409" y="313.021169" style="stroke: #000000"/>
     <use xlink:href="#m1dd426d1c3" x="199.48696" y="383.361555" style="stroke: #000000"/>
     <use xlink:href="#m1dd426d1c3" x="212.71851" y="456.760437" style="stroke: #000000"/>
     <use xlink:href="#m1dd426d1c3" x="225.95006" y="424.85714" style="stroke: #000000"/>
     <use xlink:href="#m1dd426d1c3" x="239.18161" y="391.280291" style="stroke: #000000"/>
     <use xlink:href="#m1dd426d1c3" x="252.413161" y="372.581502" style="stroke: #000000"/>
     <use xlink:href="#m1dd426d1c3" x="265.644711" y="363.90331" style="stroke: #000000"/>
     <use xlink:href="#m1dd426d1c3" x="278.876261" y="363.491448" style="stroke: #000000"/>
     <use xlink:href="#m1dd426d1c3" x="292.107811" y="371.417491" style="stroke: #000000"/>
     <use xlink:href="#m1dd426d1c3" x="305.339361" y="389.271706" style="stroke: #000000"/>
     <use xlink:href="#m1dd426d1c3" x="318.570912" y="421.621032" style="stroke: #000000"/>
     <use xlink:href="#m1dd426d1c3" x="331.802462" y="457.444543" style="stroke: #000000"/>
     <use xlink:href="#m1dd426d1c3" x="345.034012" y="413.852656" style="stroke: #000000"/>
     <use xlink:href="#m1dd426d1c3" x="358.265562" y="391.369248" style="stroke: #000000"/>
     <use xlink:href="#m1dd426d1c3" x="371.497113" y="382.189809" style="stroke: #000000"/>
     <use xlink:href="#m1dd426d1c3" x="384.728663" y="384.612224" style="stroke: #000000"/>
     <use xlink:href="#m1dd426d1c3" x="397.960213" y="398.630005" style="stroke: #000000"/>
     <use xlink:href="#m1dd426d1c3" x="411.191763" y="428.761258" style="stroke: #000000"/>
     <use xlink:href="#m1dd426d1c3" x="424.423314" y="457.594028" style="stroke: #000000"/>
     <use xlink:href="#m1dd426d1c3" x="437.654864" y="411.010049" style="stroke: #000000"/>
     <use xlink:href="#m1dd426d1c3" x="450.886414" y="390.756047" style="stroke: #000000"/>
     <use xlink:href="#m1dd426d1c3" x="464.117964" y="383.004209" style="stroke: #000000"/>
     <use xlink:href="#m1dd426d1c3" x="477.349515" y="386.48245" style="stroke: #000000"/>
     <use xlink:href="#m1dd426d1c3" x="490.581065" y="402.997393" style="stroke: #000000"/>
     <use xlink:href="#m1dd426d1c3" x="503.812615" y="439.103203" style="stroke: #000000"/>
     <use xlink:href="#m1dd426d1c3" x="517.044165" y="442.695346" style="stroke: #000000"/>
     <use xlink:href="#m1dd426d1c3" x="530.275715" y="404.59015" style="stroke: #000000"/>
     <use xlink:href="#m1dd426d1c3" x="543.507266" y="387.19014" style="stroke: #000000"/>
     <use xlink:href="#m1dd426d1c3" x="556.738816" y="381.678511" style="stroke: #000000"/>
     <use xlink:href="#m1dd426d1c3" x="569.970366" y="386.427668" style="stroke: #000000"/>
     <use xlink:href="#m1dd426d1c3" x="583.201916" y="402.937111" style="stroke: #000000"/>
     <use xlink:href="#m1dd426d1c3" x="596.433467" y="436.83014" style="stroke: #000000"/>
     <use xlink:href="#m1dd426d1c3" x="609.665017" y="446.977905" style="stroke: #000000"/>
     <use xlink:href="#m1dd426d1c3" x="622.896567" y="414.653336" style="stroke: #000000"/>
     <use xlink:href="#m1dd426d1c3" x="636.128117" y="409.394569" style="stroke: #000000"/>
     <use xlink:href="#m1dd426d1c3" x="649.359668" y="426.563318" style="stroke: #000000"/>
     <use xlink:href="#m1dd426d1c3" x="662.591218" y="458.274703" style="stroke: #000000"/>
     <use xlink:href="#m1dd426d1c3" x="675.822768" y="422.034716" style="stroke: #000000"/>
     <use xlink:href="#m1dd426d1c3" x="689.054318" y="411.317686" style="stroke: #000000"/>
     <use xlink:href="#m1dd426d1c3" x="702.285869" y="421.123803" style="stroke: #000000"/>
     <use xlink:href="#m1dd426d1c3" x="715.517419" y="458.472058" style="stroke: #000000"/>
     <use xlink:href="#m1dd426d1c3" x="728.748969" y="431.988512" style="stroke: #000000"/>
     <use xlink:href="#m1dd426d1c3" x="741.980519" y="425.050494" style="stroke: #000000"/>
     <use xlink:href="#m1dd426d1c3" x="755.21207" y="457.579513" style="stroke: #000000"/>
     <use xlink:href="#m1dd426d1c3" x="768.44362" y="442.261293" style="stroke: #000000"/>
     <use xlink:href="#m1dd426d1c3" x="781.67517" y="460.037157" style="stroke: #000000"/>
     <use xlink:href="#m1dd426d1c3" x="794.575931" y="456.21278" style="stroke: #000000"/>
    </g>
   </g>
   <g id="patch_3">
    <path d="M 114.16 489.2325 
L 114.16 28.08 
" style="fill: none; stroke: #000000; stroke-width: 2; stroke-linejoin: miter; stroke-linecap: square"/>
   </g>
   <g id="patch_4">
    <path d="M 826.97669 489.2325 
L 826.97669 28.08 
" style="fill: none; stroke: #000000; stroke-width: 2; stroke-linejoin: miter; stroke-linecap: square"/>
   </g>
   <g id="patch_5">
    <path d="M 114.16 489.2325 
L 826.97669 489.2325 
" style="fill: none; stroke: #000000; stroke-width: 2; stroke-linejoin: miter; stroke-linecap: square"/>
   </g>
   <g id="patch_6">
    <path d="M 114.16 28.08 
L 826.97669 28.08 
" style="fill: none; stroke: #000000; stroke-width: 2; stroke-linejoin: miter; stroke-linecap: square"/>
   </g>
   <g id="legend_1">
    <g id="patch_7">
     <path d="M 677.27919 111.335 
L 815.77669 111.335 
Q 818.97669 111.335 818.97669 108.135 
L 818.97669 39.28 
Q 818.97669 36.08 815.77669 36.08 
L 677.27919 36.08 
Q 674.07919 36.08 674.07919 39.28 
L 674.07919 108.135 
Q 674.07919 111.335 677.27919 111.335 
z
" style="fill: #ffffff; opacity: 0.8; stroke: #cccccc; stroke-linejoin: miter"/>
    </g>
    <g id="line2d_37">
     <path d="M 680.47919 49.0375 
L 696.47919 49.0375 
L 712.47919 49.0375 
" style="fill: none; stroke: #1f77b4; stroke-width: 3; stroke-linecap: square"/>
     <g>
      <use xlink:href="#m3a0193c47c" x="696.47919" y="49.0375" style="fill: #1f77b4; stroke: #1f77b4"/>
     </g>
    </g>
    <g id="text_14">
     <!-- Electron 1 -->
     <g transform="translate(725.27919 54.6375) scale(0.16 -0.16)">
      <defs>
       <path id="DejaVuSerif-45" d="M 353 0 
L 353 331 
L 947 331 
L 947 4331 
L 353 4331 
L 353 4666 
L 4109 4666 
L 4109 3628 
L 3725 3628 
L 3725 4281 
L 1581 4281 
L 1581 2719 
L 3109 2719 
L 3109 3303 
L 3494 3303 
L 3494 1753 
L 3109 1753 
L 3109 2338 
L 1581 2338 
L 1581 384 
L 3775 384 
L 3775 1038 
L 4159 1038 
L 4159 0 
L 353 0 
z
" transform="scale(0.015625)"/>
       <path id="DejaVuSerif-6c" d="M 1313 331 
L 1856 331 
L 1856 0 
L 184 0 
L 184 331 
L 738 331 
L 738 4531 
L 184 4531 
L 184 4863 
L 1313 4863 
L 1313 331 
z
" transform="scale(0.015625)"/>
       <path id="DejaVuSerif-65" d="M 3469 1600 
L 991 1600 
L 991 1575 
Q 991 903 1244 561 
Q 1497 219 1991 219 
Q 2369 219 2611 417 
Q 2853 616 2950 1006 
L 3413 1006 
Q 3275 459 2904 184 
Q 2534 -91 1931 -91 
Q 1203 -91 761 389 
Q 319 869 319 1663 
Q 319 2450 753 2931 
Q 1188 3413 1894 3413 
Q 2647 3413 3050 2948 
Q 3453 2484 3469 1600 
z
M 2791 1931 
Q 2772 2513 2545 2808 
Q 2319 3103 1894 3103 
Q 1497 3103 1269 2806 
Q 1041 2509 991 1931 
L 2791 1931 
z
" transform="scale(0.015625)"/>
       <path id="DejaVuSerif-63" d="M 3291 997 
Q 3169 466 2822 187 
Q 2475 -91 1925 -91 
Q 1200 -91 759 389 
Q 319 869 319 1663 
Q 319 2459 759 2936 
Q 1200 3413 1925 3413 
Q 2241 3413 2553 3339 
Q 2866 3266 3181 3116 
L 3181 2266 
L 2847 2266 
Q 2781 2703 2561 2903 
Q 2341 3103 1931 3103 
Q 1466 3103 1228 2742 
Q 991 2381 991 1663 
Q 991 944 1227 581 
Q 1463 219 1931 219 
Q 2303 219 2525 412 
Q 2747 606 2828 997 
L 3291 997 
z
" transform="scale(0.015625)"/>
       <path id="DejaVuSerif-74" d="M 691 2988 
L 184 2988 
L 184 3322 
L 691 3322 
L 691 4353 
L 1269 4353 
L 1269 3322 
L 2350 3322 
L 2350 2988 
L 1269 2988 
L 1269 878 
Q 1269 456 1350 337 
Q 1431 219 1650 219 
Q 1875 219 1978 351 
Q 2081 484 2088 781 
L 2522 781 
Q 2497 328 2275 118 
Q 2053 -91 1600 -91 
Q 1103 -91 897 129 
Q 691 350 691 878 
L 691 2988 
z
" transform="scale(0.015625)"/>
       <path id="DejaVuSerif-72" d="M 3059 3328 
L 3059 2497 
L 2728 2497 
Q 2713 2744 2591 2866 
Q 2469 2988 2234 2988 
Q 1809 2988 1582 2694 
Q 1356 2400 1356 1850 
L 1356 331 
L 2022 331 
L 2022 0 
L 263 0 
L 263 331 
L 781 331 
L 781 2994 
L 231 2994 
L 231 3322 
L 1356 3322 
L 1356 2731 
Q 1525 3078 1790 3245 
Q 2056 3413 2438 3413 
Q 2578 3413 2733 3391 
Q 2888 3369 3059 3328 
z
" transform="scale(0.015625)"/>
       <path id="DejaVuSerif-6f" d="M 1925 219 
Q 2388 219 2623 584 
Q 2859 950 2859 1663 
Q 2859 2375 2623 2739 
Q 2388 3103 1925 3103 
Q 1463 3103 1227 2739 
Q 991 2375 991 1663 
Q 991 950 1228 584 
Q 1466 219 1925 219 
z
M 1925 -91 
Q 1200 -91 759 389 
Q 319 869 319 1663 
Q 319 2456 758 2934 
Q 1197 3413 1925 3413 
Q 2653 3413 3092 2934 
Q 3531 2456 3531 1663 
Q 3531 869 3092 389 
Q 2653 -91 1925 -91 
z
" transform="scale(0.015625)"/>
       <path id="DejaVuSerif-6e" d="M 263 0 
L 263 331 
L 781 331 
L 781 2988 
L 231 2988 
L 231 3322 
L 1356 3322 
L 1356 2731 
Q 1516 3069 1770 3241 
Q 2025 3413 2363 3413 
Q 2913 3413 3172 3097 
Q 3431 2781 3431 2113 
L 3431 331 
L 3944 331 
L 3944 0 
L 2356 0 
L 2356 331 
L 2853 331 
L 2853 1931 
Q 2853 2541 2703 2767 
Q 2553 2994 2175 2994 
Q 1775 2994 1565 2701 
Q 1356 2409 1356 1850 
L 1356 331 
L 1856 331 
L 1856 0 
L 263 0 
z
" transform="scale(0.015625)"/>
      </defs>
      <use xlink:href="#DejaVuSerif-45"/>
      <use xlink:href="#DejaVuSerif-6c" x="72.998047"/>
      <use xlink:href="#DejaVuSerif-65" x="104.980469"/>
      <use xlink:href="#DejaVuSerif-63" x="164.160156"/>
      <use xlink:href="#DejaVuSerif-74" x="220.166016"/>
      <use xlink:href="#DejaVuSerif-72" x="260.351562"/>
      <use xlink:href="#DejaVuSerif-6f" x="308.154297"/>
      <use xlink:href="#DejaVuSerif-6e" x="368.359375"/>
      <use xlink:href="#DejaVuSerif-20" x="432.763672"/>
      <use xlink:href="#DejaVuSerif-31" x="464.550781"/>
     </g>
    </g>
    <g id="line2d_38">
     <path d="M 680.47919 72.5225 
L 696.47919 72.5225 
L 712.47919 72.5225 
" style="fill: none; stroke-dasharray: 11.1,4.8; stroke-dashoffset: 0; stroke: #ff7f0e; stroke-width: 3"/>
     <g>
      <use xlink:href="#m20dc9c4c8c" x="696.47919" y="72.5225" style="fill: #ff7f0e; stroke: #ff7f0e"/>
     </g>
    </g>
    <g id="text_15">
     <!-- Electron 2 -->
     <g transform="translate(725.27919 78.1225) scale(0.16 -0.16)">
      <use xlink:href="#DejaVuSerif-45"/>
      <use xlink:href="#DejaVuSerif-6c" x="72.998047"/>
      <use xlink:href="#DejaVuSerif-65" x="104.980469"/>
      <use xlink:href="#DejaVuSerif-63" x="164.160156"/>
      <use xlink:href="#DejaVuSerif-74" x="220.166016"/>
      <use xlink:href="#DejaVuSerif-72" x="260.351562"/>
      <use xlink:href="#DejaVuSerif-6f" x="308.154297"/>
      <use xlink:href="#DejaVuSerif-6e" x="368.359375"/>
      <use xlink:href="#DejaVuSerif-20" x="432.763672"/>
      <use xlink:href="#DejaVuSerif-32" x="464.550781"/>
     </g>
    </g>
    <g id="line2d_39">
     <path d="M 680.47919 96.0075 
L 696.47919 96.0075 
L 712.47919 96.0075 
" style="fill: none; stroke: #000000; stroke-width: 3; stroke-linecap: square"/>
     <g>
      <use xlink:href="#m1dd426d1c3" x="696.47919" y="96.0075" style="stroke: #000000"/>
     </g>
    </g>
    <g id="text_16">
     <!-- Antiproton -->
     <g transform="translate(725.27919 101.6075) scale(0.16 -0.16)">
      <defs>
       <path id="DejaVuSerif-41" d="M 1281 1691 
L 2994 1691 
L 2138 3909 
L 1281 1691 
z
M -38 0 
L -38 331 
L 372 331 
L 2034 4666 
L 2559 4666 
L 4225 331 
L 4684 331 
L 4684 0 
L 2988 0 
L 2988 331 
L 3506 331 
L 3116 1356 
L 1153 1356 
L 763 331 
L 1275 331 
L 1275 0 
L -38 0 
z
" transform="scale(0.015625)"/>
       <path id="DejaVuSerif-69" d="M 622 4353 
Q 622 4497 726 4603 
Q 831 4709 978 4709 
Q 1122 4709 1226 4603 
Q 1331 4497 1331 4353 
Q 1331 4206 1228 4103 
Q 1125 4000 978 4000 
Q 831 4000 726 4103 
Q 622 4206 622 4353 
z
M 1356 331 
L 1900 331 
L 1900 0 
L 231 0 
L 231 331 
L 781 331 
L 781 2988 
L 231 2988 
L 231 3322 
L 1356 3322 
L 1356 331 
z
" transform="scale(0.015625)"/>
       <path id="DejaVuSerif-70" d="M 1313 1825 
L 1313 1497 
Q 1313 897 1542 583 
Q 1772 269 2209 269 
Q 2650 269 2876 622 
Q 3103 975 3103 1663 
Q 3103 2353 2876 2703 
Q 2650 3053 2209 3053 
Q 1772 3053 1542 2737 
Q 1313 2422 1313 1825 
z
M 738 2988 
L 184 2988 
L 184 3322 
L 1313 3322 
L 1313 2803 
Q 1481 3116 1742 3264 
Q 2003 3413 2388 3413 
Q 3000 3413 3387 2928 
Q 3775 2444 3775 1663 
Q 3775 881 3387 395 
Q 3000 -91 2388 -91 
Q 2003 -91 1742 57 
Q 1481 206 1313 519 
L 1313 -997 
L 1856 -997 
L 1856 -1331 
L 184 -1331 
L 184 -997 
L 738 -997 
L 738 2988 
z
" transform="scale(0.015625)"/>
      </defs>
      <use xlink:href="#DejaVuSerif-41"/>
      <use xlink:href="#DejaVuSerif-6e" x="72.216797"/>
      <use xlink:href="#DejaVuSerif-74" x="136.621094"/>
      <use xlink:href="#DejaVuSerif-69" x="176.806641"/>
      <use xlink:href="#DejaVuSerif-70" x="208.789062"/>
      <use xlink:href="#DejaVuSerif-72" x="272.802734"/>
      <use xlink:href="#DejaVuSerif-6f" x="320.605469"/>
      <use xlink:href="#DejaVuSerif-74" x="380.810547"/>
      <use xlink:href="#DejaVuSerif-6f" x="420.996094"/>
      <use xlink:href="#DejaVuSerif-6e" x="481.201172"/>
     </g>
    </g>
   </g>
  </g>
 </g>
 <defs>
  <clipPath id="p88d18ed634">
   <rect x="114.16" y="28.08" width="712.81669" height="461.1525"/>
  </clipPath>
 </defs>
</svg>
