<?xml version="1.0" encoding="utf-8" standalone="no"?>
<!DOCTYPE svg PUBLIC "-//W3C//DTD SVG 1.1//EN"
  "http://www.w3.org/Graphics/SVG/1.1/DTD/svg11.dtd">
<svg xmlns:xlink="http://www.w3.org/1999/xlink" width="720pt" height="504pt" viewBox="0 0 720 504" xmlns="http://www.w3.org/2000/svg" version="1.1">
 <metadata>
  <rdf:RDF xmlns:dc="http://purl.org/dc/elements/1.1/" xmlns:cc="http://creativecommons.org/ns#" xmlns:rdf="http://www.w3.org/1999/02/22-rdf-syntax-ns#">
   <cc:Work>
    <dc:type rdf:resource="http://purl.org/dc/dcmitype/StillImage"/>
    <dc:date>2025-06-10T14:06:12.137665</dc:date>
    <dc:format>image/svg+xml</dc:format>
    <dc:creator>
     <cc:Agent>
      <dc:title>Matplotlib v3.7.2, https://matplotlib.org/</dc:title>
     </cc:Agent>
    </dc:creator>
   </cc:Work>
  </rdf:RDF>
 </metadata>
 <defs>
  <style type="text/css">*{stroke-linejoin: round; stroke-linecap: butt}</style>
 </defs>
 <g id="figure_1">
  <g id="patch_1">
   <path d="M 0 504 
L 720 504 
L 720 0 
L 0 0 
z
" style="fill: #ffffff"/>
  </g>
  <g id="axes_1">
   <g id="patch_2">
    <path d="M 98.31 417.2325 
L 684.118636 417.2325 
L 684.118636 28.08 
L 98.31 28.08 
z
" style="fill: #ffffff"/>
   </g>
   <g id="matplotlib.axis_1">
    <g id="xtick_1">
     <g id="line2d_1">
      <path d="M 124.937665 417.2325 
L 124.937665 28.08 
" clip-path="url(#pb48efc326a)" style="fill: none; stroke-dasharray: 3.7,1.6; stroke-dashoffset: 0; stroke: #b0b0b0; stroke-opacity: 0.5"/>
     </g>
     <g id="line2d_2">
      <defs>
       <path id="m9cc47b6019" d="M 0 0 
L 0 -10 
" style="stroke: #000000; stroke-width: 2"/>
      </defs>
      <g>
       <use xlink:href="#m9cc47b6019" x="124.937665" y="417.2325" style="stroke: #000000; stroke-width: 2"/>
      </g>
     </g>
     <g id="line2d_3">
      <defs>
       <path id="mf310627bba" d="M 0 0 
L 0 10 
" style="stroke: #000000; stroke-width: 2"/>
      </defs>
      <g>
       <use xlink:href="#mf310627bba" x="124.937665" y="28.08" style="stroke: #000000; stroke-width: 2"/>
      </g>
     </g>
     <g id="text_1">
      <!-- 0 -->
      <g transform="translate(116.666415 440.488437) scale(0.26 -0.26)">
       <defs>
        <path id="DejaVuSerif-30" d="M 2034 219 
Q 2513 219 2750 744 
Q 2988 1269 2988 2328 
Q 2988 3391 2750 3916 
Q 2513 4441 2034 4441 
Q 1556 4441 1318 3916 
Q 1081 3391 1081 2328 
Q 1081 1269 1318 744 
Q 1556 219 2034 219 
z
M 2034 -91 
Q 1275 -91 848 546 
Q 422 1184 422 2328 
Q 422 3475 848 4112 
Q 1275 4750 2034 4750 
Q 2797 4750 3222 4112 
Q 3647 3475 3647 2328 
Q 3647 1184 3222 546 
Q 2797 -91 2034 -91 
z
" transform="scale(0.015625)"/>
       </defs>
       <use xlink:href="#DejaVuSerif-30"/>
      </g>
     </g>
    </g>
    <g id="xtick_2">
     <g id="line2d_4">
      <path d="M 231.448326 417.2325 
L 231.448326 28.08 
" clip-path="url(#pb48efc326a)" style="fill: none; stroke-dasharray: 3.7,1.6; stroke-dashoffset: 0; stroke: #b0b0b0; stroke-opacity: 0.5"/>
     </g>
     <g id="line2d_5">
      <g>
       <use xlink:href="#m9cc47b6019" x="231.448326" y="417.2325" style="stroke: #000000; stroke-width: 2"/>
      </g>
     </g>
     <g id="line2d_6">
      <g>
       <use xlink:href="#mf310627bba" x="231.448326" y="28.08" style="stroke: #000000; stroke-width: 2"/>
      </g>
     </g>
     <g id="text_2">
      <!-- 500 -->
      <g transform="translate(206.634576 440.488437) scale(0.26 -0.26)">
       <defs>
        <path id="DejaVuSerif-35" d="M 3219 4666 
L 3219 4153 
L 1081 4153 
L 1081 2816 
Q 1244 2928 1461 2984 
Q 1678 3041 1947 3041 
Q 2703 3041 3140 2622 
Q 3578 2203 3578 1478 
Q 3578 738 3136 323 
Q 2694 -91 1894 -91 
Q 1572 -91 1234 -12 
Q 897 66 544 225 
L 544 1131 
L 897 1131 
Q 925 688 1179 453 
Q 1434 219 1894 219 
Q 2388 219 2653 544 
Q 2919 869 2919 1478 
Q 2919 2084 2655 2407 
Q 2391 2731 1894 2731 
Q 1613 2731 1398 2631 
Q 1184 2531 1019 2322 
L 750 2322 
L 750 4666 
L 3219 4666 
z
" transform="scale(0.015625)"/>
       </defs>
       <use xlink:href="#DejaVuSerif-35"/>
       <use xlink:href="#DejaVuSerif-30" x="63.623047"/>
       <use xlink:href="#DejaVuSerif-30" x="127.246094"/>
      </g>
     </g>
    </g>
    <g id="xtick_3">
     <g id="line2d_7">
      <path d="M 337.958988 417.2325 
L 337.958988 28.08 
" clip-path="url(#pb48efc326a)" style="fill: none; stroke-dasharray: 3.7,1.6; stroke-dashoffset: 0; stroke: #b0b0b0; stroke-opacity: 0.5"/>
     </g>
     <g id="line2d_8">
      <g>
       <use xlink:href="#m9cc47b6019" x="337.958988" y="417.2325" style="stroke: #000000; stroke-width: 2"/>
      </g>
     </g>
     <g id="line2d_9">
      <g>
       <use xlink:href="#mf310627bba" x="337.958988" y="28.08" style="stroke: #000000; stroke-width: 2"/>
      </g>
     </g>
     <g id="text_3">
      <!-- 1000 -->
      <g transform="translate(304.873988 440.488437) scale(0.26 -0.26)">
       <defs>
        <path id="DejaVuSerif-31" d="M 909 0 
L 909 331 
L 1722 331 
L 1722 4213 
L 781 3603 
L 781 4013 
L 1919 4750 
L 2350 4750 
L 2350 331 
L 3163 331 
L 3163 0 
L 909 0 
z
" transform="scale(0.015625)"/>
       </defs>
       <use xlink:href="#DejaVuSerif-31"/>
       <use xlink:href="#DejaVuSerif-30" x="63.623047"/>
       <use xlink:href="#DejaVuSerif-30" x="127.246094"/>
       <use xlink:href="#DejaVuSerif-30" x="190.869141"/>
      </g>
     </g>
    </g>
    <g id="xtick_4">
     <g id="line2d_10">
      <path d="M 444.469649 417.2325 
L 444.469649 28.08 
" clip-path="url(#pb48efc326a)" style="fill: none; stroke-dasharray: 3.7,1.6; stroke-dashoffset: 0; stroke: #b0b0b0; stroke-opacity: 0.5"/>
     </g>
     <g id="line2d_11">
      <g>
       <use xlink:href="#m9cc47b6019" x="444.469649" y="417.2325" style="stroke: #000000; stroke-width: 2"/>
      </g>
     </g>
     <g id="line2d_12">
      <g>
       <use xlink:href="#mf310627bba" x="444.469649" y="28.08" style="stroke: #000000; stroke-width: 2"/>
      </g>
     </g>
     <g id="text_4">
      <!-- 1500 -->
      <g transform="translate(411.384649 440.488437) scale(0.26 -0.26)">
       <use xlink:href="#DejaVuSerif-31"/>
       <use xlink:href="#DejaVuSerif-35" x="63.623047"/>
       <use xlink:href="#DejaVuSerif-30" x="127.246094"/>
       <use xlink:href="#DejaVuSerif-30" x="190.869141"/>
      </g>
     </g>
    </g>
    <g id="xtick_5">
     <g id="line2d_13">
      <path d="M 550.98031 417.2325 
L 550.98031 28.08 
" clip-path="url(#pb48efc326a)" style="fill: none; stroke-dasharray: 3.7,1.6; stroke-dashoffset: 0; stroke: #b0b0b0; stroke-opacity: 0.5"/>
     </g>
     <g id="line2d_14">
      <g>
       <use xlink:href="#m9cc47b6019" x="550.98031" y="417.2325" style="stroke: #000000; stroke-width: 2"/>
      </g>
     </g>
     <g id="line2d_15">
      <g>
       <use xlink:href="#mf310627bba" x="550.98031" y="28.08" style="stroke: #000000; stroke-width: 2"/>
      </g>
     </g>
     <g id="text_5">
      <!-- 2000 -->
      <g transform="translate(517.89531 440.488437) scale(0.26 -0.26)">
       <defs>
        <path id="DejaVuSerif-32" d="M 819 3553 
L 469 3553 
L 469 4384 
Q 803 4563 1142 4656 
Q 1481 4750 1806 4750 
Q 2534 4750 2956 4397 
Q 3378 4044 3378 3438 
Q 3378 2753 2422 1800 
Q 2347 1728 2309 1691 
L 1131 513 
L 3078 513 
L 3078 1088 
L 3444 1088 
L 3444 0 
L 434 0 
L 434 341 
L 1850 1753 
Q 2319 2222 2519 2614 
Q 2719 3006 2719 3438 
Q 2719 3909 2473 4175 
Q 2228 4441 1797 4441 
Q 1350 4441 1106 4219 
Q 863 3997 819 3553 
z
" transform="scale(0.015625)"/>
       </defs>
       <use xlink:href="#DejaVuSerif-32"/>
       <use xlink:href="#DejaVuSerif-30" x="63.623047"/>
       <use xlink:href="#DejaVuSerif-30" x="127.246094"/>
       <use xlink:href="#DejaVuSerif-30" x="190.869141"/>
      </g>
     </g>
    </g>
    <g id="xtick_6">
     <g id="line2d_16">
      <path d="M 657.490971 417.2325 
L 657.490971 28.08 
" clip-path="url(#pb48efc326a)" style="fill: none; stroke-dasharray: 3.7,1.6; stroke-dashoffset: 0; stroke: #b0b0b0; stroke-opacity: 0.5"/>
     </g>
     <g id="line2d_17">
      <g>
       <use xlink:href="#m9cc47b6019" x="657.490971" y="417.2325" style="stroke: #000000; stroke-width: 2"/>
      </g>
     </g>
     <g id="line2d_18">
      <g>
       <use xlink:href="#mf310627bba" x="657.490971" y="28.08" style="stroke: #000000; stroke-width: 2"/>
      </g>
     </g>
     <g id="text_6">
      <!-- 2500 -->
      <g transform="translate(624.405971 440.488437) scale(0.26 -0.26)">
       <use xlink:href="#DejaVuSerif-32"/>
       <use xlink:href="#DejaVuSerif-35" x="63.623047"/>
       <use xlink:href="#DejaVuSerif-30" x="127.246094"/>
       <use xlink:href="#DejaVuSerif-30" x="190.869141"/>
      </g>
     </g>
    </g>
    <g id="text_7">
     <!-- $t$ (a.u.) -->
     <g transform="translate(347.794318 469.651562) scale(0.26 -0.26)">
      <defs>
       <path id="Cmmi10-74" d="M 397 519 
Q 397 613 416 697 
L 878 2534 
L 206 2534 
Q 141 2534 141 2619 
Q 166 2759 225 2759 
L 934 2759 
L 1191 3803 
Q 1216 3888 1291 3947 
Q 1366 4006 1459 4006 
Q 1541 4006 1595 3957 
Q 1650 3909 1650 3828 
Q 1650 3809 1648 3798 
Q 1647 3788 1644 3775 
L 1388 2759 
L 2047 2759 
Q 2113 2759 2113 2675 
Q 2109 2659 2100 2621 
Q 2091 2584 2075 2559 
Q 2059 2534 2028 2534 
L 1331 2534 
L 872 684 
Q 825 503 825 372 
Q 825 97 1013 97 
Q 1294 97 1511 361 
Q 1728 625 1844 941 
Q 1869 978 1894 978 
L 1972 978 
Q 1997 978 2012 961 
Q 2028 944 2028 922 
Q 2028 909 2022 903 
Q 1881 516 1612 222 
Q 1344 -72 997 -72 
Q 744 -72 570 93 
Q 397 259 397 519 
z
" transform="scale(0.015625)"/>
       <path id="DejaVuSerif-20" transform="scale(0.015625)"/>
       <path id="DejaVuSerif-28" d="M 2041 -997 
Q 1281 -656 893 83 
Q 506 822 506 1931 
Q 506 3044 893 3783 
Q 1281 4522 2041 4863 
L 2041 4556 
Q 1559 4225 1350 3623 
Q 1141 3022 1141 1931 
Q 1141 844 1350 242 
Q 1559 -359 2041 -691 
L 2041 -997 
z
" transform="scale(0.015625)"/>
       <path id="DejaVuSerif-61" d="M 2547 1044 
L 2547 1747 
L 1806 1747 
Q 1378 1747 1168 1562 
Q 959 1378 959 997 
Q 959 650 1171 447 
Q 1384 244 1747 244 
Q 2106 244 2326 466 
Q 2547 688 2547 1044 
z
M 3122 2075 
L 3122 331 
L 3634 331 
L 3634 0 
L 2547 0 
L 2547 359 
Q 2356 128 2106 18 
Q 1856 -91 1522 -91 
Q 969 -91 644 203 
Q 319 497 319 997 
Q 319 1513 691 1797 
Q 1063 2081 1741 2081 
L 2547 2081 
L 2547 2309 
Q 2547 2688 2317 2895 
Q 2088 3103 1672 3103 
Q 1328 3103 1125 2947 
Q 922 2791 872 2484 
L 575 2484 
L 575 3156 
Q 875 3284 1158 3348 
Q 1441 3413 1709 3413 
Q 2400 3413 2761 3070 
Q 3122 2728 3122 2075 
z
" transform="scale(0.015625)"/>
       <path id="DejaVuSerif-2e" d="M 603 325 
Q 603 500 722 622 
Q 841 744 1019 744 
Q 1191 744 1312 622 
Q 1434 500 1434 325 
Q 1434 153 1312 31 
Q 1191 -91 1019 -91 
Q 841 -91 722 29 
Q 603 150 603 325 
z
" transform="scale(0.015625)"/>
       <path id="DejaVuSerif-75" d="M 2266 3322 
L 3341 3322 
L 3341 331 
L 3884 331 
L 3884 0 
L 2766 0 
L 2766 588 
Q 2606 256 2353 82 
Q 2100 -91 1766 -91 
Q 1213 -91 952 223 
Q 691 538 691 1209 
L 691 2988 
L 172 2988 
L 172 3322 
L 1269 3322 
L 1269 1388 
Q 1269 781 1417 556 
Q 1566 331 1947 331 
Q 2347 331 2556 625 
Q 2766 919 2766 1478 
L 2766 2988 
L 2266 2988 
L 2266 3322 
z
" transform="scale(0.015625)"/>
       <path id="DejaVuSerif-29" d="M 453 -997 
L 453 -691 
Q 934 -359 1145 242 
Q 1356 844 1356 1931 
Q 1356 3022 1145 3623 
Q 934 4225 453 4556 
L 453 4863 
Q 1216 4522 1603 3783 
Q 1991 3044 1991 1931 
Q 1991 822 1603 83 
Q 1216 -656 453 -997 
z
" transform="scale(0.015625)"/>
      </defs>
      <use xlink:href="#Cmmi10-74" transform="translate(0 0.015625)"/>
      <use xlink:href="#DejaVuSerif-20" transform="translate(36.083984 0.015625)"/>
      <use xlink:href="#DejaVuSerif-28" transform="translate(67.871094 0.015625)"/>
      <use xlink:href="#DejaVuSerif-61" transform="translate(106.884766 0.015625)"/>
      <use xlink:href="#DejaVuSerif-2e" transform="translate(166.503906 0.015625)"/>
      <use xlink:href="#DejaVuSerif-75" transform="translate(198.291016 0.015625)"/>
      <use xlink:href="#DejaVuSerif-2e" transform="translate(262.695312 0.015625)"/>
      <use xlink:href="#DejaVuSerif-29" transform="translate(294.482422 0.015625)"/>
     </g>
    </g>
   </g>
   <g id="matplotlib.axis_2">
    <g id="ytick_1">
     <g id="line2d_19">
      <path d="M 98.31 417.2325 
L 684.118636 417.2325 
" clip-path="url(#pb48efc326a)" style="fill: none; stroke-dasharray: 3.7,1.6; stroke-dashoffset: 0; stroke: #b0b0b0; stroke-opacity: 0.5"/>
     </g>
     <g id="line2d_20">
      <defs>
       <path id="m28244a1332" d="M 0 0 
L 10 0 
" style="stroke: #000000; stroke-width: 2"/>
      </defs>
      <g>
       <use xlink:href="#m28244a1332" x="98.31" y="417.2325" style="stroke: #000000; stroke-width: 2"/>
      </g>
     </g>
     <g id="line2d_21">
      <defs>
       <path id="m9e2d749d94" d="M 0 0 
L -10 0 
" style="stroke: #000000; stroke-width: 2"/>
      </defs>
      <g>
       <use xlink:href="#m9e2d749d94" x="684.118636" y="417.2325" style="stroke: #000000; stroke-width: 2"/>
      </g>
     </g>
     <g id="text_8">
      <!-- −2 -->
      <g transform="translate(56.480313 427.110469) scale(0.26 -0.26)">
       <defs>
        <path id="DejaVuSerif-2212" d="M 678 2259 
L 4684 2259 
L 4684 1753 
L 678 1753 
L 678 2259 
z
" transform="scale(0.015625)"/>
       </defs>
       <use xlink:href="#DejaVuSerif-2212"/>
       <use xlink:href="#DejaVuSerif-32" x="83.789062"/>
      </g>
     </g>
    </g>
    <g id="ytick_2">
     <g id="line2d_22">
      <path d="M 98.31 319.944375 
L 684.118636 319.944375 
" clip-path="url(#pb48efc326a)" style="fill: none; stroke-dasharray: 3.7,1.6; stroke-dashoffset: 0; stroke: #b0b0b0; stroke-opacity: 0.5"/>
     </g>
     <g id="line2d_23">
      <g>
       <use xlink:href="#m28244a1332" x="98.31" y="319.944375" style="stroke: #000000; stroke-width: 2"/>
      </g>
     </g>
     <g id="line2d_24">
      <g>
       <use xlink:href="#m9e2d749d94" x="684.118636" y="319.944375" style="stroke: #000000; stroke-width: 2"/>
      </g>
     </g>
     <g id="text_9">
      <!-- −1 -->
      <g transform="translate(56.480313 329.822344) scale(0.26 -0.26)">
       <use xlink:href="#DejaVuSerif-2212"/>
       <use xlink:href="#DejaVuSerif-31" x="83.789062"/>
      </g>
     </g>
    </g>
    <g id="ytick_3">
     <g id="line2d_25">
      <path d="M 98.31 222.65625 
L 684.118636 222.65625 
" clip-path="url(#pb48efc326a)" style="fill: none; stroke-dasharray: 3.7,1.6; stroke-dashoffset: 0; stroke: #b0b0b0; stroke-opacity: 0.5"/>
     </g>
     <g id="line2d_26">
      <g>
       <use xlink:href="#m28244a1332" x="98.31" y="222.65625" style="stroke: #000000; stroke-width: 2"/>
      </g>
     </g>
     <g id="line2d_27">
      <g>
       <use xlink:href="#m9e2d749d94" x="684.118636" y="222.65625" style="stroke: #000000; stroke-width: 2"/>
      </g>
     </g>
     <g id="text_10">
      <!-- 0 -->
      <g transform="translate(78.2675 232.534219) scale(0.26 -0.26)">
       <use xlink:href="#DejaVuSerif-30"/>
      </g>
     </g>
    </g>
    <g id="ytick_4">
     <g id="line2d_28">
      <path d="M 98.31 125.368125 
L 684.118636 125.368125 
" clip-path="url(#pb48efc326a)" style="fill: none; stroke-dasharray: 3.7,1.6; stroke-dashoffset: 0; stroke: #b0b0b0; stroke-opacity: 0.5"/>
     </g>
     <g id="line2d_29">
      <g>
       <use xlink:href="#m28244a1332" x="98.31" y="125.368125" style="stroke: #000000; stroke-width: 2"/>
      </g>
     </g>
     <g id="line2d_30">
      <g>
       <use xlink:href="#m9e2d749d94" x="684.118636" y="125.368125" style="stroke: #000000; stroke-width: 2"/>
      </g>
     </g>
     <g id="text_11">
      <!-- 1 -->
      <g transform="translate(78.2675 135.246094) scale(0.26 -0.26)">
       <use xlink:href="#DejaVuSerif-31"/>
      </g>
     </g>
    </g>
    <g id="ytick_5">
     <g id="line2d_31">
      <path d="M 98.31 28.08 
L 684.118636 28.08 
" clip-path="url(#pb48efc326a)" style="fill: none; stroke-dasharray: 3.7,1.6; stroke-dashoffset: 0; stroke: #b0b0b0; stroke-opacity: 0.5"/>
     </g>
     <g id="line2d_32">
      <g>
       <use xlink:href="#m28244a1332" x="98.31" y="28.08" style="stroke: #000000; stroke-width: 2"/>
      </g>
     </g>
     <g id="line2d_33">
      <g>
       <use xlink:href="#m9e2d749d94" x="684.118636" y="28.08" style="stroke: #000000; stroke-width: 2"/>
      </g>
     </g>
     <g id="text_12">
      <!-- 2 -->
      <g transform="translate(78.2675 37.957969) scale(0.26 -0.26)">
       <use xlink:href="#DejaVuSerif-32"/>
      </g>
     </g>
    </g>
    <g id="text_13">
     <!-- $E_i(t)$ (a.u.) -->
     <g transform="translate(45.980312 289.73625) rotate(-90) scale(0.26 -0.26)">
      <defs>
       <path id="Cmmi10-45" d="M 300 0 
Q 238 0 238 84 
Q 241 100 250 139 
Q 259 178 276 201 
Q 294 225 319 225 
Q 709 225 863 269 
Q 947 297 984 441 
L 1863 3956 
Q 1875 4019 1875 4044 
Q 1875 4113 1797 4122 
Q 1678 4147 1338 4147 
Q 1275 4147 1275 4231 
Q 1278 4247 1287 4286 
Q 1297 4325 1314 4348 
Q 1331 4372 1356 4372 
L 4825 4372 
Q 4891 4372 4891 4288 
L 4738 2963 
Q 4738 2947 4714 2926 
Q 4691 2906 4672 2906 
L 4616 2906 
Q 4550 2906 4550 2988 
Q 4588 3300 4588 3450 
Q 4588 3706 4500 3848 
Q 4413 3991 4267 4053 
Q 4122 4116 3945 4131 
Q 3769 4147 3481 4147 
L 2753 4147 
Q 2578 4147 2522 4117 
Q 2466 4088 2419 3928 
L 2034 2381 
L 2534 2381 
Q 2859 2381 3025 2426 
Q 3191 2472 3287 2615 
Q 3384 2759 3463 3072 
Q 3469 3094 3486 3111 
Q 3503 3128 3525 3128 
L 3584 3128 
Q 3647 3128 3647 3047 
L 3250 1466 
Q 3238 1409 3188 1409 
L 3128 1409 
Q 3066 1409 3066 1491 
Q 3128 1747 3128 1869 
Q 3128 2056 2959 2106 
Q 2791 2156 2509 2156 
L 1978 2156 
L 1544 416 
Q 1516 338 1516 275 
Q 1516 225 1734 225 
L 2509 225 
Q 2972 225 3259 297 
Q 3547 369 3736 526 
Q 3925 684 4062 928 
Q 4200 1172 4397 1638 
Q 4409 1678 4453 1678 
L 4513 1678 
Q 4538 1678 4556 1656 
Q 4575 1634 4575 1606 
Q 4575 1594 4569 1581 
L 3909 38 
Q 3897 0 3859 0 
L 300 0 
z
" transform="scale(0.015625)"/>
       <path id="Cmmi10-69" d="M 500 459 
Q 500 578 550 709 
L 1069 2088 
Q 1153 2322 1153 2472 
Q 1153 2663 1013 2663 
Q 759 2663 595 2402 
Q 431 2141 353 1819 
Q 341 1778 300 1778 
L 225 1778 
Q 172 1778 172 1838 
L 172 1856 
Q 275 2238 487 2533 
Q 700 2828 1025 2828 
Q 1253 2828 1411 2678 
Q 1569 2528 1569 2297 
Q 1569 2178 1516 2047 
L 997 672 
Q 909 459 909 288 
Q 909 97 1056 97 
Q 1306 97 1473 364 
Q 1641 631 1709 941 
Q 1722 978 1759 978 
L 1838 978 
Q 1863 978 1878 961 
Q 1894 944 1894 922 
Q 1894 916 1888 903 
Q 1800 541 1583 234 
Q 1366 -72 1044 -72 
Q 819 -72 659 83 
Q 500 238 500 459 
z
M 1222 3878 
Q 1222 4013 1334 4122 
Q 1447 4231 1581 4231 
Q 1691 4231 1761 4164 
Q 1831 4097 1831 3994 
Q 1831 3850 1717 3742 
Q 1603 3634 1466 3634 
Q 1363 3634 1292 3704 
Q 1222 3775 1222 3878 
z
" transform="scale(0.015625)"/>
       <path id="Cmr10-28" d="M 1984 -1588 
Q 1628 -1306 1370 -942 
Q 1113 -578 948 -165 
Q 784 247 703 697 
Q 622 1147 622 1600 
Q 622 2059 703 2509 
Q 784 2959 951 3375 
Q 1119 3791 1378 4153 
Q 1638 4516 1984 4788 
Q 1984 4800 2016 4800 
L 2075 4800 
Q 2094 4800 2109 4783 
Q 2125 4766 2125 4744 
Q 2125 4716 2113 4703 
Q 1800 4397 1592 4047 
Q 1384 3697 1257 3301 
Q 1131 2906 1075 2482 
Q 1019 2059 1019 1600 
Q 1019 -434 2106 -1491 
Q 2125 -1509 2125 -1544 
Q 2125 -1559 2108 -1579 
Q 2091 -1600 2075 -1600 
L 2016 -1600 
Q 1984 -1600 1984 -1588 
z
" transform="scale(0.015625)"/>
       <path id="Cmr10-29" d="M 416 -1600 
Q 359 -1600 359 -1544 
Q 359 -1516 372 -1503 
Q 1466 -434 1466 1600 
Q 1466 3634 384 4691 
Q 359 4706 359 4744 
Q 359 4766 376 4783 
Q 394 4800 416 4800 
L 475 4800 
Q 494 4800 506 4788 
Q 966 4425 1272 3906 
Q 1578 3388 1720 2800 
Q 1863 2213 1863 1600 
Q 1863 1147 1786 708 
Q 1709 269 1542 -157 
Q 1375 -584 1119 -945 
Q 863 -1306 506 -1588 
Q 494 -1600 475 -1600 
L 416 -1600 
z
" transform="scale(0.015625)"/>
      </defs>
      <use xlink:href="#Cmmi10-45" transform="translate(0 0.015625)"/>
      <use xlink:href="#Cmmi10-69" transform="translate(73.779297 -16.990625) scale(0.7)"/>
      <use xlink:href="#Cmr10-28" transform="translate(104.25332 0.015625)"/>
      <use xlink:href="#Cmmi10-74" transform="translate(143.07168 0.015625)"/>
      <use xlink:href="#Cmr10-29" transform="translate(179.155664 0.015625)"/>
      <use xlink:href="#DejaVuSerif-20" transform="translate(217.974023 0.015625)"/>
      <use xlink:href="#DejaVuSerif-28" transform="translate(249.761133 0.015625)"/>
      <use xlink:href="#DejaVuSerif-61" transform="translate(288.774805 0.015625)"/>
      <use xlink:href="#DejaVuSerif-2e" transform="translate(348.393945 0.015625)"/>
      <use xlink:href="#DejaVuSerif-75" transform="translate(380.181055 0.015625)"/>
      <use xlink:href="#DejaVuSerif-2e" transform="translate(444.585352 0.015625)"/>
      <use xlink:href="#DejaVuSerif-29" transform="translate(476.372461 0.015625)"/>
     </g>
    </g>
   </g>
   <g id="line2d_34">
    <path d="M 189.264353 -1 
L 189.441119 39.478749 
L 189.974205 2.657738 
L 190.507292 23.48761 
L 190.89048 -1 
M 191.174739 -1 
L 191.573464 27.426752 
L 192.106551 12.495139 
L 192.221247 -1 
M 192.872537 -1 
L 193.172723 62.450159 
L 193.70581 18.879782 
L 194.238896 13.932551 
L 194.771983 23.660893 
L 195.305069 19.077264 
L 195.541276 -1 
M 196.081046 -1 
L 196.371242 29.14897 
L 196.904328 13.634487 
L 197.437415 40.360512 
L 197.970501 55.459333 
L 198.503587 24.062797 
L 199.036674 34.614684 
L 199.56976 33.339376 
L 200.102847 24.446024 
L 200.635933 42.722162 
L 201.127192 -1 
M 201.257889 -1 
L 201.702106 17.607778 
L 202.235192 34.13601 
L 202.768279 6.117369 
L 203.301365 40.568788 
L 203.834451 35.704147 
L 204.367538 64.130201 
L 204.809632 -1 
M 205.523392 -1 
L 205.966797 58.630562 
L 206.499883 64.644046 
L 207.03297 77.537147 
L 207.557808 -1 
M 207.575652 -1 
L 208.099142 66.331496 
L 208.632229 41.370847 
L 208.993477 -1 
M 209.264591 -1 
L 209.698402 87.07175 
L 210.231488 49.636167 
L 210.764574 25.191469 
L 211.297661 87.629817 
L 211.830747 62.258778 
L 212.363834 71.092171 
L 212.89692 89.164862 
L 213.963093 54.609203 
L 215.029266 41.577336 
L 215.562352 37.261502 
L 216.095438 10.195393 
L 216.628525 51.495225 
L 217.161611 49.168399 
L 217.694698 7.658655 
L 218.227784 9.928595 
L 218.76087 54.387859 
L 219.293957 10.862541 
L 219.827043 17.930556 
L 220.360129 43.14992 
L 220.822722 -1 
M 220.944406 -1 
L 221.426302 62.335017 
L 221.959389 77.188562 
L 222.492475 84.090856 
L 223.025561 68.359659 
L 223.558648 72.5877 
L 224.624821 4.596061 
L 225.157907 37.560619 
L 225.690993 53.894821 
L 226.22408 44.461193 
L 226.757166 55.531231 
L 227.290253 53.215111 
L 227.823339 19.880497 
L 228.356425 59.890228 
L 228.889512 51.6444 
L 229.422598 50.388296 
L 229.955685 20.765818 
L 230.488771 23.117915 
L 231.021857 49.497486 
L 231.554944 50.124585 
L 232.08803 68.551764 
L 232.621117 64.041014 
L 233.154203 26.108827 
L 233.687289 10.891158 
L 234.220376 72.624847 
L 234.753462 11.76385 
L 235.286548 77.174247 
L 235.819635 33.584623 
L 236.352721 85.984484 
L 236.885808 44.917997 
L 237.418894 73.203085 
L 237.95198 37.088978 
L 238.485067 40.445788 
L 239.018153 24.73302 
L 239.55124 29.657502 
L 240.084326 51.619184 
L 240.617412 46.380381 
L 241.150499 51.212631 
L 241.683585 35.424922 
L 242.216672 48.306738 
L 242.749758 36.405068 
L 243.282844 -0.036296 
L 243.815931 11.578057 
L 244.349017 75.297475 
L 244.882104 30.590543 
L 245.41519 25.561536 
L 245.948276 86.660205 
L 246.481363 54.270506 
L 247.014449 77.779327 
L 247.547535 41.600085 
L 248.080622 57.765937 
L 248.613708 1.907581 
L 249.146795 59.372183 
L 249.679881 33.902599 
L 250.212967 64.789801 
L 251.236996 -1 
M 251.796821 -1 
L 251.812227 -0.92468 
L 252.345313 71.882311 
L 252.878399 55.287575 
L 253.411486 25.525195 
L 253.944572 87.341484 
L 254.477659 2.940523 
L 255.010745 65.032965 
L 255.543831 80.045486 
L 256.039393 -1 
M 256.158345 -1 
L 256.610004 33.040315 
L 257.143091 10.46119 
L 257.676177 8.66183 
L 258.209263 36.824339 
L 258.74235 50.901475 
L 259.275436 46.468235 
L 259.711276 -1 
M 260.011961 -1 
L 260.341609 16.161945 
L 260.874695 57.474126 
L 261.407782 48.458306 
L 262.218991 -1 
M 262.778379 -1 
L 263.540127 36.996279 
L 264.252281 -1 
M 264.750386 -1 
L 265.672473 77.378649 
L 266.205559 41.087521 
L 266.738646 45.995472 
L 267.0524 -1 
M 267.451084 -1 
L 267.804818 63.794899 
L 268.167014 -1 
M 269.837728 -1 
L 269.937164 7.490721 
L 270.40847 -1 
M 271.030746 -1 
L 271.536423 27.447208 
L 272.06951 26.393655 
L 272.602596 34.018059 
L 273.135682 35.564816 
L 273.341361 -1 
M 280.471572 -1 
L 280.598892 41.889921 
L 280.830278 -1 
M 281.477039 -1 
L 281.665065 29.472916 
L 281.960848 -1 
M 284.855037 -1 
L 284.863583 -0.366106 
L 285.396669 77.09346 
L 285.929756 1.773107 
L 286.462842 94.952562 
L 286.758547 -1 
M 288.289735 -1 
L 288.595188 106.286478 
L 289.128274 16.56803 
L 289.66136 102.573688 
L 290.065416 -1 
M 290.475169 -1 
L 290.727533 28.734148 
L 291.26062 44.786792 
L 291.793706 70.463538 
L 292.151011 -1 
M 293.102336 -1 
L 293.926052 50.793533 
L 294.424501 -1 
M 294.481072 -1 
L 294.992224 82.874284 
L 295.525311 52.631942 
L 296.058397 8.727566 
L 296.321329 -1 
M 297.288712 -1 
L 297.657656 100.52791 
L 298.190743 89.022892 
L 298.723829 60.297589 
L 299.256916 53.929618 
L 299.790002 97.243034 
L 300.323088 5.826574 
L 300.856175 92.548016 
L 301.251212 -1 
M 301.563224 -1 
L 301.922347 66.486558 
L 302.455434 71.747176 
L 302.98852 46.565272 
L 303.521607 -0.192721 
L 304.054693 98.954475 
L 304.587779 105.899399 
L 305.120866 90.247871 
L 305.653952 1.944793 
L 306.720125 103.453231 
L 307.174722 -1 
M 307.851458 -1 
L 308.319384 106.573419 
L 308.852471 111.358673 
L 309.240291 -1 
M 309.528641 -1 
L 309.918643 113.713178 
L 310.45173 111.241777 
L 310.984816 38.562207 
L 311.517903 81.034128 
L 312.040713 -1 
M 312.070212 -1 
L 312.584075 42.104068 
L 313.00941 -1 
M 314.482855 -1 
L 314.716421 19.133451 
L 315.249507 25.573493 
L 315.462177 -1 
M 315.945221 -1 
L 316.31568 90.20237 
L 316.848766 93.145654 
L 317.37625 -1 
M 317.386662 -1 
L 317.914939 108.853788 
L 318.396493 -1 
M 318.556866 -1 
L 319.514198 102.228103 
L 320.047285 106.331732 
L 320.580371 10.979646 
L 321.113458 103.913084 
L 322.17963 19.756426 
L 322.712717 42.517026 
L 323.212618 -1 
M 323.426278 -1 
L 323.77889 4.644088 
L 324.311976 76.346623 
L 324.845062 89.493262 
L 325.305621 -1 
M 325.450541 -1 
L 325.911235 89.689258 
L 326.444322 66.393494 
L 326.977408 52.416043 
L 327.490867 -1 
M 327.521378 -1 
L 328.043581 96.974797 
L 328.576667 63.00853 
L 329.109753 90.352924 
L 329.64284 68.10685 
L 330.175926 6.733881 
L 331.242099 80.386965 
L 331.775185 82.810457 
L 332.308272 100.186309 
L 332.841358 46.414801 
L 333.374445 91.303887 
L 333.723271 -1 
M 334.14303 -1 
L 334.440617 60.612392 
L 334.973704 26.380045 
L 335.50679 26.129757 
L 336.039877 12.422525 
L 336.572963 36.326157 
L 337.106049 25.81588 
L 337.639136 29.989932 
L 338.316609 -1 
M 338.801375 -1 
L 339.238395 40.771609 
L 339.771481 64.936326 
L 340.172965 -1 
M 340.46006 -1 
L 340.837654 51.485472 
L 341.370741 82.136367 
L 341.903827 53.274861 
L 342.436913 83.184932 
L 342.774507 -1 
M 343.184707 -1 
L 343.503086 71.288209 
L 343.94786 -1 
M 344.110623 -1 
L 344.569259 87.420068 
L 345.102345 80.155155 
L 345.385347 -1 
M 346.917563 -1 
L 347.234691 38.811085 
L 347.506646 -1 
M 354.593318 -1 
L 354.6979 17.673247 
L 354.907112 -1 
M 355.42167 -1 
L 355.764073 50.908195 
L 356.051882 -1 
M 357.315024 -1 
L 357.363332 6.05246 
L 357.896419 11.391456 
L 358.429505 50.814422 
L 358.736881 -1 
M 359.12401 -1 
L 359.495678 86.605989 
L 360.028764 77.335297 
L 360.561851 33.664518 
L 361.094937 27.34802 
L 361.419497 -1 
M 362.29711 -1 
L 362.694196 85.137063 
L 362.987963 -1 
M 363.43201 -1 
L 363.760369 111.54807 
L 364.293455 111.569379 
L 364.826542 88.904991 
L 365.181416 -1 
M 365.51053 -1 
L 365.892715 113.347334 
L 366.425801 79.665037 
L 366.958887 65.133582 
L 367.491974 32.450699 
L 368.02506 28.350122 
L 368.558147 81.551296 
L 369.624319 38.404883 
L 370.157406 46.584986 
L 370.690492 66.178381 
L 371.223578 7.198784 
L 371.644387 -1 
M 371.772853 -1 
L 372.289751 68.851571 
L 372.822838 55.113072 
L 373.355924 88.719872 
L 373.825067 -1 
M 375.075093 -1 
L 375.48827 76.983141 
L 376.021356 0.809254 
L 376.154777 -1 
M 376.664589 -1 
L 377.087529 19.810317 
L 377.620615 76.82104 
L 378.298342 -1 
M 378.808997 -1 
L 379.219874 96.520943 
L 379.752961 101.40046 
L 380.286047 13.328515 
L 380.819134 11.360283 
L 381.35222 103.560627 
L 381.755815 -1 
M 383.066525 -1 
L 383.484565 78.986391 
L 384.017652 59.797218 
L 384.550738 97.804566 
L 385.083825 66.621642 
L 385.616911 58.340539 
L 385.959769 -1 
M 386.691233 -1 
L 387.21617 76.861848 
L 387.749257 20.215665 
L 388.121137 -1 
M 388.323054 -1 
L 388.815429 110.229643 
L 389.348516 115.964787 
L 389.881602 87.461745 
L 390.414689 75.064535 
L 390.947775 82.456327 
L 391.480861 92.432046 
L 392.013948 54.862507 
L 392.547034 66.518145 
L 393.080121 98.430573 
L 393.922265 -1 
M 394.301165 -1 
L 394.67938 54.313326 
L 395.212466 31.121746 
L 395.745553 62.808781 
L 396.278639 50.985398 
L 396.811725 114.493645 
L 397.344812 70.731917 
L 397.676222 -1 
M 399.03811 -1 
L 399.477157 47.377853 
L 400.010244 88.348415 
L 400.54333 8.188577 
L 401.076416 104.942454 
L 401.596596 -1 
M 401.640639 -1 
L 402.142589 41.378143 
L 402.675676 66.11402 
L 403.012049 -1 
M 403.629126 -1 
L 403.741848 9.524639 
L 404.274935 70.666344 
L 404.808021 16.900983 
L 405.341108 17.770109 
L 405.874194 13.572033 
L 406.40728 79.572549 
L 406.940367 80.4174 
L 407.434704 -1 
M 407.534872 -1 
L 408.539626 110.821925 
L 409.072712 48.495062 
L 409.605799 24.813453 
L 410.138885 86.042088 
L 410.671971 28.564205 
L 411.126279 -1 
M 412.162496 -1 
L 412.271231 5.833862 
L 412.470605 -1 
M 412.932337 -1 
L 413.87049 85.340938 
L 414.403576 65.395385 
L 414.829198 -1 
M 415.139603 -1 
L 415.469749 26.27193 
L 416.002835 60.167591 
L 416.535922 39.505396 
L 417.069008 81.024587 
L 417.602095 35.093448 
L 418.135181 74.639955 
L 418.668267 51.153301 
L 418.927802 -1 
M 420.60371 -1 
L 420.800613 17.345656 
L 420.846543 -1 
M 426.706057 -1 
L 427.19765 55.217152 
L 427.730736 53.355392 
L 428.001073 -1 
M 428.631509 -1 
L 428.796909 22.764893 
L 428.985071 -1 
M 430.213296 -1 
L 430.396168 51.03681 
L 430.929254 82.507358 
L 431.433606 -1 
M 431.486459 -1 
L 431.995427 99.404174 
L 432.528514 57.697571 
L 433.0616 60.447756 
L 433.594686 45.562942 
L 434.127773 26.23147 
L 434.660859 79.570397 
L 435.193946 73.239186 
L 435.727032 79.674686 
L 436.260118 68.844038 
L 436.568282 -1 
M 436.973595 -1 
L 437.326291 98.670585 
L 437.859377 103.376194 
L 438.278027 -1 
M 439.200819 -1 
L 439.458637 50.628738 
L 439.991723 93.314488 
L 440.524809 107.004228 
L 440.994096 -1 
M 441.780584 -1 
L 442.124069 99.424951 
L 442.657155 104.657588 
L 443.071426 -1 
M 443.84133 -1 
L 444.256414 103.243972 
L 444.789501 35.981701 
L 445.322587 48.022091 
L 445.649534 -1 
M 446.246435 -1 
L 446.38876 10.257496 
L 446.539649 -1 
M 447.55092 -1 
L 447.988019 89.585958 
L 448.521105 79.226142 
L 449.054192 78.155639 
L 449.587278 75.65333 
L 450.120365 80.7581 
L 450.653451 88.431879 
L 451.186537 85.509906 
L 451.719624 59.427983 
L 452.25271 48.973368 
L 452.785796 48.276851 
L 453.318883 50.446987 
L 453.851969 83.005246 
L 454.385056 59.549909 
L 454.918142 60.838643 
L 455.327494 -1 
M 456.59196 -1 
L 457.050488 70.897236 
L 457.583574 80.420792 
L 458.11666 42.746338 
L 458.649747 24.928782 
L 459.182833 63.788798 
L 459.645066 -1 
M 459.77007 -1 
L 460.249006 86.837169 
L 460.782092 101.891615 
L 461.301175 -1 
M 461.334524 -1 
L 461.848265 72.714768 
L 462.381352 87.556098 
L 462.914438 14.514688 
L 463.447524 50.206136 
L 463.980611 35.706362 
L 464.513697 44.722622 
L 465.046783 83.338906 
L 465.450512 -1 
M 465.845861 -1 
L 466.112956 26.1351 
L 466.646043 66.82128 
L 467.179129 5.746213 
L 467.712215 12.119167 
L 467.881032 -1 
M 468.491291 -1 
L 468.778388 32.038997 
L 469.311475 60.945151 
L 470.071923 -1 
M 471.014669 -1 
L 471.44382 68.725318 
L 471.829444 -1 
M 472.329705 -1 
L 473.043079 55.141421 
L 473.429775 -1 
M 473.685884 -1 
L 474.109252 81.010574 
L 474.642339 39.241358 
L 475.175425 28.652958 
L 475.708511 34.033509 
L 476.241598 19.065929 
L 476.774684 68.262776 
L 477.307771 24.79577 
L 477.840857 20.372864 
L 478.373943 12.964072 
L 478.90703 35.27084 
L 479.440116 75.048815 
L 480.506289 65.344265 
L 481.039375 11.970671 
L 481.572462 93.082202 
L 482.047871 -1 
M 482.704228 -1 
L 483.171721 33.105342 
L 483.704807 14.263924 
L 484.237894 57.368977 
L 484.77098 84.761344 
L 485.304066 54.675553 
L 485.837153 47.83893 
L 486.370239 46.966428 
L 486.903326 78.836194 
L 487.183068 -1 
M 488.856006 -1 
L 489.035671 44.48215 
L 489.568758 60.955299 
L 489.849942 -1 
M 490.467394 -1 
L 490.63493 24.437835 
L 491.168017 80.335001 
L 491.660576 -1 
M 491.802735 -1 
L 492.234189 27.409532 
L 492.491108 -1 
M 492.90612 -1 
L 493.300362 85.711565 
L 493.944824 -1 
M 501.547312 -1 
L 501.829745 50.521166 
L 502.362831 46.578226 
L 502.895917 98.950344 
L 503.216096 -1 
M 503.807004 -1 
L 503.96209 26.268725 
L 504.051659 -1 
M 505.217649 -1 
L 505.561349 127.483349 
L 505.872112 -1 
M 506.324869 -1 
L 506.627522 119.727284 
L 507.160608 70.797008 
L 507.693695 97.509967 
L 507.962871 -1 
M 508.667047 -1 
L 508.759868 19.362405 
L 508.844947 -1 
M 509.62291 -1 
L 509.82604 65.009497 
L 510.359127 48.066514 
L 510.892213 89.333599 
L 511.4253 120.782933 
L 511.958386 76.121819 
L 512.491472 123.688867 
L 512.785213 -1 
M 513.750114 -1 
L 514.090732 142.172087 
L 514.813623 -1 
M 516.076841 -1 
L 516.223077 17.51308 
L 516.756164 47.316332 
L 517.28925 140.558293 
L 517.822336 13.944532 
L 518.112891 -1 
M 518.471196 -1 
L 518.888509 43.96522 
L 519.421596 148.045035 
L 519.954682 131.677714 
L 520.487768 139.403625 
L 521.020855 120.750853 
L 521.553941 131.536498 
L 522.087027 84.018795 
L 522.620114 101.435017 
L 523.1532 94.178745 
L 523.52804 -1 
M 524.141384 -1 
L 524.219373 5.885809 
L 524.752459 73.65808 
L 525.275035 -1 
M 526.506827 -1 
L 526.884805 70.716389 
L 527.128921 -1 
M 528.005351 -1 
L 528.484064 85.477773 
L 528.732123 -1 
M 529.781772 -1 
L 530.083323 131.143398 
L 531.149496 145.646029 
L 531.682583 143.470035 
L 532.215669 115.546905 
L 532.748755 121.038999 
L 533.281842 115.223643 
L 533.814928 107.956977 
L 534.348014 65.131895 
L 534.881101 38.043871 
L 535.330896 -1 
M 535.660758 -1 
L 535.947274 7.401292 
L 536.48036 73.85988 
L 537.013446 54.791512 
L 537.546533 91.962745 
L 538.079619 89.726782 
L 538.612706 32.733251 
L 539.145792 74.219775 
L 539.678878 51.861006 
L 540.211965 58.300074 
L 540.798099 -1 
M 541.485975 -1 
L 541.811224 66.493595 
L 542.386047 -1 
M 547.363681 -1 
L 547.675174 59.568882 
L 548.208261 5.079411 
L 548.741347 75.291064 
L 549.274433 96.451971 
L 549.80752 35.920738 
L 550.340606 99.2526 
L 550.982006 -1 
M 551.680965 -1 
L 551.939865 24.348543 
L 552.192844 -1 
M 554.344159 -1 
L 554.605297 50.822662 
L 555.138384 50.832464 
L 555.67147 9.132943 
L 556.204557 124.915564 
L 556.737643 123.162062 
L 557.270729 119.43077 
L 558.336902 74.686826 
L 558.558572 -1 
M 559.105791 -1 
L 559.403075 133.053464 
L 559.936161 120.871764 
L 560.469248 102.507987 
L 561.002334 110.789379 
L 561.693043 -1 
M 563.482929 -1 
L 563.667766 41.011804 
L 564.200852 105.617691 
L 564.733939 140.153437 
L 565.267025 65.988224 
L 565.800112 140.625616 
L 566.333198 136.985187 
L 566.866284 48.58701 
L 567.399371 139.276534 
L 567.932457 134.01218 
L 568.41069 -1 
M 568.52234 -1 
L 568.99863 128.863306 
L 569.31484 -1 
M 569.743771 -1 
L 570.064803 133.840903 
L 570.597889 54.812703 
L 571.130976 71.769669 
L 571.664062 116.357353 
L 572.197148 92.461992 
L 572.730235 56.706297 
L 573.263321 106.204798 
L 573.796408 111.710606 
L 574.616781 -1 
M 575.356238 -1 
L 575.395667 1.794135 
L 575.928753 82.507455 
L 576.461839 60.014943 
L 576.840122 -1 
M 577.771781 -1 
L 578.061099 95.989533 
L 578.338798 -1 
M 578.928992 -1 
L 579.127271 51.824029 
L 579.660358 137.946766 
L 580.193444 139.629854 
L 580.726531 112.634353 
L 581.155765 -1 
M 581.348775 -1 
L 581.792703 135.89327 
L 582.858876 103.786784 
L 583.391963 113.047931 
L 583.925049 27.65289 
L 584.458135 42.8302 
L 584.849312 -1 
M 585.067373 -1 
L 585.524308 94.409585 
L 586.057395 36.097439 
L 586.590481 82.030516 
L 587.123567 7.963295 
L 587.388791 -1 
M 592.663305 -1 
L 592.987518 50.233094 
L 593.367449 -1 
M 595.223729 -1 
L 595.65295 126.133106 
L 596.186036 139.514785 
L 596.719122 126.094276 
L 596.970106 -1 
M 597.737009 -1 
L 597.785295 13.228248 
L 597.833754 -1 
M 598.642839 -1 
L 598.851468 90.495532 
L 599.206639 -1 
M 599.609666 -1 
L 600.450727 154.415335 
L 600.983814 111.528866 
L 601.344692 -1 
M 602.48907 -1 
L 603.116159 74.566026 
L 603.649245 75.471151 
L 604.182332 150.31744 
L 604.715418 14.078375 
L 605.248505 82.777907 
L 605.781591 68.897775 
L 606.314677 123.80017 
L 606.847764 151.853516 
L 607.38085 103.175986 
L 607.913937 117.757881 
L 608.447023 137.89975 
L 608.980109 98.984433 
L 609.689322 -1 
M 611.169338 -1 
L 611.645541 78.565459 
L 612.178628 127.728465 
L 612.711714 107.712691 
L 613.244801 100.508441 
L 613.777887 119.884636 
L 614.310973 50.72258 
L 614.84406 73.250113 
L 615.377146 141.477156 
L 615.910232 99.410521 
L 616.443319 144.262084 
L 616.976405 97.520253 
L 617.509492 111.833506 
L 618.009386 -1 
M 618.658567 -1 
L 619.108751 115.084402 
L 619.641837 87.115273 
L 619.838356 -1 
M 620.704585 -1 
L 620.70801 -0.024242 
L 620.715881 -1 
M 625.370883 -1 
L 625.505788 82.18002 
L 626.038874 74.255135 
L 626.293328 -1 
M 626.758751 -1 
L 627.105047 151.774843 
L 627.332818 -1 
M 628.070311 -1 
L 628.17122 46.815469 
L 628.704306 162.904622 
L 629.237392 121.865839 
L 629.770479 111.104134 
L 630.836651 155.45895 
L 631.369738 188.698259 
L 631.902824 106.401626 
L 632.435911 155.937396 
L 632.968997 168.769549 
L 634.03517 84.885026 
L 634.568256 174.271862 
L 635.101343 58.574043 
L 635.634429 163.61535 
L 636.167515 177.332799 
L 636.700602 167.450538 
L 637.233688 69.597411 
L 637.766775 177.667412 
L 638.299861 171.86297 
L 638.832947 139.903683 
L 639.366034 145.645879 
L 640.10267 -1 
M 640.593146 -1 
L 640.965293 116.525068 
L 641.38993 -1 
M 644.95857 -1 
L 645.229984 56.305829 
L 645.76307 111.465481 
L 646.296157 114.409941 
L 646.829243 162.569399 
L 647.36233 184.783162 
L 647.895416 197.124722 
L 648.428502 201.755432 
L 648.961589 194.174273 
L 649.494675 62.234239 
L 650.027762 180.847936 
L 650.560848 204.234506 
L 651.093934 206.844875 
L 651.627021 201.521896 
L 652.160107 188.392703 
L 653.22628 124.985571 
L 653.759366 122.738228 
L 654.292453 99.880262 
L 654.825539 41.524592 
L 655.011398 -1 
L 655.011398 -1 
" clip-path="url(#pb48efc326a)" style="fill: none; stroke: #1f77b4; stroke-width: 3; stroke-linecap: square"/>
   </g>
   <g id="line2d_35">
    <path d="M 185.590064 505 
L 185.709514 485.976172 
L 186.210906 505 
M 275.742141 505 
L 275.801114 490.151991 
L 275.868081 505 
M 276.784108 505 
L 276.867287 485.89252 
L 277.400373 450.637531 
L 277.93346 405.731529 
L 278.307092 505 
M 279.005855 505 
L 279.532719 455.649057 
L 279.687275 505 
M 280.464439 505 
L 280.598892 464.23332 
L 280.745616 505 
M 288.583326 505 
L 288.595188 500.365016 
L 288.613344 505 
M 344.490439 505 
L 344.569259 486.376544 
L 344.929231 505 
M 347.179234 505 
L 347.234691 496.16271 
L 347.279084 505 
M 349.396502 505 
L 349.900123 447.384997 
L 350.433209 451.544792 
L 350.966296 398.605181 
L 351.499382 500.274061 
L 352.032468 405.058841 
L 352.565555 463.158099 
L 352.73978 505 
M 355.682067 505 
L 355.764073 490.330282 
L 355.831684 505 
M 363.740909 505 
L 363.760369 497.365305 
L 364.060728 505 
M 417.983944 505 
L 418.135181 486.059789 
L 418.668267 500.417632 
L 418.68631 505 
M 420.654856 505 
L 420.800613 471.426986 
L 420.885487 505 
M 421.7202 505 
L 421.866786 437.758176 
L 422.030228 505 
M 422.783374 505 
L 422.932959 445.683118 
L 423.466045 384.672371 
L 423.999131 436.679496 
L 424.532218 503.696584 
L 425.065304 488.150063 
L 425.59839 494.90508 
L 426.060951 505 
M 426.986433 505 
L 427.19765 472.595274 
L 427.721132 505 
M 431.928361 505 
L 431.995427 491.007743 
L 432.084593 505 
M 493.182235 505 
L 493.300362 474.087106 
L 493.546112 505 
M 496.732725 505 
L 497.031967 439.732351 
L 497.565053 452.872552 
L 498.09814 452.065723 
L 498.631226 390.924459 
L 499.164313 385.659815 
L 499.697399 436.676483 
L 499.990036 505 
M 500.522578 505 
L 500.763572 458.681885 
L 500.942524 505 
M 501.709201 505 
L 501.829745 478.217001 
L 502.173587 505 
M 502.46184 505 
L 502.895917 440.373485 
L 503.092251 505 
M 505.402806 505 
L 505.561349 445.093078 
L 505.674286 505 
M 506.563162 505 
L 506.627522 474.398406 
L 506.992828 505 
M 511.333915 505 
L 511.4253 500.921489 
L 511.45415 505 
M 514.033518 505 
L 514.090732 477.41154 
L 514.175788 505 
M 517.097966 505 
L 517.28925 473.090279 
L 517.42471 505 
M 519.214387 505 
L 519.421596 466.025782 
L 519.954682 504.838338 
L 520.487768 474.429138 
L 521.020855 488.817824 
L 521.553941 488.834302 
L 521.758812 505 
M 530.030078 505 
L 530.083323 479.085141 
L 530.61641 489.595433 
L 531.149496 468.18947 
L 531.682583 472.256201 
L 531.993126 505 
M 532.446491 505 
L 532.748755 474.272176 
L 533.281842 479.328226 
L 533.814928 495.491409 
L 533.927536 505 
M 537.577269 505 
L 538.079619 478.041572 
L 538.255246 505 
M 539.077698 505 
L 539.145792 496.96483 
L 539.678878 494.783355 
L 540.211965 490.511262 
L 540.384796 505 
M 541.574506 505 
L 541.811224 427.632706 
L 542.34431 462.916532 
L 542.454316 505 
M 543.213365 505 
L 543.410483 410.037902 
L 544.038532 505 
M 544.689008 505 
L 545.009742 405.211086 
L 545.542829 454.953566 
L 546.075915 460.408574 
L 546.609002 468.924904 
L 546.89492 505 
M 547.296074 505 
L 547.675174 428.222766 
L 548.094114 505 
M 548.411721 505 
L 548.741347 471.10877 
L 549.274433 449.328819 
L 549.716365 505 
M 550.106921 505 
L 550.340606 496.037381 
L 550.395354 505 
M 556.051137 505 
L 556.204557 468.155892 
L 556.737643 472.530331 
L 557.270729 490.222198 
L 557.479042 505 
M 559.335825 505 
L 559.403075 473.005695 
L 560.058492 505 
M 560.90987 505 
L 561.002334 499.853129 
L 561.040477 505 
M 564.284456 505 
L 564.733939 479.556595 
L 564.84104 505 
M 565.70832 505 
L 565.800112 483.950002 
L 566.333198 491.566963 
L 566.386195 505 
M 567.311313 505 
L 567.399371 480.921877 
L 567.932457 490.635116 
L 567.971048 505 
M 570.010515 505 
L 570.064803 478.31466 
L 570.250459 505 
M 571.521322 505 
L 571.664062 493.842359 
L 571.901373 505 
M 573.182981 505 
L 573.263321 497.198767 
L 573.58079 505 
M 579.375141 505 
L 579.660358 451.544987 
L 580.193444 457.385435 
L 580.726531 488.134552 
L 580.795277 505 
M 581.609582 505 
L 581.792703 445.392839 
L 582.32579 454.6956 
L 582.858876 480.490063 
L 583.391963 456.926073 
L 583.585331 505 
M 585.340358 505 
L 585.524308 447.033136 
L 586.041872 505 
M 586.068625 505 
L 586.590481 424.21283 
L 586.929636 505 
M 587.499115 505 
L 588.18974 413.879209 
L 588.722826 442.091902 
L 589.255913 413.787961 
L 589.788999 447.088802 
L 590.322086 360.877703 
L 590.855172 378.873479 
L 591.388258 379.534258 
L 591.898374 505 
M 592.207255 505 
L 592.454431 500.115627 
L 592.987518 454.670396 
L 593.319764 505 
M 595.379585 505 
L 595.65295 420.237696 
L 596.186036 445.996672 
L 596.719122 465.543966 
L 596.796507 505 
M 600.062473 505 
L 600.450727 439.385561 
L 600.775276 505 
M 603.994598 505 
L 604.182332 452.150442 
L 604.374733 505 
M 606.07889 505 
L 606.314677 471.450435 
L 606.847764 440.234214 
L 607.38085 489.225067 
L 607.913937 474.76511 
L 608.447023 454.881442 
L 609.01573 505 
M 611.784051 505 
L 612.178628 458.503557 
L 612.711714 476.348382 
L 613.244801 481.336187 
L 613.777887 459.639991 
L 614.01889 505 
M 615.039926 505 
L 615.377146 440.871598 
L 615.910232 480.064696 
L 616.443319 416.992322 
L 616.976405 504.849731 
L 617.509492 480.842281 
L 617.659757 505 
M 618.816439 505 
L 619.108751 428.442772 
L 619.641837 418.431114 
L 619.808797 505 
M 620.625961 505 
L 620.70801 470.466292 
L 621.148242 505 
M 621.276333 505 
L 621.774183 402.08628 
L 622.064265 505 
M 622.536455 505 
L 622.840356 390.683659 
L 623.373442 331.340156 
L 623.906528 314.807407 
L 624.439615 322.32852 
L 624.683456 505 
M 625.283438 505 
L 625.505788 349.949195 
L 626.038874 388.470824 
L 626.344697 505 
M 626.778732 505 
L 627.105047 368.33966 
L 627.270902 505 
M 628.147249 505 
L 628.17122 490.753176 
L 628.704306 397.470502 
L 629.237392 443.758563 
L 629.591087 505 
M 630.410525 505 
L 630.836651 474.982023 
L 631.369738 382.995278 
L 631.902824 499.416054 
L 632.435911 416.381827 
L 632.968997 385.587531 
L 634.03517 490.901129 
L 634.568256 409.982831 
L 635.053477 505 
M 635.147269 505 
L 635.634429 405.57629 
L 636.167515 404.940358 
L 636.700602 392.994225 
L 637.129731 505 
M 637.329328 505 
L 637.766775 380.893994 
L 638.299861 378.01915 
L 638.832947 382.705808 
L 639.366034 365.208516 
L 639.943261 505 
M 640.589438 505 
L 640.965293 334.765324 
L 641.498379 487.719019 
L 642.031466 446.002369 
L 642.564552 363.007596 
L 643.097638 330.189477 
L 643.45595 505 
M 643.793693 505 
L 644.163811 311.34673 
L 644.696898 283.023165 
L 645.229984 275.265517 
L 645.76307 308.186475 
L 646.296157 325.916019 
L 646.829243 285.594182 
L 647.36233 275.979584 
L 647.895416 274.475724 
L 648.428502 279.268114 
L 648.961589 297.425039 
L 649.494675 469.670525 
L 650.027762 321.072282 
L 650.560848 286.282787 
L 651.093934 277.706299 
L 651.627021 277.292085 
L 652.160107 284.502684 
L 652.693194 312.75333 
L 653.22628 459.30951 
L 653.759366 309.142023 
L 654.292453 280.275258 
L 654.825539 271.025665 
L 655.358626 267.468995 
L 655.891712 266.984354 
L 656.424798 269.124293 
L 656.957885 274.969324 
L 657.490971 289.734433 
L 657.490971 289.734433 
" clip-path="url(#pb48efc326a)" style="fill: none; stroke-dasharray: 11.1,4.8; stroke-dashoffset: 0; stroke: #ff7f0e; stroke-width: 3"/>
   </g>
   <g id="line2d_36">
    <path d="M 124.937665 137.529105 
L 128.66927 137.522406 
L 129.202356 137.463647 
L 129.735443 137.617448 
L 132.933961 137.59894 
L 134.000134 137.783712 
L 135.066307 137.768078 
L 136.13248 137.634023 
L 136.665566 137.762231 
L 137.198652 137.688021 
L 138.264825 137.868071 
L 142.529516 137.993592 
L 144.661862 137.783873 
L 145.194948 137.878804 
L 145.728035 137.704085 
L 146.261121 137.821442 
L 146.794207 137.630728 
L 148.393467 137.813042 
L 149.992726 137.709239 
L 150.525812 137.565878 
L 151.058899 137.584324 
L 151.591985 137.7668 
L 152.125071 137.603098 
L 152.658158 137.579857 
L 153.191244 137.733339 
L 153.72433 137.496587 
L 154.257417 137.739661 
L 154.790503 137.489193 
L 155.32359 137.714746 
L 155.856676 137.492385 
L 156.389762 137.679253 
L 156.922849 137.512182 
L 157.989022 137.58487 
L 158.522108 137.459032 
L 159.055194 137.654309 
L 160.121367 137.377757 
L 161.18754 137.495932 
L 162.253713 137.306374 
L 162.786799 137.211443 
L 163.319886 137.323298 
L 164.386058 136.91797 
L 165.985317 136.545393 
L 168.117663 136.819504 
L 168.650749 137.054315 
L 170.783095 137.358067 
L 171.849268 137.63298 
L 173.981613 137.736263 
L 174.5147 137.714851 
L 176.113959 137.341179 
L 176.647045 137.361784 
L 177.180132 137.2159 
L 178.246305 136.557405 
L 178.779391 136.176836 
L 179.845564 135.979336 
L 180.911736 136.083041 
L 181.444823 136.317185 
L 181.977909 136.94938 
L 182.510996 138.119186 
L 183.044082 139.849977 
L 183.577168 142.463463 
L 184.110255 146.488546 
L 184.643341 153.389721 
L 185.709514 194.428442 
L 186.775687 202.738455 
L 187.308773 204.888418 
L 187.84186 204.988186 
L 188.374946 207.376371 
L 188.908032 210.330473 
L 189.441119 211.630404 
L 189.974205 212.297781 
L 190.507292 213.35502 
L 191.573464 214.720123 
L 192.106551 214.612482 
L 192.639637 215.284975 
L 193.172723 215.596942 
L 193.70581 216.153545 
L 196.904328 217.760788 
L 198.503587 218.220754 
L 201.702106 219.042343 
L 204.367538 219.48838 
L 208.099142 219.927296 
L 208.632229 220.062298 
L 209.698402 220.113605 
L 210.764574 220.227465 
L 219.293957 220.819075 
L 224.624821 221.043884 
L 227.823339 221.175498 
L 241.150499 221.510369 
L 264.6063 221.838873 
L 305.653952 222.116086 
L 334.440617 222.217273 
L 389.881602 222.335865 
L 657.490971 222.517016 
L 657.490971 222.517016 
" clip-path="url(#pb48efc326a)" style="fill: none; stroke-dasharray: 19.2,4.8,3,4.8; stroke-dashoffset: 0; stroke: #2ca02c; stroke-width: 3"/>
   </g>
   <g id="line2d_37">
    <path d="M 124.937665 195.570562 
L 126.003838 195.551199 
L 127.603097 195.424333 
L 128.66927 195.604332 
L 129.202356 195.518245 
L 130.268529 195.826231 
L 130.801616 195.585213 
L 131.334702 195.664846 
L 131.867788 195.462663 
L 132.400875 195.512355 
L 132.933961 195.791108 
L 133.467048 195.851617 
L 135.066307 195.648813 
L 135.599393 195.679998 
L 136.13248 195.575142 
L 136.665566 195.706084 
L 137.198652 195.717657 
L 137.731739 195.87899 
L 138.797911 195.784181 
L 139.330998 195.829485 
L 139.864084 195.750526 
L 140.397171 195.939193 
L 140.930257 195.903427 
L 141.463343 196.049085 
L 141.99643 195.761458 
L 142.529516 196.000644 
L 143.062603 195.781216 
L 144.661862 195.629478 
L 145.194948 195.824153 
L 145.728035 195.82696 
L 146.794207 195.674125 
L 147.327294 195.903962 
L 149.459639 195.840079 
L 149.992726 195.886192 
L 150.525812 195.768515 
L 151.058899 195.496164 
L 152.125071 195.845972 
L 152.658158 195.47752 
L 153.191244 195.856177 
L 153.72433 195.562425 
L 154.257417 195.738625 
L 155.32359 195.663949 
L 155.856676 195.691745 
L 156.389762 195.602803 
L 156.922849 195.751507 
L 157.455935 195.496287 
L 157.989022 195.847617 
L 158.522108 195.428257 
L 159.055194 195.698458 
L 159.588281 195.780424 
L 160.121367 195.463661 
L 162.253713 195.333782 
L 162.786799 195.54013 
L 164.919145 195.284081 
L 165.452231 195.37831 
L 165.985317 195.061321 
L 167.05149 195.510989 
L 167.584577 195.418469 
L 168.650749 195.597406 
L 169.183836 195.933379 
L 169.716922 195.927553 
L 171.316181 196.200016 
L 172.915441 196.198059 
L 173.981613 196.439121 
L 175.047786 196.96074 
L 175.580873 196.797094 
L 176.647045 197.165043 
L 177.713218 197.66432 
L 178.246305 197.898307 
L 178.779391 197.89783 
L 179.312477 198.231893 
L 179.845564 198.252118 
L 180.911736 198.896528 
L 181.444823 199.626149 
L 181.977909 200.07282 
L 182.510996 201.190844 
L 183.044082 202.643814 
L 183.577168 204.687302 
L 184.110255 207.727319 
L 184.643341 211.681288 
L 185.176428 217.016509 
L 185.709514 220.205122 
L 186.2426 221.865994 
L 186.775687 221.09092 
L 187.308773 219.965141 
L 187.84186 218.124442 
L 188.374946 205.346974 
L 188.908032 218.520486 
L 189.441119 213.732261 
L 189.974205 191.528033 
L 190.507292 207.972364 
L 191.040378 188.248273 
L 191.573464 216.179454 
L 192.106551 188.213698 
L 192.639637 192.810935 
L 193.172723 214.540531 
L 193.70581 202.828657 
L 194.238896 214.458638 
L 194.771983 214.61116 
L 195.305069 212.783722 
L 195.838155 203.496292 
L 196.371242 206.691545 
L 196.904328 199.762325 
L 197.437415 203.881684 
L 197.970501 216.543732 
L 198.503587 201.40297 
L 199.036674 209.786386 
L 199.56976 199.175547 
L 200.102847 199.180359 
L 200.635933 203.154001 
L 201.169019 209.564382 
L 201.702106 197.604143 
L 202.235192 198.302277 
L 202.768279 208.197145 
L 203.301365 211.172935 
L 203.834451 200.048954 
L 204.367538 213.504343 
L 204.900624 200.427769 
L 205.433711 198.699551 
L 205.966797 195.755095 
L 206.499883 197.140836 
L 207.03297 205.625978 
L 207.566056 202.725984 
L 208.099142 212.063042 
L 208.632229 211.296865 
L 209.165315 204.829396 
L 209.698402 207.970256 
L 210.231488 191.000511 
L 210.764574 188.106221 
L 211.297661 207.675381 
L 211.830747 197.150761 
L 212.363834 192.984365 
L 212.89692 207.285539 
L 213.430006 206.068051 
L 213.963093 196.15497 
L 214.496179 214.480611 
L 215.029266 199.751107 
L 215.562352 197.645315 
L 216.095438 203.068428 
L 216.628525 197.670767 
L 217.161611 211.708308 
L 217.694698 201.48655 
L 218.227784 200.224237 
L 218.76087 202.937321 
L 219.293957 206.254063 
L 219.827043 200.579798 
L 220.360129 193.288662 
L 220.893216 203.007505 
L 221.426302 194.050219 
L 222.492475 203.599663 
L 223.025561 213.82495 
L 223.558648 198.426842 
L 224.091734 212.175575 
L 224.624821 213.097663 
L 225.157907 202.66545 
L 225.690993 210.233687 
L 226.22408 198.628545 
L 226.757166 199.910897 
L 227.290253 210.524847 
L 227.823339 199.726626 
L 228.356425 202.480022 
L 228.889512 200.252462 
L 229.422598 207.722054 
L 229.955685 206.187443 
L 230.488771 205.840143 
L 231.021857 213.474529 
L 231.554944 214.623322 
L 232.08803 194.247094 
L 232.621117 214.883864 
L 233.154203 190.923904 
L 233.687289 210.988746 
L 234.220376 199.02858 
L 234.753462 213.594487 
L 235.286548 213.46741 
L 235.819635 215.147764 
L 236.352721 201.259678 
L 236.885808 214.196424 
L 237.418894 215.343543 
L 237.95198 203.280962 
L 238.485067 207.203862 
L 239.018153 203.972422 
L 239.55124 206.839716 
L 240.084326 206.682469 
L 240.617412 202.184273 
L 241.150499 203.43796 
L 241.683585 203.852284 
L 242.216672 207.049843 
L 242.749758 211.714036 
L 243.282844 196.4395 
L 243.815931 189.508374 
L 244.349017 215.224218 
L 244.882104 214.76312 
L 245.41519 215.122265 
L 245.948276 209.776769 
L 246.481363 190.398008 
L 247.014449 214.297261 
L 247.547535 214.554488 
L 248.080622 191.80893 
L 248.613708 212.138994 
L 249.679881 193.391173 
L 250.212967 198.604659 
L 250.746054 192.731879 
L 251.27914 205.330666 
L 251.812227 203.619779 
L 252.345313 210.10864 
L 252.878399 201.826856 
L 253.411486 212.900521 
L 253.944572 211.216924 
L 254.477659 213.828457 
L 255.010745 192.482171 
L 255.543831 204.391195 
L 256.076918 212.518242 
L 256.610004 201.650659 
L 257.143091 203.213233 
L 257.676177 207.990165 
L 258.209263 197.20053 
L 258.74235 209.282093 
L 259.275436 203.689752 
L 259.808523 206.845733 
L 260.341609 201.988331 
L 260.874695 214.148388 
L 261.407782 193.097091 
L 261.940868 190.269549 
L 262.473954 210.029907 
L 263.007041 211.576925 
L 263.540127 215.293683 
L 264.073214 188.336094 
L 264.6063 188.975637 
L 265.139386 209.469071 
L 265.672473 211.575012 
L 266.205559 216.743711 
L 266.738646 215.334798 
L 267.271732 211.612306 
L 267.804818 212.198153 
L 268.337905 208.248372 
L 268.870991 211.557599 
L 269.404078 198.639013 
L 269.937164 193.689525 
L 270.47025 213.145248 
L 271.003337 216.343454 
L 271.536423 205.343535 
L 272.06951 210.041504 
L 272.602596 203.78857 
L 273.135682 215.393697 
L 273.668769 218.546135 
L 274.201855 218.707308 
L 274.734941 203.870558 
L 275.268028 202.749951 
L 275.801114 219.443224 
L 276.334201 186.906151 
L 276.867287 221.50283 
L 277.400373 219.590319 
L 277.93346 218.78449 
L 278.466546 194.178496 
L 278.999633 219.400608 
L 279.532719 216.145397 
L 280.065805 218.627926 
L 280.598892 208.243565 
L 281.131978 207.691695 
L 281.665065 218.927893 
L 282.198151 208.159924 
L 282.731237 211.676872 
L 283.264324 199.778264 
L 283.79741 216.056234 
L 284.330497 215.818268 
L 284.863583 220.409706 
L 285.396669 218.073256 
L 285.929756 174.784786 
L 286.462842 201.032466 
L 286.995929 212.830203 
L 287.529015 179.698746 
L 288.062101 194.330691 
L 288.595188 212.806642 
L 289.128274 173.604098 
L 289.66136 215.161469 
L 290.194447 217.670656 
L 290.727533 218.587918 
L 291.26062 210.433398 
L 291.793706 213.960709 
L 292.326792 206.076507 
L 292.859879 203.228478 
L 293.392965 219.291276 
L 293.926052 215.837316 
L 294.459138 214.135505 
L 294.992224 208.556203 
L 296.058397 218.371476 
L 296.591484 214.228775 
L 297.12457 208.307982 
L 297.657656 214.471163 
L 298.190743 192.901819 
L 298.723829 197.816855 
L 299.256916 195.67412 
L 299.790002 210.09252 
L 300.323088 215.914696 
L 300.856175 213.191338 
L 301.389261 197.190731 
L 301.922347 210.261065 
L 302.455434 219.604824 
L 303.521607 209.270789 
L 304.054693 212.928058 
L 304.587779 214.864739 
L 305.120866 217.527935 
L 305.653952 209.267325 
L 306.187039 218.993883 
L 306.720125 193.403231 
L 307.253211 184.863591 
L 307.786298 182.550138 
L 308.852471 209.112954 
L 309.385557 194.531045 
L 309.918643 214.542486 
L 310.45173 204.613399 
L 310.984816 219.121875 
L 311.517903 219.072029 
L 312.050989 209.698336 
L 312.584075 219.145446 
L 313.117162 207.774176 
L 313.650248 201.944489 
L 314.183335 213.323624 
L 314.716421 184.468858 
L 315.249507 218.356349 
L 315.782594 204.357353 
L 316.31568 216.380652 
L 316.848766 216.085555 
L 317.381853 216.039271 
L 317.914939 202.093182 
L 318.448026 209.837053 
L 318.981112 214.948379 
L 319.514198 210.131818 
L 320.047285 204.208444 
L 320.580371 216.890278 
L 321.113458 205.952468 
L 321.646544 216.605165 
L 322.17963 213.149086 
L 322.712717 219.539384 
L 323.245803 215.334891 
L 323.77889 195.415254 
L 324.311976 213.91136 
L 324.845062 215.721827 
L 325.378149 185.277531 
L 325.911235 216.816449 
L 326.444322 217.122692 
L 326.977408 218.254372 
L 327.510494 209.62535 
L 328.043581 199.063017 
L 328.576667 218.221074 
L 329.109753 195.236918 
L 329.64284 215.911981 
L 330.175926 209.697082 
L 330.709013 212.835997 
L 331.242099 219.394983 
L 331.775185 210.715537 
L 332.308272 213.104034 
L 332.841358 179.261751 
L 333.907531 212.687532 
L 334.440617 181.04468 
L 334.973704 219.259965 
L 335.50679 216.086529 
L 336.039877 203.748201 
L 336.572963 207.604589 
L 337.106049 220.259477 
L 337.639136 208.305568 
L 338.172222 206.770769 
L 338.705309 210.647626 
L 339.238395 194.69833 
L 339.771481 214.826528 
L 340.304568 194.43346 
L 341.370741 219.421865 
L 341.903827 184.089325 
L 342.436913 207.823069 
L 342.97 217.590826 
L 343.503086 208.049663 
L 344.036172 216.214289 
L 344.569259 218.99268 
L 345.102345 198.343878 
L 345.635432 217.192229 
L 346.168518 220.114862 
L 346.701604 220.689088 
L 347.234691 220.806486 
L 347.767777 204.031464 
L 348.300864 221.9741 
L 348.83395 187.521584 
L 349.367036 222.080507 
L 349.900123 217.610509 
L 350.433209 217.263569 
L 350.966296 222.333649 
L 351.499382 210.324933 
L 352.032468 219.713115 
L 352.565555 221.179794 
L 353.098641 219.622702 
L 353.631728 221.11088 
L 354.164814 215.602003 
L 354.6979 205.723929 
L 355.230987 214.276042 
L 355.764073 220.226268 
L 356.297159 219.55388 
L 356.830246 217.634407 
L 357.363332 217.138372 
L 357.896419 216.343624 
L 358.429505 204.780104 
L 358.962591 217.847826 
L 359.495678 215.263525 
L 360.028764 217.601348 
L 360.561851 216.438553 
L 361.094937 220.131282 
L 361.628023 217.657517 
L 362.16111 218.195865 
L 362.694196 210.189979 
L 363.227283 191.945026 
L 363.760369 214.399179 
L 364.826542 190.790367 
L 365.359628 216.152572 
L 365.892715 201.485454 
L 366.425801 218.290645 
L 366.958887 189.461285 
L 367.491974 218.129232 
L 368.02506 217.982051 
L 368.558147 209.779211 
L 369.091233 219.401907 
L 369.624319 208.606748 
L 370.157406 212.672202 
L 370.690492 198.865833 
L 371.223578 212.157099 
L 371.756665 205.814172 
L 372.289751 211.412877 
L 372.822838 212.622099 
L 373.355924 212.069877 
L 373.88901 211.976411 
L 374.422097 214.047931 
L 374.955183 210.370745 
L 375.48827 211.398828 
L 376.021356 210.041366 
L 376.554442 214.684791 
L 377.087529 215.702317 
L 377.620615 216.976097 
L 378.153702 217.172681 
L 378.686788 210.954229 
L 379.219874 195.87127 
L 379.752961 208.342582 
L 380.286047 218.196041 
L 380.819134 195.007965 
L 381.35222 210.462103 
L 381.885306 202.396298 
L 382.418393 211.74177 
L 382.951479 212.258717 
L 383.484565 215.536135 
L 384.017652 195.600886 
L 384.550738 218.393694 
L 385.083825 210.310547 
L 385.616911 215.685623 
L 386.149997 211.146914 
L 386.683084 217.004775 
L 387.21617 218.924239 
L 387.749257 186.888943 
L 388.282343 216.230463 
L 388.815429 213.092667 
L 389.348516 205.626708 
L 389.881602 218.204931 
L 390.414689 216.882515 
L 390.947775 219.337743 
L 391.480861 208.859261 
L 392.013948 219.21496 
L 392.547034 219.200914 
L 393.613207 178.852281 
L 394.146293 184.810888 
L 394.67938 219.159628 
L 395.212466 217.694576 
L 395.745553 218.749308 
L 396.278639 217.518331 
L 396.811725 207.882247 
L 397.344812 219.046565 
L 397.877898 208.101855 
L 398.410984 205.215832 
L 398.944071 211.999169 
L 399.477157 180.90716 
L 400.010244 217.209904 
L 400.54333 217.381441 
L 401.076416 203.082015 
L 401.609503 204.676391 
L 402.142589 215.428932 
L 402.675676 217.530806 
L 403.208762 198.508612 
L 403.741848 217.50288 
L 404.274935 217.283059 
L 404.808021 215.534195 
L 405.341108 218.485329 
L 405.874194 187.860905 
L 406.40728 204.242884 
L 406.940367 202.02985 
L 407.473453 209.430939 
L 408.00654 219.887001 
L 408.539626 214.100214 
L 409.072712 218.691137 
L 409.605799 219.623029 
L 410.138885 218.05408 
L 410.671971 220.096609 
L 411.205058 219.203062 
L 411.738144 217.299448 
L 412.271231 194.435534 
L 412.804317 193.243066 
L 413.337403 182.277857 
L 413.87049 211.022121 
L 414.403576 217.009603 
L 414.936663 196.948517 
L 415.469749 201.38822 
L 416.002835 217.159003 
L 416.535922 217.679457 
L 417.069008 207.54916 
L 418.135181 217.315961 
L 418.668267 219.87598 
L 419.201354 202.387689 
L 419.73444 221.589314 
L 420.267527 190.406414 
L 420.800613 220.031279 
L 421.333699 210.43518 
L 421.866786 217.736286 
L 422.399872 206.490247 
L 422.932959 215.486257 
L 423.466045 221.524181 
L 423.999131 221.672749 
L 424.532218 203.964727 
L 425.065304 211.48372 
L 425.59839 210.956239 
L 426.131477 210.016215 
L 426.664563 186.096854 
L 427.19765 212.171852 
L 427.730736 200.695488 
L 428.263822 220.373834 
L 428.796909 220.171162 
L 429.863082 203.383634 
L 430.396168 218.885126 
L 430.929254 214.047195 
L 431.462341 217.63273 
L 431.995427 215.455527 
L 432.528514 185.126624 
L 433.0616 209.3982 
L 434.127773 201.869024 
L 434.660859 218.215471 
L 435.193946 214.369018 
L 435.727032 204.712648 
L 436.260118 203.084419 
L 436.793205 211.768107 
L 437.326291 205.412709 
L 437.859377 207.278631 
L 438.392464 215.439209 
L 438.92555 200.864943 
L 439.458637 219.197946 
L 439.991723 191.769219 
L 440.524809 213.490942 
L 441.057896 182.665786 
L 441.590982 202.722388 
L 442.124069 216.373388 
L 442.657155 213.207765 
L 443.190241 215.523903 
L 443.723328 193.480601 
L 444.256414 215.282494 
L 444.789501 217.788263 
L 445.322587 209.739054 
L 445.855673 204.781228 
L 446.38876 184.521607 
L 446.921846 206.800468 
L 447.454933 208.820008 
L 447.988019 212.311736 
L 448.521105 211.979412 
L 449.054192 208.667581 
L 449.587278 198.975172 
L 450.120365 212.815209 
L 450.653451 206.746923 
L 451.186537 208.676693 
L 451.719624 192.605242 
L 452.25271 194.45762 
L 452.785796 214.19664 
L 453.318883 210.113752 
L 453.851969 218.481465 
L 454.385056 199.839152 
L 454.918142 213.716722 
L 455.451228 203.36497 
L 455.984315 205.992748 
L 456.517401 207.530171 
L 457.050488 194.861711 
L 457.583574 202.059025 
L 458.11666 189.781678 
L 458.649747 218.153193 
L 459.182833 218.998982 
L 459.71592 213.072807 
L 460.249006 217.045833 
L 460.782092 213.905384 
L 461.315179 184.099792 
L 461.848265 181.983295 
L 462.381352 191.615576 
L 462.914438 216.604705 
L 463.447524 214.084554 
L 463.980611 179.68843 
L 464.513697 218.611589 
L 465.046783 186.405512 
L 466.112956 213.365732 
L 466.646043 214.309093 
L 467.179129 212.323294 
L 467.712215 186.761875 
L 468.245302 200.952851 
L 468.778388 182.758337 
L 469.311475 186.762785 
L 469.844561 214.782126 
L 470.377647 198.426165 
L 470.910734 196.696389 
L 471.44382 214.633667 
L 471.976907 209.010239 
L 472.509993 216.184046 
L 473.043079 217.400079 
L 473.576166 201.762041 
L 474.109252 200.323074 
L 474.642339 219.189146 
L 475.175425 207.824664 
L 475.708511 200.242089 
L 476.241598 207.373674 
L 476.774684 219.84602 
L 477.307771 207.588396 
L 477.840857 201.633951 
L 478.373943 218.130573 
L 478.90703 198.666563 
L 479.440116 213.002653 
L 479.973202 195.941921 
L 480.506289 195.920073 
L 481.039375 213.201096 
L 481.572462 219.211707 
L 482.105548 200.459351 
L 482.638634 207.652846 
L 483.171721 198.487443 
L 483.704807 199.230405 
L 484.237894 219.209247 
L 484.77098 213.164384 
L 485.304066 217.48163 
L 485.837153 217.38188 
L 486.370239 195.17839 
L 486.903326 219.574841 
L 487.436412 212.48294 
L 487.969498 192.874141 
L 488.502585 202.572295 
L 489.035671 220.700032 
L 489.568758 220.881457 
L 490.101844 189.531108 
L 490.63493 183.713027 
L 491.168017 216.31116 
L 491.701103 201.125242 
L 492.234189 207.459836 
L 492.767276 217.247279 
L 493.300362 216.380841 
L 493.833449 220.254618 
L 494.366535 177.163733 
L 494.899621 215.886942 
L 495.432708 202.900073 
L 495.965794 186.784069 
L 496.498881 214.361736 
L 497.031967 219.830627 
L 497.565053 213.147468 
L 498.09814 216.207617 
L 498.631226 216.830111 
L 499.164313 221.627355 
L 499.697399 222.62951 
L 500.230485 222.377523 
L 500.763572 220.024156 
L 501.296658 175.73946 
L 501.829745 205.768957 
L 502.362831 189.900075 
L 502.895917 210.082121 
L 503.429004 221.663288 
L 503.96209 155.035519 
L 504.495177 203.539787 
L 505.028263 220.309983 
L 505.561349 215.605911 
L 506.094436 171.340338 
L 506.627522 213.273733 
L 507.160608 221.631247 
L 507.693695 178.110025 
L 508.226781 212.164071 
L 508.759868 164.075662 
L 509.292954 208.159154 
L 509.82604 222.201245 
L 510.359127 178.009001 
L 510.892213 219.329752 
L 511.4253 210.6817 
L 511.958386 189.21611 
L 512.491472 184.024711 
L 513.024559 207.507654 
L 513.557645 178.536817 
L 514.090732 208.638313 
L 514.623818 153.553037 
L 515.156904 215.705906 
L 515.689991 172.189813 
L 516.223077 165.134943 
L 516.756164 221.897963 
L 517.28925 217.550615 
L 517.822336 221.379572 
L 518.355423 220.690372 
L 518.888509 221.917272 
L 519.421596 216.175909 
L 519.954682 203.818986 
L 520.487768 218.727338 
L 521.020855 221.445967 
L 521.553941 217.490866 
L 522.087027 221.549219 
L 523.1532 221.993362 
L 524.219373 218.301913 
L 525.285546 217.554123 
L 525.818632 182.987433 
L 526.351719 165.546369 
L 526.884805 172.034276 
L 527.417891 190.598945 
L 527.950978 219.34704 
L 528.484064 161.222124 
L 529.017151 205.287615 
L 529.550237 196.377331 
L 530.083323 218.469822 
L 530.61641 197.870473 
L 531.149496 207.719632 
L 531.682583 204.734513 
L 532.215669 177.833884 
L 532.748755 221.376625 
L 533.281842 221.481255 
L 533.814928 219.657454 
L 534.348014 220.560888 
L 534.881101 215.088989 
L 535.414187 213.166436 
L 535.947274 219.993153 
L 536.48036 220.257041 
L 537.013446 221.245517 
L 537.546533 213.513021 
L 538.079619 221.965448 
L 538.612706 217.401808 
L 539.678878 222.428004 
L 540.211965 221.575244 
L 540.745051 222.070278 
L 541.278138 214.162137 
L 541.811224 220.071264 
L 542.34431 221.897134 
L 542.877397 175.045996 
L 543.410483 222.568832 
L 543.94357 220.117295 
L 544.476656 203.876141 
L 545.009742 221.53973 
L 545.542829 214.539851 
L 546.075915 203.173441 
L 546.609002 221.918585 
L 547.142088 220.642913 
L 547.675174 221.235976 
L 548.208261 221.457084 
L 548.741347 215.958861 
L 549.274433 218.279887 
L 549.80752 222.350829 
L 550.340606 188.552468 
L 550.873693 219.253734 
L 551.406779 198.213078 
L 551.939865 221.484807 
L 552.472952 215.565573 
L 553.006038 218.437124 
L 553.539125 185.614798 
L 554.072211 219.030306 
L 554.605297 221.430088 
L 555.138384 175.021785 
L 555.67147 220.835264 
L 556.204557 221.228679 
L 556.737643 221.265035 
L 557.270729 218.527347 
L 557.803816 216.789258 
L 558.336902 221.662022 
L 558.869989 209.359872 
L 559.403075 219.800373 
L 559.936161 217.344353 
L 560.469248 213.302909 
L 561.002334 221.063217 
L 561.53542 221.962409 
L 562.068507 203.855196 
L 562.601593 219.507462 
L 563.13468 204.902705 
L 563.667766 220.446205 
L 564.200852 220.981723 
L 564.733939 215.325532 
L 565.267025 171.368759 
L 565.800112 211.836479 
L 566.333198 210.068604 
L 566.866284 168.400673 
L 567.399371 215.69052 
L 567.932457 214.408478 
L 568.465544 169.550443 
L 568.99863 185.397383 
L 569.531716 185.884322 
L 570.064803 219.869117 
L 570.597889 221.979379 
L 571.130976 222.130747 
L 571.664062 221.273234 
L 572.197148 221.632959 
L 572.730235 222.149021 
L 573.263321 222.059478 
L 573.796408 217.825404 
L 574.329494 220.117483 
L 574.86258 180.34148 
L 575.395667 221.368983 
L 575.928753 220.941638 
L 576.994926 220.636438 
L 577.528012 201.366375 
L 578.061099 221.264314 
L 578.594185 211.19545 
L 579.127271 221.522838 
L 579.660358 219.888141 
L 580.193444 213.56483 
L 580.726531 218.098342 
L 581.259617 221.260648 
L 581.792703 217.201412 
L 582.32579 221.089137 
L 582.858876 218.861337 
L 583.391963 219.926137 
L 583.925049 198.143395 
L 584.458135 222.397659 
L 584.991222 208.668068 
L 585.524308 220.457996 
L 586.057395 221.500663 
L 586.590481 220.921627 
L 587.123567 173.453888 
L 587.656654 222.163653 
L 588.18974 222.581938 
L 588.722826 214.775071 
L 589.255913 222.617197 
L 589.788999 204.167264 
L 590.322086 222.554274 
L 590.855172 222.650326 
L 591.388258 222.24598 
L 591.921345 222.615895 
L 592.454431 222.638969 
L 592.987518 222.101808 
L 593.520604 222.600173 
L 594.05369 217.0787 
L 594.586777 222.557711 
L 595.65295 222.301953 
L 596.186036 194.842654 
L 596.719122 212.226102 
L 597.252209 211.776613 
L 597.785295 222.476717 
L 598.318382 177.673783 
L 598.851468 154.607476 
L 599.384554 221.901645 
L 599.917641 222.448799 
L 600.450727 218.142061 
L 600.983814 157.147596 
L 601.5169 217.528548 
L 602.049986 215.927147 
L 602.583073 220.561941 
L 603.116159 222.124587 
L 603.649245 148.03377 
L 604.182332 220.069779 
L 605.248505 222.465795 
L 605.781591 221.457184 
L 606.314677 222.436182 
L 606.847764 222.012548 
L 607.38085 222.569625 
L 607.913937 222.529449 
L 608.447023 222.333761 
L 608.980109 222.405082 
L 609.513196 222.32809 
L 610.046282 217.024163 
L 610.579369 200.440309 
L 611.112455 221.379865 
L 611.645541 222.283706 
L 612.711714 222.558666 
L 613.777887 222.519766 
L 614.84406 217.873363 
L 615.377146 219.571175 
L 615.910232 222.266837 
L 616.443319 221.359615 
L 616.976405 211.47517 
L 617.509492 206.486657 
L 618.042578 222.434701 
L 618.575664 222.496143 
L 619.108751 209.859737 
L 619.641837 222.560015 
L 620.174924 212.254498 
L 620.70801 222.641822 
L 621.241096 222.613304 
L 621.774183 218.296204 
L 622.307269 222.231363 
L 622.840356 208.511618 
L 623.373442 222.655076 
L 623.906528 218.550205 
L 624.439615 222.646951 
L 624.972701 207.029141 
L 625.505788 222.58436 
L 626.57196 222.625782 
L 627.105047 203.763608 
L 627.638133 170.545447 
L 628.17122 222.655715 
L 628.704306 217.719761 
L 629.237392 222.615712 
L 629.770479 167.588391 
L 630.303565 156.472632 
L 630.836651 162.265608 
L 631.369738 211.464877 
L 631.902824 221.934998 
L 632.435911 222.618863 
L 634.03517 222.651643 
L 634.568256 220.030179 
L 635.101343 222.651077 
L 635.634429 222.543526 
L 636.167515 213.462557 
L 636.700602 222.460861 
L 637.233688 221.789407 
L 637.766775 211.563486 
L 638.299861 214.871175 
L 638.832947 222.655951 
L 640.432207 222.566135 
L 640.965293 222.243194 
L 641.498379 222.653128 
L 642.031466 222.656224 
L 642.564552 215.255045 
L 643.097638 222.410616 
L 643.630725 200.656883 
L 644.163811 222.65625 
L 644.696898 222.656232 
L 645.229984 222.260265 
L 645.76307 207.011862 
L 646.296157 222.65625 
L 652.693194 222.65625 
L 653.22628 137.115162 
L 653.759366 222.65625 
L 657.490971 222.65625 
L 657.490971 222.65625 
" clip-path="url(#pb48efc326a)" style="fill: none; stroke-dasharray: 3,4.95; stroke-dashoffset: 0; stroke: #d62728; stroke-width: 3"/>
   </g>
   <g id="line2d_38">
    <path d="M 124.937665 222.65625 
L 657.490971 222.65625 
L 657.490971 222.65625 
" clip-path="url(#pb48efc326a)" style="fill: none; stroke-dasharray: 9,3,3,3; stroke-dashoffset: 0; stroke: #9467bd; stroke-width: 3"/>
   </g>
   <g id="line2d_39">
    <path d="M 124.937665 427.234988 
L 163.319886 427.11251 
L 169.716922 426.91256 
L 173.448527 426.589678 
L 175.580873 426.194586 
L 177.180132 425.660718 
L 178.246305 425.095859 
L 179.312477 424.25854 
L 180.37865 422.975392 
L 180.911736 422.067373 
L 181.444823 420.886429 
L 181.977909 419.306985 
L 182.510996 417.113596 
L 183.044082 413.903548 
L 183.577168 408.837359 
L 184.110255 399.85899 
L 184.643341 380.496373 
L 185.709514 235.683633 
L 186.2426 371.851714 
L 186.775687 398.80106 
L 187.308773 410.538637 
L 187.84186 417.642832 
L 188.374946 422.062421 
L 189.441119 427.555277 
L 189.974205 429.458022 
L 191.040378 432.134026 
L 192.106551 434.037423 
L 193.172723 435.475807 
L 194.238896 436.543913 
L 195.838155 437.748564 
L 197.970501 438.852747 
L 199.56976 439.487178 
L 202.235192 440.299124 
L 205.433711 441.013243 
L 209.165315 441.634922 
L 213.430006 442.144137 
L 217.694698 442.456943 
L 224.624821 442.757726 
L 232.08803 442.849736 
L 239.55124 442.734849 
L 245.948276 442.443541 
L 251.812227 441.942497 
L 255.543831 441.445209 
L 259.808523 440.670304 
L 263.007041 439.7635 
L 265.139386 438.877983 
L 266.738646 437.997047 
L 268.337905 436.845141 
L 269.937164 435.33936 
L 271.003337 433.967329 
L 272.06951 432.115275 
L 272.602596 430.918647 
L 273.135682 429.445967 
L 273.668769 427.638257 
L 274.201855 425.345252 
L 274.734941 422.316599 
L 275.268028 418.297874 
L 275.801114 412.125432 
L 276.334201 401.449479 
L 276.867287 379.398726 
L 277.400373 295.45943 
L 277.93346 273.132234 
L 278.466546 377.271467 
L 278.999633 401.670726 
L 279.532719 413.264594 
L 280.065805 419.658962 
L 280.598892 423.971046 
L 281.131978 426.990795 
L 282.198151 430.851108 
L 282.731237 432.27478 
L 284.330497 435.068595 
L 285.929756 437.002506 
L 287.529015 438.367716 
L 289.128274 439.396836 
L 290.727533 440.145314 
L 292.326792 440.680046 
L 294.992224 441.321046 
L 299.256916 442.041531 
L 304.054693 442.539412 
L 308.319384 442.820522 
L 313.650248 442.952205 
L 318.981112 442.872049 
L 324.311976 442.601316 
L 328.576667 442.183557 
L 332.841358 441.518864 
L 335.50679 440.865466 
L 339.238395 439.66855 
L 341.370741 438.622476 
L 342.97 437.391129 
L 344.569259 435.691367 
L 345.635432 433.942449 
L 346.701604 431.478025 
L 347.767777 427.745232 
L 348.300864 424.921913 
L 348.83395 420.967911 
L 349.367036 414.692175 
L 349.900123 404.868812 
L 350.433209 384.610534 
L 350.966296 319.359641 
L 351.499382 227.41251 
L 352.032468 372.175173 
L 352.565555 399.944739 
L 353.098641 411.824017 
L 353.631728 419.017277 
L 354.164814 423.467716 
L 354.6979 426.748075 
L 355.764073 430.880054 
L 356.830246 433.572213 
L 357.896419 435.43622 
L 359.495678 437.262527 
L 360.561851 438.217922 
L 361.628023 439.012134 
L 363.227283 439.943919 
L 365.359628 440.885332 
L 366.958887 441.365576 
L 369.624319 441.946111 
L 376.021356 442.691597 
L 380.286047 443.015181 
L 386.149997 443.207291 
L 391.480861 443.170419 
L 396.278639 442.937157 
L 400.54333 442.53422 
L 404.808021 441.891151 
L 409.072712 440.893742 
L 411.205058 439.98624 
L 413.337403 438.789681 
L 414.936663 437.573336 
L 416.002835 436.697159 
L 417.069008 435.28763 
L 418.135181 433.346525 
L 419.201354 430.661309 
L 419.73444 428.960318 
L 420.267527 426.386148 
L 420.800613 422.952062 
L 421.333699 418.124255 
L 421.866786 410.397662 
L 422.399872 396.836722 
L 422.932959 364.665609 
L 423.466045 96.219444 
L 423.999131 338.473995 
L 424.532218 389.687531 
L 425.065304 406.780699 
L 425.59839 415.924188 
L 426.131477 421.552526 
L 426.664563 425.23443 
L 427.19765 428.069323 
L 428.263822 431.983276 
L 429.329995 434.384505 
L 430.396168 436.121526 
L 431.462341 437.411328 
L 432.528514 438.455541 
L 433.594686 439.142315 
L 436.793205 440.615362 
L 438.92555 441.375781 
L 442.124069 442.168408 
L 445.322587 442.711884 
L 450.653451 443.192855 
L 456.517401 443.452748 
L 462.914438 443.510342 
L 468.778388 443.305724 
L 474.642339 442.843541 
L 479.973202 442.203721 
L 482.638634 441.639211 
L 484.77098 441.123697 
L 486.370239 440.568244 
L 487.969498 439.697107 
L 489.568758 438.509718 
L 490.63493 437.609657 
L 492.234189 435.848369 
L 493.300362 433.956836 
L 494.366535 431.154238 
L 494.899621 429.295562 
L 495.432708 426.796761 
L 495.965794 423.223511 
L 496.498881 418.562621 
L 497.031967 410.993915 
L 497.565053 396.963485 
L 498.09814 364.038648 
L 498.631226 61.644446 
L 499.164313 341.535203 
L 499.697399 392.393304 
L 500.230485 409.690266 
L 500.763572 418.049886 
L 501.296658 423.771268 
L 501.829745 427.468952 
L 502.362831 430.211421 
L 502.895917 432.323601 
L 503.96209 435.296361 
L 505.028263 437.322479 
L 506.094436 438.772143 
L 507.160608 439.840293 
L 508.226781 440.70417 
L 510.892213 441.985127 
L 514.090732 442.917914 
L 515.689991 443.235443 
L 518.888509 443.633379 
L 521.553941 443.73637 
L 524.752459 443.621768 
L 527.417891 443.334417 
L 530.083323 442.801202 
L 531.682583 442.28742 
L 533.814928 441.337147 
L 535.414187 440.409418 
L 537.013446 439.075144 
L 538.079619 437.786026 
L 539.145792 436.091937 
L 540.211965 433.683004 
L 540.745051 432.007604 
L 541.278138 429.855993 
L 541.811224 427.168648 
L 542.34431 422.870367 
L 542.877397 417.06905 
L 543.410483 406.788386 
L 543.94357 384.517144 
L 544.476656 307.336593 
L 545.009742 260.850788 
L 545.542829 377.730328 
L 546.075915 403.756264 
L 546.609002 415.772775 
L 547.142088 422.407113 
L 547.675174 426.677944 
L 548.208261 429.855874 
L 548.741347 432.205656 
L 549.80752 435.430289 
L 550.873693 437.365168 
L 551.939865 438.770345 
L 554.605297 441.043146 
L 556.204557 441.844289 
L 557.803816 442.537996 
L 559.403075 443.026593 
L 562.068507 443.550319 
L 564.200852 443.78565 
L 566.866284 443.895729 
L 570.064803 443.805266 
L 572.730235 443.52799 
L 575.928753 442.930046 
L 578.061099 442.260235 
L 579.660358 441.5267 
L 581.259617 440.402713 
L 582.32579 439.356828 
L 583.391963 437.958548 
L 584.991222 435.432667 
L 586.057395 432.282462 
L 586.590481 429.901802 
L 587.123567 426.803561 
L 587.656654 422.683349 
L 588.18974 415.930616 
L 588.722826 403.954562 
L 589.255913 379.212724 
L 589.788999 266.072054 
L 590.322086 304.784539 
L 590.855172 385.447056 
L 591.388258 407.793267 
L 591.921345 418.19264 
L 592.454431 424.445408 
L 592.987518 428.790906 
L 594.05369 433.744196 
L 595.119863 436.849643 
L 596.186036 438.960546 
L 597.252209 440.337168 
L 598.851468 441.805119 
L 599.917641 442.461609 
L 602.049986 443.341949 
L 603.649245 443.719289 
L 605.248505 443.922112 
L 607.38085 443.964204 
L 609.513196 443.731685 
L 611.112455 443.326692 
L 612.711714 442.721626 
L 614.310973 441.841032 
L 615.377146 441.036825 
L 616.443319 439.905012 
L 617.509492 438.284734 
L 618.042578 437.32714 
L 619.108751 434.261678 
L 620.174924 429.521593 
L 620.70801 425.536617 
L 621.241096 420.201977 
L 621.774183 410.456358 
L 622.307269 392.735177 
L 622.840356 338.484902 
L 623.373442 125.575578 
L 623.906528 370.488657 
L 624.439615 404.107127 
L 624.972701 418.064282 
L 625.505788 425.546922 
L 626.038874 430.809425 
L 627.105047 436.277892 
L 627.638133 438.257364 
L 628.704306 440.695781 
L 629.770479 442.136925 
L 630.303565 442.745445 
L 631.369738 443.541755 
L 632.435911 443.980519 
L 633.502083 444.115332 
L 634.568256 443.963801 
L 635.634429 443.570084 
L 636.700602 442.775723 
L 637.233688 442.290844 
L 637.766775 441.582154 
L 638.832947 439.506634 
L 639.89912 436.023329 
L 640.432207 433.683224 
L 640.965293 429.959929 
L 641.498379 424.543257 
L 642.031466 416.910577 
L 642.564552 401.845368 
L 643.097638 365.225184 
L 643.602545 -1 
M 643.65999 -1 
L 644.163811 350.882168 
L 644.696898 399.825642 
L 645.229984 417.886346 
L 645.76307 427.471836 
L 646.296157 432.89021 
L 646.829243 436.837022 
L 647.36233 439.601668 
L 647.895416 441.543428 
L 648.428502 442.87586 
L 648.961589 443.725212 
L 649.494675 444.162965 
L 650.027762 444.264452 
L 650.560848 444.087824 
L 651.093934 443.537642 
L 651.627021 442.566867 
L 652.160107 441.094205 
L 652.693194 438.990583 
L 653.22628 436.389476 
L 653.759366 432.597553 
L 654.292453 426.24401 
L 654.825539 415.723868 
L 655.358626 395.101846 
L 655.891712 331.810651 
L 656.424798 205.833174 
L 656.957885 378.049187 
L 657.490971 408.677929 
L 657.490971 408.677929 
" clip-path="url(#pb48efc326a)" style="fill: none; stroke: #808080; stroke-width: 3; stroke-linecap: square"/>
   </g>
   <g id="patch_3">
    <path d="M 98.31 417.2325 
L 98.31 28.08 
" style="fill: none; stroke: #000000; stroke-width: 2; stroke-linejoin: miter; stroke-linecap: square"/>
   </g>
   <g id="patch_4">
    <path d="M 684.118636 417.2325 
L 684.118636 28.08 
" style="fill: none; stroke: #000000; stroke-width: 2; stroke-linejoin: miter; stroke-linecap: square"/>
   </g>
   <g id="patch_5">
    <path d="M 98.31 417.2325 
L 684.118636 417.2325 
" style="fill: none; stroke: #000000; stroke-width: 2; stroke-linejoin: miter; stroke-linecap: square"/>
   </g>
   <g id="patch_6">
    <path d="M 98.31 28.08 
L 684.118636 28.08 
" style="fill: none; stroke: #000000; stroke-width: 2; stroke-linejoin: miter; stroke-linecap: square"/>
   </g>
   <g id="legend_1">
    <g id="patch_7">
     <path d="M 109.51 409.2325 
L 254.8375 409.2325 
Q 258.0375 409.2325 258.0375 406.0325 
L 258.0375 266.495 
Q 258.0375 263.295 254.8375 263.295 
L 109.51 263.295 
Q 106.31 263.295 106.31 266.495 
L 106.31 406.0325 
Q 106.31 409.2325 109.51 409.2325 
z
" style="fill: #ffffff; opacity: 0.8; stroke: #cccccc; stroke-linejoin: miter"/>
    </g>
    <g id="line2d_40">
     <path d="M 112.71 276.2525 
L 128.71 276.2525 
L 144.71 276.2525 
" style="fill: none; stroke: #1f77b4; stroke-width: 3; stroke-linecap: square"/>
    </g>
    <g id="text_14">
     <!-- Kinetic -->
     <g transform="translate(157.51 281.8525) scale(0.16 -0.16)">
      <defs>
       <path id="DejaVuSerif-4b" d="M 353 0 
L 353 331 
L 947 331 
L 947 4331 
L 353 4331 
L 353 4666 
L 2175 4666 
L 2175 4331 
L 1581 4331 
L 1581 2566 
L 3591 4331 
L 3084 4331 
L 3084 4666 
L 4634 4666 
L 4634 4331 
L 4109 4331 
L 2106 2572 
L 4347 331 
L 4878 331 
L 4878 0 
L 3794 0 
L 1581 2216 
L 1581 331 
L 2175 331 
L 2175 0 
L 353 0 
z
" transform="scale(0.015625)"/>
       <path id="DejaVuSerif-69" d="M 622 4353 
Q 622 4497 726 4603 
Q 831 4709 978 4709 
Q 1122 4709 1226 4603 
Q 1331 4497 1331 4353 
Q 1331 4206 1228 4103 
Q 1125 4000 978 4000 
Q 831 4000 726 4103 
Q 622 4206 622 4353 
z
M 1356 331 
L 1900 331 
L 1900 0 
L 231 0 
L 231 331 
L 781 331 
L 781 2988 
L 231 2988 
L 231 3322 
L 1356 3322 
L 1356 331 
z
" transform="scale(0.015625)"/>
       <path id="DejaVuSerif-6e" d="M 263 0 
L 263 331 
L 781 331 
L 781 2988 
L 231 2988 
L 231 3322 
L 1356 3322 
L 1356 2731 
Q 1516 3069 1770 3241 
Q 2025 3413 2363 3413 
Q 2913 3413 3172 3097 
Q 3431 2781 3431 2113 
L 3431 331 
L 3944 331 
L 3944 0 
L 2356 0 
L 2356 331 
L 2853 331 
L 2853 1931 
Q 2853 2541 2703 2767 
Q 2553 2994 2175 2994 
Q 1775 2994 1565 2701 
Q 1356 2409 1356 1850 
L 1356 331 
L 1856 331 
L 1856 0 
L 263 0 
z
" transform="scale(0.015625)"/>
       <path id="DejaVuSerif-65" d="M 3469 1600 
L 991 1600 
L 991 1575 
Q 991 903 1244 561 
Q 1497 219 1991 219 
Q 2369 219 2611 417 
Q 2853 616 2950 1006 
L 3413 1006 
Q 3275 459 2904 184 
Q 2534 -91 1931 -91 
Q 1203 -91 761 389 
Q 319 869 319 1663 
Q 319 2450 753 2931 
Q 1188 3413 1894 3413 
Q 2647 3413 3050 2948 
Q 3453 2484 3469 1600 
z
M 2791 1931 
Q 2772 2513 2545 2808 
Q 2319 3103 1894 3103 
Q 1497 3103 1269 2806 
Q 1041 2509 991 1931 
L 2791 1931 
z
" transform="scale(0.015625)"/>
       <path id="DejaVuSerif-74" d="M 691 2988 
L 184 2988 
L 184 3322 
L 691 3322 
L 691 4353 
L 1269 4353 
L 1269 3322 
L 2350 3322 
L 2350 2988 
L 1269 2988 
L 1269 878 
Q 1269 456 1350 337 
Q 1431 219 1650 219 
Q 1875 219 1978 351 
Q 2081 484 2088 781 
L 2522 781 
Q 2497 328 2275 118 
Q 2053 -91 1600 -91 
Q 1103 -91 897 129 
Q 691 350 691 878 
L 691 2988 
z
" transform="scale(0.015625)"/>
       <path id="DejaVuSerif-63" d="M 3291 997 
Q 3169 466 2822 187 
Q 2475 -91 1925 -91 
Q 1200 -91 759 389 
Q 319 869 319 1663 
Q 319 2459 759 2936 
Q 1200 3413 1925 3413 
Q 2241 3413 2553 3339 
Q 2866 3266 3181 3116 
L 3181 2266 
L 2847 2266 
Q 2781 2703 2561 2903 
Q 2341 3103 1931 3103 
Q 1466 3103 1228 2742 
Q 991 2381 991 1663 
Q 991 944 1227 581 
Q 1463 219 1931 219 
Q 2303 219 2525 412 
Q 2747 606 2828 997 
L 3291 997 
z
" transform="scale(0.015625)"/>
      </defs>
      <use xlink:href="#DejaVuSerif-4b"/>
      <use xlink:href="#DejaVuSerif-69" x="74.707031"/>
      <use xlink:href="#DejaVuSerif-6e" x="106.689453"/>
      <use xlink:href="#DejaVuSerif-65" x="171.09375"/>
      <use xlink:href="#DejaVuSerif-74" x="230.273438"/>
      <use xlink:href="#DejaVuSerif-69" x="270.458984"/>
      <use xlink:href="#DejaVuSerif-63" x="302.441406"/>
     </g>
    </g>
    <g id="line2d_41">
     <path d="M 112.71 299.7375 
L 128.71 299.7375 
L 144.71 299.7375 
" style="fill: none; stroke-dasharray: 11.1,4.8; stroke-dashoffset: 0; stroke: #ff7f0e; stroke-width: 3"/>
    </g>
    <g id="text_15">
     <!-- $e^-$-nucleus -->
     <g transform="translate(157.51 305.3375) scale(0.16 -0.16)">
      <defs>
       <path id="Cmmi10-65" d="M 1288 -72 
Q 981 -72 751 87 
Q 522 247 401 517 
Q 281 788 281 1088 
Q 281 1544 511 1945 
Q 741 2347 1134 2587 
Q 1528 2828 1978 2828 
Q 2253 2828 2458 2686 
Q 2663 2544 2663 2278 
Q 2663 1909 2369 1729 
Q 2075 1550 1706 1508 
Q 1338 1466 891 1466 
L 872 1466 
Q 769 1084 769 813 
Q 769 528 900 312 
Q 1031 97 1300 97 
Q 1681 97 2032 272 
Q 2384 447 2606 756 
Q 2625 775 2656 775 
Q 2688 775 2720 739 
Q 2753 703 2753 672 
Q 2753 647 2741 634 
Q 2506 306 2109 117 
Q 1713 -72 1288 -72 
z
M 909 1631 
Q 1281 1631 1597 1665 
Q 1913 1700 2169 1839 
Q 2425 1978 2425 2272 
Q 2425 2391 2359 2480 
Q 2294 2569 2189 2616 
Q 2084 2663 1972 2663 
Q 1700 2663 1483 2516 
Q 1266 2369 1125 2133 
Q 984 1897 909 1631 
z
" transform="scale(0.015625)"/>
       <path id="Cmsy10-a1" d="M 653 1472 
Q 600 1472 565 1512 
Q 531 1553 531 1600 
Q 531 1647 565 1687 
Q 600 1728 653 1728 
L 4325 1728 
Q 4375 1728 4408 1687 
Q 4441 1647 4441 1600 
Q 4441 1553 4408 1512 
Q 4375 1472 4325 1472 
L 653 1472 
z
" transform="scale(0.015625)"/>
       <path id="DejaVuSerif-2d" d="M 281 1959 
L 1881 1959 
L 1881 1472 
L 281 1472 
L 281 1959 
z
" transform="scale(0.015625)"/>
       <path id="DejaVuSerif-6c" d="M 1313 331 
L 1856 331 
L 1856 0 
L 184 0 
L 184 331 
L 738 331 
L 738 4531 
L 184 4531 
L 184 4863 
L 1313 4863 
L 1313 331 
z
" transform="scale(0.015625)"/>
       <path id="DejaVuSerif-73" d="M 359 184 
L 359 959 
L 691 959 
Q 703 588 923 403 
Q 1144 219 1575 219 
Q 1963 219 2166 364 
Q 2369 509 2369 788 
Q 2369 1006 2220 1140 
Q 2072 1275 1594 1428 
L 1178 1569 
Q 750 1706 558 1912 
Q 366 2119 366 2438 
Q 366 2894 700 3153 
Q 1034 3413 1625 3413 
Q 1888 3413 2178 3344 
Q 2469 3275 2778 3144 
L 2778 2419 
L 2447 2419 
Q 2434 2741 2221 2922 
Q 2009 3103 1644 3103 
Q 1281 3103 1095 2975 
Q 909 2847 909 2591 
Q 909 2381 1050 2254 
Q 1191 2128 1613 1997 
L 2069 1856 
Q 2541 1709 2748 1489 
Q 2956 1269 2956 922 
Q 2956 450 2595 179 
Q 2234 -91 1600 -91 
Q 1278 -91 972 -22 
Q 666 47 359 184 
z
" transform="scale(0.015625)"/>
      </defs>
      <use xlink:href="#Cmmi10-65" transform="translate(0 0.015625)"/>
      <use xlink:href="#Cmsy10-a1" transform="translate(65.078672 38.279688) scale(0.7)"/>
      <use xlink:href="#DejaVuSerif-2d" transform="translate(138.126914 0.015625)"/>
      <use xlink:href="#DejaVuSerif-6e" transform="translate(171.915977 0.015625)"/>
      <use xlink:href="#DejaVuSerif-75" transform="translate(236.320273 0.015625)"/>
      <use xlink:href="#DejaVuSerif-63" transform="translate(300.72457 0.015625)"/>
      <use xlink:href="#DejaVuSerif-6c" transform="translate(356.73043 0.015625)"/>
      <use xlink:href="#DejaVuSerif-65" transform="translate(388.712852 0.015625)"/>
      <use xlink:href="#DejaVuSerif-75" transform="translate(447.892539 0.015625)"/>
      <use xlink:href="#DejaVuSerif-73" transform="translate(512.296836 0.015625)"/>
     </g>
    </g>
    <g id="line2d_42">
     <path d="M 112.71 323.2225 
L 128.71 323.2225 
L 144.71 323.2225 
" style="fill: none; stroke-dasharray: 19.2,4.8,3,4.8; stroke-dashoffset: 0; stroke: #2ca02c; stroke-width: 3"/>
    </g>
    <g id="text_16">
     <!-- $e^-$-$e^-$ -->
     <g transform="translate(157.51 328.8225) scale(0.16 -0.16)">
      <use xlink:href="#Cmmi10-65" transform="translate(0 0.835938)"/>
      <use xlink:href="#Cmsy10-a1" transform="translate(65.078672 39.1) scale(0.7)"/>
      <use xlink:href="#DejaVuSerif-2d" transform="translate(138.126914 0.835938)"/>
      <use xlink:href="#Cmmi10-65" transform="translate(171.915977 0.835938)"/>
      <use xlink:href="#Cmsy10-a1" transform="translate(236.994648 39.1) scale(0.7)"/>
     </g>
    </g>
    <g id="line2d_43">
     <path d="M 112.71 346.7075 
L 128.71 346.7075 
L 144.71 346.7075 
" style="fill: none; stroke-dasharray: 3,4.95; stroke-dashoffset: 0; stroke: #d62728; stroke-width: 3"/>
    </g>
    <g id="text_17">
     <!-- Heisenberg -->
     <g transform="translate(157.51 352.3075) scale(0.16 -0.16)">
      <defs>
       <path id="DejaVuSerif-48" d="M 353 0 
L 353 331 
L 947 331 
L 947 4331 
L 353 4331 
L 353 4666 
L 2175 4666 
L 2175 4331 
L 1581 4331 
L 1581 2719 
L 4000 2719 
L 4000 4331 
L 3406 4331 
L 3406 4666 
L 5228 4666 
L 5228 4331 
L 4634 4331 
L 4634 331 
L 5228 331 
L 5228 0 
L 3406 0 
L 3406 331 
L 4000 331 
L 4000 2338 
L 1581 2338 
L 1581 331 
L 2175 331 
L 2175 0 
L 353 0 
z
" transform="scale(0.015625)"/>
       <path id="DejaVuSerif-62" d="M 738 331 
L 738 4531 
L 184 4531 
L 184 4863 
L 1313 4863 
L 1313 2803 
Q 1481 3116 1742 3264 
Q 2003 3413 2388 3413 
Q 3000 3413 3387 2928 
Q 3775 2444 3775 1663 
Q 3775 881 3387 395 
Q 3000 -91 2388 -91 
Q 2003 -91 1742 57 
Q 1481 206 1313 519 
L 1313 0 
L 184 0 
L 184 331 
L 738 331 
z
M 1313 1497 
Q 1313 897 1542 583 
Q 1772 269 2209 269 
Q 2650 269 2876 622 
Q 3103 975 3103 1663 
Q 3103 2353 2876 2703 
Q 2650 3053 2209 3053 
Q 1772 3053 1542 2737 
Q 1313 2422 1313 1825 
L 1313 1497 
z
" transform="scale(0.015625)"/>
       <path id="DejaVuSerif-72" d="M 3059 3328 
L 3059 2497 
L 2728 2497 
Q 2713 2744 2591 2866 
Q 2469 2988 2234 2988 
Q 1809 2988 1582 2694 
Q 1356 2400 1356 1850 
L 1356 331 
L 2022 331 
L 2022 0 
L 263 0 
L 263 331 
L 781 331 
L 781 2994 
L 231 2994 
L 231 3322 
L 1356 3322 
L 1356 2731 
Q 1525 3078 1790 3245 
Q 2056 3413 2438 3413 
Q 2578 3413 2733 3391 
Q 2888 3369 3059 3328 
z
" transform="scale(0.015625)"/>
       <path id="DejaVuSerif-67" d="M 3359 2988 
L 3359 72 
Q 3359 -644 2965 -1033 
Q 2572 -1422 1844 -1422 
Q 1516 -1422 1216 -1362 
Q 916 -1303 641 -1184 
L 641 -488 
L 941 -488 
Q 997 -813 1206 -963 
Q 1416 -1113 1806 -1113 
Q 2313 -1113 2548 -827 
Q 2784 -541 2784 72 
L 2784 519 
Q 2616 206 2355 57 
Q 2094 -91 1709 -91 
Q 1097 -91 708 395 
Q 319 881 319 1663 
Q 319 2444 706 2928 
Q 1094 3413 1709 3413 
Q 2094 3413 2355 3264 
Q 2616 3116 2784 2803 
L 2784 3322 
L 3909 3322 
L 3909 2988 
L 3359 2988 
z
M 2784 1825 
Q 2784 2422 2554 2737 
Q 2325 3053 1888 3053 
Q 1444 3053 1217 2703 
Q 991 2353 991 1663 
Q 991 975 1217 622 
Q 1444 269 1888 269 
Q 2325 269 2554 583 
Q 2784 897 2784 1497 
L 2784 1825 
z
" transform="scale(0.015625)"/>
      </defs>
      <use xlink:href="#DejaVuSerif-48"/>
      <use xlink:href="#DejaVuSerif-65" x="87.207031"/>
      <use xlink:href="#DejaVuSerif-69" x="146.386719"/>
      <use xlink:href="#DejaVuSerif-73" x="178.369141"/>
      <use xlink:href="#DejaVuSerif-65" x="229.6875"/>
      <use xlink:href="#DejaVuSerif-6e" x="288.867188"/>
      <use xlink:href="#DejaVuSerif-62" x="353.271484"/>
      <use xlink:href="#DejaVuSerif-65" x="417.285156"/>
      <use xlink:href="#DejaVuSerif-72" x="476.464844"/>
      <use xlink:href="#DejaVuSerif-67" x="524.267578"/>
     </g>
    </g>
    <g id="line2d_44">
     <path d="M 112.71 370.42 
L 128.71 370.42 
L 144.71 370.42 
" style="fill: none; stroke-dasharray: 9,3,3,3; stroke-dashoffset: 0; stroke: #9467bd; stroke-width: 3"/>
    </g>
    <g id="text_18">
     <!-- Pauli -->
     <g transform="translate(157.51 376.02) scale(0.16 -0.16)">
      <defs>
       <path id="DejaVuSerif-50" d="M 1581 2375 
L 2406 2375 
Q 2872 2375 3115 2626 
Q 3359 2878 3359 3353 
Q 3359 3831 3115 4081 
Q 2872 4331 2406 4331 
L 1581 4331 
L 1581 2375 
z
M 353 0 
L 353 331 
L 947 331 
L 947 4331 
L 353 4331 
L 353 4666 
L 2559 4666 
Q 3259 4666 3668 4311 
Q 4078 3956 4078 3353 
Q 4078 2753 3668 2397 
Q 3259 2041 2559 2041 
L 1581 2041 
L 1581 331 
L 2303 331 
L 2303 0 
L 353 0 
z
" transform="scale(0.015625)"/>
      </defs>
      <use xlink:href="#DejaVuSerif-50"/>
      <use xlink:href="#DejaVuSerif-61" x="62.785156"/>
      <use xlink:href="#DejaVuSerif-75" x="122.404297"/>
      <use xlink:href="#DejaVuSerif-6c" x="186.808594"/>
      <use xlink:href="#DejaVuSerif-69" x="218.791016"/>
     </g>
    </g>
    <g id="line2d_45">
     <path d="M 112.71 393.905 
L 128.71 393.905 
L 144.71 393.905 
" style="fill: none; stroke: #808080; stroke-width: 3; stroke-linecap: square"/>
    </g>
    <g id="text_19">
     <!-- Total -->
     <g transform="translate(157.51 399.505) scale(0.16 -0.16)">
      <defs>
       <path id="DejaVuSerif-54" d="M 1222 0 
L 1222 331 
L 1819 331 
L 1819 4294 
L 447 4294 
L 447 3566 
L 63 3566 
L 63 4666 
L 4206 4666 
L 4206 3566 
L 3822 3566 
L 3822 4294 
L 2450 4294 
L 2450 331 
L 3047 331 
L 3047 0 
L 1222 0 
z
" transform="scale(0.015625)"/>
       <path id="DejaVuSerif-6f" d="M 1925 219 
Q 2388 219 2623 584 
Q 2859 950 2859 1663 
Q 2859 2375 2623 2739 
Q 2388 3103 1925 3103 
Q 1463 3103 1227 2739 
Q 991 2375 991 1663 
Q 991 950 1228 584 
Q 1466 219 1925 219 
z
M 1925 -91 
Q 1200 -91 759 389 
Q 319 869 319 1663 
Q 319 2456 758 2934 
Q 1197 3413 1925 3413 
Q 2653 3413 3092 2934 
Q 3531 2456 3531 1663 
Q 3531 869 3092 389 
Q 2653 -91 1925 -91 
z
" transform="scale(0.015625)"/>
      </defs>
      <use xlink:href="#DejaVuSerif-54"/>
      <use xlink:href="#DejaVuSerif-6f" x="58.949219"/>
      <use xlink:href="#DejaVuSerif-74" x="119.154297"/>
      <use xlink:href="#DejaVuSerif-61" x="159.339844"/>
      <use xlink:href="#DejaVuSerif-6c" x="218.958984"/>
     </g>
    </g>
   </g>
  </g>
 </g>
 <defs>
  <clipPath id="pb48efc326a">
   <rect x="98.31" y="28.08" width="585.808636" height="389.1525"/>
  </clipPath>
 </defs>
</svg>
