<?xml version="1.0" encoding="utf-8" standalone="no"?>
<!DOCTYPE svg PUBLIC "-//W3C//DTD SVG 1.1//EN"
  "http://www.w3.org/Graphics/SVG/1.1/DTD/svg11.dtd">
<svg xmlns:xlink="http://www.w3.org/1999/xlink" width="864pt" height="576pt" viewBox="0 0 864 576" xmlns="http://www.w3.org/2000/svg" version="1.1">
 <metadata>
  <rdf:RDF xmlns:dc="http://purl.org/dc/elements/1.1/" xmlns:cc="http://creativecommons.org/ns#" xmlns:rdf="http://www.w3.org/1999/02/22-rdf-syntax-ns#">
   <cc:Work>
    <dc:type rdf:resource="http://purl.org/dc/dcmitype/StillImage"/>
    <dc:date>2025-06-11T15:00:25.472872</dc:date>
    <dc:format>image/svg+xml</dc:format>
    <dc:creator>
     <cc:Agent>
      <dc:title>Matplotlib v3.7.2, https://matplotlib.org/</dc:title>
     </cc:Agent>
    </dc:creator>
   </cc:Work>
  </rdf:RDF>
 </metadata>
 <defs>
  <style type="text/css">*{stroke-linejoin: round; stroke-linecap: butt}</style>
 </defs>
 <g id="figure_1">
  <g id="patch_1">
   <path d="M 0 576 
L 864 576 
L 864 0 
L 0 0 
z
" style="fill: #ffffff"/>
  </g>
  <g id="axes_1">
   <g id="patch_2">
    <path d="M 123.735 489.2325 
L 826.97669 489.2325 
L 826.97669 28.08 
L 123.735 28.08 
z
" style="fill: #ffffff"/>
   </g>
   <g id="matplotlib.axis_1">
    <g id="xtick_1">
     <g id="line2d_1">
      <path d="M 149.499969 489.2325 
L 149.499969 28.08 
" clip-path="url(#pcf244f473c)" style="fill: none; stroke-dasharray: 3.7,1.6; stroke-dashoffset: 0; stroke: #b0b0b0; stroke-opacity: 0.5"/>
     </g>
     <g id="line2d_2">
      <defs>
       <path id="macfb718b09" d="M 0 0 
L 0 -10 
" style="stroke: #000000; stroke-width: 2"/>
      </defs>
      <g>
       <use xlink:href="#macfb718b09" x="149.499969" y="489.2325" style="stroke: #000000; stroke-width: 2"/>
      </g>
     </g>
     <g id="line2d_3">
      <defs>
       <path id="m49f34d48e5" d="M 0 0 
L 0 10 
" style="stroke: #000000; stroke-width: 2"/>
      </defs>
      <g>
       <use xlink:href="#m49f34d48e5" x="149.499969" y="28.08" style="stroke: #000000; stroke-width: 2"/>
      </g>
     </g>
     <g id="text_1">
      <!-- 0 -->
      <g transform="translate(141.228719 512.488438) scale(0.26 -0.26)">
       <defs>
        <path id="DejaVuSerif-30" d="M 2034 219 
Q 2513 219 2750 744 
Q 2988 1269 2988 2328 
Q 2988 3391 2750 3916 
Q 2513 4441 2034 4441 
Q 1556 4441 1318 3916 
Q 1081 3391 1081 2328 
Q 1081 1269 1318 744 
Q 1556 219 2034 219 
z
M 2034 -91 
Q 1275 -91 848 546 
Q 422 1184 422 2328 
Q 422 3475 848 4112 
Q 1275 4750 2034 4750 
Q 2797 4750 3222 4112 
Q 3647 3475 3647 2328 
Q 3647 1184 3222 546 
Q 2797 -91 2034 -91 
z
" transform="scale(0.015625)"/>
       </defs>
       <use xlink:href="#DejaVuSerif-30"/>
      </g>
     </g>
    </g>
    <g id="xtick_2">
     <g id="line2d_4">
      <path d="M 279.907588 489.2325 
L 279.907588 28.08 
" clip-path="url(#pcf244f473c)" style="fill: none; stroke-dasharray: 3.7,1.6; stroke-dashoffset: 0; stroke: #b0b0b0; stroke-opacity: 0.5"/>
     </g>
     <g id="line2d_5">
      <g>
       <use xlink:href="#macfb718b09" x="279.907588" y="489.2325" style="stroke: #000000; stroke-width: 2"/>
      </g>
     </g>
     <g id="line2d_6">
      <g>
       <use xlink:href="#m49f34d48e5" x="279.907588" y="28.08" style="stroke: #000000; stroke-width: 2"/>
      </g>
     </g>
     <g id="text_2">
      <!-- 500 -->
      <g transform="translate(255.093838 512.488438) scale(0.26 -0.26)">
       <defs>
        <path id="DejaVuSerif-35" d="M 3219 4666 
L 3219 4153 
L 1081 4153 
L 1081 2816 
Q 1244 2928 1461 2984 
Q 1678 3041 1947 3041 
Q 2703 3041 3140 2622 
Q 3578 2203 3578 1478 
Q 3578 738 3136 323 
Q 2694 -91 1894 -91 
Q 1572 -91 1234 -12 
Q 897 66 544 225 
L 544 1131 
L 897 1131 
Q 925 688 1179 453 
Q 1434 219 1894 219 
Q 2388 219 2653 544 
Q 2919 869 2919 1478 
Q 2919 2084 2655 2407 
Q 2391 2731 1894 2731 
Q 1613 2731 1398 2631 
Q 1184 2531 1019 2322 
L 750 2322 
L 750 4666 
L 3219 4666 
z
" transform="scale(0.015625)"/>
       </defs>
       <use xlink:href="#DejaVuSerif-35"/>
       <use xlink:href="#DejaVuSerif-30" x="63.623047"/>
       <use xlink:href="#DejaVuSerif-30" x="127.246094"/>
      </g>
     </g>
    </g>
    <g id="xtick_3">
     <g id="line2d_7">
      <path d="M 410.315208 489.2325 
L 410.315208 28.08 
" clip-path="url(#pcf244f473c)" style="fill: none; stroke-dasharray: 3.7,1.6; stroke-dashoffset: 0; stroke: #b0b0b0; stroke-opacity: 0.5"/>
     </g>
     <g id="line2d_8">
      <g>
       <use xlink:href="#macfb718b09" x="410.315208" y="489.2325" style="stroke: #000000; stroke-width: 2"/>
      </g>
     </g>
     <g id="line2d_9">
      <g>
       <use xlink:href="#m49f34d48e5" x="410.315208" y="28.08" style="stroke: #000000; stroke-width: 2"/>
      </g>
     </g>
     <g id="text_3">
      <!-- 1000 -->
      <g transform="translate(377.230208 512.488438) scale(0.26 -0.26)">
       <defs>
        <path id="DejaVuSerif-31" d="M 909 0 
L 909 331 
L 1722 331 
L 1722 4213 
L 781 3603 
L 781 4013 
L 1919 4750 
L 2350 4750 
L 2350 331 
L 3163 331 
L 3163 0 
L 909 0 
z
" transform="scale(0.015625)"/>
       </defs>
       <use xlink:href="#DejaVuSerif-31"/>
       <use xlink:href="#DejaVuSerif-30" x="63.623047"/>
       <use xlink:href="#DejaVuSerif-30" x="127.246094"/>
       <use xlink:href="#DejaVuSerif-30" x="190.869141"/>
      </g>
     </g>
    </g>
    <g id="xtick_4">
     <g id="line2d_10">
      <path d="M 540.722828 489.2325 
L 540.722828 28.08 
" clip-path="url(#pcf244f473c)" style="fill: none; stroke-dasharray: 3.7,1.6; stroke-dashoffset: 0; stroke: #b0b0b0; stroke-opacity: 0.5"/>
     </g>
     <g id="line2d_11">
      <g>
       <use xlink:href="#macfb718b09" x="540.722828" y="489.2325" style="stroke: #000000; stroke-width: 2"/>
      </g>
     </g>
     <g id="line2d_12">
      <g>
       <use xlink:href="#m49f34d48e5" x="540.722828" y="28.08" style="stroke: #000000; stroke-width: 2"/>
      </g>
     </g>
     <g id="text_4">
      <!-- 1500 -->
      <g transform="translate(507.637828 512.488438) scale(0.26 -0.26)">
       <use xlink:href="#DejaVuSerif-31"/>
       <use xlink:href="#DejaVuSerif-35" x="63.623047"/>
       <use xlink:href="#DejaVuSerif-30" x="127.246094"/>
       <use xlink:href="#DejaVuSerif-30" x="190.869141"/>
      </g>
     </g>
    </g>
    <g id="xtick_5">
     <g id="line2d_13">
      <path d="M 671.130447 489.2325 
L 671.130447 28.08 
" clip-path="url(#pcf244f473c)" style="fill: none; stroke-dasharray: 3.7,1.6; stroke-dashoffset: 0; stroke: #b0b0b0; stroke-opacity: 0.5"/>
     </g>
     <g id="line2d_14">
      <g>
       <use xlink:href="#macfb718b09" x="671.130447" y="489.2325" style="stroke: #000000; stroke-width: 2"/>
      </g>
     </g>
     <g id="line2d_15">
      <g>
       <use xlink:href="#m49f34d48e5" x="671.130447" y="28.08" style="stroke: #000000; stroke-width: 2"/>
      </g>
     </g>
     <g id="text_5">
      <!-- 2000 -->
      <g transform="translate(638.045447 512.488438) scale(0.26 -0.26)">
       <defs>
        <path id="DejaVuSerif-32" d="M 819 3553 
L 469 3553 
L 469 4384 
Q 803 4563 1142 4656 
Q 1481 4750 1806 4750 
Q 2534 4750 2956 4397 
Q 3378 4044 3378 3438 
Q 3378 2753 2422 1800 
Q 2347 1728 2309 1691 
L 1131 513 
L 3078 513 
L 3078 1088 
L 3444 1088 
L 3444 0 
L 434 0 
L 434 341 
L 1850 1753 
Q 2319 2222 2519 2614 
Q 2719 3006 2719 3438 
Q 2719 3909 2473 4175 
Q 2228 4441 1797 4441 
Q 1350 4441 1106 4219 
Q 863 3997 819 3553 
z
" transform="scale(0.015625)"/>
       </defs>
       <use xlink:href="#DejaVuSerif-32"/>
       <use xlink:href="#DejaVuSerif-30" x="63.623047"/>
       <use xlink:href="#DejaVuSerif-30" x="127.246094"/>
       <use xlink:href="#DejaVuSerif-30" x="190.869141"/>
      </g>
     </g>
    </g>
    <g id="xtick_6">
     <g id="line2d_16">
      <path d="M 801.538067 489.2325 
L 801.538067 28.08 
" clip-path="url(#pcf244f473c)" style="fill: none; stroke-dasharray: 3.7,1.6; stroke-dashoffset: 0; stroke: #b0b0b0; stroke-opacity: 0.5"/>
     </g>
     <g id="line2d_17">
      <g>
       <use xlink:href="#macfb718b09" x="801.538067" y="489.2325" style="stroke: #000000; stroke-width: 2"/>
      </g>
     </g>
     <g id="line2d_18">
      <g>
       <use xlink:href="#m49f34d48e5" x="801.538067" y="28.08" style="stroke: #000000; stroke-width: 2"/>
      </g>
     </g>
     <g id="text_6">
      <!-- 2500 -->
      <g transform="translate(768.453067 512.488438) scale(0.26 -0.26)">
       <use xlink:href="#DejaVuSerif-32"/>
       <use xlink:href="#DejaVuSerif-35" x="63.623047"/>
       <use xlink:href="#DejaVuSerif-30" x="127.246094"/>
       <use xlink:href="#DejaVuSerif-30" x="190.869141"/>
      </g>
     </g>
    </g>
    <g id="text_7">
     <!-- $t$ (a.u.) -->
     <g transform="translate(431.935845 541.651562) scale(0.26 -0.26)">
      <defs>
       <path id="Cmmi10-74" d="M 397 519 
Q 397 613 416 697 
L 878 2534 
L 206 2534 
Q 141 2534 141 2619 
Q 166 2759 225 2759 
L 934 2759 
L 1191 3803 
Q 1216 3888 1291 3947 
Q 1366 4006 1459 4006 
Q 1541 4006 1595 3957 
Q 1650 3909 1650 3828 
Q 1650 3809 1648 3798 
Q 1647 3788 1644 3775 
L 1388 2759 
L 2047 2759 
Q 2113 2759 2113 2675 
Q 2109 2659 2100 2621 
Q 2091 2584 2075 2559 
Q 2059 2534 2028 2534 
L 1331 2534 
L 872 684 
Q 825 503 825 372 
Q 825 97 1013 97 
Q 1294 97 1511 361 
Q 1728 625 1844 941 
Q 1869 978 1894 978 
L 1972 978 
Q 1997 978 2012 961 
Q 2028 944 2028 922 
Q 2028 909 2022 903 
Q 1881 516 1612 222 
Q 1344 -72 997 -72 
Q 744 -72 570 93 
Q 397 259 397 519 
z
" transform="scale(0.015625)"/>
       <path id="DejaVuSerif-20" transform="scale(0.015625)"/>
       <path id="DejaVuSerif-28" d="M 2041 -997 
Q 1281 -656 893 83 
Q 506 822 506 1931 
Q 506 3044 893 3783 
Q 1281 4522 2041 4863 
L 2041 4556 
Q 1559 4225 1350 3623 
Q 1141 3022 1141 1931 
Q 1141 844 1350 242 
Q 1559 -359 2041 -691 
L 2041 -997 
z
" transform="scale(0.015625)"/>
       <path id="DejaVuSerif-61" d="M 2547 1044 
L 2547 1747 
L 1806 1747 
Q 1378 1747 1168 1562 
Q 959 1378 959 997 
Q 959 650 1171 447 
Q 1384 244 1747 244 
Q 2106 244 2326 466 
Q 2547 688 2547 1044 
z
M 3122 2075 
L 3122 331 
L 3634 331 
L 3634 0 
L 2547 0 
L 2547 359 
Q 2356 128 2106 18 
Q 1856 -91 1522 -91 
Q 969 -91 644 203 
Q 319 497 319 997 
Q 319 1513 691 1797 
Q 1063 2081 1741 2081 
L 2547 2081 
L 2547 2309 
Q 2547 2688 2317 2895 
Q 2088 3103 1672 3103 
Q 1328 3103 1125 2947 
Q 922 2791 872 2484 
L 575 2484 
L 575 3156 
Q 875 3284 1158 3348 
Q 1441 3413 1709 3413 
Q 2400 3413 2761 3070 
Q 3122 2728 3122 2075 
z
" transform="scale(0.015625)"/>
       <path id="DejaVuSerif-2e" d="M 603 325 
Q 603 500 722 622 
Q 841 744 1019 744 
Q 1191 744 1312 622 
Q 1434 500 1434 325 
Q 1434 153 1312 31 
Q 1191 -91 1019 -91 
Q 841 -91 722 29 
Q 603 150 603 325 
z
" transform="scale(0.015625)"/>
       <path id="DejaVuSerif-75" d="M 2266 3322 
L 3341 3322 
L 3341 331 
L 3884 331 
L 3884 0 
L 2766 0 
L 2766 588 
Q 2606 256 2353 82 
Q 2100 -91 1766 -91 
Q 1213 -91 952 223 
Q 691 538 691 1209 
L 691 2988 
L 172 2988 
L 172 3322 
L 1269 3322 
L 1269 1388 
Q 1269 781 1417 556 
Q 1566 331 1947 331 
Q 2347 331 2556 625 
Q 2766 919 2766 1478 
L 2766 2988 
L 2266 2988 
L 2266 3322 
z
" transform="scale(0.015625)"/>
       <path id="DejaVuSerif-29" d="M 453 -997 
L 453 -691 
Q 934 -359 1145 242 
Q 1356 844 1356 1931 
Q 1356 3022 1145 3623 
Q 934 4225 453 4556 
L 453 4863 
Q 1216 4522 1603 3783 
Q 1991 3044 1991 1931 
Q 1991 822 1603 83 
Q 1216 -656 453 -997 
z
" transform="scale(0.015625)"/>
      </defs>
      <use xlink:href="#Cmmi10-74" transform="translate(0 0.015625)"/>
      <use xlink:href="#DejaVuSerif-20" transform="translate(36.083984 0.015625)"/>
      <use xlink:href="#DejaVuSerif-28" transform="translate(67.871094 0.015625)"/>
      <use xlink:href="#DejaVuSerif-61" transform="translate(106.884766 0.015625)"/>
      <use xlink:href="#DejaVuSerif-2e" transform="translate(166.503906 0.015625)"/>
      <use xlink:href="#DejaVuSerif-75" transform="translate(198.291016 0.015625)"/>
      <use xlink:href="#DejaVuSerif-2e" transform="translate(262.695312 0.015625)"/>
      <use xlink:href="#DejaVuSerif-29" transform="translate(294.482422 0.015625)"/>
     </g>
    </g>
   </g>
   <g id="matplotlib.axis_2">
    <g id="ytick_1">
     <g id="line2d_19">
      <path d="M 123.735 447.257634 
L 826.97669 447.257634 
" clip-path="url(#pcf244f473c)" style="fill: none; stroke-dasharray: 3.7,1.6; stroke-dashoffset: 0; stroke: #b0b0b0; stroke-opacity: 0.5"/>
     </g>
     <g id="line2d_20">
      <defs>
       <path id="mbb1f02c3d8" d="M 0 0 
L 10 0 
" style="stroke: #000000; stroke-width: 2"/>
      </defs>
      <g>
       <use xlink:href="#mbb1f02c3d8" x="123.735" y="447.257634" style="stroke: #000000; stroke-width: 2"/>
      </g>
     </g>
     <g id="line2d_21">
      <defs>
       <path id="m4265b95155" d="M 0 0 
L -10 0 
" style="stroke: #000000; stroke-width: 2"/>
      </defs>
      <g>
       <use xlink:href="#m4265b95155" x="826.97669" y="447.257634" style="stroke: #000000; stroke-width: 2"/>
      </g>
     </g>
     <g id="text_8">
      <!-- −3.0 -->
      <g transform="translate(57.099688 457.135602) scale(0.26 -0.26)">
       <defs>
        <path id="DejaVuSerif-2212" d="M 678 2259 
L 4684 2259 
L 4684 1753 
L 678 1753 
L 678 2259 
z
" transform="scale(0.015625)"/>
        <path id="DejaVuSerif-33" d="M 622 4469 
Q 988 4606 1323 4678 
Q 1659 4750 1953 4750 
Q 2638 4750 3022 4454 
Q 3406 4159 3406 3634 
Q 3406 3213 3140 2930 
Q 2875 2647 2388 2547 
Q 2963 2466 3280 2130 
Q 3597 1794 3597 1259 
Q 3597 606 3158 257 
Q 2719 -91 1894 -91 
Q 1528 -91 1179 -12 
Q 831 66 488 225 
L 488 1131 
L 838 1131 
Q 869 681 1141 450 
Q 1413 219 1906 219 
Q 2384 219 2661 495 
Q 2938 772 2938 1253 
Q 2938 1803 2653 2086 
Q 2369 2369 1819 2369 
L 1522 2369 
L 1522 2688 
L 1678 2688 
Q 2225 2688 2498 2914 
Q 2772 3141 2772 3597 
Q 2772 4006 2547 4223 
Q 2322 4441 1900 4441 
Q 1478 4441 1245 4241 
Q 1013 4041 972 3647 
L 622 3647 
L 622 4469 
z
" transform="scale(0.015625)"/>
       </defs>
       <use xlink:href="#DejaVuSerif-2212"/>
       <use xlink:href="#DejaVuSerif-33" x="83.789062"/>
       <use xlink:href="#DejaVuSerif-2e" x="147.412109"/>
       <use xlink:href="#DejaVuSerif-30" x="179.199219"/>
      </g>
     </g>
    </g>
    <g id="ytick_2">
     <g id="line2d_22">
      <path d="M 123.735 383.437293 
L 826.97669 383.437293 
" clip-path="url(#pcf244f473c)" style="fill: none; stroke-dasharray: 3.7,1.6; stroke-dashoffset: 0; stroke: #b0b0b0; stroke-opacity: 0.5"/>
     </g>
     <g id="line2d_23">
      <g>
       <use xlink:href="#mbb1f02c3d8" x="123.735" y="383.437293" style="stroke: #000000; stroke-width: 2"/>
      </g>
     </g>
     <g id="line2d_24">
      <g>
       <use xlink:href="#m4265b95155" x="826.97669" y="383.437293" style="stroke: #000000; stroke-width: 2"/>
      </g>
     </g>
     <g id="text_9">
      <!-- −2.5 -->
      <g transform="translate(57.099688 393.315262) scale(0.26 -0.26)">
       <use xlink:href="#DejaVuSerif-2212"/>
       <use xlink:href="#DejaVuSerif-32" x="83.789062"/>
       <use xlink:href="#DejaVuSerif-2e" x="147.412109"/>
       <use xlink:href="#DejaVuSerif-35" x="179.199219"/>
      </g>
     </g>
    </g>
    <g id="ytick_3">
     <g id="line2d_25">
      <path d="M 123.735 319.616952 
L 826.97669 319.616952 
" clip-path="url(#pcf244f473c)" style="fill: none; stroke-dasharray: 3.7,1.6; stroke-dashoffset: 0; stroke: #b0b0b0; stroke-opacity: 0.5"/>
     </g>
     <g id="line2d_26">
      <g>
       <use xlink:href="#mbb1f02c3d8" x="123.735" y="319.616952" style="stroke: #000000; stroke-width: 2"/>
      </g>
     </g>
     <g id="line2d_27">
      <g>
       <use xlink:href="#m4265b95155" x="826.97669" y="319.616952" style="stroke: #000000; stroke-width: 2"/>
      </g>
     </g>
     <g id="text_10">
      <!-- −2.0 -->
      <g transform="translate(57.099688 329.494921) scale(0.26 -0.26)">
       <use xlink:href="#DejaVuSerif-2212"/>
       <use xlink:href="#DejaVuSerif-32" x="83.789062"/>
       <use xlink:href="#DejaVuSerif-2e" x="147.412109"/>
       <use xlink:href="#DejaVuSerif-30" x="179.199219"/>
      </g>
     </g>
    </g>
    <g id="ytick_4">
     <g id="line2d_28">
      <path d="M 123.735 255.796611 
L 826.97669 255.796611 
" clip-path="url(#pcf244f473c)" style="fill: none; stroke-dasharray: 3.7,1.6; stroke-dashoffset: 0; stroke: #b0b0b0; stroke-opacity: 0.5"/>
     </g>
     <g id="line2d_29">
      <g>
       <use xlink:href="#mbb1f02c3d8" x="123.735" y="255.796611" style="stroke: #000000; stroke-width: 2"/>
      </g>
     </g>
     <g id="line2d_30">
      <g>
       <use xlink:href="#m4265b95155" x="826.97669" y="255.796611" style="stroke: #000000; stroke-width: 2"/>
      </g>
     </g>
     <g id="text_11">
      <!-- −1.5 -->
      <g transform="translate(57.099688 265.67458) scale(0.26 -0.26)">
       <use xlink:href="#DejaVuSerif-2212"/>
       <use xlink:href="#DejaVuSerif-31" x="83.789062"/>
       <use xlink:href="#DejaVuSerif-2e" x="147.412109"/>
       <use xlink:href="#DejaVuSerif-35" x="179.199219"/>
      </g>
     </g>
    </g>
    <g id="ytick_5">
     <g id="line2d_31">
      <path d="M 123.735 191.97627 
L 826.97669 191.97627 
" clip-path="url(#pcf244f473c)" style="fill: none; stroke-dasharray: 3.7,1.6; stroke-dashoffset: 0; stroke: #b0b0b0; stroke-opacity: 0.5"/>
     </g>
     <g id="line2d_32">
      <g>
       <use xlink:href="#mbb1f02c3d8" x="123.735" y="191.97627" style="stroke: #000000; stroke-width: 2"/>
      </g>
     </g>
     <g id="line2d_33">
      <g>
       <use xlink:href="#m4265b95155" x="826.97669" y="191.97627" style="stroke: #000000; stroke-width: 2"/>
      </g>
     </g>
     <g id="text_12">
      <!-- −1.0 -->
      <g transform="translate(57.099688 201.854239) scale(0.26 -0.26)">
       <use xlink:href="#DejaVuSerif-2212"/>
       <use xlink:href="#DejaVuSerif-31" x="83.789062"/>
       <use xlink:href="#DejaVuSerif-2e" x="147.412109"/>
       <use xlink:href="#DejaVuSerif-30" x="179.199219"/>
      </g>
     </g>
    </g>
    <g id="ytick_6">
     <g id="line2d_34">
      <path d="M 123.735 128.15593 
L 826.97669 128.15593 
" clip-path="url(#pcf244f473c)" style="fill: none; stroke-dasharray: 3.7,1.6; stroke-dashoffset: 0; stroke: #b0b0b0; stroke-opacity: 0.5"/>
     </g>
     <g id="line2d_35">
      <g>
       <use xlink:href="#mbb1f02c3d8" x="123.735" y="128.15593" style="stroke: #000000; stroke-width: 2"/>
      </g>
     </g>
     <g id="line2d_36">
      <g>
       <use xlink:href="#m4265b95155" x="826.97669" y="128.15593" style="stroke: #000000; stroke-width: 2"/>
      </g>
     </g>
     <g id="text_13">
      <!-- −0.5 -->
      <g transform="translate(57.099688 138.033898) scale(0.26 -0.26)">
       <use xlink:href="#DejaVuSerif-2212"/>
       <use xlink:href="#DejaVuSerif-30" x="83.789062"/>
       <use xlink:href="#DejaVuSerif-2e" x="147.412109"/>
       <use xlink:href="#DejaVuSerif-35" x="179.199219"/>
      </g>
     </g>
    </g>
    <g id="ytick_7">
     <g id="line2d_37">
      <path d="M 123.735 64.335589 
L 826.97669 64.335589 
" clip-path="url(#pcf244f473c)" style="fill: none; stroke-dasharray: 3.7,1.6; stroke-dashoffset: 0; stroke: #b0b0b0; stroke-opacity: 0.5"/>
     </g>
     <g id="line2d_38">
      <g>
       <use xlink:href="#mbb1f02c3d8" x="123.735" y="64.335589" style="stroke: #000000; stroke-width: 2"/>
      </g>
     </g>
     <g id="line2d_39">
      <g>
       <use xlink:href="#m4265b95155" x="826.97669" y="64.335589" style="stroke: #000000; stroke-width: 2"/>
      </g>
     </g>
     <g id="text_14">
      <!-- 0.0 -->
      <g transform="translate(78.886875 74.213557) scale(0.26 -0.26)">
       <use xlink:href="#DejaVuSerif-30"/>
       <use xlink:href="#DejaVuSerif-2e" x="63.623047"/>
       <use xlink:href="#DejaVuSerif-30" x="95.410156"/>
      </g>
     </g>
    </g>
    <g id="text_15">
     <!-- Particle energy (a.u.) -->
     <g transform="translate(47.322812 397.733906) rotate(-90) scale(0.26 -0.26)">
      <defs>
       <path id="DejaVuSerif-50" d="M 1581 2375 
L 2406 2375 
Q 2872 2375 3115 2626 
Q 3359 2878 3359 3353 
Q 3359 3831 3115 4081 
Q 2872 4331 2406 4331 
L 1581 4331 
L 1581 2375 
z
M 353 0 
L 353 331 
L 947 331 
L 947 4331 
L 353 4331 
L 353 4666 
L 2559 4666 
Q 3259 4666 3668 4311 
Q 4078 3956 4078 3353 
Q 4078 2753 3668 2397 
Q 3259 2041 2559 2041 
L 1581 2041 
L 1581 331 
L 2303 331 
L 2303 0 
L 353 0 
z
" transform="scale(0.015625)"/>
       <path id="DejaVuSerif-72" d="M 3059 3328 
L 3059 2497 
L 2728 2497 
Q 2713 2744 2591 2866 
Q 2469 2988 2234 2988 
Q 1809 2988 1582 2694 
Q 1356 2400 1356 1850 
L 1356 331 
L 2022 331 
L 2022 0 
L 263 0 
L 263 331 
L 781 331 
L 781 2994 
L 231 2994 
L 231 3322 
L 1356 3322 
L 1356 2731 
Q 1525 3078 1790 3245 
Q 2056 3413 2438 3413 
Q 2578 3413 2733 3391 
Q 2888 3369 3059 3328 
z
" transform="scale(0.015625)"/>
       <path id="DejaVuSerif-74" d="M 691 2988 
L 184 2988 
L 184 3322 
L 691 3322 
L 691 4353 
L 1269 4353 
L 1269 3322 
L 2350 3322 
L 2350 2988 
L 1269 2988 
L 1269 878 
Q 1269 456 1350 337 
Q 1431 219 1650 219 
Q 1875 219 1978 351 
Q 2081 484 2088 781 
L 2522 781 
Q 2497 328 2275 118 
Q 2053 -91 1600 -91 
Q 1103 -91 897 129 
Q 691 350 691 878 
L 691 2988 
z
" transform="scale(0.015625)"/>
       <path id="DejaVuSerif-69" d="M 622 4353 
Q 622 4497 726 4603 
Q 831 4709 978 4709 
Q 1122 4709 1226 4603 
Q 1331 4497 1331 4353 
Q 1331 4206 1228 4103 
Q 1125 4000 978 4000 
Q 831 4000 726 4103 
Q 622 4206 622 4353 
z
M 1356 331 
L 1900 331 
L 1900 0 
L 231 0 
L 231 331 
L 781 331 
L 781 2988 
L 231 2988 
L 231 3322 
L 1356 3322 
L 1356 331 
z
" transform="scale(0.015625)"/>
       <path id="DejaVuSerif-63" d="M 3291 997 
Q 3169 466 2822 187 
Q 2475 -91 1925 -91 
Q 1200 -91 759 389 
Q 319 869 319 1663 
Q 319 2459 759 2936 
Q 1200 3413 1925 3413 
Q 2241 3413 2553 3339 
Q 2866 3266 3181 3116 
L 3181 2266 
L 2847 2266 
Q 2781 2703 2561 2903 
Q 2341 3103 1931 3103 
Q 1466 3103 1228 2742 
Q 991 2381 991 1663 
Q 991 944 1227 581 
Q 1463 219 1931 219 
Q 2303 219 2525 412 
Q 2747 606 2828 997 
L 3291 997 
z
" transform="scale(0.015625)"/>
       <path id="DejaVuSerif-6c" d="M 1313 331 
L 1856 331 
L 1856 0 
L 184 0 
L 184 331 
L 738 331 
L 738 4531 
L 184 4531 
L 184 4863 
L 1313 4863 
L 1313 331 
z
" transform="scale(0.015625)"/>
       <path id="DejaVuSerif-65" d="M 3469 1600 
L 991 1600 
L 991 1575 
Q 991 903 1244 561 
Q 1497 219 1991 219 
Q 2369 219 2611 417 
Q 2853 616 2950 1006 
L 3413 1006 
Q 3275 459 2904 184 
Q 2534 -91 1931 -91 
Q 1203 -91 761 389 
Q 319 869 319 1663 
Q 319 2450 753 2931 
Q 1188 3413 1894 3413 
Q 2647 3413 3050 2948 
Q 3453 2484 3469 1600 
z
M 2791 1931 
Q 2772 2513 2545 2808 
Q 2319 3103 1894 3103 
Q 1497 3103 1269 2806 
Q 1041 2509 991 1931 
L 2791 1931 
z
" transform="scale(0.015625)"/>
       <path id="DejaVuSerif-6e" d="M 263 0 
L 263 331 
L 781 331 
L 781 2988 
L 231 2988 
L 231 3322 
L 1356 3322 
L 1356 2731 
Q 1516 3069 1770 3241 
Q 2025 3413 2363 3413 
Q 2913 3413 3172 3097 
Q 3431 2781 3431 2113 
L 3431 331 
L 3944 331 
L 3944 0 
L 2356 0 
L 2356 331 
L 2853 331 
L 2853 1931 
Q 2853 2541 2703 2767 
Q 2553 2994 2175 2994 
Q 1775 2994 1565 2701 
Q 1356 2409 1356 1850 
L 1356 331 
L 1856 331 
L 1856 0 
L 263 0 
z
" transform="scale(0.015625)"/>
       <path id="DejaVuSerif-67" d="M 3359 2988 
L 3359 72 
Q 3359 -644 2965 -1033 
Q 2572 -1422 1844 -1422 
Q 1516 -1422 1216 -1362 
Q 916 -1303 641 -1184 
L 641 -488 
L 941 -488 
Q 997 -813 1206 -963 
Q 1416 -1113 1806 -1113 
Q 2313 -1113 2548 -827 
Q 2784 -541 2784 72 
L 2784 519 
Q 2616 206 2355 57 
Q 2094 -91 1709 -91 
Q 1097 -91 708 395 
Q 319 881 319 1663 
Q 319 2444 706 2928 
Q 1094 3413 1709 3413 
Q 2094 3413 2355 3264 
Q 2616 3116 2784 2803 
L 2784 3322 
L 3909 3322 
L 3909 2988 
L 3359 2988 
z
M 2784 1825 
Q 2784 2422 2554 2737 
Q 2325 3053 1888 3053 
Q 1444 3053 1217 2703 
Q 991 2353 991 1663 
Q 991 975 1217 622 
Q 1444 269 1888 269 
Q 2325 269 2554 583 
Q 2784 897 2784 1497 
L 2784 1825 
z
" transform="scale(0.015625)"/>
       <path id="DejaVuSerif-79" d="M 1381 -609 
L 1600 -56 
L 359 2988 
L -19 2988 
L -19 3322 
L 1509 3322 
L 1509 2988 
L 978 2988 
L 1913 703 
L 2847 2988 
L 2350 2988 
L 2350 3322 
L 3597 3322 
L 3597 2988 
L 3225 2988 
L 1703 -750 
Q 1547 -1138 1356 -1280 
Q 1166 -1422 819 -1422 
Q 672 -1422 517 -1397 
Q 363 -1372 206 -1325 
L 206 -691 
L 500 -691 
Q 519 -903 608 -995 
Q 697 -1088 884 -1088 
Q 1056 -1088 1161 -992 
Q 1266 -897 1381 -609 
z
" transform="scale(0.015625)"/>
      </defs>
      <use xlink:href="#DejaVuSerif-50"/>
      <use xlink:href="#DejaVuSerif-61" x="62.785156"/>
      <use xlink:href="#DejaVuSerif-72" x="122.404297"/>
      <use xlink:href="#DejaVuSerif-74" x="170.207031"/>
      <use xlink:href="#DejaVuSerif-69" x="210.392578"/>
      <use xlink:href="#DejaVuSerif-63" x="242.375"/>
      <use xlink:href="#DejaVuSerif-6c" x="298.380859"/>
      <use xlink:href="#DejaVuSerif-65" x="330.363281"/>
      <use xlink:href="#DejaVuSerif-20" x="389.542969"/>
      <use xlink:href="#DejaVuSerif-65" x="421.330078"/>
      <use xlink:href="#DejaVuSerif-6e" x="480.509766"/>
      <use xlink:href="#DejaVuSerif-65" x="544.914062"/>
      <use xlink:href="#DejaVuSerif-72" x="604.09375"/>
      <use xlink:href="#DejaVuSerif-67" x="651.896484"/>
      <use xlink:href="#DejaVuSerif-79" x="715.910156"/>
      <use xlink:href="#DejaVuSerif-20" x="772.404297"/>
      <use xlink:href="#DejaVuSerif-28" x="804.191406"/>
      <use xlink:href="#DejaVuSerif-61" x="843.205078"/>
      <use xlink:href="#DejaVuSerif-2e" x="902.824219"/>
      <use xlink:href="#DejaVuSerif-75" x="934.611328"/>
      <use xlink:href="#DejaVuSerif-2e" x="999.015625"/>
      <use xlink:href="#DejaVuSerif-29" x="1030.802734"/>
     </g>
    </g>
   </g>
   <g id="line2d_40">
    <path d="M 155.700531 302.473147 
L 168.754347 301.413981 
L 181.808163 300.648357 
L 194.861979 299.629742 
L 207.915794 298.535447 
L 220.96961 297.141785 
L 234.023426 295.390626 
L 247.077242 293.453183 
L 260.131058 290.947494 
L 273.184873 287.932814 
L 286.238689 283.321852 
L 299.292505 277.530984 
L 312.346321 268.748019 
L 325.400136 253.310554 
L 338.453952 202.259713 
L 351.507768 181.14993 
L 364.561584 201.323433 
L 377.615399 104.488703 
L 390.669215 78.083303 
L 403.723031 80.003181 
L 416.776847 74.933985 
L 429.830663 76.103882 
L 442.884478 59.155295 
L 455.938294 59.126209 
L 468.99211 59.090193 
L 482.045926 59.063702 
L 495.099741 59.040413 
L 508.153557 59.018039 
L 521.207373 59.002375 
L 534.261189 58.985937 
L 547.315004 58.972481 
L 560.36882 58.962072 
L 573.422636 58.950688 
L 586.476452 58.941538 
L 599.530268 58.934075 
L 612.584083 58.92599 
L 625.637899 58.919315 
L 638.691715 58.913765 
L 651.745531 58.907763 
L 664.799346 58.902642 
L 677.853162 58.898261 
L 690.906978 58.89379 
L 703.960794 58.889704 
L 717.01461 58.886136 
L 730.068425 58.882777 
L 743.122241 58.879397 
L 756.176057 58.876425 
L 769.229873 58.873811 
L 782.283688 58.871022 
L 795.011159 58.868548 
" clip-path="url(#pcf244f473c)" style="fill: none; stroke: #1f77b4; stroke-width: 3; stroke-linecap: square"/>
    <defs>
     <path id="m3328b0a304" d="M 0 3 
C 0.795609 3 1.55874 2.683901 2.12132 2.12132 
C 2.683901 1.55874 3 0.795609 3 0 
C 3 -0.795609 2.683901 -1.55874 2.12132 -2.12132 
C 1.55874 -2.683901 0.795609 -3 0 -3 
C -0.795609 -3 -1.55874 -2.683901 -2.12132 -2.12132 
C -2.683901 -1.55874 -3 -0.795609 -3 0 
C -3 0.795609 -2.683901 1.55874 -2.12132 2.12132 
C -1.55874 2.683901 -0.795609 3 0 3 
z
" style="stroke: #1f77b4"/>
    </defs>
    <g clip-path="url(#pcf244f473c)">
     <use xlink:href="#m3328b0a304" x="155.700531" y="302.473147" style="fill: #1f77b4; stroke: #1f77b4"/>
     <use xlink:href="#m3328b0a304" x="168.754347" y="301.413981" style="fill: #1f77b4; stroke: #1f77b4"/>
     <use xlink:href="#m3328b0a304" x="181.808163" y="300.648357" style="fill: #1f77b4; stroke: #1f77b4"/>
     <use xlink:href="#m3328b0a304" x="194.861979" y="299.629742" style="fill: #1f77b4; stroke: #1f77b4"/>
     <use xlink:href="#m3328b0a304" x="207.915794" y="298.535447" style="fill: #1f77b4; stroke: #1f77b4"/>
     <use xlink:href="#m3328b0a304" x="220.96961" y="297.141785" style="fill: #1f77b4; stroke: #1f77b4"/>
     <use xlink:href="#m3328b0a304" x="234.023426" y="295.390626" style="fill: #1f77b4; stroke: #1f77b4"/>
     <use xlink:href="#m3328b0a304" x="247.077242" y="293.453183" style="fill: #1f77b4; stroke: #1f77b4"/>
     <use xlink:href="#m3328b0a304" x="260.131058" y="290.947494" style="fill: #1f77b4; stroke: #1f77b4"/>
     <use xlink:href="#m3328b0a304" x="273.184873" y="287.932814" style="fill: #1f77b4; stroke: #1f77b4"/>
     <use xlink:href="#m3328b0a304" x="286.238689" y="283.321852" style="fill: #1f77b4; stroke: #1f77b4"/>
     <use xlink:href="#m3328b0a304" x="299.292505" y="277.530984" style="fill: #1f77b4; stroke: #1f77b4"/>
     <use xlink:href="#m3328b0a304" x="312.346321" y="268.748019" style="fill: #1f77b4; stroke: #1f77b4"/>
     <use xlink:href="#m3328b0a304" x="325.400136" y="253.310554" style="fill: #1f77b4; stroke: #1f77b4"/>
     <use xlink:href="#m3328b0a304" x="338.453952" y="202.259713" style="fill: #1f77b4; stroke: #1f77b4"/>
     <use xlink:href="#m3328b0a304" x="351.507768" y="181.14993" style="fill: #1f77b4; stroke: #1f77b4"/>
     <use xlink:href="#m3328b0a304" x="364.561584" y="201.323433" style="fill: #1f77b4; stroke: #1f77b4"/>
     <use xlink:href="#m3328b0a304" x="377.615399" y="104.488703" style="fill: #1f77b4; stroke: #1f77b4"/>
     <use xlink:href="#m3328b0a304" x="390.669215" y="78.083303" style="fill: #1f77b4; stroke: #1f77b4"/>
     <use xlink:href="#m3328b0a304" x="403.723031" y="80.003181" style="fill: #1f77b4; stroke: #1f77b4"/>
     <use xlink:href="#m3328b0a304" x="416.776847" y="74.933985" style="fill: #1f77b4; stroke: #1f77b4"/>
     <use xlink:href="#m3328b0a304" x="429.830663" y="76.103882" style="fill: #1f77b4; stroke: #1f77b4"/>
     <use xlink:href="#m3328b0a304" x="442.884478" y="59.155295" style="fill: #1f77b4; stroke: #1f77b4"/>
     <use xlink:href="#m3328b0a304" x="455.938294" y="59.126209" style="fill: #1f77b4; stroke: #1f77b4"/>
     <use xlink:href="#m3328b0a304" x="468.99211" y="59.090193" style="fill: #1f77b4; stroke: #1f77b4"/>
     <use xlink:href="#m3328b0a304" x="482.045926" y="59.063702" style="fill: #1f77b4; stroke: #1f77b4"/>
     <use xlink:href="#m3328b0a304" x="495.099741" y="59.040413" style="fill: #1f77b4; stroke: #1f77b4"/>
     <use xlink:href="#m3328b0a304" x="508.153557" y="59.018039" style="fill: #1f77b4; stroke: #1f77b4"/>
     <use xlink:href="#m3328b0a304" x="521.207373" y="59.002375" style="fill: #1f77b4; stroke: #1f77b4"/>
     <use xlink:href="#m3328b0a304" x="534.261189" y="58.985937" style="fill: #1f77b4; stroke: #1f77b4"/>
     <use xlink:href="#m3328b0a304" x="547.315004" y="58.972481" style="fill: #1f77b4; stroke: #1f77b4"/>
     <use xlink:href="#m3328b0a304" x="560.36882" y="58.962072" style="fill: #1f77b4; stroke: #1f77b4"/>
     <use xlink:href="#m3328b0a304" x="573.422636" y="58.950688" style="fill: #1f77b4; stroke: #1f77b4"/>
     <use xlink:href="#m3328b0a304" x="586.476452" y="58.941538" style="fill: #1f77b4; stroke: #1f77b4"/>
     <use xlink:href="#m3328b0a304" x="599.530268" y="58.934075" style="fill: #1f77b4; stroke: #1f77b4"/>
     <use xlink:href="#m3328b0a304" x="612.584083" y="58.92599" style="fill: #1f77b4; stroke: #1f77b4"/>
     <use xlink:href="#m3328b0a304" x="625.637899" y="58.919315" style="fill: #1f77b4; stroke: #1f77b4"/>
     <use xlink:href="#m3328b0a304" x="638.691715" y="58.913765" style="fill: #1f77b4; stroke: #1f77b4"/>
     <use xlink:href="#m3328b0a304" x="651.745531" y="58.907763" style="fill: #1f77b4; stroke: #1f77b4"/>
     <use xlink:href="#m3328b0a304" x="664.799346" y="58.902642" style="fill: #1f77b4; stroke: #1f77b4"/>
     <use xlink:href="#m3328b0a304" x="677.853162" y="58.898261" style="fill: #1f77b4; stroke: #1f77b4"/>
     <use xlink:href="#m3328b0a304" x="690.906978" y="58.89379" style="fill: #1f77b4; stroke: #1f77b4"/>
     <use xlink:href="#m3328b0a304" x="703.960794" y="58.889704" style="fill: #1f77b4; stroke: #1f77b4"/>
     <use xlink:href="#m3328b0a304" x="717.01461" y="58.886136" style="fill: #1f77b4; stroke: #1f77b4"/>
     <use xlink:href="#m3328b0a304" x="730.068425" y="58.882777" style="fill: #1f77b4; stroke: #1f77b4"/>
     <use xlink:href="#m3328b0a304" x="743.122241" y="58.879397" style="fill: #1f77b4; stroke: #1f77b4"/>
     <use xlink:href="#m3328b0a304" x="756.176057" y="58.876425" style="fill: #1f77b4; stroke: #1f77b4"/>
     <use xlink:href="#m3328b0a304" x="769.229873" y="58.873811" style="fill: #1f77b4; stroke: #1f77b4"/>
     <use xlink:href="#m3328b0a304" x="782.283688" y="58.871022" style="fill: #1f77b4; stroke: #1f77b4"/>
     <use xlink:href="#m3328b0a304" x="795.011159" y="58.868548" style="fill: #1f77b4; stroke: #1f77b4"/>
    </g>
   </g>
   <g id="line2d_41">
    <path d="M 155.700531 302.501789 
L 168.754347 301.568902 
L 181.808163 300.566578 
L 194.861979 299.480123 
L 207.915794 298.191432 
L 220.96961 296.686586 
L 234.023426 294.862602 
L 247.077242 292.75342 
L 260.131058 290.049062 
L 273.184873 286.886623 
L 286.238689 282.490555 
L 299.292505 275.793844 
L 312.346321 267.566504 
L 325.400136 252.820844 
L 338.453952 207.80434 
L 351.507768 67.669646 
L 364.561584 62.319804 
L 377.615399 60.747039 
L 390.669215 60.005469 
L 403.723031 59.546971 
L 416.776847 59.255803 
L 429.830663 59.052347 
L 442.884478 58.906063 
L 455.938294 58.802869 
L 468.99211 58.727341 
L 482.045926 58.670225 
L 495.099741 58.625897 
L 508.153557 58.590353 
L 521.207373 58.561413 
L 534.261189 58.537442 
L 547.315004 58.517166 
L 560.36882 58.499911 
L 573.422636 58.484989 
L 586.476452 58.471957 
L 599.530268 58.460536 
L 612.584083 58.450393 
L 625.637899 58.441331 
L 638.691715 58.433223 
L 651.745531 58.425895 
L 664.799346 58.419234 
L 677.853162 58.413174 
L 690.906978 58.407647 
L 703.960794 58.402546 
L 717.01461 58.397851 
L 730.068425 58.39353 
L 743.122241 58.389501 
L 756.176057 58.385756 
L 769.229873 58.382274 
L 782.283688 58.379025 
L 795.011159 58.376042 
" clip-path="url(#pcf244f473c)" style="fill: none; stroke: #ff7f0e; stroke-width: 3; stroke-linecap: square"/>
    <defs>
     <path id="mc107192b41" d="M 0 3 
C 0.795609 3 1.55874 2.683901 2.12132 2.12132 
C 2.683901 1.55874 3 0.795609 3 0 
C 3 -0.795609 2.683901 -1.55874 2.12132 -2.12132 
C 1.55874 -2.683901 0.795609 -3 0 -3 
C -0.795609 -3 -1.55874 -2.683901 -2.12132 -2.12132 
C -2.683901 -1.55874 -3 -0.795609 -3 0 
C -3 0.795609 -2.683901 1.55874 -2.12132 2.12132 
C -1.55874 2.683901 -0.795609 3 0 3 
z
" style="stroke: #ff7f0e"/>
    </defs>
    <g clip-path="url(#pcf244f473c)">
     <use xlink:href="#mc107192b41" x="155.700531" y="302.501789" style="fill: #ff7f0e; stroke: #ff7f0e"/>
     <use xlink:href="#mc107192b41" x="168.754347" y="301.568902" style="fill: #ff7f0e; stroke: #ff7f0e"/>
     <use xlink:href="#mc107192b41" x="181.808163" y="300.566578" style="fill: #ff7f0e; stroke: #ff7f0e"/>
     <use xlink:href="#mc107192b41" x="194.861979" y="299.480123" style="fill: #ff7f0e; stroke: #ff7f0e"/>
     <use xlink:href="#mc107192b41" x="207.915794" y="298.191432" style="fill: #ff7f0e; stroke: #ff7f0e"/>
     <use xlink:href="#mc107192b41" x="220.96961" y="296.686586" style="fill: #ff7f0e; stroke: #ff7f0e"/>
     <use xlink:href="#mc107192b41" x="234.023426" y="294.862602" style="fill: #ff7f0e; stroke: #ff7f0e"/>
     <use xlink:href="#mc107192b41" x="247.077242" y="292.75342" style="fill: #ff7f0e; stroke: #ff7f0e"/>
     <use xlink:href="#mc107192b41" x="260.131058" y="290.049062" style="fill: #ff7f0e; stroke: #ff7f0e"/>
     <use xlink:href="#mc107192b41" x="273.184873" y="286.886623" style="fill: #ff7f0e; stroke: #ff7f0e"/>
     <use xlink:href="#mc107192b41" x="286.238689" y="282.490555" style="fill: #ff7f0e; stroke: #ff7f0e"/>
     <use xlink:href="#mc107192b41" x="299.292505" y="275.793844" style="fill: #ff7f0e; stroke: #ff7f0e"/>
     <use xlink:href="#mc107192b41" x="312.346321" y="267.566504" style="fill: #ff7f0e; stroke: #ff7f0e"/>
     <use xlink:href="#mc107192b41" x="325.400136" y="252.820844" style="fill: #ff7f0e; stroke: #ff7f0e"/>
     <use xlink:href="#mc107192b41" x="338.453952" y="207.80434" style="fill: #ff7f0e; stroke: #ff7f0e"/>
     <use xlink:href="#mc107192b41" x="351.507768" y="67.669646" style="fill: #ff7f0e; stroke: #ff7f0e"/>
     <use xlink:href="#mc107192b41" x="364.561584" y="62.319804" style="fill: #ff7f0e; stroke: #ff7f0e"/>
     <use xlink:href="#mc107192b41" x="377.615399" y="60.747039" style="fill: #ff7f0e; stroke: #ff7f0e"/>
     <use xlink:href="#mc107192b41" x="390.669215" y="60.005469" style="fill: #ff7f0e; stroke: #ff7f0e"/>
     <use xlink:href="#mc107192b41" x="403.723031" y="59.546971" style="fill: #ff7f0e; stroke: #ff7f0e"/>
     <use xlink:href="#mc107192b41" x="416.776847" y="59.255803" style="fill: #ff7f0e; stroke: #ff7f0e"/>
     <use xlink:href="#mc107192b41" x="429.830663" y="59.052347" style="fill: #ff7f0e; stroke: #ff7f0e"/>
     <use xlink:href="#mc107192b41" x="442.884478" y="58.906063" style="fill: #ff7f0e; stroke: #ff7f0e"/>
     <use xlink:href="#mc107192b41" x="455.938294" y="58.802869" style="fill: #ff7f0e; stroke: #ff7f0e"/>
     <use xlink:href="#mc107192b41" x="468.99211" y="58.727341" style="fill: #ff7f0e; stroke: #ff7f0e"/>
     <use xlink:href="#mc107192b41" x="482.045926" y="58.670225" style="fill: #ff7f0e; stroke: #ff7f0e"/>
     <use xlink:href="#mc107192b41" x="495.099741" y="58.625897" style="fill: #ff7f0e; stroke: #ff7f0e"/>
     <use xlink:href="#mc107192b41" x="508.153557" y="58.590353" style="fill: #ff7f0e; stroke: #ff7f0e"/>
     <use xlink:href="#mc107192b41" x="521.207373" y="58.561413" style="fill: #ff7f0e; stroke: #ff7f0e"/>
     <use xlink:href="#mc107192b41" x="534.261189" y="58.537442" style="fill: #ff7f0e; stroke: #ff7f0e"/>
     <use xlink:href="#mc107192b41" x="547.315004" y="58.517166" style="fill: #ff7f0e; stroke: #ff7f0e"/>
     <use xlink:href="#mc107192b41" x="560.36882" y="58.499911" style="fill: #ff7f0e; stroke: #ff7f0e"/>
     <use xlink:href="#mc107192b41" x="573.422636" y="58.484989" style="fill: #ff7f0e; stroke: #ff7f0e"/>
     <use xlink:href="#mc107192b41" x="586.476452" y="58.471957" style="fill: #ff7f0e; stroke: #ff7f0e"/>
     <use xlink:href="#mc107192b41" x="599.530268" y="58.460536" style="fill: #ff7f0e; stroke: #ff7f0e"/>
     <use xlink:href="#mc107192b41" x="612.584083" y="58.450393" style="fill: #ff7f0e; stroke: #ff7f0e"/>
     <use xlink:href="#mc107192b41" x="625.637899" y="58.441331" style="fill: #ff7f0e; stroke: #ff7f0e"/>
     <use xlink:href="#mc107192b41" x="638.691715" y="58.433223" style="fill: #ff7f0e; stroke: #ff7f0e"/>
     <use xlink:href="#mc107192b41" x="651.745531" y="58.425895" style="fill: #ff7f0e; stroke: #ff7f0e"/>
     <use xlink:href="#mc107192b41" x="664.799346" y="58.419234" style="fill: #ff7f0e; stroke: #ff7f0e"/>
     <use xlink:href="#mc107192b41" x="677.853162" y="58.413174" style="fill: #ff7f0e; stroke: #ff7f0e"/>
     <use xlink:href="#mc107192b41" x="690.906978" y="58.407647" style="fill: #ff7f0e; stroke: #ff7f0e"/>
     <use xlink:href="#mc107192b41" x="703.960794" y="58.402546" style="fill: #ff7f0e; stroke: #ff7f0e"/>
     <use xlink:href="#mc107192b41" x="717.01461" y="58.397851" style="fill: #ff7f0e; stroke: #ff7f0e"/>
     <use xlink:href="#mc107192b41" x="730.068425" y="58.39353" style="fill: #ff7f0e; stroke: #ff7f0e"/>
     <use xlink:href="#mc107192b41" x="743.122241" y="58.389501" style="fill: #ff7f0e; stroke: #ff7f0e"/>
     <use xlink:href="#mc107192b41" x="756.176057" y="58.385756" style="fill: #ff7f0e; stroke: #ff7f0e"/>
     <use xlink:href="#mc107192b41" x="769.229873" y="58.382274" style="fill: #ff7f0e; stroke: #ff7f0e"/>
     <use xlink:href="#mc107192b41" x="782.283688" y="58.379025" style="fill: #ff7f0e; stroke: #ff7f0e"/>
     <use xlink:href="#mc107192b41" x="795.011159" y="58.376042" style="fill: #ff7f0e; stroke: #ff7f0e"/>
    </g>
   </g>
   <g id="line2d_42">
    <path d="M 155.700531 49.059939 
L 168.754347 49.064564 
L 181.808163 49.103085 
L 194.861979 49.09835 
L 207.915794 49.092573 
L 220.96961 49.084296 
L 234.023426 49.07385 
L 247.077242 49.057562 
L 260.131058 49.041477 
L 273.184873 49.219434 
L 286.238689 49.299221 
L 299.292505 49.25236 
L 312.346321 50.009601 
L 325.400136 50.794019 
L 338.453952 53.277306 
L 351.507768 222.606251 
L 364.561584 213.231762 
L 377.615399 236.450627 
L 390.669215 364.102685 
L 403.723031 398.234224 
L 416.776847 397.937555 
L 429.830663 408.379381 
L 442.884478 426.105466 
L 455.938294 447.767988 
L 468.99211 433.132211 
L 482.045926 445.417483 
L 495.099741 449.796935 
L 508.153557 436.59598 
L 521.207373 453.737842 
L 534.261189 447.650741 
L 547.315004 440.188309 
L 560.36882 456.388752 
L 573.422636 448.414046 
L 586.476452 444.390229 
L 599.530268 458.925122 
L 612.584083 449.738722 
L 625.637899 446.527972 
L 638.691715 460.531811 
L 651.745531 455.968751 
L 664.799346 449.887601 
L 677.853162 462.873816 
L 690.906978 459.071723 
L 703.960794 451.820993 
L 717.01461 461.3157 
L 730.068425 465.647323 
L 743.122241 453.664156 
L 756.176057 454.783368 
L 769.229873 468.271023 
L 782.283688 465.514027 
L 795.011159 457.569897 
" clip-path="url(#pcf244f473c)" style="fill: none; stroke: #000000; stroke-width: 3; stroke-linecap: square"/>
    <defs>
     <path id="m96b699fbaa" d="M 0 3 
C 0.795609 3 1.55874 2.683901 2.12132 2.12132 
C 2.683901 1.55874 3 0.795609 3 0 
C 3 -0.795609 2.683901 -1.55874 2.12132 -2.12132 
C 1.55874 -2.683901 0.795609 -3 0 -3 
C -0.795609 -3 -1.55874 -2.683901 -2.12132 -2.12132 
C -2.683901 -1.55874 -3 -0.795609 -3 0 
C -3 0.795609 -2.683901 1.55874 -2.12132 2.12132 
C -1.55874 2.683901 -0.795609 3 0 3 
z
" style="stroke: #000000"/>
    </defs>
    <g clip-path="url(#pcf244f473c)">
     <use xlink:href="#m96b699fbaa" x="155.700531" y="49.059939" style="stroke: #000000"/>
     <use xlink:href="#m96b699fbaa" x="168.754347" y="49.064564" style="stroke: #000000"/>
     <use xlink:href="#m96b699fbaa" x="181.808163" y="49.103085" style="stroke: #000000"/>
     <use xlink:href="#m96b699fbaa" x="194.861979" y="49.09835" style="stroke: #000000"/>
     <use xlink:href="#m96b699fbaa" x="207.915794" y="49.092573" style="stroke: #000000"/>
     <use xlink:href="#m96b699fbaa" x="220.96961" y="49.084296" style="stroke: #000000"/>
     <use xlink:href="#m96b699fbaa" x="234.023426" y="49.07385" style="stroke: #000000"/>
     <use xlink:href="#m96b699fbaa" x="247.077242" y="49.057562" style="stroke: #000000"/>
     <use xlink:href="#m96b699fbaa" x="260.131058" y="49.041477" style="stroke: #000000"/>
     <use xlink:href="#m96b699fbaa" x="273.184873" y="49.219434" style="stroke: #000000"/>
     <use xlink:href="#m96b699fbaa" x="286.238689" y="49.299221" style="stroke: #000000"/>
     <use xlink:href="#m96b699fbaa" x="299.292505" y="49.25236" style="stroke: #000000"/>
     <use xlink:href="#m96b699fbaa" x="312.346321" y="50.009601" style="stroke: #000000"/>
     <use xlink:href="#m96b699fbaa" x="325.400136" y="50.794019" style="stroke: #000000"/>
     <use xlink:href="#m96b699fbaa" x="338.453952" y="53.277306" style="stroke: #000000"/>
     <use xlink:href="#m96b699fbaa" x="351.507768" y="222.606251" style="stroke: #000000"/>
     <use xlink:href="#m96b699fbaa" x="364.561584" y="213.231762" style="stroke: #000000"/>
     <use xlink:href="#m96b699fbaa" x="377.615399" y="236.450627" style="stroke: #000000"/>
     <use xlink:href="#m96b699fbaa" x="390.669215" y="364.102685" style="stroke: #000000"/>
     <use xlink:href="#m96b699fbaa" x="403.723031" y="398.234224" style="stroke: #000000"/>
     <use xlink:href="#m96b699fbaa" x="416.776847" y="397.937555" style="stroke: #000000"/>
     <use xlink:href="#m96b699fbaa" x="429.830663" y="408.379381" style="stroke: #000000"/>
     <use xlink:href="#m96b699fbaa" x="442.884478" y="426.105466" style="stroke: #000000"/>
     <use xlink:href="#m96b699fbaa" x="455.938294" y="447.767988" style="stroke: #000000"/>
     <use xlink:href="#m96b699fbaa" x="468.99211" y="433.132211" style="stroke: #000000"/>
     <use xlink:href="#m96b699fbaa" x="482.045926" y="445.417483" style="stroke: #000000"/>
     <use xlink:href="#m96b699fbaa" x="495.099741" y="449.796935" style="stroke: #000000"/>
     <use xlink:href="#m96b699fbaa" x="508.153557" y="436.59598" style="stroke: #000000"/>
     <use xlink:href="#m96b699fbaa" x="521.207373" y="453.737842" style="stroke: #000000"/>
     <use xlink:href="#m96b699fbaa" x="534.261189" y="447.650741" style="stroke: #000000"/>
     <use xlink:href="#m96b699fbaa" x="547.315004" y="440.188309" style="stroke: #000000"/>
     <use xlink:href="#m96b699fbaa" x="560.36882" y="456.388752" style="stroke: #000000"/>
     <use xlink:href="#m96b699fbaa" x="573.422636" y="448.414046" style="stroke: #000000"/>
     <use xlink:href="#m96b699fbaa" x="586.476452" y="444.390229" style="stroke: #000000"/>
     <use xlink:href="#m96b699fbaa" x="599.530268" y="458.925122" style="stroke: #000000"/>
     <use xlink:href="#m96b699fbaa" x="612.584083" y="449.738722" style="stroke: #000000"/>
     <use xlink:href="#m96b699fbaa" x="625.637899" y="446.527972" style="stroke: #000000"/>
     <use xlink:href="#m96b699fbaa" x="638.691715" y="460.531811" style="stroke: #000000"/>
     <use xlink:href="#m96b699fbaa" x="651.745531" y="455.968751" style="stroke: #000000"/>
     <use xlink:href="#m96b699fbaa" x="664.799346" y="449.887601" style="stroke: #000000"/>
     <use xlink:href="#m96b699fbaa" x="677.853162" y="462.873816" style="stroke: #000000"/>
     <use xlink:href="#m96b699fbaa" x="690.906978" y="459.071723" style="stroke: #000000"/>
     <use xlink:href="#m96b699fbaa" x="703.960794" y="451.820993" style="stroke: #000000"/>
     <use xlink:href="#m96b699fbaa" x="717.01461" y="461.3157" style="stroke: #000000"/>
     <use xlink:href="#m96b699fbaa" x="730.068425" y="465.647323" style="stroke: #000000"/>
     <use xlink:href="#m96b699fbaa" x="743.122241" y="453.664156" style="stroke: #000000"/>
     <use xlink:href="#m96b699fbaa" x="756.176057" y="454.783368" style="stroke: #000000"/>
     <use xlink:href="#m96b699fbaa" x="769.229873" y="468.271023" style="stroke: #000000"/>
     <use xlink:href="#m96b699fbaa" x="782.283688" y="465.514027" style="stroke: #000000"/>
     <use xlink:href="#m96b699fbaa" x="795.011159" y="457.569897" style="stroke: #000000"/>
    </g>
   </g>
   <g id="patch_3">
    <path d="M 123.735 489.2325 
L 123.735 28.08 
" style="fill: none; stroke: #000000; stroke-width: 2; stroke-linejoin: miter; stroke-linecap: square"/>
   </g>
   <g id="patch_4">
    <path d="M 826.97669 489.2325 
L 826.97669 28.08 
" style="fill: none; stroke: #000000; stroke-width: 2; stroke-linejoin: miter; stroke-linecap: square"/>
   </g>
   <g id="patch_5">
    <path d="M 123.735 489.2325 
L 826.97669 489.2325 
" style="fill: none; stroke: #000000; stroke-width: 2; stroke-linejoin: miter; stroke-linecap: square"/>
   </g>
   <g id="patch_6">
    <path d="M 123.735 28.08 
L 826.97669 28.08 
" style="fill: none; stroke: #000000; stroke-width: 2; stroke-linejoin: miter; stroke-linecap: square"/>
   </g>
   <g id="legend_1">
    <g id="patch_7">
     <path d="M 134.935 481.2325 
L 273.4325 481.2325 
Q 276.6325 481.2325 276.6325 478.0325 
L 276.6325 409.1775 
Q 276.6325 405.9775 273.4325 405.9775 
L 134.935 405.9775 
Q 131.735 405.9775 131.735 409.1775 
L 131.735 478.0325 
Q 131.735 481.2325 134.935 481.2325 
z
" style="fill: #ffffff; opacity: 0.8; stroke: #cccccc; stroke-linejoin: miter"/>
    </g>
    <g id="line2d_43">
     <path d="M 138.135 418.935 
L 154.135 418.935 
L 170.135 418.935 
" style="fill: none; stroke: #1f77b4; stroke-width: 3; stroke-linecap: square"/>
     <g>
      <use xlink:href="#m3328b0a304" x="154.135" y="418.935" style="fill: #1f77b4; stroke: #1f77b4"/>
     </g>
    </g>
    <g id="text_16">
     <!-- Electron 1 -->
     <g transform="translate(182.935 424.535) scale(0.16 -0.16)">
      <defs>
       <path id="DejaVuSerif-45" d="M 353 0 
L 353 331 
L 947 331 
L 947 4331 
L 353 4331 
L 353 4666 
L 4109 4666 
L 4109 3628 
L 3725 3628 
L 3725 4281 
L 1581 4281 
L 1581 2719 
L 3109 2719 
L 3109 3303 
L 3494 3303 
L 3494 1753 
L 3109 1753 
L 3109 2338 
L 1581 2338 
L 1581 384 
L 3775 384 
L 3775 1038 
L 4159 1038 
L 4159 0 
L 353 0 
z
" transform="scale(0.015625)"/>
       <path id="DejaVuSerif-6f" d="M 1925 219 
Q 2388 219 2623 584 
Q 2859 950 2859 1663 
Q 2859 2375 2623 2739 
Q 2388 3103 1925 3103 
Q 1463 3103 1227 2739 
Q 991 2375 991 1663 
Q 991 950 1228 584 
Q 1466 219 1925 219 
z
M 1925 -91 
Q 1200 -91 759 389 
Q 319 869 319 1663 
Q 319 2456 758 2934 
Q 1197 3413 1925 3413 
Q 2653 3413 3092 2934 
Q 3531 2456 3531 1663 
Q 3531 869 3092 389 
Q 2653 -91 1925 -91 
z
" transform="scale(0.015625)"/>
      </defs>
      <use xlink:href="#DejaVuSerif-45"/>
      <use xlink:href="#DejaVuSerif-6c" x="72.998047"/>
      <use xlink:href="#DejaVuSerif-65" x="104.980469"/>
      <use xlink:href="#DejaVuSerif-63" x="164.160156"/>
      <use xlink:href="#DejaVuSerif-74" x="220.166016"/>
      <use xlink:href="#DejaVuSerif-72" x="260.351562"/>
      <use xlink:href="#DejaVuSerif-6f" x="308.154297"/>
      <use xlink:href="#DejaVuSerif-6e" x="368.359375"/>
      <use xlink:href="#DejaVuSerif-20" x="432.763672"/>
      <use xlink:href="#DejaVuSerif-31" x="464.550781"/>
     </g>
    </g>
    <g id="line2d_44">
     <path d="M 138.135 442.42 
L 154.135 442.42 
L 170.135 442.42 
" style="fill: none; stroke: #ff7f0e; stroke-width: 3; stroke-linecap: square"/>
     <g>
      <use xlink:href="#mc107192b41" x="154.135" y="442.42" style="fill: #ff7f0e; stroke: #ff7f0e"/>
     </g>
    </g>
    <g id="text_17">
     <!-- Electron 2 -->
     <g transform="translate(182.935 448.02) scale(0.16 -0.16)">
      <use xlink:href="#DejaVuSerif-45"/>
      <use xlink:href="#DejaVuSerif-6c" x="72.998047"/>
      <use xlink:href="#DejaVuSerif-65" x="104.980469"/>
      <use xlink:href="#DejaVuSerif-63" x="164.160156"/>
      <use xlink:href="#DejaVuSerif-74" x="220.166016"/>
      <use xlink:href="#DejaVuSerif-72" x="260.351562"/>
      <use xlink:href="#DejaVuSerif-6f" x="308.154297"/>
      <use xlink:href="#DejaVuSerif-6e" x="368.359375"/>
      <use xlink:href="#DejaVuSerif-20" x="432.763672"/>
      <use xlink:href="#DejaVuSerif-32" x="464.550781"/>
     </g>
    </g>
    <g id="line2d_45">
     <path d="M 138.135 465.905 
L 154.135 465.905 
L 170.135 465.905 
" style="fill: none; stroke: #000000; stroke-width: 3; stroke-linecap: square"/>
     <g>
      <use xlink:href="#m96b699fbaa" x="154.135" y="465.905" style="stroke: #000000"/>
     </g>
    </g>
    <g id="text_18">
     <!-- Antiproton -->
     <g transform="translate(182.935 471.505) scale(0.16 -0.16)">
      <defs>
       <path id="DejaVuSerif-41" d="M 1281 1691 
L 2994 1691 
L 2138 3909 
L 1281 1691 
z
M -38 0 
L -38 331 
L 372 331 
L 2034 4666 
L 2559 4666 
L 4225 331 
L 4684 331 
L 4684 0 
L 2988 0 
L 2988 331 
L 3506 331 
L 3116 1356 
L 1153 1356 
L 763 331 
L 1275 331 
L 1275 0 
L -38 0 
z
" transform="scale(0.015625)"/>
       <path id="DejaVuSerif-70" d="M 1313 1825 
L 1313 1497 
Q 1313 897 1542 583 
Q 1772 269 2209 269 
Q 2650 269 2876 622 
Q 3103 975 3103 1663 
Q 3103 2353 2876 2703 
Q 2650 3053 2209 3053 
Q 1772 3053 1542 2737 
Q 1313 2422 1313 1825 
z
M 738 2988 
L 184 2988 
L 184 3322 
L 1313 3322 
L 1313 2803 
Q 1481 3116 1742 3264 
Q 2003 3413 2388 3413 
Q 3000 3413 3387 2928 
Q 3775 2444 3775 1663 
Q 3775 881 3387 395 
Q 3000 -91 2388 -91 
Q 2003 -91 1742 57 
Q 1481 206 1313 519 
L 1313 -997 
L 1856 -997 
L 1856 -1331 
L 184 -1331 
L 184 -997 
L 738 -997 
L 738 2988 
z
" transform="scale(0.015625)"/>
      </defs>
      <use xlink:href="#DejaVuSerif-41"/>
      <use xlink:href="#DejaVuSerif-6e" x="72.216797"/>
      <use xlink:href="#DejaVuSerif-74" x="136.621094"/>
      <use xlink:href="#DejaVuSerif-69" x="176.806641"/>
      <use xlink:href="#DejaVuSerif-70" x="208.789062"/>
      <use xlink:href="#DejaVuSerif-72" x="272.802734"/>
      <use xlink:href="#DejaVuSerif-6f" x="320.605469"/>
      <use xlink:href="#DejaVuSerif-74" x="380.810547"/>
      <use xlink:href="#DejaVuSerif-6f" x="420.996094"/>
      <use xlink:href="#DejaVuSerif-6e" x="481.201172"/>
     </g>
    </g>
   </g>
  </g>
 </g>
 <defs>
  <clipPath id="pcf244f473c">
   <rect x="123.735" y="28.08" width="703.24169" height="461.1525"/>
  </clipPath>
 </defs>
</svg>
