<?xml version="1.0" encoding="utf-8" standalone="no"?>
<!DOCTYPE svg PUBLIC "-//W3C//DTD SVG 1.1//EN"
  "http://www.w3.org/Graphics/SVG/1.1/DTD/svg11.dtd">
<svg xmlns:xlink="http://www.w3.org/1999/xlink" width="864pt" height="576pt" viewBox="0 0 864 576" xmlns="http://www.w3.org/2000/svg" version="1.1">
 <metadata>
  <rdf:RDF xmlns:dc="http://purl.org/dc/elements/1.1/" xmlns:cc="http://creativecommons.org/ns#" xmlns:rdf="http://www.w3.org/1999/02/22-rdf-syntax-ns#">
   <cc:Work>
    <dc:type rdf:resource="http://purl.org/dc/dcmitype/StillImage"/>
    <dc:date>2025-06-10T14:06:09.603959</dc:date>
    <dc:format>image/svg+xml</dc:format>
    <dc:creator>
     <cc:Agent>
      <dc:title>Matplotlib v3.7.2, https://matplotlib.org/</dc:title>
     </cc:Agent>
    </dc:creator>
   </cc:Work>
  </rdf:RDF>
 </metadata>
 <defs>
  <style type="text/css">*{stroke-linejoin: round; stroke-linecap: butt}</style>
 </defs>
 <g id="figure_1">
  <g id="patch_1">
   <path d="M 0 576 
L 864 576 
L 864 0 
L 0 0 
z
" style="fill: #ffffff"/>
  </g>
  <g id="axes_1">
   <g id="patch_2">
    <path d="M 114.16 489.2325 
L 833.191364 489.2325 
L 833.191364 28.08 
L 114.16 28.08 
z
" style="fill: #ffffff"/>
   </g>
   <g id="matplotlib.axis_1">
    <g id="xtick_1">
     <g id="line2d_1">
      <path d="M 146.843244 489.2325 
L 146.843244 28.08 
" clip-path="url(#pb60f0672cb)" style="fill: none; stroke-dasharray: 3.7,1.6; stroke-dashoffset: 0; stroke: #b0b0b0; stroke-opacity: 0.5"/>
     </g>
     <g id="line2d_2">
      <defs>
       <path id="md3adcfe0b3" d="M 0 0 
L 0 -10 
" style="stroke: #000000; stroke-width: 2"/>
      </defs>
      <g>
       <use xlink:href="#md3adcfe0b3" x="146.843244" y="489.2325" style="stroke: #000000; stroke-width: 2"/>
      </g>
     </g>
     <g id="line2d_3">
      <defs>
       <path id="meb7d211a3c" d="M 0 0 
L 0 10 
" style="stroke: #000000; stroke-width: 2"/>
      </defs>
      <g>
       <use xlink:href="#meb7d211a3c" x="146.843244" y="28.08" style="stroke: #000000; stroke-width: 2"/>
      </g>
     </g>
     <g id="text_1">
      <!-- 0 -->
      <g transform="translate(138.571994 512.488438) scale(0.26 -0.26)">
       <defs>
        <path id="DejaVuSerif-30" d="M 2034 219 
Q 2513 219 2750 744 
Q 2988 1269 2988 2328 
Q 2988 3391 2750 3916 
Q 2513 4441 2034 4441 
Q 1556 4441 1318 3916 
Q 1081 3391 1081 2328 
Q 1081 1269 1318 744 
Q 1556 219 2034 219 
z
M 2034 -91 
Q 1275 -91 848 546 
Q 422 1184 422 2328 
Q 422 3475 848 4112 
Q 1275 4750 2034 4750 
Q 2797 4750 3222 4112 
Q 3647 3475 3647 2328 
Q 3647 1184 3222 546 
Q 2797 -91 2034 -91 
z
" transform="scale(0.015625)"/>
       </defs>
       <use xlink:href="#DejaVuSerif-30"/>
      </g>
     </g>
    </g>
    <g id="xtick_2">
     <g id="line2d_4">
      <path d="M 277.576219 489.2325 
L 277.576219 28.08 
" clip-path="url(#pb60f0672cb)" style="fill: none; stroke-dasharray: 3.7,1.6; stroke-dashoffset: 0; stroke: #b0b0b0; stroke-opacity: 0.5"/>
     </g>
     <g id="line2d_5">
      <g>
       <use xlink:href="#md3adcfe0b3" x="277.576219" y="489.2325" style="stroke: #000000; stroke-width: 2"/>
      </g>
     </g>
     <g id="line2d_6">
      <g>
       <use xlink:href="#meb7d211a3c" x="277.576219" y="28.08" style="stroke: #000000; stroke-width: 2"/>
      </g>
     </g>
     <g id="text_2">
      <!-- 500 -->
      <g transform="translate(252.762469 512.488438) scale(0.26 -0.26)">
       <defs>
        <path id="DejaVuSerif-35" d="M 3219 4666 
L 3219 4153 
L 1081 4153 
L 1081 2816 
Q 1244 2928 1461 2984 
Q 1678 3041 1947 3041 
Q 2703 3041 3140 2622 
Q 3578 2203 3578 1478 
Q 3578 738 3136 323 
Q 2694 -91 1894 -91 
Q 1572 -91 1234 -12 
Q 897 66 544 225 
L 544 1131 
L 897 1131 
Q 925 688 1179 453 
Q 1434 219 1894 219 
Q 2388 219 2653 544 
Q 2919 869 2919 1478 
Q 2919 2084 2655 2407 
Q 2391 2731 1894 2731 
Q 1613 2731 1398 2631 
Q 1184 2531 1019 2322 
L 750 2322 
L 750 4666 
L 3219 4666 
z
" transform="scale(0.015625)"/>
       </defs>
       <use xlink:href="#DejaVuSerif-35"/>
       <use xlink:href="#DejaVuSerif-30" x="63.623047"/>
       <use xlink:href="#DejaVuSerif-30" x="127.246094"/>
      </g>
     </g>
    </g>
    <g id="xtick_3">
     <g id="line2d_7">
      <path d="M 408.309194 489.2325 
L 408.309194 28.08 
" clip-path="url(#pb60f0672cb)" style="fill: none; stroke-dasharray: 3.7,1.6; stroke-dashoffset: 0; stroke: #b0b0b0; stroke-opacity: 0.5"/>
     </g>
     <g id="line2d_8">
      <g>
       <use xlink:href="#md3adcfe0b3" x="408.309194" y="489.2325" style="stroke: #000000; stroke-width: 2"/>
      </g>
     </g>
     <g id="line2d_9">
      <g>
       <use xlink:href="#meb7d211a3c" x="408.309194" y="28.08" style="stroke: #000000; stroke-width: 2"/>
      </g>
     </g>
     <g id="text_3">
      <!-- 1000 -->
      <g transform="translate(375.224194 512.488438) scale(0.26 -0.26)">
       <defs>
        <path id="DejaVuSerif-31" d="M 909 0 
L 909 331 
L 1722 331 
L 1722 4213 
L 781 3603 
L 781 4013 
L 1919 4750 
L 2350 4750 
L 2350 331 
L 3163 331 
L 3163 0 
L 909 0 
z
" transform="scale(0.015625)"/>
       </defs>
       <use xlink:href="#DejaVuSerif-31"/>
       <use xlink:href="#DejaVuSerif-30" x="63.623047"/>
       <use xlink:href="#DejaVuSerif-30" x="127.246094"/>
       <use xlink:href="#DejaVuSerif-30" x="190.869141"/>
      </g>
     </g>
    </g>
    <g id="xtick_4">
     <g id="line2d_10">
      <path d="M 539.042169 489.2325 
L 539.042169 28.08 
" clip-path="url(#pb60f0672cb)" style="fill: none; stroke-dasharray: 3.7,1.6; stroke-dashoffset: 0; stroke: #b0b0b0; stroke-opacity: 0.5"/>
     </g>
     <g id="line2d_11">
      <g>
       <use xlink:href="#md3adcfe0b3" x="539.042169" y="489.2325" style="stroke: #000000; stroke-width: 2"/>
      </g>
     </g>
     <g id="line2d_12">
      <g>
       <use xlink:href="#meb7d211a3c" x="539.042169" y="28.08" style="stroke: #000000; stroke-width: 2"/>
      </g>
     </g>
     <g id="text_4">
      <!-- 1500 -->
      <g transform="translate(505.957169 512.488438) scale(0.26 -0.26)">
       <use xlink:href="#DejaVuSerif-31"/>
       <use xlink:href="#DejaVuSerif-35" x="63.623047"/>
       <use xlink:href="#DejaVuSerif-30" x="127.246094"/>
       <use xlink:href="#DejaVuSerif-30" x="190.869141"/>
      </g>
     </g>
    </g>
    <g id="xtick_5">
     <g id="line2d_13">
      <path d="M 669.775145 489.2325 
L 669.775145 28.08 
" clip-path="url(#pb60f0672cb)" style="fill: none; stroke-dasharray: 3.7,1.6; stroke-dashoffset: 0; stroke: #b0b0b0; stroke-opacity: 0.5"/>
     </g>
     <g id="line2d_14">
      <g>
       <use xlink:href="#md3adcfe0b3" x="669.775145" y="489.2325" style="stroke: #000000; stroke-width: 2"/>
      </g>
     </g>
     <g id="line2d_15">
      <g>
       <use xlink:href="#meb7d211a3c" x="669.775145" y="28.08" style="stroke: #000000; stroke-width: 2"/>
      </g>
     </g>
     <g id="text_5">
      <!-- 2000 -->
      <g transform="translate(636.690145 512.488438) scale(0.26 -0.26)">
       <defs>
        <path id="DejaVuSerif-32" d="M 819 3553 
L 469 3553 
L 469 4384 
Q 803 4563 1142 4656 
Q 1481 4750 1806 4750 
Q 2534 4750 2956 4397 
Q 3378 4044 3378 3438 
Q 3378 2753 2422 1800 
Q 2347 1728 2309 1691 
L 1131 513 
L 3078 513 
L 3078 1088 
L 3444 1088 
L 3444 0 
L 434 0 
L 434 341 
L 1850 1753 
Q 2319 2222 2519 2614 
Q 2719 3006 2719 3438 
Q 2719 3909 2473 4175 
Q 2228 4441 1797 4441 
Q 1350 4441 1106 4219 
Q 863 3997 819 3553 
z
" transform="scale(0.015625)"/>
       </defs>
       <use xlink:href="#DejaVuSerif-32"/>
       <use xlink:href="#DejaVuSerif-30" x="63.623047"/>
       <use xlink:href="#DejaVuSerif-30" x="127.246094"/>
       <use xlink:href="#DejaVuSerif-30" x="190.869141"/>
      </g>
     </g>
    </g>
    <g id="xtick_6">
     <g id="line2d_16">
      <path d="M 800.50812 489.2325 
L 800.50812 28.08 
" clip-path="url(#pb60f0672cb)" style="fill: none; stroke-dasharray: 3.7,1.6; stroke-dashoffset: 0; stroke: #b0b0b0; stroke-opacity: 0.5"/>
     </g>
     <g id="line2d_17">
      <g>
       <use xlink:href="#md3adcfe0b3" x="800.50812" y="489.2325" style="stroke: #000000; stroke-width: 2"/>
      </g>
     </g>
     <g id="line2d_18">
      <g>
       <use xlink:href="#meb7d211a3c" x="800.50812" y="28.08" style="stroke: #000000; stroke-width: 2"/>
      </g>
     </g>
     <g id="text_6">
      <!-- 2500 -->
      <g transform="translate(767.42312 512.488438) scale(0.26 -0.26)">
       <use xlink:href="#DejaVuSerif-32"/>
       <use xlink:href="#DejaVuSerif-35" x="63.623047"/>
       <use xlink:href="#DejaVuSerif-30" x="127.246094"/>
       <use xlink:href="#DejaVuSerif-30" x="190.869141"/>
      </g>
     </g>
    </g>
    <g id="text_7">
     <!-- $t$ (a.u.) -->
     <g transform="translate(430.255682 541.651562) scale(0.26 -0.26)">
      <defs>
       <path id="Cmmi10-74" d="M 397 519 
Q 397 613 416 697 
L 878 2534 
L 206 2534 
Q 141 2534 141 2619 
Q 166 2759 225 2759 
L 934 2759 
L 1191 3803 
Q 1216 3888 1291 3947 
Q 1366 4006 1459 4006 
Q 1541 4006 1595 3957 
Q 1650 3909 1650 3828 
Q 1650 3809 1648 3798 
Q 1647 3788 1644 3775 
L 1388 2759 
L 2047 2759 
Q 2113 2759 2113 2675 
Q 2109 2659 2100 2621 
Q 2091 2584 2075 2559 
Q 2059 2534 2028 2534 
L 1331 2534 
L 872 684 
Q 825 503 825 372 
Q 825 97 1013 97 
Q 1294 97 1511 361 
Q 1728 625 1844 941 
Q 1869 978 1894 978 
L 1972 978 
Q 1997 978 2012 961 
Q 2028 944 2028 922 
Q 2028 909 2022 903 
Q 1881 516 1612 222 
Q 1344 -72 997 -72 
Q 744 -72 570 93 
Q 397 259 397 519 
z
" transform="scale(0.015625)"/>
       <path id="DejaVuSerif-20" transform="scale(0.015625)"/>
       <path id="DejaVuSerif-28" d="M 2041 -997 
Q 1281 -656 893 83 
Q 506 822 506 1931 
Q 506 3044 893 3783 
Q 1281 4522 2041 4863 
L 2041 4556 
Q 1559 4225 1350 3623 
Q 1141 3022 1141 1931 
Q 1141 844 1350 242 
Q 1559 -359 2041 -691 
L 2041 -997 
z
" transform="scale(0.015625)"/>
       <path id="DejaVuSerif-61" d="M 2547 1044 
L 2547 1747 
L 1806 1747 
Q 1378 1747 1168 1562 
Q 959 1378 959 997 
Q 959 650 1171 447 
Q 1384 244 1747 244 
Q 2106 244 2326 466 
Q 2547 688 2547 1044 
z
M 3122 2075 
L 3122 331 
L 3634 331 
L 3634 0 
L 2547 0 
L 2547 359 
Q 2356 128 2106 18 
Q 1856 -91 1522 -91 
Q 969 -91 644 203 
Q 319 497 319 997 
Q 319 1513 691 1797 
Q 1063 2081 1741 2081 
L 2547 2081 
L 2547 2309 
Q 2547 2688 2317 2895 
Q 2088 3103 1672 3103 
Q 1328 3103 1125 2947 
Q 922 2791 872 2484 
L 575 2484 
L 575 3156 
Q 875 3284 1158 3348 
Q 1441 3413 1709 3413 
Q 2400 3413 2761 3070 
Q 3122 2728 3122 2075 
z
" transform="scale(0.015625)"/>
       <path id="DejaVuSerif-2e" d="M 603 325 
Q 603 500 722 622 
Q 841 744 1019 744 
Q 1191 744 1312 622 
Q 1434 500 1434 325 
Q 1434 153 1312 31 
Q 1191 -91 1019 -91 
Q 841 -91 722 29 
Q 603 150 603 325 
z
" transform="scale(0.015625)"/>
       <path id="DejaVuSerif-75" d="M 2266 3322 
L 3341 3322 
L 3341 331 
L 3884 331 
L 3884 0 
L 2766 0 
L 2766 588 
Q 2606 256 2353 82 
Q 2100 -91 1766 -91 
Q 1213 -91 952 223 
Q 691 538 691 1209 
L 691 2988 
L 172 2988 
L 172 3322 
L 1269 3322 
L 1269 1388 
Q 1269 781 1417 556 
Q 1566 331 1947 331 
Q 2347 331 2556 625 
Q 2766 919 2766 1478 
L 2766 2988 
L 2266 2988 
L 2266 3322 
z
" transform="scale(0.015625)"/>
       <path id="DejaVuSerif-29" d="M 453 -997 
L 453 -691 
Q 934 -359 1145 242 
Q 1356 844 1356 1931 
Q 1356 3022 1145 3623 
Q 934 4225 453 4556 
L 453 4863 
Q 1216 4522 1603 3783 
Q 1991 3044 1991 1931 
Q 1991 822 1603 83 
Q 1216 -656 453 -997 
z
" transform="scale(0.015625)"/>
      </defs>
      <use xlink:href="#Cmmi10-74" transform="translate(0 0.015625)"/>
      <use xlink:href="#DejaVuSerif-20" transform="translate(36.083984 0.015625)"/>
      <use xlink:href="#DejaVuSerif-28" transform="translate(67.871094 0.015625)"/>
      <use xlink:href="#DejaVuSerif-61" transform="translate(106.884766 0.015625)"/>
      <use xlink:href="#DejaVuSerif-2e" transform="translate(166.503906 0.015625)"/>
      <use xlink:href="#DejaVuSerif-75" transform="translate(198.291016 0.015625)"/>
      <use xlink:href="#DejaVuSerif-2e" transform="translate(262.695312 0.015625)"/>
      <use xlink:href="#DejaVuSerif-29" transform="translate(294.482422 0.015625)"/>
     </g>
    </g>
   </g>
   <g id="matplotlib.axis_2">
    <g id="ytick_1">
     <g id="line2d_19">
      <path d="M 114.16 423.30534 
L 833.191364 423.30534 
" clip-path="url(#pb60f0672cb)" style="fill: none; stroke-dasharray: 3.7,1.6; stroke-dashoffset: 0; stroke: #b0b0b0; stroke-opacity: 0.5"/>
     </g>
     <g id="line2d_20">
      <defs>
       <path id="mf41344d65f" d="M 0 0 
L 10 0 
" style="stroke: #000000; stroke-width: 2"/>
      </defs>
      <g>
       <use xlink:href="#mf41344d65f" x="114.16" y="423.30534" style="stroke: #000000; stroke-width: 2"/>
      </g>
     </g>
     <g id="line2d_21">
      <defs>
       <path id="mb9c635c04b" d="M 0 0 
L -10 0 
" style="stroke: #000000; stroke-width: 2"/>
      </defs>
      <g>
       <use xlink:href="#mb9c635c04b" x="833.191364" y="423.30534" style="stroke: #000000; stroke-width: 2"/>
      </g>
     </g>
     <g id="text_8">
      <!-- 1 -->
      <g transform="translate(94.1175 433.183308) scale(0.26 -0.26)">
       <use xlink:href="#DejaVuSerif-31"/>
      </g>
     </g>
    </g>
    <g id="ytick_2">
     <g id="line2d_22">
      <path d="M 114.16 338.342567 
L 833.191364 338.342567 
" clip-path="url(#pb60f0672cb)" style="fill: none; stroke-dasharray: 3.7,1.6; stroke-dashoffset: 0; stroke: #b0b0b0; stroke-opacity: 0.5"/>
     </g>
     <g id="line2d_23">
      <g>
       <use xlink:href="#mf41344d65f" x="114.16" y="338.342567" style="stroke: #000000; stroke-width: 2"/>
      </g>
     </g>
     <g id="line2d_24">
      <g>
       <use xlink:href="#mb9c635c04b" x="833.191364" y="338.342567" style="stroke: #000000; stroke-width: 2"/>
      </g>
     </g>
     <g id="text_9">
      <!-- 2 -->
      <g transform="translate(94.1175 348.220536) scale(0.26 -0.26)">
       <use xlink:href="#DejaVuSerif-32"/>
      </g>
     </g>
    </g>
    <g id="ytick_3">
     <g id="line2d_25">
      <path d="M 114.16 253.379795 
L 833.191364 253.379795 
" clip-path="url(#pb60f0672cb)" style="fill: none; stroke-dasharray: 3.7,1.6; stroke-dashoffset: 0; stroke: #b0b0b0; stroke-opacity: 0.5"/>
     </g>
     <g id="line2d_26">
      <g>
       <use xlink:href="#mf41344d65f" x="114.16" y="253.379795" style="stroke: #000000; stroke-width: 2"/>
      </g>
     </g>
     <g id="line2d_27">
      <g>
       <use xlink:href="#mb9c635c04b" x="833.191364" y="253.379795" style="stroke: #000000; stroke-width: 2"/>
      </g>
     </g>
     <g id="text_10">
      <!-- 3 -->
      <g transform="translate(94.1175 263.257764) scale(0.26 -0.26)">
       <defs>
        <path id="DejaVuSerif-33" d="M 622 4469 
Q 988 4606 1323 4678 
Q 1659 4750 1953 4750 
Q 2638 4750 3022 4454 
Q 3406 4159 3406 3634 
Q 3406 3213 3140 2930 
Q 2875 2647 2388 2547 
Q 2963 2466 3280 2130 
Q 3597 1794 3597 1259 
Q 3597 606 3158 257 
Q 2719 -91 1894 -91 
Q 1528 -91 1179 -12 
Q 831 66 488 225 
L 488 1131 
L 838 1131 
Q 869 681 1141 450 
Q 1413 219 1906 219 
Q 2384 219 2661 495 
Q 2938 772 2938 1253 
Q 2938 1803 2653 2086 
Q 2369 2369 1819 2369 
L 1522 2369 
L 1522 2688 
L 1678 2688 
Q 2225 2688 2498 2914 
Q 2772 3141 2772 3597 
Q 2772 4006 2547 4223 
Q 2322 4441 1900 4441 
Q 1478 4441 1245 4241 
Q 1013 4041 972 3647 
L 622 3647 
L 622 4469 
z
" transform="scale(0.015625)"/>
       </defs>
       <use xlink:href="#DejaVuSerif-33"/>
      </g>
     </g>
    </g>
    <g id="ytick_4">
     <g id="line2d_28">
      <path d="M 114.16 168.417023 
L 833.191364 168.417023 
" clip-path="url(#pb60f0672cb)" style="fill: none; stroke-dasharray: 3.7,1.6; stroke-dashoffset: 0; stroke: #b0b0b0; stroke-opacity: 0.5"/>
     </g>
     <g id="line2d_29">
      <g>
       <use xlink:href="#mf41344d65f" x="114.16" y="168.417023" style="stroke: #000000; stroke-width: 2"/>
      </g>
     </g>
     <g id="line2d_30">
      <g>
       <use xlink:href="#mb9c635c04b" x="833.191364" y="168.417023" style="stroke: #000000; stroke-width: 2"/>
      </g>
     </g>
     <g id="text_11">
      <!-- 4 -->
      <g transform="translate(94.1175 178.294991) scale(0.26 -0.26)">
       <defs>
        <path id="DejaVuSerif-34" d="M 2234 1581 
L 2234 4063 
L 641 1581 
L 2234 1581 
z
M 3609 0 
L 1484 0 
L 1484 331 
L 2234 331 
L 2234 1247 
L 197 1247 
L 197 1588 
L 2241 4750 
L 2859 4750 
L 2859 1581 
L 3750 1581 
L 3750 1247 
L 2859 1247 
L 2859 331 
L 3609 331 
L 3609 0 
z
" transform="scale(0.015625)"/>
       </defs>
       <use xlink:href="#DejaVuSerif-34"/>
      </g>
     </g>
    </g>
    <g id="ytick_5">
     <g id="line2d_31">
      <path d="M 114.16 83.45425 
L 833.191364 83.45425 
" clip-path="url(#pb60f0672cb)" style="fill: none; stroke-dasharray: 3.7,1.6; stroke-dashoffset: 0; stroke: #b0b0b0; stroke-opacity: 0.5"/>
     </g>
     <g id="line2d_32">
      <g>
       <use xlink:href="#mf41344d65f" x="114.16" y="83.45425" style="stroke: #000000; stroke-width: 2"/>
      </g>
     </g>
     <g id="line2d_33">
      <g>
       <use xlink:href="#mb9c635c04b" x="833.191364" y="83.45425" style="stroke: #000000; stroke-width: 2"/>
      </g>
     </g>
     <g id="text_12">
      <!-- 5 -->
      <g transform="translate(94.1175 93.332219) scale(0.26 -0.26)">
       <use xlink:href="#DejaVuSerif-35"/>
      </g>
     </g>
    </g>
    <g id="text_13">
     <!-- $|\vec{p}_i|$ (a.u.) -->
     <g transform="translate(83.6175 315.72625) rotate(-90) scale(0.26 -0.26)">
      <defs>
       <path id="Cmsy10-6a" d="M 763 -1484 
L 763 4684 
Q 763 4734 800 4767 
Q 838 4800 891 4800 
Q 938 4800 978 4767 
Q 1019 4734 1019 4684 
L 1019 -1484 
Q 1019 -1534 978 -1567 
Q 938 -1600 891 -1600 
Q 838 -1600 800 -1567 
Q 763 -1534 763 -1484 
z
" transform="scale(0.015625)"/>
       <path id="Cmmi10-7e" d="M 1281 3809 
Q 1231 3809 1198 3846 
Q 1166 3884 1166 3938 
Q 1166 3984 1198 4023 
Q 1231 4063 1281 4063 
L 3547 4063 
Q 3378 4291 3378 4441 
Q 3378 4497 3417 4533 
Q 3456 4569 3506 4569 
Q 3613 4569 3634 4469 
Q 3697 4194 3938 4044 
Q 4000 4003 4000 3938 
Q 4000 3859 3938 3828 
Q 3575 3647 3353 3347 
Q 3328 3303 3256 3303 
Q 3209 3303 3168 3340 
Q 3128 3378 3128 3431 
Q 3128 3547 3438 3809 
L 1281 3809 
z
" transform="scale(0.015625)"/>
       <path id="Cmmi10-70" d="M -159 -1241 
Q -219 -1241 -219 -1159 
Q -197 -1019 -134 -1019 
Q 66 -1019 145 -983 
Q 225 -947 269 -800 
L 991 2081 
Q 1038 2200 1038 2388 
Q 1038 2663 850 2663 
Q 650 2663 553 2423 
Q 456 2184 366 1819 
Q 366 1778 313 1778 
L 238 1778 
Q 222 1778 203 1801 
Q 184 1825 184 1844 
Q 253 2122 317 2315 
Q 381 2509 517 2668 
Q 653 2828 856 2828 
Q 1075 2828 1240 2704 
Q 1406 2581 1453 2369 
Q 1628 2572 1840 2700 
Q 2053 2828 2278 2828 
Q 2547 2828 2745 2684 
Q 2944 2541 3044 2308 
Q 3144 2075 3144 1806 
Q 3144 1394 2933 953 
Q 2722 513 2361 220 
Q 2000 -72 1588 -72 
Q 1400 -72 1248 34 
Q 1097 141 1013 313 
L 722 -825 
Q 706 -919 703 -934 
Q 703 -1019 1125 -1019 
Q 1191 -1019 1191 -1100 
Q 1169 -1184 1155 -1212 
Q 1141 -1241 1081 -1241 
L -159 -1241 
z
M 1594 97 
Q 1816 97 2006 280 
Q 2197 463 2316 691 
Q 2403 863 2479 1111 
Q 2556 1359 2612 1640 
Q 2669 1922 2669 2088 
Q 2669 2234 2630 2362 
Q 2591 2491 2502 2577 
Q 2413 2663 2266 2663 
Q 2031 2663 1823 2495 
Q 1616 2328 1447 2081 
L 1447 2059 
L 1094 647 
Q 1138 419 1263 258 
Q 1388 97 1594 97 
z
" transform="scale(0.015625)"/>
       <path id="Cmmi10-69" d="M 500 459 
Q 500 578 550 709 
L 1069 2088 
Q 1153 2322 1153 2472 
Q 1153 2663 1013 2663 
Q 759 2663 595 2402 
Q 431 2141 353 1819 
Q 341 1778 300 1778 
L 225 1778 
Q 172 1778 172 1838 
L 172 1856 
Q 275 2238 487 2533 
Q 700 2828 1025 2828 
Q 1253 2828 1411 2678 
Q 1569 2528 1569 2297 
Q 1569 2178 1516 2047 
L 997 672 
Q 909 459 909 288 
Q 909 97 1056 97 
Q 1306 97 1473 364 
Q 1641 631 1709 941 
Q 1722 978 1759 978 
L 1838 978 
Q 1863 978 1878 961 
Q 1894 944 1894 922 
Q 1894 916 1888 903 
Q 1800 541 1583 234 
Q 1366 -72 1044 -72 
Q 819 -72 659 83 
Q 500 238 500 459 
z
M 1222 3878 
Q 1222 4013 1334 4122 
Q 1447 4231 1581 4231 
Q 1691 4231 1761 4164 
Q 1831 4097 1831 3994 
Q 1831 3850 1717 3742 
Q 1603 3634 1466 3634 
Q 1363 3634 1292 3704 
Q 1222 3775 1222 3878 
z
" transform="scale(0.015625)"/>
      </defs>
      <use xlink:href="#Cmsy10-6a" transform="translate(0 0.53125)"/>
      <use xlink:href="#Cmmi10-7e" transform="translate(19.040039 5.609375)"/>
      <use xlink:href="#Cmmi10-70" transform="translate(27.685547 0.53125)"/>
      <use xlink:href="#Cmmi10-69" transform="translate(82.442656 -16.475) scale(0.7)"/>
      <use xlink:href="#Cmsy10-6a" transform="translate(112.91668 0.53125)"/>
      <use xlink:href="#DejaVuSerif-20" transform="translate(140.602227 0.53125)"/>
      <use xlink:href="#DejaVuSerif-28" transform="translate(172.389336 0.53125)"/>
      <use xlink:href="#DejaVuSerif-61" transform="translate(211.403008 0.53125)"/>
      <use xlink:href="#DejaVuSerif-2e" transform="translate(271.022148 0.53125)"/>
      <use xlink:href="#DejaVuSerif-75" transform="translate(302.809258 0.53125)"/>
      <use xlink:href="#DejaVuSerif-2e" transform="translate(367.213555 0.53125)"/>
      <use xlink:href="#DejaVuSerif-29" transform="translate(399.000664 0.53125)"/>
     </g>
    </g>
   </g>
   <g id="line2d_34">
    <path d="M 146.843244 366.501604 
L 148.806201 366.58753 
L 150.769159 367.029645 
L 151.423478 366.774637 
L 152.077797 366.681415 
L 152.732117 367.079555 
L 153.386436 366.758191 
L 154.040755 366.9252 
L 154.695074 366.804484 
L 155.349393 367.1123 
L 156.003713 366.799179 
L 157.96667 367.206931 
L 159.275309 367.255758 
L 160.583947 367.109289 
L 161.238266 367.498937 
L 161.892585 367.262306 
L 163.201224 367.743473 
L 163.855543 367.807417 
L 164.509862 367.710494 
L 165.164181 367.817318 
L 165.8185 368.141033 
L 167.127139 368.134003 
L 167.781458 368.129731 
L 168.435777 367.991305 
L 169.090096 367.97863 
L 169.744416 367.608002 
L 170.398735 367.429062 
L 171.053054 367.50307 
L 171.707373 367.709054 
L 172.361692 367.090378 
L 173.016012 367.564368 
L 173.670331 366.899717 
L 175.633288 367.461764 
L 176.941927 367.342732 
L 178.250565 366.620764 
L 178.904884 366.814253 
L 179.559204 367.334816 
L 180.213523 366.715168 
L 180.867842 366.803027 
L 181.522161 367.170093 
L 182.17648 366.475934 
L 182.8308 367.249228 
L 183.485119 366.415706 
L 184.139438 367.201271 
L 184.793757 366.405559 
L 185.448076 367.121687 
L 186.102396 366.438161 
L 186.756715 366.937279 
L 188.065353 366.464081 
L 188.719672 367.027843 
L 189.373991 366.399264 
L 190.028311 366.222097 
L 190.68263 366.534811 
L 191.336949 366.658452 
L 191.991268 366.565737 
L 193.299907 365.823701 
L 193.954226 366.267079 
L 194.608545 365.542526 
L 196.571503 364.603779 
L 197.225822 364.679207 
L 198.53446 365.987317 
L 199.188779 366.537844 
L 199.843099 366.33949 
L 200.497418 367.264899 
L 202.460375 367.52818 
L 204.423333 368.761477 
L 205.731971 368.916583 
L 206.386291 369.130973 
L 207.04061 369.684873 
L 207.694929 370.472598 
L 208.349248 370.662326 
L 209.003567 371.858248 
L 209.657887 372.529217 
L 210.312206 373.832309 
L 210.966525 374.820955 
L 211.620844 375.39583 
L 212.275163 375.220721 
L 213.583802 374.59998 
L 214.238121 374.481083 
L 214.89244 374.197295 
L 215.546759 374.167221 
L 216.201078 373.999007 
L 216.855398 374.848408 
L 217.509717 377.384707 
L 218.164036 382.110283 
L 218.818355 390.271591 
L 219.472674 403.446566 
L 220.126994 422.721156 
L 220.781313 454.738573 
L 221.435632 469.894732 
L 222.089951 475.939863 
L 222.74427 478.992273 
L 223.39859 480.184935 
L 224.052909 480.696388 
L 224.707228 480.111212 
L 225.361547 479.915395 
L 226.670186 480.611181 
L 228.633143 481.257529 
L 233.867697 481.344764 
L 238.447931 481.473231 
L 267.237976 481.609585 
L 532.23725 481.638236 
L 800.50812 481.638593 
L 800.50812 481.638593 
" clip-path="url(#pb60f0672cb)" style="fill: none; stroke: #1f77b4; stroke-width: 3; stroke-linecap: square"/>
   </g>
   <g id="line2d_35">
    <path d="M 146.843244 366.503491 
L 150.11484 366.46376 
L 152.077797 366.112876 
L 153.386436 366.392821 
L 154.040755 366.593726 
L 154.695074 366.593759 
L 156.003713 366.192176 
L 156.658032 366.189816 
L 157.96667 366.629147 
L 158.620989 366.692112 
L 161.892585 366.247686 
L 165.8185 366.602826 
L 169.090096 366.559436 
L 171.053054 366.649808 
L 180.867842 366.727895 
L 183.485119 366.706462 
L 191.336949 366.589037 
L 195.262864 366.180902 
L 196.571503 366.096383 
L 197.225822 366.195465 
L 198.53446 366.168967 
L 201.151737 366.453361 
L 203.114695 366.89834 
L 206.386291 368.39436 
L 207.04061 368.519792 
L 208.349248 368.310834 
L 210.312206 367.73761 
L 210.966525 367.830256 
L 211.620844 368.093693 
L 212.275163 368.728214 
L 212.929483 369.765253 
L 213.583802 371.20545 
L 215.546759 376.511503 
L 216.855398 382.311553 
L 218.164036 388.843181 
L 218.818355 392.823898 
L 219.472674 397.582137 
L 220.126994 403.695455 
L 220.781313 412.207142 
L 221.435632 425.66503 
L 222.089951 403.424204 
L 222.74427 357.793779 
L 223.39859 389.293401 
L 224.052909 384.691475 
L 224.707228 364.058716 
L 225.361547 338.89019 
L 226.015866 395.226386 
L 226.670186 367.002671 
L 227.324505 373.473085 
L 227.978824 352.296842 
L 228.633143 368.207144 
L 229.287462 357.905695 
L 229.941782 327.70984 
L 230.596101 379.911455 
L 231.25042 355.079472 
L 231.904739 351.334332 
L 232.559058 354.734342 
L 233.213378 351.424109 
L 233.867697 330.321337 
L 234.522016 354.247461 
L 235.176335 346.161601 
L 235.830654 358.112305 
L 236.484974 364.982185 
L 237.139293 348.889495 
L 237.793612 353.288571 
L 238.447931 352.129301 
L 239.10225 347.459674 
L 239.75657 355.633601 
L 240.410889 333.647668 
L 241.065208 343.003703 
L 241.719527 350.197693 
L 242.373846 337.200686 
L 243.028166 352.496612 
L 243.682485 349.858746 
L 244.336804 363.430894 
L 244.991123 327.343175 
L 245.645442 327.635614 
L 246.299761 359.672533 
L 246.954081 362.405815 
L 247.6084 368.820955 
L 248.262719 331.176822 
L 248.917038 362.46594 
L 249.571357 350.043598 
L 250.225677 322.842106 
L 250.879996 372.658283 
L 251.534315 353.320538 
L 252.188634 341.840535 
L 252.842953 372.290825 
L 253.497273 358.905336 
L 254.151592 363.176745 
L 254.805911 372.550897 
L 256.114549 354.515913 
L 257.423188 348.114541 
L 258.077507 346.021084 
L 258.731826 333.987058 
L 259.386145 352.457657 
L 260.040465 351.256717 
L 260.694784 332.650964 
L 261.349103 333.534561 
L 262.003422 353.478515 
L 262.657741 333.788711 
L 263.312061 336.746113 
L 263.96638 347.957376 
L 264.620699 325.863066 
L 265.275018 356.95553 
L 265.929337 364.353974 
L 266.583657 367.890848 
L 267.237976 359.749842 
L 267.892295 361.822554 
L 269.200933 330.605843 
L 269.855253 344.915103 
L 270.509572 352.477404 
L 271.163891 348.017285 
L 271.81821 353.199205 
L 272.472529 352.069527 
L 273.126848 336.944408 
L 273.781168 355.230261 
L 274.435487 351.266601 
L 275.089806 350.660381 
L 275.744125 337.272239 
L 276.398444 338.286103 
L 277.052764 350.212877 
L 277.707083 350.50299 
L 278.361402 359.420127 
L 279.015721 357.190372 
L 279.67004 339.591419 
L 280.32436 333.032994 
L 280.978679 361.494549 
L 281.632998 333.426878 
L 282.287317 363.850338 
L 282.941636 342.987502 
L 283.595956 368.507564 
L 284.250275 348.212698 
L 284.904594 361.945772 
L 285.558913 344.688422 
L 286.213232 346.252224 
L 286.867552 339.244413 
L 287.521871 341.458487 
L 288.17619 351.575094 
L 288.830509 349.159582 
L 289.484828 351.478773 
L 290.139148 344.227604 
L 290.793467 350.216984 
L 291.447786 344.788651 
L 292.102105 329.069756 
L 292.756424 334.016943 
L 293.410744 363.763031 
L 294.065063 342.4723 
L 294.719382 340.324002 
L 295.373701 370.039869 
L 296.02802 353.731686 
L 296.68234 365.586229 
L 297.336659 347.98717 
L 297.990978 355.780215 
L 298.645297 330.779772 
L 299.299616 356.82 
L 299.953935 344.940582 
L 300.608255 359.778244 
L 301.262574 342.764898 
L 301.916893 329.118667 
L 302.571212 330.341797 
L 303.225531 364.040353 
L 303.879851 355.916441 
L 304.53417 342.227808 
L 305.188489 372.86405 
L 305.842808 332.79446 
L 306.497127 361.622292 
L 307.151447 369.706766 
L 307.805766 329.211582 
L 308.460085 346.962161 
L 309.114404 337.117255 
L 309.768723 336.578464 
L 310.423043 349.487759 
L 311.077362 356.50964 
L 311.731681 354.669451 
L 312.386 329.08069 
L 313.040319 341.321282 
L 313.694639 361.229247 
L 314.348958 357.177875 
L 315.003277 341.896482 
L 315.657596 329.287792 
L 316.966235 353.632947 
L 317.620554 339.555584 
L 318.274873 332.39114 
L 318.929192 352.889788 
L 319.583511 377.609347 
L 320.237831 359.298411 
L 320.89215 362.726471 
L 321.546469 327.38261 
L 322.200788 374.494541 
L 322.855107 330.314283 
L 323.509427 331.782632 
L 324.163746 330.009084 
L 324.818065 351.647817 
L 325.472384 348.895699 
L 326.126703 350.797307 
L 326.781022 368.350905 
L 327.435342 370.957964 
L 328.089661 379.205445 
L 328.74398 385.319417 
L 329.398299 342.224454 
L 330.052618 377.257741 
L 330.706938 353.109268 
L 331.361257 342.137846 
L 332.015576 392.59623 
L 332.669895 354.462752 
L 333.324214 389.96248 
L 334.632853 432.646539 
L 335.287172 379.762626 
L 335.941491 385.355708 
L 336.59581 412.023547 
L 337.25013 329.325927 
L 337.904449 412.29679 
L 338.558768 345.287083 
L 339.213087 383.428748 
L 339.867406 349.116715 
L 340.521726 355.658149 
L 341.176045 328.542657 
L 341.830364 347.535723 
L 342.484683 331.547447 
L 343.139002 347.116686 
L 343.793322 385.492954 
L 344.447641 344.662704 
L 345.10196 392.589208 
L 345.756279 309.632861 
L 346.410598 317.775799 
L 347.064918 306.768389 
L 347.719237 393.742425 
L 348.373556 344.857194 
L 349.027875 389.145774 
L 349.682194 322.010402 
L 350.336514 348.380165 
L 350.990833 355.392652 
L 351.645152 367.89274 
L 352.299471 319.402874 
L 352.95379 326.543133 
L 354.262429 356.166252 
L 354.916748 330.902877 
L 355.571067 371.971403 
L 356.225386 356.101468 
L 356.879705 335.783207 
L 357.534025 327.225464 
L 358.188344 313.121423 
L 358.842663 380.20816 
L 359.496982 373.407496 
L 360.151301 358.20623 
L 360.805621 354.926466 
L 361.45994 377.326248 
L 362.114259 332.847144 
L 362.768578 374.248962 
L 363.422897 316.571001 
L 364.077217 360.191443 
L 364.731536 362.687282 
L 365.385855 350.252063 
L 366.040174 329.517628 
L 366.694493 376.827294 
L 367.348813 380.644406 
L 368.003132 371.704127 
L 368.657451 329.982938 
L 369.31177 350.466736 
L 369.966089 378.741836 
L 370.620409 321.228384 
L 371.274728 322.369377 
L 371.929047 380.219956 
L 372.583366 382.937439 
L 373.237685 311.681164 
L 373.892005 384.191464 
L 374.546324 382.662328 
L 375.200643 345.248404 
L 375.854962 365.849494 
L 376.509281 327.427428 
L 377.163601 346.795301 
L 377.81792 323.621015 
L 378.472239 321.109627 
L 379.126558 317.716359 
L 379.780877 336.540843 
L 380.435196 339.353451 
L 381.089516 312.276608 
L 381.743835 370.676456 
L 382.398154 372.300908 
L 383.052473 327.723296 
L 383.706792 381.251727 
L 384.361112 323.426178 
L 385.015431 348.24927 
L 385.66975 377.605329 
L 386.324069 380.02973 
L 386.978388 333.416312 
L 387.632708 378.815712 
L 388.941346 337.392246 
L 389.595665 347.664755 
L 390.249984 327.564001 
L 390.904304 331.192704 
L 391.558623 364.437285 
L 392.212942 371.519173 
L 392.867261 323.329737 
L 393.52158 371.944773 
L 394.1759 359.961424 
L 394.830219 353.270442 
L 395.484538 328.812241 
L 396.138857 376.690479 
L 396.793176 358.952751 
L 397.447496 373.454983 
L 398.101815 361.942024 
L 398.756134 333.74356 
L 399.410453 348.965457 
L 400.064772 369.029989 
L 400.719092 370.606329 
L 401.373411 380.656299 
L 402.02773 352.81468 
L 402.682049 376.352079 
L 403.336368 312.74697 
L 403.990688 360.83888 
L 404.645007 344.926313 
L 405.299326 345.190791 
L 405.953645 339.477036 
L 406.607964 350.673339 
L 407.262284 346.213549 
L 407.916603 348.576535 
L 408.570922 336.618054 
L 409.225241 331.817392 
L 409.87956 355.442374 
L 410.533879 368.464294 
L 411.188199 328.459033 
L 411.842518 362.982291 
L 412.496837 380.651882 
L 413.151156 366.008301 
L 413.805475 384.090621 
L 414.459795 321.824723 
L 415.114114 380.437272 
L 415.768433 338.764494 
L 416.422752 394.724937 
L 417.077071 393.2046 
L 417.731391 320.921947 
L 418.38571 329.964517 
L 419.040029 346.141503 
L 419.694348 386.820622 
L 420.348667 351.389339 
L 421.002987 367.265686 
L 421.657306 319.38489 
L 422.311625 375.692574 
L 422.965944 414.348948 
L 423.620263 412.741326 
L 424.274583 427.812812 
L 424.928902 394.905994 
L 425.583221 431.655934 
L 426.23754 401.640275 
L 426.891859 343.847271 
L 427.546179 345.850185 
L 428.200498 346.275263 
L 428.854817 385.640502 
L 429.509136 353.083438 
L 430.163455 390.860334 
L 430.817775 336.855751 
L 431.472094 322.830228 
L 432.126413 354.182202 
L 432.780732 354.302238 
L 433.435051 372.45025 
L 434.089371 328.566232 
L 434.74369 389.23034 
L 435.398009 381.765659 
L 436.052328 357.015829 
L 436.706647 352.715698 
L 437.360966 330.97929 
L 438.015286 325.468388 
L 438.669605 379.752856 
L 439.323924 308.339074 
L 439.978243 393.861963 
L 440.632562 392.916684 
L 441.286882 378.391259 
L 441.941201 315.6639 
L 442.59552 391.671 
L 443.249839 371.401505 
L 443.904158 363.320047 
L 444.558478 347.084767 
L 445.212797 344.860685 
L 445.867116 370.757829 
L 447.175754 348.601839 
L 447.830074 352.247719 
L 448.484393 361.643954 
L 449.138712 334.161642 
L 449.793031 329.628704 
L 450.44735 362.41229 
L 451.10167 355.365011 
L 451.755989 372.456719 
L 452.410308 324.883378 
L 453.064627 327.658985 
L 453.718946 320.439787 
L 454.373266 365.459299 
L 455.027585 330.120632 
L 455.681904 327.002141 
L 456.336223 337.977486 
L 456.990542 364.820618 
L 457.644862 333.447374 
L 458.299181 317.199505 
L 458.9535 374.980656 
L 459.607819 377.610324 
L 460.262138 334.583169 
L 460.916458 333.675803 
L 461.570777 378.570697 
L 462.225096 315.037929 
L 462.879415 318.699987 
L 463.533734 319.417997 
L 464.188053 364.937611 
L 464.842373 355.283846 
L 465.496692 374.943533 
L 466.151011 358.557592 
L 466.80533 354.478027 
L 467.459649 315.006008 
L 468.113969 327.575914 
L 468.768288 363.632473 
L 469.422607 337.016708 
L 470.076926 324.312337 
L 470.731245 381.906349 
L 471.385565 385.336849 
L 472.039884 369.217922 
L 472.694203 362.78366 
L 473.348522 366.638467 
L 474.002841 372.008577 
L 474.657161 352.93639 
L 475.31148 358.667062 
L 475.965799 375.509738 
L 476.620118 341.75637 
L 477.274437 319.319829 
L 477.928757 353.009604 
L 478.583076 342.383155 
L 479.237395 357.317305 
L 479.891714 351.712634 
L 480.546033 385.585411 
L 481.200353 361.621108 
L 481.854672 311.835785 
L 482.508991 317.71475 
L 483.16331 325.085967 
L 483.817629 350.803616 
L 484.471949 371.656374 
L 485.126268 333.622735 
L 485.780587 381.45114 
L 486.434906 329.002109 
L 487.089225 348.918351 
L 487.743545 361.099141 
L 488.397864 314.959518 
L 489.052183 335.352173 
L 489.706502 364.251015 
L 490.360821 339.046201 
L 491.01514 339.724555 
L 491.66946 338.132398 
L 492.323779 370.208933 
L 492.978098 371.026744 
L 493.632417 330.053794 
L 494.286736 355.2111 
L 494.941056 390.066546 
L 495.595375 356.415015 
L 496.249694 345.809135 
L 496.904013 377.422472 
L 497.558332 348.765847 
L 498.212652 334.035412 
L 498.866971 325.774949 
L 499.52129 340.728066 
L 500.175609 333.592917 
L 500.829928 356.083955 
L 501.484248 384.209371 
L 502.138567 374.105362 
L 502.792886 335.249456 
L 504.101524 375.639488 
L 504.755844 366.563571 
L 505.410163 393.20198 
L 506.064482 369.457959 
L 506.718801 396.646849 
L 507.37312 386.622407 
L 508.02744 336.656012 
L 508.681759 360.089853 
L 509.336078 359.48974 
L 509.990397 400.070691 
L 510.644716 310.768759 
L 511.299036 418.550942 
L 511.953355 324.918742 
L 512.607674 416.657801 
L 513.261993 437.940372 
L 513.916312 412.685591 
L 514.570632 395.876328 
L 515.224951 399.709362 
L 515.87927 396.915991 
L 516.533589 392.106798 
L 517.187908 378.265418 
L 517.842227 406.394853 
L 518.496547 396.099389 
L 519.150866 334.932244 
L 519.805185 367.436071 
L 520.459504 332.744917 
L 521.113823 308.289078 
L 521.768143 373.479581 
L 522.422462 389.486956 
L 523.076781 341.701873 
L 523.7311 395.930809 
L 524.385419 369.496774 
L 525.039739 369.703305 
L 525.694058 361.061649 
L 526.348377 350.87416 
L 527.002696 377.456633 
L 527.657015 373.048985 
L 528.311335 375.806174 
L 528.965654 369.15392 
L 529.619973 314.7311 
L 530.274292 384.618966 
L 530.928611 386.750223 
L 531.582931 322.105589 
L 532.23725 311.42086 
L 532.891569 356.484319 
L 533.545888 378.554393 
L 534.200207 386.114908 
L 534.854527 325.945718 
L 535.508846 309.783909 
L 536.163165 380.31653 
L 536.817484 383.006491 
L 537.471803 318.660504 
L 538.126123 318.702152 
L 538.780442 381.17961 
L 539.434761 346.394878 
L 540.08908 351.795145 
L 540.743399 317.487568 
L 541.397719 334.503174 
L 542.052038 318.138671 
L 542.706357 321.401126 
L 543.360676 371.998676 
L 544.014995 366.336646 
L 544.669315 365.630096 
L 545.323634 364.227455 
L 545.977953 366.770364 
L 546.632272 370.742133 
L 547.286591 369.070667 
L 547.94091 355.712697 
L 548.59523 350.633706 
L 549.249549 350.239584 
L 549.903868 351.180262 
L 550.558187 367.317188 
L 551.212506 355.404654 
L 551.866826 355.974333 
L 552.521145 320.756334 
L 553.175464 321.597226 
L 553.829783 323.467945 
L 554.484102 360.759298 
L 555.138422 365.595368 
L 555.792741 347.165559 
L 556.44706 339.128932 
L 557.101379 357.105389 
L 557.755698 324.026338 
L 558.410018 368.839323 
L 559.064337 377.087672 
L 559.718656 326.914041 
L 560.372975 361.514331 
L 561.027294 369.233035 
L 561.681614 334.587038 
L 562.335933 350.595085 
L 562.990252 343.94054 
L 563.644571 348.100284 
L 564.29889 367.168874 
L 564.95321 317.430094 
L 566.261848 358.901503 
L 566.916167 331.191557 
L 567.570486 333.942803 
L 568.224806 317.184791 
L 568.879125 342.791798 
L 569.533444 356.39861 
L 570.187763 334.349581 
L 570.842082 321.553628 
L 571.496402 322.07361 
L 572.150721 360.672327 
L 572.80504 318.394306 
L 573.459359 334.968591 
L 574.113678 354.38661 
L 574.767997 320.868476 
L 575.422317 367.740309 
L 576.076636 347.327452 
L 576.730955 342.666309 
L 577.385274 345.222684 
L 578.039593 338.675396 
L 578.693913 361.969702 
L 579.348232 341.54549 
L 580.002551 339.734038 
L 580.65687 336.667716 
L 581.311189 346.825593 
L 581.965509 366.516399 
L 582.619828 364.068527 
L 583.274147 362.054649 
L 583.928466 337.338219 
L 584.582785 377.56402 
L 585.237105 327.652242 
L 585.891424 330.752421 
L 586.545743 348.125517 
L 587.200062 339.922059 
L 587.854381 360.523654 
L 588.508701 375.54335 
L 589.16302 360.183599 
L 589.817339 357.352472 
L 590.471658 357.502566 
L 591.125977 374.938721 
L 591.780297 308.013841 
L 592.434616 305.854174 
L 593.088935 303.266452 
L 593.743254 361.100543 
L 594.397573 371.076838 
L 595.051893 318.855327 
L 596.360531 387.172074 
L 597.01485 343.448639 
L 597.669169 361.880958 
L 598.323489 336.760291 
L 598.977808 402.943926 
L 600.286446 330.677594 
L 600.940765 309.563816 
L 601.595084 323.288414 
L 602.249404 334.017368 
L 602.903723 366.672251 
L 603.558042 415.215948 
L 604.212361 414.7378 
L 604.86668 413.1786 
L 605.521 440.474588 
L 606.175319 437.131615 
L 606.829638 401.741053 
L 607.483957 345.837065 
L 608.138276 406.025206 
L 608.792596 361.697248 
L 609.446915 406.560355 
L 610.101234 392.63339 
L 610.755553 421.780368 
L 611.409872 324.938078 
L 612.064192 363.655372 
L 612.718511 293.873383 
L 613.37283 315.215096 
L 614.027149 416.781376 
L 614.681468 304.075652 
L 615.335788 404.910087 
L 615.990107 372.804722 
L 616.644426 386.626596 
L 617.298745 298.252083 
L 617.953064 343.983259 
L 618.607384 293.322965 
L 619.261703 364.319137 
L 619.916022 355.042207 
L 621.22466 394.260715 
L 621.87898 367.73769 
L 622.533299 394.889033 
L 623.187618 292.434891 
L 623.841937 299.377407 
L 624.496256 405.806377 
L 625.150576 341.914711 
L 625.804895 309.479402 
L 626.459214 310.037819 
L 627.113533 336.942725 
L 627.767852 350.180444 
L 628.422171 402.35401 
L 629.076491 334.870719 
L 629.73081 323.365 
L 630.385129 347.92717 
L 631.039448 406.796002 
L 631.693767 395.346881 
L 632.348087 400.455523 
L 633.002406 388.25667 
L 633.656725 395.106642 
L 634.311044 367.368417 
L 634.965363 376.900576 
L 635.619683 372.932445 
L 636.274002 312.347436 
L 636.928321 331.124456 
L 637.58264 362.34919 
L 638.236959 327.821826 
L 638.891279 312.216701 
L 639.545598 316.954066 
L 640.199917 361.516036 
L 640.854236 296.812283 
L 641.508555 325.243668 
L 642.162875 369.939 
L 642.817194 292.378872 
L 643.471513 291.881957 
L 644.125832 398.584384 
L 644.780151 403.93493 
L 645.434471 410.295492 
L 646.08879 409.557511 
L 646.743109 391.249458 
L 647.397428 395.514715 
L 648.051747 392.715921 
L 648.706067 389.240299 
L 649.360386 365.922179 
L 650.014705 353.335487 
L 650.669024 333.386994 
L 651.323343 341.236402 
L 651.977663 375.390886 
L 652.631982 366.694484 
L 653.286301 390.02692 
L 653.94062 391.174629 
L 654.594939 361.949512 
L 655.249258 387.836848 
L 655.903578 378.57756 
L 656.557897 386.937076 
L 657.212216 362.247054 
L 657.866535 345.437403 
L 658.520854 420.488815 
L 659.175174 398.932648 
L 659.829493 330.606201 
L 660.483812 418.475221 
L 661.79245 365.461037 
L 662.44677 428.081296 
L 663.101089 412.967269 
L 663.755408 415.299434 
L 664.409727 395.888446 
L 665.064046 367.786982 
L 665.718366 417.961827 
L 666.372685 370.171 
L 667.027004 404.615459 
L 667.681323 412.607679 
L 668.335642 368.778168 
L 668.989962 403.311 
L 669.644281 348.132852 
L 670.2986 331.244094 
L 670.952919 352.870563 
L 671.607238 328.019499 
L 672.261558 321.574618 
L 672.915877 291.539699 
L 673.570196 314.187775 
L 674.224515 359.126207 
L 674.878834 358.220241 
L 675.533154 338.138501 
L 676.187473 398.900485 
L 676.841792 396.691327 
L 677.496111 393.298455 
L 678.15043 377.528082 
L 678.80475 366.156894 
L 679.459069 290.659127 
L 680.113388 399.6117 
L 680.767707 391.114727 
L 681.422026 379.64569 
L 682.076345 384.136376 
L 682.730665 344.855064 
L 683.384984 296.188594 
L 684.039303 322.848215 
L 684.693622 298.41662 
L 685.347941 346.695616 
L 686.002261 379.608695 
L 686.65658 401.202773 
L 687.310899 358.293949 
L 687.965218 401.338227 
L 688.619537 398.770917 
L 689.273857 349.792374 
L 689.928176 400.304552 
L 690.582495 396.762911 
L 691.236814 321.829321 
L 691.891133 393.501425 
L 692.545453 294.644278 
L 693.199772 396.990832 
L 693.854091 353.105974 
L 694.50841 361.580761 
L 695.162729 386.389253 
L 695.817049 372.836127 
L 696.471368 354.7033 
L 697.125687 381.140668 
L 697.780006 384.719269 
L 699.088645 315.913091 
L 699.742964 331.359796 
L 700.397283 369.629377 
L 701.051602 358.52179 
L 701.705921 321.077681 
L 702.360241 300.180339 
L 703.01456 379.336123 
L 703.668879 298.355831 
L 704.977517 409.556711 
L 705.631837 412.426893 
L 706.286156 394.764046 
L 706.940475 325.39557 
L 707.594794 415.408408 
L 708.903433 397.425903 
L 709.557752 406.968895 
L 710.212071 359.218666 
L 710.86639 369.183685 
L 711.520709 343.051439 
L 712.175028 410.71632 
L 712.829348 379.32324 
L 713.483667 420.571448 
L 714.137986 382.079716 
L 714.792305 386.086243 
L 715.446624 416.08855 
L 716.100944 418.638975 
L 716.755263 414.538605 
L 717.409582 420.854547 
L 718.063901 443.536057 
L 718.71822 428.916051 
L 719.37254 437.514897 
L 720.026859 364.1659 
L 720.681178 366.948643 
L 721.335497 401.782156 
L 721.989816 352.370448 
L 722.644136 315.271038 
L 723.298455 347.62268 
L 723.952774 333.103026 
L 724.607093 417.224193 
L 725.261412 423.741513 
L 725.915732 409.454484 
L 726.570051 283.720867 
L 727.22437 342.261248 
L 727.878689 281.870746 
L 728.533008 378.06977 
L 729.187328 314.1764 
L 729.841647 360.591513 
L 730.495966 417.314892 
L 731.150285 386.380742 
L 731.804604 309.018773 
L 732.458924 308.703696 
L 733.767562 363.573651 
L 734.421881 363.750902 
L 735.0762 408.974913 
L 735.73052 334.722399 
L 736.384839 366.913231 
L 737.039158 359.701377 
L 737.693477 390.17759 
L 738.347796 409.359685 
L 739.002115 377.916585 
L 739.656435 386.615494 
L 740.310754 399.779661 
L 740.965073 376.041152 
L 741.619392 342.939931 
L 742.273711 303.084816 
L 742.928031 294.316939 
L 743.58235 325.802853 
L 744.236669 367.14972 
L 744.890988 396.767029 
L 745.545307 384.932798 
L 746.199627 381.568606 
L 746.853946 394.548605 
L 747.508265 356.991694 
L 748.162584 369.652018 
L 748.816903 414.993864 
L 749.471223 387.930002 
L 750.125542 422.950308 
L 750.779861 392.01651 
L 751.43418 405.075914 
L 752.088499 341.979426 
L 752.742819 339.7413 
L 753.397138 427.125912 
L 754.051457 414.434734 
L 754.705776 303.366511 
L 755.360095 382.185376 
L 756.014415 363.512292 
L 756.668734 434.261458 
L 757.323053 332.595216 
L 757.977372 444.211772 
L 758.631691 452.029365 
L 759.286011 473.109038 
L 759.94033 459.290226 
L 760.594649 294.470897 
L 761.248968 448.31597 
L 761.903287 411.026337 
L 762.557607 320.272993 
L 763.211926 455.151993 
L 763.866245 268.174056 
L 764.520564 362.373052 
L 765.174883 436.831173 
L 765.829202 399.09587 
L 766.483522 389.635647 
L 767.137841 401.376911 
L 767.79216 416.672718 
L 768.446479 446.548595 
L 769.100798 380.819369 
L 769.755118 413.075634 
L 770.409437 423.170801 
L 771.063756 389.967356 
L 771.718075 367.972894 
L 772.372394 428.732742 
L 773.026714 355.524407 
L 773.681033 421.339031 
L 774.335352 436.01522 
L 774.989671 429.021118 
L 775.64399 365.546703 
L 776.29831 447.429987 
L 776.952629 447.283562 
L 777.606948 421.913371 
L 778.261267 436.699772 
L 778.915586 364.718008 
L 779.569906 332.986458 
L 780.224225 459.017217 
L 780.878544 368.635325 
L 781.532863 381.583075 
L 782.187182 453.723223 
L 782.841502 460.230226 
L 783.495821 357.955144 
L 784.15014 451.731095 
L 784.804459 475.31178 
L 785.458778 486.720948 
L 786.113098 479.745536 
L 786.767417 436.153398 
L 787.421736 468.670605 
L 788.076055 481.192426 
L 788.730374 483.157465 
L 789.384694 474.656558 
L 790.039013 453.395383 
L 790.693332 356.675029 
L 791.347651 434.317127 
L 792.00197 465.361688 
L 792.656289 477.224379 
L 793.310609 478.447542 
L 793.964928 469.19931 
L 794.619247 444.192892 
L 795.273566 426.128223 
L 796.582205 470.332393 
L 797.236524 481.21314 
L 797.890843 486.574883 
L 798.545162 487.117432 
L 799.199481 483.415148 
L 799.853801 475.084185 
L 800.50812 459.077917 
L 800.50812 459.077917 
" clip-path="url(#pb60f0672cb)" style="fill: none; stroke-dasharray: 11.1,4.8; stroke-dashoffset: 0; stroke: #ff7f0e; stroke-width: 3"/>
   </g>
   <g id="line2d_36">
    <path d="M 264.449462 -1 
L 269.855253 209.411697 
L 273.781168 339.044324 
L 275.089806 377.46584 
L 277.052764 430.0324 
L 277.707083 442.197028 
L 278.361402 446.353366 
L 279.015721 440.32055 
L 279.67004 426.19592 
L 280.978679 386.883623 
L 282.287317 340.700633 
L 285.558913 216.124014 
L 290.793467 34.551258 
L 291.688639 -1 
M 369.746587 -1 
L 369.966089 9.546198 
L 373.237685 195.465606 
L 375.854962 336.408965 
L 377.81792 417.081136 
L 378.472239 441.488612 
L 379.126558 454.600322 
L 379.780877 449.006091 
L 380.435196 427.925097 
L 382.398154 341.229045 
L 389.178243 -1 
M 459.647869 -1 
L 466.80533 338.53036 
L 468.768288 416.112125 
L 469.422607 425.974144 
L 470.076926 422.64631 
L 470.731245 413.068387 
L 471.385565 389.511055 
L 474.657161 230.302426 
L 475.965799 156.873129 
L 476.620118 128.381216 
L 478.934946 -1 
M 548.733436 -1 
L 549.249549 19.24774 
L 550.558187 83.213135 
L 554.484102 254.250912 
L 556.44706 332.917254 
L 557.755698 399.360516 
L 558.410018 424.556705 
L 559.064337 440.451862 
L 559.718656 442.141841 
L 560.372975 428.690932 
L 561.681614 379.741208 
L 569.258003 -1 
M 628.900126 -1 
L 631.693767 285.12973 
L 632.348087 344.847356 
L 633.002406 394.058371 
L 633.656725 413.624784 
L 634.311044 388.924459 
L 634.965363 342.676494 
L 635.619683 284.508232 
L 636.928321 196.805096 
L 638.891279 25.740443 
L 639.150169 -1 
M 684.418634 -1 
L 686.65658 213.218438 
L 688.619537 374.447324 
L 689.273857 410.5386 
L 689.928176 408.667064 
L 690.582495 386.851483 
L 691.236814 353.30584 
L 693.199772 179.61728 
L 695.173866 -1 
M 734.694928 -1 
L 735.0762 56.608407 
L 735.73052 116.701427 
L 736.384839 221.231789 
L 737.693477 370.420758 
L 738.347796 372.934093 
L 739.002115 316.770131 
L 740.310754 160.495802 
L 741.419241 -1 
M 769.406221 -1 
L 769.755118 109.05639 
L 770.409437 271.01131 
L 771.063756 396.868284 
L 772.372394 86.776136 
L 772.668149 -1 
M 790.483468 -1 
L 790.693332 130.337518 
L 791.347651 328.556823 
L 792.054943 -1 
L 792.054943 -1 
" clip-path="url(#pb60f0672cb)" style="fill: none; stroke: #000000; stroke-width: 3; stroke-linecap: square"/>
   </g>
   <g id="patch_3">
    <path d="M 114.16 489.2325 
L 114.16 28.08 
" style="fill: none; stroke: #000000; stroke-width: 2; stroke-linejoin: miter; stroke-linecap: square"/>
   </g>
   <g id="patch_4">
    <path d="M 833.191364 489.2325 
L 833.191364 28.08 
" style="fill: none; stroke: #000000; stroke-width: 2; stroke-linejoin: miter; stroke-linecap: square"/>
   </g>
   <g id="patch_5">
    <path d="M 114.16 489.2325 
L 833.191364 489.2325 
" style="fill: none; stroke: #000000; stroke-width: 2; stroke-linejoin: miter; stroke-linecap: square"/>
   </g>
   <g id="patch_6">
    <path d="M 114.16 28.08 
L 833.191364 28.08 
" style="fill: none; stroke: #000000; stroke-width: 2; stroke-linejoin: miter; stroke-linecap: square"/>
   </g>
   <g id="legend_1">
    <g id="patch_7">
     <path d="M 125.36 296.28375 
L 263.8575 296.28375 
Q 267.0575 296.28375 267.0575 293.08375 
L 267.0575 224.22875 
Q 267.0575 221.02875 263.8575 221.02875 
L 125.36 221.02875 
Q 122.16 221.02875 122.16 224.22875 
L 122.16 293.08375 
Q 122.16 296.28375 125.36 296.28375 
z
" style="fill: #ffffff; opacity: 0.8; stroke: #cccccc; stroke-linejoin: miter"/>
    </g>
    <g id="line2d_37">
     <path d="M 128.56 233.98625 
L 144.56 233.98625 
L 160.56 233.98625 
" style="fill: none; stroke: #1f77b4; stroke-width: 3; stroke-linecap: square"/>
    </g>
    <g id="text_14">
     <!-- Electron 1 -->
     <g transform="translate(173.36 239.58625) scale(0.16 -0.16)">
      <defs>
       <path id="DejaVuSerif-45" d="M 353 0 
L 353 331 
L 947 331 
L 947 4331 
L 353 4331 
L 353 4666 
L 4109 4666 
L 4109 3628 
L 3725 3628 
L 3725 4281 
L 1581 4281 
L 1581 2719 
L 3109 2719 
L 3109 3303 
L 3494 3303 
L 3494 1753 
L 3109 1753 
L 3109 2338 
L 1581 2338 
L 1581 384 
L 3775 384 
L 3775 1038 
L 4159 1038 
L 4159 0 
L 353 0 
z
" transform="scale(0.015625)"/>
       <path id="DejaVuSerif-6c" d="M 1313 331 
L 1856 331 
L 1856 0 
L 184 0 
L 184 331 
L 738 331 
L 738 4531 
L 184 4531 
L 184 4863 
L 1313 4863 
L 1313 331 
z
" transform="scale(0.015625)"/>
       <path id="DejaVuSerif-65" d="M 3469 1600 
L 991 1600 
L 991 1575 
Q 991 903 1244 561 
Q 1497 219 1991 219 
Q 2369 219 2611 417 
Q 2853 616 2950 1006 
L 3413 1006 
Q 3275 459 2904 184 
Q 2534 -91 1931 -91 
Q 1203 -91 761 389 
Q 319 869 319 1663 
Q 319 2450 753 2931 
Q 1188 3413 1894 3413 
Q 2647 3413 3050 2948 
Q 3453 2484 3469 1600 
z
M 2791 1931 
Q 2772 2513 2545 2808 
Q 2319 3103 1894 3103 
Q 1497 3103 1269 2806 
Q 1041 2509 991 1931 
L 2791 1931 
z
" transform="scale(0.015625)"/>
       <path id="DejaVuSerif-63" d="M 3291 997 
Q 3169 466 2822 187 
Q 2475 -91 1925 -91 
Q 1200 -91 759 389 
Q 319 869 319 1663 
Q 319 2459 759 2936 
Q 1200 3413 1925 3413 
Q 2241 3413 2553 3339 
Q 2866 3266 3181 3116 
L 3181 2266 
L 2847 2266 
Q 2781 2703 2561 2903 
Q 2341 3103 1931 3103 
Q 1466 3103 1228 2742 
Q 991 2381 991 1663 
Q 991 944 1227 581 
Q 1463 219 1931 219 
Q 2303 219 2525 412 
Q 2747 606 2828 997 
L 3291 997 
z
" transform="scale(0.015625)"/>
       <path id="DejaVuSerif-74" d="M 691 2988 
L 184 2988 
L 184 3322 
L 691 3322 
L 691 4353 
L 1269 4353 
L 1269 3322 
L 2350 3322 
L 2350 2988 
L 1269 2988 
L 1269 878 
Q 1269 456 1350 337 
Q 1431 219 1650 219 
Q 1875 219 1978 351 
Q 2081 484 2088 781 
L 2522 781 
Q 2497 328 2275 118 
Q 2053 -91 1600 -91 
Q 1103 -91 897 129 
Q 691 350 691 878 
L 691 2988 
z
" transform="scale(0.015625)"/>
       <path id="DejaVuSerif-72" d="M 3059 3328 
L 3059 2497 
L 2728 2497 
Q 2713 2744 2591 2866 
Q 2469 2988 2234 2988 
Q 1809 2988 1582 2694 
Q 1356 2400 1356 1850 
L 1356 331 
L 2022 331 
L 2022 0 
L 263 0 
L 263 331 
L 781 331 
L 781 2994 
L 231 2994 
L 231 3322 
L 1356 3322 
L 1356 2731 
Q 1525 3078 1790 3245 
Q 2056 3413 2438 3413 
Q 2578 3413 2733 3391 
Q 2888 3369 3059 3328 
z
" transform="scale(0.015625)"/>
       <path id="DejaVuSerif-6f" d="M 1925 219 
Q 2388 219 2623 584 
Q 2859 950 2859 1663 
Q 2859 2375 2623 2739 
Q 2388 3103 1925 3103 
Q 1463 3103 1227 2739 
Q 991 2375 991 1663 
Q 991 950 1228 584 
Q 1466 219 1925 219 
z
M 1925 -91 
Q 1200 -91 759 389 
Q 319 869 319 1663 
Q 319 2456 758 2934 
Q 1197 3413 1925 3413 
Q 2653 3413 3092 2934 
Q 3531 2456 3531 1663 
Q 3531 869 3092 389 
Q 2653 -91 1925 -91 
z
" transform="scale(0.015625)"/>
       <path id="DejaVuSerif-6e" d="M 263 0 
L 263 331 
L 781 331 
L 781 2988 
L 231 2988 
L 231 3322 
L 1356 3322 
L 1356 2731 
Q 1516 3069 1770 3241 
Q 2025 3413 2363 3413 
Q 2913 3413 3172 3097 
Q 3431 2781 3431 2113 
L 3431 331 
L 3944 331 
L 3944 0 
L 2356 0 
L 2356 331 
L 2853 331 
L 2853 1931 
Q 2853 2541 2703 2767 
Q 2553 2994 2175 2994 
Q 1775 2994 1565 2701 
Q 1356 2409 1356 1850 
L 1356 331 
L 1856 331 
L 1856 0 
L 263 0 
z
" transform="scale(0.015625)"/>
      </defs>
      <use xlink:href="#DejaVuSerif-45"/>
      <use xlink:href="#DejaVuSerif-6c" x="72.998047"/>
      <use xlink:href="#DejaVuSerif-65" x="104.980469"/>
      <use xlink:href="#DejaVuSerif-63" x="164.160156"/>
      <use xlink:href="#DejaVuSerif-74" x="220.166016"/>
      <use xlink:href="#DejaVuSerif-72" x="260.351562"/>
      <use xlink:href="#DejaVuSerif-6f" x="308.154297"/>
      <use xlink:href="#DejaVuSerif-6e" x="368.359375"/>
      <use xlink:href="#DejaVuSerif-20" x="432.763672"/>
      <use xlink:href="#DejaVuSerif-31" x="464.550781"/>
     </g>
    </g>
    <g id="line2d_38">
     <path d="M 128.56 257.47125 
L 144.56 257.47125 
L 160.56 257.47125 
" style="fill: none; stroke-dasharray: 11.1,4.8; stroke-dashoffset: 0; stroke: #ff7f0e; stroke-width: 3"/>
    </g>
    <g id="text_15">
     <!-- Electron 2 -->
     <g transform="translate(173.36 263.07125) scale(0.16 -0.16)">
      <use xlink:href="#DejaVuSerif-45"/>
      <use xlink:href="#DejaVuSerif-6c" x="72.998047"/>
      <use xlink:href="#DejaVuSerif-65" x="104.980469"/>
      <use xlink:href="#DejaVuSerif-63" x="164.160156"/>
      <use xlink:href="#DejaVuSerif-74" x="220.166016"/>
      <use xlink:href="#DejaVuSerif-72" x="260.351562"/>
      <use xlink:href="#DejaVuSerif-6f" x="308.154297"/>
      <use xlink:href="#DejaVuSerif-6e" x="368.359375"/>
      <use xlink:href="#DejaVuSerif-20" x="432.763672"/>
      <use xlink:href="#DejaVuSerif-32" x="464.550781"/>
     </g>
    </g>
    <g id="line2d_39">
     <path d="M 128.56 280.95625 
L 144.56 280.95625 
L 160.56 280.95625 
" style="fill: none; stroke: #000000; stroke-width: 3; stroke-linecap: square"/>
    </g>
    <g id="text_16">
     <!-- Antiproton -->
     <g transform="translate(173.36 286.55625) scale(0.16 -0.16)">
      <defs>
       <path id="DejaVuSerif-41" d="M 1281 1691 
L 2994 1691 
L 2138 3909 
L 1281 1691 
z
M -38 0 
L -38 331 
L 372 331 
L 2034 4666 
L 2559 4666 
L 4225 331 
L 4684 331 
L 4684 0 
L 2988 0 
L 2988 331 
L 3506 331 
L 3116 1356 
L 1153 1356 
L 763 331 
L 1275 331 
L 1275 0 
L -38 0 
z
" transform="scale(0.015625)"/>
       <path id="DejaVuSerif-69" d="M 622 4353 
Q 622 4497 726 4603 
Q 831 4709 978 4709 
Q 1122 4709 1226 4603 
Q 1331 4497 1331 4353 
Q 1331 4206 1228 4103 
Q 1125 4000 978 4000 
Q 831 4000 726 4103 
Q 622 4206 622 4353 
z
M 1356 331 
L 1900 331 
L 1900 0 
L 231 0 
L 231 331 
L 781 331 
L 781 2988 
L 231 2988 
L 231 3322 
L 1356 3322 
L 1356 331 
z
" transform="scale(0.015625)"/>
       <path id="DejaVuSerif-70" d="M 1313 1825 
L 1313 1497 
Q 1313 897 1542 583 
Q 1772 269 2209 269 
Q 2650 269 2876 622 
Q 3103 975 3103 1663 
Q 3103 2353 2876 2703 
Q 2650 3053 2209 3053 
Q 1772 3053 1542 2737 
Q 1313 2422 1313 1825 
z
M 738 2988 
L 184 2988 
L 184 3322 
L 1313 3322 
L 1313 2803 
Q 1481 3116 1742 3264 
Q 2003 3413 2388 3413 
Q 3000 3413 3387 2928 
Q 3775 2444 3775 1663 
Q 3775 881 3387 395 
Q 3000 -91 2388 -91 
Q 2003 -91 1742 57 
Q 1481 206 1313 519 
L 1313 -997 
L 1856 -997 
L 1856 -1331 
L 184 -1331 
L 184 -997 
L 738 -997 
L 738 2988 
z
" transform="scale(0.015625)"/>
      </defs>
      <use xlink:href="#DejaVuSerif-41"/>
      <use xlink:href="#DejaVuSerif-6e" x="72.216797"/>
      <use xlink:href="#DejaVuSerif-74" x="136.621094"/>
      <use xlink:href="#DejaVuSerif-69" x="176.806641"/>
      <use xlink:href="#DejaVuSerif-70" x="208.789062"/>
      <use xlink:href="#DejaVuSerif-72" x="272.802734"/>
      <use xlink:href="#DejaVuSerif-6f" x="320.605469"/>
      <use xlink:href="#DejaVuSerif-74" x="380.810547"/>
      <use xlink:href="#DejaVuSerif-6f" x="420.996094"/>
      <use xlink:href="#DejaVuSerif-6e" x="481.201172"/>
     </g>
    </g>
   </g>
  </g>
 </g>
 <defs>
  <clipPath id="pb60f0672cb">
   <rect x="114.16" y="28.08" width="719.031364" height="461.1525"/>
  </clipPath>
 </defs>
</svg>
