<?xml version="1.0" encoding="utf-8" standalone="no"?>
<!DOCTYPE svg PUBLIC "-//W3C//DTD SVG 1.1//EN"
  "http://www.w3.org/Graphics/SVG/1.1/DTD/svg11.dtd">
<svg xmlns:xlink="http://www.w3.org/1999/xlink" width="864pt" height="432pt" viewBox="0 0 864 432" xmlns="http://www.w3.org/2000/svg" version="1.1">
 <metadata>
  <rdf:RDF xmlns:dc="http://purl.org/dc/elements/1.1/" xmlns:cc="http://creativecommons.org/ns#" xmlns:rdf="http://www.w3.org/1999/02/22-rdf-syntax-ns#">
   <cc:Work>
    <dc:type rdf:resource="http://purl.org/dc/dcmitype/StillImage"/>
    <dc:date>2025-06-10T13:58:12.948374</dc:date>
    <dc:format>image/svg+xml</dc:format>
    <dc:creator>
     <cc:Agent>
      <dc:title>Matplotlib v3.7.2, https://matplotlib.org/</dc:title>
     </cc:Agent>
    </dc:creator>
   </cc:Work>
  </rdf:RDF>
 </metadata>
 <defs>
  <style type="text/css">*{stroke-linejoin: round; stroke-linecap: butt}</style>
 </defs>
 <g id="figure_1">
  <g id="patch_1">
   <path d="M 0 432 
L 864 432 
L 864 0 
L 0 0 
z
" style="fill: #ffffff"/>
  </g>
  <g id="axes_1">
   <g id="patch_2">
    <path d="M 103.44 345.2325 
L 403.133584 345.2325 
L 403.133584 38.088 
L 103.44 38.088 
z
" style="fill: #ffffff"/>
   </g>
   <g id="matplotlib.axis_1">
    <g id="xtick_1">
     <g id="line2d_1">
      <path d="M 117.062436 345.2325 
L 117.062436 38.088 
" clip-path="url(#p2e60df0599)" style="fill: none; stroke-dasharray: 3.7,1.6; stroke-dashoffset: 0; stroke: #b0b0b0; stroke-opacity: 0.5"/>
     </g>
     <g id="line2d_2">
      <defs>
       <path id="mf97955dba8" d="M 0 0 
L 0 -10 
" style="stroke: #000000; stroke-width: 2"/>
      </defs>
      <g>
       <use xlink:href="#mf97955dba8" x="117.062436" y="345.2325" style="stroke: #000000; stroke-width: 2"/>
      </g>
     </g>
     <g id="line2d_3">
      <defs>
       <path id="m1983d6447f" d="M 0 0 
L 0 10 
" style="stroke: #000000; stroke-width: 2"/>
      </defs>
      <g>
       <use xlink:href="#m1983d6447f" x="117.062436" y="38.088" style="stroke: #000000; stroke-width: 2"/>
      </g>
     </g>
     <g id="text_1">
      <!-- 0 -->
      <g transform="translate(108.791186 368.488437) scale(0.26 -0.26)">
       <defs>
        <path id="DejaVuSerif-30" d="M 2034 219 
Q 2513 219 2750 744 
Q 2988 1269 2988 2328 
Q 2988 3391 2750 3916 
Q 2513 4441 2034 4441 
Q 1556 4441 1318 3916 
Q 1081 3391 1081 2328 
Q 1081 1269 1318 744 
Q 1556 219 2034 219 
z
M 2034 -91 
Q 1275 -91 848 546 
Q 422 1184 422 2328 
Q 422 3475 848 4112 
Q 1275 4750 2034 4750 
Q 2797 4750 3222 4112 
Q 3647 3475 3647 2328 
Q 3647 1184 3222 546 
Q 2797 -91 2034 -91 
z
" transform="scale(0.015625)"/>
       </defs>
       <use xlink:href="#DejaVuSerif-30"/>
      </g>
     </g>
    </g>
    <g id="xtick_2">
     <g id="line2d_4">
      <path d="M 226.041921 345.2325 
L 226.041921 38.088 
" clip-path="url(#p2e60df0599)" style="fill: none; stroke-dasharray: 3.7,1.6; stroke-dashoffset: 0; stroke: #b0b0b0; stroke-opacity: 0.5"/>
     </g>
     <g id="line2d_5">
      <g>
       <use xlink:href="#mf97955dba8" x="226.041921" y="345.2325" style="stroke: #000000; stroke-width: 2"/>
      </g>
     </g>
     <g id="line2d_6">
      <g>
       <use xlink:href="#m1983d6447f" x="226.041921" y="38.088" style="stroke: #000000; stroke-width: 2"/>
      </g>
     </g>
     <g id="text_2">
      <!-- 1000 -->
      <g transform="translate(192.956921 368.488437) scale(0.26 -0.26)">
       <defs>
        <path id="DejaVuSerif-31" d="M 909 0 
L 909 331 
L 1722 331 
L 1722 4213 
L 781 3603 
L 781 4013 
L 1919 4750 
L 2350 4750 
L 2350 331 
L 3163 331 
L 3163 0 
L 909 0 
z
" transform="scale(0.015625)"/>
       </defs>
       <use xlink:href="#DejaVuSerif-31"/>
       <use xlink:href="#DejaVuSerif-30" x="63.623047"/>
       <use xlink:href="#DejaVuSerif-30" x="127.246094"/>
       <use xlink:href="#DejaVuSerif-30" x="190.869141"/>
      </g>
     </g>
    </g>
    <g id="xtick_3">
     <g id="line2d_7">
      <path d="M 335.021406 345.2325 
L 335.021406 38.088 
" clip-path="url(#p2e60df0599)" style="fill: none; stroke-dasharray: 3.7,1.6; stroke-dashoffset: 0; stroke: #b0b0b0; stroke-opacity: 0.5"/>
     </g>
     <g id="line2d_8">
      <g>
       <use xlink:href="#mf97955dba8" x="335.021406" y="345.2325" style="stroke: #000000; stroke-width: 2"/>
      </g>
     </g>
     <g id="line2d_9">
      <g>
       <use xlink:href="#m1983d6447f" x="335.021406" y="38.088" style="stroke: #000000; stroke-width: 2"/>
      </g>
     </g>
     <g id="text_3">
      <!-- 2000 -->
      <g transform="translate(301.936406 368.488437) scale(0.26 -0.26)">
       <defs>
        <path id="DejaVuSerif-32" d="M 819 3553 
L 469 3553 
L 469 4384 
Q 803 4563 1142 4656 
Q 1481 4750 1806 4750 
Q 2534 4750 2956 4397 
Q 3378 4044 3378 3438 
Q 3378 2753 2422 1800 
Q 2347 1728 2309 1691 
L 1131 513 
L 3078 513 
L 3078 1088 
L 3444 1088 
L 3444 0 
L 434 0 
L 434 341 
L 1850 1753 
Q 2319 2222 2519 2614 
Q 2719 3006 2719 3438 
Q 2719 3909 2473 4175 
Q 2228 4441 1797 4441 
Q 1350 4441 1106 4219 
Q 863 3997 819 3553 
z
" transform="scale(0.015625)"/>
       </defs>
       <use xlink:href="#DejaVuSerif-32"/>
       <use xlink:href="#DejaVuSerif-30" x="63.623047"/>
       <use xlink:href="#DejaVuSerif-30" x="127.246094"/>
       <use xlink:href="#DejaVuSerif-30" x="190.869141"/>
      </g>
     </g>
    </g>
    <g id="text_4">
     <!-- $t$ (a.u.) -->
     <g transform="translate(209.866792 397.651563) scale(0.26 -0.26)">
      <defs>
       <path id="Cmmi10-74" d="M 397 519 
Q 397 613 416 697 
L 878 2534 
L 206 2534 
Q 141 2534 141 2619 
Q 166 2759 225 2759 
L 934 2759 
L 1191 3803 
Q 1216 3888 1291 3947 
Q 1366 4006 1459 4006 
Q 1541 4006 1595 3957 
Q 1650 3909 1650 3828 
Q 1650 3809 1648 3798 
Q 1647 3788 1644 3775 
L 1388 2759 
L 2047 2759 
Q 2113 2759 2113 2675 
Q 2109 2659 2100 2621 
Q 2091 2584 2075 2559 
Q 2059 2534 2028 2534 
L 1331 2534 
L 872 684 
Q 825 503 825 372 
Q 825 97 1013 97 
Q 1294 97 1511 361 
Q 1728 625 1844 941 
Q 1869 978 1894 978 
L 1972 978 
Q 1997 978 2012 961 
Q 2028 944 2028 922 
Q 2028 909 2022 903 
Q 1881 516 1612 222 
Q 1344 -72 997 -72 
Q 744 -72 570 93 
Q 397 259 397 519 
z
" transform="scale(0.015625)"/>
       <path id="DejaVuSerif-20" transform="scale(0.015625)"/>
       <path id="DejaVuSerif-28" d="M 2041 -997 
Q 1281 -656 893 83 
Q 506 822 506 1931 
Q 506 3044 893 3783 
Q 1281 4522 2041 4863 
L 2041 4556 
Q 1559 4225 1350 3623 
Q 1141 3022 1141 1931 
Q 1141 844 1350 242 
Q 1559 -359 2041 -691 
L 2041 -997 
z
" transform="scale(0.015625)"/>
       <path id="DejaVuSerif-61" d="M 2547 1044 
L 2547 1747 
L 1806 1747 
Q 1378 1747 1168 1562 
Q 959 1378 959 997 
Q 959 650 1171 447 
Q 1384 244 1747 244 
Q 2106 244 2326 466 
Q 2547 688 2547 1044 
z
M 3122 2075 
L 3122 331 
L 3634 331 
L 3634 0 
L 2547 0 
L 2547 359 
Q 2356 128 2106 18 
Q 1856 -91 1522 -91 
Q 969 -91 644 203 
Q 319 497 319 997 
Q 319 1513 691 1797 
Q 1063 2081 1741 2081 
L 2547 2081 
L 2547 2309 
Q 2547 2688 2317 2895 
Q 2088 3103 1672 3103 
Q 1328 3103 1125 2947 
Q 922 2791 872 2484 
L 575 2484 
L 575 3156 
Q 875 3284 1158 3348 
Q 1441 3413 1709 3413 
Q 2400 3413 2761 3070 
Q 3122 2728 3122 2075 
z
" transform="scale(0.015625)"/>
       <path id="DejaVuSerif-2e" d="M 603 325 
Q 603 500 722 622 
Q 841 744 1019 744 
Q 1191 744 1312 622 
Q 1434 500 1434 325 
Q 1434 153 1312 31 
Q 1191 -91 1019 -91 
Q 841 -91 722 29 
Q 603 150 603 325 
z
" transform="scale(0.015625)"/>
       <path id="DejaVuSerif-75" d="M 2266 3322 
L 3341 3322 
L 3341 331 
L 3884 331 
L 3884 0 
L 2766 0 
L 2766 588 
Q 2606 256 2353 82 
Q 2100 -91 1766 -91 
Q 1213 -91 952 223 
Q 691 538 691 1209 
L 691 2988 
L 172 2988 
L 172 3322 
L 1269 3322 
L 1269 1388 
Q 1269 781 1417 556 
Q 1566 331 1947 331 
Q 2347 331 2556 625 
Q 2766 919 2766 1478 
L 2766 2988 
L 2266 2988 
L 2266 3322 
z
" transform="scale(0.015625)"/>
       <path id="DejaVuSerif-29" d="M 453 -997 
L 453 -691 
Q 934 -359 1145 242 
Q 1356 844 1356 1931 
Q 1356 3022 1145 3623 
Q 934 4225 453 4556 
L 453 4863 
Q 1216 4522 1603 3783 
Q 1991 3044 1991 1931 
Q 1991 822 1603 83 
Q 1216 -656 453 -997 
z
" transform="scale(0.015625)"/>
      </defs>
      <use xlink:href="#Cmmi10-74" transform="translate(0 0.015625)"/>
      <use xlink:href="#DejaVuSerif-20" transform="translate(36.083984 0.015625)"/>
      <use xlink:href="#DejaVuSerif-28" transform="translate(67.871094 0.015625)"/>
      <use xlink:href="#DejaVuSerif-61" transform="translate(106.884766 0.015625)"/>
      <use xlink:href="#DejaVuSerif-2e" transform="translate(166.503906 0.015625)"/>
      <use xlink:href="#DejaVuSerif-75" transform="translate(198.291016 0.015625)"/>
      <use xlink:href="#DejaVuSerif-2e" transform="translate(262.695312 0.015625)"/>
      <use xlink:href="#DejaVuSerif-29" transform="translate(294.482422 0.015625)"/>
     </g>
    </g>
   </g>
   <g id="matplotlib.axis_2">
    <g id="ytick_1">
     <g id="line2d_10">
      <path d="M 103.44 345.2325 
L 403.133584 345.2325 
" clip-path="url(#p2e60df0599)" style="fill: none; stroke-dasharray: 3.7,1.6; stroke-dashoffset: 0; stroke: #b0b0b0; stroke-opacity: 0.5"/>
     </g>
     <g id="line2d_11">
      <defs>
       <path id="m8825ed4ee9" d="M 0 0 
L 10 0 
" style="stroke: #000000; stroke-width: 2"/>
      </defs>
      <g>
       <use xlink:href="#m8825ed4ee9" x="103.44" y="345.2325" style="stroke: #000000; stroke-width: 2"/>
      </g>
     </g>
     <g id="line2d_12">
      <defs>
       <path id="m5506a56f1c" d="M 0 0 
L -10 0 
" style="stroke: #000000; stroke-width: 2"/>
      </defs>
      <g>
       <use xlink:href="#m5506a56f1c" x="403.133584" y="345.2325" style="stroke: #000000; stroke-width: 2"/>
      </g>
     </g>
     <g id="text_5">
      <!-- −2 -->
      <g transform="translate(61.610313 355.110469) scale(0.26 -0.26)">
       <defs>
        <path id="DejaVuSerif-2212" d="M 678 2259 
L 4684 2259 
L 4684 1753 
L 678 1753 
L 678 2259 
z
" transform="scale(0.015625)"/>
       </defs>
       <use xlink:href="#DejaVuSerif-2212"/>
       <use xlink:href="#DejaVuSerif-32" x="83.789062"/>
      </g>
     </g>
    </g>
    <g id="ytick_2">
     <g id="line2d_13">
      <path d="M 103.44 268.446375 
L 403.133584 268.446375 
" clip-path="url(#p2e60df0599)" style="fill: none; stroke-dasharray: 3.7,1.6; stroke-dashoffset: 0; stroke: #b0b0b0; stroke-opacity: 0.5"/>
     </g>
     <g id="line2d_14">
      <g>
       <use xlink:href="#m8825ed4ee9" x="103.44" y="268.446375" style="stroke: #000000; stroke-width: 2"/>
      </g>
     </g>
     <g id="line2d_15">
      <g>
       <use xlink:href="#m5506a56f1c" x="403.133584" y="268.446375" style="stroke: #000000; stroke-width: 2"/>
      </g>
     </g>
     <g id="text_6">
      <!-- −1 -->
      <g transform="translate(61.610313 278.324344) scale(0.26 -0.26)">
       <use xlink:href="#DejaVuSerif-2212"/>
       <use xlink:href="#DejaVuSerif-31" x="83.789062"/>
      </g>
     </g>
    </g>
    <g id="ytick_3">
     <g id="line2d_16">
      <path d="M 103.44 191.66025 
L 403.133584 191.66025 
" clip-path="url(#p2e60df0599)" style="fill: none; stroke-dasharray: 3.7,1.6; stroke-dashoffset: 0; stroke: #b0b0b0; stroke-opacity: 0.5"/>
     </g>
     <g id="line2d_17">
      <g>
       <use xlink:href="#m8825ed4ee9" x="103.44" y="191.66025" style="stroke: #000000; stroke-width: 2"/>
      </g>
     </g>
     <g id="line2d_18">
      <g>
       <use xlink:href="#m5506a56f1c" x="403.133584" y="191.66025" style="stroke: #000000; stroke-width: 2"/>
      </g>
     </g>
     <g id="text_7">
      <!-- 0 -->
      <g transform="translate(83.3975 201.538219) scale(0.26 -0.26)">
       <use xlink:href="#DejaVuSerif-30"/>
      </g>
     </g>
    </g>
    <g id="ytick_4">
     <g id="line2d_19">
      <path d="M 103.44 114.874125 
L 403.133584 114.874125 
" clip-path="url(#p2e60df0599)" style="fill: none; stroke-dasharray: 3.7,1.6; stroke-dashoffset: 0; stroke: #b0b0b0; stroke-opacity: 0.5"/>
     </g>
     <g id="line2d_20">
      <g>
       <use xlink:href="#m8825ed4ee9" x="103.44" y="114.874125" style="stroke: #000000; stroke-width: 2"/>
      </g>
     </g>
     <g id="line2d_21">
      <g>
       <use xlink:href="#m5506a56f1c" x="403.133584" y="114.874125" style="stroke: #000000; stroke-width: 2"/>
      </g>
     </g>
     <g id="text_8">
      <!-- 1 -->
      <g transform="translate(83.3975 124.752094) scale(0.26 -0.26)">
       <use xlink:href="#DejaVuSerif-31"/>
      </g>
     </g>
    </g>
    <g id="ytick_5">
     <g id="line2d_22">
      <path d="M 103.44 38.088 
L 403.133584 38.088 
" clip-path="url(#p2e60df0599)" style="fill: none; stroke-dasharray: 3.7,1.6; stroke-dashoffset: 0; stroke: #b0b0b0; stroke-opacity: 0.5"/>
     </g>
     <g id="line2d_23">
      <g>
       <use xlink:href="#m8825ed4ee9" x="103.44" y="38.088" style="stroke: #000000; stroke-width: 2"/>
      </g>
     </g>
     <g id="line2d_24">
      <g>
       <use xlink:href="#m5506a56f1c" x="403.133584" y="38.088" style="stroke: #000000; stroke-width: 2"/>
      </g>
     </g>
     <g id="text_9">
      <!-- 2 -->
      <g transform="translate(83.3975 47.965969) scale(0.26 -0.26)">
       <use xlink:href="#DejaVuSerif-32"/>
      </g>
     </g>
    </g>
    <g id="text_10">
     <!-- $E(t)$ (a.u.) -->
     <g transform="translate(51.110313 254.71025) rotate(-90) scale(0.26 -0.26)">
      <defs>
       <path id="Cmmi10-45" d="M 300 0 
Q 238 0 238 84 
Q 241 100 250 139 
Q 259 178 276 201 
Q 294 225 319 225 
Q 709 225 863 269 
Q 947 297 984 441 
L 1863 3956 
Q 1875 4019 1875 4044 
Q 1875 4113 1797 4122 
Q 1678 4147 1338 4147 
Q 1275 4147 1275 4231 
Q 1278 4247 1287 4286 
Q 1297 4325 1314 4348 
Q 1331 4372 1356 4372 
L 4825 4372 
Q 4891 4372 4891 4288 
L 4738 2963 
Q 4738 2947 4714 2926 
Q 4691 2906 4672 2906 
L 4616 2906 
Q 4550 2906 4550 2988 
Q 4588 3300 4588 3450 
Q 4588 3706 4500 3848 
Q 4413 3991 4267 4053 
Q 4122 4116 3945 4131 
Q 3769 4147 3481 4147 
L 2753 4147 
Q 2578 4147 2522 4117 
Q 2466 4088 2419 3928 
L 2034 2381 
L 2534 2381 
Q 2859 2381 3025 2426 
Q 3191 2472 3287 2615 
Q 3384 2759 3463 3072 
Q 3469 3094 3486 3111 
Q 3503 3128 3525 3128 
L 3584 3128 
Q 3647 3128 3647 3047 
L 3250 1466 
Q 3238 1409 3188 1409 
L 3128 1409 
Q 3066 1409 3066 1491 
Q 3128 1747 3128 1869 
Q 3128 2056 2959 2106 
Q 2791 2156 2509 2156 
L 1978 2156 
L 1544 416 
Q 1516 338 1516 275 
Q 1516 225 1734 225 
L 2509 225 
Q 2972 225 3259 297 
Q 3547 369 3736 526 
Q 3925 684 4062 928 
Q 4200 1172 4397 1638 
Q 4409 1678 4453 1678 
L 4513 1678 
Q 4538 1678 4556 1656 
Q 4575 1634 4575 1606 
Q 4575 1594 4569 1581 
L 3909 38 
Q 3897 0 3859 0 
L 300 0 
z
" transform="scale(0.015625)"/>
       <path id="Cmr10-28" d="M 1984 -1588 
Q 1628 -1306 1370 -942 
Q 1113 -578 948 -165 
Q 784 247 703 697 
Q 622 1147 622 1600 
Q 622 2059 703 2509 
Q 784 2959 951 3375 
Q 1119 3791 1378 4153 
Q 1638 4516 1984 4788 
Q 1984 4800 2016 4800 
L 2075 4800 
Q 2094 4800 2109 4783 
Q 2125 4766 2125 4744 
Q 2125 4716 2113 4703 
Q 1800 4397 1592 4047 
Q 1384 3697 1257 3301 
Q 1131 2906 1075 2482 
Q 1019 2059 1019 1600 
Q 1019 -434 2106 -1491 
Q 2125 -1509 2125 -1544 
Q 2125 -1559 2108 -1579 
Q 2091 -1600 2075 -1600 
L 2016 -1600 
Q 1984 -1600 1984 -1588 
z
" transform="scale(0.015625)"/>
       <path id="Cmr10-29" d="M 416 -1600 
Q 359 -1600 359 -1544 
Q 359 -1516 372 -1503 
Q 1466 -434 1466 1600 
Q 1466 3634 384 4691 
Q 359 4706 359 4744 
Q 359 4766 376 4783 
Q 394 4800 416 4800 
L 475 4800 
Q 494 4800 506 4788 
Q 966 4425 1272 3906 
Q 1578 3388 1720 2800 
Q 1863 2213 1863 1600 
Q 1863 1147 1786 708 
Q 1709 269 1542 -157 
Q 1375 -584 1119 -945 
Q 863 -1306 506 -1588 
Q 494 -1600 475 -1600 
L 416 -1600 
z
" transform="scale(0.015625)"/>
      </defs>
      <use xlink:href="#Cmmi10-45" transform="translate(0 0.015625)"/>
      <use xlink:href="#Cmr10-28" transform="translate(73.779297 0.015625)"/>
      <use xlink:href="#Cmmi10-74" transform="translate(112.597656 0.015625)"/>
      <use xlink:href="#Cmr10-29" transform="translate(148.681641 0.015625)"/>
      <use xlink:href="#DejaVuSerif-20" transform="translate(187.5 0.015625)"/>
      <use xlink:href="#DejaVuSerif-28" transform="translate(219.287109 0.015625)"/>
      <use xlink:href="#DejaVuSerif-61" transform="translate(258.300781 0.015625)"/>
      <use xlink:href="#DejaVuSerif-2e" transform="translate(317.919922 0.015625)"/>
      <use xlink:href="#DejaVuSerif-75" transform="translate(349.707031 0.015625)"/>
      <use xlink:href="#DejaVuSerif-2e" transform="translate(414.111328 0.015625)"/>
      <use xlink:href="#DejaVuSerif-29" transform="translate(445.898438 0.015625)"/>
     </g>
    </g>
   </g>
   <g id="line2d_25">
    <path d="M 117.062436 385.377287 
L 144.334579 385.257669 
L 148.698122 385.032394 
L 150.607172 384.767015 
L 151.970779 384.377779 
L 153.061665 383.806723 
L 153.879829 383.092657 
L 154.425272 382.3701 
L 154.970715 381.302254 
L 155.516158 379.619798 
L 156.061601 376.657169 
L 156.334322 374.172654 
L 156.607044 370.298649 
L 156.879765 363.593207 
L 157.152486 349.71493 
L 157.425208 305.304014 
L 157.697929 183.240513 
L 157.970651 336.660198 
L 158.243372 361.074831 
L 158.516094 371.155833 
L 159.061537 380.37149 
L 159.606979 384.602707 
L 160.152422 387.289598 
L 160.697865 388.877466 
L 161.243308 390.011979 
L 162.061472 391.153032 
L 162.879637 391.856284 
L 163.697801 392.232301 
L 164.515965 392.37822 
L 165.33413 392.333167 
L 166.152294 392.061378 
L 166.970458 391.501961 
L 167.788622 390.553096 
L 168.334065 389.625772 
L 168.879508 388.27626 
L 169.424951 386.390405 
L 169.970394 383.259393 
L 170.515837 377.688521 
L 170.788558 372.483922 
L 171.06128 363.794356 
L 171.334001 345.924041 
L 171.606722 271.916976 
L 171.879444 274.700143 
L 172.152165 348.240868 
L 172.424887 367.033558 
L 172.697608 376.038815 
L 173.243051 383.994958 
L 173.788494 388.008196 
L 174.333937 390.188559 
L 175.152101 391.76151 
L 175.697544 392.335642 
L 176.242987 392.517722 
L 176.78843 392.434275 
L 177.333873 392.032955 
L 177.879315 391.133265 
L 178.424758 389.67561 
L 178.970201 387.437177 
L 179.515644 382.948521 
L 179.788366 378.675783 
L 180.061087 372.350286 
L 180.333808 360.922869 
L 180.60653 330.676559 
L 180.798853 -1 
M 180.961073 -1 
L 181.151973 322.489154 
L 181.424694 357.161161 
L 181.697416 370.111084 
L 181.970137 376.900661 
L 182.51558 383.612285 
L 183.061023 386.892603 
L 183.606466 389.09911 
L 184.151908 390.47902 
L 184.970073 391.745578 
L 185.788237 392.44336 
L 186.606401 392.763728 
L 187.424566 392.786531 
L 187.970009 392.59994 
L 188.788173 391.987537 
L 189.606337 390.959104 
L 190.15178 389.903651 
L 190.697223 388.258733 
L 191.242666 385.596613 
L 191.515387 383.62742 
L 191.788109 380.83958 
L 192.06083 376.816428 
L 192.333552 369.940404 
L 192.606273 357.605631 
L 192.878994 325.387227 
L 192.969106 -1 
M 193.333752 -1 
L 193.424437 328.50385 
L 193.697159 359.873857 
L 193.96988 371.555402 
L 194.242602 378.097571 
L 194.788044 384.56877 
L 195.333487 388.069123 
L 195.87893 390.097916 
L 196.424373 391.281491 
L 197.242537 392.470064 
L 197.78798 392.899384 
L 198.333423 393.099477 
L 199.151587 393.071491 
L 199.969752 392.662262 
L 200.515195 392.125491 
L 201.060637 391.207916 
L 201.878802 388.975543 
L 202.424245 386.167281 
L 202.696966 384.191158 
L 202.969687 381.158477 
L 203.242409 376.592496 
L 203.51513 369.4284 
L 203.787852 355.159335 
L 204.060573 311.026965 
L 204.333295 171.51531 
L 204.606016 338.485387 
L 204.878737 362.350634 
L 205.151459 372.805169 
L 205.696902 382.455957 
L 206.242345 386.927562 
L 206.787788 389.521858 
L 207.33323 391.108737 
L 207.878673 392.152913 
L 208.424116 392.805436 
L 209.24228 393.352291 
L 210.060445 393.463518 
L 210.605888 393.354157 
L 211.15133 393.033592 
L 211.696773 392.580622 
L 212.242216 391.827796 
L 212.787659 390.712164 
L 213.333102 389.004312 
L 213.878545 386.298703 
L 214.151266 384.124903 
L 214.423988 380.887819 
L 214.696709 376.098232 
L 214.969431 368.448012 
L 215.242152 352.187584 
L 215.787595 227.834966 
L 216.060316 340.190832 
L 216.333038 362.056028 
L 216.605759 371.685993 
L 217.151202 380.505628 
L 217.696645 384.915814 
L 218.242088 387.545305 
L 218.787531 389.271599 
L 219.605695 390.937551 
L 220.423859 392.007622 
L 221.242024 392.714751 
L 222.332909 393.274239 
L 223.151074 393.485456 
L 224.241959 393.545536 
L 225.332845 393.365969 
L 226.423731 392.884747 
L 227.241895 392.281807 
L 228.060059 391.356183 
L 228.605502 390.519282 
L 229.150945 389.311737 
L 229.696388 387.620257 
L 230.241831 385.082549 
L 230.787274 380.831954 
L 231.059995 377.301021 
L 231.332717 371.997474 
L 231.605438 362.513419 
L 231.878159 342.065354 
L 232.150881 245.324163 
L 232.696324 350.468127 
L 232.969045 367.241362 
L 233.241767 375.287436 
L 233.78721 383.260625 
L 234.332652 387.116881 
L 234.878095 389.540246 
L 235.423538 390.965765 
L 236.241702 392.379312 
L 236.787145 392.983568 
L 237.60531 393.489659 
L 238.423474 393.668348 
L 239.241638 393.618031 
L 239.787081 393.408044 
L 240.332524 393.025118 
L 241.150688 392.10971 
L 241.696131 391.139038 
L 242.514295 388.85922 
L 243.059738 386.221306 
L 243.33246 384.306995 
L 243.877903 377.474227 
L 244.150624 371.000667 
L 244.423345 358.96294 
L 244.696067 326.348017 
L 244.724529 -1 
M 245.212956 -1 
L 245.24151 327.519103 
L 245.514231 359.507063 
L 245.786953 371.32881 
L 246.059674 378.002353 
L 246.605117 384.770748 
L 247.15056 388.099135 
L 247.696003 390.153107 
L 248.241446 391.385713 
L 249.05961 392.720599 
L 249.605053 393.258214 
L 250.423217 393.687933 
L 251.241381 393.83851 
L 252.059546 393.736947 
L 252.87771 393.356285 
L 253.423153 392.906107 
L 253.968596 392.1569 
L 254.514039 391.100499 
L 255.059481 389.500187 
L 255.604924 387.21092 
L 255.877646 385.480229 
L 256.423089 379.585899 
L 256.69581 374.160476 
L 256.968531 365.233531 
L 257.241253 345.127313 
L 257.513974 253.836731 
L 257.786696 291.215331 
L 258.059417 352.397955 
L 258.332139 368.917931 
L 258.60486 377.18522 
L 259.150303 384.958857 
L 259.695746 388.678383 
L 260.241189 390.945144 
L 260.786632 392.37828 
L 261.332074 393.278695 
L 261.877517 393.794459 
L 262.695682 394.23295 
L 263.241124 394.330884 
L 264.059289 394.131721 
L 264.604732 393.773535 
L 265.150174 393.12537 
L 265.695617 392.264917 
L 266.24106 390.715795 
L 266.786503 388.289916 
L 267.059224 386.678497 
L 267.604667 380.916798 
L 267.877389 375.678142 
L 268.15011 365.718787 
L 268.422832 344.643282 
L 268.695553 238.242621 
L 269.240996 353.643882 
L 269.513717 369.621764 
L 270.05916 382.172548 
L 270.604603 387.527805 
L 271.150046 390.396415 
L 271.695489 392.104773 
L 272.240932 393.232619 
L 272.786375 393.919242 
L 273.87726 394.525398 
L 274.422703 394.532469 
L 274.968146 394.336142 
L 275.78631 393.660763 
L 276.331753 392.789052 
L 276.877196 391.40342 
L 277.422639 389.164468 
L 277.69536 387.695595 
L 278.240803 382.535155 
L 278.513525 378.293694 
L 278.786246 370.641701 
L 279.058968 355.829932 
L 279.331689 310.330472 
L 279.60441 189.522312 
L 279.877132 342.083007 
L 280.149853 366.782976 
L 280.422575 377.499819 
L 280.695296 383.231372 
L 281.240739 389.103206 
L 281.786182 392.109152 
L 282.331625 393.672199 
L 282.877068 394.474715 
L 283.422511 394.695997 
L 283.695232 394.628058 
L 284.240675 394.049731 
L 284.786118 392.669349 
L 285.058839 391.651627 
L 285.604282 388.288262 
L 286.149725 381.535985 
L 286.422446 374.786846 
L 286.695168 361.299728 
L 286.967889 325.842895 
L 287.157113 -1 
M 287.322444 -1 
L 287.513332 335.424138 
L 287.786054 365.981182 
L 288.058775 378.048628 
L 288.604218 388.622788 
L 288.876939 391.313058 
L 289.422382 393.890626 
L 289.695104 394.566855 
L 289.967825 394.788875 
L 290.240546 394.611469 
L 290.513268 394.140397 
L 290.785989 393.305068 
L 291.058711 391.773126 
L 291.331432 389.377231 
L 291.604154 385.688782 
L 291.876875 380.34656 
L 292.149596 369.966537 
L 292.422318 346.988078 
L 292.695039 231.515721 
L 293.240482 355.810627 
L 293.513204 372.154443 
L 293.785925 380.520009 
L 294.331368 388.227271 
L 294.876811 391.741875 
L 295.422254 393.621272 
L 295.967697 394.595215 
L 296.513139 394.971938 
L 297.058582 394.850233 
L 297.604025 394.27616 
L 297.876747 393.690054 
L 298.422189 391.621909 
L 298.967632 387.76108 
L 299.240354 384.477325 
L 299.513075 379.596364 
L 299.785797 371.489004 
L 300.058518 354.133755 
L 300.331239 291.445144 
L 300.603961 256.979983 
L 300.876682 347.177919 
L 301.149404 367.471339 
L 301.694847 381.750539 
L 302.24029 387.65569 
L 302.785732 390.649992 
L 303.331175 392.472537 
L 304.14934 393.957474 
L 304.694782 394.590893 
L 305.240225 394.946348 
L 305.785668 395.041161 
L 306.331111 394.883129 
L 306.876554 394.494448 
L 307.694718 393.49843 
L 308.240161 392.171686 
L 308.785604 390.318826 
L 309.331047 387.03527 
L 309.603768 384.500601 
L 310.149211 374.820759 
L 310.421933 363.485559 
L 310.694654 335.374404 
L 310.967375 26.775765 
L 311.240097 321.019139 
L 311.512818 358.402787 
L 311.78554 371.394269 
L 312.058261 378.587068 
L 312.603704 385.707393 
L 313.149147 389.352457 
L 313.69459 391.584877 
L 314.240033 392.957973 
L 314.785475 393.888736 
L 315.330918 394.517554 
L 316.149083 394.976775 
L 316.694526 395.110183 
L 317.239968 395.074371 
L 318.058133 394.73838 
L 318.603576 394.301406 
L 319.149018 393.636887 
L 319.694461 392.575515 
L 320.239904 390.979519 
L 320.785347 388.587455 
L 321.058068 386.856748 
L 321.603511 380.779112 
L 321.876233 375.535478 
L 322.148954 365.656472 
L 322.421676 342.333044 
L 322.694397 212.493924 
L 322.967119 308.232309 
L 323.23984 358.201166 
L 323.512561 374.27183 
L 324.058004 386.411317 
L 324.603447 391.751867 
L 325.14889 394.015585 
L 325.421611 394.743344 
L 325.967054 395.321134 
L 326.239776 395.26956 
L 326.512497 395.089051 
L 326.785219 394.600348 
L 327.330661 392.944987 
L 327.603383 391.400235 
L 328.148826 385.883189 
L 328.421547 380.840098 
L 328.694269 371.868638 
L 328.96699 353.197495 
L 329.239712 282.43695 
L 329.512433 273.211885 
L 329.785154 350.733003 
L 330.057876 369.361522 
L 330.330597 378.406802 
L 330.87604 386.627236 
L 331.421483 390.59651 
L 331.966926 392.954329 
L 332.512369 394.298331 
L 333.057812 395.054035 
L 333.603254 395.419707 
L 334.148697 395.436508 
L 334.69414 395.123 
L 335.239583 394.396531 
L 335.785026 393.157397 
L 336.330469 391.1495 
L 336.875912 387.503463 
L 337.148633 384.822158 
L 337.421355 380.297282 
L 337.694076 372.748245 
L 337.966797 358.290939 
L 338.239519 315.113608 
L 338.51224 163.767772 
L 338.784962 342.311004 
L 339.057683 367.998852 
L 339.330405 378.692808 
L 339.875847 388.040655 
L 340.42129 392.430459 
L 340.966733 394.561028 
L 341.512176 395.416061 
L 341.784897 395.558058 
L 342.057619 395.485989 
L 342.603062 394.671565 
L 343.148505 392.611293 
L 343.421226 391.123511 
L 343.693948 388.727554 
L 343.966669 385.053539 
L 344.23939 379.584551 
L 344.512112 370.709031 
L 344.784833 349.246394 
L 345.057555 253.596545 
L 345.330276 295.278464 
L 345.602998 354.806762 
L 345.875719 372.299875 
L 346.14844 380.715172 
L 346.693883 388.502805 
L 347.239326 392.404904 
L 347.784769 394.406084 
L 348.330212 395.40403 
L 348.602933 395.674153 
L 349.148376 395.724807 
L 349.693819 395.227745 
L 349.966541 394.730277 
L 350.511983 393.001939 
L 351.057426 389.855444 
L 351.330148 387.231591 
L 351.602869 383.336314 
L 351.875591 377.472019 
L 352.148312 366.110502 
L 352.421033 337.014181 
L 352.693755 5.452587 
L 352.966476 324.598047 
L 353.239198 362.160059 
L 353.511919 375.80634 
L 354.057362 386.664233 
L 354.602805 391.553617 
L 355.148248 393.893017 
L 355.693691 395.205763 
L 356.239134 395.778937 
L 356.511855 395.853951 
L 356.784576 395.786082 
L 357.057298 395.586863 
L 357.330019 395.203097 
L 357.875462 393.8052 
L 358.420905 391.082529 
L 358.966348 386.084669 
L 359.239069 381.702996 
L 359.511791 373.849824 
L 359.784512 358.440844 
L 360.057234 310.472605 
L 360.329955 203.119924 
L 360.602676 346.048214 
L 360.875398 370.489491 
L 361.420841 386.665521 
L 361.966284 392.665973 
L 362.511726 395.298161 
L 362.784448 395.871424 
L 363.057169 396.010511 
L 363.329891 395.801889 
L 363.602612 395.204366 
L 363.875334 394.084983 
L 364.420777 390.263708 
L 364.693498 386.410416 
L 364.966219 380.155265 
L 365.238941 368.886249 
L 365.511662 343.206949 
L 365.784384 145.961993 
L 366.057105 318.740472 
L 366.329827 361.278336 
L 366.602548 376.095282 
L 366.875269 383.733502 
L 367.420712 390.912871 
L 367.693434 392.996725 
L 368.238877 395.070868 
L 368.511598 395.646085 
L 369.057041 396.077918 
L 369.329762 395.99752 
L 369.602484 395.716912 
L 369.875205 395.127037 
L 370.147927 394.245631 
L 370.420648 392.848831 
L 370.966091 388.300837 
L 371.238812 384.040033 
L 371.511534 377.032858 
L 371.784255 363.373231 
L 372.056977 325.720061 
L 372.329698 16.186046 
L 372.60242 339.940429 
L 372.875141 368.674806 
L 373.147862 380.508208 
L 373.420584 386.950504 
L 373.966027 392.891401 
L 374.51147 395.707255 
L 374.784191 396.405954 
L 375.056912 396.657673 
L 375.329634 396.59937 
L 375.602355 396.18374 
L 376.147798 394.079205 
L 376.42052 392.09876 
L 376.693241 389.282201 
L 376.965963 384.633096 
L 377.238684 376.608796 
L 377.511405 360.514815 
L 377.784127 311.258723 
L 378.056848 212.601833 
L 378.32957 348.371573 
L 378.602291 372.440312 
L 378.875013 383.027575 
L 379.420455 392.484822 
L 379.693177 394.718222 
L 380.23862 396.589404 
L 380.511341 396.788596 
L 380.784063 396.408392 
L 381.056784 395.403713 
L 381.329505 393.633655 
L 381.602227 390.867112 
L 381.874948 386.593451 
L 382.14767 379.109639 
L 382.420391 364.56626 
L 382.693113 323.34314 
L 382.965834 121.725387 
L 383.238556 344.038703 
L 383.511277 371.140215 
L 383.783998 382.532584 
L 384.329441 392.507342 
L 384.602163 394.843235 
L 384.874884 396.218526 
L 385.147606 396.857863 
L 385.420327 396.866076 
L 385.693048 396.470075 
L 385.96577 395.309055 
L 386.238491 393.230864 
L 386.511213 389.856526 
L 386.783934 384.334836 
L 387.056656 374.52088 
L 387.329377 352.976318 
L 387.602098 254.055674 
L 388.147541 359.254462 
L 388.420263 376.10839 
L 388.692984 384.610529 
L 389.238427 392.806218 
L 389.511148 394.499164 
L 389.511148 394.499164 
" clip-path="url(#p2e60df0599)" style="fill: none; stroke: #1f77b4; stroke-width: 3; stroke-linecap: square"/>
   </g>
   <g id="patch_3">
    <path d="M 103.44 345.2325 
L 103.44 38.088 
" style="fill: none; stroke: #000000; stroke-width: 2; stroke-linejoin: miter; stroke-linecap: square"/>
   </g>
   <g id="patch_4">
    <path d="M 403.133584 345.2325 
L 403.133584 38.088 
" style="fill: none; stroke: #000000; stroke-width: 2; stroke-linejoin: miter; stroke-linecap: square"/>
   </g>
   <g id="patch_5">
    <path d="M 103.44 345.2325 
L 403.133584 345.2325 
" style="fill: none; stroke: #000000; stroke-width: 2; stroke-linejoin: miter; stroke-linecap: square"/>
   </g>
   <g id="patch_6">
    <path d="M 103.44 38.088 
L 403.133584 38.088 
" style="fill: none; stroke: #000000; stroke-width: 2; stroke-linejoin: miter; stroke-linecap: square"/>
   </g>
  </g>
  <g id="axes_2">
   <g id="patch_7">
    <path d="M 536.226416 345.2325 
L 835.92 345.2325 
L 835.92 38.088 
L 536.226416 38.088 
z
" style="fill: #ffffff"/>
   </g>
   <g id="matplotlib.axis_3">
    <g id="xtick_4">
     <g id="line2d_26">
      <path d="M 549.848852 345.2325 
L 549.848852 38.088 
" clip-path="url(#pc7b7df07d0)" style="fill: none; stroke-dasharray: 3.7,1.6; stroke-dashoffset: 0; stroke: #b0b0b0; stroke-opacity: 0.5"/>
     </g>
     <g id="line2d_27">
      <g>
       <use xlink:href="#mf97955dba8" x="549.848852" y="345.2325" style="stroke: #000000; stroke-width: 2"/>
      </g>
     </g>
     <g id="line2d_28">
      <g>
       <use xlink:href="#m1983d6447f" x="549.848852" y="38.088" style="stroke: #000000; stroke-width: 2"/>
      </g>
     </g>
     <g id="text_11">
      <!-- 0 -->
      <g transform="translate(541.577602 368.488437) scale(0.26 -0.26)">
       <use xlink:href="#DejaVuSerif-30"/>
      </g>
     </g>
    </g>
    <g id="xtick_5">
     <g id="line2d_29">
      <path d="M 658.828337 345.2325 
L 658.828337 38.088 
" clip-path="url(#pc7b7df07d0)" style="fill: none; stroke-dasharray: 3.7,1.6; stroke-dashoffset: 0; stroke: #b0b0b0; stroke-opacity: 0.5"/>
     </g>
     <g id="line2d_30">
      <g>
       <use xlink:href="#mf97955dba8" x="658.828337" y="345.2325" style="stroke: #000000; stroke-width: 2"/>
      </g>
     </g>
     <g id="line2d_31">
      <g>
       <use xlink:href="#m1983d6447f" x="658.828337" y="38.088" style="stroke: #000000; stroke-width: 2"/>
      </g>
     </g>
     <g id="text_12">
      <!-- 1000 -->
      <g transform="translate(625.743337 368.488437) scale(0.26 -0.26)">
       <use xlink:href="#DejaVuSerif-31"/>
       <use xlink:href="#DejaVuSerif-30" x="63.623047"/>
       <use xlink:href="#DejaVuSerif-30" x="127.246094"/>
       <use xlink:href="#DejaVuSerif-30" x="190.869141"/>
      </g>
     </g>
    </g>
    <g id="xtick_6">
     <g id="line2d_32">
      <path d="M 767.807822 345.2325 
L 767.807822 38.088 
" clip-path="url(#pc7b7df07d0)" style="fill: none; stroke-dasharray: 3.7,1.6; stroke-dashoffset: 0; stroke: #b0b0b0; stroke-opacity: 0.5"/>
     </g>
     <g id="line2d_33">
      <g>
       <use xlink:href="#mf97955dba8" x="767.807822" y="345.2325" style="stroke: #000000; stroke-width: 2"/>
      </g>
     </g>
     <g id="line2d_34">
      <g>
       <use xlink:href="#m1983d6447f" x="767.807822" y="38.088" style="stroke: #000000; stroke-width: 2"/>
      </g>
     </g>
     <g id="text_13">
      <!-- 2000 -->
      <g transform="translate(734.722822 368.488437) scale(0.26 -0.26)">
       <use xlink:href="#DejaVuSerif-32"/>
       <use xlink:href="#DejaVuSerif-30" x="63.623047"/>
       <use xlink:href="#DejaVuSerif-30" x="127.246094"/>
       <use xlink:href="#DejaVuSerif-30" x="190.869141"/>
      </g>
     </g>
    </g>
    <g id="text_14">
     <!-- $t$ (a.u.) -->
     <g transform="translate(642.653208 397.651563) scale(0.26 -0.26)">
      <use xlink:href="#Cmmi10-74" transform="translate(0 0.015625)"/>
      <use xlink:href="#DejaVuSerif-20" transform="translate(36.083984 0.015625)"/>
      <use xlink:href="#DejaVuSerif-28" transform="translate(67.871094 0.015625)"/>
      <use xlink:href="#DejaVuSerif-61" transform="translate(106.884766 0.015625)"/>
      <use xlink:href="#DejaVuSerif-2e" transform="translate(166.503906 0.015625)"/>
      <use xlink:href="#DejaVuSerif-75" transform="translate(198.291016 0.015625)"/>
      <use xlink:href="#DejaVuSerif-2e" transform="translate(262.695312 0.015625)"/>
      <use xlink:href="#DejaVuSerif-29" transform="translate(294.482422 0.015625)"/>
     </g>
    </g>
   </g>
   <g id="matplotlib.axis_4">
    <g id="ytick_6">
     <g id="line2d_35">
      <path d="M 536.226416 345.2325 
L 835.92 345.2325 
" clip-path="url(#pc7b7df07d0)" style="fill: none; stroke-dasharray: 3.7,1.6; stroke-dashoffset: 0; stroke: #b0b0b0; stroke-opacity: 0.5"/>
     </g>
     <g id="line2d_36">
      <g>
       <use xlink:href="#m8825ed4ee9" x="536.226416" y="345.2325" style="stroke: #000000; stroke-width: 2"/>
      </g>
     </g>
     <g id="line2d_37">
      <g>
       <use xlink:href="#m5506a56f1c" x="835.92" y="345.2325" style="stroke: #000000; stroke-width: 2"/>
      </g>
     </g>
     <g id="text_15">
      <!-- $\mathdefault{0}$ -->
      <g transform="translate(516.086416 355.110469) scale(0.26 -0.26)">
       <use xlink:href="#DejaVuSerif-30" transform="translate(0 0.78125)"/>
      </g>
     </g>
    </g>
    <g id="ytick_7">
     <g id="line2d_38">
      <path d="M 536.226416 314.51805 
L 835.92 314.51805 
" clip-path="url(#pc7b7df07d0)" style="fill: none; stroke-dasharray: 3.7,1.6; stroke-dashoffset: 0; stroke: #b0b0b0; stroke-opacity: 0.5"/>
     </g>
     <g id="line2d_39">
      <g>
       <use xlink:href="#m8825ed4ee9" x="536.226416" y="314.51805" style="stroke: #000000; stroke-width: 2"/>
      </g>
     </g>
     <g id="line2d_40">
      <g>
       <use xlink:href="#m5506a56f1c" x="835.92" y="314.51805" style="stroke: #000000; stroke-width: 2"/>
      </g>
     </g>
     <g id="text_16">
      <!-- $\mathdefault{10^{-10}}$ -->
      <g transform="translate(460.186416 324.396019) scale(0.26 -0.26)">
       <use xlink:href="#DejaVuSerif-31" transform="translate(0 0.7125)"/>
       <use xlink:href="#DejaVuSerif-30" transform="translate(63.623047 0.7125)"/>
       <use xlink:href="#DejaVuSerif-2212" transform="translate(128.154453 37.046875) scale(0.7)"/>
       <use xlink:href="#DejaVuSerif-31" transform="translate(186.806797 37.046875) scale(0.7)"/>
       <use xlink:href="#DejaVuSerif-30" transform="translate(231.34293 37.046875) scale(0.7)"/>
      </g>
     </g>
    </g>
    <g id="ytick_8">
     <g id="line2d_41">
      <path d="M 536.226416 286.875045 
L 835.92 286.875045 
" clip-path="url(#pc7b7df07d0)" style="fill: none; stroke-dasharray: 3.7,1.6; stroke-dashoffset: 0; stroke: #b0b0b0; stroke-opacity: 0.5"/>
     </g>
     <g id="line2d_42">
      <g>
       <use xlink:href="#m8825ed4ee9" x="536.226416" y="286.875045" style="stroke: #000000; stroke-width: 2"/>
      </g>
     </g>
     <g id="line2d_43">
      <g>
       <use xlink:href="#m5506a56f1c" x="835.92" y="286.875045" style="stroke: #000000; stroke-width: 2"/>
      </g>
     </g>
     <g id="text_17">
      <!-- $\mathdefault{10^{-9}}$ -->
      <g transform="translate(471.886416 296.753014) scale(0.26 -0.26)">
       <defs>
        <path id="DejaVuSerif-39" d="M 2994 2091 
Q 2784 1856 2512 1740 
Q 2241 1625 1900 1625 
Q 1206 1625 804 2044 
Q 403 2463 403 3188 
Q 403 3897 839 4323 
Q 1275 4750 2003 4750 
Q 2794 4750 3217 4161 
Q 3641 3572 3641 2478 
Q 3641 1253 3137 581 
Q 2634 -91 1722 -91 
Q 1475 -91 1203 -44 
Q 931 3 647 97 
L 647 872 
L 997 872 
Q 1038 556 1241 387 
Q 1444 219 1784 219 
Q 2391 219 2687 676 
Q 2984 1134 2994 2091 
z
M 1978 4441 
Q 1534 4441 1298 4117 
Q 1063 3794 1063 3188 
Q 1063 2581 1298 2256 
Q 1534 1931 1978 1931 
Q 2422 1931 2658 2245 
Q 2894 2559 2894 3150 
Q 2894 3772 2656 4106 
Q 2419 4441 1978 4441 
z
" transform="scale(0.015625)"/>
       </defs>
       <use xlink:href="#DejaVuSerif-31" transform="translate(0 0.7125)"/>
       <use xlink:href="#DejaVuSerif-30" transform="translate(63.623047 0.7125)"/>
       <use xlink:href="#DejaVuSerif-2212" transform="translate(128.154453 37.046875) scale(0.7)"/>
       <use xlink:href="#DejaVuSerif-39" transform="translate(186.806797 37.046875) scale(0.7)"/>
      </g>
     </g>
    </g>
    <g id="ytick_9">
     <g id="line2d_44">
      <path d="M 536.226416 259.23204 
L 835.92 259.23204 
" clip-path="url(#pc7b7df07d0)" style="fill: none; stroke-dasharray: 3.7,1.6; stroke-dashoffset: 0; stroke: #b0b0b0; stroke-opacity: 0.5"/>
     </g>
     <g id="line2d_45">
      <g>
       <use xlink:href="#m8825ed4ee9" x="536.226416" y="259.23204" style="stroke: #000000; stroke-width: 2"/>
      </g>
     </g>
     <g id="line2d_46">
      <g>
       <use xlink:href="#m5506a56f1c" x="835.92" y="259.23204" style="stroke: #000000; stroke-width: 2"/>
      </g>
     </g>
     <g id="text_18">
      <!-- $\mathdefault{10^{-8}}$ -->
      <g transform="translate(471.886416 269.110009) scale(0.26 -0.26)">
       <defs>
        <path id="DejaVuSerif-38" d="M 2981 1275 
Q 2981 1775 2732 2051 
Q 2484 2328 2034 2328 
Q 1584 2328 1336 2051 
Q 1088 1775 1088 1275 
Q 1088 772 1336 495 
Q 1584 219 2034 219 
Q 2484 219 2732 495 
Q 2981 772 2981 1275 
z
M 2853 3541 
Q 2853 3966 2637 4203 
Q 2422 4441 2034 4441 
Q 1650 4441 1433 4203 
Q 1216 3966 1216 3541 
Q 1216 3113 1433 2875 
Q 1650 2638 2034 2638 
Q 2422 2638 2637 2875 
Q 2853 3113 2853 3541 
z
M 2516 2484 
Q 3047 2413 3344 2092 
Q 3641 1772 3641 1275 
Q 3641 619 3225 264 
Q 2809 -91 2034 -91 
Q 1263 -91 845 264 
Q 428 619 428 1275 
Q 428 1772 725 2092 
Q 1022 2413 1556 2484 
Q 1084 2569 832 2842 
Q 581 3116 581 3541 
Q 581 4103 968 4426 
Q 1356 4750 2034 4750 
Q 2713 4750 3100 4426 
Q 3488 4103 3488 3541 
Q 3488 3116 3236 2842 
Q 2984 2569 2516 2484 
z
" transform="scale(0.015625)"/>
       </defs>
       <use xlink:href="#DejaVuSerif-31" transform="translate(0 0.7125)"/>
       <use xlink:href="#DejaVuSerif-30" transform="translate(63.623047 0.7125)"/>
       <use xlink:href="#DejaVuSerif-2212" transform="translate(128.154453 37.046875) scale(0.7)"/>
       <use xlink:href="#DejaVuSerif-38" transform="translate(186.806797 37.046875) scale(0.7)"/>
      </g>
     </g>
    </g>
    <g id="ytick_10">
     <g id="line2d_47">
      <path d="M 536.226416 231.589035 
L 835.92 231.589035 
" clip-path="url(#pc7b7df07d0)" style="fill: none; stroke-dasharray: 3.7,1.6; stroke-dashoffset: 0; stroke: #b0b0b0; stroke-opacity: 0.5"/>
     </g>
     <g id="line2d_48">
      <g>
       <use xlink:href="#m8825ed4ee9" x="536.226416" y="231.589035" style="stroke: #000000; stroke-width: 2"/>
      </g>
     </g>
     <g id="line2d_49">
      <g>
       <use xlink:href="#m5506a56f1c" x="835.92" y="231.589035" style="stroke: #000000; stroke-width: 2"/>
      </g>
     </g>
     <g id="text_19">
      <!-- $\mathdefault{10^{-7}}$ -->
      <g transform="translate(471.886416 241.467004) scale(0.26 -0.26)">
       <defs>
        <path id="DejaVuSerif-37" d="M 3609 4347 
L 1784 0 
L 1319 0 
L 3059 4153 
L 903 4153 
L 903 3578 
L 538 3578 
L 538 4666 
L 3609 4666 
L 3609 4347 
z
" transform="scale(0.015625)"/>
       </defs>
       <use xlink:href="#DejaVuSerif-31" transform="translate(0 0.63125)"/>
       <use xlink:href="#DejaVuSerif-30" transform="translate(63.623047 0.63125)"/>
       <use xlink:href="#DejaVuSerif-2212" transform="translate(128.154453 36.965625) scale(0.7)"/>
       <use xlink:href="#DejaVuSerif-37" transform="translate(186.806797 36.965625) scale(0.7)"/>
      </g>
     </g>
    </g>
    <g id="ytick_11">
     <g id="line2d_50">
      <path d="M 536.226416 203.94603 
L 835.92 203.94603 
" clip-path="url(#pc7b7df07d0)" style="fill: none; stroke-dasharray: 3.7,1.6; stroke-dashoffset: 0; stroke: #b0b0b0; stroke-opacity: 0.5"/>
     </g>
     <g id="line2d_51">
      <g>
       <use xlink:href="#m8825ed4ee9" x="536.226416" y="203.94603" style="stroke: #000000; stroke-width: 2"/>
      </g>
     </g>
     <g id="line2d_52">
      <g>
       <use xlink:href="#m5506a56f1c" x="835.92" y="203.94603" style="stroke: #000000; stroke-width: 2"/>
      </g>
     </g>
     <g id="text_20">
      <!-- $\mathdefault{10^{-6}}$ -->
      <g transform="translate(471.886416 213.823999) scale(0.26 -0.26)">
       <defs>
        <path id="DejaVuSerif-36" d="M 2094 219 
Q 2534 219 2771 542 
Q 3009 866 3009 1472 
Q 3009 2078 2771 2401 
Q 2534 2725 2094 2725 
Q 1647 2725 1412 2412 
Q 1178 2100 1178 1509 
Q 1178 888 1415 553 
Q 1653 219 2094 219 
z
M 1075 2569 
Q 1288 2803 1556 2918 
Q 1825 3034 2163 3034 
Q 2859 3034 3264 2615 
Q 3669 2197 3669 1472 
Q 3669 763 3233 336 
Q 2797 -91 2069 -91 
Q 1278 -91 853 498 
Q 428 1088 428 2181 
Q 428 3406 931 4078 
Q 1434 4750 2350 4750 
Q 2597 4750 2869 4703 
Q 3141 4656 3425 4563 
L 3425 3794 
L 3072 3794 
Q 3034 4109 2831 4275 
Q 2628 4441 2284 4441 
Q 1678 4441 1381 3981 
Q 1084 3522 1075 2569 
z
" transform="scale(0.015625)"/>
       </defs>
       <use xlink:href="#DejaVuSerif-31" transform="translate(0 0.7125)"/>
       <use xlink:href="#DejaVuSerif-30" transform="translate(63.623047 0.7125)"/>
       <use xlink:href="#DejaVuSerif-2212" transform="translate(128.154453 37.046875) scale(0.7)"/>
       <use xlink:href="#DejaVuSerif-36" transform="translate(186.806797 37.046875) scale(0.7)"/>
      </g>
     </g>
    </g>
    <g id="ytick_12">
     <g id="line2d_53">
      <path d="M 536.226416 176.303025 
L 835.92 176.303025 
" clip-path="url(#pc7b7df07d0)" style="fill: none; stroke-dasharray: 3.7,1.6; stroke-dashoffset: 0; stroke: #b0b0b0; stroke-opacity: 0.5"/>
     </g>
     <g id="line2d_54">
      <g>
       <use xlink:href="#m8825ed4ee9" x="536.226416" y="176.303025" style="stroke: #000000; stroke-width: 2"/>
      </g>
     </g>
     <g id="line2d_55">
      <g>
       <use xlink:href="#m5506a56f1c" x="835.92" y="176.303025" style="stroke: #000000; stroke-width: 2"/>
      </g>
     </g>
     <g id="text_21">
      <!-- $\mathdefault{10^{-5}}$ -->
      <g transform="translate(471.886416 186.180994) scale(0.26 -0.26)">
       <defs>
        <path id="DejaVuSerif-35" d="M 3219 4666 
L 3219 4153 
L 1081 4153 
L 1081 2816 
Q 1244 2928 1461 2984 
Q 1678 3041 1947 3041 
Q 2703 3041 3140 2622 
Q 3578 2203 3578 1478 
Q 3578 738 3136 323 
Q 2694 -91 1894 -91 
Q 1572 -91 1234 -12 
Q 897 66 544 225 
L 544 1131 
L 897 1131 
Q 925 688 1179 453 
Q 1434 219 1894 219 
Q 2388 219 2653 544 
Q 2919 869 2919 1478 
Q 2919 2084 2655 2407 
Q 2391 2731 1894 2731 
Q 1613 2731 1398 2631 
Q 1184 2531 1019 2322 
L 750 2322 
L 750 4666 
L 3219 4666 
z
" transform="scale(0.015625)"/>
       </defs>
       <use xlink:href="#DejaVuSerif-31" transform="translate(0 0.63125)"/>
       <use xlink:href="#DejaVuSerif-30" transform="translate(63.623047 0.63125)"/>
       <use xlink:href="#DejaVuSerif-2212" transform="translate(128.154453 36.965625) scale(0.7)"/>
       <use xlink:href="#DejaVuSerif-35" transform="translate(186.806797 36.965625) scale(0.7)"/>
      </g>
     </g>
    </g>
    <g id="ytick_13">
     <g id="line2d_56">
      <path d="M 536.226416 148.66002 
L 835.92 148.66002 
" clip-path="url(#pc7b7df07d0)" style="fill: none; stroke-dasharray: 3.7,1.6; stroke-dashoffset: 0; stroke: #b0b0b0; stroke-opacity: 0.5"/>
     </g>
     <g id="line2d_57">
      <g>
       <use xlink:href="#m8825ed4ee9" x="536.226416" y="148.66002" style="stroke: #000000; stroke-width: 2"/>
      </g>
     </g>
     <g id="line2d_58">
      <g>
       <use xlink:href="#m5506a56f1c" x="835.92" y="148.66002" style="stroke: #000000; stroke-width: 2"/>
      </g>
     </g>
     <g id="text_22">
      <!-- $\mathdefault{10^{-4}}$ -->
      <g transform="translate(471.886416 158.537989) scale(0.26 -0.26)">
       <defs>
        <path id="DejaVuSerif-34" d="M 2234 1581 
L 2234 4063 
L 641 1581 
L 2234 1581 
z
M 3609 0 
L 1484 0 
L 1484 331 
L 2234 331 
L 2234 1247 
L 197 1247 
L 197 1588 
L 2241 4750 
L 2859 4750 
L 2859 1581 
L 3750 1581 
L 3750 1247 
L 2859 1247 
L 2859 331 
L 3609 331 
L 3609 0 
z
" transform="scale(0.015625)"/>
       </defs>
       <use xlink:href="#DejaVuSerif-31" transform="translate(0 0.7125)"/>
       <use xlink:href="#DejaVuSerif-30" transform="translate(63.623047 0.7125)"/>
       <use xlink:href="#DejaVuSerif-2212" transform="translate(128.154453 37.046875) scale(0.7)"/>
       <use xlink:href="#DejaVuSerif-34" transform="translate(186.806797 37.046875) scale(0.7)"/>
      </g>
     </g>
    </g>
    <g id="ytick_14">
     <g id="line2d_59">
      <path d="M 536.226416 121.017015 
L 835.92 121.017015 
" clip-path="url(#pc7b7df07d0)" style="fill: none; stroke-dasharray: 3.7,1.6; stroke-dashoffset: 0; stroke: #b0b0b0; stroke-opacity: 0.5"/>
     </g>
     <g id="line2d_60">
      <g>
       <use xlink:href="#m8825ed4ee9" x="536.226416" y="121.017015" style="stroke: #000000; stroke-width: 2"/>
      </g>
     </g>
     <g id="line2d_61">
      <g>
       <use xlink:href="#m5506a56f1c" x="835.92" y="121.017015" style="stroke: #000000; stroke-width: 2"/>
      </g>
     </g>
     <g id="text_23">
      <!-- $\mathdefault{10^{-3}}$ -->
      <g transform="translate(471.886416 130.894984) scale(0.26 -0.26)">
       <defs>
        <path id="DejaVuSerif-33" d="M 622 4469 
Q 988 4606 1323 4678 
Q 1659 4750 1953 4750 
Q 2638 4750 3022 4454 
Q 3406 4159 3406 3634 
Q 3406 3213 3140 2930 
Q 2875 2647 2388 2547 
Q 2963 2466 3280 2130 
Q 3597 1794 3597 1259 
Q 3597 606 3158 257 
Q 2719 -91 1894 -91 
Q 1528 -91 1179 -12 
Q 831 66 488 225 
L 488 1131 
L 838 1131 
Q 869 681 1141 450 
Q 1413 219 1906 219 
Q 2384 219 2661 495 
Q 2938 772 2938 1253 
Q 2938 1803 2653 2086 
Q 2369 2369 1819 2369 
L 1522 2369 
L 1522 2688 
L 1678 2688 
Q 2225 2688 2498 2914 
Q 2772 3141 2772 3597 
Q 2772 4006 2547 4223 
Q 2322 4441 1900 4441 
Q 1478 4441 1245 4241 
Q 1013 4041 972 3647 
L 622 3647 
L 622 4469 
z
" transform="scale(0.015625)"/>
       </defs>
       <use xlink:href="#DejaVuSerif-31" transform="translate(0 0.7125)"/>
       <use xlink:href="#DejaVuSerif-30" transform="translate(63.623047 0.7125)"/>
       <use xlink:href="#DejaVuSerif-2212" transform="translate(128.154453 37.046875) scale(0.7)"/>
       <use xlink:href="#DejaVuSerif-33" transform="translate(186.806797 37.046875) scale(0.7)"/>
      </g>
     </g>
    </g>
    <g id="ytick_15">
     <g id="line2d_62">
      <path d="M 536.226416 93.37401 
L 835.92 93.37401 
" clip-path="url(#pc7b7df07d0)" style="fill: none; stroke-dasharray: 3.7,1.6; stroke-dashoffset: 0; stroke: #b0b0b0; stroke-opacity: 0.5"/>
     </g>
     <g id="line2d_63">
      <g>
       <use xlink:href="#m8825ed4ee9" x="536.226416" y="93.37401" style="stroke: #000000; stroke-width: 2"/>
      </g>
     </g>
     <g id="line2d_64">
      <g>
       <use xlink:href="#m5506a56f1c" x="835.92" y="93.37401" style="stroke: #000000; stroke-width: 2"/>
      </g>
     </g>
     <g id="text_24">
      <!-- $\mathdefault{10^{-2}}$ -->
      <g transform="translate(471.886416 103.251979) scale(0.26 -0.26)">
       <use xlink:href="#DejaVuSerif-31" transform="translate(0 0.7125)"/>
       <use xlink:href="#DejaVuSerif-30" transform="translate(63.623047 0.7125)"/>
       <use xlink:href="#DejaVuSerif-2212" transform="translate(128.154453 37.046875) scale(0.7)"/>
       <use xlink:href="#DejaVuSerif-32" transform="translate(186.806797 37.046875) scale(0.7)"/>
      </g>
     </g>
    </g>
    <g id="ytick_16">
     <g id="line2d_65">
      <path d="M 536.226416 65.731005 
L 835.92 65.731005 
" clip-path="url(#pc7b7df07d0)" style="fill: none; stroke-dasharray: 3.7,1.6; stroke-dashoffset: 0; stroke: #b0b0b0; stroke-opacity: 0.5"/>
     </g>
     <g id="line2d_66">
      <g>
       <use xlink:href="#m8825ed4ee9" x="536.226416" y="65.731005" style="stroke: #000000; stroke-width: 2"/>
      </g>
     </g>
     <g id="line2d_67">
      <g>
       <use xlink:href="#m5506a56f1c" x="835.92" y="65.731005" style="stroke: #000000; stroke-width: 2"/>
      </g>
     </g>
     <g id="text_25">
      <!-- $\mathdefault{10^{-1}}$ -->
      <g transform="translate(471.886416 75.608974) scale(0.26 -0.26)">
       <use xlink:href="#DejaVuSerif-31" transform="translate(0 0.7125)"/>
       <use xlink:href="#DejaVuSerif-30" transform="translate(63.623047 0.7125)"/>
       <use xlink:href="#DejaVuSerif-2212" transform="translate(128.154453 37.046875) scale(0.7)"/>
       <use xlink:href="#DejaVuSerif-31" transform="translate(186.806797 37.046875) scale(0.7)"/>
      </g>
     </g>
    </g>
    <g id="ytick_17">
     <g id="line2d_68">
      <path d="M 536.226416 38.088 
L 835.92 38.088 
" clip-path="url(#pc7b7df07d0)" style="fill: none; stroke-dasharray: 3.7,1.6; stroke-dashoffset: 0; stroke: #b0b0b0; stroke-opacity: 0.5"/>
     </g>
     <g id="line2d_69">
      <g>
       <use xlink:href="#m8825ed4ee9" x="536.226416" y="38.088" style="stroke: #000000; stroke-width: 2"/>
      </g>
     </g>
     <g id="line2d_70">
      <g>
       <use xlink:href="#m5506a56f1c" x="835.92" y="38.088" style="stroke: #000000; stroke-width: 2"/>
      </g>
     </g>
     <g id="text_26">
      <!-- $\mathdefault{10^{0}}$ -->
      <g transform="translate(486.966416 47.965969) scale(0.26 -0.26)">
       <use xlink:href="#DejaVuSerif-31" transform="translate(0 0.7125)"/>
       <use xlink:href="#DejaVuSerif-30" transform="translate(63.623047 0.7125)"/>
       <use xlink:href="#DejaVuSerif-30" transform="translate(128.154453 37.046875) scale(0.7)"/>
      </g>
     </g>
    </g>
    <g id="text_27">
     <!-- |E(t) - E(0)| / |E(0)| -->
     <g transform="translate(450.056103 315.146031) rotate(-90) scale(0.26 -0.26)">
      <defs>
       <path id="DejaVuSerif-7c" d="M 1331 4891 
L 1331 -1509 
L 825 -1509 
L 825 4891 
L 1331 4891 
z
" transform="scale(0.015625)"/>
       <path id="DejaVuSerif-45" d="M 353 0 
L 353 331 
L 947 331 
L 947 4331 
L 353 4331 
L 353 4666 
L 4109 4666 
L 4109 3628 
L 3725 3628 
L 3725 4281 
L 1581 4281 
L 1581 2719 
L 3109 2719 
L 3109 3303 
L 3494 3303 
L 3494 1753 
L 3109 1753 
L 3109 2338 
L 1581 2338 
L 1581 384 
L 3775 384 
L 3775 1038 
L 4159 1038 
L 4159 0 
L 353 0 
z
" transform="scale(0.015625)"/>
       <path id="DejaVuSerif-74" d="M 691 2988 
L 184 2988 
L 184 3322 
L 691 3322 
L 691 4353 
L 1269 4353 
L 1269 3322 
L 2350 3322 
L 2350 2988 
L 1269 2988 
L 1269 878 
Q 1269 456 1350 337 
Q 1431 219 1650 219 
Q 1875 219 1978 351 
Q 2081 484 2088 781 
L 2522 781 
Q 2497 328 2275 118 
Q 2053 -91 1600 -91 
Q 1103 -91 897 129 
Q 691 350 691 878 
L 691 2988 
z
" transform="scale(0.015625)"/>
       <path id="DejaVuSerif-2d" d="M 281 1959 
L 1881 1959 
L 1881 1472 
L 281 1472 
L 281 1959 
z
" transform="scale(0.015625)"/>
       <path id="DejaVuSerif-2f" d="M 1656 4666 
L 2156 4666 
L 500 -594 
L 0 -594 
L 1656 4666 
z
" transform="scale(0.015625)"/>
      </defs>
      <use xlink:href="#DejaVuSerif-7c"/>
      <use xlink:href="#DejaVuSerif-45" x="33.691406"/>
      <use xlink:href="#DejaVuSerif-28" x="106.689453"/>
      <use xlink:href="#DejaVuSerif-74" x="145.703125"/>
      <use xlink:href="#DejaVuSerif-29" x="185.888672"/>
      <use xlink:href="#DejaVuSerif-20" x="224.902344"/>
      <use xlink:href="#DejaVuSerif-2d" x="256.689453"/>
      <use xlink:href="#DejaVuSerif-20" x="290.478516"/>
      <use xlink:href="#DejaVuSerif-45" x="322.265625"/>
      <use xlink:href="#DejaVuSerif-28" x="395.263672"/>
      <use xlink:href="#DejaVuSerif-30" x="434.277344"/>
      <use xlink:href="#DejaVuSerif-29" x="497.900391"/>
      <use xlink:href="#DejaVuSerif-7c" x="536.914062"/>
      <use xlink:href="#DejaVuSerif-20" x="570.605469"/>
      <use xlink:href="#DejaVuSerif-2f" x="602.392578"/>
      <use xlink:href="#DejaVuSerif-20" x="636.083984"/>
      <use xlink:href="#DejaVuSerif-7c" x="667.871094"/>
      <use xlink:href="#DejaVuSerif-45" x="701.5625"/>
      <use xlink:href="#DejaVuSerif-28" x="774.560547"/>
      <use xlink:href="#DejaVuSerif-30" x="813.574219"/>
      <use xlink:href="#DejaVuSerif-29" x="877.197266"/>
      <use xlink:href="#DejaVuSerif-7c" x="916.210938"/>
     </g>
    </g>
   </g>
   <g id="line2d_71">
    <path d="M 549.848852 345.2325 
L 550.121573 212.682726 
L 550.667016 199.194109 
L 551.212459 192.753503 
L 552.030623 186.632809 
L 552.848787 182.319355 
L 553.939673 177.915199 
L 555.30328 173.554308 
L 556.939609 169.198029 
L 559.939545 161.515942 
L 561.848595 156.807601 
L 563.757645 152.685881 
L 566.212138 147.908848 
L 571.121123 138.986526 
L 574.666502 132.32639 
L 576.302831 128.894105 
L 577.666438 125.307278 
L 580.666374 116.641607 
L 582.302702 111.339782 
L 583.666309 106.135824 
L 585.029917 100.016105 
L 586.393524 92.94376 
L 587.484409 86.321376 
L 588.302574 80.297062 
L 589.120738 72.303686 
L 589.666181 64.322002 
L 589.938902 58.404441 
L 590.484345 37.577226 
L 590.757067 54.659608 
L 591.30251 69.441354 
L 591.847952 81.976648 
L 592.120674 89.987127 
L 592.393395 104.378725 
L 592.666117 104.762793 
L 592.938838 93.529072 
L 593.21156 88.969373 
L 593.757002 84.251434 
L 594.302445 81.853767 
L 594.847888 80.259059 
L 595.393331 79.238445 
L 595.938774 78.588684 
L 596.484217 78.20241 
L 597.302381 77.949543 
L 597.847824 77.960413 
L 598.393267 78.138337 
L 598.93871 78.505543 
L 599.484153 79.133617 
L 600.029595 80.088692 
L 600.575038 81.575689 
L 601.120481 83.945914 
L 601.393203 85.816177 
L 601.665924 88.534374 
L 601.938645 92.780777 
L 602.211367 101.155742 
L 602.484088 114.7137 
L 602.75681 92.303216 
L 603.302253 76.824451 
L 604.120417 57.191668 
L 604.393138 44.510129 
L 604.66586 44.808287 
L 605.211303 66.385597 
L 605.756746 83.063605 
L 606.029467 97.425264 
L 606.302188 102.406398 
L 606.57491 89.699206 
L 607.120353 82.452478 
L 607.665796 79.915773 
L 608.211238 78.432247 
L 608.756681 77.78404 
L 609.302124 77.7552 
L 609.574846 77.853802 
L 610.120288 78.556701 
L 610.665731 80.300216 
L 611.211174 83.805905 
L 611.483896 87.278726 
L 611.756617 92.636605 
L 612.029339 129.874521 
L 612.30206 90.65897 
L 612.847503 70.49454 
L 613.392946 53.268839 
L 613.665667 26.118144 
L 613.938389 51.594348 
L 614.483831 68.590308 
L 615.029274 82.763609 
L 615.301996 94.491406 
L 615.574717 121.963737 
L 615.847439 96.322546 
L 616.12016 89.222585 
L 616.665603 83.243426 
L 617.211046 80.628175 
L 617.756489 79.086583 
L 618.301932 78.167369 
L 618.847374 77.624764 
L 619.665539 77.233641 
L 620.210982 77.269029 
L 620.756424 77.575233 
L 621.301867 78.19364 
L 621.84731 79.194871 
L 622.392753 80.669072 
L 622.665474 81.689315 
L 623.210917 85.159527 
L 623.483639 88.607177 
L 623.75636 95.280174 
L 624.029082 119.526492 
L 624.301803 94.594797 
L 624.847246 75.534609 
L 625.66541 52.160737 
L 625.938132 17.822608 
L 626.210853 52.80122 
L 626.756296 69.783484 
L 627.301739 86.449717 
L 627.57446 103.86394 
L 627.847182 98.738305 
L 628.119903 89.42436 
L 628.665346 82.680811 
L 629.210789 79.994975 
L 629.756232 78.355066 
L 630.301675 77.380342 
L 630.847117 76.892349 
L 631.39256 76.730823 
L 631.938003 76.815964 
L 632.483446 77.164659 
L 633.028889 77.856722 
L 633.574332 79.082677 
L 633.847053 80.145517 
L 634.392496 83.584287 
L 634.665218 85.940139 
L 634.937939 91.119376 
L 635.21066 104.142187 
L 635.483382 99.262955 
L 635.756103 84.030061 
L 637.11971 36.900297 
L 637.392432 55.118026 
L 638.483318 88.442141 
L 638.756039 113.198361 
L 639.028761 96.048723 
L 639.301482 88.270139 
L 639.574203 84.243202 
L 640.119646 80.351484 
L 640.665089 78.342253 
L 641.210532 77.238436 
L 641.755975 76.591764 
L 642.301418 76.300234 
L 642.846861 76.219361 
L 643.392303 76.382831 
L 643.937746 76.875244 
L 644.483189 77.607386 
L 645.028632 78.932582 
L 645.574075 81.212288 
L 645.846796 82.983301 
L 646.119518 85.844534 
L 646.392239 90.454121 
L 646.664961 102.294744 
L 646.937682 98.610424 
L 647.210404 83.283563 
L 648.574011 40.569528 
L 648.846732 55.562789 
L 649.392175 69.89745 
L 649.937618 82.302734 
L 650.210339 91.252791 
L 650.483061 110.596184 
L 651.028504 92.022406 
L 651.573946 84.990913 
L 652.119389 81.761212 
L 652.664832 79.880199 
L 653.210275 78.602482 
L 653.755718 77.709641 
L 654.573882 76.873687 
L 655.392047 76.364119 
L 656.210211 76.134429 
L 657.028375 76.098206 
L 657.846539 76.25796 
L 658.664704 76.674743 
L 659.482868 77.38774 
L 660.028311 78.116021 
L 660.573754 79.181956 
L 661.119197 80.642383 
L 661.66464 83.032157 
L 661.937361 84.86781 
L 662.210082 87.538547 
L 662.482804 91.614382 
L 662.755525 99.757719 
L 663.028247 115.97855 
L 663.300968 92.191311 
L 663.846411 76.234163 
L 664.664575 56.07144 
L 664.937297 41.982209 
L 665.210018 46.942945 
L 665.755461 66.522372 
L 666.300904 81.145032 
L 666.573625 92.3102 
L 666.846347 141.139122 
L 667.119068 94.665493 
L 667.39179 87.667096 
L 667.937233 81.975258 
L 668.482675 79.588268 
L 669.028118 77.94767 
L 669.573561 76.95394 
L 670.119004 76.372921 
L 670.664447 76.041627 
L 671.20989 75.919048 
L 671.755333 75.923882 
L 672.300776 76.114626 
L 672.846218 76.54585 
L 673.391661 77.318874 
L 673.937104 78.419047 
L 674.482547 80.288181 
L 675.02799 83.743679 
L 675.300711 86.334647 
L 675.573433 91.09806 
L 675.846154 103.348041 
L 676.118876 100.496658 
L 676.391597 84.918651 
L 677.482483 52.354566 
L 677.755204 4.435806 
L 678.027926 52.595132 
L 678.573368 69.58827 
L 679.118811 86.46711 
L 679.391533 107.314612 
L 680.209697 85.130732 
L 680.75514 80.872585 
L 681.573304 78.006356 
L 682.118747 76.870146 
L 682.66419 76.26496 
L 683.209633 75.890723 
L 684.027797 75.675154 
L 684.57324 75.727258 
L 685.118683 75.955331 
L 685.664126 76.37963 
L 686.209569 77.076825 
L 686.755012 78.335191 
L 687.300454 80.36875 
L 687.573176 81.884327 
L 688.118619 87.572501 
L 688.39134 94.033448 
L 688.664062 128.607202 
L 688.936783 90.902181 
L 689.482226 72.290645 
L 690.027669 56.951648 
L 690.30039 42.735014 
L 690.573112 46.748342 
L 691.118554 67.686885 
L 691.663997 86.65085 
L 691.936719 111.771661 
L 692.20944 94.090009 
L 692.482162 86.974922 
L 692.754883 82.91593 
L 693.300326 79.127946 
L 693.845769 77.062817 
L 694.391212 76.064126 
L 695.209376 75.257785 
L 695.754819 75.027471 
L 696.300262 75.035653 
L 696.845705 75.266177 
L 697.391147 75.767698 
L 697.93659 76.73219 
L 698.209312 77.299171 
L 698.482033 78.145424 
L 698.754755 79.354317 
L 699.027476 81.20412 
L 699.300197 83.903651 
L 699.572919 88.477956 
L 699.84564 98.151295 
L 700.118362 98.996928 
L 700.663805 74.035914 
L 701.209248 56.808139 
L 701.481969 41.390035 
L 701.75469 47.691693 
L 702.300133 68.211549 
L 702.572855 76.015502 
L 702.845576 87.330561 
L 703.118298 138.228771 
L 703.391019 92.119704 
L 703.66374 85.346181 
L 704.209183 79.80996 
L 704.754626 77.326136 
L 705.300069 75.983504 
L 705.845512 75.315303 
L 706.390955 74.860559 
L 706.936398 74.696265 
L 707.481841 74.827801 
L 708.027283 75.256058 
L 708.572726 75.930036 
L 709.118169 77.264945 
L 709.663612 79.749579 
L 709.936333 81.984056 
L 710.209055 85.325799 
L 710.481776 91.217768 
L 710.754498 122.210395 
L 711.027219 88.772099 
L 711.572662 69.015005 
L 712.118105 49.472372 
L 712.390826 37.956232 
L 712.663548 56.076334 
L 713.208991 76.53337 
L 713.481712 92.14542 
L 713.754434 101.079744 
L 714.027155 85.521586 
L 714.572598 78.420042 
L 715.118041 75.913474 
L 715.663484 74.8048 
L 716.208926 74.516285 
L 716.481648 74.604131 
L 716.754369 74.896013 
L 717.027091 75.379142 
L 717.299812 76.186343 
L 717.845255 79.265015 
L 718.117976 82.736889 
L 718.390698 88.484775 
L 718.663419 132.840719 
L 718.936141 85.15545 
L 719.754305 52.252273 
L 720.027027 25.99141 
L 720.299748 54.358809 
L 720.845191 77.400314 
L 721.117912 103.714395 
L 721.390634 87.178828 
L 721.663355 79.930961 
L 722.208798 75.601436 
L 722.481519 74.683821 
L 722.754241 74.397223 
L 723.026962 74.625679 
L 723.299684 75.254286 
L 723.572405 76.456939 
L 723.845127 79.034762 
L 724.117848 84.669614 
L 724.390569 115.314725 
L 724.663291 81.917007 
L 725.481455 40.853342 
L 725.754177 48.279728 
L 726.572341 82.338226 
L 726.845062 123.923918 
L 727.117784 88.738981 
L 727.390505 82.504677 
L 727.663227 79.093565 
L 728.20867 75.987407 
L 728.754112 74.646828 
L 729.299555 74.165955 
L 729.844998 74.31921 
L 730.390441 75.069719 
L 730.663162 75.88766 
L 731.208605 79.322012 
L 731.481327 83.17702 
L 731.754048 90.88336 
L 732.02677 102.577563 
L 732.299491 80.248298 
L 733.117655 46.777678 
L 733.390377 43.02537 
L 733.93582 66.67558 
L 734.481263 85.845448 
L 734.753984 128.231453 
L 735.026705 91.426211 
L 735.299427 84.841099 
L 735.84487 79.16454 
L 736.390313 76.848512 
L 736.935755 75.507536 
L 737.481198 74.652459 
L 738.026641 74.198016 
L 738.572084 74.079651 
L 739.117527 74.277594 
L 739.66297 74.778788 
L 740.481134 76.167641 
L 740.753856 77.037356 
L 741.299298 80.049865 
L 741.57202 82.131755 
L 741.844741 86.12836 
L 742.390184 102.89214 
L 742.662906 82.095585 
L 743.48107 54.346863 
L 743.753791 30.695036 
L 744.026513 51.316955 
L 744.571956 69.644339 
L 745.117398 89.444449 
L 745.39012 114.618092 
L 745.662841 90.336104 
L 746.208284 81.38097 
L 746.753727 77.957334 
L 747.29917 76.207499 
L 747.844613 75.143674 
L 748.390056 74.503086 
L 749.20822 74.051027 
L 749.753663 73.991183 
L 750.299106 74.15162 
L 750.844549 74.461807 
L 751.389991 75.03571 
L 751.935434 75.964689 
L 752.480877 77.615901 
L 752.753599 78.822157 
L 753.02632 80.625244 
L 753.299041 83.356806 
L 753.571763 87.310243 
L 753.844484 96.610019 
L 754.117206 99.553586 
L 754.389927 82.996336 
L 755.208092 56.145869 
L 755.480813 39.453968 
L 756.298977 72.410422 
L 756.84442 100.910453 
L 757.117142 84.09804 
L 757.389863 79.074733 
L 757.935306 75.426503 
L 758.208027 74.455443 
L 758.75347 73.736789 
L 759.026192 73.799217 
L 759.298913 74.020305 
L 759.571634 74.640145 
L 759.844356 75.61581 
L 760.117077 77.014988 
L 760.389799 79.755926 
L 760.66252 85.840603 
L 760.935242 109.492697 
L 761.207963 83.156628 
L 762.026127 45.678278 
L 762.298849 44.647931 
L 762.844292 68.014873 
L 763.117013 78.001868 
L 763.389735 93.889266 
L 763.662456 98.633797 
L 763.935177 85.802605 
L 764.48062 78.869301 
L 764.753342 77.000177 
L 765.298785 75.039847 
L 765.844227 74.063668 
L 766.38967 73.618369 
L 766.935113 73.5983 
L 767.480556 73.978413 
L 768.025999 74.90842 
L 768.29872 75.602998 
L 768.844163 78.118719 
L 769.116885 80.266402 
L 769.389606 84.01984 
L 769.662328 92.256367 
L 769.935049 108.377896 
L 770.20777 81.799986 
L 771.298656 36.473079 
L 771.571378 56.139723 
L 772.11682 78.504843 
L 772.389542 100.87073 
L 772.934985 81.314801 
L 773.207706 77.860295 
L 773.480428 75.839851 
L 773.753149 74.691436 
L 774.298592 73.622728 
L 774.571313 73.454106 
L 774.844035 73.539392 
L 775.116756 73.931313 
L 775.389478 74.547802 
L 775.662199 75.765932 
L 775.934921 77.556378 
L 776.207642 80.320576 
L 776.480363 86.797419 
L 776.753085 114.851537 
L 777.025806 80.223793 
L 777.843971 42.713113 
L 778.116692 47.277881 
L 778.934856 82.830546 
L 779.207578 122.930046 
L 779.480299 87.631064 
L 779.753021 81.028602 
L 780.298463 76.051487 
L 780.843906 74.078578 
L 781.389349 73.317981 
L 781.662071 73.222416 
L 781.934792 73.259067 
L 782.480235 73.850071 
L 782.752956 74.472203 
L 783.025678 75.462809 
L 783.298399 76.924979 
L 783.571121 79.507258 
L 783.843842 83.31385 
L 784.116564 93.898865 
L 784.389285 92.747355 
L 784.934728 65.796203 
L 785.207449 54.747157 
L 785.480171 30.0016 
L 785.752892 52.003836 
L 786.843778 98.283622 
L 787.116499 83.940207 
L 787.389221 79.454026 
L 787.934664 75.598064 
L 788.480107 73.876892 
L 788.752828 73.427521 
L 789.298271 73.110162 
L 789.570992 73.188186 
L 789.843714 73.420186 
L 790.116435 73.880148 
L 790.389157 74.610341 
L 790.661878 75.722508 
L 790.934599 77.636195 
L 791.207321 80.406505 
L 791.480042 86.042877 
L 791.752764 105.468208 
L 792.298207 71.96268 
L 793.116371 38.820062 
L 793.661814 68.891634 
L 794.207257 98.271613 
L 794.479978 81.896724 
L 794.752699 77.465975 
L 795.025421 75.135059 
L 795.298142 73.764557 
L 795.570864 73.090156 
L 795.843585 72.932087 
L 796.116307 73.169969 
L 796.389028 73.878598 
L 796.66175 75.330442 
L 796.934471 77.949113 
L 797.207192 82.266415 
L 797.479914 100.920925 
L 798.025357 67.663799 
L 798.298078 56.392112 
L 798.5708 35.545284 
L 799.116242 63.10961 
L 799.388964 74.563664 
L 799.661685 95.345584 
L 799.934407 90.40269 
L 800.207128 80.768921 
L 800.47985 76.933191 
L 801.025292 74.042804 
L 801.298014 73.35075 
L 801.843457 72.856223 
L 802.116178 72.946763 
L 802.3889 73.268231 
L 802.661621 73.973441 
L 802.934343 75.110977 
L 803.207064 77.168506 
L 803.479785 80.914717 
L 804.025228 97.823255 
L 804.29795 75.842019 
L 804.843393 52.227529 
L 805.116114 30.345648 
L 805.388835 55.496446 
L 806.207 95.872365 
L 806.479721 82.249857 
L 806.752443 77.100298 
L 807.297885 73.279448 
L 807.570607 72.493723 
L 807.843328 72.222795 
L 808.11605 72.285005 
L 808.388771 72.738083 
L 808.661493 73.754456 
L 808.934214 75.338411 
L 809.206936 78.438589 
L 809.479657 84.958275 
L 809.752378 104.859214 
L 810.0251 75.246914 
L 810.843264 39.461464 
L 811.661428 91.056228 
L 811.93415 86.210899 
L 812.206871 77.76812 
L 812.479593 74.487686 
L 813.025036 72.295672 
L 813.297757 72.084262 
L 813.570478 72.49107 
L 813.8432 73.637504 
L 814.115921 75.969388 
L 814.388643 80.868573 
L 814.661364 98.962763 
L 815.206807 64.870597 
L 815.75225 34.387622 
L 816.024971 56.631265 
L 816.297693 69.428178 
L 816.570414 88.761245 
L 816.843136 86.726678 
L 817.115857 77.730142 
L 817.388579 74.328083 
L 817.6613 72.6995 
L 817.934021 72.01161 
L 818.206743 72.003025 
L 818.479464 72.424126 
L 818.752186 73.751381 
L 819.024907 76.569837 
L 819.297629 83.31095 
L 819.57035 100.813069 
L 819.843071 72.682715 
L 820.388514 42.755013 
L 820.661236 48.158475 
L 821.206679 74.580629 
L 821.4794 104.500574 
L 821.752121 83.89223 
L 822.024843 77.237172 
L 822.297564 74.772579 
L 822.297564 74.772579 
" clip-path="url(#pc7b7df07d0)" style="fill: none; stroke: #1f77b4; stroke-width: 3; stroke-linecap: square"/>
   </g>
   <g id="patch_8">
    <path d="M 536.226416 345.2325 
L 536.226416 38.088 
" style="fill: none; stroke: #000000; stroke-width: 2; stroke-linejoin: miter; stroke-linecap: square"/>
   </g>
   <g id="patch_9">
    <path d="M 835.92 345.2325 
L 835.92 38.088 
" style="fill: none; stroke: #000000; stroke-width: 2; stroke-linejoin: miter; stroke-linecap: square"/>
   </g>
   <g id="patch_10">
    <path d="M 536.226416 345.2325 
L 835.92 345.2325 
" style="fill: none; stroke: #000000; stroke-width: 2; stroke-linejoin: miter; stroke-linecap: square"/>
   </g>
   <g id="patch_11">
    <path d="M 536.226416 38.088 
L 835.92 38.088 
" style="fill: none; stroke: #000000; stroke-width: 2; stroke-linejoin: miter; stroke-linecap: square"/>
   </g>
  </g>
 </g>
 <defs>
  <clipPath id="p2e60df0599">
   <rect x="103.44" y="38.088" width="299.693584" height="307.1445"/>
  </clipPath>
  <clipPath id="pc7b7df07d0">
   <rect x="536.226416" y="38.088" width="299.693584" height="307.1445"/>
  </clipPath>
 </defs>
</svg>
