<?xml version="1.0" encoding="utf-8" standalone="no"?>
<!DOCTYPE svg PUBLIC "-//W3C//DTD SVG 1.1//EN"
  "http://www.w3.org/Graphics/SVG/1.1/DTD/svg11.dtd">
<svg xmlns:xlink="http://www.w3.org/1999/xlink" width="864pt" height="576pt" viewBox="0 0 864 576" xmlns="http://www.w3.org/2000/svg" version="1.1">
 <metadata>
  <rdf:RDF xmlns:dc="http://purl.org/dc/elements/1.1/" xmlns:cc="http://creativecommons.org/ns#" xmlns:rdf="http://www.w3.org/1999/02/22-rdf-syntax-ns#">
   <cc:Work>
    <dc:type rdf:resource="http://purl.org/dc/dcmitype/StillImage"/>
    <dc:date>2025-06-11T15:01:42.642725</dc:date>
    <dc:format>image/svg+xml</dc:format>
    <dc:creator>
     <cc:Agent>
      <dc:title>Matplotlib v3.7.2, https://matplotlib.org/</dc:title>
     </cc:Agent>
    </dc:creator>
   </cc:Work>
  </rdf:RDF>
 </metadata>
 <defs>
  <style type="text/css">*{stroke-linejoin: round; stroke-linecap: butt}</style>
 </defs>
 <g id="figure_1">
  <g id="patch_1">
   <path d="M 0 576 
L 864 576 
L 864 0 
L 0 0 
z
" style="fill: #ffffff"/>
  </g>
  <g id="axes_1">
   <g id="patch_2">
    <path d="M 123.735 489.2325 
L 826.97669 489.2325 
L 826.97669 28.08 
L 123.735 28.08 
z
" style="fill: #ffffff"/>
   </g>
   <g id="matplotlib.axis_1">
    <g id="xtick_1">
     <g id="line2d_1">
      <path d="M 149.499969 489.2325 
L 149.499969 28.08 
" clip-path="url(#pd32f22bf3d)" style="fill: none; stroke-dasharray: 3.7,1.6; stroke-dashoffset: 0; stroke: #b0b0b0; stroke-opacity: 0.5"/>
     </g>
     <g id="line2d_2">
      <defs>
       <path id="m22d012a1e8" d="M 0 0 
L 0 -10 
" style="stroke: #000000; stroke-width: 2"/>
      </defs>
      <g>
       <use xlink:href="#m22d012a1e8" x="149.499969" y="489.2325" style="stroke: #000000; stroke-width: 2"/>
      </g>
     </g>
     <g id="line2d_3">
      <defs>
       <path id="me70ab3046b" d="M 0 0 
L 0 10 
" style="stroke: #000000; stroke-width: 2"/>
      </defs>
      <g>
       <use xlink:href="#me70ab3046b" x="149.499969" y="28.08" style="stroke: #000000; stroke-width: 2"/>
      </g>
     </g>
     <g id="text_1">
      <!-- 0 -->
      <g transform="translate(141.228719 512.488438) scale(0.26 -0.26)">
       <defs>
        <path id="DejaVuSerif-30" d="M 2034 219 
Q 2513 219 2750 744 
Q 2988 1269 2988 2328 
Q 2988 3391 2750 3916 
Q 2513 4441 2034 4441 
Q 1556 4441 1318 3916 
Q 1081 3391 1081 2328 
Q 1081 1269 1318 744 
Q 1556 219 2034 219 
z
M 2034 -91 
Q 1275 -91 848 546 
Q 422 1184 422 2328 
Q 422 3475 848 4112 
Q 1275 4750 2034 4750 
Q 2797 4750 3222 4112 
Q 3647 3475 3647 2328 
Q 3647 1184 3222 546 
Q 2797 -91 2034 -91 
z
" transform="scale(0.015625)"/>
       </defs>
       <use xlink:href="#DejaVuSerif-30"/>
      </g>
     </g>
    </g>
    <g id="xtick_2">
     <g id="line2d_4">
      <path d="M 279.907588 489.2325 
L 279.907588 28.08 
" clip-path="url(#pd32f22bf3d)" style="fill: none; stroke-dasharray: 3.7,1.6; stroke-dashoffset: 0; stroke: #b0b0b0; stroke-opacity: 0.5"/>
     </g>
     <g id="line2d_5">
      <g>
       <use xlink:href="#m22d012a1e8" x="279.907588" y="489.2325" style="stroke: #000000; stroke-width: 2"/>
      </g>
     </g>
     <g id="line2d_6">
      <g>
       <use xlink:href="#me70ab3046b" x="279.907588" y="28.08" style="stroke: #000000; stroke-width: 2"/>
      </g>
     </g>
     <g id="text_2">
      <!-- 500 -->
      <g transform="translate(255.093838 512.488438) scale(0.26 -0.26)">
       <defs>
        <path id="DejaVuSerif-35" d="M 3219 4666 
L 3219 4153 
L 1081 4153 
L 1081 2816 
Q 1244 2928 1461 2984 
Q 1678 3041 1947 3041 
Q 2703 3041 3140 2622 
Q 3578 2203 3578 1478 
Q 3578 738 3136 323 
Q 2694 -91 1894 -91 
Q 1572 -91 1234 -12 
Q 897 66 544 225 
L 544 1131 
L 897 1131 
Q 925 688 1179 453 
Q 1434 219 1894 219 
Q 2388 219 2653 544 
Q 2919 869 2919 1478 
Q 2919 2084 2655 2407 
Q 2391 2731 1894 2731 
Q 1613 2731 1398 2631 
Q 1184 2531 1019 2322 
L 750 2322 
L 750 4666 
L 3219 4666 
z
" transform="scale(0.015625)"/>
       </defs>
       <use xlink:href="#DejaVuSerif-35"/>
       <use xlink:href="#DejaVuSerif-30" x="63.623047"/>
       <use xlink:href="#DejaVuSerif-30" x="127.246094"/>
      </g>
     </g>
    </g>
    <g id="xtick_3">
     <g id="line2d_7">
      <path d="M 410.315208 489.2325 
L 410.315208 28.08 
" clip-path="url(#pd32f22bf3d)" style="fill: none; stroke-dasharray: 3.7,1.6; stroke-dashoffset: 0; stroke: #b0b0b0; stroke-opacity: 0.5"/>
     </g>
     <g id="line2d_8">
      <g>
       <use xlink:href="#m22d012a1e8" x="410.315208" y="489.2325" style="stroke: #000000; stroke-width: 2"/>
      </g>
     </g>
     <g id="line2d_9">
      <g>
       <use xlink:href="#me70ab3046b" x="410.315208" y="28.08" style="stroke: #000000; stroke-width: 2"/>
      </g>
     </g>
     <g id="text_3">
      <!-- 1000 -->
      <g transform="translate(377.230208 512.488438) scale(0.26 -0.26)">
       <defs>
        <path id="DejaVuSerif-31" d="M 909 0 
L 909 331 
L 1722 331 
L 1722 4213 
L 781 3603 
L 781 4013 
L 1919 4750 
L 2350 4750 
L 2350 331 
L 3163 331 
L 3163 0 
L 909 0 
z
" transform="scale(0.015625)"/>
       </defs>
       <use xlink:href="#DejaVuSerif-31"/>
       <use xlink:href="#DejaVuSerif-30" x="63.623047"/>
       <use xlink:href="#DejaVuSerif-30" x="127.246094"/>
       <use xlink:href="#DejaVuSerif-30" x="190.869141"/>
      </g>
     </g>
    </g>
    <g id="xtick_4">
     <g id="line2d_10">
      <path d="M 540.722828 489.2325 
L 540.722828 28.08 
" clip-path="url(#pd32f22bf3d)" style="fill: none; stroke-dasharray: 3.7,1.6; stroke-dashoffset: 0; stroke: #b0b0b0; stroke-opacity: 0.5"/>
     </g>
     <g id="line2d_11">
      <g>
       <use xlink:href="#m22d012a1e8" x="540.722828" y="489.2325" style="stroke: #000000; stroke-width: 2"/>
      </g>
     </g>
     <g id="line2d_12">
      <g>
       <use xlink:href="#me70ab3046b" x="540.722828" y="28.08" style="stroke: #000000; stroke-width: 2"/>
      </g>
     </g>
     <g id="text_4">
      <!-- 1500 -->
      <g transform="translate(507.637828 512.488438) scale(0.26 -0.26)">
       <use xlink:href="#DejaVuSerif-31"/>
       <use xlink:href="#DejaVuSerif-35" x="63.623047"/>
       <use xlink:href="#DejaVuSerif-30" x="127.246094"/>
       <use xlink:href="#DejaVuSerif-30" x="190.869141"/>
      </g>
     </g>
    </g>
    <g id="xtick_5">
     <g id="line2d_13">
      <path d="M 671.130447 489.2325 
L 671.130447 28.08 
" clip-path="url(#pd32f22bf3d)" style="fill: none; stroke-dasharray: 3.7,1.6; stroke-dashoffset: 0; stroke: #b0b0b0; stroke-opacity: 0.5"/>
     </g>
     <g id="line2d_14">
      <g>
       <use xlink:href="#m22d012a1e8" x="671.130447" y="489.2325" style="stroke: #000000; stroke-width: 2"/>
      </g>
     </g>
     <g id="line2d_15">
      <g>
       <use xlink:href="#me70ab3046b" x="671.130447" y="28.08" style="stroke: #000000; stroke-width: 2"/>
      </g>
     </g>
     <g id="text_5">
      <!-- 2000 -->
      <g transform="translate(638.045447 512.488438) scale(0.26 -0.26)">
       <defs>
        <path id="DejaVuSerif-32" d="M 819 3553 
L 469 3553 
L 469 4384 
Q 803 4563 1142 4656 
Q 1481 4750 1806 4750 
Q 2534 4750 2956 4397 
Q 3378 4044 3378 3438 
Q 3378 2753 2422 1800 
Q 2347 1728 2309 1691 
L 1131 513 
L 3078 513 
L 3078 1088 
L 3444 1088 
L 3444 0 
L 434 0 
L 434 341 
L 1850 1753 
Q 2319 2222 2519 2614 
Q 2719 3006 2719 3438 
Q 2719 3909 2473 4175 
Q 2228 4441 1797 4441 
Q 1350 4441 1106 4219 
Q 863 3997 819 3553 
z
" transform="scale(0.015625)"/>
       </defs>
       <use xlink:href="#DejaVuSerif-32"/>
       <use xlink:href="#DejaVuSerif-30" x="63.623047"/>
       <use xlink:href="#DejaVuSerif-30" x="127.246094"/>
       <use xlink:href="#DejaVuSerif-30" x="190.869141"/>
      </g>
     </g>
    </g>
    <g id="xtick_6">
     <g id="line2d_16">
      <path d="M 801.538067 489.2325 
L 801.538067 28.08 
" clip-path="url(#pd32f22bf3d)" style="fill: none; stroke-dasharray: 3.7,1.6; stroke-dashoffset: 0; stroke: #b0b0b0; stroke-opacity: 0.5"/>
     </g>
     <g id="line2d_17">
      <g>
       <use xlink:href="#m22d012a1e8" x="801.538067" y="489.2325" style="stroke: #000000; stroke-width: 2"/>
      </g>
     </g>
     <g id="line2d_18">
      <g>
       <use xlink:href="#me70ab3046b" x="801.538067" y="28.08" style="stroke: #000000; stroke-width: 2"/>
      </g>
     </g>
     <g id="text_6">
      <!-- 2500 -->
      <g transform="translate(768.453067 512.488438) scale(0.26 -0.26)">
       <use xlink:href="#DejaVuSerif-32"/>
       <use xlink:href="#DejaVuSerif-35" x="63.623047"/>
       <use xlink:href="#DejaVuSerif-30" x="127.246094"/>
       <use xlink:href="#DejaVuSerif-30" x="190.869141"/>
      </g>
     </g>
    </g>
    <g id="text_7">
     <!-- $t$ (a.u.) -->
     <g transform="translate(431.935845 541.651562) scale(0.26 -0.26)">
      <defs>
       <path id="Cmmi10-74" d="M 397 519 
Q 397 613 416 697 
L 878 2534 
L 206 2534 
Q 141 2534 141 2619 
Q 166 2759 225 2759 
L 934 2759 
L 1191 3803 
Q 1216 3888 1291 3947 
Q 1366 4006 1459 4006 
Q 1541 4006 1595 3957 
Q 1650 3909 1650 3828 
Q 1650 3809 1648 3798 
Q 1647 3788 1644 3775 
L 1388 2759 
L 2047 2759 
Q 2113 2759 2113 2675 
Q 2109 2659 2100 2621 
Q 2091 2584 2075 2559 
Q 2059 2534 2028 2534 
L 1331 2534 
L 872 684 
Q 825 503 825 372 
Q 825 97 1013 97 
Q 1294 97 1511 361 
Q 1728 625 1844 941 
Q 1869 978 1894 978 
L 1972 978 
Q 1997 978 2012 961 
Q 2028 944 2028 922 
Q 2028 909 2022 903 
Q 1881 516 1612 222 
Q 1344 -72 997 -72 
Q 744 -72 570 93 
Q 397 259 397 519 
z
" transform="scale(0.015625)"/>
       <path id="DejaVuSerif-20" transform="scale(0.015625)"/>
       <path id="DejaVuSerif-28" d="M 2041 -997 
Q 1281 -656 893 83 
Q 506 822 506 1931 
Q 506 3044 893 3783 
Q 1281 4522 2041 4863 
L 2041 4556 
Q 1559 4225 1350 3623 
Q 1141 3022 1141 1931 
Q 1141 844 1350 242 
Q 1559 -359 2041 -691 
L 2041 -997 
z
" transform="scale(0.015625)"/>
       <path id="DejaVuSerif-61" d="M 2547 1044 
L 2547 1747 
L 1806 1747 
Q 1378 1747 1168 1562 
Q 959 1378 959 997 
Q 959 650 1171 447 
Q 1384 244 1747 244 
Q 2106 244 2326 466 
Q 2547 688 2547 1044 
z
M 3122 2075 
L 3122 331 
L 3634 331 
L 3634 0 
L 2547 0 
L 2547 359 
Q 2356 128 2106 18 
Q 1856 -91 1522 -91 
Q 969 -91 644 203 
Q 319 497 319 997 
Q 319 1513 691 1797 
Q 1063 2081 1741 2081 
L 2547 2081 
L 2547 2309 
Q 2547 2688 2317 2895 
Q 2088 3103 1672 3103 
Q 1328 3103 1125 2947 
Q 922 2791 872 2484 
L 575 2484 
L 575 3156 
Q 875 3284 1158 3348 
Q 1441 3413 1709 3413 
Q 2400 3413 2761 3070 
Q 3122 2728 3122 2075 
z
" transform="scale(0.015625)"/>
       <path id="DejaVuSerif-2e" d="M 603 325 
Q 603 500 722 622 
Q 841 744 1019 744 
Q 1191 744 1312 622 
Q 1434 500 1434 325 
Q 1434 153 1312 31 
Q 1191 -91 1019 -91 
Q 841 -91 722 29 
Q 603 150 603 325 
z
" transform="scale(0.015625)"/>
       <path id="DejaVuSerif-75" d="M 2266 3322 
L 3341 3322 
L 3341 331 
L 3884 331 
L 3884 0 
L 2766 0 
L 2766 588 
Q 2606 256 2353 82 
Q 2100 -91 1766 -91 
Q 1213 -91 952 223 
Q 691 538 691 1209 
L 691 2988 
L 172 2988 
L 172 3322 
L 1269 3322 
L 1269 1388 
Q 1269 781 1417 556 
Q 1566 331 1947 331 
Q 2347 331 2556 625 
Q 2766 919 2766 1478 
L 2766 2988 
L 2266 2988 
L 2266 3322 
z
" transform="scale(0.015625)"/>
       <path id="DejaVuSerif-29" d="M 453 -997 
L 453 -691 
Q 934 -359 1145 242 
Q 1356 844 1356 1931 
Q 1356 3022 1145 3623 
Q 934 4225 453 4556 
L 453 4863 
Q 1216 4522 1603 3783 
Q 1991 3044 1991 1931 
Q 1991 822 1603 83 
Q 1216 -656 453 -997 
z
" transform="scale(0.015625)"/>
      </defs>
      <use xlink:href="#Cmmi10-74" transform="translate(0 0.015625)"/>
      <use xlink:href="#DejaVuSerif-20" transform="translate(36.083984 0.015625)"/>
      <use xlink:href="#DejaVuSerif-28" transform="translate(67.871094 0.015625)"/>
      <use xlink:href="#DejaVuSerif-61" transform="translate(106.884766 0.015625)"/>
      <use xlink:href="#DejaVuSerif-2e" transform="translate(166.503906 0.015625)"/>
      <use xlink:href="#DejaVuSerif-75" transform="translate(198.291016 0.015625)"/>
      <use xlink:href="#DejaVuSerif-2e" transform="translate(262.695312 0.015625)"/>
      <use xlink:href="#DejaVuSerif-29" transform="translate(294.482422 0.015625)"/>
     </g>
    </g>
   </g>
   <g id="matplotlib.axis_2">
    <g id="ytick_1">
     <g id="line2d_19">
      <path d="M 123.735 470.605673 
L 826.97669 470.605673 
" clip-path="url(#pd32f22bf3d)" style="fill: none; stroke-dasharray: 3.7,1.6; stroke-dashoffset: 0; stroke: #b0b0b0; stroke-opacity: 0.5"/>
     </g>
     <g id="line2d_20">
      <defs>
       <path id="mc03db3ce70" d="M 0 0 
L 10 0 
" style="stroke: #000000; stroke-width: 2"/>
      </defs>
      <g>
       <use xlink:href="#mc03db3ce70" x="123.735" y="470.605673" style="stroke: #000000; stroke-width: 2"/>
      </g>
     </g>
     <g id="line2d_21">
      <defs>
       <path id="m2ba54a7a1e" d="M 0 0 
L -10 0 
" style="stroke: #000000; stroke-width: 2"/>
      </defs>
      <g>
       <use xlink:href="#m2ba54a7a1e" x="826.97669" y="470.605673" style="stroke: #000000; stroke-width: 2"/>
      </g>
     </g>
     <g id="text_8">
      <!-- −2.0 -->
      <g transform="translate(57.099688 480.483642) scale(0.26 -0.26)">
       <defs>
        <path id="DejaVuSerif-2212" d="M 678 2259 
L 4684 2259 
L 4684 1753 
L 678 1753 
L 678 2259 
z
" transform="scale(0.015625)"/>
       </defs>
       <use xlink:href="#DejaVuSerif-2212"/>
       <use xlink:href="#DejaVuSerif-32" x="83.789062"/>
       <use xlink:href="#DejaVuSerif-2e" x="147.412109"/>
       <use xlink:href="#DejaVuSerif-30" x="179.199219"/>
      </g>
     </g>
    </g>
    <g id="ytick_2">
     <g id="line2d_22">
      <path d="M 123.735 387.613211 
L 826.97669 387.613211 
" clip-path="url(#pd32f22bf3d)" style="fill: none; stroke-dasharray: 3.7,1.6; stroke-dashoffset: 0; stroke: #b0b0b0; stroke-opacity: 0.5"/>
     </g>
     <g id="line2d_23">
      <g>
       <use xlink:href="#mc03db3ce70" x="123.735" y="387.613211" style="stroke: #000000; stroke-width: 2"/>
      </g>
     </g>
     <g id="line2d_24">
      <g>
       <use xlink:href="#m2ba54a7a1e" x="826.97669" y="387.613211" style="stroke: #000000; stroke-width: 2"/>
      </g>
     </g>
     <g id="text_9">
      <!-- −1.5 -->
      <g transform="translate(57.099688 397.49118) scale(0.26 -0.26)">
       <use xlink:href="#DejaVuSerif-2212"/>
       <use xlink:href="#DejaVuSerif-31" x="83.789062"/>
       <use xlink:href="#DejaVuSerif-2e" x="147.412109"/>
       <use xlink:href="#DejaVuSerif-35" x="179.199219"/>
      </g>
     </g>
    </g>
    <g id="ytick_3">
     <g id="line2d_25">
      <path d="M 123.735 304.620749 
L 826.97669 304.620749 
" clip-path="url(#pd32f22bf3d)" style="fill: none; stroke-dasharray: 3.7,1.6; stroke-dashoffset: 0; stroke: #b0b0b0; stroke-opacity: 0.5"/>
     </g>
     <g id="line2d_26">
      <g>
       <use xlink:href="#mc03db3ce70" x="123.735" y="304.620749" style="stroke: #000000; stroke-width: 2"/>
      </g>
     </g>
     <g id="line2d_27">
      <g>
       <use xlink:href="#m2ba54a7a1e" x="826.97669" y="304.620749" style="stroke: #000000; stroke-width: 2"/>
      </g>
     </g>
     <g id="text_10">
      <!-- −1.0 -->
      <g transform="translate(57.099688 314.498718) scale(0.26 -0.26)">
       <use xlink:href="#DejaVuSerif-2212"/>
       <use xlink:href="#DejaVuSerif-31" x="83.789062"/>
       <use xlink:href="#DejaVuSerif-2e" x="147.412109"/>
       <use xlink:href="#DejaVuSerif-30" x="179.199219"/>
      </g>
     </g>
    </g>
    <g id="ytick_4">
     <g id="line2d_28">
      <path d="M 123.735 221.628287 
L 826.97669 221.628287 
" clip-path="url(#pd32f22bf3d)" style="fill: none; stroke-dasharray: 3.7,1.6; stroke-dashoffset: 0; stroke: #b0b0b0; stroke-opacity: 0.5"/>
     </g>
     <g id="line2d_29">
      <g>
       <use xlink:href="#mc03db3ce70" x="123.735" y="221.628287" style="stroke: #000000; stroke-width: 2"/>
      </g>
     </g>
     <g id="line2d_30">
      <g>
       <use xlink:href="#m2ba54a7a1e" x="826.97669" y="221.628287" style="stroke: #000000; stroke-width: 2"/>
      </g>
     </g>
     <g id="text_11">
      <!-- −0.5 -->
      <g transform="translate(57.099688 231.506255) scale(0.26 -0.26)">
       <use xlink:href="#DejaVuSerif-2212"/>
       <use xlink:href="#DejaVuSerif-30" x="83.789062"/>
       <use xlink:href="#DejaVuSerif-2e" x="147.412109"/>
       <use xlink:href="#DejaVuSerif-35" x="179.199219"/>
      </g>
     </g>
    </g>
    <g id="ytick_5">
     <g id="line2d_31">
      <path d="M 123.735 138.635824 
L 826.97669 138.635824 
" clip-path="url(#pd32f22bf3d)" style="fill: none; stroke-dasharray: 3.7,1.6; stroke-dashoffset: 0; stroke: #b0b0b0; stroke-opacity: 0.5"/>
     </g>
     <g id="line2d_32">
      <g>
       <use xlink:href="#mc03db3ce70" x="123.735" y="138.635824" style="stroke: #000000; stroke-width: 2"/>
      </g>
     </g>
     <g id="line2d_33">
      <g>
       <use xlink:href="#m2ba54a7a1e" x="826.97669" y="138.635824" style="stroke: #000000; stroke-width: 2"/>
      </g>
     </g>
     <g id="text_12">
      <!-- 0.0 -->
      <g transform="translate(78.886875 148.513793) scale(0.26 -0.26)">
       <use xlink:href="#DejaVuSerif-30"/>
       <use xlink:href="#DejaVuSerif-2e" x="63.623047"/>
       <use xlink:href="#DejaVuSerif-30" x="95.410156"/>
      </g>
     </g>
    </g>
    <g id="ytick_6">
     <g id="line2d_34">
      <path d="M 123.735 55.643362 
L 826.97669 55.643362 
" clip-path="url(#pd32f22bf3d)" style="fill: none; stroke-dasharray: 3.7,1.6; stroke-dashoffset: 0; stroke: #b0b0b0; stroke-opacity: 0.5"/>
     </g>
     <g id="line2d_35">
      <g>
       <use xlink:href="#mc03db3ce70" x="123.735" y="55.643362" style="stroke: #000000; stroke-width: 2"/>
      </g>
     </g>
     <g id="line2d_36">
      <g>
       <use xlink:href="#m2ba54a7a1e" x="826.97669" y="55.643362" style="stroke: #000000; stroke-width: 2"/>
      </g>
     </g>
     <g id="text_13">
      <!-- 0.5 -->
      <g transform="translate(78.886875 65.521331) scale(0.26 -0.26)">
       <use xlink:href="#DejaVuSerif-30"/>
       <use xlink:href="#DejaVuSerif-2e" x="63.623047"/>
       <use xlink:href="#DejaVuSerif-35" x="95.410156"/>
      </g>
     </g>
    </g>
    <g id="text_14">
     <!-- Particle energy (a.u.) -->
     <g transform="translate(47.322812 397.733906) rotate(-90) scale(0.26 -0.26)">
      <defs>
       <path id="DejaVuSerif-50" d="M 1581 2375 
L 2406 2375 
Q 2872 2375 3115 2626 
Q 3359 2878 3359 3353 
Q 3359 3831 3115 4081 
Q 2872 4331 2406 4331 
L 1581 4331 
L 1581 2375 
z
M 353 0 
L 353 331 
L 947 331 
L 947 4331 
L 353 4331 
L 353 4666 
L 2559 4666 
Q 3259 4666 3668 4311 
Q 4078 3956 4078 3353 
Q 4078 2753 3668 2397 
Q 3259 2041 2559 2041 
L 1581 2041 
L 1581 331 
L 2303 331 
L 2303 0 
L 353 0 
z
" transform="scale(0.015625)"/>
       <path id="DejaVuSerif-72" d="M 3059 3328 
L 3059 2497 
L 2728 2497 
Q 2713 2744 2591 2866 
Q 2469 2988 2234 2988 
Q 1809 2988 1582 2694 
Q 1356 2400 1356 1850 
L 1356 331 
L 2022 331 
L 2022 0 
L 263 0 
L 263 331 
L 781 331 
L 781 2994 
L 231 2994 
L 231 3322 
L 1356 3322 
L 1356 2731 
Q 1525 3078 1790 3245 
Q 2056 3413 2438 3413 
Q 2578 3413 2733 3391 
Q 2888 3369 3059 3328 
z
" transform="scale(0.015625)"/>
       <path id="DejaVuSerif-74" d="M 691 2988 
L 184 2988 
L 184 3322 
L 691 3322 
L 691 4353 
L 1269 4353 
L 1269 3322 
L 2350 3322 
L 2350 2988 
L 1269 2988 
L 1269 878 
Q 1269 456 1350 337 
Q 1431 219 1650 219 
Q 1875 219 1978 351 
Q 2081 484 2088 781 
L 2522 781 
Q 2497 328 2275 118 
Q 2053 -91 1600 -91 
Q 1103 -91 897 129 
Q 691 350 691 878 
L 691 2988 
z
" transform="scale(0.015625)"/>
       <path id="DejaVuSerif-69" d="M 622 4353 
Q 622 4497 726 4603 
Q 831 4709 978 4709 
Q 1122 4709 1226 4603 
Q 1331 4497 1331 4353 
Q 1331 4206 1228 4103 
Q 1125 4000 978 4000 
Q 831 4000 726 4103 
Q 622 4206 622 4353 
z
M 1356 331 
L 1900 331 
L 1900 0 
L 231 0 
L 231 331 
L 781 331 
L 781 2988 
L 231 2988 
L 231 3322 
L 1356 3322 
L 1356 331 
z
" transform="scale(0.015625)"/>
       <path id="DejaVuSerif-63" d="M 3291 997 
Q 3169 466 2822 187 
Q 2475 -91 1925 -91 
Q 1200 -91 759 389 
Q 319 869 319 1663 
Q 319 2459 759 2936 
Q 1200 3413 1925 3413 
Q 2241 3413 2553 3339 
Q 2866 3266 3181 3116 
L 3181 2266 
L 2847 2266 
Q 2781 2703 2561 2903 
Q 2341 3103 1931 3103 
Q 1466 3103 1228 2742 
Q 991 2381 991 1663 
Q 991 944 1227 581 
Q 1463 219 1931 219 
Q 2303 219 2525 412 
Q 2747 606 2828 997 
L 3291 997 
z
" transform="scale(0.015625)"/>
       <path id="DejaVuSerif-6c" d="M 1313 331 
L 1856 331 
L 1856 0 
L 184 0 
L 184 331 
L 738 331 
L 738 4531 
L 184 4531 
L 184 4863 
L 1313 4863 
L 1313 331 
z
" transform="scale(0.015625)"/>
       <path id="DejaVuSerif-65" d="M 3469 1600 
L 991 1600 
L 991 1575 
Q 991 903 1244 561 
Q 1497 219 1991 219 
Q 2369 219 2611 417 
Q 2853 616 2950 1006 
L 3413 1006 
Q 3275 459 2904 184 
Q 2534 -91 1931 -91 
Q 1203 -91 761 389 
Q 319 869 319 1663 
Q 319 2450 753 2931 
Q 1188 3413 1894 3413 
Q 2647 3413 3050 2948 
Q 3453 2484 3469 1600 
z
M 2791 1931 
Q 2772 2513 2545 2808 
Q 2319 3103 1894 3103 
Q 1497 3103 1269 2806 
Q 1041 2509 991 1931 
L 2791 1931 
z
" transform="scale(0.015625)"/>
       <path id="DejaVuSerif-6e" d="M 263 0 
L 263 331 
L 781 331 
L 781 2988 
L 231 2988 
L 231 3322 
L 1356 3322 
L 1356 2731 
Q 1516 3069 1770 3241 
Q 2025 3413 2363 3413 
Q 2913 3413 3172 3097 
Q 3431 2781 3431 2113 
L 3431 331 
L 3944 331 
L 3944 0 
L 2356 0 
L 2356 331 
L 2853 331 
L 2853 1931 
Q 2853 2541 2703 2767 
Q 2553 2994 2175 2994 
Q 1775 2994 1565 2701 
Q 1356 2409 1356 1850 
L 1356 331 
L 1856 331 
L 1856 0 
L 263 0 
z
" transform="scale(0.015625)"/>
       <path id="DejaVuSerif-67" d="M 3359 2988 
L 3359 72 
Q 3359 -644 2965 -1033 
Q 2572 -1422 1844 -1422 
Q 1516 -1422 1216 -1362 
Q 916 -1303 641 -1184 
L 641 -488 
L 941 -488 
Q 997 -813 1206 -963 
Q 1416 -1113 1806 -1113 
Q 2313 -1113 2548 -827 
Q 2784 -541 2784 72 
L 2784 519 
Q 2616 206 2355 57 
Q 2094 -91 1709 -91 
Q 1097 -91 708 395 
Q 319 881 319 1663 
Q 319 2444 706 2928 
Q 1094 3413 1709 3413 
Q 2094 3413 2355 3264 
Q 2616 3116 2784 2803 
L 2784 3322 
L 3909 3322 
L 3909 2988 
L 3359 2988 
z
M 2784 1825 
Q 2784 2422 2554 2737 
Q 2325 3053 1888 3053 
Q 1444 3053 1217 2703 
Q 991 2353 991 1663 
Q 991 975 1217 622 
Q 1444 269 1888 269 
Q 2325 269 2554 583 
Q 2784 897 2784 1497 
L 2784 1825 
z
" transform="scale(0.015625)"/>
       <path id="DejaVuSerif-79" d="M 1381 -609 
L 1600 -56 
L 359 2988 
L -19 2988 
L -19 3322 
L 1509 3322 
L 1509 2988 
L 978 2988 
L 1913 703 
L 2847 2988 
L 2350 2988 
L 2350 3322 
L 3597 3322 
L 3597 2988 
L 3225 2988 
L 1703 -750 
Q 1547 -1138 1356 -1280 
Q 1166 -1422 819 -1422 
Q 672 -1422 517 -1397 
Q 363 -1372 206 -1325 
L 206 -691 
L 500 -691 
Q 519 -903 608 -995 
Q 697 -1088 884 -1088 
Q 1056 -1088 1161 -992 
Q 1266 -897 1381 -609 
z
" transform="scale(0.015625)"/>
      </defs>
      <use xlink:href="#DejaVuSerif-50"/>
      <use xlink:href="#DejaVuSerif-61" x="62.785156"/>
      <use xlink:href="#DejaVuSerif-72" x="122.404297"/>
      <use xlink:href="#DejaVuSerif-74" x="170.207031"/>
      <use xlink:href="#DejaVuSerif-69" x="210.392578"/>
      <use xlink:href="#DejaVuSerif-63" x="242.375"/>
      <use xlink:href="#DejaVuSerif-6c" x="298.380859"/>
      <use xlink:href="#DejaVuSerif-65" x="330.363281"/>
      <use xlink:href="#DejaVuSerif-20" x="389.542969"/>
      <use xlink:href="#DejaVuSerif-65" x="421.330078"/>
      <use xlink:href="#DejaVuSerif-6e" x="480.509766"/>
      <use xlink:href="#DejaVuSerif-65" x="544.914062"/>
      <use xlink:href="#DejaVuSerif-72" x="604.09375"/>
      <use xlink:href="#DejaVuSerif-67" x="651.896484"/>
      <use xlink:href="#DejaVuSerif-79" x="715.910156"/>
      <use xlink:href="#DejaVuSerif-20" x="772.404297"/>
      <use xlink:href="#DejaVuSerif-28" x="804.191406"/>
      <use xlink:href="#DejaVuSerif-61" x="843.205078"/>
      <use xlink:href="#DejaVuSerif-2e" x="902.824219"/>
      <use xlink:href="#DejaVuSerif-75" x="934.611328"/>
      <use xlink:href="#DejaVuSerif-2e" x="999.015625"/>
      <use xlink:href="#DejaVuSerif-29" x="1030.802734"/>
     </g>
    </g>
   </g>
   <g id="line2d_37">
    <path d="M 155.700531 447.718593 
L 168.754347 444.72009 
L 181.808163 441.552719 
L 194.861979 436.894663 
L 207.915794 429.355836 
L 220.96961 416.291327 
L 234.023426 386.405857 
L 247.077242 180.151597 
L 260.131058 141.558544 
L 273.184873 137.354927 
L 286.238689 135.734714 
L 299.292505 134.87806 
L 312.346321 134.351283 
L 325.400136 133.991746 
L 338.453952 133.731001 
L 351.507768 133.533716 
L 364.561584 133.378582 
L 377.615399 133.254377 
L 390.669215 133.151486 
L 403.723031 133.066428 
L 416.776847 132.993419 
L 429.830663 132.930671 
L 442.884478 132.876678 
L 455.938294 132.82817 
L 468.99211 132.786685 
L 482.045926 132.74896 
L 495.099741 132.715355 
L 508.153557 132.68498 
L 521.207373 132.657706 
L 534.261189 132.632625 
L 547.315004 132.609802 
L 560.36882 132.588807 
L 573.422636 132.569503 
L 586.476452 132.551646 
L 599.530268 132.535352 
L 612.584083 132.519786 
L 625.637899 132.505726 
L 638.691715 132.492252 
L 651.745531 132.479764 
L 664.799346 132.468052 
L 677.853162 132.456945 
L 690.906978 132.446641 
L 703.960794 132.436842 
L 717.01461 132.427565 
L 730.068425 132.418778 
L 743.122241 132.410488 
L 756.176057 132.402649 
L 769.229873 132.39515 
L 782.283688 132.387997 
L 795.011159 132.38137 
" clip-path="url(#pd32f22bf3d)" style="fill: none; stroke: #1f77b4; stroke-width: 3; stroke-linecap: square"/>
    <defs>
     <path id="mcabd250d0d" d="M 0 3 
C 0.795609 3 1.55874 2.683901 2.12132 2.12132 
C 2.683901 1.55874 3 0.795609 3 0 
C 3 -0.795609 2.683901 -1.55874 2.12132 -2.12132 
C 1.55874 -2.683901 0.795609 -3 0 -3 
C -0.795609 -3 -1.55874 -2.683901 -2.12132 -2.12132 
C -2.683901 -1.55874 -3 -0.795609 -3 0 
C -3 0.795609 -2.683901 1.55874 -2.12132 2.12132 
C -1.55874 2.683901 -0.795609 3 0 3 
z
" style="stroke: #1f77b4"/>
    </defs>
    <g clip-path="url(#pd32f22bf3d)">
     <use xlink:href="#mcabd250d0d" x="155.700531" y="447.718593" style="fill: #1f77b4; stroke: #1f77b4"/>
     <use xlink:href="#mcabd250d0d" x="168.754347" y="444.72009" style="fill: #1f77b4; stroke: #1f77b4"/>
     <use xlink:href="#mcabd250d0d" x="181.808163" y="441.552719" style="fill: #1f77b4; stroke: #1f77b4"/>
     <use xlink:href="#mcabd250d0d" x="194.861979" y="436.894663" style="fill: #1f77b4; stroke: #1f77b4"/>
     <use xlink:href="#mcabd250d0d" x="207.915794" y="429.355836" style="fill: #1f77b4; stroke: #1f77b4"/>
     <use xlink:href="#mcabd250d0d" x="220.96961" y="416.291327" style="fill: #1f77b4; stroke: #1f77b4"/>
     <use xlink:href="#mcabd250d0d" x="234.023426" y="386.405857" style="fill: #1f77b4; stroke: #1f77b4"/>
     <use xlink:href="#mcabd250d0d" x="247.077242" y="180.151597" style="fill: #1f77b4; stroke: #1f77b4"/>
     <use xlink:href="#mcabd250d0d" x="260.131058" y="141.558544" style="fill: #1f77b4; stroke: #1f77b4"/>
     <use xlink:href="#mcabd250d0d" x="273.184873" y="137.354927" style="fill: #1f77b4; stroke: #1f77b4"/>
     <use xlink:href="#mcabd250d0d" x="286.238689" y="135.734714" style="fill: #1f77b4; stroke: #1f77b4"/>
     <use xlink:href="#mcabd250d0d" x="299.292505" y="134.87806" style="fill: #1f77b4; stroke: #1f77b4"/>
     <use xlink:href="#mcabd250d0d" x="312.346321" y="134.351283" style="fill: #1f77b4; stroke: #1f77b4"/>
     <use xlink:href="#mcabd250d0d" x="325.400136" y="133.991746" style="fill: #1f77b4; stroke: #1f77b4"/>
     <use xlink:href="#mcabd250d0d" x="338.453952" y="133.731001" style="fill: #1f77b4; stroke: #1f77b4"/>
     <use xlink:href="#mcabd250d0d" x="351.507768" y="133.533716" style="fill: #1f77b4; stroke: #1f77b4"/>
     <use xlink:href="#mcabd250d0d" x="364.561584" y="133.378582" style="fill: #1f77b4; stroke: #1f77b4"/>
     <use xlink:href="#mcabd250d0d" x="377.615399" y="133.254377" style="fill: #1f77b4; stroke: #1f77b4"/>
     <use xlink:href="#mcabd250d0d" x="390.669215" y="133.151486" style="fill: #1f77b4; stroke: #1f77b4"/>
     <use xlink:href="#mcabd250d0d" x="403.723031" y="133.066428" style="fill: #1f77b4; stroke: #1f77b4"/>
     <use xlink:href="#mcabd250d0d" x="416.776847" y="132.993419" style="fill: #1f77b4; stroke: #1f77b4"/>
     <use xlink:href="#mcabd250d0d" x="429.830663" y="132.930671" style="fill: #1f77b4; stroke: #1f77b4"/>
     <use xlink:href="#mcabd250d0d" x="442.884478" y="132.876678" style="fill: #1f77b4; stroke: #1f77b4"/>
     <use xlink:href="#mcabd250d0d" x="455.938294" y="132.82817" style="fill: #1f77b4; stroke: #1f77b4"/>
     <use xlink:href="#mcabd250d0d" x="468.99211" y="132.786685" style="fill: #1f77b4; stroke: #1f77b4"/>
     <use xlink:href="#mcabd250d0d" x="482.045926" y="132.74896" style="fill: #1f77b4; stroke: #1f77b4"/>
     <use xlink:href="#mcabd250d0d" x="495.099741" y="132.715355" style="fill: #1f77b4; stroke: #1f77b4"/>
     <use xlink:href="#mcabd250d0d" x="508.153557" y="132.68498" style="fill: #1f77b4; stroke: #1f77b4"/>
     <use xlink:href="#mcabd250d0d" x="521.207373" y="132.657706" style="fill: #1f77b4; stroke: #1f77b4"/>
     <use xlink:href="#mcabd250d0d" x="534.261189" y="132.632625" style="fill: #1f77b4; stroke: #1f77b4"/>
     <use xlink:href="#mcabd250d0d" x="547.315004" y="132.609802" style="fill: #1f77b4; stroke: #1f77b4"/>
     <use xlink:href="#mcabd250d0d" x="560.36882" y="132.588807" style="fill: #1f77b4; stroke: #1f77b4"/>
     <use xlink:href="#mcabd250d0d" x="573.422636" y="132.569503" style="fill: #1f77b4; stroke: #1f77b4"/>
     <use xlink:href="#mcabd250d0d" x="586.476452" y="132.551646" style="fill: #1f77b4; stroke: #1f77b4"/>
     <use xlink:href="#mcabd250d0d" x="599.530268" y="132.535352" style="fill: #1f77b4; stroke: #1f77b4"/>
     <use xlink:href="#mcabd250d0d" x="612.584083" y="132.519786" style="fill: #1f77b4; stroke: #1f77b4"/>
     <use xlink:href="#mcabd250d0d" x="625.637899" y="132.505726" style="fill: #1f77b4; stroke: #1f77b4"/>
     <use xlink:href="#mcabd250d0d" x="638.691715" y="132.492252" style="fill: #1f77b4; stroke: #1f77b4"/>
     <use xlink:href="#mcabd250d0d" x="651.745531" y="132.479764" style="fill: #1f77b4; stroke: #1f77b4"/>
     <use xlink:href="#mcabd250d0d" x="664.799346" y="132.468052" style="fill: #1f77b4; stroke: #1f77b4"/>
     <use xlink:href="#mcabd250d0d" x="677.853162" y="132.456945" style="fill: #1f77b4; stroke: #1f77b4"/>
     <use xlink:href="#mcabd250d0d" x="690.906978" y="132.446641" style="fill: #1f77b4; stroke: #1f77b4"/>
     <use xlink:href="#mcabd250d0d" x="703.960794" y="132.436842" style="fill: #1f77b4; stroke: #1f77b4"/>
     <use xlink:href="#mcabd250d0d" x="717.01461" y="132.427565" style="fill: #1f77b4; stroke: #1f77b4"/>
     <use xlink:href="#mcabd250d0d" x="730.068425" y="132.418778" style="fill: #1f77b4; stroke: #1f77b4"/>
     <use xlink:href="#mcabd250d0d" x="743.122241" y="132.410488" style="fill: #1f77b4; stroke: #1f77b4"/>
     <use xlink:href="#mcabd250d0d" x="756.176057" y="132.402649" style="fill: #1f77b4; stroke: #1f77b4"/>
     <use xlink:href="#mcabd250d0d" x="769.229873" y="132.39515" style="fill: #1f77b4; stroke: #1f77b4"/>
     <use xlink:href="#mcabd250d0d" x="782.283688" y="132.387997" style="fill: #1f77b4; stroke: #1f77b4"/>
     <use xlink:href="#mcabd250d0d" x="795.011159" y="132.38137" style="fill: #1f77b4; stroke: #1f77b4"/>
    </g>
   </g>
   <g id="line2d_38">
    <path d="M 155.700531 447.773272 
L 168.754347 445.038088 
L 181.808163 441.233061 
L 194.861979 436.047653 
L 207.915794 428.054829 
L 220.96961 413.511845 
L 234.023426 385.044205 
L 247.077242 313.415744 
L 260.131058 351.469015 
L 273.184873 335.316867 
L 286.238689 273.332606 
L 299.292505 263.000543 
L 312.346321 328.449767 
L 325.400136 312.551003 
L 338.453952 305.282432 
L 351.507768 305.387756 
L 364.561584 308.853373 
L 377.615399 314.417223 
L 390.669215 341.673214 
L 403.723031 377.035249 
L 416.776847 360.026556 
L 429.830663 309.989395 
L 442.884478 339.004654 
L 455.938294 291.240723 
L 468.99211 336.090633 
L 482.045926 298.146933 
L 495.099741 313.932267 
L 508.153557 289.977257 
L 521.207373 310.613363 
L 534.261189 285.725024 
L 547.315004 257.342307 
L 560.36882 202.592185 
L 573.422636 237.803179 
L 586.476452 251.263809 
L 599.530268 313.981331 
L 612.584083 282.46201 
L 625.637899 330.332012 
L 638.691715 285.588334 
L 651.745531 228.946344 
L 664.799346 288.857458 
L 677.853162 240.58726 
L 690.906978 234.870349 
L 703.960794 257.146551 
L 717.01461 242.094727 
L 730.068425 223.318047 
L 743.122241 207.3814 
L 756.176057 226.504371 
L 769.229873 205.965362 
L 782.283688 179.00384 
L 795.011159 174.829273 
" clip-path="url(#pd32f22bf3d)" style="fill: none; stroke: #ff7f0e; stroke-width: 3; stroke-linecap: square"/>
    <defs>
     <path id="m76c20e5425" d="M 0 3 
C 0.795609 3 1.55874 2.683901 2.12132 2.12132 
C 2.683901 1.55874 3 0.795609 3 0 
C 3 -0.795609 2.683901 -1.55874 2.12132 -2.12132 
C 1.55874 -2.683901 0.795609 -3 0 -3 
C -0.795609 -3 -1.55874 -2.683901 -2.12132 -2.12132 
C -2.683901 -1.55874 -3 -0.795609 -3 0 
C -3 0.795609 -2.683901 1.55874 -2.12132 2.12132 
C -1.55874 2.683901 -0.795609 3 0 3 
z
" style="stroke: #ff7f0e"/>
    </defs>
    <g clip-path="url(#pd32f22bf3d)">
     <use xlink:href="#m76c20e5425" x="155.700531" y="447.773272" style="fill: #ff7f0e; stroke: #ff7f0e"/>
     <use xlink:href="#m76c20e5425" x="168.754347" y="445.038088" style="fill: #ff7f0e; stroke: #ff7f0e"/>
     <use xlink:href="#m76c20e5425" x="181.808163" y="441.233061" style="fill: #ff7f0e; stroke: #ff7f0e"/>
     <use xlink:href="#m76c20e5425" x="194.861979" y="436.047653" style="fill: #ff7f0e; stroke: #ff7f0e"/>
     <use xlink:href="#m76c20e5425" x="207.915794" y="428.054829" style="fill: #ff7f0e; stroke: #ff7f0e"/>
     <use xlink:href="#m76c20e5425" x="220.96961" y="413.511845" style="fill: #ff7f0e; stroke: #ff7f0e"/>
     <use xlink:href="#m76c20e5425" x="234.023426" y="385.044205" style="fill: #ff7f0e; stroke: #ff7f0e"/>
     <use xlink:href="#m76c20e5425" x="247.077242" y="313.415744" style="fill: #ff7f0e; stroke: #ff7f0e"/>
     <use xlink:href="#m76c20e5425" x="260.131058" y="351.469015" style="fill: #ff7f0e; stroke: #ff7f0e"/>
     <use xlink:href="#m76c20e5425" x="273.184873" y="335.316867" style="fill: #ff7f0e; stroke: #ff7f0e"/>
     <use xlink:href="#m76c20e5425" x="286.238689" y="273.332606" style="fill: #ff7f0e; stroke: #ff7f0e"/>
     <use xlink:href="#m76c20e5425" x="299.292505" y="263.000543" style="fill: #ff7f0e; stroke: #ff7f0e"/>
     <use xlink:href="#m76c20e5425" x="312.346321" y="328.449767" style="fill: #ff7f0e; stroke: #ff7f0e"/>
     <use xlink:href="#m76c20e5425" x="325.400136" y="312.551003" style="fill: #ff7f0e; stroke: #ff7f0e"/>
     <use xlink:href="#m76c20e5425" x="338.453952" y="305.282432" style="fill: #ff7f0e; stroke: #ff7f0e"/>
     <use xlink:href="#m76c20e5425" x="351.507768" y="305.387756" style="fill: #ff7f0e; stroke: #ff7f0e"/>
     <use xlink:href="#m76c20e5425" x="364.561584" y="308.853373" style="fill: #ff7f0e; stroke: #ff7f0e"/>
     <use xlink:href="#m76c20e5425" x="377.615399" y="314.417223" style="fill: #ff7f0e; stroke: #ff7f0e"/>
     <use xlink:href="#m76c20e5425" x="390.669215" y="341.673214" style="fill: #ff7f0e; stroke: #ff7f0e"/>
     <use xlink:href="#m76c20e5425" x="403.723031" y="377.035249" style="fill: #ff7f0e; stroke: #ff7f0e"/>
     <use xlink:href="#m76c20e5425" x="416.776847" y="360.026556" style="fill: #ff7f0e; stroke: #ff7f0e"/>
     <use xlink:href="#m76c20e5425" x="429.830663" y="309.989395" style="fill: #ff7f0e; stroke: #ff7f0e"/>
     <use xlink:href="#m76c20e5425" x="442.884478" y="339.004654" style="fill: #ff7f0e; stroke: #ff7f0e"/>
     <use xlink:href="#m76c20e5425" x="455.938294" y="291.240723" style="fill: #ff7f0e; stroke: #ff7f0e"/>
     <use xlink:href="#m76c20e5425" x="468.99211" y="336.090633" style="fill: #ff7f0e; stroke: #ff7f0e"/>
     <use xlink:href="#m76c20e5425" x="482.045926" y="298.146933" style="fill: #ff7f0e; stroke: #ff7f0e"/>
     <use xlink:href="#m76c20e5425" x="495.099741" y="313.932267" style="fill: #ff7f0e; stroke: #ff7f0e"/>
     <use xlink:href="#m76c20e5425" x="508.153557" y="289.977257" style="fill: #ff7f0e; stroke: #ff7f0e"/>
     <use xlink:href="#m76c20e5425" x="521.207373" y="310.613363" style="fill: #ff7f0e; stroke: #ff7f0e"/>
     <use xlink:href="#m76c20e5425" x="534.261189" y="285.725024" style="fill: #ff7f0e; stroke: #ff7f0e"/>
     <use xlink:href="#m76c20e5425" x="547.315004" y="257.342307" style="fill: #ff7f0e; stroke: #ff7f0e"/>
     <use xlink:href="#m76c20e5425" x="560.36882" y="202.592185" style="fill: #ff7f0e; stroke: #ff7f0e"/>
     <use xlink:href="#m76c20e5425" x="573.422636" y="237.803179" style="fill: #ff7f0e; stroke: #ff7f0e"/>
     <use xlink:href="#m76c20e5425" x="586.476452" y="251.263809" style="fill: #ff7f0e; stroke: #ff7f0e"/>
     <use xlink:href="#m76c20e5425" x="599.530268" y="313.981331" style="fill: #ff7f0e; stroke: #ff7f0e"/>
     <use xlink:href="#m76c20e5425" x="612.584083" y="282.46201" style="fill: #ff7f0e; stroke: #ff7f0e"/>
     <use xlink:href="#m76c20e5425" x="625.637899" y="330.332012" style="fill: #ff7f0e; stroke: #ff7f0e"/>
     <use xlink:href="#m76c20e5425" x="638.691715" y="285.588334" style="fill: #ff7f0e; stroke: #ff7f0e"/>
     <use xlink:href="#m76c20e5425" x="651.745531" y="228.946344" style="fill: #ff7f0e; stroke: #ff7f0e"/>
     <use xlink:href="#m76c20e5425" x="664.799346" y="288.857458" style="fill: #ff7f0e; stroke: #ff7f0e"/>
     <use xlink:href="#m76c20e5425" x="677.853162" y="240.58726" style="fill: #ff7f0e; stroke: #ff7f0e"/>
     <use xlink:href="#m76c20e5425" x="690.906978" y="234.870349" style="fill: #ff7f0e; stroke: #ff7f0e"/>
     <use xlink:href="#m76c20e5425" x="703.960794" y="257.146551" style="fill: #ff7f0e; stroke: #ff7f0e"/>
     <use xlink:href="#m76c20e5425" x="717.01461" y="242.094727" style="fill: #ff7f0e; stroke: #ff7f0e"/>
     <use xlink:href="#m76c20e5425" x="730.068425" y="223.318047" style="fill: #ff7f0e; stroke: #ff7f0e"/>
     <use xlink:href="#m76c20e5425" x="743.122241" y="207.3814" style="fill: #ff7f0e; stroke: #ff7f0e"/>
     <use xlink:href="#m76c20e5425" x="756.176057" y="226.504371" style="fill: #ff7f0e; stroke: #ff7f0e"/>
     <use xlink:href="#m76c20e5425" x="769.229873" y="205.965362" style="fill: #ff7f0e; stroke: #ff7f0e"/>
     <use xlink:href="#m76c20e5425" x="782.283688" y="179.00384" style="fill: #ff7f0e; stroke: #ff7f0e"/>
     <use xlink:href="#m76c20e5425" x="795.011159" y="174.829273" style="fill: #ff7f0e; stroke: #ff7f0e"/>
    </g>
   </g>
   <g id="line2d_39">
    <path d="M 155.700531 49.056278 
L 168.754347 49.067904 
L 181.808163 49.131571 
L 194.861979 49.097015 
L 207.915794 49.041477 
L 220.96961 49.562062 
L 234.023426 52.558093 
L 247.077242 102.557881 
L 260.131058 251.01286 
L 273.184873 256.671218 
L 286.238689 306.472897 
L 299.292505 299.690983 
L 312.346321 271.847892 
L 325.400136 264.716736 
L 338.453952 284.607632 
L 351.507768 269.844542 
L 364.561584 281.666952 
L 377.615399 289.640847 
L 390.669215 243.274695 
L 403.723031 254.756438 
L 416.776847 246.860168 
L 429.830663 259.291618 
L 442.884478 278.961106 
L 455.938294 258.661026 
L 468.99211 277.375626 
L 482.045926 272.134209 
L 495.099741 282.642497 
L 508.153557 271.168509 
L 521.207373 290.341616 
L 534.261189 274.552404 
L 547.315004 345.143447 
L 560.36882 394.566977 
L 573.422636 348.081278 
L 586.476452 298.962821 
L 599.530268 301.972609 
L 612.584083 272.892938 
L 625.637899 278.860956 
L 638.691715 279.14722 
L 651.745531 380.990075 
L 664.799346 324.048545 
L 677.853162 322.250049 
L 690.906978 358.854405 
L 703.960794 347.642957 
L 717.01461 316.348893 
L 730.068425 355.639077 
L 743.122241 408.010353 
L 756.176057 373.404561 
L 769.229873 413.944644 
L 782.283688 467.780393 
L 795.011159 468.271023 
" clip-path="url(#pd32f22bf3d)" style="fill: none; stroke: #000000; stroke-width: 3; stroke-linecap: square"/>
    <defs>
     <path id="m33b201bbcc" d="M 0 3 
C 0.795609 3 1.55874 2.683901 2.12132 2.12132 
C 2.683901 1.55874 3 0.795609 3 0 
C 3 -0.795609 2.683901 -1.55874 2.12132 -2.12132 
C 1.55874 -2.683901 0.795609 -3 0 -3 
C -0.795609 -3 -1.55874 -2.683901 -2.12132 -2.12132 
C -2.683901 -1.55874 -3 -0.795609 -3 0 
C -3 0.795609 -2.683901 1.55874 -2.12132 2.12132 
C -1.55874 2.683901 -0.795609 3 0 3 
z
" style="stroke: #000000"/>
    </defs>
    <g clip-path="url(#pd32f22bf3d)">
     <use xlink:href="#m33b201bbcc" x="155.700531" y="49.056278" style="stroke: #000000"/>
     <use xlink:href="#m33b201bbcc" x="168.754347" y="49.067904" style="stroke: #000000"/>
     <use xlink:href="#m33b201bbcc" x="181.808163" y="49.131571" style="stroke: #000000"/>
     <use xlink:href="#m33b201bbcc" x="194.861979" y="49.097015" style="stroke: #000000"/>
     <use xlink:href="#m33b201bbcc" x="207.915794" y="49.041477" style="stroke: #000000"/>
     <use xlink:href="#m33b201bbcc" x="220.96961" y="49.562062" style="stroke: #000000"/>
     <use xlink:href="#m33b201bbcc" x="234.023426" y="52.558093" style="stroke: #000000"/>
     <use xlink:href="#m33b201bbcc" x="247.077242" y="102.557881" style="stroke: #000000"/>
     <use xlink:href="#m33b201bbcc" x="260.131058" y="251.01286" style="stroke: #000000"/>
     <use xlink:href="#m33b201bbcc" x="273.184873" y="256.671218" style="stroke: #000000"/>
     <use xlink:href="#m33b201bbcc" x="286.238689" y="306.472897" style="stroke: #000000"/>
     <use xlink:href="#m33b201bbcc" x="299.292505" y="299.690983" style="stroke: #000000"/>
     <use xlink:href="#m33b201bbcc" x="312.346321" y="271.847892" style="stroke: #000000"/>
     <use xlink:href="#m33b201bbcc" x="325.400136" y="264.716736" style="stroke: #000000"/>
     <use xlink:href="#m33b201bbcc" x="338.453952" y="284.607632" style="stroke: #000000"/>
     <use xlink:href="#m33b201bbcc" x="351.507768" y="269.844542" style="stroke: #000000"/>
     <use xlink:href="#m33b201bbcc" x="364.561584" y="281.666952" style="stroke: #000000"/>
     <use xlink:href="#m33b201bbcc" x="377.615399" y="289.640847" style="stroke: #000000"/>
     <use xlink:href="#m33b201bbcc" x="390.669215" y="243.274695" style="stroke: #000000"/>
     <use xlink:href="#m33b201bbcc" x="403.723031" y="254.756438" style="stroke: #000000"/>
     <use xlink:href="#m33b201bbcc" x="416.776847" y="246.860168" style="stroke: #000000"/>
     <use xlink:href="#m33b201bbcc" x="429.830663" y="259.291618" style="stroke: #000000"/>
     <use xlink:href="#m33b201bbcc" x="442.884478" y="278.961106" style="stroke: #000000"/>
     <use xlink:href="#m33b201bbcc" x="455.938294" y="258.661026" style="stroke: #000000"/>
     <use xlink:href="#m33b201bbcc" x="468.99211" y="277.375626" style="stroke: #000000"/>
     <use xlink:href="#m33b201bbcc" x="482.045926" y="272.134209" style="stroke: #000000"/>
     <use xlink:href="#m33b201bbcc" x="495.099741" y="282.642497" style="stroke: #000000"/>
     <use xlink:href="#m33b201bbcc" x="508.153557" y="271.168509" style="stroke: #000000"/>
     <use xlink:href="#m33b201bbcc" x="521.207373" y="290.341616" style="stroke: #000000"/>
     <use xlink:href="#m33b201bbcc" x="534.261189" y="274.552404" style="stroke: #000000"/>
     <use xlink:href="#m33b201bbcc" x="547.315004" y="345.143447" style="stroke: #000000"/>
     <use xlink:href="#m33b201bbcc" x="560.36882" y="394.566977" style="stroke: #000000"/>
     <use xlink:href="#m33b201bbcc" x="573.422636" y="348.081278" style="stroke: #000000"/>
     <use xlink:href="#m33b201bbcc" x="586.476452" y="298.962821" style="stroke: #000000"/>
     <use xlink:href="#m33b201bbcc" x="599.530268" y="301.972609" style="stroke: #000000"/>
     <use xlink:href="#m33b201bbcc" x="612.584083" y="272.892938" style="stroke: #000000"/>
     <use xlink:href="#m33b201bbcc" x="625.637899" y="278.860956" style="stroke: #000000"/>
     <use xlink:href="#m33b201bbcc" x="638.691715" y="279.14722" style="stroke: #000000"/>
     <use xlink:href="#m33b201bbcc" x="651.745531" y="380.990075" style="stroke: #000000"/>
     <use xlink:href="#m33b201bbcc" x="664.799346" y="324.048545" style="stroke: #000000"/>
     <use xlink:href="#m33b201bbcc" x="677.853162" y="322.250049" style="stroke: #000000"/>
     <use xlink:href="#m33b201bbcc" x="690.906978" y="358.854405" style="stroke: #000000"/>
     <use xlink:href="#m33b201bbcc" x="703.960794" y="347.642957" style="stroke: #000000"/>
     <use xlink:href="#m33b201bbcc" x="717.01461" y="316.348893" style="stroke: #000000"/>
     <use xlink:href="#m33b201bbcc" x="730.068425" y="355.639077" style="stroke: #000000"/>
     <use xlink:href="#m33b201bbcc" x="743.122241" y="408.010353" style="stroke: #000000"/>
     <use xlink:href="#m33b201bbcc" x="756.176057" y="373.404561" style="stroke: #000000"/>
     <use xlink:href="#m33b201bbcc" x="769.229873" y="413.944644" style="stroke: #000000"/>
     <use xlink:href="#m33b201bbcc" x="782.283688" y="467.780393" style="stroke: #000000"/>
     <use xlink:href="#m33b201bbcc" x="795.011159" y="468.271023" style="stroke: #000000"/>
    </g>
   </g>
   <g id="patch_3">
    <path d="M 123.735 489.2325 
L 123.735 28.08 
" style="fill: none; stroke: #000000; stroke-width: 2; stroke-linejoin: miter; stroke-linecap: square"/>
   </g>
   <g id="patch_4">
    <path d="M 826.97669 489.2325 
L 826.97669 28.08 
" style="fill: none; stroke: #000000; stroke-width: 2; stroke-linejoin: miter; stroke-linecap: square"/>
   </g>
   <g id="patch_5">
    <path d="M 123.735 489.2325 
L 826.97669 489.2325 
" style="fill: none; stroke: #000000; stroke-width: 2; stroke-linejoin: miter; stroke-linecap: square"/>
   </g>
   <g id="patch_6">
    <path d="M 123.735 28.08 
L 826.97669 28.08 
" style="fill: none; stroke: #000000; stroke-width: 2; stroke-linejoin: miter; stroke-linecap: square"/>
   </g>
   <g id="legend_1">
    <g id="patch_7">
     <path d="M 677.27919 111.335 
L 815.77669 111.335 
Q 818.97669 111.335 818.97669 108.135 
L 818.97669 39.28 
Q 818.97669 36.08 815.77669 36.08 
L 677.27919 36.08 
Q 674.07919 36.08 674.07919 39.28 
L 674.07919 108.135 
Q 674.07919 111.335 677.27919 111.335 
z
" style="fill: #ffffff; opacity: 0.8; stroke: #cccccc; stroke-linejoin: miter"/>
    </g>
    <g id="line2d_40">
     <path d="M 680.47919 49.0375 
L 696.47919 49.0375 
L 712.47919 49.0375 
" style="fill: none; stroke: #1f77b4; stroke-width: 3; stroke-linecap: square"/>
     <g>
      <use xlink:href="#mcabd250d0d" x="696.47919" y="49.0375" style="fill: #1f77b4; stroke: #1f77b4"/>
     </g>
    </g>
    <g id="text_15">
     <!-- Electron 1 -->
     <g transform="translate(725.27919 54.6375) scale(0.16 -0.16)">
      <defs>
       <path id="DejaVuSerif-45" d="M 353 0 
L 353 331 
L 947 331 
L 947 4331 
L 353 4331 
L 353 4666 
L 4109 4666 
L 4109 3628 
L 3725 3628 
L 3725 4281 
L 1581 4281 
L 1581 2719 
L 3109 2719 
L 3109 3303 
L 3494 3303 
L 3494 1753 
L 3109 1753 
L 3109 2338 
L 1581 2338 
L 1581 384 
L 3775 384 
L 3775 1038 
L 4159 1038 
L 4159 0 
L 353 0 
z
" transform="scale(0.015625)"/>
       <path id="DejaVuSerif-6f" d="M 1925 219 
Q 2388 219 2623 584 
Q 2859 950 2859 1663 
Q 2859 2375 2623 2739 
Q 2388 3103 1925 3103 
Q 1463 3103 1227 2739 
Q 991 2375 991 1663 
Q 991 950 1228 584 
Q 1466 219 1925 219 
z
M 1925 -91 
Q 1200 -91 759 389 
Q 319 869 319 1663 
Q 319 2456 758 2934 
Q 1197 3413 1925 3413 
Q 2653 3413 3092 2934 
Q 3531 2456 3531 1663 
Q 3531 869 3092 389 
Q 2653 -91 1925 -91 
z
" transform="scale(0.015625)"/>
      </defs>
      <use xlink:href="#DejaVuSerif-45"/>
      <use xlink:href="#DejaVuSerif-6c" x="72.998047"/>
      <use xlink:href="#DejaVuSerif-65" x="104.980469"/>
      <use xlink:href="#DejaVuSerif-63" x="164.160156"/>
      <use xlink:href="#DejaVuSerif-74" x="220.166016"/>
      <use xlink:href="#DejaVuSerif-72" x="260.351562"/>
      <use xlink:href="#DejaVuSerif-6f" x="308.154297"/>
      <use xlink:href="#DejaVuSerif-6e" x="368.359375"/>
      <use xlink:href="#DejaVuSerif-20" x="432.763672"/>
      <use xlink:href="#DejaVuSerif-31" x="464.550781"/>
     </g>
    </g>
    <g id="line2d_41">
     <path d="M 680.47919 72.5225 
L 696.47919 72.5225 
L 712.47919 72.5225 
" style="fill: none; stroke: #ff7f0e; stroke-width: 3; stroke-linecap: square"/>
     <g>
      <use xlink:href="#m76c20e5425" x="696.47919" y="72.5225" style="fill: #ff7f0e; stroke: #ff7f0e"/>
     </g>
    </g>
    <g id="text_16">
     <!-- Electron 2 -->
     <g transform="translate(725.27919 78.1225) scale(0.16 -0.16)">
      <use xlink:href="#DejaVuSerif-45"/>
      <use xlink:href="#DejaVuSerif-6c" x="72.998047"/>
      <use xlink:href="#DejaVuSerif-65" x="104.980469"/>
      <use xlink:href="#DejaVuSerif-63" x="164.160156"/>
      <use xlink:href="#DejaVuSerif-74" x="220.166016"/>
      <use xlink:href="#DejaVuSerif-72" x="260.351562"/>
      <use xlink:href="#DejaVuSerif-6f" x="308.154297"/>
      <use xlink:href="#DejaVuSerif-6e" x="368.359375"/>
      <use xlink:href="#DejaVuSerif-20" x="432.763672"/>
      <use xlink:href="#DejaVuSerif-32" x="464.550781"/>
     </g>
    </g>
    <g id="line2d_42">
     <path d="M 680.47919 96.0075 
L 696.47919 96.0075 
L 712.47919 96.0075 
" style="fill: none; stroke: #000000; stroke-width: 3; stroke-linecap: square"/>
     <g>
      <use xlink:href="#m33b201bbcc" x="696.47919" y="96.0075" style="stroke: #000000"/>
     </g>
    </g>
    <g id="text_17">
     <!-- Antiproton -->
     <g transform="translate(725.27919 101.6075) scale(0.16 -0.16)">
      <defs>
       <path id="DejaVuSerif-41" d="M 1281 1691 
L 2994 1691 
L 2138 3909 
L 1281 1691 
z
M -38 0 
L -38 331 
L 372 331 
L 2034 4666 
L 2559 4666 
L 4225 331 
L 4684 331 
L 4684 0 
L 2988 0 
L 2988 331 
L 3506 331 
L 3116 1356 
L 1153 1356 
L 763 331 
L 1275 331 
L 1275 0 
L -38 0 
z
" transform="scale(0.015625)"/>
       <path id="DejaVuSerif-70" d="M 1313 1825 
L 1313 1497 
Q 1313 897 1542 583 
Q 1772 269 2209 269 
Q 2650 269 2876 622 
Q 3103 975 3103 1663 
Q 3103 2353 2876 2703 
Q 2650 3053 2209 3053 
Q 1772 3053 1542 2737 
Q 1313 2422 1313 1825 
z
M 738 2988 
L 184 2988 
L 184 3322 
L 1313 3322 
L 1313 2803 
Q 1481 3116 1742 3264 
Q 2003 3413 2388 3413 
Q 3000 3413 3387 2928 
Q 3775 2444 3775 1663 
Q 3775 881 3387 395 
Q 3000 -91 2388 -91 
Q 2003 -91 1742 57 
Q 1481 206 1313 519 
L 1313 -997 
L 1856 -997 
L 1856 -1331 
L 184 -1331 
L 184 -997 
L 738 -997 
L 738 2988 
z
" transform="scale(0.015625)"/>
      </defs>
      <use xlink:href="#DejaVuSerif-41"/>
      <use xlink:href="#DejaVuSerif-6e" x="72.216797"/>
      <use xlink:href="#DejaVuSerif-74" x="136.621094"/>
      <use xlink:href="#DejaVuSerif-69" x="176.806641"/>
      <use xlink:href="#DejaVuSerif-70" x="208.789062"/>
      <use xlink:href="#DejaVuSerif-72" x="272.802734"/>
      <use xlink:href="#DejaVuSerif-6f" x="320.605469"/>
      <use xlink:href="#DejaVuSerif-74" x="380.810547"/>
      <use xlink:href="#DejaVuSerif-6f" x="420.996094"/>
      <use xlink:href="#DejaVuSerif-6e" x="481.201172"/>
     </g>
    </g>
   </g>
  </g>
 </g>
 <defs>
  <clipPath id="pd32f22bf3d">
   <rect x="123.735" y="28.08" width="703.24169" height="461.1525"/>
  </clipPath>
 </defs>
</svg>
