<?xml version="1.0" encoding="utf-8" standalone="no"?>
<!DOCTYPE svg PUBLIC "-//W3C//DTD SVG 1.1//EN"
  "http://www.w3.org/Graphics/SVG/1.1/DTD/svg11.dtd">
<svg xmlns:xlink="http://www.w3.org/1999/xlink" width="720pt" height="504pt" viewBox="0 0 720 504" xmlns="http://www.w3.org/2000/svg" version="1.1">
 <metadata>
  <rdf:RDF xmlns:dc="http://purl.org/dc/elements/1.1/" xmlns:cc="http://creativecommons.org/ns#" xmlns:rdf="http://www.w3.org/1999/02/22-rdf-syntax-ns#">
   <cc:Work>
    <dc:type rdf:resource="http://purl.org/dc/dcmitype/StillImage"/>
    <dc:date>2025-06-09T13:58:04.523074</dc:date>
    <dc:format>image/svg+xml</dc:format>
    <dc:creator>
     <cc:Agent>
      <dc:title>Matplotlib v3.7.2, https://matplotlib.org/</dc:title>
     </cc:Agent>
    </dc:creator>
   </cc:Work>
  </rdf:RDF>
 </metadata>
 <defs>
  <style type="text/css">*{stroke-linejoin: round; stroke-linecap: butt}</style>
 </defs>
 <g id="figure_1">
  <g id="patch_1">
   <path d="M 0 504 
L 720 504 
L 720 0 
L 0 0 
z
" style="fill: #ffffff"/>
  </g>
  <g id="axes_1">
   <g id="patch_2">
    <path d="M 164.46 417.2325 
L 684.118636 417.2325 
L 684.118636 28.08 
L 164.46 28.08 
z
" style="fill: #ffffff"/>
   </g>
   <g id="matplotlib.axis_1">
    <g id="xtick_1">
     <g id="line2d_1">
      <path d="M 188.080847 417.2325 
L 188.080847 28.08 
" clip-path="url(#p97bc4ed02d)" style="fill: none; stroke-dasharray: 3.7,1.6; stroke-dashoffset: 0; stroke: #b0b0b0; stroke-opacity: 0.5"/>
     </g>
     <g id="line2d_2">
      <defs>
       <path id="m783e3ac7d3" d="M 0 0 
L 0 -10 
" style="stroke: #000000; stroke-width: 2"/>
      </defs>
      <g>
       <use xlink:href="#m783e3ac7d3" x="188.080847" y="417.2325" style="stroke: #000000; stroke-width: 2"/>
      </g>
     </g>
     <g id="line2d_3">
      <defs>
       <path id="m27026e82f8" d="M 0 0 
L 0 10 
" style="stroke: #000000; stroke-width: 2"/>
      </defs>
      <g>
       <use xlink:href="#m27026e82f8" x="188.080847" y="28.08" style="stroke: #000000; stroke-width: 2"/>
      </g>
     </g>
     <g id="text_1">
      <!-- 0 -->
      <g transform="translate(179.809597 440.488438) scale(0.26 -0.26)">
       <defs>
        <path id="DejaVuSerif-30" d="M 2034 219 
Q 2513 219 2750 744 
Q 2988 1269 2988 2328 
Q 2988 3391 2750 3916 
Q 2513 4441 2034 4441 
Q 1556 4441 1318 3916 
Q 1081 3391 1081 2328 
Q 1081 1269 1318 744 
Q 1556 219 2034 219 
z
M 2034 -91 
Q 1275 -91 848 546 
Q 422 1184 422 2328 
Q 422 3475 848 4112 
Q 1275 4750 2034 4750 
Q 2797 4750 3222 4112 
Q 3647 3475 3647 2328 
Q 3647 1184 3222 546 
Q 2797 -91 2034 -91 
z
" transform="scale(0.015625)"/>
       </defs>
       <use xlink:href="#DejaVuSerif-30"/>
      </g>
     </g>
    </g>
    <g id="xtick_2">
     <g id="line2d_4">
      <path d="M 282.564236 417.2325 
L 282.564236 28.08 
" clip-path="url(#p97bc4ed02d)" style="fill: none; stroke-dasharray: 3.7,1.6; stroke-dashoffset: 0; stroke: #b0b0b0; stroke-opacity: 0.5"/>
     </g>
     <g id="line2d_5">
      <g>
       <use xlink:href="#m783e3ac7d3" x="282.564236" y="417.2325" style="stroke: #000000; stroke-width: 2"/>
      </g>
     </g>
     <g id="line2d_6">
      <g>
       <use xlink:href="#m27026e82f8" x="282.564236" y="28.08" style="stroke: #000000; stroke-width: 2"/>
      </g>
     </g>
     <g id="text_2">
      <!-- 500 -->
      <g transform="translate(257.750486 440.488438) scale(0.26 -0.26)">
       <defs>
        <path id="DejaVuSerif-35" d="M 3219 4666 
L 3219 4153 
L 1081 4153 
L 1081 2816 
Q 1244 2928 1461 2984 
Q 1678 3041 1947 3041 
Q 2703 3041 3140 2622 
Q 3578 2203 3578 1478 
Q 3578 738 3136 323 
Q 2694 -91 1894 -91 
Q 1572 -91 1234 -12 
Q 897 66 544 225 
L 544 1131 
L 897 1131 
Q 925 688 1179 453 
Q 1434 219 1894 219 
Q 2388 219 2653 544 
Q 2919 869 2919 1478 
Q 2919 2084 2655 2407 
Q 2391 2731 1894 2731 
Q 1613 2731 1398 2631 
Q 1184 2531 1019 2322 
L 750 2322 
L 750 4666 
L 3219 4666 
z
" transform="scale(0.015625)"/>
       </defs>
       <use xlink:href="#DejaVuSerif-35"/>
       <use xlink:href="#DejaVuSerif-30" x="63.623047"/>
       <use xlink:href="#DejaVuSerif-30" x="127.246094"/>
      </g>
     </g>
    </g>
    <g id="xtick_3">
     <g id="line2d_7">
      <path d="M 377.047624 417.2325 
L 377.047624 28.08 
" clip-path="url(#p97bc4ed02d)" style="fill: none; stroke-dasharray: 3.7,1.6; stroke-dashoffset: 0; stroke: #b0b0b0; stroke-opacity: 0.5"/>
     </g>
     <g id="line2d_8">
      <g>
       <use xlink:href="#m783e3ac7d3" x="377.047624" y="417.2325" style="stroke: #000000; stroke-width: 2"/>
      </g>
     </g>
     <g id="line2d_9">
      <g>
       <use xlink:href="#m27026e82f8" x="377.047624" y="28.08" style="stroke: #000000; stroke-width: 2"/>
      </g>
     </g>
     <g id="text_3">
      <!-- 1000 -->
      <g transform="translate(343.962624 440.488438) scale(0.26 -0.26)">
       <defs>
        <path id="DejaVuSerif-31" d="M 909 0 
L 909 331 
L 1722 331 
L 1722 4213 
L 781 3603 
L 781 4013 
L 1919 4750 
L 2350 4750 
L 2350 331 
L 3163 331 
L 3163 0 
L 909 0 
z
" transform="scale(0.015625)"/>
       </defs>
       <use xlink:href="#DejaVuSerif-31"/>
       <use xlink:href="#DejaVuSerif-30" x="63.623047"/>
       <use xlink:href="#DejaVuSerif-30" x="127.246094"/>
       <use xlink:href="#DejaVuSerif-30" x="190.869141"/>
      </g>
     </g>
    </g>
    <g id="xtick_4">
     <g id="line2d_10">
      <path d="M 471.531012 417.2325 
L 471.531012 28.08 
" clip-path="url(#p97bc4ed02d)" style="fill: none; stroke-dasharray: 3.7,1.6; stroke-dashoffset: 0; stroke: #b0b0b0; stroke-opacity: 0.5"/>
     </g>
     <g id="line2d_11">
      <g>
       <use xlink:href="#m783e3ac7d3" x="471.531012" y="417.2325" style="stroke: #000000; stroke-width: 2"/>
      </g>
     </g>
     <g id="line2d_12">
      <g>
       <use xlink:href="#m27026e82f8" x="471.531012" y="28.08" style="stroke: #000000; stroke-width: 2"/>
      </g>
     </g>
     <g id="text_4">
      <!-- 1500 -->
      <g transform="translate(438.446012 440.488438) scale(0.26 -0.26)">
       <use xlink:href="#DejaVuSerif-31"/>
       <use xlink:href="#DejaVuSerif-35" x="63.623047"/>
       <use xlink:href="#DejaVuSerif-30" x="127.246094"/>
       <use xlink:href="#DejaVuSerif-30" x="190.869141"/>
      </g>
     </g>
    </g>
    <g id="xtick_5">
     <g id="line2d_13">
      <path d="M 566.014401 417.2325 
L 566.014401 28.08 
" clip-path="url(#p97bc4ed02d)" style="fill: none; stroke-dasharray: 3.7,1.6; stroke-dashoffset: 0; stroke: #b0b0b0; stroke-opacity: 0.5"/>
     </g>
     <g id="line2d_14">
      <g>
       <use xlink:href="#m783e3ac7d3" x="566.014401" y="417.2325" style="stroke: #000000; stroke-width: 2"/>
      </g>
     </g>
     <g id="line2d_15">
      <g>
       <use xlink:href="#m27026e82f8" x="566.014401" y="28.08" style="stroke: #000000; stroke-width: 2"/>
      </g>
     </g>
     <g id="text_5">
      <!-- 2000 -->
      <g transform="translate(532.929401 440.488438) scale(0.26 -0.26)">
       <defs>
        <path id="DejaVuSerif-32" d="M 819 3553 
L 469 3553 
L 469 4384 
Q 803 4563 1142 4656 
Q 1481 4750 1806 4750 
Q 2534 4750 2956 4397 
Q 3378 4044 3378 3438 
Q 3378 2753 2422 1800 
Q 2347 1728 2309 1691 
L 1131 513 
L 3078 513 
L 3078 1088 
L 3444 1088 
L 3444 0 
L 434 0 
L 434 341 
L 1850 1753 
Q 2319 2222 2519 2614 
Q 2719 3006 2719 3438 
Q 2719 3909 2473 4175 
Q 2228 4441 1797 4441 
Q 1350 4441 1106 4219 
Q 863 3997 819 3553 
z
" transform="scale(0.015625)"/>
       </defs>
       <use xlink:href="#DejaVuSerif-32"/>
       <use xlink:href="#DejaVuSerif-30" x="63.623047"/>
       <use xlink:href="#DejaVuSerif-30" x="127.246094"/>
       <use xlink:href="#DejaVuSerif-30" x="190.869141"/>
      </g>
     </g>
    </g>
    <g id="xtick_6">
     <g id="line2d_16">
      <path d="M 660.497789 417.2325 
L 660.497789 28.08 
" clip-path="url(#p97bc4ed02d)" style="fill: none; stroke-dasharray: 3.7,1.6; stroke-dashoffset: 0; stroke: #b0b0b0; stroke-opacity: 0.5"/>
     </g>
     <g id="line2d_17">
      <g>
       <use xlink:href="#m783e3ac7d3" x="660.497789" y="417.2325" style="stroke: #000000; stroke-width: 2"/>
      </g>
     </g>
     <g id="line2d_18">
      <g>
       <use xlink:href="#m27026e82f8" x="660.497789" y="28.08" style="stroke: #000000; stroke-width: 2"/>
      </g>
     </g>
     <g id="text_6">
      <!-- 2500 -->
      <g transform="translate(627.412789 440.488438) scale(0.26 -0.26)">
       <use xlink:href="#DejaVuSerif-32"/>
       <use xlink:href="#DejaVuSerif-35" x="63.623047"/>
       <use xlink:href="#DejaVuSerif-30" x="127.246094"/>
       <use xlink:href="#DejaVuSerif-30" x="190.869141"/>
      </g>
     </g>
    </g>
    <g id="text_7">
     <!-- $t$ (a.u.) -->
     <g transform="translate(380.869318 469.651563) scale(0.26 -0.26)">
      <defs>
       <path id="Cmmi10-74" d="M 397 519 
Q 397 613 416 697 
L 878 2534 
L 206 2534 
Q 141 2534 141 2619 
Q 166 2759 225 2759 
L 934 2759 
L 1191 3803 
Q 1216 3888 1291 3947 
Q 1366 4006 1459 4006 
Q 1541 4006 1595 3957 
Q 1650 3909 1650 3828 
Q 1650 3809 1648 3798 
Q 1647 3788 1644 3775 
L 1388 2759 
L 2047 2759 
Q 2113 2759 2113 2675 
Q 2109 2659 2100 2621 
Q 2091 2584 2075 2559 
Q 2059 2534 2028 2534 
L 1331 2534 
L 872 684 
Q 825 503 825 372 
Q 825 97 1013 97 
Q 1294 97 1511 361 
Q 1728 625 1844 941 
Q 1869 978 1894 978 
L 1972 978 
Q 1997 978 2012 961 
Q 2028 944 2028 922 
Q 2028 909 2022 903 
Q 1881 516 1612 222 
Q 1344 -72 997 -72 
Q 744 -72 570 93 
Q 397 259 397 519 
z
" transform="scale(0.015625)"/>
       <path id="DejaVuSerif-20" transform="scale(0.015625)"/>
       <path id="DejaVuSerif-28" d="M 2041 -997 
Q 1281 -656 893 83 
Q 506 822 506 1931 
Q 506 3044 893 3783 
Q 1281 4522 2041 4863 
L 2041 4556 
Q 1559 4225 1350 3623 
Q 1141 3022 1141 1931 
Q 1141 844 1350 242 
Q 1559 -359 2041 -691 
L 2041 -997 
z
" transform="scale(0.015625)"/>
       <path id="DejaVuSerif-61" d="M 2547 1044 
L 2547 1747 
L 1806 1747 
Q 1378 1747 1168 1562 
Q 959 1378 959 997 
Q 959 650 1171 447 
Q 1384 244 1747 244 
Q 2106 244 2326 466 
Q 2547 688 2547 1044 
z
M 3122 2075 
L 3122 331 
L 3634 331 
L 3634 0 
L 2547 0 
L 2547 359 
Q 2356 128 2106 18 
Q 1856 -91 1522 -91 
Q 969 -91 644 203 
Q 319 497 319 997 
Q 319 1513 691 1797 
Q 1063 2081 1741 2081 
L 2547 2081 
L 2547 2309 
Q 2547 2688 2317 2895 
Q 2088 3103 1672 3103 
Q 1328 3103 1125 2947 
Q 922 2791 872 2484 
L 575 2484 
L 575 3156 
Q 875 3284 1158 3348 
Q 1441 3413 1709 3413 
Q 2400 3413 2761 3070 
Q 3122 2728 3122 2075 
z
" transform="scale(0.015625)"/>
       <path id="DejaVuSerif-2e" d="M 603 325 
Q 603 500 722 622 
Q 841 744 1019 744 
Q 1191 744 1312 622 
Q 1434 500 1434 325 
Q 1434 153 1312 31 
Q 1191 -91 1019 -91 
Q 841 -91 722 29 
Q 603 150 603 325 
z
" transform="scale(0.015625)"/>
       <path id="DejaVuSerif-75" d="M 2266 3322 
L 3341 3322 
L 3341 331 
L 3884 331 
L 3884 0 
L 2766 0 
L 2766 588 
Q 2606 256 2353 82 
Q 2100 -91 1766 -91 
Q 1213 -91 952 223 
Q 691 538 691 1209 
L 691 2988 
L 172 2988 
L 172 3322 
L 1269 3322 
L 1269 1388 
Q 1269 781 1417 556 
Q 1566 331 1947 331 
Q 2347 331 2556 625 
Q 2766 919 2766 1478 
L 2766 2988 
L 2266 2988 
L 2266 3322 
z
" transform="scale(0.015625)"/>
       <path id="DejaVuSerif-29" d="M 453 -997 
L 453 -691 
Q 934 -359 1145 242 
Q 1356 844 1356 1931 
Q 1356 3022 1145 3623 
Q 934 4225 453 4556 
L 453 4863 
Q 1216 4522 1603 3783 
Q 1991 3044 1991 1931 
Q 1991 822 1603 83 
Q 1216 -656 453 -997 
z
" transform="scale(0.015625)"/>
      </defs>
      <use xlink:href="#Cmmi10-74" transform="translate(0 0.015625)"/>
      <use xlink:href="#DejaVuSerif-20" transform="translate(36.083984 0.015625)"/>
      <use xlink:href="#DejaVuSerif-28" transform="translate(67.871094 0.015625)"/>
      <use xlink:href="#DejaVuSerif-61" transform="translate(106.884766 0.015625)"/>
      <use xlink:href="#DejaVuSerif-2e" transform="translate(166.503906 0.015625)"/>
      <use xlink:href="#DejaVuSerif-75" transform="translate(198.291016 0.015625)"/>
      <use xlink:href="#DejaVuSerif-2e" transform="translate(262.695312 0.015625)"/>
      <use xlink:href="#DejaVuSerif-29" transform="translate(294.482422 0.015625)"/>
     </g>
    </g>
   </g>
   <g id="matplotlib.axis_2">
    <g id="ytick_1">
     <g id="line2d_19">
      <path d="M 164.46 417.232063 
L 684.118636 417.232063 
" clip-path="url(#p97bc4ed02d)" style="fill: none; stroke-dasharray: 3.7,1.6; stroke-dashoffset: 0; stroke: #b0b0b0; stroke-opacity: 0.5"/>
     </g>
     <g id="line2d_20">
      <defs>
       <path id="m51a4ccae5e" d="M 0 0 
L 10 0 
" style="stroke: #000000; stroke-width: 2"/>
      </defs>
      <g>
       <use xlink:href="#m51a4ccae5e" x="164.46" y="417.232063" style="stroke: #000000; stroke-width: 2"/>
      </g>
     </g>
     <g id="line2d_21">
      <defs>
       <path id="m4ea6a52011" d="M 0 0 
L -10 0 
" style="stroke: #000000; stroke-width: 2"/>
      </defs>
      <g>
       <use xlink:href="#m4ea6a52011" x="684.118636" y="417.232063" style="stroke: #000000; stroke-width: 2"/>
      </g>
     </g>
     <g id="text_8">
      <!-- 0 -->
      <g transform="translate(144.4175 427.110031) scale(0.26 -0.26)">
       <use xlink:href="#DejaVuSerif-30"/>
      </g>
     </g>
    </g>
    <g id="ytick_2">
     <g id="line2d_22">
      <path d="M 164.46 314.873897 
L 684.118636 314.873897 
" clip-path="url(#p97bc4ed02d)" style="fill: none; stroke-dasharray: 3.7,1.6; stroke-dashoffset: 0; stroke: #b0b0b0; stroke-opacity: 0.5"/>
     </g>
     <g id="line2d_23">
      <g>
       <use xlink:href="#m51a4ccae5e" x="164.46" y="314.873897" style="stroke: #000000; stroke-width: 2"/>
      </g>
     </g>
     <g id="line2d_24">
      <g>
       <use xlink:href="#m4ea6a52011" x="684.118636" y="314.873897" style="stroke: #000000; stroke-width: 2"/>
      </g>
     </g>
     <g id="text_9">
      <!-- 200000 -->
      <g transform="translate(61.705 324.751866) scale(0.26 -0.26)">
       <use xlink:href="#DejaVuSerif-32"/>
       <use xlink:href="#DejaVuSerif-30" x="63.623047"/>
       <use xlink:href="#DejaVuSerif-30" x="127.246094"/>
       <use xlink:href="#DejaVuSerif-30" x="190.869141"/>
       <use xlink:href="#DejaVuSerif-30" x="254.492188"/>
       <use xlink:href="#DejaVuSerif-30" x="318.115234"/>
      </g>
     </g>
    </g>
    <g id="ytick_3">
     <g id="line2d_25">
      <path d="M 164.46 212.515731 
L 684.118636 212.515731 
" clip-path="url(#p97bc4ed02d)" style="fill: none; stroke-dasharray: 3.7,1.6; stroke-dashoffset: 0; stroke: #b0b0b0; stroke-opacity: 0.5"/>
     </g>
     <g id="line2d_26">
      <g>
       <use xlink:href="#m51a4ccae5e" x="164.46" y="212.515731" style="stroke: #000000; stroke-width: 2"/>
      </g>
     </g>
     <g id="line2d_27">
      <g>
       <use xlink:href="#m4ea6a52011" x="684.118636" y="212.515731" style="stroke: #000000; stroke-width: 2"/>
      </g>
     </g>
     <g id="text_10">
      <!-- 400000 -->
      <g transform="translate(61.705 222.3937) scale(0.26 -0.26)">
       <defs>
        <path id="DejaVuSerif-34" d="M 2234 1581 
L 2234 4063 
L 641 1581 
L 2234 1581 
z
M 3609 0 
L 1484 0 
L 1484 331 
L 2234 331 
L 2234 1247 
L 197 1247 
L 197 1588 
L 2241 4750 
L 2859 4750 
L 2859 1581 
L 3750 1581 
L 3750 1247 
L 2859 1247 
L 2859 331 
L 3609 331 
L 3609 0 
z
" transform="scale(0.015625)"/>
       </defs>
       <use xlink:href="#DejaVuSerif-34"/>
       <use xlink:href="#DejaVuSerif-30" x="63.623047"/>
       <use xlink:href="#DejaVuSerif-30" x="127.246094"/>
       <use xlink:href="#DejaVuSerif-30" x="190.869141"/>
       <use xlink:href="#DejaVuSerif-30" x="254.492188"/>
       <use xlink:href="#DejaVuSerif-30" x="318.115234"/>
      </g>
     </g>
    </g>
    <g id="ytick_4">
     <g id="line2d_28">
      <path d="M 164.46 110.157566 
L 684.118636 110.157566 
" clip-path="url(#p97bc4ed02d)" style="fill: none; stroke-dasharray: 3.7,1.6; stroke-dashoffset: 0; stroke: #b0b0b0; stroke-opacity: 0.5"/>
     </g>
     <g id="line2d_29">
      <g>
       <use xlink:href="#m51a4ccae5e" x="164.46" y="110.157566" style="stroke: #000000; stroke-width: 2"/>
      </g>
     </g>
     <g id="line2d_30">
      <g>
       <use xlink:href="#m4ea6a52011" x="684.118636" y="110.157566" style="stroke: #000000; stroke-width: 2"/>
      </g>
     </g>
     <g id="text_11">
      <!-- 600000 -->
      <g transform="translate(61.705 120.035534) scale(0.26 -0.26)">
       <defs>
        <path id="DejaVuSerif-36" d="M 2094 219 
Q 2534 219 2771 542 
Q 3009 866 3009 1472 
Q 3009 2078 2771 2401 
Q 2534 2725 2094 2725 
Q 1647 2725 1412 2412 
Q 1178 2100 1178 1509 
Q 1178 888 1415 553 
Q 1653 219 2094 219 
z
M 1075 2569 
Q 1288 2803 1556 2918 
Q 1825 3034 2163 3034 
Q 2859 3034 3264 2615 
Q 3669 2197 3669 1472 
Q 3669 763 3233 336 
Q 2797 -91 2069 -91 
Q 1278 -91 853 498 
Q 428 1088 428 2181 
Q 428 3406 931 4078 
Q 1434 4750 2350 4750 
Q 2597 4750 2869 4703 
Q 3141 4656 3425 4563 
L 3425 3794 
L 3072 3794 
Q 3034 4109 2831 4275 
Q 2628 4441 2284 4441 
Q 1678 4441 1381 3981 
Q 1084 3522 1075 2569 
z
" transform="scale(0.015625)"/>
       </defs>
       <use xlink:href="#DejaVuSerif-36"/>
       <use xlink:href="#DejaVuSerif-30" x="63.623047"/>
       <use xlink:href="#DejaVuSerif-30" x="127.246094"/>
       <use xlink:href="#DejaVuSerif-30" x="190.869141"/>
       <use xlink:href="#DejaVuSerif-30" x="254.492188"/>
       <use xlink:href="#DejaVuSerif-30" x="318.115234"/>
      </g>
     </g>
    </g>
    <g id="text_12">
     <!-- $E_i(t)$ (a.u.) -->
     <g transform="translate(51.205 289.73625) rotate(-90) scale(0.26 -0.26)">
      <defs>
       <path id="Cmmi10-45" d="M 300 0 
Q 238 0 238 84 
Q 241 100 250 139 
Q 259 178 276 201 
Q 294 225 319 225 
Q 709 225 863 269 
Q 947 297 984 441 
L 1863 3956 
Q 1875 4019 1875 4044 
Q 1875 4113 1797 4122 
Q 1678 4147 1338 4147 
Q 1275 4147 1275 4231 
Q 1278 4247 1287 4286 
Q 1297 4325 1314 4348 
Q 1331 4372 1356 4372 
L 4825 4372 
Q 4891 4372 4891 4288 
L 4738 2963 
Q 4738 2947 4714 2926 
Q 4691 2906 4672 2906 
L 4616 2906 
Q 4550 2906 4550 2988 
Q 4588 3300 4588 3450 
Q 4588 3706 4500 3848 
Q 4413 3991 4267 4053 
Q 4122 4116 3945 4131 
Q 3769 4147 3481 4147 
L 2753 4147 
Q 2578 4147 2522 4117 
Q 2466 4088 2419 3928 
L 2034 2381 
L 2534 2381 
Q 2859 2381 3025 2426 
Q 3191 2472 3287 2615 
Q 3384 2759 3463 3072 
Q 3469 3094 3486 3111 
Q 3503 3128 3525 3128 
L 3584 3128 
Q 3647 3128 3647 3047 
L 3250 1466 
Q 3238 1409 3188 1409 
L 3128 1409 
Q 3066 1409 3066 1491 
Q 3128 1747 3128 1869 
Q 3128 2056 2959 2106 
Q 2791 2156 2509 2156 
L 1978 2156 
L 1544 416 
Q 1516 338 1516 275 
Q 1516 225 1734 225 
L 2509 225 
Q 2972 225 3259 297 
Q 3547 369 3736 526 
Q 3925 684 4062 928 
Q 4200 1172 4397 1638 
Q 4409 1678 4453 1678 
L 4513 1678 
Q 4538 1678 4556 1656 
Q 4575 1634 4575 1606 
Q 4575 1594 4569 1581 
L 3909 38 
Q 3897 0 3859 0 
L 300 0 
z
" transform="scale(0.015625)"/>
       <path id="Cmmi10-69" d="M 500 459 
Q 500 578 550 709 
L 1069 2088 
Q 1153 2322 1153 2472 
Q 1153 2663 1013 2663 
Q 759 2663 595 2402 
Q 431 2141 353 1819 
Q 341 1778 300 1778 
L 225 1778 
Q 172 1778 172 1838 
L 172 1856 
Q 275 2238 487 2533 
Q 700 2828 1025 2828 
Q 1253 2828 1411 2678 
Q 1569 2528 1569 2297 
Q 1569 2178 1516 2047 
L 997 672 
Q 909 459 909 288 
Q 909 97 1056 97 
Q 1306 97 1473 364 
Q 1641 631 1709 941 
Q 1722 978 1759 978 
L 1838 978 
Q 1863 978 1878 961 
Q 1894 944 1894 922 
Q 1894 916 1888 903 
Q 1800 541 1583 234 
Q 1366 -72 1044 -72 
Q 819 -72 659 83 
Q 500 238 500 459 
z
M 1222 3878 
Q 1222 4013 1334 4122 
Q 1447 4231 1581 4231 
Q 1691 4231 1761 4164 
Q 1831 4097 1831 3994 
Q 1831 3850 1717 3742 
Q 1603 3634 1466 3634 
Q 1363 3634 1292 3704 
Q 1222 3775 1222 3878 
z
" transform="scale(0.015625)"/>
       <path id="Cmr10-28" d="M 1984 -1588 
Q 1628 -1306 1370 -942 
Q 1113 -578 948 -165 
Q 784 247 703 697 
Q 622 1147 622 1600 
Q 622 2059 703 2509 
Q 784 2959 951 3375 
Q 1119 3791 1378 4153 
Q 1638 4516 1984 4788 
Q 1984 4800 2016 4800 
L 2075 4800 
Q 2094 4800 2109 4783 
Q 2125 4766 2125 4744 
Q 2125 4716 2113 4703 
Q 1800 4397 1592 4047 
Q 1384 3697 1257 3301 
Q 1131 2906 1075 2482 
Q 1019 2059 1019 1600 
Q 1019 -434 2106 -1491 
Q 2125 -1509 2125 -1544 
Q 2125 -1559 2108 -1579 
Q 2091 -1600 2075 -1600 
L 2016 -1600 
Q 1984 -1600 1984 -1588 
z
" transform="scale(0.015625)"/>
       <path id="Cmr10-29" d="M 416 -1600 
Q 359 -1600 359 -1544 
Q 359 -1516 372 -1503 
Q 1466 -434 1466 1600 
Q 1466 3634 384 4691 
Q 359 4706 359 4744 
Q 359 4766 376 4783 
Q 394 4800 416 4800 
L 475 4800 
Q 494 4800 506 4788 
Q 966 4425 1272 3906 
Q 1578 3388 1720 2800 
Q 1863 2213 1863 1600 
Q 1863 1147 1786 708 
Q 1709 269 1542 -157 
Q 1375 -584 1119 -945 
Q 863 -1306 506 -1588 
Q 494 -1600 475 -1600 
L 416 -1600 
z
" transform="scale(0.015625)"/>
      </defs>
      <use xlink:href="#Cmmi10-45" transform="translate(0 0.015625)"/>
      <use xlink:href="#Cmmi10-69" transform="translate(73.779297 -16.990625) scale(0.7)"/>
      <use xlink:href="#Cmr10-28" transform="translate(104.25332 0.015625)"/>
      <use xlink:href="#Cmmi10-74" transform="translate(143.07168 0.015625)"/>
      <use xlink:href="#Cmr10-29" transform="translate(179.155664 0.015625)"/>
      <use xlink:href="#DejaVuSerif-20" transform="translate(217.974023 0.015625)"/>
      <use xlink:href="#DejaVuSerif-28" transform="translate(249.761133 0.015625)"/>
      <use xlink:href="#DejaVuSerif-61" transform="translate(288.774805 0.015625)"/>
      <use xlink:href="#DejaVuSerif-2e" transform="translate(348.393945 0.015625)"/>
      <use xlink:href="#DejaVuSerif-75" transform="translate(380.181055 0.015625)"/>
      <use xlink:href="#DejaVuSerif-2e" transform="translate(444.585352 0.015625)"/>
      <use xlink:href="#DejaVuSerif-29" transform="translate(476.372461 0.015625)"/>
     </g>
    </g>
   </g>
   <g id="line2d_31">
    <path d="M 188.080847 417.15546 
L 319.071331 417.046385 
L 323.327339 416.866844 
L 324.746009 416.668726 
L 325.691788 416.352473 
L 326.164678 416.022497 
L 326.637568 415.343305 
L 327.110458 413.167718 
L 327.583348 407.357876 
L 328.056237 414.765855 
L 328.529127 415.936091 
L 329.002017 416.442428 
L 329.947797 416.882376 
L 330.893576 417.079909 
L 333.258026 417.230071 
L 335.622475 417.11648 
L 337.041144 416.838192 
L 337.514034 416.641337 
L 337.986924 416.314817 
L 338.459814 415.704343 
L 338.932704 414.078604 
L 339.405593 376.21156 
L 339.878483 414.253075 
L 340.351373 415.725472 
L 340.824263 416.276755 
L 341.770043 416.78134 
L 343.188712 417.079625 
L 345.553161 417.226183 
L 348.3905 417.155533 
L 349.80917 416.969791 
L 350.754949 416.720145 
L 351.227839 416.494013 
L 351.700729 416.088844 
L 352.173619 415.266649 
L 352.646509 412.401869 
L 353.119398 410.494153 
L 353.592288 415.228607 
L 354.065178 416.257766 
L 354.538068 416.72201 
L 355.483848 417.124787 
L 356.429627 417.229576 
L 357.375407 417.155153 
L 358.321187 416.838501 
L 358.794076 416.474607 
L 359.266966 415.735715 
L 359.739856 413.492043 
L 360.212746 407.231896 
L 360.685636 415.054719 
L 361.158526 416.241571 
L 361.631415 416.744842 
L 362.577195 417.153157 
L 363.522975 417.225526 
L 364.468754 417.044034 
L 364.941644 416.80701 
L 365.414534 416.362071 
L 365.887424 415.369876 
L 366.360314 411.071744 
L 366.833204 412.463459 
L 367.306093 415.584711 
L 367.778983 416.449854 
L 368.251873 416.853241 
L 369.197653 417.184582 
L 370.143432 417.213108 
L 371.089212 416.971535 
L 371.562102 416.672833 
L 372.034992 416.086741 
L 372.507882 414.535776 
L 372.980771 377.619758 
L 373.453661 414.33177 
L 373.926551 416.002524 
L 374.399441 416.6258 
L 374.872331 416.941277 
L 375.81811 417.202987 
L 376.76389 417.205602 
L 377.70967 416.948702 
L 378.18256 416.640935 
L 378.655449 416.039916 
L 379.128339 414.506767 
L 379.601229 336.426986 
L 380.074119 414.436464 
L 380.547009 416.05619 
L 381.019899 416.665604 
L 381.492788 416.972479 
L 382.438568 417.215799 
L 383.384348 417.177192 
L 384.330127 416.810717 
L 384.803017 416.355377 
L 385.275907 415.323653 
L 385.748797 410.535778 
L 386.221687 412.791088 
L 386.694577 415.658946 
L 387.167466 416.481173 
L 387.640356 416.863417 
L 388.586136 417.188276 
L 389.531916 417.210385 
L 390.477695 416.955357 
L 390.950585 416.640937 
L 391.423475 416.017921 
L 391.896365 414.372959 
L 392.369255 370.273409 
L 392.842144 414.622427 
L 393.315034 416.155829 
L 393.787924 416.73899 
L 394.260814 417.027687 
L 395.206594 417.228584 
L 396.152373 417.104851 
L 396.625263 416.888595 
L 397.098153 416.466524 
L 397.571043 415.519194 
L 398.043933 411.604385 
L 398.516822 412.26002 
L 398.989712 415.620973 
L 399.462602 416.507504 
L 399.935492 416.909431 
L 400.881271 417.211725 
L 401.827051 417.166501 
L 402.299941 417.011986 
L 402.772831 416.708434 
L 403.245721 416.089026 
L 403.71861 414.394016 
L 404.1915 385.913636 
L 404.66439 414.688662 
L 405.13728 416.178539 
L 405.61017 416.750728 
L 406.08306 417.03443 
L 407.028839 417.229256 
L 407.974619 417.097619 
L 408.447509 416.873247 
L 408.920399 416.433385 
L 409.393288 415.428475 
L 409.866178 410.887546 
L 410.339068 412.729504 
L 410.811958 415.706543 
L 411.284848 416.544166 
L 411.757738 416.928991 
L 412.703517 417.215761 
L 413.649297 417.157011 
L 414.122187 416.991259 
L 414.595077 416.666398 
L 415.067966 415.992262 
L 415.540856 414.029375 
L 416.013746 403.561407 
L 416.486636 414.952502 
L 416.959526 416.26582 
L 417.432416 416.793282 
L 417.905305 417.057254 
L 418.851085 417.230343 
L 419.796865 417.074899 
L 420.269755 416.827545 
L 420.742644 416.337284 
L 421.215534 415.160768 
L 421.688424 407.893724 
L 422.161314 413.611347 
L 422.634204 415.892698 
L 423.107094 416.624502 
L 423.579983 416.970861 
L 424.525763 417.222799 
L 425.471543 417.134984 
L 425.944433 416.945328 
L 426.417322 416.574237 
L 426.890212 415.774469 
L 427.835992 410.141923 
L 428.308882 415.352693 
L 428.781772 416.409282 
L 429.254661 416.864057 
L 430.200441 417.204314 
L 431.146221 417.1763 
L 431.619111 417.030075 
L 432.092 416.738601 
L 432.56489 416.145477 
L 433.03778 414.562492 
L 433.51067 46.356967 
L 433.98356 414.555161 
L 434.45645 416.144138 
L 434.929339 416.738492 
L 435.402229 417.03032 
L 436.348009 417.229307 
L 437.293789 417.09321 
L 437.766678 416.861135 
L 438.239568 416.40244 
L 438.712458 415.332327 
L 439.185348 409.928147 
L 440.131128 415.795358 
L 440.604017 416.585565 
L 441.076907 416.952607 
L 442.022687 417.220632 
L 442.968467 417.140747 
L 443.441356 416.955251 
L 443.914246 416.590795 
L 444.387136 415.807796 
L 444.860026 413.205661 
L 445.332916 409.74573 
L 445.805806 415.319126 
L 446.278695 416.400174 
L 446.751585 416.861595 
L 447.697365 417.20475 
L 448.643145 417.17414 
L 449.116034 417.023867 
L 449.588924 416.723728 
L 450.061814 416.107764 
L 450.534704 414.419901 
L 451.007594 384.880424 
L 451.480484 414.701623 
L 451.953373 416.193666 
L 452.426263 416.764419 
L 452.899153 417.045394 
L 453.844933 417.230194 
L 454.790712 417.07378 
L 455.263602 416.820007 
L 455.736492 416.311757 
L 456.209382 415.064728 
L 456.682272 405.977649 
L 457.155162 413.868875 
L 457.628051 415.964257 
L 458.100941 416.661522 
L 458.573831 416.993236 
L 459.519611 417.226531 
L 460.46539 417.1124 
L 460.93828 416.89575 
L 461.41117 416.466966 
L 461.88406 415.490526 
L 462.35695 411.246829 
L 462.829839 412.559851 
L 463.302729 415.693016 
L 463.775619 416.548711 
L 464.248509 416.937332 
L 465.194289 417.219406 
L 466.140068 417.14083 
L 466.612958 416.951915 
L 467.085848 416.577854 
L 467.558738 415.764096 
L 468.504517 410.513119 
L 468.977407 415.406545 
L 469.450297 416.437579 
L 469.923187 416.88283 
L 470.868967 417.210207 
L 471.814746 417.162391 
L 472.287636 416.996304 
L 472.760526 416.665171 
L 473.233416 415.967918 
L 473.706306 413.869688 
L 474.179195 406.034042 
L 474.652085 415.076333 
L 475.124975 416.320853 
L 475.597865 416.827419 
L 476.070755 417.079317 
L 477.016534 417.229749 
L 477.962314 417.030049 
L 478.435204 416.730369 
L 478.908094 416.111945 
L 479.380984 414.406651 
L 479.853873 388.370152 
L 480.326763 414.734545 
L 480.799653 416.210248 
L 481.272543 416.775921 
L 481.745433 417.053478 
L 482.691212 417.230397 
L 483.636992 417.056829 
L 484.109882 416.782525 
L 484.582772 416.224469 
L 485.055662 414.780029 
L 485.528551 393.481391 
L 486.001441 414.354307 
L 486.474331 416.099884 
L 486.947221 416.726522 
L 487.420111 417.029038 
L 488.36589 417.229793 
L 489.31167 417.076627 
L 489.78456 416.8205 
L 490.25745 416.30331 
L 490.73034 415.01757 
L 491.203229 404.600138 
L 491.676119 413.998369 
L 492.149009 416.00587 
L 492.621899 416.685209 
L 493.094789 417.008454 
L 494.040568 417.228562 
L 494.986348 417.091776 
L 495.459238 416.850055 
L 495.932128 416.364427 
L 496.405018 415.19316 
L 496.877907 407.971397 
L 497.350797 413.636613 
L 497.823687 415.920416 
L 498.296577 416.649355 
L 498.769467 416.991143 
L 499.715246 417.227213 
L 500.661026 417.101599 
L 501.133916 416.868547 
L 501.606806 416.400844 
L 502.079696 415.290627 
L 502.552585 409.216884 
L 503.025475 413.386544 
L 503.498365 415.865516 
L 503.971255 416.626525 
L 504.444145 416.980021 
L 505.389924 417.22616 
L 506.335704 417.107876 
L 506.808594 416.880675 
L 507.281484 416.42509 
L 507.754374 415.355262 
L 508.227263 409.912145 
L 509.173043 415.826441 
L 509.645933 416.611267 
L 510.118823 416.973083 
L 511.064602 417.225568 
L 512.010382 417.110222 
L 512.483272 416.88447 
L 512.956162 416.431219 
L 513.429052 415.368141 
L 513.901941 410.018269 
L 514.847721 415.820689 
L 515.320611 416.609446 
L 515.793501 416.972519 
L 516.73928 417.22559 
L 517.68506 417.109596 
L 518.15795 416.882751 
L 518.63084 416.426824 
L 519.103729 415.354333 
L 519.576619 409.865623 
L 520.522399 415.833774 
L 520.995289 416.616112 
L 521.468179 416.976553 
L 522.413958 417.226197 
L 523.359738 417.105019 
L 523.832628 416.872563 
L 524.305518 416.403913 
L 524.778407 415.287328 
L 525.251297 409.089858 
L 525.724187 413.428188 
L 526.197077 415.880455 
L 526.669967 416.636301 
L 527.142857 416.986951 
L 528.088636 417.2273 
L 529.034416 417.097179 
L 529.507306 416.85632 
L 529.980196 416.369116 
L 530.453085 415.187291 
L 530.925975 407.705165 
L 531.398865 413.693552 
L 531.871755 415.942125 
L 532.344645 416.66367 
L 532.817535 417.001256 
L 533.763314 417.228605 
L 534.709094 417.084904 
L 535.181984 416.830723 
L 535.654874 416.313276 
L 536.127763 415.019647 
L 536.600653 404.234353 
L 537.073543 414.041763 
L 537.546433 416.028005 
L 538.019323 416.701465 
L 538.492213 417.020458 
L 539.437992 417.22978 
L 540.383772 417.068546 
L 540.856662 416.79748 
L 541.329552 416.241065 
L 541.802441 414.794019 
L 542.275331 392.835808 
L 542.748221 414.383327 
L 543.221111 416.120251 
L 543.694001 416.74293 
L 544.166891 417.041523 
L 545.11267 417.230347 
L 546.05845 417.048139 
L 546.53134 416.756143 
L 547.00423 416.149587 
L 547.477119 414.486679 
L 547.950009 379.453545 
L 548.422899 414.712356 
L 548.895789 416.218188 
L 549.368679 416.788361 
L 549.841569 417.064801 
L 550.787348 417.22987 
L 551.733128 417.020659 
L 552.206018 416.700005 
L 552.678908 416.021028 
L 553.151797 414.003594 
L 553.624687 404.849846 
L 554.097577 415.049858 
L 554.570467 416.327049 
L 555.043357 416.839376 
L 555.516247 417.090433 
L 556.462026 417.227683 
L 557.407806 416.986224 
L 557.880696 416.630222 
L 558.353586 415.856723 
L 558.826475 413.285799 
L 559.299365 409.679068 
L 559.772255 415.34969 
L 560.245145 416.432632 
L 560.718035 416.890008 
L 561.190925 417.115632 
L 562.136704 417.223234 
L 562.609594 417.141834 
L 563.082484 416.944135 
L 563.555374 416.544148 
L 564.028264 415.643572 
L 564.501153 412.105517 
L 564.974043 411.92639 
L 565.446933 415.617315 
L 565.919823 416.534539 
L 566.392713 416.939858 
L 567.338492 417.222809 
L 568.284272 417.116894 
L 568.757162 416.892066 
L 569.230052 416.435944 
L 569.702942 415.356609 
L 570.175831 409.738533 
L 570.648721 413.273046 
L 571.121611 415.857128 
L 571.594501 416.632182 
L 572.067391 416.988244 
L 573.01317 417.228042 
L 573.95895 417.0856 
L 574.43184 416.828044 
L 574.90473 416.299886 
L 575.377619 414.960723 
L 575.850509 402.063928 
L 576.323399 414.169982 
L 576.796289 416.068502 
L 577.269179 416.723536 
L 577.742069 417.033943 
L 578.687848 417.230302 
L 579.633628 417.0464 
L 580.106518 416.748569 
L 580.579408 416.124862 
L 581.052297 414.378106 
L 581.525187 393.932513 
L 581.998077 414.81821 
L 582.470967 416.255807 
L 582.943857 416.80852 
L 583.416747 417.076447 
L 584.362526 417.228835 
L 585.308306 416.997523 
L 585.781196 416.649573 
L 586.254086 415.895825 
L 586.726975 413.445493 
L 587.199865 409.109217 
L 587.672755 415.305861 
L 588.145645 416.420313 
L 588.618535 416.886194 
L 589.091425 417.114911 
L 590.037204 417.222813 
L 590.510094 417.13923 
L 590.982984 416.936579 
L 591.455874 416.524791 
L 591.928764 415.585879 
L 592.401653 411.681405 
L 592.874543 412.330681 
L 593.347433 415.686423 
L 593.820323 416.564983 
L 594.293213 416.956598 
L 595.238992 417.225308 
L 596.184772 417.102223 
L 596.657662 416.859724 
L 597.130552 416.36357 
L 597.603442 415.141861 
L 598.076331 406.628122 
L 598.549221 413.856676 
L 599.022111 415.994109 
L 599.495001 416.693807 
L 599.967891 417.020765 
L 600.91367 417.230093 
L 601.85945 417.052081 
L 602.33234 416.757036 
L 602.80523 416.138026 
L 603.27812 414.409526 
L 603.751009 392.134684 
L 604.223899 414.806216 
L 604.696789 416.256083 
L 605.169679 416.811021 
L 605.642569 417.079022 
L 606.588348 417.228297 
L 607.534128 416.986279 
L 608.007018 416.623313 
L 608.479908 415.825834 
L 609.425687 410.336058 
L 609.898577 415.426902 
L 610.371467 416.467971 
L 610.844357 416.911107 
L 611.317247 417.128099 
L 612.263026 417.218521 
L 612.735916 417.123264 
L 613.208806 416.90106 
L 613.681696 416.447006 
L 614.154586 415.369794 
L 614.627476 409.76297 
L 615.100365 413.28375 
L 615.573255 415.869045 
L 616.046145 416.64279 
L 616.519035 416.996764 
L 617.464815 417.229136 
L 618.410594 417.067877 
L 618.883484 416.786955 
L 619.356374 416.200547 
L 619.829264 414.616232 
L 620.302154 164.909782 
L 620.775043 414.632576 
L 621.247933 416.206252 
L 621.720823 416.790047 
L 622.193713 417.069686 
L 623.139493 417.228942 
L 624.085272 416.99285 
L 624.558162 416.634105 
L 625.031052 415.846673 
L 625.976832 410.125295 
L 626.449721 415.410623 
L 626.922611 416.465115 
L 627.395501 416.911586 
L 627.868391 417.129316 
L 628.814171 417.21742 
L 629.28706 417.118653 
L 629.75995 416.889367 
L 630.23284 416.418458 
L 630.70573 415.281351 
L 631.17862 408.648122 
L 631.65151 413.567774 
L 632.124399 415.935357 
L 632.597289 416.673582 
L 633.070179 417.013606 
L 634.015959 417.230045 
L 634.961738 417.04714 
L 635.434628 416.741829 
L 635.907518 416.093612 
L 636.380408 414.218287 
L 636.853298 401.395073 
L 637.326187 414.966116 
L 637.799077 416.314916 
L 638.271967 416.842838 
L 638.744857 417.097206 
L 639.690637 417.224904 
L 640.163526 417.144615 
L 640.636416 416.94197 
L 641.109306 416.52472 
L 641.582196 415.561636 
L 642.055086 411.386604 
L 642.527976 412.57883 
L 643.000865 415.743484 
L 643.473755 416.596454 
L 643.946645 416.97701 
L 644.892425 417.22823 
L 645.838204 417.072837 
L 646.311094 416.792379 
L 646.783984 416.203519 
L 647.256874 414.602669 
L 647.729764 327.631665 
L 648.202654 414.668875 
L 648.675543 416.223911 
L 649.148433 416.802058 
L 649.621323 417.077827 
L 650.567103 417.227618 
L 651.039993 417.157231 
L 651.512882 416.968471 
L 651.985772 416.578144 
L 652.458662 415.696012 
L 652.931552 412.290174 
L 653.404442 411.783401 
L 653.877332 415.619545 
L 654.350221 416.548818 
L 654.823111 416.954648 
L 655.296001 417.151055 
L 656.241781 417.206931 
L 656.714671 417.086103 
L 657.18756 416.818519 
L 657.66045 416.259134 
L 658.13334 414.782494 
L 658.60623 386.848348 
L 659.07912 414.481663 
L 659.55201 416.171072 
L 660.024899 416.77925 
L 660.497789 417.067224 
L 660.497789 417.067224 
" clip-path="url(#p97bc4ed02d)" style="fill: none; stroke: #1f77b4; stroke-width: 3; stroke-linecap: square"/>
   </g>
   <g id="line2d_32">
    <path d="M 188.080847 417.235645 
L 660.497789 417.232067 
L 660.497789 417.232067 
" clip-path="url(#p97bc4ed02d)" style="fill: none; stroke-dasharray: 11.1,4.8; stroke-dashoffset: 0; stroke: #ff7f0e; stroke-width: 3"/>
   </g>
   <g id="line2d_33">
    <path d="M 188.080847 417.231615 
L 660.497789 417.232062 
L 660.497789 417.232062 
" clip-path="url(#p97bc4ed02d)" style="fill: none; stroke-dasharray: 19.2,4.8,3,4.8; stroke-dashoffset: 0; stroke: #2ca02c; stroke-width: 3"/>
   </g>
   <g id="line2d_34">
    <path d="M 188.080847 417.231689 
L 660.497789 417.232063 
L 660.497789 417.232063 
" clip-path="url(#p97bc4ed02d)" style="fill: none; stroke-dasharray: 3,4.95; stroke-dashoffset: 0; stroke: #d62728; stroke-width: 3"/>
   </g>
   <g id="line2d_35">
    <path d="M 188.080847 417.232063 
L 660.497789 417.232063 
L 660.497789 417.232063 
" clip-path="url(#p97bc4ed02d)" style="fill: none; stroke-dasharray: 9,3,3,3; stroke-dashoffset: 0; stroke: #9467bd; stroke-width: 3"/>
   </g>
   <g id="line2d_36">
    <path d="M 188.080847 417.158221 
L 319.071331 417.0491 
L 323.327339 416.869594 
L 324.746009 416.67156 
L 325.691788 416.355361 
L 326.164678 416.025505 
L 326.637568 415.346661 
L 327.110458 413.172402 
L 327.583348 407.366379 
L 328.056237 414.769192 
L 328.529127 415.938584 
L 329.002017 416.444833 
L 329.947797 416.884416 
L 330.893576 417.082524 
L 333.258026 417.231809 
L 335.622475 417.118458 
L 337.041144 416.840258 
L 337.514034 416.643569 
L 337.986924 416.317192 
L 338.459814 415.707051 
L 338.932704 414.082352 
L 339.405593 376.241157 
L 339.878483 414.25766 
L 340.351373 415.729305 
L 340.824263 416.279595 
L 341.770043 416.783836 
L 343.188712 417.081468 
L 345.080271 417.216168 
L 347.91761 417.188815 
L 349.80917 416.972703 
L 350.754949 416.72267 
L 351.227839 416.496385 
L 351.700729 416.091453 
L 352.173619 415.270522 
L 352.646509 412.407029 
L 353.119398 410.500471 
L 353.592288 415.231563 
L 354.065178 416.260148 
L 354.538068 416.723943 
L 355.483848 417.126484 
L 356.429627 417.231364 
L 357.375407 417.157036 
L 358.321187 416.840404 
L 358.794076 416.476723 
L 359.266966 415.738328 
L 359.739856 413.496206 
L 360.212746 407.240432 
L 360.685636 415.058102 
L 361.158526 416.243949 
L 361.631415 416.746811 
L 362.577195 417.154801 
L 363.522975 417.227103 
L 364.468754 417.045725 
L 364.941644 416.80886 
L 365.414534 416.364223 
L 365.887424 415.372701 
L 366.360314 411.077495 
L 366.833204 412.468265 
L 367.306093 415.587393 
L 367.778983 416.451948 
L 368.251873 416.855062 
L 369.197653 417.186184 
L 370.143432 417.214702 
L 371.089212 416.97332 
L 371.562102 416.674852 
L 372.034992 416.08923 
L 372.507882 414.539131 
L 372.980771 377.648277 
L 373.453661 414.335306 
L 373.926551 416.004929 
L 374.399441 416.627791 
L 374.872331 416.94307 
L 375.81811 417.204796 
L 376.76389 417.207183 
L 377.70967 416.950481 
L 378.18256 416.64295 
L 378.655449 416.042417 
L 379.128339 414.510133 
L 379.601229 336.483548 
L 380.074119 414.439924 
L 380.547009 416.058549 
L 381.019899 416.66755 
L 381.492788 416.974217 
L 382.438568 417.217375 
L 383.384348 417.178799 
L 384.330127 416.812581 
L 384.803017 416.357557 
L 385.275907 415.326543 
L 385.748797 410.54194 
L 386.221687 412.795738 
L 386.694577 415.661692 
L 387.167466 416.483672 
L 387.640356 416.865223 
L 388.586136 417.189872 
L 389.531916 417.211976 
L 390.477695 416.957143 
L 390.950585 416.642963 
L 391.423475 416.020437 
L 391.896365 414.377616 
L 392.369255 370.307148 
L 392.842144 414.625894 
L 393.315034 416.158224 
L 393.787924 416.740973 
L 394.260814 417.029464 
L 395.206594 417.230212 
L 396.152373 417.106557 
L 396.625263 416.890445 
L 397.098153 416.468659 
L 397.571043 415.521973 
L 398.043933 411.609827 
L 398.516822 412.265015 
L 398.989712 415.623679 
L 399.462602 416.509605 
L 399.935492 416.911258 
L 400.881271 417.213344 
L 401.827051 417.168149 
L 402.299941 417.013739 
L 402.772831 416.710393 
L 403.245721 416.091406 
L 403.71861 414.397549 
L 404.1915 385.936561 
L 404.66439 414.691996 
L 405.13728 416.180859 
L 405.61017 416.752658 
L 406.08306 417.036167 
L 407.028839 417.230859 
L 407.974619 417.099311 
L 408.447509 416.875092 
L 408.920399 416.435529 
L 409.393288 415.431303 
L 409.866178 410.893465 
L 410.339068 412.73417 
L 410.811958 415.709182 
L 411.284848 416.546234 
L 411.757738 416.930797 
L 412.703517 417.217372 
L 413.649297 417.158662 
L 414.122187 416.993022 
L 414.595077 416.668382 
L 415.067966 415.994705 
L 415.540856 414.033154 
L 416.013746 403.572315 
L 416.486636 414.955655 
L 416.959526 416.268079 
L 417.432416 416.795182 
L 417.905305 417.058974 
L 418.851085 417.231945 
L 419.796865 417.076606 
L 420.269755 416.82942 
L 420.742644 416.339493 
L 421.215534 415.163778 
L 421.688424 407.901681 
L 422.161314 413.615413 
L 422.634204 415.895211 
L 423.107094 416.626516 
L 423.579983 416.972639 
L 424.525763 417.224406 
L 425.471543 417.136651 
L 425.944433 416.947123 
L 426.417322 416.576285 
L 426.890212 415.777062 
L 427.835992 410.148353 
L 428.308882 415.355575 
L 428.781772 416.411445 
L 429.254661 416.865911 
L 430.200441 417.205936 
L 431.146221 417.177941 
L 431.619111 417.031815 
L 432.092 416.740539 
L 432.56489 416.147819 
L 433.03778 414.565912 
L 433.51067 46.611051 
L 433.98356 414.558587 
L 434.45645 416.146483 
L 434.929339 416.740431 
L 435.402229 417.032061 
L 436.348009 417.230912 
L 437.293789 417.094907 
L 437.766678 416.86299 
L 438.239568 416.404608 
L 438.712458 415.335223 
L 439.185348 409.934723 
L 440.131128 415.79794 
L 440.604017 416.58761 
L 441.076907 416.954401 
L 442.022687 417.222243 
L 442.968467 417.142413 
L 443.441356 416.957043 
L 443.914246 416.592835 
L 444.387136 415.810369 
L 444.860026 413.210005 
L 445.332916 409.752434 
L 445.805806 415.322036 
L 446.278695 416.402347 
L 446.751585 416.863454 
L 447.697365 417.206375 
L 448.643145 417.175786 
L 449.116034 417.025616 
L 449.588924 416.725681 
L 450.061814 416.110137 
L 450.534704 414.423422 
L 451.007594 384.904058 
L 451.480484 414.704956 
L 451.953373 416.195983 
L 452.426263 416.766348 
L 452.899153 417.047131 
L 453.844933 417.231806 
L 454.790712 417.075497 
L 455.263602 416.821897 
L 455.736492 416.313993 
L 456.209382 415.067813 
L 456.682272 405.98692 
L 457.155162 413.872776 
L 457.628051 415.966731 
L 458.100941 416.663522 
L 458.573831 416.995009 
L 459.519611 417.228146 
L 460.46539 417.114092 
L 460.93828 416.89759 
L 461.41117 416.469097 
L 461.88406 415.493322 
L 462.35695 411.252514 
L 462.829839 412.564646 
L 463.302729 415.695679 
L 463.775619 416.55079 
L 464.248509 416.939147 
L 465.194289 417.221029 
L 466.140068 417.142506 
L 466.612958 416.95372 
L 467.085848 416.579914 
L 467.558738 415.76671 
L 468.504517 410.519308 
L 468.977407 415.409404 
L 469.450297 416.439735 
L 469.923187 416.884684 
L 470.868967 417.211838 
L 471.814746 417.164054 
L 472.287636 416.99808 
L 472.760526 416.667172 
L 473.233416 415.970394 
L 473.706306 413.873592 
L 474.179195 406.043283 
L 474.652085 415.079419 
L 475.124975 416.323092 
L 475.597865 416.829312 
L 476.070755 417.081039 
L 477.016534 417.231369 
L 477.962314 417.031805 
L 478.435204 416.732329 
L 478.908094 416.114325 
L 479.380984 414.410192 
L 479.853873 388.39142 
L 480.326763 414.737865 
L 480.799653 416.212563 
L 481.272543 416.777851 
L 481.745433 417.055219 
L 482.691212 417.232017 
L 483.636992 417.058568 
L 484.109882 416.784451 
L 484.582772 416.226774 
L 485.055662 414.783317 
L 485.528551 393.499179 
L 486.001441 414.357888 
L 486.474331 416.102276 
L 486.947221 416.728488 
L 487.420111 417.030798 
L 488.36589 417.231416 
L 489.31167 417.078354 
L 489.78456 416.822402 
L 490.25745 416.305564 
L 490.73034 415.020699 
L 491.203229 404.61036 
L 491.676119 414.002194 
L 492.149009 416.008327 
L 492.621899 416.687205 
L 493.094789 417.01023 
L 494.040568 417.230188 
L 494.986348 417.093494 
L 495.459238 416.851938 
L 495.932128 416.36664 
L 496.405018 415.196171 
L 496.877907 407.979324 
L 497.350797 413.640686 
L 497.823687 415.922935 
L 498.296577 416.651378 
L 498.769467 416.992932 
L 499.715246 417.228842 
L 500.661026 417.103313 
L 501.133916 416.87042 
L 501.606806 416.403036 
L 502.079696 415.293575 
L 502.552585 409.223966 
L 503.025475 413.390789 
L 503.498365 415.868073 
L 503.971255 416.628564 
L 504.444145 416.98182 
L 505.389924 417.227791 
L 506.335704 417.109587 
L 506.808594 416.882541 
L 507.281484 416.427266 
L 507.754374 415.358167 
L 508.227263 409.918755 
L 509.173043 415.829028 
L 509.645933 416.613319 
L 510.118823 416.974889 
L 511.064602 417.227202 
L 512.010382 417.111935 
L 512.483272 416.886336 
L 512.956162 416.433394 
L 513.429052 415.371039 
L 513.901941 410.02481 
L 514.847721 415.82328 
L 515.320611 416.6115 
L 515.793501 416.974326 
L 516.73928 417.227225 
L 517.68506 417.11131 
L 518.15795 416.88462 
L 518.63084 416.429003 
L 519.103729 415.357242 
L 519.576619 409.872268 
L 520.522399 415.836359 
L 520.995289 416.618165 
L 521.468179 416.978361 
L 522.413958 417.227834 
L 523.359738 417.106738 
L 523.832628 416.874441 
L 524.305518 416.40611 
L 524.778407 415.290286 
L 525.251297 409.097034 
L 525.724187 413.432412 
L 526.197077 415.883009 
L 526.669967 416.638342 
L 527.142857 416.988753 
L 528.088636 417.228937 
L 529.034416 417.098906 
L 529.507306 416.85821 
L 529.980196 416.371338 
L 530.453085 415.190317 
L 530.925975 407.713285 
L 531.398865 413.697598 
L 531.871755 415.944641 
L 532.344645 416.665694 
L 532.817535 417.00305 
L 533.763314 417.230244 
L 534.709094 417.086642 
L 535.181984 416.832634 
L 535.654874 416.315539 
L 536.127763 415.02279 
L 536.600653 404.244838 
L 537.073543 414.045573 
L 537.546433 416.030463 
L 538.019323 416.703464 
L 538.492213 417.02224 
L 539.437992 417.23142 
L 540.383772 417.070295 
L 540.856662 416.799414 
L 541.329552 416.243378 
L 541.802441 414.797317 
L 542.275331 392.854055 
L 542.748221 414.386906 
L 543.221111 416.122648 
L 543.694001 416.744902 
L 544.166891 417.043293 
L 545.11267 417.231988 
L 546.05845 417.049903 
L 546.53134 416.758107 
L 547.00423 416.151963 
L 547.477119 414.490188 
L 547.950009 379.480906 
L 548.422899 414.715714 
L 548.895789 416.22052 
L 549.368679 416.790305 
L 549.841569 417.066556 
L 550.787348 417.231513 
L 551.733128 417.022445 
L 552.206018 416.702009 
L 552.678908 416.023495 
L 553.151797 414.007434 
L 553.624687 404.859919 
L 554.097577 415.052987 
L 554.570467 416.329308 
L 555.043357 416.841286 
L 555.516247 417.092173 
L 556.462026 417.229329 
L 557.407806 416.988034 
L 557.880696 416.632275 
L 558.353586 415.859302 
L 558.826475 413.290128 
L 559.299365 409.685855 
L 559.772255 415.352616 
L 560.245145 416.434821 
L 560.718035 416.891886 
L 561.190925 417.117356 
L 562.136704 417.224884 
L 562.609594 417.14354 
L 563.082484 416.945976 
L 563.555374 416.546261 
L 564.028264 415.646297 
L 564.501153 412.110651 
L 564.974043 411.931648 
L 565.446933 415.62006 
L 565.919823 416.53666 
L 566.392713 416.941702 
L 567.338492 417.224461 
L 568.284272 417.118618 
L 568.757162 416.893944 
L 569.230052 416.438132 
L 569.702942 415.359532 
L 570.175831 409.74528 
L 570.648721 413.277388 
L 571.121611 415.859712 
L 571.594501 416.634238 
L 572.067391 416.990057 
L 573.01317 417.229692 
L 573.95895 417.087347 
L 574.43184 416.829966 
L 574.90473 416.302168 
L 575.377619 414.963916 
L 575.850509 402.075901 
L 576.323399 414.173715 
L 576.796289 416.070943 
L 577.269179 416.725531 
L 577.742069 417.035727 
L 578.687848 417.231952 
L 579.633628 417.048175 
L 580.106518 416.750547 
L 580.579408 416.127264 
L 581.052297 414.381697 
L 581.525187 393.950025 
L 581.998077 414.821503 
L 582.470967 416.258122 
L 582.943857 416.810458 
L 583.416747 417.078203 
L 584.362526 417.230487 
L 585.308306 416.999333 
L 585.781196 416.651619 
L 586.254086 415.898385 
L 586.726975 413.44972 
L 587.199865 409.116398 
L 587.672755 415.308823 
L 588.145645 416.422516 
L 588.618535 416.88808 
L 589.091425 417.116642 
L 590.037204 417.22447 
L 590.510094 417.140944 
L 590.982984 416.938431 
L 591.455874 416.526923 
L 591.928764 415.588651 
L 592.401653 411.686835 
L 592.874543 412.33567 
L 593.347433 415.689128 
L 593.820323 416.567089 
L 594.293213 416.958438 
L 595.238992 417.226965 
L 596.184772 417.103964 
L 596.657662 416.86163 
L 597.130552 416.365814 
L 597.603442 415.144936 
L 598.076331 406.636993 
L 598.549221 413.860629 
L 599.022111 415.996606 
L 599.495001 416.695828 
L 599.967891 417.022564 
L 600.91367 417.231749 
L 601.85945 417.053859 
L 602.33234 416.759014 
L 602.80523 416.140426 
L 603.27812 414.413103 
L 603.751009 392.153426 
L 604.223899 414.809523 
L 604.696789 416.258404 
L 605.169679 416.812964 
L 605.642569 417.080782 
L 606.588348 417.229956 
L 607.534128 416.988103 
L 608.007018 416.625384 
L 608.479908 415.828447 
L 609.425687 410.34241 
L 609.898577 415.429788 
L 610.371467 416.470148 
L 610.844357 416.912983 
L 611.317247 417.129827 
L 612.263026 417.220187 
L 612.735916 417.124996 
L 613.208806 416.902943 
L 613.681696 416.449198 
L 614.154586 415.372719 
L 614.627476 409.769712 
L 615.100365 413.288097 
L 615.573255 415.871632 
L 616.046145 416.644851 
L 616.519035 416.998584 
L 617.464815 417.230797 
L 618.410594 417.069648 
L 618.883484 416.788917 
L 619.356374 416.202909 
L 619.829264 414.619673 
L 620.302154 165.083217 
L 620.775043 414.636007 
L 621.247933 416.208612 
L 621.720823 416.792009 
L 622.193713 417.071457 
L 623.139493 417.230605 
L 624.085272 416.994674 
L 624.558162 416.636173 
L 625.031052 415.849278 
L 625.976832 410.131797 
L 626.449721 415.413526 
L 626.922611 416.4673 
L 627.395501 416.913468 
L 627.868391 417.131049 
L 628.814171 417.219094 
L 629.28706 417.120394 
L 629.75995 416.891263 
L 630.23284 416.420675 
L 630.70573 415.284342 
L 631.17862 408.655629 
L 631.65151 413.571935 
L 632.124399 415.937906 
L 632.597289 416.675629 
L 633.070179 417.015422 
L 634.015959 417.231713 
L 634.961738 417.048933 
L 635.434628 416.743829 
L 635.907518 416.096054 
L 636.380408 414.222005 
L 636.853298 401.407524 
L 637.326187 414.969328 
L 637.799077 416.31721 
L 638.271967 416.844773 
L 638.744857 417.098968 
L 639.690637 417.226578 
L 640.163526 417.146345 
L 640.636416 416.943837 
L 641.109306 416.526871 
L 641.582196 415.564443 
L 642.055086 411.392252 
L 642.527976 412.583669 
L 643.000865 415.746169 
L 643.473755 416.598558 
L 643.946645 416.978854 
L 644.892425 417.229903 
L 645.838204 417.074617 
L 646.311094 416.794349 
L 646.783984 416.20589 
L 647.256874 414.60613 
L 647.729764 327.694334 
L 648.202654 414.672292 
L 648.675543 416.226269 
L 649.148433 416.804023 
L 649.621323 417.079604 
L 650.567103 417.229293 
L 651.039993 417.158954 
L 651.512882 416.970322 
L 651.985772 416.580261 
L 652.458662 415.69873 
L 652.931552 412.29521 
L 653.404442 411.788783 
L 653.877332 415.622316 
L 654.350221 416.550957 
L 654.823111 416.95651 
L 655.296001 417.152783 
L 656.241781 417.208621 
L 656.714671 417.087875 
L 657.18756 416.820474 
L 657.66045 416.26147 
L 658.13334 414.785835 
L 658.60623 386.870705 
L 659.07912 414.48521 
L 659.55201 416.173469 
L 660.024899 416.781233 
L 660.497789 417.06901 
L 660.497789 417.06901 
" clip-path="url(#p97bc4ed02d)" style="fill: none; stroke: #808080; stroke-width: 3; stroke-linecap: square"/>
   </g>
   <g id="patch_3">
    <path d="M 164.46 417.2325 
L 164.46 28.08 
" style="fill: none; stroke: #000000; stroke-width: 2; stroke-linejoin: miter; stroke-linecap: square"/>
   </g>
   <g id="patch_4">
    <path d="M 684.118636 417.2325 
L 684.118636 28.08 
" style="fill: none; stroke: #000000; stroke-width: 2; stroke-linejoin: miter; stroke-linecap: square"/>
   </g>
   <g id="patch_5">
    <path d="M 164.46 417.2325 
L 684.118636 417.2325 
" style="fill: none; stroke: #000000; stroke-width: 2; stroke-linejoin: miter; stroke-linecap: square"/>
   </g>
   <g id="patch_6">
    <path d="M 164.46 28.08 
L 684.118636 28.08 
" style="fill: none; stroke: #000000; stroke-width: 2; stroke-linejoin: miter; stroke-linecap: square"/>
   </g>
   <g id="legend_1">
    <g id="patch_7">
     <path d="M 175.66 182.0175 
L 320.9875 182.0175 
Q 324.1875 182.0175 324.1875 178.8175 
L 324.1875 39.28 
Q 324.1875 36.08 320.9875 36.08 
L 175.66 36.08 
Q 172.46 36.08 172.46 39.28 
L 172.46 178.8175 
Q 172.46 182.0175 175.66 182.0175 
z
" style="fill: #ffffff; opacity: 0.8; stroke: #cccccc; stroke-linejoin: miter"/>
    </g>
    <g id="line2d_37">
     <path d="M 178.86 49.0375 
L 194.86 49.0375 
L 210.86 49.0375 
" style="fill: none; stroke: #1f77b4; stroke-width: 3; stroke-linecap: square"/>
    </g>
    <g id="text_13">
     <!-- Kinetic -->
     <g transform="translate(223.66 54.6375) scale(0.16 -0.16)">
      <defs>
       <path id="DejaVuSerif-4b" d="M 353 0 
L 353 331 
L 947 331 
L 947 4331 
L 353 4331 
L 353 4666 
L 2175 4666 
L 2175 4331 
L 1581 4331 
L 1581 2566 
L 3591 4331 
L 3084 4331 
L 3084 4666 
L 4634 4666 
L 4634 4331 
L 4109 4331 
L 2106 2572 
L 4347 331 
L 4878 331 
L 4878 0 
L 3794 0 
L 1581 2216 
L 1581 331 
L 2175 331 
L 2175 0 
L 353 0 
z
" transform="scale(0.015625)"/>
       <path id="DejaVuSerif-69" d="M 622 4353 
Q 622 4497 726 4603 
Q 831 4709 978 4709 
Q 1122 4709 1226 4603 
Q 1331 4497 1331 4353 
Q 1331 4206 1228 4103 
Q 1125 4000 978 4000 
Q 831 4000 726 4103 
Q 622 4206 622 4353 
z
M 1356 331 
L 1900 331 
L 1900 0 
L 231 0 
L 231 331 
L 781 331 
L 781 2988 
L 231 2988 
L 231 3322 
L 1356 3322 
L 1356 331 
z
" transform="scale(0.015625)"/>
       <path id="DejaVuSerif-6e" d="M 263 0 
L 263 331 
L 781 331 
L 781 2988 
L 231 2988 
L 231 3322 
L 1356 3322 
L 1356 2731 
Q 1516 3069 1770 3241 
Q 2025 3413 2363 3413 
Q 2913 3413 3172 3097 
Q 3431 2781 3431 2113 
L 3431 331 
L 3944 331 
L 3944 0 
L 2356 0 
L 2356 331 
L 2853 331 
L 2853 1931 
Q 2853 2541 2703 2767 
Q 2553 2994 2175 2994 
Q 1775 2994 1565 2701 
Q 1356 2409 1356 1850 
L 1356 331 
L 1856 331 
L 1856 0 
L 263 0 
z
" transform="scale(0.015625)"/>
       <path id="DejaVuSerif-65" d="M 3469 1600 
L 991 1600 
L 991 1575 
Q 991 903 1244 561 
Q 1497 219 1991 219 
Q 2369 219 2611 417 
Q 2853 616 2950 1006 
L 3413 1006 
Q 3275 459 2904 184 
Q 2534 -91 1931 -91 
Q 1203 -91 761 389 
Q 319 869 319 1663 
Q 319 2450 753 2931 
Q 1188 3413 1894 3413 
Q 2647 3413 3050 2948 
Q 3453 2484 3469 1600 
z
M 2791 1931 
Q 2772 2513 2545 2808 
Q 2319 3103 1894 3103 
Q 1497 3103 1269 2806 
Q 1041 2509 991 1931 
L 2791 1931 
z
" transform="scale(0.015625)"/>
       <path id="DejaVuSerif-74" d="M 691 2988 
L 184 2988 
L 184 3322 
L 691 3322 
L 691 4353 
L 1269 4353 
L 1269 3322 
L 2350 3322 
L 2350 2988 
L 1269 2988 
L 1269 878 
Q 1269 456 1350 337 
Q 1431 219 1650 219 
Q 1875 219 1978 351 
Q 2081 484 2088 781 
L 2522 781 
Q 2497 328 2275 118 
Q 2053 -91 1600 -91 
Q 1103 -91 897 129 
Q 691 350 691 878 
L 691 2988 
z
" transform="scale(0.015625)"/>
       <path id="DejaVuSerif-63" d="M 3291 997 
Q 3169 466 2822 187 
Q 2475 -91 1925 -91 
Q 1200 -91 759 389 
Q 319 869 319 1663 
Q 319 2459 759 2936 
Q 1200 3413 1925 3413 
Q 2241 3413 2553 3339 
Q 2866 3266 3181 3116 
L 3181 2266 
L 2847 2266 
Q 2781 2703 2561 2903 
Q 2341 3103 1931 3103 
Q 1466 3103 1228 2742 
Q 991 2381 991 1663 
Q 991 944 1227 581 
Q 1463 219 1931 219 
Q 2303 219 2525 412 
Q 2747 606 2828 997 
L 3291 997 
z
" transform="scale(0.015625)"/>
      </defs>
      <use xlink:href="#DejaVuSerif-4b"/>
      <use xlink:href="#DejaVuSerif-69" x="74.707031"/>
      <use xlink:href="#DejaVuSerif-6e" x="106.689453"/>
      <use xlink:href="#DejaVuSerif-65" x="171.09375"/>
      <use xlink:href="#DejaVuSerif-74" x="230.273438"/>
      <use xlink:href="#DejaVuSerif-69" x="270.458984"/>
      <use xlink:href="#DejaVuSerif-63" x="302.441406"/>
     </g>
    </g>
    <g id="line2d_38">
     <path d="M 178.86 72.5225 
L 194.86 72.5225 
L 210.86 72.5225 
" style="fill: none; stroke-dasharray: 11.1,4.8; stroke-dashoffset: 0; stroke: #ff7f0e; stroke-width: 3"/>
    </g>
    <g id="text_14">
     <!-- $e^-$-nucleus -->
     <g transform="translate(223.66 78.1225) scale(0.16 -0.16)">
      <defs>
       <path id="Cmmi10-65" d="M 1288 -72 
Q 981 -72 751 87 
Q 522 247 401 517 
Q 281 788 281 1088 
Q 281 1544 511 1945 
Q 741 2347 1134 2587 
Q 1528 2828 1978 2828 
Q 2253 2828 2458 2686 
Q 2663 2544 2663 2278 
Q 2663 1909 2369 1729 
Q 2075 1550 1706 1508 
Q 1338 1466 891 1466 
L 872 1466 
Q 769 1084 769 813 
Q 769 528 900 312 
Q 1031 97 1300 97 
Q 1681 97 2032 272 
Q 2384 447 2606 756 
Q 2625 775 2656 775 
Q 2688 775 2720 739 
Q 2753 703 2753 672 
Q 2753 647 2741 634 
Q 2506 306 2109 117 
Q 1713 -72 1288 -72 
z
M 909 1631 
Q 1281 1631 1597 1665 
Q 1913 1700 2169 1839 
Q 2425 1978 2425 2272 
Q 2425 2391 2359 2480 
Q 2294 2569 2189 2616 
Q 2084 2663 1972 2663 
Q 1700 2663 1483 2516 
Q 1266 2369 1125 2133 
Q 984 1897 909 1631 
z
" transform="scale(0.015625)"/>
       <path id="Cmsy10-a1" d="M 653 1472 
Q 600 1472 565 1512 
Q 531 1553 531 1600 
Q 531 1647 565 1687 
Q 600 1728 653 1728 
L 4325 1728 
Q 4375 1728 4408 1687 
Q 4441 1647 4441 1600 
Q 4441 1553 4408 1512 
Q 4375 1472 4325 1472 
L 653 1472 
z
" transform="scale(0.015625)"/>
       <path id="DejaVuSerif-2d" d="M 281 1959 
L 1881 1959 
L 1881 1472 
L 281 1472 
L 281 1959 
z
" transform="scale(0.015625)"/>
       <path id="DejaVuSerif-6c" d="M 1313 331 
L 1856 331 
L 1856 0 
L 184 0 
L 184 331 
L 738 331 
L 738 4531 
L 184 4531 
L 184 4863 
L 1313 4863 
L 1313 331 
z
" transform="scale(0.015625)"/>
       <path id="DejaVuSerif-73" d="M 359 184 
L 359 959 
L 691 959 
Q 703 588 923 403 
Q 1144 219 1575 219 
Q 1963 219 2166 364 
Q 2369 509 2369 788 
Q 2369 1006 2220 1140 
Q 2072 1275 1594 1428 
L 1178 1569 
Q 750 1706 558 1912 
Q 366 2119 366 2438 
Q 366 2894 700 3153 
Q 1034 3413 1625 3413 
Q 1888 3413 2178 3344 
Q 2469 3275 2778 3144 
L 2778 2419 
L 2447 2419 
Q 2434 2741 2221 2922 
Q 2009 3103 1644 3103 
Q 1281 3103 1095 2975 
Q 909 2847 909 2591 
Q 909 2381 1050 2254 
Q 1191 2128 1613 1997 
L 2069 1856 
Q 2541 1709 2748 1489 
Q 2956 1269 2956 922 
Q 2956 450 2595 179 
Q 2234 -91 1600 -91 
Q 1278 -91 972 -22 
Q 666 47 359 184 
z
" transform="scale(0.015625)"/>
      </defs>
      <use xlink:href="#Cmmi10-65" transform="translate(0 0.015625)"/>
      <use xlink:href="#Cmsy10-a1" transform="translate(65.078672 38.279688) scale(0.7)"/>
      <use xlink:href="#DejaVuSerif-2d" transform="translate(138.126914 0.015625)"/>
      <use xlink:href="#DejaVuSerif-6e" transform="translate(171.915977 0.015625)"/>
      <use xlink:href="#DejaVuSerif-75" transform="translate(236.320273 0.015625)"/>
      <use xlink:href="#DejaVuSerif-63" transform="translate(300.72457 0.015625)"/>
      <use xlink:href="#DejaVuSerif-6c" transform="translate(356.73043 0.015625)"/>
      <use xlink:href="#DejaVuSerif-65" transform="translate(388.712852 0.015625)"/>
      <use xlink:href="#DejaVuSerif-75" transform="translate(447.892539 0.015625)"/>
      <use xlink:href="#DejaVuSerif-73" transform="translate(512.296836 0.015625)"/>
     </g>
    </g>
    <g id="line2d_39">
     <path d="M 178.86 96.0075 
L 194.86 96.0075 
L 210.86 96.0075 
" style="fill: none; stroke-dasharray: 19.2,4.8,3,4.8; stroke-dashoffset: 0; stroke: #2ca02c; stroke-width: 3"/>
    </g>
    <g id="text_15">
     <!-- $e^-$-$e^-$ -->
     <g transform="translate(223.66 101.6075) scale(0.16 -0.16)">
      <use xlink:href="#Cmmi10-65" transform="translate(0 0.835938)"/>
      <use xlink:href="#Cmsy10-a1" transform="translate(65.078672 39.1) scale(0.7)"/>
      <use xlink:href="#DejaVuSerif-2d" transform="translate(138.126914 0.835938)"/>
      <use xlink:href="#Cmmi10-65" transform="translate(171.915977 0.835938)"/>
      <use xlink:href="#Cmsy10-a1" transform="translate(236.994648 39.1) scale(0.7)"/>
     </g>
    </g>
    <g id="line2d_40">
     <path d="M 178.86 119.4925 
L 194.86 119.4925 
L 210.86 119.4925 
" style="fill: none; stroke-dasharray: 3,4.95; stroke-dashoffset: 0; stroke: #d62728; stroke-width: 3"/>
    </g>
    <g id="text_16">
     <!-- Heisenberg -->
     <g transform="translate(223.66 125.0925) scale(0.16 -0.16)">
      <defs>
       <path id="DejaVuSerif-48" d="M 353 0 
L 353 331 
L 947 331 
L 947 4331 
L 353 4331 
L 353 4666 
L 2175 4666 
L 2175 4331 
L 1581 4331 
L 1581 2719 
L 4000 2719 
L 4000 4331 
L 3406 4331 
L 3406 4666 
L 5228 4666 
L 5228 4331 
L 4634 4331 
L 4634 331 
L 5228 331 
L 5228 0 
L 3406 0 
L 3406 331 
L 4000 331 
L 4000 2338 
L 1581 2338 
L 1581 331 
L 2175 331 
L 2175 0 
L 353 0 
z
" transform="scale(0.015625)"/>
       <path id="DejaVuSerif-62" d="M 738 331 
L 738 4531 
L 184 4531 
L 184 4863 
L 1313 4863 
L 1313 2803 
Q 1481 3116 1742 3264 
Q 2003 3413 2388 3413 
Q 3000 3413 3387 2928 
Q 3775 2444 3775 1663 
Q 3775 881 3387 395 
Q 3000 -91 2388 -91 
Q 2003 -91 1742 57 
Q 1481 206 1313 519 
L 1313 0 
L 184 0 
L 184 331 
L 738 331 
z
M 1313 1497 
Q 1313 897 1542 583 
Q 1772 269 2209 269 
Q 2650 269 2876 622 
Q 3103 975 3103 1663 
Q 3103 2353 2876 2703 
Q 2650 3053 2209 3053 
Q 1772 3053 1542 2737 
Q 1313 2422 1313 1825 
L 1313 1497 
z
" transform="scale(0.015625)"/>
       <path id="DejaVuSerif-72" d="M 3059 3328 
L 3059 2497 
L 2728 2497 
Q 2713 2744 2591 2866 
Q 2469 2988 2234 2988 
Q 1809 2988 1582 2694 
Q 1356 2400 1356 1850 
L 1356 331 
L 2022 331 
L 2022 0 
L 263 0 
L 263 331 
L 781 331 
L 781 2994 
L 231 2994 
L 231 3322 
L 1356 3322 
L 1356 2731 
Q 1525 3078 1790 3245 
Q 2056 3413 2438 3413 
Q 2578 3413 2733 3391 
Q 2888 3369 3059 3328 
z
" transform="scale(0.015625)"/>
       <path id="DejaVuSerif-67" d="M 3359 2988 
L 3359 72 
Q 3359 -644 2965 -1033 
Q 2572 -1422 1844 -1422 
Q 1516 -1422 1216 -1362 
Q 916 -1303 641 -1184 
L 641 -488 
L 941 -488 
Q 997 -813 1206 -963 
Q 1416 -1113 1806 -1113 
Q 2313 -1113 2548 -827 
Q 2784 -541 2784 72 
L 2784 519 
Q 2616 206 2355 57 
Q 2094 -91 1709 -91 
Q 1097 -91 708 395 
Q 319 881 319 1663 
Q 319 2444 706 2928 
Q 1094 3413 1709 3413 
Q 2094 3413 2355 3264 
Q 2616 3116 2784 2803 
L 2784 3322 
L 3909 3322 
L 3909 2988 
L 3359 2988 
z
M 2784 1825 
Q 2784 2422 2554 2737 
Q 2325 3053 1888 3053 
Q 1444 3053 1217 2703 
Q 991 2353 991 1663 
Q 991 975 1217 622 
Q 1444 269 1888 269 
Q 2325 269 2554 583 
Q 2784 897 2784 1497 
L 2784 1825 
z
" transform="scale(0.015625)"/>
      </defs>
      <use xlink:href="#DejaVuSerif-48"/>
      <use xlink:href="#DejaVuSerif-65" x="87.207031"/>
      <use xlink:href="#DejaVuSerif-69" x="146.386719"/>
      <use xlink:href="#DejaVuSerif-73" x="178.369141"/>
      <use xlink:href="#DejaVuSerif-65" x="229.6875"/>
      <use xlink:href="#DejaVuSerif-6e" x="288.867188"/>
      <use xlink:href="#DejaVuSerif-62" x="353.271484"/>
      <use xlink:href="#DejaVuSerif-65" x="417.285156"/>
      <use xlink:href="#DejaVuSerif-72" x="476.464844"/>
      <use xlink:href="#DejaVuSerif-67" x="524.267578"/>
     </g>
    </g>
    <g id="line2d_41">
     <path d="M 178.86 143.205 
L 194.86 143.205 
L 210.86 143.205 
" style="fill: none; stroke-dasharray: 9,3,3,3; stroke-dashoffset: 0; stroke: #9467bd; stroke-width: 3"/>
    </g>
    <g id="text_17">
     <!-- Pauli -->
     <g transform="translate(223.66 148.805) scale(0.16 -0.16)">
      <defs>
       <path id="DejaVuSerif-50" d="M 1581 2375 
L 2406 2375 
Q 2872 2375 3115 2626 
Q 3359 2878 3359 3353 
Q 3359 3831 3115 4081 
Q 2872 4331 2406 4331 
L 1581 4331 
L 1581 2375 
z
M 353 0 
L 353 331 
L 947 331 
L 947 4331 
L 353 4331 
L 353 4666 
L 2559 4666 
Q 3259 4666 3668 4311 
Q 4078 3956 4078 3353 
Q 4078 2753 3668 2397 
Q 3259 2041 2559 2041 
L 1581 2041 
L 1581 331 
L 2303 331 
L 2303 0 
L 353 0 
z
" transform="scale(0.015625)"/>
      </defs>
      <use xlink:href="#DejaVuSerif-50"/>
      <use xlink:href="#DejaVuSerif-61" x="62.785156"/>
      <use xlink:href="#DejaVuSerif-75" x="122.404297"/>
      <use xlink:href="#DejaVuSerif-6c" x="186.808594"/>
      <use xlink:href="#DejaVuSerif-69" x="218.791016"/>
     </g>
    </g>
    <g id="line2d_42">
     <path d="M 178.86 166.69 
L 194.86 166.69 
L 210.86 166.69 
" style="fill: none; stroke: #808080; stroke-width: 3; stroke-linecap: square"/>
    </g>
    <g id="text_18">
     <!-- Total -->
     <g transform="translate(223.66 172.29) scale(0.16 -0.16)">
      <defs>
       <path id="DejaVuSerif-54" d="M 1222 0 
L 1222 331 
L 1819 331 
L 1819 4294 
L 447 4294 
L 447 3566 
L 63 3566 
L 63 4666 
L 4206 4666 
L 4206 3566 
L 3822 3566 
L 3822 4294 
L 2450 4294 
L 2450 331 
L 3047 331 
L 3047 0 
L 1222 0 
z
" transform="scale(0.015625)"/>
       <path id="DejaVuSerif-6f" d="M 1925 219 
Q 2388 219 2623 584 
Q 2859 950 2859 1663 
Q 2859 2375 2623 2739 
Q 2388 3103 1925 3103 
Q 1463 3103 1227 2739 
Q 991 2375 991 1663 
Q 991 950 1228 584 
Q 1466 219 1925 219 
z
M 1925 -91 
Q 1200 -91 759 389 
Q 319 869 319 1663 
Q 319 2456 758 2934 
Q 1197 3413 1925 3413 
Q 2653 3413 3092 2934 
Q 3531 2456 3531 1663 
Q 3531 869 3092 389 
Q 2653 -91 1925 -91 
z
" transform="scale(0.015625)"/>
      </defs>
      <use xlink:href="#DejaVuSerif-54"/>
      <use xlink:href="#DejaVuSerif-6f" x="58.949219"/>
      <use xlink:href="#DejaVuSerif-74" x="119.154297"/>
      <use xlink:href="#DejaVuSerif-61" x="159.339844"/>
      <use xlink:href="#DejaVuSerif-6c" x="218.958984"/>
     </g>
    </g>
   </g>
  </g>
 </g>
 <defs>
  <clipPath id="p97bc4ed02d">
   <rect x="164.46" y="28.08" width="519.658636" height="389.1525"/>
  </clipPath>
 </defs>
</svg>
