<?xml version="1.0" encoding="utf-8" standalone="no"?>
<!DOCTYPE svg PUBLIC "-//W3C//DTD SVG 1.1//EN"
  "http://www.w3.org/Graphics/SVG/1.1/DTD/svg11.dtd">
<svg xmlns:xlink="http://www.w3.org/1999/xlink" width="720pt" height="504pt" viewBox="0 0 720 504" xmlns="http://www.w3.org/2000/svg" version="1.1">
 <metadata>
  <rdf:RDF xmlns:dc="http://purl.org/dc/elements/1.1/" xmlns:cc="http://creativecommons.org/ns#" xmlns:rdf="http://www.w3.org/1999/02/22-rdf-syntax-ns#">
   <cc:Work>
    <dc:type rdf:resource="http://purl.org/dc/dcmitype/StillImage"/>
    <dc:date>2025-06-10T13:42:27.993469</dc:date>
    <dc:format>image/svg+xml</dc:format>
    <dc:creator>
     <cc:Agent>
      <dc:title>Matplotlib v3.7.2, https://matplotlib.org/</dc:title>
     </cc:Agent>
    </dc:creator>
   </cc:Work>
  </rdf:RDF>
 </metadata>
 <defs>
  <style type="text/css">*{stroke-linejoin: round; stroke-linecap: butt}</style>
 </defs>
 <g id="figure_1">
  <g id="patch_1">
   <path d="M 0 504 
L 720 504 
L 720 0 
L 0 0 
z
" style="fill: #ffffff"/>
  </g>
  <g id="axes_1">
   <g id="patch_2">
    <path d="M 114.87 417.2325 
L 684.118636 417.2325 
L 684.118636 28.08 
L 114.87 28.08 
z
" style="fill: #ffffff"/>
   </g>
   <g id="matplotlib.axis_1">
    <g id="xtick_1">
     <g id="line2d_1">
      <path d="M 140.744938 417.2325 
L 140.744938 28.08 
" clip-path="url(#p6f39f9c9de)" style="fill: none; stroke-dasharray: 3.7,1.6; stroke-dashoffset: 0; stroke: #b0b0b0; stroke-opacity: 0.5"/>
     </g>
     <g id="line2d_2">
      <defs>
       <path id="m1592e95b89" d="M 0 0 
L 0 -10 
" style="stroke: #000000; stroke-width: 2"/>
      </defs>
      <g>
       <use xlink:href="#m1592e95b89" x="140.744938" y="417.2325" style="stroke: #000000; stroke-width: 2"/>
      </g>
     </g>
     <g id="line2d_3">
      <defs>
       <path id="m675e458b52" d="M 0 0 
L 0 10 
" style="stroke: #000000; stroke-width: 2"/>
      </defs>
      <g>
       <use xlink:href="#m675e458b52" x="140.744938" y="28.08" style="stroke: #000000; stroke-width: 2"/>
      </g>
     </g>
     <g id="text_1">
      <!-- 0 -->
      <g transform="translate(132.473688 440.488438) scale(0.26 -0.26)">
       <defs>
        <path id="DejaVuSerif-30" d="M 2034 219 
Q 2513 219 2750 744 
Q 2988 1269 2988 2328 
Q 2988 3391 2750 3916 
Q 2513 4441 2034 4441 
Q 1556 4441 1318 3916 
Q 1081 3391 1081 2328 
Q 1081 1269 1318 744 
Q 1556 219 2034 219 
z
M 2034 -91 
Q 1275 -91 848 546 
Q 422 1184 422 2328 
Q 422 3475 848 4112 
Q 1275 4750 2034 4750 
Q 2797 4750 3222 4112 
Q 3647 3475 3647 2328 
Q 3647 1184 3222 546 
Q 2797 -91 2034 -91 
z
" transform="scale(0.015625)"/>
       </defs>
       <use xlink:href="#DejaVuSerif-30"/>
      </g>
     </g>
    </g>
    <g id="xtick_2">
     <g id="line2d_4">
      <path d="M 244.24469 417.2325 
L 244.24469 28.08 
" clip-path="url(#p6f39f9c9de)" style="fill: none; stroke-dasharray: 3.7,1.6; stroke-dashoffset: 0; stroke: #b0b0b0; stroke-opacity: 0.5"/>
     </g>
     <g id="line2d_5">
      <g>
       <use xlink:href="#m1592e95b89" x="244.24469" y="417.2325" style="stroke: #000000; stroke-width: 2"/>
      </g>
     </g>
     <g id="line2d_6">
      <g>
       <use xlink:href="#m675e458b52" x="244.24469" y="28.08" style="stroke: #000000; stroke-width: 2"/>
      </g>
     </g>
     <g id="text_2">
      <!-- 500 -->
      <g transform="translate(219.43094 440.488438) scale(0.26 -0.26)">
       <defs>
        <path id="DejaVuSerif-35" d="M 3219 4666 
L 3219 4153 
L 1081 4153 
L 1081 2816 
Q 1244 2928 1461 2984 
Q 1678 3041 1947 3041 
Q 2703 3041 3140 2622 
Q 3578 2203 3578 1478 
Q 3578 738 3136 323 
Q 2694 -91 1894 -91 
Q 1572 -91 1234 -12 
Q 897 66 544 225 
L 544 1131 
L 897 1131 
Q 925 688 1179 453 
Q 1434 219 1894 219 
Q 2388 219 2653 544 
Q 2919 869 2919 1478 
Q 2919 2084 2655 2407 
Q 2391 2731 1894 2731 
Q 1613 2731 1398 2631 
Q 1184 2531 1019 2322 
L 750 2322 
L 750 4666 
L 3219 4666 
z
" transform="scale(0.015625)"/>
       </defs>
       <use xlink:href="#DejaVuSerif-35"/>
       <use xlink:href="#DejaVuSerif-30" x="63.623047"/>
       <use xlink:href="#DejaVuSerif-30" x="127.246094"/>
      </g>
     </g>
    </g>
    <g id="xtick_3">
     <g id="line2d_7">
      <path d="M 347.744442 417.2325 
L 347.744442 28.08 
" clip-path="url(#p6f39f9c9de)" style="fill: none; stroke-dasharray: 3.7,1.6; stroke-dashoffset: 0; stroke: #b0b0b0; stroke-opacity: 0.5"/>
     </g>
     <g id="line2d_8">
      <g>
       <use xlink:href="#m1592e95b89" x="347.744442" y="417.2325" style="stroke: #000000; stroke-width: 2"/>
      </g>
     </g>
     <g id="line2d_9">
      <g>
       <use xlink:href="#m675e458b52" x="347.744442" y="28.08" style="stroke: #000000; stroke-width: 2"/>
      </g>
     </g>
     <g id="text_3">
      <!-- 1000 -->
      <g transform="translate(314.659442 440.488438) scale(0.26 -0.26)">
       <defs>
        <path id="DejaVuSerif-31" d="M 909 0 
L 909 331 
L 1722 331 
L 1722 4213 
L 781 3603 
L 781 4013 
L 1919 4750 
L 2350 4750 
L 2350 331 
L 3163 331 
L 3163 0 
L 909 0 
z
" transform="scale(0.015625)"/>
       </defs>
       <use xlink:href="#DejaVuSerif-31"/>
       <use xlink:href="#DejaVuSerif-30" x="63.623047"/>
       <use xlink:href="#DejaVuSerif-30" x="127.246094"/>
       <use xlink:href="#DejaVuSerif-30" x="190.869141"/>
      </g>
     </g>
    </g>
    <g id="xtick_4">
     <g id="line2d_10">
      <path d="M 451.244194 417.2325 
L 451.244194 28.08 
" clip-path="url(#p6f39f9c9de)" style="fill: none; stroke-dasharray: 3.7,1.6; stroke-dashoffset: 0; stroke: #b0b0b0; stroke-opacity: 0.5"/>
     </g>
     <g id="line2d_11">
      <g>
       <use xlink:href="#m1592e95b89" x="451.244194" y="417.2325" style="stroke: #000000; stroke-width: 2"/>
      </g>
     </g>
     <g id="line2d_12">
      <g>
       <use xlink:href="#m675e458b52" x="451.244194" y="28.08" style="stroke: #000000; stroke-width: 2"/>
      </g>
     </g>
     <g id="text_4">
      <!-- 1500 -->
      <g transform="translate(418.159194 440.488438) scale(0.26 -0.26)">
       <use xlink:href="#DejaVuSerif-31"/>
       <use xlink:href="#DejaVuSerif-35" x="63.623047"/>
       <use xlink:href="#DejaVuSerif-30" x="127.246094"/>
       <use xlink:href="#DejaVuSerif-30" x="190.869141"/>
      </g>
     </g>
    </g>
    <g id="xtick_5">
     <g id="line2d_13">
      <path d="M 554.743946 417.2325 
L 554.743946 28.08 
" clip-path="url(#p6f39f9c9de)" style="fill: none; stroke-dasharray: 3.7,1.6; stroke-dashoffset: 0; stroke: #b0b0b0; stroke-opacity: 0.5"/>
     </g>
     <g id="line2d_14">
      <g>
       <use xlink:href="#m1592e95b89" x="554.743946" y="417.2325" style="stroke: #000000; stroke-width: 2"/>
      </g>
     </g>
     <g id="line2d_15">
      <g>
       <use xlink:href="#m675e458b52" x="554.743946" y="28.08" style="stroke: #000000; stroke-width: 2"/>
      </g>
     </g>
     <g id="text_5">
      <!-- 2000 -->
      <g transform="translate(521.658946 440.488438) scale(0.26 -0.26)">
       <defs>
        <path id="DejaVuSerif-32" d="M 819 3553 
L 469 3553 
L 469 4384 
Q 803 4563 1142 4656 
Q 1481 4750 1806 4750 
Q 2534 4750 2956 4397 
Q 3378 4044 3378 3438 
Q 3378 2753 2422 1800 
Q 2347 1728 2309 1691 
L 1131 513 
L 3078 513 
L 3078 1088 
L 3444 1088 
L 3444 0 
L 434 0 
L 434 341 
L 1850 1753 
Q 2319 2222 2519 2614 
Q 2719 3006 2719 3438 
Q 2719 3909 2473 4175 
Q 2228 4441 1797 4441 
Q 1350 4441 1106 4219 
Q 863 3997 819 3553 
z
" transform="scale(0.015625)"/>
       </defs>
       <use xlink:href="#DejaVuSerif-32"/>
       <use xlink:href="#DejaVuSerif-30" x="63.623047"/>
       <use xlink:href="#DejaVuSerif-30" x="127.246094"/>
       <use xlink:href="#DejaVuSerif-30" x="190.869141"/>
      </g>
     </g>
    </g>
    <g id="xtick_6">
     <g id="line2d_16">
      <path d="M 658.243698 417.2325 
L 658.243698 28.08 
" clip-path="url(#p6f39f9c9de)" style="fill: none; stroke-dasharray: 3.7,1.6; stroke-dashoffset: 0; stroke: #b0b0b0; stroke-opacity: 0.5"/>
     </g>
     <g id="line2d_17">
      <g>
       <use xlink:href="#m1592e95b89" x="658.243698" y="417.2325" style="stroke: #000000; stroke-width: 2"/>
      </g>
     </g>
     <g id="line2d_18">
      <g>
       <use xlink:href="#m675e458b52" x="658.243698" y="28.08" style="stroke: #000000; stroke-width: 2"/>
      </g>
     </g>
     <g id="text_6">
      <!-- 2500 -->
      <g transform="translate(625.158698 440.488438) scale(0.26 -0.26)">
       <use xlink:href="#DejaVuSerif-32"/>
       <use xlink:href="#DejaVuSerif-35" x="63.623047"/>
       <use xlink:href="#DejaVuSerif-30" x="127.246094"/>
       <use xlink:href="#DejaVuSerif-30" x="190.869141"/>
      </g>
     </g>
    </g>
    <g id="text_7">
     <!-- $t$ (a.u.) -->
     <g transform="translate(356.074318 469.651563) scale(0.26 -0.26)">
      <defs>
       <path id="Cmmi10-74" d="M 397 519 
Q 397 613 416 697 
L 878 2534 
L 206 2534 
Q 141 2534 141 2619 
Q 166 2759 225 2759 
L 934 2759 
L 1191 3803 
Q 1216 3888 1291 3947 
Q 1366 4006 1459 4006 
Q 1541 4006 1595 3957 
Q 1650 3909 1650 3828 
Q 1650 3809 1648 3798 
Q 1647 3788 1644 3775 
L 1388 2759 
L 2047 2759 
Q 2113 2759 2113 2675 
Q 2109 2659 2100 2621 
Q 2091 2584 2075 2559 
Q 2059 2534 2028 2534 
L 1331 2534 
L 872 684 
Q 825 503 825 372 
Q 825 97 1013 97 
Q 1294 97 1511 361 
Q 1728 625 1844 941 
Q 1869 978 1894 978 
L 1972 978 
Q 1997 978 2012 961 
Q 2028 944 2028 922 
Q 2028 909 2022 903 
Q 1881 516 1612 222 
Q 1344 -72 997 -72 
Q 744 -72 570 93 
Q 397 259 397 519 
z
" transform="scale(0.015625)"/>
       <path id="DejaVuSerif-20" transform="scale(0.015625)"/>
       <path id="DejaVuSerif-28" d="M 2041 -997 
Q 1281 -656 893 83 
Q 506 822 506 1931 
Q 506 3044 893 3783 
Q 1281 4522 2041 4863 
L 2041 4556 
Q 1559 4225 1350 3623 
Q 1141 3022 1141 1931 
Q 1141 844 1350 242 
Q 1559 -359 2041 -691 
L 2041 -997 
z
" transform="scale(0.015625)"/>
       <path id="DejaVuSerif-61" d="M 2547 1044 
L 2547 1747 
L 1806 1747 
Q 1378 1747 1168 1562 
Q 959 1378 959 997 
Q 959 650 1171 447 
Q 1384 244 1747 244 
Q 2106 244 2326 466 
Q 2547 688 2547 1044 
z
M 3122 2075 
L 3122 331 
L 3634 331 
L 3634 0 
L 2547 0 
L 2547 359 
Q 2356 128 2106 18 
Q 1856 -91 1522 -91 
Q 969 -91 644 203 
Q 319 497 319 997 
Q 319 1513 691 1797 
Q 1063 2081 1741 2081 
L 2547 2081 
L 2547 2309 
Q 2547 2688 2317 2895 
Q 2088 3103 1672 3103 
Q 1328 3103 1125 2947 
Q 922 2791 872 2484 
L 575 2484 
L 575 3156 
Q 875 3284 1158 3348 
Q 1441 3413 1709 3413 
Q 2400 3413 2761 3070 
Q 3122 2728 3122 2075 
z
" transform="scale(0.015625)"/>
       <path id="DejaVuSerif-2e" d="M 603 325 
Q 603 500 722 622 
Q 841 744 1019 744 
Q 1191 744 1312 622 
Q 1434 500 1434 325 
Q 1434 153 1312 31 
Q 1191 -91 1019 -91 
Q 841 -91 722 29 
Q 603 150 603 325 
z
" transform="scale(0.015625)"/>
       <path id="DejaVuSerif-75" d="M 2266 3322 
L 3341 3322 
L 3341 331 
L 3884 331 
L 3884 0 
L 2766 0 
L 2766 588 
Q 2606 256 2353 82 
Q 2100 -91 1766 -91 
Q 1213 -91 952 223 
Q 691 538 691 1209 
L 691 2988 
L 172 2988 
L 172 3322 
L 1269 3322 
L 1269 1388 
Q 1269 781 1417 556 
Q 1566 331 1947 331 
Q 2347 331 2556 625 
Q 2766 919 2766 1478 
L 2766 2988 
L 2266 2988 
L 2266 3322 
z
" transform="scale(0.015625)"/>
       <path id="DejaVuSerif-29" d="M 453 -997 
L 453 -691 
Q 934 -359 1145 242 
Q 1356 844 1356 1931 
Q 1356 3022 1145 3623 
Q 934 4225 453 4556 
L 453 4863 
Q 1216 4522 1603 3783 
Q 1991 3044 1991 1931 
Q 1991 822 1603 83 
Q 1216 -656 453 -997 
z
" transform="scale(0.015625)"/>
      </defs>
      <use xlink:href="#Cmmi10-74" transform="translate(0 0.015625)"/>
      <use xlink:href="#DejaVuSerif-20" transform="translate(36.083984 0.015625)"/>
      <use xlink:href="#DejaVuSerif-28" transform="translate(67.871094 0.015625)"/>
      <use xlink:href="#DejaVuSerif-61" transform="translate(106.884766 0.015625)"/>
      <use xlink:href="#DejaVuSerif-2e" transform="translate(166.503906 0.015625)"/>
      <use xlink:href="#DejaVuSerif-75" transform="translate(198.291016 0.015625)"/>
      <use xlink:href="#DejaVuSerif-2e" transform="translate(262.695312 0.015625)"/>
      <use xlink:href="#DejaVuSerif-29" transform="translate(294.482422 0.015625)"/>
     </g>
    </g>
   </g>
   <g id="matplotlib.axis_2">
    <g id="ytick_1">
     <g id="line2d_19">
      <path d="M 114.87 417.2325 
L 684.118636 417.2325 
" clip-path="url(#p6f39f9c9de)" style="fill: none; stroke-dasharray: 3.7,1.6; stroke-dashoffset: 0; stroke: #b0b0b0; stroke-opacity: 0.5"/>
     </g>
     <g id="line2d_20">
      <defs>
       <path id="mc534564aca" d="M 0 0 
L 10 0 
" style="stroke: #000000; stroke-width: 2"/>
      </defs>
      <g>
       <use xlink:href="#mc534564aca" x="114.87" y="417.2325" style="stroke: #000000; stroke-width: 2"/>
      </g>
     </g>
     <g id="line2d_21">
      <defs>
       <path id="m6459e1ed71" d="M 0 0 
L -10 0 
" style="stroke: #000000; stroke-width: 2"/>
      </defs>
      <g>
       <use xlink:href="#m6459e1ed71" x="684.118636" y="417.2325" style="stroke: #000000; stroke-width: 2"/>
      </g>
     </g>
     <g id="text_8">
      <!-- −2 -->
      <g transform="translate(73.040312 427.110469) scale(0.26 -0.26)">
       <defs>
        <path id="DejaVuSerif-2212" d="M 678 2259 
L 4684 2259 
L 4684 1753 
L 678 1753 
L 678 2259 
z
" transform="scale(0.015625)"/>
       </defs>
       <use xlink:href="#DejaVuSerif-2212"/>
       <use xlink:href="#DejaVuSerif-32" x="83.789062"/>
      </g>
     </g>
    </g>
    <g id="ytick_2">
     <g id="line2d_22">
      <path d="M 114.87 319.944375 
L 684.118636 319.944375 
" clip-path="url(#p6f39f9c9de)" style="fill: none; stroke-dasharray: 3.7,1.6; stroke-dashoffset: 0; stroke: #b0b0b0; stroke-opacity: 0.5"/>
     </g>
     <g id="line2d_23">
      <g>
       <use xlink:href="#mc534564aca" x="114.87" y="319.944375" style="stroke: #000000; stroke-width: 2"/>
      </g>
     </g>
     <g id="line2d_24">
      <g>
       <use xlink:href="#m6459e1ed71" x="684.118636" y="319.944375" style="stroke: #000000; stroke-width: 2"/>
      </g>
     </g>
     <g id="text_9">
      <!-- −1 -->
      <g transform="translate(73.040312 329.822344) scale(0.26 -0.26)">
       <use xlink:href="#DejaVuSerif-2212"/>
       <use xlink:href="#DejaVuSerif-31" x="83.789062"/>
      </g>
     </g>
    </g>
    <g id="ytick_3">
     <g id="line2d_25">
      <path d="M 114.87 222.65625 
L 684.118636 222.65625 
" clip-path="url(#p6f39f9c9de)" style="fill: none; stroke-dasharray: 3.7,1.6; stroke-dashoffset: 0; stroke: #b0b0b0; stroke-opacity: 0.5"/>
     </g>
     <g id="line2d_26">
      <g>
       <use xlink:href="#mc534564aca" x="114.87" y="222.65625" style="stroke: #000000; stroke-width: 2"/>
      </g>
     </g>
     <g id="line2d_27">
      <g>
       <use xlink:href="#m6459e1ed71" x="684.118636" y="222.65625" style="stroke: #000000; stroke-width: 2"/>
      </g>
     </g>
     <g id="text_10">
      <!-- 0 -->
      <g transform="translate(94.8275 232.534219) scale(0.26 -0.26)">
       <use xlink:href="#DejaVuSerif-30"/>
      </g>
     </g>
    </g>
    <g id="ytick_4">
     <g id="line2d_28">
      <path d="M 114.87 125.368125 
L 684.118636 125.368125 
" clip-path="url(#p6f39f9c9de)" style="fill: none; stroke-dasharray: 3.7,1.6; stroke-dashoffset: 0; stroke: #b0b0b0; stroke-opacity: 0.5"/>
     </g>
     <g id="line2d_29">
      <g>
       <use xlink:href="#mc534564aca" x="114.87" y="125.368125" style="stroke: #000000; stroke-width: 2"/>
      </g>
     </g>
     <g id="line2d_30">
      <g>
       <use xlink:href="#m6459e1ed71" x="684.118636" y="125.368125" style="stroke: #000000; stroke-width: 2"/>
      </g>
     </g>
     <g id="text_11">
      <!-- 1 -->
      <g transform="translate(94.8275 135.246094) scale(0.26 -0.26)">
       <use xlink:href="#DejaVuSerif-31"/>
      </g>
     </g>
    </g>
    <g id="ytick_5">
     <g id="line2d_31">
      <path d="M 114.87 28.08 
L 684.118636 28.08 
" clip-path="url(#p6f39f9c9de)" style="fill: none; stroke-dasharray: 3.7,1.6; stroke-dashoffset: 0; stroke: #b0b0b0; stroke-opacity: 0.5"/>
     </g>
     <g id="line2d_32">
      <g>
       <use xlink:href="#mc534564aca" x="114.87" y="28.08" style="stroke: #000000; stroke-width: 2"/>
      </g>
     </g>
     <g id="line2d_33">
      <g>
       <use xlink:href="#m6459e1ed71" x="684.118636" y="28.08" style="stroke: #000000; stroke-width: 2"/>
      </g>
     </g>
     <g id="text_12">
      <!-- 2 -->
      <g transform="translate(94.8275 37.957969) scale(0.26 -0.26)">
       <use xlink:href="#DejaVuSerif-32"/>
      </g>
     </g>
    </g>
    <g id="text_13">
     <!-- $E_i(t)$ (a.u.) -->
     <g transform="translate(62.540312 289.73625) rotate(-90) scale(0.26 -0.26)">
      <defs>
       <path id="Cmmi10-45" d="M 300 0 
Q 238 0 238 84 
Q 241 100 250 139 
Q 259 178 276 201 
Q 294 225 319 225 
Q 709 225 863 269 
Q 947 297 984 441 
L 1863 3956 
Q 1875 4019 1875 4044 
Q 1875 4113 1797 4122 
Q 1678 4147 1338 4147 
Q 1275 4147 1275 4231 
Q 1278 4247 1287 4286 
Q 1297 4325 1314 4348 
Q 1331 4372 1356 4372 
L 4825 4372 
Q 4891 4372 4891 4288 
L 4738 2963 
Q 4738 2947 4714 2926 
Q 4691 2906 4672 2906 
L 4616 2906 
Q 4550 2906 4550 2988 
Q 4588 3300 4588 3450 
Q 4588 3706 4500 3848 
Q 4413 3991 4267 4053 
Q 4122 4116 3945 4131 
Q 3769 4147 3481 4147 
L 2753 4147 
Q 2578 4147 2522 4117 
Q 2466 4088 2419 3928 
L 2034 2381 
L 2534 2381 
Q 2859 2381 3025 2426 
Q 3191 2472 3287 2615 
Q 3384 2759 3463 3072 
Q 3469 3094 3486 3111 
Q 3503 3128 3525 3128 
L 3584 3128 
Q 3647 3128 3647 3047 
L 3250 1466 
Q 3238 1409 3188 1409 
L 3128 1409 
Q 3066 1409 3066 1491 
Q 3128 1747 3128 1869 
Q 3128 2056 2959 2106 
Q 2791 2156 2509 2156 
L 1978 2156 
L 1544 416 
Q 1516 338 1516 275 
Q 1516 225 1734 225 
L 2509 225 
Q 2972 225 3259 297 
Q 3547 369 3736 526 
Q 3925 684 4062 928 
Q 4200 1172 4397 1638 
Q 4409 1678 4453 1678 
L 4513 1678 
Q 4538 1678 4556 1656 
Q 4575 1634 4575 1606 
Q 4575 1594 4569 1581 
L 3909 38 
Q 3897 0 3859 0 
L 300 0 
z
" transform="scale(0.015625)"/>
       <path id="Cmmi10-69" d="M 500 459 
Q 500 578 550 709 
L 1069 2088 
Q 1153 2322 1153 2472 
Q 1153 2663 1013 2663 
Q 759 2663 595 2402 
Q 431 2141 353 1819 
Q 341 1778 300 1778 
L 225 1778 
Q 172 1778 172 1838 
L 172 1856 
Q 275 2238 487 2533 
Q 700 2828 1025 2828 
Q 1253 2828 1411 2678 
Q 1569 2528 1569 2297 
Q 1569 2178 1516 2047 
L 997 672 
Q 909 459 909 288 
Q 909 97 1056 97 
Q 1306 97 1473 364 
Q 1641 631 1709 941 
Q 1722 978 1759 978 
L 1838 978 
Q 1863 978 1878 961 
Q 1894 944 1894 922 
Q 1894 916 1888 903 
Q 1800 541 1583 234 
Q 1366 -72 1044 -72 
Q 819 -72 659 83 
Q 500 238 500 459 
z
M 1222 3878 
Q 1222 4013 1334 4122 
Q 1447 4231 1581 4231 
Q 1691 4231 1761 4164 
Q 1831 4097 1831 3994 
Q 1831 3850 1717 3742 
Q 1603 3634 1466 3634 
Q 1363 3634 1292 3704 
Q 1222 3775 1222 3878 
z
" transform="scale(0.015625)"/>
       <path id="Cmr10-28" d="M 1984 -1588 
Q 1628 -1306 1370 -942 
Q 1113 -578 948 -165 
Q 784 247 703 697 
Q 622 1147 622 1600 
Q 622 2059 703 2509 
Q 784 2959 951 3375 
Q 1119 3791 1378 4153 
Q 1638 4516 1984 4788 
Q 1984 4800 2016 4800 
L 2075 4800 
Q 2094 4800 2109 4783 
Q 2125 4766 2125 4744 
Q 2125 4716 2113 4703 
Q 1800 4397 1592 4047 
Q 1384 3697 1257 3301 
Q 1131 2906 1075 2482 
Q 1019 2059 1019 1600 
Q 1019 -434 2106 -1491 
Q 2125 -1509 2125 -1544 
Q 2125 -1559 2108 -1579 
Q 2091 -1600 2075 -1600 
L 2016 -1600 
Q 1984 -1600 1984 -1588 
z
" transform="scale(0.015625)"/>
       <path id="Cmr10-29" d="M 416 -1600 
Q 359 -1600 359 -1544 
Q 359 -1516 372 -1503 
Q 1466 -434 1466 1600 
Q 1466 3634 384 4691 
Q 359 4706 359 4744 
Q 359 4766 376 4783 
Q 394 4800 416 4800 
L 475 4800 
Q 494 4800 506 4788 
Q 966 4425 1272 3906 
Q 1578 3388 1720 2800 
Q 1863 2213 1863 1600 
Q 1863 1147 1786 708 
Q 1709 269 1542 -157 
Q 1375 -584 1119 -945 
Q 863 -1306 506 -1588 
Q 494 -1600 475 -1600 
L 416 -1600 
z
" transform="scale(0.015625)"/>
      </defs>
      <use xlink:href="#Cmmi10-45" transform="translate(0 0.015625)"/>
      <use xlink:href="#Cmmi10-69" transform="translate(73.779297 -16.990625) scale(0.7)"/>
      <use xlink:href="#Cmr10-28" transform="translate(104.25332 0.015625)"/>
      <use xlink:href="#Cmmi10-74" transform="translate(143.07168 0.015625)"/>
      <use xlink:href="#Cmr10-29" transform="translate(179.155664 0.015625)"/>
      <use xlink:href="#DejaVuSerif-20" transform="translate(217.974023 0.015625)"/>
      <use xlink:href="#DejaVuSerif-28" transform="translate(249.761133 0.015625)"/>
      <use xlink:href="#DejaVuSerif-61" transform="translate(288.774805 0.015625)"/>
      <use xlink:href="#DejaVuSerif-2e" transform="translate(348.393945 0.015625)"/>
      <use xlink:href="#DejaVuSerif-75" transform="translate(380.181055 0.015625)"/>
      <use xlink:href="#DejaVuSerif-2e" transform="translate(444.585352 0.015625)"/>
      <use xlink:href="#DejaVuSerif-29" transform="translate(476.372461 0.015625)"/>
     </g>
    </g>
   </g>
   <g id="line2d_34">
    <path d="M 294.800103 -1 
L 295.113938 33.52948 
L 295.631954 21.13674 
L 296.149971 113.660907 
L 296.532593 -1 
M 297.250916 -1 
L 297.704021 121.1765 
L 298.222038 102.974239 
L 298.740055 142.716729 
L 299.258072 170.621078 
L 299.776089 119.052803 
L 300.294105 89.226109 
L 300.812122 131.284023 
L 301.330139 31.599576 
L 301.848156 147.623928 
L 302.366172 131.836735 
L 302.687748 -1 
M 303.2685 -1 
L 303.402206 27.231824 
L 303.920223 84.668327 
L 304.43824 71.243426 
L 304.956256 34.677073 
L 305.182191 -1 
M 308.349307 -1 
L 308.582374 48.047264 
L 309.100391 16.800705 
L 309.618407 110.624786 
L 310.136424 103.672054 
L 310.654441 122.880132 
L 311.139508 -1 
M 311.211398 -1 
L 311.690474 102.525471 
L 312.10582 -1 
M 312.292288 -1 
L 312.726508 131.608527 
L 313.244525 160.367535 
L 313.762542 132.87795 
L 314.118457 -1 
M 314.44919 -1 
L 314.798575 125.333046 
L 315.316592 60.822773 
L 315.834609 124.004221 
L 316.352625 139.004211 
L 316.870642 144.495207 
L 317.388659 89.96764 
L 317.630562 -1 
M 319.192695 -1 
L 319.460726 35.927583 
L 319.831522 -1 
M 322.437809 -1 
L 322.568827 34.068945 
L 323.086844 131.433564 
L 323.60486 171.958265 
L 324.122877 186.68641 
L 324.640894 187.445645 
L 325.158911 172.041758 
L 325.676927 169.399414 
L 326.194944 145.380336 
L 326.712961 148.346641 
L 327.230978 140.033977 
L 327.748995 90.318896 
L 328.164477 -1 
M 330.255684 -1 
L 330.339078 34.720951 
L 330.857095 125.362931 
L 331.375112 172.132933 
L 331.893129 197.713296 
L 332.411146 210.132753 
L 332.929162 212.407915 
L 333.447179 204.963985 
L 333.965196 185.909091 
L 334.483213 149.59753 
L 335.001229 80.839842 
L 335.276747 -1 
M 337.22259 -1 
L 337.591313 94.492871 
L 338.10933 156.820306 
L 338.627347 190.025744 
L 339.145364 207.14492 
L 339.66338 213.073998 
L 340.181397 209.307236 
L 340.699414 195.04904 
L 341.217431 166.666799 
L 341.735448 114.563138 
L 342.279852 -1 
M 344.274438 -1 
L 344.325531 24.485058 
L 344.843548 119.437816 
L 345.361565 165.085035 
L 345.879582 184.671084 
L 346.397599 168.837018 
L 346.915615 216.673583 
L 347.433632 212.233923 
L 347.951649 197.217453 
L 348.469666 168.151351 
L 348.987682 115.09943 
L 349.525239 -1 
M 351.504004 -1 
L 351.577766 34.801952 
L 352.095783 129.27659 
L 352.6138 176.722282 
L 353.131817 202.074465 
L 353.649833 213.913319 
L 354.16785 215.405908 
L 354.685867 206.98435 
L 355.203884 186.665733 
L 355.721901 148.551153 
L 356.239917 76.691954 
L 356.488631 -1 
M 358.671466 -1 
L 358.830001 19.887086 
L 359.348018 159.861167 
L 359.866035 192.89645 
L 360.384052 209.754028 
L 360.902068 215.440341 
L 361.420085 211.383867 
L 361.938102 196.695569 
L 362.456119 167.558567 
L 362.974135 113.865376 
L 363.498491 -1 
M 365.494742 -1 
L 365.564219 31.655261 
L 366.082236 125.065302 
L 366.600253 171.710106 
L 367.11827 195.681986 
L 367.636286 205.133874 
L 368.154303 202.606211 
L 368.67232 187.268937 
L 369.190337 154.187023 
L 369.708353 89.067241 
L 370.026291 -1 
M 371.930768 -1 
L 372.298437 96.869858 
L 372.816454 159.482101 
L 373.334471 191.684051 
L 373.852488 206.762864 
L 374.370504 209.320181 
L 374.888521 200.020499 
L 375.406538 176.149568 
L 375.924555 129.125073 
L 376.442572 33.042829 
L 376.509593 -1 
M 378.406519 -1 
L 378.514639 47.307726 
L 379.032655 136.240952 
L 379.550672 180.369795 
L 380.068689 202.634137 
L 380.586706 210.756646 
L 381.104723 207.038835 
L 381.622739 190.432815 
L 382.140756 155.644423 
L 382.658773 87.389617 
L 382.952272 -1 
M 384.827564 -1 
L 385.248857 104.822316 
L 385.766874 164.622538 
L 386.28489 195.281361 
L 386.802907 209.230528 
L 387.320924 210.727513 
L 387.838941 200.176177 
L 388.356957 174.468748 
L 388.874974 124.051713 
L 389.427652 -1 
M 391.305094 -1 
L 391.465058 61.987584 
L 391.983075 143.923933 
L 392.501092 184.9415 
L 393.019108 205.292101 
L 393.537125 211.867961 
L 394.055142 206.531909 
L 394.573159 187.772897 
L 395.091176 149.381987 
L 395.609192 73.268792 
L 395.819789 -1 
M 397.673502 -1 
L 397.681259 4.305408 
L 398.199276 117.966775 
L 398.717293 171.771069 
L 399.23531 199.236193 
L 399.753327 210.928743 
L 400.271343 210.346666 
L 400.78936 197.32359 
L 401.307377 167.886729 
L 401.825394 110.274223 
L 402.289563 -1 
M 404.144847 -1 
L 404.415478 84.728233 
L 404.933494 155.364364 
L 405.451511 191.156243 
L 405.969528 208.22886 
L 406.487545 212.113216 
L 407.005561 203.902563 
L 407.523578 181.206692 
L 408.041595 135.954414 
L 408.559612 43.858167 
L 408.654144 -1 
M 410.537858 -1 
L 410.631679 43.693151 
L 411.149696 136.001797 
L 411.667712 181.33046 
L 412.185729 204.050672 
L 412.703746 212.250974 
L 413.221763 208.317806 
L 413.73978 191.134727 
L 414.257796 155.104342 
L 414.775813 83.881582 
L 415.04042 -1 
M 416.887387 -1 
L 417.365897 112.361938 
L 417.883914 169.368699 
L 418.401931 198.390759 
L 418.919947 211.006518 
L 419.437964 211.075885 
L 419.955981 198.616239 
L 420.473998 169.817426 
L 420.992014 113.227499 
L 421.478679 -1 
M 423.320875 -1 
L 423.582098 83.660379 
L 424.100115 155.322154 
L 424.618132 191.472271 
L 425.136149 208.624373 
L 425.654165 212.402188 
L 426.172182 203.883455 
L 426.690199 180.553458 
L 427.208216 133.950274 
L 427.726233 38.301846 
L 427.803907 -1 
M 429.68056 -1 
L 429.7983 51.664816 
L 430.316316 140.304002 
L 430.834333 183.942689 
L 431.35235 205.516266 
L 431.870367 212.651561 
L 432.388384 207.44049 
L 432.9064 188.372045 
L 433.424417 148.968254 
L 433.942434 70.045998 
L 434.132484 -1 
M 435.987276 -1 
L 436.014501 16.101703 
L 436.532518 124.38638 
L 437.050535 175.903669 
L 437.568551 201.852955 
L 438.086568 212.141868 
L 438.604585 209.88306 
L 439.122602 194.427172 
L 439.640618 160.787532 
L 440.158635 94.20503 
L 440.483888 -1 
M 442.328025 -1 
L 442.748719 106.920572 
L 443.266736 167.274612 
L 443.784753 197.768359 
L 444.302769 211.086523 
L 444.820786 211.428609 
L 445.338803 198.892054 
L 445.85682 169.55886 
L 446.374837 111.473914 
L 446.835903 -1 
M 448.671452 -1 
L 448.96492 89.708728 
L 449.482937 158.856484 
L 450.000954 193.634012 
L 450.518971 209.702621 
L 451.036988 212.33205 
L 451.555004 202.283946 
L 452.073021 176.495377 
L 452.591038 125.076296 
L 453.137356 -1 
M 454.98647 -1 
L 455.181122 71.622789 
L 455.699138 150.29162 
L 456.217155 189.412635 
L 456.735172 208.107709 
L 457.253189 212.779708 
L 457.771206 204.801465 
L 458.289222 181.773919 
L 458.807239 135.238902 
L 459.325256 39.205386 
L 459.403903 -1 
M 461.271909 -1 
L 461.397323 54.482664 
L 461.91534 142.330142 
L 462.433357 185.435334 
L 462.951373 206.467378 
L 463.46939 212.914966 
L 463.987407 206.698136 
L 464.505424 185.966737 
L 465.02344 143.372125 
L 465.541457 56.712887 
L 465.67474 -1 
M 467.540189 -1 
L 467.613524 37.376149 
L 468.131541 134.690831 
L 468.649558 181.671689 
L 469.167575 204.862097 
L 469.685591 212.852346 
L 470.203608 208.062685 
L 470.721625 189.071635 
L 471.239642 149.299593 
L 471.757659 68.986334 
L 471.939235 -1 
M 473.79017 -1 
L 473.829726 22.805533 
L 474.347742 128.304031 
L 474.865759 178.503744 
L 475.383776 203.452908 
L 475.901793 212.689267 
L 476.41981 209.048211 
L 476.937826 191.451767 
L 477.455843 153.916562 
L 477.97386 78.504442 
L 478.20029 -1 
M 480.030501 -1 
L 480.045927 9.561576 
L 480.563944 122.762226 
L 481.081961 175.841216 
L 481.599977 202.284082 
L 482.117994 212.505133 
L 482.636011 209.689936 
L 483.154028 193.002268 
L 483.672044 156.813175 
L 484.190061 84.184452 
L 484.446009 -1 
M 486.259356 -1 
L 486.262128 1.05992 
L 486.780145 119.240651 
L 487.298162 174.137722 
L 487.816179 201.519347 
L 488.334195 212.364973 
L 488.852212 210.084569 
L 489.370229 193.999946 
L 489.888246 158.719255 
L 490.406263 87.972219 
L 490.683683 -1 
M 492.495272 -1 
L 492.996346 116.892872 
L 493.514363 173.081964 
L 494.03238 201.085486 
L 494.550397 212.294253 
L 495.068414 210.263182 
L 495.58643 194.385359 
L 496.104447 159.32948 
L 496.622464 88.944703 
L 496.904698 -1 
M 498.715082 -1 
L 499.212548 116.630113 
L 499.730565 173.014113 
L 500.248581 201.091358 
L 500.766598 212.317209 
L 501.284615 210.26122 
L 501.802632 194.307449 
L 502.320648 159.081721 
L 502.838665 88.281253 
L 503.116358 -1 
M 504.922708 -1 
L 505.428749 117.683833 
L 505.946766 173.658966 
L 506.464783 201.463543 
L 506.982799 212.429614 
L 507.500816 210.052097 
L 508.018833 193.61443 
L 508.53685 157.51725 
L 509.054867 84.740944 
L 509.311017 -1 
M 511.12087 -1 
L 511.126934 3.457566 
L 511.64495 120.836088 
L 512.162967 175.290659 
L 512.680984 202.26524 
L 513.199001 212.617614 
L 513.717018 209.634636 
L 514.235034 192.413596 
L 514.753051 155.011356 
L 515.271068 79.353635 
L 515.497871 -1 
M 517.322291 -1 
L 517.343135 13.050539 
L 517.861152 125.102136 
L 518.379169 177.527882 
L 518.897185 203.360573 
L 519.415202 212.835874 
L 519.933219 208.95163 
L 520.451236 190.522818 
L 520.969252 151.051688 
L 521.487269 70.697371 
L 521.672149 -1 
M 523.513317 -1 
L 523.559336 26.401879 
L 524.077353 130.986075 
L 524.59537 180.524501 
L 525.113387 204.751957 
L 525.631403 213.032962 
L 526.14942 207.967075 
L 526.667437 187.996782 
L 527.185454 145.903558 
L 527.703471 59.497812 
L 527.842932 -1 
M 529.695375 -1 
L 529.775538 40.740876 
L 530.293554 137.439086 
L 530.811571 183.809508 
L 531.329588 206.23003 
L 531.847605 213.134586 
L 532.365622 206.674101 
L 532.883638 184.841168 
L 533.401655 139.497628 
L 533.919672 45.305183 
L 534.012559 -1 
M 535.865555 -1 
L 535.991739 55.962593 
L 536.509756 144.507091 
L 537.027773 187.437105 
L 537.545789 207.808158 
L 538.063806 213.073168 
L 538.581823 204.864401 
L 539.09984 180.586349 
L 539.617856 130.792258 
L 540.179448 -1 
M 542.014982 -1 
L 542.20794 72.880058 
L 542.725957 152.44145 
L 543.243974 191.429743 
L 543.761991 209.409774 
L 544.280007 212.7455 
L 544.798024 202.464863 
L 545.316041 175.250646 
L 545.834058 119.967292 
L 546.353177 -1 
M 548.146032 -1 
L 548.424142 89.287819 
L 548.942158 160.315752 
L 549.460175 195.354322 
L 549.978192 210.834736 
L 550.496209 212.06584 
L 551.014225 199.426002 
L 551.532242 168.72576 
L 552.050259 106.611738 
L 552.448858 -1 
M 554.254394 -1 
L 554.640343 105.124026 
L 555.15836 168.067673 
L 555.676376 199.151383 
L 556.194393 212.009511 
L 556.71241 210.925134 
L 557.230427 195.563525 
L 557.748444 160.650355 
L 558.26646 89.818912 
L 558.547144 -1 
M 560.337318 -1 
L 560.338527 -0.063276 
L 560.856544 120.297383 
L 561.374561 175.591882 
L 561.892578 202.721498 
L 562.410595 212.832357 
L 562.928611 209.205867 
L 563.446628 190.713722 
L 563.964645 150.718109 
L 564.482662 68.700143 
L 564.65628 -1 
M 566.495392 -1 
L 566.554729 32.771123 
L 567.072746 134.493598 
L 567.590762 182.698238 
L 568.108779 205.937937 
L 568.626796 213.192762 
L 569.144813 206.76921 
L 569.662829 184.635701 
L 570.180846 138.385708 
L 570.698863 41.529495 
L 570.780081 -1 
M 572.625055 -1 
L 572.77093 61.867358 
L 573.288947 147.700076 
L 573.806964 189.307844 
L 574.32498 208.704775 
L 574.842997 212.974025 
L 575.361014 203.453622 
L 575.879031 177.054519 
L 576.397048 123.021181 
L 576.924554 -1 
M 578.722468 -1 
L 578.987131 87.422457 
L 579.505148 159.770913 
L 580.023165 195.289672 
L 580.541182 210.906317 
L 581.059199 212.047361 
L 581.577215 199.068175 
L 582.095232 167.5988 
L 582.613249 103.651974 
L 582.985057 -1 
M 584.782277 -1 
L 585.203333 109.89689 
L 585.72135 170.712375 
L 586.239366 200.580319 
L 586.757383 212.442255 
L 587.2754 210.253748 
L 587.793417 193.329438 
L 588.311433 155.671875 
L 588.82945 78.623673 
L 589.046855 -1 
M 590.866791 -1 
L 590.901517 21.251739 
L 591.419534 129.910074 
L 591.937551 180.684833 
L 592.455568 205.192909 
L 592.973584 213.193117 
L 593.491601 207.275763 
L 594.009618 185.5505 
L 594.527635 139.732892 
L 595.045652 43.606046 
L 595.131735 -1 
M 596.972907 -1 
L 597.117719 61.941851 
L 597.635735 148.120004 
L 598.153752 189.739116 
L 598.671769 208.977978 
L 599.189786 212.921565 
L 599.707803 202.820571 
L 600.225819 175.339325 
L 600.743836 118.97406 
L 601.245675 -1 
M 603.026791 -1 
L 603.33392 94.853529 
L 603.851937 163.669746 
L 604.369954 197.367498 
L 604.88797 211.636354 
L 605.405987 211.410481 
L 605.924004 196.618413 
L 606.442021 162.112434 
L 606.960037 91.601877 
L 607.246795 -1 
M 609.028426 -1 
L 609.032105 1.851246 
L 609.550121 122.00845 
L 610.068138 176.978446 
L 610.586155 203.641922 
L 611.104172 213.065108 
L 611.622188 208.361517 
L 612.140205 188.023924 
L 612.658222 144.39946 
L 613.176239 53.335386 
L 613.290641 -1 
M 615.131248 -1 
L 615.248306 54.223588 
L 615.766323 144.882833 
L 616.284339 188.309185 
L 616.802356 208.496809 
L 617.320373 213.041489 
L 617.83839 203.402115 
L 618.356407 176.379233 
L 618.874423 120.669459 
L 619.389847 -1 
M 621.16263 -1 
L 621.464507 94.429166 
L 621.982524 163.763249 
L 622.500541 197.575463 
L 623.018558 211.756707 
L 623.536574 211.258402 
L 624.054591 195.921168 
L 624.572608 160.315238 
L 625.090625 87.187225 
L 625.349327 -1 
M 627.14414 -1 
L 627.162692 12.167364 
L 627.680708 126.808591 
L 628.198725 179.612182 
L 628.716742 204.951811 
L 629.234759 213.224411 
L 629.752776 207.173809 
L 630.270792 184.821701 
L 630.788809 137.409691 
L 631.306826 36.747089 
L 631.373969 -1 
M 633.200542 -1 
L 633.378893 71.115841 
L 633.89691 153.098521 
L 634.414927 192.600379 
L 634.932943 210.216421 
L 635.45096 212.431735 
L 635.968977 199.96404 
L 636.486994 168.495302 
L 637.00501 103.700021 
L 637.367652 -1 
M 639.142066 -1 
L 639.595094 114.842079 
L 640.113111 173.939804 
L 640.631128 202.504989 
L 641.149145 212.953216 
L 641.667161 208.840376 
L 642.185178 188.822934 
L 642.703195 145.270368 
L 643.221212 53.825364 
L 643.335454 -1 
M 645.168875 -1 
L 645.293279 56.993835 
L 645.811296 146.776107 
L 646.329312 189.601306 
L 646.847329 209.156806 
L 647.365346 212.863539 
L 647.883363 201.933359 
L 648.40138 172.620874 
L 648.919396 112.006478 
L 649.346728 -1 
M 651.120169 -1 
L 651.50948 107.454602 
L 652.027497 170.477253 
L 652.545514 200.978149 
L 653.063531 212.687283 
L 653.581547 209.65605 
L 654.099564 190.89282 
L 654.617581 149.33953 
L 655.135598 62.471796 
L 655.278982 -1 
M 657.109338 -1 
L 657.207665 48.79812 
L 657.725682 143.2438 
L 658.243698 187.964285 
L 658.243698 187.964285 
" clip-path="url(#p6f39f9c9de)" style="fill: none; stroke: #1f77b4; stroke-width: 3; stroke-linecap: square"/>
   </g>
   <g id="line2d_35">
    <path d="M 293.449456 505 
L 293.559887 480.60521 
L 294.077904 418.711131 
L 294.595921 479.422936 
L 295.113938 464.409633 
L 295.261131 505 
M 295.951144 505 
L 296.149971 441.301932 
L 296.271299 505 
M 297.690479 505 
L 297.704021 500.51951 
L 297.734598 505 
M 298.618988 505 
L 298.740055 483.215447 
L 299.258072 449.700418 
L 299.514143 505 
M 300.698005 505 
L 300.812122 477.759048 
L 300.888846 505 
M 301.699745 505 
L 301.848156 442.085911 
L 302.366172 448.032727 
L 302.468119 505 
M 303.866851 505 
L 303.920223 494.347446 
L 304.43824 424.541019 
L 305.474273 385.859406 
L 305.99229 390.061377 
L 306.510307 360.235059 
L 306.805554 505 
M 308.35206 505 
L 308.582374 470.498098 
L 308.808158 505 
M 309.376718 505 
L 309.618407 465.941766 
L 310.136424 470.597215 
L 310.654441 497.014671 
L 310.689342 505 
M 312.634871 505 
L 312.726508 475.14943 
L 313.244525 457.144367 
L 313.762542 479.072802 
L 313.821489 505 
M 315.670726 505 
L 315.834609 476.341411 
L 316.352625 485.155939 
L 316.870642 453.811921 
L 317.388659 490.006251 
L 317.421642 505 
M 319.321832 505 
L 319.460726 459.031057 
L 319.978743 429.450964 
L 320.191081 505 
M 320.84427 505 
L 321.014776 451.637026 
L 321.532793 375.595688 
L 322.05081 327.965181 
L 322.568827 347.411688 
L 323.086844 294.023636 
L 323.60486 307.849371 
L 324.122877 314.936171 
L 324.640894 319.093836 
L 325.676927 358.168586 
L 326.194944 448.849854 
L 326.712961 331.083041 
L 327.230978 299.826697 
L 327.748995 291.531822 
L 328.267011 292.880144 
L 328.785028 305.19118 
L 329.303045 353.557512 
L 329.821062 372.502863 
L 330.339078 295.221118 
L 330.857095 274.104117 
L 331.375112 264.55928 
L 331.893129 259.127325 
L 332.411146 255.647263 
L 332.929162 253.263202 
L 333.447179 251.568172 
L 333.965196 250.344606 
L 334.483213 249.46685 
L 335.001229 248.858783 
L 335.519246 248.47333 
L 336.037263 248.281559 
L 336.55528 248.266236 
L 337.073297 248.430177 
L 337.591313 248.79354 
L 338.10933 249.388904 
L 338.627347 250.269133 
L 339.145364 251.520176 
L 339.66338 253.285815 
L 340.181397 255.820521 
L 340.699414 259.616874 
L 341.217431 265.76986 
L 341.735448 277.336666 
L 342.253464 307.660749 
L 342.771481 308.00117 
L 343.289498 255.71941 
L 343.807515 254.160103 
L 344.325531 256.083809 
L 344.843548 259.310032 
L 345.361565 265.01571 
L 345.879582 277.045729 
L 346.397599 321.885586 
L 346.915615 261.175194 
L 347.433632 255.115186 
L 347.951649 257.651567 
L 348.469666 262.112097 
L 348.987682 270.822834 
L 349.505699 294.479071 
L 350.023716 308.164611 
L 350.541733 246.804474 
L 351.05975 241.61937 
L 351.577766 240.985723 
L 352.6138 241.61698 
L 353.649833 242.669726 
L 354.685867 244.326592 
L 355.203884 245.505848 
L 355.721901 247.042536 
L 356.239917 249.107516 
L 356.757934 252.011812 
L 357.275951 256.391336 
L 357.793968 263.796332 
L 358.311984 279.847436 
L 358.830001 368.354755 
L 359.348018 255.4555 
L 359.866035 249.20582 
L 360.384052 249.978387 
L 360.902068 251.412095 
L 361.420085 253.503892 
L 361.938102 256.640498 
L 362.456119 261.66515 
L 362.974135 270.854003 
L 363.492152 293.627961 
L 363.898367 505 
M 364.124137 505 
L 364.528186 298.750735 
L 365.046203 267.34214 
L 365.564219 255.971397 
L 366.082236 249.837307 
L 366.600253 245.918229 
L 367.11827 243.163706 
L 368.154303 239.497663 
L 369.190337 237.133055 
L 370.22637 235.461085 
L 371.262404 234.206045 
L 372.298437 233.22314 
L 373.852488 232.084158 
L 375.406538 231.212295 
L 377.478605 230.31803 
L 380.068689 229.4777 
L 383.17679 228.724156 
L 387.320924 227.984149 
L 392.501092 227.314238 
L 399.23531 226.690411 
L 408.041595 226.115309 
L 419.955981 225.57795 
L 436.014501 225.08933 
L 458.807239 224.635782 
L 491.442296 224.228136 
L 539.617856 223.86788 
L 613.694256 223.555962 
L 658.243698 223.43623 
L 658.243698 223.43623 
" clip-path="url(#p6f39f9c9de)" style="fill: none; stroke-dasharray: 11.1,4.8; stroke-dashoffset: 0; stroke: #ff7f0e; stroke-width: 3"/>
   </g>
   <g id="line2d_36">
    <path d="M 140.744938 137.529105 
L 144.371055 137.534448 
L 144.889072 137.451893 
L 145.925106 137.62625 
L 146.443123 137.602859 
L 146.961139 137.709677 
L 147.479156 137.567215 
L 161.465609 137.88811 
L 162.501643 137.728902 
L 164.055693 137.695092 
L 164.57371 137.819125 
L 165.091727 137.696605 
L 165.609743 137.751889 
L 166.12776 137.636292 
L 166.645777 137.790049 
L 169.235861 137.692253 
L 169.753878 137.773936 
L 171.307928 137.699477 
L 172.861978 137.648047 
L 173.379995 137.683218 
L 173.898012 137.50937 
L 174.416029 137.73578 
L 175.970079 137.518645 
L 177.006112 137.709845 
L 178.560163 137.69556 
L 180.63223 137.717586 
L 182.18628 137.467896 
L 182.704297 137.487224 
L 183.740331 137.711117 
L 184.776364 137.444169 
L 185.812398 137.676249 
L 186.330414 137.476734 
L 186.848431 137.530067 
L 187.366448 137.724151 
L 187.884465 137.512748 
L 188.402482 137.516416 
L 188.920498 137.696436 
L 189.438515 137.447281 
L 190.474549 137.62903 
L 190.992565 137.417466 
L 191.510582 137.676603 
L 192.028599 137.481265 
L 193.064633 137.641471 
L 193.582649 137.456369 
L 194.100666 137.724356 
L 194.618683 137.46627 
L 195.1367 137.654446 
L 195.654716 137.524217 
L 196.172733 137.519656 
L 196.69075 137.654711 
L 197.208767 137.474698 
L 197.726783 137.700988 
L 198.2448 137.414991 
L 198.762817 137.698056 
L 199.280834 137.508149 
L 200.316867 137.62852 
L 200.834884 137.476177 
L 201.352901 137.697362 
L 201.870918 137.4406 
L 202.388934 137.693915 
L 202.906951 137.493503 
L 203.942985 137.609583 
L 204.461002 137.492454 
L 204.979018 137.690679 
L 205.497035 137.459501 
L 206.015052 137.657888 
L 207.051085 137.4414 
L 207.569102 137.725773 
L 208.087119 137.526837 
L 209.123153 137.704801 
L 209.641169 137.443813 
L 210.677203 137.678224 
L 211.19522 137.442942 
L 212.231253 137.715079 
L 213.267287 137.467545 
L 213.785304 137.64544 
L 214.30332 137.690156 
L 215.339354 137.443046 
L 216.893404 137.725481 
L 218.965471 137.382835 
L 220.519522 137.425135 
L 222.591589 137.369417 
L 224.145639 137.57558 
L 225.181673 137.620277 
L 226.217706 137.421151 
L 226.735723 137.311376 
L 227.771757 137.470863 
L 228.289773 137.540161 
L 229.325807 137.260834 
L 230.36184 137.457838 
L 230.879857 137.178254 
L 231.397874 137.301388 
L 231.915891 137.169881 
L 232.433908 137.191129 
L 232.951924 137.035257 
L 233.469941 137.152822 
L 234.505975 136.908168 
L 237.614075 137.135304 
L 238.132092 137.282125 
L 240.204159 137.074639 
L 241.75821 137.236302 
L 242.276226 137.029839 
L 242.794243 137.172101 
L 243.31226 137.04055 
L 243.830277 137.133279 
L 244.348293 136.957154 
L 244.86631 137.182065 
L 246.420361 137.088926 
L 247.974411 137.393317 
L 252.636562 137.570365 
L 255.226646 137.5232 
L 255.744663 137.728449 
L 256.262679 137.704012 
L 256.780696 137.540425 
L 257.298713 137.836291 
L 257.81673 137.649385 
L 258.334746 137.921957 
L 258.852763 137.753061 
L 260.92483 138.050459 
L 261.960864 138.349127 
L 262.478881 138.356836 
L 263.514914 138.051507 
L 266.623015 137.745545 
L 267.659048 137.519855 
L 270.249132 137.402841 
L 271.285166 137.262041 
L 271.803183 137.16654 
L 272.839216 137.242035 
L 273.357233 137.051602 
L 273.87525 137.066118 
L 274.393267 136.716726 
L 274.911283 136.56101 
L 275.947317 135.941759 
L 277.501367 136.067499 
L 279.055418 136.188294 
L 282.163518 137.33142 
L 284.235585 138.445974 
L 284.753602 138.477203 
L 286.307652 138.172432 
L 287.343686 138.65384 
L 287.861703 138.574952 
L 288.379719 138.160827 
L 288.897736 137.373672 
L 289.93377 135.303231 
L 290.451787 135.229115 
L 290.969803 136.461546 
L 291.48782 139.997612 
L 292.005837 145.830117 
L 292.523854 154.955378 
L 293.559887 193.021108 
L 294.077904 197.85641 
L 294.595921 197.014568 
L 295.113938 203.504251 
L 295.631954 202.333107 
L 296.149971 206.250747 
L 296.667988 206.845772 
L 297.186005 208.395385 
L 297.704021 209.398009 
L 298.222038 212.063961 
L 298.740055 213.188816 
L 299.258072 213.860482 
L 299.776089 214.212739 
L 300.812122 215.333887 
L 301.330139 215.316067 
L 301.848156 215.682215 
L 302.366172 216.228069 
L 302.884189 216.499798 
L 303.920223 216.814247 
L 305.474273 217.788117 
L 309.100391 218.772865 
L 313.244525 219.56817 
L 314.280558 219.753589 
L 315.834609 219.933806 
L 316.870642 220.02547 
L 320.49676 220.389635 
L 322.05081 220.511503 
L 324.640894 220.711353 
L 327.230978 220.789729 
L 329.303045 220.91413 
L 331.375112 221.030765 
L 366.600253 221.805701 
L 395.091176 222.090689 
L 441.194669 222.297327 
L 533.401655 222.450183 
L 658.243698 222.525633 
L 658.243698 222.525633 
" clip-path="url(#p6f39f9c9de)" style="fill: none; stroke-dasharray: 19.2,4.8,3,4.8; stroke-dashoffset: 0; stroke: #2ca02c; stroke-width: 3"/>
   </g>
   <g id="line2d_37">
    <path d="M 140.744938 195.570562 
L 141.780972 195.551787 
L 143.335022 195.417992 
L 144.371055 195.604102 
L 144.889072 195.530122 
L 145.407089 195.604611 
L 145.925106 195.844281 
L 146.443123 195.599426 
L 146.961139 195.683562 
L 147.479156 195.405773 
L 147.997173 195.630305 
L 149.033206 195.653904 
L 149.551223 195.793604 
L 152.659324 195.635327 
L 153.177341 195.789581 
L 154.213374 195.781526 
L 154.731391 195.721366 
L 155.249408 195.872789 
L 157.321475 195.882305 
L 157.839492 195.755224 
L 158.357508 195.884433 
L 158.875525 195.668205 
L 159.393542 195.883719 
L 159.911559 195.88267 
L 160.429576 195.744097 
L 161.465609 195.83045 
L 161.983626 195.621537 
L 162.501643 195.784734 
L 164.055693 195.560788 
L 164.57371 195.749056 
L 165.091727 195.797288 
L 165.609743 195.622326 
L 166.645777 195.816274 
L 167.68181 195.496993 
L 168.717844 195.525997 
L 169.235861 195.502111 
L 170.271894 195.840337 
L 170.789911 195.641844 
L 171.307928 195.573892 
L 171.825945 195.813493 
L 172.343961 195.512352 
L 172.861978 195.821623 
L 173.379995 195.534492 
L 174.416029 195.821653 
L 174.934045 195.518461 
L 175.452062 195.497198 
L 176.488096 195.854102 
L 179.07818 195.567773 
L 180.63223 195.759001 
L 181.668263 195.82273 
L 182.704297 195.38058 
L 183.222314 195.506879 
L 183.740331 195.805981 
L 184.258347 195.803748 
L 184.776364 195.460716 
L 185.294381 195.428175 
L 185.812398 195.803659 
L 186.330414 195.744925 
L 186.848431 195.437009 
L 187.366448 195.718605 
L 187.884465 195.727004 
L 188.402482 195.361523 
L 188.920498 195.702427 
L 189.438515 195.627863 
L 189.956532 195.391672 
L 190.474549 195.797493 
L 190.992565 195.449115 
L 192.028599 195.705314 
L 192.546616 195.366917 
L 193.064633 195.791194 
L 193.582649 195.417185 
L 194.100666 195.699796 
L 195.1367 195.551553 
L 195.654716 195.819452 
L 196.172733 195.365735 
L 196.69075 195.795723 
L 197.208767 195.458624 
L 197.726783 195.777454 
L 198.2448 195.553784 
L 198.762817 195.547027 
L 199.280834 195.799356 
L 199.798851 195.401752 
L 200.316867 195.836266 
L 200.834884 195.435619 
L 201.352901 195.749972 
L 201.870918 195.575055 
L 202.388934 195.570423 
L 202.906951 195.779616 
L 203.424968 195.38891 
L 203.942985 195.879731 
L 204.461002 195.420842 
L 204.979018 195.698265 
L 205.497035 195.698775 
L 206.015052 195.461854 
L 206.533069 195.802913 
L 207.051085 195.446293 
L 207.569102 195.726818 
L 208.087119 195.770623 
L 208.605136 195.370377 
L 209.123153 195.743775 
L 209.641169 195.61351 
L 210.159186 195.368376 
L 210.677203 195.766977 
L 211.19522 195.641845 
L 211.713236 195.342998 
L 212.231253 195.669217 
L 212.74927 195.789067 
L 213.267287 195.474318 
L 213.785304 195.501849 
L 214.30332 195.806341 
L 214.821337 195.778524 
L 215.339354 195.512524 
L 215.857371 195.417386 
L 216.375387 195.505185 
L 217.411421 195.904361 
L 219.483488 195.462657 
L 220.519522 195.386792 
L 222.073572 195.462055 
L 224.145639 195.835794 
L 224.663656 195.791958 
L 225.699689 195.377343 
L 226.217706 195.338128 
L 227.771757 195.7803 
L 229.325807 195.381089 
L 229.843824 195.692158 
L 230.36184 195.443207 
L 230.879857 195.340059 
L 231.397874 195.632827 
L 231.915891 195.198594 
L 232.433908 195.604885 
L 232.951924 195.194575 
L 233.987958 195.505354 
L 235.023991 195.220305 
L 236.060025 195.247035 
L 237.096059 195.359798 
L 237.614075 195.607487 
L 238.132092 195.476385 
L 238.650109 195.591554 
L 239.686142 195.463403 
L 240.722176 195.572919 
L 241.240193 195.660557 
L 242.276226 195.349365 
L 242.794243 195.648602 
L 243.31226 195.270069 
L 243.830277 195.645699 
L 244.348293 195.326373 
L 244.86631 195.440297 
L 245.384327 195.71347 
L 246.420361 195.352686 
L 247.456394 195.517884 
L 249.010444 195.778123 
L 251.082512 195.885758 
L 254.190612 195.917536 
L 255.226646 195.580562 
L 256.262679 196.108216 
L 256.780696 195.77248 
L 258.334746 196.00242 
L 258.852763 195.802796 
L 259.37078 196.151263 
L 260.406814 196.352048 
L 261.442847 196.148456 
L 261.960864 196.63035 
L 262.478881 196.419473 
L 264.032931 196.384378 
L 264.550948 196.576337 
L 265.068965 196.492279 
L 265.586981 196.593241 
L 266.104998 196.4526 
L 266.623015 196.498221 
L 267.141032 196.256456 
L 267.659048 196.408309 
L 269.213099 196.146657 
L 271.285166 196.366123 
L 271.803183 196.193276 
L 272.321199 196.165407 
L 272.839216 196.327558 
L 273.357233 196.013199 
L 273.87525 196.231332 
L 274.911283 196.057709 
L 275.4293 196.100153 
L 275.947317 195.885996 
L 276.465334 196.19912 
L 278.019384 196.444957 
L 279.055418 196.525201 
L 279.573434 196.702098 
L 280.091451 196.68596 
L 281.127485 197.092145 
L 281.645501 197.131664 
L 282.163518 197.036408 
L 282.681535 197.662968 
L 283.199552 197.545458 
L 283.717568 197.792039 
L 285.271619 198.916258 
L 285.789636 199.007428 
L 286.307652 198.976159 
L 287.861703 200.266171 
L 288.379719 200.329926 
L 289.415753 200.255598 
L 289.93377 200.701692 
L 290.451787 201.710765 
L 290.969803 203.357373 
L 292.005837 208.263186 
L 292.523854 211.369514 
L 293.559887 221.961983 
L 294.077904 221.628818 
L 294.595921 192.363974 
L 295.113938 222.576844 
L 295.631954 151.564979 
L 296.149971 222.388742 
L 296.667988 160.884542 
L 297.186005 205.772477 
L 297.704021 218.996995 
L 298.222038 156.422254 
L 298.740055 218.107869 
L 299.258072 208.714273 
L 299.776089 157.967073 
L 300.294105 153.149473 
L 300.812122 222.302406 
L 301.330139 145.140108 
L 301.848156 222.159724 
L 302.366172 222.46661 
L 302.884189 159.058314 
L 303.402206 199.991829 
L 303.920223 203.596544 
L 304.43824 222.488569 
L 304.956256 222.101147 
L 305.474273 220.082355 
L 305.99229 209.271989 
L 306.510307 222.538999 
L 307.028323 219.830408 
L 307.54634 216.486537 
L 308.064357 218.973275 
L 308.582374 217.481775 
L 309.100391 218.518406 
L 309.618407 204.215448 
L 310.136424 221.668508 
L 310.654441 190.265064 
L 311.172458 221.058921 
L 311.690474 204.74013 
L 312.208491 220.067461 
L 312.726508 221.644753 
L 313.244525 210.468649 
L 313.762542 221.293463 
L 314.280558 205.684249 
L 314.798575 202.961875 
L 315.316592 219.794491 
L 315.834609 221.914516 
L 316.352625 195.780697 
L 317.388659 222.12373 
L 317.906676 185.426854 
L 318.424693 212.779436 
L 318.942709 180.395411 
L 319.460726 219.72145 
L 319.978743 221.915391 
L 320.49676 218.48825 
L 321.014776 220.941071 
L 321.532793 222.617712 
L 322.05081 220.565099 
L 322.568827 222.656247 
L 323.086844 222.647517 
L 323.60486 217.698012 
L 324.122877 222.655779 
L 325.676927 222.65625 
L 326.194944 219.07616 
L 326.712961 222.65625 
L 342.253464 222.65625 
L 342.771481 199.509849 
L 343.289498 221.416461 
L 343.807515 222.651392 
L 346.397599 222.65625 
L 346.915615 218.538357 
L 347.433632 222.653409 
L 349.505699 222.65625 
L 350.023716 188.724902 
L 350.541733 219.600549 
L 351.05975 222.220564 
L 351.577766 222.642683 
L 356.239917 222.65625 
L 358.830001 222.65625 
L 359.348018 219.252995 
L 359.866035 222.564545 
L 360.902068 222.65625 
L 658.243698 222.65625 
L 658.243698 222.65625 
" clip-path="url(#p6f39f9c9de)" style="fill: none; stroke-dasharray: 3,4.95; stroke-dashoffset: 0; stroke: #d62728; stroke-width: 3"/>
   </g>
   <g id="line2d_38">
    <path d="M 140.744938 222.65625 
L 658.243698 222.65625 
L 658.243698 222.65625 
" clip-path="url(#p6f39f9c9de)" style="fill: none; stroke-dasharray: 9,3,3,3; stroke-dashoffset: 0; stroke: #9467bd; stroke-width: 3"/>
   </g>
   <g id="line2d_39">
    <path d="M 286.154078 505 
L 286.825669 504.440156 
L 287.861703 503.264436 
L 288.897736 501.480728 
L 289.415753 500.225884 
L 289.93377 498.586851 
L 290.451787 496.351412 
L 290.969803 493.134881 
L 291.48782 488.161079 
L 292.005837 479.617384 
L 292.523854 462.034871 
L 293.04187 405.72122 
L 293.559887 255.864981 
L 294.077904 447.595502 
L 294.595921 477.885858 
L 295.113938 490.993845 
L 295.631954 497.862308 
L 296.149971 502.379162 
L 296.574306 505 
M 303.259162 505 
L 303.402206 504.362756 
L 303.920223 501.240771 
L 304.43824 496.143472 
L 304.956256 487.690511 
L 305.474273 471.888557 
L 305.99229 429.810572 
L 306.220069 -1 
M 306.799111 -1 
L 307.028323 434.674071 
L 307.54634 472.790098 
L 308.064357 487.041694 
L 308.582374 494.957095 
L 309.100391 500.101492 
L 309.926121 505 
M 317.906806 505 
L 318.424693 502.250448 
L 318.942709 498.52436 
L 319.460726 492.656841 
L 319.978743 482.16871 
L 320.49676 460.907982 
L 321.014776 386.743612 
L 321.532793 337.631846 
L 322.05081 460.165945 
L 322.568827 486.805579 
L 323.086844 498.817719 
L 323.57344 505 
M 326.919511 505 
L 327.230978 501.834316 
L 327.748995 492.415074 
L 328.267011 473.290891 
L 328.785028 415.220589 
L 329.303045 253.461798 
L 329.821062 455.936905 
L 330.339078 486.649952 
L 330.857095 499.67391 
L 331.260269 505 
M 334.169178 505 
L 334.483213 501.280952 
L 335.001229 489.764982 
L 335.519246 464.084865 
L 336.037263 352.840375 
L 336.55528 389.394032 
L 337.073297 470.178461 
L 337.591313 492.57015 
L 338.292953 505 
M 341.289369 505 
L 341.735448 498.343277 
L 342.253464 483.175873 
L 342.771481 443.030276 
L 343.012218 -1 
M 343.568115 -1 
L 343.807515 438.445632 
L 344.325531 481.688317 
L 344.843548 497.820224 
L 345.299023 505 
M 348.546279 505 
L 348.987682 498.213055 
L 349.505699 482.659447 
L 350.023716 442.975552 
L 350.137522 -1 
M 350.946251 -1 
L 351.05975 441.440912 
L 351.577766 483.362761 
L 352.095783 499.135666 
L 352.478256 505 
M 355.546024 505 
L 355.721901 502.891936 
L 356.239917 491.106997 
L 356.757934 464.404018 
L 357.275951 340.484494 
L 357.793968 399.303463 
L 358.311984 473.530739 
L 358.830001 494.819701 
L 359.376273 505 
M 362.588506 505 
L 362.974135 498.942419 
L 363.492152 482.819195 
L 364.010169 440.270694 
L 364.210539 -1 
M 364.843888 -1 
L 365.046203 447.296717 
L 365.564219 486.983569 
L 366.284915 505 
M 369.23528 505 
L 369.708353 495.023683 
L 370.22637 470.504839 
L 370.744387 369.181319 
L 371.262404 386.3994 
L 371.780421 473.387695 
L 372.298437 496.332915 
L 372.730028 505 
M 375.695977 505 
L 375.924555 501.533232 
L 376.442572 485.501708 
L 376.960588 441.631299 
L 377.271857 -1 
M 377.683098 -1 
L 377.996622 449.75574 
L 378.514639 488.316781 
L 379.164848 505 
M 382.199781 505 
L 382.658773 494.912787 
L 383.17679 468.90339 
L 383.694806 351.374836 
L 384.212823 399.291256 
L 384.73084 476.3431 
L 385.248857 498.022474 
L 385.611754 505 
M 388.639999 505 
L 388.874974 501.18605 
L 389.392991 483.738051 
L 389.911008 432.934567 
L 390.429025 162.523517 
L 390.947041 457.348337 
L 391.465058 491.339684 
L 391.983721 505 
M 395.127029 505 
L 395.609192 493.189273 
L 396.127209 462.738605 
L 396.645226 274.652654 
L 397.163243 422.894199 
L 397.681259 481.94023 
L 398.199276 500.880794 
L 398.437307 505 
M 401.53306 505 
L 401.825394 499.579819 
L 402.34341 478.880156 
L 403.379444 333.696673 
L 403.897461 468.562036 
L 404.415478 495.908735 
L 404.815582 505 
M 408.002605 505 
L 408.041595 504.432179 
L 408.559612 489.080865 
L 409.077629 448.110093 
L 409.102041 -1 
M 410.089247 -1 
L 410.113662 448.174527 
L 410.631679 489.300497 
L 411.171397 505 
M 414.382495 505 
L 414.775813 495.986021 
L 415.29383 468.289001 
L 415.811847 328.418047 
L 416.84788 480.502878 
L 417.365897 500.955065 
L 417.586465 505 
M 420.777313 505 
L 420.992014 501.090387 
L 421.510031 480.824807 
L 422.028048 413.476225 
L 422.546065 324.627863 
L 423.064082 468.878739 
L 423.582098 496.85845 
L 423.935245 505 
M 427.215775 505 
L 427.726233 489.290237 
L 428.244249 445.604814 
L 428.547089 -1 
M 428.97524 -1 
L 429.280283 453.507309 
L 429.7983 492.12442 
L 430.249806 505 
M 433.555762 505 
L 433.942434 495.180841 
L 434.460451 462.905152 
L 434.978467 227.712931 
L 435.496484 432.205021 
L 436.014501 486.437791 
L 436.563625 505 
M 439.899524 505 
L 440.158635 499.448899 
L 440.676652 474.176595 
L 441.194669 364.341008 
L 441.712686 398.99161 
L 442.230702 480.08436 
L 442.891302 505 
M 446.267062 505 
L 446.374837 502.985746 
L 446.892853 481.924087 
L 447.928887 346.28431 
L 448.446904 472.936184 
L 448.96492 499.621436 
L 449.206692 505 
M 452.605734 505 
L 453.109055 487.465647 
L 453.627071 433.159203 
L 454.145088 230.889609 
L 454.663105 464.92261 
L 455.181122 497.133352 
L 455.491935 505 
M 458.895671 505 
L 459.325256 491.726335 
L 459.843273 447.589921 
L 460.18824 -1 
M 460.532122 -1 
L 460.879306 456.332756 
L 461.397323 494.526957 
L 461.767878 505 
M 465.179046 505 
L 465.541457 494.895066 
L 466.059474 457.509913 
L 466.49034 -1 
M 466.666333 -1 
L 467.095508 447.01938 
L 467.613524 492.198468 
L 468.022399 505 
M 471.466009 505 
L 471.757659 497.463554 
L 472.275675 464.186 
L 472.793692 194.561702 
L 473.311709 438.058132 
L 473.829726 490.016346 
L 474.27117 505 
M 477.7388 505 
L 477.97386 499.296566 
L 478.491877 468.981724 
L 479.009893 282.067504 
L 479.52791 429.270723 
L 480.045927 488.380223 
L 480.502257 505 
M 484.010958 505 
L 484.190061 500.814684 
L 484.708078 472.079951 
L 485.226095 314.878747 
L 485.744112 423.043606 
L 486.262128 487.204482 
L 486.73015 505 
M 490.260735 505 
L 490.406263 501.687392 
L 490.924279 473.998041 
L 491.442296 333.119047 
L 492.47833 486.695929 
L 492.945118 505 
M 496.505394 505 
L 496.622464 502.348817 
L 497.140481 474.83414 
L 497.658497 336.368584 
L 498.694531 486.794991 
L 499.156479 505 
M 502.728173 505 
L 502.838665 502.483006 
L 503.356682 474.724743 
L 503.874699 332.665748 
L 504.392716 419.806264 
L 504.910732 487.649164 
L 505.354618 505 
M 508.944065 505 
L 509.054867 502.405525 
L 509.572883 473.506005 
L 510.0909 313.10249 
L 510.608917 425.631929 
L 511.126934 489.10161 
L 511.547917 505 
M 515.137522 505 
L 515.271068 501.749158 
L 515.789085 471.161099 
L 516.307101 277.508303 
L 516.825118 432.984309 
L 517.343135 491.181987 
L 517.726425 505 
M 521.324357 505 
L 521.487269 500.788151 
L 522.005286 467.306317 
L 522.523303 188.160593 
L 523.04132 442.235495 
L 523.559336 493.643519 
L 523.896839 505 
M 527.493327 505 
L 527.703471 499.157893 
L 528.221487 461.705339 
L 528.643234 -1 
M 528.837564 -1 
L 529.257521 451.330238 
L 529.775538 496.285407 
L 530.055648 505 
M 533.657171 505 
L 533.919672 497.04471 
L 534.437689 454.005179 
L 534.697776 -1 
M 535.211844 -1 
L 535.473722 460.341222 
L 535.991739 499.315205 
L 536.19129 505 
M 539.817879 505 
L 540.135873 494.212289 
L 540.65389 441.997255 
L 541.171907 205.309178 
L 541.689923 469.306392 
L 542.310969 505 
M 545.968853 505 
L 546.352074 490.189726 
L 546.870091 423.648937 
L 547.388108 330.551914 
L 547.906125 477.31922 
L 548.41771 505 
M 552.122137 505 
L 552.568276 484.925478 
L 553.086293 393.353203 
L 553.604309 389.00275 
L 554.122326 484.531434 
L 554.568966 505 
M 558.279798 505 
L 558.784477 477.783801 
L 559.302494 332.376612 
L 559.820511 424.095468 
L 560.338527 490.976803 
L 560.700654 505 
M 564.38551 505 
L 564.482662 502.436279 
L 565.000678 467.776052 
L 565.518695 133.980579 
L 566.036712 447.577131 
L 566.554729 496.714717 
L 566.807885 505 
M 570.479801 505 
L 570.698863 498.173428 
L 571.21688 452.963887 
L 571.661471 -1 
M 571.806743 -1 
L 572.252913 464.590674 
L 572.886856 505 
M 576.582658 505 
L 576.915064 492.481533 
L 577.433081 429.061818 
L 577.951098 317.071048 
L 578.469115 477.452836 
L 578.963836 505 
M 582.698542 505 
L 583.131266 484.700276 
L 583.649282 383.644327 
L 584.167299 400.723865 
L 584.685316 487.577312 
L 585.082223 505 
M 588.831143 505 
L 589.347467 473.482894 
L 589.865484 253.129801 
L 590.383501 440.751014 
L 590.901517 496.072127 
L 591.156895 505 
M 594.877423 505 
L 595.045652 499.797016 
L 595.563668 455.060407 
L 595.973612 -1 
M 596.187826 -1 
L 596.599702 465.554362 
L 597.186969 505 
M 600.934188 505 
L 601.261853 491.944226 
L 602.297886 350.113437 
L 602.815903 481.874873 
L 603.260483 505 
M 607.020928 505 
L 607.478054 480.396776 
L 607.996071 335.280612 
L 608.514088 426.824797 
L 609.032105 493.73751 
L 609.323432 505 
M 613.084681 505 
L 613.176239 502.31744 
L 613.694256 461.31211 
L 613.731312 -1 
M 614.693181 -1 
L 614.730289 461.998051 
L 615.326198 505 
M 619.09814 505 
L 619.39244 493.421373 
L 620.428474 345.820883 
L 620.94649 482.615943 
L 621.371345 505 
M 625.155764 505 
L 625.608641 479.270117 
L 626.126658 307.588589 
L 626.644675 435.490656 
L 627.162692 496.768527 
L 627.385861 505 
M 631.179137 505 
L 631.306826 500.864505 
L 631.824843 452.32734 
L 632.342859 121.01144 
L 632.860876 472.257842 
L 633.346729 505 
M 637.162905 505 
L 637.523027 487.671011 
L 638.041044 379.612127 
L 638.559061 410.698243 
L 639.077078 492.605973 
L 639.367897 505 
M 643.204645 505 
L 643.221212 504.512582 
L 643.739229 463.079308 
L 643.846038 -1 
M 644.668095 -1 
L 644.775262 465.037138 
L 645.289615 505 
M 649.133872 505 
L 649.437413 491.621595 
L 649.95543 403.471467 
L 650.473447 390.598077 
L 650.991463 489.885346 
L 651.317 505 
M 655.155104 505 
L 655.653614 468.220683 
L 655.989806 -1 
M 656.355372 -1 
L 656.689648 460.682392 
L 657.227155 505 
L 657.227155 505 
" clip-path="url(#p6f39f9c9de)" style="fill: none; stroke: #808080; stroke-width: 3; stroke-linecap: square"/>
   </g>
   <g id="patch_3">
    <path d="M 114.87 417.2325 
L 114.87 28.08 
" style="fill: none; stroke: #000000; stroke-width: 2; stroke-linejoin: miter; stroke-linecap: square"/>
   </g>
   <g id="patch_4">
    <path d="M 684.118636 417.2325 
L 684.118636 28.08 
" style="fill: none; stroke: #000000; stroke-width: 2; stroke-linejoin: miter; stroke-linecap: square"/>
   </g>
   <g id="patch_5">
    <path d="M 114.87 417.2325 
L 684.118636 417.2325 
" style="fill: none; stroke: #000000; stroke-width: 2; stroke-linejoin: miter; stroke-linecap: square"/>
   </g>
   <g id="patch_6">
    <path d="M 114.87 28.08 
L 684.118636 28.08 
" style="fill: none; stroke: #000000; stroke-width: 2; stroke-linejoin: miter; stroke-linecap: square"/>
   </g>
   <g id="legend_1">
    <g id="patch_7">
     <path d="M 126.07 409.2325 
L 271.3975 409.2325 
Q 274.5975 409.2325 274.5975 406.0325 
L 274.5975 266.495 
Q 274.5975 263.295 271.3975 263.295 
L 126.07 263.295 
Q 122.87 263.295 122.87 266.495 
L 122.87 406.0325 
Q 122.87 409.2325 126.07 409.2325 
z
" style="fill: #ffffff; opacity: 0.8; stroke: #cccccc; stroke-linejoin: miter"/>
    </g>
    <g id="line2d_40">
     <path d="M 129.27 276.2525 
L 145.27 276.2525 
L 161.27 276.2525 
" style="fill: none; stroke: #1f77b4; stroke-width: 3; stroke-linecap: square"/>
    </g>
    <g id="text_14">
     <!-- Kinetic -->
     <g transform="translate(174.07 281.8525) scale(0.16 -0.16)">
      <defs>
       <path id="DejaVuSerif-4b" d="M 353 0 
L 353 331 
L 947 331 
L 947 4331 
L 353 4331 
L 353 4666 
L 2175 4666 
L 2175 4331 
L 1581 4331 
L 1581 2566 
L 3591 4331 
L 3084 4331 
L 3084 4666 
L 4634 4666 
L 4634 4331 
L 4109 4331 
L 2106 2572 
L 4347 331 
L 4878 331 
L 4878 0 
L 3794 0 
L 1581 2216 
L 1581 331 
L 2175 331 
L 2175 0 
L 353 0 
z
" transform="scale(0.015625)"/>
       <path id="DejaVuSerif-69" d="M 622 4353 
Q 622 4497 726 4603 
Q 831 4709 978 4709 
Q 1122 4709 1226 4603 
Q 1331 4497 1331 4353 
Q 1331 4206 1228 4103 
Q 1125 4000 978 4000 
Q 831 4000 726 4103 
Q 622 4206 622 4353 
z
M 1356 331 
L 1900 331 
L 1900 0 
L 231 0 
L 231 331 
L 781 331 
L 781 2988 
L 231 2988 
L 231 3322 
L 1356 3322 
L 1356 331 
z
" transform="scale(0.015625)"/>
       <path id="DejaVuSerif-6e" d="M 263 0 
L 263 331 
L 781 331 
L 781 2988 
L 231 2988 
L 231 3322 
L 1356 3322 
L 1356 2731 
Q 1516 3069 1770 3241 
Q 2025 3413 2363 3413 
Q 2913 3413 3172 3097 
Q 3431 2781 3431 2113 
L 3431 331 
L 3944 331 
L 3944 0 
L 2356 0 
L 2356 331 
L 2853 331 
L 2853 1931 
Q 2853 2541 2703 2767 
Q 2553 2994 2175 2994 
Q 1775 2994 1565 2701 
Q 1356 2409 1356 1850 
L 1356 331 
L 1856 331 
L 1856 0 
L 263 0 
z
" transform="scale(0.015625)"/>
       <path id="DejaVuSerif-65" d="M 3469 1600 
L 991 1600 
L 991 1575 
Q 991 903 1244 561 
Q 1497 219 1991 219 
Q 2369 219 2611 417 
Q 2853 616 2950 1006 
L 3413 1006 
Q 3275 459 2904 184 
Q 2534 -91 1931 -91 
Q 1203 -91 761 389 
Q 319 869 319 1663 
Q 319 2450 753 2931 
Q 1188 3413 1894 3413 
Q 2647 3413 3050 2948 
Q 3453 2484 3469 1600 
z
M 2791 1931 
Q 2772 2513 2545 2808 
Q 2319 3103 1894 3103 
Q 1497 3103 1269 2806 
Q 1041 2509 991 1931 
L 2791 1931 
z
" transform="scale(0.015625)"/>
       <path id="DejaVuSerif-74" d="M 691 2988 
L 184 2988 
L 184 3322 
L 691 3322 
L 691 4353 
L 1269 4353 
L 1269 3322 
L 2350 3322 
L 2350 2988 
L 1269 2988 
L 1269 878 
Q 1269 456 1350 337 
Q 1431 219 1650 219 
Q 1875 219 1978 351 
Q 2081 484 2088 781 
L 2522 781 
Q 2497 328 2275 118 
Q 2053 -91 1600 -91 
Q 1103 -91 897 129 
Q 691 350 691 878 
L 691 2988 
z
" transform="scale(0.015625)"/>
       <path id="DejaVuSerif-63" d="M 3291 997 
Q 3169 466 2822 187 
Q 2475 -91 1925 -91 
Q 1200 -91 759 389 
Q 319 869 319 1663 
Q 319 2459 759 2936 
Q 1200 3413 1925 3413 
Q 2241 3413 2553 3339 
Q 2866 3266 3181 3116 
L 3181 2266 
L 2847 2266 
Q 2781 2703 2561 2903 
Q 2341 3103 1931 3103 
Q 1466 3103 1228 2742 
Q 991 2381 991 1663 
Q 991 944 1227 581 
Q 1463 219 1931 219 
Q 2303 219 2525 412 
Q 2747 606 2828 997 
L 3291 997 
z
" transform="scale(0.015625)"/>
      </defs>
      <use xlink:href="#DejaVuSerif-4b"/>
      <use xlink:href="#DejaVuSerif-69" x="74.707031"/>
      <use xlink:href="#DejaVuSerif-6e" x="106.689453"/>
      <use xlink:href="#DejaVuSerif-65" x="171.09375"/>
      <use xlink:href="#DejaVuSerif-74" x="230.273438"/>
      <use xlink:href="#DejaVuSerif-69" x="270.458984"/>
      <use xlink:href="#DejaVuSerif-63" x="302.441406"/>
     </g>
    </g>
    <g id="line2d_41">
     <path d="M 129.27 299.7375 
L 145.27 299.7375 
L 161.27 299.7375 
" style="fill: none; stroke-dasharray: 11.1,4.8; stroke-dashoffset: 0; stroke: #ff7f0e; stroke-width: 3"/>
    </g>
    <g id="text_15">
     <!-- $e^-$-nucleus -->
     <g transform="translate(174.07 305.3375) scale(0.16 -0.16)">
      <defs>
       <path id="Cmmi10-65" d="M 1288 -72 
Q 981 -72 751 87 
Q 522 247 401 517 
Q 281 788 281 1088 
Q 281 1544 511 1945 
Q 741 2347 1134 2587 
Q 1528 2828 1978 2828 
Q 2253 2828 2458 2686 
Q 2663 2544 2663 2278 
Q 2663 1909 2369 1729 
Q 2075 1550 1706 1508 
Q 1338 1466 891 1466 
L 872 1466 
Q 769 1084 769 813 
Q 769 528 900 312 
Q 1031 97 1300 97 
Q 1681 97 2032 272 
Q 2384 447 2606 756 
Q 2625 775 2656 775 
Q 2688 775 2720 739 
Q 2753 703 2753 672 
Q 2753 647 2741 634 
Q 2506 306 2109 117 
Q 1713 -72 1288 -72 
z
M 909 1631 
Q 1281 1631 1597 1665 
Q 1913 1700 2169 1839 
Q 2425 1978 2425 2272 
Q 2425 2391 2359 2480 
Q 2294 2569 2189 2616 
Q 2084 2663 1972 2663 
Q 1700 2663 1483 2516 
Q 1266 2369 1125 2133 
Q 984 1897 909 1631 
z
" transform="scale(0.015625)"/>
       <path id="Cmsy10-a1" d="M 653 1472 
Q 600 1472 565 1512 
Q 531 1553 531 1600 
Q 531 1647 565 1687 
Q 600 1728 653 1728 
L 4325 1728 
Q 4375 1728 4408 1687 
Q 4441 1647 4441 1600 
Q 4441 1553 4408 1512 
Q 4375 1472 4325 1472 
L 653 1472 
z
" transform="scale(0.015625)"/>
       <path id="DejaVuSerif-2d" d="M 281 1959 
L 1881 1959 
L 1881 1472 
L 281 1472 
L 281 1959 
z
" transform="scale(0.015625)"/>
       <path id="DejaVuSerif-6c" d="M 1313 331 
L 1856 331 
L 1856 0 
L 184 0 
L 184 331 
L 738 331 
L 738 4531 
L 184 4531 
L 184 4863 
L 1313 4863 
L 1313 331 
z
" transform="scale(0.015625)"/>
       <path id="DejaVuSerif-73" d="M 359 184 
L 359 959 
L 691 959 
Q 703 588 923 403 
Q 1144 219 1575 219 
Q 1963 219 2166 364 
Q 2369 509 2369 788 
Q 2369 1006 2220 1140 
Q 2072 1275 1594 1428 
L 1178 1569 
Q 750 1706 558 1912 
Q 366 2119 366 2438 
Q 366 2894 700 3153 
Q 1034 3413 1625 3413 
Q 1888 3413 2178 3344 
Q 2469 3275 2778 3144 
L 2778 2419 
L 2447 2419 
Q 2434 2741 2221 2922 
Q 2009 3103 1644 3103 
Q 1281 3103 1095 2975 
Q 909 2847 909 2591 
Q 909 2381 1050 2254 
Q 1191 2128 1613 1997 
L 2069 1856 
Q 2541 1709 2748 1489 
Q 2956 1269 2956 922 
Q 2956 450 2595 179 
Q 2234 -91 1600 -91 
Q 1278 -91 972 -22 
Q 666 47 359 184 
z
" transform="scale(0.015625)"/>
      </defs>
      <use xlink:href="#Cmmi10-65" transform="translate(0 0.015625)"/>
      <use xlink:href="#Cmsy10-a1" transform="translate(65.078672 38.279688) scale(0.7)"/>
      <use xlink:href="#DejaVuSerif-2d" transform="translate(138.126914 0.015625)"/>
      <use xlink:href="#DejaVuSerif-6e" transform="translate(171.915977 0.015625)"/>
      <use xlink:href="#DejaVuSerif-75" transform="translate(236.320273 0.015625)"/>
      <use xlink:href="#DejaVuSerif-63" transform="translate(300.72457 0.015625)"/>
      <use xlink:href="#DejaVuSerif-6c" transform="translate(356.73043 0.015625)"/>
      <use xlink:href="#DejaVuSerif-65" transform="translate(388.712852 0.015625)"/>
      <use xlink:href="#DejaVuSerif-75" transform="translate(447.892539 0.015625)"/>
      <use xlink:href="#DejaVuSerif-73" transform="translate(512.296836 0.015625)"/>
     </g>
    </g>
    <g id="line2d_42">
     <path d="M 129.27 323.2225 
L 145.27 323.2225 
L 161.27 323.2225 
" style="fill: none; stroke-dasharray: 19.2,4.8,3,4.8; stroke-dashoffset: 0; stroke: #2ca02c; stroke-width: 3"/>
    </g>
    <g id="text_16">
     <!-- $e^-$-$e^-$ -->
     <g transform="translate(174.07 328.8225) scale(0.16 -0.16)">
      <use xlink:href="#Cmmi10-65" transform="translate(0 0.835938)"/>
      <use xlink:href="#Cmsy10-a1" transform="translate(65.078672 39.1) scale(0.7)"/>
      <use xlink:href="#DejaVuSerif-2d" transform="translate(138.126914 0.835938)"/>
      <use xlink:href="#Cmmi10-65" transform="translate(171.915977 0.835938)"/>
      <use xlink:href="#Cmsy10-a1" transform="translate(236.994648 39.1) scale(0.7)"/>
     </g>
    </g>
    <g id="line2d_43">
     <path d="M 129.27 346.7075 
L 145.27 346.7075 
L 161.27 346.7075 
" style="fill: none; stroke-dasharray: 3,4.95; stroke-dashoffset: 0; stroke: #d62728; stroke-width: 3"/>
    </g>
    <g id="text_17">
     <!-- Heisenberg -->
     <g transform="translate(174.07 352.3075) scale(0.16 -0.16)">
      <defs>
       <path id="DejaVuSerif-48" d="M 353 0 
L 353 331 
L 947 331 
L 947 4331 
L 353 4331 
L 353 4666 
L 2175 4666 
L 2175 4331 
L 1581 4331 
L 1581 2719 
L 4000 2719 
L 4000 4331 
L 3406 4331 
L 3406 4666 
L 5228 4666 
L 5228 4331 
L 4634 4331 
L 4634 331 
L 5228 331 
L 5228 0 
L 3406 0 
L 3406 331 
L 4000 331 
L 4000 2338 
L 1581 2338 
L 1581 331 
L 2175 331 
L 2175 0 
L 353 0 
z
" transform="scale(0.015625)"/>
       <path id="DejaVuSerif-62" d="M 738 331 
L 738 4531 
L 184 4531 
L 184 4863 
L 1313 4863 
L 1313 2803 
Q 1481 3116 1742 3264 
Q 2003 3413 2388 3413 
Q 3000 3413 3387 2928 
Q 3775 2444 3775 1663 
Q 3775 881 3387 395 
Q 3000 -91 2388 -91 
Q 2003 -91 1742 57 
Q 1481 206 1313 519 
L 1313 0 
L 184 0 
L 184 331 
L 738 331 
z
M 1313 1497 
Q 1313 897 1542 583 
Q 1772 269 2209 269 
Q 2650 269 2876 622 
Q 3103 975 3103 1663 
Q 3103 2353 2876 2703 
Q 2650 3053 2209 3053 
Q 1772 3053 1542 2737 
Q 1313 2422 1313 1825 
L 1313 1497 
z
" transform="scale(0.015625)"/>
       <path id="DejaVuSerif-72" d="M 3059 3328 
L 3059 2497 
L 2728 2497 
Q 2713 2744 2591 2866 
Q 2469 2988 2234 2988 
Q 1809 2988 1582 2694 
Q 1356 2400 1356 1850 
L 1356 331 
L 2022 331 
L 2022 0 
L 263 0 
L 263 331 
L 781 331 
L 781 2994 
L 231 2994 
L 231 3322 
L 1356 3322 
L 1356 2731 
Q 1525 3078 1790 3245 
Q 2056 3413 2438 3413 
Q 2578 3413 2733 3391 
Q 2888 3369 3059 3328 
z
" transform="scale(0.015625)"/>
       <path id="DejaVuSerif-67" d="M 3359 2988 
L 3359 72 
Q 3359 -644 2965 -1033 
Q 2572 -1422 1844 -1422 
Q 1516 -1422 1216 -1362 
Q 916 -1303 641 -1184 
L 641 -488 
L 941 -488 
Q 997 -813 1206 -963 
Q 1416 -1113 1806 -1113 
Q 2313 -1113 2548 -827 
Q 2784 -541 2784 72 
L 2784 519 
Q 2616 206 2355 57 
Q 2094 -91 1709 -91 
Q 1097 -91 708 395 
Q 319 881 319 1663 
Q 319 2444 706 2928 
Q 1094 3413 1709 3413 
Q 2094 3413 2355 3264 
Q 2616 3116 2784 2803 
L 2784 3322 
L 3909 3322 
L 3909 2988 
L 3359 2988 
z
M 2784 1825 
Q 2784 2422 2554 2737 
Q 2325 3053 1888 3053 
Q 1444 3053 1217 2703 
Q 991 2353 991 1663 
Q 991 975 1217 622 
Q 1444 269 1888 269 
Q 2325 269 2554 583 
Q 2784 897 2784 1497 
L 2784 1825 
z
" transform="scale(0.015625)"/>
      </defs>
      <use xlink:href="#DejaVuSerif-48"/>
      <use xlink:href="#DejaVuSerif-65" x="87.207031"/>
      <use xlink:href="#DejaVuSerif-69" x="146.386719"/>
      <use xlink:href="#DejaVuSerif-73" x="178.369141"/>
      <use xlink:href="#DejaVuSerif-65" x="229.6875"/>
      <use xlink:href="#DejaVuSerif-6e" x="288.867188"/>
      <use xlink:href="#DejaVuSerif-62" x="353.271484"/>
      <use xlink:href="#DejaVuSerif-65" x="417.285156"/>
      <use xlink:href="#DejaVuSerif-72" x="476.464844"/>
      <use xlink:href="#DejaVuSerif-67" x="524.267578"/>
     </g>
    </g>
    <g id="line2d_44">
     <path d="M 129.27 370.42 
L 145.27 370.42 
L 161.27 370.42 
" style="fill: none; stroke-dasharray: 9,3,3,3; stroke-dashoffset: 0; stroke: #9467bd; stroke-width: 3"/>
    </g>
    <g id="text_18">
     <!-- Pauli -->
     <g transform="translate(174.07 376.02) scale(0.16 -0.16)">
      <defs>
       <path id="DejaVuSerif-50" d="M 1581 2375 
L 2406 2375 
Q 2872 2375 3115 2626 
Q 3359 2878 3359 3353 
Q 3359 3831 3115 4081 
Q 2872 4331 2406 4331 
L 1581 4331 
L 1581 2375 
z
M 353 0 
L 353 331 
L 947 331 
L 947 4331 
L 353 4331 
L 353 4666 
L 2559 4666 
Q 3259 4666 3668 4311 
Q 4078 3956 4078 3353 
Q 4078 2753 3668 2397 
Q 3259 2041 2559 2041 
L 1581 2041 
L 1581 331 
L 2303 331 
L 2303 0 
L 353 0 
z
" transform="scale(0.015625)"/>
      </defs>
      <use xlink:href="#DejaVuSerif-50"/>
      <use xlink:href="#DejaVuSerif-61" x="62.785156"/>
      <use xlink:href="#DejaVuSerif-75" x="122.404297"/>
      <use xlink:href="#DejaVuSerif-6c" x="186.808594"/>
      <use xlink:href="#DejaVuSerif-69" x="218.791016"/>
     </g>
    </g>
    <g id="line2d_45">
     <path d="M 129.27 393.905 
L 145.27 393.905 
L 161.27 393.905 
" style="fill: none; stroke: #808080; stroke-width: 3; stroke-linecap: square"/>
    </g>
    <g id="text_19">
     <!-- Total -->
     <g transform="translate(174.07 399.505) scale(0.16 -0.16)">
      <defs>
       <path id="DejaVuSerif-54" d="M 1222 0 
L 1222 331 
L 1819 331 
L 1819 4294 
L 447 4294 
L 447 3566 
L 63 3566 
L 63 4666 
L 4206 4666 
L 4206 3566 
L 3822 3566 
L 3822 4294 
L 2450 4294 
L 2450 331 
L 3047 331 
L 3047 0 
L 1222 0 
z
" transform="scale(0.015625)"/>
       <path id="DejaVuSerif-6f" d="M 1925 219 
Q 2388 219 2623 584 
Q 2859 950 2859 1663 
Q 2859 2375 2623 2739 
Q 2388 3103 1925 3103 
Q 1463 3103 1227 2739 
Q 991 2375 991 1663 
Q 991 950 1228 584 
Q 1466 219 1925 219 
z
M 1925 -91 
Q 1200 -91 759 389 
Q 319 869 319 1663 
Q 319 2456 758 2934 
Q 1197 3413 1925 3413 
Q 2653 3413 3092 2934 
Q 3531 2456 3531 1663 
Q 3531 869 3092 389 
Q 2653 -91 1925 -91 
z
" transform="scale(0.015625)"/>
      </defs>
      <use xlink:href="#DejaVuSerif-54"/>
      <use xlink:href="#DejaVuSerif-6f" x="58.949219"/>
      <use xlink:href="#DejaVuSerif-74" x="119.154297"/>
      <use xlink:href="#DejaVuSerif-61" x="159.339844"/>
      <use xlink:href="#DejaVuSerif-6c" x="218.958984"/>
     </g>
    </g>
   </g>
  </g>
 </g>
 <defs>
  <clipPath id="p6f39f9c9de">
   <rect x="114.87" y="28.08" width="569.248636" height="389.1525"/>
  </clipPath>
 </defs>
</svg>
