<?xml version="1.0" encoding="utf-8" standalone="no"?>
<!DOCTYPE svg PUBLIC "-//W3C//DTD SVG 1.1//EN"
  "http://www.w3.org/Graphics/SVG/1.1/DTD/svg11.dtd">
<svg xmlns:xlink="http://www.w3.org/1999/xlink" width="864pt" height="432pt" viewBox="0 0 864 432" xmlns="http://www.w3.org/2000/svg" version="1.1">
 <metadata>
  <rdf:RDF xmlns:dc="http://purl.org/dc/elements/1.1/" xmlns:cc="http://creativecommons.org/ns#" xmlns:rdf="http://www.w3.org/1999/02/22-rdf-syntax-ns#">
   <cc:Work>
    <dc:type rdf:resource="http://purl.org/dc/dcmitype/StillImage"/>
    <dc:date>2025-06-10T14:10:04.928709</dc:date>
    <dc:format>image/svg+xml</dc:format>
    <dc:creator>
     <cc:Agent>
      <dc:title>Matplotlib v3.7.2, https://matplotlib.org/</dc:title>
     </cc:Agent>
    </dc:creator>
   </cc:Work>
  </rdf:RDF>
 </metadata>
 <defs>
  <style type="text/css">*{stroke-linejoin: round; stroke-linecap: butt}</style>
 </defs>
 <g id="figure_1">
  <g id="patch_1">
   <path d="M 0 432 
L 864 432 
L 864 0 
L 0 0 
z
" style="fill: #ffffff"/>
  </g>
  <g id="axes_1">
   <g id="patch_2">
    <path d="M 103.44 345.2325 
L 403.133584 345.2325 
L 403.133584 38.088 
L 103.44 38.088 
z
" style="fill: #ffffff"/>
   </g>
   <g id="matplotlib.axis_1">
    <g id="xtick_1">
     <g id="line2d_1">
      <path d="M 117.062436 345.2325 
L 117.062436 38.088 
" clip-path="url(#pe951507529)" style="fill: none; stroke-dasharray: 3.7,1.6; stroke-dashoffset: 0; stroke: #b0b0b0; stroke-opacity: 0.5"/>
     </g>
     <g id="line2d_2">
      <defs>
       <path id="m3a57815f70" d="M 0 0 
L 0 -10 
" style="stroke: #000000; stroke-width: 2"/>
      </defs>
      <g>
       <use xlink:href="#m3a57815f70" x="117.062436" y="345.2325" style="stroke: #000000; stroke-width: 2"/>
      </g>
     </g>
     <g id="line2d_3">
      <defs>
       <path id="m2c17083f44" d="M 0 0 
L 0 10 
" style="stroke: #000000; stroke-width: 2"/>
      </defs>
      <g>
       <use xlink:href="#m2c17083f44" x="117.062436" y="38.088" style="stroke: #000000; stroke-width: 2"/>
      </g>
     </g>
     <g id="text_1">
      <!-- 0 -->
      <g transform="translate(108.791186 368.488437) scale(0.26 -0.26)">
       <defs>
        <path id="DejaVuSerif-30" d="M 2034 219 
Q 2513 219 2750 744 
Q 2988 1269 2988 2328 
Q 2988 3391 2750 3916 
Q 2513 4441 2034 4441 
Q 1556 4441 1318 3916 
Q 1081 3391 1081 2328 
Q 1081 1269 1318 744 
Q 1556 219 2034 219 
z
M 2034 -91 
Q 1275 -91 848 546 
Q 422 1184 422 2328 
Q 422 3475 848 4112 
Q 1275 4750 2034 4750 
Q 2797 4750 3222 4112 
Q 3647 3475 3647 2328 
Q 3647 1184 3222 546 
Q 2797 -91 2034 -91 
z
" transform="scale(0.015625)"/>
       </defs>
       <use xlink:href="#DejaVuSerif-30"/>
      </g>
     </g>
    </g>
    <g id="xtick_2">
     <g id="line2d_4">
      <path d="M 226.041921 345.2325 
L 226.041921 38.088 
" clip-path="url(#pe951507529)" style="fill: none; stroke-dasharray: 3.7,1.6; stroke-dashoffset: 0; stroke: #b0b0b0; stroke-opacity: 0.5"/>
     </g>
     <g id="line2d_5">
      <g>
       <use xlink:href="#m3a57815f70" x="226.041921" y="345.2325" style="stroke: #000000; stroke-width: 2"/>
      </g>
     </g>
     <g id="line2d_6">
      <g>
       <use xlink:href="#m2c17083f44" x="226.041921" y="38.088" style="stroke: #000000; stroke-width: 2"/>
      </g>
     </g>
     <g id="text_2">
      <!-- 1000 -->
      <g transform="translate(192.956921 368.488437) scale(0.26 -0.26)">
       <defs>
        <path id="DejaVuSerif-31" d="M 909 0 
L 909 331 
L 1722 331 
L 1722 4213 
L 781 3603 
L 781 4013 
L 1919 4750 
L 2350 4750 
L 2350 331 
L 3163 331 
L 3163 0 
L 909 0 
z
" transform="scale(0.015625)"/>
       </defs>
       <use xlink:href="#DejaVuSerif-31"/>
       <use xlink:href="#DejaVuSerif-30" x="63.623047"/>
       <use xlink:href="#DejaVuSerif-30" x="127.246094"/>
       <use xlink:href="#DejaVuSerif-30" x="190.869141"/>
      </g>
     </g>
    </g>
    <g id="xtick_3">
     <g id="line2d_7">
      <path d="M 335.021406 345.2325 
L 335.021406 38.088 
" clip-path="url(#pe951507529)" style="fill: none; stroke-dasharray: 3.7,1.6; stroke-dashoffset: 0; stroke: #b0b0b0; stroke-opacity: 0.5"/>
     </g>
     <g id="line2d_8">
      <g>
       <use xlink:href="#m3a57815f70" x="335.021406" y="345.2325" style="stroke: #000000; stroke-width: 2"/>
      </g>
     </g>
     <g id="line2d_9">
      <g>
       <use xlink:href="#m2c17083f44" x="335.021406" y="38.088" style="stroke: #000000; stroke-width: 2"/>
      </g>
     </g>
     <g id="text_3">
      <!-- 2000 -->
      <g transform="translate(301.936406 368.488437) scale(0.26 -0.26)">
       <defs>
        <path id="DejaVuSerif-32" d="M 819 3553 
L 469 3553 
L 469 4384 
Q 803 4563 1142 4656 
Q 1481 4750 1806 4750 
Q 2534 4750 2956 4397 
Q 3378 4044 3378 3438 
Q 3378 2753 2422 1800 
Q 2347 1728 2309 1691 
L 1131 513 
L 3078 513 
L 3078 1088 
L 3444 1088 
L 3444 0 
L 434 0 
L 434 341 
L 1850 1753 
Q 2319 2222 2519 2614 
Q 2719 3006 2719 3438 
Q 2719 3909 2473 4175 
Q 2228 4441 1797 4441 
Q 1350 4441 1106 4219 
Q 863 3997 819 3553 
z
" transform="scale(0.015625)"/>
       </defs>
       <use xlink:href="#DejaVuSerif-32"/>
       <use xlink:href="#DejaVuSerif-30" x="63.623047"/>
       <use xlink:href="#DejaVuSerif-30" x="127.246094"/>
       <use xlink:href="#DejaVuSerif-30" x="190.869141"/>
      </g>
     </g>
    </g>
    <g id="text_4">
     <!-- $t$ (a.u.) -->
     <g transform="translate(209.866792 397.651563) scale(0.26 -0.26)">
      <defs>
       <path id="Cmmi10-74" d="M 397 519 
Q 397 613 416 697 
L 878 2534 
L 206 2534 
Q 141 2534 141 2619 
Q 166 2759 225 2759 
L 934 2759 
L 1191 3803 
Q 1216 3888 1291 3947 
Q 1366 4006 1459 4006 
Q 1541 4006 1595 3957 
Q 1650 3909 1650 3828 
Q 1650 3809 1648 3798 
Q 1647 3788 1644 3775 
L 1388 2759 
L 2047 2759 
Q 2113 2759 2113 2675 
Q 2109 2659 2100 2621 
Q 2091 2584 2075 2559 
Q 2059 2534 2028 2534 
L 1331 2534 
L 872 684 
Q 825 503 825 372 
Q 825 97 1013 97 
Q 1294 97 1511 361 
Q 1728 625 1844 941 
Q 1869 978 1894 978 
L 1972 978 
Q 1997 978 2012 961 
Q 2028 944 2028 922 
Q 2028 909 2022 903 
Q 1881 516 1612 222 
Q 1344 -72 997 -72 
Q 744 -72 570 93 
Q 397 259 397 519 
z
" transform="scale(0.015625)"/>
       <path id="DejaVuSerif-20" transform="scale(0.015625)"/>
       <path id="DejaVuSerif-28" d="M 2041 -997 
Q 1281 -656 893 83 
Q 506 822 506 1931 
Q 506 3044 893 3783 
Q 1281 4522 2041 4863 
L 2041 4556 
Q 1559 4225 1350 3623 
Q 1141 3022 1141 1931 
Q 1141 844 1350 242 
Q 1559 -359 2041 -691 
L 2041 -997 
z
" transform="scale(0.015625)"/>
       <path id="DejaVuSerif-61" d="M 2547 1044 
L 2547 1747 
L 1806 1747 
Q 1378 1747 1168 1562 
Q 959 1378 959 997 
Q 959 650 1171 447 
Q 1384 244 1747 244 
Q 2106 244 2326 466 
Q 2547 688 2547 1044 
z
M 3122 2075 
L 3122 331 
L 3634 331 
L 3634 0 
L 2547 0 
L 2547 359 
Q 2356 128 2106 18 
Q 1856 -91 1522 -91 
Q 969 -91 644 203 
Q 319 497 319 997 
Q 319 1513 691 1797 
Q 1063 2081 1741 2081 
L 2547 2081 
L 2547 2309 
Q 2547 2688 2317 2895 
Q 2088 3103 1672 3103 
Q 1328 3103 1125 2947 
Q 922 2791 872 2484 
L 575 2484 
L 575 3156 
Q 875 3284 1158 3348 
Q 1441 3413 1709 3413 
Q 2400 3413 2761 3070 
Q 3122 2728 3122 2075 
z
" transform="scale(0.015625)"/>
       <path id="DejaVuSerif-2e" d="M 603 325 
Q 603 500 722 622 
Q 841 744 1019 744 
Q 1191 744 1312 622 
Q 1434 500 1434 325 
Q 1434 153 1312 31 
Q 1191 -91 1019 -91 
Q 841 -91 722 29 
Q 603 150 603 325 
z
" transform="scale(0.015625)"/>
       <path id="DejaVuSerif-75" d="M 2266 3322 
L 3341 3322 
L 3341 331 
L 3884 331 
L 3884 0 
L 2766 0 
L 2766 588 
Q 2606 256 2353 82 
Q 2100 -91 1766 -91 
Q 1213 -91 952 223 
Q 691 538 691 1209 
L 691 2988 
L 172 2988 
L 172 3322 
L 1269 3322 
L 1269 1388 
Q 1269 781 1417 556 
Q 1566 331 1947 331 
Q 2347 331 2556 625 
Q 2766 919 2766 1478 
L 2766 2988 
L 2266 2988 
L 2266 3322 
z
" transform="scale(0.015625)"/>
       <path id="DejaVuSerif-29" d="M 453 -997 
L 453 -691 
Q 934 -359 1145 242 
Q 1356 844 1356 1931 
Q 1356 3022 1145 3623 
Q 934 4225 453 4556 
L 453 4863 
Q 1216 4522 1603 3783 
Q 1991 3044 1991 1931 
Q 1991 822 1603 83 
Q 1216 -656 453 -997 
z
" transform="scale(0.015625)"/>
      </defs>
      <use xlink:href="#Cmmi10-74" transform="translate(0 0.015625)"/>
      <use xlink:href="#DejaVuSerif-20" transform="translate(36.083984 0.015625)"/>
      <use xlink:href="#DejaVuSerif-28" transform="translate(67.871094 0.015625)"/>
      <use xlink:href="#DejaVuSerif-61" transform="translate(106.884766 0.015625)"/>
      <use xlink:href="#DejaVuSerif-2e" transform="translate(166.503906 0.015625)"/>
      <use xlink:href="#DejaVuSerif-75" transform="translate(198.291016 0.015625)"/>
      <use xlink:href="#DejaVuSerif-2e" transform="translate(262.695312 0.015625)"/>
      <use xlink:href="#DejaVuSerif-29" transform="translate(294.482422 0.015625)"/>
     </g>
    </g>
   </g>
   <g id="matplotlib.axis_2">
    <g id="ytick_1">
     <g id="line2d_10">
      <path d="M 103.44 345.2325 
L 403.133584 345.2325 
" clip-path="url(#pe951507529)" style="fill: none; stroke-dasharray: 3.7,1.6; stroke-dashoffset: 0; stroke: #b0b0b0; stroke-opacity: 0.5"/>
     </g>
     <g id="line2d_11">
      <defs>
       <path id="m96d8d32fd7" d="M 0 0 
L 10 0 
" style="stroke: #000000; stroke-width: 2"/>
      </defs>
      <g>
       <use xlink:href="#m96d8d32fd7" x="103.44" y="345.2325" style="stroke: #000000; stroke-width: 2"/>
      </g>
     </g>
     <g id="line2d_12">
      <defs>
       <path id="m5cb5fe951c" d="M 0 0 
L -10 0 
" style="stroke: #000000; stroke-width: 2"/>
      </defs>
      <g>
       <use xlink:href="#m5cb5fe951c" x="403.133584" y="345.2325" style="stroke: #000000; stroke-width: 2"/>
      </g>
     </g>
     <g id="text_5">
      <!-- −2 -->
      <g transform="translate(61.610313 355.110469) scale(0.26 -0.26)">
       <defs>
        <path id="DejaVuSerif-2212" d="M 678 2259 
L 4684 2259 
L 4684 1753 
L 678 1753 
L 678 2259 
z
" transform="scale(0.015625)"/>
       </defs>
       <use xlink:href="#DejaVuSerif-2212"/>
       <use xlink:href="#DejaVuSerif-32" x="83.789062"/>
      </g>
     </g>
    </g>
    <g id="ytick_2">
     <g id="line2d_13">
      <path d="M 103.44 268.446375 
L 403.133584 268.446375 
" clip-path="url(#pe951507529)" style="fill: none; stroke-dasharray: 3.7,1.6; stroke-dashoffset: 0; stroke: #b0b0b0; stroke-opacity: 0.5"/>
     </g>
     <g id="line2d_14">
      <g>
       <use xlink:href="#m96d8d32fd7" x="103.44" y="268.446375" style="stroke: #000000; stroke-width: 2"/>
      </g>
     </g>
     <g id="line2d_15">
      <g>
       <use xlink:href="#m5cb5fe951c" x="403.133584" y="268.446375" style="stroke: #000000; stroke-width: 2"/>
      </g>
     </g>
     <g id="text_6">
      <!-- −1 -->
      <g transform="translate(61.610313 278.324344) scale(0.26 -0.26)">
       <use xlink:href="#DejaVuSerif-2212"/>
       <use xlink:href="#DejaVuSerif-31" x="83.789062"/>
      </g>
     </g>
    </g>
    <g id="ytick_3">
     <g id="line2d_16">
      <path d="M 103.44 191.66025 
L 403.133584 191.66025 
" clip-path="url(#pe951507529)" style="fill: none; stroke-dasharray: 3.7,1.6; stroke-dashoffset: 0; stroke: #b0b0b0; stroke-opacity: 0.5"/>
     </g>
     <g id="line2d_17">
      <g>
       <use xlink:href="#m96d8d32fd7" x="103.44" y="191.66025" style="stroke: #000000; stroke-width: 2"/>
      </g>
     </g>
     <g id="line2d_18">
      <g>
       <use xlink:href="#m5cb5fe951c" x="403.133584" y="191.66025" style="stroke: #000000; stroke-width: 2"/>
      </g>
     </g>
     <g id="text_7">
      <!-- 0 -->
      <g transform="translate(83.3975 201.538219) scale(0.26 -0.26)">
       <use xlink:href="#DejaVuSerif-30"/>
      </g>
     </g>
    </g>
    <g id="ytick_4">
     <g id="line2d_19">
      <path d="M 103.44 114.874125 
L 403.133584 114.874125 
" clip-path="url(#pe951507529)" style="fill: none; stroke-dasharray: 3.7,1.6; stroke-dashoffset: 0; stroke: #b0b0b0; stroke-opacity: 0.5"/>
     </g>
     <g id="line2d_20">
      <g>
       <use xlink:href="#m96d8d32fd7" x="103.44" y="114.874125" style="stroke: #000000; stroke-width: 2"/>
      </g>
     </g>
     <g id="line2d_21">
      <g>
       <use xlink:href="#m5cb5fe951c" x="403.133584" y="114.874125" style="stroke: #000000; stroke-width: 2"/>
      </g>
     </g>
     <g id="text_8">
      <!-- 1 -->
      <g transform="translate(83.3975 124.752094) scale(0.26 -0.26)">
       <use xlink:href="#DejaVuSerif-31"/>
      </g>
     </g>
    </g>
    <g id="ytick_5">
     <g id="line2d_22">
      <path d="M 103.44 38.088 
L 403.133584 38.088 
" clip-path="url(#pe951507529)" style="fill: none; stroke-dasharray: 3.7,1.6; stroke-dashoffset: 0; stroke: #b0b0b0; stroke-opacity: 0.5"/>
     </g>
     <g id="line2d_23">
      <g>
       <use xlink:href="#m96d8d32fd7" x="103.44" y="38.088" style="stroke: #000000; stroke-width: 2"/>
      </g>
     </g>
     <g id="line2d_24">
      <g>
       <use xlink:href="#m5cb5fe951c" x="403.133584" y="38.088" style="stroke: #000000; stroke-width: 2"/>
      </g>
     </g>
     <g id="text_9">
      <!-- 2 -->
      <g transform="translate(83.3975 47.965969) scale(0.26 -0.26)">
       <use xlink:href="#DejaVuSerif-32"/>
      </g>
     </g>
    </g>
    <g id="text_10">
     <!-- $E(t)$ (a.u.) -->
     <g transform="translate(51.110313 254.71025) rotate(-90) scale(0.26 -0.26)">
      <defs>
       <path id="Cmmi10-45" d="M 300 0 
Q 238 0 238 84 
Q 241 100 250 139 
Q 259 178 276 201 
Q 294 225 319 225 
Q 709 225 863 269 
Q 947 297 984 441 
L 1863 3956 
Q 1875 4019 1875 4044 
Q 1875 4113 1797 4122 
Q 1678 4147 1338 4147 
Q 1275 4147 1275 4231 
Q 1278 4247 1287 4286 
Q 1297 4325 1314 4348 
Q 1331 4372 1356 4372 
L 4825 4372 
Q 4891 4372 4891 4288 
L 4738 2963 
Q 4738 2947 4714 2926 
Q 4691 2906 4672 2906 
L 4616 2906 
Q 4550 2906 4550 2988 
Q 4588 3300 4588 3450 
Q 4588 3706 4500 3848 
Q 4413 3991 4267 4053 
Q 4122 4116 3945 4131 
Q 3769 4147 3481 4147 
L 2753 4147 
Q 2578 4147 2522 4117 
Q 2466 4088 2419 3928 
L 2034 2381 
L 2534 2381 
Q 2859 2381 3025 2426 
Q 3191 2472 3287 2615 
Q 3384 2759 3463 3072 
Q 3469 3094 3486 3111 
Q 3503 3128 3525 3128 
L 3584 3128 
Q 3647 3128 3647 3047 
L 3250 1466 
Q 3238 1409 3188 1409 
L 3128 1409 
Q 3066 1409 3066 1491 
Q 3128 1747 3128 1869 
Q 3128 2056 2959 2106 
Q 2791 2156 2509 2156 
L 1978 2156 
L 1544 416 
Q 1516 338 1516 275 
Q 1516 225 1734 225 
L 2509 225 
Q 2972 225 3259 297 
Q 3547 369 3736 526 
Q 3925 684 4062 928 
Q 4200 1172 4397 1638 
Q 4409 1678 4453 1678 
L 4513 1678 
Q 4538 1678 4556 1656 
Q 4575 1634 4575 1606 
Q 4575 1594 4569 1581 
L 3909 38 
Q 3897 0 3859 0 
L 300 0 
z
" transform="scale(0.015625)"/>
       <path id="Cmr10-28" d="M 1984 -1588 
Q 1628 -1306 1370 -942 
Q 1113 -578 948 -165 
Q 784 247 703 697 
Q 622 1147 622 1600 
Q 622 2059 703 2509 
Q 784 2959 951 3375 
Q 1119 3791 1378 4153 
Q 1638 4516 1984 4788 
Q 1984 4800 2016 4800 
L 2075 4800 
Q 2094 4800 2109 4783 
Q 2125 4766 2125 4744 
Q 2125 4716 2113 4703 
Q 1800 4397 1592 4047 
Q 1384 3697 1257 3301 
Q 1131 2906 1075 2482 
Q 1019 2059 1019 1600 
Q 1019 -434 2106 -1491 
Q 2125 -1509 2125 -1544 
Q 2125 -1559 2108 -1579 
Q 2091 -1600 2075 -1600 
L 2016 -1600 
Q 1984 -1600 1984 -1588 
z
" transform="scale(0.015625)"/>
       <path id="Cmr10-29" d="M 416 -1600 
Q 359 -1600 359 -1544 
Q 359 -1516 372 -1503 
Q 1466 -434 1466 1600 
Q 1466 3634 384 4691 
Q 359 4706 359 4744 
Q 359 4766 376 4783 
Q 394 4800 416 4800 
L 475 4800 
Q 494 4800 506 4788 
Q 966 4425 1272 3906 
Q 1578 3388 1720 2800 
Q 1863 2213 1863 1600 
Q 1863 1147 1786 708 
Q 1709 269 1542 -157 
Q 1375 -584 1119 -945 
Q 863 -1306 506 -1588 
Q 494 -1600 475 -1600 
L 416 -1600 
z
" transform="scale(0.015625)"/>
      </defs>
      <use xlink:href="#Cmmi10-45" transform="translate(0 0.015625)"/>
      <use xlink:href="#Cmr10-28" transform="translate(73.779297 0.015625)"/>
      <use xlink:href="#Cmmi10-74" transform="translate(112.597656 0.015625)"/>
      <use xlink:href="#Cmr10-29" transform="translate(148.681641 0.015625)"/>
      <use xlink:href="#DejaVuSerif-20" transform="translate(187.5 0.015625)"/>
      <use xlink:href="#DejaVuSerif-28" transform="translate(219.287109 0.015625)"/>
      <use xlink:href="#DejaVuSerif-61" transform="translate(258.300781 0.015625)"/>
      <use xlink:href="#DejaVuSerif-2e" transform="translate(317.919922 0.015625)"/>
      <use xlink:href="#DejaVuSerif-75" transform="translate(349.707031 0.015625)"/>
      <use xlink:href="#DejaVuSerif-2e" transform="translate(414.111328 0.015625)"/>
      <use xlink:href="#DejaVuSerif-29" transform="translate(445.898438 0.015625)"/>
     </g>
    </g>
   </g>
   <g id="line2d_25">
    <path d="M 117.062436 417.62746 
L 173.788494 417.510432 
L 182.788301 417.296033 
L 187.151844 416.967759 
L 189.333616 416.623982 
L 190.969944 416.179066 
L 192.06083 415.717693 
L 192.878994 415.200875 
L 193.697159 414.415077 
L 194.242602 413.642918 
L 194.788044 412.508017 
L 195.333487 410.736284 
L 195.87893 407.678299 
L 196.151652 405.139603 
L 196.424373 401.213955 
L 196.697094 394.470714 
L 196.969816 380.593449 
L 197.242537 336.147048 
L 197.515259 217.870744 
L 197.78798 369.196959 
L 198.060702 393.104081 
L 198.333423 403.449758 
L 198.878866 412.435792 
L 199.424309 416.488808 
L 199.969752 418.361333 
L 200.515195 419.349602 
L 200.787916 419.545176 
L 201.060637 419.536704 
L 201.333359 419.337774 
L 201.60608 418.904202 
L 202.151523 417.221903 
L 202.696966 414.001373 
L 202.969687 411.537299 
L 203.242409 407.514179 
L 203.51513 400.842552 
L 203.787852 388.37062 
L 204.060573 355.159934 
L 204.186183 -1 
M 204.479679 -1 
L 204.606016 358.998524 
L 204.878737 389.082175 
L 205.151459 400.330463 
L 205.696902 410.638106 
L 206.242345 415.300146 
L 206.787788 417.783612 
L 207.33323 419.072914 
L 207.878673 419.717226 
L 208.151395 419.805448 
L 208.696838 419.622216 
L 208.969559 419.350993 
L 209.515002 418.276169 
L 210.060445 416.145597 
L 210.605888 412.334202 
L 210.878609 409.393331 
L 211.15133 404.762302 
L 211.424052 396.484386 
L 211.696773 379.704035 
L 212.242216 282.406479 
L 212.514938 379.118371 
L 212.787659 400.144105 
L 213.060381 409.624869 
L 213.333102 414.819402 
L 213.605823 417.853519 
L 213.878545 419.435522 
L 214.151266 419.997252 
L 214.423988 419.703269 
L 214.696709 418.478977 
L 214.969431 416.161257 
L 215.242152 412.005764 
L 215.514873 404.571484 
L 215.787595 389.477434 
L 216.060316 343.644568 
L 216.333038 215.973995 
L 216.605759 375.780537 
L 216.878481 400.021274 
L 217.151202 410.300631 
L 217.423923 415.701741 
L 217.696645 418.640658 
L 217.969366 420.00336 
L 218.242088 420.118622 
L 218.514809 419.009916 
L 218.787531 416.41097 
L 219.060252 411.569013 
L 219.332973 402.479859 
L 219.605695 382.211438 
L 219.878416 294.410041 
L 220.151138 323.260568 
L 220.423859 387.020901 
L 220.696581 404.693881 
L 220.969302 412.934213 
L 221.242024 417.363654 
L 221.514745 419.702919 
L 221.787466 420.605818 
L 222.060188 420.285876 
L 222.332909 418.670606 
L 222.605631 415.351623 
L 222.878352 409.250408 
L 223.151074 397.279305 
L 223.423795 365.593785 
L 223.556372 -1 
M 223.837337 -1 
L 223.969238 361.975285 
L 224.241959 396.105229 
L 224.514681 408.837581 
L 224.787402 415.282435 
L 225.060124 418.82286 
L 225.332845 420.63255 
L 225.605566 421.199719 
L 225.878288 420.681513 
L 226.151009 418.905912 
L 226.423731 415.434076 
L 226.696452 409.147628 
L 226.969174 396.871708 
L 227.241895 365.550594 
L 227.30457 -1 
M 227.724823 -1 
L 227.787338 364.339356 
L 228.060059 397.426809 
L 228.332781 409.875814 
L 228.605502 416.144625 
L 228.878224 419.514338 
L 229.150945 421.115177 
L 229.423667 421.365952 
L 229.696388 420.32661 
L 229.969109 417.74104 
L 230.241831 412.840507 
L 230.514552 403.539064 
L 230.787274 382.463334 
L 231.059995 284.657975 
L 231.878159 406.469373 
L 232.150881 414.266833 
L 232.423602 418.620987 
L 232.696324 420.903045 
L 232.969045 421.747602 
L 233.241767 421.354882 
L 233.514488 419.634971 
L 233.78721 416.14566 
L 234.059931 409.72329 
L 234.332652 396.997792 
L 234.605374 363.415743 
L 234.715751 -1 
M 235.039446 -1 
L 235.150817 368.961139 
L 235.423538 400.284587 
L 235.69626 412.196977 
L 235.968981 418.094228 
L 236.241702 421.079993 
L 236.514424 422.197862 
L 236.787145 421.767142 
L 237.059867 419.670203 
L 237.332588 415.252374 
L 237.60531 406.630369 
L 237.878031 387.2785 
L 238.150752 307.307378 
L 238.423474 320.897009 
L 238.696195 389.553837 
L 238.968917 407.663699 
L 239.241638 415.87416 
L 239.51436 420.086885 
L 239.787081 422.049317 
L 240.059803 422.366459 
L 240.332524 421.125463 
L 240.605245 417.969054 
L 240.877967 411.768129 
L 241.150688 399.115006 
L 241.42341 364.489621 
L 241.594853 -1 
M 241.796304 -1 
L 241.968853 370.90196 
L 242.241574 401.336844 
L 242.514295 413.0254 
L 242.787017 418.82081 
L 243.059738 421.740619 
L 243.33246 422.800653 
L 243.605181 422.303589 
L 243.877903 420.111589 
L 244.150624 415.528155 
L 244.423345 406.542842 
L 244.696067 386.014532 
L 244.968788 293.253342 
L 245.24151 331.072102 
L 245.514231 391.886436 
L 245.786953 408.997209 
L 246.059674 416.858334 
L 246.332395 420.886298 
L 246.605117 422.716405 
L 246.877838 422.908705 
L 247.15056 421.516261 
L 247.423281 418.130325 
L 247.696003 411.49411 
L 247.968724 397.723012 
L 248.241446 357.625594 
L 248.514167 144.19958 
L 248.786888 376.894532 
L 249.05961 403.722716 
L 249.332331 414.497599 
L 249.605053 419.889964 
L 249.877774 422.563815 
L 250.150496 423.425787 
L 250.423217 422.720886 
L 250.695938 420.250396 
L 250.96866 415.197489 
L 251.241381 405.182532 
L 251.514103 381.148882 
L 251.786824 232.699199 
L 252.059546 349.701082 
L 252.332267 396.304055 
L 252.604988 411.253182 
L 252.87771 418.328526 
L 253.150431 421.939167 
L 253.423153 423.475071 
L 253.695874 423.396391 
L 253.968596 421.681181 
L 254.241317 417.806937 
L 254.514039 410.226368 
L 254.78676 393.888846 
L 255.332203 279.300585 
L 255.604924 385.745113 
L 255.877646 407.328909 
L 256.150367 416.618963 
L 256.423089 421.325497 
L 256.69581 423.569658 
L 256.968531 424.079025 
L 257.241253 422.997376 
L 257.513974 420.010334 
L 257.786696 414.056166 
L 258.059417 401.939909 
L 258.332139 369.603107 
L 258.345576 -1 
M 258.864142 -1 
L 258.877581 369.653963 
L 259.150303 402.113257 
L 259.423024 414.254585 
L 259.695746 420.215996 
L 259.968467 423.203421 
L 260.241189 424.280863 
L 260.51391 423.762232 
L 260.786632 421.500688 
L 261.059353 416.759903 
L 261.332074 407.389908 
L 261.604796 385.529616 
L 261.877517 275.134349 
L 262.42296 395.169604 
L 262.695682 411.311802 
L 262.968403 418.809651 
L 263.241124 422.626294 
L 263.513846 424.284805 
L 263.786567 424.292927 
L 264.059289 422.652969 
L 264.33201 418.863638 
L 264.604732 411.418606 
L 264.877453 395.42369 
L 265.422896 272.142889 
L 265.695617 385.995076 
L 265.968339 408.078486 
L 266.24106 417.504305 
L 266.513782 422.258786 
L 266.786503 424.514198 
L 267.059224 425.010306 
L 267.331946 423.888913 
L 267.604667 420.819211 
L 267.877389 414.687936 
L 268.15011 402.10516 
L 268.422832 367.625778 
L 268.589567 -1 
M 268.800454 -1 
L 268.968275 373.862942 
L 269.240996 404.342081 
L 269.513717 416.001318 
L 269.786439 421.741008 
L 270.05916 424.57817 
L 270.331882 425.51608 
L 270.604603 424.829885 
L 270.877325 422.32088 
L 271.150046 417.136838 
L 271.422767 406.754408 
L 271.695489 381.280332 
L 271.96821 195.651312 
L 272.240932 357.049789 
L 272.513653 399.853823 
L 272.786375 414.097416 
L 273.059096 420.873596 
L 273.331817 424.28646 
L 273.604539 425.6393 
L 273.87726 425.341577 
L 274.149982 423.307861 
L 274.422703 418.882158 
L 274.695425 410.123037 
L 274.968146 390.176489 
L 275.240868 303.487089 
L 275.513589 330.835602 
L 275.78631 394.839282 
L 276.059032 412.31922 
L 276.331753 420.257908 
L 276.604475 424.26865 
L 276.877196 426.020057 
L 277.149918 426.064525 
L 277.422639 424.414923 
L 277.69536 420.55577 
L 277.968082 412.914547 
L 278.240803 396.291314 
L 278.786246 289.235568 
L 279.058968 389.197476 
L 279.331689 410.259215 
L 279.60441 419.354729 
L 279.877132 423.929043 
L 280.149853 426.04231 
L 280.422575 426.387749 
L 280.695296 425.065508 
L 280.968018 421.672744 
L 281.240739 414.908413 
L 281.513461 400.665074 
L 281.786182 357.802891 
L 282.058903 198.158553 
L 282.331625 382.872641 
L 282.604346 408.295457 
L 282.877068 418.643468 
L 283.149789 423.789196 
L 283.422511 426.248016 
L 283.695232 426.862193 
L 283.967953 425.812291 
L 284.240675 422.782765 
L 284.513396 416.660957 
L 284.786118 404.027887 
L 285.058839 369.192554 
L 285.248732 -1 
M 285.413328 -1 
L 285.604282 376.092969 
L 285.877003 406.23832 
L 286.149725 417.793776 
L 286.422446 423.463646 
L 286.695168 426.229929 
L 286.967889 427.077709 
L 287.240611 426.259577 
L 287.513332 423.53211 
L 287.786054 417.928687 
L 288.058775 406.528856 
L 288.331496 377.022057 
L 288.56845 -1 
M 288.64068 -1 
L 288.876939 368.742246 
L 289.149661 404.400525 
L 289.422382 417.201375 
L 289.695104 423.381104 
L 289.967825 426.431337 
L 290.240546 427.482088 
L 290.513268 426.851698 
L 290.785989 424.353232 
L 291.058711 419.121138 
L 291.331432 408.556074 
L 291.604154 382.29126 
L 291.876875 169.486203 
L 292.149596 361.669445 
L 292.422318 402.678252 
L 292.695039 416.55566 
L 292.967761 423.158842 
L 293.240482 426.440468 
L 293.513204 427.655161 
L 293.785925 427.175923 
L 294.058646 424.860905 
L 294.331368 419.923088 
L 294.604089 410.002806 
L 294.876811 386.076359 
L 295.149532 238.551482 
L 295.422254 354.733849 
L 295.694975 401.386917 
L 295.967697 416.277531 
L 296.240418 423.259493 
L 296.513139 426.73763 
L 296.785861 428.081883 
L 297.058582 427.711289 
L 297.331304 425.515865 
L 297.604025 420.755138 
L 297.876747 411.201003 
L 298.149468 388.521681 
L 298.422189 264.448252 
L 298.967632 400.458946 
L 299.240354 416.004684 
L 299.513075 423.225826 
L 299.785797 426.827473 
L 300.058518 428.253903 
L 300.331239 427.9537 
L 300.603961 425.837584 
L 300.876682 421.196406 
L 301.149404 411.889801 
L 301.422125 390.035562 
L 301.694847 278.844684 
L 302.24029 400.057563 
L 302.513011 416.089812 
L 302.785732 423.480933 
L 303.058454 427.164411 
L 303.331175 428.638633 
L 303.603897 428.371232 
L 303.876618 426.282378 
L 304.14934 421.67076 
L 304.422061 412.411841 
L 304.694782 390.695466 
L 304.967504 281.40943 
L 305.512947 400.135748 
L 305.785668 416.248318 
L 306.05839 423.665096 
L 306.331111 427.358286 
L 306.603832 428.83477 
L 306.876554 428.564125 
L 307.149275 426.46526 
L 307.421997 421.831347 
L 307.694718 412.517752 
L 307.96744 390.609123 
L 308.240161 278.486912 
L 308.785604 400.809918 
L 309.058325 416.791365 
L 309.331047 424.154376 
L 309.603768 427.811716 
L 309.87649 429.254047 
L 310.149211 428.941105 
L 310.421933 426.778639 
L 310.694654 422.030076 
L 310.967375 412.456599 
L 311.240097 389.647215 
L 311.512818 263.046314 
L 311.78554 351.861877 
L 312.058261 401.956283 
L 312.330983 417.396564 
L 312.603704 424.559567 
L 312.876425 428.107736 
L 313.149147 429.469348 
L 313.421868 429.076793 
L 313.69459 426.811251 
L 313.967311 421.891061 
L 314.240033 411.938551 
L 314.512754 387.796463 
L 314.785475 234.953063 
L 315.058197 357.664854 
L 315.330918 403.598252 
L 315.60364 418.337819 
L 315.876361 425.233955 
L 316.149083 428.631931 
L 316.421804 429.878186 
L 316.694526 429.367069 
L 316.967247 426.942705 
L 317.239968 421.750342 
L 317.51269 411.180062 
L 317.785411 384.754018 
L 318.058133 164.43403 
L 318.330854 364.966492 
L 318.603576 405.541053 
L 318.876297 419.298341 
L 319.149018 425.814677 
L 319.42174 429.001501 
L 319.694461 430.090666 
L 319.967183 429.424133 
L 320.239904 426.797053 
L 320.512626 421.259684 
L 320.785347 409.893356 
L 321.058068 380.333361 
L 321.289917 -1 
M 321.372423 -1 
L 321.603511 372.144656 
L 321.876233 407.626203 
L 322.148954 420.346145 
L 322.421676 426.445758 
L 322.694397 429.394907 
L 322.967119 430.303015 
L 323.23984 429.453048 
L 323.512561 426.580887 
L 323.785283 420.616071 
L 324.058004 408.225494 
L 324.330726 374.255894 
L 324.473807 -1 
M 324.732187 -1 
L 324.876169 379.256711 
L 325.14889 410.017517 
L 325.421611 421.664896 
L 325.694333 427.311952 
L 325.967054 429.991505 
L 326.239776 430.68396 
L 326.512497 429.603989 
L 326.785219 426.410238 
L 327.05794 419.859995 
L 327.330661 405.989964 
L 327.603383 364.778458 
L 327.876104 177.968811 
L 328.148826 386.332608 
L 328.421547 412.422794 
L 328.694269 422.888501 
L 328.96699 428.017059 
L 329.239712 430.382097 
L 329.512433 430.82076 
L 329.785154 429.468285 
L 330.057876 425.888276 
L 330.330597 418.615944 
L 330.603319 402.815095 
L 331.148762 276.818536 
L 331.421483 392.656853 
L 331.694204 414.778972 
L 331.966926 424.122164 
L 332.239647 428.731162 
L 332.512369 430.767406 
L 332.78509 430.929228 
L 333.057812 429.26645 
L 333.330533 425.227817 
L 333.603254 417.056979 
L 333.875976 398.660207 
L 334.148697 326.385404 
L 334.421419 322.951743 
L 334.69414 398.349202 
L 334.966862 417.08607 
L 335.239583 425.365824 
L 335.512305 429.454594 
L 335.785026 431.145891 
L 336.057747 431.003143 
L 336.330469 428.98229 
L 336.60319 424.389554 
L 336.875912 415.072022 
L 337.148633 393.02353 
L 337.421355 278.258706 
L 337.966797 403.436308 
L 338.239519 419.268941 
L 338.51224 426.542503 
L 338.784962 430.111139 
L 339.057683 431.441057 
L 339.330405 430.963896 
L 339.603126 428.531266 
L 339.875847 423.269973 
L 340.148569 412.480872 
L 340.42129 385.124764 
L 340.694012 121.671635 
L 340.966733 369.182459 
L 341.239455 407.965043 
L 341.512176 421.345942 
L 341.784897 427.686881 
L 342.057619 430.743825 
L 342.33034 431.698056 
L 342.603062 430.852962 
L 342.875783 427.941338 
L 343.148505 421.857316 
L 343.421226 409.116352 
L 343.693948 373.434038 
L 343.938554 -1 
M 343.99418 -1 
L 344.23939 382.610655 
L 344.512112 411.977596 
L 344.784833 423.268295 
L 345.057555 428.741455 
L 345.330276 431.292911 
L 345.602998 431.854418 
L 345.875719 430.601957 
L 346.14844 427.129217 
L 346.421162 420.021384 
L 346.693883 404.623938 
L 346.966605 354.568968 
L 347.239326 266.178558 
L 347.512048 392.762312 
L 347.784769 415.528102 
L 348.05749 425.04503 
L 348.330212 429.717222 
L 348.602933 431.771416 
L 348.875655 431.921418 
L 349.148376 430.214032 
L 349.421098 426.074246 
L 349.693819 417.662342 
L 349.966541 398.482463 
L 350.239262 318.722526 
L 350.511983 332.20281 
L 350.784705 400.753208 
L 351.057426 418.700245 
L 351.330148 426.700079 
L 351.602869 430.628949 
L 351.875591 432.189229 
L 352.148312 431.901266 
L 352.421033 429.674873 
L 352.693755 424.721154 
L 352.966476 414.585866 
L 353.239198 389.628974 
L 353.511919 215.711961 
L 353.784641 363.794843 
L 354.057362 407.457869 
L 354.330083 421.75116 
L 354.602805 428.430201 
L 354.875526 431.654011 
L 355.148248 432.706312 
L 355.420969 431.92782 
L 355.693691 429.069921 
L 355.966412 423.042811 
L 356.239134 410.397793 
L 356.511855 375.088748 
L 356.737354 -1 
M 356.830954 -1 
L 357.057298 383.371261 
L 357.330019 412.988862 
L 357.602741 424.325014 
L 357.875462 429.799689 
L 358.148184 432.330368 
L 358.420905 432.849037 
L 358.693626 431.520244 
L 358.966348 427.905146 
L 359.239069 420.490551 
L 359.511791 404.19986 
L 360.057234 292.257764 
L 360.329955 396.252471 
L 360.602676 417.519222 
L 360.875398 426.571519 
L 361.148119 431.004185 
L 361.420841 432.881091 
L 361.693562 432.851309 
L 361.966284 430.90541 
L 362.239005 426.36628 
L 362.511726 417.09095 
L 362.784448 395.08586 
L 363.057169 280.550732 
L 363.602612 405.615237 
L 363.875334 421.421151 
L 364.148055 428.652061 
L 364.420777 432.159412 
L 364.605729 433 
M 364.869306 433 
L 364.966219 432.780108 
L 365.238941 430.104762 
L 365.511662 424.366094 
L 365.784384 412.387077 
L 366.057105 380.022999 
L 366.077477 -1 
M 366.582149 -1 
L 366.602548 380.564388 
L 366.875269 412.711123 
L 367.147991 424.636752 
L 367.420712 430.349166 
L 367.692955 433 
M 368.095717 433 
L 368.238877 432.334354 
L 368.511598 428.779571 
L 368.784319 421.451202 
L 369.057041 405.365721 
L 369.602484 288.8698 
L 369.875205 396.837372 
L 370.147927 418.378326 
L 370.420648 427.498755 
L 370.847394 433 
M 371.339687 433 
L 371.511534 431.728665 
L 371.784255 427.044859 
L 372.056977 417.425254 
L 372.329698 394.196628 
L 372.60242 258.694384 
L 372.875141 359.643026 
L 373.147862 408.007513 
L 373.420584 423.087834 
L 373.693305 430.033775 
L 373.936 433 
M 374.572607 433 
L 374.784191 430.718803 
L 375.056912 424.481962 
L 375.329634 411.240326 
L 375.602355 372.931634 
L 375.875077 111.435545 
L 376.147798 388.662084 
L 376.42052 416.215099 
L 376.693241 426.999382 
L 377.06064 433 
M 377.794933 433 
L 378.056848 429.02443 
L 378.32957 420.501037 
L 378.602291 400.827161 
L 378.875013 315.540052 
L 379.147734 340.075239 
L 379.420455 404.722154 
L 379.693177 422.146452 
L 379.965898 429.920355 
L 380.189419 433 
M 380.940572 433 
L 381.056784 431.877938 
L 381.329505 426.148747 
L 381.602227 414.119625 
L 381.874948 381.417787 
L 381.933658 -1 
M 382.361496 -1 
L 382.420391 382.963034 
L 382.693113 414.728993 
L 382.965834 426.539269 
L 383.326275 433 
M 384.112925 433 
L 384.329441 429.938667 
L 384.602163 421.965153 
L 384.874884 403.945219 
L 385.147606 334.371397 
L 385.420327 324.210879 
L 385.693048 402.574858 
L 385.96577 421.55787 
L 386.452739 433 
M 387.277828 433 
L 387.329377 432.533468 
L 387.602098 427.067227 
L 387.87482 415.640224 
L 388.147541 385.475695 
L 388.332249 -1 
M 388.509204 -1 
L 388.692984 379.525985 
L 388.965706 414.03689 
L 389.238427 426.460615 
L 389.511148 432.34328 
L 389.511148 432.34328 
" clip-path="url(#pe951507529)" style="fill: none; stroke: #1f77b4; stroke-width: 3; stroke-linecap: square"/>
   </g>
   <g id="patch_3">
    <path d="M 103.44 345.2325 
L 103.44 38.088 
" style="fill: none; stroke: #000000; stroke-width: 2; stroke-linejoin: miter; stroke-linecap: square"/>
   </g>
   <g id="patch_4">
    <path d="M 403.133584 345.2325 
L 403.133584 38.088 
" style="fill: none; stroke: #000000; stroke-width: 2; stroke-linejoin: miter; stroke-linecap: square"/>
   </g>
   <g id="patch_5">
    <path d="M 103.44 345.2325 
L 403.133584 345.2325 
" style="fill: none; stroke: #000000; stroke-width: 2; stroke-linejoin: miter; stroke-linecap: square"/>
   </g>
   <g id="patch_6">
    <path d="M 103.44 38.088 
L 403.133584 38.088 
" style="fill: none; stroke: #000000; stroke-width: 2; stroke-linejoin: miter; stroke-linecap: square"/>
   </g>
  </g>
  <g id="axes_2">
   <g id="patch_7">
    <path d="M 536.226416 345.2325 
L 835.92 345.2325 
L 835.92 38.088 
L 536.226416 38.088 
z
" style="fill: #ffffff"/>
   </g>
   <g id="matplotlib.axis_3">
    <g id="xtick_4">
     <g id="line2d_26">
      <path d="M 549.848852 345.2325 
L 549.848852 38.088 
" clip-path="url(#p8be4d32d23)" style="fill: none; stroke-dasharray: 3.7,1.6; stroke-dashoffset: 0; stroke: #b0b0b0; stroke-opacity: 0.5"/>
     </g>
     <g id="line2d_27">
      <g>
       <use xlink:href="#m3a57815f70" x="549.848852" y="345.2325" style="stroke: #000000; stroke-width: 2"/>
      </g>
     </g>
     <g id="line2d_28">
      <g>
       <use xlink:href="#m2c17083f44" x="549.848852" y="38.088" style="stroke: #000000; stroke-width: 2"/>
      </g>
     </g>
     <g id="text_11">
      <!-- 0 -->
      <g transform="translate(541.577602 368.488437) scale(0.26 -0.26)">
       <use xlink:href="#DejaVuSerif-30"/>
      </g>
     </g>
    </g>
    <g id="xtick_5">
     <g id="line2d_29">
      <path d="M 658.828337 345.2325 
L 658.828337 38.088 
" clip-path="url(#p8be4d32d23)" style="fill: none; stroke-dasharray: 3.7,1.6; stroke-dashoffset: 0; stroke: #b0b0b0; stroke-opacity: 0.5"/>
     </g>
     <g id="line2d_30">
      <g>
       <use xlink:href="#m3a57815f70" x="658.828337" y="345.2325" style="stroke: #000000; stroke-width: 2"/>
      </g>
     </g>
     <g id="line2d_31">
      <g>
       <use xlink:href="#m2c17083f44" x="658.828337" y="38.088" style="stroke: #000000; stroke-width: 2"/>
      </g>
     </g>
     <g id="text_12">
      <!-- 1000 -->
      <g transform="translate(625.743337 368.488437) scale(0.26 -0.26)">
       <use xlink:href="#DejaVuSerif-31"/>
       <use xlink:href="#DejaVuSerif-30" x="63.623047"/>
       <use xlink:href="#DejaVuSerif-30" x="127.246094"/>
       <use xlink:href="#DejaVuSerif-30" x="190.869141"/>
      </g>
     </g>
    </g>
    <g id="xtick_6">
     <g id="line2d_32">
      <path d="M 767.807822 345.2325 
L 767.807822 38.088 
" clip-path="url(#p8be4d32d23)" style="fill: none; stroke-dasharray: 3.7,1.6; stroke-dashoffset: 0; stroke: #b0b0b0; stroke-opacity: 0.5"/>
     </g>
     <g id="line2d_33">
      <g>
       <use xlink:href="#m3a57815f70" x="767.807822" y="345.2325" style="stroke: #000000; stroke-width: 2"/>
      </g>
     </g>
     <g id="line2d_34">
      <g>
       <use xlink:href="#m2c17083f44" x="767.807822" y="38.088" style="stroke: #000000; stroke-width: 2"/>
      </g>
     </g>
     <g id="text_13">
      <!-- 2000 -->
      <g transform="translate(734.722822 368.488437) scale(0.26 -0.26)">
       <use xlink:href="#DejaVuSerif-32"/>
       <use xlink:href="#DejaVuSerif-30" x="63.623047"/>
       <use xlink:href="#DejaVuSerif-30" x="127.246094"/>
       <use xlink:href="#DejaVuSerif-30" x="190.869141"/>
      </g>
     </g>
    </g>
    <g id="text_14">
     <!-- $t$ (a.u.) -->
     <g transform="translate(642.653208 397.651563) scale(0.26 -0.26)">
      <use xlink:href="#Cmmi10-74" transform="translate(0 0.015625)"/>
      <use xlink:href="#DejaVuSerif-20" transform="translate(36.083984 0.015625)"/>
      <use xlink:href="#DejaVuSerif-28" transform="translate(67.871094 0.015625)"/>
      <use xlink:href="#DejaVuSerif-61" transform="translate(106.884766 0.015625)"/>
      <use xlink:href="#DejaVuSerif-2e" transform="translate(166.503906 0.015625)"/>
      <use xlink:href="#DejaVuSerif-75" transform="translate(198.291016 0.015625)"/>
      <use xlink:href="#DejaVuSerif-2e" transform="translate(262.695312 0.015625)"/>
      <use xlink:href="#DejaVuSerif-29" transform="translate(294.482422 0.015625)"/>
     </g>
    </g>
   </g>
   <g id="matplotlib.axis_4">
    <g id="ytick_6">
     <g id="line2d_35">
      <path d="M 536.226416 345.2325 
L 835.92 345.2325 
" clip-path="url(#p8be4d32d23)" style="fill: none; stroke-dasharray: 3.7,1.6; stroke-dashoffset: 0; stroke: #b0b0b0; stroke-opacity: 0.5"/>
     </g>
     <g id="line2d_36">
      <g>
       <use xlink:href="#m96d8d32fd7" x="536.226416" y="345.2325" style="stroke: #000000; stroke-width: 2"/>
      </g>
     </g>
     <g id="line2d_37">
      <g>
       <use xlink:href="#m5cb5fe951c" x="835.92" y="345.2325" style="stroke: #000000; stroke-width: 2"/>
      </g>
     </g>
     <g id="text_15">
      <!-- $\mathdefault{0}$ -->
      <g transform="translate(516.086416 355.110469) scale(0.26 -0.26)">
       <use xlink:href="#DejaVuSerif-30" transform="translate(0 0.78125)"/>
      </g>
     </g>
    </g>
    <g id="ytick_7">
     <g id="line2d_38">
      <path d="M 536.226416 314.51805 
L 835.92 314.51805 
" clip-path="url(#p8be4d32d23)" style="fill: none; stroke-dasharray: 3.7,1.6; stroke-dashoffset: 0; stroke: #b0b0b0; stroke-opacity: 0.5"/>
     </g>
     <g id="line2d_39">
      <g>
       <use xlink:href="#m96d8d32fd7" x="536.226416" y="314.51805" style="stroke: #000000; stroke-width: 2"/>
      </g>
     </g>
     <g id="line2d_40">
      <g>
       <use xlink:href="#m5cb5fe951c" x="835.92" y="314.51805" style="stroke: #000000; stroke-width: 2"/>
      </g>
     </g>
     <g id="text_16">
      <!-- $\mathdefault{10^{-10}}$ -->
      <g transform="translate(460.186416 324.396019) scale(0.26 -0.26)">
       <use xlink:href="#DejaVuSerif-31" transform="translate(0 0.7125)"/>
       <use xlink:href="#DejaVuSerif-30" transform="translate(63.623047 0.7125)"/>
       <use xlink:href="#DejaVuSerif-2212" transform="translate(128.154453 37.046875) scale(0.7)"/>
       <use xlink:href="#DejaVuSerif-31" transform="translate(186.806797 37.046875) scale(0.7)"/>
       <use xlink:href="#DejaVuSerif-30" transform="translate(231.34293 37.046875) scale(0.7)"/>
      </g>
     </g>
    </g>
    <g id="ytick_8">
     <g id="line2d_41">
      <path d="M 536.226416 286.875045 
L 835.92 286.875045 
" clip-path="url(#p8be4d32d23)" style="fill: none; stroke-dasharray: 3.7,1.6; stroke-dashoffset: 0; stroke: #b0b0b0; stroke-opacity: 0.5"/>
     </g>
     <g id="line2d_42">
      <g>
       <use xlink:href="#m96d8d32fd7" x="536.226416" y="286.875045" style="stroke: #000000; stroke-width: 2"/>
      </g>
     </g>
     <g id="line2d_43">
      <g>
       <use xlink:href="#m5cb5fe951c" x="835.92" y="286.875045" style="stroke: #000000; stroke-width: 2"/>
      </g>
     </g>
     <g id="text_17">
      <!-- $\mathdefault{10^{-9}}$ -->
      <g transform="translate(471.886416 296.753014) scale(0.26 -0.26)">
       <defs>
        <path id="DejaVuSerif-39" d="M 2994 2091 
Q 2784 1856 2512 1740 
Q 2241 1625 1900 1625 
Q 1206 1625 804 2044 
Q 403 2463 403 3188 
Q 403 3897 839 4323 
Q 1275 4750 2003 4750 
Q 2794 4750 3217 4161 
Q 3641 3572 3641 2478 
Q 3641 1253 3137 581 
Q 2634 -91 1722 -91 
Q 1475 -91 1203 -44 
Q 931 3 647 97 
L 647 872 
L 997 872 
Q 1038 556 1241 387 
Q 1444 219 1784 219 
Q 2391 219 2687 676 
Q 2984 1134 2994 2091 
z
M 1978 4441 
Q 1534 4441 1298 4117 
Q 1063 3794 1063 3188 
Q 1063 2581 1298 2256 
Q 1534 1931 1978 1931 
Q 2422 1931 2658 2245 
Q 2894 2559 2894 3150 
Q 2894 3772 2656 4106 
Q 2419 4441 1978 4441 
z
" transform="scale(0.015625)"/>
       </defs>
       <use xlink:href="#DejaVuSerif-31" transform="translate(0 0.7125)"/>
       <use xlink:href="#DejaVuSerif-30" transform="translate(63.623047 0.7125)"/>
       <use xlink:href="#DejaVuSerif-2212" transform="translate(128.154453 37.046875) scale(0.7)"/>
       <use xlink:href="#DejaVuSerif-39" transform="translate(186.806797 37.046875) scale(0.7)"/>
      </g>
     </g>
    </g>
    <g id="ytick_9">
     <g id="line2d_44">
      <path d="M 536.226416 259.23204 
L 835.92 259.23204 
" clip-path="url(#p8be4d32d23)" style="fill: none; stroke-dasharray: 3.7,1.6; stroke-dashoffset: 0; stroke: #b0b0b0; stroke-opacity: 0.5"/>
     </g>
     <g id="line2d_45">
      <g>
       <use xlink:href="#m96d8d32fd7" x="536.226416" y="259.23204" style="stroke: #000000; stroke-width: 2"/>
      </g>
     </g>
     <g id="line2d_46">
      <g>
       <use xlink:href="#m5cb5fe951c" x="835.92" y="259.23204" style="stroke: #000000; stroke-width: 2"/>
      </g>
     </g>
     <g id="text_18">
      <!-- $\mathdefault{10^{-8}}$ -->
      <g transform="translate(471.886416 269.110009) scale(0.26 -0.26)">
       <defs>
        <path id="DejaVuSerif-38" d="M 2981 1275 
Q 2981 1775 2732 2051 
Q 2484 2328 2034 2328 
Q 1584 2328 1336 2051 
Q 1088 1775 1088 1275 
Q 1088 772 1336 495 
Q 1584 219 2034 219 
Q 2484 219 2732 495 
Q 2981 772 2981 1275 
z
M 2853 3541 
Q 2853 3966 2637 4203 
Q 2422 4441 2034 4441 
Q 1650 4441 1433 4203 
Q 1216 3966 1216 3541 
Q 1216 3113 1433 2875 
Q 1650 2638 2034 2638 
Q 2422 2638 2637 2875 
Q 2853 3113 2853 3541 
z
M 2516 2484 
Q 3047 2413 3344 2092 
Q 3641 1772 3641 1275 
Q 3641 619 3225 264 
Q 2809 -91 2034 -91 
Q 1263 -91 845 264 
Q 428 619 428 1275 
Q 428 1772 725 2092 
Q 1022 2413 1556 2484 
Q 1084 2569 832 2842 
Q 581 3116 581 3541 
Q 581 4103 968 4426 
Q 1356 4750 2034 4750 
Q 2713 4750 3100 4426 
Q 3488 4103 3488 3541 
Q 3488 3116 3236 2842 
Q 2984 2569 2516 2484 
z
" transform="scale(0.015625)"/>
       </defs>
       <use xlink:href="#DejaVuSerif-31" transform="translate(0 0.7125)"/>
       <use xlink:href="#DejaVuSerif-30" transform="translate(63.623047 0.7125)"/>
       <use xlink:href="#DejaVuSerif-2212" transform="translate(128.154453 37.046875) scale(0.7)"/>
       <use xlink:href="#DejaVuSerif-38" transform="translate(186.806797 37.046875) scale(0.7)"/>
      </g>
     </g>
    </g>
    <g id="ytick_10">
     <g id="line2d_47">
      <path d="M 536.226416 231.589035 
L 835.92 231.589035 
" clip-path="url(#p8be4d32d23)" style="fill: none; stroke-dasharray: 3.7,1.6; stroke-dashoffset: 0; stroke: #b0b0b0; stroke-opacity: 0.5"/>
     </g>
     <g id="line2d_48">
      <g>
       <use xlink:href="#m96d8d32fd7" x="536.226416" y="231.589035" style="stroke: #000000; stroke-width: 2"/>
      </g>
     </g>
     <g id="line2d_49">
      <g>
       <use xlink:href="#m5cb5fe951c" x="835.92" y="231.589035" style="stroke: #000000; stroke-width: 2"/>
      </g>
     </g>
     <g id="text_19">
      <!-- $\mathdefault{10^{-7}}$ -->
      <g transform="translate(471.886416 241.467004) scale(0.26 -0.26)">
       <defs>
        <path id="DejaVuSerif-37" d="M 3609 4347 
L 1784 0 
L 1319 0 
L 3059 4153 
L 903 4153 
L 903 3578 
L 538 3578 
L 538 4666 
L 3609 4666 
L 3609 4347 
z
" transform="scale(0.015625)"/>
       </defs>
       <use xlink:href="#DejaVuSerif-31" transform="translate(0 0.63125)"/>
       <use xlink:href="#DejaVuSerif-30" transform="translate(63.623047 0.63125)"/>
       <use xlink:href="#DejaVuSerif-2212" transform="translate(128.154453 36.965625) scale(0.7)"/>
       <use xlink:href="#DejaVuSerif-37" transform="translate(186.806797 36.965625) scale(0.7)"/>
      </g>
     </g>
    </g>
    <g id="ytick_11">
     <g id="line2d_50">
      <path d="M 536.226416 203.94603 
L 835.92 203.94603 
" clip-path="url(#p8be4d32d23)" style="fill: none; stroke-dasharray: 3.7,1.6; stroke-dashoffset: 0; stroke: #b0b0b0; stroke-opacity: 0.5"/>
     </g>
     <g id="line2d_51">
      <g>
       <use xlink:href="#m96d8d32fd7" x="536.226416" y="203.94603" style="stroke: #000000; stroke-width: 2"/>
      </g>
     </g>
     <g id="line2d_52">
      <g>
       <use xlink:href="#m5cb5fe951c" x="835.92" y="203.94603" style="stroke: #000000; stroke-width: 2"/>
      </g>
     </g>
     <g id="text_20">
      <!-- $\mathdefault{10^{-6}}$ -->
      <g transform="translate(471.886416 213.823999) scale(0.26 -0.26)">
       <defs>
        <path id="DejaVuSerif-36" d="M 2094 219 
Q 2534 219 2771 542 
Q 3009 866 3009 1472 
Q 3009 2078 2771 2401 
Q 2534 2725 2094 2725 
Q 1647 2725 1412 2412 
Q 1178 2100 1178 1509 
Q 1178 888 1415 553 
Q 1653 219 2094 219 
z
M 1075 2569 
Q 1288 2803 1556 2918 
Q 1825 3034 2163 3034 
Q 2859 3034 3264 2615 
Q 3669 2197 3669 1472 
Q 3669 763 3233 336 
Q 2797 -91 2069 -91 
Q 1278 -91 853 498 
Q 428 1088 428 2181 
Q 428 3406 931 4078 
Q 1434 4750 2350 4750 
Q 2597 4750 2869 4703 
Q 3141 4656 3425 4563 
L 3425 3794 
L 3072 3794 
Q 3034 4109 2831 4275 
Q 2628 4441 2284 4441 
Q 1678 4441 1381 3981 
Q 1084 3522 1075 2569 
z
" transform="scale(0.015625)"/>
       </defs>
       <use xlink:href="#DejaVuSerif-31" transform="translate(0 0.7125)"/>
       <use xlink:href="#DejaVuSerif-30" transform="translate(63.623047 0.7125)"/>
       <use xlink:href="#DejaVuSerif-2212" transform="translate(128.154453 37.046875) scale(0.7)"/>
       <use xlink:href="#DejaVuSerif-36" transform="translate(186.806797 37.046875) scale(0.7)"/>
      </g>
     </g>
    </g>
    <g id="ytick_12">
     <g id="line2d_53">
      <path d="M 536.226416 176.303025 
L 835.92 176.303025 
" clip-path="url(#p8be4d32d23)" style="fill: none; stroke-dasharray: 3.7,1.6; stroke-dashoffset: 0; stroke: #b0b0b0; stroke-opacity: 0.5"/>
     </g>
     <g id="line2d_54">
      <g>
       <use xlink:href="#m96d8d32fd7" x="536.226416" y="176.303025" style="stroke: #000000; stroke-width: 2"/>
      </g>
     </g>
     <g id="line2d_55">
      <g>
       <use xlink:href="#m5cb5fe951c" x="835.92" y="176.303025" style="stroke: #000000; stroke-width: 2"/>
      </g>
     </g>
     <g id="text_21">
      <!-- $\mathdefault{10^{-5}}$ -->
      <g transform="translate(471.886416 186.180994) scale(0.26 -0.26)">
       <defs>
        <path id="DejaVuSerif-35" d="M 3219 4666 
L 3219 4153 
L 1081 4153 
L 1081 2816 
Q 1244 2928 1461 2984 
Q 1678 3041 1947 3041 
Q 2703 3041 3140 2622 
Q 3578 2203 3578 1478 
Q 3578 738 3136 323 
Q 2694 -91 1894 -91 
Q 1572 -91 1234 -12 
Q 897 66 544 225 
L 544 1131 
L 897 1131 
Q 925 688 1179 453 
Q 1434 219 1894 219 
Q 2388 219 2653 544 
Q 2919 869 2919 1478 
Q 2919 2084 2655 2407 
Q 2391 2731 1894 2731 
Q 1613 2731 1398 2631 
Q 1184 2531 1019 2322 
L 750 2322 
L 750 4666 
L 3219 4666 
z
" transform="scale(0.015625)"/>
       </defs>
       <use xlink:href="#DejaVuSerif-31" transform="translate(0 0.63125)"/>
       <use xlink:href="#DejaVuSerif-30" transform="translate(63.623047 0.63125)"/>
       <use xlink:href="#DejaVuSerif-2212" transform="translate(128.154453 36.965625) scale(0.7)"/>
       <use xlink:href="#DejaVuSerif-35" transform="translate(186.806797 36.965625) scale(0.7)"/>
      </g>
     </g>
    </g>
    <g id="ytick_13">
     <g id="line2d_56">
      <path d="M 536.226416 148.66002 
L 835.92 148.66002 
" clip-path="url(#p8be4d32d23)" style="fill: none; stroke-dasharray: 3.7,1.6; stroke-dashoffset: 0; stroke: #b0b0b0; stroke-opacity: 0.5"/>
     </g>
     <g id="line2d_57">
      <g>
       <use xlink:href="#m96d8d32fd7" x="536.226416" y="148.66002" style="stroke: #000000; stroke-width: 2"/>
      </g>
     </g>
     <g id="line2d_58">
      <g>
       <use xlink:href="#m5cb5fe951c" x="835.92" y="148.66002" style="stroke: #000000; stroke-width: 2"/>
      </g>
     </g>
     <g id="text_22">
      <!-- $\mathdefault{10^{-4}}$ -->
      <g transform="translate(471.886416 158.537989) scale(0.26 -0.26)">
       <defs>
        <path id="DejaVuSerif-34" d="M 2234 1581 
L 2234 4063 
L 641 1581 
L 2234 1581 
z
M 3609 0 
L 1484 0 
L 1484 331 
L 2234 331 
L 2234 1247 
L 197 1247 
L 197 1588 
L 2241 4750 
L 2859 4750 
L 2859 1581 
L 3750 1581 
L 3750 1247 
L 2859 1247 
L 2859 331 
L 3609 331 
L 3609 0 
z
" transform="scale(0.015625)"/>
       </defs>
       <use xlink:href="#DejaVuSerif-31" transform="translate(0 0.7125)"/>
       <use xlink:href="#DejaVuSerif-30" transform="translate(63.623047 0.7125)"/>
       <use xlink:href="#DejaVuSerif-2212" transform="translate(128.154453 37.046875) scale(0.7)"/>
       <use xlink:href="#DejaVuSerif-34" transform="translate(186.806797 37.046875) scale(0.7)"/>
      </g>
     </g>
    </g>
    <g id="ytick_14">
     <g id="line2d_59">
      <path d="M 536.226416 121.017015 
L 835.92 121.017015 
" clip-path="url(#p8be4d32d23)" style="fill: none; stroke-dasharray: 3.7,1.6; stroke-dashoffset: 0; stroke: #b0b0b0; stroke-opacity: 0.5"/>
     </g>
     <g id="line2d_60">
      <g>
       <use xlink:href="#m96d8d32fd7" x="536.226416" y="121.017015" style="stroke: #000000; stroke-width: 2"/>
      </g>
     </g>
     <g id="line2d_61">
      <g>
       <use xlink:href="#m5cb5fe951c" x="835.92" y="121.017015" style="stroke: #000000; stroke-width: 2"/>
      </g>
     </g>
     <g id="text_23">
      <!-- $\mathdefault{10^{-3}}$ -->
      <g transform="translate(471.886416 130.894984) scale(0.26 -0.26)">
       <defs>
        <path id="DejaVuSerif-33" d="M 622 4469 
Q 988 4606 1323 4678 
Q 1659 4750 1953 4750 
Q 2638 4750 3022 4454 
Q 3406 4159 3406 3634 
Q 3406 3213 3140 2930 
Q 2875 2647 2388 2547 
Q 2963 2466 3280 2130 
Q 3597 1794 3597 1259 
Q 3597 606 3158 257 
Q 2719 -91 1894 -91 
Q 1528 -91 1179 -12 
Q 831 66 488 225 
L 488 1131 
L 838 1131 
Q 869 681 1141 450 
Q 1413 219 1906 219 
Q 2384 219 2661 495 
Q 2938 772 2938 1253 
Q 2938 1803 2653 2086 
Q 2369 2369 1819 2369 
L 1522 2369 
L 1522 2688 
L 1678 2688 
Q 2225 2688 2498 2914 
Q 2772 3141 2772 3597 
Q 2772 4006 2547 4223 
Q 2322 4441 1900 4441 
Q 1478 4441 1245 4241 
Q 1013 4041 972 3647 
L 622 3647 
L 622 4469 
z
" transform="scale(0.015625)"/>
       </defs>
       <use xlink:href="#DejaVuSerif-31" transform="translate(0 0.7125)"/>
       <use xlink:href="#DejaVuSerif-30" transform="translate(63.623047 0.7125)"/>
       <use xlink:href="#DejaVuSerif-2212" transform="translate(128.154453 37.046875) scale(0.7)"/>
       <use xlink:href="#DejaVuSerif-33" transform="translate(186.806797 37.046875) scale(0.7)"/>
      </g>
     </g>
    </g>
    <g id="ytick_15">
     <g id="line2d_62">
      <path d="M 536.226416 93.37401 
L 835.92 93.37401 
" clip-path="url(#p8be4d32d23)" style="fill: none; stroke-dasharray: 3.7,1.6; stroke-dashoffset: 0; stroke: #b0b0b0; stroke-opacity: 0.5"/>
     </g>
     <g id="line2d_63">
      <g>
       <use xlink:href="#m96d8d32fd7" x="536.226416" y="93.37401" style="stroke: #000000; stroke-width: 2"/>
      </g>
     </g>
     <g id="line2d_64">
      <g>
       <use xlink:href="#m5cb5fe951c" x="835.92" y="93.37401" style="stroke: #000000; stroke-width: 2"/>
      </g>
     </g>
     <g id="text_24">
      <!-- $\mathdefault{10^{-2}}$ -->
      <g transform="translate(471.886416 103.251979) scale(0.26 -0.26)">
       <use xlink:href="#DejaVuSerif-31" transform="translate(0 0.7125)"/>
       <use xlink:href="#DejaVuSerif-30" transform="translate(63.623047 0.7125)"/>
       <use xlink:href="#DejaVuSerif-2212" transform="translate(128.154453 37.046875) scale(0.7)"/>
       <use xlink:href="#DejaVuSerif-32" transform="translate(186.806797 37.046875) scale(0.7)"/>
      </g>
     </g>
    </g>
    <g id="ytick_16">
     <g id="line2d_65">
      <path d="M 536.226416 65.731005 
L 835.92 65.731005 
" clip-path="url(#p8be4d32d23)" style="fill: none; stroke-dasharray: 3.7,1.6; stroke-dashoffset: 0; stroke: #b0b0b0; stroke-opacity: 0.5"/>
     </g>
     <g id="line2d_66">
      <g>
       <use xlink:href="#m96d8d32fd7" x="536.226416" y="65.731005" style="stroke: #000000; stroke-width: 2"/>
      </g>
     </g>
     <g id="line2d_67">
      <g>
       <use xlink:href="#m5cb5fe951c" x="835.92" y="65.731005" style="stroke: #000000; stroke-width: 2"/>
      </g>
     </g>
     <g id="text_25">
      <!-- $\mathdefault{10^{-1}}$ -->
      <g transform="translate(471.886416 75.608974) scale(0.26 -0.26)">
       <use xlink:href="#DejaVuSerif-31" transform="translate(0 0.7125)"/>
       <use xlink:href="#DejaVuSerif-30" transform="translate(63.623047 0.7125)"/>
       <use xlink:href="#DejaVuSerif-2212" transform="translate(128.154453 37.046875) scale(0.7)"/>
       <use xlink:href="#DejaVuSerif-31" transform="translate(186.806797 37.046875) scale(0.7)"/>
      </g>
     </g>
    </g>
    <g id="ytick_17">
     <g id="line2d_68">
      <path d="M 536.226416 38.088 
L 835.92 38.088 
" clip-path="url(#p8be4d32d23)" style="fill: none; stroke-dasharray: 3.7,1.6; stroke-dashoffset: 0; stroke: #b0b0b0; stroke-opacity: 0.5"/>
     </g>
     <g id="line2d_69">
      <g>
       <use xlink:href="#m96d8d32fd7" x="536.226416" y="38.088" style="stroke: #000000; stroke-width: 2"/>
      </g>
     </g>
     <g id="line2d_70">
      <g>
       <use xlink:href="#m5cb5fe951c" x="835.92" y="38.088" style="stroke: #000000; stroke-width: 2"/>
      </g>
     </g>
     <g id="text_26">
      <!-- $\mathdefault{10^{0}}$ -->
      <g transform="translate(486.966416 47.965969) scale(0.26 -0.26)">
       <use xlink:href="#DejaVuSerif-31" transform="translate(0 0.7125)"/>
       <use xlink:href="#DejaVuSerif-30" transform="translate(63.623047 0.7125)"/>
       <use xlink:href="#DejaVuSerif-30" transform="translate(128.154453 37.046875) scale(0.7)"/>
      </g>
     </g>
    </g>
    <g id="text_27">
     <!-- |E(t) - E(0)| / |E(0)| -->
     <g transform="translate(450.056103 315.146031) rotate(-90) scale(0.26 -0.26)">
      <defs>
       <path id="DejaVuSerif-7c" d="M 1331 4891 
L 1331 -1509 
L 825 -1509 
L 825 4891 
L 1331 4891 
z
" transform="scale(0.015625)"/>
       <path id="DejaVuSerif-45" d="M 353 0 
L 353 331 
L 947 331 
L 947 4331 
L 353 4331 
L 353 4666 
L 4109 4666 
L 4109 3628 
L 3725 3628 
L 3725 4281 
L 1581 4281 
L 1581 2719 
L 3109 2719 
L 3109 3303 
L 3494 3303 
L 3494 1753 
L 3109 1753 
L 3109 2338 
L 1581 2338 
L 1581 384 
L 3775 384 
L 3775 1038 
L 4159 1038 
L 4159 0 
L 353 0 
z
" transform="scale(0.015625)"/>
       <path id="DejaVuSerif-74" d="M 691 2988 
L 184 2988 
L 184 3322 
L 691 3322 
L 691 4353 
L 1269 4353 
L 1269 3322 
L 2350 3322 
L 2350 2988 
L 1269 2988 
L 1269 878 
Q 1269 456 1350 337 
Q 1431 219 1650 219 
Q 1875 219 1978 351 
Q 2081 484 2088 781 
L 2522 781 
Q 2497 328 2275 118 
Q 2053 -91 1600 -91 
Q 1103 -91 897 129 
Q 691 350 691 878 
L 691 2988 
z
" transform="scale(0.015625)"/>
       <path id="DejaVuSerif-2d" d="M 281 1959 
L 1881 1959 
L 1881 1472 
L 281 1472 
L 281 1959 
z
" transform="scale(0.015625)"/>
       <path id="DejaVuSerif-2f" d="M 1656 4666 
L 2156 4666 
L 500 -594 
L 0 -594 
L 1656 4666 
z
" transform="scale(0.015625)"/>
      </defs>
      <use xlink:href="#DejaVuSerif-7c"/>
      <use xlink:href="#DejaVuSerif-45" x="33.691406"/>
      <use xlink:href="#DejaVuSerif-28" x="106.689453"/>
      <use xlink:href="#DejaVuSerif-74" x="145.703125"/>
      <use xlink:href="#DejaVuSerif-29" x="185.888672"/>
      <use xlink:href="#DejaVuSerif-20" x="224.902344"/>
      <use xlink:href="#DejaVuSerif-2d" x="256.689453"/>
      <use xlink:href="#DejaVuSerif-20" x="290.478516"/>
      <use xlink:href="#DejaVuSerif-45" x="322.265625"/>
      <use xlink:href="#DejaVuSerif-28" x="395.263672"/>
      <use xlink:href="#DejaVuSerif-30" x="434.277344"/>
      <use xlink:href="#DejaVuSerif-29" x="497.900391"/>
      <use xlink:href="#DejaVuSerif-7c" x="536.914062"/>
      <use xlink:href="#DejaVuSerif-20" x="570.605469"/>
      <use xlink:href="#DejaVuSerif-2f" x="602.392578"/>
      <use xlink:href="#DejaVuSerif-20" x="636.083984"/>
      <use xlink:href="#DejaVuSerif-7c" x="667.871094"/>
      <use xlink:href="#DejaVuSerif-45" x="701.5625"/>
      <use xlink:href="#DejaVuSerif-28" x="774.560547"/>
      <use xlink:href="#DejaVuSerif-30" x="813.574219"/>
      <use xlink:href="#DejaVuSerif-29" x="877.197266"/>
      <use xlink:href="#DejaVuSerif-7c" x="916.210938"/>
     </g>
    </g>
   </g>
   <g id="line2d_71">
    <path d="M 549.848852 345.2325 
L 550.121573 223.660471 
L 550.394294 215.28496 
L 550.939737 206.810753 
L 551.48518 201.799573 
L 552.303344 196.707675 
L 553.121509 193.032152 
L 554.212394 189.263455 
L 555.30328 186.261664 
L 556.666887 183.149582 
L 558.303216 179.974483 
L 563.484923 170.764838 
L 565.393973 168.039225 
L 567.575745 165.304899 
L 570.030238 162.570119 
L 573.030173 159.565288 
L 576.575552 156.32287 
L 581.211816 152.372169 
L 589.938902 145.271132 
L 597.02966 139.383137 
L 599.211431 137.383627 
L 601.938645 134.394055 
L 605.484024 130.255151 
L 610.938453 123.411962 
L 613.665667 119.673103 
L 615.029274 117.397744 
L 618.301932 111.356413 
L 620.483703 107.021616 
L 621.84731 103.81004 
L 623.75636 98.713501 
L 625.119967 94.483387 
L 626.210853 90.331995 
L 627.301739 85.122949 
L 628.119903 79.987943 
L 628.665346 75.579073 
L 629.210789 69.569073 
L 629.756232 59.800051 
L 630.301675 39.568118 
L 630.574396 56.579138 
L 631.119839 71.327043 
L 631.665282 83.387656 
L 632.210725 101.602076 
L 632.483446 125.058223 
L 632.756168 106.875535 
L 633.028889 99.833583 
L 633.30161 96.635235 
L 633.574332 95.343881 
L 633.847053 95.397033 
L 634.119775 96.717969 
L 634.392496 100.227875 
L 634.665218 109.621443 
L 634.937939 113.995511 
L 635.21066 96.07306 
L 635.756103 81.471392 
L 636.574268 62.629958 
L 636.846989 53.523608 
L 637.11971 22.385889 
L 637.392432 54.28496 
L 637.937875 68.939659 
L 638.756039 85.684681 
L 639.028761 93.019913 
L 639.301482 104.395145 
L 639.574203 125.453657 
L 639.846925 104.359181 
L 640.119646 98.737888 
L 640.392368 95.789079 
L 640.665089 94.31243 
L 640.937811 93.816019 
L 641.210532 94.051143 
L 641.483253 94.871034 
L 641.755975 96.625541 
L 642.028696 100.109154 
L 642.574139 119.673137 
L 642.846861 98.439239 
L 643.392303 83.155009 
L 644.210468 66.52926 
L 644.483189 59.51514 
L 644.755911 48.307721 
L 645.028632 44.252427 
L 645.574075 68.811007 
L 646.119518 90.765599 
L 646.392239 121.012161 
L 646.664961 96.050741 
L 646.937682 92.802774 
L 647.210404 94.392876 
L 647.483125 105.090558 
L 647.755846 98.566787 
L 648.301289 72.316566 
L 648.846732 51.492484 
L 649.119454 39.454663 
L 649.392175 58.333236 
L 649.937618 79.25201 
L 650.210339 95.293887 
L 650.483061 103.003487 
L 650.755782 92.77187 
L 651.028504 92.20315 
L 651.301225 99.272861 
L 651.573946 100.808234 
L 651.846668 81.534071 
L 652.664832 45.36843 
L 652.937554 48.57094 
L 653.755718 84.599348 
L 654.028439 119.158322 
L 654.301161 94.394902 
L 654.573882 90.058745 
L 654.846604 91.423035 
L 655.119325 102.653773 
L 655.392047 93.288434 
L 655.937489 66.989326 
L 656.210211 55.717629 
L 656.482932 22.818859 
L 656.755654 54.910518 
L 657.846539 101.01819 
L 658.119261 89.951474 
L 658.391982 87.875884 
L 658.664704 89.757443 
L 658.937425 100.211812 
L 659.210147 93.731457 
L 659.75559 66.751224 
L 660.028311 55.707667 
L 660.301032 14.241236 
L 660.573754 55.43164 
L 661.119197 78.575368 
L 661.391918 98.431374 
L 661.66464 95.538499 
L 661.937361 88.16342 
L 662.210082 87.329839 
L 662.482804 91.240479 
L 662.755525 129.275218 
L 663.028247 84.36201 
L 663.846411 44.454003 
L 664.119132 49.609599 
L 665.210018 103.238853 
L 665.48274 88.916757 
L 665.755461 86.162869 
L 666.028183 87.36544 
L 666.300904 94.794516 
L 666.573625 98.439752 
L 666.846347 78.341444 
L 667.39179 55.225343 
L 667.664511 20.789453 
L 667.937233 56.520823 
L 668.482675 82.847747 
L 668.755397 112.307933 
L 669.028118 88.285143 
L 669.30084 84.917765 
L 669.573561 86.106069 
L 669.846283 94.585652 
L 670.119004 92.775982 
L 670.664447 62.189981 
L 670.937168 46.695779 
L 671.20989 48.273956 
L 672.028054 96.419972 
L 672.300776 92.357076 
L 672.573497 85.314435 
L 672.846218 84.482881 
L 673.11894 88.128066 
L 673.391661 116.056061 
L 673.664383 81.935262 
L 674.209826 55.465541 
L 674.482547 25.692581 
L 674.755268 57.009401 
L 675.300711 84.834896 
L 675.573433 101.038795 
L 675.846154 86.183234 
L 676.118876 83.430455 
L 676.391597 84.643214 
L 676.664318 92.237089 
L 676.93704 94.257755 
L 677.482483 61.700121 
L 677.755204 45.256257 
L 678.027926 49.608263 
L 678.573368 77.28639 
L 678.84609 106.312269 
L 679.118811 88.978291 
L 679.391533 83.627574 
L 679.664254 83.182286 
L 679.936976 86.856609 
L 680.209697 111.413661 
L 680.482419 81.386556 
L 681.300583 35.799232 
L 681.573304 58.657154 
L 682.391469 93.358976 
L 682.66419 83.993054 
L 682.936911 82.060908 
L 683.209633 83.617008 
L 683.482354 91.584341 
L 683.755076 92.501715 
L 684.57324 40.494106 
L 685.391404 80.924 
L 685.664126 107.42457 
L 685.936847 85.617277 
L 686.209569 81.9593 
L 686.48229 82.121927 
L 686.755012 86.357982 
L 687.027733 123.782332 
L 687.300454 79.130941 
L 687.845897 50.689133 
L 688.118619 43.979798 
L 688.936783 103.05931 
L 689.209504 87.460457 
L 689.482226 81.766665 
L 689.754947 80.779314 
L 690.027669 82.982395 
L 690.30039 92.73668 
L 690.573112 87.87913 
L 691.118554 56.68024 
L 691.377501 -1 
M 691.405048 -1 
L 691.663997 56.69296 
L 692.20944 88.565377 
L 692.482162 91.742829 
L 692.754883 82.53037 
L 693.027605 80.409485 
L 693.300326 81.383773 
L 693.573047 86.904784 
L 693.845769 104.866522 
L 694.11849 75.236033 
L 694.663933 43.623555 
L 694.936655 51.076927 
L 695.754819 101.151583 
L 696.02754 83.842057 
L 696.300262 80.402374 
L 696.572983 80.387737 
L 696.845705 83.778166 
L 697.118426 100.615494 
L 697.663869 65.941609 
L 697.93659 51.271129 
L 698.209312 43.37413 
L 698.754755 76.071942 
L 699.027476 128.303531 
L 699.300197 84.758794 
L 699.572919 79.995677 
L 699.84564 79.160573 
L 700.118362 81.138395 
L 700.391083 89.228013 
L 700.663805 90.216305 
L 701.481969 25.349226 
L 701.75469 57.795342 
L 702.027412 72.107458 
L 702.300133 97.323836 
L 702.572855 86.182098 
L 702.845576 79.884673 
L 703.118298 78.365085 
L 703.391019 79.457599 
L 703.66374 84.598903 
L 703.936462 111.709559 
L 704.209183 74.513021 
L 704.481905 60.024807 
L 704.754626 38.301932 
L 705.57279 88.0186 
L 705.845512 89.025175 
L 706.118233 80.399389 
L 706.390955 78.179014 
L 706.663676 78.633632 
L 706.936398 82.307587 
L 707.209119 100.436965 
L 707.754562 63.394831 
L 708.027283 46.287085 
L 708.300005 49.575505 
L 709.118169 91.550008 
L 709.390891 80.431541 
L 709.663612 77.621618 
L 709.936333 77.558176 
L 710.209055 80.169996 
L 710.481776 90.262192 
L 710.754498 84.549148 
L 711.299941 50.711784 
L 711.572662 44.874574 
L 712.390826 96.599544 
L 712.663548 81.061698 
L 712.936269 77.589828 
L 713.208991 77.106848 
L 713.481712 79.071145 
L 714.027155 91.152308 
L 714.572598 54.042598 
L 714.845319 38.438304 
L 715.663484 102.970237 
L 715.936205 81.331122 
L 716.208926 77.299883 
L 716.481648 76.473659 
L 716.754369 77.922557 
L 717.027091 83.472039 
L 717.299812 103.569914 
L 717.572534 71.826845 
L 717.845255 56.578046 
L 718.117976 26.769348 
L 718.390698 58.423204 
L 718.663419 73.956306 
L 718.936141 124.69661 
L 719.208862 81.982779 
L 719.481584 77.325098 
L 719.754305 76.196706 
L 720.027027 77.283794 
L 720.299748 81.842766 
L 720.572469 117.565826 
L 720.845191 74.266531 
L 721.117912 58.694799 
L 721.390634 29.151612 
L 721.663355 56.466947 
L 721.936077 72.160387 
L 722.208798 113.402727 
L 722.481519 82.153782 
L 722.754241 77.047263 
L 723.026962 75.693687 
L 723.299684 76.487311 
L 723.572405 80.279609 
L 723.845127 98.343901 
L 724.663291 36.964214 
L 725.208734 70.690913 
L 725.481455 102.328452 
L 725.754177 82.626735 
L 726.026898 77.034818 
L 726.299619 75.484675 
L 726.572341 76.072584 
L 726.845062 79.406007 
L 727.117784 93.184485 
L 727.663227 61.723623 
L 727.935948 40.880167 
L 728.481391 69.696252 
L 728.754112 99.558703 
L 729.026834 82.410249 
L 729.299555 76.636694 
L 729.572277 74.984373 
L 729.844998 75.417665 
L 730.11772 78.365412 
L 730.390441 89.471464 
L 730.663162 80.826127 
L 731.208605 42.7554 
L 731.481327 52.5387 
L 731.754048 69.029167 
L 732.02677 97.348707 
L 732.299491 82.482227 
L 732.572212 76.518881 
L 732.844934 74.788443 
L 733.117655 75.132479 
L 733.390377 77.885516 
L 733.663098 87.887023 
L 733.93582 82.187182 
L 734.481263 43.940297 
L 734.753984 51.920516 
L 735.026705 68.751728 
L 735.299427 97.995599 
L 735.572148 81.947271 
L 735.84487 76.087067 
L 736.117591 74.361478 
L 736.390313 74.656617 
L 736.663034 77.252125 
L 736.935755 86.388884 
L 737.208477 83.332401 
L 737.75392 44.164232 
L 738.026641 51.840458 
L 738.299363 68.80527 
L 738.572084 99.301677 
L 738.844805 81.575382 
L 739.117527 75.845463 
L 739.390248 74.149517 
L 739.66297 74.442989 
L 739.935691 77.001093 
L 740.208413 85.921299 
L 740.481134 83.578694 
L 741.026577 43.909388 
L 741.299298 52.094642 
L 741.57202 69.27713 
L 741.844741 105.309983 
L 742.117463 80.639912 
L 742.390184 75.298694 
L 742.662906 73.708588 
L 742.935627 74.036149 
L 743.208348 76.582774 
L 743.48107 85.366787 
L 743.753791 83.435867 
L 744.299234 42.646025 
L 744.571956 52.905943 
L 744.844677 70.124689 
L 745.117398 120.757957 
L 745.39012 79.916848 
L 745.662841 74.954721 
L 745.935563 73.488309 
L 746.208284 73.893023 
L 746.481006 76.540068 
L 746.753727 85.751972 
L 747.026448 82.28962 
L 747.571891 40.641322 
L 748.117334 71.453446 
L 748.390056 107.266485 
L 748.662777 78.8023 
L 748.935499 74.368787 
L 749.20822 73.080827 
L 749.480941 73.592448 
L 749.753663 76.369447 
L 750.026384 86.154887 
L 750.299106 80.78707 
L 750.844549 36.722242 
L 751.662713 96.998004 
L 751.935434 77.919058 
L 752.208156 73.972231 
L 752.480877 72.87439 
L 752.753599 73.534236 
L 753.02632 76.558642 
L 753.299041 87.676035 
L 753.571763 78.602567 
L 753.844484 59.716034 
L 754.117206 28.89783 
L 754.662649 75.516376 
L 754.93537 91.153906 
L 755.208092 77.027614 
L 755.480813 73.564014 
L 755.753534 72.671568 
L 756.026256 73.504845 
L 756.298977 76.845044 
L 756.571699 90.017488 
L 757.117142 57.90362 
L 757.389863 23.548195 
L 757.662584 59.374362 
L 757.935306 78.796859 
L 758.208027 86.406307 
L 758.480749 75.902762 
L 758.75347 72.970289 
L 759.026192 72.316084 
L 759.298913 73.352581 
L 759.571634 77.076068 
L 759.844356 93.519057 
L 760.66252 37.381785 
L 761.207963 83.357639 
L 761.480685 83.2283 
L 761.753406 75.059044 
L 762.026127 72.5969 
L 762.298849 72.190954 
L 762.57157 73.489387 
L 762.844292 77.81162 
L 763.117013 103.299947 
L 763.389735 70.801313 
L 763.662456 52.623587 
L 763.935177 43.766295 
L 764.48062 90.593982 
L 765.026063 74.261018 
L 765.298785 72.239601 
L 765.571506 72.092657 
L 765.844227 73.695787 
L 766.116949 78.811991 
L 766.38967 109.899117 
L 766.662392 67.833007 
L 766.935113 48.975207 
L 767.207835 48.531716 
L 767.480556 67.637754 
L 767.753278 110.527458 
L 768.025999 78.595956 
L 768.29872 73.503275 
L 768.571442 71.898689 
L 768.844163 72.026131 
L 769.116885 73.992526 
L 769.389606 80.21495 
L 769.662328 91.897322 
L 770.20777 43.889714 
L 770.480492 52.686591 
L 771.025935 97.211125 
L 771.298656 76.896622 
L 771.571378 72.854685 
L 771.844099 71.639383 
L 772.11682 72.061409 
L 772.389542 74.479112 
L 772.662263 82.38793 
L 772.934985 83.492355 
L 773.480428 34.848752 
L 774.02587 75.930158 
L 774.298592 87.394268 
L 774.571313 75.44676 
L 774.844035 72.261165 
L 775.116756 71.418082 
L 775.389478 72.161687 
L 775.662199 75.14686 
L 775.934921 85.847368 
L 776.207642 77.453279 
L 776.480363 57.67826 
L 776.753085 29.510872 
L 777.298528 82.372299 
L 777.571249 82.391501 
L 777.843971 74.249894 
L 778.116692 71.768831 
L 778.389413 71.285407 
L 778.662135 72.391722 
L 778.934856 76.131451 
L 779.207578 92.681142 
L 779.753021 53.410569 
L 780.025742 42.891782 
L 780.571185 94.25745 
L 780.843906 79.104243 
L 781.116628 73.23961 
L 781.389349 71.355653 
L 781.662071 71.229003 
L 781.934792 72.756142 
L 782.207514 77.544352 
L 782.480235 143.44764 
L 782.752956 67.721029 
L 783.025678 48.007069 
L 783.298399 49.766125 
L 783.571121 69.236715 
L 783.843842 102.317422 
L 784.116564 76.68628 
L 784.389285 72.366773 
L 784.662006 71.006156 
L 784.934728 71.24594 
L 785.207449 73.281736 
L 785.480171 79.640218 
L 785.752892 89.806521 
L 786.298335 39.439073 
L 787.116499 86.152507 
L 787.389221 74.590905 
L 787.661942 71.45572 
L 787.934664 70.587249 
L 788.207385 71.223628 
L 788.480107 73.900231 
L 788.752828 82.881245 
L 789.025549 79.412279 
L 789.570992 28.616186 
L 790.116435 84.739957 
L 790.389157 80.330082 
L 790.661878 73.157998 
L 790.934599 70.890356 
L 791.207321 70.474152 
L 791.480042 71.57076 
L 791.752764 75.189061 
L 792.025485 90.532595 
L 792.570928 52.254176 
L 792.843649 45.160542 
L 793.116371 66.398294 
L 793.389092 129.85355 
L 793.661814 76.857612 
L 793.934535 72.025196 
L 794.207257 70.448897 
L 794.479978 70.472359 
L 794.752699 72.114173 
L 795.025421 77.136305 
L 795.298142 110.636166 
L 795.570864 65.760326 
L 795.843585 44.08879 
L 796.116307 53.079049 
L 796.66175 87.153878 
L 796.934471 74.346848 
L 797.207192 71.030763 
L 797.479914 70.048124 
L 797.752635 70.528639 
L 798.025357 72.86082 
L 798.298078 80.256673 
L 798.5708 83.275533 
L 798.843521 59.61654 
L 799.116242 0.582571 
L 799.388964 59.790634 
L 799.661685 84.041837 
L 799.934407 79.783915 
L 800.207128 72.627936 
L 800.47985 70.352032 
L 800.752571 69.894197 
L 801.025292 70.887102 
L 801.298014 74.208792 
L 801.570735 87.059153 
L 801.843457 73.070039 
L 802.116178 52.691663 
L 802.3889 44.840422 
L 802.661621 66.73138 
L 802.934343 106.60071 
L 803.207064 75.6734 
L 803.479785 71.207966 
L 803.752507 69.737812 
L 804.025228 69.786574 
L 804.29795 71.391994 
L 804.570671 76.238511 
L 804.843393 122.350825 
L 805.116114 65.295841 
L 805.388835 42.312712 
L 805.661557 54.417663 
L 805.934278 75.983043 
L 806.207 82.781848 
L 806.479721 72.929315 
L 806.752443 70.072437 
L 807.025164 69.269893 
L 807.297885 69.851641 
L 807.570607 72.284089 
L 807.843328 80.052004 
L 808.11605 80.89981 
L 808.661493 34.440553 
L 809.206936 99.015937 
L 809.479657 76.296624 
L 809.752378 71.000938 
L 810.0251 69.228841 
L 810.297821 69.023456 
L 810.570543 70.228261 
L 810.843264 73.948055 
L 811.115986 90.488702 
L 811.661428 47.626861 
L 811.93415 50.926826 
L 812.206871 72.455916 
L 812.479593 85.053573 
L 812.752314 73.039573 
L 813.025036 69.837624 
L 813.297757 68.851302 
L 813.570478 69.230006 
L 813.8432 71.265576 
L 814.115921 77.438929 
L 814.388643 88.094371 
L 814.661364 60.070293 
L 814.934086 13.091348 
L 815.479529 90.385169 
L 815.75225 76.900978 
L 816.024971 71.019857 
L 816.297693 69.064882 
L 816.570414 68.727735 
L 816.843136 69.750577 
L 817.115857 73.021703 
L 817.388579 85.545142 
L 817.6613 71.754089 
L 817.934021 50.074824 
L 818.206743 48.69245 
L 818.752186 86.72884 
L 819.024907 73.110367 
L 819.297629 69.701993 
L 819.57035 68.613749 
L 819.843071 68.886191 
L 820.115793 70.725656 
L 820.388514 76.21003 
L 820.661236 94.916378 
L 821.206679 26.308838 
L 821.752121 87.814505 
L 822.024843 77.007404 
L 822.297564 70.879817 
L 822.297564 70.879817 
" clip-path="url(#p8be4d32d23)" style="fill: none; stroke: #1f77b4; stroke-width: 3; stroke-linecap: square"/>
   </g>
   <g id="patch_8">
    <path d="M 536.226416 345.2325 
L 536.226416 38.088 
" style="fill: none; stroke: #000000; stroke-width: 2; stroke-linejoin: miter; stroke-linecap: square"/>
   </g>
   <g id="patch_9">
    <path d="M 835.92 345.2325 
L 835.92 38.088 
" style="fill: none; stroke: #000000; stroke-width: 2; stroke-linejoin: miter; stroke-linecap: square"/>
   </g>
   <g id="patch_10">
    <path d="M 536.226416 345.2325 
L 835.92 345.2325 
" style="fill: none; stroke: #000000; stroke-width: 2; stroke-linejoin: miter; stroke-linecap: square"/>
   </g>
   <g id="patch_11">
    <path d="M 536.226416 38.088 
L 835.92 38.088 
" style="fill: none; stroke: #000000; stroke-width: 2; stroke-linejoin: miter; stroke-linecap: square"/>
   </g>
  </g>
 </g>
 <defs>
  <clipPath id="pe951507529">
   <rect x="103.44" y="38.088" width="299.693584" height="307.1445"/>
  </clipPath>
  <clipPath id="p8be4d32d23">
   <rect x="536.226416" y="38.088" width="299.693584" height="307.1445"/>
  </clipPath>
 </defs>
</svg>
