<?xml version="1.0" encoding="utf-8" standalone="no"?>
<!DOCTYPE svg PUBLIC "-//W3C//DTD SVG 1.1//EN"
  "http://www.w3.org/Graphics/SVG/1.1/DTD/svg11.dtd">
<svg xmlns:xlink="http://www.w3.org/1999/xlink" width="864pt" height="576pt" viewBox="0 0 864 576" xmlns="http://www.w3.org/2000/svg" version="1.1">
 <metadata>
  <rdf:RDF xmlns:dc="http://purl.org/dc/elements/1.1/" xmlns:cc="http://creativecommons.org/ns#" xmlns:rdf="http://www.w3.org/1999/02/22-rdf-syntax-ns#">
   <cc:Work>
    <dc:type rdf:resource="http://purl.org/dc/dcmitype/StillImage"/>
    <dc:date>2025-06-11T12:15:03.865831</dc:date>
    <dc:format>image/svg+xml</dc:format>
    <dc:creator>
     <cc:Agent>
      <dc:title>Matplotlib v3.7.2, https://matplotlib.org/</dc:title>
     </cc:Agent>
    </dc:creator>
   </cc:Work>
  </rdf:RDF>
 </metadata>
 <defs>
  <style type="text/css">*{stroke-linejoin: round; stroke-linecap: butt}</style>
 </defs>
 <g id="figure_1">
  <g id="patch_1">
   <path d="M 0 576 
L 864 576 
L 864 0 
L 0 0 
z
" style="fill: #ffffff"/>
  </g>
  <g id="axes_1">
   <g id="patch_2">
    <path d="M 130.63 489.2325 
L 833.191364 489.2325 
L 833.191364 28.08 
L 130.63 28.08 
z
" style="fill: #ffffff"/>
   </g>
   <g id="matplotlib.axis_1">
    <g id="xtick_1">
     <g id="line2d_1">
      <path d="M 162.564607 489.2325 
L 162.564607 28.08 
" clip-path="url(#pa78a14d135)" style="fill: none; stroke-dasharray: 3.7,1.6; stroke-dashoffset: 0; stroke: #b0b0b0; stroke-opacity: 0.5"/>
     </g>
     <g id="line2d_2">
      <defs>
       <path id="m4514175d24" d="M 0 0 
L 0 -10 
" style="stroke: #000000; stroke-width: 2"/>
      </defs>
      <g>
       <use xlink:href="#m4514175d24" x="162.564607" y="489.2325" style="stroke: #000000; stroke-width: 2"/>
      </g>
     </g>
     <g id="line2d_3">
      <defs>
       <path id="m9f0979517d" d="M 0 0 
L 0 10 
" style="stroke: #000000; stroke-width: 2"/>
      </defs>
      <g>
       <use xlink:href="#m9f0979517d" x="162.564607" y="28.08" style="stroke: #000000; stroke-width: 2"/>
      </g>
     </g>
     <g id="text_1">
      <!-- 0 -->
      <g transform="translate(154.293357 512.488438) scale(0.26 -0.26)">
       <defs>
        <path id="DejaVuSerif-30" d="M 2034 219 
Q 2513 219 2750 744 
Q 2988 1269 2988 2328 
Q 2988 3391 2750 3916 
Q 2513 4441 2034 4441 
Q 1556 4441 1318 3916 
Q 1081 3391 1081 2328 
Q 1081 1269 1318 744 
Q 1556 219 2034 219 
z
M 2034 -91 
Q 1275 -91 848 546 
Q 422 1184 422 2328 
Q 422 3475 848 4112 
Q 1275 4750 2034 4750 
Q 2797 4750 3222 4112 
Q 3647 3475 3647 2328 
Q 3647 1184 3222 546 
Q 2797 -91 2034 -91 
z
" transform="scale(0.015625)"/>
       </defs>
       <use xlink:href="#DejaVuSerif-30"/>
      </g>
     </g>
    </g>
    <g id="xtick_2">
     <g id="line2d_4">
      <path d="M 290.303037 489.2325 
L 290.303037 28.08 
" clip-path="url(#pa78a14d135)" style="fill: none; stroke-dasharray: 3.7,1.6; stroke-dashoffset: 0; stroke: #b0b0b0; stroke-opacity: 0.5"/>
     </g>
     <g id="line2d_5">
      <g>
       <use xlink:href="#m4514175d24" x="290.303037" y="489.2325" style="stroke: #000000; stroke-width: 2"/>
      </g>
     </g>
     <g id="line2d_6">
      <g>
       <use xlink:href="#m9f0979517d" x="290.303037" y="28.08" style="stroke: #000000; stroke-width: 2"/>
      </g>
     </g>
     <g id="text_2">
      <!-- 500 -->
      <g transform="translate(265.489287 512.488438) scale(0.26 -0.26)">
       <defs>
        <path id="DejaVuSerif-35" d="M 3219 4666 
L 3219 4153 
L 1081 4153 
L 1081 2816 
Q 1244 2928 1461 2984 
Q 1678 3041 1947 3041 
Q 2703 3041 3140 2622 
Q 3578 2203 3578 1478 
Q 3578 738 3136 323 
Q 2694 -91 1894 -91 
Q 1572 -91 1234 -12 
Q 897 66 544 225 
L 544 1131 
L 897 1131 
Q 925 688 1179 453 
Q 1434 219 1894 219 
Q 2388 219 2653 544 
Q 2919 869 2919 1478 
Q 2919 2084 2655 2407 
Q 2391 2731 1894 2731 
Q 1613 2731 1398 2631 
Q 1184 2531 1019 2322 
L 750 2322 
L 750 4666 
L 3219 4666 
z
" transform="scale(0.015625)"/>
       </defs>
       <use xlink:href="#DejaVuSerif-35"/>
       <use xlink:href="#DejaVuSerif-30" x="63.623047"/>
       <use xlink:href="#DejaVuSerif-30" x="127.246094"/>
      </g>
     </g>
    </g>
    <g id="xtick_3">
     <g id="line2d_7">
      <path d="M 418.041467 489.2325 
L 418.041467 28.08 
" clip-path="url(#pa78a14d135)" style="fill: none; stroke-dasharray: 3.7,1.6; stroke-dashoffset: 0; stroke: #b0b0b0; stroke-opacity: 0.5"/>
     </g>
     <g id="line2d_8">
      <g>
       <use xlink:href="#m4514175d24" x="418.041467" y="489.2325" style="stroke: #000000; stroke-width: 2"/>
      </g>
     </g>
     <g id="line2d_9">
      <g>
       <use xlink:href="#m9f0979517d" x="418.041467" y="28.08" style="stroke: #000000; stroke-width: 2"/>
      </g>
     </g>
     <g id="text_3">
      <!-- 1000 -->
      <g transform="translate(384.956467 512.488438) scale(0.26 -0.26)">
       <defs>
        <path id="DejaVuSerif-31" d="M 909 0 
L 909 331 
L 1722 331 
L 1722 4213 
L 781 3603 
L 781 4013 
L 1919 4750 
L 2350 4750 
L 2350 331 
L 3163 331 
L 3163 0 
L 909 0 
z
" transform="scale(0.015625)"/>
       </defs>
       <use xlink:href="#DejaVuSerif-31"/>
       <use xlink:href="#DejaVuSerif-30" x="63.623047"/>
       <use xlink:href="#DejaVuSerif-30" x="127.246094"/>
       <use xlink:href="#DejaVuSerif-30" x="190.869141"/>
      </g>
     </g>
    </g>
    <g id="xtick_4">
     <g id="line2d_10">
      <path d="M 545.779897 489.2325 
L 545.779897 28.08 
" clip-path="url(#pa78a14d135)" style="fill: none; stroke-dasharray: 3.7,1.6; stroke-dashoffset: 0; stroke: #b0b0b0; stroke-opacity: 0.5"/>
     </g>
     <g id="line2d_11">
      <g>
       <use xlink:href="#m4514175d24" x="545.779897" y="489.2325" style="stroke: #000000; stroke-width: 2"/>
      </g>
     </g>
     <g id="line2d_12">
      <g>
       <use xlink:href="#m9f0979517d" x="545.779897" y="28.08" style="stroke: #000000; stroke-width: 2"/>
      </g>
     </g>
     <g id="text_4">
      <!-- 1500 -->
      <g transform="translate(512.694897 512.488438) scale(0.26 -0.26)">
       <use xlink:href="#DejaVuSerif-31"/>
       <use xlink:href="#DejaVuSerif-35" x="63.623047"/>
       <use xlink:href="#DejaVuSerif-30" x="127.246094"/>
       <use xlink:href="#DejaVuSerif-30" x="190.869141"/>
      </g>
     </g>
    </g>
    <g id="xtick_5">
     <g id="line2d_13">
      <path d="M 673.518326 489.2325 
L 673.518326 28.08 
" clip-path="url(#pa78a14d135)" style="fill: none; stroke-dasharray: 3.7,1.6; stroke-dashoffset: 0; stroke: #b0b0b0; stroke-opacity: 0.5"/>
     </g>
     <g id="line2d_14">
      <g>
       <use xlink:href="#m4514175d24" x="673.518326" y="489.2325" style="stroke: #000000; stroke-width: 2"/>
      </g>
     </g>
     <g id="line2d_15">
      <g>
       <use xlink:href="#m9f0979517d" x="673.518326" y="28.08" style="stroke: #000000; stroke-width: 2"/>
      </g>
     </g>
     <g id="text_5">
      <!-- 2000 -->
      <g transform="translate(640.433326 512.488438) scale(0.26 -0.26)">
       <defs>
        <path id="DejaVuSerif-32" d="M 819 3553 
L 469 3553 
L 469 4384 
Q 803 4563 1142 4656 
Q 1481 4750 1806 4750 
Q 2534 4750 2956 4397 
Q 3378 4044 3378 3438 
Q 3378 2753 2422 1800 
Q 2347 1728 2309 1691 
L 1131 513 
L 3078 513 
L 3078 1088 
L 3444 1088 
L 3444 0 
L 434 0 
L 434 341 
L 1850 1753 
Q 2319 2222 2519 2614 
Q 2719 3006 2719 3438 
Q 2719 3909 2473 4175 
Q 2228 4441 1797 4441 
Q 1350 4441 1106 4219 
Q 863 3997 819 3553 
z
" transform="scale(0.015625)"/>
       </defs>
       <use xlink:href="#DejaVuSerif-32"/>
       <use xlink:href="#DejaVuSerif-30" x="63.623047"/>
       <use xlink:href="#DejaVuSerif-30" x="127.246094"/>
       <use xlink:href="#DejaVuSerif-30" x="190.869141"/>
      </g>
     </g>
    </g>
    <g id="xtick_6">
     <g id="line2d_16">
      <path d="M 801.256756 489.2325 
L 801.256756 28.08 
" clip-path="url(#pa78a14d135)" style="fill: none; stroke-dasharray: 3.7,1.6; stroke-dashoffset: 0; stroke: #b0b0b0; stroke-opacity: 0.5"/>
     </g>
     <g id="line2d_17">
      <g>
       <use xlink:href="#m4514175d24" x="801.256756" y="489.2325" style="stroke: #000000; stroke-width: 2"/>
      </g>
     </g>
     <g id="line2d_18">
      <g>
       <use xlink:href="#m9f0979517d" x="801.256756" y="28.08" style="stroke: #000000; stroke-width: 2"/>
      </g>
     </g>
     <g id="text_6">
      <!-- 2500 -->
      <g transform="translate(768.171756 512.488438) scale(0.26 -0.26)">
       <use xlink:href="#DejaVuSerif-32"/>
       <use xlink:href="#DejaVuSerif-35" x="63.623047"/>
       <use xlink:href="#DejaVuSerif-30" x="127.246094"/>
       <use xlink:href="#DejaVuSerif-30" x="190.869141"/>
      </g>
     </g>
    </g>
    <g id="text_7">
     <!-- $t$ (a.u.) -->
     <g transform="translate(438.490682 541.651562) scale(0.26 -0.26)">
      <defs>
       <path id="Cmmi10-74" d="M 397 519 
Q 397 613 416 697 
L 878 2534 
L 206 2534 
Q 141 2534 141 2619 
Q 166 2759 225 2759 
L 934 2759 
L 1191 3803 
Q 1216 3888 1291 3947 
Q 1366 4006 1459 4006 
Q 1541 4006 1595 3957 
Q 1650 3909 1650 3828 
Q 1650 3809 1648 3798 
Q 1647 3788 1644 3775 
L 1388 2759 
L 2047 2759 
Q 2113 2759 2113 2675 
Q 2109 2659 2100 2621 
Q 2091 2584 2075 2559 
Q 2059 2534 2028 2534 
L 1331 2534 
L 872 684 
Q 825 503 825 372 
Q 825 97 1013 97 
Q 1294 97 1511 361 
Q 1728 625 1844 941 
Q 1869 978 1894 978 
L 1972 978 
Q 1997 978 2012 961 
Q 2028 944 2028 922 
Q 2028 909 2022 903 
Q 1881 516 1612 222 
Q 1344 -72 997 -72 
Q 744 -72 570 93 
Q 397 259 397 519 
z
" transform="scale(0.015625)"/>
       <path id="DejaVuSerif-20" transform="scale(0.015625)"/>
       <path id="DejaVuSerif-28" d="M 2041 -997 
Q 1281 -656 893 83 
Q 506 822 506 1931 
Q 506 3044 893 3783 
Q 1281 4522 2041 4863 
L 2041 4556 
Q 1559 4225 1350 3623 
Q 1141 3022 1141 1931 
Q 1141 844 1350 242 
Q 1559 -359 2041 -691 
L 2041 -997 
z
" transform="scale(0.015625)"/>
       <path id="DejaVuSerif-61" d="M 2547 1044 
L 2547 1747 
L 1806 1747 
Q 1378 1747 1168 1562 
Q 959 1378 959 997 
Q 959 650 1171 447 
Q 1384 244 1747 244 
Q 2106 244 2326 466 
Q 2547 688 2547 1044 
z
M 3122 2075 
L 3122 331 
L 3634 331 
L 3634 0 
L 2547 0 
L 2547 359 
Q 2356 128 2106 18 
Q 1856 -91 1522 -91 
Q 969 -91 644 203 
Q 319 497 319 997 
Q 319 1513 691 1797 
Q 1063 2081 1741 2081 
L 2547 2081 
L 2547 2309 
Q 2547 2688 2317 2895 
Q 2088 3103 1672 3103 
Q 1328 3103 1125 2947 
Q 922 2791 872 2484 
L 575 2484 
L 575 3156 
Q 875 3284 1158 3348 
Q 1441 3413 1709 3413 
Q 2400 3413 2761 3070 
Q 3122 2728 3122 2075 
z
" transform="scale(0.015625)"/>
       <path id="DejaVuSerif-2e" d="M 603 325 
Q 603 500 722 622 
Q 841 744 1019 744 
Q 1191 744 1312 622 
Q 1434 500 1434 325 
Q 1434 153 1312 31 
Q 1191 -91 1019 -91 
Q 841 -91 722 29 
Q 603 150 603 325 
z
" transform="scale(0.015625)"/>
       <path id="DejaVuSerif-75" d="M 2266 3322 
L 3341 3322 
L 3341 331 
L 3884 331 
L 3884 0 
L 2766 0 
L 2766 588 
Q 2606 256 2353 82 
Q 2100 -91 1766 -91 
Q 1213 -91 952 223 
Q 691 538 691 1209 
L 691 2988 
L 172 2988 
L 172 3322 
L 1269 3322 
L 1269 1388 
Q 1269 781 1417 556 
Q 1566 331 1947 331 
Q 2347 331 2556 625 
Q 2766 919 2766 1478 
L 2766 2988 
L 2266 2988 
L 2266 3322 
z
" transform="scale(0.015625)"/>
       <path id="DejaVuSerif-29" d="M 453 -997 
L 453 -691 
Q 934 -359 1145 242 
Q 1356 844 1356 1931 
Q 1356 3022 1145 3623 
Q 934 4225 453 4556 
L 453 4863 
Q 1216 4522 1603 3783 
Q 1991 3044 1991 1931 
Q 1991 822 1603 83 
Q 1216 -656 453 -997 
z
" transform="scale(0.015625)"/>
      </defs>
      <use xlink:href="#Cmmi10-74" transform="translate(0 0.015625)"/>
      <use xlink:href="#DejaVuSerif-20" transform="translate(36.083984 0.015625)"/>
      <use xlink:href="#DejaVuSerif-28" transform="translate(67.871094 0.015625)"/>
      <use xlink:href="#DejaVuSerif-61" transform="translate(106.884766 0.015625)"/>
      <use xlink:href="#DejaVuSerif-2e" transform="translate(166.503906 0.015625)"/>
      <use xlink:href="#DejaVuSerif-75" transform="translate(198.291016 0.015625)"/>
      <use xlink:href="#DejaVuSerif-2e" transform="translate(262.695312 0.015625)"/>
      <use xlink:href="#DejaVuSerif-29" transform="translate(294.482422 0.015625)"/>
     </g>
    </g>
   </g>
   <g id="matplotlib.axis_2">
    <g id="ytick_1">
     <g id="line2d_19">
      <path d="M 130.63 456.408382 
L 833.191364 456.408382 
" clip-path="url(#pa78a14d135)" style="fill: none; stroke-dasharray: 3.7,1.6; stroke-dashoffset: 0; stroke: #b0b0b0; stroke-opacity: 0.5"/>
     </g>
     <g id="line2d_20">
      <defs>
       <path id="m31f3df2be4" d="M 0 0 
L 10 0 
" style="stroke: #000000; stroke-width: 2"/>
      </defs>
      <g>
       <use xlink:href="#m31f3df2be4" x="130.63" y="456.408382" style="stroke: #000000; stroke-width: 2"/>
      </g>
     </g>
     <g id="line2d_21">
      <defs>
       <path id="me319599c3c" d="M 0 0 
L -10 0 
" style="stroke: #000000; stroke-width: 2"/>
      </defs>
      <g>
       <use xlink:href="#me319599c3c" x="833.191364" y="456.408382" style="stroke: #000000; stroke-width: 2"/>
      </g>
     </g>
     <g id="text_8">
      <!-- 0.5 -->
      <g transform="translate(85.781875 466.286351) scale(0.26 -0.26)">
       <use xlink:href="#DejaVuSerif-30"/>
       <use xlink:href="#DejaVuSerif-2e" x="63.623047"/>
       <use xlink:href="#DejaVuSerif-35" x="95.410156"/>
      </g>
     </g>
    </g>
    <g id="ytick_2">
     <g id="line2d_22">
      <path d="M 130.63 381.704462 
L 833.191364 381.704462 
" clip-path="url(#pa78a14d135)" style="fill: none; stroke-dasharray: 3.7,1.6; stroke-dashoffset: 0; stroke: #b0b0b0; stroke-opacity: 0.5"/>
     </g>
     <g id="line2d_23">
      <g>
       <use xlink:href="#m31f3df2be4" x="130.63" y="381.704462" style="stroke: #000000; stroke-width: 2"/>
      </g>
     </g>
     <g id="line2d_24">
      <g>
       <use xlink:href="#me319599c3c" x="833.191364" y="381.704462" style="stroke: #000000; stroke-width: 2"/>
      </g>
     </g>
     <g id="text_9">
      <!-- 1.0 -->
      <g transform="translate(85.781875 391.582431) scale(0.26 -0.26)">
       <use xlink:href="#DejaVuSerif-31"/>
       <use xlink:href="#DejaVuSerif-2e" x="63.623047"/>
       <use xlink:href="#DejaVuSerif-30" x="95.410156"/>
      </g>
     </g>
    </g>
    <g id="ytick_3">
     <g id="line2d_25">
      <path d="M 130.63 307.000541 
L 833.191364 307.000541 
" clip-path="url(#pa78a14d135)" style="fill: none; stroke-dasharray: 3.7,1.6; stroke-dashoffset: 0; stroke: #b0b0b0; stroke-opacity: 0.5"/>
     </g>
     <g id="line2d_26">
      <g>
       <use xlink:href="#m31f3df2be4" x="130.63" y="307.000541" style="stroke: #000000; stroke-width: 2"/>
      </g>
     </g>
     <g id="line2d_27">
      <g>
       <use xlink:href="#me319599c3c" x="833.191364" y="307.000541" style="stroke: #000000; stroke-width: 2"/>
      </g>
     </g>
     <g id="text_10">
      <!-- 1.5 -->
      <g transform="translate(85.781875 316.87851) scale(0.26 -0.26)">
       <use xlink:href="#DejaVuSerif-31"/>
       <use xlink:href="#DejaVuSerif-2e" x="63.623047"/>
       <use xlink:href="#DejaVuSerif-35" x="95.410156"/>
      </g>
     </g>
    </g>
    <g id="ytick_4">
     <g id="line2d_28">
      <path d="M 130.63 232.296621 
L 833.191364 232.296621 
" clip-path="url(#pa78a14d135)" style="fill: none; stroke-dasharray: 3.7,1.6; stroke-dashoffset: 0; stroke: #b0b0b0; stroke-opacity: 0.5"/>
     </g>
     <g id="line2d_29">
      <g>
       <use xlink:href="#m31f3df2be4" x="130.63" y="232.296621" style="stroke: #000000; stroke-width: 2"/>
      </g>
     </g>
     <g id="line2d_30">
      <g>
       <use xlink:href="#me319599c3c" x="833.191364" y="232.296621" style="stroke: #000000; stroke-width: 2"/>
      </g>
     </g>
     <g id="text_11">
      <!-- 2.0 -->
      <g transform="translate(85.781875 242.17459) scale(0.26 -0.26)">
       <use xlink:href="#DejaVuSerif-32"/>
       <use xlink:href="#DejaVuSerif-2e" x="63.623047"/>
       <use xlink:href="#DejaVuSerif-30" x="95.410156"/>
      </g>
     </g>
    </g>
    <g id="ytick_5">
     <g id="line2d_31">
      <path d="M 130.63 157.5927 
L 833.191364 157.5927 
" clip-path="url(#pa78a14d135)" style="fill: none; stroke-dasharray: 3.7,1.6; stroke-dashoffset: 0; stroke: #b0b0b0; stroke-opacity: 0.5"/>
     </g>
     <g id="line2d_32">
      <g>
       <use xlink:href="#m31f3df2be4" x="130.63" y="157.5927" style="stroke: #000000; stroke-width: 2"/>
      </g>
     </g>
     <g id="line2d_33">
      <g>
       <use xlink:href="#me319599c3c" x="833.191364" y="157.5927" style="stroke: #000000; stroke-width: 2"/>
      </g>
     </g>
     <g id="text_12">
      <!-- 2.5 -->
      <g transform="translate(85.781875 167.470669) scale(0.26 -0.26)">
       <use xlink:href="#DejaVuSerif-32"/>
       <use xlink:href="#DejaVuSerif-2e" x="63.623047"/>
       <use xlink:href="#DejaVuSerif-35" x="95.410156"/>
      </g>
     </g>
    </g>
    <g id="ytick_6">
     <g id="line2d_34">
      <path d="M 130.63 82.88878 
L 833.191364 82.88878 
" clip-path="url(#pa78a14d135)" style="fill: none; stroke-dasharray: 3.7,1.6; stroke-dashoffset: 0; stroke: #b0b0b0; stroke-opacity: 0.5"/>
     </g>
     <g id="line2d_35">
      <g>
       <use xlink:href="#m31f3df2be4" x="130.63" y="82.88878" style="stroke: #000000; stroke-width: 2"/>
      </g>
     </g>
     <g id="line2d_36">
      <g>
       <use xlink:href="#me319599c3c" x="833.191364" y="82.88878" style="stroke: #000000; stroke-width: 2"/>
      </g>
     </g>
     <g id="text_13">
      <!-- 3.0 -->
      <g transform="translate(85.781875 92.766749) scale(0.26 -0.26)">
       <defs>
        <path id="DejaVuSerif-33" d="M 622 4469 
Q 988 4606 1323 4678 
Q 1659 4750 1953 4750 
Q 2638 4750 3022 4454 
Q 3406 4159 3406 3634 
Q 3406 3213 3140 2930 
Q 2875 2647 2388 2547 
Q 2963 2466 3280 2130 
Q 3597 1794 3597 1259 
Q 3597 606 3158 257 
Q 2719 -91 1894 -91 
Q 1528 -91 1179 -12 
Q 831 66 488 225 
L 488 1131 
L 838 1131 
Q 869 681 1141 450 
Q 1413 219 1906 219 
Q 2384 219 2661 495 
Q 2938 772 2938 1253 
Q 2938 1803 2653 2086 
Q 2369 2369 1819 2369 
L 1522 2369 
L 1522 2688 
L 1678 2688 
Q 2225 2688 2498 2914 
Q 2772 3141 2772 3597 
Q 2772 4006 2547 4223 
Q 2322 4441 1900 4441 
Q 1478 4441 1245 4241 
Q 1013 4041 972 3647 
L 622 3647 
L 622 4469 
z
" transform="scale(0.015625)"/>
       </defs>
       <use xlink:href="#DejaVuSerif-33"/>
       <use xlink:href="#DejaVuSerif-2e" x="63.623047"/>
       <use xlink:href="#DejaVuSerif-30" x="95.410156"/>
      </g>
     </g>
    </g>
    <g id="text_14">
     <!-- $|\vec{p}_i|$ (a.u.) -->
     <g transform="translate(75.281875 315.72625) rotate(-90) scale(0.26 -0.26)">
      <defs>
       <path id="Cmsy10-6a" d="M 763 -1484 
L 763 4684 
Q 763 4734 800 4767 
Q 838 4800 891 4800 
Q 938 4800 978 4767 
Q 1019 4734 1019 4684 
L 1019 -1484 
Q 1019 -1534 978 -1567 
Q 938 -1600 891 -1600 
Q 838 -1600 800 -1567 
Q 763 -1534 763 -1484 
z
" transform="scale(0.015625)"/>
       <path id="Cmmi10-7e" d="M 1281 3809 
Q 1231 3809 1198 3846 
Q 1166 3884 1166 3938 
Q 1166 3984 1198 4023 
Q 1231 4063 1281 4063 
L 3547 4063 
Q 3378 4291 3378 4441 
Q 3378 4497 3417 4533 
Q 3456 4569 3506 4569 
Q 3613 4569 3634 4469 
Q 3697 4194 3938 4044 
Q 4000 4003 4000 3938 
Q 4000 3859 3938 3828 
Q 3575 3647 3353 3347 
Q 3328 3303 3256 3303 
Q 3209 3303 3168 3340 
Q 3128 3378 3128 3431 
Q 3128 3547 3438 3809 
L 1281 3809 
z
" transform="scale(0.015625)"/>
       <path id="Cmmi10-70" d="M -159 -1241 
Q -219 -1241 -219 -1159 
Q -197 -1019 -134 -1019 
Q 66 -1019 145 -983 
Q 225 -947 269 -800 
L 991 2081 
Q 1038 2200 1038 2388 
Q 1038 2663 850 2663 
Q 650 2663 553 2423 
Q 456 2184 366 1819 
Q 366 1778 313 1778 
L 238 1778 
Q 222 1778 203 1801 
Q 184 1825 184 1844 
Q 253 2122 317 2315 
Q 381 2509 517 2668 
Q 653 2828 856 2828 
Q 1075 2828 1240 2704 
Q 1406 2581 1453 2369 
Q 1628 2572 1840 2700 
Q 2053 2828 2278 2828 
Q 2547 2828 2745 2684 
Q 2944 2541 3044 2308 
Q 3144 2075 3144 1806 
Q 3144 1394 2933 953 
Q 2722 513 2361 220 
Q 2000 -72 1588 -72 
Q 1400 -72 1248 34 
Q 1097 141 1013 313 
L 722 -825 
Q 706 -919 703 -934 
Q 703 -1019 1125 -1019 
Q 1191 -1019 1191 -1100 
Q 1169 -1184 1155 -1212 
Q 1141 -1241 1081 -1241 
L -159 -1241 
z
M 1594 97 
Q 1816 97 2006 280 
Q 2197 463 2316 691 
Q 2403 863 2479 1111 
Q 2556 1359 2612 1640 
Q 2669 1922 2669 2088 
Q 2669 2234 2630 2362 
Q 2591 2491 2502 2577 
Q 2413 2663 2266 2663 
Q 2031 2663 1823 2495 
Q 1616 2328 1447 2081 
L 1447 2059 
L 1094 647 
Q 1138 419 1263 258 
Q 1388 97 1594 97 
z
" transform="scale(0.015625)"/>
       <path id="Cmmi10-69" d="M 500 459 
Q 500 578 550 709 
L 1069 2088 
Q 1153 2322 1153 2472 
Q 1153 2663 1013 2663 
Q 759 2663 595 2402 
Q 431 2141 353 1819 
Q 341 1778 300 1778 
L 225 1778 
Q 172 1778 172 1838 
L 172 1856 
Q 275 2238 487 2533 
Q 700 2828 1025 2828 
Q 1253 2828 1411 2678 
Q 1569 2528 1569 2297 
Q 1569 2178 1516 2047 
L 997 672 
Q 909 459 909 288 
Q 909 97 1056 97 
Q 1306 97 1473 364 
Q 1641 631 1709 941 
Q 1722 978 1759 978 
L 1838 978 
Q 1863 978 1878 961 
Q 1894 944 1894 922 
Q 1894 916 1888 903 
Q 1800 541 1583 234 
Q 1366 -72 1044 -72 
Q 819 -72 659 83 
Q 500 238 500 459 
z
M 1222 3878 
Q 1222 4013 1334 4122 
Q 1447 4231 1581 4231 
Q 1691 4231 1761 4164 
Q 1831 4097 1831 3994 
Q 1831 3850 1717 3742 
Q 1603 3634 1466 3634 
Q 1363 3634 1292 3704 
Q 1222 3775 1222 3878 
z
" transform="scale(0.015625)"/>
      </defs>
      <use xlink:href="#Cmsy10-6a" transform="translate(0 0.53125)"/>
      <use xlink:href="#Cmmi10-7e" transform="translate(19.040039 5.609375)"/>
      <use xlink:href="#Cmmi10-70" transform="translate(27.685547 0.53125)"/>
      <use xlink:href="#Cmmi10-69" transform="translate(82.442656 -16.475) scale(0.7)"/>
      <use xlink:href="#Cmsy10-6a" transform="translate(112.91668 0.53125)"/>
      <use xlink:href="#DejaVuSerif-20" transform="translate(140.602227 0.53125)"/>
      <use xlink:href="#DejaVuSerif-28" transform="translate(172.389336 0.53125)"/>
      <use xlink:href="#DejaVuSerif-61" transform="translate(211.403008 0.53125)"/>
      <use xlink:href="#DejaVuSerif-2e" transform="translate(271.022148 0.53125)"/>
      <use xlink:href="#DejaVuSerif-75" transform="translate(302.809258 0.53125)"/>
      <use xlink:href="#DejaVuSerif-2e" transform="translate(367.213555 0.53125)"/>
      <use xlink:href="#DejaVuSerif-29" transform="translate(399.000664 0.53125)"/>
     </g>
    </g>
   </g>
   <g id="line2d_37">
    <path d="M 162.564607 281.814554 
L 164.482602 281.943792 
L 165.121933 282.184067 
L 165.761265 282.55027 
L 166.400596 282.720239 
L 167.679259 282.019995 
L 168.318591 282.662686 
L 169.597254 282.151831 
L 170.236585 282.640917 
L 170.875917 282.24382 
L 172.15458 282.86043 
L 172.793911 282.286844 
L 173.433243 282.222123 
L 174.711906 282.710452 
L 175.351237 282.797887 
L 175.990569 282.724419 
L 176.6299 282.525971 
L 177.269231 282.699799 
L 177.908563 283.160987 
L 178.547894 282.612665 
L 179.187226 283.196147 
L 179.826557 282.786962 
L 180.465889 282.956327 
L 181.744552 283.613437 
L 182.383883 283.611461 
L 183.023215 283.251675 
L 183.662546 283.729074 
L 184.301878 283.744762 
L 184.941209 284.059138 
L 185.580541 283.908103 
L 186.219872 283.932879 
L 186.859204 284.084086 
L 187.498535 283.56015 
L 188.137867 283.93635 
L 189.41653 283.004519 
L 190.695193 282.722605 
L 191.334524 282.898101 
L 191.973856 283.509796 
L 192.613187 282.620436 
L 193.252518 283.213805 
L 193.89185 282.293094 
L 194.531181 283.198605 
L 195.170513 283.21734 
L 195.809844 282.732783 
L 196.449176 282.473802 
L 197.088507 282.495682 
L 198.36717 283.209956 
L 199.006502 282.70673 
L 199.645833 281.82866 
L 200.285165 282.909294 
L 200.924496 282.363247 
L 201.563828 282.409187 
L 202.203159 282.342886 
L 202.842491 282.794 
L 203.481822 281.676118 
L 204.121154 282.846502 
L 204.760485 282.783389 
L 205.399817 281.754301 
L 206.039148 281.717523 
L 207.317811 282.880995 
L 207.957143 283.036475 
L 211.793131 282.844453 
L 212.432463 282.413442 
L 213.071794 281.780691 
L 213.711126 281.416085 
L 214.350457 281.845416 
L 214.989789 282.744258 
L 215.62912 282.860515 
L 216.268452 281.845682 
L 216.907783 281.450818 
L 217.547115 282.58129 
L 218.186446 282.765748 
L 218.825778 281.486341 
L 219.465109 281.996247 
L 220.104441 282.910477 
L 220.743772 281.579634 
L 221.383104 281.976227 
L 222.022435 282.857405 
L 222.661767 281.402378 
L 223.301098 282.426625 
L 223.94043 282.436684 
L 224.579761 281.421043 
L 225.219093 282.919208 
L 225.858424 281.560425 
L 226.497755 282.281278 
L 227.137087 282.383723 
L 227.776418 281.485807 
L 228.41575 282.873265 
L 229.055081 281.312985 
L 229.694413 282.71123 
L 230.333744 281.781414 
L 231.612407 282.399389 
L 232.251739 281.502336 
L 232.89107 282.838298 
L 233.530402 281.306267 
L 234.169733 282.809836 
L 234.809065 281.524088 
L 235.448396 282.405433 
L 236.727059 281.760856 
L 237.366391 282.681212 
L 238.005722 281.311537 
L 238.645054 282.861888 
L 239.284385 281.456147 
L 239.923717 282.387784 
L 240.563048 282.18708 
L 241.20238 281.561393 
L 241.841711 282.843152 
L 242.481042 281.317405 
L 243.120374 282.520331 
L 243.759705 282.113716 
L 244.399037 281.568017 
L 245.038368 282.837828 
L 245.6777 281.460854 
L 246.956363 282.681528 
L 247.595694 281.346114 
L 248.235026 282.273386 
L 248.874357 282.663242 
L 249.513689 281.387016 
L 250.792352 282.786811 
L 251.431683 281.68562 
L 252.071015 281.361945 
L 252.710346 282.468274 
L 253.349678 282.701495 
L 253.989009 281.748502 
L 254.628341 281.25315 
L 255.907004 282.702331 
L 256.546335 282.597917 
L 258.464329 281.271864 
L 259.103661 281.396733 
L 259.742992 281.265111 
L 260.382324 281.581814 
L 261.021655 281.380323 
L 261.660987 281.636519 
L 262.300318 281.293135 
L 262.93965 281.55015 
L 263.578981 281.209887 
L 264.218313 281.655335 
L 264.857644 281.469801 
L 265.496976 282.015591 
L 266.775639 281.867278 
L 267.41497 282.038794 
L 269.332965 281.249808 
L 271.250959 281.477386 
L 271.890291 281.339969 
L 272.529622 280.967975 
L 273.168954 281.272258 
L 273.808285 280.783356 
L 277.644274 279.488328 
L 278.922937 279.906381 
L 280.2016 280.80345 
L 280.840931 281.064364 
L 281.480263 281.103815 
L 282.119594 281.289521 
L 282.758926 281.992019 
L 283.398257 281.833882 
L 284.037589 281.395019 
L 285.316252 281.521939 
L 285.955583 281.787736 
L 286.594915 282.615586 
L 287.234246 283.148796 
L 287.873578 282.02572 
L 288.512909 282.949191 
L 289.152241 282.660616 
L 289.791572 283.112523 
L 290.430903 282.280263 
L 291.070235 283.624752 
L 291.709566 283.032702 
L 292.348898 282.230437 
L 292.988229 282.6011 
L 293.627561 283.326985 
L 294.266892 283.775481 
L 294.906224 283.930669 
L 300.020876 284.097585 
L 301.299539 283.858614 
L 302.578202 283.240647 
L 303.217533 283.179686 
L 303.856865 283.807289 
L 304.496196 284.698359 
L 305.135528 284.246235 
L 305.774859 283.498749 
L 306.41419 284.889956 
L 307.053522 283.703209 
L 307.692853 285.098052 
L 308.332185 284.119823 
L 308.971516 284.080569 
L 309.610848 284.563748 
L 310.250179 284.661921 
L 310.889511 284.39165 
L 311.528842 285.070851 
L 312.168174 285.241684 
L 312.807505 285.596113 
L 313.446837 285.275281 
L 314.086168 285.596591 
L 314.7255 286.398349 
L 315.364831 286.779497 
L 317.282826 287.521559 
L 319.20082 286.606828 
L 319.840152 286.88308 
L 321.118815 286.481666 
L 321.758146 286.477739 
L 322.397477 286.648142 
L 323.036809 286.6934 
L 323.67614 286.219887 
L 324.315472 285.917725 
L 324.954803 286.784131 
L 325.594135 286.809821 
L 326.233466 286.336913 
L 326.872798 287.286686 
L 327.512129 286.7672 
L 328.151461 287.43715 
L 330.069455 286.294287 
L 330.708787 285.503881 
L 331.348118 285.59141 
L 331.98745 285.482183 
L 332.626781 284.697575 
L 333.266113 284.73902 
L 333.905444 284.550411 
L 334.544776 284.661697 
L 335.184107 285.2076 
L 335.823439 285.474633 
L 336.46277 286.025353 
L 338.380765 286.966798 
L 339.659427 289.535694 
L 341.577422 294.164348 
L 342.216753 296.451322 
L 342.856085 299.857135 
L 344.134748 308.420213 
L 344.774079 311.38881 
L 345.413411 312.359141 
L 346.692074 312.611941 
L 347.331405 313.7123 
L 347.970737 317.947198 
L 348.610068 326.737125 
L 349.888731 353.2111 
L 350.528063 366.717698 
L 351.167394 395.375178 
L 351.806726 430.883769 
L 353.085389 363.516308 
L 353.72472 301.431541 
L 354.364052 380.2768 
L 355.003383 210.434868 
L 355.642714 218.707833 
L 356.282046 339.175131 
L 356.921377 311.32616 
L 358.20004 387.052817 
L 358.839372 318.678673 
L 359.478703 288.605354 
L 360.118035 334.043267 
L 360.757366 242.877011 
L 361.396698 365.525074 
L 362.036029 354.451237 
L 362.675361 178.223395 
L 363.954024 349.38137 
L 365.872018 418.4819 
L 366.51135 425.542838 
L 367.150681 426.014701 
L 367.790013 228.474004 
L 368.429344 189.730021 
L 369.068676 286.421439 
L 369.708007 353.228158 
L 370.347339 285.86468 
L 370.98667 368.277469 
L 371.626001 339.950518 
L 372.265333 350.284634 
L 372.904664 219.503048 
L 373.543996 311.240908 
L 374.183327 200.234432 
L 374.822659 335.444861 
L 375.46199 370.074206 
L 376.101322 333.999607 
L 376.740653 173.169076 
L 377.379985 326.964796 
L 378.019316 265.906533 
L 378.658648 331.545868 
L 379.297979 355.876677 
L 379.937311 372.86429 
L 380.576642 317.156075 
L 381.215974 171.324023 
L 381.855305 168.92074 
L 382.494637 248.671408 
L 383.133968 355.423899 
L 383.7733 370.917287 
L 384.412631 229.719205 
L 385.051963 357.430898 
L 386.330626 459.346912 
L 386.969957 409.165454 
L 387.609288 473.968224 
L 388.24862 478.28074 
L 389.527283 422.536379 
L 390.166614 386.827558 
L 390.805946 386.184676 
L 391.445277 364.515253 
L 392.084609 395.805015 
L 392.72394 443.786196 
L 393.363272 463.995477 
L 394.002603 467.115654 
L 394.641935 453.478772 
L 395.920598 355.969023 
L 396.559929 415.276951 
L 397.199261 443.461201 
L 397.838592 459.96237 
L 398.477924 471.310714 
L 399.117255 479.820269 
L 399.756587 486.515393 
L 400.395918 491.907804 
L 401.03525 496.262579 
L 401.674581 499.707698 
L 402.313913 502.288866 
L 402.953244 504.006768 
L 403.592575 504.85029 
L 404.231907 504.84331 
L 404.871238 504.077454 
L 405.51057 502.495382 
L 406.149901 500.076074 
L 406.789233 496.803369 
L 407.428564 492.62533 
L 408.067896 487.412318 
L 408.707227 480.896758 
L 409.346559 472.552545 
L 409.98589 461.291457 
L 410.625222 444.506898 
L 411.264553 413.929686 
L 411.903885 485.254847 
L 412.543216 512.171033 
L 413.182548 507.207915 
L 413.821879 498.513521 
L 414.461211 487.45097 
L 415.100542 472.444191 
L 415.739874 448.621238 
L 416.379205 388.339341 
L 417.018537 510.865298 
L 417.657868 505.824394 
L 418.2972 494.558099 
L 418.936531 480.487365 
L 419.575862 460.559384 
L 420.215194 423.043736 
L 420.854525 487.857197 
L 421.493857 520.345798 
L 422.133188 520.861318 
L 422.77252 518.814811 
L 424.051183 513.158544 
L 425.329846 506.708975 
L 426.608509 499.107153 
L 427.887172 489.596279 
L 428.526503 483.667601 
L 429.165835 476.4835 
L 429.805166 467.370098 
L 430.444498 454.716179 
L 431.083829 431.040176 
L 431.723161 337.949179 
L 432.362492 514.147704 
L 433.001824 513.291146 
L 434.280487 501.456019 
L 434.919818 494.086097 
L 435.55915 485.163049 
L 436.198481 473.58316 
L 436.837812 456.650658 
L 437.477144 424.632371 
L 438.116475 214.119482 
L 438.755807 396.26213 
L 439.395138 425.473056 
L 440.03447 437.823619 
L 440.673801 445.123565 
L 441.313133 450.107745 
L 441.952464 453.800369 
L 442.591796 456.684622 
L 443.870459 460.971387 
L 445.149122 464.068773 
L 446.427785 466.461065 
L 447.706448 468.37924 
L 448.985111 469.91704 
L 450.903105 471.753472 
L 452.821099 473.209902 
L 454.739094 474.411385 
L 457.29642 475.708856 
L 459.853746 476.746952 
L 463.050403 477.805303 
L 466.886392 478.811941 
L 471.361712 479.7386 
L 476.476364 480.567446 
L 482.869679 481.373097 
L 490.541657 482.109295 
L 500.131629 482.79856 
L 512.278927 483.438218 
L 527.622883 484.015465 
L 548.08149 484.549124 
L 575.572744 485.027926 
L 613.932632 485.454681 
L 668.91514 485.825652 
L 752.028232 486.144685 
L 801.256756 486.266024 
L 801.256756 486.266024 
" clip-path="url(#pa78a14d135)" style="fill: none; stroke: #1f77b4; stroke-width: 3; stroke-linecap: square"/>
   </g>
   <g id="line2d_38">
    <path d="M 162.564607 281.817872 
L 165.121933 281.875713 
L 166.400596 281.566784 
L 167.679259 281.155124 
L 168.318591 281.257906 
L 169.597254 281.929045 
L 170.236585 282.050003 
L 170.875917 281.785436 
L 171.515248 281.396716 
L 172.15458 281.262239 
L 172.793911 281.475439 
L 173.433243 281.882725 
L 174.072574 282.129805 
L 174.711906 282.036257 
L 175.990569 281.440217 
L 176.6299 281.329634 
L 177.269231 281.431516 
L 177.908563 281.649924 
L 178.547894 281.73011 
L 179.187226 281.927461 
L 181.744552 281.775497 
L 182.383883 281.818624 
L 183.023215 281.992052 
L 183.662546 281.794949 
L 184.301878 281.745987 
L 185.580541 282.077938 
L 186.219872 281.85553 
L 186.859204 281.824198 
L 187.498535 282.040669 
L 188.137867 281.883054 
L 188.777198 281.985769 
L 189.41653 281.938893 
L 191.334524 282.04442 
L 191.973856 282.008758 
L 192.613187 282.112865 
L 193.252518 282.014915 
L 193.89185 282.117523 
L 196.449176 282.078406 
L 199.645833 282.12462 
L 200.285165 282.043766 
L 200.924496 282.122824 
L 202.203159 282.058193 
L 202.842491 282.095935 
L 203.481822 282.001044 
L 204.121154 282.107577 
L 204.760485 281.967954 
L 205.399817 282.101458 
L 206.039148 281.944944 
L 206.67848 282.085516 
L 207.317811 281.943204 
L 207.957143 282.037403 
L 209.235805 281.930494 
L 209.875137 282.075592 
L 210.514468 281.896486 
L 211.793131 282.052549 
L 212.432463 281.869714 
L 214.350457 281.937015 
L 214.989789 281.837255 
L 216.268452 282.054651 
L 218.186446 281.821999 
L 220.743772 282.04841 
L 225.219093 281.875548 
L 226.497755 281.940628 
L 229.055081 282.071968 
L 230.973076 281.871542 
L 231.612407 282.067934 
L 232.251739 282.130372 
L 233.530402 281.847414 
L 234.169733 282.167417 
L 235.448396 281.881114 
L 236.087728 282.182639 
L 236.727059 281.894646 
L 237.366391 282.101461 
L 238.005722 281.991759 
L 238.645054 282.06289 
L 239.284385 281.997339 
L 239.923717 282.123936 
L 240.563048 281.912383 
L 241.20238 282.21917 
L 241.841711 281.939845 
L 242.481042 281.992898 
L 243.120374 282.281216 
L 243.759705 281.978037 
L 244.399037 281.854481 
L 245.038368 282.151004 
L 246.317031 282.239332 
L 246.956363 282.154757 
L 247.595694 281.939663 
L 248.874357 281.977533 
L 249.513689 281.866295 
L 251.431683 282.181931 
L 252.710346 282.213475 
L 253.349678 281.979651 
L 253.989009 281.8695 
L 254.628341 282.125764 
L 255.907004 281.980625 
L 256.546335 282.377095 
L 257.824998 281.831097 
L 258.464329 281.999889 
L 259.103661 281.579441 
L 259.742992 282.004207 
L 260.382324 281.582911 
L 261.021655 282.000402 
L 261.660987 281.542184 
L 262.300318 281.861545 
L 262.93965 281.371644 
L 263.578981 281.648182 
L 264.218313 281.323487 
L 264.857644 281.815406 
L 265.496976 281.905568 
L 266.136307 282.390567 
L 266.775639 282.592746 
L 268.693633 281.244472 
L 269.332965 281.318747 
L 270.611628 282.469182 
L 271.250959 281.910161 
L 271.890291 281.008146 
L 273.168954 282.268809 
L 273.808285 281.101551 
L 274.447616 281.841107 
L 275.086948 281.628193 
L 275.726279 281.661572 
L 276.365611 281.237396 
L 277.004942 282.286542 
L 277.644274 281.46901 
L 278.283605 281.035476 
L 279.562268 281.414957 
L 280.2016 281.344375 
L 281.480263 280.78926 
L 282.119594 281.081404 
L 282.758926 281.520873 
L 283.398257 281.115715 
L 284.037589 280.885873 
L 286.594915 280.436078 
L 289.791572 279.596151 
L 290.430903 279.601377 
L 292.348898 280.156263 
L 294.266892 280.717715 
L 295.545555 281.001322 
L 297.46355 281.249906 
L 298.102881 281.395895 
L 299.381544 281.508252 
L 300.660207 281.704201 
L 303.217533 281.775176 
L 304.496196 282.287859 
L 305.774859 282.256724 
L 306.41419 282.770436 
L 307.053522 282.578903 
L 307.692853 283.05967 
L 308.332185 283.095713 
L 308.971516 283.273595 
L 310.889511 284.650604 
L 312.168174 286.171145 
L 312.807505 286.829148 
L 313.446837 286.830773 
L 316.643494 284.616181 
L 317.282826 284.684192 
L 319.840152 283.938709 
L 321.118815 284.01839 
L 321.758146 283.896928 
L 323.036809 283.285224 
L 324.315472 283.03884 
L 324.954803 282.72433 
L 325.594135 282.630474 
L 326.233466 282.318623 
L 328.151461 279.89872 
L 328.790792 279.667733 
L 329.430124 280.87723 
L 330.069455 282.821543 
L 330.708787 283.736904 
L 331.348118 285.266725 
L 331.98745 285.745967 
L 332.626781 286.650219 
L 333.266113 287.236472 
L 333.905444 288.214054 
L 334.544776 288.947654 
L 335.823439 290.60289 
L 336.46277 291.419916 
L 338.380765 295.941809 
L 339.020096 297.717666 
L 339.659427 299.913067 
L 340.298759 301.079796 
L 340.93809 301.097332 
L 341.577422 300.642272 
L 342.216753 299.848167 
L 342.856085 299.357642 
L 344.134748 297.85384 
L 344.774079 297.667755 
L 345.413411 297.190534 
L 346.052742 296.163902 
L 346.692074 299.210166 
L 347.331405 307.679421 
L 347.970737 319.85625 
L 349.2494 351.545636 
L 349.888731 372.078972 
L 351.167394 458.92746 
L 351.806726 475.961695 
L 352.446057 478.290816 
L 353.085389 481.569259 
L 353.72472 482.247904 
L 354.364052 482.459103 
L 355.003383 482.833064 
L 355.642714 483.052824 
L 356.282046 482.359094 
L 356.921377 482.255825 
L 357.560709 482.314287 
L 358.839372 483.026276 
L 360.118035 483.507809 
L 361.396698 483.625587 
L 362.675361 483.640774 
L 363.314692 483.697983 
L 364.593355 483.513395 
L 367.790013 483.645553 
L 482.230348 483.737256 
L 587.720042 484.191931 
L 713.029012 484.4667 
L 801.256756 484.579189 
L 801.256756 484.579189 
" clip-path="url(#pa78a14d135)" style="fill: none; stroke-dasharray: 11.1,4.8; stroke-dashoffset: 0; stroke: #ff7f0e; stroke-width: 3"/>
   </g>
   <g id="line2d_39">
    <path d="M 358.658261 -1 
L 358.839372 175.709955 
L 359.478703 126.546486 
L 359.614087 -1 
M 375.7502 -1 
L 376.101322 198.926928 
L 376.718588 -1 
M 390.116456 -1 
L 390.166614 90.798012 
L 390.243435 -1 
M 408.067615 -1 
L 408.067896 -0.340981 
L 408.068456 -1 
M 416.904769 -1 
L 417.018537 227.022031 
L 417.138595 -1 
M 434.249048 -1 
L 434.280487 72.519891 
L 434.331844 -1 
M 458.558989 -1 
L 458.575083 41.636319 
L 458.601107 -1 
M 474.497027 -1 
L 474.55837 150.121463 
L 474.627614 -1 
M 490.516768 -1 
L 490.541657 40.406777 
L 490.557104 -1 
M 498.196274 -1 
L 498.213635 45.535139 
L 498.241187 -1 
M 514.182893 -1 
L 514.196922 21.658907 
L 514.20526 -1 
M 521.816749 -1 
L 521.868899 132.969145 
L 521.931908 -1 
M 553.150715 -1 
L 553.196142 86.749029 
L 553.228774 -1 
M 560.804085 -1 
L 560.86812 155.640817 
L 560.93353 -1 
M 568.505944 -1 
L 568.540097 91.067704 
L 568.586863 -1 
M 637.554947 -1 
L 637.587897 89.705747 
L 637.63242 -1 
M 645.200521 -1 
L 645.259875 149.817377 
L 645.321618 -1 
M 652.884339 -1 
L 652.931853 98.634969 
L 652.968084 -1 
M 690.596616 -1 
L 690.65241 144.637786 
L 690.7124 -1 
M 698.321208 -1 
L 698.324388 4.516589 
L 698.326299 -1 
M 720.656147 -1 
L 720.70099 121.716433 
L 720.754753 -1 
M 743.066902 -1 
L 743.077591 29.989416 
L 743.094103 -1 
M 750.741647 -1 
L 750.749569 13.396582 
L 750.754501 -1 
M 765.411968 -1 
L 765.454193 116.601723 
L 765.505161 -1 
" clip-path="url(#pa78a14d135)" style="fill: none; stroke: #000000; stroke-width: 3; stroke-linecap: square"/>
   </g>
   <g id="patch_3">
    <path d="M 130.63 489.2325 
L 130.63 28.08 
" style="fill: none; stroke: #000000; stroke-width: 2; stroke-linejoin: miter; stroke-linecap: square"/>
   </g>
   <g id="patch_4">
    <path d="M 833.191364 489.2325 
L 833.191364 28.08 
" style="fill: none; stroke: #000000; stroke-width: 2; stroke-linejoin: miter; stroke-linecap: square"/>
   </g>
   <g id="patch_5">
    <path d="M 130.63 489.2325 
L 833.191364 489.2325 
" style="fill: none; stroke: #000000; stroke-width: 2; stroke-linejoin: miter; stroke-linecap: square"/>
   </g>
   <g id="patch_6">
    <path d="M 130.63 28.08 
L 833.191364 28.08 
" style="fill: none; stroke: #000000; stroke-width: 2; stroke-linejoin: miter; stroke-linecap: square"/>
   </g>
   <g id="legend_1">
    <g id="patch_7">
     <path d="M 141.83 111.335 
L 280.3275 111.335 
Q 283.5275 111.335 283.5275 108.135 
L 283.5275 39.28 
Q 283.5275 36.08 280.3275 36.08 
L 141.83 36.08 
Q 138.63 36.08 138.63 39.28 
L 138.63 108.135 
Q 138.63 111.335 141.83 111.335 
z
" style="fill: #ffffff; opacity: 0.8; stroke: #cccccc; stroke-linejoin: miter"/>
    </g>
    <g id="line2d_40">
     <path d="M 145.03 49.0375 
L 161.03 49.0375 
L 177.03 49.0375 
" style="fill: none; stroke: #1f77b4; stroke-width: 3; stroke-linecap: square"/>
    </g>
    <g id="text_15">
     <!-- Electron 1 -->
     <g transform="translate(189.83 54.6375) scale(0.16 -0.16)">
      <defs>
       <path id="DejaVuSerif-45" d="M 353 0 
L 353 331 
L 947 331 
L 947 4331 
L 353 4331 
L 353 4666 
L 4109 4666 
L 4109 3628 
L 3725 3628 
L 3725 4281 
L 1581 4281 
L 1581 2719 
L 3109 2719 
L 3109 3303 
L 3494 3303 
L 3494 1753 
L 3109 1753 
L 3109 2338 
L 1581 2338 
L 1581 384 
L 3775 384 
L 3775 1038 
L 4159 1038 
L 4159 0 
L 353 0 
z
" transform="scale(0.015625)"/>
       <path id="DejaVuSerif-6c" d="M 1313 331 
L 1856 331 
L 1856 0 
L 184 0 
L 184 331 
L 738 331 
L 738 4531 
L 184 4531 
L 184 4863 
L 1313 4863 
L 1313 331 
z
" transform="scale(0.015625)"/>
       <path id="DejaVuSerif-65" d="M 3469 1600 
L 991 1600 
L 991 1575 
Q 991 903 1244 561 
Q 1497 219 1991 219 
Q 2369 219 2611 417 
Q 2853 616 2950 1006 
L 3413 1006 
Q 3275 459 2904 184 
Q 2534 -91 1931 -91 
Q 1203 -91 761 389 
Q 319 869 319 1663 
Q 319 2450 753 2931 
Q 1188 3413 1894 3413 
Q 2647 3413 3050 2948 
Q 3453 2484 3469 1600 
z
M 2791 1931 
Q 2772 2513 2545 2808 
Q 2319 3103 1894 3103 
Q 1497 3103 1269 2806 
Q 1041 2509 991 1931 
L 2791 1931 
z
" transform="scale(0.015625)"/>
       <path id="DejaVuSerif-63" d="M 3291 997 
Q 3169 466 2822 187 
Q 2475 -91 1925 -91 
Q 1200 -91 759 389 
Q 319 869 319 1663 
Q 319 2459 759 2936 
Q 1200 3413 1925 3413 
Q 2241 3413 2553 3339 
Q 2866 3266 3181 3116 
L 3181 2266 
L 2847 2266 
Q 2781 2703 2561 2903 
Q 2341 3103 1931 3103 
Q 1466 3103 1228 2742 
Q 991 2381 991 1663 
Q 991 944 1227 581 
Q 1463 219 1931 219 
Q 2303 219 2525 412 
Q 2747 606 2828 997 
L 3291 997 
z
" transform="scale(0.015625)"/>
       <path id="DejaVuSerif-74" d="M 691 2988 
L 184 2988 
L 184 3322 
L 691 3322 
L 691 4353 
L 1269 4353 
L 1269 3322 
L 2350 3322 
L 2350 2988 
L 1269 2988 
L 1269 878 
Q 1269 456 1350 337 
Q 1431 219 1650 219 
Q 1875 219 1978 351 
Q 2081 484 2088 781 
L 2522 781 
Q 2497 328 2275 118 
Q 2053 -91 1600 -91 
Q 1103 -91 897 129 
Q 691 350 691 878 
L 691 2988 
z
" transform="scale(0.015625)"/>
       <path id="DejaVuSerif-72" d="M 3059 3328 
L 3059 2497 
L 2728 2497 
Q 2713 2744 2591 2866 
Q 2469 2988 2234 2988 
Q 1809 2988 1582 2694 
Q 1356 2400 1356 1850 
L 1356 331 
L 2022 331 
L 2022 0 
L 263 0 
L 263 331 
L 781 331 
L 781 2994 
L 231 2994 
L 231 3322 
L 1356 3322 
L 1356 2731 
Q 1525 3078 1790 3245 
Q 2056 3413 2438 3413 
Q 2578 3413 2733 3391 
Q 2888 3369 3059 3328 
z
" transform="scale(0.015625)"/>
       <path id="DejaVuSerif-6f" d="M 1925 219 
Q 2388 219 2623 584 
Q 2859 950 2859 1663 
Q 2859 2375 2623 2739 
Q 2388 3103 1925 3103 
Q 1463 3103 1227 2739 
Q 991 2375 991 1663 
Q 991 950 1228 584 
Q 1466 219 1925 219 
z
M 1925 -91 
Q 1200 -91 759 389 
Q 319 869 319 1663 
Q 319 2456 758 2934 
Q 1197 3413 1925 3413 
Q 2653 3413 3092 2934 
Q 3531 2456 3531 1663 
Q 3531 869 3092 389 
Q 2653 -91 1925 -91 
z
" transform="scale(0.015625)"/>
       <path id="DejaVuSerif-6e" d="M 263 0 
L 263 331 
L 781 331 
L 781 2988 
L 231 2988 
L 231 3322 
L 1356 3322 
L 1356 2731 
Q 1516 3069 1770 3241 
Q 2025 3413 2363 3413 
Q 2913 3413 3172 3097 
Q 3431 2781 3431 2113 
L 3431 331 
L 3944 331 
L 3944 0 
L 2356 0 
L 2356 331 
L 2853 331 
L 2853 1931 
Q 2853 2541 2703 2767 
Q 2553 2994 2175 2994 
Q 1775 2994 1565 2701 
Q 1356 2409 1356 1850 
L 1356 331 
L 1856 331 
L 1856 0 
L 263 0 
z
" transform="scale(0.015625)"/>
      </defs>
      <use xlink:href="#DejaVuSerif-45"/>
      <use xlink:href="#DejaVuSerif-6c" x="72.998047"/>
      <use xlink:href="#DejaVuSerif-65" x="104.980469"/>
      <use xlink:href="#DejaVuSerif-63" x="164.160156"/>
      <use xlink:href="#DejaVuSerif-74" x="220.166016"/>
      <use xlink:href="#DejaVuSerif-72" x="260.351562"/>
      <use xlink:href="#DejaVuSerif-6f" x="308.154297"/>
      <use xlink:href="#DejaVuSerif-6e" x="368.359375"/>
      <use xlink:href="#DejaVuSerif-20" x="432.763672"/>
      <use xlink:href="#DejaVuSerif-31" x="464.550781"/>
     </g>
    </g>
    <g id="line2d_41">
     <path d="M 145.03 72.5225 
L 161.03 72.5225 
L 177.03 72.5225 
" style="fill: none; stroke-dasharray: 11.1,4.8; stroke-dashoffset: 0; stroke: #ff7f0e; stroke-width: 3"/>
    </g>
    <g id="text_16">
     <!-- Electron 2 -->
     <g transform="translate(189.83 78.1225) scale(0.16 -0.16)">
      <use xlink:href="#DejaVuSerif-45"/>
      <use xlink:href="#DejaVuSerif-6c" x="72.998047"/>
      <use xlink:href="#DejaVuSerif-65" x="104.980469"/>
      <use xlink:href="#DejaVuSerif-63" x="164.160156"/>
      <use xlink:href="#DejaVuSerif-74" x="220.166016"/>
      <use xlink:href="#DejaVuSerif-72" x="260.351562"/>
      <use xlink:href="#DejaVuSerif-6f" x="308.154297"/>
      <use xlink:href="#DejaVuSerif-6e" x="368.359375"/>
      <use xlink:href="#DejaVuSerif-20" x="432.763672"/>
      <use xlink:href="#DejaVuSerif-32" x="464.550781"/>
     </g>
    </g>
    <g id="line2d_42">
     <path d="M 145.03 96.0075 
L 161.03 96.0075 
L 177.03 96.0075 
" style="fill: none; stroke: #000000; stroke-width: 3; stroke-linecap: square"/>
    </g>
    <g id="text_17">
     <!-- Antiproton -->
     <g transform="translate(189.83 101.6075) scale(0.16 -0.16)">
      <defs>
       <path id="DejaVuSerif-41" d="M 1281 1691 
L 2994 1691 
L 2138 3909 
L 1281 1691 
z
M -38 0 
L -38 331 
L 372 331 
L 2034 4666 
L 2559 4666 
L 4225 331 
L 4684 331 
L 4684 0 
L 2988 0 
L 2988 331 
L 3506 331 
L 3116 1356 
L 1153 1356 
L 763 331 
L 1275 331 
L 1275 0 
L -38 0 
z
" transform="scale(0.015625)"/>
       <path id="DejaVuSerif-69" d="M 622 4353 
Q 622 4497 726 4603 
Q 831 4709 978 4709 
Q 1122 4709 1226 4603 
Q 1331 4497 1331 4353 
Q 1331 4206 1228 4103 
Q 1125 4000 978 4000 
Q 831 4000 726 4103 
Q 622 4206 622 4353 
z
M 1356 331 
L 1900 331 
L 1900 0 
L 231 0 
L 231 331 
L 781 331 
L 781 2988 
L 231 2988 
L 231 3322 
L 1356 3322 
L 1356 331 
z
" transform="scale(0.015625)"/>
       <path id="DejaVuSerif-70" d="M 1313 1825 
L 1313 1497 
Q 1313 897 1542 583 
Q 1772 269 2209 269 
Q 2650 269 2876 622 
Q 3103 975 3103 1663 
Q 3103 2353 2876 2703 
Q 2650 3053 2209 3053 
Q 1772 3053 1542 2737 
Q 1313 2422 1313 1825 
z
M 738 2988 
L 184 2988 
L 184 3322 
L 1313 3322 
L 1313 2803 
Q 1481 3116 1742 3264 
Q 2003 3413 2388 3413 
Q 3000 3413 3387 2928 
Q 3775 2444 3775 1663 
Q 3775 881 3387 395 
Q 3000 -91 2388 -91 
Q 2003 -91 1742 57 
Q 1481 206 1313 519 
L 1313 -997 
L 1856 -997 
L 1856 -1331 
L 184 -1331 
L 184 -997 
L 738 -997 
L 738 2988 
z
" transform="scale(0.015625)"/>
      </defs>
      <use xlink:href="#DejaVuSerif-41"/>
      <use xlink:href="#DejaVuSerif-6e" x="72.216797"/>
      <use xlink:href="#DejaVuSerif-74" x="136.621094"/>
      <use xlink:href="#DejaVuSerif-69" x="176.806641"/>
      <use xlink:href="#DejaVuSerif-70" x="208.789062"/>
      <use xlink:href="#DejaVuSerif-72" x="272.802734"/>
      <use xlink:href="#DejaVuSerif-6f" x="320.605469"/>
      <use xlink:href="#DejaVuSerif-74" x="380.810547"/>
      <use xlink:href="#DejaVuSerif-6f" x="420.996094"/>
      <use xlink:href="#DejaVuSerif-6e" x="481.201172"/>
     </g>
    </g>
   </g>
  </g>
 </g>
 <defs>
  <clipPath id="pa78a14d135">
   <rect x="130.63" y="28.08" width="702.561364" height="461.1525"/>
  </clipPath>
 </defs>
</svg>
