<?xml version="1.0" encoding="utf-8" standalone="no"?>
<!DOCTYPE svg PUBLIC "-//W3C//DTD SVG 1.1//EN"
  "http://www.w3.org/Graphics/SVG/1.1/DTD/svg11.dtd">
<svg xmlns:xlink="http://www.w3.org/1999/xlink" width="864pt" height="576pt" viewBox="0 0 864 576" xmlns="http://www.w3.org/2000/svg" version="1.1">
 <metadata>
  <rdf:RDF xmlns:dc="http://purl.org/dc/elements/1.1/" xmlns:cc="http://creativecommons.org/ns#" xmlns:rdf="http://www.w3.org/1999/02/22-rdf-syntax-ns#">
   <cc:Work>
    <dc:type rdf:resource="http://purl.org/dc/dcmitype/StillImage"/>
    <dc:date>2025-06-10T13:58:11.480559</dc:date>
    <dc:format>image/svg+xml</dc:format>
    <dc:creator>
     <cc:Agent>
      <dc:title>Matplotlib v3.7.2, https://matplotlib.org/</dc:title>
     </cc:Agent>
    </dc:creator>
   </cc:Work>
  </rdf:RDF>
 </metadata>
 <defs>
  <style type="text/css">*{stroke-linejoin: round; stroke-linecap: butt}</style>
 </defs>
 <g id="figure_1">
  <g id="patch_1">
   <path d="M 0 576 
L 864 576 
L 864 0 
L 0 0 
z
" style="fill: #ffffff"/>
  </g>
  <g id="axes_1">
   <g id="patch_2">
    <path d="M 114.07 489.2325 
L 833.191364 489.2325 
L 833.191364 28.08 
L 114.07 28.08 
z
" style="fill: #ffffff"/>
   </g>
   <g id="matplotlib.axis_1">
    <g id="xtick_1">
     <g id="line2d_1">
      <path d="M 146.757335 489.2325 
L 146.757335 28.08 
" clip-path="url(#pb2cd5c1efc)" style="fill: none; stroke-dasharray: 3.7,1.6; stroke-dashoffset: 0; stroke: #b0b0b0; stroke-opacity: 0.5"/>
     </g>
     <g id="line2d_2">
      <defs>
       <path id="ma8c529f52c" d="M 0 0 
L 0 -10 
" style="stroke: #000000; stroke-width: 2"/>
      </defs>
      <g>
       <use xlink:href="#ma8c529f52c" x="146.757335" y="489.2325" style="stroke: #000000; stroke-width: 2"/>
      </g>
     </g>
     <g id="line2d_3">
      <defs>
       <path id="m16a8f66d4e" d="M 0 0 
L 0 10 
" style="stroke: #000000; stroke-width: 2"/>
      </defs>
      <g>
       <use xlink:href="#m16a8f66d4e" x="146.757335" y="28.08" style="stroke: #000000; stroke-width: 2"/>
      </g>
     </g>
     <g id="text_1">
      <!-- 0 -->
      <g transform="translate(138.486085 512.488438) scale(0.26 -0.26)">
       <defs>
        <path id="DejaVuSerif-30" d="M 2034 219 
Q 2513 219 2750 744 
Q 2988 1269 2988 2328 
Q 2988 3391 2750 3916 
Q 2513 4441 2034 4441 
Q 1556 4441 1318 3916 
Q 1081 3391 1081 2328 
Q 1081 1269 1318 744 
Q 1556 219 2034 219 
z
M 2034 -91 
Q 1275 -91 848 546 
Q 422 1184 422 2328 
Q 422 3475 848 4112 
Q 1275 4750 2034 4750 
Q 2797 4750 3222 4112 
Q 3647 3475 3647 2328 
Q 3647 1184 3222 546 
Q 2797 -91 2034 -91 
z
" transform="scale(0.015625)"/>
       </defs>
       <use xlink:href="#DejaVuSerif-30"/>
      </g>
     </g>
    </g>
    <g id="xtick_2">
     <g id="line2d_4">
      <path d="M 277.506674 489.2325 
L 277.506674 28.08 
" clip-path="url(#pb2cd5c1efc)" style="fill: none; stroke-dasharray: 3.7,1.6; stroke-dashoffset: 0; stroke: #b0b0b0; stroke-opacity: 0.5"/>
     </g>
     <g id="line2d_5">
      <g>
       <use xlink:href="#ma8c529f52c" x="277.506674" y="489.2325" style="stroke: #000000; stroke-width: 2"/>
      </g>
     </g>
     <g id="line2d_6">
      <g>
       <use xlink:href="#m16a8f66d4e" x="277.506674" y="28.08" style="stroke: #000000; stroke-width: 2"/>
      </g>
     </g>
     <g id="text_2">
      <!-- 500 -->
      <g transform="translate(252.692924 512.488438) scale(0.26 -0.26)">
       <defs>
        <path id="DejaVuSerif-35" d="M 3219 4666 
L 3219 4153 
L 1081 4153 
L 1081 2816 
Q 1244 2928 1461 2984 
Q 1678 3041 1947 3041 
Q 2703 3041 3140 2622 
Q 3578 2203 3578 1478 
Q 3578 738 3136 323 
Q 2694 -91 1894 -91 
Q 1572 -91 1234 -12 
Q 897 66 544 225 
L 544 1131 
L 897 1131 
Q 925 688 1179 453 
Q 1434 219 1894 219 
Q 2388 219 2653 544 
Q 2919 869 2919 1478 
Q 2919 2084 2655 2407 
Q 2391 2731 1894 2731 
Q 1613 2731 1398 2631 
Q 1184 2531 1019 2322 
L 750 2322 
L 750 4666 
L 3219 4666 
z
" transform="scale(0.015625)"/>
       </defs>
       <use xlink:href="#DejaVuSerif-35"/>
       <use xlink:href="#DejaVuSerif-30" x="63.623047"/>
       <use xlink:href="#DejaVuSerif-30" x="127.246094"/>
      </g>
     </g>
    </g>
    <g id="xtick_3">
     <g id="line2d_7">
      <path d="M 408.256012 489.2325 
L 408.256012 28.08 
" clip-path="url(#pb2cd5c1efc)" style="fill: none; stroke-dasharray: 3.7,1.6; stroke-dashoffset: 0; stroke: #b0b0b0; stroke-opacity: 0.5"/>
     </g>
     <g id="line2d_8">
      <g>
       <use xlink:href="#ma8c529f52c" x="408.256012" y="489.2325" style="stroke: #000000; stroke-width: 2"/>
      </g>
     </g>
     <g id="line2d_9">
      <g>
       <use xlink:href="#m16a8f66d4e" x="408.256012" y="28.08" style="stroke: #000000; stroke-width: 2"/>
      </g>
     </g>
     <g id="text_3">
      <!-- 1000 -->
      <g transform="translate(375.171012 512.488438) scale(0.26 -0.26)">
       <defs>
        <path id="DejaVuSerif-31" d="M 909 0 
L 909 331 
L 1722 331 
L 1722 4213 
L 781 3603 
L 781 4013 
L 1919 4750 
L 2350 4750 
L 2350 331 
L 3163 331 
L 3163 0 
L 909 0 
z
" transform="scale(0.015625)"/>
       </defs>
       <use xlink:href="#DejaVuSerif-31"/>
       <use xlink:href="#DejaVuSerif-30" x="63.623047"/>
       <use xlink:href="#DejaVuSerif-30" x="127.246094"/>
       <use xlink:href="#DejaVuSerif-30" x="190.869141"/>
      </g>
     </g>
    </g>
    <g id="xtick_4">
     <g id="line2d_10">
      <path d="M 539.005351 489.2325 
L 539.005351 28.08 
" clip-path="url(#pb2cd5c1efc)" style="fill: none; stroke-dasharray: 3.7,1.6; stroke-dashoffset: 0; stroke: #b0b0b0; stroke-opacity: 0.5"/>
     </g>
     <g id="line2d_11">
      <g>
       <use xlink:href="#ma8c529f52c" x="539.005351" y="489.2325" style="stroke: #000000; stroke-width: 2"/>
      </g>
     </g>
     <g id="line2d_12">
      <g>
       <use xlink:href="#m16a8f66d4e" x="539.005351" y="28.08" style="stroke: #000000; stroke-width: 2"/>
      </g>
     </g>
     <g id="text_4">
      <!-- 1500 -->
      <g transform="translate(505.920351 512.488438) scale(0.26 -0.26)">
       <use xlink:href="#DejaVuSerif-31"/>
       <use xlink:href="#DejaVuSerif-35" x="63.623047"/>
       <use xlink:href="#DejaVuSerif-30" x="127.246094"/>
       <use xlink:href="#DejaVuSerif-30" x="190.869141"/>
      </g>
     </g>
    </g>
    <g id="xtick_5">
     <g id="line2d_13">
      <path d="M 669.75469 489.2325 
L 669.75469 28.08 
" clip-path="url(#pb2cd5c1efc)" style="fill: none; stroke-dasharray: 3.7,1.6; stroke-dashoffset: 0; stroke: #b0b0b0; stroke-opacity: 0.5"/>
     </g>
     <g id="line2d_14">
      <g>
       <use xlink:href="#ma8c529f52c" x="669.75469" y="489.2325" style="stroke: #000000; stroke-width: 2"/>
      </g>
     </g>
     <g id="line2d_15">
      <g>
       <use xlink:href="#m16a8f66d4e" x="669.75469" y="28.08" style="stroke: #000000; stroke-width: 2"/>
      </g>
     </g>
     <g id="text_5">
      <!-- 2000 -->
      <g transform="translate(636.66969 512.488438) scale(0.26 -0.26)">
       <defs>
        <path id="DejaVuSerif-32" d="M 819 3553 
L 469 3553 
L 469 4384 
Q 803 4563 1142 4656 
Q 1481 4750 1806 4750 
Q 2534 4750 2956 4397 
Q 3378 4044 3378 3438 
Q 3378 2753 2422 1800 
Q 2347 1728 2309 1691 
L 1131 513 
L 3078 513 
L 3078 1088 
L 3444 1088 
L 3444 0 
L 434 0 
L 434 341 
L 1850 1753 
Q 2319 2222 2519 2614 
Q 2719 3006 2719 3438 
Q 2719 3909 2473 4175 
Q 2228 4441 1797 4441 
Q 1350 4441 1106 4219 
Q 863 3997 819 3553 
z
" transform="scale(0.015625)"/>
       </defs>
       <use xlink:href="#DejaVuSerif-32"/>
       <use xlink:href="#DejaVuSerif-30" x="63.623047"/>
       <use xlink:href="#DejaVuSerif-30" x="127.246094"/>
       <use xlink:href="#DejaVuSerif-30" x="190.869141"/>
      </g>
     </g>
    </g>
    <g id="xtick_6">
     <g id="line2d_16">
      <path d="M 800.504029 489.2325 
L 800.504029 28.08 
" clip-path="url(#pb2cd5c1efc)" style="fill: none; stroke-dasharray: 3.7,1.6; stroke-dashoffset: 0; stroke: #b0b0b0; stroke-opacity: 0.5"/>
     </g>
     <g id="line2d_17">
      <g>
       <use xlink:href="#ma8c529f52c" x="800.504029" y="489.2325" style="stroke: #000000; stroke-width: 2"/>
      </g>
     </g>
     <g id="line2d_18">
      <g>
       <use xlink:href="#m16a8f66d4e" x="800.504029" y="28.08" style="stroke: #000000; stroke-width: 2"/>
      </g>
     </g>
     <g id="text_6">
      <!-- 2500 -->
      <g transform="translate(767.419029 512.488438) scale(0.26 -0.26)">
       <use xlink:href="#DejaVuSerif-32"/>
       <use xlink:href="#DejaVuSerif-35" x="63.623047"/>
       <use xlink:href="#DejaVuSerif-30" x="127.246094"/>
       <use xlink:href="#DejaVuSerif-30" x="190.869141"/>
      </g>
     </g>
    </g>
    <g id="text_7">
     <!-- $t$ (a.u.) -->
     <g transform="translate(430.210682 541.651562) scale(0.26 -0.26)">
      <defs>
       <path id="Cmmi10-74" d="M 397 519 
Q 397 613 416 697 
L 878 2534 
L 206 2534 
Q 141 2534 141 2619 
Q 166 2759 225 2759 
L 934 2759 
L 1191 3803 
Q 1216 3888 1291 3947 
Q 1366 4006 1459 4006 
Q 1541 4006 1595 3957 
Q 1650 3909 1650 3828 
Q 1650 3809 1648 3798 
Q 1647 3788 1644 3775 
L 1388 2759 
L 2047 2759 
Q 2113 2759 2113 2675 
Q 2109 2659 2100 2621 
Q 2091 2584 2075 2559 
Q 2059 2534 2028 2534 
L 1331 2534 
L 872 684 
Q 825 503 825 372 
Q 825 97 1013 97 
Q 1294 97 1511 361 
Q 1728 625 1844 941 
Q 1869 978 1894 978 
L 1972 978 
Q 1997 978 2012 961 
Q 2028 944 2028 922 
Q 2028 909 2022 903 
Q 1881 516 1612 222 
Q 1344 -72 997 -72 
Q 744 -72 570 93 
Q 397 259 397 519 
z
" transform="scale(0.015625)"/>
       <path id="DejaVuSerif-20" transform="scale(0.015625)"/>
       <path id="DejaVuSerif-28" d="M 2041 -997 
Q 1281 -656 893 83 
Q 506 822 506 1931 
Q 506 3044 893 3783 
Q 1281 4522 2041 4863 
L 2041 4556 
Q 1559 4225 1350 3623 
Q 1141 3022 1141 1931 
Q 1141 844 1350 242 
Q 1559 -359 2041 -691 
L 2041 -997 
z
" transform="scale(0.015625)"/>
       <path id="DejaVuSerif-61" d="M 2547 1044 
L 2547 1747 
L 1806 1747 
Q 1378 1747 1168 1562 
Q 959 1378 959 997 
Q 959 650 1171 447 
Q 1384 244 1747 244 
Q 2106 244 2326 466 
Q 2547 688 2547 1044 
z
M 3122 2075 
L 3122 331 
L 3634 331 
L 3634 0 
L 2547 0 
L 2547 359 
Q 2356 128 2106 18 
Q 1856 -91 1522 -91 
Q 969 -91 644 203 
Q 319 497 319 997 
Q 319 1513 691 1797 
Q 1063 2081 1741 2081 
L 2547 2081 
L 2547 2309 
Q 2547 2688 2317 2895 
Q 2088 3103 1672 3103 
Q 1328 3103 1125 2947 
Q 922 2791 872 2484 
L 575 2484 
L 575 3156 
Q 875 3284 1158 3348 
Q 1441 3413 1709 3413 
Q 2400 3413 2761 3070 
Q 3122 2728 3122 2075 
z
" transform="scale(0.015625)"/>
       <path id="DejaVuSerif-2e" d="M 603 325 
Q 603 500 722 622 
Q 841 744 1019 744 
Q 1191 744 1312 622 
Q 1434 500 1434 325 
Q 1434 153 1312 31 
Q 1191 -91 1019 -91 
Q 841 -91 722 29 
Q 603 150 603 325 
z
" transform="scale(0.015625)"/>
       <path id="DejaVuSerif-75" d="M 2266 3322 
L 3341 3322 
L 3341 331 
L 3884 331 
L 3884 0 
L 2766 0 
L 2766 588 
Q 2606 256 2353 82 
Q 2100 -91 1766 -91 
Q 1213 -91 952 223 
Q 691 538 691 1209 
L 691 2988 
L 172 2988 
L 172 3322 
L 1269 3322 
L 1269 1388 
Q 1269 781 1417 556 
Q 1566 331 1947 331 
Q 2347 331 2556 625 
Q 2766 919 2766 1478 
L 2766 2988 
L 2266 2988 
L 2266 3322 
z
" transform="scale(0.015625)"/>
       <path id="DejaVuSerif-29" d="M 453 -997 
L 453 -691 
Q 934 -359 1145 242 
Q 1356 844 1356 1931 
Q 1356 3022 1145 3623 
Q 934 4225 453 4556 
L 453 4863 
Q 1216 4522 1603 3783 
Q 1991 3044 1991 1931 
Q 1991 822 1603 83 
Q 1216 -656 453 -997 
z
" transform="scale(0.015625)"/>
      </defs>
      <use xlink:href="#Cmmi10-74" transform="translate(0 0.015625)"/>
      <use xlink:href="#DejaVuSerif-20" transform="translate(36.083984 0.015625)"/>
      <use xlink:href="#DejaVuSerif-28" transform="translate(67.871094 0.015625)"/>
      <use xlink:href="#DejaVuSerif-61" transform="translate(106.884766 0.015625)"/>
      <use xlink:href="#DejaVuSerif-2e" transform="translate(166.503906 0.015625)"/>
      <use xlink:href="#DejaVuSerif-75" transform="translate(198.291016 0.015625)"/>
      <use xlink:href="#DejaVuSerif-2e" transform="translate(262.695312 0.015625)"/>
      <use xlink:href="#DejaVuSerif-29" transform="translate(294.482422 0.015625)"/>
     </g>
    </g>
   </g>
   <g id="matplotlib.axis_2">
    <g id="ytick_1">
     <g id="line2d_19">
      <path d="M 114.07 418.243423 
L 833.191364 418.243423 
" clip-path="url(#pb2cd5c1efc)" style="fill: none; stroke-dasharray: 3.7,1.6; stroke-dashoffset: 0; stroke: #b0b0b0; stroke-opacity: 0.5"/>
     </g>
     <g id="line2d_20">
      <defs>
       <path id="mc714fbfd37" d="M 0 0 
L 10 0 
" style="stroke: #000000; stroke-width: 2"/>
      </defs>
      <g>
       <use xlink:href="#mc714fbfd37" x="114.07" y="418.243423" style="stroke: #000000; stroke-width: 2"/>
      </g>
     </g>
     <g id="line2d_21">
      <defs>
       <path id="mf4443ae08a" d="M 0 0 
L -10 0 
" style="stroke: #000000; stroke-width: 2"/>
      </defs>
      <g>
       <use xlink:href="#mf4443ae08a" x="833.191364" y="418.243423" style="stroke: #000000; stroke-width: 2"/>
      </g>
     </g>
     <g id="text_8">
      <!-- 1 -->
      <g transform="translate(94.0275 428.121392) scale(0.26 -0.26)">
       <use xlink:href="#DejaVuSerif-31"/>
      </g>
     </g>
    </g>
    <g id="ytick_2">
     <g id="line2d_22">
      <path d="M 114.07 330.36228 
L 833.191364 330.36228 
" clip-path="url(#pb2cd5c1efc)" style="fill: none; stroke-dasharray: 3.7,1.6; stroke-dashoffset: 0; stroke: #b0b0b0; stroke-opacity: 0.5"/>
     </g>
     <g id="line2d_23">
      <g>
       <use xlink:href="#mc714fbfd37" x="114.07" y="330.36228" style="stroke: #000000; stroke-width: 2"/>
      </g>
     </g>
     <g id="line2d_24">
      <g>
       <use xlink:href="#mf4443ae08a" x="833.191364" y="330.36228" style="stroke: #000000; stroke-width: 2"/>
      </g>
     </g>
     <g id="text_9">
      <!-- 2 -->
      <g transform="translate(94.0275 340.240249) scale(0.26 -0.26)">
       <use xlink:href="#DejaVuSerif-32"/>
      </g>
     </g>
    </g>
    <g id="ytick_3">
     <g id="line2d_25">
      <path d="M 114.07 242.481137 
L 833.191364 242.481137 
" clip-path="url(#pb2cd5c1efc)" style="fill: none; stroke-dasharray: 3.7,1.6; stroke-dashoffset: 0; stroke: #b0b0b0; stroke-opacity: 0.5"/>
     </g>
     <g id="line2d_26">
      <g>
       <use xlink:href="#mc714fbfd37" x="114.07" y="242.481137" style="stroke: #000000; stroke-width: 2"/>
      </g>
     </g>
     <g id="line2d_27">
      <g>
       <use xlink:href="#mf4443ae08a" x="833.191364" y="242.481137" style="stroke: #000000; stroke-width: 2"/>
      </g>
     </g>
     <g id="text_10">
      <!-- 3 -->
      <g transform="translate(94.0275 252.359105) scale(0.26 -0.26)">
       <defs>
        <path id="DejaVuSerif-33" d="M 622 4469 
Q 988 4606 1323 4678 
Q 1659 4750 1953 4750 
Q 2638 4750 3022 4454 
Q 3406 4159 3406 3634 
Q 3406 3213 3140 2930 
Q 2875 2647 2388 2547 
Q 2963 2466 3280 2130 
Q 3597 1794 3597 1259 
Q 3597 606 3158 257 
Q 2719 -91 1894 -91 
Q 1528 -91 1179 -12 
Q 831 66 488 225 
L 488 1131 
L 838 1131 
Q 869 681 1141 450 
Q 1413 219 1906 219 
Q 2384 219 2661 495 
Q 2938 772 2938 1253 
Q 2938 1803 2653 2086 
Q 2369 2369 1819 2369 
L 1522 2369 
L 1522 2688 
L 1678 2688 
Q 2225 2688 2498 2914 
Q 2772 3141 2772 3597 
Q 2772 4006 2547 4223 
Q 2322 4441 1900 4441 
Q 1478 4441 1245 4241 
Q 1013 4041 972 3647 
L 622 3647 
L 622 4469 
z
" transform="scale(0.015625)"/>
       </defs>
       <use xlink:href="#DejaVuSerif-33"/>
      </g>
     </g>
    </g>
    <g id="ytick_4">
     <g id="line2d_28">
      <path d="M 114.07 154.599993 
L 833.191364 154.599993 
" clip-path="url(#pb2cd5c1efc)" style="fill: none; stroke-dasharray: 3.7,1.6; stroke-dashoffset: 0; stroke: #b0b0b0; stroke-opacity: 0.5"/>
     </g>
     <g id="line2d_29">
      <g>
       <use xlink:href="#mc714fbfd37" x="114.07" y="154.599993" style="stroke: #000000; stroke-width: 2"/>
      </g>
     </g>
     <g id="line2d_30">
      <g>
       <use xlink:href="#mf4443ae08a" x="833.191364" y="154.599993" style="stroke: #000000; stroke-width: 2"/>
      </g>
     </g>
     <g id="text_11">
      <!-- 4 -->
      <g transform="translate(94.0275 164.477962) scale(0.26 -0.26)">
       <defs>
        <path id="DejaVuSerif-34" d="M 2234 1581 
L 2234 4063 
L 641 1581 
L 2234 1581 
z
M 3609 0 
L 1484 0 
L 1484 331 
L 2234 331 
L 2234 1247 
L 197 1247 
L 197 1588 
L 2241 4750 
L 2859 4750 
L 2859 1581 
L 3750 1581 
L 3750 1247 
L 2859 1247 
L 2859 331 
L 3609 331 
L 3609 0 
z
" transform="scale(0.015625)"/>
       </defs>
       <use xlink:href="#DejaVuSerif-34"/>
      </g>
     </g>
    </g>
    <g id="ytick_5">
     <g id="line2d_31">
      <path d="M 114.07 66.71885 
L 833.191364 66.71885 
" clip-path="url(#pb2cd5c1efc)" style="fill: none; stroke-dasharray: 3.7,1.6; stroke-dashoffset: 0; stroke: #b0b0b0; stroke-opacity: 0.5"/>
     </g>
     <g id="line2d_32">
      <g>
       <use xlink:href="#mc714fbfd37" x="114.07" y="66.71885" style="stroke: #000000; stroke-width: 2"/>
      </g>
     </g>
     <g id="line2d_33">
      <g>
       <use xlink:href="#mf4443ae08a" x="833.191364" y="66.71885" style="stroke: #000000; stroke-width: 2"/>
      </g>
     </g>
     <g id="text_12">
      <!-- 5 -->
      <g transform="translate(94.0275 76.596819) scale(0.26 -0.26)">
       <use xlink:href="#DejaVuSerif-35"/>
      </g>
     </g>
    </g>
    <g id="text_13">
     <!-- $|\vec{p}_i|$ (a.u.) -->
     <g transform="translate(83.5275 315.72625) rotate(-90) scale(0.26 -0.26)">
      <defs>
       <path id="Cmsy10-6a" d="M 763 -1484 
L 763 4684 
Q 763 4734 800 4767 
Q 838 4800 891 4800 
Q 938 4800 978 4767 
Q 1019 4734 1019 4684 
L 1019 -1484 
Q 1019 -1534 978 -1567 
Q 938 -1600 891 -1600 
Q 838 -1600 800 -1567 
Q 763 -1534 763 -1484 
z
" transform="scale(0.015625)"/>
       <path id="Cmmi10-7e" d="M 1281 3809 
Q 1231 3809 1198 3846 
Q 1166 3884 1166 3938 
Q 1166 3984 1198 4023 
Q 1231 4063 1281 4063 
L 3547 4063 
Q 3378 4291 3378 4441 
Q 3378 4497 3417 4533 
Q 3456 4569 3506 4569 
Q 3613 4569 3634 4469 
Q 3697 4194 3938 4044 
Q 4000 4003 4000 3938 
Q 4000 3859 3938 3828 
Q 3575 3647 3353 3347 
Q 3328 3303 3256 3303 
Q 3209 3303 3168 3340 
Q 3128 3378 3128 3431 
Q 3128 3547 3438 3809 
L 1281 3809 
z
" transform="scale(0.015625)"/>
       <path id="Cmmi10-70" d="M -159 -1241 
Q -219 -1241 -219 -1159 
Q -197 -1019 -134 -1019 
Q 66 -1019 145 -983 
Q 225 -947 269 -800 
L 991 2081 
Q 1038 2200 1038 2388 
Q 1038 2663 850 2663 
Q 650 2663 553 2423 
Q 456 2184 366 1819 
Q 366 1778 313 1778 
L 238 1778 
Q 222 1778 203 1801 
Q 184 1825 184 1844 
Q 253 2122 317 2315 
Q 381 2509 517 2668 
Q 653 2828 856 2828 
Q 1075 2828 1240 2704 
Q 1406 2581 1453 2369 
Q 1628 2572 1840 2700 
Q 2053 2828 2278 2828 
Q 2547 2828 2745 2684 
Q 2944 2541 3044 2308 
Q 3144 2075 3144 1806 
Q 3144 1394 2933 953 
Q 2722 513 2361 220 
Q 2000 -72 1588 -72 
Q 1400 -72 1248 34 
Q 1097 141 1013 313 
L 722 -825 
Q 706 -919 703 -934 
Q 703 -1019 1125 -1019 
Q 1191 -1019 1191 -1100 
Q 1169 -1184 1155 -1212 
Q 1141 -1241 1081 -1241 
L -159 -1241 
z
M 1594 97 
Q 1816 97 2006 280 
Q 2197 463 2316 691 
Q 2403 863 2479 1111 
Q 2556 1359 2612 1640 
Q 2669 1922 2669 2088 
Q 2669 2234 2630 2362 
Q 2591 2491 2502 2577 
Q 2413 2663 2266 2663 
Q 2031 2663 1823 2495 
Q 1616 2328 1447 2081 
L 1447 2059 
L 1094 647 
Q 1138 419 1263 258 
Q 1388 97 1594 97 
z
" transform="scale(0.015625)"/>
       <path id="Cmmi10-69" d="M 500 459 
Q 500 578 550 709 
L 1069 2088 
Q 1153 2322 1153 2472 
Q 1153 2663 1013 2663 
Q 759 2663 595 2402 
Q 431 2141 353 1819 
Q 341 1778 300 1778 
L 225 1778 
Q 172 1778 172 1838 
L 172 1856 
Q 275 2238 487 2533 
Q 700 2828 1025 2828 
Q 1253 2828 1411 2678 
Q 1569 2528 1569 2297 
Q 1569 2178 1516 2047 
L 997 672 
Q 909 459 909 288 
Q 909 97 1056 97 
Q 1306 97 1473 364 
Q 1641 631 1709 941 
Q 1722 978 1759 978 
L 1838 978 
Q 1863 978 1878 961 
Q 1894 944 1894 922 
Q 1894 916 1888 903 
Q 1800 541 1583 234 
Q 1366 -72 1044 -72 
Q 819 -72 659 83 
Q 500 238 500 459 
z
M 1222 3878 
Q 1222 4013 1334 4122 
Q 1447 4231 1581 4231 
Q 1691 4231 1761 4164 
Q 1831 4097 1831 3994 
Q 1831 3850 1717 3742 
Q 1603 3634 1466 3634 
Q 1363 3634 1292 3704 
Q 1222 3775 1222 3878 
z
" transform="scale(0.015625)"/>
      </defs>
      <use xlink:href="#Cmsy10-6a" transform="translate(0 0.53125)"/>
      <use xlink:href="#Cmmi10-7e" transform="translate(19.040039 5.609375)"/>
      <use xlink:href="#Cmmi10-70" transform="translate(27.685547 0.53125)"/>
      <use xlink:href="#Cmmi10-69" transform="translate(82.442656 -16.475) scale(0.7)"/>
      <use xlink:href="#Cmsy10-6a" transform="translate(112.91668 0.53125)"/>
      <use xlink:href="#DejaVuSerif-20" transform="translate(140.602227 0.53125)"/>
      <use xlink:href="#DejaVuSerif-28" transform="translate(172.389336 0.53125)"/>
      <use xlink:href="#DejaVuSerif-61" transform="translate(211.403008 0.53125)"/>
      <use xlink:href="#DejaVuSerif-2e" transform="translate(271.022148 0.53125)"/>
      <use xlink:href="#DejaVuSerif-75" transform="translate(302.809258 0.53125)"/>
      <use xlink:href="#DejaVuSerif-2e" transform="translate(367.213555 0.53125)"/>
      <use xlink:href="#DejaVuSerif-29" transform="translate(399.000664 0.53125)"/>
     </g>
    </g>
   </g>
   <g id="line2d_34">
    <path d="M 146.757335 359.488546 
L 148.720538 359.572373 
L 150.683741 360.029765 
L 151.338142 359.777855 
L 151.992543 359.645917 
L 152.646945 360.051469 
L 153.301346 359.789854 
L 155.264549 359.982047 
L 155.91895 359.75535 
L 156.573351 360.117083 
L 157.227752 360.154558 
L 158.536554 359.914749 
L 159.190956 359.988819 
L 160.499758 360.348221 
L 161.154159 360.127738 
L 161.80856 360.277062 
L 162.462961 360.289229 
L 163.117362 360.528174 
L 163.771763 360.451178 
L 165.080565 360.60989 
L 165.734966 360.555612 
L 166.389368 360.850219 
L 168.352571 361.038812 
L 169.006972 360.928015 
L 169.661373 360.977412 
L 170.315774 360.687419 
L 172.933379 360.198106 
L 173.58778 360.38199 
L 174.896582 360.213083 
L 175.550983 360.018487 
L 176.205384 360.269673 
L 176.859785 360.325779 
L 178.168587 360.230454 
L 178.822988 360.250581 
L 179.477389 360.110489 
L 180.131791 359.786915 
L 180.786192 359.837396 
L 181.440593 360.170601 
L 182.094994 359.686822 
L 182.749395 360.083138 
L 183.403796 359.693919 
L 184.058197 360.09918 
L 184.712598 359.594927 
L 185.366999 360.037047 
L 186.675802 359.582352 
L 187.330203 359.950964 
L 187.984604 360.011087 
L 188.639005 359.626518 
L 189.293406 359.556679 
L 189.947807 359.889422 
L 190.602208 360.038079 
L 191.91101 359.544057 
L 192.565411 359.532061 
L 193.874214 359.961961 
L 194.528615 359.875662 
L 195.183016 359.56781 
L 195.837417 359.434349 
L 197.146219 359.947701 
L 198.455021 359.414469 
L 199.109422 359.812948 
L 200.418225 359.394709 
L 201.072626 359.74538 
L 201.727027 359.279737 
L 202.381428 359.616915 
L 203.035829 359.519944 
L 203.69023 359.224332 
L 204.999032 359.384592 
L 205.653433 359.256178 
L 206.307834 358.99973 
L 206.962235 359.069737 
L 208.271038 358.770053 
L 208.925439 358.253794 
L 209.57984 358.086188 
L 210.234241 357.629876 
L 210.888642 357.804297 
L 212.197444 358.57073 
L 213.506246 359.492359 
L 214.160648 359.375995 
L 216.123851 360.251544 
L 216.778252 360.256678 
L 217.432653 360.084096 
L 218.087054 360.586592 
L 218.741455 360.839102 
L 219.395856 360.491072 
L 220.050257 361.196204 
L 220.704658 360.800116 
L 221.35906 361.286472 
L 222.013461 361.341778 
L 222.667862 361.226323 
L 223.322263 361.839087 
L 223.976664 361.988259 
L 224.631065 361.96611 
L 225.285466 362.261833 
L 225.939867 362.823816 
L 226.594268 363.574874 
L 227.248669 363.695989 
L 228.557472 365.445393 
L 229.211873 366.121782 
L 229.866274 366.968718 
L 230.520675 366.945572 
L 231.175076 366.426831 
L 231.829477 366.310516 
L 234.447081 365.43446 
L 235.755884 366.011034 
L 236.410285 365.761427 
L 237.064686 366.011942 
L 237.719087 365.612975 
L 238.373488 365.82695 
L 239.027889 367.604072 
L 239.68229 370.437036 
L 240.336691 375.001985 
L 240.991092 381.571702 
L 241.645494 390.554515 
L 242.299895 401.281432 
L 242.954296 417.32525 
L 243.608697 448.976418 
L 244.263098 466.215508 
L 244.917499 472.967472 
L 245.5719 477.132394 
L 246.226301 479.421633 
L 246.880702 479.618471 
L 248.189504 479.466504 
L 248.843906 479.765372 
L 250.152708 480.543537 
L 251.46151 480.883923 
L 253.424713 480.859214 
L 254.733515 481.098118 
L 257.35112 481.275444 
L 269.13034 481.420812 
L 287.45357 481.455524 
L 353.548081 481.463205 
L 752.078348 481.465484 
L 800.504029 481.465403 
L 800.504029 481.465403 
" clip-path="url(#pb2cd5c1efc)" style="fill: none; stroke: #1f77b4; stroke-width: 3; stroke-linecap: square"/>
   </g>
   <g id="line2d_35">
    <path d="M 146.757335 359.490498 
L 150.02934 359.455125 
L 151.992543 359.091689 
L 152.646945 359.168518 
L 153.955747 359.574023 
L 154.610148 359.602938 
L 156.573351 359.166234 
L 158.536554 359.672768 
L 161.80856 359.26387 
L 163.771763 359.328581 
L 165.080565 359.29275 
L 167.69817 359.687932 
L 169.006972 359.419046 
L 169.661373 359.691066 
L 170.315774 359.539634 
L 170.970175 359.556019 
L 171.624576 359.69587 
L 172.278977 359.556516 
L 172.933379 359.714032 
L 173.58778 359.618624 
L 174.896582 359.722522 
L 175.550983 359.629063 
L 176.205384 359.762886 
L 177.514186 359.674987 
L 178.168587 359.762241 
L 179.477389 359.68158 
L 180.131791 359.766615 
L 180.786192 359.64801 
L 182.094994 359.726399 
L 182.749395 359.617007 
L 183.403796 359.776488 
L 184.058197 359.575561 
L 184.712598 359.784261 
L 185.366999 359.55422 
L 186.0214 359.792987 
L 186.675802 359.537493 
L 187.330203 359.766282 
L 188.639005 359.59272 
L 189.293406 359.807651 
L 189.947807 359.547276 
L 190.602208 359.585575 
L 191.256609 359.824758 
L 193.219812 359.537791 
L 194.528615 359.849956 
L 195.837417 359.735172 
L 197.80062 359.577071 
L 199.109422 359.618421 
L 201.727027 359.768628 
L 203.035829 359.491824 
L 204.344631 359.226628 
L 206.962235 359.087605 
L 207.616637 359.010281 
L 208.925439 359.192338 
L 209.57984 358.947357 
L 210.234241 359.167539 
L 210.888642 359.029284 
L 212.851845 358.99403 
L 213.506246 359.113031 
L 214.160648 359.03437 
L 214.815049 359.181551 
L 216.778252 359.308759 
L 217.432653 359.528253 
L 218.087054 359.390425 
L 218.741455 359.768312 
L 219.395856 359.720197 
L 220.050257 359.832767 
L 220.704658 360.199916 
L 221.35906 360.135989 
L 222.013461 360.610188 
L 222.667862 360.637024 
L 223.322263 361.047169 
L 225.285466 361.159618 
L 226.594268 360.746351 
L 227.248669 360.600301 
L 227.903071 360.254863 
L 228.557472 360.08693 
L 229.866274 360.119886 
L 231.175076 360.628435 
L 231.829477 361.229687 
L 232.483878 362.078114 
L 235.755884 367.179348 
L 236.410285 368.659119 
L 237.064686 369.773379 
L 239.68229 376.172046 
L 240.336691 378.067259 
L 240.991092 380.361949 
L 241.645494 383.366228 
L 242.299895 387.935582 
L 242.954296 394.812309 
L 243.608697 403.363712 
L 244.263098 421.687385 
L 244.917499 394.824787 
L 245.5719 408.764106 
L 246.226301 365.895678 
L 246.880702 371.757836 
L 247.535103 392.639968 
L 248.189504 366.653492 
L 248.843906 328.911924 
L 249.498307 305.181324 
L 250.152708 367.781252 
L 250.807109 373.183801 
L 251.46151 327.882523 
L 252.115911 376.013263 
L 252.770312 326.118864 
L 253.424713 383.036202 
L 254.079114 300.647235 
L 255.387917 392.508245 
L 256.042318 360.255248 
L 256.696719 310.441866 
L 257.35112 328.681673 
L 258.005521 308.364113 
L 258.659922 372.295396 
L 259.314323 320.802098 
L 259.968724 341.730354 
L 260.623125 352.663403 
L 261.277526 373.353913 
L 261.931927 363.509397 
L 262.586329 318.151636 
L 263.24073 393.851326 
L 263.895131 321.252648 
L 264.549532 351.693977 
L 265.203933 346.319997 
L 265.858334 349.544606 
L 266.512735 383.462121 
L 267.167136 370.637369 
L 267.821537 386.999676 
L 268.475938 377.575778 
L 269.13034 298.52955 
L 269.784741 314.106152 
L 270.439142 320.246583 
L 271.093543 341.670603 
L 271.747944 325.252939 
L 272.402345 382.288606 
L 273.056746 385.210155 
L 273.711147 346.575674 
L 274.365548 325.482867 
L 275.019949 333.057394 
L 275.67435 405.915931 
L 276.328752 350.299702 
L 277.637554 422.363803 
L 278.291955 453.809356 
L 278.946356 416.658894 
L 279.600757 399.611146 
L 280.255158 398.442608 
L 280.909559 374.252885 
L 281.56396 405.06727 
L 282.218361 427.347043 
L 282.872763 343.244627 
L 283.527164 354.322585 
L 284.181565 388.16245 
L 284.835966 383.951749 
L 285.490367 334.336803 
L 286.144768 424.861017 
L 286.799169 366.874268 
L 287.45357 416.474598 
L 288.107971 356.637542 
L 288.762372 418.410813 
L 289.416773 394.340261 
L 290.071175 323.249845 
L 290.725576 317.549296 
L 291.379977 324.948804 
L 292.034378 367.957054 
L 292.688779 367.894926 
L 293.34318 349.425475 
L 293.997581 368.080741 
L 294.651982 400.05446 
L 295.306383 376.315549 
L 295.960784 344.481556 
L 296.615186 408.337814 
L 297.269587 407.382954 
L 297.923988 319.896973 
L 298.578389 437.506336 
L 299.23279 441.115148 
L 299.887191 453.446486 
L 300.541592 392.267217 
L 301.195993 393.873703 
L 301.850394 431.715514 
L 302.504795 360.856317 
L 303.159196 387.675403 
L 303.813598 344.466731 
L 304.467999 345.62651 
L 305.1224 387.897576 
L 305.776801 319.26706 
L 306.431202 338.137132 
L 307.085603 382.544169 
L 307.740004 387.021782 
L 308.394405 288.644284 
L 309.048806 330.504817 
L 310.357609 353.921145 
L 311.01201 290.090822 
L 311.666411 358.147371 
L 312.320812 366.805452 
L 312.975213 364.944019 
L 314.284015 399.316927 
L 314.938416 380.009719 
L 316.247218 290.291642 
L 316.901619 321.64621 
L 317.556021 288.367625 
L 318.210422 377.011173 
L 318.864823 308.71118 
L 319.519224 298.706649 
L 320.173625 362.2782 
L 320.828026 336.904336 
L 321.482427 394.541715 
L 322.136828 388.700509 
L 322.791229 317.863254 
L 323.44563 405.527535 
L 324.100032 296.164637 
L 325.408834 410.397667 
L 326.063235 338.195654 
L 326.717636 360.101984 
L 327.372037 364.004838 
L 328.026438 346.49749 
L 328.680839 391.94363 
L 329.33524 406.368968 
L 329.989641 442.253193 
L 330.644042 344.453765 
L 331.298444 404.686441 
L 331.952845 407.376162 
L 332.607246 360.268006 
L 333.261647 360.86854 
L 333.916048 355.792691 
L 334.570449 373.566054 
L 335.22485 347.162541 
L 335.879251 414.65236 
L 336.533652 343.430396 
L 337.188053 358.22739 
L 337.842455 381.327041 
L 338.496856 355.730517 
L 339.151257 405.351308 
L 339.805658 409.391969 
L 340.460059 370.775588 
L 341.11446 390.584995 
L 341.768861 393.052884 
L 342.423262 392.19791 
L 343.077663 367.021045 
L 343.732064 348.419935 
L 344.386465 313.594903 
L 345.040867 383.417615 
L 345.695268 339.355752 
L 346.349669 406.381591 
L 347.00407 371.445846 
L 347.658471 368.686807 
L 348.312872 312.150211 
L 348.967273 322.244843 
L 349.621674 393.54781 
L 350.276075 307.755056 
L 350.930476 401.34139 
L 351.584878 299.958024 
L 352.239279 385.043892 
L 352.89368 371.083264 
L 353.548081 414.759994 
L 354.202482 351.563473 
L 354.856883 331.873442 
L 355.511284 450.528972 
L 356.165685 425.884883 
L 356.820086 413.777989 
L 357.474487 315.490124 
L 358.128888 369.771661 
L 358.78329 398.801526 
L 359.437691 317.455517 
L 360.092092 361.230265 
L 360.746493 386.098055 
L 361.400894 380.938375 
L 362.055295 412.113977 
L 362.709696 368.803194 
L 363.364097 406.435495 
L 364.018498 410.4571 
L 364.672899 349.096378 
L 365.327301 373.95713 
L 365.981702 375.785912 
L 367.290504 396.275086 
L 367.944905 312.44651 
L 368.599306 322.657488 
L 369.253707 368.771222 
L 369.908108 292.895814 
L 370.562509 364.754026 
L 371.21691 358.992185 
L 371.871311 295.948152 
L 372.525713 400.261934 
L 373.180114 335.037456 
L 373.834515 327.099063 
L 374.488916 324.173505 
L 375.143317 382.705215 
L 375.797718 394.512109 
L 376.452119 301.672715 
L 377.10652 391.406206 
L 377.760921 403.719347 
L 378.415322 365.018765 
L 379.069724 406.240471 
L 380.378526 424.699037 
L 381.032927 349.334573 
L 381.687328 393.529123 
L 382.341729 391.40168 
L 382.99613 432.38055 
L 383.650531 392.979769 
L 384.304932 395.509448 
L 384.959333 396.805816 
L 385.613734 361.381382 
L 386.268136 354.360413 
L 386.922537 358.696412 
L 387.576938 337.302257 
L 388.231339 338.819236 
L 388.88574 354.550779 
L 389.540141 357.977738 
L 390.194542 339.105812 
L 390.848943 346.692891 
L 391.503344 369.410549 
L 392.157745 355.724755 
L 392.812147 346.381334 
L 393.466548 360.54656 
L 394.120949 319.125818 
L 394.77535 369.843004 
L 395.429751 341.054807 
L 396.084152 319.274078 
L 396.738553 328.581436 
L 397.392954 357.75229 
L 398.047355 361.264675 
L 398.701756 338.539385 
L 399.356158 365.271399 
L 400.010559 324.675168 
L 400.66496 322.880455 
L 401.319361 357.836046 
L 401.973762 363.365513 
L 402.628163 328.96178 
L 403.282564 336.350236 
L 403.936965 349.025807 
L 404.591366 344.984935 
L 405.245767 351.769878 
L 405.900168 365.470538 
L 406.55457 370.294106 
L 407.208971 352.780299 
L 407.863372 368.802351 
L 408.517773 336.149608 
L 409.172174 354.345776 
L 409.826575 335.902766 
L 410.480976 347.971299 
L 411.135377 351.747925 
L 411.789778 365.580119 
L 412.444179 351.275843 
L 413.098581 345.039356 
L 413.752982 348.354188 
L 414.407383 350.597711 
L 415.061784 370.923348 
L 415.716185 342.164277 
L 416.370586 355.260754 
L 417.024987 347.577725 
L 417.679388 364.624885 
L 418.333789 371.489416 
L 418.98819 375.003998 
L 419.642591 339.065319 
L 420.296993 330.3931 
L 420.951394 374.680724 
L 421.605795 377.197652 
L 422.260196 375.510154 
L 422.914597 404.793986 
L 423.568998 385.542223 
L 424.223399 417.428465 
L 424.8778 387.796861 
L 425.532201 296.039172 
L 426.186602 362.349356 
L 426.841004 361.967438 
L 427.495405 298.328777 
L 428.149806 363.870633 
L 428.804207 289.839914 
L 429.458608 378.41545 
L 430.113009 336.448135 
L 430.76741 366.639166 
L 431.421811 379.967328 
L 432.076212 320.379715 
L 432.730613 365.715341 
L 433.385014 375.376006 
L 434.039416 399.910027 
L 434.693817 377.49668 
L 435.348218 365.78333 
L 436.002619 376.554787 
L 436.65702 332.447679 
L 437.311421 363.339142 
L 437.965822 345.330693 
L 438.620223 394.627478 
L 439.274624 361.490845 
L 439.929025 293.859905 
L 440.583427 397.895218 
L 441.237828 395.354306 
L 441.892229 390.728665 
L 442.54663 354.568916 
L 443.201031 388.057516 
L 443.855432 314.162769 
L 444.509833 389.445839 
L 445.164234 328.929256 
L 445.818635 404.986289 
L 446.473036 390.475031 
L 447.127437 379.209182 
L 447.781839 357.743021 
L 448.43624 400.546178 
L 449.090641 325.074441 
L 449.745042 342.833542 
L 450.399443 344.126636 
L 451.053844 338.891843 
L 451.708245 355.987564 
L 452.362646 384.462561 
L 453.017047 422.507351 
L 453.671448 419.927234 
L 454.32585 391.728142 
L 454.980251 407.847312 
L 455.634652 417.271288 
L 456.289053 413.18699 
L 456.943454 385.965332 
L 457.597855 391.715807 
L 458.252256 311.145824 
L 458.906657 391.464104 
L 459.561058 378.281688 
L 460.215459 398.156839 
L 460.86986 350.647854 
L 461.524262 380.063314 
L 462.178663 360.065116 
L 462.833064 368.35446 
L 463.487465 337.453914 
L 464.141866 390.56971 
L 464.796267 303.282896 
L 465.450668 328.593706 
L 466.105069 323.283496 
L 466.75947 313.001077 
L 467.413871 363.85944 
L 468.068273 399.665879 
L 468.722674 373.997034 
L 469.377075 361.563212 
L 470.031476 362.993338 
L 470.685877 384.509786 
L 471.340278 309.047987 
L 471.994679 308.247185 
L 472.64908 391.664361 
L 473.303481 372.332731 
L 473.957882 390.915599 
L 474.612283 286.037654 
L 475.266685 367.748492 
L 475.921086 329.476493 
L 476.575487 319.599169 
L 477.229888 350.828804 
L 477.884289 395.123173 
L 478.53869 339.487782 
L 479.193091 389.018074 
L 479.847492 296.863947 
L 480.501893 413.129014 
L 481.156294 392.728119 
L 481.810696 398.99557 
L 482.465097 358.362701 
L 483.119498 421.757603 
L 483.773899 433.035925 
L 484.4283 428.777059 
L 485.082701 388.066103 
L 485.737102 425.182811 
L 486.391503 388.498692 
L 487.045904 387.850449 
L 487.700305 386.51496 
L 488.354706 391.061644 
L 489.009108 312.789455 
L 489.663509 372.523353 
L 490.31791 282.135199 
L 490.972311 391.813325 
L 491.626712 342.127531 
L 492.281113 407.537994 
L 492.935514 362.287638 
L 493.589915 373.351398 
L 494.244316 318.852568 
L 494.898717 328.095678 
L 495.553119 401.042811 
L 496.20752 323.298168 
L 496.861921 310.192367 
L 497.516322 290.999905 
L 498.170723 316.202721 
L 498.825124 377.210937 
L 499.479525 325.841725 
L 500.133926 387.85341 
L 500.788327 395.530915 
L 501.442728 395.191571 
L 502.097129 382.671874 
L 503.405932 364.533821 
L 504.060333 280.79848 
L 504.714734 373.157518 
L 505.369135 410.188842 
L 506.023536 290.287474 
L 506.677937 340.900429 
L 507.332338 348.346063 
L 507.986739 326.28291 
L 508.64114 418.087551 
L 509.295542 361.370556 
L 509.949943 430.557868 
L 510.604344 437.149589 
L 511.258745 437.260398 
L 511.913146 436.023703 
L 512.567547 305.085353 
L 513.221948 398.141055 
L 513.876349 327.831077 
L 514.53075 423.638094 
L 515.185151 290.529306 
L 515.839552 381.775672 
L 516.493954 415.79808 
L 517.148355 351.836373 
L 517.802756 406.33819 
L 518.457157 406.298149 
L 519.111558 397.918517 
L 519.765959 340.267611 
L 520.42036 330.754347 
L 521.074761 335.414859 
L 521.729162 396.463044 
L 522.383563 353.08539 
L 523.037965 394.355088 
L 523.692366 381.655309 
L 524.346767 404.679593 
L 525.001168 346.392202 
L 525.655569 397.718503 
L 526.30997 402.288288 
L 526.964371 379.93656 
L 527.618772 397.180628 
L 528.273173 342.929579 
L 528.927574 339.854402 
L 529.581975 310.071146 
L 530.236377 384.277207 
L 530.890778 365.80957 
L 531.545179 406.344957 
L 532.19958 306.763225 
L 532.853981 423.453044 
L 533.508382 393.733189 
L 534.162783 405.456964 
L 534.817184 427.068361 
L 535.471585 400.897829 
L 536.125986 395.038108 
L 536.780388 458.394686 
L 537.434789 410.917099 
L 538.08919 456.372812 
L 538.743591 378.650966 
L 539.397992 363.687668 
L 540.052393 411.542754 
L 540.706794 406.023788 
L 541.361195 392.211318 
L 542.015596 406.025987 
L 542.669997 308.759784 
L 543.324398 386.565954 
L 543.9788 421.236691 
L 544.633201 319.090809 
L 545.287602 402.239024 
L 545.942003 294.800833 
L 546.596404 436.26515 
L 547.250805 381.965162 
L 548.559607 437.437634 
L 549.214008 295.290272 
L 550.522811 423.320349 
L 551.177212 365.279271 
L 551.831613 429.404974 
L 552.486014 361.681953 
L 553.140415 428.147091 
L 553.794816 435.222399 
L 554.449217 393.77146 
L 555.103618 436.160629 
L 555.758019 446.205485 
L 556.41242 439.100817 
L 557.066821 429.047653 
L 557.721223 421.376661 
L 558.375624 459.042525 
L 559.030025 448.644011 
L 559.684426 325.888873 
L 560.338827 450.205754 
L 560.993228 468.127646 
L 561.647629 433.068332 
L 562.30203 428.356117 
L 562.956431 433.226572 
L 563.610832 403.303625 
L 564.265234 442.472797 
L 564.919635 451.261963 
L 565.574036 405.165147 
L 566.228437 447.104913 
L 566.882838 468.236643 
L 567.537239 463.729629 
L 568.19164 436.751976 
L 568.846041 386.225664 
L 569.500442 428.900516 
L 570.154843 414.175486 
L 570.809244 447.074813 
L 571.463646 424.342685 
L 572.118047 352.148357 
L 572.772448 400.572823 
L 573.426849 388.233572 
L 574.08125 414.092724 
L 574.735651 390.923085 
L 575.390052 408.149127 
L 576.044453 371.356994 
L 576.698854 392.118847 
L 577.353255 444.933852 
L 578.007657 272.432013 
L 578.662058 398.989933 
L 579.316459 316.566129 
L 579.97086 313.090269 
L 580.625261 420.164294 
L 581.279662 396.727193 
L 581.934063 437.304612 
L 582.588464 336.021667 
L 583.242865 309.532468 
L 583.897266 443.233924 
L 584.551667 406.797681 
L 585.206069 441.737703 
L 585.86047 456.708201 
L 587.169272 420.449743 
L 587.823673 415.422302 
L 588.478074 323.335479 
L 589.132475 323.360197 
L 589.786876 384.79404 
L 590.441277 365.930672 
L 591.095678 356.858167 
L 591.75008 394.661507 
L 592.404481 408.907078 
L 593.058882 371.748987 
L 593.713283 400.030234 
L 594.367684 319.421364 
L 595.022085 373.24913 
L 595.676486 295.640827 
L 596.330887 417.344551 
L 596.985288 409.576119 
L 597.639689 333.911021 
L 598.29409 414.272092 
L 598.948492 362.83019 
L 599.602893 410.17342 
L 600.257294 413.875148 
L 600.911695 292.781534 
L 601.566096 363.619966 
L 602.220497 332.247302 
L 602.874898 394.957194 
L 603.529299 364.644415 
L 604.1837 400.053184 
L 604.838101 388.574781 
L 605.492503 420.612278 
L 606.146904 382.787661 
L 606.801305 308.1636 
L 607.455706 392.213064 
L 608.110107 386.216967 
L 608.764508 343.618611 
L 609.418909 404.197796 
L 610.07331 328.490443 
L 610.727711 441.735056 
L 611.382112 443.587875 
L 612.036513 436.185605 
L 612.690915 436.972724 
L 613.345316 318.224917 
L 613.999717 384.541069 
L 614.654118 303.030478 
L 615.308519 344.726974 
L 615.96292 418.213317 
L 616.617321 298.275503 
L 617.271722 345.847516 
L 617.926123 412.725875 
L 618.580524 340.018941 
L 619.234926 383.770626 
L 619.889327 287.240203 
L 620.543728 393.00779 
L 621.198129 387.126384 
L 621.85253 384.56037 
L 622.506931 375.498566 
L 623.161332 313.267093 
L 623.815733 328.533575 
L 624.470134 335.389793 
L 625.124535 378.980055 
L 625.778936 328.875748 
L 626.433338 317.248871 
L 627.087739 404.458271 
L 627.74214 397.046139 
L 628.396541 346.984039 
L 629.050942 325.801071 
L 629.705343 395.300765 
L 630.359744 354.910185 
L 631.014145 386.344298 
L 631.668546 371.500736 
L 632.322947 406.694579 
L 632.977349 390.854758 
L 633.63175 350.930971 
L 634.286151 413.475857 
L 634.940552 377.542581 
L 635.594953 328.537439 
L 636.249354 390.417817 
L 636.903755 390.555378 
L 637.558156 388.632229 
L 638.212557 320.267128 
L 638.866958 368.94929 
L 639.521359 408.594544 
L 640.175761 401.426523 
L 640.830162 452.951367 
L 641.484563 462.166039 
L 642.138964 429.51583 
L 642.793365 291.784089 
L 643.447766 322.989122 
L 644.102167 459.960368 
L 644.756568 389.774592 
L 645.410969 400.470155 
L 646.06537 441.453462 
L 646.719772 338.498906 
L 647.374173 440.483771 
L 648.028574 425.55709 
L 649.991777 400.733763 
L 650.646178 400.080752 
L 651.300579 437.585871 
L 651.95498 449.367596 
L 652.609381 450.708206 
L 653.263782 367.299394 
L 653.918184 417.330517 
L 654.572585 435.031046 
L 655.226986 413.708358 
L 655.881387 466.855009 
L 656.535788 388.234464 
L 657.190189 388.139382 
L 657.84459 421.842786 
L 658.498991 439.698753 
L 659.153392 308.739147 
L 659.807793 390.933924 
L 660.462195 376.29672 
L 661.116596 344.516935 
L 661.770997 383.680808 
L 662.425398 290.845261 
L 663.079799 379.180144 
L 663.7342 405.171492 
L 664.388601 372.997533 
L 665.043002 422.687948 
L 665.697403 316.918742 
L 666.351804 427.472344 
L 667.006205 400.74505 
L 667.660607 418.458466 
L 668.315008 393.825076 
L 668.969409 401.950548 
L 669.62381 426.598453 
L 670.278211 382.355567 
L 671.587013 427.424997 
L 672.241414 289.602939 
L 672.895815 404.656184 
L 673.550216 408.445383 
L 674.204618 358.78697 
L 674.859019 396.146818 
L 675.51342 443.62773 
L 676.167821 303.655167 
L 676.822222 437.428744 
L 677.476623 423.124597 
L 678.131024 435.411171 
L 678.785425 464.090621 
L 679.439826 424.926093 
L 680.094227 427.135945 
L 680.748628 362.298942 
L 681.40303 431.856385 
L 682.057431 396.662599 
L 682.711832 418.810226 
L 683.366233 354.685788 
L 684.020634 438.159063 
L 684.675035 406.902734 
L 685.329436 439.392125 
L 685.983837 341.794462 
L 686.638238 450.073893 
L 687.292639 418.041205 
L 687.947041 416.703379 
L 688.601442 428.389191 
L 689.255843 400.304652 
L 689.910244 312.985027 
L 690.564645 453.234402 
L 691.219046 404.958004 
L 691.873447 377.326462 
L 692.527848 443.009123 
L 693.182249 450.927714 
L 693.83665 432.325106 
L 694.491051 407.613256 
L 695.145453 399.779171 
L 695.799854 456.063423 
L 696.454255 314.412563 
L 697.108656 409.304362 
L 697.763057 410.942678 
L 698.417458 439.208243 
L 699.071859 371.538484 
L 699.72626 331.767052 
L 700.380661 389.865015 
L 701.035062 370.791495 
L 701.689464 381.418126 
L 702.343865 399.334693 
L 702.998266 333.196978 
L 703.652667 354.327184 
L 704.307068 402.537328 
L 704.961469 280.802724 
L 705.61587 443.561469 
L 706.270271 438.712252 
L 706.924672 296.874649 
L 707.579073 438.432383 
L 708.233474 366.723122 
L 708.887876 413.735688 
L 709.542277 436.343854 
L 710.196678 335.99493 
L 710.851079 430.435968 
L 711.50548 400.131155 
L 712.159881 451.210348 
L 712.814282 450.564131 
L 713.468683 370.155638 
L 714.123084 400.748843 
L 714.777485 322.61738 
L 715.431887 296.283988 
L 716.086288 444.166121 
L 716.740689 333.463863 
L 717.39509 425.844826 
L 718.049491 381.978024 
L 718.703892 426.776241 
L 719.358293 437.578799 
L 720.012694 376.763174 
L 720.667095 350.231454 
L 721.321496 420.546417 
L 721.975897 387.340716 
L 722.630299 406.551293 
L 723.2847 344.822701 
L 723.939101 433.721449 
L 724.593502 433.850495 
L 725.247903 376.409297 
L 725.902304 431.401835 
L 727.211106 267.102283 
L 727.865507 442.058208 
L 728.519908 411.660861 
L 729.17431 419.026394 
L 729.828711 435.368552 
L 730.483112 341.613946 
L 731.137513 461.510368 
L 731.791914 423.206049 
L 732.446315 452.046973 
L 733.100716 468.317044 
L 733.755117 447.276328 
L 734.409518 342.461453 
L 735.063919 458.265064 
L 735.71832 472.238757 
L 736.372722 431.798827 
L 737.027123 423.222501 
L 737.681524 307.292134 
L 738.335925 457.190852 
L 738.990326 454.683262 
L 739.644727 381.118425 
L 740.953529 472.59488 
L 741.60793 473.846172 
L 742.262331 438.96614 
L 742.916733 453.776499 
L 743.571134 447.602783 
L 744.225535 453.214622 
L 744.879936 422.431469 
L 745.534337 462.279234 
L 746.188738 432.526848 
L 746.843139 382.944787 
L 747.49754 462.689383 
L 748.151941 414.217327 
L 748.806342 383.883314 
L 749.460743 431.38343 
L 750.115145 344.556188 
L 750.769546 367.415651 
L 751.423947 453.248584 
L 752.078348 445.600271 
L 752.732749 336.166875 
L 753.38715 430.011564 
L 754.041551 362.065012 
L 754.695952 435.419031 
L 755.350353 330.987953 
L 756.004754 446.625251 
L 756.659156 458.563157 
L 757.313557 404.890261 
L 757.967958 441.542337 
L 758.622359 440.541254 
L 759.27676 408.903848 
L 759.931161 423.989006 
L 760.585562 452.828234 
L 761.239963 457.652851 
L 761.894364 436.602416 
L 762.548765 303.644399 
L 763.203166 463.41777 
L 763.857568 419.830171 
L 764.511969 458.317712 
L 765.16637 434.990003 
L 765.820771 420.77509 
L 766.475172 413.139387 
L 767.129573 467.655556 
L 767.783974 420.456877 
L 768.438375 349.877816 
L 769.092776 451.356981 
L 769.747177 379.285783 
L 770.401579 445.582748 
L 771.05598 459.835737 
L 771.710381 442.047443 
L 772.364782 349.269836 
L 773.019183 446.831988 
L 773.673584 470.732458 
L 774.327985 481.218455 
L 774.982386 483.95192 
L 775.636787 481.381549 
L 776.291188 465.489807 
L 776.945589 419.115699 
L 777.599991 362.577005 
L 778.254392 452.100322 
L 778.908793 475.537681 
L 779.563194 482.687557 
L 780.217595 480.422733 
L 780.871996 460.731964 
L 781.526397 380.132366 
L 782.180798 477.767946 
L 782.835199 482.545157 
L 783.4896 466.29845 
L 784.144002 426.282859 
L 784.798403 476.187832 
L 785.452804 387.599061 
L 786.107205 456.08144 
L 786.761606 474.3958 
L 787.416007 484.291537 
L 788.070408 487.355604 
L 788.724809 484.243651 
L 789.37921 474.606305 
L 790.033611 456.811214 
L 790.688012 408.841994 
L 791.342414 409.446675 
L 791.996815 460.359939 
L 792.651216 475.398381 
L 793.305617 483.309819 
L 793.960018 485.793291 
L 794.614419 483.11308 
L 795.26882 475.750825 
L 795.923221 463.464859 
L 796.577622 440.236981 
L 797.232023 376.080584 
L 797.886425 422.073013 
L 798.540826 455.116212 
L 799.195227 457.863321 
L 799.849628 417.925502 
L 800.504029 437.59874 
L 800.504029 437.59874 
" clip-path="url(#pb2cd5c1efc)" style="fill: none; stroke-dasharray: 11.1,4.8; stroke-dashoffset: 0; stroke: #ff7f0e; stroke-width: 3"/>
   </g>
   <g id="line2d_36">
    <path d="M 258.595066 -1 
L 259.968724 234.187283 
L 260.623125 332.565198 
L 261.277526 366.595509 
L 261.931927 307.292262 
L 263.24073 68.433366 
L 263.582428 -1 
M 287.54581 -1 
L 288.107971 210.913585 
L 288.762372 348.92857 
L 289.416773 257.099785 
L 290.071175 121.289235 
L 290.380246 -1 
M 312.87665 -1 
L 312.975213 19.90628 
L 313.629614 182.446959 
L 314.284015 309.023644 
L 314.938416 345.150351 
L 315.592817 239.949841 
L 316.585098 -1 
M 340.808918 -1 
L 341.768861 247.975139 
L 342.423262 341.564303 
L 343.077663 285.557984 
L 343.732064 176.571398 
L 344.389738 -1 
M 367.700332 -1 
L 367.944905 69.58693 
L 369.253707 277.194352 
L 369.908108 341.217474 
L 370.562509 230.844967 
L 371.475981 -1 
M 400.185206 -1 
L 401.973762 265.795209 
L 402.628163 340.733276 
L 403.282564 387.214175 
L 403.936965 359.642115 
L 404.591366 282.453697 
L 405.900168 80.672003 
L 406.38574 -1 
M 436.185572 -1 
L 437.311421 242.509074 
L 437.965822 315.746288 
L 438.620223 358.530038 
L 439.274624 303.262145 
L 439.929025 174.173397 
L 440.676971 -1 
M 466.696693 -1 
L 468.068273 275.017508 
L 468.722674 359.248252 
L 469.377075 336.926658 
L 470.031476 231.071343 
L 471.114437 -1 
M 495.723722 -1 
L 496.20752 109.269259 
L 496.861921 288.732344 
L 497.516322 392.574964 
L 498.170723 268.66328 
L 499.288204 -1 
M 522.143073 -1 
L 523.692366 409.071578 
L 524.346767 291.262699 
L 525.395944 -1 
M 544.836775 -1 
L 545.942003 388.223476 
L 546.596404 168.052981 
L 546.934448 -1 
M 561.124039 -1 
L 561.647629 347.697008 
L 562.252251 -1 
M 576.635473 -1 
L 577.353255 337.558996 
L 578.007657 255.898119 
L 578.762999 -1 
M 597.929972 -1 
L 598.948492 322.487139 
L 599.602893 398.982928 
L 600.257294 226.006069 
L 600.953715 -1 
M 624.362938 -1 
L 625.124535 187.924973 
L 625.778936 321.504562 
L 626.433338 331.446995 
L 627.087739 211.142082 
L 627.901904 -1 
M 647.502167 -1 
L 648.028574 314.917619 
L 648.682975 170.461741 
L 649.082996 -1 
M 665.820724 -1 
L 666.351804 189.067832 
L 667.006205 339.815735 
L 667.660607 230.953676 
L 668.298864 -1 
M 685.262459 -1 
L 685.983837 411.171136 
L 686.638238 166.340602 
L 686.891905 -1 
M 702.093652 -1 
L 702.343865 137.758915 
L 702.998266 385.60007 
L 703.652667 259.023878 
L 704.135714 -1 
M 720.313891 -1 
L 721.321496 406.46666 
L 721.975897 174.735225 
L 722.353082 -1 
M 736.340558 -1 
L 736.372722 26.425292 
L 737.027123 349.114322 
L 737.572701 -1 
M 750.878521 -1 
L 751.423947 272.677592 
L 752.078348 89.789246 
L 752.247737 -1 
M 765.432913 -1 
L 765.820771 233.231654 
L 766.475172 105.05442 
L 766.619995 -1 
M 778.349758 -1 
L 778.908793 344.510988 
L 779.282452 -1 
M 789.954957 -1 
L 790.033611 74.971289 
L 790.688012 89.363699 
L 790.81814 -1 
L 790.81814 -1 
" clip-path="url(#pb2cd5c1efc)" style="fill: none; stroke: #000000; stroke-width: 3; stroke-linecap: square"/>
   </g>
   <g id="patch_3">
    <path d="M 114.07 489.2325 
L 114.07 28.08 
" style="fill: none; stroke: #000000; stroke-width: 2; stroke-linejoin: miter; stroke-linecap: square"/>
   </g>
   <g id="patch_4">
    <path d="M 833.191364 489.2325 
L 833.191364 28.08 
" style="fill: none; stroke: #000000; stroke-width: 2; stroke-linejoin: miter; stroke-linecap: square"/>
   </g>
   <g id="patch_5">
    <path d="M 114.07 489.2325 
L 833.191364 489.2325 
" style="fill: none; stroke: #000000; stroke-width: 2; stroke-linejoin: miter; stroke-linecap: square"/>
   </g>
   <g id="patch_6">
    <path d="M 114.07 28.08 
L 833.191364 28.08 
" style="fill: none; stroke: #000000; stroke-width: 2; stroke-linejoin: miter; stroke-linecap: square"/>
   </g>
   <g id="legend_1">
    <g id="patch_7">
     <path d="M 125.27 111.335 
L 263.7675 111.335 
Q 266.9675 111.335 266.9675 108.135 
L 266.9675 39.28 
Q 266.9675 36.08 263.7675 36.08 
L 125.27 36.08 
Q 122.07 36.08 122.07 39.28 
L 122.07 108.135 
Q 122.07 111.335 125.27 111.335 
z
" style="fill: #ffffff; opacity: 0.8; stroke: #cccccc; stroke-linejoin: miter"/>
    </g>
    <g id="line2d_37">
     <path d="M 128.47 49.0375 
L 144.47 49.0375 
L 160.47 49.0375 
" style="fill: none; stroke: #1f77b4; stroke-width: 3; stroke-linecap: square"/>
    </g>
    <g id="text_14">
     <!-- Electron 1 -->
     <g transform="translate(173.27 54.6375) scale(0.16 -0.16)">
      <defs>
       <path id="DejaVuSerif-45" d="M 353 0 
L 353 331 
L 947 331 
L 947 4331 
L 353 4331 
L 353 4666 
L 4109 4666 
L 4109 3628 
L 3725 3628 
L 3725 4281 
L 1581 4281 
L 1581 2719 
L 3109 2719 
L 3109 3303 
L 3494 3303 
L 3494 1753 
L 3109 1753 
L 3109 2338 
L 1581 2338 
L 1581 384 
L 3775 384 
L 3775 1038 
L 4159 1038 
L 4159 0 
L 353 0 
z
" transform="scale(0.015625)"/>
       <path id="DejaVuSerif-6c" d="M 1313 331 
L 1856 331 
L 1856 0 
L 184 0 
L 184 331 
L 738 331 
L 738 4531 
L 184 4531 
L 184 4863 
L 1313 4863 
L 1313 331 
z
" transform="scale(0.015625)"/>
       <path id="DejaVuSerif-65" d="M 3469 1600 
L 991 1600 
L 991 1575 
Q 991 903 1244 561 
Q 1497 219 1991 219 
Q 2369 219 2611 417 
Q 2853 616 2950 1006 
L 3413 1006 
Q 3275 459 2904 184 
Q 2534 -91 1931 -91 
Q 1203 -91 761 389 
Q 319 869 319 1663 
Q 319 2450 753 2931 
Q 1188 3413 1894 3413 
Q 2647 3413 3050 2948 
Q 3453 2484 3469 1600 
z
M 2791 1931 
Q 2772 2513 2545 2808 
Q 2319 3103 1894 3103 
Q 1497 3103 1269 2806 
Q 1041 2509 991 1931 
L 2791 1931 
z
" transform="scale(0.015625)"/>
       <path id="DejaVuSerif-63" d="M 3291 997 
Q 3169 466 2822 187 
Q 2475 -91 1925 -91 
Q 1200 -91 759 389 
Q 319 869 319 1663 
Q 319 2459 759 2936 
Q 1200 3413 1925 3413 
Q 2241 3413 2553 3339 
Q 2866 3266 3181 3116 
L 3181 2266 
L 2847 2266 
Q 2781 2703 2561 2903 
Q 2341 3103 1931 3103 
Q 1466 3103 1228 2742 
Q 991 2381 991 1663 
Q 991 944 1227 581 
Q 1463 219 1931 219 
Q 2303 219 2525 412 
Q 2747 606 2828 997 
L 3291 997 
z
" transform="scale(0.015625)"/>
       <path id="DejaVuSerif-74" d="M 691 2988 
L 184 2988 
L 184 3322 
L 691 3322 
L 691 4353 
L 1269 4353 
L 1269 3322 
L 2350 3322 
L 2350 2988 
L 1269 2988 
L 1269 878 
Q 1269 456 1350 337 
Q 1431 219 1650 219 
Q 1875 219 1978 351 
Q 2081 484 2088 781 
L 2522 781 
Q 2497 328 2275 118 
Q 2053 -91 1600 -91 
Q 1103 -91 897 129 
Q 691 350 691 878 
L 691 2988 
z
" transform="scale(0.015625)"/>
       <path id="DejaVuSerif-72" d="M 3059 3328 
L 3059 2497 
L 2728 2497 
Q 2713 2744 2591 2866 
Q 2469 2988 2234 2988 
Q 1809 2988 1582 2694 
Q 1356 2400 1356 1850 
L 1356 331 
L 2022 331 
L 2022 0 
L 263 0 
L 263 331 
L 781 331 
L 781 2994 
L 231 2994 
L 231 3322 
L 1356 3322 
L 1356 2731 
Q 1525 3078 1790 3245 
Q 2056 3413 2438 3413 
Q 2578 3413 2733 3391 
Q 2888 3369 3059 3328 
z
" transform="scale(0.015625)"/>
       <path id="DejaVuSerif-6f" d="M 1925 219 
Q 2388 219 2623 584 
Q 2859 950 2859 1663 
Q 2859 2375 2623 2739 
Q 2388 3103 1925 3103 
Q 1463 3103 1227 2739 
Q 991 2375 991 1663 
Q 991 950 1228 584 
Q 1466 219 1925 219 
z
M 1925 -91 
Q 1200 -91 759 389 
Q 319 869 319 1663 
Q 319 2456 758 2934 
Q 1197 3413 1925 3413 
Q 2653 3413 3092 2934 
Q 3531 2456 3531 1663 
Q 3531 869 3092 389 
Q 2653 -91 1925 -91 
z
" transform="scale(0.015625)"/>
       <path id="DejaVuSerif-6e" d="M 263 0 
L 263 331 
L 781 331 
L 781 2988 
L 231 2988 
L 231 3322 
L 1356 3322 
L 1356 2731 
Q 1516 3069 1770 3241 
Q 2025 3413 2363 3413 
Q 2913 3413 3172 3097 
Q 3431 2781 3431 2113 
L 3431 331 
L 3944 331 
L 3944 0 
L 2356 0 
L 2356 331 
L 2853 331 
L 2853 1931 
Q 2853 2541 2703 2767 
Q 2553 2994 2175 2994 
Q 1775 2994 1565 2701 
Q 1356 2409 1356 1850 
L 1356 331 
L 1856 331 
L 1856 0 
L 263 0 
z
" transform="scale(0.015625)"/>
      </defs>
      <use xlink:href="#DejaVuSerif-45"/>
      <use xlink:href="#DejaVuSerif-6c" x="72.998047"/>
      <use xlink:href="#DejaVuSerif-65" x="104.980469"/>
      <use xlink:href="#DejaVuSerif-63" x="164.160156"/>
      <use xlink:href="#DejaVuSerif-74" x="220.166016"/>
      <use xlink:href="#DejaVuSerif-72" x="260.351562"/>
      <use xlink:href="#DejaVuSerif-6f" x="308.154297"/>
      <use xlink:href="#DejaVuSerif-6e" x="368.359375"/>
      <use xlink:href="#DejaVuSerif-20" x="432.763672"/>
      <use xlink:href="#DejaVuSerif-31" x="464.550781"/>
     </g>
    </g>
    <g id="line2d_38">
     <path d="M 128.47 72.5225 
L 144.47 72.5225 
L 160.47 72.5225 
" style="fill: none; stroke-dasharray: 11.1,4.8; stroke-dashoffset: 0; stroke: #ff7f0e; stroke-width: 3"/>
    </g>
    <g id="text_15">
     <!-- Electron 2 -->
     <g transform="translate(173.27 78.1225) scale(0.16 -0.16)">
      <use xlink:href="#DejaVuSerif-45"/>
      <use xlink:href="#DejaVuSerif-6c" x="72.998047"/>
      <use xlink:href="#DejaVuSerif-65" x="104.980469"/>
      <use xlink:href="#DejaVuSerif-63" x="164.160156"/>
      <use xlink:href="#DejaVuSerif-74" x="220.166016"/>
      <use xlink:href="#DejaVuSerif-72" x="260.351562"/>
      <use xlink:href="#DejaVuSerif-6f" x="308.154297"/>
      <use xlink:href="#DejaVuSerif-6e" x="368.359375"/>
      <use xlink:href="#DejaVuSerif-20" x="432.763672"/>
      <use xlink:href="#DejaVuSerif-32" x="464.550781"/>
     </g>
    </g>
    <g id="line2d_39">
     <path d="M 128.47 96.0075 
L 144.47 96.0075 
L 160.47 96.0075 
" style="fill: none; stroke: #000000; stroke-width: 3; stroke-linecap: square"/>
    </g>
    <g id="text_16">
     <!-- Antiproton -->
     <g transform="translate(173.27 101.6075) scale(0.16 -0.16)">
      <defs>
       <path id="DejaVuSerif-41" d="M 1281 1691 
L 2994 1691 
L 2138 3909 
L 1281 1691 
z
M -38 0 
L -38 331 
L 372 331 
L 2034 4666 
L 2559 4666 
L 4225 331 
L 4684 331 
L 4684 0 
L 2988 0 
L 2988 331 
L 3506 331 
L 3116 1356 
L 1153 1356 
L 763 331 
L 1275 331 
L 1275 0 
L -38 0 
z
" transform="scale(0.015625)"/>
       <path id="DejaVuSerif-69" d="M 622 4353 
Q 622 4497 726 4603 
Q 831 4709 978 4709 
Q 1122 4709 1226 4603 
Q 1331 4497 1331 4353 
Q 1331 4206 1228 4103 
Q 1125 4000 978 4000 
Q 831 4000 726 4103 
Q 622 4206 622 4353 
z
M 1356 331 
L 1900 331 
L 1900 0 
L 231 0 
L 231 331 
L 781 331 
L 781 2988 
L 231 2988 
L 231 3322 
L 1356 3322 
L 1356 331 
z
" transform="scale(0.015625)"/>
       <path id="DejaVuSerif-70" d="M 1313 1825 
L 1313 1497 
Q 1313 897 1542 583 
Q 1772 269 2209 269 
Q 2650 269 2876 622 
Q 3103 975 3103 1663 
Q 3103 2353 2876 2703 
Q 2650 3053 2209 3053 
Q 1772 3053 1542 2737 
Q 1313 2422 1313 1825 
z
M 738 2988 
L 184 2988 
L 184 3322 
L 1313 3322 
L 1313 2803 
Q 1481 3116 1742 3264 
Q 2003 3413 2388 3413 
Q 3000 3413 3387 2928 
Q 3775 2444 3775 1663 
Q 3775 881 3387 395 
Q 3000 -91 2388 -91 
Q 2003 -91 1742 57 
Q 1481 206 1313 519 
L 1313 -997 
L 1856 -997 
L 1856 -1331 
L 184 -1331 
L 184 -997 
L 738 -997 
L 738 2988 
z
" transform="scale(0.015625)"/>
      </defs>
      <use xlink:href="#DejaVuSerif-41"/>
      <use xlink:href="#DejaVuSerif-6e" x="72.216797"/>
      <use xlink:href="#DejaVuSerif-74" x="136.621094"/>
      <use xlink:href="#DejaVuSerif-69" x="176.806641"/>
      <use xlink:href="#DejaVuSerif-70" x="208.789062"/>
      <use xlink:href="#DejaVuSerif-72" x="272.802734"/>
      <use xlink:href="#DejaVuSerif-6f" x="320.605469"/>
      <use xlink:href="#DejaVuSerif-74" x="380.810547"/>
      <use xlink:href="#DejaVuSerif-6f" x="420.996094"/>
      <use xlink:href="#DejaVuSerif-6e" x="481.201172"/>
     </g>
    </g>
   </g>
  </g>
 </g>
 <defs>
  <clipPath id="pb2cd5c1efc">
   <rect x="114.07" y="28.08" width="719.121364" height="461.1525"/>
  </clipPath>
 </defs>
</svg>
