<?xml version="1.0" encoding="utf-8" standalone="no"?>
<!DOCTYPE svg PUBLIC "-//W3C//DTD SVG 1.1//EN"
  "http://www.w3.org/Graphics/SVG/1.1/DTD/svg11.dtd">
<svg xmlns:xlink="http://www.w3.org/1999/xlink" width="864pt" height="576pt" viewBox="0 0 864 576" xmlns="http://www.w3.org/2000/svg" version="1.1">
 <metadata>
  <rdf:RDF xmlns:dc="http://purl.org/dc/elements/1.1/" xmlns:cc="http://creativecommons.org/ns#" xmlns:rdf="http://www.w3.org/1999/02/22-rdf-syntax-ns#">
   <cc:Work>
    <dc:type rdf:resource="http://purl.org/dc/dcmitype/StillImage"/>
    <dc:date>2025-07-09T17:19:40.504863</dc:date>
    <dc:format>image/svg+xml</dc:format>
    <dc:creator>
     <cc:Agent>
      <dc:title>Matplotlib v3.7.2, https://matplotlib.org/</dc:title>
     </cc:Agent>
    </dc:creator>
   </cc:Work>
  </rdf:RDF>
 </metadata>
 <defs>
  <style type="text/css">*{stroke-linejoin: round; stroke-linecap: butt}</style>
 </defs>
 <g id="figure_1">
  <g id="patch_1">
   <path d="M 0 576 
L 864 576 
L 864 0 
L 0 0 
z
" style="fill: #ffffff"/>
  </g>
  <g id="axes_1">
   <g id="patch_2">
    <path d="M 171.39 489.2325 
L 835.92 489.2325 
L 835.92 50.52 
L 171.39 50.52 
z
" style="fill: #ffffff"/>
   </g>
   <g id="matplotlib.axis_1">
    <g id="xtick_1">
     <g id="line2d_1">
      <path d="M 201.595909 489.2325 
L 201.595909 50.52 
" clip-path="url(#p3ca08f20c0)" style="fill: none; stroke-dasharray: 3.7,1.6; stroke-dashoffset: 0; stroke: #b0b0b0; stroke-opacity: 0.5"/>
     </g>
     <g id="line2d_2">
      <defs>
       <path id="mdb96439daf" d="M 0 0 
L 0 -10 
" style="stroke: #000000; stroke-width: 2"/>
      </defs>
      <g>
       <use xlink:href="#mdb96439daf" x="201.595909" y="489.2325" style="stroke: #000000; stroke-width: 2"/>
      </g>
     </g>
     <g id="line2d_3">
      <defs>
       <path id="m898ed02ddd" d="M 0 0 
L 0 10 
" style="stroke: #000000; stroke-width: 2"/>
      </defs>
      <g>
       <use xlink:href="#m898ed02ddd" x="201.595909" y="50.52" style="stroke: #000000; stroke-width: 2"/>
      </g>
     </g>
     <g id="text_1">
      <!-- 0 -->
      <g transform="translate(193.324659 512.488438) scale(0.26 -0.26)">
       <defs>
        <path id="DejaVuSerif-30" d="M 2034 219 
Q 2513 219 2750 744 
Q 2988 1269 2988 2328 
Q 2988 3391 2750 3916 
Q 2513 4441 2034 4441 
Q 1556 4441 1318 3916 
Q 1081 3391 1081 2328 
Q 1081 1269 1318 744 
Q 1556 219 2034 219 
z
M 2034 -91 
Q 1275 -91 848 546 
Q 422 1184 422 2328 
Q 422 3475 848 4112 
Q 1275 4750 2034 4750 
Q 2797 4750 3222 4112 
Q 3647 3475 3647 2328 
Q 3647 1184 3222 546 
Q 2797 -91 2034 -91 
z
" transform="scale(0.015625)"/>
       </defs>
       <use xlink:href="#DejaVuSerif-30"/>
      </g>
     </g>
    </g>
    <g id="xtick_2">
     <g id="line2d_4">
      <path d="M 322.419545 489.2325 
L 322.419545 50.52 
" clip-path="url(#p3ca08f20c0)" style="fill: none; stroke-dasharray: 3.7,1.6; stroke-dashoffset: 0; stroke: #b0b0b0; stroke-opacity: 0.5"/>
     </g>
     <g id="line2d_5">
      <g>
       <use xlink:href="#mdb96439daf" x="322.419545" y="489.2325" style="stroke: #000000; stroke-width: 2"/>
      </g>
     </g>
     <g id="line2d_6">
      <g>
       <use xlink:href="#m898ed02ddd" x="322.419545" y="50.52" style="stroke: #000000; stroke-width: 2"/>
      </g>
     </g>
     <g id="text_2">
      <!-- 10 -->
      <g transform="translate(305.877045 512.488438) scale(0.26 -0.26)">
       <defs>
        <path id="DejaVuSerif-31" d="M 909 0 
L 909 331 
L 1722 331 
L 1722 4213 
L 781 3603 
L 781 4013 
L 1919 4750 
L 2350 4750 
L 2350 331 
L 3163 331 
L 3163 0 
L 909 0 
z
" transform="scale(0.015625)"/>
       </defs>
       <use xlink:href="#DejaVuSerif-31"/>
       <use xlink:href="#DejaVuSerif-30" x="63.623047"/>
      </g>
     </g>
    </g>
    <g id="xtick_3">
     <g id="line2d_7">
      <path d="M 443.243182 489.2325 
L 443.243182 50.52 
" clip-path="url(#p3ca08f20c0)" style="fill: none; stroke-dasharray: 3.7,1.6; stroke-dashoffset: 0; stroke: #b0b0b0; stroke-opacity: 0.5"/>
     </g>
     <g id="line2d_8">
      <g>
       <use xlink:href="#mdb96439daf" x="443.243182" y="489.2325" style="stroke: #000000; stroke-width: 2"/>
      </g>
     </g>
     <g id="line2d_9">
      <g>
       <use xlink:href="#m898ed02ddd" x="443.243182" y="50.52" style="stroke: #000000; stroke-width: 2"/>
      </g>
     </g>
     <g id="text_3">
      <!-- 20 -->
      <g transform="translate(426.700682 512.488438) scale(0.26 -0.26)">
       <defs>
        <path id="DejaVuSerif-32" d="M 819 3553 
L 469 3553 
L 469 4384 
Q 803 4563 1142 4656 
Q 1481 4750 1806 4750 
Q 2534 4750 2956 4397 
Q 3378 4044 3378 3438 
Q 3378 2753 2422 1800 
Q 2347 1728 2309 1691 
L 1131 513 
L 3078 513 
L 3078 1088 
L 3444 1088 
L 3444 0 
L 434 0 
L 434 341 
L 1850 1753 
Q 2319 2222 2519 2614 
Q 2719 3006 2719 3438 
Q 2719 3909 2473 4175 
Q 2228 4441 1797 4441 
Q 1350 4441 1106 4219 
Q 863 3997 819 3553 
z
" transform="scale(0.015625)"/>
       </defs>
       <use xlink:href="#DejaVuSerif-32"/>
       <use xlink:href="#DejaVuSerif-30" x="63.623047"/>
      </g>
     </g>
    </g>
    <g id="xtick_4">
     <g id="line2d_10">
      <path d="M 564.066818 489.2325 
L 564.066818 50.52 
" clip-path="url(#p3ca08f20c0)" style="fill: none; stroke-dasharray: 3.7,1.6; stroke-dashoffset: 0; stroke: #b0b0b0; stroke-opacity: 0.5"/>
     </g>
     <g id="line2d_11">
      <g>
       <use xlink:href="#mdb96439daf" x="564.066818" y="489.2325" style="stroke: #000000; stroke-width: 2"/>
      </g>
     </g>
     <g id="line2d_12">
      <g>
       <use xlink:href="#m898ed02ddd" x="564.066818" y="50.52" style="stroke: #000000; stroke-width: 2"/>
      </g>
     </g>
     <g id="text_4">
      <!-- 30 -->
      <g transform="translate(547.524318 512.488438) scale(0.26 -0.26)">
       <defs>
        <path id="DejaVuSerif-33" d="M 622 4469 
Q 988 4606 1323 4678 
Q 1659 4750 1953 4750 
Q 2638 4750 3022 4454 
Q 3406 4159 3406 3634 
Q 3406 3213 3140 2930 
Q 2875 2647 2388 2547 
Q 2963 2466 3280 2130 
Q 3597 1794 3597 1259 
Q 3597 606 3158 257 
Q 2719 -91 1894 -91 
Q 1528 -91 1179 -12 
Q 831 66 488 225 
L 488 1131 
L 838 1131 
Q 869 681 1141 450 
Q 1413 219 1906 219 
Q 2384 219 2661 495 
Q 2938 772 2938 1253 
Q 2938 1803 2653 2086 
Q 2369 2369 1819 2369 
L 1522 2369 
L 1522 2688 
L 1678 2688 
Q 2225 2688 2498 2914 
Q 2772 3141 2772 3597 
Q 2772 4006 2547 4223 
Q 2322 4441 1900 4441 
Q 1478 4441 1245 4241 
Q 1013 4041 972 3647 
L 622 3647 
L 622 4469 
z
" transform="scale(0.015625)"/>
       </defs>
       <use xlink:href="#DejaVuSerif-33"/>
       <use xlink:href="#DejaVuSerif-30" x="63.623047"/>
      </g>
     </g>
    </g>
    <g id="xtick_5">
     <g id="line2d_13">
      <path d="M 684.890455 489.2325 
L 684.890455 50.52 
" clip-path="url(#p3ca08f20c0)" style="fill: none; stroke-dasharray: 3.7,1.6; stroke-dashoffset: 0; stroke: #b0b0b0; stroke-opacity: 0.5"/>
     </g>
     <g id="line2d_14">
      <g>
       <use xlink:href="#mdb96439daf" x="684.890455" y="489.2325" style="stroke: #000000; stroke-width: 2"/>
      </g>
     </g>
     <g id="line2d_15">
      <g>
       <use xlink:href="#m898ed02ddd" x="684.890455" y="50.52" style="stroke: #000000; stroke-width: 2"/>
      </g>
     </g>
     <g id="text_5">
      <!-- 40 -->
      <g transform="translate(668.347955 512.488438) scale(0.26 -0.26)">
       <defs>
        <path id="DejaVuSerif-34" d="M 2234 1581 
L 2234 4063 
L 641 1581 
L 2234 1581 
z
M 3609 0 
L 1484 0 
L 1484 331 
L 2234 331 
L 2234 1247 
L 197 1247 
L 197 1588 
L 2241 4750 
L 2859 4750 
L 2859 1581 
L 3750 1581 
L 3750 1247 
L 2859 1247 
L 2859 331 
L 3609 331 
L 3609 0 
z
" transform="scale(0.015625)"/>
       </defs>
       <use xlink:href="#DejaVuSerif-34"/>
       <use xlink:href="#DejaVuSerif-30" x="63.623047"/>
      </g>
     </g>
    </g>
    <g id="xtick_6">
     <g id="line2d_16">
      <path d="M 805.714091 489.2325 
L 805.714091 50.52 
" clip-path="url(#p3ca08f20c0)" style="fill: none; stroke-dasharray: 3.7,1.6; stroke-dashoffset: 0; stroke: #b0b0b0; stroke-opacity: 0.5"/>
     </g>
     <g id="line2d_17">
      <g>
       <use xlink:href="#mdb96439daf" x="805.714091" y="489.2325" style="stroke: #000000; stroke-width: 2"/>
      </g>
     </g>
     <g id="line2d_18">
      <g>
       <use xlink:href="#m898ed02ddd" x="805.714091" y="50.52" style="stroke: #000000; stroke-width: 2"/>
      </g>
     </g>
     <g id="text_6">
      <!-- 50 -->
      <g transform="translate(789.171591 512.488438) scale(0.26 -0.26)">
       <defs>
        <path id="DejaVuSerif-35" d="M 3219 4666 
L 3219 4153 
L 1081 4153 
L 1081 2816 
Q 1244 2928 1461 2984 
Q 1678 3041 1947 3041 
Q 2703 3041 3140 2622 
Q 3578 2203 3578 1478 
Q 3578 738 3136 323 
Q 2694 -91 1894 -91 
Q 1572 -91 1234 -12 
Q 897 66 544 225 
L 544 1131 
L 897 1131 
Q 925 688 1179 453 
Q 1434 219 1894 219 
Q 2388 219 2653 544 
Q 2919 869 2919 1478 
Q 2919 2084 2655 2407 
Q 2391 2731 1894 2731 
Q 1613 2731 1398 2631 
Q 1184 2531 1019 2322 
L 750 2322 
L 750 4666 
L 3219 4666 
z
" transform="scale(0.015625)"/>
       </defs>
       <use xlink:href="#DejaVuSerif-35"/>
       <use xlink:href="#DejaVuSerif-30" x="63.623047"/>
      </g>
     </g>
    </g>
    <g id="text_7">
     <!-- $t$ (a.u.) -->
     <g transform="translate(460.235 541.651562) scale(0.26 -0.26)">
      <defs>
       <path id="Cmmi10-74" d="M 397 519 
Q 397 613 416 697 
L 878 2534 
L 206 2534 
Q 141 2534 141 2619 
Q 166 2759 225 2759 
L 934 2759 
L 1191 3803 
Q 1216 3888 1291 3947 
Q 1366 4006 1459 4006 
Q 1541 4006 1595 3957 
Q 1650 3909 1650 3828 
Q 1650 3809 1648 3798 
Q 1647 3788 1644 3775 
L 1388 2759 
L 2047 2759 
Q 2113 2759 2113 2675 
Q 2109 2659 2100 2621 
Q 2091 2584 2075 2559 
Q 2059 2534 2028 2534 
L 1331 2534 
L 872 684 
Q 825 503 825 372 
Q 825 97 1013 97 
Q 1294 97 1511 361 
Q 1728 625 1844 941 
Q 1869 978 1894 978 
L 1972 978 
Q 1997 978 2012 961 
Q 2028 944 2028 922 
Q 2028 909 2022 903 
Q 1881 516 1612 222 
Q 1344 -72 997 -72 
Q 744 -72 570 93 
Q 397 259 397 519 
z
" transform="scale(0.015625)"/>
       <path id="DejaVuSerif-20" transform="scale(0.015625)"/>
       <path id="DejaVuSerif-28" d="M 2041 -997 
Q 1281 -656 893 83 
Q 506 822 506 1931 
Q 506 3044 893 3783 
Q 1281 4522 2041 4863 
L 2041 4556 
Q 1559 4225 1350 3623 
Q 1141 3022 1141 1931 
Q 1141 844 1350 242 
Q 1559 -359 2041 -691 
L 2041 -997 
z
" transform="scale(0.015625)"/>
       <path id="DejaVuSerif-61" d="M 2547 1044 
L 2547 1747 
L 1806 1747 
Q 1378 1747 1168 1562 
Q 959 1378 959 997 
Q 959 650 1171 447 
Q 1384 244 1747 244 
Q 2106 244 2326 466 
Q 2547 688 2547 1044 
z
M 3122 2075 
L 3122 331 
L 3634 331 
L 3634 0 
L 2547 0 
L 2547 359 
Q 2356 128 2106 18 
Q 1856 -91 1522 -91 
Q 969 -91 644 203 
Q 319 497 319 997 
Q 319 1513 691 1797 
Q 1063 2081 1741 2081 
L 2547 2081 
L 2547 2309 
Q 2547 2688 2317 2895 
Q 2088 3103 1672 3103 
Q 1328 3103 1125 2947 
Q 922 2791 872 2484 
L 575 2484 
L 575 3156 
Q 875 3284 1158 3348 
Q 1441 3413 1709 3413 
Q 2400 3413 2761 3070 
Q 3122 2728 3122 2075 
z
" transform="scale(0.015625)"/>
       <path id="DejaVuSerif-2e" d="M 603 325 
Q 603 500 722 622 
Q 841 744 1019 744 
Q 1191 744 1312 622 
Q 1434 500 1434 325 
Q 1434 153 1312 31 
Q 1191 -91 1019 -91 
Q 841 -91 722 29 
Q 603 150 603 325 
z
" transform="scale(0.015625)"/>
       <path id="DejaVuSerif-75" d="M 2266 3322 
L 3341 3322 
L 3341 331 
L 3884 331 
L 3884 0 
L 2766 0 
L 2766 588 
Q 2606 256 2353 82 
Q 2100 -91 1766 -91 
Q 1213 -91 952 223 
Q 691 538 691 1209 
L 691 2988 
L 172 2988 
L 172 3322 
L 1269 3322 
L 1269 1388 
Q 1269 781 1417 556 
Q 1566 331 1947 331 
Q 2347 331 2556 625 
Q 2766 919 2766 1478 
L 2766 2988 
L 2266 2988 
L 2266 3322 
z
" transform="scale(0.015625)"/>
       <path id="DejaVuSerif-29" d="M 453 -997 
L 453 -691 
Q 934 -359 1145 242 
Q 1356 844 1356 1931 
Q 1356 3022 1145 3623 
Q 934 4225 453 4556 
L 453 4863 
Q 1216 4522 1603 3783 
Q 1991 3044 1991 1931 
Q 1991 822 1603 83 
Q 1216 -656 453 -997 
z
" transform="scale(0.015625)"/>
      </defs>
      <use xlink:href="#Cmmi10-74" transform="translate(0 0.015625)"/>
      <use xlink:href="#DejaVuSerif-20" transform="translate(36.083984 0.015625)"/>
      <use xlink:href="#DejaVuSerif-28" transform="translate(67.871094 0.015625)"/>
      <use xlink:href="#DejaVuSerif-61" transform="translate(106.884766 0.015625)"/>
      <use xlink:href="#DejaVuSerif-2e" transform="translate(166.503906 0.015625)"/>
      <use xlink:href="#DejaVuSerif-75" transform="translate(198.291016 0.015625)"/>
      <use xlink:href="#DejaVuSerif-2e" transform="translate(262.695312 0.015625)"/>
      <use xlink:href="#DejaVuSerif-29" transform="translate(294.482422 0.015625)"/>
     </g>
    </g>
   </g>
   <g id="matplotlib.axis_2">
    <g id="ytick_1">
     <g id="line2d_19">
      <path d="M 171.39 427.780334 
L 835.92 427.780334 
" clip-path="url(#p3ca08f20c0)" style="fill: none; stroke-dasharray: 3.7,1.6; stroke-dashoffset: 0; stroke: #b0b0b0; stroke-opacity: 0.5"/>
     </g>
     <g id="line2d_20">
      <defs>
       <path id="m266e50f653" d="M 0 0 
L 10 0 
" style="stroke: #000000; stroke-width: 2"/>
      </defs>
      <g>
       <use xlink:href="#m266e50f653" x="171.39" y="427.780334" style="stroke: #000000; stroke-width: 2"/>
      </g>
     </g>
     <g id="line2d_21">
      <defs>
       <path id="m20ad78ae00" d="M 0 0 
L -10 0 
" style="stroke: #000000; stroke-width: 2"/>
      </defs>
      <g>
       <use xlink:href="#m20ad78ae00" x="835.92" y="427.780334" style="stroke: #000000; stroke-width: 2"/>
      </g>
     </g>
     <g id="text_8">
      <!-- 0.00065 -->
      <g transform="translate(60.371875 437.658302) scale(0.26 -0.26)">
       <defs>
        <path id="DejaVuSerif-36" d="M 2094 219 
Q 2534 219 2771 542 
Q 3009 866 3009 1472 
Q 3009 2078 2771 2401 
Q 2534 2725 2094 2725 
Q 1647 2725 1412 2412 
Q 1178 2100 1178 1509 
Q 1178 888 1415 553 
Q 1653 219 2094 219 
z
M 1075 2569 
Q 1288 2803 1556 2918 
Q 1825 3034 2163 3034 
Q 2859 3034 3264 2615 
Q 3669 2197 3669 1472 
Q 3669 763 3233 336 
Q 2797 -91 2069 -91 
Q 1278 -91 853 498 
Q 428 1088 428 2181 
Q 428 3406 931 4078 
Q 1434 4750 2350 4750 
Q 2597 4750 2869 4703 
Q 3141 4656 3425 4563 
L 3425 3794 
L 3072 3794 
Q 3034 4109 2831 4275 
Q 2628 4441 2284 4441 
Q 1678 4441 1381 3981 
Q 1084 3522 1075 2569 
z
" transform="scale(0.015625)"/>
       </defs>
       <use xlink:href="#DejaVuSerif-30"/>
       <use xlink:href="#DejaVuSerif-2e" x="63.623047"/>
       <use xlink:href="#DejaVuSerif-30" x="95.410156"/>
       <use xlink:href="#DejaVuSerif-30" x="159.033203"/>
       <use xlink:href="#DejaVuSerif-30" x="222.65625"/>
       <use xlink:href="#DejaVuSerif-36" x="286.279297"/>
       <use xlink:href="#DejaVuSerif-35" x="349.902344"/>
      </g>
     </g>
    </g>
    <g id="ytick_2">
     <g id="line2d_22">
      <path d="M 171.39 350.939777 
L 835.92 350.939777 
" clip-path="url(#p3ca08f20c0)" style="fill: none; stroke-dasharray: 3.7,1.6; stroke-dashoffset: 0; stroke: #b0b0b0; stroke-opacity: 0.5"/>
     </g>
     <g id="line2d_23">
      <g>
       <use xlink:href="#m266e50f653" x="171.39" y="350.939777" style="stroke: #000000; stroke-width: 2"/>
      </g>
     </g>
     <g id="line2d_24">
      <g>
       <use xlink:href="#m20ad78ae00" x="835.92" y="350.939777" style="stroke: #000000; stroke-width: 2"/>
      </g>
     </g>
     <g id="text_9">
      <!-- 0.00070 -->
      <g transform="translate(60.371875 360.817745) scale(0.26 -0.26)">
       <defs>
        <path id="DejaVuSerif-37" d="M 3609 4347 
L 1784 0 
L 1319 0 
L 3059 4153 
L 903 4153 
L 903 3578 
L 538 3578 
L 538 4666 
L 3609 4666 
L 3609 4347 
z
" transform="scale(0.015625)"/>
       </defs>
       <use xlink:href="#DejaVuSerif-30"/>
       <use xlink:href="#DejaVuSerif-2e" x="63.623047"/>
       <use xlink:href="#DejaVuSerif-30" x="95.410156"/>
       <use xlink:href="#DejaVuSerif-30" x="159.033203"/>
       <use xlink:href="#DejaVuSerif-30" x="222.65625"/>
       <use xlink:href="#DejaVuSerif-37" x="286.279297"/>
       <use xlink:href="#DejaVuSerif-30" x="349.902344"/>
      </g>
     </g>
    </g>
    <g id="ytick_3">
     <g id="line2d_25">
      <path d="M 171.39 274.09922 
L 835.92 274.09922 
" clip-path="url(#p3ca08f20c0)" style="fill: none; stroke-dasharray: 3.7,1.6; stroke-dashoffset: 0; stroke: #b0b0b0; stroke-opacity: 0.5"/>
     </g>
     <g id="line2d_26">
      <g>
       <use xlink:href="#m266e50f653" x="171.39" y="274.09922" style="stroke: #000000; stroke-width: 2"/>
      </g>
     </g>
     <g id="line2d_27">
      <g>
       <use xlink:href="#m20ad78ae00" x="835.92" y="274.09922" style="stroke: #000000; stroke-width: 2"/>
      </g>
     </g>
     <g id="text_10">
      <!-- 0.00075 -->
      <g transform="translate(60.371875 283.977188) scale(0.26 -0.26)">
       <use xlink:href="#DejaVuSerif-30"/>
       <use xlink:href="#DejaVuSerif-2e" x="63.623047"/>
       <use xlink:href="#DejaVuSerif-30" x="95.410156"/>
       <use xlink:href="#DejaVuSerif-30" x="159.033203"/>
       <use xlink:href="#DejaVuSerif-30" x="222.65625"/>
       <use xlink:href="#DejaVuSerif-37" x="286.279297"/>
       <use xlink:href="#DejaVuSerif-35" x="349.902344"/>
      </g>
     </g>
    </g>
    <g id="ytick_4">
     <g id="line2d_28">
      <path d="M 171.39 197.258663 
L 835.92 197.258663 
" clip-path="url(#p3ca08f20c0)" style="fill: none; stroke-dasharray: 3.7,1.6; stroke-dashoffset: 0; stroke: #b0b0b0; stroke-opacity: 0.5"/>
     </g>
     <g id="line2d_29">
      <g>
       <use xlink:href="#m266e50f653" x="171.39" y="197.258663" style="stroke: #000000; stroke-width: 2"/>
      </g>
     </g>
     <g id="line2d_30">
      <g>
       <use xlink:href="#m20ad78ae00" x="835.92" y="197.258663" style="stroke: #000000; stroke-width: 2"/>
      </g>
     </g>
     <g id="text_11">
      <!-- 0.00080 -->
      <g transform="translate(60.371875 207.136631) scale(0.26 -0.26)">
       <defs>
        <path id="DejaVuSerif-38" d="M 2981 1275 
Q 2981 1775 2732 2051 
Q 2484 2328 2034 2328 
Q 1584 2328 1336 2051 
Q 1088 1775 1088 1275 
Q 1088 772 1336 495 
Q 1584 219 2034 219 
Q 2484 219 2732 495 
Q 2981 772 2981 1275 
z
M 2853 3541 
Q 2853 3966 2637 4203 
Q 2422 4441 2034 4441 
Q 1650 4441 1433 4203 
Q 1216 3966 1216 3541 
Q 1216 3113 1433 2875 
Q 1650 2638 2034 2638 
Q 2422 2638 2637 2875 
Q 2853 3113 2853 3541 
z
M 2516 2484 
Q 3047 2413 3344 2092 
Q 3641 1772 3641 1275 
Q 3641 619 3225 264 
Q 2809 -91 2034 -91 
Q 1263 -91 845 264 
Q 428 619 428 1275 
Q 428 1772 725 2092 
Q 1022 2413 1556 2484 
Q 1084 2569 832 2842 
Q 581 3116 581 3541 
Q 581 4103 968 4426 
Q 1356 4750 2034 4750 
Q 2713 4750 3100 4426 
Q 3488 4103 3488 3541 
Q 3488 3116 3236 2842 
Q 2984 2569 2516 2484 
z
" transform="scale(0.015625)"/>
       </defs>
       <use xlink:href="#DejaVuSerif-30"/>
       <use xlink:href="#DejaVuSerif-2e" x="63.623047"/>
       <use xlink:href="#DejaVuSerif-30" x="95.410156"/>
       <use xlink:href="#DejaVuSerif-30" x="159.033203"/>
       <use xlink:href="#DejaVuSerif-30" x="222.65625"/>
       <use xlink:href="#DejaVuSerif-38" x="286.279297"/>
       <use xlink:href="#DejaVuSerif-30" x="349.902344"/>
      </g>
     </g>
    </g>
    <g id="ytick_5">
     <g id="line2d_31">
      <path d="M 171.39 120.418106 
L 835.92 120.418106 
" clip-path="url(#p3ca08f20c0)" style="fill: none; stroke-dasharray: 3.7,1.6; stroke-dashoffset: 0; stroke: #b0b0b0; stroke-opacity: 0.5"/>
     </g>
     <g id="line2d_32">
      <g>
       <use xlink:href="#m266e50f653" x="171.39" y="120.418106" style="stroke: #000000; stroke-width: 2"/>
      </g>
     </g>
     <g id="line2d_33">
      <g>
       <use xlink:href="#m20ad78ae00" x="835.92" y="120.418106" style="stroke: #000000; stroke-width: 2"/>
      </g>
     </g>
     <g id="text_12">
      <!-- 0.00085 -->
      <g transform="translate(60.371875 130.296074) scale(0.26 -0.26)">
       <use xlink:href="#DejaVuSerif-30"/>
       <use xlink:href="#DejaVuSerif-2e" x="63.623047"/>
       <use xlink:href="#DejaVuSerif-30" x="95.410156"/>
       <use xlink:href="#DejaVuSerif-30" x="159.033203"/>
       <use xlink:href="#DejaVuSerif-30" x="222.65625"/>
       <use xlink:href="#DejaVuSerif-38" x="286.279297"/>
       <use xlink:href="#DejaVuSerif-35" x="349.902344"/>
      </g>
     </g>
    </g>
    <g id="text_13">
     <!-- $p_i$ (a.u.) -->
     <g transform="translate(50.964688 319.14625) rotate(-90) scale(0.26 -0.26)">
      <defs>
       <path id="Cmmi10-70" d="M -159 -1241 
Q -219 -1241 -219 -1159 
Q -197 -1019 -134 -1019 
Q 66 -1019 145 -983 
Q 225 -947 269 -800 
L 991 2081 
Q 1038 2200 1038 2388 
Q 1038 2663 850 2663 
Q 650 2663 553 2423 
Q 456 2184 366 1819 
Q 366 1778 313 1778 
L 238 1778 
Q 222 1778 203 1801 
Q 184 1825 184 1844 
Q 253 2122 317 2315 
Q 381 2509 517 2668 
Q 653 2828 856 2828 
Q 1075 2828 1240 2704 
Q 1406 2581 1453 2369 
Q 1628 2572 1840 2700 
Q 2053 2828 2278 2828 
Q 2547 2828 2745 2684 
Q 2944 2541 3044 2308 
Q 3144 2075 3144 1806 
Q 3144 1394 2933 953 
Q 2722 513 2361 220 
Q 2000 -72 1588 -72 
Q 1400 -72 1248 34 
Q 1097 141 1013 313 
L 722 -825 
Q 706 -919 703 -934 
Q 703 -1019 1125 -1019 
Q 1191 -1019 1191 -1100 
Q 1169 -1184 1155 -1212 
Q 1141 -1241 1081 -1241 
L -159 -1241 
z
M 1594 97 
Q 1816 97 2006 280 
Q 2197 463 2316 691 
Q 2403 863 2479 1111 
Q 2556 1359 2612 1640 
Q 2669 1922 2669 2088 
Q 2669 2234 2630 2362 
Q 2591 2491 2502 2577 
Q 2413 2663 2266 2663 
Q 2031 2663 1823 2495 
Q 1616 2328 1447 2081 
L 1447 2059 
L 1094 647 
Q 1138 419 1263 258 
Q 1388 97 1594 97 
z
" transform="scale(0.015625)"/>
       <path id="Cmmi10-69" d="M 500 459 
Q 500 578 550 709 
L 1069 2088 
Q 1153 2322 1153 2472 
Q 1153 2663 1013 2663 
Q 759 2663 595 2402 
Q 431 2141 353 1819 
Q 341 1778 300 1778 
L 225 1778 
Q 172 1778 172 1838 
L 172 1856 
Q 275 2238 487 2533 
Q 700 2828 1025 2828 
Q 1253 2828 1411 2678 
Q 1569 2528 1569 2297 
Q 1569 2178 1516 2047 
L 997 672 
Q 909 459 909 288 
Q 909 97 1056 97 
Q 1306 97 1473 364 
Q 1641 631 1709 941 
Q 1722 978 1759 978 
L 1838 978 
Q 1863 978 1878 961 
Q 1894 944 1894 922 
Q 1894 916 1888 903 
Q 1800 541 1583 234 
Q 1366 -72 1044 -72 
Q 819 -72 659 83 
Q 500 238 500 459 
z
M 1222 3878 
Q 1222 4013 1334 4122 
Q 1447 4231 1581 4231 
Q 1691 4231 1761 4164 
Q 1831 4097 1831 3994 
Q 1831 3850 1717 3742 
Q 1603 3634 1466 3634 
Q 1363 3634 1292 3704 
Q 1222 3775 1222 3878 
z
" transform="scale(0.015625)"/>
      </defs>
      <use xlink:href="#Cmmi10-70" transform="translate(0 0.015625)"/>
      <use xlink:href="#Cmmi10-69" transform="translate(50.292969 -16.990625) scale(0.7)"/>
      <use xlink:href="#DejaVuSerif-20" transform="translate(80.766992 0.015625)"/>
      <use xlink:href="#DejaVuSerif-28" transform="translate(112.554102 0.015625)"/>
      <use xlink:href="#DejaVuSerif-61" transform="translate(151.567773 0.015625)"/>
      <use xlink:href="#DejaVuSerif-2e" transform="translate(211.186914 0.015625)"/>
      <use xlink:href="#DejaVuSerif-75" transform="translate(242.974023 0.015625)"/>
      <use xlink:href="#DejaVuSerif-2e" transform="translate(307.37832 0.015625)"/>
      <use xlink:href="#DejaVuSerif-29" transform="translate(339.16543 0.015625)"/>
     </g>
    </g>
    <g id="text_14">
     <!-- +1.535 -->
     <g transform="translate(171.39 47.52) scale(0.26 -0.26)">
      <defs>
       <path id="DejaVuSerif-2b" d="M 2931 4013 
L 2931 2259 
L 4684 2259 
L 4684 1753 
L 2931 1753 
L 2931 0 
L 2431 0 
L 2431 1753 
L 678 1753 
L 678 2259 
L 2431 2259 
L 2431 4013 
L 2931 4013 
z
" transform="scale(0.015625)"/>
      </defs>
      <use xlink:href="#DejaVuSerif-2b"/>
      <use xlink:href="#DejaVuSerif-31" x="83.789062"/>
      <use xlink:href="#DejaVuSerif-2e" x="147.412109"/>
      <use xlink:href="#DejaVuSerif-35" x="179.199219"/>
      <use xlink:href="#DejaVuSerif-33" x="242.822266"/>
      <use xlink:href="#DejaVuSerif-35" x="306.445312"/>
     </g>
    </g>
   </g>
   <g id="line2d_34">
    <path d="M 201.595909 256.671781 
L 202.805355 178.915833 
L 203.410078 149.256675 
L 204.014801 129.190943 
L 204.619524 120.434653 
L 205.224247 123.821881 
L 205.828969 139.391282 
L 206.433692 165.873718 
L 207.038415 201.358093 
L 208.247861 290.046763 
L 209.457307 381.168917 
L 210.06203 417.642661 
L 210.666753 443.968074 
L 211.271476 459.821157 
L 211.876198 462.916987 
L 212.480921 452.973432 
L 213.085644 430.728005 
L 213.690367 397.367095 
L 214.899813 305.252609 
L 216.713982 157.317711 
L 217.318705 119.130132 
L 217.923428 90.730879 
L 218.52815 74.326381 
L 219.132873 70.461477 
L 219.737596 79.245288 
L 220.342319 100.410031 
L 220.947042 132.847297 
L 222.156488 220.092602 
L 223.365934 308.319952 
L 223.970657 346.635781 
L 224.575379 377.194967 
L 225.180102 397.409938 
L 225.784825 406.51877 
L 226.389548 404.030636 
L 226.994271 389.603052 
L 227.598994 363.595276 
L 228.80844 285.869793 
L 230.017886 203.766867 
L 231.227331 140.32215 
L 231.832054 121.10462 
L 232.436777 113.050328 
L 233.0415 116.391227 
L 233.646223 131.402985 
L 234.250946 158.221889 
L 234.855669 196.07309 
L 237.27456 382.826368 
L 237.879283 417.944051 
L 238.484006 446.401002 
L 239.088729 463.16148 
L 239.693452 467.51932 
L 240.298175 459.532911 
L 240.902898 439.253402 
L 241.507621 406.984312 
L 242.717067 313.460035 
L 243.926512 210.030444 
L 245.135958 130.274572 
L 245.740681 101.695481 
L 246.345404 84.970535 
L 246.950127 80.454231 
L 247.55485 88.033047 
L 248.159573 107.494108 
L 248.764296 138.103156 
L 249.973741 223.214765 
L 251.183187 309.94216 
L 252.392633 373.448147 
L 252.997356 392.190383 
L 253.602079 399.615537 
L 254.206802 395.688027 
L 254.811525 380.552686 
L 255.416248 354.679884 
L 256.625693 277.835366 
L 257.835139 193.876132 
L 259.044585 131.799619 
L 259.649308 112.904027 
L 260.254031 105.507995 
L 260.858754 109.843122 
L 261.463477 125.848396 
L 262.0682 153.282896 
L 262.672922 191.195959 
L 265.696537 416.389208 
L 266.30126 445.827602 
L 266.905983 463.713343 
L 267.510706 469.291023 
L 268.115429 462.458034 
L 268.720152 443.20214 
L 269.324874 411.923325 
L 270.53432 321.068621 
L 271.743766 221.152422 
L 272.953212 141.342584 
L 273.557935 113.070301 
L 274.162658 96.238673 
L 274.767381 91.18222 
L 275.372103 98.011645 
L 275.976826 116.716403 
L 276.581549 146.593384 
L 277.790995 229.524022 
L 279.000441 312.126356 
L 280.209887 372.754355 
L 280.81461 389.96621 
L 281.419333 396.092866 
L 282.024055 391.096981 
L 282.628778 375.023346 
L 283.233501 348.241204 
L 284.442947 269.649767 
L 285.652393 184.890944 
L 286.861839 123.182903 
L 287.466562 104.362875 
L 288.071284 97.137372 
L 288.676007 101.686514 
L 289.28073 117.894187 
L 289.885453 145.521187 
L 290.490176 183.687769 
L 293.513791 412.140551 
L 294.118514 442.544067 
L 294.723236 461.528616 
L 295.327959 468.24238 
L 295.932682 462.639933 
L 296.537405 444.787345 
L 297.142128 415.095587 
L 297.746851 374.986884 
L 300.165743 188.466835 
L 300.770465 151.999146 
L 301.375188 124.298385 
L 301.979911 107.805939 
L 302.584634 102.862346 
L 303.189357 109.520035 
L 303.79408 127.704616 
L 304.398803 156.6942 
L 305.608249 237.051506 
L 306.817695 316.948676 
L 308.02714 374.691499 
L 308.631863 390.444052 
L 309.236586 395.183296 
L 309.841309 388.884877 
L 310.446032 371.619322 
L 311.050755 343.793778 
L 312.260201 263.677695 
L 313.469646 177.997421 
L 314.679092 115.406578 
L 315.283815 96.350774 
L 315.888538 88.929909 
L 316.493261 93.320812 
L 317.097984 109.430413 
L 317.702707 137.041723 
L 318.30743 175.284027 
L 321.331044 405.568958 
L 321.935767 436.784753 
L 322.54049 456.748467 
L 323.145213 464.61193 
L 323.749936 460.317294 
L 324.354659 443.904936 
L 324.959382 415.74838 
L 325.564105 377.222667 
L 327.982996 196.589398 
L 328.587719 161.331885 
L 329.192442 134.555784 
L 329.797165 118.744708 
L 330.401888 114.217737 
L 331.006611 121.000001 
L 331.611334 139.003811 
L 332.216057 167.521386 
L 333.425502 246.261839 
L 334.634948 324.007731 
L 335.239671 354.419918 
L 335.844394 379.06365 
L 336.449117 393.485147 
L 337.05384 396.907225 
L 337.658563 389.345796 
L 338.263286 370.91541 
L 338.868008 342.050268 
L 340.077454 260.190146 
L 341.2869 172.965161 
L 342.496346 109.169832 
L 343.101069 89.573596 
L 343.705792 81.660965 
L 344.310515 85.610878 
L 344.915238 101.318025 
L 345.51996 128.5569 
L 346.124683 166.466876 
L 349.148298 397.057977 
L 349.753021 428.851429 
L 350.357744 449.602434 
L 350.962467 458.445212 
L 351.567189 455.315666 
L 352.171912 440.249922 
L 352.776635 413.60666 
L 353.381358 376.724611 
L 355.80025 202.62151 
L 356.404973 168.779162 
L 357.009696 143.215066 
L 357.614419 128.393847 
L 358.219141 124.61402 
L 358.823864 131.879263 
L 359.428587 150.084685 
L 360.03331 178.518705 
L 361.242756 256.331757 
L 362.452202 332.467407 
L 363.056925 361.888659 
L 363.661648 385.447328 
L 364.26637 398.745235 
L 364.871093 401.033128 
L 365.475816 392.354874 
L 366.080539 372.85034 
L 366.685262 342.97071 
L 367.894708 259.259177 
L 369.104154 170.313514 
L 370.3136 104.9626 
L 370.918322 84.599587 
L 371.523045 75.935853 
L 372.127768 79.153662 
L 372.732491 94.145198 
L 373.337214 120.688597 
L 373.941937 157.942626 
L 375.151383 254.243742 
L 376.360829 348.894744 
L 377.570274 419.268171 
L 378.174997 440.538307 
L 378.77972 450.122605 
L 379.384443 447.958165 
L 379.989166 434.082379 
L 380.593889 408.840844 
L 381.198612 373.534483 
L 383.617503 206.138281 
L 384.222226 173.900008 
L 384.826949 149.758535 
L 385.431672 136.178487 
L 386.036395 133.433517 
L 386.641118 141.496148 
L 387.245841 160.234096 
L 387.850564 188.924493 
L 389.06001 266.505672 
L 390.269455 341.734472 
L 390.874178 370.487266 
L 391.478901 393.261091 
L 392.083624 405.709485 
L 392.688347 407.105151 
L 393.29307 397.516812 
L 393.897793 377.108359 
L 394.502516 346.347392 
L 395.711962 260.935463 
L 396.921407 170.251558 
L 398.130853 103.151926 
L 398.735576 81.87127 
L 399.340299 72.268164 
L 399.945022 74.532617 
L 400.549745 88.559014 
L 401.154468 114.132108 
L 401.759191 150.43119 
L 402.968636 245.042473 
L 404.178082 338.63753 
L 405.387528 408.663146 
L 405.992251 430.132548 
L 406.596974 440.162877 
L 407.201697 438.695462 
L 407.80642 425.770628 
L 408.411143 401.724384 
L 409.015865 367.826352 
L 411.434757 206.980456 
L 412.03948 176.416597 
L 412.644203 153.825166 
L 413.248926 141.6564 
L 413.853649 140.155013 
L 414.458372 149.260383 
L 415.063094 168.810371 
L 415.667817 198.066101 
L 416.877263 276.08859 
L 418.086709 351.095047 
L 418.691432 379.520247 
L 419.296155 401.84094 
L 419.900878 413.755599 
L 420.505601 414.555246 
L 421.110324 404.329336 
L 421.715046 383.261234 
L 422.319769 351.830472 
L 423.529215 265.029664 
L 424.738661 172.763564 
L 425.948107 103.919506 
L 426.55283 81.657509 
L 427.157553 71.010541 
L 427.762275 72.178435 
L 428.366998 85.059289 
L 428.971721 109.44574 
L 429.576444 144.539255 
L 430.78589 236.869719 
L 431.995336 328.740575 
L 433.204782 397.726417 
L 433.809505 419.047579 
L 434.414227 429.187293 
L 435.01895 428.096156 
L 435.623673 415.822471 
L 436.228396 392.698679 
L 436.833119 359.970112 
L 439.252011 205.15854 
L 439.856734 176.247228 
L 440.461456 155.240203 
L 441.066179 144.563263 
L 441.670902 144.429879 
L 442.275625 154.745111 
L 442.880348 175.315089 
L 443.485071 205.381109 
L 446.508686 388.273363 
L 447.113408 410.478501 
L 447.718131 422.193498 
L 448.322854 422.723336 
L 448.927577 412.172873 
L 449.5323 390.739605 
L 450.137023 358.910347 
L 451.346469 271.18035 
L 452.555915 177.665319 
L 453.76536 107.255679 
L 454.370083 84.040575 
L 454.974806 72.334889 
L 455.579529 72.348651 
L 456.184252 83.984894 
L 456.788975 107.045258 
L 457.393698 140.754183 
L 458.603144 230.331589 
L 459.812589 319.880409 
L 461.022035 387.162774 
L 461.626758 407.984708 
L 462.231481 417.882117 
L 462.836204 416.820058 
L 463.440927 404.859903 
L 464.04565 382.336813 
L 464.650373 350.479498 
L 467.069264 200.87328 
L 467.673987 173.501937 
L 468.27871 154.020701 
L 468.883433 144.822997 
L 469.488156 146.089886 
L 470.092879 157.692225 
L 470.697602 179.404354 
L 471.302325 210.446194 
L 474.325939 396.066015 
L 474.930662 418.474039 
L 475.535385 430.316799 
L 476.140108 430.907766 
L 476.744831 420.361949 
L 477.349554 398.88615 
L 477.954277 366.970078 
L 479.163722 278.884895 
L 480.373168 184.59931 
L 481.582614 112.966545 
L 482.187337 88.915403 
L 482.79206 76.226524 
L 483.396783 75.118893 
L 484.001506 85.500291 
L 484.606229 107.181189 
L 485.210951 139.408541 
L 486.420397 225.907443 
L 487.629843 312.650642 
L 488.839289 377.639688 
L 489.444012 397.632221 
L 490.048735 406.94481 
L 490.653458 405.561927 
L 491.25818 393.563165 
L 491.862903 371.292997 
L 492.467626 339.971682 
L 494.886518 194.496104 
L 495.491241 168.470194 
L 496.095964 150.369855 
L 496.700687 142.548905 
L 497.30541 145.15615 
L 497.910132 158.029976 
L 498.514855 180.914753 
L 499.119578 213.009462 
L 501.53847 373.00448 
L 502.143193 402.299938 
L 502.747916 425.18708 
L 503.352639 437.454191 
L 503.957361 438.417745 
L 504.562084 428.197901 
L 505.166807 407.006328 
L 505.77153 375.331512 
L 506.980976 287.533852 
L 508.190422 193.065615 
L 509.399868 120.690784 
L 510.00459 96.000679 
L 510.609313 82.48863 
L 511.214036 80.37972 
L 511.818759 89.584946 
L 512.423482 109.922253 
L 513.028205 140.659455 
L 514.237651 223.923029 
L 515.447097 307.522972 
L 516.656542 369.741581 
L 517.261265 388.617405 
L 517.865988 397.034883 
L 518.470711 395.002462 
L 519.075434 382.62287 
L 519.680157 360.256268 
L 520.28488 329.122417 
L 522.703771 186.53598 
L 523.308494 161.595873 
L 523.913217 144.657809 
L 524.51794 138.031008 
L 525.122663 141.833563 
L 525.727386 155.874402 
L 526.332109 179.871149 
L 526.936832 213.003925 
L 529.355723 376.476103 
L 529.960446 406.500037 
L 530.565169 430.080709 
L 531.169892 443.016491 
L 531.774615 444.621974 
L 532.379338 435.018082 
L 532.984061 414.417544 
L 533.588784 383.30405 
L 534.79823 296.457251 
L 536.007675 202.460635 
L 537.217121 129.92861 
L 537.821844 104.862333 
L 538.426567 90.759971 
L 539.03129 87.848486 
L 539.636013 96.039363 
L 540.240736 115.155466 
L 540.845459 144.482502 
L 542.054904 224.531044 
L 543.26435 304.815895 
L 544.473796 363.931319 
L 545.078519 381.46445 
L 545.683242 388.729098 
L 546.287965 385.761543 
L 546.892688 372.691841 
L 547.497411 349.901432 
L 548.102133 318.616755 
L 549.916302 206.939109 
L 551.125748 153.441657 
L 551.730471 137.39097 
L 552.335194 131.710748 
L 552.939917 136.491195 
L 553.54464 151.515819 
L 554.149363 176.479734 
L 554.754085 210.547495 
L 557.172977 377.499358 
L 557.7777 408.345434 
L 558.382423 432.757466 
L 558.987146 446.536733 
L 559.591869 448.992254 
L 560.196592 440.242281 
L 560.801314 420.49757 
L 561.406037 390.23413 
L 562.615483 304.973073 
L 563.824929 212.121139 
L 565.034375 140.07962 
L 565.639098 114.947023 
L 566.243821 100.543501 
L 566.848544 97.092685 
L 567.453266 104.5028 
L 568.057989 122.597909 
L 568.662712 150.677307 
L 569.872158 227.704343 
L 571.081604 304.676389 
L 572.29105 360.521197 
L 572.895773 376.560808 
L 573.500495 382.483676 
L 574.105218 378.356866 
L 574.709941 364.340855 
L 575.314664 340.842662 
L 576.52411 271.752814 
L 577.733556 197.382386 
L 578.943002 144.646506 
L 579.547725 129.17287 
L 580.152447 124.145939 
L 580.75717 129.631974 
L 581.361893 145.393768 
L 581.966616 171.108686 
L 582.571339 205.929763 
L 584.990231 376.012129 
L 585.594954 407.688531 
L 586.199676 432.984136 
L 586.804399 447.700349 
L 587.409122 451.138459 
L 588.013845 443.411807 
L 588.618568 424.727039 
L 589.223291 395.550396 
L 590.432737 312.435531 
L 591.642183 221.372212 
L 592.851628 150.486732 
L 593.456351 125.623079 
L 594.061074 111.243644 
L 594.665797 107.56294 
L 595.27052 114.481428 
L 595.875243 131.819651 
L 596.479966 158.88495 
L 597.689412 233.241791 
L 598.898857 307.073781 
L 600.108303 359.655064 
L 600.713026 374.133927 
L 601.317749 378.606007 
L 601.922472 373.171023 
L 602.527195 358.021551 
L 603.131918 333.592853 
L 604.341364 263.300158 
L 605.550809 188.495574 
L 606.155532 159.452713 
L 606.760255 135.879386 
L 607.364978 120.659679 
L 607.969701 115.968859 
L 608.574424 121.853987 
L 609.179147 138.062145 
L 609.78387 164.257803 
L 610.388593 199.586847 
L 613.412207 404.560621 
L 614.01693 430.704048 
L 614.621653 446.363577 
L 615.226376 450.832625 
L 615.831099 444.218756 
L 616.435822 426.723392 
L 617.040545 398.801837 
L 618.24999 318.279732 
L 619.459436 229.574862 
L 620.668882 160.48306 
L 621.273605 136.225941 
L 621.878328 122.209542 
L 622.483051 118.633303 
L 623.087774 125.384981 
L 623.692497 142.276128 
L 624.297219 168.615591 
L 625.506665 240.785636 
L 626.716111 311.806079 
L 627.320834 339.110865 
L 627.925557 361.302279 
L 628.53028 374.239453 
L 629.135003 377.237221 
L 629.739726 370.428601 
L 630.344449 354.038392 
L 630.949171 328.530975 
L 632.158617 256.62862 
L 633.368063 180.874451 
L 633.972786 151.536988 
L 634.577509 127.792664 
L 635.182232 112.513782 
L 635.786955 107.840751 
L 636.391678 113.806591 
L 636.9964 130.147625 
L 637.601123 156.520053 
L 638.205846 192.066933 
L 641.229461 399.165099 
L 641.834184 426.036465 
L 642.438907 442.559182 
L 643.04363 448.020829 
L 643.648352 442.523773 
L 644.253075 426.264181 
L 644.857798 399.686283 
L 646.067244 322.059326 
L 647.27669 236.17012 
L 648.486136 169.438339 
L 649.090859 146.104801 
L 649.695581 132.781093 
L 650.300304 129.645841 
L 650.905027 136.569047 
L 651.50975 153.347432 
L 652.114473 179.284244 
L 653.323919 249.84917 
L 654.533365 318.517824 
L 655.138088 344.495162 
L 655.742811 365.263524 
L 656.347533 376.761273 
L 656.952256 378.346386 
L 657.556979 370.184542 
L 658.161702 352.531353 
L 658.766425 325.879474 
L 659.975871 252.111262 
L 661.185317 175.016234 
L 661.79004 145.151756 
L 662.394762 120.978379 
L 662.999485 105.358691 
L 663.604208 100.406093 
L 664.208931 106.144694 
L 664.813654 122.304688 
L 665.418377 148.538173 
L 666.0231 183.989388 
L 669.046714 391.858774 
L 669.651437 419.263628 
L 670.25616 436.489568 
L 670.860883 442.822449 
L 671.465606 438.361392 
L 672.070329 423.29838 
L 672.675052 398.06755 
L 673.279775 363.91901 
L 675.698666 206.40831 
L 676.303389 176.801646 
L 676.908112 154.667162 
L 677.512835 142.334547 
L 678.117558 139.956359 
L 678.722281 147.380072 
L 679.327004 164.381856 
L 679.931727 190.25224 
L 681.141173 259.852515 
L 682.350618 326.727727 
L 682.955341 351.628911 
L 683.560064 371.187728 
L 684.164787 381.422979 
L 684.76951 381.73631 
L 685.374233 372.32413 
L 685.978956 353.470101 
L 686.583679 325.692835 
L 687.793124 249.967377 
L 689.00257 171.289261 
L 689.607293 140.731481 
L 690.212016 115.930152 
L 690.816739 99.738242 
L 691.421462 94.249721 
L 692.026185 99.484429 
L 692.630908 115.170535 
L 693.235631 140.959625 
L 693.840354 176.000631 
L 696.863968 383.123264 
L 697.468691 410.80695 
L 698.073414 428.508312 
L 698.678137 435.517359 
L 699.28286 431.933077 
L 699.887583 417.945391 
L 700.492305 393.980492 
L 701.097028 361.267801 
L 703.51592 210.207372 
L 704.120643 182.137497 
L 704.725366 161.418239 
L 705.330089 150.324457 
L 705.934812 148.978106 
L 706.539535 157.199997 
L 707.144257 174.740692 
L 707.74898 200.871493 
L 710.772595 359.983169 
L 711.377318 378.598698 
L 711.982041 387.809709 
L 712.586764 387.060212 
L 713.191486 376.574236 
L 713.796209 356.659671 
L 714.400932 327.857684 
L 715.610378 250.251735 
L 716.819824 169.91191 
L 717.424547 138.570333 
L 718.02927 113.012956 
L 718.633993 96.082554 
L 719.238716 89.859503 
L 719.843438 94.363125 
L 720.448161 109.322972 
L 721.052884 134.393076 
L 721.657607 168.729958 
L 724.681222 373.528936 
L 725.285945 401.194545 
L 725.890667 419.091979 
L 726.49539 426.522518 
L 727.100113 423.588997 
L 727.704836 410.482342 
L 728.309559 387.624101 
L 728.914282 356.226999 
L 731.333174 211.58826 
L 731.937897 185.152978 
L 732.542619 165.992558 
L 733.147342 156.319158 
L 733.752065 156.220461 
L 734.356788 165.487473 
L 734.961511 183.841255 
L 735.566234 210.528564 
L 737.985126 345.304162 
L 738.589848 368.957249 
L 739.194571 386.929487 
L 739.799294 395.398651 
L 740.404017 393.847912 
L 741.00874 382.524823 
L 741.613463 361.757004 
L 742.218186 332.104103 
L 743.427632 252.854852 
L 744.637078 170.941689 
L 745.846523 112.442331 
L 746.451246 94.68259 
L 747.055969 87.596696 
L 747.660692 91.205959 
L 748.265415 105.243881 
L 748.870138 129.369214 
L 749.474861 162.748262 
L 752.498475 363.694252 
L 753.103198 391.022787 
L 753.707921 408.804655 
L 754.312644 416.360098 
L 754.917367 413.800332 
L 755.52209 401.32112 
L 756.126813 379.343738 
L 756.731536 349.069516 
L 759.150427 210.501014 
L 759.75515 185.714263 
L 760.359873 168.175751 
L 760.964596 160.027435 
L 761.569319 161.320035 
L 762.174042 171.812865 
L 762.778765 191.195147 
L 763.383488 218.685409 
L 765.802379 354.418109 
L 766.407102 377.92012 
L 767.011825 395.562013 
L 767.616548 403.596014 
L 768.221271 401.539575 
L 768.825994 389.65901 
L 769.430717 368.2969 
L 770.03544 338.027035 
L 771.244885 257.513967 
L 772.454331 174.274873 
L 773.663777 114.273959 
L 774.2685 95.674591 
L 774.873223 87.675517 
L 775.477946 90.301088 
L 776.082669 103.290323 
L 776.687391 126.308184 
L 777.292114 158.532189 
L 780.315729 354.243454 
L 780.920452 380.914818 
L 781.525175 398.257997 
L 782.129898 405.619784 
L 782.734621 403.124531 
L 783.339343 390.977257 
L 783.944066 369.604222 
L 784.548789 340.201718 
L 786.362958 234.944566 
L 787.572404 183.851733 
L 788.177127 167.915352 
L 788.78185 161.314786 
L 789.386572 164.062217 
L 789.991295 175.884774 
L 790.596018 196.439246 
L 791.200741 224.91411 
L 793.619633 362.609034 
L 794.224356 386.252874 
L 794.829079 403.86919 
L 795.433802 411.777852 
L 796.038524 409.524641 
L 796.643247 397.389572 
L 797.24797 375.725503 
L 797.852693 345.116085 
L 799.062139 263.833547 
L 800.271585 179.656508 
L 801.481031 118.461741 
L 802.085753 99.10533 
L 802.690476 90.12644 
L 803.295199 92.106451 
L 803.899922 104.898594 
L 804.504645 127.545504 
L 805.109368 158.292361 
L 805.714091 194.875718 
L 805.714091 194.875718 
" clip-path="url(#p3ca08f20c0)" style="fill: none; stroke: #1f77b4; stroke-width: 3; stroke-linecap: square"/>
   </g>
   <g id="line2d_35">
    <path d="M 201.595909 256.548836 
L 204.014801 191.693968 
L 205.224247 164.95791 
L 205.828969 154.413892 
L 206.433692 146.050406 
L 207.038415 139.976897 
L 207.643138 136.24201 
L 208.247861 134.808768 
L 208.852584 135.520056 
L 209.457307 138.089923 
L 210.06203 142.156198 
L 210.666753 147.429925 
L 211.876198 160.848207 
L 214.29509 192.162746 
L 216.713982 224.830923 
L 218.52815 252.222405 
L 222.761211 321.644616 
L 223.365934 328.810288 
L 223.970657 334.405851 
L 224.575379 338.040136 
L 225.180102 339.413795 
L 225.784825 338.373008 
L 226.389548 334.813141 
L 226.994271 328.678276 
L 227.598994 320.004818 
L 228.80844 295.951104 
L 230.622609 249.972948 
L 232.436777 202.648457 
L 233.646223 176.363 
L 234.250946 165.851492 
L 234.855669 157.425389 
L 235.460392 151.147111 
L 236.065115 146.887998 
L 236.669838 144.371421 
L 237.27456 143.325412 
L 237.879283 143.777056 
L 238.484006 145.667048 
L 239.088729 148.560406 
L 240.298175 156.670227 
L 241.507621 166.789524 
L 243.32179 184.186809 
L 244.531235 198.848035 
L 245.740681 216.387843 
L 246.950127 237.17995 
L 248.764296 273.254339 
L 250.578464 309.979366 
L 251.78791 329.05165 
L 252.392633 336.070577 
L 252.997356 340.863004 
L 253.602079 343.197446 
L 254.206802 342.943696 
L 254.811525 340.01928 
L 255.416248 334.407857 
L 256.020971 326.210264 
L 257.230416 303.290749 
L 259.044585 259.628782 
L 260.858754 214.915134 
L 262.0682 189.917501 
L 263.277645 171.322594 
L 263.882368 164.569095 
L 264.487091 159.292191 
L 265.091814 155.284452 
L 265.696537 152.580814 
L 266.30126 151.114454 
L 266.905983 150.567679 
L 267.510706 150.819434 
L 268.115429 151.767053 
L 268.720152 153.295222 
L 269.324874 155.306191 
L 269.929597 157.77604 
L 270.53432 160.801826 
L 271.139043 164.604422 
L 271.743766 169.451865 
L 272.953212 182.472442 
L 274.162658 200.206067 
L 275.372103 222.83775 
L 277.186272 263.876962 
L 279.000441 305.257051 
L 280.209887 327.070229 
L 280.81461 335.138598 
L 281.419333 340.859141 
L 282.024055 344.042774 
L 282.628778 344.54135 
L 283.233501 342.27376 
L 283.838224 337.282205 
L 284.442947 329.782103 
L 285.652393 308.946199 
L 286.861839 283.066012 
L 289.28073 228.194756 
L 290.490176 205.019645 
L 291.699622 186.916324 
L 292.909068 173.198667 
L 293.513791 167.748426 
L 294.723236 159.595902 
L 295.327959 156.523167 
L 295.932682 154.056476 
L 296.537405 152.145918 
L 297.142128 150.754333 
L 297.746851 149.910839 
L 298.351574 149.759108 
L 298.956297 150.564962 
L 299.56102 152.647875 
L 300.165743 156.20094 
L 300.770465 161.091417 
L 301.375188 167.544184 
L 301.979911 175.682193 
L 303.189357 196.824662 
L 304.398803 223.760664 
L 308.02714 311.751197 
L 308.631863 322.707134 
L 309.236586 331.531876 
L 309.841309 337.983538 
L 310.446032 341.859472 
L 311.050755 343.023204 
L 311.655478 341.460503 
L 312.260201 337.32865 
L 312.864924 330.962967 
L 314.074369 313.214053 
L 315.283815 290.4986 
L 318.30743 231.408833 
L 319.516876 212.164553 
L 321.331044 188.098066 
L 323.145213 168.908023 
L 324.354659 158.123358 
L 325.564105 149.10698 
L 326.168827 145.565802 
L 326.77355 143.058657 
L 327.378273 141.961337 
L 327.982996 142.523009 
L 328.587719 144.658419 
L 329.192442 148.630203 
L 329.797165 154.60701 
L 330.401888 162.585762 
L 331.006611 172.519609 
L 332.216057 197.844514 
L 334.030225 244.987609 
L 335.844394 291.308079 
L 337.05384 315.972544 
L 337.658563 325.293941 
L 338.263286 332.264328 
L 338.868008 336.695699 
L 339.472731 338.517282 
L 340.077454 337.8258 
L 340.682177 334.894171 
L 341.2869 330.10292 
L 341.891623 323.758564 
L 343.101069 306.949494 
L 345.51996 266.817974 
L 347.334129 238.421506 
L 350.357744 195.302345 
L 352.776635 162.84351 
L 353.986081 148.476949 
L 354.590804 142.589165 
L 355.195527 138.121723 
L 355.80025 135.381459 
L 356.404973 134.340571 
L 357.009696 135.309387 
L 357.614419 138.507411 
L 358.219141 143.977623 
L 358.823864 151.714392 
L 359.428587 161.671112 
L 360.638033 187.592521 
L 362.452202 235.271146 
L 364.26637 282.048605 
L 365.475816 306.964634 
L 366.080539 316.519324 
L 366.685262 323.811731 
L 367.289985 328.722078 
L 367.894708 331.292964 
L 368.499431 331.73932 
L 369.104154 330.382014 
L 369.708877 327.469645 
L 370.3136 322.9767 
L 371.523045 310.703867 
L 373.337214 287.81884 
L 376.360829 246.858414 
L 378.77972 209.358502 
L 382.408058 149.113167 
L 383.012781 141.334211 
L 383.617503 135.231914 
L 384.222226 130.836649 
L 384.826949 128.506903 
L 385.431672 128.519821 
L 386.036395 130.971434 
L 386.641118 135.905727 
L 387.245841 143.322242 
L 387.850564 153.134753 
L 389.06001 178.870373 
L 391.478901 241.475666 
L 392.688347 271.292674 
L 393.897793 295.820207 
L 394.502516 305.364101 
L 395.107239 312.84893 
L 395.711962 318.271916 
L 396.316684 321.796862 
L 396.921407 323.689875 
L 397.52613 324.144601 
L 398.130853 323.078985 
L 398.735576 320.803174 
L 399.340299 317.586057 
L 400.549745 308.934488 
L 401.759191 298.351421 
L 402.968636 286.387413 
L 404.178082 272.001338 
L 405.387528 254.712068 
L 406.596974 234.367924 
L 408.411143 198.954745 
L 410.225311 162.08537 
L 411.434757 142.019776 
L 412.03948 134.337873 
L 412.644203 128.658655 
L 413.248926 125.316972 
L 413.853649 124.464812 
L 414.458372 126.200795 
L 415.063094 130.577465 
L 415.667817 137.559715 
L 416.27254 146.969993 
L 417.481986 171.516027 
L 419.296155 215.752995 
L 421.110324 259.195561 
L 422.319769 282.73417 
L 423.529215 299.761974 
L 424.133938 305.847825 
L 424.738661 310.576383 
L 425.343384 314.093573 
L 425.948107 316.265831 
L 426.55283 317.340229 
L 427.157553 317.529205 
L 427.762275 316.923849 
L 428.366998 315.618397 
L 428.971721 313.716647 
L 429.576444 311.289924 
L 430.181167 308.321374 
L 430.78589 304.671406 
L 431.390613 300.099087 
L 431.995336 294.374301 
L 433.204782 279.64227 
L 434.414227 260.172901 
L 435.623673 236.206717 
L 439.856734 144.526917 
L 440.461456 135.691559 
L 441.066179 129.071192 
L 441.670902 124.872488 
L 442.275625 123.249538 
L 442.880348 124.31067 
L 443.485071 128.076534 
L 444.089794 134.424881 
L 444.694517 143.057383 
L 445.903963 165.339588 
L 447.718131 205.952999 
L 449.5323 245.932469 
L 450.741746 268.001649 
L 451.951192 285.092753 
L 453.160637 298.105368 
L 454.370083 307.213703 
L 454.974806 310.613966 
L 455.579529 313.333314 
L 456.184252 315.407257 
L 456.788975 316.880357 
L 457.393698 317.765811 
L 457.998421 317.991038 
L 458.603144 317.363899 
L 459.207867 315.594191 
L 459.812589 312.405058 
L 460.417312 307.768965 
L 461.022035 301.773969 
L 461.626758 294.153816 
L 462.836204 274.123806 
L 464.04565 248.362201 
L 467.673987 160.612232 
L 468.883433 139.453351 
L 469.488156 132.10682 
L 470.092879 127.207146 
L 470.697602 124.91709 
L 471.302325 125.313664 
L 471.907048 128.332452 
L 472.51177 133.733624 
L 473.116493 141.124782 
L 474.325939 160.360021 
L 476.140108 196.126301 
L 477.954277 231.714289 
L 479.163722 252.0556 
L 480.373168 269.468377 
L 481.582614 284.579646 
L 482.79206 297.408753 
L 484.001506 308.395084 
L 485.210951 317.392734 
L 485.815674 320.963442 
L 486.420397 323.62487 
L 487.02512 325.032819 
L 487.629843 324.857355 
L 488.234566 323.017468 
L 488.839289 319.558939 
L 489.444012 314.174036 
L 490.048735 306.828713 
L 490.653458 297.569435 
L 491.862903 273.666805 
L 493.072349 243.947819 
L 495.491241 181.395691 
L 496.700687 155.668112 
L 497.30541 145.595896 
L 497.910132 137.734778 
L 498.514855 132.296652 
L 499.119578 129.411439 
L 499.724301 129.070998 
L 500.329024 131.094384 
L 500.933747 135.149293 
L 501.53847 140.864498 
L 502.143193 148.068099 
L 503.352639 166.058321 
L 508.190422 244.483454 
L 510.609313 278.917941 
L 512.423482 302.898766 
L 513.632928 317.104673 
L 514.237651 323.083811 
L 514.842374 327.814299 
L 515.447097 330.910682 
L 516.05182 332.234669 
L 516.656542 331.7827 
L 517.261265 329.197777 
L 517.865988 324.399311 
L 518.470711 317.391966 
L 519.075434 308.216461 
L 520.28488 283.837939 
L 522.099049 237.313011 
L 523.913217 190.306757 
L 525.122663 164.335489 
L 525.727386 154.035248 
L 526.332109 145.87273 
L 526.936832 140.023553 
L 527.541555 136.530381 
L 528.146278 135.267509 
L 528.751001 135.961003 
L 529.355723 138.298928 
L 529.960446 142.166202 
L 530.565169 147.497583 
L 531.774615 160.979182 
L 533.588784 185.062661 
L 536.612398 227.971278 
L 539.03129 266.528743 
L 542.054904 315.854748 
L 542.659627 323.816086 
L 543.26435 330.208136 
L 543.869073 334.835497 
L 544.473796 337.642132 
L 545.078519 338.217652 
L 545.683242 336.428822 
L 546.287965 332.230515 
L 546.892688 325.617142 
L 547.497411 316.640124 
L 548.706856 292.375629 
L 550.521025 246.742885 
L 552.335194 200.513241 
L 553.54464 174.919882 
L 554.149363 164.643913 
L 554.754085 156.352887 
L 555.358808 150.131306 
L 555.963531 145.901345 
L 556.568254 143.441839 
L 557.172977 142.496442 
L 557.7777 143.005232 
L 558.382423 144.964447 
L 558.987146 147.986155 
L 559.591869 151.8979 
L 560.801314 161.805581 
L 562.01076 173.530734 
L 563.220206 186.826743 
L 564.429652 202.798647 
L 565.639098 221.392687 
L 567.453266 254.354155 
L 570.476881 313.391051 
L 571.686327 330.706629 
L 572.29105 336.791884 
L 572.895773 340.662252 
L 573.500495 342.129648 
L 574.105218 341.094856 
L 574.709941 337.499875 
L 575.314664 331.345976 
L 575.919387 322.742892 
L 577.128833 299.409966 
L 578.943002 255.964744 
L 580.75717 211.894973 
L 581.966616 187.264007 
L 583.176062 168.876858 
L 583.780785 162.200631 
L 584.385508 157.011726 
L 584.990231 153.102049 
L 585.594954 150.461406 
L 586.199676 149.144297 
L 586.804399 148.820697 
L 587.409122 149.376804 
L 588.013845 150.728835 
L 588.618568 152.778127 
L 589.223291 155.430435 
L 589.828014 158.646069 
L 590.432737 162.487505 
L 591.03746 167.131156 
L 591.642183 172.809946 
L 592.851628 187.475012 
L 594.061074 206.464473 
L 595.27052 229.738629 
L 597.084689 270.197619 
L 598.898857 309.476236 
L 600.108303 329.357496 
L 600.713026 336.425475 
L 601.317749 341.165976 
L 601.922472 343.425337 
L 602.527195 343.090844 
L 603.131918 340.109493 
L 603.736641 334.537638 
L 604.341364 326.587582 
L 605.550809 305.168199 
L 606.760255 279.076011 
L 609.179147 224.301319 
L 610.388593 201.143352 
L 611.598038 182.99217 
L 612.807484 169.324151 
L 613.412207 163.956047 
L 614.01693 159.681026 
L 614.621653 156.221577 
L 615.226376 153.519017 
L 615.831099 151.547151 
L 616.435822 150.265995 
L 617.040545 149.639614 
L 617.645268 149.684843 
L 618.24999 150.517728 
L 618.854713 152.36452 
L 619.459436 155.50406 
L 620.064159 160.108404 
L 620.668882 166.0297 
L 621.273605 173.407432 
L 622.483051 192.767577 
L 623.692497 217.625948 
L 625.506665 261.822403 
L 627.320834 304.113147 
L 628.53028 325.862781 
L 629.135003 333.666176 
L 629.739726 339.121184 
L 630.344449 342.06198 
L 630.949171 342.381002 
L 631.553894 340.079083 
L 632.158617 335.312512 
L 632.76334 328.403306 
L 633.972786 309.808009 
L 635.786955 274.157513 
L 638.205846 226.469496 
L 639.415292 206.814612 
L 640.624738 189.999443 
L 641.834184 175.788708 
L 643.04363 163.969068 
L 644.253075 154.368082 
L 645.462521 147.193083 
L 646.067244 144.778024 
L 646.671967 143.482307 
L 647.27669 143.636727 
L 647.881413 145.463338 
L 648.486136 148.86175 
L 649.090859 154.010812 
L 649.695581 161.048761 
L 650.300304 169.93594 
L 651.50975 192.89621 
L 652.719196 221.645468 
L 655.742811 297.443584 
L 656.952256 320.202964 
L 657.556979 328.536461 
L 658.161702 334.542765 
L 658.766425 338.063282 
L 659.371148 339.045026 
L 659.975871 337.588113 
L 660.580594 333.956714 
L 661.185317 328.520013 
L 661.79004 321.589708 
L 662.999485 303.778579 
L 668.441992 213.681314 
L 670.25616 188.021955 
L 672.070329 164.731311 
L 673.279775 151.267095 
L 673.884498 145.588677 
L 674.489221 141.023208 
L 675.093943 137.955753 
L 675.698666 136.662216 
L 676.303389 137.095181 
L 676.908112 139.481086 
L 677.512835 144.003359 
L 678.117558 150.663721 
L 678.722281 159.415663 
L 679.931727 182.796177 
L 681.141173 212.365457 
L 683.560064 275.243842 
L 684.76951 301.743878 
L 685.374233 312.445142 
L 685.978956 321.100491 
L 686.583679 327.507348 
L 687.188402 331.564285 
L 687.793124 333.318877 
L 688.397847 332.979248 
L 689.00257 330.856162 
L 689.607293 327.202442 
L 690.212016 322.007871 
L 691.421462 308.32689 
L 693.235631 283.243317 
L 696.863968 229.301341 
L 702.306474 145.08261 
L 702.911197 138.778146 
L 703.51592 134.238129 
L 704.120643 131.4699 
L 704.725366 130.752218 
L 705.330089 132.31925 
L 705.934812 136.221687 
L 706.539535 142.458674 
L 707.144257 150.989769 
L 708.353703 174.346669 
L 710.167872 219.406478 
L 711.982041 265.765155 
L 713.191486 291.978847 
L 714.400932 311.478038 
L 715.005655 318.197211 
L 715.610378 322.851184 
L 716.215101 325.597492 
L 716.819824 326.692128 
L 717.424547 326.330764 
L 718.02927 324.446225 
L 718.633993 321.315156 
L 719.238716 317.203579 
L 720.448161 306.631904 
L 722.26233 287.087314 
L 723.471776 272.018228 
L 724.681222 254.34294 
L 725.890667 234.479173 
L 727.704836 200.804687 
L 730.123728 155.316827 
L 731.333174 138.287214 
L 731.937897 132.301144 
L 732.542619 128.353105 
L 733.147342 126.729829 
L 733.752065 127.535044 
L 734.356788 130.819455 
L 734.961511 136.591568 
L 735.566234 144.781455 
L 736.77568 167.462347 
L 738.589848 210.605128 
L 740.404017 255.214678 
L 741.613463 280.587848 
L 742.822909 299.887816 
L 743.427632 306.939509 
L 744.032355 312.363573 
L 744.637078 316.368316 
L 745.2418 319.097542 
L 745.846523 320.430337 
L 746.451246 320.586072 
L 747.055969 319.772001 
L 747.660692 318.077198 
L 748.265415 315.595263 
L 748.870138 312.432886 
L 750.079584 304.318453 
L 751.289029 293.326506 
L 752.498475 278.256904 
L 753.707921 259.360639 
L 754.917367 236.557655 
L 756.731536 197.396141 
L 758.545704 159.011222 
L 759.75515 139.468661 
L 760.359873 132.382016 
L 760.964596 127.550092 
L 761.569319 125.129992 
L 762.174042 125.226258 
L 762.778765 127.90042 
L 763.383488 133.134064 
L 763.98821 140.778481 
L 765.197656 161.922016 
L 766.407102 187.952779 
L 769.430717 256.28497 
L 770.640162 277.89179 
L 771.849608 294.208212 
L 773.059054 306.04522 
L 773.663777 310.292898 
L 774.2685 313.538046 
L 774.873223 315.932465 
L 775.477946 317.508415 
L 776.082669 318.301745 
L 776.687391 318.361428 
L 777.292114 317.71301 
L 777.896837 316.308266 
L 778.50156 313.99336 
L 779.106283 310.527802 
L 779.711006 305.686529 
L 780.315729 299.477413 
L 780.920452 292.032303 
L 782.129898 272.859886 
L 783.339343 248.578256 
L 785.153512 205.652047 
L 786.967681 164.058022 
L 788.177127 142.510488 
L 788.78185 134.665876 
L 789.386572 129.108493 
L 789.991295 125.995287 
L 790.596018 125.441248 
L 791.200741 127.481709 
L 791.805464 132.021608 
L 792.410187 138.8045 
L 793.619633 157.481611 
L 794.829079 180.936322 
L 797.852693 242.976303 
L 799.062139 263.461518 
L 800.271585 280.55694 
L 801.481031 294.768252 
L 802.690476 306.007574 
L 803.899922 314.735013 
L 804.504645 318.099955 
L 805.109368 320.681319 
L 805.714091 322.347306 
L 805.714091 322.347306 
" clip-path="url(#p3ca08f20c0)" style="fill: none; stroke-dasharray: 11.1,4.8; stroke-dashoffset: 0; stroke: #ff7f0e; stroke-width: 3"/>
   </g>
   <g id="patch_3">
    <path d="M 171.39 489.2325 
L 171.39 50.52 
" style="fill: none; stroke: #000000; stroke-width: 2; stroke-linejoin: miter; stroke-linecap: square"/>
   </g>
   <g id="patch_4">
    <path d="M 835.92 489.2325 
L 835.92 50.52 
" style="fill: none; stroke: #000000; stroke-width: 2; stroke-linejoin: miter; stroke-linecap: square"/>
   </g>
   <g id="patch_5">
    <path d="M 171.39 489.2325 
L 835.92 489.2325 
" style="fill: none; stroke: #000000; stroke-width: 2; stroke-linejoin: miter; stroke-linecap: square"/>
   </g>
   <g id="patch_6">
    <path d="M 171.39 50.52 
L 835.92 50.52 
" style="fill: none; stroke: #000000; stroke-width: 2; stroke-linejoin: miter; stroke-linecap: square"/>
   </g>
  </g>
 </g>
 <defs>
  <clipPath id="p3ca08f20c0">
   <rect x="171.39" y="50.52" width="664.53" height="438.7125"/>
  </clipPath>
 </defs>
</svg>
