<?xml version="1.0" encoding="utf-8" standalone="no"?>
<!DOCTYPE svg PUBLIC "-//W3C//DTD SVG 1.1//EN"
  "http://www.w3.org/Graphics/SVG/1.1/DTD/svg11.dtd">
<svg xmlns:xlink="http://www.w3.org/1999/xlink" width="720pt" height="504pt" viewBox="0 0 720 504" xmlns="http://www.w3.org/2000/svg" version="1.1">
 <metadata>
  <rdf:RDF xmlns:dc="http://purl.org/dc/elements/1.1/" xmlns:cc="http://creativecommons.org/ns#" xmlns:rdf="http://www.w3.org/1999/02/22-rdf-syntax-ns#">
   <cc:Work>
    <dc:type rdf:resource="http://purl.org/dc/dcmitype/StillImage"/>
    <dc:date>2025-06-01T11:13:39.778226</dc:date>
    <dc:format>image/svg+xml</dc:format>
    <dc:creator>
     <cc:Agent>
      <dc:title>Matplotlib v3.7.2, https://matplotlib.org/</dc:title>
     </cc:Agent>
    </dc:creator>
   </cc:Work>
  </rdf:RDF>
 </metadata>
 <defs>
  <style type="text/css">*{stroke-linejoin: round; stroke-linecap: butt}</style>
 </defs>
 <g id="figure_1">
  <g id="patch_1">
   <path d="M 0 504 
L 720 504 
L 720 0 
L 0 0 
z
" style="fill: #ffffff"/>
  </g>
  <g id="axes_1">
   <g id="patch_2">
    <path d="M 115.455 419.46 
L 691.92 419.46 
L 691.92 58.32 
L 115.455 58.32 
z
" style="fill: #ffffff"/>
   </g>
   <g id="matplotlib.axis_1">
    <g id="xtick_1">
     <g id="line2d_1">
      <path d="M 141.657955 419.46 
L 141.657955 58.32 
" clip-path="url(#p45c02ae6b5)" style="fill: none; stroke-dasharray: 3.7,1.6; stroke-dashoffset: 0; stroke: #b0b0b0"/>
     </g>
     <g id="line2d_2">
      <defs>
       <path id="m3030799f25" d="M 0 0 
L 0 -10 
" style="stroke: #000000; stroke-width: 2"/>
      </defs>
      <g>
       <use xlink:href="#m3030799f25" x="141.657955" y="419.46" style="stroke: #000000; stroke-width: 2"/>
      </g>
     </g>
     <g id="text_1">
      <!-- 0 -->
      <g transform="translate(133.386705 442.715937) scale(0.26 -0.26)">
       <defs>
        <path id="DejaVuSerif-30" d="M 2034 219 
Q 2513 219 2750 744 
Q 2988 1269 2988 2328 
Q 2988 3391 2750 3916 
Q 2513 4441 2034 4441 
Q 1556 4441 1318 3916 
Q 1081 3391 1081 2328 
Q 1081 1269 1318 744 
Q 1556 219 2034 219 
z
M 2034 -91 
Q 1275 -91 848 546 
Q 422 1184 422 2328 
Q 422 3475 848 4112 
Q 1275 4750 2034 4750 
Q 2797 4750 3222 4112 
Q 3647 3475 3647 2328 
Q 3647 1184 3222 546 
Q 2797 -91 2034 -91 
z
" transform="scale(0.015625)"/>
       </defs>
       <use xlink:href="#DejaVuSerif-30"/>
      </g>
     </g>
    </g>
    <g id="xtick_2">
     <g id="line2d_3">
      <path d="M 246.469773 419.46 
L 246.469773 58.32 
" clip-path="url(#p45c02ae6b5)" style="fill: none; stroke-dasharray: 3.7,1.6; stroke-dashoffset: 0; stroke: #b0b0b0"/>
     </g>
     <g id="line2d_4">
      <g>
       <use xlink:href="#m3030799f25" x="246.469773" y="419.46" style="stroke: #000000; stroke-width: 2"/>
      </g>
     </g>
     <g id="text_2">
      <!-- 1 -->
      <g transform="translate(238.198523 442.715937) scale(0.26 -0.26)">
       <defs>
        <path id="DejaVuSerif-31" d="M 909 0 
L 909 331 
L 1722 331 
L 1722 4213 
L 781 3603 
L 781 4013 
L 1919 4750 
L 2350 4750 
L 2350 331 
L 3163 331 
L 3163 0 
L 909 0 
z
" transform="scale(0.015625)"/>
       </defs>
       <use xlink:href="#DejaVuSerif-31"/>
      </g>
     </g>
    </g>
    <g id="xtick_3">
     <g id="line2d_5">
      <path d="M 351.281591 419.46 
L 351.281591 58.32 
" clip-path="url(#p45c02ae6b5)" style="fill: none; stroke-dasharray: 3.7,1.6; stroke-dashoffset: 0; stroke: #b0b0b0"/>
     </g>
     <g id="line2d_6">
      <g>
       <use xlink:href="#m3030799f25" x="351.281591" y="419.46" style="stroke: #000000; stroke-width: 2"/>
      </g>
     </g>
     <g id="text_3">
      <!-- 2 -->
      <g transform="translate(343.010341 442.715937) scale(0.26 -0.26)">
       <defs>
        <path id="DejaVuSerif-32" d="M 819 3553 
L 469 3553 
L 469 4384 
Q 803 4563 1142 4656 
Q 1481 4750 1806 4750 
Q 2534 4750 2956 4397 
Q 3378 4044 3378 3438 
Q 3378 2753 2422 1800 
Q 2347 1728 2309 1691 
L 1131 513 
L 3078 513 
L 3078 1088 
L 3444 1088 
L 3444 0 
L 434 0 
L 434 341 
L 1850 1753 
Q 2319 2222 2519 2614 
Q 2719 3006 2719 3438 
Q 2719 3909 2473 4175 
Q 2228 4441 1797 4441 
Q 1350 4441 1106 4219 
Q 863 3997 819 3553 
z
" transform="scale(0.015625)"/>
       </defs>
       <use xlink:href="#DejaVuSerif-32"/>
      </g>
     </g>
    </g>
    <g id="xtick_4">
     <g id="line2d_7">
      <path d="M 456.093409 419.46 
L 456.093409 58.32 
" clip-path="url(#p45c02ae6b5)" style="fill: none; stroke-dasharray: 3.7,1.6; stroke-dashoffset: 0; stroke: #b0b0b0"/>
     </g>
     <g id="line2d_8">
      <g>
       <use xlink:href="#m3030799f25" x="456.093409" y="419.46" style="stroke: #000000; stroke-width: 2"/>
      </g>
     </g>
     <g id="text_4">
      <!-- 3 -->
      <g transform="translate(447.822159 442.715937) scale(0.26 -0.26)">
       <defs>
        <path id="DejaVuSerif-33" d="M 622 4469 
Q 988 4606 1323 4678 
Q 1659 4750 1953 4750 
Q 2638 4750 3022 4454 
Q 3406 4159 3406 3634 
Q 3406 3213 3140 2930 
Q 2875 2647 2388 2547 
Q 2963 2466 3280 2130 
Q 3597 1794 3597 1259 
Q 3597 606 3158 257 
Q 2719 -91 1894 -91 
Q 1528 -91 1179 -12 
Q 831 66 488 225 
L 488 1131 
L 838 1131 
Q 869 681 1141 450 
Q 1413 219 1906 219 
Q 2384 219 2661 495 
Q 2938 772 2938 1253 
Q 2938 1803 2653 2086 
Q 2369 2369 1819 2369 
L 1522 2369 
L 1522 2688 
L 1678 2688 
Q 2225 2688 2498 2914 
Q 2772 3141 2772 3597 
Q 2772 4006 2547 4223 
Q 2322 4441 1900 4441 
Q 1478 4441 1245 4241 
Q 1013 4041 972 3647 
L 622 3647 
L 622 4469 
z
" transform="scale(0.015625)"/>
       </defs>
       <use xlink:href="#DejaVuSerif-33"/>
      </g>
     </g>
    </g>
    <g id="xtick_5">
     <g id="line2d_9">
      <path d="M 560.905227 419.46 
L 560.905227 58.32 
" clip-path="url(#p45c02ae6b5)" style="fill: none; stroke-dasharray: 3.7,1.6; stroke-dashoffset: 0; stroke: #b0b0b0"/>
     </g>
     <g id="line2d_10">
      <g>
       <use xlink:href="#m3030799f25" x="560.905227" y="419.46" style="stroke: #000000; stroke-width: 2"/>
      </g>
     </g>
     <g id="text_5">
      <!-- 4 -->
      <g transform="translate(552.633977 442.715937) scale(0.26 -0.26)">
       <defs>
        <path id="DejaVuSerif-34" d="M 2234 1581 
L 2234 4063 
L 641 1581 
L 2234 1581 
z
M 3609 0 
L 1484 0 
L 1484 331 
L 2234 331 
L 2234 1247 
L 197 1247 
L 197 1588 
L 2241 4750 
L 2859 4750 
L 2859 1581 
L 3750 1581 
L 3750 1247 
L 2859 1247 
L 2859 331 
L 3609 331 
L 3609 0 
z
" transform="scale(0.015625)"/>
       </defs>
       <use xlink:href="#DejaVuSerif-34"/>
      </g>
     </g>
    </g>
    <g id="xtick_6">
     <g id="line2d_11">
      <path d="M 665.717045 419.46 
L 665.717045 58.32 
" clip-path="url(#p45c02ae6b5)" style="fill: none; stroke-dasharray: 3.7,1.6; stroke-dashoffset: 0; stroke: #b0b0b0"/>
     </g>
     <g id="line2d_12">
      <g>
       <use xlink:href="#m3030799f25" x="665.717045" y="419.46" style="stroke: #000000; stroke-width: 2"/>
      </g>
     </g>
     <g id="text_6">
      <!-- 5 -->
      <g transform="translate(657.445795 442.715937) scale(0.26 -0.26)">
       <defs>
        <path id="DejaVuSerif-35" d="M 3219 4666 
L 3219 4153 
L 1081 4153 
L 1081 2816 
Q 1244 2928 1461 2984 
Q 1678 3041 1947 3041 
Q 2703 3041 3140 2622 
Q 3578 2203 3578 1478 
Q 3578 738 3136 323 
Q 2694 -91 1894 -91 
Q 1572 -91 1234 -12 
Q 897 66 544 225 
L 544 1131 
L 897 1131 
Q 925 688 1179 453 
Q 1434 219 1894 219 
Q 2388 219 2653 544 
Q 2919 869 2919 1478 
Q 2919 2084 2655 2407 
Q 2391 2731 1894 2731 
Q 1613 2731 1398 2631 
Q 1184 2531 1019 2322 
L 750 2322 
L 750 4666 
L 3219 4666 
z
" transform="scale(0.015625)"/>
       </defs>
       <use xlink:href="#DejaVuSerif-35"/>
      </g>
     </g>
    </g>
    <g id="text_7">
     <!-- Time (a.u.) -->
     <g transform="translate(332.173281 471.879062) scale(0.26 -0.26)">
      <defs>
       <path id="DejaVuSerif-54" d="M 1222 0 
L 1222 331 
L 1819 331 
L 1819 4294 
L 447 4294 
L 447 3566 
L 63 3566 
L 63 4666 
L 4206 4666 
L 4206 3566 
L 3822 3566 
L 3822 4294 
L 2450 4294 
L 2450 331 
L 3047 331 
L 3047 0 
L 1222 0 
z
" transform="scale(0.015625)"/>
       <path id="DejaVuSerif-69" d="M 622 4353 
Q 622 4497 726 4603 
Q 831 4709 978 4709 
Q 1122 4709 1226 4603 
Q 1331 4497 1331 4353 
Q 1331 4206 1228 4103 
Q 1125 4000 978 4000 
Q 831 4000 726 4103 
Q 622 4206 622 4353 
z
M 1356 331 
L 1900 331 
L 1900 0 
L 231 0 
L 231 331 
L 781 331 
L 781 2988 
L 231 2988 
L 231 3322 
L 1356 3322 
L 1356 331 
z
" transform="scale(0.015625)"/>
       <path id="DejaVuSerif-6d" d="M 3316 2675 
Q 3481 3041 3739 3227 
Q 3997 3413 4341 3413 
Q 4863 3413 5119 3089 
Q 5375 2766 5375 2113 
L 5375 331 
L 5894 331 
L 5894 0 
L 4300 0 
L 4300 331 
L 4800 331 
L 4800 2047 
Q 4800 2556 4650 2772 
Q 4500 2988 4153 2988 
Q 3769 2988 3567 2697 
Q 3366 2406 3366 1850 
L 3366 331 
L 3866 331 
L 3866 0 
L 2291 0 
L 2291 331 
L 2791 331 
L 2791 2069 
Q 2791 2566 2641 2777 
Q 2491 2988 2144 2988 
Q 1759 2988 1557 2697 
Q 1356 2406 1356 1850 
L 1356 331 
L 1856 331 
L 1856 0 
L 263 0 
L 263 331 
L 781 331 
L 781 2994 
L 231 2994 
L 231 3322 
L 1356 3322 
L 1356 2731 
Q 1516 3063 1762 3238 
Q 2009 3413 2322 3413 
Q 2709 3413 2968 3220 
Q 3228 3028 3316 2675 
z
" transform="scale(0.015625)"/>
       <path id="DejaVuSerif-65" d="M 3469 1600 
L 991 1600 
L 991 1575 
Q 991 903 1244 561 
Q 1497 219 1991 219 
Q 2369 219 2611 417 
Q 2853 616 2950 1006 
L 3413 1006 
Q 3275 459 2904 184 
Q 2534 -91 1931 -91 
Q 1203 -91 761 389 
Q 319 869 319 1663 
Q 319 2450 753 2931 
Q 1188 3413 1894 3413 
Q 2647 3413 3050 2948 
Q 3453 2484 3469 1600 
z
M 2791 1931 
Q 2772 2513 2545 2808 
Q 2319 3103 1894 3103 
Q 1497 3103 1269 2806 
Q 1041 2509 991 1931 
L 2791 1931 
z
" transform="scale(0.015625)"/>
       <path id="DejaVuSerif-20" transform="scale(0.015625)"/>
       <path id="DejaVuSerif-28" d="M 2041 -997 
Q 1281 -656 893 83 
Q 506 822 506 1931 
Q 506 3044 893 3783 
Q 1281 4522 2041 4863 
L 2041 4556 
Q 1559 4225 1350 3623 
Q 1141 3022 1141 1931 
Q 1141 844 1350 242 
Q 1559 -359 2041 -691 
L 2041 -997 
z
" transform="scale(0.015625)"/>
       <path id="DejaVuSerif-61" d="M 2547 1044 
L 2547 1747 
L 1806 1747 
Q 1378 1747 1168 1562 
Q 959 1378 959 997 
Q 959 650 1171 447 
Q 1384 244 1747 244 
Q 2106 244 2326 466 
Q 2547 688 2547 1044 
z
M 3122 2075 
L 3122 331 
L 3634 331 
L 3634 0 
L 2547 0 
L 2547 359 
Q 2356 128 2106 18 
Q 1856 -91 1522 -91 
Q 969 -91 644 203 
Q 319 497 319 997 
Q 319 1513 691 1797 
Q 1063 2081 1741 2081 
L 2547 2081 
L 2547 2309 
Q 2547 2688 2317 2895 
Q 2088 3103 1672 3103 
Q 1328 3103 1125 2947 
Q 922 2791 872 2484 
L 575 2484 
L 575 3156 
Q 875 3284 1158 3348 
Q 1441 3413 1709 3413 
Q 2400 3413 2761 3070 
Q 3122 2728 3122 2075 
z
" transform="scale(0.015625)"/>
       <path id="DejaVuSerif-2e" d="M 603 325 
Q 603 500 722 622 
Q 841 744 1019 744 
Q 1191 744 1312 622 
Q 1434 500 1434 325 
Q 1434 153 1312 31 
Q 1191 -91 1019 -91 
Q 841 -91 722 29 
Q 603 150 603 325 
z
" transform="scale(0.015625)"/>
       <path id="DejaVuSerif-75" d="M 2266 3322 
L 3341 3322 
L 3341 331 
L 3884 331 
L 3884 0 
L 2766 0 
L 2766 588 
Q 2606 256 2353 82 
Q 2100 -91 1766 -91 
Q 1213 -91 952 223 
Q 691 538 691 1209 
L 691 2988 
L 172 2988 
L 172 3322 
L 1269 3322 
L 1269 1388 
Q 1269 781 1417 556 
Q 1566 331 1947 331 
Q 2347 331 2556 625 
Q 2766 919 2766 1478 
L 2766 2988 
L 2266 2988 
L 2266 3322 
z
" transform="scale(0.015625)"/>
       <path id="DejaVuSerif-29" d="M 453 -997 
L 453 -691 
Q 934 -359 1145 242 
Q 1356 844 1356 1931 
Q 1356 3022 1145 3623 
Q 934 4225 453 4556 
L 453 4863 
Q 1216 4522 1603 3783 
Q 1991 3044 1991 1931 
Q 1991 822 1603 83 
Q 1216 -656 453 -997 
z
" transform="scale(0.015625)"/>
      </defs>
      <use xlink:href="#DejaVuSerif-54"/>
      <use xlink:href="#DejaVuSerif-69" x="66.699219"/>
      <use xlink:href="#DejaVuSerif-6d" x="98.681641"/>
      <use xlink:href="#DejaVuSerif-65" x="193.505859"/>
      <use xlink:href="#DejaVuSerif-20" x="252.685547"/>
      <use xlink:href="#DejaVuSerif-28" x="284.472656"/>
      <use xlink:href="#DejaVuSerif-61" x="323.486328"/>
      <use xlink:href="#DejaVuSerif-2e" x="383.105469"/>
      <use xlink:href="#DejaVuSerif-75" x="414.892578"/>
      <use xlink:href="#DejaVuSerif-2e" x="479.296875"/>
      <use xlink:href="#DejaVuSerif-29" x="511.083984"/>
     </g>
    </g>
   </g>
   <g id="matplotlib.axis_2">
    <g id="ytick_1">
     <g id="line2d_13">
      <path d="M 115.455 412.673369 
L 691.92 412.673369 
" clip-path="url(#p45c02ae6b5)" style="fill: none; stroke-dasharray: 3.7,1.6; stroke-dashoffset: 0; stroke: #b0b0b0"/>
     </g>
     <g id="line2d_14">
      <defs>
       <path id="m88d3d9a514" d="M 0 0 
L 10 0 
" style="stroke: #000000; stroke-width: 2"/>
      </defs>
      <g>
       <use xlink:href="#m88d3d9a514" x="115.455" y="412.673369" style="stroke: #000000; stroke-width: 2"/>
      </g>
     </g>
     <g id="text_8">
      <!-- −20 -->
      <g transform="translate(57.082813 422.551338) scale(0.26 -0.26)">
       <defs>
        <path id="DejaVuSerif-2212" d="M 678 2259 
L 4684 2259 
L 4684 1753 
L 678 1753 
L 678 2259 
z
" transform="scale(0.015625)"/>
       </defs>
       <use xlink:href="#DejaVuSerif-2212"/>
       <use xlink:href="#DejaVuSerif-32" x="83.789062"/>
       <use xlink:href="#DejaVuSerif-30" x="147.412109"/>
      </g>
     </g>
    </g>
    <g id="ytick_2">
     <g id="line2d_15">
      <path d="M 115.455 351.719824 
L 691.92 351.719824 
" clip-path="url(#p45c02ae6b5)" style="fill: none; stroke-dasharray: 3.7,1.6; stroke-dashoffset: 0; stroke: #b0b0b0"/>
     </g>
     <g id="line2d_16">
      <g>
       <use xlink:href="#m88d3d9a514" x="115.455" y="351.719824" style="stroke: #000000; stroke-width: 2"/>
      </g>
     </g>
     <g id="text_9">
      <!-- −15 -->
      <g transform="translate(57.082813 361.597793) scale(0.26 -0.26)">
       <use xlink:href="#DejaVuSerif-2212"/>
       <use xlink:href="#DejaVuSerif-31" x="83.789062"/>
       <use xlink:href="#DejaVuSerif-35" x="147.412109"/>
      </g>
     </g>
    </g>
    <g id="ytick_3">
     <g id="line2d_17">
      <path d="M 115.455 290.76628 
L 691.92 290.76628 
" clip-path="url(#p45c02ae6b5)" style="fill: none; stroke-dasharray: 3.7,1.6; stroke-dashoffset: 0; stroke: #b0b0b0"/>
     </g>
     <g id="line2d_18">
      <g>
       <use xlink:href="#m88d3d9a514" x="115.455" y="290.76628" style="stroke: #000000; stroke-width: 2"/>
      </g>
     </g>
     <g id="text_10">
      <!-- −10 -->
      <g transform="translate(57.082813 300.644249) scale(0.26 -0.26)">
       <use xlink:href="#DejaVuSerif-2212"/>
       <use xlink:href="#DejaVuSerif-31" x="83.789062"/>
       <use xlink:href="#DejaVuSerif-30" x="147.412109"/>
      </g>
     </g>
    </g>
    <g id="ytick_4">
     <g id="line2d_19">
      <path d="M 115.455 229.812735 
L 691.92 229.812735 
" clip-path="url(#p45c02ae6b5)" style="fill: none; stroke-dasharray: 3.7,1.6; stroke-dashoffset: 0; stroke: #b0b0b0"/>
     </g>
     <g id="line2d_20">
      <g>
       <use xlink:href="#m88d3d9a514" x="115.455" y="229.812735" style="stroke: #000000; stroke-width: 2"/>
      </g>
     </g>
     <g id="text_11">
      <!-- −5 -->
      <g transform="translate(73.625313 239.690704) scale(0.26 -0.26)">
       <use xlink:href="#DejaVuSerif-2212"/>
       <use xlink:href="#DejaVuSerif-35" x="83.789062"/>
      </g>
     </g>
    </g>
    <g id="ytick_5">
     <g id="line2d_21">
      <path d="M 115.455 168.859191 
L 691.92 168.859191 
" clip-path="url(#p45c02ae6b5)" style="fill: none; stroke-dasharray: 3.7,1.6; stroke-dashoffset: 0; stroke: #b0b0b0"/>
     </g>
     <g id="line2d_22">
      <g>
       <use xlink:href="#m88d3d9a514" x="115.455" y="168.859191" style="stroke: #000000; stroke-width: 2"/>
      </g>
     </g>
     <g id="text_12">
      <!-- 0 -->
      <g transform="translate(95.4125 178.737159) scale(0.26 -0.26)">
       <use xlink:href="#DejaVuSerif-30"/>
      </g>
     </g>
    </g>
    <g id="ytick_6">
     <g id="line2d_23">
      <path d="M 115.455 107.905646 
L 691.92 107.905646 
" clip-path="url(#p45c02ae6b5)" style="fill: none; stroke-dasharray: 3.7,1.6; stroke-dashoffset: 0; stroke: #b0b0b0"/>
     </g>
     <g id="line2d_24">
      <g>
       <use xlink:href="#m88d3d9a514" x="115.455" y="107.905646" style="stroke: #000000; stroke-width: 2"/>
      </g>
     </g>
     <g id="text_13">
      <!-- 5 -->
      <g transform="translate(95.4125 117.783615) scale(0.26 -0.26)">
       <use xlink:href="#DejaVuSerif-35"/>
      </g>
     </g>
    </g>
    <g id="text_14">
     <!-- Energy Components (a.u.) -->
     <g transform="translate(47.305937 411.706719) rotate(-90) scale(0.26 -0.26)">
      <defs>
       <path id="DejaVuSerif-45" d="M 353 0 
L 353 331 
L 947 331 
L 947 4331 
L 353 4331 
L 353 4666 
L 4109 4666 
L 4109 3628 
L 3725 3628 
L 3725 4281 
L 1581 4281 
L 1581 2719 
L 3109 2719 
L 3109 3303 
L 3494 3303 
L 3494 1753 
L 3109 1753 
L 3109 2338 
L 1581 2338 
L 1581 384 
L 3775 384 
L 3775 1038 
L 4159 1038 
L 4159 0 
L 353 0 
z
" transform="scale(0.015625)"/>
       <path id="DejaVuSerif-6e" d="M 263 0 
L 263 331 
L 781 331 
L 781 2988 
L 231 2988 
L 231 3322 
L 1356 3322 
L 1356 2731 
Q 1516 3069 1770 3241 
Q 2025 3413 2363 3413 
Q 2913 3413 3172 3097 
Q 3431 2781 3431 2113 
L 3431 331 
L 3944 331 
L 3944 0 
L 2356 0 
L 2356 331 
L 2853 331 
L 2853 1931 
Q 2853 2541 2703 2767 
Q 2553 2994 2175 2994 
Q 1775 2994 1565 2701 
Q 1356 2409 1356 1850 
L 1356 331 
L 1856 331 
L 1856 0 
L 263 0 
z
" transform="scale(0.015625)"/>
       <path id="DejaVuSerif-72" d="M 3059 3328 
L 3059 2497 
L 2728 2497 
Q 2713 2744 2591 2866 
Q 2469 2988 2234 2988 
Q 1809 2988 1582 2694 
Q 1356 2400 1356 1850 
L 1356 331 
L 2022 331 
L 2022 0 
L 263 0 
L 263 331 
L 781 331 
L 781 2994 
L 231 2994 
L 231 3322 
L 1356 3322 
L 1356 2731 
Q 1525 3078 1790 3245 
Q 2056 3413 2438 3413 
Q 2578 3413 2733 3391 
Q 2888 3369 3059 3328 
z
" transform="scale(0.015625)"/>
       <path id="DejaVuSerif-67" d="M 3359 2988 
L 3359 72 
Q 3359 -644 2965 -1033 
Q 2572 -1422 1844 -1422 
Q 1516 -1422 1216 -1362 
Q 916 -1303 641 -1184 
L 641 -488 
L 941 -488 
Q 997 -813 1206 -963 
Q 1416 -1113 1806 -1113 
Q 2313 -1113 2548 -827 
Q 2784 -541 2784 72 
L 2784 519 
Q 2616 206 2355 57 
Q 2094 -91 1709 -91 
Q 1097 -91 708 395 
Q 319 881 319 1663 
Q 319 2444 706 2928 
Q 1094 3413 1709 3413 
Q 2094 3413 2355 3264 
Q 2616 3116 2784 2803 
L 2784 3322 
L 3909 3322 
L 3909 2988 
L 3359 2988 
z
M 2784 1825 
Q 2784 2422 2554 2737 
Q 2325 3053 1888 3053 
Q 1444 3053 1217 2703 
Q 991 2353 991 1663 
Q 991 975 1217 622 
Q 1444 269 1888 269 
Q 2325 269 2554 583 
Q 2784 897 2784 1497 
L 2784 1825 
z
" transform="scale(0.015625)"/>
       <path id="DejaVuSerif-79" d="M 1381 -609 
L 1600 -56 
L 359 2988 
L -19 2988 
L -19 3322 
L 1509 3322 
L 1509 2988 
L 978 2988 
L 1913 703 
L 2847 2988 
L 2350 2988 
L 2350 3322 
L 3597 3322 
L 3597 2988 
L 3225 2988 
L 1703 -750 
Q 1547 -1138 1356 -1280 
Q 1166 -1422 819 -1422 
Q 672 -1422 517 -1397 
Q 363 -1372 206 -1325 
L 206 -691 
L 500 -691 
Q 519 -903 608 -995 
Q 697 -1088 884 -1088 
Q 1056 -1088 1161 -992 
Q 1266 -897 1381 -609 
z
" transform="scale(0.015625)"/>
       <path id="DejaVuSerif-43" d="M 4513 1234 
Q 4306 581 3820 245 
Q 3334 -91 2591 -91 
Q 2134 -91 1743 65 
Q 1353 222 1050 525 
Q 700 875 529 1320 
Q 359 1766 359 2328 
Q 359 3416 987 4083 
Q 1616 4750 2644 4750 
Q 3025 4750 3456 4650 
Q 3888 4550 4384 4347 
L 4384 3272 
L 4031 3272 
Q 3916 3859 3567 4137 
Q 3219 4416 2591 4416 
Q 1844 4416 1459 3886 
Q 1075 3356 1075 2328 
Q 1075 1303 1459 773 
Q 1844 244 2591 244 
Q 3113 244 3450 492 
Q 3788 741 3938 1234 
L 4513 1234 
z
" transform="scale(0.015625)"/>
       <path id="DejaVuSerif-6f" d="M 1925 219 
Q 2388 219 2623 584 
Q 2859 950 2859 1663 
Q 2859 2375 2623 2739 
Q 2388 3103 1925 3103 
Q 1463 3103 1227 2739 
Q 991 2375 991 1663 
Q 991 950 1228 584 
Q 1466 219 1925 219 
z
M 1925 -91 
Q 1200 -91 759 389 
Q 319 869 319 1663 
Q 319 2456 758 2934 
Q 1197 3413 1925 3413 
Q 2653 3413 3092 2934 
Q 3531 2456 3531 1663 
Q 3531 869 3092 389 
Q 2653 -91 1925 -91 
z
" transform="scale(0.015625)"/>
       <path id="DejaVuSerif-70" d="M 1313 1825 
L 1313 1497 
Q 1313 897 1542 583 
Q 1772 269 2209 269 
Q 2650 269 2876 622 
Q 3103 975 3103 1663 
Q 3103 2353 2876 2703 
Q 2650 3053 2209 3053 
Q 1772 3053 1542 2737 
Q 1313 2422 1313 1825 
z
M 738 2988 
L 184 2988 
L 184 3322 
L 1313 3322 
L 1313 2803 
Q 1481 3116 1742 3264 
Q 2003 3413 2388 3413 
Q 3000 3413 3387 2928 
Q 3775 2444 3775 1663 
Q 3775 881 3387 395 
Q 3000 -91 2388 -91 
Q 2003 -91 1742 57 
Q 1481 206 1313 519 
L 1313 -997 
L 1856 -997 
L 1856 -1331 
L 184 -1331 
L 184 -997 
L 738 -997 
L 738 2988 
z
" transform="scale(0.015625)"/>
       <path id="DejaVuSerif-74" d="M 691 2988 
L 184 2988 
L 184 3322 
L 691 3322 
L 691 4353 
L 1269 4353 
L 1269 3322 
L 2350 3322 
L 2350 2988 
L 1269 2988 
L 1269 878 
Q 1269 456 1350 337 
Q 1431 219 1650 219 
Q 1875 219 1978 351 
Q 2081 484 2088 781 
L 2522 781 
Q 2497 328 2275 118 
Q 2053 -91 1600 -91 
Q 1103 -91 897 129 
Q 691 350 691 878 
L 691 2988 
z
" transform="scale(0.015625)"/>
       <path id="DejaVuSerif-73" d="M 359 184 
L 359 959 
L 691 959 
Q 703 588 923 403 
Q 1144 219 1575 219 
Q 1963 219 2166 364 
Q 2369 509 2369 788 
Q 2369 1006 2220 1140 
Q 2072 1275 1594 1428 
L 1178 1569 
Q 750 1706 558 1912 
Q 366 2119 366 2438 
Q 366 2894 700 3153 
Q 1034 3413 1625 3413 
Q 1888 3413 2178 3344 
Q 2469 3275 2778 3144 
L 2778 2419 
L 2447 2419 
Q 2434 2741 2221 2922 
Q 2009 3103 1644 3103 
Q 1281 3103 1095 2975 
Q 909 2847 909 2591 
Q 909 2381 1050 2254 
Q 1191 2128 1613 1997 
L 2069 1856 
Q 2541 1709 2748 1489 
Q 2956 1269 2956 922 
Q 2956 450 2595 179 
Q 2234 -91 1600 -91 
Q 1278 -91 972 -22 
Q 666 47 359 184 
z
" transform="scale(0.015625)"/>
      </defs>
      <use xlink:href="#DejaVuSerif-45"/>
      <use xlink:href="#DejaVuSerif-6e" x="72.998047"/>
      <use xlink:href="#DejaVuSerif-65" x="137.402344"/>
      <use xlink:href="#DejaVuSerif-72" x="196.582031"/>
      <use xlink:href="#DejaVuSerif-67" x="244.384766"/>
      <use xlink:href="#DejaVuSerif-79" x="308.398438"/>
      <use xlink:href="#DejaVuSerif-20" x="364.892578"/>
      <use xlink:href="#DejaVuSerif-43" x="396.679688"/>
      <use xlink:href="#DejaVuSerif-6f" x="473.193359"/>
      <use xlink:href="#DejaVuSerif-6d" x="533.398438"/>
      <use xlink:href="#DejaVuSerif-70" x="628.222656"/>
      <use xlink:href="#DejaVuSerif-6f" x="692.236328"/>
      <use xlink:href="#DejaVuSerif-6e" x="752.441406"/>
      <use xlink:href="#DejaVuSerif-65" x="816.845703"/>
      <use xlink:href="#DejaVuSerif-6e" x="876.025391"/>
      <use xlink:href="#DejaVuSerif-74" x="940.429688"/>
      <use xlink:href="#DejaVuSerif-73" x="980.615234"/>
      <use xlink:href="#DejaVuSerif-20" x="1031.933594"/>
      <use xlink:href="#DejaVuSerif-28" x="1063.720703"/>
      <use xlink:href="#DejaVuSerif-61" x="1102.734375"/>
      <use xlink:href="#DejaVuSerif-2e" x="1162.353516"/>
      <use xlink:href="#DejaVuSerif-75" x="1194.140625"/>
      <use xlink:href="#DejaVuSerif-2e" x="1258.544922"/>
      <use xlink:href="#DejaVuSerif-29" x="1290.332031"/>
     </g>
    </g>
   </g>
   <g id="line2d_25">
    <path d="M 141.657955 79.620421 
L 146.951481 76.827679 
L 152.245007 74.772226 
L 157.538533 76.802095 
L 162.832059 79.283934 
L 168.125585 78.658684 
L 173.419112 76.324874 
L 178.712638 76.312979 
L 184.006164 78.797287 
L 189.29969 80.664282 
L 194.593216 80.089836 
L 199.886742 78.310813 
L 205.180269 77.96557 
L 210.473795 79.704821 
L 215.767321 81.770229 
L 221.060847 82.43443 
L 226.354373 81.594322 
L 231.647899 80.613681 
L 236.941426 80.711349 
L 242.234952 81.686352 
L 247.528478 82.583904 
L 252.822004 82.795242 
L 258.11553 82.582962 
L 263.409056 82.830956 
L 268.702583 83.752538 
L 273.996109 84.325598 
L 279.289635 83.745632 
L 284.583161 82.363528 
L 289.876687 81.314821 
L 295.170213 81.760845 
L 300.46374 83.726501 
L 305.757266 85.665341 
L 311.050792 85.996838 
L 316.344318 84.50062 
L 321.637844 82.322243 
L 326.931371 81.14222 
L 332.224897 81.685437 
L 337.518423 83.004004 
L 342.811949 83.715575 
L 348.105475 83.25523 
L 353.399001 82.100214 
L 358.692528 81.323291 
L 363.986054 81.373976 
L 369.27958 81.460199 
L 374.573106 80.771555 
L 379.866632 79.39229 
L 385.160158 78.066926 
L 390.453685 77.669601 
L 395.747211 78.322273 
L 401.040737 78.94111 
L 406.334263 78.45645 
L 411.627789 76.922961 
L 416.921315 75.296303 
L 422.214842 74.735455 
L 427.508368 75.725858 
L 432.801894 77.369258 
L 438.09542 78.138884 
L 443.388946 77.445347 
L 448.682472 75.962216 
L 453.975999 74.997496 
L 459.269525 75.61015 
L 464.563051 77.646773 
L 469.856577 79.639234 
L 475.150103 80.151124 
L 480.443629 79.041743 
L 485.737156 77.415751 
L 491.030682 76.793437 
L 496.324208 77.996188 
L 501.617734 80.352693 
L 506.91126 82.229382 
L 512.204787 82.400987 
L 517.498313 80.9275 
L 522.791839 79.087175 
L 528.085365 78.470055 
L 533.378891 79.671901 
L 538.672417 81.768029 
L 543.965944 83.234881 
L 549.25947 83.115 
L 554.552996 81.591373 
L 559.846522 79.934896 
L 565.140048 79.529069 
L 570.433574 80.625601 
L 575.727101 82.191899 
L 581.020627 82.851453 
L 586.314153 81.89245 
L 591.607679 79.925557 
L 596.901205 78.716602 
L 602.194731 79.471134 
L 607.488258 81.353535 
L 612.781784 82.163345 
L 618.07531 80.263873 
L 623.368836 76.815579 
L 628.662362 75.814281 
L 633.955888 78.546622 
L 639.249415 80.976969 
L 644.542941 79.181763 
L 649.836467 75.670031 
L 655.129993 75.447643 
L 660.423519 76.951071 
L 665.717045 76.00928 
" clip-path="url(#p45c02ae6b5)" style="fill: none; stroke: #1f77b4; stroke-width: 3; stroke-linecap: square"/>
   </g>
   <g id="line2d_26">
    <path d="M 141.657955 398.114375 
L 146.951481 401.729214 
L 152.245007 403.044545 
L 157.538533 399.984681 
L 162.832059 397.629892 
L 168.125585 399.259046 
L 173.419112 401.735871 
L 178.712638 400.723257 
L 184.006164 397.265663 
L 189.29969 395.403547 
L 194.593216 396.796367 
L 199.886742 399.060445 
L 205.180269 398.896111 
L 210.473795 396.089272 
L 215.767321 393.251286 
L 221.060847 392.655641 
L 226.354373 394.248851 
L 231.647899 395.890849 
L 236.941426 395.660849 
L 242.234952 393.807425 
L 247.528478 391.961832 
L 252.822004 391.352435 
L 258.11553 391.897098 
L 263.409056 392.382586 
L 268.702583 391.933529 
L 273.996109 391.216796 
L 279.289635 391.293993 
L 284.583161 392.241186 
L 289.876687 393.161434 
L 295.170213 392.838636 
L 300.46374 390.967086 
L 305.757266 388.985407 
L 311.050792 388.71237 
L 316.344318 390.553295 
L 321.637844 393.256376 
L 326.931371 394.814443 
L 332.224897 394.165352 
L 337.518423 392.311046 
L 342.811949 391.142786 
L 348.105475 391.714701 
L 353.399001 393.653496 
L 358.692528 395.487784 
L 363.986054 396.066511 
L 369.27958 395.851494 
L 374.573106 396.003323 
L 379.866632 396.998991 
L 385.160158 398.454083 
L 390.453685 399.501358 
L 395.747211 399.596537 
L 401.040737 399.257148 
L 406.334263 399.423332 
L 411.627789 400.381251 
L 416.921315 401.585306 
L 422.214842 402.107059 
L 427.508368 401.402964 
L 432.801894 400.068084 
L 438.09542 399.318808 
L 443.388946 399.67981 
L 448.682472 400.684408 
L 453.975999 401.277922 
L 459.269525 400.51341 
L 464.563051 398.490764 
L 469.856577 396.5948 
L 475.150103 396.159611 
L 480.443629 397.200814 
L 485.737156 398.616749 
L 491.030682 398.962708 
L 496.324208 397.451445 
L 501.617734 394.807597 
L 506.91126 392.84855 
L 512.204787 392.911236 
L 517.498313 394.750426 
L 522.791839 396.797267 
L 528.085365 397.267839 
L 533.378891 395.563147 
L 538.672417 392.88386 
L 543.965944 391.194803 
L 549.25947 391.713371 
L 554.552996 394.032364 
L 559.846522 396.287032 
L 565.140048 396.609669 
L 570.433574 394.815962 
L 575.727101 392.546764 
L 581.020627 391.834286 
L 586.314153 393.605921 
L 591.607679 396.685481 
L 596.901205 398.326331 
L 602.194731 396.988093 
L 607.488258 394.237233 
L 612.781784 393.32715 
L 618.07531 396.172846 
L 623.368836 400.535555 
L 628.662362 401.487389 
L 633.955888 398.205129 
L 639.249415 395.850477 
L 644.542941 398.171681 
L 649.836467 401.222822 
L 655.129993 400.844131 
L 660.423519 400.198478 
L 665.717045 402.389602 
" clip-path="url(#p45c02ae6b5)" style="fill: none; stroke: #ff7f0e; stroke-width: 3; stroke-linecap: square"/>
   </g>
   <g id="line2d_27">
    <path d="M 141.657955 135.525752 
L 146.951481 135.124467 
L 152.245007 134.993323 
L 157.538533 135.336203 
L 162.832059 135.598045 
L 168.125585 135.443721 
L 173.419112 135.215722 
L 178.712638 135.377655 
L 184.006164 135.80429 
L 189.29969 136.06341 
L 194.593216 135.987029 
L 199.886742 135.817801 
L 205.180269 135.902496 
L 210.473795 136.267656 
L 215.767321 136.64144 
L 221.060847 136.795297 
L 226.354373 136.724991 
L 231.647899 136.626465 
L 236.941426 136.696485 
L 242.234952 136.934204 
L 247.528478 137.192405 
L 252.822004 137.3472 
L 258.11553 137.385895 
L 263.409056 137.398652 
L 268.702583 137.4621 
L 273.996109 137.534532 
L 279.289635 137.544299 
L 284.583161 137.496422 
L 289.876687 137.464999 
L 295.170213 137.539594 
L 300.46374 137.72658 
L 305.757266 137.893577 
L 311.050792 137.894398 
L 316.344318 137.701512 
L 321.637844 137.419997 
L 326.931371 137.231126 
L 332.224897 137.242168 
L 337.518423 137.365756 
L 342.811949 137.428089 
L 348.105475 137.329244 
L 353.399001 137.090892 
L 358.692528 136.833186 
L 363.986054 136.661627 
L 369.27958 136.554893 
L 374.573106 136.43651 
L 379.866632 136.275191 
L 385.160158 136.089371 
L 390.453685 135.932868 
L 395.747211 135.846725 
L 401.040737 135.793333 
L 406.334263 135.706932 
L 411.627789 135.589277 
L 416.921315 135.500528 
L 422.214842 135.502144 
L 427.508368 135.613214 
L 432.801894 135.77246 
L 438.09542 135.880333 
L 443.388946 135.899074 
L 448.682472 135.879019 
L 453.975999 135.913525 
L 459.269525 136.069946 
L 464.563051 136.323651 
L 469.856577 136.55722 
L 475.150103 136.668902 
L 480.443629 136.656136 
L 485.737156 136.606881 
L 491.030682 136.64678 
L 496.324208 136.840995 
L 501.617734 137.118487 
L 506.91126 137.3283 
L 512.204787 137.373388 
L 517.498313 137.273097 
L 522.791839 137.145683 
L 528.085365 137.142486 
L 533.378891 137.316298 
L 538.672417 137.556225 
L 543.965944 137.697978 
L 549.25947 137.654644 
L 554.552996 137.464657 
L 559.846522 137.275166 
L 565.140048 137.241597 
L 570.433574 137.376426 
L 575.727101 137.532538 
L 581.020627 137.545071 
L 586.314153 137.35038 
L 591.607679 137.049332 
L 596.901205 136.871019 
L 602.194731 136.943027 
L 607.488258 137.117428 
L 612.781784 137.12515 
L 618.07531 136.825215 
L 623.368836 136.398981 
L 628.662362 136.26381 
L 633.955888 136.491221 
L 639.249415 136.640832 
L 644.542941 136.421643 
L 649.836467 136.130726 
L 655.129993 136.09998 
L 660.423519 136.107002 
L 665.717045 135.928209 
" clip-path="url(#p45c02ae6b5)" style="fill: none; stroke: #2ca02c; stroke-width: 3; stroke-linecap: square"/>
   </g>
   <g id="line2d_28">
    <path d="M 141.657955 160.359456 
L 146.951481 159.696582 
L 152.245007 160.410555 
L 157.538533 161.194116 
L 162.832059 161.025982 
L 168.125585 160.113958 
L 173.419112 159.958638 
L 178.712638 160.748892 
L 184.006164 161.375901 
L 189.29969 161.242778 
L 194.593216 160.460373 
L 199.886742 159.978121 
L 205.180269 160.313184 
L 210.473795 161.01237 
L 215.767321 161.463068 
L 221.060847 161.294121 
L 226.354373 160.586352 
L 231.647899 159.942262 
L 236.941426 159.945408 
L 242.234952 160.564236 
L 247.528478 161.257798 
L 252.822004 161.521376 
L 258.11553 161.173301 
L 263.409056 160.430877 
L 268.702583 159.872859 
L 273.996109 159.914121 
L 279.289635 160.385765 
L 284.583161 160.859222 
L 289.876687 161.020474 
L 295.170213 160.834606 
L 300.46374 160.575601 
L 305.757266 160.475815 
L 311.050792 160.426591 
L 316.344318 160.263409 
L 321.637844 160.000274 
L 326.931371 159.797523 
L 332.224897 159.891633 
L 337.518423 160.319523 
L 342.811949 160.751313 
L 348.105475 160.798011 
L 353.399001 160.312027 
L 358.692528 159.53393 
L 363.986054 159.054909 
L 369.27958 159.260375 
L 374.573106 159.906032 
L 379.866632 160.477403 
L 385.160158 160.607424 
L 390.453685 160.226946 
L 395.747211 159.646095 
L 401.040737 159.38999 
L 406.334263 159.699492 
L 411.627789 160.320635 
L 416.921315 160.81705 
L 422.214842 160.901581 
L 427.508368 160.5951 
L 432.801894 160.17827 
L 438.09542 159.979284 
L 443.388946 160.16885 
L 448.682472 160.584088 
L 453.975999 160.895037 
L 459.269525 160.913937 
L 464.563051 160.70409 
L 469.856577 160.408856 
L 475.150103 160.168849 
L 480.443629 160.16116 
L 485.737156 160.364343 
L 491.030682 160.582342 
L 496.324208 160.705749 
L 501.617734 160.747751 
L 506.91126 160.654244 
L 512.204787 160.364737 
L 517.498313 160.050395 
L 522.791839 159.933015 
L 528.085365 160.067811 
L 533.378891 160.398541 
L 538.672417 160.75915 
L 543.965944 160.870849 
L 549.25947 160.533727 
L 554.552996 159.906802 
L 559.846522 159.465884 
L 565.140048 159.567382 
L 570.433574 160.132231 
L 575.727101 160.702334 
L 581.020627 160.790221 
L 586.314153 160.202633 
L 591.607679 159.359598 
L 596.901205 159.068224 
L 602.194731 159.57643 
L 607.488258 160.312699 
L 612.781784 160.495254 
L 618.07531 159.869667 
L 623.368836 159.302887 
L 628.662362 159.463755 
L 633.955888 159.866487 
L 639.249415 159.779125 
L 644.542941 159.386584 
L 649.836467 160.039071 
L 655.129993 160.746256 
L 660.423519 160.078916 
L 665.717045 158.873333 
" clip-path="url(#p45c02ae6b5)" style="fill: none; stroke: #d62728; stroke-width: 3; stroke-linecap: square"/>
   </g>
   <g id="line2d_29">
    <path d="M 141.657955 168.156782 
L 146.951481 168.398592 
L 152.245007 168.555696 
L 157.538533 168.459436 
L 162.832059 168.238904 
L 168.125585 168.30129 
L 173.419112 168.541383 
L 178.712638 168.613706 
L 184.006164 168.533572 
L 189.29969 168.402865 
L 194.593216 168.443228 
L 199.886742 168.609488 
L 205.180269 168.699277 
L 210.473795 168.702673 
L 215.767321 168.65096 
L 221.060847 168.597555 
L 226.354373 168.622453 
L 231.647899 168.703621 
L 236.941426 168.762796 
L 242.234952 168.78476 
L 247.528478 168.78112 
L 252.822004 168.760823 
L 258.11553 168.737801 
L 263.409056 168.734008 
L 268.702583 168.756138 
L 273.996109 168.786168 
L 279.289635 168.807473 
L 284.583161 168.81668 
L 289.876687 168.815215 
L 295.170213 168.803303 
L 300.46374 168.781393 
L 305.757266 168.757197 
L 311.050792 168.74717 
L 316.344318 168.758396 
L 321.637844 168.778144 
L 326.931371 168.791615 
L 332.224897 168.792387 
L 337.518423 168.776767 
L 342.811949 168.739398 
L 348.105475 168.679933 
L 353.399001 168.620384 
L 358.692528 168.598753 
L 363.986054 168.619927 
L 369.27958 168.649996 
L 374.573106 168.659474 
L 379.866632 168.632893 
L 385.160158 168.558844 
L 390.453685 168.44584 
L 395.747211 168.365041 
L 401.040737 168.395147 
L 406.334263 168.490477 
L 411.627789 168.562419 
L 416.921315 168.577211 
L 422.214842 168.530107 
L 427.508368 168.439299 
L 432.801894 168.388513 
L 438.09542 168.459347 
L 443.388946 168.583511 
L 448.682472 168.666727 
L 453.975999 168.69239 
L 459.269525 168.668983 
L 464.563051 168.611334 
L 469.856577 168.576682 
L 475.150103 168.628352 
L 480.443629 168.716886 
L 485.737156 168.772866 
L 491.030682 168.791268 
L 496.324208 168.782267 
L 501.617734 168.75033 
L 506.91126 168.716553 
L 512.204787 168.726696 
L 517.498313 168.775492 
L 522.791839 168.813603 
L 528.085365 168.828496 
L 533.378891 168.826909 
L 538.672417 168.809721 
L 543.965944 168.778608 
L 549.25947 168.760366 
L 554.552996 168.781775 
L 559.846522 168.813843 
L 565.140048 168.829066 
L 570.433574 168.826664 
L 575.727101 168.803492 
L 581.020627 168.756053 
L 586.314153 168.725614 
L 591.607679 168.756851 
L 596.901205 168.794534 
L 602.194731 168.798095 
L 607.488258 168.756054 
L 612.781784 168.666124 
L 618.07531 168.645252 
L 623.368836 168.723536 
L 628.662362 168.747214 
L 633.955888 168.667238 
L 639.249415 168.529514 
L 644.542941 168.615081 
L 649.836467 168.713787 
L 655.129993 168.638407 
L 660.423519 168.441085 
L 665.717045 168.576046 
" clip-path="url(#p45c02ae6b5)" style="fill: none; stroke: #9467bd; stroke-width: 3; stroke-linecap: square"/>
   </g>
   <g id="line2d_30">
    <path d="M 141.657955 266.340024 
L 146.951481 266.339771 
L 152.245007 266.339584 
L 157.538533 266.33977 
L 162.832059 266.339994 
L 168.125585 266.339937 
L 173.419112 266.339725 
L 178.712638 266.339725 
L 184.006164 266.339951 
L 189.29969 266.34012 
L 194.593216 266.34007 
L 199.886742 266.339906 
L 205.180269 266.339875 
L 210.473795 266.340028 
L 215.767321 266.34022 
L 221.060847 266.340281 
L 226.354373 266.340206 
L 231.647899 266.340116 
L 236.941426 266.340124 
L 242.234952 266.340213 
L 247.528478 266.340295 
L 252.822004 266.340313 
L 258.11553 266.340295 
L 263.409056 266.340317 
L 268.702583 266.340401 
L 273.996109 266.340453 
L 279.289635 266.3404 
L 284.583161 266.340275 
L 289.876687 266.34018 
L 295.170213 266.34022 
L 300.46374 266.340399 
L 305.757266 266.340575 
L 311.050792 266.340605 
L 316.344318 266.340469 
L 321.637844 266.340271 
L 326.931371 266.340164 
L 332.224897 266.340213 
L 337.518423 266.340333 
L 342.811949 266.340399 
L 348.105475 266.340356 
L 353.399001 266.340251 
L 358.692528 266.340181 
L 363.986054 266.340186 
L 369.27958 266.340193 
L 374.573106 266.340131 
L 379.866632 266.340006 
L 385.160158 266.339886 
L 390.453685 266.33985 
L 395.747211 266.339908 
L 401.040737 266.339965 
L 406.334263 266.339921 
L 411.627789 266.33978 
L 416.921315 266.339634 
L 422.214842 266.339583 
L 427.508368 266.339673 
L 432.801894 266.339823 
L 438.09542 266.339892 
L 443.388946 266.339829 
L 448.682472 266.339695 
L 453.975999 266.339608 
L 459.269525 266.339662 
L 464.563051 266.33985 
L 469.856577 266.340029 
L 475.150103 266.340075 
L 480.443629 266.339976 
L 485.737156 266.339827 
L 491.030682 266.339772 
L 496.324208 266.33988 
L 501.617734 266.340095 
L 506.91126 266.340265 
L 512.204787 266.340281 
L 517.498313 266.340147 
L 522.791839 266.33998 
L 528.085365 266.339924 
L 533.378891 266.340033 
L 538.672417 266.340222 
L 543.965944 266.340356 
L 549.25947 266.340346 
L 554.552996 266.340208 
L 559.846522 266.340057 
L 565.140048 266.34002 
L 570.433574 266.34012 
L 575.727101 266.340264 
L 581.020627 266.340321 
L 586.314153 266.340236 
L 591.607679 266.340057 
L 596.901205 266.339947 
L 602.194731 266.340016 
L 607.488258 266.340186 
L 612.781784 266.34026 
L 618.07531 266.340089 
L 623.368836 266.339776 
L 628.662362 266.339687 
L 633.955888 266.339934 
L 639.249415 266.340154 
L 644.542941 266.339989 
L 649.836467 266.339673 
L 655.129993 266.339655 
L 660.423519 266.33979 
L 665.717045 266.339708 
" clip-path="url(#p45c02ae6b5)" style="fill: none; stroke-dasharray: 11.1,4.8; stroke-dashoffset: 0; stroke: #000000; stroke-width: 3"/>
   </g>
   <g id="patch_3">
    <path d="M 115.455 419.46 
L 115.455 58.32 
" style="fill: none; stroke: #000000; stroke-width: 2; stroke-linejoin: miter; stroke-linecap: square"/>
   </g>
   <g id="patch_4">
    <path d="M 691.92 419.46 
L 691.92 58.32 
" style="fill: none; stroke: #000000; stroke-width: 2; stroke-linejoin: miter; stroke-linecap: square"/>
   </g>
   <g id="patch_5">
    <path d="M 115.455 419.46 
L 691.92 419.46 
" style="fill: none; stroke: #000000; stroke-width: 2; stroke-linejoin: miter; stroke-linecap: square"/>
   </g>
   <g id="patch_6">
    <path d="M 115.455 58.32 
L 691.92 58.32 
" style="fill: none; stroke: #000000; stroke-width: 2; stroke-linejoin: miter; stroke-linecap: square"/>
   </g>
   <g id="text_15">
    <!-- Energy Components vs. Time -->
    <g transform="translate(171.58875 51.38775) scale(0.312 -0.312)">
     <defs>
      <path id="DejaVuSerif-76" d="M 1581 0 
L 359 2988 
L -19 2988 
L -19 3322 
L 1509 3322 
L 1509 2988 
L 978 2988 
L 1913 703 
L 2847 2988 
L 2350 2988 
L 2350 3322 
L 3597 3322 
L 3597 2988 
L 3225 2988 
L 2003 0 
L 1581 0 
z
" transform="scale(0.015625)"/>
     </defs>
     <use xlink:href="#DejaVuSerif-45"/>
     <use xlink:href="#DejaVuSerif-6e" x="72.998047"/>
     <use xlink:href="#DejaVuSerif-65" x="137.402344"/>
     <use xlink:href="#DejaVuSerif-72" x="196.582031"/>
     <use xlink:href="#DejaVuSerif-67" x="244.384766"/>
     <use xlink:href="#DejaVuSerif-79" x="308.398438"/>
     <use xlink:href="#DejaVuSerif-20" x="364.892578"/>
     <use xlink:href="#DejaVuSerif-43" x="396.679688"/>
     <use xlink:href="#DejaVuSerif-6f" x="473.193359"/>
     <use xlink:href="#DejaVuSerif-6d" x="533.398438"/>
     <use xlink:href="#DejaVuSerif-70" x="628.222656"/>
     <use xlink:href="#DejaVuSerif-6f" x="692.236328"/>
     <use xlink:href="#DejaVuSerif-6e" x="752.441406"/>
     <use xlink:href="#DejaVuSerif-65" x="816.845703"/>
     <use xlink:href="#DejaVuSerif-6e" x="876.025391"/>
     <use xlink:href="#DejaVuSerif-74" x="940.429688"/>
     <use xlink:href="#DejaVuSerif-73" x="980.615234"/>
     <use xlink:href="#DejaVuSerif-20" x="1031.933594"/>
     <use xlink:href="#DejaVuSerif-76" x="1063.720703"/>
     <use xlink:href="#DejaVuSerif-73" x="1120.214844"/>
     <use xlink:href="#DejaVuSerif-2e" x="1171.533203"/>
     <use xlink:href="#DejaVuSerif-20" x="1203.320312"/>
     <use xlink:href="#DejaVuSerif-54" x="1235.107422"/>
     <use xlink:href="#DejaVuSerif-69" x="1301.806641"/>
     <use xlink:href="#DejaVuSerif-6d" x="1333.789062"/>
     <use xlink:href="#DejaVuSerif-65" x="1428.613281"/>
    </g>
   </g>
   <g id="legend_1">
    <g id="patch_7">
     <path d="M 129.455 409.46 
L 345.526875 409.46 
Q 349.526875 409.46 349.526875 405.46 
L 349.526875 231.038125 
Q 349.526875 227.038125 345.526875 227.038125 
L 129.455 227.038125 
Q 125.455 227.038125 125.455 231.038125 
L 125.455 405.46 
Q 125.455 409.46 129.455 409.46 
z
" style="fill: #ffffff; opacity: 0.8; stroke: #cccccc; stroke-linejoin: miter"/>
    </g>
    <g id="line2d_31">
     <path d="M 133.455 243.235 
L 153.455 243.235 
L 173.455 243.235 
" style="fill: none; stroke: #1f77b4; stroke-width: 3; stroke-linecap: square"/>
    </g>
    <g id="text_16">
     <!-- Kinetic E -->
     <g transform="translate(189.455 250.235) scale(0.2 -0.2)">
      <defs>
       <path id="DejaVuSerif-4b" d="M 353 0 
L 353 331 
L 947 331 
L 947 4331 
L 353 4331 
L 353 4666 
L 2175 4666 
L 2175 4331 
L 1581 4331 
L 1581 2566 
L 3591 4331 
L 3084 4331 
L 3084 4666 
L 4634 4666 
L 4634 4331 
L 4109 4331 
L 2106 2572 
L 4347 331 
L 4878 331 
L 4878 0 
L 3794 0 
L 1581 2216 
L 1581 331 
L 2175 331 
L 2175 0 
L 353 0 
z
" transform="scale(0.015625)"/>
       <path id="DejaVuSerif-63" d="M 3291 997 
Q 3169 466 2822 187 
Q 2475 -91 1925 -91 
Q 1200 -91 759 389 
Q 319 869 319 1663 
Q 319 2459 759 2936 
Q 1200 3413 1925 3413 
Q 2241 3413 2553 3339 
Q 2866 3266 3181 3116 
L 3181 2266 
L 2847 2266 
Q 2781 2703 2561 2903 
Q 2341 3103 1931 3103 
Q 1466 3103 1228 2742 
Q 991 2381 991 1663 
Q 991 944 1227 581 
Q 1463 219 1931 219 
Q 2303 219 2525 412 
Q 2747 606 2828 997 
L 3291 997 
z
" transform="scale(0.015625)"/>
      </defs>
      <use xlink:href="#DejaVuSerif-4b"/>
      <use xlink:href="#DejaVuSerif-69" x="74.707031"/>
      <use xlink:href="#DejaVuSerif-6e" x="106.689453"/>
      <use xlink:href="#DejaVuSerif-65" x="171.09375"/>
      <use xlink:href="#DejaVuSerif-74" x="230.273438"/>
      <use xlink:href="#DejaVuSerif-69" x="270.458984"/>
      <use xlink:href="#DejaVuSerif-63" x="302.441406"/>
      <use xlink:href="#DejaVuSerif-20" x="358.447266"/>
      <use xlink:href="#DejaVuSerif-45" x="390.234375"/>
     </g>
    </g>
    <g id="line2d_32">
     <path d="M 133.455 272.59125 
L 153.455 272.59125 
L 173.455 272.59125 
" style="fill: none; stroke: #ff7f0e; stroke-width: 3; stroke-linecap: square"/>
    </g>
    <g id="text_17">
     <!-- PE e-N -->
     <g transform="translate(189.455 279.59125) scale(0.2 -0.2)">
      <defs>
       <path id="DejaVuSerif-50" d="M 1581 2375 
L 2406 2375 
Q 2872 2375 3115 2626 
Q 3359 2878 3359 3353 
Q 3359 3831 3115 4081 
Q 2872 4331 2406 4331 
L 1581 4331 
L 1581 2375 
z
M 353 0 
L 353 331 
L 947 331 
L 947 4331 
L 353 4331 
L 353 4666 
L 2559 4666 
Q 3259 4666 3668 4311 
Q 4078 3956 4078 3353 
Q 4078 2753 3668 2397 
Q 3259 2041 2559 2041 
L 1581 2041 
L 1581 331 
L 2303 331 
L 2303 0 
L 353 0 
z
" transform="scale(0.015625)"/>
       <path id="DejaVuSerif-2d" d="M 281 1959 
L 1881 1959 
L 1881 1472 
L 281 1472 
L 281 1959 
z
" transform="scale(0.015625)"/>
       <path id="DejaVuSerif-4e" d="M 313 0 
L 313 331 
L 941 331 
L 941 4331 
L 313 4331 
L 313 4666 
L 1509 4666 
L 4306 984 
L 4306 4331 
L 3681 4331 
L 3681 4666 
L 5319 4666 
L 5319 4331 
L 4691 4331 
L 4691 -91 
L 4313 -91 
L 1325 3841 
L 1325 331 
L 1953 331 
L 1953 0 
L 313 0 
z
" transform="scale(0.015625)"/>
      </defs>
      <use xlink:href="#DejaVuSerif-50"/>
      <use xlink:href="#DejaVuSerif-45" x="67.285156"/>
      <use xlink:href="#DejaVuSerif-20" x="140.283203"/>
      <use xlink:href="#DejaVuSerif-65" x="172.070312"/>
      <use xlink:href="#DejaVuSerif-2d" x="231.25"/>
      <use xlink:href="#DejaVuSerif-4e" x="265.039062"/>
     </g>
    </g>
    <g id="line2d_33">
     <path d="M 133.455 301.9475 
L 153.455 301.9475 
L 173.455 301.9475 
" style="fill: none; stroke: #2ca02c; stroke-width: 3; stroke-linecap: square"/>
    </g>
    <g id="text_18">
     <!-- PE e-e -->
     <g transform="translate(189.455 308.9475) scale(0.2 -0.2)">
      <use xlink:href="#DejaVuSerif-50"/>
      <use xlink:href="#DejaVuSerif-45" x="67.285156"/>
      <use xlink:href="#DejaVuSerif-20" x="140.283203"/>
      <use xlink:href="#DejaVuSerif-65" x="172.070312"/>
      <use xlink:href="#DejaVuSerif-2d" x="231.25"/>
      <use xlink:href="#DejaVuSerif-65" x="265.039062"/>
     </g>
    </g>
    <g id="line2d_34">
     <path d="M 133.455 331.30375 
L 153.455 331.30375 
L 173.455 331.30375 
" style="fill: none; stroke: #d62728; stroke-width: 3; stroke-linecap: square"/>
    </g>
    <g id="text_19">
     <!-- PE Heisenberg -->
     <g transform="translate(189.455 338.30375) scale(0.2 -0.2)">
      <defs>
       <path id="DejaVuSerif-48" d="M 353 0 
L 353 331 
L 947 331 
L 947 4331 
L 353 4331 
L 353 4666 
L 2175 4666 
L 2175 4331 
L 1581 4331 
L 1581 2719 
L 4000 2719 
L 4000 4331 
L 3406 4331 
L 3406 4666 
L 5228 4666 
L 5228 4331 
L 4634 4331 
L 4634 331 
L 5228 331 
L 5228 0 
L 3406 0 
L 3406 331 
L 4000 331 
L 4000 2338 
L 1581 2338 
L 1581 331 
L 2175 331 
L 2175 0 
L 353 0 
z
" transform="scale(0.015625)"/>
       <path id="DejaVuSerif-62" d="M 738 331 
L 738 4531 
L 184 4531 
L 184 4863 
L 1313 4863 
L 1313 2803 
Q 1481 3116 1742 3264 
Q 2003 3413 2388 3413 
Q 3000 3413 3387 2928 
Q 3775 2444 3775 1663 
Q 3775 881 3387 395 
Q 3000 -91 2388 -91 
Q 2003 -91 1742 57 
Q 1481 206 1313 519 
L 1313 0 
L 184 0 
L 184 331 
L 738 331 
z
M 1313 1497 
Q 1313 897 1542 583 
Q 1772 269 2209 269 
Q 2650 269 2876 622 
Q 3103 975 3103 1663 
Q 3103 2353 2876 2703 
Q 2650 3053 2209 3053 
Q 1772 3053 1542 2737 
Q 1313 2422 1313 1825 
L 1313 1497 
z
" transform="scale(0.015625)"/>
      </defs>
      <use xlink:href="#DejaVuSerif-50"/>
      <use xlink:href="#DejaVuSerif-45" x="67.285156"/>
      <use xlink:href="#DejaVuSerif-20" x="140.283203"/>
      <use xlink:href="#DejaVuSerif-48" x="172.070312"/>
      <use xlink:href="#DejaVuSerif-65" x="259.277344"/>
      <use xlink:href="#DejaVuSerif-69" x="318.457031"/>
      <use xlink:href="#DejaVuSerif-73" x="350.439453"/>
      <use xlink:href="#DejaVuSerif-65" x="401.757812"/>
      <use xlink:href="#DejaVuSerif-6e" x="460.9375"/>
      <use xlink:href="#DejaVuSerif-62" x="525.341797"/>
      <use xlink:href="#DejaVuSerif-65" x="589.355469"/>
      <use xlink:href="#DejaVuSerif-72" x="648.535156"/>
      <use xlink:href="#DejaVuSerif-67" x="696.337891"/>
     </g>
    </g>
    <g id="line2d_35">
     <path d="M 133.455 360.944375 
L 153.455 360.944375 
L 173.455 360.944375 
" style="fill: none; stroke: #9467bd; stroke-width: 3; stroke-linecap: square"/>
    </g>
    <g id="text_20">
     <!-- PE Pauli -->
     <g transform="translate(189.455 367.944375) scale(0.2 -0.2)">
      <defs>
       <path id="DejaVuSerif-6c" d="M 1313 331 
L 1856 331 
L 1856 0 
L 184 0 
L 184 331 
L 738 331 
L 738 4531 
L 184 4531 
L 184 4863 
L 1313 4863 
L 1313 331 
z
" transform="scale(0.015625)"/>
      </defs>
      <use xlink:href="#DejaVuSerif-50"/>
      <use xlink:href="#DejaVuSerif-45" x="67.285156"/>
      <use xlink:href="#DejaVuSerif-20" x="140.283203"/>
      <use xlink:href="#DejaVuSerif-50" x="172.070312"/>
      <use xlink:href="#DejaVuSerif-61" x="234.855469"/>
      <use xlink:href="#DejaVuSerif-75" x="294.474609"/>
      <use xlink:href="#DejaVuSerif-6c" x="358.878906"/>
      <use xlink:href="#DejaVuSerif-69" x="390.861328"/>
     </g>
    </g>
    <g id="line2d_36">
     <path d="M 133.455 390.300625 
L 153.455 390.300625 
L 173.455 390.300625 
" style="fill: none; stroke-dasharray: 11.1,4.8; stroke-dashoffset: 0; stroke: #000000; stroke-width: 3"/>
    </g>
    <g id="text_21">
     <!-- Total E -->
     <g transform="translate(189.455 397.300625) scale(0.2 -0.2)">
      <use xlink:href="#DejaVuSerif-54"/>
      <use xlink:href="#DejaVuSerif-6f" x="58.949219"/>
      <use xlink:href="#DejaVuSerif-74" x="119.154297"/>
      <use xlink:href="#DejaVuSerif-61" x="159.339844"/>
      <use xlink:href="#DejaVuSerif-6c" x="218.958984"/>
      <use xlink:href="#DejaVuSerif-20" x="250.941406"/>
      <use xlink:href="#DejaVuSerif-45" x="282.728516"/>
     </g>
    </g>
   </g>
  </g>
 </g>
 <defs>
  <clipPath id="p45c02ae6b5">
   <rect x="115.455" y="58.32" width="576.465" height="361.14"/>
  </clipPath>
 </defs>
</svg>
