<?xml version="1.0" encoding="utf-8" standalone="no"?>
<!DOCTYPE svg PUBLIC "-//W3C//DTD SVG 1.1//EN"
  "http://www.w3.org/Graphics/SVG/1.1/DTD/svg11.dtd">
<svg xmlns:xlink="http://www.w3.org/1999/xlink" width="720pt" height="432pt" viewBox="0 0 720 432" xmlns="http://www.w3.org/2000/svg" version="1.1">
 <metadata>
  <rdf:RDF xmlns:dc="http://purl.org/dc/elements/1.1/" xmlns:cc="http://creativecommons.org/ns#" xmlns:rdf="http://www.w3.org/1999/02/22-rdf-syntax-ns#">
   <cc:Work>
    <dc:type rdf:resource="http://purl.org/dc/dcmitype/StillImage"/>
    <dc:date>2025-07-09T16:42:23.803715</dc:date>
    <dc:format>image/svg+xml</dc:format>
    <dc:creator>
     <cc:Agent>
      <dc:title>Matplotlib v3.7.2, https://matplotlib.org/</dc:title>
     </cc:Agent>
    </dc:creator>
   </cc:Work>
  </rdf:RDF>
 </metadata>
 <defs>
  <style type="text/css">*{stroke-linejoin: round; stroke-linecap: butt}</style>
 </defs>
 <g id="figure_1">
  <g id="patch_1">
   <path d="M 0 432 
L 720 432 
L 720 0 
L 0 0 
z
" style="fill: #ffffff"/>
  </g>
  <g id="axes_1">
   <g id="patch_2">
    <path d="M 90 384.48 
L 648 384.48 
L 648 51.84 
L 90 51.84 
z
" style="fill: #ffffff"/>
   </g>
   <g id="matplotlib.axis_1">
    <g id="xtick_1">
     <g id="line2d_1">
      <path d="M 109.789211 384.48 
L 109.789211 51.84 
" clip-path="url(#pbf22b4549d)" style="fill: none; stroke-dasharray: 3.7,1.6; stroke-dashoffset: 0; stroke: #b0b0b0; stroke-opacity: 0.5"/>
     </g>
     <g id="line2d_2">
      <defs>
       <path id="mf767c73445" d="M 0 0 
L 0 -10 
" style="stroke: #000000; stroke-width: 2"/>
      </defs>
      <g>
       <use xlink:href="#mf767c73445" x="109.789211" y="384.48" style="stroke: #000000; stroke-width: 2"/>
      </g>
     </g>
     <g id="line2d_3">
      <defs>
       <path id="m30fac5eaaf" d="M 0 0 
L 0 10 
" style="stroke: #000000; stroke-width: 2"/>
      </defs>
      <g>
       <use xlink:href="#m30fac5eaaf" x="109.789211" y="51.84" style="stroke: #000000; stroke-width: 2"/>
      </g>
     </g>
     <g id="text_1">
      <!-- 0 -->
      <g transform="translate(105.335461 398.617813) scale(0.14 -0.14)">
       <defs>
        <path id="DejaVuSerif-30" d="M 2034 219 
Q 2513 219 2750 744 
Q 2988 1269 2988 2328 
Q 2988 3391 2750 3916 
Q 2513 4441 2034 4441 
Q 1556 4441 1318 3916 
Q 1081 3391 1081 2328 
Q 1081 1269 1318 744 
Q 1556 219 2034 219 
z
M 2034 -91 
Q 1275 -91 848 546 
Q 422 1184 422 2328 
Q 422 3475 848 4112 
Q 1275 4750 2034 4750 
Q 2797 4750 3222 4112 
Q 3647 3475 3647 2328 
Q 3647 1184 3222 546 
Q 2797 -91 2034 -91 
z
" transform="scale(0.015625)"/>
       </defs>
       <use xlink:href="#DejaVuSerif-30"/>
      </g>
     </g>
    </g>
    <g id="xtick_2">
     <g id="line2d_4">
      <path d="M 249.14985 384.48 
L 249.14985 51.84 
" clip-path="url(#pbf22b4549d)" style="fill: none; stroke-dasharray: 3.7,1.6; stroke-dashoffset: 0; stroke: #b0b0b0; stroke-opacity: 0.5"/>
     </g>
     <g id="line2d_5">
      <g>
       <use xlink:href="#mf767c73445" x="249.14985" y="384.48" style="stroke: #000000; stroke-width: 2"/>
      </g>
     </g>
     <g id="line2d_6">
      <g>
       <use xlink:href="#m30fac5eaaf" x="249.14985" y="51.84" style="stroke: #000000; stroke-width: 2"/>
      </g>
     </g>
     <g id="text_2">
      <!-- 25 -->
      <g transform="translate(240.24235 398.617813) scale(0.14 -0.14)">
       <defs>
        <path id="DejaVuSerif-32" d="M 819 3553 
L 469 3553 
L 469 4384 
Q 803 4563 1142 4656 
Q 1481 4750 1806 4750 
Q 2534 4750 2956 4397 
Q 3378 4044 3378 3438 
Q 3378 2753 2422 1800 
Q 2347 1728 2309 1691 
L 1131 513 
L 3078 513 
L 3078 1088 
L 3444 1088 
L 3444 0 
L 434 0 
L 434 341 
L 1850 1753 
Q 2319 2222 2519 2614 
Q 2719 3006 2719 3438 
Q 2719 3909 2473 4175 
Q 2228 4441 1797 4441 
Q 1350 4441 1106 4219 
Q 863 3997 819 3553 
z
" transform="scale(0.015625)"/>
        <path id="DejaVuSerif-35" d="M 3219 4666 
L 3219 4153 
L 1081 4153 
L 1081 2816 
Q 1244 2928 1461 2984 
Q 1678 3041 1947 3041 
Q 2703 3041 3140 2622 
Q 3578 2203 3578 1478 
Q 3578 738 3136 323 
Q 2694 -91 1894 -91 
Q 1572 -91 1234 -12 
Q 897 66 544 225 
L 544 1131 
L 897 1131 
Q 925 688 1179 453 
Q 1434 219 1894 219 
Q 2388 219 2653 544 
Q 2919 869 2919 1478 
Q 2919 2084 2655 2407 
Q 2391 2731 1894 2731 
Q 1613 2731 1398 2631 
Q 1184 2531 1019 2322 
L 750 2322 
L 750 4666 
L 3219 4666 
z
" transform="scale(0.015625)"/>
       </defs>
       <use xlink:href="#DejaVuSerif-32"/>
       <use xlink:href="#DejaVuSerif-35" x="63.623047"/>
      </g>
     </g>
    </g>
    <g id="xtick_3">
     <g id="line2d_7">
      <path d="M 388.51049 384.48 
L 388.51049 51.84 
" clip-path="url(#pbf22b4549d)" style="fill: none; stroke-dasharray: 3.7,1.6; stroke-dashoffset: 0; stroke: #b0b0b0; stroke-opacity: 0.5"/>
     </g>
     <g id="line2d_8">
      <g>
       <use xlink:href="#mf767c73445" x="388.51049" y="384.48" style="stroke: #000000; stroke-width: 2"/>
      </g>
     </g>
     <g id="line2d_9">
      <g>
       <use xlink:href="#m30fac5eaaf" x="388.51049" y="51.84" style="stroke: #000000; stroke-width: 2"/>
      </g>
     </g>
     <g id="text_3">
      <!-- 50 -->
      <g transform="translate(379.60299 398.617813) scale(0.14 -0.14)">
       <use xlink:href="#DejaVuSerif-35"/>
       <use xlink:href="#DejaVuSerif-30" x="63.623047"/>
      </g>
     </g>
    </g>
    <g id="xtick_4">
     <g id="line2d_10">
      <path d="M 527.871129 384.48 
L 527.871129 51.84 
" clip-path="url(#pbf22b4549d)" style="fill: none; stroke-dasharray: 3.7,1.6; stroke-dashoffset: 0; stroke: #b0b0b0; stroke-opacity: 0.5"/>
     </g>
     <g id="line2d_11">
      <g>
       <use xlink:href="#mf767c73445" x="527.871129" y="384.48" style="stroke: #000000; stroke-width: 2"/>
      </g>
     </g>
     <g id="line2d_12">
      <g>
       <use xlink:href="#m30fac5eaaf" x="527.871129" y="51.84" style="stroke: #000000; stroke-width: 2"/>
      </g>
     </g>
     <g id="text_4">
      <!-- 75 -->
      <g transform="translate(518.963629 398.617813) scale(0.14 -0.14)">
       <defs>
        <path id="DejaVuSerif-37" d="M 3609 4347 
L 1784 0 
L 1319 0 
L 3059 4153 
L 903 4153 
L 903 3578 
L 538 3578 
L 538 4666 
L 3609 4666 
L 3609 4347 
z
" transform="scale(0.015625)"/>
       </defs>
       <use xlink:href="#DejaVuSerif-37"/>
       <use xlink:href="#DejaVuSerif-35" x="63.623047"/>
      </g>
     </g>
    </g>
    <g id="text_5">
     <!-- $Z$ -->
     <g transform="translate(362.79 419.206563) scale(0.18 -0.18)">
      <defs>
       <path id="Cmmi10-5a" d="M 372 50 
Q 372 144 416 197 
L 3938 4147 
L 2994 4147 
Q 2525 4147 2217 4036 
Q 1909 3925 1707 3667 
Q 1506 3409 1369 2963 
Q 1356 2906 1306 2906 
L 1247 2906 
Q 1184 2906 1184 2988 
L 1588 4313 
Q 1600 4372 1650 4372 
L 4569 4372 
Q 4622 4372 4622 4319 
Q 4622 4225 4581 4184 
L 1075 244 
L 2047 244 
Q 2613 244 2936 383 
Q 3259 522 3448 822 
Q 3638 1122 3816 1678 
Q 3822 1700 3839 1717 
Q 3856 1734 3878 1734 
L 3938 1734 
Q 4000 1734 4000 1650 
L 3494 56 
Q 3466 0 3431 0 
L 428 0 
Q 372 0 372 50 
z
" transform="scale(0.015625)"/>
      </defs>
      <use xlink:href="#Cmmi10-5a" transform="translate(0 0.6875)"/>
     </g>
    </g>
   </g>
   <g id="matplotlib.axis_2">
    <g id="ytick_1">
     <g id="line2d_13">
      <path d="M 90 283.536563 
L 648 283.536563 
" clip-path="url(#pbf22b4549d)" style="fill: none; stroke-dasharray: 3.7,1.6; stroke-dashoffset: 0; stroke: #b0b0b0; stroke-opacity: 0.5"/>
     </g>
     <g id="line2d_14">
      <defs>
       <path id="m770ba66169" d="M 0 0 
L 10 0 
" style="stroke: #000000; stroke-width: 2"/>
      </defs>
      <g>
       <use xlink:href="#m770ba66169" x="90" y="283.536563" style="stroke: #000000; stroke-width: 2"/>
      </g>
     </g>
     <g id="line2d_15">
      <defs>
       <path id="mb912bad5ef" d="M 0 0 
L -10 0 
" style="stroke: #000000; stroke-width: 2"/>
      </defs>
      <g>
       <use xlink:href="#mb912bad5ef" x="648" y="283.536563" style="stroke: #000000; stroke-width: 2"/>
      </g>
     </g>
     <g id="text_6">
      <!-- $\mathdefault{10^{1}}$ -->
      <g transform="translate(61.86 288.85547) scale(0.14 -0.14)">
       <defs>
        <path id="DejaVuSerif-31" d="M 909 0 
L 909 331 
L 1722 331 
L 1722 4213 
L 781 3603 
L 781 4013 
L 1919 4750 
L 2350 4750 
L 2350 331 
L 3163 331 
L 3163 0 
L 909 0 
z
" transform="scale(0.015625)"/>
       </defs>
       <use xlink:href="#DejaVuSerif-31" transform="translate(0 0.7125)"/>
       <use xlink:href="#DejaVuSerif-30" transform="translate(63.623047 0.7125)"/>
       <use xlink:href="#DejaVuSerif-31" transform="translate(128.154453 37.046875) scale(0.7)"/>
      </g>
     </g>
    </g>
    <g id="ytick_2">
     <g id="line2d_16">
      <path d="M 90 156.483492 
L 648 156.483492 
" clip-path="url(#pbf22b4549d)" style="fill: none; stroke-dasharray: 3.7,1.6; stroke-dashoffset: 0; stroke: #b0b0b0; stroke-opacity: 0.5"/>
     </g>
     <g id="line2d_17">
      <g>
       <use xlink:href="#m770ba66169" x="90" y="156.483492" style="stroke: #000000; stroke-width: 2"/>
      </g>
     </g>
     <g id="line2d_18">
      <g>
       <use xlink:href="#mb912bad5ef" x="648" y="156.483492" style="stroke: #000000; stroke-width: 2"/>
      </g>
     </g>
     <g id="text_7">
      <!-- $\mathdefault{10^{3}}$ -->
      <g transform="translate(61.86 161.802398) scale(0.14 -0.14)">
       <defs>
        <path id="DejaVuSerif-33" d="M 622 4469 
Q 988 4606 1323 4678 
Q 1659 4750 1953 4750 
Q 2638 4750 3022 4454 
Q 3406 4159 3406 3634 
Q 3406 3213 3140 2930 
Q 2875 2647 2388 2547 
Q 2963 2466 3280 2130 
Q 3597 1794 3597 1259 
Q 3597 606 3158 257 
Q 2719 -91 1894 -91 
Q 1528 -91 1179 -12 
Q 831 66 488 225 
L 488 1131 
L 838 1131 
Q 869 681 1141 450 
Q 1413 219 1906 219 
Q 2384 219 2661 495 
Q 2938 772 2938 1253 
Q 2938 1803 2653 2086 
Q 2369 2369 1819 2369 
L 1522 2369 
L 1522 2688 
L 1678 2688 
Q 2225 2688 2498 2914 
Q 2772 3141 2772 3597 
Q 2772 4006 2547 4223 
Q 2322 4441 1900 4441 
Q 1478 4441 1245 4241 
Q 1013 4041 972 3647 
L 622 3647 
L 622 4469 
z
" transform="scale(0.015625)"/>
       </defs>
       <use xlink:href="#DejaVuSerif-31" transform="translate(0 0.7125)"/>
       <use xlink:href="#DejaVuSerif-30" transform="translate(63.623047 0.7125)"/>
       <use xlink:href="#DejaVuSerif-33" transform="translate(128.154453 37.046875) scale(0.7)"/>
      </g>
     </g>
    </g>
    <g id="text_8">
     <!-- $-E_{GS}$ (a.u.) -->
     <g transform="translate(54.116563 268.02) rotate(-90) scale(0.18 -0.18)">
      <defs>
       <path id="Cmsy10-a1" d="M 653 1472 
Q 600 1472 565 1512 
Q 531 1553 531 1600 
Q 531 1647 565 1687 
Q 600 1728 653 1728 
L 4325 1728 
Q 4375 1728 4408 1687 
Q 4441 1647 4441 1600 
Q 4441 1553 4408 1512 
Q 4375 1472 4325 1472 
L 653 1472 
z
" transform="scale(0.015625)"/>
       <path id="Cmmi10-45" d="M 300 0 
Q 238 0 238 84 
Q 241 100 250 139 
Q 259 178 276 201 
Q 294 225 319 225 
Q 709 225 863 269 
Q 947 297 984 441 
L 1863 3956 
Q 1875 4019 1875 4044 
Q 1875 4113 1797 4122 
Q 1678 4147 1338 4147 
Q 1275 4147 1275 4231 
Q 1278 4247 1287 4286 
Q 1297 4325 1314 4348 
Q 1331 4372 1356 4372 
L 4825 4372 
Q 4891 4372 4891 4288 
L 4738 2963 
Q 4738 2947 4714 2926 
Q 4691 2906 4672 2906 
L 4616 2906 
Q 4550 2906 4550 2988 
Q 4588 3300 4588 3450 
Q 4588 3706 4500 3848 
Q 4413 3991 4267 4053 
Q 4122 4116 3945 4131 
Q 3769 4147 3481 4147 
L 2753 4147 
Q 2578 4147 2522 4117 
Q 2466 4088 2419 3928 
L 2034 2381 
L 2534 2381 
Q 2859 2381 3025 2426 
Q 3191 2472 3287 2615 
Q 3384 2759 3463 3072 
Q 3469 3094 3486 3111 
Q 3503 3128 3525 3128 
L 3584 3128 
Q 3647 3128 3647 3047 
L 3250 1466 
Q 3238 1409 3188 1409 
L 3128 1409 
Q 3066 1409 3066 1491 
Q 3128 1747 3128 1869 
Q 3128 2056 2959 2106 
Q 2791 2156 2509 2156 
L 1978 2156 
L 1544 416 
Q 1516 338 1516 275 
Q 1516 225 1734 225 
L 2509 225 
Q 2972 225 3259 297 
Q 3547 369 3736 526 
Q 3925 684 4062 928 
Q 4200 1172 4397 1638 
Q 4409 1678 4453 1678 
L 4513 1678 
Q 4538 1678 4556 1656 
Q 4575 1634 4575 1606 
Q 4575 1594 4569 1581 
L 3909 38 
Q 3897 0 3859 0 
L 300 0 
z
" transform="scale(0.015625)"/>
       <path id="Cmmi10-47" d="M 934 1403 
Q 934 1006 1092 707 
Q 1250 409 1547 246 
Q 1844 84 2234 84 
Q 2616 84 2959 264 
Q 3303 444 3391 781 
L 3531 1331 
Q 3534 1350 3537 1370 
Q 3541 1391 3541 1403 
Q 3541 1469 3500 1478 
Q 3341 1522 2859 1522 
Q 2797 1522 2797 1606 
Q 2816 1684 2831 1715 
Q 2847 1747 2906 1747 
L 4556 1747 
Q 4622 1747 4622 1663 
Q 4619 1647 4609 1609 
Q 4600 1572 4584 1547 
Q 4569 1522 4538 1522 
Q 4325 1522 4226 1487 
Q 4128 1453 4091 1306 
L 3950 756 
L 3769 44 
Q 3759 0 3713 0 
Q 3659 0 3559 144 
Q 3459 288 3419 384 
Q 3197 122 2825 -9 
Q 2453 -141 2059 -141 
Q 1563 -141 1164 84 
Q 766 309 545 709 
Q 325 1109 325 1613 
Q 325 2150 564 2673 
Q 803 3197 1212 3611 
Q 1622 4025 2142 4269 
Q 2663 4513 3194 4513 
Q 3406 4513 3601 4447 
Q 3797 4381 3964 4251 
Q 4131 4122 4238 3950 
L 4744 4500 
Q 4744 4513 4775 4513 
L 4813 4513 
Q 4838 4513 4855 4492 
Q 4872 4472 4872 4447 
L 4434 2719 
Q 4434 2675 4384 2675 
L 4269 2675 
Q 4219 2675 4219 2747 
Q 4244 2888 4244 3078 
Q 4244 3394 4137 3672 
Q 4031 3950 3806 4119 
Q 3581 4288 3256 4288 
Q 2741 4288 2303 4027 
Q 1866 3766 1562 3337 
Q 1259 2909 1096 2396 
Q 934 1884 934 1403 
z
" transform="scale(0.015625)"/>
       <path id="Cmmi10-53" d="M 391 -141 
Q 372 -141 356 -119 
Q 341 -97 341 -78 
L 709 1416 
Q 722 1453 763 1453 
L 838 1453 
Q 863 1453 877 1434 
Q 891 1416 891 1388 
Q 838 1169 838 997 
Q 838 534 1156 309 
Q 1475 84 1959 84 
Q 2169 84 2372 187 
Q 2575 291 2726 456 
Q 2878 622 2968 826 
Q 3059 1031 3059 1241 
Q 3059 1466 2940 1642 
Q 2822 1819 2613 1869 
L 1831 2075 
Q 1516 2159 1328 2414 
Q 1141 2669 1141 2988 
Q 1141 3372 1369 3728 
Q 1597 4084 1964 4298 
Q 2331 4513 2713 4513 
Q 3006 4513 3251 4405 
Q 3497 4297 3628 4063 
L 3994 4494 
Q 4031 4513 4038 4513 
L 4078 4513 
Q 4103 4513 4118 4491 
Q 4134 4469 4134 4447 
L 3763 2963 
Q 3753 2919 3713 2919 
L 3634 2919 
Q 3578 2919 3578 2988 
Q 3609 3191 3609 3341 
Q 3609 3638 3507 3858 
Q 3406 4078 3201 4192 
Q 2997 4306 2694 4306 
Q 2438 4306 2184 4159 
Q 1931 4013 1775 3769 
Q 1619 3525 1619 3263 
Q 1619 3056 1739 2897 
Q 1859 2738 2059 2681 
L 2841 2478 
Q 3053 2422 3211 2280 
Q 3369 2138 3450 1942 
Q 3531 1747 3531 1516 
Q 3531 1213 3403 917 
Q 3275 622 3045 378 
Q 2816 134 2525 -3 
Q 2234 -141 1931 -141 
Q 1169 -141 838 306 
L 481 -122 
Q 444 -141 434 -141 
L 391 -141 
z
" transform="scale(0.015625)"/>
       <path id="DejaVuSerif-20" transform="scale(0.015625)"/>
       <path id="DejaVuSerif-28" d="M 2041 -997 
Q 1281 -656 893 83 
Q 506 822 506 1931 
Q 506 3044 893 3783 
Q 1281 4522 2041 4863 
L 2041 4556 
Q 1559 4225 1350 3623 
Q 1141 3022 1141 1931 
Q 1141 844 1350 242 
Q 1559 -359 2041 -691 
L 2041 -997 
z
" transform="scale(0.015625)"/>
       <path id="DejaVuSerif-61" d="M 2547 1044 
L 2547 1747 
L 1806 1747 
Q 1378 1747 1168 1562 
Q 959 1378 959 997 
Q 959 650 1171 447 
Q 1384 244 1747 244 
Q 2106 244 2326 466 
Q 2547 688 2547 1044 
z
M 3122 2075 
L 3122 331 
L 3634 331 
L 3634 0 
L 2547 0 
L 2547 359 
Q 2356 128 2106 18 
Q 1856 -91 1522 -91 
Q 969 -91 644 203 
Q 319 497 319 997 
Q 319 1513 691 1797 
Q 1063 2081 1741 2081 
L 2547 2081 
L 2547 2309 
Q 2547 2688 2317 2895 
Q 2088 3103 1672 3103 
Q 1328 3103 1125 2947 
Q 922 2791 872 2484 
L 575 2484 
L 575 3156 
Q 875 3284 1158 3348 
Q 1441 3413 1709 3413 
Q 2400 3413 2761 3070 
Q 3122 2728 3122 2075 
z
" transform="scale(0.015625)"/>
       <path id="DejaVuSerif-2e" d="M 603 325 
Q 603 500 722 622 
Q 841 744 1019 744 
Q 1191 744 1312 622 
Q 1434 500 1434 325 
Q 1434 153 1312 31 
Q 1191 -91 1019 -91 
Q 841 -91 722 29 
Q 603 150 603 325 
z
" transform="scale(0.015625)"/>
       <path id="DejaVuSerif-75" d="M 2266 3322 
L 3341 3322 
L 3341 331 
L 3884 331 
L 3884 0 
L 2766 0 
L 2766 588 
Q 2606 256 2353 82 
Q 2100 -91 1766 -91 
Q 1213 -91 952 223 
Q 691 538 691 1209 
L 691 2988 
L 172 2988 
L 172 3322 
L 1269 3322 
L 1269 1388 
Q 1269 781 1417 556 
Q 1566 331 1947 331 
Q 2347 331 2556 625 
Q 2766 919 2766 1478 
L 2766 2988 
L 2266 2988 
L 2266 3322 
z
" transform="scale(0.015625)"/>
       <path id="DejaVuSerif-29" d="M 453 -997 
L 453 -691 
Q 934 -359 1145 242 
Q 1356 844 1356 1931 
Q 1356 3022 1145 3623 
Q 934 4225 453 4556 
L 453 4863 
Q 1216 4522 1603 3783 
Q 1991 3044 1991 1931 
Q 1991 822 1603 83 
Q 1216 -656 453 -997 
z
" transform="scale(0.015625)"/>
      </defs>
      <use xlink:href="#Cmsy10-a1" transform="translate(0 0.015625)"/>
      <use xlink:href="#Cmmi10-45" transform="translate(77.685547 0.015625)"/>
      <use xlink:href="#Cmmi10-47" transform="translate(151.464844 -16.990625) scale(0.7)"/>
      <use xlink:href="#Cmmi10-53" transform="translate(206.494141 -16.990625) scale(0.7)"/>
      <use xlink:href="#DejaVuSerif-20" transform="translate(255.766992 0.015625)"/>
      <use xlink:href="#DejaVuSerif-28" transform="translate(287.554102 0.015625)"/>
      <use xlink:href="#DejaVuSerif-61" transform="translate(326.567773 0.015625)"/>
      <use xlink:href="#DejaVuSerif-2e" transform="translate(386.186914 0.015625)"/>
      <use xlink:href="#DejaVuSerif-75" transform="translate(417.974023 0.015625)"/>
      <use xlink:href="#DejaVuSerif-2e" transform="translate(482.37832 0.015625)"/>
      <use xlink:href="#DejaVuSerif-29" transform="translate(514.16543 0.015625)"/>
     </g>
    </g>
   </g>
   <g id="line2d_19">
    <defs>
     <path id="m08267352df" d="M 0 2.5 
C 0.663008 2.5 1.29895 2.236584 1.767767 1.767767 
C 2.236584 1.29895 2.5 0.663008 2.5 0 
C 2.5 -0.663008 2.236584 -1.29895 1.767767 -1.767767 
C 1.29895 -2.236584 0.663008 -2.5 0 -2.5 
C -0.663008 -2.5 -1.29895 -2.236584 -1.767767 -1.767767 
C -2.236584 -1.29895 -2.5 -0.663008 -2.5 0 
C -2.5 0.663008 -2.236584 1.29895 -1.767767 1.767767 
C -1.29895 2.236584 -0.663008 2.5 0 2.5 
z
" style="stroke: #ffa500"/>
    </defs>
    <g clip-path="url(#pbf22b4549d)">
     <use xlink:href="#m08267352df" x="115.363636" y="369.36" style="fill: #ffa500; stroke: #ffa500"/>
     <use xlink:href="#m08267352df" x="120.938062" y="318.315567" style="fill: #ffa500; stroke: #ffa500"/>
     <use xlink:href="#m08267352df" x="126.512488" y="292.086494" style="fill: #ffa500; stroke: #ffa500"/>
     <use xlink:href="#m08267352df" x="132.086913" y="273.386042" style="fill: #ffa500; stroke: #ffa500"/>
     <use xlink:href="#m08267352df" x="137.661339" y="258.990198" style="fill: #ffa500; stroke: #ffa500"/>
     <use xlink:href="#m08267352df" x="143.235764" y="247.125027" style="fill: #ffa500; stroke: #ffa500"/>
     <use xlink:href="#m08267352df" x="148.81019" y="236.997347" style="fill: #ffa500; stroke: #ffa500"/>
     <use xlink:href="#m08267352df" x="154.384615" y="228.141469" style="fill: #ffa500; stroke: #ffa500"/>
     <use xlink:href="#m08267352df" x="159.959041" y="220.259553" style="fill: #ffa500; stroke: #ffa500"/>
     <use xlink:href="#m08267352df" x="165.533467" y="213.149071" style="fill: #ffa500; stroke: #ffa500"/>
     <use xlink:href="#m08267352df" x="171.107892" y="206.79579" style="fill: #ffa500; stroke: #ffa500"/>
     <use xlink:href="#m08267352df" x="176.682318" y="201.005607" style="fill: #ffa500; stroke: #ffa500"/>
     <use xlink:href="#m08267352df" x="182.256743" y="195.705706" style="fill: #ffa500; stroke: #ffa500"/>
     <use xlink:href="#m08267352df" x="187.831169" y="190.807415" style="fill: #ffa500; stroke: #ffa500"/>
     <use xlink:href="#m08267352df" x="193.405594" y="186.251378" style="fill: #ffa500; stroke: #ffa500"/>
     <use xlink:href="#m08267352df" x="198.98002" y="181.990679" style="fill: #ffa500; stroke: #ffa500"/>
     <use xlink:href="#m08267352df" x="204.554446" y="177.987553" style="fill: #ffa500; stroke: #ffa500"/>
     <use xlink:href="#m08267352df" x="210.128871" y="174.211123" style="fill: #ffa500; stroke: #ffa500"/>
     <use xlink:href="#m08267352df" x="215.703297" y="170.659639" style="fill: #ffa500; stroke: #ffa500"/>
     <use xlink:href="#m08267352df" x="221.277722" y="167.296909" style="fill: #ffa500; stroke: #ffa500"/>
     <use xlink:href="#m08267352df" x="226.852148" y="164.102978" style="fill: #ffa500; stroke: #ffa500"/>
     <use xlink:href="#m08267352df" x="232.426573" y="161.055781" style="fill: #ffa500; stroke: #ffa500"/>
     <use xlink:href="#m08267352df" x="238.000999" y="158.141354" style="fill: #ffa500; stroke: #ffa500"/>
     <use xlink:href="#m08267352df" x="243.575425" y="155.347617" style="fill: #ffa500; stroke: #ffa500"/>
     <use xlink:href="#m08267352df" x="249.14985" y="152.664794" style="fill: #ffa500; stroke: #ffa500"/>
     <use xlink:href="#m08267352df" x="254.724276" y="150.083376" style="fill: #ffa500; stroke: #ffa500"/>
     <use xlink:href="#m08267352df" x="260.298701" y="147.595634" style="fill: #ffa500; stroke: #ffa500"/>
     <use xlink:href="#m08267352df" x="265.873127" y="145.194579" style="fill: #ffa500; stroke: #ffa500"/>
     <use xlink:href="#m08267352df" x="271.447552" y="142.87248" style="fill: #ffa500; stroke: #ffa500"/>
     <use xlink:href="#m08267352df" x="277.021978" y="140.628332" style="fill: #ffa500; stroke: #ffa500"/>
     <use xlink:href="#m08267352df" x="282.596404" y="138.459827" style="fill: #ffa500; stroke: #ffa500"/>
     <use xlink:href="#m08267352df" x="288.170829" y="136.360293" style="fill: #ffa500; stroke: #ffa500"/>
     <use xlink:href="#m08267352df" x="293.745255" y="134.325546" style="fill: #ffa500; stroke: #ffa500"/>
     <use xlink:href="#m08267352df" x="299.31968" y="132.351707" style="fill: #ffa500; stroke: #ffa500"/>
     <use xlink:href="#m08267352df" x="304.894106" y="130.435198" style="fill: #ffa500; stroke: #ffa500"/>
     <use xlink:href="#m08267352df" x="310.468531" y="128.572724" style="fill: #ffa500; stroke: #ffa500"/>
     <use xlink:href="#m08267352df" x="316.042957" y="126.765401" style="fill: #ffa500; stroke: #ffa500"/>
     <use xlink:href="#m08267352df" x="321.617383" y="125.008097" style="fill: #ffa500; stroke: #ffa500"/>
     <use xlink:href="#m08267352df" x="327.191808" y="123.298392" style="fill: #ffa500; stroke: #ffa500"/>
     <use xlink:href="#m08267352df" x="332.766234" y="121.632653" style="fill: #ffa500; stroke: #ffa500"/>
     <use xlink:href="#m08267352df" x="338.340659" y="120.008475" style="fill: #ffa500; stroke: #ffa500"/>
     <use xlink:href="#m08267352df" x="343.915085" y="118.423473" style="fill: #ffa500; stroke: #ffa500"/>
     <use xlink:href="#m08267352df" x="349.48951" y="116.876249" style="fill: #ffa500; stroke: #ffa500"/>
     <use xlink:href="#m08267352df" x="355.063936" y="115.363826" style="fill: #ffa500; stroke: #ffa500"/>
     <use xlink:href="#m08267352df" x="360.638362" y="113.885642" style="fill: #ffa500; stroke: #ffa500"/>
     <use xlink:href="#m08267352df" x="366.212787" y="112.439301" style="fill: #ffa500; stroke: #ffa500"/>
     <use xlink:href="#m08267352df" x="371.787213" y="111.024655" style="fill: #ffa500; stroke: #ffa500"/>
     <use xlink:href="#m08267352df" x="377.361638" y="109.640118" style="fill: #ffa500; stroke: #ffa500"/>
     <use xlink:href="#m08267352df" x="382.936064" y="108.285385" style="fill: #ffa500; stroke: #ffa500"/>
     <use xlink:href="#m08267352df" x="388.51049" y="106.958641" style="fill: #ffa500; stroke: #ffa500"/>
     <use xlink:href="#m08267352df" x="394.084915" y="105.658753" style="fill: #ffa500; stroke: #ffa500"/>
     <use xlink:href="#m08267352df" x="399.659341" y="104.384648" style="fill: #ffa500; stroke: #ffa500"/>
     <use xlink:href="#m08267352df" x="405.233766" y="103.135309" style="fill: #ffa500; stroke: #ffa500"/>
     <use xlink:href="#m08267352df" x="410.808192" y="101.909778" style="fill: #ffa500; stroke: #ffa500"/>
     <use xlink:href="#m08267352df" x="416.382617" y="100.708526" style="fill: #ffa500; stroke: #ffa500"/>
     <use xlink:href="#m08267352df" x="421.957043" y="99.529897" style="fill: #ffa500; stroke: #ffa500"/>
     <use xlink:href="#m08267352df" x="427.531469" y="98.372994" style="fill: #ffa500; stroke: #ffa500"/>
     <use xlink:href="#m08267352df" x="433.105894" y="97.235836" style="fill: #ffa500; stroke: #ffa500"/>
     <use xlink:href="#m08267352df" x="438.68032" y="96.11733" style="fill: #ffa500; stroke: #ffa500"/>
     <use xlink:href="#m08267352df" x="444.254745" y="95.017596" style="fill: #ffa500; stroke: #ffa500"/>
     <use xlink:href="#m08267352df" x="449.829171" y="93.93564" style="fill: #ffa500; stroke: #ffa500"/>
     <use xlink:href="#m08267352df" x="455.403596" y="92.870849" style="fill: #ffa500; stroke: #ffa500"/>
     <use xlink:href="#m08267352df" x="460.978022" y="91.822648" style="fill: #ffa500; stroke: #ffa500"/>
     <use xlink:href="#m08267352df" x="466.552448" y="90.79115" style="fill: #ffa500; stroke: #ffa500"/>
     <use xlink:href="#m08267352df" x="472.126873" y="89.77385" style="fill: #ffa500; stroke: #ffa500"/>
     <use xlink:href="#m08267352df" x="477.701299" y="88.772242" style="fill: #ffa500; stroke: #ffa500"/>
     <use xlink:href="#m08267352df" x="483.275724" y="87.785193" style="fill: #ffa500; stroke: #ffa500"/>
     <use xlink:href="#m08267352df" x="488.85015" y="86.812259" style="fill: #ffa500; stroke: #ffa500"/>
     <use xlink:href="#m08267352df" x="494.424575" y="85.853012" style="fill: #ffa500; stroke: #ffa500"/>
     <use xlink:href="#m08267352df" x="499.999001" y="84.907046" style="fill: #ffa500; stroke: #ffa500"/>
     <use xlink:href="#m08267352df" x="505.573427" y="83.974667" style="fill: #ffa500; stroke: #ffa500"/>
     <use xlink:href="#m08267352df" x="511.147852" y="83.055266" style="fill: #ffa500; stroke: #ffa500"/>
     <use xlink:href="#m08267352df" x="516.722278" y="82.148493" style="fill: #ffa500; stroke: #ffa500"/>
     <use xlink:href="#m08267352df" x="522.296703" y="81.254011" style="fill: #ffa500; stroke: #ffa500"/>
     <use xlink:href="#m08267352df" x="527.871129" y="80.371492" style="fill: #ffa500; stroke: #ffa500"/>
     <use xlink:href="#m08267352df" x="533.445554" y="79.500619" style="fill: #ffa500; stroke: #ffa500"/>
     <use xlink:href="#m08267352df" x="539.01998" y="78.641083" style="fill: #ffa500; stroke: #ffa500"/>
     <use xlink:href="#m08267352df" x="544.594406" y="77.792362" style="fill: #ffa500; stroke: #ffa500"/>
     <use xlink:href="#m08267352df" x="550.168831" y="76.954578" style="fill: #ffa500; stroke: #ffa500"/>
     <use xlink:href="#m08267352df" x="555.743257" y="76.127589" style="fill: #ffa500; stroke: #ffa500"/>
     <use xlink:href="#m08267352df" x="561.317682" y="75.311277" style="fill: #ffa500; stroke: #ffa500"/>
     <use xlink:href="#m08267352df" x="566.892108" y="74.505203" style="fill: #ffa500; stroke: #ffa500"/>
     <use xlink:href="#m08267352df" x="572.466533" y="73.709121" style="fill: #ffa500; stroke: #ffa500"/>
     <use xlink:href="#m08267352df" x="578.040959" y="72.922791" style="fill: #ffa500; stroke: #ffa500"/>
     <use xlink:href="#m08267352df" x="583.615385" y="72.145979" style="fill: #ffa500; stroke: #ffa500"/>
     <use xlink:href="#m08267352df" x="589.18981" y="71.378459" style="fill: #ffa500; stroke: #ffa500"/>
     <use xlink:href="#m08267352df" x="594.764236" y="70.620439" style="fill: #ffa500; stroke: #ffa500"/>
     <use xlink:href="#m08267352df" x="600.338661" y="69.87146" style="fill: #ffa500; stroke: #ffa500"/>
     <use xlink:href="#m08267352df" x="605.913087" y="69.131295" style="fill: #ffa500; stroke: #ffa500"/>
     <use xlink:href="#m08267352df" x="611.487512" y="68.399674" style="fill: #ffa500; stroke: #ffa500"/>
     <use xlink:href="#m08267352df" x="617.061938" y="67.675781" style="fill: #ffa500; stroke: #ffa500"/>
     <use xlink:href="#m08267352df" x="622.636364" y="66.96" style="fill: #ffa500; stroke: #ffa500"/>
    </g>
   </g>
   <g id="line2d_20">
    <defs>
     <path id="mb2985628ec" d="M 0 2.5 
C 0.663008 2.5 1.29895 2.236584 1.767767 1.767767 
C 2.236584 1.29895 2.5 0.663008 2.5 0 
C 2.5 -0.663008 2.236584 -1.29895 1.767767 -1.767767 
C 1.29895 -2.236584 0.663008 -2.5 0 -2.5 
C -0.663008 -2.5 -1.29895 -2.236584 -1.767767 -1.767767 
C -2.236584 -1.29895 -2.5 -0.663008 -2.5 0 
C -2.5 0.663008 -2.236584 1.29895 -1.767767 1.767767 
C -1.29895 2.236584 -0.663008 2.5 0 2.5 
z
" style="stroke: #00008b"/>
    </defs>
    <g clip-path="url(#pbf22b4549d)">
     <use xlink:href="#mb2985628ec" x="115.363636" y="368.60714" style="fill-opacity: 0; stroke: #00008b"/>
     <use xlink:href="#mb2985628ec" x="120.938062" y="318.587812" style="fill-opacity: 0; stroke: #00008b"/>
     <use xlink:href="#mb2985628ec" x="126.512488" y="296.917211" style="fill-opacity: 0; stroke: #00008b"/>
     <use xlink:href="#mb2985628ec" x="132.086913" y="278.98652" style="fill-opacity: 0; stroke: #00008b"/>
     <use xlink:href="#mb2985628ec" x="137.661339" y="259.34056" style="fill-opacity: 0; stroke: #00008b"/>
     <use xlink:href="#mb2985628ec" x="143.235764" y="247.797155" style="fill-opacity: 0; stroke: #00008b"/>
     <use xlink:href="#mb2985628ec" x="148.81019" y="238.086391" style="fill-opacity: 0; stroke: #00008b"/>
     <use xlink:href="#mb2985628ec" x="154.384615" y="229.66853" style="fill-opacity: 0; stroke: #00008b"/>
     <use xlink:href="#mb2985628ec" x="159.959041" y="222.320959" style="fill-opacity: 0; stroke: #00008b"/>
     <use xlink:href="#mb2985628ec" x="165.533467" y="215.762964" style="fill-opacity: 0; stroke: #00008b"/>
     <use xlink:href="#mb2985628ec" x="171.107892" y="210.844326" style="fill-opacity: 0; stroke: #00008b"/>
     <use xlink:href="#mb2985628ec" x="176.682318" y="204.9966" style="fill-opacity: 0; stroke: #00008b"/>
     <use xlink:href="#mb2985628ec" x="182.256743" y="199.586441" style="fill-opacity: 0; stroke: #00008b"/>
     <use xlink:href="#mb2985628ec" x="187.831169" y="195.017593" style="fill-opacity: 0; stroke: #00008b"/>
     <use xlink:href="#mb2985628ec" x="193.405594" y="190.780375" style="fill-opacity: 0; stroke: #00008b"/>
    </g>
   </g>
   <g id="patch_3">
    <path d="M 90 384.48 
L 90 51.84 
" style="fill: none; stroke: #000000; stroke-width: 2; stroke-linejoin: miter; stroke-linecap: square"/>
   </g>
   <g id="patch_4">
    <path d="M 648 384.48 
L 648 51.84 
" style="fill: none; stroke: #000000; stroke-width: 2; stroke-linejoin: miter; stroke-linecap: square"/>
   </g>
   <g id="patch_5">
    <path d="M 90 384.48 
L 648 384.48 
" style="fill: none; stroke: #000000; stroke-width: 2; stroke-linejoin: miter; stroke-linecap: square"/>
   </g>
   <g id="patch_6">
    <path d="M 90 51.84 
L 648 51.84 
" style="fill: none; stroke: #000000; stroke-width: 2; stroke-linejoin: miter; stroke-linecap: square"/>
   </g>
   <g id="legend_1">
    <g id="patch_7">
     <path d="M 97 89.19625 
L 179.192187 89.19625 
Q 181.192187 89.19625 181.192187 87.19625 
L 181.192187 58.84 
Q 181.192187 56.84 179.192187 56.84 
L 97 56.84 
Q 95 56.84 95 58.84 
L 95 87.19625 
Q 95 89.19625 97 89.19625 
z
" style="fill: #ffffff; opacity: 0.8; stroke: #cccccc; stroke-linejoin: miter"/>
    </g>
    <g id="line2d_21">
     <g>
      <use xlink:href="#m08267352df" x="109" y="64.938437" style="fill: #ffa500; stroke: #ffa500"/>
     </g>
    </g>
    <g id="text_9">
     <!-- NIST-LDA -->
     <g transform="translate(127 68.438437) scale(0.1 -0.1)">
      <defs>
       <path id="DejaVuSerif-4e" d="M 313 0 
L 313 331 
L 941 331 
L 941 4331 
L 313 4331 
L 313 4666 
L 1509 4666 
L 4306 984 
L 4306 4331 
L 3681 4331 
L 3681 4666 
L 5319 4666 
L 5319 4331 
L 4691 4331 
L 4691 -91 
L 4313 -91 
L 1325 3841 
L 1325 331 
L 1953 331 
L 1953 0 
L 313 0 
z
" transform="scale(0.015625)"/>
       <path id="DejaVuSerif-49" d="M 1581 331 
L 2175 331 
L 2175 0 
L 353 0 
L 353 331 
L 947 331 
L 947 4331 
L 353 4331 
L 353 4666 
L 2175 4666 
L 2175 4331 
L 1581 4331 
L 1581 331 
z
" transform="scale(0.015625)"/>
       <path id="DejaVuSerif-53" d="M 594 225 
L 594 1288 
L 953 1284 
Q 969 753 1261 498 
Q 1553 244 2150 244 
Q 2706 244 2998 464 
Q 3291 684 3291 1106 
Q 3291 1444 3114 1625 
Q 2938 1806 2369 1978 
L 1753 2163 
Q 1084 2366 811 2669 
Q 538 2972 538 3500 
Q 538 4094 959 4422 
Q 1381 4750 2144 4750 
Q 2469 4750 2856 4679 
Q 3244 4609 3681 4475 
L 3681 3481 
L 3328 3481 
Q 3275 3975 2998 4195 
Q 2722 4416 2156 4416 
Q 1663 4416 1405 4214 
Q 1147 4013 1147 3628 
Q 1147 3294 1340 3103 
Q 1534 2913 2163 2725 
L 2741 2553 
Q 3375 2363 3645 2067 
Q 3916 1772 3916 1275 
Q 3916 597 3481 253 
Q 3047 -91 2188 -91 
Q 1803 -91 1404 -12 
Q 1006 66 594 225 
z
" transform="scale(0.015625)"/>
       <path id="DejaVuSerif-54" d="M 1222 0 
L 1222 331 
L 1819 331 
L 1819 4294 
L 447 4294 
L 447 3566 
L 63 3566 
L 63 4666 
L 4206 4666 
L 4206 3566 
L 3822 3566 
L 3822 4294 
L 2450 4294 
L 2450 331 
L 3047 331 
L 3047 0 
L 1222 0 
z
" transform="scale(0.015625)"/>
       <path id="DejaVuSerif-2d" d="M 281 1959 
L 1881 1959 
L 1881 1472 
L 281 1472 
L 281 1959 
z
" transform="scale(0.015625)"/>
       <path id="DejaVuSerif-4c" d="M 353 0 
L 353 331 
L 947 331 
L 947 4331 
L 353 4331 
L 353 4666 
L 2175 4666 
L 2175 4331 
L 1581 4331 
L 1581 384 
L 3713 384 
L 3713 1166 
L 4097 1166 
L 4097 0 
L 353 0 
z
" transform="scale(0.015625)"/>
       <path id="DejaVuSerif-44" d="M 1581 331 
L 2163 331 
Q 3072 331 3558 850 
Q 4044 1369 4044 2338 
Q 4044 3306 3559 3818 
Q 3075 4331 2163 4331 
L 1581 4331 
L 1581 331 
z
M 353 0 
L 353 331 
L 947 331 
L 947 4331 
L 353 4331 
L 353 4666 
L 2209 4666 
Q 3416 4666 4089 4050 
Q 4763 3434 4763 2338 
Q 4763 1238 4088 619 
Q 3413 0 2209 0 
L 353 0 
z
" transform="scale(0.015625)"/>
       <path id="DejaVuSerif-41" d="M 1281 1691 
L 2994 1691 
L 2138 3909 
L 1281 1691 
z
M -38 0 
L -38 331 
L 372 331 
L 2034 4666 
L 2559 4666 
L 4225 331 
L 4684 331 
L 4684 0 
L 2988 0 
L 2988 331 
L 3506 331 
L 3116 1356 
L 1153 1356 
L 763 331 
L 1275 331 
L 1275 0 
L -38 0 
z
" transform="scale(0.015625)"/>
      </defs>
      <use xlink:href="#DejaVuSerif-4e"/>
      <use xlink:href="#DejaVuSerif-49" x="87.5"/>
      <use xlink:href="#DejaVuSerif-53" x="127.001953"/>
      <use xlink:href="#DejaVuSerif-54" x="195.507812"/>
      <use xlink:href="#DejaVuSerif-2d" x="249.332031"/>
      <use xlink:href="#DejaVuSerif-4c" x="283.121094"/>
      <use xlink:href="#DejaVuSerif-44" x="349.527344"/>
      <use xlink:href="#DejaVuSerif-41" x="429.703125"/>
     </g>
    </g>
    <g id="line2d_22">
     <g>
      <use xlink:href="#mb2985628ec" x="109" y="79.616562" style="fill-opacity: 0; stroke: #00008b"/>
     </g>
    </g>
    <g id="text_10">
     <!-- BFGS -->
     <g transform="translate(127 83.116562) scale(0.1 -0.1)">
      <defs>
       <path id="DejaVuSerif-42" d="M 1581 331 
L 2516 331 
Q 3078 331 3337 575 
Q 3597 819 3597 1350 
Q 3597 1878 3339 2120 
Q 3081 2363 2516 2363 
L 1581 2363 
L 1581 331 
z
M 1581 2694 
L 2375 2694 
Q 2888 2694 3123 2891 
Q 3359 3088 3359 3513 
Q 3359 3941 3123 4136 
Q 2888 4331 2375 4331 
L 1581 4331 
L 1581 2694 
z
M 353 0 
L 353 331 
L 947 331 
L 947 4331 
L 353 4331 
L 353 4666 
L 2656 4666 
Q 3363 4666 3720 4377 
Q 4078 4088 4078 3513 
Q 4078 3097 3829 2850 
Q 3581 2603 3103 2547 
Q 3697 2472 4005 2167 
Q 4313 1863 4313 1350 
Q 4313 656 3875 328 
Q 3438 0 2509 0 
L 353 0 
z
" transform="scale(0.015625)"/>
       <path id="DejaVuSerif-46" d="M 353 0 
L 353 331 
L 947 331 
L 947 4331 
L 353 4331 
L 353 4666 
L 4172 4666 
L 4172 3628 
L 3788 3628 
L 3788 4281 
L 1581 4281 
L 1581 2719 
L 3175 2719 
L 3175 3303 
L 3559 3303 
L 3559 1753 
L 3175 1753 
L 3175 2338 
L 1581 2338 
L 1581 331 
L 2328 331 
L 2328 0 
L 353 0 
z
" transform="scale(0.015625)"/>
       <path id="DejaVuSerif-47" d="M 4097 3272 
Q 3988 3856 3641 4136 
Q 3294 4416 2675 4416 
Q 1869 4416 1472 3897 
Q 1075 3378 1075 2328 
Q 1075 1300 1484 772 
Q 1894 244 2688 244 
Q 3041 244 3362 331 
Q 3684 419 3975 594 
L 3975 1797 
L 3097 1797 
L 3097 2131 
L 4609 2131 
L 4609 391 
Q 4194 150 3714 29 
Q 3234 -91 2688 -91 
Q 1631 -91 995 570 
Q 359 1231 359 2328 
Q 359 3434 996 4092 
Q 1634 4750 2713 4750 
Q 3113 4750 3539 4658 
Q 3966 4566 4447 4378 
L 4447 3272 
L 4097 3272 
z
" transform="scale(0.015625)"/>
      </defs>
      <use xlink:href="#DejaVuSerif-42"/>
      <use xlink:href="#DejaVuSerif-46" x="73.486328"/>
      <use xlink:href="#DejaVuSerif-47" x="142.871094"/>
      <use xlink:href="#DejaVuSerif-53" x="222.753906"/>
     </g>
    </g>
   </g>
  </g>
 </g>
 <defs>
  <clipPath id="pbf22b4549d">
   <rect x="90" y="51.84" width="558" height="332.64"/>
  </clipPath>
 </defs>
</svg>
