<?xml version="1.0" encoding="utf-8" standalone="no"?>
<!DOCTYPE svg PUBLIC "-//W3C//DTD SVG 1.1//EN"
  "http://www.w3.org/Graphics/SVG/1.1/DTD/svg11.dtd">
<svg xmlns:xlink="http://www.w3.org/1999/xlink" width="864pt" height="576pt" viewBox="0 0 864 576" xmlns="http://www.w3.org/2000/svg" version="1.1">
 <metadata>
  <rdf:RDF xmlns:dc="http://purl.org/dc/elements/1.1/" xmlns:cc="http://creativecommons.org/ns#" xmlns:rdf="http://www.w3.org/1999/02/22-rdf-syntax-ns#">
   <cc:Work>
    <dc:type rdf:resource="http://purl.org/dc/dcmitype/StillImage"/>
    <dc:date>2025-06-09T14:00:41.239693</dc:date>
    <dc:format>image/svg+xml</dc:format>
    <dc:creator>
     <cc:Agent>
      <dc:title>Matplotlib v3.7.2, https://matplotlib.org/</dc:title>
     </cc:Agent>
    </dc:creator>
   </cc:Work>
  </rdf:RDF>
 </metadata>
 <defs>
  <style type="text/css">*{stroke-linejoin: round; stroke-linecap: butt}</style>
 </defs>
 <g id="figure_1">
  <g id="patch_1">
   <path d="M 0 576 
L 864 576 
L 864 0 
L 0 0 
z
" style="fill: #ffffff"/>
  </g>
  <g id="axes_1">
   <g id="patch_2">
    <path d="M 166.163625 489.2325 
L 833.191364 489.2325 
L 833.191364 28.08 
L 166.163625 28.08 
z
" style="fill: #ffffff"/>
   </g>
   <g id="matplotlib.axis_1">
    <g id="xtick_1">
     <g id="line2d_1">
      <path d="M 196.483068 489.2325 
L 196.483068 28.08 
" clip-path="url(#pf5d8d1b1c0)" style="fill: none; stroke-dasharray: 3.7,1.6; stroke-dashoffset: 0; stroke: #b0b0b0; stroke-opacity: 0.5"/>
     </g>
     <g id="line2d_2">
      <defs>
       <path id="m26cc170cf6" d="M 0 0 
L 0 -10 
" style="stroke: #000000; stroke-width: 2"/>
      </defs>
      <g>
       <use xlink:href="#m26cc170cf6" x="196.483068" y="489.2325" style="stroke: #000000; stroke-width: 2"/>
      </g>
     </g>
     <g id="line2d_3">
      <defs>
       <path id="mb221f1cf26" d="M 0 0 
L 0 10 
" style="stroke: #000000; stroke-width: 2"/>
      </defs>
      <g>
       <use xlink:href="#mb221f1cf26" x="196.483068" y="28.08" style="stroke: #000000; stroke-width: 2"/>
      </g>
     </g>
     <g id="text_1">
      <!-- 0 -->
      <g transform="translate(188.211818 512.488438) scale(0.26 -0.26)">
       <defs>
        <path id="DejaVuSerif-30" d="M 2034 219 
Q 2513 219 2750 744 
Q 2988 1269 2988 2328 
Q 2988 3391 2750 3916 
Q 2513 4441 2034 4441 
Q 1556 4441 1318 3916 
Q 1081 3391 1081 2328 
Q 1081 1269 1318 744 
Q 1556 219 2034 219 
z
M 2034 -91 
Q 1275 -91 848 546 
Q 422 1184 422 2328 
Q 422 3475 848 4112 
Q 1275 4750 2034 4750 
Q 2797 4750 3222 4112 
Q 3647 3475 3647 2328 
Q 3647 1184 3222 546 
Q 2797 -91 2034 -91 
z
" transform="scale(0.015625)"/>
       </defs>
       <use xlink:href="#DejaVuSerif-30"/>
      </g>
     </g>
    </g>
    <g id="xtick_2">
     <g id="line2d_4">
      <path d="M 317.760838 489.2325 
L 317.760838 28.08 
" clip-path="url(#pf5d8d1b1c0)" style="fill: none; stroke-dasharray: 3.7,1.6; stroke-dashoffset: 0; stroke: #b0b0b0; stroke-opacity: 0.5"/>
     </g>
     <g id="line2d_5">
      <g>
       <use xlink:href="#m26cc170cf6" x="317.760838" y="489.2325" style="stroke: #000000; stroke-width: 2"/>
      </g>
     </g>
     <g id="line2d_6">
      <g>
       <use xlink:href="#mb221f1cf26" x="317.760838" y="28.08" style="stroke: #000000; stroke-width: 2"/>
      </g>
     </g>
     <g id="text_2">
      <!-- 500 -->
      <g transform="translate(292.947088 512.488438) scale(0.26 -0.26)">
       <defs>
        <path id="DejaVuSerif-35" d="M 3219 4666 
L 3219 4153 
L 1081 4153 
L 1081 2816 
Q 1244 2928 1461 2984 
Q 1678 3041 1947 3041 
Q 2703 3041 3140 2622 
Q 3578 2203 3578 1478 
Q 3578 738 3136 323 
Q 2694 -91 1894 -91 
Q 1572 -91 1234 -12 
Q 897 66 544 225 
L 544 1131 
L 897 1131 
Q 925 688 1179 453 
Q 1434 219 1894 219 
Q 2388 219 2653 544 
Q 2919 869 2919 1478 
Q 2919 2084 2655 2407 
Q 2391 2731 1894 2731 
Q 1613 2731 1398 2631 
Q 1184 2531 1019 2322 
L 750 2322 
L 750 4666 
L 3219 4666 
z
" transform="scale(0.015625)"/>
       </defs>
       <use xlink:href="#DejaVuSerif-35"/>
       <use xlink:href="#DejaVuSerif-30" x="63.623047"/>
       <use xlink:href="#DejaVuSerif-30" x="127.246094"/>
      </g>
     </g>
    </g>
    <g id="xtick_3">
     <g id="line2d_7">
      <path d="M 439.038609 489.2325 
L 439.038609 28.08 
" clip-path="url(#pf5d8d1b1c0)" style="fill: none; stroke-dasharray: 3.7,1.6; stroke-dashoffset: 0; stroke: #b0b0b0; stroke-opacity: 0.5"/>
     </g>
     <g id="line2d_8">
      <g>
       <use xlink:href="#m26cc170cf6" x="439.038609" y="489.2325" style="stroke: #000000; stroke-width: 2"/>
      </g>
     </g>
     <g id="line2d_9">
      <g>
       <use xlink:href="#mb221f1cf26" x="439.038609" y="28.08" style="stroke: #000000; stroke-width: 2"/>
      </g>
     </g>
     <g id="text_3">
      <!-- 1000 -->
      <g transform="translate(405.953609 512.488438) scale(0.26 -0.26)">
       <defs>
        <path id="DejaVuSerif-31" d="M 909 0 
L 909 331 
L 1722 331 
L 1722 4213 
L 781 3603 
L 781 4013 
L 1919 4750 
L 2350 4750 
L 2350 331 
L 3163 331 
L 3163 0 
L 909 0 
z
" transform="scale(0.015625)"/>
       </defs>
       <use xlink:href="#DejaVuSerif-31"/>
       <use xlink:href="#DejaVuSerif-30" x="63.623047"/>
       <use xlink:href="#DejaVuSerif-30" x="127.246094"/>
       <use xlink:href="#DejaVuSerif-30" x="190.869141"/>
      </g>
     </g>
    </g>
    <g id="xtick_4">
     <g id="line2d_10">
      <path d="M 560.31638 489.2325 
L 560.31638 28.08 
" clip-path="url(#pf5d8d1b1c0)" style="fill: none; stroke-dasharray: 3.7,1.6; stroke-dashoffset: 0; stroke: #b0b0b0; stroke-opacity: 0.5"/>
     </g>
     <g id="line2d_11">
      <g>
       <use xlink:href="#m26cc170cf6" x="560.31638" y="489.2325" style="stroke: #000000; stroke-width: 2"/>
      </g>
     </g>
     <g id="line2d_12">
      <g>
       <use xlink:href="#mb221f1cf26" x="560.31638" y="28.08" style="stroke: #000000; stroke-width: 2"/>
      </g>
     </g>
     <g id="text_4">
      <!-- 1500 -->
      <g transform="translate(527.23138 512.488438) scale(0.26 -0.26)">
       <use xlink:href="#DejaVuSerif-31"/>
       <use xlink:href="#DejaVuSerif-35" x="63.623047"/>
       <use xlink:href="#DejaVuSerif-30" x="127.246094"/>
       <use xlink:href="#DejaVuSerif-30" x="190.869141"/>
      </g>
     </g>
    </g>
    <g id="xtick_5">
     <g id="line2d_13">
      <path d="M 681.59415 489.2325 
L 681.59415 28.08 
" clip-path="url(#pf5d8d1b1c0)" style="fill: none; stroke-dasharray: 3.7,1.6; stroke-dashoffset: 0; stroke: #b0b0b0; stroke-opacity: 0.5"/>
     </g>
     <g id="line2d_14">
      <g>
       <use xlink:href="#m26cc170cf6" x="681.59415" y="489.2325" style="stroke: #000000; stroke-width: 2"/>
      </g>
     </g>
     <g id="line2d_15">
      <g>
       <use xlink:href="#mb221f1cf26" x="681.59415" y="28.08" style="stroke: #000000; stroke-width: 2"/>
      </g>
     </g>
     <g id="text_5">
      <!-- 2000 -->
      <g transform="translate(648.50915 512.488438) scale(0.26 -0.26)">
       <defs>
        <path id="DejaVuSerif-32" d="M 819 3553 
L 469 3553 
L 469 4384 
Q 803 4563 1142 4656 
Q 1481 4750 1806 4750 
Q 2534 4750 2956 4397 
Q 3378 4044 3378 3438 
Q 3378 2753 2422 1800 
Q 2347 1728 2309 1691 
L 1131 513 
L 3078 513 
L 3078 1088 
L 3444 1088 
L 3444 0 
L 434 0 
L 434 341 
L 1850 1753 
Q 2319 2222 2519 2614 
Q 2719 3006 2719 3438 
Q 2719 3909 2473 4175 
Q 2228 4441 1797 4441 
Q 1350 4441 1106 4219 
Q 863 3997 819 3553 
z
" transform="scale(0.015625)"/>
       </defs>
       <use xlink:href="#DejaVuSerif-32"/>
       <use xlink:href="#DejaVuSerif-30" x="63.623047"/>
       <use xlink:href="#DejaVuSerif-30" x="127.246094"/>
       <use xlink:href="#DejaVuSerif-30" x="190.869141"/>
      </g>
     </g>
    </g>
    <g id="xtick_6">
     <g id="line2d_16">
      <path d="M 802.871921 489.2325 
L 802.871921 28.08 
" clip-path="url(#pf5d8d1b1c0)" style="fill: none; stroke-dasharray: 3.7,1.6; stroke-dashoffset: 0; stroke: #b0b0b0; stroke-opacity: 0.5"/>
     </g>
     <g id="line2d_17">
      <g>
       <use xlink:href="#m26cc170cf6" x="802.871921" y="489.2325" style="stroke: #000000; stroke-width: 2"/>
      </g>
     </g>
     <g id="line2d_18">
      <g>
       <use xlink:href="#mb221f1cf26" x="802.871921" y="28.08" style="stroke: #000000; stroke-width: 2"/>
      </g>
     </g>
     <g id="text_6">
      <!-- 2500 -->
      <g transform="translate(769.786921 512.488438) scale(0.26 -0.26)">
       <use xlink:href="#DejaVuSerif-32"/>
       <use xlink:href="#DejaVuSerif-35" x="63.623047"/>
       <use xlink:href="#DejaVuSerif-30" x="127.246094"/>
       <use xlink:href="#DejaVuSerif-30" x="190.869141"/>
      </g>
     </g>
    </g>
    <g id="text_7">
     <!-- $t$ (a.u.) -->
     <g transform="translate(456.257494 541.651562) scale(0.26 -0.26)">
      <defs>
       <path id="Cmmi10-74" d="M 397 519 
Q 397 613 416 697 
L 878 2534 
L 206 2534 
Q 141 2534 141 2619 
Q 166 2759 225 2759 
L 934 2759 
L 1191 3803 
Q 1216 3888 1291 3947 
Q 1366 4006 1459 4006 
Q 1541 4006 1595 3957 
Q 1650 3909 1650 3828 
Q 1650 3809 1648 3798 
Q 1647 3788 1644 3775 
L 1388 2759 
L 2047 2759 
Q 2113 2759 2113 2675 
Q 2109 2659 2100 2621 
Q 2091 2584 2075 2559 
Q 2059 2534 2028 2534 
L 1331 2534 
L 872 684 
Q 825 503 825 372 
Q 825 97 1013 97 
Q 1294 97 1511 361 
Q 1728 625 1844 941 
Q 1869 978 1894 978 
L 1972 978 
Q 1997 978 2012 961 
Q 2028 944 2028 922 
Q 2028 909 2022 903 
Q 1881 516 1612 222 
Q 1344 -72 997 -72 
Q 744 -72 570 93 
Q 397 259 397 519 
z
" transform="scale(0.015625)"/>
       <path id="DejaVuSerif-20" transform="scale(0.015625)"/>
       <path id="DejaVuSerif-28" d="M 2041 -997 
Q 1281 -656 893 83 
Q 506 822 506 1931 
Q 506 3044 893 3783 
Q 1281 4522 2041 4863 
L 2041 4556 
Q 1559 4225 1350 3623 
Q 1141 3022 1141 1931 
Q 1141 844 1350 242 
Q 1559 -359 2041 -691 
L 2041 -997 
z
" transform="scale(0.015625)"/>
       <path id="DejaVuSerif-61" d="M 2547 1044 
L 2547 1747 
L 1806 1747 
Q 1378 1747 1168 1562 
Q 959 1378 959 997 
Q 959 650 1171 447 
Q 1384 244 1747 244 
Q 2106 244 2326 466 
Q 2547 688 2547 1044 
z
M 3122 2075 
L 3122 331 
L 3634 331 
L 3634 0 
L 2547 0 
L 2547 359 
Q 2356 128 2106 18 
Q 1856 -91 1522 -91 
Q 969 -91 644 203 
Q 319 497 319 997 
Q 319 1513 691 1797 
Q 1063 2081 1741 2081 
L 2547 2081 
L 2547 2309 
Q 2547 2688 2317 2895 
Q 2088 3103 1672 3103 
Q 1328 3103 1125 2947 
Q 922 2791 872 2484 
L 575 2484 
L 575 3156 
Q 875 3284 1158 3348 
Q 1441 3413 1709 3413 
Q 2400 3413 2761 3070 
Q 3122 2728 3122 2075 
z
" transform="scale(0.015625)"/>
       <path id="DejaVuSerif-2e" d="M 603 325 
Q 603 500 722 622 
Q 841 744 1019 744 
Q 1191 744 1312 622 
Q 1434 500 1434 325 
Q 1434 153 1312 31 
Q 1191 -91 1019 -91 
Q 841 -91 722 29 
Q 603 150 603 325 
z
" transform="scale(0.015625)"/>
       <path id="DejaVuSerif-75" d="M 2266 3322 
L 3341 3322 
L 3341 331 
L 3884 331 
L 3884 0 
L 2766 0 
L 2766 588 
Q 2606 256 2353 82 
Q 2100 -91 1766 -91 
Q 1213 -91 952 223 
Q 691 538 691 1209 
L 691 2988 
L 172 2988 
L 172 3322 
L 1269 3322 
L 1269 1388 
Q 1269 781 1417 556 
Q 1566 331 1947 331 
Q 2347 331 2556 625 
Q 2766 919 2766 1478 
L 2766 2988 
L 2266 2988 
L 2266 3322 
z
" transform="scale(0.015625)"/>
       <path id="DejaVuSerif-29" d="M 453 -997 
L 453 -691 
Q 934 -359 1145 242 
Q 1356 844 1356 1931 
Q 1356 3022 1145 3623 
Q 934 4225 453 4556 
L 453 4863 
Q 1216 4522 1603 3783 
Q 1991 3044 1991 1931 
Q 1991 822 1603 83 
Q 1216 -656 453 -997 
z
" transform="scale(0.015625)"/>
      </defs>
      <use xlink:href="#Cmmi10-74" transform="translate(0 0.015625)"/>
      <use xlink:href="#DejaVuSerif-20" transform="translate(36.083984 0.015625)"/>
      <use xlink:href="#DejaVuSerif-28" transform="translate(67.871094 0.015625)"/>
      <use xlink:href="#DejaVuSerif-61" transform="translate(106.884766 0.015625)"/>
      <use xlink:href="#DejaVuSerif-2e" transform="translate(166.503906 0.015625)"/>
      <use xlink:href="#DejaVuSerif-75" transform="translate(198.291016 0.015625)"/>
      <use xlink:href="#DejaVuSerif-2e" transform="translate(262.695312 0.015625)"/>
      <use xlink:href="#DejaVuSerif-29" transform="translate(294.482422 0.015625)"/>
     </g>
    </g>
   </g>
   <g id="matplotlib.axis_2">
    <g id="ytick_1">
     <g id="line2d_19">
      <path d="M 166.163625 468.270653 
L 833.191364 468.270653 
" clip-path="url(#pf5d8d1b1c0)" style="fill: none; stroke-dasharray: 3.7,1.6; stroke-dashoffset: 0; stroke: #b0b0b0; stroke-opacity: 0.5"/>
     </g>
     <g id="line2d_20">
      <defs>
       <path id="m68a9dadc63" d="M 0 0 
L 10 0 
" style="stroke: #000000; stroke-width: 2"/>
      </defs>
      <g>
       <use xlink:href="#m68a9dadc63" x="166.163625" y="468.270653" style="stroke: #000000; stroke-width: 2"/>
      </g>
     </g>
     <g id="line2d_21">
      <defs>
       <path id="m849ac020da" d="M 0 0 
L -10 0 
" style="stroke: #000000; stroke-width: 2"/>
      </defs>
      <g>
       <use xlink:href="#m849ac020da" x="833.191364" y="468.270653" style="stroke: #000000; stroke-width: 2"/>
      </g>
     </g>
     <g id="text_8">
      <!-- 0 -->
      <g transform="translate(146.121125 478.148622) scale(0.26 -0.26)">
       <use xlink:href="#DejaVuSerif-30"/>
      </g>
     </g>
    </g>
    <g id="ytick_2">
     <g id="line2d_22">
      <path d="M 166.163625 410.37926 
L 833.191364 410.37926 
" clip-path="url(#pf5d8d1b1c0)" style="fill: none; stroke-dasharray: 3.7,1.6; stroke-dashoffset: 0; stroke: #b0b0b0; stroke-opacity: 0.5"/>
     </g>
     <g id="line2d_23">
      <g>
       <use xlink:href="#m68a9dadc63" x="166.163625" y="410.37926" style="stroke: #000000; stroke-width: 2"/>
      </g>
     </g>
     <g id="line2d_24">
      <g>
       <use xlink:href="#m849ac020da" x="833.191364" y="410.37926" style="stroke: #000000; stroke-width: 2"/>
      </g>
     </g>
     <g id="text_9">
      <!-- 100000 -->
      <g transform="translate(63.408625 420.257228) scale(0.26 -0.26)">
       <use xlink:href="#DejaVuSerif-31"/>
       <use xlink:href="#DejaVuSerif-30" x="63.623047"/>
       <use xlink:href="#DejaVuSerif-30" x="127.246094"/>
       <use xlink:href="#DejaVuSerif-30" x="190.869141"/>
       <use xlink:href="#DejaVuSerif-30" x="254.492188"/>
       <use xlink:href="#DejaVuSerif-30" x="318.115234"/>
      </g>
     </g>
    </g>
    <g id="ytick_3">
     <g id="line2d_25">
      <path d="M 166.163625 352.487866 
L 833.191364 352.487866 
" clip-path="url(#pf5d8d1b1c0)" style="fill: none; stroke-dasharray: 3.7,1.6; stroke-dashoffset: 0; stroke: #b0b0b0; stroke-opacity: 0.5"/>
     </g>
     <g id="line2d_26">
      <g>
       <use xlink:href="#m68a9dadc63" x="166.163625" y="352.487866" style="stroke: #000000; stroke-width: 2"/>
      </g>
     </g>
     <g id="line2d_27">
      <g>
       <use xlink:href="#m849ac020da" x="833.191364" y="352.487866" style="stroke: #000000; stroke-width: 2"/>
      </g>
     </g>
     <g id="text_10">
      <!-- 200000 -->
      <g transform="translate(63.408625 362.365835) scale(0.26 -0.26)">
       <use xlink:href="#DejaVuSerif-32"/>
       <use xlink:href="#DejaVuSerif-30" x="63.623047"/>
       <use xlink:href="#DejaVuSerif-30" x="127.246094"/>
       <use xlink:href="#DejaVuSerif-30" x="190.869141"/>
       <use xlink:href="#DejaVuSerif-30" x="254.492188"/>
       <use xlink:href="#DejaVuSerif-30" x="318.115234"/>
      </g>
     </g>
    </g>
    <g id="ytick_4">
     <g id="line2d_28">
      <path d="M 166.163625 294.596472 
L 833.191364 294.596472 
" clip-path="url(#pf5d8d1b1c0)" style="fill: none; stroke-dasharray: 3.7,1.6; stroke-dashoffset: 0; stroke: #b0b0b0; stroke-opacity: 0.5"/>
     </g>
     <g id="line2d_29">
      <g>
       <use xlink:href="#m68a9dadc63" x="166.163625" y="294.596472" style="stroke: #000000; stroke-width: 2"/>
      </g>
     </g>
     <g id="line2d_30">
      <g>
       <use xlink:href="#m849ac020da" x="833.191364" y="294.596472" style="stroke: #000000; stroke-width: 2"/>
      </g>
     </g>
     <g id="text_11">
      <!-- 300000 -->
      <g transform="translate(63.408625 304.474441) scale(0.26 -0.26)">
       <defs>
        <path id="DejaVuSerif-33" d="M 622 4469 
Q 988 4606 1323 4678 
Q 1659 4750 1953 4750 
Q 2638 4750 3022 4454 
Q 3406 4159 3406 3634 
Q 3406 3213 3140 2930 
Q 2875 2647 2388 2547 
Q 2963 2466 3280 2130 
Q 3597 1794 3597 1259 
Q 3597 606 3158 257 
Q 2719 -91 1894 -91 
Q 1528 -91 1179 -12 
Q 831 66 488 225 
L 488 1131 
L 838 1131 
Q 869 681 1141 450 
Q 1413 219 1906 219 
Q 2384 219 2661 495 
Q 2938 772 2938 1253 
Q 2938 1803 2653 2086 
Q 2369 2369 1819 2369 
L 1522 2369 
L 1522 2688 
L 1678 2688 
Q 2225 2688 2498 2914 
Q 2772 3141 2772 3597 
Q 2772 4006 2547 4223 
Q 2322 4441 1900 4441 
Q 1478 4441 1245 4241 
Q 1013 4041 972 3647 
L 622 3647 
L 622 4469 
z
" transform="scale(0.015625)"/>
       </defs>
       <use xlink:href="#DejaVuSerif-33"/>
       <use xlink:href="#DejaVuSerif-30" x="63.623047"/>
       <use xlink:href="#DejaVuSerif-30" x="127.246094"/>
       <use xlink:href="#DejaVuSerif-30" x="190.869141"/>
       <use xlink:href="#DejaVuSerif-30" x="254.492188"/>
       <use xlink:href="#DejaVuSerif-30" x="318.115234"/>
      </g>
     </g>
    </g>
    <g id="ytick_5">
     <g id="line2d_31">
      <path d="M 166.163625 236.705079 
L 833.191364 236.705079 
" clip-path="url(#pf5d8d1b1c0)" style="fill: none; stroke-dasharray: 3.7,1.6; stroke-dashoffset: 0; stroke: #b0b0b0; stroke-opacity: 0.5"/>
     </g>
     <g id="line2d_32">
      <g>
       <use xlink:href="#m68a9dadc63" x="166.163625" y="236.705079" style="stroke: #000000; stroke-width: 2"/>
      </g>
     </g>
     <g id="line2d_33">
      <g>
       <use xlink:href="#m849ac020da" x="833.191364" y="236.705079" style="stroke: #000000; stroke-width: 2"/>
      </g>
     </g>
     <g id="text_12">
      <!-- 400000 -->
      <g transform="translate(63.408625 246.583047) scale(0.26 -0.26)">
       <defs>
        <path id="DejaVuSerif-34" d="M 2234 1581 
L 2234 4063 
L 641 1581 
L 2234 1581 
z
M 3609 0 
L 1484 0 
L 1484 331 
L 2234 331 
L 2234 1247 
L 197 1247 
L 197 1588 
L 2241 4750 
L 2859 4750 
L 2859 1581 
L 3750 1581 
L 3750 1247 
L 2859 1247 
L 2859 331 
L 3609 331 
L 3609 0 
z
" transform="scale(0.015625)"/>
       </defs>
       <use xlink:href="#DejaVuSerif-34"/>
       <use xlink:href="#DejaVuSerif-30" x="63.623047"/>
       <use xlink:href="#DejaVuSerif-30" x="127.246094"/>
       <use xlink:href="#DejaVuSerif-30" x="190.869141"/>
       <use xlink:href="#DejaVuSerif-30" x="254.492188"/>
       <use xlink:href="#DejaVuSerif-30" x="318.115234"/>
      </g>
     </g>
    </g>
    <g id="ytick_6">
     <g id="line2d_34">
      <path d="M 166.163625 178.813685 
L 833.191364 178.813685 
" clip-path="url(#pf5d8d1b1c0)" style="fill: none; stroke-dasharray: 3.7,1.6; stroke-dashoffset: 0; stroke: #b0b0b0; stroke-opacity: 0.5"/>
     </g>
     <g id="line2d_35">
      <g>
       <use xlink:href="#m68a9dadc63" x="166.163625" y="178.813685" style="stroke: #000000; stroke-width: 2"/>
      </g>
     </g>
     <g id="line2d_36">
      <g>
       <use xlink:href="#m849ac020da" x="833.191364" y="178.813685" style="stroke: #000000; stroke-width: 2"/>
      </g>
     </g>
     <g id="text_13">
      <!-- 500000 -->
      <g transform="translate(63.408625 188.691654) scale(0.26 -0.26)">
       <use xlink:href="#DejaVuSerif-35"/>
       <use xlink:href="#DejaVuSerif-30" x="63.623047"/>
       <use xlink:href="#DejaVuSerif-30" x="127.246094"/>
       <use xlink:href="#DejaVuSerif-30" x="190.869141"/>
       <use xlink:href="#DejaVuSerif-30" x="254.492188"/>
       <use xlink:href="#DejaVuSerif-30" x="318.115234"/>
      </g>
     </g>
    </g>
    <g id="ytick_7">
     <g id="line2d_37">
      <path d="M 166.163625 120.922291 
L 833.191364 120.922291 
" clip-path="url(#pf5d8d1b1c0)" style="fill: none; stroke-dasharray: 3.7,1.6; stroke-dashoffset: 0; stroke: #b0b0b0; stroke-opacity: 0.5"/>
     </g>
     <g id="line2d_38">
      <g>
       <use xlink:href="#m68a9dadc63" x="166.163625" y="120.922291" style="stroke: #000000; stroke-width: 2"/>
      </g>
     </g>
     <g id="line2d_39">
      <g>
       <use xlink:href="#m849ac020da" x="833.191364" y="120.922291" style="stroke: #000000; stroke-width: 2"/>
      </g>
     </g>
     <g id="text_14">
      <!-- 600000 -->
      <g transform="translate(63.408625 130.80026) scale(0.26 -0.26)">
       <defs>
        <path id="DejaVuSerif-36" d="M 2094 219 
Q 2534 219 2771 542 
Q 3009 866 3009 1472 
Q 3009 2078 2771 2401 
Q 2534 2725 2094 2725 
Q 1647 2725 1412 2412 
Q 1178 2100 1178 1509 
Q 1178 888 1415 553 
Q 1653 219 2094 219 
z
M 1075 2569 
Q 1288 2803 1556 2918 
Q 1825 3034 2163 3034 
Q 2859 3034 3264 2615 
Q 3669 2197 3669 1472 
Q 3669 763 3233 336 
Q 2797 -91 2069 -91 
Q 1278 -91 853 498 
Q 428 1088 428 2181 
Q 428 3406 931 4078 
Q 1434 4750 2350 4750 
Q 2597 4750 2869 4703 
Q 3141 4656 3425 4563 
L 3425 3794 
L 3072 3794 
Q 3034 4109 2831 4275 
Q 2628 4441 2284 4441 
Q 1678 4441 1381 3981 
Q 1084 3522 1075 2569 
z
" transform="scale(0.015625)"/>
       </defs>
       <use xlink:href="#DejaVuSerif-36"/>
       <use xlink:href="#DejaVuSerif-30" x="63.623047"/>
       <use xlink:href="#DejaVuSerif-30" x="127.246094"/>
       <use xlink:href="#DejaVuSerif-30" x="190.869141"/>
       <use xlink:href="#DejaVuSerif-30" x="254.492188"/>
       <use xlink:href="#DejaVuSerif-30" x="318.115234"/>
      </g>
     </g>
    </g>
    <g id="ytick_8">
     <g id="line2d_40">
      <path d="M 166.163625 63.030898 
L 833.191364 63.030898 
" clip-path="url(#pf5d8d1b1c0)" style="fill: none; stroke-dasharray: 3.7,1.6; stroke-dashoffset: 0; stroke: #b0b0b0; stroke-opacity: 0.5"/>
     </g>
     <g id="line2d_41">
      <g>
       <use xlink:href="#m68a9dadc63" x="166.163625" y="63.030898" style="stroke: #000000; stroke-width: 2"/>
      </g>
     </g>
     <g id="line2d_42">
      <g>
       <use xlink:href="#m849ac020da" x="833.191364" y="63.030898" style="stroke: #000000; stroke-width: 2"/>
      </g>
     </g>
     <g id="text_15">
      <!-- 700000 -->
      <g transform="translate(63.408625 72.908867) scale(0.26 -0.26)">
       <defs>
        <path id="DejaVuSerif-37" d="M 3609 4347 
L 1784 0 
L 1319 0 
L 3059 4153 
L 903 4153 
L 903 3578 
L 538 3578 
L 538 4666 
L 3609 4666 
L 3609 4347 
z
" transform="scale(0.015625)"/>
       </defs>
       <use xlink:href="#DejaVuSerif-37"/>
       <use xlink:href="#DejaVuSerif-30" x="63.623047"/>
       <use xlink:href="#DejaVuSerif-30" x="127.246094"/>
       <use xlink:href="#DejaVuSerif-30" x="190.869141"/>
       <use xlink:href="#DejaVuSerif-30" x="254.492188"/>
       <use xlink:href="#DejaVuSerif-30" x="318.115234"/>
      </g>
     </g>
    </g>
    <g id="text_16">
     <!-- $E_{\bar{p}}(t)$ (a.u.) -->
     <g transform="translate(51.348625 327.16625) rotate(-90) scale(0.26 -0.26)">
      <defs>
       <path id="Cmmi10-45" d="M 300 0 
Q 238 0 238 84 
Q 241 100 250 139 
Q 259 178 276 201 
Q 294 225 319 225 
Q 709 225 863 269 
Q 947 297 984 441 
L 1863 3956 
Q 1875 4019 1875 4044 
Q 1875 4113 1797 4122 
Q 1678 4147 1338 4147 
Q 1275 4147 1275 4231 
Q 1278 4247 1287 4286 
Q 1297 4325 1314 4348 
Q 1331 4372 1356 4372 
L 4825 4372 
Q 4891 4372 4891 4288 
L 4738 2963 
Q 4738 2947 4714 2926 
Q 4691 2906 4672 2906 
L 4616 2906 
Q 4550 2906 4550 2988 
Q 4588 3300 4588 3450 
Q 4588 3706 4500 3848 
Q 4413 3991 4267 4053 
Q 4122 4116 3945 4131 
Q 3769 4147 3481 4147 
L 2753 4147 
Q 2578 4147 2522 4117 
Q 2466 4088 2419 3928 
L 2034 2381 
L 2534 2381 
Q 2859 2381 3025 2426 
Q 3191 2472 3287 2615 
Q 3384 2759 3463 3072 
Q 3469 3094 3486 3111 
Q 3503 3128 3525 3128 
L 3584 3128 
Q 3647 3128 3647 3047 
L 3250 1466 
Q 3238 1409 3188 1409 
L 3128 1409 
Q 3066 1409 3066 1491 
Q 3128 1747 3128 1869 
Q 3128 2056 2959 2106 
Q 2791 2156 2509 2156 
L 1978 2156 
L 1544 416 
Q 1516 338 1516 275 
Q 1516 225 1734 225 
L 2509 225 
Q 2972 225 3259 297 
Q 3547 369 3736 526 
Q 3925 684 4062 928 
Q 4200 1172 4397 1638 
Q 4409 1678 4453 1678 
L 4513 1678 
Q 4538 1678 4556 1656 
Q 4575 1634 4575 1606 
Q 4575 1594 4569 1581 
L 3909 38 
Q 3897 0 3859 0 
L 300 0 
z
" transform="scale(0.015625)"/>
       <path id="Cmr10-b9" d="M 441 3553 
L 441 3775 
L 2753 3775 
L 2753 3553 
L 441 3553 
z
" transform="scale(0.015625)"/>
       <path id="Cmmi10-70" d="M -159 -1241 
Q -219 -1241 -219 -1159 
Q -197 -1019 -134 -1019 
Q 66 -1019 145 -983 
Q 225 -947 269 -800 
L 991 2081 
Q 1038 2200 1038 2388 
Q 1038 2663 850 2663 
Q 650 2663 553 2423 
Q 456 2184 366 1819 
Q 366 1778 313 1778 
L 238 1778 
Q 222 1778 203 1801 
Q 184 1825 184 1844 
Q 253 2122 317 2315 
Q 381 2509 517 2668 
Q 653 2828 856 2828 
Q 1075 2828 1240 2704 
Q 1406 2581 1453 2369 
Q 1628 2572 1840 2700 
Q 2053 2828 2278 2828 
Q 2547 2828 2745 2684 
Q 2944 2541 3044 2308 
Q 3144 2075 3144 1806 
Q 3144 1394 2933 953 
Q 2722 513 2361 220 
Q 2000 -72 1588 -72 
Q 1400 -72 1248 34 
Q 1097 141 1013 313 
L 722 -825 
Q 706 -919 703 -934 
Q 703 -1019 1125 -1019 
Q 1191 -1019 1191 -1100 
Q 1169 -1184 1155 -1212 
Q 1141 -1241 1081 -1241 
L -159 -1241 
z
M 1594 97 
Q 1816 97 2006 280 
Q 2197 463 2316 691 
Q 2403 863 2479 1111 
Q 2556 1359 2612 1640 
Q 2669 1922 2669 2088 
Q 2669 2234 2630 2362 
Q 2591 2491 2502 2577 
Q 2413 2663 2266 2663 
Q 2031 2663 1823 2495 
Q 1616 2328 1447 2081 
L 1447 2059 
L 1094 647 
Q 1138 419 1263 258 
Q 1388 97 1594 97 
z
" transform="scale(0.015625)"/>
       <path id="Cmr10-28" d="M 1984 -1588 
Q 1628 -1306 1370 -942 
Q 1113 -578 948 -165 
Q 784 247 703 697 
Q 622 1147 622 1600 
Q 622 2059 703 2509 
Q 784 2959 951 3375 
Q 1119 3791 1378 4153 
Q 1638 4516 1984 4788 
Q 1984 4800 2016 4800 
L 2075 4800 
Q 2094 4800 2109 4783 
Q 2125 4766 2125 4744 
Q 2125 4716 2113 4703 
Q 1800 4397 1592 4047 
Q 1384 3697 1257 3301 
Q 1131 2906 1075 2482 
Q 1019 2059 1019 1600 
Q 1019 -434 2106 -1491 
Q 2125 -1509 2125 -1544 
Q 2125 -1559 2108 -1579 
Q 2091 -1600 2075 -1600 
L 2016 -1600 
Q 1984 -1600 1984 -1588 
z
" transform="scale(0.015625)"/>
       <path id="Cmr10-29" d="M 416 -1600 
Q 359 -1600 359 -1544 
Q 359 -1516 372 -1503 
Q 1466 -434 1466 1600 
Q 1466 3634 384 4691 
Q 359 4706 359 4744 
Q 359 4766 376 4783 
Q 394 4800 416 4800 
L 475 4800 
Q 494 4800 506 4788 
Q 966 4425 1272 3906 
Q 1578 3388 1720 2800 
Q 1863 2213 1863 1600 
Q 1863 1147 1786 708 
Q 1709 269 1542 -157 
Q 1375 -584 1119 -945 
Q 863 -1306 506 -1588 
Q 494 -1600 475 -1600 
L 416 -1600 
z
" transform="scale(0.015625)"/>
      </defs>
      <use xlink:href="#Cmmi10-45" transform="translate(0 0.015625)"/>
      <use xlink:href="#Cmr10-b9" transform="translate(78.752441 -16.16875) scale(0.7)"/>
      <use xlink:href="#Cmmi10-70" transform="translate(73.779297 -16.990625) scale(0.7)"/>
      <use xlink:href="#Cmr10-28" transform="translate(115.361719 0.015625)"/>
      <use xlink:href="#Cmmi10-74" transform="translate(154.180078 0.015625)"/>
      <use xlink:href="#Cmr10-29" transform="translate(190.264062 0.015625)"/>
      <use xlink:href="#DejaVuSerif-20" transform="translate(229.082422 0.015625)"/>
      <use xlink:href="#DejaVuSerif-28" transform="translate(260.869531 0.015625)"/>
      <use xlink:href="#DejaVuSerif-61" transform="translate(299.883203 0.015625)"/>
      <use xlink:href="#DejaVuSerif-2e" transform="translate(359.502344 0.015625)"/>
      <use xlink:href="#DejaVuSerif-75" transform="translate(391.289453 0.015625)"/>
      <use xlink:href="#DejaVuSerif-2e" transform="translate(455.69375 0.015625)"/>
      <use xlink:href="#DejaVuSerif-29" transform="translate(487.480859 0.015625)"/>
     </g>
    </g>
   </g>
   <g id="line2d_43">
    <path d="M 196.483068 468.185616 
L 363.406926 468.079954 
L 369.476885 467.902382 
L 371.904868 467.635165 
L 373.11886 467.277516 
L 373.725856 466.904417 
L 374.332851 466.136568 
L 374.939847 463.677249 
L 375.546843 457.110014 
L 376.153839 465.483938 
L 376.760835 466.806766 
L 377.367831 467.37925 
L 378.581822 467.876541 
L 379.795814 468.100482 
L 382.830793 468.269769 
L 385.258777 468.196022 
L 387.079764 467.962802 
L 388.293756 467.604169 
L 388.900752 467.23502 
L 389.507748 466.544923 
L 390.114744 464.707213 
L 390.721739 421.903035 
L 391.328735 464.905121 
L 391.935731 466.569821 
L 392.542727 467.19223 
L 393.756719 467.762604 
L 395.577706 468.099549 
L 398.00569 468.251738 
L 401.040669 468.244695 
L 403.468652 468.067447 
L 405.28964 467.693677 
L 405.896636 467.437578 
L 406.503631 466.97961 
L 407.110627 466.050827 
L 407.717623 462.811905 
L 408.324619 460.655532 
L 408.931615 466.007293 
L 409.538611 467.170761 
L 410.145607 467.695551 
L 411.359598 468.150806 
L 412.57359 468.26948 
L 413.787582 468.184902 
L 415.001573 467.827308 
L 415.608569 467.415937 
L 416.215565 466.580686 
L 416.822561 464.044453 
L 417.429557 456.968048 
L 418.036553 465.811116 
L 418.643548 467.152726 
L 419.250544 467.721591 
L 419.85754 468.020487 
L 421.071532 468.258541 
L 422.285524 468.203578 
L 422.892519 468.059767 
L 423.499515 467.791838 
L 424.106511 467.288886 
L 424.713507 466.167325 
L 425.320503 461.308787 
L 425.927499 462.881962 
L 426.534494 466.410174 
L 427.14149 467.388117 
L 427.748486 467.844099 
L 428.962478 468.218643 
L 430.17647 468.250889 
L 431.390461 467.97782 
L 431.997457 467.640171 
L 432.604453 466.977643 
L 433.211449 465.224293 
L 433.818445 423.495177 
L 434.425441 464.993835 
L 435.032436 466.882429 
L 435.639432 467.586972 
L 436.246428 467.943588 
L 437.46042 468.239521 
L 438.674411 468.242362 
L 439.888403 467.951975 
L 440.495399 467.604091 
L 441.102395 466.924742 
L 441.709391 465.191562 
L 442.316387 376.931614 
L 442.923382 465.112245 
L 443.530378 466.943158 
L 444.137374 467.63203 
L 444.74437 467.978918 
L 445.958362 468.253963 
L 447.172353 468.210324 
L 447.779349 468.067246 
L 448.386345 467.796068 
L 448.993341 467.28136 
L 449.600337 466.115118 
L 450.207333 460.702986 
L 450.814328 463.252355 
L 451.421324 466.494148 
L 452.02832 467.42376 
L 452.635316 467.855575 
L 453.849308 468.222809 
L 455.063299 468.247801 
L 456.277291 467.959522 
L 456.884287 467.604111 
L 457.491283 466.899878 
L 458.098279 465.041148 
L 458.705275 415.191194 
L 459.31227 465.32259 
L 459.919266 467.055926 
L 460.526262 467.715125 
L 461.133258 468.041465 
L 462.34725 468.268557 
L 463.561241 468.128693 
L 464.168237 467.88424 
L 464.775233 467.407139 
L 465.382229 466.336293 
L 465.989225 461.911059 
L 466.596221 462.652179 
L 467.203216 466.451344 
L 467.810212 467.453464 
L 468.417208 467.907796 
L 469.024204 468.140911 
L 470.238196 468.267054 
L 471.452187 468.023723 
L 472.059183 467.680592 
L 472.666179 466.980424 
L 473.273175 465.064413 
L 473.880171 432.87067 
L 474.487167 465.397479 
L 475.094162 467.081611 
L 475.701158 467.728404 
L 476.308154 468.049097 
L 477.522146 468.269324 
L 478.736138 468.120524 
L 479.343133 467.866898 
L 479.950129 467.369686 
L 480.557125 466.233752 
L 481.164121 461.100762 
L 481.771117 463.182881 
L 482.378113 466.548077 
L 482.985108 467.494912 
L 483.592104 467.929912 
L 484.1991 468.152802 
L 485.413092 468.264713 
L 486.627084 468.000299 
L 487.234079 467.633081 
L 487.841075 466.87105 
L 488.448071 464.652234 
L 489.055067 452.819421 
L 489.662063 465.695725 
L 490.269059 467.180278 
L 490.876055 467.776512 
L 491.48305 468.074902 
L 492.697042 468.270559 
L 493.911034 468.094847 
L 494.51803 467.815243 
L 495.125025 467.261059 
L 495.732021 465.931146 
L 496.339017 457.716601 
L 496.946013 464.179708 
L 497.553009 466.758509 
L 498.160005 467.585728 
L 498.767001 467.977246 
L 499.980992 468.262033 
L 501.194984 468.162769 
L 501.80198 467.948384 
L 502.408976 467.528909 
L 503.015971 466.624865 
L 504.229963 460.257932 
L 504.836959 466.1481 
L 505.443955 467.342451 
L 506.050951 467.856521 
L 506.657947 468.11696 
L 507.871938 468.269328 
L 509.08593 468.044185 
L 509.692926 467.714707 
L 510.299922 467.04425 
L 510.906918 465.25487 
L 511.513913 49.041477 
L 512.120909 465.246585 
L 512.727905 467.042738 
L 513.334901 467.714585 
L 513.941897 468.044463 
L 515.155888 468.269395 
L 516.36988 468.115553 
L 516.976876 467.853219 
L 517.583872 467.334719 
L 518.190868 466.12508 
L 518.797864 460.016286 
L 520.011855 466.648484 
L 520.618851 467.541722 
L 521.225847 467.956619 
L 521.832843 468.167816 
L 523.046835 468.260039 
L 523.65383 468.16929 
L 524.260826 467.959608 
L 524.867822 467.547633 
L 525.474818 466.662544 
L 526.081814 463.721134 
L 526.68881 459.81009 
L 527.295805 466.110164 
L 527.902801 467.332162 
L 528.509797 467.853745 
L 529.116793 468.116837 
L 530.330785 468.269094 
L 531.544776 468.037175 
L 532.151772 467.697903 
L 532.758768 467.001628 
L 533.365764 465.093695 
L 533.97276 431.702766 
L 534.579756 465.412153 
L 535.186751 467.098733 
L 535.793747 467.743903 
L 536.400743 468.061512 
L 537.614735 468.270408 
L 538.828727 468.093599 
L 539.435722 467.806739 
L 540.042718 467.232221 
L 540.649714 465.822601 
L 541.25671 455.550717 
L 541.863706 464.47083 
L 542.470702 466.839414 
L 543.077698 467.627592 
L 543.684693 468.002555 
L 544.898685 468.266268 
L 546.112677 468.137256 
L 546.719673 467.892359 
L 547.326668 467.407668 
L 547.933664 466.303917 
L 548.54066 461.506913 
L 549.147656 462.991135 
L 549.754652 466.532813 
L 550.361648 467.500075 
L 550.968644 467.939367 
L 551.575639 468.161304 
L 552.789631 468.26068 
L 553.396627 468.169397 
L 554.003623 467.955851 
L 554.610619 467.533019 
L 555.217615 466.613161 
L 556.431606 460.677544 
L 557.038602 466.208993 
L 557.645598 467.374455 
L 558.252594 467.877761 
L 558.85959 468.130883 
L 560.073581 468.266937 
L 560.680577 468.193771 
L 561.287573 468.006029 
L 561.894569 467.631722 
L 562.501565 466.843559 
L 563.108561 464.471755 
L 563.715556 455.614474 
L 564.322552 465.835729 
L 564.929548 467.242514 
L 565.536544 467.815127 
L 566.14354 468.099869 
L 567.357531 468.269915 
L 568.571523 468.044178 
L 569.178519 467.705424 
L 569.785515 467.006368 
L 570.392511 465.078732 
L 570.999507 435.647509 
L 571.606502 465.44938 
L 572.213498 467.11749 
L 572.820494 467.756917 
L 573.42749 468.070662 
L 574.641482 468.270649 
L 575.855473 468.074451 
L 576.462469 467.764383 
L 577.069465 467.133565 
L 577.676461 465.500793 
L 578.283457 441.425168 
L 578.890453 465.019568 
L 579.497448 466.992739 
L 580.104444 467.701081 
L 580.71144 468.043039 
L 581.925432 468.26997 
L 583.139424 468.096833 
L 583.746419 467.807312 
L 584.353415 467.222688 
L 584.960411 465.769309 
L 585.567407 453.993618 
L 586.174403 464.617223 
L 586.781399 466.886468 
L 587.388395 467.654383 
L 587.99539 468.019774 
L 589.209382 468.26858 
L 590.423374 468.113958 
L 591.03037 467.840721 
L 591.637365 467.291775 
L 592.244361 465.967795 
L 592.851357 457.804434 
L 593.458353 464.208303 
L 594.065349 466.789877 
L 594.672345 467.613857 
L 595.279341 468.000208 
L 595.886336 468.192673 
L 597.100328 468.246551 
L 597.707324 468.125066 
L 598.31432 467.861628 
L 598.921316 467.332944 
L 599.528312 466.077974 
L 600.135307 459.212315 
L 600.742303 463.925631 
L 601.349299 466.72782 
L 601.956295 467.588052 
L 602.563291 467.987638 
L 603.170287 468.186937 
L 604.384278 468.249257 
L 604.991274 468.132163 
L 605.59827 467.875339 
L 606.205266 467.360353 
L 606.812262 466.151037 
L 607.419258 459.998229 
L 608.026253 463.705401 
L 608.633249 466.683653 
L 609.240245 467.570807 
L 609.847241 467.979799 
L 610.454237 468.183626 
L 611.668228 468.250406 
L 612.275224 468.134818 
L 612.88222 467.879632 
L 613.489216 467.367284 
L 614.096212 466.165598 
L 614.703208 460.118193 
L 615.917199 466.677152 
L 616.524195 467.56875 
L 617.131191 467.979162 
L 617.738187 468.183527 
L 618.952179 468.250252 
L 619.559175 468.134112 
L 620.16617 467.87769 
L 620.773166 467.362318 
L 621.380162 466.149992 
L 621.987158 459.945645 
L 622.594154 463.728948 
L 623.20115 466.691947 
L 623.808145 467.576289 
L 624.415141 467.983726 
L 625.022137 468.186107 
L 626.236129 468.248602 
L 626.843125 468.128941 
L 627.450121 467.866176 
L 628.057116 467.336422 
L 628.664112 466.074254 
L 629.271108 459.068736 
L 629.878104 463.972715 
L 630.4851 466.744716 
L 631.092096 467.599112 
L 631.699092 467.995481 
L 632.306087 468.191821 
L 633.520079 468.245444 
L 634.127075 468.120081 
L 634.734071 467.847818 
L 635.341067 467.29709 
L 635.948062 465.961175 
L 636.555058 457.503504 
L 637.162054 464.27268 
L 637.76905 466.81443 
L 638.376046 467.630052 
L 638.983042 468.011654 
L 639.590038 468.199683 
L 640.804029 468.240362 
L 641.411025 468.106208 
L 642.018021 467.818886 
L 642.625017 467.233973 
L 643.232013 465.771676 
L 643.839008 453.580159 
L 644.446004 464.666293 
L 645.053 466.911509 
L 645.659996 467.672776 
L 646.266992 468.033361 
L 646.873988 468.209706 
L 648.087979 468.233092 
L 648.694975 468.087718 
L 649.301971 467.78131 
L 649.908967 467.152348 
L 650.515963 465.516632 
L 651.122959 440.695435 
L 651.729955 465.052393 
L 652.33695 467.015784 
L 652.943946 467.719649 
L 653.550942 468.057174 
L 654.764934 468.270618 
L 655.37193 468.223583 
L 655.978925 468.064652 
L 656.585921 467.734585 
L 657.192917 467.048944 
L 657.799913 465.169221 
L 658.406909 425.568353 
L 659.013905 465.424326 
L 659.620901 467.126492 
L 660.227896 467.771006 
L 660.834892 468.083489 
L 662.048884 468.270081 
L 662.65588 468.210321 
L 663.262876 468.033592 
L 663.869872 467.67113 
L 664.476867 466.903627 
L 665.083863 464.623153 
L 665.690859 454.27591 
L 666.297855 465.805834 
L 666.904851 467.249548 
L 667.511847 467.828674 
L 668.118842 468.112466 
L 669.332834 468.26761 
L 669.93983 468.19277 
L 670.546826 467.994669 
L 671.153822 467.59225 
L 671.760818 466.7179 
L 672.367813 463.81177 
L 672.974809 459.734784 
L 673.581805 466.14476 
L 674.188801 467.3689 
L 674.795797 467.88591 
L 675.402793 468.140952 
L 676.616784 468.262583 
L 677.22378 468.17057 
L 677.830776 467.947094 
L 678.437772 467.494955 
L 679.044768 466.476959 
L 679.651764 462.477601 
L 680.258759 462.27512 
L 680.865755 466.447281 
L 681.472751 467.484096 
L 682.079747 467.942261 
L 682.686743 468.168515 
L 683.900735 468.254204 
L 684.50773 468.14238 
L 685.114726 467.888238 
L 685.721722 467.372645 
L 686.328718 466.152583 
L 686.935714 459.802003 
L 687.54271 463.797359 
L 688.149705 466.718363 
L 688.756701 467.594471 
L 689.363697 467.996957 
L 689.970693 468.19443 
L 691.184685 468.241618 
L 691.791681 468.107007 
L 692.398676 467.81587 
L 693.005672 467.218849 
L 693.612668 465.705081 
L 694.219664 451.126759 
L 694.82666 464.811243 
L 695.433656 466.957298 
L 696.040652 467.697737 
L 696.647647 468.048617 
L 697.254643 468.217775 
L 698.468635 468.223814 
L 699.075631 468.062697 
L 699.682627 467.726035 
L 700.289622 467.021006 
L 700.896618 465.046502 
L 701.503614 441.935146 
L 702.11061 465.54399 
L 702.717606 467.169026 
L 703.324602 467.793803 
L 703.931598 468.096664 
L 705.145589 468.268921 
L 705.752585 468.199616 
L 706.359581 468.00745 
L 706.966577 467.614132 
L 707.573573 466.762108 
L 708.180569 463.992293 
L 708.787564 459.090641 
L 709.39456 466.095224 
L 710.001556 467.354982 
L 710.608552 467.881606 
L 711.215548 468.140145 
L 712.429539 468.262115 
L 713.036535 468.167633 
L 713.643531 467.938561 
L 714.250527 467.473082 
L 714.857523 466.411752 
L 715.464519 461.9982 
L 716.071515 462.732132 
L 716.67851 466.525407 
L 717.285506 467.518516 
L 717.892502 467.961192 
L 718.499498 468.178598 
L 719.71349 468.249002 
L 720.320485 468.125803 
L 720.927481 467.851687 
L 721.534477 467.290843 
L 722.141473 465.909843 
L 722.748469 456.286054 
L 723.355465 464.457094 
L 723.962461 466.873212 
L 724.569456 467.66414 
L 725.176452 468.033728 
L 725.783448 468.212119 
L 726.99744 468.227271 
L 727.604436 468.069127 
L 728.211432 467.735613 
L 728.818427 467.035894 
L 729.425423 465.082027 
L 730.032419 439.902918 
L 730.639415 465.53044 
L 731.246411 467.169345 
L 731.853407 467.796638 
L 732.460402 468.099582 
L 733.674394 468.26832 
L 734.28139 468.194789 
L 734.888386 467.994747 
L 735.495382 467.584456 
L 736.102378 466.682999 
L 737.316369 460.477449 
L 737.923365 466.232054 
L 738.530361 467.408861 
L 739.137357 467.909775 
L 739.744353 468.155059 
L 740.958344 468.257271 
L 741.56534 468.149594 
L 742.172336 467.898418 
L 742.779332 467.385163 
L 743.386328 466.167501 
L 743.993324 459.82964 
L 744.600319 463.809473 
L 745.207315 466.731848 
L 745.814311 467.606476 
L 746.421307 468.006603 
L 747.028303 468.200684 
L 748.242295 468.23503 
L 748.84929 468.086988 
L 749.456286 467.769438 
L 750.063282 467.106572 
L 750.670278 465.31569 
L 751.277274 183.051678 
L 751.88427 465.334166 
L 752.491265 467.113023 
L 753.098261 467.772935 
L 753.705257 468.089034 
L 754.919249 468.269055 
L 755.526245 468.198885 
L 756.133241 468.00218 
L 756.740236 467.596661 
L 757.347232 466.706561 
L 758.561224 460.239214 
L 759.16822 466.21366 
L 759.775216 467.40564 
L 760.382212 467.910324 
L 760.989207 468.156442 
L 762.203199 468.256033 
L 762.810195 468.144389 
L 763.417191 467.885207 
L 764.024187 467.352899 
L 764.631182 466.067533 
L 765.238178 458.569441 
L 765.845174 464.130538 
L 766.45217 466.806814 
L 767.059166 467.641292 
L 767.666162 468.025649 
L 768.273158 468.210094 
L 769.487149 468.226261 
L 770.094145 468.063555 
L 770.701141 467.718436 
L 771.308137 466.985703 
L 771.915133 464.865866 
L 772.522129 450.370723 
L 773.129124 465.711203 
L 773.73612 467.235865 
L 774.343116 467.832619 
L 774.950112 468.120153 
L 776.164104 468.2645 
L 776.771099 468.173743 
L 777.378095 467.944677 
L 777.985091 467.473024 
L 778.592087 466.384369 
L 779.199083 461.664982 
L 779.806079 463.012657 
L 780.413075 466.589929 
L 781.02007 467.554112 
L 781.627066 467.984286 
L 782.234062 468.19221 
L 783.448054 468.238319 
L 784.05505 468.092608 
L 784.662045 467.775582 
L 785.269041 467.109944 
L 785.876037 465.30037 
L 786.483033 366.989797 
L 787.090029 465.37521 
L 787.697025 467.132997 
L 788.304021 467.786525 
L 788.911016 468.098249 
L 789.518012 468.240592 
L 790.732004 468.188006 
L 791.339 467.974635 
L 791.945996 467.533416 
L 792.552992 466.536269 
L 793.159987 462.686366 
L 793.766983 462.113519 
L 794.373979 466.449833 
L 794.980975 467.500268 
L 795.587971 467.959011 
L 796.194967 468.181027 
L 797.408958 468.244188 
L 798.015954 468.107606 
L 798.62295 467.805133 
L 799.229946 467.172814 
L 799.836942 465.503645 
L 800.443938 433.927351 
L 801.050933 465.163592 
L 801.657929 467.073272 
L 802.264925 467.760746 
L 802.871921 468.086266 
L 802.871921 468.086266 
" clip-path="url(#pf5d8d1b1c0)" style="fill: none; stroke: #000000; stroke-width: 3; stroke-linecap: square"/>
   </g>
   <g id="patch_3">
    <path d="M 166.163625 489.2325 
L 166.163625 28.08 
" style="fill: none; stroke: #000000; stroke-width: 2; stroke-linejoin: miter; stroke-linecap: square"/>
   </g>
   <g id="patch_4">
    <path d="M 833.191364 489.2325 
L 833.191364 28.08 
" style="fill: none; stroke: #000000; stroke-width: 2; stroke-linejoin: miter; stroke-linecap: square"/>
   </g>
   <g id="patch_5">
    <path d="M 166.163625 489.2325 
L 833.191364 489.2325 
" style="fill: none; stroke: #000000; stroke-width: 2; stroke-linejoin: miter; stroke-linecap: square"/>
   </g>
   <g id="patch_6">
    <path d="M 166.163625 28.08 
L 833.191364 28.08 
" style="fill: none; stroke: #000000; stroke-width: 2; stroke-linejoin: miter; stroke-linecap: square"/>
   </g>
  </g>
 </g>
 <defs>
  <clipPath id="pf5d8d1b1c0">
   <rect x="166.163625" y="28.08" width="667.027739" height="461.1525"/>
  </clipPath>
 </defs>
</svg>
