<?xml version="1.0" encoding="utf-8" standalone="no"?>
<!DOCTYPE svg PUBLIC "-//W3C//DTD SVG 1.1//EN"
  "http://www.w3.org/Graphics/SVG/1.1/DTD/svg11.dtd">
<svg xmlns:xlink="http://www.w3.org/1999/xlink" width="864pt" height="576pt" viewBox="0 0 864 576" xmlns="http://www.w3.org/2000/svg" version="1.1">
 <metadata>
  <rdf:RDF xmlns:dc="http://purl.org/dc/elements/1.1/" xmlns:cc="http://creativecommons.org/ns#" xmlns:rdf="http://www.w3.org/1999/02/22-rdf-syntax-ns#">
   <cc:Work>
    <dc:type rdf:resource="http://purl.org/dc/dcmitype/StillImage"/>
    <dc:date>2025-06-09T14:00:40.830321</dc:date>
    <dc:format>image/svg+xml</dc:format>
    <dc:creator>
     <cc:Agent>
      <dc:title>Matplotlib v3.7.2, https://matplotlib.org/</dc:title>
     </cc:Agent>
    </dc:creator>
   </cc:Work>
  </rdf:RDF>
 </metadata>
 <defs>
  <style type="text/css">*{stroke-linejoin: round; stroke-linecap: butt}</style>
 </defs>
 <g id="figure_1">
  <g id="patch_1">
   <path d="M 0 576 
L 864 576 
L 864 0 
L 0 0 
z
" style="fill: #ffffff"/>
  </g>
  <g id="axes_1">
   <g id="patch_2">
    <path d="M 99.843625 489.2325 
L 833.191364 489.2325 
L 833.191364 28.08 
L 99.843625 28.08 
z
" style="fill: #ffffff"/>
   </g>
   <g id="matplotlib.axis_1">
    <g id="xtick_1">
     <g id="line2d_1">
      <path d="M 133.177613 489.2325 
L 133.177613 28.08 
" clip-path="url(#p1438d36bab)" style="fill: none; stroke-dasharray: 3.7,1.6; stroke-dashoffset: 0; stroke: #b0b0b0; stroke-opacity: 0.5"/>
     </g>
     <g id="line2d_2">
      <defs>
       <path id="md261059227" d="M 0 0 
L 0 -10 
" style="stroke: #000000; stroke-width: 2"/>
      </defs>
      <g>
       <use xlink:href="#md261059227" x="133.177613" y="489.2325" style="stroke: #000000; stroke-width: 2"/>
      </g>
     </g>
     <g id="line2d_3">
      <defs>
       <path id="md9256852f7" d="M 0 0 
L 0 10 
" style="stroke: #000000; stroke-width: 2"/>
      </defs>
      <g>
       <use xlink:href="#md9256852f7" x="133.177613" y="28.08" style="stroke: #000000; stroke-width: 2"/>
      </g>
     </g>
     <g id="text_1">
      <!-- 0 -->
      <g transform="translate(124.906363 512.488438) scale(0.26 -0.26)">
       <defs>
        <path id="DejaVuSerif-30" d="M 2034 219 
Q 2513 219 2750 744 
Q 2988 1269 2988 2328 
Q 2988 3391 2750 3916 
Q 2513 4441 2034 4441 
Q 1556 4441 1318 3916 
Q 1081 3391 1081 2328 
Q 1081 1269 1318 744 
Q 1556 219 2034 219 
z
M 2034 -91 
Q 1275 -91 848 546 
Q 422 1184 422 2328 
Q 422 3475 848 4112 
Q 1275 4750 2034 4750 
Q 2797 4750 3222 4112 
Q 3647 3475 3647 2328 
Q 3647 1184 3222 546 
Q 2797 -91 2034 -91 
z
" transform="scale(0.015625)"/>
       </defs>
       <use xlink:href="#DejaVuSerif-30"/>
      </g>
     </g>
    </g>
    <g id="xtick_2">
     <g id="line2d_4">
      <path d="M 266.513566 489.2325 
L 266.513566 28.08 
" clip-path="url(#p1438d36bab)" style="fill: none; stroke-dasharray: 3.7,1.6; stroke-dashoffset: 0; stroke: #b0b0b0; stroke-opacity: 0.5"/>
     </g>
     <g id="line2d_5">
      <g>
       <use xlink:href="#md261059227" x="266.513566" y="489.2325" style="stroke: #000000; stroke-width: 2"/>
      </g>
     </g>
     <g id="line2d_6">
      <g>
       <use xlink:href="#md9256852f7" x="266.513566" y="28.08" style="stroke: #000000; stroke-width: 2"/>
      </g>
     </g>
     <g id="text_2">
      <!-- 500 -->
      <g transform="translate(241.699816 512.488438) scale(0.26 -0.26)">
       <defs>
        <path id="DejaVuSerif-35" d="M 3219 4666 
L 3219 4153 
L 1081 4153 
L 1081 2816 
Q 1244 2928 1461 2984 
Q 1678 3041 1947 3041 
Q 2703 3041 3140 2622 
Q 3578 2203 3578 1478 
Q 3578 738 3136 323 
Q 2694 -91 1894 -91 
Q 1572 -91 1234 -12 
Q 897 66 544 225 
L 544 1131 
L 897 1131 
Q 925 688 1179 453 
Q 1434 219 1894 219 
Q 2388 219 2653 544 
Q 2919 869 2919 1478 
Q 2919 2084 2655 2407 
Q 2391 2731 1894 2731 
Q 1613 2731 1398 2631 
Q 1184 2531 1019 2322 
L 750 2322 
L 750 4666 
L 3219 4666 
z
" transform="scale(0.015625)"/>
       </defs>
       <use xlink:href="#DejaVuSerif-35"/>
       <use xlink:href="#DejaVuSerif-30" x="63.623047"/>
       <use xlink:href="#DejaVuSerif-30" x="127.246094"/>
      </g>
     </g>
    </g>
    <g id="xtick_3">
     <g id="line2d_7">
      <path d="M 399.849518 489.2325 
L 399.849518 28.08 
" clip-path="url(#p1438d36bab)" style="fill: none; stroke-dasharray: 3.7,1.6; stroke-dashoffset: 0; stroke: #b0b0b0; stroke-opacity: 0.5"/>
     </g>
     <g id="line2d_8">
      <g>
       <use xlink:href="#md261059227" x="399.849518" y="489.2325" style="stroke: #000000; stroke-width: 2"/>
      </g>
     </g>
     <g id="line2d_9">
      <g>
       <use xlink:href="#md9256852f7" x="399.849518" y="28.08" style="stroke: #000000; stroke-width: 2"/>
      </g>
     </g>
     <g id="text_3">
      <!-- 1000 -->
      <g transform="translate(366.764518 512.488438) scale(0.26 -0.26)">
       <defs>
        <path id="DejaVuSerif-31" d="M 909 0 
L 909 331 
L 1722 331 
L 1722 4213 
L 781 3603 
L 781 4013 
L 1919 4750 
L 2350 4750 
L 2350 331 
L 3163 331 
L 3163 0 
L 909 0 
z
" transform="scale(0.015625)"/>
       </defs>
       <use xlink:href="#DejaVuSerif-31"/>
       <use xlink:href="#DejaVuSerif-30" x="63.623047"/>
       <use xlink:href="#DejaVuSerif-30" x="127.246094"/>
       <use xlink:href="#DejaVuSerif-30" x="190.869141"/>
      </g>
     </g>
    </g>
    <g id="xtick_4">
     <g id="line2d_10">
      <path d="M 533.185471 489.2325 
L 533.185471 28.08 
" clip-path="url(#p1438d36bab)" style="fill: none; stroke-dasharray: 3.7,1.6; stroke-dashoffset: 0; stroke: #b0b0b0; stroke-opacity: 0.5"/>
     </g>
     <g id="line2d_11">
      <g>
       <use xlink:href="#md261059227" x="533.185471" y="489.2325" style="stroke: #000000; stroke-width: 2"/>
      </g>
     </g>
     <g id="line2d_12">
      <g>
       <use xlink:href="#md9256852f7" x="533.185471" y="28.08" style="stroke: #000000; stroke-width: 2"/>
      </g>
     </g>
     <g id="text_4">
      <!-- 1500 -->
      <g transform="translate(500.100471 512.488438) scale(0.26 -0.26)">
       <use xlink:href="#DejaVuSerif-31"/>
       <use xlink:href="#DejaVuSerif-35" x="63.623047"/>
       <use xlink:href="#DejaVuSerif-30" x="127.246094"/>
       <use xlink:href="#DejaVuSerif-30" x="190.869141"/>
      </g>
     </g>
    </g>
    <g id="xtick_5">
     <g id="line2d_13">
      <path d="M 666.521423 489.2325 
L 666.521423 28.08 
" clip-path="url(#p1438d36bab)" style="fill: none; stroke-dasharray: 3.7,1.6; stroke-dashoffset: 0; stroke: #b0b0b0; stroke-opacity: 0.5"/>
     </g>
     <g id="line2d_14">
      <g>
       <use xlink:href="#md261059227" x="666.521423" y="489.2325" style="stroke: #000000; stroke-width: 2"/>
      </g>
     </g>
     <g id="line2d_15">
      <g>
       <use xlink:href="#md9256852f7" x="666.521423" y="28.08" style="stroke: #000000; stroke-width: 2"/>
      </g>
     </g>
     <g id="text_5">
      <!-- 2000 -->
      <g transform="translate(633.436423 512.488438) scale(0.26 -0.26)">
       <defs>
        <path id="DejaVuSerif-32" d="M 819 3553 
L 469 3553 
L 469 4384 
Q 803 4563 1142 4656 
Q 1481 4750 1806 4750 
Q 2534 4750 2956 4397 
Q 3378 4044 3378 3438 
Q 3378 2753 2422 1800 
Q 2347 1728 2309 1691 
L 1131 513 
L 3078 513 
L 3078 1088 
L 3444 1088 
L 3444 0 
L 434 0 
L 434 341 
L 1850 1753 
Q 2319 2222 2519 2614 
Q 2719 3006 2719 3438 
Q 2719 3909 2473 4175 
Q 2228 4441 1797 4441 
Q 1350 4441 1106 4219 
Q 863 3997 819 3553 
z
" transform="scale(0.015625)"/>
       </defs>
       <use xlink:href="#DejaVuSerif-32"/>
       <use xlink:href="#DejaVuSerif-30" x="63.623047"/>
       <use xlink:href="#DejaVuSerif-30" x="127.246094"/>
       <use xlink:href="#DejaVuSerif-30" x="190.869141"/>
      </g>
     </g>
    </g>
    <g id="xtick_6">
     <g id="line2d_16">
      <path d="M 799.857376 489.2325 
L 799.857376 28.08 
" clip-path="url(#p1438d36bab)" style="fill: none; stroke-dasharray: 3.7,1.6; stroke-dashoffset: 0; stroke: #b0b0b0; stroke-opacity: 0.5"/>
     </g>
     <g id="line2d_17">
      <g>
       <use xlink:href="#md261059227" x="799.857376" y="489.2325" style="stroke: #000000; stroke-width: 2"/>
      </g>
     </g>
     <g id="line2d_18">
      <g>
       <use xlink:href="#md9256852f7" x="799.857376" y="28.08" style="stroke: #000000; stroke-width: 2"/>
      </g>
     </g>
     <g id="text_6">
      <!-- 2500 -->
      <g transform="translate(766.772376 512.488438) scale(0.26 -0.26)">
       <use xlink:href="#DejaVuSerif-32"/>
       <use xlink:href="#DejaVuSerif-35" x="63.623047"/>
       <use xlink:href="#DejaVuSerif-30" x="127.246094"/>
       <use xlink:href="#DejaVuSerif-30" x="190.869141"/>
      </g>
     </g>
    </g>
    <g id="text_7">
     <!-- $t$ (a.u.) -->
     <g transform="translate(423.097494 541.651562) scale(0.26 -0.26)">
      <defs>
       <path id="Cmmi10-74" d="M 397 519 
Q 397 613 416 697 
L 878 2534 
L 206 2534 
Q 141 2534 141 2619 
Q 166 2759 225 2759 
L 934 2759 
L 1191 3803 
Q 1216 3888 1291 3947 
Q 1366 4006 1459 4006 
Q 1541 4006 1595 3957 
Q 1650 3909 1650 3828 
Q 1650 3809 1648 3798 
Q 1647 3788 1644 3775 
L 1388 2759 
L 2047 2759 
Q 2113 2759 2113 2675 
Q 2109 2659 2100 2621 
Q 2091 2584 2075 2559 
Q 2059 2534 2028 2534 
L 1331 2534 
L 872 684 
Q 825 503 825 372 
Q 825 97 1013 97 
Q 1294 97 1511 361 
Q 1728 625 1844 941 
Q 1869 978 1894 978 
L 1972 978 
Q 1997 978 2012 961 
Q 2028 944 2028 922 
Q 2028 909 2022 903 
Q 1881 516 1612 222 
Q 1344 -72 997 -72 
Q 744 -72 570 93 
Q 397 259 397 519 
z
" transform="scale(0.015625)"/>
       <path id="DejaVuSerif-20" transform="scale(0.015625)"/>
       <path id="DejaVuSerif-28" d="M 2041 -997 
Q 1281 -656 893 83 
Q 506 822 506 1931 
Q 506 3044 893 3783 
Q 1281 4522 2041 4863 
L 2041 4556 
Q 1559 4225 1350 3623 
Q 1141 3022 1141 1931 
Q 1141 844 1350 242 
Q 1559 -359 2041 -691 
L 2041 -997 
z
" transform="scale(0.015625)"/>
       <path id="DejaVuSerif-61" d="M 2547 1044 
L 2547 1747 
L 1806 1747 
Q 1378 1747 1168 1562 
Q 959 1378 959 997 
Q 959 650 1171 447 
Q 1384 244 1747 244 
Q 2106 244 2326 466 
Q 2547 688 2547 1044 
z
M 3122 2075 
L 3122 331 
L 3634 331 
L 3634 0 
L 2547 0 
L 2547 359 
Q 2356 128 2106 18 
Q 1856 -91 1522 -91 
Q 969 -91 644 203 
Q 319 497 319 997 
Q 319 1513 691 1797 
Q 1063 2081 1741 2081 
L 2547 2081 
L 2547 2309 
Q 2547 2688 2317 2895 
Q 2088 3103 1672 3103 
Q 1328 3103 1125 2947 
Q 922 2791 872 2484 
L 575 2484 
L 575 3156 
Q 875 3284 1158 3348 
Q 1441 3413 1709 3413 
Q 2400 3413 2761 3070 
Q 3122 2728 3122 2075 
z
" transform="scale(0.015625)"/>
       <path id="DejaVuSerif-2e" d="M 603 325 
Q 603 500 722 622 
Q 841 744 1019 744 
Q 1191 744 1312 622 
Q 1434 500 1434 325 
Q 1434 153 1312 31 
Q 1191 -91 1019 -91 
Q 841 -91 722 29 
Q 603 150 603 325 
z
" transform="scale(0.015625)"/>
       <path id="DejaVuSerif-75" d="M 2266 3322 
L 3341 3322 
L 3341 331 
L 3884 331 
L 3884 0 
L 2766 0 
L 2766 588 
Q 2606 256 2353 82 
Q 2100 -91 1766 -91 
Q 1213 -91 952 223 
Q 691 538 691 1209 
L 691 2988 
L 172 2988 
L 172 3322 
L 1269 3322 
L 1269 1388 
Q 1269 781 1417 556 
Q 1566 331 1947 331 
Q 2347 331 2556 625 
Q 2766 919 2766 1478 
L 2766 2988 
L 2266 2988 
L 2266 3322 
z
" transform="scale(0.015625)"/>
       <path id="DejaVuSerif-29" d="M 453 -997 
L 453 -691 
Q 934 -359 1145 242 
Q 1356 844 1356 1931 
Q 1356 3022 1145 3623 
Q 934 4225 453 4556 
L 453 4863 
Q 1216 4522 1603 3783 
Q 1991 3044 1991 1931 
Q 1991 822 1603 83 
Q 1216 -656 453 -997 
z
" transform="scale(0.015625)"/>
      </defs>
      <use xlink:href="#Cmmi10-74" transform="translate(0 0.015625)"/>
      <use xlink:href="#DejaVuSerif-20" transform="translate(36.083984 0.015625)"/>
      <use xlink:href="#DejaVuSerif-28" transform="translate(67.871094 0.015625)"/>
      <use xlink:href="#DejaVuSerif-61" transform="translate(106.884766 0.015625)"/>
      <use xlink:href="#DejaVuSerif-2e" transform="translate(166.503906 0.015625)"/>
      <use xlink:href="#DejaVuSerif-75" transform="translate(198.291016 0.015625)"/>
      <use xlink:href="#DejaVuSerif-2e" transform="translate(262.695312 0.015625)"/>
      <use xlink:href="#DejaVuSerif-29" transform="translate(294.482422 0.015625)"/>
     </g>
    </g>
   </g>
   <g id="matplotlib.axis_2">
    <g id="ytick_1">
     <g id="line2d_19">
      <path d="M 99.843625 468.439982 
L 833.191364 468.439982 
" clip-path="url(#p1438d36bab)" style="fill: none; stroke-dasharray: 3.7,1.6; stroke-dashoffset: 0; stroke: #b0b0b0; stroke-opacity: 0.5"/>
     </g>
     <g id="line2d_20">
      <defs>
       <path id="m6385ef873a" d="M 0 0 
L 10 0 
" style="stroke: #000000; stroke-width: 2"/>
      </defs>
      <g>
       <use xlink:href="#m6385ef873a" x="99.843625" y="468.439982" style="stroke: #000000; stroke-width: 2"/>
      </g>
     </g>
     <g id="line2d_21">
      <defs>
       <path id="m582e7ff096" d="M 0 0 
L -10 0 
" style="stroke: #000000; stroke-width: 2"/>
      </defs>
      <g>
       <use xlink:href="#m582e7ff096" x="833.191364" y="468.439982" style="stroke: #000000; stroke-width: 2"/>
      </g>
     </g>
     <g id="text_8">
      <!-- 0 -->
      <g transform="translate(79.801125 478.317951) scale(0.26 -0.26)">
       <use xlink:href="#DejaVuSerif-30"/>
      </g>
     </g>
    </g>
    <g id="ytick_2">
     <g id="line2d_22">
      <path d="M 99.843625 384.560713 
L 833.191364 384.560713 
" clip-path="url(#p1438d36bab)" style="fill: none; stroke-dasharray: 3.7,1.6; stroke-dashoffset: 0; stroke: #b0b0b0; stroke-opacity: 0.5"/>
     </g>
     <g id="line2d_23">
      <g>
       <use xlink:href="#m6385ef873a" x="99.843625" y="384.560713" style="stroke: #000000; stroke-width: 2"/>
      </g>
     </g>
     <g id="line2d_24">
      <g>
       <use xlink:href="#m582e7ff096" x="833.191364" y="384.560713" style="stroke: #000000; stroke-width: 2"/>
      </g>
     </g>
     <g id="text_9">
      <!-- 2 -->
      <g transform="translate(79.801125 394.438681) scale(0.26 -0.26)">
       <use xlink:href="#DejaVuSerif-32"/>
      </g>
     </g>
    </g>
    <g id="ytick_3">
     <g id="line2d_25">
      <path d="M 99.843625 300.681443 
L 833.191364 300.681443 
" clip-path="url(#p1438d36bab)" style="fill: none; stroke-dasharray: 3.7,1.6; stroke-dashoffset: 0; stroke: #b0b0b0; stroke-opacity: 0.5"/>
     </g>
     <g id="line2d_26">
      <g>
       <use xlink:href="#m6385ef873a" x="99.843625" y="300.681443" style="stroke: #000000; stroke-width: 2"/>
      </g>
     </g>
     <g id="line2d_27">
      <g>
       <use xlink:href="#m582e7ff096" x="833.191364" y="300.681443" style="stroke: #000000; stroke-width: 2"/>
      </g>
     </g>
     <g id="text_10">
      <!-- 4 -->
      <g transform="translate(79.801125 310.559412) scale(0.26 -0.26)">
       <defs>
        <path id="DejaVuSerif-34" d="M 2234 1581 
L 2234 4063 
L 641 1581 
L 2234 1581 
z
M 3609 0 
L 1484 0 
L 1484 331 
L 2234 331 
L 2234 1247 
L 197 1247 
L 197 1588 
L 2241 4750 
L 2859 4750 
L 2859 1581 
L 3750 1581 
L 3750 1247 
L 2859 1247 
L 2859 331 
L 3609 331 
L 3609 0 
z
" transform="scale(0.015625)"/>
       </defs>
       <use xlink:href="#DejaVuSerif-34"/>
      </g>
     </g>
    </g>
    <g id="ytick_4">
     <g id="line2d_28">
      <path d="M 99.843625 216.802174 
L 833.191364 216.802174 
" clip-path="url(#p1438d36bab)" style="fill: none; stroke-dasharray: 3.7,1.6; stroke-dashoffset: 0; stroke: #b0b0b0; stroke-opacity: 0.5"/>
     </g>
     <g id="line2d_29">
      <g>
       <use xlink:href="#m6385ef873a" x="99.843625" y="216.802174" style="stroke: #000000; stroke-width: 2"/>
      </g>
     </g>
     <g id="line2d_30">
      <g>
       <use xlink:href="#m582e7ff096" x="833.191364" y="216.802174" style="stroke: #000000; stroke-width: 2"/>
      </g>
     </g>
     <g id="text_11">
      <!-- 6 -->
      <g transform="translate(79.801125 226.680143) scale(0.26 -0.26)">
       <defs>
        <path id="DejaVuSerif-36" d="M 2094 219 
Q 2534 219 2771 542 
Q 3009 866 3009 1472 
Q 3009 2078 2771 2401 
Q 2534 2725 2094 2725 
Q 1647 2725 1412 2412 
Q 1178 2100 1178 1509 
Q 1178 888 1415 553 
Q 1653 219 2094 219 
z
M 1075 2569 
Q 1288 2803 1556 2918 
Q 1825 3034 2163 3034 
Q 2859 3034 3264 2615 
Q 3669 2197 3669 1472 
Q 3669 763 3233 336 
Q 2797 -91 2069 -91 
Q 1278 -91 853 498 
Q 428 1088 428 2181 
Q 428 3406 931 4078 
Q 1434 4750 2350 4750 
Q 2597 4750 2869 4703 
Q 3141 4656 3425 4563 
L 3425 3794 
L 3072 3794 
Q 3034 4109 2831 4275 
Q 2628 4441 2284 4441 
Q 1678 4441 1381 3981 
Q 1084 3522 1075 2569 
z
" transform="scale(0.015625)"/>
       </defs>
       <use xlink:href="#DejaVuSerif-36"/>
      </g>
     </g>
    </g>
    <g id="ytick_5">
     <g id="line2d_31">
      <path d="M 99.843625 132.922905 
L 833.191364 132.922905 
" clip-path="url(#p1438d36bab)" style="fill: none; stroke-dasharray: 3.7,1.6; stroke-dashoffset: 0; stroke: #b0b0b0; stroke-opacity: 0.5"/>
     </g>
     <g id="line2d_32">
      <g>
       <use xlink:href="#m6385ef873a" x="99.843625" y="132.922905" style="stroke: #000000; stroke-width: 2"/>
      </g>
     </g>
     <g id="line2d_33">
      <g>
       <use xlink:href="#m582e7ff096" x="833.191364" y="132.922905" style="stroke: #000000; stroke-width: 2"/>
      </g>
     </g>
     <g id="text_12">
      <!-- 8 -->
      <g transform="translate(79.801125 142.800874) scale(0.26 -0.26)">
       <defs>
        <path id="DejaVuSerif-38" d="M 2981 1275 
Q 2981 1775 2732 2051 
Q 2484 2328 2034 2328 
Q 1584 2328 1336 2051 
Q 1088 1775 1088 1275 
Q 1088 772 1336 495 
Q 1584 219 2034 219 
Q 2484 219 2732 495 
Q 2981 772 2981 1275 
z
M 2853 3541 
Q 2853 3966 2637 4203 
Q 2422 4441 2034 4441 
Q 1650 4441 1433 4203 
Q 1216 3966 1216 3541 
Q 1216 3113 1433 2875 
Q 1650 2638 2034 2638 
Q 2422 2638 2637 2875 
Q 2853 3113 2853 3541 
z
M 2516 2484 
Q 3047 2413 3344 2092 
Q 3641 1772 3641 1275 
Q 3641 619 3225 264 
Q 2809 -91 2034 -91 
Q 1263 -91 845 264 
Q 428 619 428 1275 
Q 428 1772 725 2092 
Q 1022 2413 1556 2484 
Q 1084 2569 832 2842 
Q 581 3116 581 3541 
Q 581 4103 968 4426 
Q 1356 4750 2034 4750 
Q 2713 4750 3100 4426 
Q 3488 4103 3488 3541 
Q 3488 3116 3236 2842 
Q 2984 2569 2516 2484 
z
" transform="scale(0.015625)"/>
       </defs>
       <use xlink:href="#DejaVuSerif-38"/>
      </g>
     </g>
    </g>
    <g id="ytick_6">
     <g id="line2d_34">
      <path d="M 99.843625 49.043636 
L 833.191364 49.043636 
" clip-path="url(#p1438d36bab)" style="fill: none; stroke-dasharray: 3.7,1.6; stroke-dashoffset: 0; stroke: #b0b0b0; stroke-opacity: 0.5"/>
     </g>
     <g id="line2d_35">
      <g>
       <use xlink:href="#m6385ef873a" x="99.843625" y="49.043636" style="stroke: #000000; stroke-width: 2"/>
      </g>
     </g>
     <g id="line2d_36">
      <g>
       <use xlink:href="#m582e7ff096" x="833.191364" y="49.043636" style="stroke: #000000; stroke-width: 2"/>
      </g>
     </g>
     <g id="text_13">
      <!-- 10 -->
      <g transform="translate(63.258625 58.921605) scale(0.26 -0.26)">
       <use xlink:href="#DejaVuSerif-31"/>
       <use xlink:href="#DejaVuSerif-30" x="63.623047"/>
      </g>
     </g>
    </g>
    <g id="text_14">
     <!-- $|\vec{r}_{\bar{p}}|$ (a.u.) -->
     <g transform="translate(51.198625 316.37625) rotate(-90) scale(0.26 -0.26)">
      <defs>
       <path id="Cmsy10-6a" d="M 763 -1484 
L 763 4684 
Q 763 4734 800 4767 
Q 838 4800 891 4800 
Q 938 4800 978 4767 
Q 1019 4734 1019 4684 
L 1019 -1484 
Q 1019 -1534 978 -1567 
Q 938 -1600 891 -1600 
Q 838 -1600 800 -1567 
Q 763 -1534 763 -1484 
z
" transform="scale(0.015625)"/>
       <path id="Cmmi10-7e" d="M 1281 3809 
Q 1231 3809 1198 3846 
Q 1166 3884 1166 3938 
Q 1166 3984 1198 4023 
Q 1231 4063 1281 4063 
L 3547 4063 
Q 3378 4291 3378 4441 
Q 3378 4497 3417 4533 
Q 3456 4569 3506 4569 
Q 3613 4569 3634 4469 
Q 3697 4194 3938 4044 
Q 4000 4003 4000 3938 
Q 4000 3859 3938 3828 
Q 3575 3647 3353 3347 
Q 3328 3303 3256 3303 
Q 3209 3303 3168 3340 
Q 3128 3378 3128 3431 
Q 3128 3547 3438 3809 
L 1281 3809 
z
" transform="scale(0.015625)"/>
       <path id="Cmmi10-72" d="M 494 109 
Q 494 147 500 166 
L 978 2075 
Q 1025 2253 1025 2388 
Q 1025 2663 838 2663 
Q 638 2663 541 2423 
Q 444 2184 353 1819 
Q 353 1800 334 1789 
Q 316 1778 300 1778 
L 225 1778 
Q 203 1778 187 1801 
Q 172 1825 172 1844 
Q 241 2122 305 2315 
Q 369 2509 505 2668 
Q 641 2828 844 2828 
Q 1066 2828 1233 2700 
Q 1400 2572 1441 2363 
Q 1603 2575 1811 2701 
Q 2019 2828 2266 2828 
Q 2469 2828 2623 2709 
Q 2778 2591 2778 2388 
Q 2778 2225 2676 2104 
Q 2575 1984 2406 1984 
Q 2303 1984 2233 2048 
Q 2163 2113 2163 2216 
Q 2163 2356 2266 2467 
Q 2369 2578 2503 2578 
Q 2400 2663 2253 2663 
Q 1978 2663 1775 2467 
Q 1572 2272 1409 1972 
L 953 141 
Q 931 53 854 -9 
Q 778 -72 684 -72 
Q 606 -72 550 -22 
Q 494 28 494 109 
z
" transform="scale(0.015625)"/>
       <path id="Cmr10-b9" d="M 441 3553 
L 441 3775 
L 2753 3775 
L 2753 3553 
L 441 3553 
z
" transform="scale(0.015625)"/>
       <path id="Cmmi10-70" d="M -159 -1241 
Q -219 -1241 -219 -1159 
Q -197 -1019 -134 -1019 
Q 66 -1019 145 -983 
Q 225 -947 269 -800 
L 991 2081 
Q 1038 2200 1038 2388 
Q 1038 2663 850 2663 
Q 650 2663 553 2423 
Q 456 2184 366 1819 
Q 366 1778 313 1778 
L 238 1778 
Q 222 1778 203 1801 
Q 184 1825 184 1844 
Q 253 2122 317 2315 
Q 381 2509 517 2668 
Q 653 2828 856 2828 
Q 1075 2828 1240 2704 
Q 1406 2581 1453 2369 
Q 1628 2572 1840 2700 
Q 2053 2828 2278 2828 
Q 2547 2828 2745 2684 
Q 2944 2541 3044 2308 
Q 3144 2075 3144 1806 
Q 3144 1394 2933 953 
Q 2722 513 2361 220 
Q 2000 -72 1588 -72 
Q 1400 -72 1248 34 
Q 1097 141 1013 313 
L 722 -825 
Q 706 -919 703 -934 
Q 703 -1019 1125 -1019 
Q 1191 -1019 1191 -1100 
Q 1169 -1184 1155 -1212 
Q 1141 -1241 1081 -1241 
L -159 -1241 
z
M 1594 97 
Q 1816 97 2006 280 
Q 2197 463 2316 691 
Q 2403 863 2479 1111 
Q 2556 1359 2612 1640 
Q 2669 1922 2669 2088 
Q 2669 2234 2630 2362 
Q 2591 2491 2502 2577 
Q 2413 2663 2266 2663 
Q 2031 2663 1823 2495 
Q 1616 2328 1447 2081 
L 1447 2059 
L 1094 647 
Q 1138 419 1263 258 
Q 1388 97 1594 97 
z
" transform="scale(0.015625)"/>
      </defs>
      <use xlink:href="#Cmsy10-6a" transform="translate(0 0.53125)"/>
      <use xlink:href="#Cmmi10-7e" transform="translate(15.746094 5.609375)"/>
      <use xlink:href="#Cmmi10-72" transform="translate(27.685547 0.53125)"/>
      <use xlink:href="#Cmr10-b9" transform="translate(82.24002 -15.653125) scale(0.7)"/>
      <use xlink:href="#Cmmi10-70" transform="translate(77.266875 -16.475) scale(0.7)"/>
      <use xlink:href="#Cmsy10-6a" transform="translate(118.849297 0.53125)"/>
      <use xlink:href="#DejaVuSerif-20" transform="translate(146.534844 0.53125)"/>
      <use xlink:href="#DejaVuSerif-28" transform="translate(178.321953 0.53125)"/>
      <use xlink:href="#DejaVuSerif-61" transform="translate(217.335625 0.53125)"/>
      <use xlink:href="#DejaVuSerif-2e" transform="translate(276.954766 0.53125)"/>
      <use xlink:href="#DejaVuSerif-75" transform="translate(308.741875 0.53125)"/>
      <use xlink:href="#DejaVuSerif-2e" transform="translate(373.146172 0.53125)"/>
      <use xlink:href="#DejaVuSerif-29" transform="translate(404.933281 0.53125)"/>
     </g>
    </g>
   </g>
   <g id="line2d_37">
    <path d="M 133.177613 49.041477 
L 206.585795 183.985828 
L 242.622539 250.673696 
L 264.644994 291.861429 
L 278.659283 318.538586 
L 288.66949 338.036921 
L 296.010308 352.768157 
L 302.016432 365.312582 
L 306.687862 375.524105 
L 310.691944 384.766145 
L 314.02868 392.989511 
L 316.698068 400.047817 
L 319.367457 407.722857 
L 321.369498 414.078445 
L 323.371539 421.208425 
L 324.706234 426.60502 
L 326.040928 432.783336 
L 327.375622 440.2274 
L 328.042969 444.748743 
L 328.710316 450.209163 
L 329.377663 457.51636 
L 330.04501 463.06242 
L 330.712358 453.678538 
L 331.379705 447.754594 
L 332.047052 443.269989 
L 332.714399 439.690171 
L 333.381746 436.76223 
L 334.049093 434.393805 
L 335.383787 430.899567 
L 336.051134 429.656605 
L 336.718482 428.739163 
L 337.385829 428.127646 
L 338.053176 427.831773 
L 338.720523 427.849542 
L 339.38787 428.177615 
L 340.055217 428.824584 
L 340.722564 429.797156 
L 341.389911 431.126051 
L 342.057258 432.83686 
L 342.724606 434.961857 
L 343.391953 437.514696 
L 344.0593 440.604682 
L 344.726647 444.428273 
L 345.393994 449.269766 
L 346.061341 455.819175 
L 346.728688 466.972642 
L 347.396035 455.26857 
L 348.063382 448.839156 
L 348.730729 443.963376 
L 349.398077 440.006077 
L 350.732771 433.977721 
L 352.067465 429.761352 
L 352.734812 428.192585 
L 353.402159 426.935398 
L 354.069506 425.954043 
L 354.736853 425.244318 
L 355.404201 424.806146 
L 356.071548 424.632358 
L 356.738895 424.718059 
L 357.406242 425.038958 
L 358.073589 425.598474 
L 358.740936 426.408374 
L 359.408283 427.496218 
L 360.07563 428.883957 
L 360.742977 430.602172 
L 361.410325 432.685235 
L 362.077672 435.17352 
L 362.745019 438.108939 
L 363.412366 441.60291 
L 364.079713 445.867536 
L 364.74706 451.304717 
L 365.414407 458.969054 
L 366.081754 461.23488 
L 366.749101 452.939885 
L 367.416449 447.687166 
L 368.083796 443.926649 
L 368.751143 441.223919 
L 369.41849 439.380642 
L 370.085837 438.286271 
L 370.753184 437.8678 
L 371.420531 438.094367 
L 372.087878 438.982045 
L 372.755225 440.551795 
L 373.422573 442.903404 
L 374.08992 446.214545 
L 374.757267 450.821302 
L 375.424614 457.608034 
L 376.091961 463.220229 
L 376.759308 454.07942 
L 377.426655 448.684034 
L 378.094002 444.949266 
L 378.761349 442.363513 
L 379.428697 440.704069 
L 380.096044 439.861516 
L 380.763391 439.787989 
L 381.430738 440.47998 
L 382.098085 441.977171 
L 382.765432 444.376282 
L 383.432779 447.874068 
L 384.100126 452.905952 
L 384.767473 460.896247 
L 385.434821 459.394253 
L 386.102168 452.054712 
L 386.769515 447.297186 
L 387.436862 443.984921 
L 388.104209 441.73531 
L 388.771556 440.371387 
L 389.438903 439.807007 
L 390.10625 440.010162 
L 390.773597 440.991968 
L 391.440944 442.810385 
L 392.108292 445.59216 
L 392.775639 449.598846 
L 393.442986 455.484627 
L 394.110333 466.93102 
L 394.77768 456.024323 
L 395.445027 449.926037 
L 396.112374 445.765573 
L 396.779721 442.849351 
L 397.447068 440.897354 
L 398.114416 439.769814 
L 398.781763 439.378225 
L 399.44911 439.715505 
L 400.116457 440.81447 
L 400.783804 442.738074 
L 401.451151 445.617694 
L 402.118498 449.720709 
L 402.785845 455.690439 
L 403.453192 467.680522 
L 404.12054 455.884137 
L 404.787887 449.903825 
L 405.455234 445.855378 
L 406.122581 443.063666 
L 406.789928 441.257012 
L 407.457275 440.305194 
L 408.124622 440.149934 
L 408.791969 440.782205 
L 409.459316 442.239167 
L 410.126664 444.617647 
L 410.794011 448.118648 
L 411.461358 453.193933 
L 412.128705 461.375941 
L 412.796052 458.990523 
L 413.463399 451.844751 
L 414.130746 447.189998 
L 414.798093 443.923289 
L 415.46544 441.708357 
L 416.132788 440.37974 
L 416.800135 439.853581 
L 417.467482 440.099925 
L 418.134829 441.132394 
L 418.802176 443.012726 
L 419.469523 445.874486 
L 420.13687 449.994144 
L 420.804217 456.054643 
L 421.471564 467.160223 
L 422.138912 455.655656 
L 422.806259 449.899225 
L 423.473606 446.069193 
L 424.140953 443.52079 
L 424.8083 441.995454 
L 425.475647 441.375195 
L 426.142994 441.617869 
L 426.810341 442.739403 
L 427.477688 444.820224 
L 428.145036 448.043666 
L 428.812383 452.826788 
L 429.47973 460.511392 
L 430.147077 459.801334 
L 430.814424 452.430656 
L 431.481771 447.781725 
L 432.149118 444.649836 
L 432.816465 442.643247 
L 433.483812 441.58824 
L 434.15116 441.409615 
L 434.818507 442.095541 
L 435.485854 443.692787 
L 436.153201 446.326765 
L 436.820548 450.272587 
L 437.487895 456.233285 
L 438.155242 466.56602 
L 438.822589 455.50515 
L 439.489936 449.81276 
L 440.157283 446.024303 
L 440.824631 443.510432 
L 441.491978 442.017539 
L 442.159325 441.430336 
L 442.826672 441.70891 
L 443.494019 442.871849 
L 444.161366 445.003805 
L 444.828713 448.296614 
L 445.49606 453.191344 
L 446.163407 461.171998 
L 446.830755 459.215695 
L 447.498102 452.100026 
L 448.165449 447.570533 
L 448.832796 444.524886 
L 449.500143 442.592068 
L 450.16749 441.606741 
L 450.834837 441.498841 
L 451.502184 442.261177 
L 452.169531 443.94654 
L 452.836879 446.690819 
L 453.504226 450.793671 
L 454.171573 457.050008 
L 454.83892 464.50085 
L 455.506267 454.782762 
L 456.173614 449.354128 
L 456.840961 445.72843 
L 457.508308 443.342404 
L 458.175655 441.96313 
L 458.843003 441.485605 
L 459.51035 441.87738 
L 460.177697 443.164941 
L 460.845044 445.444706 
L 461.512391 448.932237 
L 462.179738 454.137688 
L 462.847085 463.039268 
L 463.514432 457.860352 
L 464.181779 451.300092 
L 464.849127 447.04436 
L 465.516474 444.195226 
L 466.183821 442.427546 
L 466.851168 441.59496 
L 467.518515 441.638914 
L 468.185862 442.56235 
L 468.853209 444.430933 
L 469.520556 447.403155 
L 470.187903 451.833763 
L 470.855251 458.749849 
L 471.522598 461.75609 
L 472.189945 453.510207 
L 472.857292 448.529503 
L 473.524639 445.191197 
L 474.191986 443.033068 
L 474.859333 441.856433 
L 475.52668 441.574037 
L 476.194027 442.166717 
L 476.861375 443.675447 
L 477.528722 446.219004 
L 478.196069 450.060426 
L 478.863416 455.863176 
L 479.530763 468.271023 
L 480.19811 455.886444 
L 480.865457 450.0781 
L 481.532804 446.235214 
L 482.200151 443.692141 
L 482.867499 442.185304 
L 483.534846 441.595818 
L 484.202193 441.882836 
L 484.86954 443.06589 
L 485.536887 445.233023 
L 486.204234 448.584741 
L 486.871581 453.588748 
L 487.538928 461.905525 
L 488.206275 458.640064 
L 488.873622 451.778812 
L 489.54097 447.382305 
L 490.208317 444.440784 
L 490.875664 442.603672 
L 491.543011 441.714682 
L 492.210358 441.71018 
L 492.877705 442.589863 
L 493.545052 444.41662 
L 494.212399 447.345478 
L 494.879746 451.723888 
L 495.547094 458.547578 
L 496.214441 462.031446 
L 496.881788 453.659754 
L 497.549135 448.643714 
L 498.216482 445.290397 
L 498.883829 443.127646 
L 499.551176 441.953817 
L 500.218523 441.680855 
L 500.88587 442.290024 
L 501.553218 443.823999 
L 502.220565 446.405602 
L 502.887912 450.308157 
L 503.555259 456.232659 
L 504.222606 466.62324 
L 504.889953 455.540967 
L 505.5573 449.874797 
L 506.224647 446.125124 
L 506.891994 443.661424 
L 507.559342 442.231089 
L 508.226689 441.72123 
L 508.894036 442.096169 
L 509.561383 443.381933 
L 510.22873 445.677367 
L 510.896077 449.206097 
L 511.563424 454.506028 
L 512.230771 463.807603 
L 513.565466 451.05866 
L 514.232813 446.92336 
L 514.90016 444.177175 
L 515.567507 442.510367 
L 516.234854 441.784497 
L 516.902201 441.947712 
L 517.569548 443.011278 
L 518.236895 445.054347 
L 518.904242 448.262829 
L 519.57159 453.066136 
L 520.238937 460.883851 
L 520.906284 459.479603 
L 521.573631 452.289098 
L 522.240978 447.755915 
L 522.908325 444.734076 
L 523.575672 442.844921 
L 524.243019 441.922116 
L 524.910366 441.897811 
L 525.577714 442.770325 
L 526.245061 444.603405 
L 526.912408 447.556285 
L 527.579755 451.989622 
L 528.247102 458.962913 
L 528.914449 461.499999 
L 529.581796 453.400503 
L 530.249143 448.496374 
L 530.91649 445.22763 
L 531.583837 443.142397 
L 532.251185 442.047049 
L 532.918532 441.858923 
L 533.585879 442.564894 
L 534.253226 444.215784 
L 534.920573 446.949484 
L 535.58792 451.075656 
L 536.922614 463.792883 
L 537.589961 454.511156 
L 538.257309 449.230544 
L 538.924656 445.725386 
L 539.592003 443.458666 
L 540.25935 442.207812 
L 540.926697 441.875572 
L 541.594044 442.438524 
L 542.261391 443.936915 
L 542.928738 446.492632 
L 543.596085 450.379872 
L 544.263433 456.306051 
L 544.93078 466.421154 
L 545.598127 455.494178 
L 546.265474 449.867518 
L 546.932821 446.154677 
L 547.600168 443.730984 
L 548.267515 442.346414 
L 548.934862 441.890477 
L 549.602209 442.330741 
L 550.269557 443.698492 
L 550.936904 446.102543 
L 551.604251 449.789407 
L 552.271598 455.372158 
L 552.938945 466.026167 
L 553.606292 456.440899 
L 554.273639 450.473124 
L 554.940986 446.568047 
L 555.608333 444.004057 
L 556.275681 442.50331 
L 556.943028 441.942723 
L 557.610375 442.281906 
L 558.277722 443.54497 
L 558.945069 445.831088 
L 559.612416 449.367685 
L 560.279763 454.707787 
L 560.94711 464.238713 
L 562.281805 450.951259 
L 562.949152 446.891331 
L 563.616499 444.215497 
L 564.283846 442.622215 
L 564.951193 441.977987 
L 565.61854 442.235967 
L 566.285887 443.414474 
L 566.953234 445.60501 
L 567.620581 449.020113 
L 568.287929 454.168093 
L 568.955276 463.022627 
L 569.622623 457.893948 
L 570.28997 451.376701 
L 570.957317 447.18407 
L 571.624664 444.416313 
L 572.292011 442.749901 
L 572.959358 442.042209 
L 573.626705 442.241171 
L 574.294053 443.360976 
L 574.9614 445.488281 
L 575.628747 448.827015 
L 576.296094 453.86117 
L 576.963441 462.376116 
L 577.630788 458.320374 
L 578.298135 451.634967 
L 578.965482 447.359758 
L 579.632829 444.534854 
L 580.300176 442.822642 
L 580.967524 442.074732 
L 581.634871 442.235749 
L 582.302218 443.317186 
L 582.969565 445.402477 
L 583.636912 448.689714 
L 584.304259 453.646591 
L 584.971606 461.942923 
L 585.638953 458.633113 
L 586.3063 451.825186 
L 586.973648 447.493806 
L 587.640995 444.632532 
L 588.308342 442.89339 
L 588.975689 442.123999 
L 589.643036 442.266975 
L 590.310383 443.332578 
L 590.97773 445.403233 
L 591.645077 448.675826 
L 592.312424 453.615313 
L 592.979772 461.873755 
L 593.647119 458.686022 
L 594.314466 451.85869 
L 594.981813 447.519774 
L 595.64916 444.65481 
L 596.316507 442.914126 
L 596.983854 442.144786 
L 597.651201 442.289269 
L 598.318548 443.357963 
L 598.985896 445.433785 
L 599.653243 448.714843 
L 600.32059 453.669912 
L 600.987937 461.977761 
L 601.655284 458.610295 
L 602.322631 451.818911 
L 602.989978 447.501136 
L 603.657325 444.654352 
L 604.324672 442.931721 
L 604.99202 442.181753 
L 605.659367 442.348193 
L 606.326714 443.443086 
L 606.994061 445.552127 
L 607.661408 448.879403 
L 608.328755 453.911482 
L 608.996102 462.455933 
L 609.663449 458.271467 
L 610.330796 451.620329 
L 610.998144 447.373113 
L 611.665491 444.577751 
L 612.332838 442.899006 
L 613.000185 442.19033 
L 613.667532 442.398654 
L 614.334879 443.539095 
L 615.002226 445.701756 
L 615.669573 449.099484 
L 616.33692 454.244829 
L 617.004268 463.151765 
L 617.671615 457.823587 
L 618.338962 451.356363 
L 619.006309 447.2055 
L 619.673656 444.481985 
L 620.341003 442.865748 
L 621.00835 442.216928 
L 621.675697 442.486963 
L 622.343044 443.695596 
L 623.010391 445.939786 
L 623.677739 449.44657 
L 624.345086 454.77214 
L 625.012433 464.344975 
L 626.347127 450.958372 
L 627.014474 446.945296 
L 627.681821 444.322948 
L 628.349168 442.792724 
L 629.016515 442.224227 
L 629.683863 442.575087 
L 630.35121 443.871104 
L 631.018557 446.218002 
L 631.685904 449.860985 
L 632.353251 455.414358 
L 633.020598 466.086982 
L 633.687945 456.437453 
L 634.355292 450.509608 
L 635.022639 446.651941 
L 635.689987 444.145484 
L 636.357334 442.714624 
L 637.024681 442.239462 
L 637.692028 442.684728 
L 638.359375 444.083408 
L 639.026722 446.552011 
L 639.694069 450.35879 
L 640.361416 456.196602 
L 641.028763 466.870862 
L 641.696111 455.645489 
L 642.363458 450.016602 
L 643.030805 446.334157 
L 643.698152 443.962042 
L 644.365499 442.648812 
L 645.032846 442.286216 
L 645.700193 442.847371 
L 646.36754 444.3744 
L 647.034887 446.998292 
L 647.702235 451.020032 
L 649.036929 464.177198 
L 649.704276 454.710249 
L 650.371623 449.421596 
L 651.03897 445.945891 
L 651.706317 443.733251 
L 652.373664 442.559267 
L 653.041011 442.329141 
L 653.708359 443.025865 
L 654.375706 444.702448 
L 655.043053 447.50762 
L 655.7104 451.784204 
L 656.377747 458.520277 
L 657.045094 462.112336 
L 657.712441 453.758022 
L 658.379788 448.807998 
L 659.047135 445.548371 
L 659.714483 443.506143 
L 660.38183 442.48308 
L 661.049177 442.398162 
L 661.716524 443.245119 
L 662.383871 445.089555 
L 663.051218 448.1019 
L 663.718565 452.679631 
L 664.385912 460.075808 
L 665.053259 460.272261 
L 665.720607 452.790954 
L 666.387954 448.179108 
L 667.055301 445.145487 
L 667.722648 443.285579 
L 668.389995 442.426435 
L 669.057342 442.501214 
L 669.724689 443.515453 
L 670.392036 445.549606 
L 671.059383 448.801243 
L 671.72673 453.741894 
L 672.394078 462.075771 
L 673.061425 458.549456 
L 673.728772 451.808783 
L 674.396119 447.535662 
L 675.063466 444.737966 
L 675.730813 443.072249 
L 676.39816 442.389995 
L 677.065507 442.638955 
L 677.732854 443.83769 
L 678.400202 446.084115 
L 679.067549 449.609934 
L 679.734896 454.988879 
L 680.402243 464.853996 
L 681.06959 456.934593 
L 681.736937 450.837039 
L 682.404284 446.898021 
L 683.071631 444.342743 
L 683.738978 442.881144 
L 684.406326 442.387893 
L 685.073673 442.825672 
L 685.74102 444.22749 
L 686.408367 446.712209 
L 687.075714 450.555669 
L 687.743061 456.480455 
L 688.410408 465.988248 
L 689.077755 455.39622 
L 689.745102 449.87584 
L 690.41245 446.268147 
L 691.079797 443.96223 
L 691.747144 442.714999 
L 692.414491 442.423265 
L 693.081838 443.065135 
L 693.749185 444.689841 
L 694.416532 447.441676 
L 695.083879 451.654687 
L 695.751226 458.280871 
L 696.418574 462.460154 
L 697.085921 453.939082 
L 697.753268 448.942258 
L 698.420615 445.660939 
L 699.087962 443.609423 
L 699.755309 442.585679 
L 700.422656 442.507603 
L 701.090003 443.369359 
L 701.75735 445.238653 
L 702.424698 448.291366 
L 703.092045 452.941068 
L 703.759392 460.531003 
L 704.426739 459.832345 
L 705.094086 452.556849 
L 705.761433 448.043265 
L 706.42878 445.084874 
L 707.096127 443.293623 
L 707.763474 442.503638 
L 708.430822 442.653156 
L 709.098169 443.753403 
L 709.765516 445.893814 
L 710.432863 449.290798 
L 711.10021 454.472653 
L 711.767557 463.599904 
L 713.102251 451.241789 
L 713.769598 447.185858 
L 714.436945 444.553522 
L 715.104293 443.034808 
L 715.77164 442.496386 
L 716.438987 442.896866 
L 717.106334 444.26677 
L 717.773681 446.723037 
L 718.441028 450.539166 
L 719.108375 456.43148 
L 719.775722 466.149247 
L 720.443069 455.454882 
L 721.110417 449.927998 
L 721.777764 446.325261 
L 722.445111 444.031124 
L 723.112458 442.801687 
L 723.779805 442.534254 
L 724.447152 443.208522 
L 725.114499 444.877005 
L 725.781846 447.691136 
L 726.449193 452.003979 
L 727.116541 458.854156 
L 727.783888 461.680091 
L 728.451235 453.558972 
L 729.118582 448.712327 
L 729.785929 445.537254 
L 730.453276 443.577854 
L 731.120623 442.64336 
L 731.78797 442.65874 
L 732.455317 443.625156 
L 733.122665 445.620521 
L 733.790012 448.840873 
L 734.457359 453.75685 
L 735.124706 462.071347 
L 735.792053 458.562232 
L 736.4594 451.83958 
L 737.126747 447.593315 
L 737.794094 444.830524 
L 738.461441 443.208568 
L 739.128789 442.58075 
L 739.796136 442.898039 
L 740.463483 444.184733 
L 741.13083 446.550048 
L 741.798177 450.252368 
L 742.465524 455.956654 
L 743.132871 468.192459 
L 743.800218 455.921185 
L 744.467565 450.233074 
L 745.134913 446.541988 
L 745.80226 444.186803 
L 746.469607 442.910394 
L 747.136954 442.604324 
L 747.804301 443.245104 
L 748.471648 444.882962 
L 749.138995 447.666907 
L 749.806342 451.94554 
L 750.473689 458.738895 
L 751.141037 461.835667 
L 751.808384 453.647158 
L 752.475731 448.78512 
L 753.143078 445.607766 
L 753.810425 443.653742 
L 754.477772 442.730961 
L 755.145119 442.764585 
L 755.812466 443.757189 
L 756.479813 445.789991 
L 757.147161 449.066857 
L 757.814508 454.082554 
L 758.481855 462.720515 
L 759.149202 458.119493 
L 759.816549 451.590506 
L 760.483896 447.450141 
L 761.151243 444.771302 
L 761.81859 443.227145 
L 762.485937 442.678472 
L 763.153284 443.082136 
L 763.820632 444.469593 
L 764.487979 446.962238 
L 765.155326 450.846546 
L 765.822673 456.889795 
L 766.49002 464.991734 
L 767.157367 455.069199 
L 767.824714 449.713525 
L 768.492061 446.23182 
L 769.159408 444.046568 
L 769.826756 442.927043 
L 770.494103 442.778969 
L 771.16145 443.590847 
L 771.828797 445.42843 
L 772.496144 448.469255 
L 773.163491 453.136837 
L 773.830838 460.83857 
L 774.498185 459.564975 
L 775.165532 452.437482 
L 775.83288 448.016675 
L 776.500227 445.145569 
L 777.167574 443.447331 
L 777.834921 442.762648 
L 778.502268 443.036637 
L 779.169615 444.290698 
L 779.836962 446.632895 
L 780.504309 450.322371 
L 781.171656 456.030189 
L 781.839004 467.754964 
L 782.506351 455.871095 
L 783.173698 450.225534 
L 783.841045 446.573977 
L 784.508392 444.261971 
L 785.175739 443.03539 
L 785.843086 442.788748 
L 786.510433 443.502762 
L 787.17778 445.234938 
L 787.845128 448.149409 
L 788.512475 452.635452 
L 789.179822 459.913632 
L 789.847169 460.462304 
L 790.514516 452.939806 
L 791.181863 448.351105 
L 791.84921 445.368238 
L 792.516557 443.581922 
L 793.183904 442.820455 
L 793.851252 443.022057 
L 794.518599 444.202514 
L 795.185946 446.462838 
L 795.853293 450.048385 
L 796.52064 455.584777 
L 797.187987 466.519766 
L 797.855334 456.332055 
L 798.522681 450.518682 
L 799.190028 446.773819 
L 799.857376 444.394686 
L 799.857376 444.394686 
" clip-path="url(#p1438d36bab)" style="fill: none; stroke: #000000; stroke-width: 3; stroke-linecap: square"/>
   </g>
   <g id="patch_3">
    <path d="M 99.843625 489.2325 
L 99.843625 28.08 
" style="fill: none; stroke: #000000; stroke-width: 2; stroke-linejoin: miter; stroke-linecap: square"/>
   </g>
   <g id="patch_4">
    <path d="M 833.191364 489.2325 
L 833.191364 28.08 
" style="fill: none; stroke: #000000; stroke-width: 2; stroke-linejoin: miter; stroke-linecap: square"/>
   </g>
   <g id="patch_5">
    <path d="M 99.843625 489.2325 
L 833.191364 489.2325 
" style="fill: none; stroke: #000000; stroke-width: 2; stroke-linejoin: miter; stroke-linecap: square"/>
   </g>
   <g id="patch_6">
    <path d="M 99.843625 28.08 
L 833.191364 28.08 
" style="fill: none; stroke: #000000; stroke-width: 2; stroke-linejoin: miter; stroke-linecap: square"/>
   </g>
  </g>
 </g>
 <defs>
  <clipPath id="p1438d36bab">
   <rect x="99.843625" y="28.08" width="733.347739" height="461.1525"/>
  </clipPath>
 </defs>
</svg>
