<?xml version="1.0" encoding="utf-8" standalone="no"?>
<!DOCTYPE svg PUBLIC "-//W3C//DTD SVG 1.1//EN"
  "http://www.w3.org/Graphics/SVG/1.1/DTD/svg11.dtd">
<svg xmlns:xlink="http://www.w3.org/1999/xlink" width="864pt" height="576pt" viewBox="0 0 864 576" xmlns="http://www.w3.org/2000/svg" version="1.1">
 <metadata>
  <rdf:RDF xmlns:dc="http://purl.org/dc/elements/1.1/" xmlns:cc="http://creativecommons.org/ns#" xmlns:rdf="http://www.w3.org/1999/02/22-rdf-syntax-ns#">
   <cc:Work>
    <dc:type rdf:resource="http://purl.org/dc/dcmitype/StillImage"/>
    <dc:date>2025-06-09T14:00:41.664899</dc:date>
    <dc:format>image/svg+xml</dc:format>
    <dc:creator>
     <cc:Agent>
      <dc:title>Matplotlib v3.7.2, https://matplotlib.org/</dc:title>
     </cc:Agent>
    </dc:creator>
   </cc:Work>
  </rdf:RDF>
 </metadata>
 <defs>
  <style type="text/css">*{stroke-linejoin: round; stroke-linecap: butt}</style>
 </defs>
 <g id="figure_1">
  <g id="patch_1">
   <path d="M 0 576 
L 864 576 
L 864 0 
L 0 0 
z
" style="fill: #ffffff"/>
  </g>
  <g id="axes_1">
   <g id="patch_2">
    <path d="M 146.273625 489.2325 
L 833.191364 489.2325 
L 833.191364 28.08 
L 146.273625 28.08 
z
" style="fill: #ffffff"/>
   </g>
   <g id="matplotlib.axis_1">
    <g id="xtick_1">
     <g id="line2d_1">
      <path d="M 177.497159 489.2325 
L 177.497159 28.08 
" clip-path="url(#p7ea8e1c76c)" style="fill: none; stroke-dasharray: 3.7,1.6; stroke-dashoffset: 0; stroke: #b0b0b0; stroke-opacity: 0.5"/>
     </g>
     <g id="line2d_2">
      <defs>
       <path id="meeb8e7b7e6" d="M 0 0 
L 0 -10 
" style="stroke: #000000; stroke-width: 2"/>
      </defs>
      <g>
       <use xlink:href="#meeb8e7b7e6" x="177.497159" y="489.2325" style="stroke: #000000; stroke-width: 2"/>
      </g>
     </g>
     <g id="line2d_3">
      <defs>
       <path id="mbcbe4cd03d" d="M 0 0 
L 0 10 
" style="stroke: #000000; stroke-width: 2"/>
      </defs>
      <g>
       <use xlink:href="#mbcbe4cd03d" x="177.497159" y="28.08" style="stroke: #000000; stroke-width: 2"/>
      </g>
     </g>
     <g id="text_1">
      <!-- 0 -->
      <g transform="translate(169.225909 512.488438) scale(0.26 -0.26)">
       <defs>
        <path id="DejaVuSerif-30" d="M 2034 219 
Q 2513 219 2750 744 
Q 2988 1269 2988 2328 
Q 2988 3391 2750 3916 
Q 2513 4441 2034 4441 
Q 1556 4441 1318 3916 
Q 1081 3391 1081 2328 
Q 1081 1269 1318 744 
Q 1556 219 2034 219 
z
M 2034 -91 
Q 1275 -91 848 546 
Q 422 1184 422 2328 
Q 422 3475 848 4112 
Q 1275 4750 2034 4750 
Q 2797 4750 3222 4112 
Q 3647 3475 3647 2328 
Q 3647 1184 3222 546 
Q 2797 -91 2034 -91 
z
" transform="scale(0.015625)"/>
       </defs>
       <use xlink:href="#DejaVuSerif-30"/>
      </g>
     </g>
    </g>
    <g id="xtick_2">
     <g id="line2d_4">
      <path d="M 302.391293 489.2325 
L 302.391293 28.08 
" clip-path="url(#p7ea8e1c76c)" style="fill: none; stroke-dasharray: 3.7,1.6; stroke-dashoffset: 0; stroke: #b0b0b0; stroke-opacity: 0.5"/>
     </g>
     <g id="line2d_5">
      <g>
       <use xlink:href="#meeb8e7b7e6" x="302.391293" y="489.2325" style="stroke: #000000; stroke-width: 2"/>
      </g>
     </g>
     <g id="line2d_6">
      <g>
       <use xlink:href="#mbcbe4cd03d" x="302.391293" y="28.08" style="stroke: #000000; stroke-width: 2"/>
      </g>
     </g>
     <g id="text_2">
      <!-- 500 -->
      <g transform="translate(277.577543 512.488438) scale(0.26 -0.26)">
       <defs>
        <path id="DejaVuSerif-35" d="M 3219 4666 
L 3219 4153 
L 1081 4153 
L 1081 2816 
Q 1244 2928 1461 2984 
Q 1678 3041 1947 3041 
Q 2703 3041 3140 2622 
Q 3578 2203 3578 1478 
Q 3578 738 3136 323 
Q 2694 -91 1894 -91 
Q 1572 -91 1234 -12 
Q 897 66 544 225 
L 544 1131 
L 897 1131 
Q 925 688 1179 453 
Q 1434 219 1894 219 
Q 2388 219 2653 544 
Q 2919 869 2919 1478 
Q 2919 2084 2655 2407 
Q 2391 2731 1894 2731 
Q 1613 2731 1398 2631 
Q 1184 2531 1019 2322 
L 750 2322 
L 750 4666 
L 3219 4666 
z
" transform="scale(0.015625)"/>
       </defs>
       <use xlink:href="#DejaVuSerif-35"/>
       <use xlink:href="#DejaVuSerif-30" x="63.623047"/>
       <use xlink:href="#DejaVuSerif-30" x="127.246094"/>
      </g>
     </g>
    </g>
    <g id="xtick_3">
     <g id="line2d_7">
      <path d="M 427.285427 489.2325 
L 427.285427 28.08 
" clip-path="url(#p7ea8e1c76c)" style="fill: none; stroke-dasharray: 3.7,1.6; stroke-dashoffset: 0; stroke: #b0b0b0; stroke-opacity: 0.5"/>
     </g>
     <g id="line2d_8">
      <g>
       <use xlink:href="#meeb8e7b7e6" x="427.285427" y="489.2325" style="stroke: #000000; stroke-width: 2"/>
      </g>
     </g>
     <g id="line2d_9">
      <g>
       <use xlink:href="#mbcbe4cd03d" x="427.285427" y="28.08" style="stroke: #000000; stroke-width: 2"/>
      </g>
     </g>
     <g id="text_3">
      <!-- 1000 -->
      <g transform="translate(394.200427 512.488438) scale(0.26 -0.26)">
       <defs>
        <path id="DejaVuSerif-31" d="M 909 0 
L 909 331 
L 1722 331 
L 1722 4213 
L 781 3603 
L 781 4013 
L 1919 4750 
L 2350 4750 
L 2350 331 
L 3163 331 
L 3163 0 
L 909 0 
z
" transform="scale(0.015625)"/>
       </defs>
       <use xlink:href="#DejaVuSerif-31"/>
       <use xlink:href="#DejaVuSerif-30" x="63.623047"/>
       <use xlink:href="#DejaVuSerif-30" x="127.246094"/>
       <use xlink:href="#DejaVuSerif-30" x="190.869141"/>
      </g>
     </g>
    </g>
    <g id="xtick_4">
     <g id="line2d_10">
      <path d="M 552.179561 489.2325 
L 552.179561 28.08 
" clip-path="url(#p7ea8e1c76c)" style="fill: none; stroke-dasharray: 3.7,1.6; stroke-dashoffset: 0; stroke: #b0b0b0; stroke-opacity: 0.5"/>
     </g>
     <g id="line2d_11">
      <g>
       <use xlink:href="#meeb8e7b7e6" x="552.179561" y="489.2325" style="stroke: #000000; stroke-width: 2"/>
      </g>
     </g>
     <g id="line2d_12">
      <g>
       <use xlink:href="#mbcbe4cd03d" x="552.179561" y="28.08" style="stroke: #000000; stroke-width: 2"/>
      </g>
     </g>
     <g id="text_4">
      <!-- 1500 -->
      <g transform="translate(519.094561 512.488438) scale(0.26 -0.26)">
       <use xlink:href="#DejaVuSerif-31"/>
       <use xlink:href="#DejaVuSerif-35" x="63.623047"/>
       <use xlink:href="#DejaVuSerif-30" x="127.246094"/>
       <use xlink:href="#DejaVuSerif-30" x="190.869141"/>
      </g>
     </g>
    </g>
    <g id="xtick_5">
     <g id="line2d_13">
      <path d="M 677.073696 489.2325 
L 677.073696 28.08 
" clip-path="url(#p7ea8e1c76c)" style="fill: none; stroke-dasharray: 3.7,1.6; stroke-dashoffset: 0; stroke: #b0b0b0; stroke-opacity: 0.5"/>
     </g>
     <g id="line2d_14">
      <g>
       <use xlink:href="#meeb8e7b7e6" x="677.073696" y="489.2325" style="stroke: #000000; stroke-width: 2"/>
      </g>
     </g>
     <g id="line2d_15">
      <g>
       <use xlink:href="#mbcbe4cd03d" x="677.073696" y="28.08" style="stroke: #000000; stroke-width: 2"/>
      </g>
     </g>
     <g id="text_5">
      <!-- 2000 -->
      <g transform="translate(643.988696 512.488438) scale(0.26 -0.26)">
       <defs>
        <path id="DejaVuSerif-32" d="M 819 3553 
L 469 3553 
L 469 4384 
Q 803 4563 1142 4656 
Q 1481 4750 1806 4750 
Q 2534 4750 2956 4397 
Q 3378 4044 3378 3438 
Q 3378 2753 2422 1800 
Q 2347 1728 2309 1691 
L 1131 513 
L 3078 513 
L 3078 1088 
L 3444 1088 
L 3444 0 
L 434 0 
L 434 341 
L 1850 1753 
Q 2319 2222 2519 2614 
Q 2719 3006 2719 3438 
Q 2719 3909 2473 4175 
Q 2228 4441 1797 4441 
Q 1350 4441 1106 4219 
Q 863 3997 819 3553 
z
" transform="scale(0.015625)"/>
       </defs>
       <use xlink:href="#DejaVuSerif-32"/>
       <use xlink:href="#DejaVuSerif-30" x="63.623047"/>
       <use xlink:href="#DejaVuSerif-30" x="127.246094"/>
       <use xlink:href="#DejaVuSerif-30" x="190.869141"/>
      </g>
     </g>
    </g>
    <g id="xtick_6">
     <g id="line2d_16">
      <path d="M 801.96783 489.2325 
L 801.96783 28.08 
" clip-path="url(#p7ea8e1c76c)" style="fill: none; stroke-dasharray: 3.7,1.6; stroke-dashoffset: 0; stroke: #b0b0b0; stroke-opacity: 0.5"/>
     </g>
     <g id="line2d_17">
      <g>
       <use xlink:href="#meeb8e7b7e6" x="801.96783" y="489.2325" style="stroke: #000000; stroke-width: 2"/>
      </g>
     </g>
     <g id="line2d_18">
      <g>
       <use xlink:href="#mbcbe4cd03d" x="801.96783" y="28.08" style="stroke: #000000; stroke-width: 2"/>
      </g>
     </g>
     <g id="text_6">
      <!-- 2500 -->
      <g transform="translate(768.88283 512.488438) scale(0.26 -0.26)">
       <use xlink:href="#DejaVuSerif-32"/>
       <use xlink:href="#DejaVuSerif-35" x="63.623047"/>
       <use xlink:href="#DejaVuSerif-30" x="127.246094"/>
       <use xlink:href="#DejaVuSerif-30" x="190.869141"/>
      </g>
     </g>
    </g>
    <g id="text_7">
     <!-- $t$ (a.u.) -->
     <g transform="translate(446.312494 541.651562) scale(0.26 -0.26)">
      <defs>
       <path id="Cmmi10-74" d="M 397 519 
Q 397 613 416 697 
L 878 2534 
L 206 2534 
Q 141 2534 141 2619 
Q 166 2759 225 2759 
L 934 2759 
L 1191 3803 
Q 1216 3888 1291 3947 
Q 1366 4006 1459 4006 
Q 1541 4006 1595 3957 
Q 1650 3909 1650 3828 
Q 1650 3809 1648 3798 
Q 1647 3788 1644 3775 
L 1388 2759 
L 2047 2759 
Q 2113 2759 2113 2675 
Q 2109 2659 2100 2621 
Q 2091 2584 2075 2559 
Q 2059 2534 2028 2534 
L 1331 2534 
L 872 684 
Q 825 503 825 372 
Q 825 97 1013 97 
Q 1294 97 1511 361 
Q 1728 625 1844 941 
Q 1869 978 1894 978 
L 1972 978 
Q 1997 978 2012 961 
Q 2028 944 2028 922 
Q 2028 909 2022 903 
Q 1881 516 1612 222 
Q 1344 -72 997 -72 
Q 744 -72 570 93 
Q 397 259 397 519 
z
" transform="scale(0.015625)"/>
       <path id="DejaVuSerif-20" transform="scale(0.015625)"/>
       <path id="DejaVuSerif-28" d="M 2041 -997 
Q 1281 -656 893 83 
Q 506 822 506 1931 
Q 506 3044 893 3783 
Q 1281 4522 2041 4863 
L 2041 4556 
Q 1559 4225 1350 3623 
Q 1141 3022 1141 1931 
Q 1141 844 1350 242 
Q 1559 -359 2041 -691 
L 2041 -997 
z
" transform="scale(0.015625)"/>
       <path id="DejaVuSerif-61" d="M 2547 1044 
L 2547 1747 
L 1806 1747 
Q 1378 1747 1168 1562 
Q 959 1378 959 997 
Q 959 650 1171 447 
Q 1384 244 1747 244 
Q 2106 244 2326 466 
Q 2547 688 2547 1044 
z
M 3122 2075 
L 3122 331 
L 3634 331 
L 3634 0 
L 2547 0 
L 2547 359 
Q 2356 128 2106 18 
Q 1856 -91 1522 -91 
Q 969 -91 644 203 
Q 319 497 319 997 
Q 319 1513 691 1797 
Q 1063 2081 1741 2081 
L 2547 2081 
L 2547 2309 
Q 2547 2688 2317 2895 
Q 2088 3103 1672 3103 
Q 1328 3103 1125 2947 
Q 922 2791 872 2484 
L 575 2484 
L 575 3156 
Q 875 3284 1158 3348 
Q 1441 3413 1709 3413 
Q 2400 3413 2761 3070 
Q 3122 2728 3122 2075 
z
" transform="scale(0.015625)"/>
       <path id="DejaVuSerif-2e" d="M 603 325 
Q 603 500 722 622 
Q 841 744 1019 744 
Q 1191 744 1312 622 
Q 1434 500 1434 325 
Q 1434 153 1312 31 
Q 1191 -91 1019 -91 
Q 841 -91 722 29 
Q 603 150 603 325 
z
" transform="scale(0.015625)"/>
       <path id="DejaVuSerif-75" d="M 2266 3322 
L 3341 3322 
L 3341 331 
L 3884 331 
L 3884 0 
L 2766 0 
L 2766 588 
Q 2606 256 2353 82 
Q 2100 -91 1766 -91 
Q 1213 -91 952 223 
Q 691 538 691 1209 
L 691 2988 
L 172 2988 
L 172 3322 
L 1269 3322 
L 1269 1388 
Q 1269 781 1417 556 
Q 1566 331 1947 331 
Q 2347 331 2556 625 
Q 2766 919 2766 1478 
L 2766 2988 
L 2266 2988 
L 2266 3322 
z
" transform="scale(0.015625)"/>
       <path id="DejaVuSerif-29" d="M 453 -997 
L 453 -691 
Q 934 -359 1145 242 
Q 1356 844 1356 1931 
Q 1356 3022 1145 3623 
Q 934 4225 453 4556 
L 453 4863 
Q 1216 4522 1603 3783 
Q 1991 3044 1991 1931 
Q 1991 822 1603 83 
Q 1216 -656 453 -997 
z
" transform="scale(0.015625)"/>
      </defs>
      <use xlink:href="#Cmmi10-74" transform="translate(0 0.015625)"/>
      <use xlink:href="#DejaVuSerif-20" transform="translate(36.083984 0.015625)"/>
      <use xlink:href="#DejaVuSerif-28" transform="translate(67.871094 0.015625)"/>
      <use xlink:href="#DejaVuSerif-61" transform="translate(106.884766 0.015625)"/>
      <use xlink:href="#DejaVuSerif-2e" transform="translate(166.503906 0.015625)"/>
      <use xlink:href="#DejaVuSerif-75" transform="translate(198.291016 0.015625)"/>
      <use xlink:href="#DejaVuSerif-2e" transform="translate(262.695312 0.015625)"/>
      <use xlink:href="#DejaVuSerif-29" transform="translate(294.482422 0.015625)"/>
     </g>
    </g>
   </g>
   <g id="matplotlib.axis_2">
    <g id="ytick_1">
     <g id="line2d_19">
      <path d="M 146.273625 471.519941 
L 833.191364 471.519941 
" clip-path="url(#p7ea8e1c76c)" style="fill: none; stroke-dasharray: 3.7,1.6; stroke-dashoffset: 0; stroke: #b0b0b0; stroke-opacity: 0.5"/>
     </g>
     <g id="line2d_20">
      <defs>
       <path id="m542f0bc175" d="M 0 0 
L 10 0 
" style="stroke: #000000; stroke-width: 2"/>
      </defs>
      <g>
       <use xlink:href="#m542f0bc175" x="146.273625" y="471.519941" style="stroke: #000000; stroke-width: 2"/>
      </g>
     </g>
     <g id="line2d_21">
      <defs>
       <path id="m567ffdebd2" d="M 0 0 
L -10 0 
" style="stroke: #000000; stroke-width: 2"/>
      </defs>
      <g>
       <use xlink:href="#m567ffdebd2" x="833.191364" y="471.519941" style="stroke: #000000; stroke-width: 2"/>
      </g>
     </g>
     <g id="text_8">
      <!-- −1.50 -->
      <g transform="translate(63.095813 481.39791) scale(0.26 -0.26)">
       <defs>
        <path id="DejaVuSerif-2212" d="M 678 2259 
L 4684 2259 
L 4684 1753 
L 678 1753 
L 678 2259 
z
" transform="scale(0.015625)"/>
       </defs>
       <use xlink:href="#DejaVuSerif-2212"/>
       <use xlink:href="#DejaVuSerif-31" x="83.789062"/>
       <use xlink:href="#DejaVuSerif-2e" x="147.412109"/>
       <use xlink:href="#DejaVuSerif-35" x="179.199219"/>
       <use xlink:href="#DejaVuSerif-30" x="242.822266"/>
      </g>
     </g>
    </g>
    <g id="ytick_2">
     <g id="line2d_22">
      <path d="M 146.273625 399.952884 
L 833.191364 399.952884 
" clip-path="url(#p7ea8e1c76c)" style="fill: none; stroke-dasharray: 3.7,1.6; stroke-dashoffset: 0; stroke: #b0b0b0; stroke-opacity: 0.5"/>
     </g>
     <g id="line2d_23">
      <g>
       <use xlink:href="#m542f0bc175" x="146.273625" y="399.952884" style="stroke: #000000; stroke-width: 2"/>
      </g>
     </g>
     <g id="line2d_24">
      <g>
       <use xlink:href="#m567ffdebd2" x="833.191364" y="399.952884" style="stroke: #000000; stroke-width: 2"/>
      </g>
     </g>
     <g id="text_9">
      <!-- −1.25 -->
      <g transform="translate(63.095813 409.830853) scale(0.26 -0.26)">
       <use xlink:href="#DejaVuSerif-2212"/>
       <use xlink:href="#DejaVuSerif-31" x="83.789062"/>
       <use xlink:href="#DejaVuSerif-2e" x="147.412109"/>
       <use xlink:href="#DejaVuSerif-32" x="179.199219"/>
       <use xlink:href="#DejaVuSerif-35" x="242.822266"/>
      </g>
     </g>
    </g>
    <g id="ytick_3">
     <g id="line2d_25">
      <path d="M 146.273625 328.385826 
L 833.191364 328.385826 
" clip-path="url(#p7ea8e1c76c)" style="fill: none; stroke-dasharray: 3.7,1.6; stroke-dashoffset: 0; stroke: #b0b0b0; stroke-opacity: 0.5"/>
     </g>
     <g id="line2d_26">
      <g>
       <use xlink:href="#m542f0bc175" x="146.273625" y="328.385826" style="stroke: #000000; stroke-width: 2"/>
      </g>
     </g>
     <g id="line2d_27">
      <g>
       <use xlink:href="#m567ffdebd2" x="833.191364" y="328.385826" style="stroke: #000000; stroke-width: 2"/>
      </g>
     </g>
     <g id="text_10">
      <!-- −1.00 -->
      <g transform="translate(63.095813 338.263795) scale(0.26 -0.26)">
       <use xlink:href="#DejaVuSerif-2212"/>
       <use xlink:href="#DejaVuSerif-31" x="83.789062"/>
       <use xlink:href="#DejaVuSerif-2e" x="147.412109"/>
       <use xlink:href="#DejaVuSerif-30" x="179.199219"/>
       <use xlink:href="#DejaVuSerif-30" x="242.822266"/>
      </g>
     </g>
    </g>
    <g id="ytick_4">
     <g id="line2d_28">
      <path d="M 146.273625 256.818768 
L 833.191364 256.818768 
" clip-path="url(#p7ea8e1c76c)" style="fill: none; stroke-dasharray: 3.7,1.6; stroke-dashoffset: 0; stroke: #b0b0b0; stroke-opacity: 0.5"/>
     </g>
     <g id="line2d_29">
      <g>
       <use xlink:href="#m542f0bc175" x="146.273625" y="256.818768" style="stroke: #000000; stroke-width: 2"/>
      </g>
     </g>
     <g id="line2d_30">
      <g>
       <use xlink:href="#m567ffdebd2" x="833.191364" y="256.818768" style="stroke: #000000; stroke-width: 2"/>
      </g>
     </g>
     <g id="text_11">
      <!-- −0.75 -->
      <g transform="translate(63.095813 266.696737) scale(0.26 -0.26)">
       <defs>
        <path id="DejaVuSerif-37" d="M 3609 4347 
L 1784 0 
L 1319 0 
L 3059 4153 
L 903 4153 
L 903 3578 
L 538 3578 
L 538 4666 
L 3609 4666 
L 3609 4347 
z
" transform="scale(0.015625)"/>
       </defs>
       <use xlink:href="#DejaVuSerif-2212"/>
       <use xlink:href="#DejaVuSerif-30" x="83.789062"/>
       <use xlink:href="#DejaVuSerif-2e" x="147.412109"/>
       <use xlink:href="#DejaVuSerif-37" x="179.199219"/>
       <use xlink:href="#DejaVuSerif-35" x="242.822266"/>
      </g>
     </g>
    </g>
    <g id="ytick_5">
     <g id="line2d_31">
      <path d="M 146.273625 185.251711 
L 833.191364 185.251711 
" clip-path="url(#p7ea8e1c76c)" style="fill: none; stroke-dasharray: 3.7,1.6; stroke-dashoffset: 0; stroke: #b0b0b0; stroke-opacity: 0.5"/>
     </g>
     <g id="line2d_32">
      <g>
       <use xlink:href="#m542f0bc175" x="146.273625" y="185.251711" style="stroke: #000000; stroke-width: 2"/>
      </g>
     </g>
     <g id="line2d_33">
      <g>
       <use xlink:href="#m567ffdebd2" x="833.191364" y="185.251711" style="stroke: #000000; stroke-width: 2"/>
      </g>
     </g>
     <g id="text_12">
      <!-- −0.50 -->
      <g transform="translate(63.095813 195.12968) scale(0.26 -0.26)">
       <use xlink:href="#DejaVuSerif-2212"/>
       <use xlink:href="#DejaVuSerif-30" x="83.789062"/>
       <use xlink:href="#DejaVuSerif-2e" x="147.412109"/>
       <use xlink:href="#DejaVuSerif-35" x="179.199219"/>
       <use xlink:href="#DejaVuSerif-30" x="242.822266"/>
      </g>
     </g>
    </g>
    <g id="ytick_6">
     <g id="line2d_34">
      <path d="M 146.273625 113.684653 
L 833.191364 113.684653 
" clip-path="url(#p7ea8e1c76c)" style="fill: none; stroke-dasharray: 3.7,1.6; stroke-dashoffset: 0; stroke: #b0b0b0; stroke-opacity: 0.5"/>
     </g>
     <g id="line2d_35">
      <g>
       <use xlink:href="#m542f0bc175" x="146.273625" y="113.684653" style="stroke: #000000; stroke-width: 2"/>
      </g>
     </g>
     <g id="line2d_36">
      <g>
       <use xlink:href="#m567ffdebd2" x="833.191364" y="113.684653" style="stroke: #000000; stroke-width: 2"/>
      </g>
     </g>
     <g id="text_13">
      <!-- −0.25 -->
      <g transform="translate(63.095813 123.562622) scale(0.26 -0.26)">
       <use xlink:href="#DejaVuSerif-2212"/>
       <use xlink:href="#DejaVuSerif-30" x="83.789062"/>
       <use xlink:href="#DejaVuSerif-2e" x="147.412109"/>
       <use xlink:href="#DejaVuSerif-32" x="179.199219"/>
       <use xlink:href="#DejaVuSerif-35" x="242.822266"/>
      </g>
     </g>
    </g>
    <g id="ytick_7">
     <g id="line2d_37">
      <path d="M 146.273625 42.117595 
L 833.191364 42.117595 
" clip-path="url(#p7ea8e1c76c)" style="fill: none; stroke-dasharray: 3.7,1.6; stroke-dashoffset: 0; stroke: #b0b0b0; stroke-opacity: 0.5"/>
     </g>
     <g id="line2d_38">
      <g>
       <use xlink:href="#m542f0bc175" x="146.273625" y="42.117595" style="stroke: #000000; stroke-width: 2"/>
      </g>
     </g>
     <g id="line2d_39">
      <g>
       <use xlink:href="#m567ffdebd2" x="833.191364" y="42.117595" style="stroke: #000000; stroke-width: 2"/>
      </g>
     </g>
     <g id="text_14">
      <!-- 0.00 -->
      <g transform="translate(84.883 51.995564) scale(0.26 -0.26)">
       <use xlink:href="#DejaVuSerif-30"/>
       <use xlink:href="#DejaVuSerif-2e" x="63.623047"/>
       <use xlink:href="#DejaVuSerif-30" x="95.410156"/>
       <use xlink:href="#DejaVuSerif-30" x="159.033203"/>
      </g>
     </g>
    </g>
    <g id="text_15">
     <!-- $E_{e,i}(t)$ (a.u.) -->
     <g transform="translate(51.035813 334.05625) rotate(-90) scale(0.26 -0.26)">
      <defs>
       <path id="Cmmi10-45" d="M 300 0 
Q 238 0 238 84 
Q 241 100 250 139 
Q 259 178 276 201 
Q 294 225 319 225 
Q 709 225 863 269 
Q 947 297 984 441 
L 1863 3956 
Q 1875 4019 1875 4044 
Q 1875 4113 1797 4122 
Q 1678 4147 1338 4147 
Q 1275 4147 1275 4231 
Q 1278 4247 1287 4286 
Q 1297 4325 1314 4348 
Q 1331 4372 1356 4372 
L 4825 4372 
Q 4891 4372 4891 4288 
L 4738 2963 
Q 4738 2947 4714 2926 
Q 4691 2906 4672 2906 
L 4616 2906 
Q 4550 2906 4550 2988 
Q 4588 3300 4588 3450 
Q 4588 3706 4500 3848 
Q 4413 3991 4267 4053 
Q 4122 4116 3945 4131 
Q 3769 4147 3481 4147 
L 2753 4147 
Q 2578 4147 2522 4117 
Q 2466 4088 2419 3928 
L 2034 2381 
L 2534 2381 
Q 2859 2381 3025 2426 
Q 3191 2472 3287 2615 
Q 3384 2759 3463 3072 
Q 3469 3094 3486 3111 
Q 3503 3128 3525 3128 
L 3584 3128 
Q 3647 3128 3647 3047 
L 3250 1466 
Q 3238 1409 3188 1409 
L 3128 1409 
Q 3066 1409 3066 1491 
Q 3128 1747 3128 1869 
Q 3128 2056 2959 2106 
Q 2791 2156 2509 2156 
L 1978 2156 
L 1544 416 
Q 1516 338 1516 275 
Q 1516 225 1734 225 
L 2509 225 
Q 2972 225 3259 297 
Q 3547 369 3736 526 
Q 3925 684 4062 928 
Q 4200 1172 4397 1638 
Q 4409 1678 4453 1678 
L 4513 1678 
Q 4538 1678 4556 1656 
Q 4575 1634 4575 1606 
Q 4575 1594 4569 1581 
L 3909 38 
Q 3897 0 3859 0 
L 300 0 
z
" transform="scale(0.015625)"/>
       <path id="Cmmi10-65" d="M 1288 -72 
Q 981 -72 751 87 
Q 522 247 401 517 
Q 281 788 281 1088 
Q 281 1544 511 1945 
Q 741 2347 1134 2587 
Q 1528 2828 1978 2828 
Q 2253 2828 2458 2686 
Q 2663 2544 2663 2278 
Q 2663 1909 2369 1729 
Q 2075 1550 1706 1508 
Q 1338 1466 891 1466 
L 872 1466 
Q 769 1084 769 813 
Q 769 528 900 312 
Q 1031 97 1300 97 
Q 1681 97 2032 272 
Q 2384 447 2606 756 
Q 2625 775 2656 775 
Q 2688 775 2720 739 
Q 2753 703 2753 672 
Q 2753 647 2741 634 
Q 2506 306 2109 117 
Q 1713 -72 1288 -72 
z
M 909 1631 
Q 1281 1631 1597 1665 
Q 1913 1700 2169 1839 
Q 2425 1978 2425 2272 
Q 2425 2391 2359 2480 
Q 2294 2569 2189 2616 
Q 2084 2663 1972 2663 
Q 1700 2663 1483 2516 
Q 1266 2369 1125 2133 
Q 984 1897 909 1631 
z
" transform="scale(0.015625)"/>
       <path id="Cmmi10-3b" d="M 634 -1153 
Q 634 -1125 659 -1100 
Q 891 -878 1019 -587 
Q 1147 -297 1147 25 
L 1147 103 
Q 1044 0 891 0 
Q 744 0 641 103 
Q 538 206 538 353 
Q 538 503 641 603 
Q 744 703 891 703 
Q 1119 703 1216 492 
Q 1313 281 1313 25 
Q 1313 -331 1170 -651 
Q 1028 -972 769 -1228 
Q 744 -1241 728 -1241 
Q 697 -1241 665 -1212 
Q 634 -1184 634 -1153 
z
" transform="scale(0.015625)"/>
       <path id="Cmmi10-69" d="M 500 459 
Q 500 578 550 709 
L 1069 2088 
Q 1153 2322 1153 2472 
Q 1153 2663 1013 2663 
Q 759 2663 595 2402 
Q 431 2141 353 1819 
Q 341 1778 300 1778 
L 225 1778 
Q 172 1778 172 1838 
L 172 1856 
Q 275 2238 487 2533 
Q 700 2828 1025 2828 
Q 1253 2828 1411 2678 
Q 1569 2528 1569 2297 
Q 1569 2178 1516 2047 
L 997 672 
Q 909 459 909 288 
Q 909 97 1056 97 
Q 1306 97 1473 364 
Q 1641 631 1709 941 
Q 1722 978 1759 978 
L 1838 978 
Q 1863 978 1878 961 
Q 1894 944 1894 922 
Q 1894 916 1888 903 
Q 1800 541 1583 234 
Q 1366 -72 1044 -72 
Q 819 -72 659 83 
Q 500 238 500 459 
z
M 1222 3878 
Q 1222 4013 1334 4122 
Q 1447 4231 1581 4231 
Q 1691 4231 1761 4164 
Q 1831 4097 1831 3994 
Q 1831 3850 1717 3742 
Q 1603 3634 1466 3634 
Q 1363 3634 1292 3704 
Q 1222 3775 1222 3878 
z
" transform="scale(0.015625)"/>
       <path id="Cmr10-28" d="M 1984 -1588 
Q 1628 -1306 1370 -942 
Q 1113 -578 948 -165 
Q 784 247 703 697 
Q 622 1147 622 1600 
Q 622 2059 703 2509 
Q 784 2959 951 3375 
Q 1119 3791 1378 4153 
Q 1638 4516 1984 4788 
Q 1984 4800 2016 4800 
L 2075 4800 
Q 2094 4800 2109 4783 
Q 2125 4766 2125 4744 
Q 2125 4716 2113 4703 
Q 1800 4397 1592 4047 
Q 1384 3697 1257 3301 
Q 1131 2906 1075 2482 
Q 1019 2059 1019 1600 
Q 1019 -434 2106 -1491 
Q 2125 -1509 2125 -1544 
Q 2125 -1559 2108 -1579 
Q 2091 -1600 2075 -1600 
L 2016 -1600 
Q 1984 -1600 1984 -1588 
z
" transform="scale(0.015625)"/>
       <path id="Cmr10-29" d="M 416 -1600 
Q 359 -1600 359 -1544 
Q 359 -1516 372 -1503 
Q 1466 -434 1466 1600 
Q 1466 3634 384 4691 
Q 359 4706 359 4744 
Q 359 4766 376 4783 
Q 394 4800 416 4800 
L 475 4800 
Q 494 4800 506 4788 
Q 966 4425 1272 3906 
Q 1578 3388 1720 2800 
Q 1863 2213 1863 1600 
Q 1863 1147 1786 708 
Q 1709 269 1542 -157 
Q 1375 -584 1119 -945 
Q 863 -1306 506 -1588 
Q 494 -1600 475 -1600 
L 416 -1600 
z
" transform="scale(0.015625)"/>
      </defs>
      <use xlink:href="#Cmmi10-45" transform="translate(0 0.015625)"/>
      <use xlink:href="#Cmmi10-65" transform="translate(73.779297 -16.990625) scale(0.7)"/>
      <use xlink:href="#Cmmi10-3b" transform="translate(106.318359 -16.990625) scale(0.7)"/>
      <use xlink:href="#Cmmi10-69" transform="translate(137.989258 -16.990625) scale(0.7)"/>
      <use xlink:href="#Cmr10-28" transform="translate(168.463281 0.015625)"/>
      <use xlink:href="#Cmmi10-74" transform="translate(207.281641 0.015625)"/>
      <use xlink:href="#Cmr10-29" transform="translate(243.365625 0.015625)"/>
      <use xlink:href="#DejaVuSerif-20" transform="translate(282.183984 0.015625)"/>
      <use xlink:href="#DejaVuSerif-28" transform="translate(313.971094 0.015625)"/>
      <use xlink:href="#DejaVuSerif-61" transform="translate(352.984766 0.015625)"/>
      <use xlink:href="#DejaVuSerif-2e" transform="translate(412.603906 0.015625)"/>
      <use xlink:href="#DejaVuSerif-75" transform="translate(444.391016 0.015625)"/>
      <use xlink:href="#DejaVuSerif-2e" transform="translate(508.795313 0.015625)"/>
      <use xlink:href="#DejaVuSerif-29" transform="translate(540.582422 0.015625)"/>
     </g>
    </g>
   </g>
   <g id="line2d_40">
    <path d="M 177.497159 512.764863 
L 178.74735 512.567644 
L 179.997542 512.135726 
L 180.622637 512.065711 
L 181.872829 512.534689 
L 183.12302 511.701116 
L 183.748116 512.216118 
L 184.373212 511.601904 
L 184.998308 511.949779 
L 185.623404 511.461892 
L 186.248499 511.909251 
L 186.873595 511.24576 
L 187.498691 511.199105 
L 188.123787 511.506736 
L 188.748882 511.522824 
L 191.249265 511.02549 
L 191.874361 510.49489 
L 193.124553 510.637379 
L 193.749649 510.281873 
L 194.374744 510.16496 
L 194.99984 510.373357 
L 196.250032 510.074618 
L 196.875127 510.288646 
L 197.500223 510.262817 
L 198.125319 509.47744 
L 198.750415 510.092217 
L 199.37551 509.258043 
L 200.000606 509.789441 
L 201.250798 509.141668 
L 201.875893 509.532038 
L 203.126085 508.699878 
L 203.751181 509.060855 
L 204.376277 509.103163 
L 205.001372 508.868696 
L 205.626468 508.268737 
L 206.251564 508.2953 
L 206.87666 508.888342 
L 207.501755 507.828437 
L 208.126851 508.519575 
L 208.751947 508.357171 
L 209.377043 507.561862 
L 210.002138 507.318229 
L 211.25233 507.12274 
L 211.877426 506.95238 
L 212.502522 507.187268 
L 213.127617 507.797795 
L 213.752713 507.311459 
L 214.377809 506.515201 
L 215.002905 507.532846 
L 215.628 506.230548 
L 216.253096 507.299419 
L 216.878192 505.993576 
L 217.503288 506.722972 
L 218.128383 506.685942 
L 218.753479 505.624047 
L 219.378575 505.809902 
L 220.003671 506.426449 
L 220.628767 506.428971 
L 222.504054 505.131055 
L 223.754245 504.776992 
L 224.379341 504.749063 
L 225.004437 504.839271 
L 226.254628 505.223079 
L 226.879724 505.114395 
L 227.50482 504.515454 
L 228.129916 503.714297 
L 228.755011 503.515807 
L 229.380107 504.147643 
L 230.005203 504.452865 
L 230.630299 503.52205 
L 231.255395 502.880673 
L 231.88049 503.688476 
L 232.505586 503.692706 
L 233.130682 502.455284 
L 234.380873 503.350258 
L 235.005969 502.013373 
L 235.631065 502.630473 
L 236.256161 502.718654 
L 236.881256 501.502247 
L 237.506352 502.562062 
L 238.131448 501.674175 
L 238.756544 501.444692 
L 239.38164 502.1071 
L 240.006735 500.702897 
L 240.631831 501.77998 
L 241.256927 500.732744 
L 242.507118 501.02075 
L 243.132214 500.005671 
L 243.75731 501.028265 
L 244.382406 499.549646 
L 245.007501 500.586793 
L 245.632597 499.499519 
L 246.257693 499.787959 
L 246.882789 499.663508 
L 247.507885 498.953339 
L 248.13298 499.709338 
L 248.758076 498.312953 
L 249.383172 499.436935 
L 250.008268 498.058749 
L 250.633363 498.739457 
L 251.258459 498.182289 
L 251.883555 497.791465 
L 252.508651 498.35047 
L 253.133746 497.016422 
L 253.758842 498.072754 
L 254.383938 496.843814 
L 255.009034 497.148662 
L 255.634129 497.16626 
L 256.259225 496.075167 
L 256.884321 497.110199 
L 257.509417 495.867017 
L 258.134513 495.931789 
L 258.759608 496.376233 
L 259.384704 495.006272 
L 260.0098 495.702323 
L 260.634896 495.552535 
L 261.259991 494.345973 
L 261.885087 495.090946 
L 262.510183 494.939037 
L 263.135279 493.715288 
L 264.38547 494.512222 
L 265.010566 493.402628 
L 265.635662 492.786208 
L 266.260758 493.366325 
L 266.885853 493.565314 
L 268.136045 491.809047 
L 268.761141 491.764762 
L 269.386236 492.131816 
L 270.011332 492.190082 
L 270.636428 492.073699 
L 272.511715 490.541745 
L 273.136811 490.132741 
L 275.012098 489.442258 
L 276.887386 489.029765 
L 277.512481 488.93449 
L 278.137577 488.375874 
L 278.762673 488.212212 
L 279.387769 487.442467 
L 280.012864 486.986504 
L 281.263056 486.869396 
L 281.888152 486.675104 
L 283.138343 485.938185 
L 284.388535 485.021113 
L 285.013631 484.975156 
L 285.638726 484.405313 
L 286.263822 484.308829 
L 287.514014 483.47509 
L 288.139109 483.36851 
L 289.389301 482.535981 
L 290.014397 482.369217 
L 291.264588 481.745566 
L 291.889684 481.281693 
L 292.51478 481.02898 
L 295.015163 479.39287 
L 295.640259 479.706969 
L 297.515546 478.161425 
L 298.140642 478.060329 
L 298.765737 477.707768 
L 299.390833 476.439237 
L 300.015929 476.073965 
L 300.641025 476.419239 
L 301.26612 474.869569 
L 301.891216 475.52658 
L 302.516312 474.277924 
L 303.141408 473.756846 
L 303.766504 474.208104 
L 304.391599 473.358139 
L 305.016695 472.165494 
L 305.641791 471.502103 
L 308.142174 470.269491 
L 310.017461 468.740949 
L 312.517844 466.626872 
L 313.768036 465.567277 
L 314.393132 464.792197 
L 315.643323 462.490669 
L 316.268419 462.070578 
L 316.893515 462.286324 
L 317.51861 460.990555 
L 318.143706 460.096154 
L 318.768802 459.993836 
L 320.018994 457.83649 
L 320.644089 457.846577 
L 321.269185 457.256211 
L 321.894281 456.47745 
L 322.519377 455.420707 
L 323.144472 453.82807 
L 323.769568 453.978549 
L 324.394664 452.267953 
L 326.269951 449.741361 
L 326.895047 449.547078 
L 327.520143 448.199532 
L 328.145238 447.839068 
L 328.770334 446.254699 
L 329.39543 445.880851 
L 330.020526 444.299914 
L 330.645622 443.931123 
L 331.895813 440.957271 
L 333.7711 437.494954 
L 335.021292 435.729736 
L 336.271483 432.177067 
L 336.896579 431.553677 
L 337.521675 429.554659 
L 338.771867 426.779975 
L 339.396962 424.836473 
L 340.022058 423.670649 
L 340.647154 421.333324 
L 341.27225 419.922752 
L 342.522441 416.307534 
L 343.772633 411.61736 
L 345.022824 407.055603 
L 346.273016 401.562279 
L 346.898112 399.10555 
L 348.773399 390.024447 
L 351.898878 370.092192 
L 352.523973 365.668915 
L 353.149069 359.915289 
L 354.399261 349.779521 
L 355.649452 339.561167 
L 356.274548 333.538787 
L 357.52474 316.842634 
L 358.774931 299.106984 
L 359.400027 288.011429 
L 360.025123 271.701584 
L 360.650218 248.85838 
L 361.90041 176.447646 
L 362.525506 196.47511 
L 363.150601 158.81654 
L 363.775697 243.621682 
L 364.400793 70.091042 
L 365.025889 277.899298 
L 365.650985 65.093084 
L 366.27608 213.273163 
L 366.901176 288.587432 
L 367.526272 119.825006 
L 368.151368 287.586279 
L 368.776463 264.348835 
L 369.401559 132.657563 
L 370.026655 107.094519 
L 370.651751 309.792446 
L 371.276846 64.454421 
L 371.901942 306.447015 
L 372.527038 304.424186 
L 373.152134 59.825277 
L 373.777229 196.68181 
L 374.402325 210.25965 
L 375.027421 267.09081 
L 375.652517 250.875569 
L 376.277613 222.698068 
L 376.902708 164.537836 
L 377.527804 161.837788 
L 378.1529 196.61841 
L 378.777996 213.848298 
L 379.403091 265.710773 
L 380.028187 283.156658 
L 380.653283 295.408673 
L 381.278379 267.207403 
L 381.903474 330.92275 
L 382.52857 242.41087 
L 383.153666 334.921985 
L 383.778762 278.746083 
L 384.403858 335.2687 
L 385.028953 349.953312 
L 385.654049 311.6215 
L 386.279145 349.649252 
L 386.904241 267.584242 
L 387.529336 281.178191 
L 388.154432 335.142728 
L 388.779528 346.635835 
L 389.404624 262.062499 
L 390.029719 295.676579 
L 390.654815 336.319866 
L 391.279911 169.766797 
L 391.905007 264.087858 
L 392.530103 151.04448 
L 393.155198 276.292978 
L 393.780294 272.937862 
L 394.40539 224.930497 
L 395.030486 199.752249 
L 395.655581 140.435575 
L 396.280677 113.211726 
L 396.905773 121.777624 
L 397.530869 122.358225 
L 398.155964 109.881983 
L 398.78106 122.351221 
L 400.031252 123.405022 
L 400.656347 123.115564 
L 401.281443 102.52313 
L 401.906539 119.341683 
L 403.156731 116.145719 
L 403.781826 115.02544 
L 404.406922 115.443776 
L 405.032018 116.450444 
L 405.657114 65.596421 
L 406.282209 70.362385 
L 406.907305 72.005245 
L 407.532401 72.708881 
L 408.157497 73.043285 
L 408.782592 73.189457 
L 410.032784 73.168036 
L 411.282976 72.857731 
L 412.533167 72.219308 
L 413.158263 71.637098 
L 413.783359 71.799285 
L 414.408454 72.327708 
L 415.658646 72.883879 
L 416.908837 73.125094 
L 418.159029 73.122112 
L 419.409221 72.795385 
L 420.659412 72.054489 
L 421.284508 52.282384 
L 421.909604 78.737505 
L 422.534699 82.805718 
L 423.159795 83.69401 
L 424.409987 84.875022 
L 425.660178 85.915002 
L 426.285274 80.818937 
L 426.91037 86.546499 
L 427.535465 86.423822 
L 428.160561 86.088147 
L 428.785657 85.391016 
L 429.410753 83.606384 
L 430.035849 29.872355 
L 430.660944 61.96088 
L 431.28604 64.516884 
L 431.911136 65.528822 
L 432.536232 65.763839 
L 434.411519 65.996999 
L 435.66171 65.978274 
L 436.911902 65.746733 
L 437.536998 65.479307 
L 438.162094 64.993741 
L 438.787189 63.929674 
L 439.412285 64.532585 
L 440.037381 66.646168 
L 440.662477 70.376086 
L 441.287572 71.075373 
L 441.912668 75.140813 
L 442.537764 75.537998 
L 445.663243 75.557068 
L 446.288338 75.110058 
L 446.913434 64.012083 
L 447.53853 34.600249 
L 448.163626 31.75328 
L 448.788722 31.004919 
L 449.413817 30.675225 
L 450.664009 30.43236 
L 452.539296 30.417008 
L 454.414583 30.572667 
L 455.664775 30.678231 
L 457.540062 30.506666 
L 461.290637 30.478665 
L 465.041212 30.4681 
L 470.041978 30.448828 
L 472.542361 30.423846 
L 482.543893 30.354598 
L 555.055002 30.099945 
L 616.939483 29.99106 
L 725.081051 29.893055 
L 801.96783 29.853684 
L 801.96783 29.853684 
" clip-path="url(#p7ea8e1c76c)" style="fill: none; stroke: #1f77b4; stroke-width: 3; stroke-linecap: square"/>
   </g>
   <g id="line2d_41">
    <path d="M 177.497159 512.395016 
L 178.74735 512.170766 
L 181.247733 511.461498 
L 181.872829 511.540818 
L 183.12302 511.934828 
L 183.748116 511.96618 
L 185.623404 510.80628 
L 186.248499 510.921689 
L 187.498691 511.388188 
L 188.123787 511.222499 
L 189.373978 510.355022 
L 189.999074 510.224962 
L 191.874361 510.604969 
L 193.124553 510.564548 
L 194.374744 510.26051 
L 194.99984 510.280039 
L 195.624936 510.161713 
L 197.500223 509.479674 
L 198.125319 509.576133 
L 198.750415 509.176709 
L 200.000606 508.911679 
L 200.625702 509.083456 
L 201.250798 508.748747 
L 201.875893 508.597518 
L 202.500989 508.718219 
L 203.126085 508.381963 
L 203.751181 508.487307 
L 204.376277 508.114439 
L 205.001372 508.263734 
L 205.626468 507.931846 
L 206.251564 508.063603 
L 206.87666 507.677843 
L 207.501755 507.795744 
L 208.751947 507.398804 
L 209.377043 507.482955 
L 210.002138 507.135609 
L 210.627234 507.184781 
L 211.25233 507.052499 
L 211.877426 506.780698 
L 212.502522 506.883293 
L 213.127617 506.570105 
L 214.377809 506.49427 
L 215.002905 506.13946 
L 215.628 506.265042 
L 216.253096 505.935096 
L 216.878192 505.934529 
L 218.128383 505.613323 
L 218.753479 505.543375 
L 219.378575 505.338863 
L 220.628767 505.116155 
L 221.253862 504.94194 
L 221.878958 504.932199 
L 222.504054 504.581723 
L 223.12915 504.700132 
L 223.754245 504.359721 
L 224.379341 504.260678 
L 225.004437 504.285742 
L 225.629533 503.91425 
L 226.879724 503.882781 
L 228.129916 503.310836 
L 229.380107 503.290892 
L 230.630299 502.712777 
L 233.130682 502.328015 
L 235.005969 501.620993 
L 239.38164 500.547532 
L 240.631831 500.171611 
L 241.882023 499.909108 
L 243.132214 499.741145 
L 243.75731 499.564086 
L 244.382406 499.147547 
L 245.007501 498.949089 
L 246.257693 498.873188 
L 246.882789 498.469411 
L 247.507885 498.199429 
L 248.13298 498.339915 
L 248.758076 497.870952 
L 250.008268 497.68714 
L 250.633363 497.23865 
L 251.258459 497.350382 
L 251.883555 496.805918 
L 252.508651 496.994562 
L 253.133746 496.365614 
L 253.758842 496.578633 
L 254.383938 496.078091 
L 255.009034 495.900581 
L 255.634129 495.961567 
L 256.259225 495.412364 
L 258.759608 494.751875 
L 259.384704 494.246318 
L 260.634896 493.897389 
L 261.259991 493.577763 
L 261.885087 493.496742 
L 262.510183 493.259191 
L 263.135279 492.832769 
L 266.260758 492.052802 
L 267.510949 491.235531 
L 268.136045 491.135376 
L 268.761141 490.732991 
L 269.386236 490.49047 
L 270.011332 490.688245 
L 270.636428 490.108696 
L 271.261524 490.001352 
L 272.511715 489.163629 
L 275.012098 487.945007 
L 276.26229 487.629478 
L 276.887386 487.578129 
L 278.137577 487.195874 
L 279.387769 485.908252 
L 280.012864 485.242824 
L 280.63796 484.807413 
L 281.263056 484.894201 
L 281.888152 485.146043 
L 282.513247 484.918939 
L 283.763439 483.113247 
L 285.013631 483.637615 
L 285.638726 482.434578 
L 286.263822 482.082357 
L 286.888918 482.494169 
L 287.514014 481.056571 
L 288.139109 481.802427 
L 288.764205 480.478837 
L 289.389301 480.433969 
L 290.014397 480.693659 
L 291.264588 479.026064 
L 291.889684 478.474977 
L 293.139876 477.809753 
L 294.390067 477.858459 
L 295.015163 476.870295 
L 295.640259 476.284603 
L 297.515546 475.166206 
L 298.765737 474.218191 
L 300.015929 473.371526 
L 301.891216 471.946456 
L 303.766504 470.572328 
L 311.267653 463.831551 
L 314.393132 460.686342 
L 316.268419 458.342574 
L 316.893515 457.872523 
L 318.143706 456.149353 
L 318.768802 455.617101 
L 320.018994 453.784689 
L 320.644089 453.273063 
L 322.519377 450.802003 
L 323.144472 449.946542 
L 323.769568 449.499225 
L 326.269951 446.742309 
L 326.895047 445.8098 
L 327.520143 445.116707 
L 330.020526 440.77458 
L 334.396196 432.655343 
L 337.521675 425.230308 
L 338.146771 424.336782 
L 338.771867 422.863566 
L 341.27225 418.778312 
L 343.147537 414.080689 
L 345.64792 405.678825 
L 346.898112 400.872085 
L 350.648686 384.274076 
L 351.273782 382.288998 
L 351.898878 379.488525 
L 353.149069 372.145871 
L 355.024356 357.445008 
L 357.52474 331.116399 
L 358.149835 322.096017 
L 358.774931 308.871694 
L 359.400027 289.976601 
L 360.025123 264.095403 
L 360.650218 229.50061 
L 361.90041 134.167503 
L 363.150601 102.214776 
L 364.400793 83.802834 
L 365.025889 76.826187 
L 365.650985 71.430168 
L 366.901176 62.818166 
L 367.526272 59.560268 
L 368.151368 56.904582 
L 369.401559 53.106408 
L 370.651751 50.217171 
L 372.527038 46.729646 
L 374.402325 44.149475 
L 375.652517 42.746521 
L 377.527804 41.094988 
L 379.403091 39.761434 
L 381.903474 38.34044 
L 384.403858 37.202299 
L 387.529336 36.096889 
L 391.279911 35.065696 
L 395.655581 34.125296 
L 400.656347 33.340419 
L 406.907305 32.563288 
L 416.283742 31.713999 
L 425.035082 31.133923 
L 436.911902 30.58586 
L 453.164392 30.065743 
L 473.167456 29.67532 
L 501.921862 29.36147 
L 544.428374 29.119875 
L 624.440632 28.912627 
L 784.465149 28.757891 
L 801.96783 28.748457 
L 801.96783 28.748457 
" clip-path="url(#p7ea8e1c76c)" style="fill: none; stroke: #ff7f0e; stroke-width: 3; stroke-linecap: square"/>
   </g>
   <g id="patch_3">
    <path d="M 146.273625 489.2325 
L 146.273625 28.08 
" style="fill: none; stroke: #000000; stroke-width: 2; stroke-linejoin: miter; stroke-linecap: square"/>
   </g>
   <g id="patch_4">
    <path d="M 833.191364 489.2325 
L 833.191364 28.08 
" style="fill: none; stroke: #000000; stroke-width: 2; stroke-linejoin: miter; stroke-linecap: square"/>
   </g>
   <g id="patch_5">
    <path d="M 146.273625 489.2325 
L 833.191364 489.2325 
" style="fill: none; stroke: #000000; stroke-width: 2; stroke-linejoin: miter; stroke-linecap: square"/>
   </g>
   <g id="patch_6">
    <path d="M 146.273625 28.08 
L 833.191364 28.08 
" style="fill: none; stroke: #000000; stroke-width: 2; stroke-linejoin: miter; stroke-linecap: square"/>
   </g>
   <g id="legend_1">
    <g id="patch_7">
     <path d="M 686.283864 87.85 
L 821.991364 87.85 
Q 825.191364 87.85 825.191364 84.65 
L 825.191364 39.28 
Q 825.191364 36.08 821.991364 36.08 
L 686.283864 36.08 
Q 683.083864 36.08 683.083864 39.28 
L 683.083864 84.65 
Q 683.083864 87.85 686.283864 87.85 
z
" style="fill: #ffffff; opacity: 0.8; stroke: #cccccc; stroke-linejoin: miter"/>
    </g>
    <g id="line2d_42">
     <path d="M 689.483864 49.0375 
L 705.483864 49.0375 
L 721.483864 49.0375 
" style="fill: none; stroke: #1f77b4; stroke-width: 3; stroke-linecap: square"/>
    </g>
    <g id="text_16">
     <!-- Electron 1 -->
     <g transform="translate(734.283864 54.6375) scale(0.16 -0.16)">
      <defs>
       <path id="DejaVuSerif-45" d="M 353 0 
L 353 331 
L 947 331 
L 947 4331 
L 353 4331 
L 353 4666 
L 4109 4666 
L 4109 3628 
L 3725 3628 
L 3725 4281 
L 1581 4281 
L 1581 2719 
L 3109 2719 
L 3109 3303 
L 3494 3303 
L 3494 1753 
L 3109 1753 
L 3109 2338 
L 1581 2338 
L 1581 384 
L 3775 384 
L 3775 1038 
L 4159 1038 
L 4159 0 
L 353 0 
z
" transform="scale(0.015625)"/>
       <path id="DejaVuSerif-6c" d="M 1313 331 
L 1856 331 
L 1856 0 
L 184 0 
L 184 331 
L 738 331 
L 738 4531 
L 184 4531 
L 184 4863 
L 1313 4863 
L 1313 331 
z
" transform="scale(0.015625)"/>
       <path id="DejaVuSerif-65" d="M 3469 1600 
L 991 1600 
L 991 1575 
Q 991 903 1244 561 
Q 1497 219 1991 219 
Q 2369 219 2611 417 
Q 2853 616 2950 1006 
L 3413 1006 
Q 3275 459 2904 184 
Q 2534 -91 1931 -91 
Q 1203 -91 761 389 
Q 319 869 319 1663 
Q 319 2450 753 2931 
Q 1188 3413 1894 3413 
Q 2647 3413 3050 2948 
Q 3453 2484 3469 1600 
z
M 2791 1931 
Q 2772 2513 2545 2808 
Q 2319 3103 1894 3103 
Q 1497 3103 1269 2806 
Q 1041 2509 991 1931 
L 2791 1931 
z
" transform="scale(0.015625)"/>
       <path id="DejaVuSerif-63" d="M 3291 997 
Q 3169 466 2822 187 
Q 2475 -91 1925 -91 
Q 1200 -91 759 389 
Q 319 869 319 1663 
Q 319 2459 759 2936 
Q 1200 3413 1925 3413 
Q 2241 3413 2553 3339 
Q 2866 3266 3181 3116 
L 3181 2266 
L 2847 2266 
Q 2781 2703 2561 2903 
Q 2341 3103 1931 3103 
Q 1466 3103 1228 2742 
Q 991 2381 991 1663 
Q 991 944 1227 581 
Q 1463 219 1931 219 
Q 2303 219 2525 412 
Q 2747 606 2828 997 
L 3291 997 
z
" transform="scale(0.015625)"/>
       <path id="DejaVuSerif-74" d="M 691 2988 
L 184 2988 
L 184 3322 
L 691 3322 
L 691 4353 
L 1269 4353 
L 1269 3322 
L 2350 3322 
L 2350 2988 
L 1269 2988 
L 1269 878 
Q 1269 456 1350 337 
Q 1431 219 1650 219 
Q 1875 219 1978 351 
Q 2081 484 2088 781 
L 2522 781 
Q 2497 328 2275 118 
Q 2053 -91 1600 -91 
Q 1103 -91 897 129 
Q 691 350 691 878 
L 691 2988 
z
" transform="scale(0.015625)"/>
       <path id="DejaVuSerif-72" d="M 3059 3328 
L 3059 2497 
L 2728 2497 
Q 2713 2744 2591 2866 
Q 2469 2988 2234 2988 
Q 1809 2988 1582 2694 
Q 1356 2400 1356 1850 
L 1356 331 
L 2022 331 
L 2022 0 
L 263 0 
L 263 331 
L 781 331 
L 781 2994 
L 231 2994 
L 231 3322 
L 1356 3322 
L 1356 2731 
Q 1525 3078 1790 3245 
Q 2056 3413 2438 3413 
Q 2578 3413 2733 3391 
Q 2888 3369 3059 3328 
z
" transform="scale(0.015625)"/>
       <path id="DejaVuSerif-6f" d="M 1925 219 
Q 2388 219 2623 584 
Q 2859 950 2859 1663 
Q 2859 2375 2623 2739 
Q 2388 3103 1925 3103 
Q 1463 3103 1227 2739 
Q 991 2375 991 1663 
Q 991 950 1228 584 
Q 1466 219 1925 219 
z
M 1925 -91 
Q 1200 -91 759 389 
Q 319 869 319 1663 
Q 319 2456 758 2934 
Q 1197 3413 1925 3413 
Q 2653 3413 3092 2934 
Q 3531 2456 3531 1663 
Q 3531 869 3092 389 
Q 2653 -91 1925 -91 
z
" transform="scale(0.015625)"/>
       <path id="DejaVuSerif-6e" d="M 263 0 
L 263 331 
L 781 331 
L 781 2988 
L 231 2988 
L 231 3322 
L 1356 3322 
L 1356 2731 
Q 1516 3069 1770 3241 
Q 2025 3413 2363 3413 
Q 2913 3413 3172 3097 
Q 3431 2781 3431 2113 
L 3431 331 
L 3944 331 
L 3944 0 
L 2356 0 
L 2356 331 
L 2853 331 
L 2853 1931 
Q 2853 2541 2703 2767 
Q 2553 2994 2175 2994 
Q 1775 2994 1565 2701 
Q 1356 2409 1356 1850 
L 1356 331 
L 1856 331 
L 1856 0 
L 263 0 
z
" transform="scale(0.015625)"/>
      </defs>
      <use xlink:href="#DejaVuSerif-45"/>
      <use xlink:href="#DejaVuSerif-6c" x="72.998047"/>
      <use xlink:href="#DejaVuSerif-65" x="104.980469"/>
      <use xlink:href="#DejaVuSerif-63" x="164.160156"/>
      <use xlink:href="#DejaVuSerif-74" x="220.166016"/>
      <use xlink:href="#DejaVuSerif-72" x="260.351562"/>
      <use xlink:href="#DejaVuSerif-6f" x="308.154297"/>
      <use xlink:href="#DejaVuSerif-6e" x="368.359375"/>
      <use xlink:href="#DejaVuSerif-20" x="432.763672"/>
      <use xlink:href="#DejaVuSerif-31" x="464.550781"/>
     </g>
    </g>
    <g id="line2d_43">
     <path d="M 689.483864 72.5225 
L 705.483864 72.5225 
L 721.483864 72.5225 
" style="fill: none; stroke: #ff7f0e; stroke-width: 3; stroke-linecap: square"/>
    </g>
    <g id="text_17">
     <!-- Electron 2 -->
     <g transform="translate(734.283864 78.1225) scale(0.16 -0.16)">
      <use xlink:href="#DejaVuSerif-45"/>
      <use xlink:href="#DejaVuSerif-6c" x="72.998047"/>
      <use xlink:href="#DejaVuSerif-65" x="104.980469"/>
      <use xlink:href="#DejaVuSerif-63" x="164.160156"/>
      <use xlink:href="#DejaVuSerif-74" x="220.166016"/>
      <use xlink:href="#DejaVuSerif-72" x="260.351562"/>
      <use xlink:href="#DejaVuSerif-6f" x="308.154297"/>
      <use xlink:href="#DejaVuSerif-6e" x="368.359375"/>
      <use xlink:href="#DejaVuSerif-20" x="432.763672"/>
      <use xlink:href="#DejaVuSerif-32" x="464.550781"/>
     </g>
    </g>
   </g>
  </g>
 </g>
 <defs>
  <clipPath id="p7ea8e1c76c">
   <rect x="146.273625" y="28.08" width="686.917739" height="461.1525"/>
  </clipPath>
 </defs>
</svg>
