<?xml version="1.0" encoding="utf-8" standalone="no"?>
<!DOCTYPE svg PUBLIC "-//W3C//DTD SVG 1.1//EN"
  "http://www.w3.org/Graphics/SVG/1.1/DTD/svg11.dtd">
<svg xmlns:xlink="http://www.w3.org/1999/xlink" width="720pt" height="504pt" viewBox="0 0 720 504" xmlns="http://www.w3.org/2000/svg" version="1.1">
 <metadata>
  <rdf:RDF xmlns:dc="http://purl.org/dc/elements/1.1/" xmlns:cc="http://creativecommons.org/ns#" xmlns:rdf="http://www.w3.org/1999/02/22-rdf-syntax-ns#">
   <cc:Work>
    <dc:type rdf:resource="http://purl.org/dc/dcmitype/StillImage"/>
    <dc:date>2025-06-02T16:53:45.177267</dc:date>
    <dc:format>image/svg+xml</dc:format>
    <dc:creator>
     <cc:Agent>
      <dc:title>Matplotlib v3.7.2, https://matplotlib.org/</dc:title>
     </cc:Agent>
    </dc:creator>
   </cc:Work>
  </rdf:RDF>
 </metadata>
 <defs>
  <style type="text/css">*{stroke-linejoin: round; stroke-linecap: butt}</style>
 </defs>
 <g id="figure_1">
  <g id="patch_1">
   <path d="M 0 504 
L 720 504 
L 720 0 
L 0 0 
z
" style="fill: #ffffff"/>
  </g>
  <g id="axes_1">
   <g id="patch_2">
    <path d="M 103.44 417.2325 
L 415.35 417.2325 
L 415.35 28.08 
L 103.44 28.08 
z
" style="fill: #ffffff"/>
   </g>
   <g id="matplotlib.axis_1">
    <g id="xtick_1">
     <g id="line2d_1">
      <path d="M 117.617727 417.2325 
L 117.617727 28.08 
" clip-path="url(#p5be4b36fa2)" style="fill: none; stroke-dasharray: 3.7,1.6; stroke-dashoffset: 0; stroke: #b0b0b0; stroke-opacity: 0.5"/>
     </g>
     <g id="line2d_2">
      <defs>
       <path id="m46bafa5051" d="M 0 0 
L 0 -10 
" style="stroke: #000000; stroke-width: 2"/>
      </defs>
      <g>
       <use xlink:href="#m46bafa5051" x="117.617727" y="417.2325" style="stroke: #000000; stroke-width: 2"/>
      </g>
     </g>
     <g id="line2d_3">
      <defs>
       <path id="mc8f7191d63" d="M 0 0 
L 0 10 
" style="stroke: #000000; stroke-width: 2"/>
      </defs>
      <g>
       <use xlink:href="#mc8f7191d63" x="117.617727" y="28.08" style="stroke: #000000; stroke-width: 2"/>
      </g>
     </g>
     <g id="text_1">
      <!-- 0 -->
      <g transform="translate(109.346477 440.488437) scale(0.26 -0.26)">
       <defs>
        <path id="DejaVuSerif-30" d="M 2034 219 
Q 2513 219 2750 744 
Q 2988 1269 2988 2328 
Q 2988 3391 2750 3916 
Q 2513 4441 2034 4441 
Q 1556 4441 1318 3916 
Q 1081 3391 1081 2328 
Q 1081 1269 1318 744 
Q 1556 219 2034 219 
z
M 2034 -91 
Q 1275 -91 848 546 
Q 422 1184 422 2328 
Q 422 3475 848 4112 
Q 1275 4750 2034 4750 
Q 2797 4750 3222 4112 
Q 3647 3475 3647 2328 
Q 3647 1184 3222 546 
Q 2797 -91 2034 -91 
z
" transform="scale(0.015625)"/>
       </defs>
       <use xlink:href="#DejaVuSerif-30"/>
      </g>
     </g>
    </g>
    <g id="xtick_2">
     <g id="line2d_4">
      <path d="M 231.039545 417.2325 
L 231.039545 28.08 
" clip-path="url(#p5be4b36fa2)" style="fill: none; stroke-dasharray: 3.7,1.6; stroke-dashoffset: 0; stroke: #b0b0b0; stroke-opacity: 0.5"/>
     </g>
     <g id="line2d_5">
      <g>
       <use xlink:href="#m46bafa5051" x="231.039545" y="417.2325" style="stroke: #000000; stroke-width: 2"/>
      </g>
     </g>
     <g id="line2d_6">
      <g>
       <use xlink:href="#mc8f7191d63" x="231.039545" y="28.08" style="stroke: #000000; stroke-width: 2"/>
      </g>
     </g>
     <g id="text_2">
      <!-- 20 -->
      <g transform="translate(214.497045 440.488437) scale(0.26 -0.26)">
       <defs>
        <path id="DejaVuSerif-32" d="M 819 3553 
L 469 3553 
L 469 4384 
Q 803 4563 1142 4656 
Q 1481 4750 1806 4750 
Q 2534 4750 2956 4397 
Q 3378 4044 3378 3438 
Q 3378 2753 2422 1800 
Q 2347 1728 2309 1691 
L 1131 513 
L 3078 513 
L 3078 1088 
L 3444 1088 
L 3444 0 
L 434 0 
L 434 341 
L 1850 1753 
Q 2319 2222 2519 2614 
Q 2719 3006 2719 3438 
Q 2719 3909 2473 4175 
Q 2228 4441 1797 4441 
Q 1350 4441 1106 4219 
Q 863 3997 819 3553 
z
" transform="scale(0.015625)"/>
       </defs>
       <use xlink:href="#DejaVuSerif-32"/>
       <use xlink:href="#DejaVuSerif-30" x="63.623047"/>
      </g>
     </g>
    </g>
    <g id="xtick_3">
     <g id="line2d_7">
      <path d="M 344.461364 417.2325 
L 344.461364 28.08 
" clip-path="url(#p5be4b36fa2)" style="fill: none; stroke-dasharray: 3.7,1.6; stroke-dashoffset: 0; stroke: #b0b0b0; stroke-opacity: 0.5"/>
     </g>
     <g id="line2d_8">
      <g>
       <use xlink:href="#m46bafa5051" x="344.461364" y="417.2325" style="stroke: #000000; stroke-width: 2"/>
      </g>
     </g>
     <g id="line2d_9">
      <g>
       <use xlink:href="#mc8f7191d63" x="344.461364" y="28.08" style="stroke: #000000; stroke-width: 2"/>
      </g>
     </g>
     <g id="text_3">
      <!-- 40 -->
      <g transform="translate(327.918864 440.488437) scale(0.26 -0.26)">
       <defs>
        <path id="DejaVuSerif-34" d="M 2234 1581 
L 2234 4063 
L 641 1581 
L 2234 1581 
z
M 3609 0 
L 1484 0 
L 1484 331 
L 2234 331 
L 2234 1247 
L 197 1247 
L 197 1588 
L 2241 4750 
L 2859 4750 
L 2859 1581 
L 3750 1581 
L 3750 1247 
L 2859 1247 
L 2859 331 
L 3609 331 
L 3609 0 
z
" transform="scale(0.015625)"/>
       </defs>
       <use xlink:href="#DejaVuSerif-34"/>
       <use xlink:href="#DejaVuSerif-30" x="63.623047"/>
      </g>
     </g>
    </g>
    <g id="text_4">
     <!-- $t$ (a.u.) -->
     <g transform="translate(215.975 469.651562) scale(0.26 -0.26)">
      <defs>
       <path id="Cmmi10-74" d="M 397 519 
Q 397 613 416 697 
L 878 2534 
L 206 2534 
Q 141 2534 141 2619 
Q 166 2759 225 2759 
L 934 2759 
L 1191 3803 
Q 1216 3888 1291 3947 
Q 1366 4006 1459 4006 
Q 1541 4006 1595 3957 
Q 1650 3909 1650 3828 
Q 1650 3809 1648 3798 
Q 1647 3788 1644 3775 
L 1388 2759 
L 2047 2759 
Q 2113 2759 2113 2675 
Q 2109 2659 2100 2621 
Q 2091 2584 2075 2559 
Q 2059 2534 2028 2534 
L 1331 2534 
L 872 684 
Q 825 503 825 372 
Q 825 97 1013 97 
Q 1294 97 1511 361 
Q 1728 625 1844 941 
Q 1869 978 1894 978 
L 1972 978 
Q 1997 978 2012 961 
Q 2028 944 2028 922 
Q 2028 909 2022 903 
Q 1881 516 1612 222 
Q 1344 -72 997 -72 
Q 744 -72 570 93 
Q 397 259 397 519 
z
" transform="scale(0.015625)"/>
       <path id="DejaVuSerif-20" transform="scale(0.015625)"/>
       <path id="DejaVuSerif-28" d="M 2041 -997 
Q 1281 -656 893 83 
Q 506 822 506 1931 
Q 506 3044 893 3783 
Q 1281 4522 2041 4863 
L 2041 4556 
Q 1559 4225 1350 3623 
Q 1141 3022 1141 1931 
Q 1141 844 1350 242 
Q 1559 -359 2041 -691 
L 2041 -997 
z
" transform="scale(0.015625)"/>
       <path id="DejaVuSerif-61" d="M 2547 1044 
L 2547 1747 
L 1806 1747 
Q 1378 1747 1168 1562 
Q 959 1378 959 997 
Q 959 650 1171 447 
Q 1384 244 1747 244 
Q 2106 244 2326 466 
Q 2547 688 2547 1044 
z
M 3122 2075 
L 3122 331 
L 3634 331 
L 3634 0 
L 2547 0 
L 2547 359 
Q 2356 128 2106 18 
Q 1856 -91 1522 -91 
Q 969 -91 644 203 
Q 319 497 319 997 
Q 319 1513 691 1797 
Q 1063 2081 1741 2081 
L 2547 2081 
L 2547 2309 
Q 2547 2688 2317 2895 
Q 2088 3103 1672 3103 
Q 1328 3103 1125 2947 
Q 922 2791 872 2484 
L 575 2484 
L 575 3156 
Q 875 3284 1158 3348 
Q 1441 3413 1709 3413 
Q 2400 3413 2761 3070 
Q 3122 2728 3122 2075 
z
" transform="scale(0.015625)"/>
       <path id="DejaVuSerif-2e" d="M 603 325 
Q 603 500 722 622 
Q 841 744 1019 744 
Q 1191 744 1312 622 
Q 1434 500 1434 325 
Q 1434 153 1312 31 
Q 1191 -91 1019 -91 
Q 841 -91 722 29 
Q 603 150 603 325 
z
" transform="scale(0.015625)"/>
       <path id="DejaVuSerif-75" d="M 2266 3322 
L 3341 3322 
L 3341 331 
L 3884 331 
L 3884 0 
L 2766 0 
L 2766 588 
Q 2606 256 2353 82 
Q 2100 -91 1766 -91 
Q 1213 -91 952 223 
Q 691 538 691 1209 
L 691 2988 
L 172 2988 
L 172 3322 
L 1269 3322 
L 1269 1388 
Q 1269 781 1417 556 
Q 1566 331 1947 331 
Q 2347 331 2556 625 
Q 2766 919 2766 1478 
L 2766 2988 
L 2266 2988 
L 2266 3322 
z
" transform="scale(0.015625)"/>
       <path id="DejaVuSerif-29" d="M 453 -997 
L 453 -691 
Q 934 -359 1145 242 
Q 1356 844 1356 1931 
Q 1356 3022 1145 3623 
Q 934 4225 453 4556 
L 453 4863 
Q 1216 4522 1603 3783 
Q 1991 3044 1991 1931 
Q 1991 822 1603 83 
Q 1216 -656 453 -997 
z
" transform="scale(0.015625)"/>
      </defs>
      <use xlink:href="#Cmmi10-74" transform="translate(0 0.015625)"/>
      <use xlink:href="#DejaVuSerif-20" transform="translate(36.083984 0.015625)"/>
      <use xlink:href="#DejaVuSerif-28" transform="translate(67.871094 0.015625)"/>
      <use xlink:href="#DejaVuSerif-61" transform="translate(106.884766 0.015625)"/>
      <use xlink:href="#DejaVuSerif-2e" transform="translate(166.503906 0.015625)"/>
      <use xlink:href="#DejaVuSerif-75" transform="translate(198.291016 0.015625)"/>
      <use xlink:href="#DejaVuSerif-2e" transform="translate(262.695312 0.015625)"/>
      <use xlink:href="#DejaVuSerif-29" transform="translate(294.482422 0.015625)"/>
     </g>
    </g>
   </g>
   <g id="matplotlib.axis_2">
    <g id="ytick_1">
     <g id="line2d_10">
      <path d="M 103.44 363.385078 
L 415.35 363.385078 
" clip-path="url(#p5be4b36fa2)" style="fill: none; stroke-dasharray: 3.7,1.6; stroke-dashoffset: 0; stroke: #b0b0b0; stroke-opacity: 0.5"/>
     </g>
     <g id="line2d_11">
      <defs>
       <path id="m4bb1b672df" d="M 0 0 
L 10 0 
" style="stroke: #000000; stroke-width: 2"/>
      </defs>
      <g>
       <use xlink:href="#m4bb1b672df" x="103.44" y="363.385078" style="stroke: #000000; stroke-width: 2"/>
      </g>
     </g>
     <g id="line2d_12">
      <defs>
       <path id="md62b143579" d="M 0 0 
L -10 0 
" style="stroke: #000000; stroke-width: 2"/>
      </defs>
      <g>
       <use xlink:href="#md62b143579" x="415.35" y="363.385078" style="stroke: #000000; stroke-width: 2"/>
      </g>
     </g>
     <g id="text_5">
      <!-- −6 -->
      <g transform="translate(61.610313 373.263046) scale(0.26 -0.26)">
       <defs>
        <path id="DejaVuSerif-2212" d="M 678 2259 
L 4684 2259 
L 4684 1753 
L 678 1753 
L 678 2259 
z
" transform="scale(0.015625)"/>
        <path id="DejaVuSerif-36" d="M 2094 219 
Q 2534 219 2771 542 
Q 3009 866 3009 1472 
Q 3009 2078 2771 2401 
Q 2534 2725 2094 2725 
Q 1647 2725 1412 2412 
Q 1178 2100 1178 1509 
Q 1178 888 1415 553 
Q 1653 219 2094 219 
z
M 1075 2569 
Q 1288 2803 1556 2918 
Q 1825 3034 2163 3034 
Q 2859 3034 3264 2615 
Q 3669 2197 3669 1472 
Q 3669 763 3233 336 
Q 2797 -91 2069 -91 
Q 1278 -91 853 498 
Q 428 1088 428 2181 
Q 428 3406 931 4078 
Q 1434 4750 2350 4750 
Q 2597 4750 2869 4703 
Q 3141 4656 3425 4563 
L 3425 3794 
L 3072 3794 
Q 3034 4109 2831 4275 
Q 2628 4441 2284 4441 
Q 1678 4441 1381 3981 
Q 1084 3522 1075 2569 
z
" transform="scale(0.015625)"/>
       </defs>
       <use xlink:href="#DejaVuSerif-2212"/>
       <use xlink:href="#DejaVuSerif-36" x="83.789062"/>
      </g>
     </g>
    </g>
    <g id="ytick_2">
     <g id="line2d_13">
      <path d="M 103.44 291.072775 
L 415.35 291.072775 
" clip-path="url(#p5be4b36fa2)" style="fill: none; stroke-dasharray: 3.7,1.6; stroke-dashoffset: 0; stroke: #b0b0b0; stroke-opacity: 0.5"/>
     </g>
     <g id="line2d_14">
      <g>
       <use xlink:href="#m4bb1b672df" x="103.44" y="291.072775" style="stroke: #000000; stroke-width: 2"/>
      </g>
     </g>
     <g id="line2d_15">
      <g>
       <use xlink:href="#md62b143579" x="415.35" y="291.072775" style="stroke: #000000; stroke-width: 2"/>
      </g>
     </g>
     <g id="text_6">
      <!-- −4 -->
      <g transform="translate(61.610313 300.950744) scale(0.26 -0.26)">
       <use xlink:href="#DejaVuSerif-2212"/>
       <use xlink:href="#DejaVuSerif-34" x="83.789062"/>
      </g>
     </g>
    </g>
    <g id="ytick_3">
     <g id="line2d_16">
      <path d="M 103.44 218.760472 
L 415.35 218.760472 
" clip-path="url(#p5be4b36fa2)" style="fill: none; stroke-dasharray: 3.7,1.6; stroke-dashoffset: 0; stroke: #b0b0b0; stroke-opacity: 0.5"/>
     </g>
     <g id="line2d_17">
      <g>
       <use xlink:href="#m4bb1b672df" x="103.44" y="218.760472" style="stroke: #000000; stroke-width: 2"/>
      </g>
     </g>
     <g id="line2d_18">
      <g>
       <use xlink:href="#md62b143579" x="415.35" y="218.760472" style="stroke: #000000; stroke-width: 2"/>
      </g>
     </g>
     <g id="text_7">
      <!-- −2 -->
      <g transform="translate(61.610313 228.638441) scale(0.26 -0.26)">
       <use xlink:href="#DejaVuSerif-2212"/>
       <use xlink:href="#DejaVuSerif-32" x="83.789062"/>
      </g>
     </g>
    </g>
    <g id="ytick_4">
     <g id="line2d_19">
      <path d="M 103.44 146.448169 
L 415.35 146.448169 
" clip-path="url(#p5be4b36fa2)" style="fill: none; stroke-dasharray: 3.7,1.6; stroke-dashoffset: 0; stroke: #b0b0b0; stroke-opacity: 0.5"/>
     </g>
     <g id="line2d_20">
      <g>
       <use xlink:href="#m4bb1b672df" x="103.44" y="146.448169" style="stroke: #000000; stroke-width: 2"/>
      </g>
     </g>
     <g id="line2d_21">
      <g>
       <use xlink:href="#md62b143579" x="415.35" y="146.448169" style="stroke: #000000; stroke-width: 2"/>
      </g>
     </g>
     <g id="text_8">
      <!-- 0 -->
      <g transform="translate(83.3975 156.326138) scale(0.26 -0.26)">
       <use xlink:href="#DejaVuSerif-30"/>
      </g>
     </g>
    </g>
    <g id="ytick_5">
     <g id="line2d_22">
      <path d="M 103.44 74.135866 
L 415.35 74.135866 
" clip-path="url(#p5be4b36fa2)" style="fill: none; stroke-dasharray: 3.7,1.6; stroke-dashoffset: 0; stroke: #b0b0b0; stroke-opacity: 0.5"/>
     </g>
     <g id="line2d_23">
      <g>
       <use xlink:href="#m4bb1b672df" x="103.44" y="74.135866" style="stroke: #000000; stroke-width: 2"/>
      </g>
     </g>
     <g id="line2d_24">
      <g>
       <use xlink:href="#md62b143579" x="415.35" y="74.135866" style="stroke: #000000; stroke-width: 2"/>
      </g>
     </g>
     <g id="text_9">
      <!-- 2 -->
      <g transform="translate(83.3975 84.013835) scale(0.26 -0.26)">
       <use xlink:href="#DejaVuSerif-32"/>
      </g>
     </g>
    </g>
    <g id="text_10">
     <!-- $E_i(t)$ (a.u.) -->
     <g transform="translate(51.110313 289.73625) rotate(-90) scale(0.26 -0.26)">
      <defs>
       <path id="Cmmi10-45" d="M 300 0 
Q 238 0 238 84 
Q 241 100 250 139 
Q 259 178 276 201 
Q 294 225 319 225 
Q 709 225 863 269 
Q 947 297 984 441 
L 1863 3956 
Q 1875 4019 1875 4044 
Q 1875 4113 1797 4122 
Q 1678 4147 1338 4147 
Q 1275 4147 1275 4231 
Q 1278 4247 1287 4286 
Q 1297 4325 1314 4348 
Q 1331 4372 1356 4372 
L 4825 4372 
Q 4891 4372 4891 4288 
L 4738 2963 
Q 4738 2947 4714 2926 
Q 4691 2906 4672 2906 
L 4616 2906 
Q 4550 2906 4550 2988 
Q 4588 3300 4588 3450 
Q 4588 3706 4500 3848 
Q 4413 3991 4267 4053 
Q 4122 4116 3945 4131 
Q 3769 4147 3481 4147 
L 2753 4147 
Q 2578 4147 2522 4117 
Q 2466 4088 2419 3928 
L 2034 2381 
L 2534 2381 
Q 2859 2381 3025 2426 
Q 3191 2472 3287 2615 
Q 3384 2759 3463 3072 
Q 3469 3094 3486 3111 
Q 3503 3128 3525 3128 
L 3584 3128 
Q 3647 3128 3647 3047 
L 3250 1466 
Q 3238 1409 3188 1409 
L 3128 1409 
Q 3066 1409 3066 1491 
Q 3128 1747 3128 1869 
Q 3128 2056 2959 2106 
Q 2791 2156 2509 2156 
L 1978 2156 
L 1544 416 
Q 1516 338 1516 275 
Q 1516 225 1734 225 
L 2509 225 
Q 2972 225 3259 297 
Q 3547 369 3736 526 
Q 3925 684 4062 928 
Q 4200 1172 4397 1638 
Q 4409 1678 4453 1678 
L 4513 1678 
Q 4538 1678 4556 1656 
Q 4575 1634 4575 1606 
Q 4575 1594 4569 1581 
L 3909 38 
Q 3897 0 3859 0 
L 300 0 
z
" transform="scale(0.015625)"/>
       <path id="Cmmi10-69" d="M 500 459 
Q 500 578 550 709 
L 1069 2088 
Q 1153 2322 1153 2472 
Q 1153 2663 1013 2663 
Q 759 2663 595 2402 
Q 431 2141 353 1819 
Q 341 1778 300 1778 
L 225 1778 
Q 172 1778 172 1838 
L 172 1856 
Q 275 2238 487 2533 
Q 700 2828 1025 2828 
Q 1253 2828 1411 2678 
Q 1569 2528 1569 2297 
Q 1569 2178 1516 2047 
L 997 672 
Q 909 459 909 288 
Q 909 97 1056 97 
Q 1306 97 1473 364 
Q 1641 631 1709 941 
Q 1722 978 1759 978 
L 1838 978 
Q 1863 978 1878 961 
Q 1894 944 1894 922 
Q 1894 916 1888 903 
Q 1800 541 1583 234 
Q 1366 -72 1044 -72 
Q 819 -72 659 83 
Q 500 238 500 459 
z
M 1222 3878 
Q 1222 4013 1334 4122 
Q 1447 4231 1581 4231 
Q 1691 4231 1761 4164 
Q 1831 4097 1831 3994 
Q 1831 3850 1717 3742 
Q 1603 3634 1466 3634 
Q 1363 3634 1292 3704 
Q 1222 3775 1222 3878 
z
" transform="scale(0.015625)"/>
       <path id="Cmr10-28" d="M 1984 -1588 
Q 1628 -1306 1370 -942 
Q 1113 -578 948 -165 
Q 784 247 703 697 
Q 622 1147 622 1600 
Q 622 2059 703 2509 
Q 784 2959 951 3375 
Q 1119 3791 1378 4153 
Q 1638 4516 1984 4788 
Q 1984 4800 2016 4800 
L 2075 4800 
Q 2094 4800 2109 4783 
Q 2125 4766 2125 4744 
Q 2125 4716 2113 4703 
Q 1800 4397 1592 4047 
Q 1384 3697 1257 3301 
Q 1131 2906 1075 2482 
Q 1019 2059 1019 1600 
Q 1019 -434 2106 -1491 
Q 2125 -1509 2125 -1544 
Q 2125 -1559 2108 -1579 
Q 2091 -1600 2075 -1600 
L 2016 -1600 
Q 1984 -1600 1984 -1588 
z
" transform="scale(0.015625)"/>
       <path id="Cmr10-29" d="M 416 -1600 
Q 359 -1600 359 -1544 
Q 359 -1516 372 -1503 
Q 1466 -434 1466 1600 
Q 1466 3634 384 4691 
Q 359 4706 359 4744 
Q 359 4766 376 4783 
Q 394 4800 416 4800 
L 475 4800 
Q 494 4800 506 4788 
Q 966 4425 1272 3906 
Q 1578 3388 1720 2800 
Q 1863 2213 1863 1600 
Q 1863 1147 1786 708 
Q 1709 269 1542 -157 
Q 1375 -584 1119 -945 
Q 863 -1306 506 -1588 
Q 494 -1600 475 -1600 
L 416 -1600 
z
" transform="scale(0.015625)"/>
      </defs>
      <use xlink:href="#Cmmi10-45" transform="translate(0 0.015625)"/>
      <use xlink:href="#Cmmi10-69" transform="translate(73.779297 -16.990625) scale(0.7)"/>
      <use xlink:href="#Cmr10-28" transform="translate(104.25332 0.015625)"/>
      <use xlink:href="#Cmmi10-74" transform="translate(143.07168 0.015625)"/>
      <use xlink:href="#Cmr10-29" transform="translate(179.155664 0.015625)"/>
      <use xlink:href="#DejaVuSerif-20" transform="translate(217.974023 0.015625)"/>
      <use xlink:href="#DejaVuSerif-28" transform="translate(249.761133 0.015625)"/>
      <use xlink:href="#DejaVuSerif-61" transform="translate(288.774805 0.015625)"/>
      <use xlink:href="#DejaVuSerif-2e" transform="translate(348.393945 0.015625)"/>
      <use xlink:href="#DejaVuSerif-75" transform="translate(380.181055 0.015625)"/>
      <use xlink:href="#DejaVuSerif-2e" transform="translate(444.585352 0.015625)"/>
      <use xlink:href="#DejaVuSerif-29" transform="translate(476.372461 0.015625)"/>
     </g>
    </g>
   </g>
   <g id="line2d_25">
    <path d="M 117.617727 45.772279 
L 120.481915 45.775617 
L 123.346102 45.774615 
L 126.210289 45.769872 
L 129.074477 45.774804 
L 131.938664 45.777349 
L 134.802851 45.769042 
L 137.667039 45.772824 
L 140.531226 45.779005 
L 143.395413 45.769906 
L 146.259601 45.770884 
L 149.123788 45.778964 
L 151.987975 45.772037 
L 154.852163 45.770014 
L 157.71635 45.777208 
L 160.580537 45.77405 
L 163.444725 45.770702 
L 166.308912 45.774327 
L 169.173099 45.775141 
L 172.037287 45.772871 
L 174.901474 45.771766 
L 177.765661 45.7748 
L 180.629848 45.775798 
L 183.494036 45.770273 
L 186.358223 45.773146 
L 189.22241 45.778056 
L 192.086598 45.770326 
L 194.950785 45.770978 
L 197.814972 45.778989 
L 200.67916 45.771775 
L 203.543347 45.769605 
L 206.407534 45.77824 
L 209.271722 45.773725 
L 212.135909 45.769567 
L 215.000096 45.776067 
L 217.864284 45.774973 
L 220.728471 45.771072 
L 223.592658 45.77352 
L 226.456846 45.775028 
L 229.321033 45.773755 
L 232.18522 45.771708 
L 235.049408 45.773762 
L 237.913595 45.776441 
L 240.777782 45.771159 
L 243.64197 45.771582 
L 246.506157 45.778136 
L 249.370344 45.771958 
L 252.234532 45.769693 
L 255.098719 45.778345 
L 257.962906 45.773671 
L 260.827094 45.768896 
L 263.691281 45.777072 
L 266.555468 45.775068 
L 269.419656 45.769605 
L 272.283843 45.774876 
L 275.14803 45.775517 
L 278.012218 45.771684 
L 280.876405 45.773004 
L 283.740592 45.774658 
L 286.60478 45.774436 
L 289.468967 45.772049 
L 292.333154 45.772694 
L 295.197342 45.776598 
L 298.061529 45.77235 
L 300.925716 45.770397 
L 303.789904 45.777618 
L 306.654091 45.773708 
L 309.518278 45.768935 
L 312.382466 45.777222 
L 315.246653 45.775305 
L 318.11084 45.76877 
L 320.975028 45.775658 
L 323.839215 45.776097 
L 326.703402 45.770039 
L 329.56759 45.773846 
L 332.431777 45.775721 
L 335.295964 45.772386 
L 338.160152 45.77272 
L 341.024339 45.774141 
L 343.888526 45.774765 
L 346.752713 45.772665 
L 349.616901 45.771784 
L 352.481088 45.77632 
L 355.345275 45.773678 
L 358.209463 45.769747 
L 361.07365 45.776647 
L 363.937837 45.775324 
L 366.802025 45.76875 
L 369.666212 45.775787 
L 372.530399 45.776519 
L 375.394587 45.769135 
L 378.258774 45.774222 
L 381.122961 45.776718 
L 383.987149 45.770759 
L 386.851336 45.773042 
L 389.715523 45.775662 
L 392.579711 45.773008 
L 395.443898 45.772697 
L 398.308085 45.773589 
L 401.172273 45.77479 
" clip-path="url(#p5be4b36fa2)" style="fill: none; stroke: #1f77b4; stroke-width: 3; stroke-linecap: square"/>
   </g>
   <g id="line2d_26">
    <path d="M 117.617727 399.541336 
L 120.481915 399.535039 
L 123.346102 399.535372 
L 126.210289 399.543619 
L 129.074477 399.536502 
L 131.938664 399.532493 
L 134.802851 399.54375 
L 137.667039 399.539048 
L 140.531226 399.531328 
L 143.395413 399.541941 
L 146.259601 399.541109 
L 149.123788 399.53232 
L 151.987975 399.538975 
L 154.852163 399.541569 
L 157.71635 399.535149 
L 160.580537 399.53662 
L 163.444725 399.540125 
L 166.308912 399.538857 
L 169.173099 399.53571 
L 172.037287 399.537181 
L 174.901474 399.541645 
L 177.765661 399.536581 
L 180.629848 399.533809 
L 183.494036 399.542786 
L 186.358223 399.538799 
L 189.22241 399.531726 
L 192.086598 399.542003 
L 194.950785 399.541234 
L 197.814972 399.531509 
L 200.67916 399.539772 
L 203.543347 399.542335 
L 206.407534 399.533267 
L 209.271722 399.537339 
L 212.135909 399.541676 
L 215.000096 399.536399 
L 217.864284 399.536117 
L 220.728471 399.539313 
L 223.592658 399.539492 
L 226.456846 399.536481 
L 229.321033 399.535937 
L 232.18522 399.541278 
L 235.049408 399.538303 
L 237.913595 399.533059 
L 240.777782 399.541353 
L 243.64197 399.540875 
L 246.506157 399.531763 
L 249.370344 399.539905 
L 252.234532 399.542689 
L 255.098719 399.532376 
L 257.962906 399.537669 
L 260.827094 399.542922 
L 263.691281 399.534589 
L 266.555468 399.536178 
L 269.419656 399.541349 
L 272.283843 399.537522 
L 275.14803 399.53605 
L 278.012218 399.538418 
L 280.876405 399.539636 
L 283.740592 399.537466 
L 286.60478 399.535138 
L 289.468967 399.540372 
L 292.333154 399.539934 
L 295.197342 399.533019 
L 298.061529 399.539578 
L 300.925716 399.542395 
L 303.789904 399.532533 
L 306.654091 399.537732 
L 309.518278 399.543497 
L 312.382466 399.533731 
L 315.246653 399.535935 
L 318.11084 399.542902 
L 320.975028 399.536067 
L 323.839215 399.535381 
L 326.703402 399.540724 
L 329.56759 399.53832 
L 332.431777 399.536303 
L 335.295964 399.537621 
L 338.160152 399.53943 
L 341.024339 399.538488 
L 343.888526 399.534932 
L 346.752713 399.539139 
L 349.616901 399.541235 
L 352.481088 399.533585 
L 355.345275 399.537692 
L 358.209463 399.543195 
L 361.07365 399.533835 
L 363.937837 399.535776 
L 366.802025 399.543639 
L 369.666212 399.535381 
L 372.530399 399.534711 
L 375.394587 399.542409 
L 378.258774 399.53747 
L 381.122961 399.535006 
L 383.987149 399.539931 
L 386.851336 399.538779 
L 389.715523 399.536735 
L 392.579711 399.537099 
L 395.443898 399.538904 
L 398.308085 399.539389 
L 401.172273 399.535214 
" clip-path="url(#p5be4b36fa2)" style="fill: none; stroke-dasharray: 11.1,4.8; stroke-dashoffset: 0; stroke: #ff7f0e; stroke-width: 3"/>
   </g>
   <g id="line2d_27">
    <path d="M 117.617727 114.811523 
L 120.481915 114.81231 
L 123.346102 114.812269 
L 126.210289 114.811238 
L 129.074477 114.812127 
L 131.938664 114.812629 
L 134.802851 114.811221 
L 137.667039 114.811809 
L 140.531226 114.812774 
L 143.395413 114.811448 
L 146.259601 114.811552 
L 149.123788 114.81265 
L 151.987975 114.811818 
L 154.852163 114.811494 
L 157.71635 114.812297 
L 160.580537 114.812113 
L 163.444725 114.811675 
L 166.308912 114.811833 
L 169.173099 114.812226 
L 172.037287 114.812043 
L 174.901474 114.811485 
L 177.765661 114.812118 
L 180.629848 114.812464 
L 183.494036 114.811342 
L 186.358223 114.81184 
L 189.22241 114.812724 
L 192.086598 114.81144 
L 194.950785 114.811536 
L 197.814972 114.812752 
L 200.67916 114.811719 
L 203.543347 114.811398 
L 206.407534 114.812532 
L 209.271722 114.812023 
L 212.135909 114.811481 
L 215.000096 114.81214 
L 217.864284 114.812176 
L 220.728471 114.811776 
L 223.592658 114.811754 
L 226.456846 114.81213 
L 229.321033 114.812198 
L 232.18522 114.81153 
L 235.049408 114.811902 
L 237.913595 114.812558 
L 240.777782 114.811521 
L 243.64197 114.811581 
L 246.506157 114.81272 
L 249.370344 114.811702 
L 252.234532 114.811354 
L 255.098719 114.812643 
L 257.962906 114.811982 
L 260.827094 114.811325 
L 263.691281 114.812367 
L 266.555468 114.812168 
L 269.419656 114.811522 
L 272.283843 114.812 
L 275.14803 114.812184 
L 278.012218 114.811888 
L 280.876405 114.811736 
L 283.740592 114.812007 
L 286.60478 114.812298 
L 289.468967 114.811644 
L 292.333154 114.811698 
L 295.197342 114.812563 
L 298.061529 114.811743 
L 300.925716 114.811391 
L 303.789904 114.812624 
L 306.654091 114.811974 
L 309.518278 114.811253 
L 312.382466 114.812474 
L 315.246653 114.812198 
L 318.11084 114.811327 
L 320.975028 114.812182 
L 323.839215 114.812268 
L 326.703402 114.8116 
L 329.56759 114.8119 
L 332.431777 114.812152 
L 335.295964 114.811988 
L 338.160152 114.811762 
L 341.024339 114.811879 
L 343.888526 114.812324 
L 346.752713 114.811798 
L 349.616901 114.811536 
L 352.481088 114.812492 
L 355.345275 114.811979 
L 358.209463 114.811291 
L 361.07365 114.812461 
L 363.937837 114.812218 
L 366.802025 114.811235 
L 369.666212 114.812268 
L 372.530399 114.812351 
L 375.394587 114.811389 
L 378.258774 114.812006 
L 381.122961 114.812315 
L 383.987149 114.811699 
L 386.851336 114.811843 
L 389.715523 114.812098 
L 392.579711 114.812053 
L 395.443898 114.811827 
L 398.308085 114.811767 
L 401.172273 114.812288 
" clip-path="url(#p5be4b36fa2)" style="fill: none; stroke-dasharray: 19.2,4.8,3,4.8; stroke-dashoffset: 0; stroke: #2ca02c; stroke-width: 3"/>
   </g>
   <g id="line2d_28">
    <path d="M 117.617727 136.380676 
L 120.481915 136.382847 
L 123.346102 136.383559 
L 126.210289 136.381085 
L 129.074477 136.382381 
L 131.938664 136.383344 
L 134.802851 136.381801 
L 137.667039 136.382134 
L 140.531226 136.382708 
L 143.395413 136.38252 
L 146.259601 136.382269 
L 149.123788 136.381881 
L 151.987975 136.382984 
L 154.852163 136.382737 
L 157.71635 136.381161 
L 160.580537 136.383031 
L 163.444725 136.383312 
L 166.308912 136.380797 
L 169.173099 136.382736 
L 172.037287 136.383719 
L 174.901474 136.380918 
L 177.765661 136.382316 
L 180.629848 136.383744 
L 183.494036 136.381413 
L 186.358223 136.382028 
L 189.22241 136.383309 
L 192.086598 136.382045 
L 194.950785 136.382066 
L 197.814972 136.382565 
L 200.67916 136.382548 
L 203.543347 136.382475 
L 206.407534 136.381776 
L 209.271722 136.382728 
L 212.135909 136.38309 
L 215.000096 136.381209 
L 217.864284 136.382549 
L 220.728471 136.383653 
L 223.592658 136.381048 
L 226.456846 136.382175 
L 229.321033 136.383924 
L 232.18522 136.381298 
L 235.049408 136.381847 
L 237.913595 136.383756 
L 240.777782 136.381781 
L 243.64197 136.381776 
L 246.506157 136.383196 
L 249.370344 136.382249 
L 252.234532 136.382078 
L 255.098719 136.382451 
L 257.962906 136.382493 
L 260.827094 136.38267 
L 263.691281 136.381787 
L 266.555468 136.382401 
L 269.419656 136.383337 
L 272.283843 136.381417 
L 275.14803 136.382063 
L 278.012218 136.383824 
L 280.876405 136.381438 
L 283.740592 136.381683 
L 286.60478 136.383942 
L 289.468967 136.381749 
L 292.333154 136.381488 
L 295.197342 136.383635 
L 298.061529 136.382143 
L 300.925716 136.381631 
L 303.789904 136.383039 
L 306.654091 136.3824 
L 309.518278 136.382128 
L 312.382466 136.382387 
L 315.246653 136.382376 
L 318.11084 136.382814 
L 320.975028 136.381908 
L 323.839215 136.382068 
L 326.703402 136.383451 
L 329.56759 136.381749 
L 332.431777 136.381638 
L 335.295964 136.383819 
L 338.160152 136.381903 
L 341.024339 136.381306 
L 343.888526 136.383794 
L 346.752713 136.382212 
L 349.616901 136.381259 
L 352.481088 136.383418 
L 355.345275 136.382466 
L 358.209463 136.381581 
L 361.07365 136.382871 
L 363.937837 136.382496 
L 366.802025 136.382189 
L 369.666212 136.382379 
L 372.530399 136.382233 
L 375.394587 136.382881 
L 378.258774 136.382116 
L 381.122961 136.381776 
L 383.987149 136.383425 
L 386.851336 136.38215 
L 389.715523 136.381318 
L 392.579711 136.383654 
L 395.443898 136.382385 
L 398.308085 136.381069 
L 401.172273 136.383522 
" clip-path="url(#p5be4b36fa2)" style="fill: none; stroke-dasharray: 3,4.95; stroke-dashoffset: 0; stroke: #d62728; stroke-width: 3"/>
   </g>
   <g id="line2d_29">
    <path d="M 117.617727 146.448169 
L 120.481915 146.448169 
L 123.346102 146.448169 
L 126.210289 146.448169 
L 129.074477 146.448169 
L 131.938664 146.448169 
L 134.802851 146.448169 
L 137.667039 146.448169 
L 140.531226 146.448169 
L 143.395413 146.448169 
L 146.259601 146.448169 
L 149.123788 146.448169 
L 151.987975 146.448169 
L 154.852163 146.448169 
L 157.71635 146.448169 
L 160.580537 146.448169 
L 163.444725 146.448169 
L 166.308912 146.448169 
L 169.173099 146.448169 
L 172.037287 146.448169 
L 174.901474 146.448169 
L 177.765661 146.448169 
L 180.629848 146.448169 
L 183.494036 146.448169 
L 186.358223 146.448169 
L 189.22241 146.448169 
L 192.086598 146.448169 
L 194.950785 146.448169 
L 197.814972 146.448169 
L 200.67916 146.448169 
L 203.543347 146.448169 
L 206.407534 146.448169 
L 209.271722 146.448169 
L 212.135909 146.448169 
L 215.000096 146.448169 
L 217.864284 146.448169 
L 220.728471 146.448169 
L 223.592658 146.448169 
L 226.456846 146.448169 
L 229.321033 146.448169 
L 232.18522 146.448169 
L 235.049408 146.448169 
L 237.913595 146.448169 
L 240.777782 146.448169 
L 243.64197 146.448169 
L 246.506157 146.448169 
L 249.370344 146.448169 
L 252.234532 146.448169 
L 255.098719 146.448169 
L 257.962906 146.448169 
L 260.827094 146.448169 
L 263.691281 146.448169 
L 266.555468 146.448169 
L 269.419656 146.448169 
L 272.283843 146.448169 
L 275.14803 146.448169 
L 278.012218 146.448169 
L 280.876405 146.448169 
L 283.740592 146.448169 
L 286.60478 146.448169 
L 289.468967 146.448169 
L 292.333154 146.448169 
L 295.197342 146.448169 
L 298.061529 146.448169 
L 300.925716 146.448169 
L 303.789904 146.448169 
L 306.654091 146.448169 
L 309.518278 146.448169 
L 312.382466 146.448169 
L 315.246653 146.448169 
L 318.11084 146.448169 
L 320.975028 146.448169 
L 323.839215 146.448169 
L 326.703402 146.448169 
L 329.56759 146.448169 
L 332.431777 146.448169 
L 335.295964 146.448169 
L 338.160152 146.448169 
L 341.024339 146.448169 
L 343.888526 146.448169 
L 346.752713 146.448169 
L 349.616901 146.448169 
L 352.481088 146.448169 
L 355.345275 146.448169 
L 358.209463 146.448169 
L 361.07365 146.448169 
L 363.937837 146.448169 
L 366.802025 146.448169 
L 369.666212 146.448169 
L 372.530399 146.448169 
L 375.394587 146.448169 
L 378.258774 146.448169 
L 381.122961 146.448169 
L 383.987149 146.448169 
L 386.851336 146.448169 
L 389.715523 146.448169 
L 392.579711 146.448169 
L 395.443898 146.448169 
L 398.308085 146.448169 
L 401.172273 146.448169 
" clip-path="url(#p5be4b36fa2)" style="fill: none; stroke-dasharray: 9,3,3,3; stroke-dashoffset: 0; stroke: #9467bd; stroke-width: 3"/>
   </g>
   <g id="line2d_30">
    <path d="M 117.617727 257.161307 
L 120.481915 257.161307 
L 123.346102 257.161307 
L 126.210289 257.161306 
L 129.074477 257.161307 
L 131.938664 257.161307 
L 134.802851 257.161306 
L 137.667039 257.161307 
L 140.531226 257.161308 
L 143.395413 257.161306 
L 146.259601 257.161307 
L 149.123788 257.161308 
L 151.987975 257.161307 
L 154.852163 257.161306 
L 157.71635 257.161307 
L 160.580537 257.161307 
L 163.444725 257.161306 
L 166.308912 257.161307 
L 169.173099 257.161307 
L 172.037287 257.161307 
L 174.901474 257.161307 
L 177.765661 257.161307 
L 180.629848 257.161307 
L 183.494036 257.161306 
L 186.358223 257.161307 
L 189.22241 257.161307 
L 192.086598 257.161306 
L 194.950785 257.161307 
L 197.814972 257.161308 
L 200.67916 257.161307 
L 203.543347 257.161306 
L 206.407534 257.161308 
L 209.271722 257.161307 
L 212.135909 257.161306 
L 215.000096 257.161307 
L 217.864284 257.161307 
L 220.728471 257.161307 
L 223.592658 257.161307 
L 226.456846 257.161307 
L 229.321033 257.161307 
L 232.18522 257.161307 
L 235.049408 257.161307 
L 237.913595 257.161307 
L 240.777782 257.161307 
L 243.64197 257.161307 
L 246.506157 257.161308 
L 249.370344 257.161307 
L 252.234532 257.161306 
L 255.098719 257.161308 
L 257.962906 257.161307 
L 260.827094 257.161306 
L 263.691281 257.161307 
L 266.555468 257.161307 
L 269.419656 257.161306 
L 272.283843 257.161307 
L 275.14803 257.161307 
L 278.012218 257.161307 
L 280.876405 257.161307 
L 283.740592 257.161307 
L 286.60478 257.161307 
L 289.468967 257.161307 
L 292.333154 257.161307 
L 295.197342 257.161307 
L 298.061529 257.161307 
L 300.925716 257.161306 
L 303.789904 257.161307 
L 306.654091 257.161307 
L 309.518278 257.161306 
L 312.382466 257.161307 
L 315.246653 257.161307 
L 318.11084 257.161306 
L 320.975028 257.161307 
L 323.839215 257.161307 
L 326.703402 257.161306 
L 329.56759 257.161307 
L 332.431777 257.161307 
L 335.295964 257.161307 
L 338.160152 257.161307 
L 341.024339 257.161307 
L 343.888526 257.161307 
L 346.752713 257.161307 
L 349.616901 257.161307 
L 352.481088 257.161307 
L 355.345275 257.161307 
L 358.209463 257.161306 
L 361.07365 257.161307 
L 363.937837 257.161307 
L 366.802025 257.161306 
L 369.666212 257.161307 
L 372.530399 257.161307 
L 375.394587 257.161306 
L 378.258774 257.161307 
L 381.122961 257.161307 
L 383.987149 257.161307 
L 386.851336 257.161307 
L 389.715523 257.161307 
L 392.579711 257.161307 
L 395.443898 257.161307 
L 398.308085 257.161307 
L 401.172273 257.161307 
" clip-path="url(#p5be4b36fa2)" style="fill: none; stroke: #808080; stroke-width: 2; stroke-linecap: square"/>
   </g>
   <g id="patch_3">
    <path d="M 103.44 417.2325 
L 103.44 28.08 
" style="fill: none; stroke: #000000; stroke-width: 2; stroke-linejoin: miter; stroke-linecap: square"/>
   </g>
   <g id="patch_4">
    <path d="M 415.35 417.2325 
L 415.35 28.08 
" style="fill: none; stroke: #000000; stroke-width: 2; stroke-linejoin: miter; stroke-linecap: square"/>
   </g>
   <g id="patch_5">
    <path d="M 103.44 417.2325 
L 415.35 417.2325 
" style="fill: none; stroke: #000000; stroke-width: 2; stroke-linejoin: miter; stroke-linecap: square"/>
   </g>
   <g id="patch_6">
    <path d="M 103.44 28.08 
L 415.35 28.08 
" style="fill: none; stroke: #000000; stroke-width: 2; stroke-linejoin: miter; stroke-linecap: square"/>
   </g>
   <g id="legend_1">
    <g id="patch_7">
     <path d="M 434.9455 210.501875 
L 676.048625 210.501875 
Q 680.048625 210.501875 680.048625 206.501875 
L 680.048625 32.08 
Q 680.048625 28.08 676.048625 28.08 
L 434.9455 28.08 
Q 430.9455 28.08 430.9455 32.08 
L 430.9455 206.501875 
Q 430.9455 210.501875 434.9455 210.501875 
z
" style="fill: #ffffff; opacity: 0.8; stroke: #cccccc; stroke-linejoin: miter"/>
    </g>
    <g id="line2d_31">
     <path d="M 438.9455 44.276875 
L 458.9455 44.276875 
L 478.9455 44.276875 
" style="fill: none; stroke: #1f77b4; stroke-width: 3; stroke-linecap: square"/>
    </g>
    <g id="text_11">
     <!-- Kinetic -->
     <g transform="translate(494.9455 51.276875) scale(0.2 -0.2)">
      <defs>
       <path id="DejaVuSerif-4b" d="M 353 0 
L 353 331 
L 947 331 
L 947 4331 
L 353 4331 
L 353 4666 
L 2175 4666 
L 2175 4331 
L 1581 4331 
L 1581 2566 
L 3591 4331 
L 3084 4331 
L 3084 4666 
L 4634 4666 
L 4634 4331 
L 4109 4331 
L 2106 2572 
L 4347 331 
L 4878 331 
L 4878 0 
L 3794 0 
L 1581 2216 
L 1581 331 
L 2175 331 
L 2175 0 
L 353 0 
z
" transform="scale(0.015625)"/>
       <path id="DejaVuSerif-69" d="M 622 4353 
Q 622 4497 726 4603 
Q 831 4709 978 4709 
Q 1122 4709 1226 4603 
Q 1331 4497 1331 4353 
Q 1331 4206 1228 4103 
Q 1125 4000 978 4000 
Q 831 4000 726 4103 
Q 622 4206 622 4353 
z
M 1356 331 
L 1900 331 
L 1900 0 
L 231 0 
L 231 331 
L 781 331 
L 781 2988 
L 231 2988 
L 231 3322 
L 1356 3322 
L 1356 331 
z
" transform="scale(0.015625)"/>
       <path id="DejaVuSerif-6e" d="M 263 0 
L 263 331 
L 781 331 
L 781 2988 
L 231 2988 
L 231 3322 
L 1356 3322 
L 1356 2731 
Q 1516 3069 1770 3241 
Q 2025 3413 2363 3413 
Q 2913 3413 3172 3097 
Q 3431 2781 3431 2113 
L 3431 331 
L 3944 331 
L 3944 0 
L 2356 0 
L 2356 331 
L 2853 331 
L 2853 1931 
Q 2853 2541 2703 2767 
Q 2553 2994 2175 2994 
Q 1775 2994 1565 2701 
Q 1356 2409 1356 1850 
L 1356 331 
L 1856 331 
L 1856 0 
L 263 0 
z
" transform="scale(0.015625)"/>
       <path id="DejaVuSerif-65" d="M 3469 1600 
L 991 1600 
L 991 1575 
Q 991 903 1244 561 
Q 1497 219 1991 219 
Q 2369 219 2611 417 
Q 2853 616 2950 1006 
L 3413 1006 
Q 3275 459 2904 184 
Q 2534 -91 1931 -91 
Q 1203 -91 761 389 
Q 319 869 319 1663 
Q 319 2450 753 2931 
Q 1188 3413 1894 3413 
Q 2647 3413 3050 2948 
Q 3453 2484 3469 1600 
z
M 2791 1931 
Q 2772 2513 2545 2808 
Q 2319 3103 1894 3103 
Q 1497 3103 1269 2806 
Q 1041 2509 991 1931 
L 2791 1931 
z
" transform="scale(0.015625)"/>
       <path id="DejaVuSerif-74" d="M 691 2988 
L 184 2988 
L 184 3322 
L 691 3322 
L 691 4353 
L 1269 4353 
L 1269 3322 
L 2350 3322 
L 2350 2988 
L 1269 2988 
L 1269 878 
Q 1269 456 1350 337 
Q 1431 219 1650 219 
Q 1875 219 1978 351 
Q 2081 484 2088 781 
L 2522 781 
Q 2497 328 2275 118 
Q 2053 -91 1600 -91 
Q 1103 -91 897 129 
Q 691 350 691 878 
L 691 2988 
z
" transform="scale(0.015625)"/>
       <path id="DejaVuSerif-63" d="M 3291 997 
Q 3169 466 2822 187 
Q 2475 -91 1925 -91 
Q 1200 -91 759 389 
Q 319 869 319 1663 
Q 319 2459 759 2936 
Q 1200 3413 1925 3413 
Q 2241 3413 2553 3339 
Q 2866 3266 3181 3116 
L 3181 2266 
L 2847 2266 
Q 2781 2703 2561 2903 
Q 2341 3103 1931 3103 
Q 1466 3103 1228 2742 
Q 991 2381 991 1663 
Q 991 944 1227 581 
Q 1463 219 1931 219 
Q 2303 219 2525 412 
Q 2747 606 2828 997 
L 3291 997 
z
" transform="scale(0.015625)"/>
      </defs>
      <use xlink:href="#DejaVuSerif-4b"/>
      <use xlink:href="#DejaVuSerif-69" x="74.707031"/>
      <use xlink:href="#DejaVuSerif-6e" x="106.689453"/>
      <use xlink:href="#DejaVuSerif-65" x="171.09375"/>
      <use xlink:href="#DejaVuSerif-74" x="230.273438"/>
      <use xlink:href="#DejaVuSerif-69" x="270.458984"/>
      <use xlink:href="#DejaVuSerif-63" x="302.441406"/>
     </g>
    </g>
    <g id="line2d_32">
     <path d="M 438.9455 73.633125 
L 458.9455 73.633125 
L 478.9455 73.633125 
" style="fill: none; stroke-dasharray: 11.1,4.8; stroke-dashoffset: 0; stroke: #ff7f0e; stroke-width: 3"/>
    </g>
    <g id="text_12">
     <!-- Electron-nucleus -->
     <g transform="translate(494.9455 80.633125) scale(0.2 -0.2)">
      <defs>
       <path id="DejaVuSerif-45" d="M 353 0 
L 353 331 
L 947 331 
L 947 4331 
L 353 4331 
L 353 4666 
L 4109 4666 
L 4109 3628 
L 3725 3628 
L 3725 4281 
L 1581 4281 
L 1581 2719 
L 3109 2719 
L 3109 3303 
L 3494 3303 
L 3494 1753 
L 3109 1753 
L 3109 2338 
L 1581 2338 
L 1581 384 
L 3775 384 
L 3775 1038 
L 4159 1038 
L 4159 0 
L 353 0 
z
" transform="scale(0.015625)"/>
       <path id="DejaVuSerif-6c" d="M 1313 331 
L 1856 331 
L 1856 0 
L 184 0 
L 184 331 
L 738 331 
L 738 4531 
L 184 4531 
L 184 4863 
L 1313 4863 
L 1313 331 
z
" transform="scale(0.015625)"/>
       <path id="DejaVuSerif-72" d="M 3059 3328 
L 3059 2497 
L 2728 2497 
Q 2713 2744 2591 2866 
Q 2469 2988 2234 2988 
Q 1809 2988 1582 2694 
Q 1356 2400 1356 1850 
L 1356 331 
L 2022 331 
L 2022 0 
L 263 0 
L 263 331 
L 781 331 
L 781 2994 
L 231 2994 
L 231 3322 
L 1356 3322 
L 1356 2731 
Q 1525 3078 1790 3245 
Q 2056 3413 2438 3413 
Q 2578 3413 2733 3391 
Q 2888 3369 3059 3328 
z
" transform="scale(0.015625)"/>
       <path id="DejaVuSerif-6f" d="M 1925 219 
Q 2388 219 2623 584 
Q 2859 950 2859 1663 
Q 2859 2375 2623 2739 
Q 2388 3103 1925 3103 
Q 1463 3103 1227 2739 
Q 991 2375 991 1663 
Q 991 950 1228 584 
Q 1466 219 1925 219 
z
M 1925 -91 
Q 1200 -91 759 389 
Q 319 869 319 1663 
Q 319 2456 758 2934 
Q 1197 3413 1925 3413 
Q 2653 3413 3092 2934 
Q 3531 2456 3531 1663 
Q 3531 869 3092 389 
Q 2653 -91 1925 -91 
z
" transform="scale(0.015625)"/>
       <path id="DejaVuSerif-2d" d="M 281 1959 
L 1881 1959 
L 1881 1472 
L 281 1472 
L 281 1959 
z
" transform="scale(0.015625)"/>
       <path id="DejaVuSerif-73" d="M 359 184 
L 359 959 
L 691 959 
Q 703 588 923 403 
Q 1144 219 1575 219 
Q 1963 219 2166 364 
Q 2369 509 2369 788 
Q 2369 1006 2220 1140 
Q 2072 1275 1594 1428 
L 1178 1569 
Q 750 1706 558 1912 
Q 366 2119 366 2438 
Q 366 2894 700 3153 
Q 1034 3413 1625 3413 
Q 1888 3413 2178 3344 
Q 2469 3275 2778 3144 
L 2778 2419 
L 2447 2419 
Q 2434 2741 2221 2922 
Q 2009 3103 1644 3103 
Q 1281 3103 1095 2975 
Q 909 2847 909 2591 
Q 909 2381 1050 2254 
Q 1191 2128 1613 1997 
L 2069 1856 
Q 2541 1709 2748 1489 
Q 2956 1269 2956 922 
Q 2956 450 2595 179 
Q 2234 -91 1600 -91 
Q 1278 -91 972 -22 
Q 666 47 359 184 
z
" transform="scale(0.015625)"/>
      </defs>
      <use xlink:href="#DejaVuSerif-45"/>
      <use xlink:href="#DejaVuSerif-6c" x="72.998047"/>
      <use xlink:href="#DejaVuSerif-65" x="104.980469"/>
      <use xlink:href="#DejaVuSerif-63" x="164.160156"/>
      <use xlink:href="#DejaVuSerif-74" x="220.166016"/>
      <use xlink:href="#DejaVuSerif-72" x="260.351562"/>
      <use xlink:href="#DejaVuSerif-6f" x="308.154297"/>
      <use xlink:href="#DejaVuSerif-6e" x="368.359375"/>
      <use xlink:href="#DejaVuSerif-2d" x="432.763672"/>
      <use xlink:href="#DejaVuSerif-6e" x="466.552734"/>
      <use xlink:href="#DejaVuSerif-75" x="530.957031"/>
      <use xlink:href="#DejaVuSerif-63" x="595.361328"/>
      <use xlink:href="#DejaVuSerif-6c" x="651.367188"/>
      <use xlink:href="#DejaVuSerif-65" x="683.349609"/>
      <use xlink:href="#DejaVuSerif-75" x="742.529297"/>
      <use xlink:href="#DejaVuSerif-73" x="806.933594"/>
     </g>
    </g>
    <g id="line2d_33">
     <path d="M 438.9455 102.989375 
L 458.9455 102.989375 
L 478.9455 102.989375 
" style="fill: none; stroke-dasharray: 19.2,4.8,3,4.8; stroke-dashoffset: 0; stroke: #2ca02c; stroke-width: 3"/>
    </g>
    <g id="text_13">
     <!-- Electron-electron -->
     <g transform="translate(494.9455 109.989375) scale(0.2 -0.2)">
      <use xlink:href="#DejaVuSerif-45"/>
      <use xlink:href="#DejaVuSerif-6c" x="72.998047"/>
      <use xlink:href="#DejaVuSerif-65" x="104.980469"/>
      <use xlink:href="#DejaVuSerif-63" x="164.160156"/>
      <use xlink:href="#DejaVuSerif-74" x="220.166016"/>
      <use xlink:href="#DejaVuSerif-72" x="260.351562"/>
      <use xlink:href="#DejaVuSerif-6f" x="308.154297"/>
      <use xlink:href="#DejaVuSerif-6e" x="368.359375"/>
      <use xlink:href="#DejaVuSerif-2d" x="432.763672"/>
      <use xlink:href="#DejaVuSerif-65" x="466.552734"/>
      <use xlink:href="#DejaVuSerif-6c" x="525.732422"/>
      <use xlink:href="#DejaVuSerif-65" x="557.714844"/>
      <use xlink:href="#DejaVuSerif-63" x="616.894531"/>
      <use xlink:href="#DejaVuSerif-74" x="672.900391"/>
      <use xlink:href="#DejaVuSerif-72" x="713.085938"/>
      <use xlink:href="#DejaVuSerif-6f" x="760.888672"/>
      <use xlink:href="#DejaVuSerif-6e" x="821.09375"/>
     </g>
    </g>
    <g id="line2d_34">
     <path d="M 438.9455 132.345625 
L 458.9455 132.345625 
L 478.9455 132.345625 
" style="fill: none; stroke-dasharray: 3,4.95; stroke-dashoffset: 0; stroke: #d62728; stroke-width: 3"/>
    </g>
    <g id="text_14">
     <!-- Heisenberg -->
     <g transform="translate(494.9455 139.345625) scale(0.2 -0.2)">
      <defs>
       <path id="DejaVuSerif-48" d="M 353 0 
L 353 331 
L 947 331 
L 947 4331 
L 353 4331 
L 353 4666 
L 2175 4666 
L 2175 4331 
L 1581 4331 
L 1581 2719 
L 4000 2719 
L 4000 4331 
L 3406 4331 
L 3406 4666 
L 5228 4666 
L 5228 4331 
L 4634 4331 
L 4634 331 
L 5228 331 
L 5228 0 
L 3406 0 
L 3406 331 
L 4000 331 
L 4000 2338 
L 1581 2338 
L 1581 331 
L 2175 331 
L 2175 0 
L 353 0 
z
" transform="scale(0.015625)"/>
       <path id="DejaVuSerif-62" d="M 738 331 
L 738 4531 
L 184 4531 
L 184 4863 
L 1313 4863 
L 1313 2803 
Q 1481 3116 1742 3264 
Q 2003 3413 2388 3413 
Q 3000 3413 3387 2928 
Q 3775 2444 3775 1663 
Q 3775 881 3387 395 
Q 3000 -91 2388 -91 
Q 2003 -91 1742 57 
Q 1481 206 1313 519 
L 1313 0 
L 184 0 
L 184 331 
L 738 331 
z
M 1313 1497 
Q 1313 897 1542 583 
Q 1772 269 2209 269 
Q 2650 269 2876 622 
Q 3103 975 3103 1663 
Q 3103 2353 2876 2703 
Q 2650 3053 2209 3053 
Q 1772 3053 1542 2737 
Q 1313 2422 1313 1825 
L 1313 1497 
z
" transform="scale(0.015625)"/>
       <path id="DejaVuSerif-67" d="M 3359 2988 
L 3359 72 
Q 3359 -644 2965 -1033 
Q 2572 -1422 1844 -1422 
Q 1516 -1422 1216 -1362 
Q 916 -1303 641 -1184 
L 641 -488 
L 941 -488 
Q 997 -813 1206 -963 
Q 1416 -1113 1806 -1113 
Q 2313 -1113 2548 -827 
Q 2784 -541 2784 72 
L 2784 519 
Q 2616 206 2355 57 
Q 2094 -91 1709 -91 
Q 1097 -91 708 395 
Q 319 881 319 1663 
Q 319 2444 706 2928 
Q 1094 3413 1709 3413 
Q 2094 3413 2355 3264 
Q 2616 3116 2784 2803 
L 2784 3322 
L 3909 3322 
L 3909 2988 
L 3359 2988 
z
M 2784 1825 
Q 2784 2422 2554 2737 
Q 2325 3053 1888 3053 
Q 1444 3053 1217 2703 
Q 991 2353 991 1663 
Q 991 975 1217 622 
Q 1444 269 1888 269 
Q 2325 269 2554 583 
Q 2784 897 2784 1497 
L 2784 1825 
z
" transform="scale(0.015625)"/>
      </defs>
      <use xlink:href="#DejaVuSerif-48"/>
      <use xlink:href="#DejaVuSerif-65" x="87.207031"/>
      <use xlink:href="#DejaVuSerif-69" x="146.386719"/>
      <use xlink:href="#DejaVuSerif-73" x="178.369141"/>
      <use xlink:href="#DejaVuSerif-65" x="229.6875"/>
      <use xlink:href="#DejaVuSerif-6e" x="288.867188"/>
      <use xlink:href="#DejaVuSerif-62" x="353.271484"/>
      <use xlink:href="#DejaVuSerif-65" x="417.285156"/>
      <use xlink:href="#DejaVuSerif-72" x="476.464844"/>
      <use xlink:href="#DejaVuSerif-67" x="524.267578"/>
     </g>
    </g>
    <g id="line2d_35">
     <path d="M 438.9455 161.98625 
L 458.9455 161.98625 
L 478.9455 161.98625 
" style="fill: none; stroke-dasharray: 9,3,3,3; stroke-dashoffset: 0; stroke: #9467bd; stroke-width: 3"/>
    </g>
    <g id="text_15">
     <!-- Pauli -->
     <g transform="translate(494.9455 168.98625) scale(0.2 -0.2)">
      <defs>
       <path id="DejaVuSerif-50" d="M 1581 2375 
L 2406 2375 
Q 2872 2375 3115 2626 
Q 3359 2878 3359 3353 
Q 3359 3831 3115 4081 
Q 2872 4331 2406 4331 
L 1581 4331 
L 1581 2375 
z
M 353 0 
L 353 331 
L 947 331 
L 947 4331 
L 353 4331 
L 353 4666 
L 2559 4666 
Q 3259 4666 3668 4311 
Q 4078 3956 4078 3353 
Q 4078 2753 3668 2397 
Q 3259 2041 2559 2041 
L 1581 2041 
L 1581 331 
L 2303 331 
L 2303 0 
L 353 0 
z
" transform="scale(0.015625)"/>
      </defs>
      <use xlink:href="#DejaVuSerif-50"/>
      <use xlink:href="#DejaVuSerif-61" x="62.785156"/>
      <use xlink:href="#DejaVuSerif-75" x="122.404297"/>
      <use xlink:href="#DejaVuSerif-6c" x="186.808594"/>
      <use xlink:href="#DejaVuSerif-69" x="218.791016"/>
     </g>
    </g>
    <g id="line2d_36">
     <path d="M 438.9455 191.3425 
L 458.9455 191.3425 
L 478.9455 191.3425 
" style="fill: none; stroke: #808080; stroke-width: 2; stroke-linecap: square"/>
    </g>
    <g id="text_16">
     <!-- Total -->
     <g transform="translate(494.9455 198.3425) scale(0.2 -0.2)">
      <defs>
       <path id="DejaVuSerif-54" d="M 1222 0 
L 1222 331 
L 1819 331 
L 1819 4294 
L 447 4294 
L 447 3566 
L 63 3566 
L 63 4666 
L 4206 4666 
L 4206 3566 
L 3822 3566 
L 3822 4294 
L 2450 4294 
L 2450 331 
L 3047 331 
L 3047 0 
L 1222 0 
z
" transform="scale(0.015625)"/>
      </defs>
      <use xlink:href="#DejaVuSerif-54"/>
      <use xlink:href="#DejaVuSerif-6f" x="58.949219"/>
      <use xlink:href="#DejaVuSerif-74" x="119.154297"/>
      <use xlink:href="#DejaVuSerif-61" x="159.339844"/>
      <use xlink:href="#DejaVuSerif-6c" x="218.958984"/>
     </g>
    </g>
   </g>
  </g>
 </g>
 <defs>
  <clipPath id="p5be4b36fa2">
   <rect x="103.44" y="28.08" width="311.91" height="389.1525"/>
  </clipPath>
 </defs>
</svg>
