<?xml version="1.0" encoding="utf-8" standalone="no"?>
<!DOCTYPE svg PUBLIC "-//W3C//DTD SVG 1.1//EN"
  "http://www.w3.org/Graphics/SVG/1.1/DTD/svg11.dtd">
<svg xmlns:xlink="http://www.w3.org/1999/xlink" width="864pt" height="576pt" viewBox="0 0 864 576" xmlns="http://www.w3.org/2000/svg" version="1.1">
 <metadata>
  <rdf:RDF xmlns:dc="http://purl.org/dc/elements/1.1/" xmlns:cc="http://creativecommons.org/ns#" xmlns:rdf="http://www.w3.org/1999/02/22-rdf-syntax-ns#">
   <cc:Work>
    <dc:type rdf:resource="http://purl.org/dc/dcmitype/StillImage"/>
    <dc:date>2025-06-06T15:59:22.552755</dc:date>
    <dc:format>image/svg+xml</dc:format>
    <dc:creator>
     <cc:Agent>
      <dc:title>Matplotlib v3.7.2, https://matplotlib.org/</dc:title>
     </cc:Agent>
    </dc:creator>
   </cc:Work>
  </rdf:RDF>
 </metadata>
 <defs>
  <style type="text/css">*{stroke-linejoin: round; stroke-linecap: butt}</style>
 </defs>
 <g id="figure_1">
  <g id="patch_1">
   <path d="M 0 576 
L 864 576 
L 864 0 
L 0 0 
z
" style="fill: #ffffff"/>
  </g>
  <g id="axes_1">
   <g id="patch_2">
    <path d="M 99.923625 487.758375 
L 835.92 487.758375 
L 835.92 28.08 
L 99.923625 28.08 
z
" style="fill: #ffffff"/>
   </g>
   <g id="matplotlib.axis_1">
    <g id="xtick_1">
     <g id="line2d_1">
      <path d="M 110.306019 487.758375 
L 110.306019 28.08 
" clip-path="url(#pc3c16367b1)" style="fill: none; stroke-dasharray: 3.7,1.6; stroke-dashoffset: 0; stroke: #b0b0b0; stroke-opacity: 0.5"/>
     </g>
     <g id="line2d_2">
      <defs>
       <path id="m128401d5cf" d="M 0 0 
L 0 -10 
" style="stroke: #000000; stroke-width: 2"/>
      </defs>
      <g>
       <use xlink:href="#m128401d5cf" x="110.306019" y="487.758375" style="stroke: #000000; stroke-width: 2"/>
      </g>
     </g>
     <g id="line2d_3">
      <defs>
       <path id="m9b7b790e18" d="M 0 0 
L 0 10 
" style="stroke: #000000; stroke-width: 2"/>
      </defs>
      <g>
       <use xlink:href="#m9b7b790e18" x="110.306019" y="28.08" style="stroke: #000000; stroke-width: 2"/>
      </g>
     </g>
     <g id="text_1">
      <!-- 0.0 -->
      <g transform="translate(89.631957 511.014312) scale(0.26 -0.26)">
       <defs>
        <path id="DejaVuSerif-30" d="M 2034 219 
Q 2513 219 2750 744 
Q 2988 1269 2988 2328 
Q 2988 3391 2750 3916 
Q 2513 4441 2034 4441 
Q 1556 4441 1318 3916 
Q 1081 3391 1081 2328 
Q 1081 1269 1318 744 
Q 1556 219 2034 219 
z
M 2034 -91 
Q 1275 -91 848 546 
Q 422 1184 422 2328 
Q 422 3475 848 4112 
Q 1275 4750 2034 4750 
Q 2797 4750 3222 4112 
Q 3647 3475 3647 2328 
Q 3647 1184 3222 546 
Q 2797 -91 2034 -91 
z
" transform="scale(0.015625)"/>
        <path id="DejaVuSerif-2e" d="M 603 325 
Q 603 500 722 622 
Q 841 744 1019 744 
Q 1191 744 1312 622 
Q 1434 500 1434 325 
Q 1434 153 1312 31 
Q 1191 -91 1019 -91 
Q 841 -91 722 29 
Q 603 150 603 325 
z
" transform="scale(0.015625)"/>
       </defs>
       <use xlink:href="#DejaVuSerif-30"/>
       <use xlink:href="#DejaVuSerif-2e" x="63.623047"/>
       <use xlink:href="#DejaVuSerif-30" x="95.410156"/>
      </g>
     </g>
    </g>
    <g id="xtick_2">
     <g id="line2d_4">
      <path d="M 225.665952 487.758375 
L 225.665952 28.08 
" clip-path="url(#pc3c16367b1)" style="fill: none; stroke-dasharray: 3.7,1.6; stroke-dashoffset: 0; stroke: #b0b0b0; stroke-opacity: 0.5"/>
     </g>
     <g id="line2d_5">
      <g>
       <use xlink:href="#m128401d5cf" x="225.665952" y="487.758375" style="stroke: #000000; stroke-width: 2"/>
      </g>
     </g>
     <g id="line2d_6">
      <g>
       <use xlink:href="#m9b7b790e18" x="225.665952" y="28.08" style="stroke: #000000; stroke-width: 2"/>
      </g>
     </g>
     <g id="text_2">
      <!-- 0.5 -->
      <g transform="translate(204.99189 511.014312) scale(0.26 -0.26)">
       <defs>
        <path id="DejaVuSerif-35" d="M 3219 4666 
L 3219 4153 
L 1081 4153 
L 1081 2816 
Q 1244 2928 1461 2984 
Q 1678 3041 1947 3041 
Q 2703 3041 3140 2622 
Q 3578 2203 3578 1478 
Q 3578 738 3136 323 
Q 2694 -91 1894 -91 
Q 1572 -91 1234 -12 
Q 897 66 544 225 
L 544 1131 
L 897 1131 
Q 925 688 1179 453 
Q 1434 219 1894 219 
Q 2388 219 2653 544 
Q 2919 869 2919 1478 
Q 2919 2084 2655 2407 
Q 2391 2731 1894 2731 
Q 1613 2731 1398 2631 
Q 1184 2531 1019 2322 
L 750 2322 
L 750 4666 
L 3219 4666 
z
" transform="scale(0.015625)"/>
       </defs>
       <use xlink:href="#DejaVuSerif-30"/>
       <use xlink:href="#DejaVuSerif-2e" x="63.623047"/>
       <use xlink:href="#DejaVuSerif-35" x="95.410156"/>
      </g>
     </g>
    </g>
    <g id="xtick_3">
     <g id="line2d_7">
      <path d="M 341.025886 487.758375 
L 341.025886 28.08 
" clip-path="url(#pc3c16367b1)" style="fill: none; stroke-dasharray: 3.7,1.6; stroke-dashoffset: 0; stroke: #b0b0b0; stroke-opacity: 0.5"/>
     </g>
     <g id="line2d_8">
      <g>
       <use xlink:href="#m128401d5cf" x="341.025886" y="487.758375" style="stroke: #000000; stroke-width: 2"/>
      </g>
     </g>
     <g id="line2d_9">
      <g>
       <use xlink:href="#m9b7b790e18" x="341.025886" y="28.08" style="stroke: #000000; stroke-width: 2"/>
      </g>
     </g>
     <g id="text_3">
      <!-- 1.0 -->
      <g transform="translate(320.351823 511.014312) scale(0.26 -0.26)">
       <defs>
        <path id="DejaVuSerif-31" d="M 909 0 
L 909 331 
L 1722 331 
L 1722 4213 
L 781 3603 
L 781 4013 
L 1919 4750 
L 2350 4750 
L 2350 331 
L 3163 331 
L 3163 0 
L 909 0 
z
" transform="scale(0.015625)"/>
       </defs>
       <use xlink:href="#DejaVuSerif-31"/>
       <use xlink:href="#DejaVuSerif-2e" x="63.623047"/>
       <use xlink:href="#DejaVuSerif-30" x="95.410156"/>
      </g>
     </g>
    </g>
    <g id="xtick_4">
     <g id="line2d_10">
      <path d="M 456.385819 487.758375 
L 456.385819 28.08 
" clip-path="url(#pc3c16367b1)" style="fill: none; stroke-dasharray: 3.7,1.6; stroke-dashoffset: 0; stroke: #b0b0b0; stroke-opacity: 0.5"/>
     </g>
     <g id="line2d_11">
      <g>
       <use xlink:href="#m128401d5cf" x="456.385819" y="487.758375" style="stroke: #000000; stroke-width: 2"/>
      </g>
     </g>
     <g id="line2d_12">
      <g>
       <use xlink:href="#m9b7b790e18" x="456.385819" y="28.08" style="stroke: #000000; stroke-width: 2"/>
      </g>
     </g>
     <g id="text_4">
      <!-- 1.5 -->
      <g transform="translate(435.711757 511.014312) scale(0.26 -0.26)">
       <use xlink:href="#DejaVuSerif-31"/>
       <use xlink:href="#DejaVuSerif-2e" x="63.623047"/>
       <use xlink:href="#DejaVuSerif-35" x="95.410156"/>
      </g>
     </g>
    </g>
    <g id="xtick_5">
     <g id="line2d_13">
      <path d="M 571.745753 487.758375 
L 571.745753 28.08 
" clip-path="url(#pc3c16367b1)" style="fill: none; stroke-dasharray: 3.7,1.6; stroke-dashoffset: 0; stroke: #b0b0b0; stroke-opacity: 0.5"/>
     </g>
     <g id="line2d_14">
      <g>
       <use xlink:href="#m128401d5cf" x="571.745753" y="487.758375" style="stroke: #000000; stroke-width: 2"/>
      </g>
     </g>
     <g id="line2d_15">
      <g>
       <use xlink:href="#m9b7b790e18" x="571.745753" y="28.08" style="stroke: #000000; stroke-width: 2"/>
      </g>
     </g>
     <g id="text_5">
      <!-- 2.0 -->
      <g transform="translate(551.07169 511.014312) scale(0.26 -0.26)">
       <defs>
        <path id="DejaVuSerif-32" d="M 819 3553 
L 469 3553 
L 469 4384 
Q 803 4563 1142 4656 
Q 1481 4750 1806 4750 
Q 2534 4750 2956 4397 
Q 3378 4044 3378 3438 
Q 3378 2753 2422 1800 
Q 2347 1728 2309 1691 
L 1131 513 
L 3078 513 
L 3078 1088 
L 3444 1088 
L 3444 0 
L 434 0 
L 434 341 
L 1850 1753 
Q 2319 2222 2519 2614 
Q 2719 3006 2719 3438 
Q 2719 3909 2473 4175 
Q 2228 4441 1797 4441 
Q 1350 4441 1106 4219 
Q 863 3997 819 3553 
z
" transform="scale(0.015625)"/>
       </defs>
       <use xlink:href="#DejaVuSerif-32"/>
       <use xlink:href="#DejaVuSerif-2e" x="63.623047"/>
       <use xlink:href="#DejaVuSerif-30" x="95.410156"/>
      </g>
     </g>
    </g>
    <g id="xtick_6">
     <g id="line2d_16">
      <path d="M 687.105686 487.758375 
L 687.105686 28.08 
" clip-path="url(#pc3c16367b1)" style="fill: none; stroke-dasharray: 3.7,1.6; stroke-dashoffset: 0; stroke: #b0b0b0; stroke-opacity: 0.5"/>
     </g>
     <g id="line2d_17">
      <g>
       <use xlink:href="#m128401d5cf" x="687.105686" y="487.758375" style="stroke: #000000; stroke-width: 2"/>
      </g>
     </g>
     <g id="line2d_18">
      <g>
       <use xlink:href="#m9b7b790e18" x="687.105686" y="28.08" style="stroke: #000000; stroke-width: 2"/>
      </g>
     </g>
     <g id="text_6">
      <!-- 2.5 -->
      <g transform="translate(666.431623 511.014312) scale(0.26 -0.26)">
       <use xlink:href="#DejaVuSerif-32"/>
       <use xlink:href="#DejaVuSerif-2e" x="63.623047"/>
       <use xlink:href="#DejaVuSerif-35" x="95.410156"/>
      </g>
     </g>
    </g>
    <g id="xtick_7">
     <g id="line2d_19">
      <path d="M 802.465619 487.758375 
L 802.465619 28.08 
" clip-path="url(#pc3c16367b1)" style="fill: none; stroke-dasharray: 3.7,1.6; stroke-dashoffset: 0; stroke: #b0b0b0; stroke-opacity: 0.5"/>
     </g>
     <g id="line2d_20">
      <g>
       <use xlink:href="#m128401d5cf" x="802.465619" y="487.758375" style="stroke: #000000; stroke-width: 2"/>
      </g>
     </g>
     <g id="line2d_21">
      <g>
       <use xlink:href="#m9b7b790e18" x="802.465619" y="28.08" style="stroke: #000000; stroke-width: 2"/>
      </g>
     </g>
     <g id="text_7">
      <!-- 3.0 -->
      <g transform="translate(781.791557 511.014312) scale(0.26 -0.26)">
       <defs>
        <path id="DejaVuSerif-33" d="M 622 4469 
Q 988 4606 1323 4678 
Q 1659 4750 1953 4750 
Q 2638 4750 3022 4454 
Q 3406 4159 3406 3634 
Q 3406 3213 3140 2930 
Q 2875 2647 2388 2547 
Q 2963 2466 3280 2130 
Q 3597 1794 3597 1259 
Q 3597 606 3158 257 
Q 2719 -91 1894 -91 
Q 1528 -91 1179 -12 
Q 831 66 488 225 
L 488 1131 
L 838 1131 
Q 869 681 1141 450 
Q 1413 219 1906 219 
Q 2384 219 2661 495 
Q 2938 772 2938 1253 
Q 2938 1803 2653 2086 
Q 2369 2369 1819 2369 
L 1522 2369 
L 1522 2688 
L 1678 2688 
Q 2225 2688 2498 2914 
Q 2772 3141 2772 3597 
Q 2772 4006 2547 4223 
Q 2322 4441 1900 4441 
Q 1478 4441 1245 4241 
Q 1013 4041 972 3647 
L 622 3647 
L 622 4469 
z
" transform="scale(0.015625)"/>
       </defs>
       <use xlink:href="#DejaVuSerif-33"/>
       <use xlink:href="#DejaVuSerif-2e" x="63.623047"/>
       <use xlink:href="#DejaVuSerif-30" x="95.410156"/>
      </g>
     </g>
    </g>
    <g id="text_8">
     <!-- $E_{0}$ (a.u.) -->
     <g transform="translate(414.231813 540.177437) scale(0.26 -0.26)">
      <defs>
       <path id="Cmmi10-45" d="M 300 0 
Q 238 0 238 84 
Q 241 100 250 139 
Q 259 178 276 201 
Q 294 225 319 225 
Q 709 225 863 269 
Q 947 297 984 441 
L 1863 3956 
Q 1875 4019 1875 4044 
Q 1875 4113 1797 4122 
Q 1678 4147 1338 4147 
Q 1275 4147 1275 4231 
Q 1278 4247 1287 4286 
Q 1297 4325 1314 4348 
Q 1331 4372 1356 4372 
L 4825 4372 
Q 4891 4372 4891 4288 
L 4738 2963 
Q 4738 2947 4714 2926 
Q 4691 2906 4672 2906 
L 4616 2906 
Q 4550 2906 4550 2988 
Q 4588 3300 4588 3450 
Q 4588 3706 4500 3848 
Q 4413 3991 4267 4053 
Q 4122 4116 3945 4131 
Q 3769 4147 3481 4147 
L 2753 4147 
Q 2578 4147 2522 4117 
Q 2466 4088 2419 3928 
L 2034 2381 
L 2534 2381 
Q 2859 2381 3025 2426 
Q 3191 2472 3287 2615 
Q 3384 2759 3463 3072 
Q 3469 3094 3486 3111 
Q 3503 3128 3525 3128 
L 3584 3128 
Q 3647 3128 3647 3047 
L 3250 1466 
Q 3238 1409 3188 1409 
L 3128 1409 
Q 3066 1409 3066 1491 
Q 3128 1747 3128 1869 
Q 3128 2056 2959 2106 
Q 2791 2156 2509 2156 
L 1978 2156 
L 1544 416 
Q 1516 338 1516 275 
Q 1516 225 1734 225 
L 2509 225 
Q 2972 225 3259 297 
Q 3547 369 3736 526 
Q 3925 684 4062 928 
Q 4200 1172 4397 1638 
Q 4409 1678 4453 1678 
L 4513 1678 
Q 4538 1678 4556 1656 
Q 4575 1634 4575 1606 
Q 4575 1594 4569 1581 
L 3909 38 
Q 3897 0 3859 0 
L 300 0 
z
" transform="scale(0.015625)"/>
       <path id="Cmr10-30" d="M 1600 -141 
Q 816 -141 533 504 
Q 250 1150 250 2041 
Q 250 2597 351 3087 
Q 453 3578 754 3920 
Q 1056 4263 1600 4263 
Q 2022 4263 2290 4056 
Q 2559 3850 2700 3523 
Q 2841 3197 2892 2823 
Q 2944 2450 2944 2041 
Q 2944 1491 2842 1011 
Q 2741 531 2444 195 
Q 2147 -141 1600 -141 
z
M 1600 25 
Q 1956 25 2131 390 
Q 2306 756 2347 1200 
Q 2388 1644 2388 2144 
Q 2388 2625 2347 3031 
Q 2306 3438 2132 3767 
Q 1959 4097 1600 4097 
Q 1238 4097 1063 3765 
Q 888 3434 847 3029 
Q 806 2625 806 2144 
Q 806 1788 823 1472 
Q 841 1156 916 820 
Q 991 484 1158 254 
Q 1325 25 1600 25 
z
" transform="scale(0.015625)"/>
       <path id="DejaVuSerif-20" transform="scale(0.015625)"/>
       <path id="DejaVuSerif-28" d="M 2041 -997 
Q 1281 -656 893 83 
Q 506 822 506 1931 
Q 506 3044 893 3783 
Q 1281 4522 2041 4863 
L 2041 4556 
Q 1559 4225 1350 3623 
Q 1141 3022 1141 1931 
Q 1141 844 1350 242 
Q 1559 -359 2041 -691 
L 2041 -997 
z
" transform="scale(0.015625)"/>
       <path id="DejaVuSerif-61" d="M 2547 1044 
L 2547 1747 
L 1806 1747 
Q 1378 1747 1168 1562 
Q 959 1378 959 997 
Q 959 650 1171 447 
Q 1384 244 1747 244 
Q 2106 244 2326 466 
Q 2547 688 2547 1044 
z
M 3122 2075 
L 3122 331 
L 3634 331 
L 3634 0 
L 2547 0 
L 2547 359 
Q 2356 128 2106 18 
Q 1856 -91 1522 -91 
Q 969 -91 644 203 
Q 319 497 319 997 
Q 319 1513 691 1797 
Q 1063 2081 1741 2081 
L 2547 2081 
L 2547 2309 
Q 2547 2688 2317 2895 
Q 2088 3103 1672 3103 
Q 1328 3103 1125 2947 
Q 922 2791 872 2484 
L 575 2484 
L 575 3156 
Q 875 3284 1158 3348 
Q 1441 3413 1709 3413 
Q 2400 3413 2761 3070 
Q 3122 2728 3122 2075 
z
" transform="scale(0.015625)"/>
       <path id="DejaVuSerif-75" d="M 2266 3322 
L 3341 3322 
L 3341 331 
L 3884 331 
L 3884 0 
L 2766 0 
L 2766 588 
Q 2606 256 2353 82 
Q 2100 -91 1766 -91 
Q 1213 -91 952 223 
Q 691 538 691 1209 
L 691 2988 
L 172 2988 
L 172 3322 
L 1269 3322 
L 1269 1388 
Q 1269 781 1417 556 
Q 1566 331 1947 331 
Q 2347 331 2556 625 
Q 2766 919 2766 1478 
L 2766 2988 
L 2266 2988 
L 2266 3322 
z
" transform="scale(0.015625)"/>
       <path id="DejaVuSerif-29" d="M 453 -997 
L 453 -691 
Q 934 -359 1145 242 
Q 1356 844 1356 1931 
Q 1356 3022 1145 3623 
Q 934 4225 453 4556 
L 453 4863 
Q 1216 4522 1603 3783 
Q 1991 3044 1991 1931 
Q 1991 822 1603 83 
Q 1216 -656 453 -997 
z
" transform="scale(0.015625)"/>
      </defs>
      <use xlink:href="#Cmmi10-45" transform="translate(0 0.015625)"/>
      <use xlink:href="#Cmr10-30" transform="translate(73.779297 -16.990625) scale(0.7)"/>
      <use xlink:href="#DejaVuSerif-20" transform="translate(115.156641 0.015625)"/>
      <use xlink:href="#DejaVuSerif-28" transform="translate(146.94375 0.015625)"/>
      <use xlink:href="#DejaVuSerif-61" transform="translate(185.957422 0.015625)"/>
      <use xlink:href="#DejaVuSerif-2e" transform="translate(245.576562 0.015625)"/>
      <use xlink:href="#DejaVuSerif-75" transform="translate(277.363672 0.015625)"/>
      <use xlink:href="#DejaVuSerif-2e" transform="translate(341.767969 0.015625)"/>
      <use xlink:href="#DejaVuSerif-29" transform="translate(373.555078 0.015625)"/>
     </g>
    </g>
   </g>
   <g id="matplotlib.axis_2">
    <g id="ytick_1">
     <g id="line2d_22">
      <path d="M 99.923625 466.863903 
L 835.92 466.863903 
" clip-path="url(#pc3c16367b1)" style="fill: none; stroke-dasharray: 3.7,1.6; stroke-dashoffset: 0; stroke: #b0b0b0; stroke-opacity: 0.5"/>
     </g>
     <g id="line2d_23">
      <defs>
       <path id="m17b1499654" d="M 0 0 
L 10 0 
" style="stroke: #000000; stroke-width: 2"/>
      </defs>
      <g>
       <use xlink:href="#m17b1499654" x="99.923625" y="466.863903" style="stroke: #000000; stroke-width: 2"/>
      </g>
     </g>
     <g id="line2d_24">
      <defs>
       <path id="m90538e80de" d="M 0 0 
L -10 0 
" style="stroke: #000000; stroke-width: 2"/>
      </defs>
      <g>
       <use xlink:href="#m90538e80de" x="835.92" y="466.863903" style="stroke: #000000; stroke-width: 2"/>
      </g>
     </g>
     <g id="text_9">
      <!-- 0 -->
      <g transform="translate(79.881125 476.741872) scale(0.26 -0.26)">
       <use xlink:href="#DejaVuSerif-30"/>
      </g>
     </g>
    </g>
    <g id="ytick_2">
     <g id="line2d_25">
      <path d="M 99.923625 352.996048 
L 835.92 352.996048 
" clip-path="url(#pc3c16367b1)" style="fill: none; stroke-dasharray: 3.7,1.6; stroke-dashoffset: 0; stroke: #b0b0b0; stroke-opacity: 0.5"/>
     </g>
     <g id="line2d_26">
      <g>
       <use xlink:href="#m17b1499654" x="99.923625" y="352.996048" style="stroke: #000000; stroke-width: 2"/>
      </g>
     </g>
     <g id="line2d_27">
      <g>
       <use xlink:href="#m90538e80de" x="835.92" y="352.996048" style="stroke: #000000; stroke-width: 2"/>
      </g>
     </g>
     <g id="text_10">
      <!-- 5 -->
      <g transform="translate(79.881125 362.874016) scale(0.26 -0.26)">
       <use xlink:href="#DejaVuSerif-35"/>
      </g>
     </g>
    </g>
    <g id="ytick_3">
     <g id="line2d_28">
      <path d="M 99.923625 239.128192 
L 835.92 239.128192 
" clip-path="url(#pc3c16367b1)" style="fill: none; stroke-dasharray: 3.7,1.6; stroke-dashoffset: 0; stroke: #b0b0b0; stroke-opacity: 0.5"/>
     </g>
     <g id="line2d_29">
      <g>
       <use xlink:href="#m17b1499654" x="99.923625" y="239.128192" style="stroke: #000000; stroke-width: 2"/>
      </g>
     </g>
     <g id="line2d_30">
      <g>
       <use xlink:href="#m90538e80de" x="835.92" y="239.128192" style="stroke: #000000; stroke-width: 2"/>
      </g>
     </g>
     <g id="text_11">
      <!-- 10 -->
      <g transform="translate(63.338625 249.006161) scale(0.26 -0.26)">
       <use xlink:href="#DejaVuSerif-31"/>
       <use xlink:href="#DejaVuSerif-30" x="63.623047"/>
      </g>
     </g>
    </g>
    <g id="ytick_4">
     <g id="line2d_31">
      <path d="M 99.923625 125.260336 
L 835.92 125.260336 
" clip-path="url(#pc3c16367b1)" style="fill: none; stroke-dasharray: 3.7,1.6; stroke-dashoffset: 0; stroke: #b0b0b0; stroke-opacity: 0.5"/>
     </g>
     <g id="line2d_32">
      <g>
       <use xlink:href="#m17b1499654" x="99.923625" y="125.260336" style="stroke: #000000; stroke-width: 2"/>
      </g>
     </g>
     <g id="line2d_33">
      <g>
       <use xlink:href="#m90538e80de" x="835.92" y="125.260336" style="stroke: #000000; stroke-width: 2"/>
      </g>
     </g>
     <g id="text_12">
      <!-- 15 -->
      <g transform="translate(63.338625 135.138305) scale(0.26 -0.26)">
       <use xlink:href="#DejaVuSerif-31"/>
       <use xlink:href="#DejaVuSerif-35" x="63.623047"/>
      </g>
     </g>
    </g>
    <g id="text_13">
     <!-- $\sigma_{cap}$ (a₀²) -->
     <g transform="translate(51.278625 311.999187) rotate(-90) scale(0.26 -0.26)">
      <defs>
       <path id="Cmmi10-be" d="M 1197 -72 
Q 913 -72 692 64 
Q 472 200 351 431 
Q 231 663 231 941 
Q 231 1238 365 1566 
Q 500 1894 733 2166 
Q 966 2438 1259 2598 
Q 1553 2759 1863 2759 
L 3475 2759 
Q 3541 2759 3587 2715 
Q 3634 2672 3634 2597 
Q 3634 2503 3567 2433 
Q 3500 2363 3406 2363 
L 2625 2363 
Q 2809 2088 2809 1697 
Q 2809 1375 2684 1062 
Q 2559 750 2337 492 
Q 2116 234 1820 81 
Q 1525 -72 1197 -72 
z
M 1203 97 
Q 1553 97 1823 370 
Q 2094 644 2237 1039 
Q 2381 1434 2381 1772 
Q 2381 2047 2229 2205 
Q 2078 2363 1806 2363 
Q 1434 2363 1173 2113 
Q 913 1863 783 1484 
Q 653 1106 653 756 
Q 653 481 798 289 
Q 944 97 1203 97 
z
" transform="scale(0.015625)"/>
       <path id="Cmmi10-63" d="M 750 763 
Q 750 484 892 290 
Q 1034 97 1300 97 
Q 1681 97 2032 272 
Q 2384 447 2606 756 
Q 2625 775 2656 775 
Q 2688 775 2720 739 
Q 2753 703 2753 672 
Q 2753 647 2741 634 
Q 2506 306 2109 117 
Q 1713 -72 1288 -72 
Q 981 -72 747 73 
Q 513 219 384 462 
Q 256 706 256 1013 
Q 256 1444 497 1869 
Q 738 2294 1138 2561 
Q 1538 2828 1978 2828 
Q 2266 2828 2495 2689 
Q 2725 2550 2725 2278 
Q 2725 2103 2623 1979 
Q 2522 1856 2350 1856 
Q 2247 1856 2176 1920 
Q 2106 1984 2106 2088 
Q 2106 2238 2215 2344 
Q 2325 2450 2472 2450 
L 2484 2450 
Q 2409 2559 2267 2611 
Q 2125 2663 1972 2663 
Q 1597 2663 1315 2342 
Q 1034 2022 892 1576 
Q 750 1131 750 763 
z
" transform="scale(0.015625)"/>
       <path id="Cmmi10-61" d="M 1113 -72 
Q 709 -72 476 233 
Q 244 538 244 953 
Q 244 1363 456 1803 
Q 669 2244 1030 2536 
Q 1391 2828 1806 2828 
Q 1997 2828 2147 2725 
Q 2297 2622 2381 2444 
Q 2453 2700 2663 2700 
Q 2744 2700 2798 2651 
Q 2853 2603 2853 2522 
Q 2853 2503 2851 2493 
Q 2850 2484 2847 2472 
L 2400 684 
Q 2356 494 2356 372 
Q 2356 97 2541 97 
Q 2741 97 2845 351 
Q 2950 606 3022 941 
Q 3034 978 3072 978 
L 3150 978 
Q 3175 978 3190 956 
Q 3206 934 3206 916 
Q 3094 469 2961 198 
Q 2828 -72 2528 -72 
Q 2313 -72 2147 54 
Q 1981 181 1941 391 
Q 1528 -72 1113 -72 
z
M 1119 97 
Q 1350 97 1567 270 
Q 1784 444 1941 678 
Q 1947 684 1947 697 
L 2291 2088 
L 2297 2106 
Q 2259 2334 2132 2498 
Q 2006 2663 1791 2663 
Q 1575 2663 1389 2486 
Q 1203 2309 1075 2069 
Q 950 1813 836 1366 
Q 722 919 722 672 
Q 722 450 817 273 
Q 913 97 1119 97 
z
" transform="scale(0.015625)"/>
       <path id="Cmmi10-70" d="M -159 -1241 
Q -219 -1241 -219 -1159 
Q -197 -1019 -134 -1019 
Q 66 -1019 145 -983 
Q 225 -947 269 -800 
L 991 2081 
Q 1038 2200 1038 2388 
Q 1038 2663 850 2663 
Q 650 2663 553 2423 
Q 456 2184 366 1819 
Q 366 1778 313 1778 
L 238 1778 
Q 222 1778 203 1801 
Q 184 1825 184 1844 
Q 253 2122 317 2315 
Q 381 2509 517 2668 
Q 653 2828 856 2828 
Q 1075 2828 1240 2704 
Q 1406 2581 1453 2369 
Q 1628 2572 1840 2700 
Q 2053 2828 2278 2828 
Q 2547 2828 2745 2684 
Q 2944 2541 3044 2308 
Q 3144 2075 3144 1806 
Q 3144 1394 2933 953 
Q 2722 513 2361 220 
Q 2000 -72 1588 -72 
Q 1400 -72 1248 34 
Q 1097 141 1013 313 
L 722 -825 
Q 706 -919 703 -934 
Q 703 -1019 1125 -1019 
Q 1191 -1019 1191 -1100 
Q 1169 -1184 1155 -1212 
Q 1141 -1241 1081 -1241 
L -159 -1241 
z
M 1594 97 
Q 1816 97 2006 280 
Q 2197 463 2316 691 
Q 2403 863 2479 1111 
Q 2556 1359 2612 1640 
Q 2669 1922 2669 2088 
Q 2669 2234 2630 2362 
Q 2591 2491 2502 2577 
Q 2413 2663 2266 2663 
Q 2031 2663 1823 2495 
Q 1616 2328 1447 2081 
L 1447 2059 
L 1094 647 
Q 1138 419 1263 258 
Q 1388 97 1594 97 
z
" transform="scale(0.015625)"/>
       <path id="DejaVuSerif-2080" d="M 784 394 
Q 950 101 1281 101 
Q 1613 101 1778 394 
Q 1944 688 1944 1285 
Q 1944 1879 1778 2172 
Q 1613 2466 1281 2466 
Q 950 2466 784 2172 
Q 619 1879 619 1285 
Q 619 688 784 394 
z
M 2106 285 
Q 1809 -71 1281 -71 
Q 753 -71 456 285 
Q 163 641 163 1285 
Q 163 1926 456 2282 
Q 753 2638 1281 2638 
Q 1809 2638 2106 2282 
Q 2400 1926 2400 1285 
Q 2400 641 2106 285 
z
" transform="scale(0.015625)"/>
       <path id="DejaVuSerif-b2" d="M 531 4050 
L 313 4050 
L 313 4544 
Q 519 4644 737 4697 
Q 956 4750 1172 4750 
Q 1603 4750 1870 4544 
Q 2138 4338 2138 4013 
Q 2138 3631 1531 3088 
L 1472 3034 
L 728 2363 
L 1931 2363 
L 1931 2700 
L 2163 2700 
L 2163 2088 
L 281 2088 
L 281 2322 
L 1172 3116 
Q 1441 3356 1556 3547 
Q 1672 3738 1672 3944 
Q 1672 4209 1520 4364 
Q 1369 4519 1106 4519 
Q 863 4519 716 4400 
Q 569 4281 531 4050 
z
" transform="scale(0.015625)"/>
      </defs>
      <use xlink:href="#Cmmi10-be" transform="translate(0 0.015625)"/>
      <use xlink:href="#Cmmi10-63" transform="translate(57.080078 -16.990625) scale(0.7)"/>
      <use xlink:href="#Cmmi10-61" transform="translate(87.329102 -16.990625) scale(0.7)"/>
      <use xlink:href="#Cmmi10-70" transform="translate(124.277344 -16.990625) scale(0.7)"/>
      <use xlink:href="#DejaVuSerif-20" transform="translate(165.859766 0.015625)"/>
      <use xlink:href="#DejaVuSerif-28" transform="translate(197.646875 0.015625)"/>
      <use xlink:href="#DejaVuSerif-61" transform="translate(236.660547 0.015625)"/>
      <use xlink:href="#DejaVuSerif-2080" transform="translate(296.279688 0.015625)"/>
      <use xlink:href="#DejaVuSerif-b2" transform="translate(336.367578 0.015625)"/>
      <use xlink:href="#DejaVuSerif-29" transform="translate(376.455469 0.015625)"/>
     </g>
    </g>
   </g>
   <g id="LineCollection_1">
    <path d="M 133.378006 112.06427 
L 133.378006 48.974472 
" clip-path="url(#pc3c16367b1)" style="fill: none; stroke: #000000; stroke-width: 3"/>
    <path d="M 135.531391 138.238403 
L 135.531391 74.312942 
" clip-path="url(#pc3c16367b1)" style="fill: none; stroke: #000000; stroke-width: 3"/>
    <path d="M 158.449565 327.69193 
L 158.449565 271.203949 
" clip-path="url(#pc3c16367b1)" style="fill: none; stroke: #000000; stroke-width: 3"/>
    <path d="M 177.983847 357.870202 
L 177.983847 305.416432 
" clip-path="url(#pc3c16367b1)" style="fill: none; stroke: #000000; stroke-width: 3"/>
    <path d="M 181.367738 345.862889 
L 181.367738 291.667443 
" clip-path="url(#pc3c16367b1)" style="fill: none; stroke: #000000; stroke-width: 3"/>
    <path d="M 204.285911 351.877874 
L 204.285911 298.530609 
" clip-path="url(#pc3c16367b1)" style="fill: none; stroke: #000000; stroke-width: 3"/>
    <path d="M 222.589688 387.444736 
L 222.589688 340.232654 
" clip-path="url(#pc3c16367b1)" style="fill: none; stroke: #000000; stroke-width: 3"/>
    <path d="M 227.204085 387.444736 
L 227.204085 340.232654 
" clip-path="url(#pc3c16367b1)" style="fill: none; stroke: #000000; stroke-width: 3"/>
    <path d="M 250.122258 410.519516 
L 250.122258 368.670478 
" clip-path="url(#pc3c16367b1)" style="fill: none; stroke: #000000; stroke-width: 3"/>
    <path d="M 267.195528 404.810754 
L 267.195528 361.501089 
" clip-path="url(#pc3c16367b1)" style="fill: none; stroke: #000000; stroke-width: 3"/>
    <path d="M 273.040432 443.521407 
L 273.040432 412.937493 
" clip-path="url(#pc3c16367b1)" style="fill: none; stroke: #000000; stroke-width: 3"/>
    <path d="M 295.958605 404.810754 
L 295.958605 361.501089 
" clip-path="url(#pc3c16367b1)" style="fill: none; stroke: #000000; stroke-width: 3"/>
    <path d="M 311.801369 438.219484 
L 311.801369 405.361265 
" clip-path="url(#pc3c16367b1)" style="fill: none; stroke: #000000; stroke-width: 3"/>
    <path d="M 318.876779 443.521407 
L 318.876779 412.937493 
" clip-path="url(#pc3c16367b1)" style="fill: none; stroke: #000000; stroke-width: 3"/>
    <path d="M 341.794952 416.18128 
L 341.794952 375.886865 
" clip-path="url(#pc3c16367b1)" style="fill: none; stroke: #000000; stroke-width: 3"/>
    <path d="M 356.40721 427.339683 
L 356.40721 390.484764 
" clip-path="url(#pc3c16367b1)" style="fill: none; stroke: #000000; stroke-width: 3"/>
    <path d="M 364.713125 427.339683 
L 364.713125 390.484764 
" clip-path="url(#pc3c16367b1)" style="fill: none; stroke: #000000; stroke-width: 3"/>
    <path d="M 387.631299 444.338293 
L 387.631299 426.429664 
" clip-path="url(#pc3c16367b1)" style="fill: none; stroke: #000000; stroke-width: 3"/>
    <path d="M 401.013051 446.831224 
L 401.013051 429.660356 
" clip-path="url(#pc3c16367b1)" style="fill: none; stroke: #000000; stroke-width: 3"/>
    <path d="M 410.549472 461.02464 
L 410.549472 449.808676 
" clip-path="url(#pc3c16367b1)" style="fill: none; stroke: #000000; stroke-width: 3"/>
    <path d="M 433.467646 463.160354 
L 433.467646 453.396585 
" clip-path="url(#pc3c16367b1)" style="fill: none; stroke: #000000; stroke-width: 3"/>
    <path d="M 445.618892 466.849558 
L 445.618892 461.154626 
" clip-path="url(#pc3c16367b1)" style="fill: none; stroke: #000000; stroke-width: 3"/>
    <path d="M 456.385819 466.849558 
L 456.385819 461.154626 
" clip-path="url(#pc3c16367b1)" style="fill: none; stroke: #000000; stroke-width: 3"/>
    <path d="M 490.224733 463.160354 
L 490.224733 453.396585 
" clip-path="url(#pc3c16367b1)" style="fill: none; stroke: #000000; stroke-width: 3"/>
    <path d="M 534.830574 466.849558 
L 534.830574 461.154626 
" clip-path="url(#pc3c16367b1)" style="fill: none; stroke: #000000; stroke-width: 3"/>
    <path d="M 579.436415 465.146817 
L 579.436415 457.133745 
" clip-path="url(#pc3c16367b1)" style="fill: none; stroke: #000000; stroke-width: 3"/>
    <path d="M 624.042256 466.863903 
L 624.042256 466.863903 
" clip-path="url(#pc3c16367b1)" style="fill: none; stroke: #000000; stroke-width: 3"/>
    <path d="M 668.648097 466.860317 
L 668.648097 465.436584 
" clip-path="url(#pc3c16367b1)" style="fill: none; stroke: #000000; stroke-width: 3"/>
    <path d="M 713.253938 466.863903 
L 713.253938 466.863903 
" clip-path="url(#pc3c16367b1)" style="fill: none; stroke: #000000; stroke-width: 3"/>
    <path d="M 757.859778 466.863903 
L 757.859778 466.863903 
" clip-path="url(#pc3c16367b1)" style="fill: none; stroke: #000000; stroke-width: 3"/>
    <path d="M 802.465619 466.863903 
L 802.465619 466.863903 
" clip-path="url(#pc3c16367b1)" style="fill: none; stroke: #000000; stroke-width: 3"/>
   </g>
   <g id="line2d_34">
    <defs>
     <path id="m3a11274f6c" d="M 5 0 
L -5 -0 
" style="stroke: #000000"/>
    </defs>
    <g clip-path="url(#pc3c16367b1)">
     <use xlink:href="#m3a11274f6c" x="133.378006" y="112.06427" style="stroke: #000000"/>
     <use xlink:href="#m3a11274f6c" x="135.531391" y="138.238403" style="stroke: #000000"/>
     <use xlink:href="#m3a11274f6c" x="158.449565" y="327.69193" style="stroke: #000000"/>
     <use xlink:href="#m3a11274f6c" x="177.983847" y="357.870202" style="stroke: #000000"/>
     <use xlink:href="#m3a11274f6c" x="181.367738" y="345.862889" style="stroke: #000000"/>
     <use xlink:href="#m3a11274f6c" x="204.285911" y="351.877874" style="stroke: #000000"/>
     <use xlink:href="#m3a11274f6c" x="222.589688" y="387.444736" style="stroke: #000000"/>
     <use xlink:href="#m3a11274f6c" x="227.204085" y="387.444736" style="stroke: #000000"/>
     <use xlink:href="#m3a11274f6c" x="250.122258" y="410.519516" style="stroke: #000000"/>
     <use xlink:href="#m3a11274f6c" x="267.195528" y="404.810754" style="stroke: #000000"/>
     <use xlink:href="#m3a11274f6c" x="273.040432" y="443.521407" style="stroke: #000000"/>
     <use xlink:href="#m3a11274f6c" x="295.958605" y="404.810754" style="stroke: #000000"/>
     <use xlink:href="#m3a11274f6c" x="311.801369" y="438.219484" style="stroke: #000000"/>
     <use xlink:href="#m3a11274f6c" x="318.876779" y="443.521407" style="stroke: #000000"/>
     <use xlink:href="#m3a11274f6c" x="341.794952" y="416.18128" style="stroke: #000000"/>
     <use xlink:href="#m3a11274f6c" x="356.40721" y="427.339683" style="stroke: #000000"/>
     <use xlink:href="#m3a11274f6c" x="364.713125" y="427.339683" style="stroke: #000000"/>
     <use xlink:href="#m3a11274f6c" x="387.631299" y="444.338293" style="stroke: #000000"/>
     <use xlink:href="#m3a11274f6c" x="401.013051" y="446.831224" style="stroke: #000000"/>
     <use xlink:href="#m3a11274f6c" x="410.549472" y="461.02464" style="stroke: #000000"/>
     <use xlink:href="#m3a11274f6c" x="433.467646" y="463.160354" style="stroke: #000000"/>
     <use xlink:href="#m3a11274f6c" x="445.618892" y="466.849558" style="stroke: #000000"/>
     <use xlink:href="#m3a11274f6c" x="456.385819" y="466.849558" style="stroke: #000000"/>
     <use xlink:href="#m3a11274f6c" x="490.224733" y="463.160354" style="stroke: #000000"/>
     <use xlink:href="#m3a11274f6c" x="534.830574" y="466.849558" style="stroke: #000000"/>
     <use xlink:href="#m3a11274f6c" x="579.436415" y="465.146817" style="stroke: #000000"/>
     <use xlink:href="#m3a11274f6c" x="624.042256" y="466.863903" style="stroke: #000000"/>
     <use xlink:href="#m3a11274f6c" x="668.648097" y="466.860317" style="stroke: #000000"/>
     <use xlink:href="#m3a11274f6c" x="713.253938" y="466.863903" style="stroke: #000000"/>
     <use xlink:href="#m3a11274f6c" x="757.859778" y="466.863903" style="stroke: #000000"/>
     <use xlink:href="#m3a11274f6c" x="802.465619" y="466.863903" style="stroke: #000000"/>
    </g>
   </g>
   <g id="line2d_35">
    <g clip-path="url(#pc3c16367b1)">
     <use xlink:href="#m3a11274f6c" x="133.378006" y="48.974472" style="stroke: #000000"/>
     <use xlink:href="#m3a11274f6c" x="135.531391" y="74.312942" style="stroke: #000000"/>
     <use xlink:href="#m3a11274f6c" x="158.449565" y="271.203949" style="stroke: #000000"/>
     <use xlink:href="#m3a11274f6c" x="177.983847" y="305.416432" style="stroke: #000000"/>
     <use xlink:href="#m3a11274f6c" x="181.367738" y="291.667443" style="stroke: #000000"/>
     <use xlink:href="#m3a11274f6c" x="204.285911" y="298.530609" style="stroke: #000000"/>
     <use xlink:href="#m3a11274f6c" x="222.589688" y="340.232654" style="stroke: #000000"/>
     <use xlink:href="#m3a11274f6c" x="227.204085" y="340.232654" style="stroke: #000000"/>
     <use xlink:href="#m3a11274f6c" x="250.122258" y="368.670478" style="stroke: #000000"/>
     <use xlink:href="#m3a11274f6c" x="267.195528" y="361.501089" style="stroke: #000000"/>
     <use xlink:href="#m3a11274f6c" x="273.040432" y="412.937493" style="stroke: #000000"/>
     <use xlink:href="#m3a11274f6c" x="295.958605" y="361.501089" style="stroke: #000000"/>
     <use xlink:href="#m3a11274f6c" x="311.801369" y="405.361265" style="stroke: #000000"/>
     <use xlink:href="#m3a11274f6c" x="318.876779" y="412.937493" style="stroke: #000000"/>
     <use xlink:href="#m3a11274f6c" x="341.794952" y="375.886865" style="stroke: #000000"/>
     <use xlink:href="#m3a11274f6c" x="356.40721" y="390.484764" style="stroke: #000000"/>
     <use xlink:href="#m3a11274f6c" x="364.713125" y="390.484764" style="stroke: #000000"/>
     <use xlink:href="#m3a11274f6c" x="387.631299" y="426.429664" style="stroke: #000000"/>
     <use xlink:href="#m3a11274f6c" x="401.013051" y="429.660356" style="stroke: #000000"/>
     <use xlink:href="#m3a11274f6c" x="410.549472" y="449.808676" style="stroke: #000000"/>
     <use xlink:href="#m3a11274f6c" x="433.467646" y="453.396585" style="stroke: #000000"/>
     <use xlink:href="#m3a11274f6c" x="445.618892" y="461.154626" style="stroke: #000000"/>
     <use xlink:href="#m3a11274f6c" x="456.385819" y="461.154626" style="stroke: #000000"/>
     <use xlink:href="#m3a11274f6c" x="490.224733" y="453.396585" style="stroke: #000000"/>
     <use xlink:href="#m3a11274f6c" x="534.830574" y="461.154626" style="stroke: #000000"/>
     <use xlink:href="#m3a11274f6c" x="579.436415" y="457.133745" style="stroke: #000000"/>
     <use xlink:href="#m3a11274f6c" x="624.042256" y="466.863903" style="stroke: #000000"/>
     <use xlink:href="#m3a11274f6c" x="668.648097" y="465.436584" style="stroke: #000000"/>
     <use xlink:href="#m3a11274f6c" x="713.253938" y="466.863903" style="stroke: #000000"/>
     <use xlink:href="#m3a11274f6c" x="757.859778" y="466.863903" style="stroke: #000000"/>
     <use xlink:href="#m3a11274f6c" x="802.465619" y="466.863903" style="stroke: #000000"/>
    </g>
   </g>
   <g id="line2d_36">
    <path d="M 133.378006 350.960544 
L 135.531391 312.32609 
L 158.449565 434.668526 
L 177.983847 402.473148 
L 181.367738 421.790375 
L 204.285911 434.668526 
L 222.589688 408.912223 
L 227.204085 428.22945 
L 250.122258 434.668526 
L 267.195528 447.546677 
L 273.040432 453.985752 
L 295.958605 441.107601 
L 311.801369 453.985752 
L 318.876779 460.424828 
L 341.794952 441.107601 
L 356.40721 460.424828 
L 364.713125 453.985752 
L 387.631299 449.693035 
L 401.013051 458.278469 
L 410.549472 464.002092 
L 433.467646 466.863903 
L 445.618892 466.863903 
L 456.385819 464.002092 
L 490.224733 466.863903 
L 534.830574 466.863903 
L 579.436415 461.140281 
L 624.042256 466.863903 
L 668.648097 466.148451 
L 713.253938 466.863903 
L 757.859778 466.863903 
L 802.465619 466.863903 
" clip-path="url(#pc3c16367b1)" style="fill: none; stroke: #ff7f0e; stroke-width: 3; stroke-linecap: square"/>
    <defs>
     <path id="m9f3007871a" d="M -3 3 
L 3 3 
L 3 -3 
L -3 -3 
z
" style="stroke: #ff7f0e; stroke-linejoin: miter"/>
    </defs>
    <g clip-path="url(#pc3c16367b1)">
     <use xlink:href="#m9f3007871a" x="133.378006" y="350.960544" style="fill: #ff7f0e; stroke: #ff7f0e; stroke-linejoin: miter"/>
     <use xlink:href="#m9f3007871a" x="135.531391" y="312.32609" style="fill: #ff7f0e; stroke: #ff7f0e; stroke-linejoin: miter"/>
     <use xlink:href="#m9f3007871a" x="158.449565" y="434.668526" style="fill: #ff7f0e; stroke: #ff7f0e; stroke-linejoin: miter"/>
     <use xlink:href="#m9f3007871a" x="177.983847" y="402.473148" style="fill: #ff7f0e; stroke: #ff7f0e; stroke-linejoin: miter"/>
     <use xlink:href="#m9f3007871a" x="181.367738" y="421.790375" style="fill: #ff7f0e; stroke: #ff7f0e; stroke-linejoin: miter"/>
     <use xlink:href="#m9f3007871a" x="204.285911" y="434.668526" style="fill: #ff7f0e; stroke: #ff7f0e; stroke-linejoin: miter"/>
     <use xlink:href="#m9f3007871a" x="222.589688" y="408.912223" style="fill: #ff7f0e; stroke: #ff7f0e; stroke-linejoin: miter"/>
     <use xlink:href="#m9f3007871a" x="227.204085" y="428.22945" style="fill: #ff7f0e; stroke: #ff7f0e; stroke-linejoin: miter"/>
     <use xlink:href="#m9f3007871a" x="250.122258" y="434.668526" style="fill: #ff7f0e; stroke: #ff7f0e; stroke-linejoin: miter"/>
     <use xlink:href="#m9f3007871a" x="267.195528" y="447.546677" style="fill: #ff7f0e; stroke: #ff7f0e; stroke-linejoin: miter"/>
     <use xlink:href="#m9f3007871a" x="273.040432" y="453.985752" style="fill: #ff7f0e; stroke: #ff7f0e; stroke-linejoin: miter"/>
     <use xlink:href="#m9f3007871a" x="295.958605" y="441.107601" style="fill: #ff7f0e; stroke: #ff7f0e; stroke-linejoin: miter"/>
     <use xlink:href="#m9f3007871a" x="311.801369" y="453.985752" style="fill: #ff7f0e; stroke: #ff7f0e; stroke-linejoin: miter"/>
     <use xlink:href="#m9f3007871a" x="318.876779" y="460.424828" style="fill: #ff7f0e; stroke: #ff7f0e; stroke-linejoin: miter"/>
     <use xlink:href="#m9f3007871a" x="341.794952" y="441.107601" style="fill: #ff7f0e; stroke: #ff7f0e; stroke-linejoin: miter"/>
     <use xlink:href="#m9f3007871a" x="356.40721" y="460.424828" style="fill: #ff7f0e; stroke: #ff7f0e; stroke-linejoin: miter"/>
     <use xlink:href="#m9f3007871a" x="364.713125" y="453.985752" style="fill: #ff7f0e; stroke: #ff7f0e; stroke-linejoin: miter"/>
     <use xlink:href="#m9f3007871a" x="387.631299" y="449.693035" style="fill: #ff7f0e; stroke: #ff7f0e; stroke-linejoin: miter"/>
     <use xlink:href="#m9f3007871a" x="401.013051" y="458.278469" style="fill: #ff7f0e; stroke: #ff7f0e; stroke-linejoin: miter"/>
     <use xlink:href="#m9f3007871a" x="410.549472" y="464.002092" style="fill: #ff7f0e; stroke: #ff7f0e; stroke-linejoin: miter"/>
     <use xlink:href="#m9f3007871a" x="433.467646" y="466.863903" style="fill: #ff7f0e; stroke: #ff7f0e; stroke-linejoin: miter"/>
     <use xlink:href="#m9f3007871a" x="445.618892" y="466.863903" style="fill: #ff7f0e; stroke: #ff7f0e; stroke-linejoin: miter"/>
     <use xlink:href="#m9f3007871a" x="456.385819" y="464.002092" style="fill: #ff7f0e; stroke: #ff7f0e; stroke-linejoin: miter"/>
     <use xlink:href="#m9f3007871a" x="490.224733" y="466.863903" style="fill: #ff7f0e; stroke: #ff7f0e; stroke-linejoin: miter"/>
     <use xlink:href="#m9f3007871a" x="534.830574" y="466.863903" style="fill: #ff7f0e; stroke: #ff7f0e; stroke-linejoin: miter"/>
     <use xlink:href="#m9f3007871a" x="579.436415" y="461.140281" style="fill: #ff7f0e; stroke: #ff7f0e; stroke-linejoin: miter"/>
     <use xlink:href="#m9f3007871a" x="624.042256" y="466.863903" style="fill: #ff7f0e; stroke: #ff7f0e; stroke-linejoin: miter"/>
     <use xlink:href="#m9f3007871a" x="668.648097" y="466.148451" style="fill: #ff7f0e; stroke: #ff7f0e; stroke-linejoin: miter"/>
     <use xlink:href="#m9f3007871a" x="713.253938" y="466.863903" style="fill: #ff7f0e; stroke: #ff7f0e; stroke-linejoin: miter"/>
     <use xlink:href="#m9f3007871a" x="757.859778" y="466.863903" style="fill: #ff7f0e; stroke: #ff7f0e; stroke-linejoin: miter"/>
     <use xlink:href="#m9f3007871a" x="802.465619" y="466.863903" style="fill: #ff7f0e; stroke: #ff7f0e; stroke-linejoin: miter"/>
    </g>
   </g>
   <g id="line2d_37">
    <path d="M 133.378006 196.42273 
L 135.531391 260.813486 
L 158.449565 331.643317 
L 177.983847 396.034072 
L 181.367738 363.838695 
L 204.285911 357.399619 
L 222.589688 421.790375 
L 227.204085 402.473148 
L 250.122258 421.790375 
L 267.195528 402.473148 
L 273.040432 441.107601 
L 295.958605 408.912223 
L 311.801369 434.668526 
L 318.876779 434.668526 
L 341.794952 421.790375 
L 356.40721 415.351299 
L 364.713125 421.790375 
L 387.631299 452.554847 
L 401.013051 446.831224 
L 410.549472 458.278469 
L 433.467646 458.278469 
L 445.618892 464.002092 
L 456.385819 466.863903 
L 490.224733 458.278469 
L 534.830574 464.002092 
L 579.436415 466.863903 
L 624.042256 466.863903 
L 668.648097 466.863903 
L 713.253938 466.863903 
L 757.859778 466.863903 
L 802.465619 466.863903 
" clip-path="url(#pc3c16367b1)" style="fill: none; stroke: #2ca02c; stroke-width: 3; stroke-linecap: square"/>
    <defs>
     <path id="ma70d6163ca" d="M 0 -3 
L -3 3 
L 3 3 
z
" style="stroke: #2ca02c; stroke-linejoin: miter"/>
    </defs>
    <g clip-path="url(#pc3c16367b1)">
     <use xlink:href="#ma70d6163ca" x="133.378006" y="196.42273" style="fill: #2ca02c; stroke: #2ca02c; stroke-linejoin: miter"/>
     <use xlink:href="#ma70d6163ca" x="135.531391" y="260.813486" style="fill: #2ca02c; stroke: #2ca02c; stroke-linejoin: miter"/>
     <use xlink:href="#ma70d6163ca" x="158.449565" y="331.643317" style="fill: #2ca02c; stroke: #2ca02c; stroke-linejoin: miter"/>
     <use xlink:href="#ma70d6163ca" x="177.983847" y="396.034072" style="fill: #2ca02c; stroke: #2ca02c; stroke-linejoin: miter"/>
     <use xlink:href="#ma70d6163ca" x="181.367738" y="363.838695" style="fill: #2ca02c; stroke: #2ca02c; stroke-linejoin: miter"/>
     <use xlink:href="#ma70d6163ca" x="204.285911" y="357.399619" style="fill: #2ca02c; stroke: #2ca02c; stroke-linejoin: miter"/>
     <use xlink:href="#ma70d6163ca" x="222.589688" y="421.790375" style="fill: #2ca02c; stroke: #2ca02c; stroke-linejoin: miter"/>
     <use xlink:href="#ma70d6163ca" x="227.204085" y="402.473148" style="fill: #2ca02c; stroke: #2ca02c; stroke-linejoin: miter"/>
     <use xlink:href="#ma70d6163ca" x="250.122258" y="421.790375" style="fill: #2ca02c; stroke: #2ca02c; stroke-linejoin: miter"/>
     <use xlink:href="#ma70d6163ca" x="267.195528" y="402.473148" style="fill: #2ca02c; stroke: #2ca02c; stroke-linejoin: miter"/>
     <use xlink:href="#ma70d6163ca" x="273.040432" y="441.107601" style="fill: #2ca02c; stroke: #2ca02c; stroke-linejoin: miter"/>
     <use xlink:href="#ma70d6163ca" x="295.958605" y="408.912223" style="fill: #2ca02c; stroke: #2ca02c; stroke-linejoin: miter"/>
     <use xlink:href="#ma70d6163ca" x="311.801369" y="434.668526" style="fill: #2ca02c; stroke: #2ca02c; stroke-linejoin: miter"/>
     <use xlink:href="#ma70d6163ca" x="318.876779" y="434.668526" style="fill: #2ca02c; stroke: #2ca02c; stroke-linejoin: miter"/>
     <use xlink:href="#ma70d6163ca" x="341.794952" y="421.790375" style="fill: #2ca02c; stroke: #2ca02c; stroke-linejoin: miter"/>
     <use xlink:href="#ma70d6163ca" x="356.40721" y="415.351299" style="fill: #2ca02c; stroke: #2ca02c; stroke-linejoin: miter"/>
     <use xlink:href="#ma70d6163ca" x="364.713125" y="421.790375" style="fill: #2ca02c; stroke: #2ca02c; stroke-linejoin: miter"/>
     <use xlink:href="#ma70d6163ca" x="387.631299" y="452.554847" style="fill: #2ca02c; stroke: #2ca02c; stroke-linejoin: miter"/>
     <use xlink:href="#ma70d6163ca" x="401.013051" y="446.831224" style="fill: #2ca02c; stroke: #2ca02c; stroke-linejoin: miter"/>
     <use xlink:href="#ma70d6163ca" x="410.549472" y="458.278469" style="fill: #2ca02c; stroke: #2ca02c; stroke-linejoin: miter"/>
     <use xlink:href="#ma70d6163ca" x="433.467646" y="458.278469" style="fill: #2ca02c; stroke: #2ca02c; stroke-linejoin: miter"/>
     <use xlink:href="#ma70d6163ca" x="445.618892" y="464.002092" style="fill: #2ca02c; stroke: #2ca02c; stroke-linejoin: miter"/>
     <use xlink:href="#ma70d6163ca" x="456.385819" y="466.863903" style="fill: #2ca02c; stroke: #2ca02c; stroke-linejoin: miter"/>
     <use xlink:href="#ma70d6163ca" x="490.224733" y="458.278469" style="fill: #2ca02c; stroke: #2ca02c; stroke-linejoin: miter"/>
     <use xlink:href="#ma70d6163ca" x="534.830574" y="464.002092" style="fill: #2ca02c; stroke: #2ca02c; stroke-linejoin: miter"/>
     <use xlink:href="#ma70d6163ca" x="579.436415" y="466.863903" style="fill: #2ca02c; stroke: #2ca02c; stroke-linejoin: miter"/>
     <use xlink:href="#ma70d6163ca" x="624.042256" y="466.863903" style="fill: #2ca02c; stroke: #2ca02c; stroke-linejoin: miter"/>
     <use xlink:href="#ma70d6163ca" x="668.648097" y="466.863903" style="fill: #2ca02c; stroke: #2ca02c; stroke-linejoin: miter"/>
     <use xlink:href="#ma70d6163ca" x="713.253938" y="466.863903" style="fill: #2ca02c; stroke: #2ca02c; stroke-linejoin: miter"/>
     <use xlink:href="#ma70d6163ca" x="757.859778" y="466.863903" style="fill: #2ca02c; stroke: #2ca02c; stroke-linejoin: miter"/>
     <use xlink:href="#ma70d6163ca" x="802.465619" y="466.863903" style="fill: #2ca02c; stroke: #2ca02c; stroke-linejoin: miter"/>
    </g>
   </g>
   <g id="line2d_38">
    <path d="M 133.378006 80.519371 
L 135.531391 106.275673 
L 158.449565 299.447939 
L 177.983847 331.643317 
L 181.367738 318.765166 
L 204.285911 325.204241 
L 222.589688 363.838695 
L 227.204085 363.838695 
L 250.122258 389.594997 
L 267.195528 383.155921 
L 273.040432 428.22945 
L 295.958605 383.155921 
L 311.801369 421.790375 
L 318.876779 428.22945 
L 341.794952 396.034072 
L 356.40721 408.912223 
L 364.713125 408.912223 
L 387.631299 435.383979 
L 401.013051 438.24579 
L 410.549472 455.416658 
L 433.467646 458.278469 
L 445.618892 464.002092 
L 456.385819 464.002092 
L 490.224733 458.278469 
L 534.830574 464.002092 
L 579.436415 461.140281 
L 624.042256 466.863903 
L 668.648097 466.148451 
L 713.253938 466.863903 
L 757.859778 466.863903 
L 802.465619 466.863903 
" clip-path="url(#pc3c16367b1)" style="fill: none; stroke: #1f77b4; stroke-width: 3; stroke-linecap: square"/>
    <defs>
     <path id="mc462c1e9fa" d="M 0 3 
C 0.795609 3 1.55874 2.683901 2.12132 2.12132 
C 2.683901 1.55874 3 0.795609 3 0 
C 3 -0.795609 2.683901 -1.55874 2.12132 -2.12132 
C 1.55874 -2.683901 0.795609 -3 0 -3 
C -0.795609 -3 -1.55874 -2.683901 -2.12132 -2.12132 
C -2.683901 -1.55874 -3 -0.795609 -3 0 
C -3 0.795609 -2.683901 1.55874 -2.12132 2.12132 
C -1.55874 2.683901 -0.795609 3 0 3 
z
" style="stroke: #1f77b4"/>
    </defs>
    <g clip-path="url(#pc3c16367b1)">
     <use xlink:href="#mc462c1e9fa" x="133.378006" y="80.519371" style="fill: #1f77b4; stroke: #1f77b4"/>
     <use xlink:href="#mc462c1e9fa" x="135.531391" y="106.275673" style="fill: #1f77b4; stroke: #1f77b4"/>
     <use xlink:href="#mc462c1e9fa" x="158.449565" y="299.447939" style="fill: #1f77b4; stroke: #1f77b4"/>
     <use xlink:href="#mc462c1e9fa" x="177.983847" y="331.643317" style="fill: #1f77b4; stroke: #1f77b4"/>
     <use xlink:href="#mc462c1e9fa" x="181.367738" y="318.765166" style="fill: #1f77b4; stroke: #1f77b4"/>
     <use xlink:href="#mc462c1e9fa" x="204.285911" y="325.204241" style="fill: #1f77b4; stroke: #1f77b4"/>
     <use xlink:href="#mc462c1e9fa" x="222.589688" y="363.838695" style="fill: #1f77b4; stroke: #1f77b4"/>
     <use xlink:href="#mc462c1e9fa" x="227.204085" y="363.838695" style="fill: #1f77b4; stroke: #1f77b4"/>
     <use xlink:href="#mc462c1e9fa" x="250.122258" y="389.594997" style="fill: #1f77b4; stroke: #1f77b4"/>
     <use xlink:href="#mc462c1e9fa" x="267.195528" y="383.155921" style="fill: #1f77b4; stroke: #1f77b4"/>
     <use xlink:href="#mc462c1e9fa" x="273.040432" y="428.22945" style="fill: #1f77b4; stroke: #1f77b4"/>
     <use xlink:href="#mc462c1e9fa" x="295.958605" y="383.155921" style="fill: #1f77b4; stroke: #1f77b4"/>
     <use xlink:href="#mc462c1e9fa" x="311.801369" y="421.790375" style="fill: #1f77b4; stroke: #1f77b4"/>
     <use xlink:href="#mc462c1e9fa" x="318.876779" y="428.22945" style="fill: #1f77b4; stroke: #1f77b4"/>
     <use xlink:href="#mc462c1e9fa" x="341.794952" y="396.034072" style="fill: #1f77b4; stroke: #1f77b4"/>
     <use xlink:href="#mc462c1e9fa" x="356.40721" y="408.912223" style="fill: #1f77b4; stroke: #1f77b4"/>
     <use xlink:href="#mc462c1e9fa" x="364.713125" y="408.912223" style="fill: #1f77b4; stroke: #1f77b4"/>
     <use xlink:href="#mc462c1e9fa" x="387.631299" y="435.383979" style="fill: #1f77b4; stroke: #1f77b4"/>
     <use xlink:href="#mc462c1e9fa" x="401.013051" y="438.24579" style="fill: #1f77b4; stroke: #1f77b4"/>
     <use xlink:href="#mc462c1e9fa" x="410.549472" y="455.416658" style="fill: #1f77b4; stroke: #1f77b4"/>
     <use xlink:href="#mc462c1e9fa" x="433.467646" y="458.278469" style="fill: #1f77b4; stroke: #1f77b4"/>
     <use xlink:href="#mc462c1e9fa" x="445.618892" y="464.002092" style="fill: #1f77b4; stroke: #1f77b4"/>
     <use xlink:href="#mc462c1e9fa" x="456.385819" y="464.002092" style="fill: #1f77b4; stroke: #1f77b4"/>
     <use xlink:href="#mc462c1e9fa" x="490.224733" y="458.278469" style="fill: #1f77b4; stroke: #1f77b4"/>
     <use xlink:href="#mc462c1e9fa" x="534.830574" y="464.002092" style="fill: #1f77b4; stroke: #1f77b4"/>
     <use xlink:href="#mc462c1e9fa" x="579.436415" y="461.140281" style="fill: #1f77b4; stroke: #1f77b4"/>
     <use xlink:href="#mc462c1e9fa" x="624.042256" y="466.863903" style="fill: #1f77b4; stroke: #1f77b4"/>
     <use xlink:href="#mc462c1e9fa" x="668.648097" y="466.148451" style="fill: #1f77b4; stroke: #1f77b4"/>
     <use xlink:href="#mc462c1e9fa" x="713.253938" y="466.863903" style="fill: #1f77b4; stroke: #1f77b4"/>
     <use xlink:href="#mc462c1e9fa" x="757.859778" y="466.863903" style="fill: #1f77b4; stroke: #1f77b4"/>
     <use xlink:href="#mc462c1e9fa" x="802.465619" y="466.863903" style="fill: #1f77b4; stroke: #1f77b4"/>
    </g>
   </g>
   <g id="patch_3">
    <path d="M 99.923625 487.758375 
L 99.923625 28.08 
" style="fill: none; stroke: #000000; stroke-width: 2; stroke-linejoin: miter; stroke-linecap: square"/>
   </g>
   <g id="patch_4">
    <path d="M 835.92 487.758375 
L 835.92 28.08 
" style="fill: none; stroke: #000000; stroke-width: 2; stroke-linejoin: miter; stroke-linecap: square"/>
   </g>
   <g id="patch_5">
    <path d="M 99.923625 487.758375 
L 835.92 487.758375 
" style="fill: none; stroke: #000000; stroke-width: 2; stroke-linejoin: miter; stroke-linecap: square"/>
   </g>
   <g id="patch_6">
    <path d="M 99.923625 28.08 
L 835.92 28.08 
" style="fill: none; stroke: #000000; stroke-width: 2; stroke-linejoin: miter; stroke-linecap: square"/>
   </g>
   <g id="legend_1">
    <g id="patch_7">
     <path d="M 715.925 111.5625 
L 824.72 111.5625 
Q 827.92 111.5625 827.92 108.3625 
L 827.92 39.28 
Q 827.92 36.08 824.72 36.08 
L 715.925 36.08 
Q 712.725 36.08 712.725 39.28 
L 712.725 108.3625 
Q 712.725 111.5625 715.925 111.5625 
z
" style="fill: #ffffff; opacity: 0.8; stroke: #cccccc; stroke-linejoin: miter"/>
    </g>
    <g id="line2d_39">
     <path d="M 719.125 49.0375 
L 735.125 49.0375 
L 751.125 49.0375 
" style="fill: none; stroke: #ff7f0e; stroke-width: 3; stroke-linecap: square"/>
     <g>
      <use xlink:href="#m9f3007871a" x="735.125" y="49.0375" style="fill: #ff7f0e; stroke: #ff7f0e; stroke-linejoin: miter"/>
     </g>
    </g>
    <g id="text_14">
     <!-- Single -->
     <g transform="translate(763.925 54.6375) scale(0.16 -0.16)">
      <defs>
       <path id="DejaVuSerif-53" d="M 594 225 
L 594 1288 
L 953 1284 
Q 969 753 1261 498 
Q 1553 244 2150 244 
Q 2706 244 2998 464 
Q 3291 684 3291 1106 
Q 3291 1444 3114 1625 
Q 2938 1806 2369 1978 
L 1753 2163 
Q 1084 2366 811 2669 
Q 538 2972 538 3500 
Q 538 4094 959 4422 
Q 1381 4750 2144 4750 
Q 2469 4750 2856 4679 
Q 3244 4609 3681 4475 
L 3681 3481 
L 3328 3481 
Q 3275 3975 2998 4195 
Q 2722 4416 2156 4416 
Q 1663 4416 1405 4214 
Q 1147 4013 1147 3628 
Q 1147 3294 1340 3103 
Q 1534 2913 2163 2725 
L 2741 2553 
Q 3375 2363 3645 2067 
Q 3916 1772 3916 1275 
Q 3916 597 3481 253 
Q 3047 -91 2188 -91 
Q 1803 -91 1404 -12 
Q 1006 66 594 225 
z
" transform="scale(0.015625)"/>
       <path id="DejaVuSerif-69" d="M 622 4353 
Q 622 4497 726 4603 
Q 831 4709 978 4709 
Q 1122 4709 1226 4603 
Q 1331 4497 1331 4353 
Q 1331 4206 1228 4103 
Q 1125 4000 978 4000 
Q 831 4000 726 4103 
Q 622 4206 622 4353 
z
M 1356 331 
L 1900 331 
L 1900 0 
L 231 0 
L 231 331 
L 781 331 
L 781 2988 
L 231 2988 
L 231 3322 
L 1356 3322 
L 1356 331 
z
" transform="scale(0.015625)"/>
       <path id="DejaVuSerif-6e" d="M 263 0 
L 263 331 
L 781 331 
L 781 2988 
L 231 2988 
L 231 3322 
L 1356 3322 
L 1356 2731 
Q 1516 3069 1770 3241 
Q 2025 3413 2363 3413 
Q 2913 3413 3172 3097 
Q 3431 2781 3431 2113 
L 3431 331 
L 3944 331 
L 3944 0 
L 2356 0 
L 2356 331 
L 2853 331 
L 2853 1931 
Q 2853 2541 2703 2767 
Q 2553 2994 2175 2994 
Q 1775 2994 1565 2701 
Q 1356 2409 1356 1850 
L 1356 331 
L 1856 331 
L 1856 0 
L 263 0 
z
" transform="scale(0.015625)"/>
       <path id="DejaVuSerif-67" d="M 3359 2988 
L 3359 72 
Q 3359 -644 2965 -1033 
Q 2572 -1422 1844 -1422 
Q 1516 -1422 1216 -1362 
Q 916 -1303 641 -1184 
L 641 -488 
L 941 -488 
Q 997 -813 1206 -963 
Q 1416 -1113 1806 -1113 
Q 2313 -1113 2548 -827 
Q 2784 -541 2784 72 
L 2784 519 
Q 2616 206 2355 57 
Q 2094 -91 1709 -91 
Q 1097 -91 708 395 
Q 319 881 319 1663 
Q 319 2444 706 2928 
Q 1094 3413 1709 3413 
Q 2094 3413 2355 3264 
Q 2616 3116 2784 2803 
L 2784 3322 
L 3909 3322 
L 3909 2988 
L 3359 2988 
z
M 2784 1825 
Q 2784 2422 2554 2737 
Q 2325 3053 1888 3053 
Q 1444 3053 1217 2703 
Q 991 2353 991 1663 
Q 991 975 1217 622 
Q 1444 269 1888 269 
Q 2325 269 2554 583 
Q 2784 897 2784 1497 
L 2784 1825 
z
" transform="scale(0.015625)"/>
       <path id="DejaVuSerif-6c" d="M 1313 331 
L 1856 331 
L 1856 0 
L 184 0 
L 184 331 
L 738 331 
L 738 4531 
L 184 4531 
L 184 4863 
L 1313 4863 
L 1313 331 
z
" transform="scale(0.015625)"/>
       <path id="DejaVuSerif-65" d="M 3469 1600 
L 991 1600 
L 991 1575 
Q 991 903 1244 561 
Q 1497 219 1991 219 
Q 2369 219 2611 417 
Q 2853 616 2950 1006 
L 3413 1006 
Q 3275 459 2904 184 
Q 2534 -91 1931 -91 
Q 1203 -91 761 389 
Q 319 869 319 1663 
Q 319 2450 753 2931 
Q 1188 3413 1894 3413 
Q 2647 3413 3050 2948 
Q 3453 2484 3469 1600 
z
M 2791 1931 
Q 2772 2513 2545 2808 
Q 2319 3103 1894 3103 
Q 1497 3103 1269 2806 
Q 1041 2509 991 1931 
L 2791 1931 
z
" transform="scale(0.015625)"/>
      </defs>
      <use xlink:href="#DejaVuSerif-53"/>
      <use xlink:href="#DejaVuSerif-69" x="68.505859"/>
      <use xlink:href="#DejaVuSerif-6e" x="100.488281"/>
      <use xlink:href="#DejaVuSerif-67" x="164.892578"/>
      <use xlink:href="#DejaVuSerif-6c" x="228.90625"/>
      <use xlink:href="#DejaVuSerif-65" x="260.888672"/>
     </g>
    </g>
    <g id="line2d_40">
     <path d="M 719.125 72.75 
L 735.125 72.75 
L 751.125 72.75 
" style="fill: none; stroke: #2ca02c; stroke-width: 3; stroke-linecap: square"/>
     <g>
      <use xlink:href="#ma70d6163ca" x="735.125" y="72.75" style="fill: #2ca02c; stroke: #2ca02c; stroke-linejoin: miter"/>
     </g>
    </g>
    <g id="text_15">
     <!-- Double -->
     <g transform="translate(763.925 78.35) scale(0.16 -0.16)">
      <defs>
       <path id="DejaVuSerif-44" d="M 1581 331 
L 2163 331 
Q 3072 331 3558 850 
Q 4044 1369 4044 2338 
Q 4044 3306 3559 3818 
Q 3075 4331 2163 4331 
L 1581 4331 
L 1581 331 
z
M 353 0 
L 353 331 
L 947 331 
L 947 4331 
L 353 4331 
L 353 4666 
L 2209 4666 
Q 3416 4666 4089 4050 
Q 4763 3434 4763 2338 
Q 4763 1238 4088 619 
Q 3413 0 2209 0 
L 353 0 
z
" transform="scale(0.015625)"/>
       <path id="DejaVuSerif-6f" d="M 1925 219 
Q 2388 219 2623 584 
Q 2859 950 2859 1663 
Q 2859 2375 2623 2739 
Q 2388 3103 1925 3103 
Q 1463 3103 1227 2739 
Q 991 2375 991 1663 
Q 991 950 1228 584 
Q 1466 219 1925 219 
z
M 1925 -91 
Q 1200 -91 759 389 
Q 319 869 319 1663 
Q 319 2456 758 2934 
Q 1197 3413 1925 3413 
Q 2653 3413 3092 2934 
Q 3531 2456 3531 1663 
Q 3531 869 3092 389 
Q 2653 -91 1925 -91 
z
" transform="scale(0.015625)"/>
       <path id="DejaVuSerif-62" d="M 738 331 
L 738 4531 
L 184 4531 
L 184 4863 
L 1313 4863 
L 1313 2803 
Q 1481 3116 1742 3264 
Q 2003 3413 2388 3413 
Q 3000 3413 3387 2928 
Q 3775 2444 3775 1663 
Q 3775 881 3387 395 
Q 3000 -91 2388 -91 
Q 2003 -91 1742 57 
Q 1481 206 1313 519 
L 1313 0 
L 184 0 
L 184 331 
L 738 331 
z
M 1313 1497 
Q 1313 897 1542 583 
Q 1772 269 2209 269 
Q 2650 269 2876 622 
Q 3103 975 3103 1663 
Q 3103 2353 2876 2703 
Q 2650 3053 2209 3053 
Q 1772 3053 1542 2737 
Q 1313 2422 1313 1825 
L 1313 1497 
z
" transform="scale(0.015625)"/>
      </defs>
      <use xlink:href="#DejaVuSerif-44"/>
      <use xlink:href="#DejaVuSerif-6f" x="80.175781"/>
      <use xlink:href="#DejaVuSerif-75" x="140.380859"/>
      <use xlink:href="#DejaVuSerif-62" x="204.785156"/>
      <use xlink:href="#DejaVuSerif-6c" x="268.798828"/>
      <use xlink:href="#DejaVuSerif-65" x="300.78125"/>
     </g>
    </g>
    <g id="LineCollection_2">
     <path d="M 735.125 104.235 
L 735.125 88.235 
" style="fill: none; stroke: #000000; stroke-width: 3"/>
    </g>
    <g id="line2d_41">
     <g>
      <use xlink:href="#m3a11274f6c" x="735.125" y="104.235" style="stroke: #000000"/>
     </g>
    </g>
    <g id="line2d_42">
     <g>
      <use xlink:href="#m3a11274f6c" x="735.125" y="88.235" style="stroke: #000000"/>
     </g>
    </g>
    <g id="line2d_43">
     <path d="M 719.125 96.235 
L 751.125 96.235 
" style="fill: none; stroke: #1f77b4; stroke-width: 3; stroke-linecap: square"/>
    </g>
    <g id="line2d_44">
     <g>
      <use xlink:href="#mc462c1e9fa" x="735.125" y="96.235" style="fill: #1f77b4; stroke: #1f77b4"/>
     </g>
    </g>
    <g id="text_16">
     <!-- Total -->
     <g transform="translate(763.925 101.835) scale(0.16 -0.16)">
      <defs>
       <path id="DejaVuSerif-54" d="M 1222 0 
L 1222 331 
L 1819 331 
L 1819 4294 
L 447 4294 
L 447 3566 
L 63 3566 
L 63 4666 
L 4206 4666 
L 4206 3566 
L 3822 3566 
L 3822 4294 
L 2450 4294 
L 2450 331 
L 3047 331 
L 3047 0 
L 1222 0 
z
" transform="scale(0.015625)"/>
       <path id="DejaVuSerif-74" d="M 691 2988 
L 184 2988 
L 184 3322 
L 691 3322 
L 691 4353 
L 1269 4353 
L 1269 3322 
L 2350 3322 
L 2350 2988 
L 1269 2988 
L 1269 878 
Q 1269 456 1350 337 
Q 1431 219 1650 219 
Q 1875 219 1978 351 
Q 2081 484 2088 781 
L 2522 781 
Q 2497 328 2275 118 
Q 2053 -91 1600 -91 
Q 1103 -91 897 129 
Q 691 350 691 878 
L 691 2988 
z
" transform="scale(0.015625)"/>
      </defs>
      <use xlink:href="#DejaVuSerif-54"/>
      <use xlink:href="#DejaVuSerif-6f" x="58.949219"/>
      <use xlink:href="#DejaVuSerif-74" x="119.154297"/>
      <use xlink:href="#DejaVuSerif-61" x="159.339844"/>
      <use xlink:href="#DejaVuSerif-6c" x="218.958984"/>
     </g>
    </g>
   </g>
  </g>
 </g>
 <defs>
  <clipPath id="pc3c16367b1">
   <rect x="99.923625" y="28.08" width="735.996375" height="459.678375"/>
  </clipPath>
 </defs>
</svg>
