<?xml version="1.0" encoding="utf-8" standalone="no"?>
<!DOCTYPE svg PUBLIC "-//W3C//DTD SVG 1.1//EN"
  "http://www.w3.org/Graphics/SVG/1.1/DTD/svg11.dtd">
<svg xmlns:xlink="http://www.w3.org/1999/xlink" width="720pt" height="504pt" viewBox="0 0 720 504" xmlns="http://www.w3.org/2000/svg" version="1.1">
 <metadata>
  <rdf:RDF xmlns:dc="http://purl.org/dc/elements/1.1/" xmlns:cc="http://creativecommons.org/ns#" xmlns:rdf="http://www.w3.org/1999/02/22-rdf-syntax-ns#">
   <cc:Work>
    <dc:type rdf:resource="http://purl.org/dc/dcmitype/StillImage"/>
    <dc:date>2025-06-01T20:12:58.421977</dc:date>
    <dc:format>image/svg+xml</dc:format>
    <dc:creator>
     <cc:Agent>
      <dc:title>Matplotlib v3.7.2, https://matplotlib.org/</dc:title>
     </cc:Agent>
    </dc:creator>
   </cc:Work>
  </rdf:RDF>
 </metadata>
 <defs>
  <style type="text/css">*{stroke-linejoin: round; stroke-linecap: butt}</style>
 </defs>
 <g id="figure_1">
  <g id="patch_1">
   <path d="M 0 504 
L 720 504 
L 720 0 
L 0 0 
z
" style="fill: #ffffff"/>
  </g>
  <g id="axes_1">
   <g id="patch_2">
    <path d="M 115.455 419.46 
L 675.838636 419.46 
L 675.838636 58.32 
L 115.455 58.32 
z
" style="fill: #ffffff"/>
   </g>
   <g id="matplotlib.axis_1">
    <g id="xtick_1">
     <g id="line2d_1">
      <path d="M 140.926983 419.46 
L 140.926983 58.32 
" clip-path="url(#pdd9470ab1d)" style="fill: none; stroke-dasharray: 3.7,1.6; stroke-dashoffset: 0; stroke: #b0b0b0"/>
     </g>
     <g id="line2d_2">
      <defs>
       <path id="m11c062337f" d="M 0 0 
L 0 -10 
" style="stroke: #000000; stroke-width: 2"/>
      </defs>
      <g>
       <use xlink:href="#m11c062337f" x="140.926983" y="419.46" style="stroke: #000000; stroke-width: 2"/>
      </g>
     </g>
     <g id="text_1">
      <!-- 0 -->
      <g transform="translate(132.655733 442.715937) scale(0.26 -0.26)">
       <defs>
        <path id="DejaVuSerif-30" d="M 2034 219 
Q 2513 219 2750 744 
Q 2988 1269 2988 2328 
Q 2988 3391 2750 3916 
Q 2513 4441 2034 4441 
Q 1556 4441 1318 3916 
Q 1081 3391 1081 2328 
Q 1081 1269 1318 744 
Q 1556 219 2034 219 
z
M 2034 -91 
Q 1275 -91 848 546 
Q 422 1184 422 2328 
Q 422 3475 848 4112 
Q 1275 4750 2034 4750 
Q 2797 4750 3222 4112 
Q 3647 3475 3647 2328 
Q 3647 1184 3222 546 
Q 2797 -91 2034 -91 
z
" transform="scale(0.015625)"/>
       </defs>
       <use xlink:href="#DejaVuSerif-30"/>
      </g>
     </g>
    </g>
    <g id="xtick_2">
     <g id="line2d_3">
      <path d="M 242.814917 419.46 
L 242.814917 58.32 
" clip-path="url(#pdd9470ab1d)" style="fill: none; stroke-dasharray: 3.7,1.6; stroke-dashoffset: 0; stroke: #b0b0b0"/>
     </g>
     <g id="line2d_4">
      <g>
       <use xlink:href="#m11c062337f" x="242.814917" y="419.46" style="stroke: #000000; stroke-width: 2"/>
      </g>
     </g>
     <g id="text_2">
      <!-- 5000 -->
      <g transform="translate(209.729917 442.715937) scale(0.26 -0.26)">
       <defs>
        <path id="DejaVuSerif-35" d="M 3219 4666 
L 3219 4153 
L 1081 4153 
L 1081 2816 
Q 1244 2928 1461 2984 
Q 1678 3041 1947 3041 
Q 2703 3041 3140 2622 
Q 3578 2203 3578 1478 
Q 3578 738 3136 323 
Q 2694 -91 1894 -91 
Q 1572 -91 1234 -12 
Q 897 66 544 225 
L 544 1131 
L 897 1131 
Q 925 688 1179 453 
Q 1434 219 1894 219 
Q 2388 219 2653 544 
Q 2919 869 2919 1478 
Q 2919 2084 2655 2407 
Q 2391 2731 1894 2731 
Q 1613 2731 1398 2631 
Q 1184 2531 1019 2322 
L 750 2322 
L 750 4666 
L 3219 4666 
z
" transform="scale(0.015625)"/>
       </defs>
       <use xlink:href="#DejaVuSerif-35"/>
       <use xlink:href="#DejaVuSerif-30" x="63.623047"/>
       <use xlink:href="#DejaVuSerif-30" x="127.246094"/>
       <use xlink:href="#DejaVuSerif-30" x="190.869141"/>
      </g>
     </g>
    </g>
    <g id="xtick_3">
     <g id="line2d_5">
      <path d="M 344.702851 419.46 
L 344.702851 58.32 
" clip-path="url(#pdd9470ab1d)" style="fill: none; stroke-dasharray: 3.7,1.6; stroke-dashoffset: 0; stroke: #b0b0b0"/>
     </g>
     <g id="line2d_6">
      <g>
       <use xlink:href="#m11c062337f" x="344.702851" y="419.46" style="stroke: #000000; stroke-width: 2"/>
      </g>
     </g>
     <g id="text_3">
      <!-- 10000 -->
      <g transform="translate(303.346601 442.715937) scale(0.26 -0.26)">
       <defs>
        <path id="DejaVuSerif-31" d="M 909 0 
L 909 331 
L 1722 331 
L 1722 4213 
L 781 3603 
L 781 4013 
L 1919 4750 
L 2350 4750 
L 2350 331 
L 3163 331 
L 3163 0 
L 909 0 
z
" transform="scale(0.015625)"/>
       </defs>
       <use xlink:href="#DejaVuSerif-31"/>
       <use xlink:href="#DejaVuSerif-30" x="63.623047"/>
       <use xlink:href="#DejaVuSerif-30" x="127.246094"/>
       <use xlink:href="#DejaVuSerif-30" x="190.869141"/>
       <use xlink:href="#DejaVuSerif-30" x="254.492188"/>
      </g>
     </g>
    </g>
    <g id="xtick_4">
     <g id="line2d_7">
      <path d="M 446.590785 419.46 
L 446.590785 58.32 
" clip-path="url(#pdd9470ab1d)" style="fill: none; stroke-dasharray: 3.7,1.6; stroke-dashoffset: 0; stroke: #b0b0b0"/>
     </g>
     <g id="line2d_8">
      <g>
       <use xlink:href="#m11c062337f" x="446.590785" y="419.46" style="stroke: #000000; stroke-width: 2"/>
      </g>
     </g>
     <g id="text_4">
      <!-- 15000 -->
      <g transform="translate(405.234535 442.715937) scale(0.26 -0.26)">
       <use xlink:href="#DejaVuSerif-31"/>
       <use xlink:href="#DejaVuSerif-35" x="63.623047"/>
       <use xlink:href="#DejaVuSerif-30" x="127.246094"/>
       <use xlink:href="#DejaVuSerif-30" x="190.869141"/>
       <use xlink:href="#DejaVuSerif-30" x="254.492188"/>
      </g>
     </g>
    </g>
    <g id="xtick_5">
     <g id="line2d_9">
      <path d="M 548.478719 419.46 
L 548.478719 58.32 
" clip-path="url(#pdd9470ab1d)" style="fill: none; stroke-dasharray: 3.7,1.6; stroke-dashoffset: 0; stroke: #b0b0b0"/>
     </g>
     <g id="line2d_10">
      <g>
       <use xlink:href="#m11c062337f" x="548.478719" y="419.46" style="stroke: #000000; stroke-width: 2"/>
      </g>
     </g>
     <g id="text_5">
      <!-- 20000 -->
      <g transform="translate(507.122469 442.715937) scale(0.26 -0.26)">
       <defs>
        <path id="DejaVuSerif-32" d="M 819 3553 
L 469 3553 
L 469 4384 
Q 803 4563 1142 4656 
Q 1481 4750 1806 4750 
Q 2534 4750 2956 4397 
Q 3378 4044 3378 3438 
Q 3378 2753 2422 1800 
Q 2347 1728 2309 1691 
L 1131 513 
L 3078 513 
L 3078 1088 
L 3444 1088 
L 3444 0 
L 434 0 
L 434 341 
L 1850 1753 
Q 2319 2222 2519 2614 
Q 2719 3006 2719 3438 
Q 2719 3909 2473 4175 
Q 2228 4441 1797 4441 
Q 1350 4441 1106 4219 
Q 863 3997 819 3553 
z
" transform="scale(0.015625)"/>
       </defs>
       <use xlink:href="#DejaVuSerif-32"/>
       <use xlink:href="#DejaVuSerif-30" x="63.623047"/>
       <use xlink:href="#DejaVuSerif-30" x="127.246094"/>
       <use xlink:href="#DejaVuSerif-30" x="190.869141"/>
       <use xlink:href="#DejaVuSerif-30" x="254.492188"/>
      </g>
     </g>
    </g>
    <g id="xtick_6">
     <g id="line2d_11">
      <path d="M 650.366653 419.46 
L 650.366653 58.32 
" clip-path="url(#pdd9470ab1d)" style="fill: none; stroke-dasharray: 3.7,1.6; stroke-dashoffset: 0; stroke: #b0b0b0"/>
     </g>
     <g id="line2d_12">
      <g>
       <use xlink:href="#m11c062337f" x="650.366653" y="419.46" style="stroke: #000000; stroke-width: 2"/>
      </g>
     </g>
     <g id="text_6">
      <!-- 25000 -->
      <g transform="translate(609.010403 442.715937) scale(0.26 -0.26)">
       <use xlink:href="#DejaVuSerif-32"/>
       <use xlink:href="#DejaVuSerif-35" x="63.623047"/>
       <use xlink:href="#DejaVuSerif-30" x="127.246094"/>
       <use xlink:href="#DejaVuSerif-30" x="190.869141"/>
       <use xlink:href="#DejaVuSerif-30" x="254.492188"/>
      </g>
     </g>
    </g>
    <g id="text_7">
     <!-- Time (a.u.) -->
     <g transform="translate(324.132599 471.879062) scale(0.26 -0.26)">
      <defs>
       <path id="DejaVuSerif-54" d="M 1222 0 
L 1222 331 
L 1819 331 
L 1819 4294 
L 447 4294 
L 447 3566 
L 63 3566 
L 63 4666 
L 4206 4666 
L 4206 3566 
L 3822 3566 
L 3822 4294 
L 2450 4294 
L 2450 331 
L 3047 331 
L 3047 0 
L 1222 0 
z
" transform="scale(0.015625)"/>
       <path id="DejaVuSerif-69" d="M 622 4353 
Q 622 4497 726 4603 
Q 831 4709 978 4709 
Q 1122 4709 1226 4603 
Q 1331 4497 1331 4353 
Q 1331 4206 1228 4103 
Q 1125 4000 978 4000 
Q 831 4000 726 4103 
Q 622 4206 622 4353 
z
M 1356 331 
L 1900 331 
L 1900 0 
L 231 0 
L 231 331 
L 781 331 
L 781 2988 
L 231 2988 
L 231 3322 
L 1356 3322 
L 1356 331 
z
" transform="scale(0.015625)"/>
       <path id="DejaVuSerif-6d" d="M 3316 2675 
Q 3481 3041 3739 3227 
Q 3997 3413 4341 3413 
Q 4863 3413 5119 3089 
Q 5375 2766 5375 2113 
L 5375 331 
L 5894 331 
L 5894 0 
L 4300 0 
L 4300 331 
L 4800 331 
L 4800 2047 
Q 4800 2556 4650 2772 
Q 4500 2988 4153 2988 
Q 3769 2988 3567 2697 
Q 3366 2406 3366 1850 
L 3366 331 
L 3866 331 
L 3866 0 
L 2291 0 
L 2291 331 
L 2791 331 
L 2791 2069 
Q 2791 2566 2641 2777 
Q 2491 2988 2144 2988 
Q 1759 2988 1557 2697 
Q 1356 2406 1356 1850 
L 1356 331 
L 1856 331 
L 1856 0 
L 263 0 
L 263 331 
L 781 331 
L 781 2994 
L 231 2994 
L 231 3322 
L 1356 3322 
L 1356 2731 
Q 1516 3063 1762 3238 
Q 2009 3413 2322 3413 
Q 2709 3413 2968 3220 
Q 3228 3028 3316 2675 
z
" transform="scale(0.015625)"/>
       <path id="DejaVuSerif-65" d="M 3469 1600 
L 991 1600 
L 991 1575 
Q 991 903 1244 561 
Q 1497 219 1991 219 
Q 2369 219 2611 417 
Q 2853 616 2950 1006 
L 3413 1006 
Q 3275 459 2904 184 
Q 2534 -91 1931 -91 
Q 1203 -91 761 389 
Q 319 869 319 1663 
Q 319 2450 753 2931 
Q 1188 3413 1894 3413 
Q 2647 3413 3050 2948 
Q 3453 2484 3469 1600 
z
M 2791 1931 
Q 2772 2513 2545 2808 
Q 2319 3103 1894 3103 
Q 1497 3103 1269 2806 
Q 1041 2509 991 1931 
L 2791 1931 
z
" transform="scale(0.015625)"/>
       <path id="DejaVuSerif-20" transform="scale(0.015625)"/>
       <path id="DejaVuSerif-28" d="M 2041 -997 
Q 1281 -656 893 83 
Q 506 822 506 1931 
Q 506 3044 893 3783 
Q 1281 4522 2041 4863 
L 2041 4556 
Q 1559 4225 1350 3623 
Q 1141 3022 1141 1931 
Q 1141 844 1350 242 
Q 1559 -359 2041 -691 
L 2041 -997 
z
" transform="scale(0.015625)"/>
       <path id="DejaVuSerif-61" d="M 2547 1044 
L 2547 1747 
L 1806 1747 
Q 1378 1747 1168 1562 
Q 959 1378 959 997 
Q 959 650 1171 447 
Q 1384 244 1747 244 
Q 2106 244 2326 466 
Q 2547 688 2547 1044 
z
M 3122 2075 
L 3122 331 
L 3634 331 
L 3634 0 
L 2547 0 
L 2547 359 
Q 2356 128 2106 18 
Q 1856 -91 1522 -91 
Q 969 -91 644 203 
Q 319 497 319 997 
Q 319 1513 691 1797 
Q 1063 2081 1741 2081 
L 2547 2081 
L 2547 2309 
Q 2547 2688 2317 2895 
Q 2088 3103 1672 3103 
Q 1328 3103 1125 2947 
Q 922 2791 872 2484 
L 575 2484 
L 575 3156 
Q 875 3284 1158 3348 
Q 1441 3413 1709 3413 
Q 2400 3413 2761 3070 
Q 3122 2728 3122 2075 
z
" transform="scale(0.015625)"/>
       <path id="DejaVuSerif-2e" d="M 603 325 
Q 603 500 722 622 
Q 841 744 1019 744 
Q 1191 744 1312 622 
Q 1434 500 1434 325 
Q 1434 153 1312 31 
Q 1191 -91 1019 -91 
Q 841 -91 722 29 
Q 603 150 603 325 
z
" transform="scale(0.015625)"/>
       <path id="DejaVuSerif-75" d="M 2266 3322 
L 3341 3322 
L 3341 331 
L 3884 331 
L 3884 0 
L 2766 0 
L 2766 588 
Q 2606 256 2353 82 
Q 2100 -91 1766 -91 
Q 1213 -91 952 223 
Q 691 538 691 1209 
L 691 2988 
L 172 2988 
L 172 3322 
L 1269 3322 
L 1269 1388 
Q 1269 781 1417 556 
Q 1566 331 1947 331 
Q 2347 331 2556 625 
Q 2766 919 2766 1478 
L 2766 2988 
L 2266 2988 
L 2266 3322 
z
" transform="scale(0.015625)"/>
       <path id="DejaVuSerif-29" d="M 453 -997 
L 453 -691 
Q 934 -359 1145 242 
Q 1356 844 1356 1931 
Q 1356 3022 1145 3623 
Q 934 4225 453 4556 
L 453 4863 
Q 1216 4522 1603 3783 
Q 1991 3044 1991 1931 
Q 1991 822 1603 83 
Q 1216 -656 453 -997 
z
" transform="scale(0.015625)"/>
      </defs>
      <use xlink:href="#DejaVuSerif-54"/>
      <use xlink:href="#DejaVuSerif-69" x="66.699219"/>
      <use xlink:href="#DejaVuSerif-6d" x="98.681641"/>
      <use xlink:href="#DejaVuSerif-65" x="193.505859"/>
      <use xlink:href="#DejaVuSerif-20" x="252.685547"/>
      <use xlink:href="#DejaVuSerif-28" x="284.472656"/>
      <use xlink:href="#DejaVuSerif-61" x="323.486328"/>
      <use xlink:href="#DejaVuSerif-2e" x="383.105469"/>
      <use xlink:href="#DejaVuSerif-75" x="414.892578"/>
      <use xlink:href="#DejaVuSerif-2e" x="479.296875"/>
      <use xlink:href="#DejaVuSerif-29" x="511.083984"/>
     </g>
    </g>
   </g>
   <g id="matplotlib.axis_2">
    <g id="ytick_1">
     <g id="line2d_13">
      <path d="M 115.455 415.382433 
L 675.838636 415.382433 
" clip-path="url(#pdd9470ab1d)" style="fill: none; stroke-dasharray: 3.7,1.6; stroke-dashoffset: 0; stroke: #b0b0b0"/>
     </g>
     <g id="line2d_14">
      <defs>
       <path id="m89915e4cd5" d="M 0 0 
L 10 0 
" style="stroke: #000000; stroke-width: 2"/>
      </defs>
      <g>
       <use xlink:href="#m89915e4cd5" x="115.455" y="415.382433" style="stroke: #000000; stroke-width: 2"/>
      </g>
     </g>
     <g id="text_8">
      <!-- −20 -->
      <g transform="translate(57.082813 425.260401) scale(0.26 -0.26)">
       <defs>
        <path id="DejaVuSerif-2212" d="M 678 2259 
L 4684 2259 
L 4684 1753 
L 678 1753 
L 678 2259 
z
" transform="scale(0.015625)"/>
       </defs>
       <use xlink:href="#DejaVuSerif-2212"/>
       <use xlink:href="#DejaVuSerif-32" x="83.789062"/>
       <use xlink:href="#DejaVuSerif-30" x="147.412109"/>
      </g>
     </g>
    </g>
    <g id="ytick_2">
     <g id="line2d_15">
      <path d="M 115.455 353.589145 
L 675.838636 353.589145 
" clip-path="url(#pdd9470ab1d)" style="fill: none; stroke-dasharray: 3.7,1.6; stroke-dashoffset: 0; stroke: #b0b0b0"/>
     </g>
     <g id="line2d_16">
      <g>
       <use xlink:href="#m89915e4cd5" x="115.455" y="353.589145" style="stroke: #000000; stroke-width: 2"/>
      </g>
     </g>
     <g id="text_9">
      <!-- −15 -->
      <g transform="translate(57.082813 363.467114) scale(0.26 -0.26)">
       <use xlink:href="#DejaVuSerif-2212"/>
       <use xlink:href="#DejaVuSerif-31" x="83.789062"/>
       <use xlink:href="#DejaVuSerif-35" x="147.412109"/>
      </g>
     </g>
    </g>
    <g id="ytick_3">
     <g id="line2d_17">
      <path d="M 115.455 291.795858 
L 675.838636 291.795858 
" clip-path="url(#pdd9470ab1d)" style="fill: none; stroke-dasharray: 3.7,1.6; stroke-dashoffset: 0; stroke: #b0b0b0"/>
     </g>
     <g id="line2d_18">
      <g>
       <use xlink:href="#m89915e4cd5" x="115.455" y="291.795858" style="stroke: #000000; stroke-width: 2"/>
      </g>
     </g>
     <g id="text_10">
      <!-- −10 -->
      <g transform="translate(57.082813 301.673827) scale(0.26 -0.26)">
       <use xlink:href="#DejaVuSerif-2212"/>
       <use xlink:href="#DejaVuSerif-31" x="83.789062"/>
       <use xlink:href="#DejaVuSerif-30" x="147.412109"/>
      </g>
     </g>
    </g>
    <g id="ytick_4">
     <g id="line2d_19">
      <path d="M 115.455 230.002571 
L 675.838636 230.002571 
" clip-path="url(#pdd9470ab1d)" style="fill: none; stroke-dasharray: 3.7,1.6; stroke-dashoffset: 0; stroke: #b0b0b0"/>
     </g>
     <g id="line2d_20">
      <g>
       <use xlink:href="#m89915e4cd5" x="115.455" y="230.002571" style="stroke: #000000; stroke-width: 2"/>
      </g>
     </g>
     <g id="text_11">
      <!-- −5 -->
      <g transform="translate(73.625313 239.88054) scale(0.26 -0.26)">
       <use xlink:href="#DejaVuSerif-2212"/>
       <use xlink:href="#DejaVuSerif-35" x="83.789062"/>
      </g>
     </g>
    </g>
    <g id="ytick_5">
     <g id="line2d_21">
      <path d="M 115.455 168.209284 
L 675.838636 168.209284 
" clip-path="url(#pdd9470ab1d)" style="fill: none; stroke-dasharray: 3.7,1.6; stroke-dashoffset: 0; stroke: #b0b0b0"/>
     </g>
     <g id="line2d_22">
      <g>
       <use xlink:href="#m89915e4cd5" x="115.455" y="168.209284" style="stroke: #000000; stroke-width: 2"/>
      </g>
     </g>
     <g id="text_12">
      <!-- 0 -->
      <g transform="translate(95.4125 178.087253) scale(0.26 -0.26)">
       <use xlink:href="#DejaVuSerif-30"/>
      </g>
     </g>
    </g>
    <g id="ytick_6">
     <g id="line2d_23">
      <path d="M 115.455 106.415997 
L 675.838636 106.415997 
" clip-path="url(#pdd9470ab1d)" style="fill: none; stroke-dasharray: 3.7,1.6; stroke-dashoffset: 0; stroke: #b0b0b0"/>
     </g>
     <g id="line2d_24">
      <g>
       <use xlink:href="#m89915e4cd5" x="115.455" y="106.415997" style="stroke: #000000; stroke-width: 2"/>
      </g>
     </g>
     <g id="text_13">
      <!-- 5 -->
      <g transform="translate(95.4125 116.293966) scale(0.26 -0.26)">
       <use xlink:href="#DejaVuSerif-35"/>
      </g>
     </g>
    </g>
    <g id="text_14">
     <!-- Energy Components (a.u.) -->
     <g transform="translate(47.305937 411.706719) rotate(-90) scale(0.26 -0.26)">
      <defs>
       <path id="DejaVuSerif-45" d="M 353 0 
L 353 331 
L 947 331 
L 947 4331 
L 353 4331 
L 353 4666 
L 4109 4666 
L 4109 3628 
L 3725 3628 
L 3725 4281 
L 1581 4281 
L 1581 2719 
L 3109 2719 
L 3109 3303 
L 3494 3303 
L 3494 1753 
L 3109 1753 
L 3109 2338 
L 1581 2338 
L 1581 384 
L 3775 384 
L 3775 1038 
L 4159 1038 
L 4159 0 
L 353 0 
z
" transform="scale(0.015625)"/>
       <path id="DejaVuSerif-6e" d="M 263 0 
L 263 331 
L 781 331 
L 781 2988 
L 231 2988 
L 231 3322 
L 1356 3322 
L 1356 2731 
Q 1516 3069 1770 3241 
Q 2025 3413 2363 3413 
Q 2913 3413 3172 3097 
Q 3431 2781 3431 2113 
L 3431 331 
L 3944 331 
L 3944 0 
L 2356 0 
L 2356 331 
L 2853 331 
L 2853 1931 
Q 2853 2541 2703 2767 
Q 2553 2994 2175 2994 
Q 1775 2994 1565 2701 
Q 1356 2409 1356 1850 
L 1356 331 
L 1856 331 
L 1856 0 
L 263 0 
z
" transform="scale(0.015625)"/>
       <path id="DejaVuSerif-72" d="M 3059 3328 
L 3059 2497 
L 2728 2497 
Q 2713 2744 2591 2866 
Q 2469 2988 2234 2988 
Q 1809 2988 1582 2694 
Q 1356 2400 1356 1850 
L 1356 331 
L 2022 331 
L 2022 0 
L 263 0 
L 263 331 
L 781 331 
L 781 2994 
L 231 2994 
L 231 3322 
L 1356 3322 
L 1356 2731 
Q 1525 3078 1790 3245 
Q 2056 3413 2438 3413 
Q 2578 3413 2733 3391 
Q 2888 3369 3059 3328 
z
" transform="scale(0.015625)"/>
       <path id="DejaVuSerif-67" d="M 3359 2988 
L 3359 72 
Q 3359 -644 2965 -1033 
Q 2572 -1422 1844 -1422 
Q 1516 -1422 1216 -1362 
Q 916 -1303 641 -1184 
L 641 -488 
L 941 -488 
Q 997 -813 1206 -963 
Q 1416 -1113 1806 -1113 
Q 2313 -1113 2548 -827 
Q 2784 -541 2784 72 
L 2784 519 
Q 2616 206 2355 57 
Q 2094 -91 1709 -91 
Q 1097 -91 708 395 
Q 319 881 319 1663 
Q 319 2444 706 2928 
Q 1094 3413 1709 3413 
Q 2094 3413 2355 3264 
Q 2616 3116 2784 2803 
L 2784 3322 
L 3909 3322 
L 3909 2988 
L 3359 2988 
z
M 2784 1825 
Q 2784 2422 2554 2737 
Q 2325 3053 1888 3053 
Q 1444 3053 1217 2703 
Q 991 2353 991 1663 
Q 991 975 1217 622 
Q 1444 269 1888 269 
Q 2325 269 2554 583 
Q 2784 897 2784 1497 
L 2784 1825 
z
" transform="scale(0.015625)"/>
       <path id="DejaVuSerif-79" d="M 1381 -609 
L 1600 -56 
L 359 2988 
L -19 2988 
L -19 3322 
L 1509 3322 
L 1509 2988 
L 978 2988 
L 1913 703 
L 2847 2988 
L 2350 2988 
L 2350 3322 
L 3597 3322 
L 3597 2988 
L 3225 2988 
L 1703 -750 
Q 1547 -1138 1356 -1280 
Q 1166 -1422 819 -1422 
Q 672 -1422 517 -1397 
Q 363 -1372 206 -1325 
L 206 -691 
L 500 -691 
Q 519 -903 608 -995 
Q 697 -1088 884 -1088 
Q 1056 -1088 1161 -992 
Q 1266 -897 1381 -609 
z
" transform="scale(0.015625)"/>
       <path id="DejaVuSerif-43" d="M 4513 1234 
Q 4306 581 3820 245 
Q 3334 -91 2591 -91 
Q 2134 -91 1743 65 
Q 1353 222 1050 525 
Q 700 875 529 1320 
Q 359 1766 359 2328 
Q 359 3416 987 4083 
Q 1616 4750 2644 4750 
Q 3025 4750 3456 4650 
Q 3888 4550 4384 4347 
L 4384 3272 
L 4031 3272 
Q 3916 3859 3567 4137 
Q 3219 4416 2591 4416 
Q 1844 4416 1459 3886 
Q 1075 3356 1075 2328 
Q 1075 1303 1459 773 
Q 1844 244 2591 244 
Q 3113 244 3450 492 
Q 3788 741 3938 1234 
L 4513 1234 
z
" transform="scale(0.015625)"/>
       <path id="DejaVuSerif-6f" d="M 1925 219 
Q 2388 219 2623 584 
Q 2859 950 2859 1663 
Q 2859 2375 2623 2739 
Q 2388 3103 1925 3103 
Q 1463 3103 1227 2739 
Q 991 2375 991 1663 
Q 991 950 1228 584 
Q 1466 219 1925 219 
z
M 1925 -91 
Q 1200 -91 759 389 
Q 319 869 319 1663 
Q 319 2456 758 2934 
Q 1197 3413 1925 3413 
Q 2653 3413 3092 2934 
Q 3531 2456 3531 1663 
Q 3531 869 3092 389 
Q 2653 -91 1925 -91 
z
" transform="scale(0.015625)"/>
       <path id="DejaVuSerif-70" d="M 1313 1825 
L 1313 1497 
Q 1313 897 1542 583 
Q 1772 269 2209 269 
Q 2650 269 2876 622 
Q 3103 975 3103 1663 
Q 3103 2353 2876 2703 
Q 2650 3053 2209 3053 
Q 1772 3053 1542 2737 
Q 1313 2422 1313 1825 
z
M 738 2988 
L 184 2988 
L 184 3322 
L 1313 3322 
L 1313 2803 
Q 1481 3116 1742 3264 
Q 2003 3413 2388 3413 
Q 3000 3413 3387 2928 
Q 3775 2444 3775 1663 
Q 3775 881 3387 395 
Q 3000 -91 2388 -91 
Q 2003 -91 1742 57 
Q 1481 206 1313 519 
L 1313 -997 
L 1856 -997 
L 1856 -1331 
L 184 -1331 
L 184 -997 
L 738 -997 
L 738 2988 
z
" transform="scale(0.015625)"/>
       <path id="DejaVuSerif-74" d="M 691 2988 
L 184 2988 
L 184 3322 
L 691 3322 
L 691 4353 
L 1269 4353 
L 1269 3322 
L 2350 3322 
L 2350 2988 
L 1269 2988 
L 1269 878 
Q 1269 456 1350 337 
Q 1431 219 1650 219 
Q 1875 219 1978 351 
Q 2081 484 2088 781 
L 2522 781 
Q 2497 328 2275 118 
Q 2053 -91 1600 -91 
Q 1103 -91 897 129 
Q 691 350 691 878 
L 691 2988 
z
" transform="scale(0.015625)"/>
       <path id="DejaVuSerif-73" d="M 359 184 
L 359 959 
L 691 959 
Q 703 588 923 403 
Q 1144 219 1575 219 
Q 1963 219 2166 364 
Q 2369 509 2369 788 
Q 2369 1006 2220 1140 
Q 2072 1275 1594 1428 
L 1178 1569 
Q 750 1706 558 1912 
Q 366 2119 366 2438 
Q 366 2894 700 3153 
Q 1034 3413 1625 3413 
Q 1888 3413 2178 3344 
Q 2469 3275 2778 3144 
L 2778 2419 
L 2447 2419 
Q 2434 2741 2221 2922 
Q 2009 3103 1644 3103 
Q 1281 3103 1095 2975 
Q 909 2847 909 2591 
Q 909 2381 1050 2254 
Q 1191 2128 1613 1997 
L 2069 1856 
Q 2541 1709 2748 1489 
Q 2956 1269 2956 922 
Q 2956 450 2595 179 
Q 2234 -91 1600 -91 
Q 1278 -91 972 -22 
Q 666 47 359 184 
z
" transform="scale(0.015625)"/>
      </defs>
      <use xlink:href="#DejaVuSerif-45"/>
      <use xlink:href="#DejaVuSerif-6e" x="72.998047"/>
      <use xlink:href="#DejaVuSerif-65" x="137.402344"/>
      <use xlink:href="#DejaVuSerif-72" x="196.582031"/>
      <use xlink:href="#DejaVuSerif-67" x="244.384766"/>
      <use xlink:href="#DejaVuSerif-79" x="308.398438"/>
      <use xlink:href="#DejaVuSerif-20" x="364.892578"/>
      <use xlink:href="#DejaVuSerif-43" x="396.679688"/>
      <use xlink:href="#DejaVuSerif-6f" x="473.193359"/>
      <use xlink:href="#DejaVuSerif-6d" x="533.398438"/>
      <use xlink:href="#DejaVuSerif-70" x="628.222656"/>
      <use xlink:href="#DejaVuSerif-6f" x="692.236328"/>
      <use xlink:href="#DejaVuSerif-6e" x="752.441406"/>
      <use xlink:href="#DejaVuSerif-65" x="816.845703"/>
      <use xlink:href="#DejaVuSerif-6e" x="876.025391"/>
      <use xlink:href="#DejaVuSerif-74" x="940.429688"/>
      <use xlink:href="#DejaVuSerif-73" x="980.615234"/>
      <use xlink:href="#DejaVuSerif-20" x="1031.933594"/>
      <use xlink:href="#DejaVuSerif-28" x="1063.720703"/>
      <use xlink:href="#DejaVuSerif-61" x="1102.734375"/>
      <use xlink:href="#DejaVuSerif-2e" x="1162.353516"/>
      <use xlink:href="#DejaVuSerif-75" x="1194.140625"/>
      <use xlink:href="#DejaVuSerif-2e" x="1258.544922"/>
      <use xlink:href="#DejaVuSerif-29" x="1290.332031"/>
     </g>
    </g>
   </g>
   <g id="line2d_25">
    <path d="M 140.926983 77.741094 
L 146.072839 75.857259 
L 151.218694 74.735455 
L 156.364549 77.512489 
L 161.510404 76.869583 
L 166.65626 78.748003 
L 171.802115 77.957707 
L 176.94797 77.287657 
L 182.093825 76.861533 
L 187.239681 76.803628 
L 192.385536 76.243792 
L 197.531391 76.727192 
L 202.677246 77.571845 
L 207.823102 77.206455 
L 212.968957 78.95574 
L 218.114812 76.86618 
L 223.260667 79.010998 
L 228.406523 78.470119 
L 233.552378 79.167329 
L 238.698233 77.369902 
L 243.844088 78.470234 
L 248.989944 76.640997 
L 254.135799 78.828632 
L 259.281654 78.351469 
L 264.427509 78.124275 
L 269.573365 79.03564 
L 274.71922 78.488643 
L 279.865075 78.357048 
L 285.01093 76.81949 
L 290.156786 78.750304 
L 295.302641 76.97082 
L 300.448496 79.138022 
L 305.594351 77.835021 
L 310.740207 78.473515 
L 315.886062 78.866025 
L 321.031917 78.392556 
L 326.177772 77.555747 
L 331.323628 77.292929 
L 336.469483 77.636931 
L 341.615338 79.485638 
L 346.761193 79.834856 
L 351.907049 78.556135 
L 357.052904 78.690729 
L 362.198759 79.395082 
L 367.344614 76.013552 
L 372.49047 77.984259 
L 377.636325 79.628423 
L 382.78218 79.340108 
L 387.928035 78.447041 
L 393.073891 80.091408 
L 398.219746 76.82866 
L 403.365601 79.574691 
L 408.511456 75.989024 
L 413.657312 76.493194 
L 418.803167 77.441621 
L 423.949022 78.828734 
L 429.094877 77.48897 
L 434.240733 78.600206 
L 439.386588 79.046502 
L 444.532443 78.336583 
L 449.678298 77.390402 
L 454.824154 78.209969 
L 459.970009 76.353094 
L 465.115864 79.678768 
L 470.261719 78.943414 
L 475.407575 77.242861 
L 480.55343 77.483052 
L 485.699285 77.29694 
L 490.84514 78.462106 
L 495.990995 78.740594 
L 501.136851 76.488573 
L 506.282706 77.38335 
L 511.428561 78.039727 
L 516.574416 77.694795 
L 521.720272 79.084834 
L 526.866127 77.535946 
L 532.011982 78.125941 
L 537.157837 76.549626 
L 542.303693 79.53737 
L 547.449548 77.967064 
L 552.595403 77.492904 
L 557.741258 78.164073 
L 562.887114 78.207429 
L 568.032969 77.939274 
L 573.178824 77.342861 
L 578.324679 76.735853 
L 583.470535 79.081657 
L 588.61639 76.726738 
L 593.762245 79.267515 
L 598.9081 77.919106 
L 604.053956 78.917615 
L 609.199811 78.747025 
L 614.345666 77.78378 
L 619.491521 77.959273 
L 624.637377 78.557586 
L 629.783232 77.653822 
L 634.929087 79.290881 
L 640.074942 79.050185 
L 645.220798 78.072946 
L 650.366653 77.65755 
" clip-path="url(#pdd9470ab1d)" style="fill: none; stroke: #1f77b4; stroke-width: 3; stroke-linecap: square"/>
   </g>
   <g id="line2d_26">
    <path d="M 140.926983 400.622863 
L 146.072839 401.827522 
L 151.218694 403.044545 
L 156.364549 400.525734 
L 161.510404 400.002058 
L 166.65626 398.964631 
L 171.802115 400.142586 
L 176.94797 399.423742 
L 182.093825 400.697451 
L 187.239681 400.670588 
L 192.385536 401.723107 
L 197.531391 401.048888 
L 202.677246 399.581995 
L 207.823102 400.539683 
L 212.968957 398.368793 
L 218.114812 401.17657 
L 223.260667 398.106863 
L 228.406523 399.304605 
L 233.552378 397.942035 
L 238.698233 400.776344 
L 243.844088 399.121378 
L 248.989944 400.59169 
L 254.135799 398.788179 
L 259.281654 398.506672 
L 264.427509 399.078437 
L 269.573365 398.124124 
L 274.71922 399.197829 
L 279.865075 398.45954 
L 285.01093 400.845023 
L 290.156786 398.741129 
L 295.302641 400.938327 
L 300.448496 397.981235 
L 305.594351 399.441692 
L 310.740207 398.732607 
L 315.886062 398.006407 
L 321.031917 398.632247 
L 326.177772 400.266506 
L 331.323628 400.275593 
L 336.469483 399.996275 
L 341.615338 397.893554 
L 346.761193 396.845652 
L 351.907049 399.186837 
L 357.052904 399.169939 
L 362.198759 397.51307 
L 367.344614 401.879059 
L 372.49047 398.998657 
L 377.636325 397.153507 
L 382.78218 397.724094 
L 387.928035 398.598462 
L 393.073891 396.557331 
L 398.219746 401.442512 
L 403.365601 398.012234 
L 408.511456 401.584645 
L 413.657312 401.008343 
L 418.803167 399.961817 
L 423.949022 398.652389 
L 429.094877 400.499566 
L 434.240733 399.205322 
L 439.386588 398.663282 
L 444.532443 399.041752 
L 449.678298 400.458285 
L 454.824154 398.909505 
L 459.970009 401.548133 
L 465.115864 397.17307 
L 470.261719 397.939107 
L 475.407575 400.629104 
L 480.55343 400.528098 
L 485.699285 400.86044 
L 490.84514 398.877604 
L 495.990995 398.597979 
L 501.136851 401.368471 
L 506.282706 399.853467 
L 511.428561 399.458969 
L 516.574416 399.917155 
L 521.720272 398.313729 
L 526.866127 400.616094 
L 532.011982 399.164915 
L 537.157837 400.851008 
L 542.303693 397.252311 
L 547.449548 399.324123 
L 552.595403 399.745567 
L 557.741258 399.015066 
L 562.887114 399.31912 
L 568.032969 399.74234 
L 573.178824 400.387332 
L 578.324679 401.022998 
L 583.470535 398.203382 
L 588.61639 401.093005 
L 593.762245 398.236146 
L 598.9081 399.499152 
L 604.053956 398.210857 
L 609.199811 398.727856 
L 614.345666 399.627986 
L 619.491521 399.703053 
L 624.637377 398.466176 
L 629.783232 400.095305 
L 634.929087 397.59307 
L 640.074942 398.224976 
L 645.220798 399.524908 
L 650.366653 400.285514 
" clip-path="url(#pdd9470ab1d)" style="fill: none; stroke: #ff7f0e; stroke-width: 3; stroke-linecap: square"/>
   </g>
   <g id="line2d_27">
    <path d="M 140.926983 134.398933 
L 146.072839 134.888536 
L 151.218694 134.522292 
L 156.364549 134.958569 
L 161.510404 135.345556 
L 166.65626 135.054367 
L 171.802115 135.083006 
L 176.94797 135.368387 
L 182.093825 135.006808 
L 187.239681 135.303934 
L 192.385536 134.967111 
L 197.531391 134.623116 
L 202.677246 135.141372 
L 207.823102 134.908224 
L 212.968957 135.250183 
L 218.114812 134.62242 
L 223.260667 135.48178 
L 228.406523 134.96729 
L 233.552378 135.523145 
L 238.698233 134.651818 
L 243.844088 135.145658 
L 248.989944 135.153905 
L 254.135799 135.329961 
L 259.281654 135.728677 
L 264.427509 135.118069 
L 269.573365 135.311593 
L 274.71922 135.097927 
L 279.865075 135.611107 
L 285.01093 134.995707 
L 290.156786 135.082695 
L 295.302641 134.795729 
L 300.448496 135.263528 
L 305.594351 135.494921 
L 310.740207 135.372277 
L 315.886062 135.65777 
L 321.031917 135.484762 
L 326.177772 135.006201 
L 331.323628 135.01827 
L 336.469483 135.294971 
L 341.615338 135.237718 
L 346.761193 135.722307 
L 351.907049 135.04935 
L 357.052904 135.161367 
L 362.198759 135.358189 
L 367.344614 134.731614 
L 372.49047 135.287502 
L 377.636325 135.859693 
L 382.78218 135.607896 
L 387.928035 135.392159 
L 393.073891 135.587556 
L 398.219746 134.85927 
L 403.365601 135.503188 
L 408.511456 134.95313 
L 413.657312 134.692268 
L 418.803167 135.152212 
L 423.949022 134.891671 
L 429.094877 134.788815 
L 434.240733 135.172425 
L 439.386588 135.098471 
L 444.532443 135.022691 
L 449.678298 134.766015 
L 454.824154 135.471339 
L 459.970009 134.732012 
L 465.115864 135.609853 
L 470.261719 135.434663 
L 475.407575 134.763501 
L 480.55343 134.90806 
L 485.699285 135.130262 
L 490.84514 135.321439 
L 495.990995 135.140086 
L 501.136851 135.128191 
L 506.282706 135.098968 
L 511.428561 134.976331 
L 516.574416 135.043687 
L 521.720272 135.406672 
L 526.866127 134.563375 
L 532.011982 135.403964 
L 537.157837 135.186794 
L 542.303693 135.648288 
L 547.449548 135.302573 
L 552.595403 135.103356 
L 557.741258 135.216604 
L 562.887114 135.074802 
L 568.032969 135.278564 
L 573.178824 134.844813 
L 578.324679 134.840333 
L 583.470535 135.231463 
L 588.61639 134.585411 
L 593.762245 135.208591 
L 598.9081 135.204141 
L 604.053956 135.259099 
L 609.199811 135.240275 
L 614.345666 135.066707 
L 619.491521 135.290062 
L 624.637377 135.543738 
L 629.783232 135.058472 
L 634.929087 135.602001 
L 640.074942 135.281561 
L 645.220798 135.178298 
L 650.366653 134.968114 
" clip-path="url(#pdd9470ab1d)" style="fill: none; stroke: #2ca02c; stroke-width: 3; stroke-linecap: square"/>
   </g>
   <g id="line2d_28">
    <path d="M 140.926983 159.592451 
L 146.072839 159.553108 
L 151.218694 159.852489 
L 156.364549 159.301258 
L 161.510404 159.968326 
L 166.65626 159.385855 
L 171.802115 159.011636 
L 176.94797 160.042248 
L 182.093825 159.647527 
L 187.239681 159.396717 
L 192.385536 159.161166 
L 197.531391 159.804233 
L 202.677246 159.916975 
L 207.823102 159.549877 
L 212.968957 159.598704 
L 218.114812 159.506745 
L 223.260667 159.54827 
L 228.406523 159.46808 
L 233.552378 159.548835 
L 238.698233 159.460627 
L 243.844088 159.400478 
L 248.989944 159.804659 
L 254.135799 159.275988 
L 259.281654 159.526053 
L 264.427509 159.837887 
L 269.573365 159.73515 
L 274.71922 159.338566 
L 279.865075 159.740535 
L 285.01093 159.501181 
L 290.156786 159.586972 
L 295.302641 159.553478 
L 300.448496 159.761631 
L 305.594351 159.397504 
L 310.740207 159.529437 
L 315.886062 159.575283 
L 321.031917 159.630363 
L 326.177772 159.338031 
L 331.323628 159.582633 
L 336.469483 159.287772 
L 341.615338 159.529726 
L 346.761193 159.750304 
L 351.907049 159.368534 
L 357.052904 159.1165 
L 362.198759 159.920427 
L 367.344614 159.553448 
L 372.49047 159.892103 
L 377.636325 159.500506 
L 382.78218 159.490383 
L 387.928035 159.736919 
L 393.073891 159.961605 
L 398.219746 159.125035 
L 403.365601 159.102799 
L 408.511456 159.650385 
L 413.657312 160.042298 
L 418.803167 159.649904 
L 423.949022 159.800528 
L 429.094877 159.430276 
L 434.240733 159.208847 
L 439.386588 159.360543 
L 444.532443 159.737707 
L 449.678298 159.639958 
L 454.824154 159.602009 
L 459.970009 159.591329 
L 465.115864 159.695745 
L 470.261719 159.83166 
L 475.407575 159.578302 
L 480.55343 159.372832 
L 485.699285 158.905176 
L 490.84514 159.583534 
L 495.990995 159.690064 
L 501.136851 159.214018 
L 506.282706 159.896029 
L 511.428561 159.787329 
L 516.574416 159.538701 
L 521.720272 159.415586 
L 526.866127 159.495493 
L 532.011982 159.45546 
L 537.157837 159.578134 
L 542.303693 159.722753 
L 547.449548 159.584638 
L 552.595403 159.834106 
L 557.741258 159.838291 
L 562.887114 159.650193 
L 568.032969 159.257889 
L 573.178824 159.647135 
L 578.324679 159.609149 
L 583.470535 159.660185 
L 588.61639 159.855274 
L 593.762245 159.488853 
L 598.9081 159.619599 
L 604.053956 159.848572 
L 609.199811 159.515204 
L 614.345666 159.719615 
L 619.491521 159.271875 
L 624.637377 159.617122 
L 629.783232 159.440687 
L 634.929087 159.685901 
L 640.074942 159.619924 
L 645.220798 159.40946 
L 650.366653 159.27899 
" clip-path="url(#pdd9470ab1d)" style="fill: none; stroke: #d62728; stroke-width: 3; stroke-linecap: square"/>
   </g>
   <g id="line2d_29">
    <path d="M 140.926983 167.795161 
L 146.072839 168.024043 
L 151.218694 167.996282 
L 156.364549 167.85543 
L 161.510404 167.969104 
L 166.65626 168.003537 
L 171.802115 167.963403 
L 176.94797 168.03659 
L 182.093825 167.945479 
L 187.239681 167.984873 
L 192.385536 168.064696 
L 197.531391 167.956898 
L 202.677246 167.948624 
L 207.823102 167.956791 
L 212.968957 167.988653 
L 218.114812 167.990861 
L 223.260667 168.015326 
L 228.406523 167.953322 
L 233.552378 167.982381 
L 238.698233 167.904983 
L 243.844088 168.026148 
L 248.989944 167.972565 
L 254.135799 167.941623 
L 259.281654 168.052255 
L 264.427509 168.006955 
L 269.573365 167.959619 
L 274.71922 168.043408 
L 279.865075 167.998332 
L 285.01093 168.005199 
L 290.156786 168.005778 
L 295.302641 167.90843 
L 300.448496 168.022694 
L 305.594351 167.998053 
L 310.740207 168.059538 
L 315.886062 168.062025 
L 321.031917 168.027868 
L 326.177772 168.002016 
L 331.323628 167.999166 
L 336.469483 167.952743 
L 341.615338 168.022526 
L 346.761193 168.01615 
L 351.907049 168.008358 
L 357.052904 168.030757 
L 362.198759 167.983043 
L 367.344614 167.991905 
L 372.49047 168.007277 
L 377.636325 168.02812 
L 382.78218 168.007932 
L 387.928035 167.995866 
L 393.073891 167.974817 
L 398.219746 167.917325 
L 403.365601 167.981167 
L 408.511456 167.996858 
L 413.657312 167.938021 
L 418.803167 167.968739 
L 423.949022 168.00123 
L 429.094877 167.966941 
L 434.240733 167.987999 
L 439.386588 168.006212 
L 444.532443 168.036252 
L 449.678298 167.920283 
L 454.824154 167.982426 
L 459.970009 167.950682 
L 465.115864 168.018337 
L 470.261719 168.026967 
L 475.407575 167.962105 
L 480.55343 167.8845 
L 485.699285 167.984901 
L 490.84514 167.933712 
L 495.990995 168.010474 
L 501.136851 167.980241 
L 506.282706 167.9484 
L 511.428561 167.91921 
L 516.574416 167.988292 
L 521.720272 167.962047 
L 526.866127 167.97199 
L 532.011982 168.033018 
L 537.157837 168.020585 
L 542.303693 168.026071 
L 547.449548 168.008547 
L 552.595403 168.011113 
L 557.741258 167.953244 
L 562.887114 167.936111 
L 568.032969 167.969645 
L 573.178824 167.965747 
L 578.324679 167.979727 
L 583.470535 168.011678 
L 588.61639 167.927788 
L 593.762245 167.987371 
L 598.9081 167.946378 
L 604.053956 167.952352 
L 609.199811 167.958169 
L 614.345666 167.990534 
L 619.491521 167.964934 
L 624.637377 168.00533 
L 629.783232 167.942176 
L 634.929087 168.018916 
L 640.074942 168.014167 
L 645.220798 168.005186 
L 650.366653 168.000637 
" clip-path="url(#pdd9470ab1d)" style="fill: none; stroke: #9467bd; stroke-width: 3; stroke-linecap: square"/>
   </g>
   <g id="line2d_30">
    <path d="M 140.926983 267.313364 
L 146.072839 267.313331 
L 151.218694 267.313926 
L 156.364549 267.316343 
L 161.510404 267.31749 
L 166.65626 267.319257 
L 171.802115 267.3212 
L 176.94797 267.321486 
L 182.093825 267.32166 
L 187.239681 267.322603 
L 192.385536 267.322733 
L 197.531391 267.32319 
L 202.677246 267.323673 
L 207.823102 267.323892 
L 212.968957 267.324935 
L 218.114812 267.325638 
L 223.260667 267.3261 
L 228.406523 267.326279 
L 233.552378 267.326587 
L 238.698233 267.326536 
L 243.844088 267.326759 
L 248.989944 267.326679 
L 254.135799 267.327246 
L 259.281654 267.327988 
L 264.427509 267.328484 
L 269.573365 267.328988 
L 274.71922 267.329236 
L 279.865075 267.329424 
L 285.01093 267.329462 
L 290.156786 267.32974 
L 295.302641 267.329647 
L 300.448496 267.329973 
L 305.594351 267.330054 
L 310.740207 267.330238 
L 315.886062 267.330373 
L 321.031917 267.330659 
L 326.177772 267.331363 
L 331.323628 267.331454 
L 336.469483 267.331554 
L 341.615338 267.332025 
L 346.761193 267.33213 
L 351.907049 267.332076 
L 357.052904 267.332156 
L 362.198759 267.332673 
L 367.344614 267.33244 
L 372.49047 267.332662 
L 377.636325 267.333112 
L 382.78218 267.333274 
L 387.928035 267.33331 
L 393.073891 267.335579 
L 398.219746 267.335665 
L 403.365601 267.336942 
L 408.511456 267.336905 
L 413.657312 267.336986 
L 418.803167 267.337156 
L 423.949022 267.337415 
L 429.094877 267.337431 
L 434.240733 267.337661 
L 439.386588 267.337873 
L 444.532443 267.337847 
L 449.678298 267.337805 
L 454.824154 267.338111 
L 459.970009 267.338112 
L 465.115864 267.338636 
L 470.261719 267.338674 
L 475.407575 267.338737 
L 480.55343 267.339405 
L 485.699285 267.340581 
L 490.84514 267.341257 
L 495.990995 267.342061 
L 501.136851 267.342356 
L 506.282706 267.343075 
L 511.428561 267.344429 
L 516.574416 267.345492 
L 521.720272 267.34573 
L 526.866127 267.345761 
L 532.011982 267.34616 
L 537.157837 267.34901 
L 542.303693 267.349656 
L 547.449548 267.349808 
L 552.595403 267.349908 
L 557.741258 267.350141 
L 562.887114 267.350517 
L 568.032969 267.350575 
L 573.178824 267.350751 
L 578.324679 267.350923 
L 583.470535 267.351228 
L 588.61639 267.351079 
L 593.762245 267.351339 
L 598.9081 267.35124 
L 604.053956 267.351358 
L 609.199811 267.351392 
L 614.345666 267.351485 
L 619.491521 267.35206 
L 624.637377 267.352815 
L 629.783232 267.353324 
L 634.929087 267.35363 
L 640.074942 267.353677 
L 645.220798 267.353661 
L 650.366653 267.353669 
" clip-path="url(#pdd9470ab1d)" style="fill: none; stroke-dasharray: 11.1,4.8; stroke-dashoffset: 0; stroke: #000000; stroke-width: 3"/>
   </g>
   <g id="patch_3">
    <path d="M 115.455 419.46 
L 115.455 58.32 
" style="fill: none; stroke: #000000; stroke-width: 2; stroke-linejoin: miter; stroke-linecap: square"/>
   </g>
   <g id="patch_4">
    <path d="M 675.838636 419.46 
L 675.838636 58.32 
" style="fill: none; stroke: #000000; stroke-width: 2; stroke-linejoin: miter; stroke-linecap: square"/>
   </g>
   <g id="patch_5">
    <path d="M 115.455 419.46 
L 675.838636 419.46 
" style="fill: none; stroke: #000000; stroke-width: 2; stroke-linejoin: miter; stroke-linecap: square"/>
   </g>
   <g id="patch_6">
    <path d="M 115.455 58.32 
L 675.838636 58.32 
" style="fill: none; stroke: #000000; stroke-width: 2; stroke-linejoin: miter; stroke-linecap: square"/>
   </g>
   <g id="text_15">
    <!-- Energy Components vs. Time -->
    <g transform="translate(163.548068 51.38775) scale(0.312 -0.312)">
     <defs>
      <path id="DejaVuSerif-76" d="M 1581 0 
L 359 2988 
L -19 2988 
L -19 3322 
L 1509 3322 
L 1509 2988 
L 978 2988 
L 1913 703 
L 2847 2988 
L 2350 2988 
L 2350 3322 
L 3597 3322 
L 3597 2988 
L 3225 2988 
L 2003 0 
L 1581 0 
z
" transform="scale(0.015625)"/>
     </defs>
     <use xlink:href="#DejaVuSerif-45"/>
     <use xlink:href="#DejaVuSerif-6e" x="72.998047"/>
     <use xlink:href="#DejaVuSerif-65" x="137.402344"/>
     <use xlink:href="#DejaVuSerif-72" x="196.582031"/>
     <use xlink:href="#DejaVuSerif-67" x="244.384766"/>
     <use xlink:href="#DejaVuSerif-79" x="308.398438"/>
     <use xlink:href="#DejaVuSerif-20" x="364.892578"/>
     <use xlink:href="#DejaVuSerif-43" x="396.679688"/>
     <use xlink:href="#DejaVuSerif-6f" x="473.193359"/>
     <use xlink:href="#DejaVuSerif-6d" x="533.398438"/>
     <use xlink:href="#DejaVuSerif-70" x="628.222656"/>
     <use xlink:href="#DejaVuSerif-6f" x="692.236328"/>
     <use xlink:href="#DejaVuSerif-6e" x="752.441406"/>
     <use xlink:href="#DejaVuSerif-65" x="816.845703"/>
     <use xlink:href="#DejaVuSerif-6e" x="876.025391"/>
     <use xlink:href="#DejaVuSerif-74" x="940.429688"/>
     <use xlink:href="#DejaVuSerif-73" x="980.615234"/>
     <use xlink:href="#DejaVuSerif-20" x="1031.933594"/>
     <use xlink:href="#DejaVuSerif-76" x="1063.720703"/>
     <use xlink:href="#DejaVuSerif-73" x="1120.214844"/>
     <use xlink:href="#DejaVuSerif-2e" x="1171.533203"/>
     <use xlink:href="#DejaVuSerif-20" x="1203.320312"/>
     <use xlink:href="#DejaVuSerif-54" x="1235.107422"/>
     <use xlink:href="#DejaVuSerif-69" x="1301.806641"/>
     <use xlink:href="#DejaVuSerif-6d" x="1333.789062"/>
     <use xlink:href="#DejaVuSerif-65" x="1428.613281"/>
    </g>
   </g>
   <g id="legend_1">
    <g id="patch_7">
     <path d="M 129.455 409.46 
L 345.526875 409.46 
Q 349.526875 409.46 349.526875 405.46 
L 349.526875 231.038125 
Q 349.526875 227.038125 345.526875 227.038125 
L 129.455 227.038125 
Q 125.455 227.038125 125.455 231.038125 
L 125.455 405.46 
Q 125.455 409.46 129.455 409.46 
z
" style="fill: #ffffff; opacity: 0.8; stroke: #cccccc; stroke-linejoin: miter"/>
    </g>
    <g id="line2d_31">
     <path d="M 133.455 243.235 
L 153.455 243.235 
L 173.455 243.235 
" style="fill: none; stroke: #1f77b4; stroke-width: 3; stroke-linecap: square"/>
    </g>
    <g id="text_16">
     <!-- Kinetic E -->
     <g transform="translate(189.455 250.235) scale(0.2 -0.2)">
      <defs>
       <path id="DejaVuSerif-4b" d="M 353 0 
L 353 331 
L 947 331 
L 947 4331 
L 353 4331 
L 353 4666 
L 2175 4666 
L 2175 4331 
L 1581 4331 
L 1581 2566 
L 3591 4331 
L 3084 4331 
L 3084 4666 
L 4634 4666 
L 4634 4331 
L 4109 4331 
L 2106 2572 
L 4347 331 
L 4878 331 
L 4878 0 
L 3794 0 
L 1581 2216 
L 1581 331 
L 2175 331 
L 2175 0 
L 353 0 
z
" transform="scale(0.015625)"/>
       <path id="DejaVuSerif-63" d="M 3291 997 
Q 3169 466 2822 187 
Q 2475 -91 1925 -91 
Q 1200 -91 759 389 
Q 319 869 319 1663 
Q 319 2459 759 2936 
Q 1200 3413 1925 3413 
Q 2241 3413 2553 3339 
Q 2866 3266 3181 3116 
L 3181 2266 
L 2847 2266 
Q 2781 2703 2561 2903 
Q 2341 3103 1931 3103 
Q 1466 3103 1228 2742 
Q 991 2381 991 1663 
Q 991 944 1227 581 
Q 1463 219 1931 219 
Q 2303 219 2525 412 
Q 2747 606 2828 997 
L 3291 997 
z
" transform="scale(0.015625)"/>
      </defs>
      <use xlink:href="#DejaVuSerif-4b"/>
      <use xlink:href="#DejaVuSerif-69" x="74.707031"/>
      <use xlink:href="#DejaVuSerif-6e" x="106.689453"/>
      <use xlink:href="#DejaVuSerif-65" x="171.09375"/>
      <use xlink:href="#DejaVuSerif-74" x="230.273438"/>
      <use xlink:href="#DejaVuSerif-69" x="270.458984"/>
      <use xlink:href="#DejaVuSerif-63" x="302.441406"/>
      <use xlink:href="#DejaVuSerif-20" x="358.447266"/>
      <use xlink:href="#DejaVuSerif-45" x="390.234375"/>
     </g>
    </g>
    <g id="line2d_32">
     <path d="M 133.455 272.59125 
L 153.455 272.59125 
L 173.455 272.59125 
" style="fill: none; stroke: #ff7f0e; stroke-width: 3; stroke-linecap: square"/>
    </g>
    <g id="text_17">
     <!-- PE e-N -->
     <g transform="translate(189.455 279.59125) scale(0.2 -0.2)">
      <defs>
       <path id="DejaVuSerif-50" d="M 1581 2375 
L 2406 2375 
Q 2872 2375 3115 2626 
Q 3359 2878 3359 3353 
Q 3359 3831 3115 4081 
Q 2872 4331 2406 4331 
L 1581 4331 
L 1581 2375 
z
M 353 0 
L 353 331 
L 947 331 
L 947 4331 
L 353 4331 
L 353 4666 
L 2559 4666 
Q 3259 4666 3668 4311 
Q 4078 3956 4078 3353 
Q 4078 2753 3668 2397 
Q 3259 2041 2559 2041 
L 1581 2041 
L 1581 331 
L 2303 331 
L 2303 0 
L 353 0 
z
" transform="scale(0.015625)"/>
       <path id="DejaVuSerif-2d" d="M 281 1959 
L 1881 1959 
L 1881 1472 
L 281 1472 
L 281 1959 
z
" transform="scale(0.015625)"/>
       <path id="DejaVuSerif-4e" d="M 313 0 
L 313 331 
L 941 331 
L 941 4331 
L 313 4331 
L 313 4666 
L 1509 4666 
L 4306 984 
L 4306 4331 
L 3681 4331 
L 3681 4666 
L 5319 4666 
L 5319 4331 
L 4691 4331 
L 4691 -91 
L 4313 -91 
L 1325 3841 
L 1325 331 
L 1953 331 
L 1953 0 
L 313 0 
z
" transform="scale(0.015625)"/>
      </defs>
      <use xlink:href="#DejaVuSerif-50"/>
      <use xlink:href="#DejaVuSerif-45" x="67.285156"/>
      <use xlink:href="#DejaVuSerif-20" x="140.283203"/>
      <use xlink:href="#DejaVuSerif-65" x="172.070312"/>
      <use xlink:href="#DejaVuSerif-2d" x="231.25"/>
      <use xlink:href="#DejaVuSerif-4e" x="265.039062"/>
     </g>
    </g>
    <g id="line2d_33">
     <path d="M 133.455 301.9475 
L 153.455 301.9475 
L 173.455 301.9475 
" style="fill: none; stroke: #2ca02c; stroke-width: 3; stroke-linecap: square"/>
    </g>
    <g id="text_18">
     <!-- PE e-e -->
     <g transform="translate(189.455 308.9475) scale(0.2 -0.2)">
      <use xlink:href="#DejaVuSerif-50"/>
      <use xlink:href="#DejaVuSerif-45" x="67.285156"/>
      <use xlink:href="#DejaVuSerif-20" x="140.283203"/>
      <use xlink:href="#DejaVuSerif-65" x="172.070312"/>
      <use xlink:href="#DejaVuSerif-2d" x="231.25"/>
      <use xlink:href="#DejaVuSerif-65" x="265.039062"/>
     </g>
    </g>
    <g id="line2d_34">
     <path d="M 133.455 331.30375 
L 153.455 331.30375 
L 173.455 331.30375 
" style="fill: none; stroke: #d62728; stroke-width: 3; stroke-linecap: square"/>
    </g>
    <g id="text_19">
     <!-- PE Heisenberg -->
     <g transform="translate(189.455 338.30375) scale(0.2 -0.2)">
      <defs>
       <path id="DejaVuSerif-48" d="M 353 0 
L 353 331 
L 947 331 
L 947 4331 
L 353 4331 
L 353 4666 
L 2175 4666 
L 2175 4331 
L 1581 4331 
L 1581 2719 
L 4000 2719 
L 4000 4331 
L 3406 4331 
L 3406 4666 
L 5228 4666 
L 5228 4331 
L 4634 4331 
L 4634 331 
L 5228 331 
L 5228 0 
L 3406 0 
L 3406 331 
L 4000 331 
L 4000 2338 
L 1581 2338 
L 1581 331 
L 2175 331 
L 2175 0 
L 353 0 
z
" transform="scale(0.015625)"/>
       <path id="DejaVuSerif-62" d="M 738 331 
L 738 4531 
L 184 4531 
L 184 4863 
L 1313 4863 
L 1313 2803 
Q 1481 3116 1742 3264 
Q 2003 3413 2388 3413 
Q 3000 3413 3387 2928 
Q 3775 2444 3775 1663 
Q 3775 881 3387 395 
Q 3000 -91 2388 -91 
Q 2003 -91 1742 57 
Q 1481 206 1313 519 
L 1313 0 
L 184 0 
L 184 331 
L 738 331 
z
M 1313 1497 
Q 1313 897 1542 583 
Q 1772 269 2209 269 
Q 2650 269 2876 622 
Q 3103 975 3103 1663 
Q 3103 2353 2876 2703 
Q 2650 3053 2209 3053 
Q 1772 3053 1542 2737 
Q 1313 2422 1313 1825 
L 1313 1497 
z
" transform="scale(0.015625)"/>
      </defs>
      <use xlink:href="#DejaVuSerif-50"/>
      <use xlink:href="#DejaVuSerif-45" x="67.285156"/>
      <use xlink:href="#DejaVuSerif-20" x="140.283203"/>
      <use xlink:href="#DejaVuSerif-48" x="172.070312"/>
      <use xlink:href="#DejaVuSerif-65" x="259.277344"/>
      <use xlink:href="#DejaVuSerif-69" x="318.457031"/>
      <use xlink:href="#DejaVuSerif-73" x="350.439453"/>
      <use xlink:href="#DejaVuSerif-65" x="401.757812"/>
      <use xlink:href="#DejaVuSerif-6e" x="460.9375"/>
      <use xlink:href="#DejaVuSerif-62" x="525.341797"/>
      <use xlink:href="#DejaVuSerif-65" x="589.355469"/>
      <use xlink:href="#DejaVuSerif-72" x="648.535156"/>
      <use xlink:href="#DejaVuSerif-67" x="696.337891"/>
     </g>
    </g>
    <g id="line2d_35">
     <path d="M 133.455 360.944375 
L 153.455 360.944375 
L 173.455 360.944375 
" style="fill: none; stroke: #9467bd; stroke-width: 3; stroke-linecap: square"/>
    </g>
    <g id="text_20">
     <!-- PE Pauli -->
     <g transform="translate(189.455 367.944375) scale(0.2 -0.2)">
      <defs>
       <path id="DejaVuSerif-6c" d="M 1313 331 
L 1856 331 
L 1856 0 
L 184 0 
L 184 331 
L 738 331 
L 738 4531 
L 184 4531 
L 184 4863 
L 1313 4863 
L 1313 331 
z
" transform="scale(0.015625)"/>
      </defs>
      <use xlink:href="#DejaVuSerif-50"/>
      <use xlink:href="#DejaVuSerif-45" x="67.285156"/>
      <use xlink:href="#DejaVuSerif-20" x="140.283203"/>
      <use xlink:href="#DejaVuSerif-50" x="172.070312"/>
      <use xlink:href="#DejaVuSerif-61" x="234.855469"/>
      <use xlink:href="#DejaVuSerif-75" x="294.474609"/>
      <use xlink:href="#DejaVuSerif-6c" x="358.878906"/>
      <use xlink:href="#DejaVuSerif-69" x="390.861328"/>
     </g>
    </g>
    <g id="line2d_36">
     <path d="M 133.455 390.300625 
L 153.455 390.300625 
L 173.455 390.300625 
" style="fill: none; stroke-dasharray: 11.1,4.8; stroke-dashoffset: 0; stroke: #000000; stroke-width: 3"/>
    </g>
    <g id="text_21">
     <!-- Total E -->
     <g transform="translate(189.455 397.300625) scale(0.2 -0.2)">
      <use xlink:href="#DejaVuSerif-54"/>
      <use xlink:href="#DejaVuSerif-6f" x="58.949219"/>
      <use xlink:href="#DejaVuSerif-74" x="119.154297"/>
      <use xlink:href="#DejaVuSerif-61" x="159.339844"/>
      <use xlink:href="#DejaVuSerif-6c" x="218.958984"/>
      <use xlink:href="#DejaVuSerif-20" x="250.941406"/>
      <use xlink:href="#DejaVuSerif-45" x="282.728516"/>
     </g>
    </g>
   </g>
  </g>
 </g>
 <defs>
  <clipPath id="pdd9470ab1d">
   <rect x="115.455" y="58.32" width="560.383636" height="361.14"/>
  </clipPath>
 </defs>
</svg>
