<?xml version="1.0" encoding="utf-8" standalone="no"?>
<!DOCTYPE svg PUBLIC "-//W3C//DTD SVG 1.1//EN"
  "http://www.w3.org/Graphics/SVG/1.1/DTD/svg11.dtd">
<svg xmlns:xlink="http://www.w3.org/1999/xlink" width="864pt" height="432pt" viewBox="0 0 864 432" xmlns="http://www.w3.org/2000/svg" version="1.1">
 <metadata>
  <rdf:RDF xmlns:dc="http://purl.org/dc/elements/1.1/" xmlns:cc="http://creativecommons.org/ns#" xmlns:rdf="http://www.w3.org/1999/02/22-rdf-syntax-ns#">
   <cc:Work>
    <dc:type rdf:resource="http://purl.org/dc/dcmitype/StillImage"/>
    <dc:date>2025-07-11T16:42:39.284281</dc:date>
    <dc:format>image/svg+xml</dc:format>
    <dc:creator>
     <cc:Agent>
      <dc:title>Matplotlib v3.7.2, https://matplotlib.org/</dc:title>
     </cc:Agent>
    </dc:creator>
   </cc:Work>
  </rdf:RDF>
 </metadata>
 <defs>
  <style type="text/css">*{stroke-linejoin: round; stroke-linecap: butt}</style>
 </defs>
 <g id="figure_1">
  <g id="patch_1">
   <path d="M 0 432 
L 864 432 
L 864 0 
L 0 0 
z
" style="fill: #ffffff"/>
  </g>
  <g id="axes_1">
   <g id="patch_2">
    <path d="M 177.87 345.2325 
L 440.348584 345.2325 
L 440.348584 32.507187 
L 177.87 32.507187 
z
" style="fill: #ffffff"/>
   </g>
   <g id="matplotlib.axis_1">
    <g id="xtick_1">
     <g id="line2d_1">
      <path d="M 189.800845 345.2325 
L 189.800845 32.507187 
" clip-path="url(#p9bcfe56a77)" style="fill: none; stroke-dasharray: 3.7,1.6; stroke-dashoffset: 0; stroke: #b0b0b0; stroke-opacity: 0.5"/>
     </g>
     <g id="line2d_2">
      <defs>
       <path id="md152b8f3b0" d="M 0 0 
L 0 -10 
" style="stroke: #000000; stroke-width: 2"/>
      </defs>
      <g>
       <use xlink:href="#md152b8f3b0" x="189.800845" y="345.2325" style="stroke: #000000; stroke-width: 2"/>
      </g>
     </g>
     <g id="line2d_3">
      <defs>
       <path id="m0fad808636" d="M 0 0 
L 0 10 
" style="stroke: #000000; stroke-width: 2"/>
      </defs>
      <g>
       <use xlink:href="#m0fad808636" x="189.800845" y="32.507187" style="stroke: #000000; stroke-width: 2"/>
      </g>
     </g>
     <g id="text_1">
      <!-- 0 -->
      <g transform="translate(181.529595 368.488437) scale(0.26 -0.26)">
       <defs>
        <path id="DejaVuSerif-30" d="M 2034 219 
Q 2513 219 2750 744 
Q 2988 1269 2988 2328 
Q 2988 3391 2750 3916 
Q 2513 4441 2034 4441 
Q 1556 4441 1318 3916 
Q 1081 3391 1081 2328 
Q 1081 1269 1318 744 
Q 1556 219 2034 219 
z
M 2034 -91 
Q 1275 -91 848 546 
Q 422 1184 422 2328 
Q 422 3475 848 4112 
Q 1275 4750 2034 4750 
Q 2797 4750 3222 4112 
Q 3647 3475 3647 2328 
Q 3647 1184 3222 546 
Q 2797 -91 2034 -91 
z
" transform="scale(0.015625)"/>
       </defs>
       <use xlink:href="#DejaVuSerif-30"/>
      </g>
     </g>
    </g>
    <g id="xtick_2">
     <g id="line2d_4">
      <path d="M 285.247603 345.2325 
L 285.247603 32.507187 
" clip-path="url(#p9bcfe56a77)" style="fill: none; stroke-dasharray: 3.7,1.6; stroke-dashoffset: 0; stroke: #b0b0b0; stroke-opacity: 0.5"/>
     </g>
     <g id="line2d_5">
      <g>
       <use xlink:href="#md152b8f3b0" x="285.247603" y="345.2325" style="stroke: #000000; stroke-width: 2"/>
      </g>
     </g>
     <g id="line2d_6">
      <g>
       <use xlink:href="#m0fad808636" x="285.247603" y="32.507187" style="stroke: #000000; stroke-width: 2"/>
      </g>
     </g>
     <g id="text_2">
      <!-- 10000 -->
      <g transform="translate(243.891353 368.488437) scale(0.26 -0.26)">
       <defs>
        <path id="DejaVuSerif-31" d="M 909 0 
L 909 331 
L 1722 331 
L 1722 4213 
L 781 3603 
L 781 4013 
L 1919 4750 
L 2350 4750 
L 2350 331 
L 3163 331 
L 3163 0 
L 909 0 
z
" transform="scale(0.015625)"/>
       </defs>
       <use xlink:href="#DejaVuSerif-31"/>
       <use xlink:href="#DejaVuSerif-30" x="63.623047"/>
       <use xlink:href="#DejaVuSerif-30" x="127.246094"/>
       <use xlink:href="#DejaVuSerif-30" x="190.869141"/>
       <use xlink:href="#DejaVuSerif-30" x="254.492188"/>
      </g>
     </g>
    </g>
    <g id="xtick_3">
     <g id="line2d_7">
      <path d="M 380.69436 345.2325 
L 380.69436 32.507187 
" clip-path="url(#p9bcfe56a77)" style="fill: none; stroke-dasharray: 3.7,1.6; stroke-dashoffset: 0; stroke: #b0b0b0; stroke-opacity: 0.5"/>
     </g>
     <g id="line2d_8">
      <g>
       <use xlink:href="#md152b8f3b0" x="380.69436" y="345.2325" style="stroke: #000000; stroke-width: 2"/>
      </g>
     </g>
     <g id="line2d_9">
      <g>
       <use xlink:href="#m0fad808636" x="380.69436" y="32.507187" style="stroke: #000000; stroke-width: 2"/>
      </g>
     </g>
     <g id="text_3">
      <!-- 20000 -->
      <g transform="translate(339.33811 368.488437) scale(0.26 -0.26)">
       <defs>
        <path id="DejaVuSerif-32" d="M 819 3553 
L 469 3553 
L 469 4384 
Q 803 4563 1142 4656 
Q 1481 4750 1806 4750 
Q 2534 4750 2956 4397 
Q 3378 4044 3378 3438 
Q 3378 2753 2422 1800 
Q 2347 1728 2309 1691 
L 1131 513 
L 3078 513 
L 3078 1088 
L 3444 1088 
L 3444 0 
L 434 0 
L 434 341 
L 1850 1753 
Q 2319 2222 2519 2614 
Q 2719 3006 2719 3438 
Q 2719 3909 2473 4175 
Q 2228 4441 1797 4441 
Q 1350 4441 1106 4219 
Q 863 3997 819 3553 
z
" transform="scale(0.015625)"/>
       </defs>
       <use xlink:href="#DejaVuSerif-32"/>
       <use xlink:href="#DejaVuSerif-30" x="63.623047"/>
       <use xlink:href="#DejaVuSerif-30" x="127.246094"/>
       <use xlink:href="#DejaVuSerif-30" x="190.869141"/>
       <use xlink:href="#DejaVuSerif-30" x="254.492188"/>
      </g>
     </g>
    </g>
    <g id="text_4">
     <!-- $t$ (a.u.) -->
     <g transform="translate(265.689292 397.651563) scale(0.26 -0.26)">
      <defs>
       <path id="Cmmi10-74" d="M 397 519 
Q 397 613 416 697 
L 878 2534 
L 206 2534 
Q 141 2534 141 2619 
Q 166 2759 225 2759 
L 934 2759 
L 1191 3803 
Q 1216 3888 1291 3947 
Q 1366 4006 1459 4006 
Q 1541 4006 1595 3957 
Q 1650 3909 1650 3828 
Q 1650 3809 1648 3798 
Q 1647 3788 1644 3775 
L 1388 2759 
L 2047 2759 
Q 2113 2759 2113 2675 
Q 2109 2659 2100 2621 
Q 2091 2584 2075 2559 
Q 2059 2534 2028 2534 
L 1331 2534 
L 872 684 
Q 825 503 825 372 
Q 825 97 1013 97 
Q 1294 97 1511 361 
Q 1728 625 1844 941 
Q 1869 978 1894 978 
L 1972 978 
Q 1997 978 2012 961 
Q 2028 944 2028 922 
Q 2028 909 2022 903 
Q 1881 516 1612 222 
Q 1344 -72 997 -72 
Q 744 -72 570 93 
Q 397 259 397 519 
z
" transform="scale(0.015625)"/>
       <path id="DejaVuSerif-20" transform="scale(0.015625)"/>
       <path id="DejaVuSerif-28" d="M 2041 -997 
Q 1281 -656 893 83 
Q 506 822 506 1931 
Q 506 3044 893 3783 
Q 1281 4522 2041 4863 
L 2041 4556 
Q 1559 4225 1350 3623 
Q 1141 3022 1141 1931 
Q 1141 844 1350 242 
Q 1559 -359 2041 -691 
L 2041 -997 
z
" transform="scale(0.015625)"/>
       <path id="DejaVuSerif-61" d="M 2547 1044 
L 2547 1747 
L 1806 1747 
Q 1378 1747 1168 1562 
Q 959 1378 959 997 
Q 959 650 1171 447 
Q 1384 244 1747 244 
Q 2106 244 2326 466 
Q 2547 688 2547 1044 
z
M 3122 2075 
L 3122 331 
L 3634 331 
L 3634 0 
L 2547 0 
L 2547 359 
Q 2356 128 2106 18 
Q 1856 -91 1522 -91 
Q 969 -91 644 203 
Q 319 497 319 997 
Q 319 1513 691 1797 
Q 1063 2081 1741 2081 
L 2547 2081 
L 2547 2309 
Q 2547 2688 2317 2895 
Q 2088 3103 1672 3103 
Q 1328 3103 1125 2947 
Q 922 2791 872 2484 
L 575 2484 
L 575 3156 
Q 875 3284 1158 3348 
Q 1441 3413 1709 3413 
Q 2400 3413 2761 3070 
Q 3122 2728 3122 2075 
z
" transform="scale(0.015625)"/>
       <path id="DejaVuSerif-2e" d="M 603 325 
Q 603 500 722 622 
Q 841 744 1019 744 
Q 1191 744 1312 622 
Q 1434 500 1434 325 
Q 1434 153 1312 31 
Q 1191 -91 1019 -91 
Q 841 -91 722 29 
Q 603 150 603 325 
z
" transform="scale(0.015625)"/>
       <path id="DejaVuSerif-75" d="M 2266 3322 
L 3341 3322 
L 3341 331 
L 3884 331 
L 3884 0 
L 2766 0 
L 2766 588 
Q 2606 256 2353 82 
Q 2100 -91 1766 -91 
Q 1213 -91 952 223 
Q 691 538 691 1209 
L 691 2988 
L 172 2988 
L 172 3322 
L 1269 3322 
L 1269 1388 
Q 1269 781 1417 556 
Q 1566 331 1947 331 
Q 2347 331 2556 625 
Q 2766 919 2766 1478 
L 2766 2988 
L 2266 2988 
L 2266 3322 
z
" transform="scale(0.015625)"/>
       <path id="DejaVuSerif-29" d="M 453 -997 
L 453 -691 
Q 934 -359 1145 242 
Q 1356 844 1356 1931 
Q 1356 3022 1145 3623 
Q 934 4225 453 4556 
L 453 4863 
Q 1216 4522 1603 3783 
Q 1991 3044 1991 1931 
Q 1991 822 1603 83 
Q 1216 -656 453 -997 
z
" transform="scale(0.015625)"/>
      </defs>
      <use xlink:href="#Cmmi10-74" transform="translate(0 0.015625)"/>
      <use xlink:href="#DejaVuSerif-20" transform="translate(36.083984 0.015625)"/>
      <use xlink:href="#DejaVuSerif-28" transform="translate(67.871094 0.015625)"/>
      <use xlink:href="#DejaVuSerif-61" transform="translate(106.884766 0.015625)"/>
      <use xlink:href="#DejaVuSerif-2e" transform="translate(166.503906 0.015625)"/>
      <use xlink:href="#DejaVuSerif-75" transform="translate(198.291016 0.015625)"/>
      <use xlink:href="#DejaVuSerif-2e" transform="translate(262.695312 0.015625)"/>
      <use xlink:href="#DejaVuSerif-29" transform="translate(294.482422 0.015625)"/>
     </g>
    </g>
   </g>
   <g id="matplotlib.axis_2">
    <g id="ytick_1">
     <g id="line2d_10">
      <path d="M 177.87 304.15452 
L 440.348584 304.15452 
" clip-path="url(#p9bcfe56a77)" style="fill: none; stroke-dasharray: 3.7,1.6; stroke-dashoffset: 0; stroke: #b0b0b0; stroke-opacity: 0.5"/>
     </g>
     <g id="line2d_11">
      <defs>
       <path id="m261f17518a" d="M 0 0 
L 10 0 
" style="stroke: #000000; stroke-width: 2"/>
      </defs>
      <g>
       <use xlink:href="#m261f17518a" x="177.87" y="304.15452" style="stroke: #000000; stroke-width: 2"/>
      </g>
     </g>
     <g id="line2d_12">
      <defs>
       <path id="mc4db78fb2b" d="M 0 0 
L -10 0 
" style="stroke: #000000; stroke-width: 2"/>
      </defs>
      <g>
       <use xlink:href="#mc4db78fb2b" x="440.348584" y="304.15452" style="stroke: #000000; stroke-width: 2"/>
      </g>
     </g>
     <g id="text_5">
      <!-- −2.7795 -->
      <g transform="translate(61.607187 314.032489) scale(0.26 -0.26)">
       <defs>
        <path id="DejaVuSerif-2212" d="M 678 2259 
L 4684 2259 
L 4684 1753 
L 678 1753 
L 678 2259 
z
" transform="scale(0.015625)"/>
        <path id="DejaVuSerif-37" d="M 3609 4347 
L 1784 0 
L 1319 0 
L 3059 4153 
L 903 4153 
L 903 3578 
L 538 3578 
L 538 4666 
L 3609 4666 
L 3609 4347 
z
" transform="scale(0.015625)"/>
        <path id="DejaVuSerif-39" d="M 2994 2091 
Q 2784 1856 2512 1740 
Q 2241 1625 1900 1625 
Q 1206 1625 804 2044 
Q 403 2463 403 3188 
Q 403 3897 839 4323 
Q 1275 4750 2003 4750 
Q 2794 4750 3217 4161 
Q 3641 3572 3641 2478 
Q 3641 1253 3137 581 
Q 2634 -91 1722 -91 
Q 1475 -91 1203 -44 
Q 931 3 647 97 
L 647 872 
L 997 872 
Q 1038 556 1241 387 
Q 1444 219 1784 219 
Q 2391 219 2687 676 
Q 2984 1134 2994 2091 
z
M 1978 4441 
Q 1534 4441 1298 4117 
Q 1063 3794 1063 3188 
Q 1063 2581 1298 2256 
Q 1534 1931 1978 1931 
Q 2422 1931 2658 2245 
Q 2894 2559 2894 3150 
Q 2894 3772 2656 4106 
Q 2419 4441 1978 4441 
z
" transform="scale(0.015625)"/>
        <path id="DejaVuSerif-35" d="M 3219 4666 
L 3219 4153 
L 1081 4153 
L 1081 2816 
Q 1244 2928 1461 2984 
Q 1678 3041 1947 3041 
Q 2703 3041 3140 2622 
Q 3578 2203 3578 1478 
Q 3578 738 3136 323 
Q 2694 -91 1894 -91 
Q 1572 -91 1234 -12 
Q 897 66 544 225 
L 544 1131 
L 897 1131 
Q 925 688 1179 453 
Q 1434 219 1894 219 
Q 2388 219 2653 544 
Q 2919 869 2919 1478 
Q 2919 2084 2655 2407 
Q 2391 2731 1894 2731 
Q 1613 2731 1398 2631 
Q 1184 2531 1019 2322 
L 750 2322 
L 750 4666 
L 3219 4666 
z
" transform="scale(0.015625)"/>
       </defs>
       <use xlink:href="#DejaVuSerif-2212"/>
       <use xlink:href="#DejaVuSerif-32" x="83.789062"/>
       <use xlink:href="#DejaVuSerif-2e" x="147.412109"/>
       <use xlink:href="#DejaVuSerif-37" x="179.199219"/>
       <use xlink:href="#DejaVuSerif-37" x="242.822266"/>
       <use xlink:href="#DejaVuSerif-39" x="306.445312"/>
       <use xlink:href="#DejaVuSerif-35" x="370.068359"/>
      </g>
     </g>
    </g>
    <g id="ytick_2">
     <g id="line2d_13">
      <path d="M 177.87 217.081437 
L 440.348584 217.081437 
" clip-path="url(#p9bcfe56a77)" style="fill: none; stroke-dasharray: 3.7,1.6; stroke-dashoffset: 0; stroke: #b0b0b0; stroke-opacity: 0.5"/>
     </g>
     <g id="line2d_14">
      <g>
       <use xlink:href="#m261f17518a" x="177.87" y="217.081437" style="stroke: #000000; stroke-width: 2"/>
      </g>
     </g>
     <g id="line2d_15">
      <g>
       <use xlink:href="#mc4db78fb2b" x="440.348584" y="217.081437" style="stroke: #000000; stroke-width: 2"/>
      </g>
     </g>
     <g id="text_6">
      <!-- −2.7790 -->
      <g transform="translate(61.607187 226.959406) scale(0.26 -0.26)">
       <use xlink:href="#DejaVuSerif-2212"/>
       <use xlink:href="#DejaVuSerif-32" x="83.789062"/>
       <use xlink:href="#DejaVuSerif-2e" x="147.412109"/>
       <use xlink:href="#DejaVuSerif-37" x="179.199219"/>
       <use xlink:href="#DejaVuSerif-37" x="242.822266"/>
       <use xlink:href="#DejaVuSerif-39" x="306.445312"/>
       <use xlink:href="#DejaVuSerif-30" x="370.068359"/>
      </g>
     </g>
    </g>
    <g id="ytick_3">
     <g id="line2d_16">
      <path d="M 177.87 130.008354 
L 440.348584 130.008354 
" clip-path="url(#p9bcfe56a77)" style="fill: none; stroke-dasharray: 3.7,1.6; stroke-dashoffset: 0; stroke: #b0b0b0; stroke-opacity: 0.5"/>
     </g>
     <g id="line2d_17">
      <g>
       <use xlink:href="#m261f17518a" x="177.87" y="130.008354" style="stroke: #000000; stroke-width: 2"/>
      </g>
     </g>
     <g id="line2d_18">
      <g>
       <use xlink:href="#mc4db78fb2b" x="440.348584" y="130.008354" style="stroke: #000000; stroke-width: 2"/>
      </g>
     </g>
     <g id="text_7">
      <!-- −2.7785 -->
      <g transform="translate(61.607187 139.886323) scale(0.26 -0.26)">
       <defs>
        <path id="DejaVuSerif-38" d="M 2981 1275 
Q 2981 1775 2732 2051 
Q 2484 2328 2034 2328 
Q 1584 2328 1336 2051 
Q 1088 1775 1088 1275 
Q 1088 772 1336 495 
Q 1584 219 2034 219 
Q 2484 219 2732 495 
Q 2981 772 2981 1275 
z
M 2853 3541 
Q 2853 3966 2637 4203 
Q 2422 4441 2034 4441 
Q 1650 4441 1433 4203 
Q 1216 3966 1216 3541 
Q 1216 3113 1433 2875 
Q 1650 2638 2034 2638 
Q 2422 2638 2637 2875 
Q 2853 3113 2853 3541 
z
M 2516 2484 
Q 3047 2413 3344 2092 
Q 3641 1772 3641 1275 
Q 3641 619 3225 264 
Q 2809 -91 2034 -91 
Q 1263 -91 845 264 
Q 428 619 428 1275 
Q 428 1772 725 2092 
Q 1022 2413 1556 2484 
Q 1084 2569 832 2842 
Q 581 3116 581 3541 
Q 581 4103 968 4426 
Q 1356 4750 2034 4750 
Q 2713 4750 3100 4426 
Q 3488 4103 3488 3541 
Q 3488 3116 3236 2842 
Q 2984 2569 2516 2484 
z
" transform="scale(0.015625)"/>
       </defs>
       <use xlink:href="#DejaVuSerif-2212"/>
       <use xlink:href="#DejaVuSerif-32" x="83.789062"/>
       <use xlink:href="#DejaVuSerif-2e" x="147.412109"/>
       <use xlink:href="#DejaVuSerif-37" x="179.199219"/>
       <use xlink:href="#DejaVuSerif-37" x="242.822266"/>
       <use xlink:href="#DejaVuSerif-38" x="306.445312"/>
       <use xlink:href="#DejaVuSerif-35" x="370.068359"/>
      </g>
     </g>
    </g>
    <g id="ytick_4">
     <g id="line2d_19">
      <path d="M 177.87 42.935271 
L 440.348584 42.935271 
" clip-path="url(#p9bcfe56a77)" style="fill: none; stroke-dasharray: 3.7,1.6; stroke-dashoffset: 0; stroke: #b0b0b0; stroke-opacity: 0.5"/>
     </g>
     <g id="line2d_20">
      <g>
       <use xlink:href="#m261f17518a" x="177.87" y="42.935271" style="stroke: #000000; stroke-width: 2"/>
      </g>
     </g>
     <g id="line2d_21">
      <g>
       <use xlink:href="#mc4db78fb2b" x="440.348584" y="42.935271" style="stroke: #000000; stroke-width: 2"/>
      </g>
     </g>
     <g id="text_8">
      <!-- −2.7780 -->
      <g transform="translate(61.607187 52.81324) scale(0.26 -0.26)">
       <use xlink:href="#DejaVuSerif-2212"/>
       <use xlink:href="#DejaVuSerif-32" x="83.789062"/>
       <use xlink:href="#DejaVuSerif-2e" x="147.412109"/>
       <use xlink:href="#DejaVuSerif-37" x="179.199219"/>
       <use xlink:href="#DejaVuSerif-37" x="242.822266"/>
       <use xlink:href="#DejaVuSerif-38" x="306.445312"/>
       <use xlink:href="#DejaVuSerif-30" x="370.068359"/>
      </g>
     </g>
    </g>
    <g id="text_9">
     <!-- $E(t)$ (a.u.) -->
     <g transform="translate(51.107187 251.919844) rotate(-90) scale(0.26 -0.26)">
      <defs>
       <path id="Cmmi10-45" d="M 300 0 
Q 238 0 238 84 
Q 241 100 250 139 
Q 259 178 276 201 
Q 294 225 319 225 
Q 709 225 863 269 
Q 947 297 984 441 
L 1863 3956 
Q 1875 4019 1875 4044 
Q 1875 4113 1797 4122 
Q 1678 4147 1338 4147 
Q 1275 4147 1275 4231 
Q 1278 4247 1287 4286 
Q 1297 4325 1314 4348 
Q 1331 4372 1356 4372 
L 4825 4372 
Q 4891 4372 4891 4288 
L 4738 2963 
Q 4738 2947 4714 2926 
Q 4691 2906 4672 2906 
L 4616 2906 
Q 4550 2906 4550 2988 
Q 4588 3300 4588 3450 
Q 4588 3706 4500 3848 
Q 4413 3991 4267 4053 
Q 4122 4116 3945 4131 
Q 3769 4147 3481 4147 
L 2753 4147 
Q 2578 4147 2522 4117 
Q 2466 4088 2419 3928 
L 2034 2381 
L 2534 2381 
Q 2859 2381 3025 2426 
Q 3191 2472 3287 2615 
Q 3384 2759 3463 3072 
Q 3469 3094 3486 3111 
Q 3503 3128 3525 3128 
L 3584 3128 
Q 3647 3128 3647 3047 
L 3250 1466 
Q 3238 1409 3188 1409 
L 3128 1409 
Q 3066 1409 3066 1491 
Q 3128 1747 3128 1869 
Q 3128 2056 2959 2106 
Q 2791 2156 2509 2156 
L 1978 2156 
L 1544 416 
Q 1516 338 1516 275 
Q 1516 225 1734 225 
L 2509 225 
Q 2972 225 3259 297 
Q 3547 369 3736 526 
Q 3925 684 4062 928 
Q 4200 1172 4397 1638 
Q 4409 1678 4453 1678 
L 4513 1678 
Q 4538 1678 4556 1656 
Q 4575 1634 4575 1606 
Q 4575 1594 4569 1581 
L 3909 38 
Q 3897 0 3859 0 
L 300 0 
z
" transform="scale(0.015625)"/>
       <path id="Cmr10-28" d="M 1984 -1588 
Q 1628 -1306 1370 -942 
Q 1113 -578 948 -165 
Q 784 247 703 697 
Q 622 1147 622 1600 
Q 622 2059 703 2509 
Q 784 2959 951 3375 
Q 1119 3791 1378 4153 
Q 1638 4516 1984 4788 
Q 1984 4800 2016 4800 
L 2075 4800 
Q 2094 4800 2109 4783 
Q 2125 4766 2125 4744 
Q 2125 4716 2113 4703 
Q 1800 4397 1592 4047 
Q 1384 3697 1257 3301 
Q 1131 2906 1075 2482 
Q 1019 2059 1019 1600 
Q 1019 -434 2106 -1491 
Q 2125 -1509 2125 -1544 
Q 2125 -1559 2108 -1579 
Q 2091 -1600 2075 -1600 
L 2016 -1600 
Q 1984 -1600 1984 -1588 
z
" transform="scale(0.015625)"/>
       <path id="Cmr10-29" d="M 416 -1600 
Q 359 -1600 359 -1544 
Q 359 -1516 372 -1503 
Q 1466 -434 1466 1600 
Q 1466 3634 384 4691 
Q 359 4706 359 4744 
Q 359 4766 376 4783 
Q 394 4800 416 4800 
L 475 4800 
Q 494 4800 506 4788 
Q 966 4425 1272 3906 
Q 1578 3388 1720 2800 
Q 1863 2213 1863 1600 
Q 1863 1147 1786 708 
Q 1709 269 1542 -157 
Q 1375 -584 1119 -945 
Q 863 -1306 506 -1588 
Q 494 -1600 475 -1600 
L 416 -1600 
z
" transform="scale(0.015625)"/>
      </defs>
      <use xlink:href="#Cmmi10-45" transform="translate(0 0.015625)"/>
      <use xlink:href="#Cmr10-28" transform="translate(73.779297 0.015625)"/>
      <use xlink:href="#Cmmi10-74" transform="translate(112.597656 0.015625)"/>
      <use xlink:href="#Cmr10-29" transform="translate(148.681641 0.015625)"/>
      <use xlink:href="#DejaVuSerif-20" transform="translate(187.5 0.015625)"/>
      <use xlink:href="#DejaVuSerif-28" transform="translate(219.287109 0.015625)"/>
      <use xlink:href="#DejaVuSerif-61" transform="translate(258.300781 0.015625)"/>
      <use xlink:href="#DejaVuSerif-2e" transform="translate(317.919922 0.015625)"/>
      <use xlink:href="#DejaVuSerif-75" transform="translate(349.707031 0.015625)"/>
      <use xlink:href="#DejaVuSerif-2e" transform="translate(414.111328 0.015625)"/>
      <use xlink:href="#DejaVuSerif-29" transform="translate(445.898438 0.015625)"/>
     </g>
    </g>
   </g>
   <g id="line2d_22">
    <path d="M 189.800845 57.73044 
L 190.0397 54.966508 
L 190.278556 62.638066 
L 190.517412 46.721974 
L 190.756268 65.190283 
L 190.995123 62.663608 
L 191.233979 65.118481 
L 191.711691 53.139848 
L 191.950546 63.82335 
L 192.189402 54.297658 
L 192.428258 56.354462 
L 192.667114 51.814179 
L 192.905969 66.644765 
L 193.144825 51.466217 
L 193.861392 71.674299 
L 194.100248 54.290413 
L 194.339104 74.472319 
L 194.57796 59.858793 
L 194.816815 68.475044 
L 195.055671 69.326767 
L 195.294527 69.529767 
L 195.533383 72.978232 
L 195.772238 60.643089 
L 196.011094 71.050683 
L 196.24995 67.336067 
L 196.488806 74.658562 
L 196.727661 58.097126 
L 196.966517 78.060926 
L 197.444229 61.91363 
L 197.683084 62.172431 
L 197.92194 61.814907 
L 198.160796 76.660914 
L 198.399652 60.839976 
L 198.638507 82.410282 
L 198.877363 64.092312 
L 199.116219 79.287741 
L 199.355075 70.050991 
L 199.593931 75.395193 
L 199.832786 83.234997 
L 200.310498 72.372368 
L 200.549354 72.852965 
L 200.788209 67.270227 
L 201.027065 77.481628 
L 201.265921 80.071953 
L 201.504777 80.907638 
L 201.743632 75.128975 
L 201.982488 74.844571 
L 202.221344 75.69004 
L 202.4602 85.372707 
L 202.699055 77.570736 
L 202.937911 81.713744 
L 203.415623 68.622568 
L 203.654478 73.689276 
L 203.893334 83.394955 
L 204.13219 87.587392 
L 204.371046 76.595146 
L 204.609901 83.661452 
L 204.848757 75.090966 
L 205.087613 82.361137 
L 205.326469 84.506701 
L 205.565324 81.325349 
L 205.80418 85.819052 
L 206.281892 79.068537 
L 206.520747 80.282302 
L 206.759603 78.54851 
L 206.998459 90.841301 
L 207.237315 90.208387 
L 207.47617 83.756264 
L 207.715026 83.686682 
L 207.953882 78.090477 
L 208.431593 74.390334 
L 208.670449 79.686866 
L 208.909305 89.456071 
L 209.625872 81.835208 
L 209.864728 83.911212 
L 210.103584 95.086778 
L 210.342439 87.862548 
L 210.581295 91.591315 
L 210.820151 91.856502 
L 211.059007 75.306732 
L 211.297862 82.233102 
L 211.536718 76.597441 
L 211.775574 92.925191 
L 212.01443 77.748042 
L 212.253285 92.512862 
L 212.492141 83.336216 
L 212.730997 80.758434 
L 212.969853 81.66519 
L 213.208708 87.576515 
L 213.447564 79.775472 
L 213.925276 97.295034 
L 214.164131 88.069756 
L 214.402987 92.869933 
L 214.641843 78.337614 
L 214.880699 95.862153 
L 215.119554 90.969167 
L 215.35841 82.583098 
L 215.597266 99.594057 
L 215.836122 87.517159 
L 216.074977 99.955289 
L 216.313833 88.756128 
L 216.552689 89.943791 
L 216.791545 85.157898 
L 217.0304 97.281595 
L 217.269256 93.672857 
L 217.508112 101.139475 
L 217.746968 93.057147 
L 217.985823 98.622727 
L 218.224679 95.111052 
L 218.463535 87.621647 
L 218.702391 96.10396 
L 218.941246 97.862959 
L 219.418958 90.857626 
L 219.657814 97.51571 
L 219.896669 99.493757 
L 220.135525 98.477502 
L 220.613237 91.972565 
L 220.852092 97.289819 
L 221.090948 95.714054 
L 221.329804 97.807972 
L 221.56866 94.364973 
L 221.807515 94.809946 
L 222.046371 99.46122 
L 222.285227 95.37971 
L 222.524083 95.908713 
L 222.762938 91.71603 
L 223.001794 90.717001 
L 223.24065 99.534234 
L 223.479506 94.823641 
L 223.718361 100.098805 
L 223.957217 96.981611 
L 224.196073 103.777742 
L 224.434929 93.623325 
L 224.673784 102.812203 
L 224.91264 102.880195 
L 225.151496 97.503935 
L 225.390352 98.268623 
L 225.629207 103.620458 
L 225.868063 106.309793 
L 226.106919 99.089521 
L 226.345775 108.887677 
L 226.58463 104.357792 
L 226.823486 105.465886 
L 227.062342 103.102535 
L 227.301198 113.661852 
L 227.540053 111.028924 
L 227.778909 103.085274 
L 228.017765 106.995462 
L 228.256621 113.163422 
L 228.495476 104.892962 
L 228.734332 112.044021 
L 228.973188 101.379674 
L 229.212044 113.537946 
L 229.450899 109.875873 
L 229.689755 103.291985 
L 229.928611 114.112189 
L 230.167467 106.992387 
L 230.406322 116.066555 
L 230.645178 108.399261 
L 230.884034 108.136836 
L 231.12289 113.622495 
L 231.361745 103.914439 
L 231.600601 112.769906 
L 231.839457 97.319027 
L 232.078313 96.678575 
L 232.556024 109.72847 
L 232.79488 113.011148 
L 233.033736 96.258924 
L 233.272591 114.714606 
L 233.511447 115.846845 
L 233.750303 114.783588 
L 233.989159 103.492219 
L 234.228014 106.322849 
L 234.46687 118.308069 
L 234.705726 112.050436 
L 234.944582 113.484992 
L 235.183437 116.956472 
L 235.422293 104.179282 
L 235.661149 107.94353 
L 235.900005 114.496065 
L 236.377716 118.805793 
L 236.616572 102.337956 
L 236.855428 101.692947 
L 237.094283 111.241162 
L 237.333139 100.011616 
L 237.571995 112.062158 
L 237.810851 107.450473 
L 238.049706 112.295387 
L 238.288562 99.516521 
L 238.766274 117.941897 
L 239.005129 103.700159 
L 239.243985 115.752235 
L 239.482841 100.606449 
L 239.960552 116.951077 
L 240.438264 107.797045 
L 240.915975 121.221238 
L 241.154831 117.175588 
L 241.632543 114.957579 
L 241.871398 105.564985 
L 242.110254 108.843269 
L 242.34911 105.999907 
L 242.587966 119.869577 
L 242.826821 114.722087 
L 243.065677 116.382782 
L 243.304533 112.316238 
L 243.543389 119.380916 
L 243.782244 110.321762 
L 244.259956 113.068822 
L 244.498812 120.620227 
L 244.737667 106.08562 
L 244.976523 113.196126 
L 245.215379 111.976241 
L 245.454235 115.782394 
L 245.69309 113.119558 
L 245.931946 118.676365 
L 246.170802 108.231287 
L 246.409658 110.171443 
L 246.648513 119.385118 
L 246.887369 111.261113 
L 247.126225 110.998748 
L 247.365081 115.061815 
L 247.603936 122.991076 
L 247.842792 115.230779 
L 248.081648 115.893856 
L 248.320504 113.613145 
L 248.559359 124.259834 
L 248.798215 125.950601 
L 249.275927 118.499455 
L 249.514782 110.132112 
L 249.753638 118.129124 
L 249.992494 122.194075 
L 250.23135 116.879134 
L 250.470205 119.191382 
L 250.709061 128.142894 
L 250.947917 121.750816 
L 251.425628 119.484585 
L 251.664484 120.385094 
L 251.90334 120.179107 
L 252.381051 125.932314 
L 252.619907 124.512863 
L 252.858763 127.060499 
L 253.097619 114.711402 
L 253.336474 129.177344 
L 253.57533 117.635881 
L 253.814186 133.561822 
L 254.053042 133.004292 
L 254.291897 131.580229 
L 254.530753 121.13953 
L 254.769609 129.791894 
L 255.008465 118.733189 
L 255.24732 131.90633 
L 255.486176 134.094373 
L 255.725032 126.167468 
L 255.963888 124.821979 
L 256.202743 122.752353 
L 256.441599 136.008314 
L 256.680455 135.735496 
L 256.919311 119.196561 
L 257.158166 122.218719 
L 257.397022 137.216038 
L 257.635878 121.361649 
L 258.113589 128.756041 
L 258.352445 123.24146 
L 258.591301 136.279062 
L 258.830157 135.214399 
L 259.069012 124.018451 
L 259.307868 122.037147 
L 259.546724 139.879712 
L 259.78558 125.169431 
L 260.024435 136.490527 
L 260.263291 138.278819 
L 260.502147 130.089842 
L 260.741003 126.28001 
L 261.218714 132.038326 
L 261.45757 140.077263 
L 261.696426 129.378339 
L 261.935281 132.235173 
L 262.174137 132.338254 
L 262.412993 139.636085 
L 262.651849 125.381298 
L 262.890704 142.690007 
L 263.12956 140.629406 
L 263.368416 130.873705 
L 263.846127 142.801792 
L 264.084983 141.923194 
L 264.323839 134.354562 
L 264.562695 140.591219 
L 264.80155 141.146377 
L 265.040406 138.058936 
L 265.279262 139.751204 
L 265.518118 139.228322 
L 265.756973 140.754268 
L 265.995829 144.411876 
L 266.234685 136.83326 
L 266.473541 143.166194 
L 266.712396 136.36057 
L 266.951252 143.77211 
L 267.428964 140.569199 
L 267.667819 135.386274 
L 268.145531 147.197362 
L 268.384387 135.329743 
L 268.623242 137.484528 
L 268.862098 135.006629 
L 269.33981 142.747581 
L 269.578665 151.282215 
L 270.056377 138.025654 
L 270.534088 153.367283 
L 270.772944 146.932803 
L 271.0118 145.816963 
L 271.250656 153.010717 
L 271.728367 140.355667 
L 271.967223 153.71552 
L 272.206079 142.234326 
L 272.444934 137.625358 
L 272.68379 155.30753 
L 272.922646 144.169739 
L 273.161502 148.197672 
L 273.400357 144.32853 
L 273.639213 145.540221 
L 273.878069 152.186495 
L 274.116925 142.879381 
L 274.35578 140.343127 
L 274.594636 141.977757 
L 274.833492 140.929595 
L 275.072348 156.106334 
L 275.311203 142.475862 
L 275.550059 154.567846 
L 275.788915 153.752504 
L 276.027771 153.644562 
L 276.266626 145.736078 
L 276.505482 153.750072 
L 276.744338 147.76304 
L 276.983194 148.945924 
L 277.222049 155.674186 
L 277.460905 148.625661 
L 277.699761 154.643776 
L 277.938617 147.277878 
L 278.177472 147.076739 
L 278.416328 158.792552 
L 278.655184 156.414423 
L 278.89404 148.38667 
L 279.132895 144.203506 
L 279.371751 156.852538 
L 279.610607 149.371671 
L 279.849463 159.421517 
L 280.088318 160.773661 
L 280.327174 151.955145 
L 280.56603 153.678361 
L 280.804886 149.993081 
L 281.282597 155.76732 
L 281.521453 150.209344 
L 281.760309 148.912051 
L 281.999164 165.369915 
L 282.23802 160.768607 
L 282.476876 146.21643 
L 282.715732 165.878165 
L 282.954587 153.48126 
L 283.193443 162.098864 
L 283.432299 151.102385 
L 283.671155 165.082972 
L 283.91001 147.734518 
L 284.148866 157.131256 
L 284.626578 165.279366 
L 284.865433 152.223586 
L 285.104289 148.109726 
L 285.343145 156.924158 
L 285.582001 159.235202 
L 285.820856 148.3358 
L 286.059712 149.307371 
L 286.537424 158.714337 
L 286.776279 157.569232 
L 287.015135 159.604176 
L 287.492847 168.793703 
L 287.970558 156.068084 
L 288.209414 161.499981 
L 288.44827 164.319073 
L 288.687125 152.09828 
L 288.925981 169.069383 
L 289.164837 161.411302 
L 289.403693 166.513591 
L 289.642548 158.613893 
L 289.881404 170.932277 
L 290.12026 164.875154 
L 290.359116 165.073004 
L 290.597971 173.286162 
L 290.836827 172.908527 
L 291.075683 165.091854 
L 291.314539 162.961397 
L 291.553394 166.157618 
L 291.79225 170.951813 
L 292.031106 162.667306 
L 292.269962 171.305137 
L 292.508817 173.486322 
L 292.747673 164.486678 
L 292.986529 171.893577 
L 293.225385 170.144253 
L 293.46424 171.464581 
L 293.703096 179.201872 
L 293.941952 159.30997 
L 294.419663 173.549002 
L 294.658519 167.102347 
L 294.897375 178.407068 
L 295.136231 175.778545 
L 295.375086 181.736285 
L 295.852798 163.879271 
L 296.091654 180.22885 
L 296.330509 168.822283 
L 296.569365 179.896434 
L 296.808221 165.338112 
L 297.047077 170.206136 
L 297.285932 180.253526 
L 297.524788 176.433739 
L 297.763644 184.644868 
L 298.0025 175.256655 
L 298.241355 181.922443 
L 298.480211 181.456813 
L 298.719067 172.806002 
L 298.957923 177.073972 
L 299.196778 172.26853 
L 299.435634 173.387075 
L 299.913346 183.909715 
L 300.152201 180.556446 
L 300.391057 169.990002 
L 300.629913 169.42245 
L 300.868769 175.739123 
L 301.107624 175.198388 
L 301.34648 187.301246 
L 301.585336 186.786706 
L 301.824192 180.656057 
L 302.063047 181.841841 
L 302.301903 184.779706 
L 302.540759 182.107082 
L 302.779615 181.366293 
L 303.01847 181.326814 
L 303.257326 181.95261 
L 303.496182 176.113554 
L 303.735038 181.11187 
L 303.973893 189.753907 
L 304.212749 173.246286 
L 304.451605 192.213789 
L 304.690461 183.526546 
L 304.929316 181.389709 
L 305.168172 190.456649 
L 305.407028 179.20065 
L 305.645884 190.581851 
L 305.884739 183.104103 
L 306.123595 183.000576 
L 306.362451 186.956378 
L 306.601307 178.953077 
L 306.840162 184.131654 
L 307.317874 187.05177 
L 307.55673 192.381572 
L 307.795585 190.421676 
L 308.034441 182.059672 
L 308.512153 191.36173 
L 308.751008 189.224219 
L 308.989864 184.458905 
L 309.22872 188.221833 
L 309.467576 188.057861 
L 309.706431 188.291019 
L 309.945287 189.751201 
L 310.422999 179.14293 
L 310.661854 193.075327 
L 310.90071 191.966711 
L 311.139566 185.812748 
L 311.378422 191.651264 
L 311.856133 189.246717 
L 312.094989 185.31856 
L 312.333845 183.32757 
L 312.5727 182.335947 
L 312.811556 187.766827 
L 313.289268 193.763713 
L 313.528123 199.040744 
L 313.766979 199.313143 
L 314.005835 182.94622 
L 314.244691 183.773733 
L 314.483546 197.29201 
L 314.961258 188.474773 
L 315.200114 195.824886 
L 315.438969 192.773346 
L 315.677825 182.020768 
L 315.916681 186.814347 
L 316.155537 200.397616 
L 316.394392 197.030187 
L 316.633248 189.091953 
L 316.872104 200.006768 
L 317.11096 197.799122 
L 317.349815 197.52909 
L 317.827527 189.560385 
L 318.066383 192.103177 
L 318.305238 188.846645 
L 318.544094 195.232498 
L 318.78295 195.516823 
L 319.021806 202.379333 
L 319.260661 194.427582 
L 319.499517 198.985954 
L 319.738373 189.230033 
L 319.977229 197.263392 
L 320.216084 196.659646 
L 320.693796 204.119811 
L 320.932652 202.320528 
L 321.171507 208.961173 
L 321.410363 189.081466 
L 321.649219 204.670389 
L 321.888075 199.30228 
L 322.12693 207.617184 
L 322.365786 202.643213 
L 322.604642 203.21775 
L 322.843498 210.35079 
L 323.082353 202.148198 
L 323.321209 203.987097 
L 323.560065 204.429364 
L 323.798921 195.962567 
L 324.037776 204.931562 
L 324.276632 193.408225 
L 324.515488 205.838232 
L 324.754344 202.204965 
L 324.993199 201.343385 
L 325.470911 192.410149 
L 325.709767 205.911026 
L 325.948622 210.439445 
L 326.187478 210.144238 
L 326.426334 198.576919 
L 326.66519 207.938153 
L 327.142901 195.198011 
L 327.381757 199.109416 
L 327.620613 211.145741 
L 327.859468 204.313259 
L 328.098324 209.730512 
L 328.33718 212.374949 
L 328.576036 213.59247 
L 328.814891 210.733492 
L 329.053747 212.692545 
L 329.292603 204.553102 
L 329.531459 215.928649 
L 329.770314 214.579455 
L 330.248026 202.676417 
L 330.486882 204.681517 
L 330.725737 210.716413 
L 330.964593 209.504516 
L 331.203449 215.803583 
L 331.442305 203.129008 
L 331.68116 209.161845 
L 331.920016 212.296173 
L 332.397728 205.1631 
L 332.636583 218.923754 
L 332.875439 202.589623 
L 333.114295 204.424126 
L 333.353151 217.028485 
L 333.592006 218.360823 
L 333.830862 217.686804 
L 334.069718 198.058649 
L 334.308574 201.332392 
L 334.547429 206.637105 
L 334.786285 217.931355 
L 335.025141 213.136038 
L 335.263997 205.548966 
L 335.502852 218.476983 
L 335.741708 219.603426 
L 335.980564 210.692331 
L 336.21942 215.443108 
L 336.458275 207.282097 
L 336.697131 207.69565 
L 336.935987 204.774783 
L 337.174843 218.272246 
L 337.413698 210.271883 
L 337.89141 212.213195 
L 338.130266 217.917089 
L 338.369121 218.259759 
L 338.607977 212.903463 
L 338.846833 219.145781 
L 339.085689 214.304584 
L 339.324544 213.519912 
L 339.5634 220.004581 
L 339.802256 218.311222 
L 340.041112 219.994758 
L 340.279967 219.423283 
L 340.518823 219.659968 
L 340.996535 226.676635 
L 341.23539 214.762341 
L 341.713102 226.841144 
L 341.951958 221.88989 
L 342.190813 225.114111 
L 342.429669 224.934032 
L 342.668525 217.188682 
L 342.907381 225.318848 
L 343.146236 220.290763 
L 343.385092 212.782737 
L 343.862804 228.208564 
L 344.10166 224.806945 
L 344.340515 223.752756 
L 344.579371 218.176636 
L 345.057083 221.164569 
L 345.534794 224.542122 
L 345.77365 215.684403 
L 346.012506 227.726989 
L 346.251361 214.945356 
L 346.490217 219.064004 
L 346.729073 226.384968 
L 347.206784 215.949624 
L 347.44564 224.051358 
L 347.684496 224.004757 
L 347.923352 222.244601 
L 348.162207 226.606837 
L 348.401063 225.587228 
L 348.639919 227.676713 
L 348.878775 220.595983 
L 349.11763 223.610346 
L 349.356486 222.133552 
L 349.595342 230.034551 
L 349.834198 225.990508 
L 350.073053 229.348308 
L 350.550765 221.144736 
L 350.789621 229.532739 
L 351.028476 228.026532 
L 351.267332 219.613207 
L 351.506188 221.653652 
L 351.745044 227.190732 
L 351.983899 220.320742 
L 352.222755 223.231862 
L 352.461611 234.142149 
L 352.700467 234.535961 
L 352.939322 236.45806 
L 353.178178 230.389454 
L 353.417034 218.870618 
L 353.65589 223.509592 
L 353.894745 236.174279 
L 354.133601 227.6124 
L 354.611313 226.922683 
L 354.850168 228.832431 
L 355.089024 234.81249 
L 355.32788 230.514345 
L 355.566736 221.020029 
L 355.805591 237.83317 
L 356.044447 229.97052 
L 356.283303 230.061633 
L 356.522159 231.854664 
L 356.761014 230.055389 
L 356.99987 231.675776 
L 357.477582 238.331976 
L 357.716437 242.476106 
L 357.955293 232.609568 
L 358.194149 243.619913 
L 358.67186 238.231622 
L 358.910716 239.002103 
L 359.149572 240.330016 
L 359.388428 243.545414 
L 359.627283 233.800148 
L 359.866139 231.859547 
L 360.104995 228.290142 
L 360.343851 232.748082 
L 360.582706 234.151612 
L 360.821562 238.263229 
L 361.060418 236.22456 
L 361.299274 237.882397 
L 361.538129 244.031827 
L 361.776985 238.374766 
L 362.015841 240.579394 
L 362.254697 237.36313 
L 362.493552 242.914393 
L 362.732408 244.220333 
L 362.971264 242.183178 
L 363.21012 247.659472 
L 363.448975 247.431064 
L 363.687831 250.590628 
L 363.926687 233.836883 
L 364.165543 243.788496 
L 364.404398 248.830538 
L 364.643254 241.445739 
L 364.88211 249.144425 
L 365.359821 254.67919 
L 365.598677 253.836527 
L 365.837533 246.935198 
L 366.076389 248.149135 
L 366.315244 252.328729 
L 366.5541 248.526682 
L 366.792956 258.558927 
L 367.031812 244.162286 
L 367.270667 242.290244 
L 367.509523 256.294373 
L 367.748379 256.556938 
L 367.987235 243.370319 
L 368.22609 255.698832 
L 368.464946 246.686853 
L 368.703802 255.145972 
L 368.942658 257.517747 
L 369.181513 255.516359 
L 369.420369 243.473671 
L 369.659225 254.808151 
L 369.898081 250.207855 
L 370.136936 253.181016 
L 370.375792 261.46765 
L 370.614648 252.483361 
L 370.853504 260.633993 
L 371.092359 254.044029 
L 371.331215 256.477014 
L 371.570071 261.637014 
L 371.808927 248.291824 
L 372.286638 262.136616 
L 372.525494 258.844032 
L 372.76435 264.350502 
L 373.003205 261.946919 
L 373.242061 250.36296 
L 373.480917 256.915298 
L 373.719773 257.251252 
L 373.958628 263.779083 
L 374.197484 263.341678 
L 374.43634 257.251458 
L 374.675196 257.775966 
L 374.914051 253.232637 
L 375.152907 266.616921 
L 375.391763 254.462976 
L 375.630619 262.173564 
L 375.869474 264.052264 
L 376.10833 252.275788 
L 376.586042 263.631349 
L 376.824897 255.683624 
L 377.063753 253.206012 
L 377.541465 262.498401 
L 377.78032 258.383196 
L 378.019176 264.731077 
L 378.258032 254.189428 
L 378.496888 262.740647 
L 378.735743 267.189622 
L 378.974599 263.497322 
L 379.213455 270.039637 
L 379.452311 268.051736 
L 379.691166 261.35044 
L 379.930022 272.989134 
L 380.168878 275.486441 
L 380.646589 262.533659 
L 380.885445 266.95006 
L 381.124301 262.629711 
L 381.602012 266.11194 
L 381.840868 274.82619 
L 382.079724 274.790792 
L 382.31858 270.191053 
L 382.557435 275.943322 
L 382.796291 271.890282 
L 383.035147 276.212874 
L 383.274003 257.547691 
L 383.512858 276.069683 
L 383.751714 268.190708 
L 383.99057 267.800029 
L 384.229426 270.790283 
L 384.468281 266.393173 
L 384.707137 271.301248 
L 384.945993 271.00109 
L 385.184849 273.088882 
L 385.423704 278.047793 
L 385.66256 268.075423 
L 385.901416 275.846781 
L 386.140272 274.959223 
L 386.379127 272.935777 
L 386.617983 268.544429 
L 386.856839 280.304121 
L 387.095695 277.736338 
L 387.33455 269.871336 
L 387.573406 268.951179 
L 387.812262 270.610439 
L 388.051118 269.036385 
L 388.289973 266.158162 
L 388.528829 276.714213 
L 388.767685 280.139771 
L 389.006541 269.936995 
L 389.245396 279.628214 
L 389.484252 284.536476 
L 389.723108 283.518511 
L 389.961964 281.72655 
L 390.439675 273.618542 
L 390.678531 287.692438 
L 390.917387 286.238787 
L 391.156242 281.591626 
L 391.395098 286.436799 
L 391.633954 282.797283 
L 391.87281 273.14205 
L 392.111665 281.619809 
L 392.350521 275.325996 
L 392.589377 282.444542 
L 392.828233 281.173319 
L 393.067088 281.946603 
L 393.305944 282.080677 
L 393.5448 280.065643 
L 393.783656 282.903383 
L 394.022511 283.343349 
L 394.261367 281.58493 
L 394.500223 282.580116 
L 394.739079 286.231939 
L 394.977934 282.8798 
L 395.21679 290.623664 
L 395.455646 285.410349 
L 395.694502 295.061264 
L 395.933357 286.57172 
L 396.172213 295.835151 
L 396.411069 295.066018 
L 396.649925 291.473209 
L 396.88878 283.732589 
L 397.127636 289.309691 
L 397.366492 283.575891 
L 397.605348 281.999924 
L 397.844203 278.170721 
L 398.083059 289.619368 
L 398.321915 289.374008 
L 398.560771 291.371552 
L 398.799626 288.305815 
L 399.038482 282.116068 
L 399.277338 280.744608 
L 399.516194 281.682031 
L 399.993905 291.909367 
L 400.232761 287.521367 
L 400.471617 290.943824 
L 400.710472 290.732361 
L 400.949328 290.263956 
L 401.188184 292.106372 
L 401.42704 283.659003 
L 401.665895 297.053564 
L 401.904751 282.542575 
L 402.143607 284.201096 
L 402.382463 294.955868 
L 402.621318 283.022926 
L 403.09903 289.039571 
L 403.337886 290.449266 
L 403.576741 299.751264 
L 403.815597 290.410736 
L 404.054453 294.690344 
L 404.293309 302.830018 
L 404.532164 292.732359 
L 404.77102 296.730426 
L 405.009876 288.874946 
L 405.248732 302.40303 
L 405.487587 284.139036 
L 405.726443 305.38173 
L 405.965299 295.649605 
L 406.204155 291.128738 
L 406.44301 307.078227 
L 406.681866 290.720466 
L 406.920722 299.888745 
L 407.159578 292.682559 
L 407.398433 303.666363 
L 407.637289 301.847255 
L 407.876145 303.500018 
L 408.115001 301.092534 
L 408.353856 297.498399 
L 408.592712 295.92989 
L 408.831568 299.710218 
L 409.070424 307.887287 
L 409.309279 306.890191 
L 409.548135 305.395632 
L 409.786991 306.868821 
L 410.025847 294.927159 
L 410.264702 310.016759 
L 410.503558 299.764433 
L 410.742414 303.459642 
L 410.98127 304.128596 
L 411.220125 310.232269 
L 411.458981 307.390298 
L 411.697837 301.786787 
L 411.936693 302.158327 
L 412.175548 303.511606 
L 412.65326 317.865509 
L 412.892116 317.6322 
L 413.130971 313.289431 
L 413.369827 302.481863 
L 413.608683 314.434044 
L 413.847539 309.064657 
L 414.086394 307.029083 
L 414.32525 312.972565 
L 414.564106 314.059905 
L 415.041817 306.172696 
L 415.280673 314.571677 
L 415.519529 313.648306 
L 415.758385 318.872932 
L 415.99724 318.104508 
L 416.236096 303.580541 
L 416.952663 311.473103 
L 417.191519 309.196984 
L 417.430375 318.072981 
L 417.669231 307.714812 
L 417.908086 318.684602 
L 418.385798 309.530421 
L 418.624654 317.924971 
L 418.863509 318.781472 
L 419.102365 304.831046 
L 419.341221 322.487134 
L 419.580077 317.501093 
L 419.818932 310.024474 
L 420.057788 323.578064 
L 420.296644 306.143646 
L 420.5355 312.116923 
L 420.774355 309.820322 
L 421.013211 314.764011 
L 421.490923 306.731513 
L 421.729778 326.091332 
L 421.968634 319.765717 
L 422.20749 318.224314 
L 422.446346 313.249372 
L 422.685201 315.561128 
L 422.924057 322.851862 
L 423.162913 308.511854 
L 423.401769 323.046055 
L 423.640624 323.79917 
L 423.87948 321.341833 
L 424.118336 324.920854 
L 424.357192 318.100031 
L 424.596047 317.408185 
L 424.834903 318.57574 
L 425.073759 322.907819 
L 425.55147 307.116567 
L 425.790326 316.78424 
L 426.029182 321.417307 
L 426.268038 309.05068 
L 426.506893 317.306708 
L 426.745749 331.017713 
L 426.984605 310.512986 
L 427.223461 324.473788 
L 427.462316 329.284216 
L 427.701172 315.391888 
L 427.940028 316.383593 
L 428.178884 322.574855 
L 428.417739 318.871718 
L 428.417739 318.871718 
" clip-path="url(#p9bcfe56a77)" style="fill: none; stroke: #1f77b4; stroke-width: 3; stroke-linecap: square"/>
   </g>
   <g id="patch_3">
    <path d="M 177.87 345.2325 
L 177.87 32.507187 
" style="fill: none; stroke: #000000; stroke-width: 2; stroke-linejoin: miter; stroke-linecap: square"/>
   </g>
   <g id="patch_4">
    <path d="M 440.348584 345.2325 
L 440.348584 32.507187 
" style="fill: none; stroke: #000000; stroke-width: 2; stroke-linejoin: miter; stroke-linecap: square"/>
   </g>
   <g id="patch_5">
    <path d="M 177.87 345.2325 
L 440.348584 345.2325 
" style="fill: none; stroke: #000000; stroke-width: 2; stroke-linejoin: miter; stroke-linecap: square"/>
   </g>
   <g id="patch_6">
    <path d="M 177.87 32.507187 
L 440.348584 32.507187 
" style="fill: none; stroke: #000000; stroke-width: 2; stroke-linejoin: miter; stroke-linecap: square"/>
   </g>
  </g>
  <g id="axes_2">
   <g id="patch_7">
    <path d="M 573.441416 345.2325 
L 835.92 345.2325 
L 835.92 32.507187 
L 573.441416 32.507187 
z
" style="fill: #ffffff"/>
   </g>
   <g id="matplotlib.axis_3">
    <g id="xtick_4">
     <g id="line2d_23">
      <path d="M 585.372261 345.2325 
L 585.372261 32.507187 
" clip-path="url(#p6fb18a77e6)" style="fill: none; stroke-dasharray: 3.7,1.6; stroke-dashoffset: 0; stroke: #b0b0b0; stroke-opacity: 0.5"/>
     </g>
     <g id="line2d_24">
      <g>
       <use xlink:href="#md152b8f3b0" x="585.372261" y="345.2325" style="stroke: #000000; stroke-width: 2"/>
      </g>
     </g>
     <g id="line2d_25">
      <g>
       <use xlink:href="#m0fad808636" x="585.372261" y="32.507187" style="stroke: #000000; stroke-width: 2"/>
      </g>
     </g>
     <g id="text_10">
      <!-- 0 -->
      <g transform="translate(577.101011 368.488437) scale(0.26 -0.26)">
       <use xlink:href="#DejaVuSerif-30"/>
      </g>
     </g>
    </g>
    <g id="xtick_5">
     <g id="line2d_26">
      <path d="M 680.819018 345.2325 
L 680.819018 32.507187 
" clip-path="url(#p6fb18a77e6)" style="fill: none; stroke-dasharray: 3.7,1.6; stroke-dashoffset: 0; stroke: #b0b0b0; stroke-opacity: 0.5"/>
     </g>
     <g id="line2d_27">
      <g>
       <use xlink:href="#md152b8f3b0" x="680.819018" y="345.2325" style="stroke: #000000; stroke-width: 2"/>
      </g>
     </g>
     <g id="line2d_28">
      <g>
       <use xlink:href="#m0fad808636" x="680.819018" y="32.507187" style="stroke: #000000; stroke-width: 2"/>
      </g>
     </g>
     <g id="text_11">
      <!-- 10000 -->
      <g transform="translate(639.462768 368.488437) scale(0.26 -0.26)">
       <use xlink:href="#DejaVuSerif-31"/>
       <use xlink:href="#DejaVuSerif-30" x="63.623047"/>
       <use xlink:href="#DejaVuSerif-30" x="127.246094"/>
       <use xlink:href="#DejaVuSerif-30" x="190.869141"/>
       <use xlink:href="#DejaVuSerif-30" x="254.492188"/>
      </g>
     </g>
    </g>
    <g id="xtick_6">
     <g id="line2d_29">
      <path d="M 776.265776 345.2325 
L 776.265776 32.507187 
" clip-path="url(#p6fb18a77e6)" style="fill: none; stroke-dasharray: 3.7,1.6; stroke-dashoffset: 0; stroke: #b0b0b0; stroke-opacity: 0.5"/>
     </g>
     <g id="line2d_30">
      <g>
       <use xlink:href="#md152b8f3b0" x="776.265776" y="345.2325" style="stroke: #000000; stroke-width: 2"/>
      </g>
     </g>
     <g id="line2d_31">
      <g>
       <use xlink:href="#m0fad808636" x="776.265776" y="32.507187" style="stroke: #000000; stroke-width: 2"/>
      </g>
     </g>
     <g id="text_12">
      <!-- 20000 -->
      <g transform="translate(734.909526 368.488437) scale(0.26 -0.26)">
       <use xlink:href="#DejaVuSerif-32"/>
       <use xlink:href="#DejaVuSerif-30" x="63.623047"/>
       <use xlink:href="#DejaVuSerif-30" x="127.246094"/>
       <use xlink:href="#DejaVuSerif-30" x="190.869141"/>
       <use xlink:href="#DejaVuSerif-30" x="254.492188"/>
      </g>
     </g>
    </g>
    <g id="text_13">
     <!-- $t$ (a.u.) -->
     <g transform="translate(661.260708 397.651563) scale(0.26 -0.26)">
      <use xlink:href="#Cmmi10-74" transform="translate(0 0.015625)"/>
      <use xlink:href="#DejaVuSerif-20" transform="translate(36.083984 0.015625)"/>
      <use xlink:href="#DejaVuSerif-28" transform="translate(67.871094 0.015625)"/>
      <use xlink:href="#DejaVuSerif-61" transform="translate(106.884766 0.015625)"/>
      <use xlink:href="#DejaVuSerif-2e" transform="translate(166.503906 0.015625)"/>
      <use xlink:href="#DejaVuSerif-75" transform="translate(198.291016 0.015625)"/>
      <use xlink:href="#DejaVuSerif-2e" transform="translate(262.695312 0.015625)"/>
      <use xlink:href="#DejaVuSerif-29" transform="translate(294.482422 0.015625)"/>
     </g>
    </g>
   </g>
   <g id="matplotlib.axis_4">
    <g id="ytick_5">
     <g id="line2d_32">
      <path d="M 573.441416 331.017713 
L 835.92 331.017713 
" clip-path="url(#p6fb18a77e6)" style="fill: none; stroke-dasharray: 3.7,1.6; stroke-dashoffset: 0; stroke: #b0b0b0; stroke-opacity: 0.5"/>
     </g>
     <g id="line2d_33">
      <g>
       <use xlink:href="#m261f17518a" x="573.441416" y="331.017713" style="stroke: #000000; stroke-width: 2"/>
      </g>
     </g>
     <g id="line2d_34">
      <g>
       <use xlink:href="#mc4db78fb2b" x="835.92" y="331.017713" style="stroke: #000000; stroke-width: 2"/>
      </g>
     </g>
     <g id="text_14">
      <!-- $\mathdefault{0}$ -->
      <g transform="translate(553.301416 340.895682) scale(0.26 -0.26)">
       <use xlink:href="#DejaVuSerif-30" transform="translate(0 0.78125)"/>
      </g>
     </g>
    </g>
    <g id="ytick_6">
     <g id="line2d_35">
      <path d="M 573.441416 290.844586 
L 835.92 290.844586 
" clip-path="url(#p6fb18a77e6)" style="fill: none; stroke-dasharray: 3.7,1.6; stroke-dashoffset: 0; stroke: #b0b0b0; stroke-opacity: 0.5"/>
     </g>
     <g id="line2d_36">
      <g>
       <use xlink:href="#m261f17518a" x="573.441416" y="290.844586" style="stroke: #000000; stroke-width: 2"/>
      </g>
     </g>
     <g id="line2d_37">
      <g>
       <use xlink:href="#mc4db78fb2b" x="835.92" y="290.844586" style="stroke: #000000; stroke-width: 2"/>
      </g>
     </g>
     <g id="text_15">
      <!-- $\mathdefault{10^{-10}}$ -->
      <g transform="translate(497.401416 300.722555) scale(0.26 -0.26)">
       <use xlink:href="#DejaVuSerif-31" transform="translate(0 0.7125)"/>
       <use xlink:href="#DejaVuSerif-30" transform="translate(63.623047 0.7125)"/>
       <use xlink:href="#DejaVuSerif-2212" transform="translate(128.154453 37.046875) scale(0.7)"/>
       <use xlink:href="#DejaVuSerif-31" transform="translate(186.806797 37.046875) scale(0.7)"/>
       <use xlink:href="#DejaVuSerif-30" transform="translate(231.34293 37.046875) scale(0.7)"/>
      </g>
     </g>
    </g>
    <g id="ytick_7">
     <g id="line2d_38">
      <path d="M 573.441416 254.688771 
L 835.92 254.688771 
" clip-path="url(#p6fb18a77e6)" style="fill: none; stroke-dasharray: 3.7,1.6; stroke-dashoffset: 0; stroke: #b0b0b0; stroke-opacity: 0.5"/>
     </g>
     <g id="line2d_39">
      <g>
       <use xlink:href="#m261f17518a" x="573.441416" y="254.688771" style="stroke: #000000; stroke-width: 2"/>
      </g>
     </g>
     <g id="line2d_40">
      <g>
       <use xlink:href="#mc4db78fb2b" x="835.92" y="254.688771" style="stroke: #000000; stroke-width: 2"/>
      </g>
     </g>
     <g id="text_16">
      <!-- $\mathdefault{10^{-9}}$ -->
      <g transform="translate(509.101416 264.56674) scale(0.26 -0.26)">
       <use xlink:href="#DejaVuSerif-31" transform="translate(0 0.7125)"/>
       <use xlink:href="#DejaVuSerif-30" transform="translate(63.623047 0.7125)"/>
       <use xlink:href="#DejaVuSerif-2212" transform="translate(128.154453 37.046875) scale(0.7)"/>
       <use xlink:href="#DejaVuSerif-39" transform="translate(186.806797 37.046875) scale(0.7)"/>
      </g>
     </g>
    </g>
    <g id="ytick_8">
     <g id="line2d_41">
      <path d="M 573.441416 218.532957 
L 835.92 218.532957 
" clip-path="url(#p6fb18a77e6)" style="fill: none; stroke-dasharray: 3.7,1.6; stroke-dashoffset: 0; stroke: #b0b0b0; stroke-opacity: 0.5"/>
     </g>
     <g id="line2d_42">
      <g>
       <use xlink:href="#m261f17518a" x="573.441416" y="218.532957" style="stroke: #000000; stroke-width: 2"/>
      </g>
     </g>
     <g id="line2d_43">
      <g>
       <use xlink:href="#mc4db78fb2b" x="835.92" y="218.532957" style="stroke: #000000; stroke-width: 2"/>
      </g>
     </g>
     <g id="text_17">
      <!-- $\mathdefault{10^{-8}}$ -->
      <g transform="translate(509.101416 228.410926) scale(0.26 -0.26)">
       <use xlink:href="#DejaVuSerif-31" transform="translate(0 0.7125)"/>
       <use xlink:href="#DejaVuSerif-30" transform="translate(63.623047 0.7125)"/>
       <use xlink:href="#DejaVuSerif-2212" transform="translate(128.154453 37.046875) scale(0.7)"/>
       <use xlink:href="#DejaVuSerif-38" transform="translate(186.806797 37.046875) scale(0.7)"/>
      </g>
     </g>
    </g>
    <g id="ytick_9">
     <g id="line2d_44">
      <path d="M 573.441416 182.377142 
L 835.92 182.377142 
" clip-path="url(#p6fb18a77e6)" style="fill: none; stroke-dasharray: 3.7,1.6; stroke-dashoffset: 0; stroke: #b0b0b0; stroke-opacity: 0.5"/>
     </g>
     <g id="line2d_45">
      <g>
       <use xlink:href="#m261f17518a" x="573.441416" y="182.377142" style="stroke: #000000; stroke-width: 2"/>
      </g>
     </g>
     <g id="line2d_46">
      <g>
       <use xlink:href="#mc4db78fb2b" x="835.92" y="182.377142" style="stroke: #000000; stroke-width: 2"/>
      </g>
     </g>
     <g id="text_18">
      <!-- $\mathdefault{10^{-7}}$ -->
      <g transform="translate(509.101416 192.255111) scale(0.26 -0.26)">
       <use xlink:href="#DejaVuSerif-31" transform="translate(0 0.63125)"/>
       <use xlink:href="#DejaVuSerif-30" transform="translate(63.623047 0.63125)"/>
       <use xlink:href="#DejaVuSerif-2212" transform="translate(128.154453 36.965625) scale(0.7)"/>
       <use xlink:href="#DejaVuSerif-37" transform="translate(186.806797 36.965625) scale(0.7)"/>
      </g>
     </g>
    </g>
    <g id="ytick_10">
     <g id="line2d_47">
      <path d="M 573.441416 146.221328 
L 835.92 146.221328 
" clip-path="url(#p6fb18a77e6)" style="fill: none; stroke-dasharray: 3.7,1.6; stroke-dashoffset: 0; stroke: #b0b0b0; stroke-opacity: 0.5"/>
     </g>
     <g id="line2d_48">
      <g>
       <use xlink:href="#m261f17518a" x="573.441416" y="146.221328" style="stroke: #000000; stroke-width: 2"/>
      </g>
     </g>
     <g id="line2d_49">
      <g>
       <use xlink:href="#mc4db78fb2b" x="835.92" y="146.221328" style="stroke: #000000; stroke-width: 2"/>
      </g>
     </g>
     <g id="text_19">
      <!-- $\mathdefault{10^{-6}}$ -->
      <g transform="translate(509.101416 156.099297) scale(0.26 -0.26)">
       <defs>
        <path id="DejaVuSerif-36" d="M 2094 219 
Q 2534 219 2771 542 
Q 3009 866 3009 1472 
Q 3009 2078 2771 2401 
Q 2534 2725 2094 2725 
Q 1647 2725 1412 2412 
Q 1178 2100 1178 1509 
Q 1178 888 1415 553 
Q 1653 219 2094 219 
z
M 1075 2569 
Q 1288 2803 1556 2918 
Q 1825 3034 2163 3034 
Q 2859 3034 3264 2615 
Q 3669 2197 3669 1472 
Q 3669 763 3233 336 
Q 2797 -91 2069 -91 
Q 1278 -91 853 498 
Q 428 1088 428 2181 
Q 428 3406 931 4078 
Q 1434 4750 2350 4750 
Q 2597 4750 2869 4703 
Q 3141 4656 3425 4563 
L 3425 3794 
L 3072 3794 
Q 3034 4109 2831 4275 
Q 2628 4441 2284 4441 
Q 1678 4441 1381 3981 
Q 1084 3522 1075 2569 
z
" transform="scale(0.015625)"/>
       </defs>
       <use xlink:href="#DejaVuSerif-31" transform="translate(0 0.7125)"/>
       <use xlink:href="#DejaVuSerif-30" transform="translate(63.623047 0.7125)"/>
       <use xlink:href="#DejaVuSerif-2212" transform="translate(128.154453 37.046875) scale(0.7)"/>
       <use xlink:href="#DejaVuSerif-36" transform="translate(186.806797 37.046875) scale(0.7)"/>
      </g>
     </g>
    </g>
    <g id="ytick_11">
     <g id="line2d_50">
      <path d="M 573.441416 110.065514 
L 835.92 110.065514 
" clip-path="url(#p6fb18a77e6)" style="fill: none; stroke-dasharray: 3.7,1.6; stroke-dashoffset: 0; stroke: #b0b0b0; stroke-opacity: 0.5"/>
     </g>
     <g id="line2d_51">
      <g>
       <use xlink:href="#m261f17518a" x="573.441416" y="110.065514" style="stroke: #000000; stroke-width: 2"/>
      </g>
     </g>
     <g id="line2d_52">
      <g>
       <use xlink:href="#mc4db78fb2b" x="835.92" y="110.065514" style="stroke: #000000; stroke-width: 2"/>
      </g>
     </g>
     <g id="text_20">
      <!-- $\mathdefault{10^{-5}}$ -->
      <g transform="translate(509.101416 119.943482) scale(0.26 -0.26)">
       <use xlink:href="#DejaVuSerif-31" transform="translate(0 0.63125)"/>
       <use xlink:href="#DejaVuSerif-30" transform="translate(63.623047 0.63125)"/>
       <use xlink:href="#DejaVuSerif-2212" transform="translate(128.154453 36.965625) scale(0.7)"/>
       <use xlink:href="#DejaVuSerif-35" transform="translate(186.806797 36.965625) scale(0.7)"/>
      </g>
     </g>
    </g>
    <g id="ytick_12">
     <g id="line2d_53">
      <path d="M 573.441416 73.909699 
L 835.92 73.909699 
" clip-path="url(#p6fb18a77e6)" style="fill: none; stroke-dasharray: 3.7,1.6; stroke-dashoffset: 0; stroke: #b0b0b0; stroke-opacity: 0.5"/>
     </g>
     <g id="line2d_54">
      <g>
       <use xlink:href="#m261f17518a" x="573.441416" y="73.909699" style="stroke: #000000; stroke-width: 2"/>
      </g>
     </g>
     <g id="line2d_55">
      <g>
       <use xlink:href="#mc4db78fb2b" x="835.92" y="73.909699" style="stroke: #000000; stroke-width: 2"/>
      </g>
     </g>
     <g id="text_21">
      <!-- $\mathdefault{10^{-4}}$ -->
      <g transform="translate(509.101416 83.787668) scale(0.26 -0.26)">
       <defs>
        <path id="DejaVuSerif-34" d="M 2234 1581 
L 2234 4063 
L 641 1581 
L 2234 1581 
z
M 3609 0 
L 1484 0 
L 1484 331 
L 2234 331 
L 2234 1247 
L 197 1247 
L 197 1588 
L 2241 4750 
L 2859 4750 
L 2859 1581 
L 3750 1581 
L 3750 1247 
L 2859 1247 
L 2859 331 
L 3609 331 
L 3609 0 
z
" transform="scale(0.015625)"/>
       </defs>
       <use xlink:href="#DejaVuSerif-31" transform="translate(0 0.7125)"/>
       <use xlink:href="#DejaVuSerif-30" transform="translate(63.623047 0.7125)"/>
       <use xlink:href="#DejaVuSerif-2212" transform="translate(128.154453 37.046875) scale(0.7)"/>
       <use xlink:href="#DejaVuSerif-34" transform="translate(186.806797 37.046875) scale(0.7)"/>
      </g>
     </g>
    </g>
    <g id="ytick_13">
     <g id="line2d_56">
      <path d="M 573.441416 37.753885 
L 835.92 37.753885 
" clip-path="url(#p6fb18a77e6)" style="fill: none; stroke-dasharray: 3.7,1.6; stroke-dashoffset: 0; stroke: #b0b0b0; stroke-opacity: 0.5"/>
     </g>
     <g id="line2d_57">
      <g>
       <use xlink:href="#m261f17518a" x="573.441416" y="37.753885" style="stroke: #000000; stroke-width: 2"/>
      </g>
     </g>
     <g id="line2d_58">
      <g>
       <use xlink:href="#mc4db78fb2b" x="835.92" y="37.753885" style="stroke: #000000; stroke-width: 2"/>
      </g>
     </g>
     <g id="text_22">
      <!-- $\mathdefault{10^{-3}}$ -->
      <g transform="translate(509.101416 47.631853) scale(0.26 -0.26)">
       <defs>
        <path id="DejaVuSerif-33" d="M 622 4469 
Q 988 4606 1323 4678 
Q 1659 4750 1953 4750 
Q 2638 4750 3022 4454 
Q 3406 4159 3406 3634 
Q 3406 3213 3140 2930 
Q 2875 2647 2388 2547 
Q 2963 2466 3280 2130 
Q 3597 1794 3597 1259 
Q 3597 606 3158 257 
Q 2719 -91 1894 -91 
Q 1528 -91 1179 -12 
Q 831 66 488 225 
L 488 1131 
L 838 1131 
Q 869 681 1141 450 
Q 1413 219 1906 219 
Q 2384 219 2661 495 
Q 2938 772 2938 1253 
Q 2938 1803 2653 2086 
Q 2369 2369 1819 2369 
L 1522 2369 
L 1522 2688 
L 1678 2688 
Q 2225 2688 2498 2914 
Q 2772 3141 2772 3597 
Q 2772 4006 2547 4223 
Q 2322 4441 1900 4441 
Q 1478 4441 1245 4241 
Q 1013 4041 972 3647 
L 622 3647 
L 622 4469 
z
" transform="scale(0.015625)"/>
       </defs>
       <use xlink:href="#DejaVuSerif-31" transform="translate(0 0.7125)"/>
       <use xlink:href="#DejaVuSerif-30" transform="translate(63.623047 0.7125)"/>
       <use xlink:href="#DejaVuSerif-2212" transform="translate(128.154453 37.046875) scale(0.7)"/>
       <use xlink:href="#DejaVuSerif-33" transform="translate(186.806797 37.046875) scale(0.7)"/>
      </g>
     </g>
    </g>
    <g id="text_23">
     <!-- |E(t) - E(0)| / |E(0)| -->
     <g transform="translate(487.271103 312.355625) rotate(-90) scale(0.26 -0.26)">
      <defs>
       <path id="DejaVuSerif-7c" d="M 1331 4891 
L 1331 -1509 
L 825 -1509 
L 825 4891 
L 1331 4891 
z
" transform="scale(0.015625)"/>
       <path id="DejaVuSerif-45" d="M 353 0 
L 353 331 
L 947 331 
L 947 4331 
L 353 4331 
L 353 4666 
L 4109 4666 
L 4109 3628 
L 3725 3628 
L 3725 4281 
L 1581 4281 
L 1581 2719 
L 3109 2719 
L 3109 3303 
L 3494 3303 
L 3494 1753 
L 3109 1753 
L 3109 2338 
L 1581 2338 
L 1581 384 
L 3775 384 
L 3775 1038 
L 4159 1038 
L 4159 0 
L 353 0 
z
" transform="scale(0.015625)"/>
       <path id="DejaVuSerif-74" d="M 691 2988 
L 184 2988 
L 184 3322 
L 691 3322 
L 691 4353 
L 1269 4353 
L 1269 3322 
L 2350 3322 
L 2350 2988 
L 1269 2988 
L 1269 878 
Q 1269 456 1350 337 
Q 1431 219 1650 219 
Q 1875 219 1978 351 
Q 2081 484 2088 781 
L 2522 781 
Q 2497 328 2275 118 
Q 2053 -91 1600 -91 
Q 1103 -91 897 129 
Q 691 350 691 878 
L 691 2988 
z
" transform="scale(0.015625)"/>
       <path id="DejaVuSerif-2d" d="M 281 1959 
L 1881 1959 
L 1881 1472 
L 281 1472 
L 281 1959 
z
" transform="scale(0.015625)"/>
       <path id="DejaVuSerif-2f" d="M 1656 4666 
L 2156 4666 
L 500 -594 
L 0 -594 
L 1656 4666 
z
" transform="scale(0.015625)"/>
      </defs>
      <use xlink:href="#DejaVuSerif-7c"/>
      <use xlink:href="#DejaVuSerif-45" x="33.691406"/>
      <use xlink:href="#DejaVuSerif-28" x="106.689453"/>
      <use xlink:href="#DejaVuSerif-74" x="145.703125"/>
      <use xlink:href="#DejaVuSerif-29" x="185.888672"/>
      <use xlink:href="#DejaVuSerif-20" x="224.902344"/>
      <use xlink:href="#DejaVuSerif-2d" x="256.689453"/>
      <use xlink:href="#DejaVuSerif-20" x="290.478516"/>
      <use xlink:href="#DejaVuSerif-45" x="322.265625"/>
      <use xlink:href="#DejaVuSerif-28" x="395.263672"/>
      <use xlink:href="#DejaVuSerif-30" x="434.277344"/>
      <use xlink:href="#DejaVuSerif-29" x="497.900391"/>
      <use xlink:href="#DejaVuSerif-7c" x="536.914062"/>
      <use xlink:href="#DejaVuSerif-20" x="570.605469"/>
      <use xlink:href="#DejaVuSerif-2f" x="602.392578"/>
      <use xlink:href="#DejaVuSerif-20" x="636.083984"/>
      <use xlink:href="#DejaVuSerif-7c" x="667.871094"/>
      <use xlink:href="#DejaVuSerif-45" x="701.5625"/>
      <use xlink:href="#DejaVuSerif-28" x="774.560547"/>
      <use xlink:href="#DejaVuSerif-30" x="813.574219"/>
      <use xlink:href="#DejaVuSerif-29" x="877.197266"/>
      <use xlink:href="#DejaVuSerif-7c" x="916.210938"/>
     </g>
    </g>
   </g>
   <g id="line2d_59">
    <path d="M 585.372261 331.017713 
L 585.611116 118.856157 
L 586.088828 97.155453 
L 586.566539 109.759399 
L 586.805395 103.417548 
L 587.044251 147.915458 
L 587.283107 110.889534 
L 587.521962 106.443954 
L 587.760818 115.453211 
L 587.999674 129.808322 
L 588.23853 106.905933 
L 588.477385 100.46871 
L 588.716241 106.00855 
L 588.955097 143.780988 
L 589.193953 105.624833 
L 589.432808 93.443834 
L 589.671664 115.420104 
L 589.91052 90.572295 
L 590.149376 122.959243 
L 590.388231 97.536403 
L 590.627087 96.338559 
L 590.865943 96.066061 
L 591.104799 92.040122 
L 591.343654 118.033213 
L 591.58251 94.16228 
L 591.821366 99.295915 
L 592.060222 90.398582 
L 592.299077 150.573219 
L 592.537933 87.522785 
L 592.776789 97.233915 
L 593.015645 112.348819 
L 593.2545 111.406235 
L 593.493356 112.723834 
L 593.732212 88.643119 
L 593.971068 117.006123 
L 594.209923 84.47866 
L 594.448779 105.765665 
L 594.687635 86.602742 
L 594.926491 95.387312 
L 595.404202 83.962521 
L 595.881914 92.676778 
L 596.120769 92.169655 
L 596.359625 99.403914 
L 596.598481 87.976705 
L 596.837337 86.041669 
L 597.076192 85.465043 
L 597.315048 89.968186 
L 597.553904 90.226984 
L 597.79276 89.469816 
L 598.031615 82.698664 
L 598.270471 87.906023 
L 598.509327 84.928199 
L 598.987038 97.322277 
L 599.703606 81.488463 
L 599.942461 88.697767 
L 600.181317 83.702139 
L 600.420173 90.002527 
L 600.659029 84.50996 
L 600.897884 83.198472 
L 601.13674 85.184569 
L 601.375596 82.447141 
L 601.853307 86.763226 
L 602.092163 85.894521 
L 602.331019 87.150644 
L 602.569875 79.864162 
L 602.80873 80.167217 
L 603.047586 83.644831 
L 603.286442 83.686868 
L 603.525298 87.499978 
L 603.764153 88.722543 
L 604.003009 90.649379 
L 604.480721 80.535222 
L 605.197288 84.848875 
L 605.436144 83.551623 
L 605.674999 77.969821 
L 605.913855 81.344417 
L 606.152711 79.51245 
L 606.391567 79.389954 
L 606.630422 89.808574 
L 606.869278 84.591796 
L 607.108134 88.695856 
L 607.34699 78.905765 
L 607.585845 87.766321 
L 607.824701 79.090813 
L 608.063557 83.900328 
L 608.302413 85.566454 
L 608.541268 84.96002 
L 608.780124 81.494184 
L 609.01898 86.251439 
L 609.257836 79.764557 
L 609.496691 77.068008 
L 609.735547 81.236807 
L 609.974403 78.930438 
L 610.213259 87.310526 
L 610.452114 77.647239 
L 610.69097 79.803641 
L 610.929826 84.369091 
L 611.168682 76.181105 
L 611.407537 81.525443 
L 611.646393 76.046194 
L 611.885249 80.88553 
L 612.124105 80.295667 
L 612.36296 82.821163 
L 612.601816 77.073342 
L 612.840672 78.575685 
L 613.079528 75.61189 
L 613.318383 78.847003 
L 613.557239 76.549726 
L 613.796095 77.959621 
L 614.034951 81.470458 
L 614.273806 77.547979 
L 614.512662 76.844214 
L 614.990374 79.856423 
L 615.229229 76.98067 
L 615.468085 76.21877 
L 615.706941 76.60559 
L 616.184652 79.336641 
L 616.423508 77.070078 
L 616.662364 77.708343 
L 616.90122 76.865743 
L 617.140075 78.276192 
L 617.378931 78.086617 
L 617.617787 76.231008 
L 617.856643 77.847171 
L 618.095498 77.628077 
L 618.334354 79.454722 
L 618.57321 79.923221 
L 618.812066 76.203559 
L 619.050921 78.080819 
L 619.289777 75.992915 
L 619.528633 77.192894 
L 619.767489 74.685431 
L 620.006344 78.597339 
L 620.2452 75.018184 
L 620.484056 74.994519 
L 620.722912 76.985318 
L 620.961767 76.68629 
L 621.200623 74.739157 
L 621.439479 73.844897 
L 621.678335 76.371496 
L 621.91719 73.033006 
L 622.156046 74.488868 
L 622.394902 74.12007 
L 622.633758 74.917383 
L 622.872613 71.632015 
L 623.111469 72.389151 
L 623.350325 74.923358 
L 623.828036 71.772572 
L 624.066892 74.30967 
L 624.305748 72.092906 
L 624.544604 75.525243 
L 624.783459 71.666839 
L 625.022315 72.73258 
L 625.261171 74.851956 
L 625.500027 71.506093 
L 625.738882 73.625799 
L 625.977738 70.971024 
L 626.216594 73.183641 
L 626.45545 73.265178 
L 626.694305 71.643068 
L 626.933161 74.638886 
L 627.172017 71.884439 
L 627.410873 77.058488 
L 627.649728 77.314592 
L 628.12744 72.777029 
L 628.366296 71.815766 
L 628.605151 77.484696 
L 628.844007 71.33921 
L 629.082863 71.030275 
L 629.321719 71.320213 
L 629.560574 74.783098 
L 629.79943 73.840678 
L 630.038286 70.378981 
L 630.277142 72.091051 
L 630.515997 71.681745 
L 630.754853 70.733295 
L 630.993709 74.549098 
L 631.232565 73.325511 
L 631.47142 71.399546 
L 631.949132 70.250494 
L 632.187988 75.184242 
L 632.426843 75.412949 
L 632.665699 72.326748 
L 632.904555 76.025262 
L 633.143411 72.087663 
L 633.382266 73.480458 
L 633.621122 72.020402 
L 633.859978 76.210214 
L 634.337689 70.474184 
L 634.576545 74.71191 
L 634.815401 71.055858 
L 635.054257 75.805894 
L 635.531968 70.734726 
L 636.00968 73.371386 
L 636.487391 69.641456 
L 636.726247 70.675309 
L 637.203958 71.2724 
L 637.442814 74.087506 
L 637.68167 73.046642 
L 637.920526 73.945382 
L 638.159381 69.979353 
L 638.398237 71.337149 
L 638.637093 70.886136 
L 638.875949 72.014403 
L 639.114804 70.103323 
L 639.35366 72.598883 
L 639.831372 71.799392 
L 640.070227 69.790804 
L 640.309083 73.917524 
L 640.547939 71.763311 
L 640.786795 72.112513 
L 641.02565 71.047699 
L 641.264506 71.785002 
L 641.503362 70.283805 
L 641.742218 73.235783 
L 641.981073 72.643828 
L 642.219929 70.102253 
L 642.458785 72.320895 
L 642.697641 72.398044 
L 642.936496 71.243825 
L 643.175352 69.209737 
L 643.414208 71.197616 
L 643.653064 71.017579 
L 643.891919 71.645695 
L 644.130775 68.907393 
L 644.369631 68.513324 
L 644.847342 70.329451 
L 645.086198 72.655609 
L 645.325054 70.425434 
L 645.56391 69.402683 
L 645.802765 70.753813 
L 646.041621 70.151672 
L 646.280477 68.016661 
L 646.519333 69.511027 
L 646.997044 70.076941 
L 647.2359 69.849622 
L 647.474756 69.901331 
L 647.952467 68.517534 
L 648.191323 68.847786 
L 648.430179 68.259914 
L 648.669034 71.340093 
L 648.90789 67.787653 
L 649.146746 70.554192 
L 649.385602 66.852463 
L 649.624457 66.968336 
L 649.863313 67.268244 
L 650.102169 69.661677 
L 650.341025 67.653168 
L 650.57988 70.269171 
L 650.818736 67.19906 
L 651.057592 66.742574 
L 651.296448 68.463487 
L 651.774159 69.267281 
L 652.013015 66.353872 
L 652.251871 66.408694 
L 652.490726 70.150349 
L 652.729582 69.396682 
L 652.968438 66.113457 
L 653.207294 69.606769 
L 653.685005 67.880519 
L 653.923861 69.149608 
L 654.162717 66.299655 
L 654.401572 66.513942 
L 654.640428 68.964468 
L 654.879284 69.440955 
L 655.11814 65.595876 
L 655.356995 68.694164 
L 655.595851 66.257439 
L 655.834707 65.904897 
L 656.073563 67.588378 
L 656.312418 68.437687 
L 657.028986 65.558161 
L 657.267841 67.743541 
L 657.506697 67.129601 
L 657.745553 67.107891 
L 657.984409 65.642513 
L 658.223264 68.644911 
L 658.46212 65.067692 
L 658.700976 65.453227 
L 658.939832 67.419191 
L 659.417543 65.047045 
L 659.656399 65.210058 
L 659.895255 66.689163 
L 660.13411 65.460462 
L 660.372966 65.35561 
L 660.611822 65.94782 
L 660.850678 65.620459 
L 661.089533 65.720881 
L 661.328389 65.429595 
L 661.567245 64.752637 
L 661.806101 66.189257 
L 662.044956 64.979928 
L 662.283812 66.283369 
L 662.522668 64.86896 
L 663.000379 65.464636 
L 663.239235 66.479149 
L 663.716947 64.255986 
L 663.955802 66.490584 
L 664.194658 66.060506 
L 664.433514 66.556103 
L 665.150081 63.554942 
L 665.627793 65.954327 
L 666.105504 63.208815 
L 666.34436 64.302487 
L 666.583216 64.500147 
L 666.822071 63.267468 
L 667.299783 65.505163 
L 667.538639 63.151743 
L 667.777494 65.152137 
L 668.01635 66.032804 
L 668.255206 62.893441 
L 668.494062 64.796561 
L 668.732917 64.081397 
L 668.971773 64.767742 
L 669.210629 64.549557 
L 669.449485 63.403891 
L 669.68834 65.03273 
L 669.927196 65.507547 
L 670.166052 65.199885 
L 670.404908 65.39647 
L 670.643764 62.765419 
L 670.882619 65.10732 
L 671.121475 63.012926 
L 671.599187 63.163355 
L 671.838042 64.514573 
L 672.076898 63.146091 
L 672.315754 64.157017 
L 672.55461 63.952058 
L 672.793465 62.834549 
L 673.032321 64.007286 
L 673.271177 63.000618 
L 673.510033 64.241861 
L 673.748888 64.277171 
L 673.987744 62.342408 
L 674.2266 62.716321 
L 674.704311 64.790428 
L 674.943167 62.646763 
L 675.182023 63.878938 
L 675.420879 62.244987 
L 675.659734 62.037576 
L 675.89859 63.442398 
L 676.137446 63.157823 
L 676.376302 63.772822 
L 676.854013 62.819625 
L 677.092869 63.736059 
L 677.331725 63.95789 
L 677.57058 61.352346 
L 677.809436 62.038346 
L 678.048292 64.4291 
L 678.287148 61.278378 
L 678.526003 63.190112 
L 678.764859 61.836922 
L 679.003715 63.585154 
L 679.242571 61.394261 
L 679.481426 64.161992 
L 679.720282 62.602673 
L 680.197994 61.365561 
L 680.436849 63.397726 
L 680.675705 64.096669 
L 680.914561 62.635422 
L 681.153417 62.273783 
L 681.392272 64.05744 
L 681.631128 63.889959 
L 682.10884 62.354565 
L 682.347695 62.533638 
L 682.586551 62.216808 
L 683.064263 60.860668 
L 683.541974 62.771526 
L 683.78083 61.927284 
L 684.019686 61.506394 
L 684.258541 63.418563 
L 684.497397 60.821741 
L 684.736253 61.940709 
L 684.975109 61.186389 
L 685.213964 62.370191 
L 685.45282 60.561188 
L 685.691676 61.424687 
L 685.930532 61.395719 
L 686.169387 60.238028 
L 686.408243 60.289427 
L 686.647099 61.392962 
L 686.885955 61.707687 
L 687.363666 60.558478 
L 687.602522 61.751632 
L 687.841378 60.509554 
L 688.080233 60.210853 
L 688.319089 61.481723 
L 688.557945 60.428409 
L 688.796801 60.670877 
L 689.035656 60.487525 
L 689.274512 59.454073 
L 689.513368 62.262221 
L 689.991079 60.202353 
L 690.229935 61.101634 
L 690.468791 59.557152 
L 690.707647 59.902952 
L 690.946502 59.129827 
L 691.424214 61.571319 
L 691.66307 59.321876 
L 691.901925 60.856628 
L 692.140781 59.364544 
L 692.379637 61.356986 
L 692.618493 60.662236 
L 692.857348 59.318713 
L 693.096204 59.816041 
L 693.33506 58.76578 
L 693.573916 59.972525 
L 693.812771 59.106272 
L 694.051627 59.165255 
L 694.290483 60.30341 
L 694.529339 59.731578 
L 694.768194 60.376921 
L 695.00705 60.224322 
L 695.484762 58.857 
L 695.723617 59.27994 
L 695.962473 60.692438 
L 696.201329 60.772026 
L 696.440185 59.908196 
L 696.67904 59.980312 
L 696.917896 58.440516 
L 697.156752 58.502996 
L 697.395608 59.26721 
L 697.634463 59.116467 
L 697.873319 58.749106 
L 698.112175 59.082945 
L 698.589886 59.181762 
L 698.828742 59.102459 
L 699.067598 59.858453 
L 699.306454 59.209093 
L 699.545309 58.146064 
L 699.784165 60.243448 
L 700.023021 57.856189 
L 700.261877 58.904756 
L 700.500732 59.173774 
L 700.739588 58.062705 
L 700.978444 59.454231 
L 701.2173 58.0479 
L 701.456155 58.957575 
L 701.695011 58.970546 
L 701.933867 58.482365 
L 702.172723 59.486267 
L 702.411578 58.829405 
L 702.88929 58.470779 
L 703.128146 57.836611 
L 703.367001 58.066843 
L 703.605857 59.088931 
L 704.083569 57.955992 
L 704.322424 58.20919 
L 704.56128 58.788805 
L 704.800136 58.329348 
L 705.277847 58.321025 
L 705.516703 58.146386 
L 705.994415 59.461694 
L 706.23327 57.755917 
L 706.472126 57.885065 
L 706.710982 58.621947 
L 706.949838 57.922007 
L 707.427549 58.206503 
L 707.905261 58.929612 
L 708.144116 59.054078 
L 708.382972 58.384195 
L 708.860684 57.676255 
L 709.099539 57.078647 
L 709.338395 57.048408 
L 709.577251 58.977361 
L 709.816107 58.873931 
L 710.054962 57.274177 
L 710.532674 58.29894 
L 710.77153 57.440119 
L 711.010385 57.790991 
L 711.249241 59.093846 
L 711.488097 58.499633 
L 711.726953 56.928592 
L 711.965808 57.303663 
L 712.204664 58.224992 
L 712.44352 56.971669 
L 712.682376 57.217225 
L 712.921231 57.247526 
L 713.398943 58.169098 
L 713.637799 57.86911 
L 713.876654 58.254342 
L 714.11551 57.507623 
L 714.354366 57.475187 
L 714.593222 56.711981 
L 714.832077 57.599811 
L 715.070933 57.084737 
L 715.309789 58.208495 
L 715.548645 57.277397 
L 715.7875 57.345487 
L 716.265212 56.524172 
L 716.504068 56.718366 
L 716.742923 56.013272 
L 716.981779 58.226246 
L 717.220635 56.465226 
L 717.459491 57.049612 
L 717.698346 56.153442 
L 717.937202 56.683362 
L 718.176058 56.62123 
L 718.414914 55.869647 
L 718.653769 56.737092 
L 718.892625 56.538414 
L 719.131481 56.491003 
L 719.370337 57.424472 
L 719.609192 56.437341 
L 719.848048 57.717343 
L 720.086904 56.340921 
L 720.32576 56.730921 
L 720.564615 56.824842 
L 721.042327 57.833279 
L 721.281183 56.333205 
L 721.520038 55.860528 
L 721.758894 55.890912 
L 721.99775 57.130272 
L 722.236606 56.119853 
L 722.714317 57.511561 
L 722.953173 57.071018 
L 723.192029 55.788071 
L 723.430884 56.503436 
L 723.66974 55.933594 
L 724.147452 55.539621 
L 724.386307 55.830322 
L 724.625163 55.630546 
L 724.864019 56.477764 
L 725.102875 55.30601 
L 725.34173 55.440501 
L 725.819442 56.679764 
L 726.058298 56.464036 
L 726.297153 55.832075 
L 726.536009 55.956958 
L 726.774865 55.318428 
L 727.013721 56.63081 
L 727.491432 55.670762 
L 727.969144 56.412662 
L 728.207999 55.011504 
L 728.446855 56.689169 
L 728.685711 56.491564 
L 728.924567 55.197221 
L 729.163422 55.066436 
L 729.402278 55.132463 
L 729.641134 57.188158 
L 729.87999 56.826044 
L 730.118845 56.256453 
L 730.357701 55.108475 
L 730.596557 55.585671 
L 730.835413 56.371619 
L 731.074268 55.055085 
L 731.313124 54.945434 
L 731.55198 55.834547 
L 731.790836 55.354277 
L 732.029691 56.188585 
L 732.268547 56.145224 
L 732.507403 56.454074 
L 732.746259 55.075098 
L 732.985114 55.877767 
L 733.462826 55.679194 
L 733.701682 55.109873 
L 733.940537 55.076319 
L 734.179393 55.609188 
L 734.418249 54.98989 
L 734.657105 55.468042 
L 734.89596 55.546932 
L 735.134816 54.906569 
L 735.373672 55.071286 
L 735.612528 54.907519 
L 736.090239 54.939951 
L 736.567951 54.273875 
L 736.806806 55.422203 
L 737.284518 54.258592 
L 737.523374 54.725191 
L 737.762229 54.419775 
L 738.001085 54.436678 
L 738.239941 55.181438 
L 738.478797 54.400581 
L 738.717652 54.878901 
L 738.956508 55.62141 
L 739.43422 54.132135 
L 739.673075 54.448617 
L 739.911931 54.548006 
L 740.150787 55.084452 
L 741.10621 54.473526 
L 741.345066 55.330271 
L 741.583921 54.176555 
L 741.822777 55.403913 
L 742.061633 54.997848 
L 742.300489 54.301007 
L 742.7782 55.303928 
L 743.017056 54.51979 
L 743.255912 54.52419 
L 743.494767 54.691298 
L 743.733623 54.280363 
L 743.972479 54.375455 
L 744.211335 54.181199 
L 744.45019 54.849447 
L 744.689046 54.561481 
L 744.927902 54.701901 
L 745.166758 53.964843 
L 745.405613 54.337775 
L 745.644469 54.027506 
L 746.122181 54.796629 
L 746.361036 54.01064 
L 746.599892 54.148911 
L 746.838748 54.944486 
L 747.077604 54.747804 
L 747.316459 54.226166 
L 747.555315 54.876006 
L 747.794171 54.59735 
L 748.033027 53.594905 
L 748.271882 53.559891 
L 748.510738 53.390109 
L 748.749594 53.932534 
L 748.98845 55.016681 
L 749.227305 54.571021 
L 749.466161 53.415061 
L 749.705017 54.187143 
L 750.182728 54.251023 
L 750.421584 54.074778 
L 750.66044 53.535352 
L 750.899296 53.92118 
L 751.138151 54.808616 
L 751.377007 53.26976 
L 751.615863 53.970679 
L 751.854719 53.962375 
L 752.093574 53.799844 
L 752.33243 53.962944 
L 752.810142 53.560915 
L 753.287853 52.870095 
L 753.526709 53.731915 
L 753.765565 52.773178 
L 754.243276 53.235059 
L 754.720988 53.053567 
L 754.959843 52.779472 
L 755.198699 53.625376 
L 755.437555 53.799404 
L 755.676411 54.124623 
L 755.915266 53.719483 
L 756.154122 53.594063 
L 756.392978 53.23231 
L 756.631834 53.410637 
L 756.870689 53.265469 
L 757.109545 52.738422 
L 757.348401 53.222612 
L 757.587257 53.032137 
L 757.826112 53.310794 
L 758.064968 52.832887 
L 758.303824 52.722541 
L 758.54268 52.895012 
L 758.781535 52.435607 
L 759.020391 52.454502 
L 759.259247 52.195126 
L 759.498103 53.6221 
L 759.736958 52.758944 
L 759.975814 52.339087 
L 760.21467 52.957915 
L 760.453526 52.313317 
L 760.931237 51.865724 
L 761.170093 51.933051 
L 761.408949 52.4956 
L 761.647804 52.395176 
L 761.88666 52.054248 
L 762.125516 52.364074 
L 762.364372 51.559408 
L 762.603227 52.72743 
L 762.842083 52.8859 
L 763.080939 51.737474 
L 763.319795 51.716724 
L 763.55865 52.794275 
L 763.797506 51.78464 
L 764.036362 52.516224 
L 764.275218 51.828552 
L 764.514073 51.641027 
L 764.752929 51.799119 
L 764.991785 52.785536 
L 765.230641 51.855445 
L 765.469496 52.226322 
L 765.708352 51.985626 
L 765.947208 51.333614 
L 766.186064 52.041775 
L 766.424919 51.397997 
L 766.663775 51.916445 
L 766.902631 51.723037 
L 767.141487 51.320566 
L 767.380342 52.383414 
L 767.858054 51.28214 
L 768.09691 51.537133 
L 768.335765 51.112986 
L 768.574621 51.296719 
L 768.813477 52.213674 
L 769.052333 51.688448 
L 769.291188 51.661986 
L 769.530044 51.156472 
L 769.7689 51.189841 
L 770.007756 51.66197 
L 770.246611 51.620746 
L 770.485467 51.98148 
L 770.724323 50.941686 
L 770.963179 51.882971 
L 771.202034 51.279302 
L 771.44089 51.135668 
L 771.679746 52.05852 
L 772.157457 51.167734 
L 772.396313 51.785846 
L 772.635169 51.983618 
L 773.11288 51.254373 
L 773.351736 51.573154 
L 773.590592 51.084091 
L 773.829448 51.90482 
L 774.068303 51.235808 
L 774.307159 50.898694 
L 774.546015 51.177959 
L 774.784871 50.686481 
L 775.023726 50.834197 
L 775.262582 51.34265 
L 775.501438 50.469839 
L 775.740294 50.288719 
L 776.218005 51.25167 
L 776.456861 50.916663 
L 776.695717 51.244307 
L 777.173428 50.979692 
L 777.412284 50.336402 
L 777.65114 50.338962 
L 777.889995 50.675286 
L 778.128851 50.255808 
L 778.367707 50.550201 
L 778.606563 50.236423 
L 778.845418 51.638674 
L 779.084274 50.246718 
L 779.32313 50.823825 
L 779.561986 50.853001 
L 779.800841 50.631061 
L 780.039697 50.958514 
L 780.278553 50.593449 
L 780.517409 50.615533 
L 780.756264 50.462564 
L 780.99512 50.105099 
L 781.233976 50.832429 
L 781.472832 50.262756 
L 781.950543 50.473732 
L 782.189399 50.797457 
L 782.428255 49.945106 
L 782.66711 50.127312 
L 782.905966 50.698933 
L 783.144822 50.76719 
L 783.383678 50.644321 
L 783.861389 50.976209 
L 784.100245 50.200434 
L 784.339101 49.956705 
L 784.577956 50.694074 
L 784.816812 49.992863 
L 785.055668 49.649322 
L 785.533379 49.845075 
L 786.011091 50.423993 
L 786.249947 49.432334 
L 786.488802 49.531908 
L 786.727658 49.854536 
L 786.966514 49.518307 
L 787.20537 49.770194 
L 787.444225 50.458688 
L 787.683081 49.852559 
L 787.921937 50.300293 
L 788.160793 49.794823 
L 788.399648 49.883904 
L 788.87736 49.82027 
L 789.116216 49.961939 
L 789.355071 49.762794 
L 789.593927 49.732143 
L 789.832783 49.855005 
L 790.071639 49.785353 
L 790.310494 49.532378 
L 790.54935 49.764438 
L 790.788206 49.233449 
L 791.027062 49.588938 
L 791.265917 48.937069 
L 791.504773 49.509046 
L 791.743629 48.885951 
L 791.982485 48.936755 
L 792.22134 49.176275 
L 792.460196 49.705076 
L 792.699052 49.322292 
L 792.937908 49.715967 
L 793.176763 49.825923 
L 793.415619 50.09634 
L 793.654475 49.301308 
L 793.893331 49.317931 
L 794.132186 49.183105 
L 794.371042 49.390508 
L 794.609898 49.817793 
L 794.848754 49.914061 
L 795.087609 49.848196 
L 795.565321 49.147002 
L 795.804177 49.44402 
L 796.043032 49.211878 
L 796.520744 49.25772 
L 796.7596 49.133798 
L 796.998455 49.710189 
L 797.237311 48.805805 
L 797.476167 49.787975 
L 797.715023 49.672559 
L 797.953878 48.944044 
L 798.192734 49.75446 
L 798.670446 49.340618 
L 798.909301 49.245212 
L 799.148157 48.629796 
L 799.387013 49.247812 
L 799.625869 48.961629 
L 799.864724 48.431307 
L 800.10358 49.091915 
L 800.342436 48.827021 
L 800.581292 49.351797 
L 800.820147 48.458686 
L 801.059003 49.676862 
L 801.297859 48.268677 
L 801.536715 48.898192 
L 801.77557 49.199433 
L 802.014426 48.161478 
L 802.253282 49.226924 
L 802.492138 48.620879 
L 802.730993 49.095243 
L 802.969849 48.377818 
L 803.208705 48.494394 
L 803.447561 48.388442 
L 804.164128 48.879704 
L 804.402984 48.632459 
L 804.641839 48.110611 
L 805.119551 48.267795 
L 805.358407 48.17467 
L 805.597262 48.945945 
L 805.836118 47.97751 
L 806.074974 48.628942 
L 806.31383 48.391022 
L 806.552685 48.348333 
L 806.791541 47.964103 
L 807.030397 48.141838 
L 807.269253 48.498284 
L 807.746964 48.387702 
L 808.224676 47.49645 
L 808.463531 47.510539 
L 808.702387 47.775129 
L 808.941243 48.453627 
L 809.180099 47.704958 
L 809.418954 48.036881 
L 809.65781 48.164573 
L 809.896666 47.794611 
L 810.135522 47.72786 
L 810.613233 48.218606 
L 810.852089 47.696542 
L 811.090945 47.753095 
L 811.3298 47.435757 
L 811.568656 47.48203 
L 811.807512 48.383298 
L 812.524079 47.887128 
L 812.762935 48.028616 
L 813.001791 47.483931 
L 813.240646 48.121441 
L 813.479502 47.447085 
L 813.957214 48.007809 
L 814.196069 47.492861 
L 814.434925 47.441258 
L 814.673781 48.303632 
L 814.912637 47.219928 
L 815.390348 47.97703 
L 815.629204 47.15536 
L 815.86806 48.220442 
L 816.106916 47.847337 
L 816.345771 47.989741 
L 816.584627 47.684787 
L 817.062339 48.183327 
L 817.301194 47.007611 
L 817.54005 47.382166 
L 817.778906 47.474807 
L 818.017762 47.777591 
L 818.256617 47.636167 
L 818.495473 47.198312 
L 818.734329 48.071456 
L 818.973185 47.186815 
L 819.21204 47.142306 
L 819.450896 47.288002 
L 819.689752 47.076248 
L 819.928608 47.4823 
L 820.406319 47.453637 
L 820.645175 47.194998 
L 821.122886 48.159063 
L 821.361742 47.561853 
L 821.600598 47.283507 
L 821.839454 48.037754 
L 822.078309 47.530216 
L 822.317165 46.721974 
L 822.556021 47.946655 
L 822.794877 47.102543 
L 823.033732 46.821893 
L 823.272588 47.646477 
L 823.511444 47.586157 
L 823.7503 47.214727 
L 823.989155 47.43583 
L 823.989155 47.43583 
" clip-path="url(#p6fb18a77e6)" style="fill: none; stroke: #1f77b4; stroke-width: 3; stroke-linecap: square"/>
   </g>
   <g id="patch_8">
    <path d="M 573.441416 345.2325 
L 573.441416 32.507187 
" style="fill: none; stroke: #000000; stroke-width: 2; stroke-linejoin: miter; stroke-linecap: square"/>
   </g>
   <g id="patch_9">
    <path d="M 835.92 345.2325 
L 835.92 32.507187 
" style="fill: none; stroke: #000000; stroke-width: 2; stroke-linejoin: miter; stroke-linecap: square"/>
   </g>
   <g id="patch_10">
    <path d="M 573.441416 345.2325 
L 835.92 345.2325 
" style="fill: none; stroke: #000000; stroke-width: 2; stroke-linejoin: miter; stroke-linecap: square"/>
   </g>
   <g id="patch_11">
    <path d="M 573.441416 32.507187 
L 835.92 32.507187 
" style="fill: none; stroke: #000000; stroke-width: 2; stroke-linejoin: miter; stroke-linecap: square"/>
   </g>
  </g>
 </g>
 <defs>
  <clipPath id="p9bcfe56a77">
   <rect x="177.87" y="32.507187" width="262.478584" height="312.725313"/>
  </clipPath>
  <clipPath id="p6fb18a77e6">
   <rect x="573.441416" y="32.507187" width="262.478584" height="312.725313"/>
  </clipPath>
 </defs>
</svg>
