<?xml version="1.0" encoding="utf-8" standalone="no"?>
<!DOCTYPE svg PUBLIC "-//W3C//DTD SVG 1.1//EN"
  "http://www.w3.org/Graphics/SVG/1.1/DTD/svg11.dtd">
<svg xmlns:xlink="http://www.w3.org/1999/xlink" width="864pt" height="576pt" viewBox="0 0 864 576" xmlns="http://www.w3.org/2000/svg" version="1.1">
 <metadata>
  <rdf:RDF xmlns:dc="http://purl.org/dc/elements/1.1/" xmlns:cc="http://creativecommons.org/ns#" xmlns:rdf="http://www.w3.org/1999/02/22-rdf-syntax-ns#">
   <cc:Work>
    <dc:type rdf:resource="http://purl.org/dc/dcmitype/StillImage"/>
    <dc:date>2025-07-11T16:42:36.543182</dc:date>
    <dc:format>image/svg+xml</dc:format>
    <dc:creator>
     <cc:Agent>
      <dc:title>Matplotlib v3.7.2, https://matplotlib.org/</dc:title>
     </cc:Agent>
    </dc:creator>
   </cc:Work>
  </rdf:RDF>
 </metadata>
 <defs>
  <style type="text/css">*{stroke-linejoin: round; stroke-linecap: butt}</style>
 </defs>
 <g id="figure_1">
  <g id="patch_1">
   <path d="M 0 576 
L 864 576 
L 864 0 
L 0 0 
z
" style="fill: #ffffff"/>
  </g>
  <g id="axes_1">
   <g id="patch_2">
    <path d="M 121.181625 489.2325 
L 824.911364 489.2325 
L 824.911364 28.08 
L 121.181625 28.08 
z
" style="fill: #ffffff"/>
   </g>
   <g id="matplotlib.axis_1">
    <g id="xtick_1">
     <g id="line2d_1">
      <path d="M 153.16934 489.2325 
L 153.16934 28.08 
" clip-path="url(#p09cba43ac7)" style="fill: none; stroke-dasharray: 3.7,1.6; stroke-dashoffset: 0; stroke: #b0b0b0; stroke-opacity: 0.5"/>
     </g>
     <g id="line2d_2">
      <defs>
       <path id="m441bfbd5ae" d="M 0 0 
L 0 -10 
" style="stroke: #000000; stroke-width: 2"/>
      </defs>
      <g>
       <use xlink:href="#m441bfbd5ae" x="153.16934" y="489.2325" style="stroke: #000000; stroke-width: 2"/>
      </g>
     </g>
     <g id="line2d_3">
      <defs>
       <path id="m276327271c" d="M 0 0 
L 0 10 
" style="stroke: #000000; stroke-width: 2"/>
      </defs>
      <g>
       <use xlink:href="#m276327271c" x="153.16934" y="28.08" style="stroke: #000000; stroke-width: 2"/>
      </g>
     </g>
     <g id="text_1">
      <!-- 0 -->
      <g transform="translate(144.89809 512.488438) scale(0.26 -0.26)">
       <defs>
        <path id="DejaVuSerif-30" d="M 2034 219 
Q 2513 219 2750 744 
Q 2988 1269 2988 2328 
Q 2988 3391 2750 3916 
Q 2513 4441 2034 4441 
Q 1556 4441 1318 3916 
Q 1081 3391 1081 2328 
Q 1081 1269 1318 744 
Q 1556 219 2034 219 
z
M 2034 -91 
Q 1275 -91 848 546 
Q 422 1184 422 2328 
Q 422 3475 848 4112 
Q 1275 4750 2034 4750 
Q 2797 4750 3222 4112 
Q 3647 3475 3647 2328 
Q 3647 1184 3222 546 
Q 2797 -91 2034 -91 
z
" transform="scale(0.015625)"/>
       </defs>
       <use xlink:href="#DejaVuSerif-30"/>
      </g>
     </g>
    </g>
    <g id="xtick_2">
     <g id="line2d_4">
      <path d="M 281.120202 489.2325 
L 281.120202 28.08 
" clip-path="url(#p09cba43ac7)" style="fill: none; stroke-dasharray: 3.7,1.6; stroke-dashoffset: 0; stroke: #b0b0b0; stroke-opacity: 0.5"/>
     </g>
     <g id="line2d_5">
      <g>
       <use xlink:href="#m441bfbd5ae" x="281.120202" y="489.2325" style="stroke: #000000; stroke-width: 2"/>
      </g>
     </g>
     <g id="line2d_6">
      <g>
       <use xlink:href="#m276327271c" x="281.120202" y="28.08" style="stroke: #000000; stroke-width: 2"/>
      </g>
     </g>
     <g id="text_2">
      <!-- 5000 -->
      <g transform="translate(248.035202 512.488438) scale(0.26 -0.26)">
       <defs>
        <path id="DejaVuSerif-35" d="M 3219 4666 
L 3219 4153 
L 1081 4153 
L 1081 2816 
Q 1244 2928 1461 2984 
Q 1678 3041 1947 3041 
Q 2703 3041 3140 2622 
Q 3578 2203 3578 1478 
Q 3578 738 3136 323 
Q 2694 -91 1894 -91 
Q 1572 -91 1234 -12 
Q 897 66 544 225 
L 544 1131 
L 897 1131 
Q 925 688 1179 453 
Q 1434 219 1894 219 
Q 2388 219 2653 544 
Q 2919 869 2919 1478 
Q 2919 2084 2655 2407 
Q 2391 2731 1894 2731 
Q 1613 2731 1398 2631 
Q 1184 2531 1019 2322 
L 750 2322 
L 750 4666 
L 3219 4666 
z
" transform="scale(0.015625)"/>
       </defs>
       <use xlink:href="#DejaVuSerif-35"/>
       <use xlink:href="#DejaVuSerif-30" x="63.623047"/>
       <use xlink:href="#DejaVuSerif-30" x="127.246094"/>
       <use xlink:href="#DejaVuSerif-30" x="190.869141"/>
      </g>
     </g>
    </g>
    <g id="xtick_3">
     <g id="line2d_7">
      <path d="M 409.071064 489.2325 
L 409.071064 28.08 
" clip-path="url(#p09cba43ac7)" style="fill: none; stroke-dasharray: 3.7,1.6; stroke-dashoffset: 0; stroke: #b0b0b0; stroke-opacity: 0.5"/>
     </g>
     <g id="line2d_8">
      <g>
       <use xlink:href="#m441bfbd5ae" x="409.071064" y="489.2325" style="stroke: #000000; stroke-width: 2"/>
      </g>
     </g>
     <g id="line2d_9">
      <g>
       <use xlink:href="#m276327271c" x="409.071064" y="28.08" style="stroke: #000000; stroke-width: 2"/>
      </g>
     </g>
     <g id="text_3">
      <!-- 10000 -->
      <g transform="translate(367.714814 512.488438) scale(0.26 -0.26)">
       <defs>
        <path id="DejaVuSerif-31" d="M 909 0 
L 909 331 
L 1722 331 
L 1722 4213 
L 781 3603 
L 781 4013 
L 1919 4750 
L 2350 4750 
L 2350 331 
L 3163 331 
L 3163 0 
L 909 0 
z
" transform="scale(0.015625)"/>
       </defs>
       <use xlink:href="#DejaVuSerif-31"/>
       <use xlink:href="#DejaVuSerif-30" x="63.623047"/>
       <use xlink:href="#DejaVuSerif-30" x="127.246094"/>
       <use xlink:href="#DejaVuSerif-30" x="190.869141"/>
       <use xlink:href="#DejaVuSerif-30" x="254.492188"/>
      </g>
     </g>
    </g>
    <g id="xtick_4">
     <g id="line2d_10">
      <path d="M 537.021925 489.2325 
L 537.021925 28.08 
" clip-path="url(#p09cba43ac7)" style="fill: none; stroke-dasharray: 3.7,1.6; stroke-dashoffset: 0; stroke: #b0b0b0; stroke-opacity: 0.5"/>
     </g>
     <g id="line2d_11">
      <g>
       <use xlink:href="#m441bfbd5ae" x="537.021925" y="489.2325" style="stroke: #000000; stroke-width: 2"/>
      </g>
     </g>
     <g id="line2d_12">
      <g>
       <use xlink:href="#m276327271c" x="537.021925" y="28.08" style="stroke: #000000; stroke-width: 2"/>
      </g>
     </g>
     <g id="text_4">
      <!-- 15000 -->
      <g transform="translate(495.665675 512.488438) scale(0.26 -0.26)">
       <use xlink:href="#DejaVuSerif-31"/>
       <use xlink:href="#DejaVuSerif-35" x="63.623047"/>
       <use xlink:href="#DejaVuSerif-30" x="127.246094"/>
       <use xlink:href="#DejaVuSerif-30" x="190.869141"/>
       <use xlink:href="#DejaVuSerif-30" x="254.492188"/>
      </g>
     </g>
    </g>
    <g id="xtick_5">
     <g id="line2d_13">
      <path d="M 664.972787 489.2325 
L 664.972787 28.08 
" clip-path="url(#p09cba43ac7)" style="fill: none; stroke-dasharray: 3.7,1.6; stroke-dashoffset: 0; stroke: #b0b0b0; stroke-opacity: 0.5"/>
     </g>
     <g id="line2d_14">
      <g>
       <use xlink:href="#m441bfbd5ae" x="664.972787" y="489.2325" style="stroke: #000000; stroke-width: 2"/>
      </g>
     </g>
     <g id="line2d_15">
      <g>
       <use xlink:href="#m276327271c" x="664.972787" y="28.08" style="stroke: #000000; stroke-width: 2"/>
      </g>
     </g>
     <g id="text_5">
      <!-- 20000 -->
      <g transform="translate(623.616537 512.488438) scale(0.26 -0.26)">
       <defs>
        <path id="DejaVuSerif-32" d="M 819 3553 
L 469 3553 
L 469 4384 
Q 803 4563 1142 4656 
Q 1481 4750 1806 4750 
Q 2534 4750 2956 4397 
Q 3378 4044 3378 3438 
Q 3378 2753 2422 1800 
Q 2347 1728 2309 1691 
L 1131 513 
L 3078 513 
L 3078 1088 
L 3444 1088 
L 3444 0 
L 434 0 
L 434 341 
L 1850 1753 
Q 2319 2222 2519 2614 
Q 2719 3006 2719 3438 
Q 2719 3909 2473 4175 
Q 2228 4441 1797 4441 
Q 1350 4441 1106 4219 
Q 863 3997 819 3553 
z
" transform="scale(0.015625)"/>
       </defs>
       <use xlink:href="#DejaVuSerif-32"/>
       <use xlink:href="#DejaVuSerif-30" x="63.623047"/>
       <use xlink:href="#DejaVuSerif-30" x="127.246094"/>
       <use xlink:href="#DejaVuSerif-30" x="190.869141"/>
       <use xlink:href="#DejaVuSerif-30" x="254.492188"/>
      </g>
     </g>
    </g>
    <g id="xtick_6">
     <g id="line2d_16">
      <path d="M 792.923648 489.2325 
L 792.923648 28.08 
" clip-path="url(#p09cba43ac7)" style="fill: none; stroke-dasharray: 3.7,1.6; stroke-dashoffset: 0; stroke: #b0b0b0; stroke-opacity: 0.5"/>
     </g>
     <g id="line2d_17">
      <g>
       <use xlink:href="#m441bfbd5ae" x="792.923648" y="489.2325" style="stroke: #000000; stroke-width: 2"/>
      </g>
     </g>
     <g id="line2d_18">
      <g>
       <use xlink:href="#m276327271c" x="792.923648" y="28.08" style="stroke: #000000; stroke-width: 2"/>
      </g>
     </g>
     <g id="text_6">
      <!-- 25000 -->
      <g transform="translate(751.567398 512.488438) scale(0.26 -0.26)">
       <use xlink:href="#DejaVuSerif-32"/>
       <use xlink:href="#DejaVuSerif-35" x="63.623047"/>
       <use xlink:href="#DejaVuSerif-30" x="127.246094"/>
       <use xlink:href="#DejaVuSerif-30" x="190.869141"/>
       <use xlink:href="#DejaVuSerif-30" x="254.492188"/>
      </g>
     </g>
    </g>
    <g id="text_7">
     <!-- $t$ (a.u.) -->
     <g transform="translate(429.626494 541.651562) scale(0.26 -0.26)">
      <defs>
       <path id="Cmmi10-74" d="M 397 519 
Q 397 613 416 697 
L 878 2534 
L 206 2534 
Q 141 2534 141 2619 
Q 166 2759 225 2759 
L 934 2759 
L 1191 3803 
Q 1216 3888 1291 3947 
Q 1366 4006 1459 4006 
Q 1541 4006 1595 3957 
Q 1650 3909 1650 3828 
Q 1650 3809 1648 3798 
Q 1647 3788 1644 3775 
L 1388 2759 
L 2047 2759 
Q 2113 2759 2113 2675 
Q 2109 2659 2100 2621 
Q 2091 2584 2075 2559 
Q 2059 2534 2028 2534 
L 1331 2534 
L 872 684 
Q 825 503 825 372 
Q 825 97 1013 97 
Q 1294 97 1511 361 
Q 1728 625 1844 941 
Q 1869 978 1894 978 
L 1972 978 
Q 1997 978 2012 961 
Q 2028 944 2028 922 
Q 2028 909 2022 903 
Q 1881 516 1612 222 
Q 1344 -72 997 -72 
Q 744 -72 570 93 
Q 397 259 397 519 
z
" transform="scale(0.015625)"/>
       <path id="DejaVuSerif-20" transform="scale(0.015625)"/>
       <path id="DejaVuSerif-28" d="M 2041 -997 
Q 1281 -656 893 83 
Q 506 822 506 1931 
Q 506 3044 893 3783 
Q 1281 4522 2041 4863 
L 2041 4556 
Q 1559 4225 1350 3623 
Q 1141 3022 1141 1931 
Q 1141 844 1350 242 
Q 1559 -359 2041 -691 
L 2041 -997 
z
" transform="scale(0.015625)"/>
       <path id="DejaVuSerif-61" d="M 2547 1044 
L 2547 1747 
L 1806 1747 
Q 1378 1747 1168 1562 
Q 959 1378 959 997 
Q 959 650 1171 447 
Q 1384 244 1747 244 
Q 2106 244 2326 466 
Q 2547 688 2547 1044 
z
M 3122 2075 
L 3122 331 
L 3634 331 
L 3634 0 
L 2547 0 
L 2547 359 
Q 2356 128 2106 18 
Q 1856 -91 1522 -91 
Q 969 -91 644 203 
Q 319 497 319 997 
Q 319 1513 691 1797 
Q 1063 2081 1741 2081 
L 2547 2081 
L 2547 2309 
Q 2547 2688 2317 2895 
Q 2088 3103 1672 3103 
Q 1328 3103 1125 2947 
Q 922 2791 872 2484 
L 575 2484 
L 575 3156 
Q 875 3284 1158 3348 
Q 1441 3413 1709 3413 
Q 2400 3413 2761 3070 
Q 3122 2728 3122 2075 
z
" transform="scale(0.015625)"/>
       <path id="DejaVuSerif-2e" d="M 603 325 
Q 603 500 722 622 
Q 841 744 1019 744 
Q 1191 744 1312 622 
Q 1434 500 1434 325 
Q 1434 153 1312 31 
Q 1191 -91 1019 -91 
Q 841 -91 722 29 
Q 603 150 603 325 
z
" transform="scale(0.015625)"/>
       <path id="DejaVuSerif-75" d="M 2266 3322 
L 3341 3322 
L 3341 331 
L 3884 331 
L 3884 0 
L 2766 0 
L 2766 588 
Q 2606 256 2353 82 
Q 2100 -91 1766 -91 
Q 1213 -91 952 223 
Q 691 538 691 1209 
L 691 2988 
L 172 2988 
L 172 3322 
L 1269 3322 
L 1269 1388 
Q 1269 781 1417 556 
Q 1566 331 1947 331 
Q 2347 331 2556 625 
Q 2766 919 2766 1478 
L 2766 2988 
L 2266 2988 
L 2266 3322 
z
" transform="scale(0.015625)"/>
       <path id="DejaVuSerif-29" d="M 453 -997 
L 453 -691 
Q 934 -359 1145 242 
Q 1356 844 1356 1931 
Q 1356 3022 1145 3623 
Q 934 4225 453 4556 
L 453 4863 
Q 1216 4522 1603 3783 
Q 1991 3044 1991 1931 
Q 1991 822 1603 83 
Q 1216 -656 453 -997 
z
" transform="scale(0.015625)"/>
      </defs>
      <use xlink:href="#Cmmi10-74" transform="translate(0 0.015625)"/>
      <use xlink:href="#DejaVuSerif-20" transform="translate(36.083984 0.015625)"/>
      <use xlink:href="#DejaVuSerif-28" transform="translate(67.871094 0.015625)"/>
      <use xlink:href="#DejaVuSerif-61" transform="translate(106.884766 0.015625)"/>
      <use xlink:href="#DejaVuSerif-2e" transform="translate(166.503906 0.015625)"/>
      <use xlink:href="#DejaVuSerif-75" transform="translate(198.291016 0.015625)"/>
      <use xlink:href="#DejaVuSerif-2e" transform="translate(262.695312 0.015625)"/>
      <use xlink:href="#DejaVuSerif-29" transform="translate(294.482422 0.015625)"/>
     </g>
    </g>
   </g>
   <g id="matplotlib.axis_2">
    <g id="ytick_1">
     <g id="line2d_19">
      <path d="M 121.181625 449.827455 
L 824.911364 449.827455 
" clip-path="url(#p09cba43ac7)" style="fill: none; stroke-dasharray: 3.7,1.6; stroke-dashoffset: 0; stroke: #b0b0b0; stroke-opacity: 0.5"/>
     </g>
     <g id="line2d_20">
      <defs>
       <path id="m12b2a2baf9" d="M 0 0 
L 10 0 
" style="stroke: #000000; stroke-width: 2"/>
      </defs>
      <g>
       <use xlink:href="#m12b2a2baf9" x="121.181625" y="449.827455" style="stroke: #000000; stroke-width: 2"/>
      </g>
     </g>
     <g id="line2d_21">
      <defs>
       <path id="mbcb96efc71" d="M 0 0 
L -10 0 
" style="stroke: #000000; stroke-width: 2"/>
      </defs>
      <g>
       <use xlink:href="#mbcb96efc71" x="824.911364" y="449.827455" style="stroke: #000000; stroke-width: 2"/>
      </g>
     </g>
     <g id="text_8">
      <!-- 0.55 -->
      <g transform="translate(59.791 459.705424) scale(0.26 -0.26)">
       <use xlink:href="#DejaVuSerif-30"/>
       <use xlink:href="#DejaVuSerif-2e" x="63.623047"/>
       <use xlink:href="#DejaVuSerif-35" x="95.410156"/>
       <use xlink:href="#DejaVuSerif-35" x="159.033203"/>
      </g>
     </g>
    </g>
    <g id="ytick_2">
     <g id="line2d_22">
      <path d="M 121.181625 341.47433 
L 824.911364 341.47433 
" clip-path="url(#p09cba43ac7)" style="fill: none; stroke-dasharray: 3.7,1.6; stroke-dashoffset: 0; stroke: #b0b0b0; stroke-opacity: 0.5"/>
     </g>
     <g id="line2d_23">
      <g>
       <use xlink:href="#m12b2a2baf9" x="121.181625" y="341.47433" style="stroke: #000000; stroke-width: 2"/>
      </g>
     </g>
     <g id="line2d_24">
      <g>
       <use xlink:href="#mbcb96efc71" x="824.911364" y="341.47433" style="stroke: #000000; stroke-width: 2"/>
      </g>
     </g>
     <g id="text_9">
      <!-- 0.60 -->
      <g transform="translate(59.791 351.352299) scale(0.26 -0.26)">
       <defs>
        <path id="DejaVuSerif-36" d="M 2094 219 
Q 2534 219 2771 542 
Q 3009 866 3009 1472 
Q 3009 2078 2771 2401 
Q 2534 2725 2094 2725 
Q 1647 2725 1412 2412 
Q 1178 2100 1178 1509 
Q 1178 888 1415 553 
Q 1653 219 2094 219 
z
M 1075 2569 
Q 1288 2803 1556 2918 
Q 1825 3034 2163 3034 
Q 2859 3034 3264 2615 
Q 3669 2197 3669 1472 
Q 3669 763 3233 336 
Q 2797 -91 2069 -91 
Q 1278 -91 853 498 
Q 428 1088 428 2181 
Q 428 3406 931 4078 
Q 1434 4750 2350 4750 
Q 2597 4750 2869 4703 
Q 3141 4656 3425 4563 
L 3425 3794 
L 3072 3794 
Q 3034 4109 2831 4275 
Q 2628 4441 2284 4441 
Q 1678 4441 1381 3981 
Q 1084 3522 1075 2569 
z
" transform="scale(0.015625)"/>
       </defs>
       <use xlink:href="#DejaVuSerif-30"/>
       <use xlink:href="#DejaVuSerif-2e" x="63.623047"/>
       <use xlink:href="#DejaVuSerif-36" x="95.410156"/>
       <use xlink:href="#DejaVuSerif-30" x="159.033203"/>
      </g>
     </g>
    </g>
    <g id="ytick_3">
     <g id="line2d_25">
      <path d="M 121.181625 233.121205 
L 824.911364 233.121205 
" clip-path="url(#p09cba43ac7)" style="fill: none; stroke-dasharray: 3.7,1.6; stroke-dashoffset: 0; stroke: #b0b0b0; stroke-opacity: 0.5"/>
     </g>
     <g id="line2d_26">
      <g>
       <use xlink:href="#m12b2a2baf9" x="121.181625" y="233.121205" style="stroke: #000000; stroke-width: 2"/>
      </g>
     </g>
     <g id="line2d_27">
      <g>
       <use xlink:href="#mbcb96efc71" x="824.911364" y="233.121205" style="stroke: #000000; stroke-width: 2"/>
      </g>
     </g>
     <g id="text_10">
      <!-- 0.65 -->
      <g transform="translate(59.791 242.999174) scale(0.26 -0.26)">
       <use xlink:href="#DejaVuSerif-30"/>
       <use xlink:href="#DejaVuSerif-2e" x="63.623047"/>
       <use xlink:href="#DejaVuSerif-36" x="95.410156"/>
       <use xlink:href="#DejaVuSerif-35" x="159.033203"/>
      </g>
     </g>
    </g>
    <g id="ytick_4">
     <g id="line2d_28">
      <path d="M 121.181625 124.768081 
L 824.911364 124.768081 
" clip-path="url(#p09cba43ac7)" style="fill: none; stroke-dasharray: 3.7,1.6; stroke-dashoffset: 0; stroke: #b0b0b0; stroke-opacity: 0.5"/>
     </g>
     <g id="line2d_29">
      <g>
       <use xlink:href="#m12b2a2baf9" x="121.181625" y="124.768081" style="stroke: #000000; stroke-width: 2"/>
      </g>
     </g>
     <g id="line2d_30">
      <g>
       <use xlink:href="#mbcb96efc71" x="824.911364" y="124.768081" style="stroke: #000000; stroke-width: 2"/>
      </g>
     </g>
     <g id="text_11">
      <!-- 0.70 -->
      <g transform="translate(59.791 134.646049) scale(0.26 -0.26)">
       <defs>
        <path id="DejaVuSerif-37" d="M 3609 4347 
L 1784 0 
L 1319 0 
L 3059 4153 
L 903 4153 
L 903 3578 
L 538 3578 
L 538 4666 
L 3609 4666 
L 3609 4347 
z
" transform="scale(0.015625)"/>
       </defs>
       <use xlink:href="#DejaVuSerif-30"/>
       <use xlink:href="#DejaVuSerif-2e" x="63.623047"/>
       <use xlink:href="#DejaVuSerif-37" x="95.410156"/>
       <use xlink:href="#DejaVuSerif-30" x="159.033203"/>
      </g>
     </g>
    </g>
    <g id="text_12">
     <!-- $r_i$ (a.u.) -->
     <g transform="translate(50.383813 307.27625) rotate(-90) scale(0.26 -0.26)">
      <defs>
       <path id="Cmmi10-72" d="M 494 109 
Q 494 147 500 166 
L 978 2075 
Q 1025 2253 1025 2388 
Q 1025 2663 838 2663 
Q 638 2663 541 2423 
Q 444 2184 353 1819 
Q 353 1800 334 1789 
Q 316 1778 300 1778 
L 225 1778 
Q 203 1778 187 1801 
Q 172 1825 172 1844 
Q 241 2122 305 2315 
Q 369 2509 505 2668 
Q 641 2828 844 2828 
Q 1066 2828 1233 2700 
Q 1400 2572 1441 2363 
Q 1603 2575 1811 2701 
Q 2019 2828 2266 2828 
Q 2469 2828 2623 2709 
Q 2778 2591 2778 2388 
Q 2778 2225 2676 2104 
Q 2575 1984 2406 1984 
Q 2303 1984 2233 2048 
Q 2163 2113 2163 2216 
Q 2163 2356 2266 2467 
Q 2369 2578 2503 2578 
Q 2400 2663 2253 2663 
Q 1978 2663 1775 2467 
Q 1572 2272 1409 1972 
L 953 141 
Q 931 53 854 -9 
Q 778 -72 684 -72 
Q 606 -72 550 -22 
Q 494 28 494 109 
z
" transform="scale(0.015625)"/>
       <path id="Cmmi10-69" d="M 500 459 
Q 500 578 550 709 
L 1069 2088 
Q 1153 2322 1153 2472 
Q 1153 2663 1013 2663 
Q 759 2663 595 2402 
Q 431 2141 353 1819 
Q 341 1778 300 1778 
L 225 1778 
Q 172 1778 172 1838 
L 172 1856 
Q 275 2238 487 2533 
Q 700 2828 1025 2828 
Q 1253 2828 1411 2678 
Q 1569 2528 1569 2297 
Q 1569 2178 1516 2047 
L 997 672 
Q 909 459 909 288 
Q 909 97 1056 97 
Q 1306 97 1473 364 
Q 1641 631 1709 941 
Q 1722 978 1759 978 
L 1838 978 
Q 1863 978 1878 961 
Q 1894 944 1894 922 
Q 1894 916 1888 903 
Q 1800 541 1583 234 
Q 1366 -72 1044 -72 
Q 819 -72 659 83 
Q 500 238 500 459 
z
M 1222 3878 
Q 1222 4013 1334 4122 
Q 1447 4231 1581 4231 
Q 1691 4231 1761 4164 
Q 1831 4097 1831 3994 
Q 1831 3850 1717 3742 
Q 1603 3634 1466 3634 
Q 1363 3634 1292 3704 
Q 1222 3775 1222 3878 
z
" transform="scale(0.015625)"/>
      </defs>
      <use xlink:href="#Cmmi10-72" transform="translate(0 0.015625)"/>
      <use xlink:href="#Cmmi10-69" transform="translate(45.117188 -16.990625) scale(0.7)"/>
      <use xlink:href="#DejaVuSerif-20" transform="translate(75.591211 0.015625)"/>
      <use xlink:href="#DejaVuSerif-28" transform="translate(107.37832 0.015625)"/>
      <use xlink:href="#DejaVuSerif-61" transform="translate(146.391992 0.015625)"/>
      <use xlink:href="#DejaVuSerif-2e" transform="translate(206.011133 0.015625)"/>
      <use xlink:href="#DejaVuSerif-75" transform="translate(237.798242 0.015625)"/>
      <use xlink:href="#DejaVuSerif-2e" transform="translate(302.202539 0.015625)"/>
      <use xlink:href="#DejaVuSerif-29" transform="translate(333.989648 0.015625)"/>
     </g>
    </g>
   </g>
   <g id="line2d_31">
    <path d="M 153.16934 290.522877 
L 153.809735 339.305309 
L 154.45013 251.19299 
L 155.090525 388.970003 
L 155.730919 188.490384 
L 156.371314 250.323422 
L 157.011709 238.220153 
L 158.292498 354.699323 
L 158.932893 205.392685 
L 159.573287 329.03216 
L 160.213682 308.415288 
L 160.854077 366.913258 
L 161.494472 199.442583 
L 162.134866 400.364439 
L 162.775261 346.266083 
L 163.415656 247.539852 
L 164.05605 177.921785 
L 164.696445 386.16891 
L 165.33684 139.965656 
L 165.977234 363.934934 
L 166.617629 244.335911 
L 167.258024 229.86057 
L 167.898419 267.581115 
L 168.538813 172.860103 
L 169.179208 322.688786 
L 169.819603 257.819276 
L 170.459997 271.013955 
L 171.100392 159.766619 
L 171.740787 366.896057 
L 172.381181 180.386381 
L 173.021576 339.679905 
L 173.661971 340.337418 
L 174.302366 380.327784 
L 174.94276 383.002151 
L 175.583155 269.101703 
L 176.22355 409.513023 
L 176.863944 141.884763 
L 177.504339 359.243449 
L 178.144734 267.01472 
L 178.785128 252.005819 
L 179.425523 216.328786 
L 180.065918 157.47267 
L 180.706313 280.75312 
L 181.346707 321.637896 
L 181.987102 219.074391 
L 183.267891 374.952002 
L 183.908286 285.547874 
L 184.548681 337.799635 
L 185.189076 302.141868 
L 185.82947 185.822396 
L 186.469865 236.390034 
L 187.11026 174.171862 
L 187.750654 300.39982 
L 188.391049 340.701448 
L 189.031444 202.863197 
L 189.671838 413.860592 
L 190.312233 226.327037 
L 190.952628 290.352335 
L 191.593023 208.109156 
L 192.233417 298.000932 
L 192.873812 369.869686 
L 193.514207 168.745562 
L 194.154601 312.624264 
L 194.794996 143.391444 
L 195.435391 273.538872 
L 196.075785 59.245264 
L 196.71618 104.495417 
L 197.356575 367.703178 
L 197.99697 361.449448 
L 198.637364 319.981129 
L 199.277759 72.28933 
L 199.918154 300.691342 
L 200.558548 375.006671 
L 201.198943 248.87747 
L 201.839338 197.307293 
L 202.479732 431.830756 
L 203.120127 395.697386 
L 203.760522 386.396615 
L 204.400917 347.924722 
L 205.041311 390.376222 
L 205.681706 259.572144 
L 206.322101 210.143195 
L 206.962495 304.555655 
L 207.60289 184.370553 
L 208.243285 135.009577 
L 208.88368 209.764547 
L 209.524074 75.363174 
L 210.164469 376.135897 
L 210.804864 277.310556 
L 211.445258 354.899374 
L 212.085653 283.858122 
L 212.726048 276.622078 
L 213.366442 60.196256 
L 214.006837 222.774092 
L 214.647232 337.284705 
L 215.287627 305.815446 
L 216.568416 265.475336 
L 217.208811 306.150525 
L 217.849205 118.1941 
L 218.4896 347.604219 
L 219.129995 230.687067 
L 219.770389 337.712695 
L 220.410784 227.843382 
L 221.051179 356.869185 
L 221.691574 248.269747 
L 222.331968 118.679175 
L 222.972363 378.436992 
L 223.612758 191.333892 
L 224.253152 383.216538 
L 224.893547 290.362754 
L 225.533942 253.865606 
L 226.174336 67.96299 
L 226.814731 183.085071 
L 227.455126 167.003887 
L 228.095521 252.166948 
L 228.735915 266.916932 
L 230.016705 459.470365 
L 230.657099 205.369298 
L 231.297494 276.826716 
L 231.937889 94.983681 
L 232.578284 364.739103 
L 233.218678 217.750518 
L 233.859073 120.12264 
L 235.139862 402.850999 
L 235.780257 429.882655 
L 236.420652 197.366045 
L 237.061046 272.419437 
L 237.701441 159.753202 
L 238.341836 285.672937 
L 238.982231 154.42059 
L 239.622625 326.112691 
L 240.26302 247.770794 
L 240.903415 349.17243 
L 241.543809 424.109604 
L 242.184204 373.666445 
L 242.824599 189.843009 
L 243.464993 425.652742 
L 244.105388 297.060707 
L 244.745783 224.094097 
L 245.386178 307.808218 
L 246.026572 343.727305 
L 246.666967 218.052628 
L 247.307362 196.618653 
L 247.947756 351.098794 
L 248.588151 190.800069 
L 249.228546 219.370592 
L 249.86894 323.279083 
L 250.509335 296.596348 
L 251.14973 340.211935 
L 251.790125 399.158043 
L 252.430519 155.592208 
L 253.070914 325.46239 
L 253.711309 212.299844 
L 254.351703 253.396089 
L 254.992098 318.38809 
L 255.632493 272.534724 
L 256.272888 105.615753 
L 256.913282 268.172451 
L 257.553677 187.642092 
L 258.194072 349.893641 
L 258.834466 215.932082 
L 259.474861 234.004193 
L 260.115256 391.384838 
L 260.75565 107.965998 
L 261.396045 249.469458 
L 262.03644 239.969031 
L 262.676835 235.116779 
L 263.317229 153.144968 
L 263.957624 311.659308 
L 264.598019 166.421677 
L 265.238413 232.747959 
L 265.878808 336.056177 
L 266.519203 372.878603 
L 267.159597 416.971008 
L 267.799992 327.045136 
L 268.440387 79.43206 
L 269.080782 415.982021 
L 269.721176 164.981307 
L 270.361571 202.320231 
L 271.001966 191.291223 
L 271.64236 296.568513 
L 272.282755 312.391457 
L 272.92315 117.529832 
L 273.563544 341.747801 
L 274.203939 335.501262 
L 274.844334 121.128882 
L 275.484729 214.508062 
L 276.125123 290.163046 
L 276.765518 305.899791 
L 277.405913 168.387315 
L 278.046307 225.763485 
L 278.686702 397.922832 
L 279.327097 357.804671 
L 279.967491 247.98131 
L 280.607886 325.165562 
L 281.248281 232.514734 
L 281.888676 415.174547 
L 282.52907 267.494893 
L 283.169465 439.264731 
L 283.80986 320.133532 
L 284.450254 100.386257 
L 285.090649 335.788697 
L 285.731044 75.743348 
L 286.371439 419.761954 
L 287.011833 266.25747 
L 287.652228 271.45912 
L 288.292623 300.250391 
L 288.933017 336.857724 
L 289.573412 89.32185 
L 290.213807 135.236964 
L 290.854201 95.204884 
L 291.494596 223.357914 
L 292.134991 86.79866 
L 292.775386 302.672786 
L 293.41578 302.329871 
L 294.056175 358.420259 
L 294.69657 266.335706 
L 295.336964 231.497239 
L 295.977359 363.268086 
L 296.617754 173.324302 
L 297.258148 215.824252 
L 297.898543 377.729631 
L 298.538938 271.230873 
L 299.179333 370.984566 
L 299.819727 209.830548 
L 300.460122 271.571795 
L 301.100517 388.21817 
L 301.740911 200.215989 
L 302.381306 301.679219 
L 303.021701 348.39596 
L 303.662095 94.599497 
L 304.30249 248.561558 
L 304.942885 330.911753 
L 305.58328 332.921652 
L 306.223674 311.915012 
L 306.864069 276.372612 
L 307.504464 173.328929 
L 308.144858 250.901999 
L 308.785253 159.29024 
L 309.425648 341.211327 
L 310.066043 310.303777 
L 310.706437 205.341035 
L 311.346832 305.318483 
L 311.987227 266.985118 
L 312.627621 352.018024 
L 313.268016 339.885891 
L 313.908411 354.69239 
L 314.548805 90.959398 
L 315.1892 408.15132 
L 315.829595 261.790435 
L 316.46999 170.260774 
L 317.110384 386.46614 
L 317.750779 209.495673 
L 318.391174 422.15588 
L 319.031568 122.070387 
L 319.671963 430.716115 
L 320.312358 164.1161 
L 320.952752 368.653536 
L 321.593147 413.067927 
L 322.233542 145.919208 
L 322.873937 453.504573 
L 323.514331 93.745021 
L 324.154726 425.441616 
L 324.795121 155.999752 
L 325.435515 93.095125 
L 326.07591 324.930529 
L 326.716305 171.307518 
L 327.356699 51.427275 
L 327.997094 404.520945 
L 328.637489 221.166017 
L 329.277884 237.367002 
L 329.918278 184.827939 
L 330.558673 152.008901 
L 331.199068 342.446713 
L 331.839462 121.420135 
L 333.120252 421.215556 
L 333.760647 406.214726 
L 334.401041 109.050796 
L 335.041436 373.594436 
L 335.681831 326.273216 
L 336.322225 245.932852 
L 336.96262 355.539189 
L 337.603015 235.997349 
L 338.243409 233.34485 
L 338.883804 219.730021 
L 339.524199 351.085722 
L 340.164594 150.543655 
L 340.804988 410.419851 
L 341.445383 243.705122 
L 342.085778 224.374622 
L 342.726172 343.274052 
L 343.366567 432.559194 
L 344.006962 434.907895 
L 344.647356 204.732075 
L 345.287751 190.479666 
L 345.928146 437.863546 
L 346.568541 370.221817 
L 347.208935 441.277773 
L 347.84933 217.551027 
L 348.489725 332.955362 
L 349.130119 258.804364 
L 349.770514 346.678501 
L 350.410909 333.136408 
L 351.051303 395.437844 
L 351.691698 215.505196 
L 352.332093 221.391128 
L 352.972488 409.363834 
L 353.612882 209.751734 
L 354.253277 260.400467 
L 354.893672 329.876874 
L 355.534066 115.583468 
L 356.814856 335.409368 
L 357.455251 220.101204 
L 358.095645 449.310173 
L 358.73604 174.181549 
L 359.376435 236.960737 
L 360.016829 135.635371 
L 361.297619 413.856728 
L 361.938013 430.410189 
L 362.578408 391.068591 
L 363.218803 149.646194 
L 363.859198 275.703655 
L 364.499592 258.739524 
L 365.139987 407.397314 
L 365.780382 407.582486 
L 366.420776 288.099401 
L 367.061171 124.925256 
L 367.701566 340.984392 
L 368.34196 444.32042 
L 368.982355 316.802443 
L 369.62275 219.476396 
L 370.263145 355.15599 
L 370.903539 330.49576 
L 372.184329 214.819499 
L 372.824723 317.817034 
L 373.465118 139.136675 
L 374.105513 386.270478 
L 374.745907 355.615017 
L 375.386302 175.506389 
L 376.026697 381.50519 
L 376.667092 354.651845 
L 377.307486 448.336046 
L 377.947881 441.48397 
L 378.588276 132.901223 
L 379.22867 424.375438 
L 379.869065 468.271023 
L 380.50946 271.645978 
L 381.149855 444.519237 
L 381.790249 74.035681 
L 383.071039 361.894899 
L 383.711433 340.42331 
L 384.351828 216.772209 
L 384.992223 423.316004 
L 385.632617 245.999977 
L 386.273012 368.352901 
L 386.913407 373.025953 
L 387.553802 163.033949 
L 388.194196 395.883185 
L 388.834591 137.457832 
L 389.474986 374.704245 
L 390.11538 344.246446 
L 390.755775 127.277724 
L 391.39617 121.564283 
L 392.036564 422.282905 
L 393.317354 179.740535 
L 393.957749 265.629211 
L 394.598143 206.7731 
L 395.238538 221.533207 
L 395.878933 422.806576 
L 396.519327 396.454829 
L 397.159722 207.710707 
L 397.800117 157.144512 
L 398.440511 124.599014 
L 399.080906 274.271936 
L 399.721301 335.10756 
L 400.361696 181.600125 
L 401.00209 324.593874 
L 401.642485 370.403835 
L 402.28288 98.953113 
L 402.923274 368.753396 
L 403.563669 236.147831 
L 404.204064 458.280247 
L 404.844458 208.726849 
L 405.484853 365.487421 
L 406.125248 372.473278 
L 406.765643 137.609535 
L 407.406037 320.360986 
L 408.046432 243.65945 
L 408.686827 342.485349 
L 409.327221 247.101683 
L 409.967616 290.521564 
L 410.608011 404.81539 
L 411.248406 335.606427 
L 411.8888 424.656124 
L 412.529195 264.304248 
L 413.16959 404.90932 
L 413.809984 237.017079 
L 414.450379 319.903906 
L 415.090774 276.566672 
L 415.731168 389.724157 
L 416.371563 463.906744 
L 417.011958 188.203718 
L 417.652353 268.455083 
L 418.292747 442.869643 
L 418.933142 233.880143 
L 419.573537 217.513392 
L 420.213931 109.655819 
L 420.854326 213.829515 
L 421.494721 249.255921 
L 422.135115 251.571759 
L 422.77551 322.722681 
L 423.415905 264.009327 
L 424.0563 67.597739 
L 424.696694 424.483538 
L 425.337089 225.260348 
L 425.977484 279.060154 
L 426.617878 269.227151 
L 427.258273 237.404025 
L 427.898668 334.226386 
L 428.539062 240.708721 
L 429.179457 403.872779 
L 429.819852 223.626581 
L 430.460247 319.809853 
L 431.741036 96.998637 
L 432.381431 321.789163 
L 433.021825 326.81662 
L 434.302615 433.938157 
L 434.94301 146.644667 
L 435.583404 77.603293 
L 436.223799 224.045258 
L 436.864194 325.072366 
L 437.504588 351.243066 
L 438.144983 175.156505 
L 438.785378 395.212832 
L 439.425772 144.589932 
L 440.066167 321.961457 
L 440.706562 330.581985 
L 441.346957 93.712563 
L 441.987351 343.530735 
L 442.627746 174.786966 
L 443.268141 158.363709 
L 443.908535 200.578972 
L 444.54893 96.134763 
L 445.189325 287.855449 
L 445.829719 144.361115 
L 447.110509 410.707098 
L 447.750904 170.65144 
L 448.391298 112.55171 
L 449.672088 367.575064 
L 450.312482 365.506402 
L 450.952877 270.341615 
L 451.593272 399.460837 
L 452.233666 149.404834 
L 452.874061 183.648171 
L 453.514456 200.40188 
L 454.154851 360.745945 
L 454.795245 178.245601 
L 455.43564 355.062388 
L 456.076035 123.368592 
L 456.716429 325.24498 
L 457.356824 307.847799 
L 457.997219 212.65902 
L 458.637614 352.300386 
L 459.278008 156.402365 
L 459.918403 336.153636 
L 460.558798 161.230831 
L 461.199192 183.107636 
L 461.839587 348.28785 
L 462.479982 124.049414 
L 463.120376 312.631503 
L 463.760771 118.084364 
L 464.401166 297.913402 
L 465.041561 319.86839 
L 465.681955 353.870045 
L 466.32235 325.8683 
L 466.962745 273.596957 
L 467.603139 289.701095 
L 468.243534 247.469881 
L 468.883929 225.517884 
L 469.524323 319.444554 
L 470.164718 301.078695 
L 470.805113 334.600932 
L 471.445508 305.335786 
L 472.085902 258.668715 
L 472.726297 403.245652 
L 473.366692 246.309961 
L 474.007086 154.811464 
L 474.647481 291.501955 
L 475.287876 277.848458 
L 475.92827 241.35061 
L 476.568665 348.303759 
L 477.20906 277.394714 
L 477.849455 174.04236 
L 478.489849 203.933916 
L 479.130244 186.170828 
L 479.770639 183.657726 
L 480.411033 366.510788 
L 481.051428 141.449398 
L 481.691823 414.467518 
L 482.332218 374.503614 
L 482.972612 169.765025 
L 483.613007 395.528613 
L 484.253402 199.487881 
L 484.893796 101.478592 
L 485.534191 130.509305 
L 486.174586 377.512055 
L 486.81498 368.946546 
L 487.455375 265.199741 
L 488.09577 116.070035 
L 488.736165 399.496436 
L 489.376559 271.022634 
L 490.016954 292.51404 
L 490.657349 391.28056 
L 491.297743 287.1636 
L 491.938138 205.763075 
L 492.578533 279.81788 
L 493.218927 307.340125 
L 493.859322 157.487387 
L 494.499717 294.610015 
L 495.140112 147.817579 
L 495.780506 383.635518 
L 496.420901 409.158651 
L 497.061296 240.047618 
L 497.70169 337.056829 
L 498.342085 248.51556 
L 498.98248 407.642345 
L 499.622874 223.172131 
L 500.263269 321.313184 
L 500.903664 356.835327 
L 501.544059 361.585404 
L 502.184453 196.435268 
L 502.824848 234.952041 
L 503.465243 305.37132 
L 504.105637 177.326042 
L 504.746032 285.641857 
L 505.386427 124.84365 
L 506.026821 423.14633 
L 506.667216 284.121378 
L 507.307611 413.82265 
L 507.948006 179.571699 
L 508.5884 414.111813 
L 509.228795 311.457386 
L 509.86919 246.831833 
L 510.509584 264.545289 
L 511.149979 353.363799 
L 511.790374 196.059001 
L 512.430769 197.702695 
L 513.071163 158.242992 
L 513.711558 373.701984 
L 514.351953 103.016885 
L 514.992347 264.513182 
L 515.632742 324.554861 
L 516.273137 360.841606 
L 516.913531 352.476044 
L 518.194321 241.054231 
L 518.834716 201.556648 
L 519.47511 371.021477 
L 520.115505 292.67203 
L 520.7559 319.740874 
L 521.396294 372.794839 
L 522.036689 319.89592 
L 522.677084 288.324175 
L 523.317478 373.2428 
L 523.957873 228.534183 
L 524.598268 295.723787 
L 525.238663 310.200088 
L 525.879057 330.96912 
L 526.519452 326.144328 
L 527.159847 274.067163 
L 527.800241 132.896566 
L 528.440636 222.297984 
L 529.081031 415.007528 
L 529.721425 280.966955 
L 530.36182 397.278486 
L 531.002215 381.643311 
L 531.64261 248.582152 
L 532.283004 227.403512 
L 532.923399 352.761463 
L 533.563794 419.990179 
L 534.204188 236.585908 
L 534.844583 275.116784 
L 535.484978 442.742934 
L 536.125373 109.33042 
L 537.406162 416.012003 
L 538.046557 150.4431 
L 538.686951 181.349085 
L 539.327346 98.613461 
L 539.967741 395.032654 
L 540.608135 318.11838 
L 541.24853 265.659554 
L 541.888925 297.023458 
L 542.52932 373.89202 
L 543.169714 295.160178 
L 543.810109 245.754413 
L 544.450504 206.537673 
L 545.090898 317.735711 
L 545.731293 122.838309 
L 546.371688 444.243669 
L 547.012082 237.368645 
L 547.652477 420.860124 
L 548.292872 109.965246 
L 548.933267 297.632486 
L 549.573661 236.289146 
L 550.214056 251.245861 
L 550.854451 226.428607 
L 551.494845 294.763845 
L 552.13524 379.493466 
L 552.775635 291.23098 
L 553.416029 298.80446 
L 554.056424 436.941138 
L 555.337214 179.976179 
L 555.977608 284.805905 
L 556.618003 333.142893 
L 557.258398 174.600331 
L 557.898792 338.190403 
L 558.539187 121.758995 
L 559.179582 406.894732 
L 559.819977 96.285426 
L 560.460371 106.485406 
L 561.100766 279.318382 
L 561.741161 287.753645 
L 562.381555 248.067667 
L 563.02195 333.185792 
L 563.662345 121.825304 
L 564.302739 244.075936 
L 564.943134 447.687547 
L 565.583529 187.083805 
L 566.223924 243.453239 
L 566.864318 272.792519 
L 567.504713 138.470261 
L 568.145108 242.444035 
L 568.785502 260.329124 
L 569.425897 272.554926 
L 570.066292 172.068859 
L 570.706686 305.304092 
L 571.347081 325.938738 
L 571.987476 127.917728 
L 572.627871 372.818126 
L 573.268265 399.115539 
L 573.90866 76.66095 
L 574.549055 223.565234 
L 575.189449 449.973916 
L 575.829844 184.476543 
L 576.470239 123.735106 
L 577.110633 386.174198 
L 577.751028 97.641622 
L 578.391423 386.686602 
L 579.031818 175.475097 
L 579.672212 376.091828 
L 580.312607 171.697903 
L 580.953002 405.208354 
L 581.593396 193.983127 
L 582.233791 356.614649 
L 582.874186 163.80595 
L 583.514581 340.296895 
L 584.154975 279.451905 
L 584.79537 328.648295 
L 585.435765 319.033143 
L 586.076159 283.278846 
L 586.716554 185.461545 
L 587.356949 422.919894 
L 587.997343 390.410927 
L 588.637738 327.544485 
L 589.278133 196.657751 
L 589.918528 251.74691 
L 590.558922 290.119527 
L 591.199317 118.889528 
L 591.839712 451.773558 
L 593.120501 95.792579 
L 593.760896 290.170901 
L 594.40129 320.089694 
L 595.041685 413.62768 
L 595.68208 409.797489 
L 596.322475 122.883978 
L 596.962869 219.707009 
L 597.603264 364.743156 
L 598.243659 199.527191 
L 598.884053 390.175791 
L 599.524448 369.579136 
L 600.164843 118.036333 
L 600.805237 196.436633 
L 601.445632 413.093183 
L 602.086027 243.74191 
L 602.726422 315.973313 
L 603.366816 191.054173 
L 604.007211 277.061216 
L 604.647606 203.566511 
L 605.288 176.124611 
L 605.928395 300.663505 
L 606.56879 357.113354 
L 607.209185 273.441276 
L 607.849579 249.288114 
L 608.489974 408.332142 
L 609.130369 450.025844 
L 609.770763 420.796558 
L 610.411158 271.730565 
L 611.691947 396.193362 
L 612.332342 292.250857 
L 612.972737 166.242803 
L 613.613132 227.276356 
L 614.253526 301.852633 
L 614.893921 183.032561 
L 615.534316 368.028026 
L 616.17471 144.298421 
L 616.815105 337.425348 
L 617.4555 377.070219 
L 618.095894 215.408132 
L 618.736289 166.219381 
L 619.376684 146.723553 
L 620.017079 423.346438 
L 620.657473 230.120604 
L 621.297868 171.997012 
L 621.938263 345.281686 
L 622.578657 158.074235 
L 623.219052 284.177975 
L 623.859447 241.71107 
L 624.499841 271.550727 
L 625.140236 125.07638 
L 625.780631 366.023591 
L 626.421026 283.474073 
L 627.06142 365.861765 
L 627.701815 199.593209 
L 628.34221 335.393708 
L 628.982604 337.641024 
L 629.622999 198.788163 
L 630.263394 203.796519 
L 630.903788 297.978256 
L 631.544183 195.013908 
L 632.184578 406.574795 
L 632.824973 273.165455 
L 633.465367 300.376119 
L 634.105762 89.193195 
L 634.746157 320.890046 
L 635.386551 204.813303 
L 636.026946 230.333489 
L 636.667341 196.391638 
L 637.307736 150.301767 
L 637.94813 266.187961 
L 639.22892 344.434521 
L 640.509709 216.161288 
L 641.150104 310.018131 
L 641.790498 177.454789 
L 642.430893 182.406072 
L 643.071288 290.182726 
L 643.711683 198.82211 
L 644.352077 90.346611 
L 644.992472 275.040667 
L 645.632867 179.723126 
L 646.273261 413.760688 
L 646.913656 259.822667 
L 647.554051 231.064176 
L 648.194445 334.558748 
L 648.83484 324.935728 
L 649.475235 353.3716 
L 650.11563 145.538593 
L 650.756024 259.690236 
L 651.396419 159.328922 
L 652.036814 284.015752 
L 652.677208 384.642734 
L 653.317603 316.383269 
L 653.957998 290.539051 
L 654.598392 435.229543 
L 655.238787 413.467447 
L 655.879182 364.585352 
L 656.519577 333.96032 
L 657.159971 369.324976 
L 657.800366 283.243892 
L 658.440761 368.066817 
L 659.081155 253.826671 
L 659.72155 261.708196 
L 660.361945 313.624392 
L 661.00234 64.575728 
L 661.642734 328.436798 
L 662.283129 247.503376 
L 662.923524 223.356188 
L 663.563918 165.838081 
L 664.204313 401.661908 
L 664.844708 278.22558 
L 665.485102 351.827592 
L 666.125497 231.86748 
L 666.765892 251.877066 
L 667.406287 405.406383 
L 668.046681 281.955165 
L 668.687076 93.020282 
L 669.327471 118.917782 
L 669.967865 88.472682 
L 670.60826 81.602598 
L 671.889049 411.182495 
L 672.529444 159.187037 
L 673.169839 283.293673 
L 673.810234 154.576925 
L 674.450628 244.774563 
L 675.091023 438.746105 
L 676.371812 342.242136 
L 677.012207 172.353668 
L 677.652602 256.647211 
L 678.292996 280.495643 
L 678.933391 146.328086 
L 679.573786 296.919745 
L 680.214181 329.053027 
L 680.854575 353.246273 
L 681.49497 257.702473 
L 682.135365 203.511884 
L 682.775759 284.813897 
L 684.056549 207.733275 
L 684.696944 198.583191 
L 685.337338 262.66689 
L 685.977733 381.727734 
L 686.618128 180.949821 
L 687.258522 371.766507 
L 687.898917 359.332103 
L 688.539312 252.129859 
L 689.179706 228.466492 
L 689.820101 133.918006 
L 690.460496 149.081823 
L 691.100891 241.94878 
L 691.741285 201.674784 
L 692.38168 299.123604 
L 693.022075 94.349237 
L 693.662469 150.322255 
L 694.302864 79.673659 
L 694.943259 433.296016 
L 695.583653 265.135795 
L 696.224048 296.425239 
L 696.864443 380.997718 
L 697.504838 384.920038 
L 698.145232 315.073214 
L 698.785627 166.425134 
L 699.426022 283.760349 
L 700.066416 276.704618 
L 700.706811 150.356318 
L 701.347206 412.118645 
L 701.9876 163.315041 
L 702.627995 92.322292 
L 703.26839 354.124618 
L 703.908785 93.785987 
L 704.549179 201.261131 
L 705.189574 219.292689 
L 705.829969 257.778126 
L 706.470363 197.475002 
L 707.110758 155.45757 
L 707.751153 199.591193 
L 708.391548 412.810295 
L 709.031942 311.160048 
L 709.672337 250.546252 
L 710.312732 252.697957 
L 710.953126 266.006115 
L 711.593521 354.237205 
L 712.233916 243.022514 
L 712.87431 284.41588 
L 713.514705 274.156157 
L 714.1551 363.013302 
L 714.795495 330.142341 
L 715.435889 402.737625 
L 716.076284 338.155589 
L 716.716679 325.038326 
L 717.357073 158.131737 
L 717.997468 344.893664 
L 718.637863 236.932104 
L 719.278257 322.3099 
L 719.918652 216.682535 
L 720.559047 318.831838 
L 721.199442 191.838003 
L 721.839836 240.941303 
L 722.480231 442.123145 
L 723.120626 86.825634 
L 723.76102 224.683473 
L 724.401415 433.158469 
L 725.04181 412.625652 
L 725.682204 230.382842 
L 726.322599 108.046779 
L 726.962994 209.055413 
L 727.603389 337.393142 
L 728.243783 251.747718 
L 728.884178 286.501845 
L 729.524573 381.51957 
L 730.164967 310.948601 
L 730.805362 212.470535 
L 731.445757 386.48085 
L 732.086152 140.833576 
L 732.726546 308.269095 
L 733.366941 371.388899 
L 734.007336 138.38872 
L 734.64773 404.523206 
L 735.288125 292.888847 
L 735.92852 409.315403 
L 736.568914 133.315867 
L 737.209309 263.443979 
L 737.849704 245.38913 
L 738.490099 211.827749 
L 739.130493 276.057634 
L 739.770888 420.861514 
L 740.411283 249.056069 
L 741.051677 116.652145 
L 741.692072 175.980069 
L 742.332467 274.653919 
L 742.972861 296.425405 
L 743.613256 399.882344 
L 744.253651 339.255962 
L 744.894046 324.162014 
L 745.53444 416.614628 
L 746.174835 370.762135 
L 746.81523 122.974298 
L 747.455624 183.045361 
L 748.096019 195.865032 
L 748.736414 300.458834 
L 749.376808 444.314739 
L 750.017203 117.737903 
L 750.657598 128.410753 
L 751.297993 187.035754 
L 751.938387 157.977993 
L 752.578782 426.901253 
L 753.219177 186.476319 
L 753.859571 331.678359 
L 754.499966 349.725395 
L 755.140361 101.012381 
L 755.780755 91.583913 
L 756.42115 152.145552 
L 757.061545 419.258355 
L 757.70194 319.870354 
L 758.342334 248.935572 
L 758.982729 218.235248 
L 759.623124 169.218714 
L 760.263518 273.245019 
L 760.903913 278.810019 
L 761.544308 364.356915 
L 762.184703 312.89218 
L 762.825097 372.836313 
L 763.465492 245.495559 
L 764.105887 304.539781 
L 764.746281 271.090308 
L 765.386676 274.743469 
L 766.027071 312.924048 
L 766.667465 193.676073 
L 767.30786 291.666491 
L 767.948255 317.003439 
L 768.58865 142.994578 
L 769.229044 373.172999 
L 769.869439 281.397023 
L 770.509834 209.566867 
L 771.150228 283.44519 
L 771.790623 435.769217 
L 772.431018 254.061405 
L 773.071412 144.551225 
L 773.711807 203.090935 
L 774.352202 416.014273 
L 774.992597 121.518009 
L 775.632991 295.966271 
L 776.273386 381.275509 
L 776.913781 363.962862 
L 777.554175 429.854792 
L 778.19457 291.722582 
L 778.834965 443.300495 
L 779.475359 181.782942 
L 780.115754 256.29574 
L 780.756149 120.921716 
L 781.396544 266.880074 
L 782.036938 363.936283 
L 782.677333 257.972699 
L 783.317728 171.546218 
L 783.958122 141.003628 
L 784.598517 314.602207 
L 785.238912 351.739985 
L 785.879307 294.3441 
L 786.519701 198.11156 
L 787.160096 352.042121 
L 787.800491 378.090915 
L 788.440885 180.443164 
L 789.08128 404.296492 
L 789.721675 183.139996 
L 790.362069 227.539665 
L 791.002464 308.492375 
L 791.642859 320.540179 
L 792.283254 239.263756 
L 792.923648 413.029306 
L 792.923648 413.029306 
" clip-path="url(#p09cba43ac7)" style="fill: none; stroke: #1f77b4; stroke-width: 3; stroke-linecap: square"/>
   </g>
   <g id="line2d_32">
    <path d="M 153.16934 290.522833 
L 153.809735 339.305927 
L 154.45013 251.191787 
L 155.090525 388.970132 
L 155.730919 188.488346 
L 156.371314 250.33243 
L 157.011709 238.22646 
L 158.292498 354.689169 
L 158.932893 205.363865 
L 159.573287 328.983658 
L 160.213682 308.389812 
L 160.854077 366.846638 
L 161.494472 199.459449 
L 162.134866 400.437437 
L 162.775261 346.122617 
L 163.415656 247.430977 
L 164.05605 177.98205 
L 164.696445 386.235845 
L 165.33684 140.145755 
L 165.977234 364.04828 
L 166.617629 244.369622 
L 167.258024 230.175649 
L 167.898419 267.58232 
L 168.538813 173.382496 
L 169.179208 322.684922 
L 169.819603 257.112399 
L 170.459997 271.137535 
L 171.100392 159.953384 
L 171.740787 366.947132 
L 172.381181 179.518871 
L 173.021576 339.637112 
L 173.661971 340.292733 
L 174.302366 379.308417 
L 174.94276 388.574618 
L 175.583155 263.721432 
L 176.22355 412.411868 
L 176.863944 138.519561 
L 177.504339 349.555755 
L 178.144734 266.845727 
L 178.785128 303.130228 
L 180.065918 133.615472 
L 180.706313 277.429867 
L 181.346707 376.593928 
L 181.987102 303.51269 
L 182.627497 386.52563 
L 183.267891 121.47743 
L 183.908286 298.301569 
L 184.548681 149.783141 
L 185.189076 362.616957 
L 185.82947 409.97875 
L 186.469865 321.445139 
L 187.11026 177.635352 
L 187.750654 328.492474 
L 188.391049 69.462706 
L 189.031444 382.959825 
L 189.671838 284.11884 
L 190.312233 456.032954 
L 190.952628 152.603271 
L 191.593023 116.844524 
L 192.233417 310.00724 
L 192.873812 118.650901 
L 193.514207 445.780168 
L 194.154601 288.635175 
L 194.794996 301.994901 
L 195.435391 253.30042 
L 196.075785 307.821903 
L 196.71618 395.093705 
L 197.356575 178.919924 
L 197.99697 282.917735 
L 198.637364 283.24256 
L 199.277759 285.858626 
L 199.918154 180.064271 
L 200.558548 240.918281 
L 201.839338 409.580477 
L 202.479732 305.601072 
L 203.120127 374.287055 
L 203.760522 256.18833 
L 204.400917 223.112122 
L 205.041311 67.946402 
L 206.322101 386.5616 
L 206.962495 342.739987 
L 207.60289 151.247149 
L 208.243285 263.937578 
L 208.88368 138.13716 
L 210.164469 384.650772 
L 210.804864 419.650154 
L 211.445258 328.668689 
L 212.085653 64.370798 
L 212.726048 443.18195 
L 213.366442 333.271232 
L 214.006837 357.724553 
L 214.647232 359.620506 
L 215.287627 343.331814 
L 215.928021 278.622429 
L 216.568416 427.889297 
L 217.208811 214.368322 
L 217.849205 252.530374 
L 218.4896 174.743152 
L 219.129995 329.662826 
L 219.770389 431.251786 
L 220.410784 179.169549 
L 221.051179 105.26985 
L 221.691574 410.147 
L 222.331968 242.795546 
L 222.972363 339.541062 
L 223.612758 164.611772 
L 224.253152 161.395727 
L 225.533942 436.641562 
L 226.174336 276.827763 
L 226.814731 391.753217 
L 227.455126 184.627471 
L 228.095521 168.502917 
L 228.735915 67.242299 
L 229.37631 201.607939 
L 230.016705 198.264682 
L 230.657099 297.240607 
L 231.297494 242.206408 
L 231.937889 384.95028 
L 232.578284 296.645794 
L 233.218678 175.396623 
L 233.859073 258.138458 
L 234.499468 266.797124 
L 235.139862 135.719556 
L 235.780257 182.023034 
L 236.420652 284.772637 
L 237.061046 323.962493 
L 237.701441 353.772974 
L 238.341836 282.670281 
L 238.982231 429.732046 
L 239.622625 223.152862 
L 240.26302 405.422955 
L 240.903415 292.010542 
L 241.543809 315.077135 
L 242.184204 277.53926 
L 242.824599 364.158261 
L 243.464993 231.993878 
L 244.105388 161.462786 
L 244.745783 426.285 
L 245.386178 76.051982 
L 246.026572 318.063331 
L 246.666967 196.109217 
L 247.307362 220.762867 
L 248.588151 385.153924 
L 249.228546 366.422334 
L 249.86894 100.620393 
L 250.509335 225.417536 
L 251.14973 113.748527 
L 251.790125 134.940752 
L 252.430519 352.651414 
L 253.070914 167.21695 
L 253.711309 107.616271 
L 254.351703 217.733975 
L 254.992098 363.8062 
L 255.632493 332.555913 
L 256.272888 247.494631 
L 256.913282 274.488995 
L 257.553677 237.229197 
L 258.194072 293.936103 
L 258.834466 195.666624 
L 259.474861 156.856507 
L 260.115256 271.783202 
L 260.75565 260.617326 
L 261.396045 274.255989 
L 262.03644 88.213204 
L 262.676835 212.583761 
L 263.317229 363.39925 
L 263.957624 138.532528 
L 264.598019 433.915416 
L 265.238413 304.921795 
L 265.878808 380.756969 
L 266.519203 362.259644 
L 267.159597 299.500601 
L 267.799992 95.11169 
L 268.440387 310.287729 
L 269.080782 399.400704 
L 269.721176 168.866722 
L 271.001966 247.485809 
L 271.64236 262.583971 
L 272.282755 280.393526 
L 272.92315 175.045151 
L 273.563544 257.424299 
L 274.203939 52.333436 
L 274.844334 272.432468 
L 275.484729 384.713516 
L 276.125123 214.115346 
L 277.405913 252.840619 
L 278.046307 86.125385 
L 278.686702 272.007231 
L 279.967491 376.718728 
L 280.607886 417.345205 
L 281.888676 187.189495 
L 282.52907 354.198634 
L 283.169465 311.527923 
L 283.80986 289.192639 
L 284.450254 306.849038 
L 285.090649 378.678812 
L 285.731044 326.100762 
L 286.371439 368.280302 
L 287.011833 347.818164 
L 287.652228 75.895631 
L 288.292623 242.792495 
L 288.933017 316.135944 
L 289.573412 351.426024 
L 290.213807 230.842836 
L 290.854201 296.770793 
L 291.494596 279.977361 
L 292.134991 327.985647 
L 292.775386 402.273748 
L 293.41578 314.08063 
L 294.056175 414.090372 
L 294.69657 143.330908 
L 295.336964 262.0208 
L 295.977359 146.598859 
L 296.617754 359.086529 
L 297.258148 164.20366 
L 297.898543 185.770592 
L 298.538938 407.704442 
L 299.179333 125.613164 
L 299.819727 124.73559 
L 300.460122 442.190186 
L 301.100517 310.822559 
L 301.740911 438.553947 
L 302.381306 157.694597 
L 303.021701 177.27439 
L 303.662095 295.296816 
L 304.30249 445.966134 
L 304.942885 421.361475 
L 305.58328 237.01584 
L 306.223674 283.224515 
L 306.864069 432.978494 
L 307.504464 351.694505 
L 308.144858 206.776372 
L 308.785253 442.458625 
L 309.425648 321.203731 
L 310.066043 363.435214 
L 310.706437 134.400151 
L 311.346832 75.781325 
L 312.627621 215.292435 
L 313.268016 441.730411 
L 313.908411 223.178189 
L 314.548805 411.401733 
L 315.1892 296.548517 
L 315.829595 321.252143 
L 317.110384 180.447823 
L 317.750779 302.576081 
L 318.391174 206.151845 
L 319.031568 428.357175 
L 319.671963 191.363887 
L 320.312358 343.825053 
L 320.952752 132.856934 
L 321.593147 114.234125 
L 322.233542 263.610575 
L 322.873937 270.19474 
L 323.514331 366.373636 
L 324.154726 308.875819 
L 324.795121 133.774807 
L 325.435515 277.980376 
L 326.07591 79.378651 
L 326.716305 455.858482 
L 327.997094 248.669508 
L 328.637489 284.836302 
L 329.277884 202.439652 
L 329.918278 415.186361 
L 330.558673 429.773735 
L 331.199068 410.650705 
L 331.839462 273.479589 
L 332.479857 78.532094 
L 333.120252 330.552784 
L 333.760647 311.371804 
L 334.401041 219.787596 
L 335.041436 401.227941 
L 335.681831 403.402982 
L 336.322225 289.74439 
L 336.96262 327.268539 
L 337.603015 128.455603 
L 338.243409 220.077298 
L 338.883804 449.32951 
L 339.524199 326.575144 
L 340.164594 148.178393 
L 340.804988 292.964058 
L 341.445383 223.766203 
L 342.085778 226.374921 
L 342.726172 292.619488 
L 343.366567 248.021815 
L 344.006962 245.656766 
L 344.647356 383.256415 
L 345.287751 300.213633 
L 345.928146 163.790979 
L 346.568541 284.924915 
L 347.208935 167.221072 
L 347.84933 186.728235 
L 348.489725 350.56802 
L 349.130119 119.208039 
L 349.770514 92.470849 
L 350.410909 278.519718 
L 351.051303 106.582789 
L 351.691698 169.170526 
L 352.332093 264.327076 
L 352.972488 159.136327 
L 353.612882 282.523609 
L 354.253277 325.946638 
L 354.893672 137.394143 
L 355.534066 352.630517 
L 356.174461 262.430312 
L 356.814856 270.31301 
L 357.455251 261.490568 
L 358.095645 152.965334 
L 358.73604 285.333466 
L 359.376435 348.644236 
L 360.016829 333.186124 
L 360.657224 264.548015 
L 361.297619 89.864122 
L 361.938013 278.171023 
L 362.578408 99.9663 
L 363.218803 284.405936 
L 363.859198 382.078067 
L 364.499592 337.340778 
L 365.139987 279.49281 
L 365.780382 321.557941 
L 366.420776 311.483178 
L 367.061171 201.877388 
L 367.701566 288.010341 
L 368.982355 107.227642 
L 369.62275 247.922142 
L 370.903539 146.038261 
L 371.543934 189.595583 
L 372.184329 385.850614 
L 372.824723 420.490427 
L 373.465118 279.965792 
L 374.105513 366.934867 
L 374.745907 358.67507 
L 375.386302 222.597792 
L 376.026697 356.179234 
L 376.667092 305.253277 
L 377.307486 173.521029 
L 377.947881 149.18241 
L 378.588276 337.835261 
L 379.22867 233.853714 
L 379.869065 276.892435 
L 380.50946 364.914581 
L 381.149855 327.788327 
L 381.790249 298.70384 
L 382.430644 392.063211 
L 383.071039 86.207266 
L 383.711433 81.220641 
L 384.351828 217.627714 
L 384.992223 238.745371 
L 385.632617 265.904638 
L 386.273012 344.900556 
L 386.913407 318.03984 
L 387.553802 346.381575 
L 388.194196 222.080981 
L 388.834591 341.7396 
L 389.474986 196.75486 
L 390.11538 242.517928 
L 390.755775 199.09759 
L 391.39617 250.861418 
L 392.036564 223.060056 
L 392.676959 408.583277 
L 393.317354 215.352238 
L 393.957749 325.644203 
L 394.598143 161.601283 
L 395.238538 95.027322 
L 395.878933 194.321707 
L 396.519327 147.423456 
L 397.159722 368.278885 
L 397.800117 361.731119 
L 398.440511 325.274764 
L 399.080906 354.093086 
L 399.721301 413.129203 
L 400.361696 116.869987 
L 401.00209 240.974701 
L 401.642485 428.652757 
L 402.28288 225.166868 
L 402.923274 350.519518 
L 403.563669 265.066046 
L 404.204064 299.398889 
L 404.844458 215.542175 
L 405.484853 433.891668 
L 406.125248 215.4307 
L 406.765643 301.878657 
L 407.406037 134.011452 
L 408.046432 463.171465 
L 408.686827 452.435638 
L 409.327221 288.304751 
L 409.967616 248.895549 
L 410.608011 339.954866 
L 411.248406 390.288555 
L 411.8888 311.267762 
L 412.529195 257.808071 
L 413.16959 313.49996 
L 413.809984 346.820189 
L 414.450379 123.860783 
L 415.090774 143.391725 
L 415.731168 132.913023 
L 416.371563 227.424915 
L 417.011958 276.610038 
L 417.652353 284.392274 
L 418.292747 307.614537 
L 418.933142 254.067673 
L 419.573537 397.477468 
L 420.213931 271.131154 
L 420.854326 346.424194 
L 421.494721 194.047638 
L 422.135115 210.10298 
L 422.77551 324.27119 
L 423.415905 116.778456 
L 424.0563 296.747352 
L 424.696694 101.549911 
L 425.337089 430.908555 
L 425.977484 234.080433 
L 426.617878 220.607978 
L 427.258273 354.730323 
L 427.898668 191.765007 
L 428.539062 149.154672 
L 429.179457 177.300982 
L 429.819852 343.832516 
L 430.460247 130.306044 
L 431.100641 205.792275 
L 431.741036 205.187334 
L 432.381431 419.516031 
L 433.021825 384.706072 
L 433.66222 136.443067 
L 434.302615 232.728878 
L 434.94301 197.174868 
L 435.583404 348.583894 
L 436.223799 154.121923 
L 436.864194 126.167551 
L 437.504588 425.476142 
L 438.144983 134.753413 
L 438.785378 278.62256 
L 439.425772 235.081303 
L 440.066167 412.046198 
L 440.706562 349.127669 
L 441.346957 322.594305 
L 441.987351 257.659681 
L 442.627746 164.087831 
L 443.268141 382.504808 
L 443.908535 165.391687 
L 444.54893 303.153648 
L 445.829719 429.7438 
L 446.470114 378.776264 
L 447.110509 254.828405 
L 447.750904 387.211335 
L 448.391298 302.38139 
L 449.031693 308.815595 
L 449.672088 435.557864 
L 450.312482 385.216063 
L 450.952877 323.115254 
L 451.593272 205.123816 
L 452.233666 301.874012 
L 452.874061 168.950704 
L 453.514456 414.283423 
L 454.154851 115.202969 
L 454.795245 356.847156 
L 455.43564 260.805382 
L 456.076035 373.68769 
L 456.716429 341.974946 
L 457.356824 164.322974 
L 457.997219 447.498093 
L 458.637614 255.968318 
L 459.278008 289.839702 
L 459.918403 452.195682 
L 460.558798 212.977752 
L 461.839587 363.57426 
L 462.479982 233.419598 
L 463.120376 318.042043 
L 463.760771 310.566548 
L 464.401166 194.407124 
L 465.041561 250.683016 
L 465.681955 113.717419 
L 466.32235 355.113712 
L 466.962745 343.439046 
L 467.603139 371.114044 
L 468.243534 250.524819 
L 468.883929 225.3983 
L 469.524323 86.295248 
L 470.164718 323.765024 
L 470.805113 179.596979 
L 471.445508 130.345115 
L 472.085902 254.76909 
L 472.726297 218.306913 
L 473.366692 158.673194 
L 474.007086 297.401597 
L 474.647481 146.697093 
L 475.287876 308.236517 
L 475.92827 239.888576 
L 476.568665 335.663396 
L 477.20906 226.771862 
L 477.849455 310.371195 
L 478.489849 355.054094 
L 479.130244 318.008241 
L 479.770639 317.164364 
L 480.411033 160.582861 
L 481.051428 438.242686 
L 481.691823 186.630597 
L 482.972612 429.662972 
L 483.613007 153.343406 
L 484.253402 355.784136 
L 485.534191 193.968719 
L 486.174586 380.375778 
L 486.81498 387.162618 
L 487.455375 73.368497 
L 488.09577 336.335318 
L 488.736165 233.264345 
L 489.376559 219.977097 
L 490.016954 222.639429 
L 490.657349 384.394913 
L 491.297743 325.2553 
L 491.938138 114.29486 
L 492.578533 283.49083 
L 493.218927 247.472143 
L 493.859322 230.233189 
L 494.499717 166.112905 
L 495.140112 256.970473 
L 495.780506 140.540562 
L 496.420901 344.918304 
L 497.061296 313.659952 
L 497.70169 392.428105 
L 498.342085 264.438453 
L 498.98248 165.592344 
L 499.622874 139.457502 
L 500.263269 284.980535 
L 500.903664 90.749744 
L 501.544059 387.001916 
L 502.184453 411.980813 
L 503.465243 205.511371 
L 504.105637 225.744115 
L 504.746032 227.410191 
L 505.386427 171.043243 
L 506.026821 320.180711 
L 506.667216 140.653821 
L 507.307611 194.888189 
L 507.948006 239.546325 
L 508.5884 158.380593 
L 509.228795 328.094607 
L 509.86919 100.216249 
L 510.509584 205.335504 
L 511.149979 171.19617 
L 511.790374 219.845332 
L 512.430769 427.815032 
L 513.071163 340.761169 
L 513.711558 377.962728 
L 514.351953 308.937897 
L 514.992347 379.445853 
L 515.632742 376.102142 
L 516.273137 421.198405 
L 516.913531 397.359091 
L 517.553926 127.666532 
L 518.194321 229.845544 
L 518.834716 222.048619 
L 519.47511 376.272031 
L 520.115505 113.523869 
L 520.7559 207.995919 
L 521.396294 344.549538 
L 522.036689 350.288902 
L 522.677084 150.926084 
L 523.317478 158.478312 
L 524.598268 134.986804 
L 525.238663 49.041477 
L 525.879057 226.884455 
L 526.519452 57.325253 
L 527.159847 410.062959 
L 527.800241 256.445248 
L 528.440636 247.529908 
L 529.081031 188.692016 
L 529.721425 322.065763 
L 530.36182 341.936145 
L 531.002215 100.375514 
L 531.64261 303.525527 
L 532.283004 250.905468 
L 532.923399 384.532511 
L 533.563794 181.816816 
L 534.204188 164.295092 
L 534.844583 229.97431 
L 535.484978 171.695331 
L 536.125373 198.221074 
L 536.765767 438.260213 
L 537.406162 242.834363 
L 538.046557 295.623638 
L 538.686951 123.147427 
L 539.327346 276.307594 
L 539.967741 400.107905 
L 540.608135 370.035173 
L 541.24853 307.941681 
L 541.888925 133.630364 
L 542.52932 217.44496 
L 543.169714 332.358414 
L 543.810109 143.853476 
L 544.450504 173.548177 
L 545.090898 264.269175 
L 545.731293 391.478093 
L 546.371688 205.000789 
L 547.012082 402.512466 
L 547.652477 375.337275 
L 548.292872 335.684245 
L 548.933267 306.489563 
L 549.573661 394.521826 
L 550.214056 335.560966 
L 550.854451 210.891781 
L 551.494845 189.527092 
L 552.13524 159.099033 
L 552.775635 196.596982 
L 553.416029 295.127643 
L 554.056424 128.327602 
L 554.696819 182.652036 
L 555.337214 300.197839 
L 555.977608 209.676772 
L 556.618003 174.861324 
L 557.258398 308.991628 
L 557.898792 143.55806 
L 558.539187 232.91703 
L 559.179582 252.571798 
L 559.819977 379.588299 
L 560.460371 254.528544 
L 561.100766 151.819762 
L 561.741161 94.412895 
L 562.381555 179.990782 
L 563.02195 412.087233 
L 563.662345 267.6344 
L 564.302739 328.60869 
L 564.943134 300.463985 
L 565.583529 352.175702 
L 566.223924 285.177626 
L 566.864318 304.157747 
L 567.504713 352.628409 
L 568.145108 391.347805 
L 568.785502 302.001053 
L 569.425897 400.091929 
L 570.066292 382.035768 
L 570.706686 159.562668 
L 571.347081 377.326581 
L 571.987476 332.464286 
L 572.627871 403.99962 
L 573.268265 274.50093 
L 573.90866 374.992379 
L 574.549055 404.710014 
L 575.189449 187.0557 
L 575.829844 246.372958 
L 576.470239 371.251462 
L 577.110633 158.610109 
L 577.751028 346.064104 
L 578.391423 91.27749 
L 579.031818 311.640135 
L 579.672212 222.701407 
L 580.312607 365.96699 
L 580.953002 231.942349 
L 581.593396 256.331146 
L 582.233791 141.450169 
L 582.874186 280.468914 
L 583.514581 184.348423 
L 584.154975 401.536963 
L 584.79537 164.411456 
L 585.435765 231.487973 
L 586.076159 430.355075 
L 586.716554 437.571006 
L 587.356949 145.277456 
L 587.997343 300.511093 
L 588.637738 380.086681 
L 589.278133 157.304588 
L 589.918528 129.513008 
L 590.558922 149.811193 
L 591.199317 353.283984 
L 591.839712 303.306717 
L 592.480106 366.716303 
L 593.120501 325.221486 
L 593.760896 378.626901 
L 594.40129 412.375665 
L 595.041685 193.816192 
L 595.68208 273.107364 
L 596.322475 305.956316 
L 596.962869 417.271511 
L 597.603264 398.171064 
L 598.243659 258.112149 
L 598.884053 210.62892 
L 599.524448 241.447111 
L 600.164843 377.861851 
L 600.805237 421.937442 
L 601.445632 213.556359 
L 602.086027 238.546284 
L 602.726422 96.837048 
L 603.366816 175.13666 
L 604.007211 295.7519 
L 604.647606 114.527841 
L 605.288 189.275296 
L 605.928395 150.114511 
L 606.56879 158.049821 
L 607.209185 152.98581 
L 607.849579 102.832132 
L 608.489974 282.419649 
L 609.130369 208.481991 
L 610.411158 411.75573 
L 611.051553 370.980277 
L 611.691947 245.348216 
L 612.332342 391.273174 
L 612.972737 363.051083 
L 613.613132 232.072816 
L 614.253526 218.290049 
L 614.893921 352.405767 
L 615.534316 262.396886 
L 616.17471 359.276602 
L 616.815105 90.537553 
L 617.4555 91.232275 
L 618.095894 212.502665 
L 618.736289 267.516321 
L 619.376684 172.689961 
L 620.017079 385.384886 
L 620.657473 361.629786 
L 621.297868 246.985522 
L 621.938263 288.65088 
L 622.578657 306.058524 
L 623.219052 166.28432 
L 623.859447 110.072226 
L 624.499841 98.211453 
L 625.140236 370.584487 
L 625.780631 233.903496 
L 626.421026 142.842916 
L 627.06142 105.813647 
L 627.701815 156.502775 
L 628.34221 309.650221 
L 628.982604 291.444548 
L 629.622999 287.633607 
L 630.263394 196.089817 
L 630.903788 379.82491 
L 631.544183 195.991769 
L 632.184578 298.832155 
L 632.824973 264.774055 
L 633.465367 102.374316 
L 634.105762 316.512649 
L 634.746157 449.388327 
L 635.386551 376.844839 
L 636.026946 399.351982 
L 636.667341 340.559815 
L 637.307736 170.000679 
L 637.94813 369.178121 
L 638.588525 98.092133 
L 639.22892 180.096541 
L 639.869314 237.26774 
L 640.509709 132.317815 
L 641.150104 399.858963 
L 641.790498 374.317239 
L 643.071288 128.034842 
L 643.711683 108.334282 
L 644.352077 256.768332 
L 644.992472 454.204113 
L 645.632867 394.956127 
L 646.273261 102.16002 
L 646.913656 255.920394 
L 647.554051 255.75353 
L 648.194445 136.290393 
L 648.83484 336.747737 
L 649.475235 377.960975 
L 650.11563 205.076663 
L 650.756024 334.898426 
L 651.396419 245.68998 
L 652.036814 97.295833 
L 652.677208 294.898471 
L 653.317603 290.39942 
L 653.957998 138.633066 
L 654.598392 157.579347 
L 655.238787 295.750342 
L 655.879182 249.230072 
L 656.519577 224.061623 
L 657.159971 215.668244 
L 657.800366 148.46182 
L 658.440761 359.780783 
L 659.081155 250.783147 
L 659.72155 166.572178 
L 660.361945 219.227753 
L 661.00234 322.889224 
L 661.642734 202.221445 
L 662.283129 393.223585 
L 662.923524 195.026484 
L 663.563918 264.404847 
L 664.204313 157.695516 
L 664.844708 366.060635 
L 665.485102 141.01119 
L 666.125497 403.906017 
L 666.765892 369.979993 
L 667.406287 238.070774 
L 668.046681 218.456528 
L 668.687076 313.768631 
L 669.327471 335.582467 
L 669.967865 264.946773 
L 670.60826 361.732855 
L 671.248655 116.950376 
L 671.889049 371.820739 
L 672.529444 171.035982 
L 673.169839 365.739683 
L 673.810234 435.484929 
L 674.450628 391.387558 
L 675.731418 86.166017 
L 676.371812 153.523513 
L 677.012207 341.688754 
L 677.652602 234.657304 
L 678.292996 433.886604 
L 678.933391 257.428402 
L 679.573786 156.717799 
L 680.854575 365.557078 
L 681.49497 65.501225 
L 682.135365 180.914815 
L 682.775759 413.058062 
L 683.416154 356.916926 
L 684.056549 368.058164 
L 684.696944 420.301707 
L 685.337338 408.472234 
L 685.977733 123.768283 
L 686.618128 232.979423 
L 687.258522 269.463278 
L 687.898917 131.551452 
L 688.539312 172.487478 
L 689.179706 251.803012 
L 689.820101 301.801056 
L 690.460496 430.553739 
L 691.100891 393.880659 
L 691.741285 111.750861 
L 692.38168 81.443607 
L 693.022075 388.256177 
L 693.662469 205.529491 
L 694.302864 352.065486 
L 694.943259 241.623623 
L 695.583653 225.711112 
L 696.224048 335.725962 
L 696.864443 189.854658 
L 697.504838 170.32041 
L 698.145232 251.95335 
L 699.426022 365.816763 
L 700.066416 251.368497 
L 700.706811 412.827482 
L 701.347206 192.108685 
L 701.9876 421.045757 
L 702.627995 356.366986 
L 703.26839 187.805894 
L 704.549179 295.861895 
L 705.189574 118.474748 
L 705.829969 257.299233 
L 706.470363 148.440839 
L 707.110758 187.271231 
L 707.751153 199.076095 
L 708.391548 257.036309 
L 709.031942 184.691135 
L 709.672337 408.626112 
L 710.312732 351.412165 
L 710.953126 440.937843 
L 711.593521 122.087114 
L 712.233916 253.304926 
L 712.87431 252.654666 
L 713.514705 365.221926 
L 714.1551 310.715786 
L 714.795495 310.480824 
L 715.435889 237.52796 
L 716.076284 135.041746 
L 717.357073 313.84738 
L 717.997468 172.778324 
L 718.637863 282.131823 
L 719.278257 124.980891 
L 719.918652 328.623157 
L 720.559047 378.114417 
L 721.199442 149.741445 
L 721.839836 449.114225 
L 722.480231 281.691645 
L 723.120626 339.178173 
L 723.76102 440.925316 
L 724.401415 160.112815 
L 725.04181 206.071989 
L 725.682204 330.853214 
L 726.322599 245.803955 
L 726.962994 435.076031 
L 728.243783 113.610349 
L 728.884178 374.797369 
L 729.524573 115.814746 
L 730.164967 316.516363 
L 730.805362 177.321948 
L 731.445757 402.97043 
L 732.086152 173.38702 
L 732.726546 287.503409 
L 733.366941 363.712326 
L 734.007336 168.407439 
L 734.64773 398.406772 
L 735.288125 311.341272 
L 735.92852 375.795415 
L 736.568914 276.307597 
L 737.209309 209.025968 
L 737.849704 225.846931 
L 738.490099 378.931432 
L 739.130493 337.70857 
L 739.770888 226.85607 
L 740.411283 340.02223 
L 741.051677 308.154193 
L 741.692072 376.049214 
L 742.332467 172.314591 
L 742.972861 130.485269 
L 743.613256 351.189876 
L 744.253651 212.052419 
L 744.894046 315.979595 
L 745.53444 297.827771 
L 746.174835 298.91762 
L 746.81523 331.296494 
L 747.455624 297.805403 
L 748.096019 460.655293 
L 749.376808 242.964212 
L 750.017203 288.562168 
L 750.657598 172.809183 
L 751.297993 166.914367 
L 751.938387 276.291133 
L 752.578782 242.162569 
L 753.219177 267.249285 
L 753.859571 189.646379 
L 754.499966 324.706907 
L 755.140361 336.003925 
L 755.780755 323.573291 
L 756.42115 327.122316 
L 757.061545 210.370439 
L 757.70194 193.735204 
L 758.342334 184.950059 
L 758.982729 259.000911 
L 759.623124 175.401667 
L 760.263518 412.203224 
L 760.903913 417.966871 
L 761.544308 340.058069 
L 762.184703 214.778152 
L 762.825097 171.007525 
L 763.465492 212.290417 
L 764.105887 379.186728 
L 764.746281 141.158055 
L 765.386676 314.094866 
L 766.027071 419.099106 
L 766.667465 174.738104 
L 767.30786 187.520726 
L 767.948255 437.831624 
L 768.58865 171.256554 
L 769.229044 67.391661 
L 769.869439 328.29112 
L 770.509834 133.216997 
L 771.150228 445.0594 
L 771.790623 167.965316 
L 772.431018 424.791214 
L 773.071412 425.040229 
L 773.711807 448.046448 
L 774.352202 310.779879 
L 774.992597 228.636691 
L 776.273386 121.350043 
L 776.913781 203.418245 
L 777.554175 192.028063 
L 778.19457 138.239912 
L 778.834965 267.368845 
L 779.475359 279.283041 
L 780.115754 259.373045 
L 780.756149 288.950561 
L 781.396544 221.427013 
L 782.036938 140.600264 
L 782.677333 344.603754 
L 783.317728 285.333305 
L 783.958122 339.467838 
L 784.598517 292.044288 
L 785.238912 421.450345 
L 786.519701 236.330036 
L 787.160096 395.773962 
L 787.800491 346.653974 
L 788.440885 135.734463 
L 789.08128 314.119107 
L 789.721675 219.548894 
L 790.362069 106.722221 
L 791.002464 423.265831 
L 791.642859 311.301226 
L 792.283254 388.816718 
L 792.923648 290.603886 
L 792.923648 290.603886 
" clip-path="url(#p09cba43ac7)" style="fill: none; stroke-dasharray: 11.1,4.8; stroke-dashoffset: 0; stroke: #ff7f0e; stroke-width: 3"/>
   </g>
   <g id="patch_3">
    <path d="M 121.181625 489.2325 
L 121.181625 28.08 
" style="fill: none; stroke: #000000; stroke-width: 2; stroke-linejoin: miter; stroke-linecap: square"/>
   </g>
   <g id="patch_4">
    <path d="M 824.911364 489.2325 
L 824.911364 28.08 
" style="fill: none; stroke: #000000; stroke-width: 2; stroke-linejoin: miter; stroke-linecap: square"/>
   </g>
   <g id="patch_5">
    <path d="M 121.181625 489.2325 
L 824.911364 489.2325 
" style="fill: none; stroke: #000000; stroke-width: 2; stroke-linejoin: miter; stroke-linecap: square"/>
   </g>
   <g id="patch_6">
    <path d="M 121.181625 28.08 
L 824.911364 28.08 
" style="fill: none; stroke: #000000; stroke-width: 2; stroke-linejoin: miter; stroke-linecap: square"/>
   </g>
  </g>
 </g>
 <defs>
  <clipPath id="p09cba43ac7">
   <rect x="121.181625" y="28.08" width="703.729739" height="461.1525"/>
  </clipPath>
 </defs>
</svg>
