<?xml version="1.0" encoding="utf-8" standalone="no"?>
<!DOCTYPE svg PUBLIC "-//W3C//DTD SVG 1.1//EN"
  "http://www.w3.org/Graphics/SVG/1.1/DTD/svg11.dtd">
<svg xmlns:xlink="http://www.w3.org/1999/xlink" width="864pt" height="432pt" viewBox="0 0 864 432" xmlns="http://www.w3.org/2000/svg" version="1.1">
 <metadata>
  <rdf:RDF xmlns:dc="http://purl.org/dc/elements/1.1/" xmlns:cc="http://creativecommons.org/ns#" xmlns:rdf="http://www.w3.org/1999/02/22-rdf-syntax-ns#">
   <cc:Work>
    <dc:type rdf:resource="http://purl.org/dc/dcmitype/StillImage"/>
    <dc:date>2025-07-11T14:35:53.043917</dc:date>
    <dc:format>image/svg+xml</dc:format>
    <dc:creator>
     <cc:Agent>
      <dc:title>Matplotlib v3.7.2, https://matplotlib.org/</dc:title>
     </cc:Agent>
    </dc:creator>
   </cc:Work>
  </rdf:RDF>
 </metadata>
 <defs>
  <style type="text/css">*{stroke-linejoin: round; stroke-linecap: butt}</style>
 </defs>
 <g id="figure_1">
  <g id="patch_1">
   <path d="M 0 432 
L 864 432 
L 864 0 
L 0 0 
z
" style="fill: #ffffff"/>
  </g>
  <g id="axes_1">
   <g id="patch_2">
    <path d="M 178.05 345.2325 
L 440.438584 345.2325 
L 440.438584 50.52 
L 178.05 50.52 
z
" style="fill: #ffffff"/>
   </g>
   <g id="matplotlib.axis_1">
    <g id="xtick_1">
     <g id="line2d_1">
      <path d="M 189.976754 345.2325 
L 189.976754 50.52 
" clip-path="url(#p6d804795b4)" style="fill: none; stroke-dasharray: 3.7,1.6; stroke-dashoffset: 0; stroke: #b0b0b0; stroke-opacity: 0.5"/>
     </g>
     <g id="line2d_2">
      <defs>
       <path id="mee848fccbe" d="M 0 0 
L 0 -10 
" style="stroke: #000000; stroke-width: 2"/>
      </defs>
      <g>
       <use xlink:href="#mee848fccbe" x="189.976754" y="345.2325" style="stroke: #000000; stroke-width: 2"/>
      </g>
     </g>
     <g id="line2d_3">
      <defs>
       <path id="m5d60465a2f" d="M 0 0 
L 0 10 
" style="stroke: #000000; stroke-width: 2"/>
      </defs>
      <g>
       <use xlink:href="#m5d60465a2f" x="189.976754" y="50.52" style="stroke: #000000; stroke-width: 2"/>
      </g>
     </g>
     <g id="text_1">
      <!-- 0 -->
      <g transform="translate(181.705504 368.488437) scale(0.26 -0.26)">
       <defs>
        <path id="DejaVuSerif-30" d="M 2034 219 
Q 2513 219 2750 744 
Q 2988 1269 2988 2328 
Q 2988 3391 2750 3916 
Q 2513 4441 2034 4441 
Q 1556 4441 1318 3916 
Q 1081 3391 1081 2328 
Q 1081 1269 1318 744 
Q 1556 219 2034 219 
z
M 2034 -91 
Q 1275 -91 848 546 
Q 422 1184 422 2328 
Q 422 3475 848 4112 
Q 1275 4750 2034 4750 
Q 2797 4750 3222 4112 
Q 3647 3475 3647 2328 
Q 3647 1184 3222 546 
Q 2797 -91 2034 -91 
z
" transform="scale(0.015625)"/>
       </defs>
       <use xlink:href="#DejaVuSerif-30"/>
      </g>
     </g>
    </g>
    <g id="xtick_2">
     <g id="line2d_4">
      <path d="M 285.390784 345.2325 
L 285.390784 50.52 
" clip-path="url(#p6d804795b4)" style="fill: none; stroke-dasharray: 3.7,1.6; stroke-dashoffset: 0; stroke: #b0b0b0; stroke-opacity: 0.5"/>
     </g>
     <g id="line2d_5">
      <g>
       <use xlink:href="#mee848fccbe" x="285.390784" y="345.2325" style="stroke: #000000; stroke-width: 2"/>
      </g>
     </g>
     <g id="line2d_6">
      <g>
       <use xlink:href="#m5d60465a2f" x="285.390784" y="50.52" style="stroke: #000000; stroke-width: 2"/>
      </g>
     </g>
     <g id="text_2">
      <!-- 20 -->
      <g transform="translate(268.848284 368.488437) scale(0.26 -0.26)">
       <defs>
        <path id="DejaVuSerif-32" d="M 819 3553 
L 469 3553 
L 469 4384 
Q 803 4563 1142 4656 
Q 1481 4750 1806 4750 
Q 2534 4750 2956 4397 
Q 3378 4044 3378 3438 
Q 3378 2753 2422 1800 
Q 2347 1728 2309 1691 
L 1131 513 
L 3078 513 
L 3078 1088 
L 3444 1088 
L 3444 0 
L 434 0 
L 434 341 
L 1850 1753 
Q 2319 2222 2519 2614 
Q 2719 3006 2719 3438 
Q 2719 3909 2473 4175 
Q 2228 4441 1797 4441 
Q 1350 4441 1106 4219 
Q 863 3997 819 3553 
z
" transform="scale(0.015625)"/>
       </defs>
       <use xlink:href="#DejaVuSerif-32"/>
       <use xlink:href="#DejaVuSerif-30" x="63.623047"/>
      </g>
     </g>
    </g>
    <g id="xtick_3">
     <g id="line2d_7">
      <path d="M 380.804815 345.2325 
L 380.804815 50.52 
" clip-path="url(#p6d804795b4)" style="fill: none; stroke-dasharray: 3.7,1.6; stroke-dashoffset: 0; stroke: #b0b0b0; stroke-opacity: 0.5"/>
     </g>
     <g id="line2d_8">
      <g>
       <use xlink:href="#mee848fccbe" x="380.804815" y="345.2325" style="stroke: #000000; stroke-width: 2"/>
      </g>
     </g>
     <g id="line2d_9">
      <g>
       <use xlink:href="#m5d60465a2f" x="380.804815" y="50.52" style="stroke: #000000; stroke-width: 2"/>
      </g>
     </g>
     <g id="text_3">
      <!-- 40 -->
      <g transform="translate(364.262315 368.488437) scale(0.26 -0.26)">
       <defs>
        <path id="DejaVuSerif-34" d="M 2234 1581 
L 2234 4063 
L 641 1581 
L 2234 1581 
z
M 3609 0 
L 1484 0 
L 1484 331 
L 2234 331 
L 2234 1247 
L 197 1247 
L 197 1588 
L 2241 4750 
L 2859 4750 
L 2859 1581 
L 3750 1581 
L 3750 1247 
L 2859 1247 
L 2859 331 
L 3609 331 
L 3609 0 
z
" transform="scale(0.015625)"/>
       </defs>
       <use xlink:href="#DejaVuSerif-34"/>
       <use xlink:href="#DejaVuSerif-30" x="63.623047"/>
      </g>
     </g>
    </g>
    <g id="text_4">
     <!-- $t$ (a.u.) -->
     <g transform="translate(265.824292 397.651563) scale(0.26 -0.26)">
      <defs>
       <path id="Cmmi10-74" d="M 397 519 
Q 397 613 416 697 
L 878 2534 
L 206 2534 
Q 141 2534 141 2619 
Q 166 2759 225 2759 
L 934 2759 
L 1191 3803 
Q 1216 3888 1291 3947 
Q 1366 4006 1459 4006 
Q 1541 4006 1595 3957 
Q 1650 3909 1650 3828 
Q 1650 3809 1648 3798 
Q 1647 3788 1644 3775 
L 1388 2759 
L 2047 2759 
Q 2113 2759 2113 2675 
Q 2109 2659 2100 2621 
Q 2091 2584 2075 2559 
Q 2059 2534 2028 2534 
L 1331 2534 
L 872 684 
Q 825 503 825 372 
Q 825 97 1013 97 
Q 1294 97 1511 361 
Q 1728 625 1844 941 
Q 1869 978 1894 978 
L 1972 978 
Q 1997 978 2012 961 
Q 2028 944 2028 922 
Q 2028 909 2022 903 
Q 1881 516 1612 222 
Q 1344 -72 997 -72 
Q 744 -72 570 93 
Q 397 259 397 519 
z
" transform="scale(0.015625)"/>
       <path id="DejaVuSerif-20" transform="scale(0.015625)"/>
       <path id="DejaVuSerif-28" d="M 2041 -997 
Q 1281 -656 893 83 
Q 506 822 506 1931 
Q 506 3044 893 3783 
Q 1281 4522 2041 4863 
L 2041 4556 
Q 1559 4225 1350 3623 
Q 1141 3022 1141 1931 
Q 1141 844 1350 242 
Q 1559 -359 2041 -691 
L 2041 -997 
z
" transform="scale(0.015625)"/>
       <path id="DejaVuSerif-61" d="M 2547 1044 
L 2547 1747 
L 1806 1747 
Q 1378 1747 1168 1562 
Q 959 1378 959 997 
Q 959 650 1171 447 
Q 1384 244 1747 244 
Q 2106 244 2326 466 
Q 2547 688 2547 1044 
z
M 3122 2075 
L 3122 331 
L 3634 331 
L 3634 0 
L 2547 0 
L 2547 359 
Q 2356 128 2106 18 
Q 1856 -91 1522 -91 
Q 969 -91 644 203 
Q 319 497 319 997 
Q 319 1513 691 1797 
Q 1063 2081 1741 2081 
L 2547 2081 
L 2547 2309 
Q 2547 2688 2317 2895 
Q 2088 3103 1672 3103 
Q 1328 3103 1125 2947 
Q 922 2791 872 2484 
L 575 2484 
L 575 3156 
Q 875 3284 1158 3348 
Q 1441 3413 1709 3413 
Q 2400 3413 2761 3070 
Q 3122 2728 3122 2075 
z
" transform="scale(0.015625)"/>
       <path id="DejaVuSerif-2e" d="M 603 325 
Q 603 500 722 622 
Q 841 744 1019 744 
Q 1191 744 1312 622 
Q 1434 500 1434 325 
Q 1434 153 1312 31 
Q 1191 -91 1019 -91 
Q 841 -91 722 29 
Q 603 150 603 325 
z
" transform="scale(0.015625)"/>
       <path id="DejaVuSerif-75" d="M 2266 3322 
L 3341 3322 
L 3341 331 
L 3884 331 
L 3884 0 
L 2766 0 
L 2766 588 
Q 2606 256 2353 82 
Q 2100 -91 1766 -91 
Q 1213 -91 952 223 
Q 691 538 691 1209 
L 691 2988 
L 172 2988 
L 172 3322 
L 1269 3322 
L 1269 1388 
Q 1269 781 1417 556 
Q 1566 331 1947 331 
Q 2347 331 2556 625 
Q 2766 919 2766 1478 
L 2766 2988 
L 2266 2988 
L 2266 3322 
z
" transform="scale(0.015625)"/>
       <path id="DejaVuSerif-29" d="M 453 -997 
L 453 -691 
Q 934 -359 1145 242 
Q 1356 844 1356 1931 
Q 1356 3022 1145 3623 
Q 934 4225 453 4556 
L 453 4863 
Q 1216 4522 1603 3783 
Q 1991 3044 1991 1931 
Q 1991 822 1603 83 
Q 1216 -656 453 -997 
z
" transform="scale(0.015625)"/>
      </defs>
      <use xlink:href="#Cmmi10-74" transform="translate(0 0.015625)"/>
      <use xlink:href="#DejaVuSerif-20" transform="translate(36.083984 0.015625)"/>
      <use xlink:href="#DejaVuSerif-28" transform="translate(67.871094 0.015625)"/>
      <use xlink:href="#DejaVuSerif-61" transform="translate(106.884766 0.015625)"/>
      <use xlink:href="#DejaVuSerif-2e" transform="translate(166.503906 0.015625)"/>
      <use xlink:href="#DejaVuSerif-75" transform="translate(198.291016 0.015625)"/>
      <use xlink:href="#DejaVuSerif-2e" transform="translate(262.695312 0.015625)"/>
      <use xlink:href="#DejaVuSerif-29" transform="translate(294.482422 0.015625)"/>
     </g>
    </g>
   </g>
   <g id="matplotlib.axis_2">
    <g id="ytick_1">
     <g id="line2d_10">
      <path d="M 178.05 338.575533 
L 440.438584 338.575533 
" clip-path="url(#p6d804795b4)" style="fill: none; stroke-dasharray: 3.7,1.6; stroke-dashoffset: 0; stroke: #b0b0b0; stroke-opacity: 0.5"/>
     </g>
     <g id="line2d_11">
      <defs>
       <path id="m8d9729e64b" d="M 0 0 
L 10 0 
" style="stroke: #000000; stroke-width: 2"/>
      </defs>
      <g>
       <use xlink:href="#m8d9729e64b" x="178.05" y="338.575533" style="stroke: #000000; stroke-width: 2"/>
      </g>
     </g>
     <g id="line2d_12">
      <defs>
       <path id="mc0e562f2e2" d="M 0 0 
L -10 0 
" style="stroke: #000000; stroke-width: 2"/>
      </defs>
      <g>
       <use xlink:href="#mc0e562f2e2" x="440.438584" y="338.575533" style="stroke: #000000; stroke-width: 2"/>
      </g>
     </g>
     <g id="text_5">
      <!-- −0.0004 -->
      <g transform="translate(61.787188 348.453501) scale(0.26 -0.26)">
       <defs>
        <path id="DejaVuSerif-2212" d="M 678 2259 
L 4684 2259 
L 4684 1753 
L 678 1753 
L 678 2259 
z
" transform="scale(0.015625)"/>
       </defs>
       <use xlink:href="#DejaVuSerif-2212"/>
       <use xlink:href="#DejaVuSerif-30" x="83.789062"/>
       <use xlink:href="#DejaVuSerif-2e" x="147.412109"/>
       <use xlink:href="#DejaVuSerif-30" x="179.199219"/>
       <use xlink:href="#DejaVuSerif-30" x="242.822266"/>
       <use xlink:href="#DejaVuSerif-30" x="306.445312"/>
       <use xlink:href="#DejaVuSerif-34" x="370.068359"/>
      </g>
     </g>
    </g>
    <g id="ytick_2">
     <g id="line2d_13">
      <path d="M 178.05 262.403129 
L 440.438584 262.403129 
" clip-path="url(#p6d804795b4)" style="fill: none; stroke-dasharray: 3.7,1.6; stroke-dashoffset: 0; stroke: #b0b0b0; stroke-opacity: 0.5"/>
     </g>
     <g id="line2d_14">
      <g>
       <use xlink:href="#m8d9729e64b" x="178.05" y="262.403129" style="stroke: #000000; stroke-width: 2"/>
      </g>
     </g>
     <g id="line2d_15">
      <g>
       <use xlink:href="#mc0e562f2e2" x="440.438584" y="262.403129" style="stroke: #000000; stroke-width: 2"/>
      </g>
     </g>
     <g id="text_6">
      <!-- −0.0003 -->
      <g transform="translate(61.787188 272.281098) scale(0.26 -0.26)">
       <defs>
        <path id="DejaVuSerif-33" d="M 622 4469 
Q 988 4606 1323 4678 
Q 1659 4750 1953 4750 
Q 2638 4750 3022 4454 
Q 3406 4159 3406 3634 
Q 3406 3213 3140 2930 
Q 2875 2647 2388 2547 
Q 2963 2466 3280 2130 
Q 3597 1794 3597 1259 
Q 3597 606 3158 257 
Q 2719 -91 1894 -91 
Q 1528 -91 1179 -12 
Q 831 66 488 225 
L 488 1131 
L 838 1131 
Q 869 681 1141 450 
Q 1413 219 1906 219 
Q 2384 219 2661 495 
Q 2938 772 2938 1253 
Q 2938 1803 2653 2086 
Q 2369 2369 1819 2369 
L 1522 2369 
L 1522 2688 
L 1678 2688 
Q 2225 2688 2498 2914 
Q 2772 3141 2772 3597 
Q 2772 4006 2547 4223 
Q 2322 4441 1900 4441 
Q 1478 4441 1245 4241 
Q 1013 4041 972 3647 
L 622 3647 
L 622 4469 
z
" transform="scale(0.015625)"/>
       </defs>
       <use xlink:href="#DejaVuSerif-2212"/>
       <use xlink:href="#DejaVuSerif-30" x="83.789062"/>
       <use xlink:href="#DejaVuSerif-2e" x="147.412109"/>
       <use xlink:href="#DejaVuSerif-30" x="179.199219"/>
       <use xlink:href="#DejaVuSerif-30" x="242.822266"/>
       <use xlink:href="#DejaVuSerif-30" x="306.445312"/>
       <use xlink:href="#DejaVuSerif-33" x="370.068359"/>
      </g>
     </g>
    </g>
    <g id="ytick_3">
     <g id="line2d_16">
      <path d="M 178.05 186.230726 
L 440.438584 186.230726 
" clip-path="url(#p6d804795b4)" style="fill: none; stroke-dasharray: 3.7,1.6; stroke-dashoffset: 0; stroke: #b0b0b0; stroke-opacity: 0.5"/>
     </g>
     <g id="line2d_17">
      <g>
       <use xlink:href="#m8d9729e64b" x="178.05" y="186.230726" style="stroke: #000000; stroke-width: 2"/>
      </g>
     </g>
     <g id="line2d_18">
      <g>
       <use xlink:href="#mc0e562f2e2" x="440.438584" y="186.230726" style="stroke: #000000; stroke-width: 2"/>
      </g>
     </g>
     <g id="text_7">
      <!-- −0.0002 -->
      <g transform="translate(61.787188 196.108694) scale(0.26 -0.26)">
       <use xlink:href="#DejaVuSerif-2212"/>
       <use xlink:href="#DejaVuSerif-30" x="83.789062"/>
       <use xlink:href="#DejaVuSerif-2e" x="147.412109"/>
       <use xlink:href="#DejaVuSerif-30" x="179.199219"/>
       <use xlink:href="#DejaVuSerif-30" x="242.822266"/>
       <use xlink:href="#DejaVuSerif-30" x="306.445312"/>
       <use xlink:href="#DejaVuSerif-32" x="370.068359"/>
      </g>
     </g>
    </g>
    <g id="ytick_4">
     <g id="line2d_19">
      <path d="M 178.05 110.058322 
L 440.438584 110.058322 
" clip-path="url(#p6d804795b4)" style="fill: none; stroke-dasharray: 3.7,1.6; stroke-dashoffset: 0; stroke: #b0b0b0; stroke-opacity: 0.5"/>
     </g>
     <g id="line2d_20">
      <g>
       <use xlink:href="#m8d9729e64b" x="178.05" y="110.058322" style="stroke: #000000; stroke-width: 2"/>
      </g>
     </g>
     <g id="line2d_21">
      <g>
       <use xlink:href="#mc0e562f2e2" x="440.438584" y="110.058322" style="stroke: #000000; stroke-width: 2"/>
      </g>
     </g>
     <g id="text_8">
      <!-- −0.0001 -->
      <g transform="translate(61.787188 119.936291) scale(0.26 -0.26)">
       <defs>
        <path id="DejaVuSerif-31" d="M 909 0 
L 909 331 
L 1722 331 
L 1722 4213 
L 781 3603 
L 781 4013 
L 1919 4750 
L 2350 4750 
L 2350 331 
L 3163 331 
L 3163 0 
L 909 0 
z
" transform="scale(0.015625)"/>
       </defs>
       <use xlink:href="#DejaVuSerif-2212"/>
       <use xlink:href="#DejaVuSerif-30" x="83.789062"/>
       <use xlink:href="#DejaVuSerif-2e" x="147.412109"/>
       <use xlink:href="#DejaVuSerif-30" x="179.199219"/>
       <use xlink:href="#DejaVuSerif-30" x="242.822266"/>
       <use xlink:href="#DejaVuSerif-30" x="306.445312"/>
       <use xlink:href="#DejaVuSerif-31" x="370.068359"/>
      </g>
     </g>
    </g>
    <g id="text_9">
     <!-- $E(t)$ (a.u.) -->
     <g transform="translate(51.287188 260.92625) rotate(-90) scale(0.26 -0.26)">
      <defs>
       <path id="Cmmi10-45" d="M 300 0 
Q 238 0 238 84 
Q 241 100 250 139 
Q 259 178 276 201 
Q 294 225 319 225 
Q 709 225 863 269 
Q 947 297 984 441 
L 1863 3956 
Q 1875 4019 1875 4044 
Q 1875 4113 1797 4122 
Q 1678 4147 1338 4147 
Q 1275 4147 1275 4231 
Q 1278 4247 1287 4286 
Q 1297 4325 1314 4348 
Q 1331 4372 1356 4372 
L 4825 4372 
Q 4891 4372 4891 4288 
L 4738 2963 
Q 4738 2947 4714 2926 
Q 4691 2906 4672 2906 
L 4616 2906 
Q 4550 2906 4550 2988 
Q 4588 3300 4588 3450 
Q 4588 3706 4500 3848 
Q 4413 3991 4267 4053 
Q 4122 4116 3945 4131 
Q 3769 4147 3481 4147 
L 2753 4147 
Q 2578 4147 2522 4117 
Q 2466 4088 2419 3928 
L 2034 2381 
L 2534 2381 
Q 2859 2381 3025 2426 
Q 3191 2472 3287 2615 
Q 3384 2759 3463 3072 
Q 3469 3094 3486 3111 
Q 3503 3128 3525 3128 
L 3584 3128 
Q 3647 3128 3647 3047 
L 3250 1466 
Q 3238 1409 3188 1409 
L 3128 1409 
Q 3066 1409 3066 1491 
Q 3128 1747 3128 1869 
Q 3128 2056 2959 2106 
Q 2791 2156 2509 2156 
L 1978 2156 
L 1544 416 
Q 1516 338 1516 275 
Q 1516 225 1734 225 
L 2509 225 
Q 2972 225 3259 297 
Q 3547 369 3736 526 
Q 3925 684 4062 928 
Q 4200 1172 4397 1638 
Q 4409 1678 4453 1678 
L 4513 1678 
Q 4538 1678 4556 1656 
Q 4575 1634 4575 1606 
Q 4575 1594 4569 1581 
L 3909 38 
Q 3897 0 3859 0 
L 300 0 
z
" transform="scale(0.015625)"/>
       <path id="Cmr10-28" d="M 1984 -1588 
Q 1628 -1306 1370 -942 
Q 1113 -578 948 -165 
Q 784 247 703 697 
Q 622 1147 622 1600 
Q 622 2059 703 2509 
Q 784 2959 951 3375 
Q 1119 3791 1378 4153 
Q 1638 4516 1984 4788 
Q 1984 4800 2016 4800 
L 2075 4800 
Q 2094 4800 2109 4783 
Q 2125 4766 2125 4744 
Q 2125 4716 2113 4703 
Q 1800 4397 1592 4047 
Q 1384 3697 1257 3301 
Q 1131 2906 1075 2482 
Q 1019 2059 1019 1600 
Q 1019 -434 2106 -1491 
Q 2125 -1509 2125 -1544 
Q 2125 -1559 2108 -1579 
Q 2091 -1600 2075 -1600 
L 2016 -1600 
Q 1984 -1600 1984 -1588 
z
" transform="scale(0.015625)"/>
       <path id="Cmr10-29" d="M 416 -1600 
Q 359 -1600 359 -1544 
Q 359 -1516 372 -1503 
Q 1466 -434 1466 1600 
Q 1466 3634 384 4691 
Q 359 4706 359 4744 
Q 359 4766 376 4783 
Q 394 4800 416 4800 
L 475 4800 
Q 494 4800 506 4788 
Q 966 4425 1272 3906 
Q 1578 3388 1720 2800 
Q 1863 2213 1863 1600 
Q 1863 1147 1786 708 
Q 1709 269 1542 -157 
Q 1375 -584 1119 -945 
Q 863 -1306 506 -1588 
Q 494 -1600 475 -1600 
L 416 -1600 
z
" transform="scale(0.015625)"/>
      </defs>
      <use xlink:href="#Cmmi10-45" transform="translate(0 0.015625)"/>
      <use xlink:href="#Cmr10-28" transform="translate(73.779297 0.015625)"/>
      <use xlink:href="#Cmmi10-74" transform="translate(112.597656 0.015625)"/>
      <use xlink:href="#Cmr10-29" transform="translate(148.681641 0.015625)"/>
      <use xlink:href="#DejaVuSerif-20" transform="translate(187.5 0.015625)"/>
      <use xlink:href="#DejaVuSerif-28" transform="translate(219.287109 0.015625)"/>
      <use xlink:href="#DejaVuSerif-61" transform="translate(258.300781 0.015625)"/>
      <use xlink:href="#DejaVuSerif-2e" transform="translate(317.919922 0.015625)"/>
      <use xlink:href="#DejaVuSerif-75" transform="translate(349.707031 0.015625)"/>
      <use xlink:href="#DejaVuSerif-2e" transform="translate(414.111328 0.015625)"/>
      <use xlink:href="#DejaVuSerif-29" transform="translate(445.898438 0.015625)"/>
     </g>
    </g>
    <g id="text_10">
     <!-- −2.614 -->
     <g transform="translate(178.05 47.52) scale(0.26 -0.26)">
      <defs>
       <path id="DejaVuSerif-36" d="M 2094 219 
Q 2534 219 2771 542 
Q 3009 866 3009 1472 
Q 3009 2078 2771 2401 
Q 2534 2725 2094 2725 
Q 1647 2725 1412 2412 
Q 1178 2100 1178 1509 
Q 1178 888 1415 553 
Q 1653 219 2094 219 
z
M 1075 2569 
Q 1288 2803 1556 2918 
Q 1825 3034 2163 3034 
Q 2859 3034 3264 2615 
Q 3669 2197 3669 1472 
Q 3669 763 3233 336 
Q 2797 -91 2069 -91 
Q 1278 -91 853 498 
Q 428 1088 428 2181 
Q 428 3406 931 4078 
Q 1434 4750 2350 4750 
Q 2597 4750 2869 4703 
Q 3141 4656 3425 4563 
L 3425 3794 
L 3072 3794 
Q 3034 4109 2831 4275 
Q 2628 4441 2284 4441 
Q 1678 4441 1381 3981 
Q 1084 3522 1075 2569 
z
" transform="scale(0.015625)"/>
      </defs>
      <use xlink:href="#DejaVuSerif-2212"/>
      <use xlink:href="#DejaVuSerif-32" x="83.789062"/>
      <use xlink:href="#DejaVuSerif-2e" x="147.412109"/>
      <use xlink:href="#DejaVuSerif-36" x="179.199219"/>
      <use xlink:href="#DejaVuSerif-31" x="242.822266"/>
      <use xlink:href="#DejaVuSerif-34" x="306.445312"/>
     </g>
    </g>
   </g>
   <g id="line2d_22">
    <path d="M 189.976754 209.733912 
L 190.215528 208.160823 
L 190.454302 208.414479 
L 190.693075 210.52186 
L 191.170623 219.249554 
L 192.364492 245.926599 
L 192.84204 251.661806 
L 193.080814 252.88881 
L 193.319588 252.989401 
L 193.558362 252.088038 
L 194.035909 247.614422 
L 194.991005 235.489096 
L 195.229779 233.78365 
L 195.468552 233.110022 
L 195.707326 233.63602 
L 195.9461 235.251506 
L 196.423648 241.519049 
L 198.095065 268.165781 
L 198.572612 272.262973 
L 199.05016 274.129685 
L 199.288934 274.308975 
L 199.527708 274.054423 
L 200.005256 272.576757 
L 201.199125 267.322277 
L 201.437899 266.718661 
L 201.676672 266.421904 
L 201.915446 266.481179 
L 202.15422 266.729517 
L 202.392994 267.415743 
L 203.348089 273.150694 
L 205.497054 288.489809 
L 206.213376 291.726251 
L 206.690923 293.087186 
L 207.168471 293.761951 
L 207.407245 293.825547 
L 207.646019 293.710383 
L 208.123566 292.792376 
L 208.601114 291.036431 
L 209.078662 288.211195 
L 209.55621 284.334377 
L 210.033757 279.368232 
L 210.988853 265.011855 
L 211.705174 251.003397 
L 212.899043 229.490649 
L 213.137817 227.013283 
L 213.376591 225.804047 
L 213.615365 226.322152 
L 213.854139 228.508344 
L 214.331687 238.479434 
L 215.048008 262.605312 
L 216.003104 294.613309 
L 216.719425 309.8387 
L 217.196973 315.007239 
L 217.435747 316.044945 
L 217.67452 316.006391 
L 217.913294 314.871327 
L 218.152068 312.567559 
L 218.629616 304.199586 
L 219.107164 290.066483 
L 219.584711 269.151993 
L 220.062259 240.834128 
L 221.256128 159.96908 
L 221.494902 162.613563 
L 221.733676 150.237844 
L 222.449997 228.985305 
L 222.927545 271.062455 
L 223.405093 297.825908 
L 223.882641 311.025436 
L 224.121414 313.662689 
L 224.360188 313.966863 
L 224.598962 312.048804 
L 224.837736 307.90596 
L 225.315284 292.451162 
L 225.792831 267.445823 
L 226.270379 229.284144 
L 227.225474 134.016242 
L 227.464248 126.098528 
L 227.703022 136.259741 
L 228.18057 197.373886 
L 228.658118 258.777783 
L 229.135665 294.500081 
L 229.613213 309.75051 
L 229.851987 312.004424 
L 230.090761 311.235743 
L 230.329535 307.578023 
L 230.807082 291.633554 
L 231.28463 263.090337 
L 231.762178 219.294849 
L 232.717273 112.976044 
L 232.956047 112.43174 
L 233.194821 135.430855 
L 233.911142 248.439285 
L 234.38869 290.400769 
L 234.866238 307.681974 
L 235.105012 309.965092 
L 235.343785 308.884756 
L 235.582559 304.487555 
L 236.060107 286.015157 
L 236.537655 253.202486 
L 237.015202 203.52623 
L 237.731524 111.740018 
L 237.970298 99.744505 
L 238.209072 112.142431 
L 239.402941 279.379468 
L 239.880489 300.924954 
L 240.119262 304.551136 
L 240.358036 304.417807 
L 240.59681 300.690289 
L 240.835584 294.44145 
L 241.313132 269.913384 
L 241.790679 230.184809 
L 242.507001 139.775584 
L 242.984549 92.350969 
L 243.223322 97.789255 
L 243.70087 168.723555 
L 244.178418 240.641531 
L 244.655966 279.624897 
L 244.894739 289.69332 
L 245.133513 294.930115 
L 245.372287 296.260425 
L 245.611061 294.047278 
L 245.849835 288.840477 
L 246.327383 267.93828 
L 246.80493 232.669348 
L 247.521252 150.751258 
L 247.998799 95.03107 
L 248.237573 83.76039 
L 248.476347 92.833597 
L 248.953895 156.928659 
L 249.431443 221.08743 
L 249.90899 258.417562 
L 250.386538 274.403498 
L 250.625312 276.518577 
L 250.864086 275.34455 
L 251.10286 271.11282 
L 251.580407 253.571082 
L 252.057955 225.107022 
L 252.774276 160.577442 
L 253.490598 86.978342 
L 253.729372 74.408236 
L 253.968146 72.962121 
L 254.20692 82.617316 
L 255.639563 185.617555 
L 255.878337 192.244268 
L 256.11711 195.387542 
L 256.355884 195.421982 
L 256.594658 192.638478 
L 257.072206 180.063277 
L 257.788527 150.047097 
L 258.743623 110.659026 
L 258.982397 103.51058 
L 259.459944 97.271448 
L 259.698718 96.925524 
L 259.937492 98.547395 
L 260.653814 118.361517 
L 261.608909 161.790851 
L 262.32523 192.83144 
L 262.802778 205.983494 
L 263.041552 209.155273 
L 263.280326 209.656024 
L 263.5191 207.135904 
L 263.757874 201.692461 
L 264.235421 178.613639 
L 264.712969 138.869957 
L 265.429291 73.12557 
L 265.668064 66.813997 
L 265.906838 75.758124 
L 266.384386 117.654964 
L 267.339481 218.043339 
L 267.817029 252.135996 
L 268.294577 274.037467 
L 268.772124 284.494343 
L 269.010898 285.45621 
L 269.249672 283.287838 
L 269.488446 277.618323 
L 269.72722 267.720958 
L 270.204768 231.622344 
L 270.682315 166.077848 
L 271.159863 92.146848 
L 271.398637 76.420022 
L 271.637411 83.893942 
L 272.114958 140.718251 
L 272.83128 229.176087 
L 273.308828 268.00194 
L 273.786375 291.855849 
L 274.025149 298.829473 
L 274.263923 302.493565 
L 274.502697 303.690341 
L 274.741471 301.259557 
L 274.980245 294.093372 
L 275.219018 282.504423 
L 275.696566 238.443809 
L 276.651661 84.31925 
L 276.890435 84.11447 
L 277.129209 107.298937 
L 278.084305 235.804586 
L 278.561852 275.999159 
L 279.0394 300.147681 
L 279.516948 310.913126 
L 279.755722 311.647023 
L 279.994495 308.001248 
L 280.233269 300.521082 
L 280.472043 287.580287 
L 280.710817 267.708571 
L 281.188365 197.737058 
L 281.665912 105.403471 
L 281.904686 85.789524 
L 282.14346 95.870077 
L 283.576103 271.582205 
L 284.053651 299.625337 
L 284.531199 313.662854 
L 284.769972 315.764426 
L 285.008746 314.496787 
L 285.24752 309.565546 
L 285.486294 299.641781 
L 285.725068 283.746225 
L 286.202616 226.426568 
L 286.918937 98.677011 
L 287.157711 93.731356 
L 287.396485 114.52256 
L 288.35158 241.880797 
L 288.829128 282.006158 
L 289.306676 306.245268 
L 289.784223 317.374253 
L 290.022997 318.356785 
L 290.261771 316.294905 
L 290.500545 309.853468 
L 290.739319 299.011988 
L 291.216866 256.94891 
L 292.171962 105.642165 
L 292.410736 104.029837 
L 292.649509 124.66511 
L 293.604605 244.289305 
L 294.082153 282.76025 
L 294.5597 306.596973 
L 295.037248 318.174882 
L 295.276022 320.613462 
L 295.514796 319.333181 
L 295.75357 314.869193 
L 295.992343 306.892498 
L 296.469891 275.66468 
L 296.708665 250.819963 
L 297.66376 119.100486 
L 297.902534 119.277279 
L 298.141308 137.171303 
L 299.335177 263.114659 
L 299.812725 293.057526 
L 300.290273 311.574719 
L 300.76782 320.570712 
L 301.006594 321.615183 
L 301.245368 320.460271 
L 301.484142 316.871248 
L 301.722916 310.477691 
L 302.200463 287.653554 
L 302.678011 246.44522 
L 303.633107 147.740085 
L 303.87188 144.570871 
L 304.110654 153.714112 
L 304.826976 212.866247 
L 305.543297 266.598158 
L 306.020845 291.351503 
L 306.498393 308.192937 
L 306.97594 318.341588 
L 307.453488 322.845309 
L 307.692262 323.146151 
L 307.931036 322.169173 
L 308.16981 319.976309 
L 308.647357 311.659439 
L 309.124905 298.328533 
L 309.841227 267.711503 
L 310.796322 221.112453 
L 311.27387 210.473481 
L 311.512644 209.705345 
L 311.751417 211.673644 
L 312.228965 222.234013 
L 314.37793 285.522946 
L 315.094251 298.541376 
L 315.810573 307.310803 
L 316.288121 311.269505 
L 316.765668 313.964992 
L 317.243216 315.55341 
L 317.720764 316.20436 
L 317.959538 316.193145 
L 318.198311 315.949796 
L 318.675859 314.709441 
L 319.153407 312.423345 
L 319.630955 308.895041 
L 320.108502 303.882766 
L 320.824824 293.145145 
L 321.541145 277.864216 
L 322.257467 258.708385 
L 322.735015 244.550029 
L 323.451336 228.535835 
L 323.69011 226.203409 
L 323.928884 226.210896 
L 324.167658 228.926886 
L 324.645205 241.700268 
L 326.316622 302.385357 
L 326.79417 310.307465 
L 327.032944 312.201964 
L 327.271718 312.674715 
L 327.510492 311.667679 
L 327.749265 309.409904 
L 328.226813 300.108481 
L 328.704361 284.504339 
L 329.181909 261.265466 
L 330.614552 176.074196 
L 330.853326 174.925824 
L 331.092099 183.680559 
L 331.569647 221.691748 
L 332.285969 278.677051 
L 332.763516 298.511946 
L 333.00229 303.835395 
L 333.241064 306.088869 
L 333.479838 306.174654 
L 333.718612 303.525527 
L 333.957386 298.488941 
L 334.434933 280.441231 
L 334.912481 251.173989 
L 335.390029 211.76976 
L 336.10635 152.793691 
L 336.345124 148.083855 
L 336.583898 157.841379 
L 336.822672 178.045752 
L 337.300219 236.243633 
L 337.777767 276.372739 
L 338.255315 296.124011 
L 338.494089 299.528303 
L 338.732863 299.799976 
L 338.971636 296.75976 
L 339.21041 290.703062 
L 339.687958 268.833919 
L 340.165506 233.563094 
L 341.359375 130.512177 
L 341.598149 137.133133 
L 341.836923 158.027322 
L 342.553244 246.791837 
L 343.030792 279.133439 
L 343.269566 287.132216 
L 343.50834 290.633815 
L 343.747113 290.488821 
L 343.985887 286.79632 
L 344.224661 279.836712 
L 344.702209 255.132407 
L 345.179757 217.010071 
L 346.134852 121.839061 
L 346.373626 115.692239 
L 346.6124 126.28925 
L 347.089947 181.627354 
L 347.567495 234.811973 
L 348.045043 264.57806 
L 348.283817 271.756718 
L 348.52259 274.764192 
L 348.761364 274.053727 
L 349.000138 269.900544 
L 349.477686 251.707144 
L 349.955234 220.376166 
L 350.671555 152.416019 
L 351.149103 109.659411 
L 351.387877 99.488989 
L 351.62665 101.338811 
L 351.865424 114.798216 
L 353.059294 213.783717 
L 353.536841 228.935832 
L 353.775615 230.999172 
L 354.014389 229.789114 
L 354.253163 225.613308 
L 354.730711 209.386188 
L 355.447032 168.780056 
L 356.640901 89.25324 
L 357.118449 70.529658 
L 357.357223 65.84223 
L 357.595997 63.916023 
L 357.834771 64.06622 
L 358.789866 68.971889 
L 359.02864 68.976928 
L 359.506188 67.988246 
L 359.744961 68.229929 
L 359.983735 69.978212 
L 360.222509 74.019357 
L 360.700057 90.606713 
L 361.416378 132.761453 
L 362.371474 192.380723 
L 362.849021 212.205094 
L 363.326569 221.847975 
L 363.565343 222.229018 
L 363.804117 219.310664 
L 364.042891 212.888382 
L 364.281665 203.199973 
L 364.759212 168.885557 
L 365.475534 119.28867 
L 365.714308 113.45006 
L 365.953082 118.371085 
L 366.430629 150.620326 
L 367.385725 229.200886 
L 367.863272 253.728816 
L 368.34082 265.501348 
L 368.579594 266.269157 
L 368.818368 263.457345 
L 369.057142 256.593944 
L 369.534689 228.699184 
L 370.489785 139.908699 
L 370.728559 135.956166 
L 370.967332 141.692696 
L 371.44488 179.128072 
L 372.161202 240.485896 
L 372.638749 267.660771 
L 373.116297 281.899928 
L 373.355071 284.298398 
L 373.593845 283.032696 
L 373.832619 278.184371 
L 374.071392 268.954641 
L 374.54894 237.013744 
L 375.265262 164.581227 
L 375.504036 155.607765 
L 375.742809 155.147141 
L 375.981583 165.903668 
L 377.653 281.356992 
L 378.130548 293.084473 
L 378.369322 294.868882 
L 378.608096 293.647299 
L 378.846869 289.342356 
L 379.085643 281.707014 
L 379.563191 255.120907 
L 380.518286 182.865183 
L 380.75706 176.834899 
L 380.995834 179.857862 
L 381.473382 205.395794 
L 382.428477 266.699546 
L 382.906025 287.176082 
L 383.383573 299.409986 
L 383.622346 302.572019 
L 383.86112 303.871167 
L 384.099894 303.14547 
L 384.338668 300.602436 
L 384.816216 290.499262 
L 385.532537 257.127903 
L 386.248859 221.651647 
L 386.487633 214.804757 
L 386.726406 212.078134 
L 386.96518 214.053295 
L 387.203954 219.115847 
L 387.681502 236.33463 
L 388.875371 282.666395 
L 389.591693 300.804173 
L 390.06924 308.401438 
L 390.546788 312.83302 
L 390.785562 314.046814 
L 391.024336 314.60291 
L 391.26311 314.618971 
L 391.501884 314.140907 
L 391.979431 311.920988 
L 392.695753 306.258173 
L 395.561039 279.698334 
L 397.47123 264.096308 
L 398.187551 256.48492 
L 398.903873 247.583069 
L 400.097742 233.876678 
L 400.336516 232.197923 
L 400.57529 231.357939 
L 400.814064 231.340353 
L 401.052838 232.435378 
L 401.291611 234.871924 
L 401.769159 243.491844 
L 402.485481 264.297699 
L 403.67935 301.50705 
L 404.395671 317.437606 
L 404.873219 324.563221 
L 405.350767 328.756965 
L 405.589541 329.707284 
L 405.828315 329.829634 
L 406.067088 329.140411 
L 406.305862 327.523922 
L 406.78341 321.111062 
L 407.260958 309.900604 
L 407.738505 292.887487 
L 408.216053 268.663972 
L 408.932375 217.053951 
L 409.88747 143.045087 
L 410.126244 139.964928 
L 410.365018 146.909871 
L 410.842565 197.426376 
L 411.558887 274.478302 
L 412.036435 305.260866 
L 412.513982 322.356842 
L 412.99153 329.678478 
L 413.230304 330.367069 
L 413.469078 329.22085 
L 413.707852 326.225881 
L 414.185399 314.446824 
L 414.662947 293.834834 
L 415.140495 261.997576 
L 415.618042 216.806644 
L 416.573138 110.160844 
L 416.811912 108.377208 
L 417.050685 127.127285 
L 418.005781 272.801098 
L 418.483329 309.309436 
L 418.960876 326.35729 
L 419.19965 329.996589 
L 419.438424 330.946596 
L 419.677198 329.695899 
L 419.915972 326.028932 
L 420.393519 311.09758 
L 420.871067 285.485675 
L 421.348615 245.272365 
L 422.064936 152.881284 
L 422.542484 94.95896 
L 422.781258 94.523822 
L 423.020032 122.153369 
L 423.736353 255.852439 
L 424.213901 303.753101 
L 424.691449 325.719845 
L 424.930223 330.349661 
L 425.168996 331.836477 
L 425.40777 330.314718 
L 425.646544 327.597131 
L 426.124092 311.101929 
L 426.60164 282.832553 
L 427.079187 238.083486 
L 427.556735 174.47127 
L 428.034283 100.65648 
L 428.273056 82.303683 
L 428.51183 94.919242 
L 428.51183 94.919242 
" clip-path="url(#p6d804795b4)" style="fill: none; stroke: #1f77b4; stroke-width: 3; stroke-linecap: square"/>
   </g>
   <g id="patch_3">
    <path d="M 178.05 345.2325 
L 178.05 50.52 
" style="fill: none; stroke: #000000; stroke-width: 2; stroke-linejoin: miter; stroke-linecap: square"/>
   </g>
   <g id="patch_4">
    <path d="M 440.438584 345.2325 
L 440.438584 50.52 
" style="fill: none; stroke: #000000; stroke-width: 2; stroke-linejoin: miter; stroke-linecap: square"/>
   </g>
   <g id="patch_5">
    <path d="M 178.05 345.2325 
L 440.438584 345.2325 
" style="fill: none; stroke: #000000; stroke-width: 2; stroke-linejoin: miter; stroke-linecap: square"/>
   </g>
   <g id="patch_6">
    <path d="M 178.05 50.52 
L 440.438584 50.52 
" style="fill: none; stroke: #000000; stroke-width: 2; stroke-linejoin: miter; stroke-linecap: square"/>
   </g>
  </g>
  <g id="axes_2">
   <g id="patch_7">
    <path d="M 573.531416 345.2325 
L 835.92 345.2325 
L 835.92 50.52 
L 573.531416 50.52 
z
" style="fill: #ffffff"/>
   </g>
   <g id="matplotlib.axis_3">
    <g id="xtick_4">
     <g id="line2d_23">
      <path d="M 585.45817 345.2325 
L 585.45817 50.52 
" clip-path="url(#p499cf22029)" style="fill: none; stroke-dasharray: 3.7,1.6; stroke-dashoffset: 0; stroke: #b0b0b0; stroke-opacity: 0.5"/>
     </g>
     <g id="line2d_24">
      <g>
       <use xlink:href="#mee848fccbe" x="585.45817" y="345.2325" style="stroke: #000000; stroke-width: 2"/>
      </g>
     </g>
     <g id="line2d_25">
      <g>
       <use xlink:href="#m5d60465a2f" x="585.45817" y="50.52" style="stroke: #000000; stroke-width: 2"/>
      </g>
     </g>
     <g id="text_11">
      <!-- 0 -->
      <g transform="translate(577.18692 368.488437) scale(0.26 -0.26)">
       <use xlink:href="#DejaVuSerif-30"/>
      </g>
     </g>
    </g>
    <g id="xtick_5">
     <g id="line2d_26">
      <path d="M 680.8722 345.2325 
L 680.8722 50.52 
" clip-path="url(#p499cf22029)" style="fill: none; stroke-dasharray: 3.7,1.6; stroke-dashoffset: 0; stroke: #b0b0b0; stroke-opacity: 0.5"/>
     </g>
     <g id="line2d_27">
      <g>
       <use xlink:href="#mee848fccbe" x="680.8722" y="345.2325" style="stroke: #000000; stroke-width: 2"/>
      </g>
     </g>
     <g id="line2d_28">
      <g>
       <use xlink:href="#m5d60465a2f" x="680.8722" y="50.52" style="stroke: #000000; stroke-width: 2"/>
      </g>
     </g>
     <g id="text_12">
      <!-- 20 -->
      <g transform="translate(664.3297 368.488437) scale(0.26 -0.26)">
       <use xlink:href="#DejaVuSerif-32"/>
       <use xlink:href="#DejaVuSerif-30" x="63.623047"/>
      </g>
     </g>
    </g>
    <g id="xtick_6">
     <g id="line2d_29">
      <path d="M 776.286231 345.2325 
L 776.286231 50.52 
" clip-path="url(#p499cf22029)" style="fill: none; stroke-dasharray: 3.7,1.6; stroke-dashoffset: 0; stroke: #b0b0b0; stroke-opacity: 0.5"/>
     </g>
     <g id="line2d_30">
      <g>
       <use xlink:href="#mee848fccbe" x="776.286231" y="345.2325" style="stroke: #000000; stroke-width: 2"/>
      </g>
     </g>
     <g id="line2d_31">
      <g>
       <use xlink:href="#m5d60465a2f" x="776.286231" y="50.52" style="stroke: #000000; stroke-width: 2"/>
      </g>
     </g>
     <g id="text_13">
      <!-- 40 -->
      <g transform="translate(759.743731 368.488437) scale(0.26 -0.26)">
       <use xlink:href="#DejaVuSerif-34"/>
       <use xlink:href="#DejaVuSerif-30" x="63.623047"/>
      </g>
     </g>
    </g>
    <g id="text_14">
     <!-- $t$ (a.u.) -->
     <g transform="translate(661.305708 397.651563) scale(0.26 -0.26)">
      <use xlink:href="#Cmmi10-74" transform="translate(0 0.015625)"/>
      <use xlink:href="#DejaVuSerif-20" transform="translate(36.083984 0.015625)"/>
      <use xlink:href="#DejaVuSerif-28" transform="translate(67.871094 0.015625)"/>
      <use xlink:href="#DejaVuSerif-61" transform="translate(106.884766 0.015625)"/>
      <use xlink:href="#DejaVuSerif-2e" transform="translate(166.503906 0.015625)"/>
      <use xlink:href="#DejaVuSerif-75" transform="translate(198.291016 0.015625)"/>
      <use xlink:href="#DejaVuSerif-2e" transform="translate(262.695312 0.015625)"/>
      <use xlink:href="#DejaVuSerif-29" transform="translate(294.482422 0.015625)"/>
     </g>
    </g>
   </g>
   <g id="matplotlib.axis_4">
    <g id="ytick_5">
     <g id="line2d_32">
      <path d="M 573.531416 331.836477 
L 835.92 331.836477 
" clip-path="url(#p499cf22029)" style="fill: none; stroke-dasharray: 3.7,1.6; stroke-dashoffset: 0; stroke: #b0b0b0; stroke-opacity: 0.5"/>
     </g>
     <g id="line2d_33">
      <g>
       <use xlink:href="#m8d9729e64b" x="573.531416" y="331.836477" style="stroke: #000000; stroke-width: 2"/>
      </g>
     </g>
     <g id="line2d_34">
      <g>
       <use xlink:href="#mc0e562f2e2" x="835.92" y="331.836477" style="stroke: #000000; stroke-width: 2"/>
      </g>
     </g>
     <g id="text_15">
      <!-- $\mathdefault{0}$ -->
      <g transform="translate(553.391416 341.714446) scale(0.26 -0.26)">
       <use xlink:href="#DejaVuSerif-30" transform="translate(0 0.78125)"/>
      </g>
     </g>
    </g>
    <g id="ytick_6">
     <g id="line2d_35">
      <path d="M 573.531416 289.161768 
L 835.92 289.161768 
" clip-path="url(#p499cf22029)" style="fill: none; stroke-dasharray: 3.7,1.6; stroke-dashoffset: 0; stroke: #b0b0b0; stroke-opacity: 0.5"/>
     </g>
     <g id="line2d_36">
      <g>
       <use xlink:href="#m8d9729e64b" x="573.531416" y="289.161768" style="stroke: #000000; stroke-width: 2"/>
      </g>
     </g>
     <g id="line2d_37">
      <g>
       <use xlink:href="#mc0e562f2e2" x="835.92" y="289.161768" style="stroke: #000000; stroke-width: 2"/>
      </g>
     </g>
     <g id="text_16">
      <!-- $\mathdefault{10^{-10}}$ -->
      <g transform="translate(497.491416 299.039737) scale(0.26 -0.26)">
       <use xlink:href="#DejaVuSerif-31" transform="translate(0 0.7125)"/>
       <use xlink:href="#DejaVuSerif-30" transform="translate(63.623047 0.7125)"/>
       <use xlink:href="#DejaVuSerif-2212" transform="translate(128.154453 37.046875) scale(0.7)"/>
       <use xlink:href="#DejaVuSerif-31" transform="translate(186.806797 37.046875) scale(0.7)"/>
       <use xlink:href="#DejaVuSerif-30" transform="translate(231.34293 37.046875) scale(0.7)"/>
      </g>
     </g>
    </g>
    <g id="ytick_7">
     <g id="line2d_38">
      <path d="M 573.531416 250.754531 
L 835.92 250.754531 
" clip-path="url(#p499cf22029)" style="fill: none; stroke-dasharray: 3.7,1.6; stroke-dashoffset: 0; stroke: #b0b0b0; stroke-opacity: 0.5"/>
     </g>
     <g id="line2d_39">
      <g>
       <use xlink:href="#m8d9729e64b" x="573.531416" y="250.754531" style="stroke: #000000; stroke-width: 2"/>
      </g>
     </g>
     <g id="line2d_40">
      <g>
       <use xlink:href="#mc0e562f2e2" x="835.92" y="250.754531" style="stroke: #000000; stroke-width: 2"/>
      </g>
     </g>
     <g id="text_17">
      <!-- $\mathdefault{10^{-9}}$ -->
      <g transform="translate(509.191416 260.632499) scale(0.26 -0.26)">
       <defs>
        <path id="DejaVuSerif-39" d="M 2994 2091 
Q 2784 1856 2512 1740 
Q 2241 1625 1900 1625 
Q 1206 1625 804 2044 
Q 403 2463 403 3188 
Q 403 3897 839 4323 
Q 1275 4750 2003 4750 
Q 2794 4750 3217 4161 
Q 3641 3572 3641 2478 
Q 3641 1253 3137 581 
Q 2634 -91 1722 -91 
Q 1475 -91 1203 -44 
Q 931 3 647 97 
L 647 872 
L 997 872 
Q 1038 556 1241 387 
Q 1444 219 1784 219 
Q 2391 219 2687 676 
Q 2984 1134 2994 2091 
z
M 1978 4441 
Q 1534 4441 1298 4117 
Q 1063 3794 1063 3188 
Q 1063 2581 1298 2256 
Q 1534 1931 1978 1931 
Q 2422 1931 2658 2245 
Q 2894 2559 2894 3150 
Q 2894 3772 2656 4106 
Q 2419 4441 1978 4441 
z
" transform="scale(0.015625)"/>
       </defs>
       <use xlink:href="#DejaVuSerif-31" transform="translate(0 0.7125)"/>
       <use xlink:href="#DejaVuSerif-30" transform="translate(63.623047 0.7125)"/>
       <use xlink:href="#DejaVuSerif-2212" transform="translate(128.154453 37.046875) scale(0.7)"/>
       <use xlink:href="#DejaVuSerif-39" transform="translate(186.806797 37.046875) scale(0.7)"/>
      </g>
     </g>
    </g>
    <g id="ytick_8">
     <g id="line2d_41">
      <path d="M 573.531416 212.347293 
L 835.92 212.347293 
" clip-path="url(#p499cf22029)" style="fill: none; stroke-dasharray: 3.7,1.6; stroke-dashoffset: 0; stroke: #b0b0b0; stroke-opacity: 0.5"/>
     </g>
     <g id="line2d_42">
      <g>
       <use xlink:href="#m8d9729e64b" x="573.531416" y="212.347293" style="stroke: #000000; stroke-width: 2"/>
      </g>
     </g>
     <g id="line2d_43">
      <g>
       <use xlink:href="#mc0e562f2e2" x="835.92" y="212.347293" style="stroke: #000000; stroke-width: 2"/>
      </g>
     </g>
     <g id="text_18">
      <!-- $\mathdefault{10^{-8}}$ -->
      <g transform="translate(509.191416 222.225261) scale(0.26 -0.26)">
       <defs>
        <path id="DejaVuSerif-38" d="M 2981 1275 
Q 2981 1775 2732 2051 
Q 2484 2328 2034 2328 
Q 1584 2328 1336 2051 
Q 1088 1775 1088 1275 
Q 1088 772 1336 495 
Q 1584 219 2034 219 
Q 2484 219 2732 495 
Q 2981 772 2981 1275 
z
M 2853 3541 
Q 2853 3966 2637 4203 
Q 2422 4441 2034 4441 
Q 1650 4441 1433 4203 
Q 1216 3966 1216 3541 
Q 1216 3113 1433 2875 
Q 1650 2638 2034 2638 
Q 2422 2638 2637 2875 
Q 2853 3113 2853 3541 
z
M 2516 2484 
Q 3047 2413 3344 2092 
Q 3641 1772 3641 1275 
Q 3641 619 3225 264 
Q 2809 -91 2034 -91 
Q 1263 -91 845 264 
Q 428 619 428 1275 
Q 428 1772 725 2092 
Q 1022 2413 1556 2484 
Q 1084 2569 832 2842 
Q 581 3116 581 3541 
Q 581 4103 968 4426 
Q 1356 4750 2034 4750 
Q 2713 4750 3100 4426 
Q 3488 4103 3488 3541 
Q 3488 3116 3236 2842 
Q 2984 2569 2516 2484 
z
" transform="scale(0.015625)"/>
       </defs>
       <use xlink:href="#DejaVuSerif-31" transform="translate(0 0.7125)"/>
       <use xlink:href="#DejaVuSerif-30" transform="translate(63.623047 0.7125)"/>
       <use xlink:href="#DejaVuSerif-2212" transform="translate(128.154453 37.046875) scale(0.7)"/>
       <use xlink:href="#DejaVuSerif-38" transform="translate(186.806797 37.046875) scale(0.7)"/>
      </g>
     </g>
    </g>
    <g id="ytick_9">
     <g id="line2d_44">
      <path d="M 573.531416 173.940055 
L 835.92 173.940055 
" clip-path="url(#p499cf22029)" style="fill: none; stroke-dasharray: 3.7,1.6; stroke-dashoffset: 0; stroke: #b0b0b0; stroke-opacity: 0.5"/>
     </g>
     <g id="line2d_45">
      <g>
       <use xlink:href="#m8d9729e64b" x="573.531416" y="173.940055" style="stroke: #000000; stroke-width: 2"/>
      </g>
     </g>
     <g id="line2d_46">
      <g>
       <use xlink:href="#mc0e562f2e2" x="835.92" y="173.940055" style="stroke: #000000; stroke-width: 2"/>
      </g>
     </g>
     <g id="text_19">
      <!-- $\mathdefault{10^{-7}}$ -->
      <g transform="translate(509.191416 183.818023) scale(0.26 -0.26)">
       <defs>
        <path id="DejaVuSerif-37" d="M 3609 4347 
L 1784 0 
L 1319 0 
L 3059 4153 
L 903 4153 
L 903 3578 
L 538 3578 
L 538 4666 
L 3609 4666 
L 3609 4347 
z
" transform="scale(0.015625)"/>
       </defs>
       <use xlink:href="#DejaVuSerif-31" transform="translate(0 0.63125)"/>
       <use xlink:href="#DejaVuSerif-30" transform="translate(63.623047 0.63125)"/>
       <use xlink:href="#DejaVuSerif-2212" transform="translate(128.154453 36.965625) scale(0.7)"/>
       <use xlink:href="#DejaVuSerif-37" transform="translate(186.806797 36.965625) scale(0.7)"/>
      </g>
     </g>
    </g>
    <g id="ytick_10">
     <g id="line2d_47">
      <path d="M 573.531416 135.532817 
L 835.92 135.532817 
" clip-path="url(#p499cf22029)" style="fill: none; stroke-dasharray: 3.7,1.6; stroke-dashoffset: 0; stroke: #b0b0b0; stroke-opacity: 0.5"/>
     </g>
     <g id="line2d_48">
      <g>
       <use xlink:href="#m8d9729e64b" x="573.531416" y="135.532817" style="stroke: #000000; stroke-width: 2"/>
      </g>
     </g>
     <g id="line2d_49">
      <g>
       <use xlink:href="#mc0e562f2e2" x="835.92" y="135.532817" style="stroke: #000000; stroke-width: 2"/>
      </g>
     </g>
     <g id="text_20">
      <!-- $\mathdefault{10^{-6}}$ -->
      <g transform="translate(509.191416 145.410786) scale(0.26 -0.26)">
       <use xlink:href="#DejaVuSerif-31" transform="translate(0 0.7125)"/>
       <use xlink:href="#DejaVuSerif-30" transform="translate(63.623047 0.7125)"/>
       <use xlink:href="#DejaVuSerif-2212" transform="translate(128.154453 37.046875) scale(0.7)"/>
       <use xlink:href="#DejaVuSerif-36" transform="translate(186.806797 37.046875) scale(0.7)"/>
      </g>
     </g>
    </g>
    <g id="ytick_11">
     <g id="line2d_50">
      <path d="M 573.531416 97.125579 
L 835.92 97.125579 
" clip-path="url(#p499cf22029)" style="fill: none; stroke-dasharray: 3.7,1.6; stroke-dashoffset: 0; stroke: #b0b0b0; stroke-opacity: 0.5"/>
     </g>
     <g id="line2d_51">
      <g>
       <use xlink:href="#m8d9729e64b" x="573.531416" y="97.125579" style="stroke: #000000; stroke-width: 2"/>
      </g>
     </g>
     <g id="line2d_52">
      <g>
       <use xlink:href="#mc0e562f2e2" x="835.92" y="97.125579" style="stroke: #000000; stroke-width: 2"/>
      </g>
     </g>
     <g id="text_21">
      <!-- $\mathdefault{10^{-5}}$ -->
      <g transform="translate(509.191416 107.003548) scale(0.26 -0.26)">
       <defs>
        <path id="DejaVuSerif-35" d="M 3219 4666 
L 3219 4153 
L 1081 4153 
L 1081 2816 
Q 1244 2928 1461 2984 
Q 1678 3041 1947 3041 
Q 2703 3041 3140 2622 
Q 3578 2203 3578 1478 
Q 3578 738 3136 323 
Q 2694 -91 1894 -91 
Q 1572 -91 1234 -12 
Q 897 66 544 225 
L 544 1131 
L 897 1131 
Q 925 688 1179 453 
Q 1434 219 1894 219 
Q 2388 219 2653 544 
Q 2919 869 2919 1478 
Q 2919 2084 2655 2407 
Q 2391 2731 1894 2731 
Q 1613 2731 1398 2631 
Q 1184 2531 1019 2322 
L 750 2322 
L 750 4666 
L 3219 4666 
z
" transform="scale(0.015625)"/>
       </defs>
       <use xlink:href="#DejaVuSerif-31" transform="translate(0 0.63125)"/>
       <use xlink:href="#DejaVuSerif-30" transform="translate(63.623047 0.63125)"/>
       <use xlink:href="#DejaVuSerif-2212" transform="translate(128.154453 36.965625) scale(0.7)"/>
       <use xlink:href="#DejaVuSerif-35" transform="translate(186.806797 36.965625) scale(0.7)"/>
      </g>
     </g>
    </g>
    <g id="ytick_12">
     <g id="line2d_53">
      <path d="M 573.531416 58.718341 
L 835.92 58.718341 
" clip-path="url(#p499cf22029)" style="fill: none; stroke-dasharray: 3.7,1.6; stroke-dashoffset: 0; stroke: #b0b0b0; stroke-opacity: 0.5"/>
     </g>
     <g id="line2d_54">
      <g>
       <use xlink:href="#m8d9729e64b" x="573.531416" y="58.718341" style="stroke: #000000; stroke-width: 2"/>
      </g>
     </g>
     <g id="line2d_55">
      <g>
       <use xlink:href="#mc0e562f2e2" x="835.92" y="58.718341" style="stroke: #000000; stroke-width: 2"/>
      </g>
     </g>
     <g id="text_22">
      <!-- $\mathdefault{10^{-4}}$ -->
      <g transform="translate(509.191416 68.59631) scale(0.26 -0.26)">
       <use xlink:href="#DejaVuSerif-31" transform="translate(0 0.7125)"/>
       <use xlink:href="#DejaVuSerif-30" transform="translate(63.623047 0.7125)"/>
       <use xlink:href="#DejaVuSerif-2212" transform="translate(128.154453 37.046875) scale(0.7)"/>
       <use xlink:href="#DejaVuSerif-34" transform="translate(186.806797 37.046875) scale(0.7)"/>
      </g>
     </g>
    </g>
    <g id="text_23">
     <!-- |E(t) - E(0)| / |E(0)| -->
     <g transform="translate(487.361103 321.362031) rotate(-90) scale(0.26 -0.26)">
      <defs>
       <path id="DejaVuSerif-7c" d="M 1331 4891 
L 1331 -1509 
L 825 -1509 
L 825 4891 
L 1331 4891 
z
" transform="scale(0.015625)"/>
       <path id="DejaVuSerif-45" d="M 353 0 
L 353 331 
L 947 331 
L 947 4331 
L 353 4331 
L 353 4666 
L 4109 4666 
L 4109 3628 
L 3725 3628 
L 3725 4281 
L 1581 4281 
L 1581 2719 
L 3109 2719 
L 3109 3303 
L 3494 3303 
L 3494 1753 
L 3109 1753 
L 3109 2338 
L 1581 2338 
L 1581 384 
L 3775 384 
L 3775 1038 
L 4159 1038 
L 4159 0 
L 353 0 
z
" transform="scale(0.015625)"/>
       <path id="DejaVuSerif-74" d="M 691 2988 
L 184 2988 
L 184 3322 
L 691 3322 
L 691 4353 
L 1269 4353 
L 1269 3322 
L 2350 3322 
L 2350 2988 
L 1269 2988 
L 1269 878 
Q 1269 456 1350 337 
Q 1431 219 1650 219 
Q 1875 219 1978 351 
Q 2081 484 2088 781 
L 2522 781 
Q 2497 328 2275 118 
Q 2053 -91 1600 -91 
Q 1103 -91 897 129 
Q 691 350 691 878 
L 691 2988 
z
" transform="scale(0.015625)"/>
       <path id="DejaVuSerif-2d" d="M 281 1959 
L 1881 1959 
L 1881 1472 
L 281 1472 
L 281 1959 
z
" transform="scale(0.015625)"/>
       <path id="DejaVuSerif-2f" d="M 1656 4666 
L 2156 4666 
L 500 -594 
L 0 -594 
L 1656 4666 
z
" transform="scale(0.015625)"/>
      </defs>
      <use xlink:href="#DejaVuSerif-7c"/>
      <use xlink:href="#DejaVuSerif-45" x="33.691406"/>
      <use xlink:href="#DejaVuSerif-28" x="106.689453"/>
      <use xlink:href="#DejaVuSerif-74" x="145.703125"/>
      <use xlink:href="#DejaVuSerif-29" x="185.888672"/>
      <use xlink:href="#DejaVuSerif-20" x="224.902344"/>
      <use xlink:href="#DejaVuSerif-2d" x="256.689453"/>
      <use xlink:href="#DejaVuSerif-20" x="290.478516"/>
      <use xlink:href="#DejaVuSerif-45" x="322.265625"/>
      <use xlink:href="#DejaVuSerif-28" x="395.263672"/>
      <use xlink:href="#DejaVuSerif-30" x="434.277344"/>
      <use xlink:href="#DejaVuSerif-29" x="497.900391"/>
      <use xlink:href="#DejaVuSerif-7c" x="536.914062"/>
      <use xlink:href="#DejaVuSerif-20" x="570.605469"/>
      <use xlink:href="#DejaVuSerif-2f" x="602.392578"/>
      <use xlink:href="#DejaVuSerif-20" x="636.083984"/>
      <use xlink:href="#DejaVuSerif-7c" x="667.871094"/>
      <use xlink:href="#DejaVuSerif-45" x="701.5625"/>
      <use xlink:href="#DejaVuSerif-28" x="774.560547"/>
      <use xlink:href="#DejaVuSerif-30" x="813.574219"/>
      <use xlink:href="#DejaVuSerif-29" x="877.197266"/>
      <use xlink:href="#DejaVuSerif-7c" x="916.210938"/>
     </g>
    </g>
   </g>
   <g id="line2d_56">
    <path d="M 585.45817 331.836477 
L 585.696944 139.465262 
L 585.935717 142.398266 
L 586.174491 150.99727 
L 586.413265 122.013566 
L 586.890813 101.714047 
L 587.36836 92.227991 
L 587.845908 87.159698 
L 588.323456 84.706159 
L 588.56223 84.225029 
L 588.801004 84.186195 
L 589.039777 84.537448 
L 589.278551 85.285212 
L 589.756099 87.817647 
L 590.711194 93.977386 
L 590.949968 94.451258 
L 591.188742 94.080092 
L 591.427516 92.989191 
L 593.098933 81.052296 
L 593.576481 79.169881 
L 594.054028 78.039474 
L 594.531576 77.548804 
L 595.009124 77.56831 
L 595.486671 77.955979 
L 596.919315 79.588179 
L 597.396862 79.657838 
L 597.635636 79.585002 
L 597.87441 79.385374 
L 599.307053 76.906758 
L 600.500922 74.809956 
L 601.217244 73.933797 
L 601.933565 73.362584 
L 602.649887 73.1102 
L 603.127435 73.12044 
L 603.604982 73.303785 
L 604.08253 73.6602 
L 604.560078 74.250137 
L 605.037625 75.09519 
L 605.515173 76.244265 
L 606.231495 78.921699 
L 606.709042 81.39162 
L 607.425364 86.88847 
L 608.858007 100.70214 
L 609.096781 100.172859 
L 609.335555 98.107836 
L 611.006972 76.137843 
L 611.484519 72.942051 
L 611.962067 70.887709 
L 612.439615 69.684398 
L 612.917162 69.186743 
L 613.155936 69.192793 
L 613.39471 69.371906 
L 613.633484 69.741462 
L 614.111032 71.1572 
L 614.588579 73.860392 
L 615.066127 78.890705 
L 615.304901 82.970469 
L 615.543675 89.6891 
L 615.782449 102.672748 
L 616.021223 125.476718 
L 616.259996 95.39918 
L 616.49877 86.10171 
L 616.737544 81.847911 
L 616.976318 82.758702 
L 617.215092 78.868826 
L 617.453866 90.649915 
L 617.692639 116.558748 
L 618.170187 84.676965 
L 618.647735 74.657719 
L 619.125283 70.888944 
L 619.364056 69.993496 
L 619.60283 69.564767 
L 619.841604 69.51602 
L 620.080378 69.82582 
L 620.319152 70.515268 
L 620.7967 73.37245 
L 621.035473 75.611847 
L 621.274247 79.376678 
L 621.513021 85.450854 
L 621.751795 97.43244 
L 621.990569 125.370658 
L 622.229343 90.447633 
L 622.468116 80.158394 
L 622.70689 74.847244 
L 622.945664 73.188327 
L 623.184438 75.34894 
L 623.423212 82.845371 
L 623.661986 105.08057 
L 623.90076 95.950127 
L 624.139533 82.091329 
L 624.617081 72.964317 
L 625.094629 70.204775 
L 625.333403 69.833056 
L 625.572177 69.9589 
L 625.81095 70.57108 
L 626.049724 71.757291 
L 626.527272 76.085675 
L 626.766046 80.685548 
L 627.00482 88.493425 
L 627.243594 109.363705 
L 627.482367 98.796784 
L 627.721141 82.270395 
L 627.959915 74.49481 
L 628.198689 70.757294 
L 628.437463 70.663724 
L 628.676237 75.16182 
L 628.91501 87.612891 
L 629.153784 114.489041 
L 629.392558 86.040111 
L 629.631332 77.81453 
L 629.870106 73.791126 
L 630.10888 71.646751 
L 630.347654 70.553368 
L 630.586427 70.169027 
L 630.825201 70.349788 
L 631.063975 71.10643 
L 631.302749 72.493968 
L 631.541523 74.723552 
L 631.780297 78.131214 
L 632.019071 84.104227 
L 632.257844 96.477604 
L 632.496618 116.567788 
L 632.735392 86.655512 
L 632.974166 76.092195 
L 633.21294 70.545565 
L 633.451714 68.619371 
L 633.690487 70.614203 
L 633.929261 77.938503 
L 634.168035 97.628795 
L 634.406809 97.69943 
L 634.645583 82.163148 
L 634.884357 76.241574 
L 635.123131 73.290424 
L 635.361904 71.74567 
L 635.600678 71.095241 
L 635.839452 71.118712 
L 636.078226 71.788648 
L 636.317 72.975858 
L 636.555774 75.206814 
L 636.794548 78.678322 
L 637.033321 84.619825 
L 637.272095 96.681178 
L 637.510869 116.102838 
L 637.749643 86.732954 
L 638.227191 70.206933 
L 638.465964 67.534208 
L 638.704738 68.325459 
L 638.943512 73.402688 
L 639.182286 85.075233 
L 639.42106 144.317428 
L 639.659834 89.792717 
L 639.898608 80.376999 
L 640.376155 73.938055 
L 640.614929 72.87991 
L 640.853703 72.621469 
L 641.092477 73.053657 
L 641.331251 74.116919 
L 641.570025 76.073864 
L 641.808798 79.234951 
L 642.047572 84.532019 
L 642.286346 94.768703 
L 642.52512 150.730152 
L 642.763894 91.154024 
L 643.241441 72.000875 
L 643.480215 67.919464 
L 643.718989 66.356093 
L 643.957763 67.60293 
L 644.196537 72.160347 
L 644.435311 80.858749 
L 644.674085 99.184381 
L 644.912858 106.497373 
L 645.151632 88.601297 
L 645.390406 82.214294 
L 645.62918 79.053947 
L 645.867954 77.47803 
L 646.106728 76.941225 
L 646.345502 77.237056 
L 646.584275 78.349142 
L 646.823049 80.448406 
L 647.061823 83.963384 
L 647.300597 89.552135 
L 647.539371 101.44178 
L 647.778145 122.139272 
L 648.016918 92.32524 
L 648.494466 74.41136 
L 648.73324 69.257593 
L 649.210788 65.161593 
L 649.449562 64.984292 
L 649.688335 66.205423 
L 650.165883 72.347313 
L 650.882205 87.959112 
L 651.359752 99.290235 
L 651.598526 102.594753 
L 651.8373 102.634843 
L 652.076074 99.670499 
L 653.269943 78.815435 
L 653.747491 73.695898 
L 654.225039 70.362571 
L 654.463812 69.200509 
L 654.94136 68.248482 
L 655.180134 68.197255 
L 655.418908 68.438808 
L 655.896456 70.292142 
L 656.374003 73.603383 
L 656.851551 78.841823 
L 657.329099 86.922313 
L 657.806646 99.859842 
L 658.04542 109.774903 
L 658.284194 124.973203 
L 658.761742 189.597562 
L 659.000516 131.096822 
L 659.478063 99.107152 
L 659.955611 82.075447 
L 660.433159 71.030841 
L 660.910706 65.004238 
L 661.14948 64.250859 
L 661.388254 65.328813 
L 661.627028 67.639036 
L 661.865802 71.584045 
L 662.104576 77.419631 
L 662.34335 86.296204 
L 662.582123 103.605704 
L 662.820897 111.703835 
L 663.059671 92.076945 
L 663.537219 80.237884 
L 664.014766 75.933525 
L 664.25354 75.059461 
L 664.492314 74.846224 
L 664.731088 75.330844 
L 664.969862 76.668791 
L 665.208636 79.297347 
L 665.44741 84.273107 
L 665.924957 112.044006 
L 666.163731 84.032437 
L 666.402505 73.186279 
L 666.641279 67.505227 
L 666.880053 65.411424 
L 667.118827 66.373786 
L 667.3576 69.994274 
L 667.596374 76.393119 
L 667.835148 87.144266 
L 668.073922 116.243647 
L 668.55147 85.122805 
L 669.029017 75.707226 
L 669.506565 72.133433 
L 669.745339 71.46119 
L 669.984113 71.247362 
L 670.222887 71.684578 
L 670.46166 73.044541 
L 670.700434 75.509454 
L 670.939208 80.27518 
L 671.177982 91.023052 
L 671.416756 110.551127 
L 671.65553 80.998015 
L 671.894304 70.716634 
L 672.133077 66.430256 
L 672.371851 66.403043 
L 672.610625 69.806254 
L 672.849399 76.559666 
L 673.088173 88.669296 
L 673.326947 144.782794 
L 673.56572 92.631523 
L 673.804494 82.318169 
L 674.282042 73.893959 
L 674.75959 70.683179 
L 674.998364 70.012001 
L 675.237137 69.89145 
L 675.475911 70.499086 
L 675.714685 71.819707 
L 675.953459 74.384776 
L 676.192233 79.30091 
L 676.669781 105.578021 
L 676.908554 78.621067 
L 677.147328 69.500426 
L 677.386102 66.626957 
L 677.624876 68.04192 
L 677.86365 73.100948 
L 678.102424 82.442516 
L 678.341197 103.651797 
L 678.579971 100.125565 
L 678.818745 84.826833 
L 679.296293 74.395122 
L 679.773841 70.456628 
L 680.012614 69.56474 
L 680.251388 69.230814 
L 680.490162 69.431433 
L 680.728936 70.235651 
L 680.96771 71.982046 
L 681.206484 75.227217 
L 681.445258 81.804533 
L 681.684031 100.068194 
L 682.400353 68.458265 
L 682.639127 67.731522 
L 682.877901 71.02605 
L 683.116674 78.209927 
L 683.355448 92.215578 
L 683.594222 119.798843 
L 683.832996 89.136977 
L 684.310544 75.624057 
L 684.788091 70.799844 
L 685.265639 68.97947 
L 685.504413 68.827906 
L 685.743187 69.147571 
L 685.981961 70.187613 
L 686.220735 72.099299 
L 686.459508 75.690245 
L 686.698282 82.725231 
L 686.937056 106.817538 
L 687.414604 74.8607 
L 687.653378 69.538632 
L 687.892151 69.282247 
L 688.130925 72.904872 
L 688.369699 80.571407 
L 688.847247 110.452691 
L 689.086021 87.931876 
L 689.563568 75.450918 
L 690.041116 70.739169 
L 690.518664 68.855862 
L 690.757438 68.484923 
L 690.996212 68.678641 
L 691.234985 69.372244 
L 691.473759 70.688357 
L 691.712533 73.033967 
L 691.951307 77.155868 
L 692.190081 85.044475 
L 692.428855 122.623503 
L 692.667628 88.719093 
L 692.906402 76.327586 
L 693.145176 71.847978 
L 693.38395 71.880547 
L 693.622724 75.557177 
L 693.861498 83.288807 
L 694.339045 108.882929 
L 694.577819 88.495773 
L 695.055367 76.177238 
L 695.532915 71.261781 
L 696.010462 69.017355 
L 696.249236 68.491355 
L 696.48801 68.334907 
L 696.726784 68.507984 
L 696.965558 69.057598 
L 697.204332 70.08394 
L 697.443105 71.745221 
L 697.681879 74.369085 
L 697.920653 78.834215 
L 698.159427 86.922379 
L 698.398201 109.508238 
L 699.114522 78.182866 
L 699.353296 77.351238 
L 699.59207 79.873049 
L 699.830844 86.021817 
L 700.069618 98.818337 
L 700.308392 127.977095 
L 700.547166 94.598942 
L 701.024713 79.62349 
L 701.502261 73.595685 
L 701.979809 70.46658 
L 702.457356 68.83024 
L 702.934904 68.152512 
L 703.173678 68.108207 
L 703.412452 68.252518 
L 703.651226 68.581049 
L 704.128773 69.889418 
L 704.606321 72.227482 
L 705.083869 76.303157 
L 705.561416 83.467242 
L 706.038964 95.73117 
L 706.516512 119.664709 
L 706.755286 152.0542 
L 706.99406 206.327949 
L 707.232833 135.970657 
L 707.710381 104.892601 
L 708.187929 91.740956 
L 708.665476 84.169494 
L 709.143024 79.392057 
L 709.620572 76.074932 
L 710.336893 72.923862 
L 711.053215 71.042117 
L 711.769537 69.953352 
L 712.485858 69.370014 
L 713.20218 69.16175 
L 713.679727 69.201678 
L 714.157275 69.397609 
L 714.634823 69.764871 
L 715.11237 70.348058 
L 715.589918 71.213235 
L 716.067466 72.439686 
L 716.545014 74.203918 
L 717.022561 76.608481 
L 717.500109 79.809328 
L 717.977657 85.153791 
L 718.455204 91.093378 
L 719.171526 100.292688 
L 719.4103 100.285108 
L 719.649074 97.740069 
L 720.842943 78.405427 
L 721.320491 74.085152 
L 721.798038 71.480659 
L 722.275586 70.112148 
L 722.51436 69.800869 
L 722.753134 69.72409 
L 722.991907 69.888069 
L 723.230681 70.261676 
L 723.708229 71.895686 
L 724.185777 75.057231 
L 724.663324 81.266015 
L 724.902098 86.652352 
L 725.140872 95.752898 
L 725.379646 118.731567 
L 725.857194 93.388711 
L 726.095968 88.369925 
L 726.334741 87.810342 
L 726.573515 92.642608 
L 726.812289 108.393137 
L 727.051063 105.63236 
L 727.289837 88.608356 
L 727.767384 76.410656 
L 728.244932 72.192985 
L 728.483706 71.22163 
L 728.72248 70.826896 
L 728.961254 70.812053 
L 729.200028 71.276647 
L 729.438801 72.197308 
L 729.677575 73.70857 
L 729.916349 75.989201 
L 730.155123 79.490694 
L 730.393897 84.901363 
L 730.632671 94.063579 
L 730.871445 135.163961 
L 731.110218 96.66827 
L 731.348992 84.858209 
L 731.587766 79.601218 
L 731.82654 78.275618 
L 732.065314 81.149578 
L 732.304088 89.37671 
L 732.542861 163.310608 
L 732.781635 92.352959 
L 733.020409 82.08833 
L 733.497957 74.188336 
L 733.736731 72.647787 
L 733.975505 72.003112 
L 734.214278 71.952723 
L 734.453052 72.525487 
L 734.691826 73.728735 
L 734.9306 75.756596 
L 735.169374 78.980235 
L 735.408148 84.3081 
L 735.646922 94.131061 
L 735.885695 135.781837 
L 736.124469 94.116126 
L 736.363243 82.098444 
L 736.602017 76.223605 
L 736.840791 74.092653 
L 737.079565 75.548405 
L 737.318339 81.209454 
L 737.557112 99.827975 
L 737.795886 105.893548 
L 738.03466 86.76563 
L 738.273434 79.818232 
L 738.512208 76.300602 
L 738.750982 74.481061 
L 738.989755 73.743007 
L 739.228529 73.772928 
L 739.467303 74.553608 
L 739.706077 76.132422 
L 739.944851 78.876709 
L 740.183625 83.379634 
L 740.422399 91.706021 
L 740.661172 113.918737 
L 741.377494 76.40686 
L 741.616268 72.359753 
L 741.855042 71.232235 
L 742.093816 73.226408 
L 742.332589 78.956677 
L 742.571363 91.377318 
L 742.810137 147.152655 
L 743.048911 93.279003 
L 743.287685 84.390988 
L 743.526459 80.226828 
L 743.765232 78.175071 
L 744.004006 77.385256 
L 744.24278 77.568491 
L 744.481554 78.681882 
L 744.720328 80.888431 
L 744.959102 84.688132 
L 745.197876 91.442293 
L 745.436649 107.576495 
L 745.675423 108.971902 
L 745.914197 88.790641 
L 746.391745 73.726283 
L 746.630519 70.195121 
L 746.869293 68.580667 
L 747.108066 68.862919 
L 747.34684 71.074413 
L 747.585614 75.304212 
L 747.824388 81.738428 
L 748.063162 91.385412 
L 748.540709 123.692153 
L 748.779483 103.486304 
L 749.018257 97.732296 
L 749.257031 96.029855 
L 749.495805 97.007075 
L 749.734579 100.901303 
L 749.973353 110.511467 
L 750.212126 164.641927 
L 750.4509 105.389258 
L 750.928448 85.098229 
L 751.405996 74.996826 
L 751.883543 69.101078 
L 752.361091 65.647357 
L 752.838639 64.137829 
L 753.077413 63.916023 
L 753.316186 63.933213 
L 754.271282 64.504625 
L 754.74883 64.441494 
L 755.226377 64.416935 
L 755.465151 64.624301 
L 755.703925 65.113729 
L 755.942699 65.96778 
L 756.420247 69.123933 
L 756.897794 74.573088 
L 757.375342 83.590259 
L 757.85289 99.420883 
L 758.330437 131.931636 
L 758.569211 110.970515 
L 758.807985 105.415849 
L 759.046759 104.899267 
L 759.285533 109.336138 
L 759.524307 127.859635 
L 759.76308 115.713395 
L 760.240628 85.141254 
L 760.718176 74.632421 
L 760.95695 71.882647 
L 761.195724 70.83921 
L 761.434497 71.714277 
L 761.673271 74.343241 
L 761.912045 78.976403 
L 762.150819 86.429696 
L 762.389593 100.042796 
L 762.628367 130.66272 
L 762.86714 97.503627 
L 763.105914 88.551768 
L 763.583462 81.276506 
L 763.822236 79.948361 
L 764.06101 79.720276 
L 764.299784 80.571208 
L 764.538557 82.851107 
L 764.777331 87.597823 
L 765.016105 97.939141 
L 765.254879 135.204752 
L 765.493653 91.913937 
L 765.732427 81.458037 
L 765.971201 76.198601 
L 766.209974 75.280165 
L 766.448748 76.630306 
L 766.687522 81.161572 
L 766.926296 89.95638 
L 767.16507 111.58968 
L 767.403844 104.893826 
L 767.642617 89.876922 
L 768.120165 79.314668 
L 768.597713 75.648592 
L 768.836487 75.103236 
L 769.075261 75.388804 
L 769.314034 76.530283 
L 769.552808 78.946198 
L 769.791582 83.297144 
L 770.030356 91.875306 
L 770.26913 126.151281 
L 770.507904 96.170557 
L 770.746678 83.470193 
L 770.985451 80.44664 
L 771.224225 80.30529 
L 771.462999 83.966019 
L 771.701773 92.482991 
L 771.940547 117.680397 
L 772.418095 88.849562 
L 772.895642 78.336698 
L 773.37319 74.167117 
L 773.611964 73.245229 
L 773.850738 72.891903 
L 774.089511 73.132975 
L 774.328285 74.01143 
L 774.567059 75.693241 
L 774.805833 78.599497 
L 775.044607 83.38386 
L 775.283381 92.142899 
L 775.522155 115.994073 
L 775.999702 92.128585 
L 776.238476 88.751216 
L 776.47725 90.358931 
L 776.716024 97.788851 
L 776.954798 122.545034 
L 777.432345 91.119975 
L 777.909893 79.593776 
L 778.387441 74.47161 
L 778.864988 72.025105 
L 779.103762 71.447088 
L 779.342536 71.215291 
L 779.58131 71.344374 
L 779.820084 71.804767 
L 780.297632 73.770772 
L 780.536405 76.032138 
L 781.252727 87.969854 
L 781.730275 105.688391 
L 782.207822 132.811395 
L 783.162918 92.295801 
L 783.640465 82.928375 
L 784.118013 77.404073 
L 784.595561 73.943537 
L 785.073109 71.767777 
L 785.550656 70.431295 
L 786.028204 69.698459 
L 786.505752 69.414545 
L 786.983299 69.488191 
L 787.460847 69.84667 
L 788.177169 70.797614 
L 789.132264 72.544397 
L 792.713872 79.695766 
L 793.430193 81.938326 
L 794.146515 85.15427 
L 794.862836 89.222818 
L 795.340384 92.619462 
L 795.817932 95.115125 
L 796.056706 95.750793 
L 796.29548 95.764364 
L 796.534253 94.939734 
L 797.011801 90.968262 
L 798.444444 76.077258 
L 799.160766 71.639535 
L 799.877087 68.969655 
L 800.354635 67.901083 
L 800.832183 67.302762 
L 801.30973 67.15311 
L 801.548504 67.249112 
L 801.787278 67.476464 
L 802.264826 68.410235 
L 802.742373 70.179762 
L 803.219921 73.284696 
L 803.697469 79.02827 
L 803.936243 83.989581 
L 804.175017 92.179515 
L 804.41379 113.818449 
L 804.652564 103.844881 
L 804.891338 88.041705 
L 805.130112 80.693442 
L 805.368886 76.965179 
L 805.60766 76.212039 
L 805.846434 77.960971 
L 806.085207 85.28165 
L 806.323981 105.151558 
L 806.562755 100.305356 
L 806.801529 84.366624 
L 807.279077 73.484536 
L 807.756624 69.315041 
L 808.234172 67.542264 
L 808.472946 67.174118 
L 808.71172 67.078633 
L 808.950494 67.237879 
L 809.189267 67.661298 
L 809.428041 68.373795 
L 809.905589 70.971726 
L 810.383137 76.189287 
L 810.621911 81.030709 
L 810.860684 89.551546 
L 811.099458 114.391722 
L 811.577006 81.50412 
L 811.81578 74.056049 
L 812.054554 70.278908 
L 812.293328 69.982766 
L 812.532101 73.394772 
L 812.770875 83.60926 
L 813.009649 129.267965 
L 813.248423 88.155102 
L 813.487197 77.89654 
L 813.964744 70.278497 
L 814.442292 67.642492 
L 814.681066 67.129938 
L 814.91984 66.998693 
L 815.158614 67.171695 
L 815.397388 67.689522 
L 815.636161 68.608259 
L 815.874935 69.98162 
L 816.352483 74.839735 
L 816.591257 79.137659 
L 816.830031 87.463972 
L 817.068805 110.606863 
L 817.546352 79.626897 
L 817.785126 71.836683 
L 818.0239 67.908981 
L 818.262674 67.845862 
L 818.501448 72.419507 
L 818.740221 85.319117 
L 818.978995 114.006959 
L 819.217769 83.11716 
L 819.456543 75.077406 
L 819.934091 68.989833 
L 820.172865 67.733913 
L 820.411638 67.08104 
L 820.650412 66.876684 
L 820.889186 67.085873 
L 821.12796 67.4661 
L 821.605508 69.980904 
L 821.844282 72.167314 
L 822.083055 75.434411 
L 822.321829 80.784994 
L 822.560603 91.233719 
L 822.799377 143.813459 
L 823.038151 87.59393 
L 823.276925 75.182489 
L 823.515698 68.75825 
L 823.754472 66.164319 
L 823.993246 67.90321 
L 823.993246 67.90321 
" clip-path="url(#p499cf22029)" style="fill: none; stroke: #1f77b4; stroke-width: 3; stroke-linecap: square"/>
   </g>
   <g id="patch_8">
    <path d="M 573.531416 345.2325 
L 573.531416 50.52 
" style="fill: none; stroke: #000000; stroke-width: 2; stroke-linejoin: miter; stroke-linecap: square"/>
   </g>
   <g id="patch_9">
    <path d="M 835.92 345.2325 
L 835.92 50.52 
" style="fill: none; stroke: #000000; stroke-width: 2; stroke-linejoin: miter; stroke-linecap: square"/>
   </g>
   <g id="patch_10">
    <path d="M 573.531416 345.2325 
L 835.92 345.2325 
" style="fill: none; stroke: #000000; stroke-width: 2; stroke-linejoin: miter; stroke-linecap: square"/>
   </g>
   <g id="patch_11">
    <path d="M 573.531416 50.52 
L 835.92 50.52 
" style="fill: none; stroke: #000000; stroke-width: 2; stroke-linejoin: miter; stroke-linecap: square"/>
   </g>
  </g>
 </g>
 <defs>
  <clipPath id="p6d804795b4">
   <rect x="178.05" y="50.52" width="262.388584" height="294.7125"/>
  </clipPath>
  <clipPath id="p499cf22029">
   <rect x="573.531416" y="50.52" width="262.388584" height="294.7125"/>
  </clipPath>
 </defs>
</svg>
