<?xml version="1.0" encoding="utf-8" standalone="no"?>
<!DOCTYPE svg PUBLIC "-//W3C//DTD SVG 1.1//EN"
  "http://www.w3.org/Graphics/SVG/1.1/DTD/svg11.dtd">
<svg xmlns:xlink="http://www.w3.org/1999/xlink" width="864pt" height="576pt" viewBox="0 0 864 576" xmlns="http://www.w3.org/2000/svg" version="1.1">
 <metadata>
  <rdf:RDF xmlns:dc="http://purl.org/dc/elements/1.1/" xmlns:cc="http://creativecommons.org/ns#" xmlns:rdf="http://www.w3.org/1999/02/22-rdf-syntax-ns#">
   <cc:Work>
    <dc:type rdf:resource="http://purl.org/dc/dcmitype/StillImage"/>
    <dc:date>2025-07-11T14:35:50.996727</dc:date>
    <dc:format>image/svg+xml</dc:format>
    <dc:creator>
     <cc:Agent>
      <dc:title>Matplotlib v3.7.2, https://matplotlib.org/</dc:title>
     </cc:Agent>
    </dc:creator>
   </cc:Work>
  </rdf:RDF>
 </metadata>
 <defs>
  <style type="text/css">*{stroke-linejoin: round; stroke-linecap: butt}</style>
 </defs>
 <g id="figure_1">
  <g id="patch_1">
   <path d="M 0 576 
L 864 576 
L 864 0 
L 0 0 
z
" style="fill: #ffffff"/>
  </g>
  <g id="axes_1">
   <g id="patch_2">
    <path d="M 121.181625 489.2325 
L 835.92 489.2325 
L 835.92 28.08 
L 121.181625 28.08 
z
" style="fill: #ffffff"/>
   </g>
   <g id="matplotlib.axis_1">
    <g id="xtick_1">
     <g id="line2d_1">
      <path d="M 153.669733 489.2325 
L 153.669733 28.08 
" clip-path="url(#p6c4b7eba30)" style="fill: none; stroke-dasharray: 3.7,1.6; stroke-dashoffset: 0; stroke: #b0b0b0; stroke-opacity: 0.5"/>
     </g>
     <g id="line2d_2">
      <defs>
       <path id="m7369d7ddc1" d="M 0 0 
L 0 -10 
" style="stroke: #000000; stroke-width: 2"/>
      </defs>
      <g>
       <use xlink:href="#m7369d7ddc1" x="153.669733" y="489.2325" style="stroke: #000000; stroke-width: 2"/>
      </g>
     </g>
     <g id="line2d_3">
      <defs>
       <path id="md81df592dc" d="M 0 0 
L 0 10 
" style="stroke: #000000; stroke-width: 2"/>
      </defs>
      <g>
       <use xlink:href="#md81df592dc" x="153.669733" y="28.08" style="stroke: #000000; stroke-width: 2"/>
      </g>
     </g>
     <g id="text_1">
      <!-- 0 -->
      <g transform="translate(145.398483 512.488438) scale(0.26 -0.26)">
       <defs>
        <path id="DejaVuSerif-30" d="M 2034 219 
Q 2513 219 2750 744 
Q 2988 1269 2988 2328 
Q 2988 3391 2750 3916 
Q 2513 4441 2034 4441 
Q 1556 4441 1318 3916 
Q 1081 3391 1081 2328 
Q 1081 1269 1318 744 
Q 1556 219 2034 219 
z
M 2034 -91 
Q 1275 -91 848 546 
Q 422 1184 422 2328 
Q 422 3475 848 4112 
Q 1275 4750 2034 4750 
Q 2797 4750 3222 4112 
Q 3647 3475 3647 2328 
Q 3647 1184 3222 546 
Q 2797 -91 2034 -91 
z
" transform="scale(0.015625)"/>
       </defs>
       <use xlink:href="#DejaVuSerif-30"/>
      </g>
     </g>
    </g>
    <g id="xtick_2">
     <g id="line2d_4">
      <path d="M 283.622165 489.2325 
L 283.622165 28.08 
" clip-path="url(#p6c4b7eba30)" style="fill: none; stroke-dasharray: 3.7,1.6; stroke-dashoffset: 0; stroke: #b0b0b0; stroke-opacity: 0.5"/>
     </g>
     <g id="line2d_5">
      <g>
       <use xlink:href="#m7369d7ddc1" x="283.622165" y="489.2325" style="stroke: #000000; stroke-width: 2"/>
      </g>
     </g>
     <g id="line2d_6">
      <g>
       <use xlink:href="#md81df592dc" x="283.622165" y="28.08" style="stroke: #000000; stroke-width: 2"/>
      </g>
     </g>
     <g id="text_2">
      <!-- 10 -->
      <g transform="translate(267.079665 512.488438) scale(0.26 -0.26)">
       <defs>
        <path id="DejaVuSerif-31" d="M 909 0 
L 909 331 
L 1722 331 
L 1722 4213 
L 781 3603 
L 781 4013 
L 1919 4750 
L 2350 4750 
L 2350 331 
L 3163 331 
L 3163 0 
L 909 0 
z
" transform="scale(0.015625)"/>
       </defs>
       <use xlink:href="#DejaVuSerif-31"/>
       <use xlink:href="#DejaVuSerif-30" x="63.623047"/>
      </g>
     </g>
    </g>
    <g id="xtick_3">
     <g id="line2d_7">
      <path d="M 413.574597 489.2325 
L 413.574597 28.08 
" clip-path="url(#p6c4b7eba30)" style="fill: none; stroke-dasharray: 3.7,1.6; stroke-dashoffset: 0; stroke: #b0b0b0; stroke-opacity: 0.5"/>
     </g>
     <g id="line2d_8">
      <g>
       <use xlink:href="#m7369d7ddc1" x="413.574597" y="489.2325" style="stroke: #000000; stroke-width: 2"/>
      </g>
     </g>
     <g id="line2d_9">
      <g>
       <use xlink:href="#md81df592dc" x="413.574597" y="28.08" style="stroke: #000000; stroke-width: 2"/>
      </g>
     </g>
     <g id="text_3">
      <!-- 20 -->
      <g transform="translate(397.032097 512.488438) scale(0.26 -0.26)">
       <defs>
        <path id="DejaVuSerif-32" d="M 819 3553 
L 469 3553 
L 469 4384 
Q 803 4563 1142 4656 
Q 1481 4750 1806 4750 
Q 2534 4750 2956 4397 
Q 3378 4044 3378 3438 
Q 3378 2753 2422 1800 
Q 2347 1728 2309 1691 
L 1131 513 
L 3078 513 
L 3078 1088 
L 3444 1088 
L 3444 0 
L 434 0 
L 434 341 
L 1850 1753 
Q 2319 2222 2519 2614 
Q 2719 3006 2719 3438 
Q 2719 3909 2473 4175 
Q 2228 4441 1797 4441 
Q 1350 4441 1106 4219 
Q 863 3997 819 3553 
z
" transform="scale(0.015625)"/>
       </defs>
       <use xlink:href="#DejaVuSerif-32"/>
       <use xlink:href="#DejaVuSerif-30" x="63.623047"/>
      </g>
     </g>
    </g>
    <g id="xtick_4">
     <g id="line2d_10">
      <path d="M 543.527028 489.2325 
L 543.527028 28.08 
" clip-path="url(#p6c4b7eba30)" style="fill: none; stroke-dasharray: 3.7,1.6; stroke-dashoffset: 0; stroke: #b0b0b0; stroke-opacity: 0.5"/>
     </g>
     <g id="line2d_11">
      <g>
       <use xlink:href="#m7369d7ddc1" x="543.527028" y="489.2325" style="stroke: #000000; stroke-width: 2"/>
      </g>
     </g>
     <g id="line2d_12">
      <g>
       <use xlink:href="#md81df592dc" x="543.527028" y="28.08" style="stroke: #000000; stroke-width: 2"/>
      </g>
     </g>
     <g id="text_4">
      <!-- 30 -->
      <g transform="translate(526.984528 512.488438) scale(0.26 -0.26)">
       <defs>
        <path id="DejaVuSerif-33" d="M 622 4469 
Q 988 4606 1323 4678 
Q 1659 4750 1953 4750 
Q 2638 4750 3022 4454 
Q 3406 4159 3406 3634 
Q 3406 3213 3140 2930 
Q 2875 2647 2388 2547 
Q 2963 2466 3280 2130 
Q 3597 1794 3597 1259 
Q 3597 606 3158 257 
Q 2719 -91 1894 -91 
Q 1528 -91 1179 -12 
Q 831 66 488 225 
L 488 1131 
L 838 1131 
Q 869 681 1141 450 
Q 1413 219 1906 219 
Q 2384 219 2661 495 
Q 2938 772 2938 1253 
Q 2938 1803 2653 2086 
Q 2369 2369 1819 2369 
L 1522 2369 
L 1522 2688 
L 1678 2688 
Q 2225 2688 2498 2914 
Q 2772 3141 2772 3597 
Q 2772 4006 2547 4223 
Q 2322 4441 1900 4441 
Q 1478 4441 1245 4241 
Q 1013 4041 972 3647 
L 622 3647 
L 622 4469 
z
" transform="scale(0.015625)"/>
       </defs>
       <use xlink:href="#DejaVuSerif-33"/>
       <use xlink:href="#DejaVuSerif-30" x="63.623047"/>
      </g>
     </g>
    </g>
    <g id="xtick_5">
     <g id="line2d_13">
      <path d="M 673.47946 489.2325 
L 673.47946 28.08 
" clip-path="url(#p6c4b7eba30)" style="fill: none; stroke-dasharray: 3.7,1.6; stroke-dashoffset: 0; stroke: #b0b0b0; stroke-opacity: 0.5"/>
     </g>
     <g id="line2d_14">
      <g>
       <use xlink:href="#m7369d7ddc1" x="673.47946" y="489.2325" style="stroke: #000000; stroke-width: 2"/>
      </g>
     </g>
     <g id="line2d_15">
      <g>
       <use xlink:href="#md81df592dc" x="673.47946" y="28.08" style="stroke: #000000; stroke-width: 2"/>
      </g>
     </g>
     <g id="text_5">
      <!-- 40 -->
      <g transform="translate(656.93696 512.488438) scale(0.26 -0.26)">
       <defs>
        <path id="DejaVuSerif-34" d="M 2234 1581 
L 2234 4063 
L 641 1581 
L 2234 1581 
z
M 3609 0 
L 1484 0 
L 1484 331 
L 2234 331 
L 2234 1247 
L 197 1247 
L 197 1588 
L 2241 4750 
L 2859 4750 
L 2859 1581 
L 3750 1581 
L 3750 1247 
L 2859 1247 
L 2859 331 
L 3609 331 
L 3609 0 
z
" transform="scale(0.015625)"/>
       </defs>
       <use xlink:href="#DejaVuSerif-34"/>
       <use xlink:href="#DejaVuSerif-30" x="63.623047"/>
      </g>
     </g>
    </g>
    <g id="xtick_6">
     <g id="line2d_16">
      <path d="M 803.431892 489.2325 
L 803.431892 28.08 
" clip-path="url(#p6c4b7eba30)" style="fill: none; stroke-dasharray: 3.7,1.6; stroke-dashoffset: 0; stroke: #b0b0b0; stroke-opacity: 0.5"/>
     </g>
     <g id="line2d_17">
      <g>
       <use xlink:href="#m7369d7ddc1" x="803.431892" y="489.2325" style="stroke: #000000; stroke-width: 2"/>
      </g>
     </g>
     <g id="line2d_18">
      <g>
       <use xlink:href="#md81df592dc" x="803.431892" y="28.08" style="stroke: #000000; stroke-width: 2"/>
      </g>
     </g>
     <g id="text_6">
      <!-- 50 -->
      <g transform="translate(786.889392 512.488438) scale(0.26 -0.26)">
       <defs>
        <path id="DejaVuSerif-35" d="M 3219 4666 
L 3219 4153 
L 1081 4153 
L 1081 2816 
Q 1244 2928 1461 2984 
Q 1678 3041 1947 3041 
Q 2703 3041 3140 2622 
Q 3578 2203 3578 1478 
Q 3578 738 3136 323 
Q 2694 -91 1894 -91 
Q 1572 -91 1234 -12 
Q 897 66 544 225 
L 544 1131 
L 897 1131 
Q 925 688 1179 453 
Q 1434 219 1894 219 
Q 2388 219 2653 544 
Q 2919 869 2919 1478 
Q 2919 2084 2655 2407 
Q 2391 2731 1894 2731 
Q 1613 2731 1398 2631 
Q 1184 2531 1019 2322 
L 750 2322 
L 750 4666 
L 3219 4666 
z
" transform="scale(0.015625)"/>
       </defs>
       <use xlink:href="#DejaVuSerif-35"/>
       <use xlink:href="#DejaVuSerif-30" x="63.623047"/>
      </g>
     </g>
    </g>
    <g id="text_7">
     <!-- $t$ (a.u.) -->
     <g transform="translate(435.130812 541.651562) scale(0.26 -0.26)">
      <defs>
       <path id="Cmmi10-74" d="M 397 519 
Q 397 613 416 697 
L 878 2534 
L 206 2534 
Q 141 2534 141 2619 
Q 166 2759 225 2759 
L 934 2759 
L 1191 3803 
Q 1216 3888 1291 3947 
Q 1366 4006 1459 4006 
Q 1541 4006 1595 3957 
Q 1650 3909 1650 3828 
Q 1650 3809 1648 3798 
Q 1647 3788 1644 3775 
L 1388 2759 
L 2047 2759 
Q 2113 2759 2113 2675 
Q 2109 2659 2100 2621 
Q 2091 2584 2075 2559 
Q 2059 2534 2028 2534 
L 1331 2534 
L 872 684 
Q 825 503 825 372 
Q 825 97 1013 97 
Q 1294 97 1511 361 
Q 1728 625 1844 941 
Q 1869 978 1894 978 
L 1972 978 
Q 1997 978 2012 961 
Q 2028 944 2028 922 
Q 2028 909 2022 903 
Q 1881 516 1612 222 
Q 1344 -72 997 -72 
Q 744 -72 570 93 
Q 397 259 397 519 
z
" transform="scale(0.015625)"/>
       <path id="DejaVuSerif-20" transform="scale(0.015625)"/>
       <path id="DejaVuSerif-28" d="M 2041 -997 
Q 1281 -656 893 83 
Q 506 822 506 1931 
Q 506 3044 893 3783 
Q 1281 4522 2041 4863 
L 2041 4556 
Q 1559 4225 1350 3623 
Q 1141 3022 1141 1931 
Q 1141 844 1350 242 
Q 1559 -359 2041 -691 
L 2041 -997 
z
" transform="scale(0.015625)"/>
       <path id="DejaVuSerif-61" d="M 2547 1044 
L 2547 1747 
L 1806 1747 
Q 1378 1747 1168 1562 
Q 959 1378 959 997 
Q 959 650 1171 447 
Q 1384 244 1747 244 
Q 2106 244 2326 466 
Q 2547 688 2547 1044 
z
M 3122 2075 
L 3122 331 
L 3634 331 
L 3634 0 
L 2547 0 
L 2547 359 
Q 2356 128 2106 18 
Q 1856 -91 1522 -91 
Q 969 -91 644 203 
Q 319 497 319 997 
Q 319 1513 691 1797 
Q 1063 2081 1741 2081 
L 2547 2081 
L 2547 2309 
Q 2547 2688 2317 2895 
Q 2088 3103 1672 3103 
Q 1328 3103 1125 2947 
Q 922 2791 872 2484 
L 575 2484 
L 575 3156 
Q 875 3284 1158 3348 
Q 1441 3413 1709 3413 
Q 2400 3413 2761 3070 
Q 3122 2728 3122 2075 
z
" transform="scale(0.015625)"/>
       <path id="DejaVuSerif-2e" d="M 603 325 
Q 603 500 722 622 
Q 841 744 1019 744 
Q 1191 744 1312 622 
Q 1434 500 1434 325 
Q 1434 153 1312 31 
Q 1191 -91 1019 -91 
Q 841 -91 722 29 
Q 603 150 603 325 
z
" transform="scale(0.015625)"/>
       <path id="DejaVuSerif-75" d="M 2266 3322 
L 3341 3322 
L 3341 331 
L 3884 331 
L 3884 0 
L 2766 0 
L 2766 588 
Q 2606 256 2353 82 
Q 2100 -91 1766 -91 
Q 1213 -91 952 223 
Q 691 538 691 1209 
L 691 2988 
L 172 2988 
L 172 3322 
L 1269 3322 
L 1269 1388 
Q 1269 781 1417 556 
Q 1566 331 1947 331 
Q 2347 331 2556 625 
Q 2766 919 2766 1478 
L 2766 2988 
L 2266 2988 
L 2266 3322 
z
" transform="scale(0.015625)"/>
       <path id="DejaVuSerif-29" d="M 453 -997 
L 453 -691 
Q 934 -359 1145 242 
Q 1356 844 1356 1931 
Q 1356 3022 1145 3623 
Q 934 4225 453 4556 
L 453 4863 
Q 1216 4522 1603 3783 
Q 1991 3044 1991 1931 
Q 1991 822 1603 83 
Q 1216 -656 453 -997 
z
" transform="scale(0.015625)"/>
      </defs>
      <use xlink:href="#Cmmi10-74" transform="translate(0 0.015625)"/>
      <use xlink:href="#DejaVuSerif-20" transform="translate(36.083984 0.015625)"/>
      <use xlink:href="#DejaVuSerif-28" transform="translate(67.871094 0.015625)"/>
      <use xlink:href="#DejaVuSerif-61" transform="translate(106.884766 0.015625)"/>
      <use xlink:href="#DejaVuSerif-2e" transform="translate(166.503906 0.015625)"/>
      <use xlink:href="#DejaVuSerif-75" transform="translate(198.291016 0.015625)"/>
      <use xlink:href="#DejaVuSerif-2e" transform="translate(262.695312 0.015625)"/>
      <use xlink:href="#DejaVuSerif-29" transform="translate(294.482422 0.015625)"/>
     </g>
    </g>
   </g>
   <g id="matplotlib.axis_2">
    <g id="ytick_1">
     <g id="line2d_19">
      <path d="M 121.181625 463.380959 
L 835.92 463.380959 
" clip-path="url(#p6c4b7eba30)" style="fill: none; stroke-dasharray: 3.7,1.6; stroke-dashoffset: 0; stroke: #b0b0b0; stroke-opacity: 0.5"/>
     </g>
     <g id="line2d_20">
      <defs>
       <path id="m1efc327fdb" d="M 0 0 
L 10 0 
" style="stroke: #000000; stroke-width: 2"/>
      </defs>
      <g>
       <use xlink:href="#m1efc327fdb" x="121.181625" y="463.380959" style="stroke: #000000; stroke-width: 2"/>
      </g>
     </g>
     <g id="line2d_21">
      <defs>
       <path id="m244bb349d5" d="M 0 0 
L -10 0 
" style="stroke: #000000; stroke-width: 2"/>
      </defs>
      <g>
       <use xlink:href="#m244bb349d5" x="835.92" y="463.380959" style="stroke: #000000; stroke-width: 2"/>
      </g>
     </g>
     <g id="text_8">
      <!-- 0.50 -->
      <g transform="translate(59.791 473.258928) scale(0.26 -0.26)">
       <use xlink:href="#DejaVuSerif-30"/>
       <use xlink:href="#DejaVuSerif-2e" x="63.623047"/>
       <use xlink:href="#DejaVuSerif-35" x="95.410156"/>
       <use xlink:href="#DejaVuSerif-30" x="159.033203"/>
      </g>
     </g>
    </g>
    <g id="ytick_2">
     <g id="line2d_22">
      <path d="M 121.181625 402.74946 
L 835.92 402.74946 
" clip-path="url(#p6c4b7eba30)" style="fill: none; stroke-dasharray: 3.7,1.6; stroke-dashoffset: 0; stroke: #b0b0b0; stroke-opacity: 0.5"/>
     </g>
     <g id="line2d_23">
      <g>
       <use xlink:href="#m1efc327fdb" x="121.181625" y="402.74946" style="stroke: #000000; stroke-width: 2"/>
      </g>
     </g>
     <g id="line2d_24">
      <g>
       <use xlink:href="#m244bb349d5" x="835.92" y="402.74946" style="stroke: #000000; stroke-width: 2"/>
      </g>
     </g>
     <g id="text_9">
      <!-- 0.55 -->
      <g transform="translate(59.791 412.627429) scale(0.26 -0.26)">
       <use xlink:href="#DejaVuSerif-30"/>
       <use xlink:href="#DejaVuSerif-2e" x="63.623047"/>
       <use xlink:href="#DejaVuSerif-35" x="95.410156"/>
       <use xlink:href="#DejaVuSerif-35" x="159.033203"/>
      </g>
     </g>
    </g>
    <g id="ytick_3">
     <g id="line2d_25">
      <path d="M 121.181625 342.11796 
L 835.92 342.11796 
" clip-path="url(#p6c4b7eba30)" style="fill: none; stroke-dasharray: 3.7,1.6; stroke-dashoffset: 0; stroke: #b0b0b0; stroke-opacity: 0.5"/>
     </g>
     <g id="line2d_26">
      <g>
       <use xlink:href="#m1efc327fdb" x="121.181625" y="342.11796" style="stroke: #000000; stroke-width: 2"/>
      </g>
     </g>
     <g id="line2d_27">
      <g>
       <use xlink:href="#m244bb349d5" x="835.92" y="342.11796" style="stroke: #000000; stroke-width: 2"/>
      </g>
     </g>
     <g id="text_10">
      <!-- 0.60 -->
      <g transform="translate(59.791 351.995929) scale(0.26 -0.26)">
       <defs>
        <path id="DejaVuSerif-36" d="M 2094 219 
Q 2534 219 2771 542 
Q 3009 866 3009 1472 
Q 3009 2078 2771 2401 
Q 2534 2725 2094 2725 
Q 1647 2725 1412 2412 
Q 1178 2100 1178 1509 
Q 1178 888 1415 553 
Q 1653 219 2094 219 
z
M 1075 2569 
Q 1288 2803 1556 2918 
Q 1825 3034 2163 3034 
Q 2859 3034 3264 2615 
Q 3669 2197 3669 1472 
Q 3669 763 3233 336 
Q 2797 -91 2069 -91 
Q 1278 -91 853 498 
Q 428 1088 428 2181 
Q 428 3406 931 4078 
Q 1434 4750 2350 4750 
Q 2597 4750 2869 4703 
Q 3141 4656 3425 4563 
L 3425 3794 
L 3072 3794 
Q 3034 4109 2831 4275 
Q 2628 4441 2284 4441 
Q 1678 4441 1381 3981 
Q 1084 3522 1075 2569 
z
" transform="scale(0.015625)"/>
       </defs>
       <use xlink:href="#DejaVuSerif-30"/>
       <use xlink:href="#DejaVuSerif-2e" x="63.623047"/>
       <use xlink:href="#DejaVuSerif-36" x="95.410156"/>
       <use xlink:href="#DejaVuSerif-30" x="159.033203"/>
      </g>
     </g>
    </g>
    <g id="ytick_4">
     <g id="line2d_28">
      <path d="M 121.181625 281.486461 
L 835.92 281.486461 
" clip-path="url(#p6c4b7eba30)" style="fill: none; stroke-dasharray: 3.7,1.6; stroke-dashoffset: 0; stroke: #b0b0b0; stroke-opacity: 0.5"/>
     </g>
     <g id="line2d_29">
      <g>
       <use xlink:href="#m1efc327fdb" x="121.181625" y="281.486461" style="stroke: #000000; stroke-width: 2"/>
      </g>
     </g>
     <g id="line2d_30">
      <g>
       <use xlink:href="#m244bb349d5" x="835.92" y="281.486461" style="stroke: #000000; stroke-width: 2"/>
      </g>
     </g>
     <g id="text_11">
      <!-- 0.65 -->
      <g transform="translate(59.791 291.36443) scale(0.26 -0.26)">
       <use xlink:href="#DejaVuSerif-30"/>
       <use xlink:href="#DejaVuSerif-2e" x="63.623047"/>
       <use xlink:href="#DejaVuSerif-36" x="95.410156"/>
       <use xlink:href="#DejaVuSerif-35" x="159.033203"/>
      </g>
     </g>
    </g>
    <g id="ytick_5">
     <g id="line2d_31">
      <path d="M 121.181625 220.854962 
L 835.92 220.854962 
" clip-path="url(#p6c4b7eba30)" style="fill: none; stroke-dasharray: 3.7,1.6; stroke-dashoffset: 0; stroke: #b0b0b0; stroke-opacity: 0.5"/>
     </g>
     <g id="line2d_32">
      <g>
       <use xlink:href="#m1efc327fdb" x="121.181625" y="220.854962" style="stroke: #000000; stroke-width: 2"/>
      </g>
     </g>
     <g id="line2d_33">
      <g>
       <use xlink:href="#m244bb349d5" x="835.92" y="220.854962" style="stroke: #000000; stroke-width: 2"/>
      </g>
     </g>
     <g id="text_12">
      <!-- 0.70 -->
      <g transform="translate(59.791 230.73293) scale(0.26 -0.26)">
       <defs>
        <path id="DejaVuSerif-37" d="M 3609 4347 
L 1784 0 
L 1319 0 
L 3059 4153 
L 903 4153 
L 903 3578 
L 538 3578 
L 538 4666 
L 3609 4666 
L 3609 4347 
z
" transform="scale(0.015625)"/>
       </defs>
       <use xlink:href="#DejaVuSerif-30"/>
       <use xlink:href="#DejaVuSerif-2e" x="63.623047"/>
       <use xlink:href="#DejaVuSerif-37" x="95.410156"/>
       <use xlink:href="#DejaVuSerif-30" x="159.033203"/>
      </g>
     </g>
    </g>
    <g id="ytick_6">
     <g id="line2d_34">
      <path d="M 121.181625 160.223462 
L 835.92 160.223462 
" clip-path="url(#p6c4b7eba30)" style="fill: none; stroke-dasharray: 3.7,1.6; stroke-dashoffset: 0; stroke: #b0b0b0; stroke-opacity: 0.5"/>
     </g>
     <g id="line2d_35">
      <g>
       <use xlink:href="#m1efc327fdb" x="121.181625" y="160.223462" style="stroke: #000000; stroke-width: 2"/>
      </g>
     </g>
     <g id="line2d_36">
      <g>
       <use xlink:href="#m244bb349d5" x="835.92" y="160.223462" style="stroke: #000000; stroke-width: 2"/>
      </g>
     </g>
     <g id="text_13">
      <!-- 0.75 -->
      <g transform="translate(59.791 170.101431) scale(0.26 -0.26)">
       <use xlink:href="#DejaVuSerif-30"/>
       <use xlink:href="#DejaVuSerif-2e" x="63.623047"/>
       <use xlink:href="#DejaVuSerif-37" x="95.410156"/>
       <use xlink:href="#DejaVuSerif-35" x="159.033203"/>
      </g>
     </g>
    </g>
    <g id="ytick_7">
     <g id="line2d_37">
      <path d="M 121.181625 99.591963 
L 835.92 99.591963 
" clip-path="url(#p6c4b7eba30)" style="fill: none; stroke-dasharray: 3.7,1.6; stroke-dashoffset: 0; stroke: #b0b0b0; stroke-opacity: 0.5"/>
     </g>
     <g id="line2d_38">
      <g>
       <use xlink:href="#m1efc327fdb" x="121.181625" y="99.591963" style="stroke: #000000; stroke-width: 2"/>
      </g>
     </g>
     <g id="line2d_39">
      <g>
       <use xlink:href="#m244bb349d5" x="835.92" y="99.591963" style="stroke: #000000; stroke-width: 2"/>
      </g>
     </g>
     <g id="text_14">
      <!-- 0.80 -->
      <g transform="translate(59.791 109.469932) scale(0.26 -0.26)">
       <defs>
        <path id="DejaVuSerif-38" d="M 2981 1275 
Q 2981 1775 2732 2051 
Q 2484 2328 2034 2328 
Q 1584 2328 1336 2051 
Q 1088 1775 1088 1275 
Q 1088 772 1336 495 
Q 1584 219 2034 219 
Q 2484 219 2732 495 
Q 2981 772 2981 1275 
z
M 2853 3541 
Q 2853 3966 2637 4203 
Q 2422 4441 2034 4441 
Q 1650 4441 1433 4203 
Q 1216 3966 1216 3541 
Q 1216 3113 1433 2875 
Q 1650 2638 2034 2638 
Q 2422 2638 2637 2875 
Q 2853 3113 2853 3541 
z
M 2516 2484 
Q 3047 2413 3344 2092 
Q 3641 1772 3641 1275 
Q 3641 619 3225 264 
Q 2809 -91 2034 -91 
Q 1263 -91 845 264 
Q 428 619 428 1275 
Q 428 1772 725 2092 
Q 1022 2413 1556 2484 
Q 1084 2569 832 2842 
Q 581 3116 581 3541 
Q 581 4103 968 4426 
Q 1356 4750 2034 4750 
Q 2713 4750 3100 4426 
Q 3488 4103 3488 3541 
Q 3488 3116 3236 2842 
Q 2984 2569 2516 2484 
z
" transform="scale(0.015625)"/>
       </defs>
       <use xlink:href="#DejaVuSerif-30"/>
       <use xlink:href="#DejaVuSerif-2e" x="63.623047"/>
       <use xlink:href="#DejaVuSerif-38" x="95.410156"/>
       <use xlink:href="#DejaVuSerif-30" x="159.033203"/>
      </g>
     </g>
    </g>
    <g id="ytick_8">
     <g id="line2d_40">
      <path d="M 121.181625 38.960464 
L 835.92 38.960464 
" clip-path="url(#p6c4b7eba30)" style="fill: none; stroke-dasharray: 3.7,1.6; stroke-dashoffset: 0; stroke: #b0b0b0; stroke-opacity: 0.5"/>
     </g>
     <g id="line2d_41">
      <g>
       <use xlink:href="#m1efc327fdb" x="121.181625" y="38.960464" style="stroke: #000000; stroke-width: 2"/>
      </g>
     </g>
     <g id="line2d_42">
      <g>
       <use xlink:href="#m244bb349d5" x="835.92" y="38.960464" style="stroke: #000000; stroke-width: 2"/>
      </g>
     </g>
     <g id="text_15">
      <!-- 0.85 -->
      <g transform="translate(59.791 48.838432) scale(0.26 -0.26)">
       <use xlink:href="#DejaVuSerif-30"/>
       <use xlink:href="#DejaVuSerif-2e" x="63.623047"/>
       <use xlink:href="#DejaVuSerif-38" x="95.410156"/>
       <use xlink:href="#DejaVuSerif-35" x="159.033203"/>
      </g>
     </g>
    </g>
    <g id="text_16">
     <!-- $r_i$ (a.u.) -->
     <g transform="translate(50.383813 307.27625) rotate(-90) scale(0.26 -0.26)">
      <defs>
       <path id="Cmmi10-72" d="M 494 109 
Q 494 147 500 166 
L 978 2075 
Q 1025 2253 1025 2388 
Q 1025 2663 838 2663 
Q 638 2663 541 2423 
Q 444 2184 353 1819 
Q 353 1800 334 1789 
Q 316 1778 300 1778 
L 225 1778 
Q 203 1778 187 1801 
Q 172 1825 172 1844 
Q 241 2122 305 2315 
Q 369 2509 505 2668 
Q 641 2828 844 2828 
Q 1066 2828 1233 2700 
Q 1400 2572 1441 2363 
Q 1603 2575 1811 2701 
Q 2019 2828 2266 2828 
Q 2469 2828 2623 2709 
Q 2778 2591 2778 2388 
Q 2778 2225 2676 2104 
Q 2575 1984 2406 1984 
Q 2303 1984 2233 2048 
Q 2163 2113 2163 2216 
Q 2163 2356 2266 2467 
Q 2369 2578 2503 2578 
Q 2400 2663 2253 2663 
Q 1978 2663 1775 2467 
Q 1572 2272 1409 1972 
L 953 141 
Q 931 53 854 -9 
Q 778 -72 684 -72 
Q 606 -72 550 -22 
Q 494 28 494 109 
z
" transform="scale(0.015625)"/>
       <path id="Cmmi10-69" d="M 500 459 
Q 500 578 550 709 
L 1069 2088 
Q 1153 2322 1153 2472 
Q 1153 2663 1013 2663 
Q 759 2663 595 2402 
Q 431 2141 353 1819 
Q 341 1778 300 1778 
L 225 1778 
Q 172 1778 172 1838 
L 172 1856 
Q 275 2238 487 2533 
Q 700 2828 1025 2828 
Q 1253 2828 1411 2678 
Q 1569 2528 1569 2297 
Q 1569 2178 1516 2047 
L 997 672 
Q 909 459 909 288 
Q 909 97 1056 97 
Q 1306 97 1473 364 
Q 1641 631 1709 941 
Q 1722 978 1759 978 
L 1838 978 
Q 1863 978 1878 961 
Q 1894 944 1894 922 
Q 1894 916 1888 903 
Q 1800 541 1583 234 
Q 1366 -72 1044 -72 
Q 819 -72 659 83 
Q 500 238 500 459 
z
M 1222 3878 
Q 1222 4013 1334 4122 
Q 1447 4231 1581 4231 
Q 1691 4231 1761 4164 
Q 1831 4097 1831 3994 
Q 1831 3850 1717 3742 
Q 1603 3634 1466 3634 
Q 1363 3634 1292 3704 
Q 1222 3775 1222 3878 
z
" transform="scale(0.015625)"/>
      </defs>
      <use xlink:href="#Cmmi10-72" transform="translate(0 0.015625)"/>
      <use xlink:href="#Cmmi10-69" transform="translate(45.117188 -16.990625) scale(0.7)"/>
      <use xlink:href="#DejaVuSerif-20" transform="translate(75.591211 0.015625)"/>
      <use xlink:href="#DejaVuSerif-28" transform="translate(107.37832 0.015625)"/>
      <use xlink:href="#DejaVuSerif-61" transform="translate(146.391992 0.015625)"/>
      <use xlink:href="#DejaVuSerif-2e" transform="translate(206.011133 0.015625)"/>
      <use xlink:href="#DejaVuSerif-75" transform="translate(237.798242 0.015625)"/>
      <use xlink:href="#DejaVuSerif-2e" transform="translate(302.202539 0.015625)"/>
      <use xlink:href="#DejaVuSerif-29" transform="translate(333.989648 0.015625)"/>
     </g>
    </g>
   </g>
   <g id="line2d_43">
    <path d="M 153.669733 313.606895 
L 154.320146 312.192901 
L 154.970558 307.953518 
L 155.620971 301.171595 
L 156.921796 282.366252 
L 158.873034 252.494765 
L 159.523446 244.858114 
L 160.173859 239.169077 
L 160.824271 235.657812 
L 161.474684 234.387538 
L 162.125096 235.260914 
L 162.775509 238.03198 
L 163.425922 242.321848 
L 166.027572 263.934957 
L 166.677984 267.492559 
L 167.328397 269.286073 
L 167.97881 269.023717 
L 168.629222 266.601429 
L 169.279635 262.106826 
L 169.930047 255.799975 
L 171.230872 239.38621 
L 173.18211 212.413484 
L 174.482935 197.654878 
L 175.133348 192.039434 
L 175.78376 187.754892 
L 176.434173 184.816321 
L 177.084586 183.16699 
L 177.734998 182.688104 
L 178.385411 183.210644 
L 179.035823 184.526776 
L 180.336648 188.589579 
L 181.637474 192.910694 
L 182.287886 194.58737 
L 182.938299 195.681849 
L 183.588711 196.046027 
L 184.239124 195.576262 
L 184.889536 194.216289 
L 185.539949 191.955753 
L 186.190362 188.827059 
L 186.840774 184.899321 
L 188.141599 175.051012 
L 190.092837 157.145632 
L 193.3449 126.434173 
L 195.296138 110.611322 
L 196.596963 101.630951 
L 197.897788 93.956171 
L 199.198613 87.598265 
L 200.499438 82.605212 
L 201.149851 80.65642 
L 201.800263 79.104386 
L 202.450676 77.981333 
L 203.101088 77.326327 
L 203.751501 77.184856 
L 204.401914 77.608063 
L 205.052326 78.651701 
L 205.702739 80.374663 
L 206.353151 82.837296 
L 207.003564 86.099259 
L 207.653976 90.217189 
L 208.304389 95.242045 
L 209.605214 108.169841 
L 210.906039 125.05848 
L 212.206864 145.77495 
L 214.158102 182.579632 
L 216.759752 233.687565 
L 218.060578 253.484065 
L 218.71099 260.211494 
L 219.361403 264.187761 
L 220.011815 265.070025 
L 220.662228 262.692135 
L 221.31264 257.08901 
L 221.963053 248.482814 
L 222.613466 237.237379 
L 223.914291 208.65859 
L 228.467179 95.347803 
L 229.117591 84.042035 
L 229.768004 75.540889 
L 230.418416 70.372204 
L 231.068829 69.018869 
L 231.719242 71.888747 
L 232.369654 79.285833 
L 233.020067 91.38589 
L 233.670479 108.217415 
L 234.320892 129.647092 
L 235.621717 184.84683 
L 238.87378 347.01226 
L 239.524192 366.985294 
L 240.174605 376.067318 
L 240.825018 372.725483 
L 241.47543 357.622412 
L 242.125843 333.158606 
L 243.426668 268.509538 
L 245.377906 167.977705 
L 246.678731 116.196779 
L 247.329143 98.104616 
L 247.979556 86.371731 
L 248.629968 81.673166 
L 249.280381 84.464449 
L 249.930794 94.941199 
L 250.581206 113.019678 
L 251.231619 138.329541 
L 251.882031 170.221678 
L 253.182856 249.444202 
L 255.134094 373.94568 
L 255.784507 400.612013 
L 256.434919 410.914093 
L 257.085332 402.467306 
L 257.735744 377.485229 
L 259.03657 299.38938 
L 260.987807 176.999374 
L 261.63822 144.717394 
L 262.288632 119.181926 
L 262.939045 101.502098 
L 263.589458 92.53414 
L 264.23987 92.819189 
L 264.890283 102.535628 
L 265.540695 121.483765 
L 266.191108 149.097999 
L 266.84152 184.474667 
L 268.142346 272.776419 
L 269.443171 366.966277 
L 270.093583 404.214147 
L 270.743996 425.393858 
L 271.394408 425.054297 
L 272.044821 403.547443 
L 272.695234 366.759299 
L 275.296884 189.956279 
L 275.947296 155.75284 
L 276.597709 129.265406 
L 277.248122 111.646906 
L 277.898534 103.725977 
L 278.548947 105.94621 
L 279.199359 118.326313 
L 279.849772 140.465521 
L 280.500184 171.572196 
L 281.80101 255.555471 
L 283.752247 397.24805 
L 284.40266 428.066129 
L 285.053072 438.538732 
L 285.703485 425.923397 
L 286.353898 394.427207 
L 287.654723 305.272034 
L 288.955548 217.455115 
L 289.60596 181.321929 
L 290.256373 152.590303 
L 290.906786 132.462819 
L 291.557198 121.822766 
L 292.207611 121.184119 
L 292.858023 130.640979 
L 293.508436 149.869434 
L 294.158848 178.147747 
L 294.809261 214.379824 
L 296.110086 303.960598 
L 297.410911 396.09011 
L 298.061324 429.680333 
L 298.711736 445.524883 
L 299.362149 439.830718 
L 300.012562 415.078447 
L 301.313387 335.581942 
L 302.614212 252.484867 
L 303.264624 217.056688 
L 303.915037 187.871299 
L 304.56545 166.075335 
L 305.215862 152.547093 
L 305.866275 147.869739 
L 306.516687 152.282301 
L 307.1671 165.655643 
L 307.817512 187.495659 
L 308.467925 216.961888 
L 309.76875 293.539257 
L 311.719988 416.127911 
L 312.3704 442.300315 
L 313.020813 452.855869 
L 313.671226 446.370849 
L 314.321638 425.697448 
L 315.622463 362.251605 
L 316.923288 295.639438 
L 318.224114 242.222936 
L 318.874526 223.13807 
L 319.524939 210.09645 
L 320.175351 203.585978 
L 320.825764 203.869782 
L 321.476176 210.952201 
L 322.126589 224.564783 
L 322.777002 244.167134 
L 324.077827 297.88135 
L 326.679477 422.008894 
L 327.32989 443.937939 
L 327.980302 457.74763 
L 328.630715 462.727023 
L 329.281127 459.7298 
L 329.93154 450.756056 
L 331.232365 424.001117 
L 332.53319 396.652874 
L 333.183603 385.117211 
L 333.834015 375.589507 
L 334.484428 368.266171 
L 335.13484 363.218938 
L 335.785253 360.414764 
L 336.435666 359.719179 
L 337.086078 360.896922 
L 337.736491 363.620434 
L 338.386903 367.490623 
L 340.988554 385.67209 
L 341.638966 388.901541 
L 342.289379 390.99901 
L 342.939791 391.787447 
L 343.590204 391.171983 
L 344.240616 389.139972 
L 344.891029 385.762162 
L 345.541442 381.18985 
L 346.842267 369.453462 
L 348.793504 350.759562 
L 349.443917 345.965065 
L 350.09433 342.626538 
L 350.744742 341.12467 
L 351.395155 341.757591 
L 352.045567 344.724496 
L 352.69598 350.124275 
L 353.346392 357.965401 
L 353.996805 368.175209 
L 355.29763 394.941645 
L 357.89928 456.198369 
L 358.549693 464.351195 
L 359.200106 464.825214 
L 359.850518 455.807014 
L 360.500931 437.12939 
L 361.151343 410.391169 
L 363.102581 308.71335 
L 364.403406 246.49059 
L 365.053819 221.845448 
L 365.704231 202.853464 
L 366.354644 190.20216 
L 367.005056 184.327139 
L 367.655469 185.400489 
L 368.305882 193.330614 
L 368.956294 207.785603 
L 369.606707 228.237944 
L 370.257119 254.013301 
L 371.557944 318.150969 
L 373.509182 423.444284 
L 374.159595 448.406903 
L 374.810007 459.478343 
L 375.46042 452.579781 
L 376.110832 428.16081 
L 376.761245 390.908551 
L 379.362895 217.738026 
L 380.013308 184.395773 
L 380.66372 158.444928 
L 381.314133 140.809101 
L 381.964546 132.092559 
L 382.614958 132.558897 
L 383.265371 142.112549 
L 383.915783 160.314966 
L 384.566196 186.432748 
L 385.216608 219.503392 
L 386.517434 301.546325 
L 387.818259 391.215431 
L 388.468671 428.782301 
L 389.119084 451.948556 
L 389.769496 453.628261 
L 390.419909 432.341066 
L 391.070322 393.496913 
L 393.671972 201.329505 
L 394.322384 164.220583 
L 394.972797 135.422084 
L 395.62321 115.96855 
L 396.273622 106.546609 
L 396.924035 107.459063 
L 397.574447 118.591259 
L 398.22486 139.417868 
L 398.875272 169.061255 
L 400.176098 249.942019 
L 402.127335 394.955107 
L 402.777748 432.366153 
L 403.42816 450.919619 
L 404.078573 444.251679 
L 404.728986 413.999589 
L 406.029811 315.911185 
L 407.330636 214.260346 
L 407.981048 171.51857 
L 408.631461 136.729861 
L 409.281874 111.152098 
L 409.932286 95.686735 
L 410.582699 90.863638 
L 411.233111 96.789962 
L 411.883524 113.126317 
L 412.533936 139.120958 
L 413.184349 173.688547 
L 414.485174 262.835085 
L 416.436412 408.56933 
L 417.086824 438.559734 
L 417.737237 445.404959 
L 418.38765 426.438486 
L 419.038062 387.311211 
L 421.639712 185.973195 
L 422.290125 146.553955 
L 422.940538 115.608031 
L 423.59095 94.184464 
L 424.241363 82.986941 
L 424.891775 82.335271 
L 425.542188 92.123359 
L 426.1926 111.820406 
L 426.843013 140.528117 
L 427.493426 177.063204 
L 428.794251 267.648631 
L 430.095076 366.131558 
L 430.745488 407.304643 
L 431.395901 432.987025 
L 432.046314 435.941832 
L 432.696726 414.968865 
L 433.347139 375.923048 
L 435.948789 180.933557 
L 436.599202 142.447788 
L 437.249614 111.819934 
L 437.900027 89.994258 
L 438.550439 77.593251 
L 439.200852 74.895017 
L 439.851264 81.802575 
L 440.501677 97.848689 
L 441.15209 122.237686 
L 441.802502 153.931109 
L 443.103327 234.17155 
L 445.054565 368.26838 
L 445.704978 402.400684 
L 446.35539 421.357681 
L 447.005803 420.259702 
L 447.656215 399.193372 
L 448.306628 363.154126 
L 451.558691 146.347243 
L 452.209103 115.840468 
L 452.859516 92.625304 
L 453.509928 77.227282 
L 454.160341 69.895384 
L 454.810754 70.591193 
L 455.461166 78.992256 
L 456.111579 94.521459 
L 456.761991 116.404222 
L 458.062816 175.508619 
L 460.014054 285.984753 
L 461.314879 355.101959 
L 461.965292 379.814592 
L 462.615704 392.986504 
L 463.266117 392.077396 
L 463.91653 377.129832 
L 464.566942 350.77033 
L 465.867767 279.24864 
L 467.819005 169.60227 
L 469.11983 113.563102 
L 469.770243 92.872131 
L 470.420655 77.478817 
L 471.071068 67.458761 
L 471.72148 62.714661 
L 472.371893 62.990119 
L 473.022306 67.891919 
L 473.672718 76.921225 
L 474.323131 89.509014 
L 475.623956 122.943788 
L 477.575194 184.886498 
L 479.526431 247.372505 
L 480.827257 280.878604 
L 481.477669 292.894794 
L 482.128082 300.749005 
L 482.778494 303.914843 
L 483.428907 302.204562 
L 484.079319 295.835765 
L 484.729732 285.376751 
L 485.380145 271.627748 
L 486.68097 237.770955 
L 489.933033 148.191553 
L 491.233858 118.959786 
L 492.534683 95.490248 
L 493.835508 77.835879 
L 494.485921 71.042014 
L 495.136333 65.471884 
L 495.786746 61.004678 
L 496.437158 57.509517 
L 497.087571 54.851381 
L 497.737983 52.896921 
L 498.388396 51.519384 
L 499.038809 50.60325 
L 499.689221 50.048097 
L 500.339634 49.771777 
L 500.990046 49.712931 
L 501.640459 49.832745 
L 502.290871 50.116065 
L 502.941284 50.571855 
L 503.591697 51.23298 
L 504.242109 52.15534 
L 504.892522 53.416306 
L 505.542934 55.112364 
L 506.193347 57.356047 
L 506.843759 60.272046 
L 507.494172 63.992517 
L 508.144585 68.651667 
L 508.794997 74.379609 
L 509.44541 81.295595 
L 510.746235 99.070735 
L 512.04706 122.429409 
L 513.347885 151.143816 
L 515.299123 201.227268 
L 517.250361 250.037517 
L 517.900773 263.008578 
L 518.551186 273.00101 
L 519.201598 279.276883 
L 519.852011 281.294431 
L 520.502423 278.813771 
L 521.152836 271.946124 
L 521.803249 261.12699 
L 522.453661 247.026905 
L 523.754486 212.214653 
L 526.356137 138.649754 
L 527.006549 123.749301 
L 527.656962 111.605928 
L 528.307374 102.839694 
L 528.957787 98.009172 
L 529.608199 97.58147 
L 530.258612 101.90374 
L 530.909025 111.174646 
L 531.559437 125.421646 
L 532.20985 144.48006 
L 533.510675 195.284805 
L 536.762738 341.610815 
L 537.41315 356.827809 
L 538.063563 361.320096 
L 538.713975 354.352257 
L 539.364388 337.081552 
L 540.014801 312.064783 
L 543.266863 164.36943 
L 543.917276 143.691973 
L 544.567689 128.931275 
L 545.218101 120.88837 
L 545.868514 120.113754 
L 546.518926 126.87115 
L 547.169339 141.115348 
L 547.819751 162.47993 
L 548.470164 190.266108 
L 549.770989 260.326876 
L 551.071814 335.786826 
L 551.722227 367.024554 
L 552.372639 387.762859 
L 553.023052 394.017436 
L 553.673465 384.540856 
L 554.323877 361.549724 
L 555.624702 293.077446 
L 556.925527 221.496699 
L 557.57594 191.320962 
L 558.226353 167.19536 
L 558.876765 150.344399 
L 559.527178 141.646086 
L 560.17759 141.615973 
L 560.828003 150.38183 
L 561.478415 167.674863 
L 562.128828 192.8309 
L 563.429653 261.961572 
L 565.380891 377.632119 
L 566.031303 403.091054 
L 566.681716 413.533073 
L 567.332129 406.782651 
L 567.982541 384.893435 
L 569.283366 316.04205 
L 570.584191 244.166137 
L 571.234604 214.392873 
L 571.885017 191.049793 
L 572.535429 175.297324 
L 573.185842 167.914411 
L 573.836254 169.292559 
L 574.486667 179.419787 
L 575.137079 197.880761 
L 575.787492 223.858551 
L 577.088317 292.908671 
L 578.389142 369.348942 
L 579.039555 401.13935 
L 579.689967 422.158514 
L 580.34038 428.520333 
L 580.990793 419.483545 
L 581.641205 397.891902 
L 582.94203 335.791971 
L 584.242855 273.702704 
L 584.893268 248.502056 
L 585.543681 229.02563 
L 586.194093 216.16722 
L 586.844506 210.503079 
L 587.494918 212.28644 
L 588.145331 221.434676 
L 588.795743 237.526129 
L 589.446156 259.802783 
L 590.746981 318.119429 
L 592.698219 410.380292 
L 593.348631 431.264262 
L 593.999044 442.618089 
L 594.649457 443.544952 
L 595.299869 435.147861 
L 595.950282 419.943222 
L 599.202345 326.556446 
L 599.852757 314.499044 
L 600.50317 306.302967 
L 601.153582 302.234217 
L 601.803995 302.371888 
L 602.454407 306.600337 
L 603.10482 314.60993 
L 603.755233 325.914162 
L 605.056058 355.748706 
L 607.657708 421.604484 
L 608.308121 434.798486 
L 608.958533 445.634745 
L 609.608946 453.997355 
L 610.259358 460.022322 
L 610.909771 464.038435 
L 611.560183 466.476199 
L 612.210596 467.768761 
L 612.861009 468.26841 
L 613.511421 468.188218 
L 614.161834 467.571614 
L 614.812246 466.288216 
L 615.462659 464.055038 
L 616.113071 460.48514 
L 616.763484 455.162029 
L 617.413897 447.734228 
L 618.064309 438.009815 
L 619.365134 412.088113 
L 622.617197 336.464827 
L 623.26761 325.781386 
L 623.918022 318.264799 
L 624.568435 314.392763 
L 625.218847 314.460543 
L 625.86926 318.562557 
L 626.519673 326.584883 
L 627.170085 338.201526 
L 628.47091 369.752821 
L 629.771735 405.196287 
L 630.422148 420.093443 
L 631.072561 429.993335 
L 631.722973 432.570407 
L 632.373386 426.359863 
L 633.023798 411.398194 
L 633.674211 389.255011 
L 636.926274 258.728578 
L 637.576686 242.829855 
L 638.227099 233.193087 
L 638.877511 230.311683 
L 639.527924 234.331405 
L 640.178337 245.049406 
L 640.828749 261.915045 
L 641.479162 284.020209 
L 644.080812 389.870459 
L 644.731225 406.22082 
L 645.381637 411.414225 
L 646.03205 403.732247 
L 646.682462 384.206905 
L 647.983287 323.316147 
L 649.284113 258.081756 
L 649.934525 230.723159 
L 650.584938 209.190517 
L 651.23535 194.588653 
L 651.885763 187.600377 
L 652.536175 188.506631 
L 653.186588 197.190667 
L 653.837001 213.140106 
L 654.487413 235.453935 
L 655.788238 293.44381 
L 657.089063 353.994161 
L 657.739476 376.773134 
L 658.389889 389.20916 
L 659.040301 388.537801 
L 659.690714 374.616516 
L 660.341126 349.979654 
L 663.593189 194.622569 
L 664.243602 175.020813 
L 664.894014 162.35358 
L 665.544427 157.070574 
L 666.194839 159.257229 
L 666.845252 168.645753 
L 667.495665 184.629835 
L 668.146077 206.2836 
L 669.446902 261.274518 
L 670.747727 318.983244 
L 671.39814 342.220471 
L 672.048553 357.542748 
L 672.698965 362.431097 
L 673.349378 355.947593 
L 673.99979 339.14355 
L 674.650203 314.58618 
L 677.902266 172.924378 
L 678.552678 153.849608 
L 679.203091 140.115437 
L 679.853503 132.034848 
L 680.503916 129.664035 
L 681.154329 132.822604 
L 681.804741 141.117516 
L 682.455154 153.968674 
L 683.105566 170.638882 
L 684.406391 211.817428 
L 686.357629 276.113131 
L 687.008042 292.739241 
L 687.658454 304.528014 
L 688.308867 310.32913 
L 688.959279 309.547601 
L 689.609692 302.304851 
L 690.260105 289.399552 
L 690.910517 272.093266 
L 692.211342 229.997244 
L 694.16258 166.11335 
L 695.463405 132.030839 
L 696.113818 118.71767 
L 696.76423 108.073161 
L 697.414643 100.093923 
L 698.065055 94.684218 
L 698.715468 91.671824 
L 699.365881 90.824467 
L 700.016293 91.865975 
L 700.666706 94.491987 
L 701.317118 98.384326 
L 702.617943 108.701834 
L 705.219594 131.554952 
L 706.520419 140.570649 
L 707.170831 143.975001 
L 707.821244 146.554193 
L 708.471657 148.290393 
L 709.122069 149.2043 
L 709.772482 149.352681 
L 710.422894 148.824055 
L 711.073307 147.732988 
L 711.723719 146.213143 
L 714.975782 137.277809 
L 715.626195 136.179534 
L 716.276607 135.576748 
L 716.92702 135.554631 
L 717.577433 136.183496 
L 718.227845 137.519066 
L 718.878258 139.603111 
L 719.52867 142.463752 
L 720.179083 146.115669 
L 720.829495 150.559954 
L 722.130321 161.759284 
L 723.431146 175.773582 
L 725.382383 200.718179 
L 727.984034 235.088697 
L 729.284859 248.423286 
L 729.935271 253.012538 
L 730.585684 255.785671 
L 731.236097 256.485546 
L 731.886509 254.949956 
L 732.536922 251.132351 
L 733.187334 245.099781 
L 733.837747 237.012092 
L 735.138572 215.58486 
L 736.439397 188.857692 
L 739.041047 127.69884 
L 740.992285 84.230693 
L 742.29311 62.142387 
L 742.943523 54.60277 
L 743.593935 50.075489 
L 744.244348 49.041477 
L 744.894761 51.925655 
L 745.545173 59.068977 
L 746.195586 70.704035 
L 746.845998 86.936889 
L 747.496411 107.738418 
L 748.797236 162.188494 
L 750.098061 230.551306 
L 752.049299 340.188314 
L 752.699711 370.105922 
L 753.350124 391.36981 
L 754.000537 400.901493 
L 754.650949 397.267348 
L 755.301362 381.422542 
L 755.951774 356.149822 
L 757.252599 290.118148 
L 759.85425 152.641588 
L 761.155075 98.349235 
L 761.805487 77.629971 
L 762.4559 62.260343 
L 763.106313 52.980353 
L 763.756725 50.408376 
L 764.407138 54.980544 
L 765.05755 66.908873 
L 765.707963 86.165113 
L 766.358375 112.485396 
L 767.008788 145.382828 
L 768.309613 227.739982 
L 770.260851 368.343001 
L 770.911263 406.247965 
L 771.561676 430.027272 
L 772.212089 434.43602 
L 772.862501 418.754755 
L 773.512914 387.323745 
L 774.813739 301.512341 
L 776.764977 171.437524 
L 778.065802 103.67438 
L 778.716214 78.710665 
L 779.366627 60.992053 
L 780.017039 51.348508 
L 780.667452 50.388003 
L 781.317865 58.425853 
L 781.968277 75.453739 
L 782.61869 101.155833 
L 783.269102 134.940256 
L 784.569927 223.075154 
L 787.171578 421.35987 
L 787.82199 446.034619 
L 788.472403 446.584619 
L 789.122815 423.341116 
L 789.773228 383.316644 
L 793.025291 146.428958 
L 793.675703 110.956518 
L 794.326116 82.68894 
L 794.976529 62.702313 
L 795.626941 51.901293 
L 796.277354 50.902096 
L 796.927766 59.966918 
L 797.578179 78.971912 
L 798.228591 107.445239 
L 798.879004 144.622006 
L 800.179829 240.600497 
L 802.131067 403.907645 
L 802.781479 442.128081 
L 803.431892 457.107677 
L 803.431892 457.107677 
" clip-path="url(#p6c4b7eba30)" style="fill: none; stroke: #1f77b4; stroke-width: 3; stroke-linecap: square"/>
   </g>
   <g id="line2d_44">
    <path d="M 153.669733 313.606871 
L 154.320146 312.192868 
L 154.970558 307.953478 
L 155.620971 301.171553 
L 156.921796 282.366211 
L 158.873034 252.494745 
L 159.523446 244.858104 
L 160.173859 239.169077 
L 160.824271 235.657823 
L 161.474684 234.38756 
L 162.125096 235.260946 
L 162.775509 238.032022 
L 163.425922 242.321899 
L 166.027572 263.93503 
L 166.677984 267.492632 
L 167.328397 269.286144 
L 167.97881 269.023784 
L 168.629222 266.601489 
L 169.279635 262.106878 
L 169.930047 255.800018 
L 171.230872 239.386231 
L 173.18211 212.413474 
L 174.482935 197.654852 
L 175.133348 192.039401 
L 175.78376 187.754854 
L 176.434173 184.816278 
L 177.084586 183.166943 
L 177.734998 182.688055 
L 178.385411 183.210595 
L 179.035823 184.526727 
L 180.336648 188.589534 
L 181.637474 192.910656 
L 182.287886 194.587337 
L 182.938299 195.681821 
L 183.588711 196.046004 
L 184.239124 195.576245 
L 184.889536 194.216278 
L 185.539949 191.955749 
L 186.190362 188.827062 
L 186.840774 184.899331 
L 188.141599 175.051035 
L 190.092837 157.145673 
L 193.3449 126.434239 
L 195.296138 110.611399 
L 196.596963 101.631035 
L 197.897788 93.956261 
L 199.198613 87.598359 
L 200.499438 82.605309 
L 201.149851 80.656517 
L 201.800263 79.104484 
L 202.450676 77.981431 
L 203.101088 77.326424 
L 203.751501 77.184952 
L 204.401914 77.608157 
L 205.052326 78.651794 
L 205.702739 80.374753 
L 206.353151 82.837383 
L 207.003564 86.099343 
L 207.653976 90.21727 
L 208.304389 95.242121 
L 209.605214 108.169907 
L 210.906039 125.058534 
L 212.206864 145.774991 
L 214.158102 182.579652 
L 216.759752 233.687552 
L 218.060578 253.484035 
L 218.71099 260.211455 
L 219.361403 264.187713 
L 220.011815 265.069968 
L 220.662228 262.692069 
L 221.31264 257.088936 
L 221.963053 248.482733 
L 222.613466 237.237291 
L 223.914291 208.658491 
L 228.467179 95.347688 
L 229.117591 84.041922 
L 229.768004 75.540779 
L 230.418416 70.372098 
L 231.068829 69.018768 
L 231.719242 71.888653 
L 232.369654 79.285746 
L 233.020067 91.385812 
L 233.670479 108.217348 
L 234.320892 129.647035 
L 235.621717 184.846797 
L 238.87378 347.0123 
L 239.524192 366.985346 
L 240.174605 376.067377 
L 240.825018 372.725543 
L 241.47543 357.622468 
L 242.125843 333.158654 
L 243.426668 268.509564 
L 245.377906 167.977695 
L 246.678731 116.196745 
L 247.329143 98.10457 
L 247.979556 86.371672 
L 248.629968 81.673095 
L 249.280381 84.464366 
L 249.930794 94.941104 
L 250.581206 113.019573 
L 251.231619 138.329426 
L 251.882031 170.221554 
L 253.182856 249.444067 
L 255.134094 373.945571 
L 255.784507 400.611936 
L 256.434919 410.914059 
L 257.085332 402.467319 
L 257.735744 377.485287 
L 259.03657 299.389498 
L 260.987807 176.999542 
L 261.63822 144.717576 
L 262.288632 119.182122 
L 262.939045 101.502309 
L 263.589458 92.534367 
L 264.23987 92.819433 
L 264.890283 102.535888 
L 265.540695 121.484041 
L 266.191108 149.09829 
L 266.84152 184.47497 
L 268.142346 272.77673 
L 269.443171 366.96654 
L 270.093583 404.214343 
L 270.743996 425.393951 
L 271.394408 425.054269 
L 272.044821 403.547302 
L 272.695234 366.759074 
L 275.296884 189.955932 
L 275.947296 155.752483 
L 276.597709 129.265041 
L 277.248122 111.646536 
L 277.898534 103.725601 
L 278.548947 105.945829 
L 279.199359 118.325929 
L 279.849772 140.465134 
L 280.500184 171.57181 
L 281.80101 255.555102 
L 283.752247 397.24783 
L 284.40266 428.066025 
L 285.053072 438.538769 
L 285.703485 425.923564 
L 286.353898 394.427467 
L 287.654723 305.272366 
L 288.955548 217.455445 
L 289.60596 181.322247 
L 290.256373 152.590604 
L 290.906786 132.463102 
L 291.557198 121.823028 
L 292.207611 121.18436 
L 292.858023 130.641197 
L 293.508436 149.869629 
L 294.158848 178.14792 
L 294.809261 214.379973 
L 296.110086 303.960692 
L 297.410911 396.090129 
L 298.061324 429.680309 
L 298.711736 445.52482 
L 299.362149 439.830632 
L 300.012562 415.078357 
L 301.313387 335.58188 
L 302.614212 252.484849 
L 303.264624 217.056694 
L 303.915037 187.87133 
L 304.56545 166.075392 
L 305.215862 152.547177 
L 305.866275 147.869849 
L 306.516687 152.282438 
L 307.1671 165.655805 
L 307.817512 187.495846 
L 308.467925 216.962095 
L 309.76875 293.539493 
L 311.719988 416.1281 
L 312.3704 442.300444 
L 313.020813 452.85592 
L 313.671226 446.370817 
L 314.321638 425.697348 
L 315.622463 362.251427 
L 316.923288 295.639232 
L 318.224114 242.22272 
L 318.874526 223.137852 
L 319.524939 210.096231 
L 320.175351 203.585759 
L 320.825764 203.869563 
L 321.476176 210.951983 
L 322.126589 224.564567 
L 322.777002 244.166923 
L 324.077827 297.881156 
L 326.679477 422.008798 
L 327.32989 443.937886 
L 327.980302 457.747623 
L 328.630715 462.72706 
L 329.281127 459.729872 
L 329.93154 450.756155 
L 331.232365 424.001245 
L 332.53319 396.653015 
L 333.183603 385.117357 
L 333.834015 375.589657 
L 334.484428 368.266325 
L 335.13484 363.219095 
L 335.785253 360.414923 
L 336.435666 359.719339 
L 337.086078 360.897081 
L 337.736491 363.620589 
L 338.386903 367.490773 
L 340.988554 385.672191 
L 341.638966 388.901623 
L 342.289379 390.999071 
L 342.939791 391.787484 
L 343.590204 391.171994 
L 344.240616 389.139955 
L 344.891029 385.762117 
L 345.541442 381.189776 
L 346.842267 369.453331 
L 348.793504 350.759351 
L 349.443917 345.96483 
L 350.09433 342.626282 
L 350.744742 341.124395 
L 351.395155 341.757299 
L 352.045567 344.724187 
L 352.69598 350.123951 
L 353.346392 357.965062 
L 353.996805 368.174854 
L 355.29763 394.941258 
L 357.89928 456.198016 
L 358.549693 464.350924 
L 359.200106 464.825073 
L 359.850518 455.807041 
L 360.500931 437.129603 
L 361.151343 410.391561 
L 363.102581 308.714126 
L 364.403406 246.491511 
L 365.053819 221.846422 
L 365.704231 202.854484 
L 366.354644 190.203218 
L 367.005056 184.328231 
L 367.655469 185.401609 
L 368.305882 193.331757 
L 368.956294 207.786764 
L 369.606707 228.239116 
L 370.257119 254.014476 
L 371.557944 318.152107 
L 373.509182 423.445038 
L 374.159595 448.407333 
L 374.810007 459.478341 
L 375.46042 452.579316 
L 376.110832 428.159955 
L 376.761245 390.907438 
L 379.362895 217.736773 
L 380.013308 184.39458 
L 380.66372 158.443808 
L 381.314133 140.808063 
L 381.964546 132.091606 
L 382.614958 132.558031 
L 383.265371 142.111768 
L 383.915783 160.314268 
L 384.566196 186.43213 
L 385.216608 219.502853 
L 386.517434 301.545954 
L 387.818259 391.215295 
L 388.468671 428.782326 
L 389.119084 451.948754 
L 389.769496 453.628601 
L 390.419909 432.341471 
L 391.070322 393.497308 
L 393.671972 201.329546 
L 394.322384 164.220513 
L 394.972797 135.4219 
L 395.62321 115.968247 
L 396.273622 106.546185 
L 396.924035 107.458519 
L 397.574447 118.590597 
L 398.22486 139.417094 
L 398.875272 169.060379 
L 400.176098 249.940982 
L 402.127335 394.954121 
L 402.777748 432.36541 
L 403.42816 450.919294 
L 404.078573 444.251868 
L 404.728986 414.00024 
L 406.029811 315.912377 
L 407.330636 214.261746 
L 407.981048 171.520025 
L 408.631461 136.731359 
L 409.281874 111.153633 
L 409.932286 95.688305 
L 410.582699 90.865242 
L 411.233111 96.7916 
L 411.883524 113.127988 
L 412.533936 139.122657 
L 413.184349 173.690265 
L 414.485174 262.836784 
L 416.436412 408.570422 
L 417.086824 438.56026 
L 417.737237 445.404768 
L 418.38765 426.437624 
L 419.038062 387.309875 
L 421.639712 185.971437 
L 422.290125 146.552229 
L 422.940538 115.606351 
L 423.59095 94.182837 
L 424.241363 82.98537 
L 424.891775 82.333756 
L 425.542188 92.121899 
L 426.1926 111.818999 
L 426.843013 140.526762 
L 427.493426 177.061904 
L 428.794251 267.647476 
L 430.095076 366.130723 
L 430.745488 407.304111 
L 431.395901 432.98691 
L 432.046314 435.942176 
L 432.696726 414.96959 
L 433.347139 375.924012 
L 435.948789 180.934595 
L 436.599202 142.448764 
L 437.249614 111.82084 
L 437.900027 89.995089 
L 438.550439 77.594006 
L 439.200852 74.895696 
L 439.851264 81.803179 
L 440.501677 97.849223 
L 441.15209 122.238154 
L 441.802502 153.931516 
L 443.103327 234.171839 
L 445.054565 368.268447 
L 445.704978 402.40065 
L 446.35539 421.357544 
L 447.005803 420.259481 
L 447.656215 399.193106 
L 448.306628 363.153853 
L 451.558691 146.347168 
L 452.209103 115.840446 
L 452.859516 92.625337 
L 453.509928 77.227372 
L 454.160341 69.89553 
L 454.810754 70.591396 
L 455.461166 78.992512 
L 456.111579 94.521768 
L 456.761991 116.404579 
L 458.062816 175.509061 
L 460.014054 285.985279 
L 461.314879 355.102465 
L 461.965292 379.815036 
L 462.615704 392.98684 
L 463.266117 392.077584 
L 463.91653 377.129851 
L 464.566942 350.770181 
L 465.867767 279.248204 
L 467.819005 169.601531 
L 469.11983 113.562205 
L 469.770243 92.871161 
L 470.420655 77.477778 
L 471.071068 67.457656 
L 471.72148 62.713493 
L 472.371893 62.988893 
L 473.022306 67.89064 
L 473.672718 76.919898 
L 474.323131 89.507644 
L 475.623956 122.942347 
L 477.575194 184.884987 
L 479.526431 247.370987 
L 480.827257 280.877154 
L 481.477669 292.893413 
L 482.128082 300.747722 
L 482.778494 303.913688 
L 483.428907 302.203564 
L 484.079319 295.834949 
L 484.729732 285.376134 
L 485.380145 271.62734 
L 486.68097 237.770973 
L 489.933033 148.192519 
L 491.233858 118.961057 
L 492.534683 95.491776 
L 493.835508 77.837615 
L 494.485921 71.043836 
L 495.136333 65.473781 
L 495.786746 61.006638 
L 496.437158 57.51153 
L 497.087571 54.853436 
L 497.737983 52.899011 
L 498.388396 51.5215 
L 499.038809 50.605387 
L 499.689221 50.050249 
L 500.339634 49.773941 
L 500.990046 49.715105 
L 501.640459 49.834928 
L 502.290871 50.118257 
L 502.941284 50.574057 
L 503.591697 51.235194 
L 504.242109 52.157571 
L 504.892522 53.418557 
L 505.542934 55.11464 
L 506.193347 57.358354 
L 506.843759 60.27439 
L 507.494172 63.994902 
L 508.144585 68.654101 
L 508.794997 74.382095 
L 509.44541 81.298138 
L 510.746235 99.073401 
L 512.04706 122.432198 
L 513.347885 151.14671 
L 515.299123 201.23022 
L 517.250361 250.040281 
L 517.900773 263.011194 
L 518.551186 273.003429 
L 519.201598 279.279054 
L 519.852011 281.296306 
L 520.502423 278.815309 
L 521.152836 271.947295 
L 521.803249 261.127775 
L 522.453661 247.027291 
L 523.754486 212.214221 
L 526.356137 138.647529 
L 527.006549 123.746565 
L 527.656962 111.602648 
L 528.307374 102.835836 
L 528.957787 98.004707 
L 529.608199 97.576371 
L 530.258612 101.897993 
L 530.909025 111.168246 
L 531.559437 125.414604 
L 532.20985 144.472405 
L 533.510675 195.276111 
L 536.762738 341.603385 
L 537.41315 356.82204 
L 538.063563 361.316508 
L 538.713975 354.351159 
L 539.364388 337.082982 
L 540.014801 312.06857 
L 543.266863 164.381734 
L 543.917276 143.705666 
L 544.567689 128.946333 
L 545.218101 120.904772 
L 545.868514 120.131463 
L 546.518926 126.890103 
L 547.169339 141.135445 
L 547.819751 162.501013 
L 548.470164 190.287943 
L 549.770989 260.34895 
L 551.071814 335.805674 
L 551.722227 367.03951 
L 552.372639 387.77209 
L 553.023052 394.019572 
L 553.673465 384.535639 
L 554.323877 361.538044 
L 555.624702 293.057121 
L 556.925527 221.472014 
L 557.57594 191.294965 
L 558.226353 167.168383 
L 558.876765 150.316683 
L 559.527178 141.617822 
L 560.17759 141.587339 
L 560.828003 150.353013 
L 561.478415 167.646089 
L 562.128828 192.802474 
L 563.429653 261.935361 
L 565.380891 377.61789 
L 566.031303 403.084505 
L 566.681716 413.535363 
L 567.332129 406.793286 
L 567.982541 384.910424 
L 569.283366 316.064829 
L 570.584191 244.18888 
L 571.234604 214.414522 
L 571.885017 191.069927 
L 572.535429 175.315641 
L 573.185842 167.930691 
L 573.836254 169.306647 
L 574.486667 179.431575 
L 575.137079 197.890172 
L 575.787492 223.86552 
L 577.088317 292.910539 
L 578.389142 369.345579 
L 579.039555 401.133727 
L 579.689967 422.151403 
L 580.34038 428.512932 
L 580.990793 419.477121 
L 581.641205 397.887354 
L 582.94203 335.792037 
L 584.242855 273.707188 
L 584.893268 248.508612 
L 585.543681 229.034192 
L 586.194093 216.177724 
L 586.844506 210.515444 
L 587.494918 212.300554 
L 588.145331 221.450377 
L 588.795743 237.543195 
L 589.446156 259.820908 
L 590.746981 318.138251 
L 592.698219 410.39351 
L 593.348631 431.27316 
L 593.999044 442.621824 
L 594.649457 443.543446 
L 595.299869 435.141799 
L 595.950282 419.933693 
L 599.202345 326.541668 
L 599.852757 314.484372 
L 600.50317 306.288578 
L 601.153582 302.220263 
L 601.803995 302.358508 
L 602.454407 306.587667 
L 603.10482 314.598101 
L 603.755233 325.903306 
L 605.056058 355.74018 
L 607.657708 421.60161 
L 608.308121 434.796962 
L 608.958533 445.634411 
L 609.608946 453.998005 
L 610.259358 460.023724 
L 610.909771 464.040368 
L 611.560183 466.478477 
L 612.210596 467.771248 
L 612.861009 468.271023 
L 613.511421 468.19092 
L 614.161834 467.574404 
L 614.812246 466.291116 
L 615.462659 464.058071 
L 616.113071 460.488317 
L 616.763484 455.165334 
L 617.413897 447.737609 
L 618.064309 438.013186 
L 619.365134 412.0911 
L 622.617197 336.464925 
L 623.26761 325.780729 
L 623.918022 318.263375 
L 624.568435 314.390577 
L 625.218847 314.457617 
L 625.86926 318.558924 
L 626.519673 326.580593 
L 627.170085 338.196648 
L 628.47091 369.747084 
L 629.771735 405.190531 
L 630.422148 420.088258 
L 631.072561 429.98926 
L 631.722973 432.568004 
L 632.373386 426.359556 
L 633.023798 411.400137 
L 633.674211 389.259078 
L 636.926274 258.738315 
L 637.576686 242.839921 
L 638.227099 233.203304 
L 638.877511 230.321888 
L 639.527924 234.341443 
L 640.178337 245.059116 
L 640.828749 261.924249 
L 641.479162 284.028692 
L 644.080812 389.872593 
L 644.731225 406.220342 
L 645.381637 411.411096 
L 646.03205 403.726884 
L 646.682462 384.200071 
L 647.983287 323.308735 
L 649.284113 258.075789 
L 649.934525 230.718295 
L 650.584938 209.186897 
L 651.23535 194.586367 
L 651.885763 187.599476 
L 652.536175 188.50713 
L 653.186588 197.192547 
L 653.837001 213.143314 
L 654.487413 235.458382 
L 655.788238 293.450254 
L 657.089063 354.00126 
L 657.739476 376.779614 
L 658.389889 389.214192 
L 659.040301 388.540644 
L 659.690714 374.616771 
L 660.341126 349.977324 
L 663.593189 194.611844 
L 664.243602 175.00911 
L 664.894014 162.341035 
L 665.544427 157.057315 
L 666.194839 159.243384 
L 666.845252 168.631468 
L 667.495665 184.615278 
L 668.146077 206.268982 
L 669.446902 261.260687 
L 670.747727 318.972203 
L 671.39814 342.211927 
L 672.048553 357.537485 
L 672.698965 362.429683 
L 673.349378 355.950173 
L 673.99979 339.14982 
L 674.650203 314.595546 
L 677.902266 172.940988 
L 678.552678 153.866707 
L 679.203091 140.132868 
L 679.853503 132.052483 
L 680.503916 129.681764 
L 681.154329 132.840326 
L 681.804741 141.135132 
L 682.455154 153.986079 
L 683.105566 170.655956 
L 684.406391 211.833372 
L 686.357629 276.125484 
L 687.008042 292.749662 
L 687.658454 304.536091 
L 688.308867 310.334505 
L 688.959279 309.550032 
L 689.609692 302.304259 
L 690.260105 289.396013 
L 690.910517 272.086977 
L 692.211342 229.986257 
L 694.16258 166.097234 
L 695.463405 132.01226 
L 696.113818 118.698075 
L 696.76423 108.052671 
L 697.414643 100.072648 
L 698.065055 94.66226 
L 698.715468 91.649275 
L 699.365881 90.801415 
L 700.016293 91.8425 
L 700.666706 94.468161 
L 701.317118 98.360215 
L 702.617943 108.677324 
L 705.219594 131.530159 
L 706.520419 140.545908 
L 707.170831 143.950326 
L 707.821244 146.529612 
L 708.471657 148.265933 
L 709.122069 149.17999 
L 709.772482 149.32855 
L 710.422894 148.800133 
L 711.073307 147.709307 
L 711.723719 146.189736 
L 714.975782 137.256341 
L 715.626195 136.158584 
L 716.276607 135.556366 
L 716.92702 135.534871 
L 717.577433 136.164416 
L 718.227845 137.500725 
L 718.878258 139.585572 
L 719.52867 142.447079 
L 720.179083 146.09993 
L 720.829495 150.545214 
L 722.130321 161.746746 
L 723.431146 175.763498 
L 725.382383 200.712162 
L 727.984034 235.088365 
L 729.284859 248.425591 
L 729.935271 253.016028 
L 730.585684 255.790226 
L 731.236097 256.491027 
L 731.886509 254.956213 
L 732.536922 251.13923 
L 733.187334 245.107139 
L 733.837747 237.019804 
L 735.138572 215.593014 
L 736.439397 188.866166 
L 739.041047 127.708867 
L 740.992285 84.244066 
L 742.29311 62.159672 
L 742.943523 54.6226 
L 743.593935 50.098265 
L 744.244348 49.067579 
L 744.894761 51.955427 
L 745.545173 59.102705 
L 746.195586 70.741935 
L 746.845998 86.97909 
L 747.496411 107.784959 
L 748.797236 162.24337 
L 750.098061 230.612915 
L 752.049299 340.250164 
L 752.699711 370.162218 
L 753.350124 391.416436 
L 754.000537 400.934568 
L 754.650949 397.284498 
L 755.301362 381.423589 
L 755.951774 356.136322 
L 757.252599 290.082062 
L 759.85425 152.572073 
L 761.155075 98.259797 
L 761.805487 77.528531 
L 762.4559 62.145394 
L 763.106313 52.850453 
L 763.756725 50.262282 
L 764.407138 54.817332 
L 765.05755 66.728014 
L 765.707963 85.966519 
L 766.358375 112.269458 
L 767.008788 145.150497 
L 768.309613 227.481374 
L 770.260851 368.099758 
L 770.911263 406.046983 
L 771.561676 429.896684 
L 772.212089 434.39677 
L 772.862501 418.808562 
L 773.512914 387.455039 
L 774.813739 301.74082 
L 776.764977 171.743389 
L 778.065802 104.030168 
L 778.716214 79.09577 
L 779.366627 61.40994 
L 780.017039 51.802412 
L 780.667452 50.880514 
L 781.317865 58.958608 
L 781.968277 76.027237 
L 782.61869 101.769321 
L 783.269102 135.591472 
L 784.569927 223.784858 
L 787.171578 421.848875 
L 787.82199 446.286758 
L 788.472403 446.54606 
L 789.122815 423.035583 
L 789.773228 382.817497 
L 793.025291 145.607344 
L 793.675703 110.09701 
L 794.326116 81.78714 
L 794.976529 61.752818 
L 795.626941 50.898782 
L 796.277354 49.842207 
L 796.927766 58.846821 
L 797.578179 77.790741 
L 798.228591 106.204475 
L 798.879004 143.326266 
L 800.179829 239.23284 
L 802.131067 402.834205 
L 802.781479 441.439624 
L 803.431892 456.971087 
L 803.431892 456.971087 
" clip-path="url(#p6c4b7eba30)" style="fill: none; stroke-dasharray: 11.1,4.8; stroke-dashoffset: 0; stroke: #ff7f0e; stroke-width: 3"/>
   </g>
   <g id="patch_3">
    <path d="M 121.181625 489.2325 
L 121.181625 28.08 
" style="fill: none; stroke: #000000; stroke-width: 2; stroke-linejoin: miter; stroke-linecap: square"/>
   </g>
   <g id="patch_4">
    <path d="M 835.92 489.2325 
L 835.92 28.08 
" style="fill: none; stroke: #000000; stroke-width: 2; stroke-linejoin: miter; stroke-linecap: square"/>
   </g>
   <g id="patch_5">
    <path d="M 121.181625 489.2325 
L 835.92 489.2325 
" style="fill: none; stroke: #000000; stroke-width: 2; stroke-linejoin: miter; stroke-linecap: square"/>
   </g>
   <g id="patch_6">
    <path d="M 121.181625 28.08 
L 835.92 28.08 
" style="fill: none; stroke: #000000; stroke-width: 2; stroke-linejoin: miter; stroke-linecap: square"/>
   </g>
  </g>
 </g>
 <defs>
  <clipPath id="p6c4b7eba30">
   <rect x="121.181625" y="28.08" width="714.738375" height="461.1525"/>
  </clipPath>
 </defs>
</svg>
