<?xml version="1.0" encoding="utf-8" standalone="no"?>
<!DOCTYPE svg PUBLIC "-//W3C//DTD SVG 1.1//EN"
  "http://www.w3.org/Graphics/SVG/1.1/DTD/svg11.dtd">
<svg xmlns:xlink="http://www.w3.org/1999/xlink" width="720pt" height="504pt" viewBox="0 0 720 504" xmlns="http://www.w3.org/2000/svg" version="1.1">
 <metadata>
  <rdf:RDF xmlns:dc="http://purl.org/dc/elements/1.1/" xmlns:cc="http://creativecommons.org/ns#" xmlns:rdf="http://www.w3.org/1999/02/22-rdf-syntax-ns#">
   <cc:Work>
    <dc:type rdf:resource="http://purl.org/dc/dcmitype/StillImage"/>
    <dc:date>2025-06-01T17:23:58.968155</dc:date>
    <dc:format>image/svg+xml</dc:format>
    <dc:creator>
     <cc:Agent>
      <dc:title>Matplotlib v3.7.2, https://matplotlib.org/</dc:title>
     </cc:Agent>
    </dc:creator>
   </cc:Work>
  </rdf:RDF>
 </metadata>
 <defs>
  <style type="text/css">*{stroke-linejoin: round; stroke-linecap: butt}</style>
 </defs>
 <g id="figure_1">
  <g id="patch_1">
   <path d="M 0 504 
L 720 504 
L 720 0 
L 0 0 
z
" style="fill: #ffffff"/>
  </g>
  <g id="axes_1">
   <g id="patch_2">
    <path d="M 115.455 419.46 
L 691.92 419.46 
L 691.92 58.32 
L 115.455 58.32 
z
" style="fill: #ffffff"/>
   </g>
   <g id="matplotlib.axis_1">
    <g id="xtick_1">
     <g id="line2d_1">
      <path d="M 141.657955 419.46 
L 141.657955 58.32 
" clip-path="url(#pd04ed74b61)" style="fill: none; stroke-dasharray: 3.7,1.6; stroke-dashoffset: 0; stroke: #b0b0b0"/>
     </g>
     <g id="line2d_2">
      <defs>
       <path id="m5da11a3eb7" d="M 0 0 
L 0 -10 
" style="stroke: #000000; stroke-width: 2"/>
      </defs>
      <g>
       <use xlink:href="#m5da11a3eb7" x="141.657955" y="419.46" style="stroke: #000000; stroke-width: 2"/>
      </g>
     </g>
     <g id="text_1">
      <!-- 0 -->
      <g transform="translate(133.386705 442.715937) scale(0.26 -0.26)">
       <defs>
        <path id="DejaVuSerif-30" d="M 2034 219 
Q 2513 219 2750 744 
Q 2988 1269 2988 2328 
Q 2988 3391 2750 3916 
Q 2513 4441 2034 4441 
Q 1556 4441 1318 3916 
Q 1081 3391 1081 2328 
Q 1081 1269 1318 744 
Q 1556 219 2034 219 
z
M 2034 -91 
Q 1275 -91 848 546 
Q 422 1184 422 2328 
Q 422 3475 848 4112 
Q 1275 4750 2034 4750 
Q 2797 4750 3222 4112 
Q 3647 3475 3647 2328 
Q 3647 1184 3222 546 
Q 2797 -91 2034 -91 
z
" transform="scale(0.015625)"/>
       </defs>
       <use xlink:href="#DejaVuSerif-30"/>
      </g>
     </g>
    </g>
    <g id="xtick_2">
     <g id="line2d_3">
      <path d="M 246.469773 419.46 
L 246.469773 58.32 
" clip-path="url(#pd04ed74b61)" style="fill: none; stroke-dasharray: 3.7,1.6; stroke-dashoffset: 0; stroke: #b0b0b0"/>
     </g>
     <g id="line2d_4">
      <g>
       <use xlink:href="#m5da11a3eb7" x="246.469773" y="419.46" style="stroke: #000000; stroke-width: 2"/>
      </g>
     </g>
     <g id="text_2">
      <!-- 100 -->
      <g transform="translate(221.656023 442.715937) scale(0.26 -0.26)">
       <defs>
        <path id="DejaVuSerif-31" d="M 909 0 
L 909 331 
L 1722 331 
L 1722 4213 
L 781 3603 
L 781 4013 
L 1919 4750 
L 2350 4750 
L 2350 331 
L 3163 331 
L 3163 0 
L 909 0 
z
" transform="scale(0.015625)"/>
       </defs>
       <use xlink:href="#DejaVuSerif-31"/>
       <use xlink:href="#DejaVuSerif-30" x="63.623047"/>
       <use xlink:href="#DejaVuSerif-30" x="127.246094"/>
      </g>
     </g>
    </g>
    <g id="xtick_3">
     <g id="line2d_5">
      <path d="M 351.281591 419.46 
L 351.281591 58.32 
" clip-path="url(#pd04ed74b61)" style="fill: none; stroke-dasharray: 3.7,1.6; stroke-dashoffset: 0; stroke: #b0b0b0"/>
     </g>
     <g id="line2d_6">
      <g>
       <use xlink:href="#m5da11a3eb7" x="351.281591" y="419.46" style="stroke: #000000; stroke-width: 2"/>
      </g>
     </g>
     <g id="text_3">
      <!-- 200 -->
      <g transform="translate(326.467841 442.715937) scale(0.26 -0.26)">
       <defs>
        <path id="DejaVuSerif-32" d="M 819 3553 
L 469 3553 
L 469 4384 
Q 803 4563 1142 4656 
Q 1481 4750 1806 4750 
Q 2534 4750 2956 4397 
Q 3378 4044 3378 3438 
Q 3378 2753 2422 1800 
Q 2347 1728 2309 1691 
L 1131 513 
L 3078 513 
L 3078 1088 
L 3444 1088 
L 3444 0 
L 434 0 
L 434 341 
L 1850 1753 
Q 2319 2222 2519 2614 
Q 2719 3006 2719 3438 
Q 2719 3909 2473 4175 
Q 2228 4441 1797 4441 
Q 1350 4441 1106 4219 
Q 863 3997 819 3553 
z
" transform="scale(0.015625)"/>
       </defs>
       <use xlink:href="#DejaVuSerif-32"/>
       <use xlink:href="#DejaVuSerif-30" x="63.623047"/>
       <use xlink:href="#DejaVuSerif-30" x="127.246094"/>
      </g>
     </g>
    </g>
    <g id="xtick_4">
     <g id="line2d_7">
      <path d="M 456.093409 419.46 
L 456.093409 58.32 
" clip-path="url(#pd04ed74b61)" style="fill: none; stroke-dasharray: 3.7,1.6; stroke-dashoffset: 0; stroke: #b0b0b0"/>
     </g>
     <g id="line2d_8">
      <g>
       <use xlink:href="#m5da11a3eb7" x="456.093409" y="419.46" style="stroke: #000000; stroke-width: 2"/>
      </g>
     </g>
     <g id="text_4">
      <!-- 300 -->
      <g transform="translate(431.279659 442.715937) scale(0.26 -0.26)">
       <defs>
        <path id="DejaVuSerif-33" d="M 622 4469 
Q 988 4606 1323 4678 
Q 1659 4750 1953 4750 
Q 2638 4750 3022 4454 
Q 3406 4159 3406 3634 
Q 3406 3213 3140 2930 
Q 2875 2647 2388 2547 
Q 2963 2466 3280 2130 
Q 3597 1794 3597 1259 
Q 3597 606 3158 257 
Q 2719 -91 1894 -91 
Q 1528 -91 1179 -12 
Q 831 66 488 225 
L 488 1131 
L 838 1131 
Q 869 681 1141 450 
Q 1413 219 1906 219 
Q 2384 219 2661 495 
Q 2938 772 2938 1253 
Q 2938 1803 2653 2086 
Q 2369 2369 1819 2369 
L 1522 2369 
L 1522 2688 
L 1678 2688 
Q 2225 2688 2498 2914 
Q 2772 3141 2772 3597 
Q 2772 4006 2547 4223 
Q 2322 4441 1900 4441 
Q 1478 4441 1245 4241 
Q 1013 4041 972 3647 
L 622 3647 
L 622 4469 
z
" transform="scale(0.015625)"/>
       </defs>
       <use xlink:href="#DejaVuSerif-33"/>
       <use xlink:href="#DejaVuSerif-30" x="63.623047"/>
       <use xlink:href="#DejaVuSerif-30" x="127.246094"/>
      </g>
     </g>
    </g>
    <g id="xtick_5">
     <g id="line2d_9">
      <path d="M 560.905227 419.46 
L 560.905227 58.32 
" clip-path="url(#pd04ed74b61)" style="fill: none; stroke-dasharray: 3.7,1.6; stroke-dashoffset: 0; stroke: #b0b0b0"/>
     </g>
     <g id="line2d_10">
      <g>
       <use xlink:href="#m5da11a3eb7" x="560.905227" y="419.46" style="stroke: #000000; stroke-width: 2"/>
      </g>
     </g>
     <g id="text_5">
      <!-- 400 -->
      <g transform="translate(536.091477 442.715937) scale(0.26 -0.26)">
       <defs>
        <path id="DejaVuSerif-34" d="M 2234 1581 
L 2234 4063 
L 641 1581 
L 2234 1581 
z
M 3609 0 
L 1484 0 
L 1484 331 
L 2234 331 
L 2234 1247 
L 197 1247 
L 197 1588 
L 2241 4750 
L 2859 4750 
L 2859 1581 
L 3750 1581 
L 3750 1247 
L 2859 1247 
L 2859 331 
L 3609 331 
L 3609 0 
z
" transform="scale(0.015625)"/>
       </defs>
       <use xlink:href="#DejaVuSerif-34"/>
       <use xlink:href="#DejaVuSerif-30" x="63.623047"/>
       <use xlink:href="#DejaVuSerif-30" x="127.246094"/>
      </g>
     </g>
    </g>
    <g id="xtick_6">
     <g id="line2d_11">
      <path d="M 665.717045 419.46 
L 665.717045 58.32 
" clip-path="url(#pd04ed74b61)" style="fill: none; stroke-dasharray: 3.7,1.6; stroke-dashoffset: 0; stroke: #b0b0b0"/>
     </g>
     <g id="line2d_12">
      <g>
       <use xlink:href="#m5da11a3eb7" x="665.717045" y="419.46" style="stroke: #000000; stroke-width: 2"/>
      </g>
     </g>
     <g id="text_6">
      <!-- 500 -->
      <g transform="translate(640.903295 442.715937) scale(0.26 -0.26)">
       <defs>
        <path id="DejaVuSerif-35" d="M 3219 4666 
L 3219 4153 
L 1081 4153 
L 1081 2816 
Q 1244 2928 1461 2984 
Q 1678 3041 1947 3041 
Q 2703 3041 3140 2622 
Q 3578 2203 3578 1478 
Q 3578 738 3136 323 
Q 2694 -91 1894 -91 
Q 1572 -91 1234 -12 
Q 897 66 544 225 
L 544 1131 
L 897 1131 
Q 925 688 1179 453 
Q 1434 219 1894 219 
Q 2388 219 2653 544 
Q 2919 869 2919 1478 
Q 2919 2084 2655 2407 
Q 2391 2731 1894 2731 
Q 1613 2731 1398 2631 
Q 1184 2531 1019 2322 
L 750 2322 
L 750 4666 
L 3219 4666 
z
" transform="scale(0.015625)"/>
       </defs>
       <use xlink:href="#DejaVuSerif-35"/>
       <use xlink:href="#DejaVuSerif-30" x="63.623047"/>
       <use xlink:href="#DejaVuSerif-30" x="127.246094"/>
      </g>
     </g>
    </g>
    <g id="text_7">
     <!-- Time (a.u.) -->
     <g transform="translate(332.173281 471.879062) scale(0.26 -0.26)">
      <defs>
       <path id="DejaVuSerif-54" d="M 1222 0 
L 1222 331 
L 1819 331 
L 1819 4294 
L 447 4294 
L 447 3566 
L 63 3566 
L 63 4666 
L 4206 4666 
L 4206 3566 
L 3822 3566 
L 3822 4294 
L 2450 4294 
L 2450 331 
L 3047 331 
L 3047 0 
L 1222 0 
z
" transform="scale(0.015625)"/>
       <path id="DejaVuSerif-69" d="M 622 4353 
Q 622 4497 726 4603 
Q 831 4709 978 4709 
Q 1122 4709 1226 4603 
Q 1331 4497 1331 4353 
Q 1331 4206 1228 4103 
Q 1125 4000 978 4000 
Q 831 4000 726 4103 
Q 622 4206 622 4353 
z
M 1356 331 
L 1900 331 
L 1900 0 
L 231 0 
L 231 331 
L 781 331 
L 781 2988 
L 231 2988 
L 231 3322 
L 1356 3322 
L 1356 331 
z
" transform="scale(0.015625)"/>
       <path id="DejaVuSerif-6d" d="M 3316 2675 
Q 3481 3041 3739 3227 
Q 3997 3413 4341 3413 
Q 4863 3413 5119 3089 
Q 5375 2766 5375 2113 
L 5375 331 
L 5894 331 
L 5894 0 
L 4300 0 
L 4300 331 
L 4800 331 
L 4800 2047 
Q 4800 2556 4650 2772 
Q 4500 2988 4153 2988 
Q 3769 2988 3567 2697 
Q 3366 2406 3366 1850 
L 3366 331 
L 3866 331 
L 3866 0 
L 2291 0 
L 2291 331 
L 2791 331 
L 2791 2069 
Q 2791 2566 2641 2777 
Q 2491 2988 2144 2988 
Q 1759 2988 1557 2697 
Q 1356 2406 1356 1850 
L 1356 331 
L 1856 331 
L 1856 0 
L 263 0 
L 263 331 
L 781 331 
L 781 2994 
L 231 2994 
L 231 3322 
L 1356 3322 
L 1356 2731 
Q 1516 3063 1762 3238 
Q 2009 3413 2322 3413 
Q 2709 3413 2968 3220 
Q 3228 3028 3316 2675 
z
" transform="scale(0.015625)"/>
       <path id="DejaVuSerif-65" d="M 3469 1600 
L 991 1600 
L 991 1575 
Q 991 903 1244 561 
Q 1497 219 1991 219 
Q 2369 219 2611 417 
Q 2853 616 2950 1006 
L 3413 1006 
Q 3275 459 2904 184 
Q 2534 -91 1931 -91 
Q 1203 -91 761 389 
Q 319 869 319 1663 
Q 319 2450 753 2931 
Q 1188 3413 1894 3413 
Q 2647 3413 3050 2948 
Q 3453 2484 3469 1600 
z
M 2791 1931 
Q 2772 2513 2545 2808 
Q 2319 3103 1894 3103 
Q 1497 3103 1269 2806 
Q 1041 2509 991 1931 
L 2791 1931 
z
" transform="scale(0.015625)"/>
       <path id="DejaVuSerif-20" transform="scale(0.015625)"/>
       <path id="DejaVuSerif-28" d="M 2041 -997 
Q 1281 -656 893 83 
Q 506 822 506 1931 
Q 506 3044 893 3783 
Q 1281 4522 2041 4863 
L 2041 4556 
Q 1559 4225 1350 3623 
Q 1141 3022 1141 1931 
Q 1141 844 1350 242 
Q 1559 -359 2041 -691 
L 2041 -997 
z
" transform="scale(0.015625)"/>
       <path id="DejaVuSerif-61" d="M 2547 1044 
L 2547 1747 
L 1806 1747 
Q 1378 1747 1168 1562 
Q 959 1378 959 997 
Q 959 650 1171 447 
Q 1384 244 1747 244 
Q 2106 244 2326 466 
Q 2547 688 2547 1044 
z
M 3122 2075 
L 3122 331 
L 3634 331 
L 3634 0 
L 2547 0 
L 2547 359 
Q 2356 128 2106 18 
Q 1856 -91 1522 -91 
Q 969 -91 644 203 
Q 319 497 319 997 
Q 319 1513 691 1797 
Q 1063 2081 1741 2081 
L 2547 2081 
L 2547 2309 
Q 2547 2688 2317 2895 
Q 2088 3103 1672 3103 
Q 1328 3103 1125 2947 
Q 922 2791 872 2484 
L 575 2484 
L 575 3156 
Q 875 3284 1158 3348 
Q 1441 3413 1709 3413 
Q 2400 3413 2761 3070 
Q 3122 2728 3122 2075 
z
" transform="scale(0.015625)"/>
       <path id="DejaVuSerif-2e" d="M 603 325 
Q 603 500 722 622 
Q 841 744 1019 744 
Q 1191 744 1312 622 
Q 1434 500 1434 325 
Q 1434 153 1312 31 
Q 1191 -91 1019 -91 
Q 841 -91 722 29 
Q 603 150 603 325 
z
" transform="scale(0.015625)"/>
       <path id="DejaVuSerif-75" d="M 2266 3322 
L 3341 3322 
L 3341 331 
L 3884 331 
L 3884 0 
L 2766 0 
L 2766 588 
Q 2606 256 2353 82 
Q 2100 -91 1766 -91 
Q 1213 -91 952 223 
Q 691 538 691 1209 
L 691 2988 
L 172 2988 
L 172 3322 
L 1269 3322 
L 1269 1388 
Q 1269 781 1417 556 
Q 1566 331 1947 331 
Q 2347 331 2556 625 
Q 2766 919 2766 1478 
L 2766 2988 
L 2266 2988 
L 2266 3322 
z
" transform="scale(0.015625)"/>
       <path id="DejaVuSerif-29" d="M 453 -997 
L 453 -691 
Q 934 -359 1145 242 
Q 1356 844 1356 1931 
Q 1356 3022 1145 3623 
Q 934 4225 453 4556 
L 453 4863 
Q 1216 4522 1603 3783 
Q 1991 3044 1991 1931 
Q 1991 822 1603 83 
Q 1216 -656 453 -997 
z
" transform="scale(0.015625)"/>
      </defs>
      <use xlink:href="#DejaVuSerif-54"/>
      <use xlink:href="#DejaVuSerif-69" x="66.699219"/>
      <use xlink:href="#DejaVuSerif-6d" x="98.681641"/>
      <use xlink:href="#DejaVuSerif-65" x="193.505859"/>
      <use xlink:href="#DejaVuSerif-20" x="252.685547"/>
      <use xlink:href="#DejaVuSerif-28" x="284.472656"/>
      <use xlink:href="#DejaVuSerif-61" x="323.486328"/>
      <use xlink:href="#DejaVuSerif-2e" x="383.105469"/>
      <use xlink:href="#DejaVuSerif-75" x="414.892578"/>
      <use xlink:href="#DejaVuSerif-2e" x="479.296875"/>
      <use xlink:href="#DejaVuSerif-29" x="511.083984"/>
     </g>
    </g>
   </g>
   <g id="matplotlib.axis_2">
    <g id="ytick_1">
     <g id="line2d_13">
      <path d="M 115.455 408.821269 
L 691.92 408.821269 
" clip-path="url(#pd04ed74b61)" style="fill: none; stroke-dasharray: 3.7,1.6; stroke-dashoffset: 0; stroke: #b0b0b0"/>
     </g>
     <g id="line2d_14">
      <defs>
       <path id="mef890ab165" d="M 0 0 
L 10 0 
" style="stroke: #000000; stroke-width: 2"/>
      </defs>
      <g>
       <use xlink:href="#mef890ab165" x="115.455" y="408.821269" style="stroke: #000000; stroke-width: 2"/>
      </g>
     </g>
     <g id="text_8">
      <!-- −20 -->
      <g transform="translate(57.082813 418.699238) scale(0.26 -0.26)">
       <defs>
        <path id="DejaVuSerif-2212" d="M 678 2259 
L 4684 2259 
L 4684 1753 
L 678 1753 
L 678 2259 
z
" transform="scale(0.015625)"/>
       </defs>
       <use xlink:href="#DejaVuSerif-2212"/>
       <use xlink:href="#DejaVuSerif-32" x="83.789062"/>
       <use xlink:href="#DejaVuSerif-30" x="147.412109"/>
      </g>
     </g>
    </g>
    <g id="ytick_2">
     <g id="line2d_15">
      <path d="M 115.455 289.417103 
L 691.92 289.417103 
" clip-path="url(#pd04ed74b61)" style="fill: none; stroke-dasharray: 3.7,1.6; stroke-dashoffset: 0; stroke: #b0b0b0"/>
     </g>
     <g id="line2d_16">
      <g>
       <use xlink:href="#mef890ab165" x="115.455" y="289.417103" style="stroke: #000000; stroke-width: 2"/>
      </g>
     </g>
     <g id="text_9">
      <!-- −10 -->
      <g transform="translate(57.082813 299.295071) scale(0.26 -0.26)">
       <use xlink:href="#DejaVuSerif-2212"/>
       <use xlink:href="#DejaVuSerif-31" x="83.789062"/>
       <use xlink:href="#DejaVuSerif-30" x="147.412109"/>
      </g>
     </g>
    </g>
    <g id="ytick_3">
     <g id="line2d_17">
      <path d="M 115.455 170.012936 
L 691.92 170.012936 
" clip-path="url(#pd04ed74b61)" style="fill: none; stroke-dasharray: 3.7,1.6; stroke-dashoffset: 0; stroke: #b0b0b0"/>
     </g>
     <g id="line2d_18">
      <g>
       <use xlink:href="#mef890ab165" x="115.455" y="170.012936" style="stroke: #000000; stroke-width: 2"/>
      </g>
     </g>
     <g id="text_10">
      <!-- 0 -->
      <g transform="translate(95.4125 179.890904) scale(0.26 -0.26)">
       <use xlink:href="#DejaVuSerif-30"/>
      </g>
     </g>
    </g>
    <g id="text_11">
     <!-- Energy Components (a.u.) -->
     <g transform="translate(47.305937 411.706719) rotate(-90) scale(0.26 -0.26)">
      <defs>
       <path id="DejaVuSerif-45" d="M 353 0 
L 353 331 
L 947 331 
L 947 4331 
L 353 4331 
L 353 4666 
L 4109 4666 
L 4109 3628 
L 3725 3628 
L 3725 4281 
L 1581 4281 
L 1581 2719 
L 3109 2719 
L 3109 3303 
L 3494 3303 
L 3494 1753 
L 3109 1753 
L 3109 2338 
L 1581 2338 
L 1581 384 
L 3775 384 
L 3775 1038 
L 4159 1038 
L 4159 0 
L 353 0 
z
" transform="scale(0.015625)"/>
       <path id="DejaVuSerif-6e" d="M 263 0 
L 263 331 
L 781 331 
L 781 2988 
L 231 2988 
L 231 3322 
L 1356 3322 
L 1356 2731 
Q 1516 3069 1770 3241 
Q 2025 3413 2363 3413 
Q 2913 3413 3172 3097 
Q 3431 2781 3431 2113 
L 3431 331 
L 3944 331 
L 3944 0 
L 2356 0 
L 2356 331 
L 2853 331 
L 2853 1931 
Q 2853 2541 2703 2767 
Q 2553 2994 2175 2994 
Q 1775 2994 1565 2701 
Q 1356 2409 1356 1850 
L 1356 331 
L 1856 331 
L 1856 0 
L 263 0 
z
" transform="scale(0.015625)"/>
       <path id="DejaVuSerif-72" d="M 3059 3328 
L 3059 2497 
L 2728 2497 
Q 2713 2744 2591 2866 
Q 2469 2988 2234 2988 
Q 1809 2988 1582 2694 
Q 1356 2400 1356 1850 
L 1356 331 
L 2022 331 
L 2022 0 
L 263 0 
L 263 331 
L 781 331 
L 781 2994 
L 231 2994 
L 231 3322 
L 1356 3322 
L 1356 2731 
Q 1525 3078 1790 3245 
Q 2056 3413 2438 3413 
Q 2578 3413 2733 3391 
Q 2888 3369 3059 3328 
z
" transform="scale(0.015625)"/>
       <path id="DejaVuSerif-67" d="M 3359 2988 
L 3359 72 
Q 3359 -644 2965 -1033 
Q 2572 -1422 1844 -1422 
Q 1516 -1422 1216 -1362 
Q 916 -1303 641 -1184 
L 641 -488 
L 941 -488 
Q 997 -813 1206 -963 
Q 1416 -1113 1806 -1113 
Q 2313 -1113 2548 -827 
Q 2784 -541 2784 72 
L 2784 519 
Q 2616 206 2355 57 
Q 2094 -91 1709 -91 
Q 1097 -91 708 395 
Q 319 881 319 1663 
Q 319 2444 706 2928 
Q 1094 3413 1709 3413 
Q 2094 3413 2355 3264 
Q 2616 3116 2784 2803 
L 2784 3322 
L 3909 3322 
L 3909 2988 
L 3359 2988 
z
M 2784 1825 
Q 2784 2422 2554 2737 
Q 2325 3053 1888 3053 
Q 1444 3053 1217 2703 
Q 991 2353 991 1663 
Q 991 975 1217 622 
Q 1444 269 1888 269 
Q 2325 269 2554 583 
Q 2784 897 2784 1497 
L 2784 1825 
z
" transform="scale(0.015625)"/>
       <path id="DejaVuSerif-79" d="M 1381 -609 
L 1600 -56 
L 359 2988 
L -19 2988 
L -19 3322 
L 1509 3322 
L 1509 2988 
L 978 2988 
L 1913 703 
L 2847 2988 
L 2350 2988 
L 2350 3322 
L 3597 3322 
L 3597 2988 
L 3225 2988 
L 1703 -750 
Q 1547 -1138 1356 -1280 
Q 1166 -1422 819 -1422 
Q 672 -1422 517 -1397 
Q 363 -1372 206 -1325 
L 206 -691 
L 500 -691 
Q 519 -903 608 -995 
Q 697 -1088 884 -1088 
Q 1056 -1088 1161 -992 
Q 1266 -897 1381 -609 
z
" transform="scale(0.015625)"/>
       <path id="DejaVuSerif-43" d="M 4513 1234 
Q 4306 581 3820 245 
Q 3334 -91 2591 -91 
Q 2134 -91 1743 65 
Q 1353 222 1050 525 
Q 700 875 529 1320 
Q 359 1766 359 2328 
Q 359 3416 987 4083 
Q 1616 4750 2644 4750 
Q 3025 4750 3456 4650 
Q 3888 4550 4384 4347 
L 4384 3272 
L 4031 3272 
Q 3916 3859 3567 4137 
Q 3219 4416 2591 4416 
Q 1844 4416 1459 3886 
Q 1075 3356 1075 2328 
Q 1075 1303 1459 773 
Q 1844 244 2591 244 
Q 3113 244 3450 492 
Q 3788 741 3938 1234 
L 4513 1234 
z
" transform="scale(0.015625)"/>
       <path id="DejaVuSerif-6f" d="M 1925 219 
Q 2388 219 2623 584 
Q 2859 950 2859 1663 
Q 2859 2375 2623 2739 
Q 2388 3103 1925 3103 
Q 1463 3103 1227 2739 
Q 991 2375 991 1663 
Q 991 950 1228 584 
Q 1466 219 1925 219 
z
M 1925 -91 
Q 1200 -91 759 389 
Q 319 869 319 1663 
Q 319 2456 758 2934 
Q 1197 3413 1925 3413 
Q 2653 3413 3092 2934 
Q 3531 2456 3531 1663 
Q 3531 869 3092 389 
Q 2653 -91 1925 -91 
z
" transform="scale(0.015625)"/>
       <path id="DejaVuSerif-70" d="M 1313 1825 
L 1313 1497 
Q 1313 897 1542 583 
Q 1772 269 2209 269 
Q 2650 269 2876 622 
Q 3103 975 3103 1663 
Q 3103 2353 2876 2703 
Q 2650 3053 2209 3053 
Q 1772 3053 1542 2737 
Q 1313 2422 1313 1825 
z
M 738 2988 
L 184 2988 
L 184 3322 
L 1313 3322 
L 1313 2803 
Q 1481 3116 1742 3264 
Q 2003 3413 2388 3413 
Q 3000 3413 3387 2928 
Q 3775 2444 3775 1663 
Q 3775 881 3387 395 
Q 3000 -91 2388 -91 
Q 2003 -91 1742 57 
Q 1481 206 1313 519 
L 1313 -997 
L 1856 -997 
L 1856 -1331 
L 184 -1331 
L 184 -997 
L 738 -997 
L 738 2988 
z
" transform="scale(0.015625)"/>
       <path id="DejaVuSerif-74" d="M 691 2988 
L 184 2988 
L 184 3322 
L 691 3322 
L 691 4353 
L 1269 4353 
L 1269 3322 
L 2350 3322 
L 2350 2988 
L 1269 2988 
L 1269 878 
Q 1269 456 1350 337 
Q 1431 219 1650 219 
Q 1875 219 1978 351 
Q 2081 484 2088 781 
L 2522 781 
Q 2497 328 2275 118 
Q 2053 -91 1600 -91 
Q 1103 -91 897 129 
Q 691 350 691 878 
L 691 2988 
z
" transform="scale(0.015625)"/>
       <path id="DejaVuSerif-73" d="M 359 184 
L 359 959 
L 691 959 
Q 703 588 923 403 
Q 1144 219 1575 219 
Q 1963 219 2166 364 
Q 2369 509 2369 788 
Q 2369 1006 2220 1140 
Q 2072 1275 1594 1428 
L 1178 1569 
Q 750 1706 558 1912 
Q 366 2119 366 2438 
Q 366 2894 700 3153 
Q 1034 3413 1625 3413 
Q 1888 3413 2178 3344 
Q 2469 3275 2778 3144 
L 2778 2419 
L 2447 2419 
Q 2434 2741 2221 2922 
Q 2009 3103 1644 3103 
Q 1281 3103 1095 2975 
Q 909 2847 909 2591 
Q 909 2381 1050 2254 
Q 1191 2128 1613 1997 
L 2069 1856 
Q 2541 1709 2748 1489 
Q 2956 1269 2956 922 
Q 2956 450 2595 179 
Q 2234 -91 1600 -91 
Q 1278 -91 972 -22 
Q 666 47 359 184 
z
" transform="scale(0.015625)"/>
      </defs>
      <use xlink:href="#DejaVuSerif-45"/>
      <use xlink:href="#DejaVuSerif-6e" x="72.998047"/>
      <use xlink:href="#DejaVuSerif-65" x="137.402344"/>
      <use xlink:href="#DejaVuSerif-72" x="196.582031"/>
      <use xlink:href="#DejaVuSerif-67" x="244.384766"/>
      <use xlink:href="#DejaVuSerif-79" x="308.398438"/>
      <use xlink:href="#DejaVuSerif-20" x="364.892578"/>
      <use xlink:href="#DejaVuSerif-43" x="396.679688"/>
      <use xlink:href="#DejaVuSerif-6f" x="473.193359"/>
      <use xlink:href="#DejaVuSerif-6d" x="533.398438"/>
      <use xlink:href="#DejaVuSerif-70" x="628.222656"/>
      <use xlink:href="#DejaVuSerif-6f" x="692.236328"/>
      <use xlink:href="#DejaVuSerif-6e" x="752.441406"/>
      <use xlink:href="#DejaVuSerif-65" x="816.845703"/>
      <use xlink:href="#DejaVuSerif-6e" x="876.025391"/>
      <use xlink:href="#DejaVuSerif-74" x="940.429688"/>
      <use xlink:href="#DejaVuSerif-73" x="980.615234"/>
      <use xlink:href="#DejaVuSerif-20" x="1031.933594"/>
      <use xlink:href="#DejaVuSerif-28" x="1063.720703"/>
      <use xlink:href="#DejaVuSerif-61" x="1102.734375"/>
      <use xlink:href="#DejaVuSerif-2e" x="1162.353516"/>
      <use xlink:href="#DejaVuSerif-75" x="1194.140625"/>
      <use xlink:href="#DejaVuSerif-2e" x="1258.544922"/>
      <use xlink:href="#DejaVuSerif-29" x="1290.332031"/>
     </g>
    </g>
   </g>
   <g id="line2d_19">
    <path d="M 141.657955 82.606362 
L 146.951481 84.755139 
L 152.245007 85.861022 
L 157.538533 83.584855 
L 162.832059 81.073109 
L 168.125585 85.801722 
L 173.419112 83.725094 
L 178.712638 82.786731 
L 184.006164 77.870217 
L 189.29969 75.514891 
L 194.593216 83.386956 
L 199.886742 81.502466 
L 205.180269 85.220365 
L 210.473795 74.735455 
L 215.767321 84.800992 
L 221.060847 88.312062 
L 226.354373 88.8288 
L 231.647899 77.230481 
L 236.941426 87.024878 
L 242.234952 87.76092 
L 247.528478 79.89153 
L 252.822004 84.736716 
L 258.11553 81.627092 
L 263.409056 83.133617 
L 268.702583 84.60559 
L 273.996109 78.043837 
L 279.289635 76.555438 
L 284.583161 81.178111 
L 289.876687 87.22124 
L 295.170213 75.231862 
L 300.46374 86.139969 
L 305.757266 89.060996 
L 311.050792 83.487612 
L 316.344318 89.206397 
L 321.637844 76.874917 
L 326.931371 87.691028 
L 332.224897 87.504229 
L 337.518423 88.117221 
L 342.811949 80.653357 
L 348.105475 80.732782 
L 353.399001 80.335432 
L 358.692528 80.89468 
L 363.986054 75.525097 
L 369.27958 81.468897 
L 374.573106 83.792184 
L 379.866632 82.227563 
L 385.160158 82.580904 
L 390.453685 87.96626 
L 395.747211 89.884304 
L 401.040737 78.270354 
L 406.334263 76.11147 
L 411.627789 80.602928 
L 416.921315 75.944608 
L 422.214842 84.825074 
L 427.508368 84.549228 
L 432.801894 86.2696 
L 438.09542 76.937821 
L 443.388946 78.714971 
L 448.682472 84.338283 
L 453.975999 81.978407 
L 459.269525 81.786803 
L 464.563051 84.914992 
L 469.856577 86.156886 
L 475.150103 85.089321 
L 480.443629 81.648791 
L 485.737156 84.522922 
L 491.030682 78.449475 
L 496.324208 83.975658 
L 501.617734 81.891058 
L 506.91126 84.079998 
L 512.204787 83.200152 
L 517.498313 77.847607 
L 522.791839 76.875081 
L 528.085365 87.397573 
L 533.378891 84.165345 
L 538.672417 84.52682 
L 543.965944 84.132758 
L 549.25947 90.238964 
L 554.552996 83.874244 
L 559.846522 80.910374 
L 565.140048 83.556842 
L 570.433574 81.33599 
L 575.727101 80.163661 
L 581.020627 75.028879 
L 586.314153 77.315457 
L 591.607679 89.585564 
L 596.901205 86.567717 
L 602.194731 84.673035 
L 607.488258 84.094506 
L 612.781784 78.877461 
L 618.07531 77.471743 
L 623.368836 91.302033 
L 628.662362 75.677167 
L 633.955888 85.299464 
L 639.249415 85.341354 
L 644.542941 83.121564 
L 649.836467 81.082671 
L 655.129993 81.537032 
L 660.423519 80.766488 
L 665.717045 77.693011 
" clip-path="url(#pd04ed74b61)" style="fill: none; stroke: #1f77b4; stroke-width: 3; stroke-linecap: square"/>
   </g>
   <g id="line2d_20">
    <path d="M 141.657955 394.561192 
L 146.951481 388.999029 
L 152.245007 387.606019 
L 157.538533 391.769206 
L 162.832059 394.284938 
L 168.125585 387.84464 
L 173.419112 390.266557 
L 178.712638 392.999912 
L 184.006164 397.236356 
L 189.29969 402.230076 
L 194.593216 392.748713 
L 199.886742 396.735121 
L 205.180269 389.926448 
L 210.473795 402.001477 
L 215.767321 392.115511 
L 221.060847 387.492427 
L 226.354373 385.00718 
L 231.647899 400.441522 
L 236.941426 384.788116 
L 242.234952 385.941656 
L 247.528478 394.825028 
L 252.822004 388.720796 
L 258.11553 390.984019 
L 263.409056 391.448101 
L 268.702583 392.041043 
L 273.996109 399.587476 
L 279.289635 398.872529 
L 284.583161 397.090448 
L 289.876687 384.573316 
L 295.170213 400.832612 
L 300.46374 390.228713 
L 305.757266 384.653935 
L 311.050792 394.181133 
L 316.344318 385.335451 
L 321.637844 397.0299 
L 326.931371 386.573632 
L 332.224897 388.199002 
L 337.518423 386.425972 
L 342.811949 395.084236 
L 348.105475 393.946452 
L 353.399001 396.737599 
L 358.692528 394.015876 
L 363.986054 402.777606 
L 369.27958 393.584792 
L 374.573106 392.706022 
L 379.866632 392.642329 
L 385.160158 391.648579 
L 390.453685 387.127074 
L 395.747211 382.940651 
L 401.040737 397.990186 
L 406.334263 402.110265 
L 411.627789 395.949026 
L 416.921315 402.058448 
L 422.214842 392.77766 
L 427.508368 389.452065 
L 432.801894 389.263776 
L 438.09542 396.915824 
L 443.388946 397.311392 
L 448.682472 390.128936 
L 453.975999 392.760534 
L 459.269525 392.998631 
L 464.563051 393.047696 
L 469.856577 388.398024 
L 475.150103 388.583981 
L 480.443629 392.365045 
L 485.737156 390.252236 
L 491.030682 396.203952 
L 496.324208 388.694535 
L 501.617734 395.024313 
L 506.91126 388.914368 
L 512.204787 392.317268 
L 517.498313 396.161806 
L 522.791839 397.909386 
L 528.085365 387.836417 
L 533.378891 392.263945 
L 538.672417 390.933711 
L 543.965944 388.051079 
L 549.25947 385.622904 
L 554.552996 391.126056 
L 559.846522 397.295321 
L 565.140048 395.099561 
L 570.433574 392.043735 
L 575.727101 395.574885 
L 581.020627 403.044545 
L 586.314153 398.315249 
L 591.607679 386.143745 
L 596.901205 390.66339 
L 602.194731 389.397272 
L 607.488258 391.210374 
L 612.781784 396.86929 
L 618.07531 397.181855 
L 623.368836 384.145634 
L 628.662362 402.303935 
L 633.955888 389.193612 
L 639.249415 388.61348 
L 644.542941 392.061418 
L 649.836467 391.781921 
L 655.129993 394.165242 
L 660.423519 393.441009 
L 665.717045 398.305673 
" clip-path="url(#pd04ed74b61)" style="fill: none; stroke: #ff7f0e; stroke-width: 3; stroke-linecap: square"/>
   </g>
   <g id="line2d_21">
    <path d="M 141.657955 136.57385 
L 146.951481 139.574801 
L 152.245007 140.179135 
L 157.538533 138.651096 
L 162.832059 138.448197 
L 168.125585 139.76315 
L 173.419112 140.088259 
L 178.712638 137.62589 
L 184.006164 138.206827 
L 189.29969 136.350279 
L 194.593216 138.990814 
L 199.886742 137.520321 
L 205.180269 139.541858 
L 210.473795 136.879231 
L 215.767321 138.709421 
L 221.060847 139.855823 
L 226.354373 139.168342 
L 231.647899 137.315734 
L 236.941426 140.437438 
L 242.234952 139.91762 
L 247.528478 138.212073 
L 252.822004 138.654054 
L 258.11553 139.346659 
L 263.409056 139.249479 
L 268.702583 137.708068 
L 273.996109 137.436992 
L 279.289635 138.4948 
L 284.583161 137.851361 
L 289.876687 140.460052 
L 295.170213 138.114897 
L 300.46374 137.984507 
L 305.757266 139.34226 
L 311.050792 138.132195 
L 316.344318 138.849576 
L 321.637844 137.764078 
L 326.931371 138.405312 
L 332.224897 139.226361 
L 337.518423 139.278631 
L 342.811949 138.63907 
L 348.105475 139.331601 
L 353.399001 137.999625 
L 358.692528 137.802167 
L 363.986054 136.676814 
L 369.27958 138.513093 
L 374.573106 137.604684 
L 379.866632 138.926159 
L 385.160158 139.123905 
L 390.453685 138.991499 
L 395.747211 140.178098 
L 401.040737 138.379298 
L 406.334263 137.560907 
L 411.627789 138.570606 
L 416.921315 137.222384 
L 422.214842 137.505278 
L 427.508368 138.284919 
L 432.801894 138.899543 
L 438.09542 139.296147 
L 443.388946 139.055107 
L 448.682472 139.837717 
L 453.975999 139.703018 
L 459.269525 138.597126 
L 464.563051 137.585746 
L 469.856577 139.097802 
L 475.150103 140.315995 
L 480.443629 140.273535 
L 485.737156 139.289314 
L 491.030682 139.247157 
L 496.324208 140.188878 
L 501.617734 137.109357 
L 506.91126 139.465461 
L 512.204787 138.712865 
L 517.498313 138.992855 
L 522.791839 138.929757 
L 528.085365 139.460152 
L 533.378891 137.754938 
L 538.672417 137.891607 
L 543.965944 139.6122 
L 549.25947 139.055593 
L 554.552996 137.912953 
L 559.846522 137.936274 
L 565.140048 137.959461 
L 570.433574 138.361355 
L 575.727101 137.926549 
L 581.020627 137.234657 
L 586.314153 137.379631 
L 591.607679 139.136759 
L 596.901205 139.012916 
L 602.194731 139.595973 
L 607.488258 138.477276 
L 612.781784 137.678229 
L 618.07531 138.229593 
L 623.368836 139.73521 
L 628.662362 136.353244 
L 633.955888 138.940201 
L 639.249415 139.37544 
L 644.542941 138.236482 
L 649.836467 138.698008 
L 655.129993 138.4412 
L 660.423519 138.051063 
L 665.717045 138.232478 
" clip-path="url(#pd04ed74b61)" style="fill: none; stroke: #2ca02c; stroke-width: 3; stroke-linecap: square"/>
   </g>
   <g id="line2d_22">
    <path d="M 141.657955 161.687713 
L 146.951481 162.139394 
L 152.245007 161.693638 
L 157.538533 161.452412 
L 162.832059 161.663326 
L 168.125585 161.981675 
L 173.419112 161.305853 
L 178.712638 162.162802 
L 184.006164 162.120294 
L 189.29969 161.392259 
L 194.593216 160.30346 
L 199.886742 159.66586 
L 205.180269 160.696446 
L 210.473795 161.866749 
L 215.767321 159.860812 
L 221.060847 159.776552 
L 226.354373 162.332806 
L 231.647899 160.580638 
L 236.941426 163.072219 
L 242.234952 161.808294 
L 247.528478 162.41367 
L 252.822004 163.334621 
L 258.11553 163.536565 
L 263.409056 161.590324 
L 268.702583 161.136582 
L 273.996109 160.603142 
L 279.289635 161.426863 
L 284.583161 159.334563 
L 289.876687 163.257579 
L 295.170213 161.179277 
L 300.46374 161.252203 
L 305.757266 162.431222 
L 311.050792 159.551257 
L 316.344318 161.966179 
L 321.637844 163.733537 
L 326.931371 162.874972 
L 332.224897 160.622194 
L 337.518423 161.761914 
L 342.811949 160.92945 
L 348.105475 161.299146 
L 353.399001 160.684896 
L 358.692528 162.848759 
L 363.986054 160.384211 
L 369.27958 162.07463 
L 374.573106 161.435598 
L 379.866632 161.80854 
L 385.160158 162.111476 
L 390.453685 161.419623 
L 395.747211 162.45906 
L 401.040737 160.781186 
L 406.334263 159.856935 
L 411.627789 160.377972 
L 416.921315 160.324612 
L 422.214842 160.807373 
L 427.508368 163.216963 
L 432.801894 161.255121 
L 438.09542 162.196587 
L 443.388946 160.254935 
L 448.682472 161.118267 
L 453.975999 160.945898 
L 459.269525 162.091505 
L 464.563051 159.832376 
L 469.856577 161.816352 
L 475.150103 161.392455 
L 480.443629 161.101907 
L 485.737156 161.550329 
L 491.030682 161.57797 
L 496.324208 162.576385 
L 501.617734 161.471024 
L 506.91126 162.92425 
L 512.204787 161.174839 
L 517.498313 162.358394 
L 522.791839 161.71356 
L 528.085365 160.801798 
L 533.378891 161.444774 
L 538.672417 162.181644 
L 543.965944 163.57701 
L 549.25947 160.631124 
L 554.552996 162.645519 
L 559.846522 159.376216 
L 565.140048 158.870176 
L 570.433574 163.74086 
L 575.727101 161.867597 
L 581.020627 160.290595 
L 586.314153 162.501205 
L 591.607679 160.557217 
L 596.901205 159.253751 
L 602.194731 161.731342 
L 607.488258 161.798002 
L 612.781784 161.923431 
L 618.07531 162.500132 
L 623.368836 160.499765 
L 628.662362 161.084345 
L 633.955888 162.08127 
L 639.249415 162.236048 
L 644.542941 161.929961 
L 649.836467 163.972092 
L 655.129993 161.450361 
L 660.423519 163.122268 
L 665.717045 161.150319 
" clip-path="url(#pd04ed74b61)" style="fill: none; stroke: #d62728; stroke-width: 3; stroke-linecap: square"/>
   </g>
   <g id="line2d_23">
    <path d="M 141.657955 169.877048 
L 146.951481 169.838001 
L 152.245007 169.966651 
L 157.538533 169.848694 
L 162.832059 169.836478 
L 168.125585 169.915317 
L 173.419112 169.920569 
L 178.712638 169.730934 
L 184.006164 169.872203 
L 189.29969 169.818217 
L 194.593216 169.876562 
L 199.886742 169.882633 
L 205.180269 169.921746 
L 210.473795 169.823008 
L 215.767321 169.820161 
L 221.060847 169.870412 
L 226.354373 169.97027 
L 231.647899 169.738018 
L 236.941426 169.984732 
L 242.234952 169.878974 
L 247.528478 169.964491 
L 252.822004 169.861079 
L 258.11553 169.812674 
L 263.409056 169.885689 
L 268.702583 169.816116 
L 273.996109 169.635375 
L 279.289635 169.957075 
L 284.583161 169.852658 
L 289.876687 169.795561 
L 295.170213 169.948013 
L 300.46374 169.702267 
L 305.757266 169.819528 
L 311.050792 169.955245 
L 316.344318 169.950392 
L 321.637844 169.904492 
L 326.931371 169.763001 
L 332.224897 169.756157 
L 337.518423 169.724261 
L 342.811949 170.001206 
L 348.105475 169.997389 
L 353.399001 169.549794 
L 358.692528 169.745938 
L 363.986054 169.943204 
L 369.27958 169.666059 
L 374.573106 169.769196 
L 379.866632 169.702994 
L 385.160158 169.842805 
L 390.453685 169.803782 
L 395.747211 169.846405 
L 401.040737 169.886465 
L 406.334263 169.667809 
L 411.627789 169.807345 
L 416.921315 169.757481 
L 422.214842 169.393004 
L 427.508368 169.805287 
L 432.801894 169.62061 
L 438.09542 169.96144 
L 443.388946 169.971585 
L 448.682472 169.88532 
L 453.975999 169.920458 
L 459.269525 169.834245 
L 464.563051 169.927817 
L 469.856577 169.839697 
L 475.150103 169.926917 
L 480.443629 169.919083 
L 485.737156 169.693819 
L 491.030682 169.829527 
L 496.324208 169.873123 
L 501.617734 169.812645 
L 506.91126 169.924589 
L 512.204787 169.903465 
L 517.498313 169.947435 
L 522.791839 169.88023 
L 528.085365 169.81303 
L 533.378891 169.679674 
L 538.672417 169.774937 
L 543.965944 169.935645 
L 549.25947 169.760683 
L 554.552996 169.74992 
L 559.846522 169.790255 
L 565.140048 169.822705 
L 570.433574 169.82662 
L 575.727101 169.775762 
L 581.020627 169.709303 
L 586.314153 169.796674 
L 591.607679 169.886091 
L 596.901205 169.811371 
L 602.194731 169.911356 
L 607.488258 169.72877 
L 612.781784 169.960053 
L 618.07531 169.925029 
L 623.368836 169.627022 
L 628.662362 169.889597 
L 633.955888 169.794628 
L 639.249415 169.742898 
L 644.542941 169.959632 
L 649.836467 169.774211 
L 655.129993 169.715113 
L 660.423519 169.928059 
L 665.717045 169.927173 
" clip-path="url(#pd04ed74b61)" style="fill: none; stroke: #9467bd; stroke-width: 3; stroke-linecap: square"/>
   </g>
   <g id="line2d_24">
    <path d="M 141.657955 265.254423 
L 146.951481 265.254621 
L 152.245007 265.254724 
L 157.538533 265.254521 
L 162.832059 265.254306 
L 168.125585 265.254762 
L 173.419112 265.254589 
L 178.712638 265.254526 
L 184.006164 265.254154 
L 189.29969 265.253979 
L 194.593216 265.254763 
L 199.886742 265.254657 
L 205.180269 265.25512 
L 210.473795 265.254178 
L 215.767321 265.255154 
L 221.060847 265.255534 
L 226.354373 265.255654 
L 231.647899 265.25465 
L 236.941426 265.255641 
L 242.234952 265.255721 
L 247.528478 265.25505 
L 252.822004 265.255524 
L 258.11553 265.255267 
L 263.409056 265.255468 
L 268.702583 265.255656 
L 273.996109 265.255079 
L 279.289635 265.254963 
L 284.583161 265.255399 
L 289.876687 265.256005 
L 295.170213 265.254918 
L 300.46374 265.255917 
L 305.757266 265.256199 
L 311.050792 265.2557 
L 316.344318 265.256251 
L 321.637844 265.255181 
L 326.931371 265.256203 
L 332.224897 265.256201 
L 337.518423 265.256257 
L 342.811949 265.255576 
L 348.105475 265.255628 
L 353.399001 265.255604 
L 358.692528 265.255678 
L 363.986054 265.25519 
L 369.27958 265.25573 
L 374.573106 265.255942 
L 379.866632 265.255844 
L 385.160158 265.255926 
L 390.453685 265.256496 
L 395.747211 265.256777 
L 401.040737 265.255746 
L 406.334263 265.255644 
L 411.627789 265.256135 
L 416.921315 265.255789 
L 422.214842 265.256647 
L 427.508368 265.256718 
L 432.801894 265.256909 
L 438.09542 265.256076 
L 443.388946 265.256247 
L 448.682472 265.25678 
L 453.975999 265.256573 
L 459.269525 265.256567 
L 464.563051 265.256884 
L 469.856577 265.25702 
L 475.150103 265.256926 
L 480.443629 265.256618 
L 485.737156 265.256879 
L 491.030682 265.256339 
L 496.324208 265.256837 
L 501.617734 265.256654 
L 506.91126 265.256924 
L 512.204787 265.256847 
L 517.498313 265.256354 
L 522.791839 265.256271 
L 528.085365 265.257228 
L 533.378891 265.256933 
L 538.672417 265.256978 
L 543.965944 265.256949 
L 549.25947 265.257525 
L 554.552996 265.256949 
L 559.846522 265.256696 
L 565.140048 265.257003 
L 570.433574 265.256819 
L 575.727101 265.256711 
L 581.020627 265.256238 
L 586.314153 265.256473 
L 591.607679 265.257633 
L 596.901205 265.257403 
L 602.194731 265.257235 
L 607.488258 265.257184 
L 612.781784 265.256721 
L 618.07531 265.25661 
L 623.368836 265.257922 
L 628.662362 265.256545 
L 633.955888 265.257433 
L 639.249415 265.257477 
L 644.542941 265.257315 
L 649.836467 265.257161 
L 655.129993 265.257206 
L 660.423519 265.257143 
L 665.717045 265.256912 
" clip-path="url(#pd04ed74b61)" style="fill: none; stroke-dasharray: 11.1,4.8; stroke-dashoffset: 0; stroke: #000000; stroke-width: 3"/>
   </g>
   <g id="patch_3">
    <path d="M 115.455 419.46 
L 115.455 58.32 
" style="fill: none; stroke: #000000; stroke-width: 2; stroke-linejoin: miter; stroke-linecap: square"/>
   </g>
   <g id="patch_4">
    <path d="M 691.92 419.46 
L 691.92 58.32 
" style="fill: none; stroke: #000000; stroke-width: 2; stroke-linejoin: miter; stroke-linecap: square"/>
   </g>
   <g id="patch_5">
    <path d="M 115.455 419.46 
L 691.92 419.46 
" style="fill: none; stroke: #000000; stroke-width: 2; stroke-linejoin: miter; stroke-linecap: square"/>
   </g>
   <g id="patch_6">
    <path d="M 115.455 58.32 
L 691.92 58.32 
" style="fill: none; stroke: #000000; stroke-width: 2; stroke-linejoin: miter; stroke-linecap: square"/>
   </g>
   <g id="text_12">
    <!-- Energy Components vs. Time -->
    <g transform="translate(171.58875 51.38775) scale(0.312 -0.312)">
     <defs>
      <path id="DejaVuSerif-76" d="M 1581 0 
L 359 2988 
L -19 2988 
L -19 3322 
L 1509 3322 
L 1509 2988 
L 978 2988 
L 1913 703 
L 2847 2988 
L 2350 2988 
L 2350 3322 
L 3597 3322 
L 3597 2988 
L 3225 2988 
L 2003 0 
L 1581 0 
z
" transform="scale(0.015625)"/>
     </defs>
     <use xlink:href="#DejaVuSerif-45"/>
     <use xlink:href="#DejaVuSerif-6e" x="72.998047"/>
     <use xlink:href="#DejaVuSerif-65" x="137.402344"/>
     <use xlink:href="#DejaVuSerif-72" x="196.582031"/>
     <use xlink:href="#DejaVuSerif-67" x="244.384766"/>
     <use xlink:href="#DejaVuSerif-79" x="308.398438"/>
     <use xlink:href="#DejaVuSerif-20" x="364.892578"/>
     <use xlink:href="#DejaVuSerif-43" x="396.679688"/>
     <use xlink:href="#DejaVuSerif-6f" x="473.193359"/>
     <use xlink:href="#DejaVuSerif-6d" x="533.398438"/>
     <use xlink:href="#DejaVuSerif-70" x="628.222656"/>
     <use xlink:href="#DejaVuSerif-6f" x="692.236328"/>
     <use xlink:href="#DejaVuSerif-6e" x="752.441406"/>
     <use xlink:href="#DejaVuSerif-65" x="816.845703"/>
     <use xlink:href="#DejaVuSerif-6e" x="876.025391"/>
     <use xlink:href="#DejaVuSerif-74" x="940.429688"/>
     <use xlink:href="#DejaVuSerif-73" x="980.615234"/>
     <use xlink:href="#DejaVuSerif-20" x="1031.933594"/>
     <use xlink:href="#DejaVuSerif-76" x="1063.720703"/>
     <use xlink:href="#DejaVuSerif-73" x="1120.214844"/>
     <use xlink:href="#DejaVuSerif-2e" x="1171.533203"/>
     <use xlink:href="#DejaVuSerif-20" x="1203.320312"/>
     <use xlink:href="#DejaVuSerif-54" x="1235.107422"/>
     <use xlink:href="#DejaVuSerif-69" x="1301.806641"/>
     <use xlink:href="#DejaVuSerif-6d" x="1333.789062"/>
     <use xlink:href="#DejaVuSerif-65" x="1428.613281"/>
    </g>
   </g>
   <g id="legend_1">
    <g id="patch_7">
     <path d="M 129.455 409.46 
L 345.526875 409.46 
Q 349.526875 409.46 349.526875 405.46 
L 349.526875 231.038125 
Q 349.526875 227.038125 345.526875 227.038125 
L 129.455 227.038125 
Q 125.455 227.038125 125.455 231.038125 
L 125.455 405.46 
Q 125.455 409.46 129.455 409.46 
z
" style="fill: #ffffff; opacity: 0.8; stroke: #cccccc; stroke-linejoin: miter"/>
    </g>
    <g id="line2d_25">
     <path d="M 133.455 243.235 
L 153.455 243.235 
L 173.455 243.235 
" style="fill: none; stroke: #1f77b4; stroke-width: 3; stroke-linecap: square"/>
    </g>
    <g id="text_13">
     <!-- Kinetic E -->
     <g transform="translate(189.455 250.235) scale(0.2 -0.2)">
      <defs>
       <path id="DejaVuSerif-4b" d="M 353 0 
L 353 331 
L 947 331 
L 947 4331 
L 353 4331 
L 353 4666 
L 2175 4666 
L 2175 4331 
L 1581 4331 
L 1581 2566 
L 3591 4331 
L 3084 4331 
L 3084 4666 
L 4634 4666 
L 4634 4331 
L 4109 4331 
L 2106 2572 
L 4347 331 
L 4878 331 
L 4878 0 
L 3794 0 
L 1581 2216 
L 1581 331 
L 2175 331 
L 2175 0 
L 353 0 
z
" transform="scale(0.015625)"/>
       <path id="DejaVuSerif-63" d="M 3291 997 
Q 3169 466 2822 187 
Q 2475 -91 1925 -91 
Q 1200 -91 759 389 
Q 319 869 319 1663 
Q 319 2459 759 2936 
Q 1200 3413 1925 3413 
Q 2241 3413 2553 3339 
Q 2866 3266 3181 3116 
L 3181 2266 
L 2847 2266 
Q 2781 2703 2561 2903 
Q 2341 3103 1931 3103 
Q 1466 3103 1228 2742 
Q 991 2381 991 1663 
Q 991 944 1227 581 
Q 1463 219 1931 219 
Q 2303 219 2525 412 
Q 2747 606 2828 997 
L 3291 997 
z
" transform="scale(0.015625)"/>
      </defs>
      <use xlink:href="#DejaVuSerif-4b"/>
      <use xlink:href="#DejaVuSerif-69" x="74.707031"/>
      <use xlink:href="#DejaVuSerif-6e" x="106.689453"/>
      <use xlink:href="#DejaVuSerif-65" x="171.09375"/>
      <use xlink:href="#DejaVuSerif-74" x="230.273438"/>
      <use xlink:href="#DejaVuSerif-69" x="270.458984"/>
      <use xlink:href="#DejaVuSerif-63" x="302.441406"/>
      <use xlink:href="#DejaVuSerif-20" x="358.447266"/>
      <use xlink:href="#DejaVuSerif-45" x="390.234375"/>
     </g>
    </g>
    <g id="line2d_26">
     <path d="M 133.455 272.59125 
L 153.455 272.59125 
L 173.455 272.59125 
" style="fill: none; stroke: #ff7f0e; stroke-width: 3; stroke-linecap: square"/>
    </g>
    <g id="text_14">
     <!-- PE e-N -->
     <g transform="translate(189.455 279.59125) scale(0.2 -0.2)">
      <defs>
       <path id="DejaVuSerif-50" d="M 1581 2375 
L 2406 2375 
Q 2872 2375 3115 2626 
Q 3359 2878 3359 3353 
Q 3359 3831 3115 4081 
Q 2872 4331 2406 4331 
L 1581 4331 
L 1581 2375 
z
M 353 0 
L 353 331 
L 947 331 
L 947 4331 
L 353 4331 
L 353 4666 
L 2559 4666 
Q 3259 4666 3668 4311 
Q 4078 3956 4078 3353 
Q 4078 2753 3668 2397 
Q 3259 2041 2559 2041 
L 1581 2041 
L 1581 331 
L 2303 331 
L 2303 0 
L 353 0 
z
" transform="scale(0.015625)"/>
       <path id="DejaVuSerif-2d" d="M 281 1959 
L 1881 1959 
L 1881 1472 
L 281 1472 
L 281 1959 
z
" transform="scale(0.015625)"/>
       <path id="DejaVuSerif-4e" d="M 313 0 
L 313 331 
L 941 331 
L 941 4331 
L 313 4331 
L 313 4666 
L 1509 4666 
L 4306 984 
L 4306 4331 
L 3681 4331 
L 3681 4666 
L 5319 4666 
L 5319 4331 
L 4691 4331 
L 4691 -91 
L 4313 -91 
L 1325 3841 
L 1325 331 
L 1953 331 
L 1953 0 
L 313 0 
z
" transform="scale(0.015625)"/>
      </defs>
      <use xlink:href="#DejaVuSerif-50"/>
      <use xlink:href="#DejaVuSerif-45" x="67.285156"/>
      <use xlink:href="#DejaVuSerif-20" x="140.283203"/>
      <use xlink:href="#DejaVuSerif-65" x="172.070312"/>
      <use xlink:href="#DejaVuSerif-2d" x="231.25"/>
      <use xlink:href="#DejaVuSerif-4e" x="265.039062"/>
     </g>
    </g>
    <g id="line2d_27">
     <path d="M 133.455 301.9475 
L 153.455 301.9475 
L 173.455 301.9475 
" style="fill: none; stroke: #2ca02c; stroke-width: 3; stroke-linecap: square"/>
    </g>
    <g id="text_15">
     <!-- PE e-e -->
     <g transform="translate(189.455 308.9475) scale(0.2 -0.2)">
      <use xlink:href="#DejaVuSerif-50"/>
      <use xlink:href="#DejaVuSerif-45" x="67.285156"/>
      <use xlink:href="#DejaVuSerif-20" x="140.283203"/>
      <use xlink:href="#DejaVuSerif-65" x="172.070312"/>
      <use xlink:href="#DejaVuSerif-2d" x="231.25"/>
      <use xlink:href="#DejaVuSerif-65" x="265.039062"/>
     </g>
    </g>
    <g id="line2d_28">
     <path d="M 133.455 331.30375 
L 153.455 331.30375 
L 173.455 331.30375 
" style="fill: none; stroke: #d62728; stroke-width: 3; stroke-linecap: square"/>
    </g>
    <g id="text_16">
     <!-- PE Heisenberg -->
     <g transform="translate(189.455 338.30375) scale(0.2 -0.2)">
      <defs>
       <path id="DejaVuSerif-48" d="M 353 0 
L 353 331 
L 947 331 
L 947 4331 
L 353 4331 
L 353 4666 
L 2175 4666 
L 2175 4331 
L 1581 4331 
L 1581 2719 
L 4000 2719 
L 4000 4331 
L 3406 4331 
L 3406 4666 
L 5228 4666 
L 5228 4331 
L 4634 4331 
L 4634 331 
L 5228 331 
L 5228 0 
L 3406 0 
L 3406 331 
L 4000 331 
L 4000 2338 
L 1581 2338 
L 1581 331 
L 2175 331 
L 2175 0 
L 353 0 
z
" transform="scale(0.015625)"/>
       <path id="DejaVuSerif-62" d="M 738 331 
L 738 4531 
L 184 4531 
L 184 4863 
L 1313 4863 
L 1313 2803 
Q 1481 3116 1742 3264 
Q 2003 3413 2388 3413 
Q 3000 3413 3387 2928 
Q 3775 2444 3775 1663 
Q 3775 881 3387 395 
Q 3000 -91 2388 -91 
Q 2003 -91 1742 57 
Q 1481 206 1313 519 
L 1313 0 
L 184 0 
L 184 331 
L 738 331 
z
M 1313 1497 
Q 1313 897 1542 583 
Q 1772 269 2209 269 
Q 2650 269 2876 622 
Q 3103 975 3103 1663 
Q 3103 2353 2876 2703 
Q 2650 3053 2209 3053 
Q 1772 3053 1542 2737 
Q 1313 2422 1313 1825 
L 1313 1497 
z
" transform="scale(0.015625)"/>
      </defs>
      <use xlink:href="#DejaVuSerif-50"/>
      <use xlink:href="#DejaVuSerif-45" x="67.285156"/>
      <use xlink:href="#DejaVuSerif-20" x="140.283203"/>
      <use xlink:href="#DejaVuSerif-48" x="172.070312"/>
      <use xlink:href="#DejaVuSerif-65" x="259.277344"/>
      <use xlink:href="#DejaVuSerif-69" x="318.457031"/>
      <use xlink:href="#DejaVuSerif-73" x="350.439453"/>
      <use xlink:href="#DejaVuSerif-65" x="401.757812"/>
      <use xlink:href="#DejaVuSerif-6e" x="460.9375"/>
      <use xlink:href="#DejaVuSerif-62" x="525.341797"/>
      <use xlink:href="#DejaVuSerif-65" x="589.355469"/>
      <use xlink:href="#DejaVuSerif-72" x="648.535156"/>
      <use xlink:href="#DejaVuSerif-67" x="696.337891"/>
     </g>
    </g>
    <g id="line2d_29">
     <path d="M 133.455 360.944375 
L 153.455 360.944375 
L 173.455 360.944375 
" style="fill: none; stroke: #9467bd; stroke-width: 3; stroke-linecap: square"/>
    </g>
    <g id="text_17">
     <!-- PE Pauli -->
     <g transform="translate(189.455 367.944375) scale(0.2 -0.2)">
      <defs>
       <path id="DejaVuSerif-6c" d="M 1313 331 
L 1856 331 
L 1856 0 
L 184 0 
L 184 331 
L 738 331 
L 738 4531 
L 184 4531 
L 184 4863 
L 1313 4863 
L 1313 331 
z
" transform="scale(0.015625)"/>
      </defs>
      <use xlink:href="#DejaVuSerif-50"/>
      <use xlink:href="#DejaVuSerif-45" x="67.285156"/>
      <use xlink:href="#DejaVuSerif-20" x="140.283203"/>
      <use xlink:href="#DejaVuSerif-50" x="172.070312"/>
      <use xlink:href="#DejaVuSerif-61" x="234.855469"/>
      <use xlink:href="#DejaVuSerif-75" x="294.474609"/>
      <use xlink:href="#DejaVuSerif-6c" x="358.878906"/>
      <use xlink:href="#DejaVuSerif-69" x="390.861328"/>
     </g>
    </g>
    <g id="line2d_30">
     <path d="M 133.455 390.300625 
L 153.455 390.300625 
L 173.455 390.300625 
" style="fill: none; stroke-dasharray: 11.1,4.8; stroke-dashoffset: 0; stroke: #000000; stroke-width: 3"/>
    </g>
    <g id="text_18">
     <!-- Total E -->
     <g transform="translate(189.455 397.300625) scale(0.2 -0.2)">
      <use xlink:href="#DejaVuSerif-54"/>
      <use xlink:href="#DejaVuSerif-6f" x="58.949219"/>
      <use xlink:href="#DejaVuSerif-74" x="119.154297"/>
      <use xlink:href="#DejaVuSerif-61" x="159.339844"/>
      <use xlink:href="#DejaVuSerif-6c" x="218.958984"/>
      <use xlink:href="#DejaVuSerif-20" x="250.941406"/>
      <use xlink:href="#DejaVuSerif-45" x="282.728516"/>
     </g>
    </g>
   </g>
  </g>
 </g>
 <defs>
  <clipPath id="pd04ed74b61">
   <rect x="115.455" y="58.32" width="576.465" height="361.14"/>
  </clipPath>
 </defs>
</svg>
