<?xml version="1.0" encoding="utf-8" standalone="no"?>
<!DOCTYPE svg PUBLIC "-//W3C//DTD SVG 1.1//EN"
  "http://www.w3.org/Graphics/SVG/1.1/DTD/svg11.dtd">
<svg xmlns:xlink="http://www.w3.org/1999/xlink" width="864pt" height="432pt" viewBox="0 0 864 432" xmlns="http://www.w3.org/2000/svg" version="1.1">
 <metadata>
  <rdf:RDF xmlns:dc="http://purl.org/dc/elements/1.1/" xmlns:cc="http://creativecommons.org/ns#" xmlns:rdf="http://www.w3.org/1999/02/22-rdf-syntax-ns#">
   <cc:Work>
    <dc:type rdf:resource="http://purl.org/dc/dcmitype/StillImage"/>
    <dc:date>2025-06-11T09:48:55.060604</dc:date>
    <dc:format>image/svg+xml</dc:format>
    <dc:creator>
     <cc:Agent>
      <dc:title>Matplotlib v3.7.2, https://matplotlib.org/</dc:title>
     </cc:Agent>
    </dc:creator>
   </cc:Work>
  </rdf:RDF>
 </metadata>
 <defs>
  <style type="text/css">*{stroke-linejoin: round; stroke-linecap: butt}</style>
 </defs>
 <g id="figure_1">
  <g id="patch_1">
   <path d="M 0 432 
L 864 432 
L 864 0 
L 0 0 
z
" style="fill: #ffffff"/>
  </g>
  <g id="axes_1">
   <g id="patch_2">
    <path d="M 177.96 345.2325 
L 440.393584 345.2325 
L 440.393584 50.52 
L 177.96 50.52 
z
" style="fill: #ffffff"/>
   </g>
   <g id="matplotlib.axis_1">
    <g id="xtick_1">
     <g id="line2d_1">
      <path d="M 189.888799 345.2325 
L 189.888799 50.52 
" clip-path="url(#pe27b5ecad1)" style="fill: none; stroke-dasharray: 3.7,1.6; stroke-dashoffset: 0; stroke: #b0b0b0; stroke-opacity: 0.5"/>
     </g>
     <g id="line2d_2">
      <defs>
       <path id="me8fc768259" d="M 0 0 
L 0 -10 
" style="stroke: #000000; stroke-width: 2"/>
      </defs>
      <g>
       <use xlink:href="#me8fc768259" x="189.888799" y="345.2325" style="stroke: #000000; stroke-width: 2"/>
      </g>
     </g>
     <g id="line2d_3">
      <defs>
       <path id="m4ea31c4260" d="M 0 0 
L 0 10 
" style="stroke: #000000; stroke-width: 2"/>
      </defs>
      <g>
       <use xlink:href="#m4ea31c4260" x="189.888799" y="50.52" style="stroke: #000000; stroke-width: 2"/>
      </g>
     </g>
     <g id="text_1">
      <!-- 0 -->
      <g transform="translate(181.617549 368.488437) scale(0.26 -0.26)">
       <defs>
        <path id="DejaVuSerif-30" d="M 2034 219 
Q 2513 219 2750 744 
Q 2988 1269 2988 2328 
Q 2988 3391 2750 3916 
Q 2513 4441 2034 4441 
Q 1556 4441 1318 3916 
Q 1081 3391 1081 2328 
Q 1081 1269 1318 744 
Q 1556 219 2034 219 
z
M 2034 -91 
Q 1275 -91 848 546 
Q 422 1184 422 2328 
Q 422 3475 848 4112 
Q 1275 4750 2034 4750 
Q 2797 4750 3222 4112 
Q 3647 3475 3647 2328 
Q 3647 1184 3222 546 
Q 2797 -91 2034 -91 
z
" transform="scale(0.015625)"/>
       </defs>
       <use xlink:href="#DejaVuSerif-30"/>
      </g>
     </g>
    </g>
    <g id="xtick_2">
     <g id="line2d_4">
      <path d="M 285.319194 345.2325 
L 285.319194 50.52 
" clip-path="url(#pe27b5ecad1)" style="fill: none; stroke-dasharray: 3.7,1.6; stroke-dashoffset: 0; stroke: #b0b0b0; stroke-opacity: 0.5"/>
     </g>
     <g id="line2d_5">
      <g>
       <use xlink:href="#me8fc768259" x="285.319194" y="345.2325" style="stroke: #000000; stroke-width: 2"/>
      </g>
     </g>
     <g id="line2d_6">
      <g>
       <use xlink:href="#m4ea31c4260" x="285.319194" y="50.52" style="stroke: #000000; stroke-width: 2"/>
      </g>
     </g>
     <g id="text_2">
      <!-- 20 -->
      <g transform="translate(268.776694 368.488437) scale(0.26 -0.26)">
       <defs>
        <path id="DejaVuSerif-32" d="M 819 3553 
L 469 3553 
L 469 4384 
Q 803 4563 1142 4656 
Q 1481 4750 1806 4750 
Q 2534 4750 2956 4397 
Q 3378 4044 3378 3438 
Q 3378 2753 2422 1800 
Q 2347 1728 2309 1691 
L 1131 513 
L 3078 513 
L 3078 1088 
L 3444 1088 
L 3444 0 
L 434 0 
L 434 341 
L 1850 1753 
Q 2319 2222 2519 2614 
Q 2719 3006 2719 3438 
Q 2719 3909 2473 4175 
Q 2228 4441 1797 4441 
Q 1350 4441 1106 4219 
Q 863 3997 819 3553 
z
" transform="scale(0.015625)"/>
       </defs>
       <use xlink:href="#DejaVuSerif-32"/>
       <use xlink:href="#DejaVuSerif-30" x="63.623047"/>
      </g>
     </g>
    </g>
    <g id="xtick_3">
     <g id="line2d_7">
      <path d="M 380.749588 345.2325 
L 380.749588 50.52 
" clip-path="url(#pe27b5ecad1)" style="fill: none; stroke-dasharray: 3.7,1.6; stroke-dashoffset: 0; stroke: #b0b0b0; stroke-opacity: 0.5"/>
     </g>
     <g id="line2d_8">
      <g>
       <use xlink:href="#me8fc768259" x="380.749588" y="345.2325" style="stroke: #000000; stroke-width: 2"/>
      </g>
     </g>
     <g id="line2d_9">
      <g>
       <use xlink:href="#m4ea31c4260" x="380.749588" y="50.52" style="stroke: #000000; stroke-width: 2"/>
      </g>
     </g>
     <g id="text_3">
      <!-- 40 -->
      <g transform="translate(364.207088 368.488437) scale(0.26 -0.26)">
       <defs>
        <path id="DejaVuSerif-34" d="M 2234 1581 
L 2234 4063 
L 641 1581 
L 2234 1581 
z
M 3609 0 
L 1484 0 
L 1484 331 
L 2234 331 
L 2234 1247 
L 197 1247 
L 197 1588 
L 2241 4750 
L 2859 4750 
L 2859 1581 
L 3750 1581 
L 3750 1247 
L 2859 1247 
L 2859 331 
L 3609 331 
L 3609 0 
z
" transform="scale(0.015625)"/>
       </defs>
       <use xlink:href="#DejaVuSerif-34"/>
       <use xlink:href="#DejaVuSerif-30" x="63.623047"/>
      </g>
     </g>
    </g>
    <g id="text_4">
     <!-- $t$ (a.u.) -->
     <g transform="translate(265.756792 397.651563) scale(0.26 -0.26)">
      <defs>
       <path id="Cmmi10-74" d="M 397 519 
Q 397 613 416 697 
L 878 2534 
L 206 2534 
Q 141 2534 141 2619 
Q 166 2759 225 2759 
L 934 2759 
L 1191 3803 
Q 1216 3888 1291 3947 
Q 1366 4006 1459 4006 
Q 1541 4006 1595 3957 
Q 1650 3909 1650 3828 
Q 1650 3809 1648 3798 
Q 1647 3788 1644 3775 
L 1388 2759 
L 2047 2759 
Q 2113 2759 2113 2675 
Q 2109 2659 2100 2621 
Q 2091 2584 2075 2559 
Q 2059 2534 2028 2534 
L 1331 2534 
L 872 684 
Q 825 503 825 372 
Q 825 97 1013 97 
Q 1294 97 1511 361 
Q 1728 625 1844 941 
Q 1869 978 1894 978 
L 1972 978 
Q 1997 978 2012 961 
Q 2028 944 2028 922 
Q 2028 909 2022 903 
Q 1881 516 1612 222 
Q 1344 -72 997 -72 
Q 744 -72 570 93 
Q 397 259 397 519 
z
" transform="scale(0.015625)"/>
       <path id="DejaVuSerif-20" transform="scale(0.015625)"/>
       <path id="DejaVuSerif-28" d="M 2041 -997 
Q 1281 -656 893 83 
Q 506 822 506 1931 
Q 506 3044 893 3783 
Q 1281 4522 2041 4863 
L 2041 4556 
Q 1559 4225 1350 3623 
Q 1141 3022 1141 1931 
Q 1141 844 1350 242 
Q 1559 -359 2041 -691 
L 2041 -997 
z
" transform="scale(0.015625)"/>
       <path id="DejaVuSerif-61" d="M 2547 1044 
L 2547 1747 
L 1806 1747 
Q 1378 1747 1168 1562 
Q 959 1378 959 997 
Q 959 650 1171 447 
Q 1384 244 1747 244 
Q 2106 244 2326 466 
Q 2547 688 2547 1044 
z
M 3122 2075 
L 3122 331 
L 3634 331 
L 3634 0 
L 2547 0 
L 2547 359 
Q 2356 128 2106 18 
Q 1856 -91 1522 -91 
Q 969 -91 644 203 
Q 319 497 319 997 
Q 319 1513 691 1797 
Q 1063 2081 1741 2081 
L 2547 2081 
L 2547 2309 
Q 2547 2688 2317 2895 
Q 2088 3103 1672 3103 
Q 1328 3103 1125 2947 
Q 922 2791 872 2484 
L 575 2484 
L 575 3156 
Q 875 3284 1158 3348 
Q 1441 3413 1709 3413 
Q 2400 3413 2761 3070 
Q 3122 2728 3122 2075 
z
" transform="scale(0.015625)"/>
       <path id="DejaVuSerif-2e" d="M 603 325 
Q 603 500 722 622 
Q 841 744 1019 744 
Q 1191 744 1312 622 
Q 1434 500 1434 325 
Q 1434 153 1312 31 
Q 1191 -91 1019 -91 
Q 841 -91 722 29 
Q 603 150 603 325 
z
" transform="scale(0.015625)"/>
       <path id="DejaVuSerif-75" d="M 2266 3322 
L 3341 3322 
L 3341 331 
L 3884 331 
L 3884 0 
L 2766 0 
L 2766 588 
Q 2606 256 2353 82 
Q 2100 -91 1766 -91 
Q 1213 -91 952 223 
Q 691 538 691 1209 
L 691 2988 
L 172 2988 
L 172 3322 
L 1269 3322 
L 1269 1388 
Q 1269 781 1417 556 
Q 1566 331 1947 331 
Q 2347 331 2556 625 
Q 2766 919 2766 1478 
L 2766 2988 
L 2266 2988 
L 2266 3322 
z
" transform="scale(0.015625)"/>
       <path id="DejaVuSerif-29" d="M 453 -997 
L 453 -691 
Q 934 -359 1145 242 
Q 1356 844 1356 1931 
Q 1356 3022 1145 3623 
Q 934 4225 453 4556 
L 453 4863 
Q 1216 4522 1603 3783 
Q 1991 3044 1991 1931 
Q 1991 822 1603 83 
Q 1216 -656 453 -997 
z
" transform="scale(0.015625)"/>
      </defs>
      <use xlink:href="#Cmmi10-74" transform="translate(0 0.015625)"/>
      <use xlink:href="#DejaVuSerif-20" transform="translate(36.083984 0.015625)"/>
      <use xlink:href="#DejaVuSerif-28" transform="translate(67.871094 0.015625)"/>
      <use xlink:href="#DejaVuSerif-61" transform="translate(106.884766 0.015625)"/>
      <use xlink:href="#DejaVuSerif-2e" transform="translate(166.503906 0.015625)"/>
      <use xlink:href="#DejaVuSerif-75" transform="translate(198.291016 0.015625)"/>
      <use xlink:href="#DejaVuSerif-2e" transform="translate(262.695312 0.015625)"/>
      <use xlink:href="#DejaVuSerif-29" transform="translate(294.482422 0.015625)"/>
     </g>
    </g>
   </g>
   <g id="matplotlib.axis_2">
    <g id="ytick_1">
     <g id="line2d_10">
      <path d="M 177.96 310.42751 
L 440.393584 310.42751 
" clip-path="url(#pe27b5ecad1)" style="fill: none; stroke-dasharray: 3.7,1.6; stroke-dashoffset: 0; stroke: #b0b0b0; stroke-opacity: 0.5"/>
     </g>
     <g id="line2d_11">
      <defs>
       <path id="mb75eee9246" d="M 0 0 
L 10 0 
" style="stroke: #000000; stroke-width: 2"/>
      </defs>
      <g>
       <use xlink:href="#mb75eee9246" x="177.96" y="310.42751" style="stroke: #000000; stroke-width: 2"/>
      </g>
     </g>
     <g id="line2d_12">
      <defs>
       <path id="mc186b81563" d="M 0 0 
L -10 0 
" style="stroke: #000000; stroke-width: 2"/>
      </defs>
      <g>
       <use xlink:href="#mc186b81563" x="440.393584" y="310.42751" style="stroke: #000000; stroke-width: 2"/>
      </g>
     </g>
     <g id="text_5">
      <!-- −0.0008 -->
      <g transform="translate(61.697188 320.305479) scale(0.26 -0.26)">
       <defs>
        <path id="DejaVuSerif-2212" d="M 678 2259 
L 4684 2259 
L 4684 1753 
L 678 1753 
L 678 2259 
z
" transform="scale(0.015625)"/>
        <path id="DejaVuSerif-38" d="M 2981 1275 
Q 2981 1775 2732 2051 
Q 2484 2328 2034 2328 
Q 1584 2328 1336 2051 
Q 1088 1775 1088 1275 
Q 1088 772 1336 495 
Q 1584 219 2034 219 
Q 2484 219 2732 495 
Q 2981 772 2981 1275 
z
M 2853 3541 
Q 2853 3966 2637 4203 
Q 2422 4441 2034 4441 
Q 1650 4441 1433 4203 
Q 1216 3966 1216 3541 
Q 1216 3113 1433 2875 
Q 1650 2638 2034 2638 
Q 2422 2638 2637 2875 
Q 2853 3113 2853 3541 
z
M 2516 2484 
Q 3047 2413 3344 2092 
Q 3641 1772 3641 1275 
Q 3641 619 3225 264 
Q 2809 -91 2034 -91 
Q 1263 -91 845 264 
Q 428 619 428 1275 
Q 428 1772 725 2092 
Q 1022 2413 1556 2484 
Q 1084 2569 832 2842 
Q 581 3116 581 3541 
Q 581 4103 968 4426 
Q 1356 4750 2034 4750 
Q 2713 4750 3100 4426 
Q 3488 4103 3488 3541 
Q 3488 3116 3236 2842 
Q 2984 2569 2516 2484 
z
" transform="scale(0.015625)"/>
       </defs>
       <use xlink:href="#DejaVuSerif-2212"/>
       <use xlink:href="#DejaVuSerif-30" x="83.789062"/>
       <use xlink:href="#DejaVuSerif-2e" x="147.412109"/>
       <use xlink:href="#DejaVuSerif-30" x="179.199219"/>
       <use xlink:href="#DejaVuSerif-30" x="242.822266"/>
       <use xlink:href="#DejaVuSerif-30" x="306.445312"/>
       <use xlink:href="#DejaVuSerif-38" x="370.068359"/>
      </g>
     </g>
    </g>
    <g id="ytick_2">
     <g id="line2d_13">
      <path d="M 177.96 246.229246 
L 440.393584 246.229246 
" clip-path="url(#pe27b5ecad1)" style="fill: none; stroke-dasharray: 3.7,1.6; stroke-dashoffset: 0; stroke: #b0b0b0; stroke-opacity: 0.5"/>
     </g>
     <g id="line2d_14">
      <g>
       <use xlink:href="#mb75eee9246" x="177.96" y="246.229246" style="stroke: #000000; stroke-width: 2"/>
      </g>
     </g>
     <g id="line2d_15">
      <g>
       <use xlink:href="#mc186b81563" x="440.393584" y="246.229246" style="stroke: #000000; stroke-width: 2"/>
      </g>
     </g>
     <g id="text_6">
      <!-- −0.0006 -->
      <g transform="translate(61.697188 256.107215) scale(0.26 -0.26)">
       <defs>
        <path id="DejaVuSerif-36" d="M 2094 219 
Q 2534 219 2771 542 
Q 3009 866 3009 1472 
Q 3009 2078 2771 2401 
Q 2534 2725 2094 2725 
Q 1647 2725 1412 2412 
Q 1178 2100 1178 1509 
Q 1178 888 1415 553 
Q 1653 219 2094 219 
z
M 1075 2569 
Q 1288 2803 1556 2918 
Q 1825 3034 2163 3034 
Q 2859 3034 3264 2615 
Q 3669 2197 3669 1472 
Q 3669 763 3233 336 
Q 2797 -91 2069 -91 
Q 1278 -91 853 498 
Q 428 1088 428 2181 
Q 428 3406 931 4078 
Q 1434 4750 2350 4750 
Q 2597 4750 2869 4703 
Q 3141 4656 3425 4563 
L 3425 3794 
L 3072 3794 
Q 3034 4109 2831 4275 
Q 2628 4441 2284 4441 
Q 1678 4441 1381 3981 
Q 1084 3522 1075 2569 
z
" transform="scale(0.015625)"/>
       </defs>
       <use xlink:href="#DejaVuSerif-2212"/>
       <use xlink:href="#DejaVuSerif-30" x="83.789062"/>
       <use xlink:href="#DejaVuSerif-2e" x="147.412109"/>
       <use xlink:href="#DejaVuSerif-30" x="179.199219"/>
       <use xlink:href="#DejaVuSerif-30" x="242.822266"/>
       <use xlink:href="#DejaVuSerif-30" x="306.445312"/>
       <use xlink:href="#DejaVuSerif-36" x="370.068359"/>
      </g>
     </g>
    </g>
    <g id="ytick_3">
     <g id="line2d_16">
      <path d="M 177.96 182.030982 
L 440.393584 182.030982 
" clip-path="url(#pe27b5ecad1)" style="fill: none; stroke-dasharray: 3.7,1.6; stroke-dashoffset: 0; stroke: #b0b0b0; stroke-opacity: 0.5"/>
     </g>
     <g id="line2d_17">
      <g>
       <use xlink:href="#mb75eee9246" x="177.96" y="182.030982" style="stroke: #000000; stroke-width: 2"/>
      </g>
     </g>
     <g id="line2d_18">
      <g>
       <use xlink:href="#mc186b81563" x="440.393584" y="182.030982" style="stroke: #000000; stroke-width: 2"/>
      </g>
     </g>
     <g id="text_7">
      <!-- −0.0004 -->
      <g transform="translate(61.697188 191.908951) scale(0.26 -0.26)">
       <use xlink:href="#DejaVuSerif-2212"/>
       <use xlink:href="#DejaVuSerif-30" x="83.789062"/>
       <use xlink:href="#DejaVuSerif-2e" x="147.412109"/>
       <use xlink:href="#DejaVuSerif-30" x="179.199219"/>
       <use xlink:href="#DejaVuSerif-30" x="242.822266"/>
       <use xlink:href="#DejaVuSerif-30" x="306.445312"/>
       <use xlink:href="#DejaVuSerif-34" x="370.068359"/>
      </g>
     </g>
    </g>
    <g id="ytick_4">
     <g id="line2d_19">
      <path d="M 177.96 117.832718 
L 440.393584 117.832718 
" clip-path="url(#pe27b5ecad1)" style="fill: none; stroke-dasharray: 3.7,1.6; stroke-dashoffset: 0; stroke: #b0b0b0; stroke-opacity: 0.5"/>
     </g>
     <g id="line2d_20">
      <g>
       <use xlink:href="#mb75eee9246" x="177.96" y="117.832718" style="stroke: #000000; stroke-width: 2"/>
      </g>
     </g>
     <g id="line2d_21">
      <g>
       <use xlink:href="#mc186b81563" x="440.393584" y="117.832718" style="stroke: #000000; stroke-width: 2"/>
      </g>
     </g>
     <g id="text_8">
      <!-- −0.0002 -->
      <g transform="translate(61.697188 127.710687) scale(0.26 -0.26)">
       <use xlink:href="#DejaVuSerif-2212"/>
       <use xlink:href="#DejaVuSerif-30" x="83.789062"/>
       <use xlink:href="#DejaVuSerif-2e" x="147.412109"/>
       <use xlink:href="#DejaVuSerif-30" x="179.199219"/>
       <use xlink:href="#DejaVuSerif-30" x="242.822266"/>
       <use xlink:href="#DejaVuSerif-30" x="306.445312"/>
       <use xlink:href="#DejaVuSerif-32" x="370.068359"/>
      </g>
     </g>
    </g>
    <g id="ytick_5">
     <g id="line2d_22">
      <path d="M 177.96 53.634454 
L 440.393584 53.634454 
" clip-path="url(#pe27b5ecad1)" style="fill: none; stroke-dasharray: 3.7,1.6; stroke-dashoffset: 0; stroke: #b0b0b0; stroke-opacity: 0.5"/>
     </g>
     <g id="line2d_23">
      <g>
       <use xlink:href="#mb75eee9246" x="177.96" y="53.634454" style="stroke: #000000; stroke-width: 2"/>
      </g>
     </g>
     <g id="line2d_24">
      <g>
       <use xlink:href="#mc186b81563" x="440.393584" y="53.634454" style="stroke: #000000; stroke-width: 2"/>
      </g>
     </g>
     <g id="text_9">
      <!-- 0.0000 -->
      <g transform="translate(83.484375 63.512423) scale(0.26 -0.26)">
       <use xlink:href="#DejaVuSerif-30"/>
       <use xlink:href="#DejaVuSerif-2e" x="63.623047"/>
       <use xlink:href="#DejaVuSerif-30" x="95.410156"/>
       <use xlink:href="#DejaVuSerif-30" x="159.033203"/>
       <use xlink:href="#DejaVuSerif-30" x="222.65625"/>
       <use xlink:href="#DejaVuSerif-30" x="286.279297"/>
      </g>
     </g>
    </g>
    <g id="text_10">
     <!-- $E(t)$ (a.u.) -->
     <g transform="translate(51.197188 260.92625) rotate(-90) scale(0.26 -0.26)">
      <defs>
       <path id="Cmmi10-45" d="M 300 0 
Q 238 0 238 84 
Q 241 100 250 139 
Q 259 178 276 201 
Q 294 225 319 225 
Q 709 225 863 269 
Q 947 297 984 441 
L 1863 3956 
Q 1875 4019 1875 4044 
Q 1875 4113 1797 4122 
Q 1678 4147 1338 4147 
Q 1275 4147 1275 4231 
Q 1278 4247 1287 4286 
Q 1297 4325 1314 4348 
Q 1331 4372 1356 4372 
L 4825 4372 
Q 4891 4372 4891 4288 
L 4738 2963 
Q 4738 2947 4714 2926 
Q 4691 2906 4672 2906 
L 4616 2906 
Q 4550 2906 4550 2988 
Q 4588 3300 4588 3450 
Q 4588 3706 4500 3848 
Q 4413 3991 4267 4053 
Q 4122 4116 3945 4131 
Q 3769 4147 3481 4147 
L 2753 4147 
Q 2578 4147 2522 4117 
Q 2466 4088 2419 3928 
L 2034 2381 
L 2534 2381 
Q 2859 2381 3025 2426 
Q 3191 2472 3287 2615 
Q 3384 2759 3463 3072 
Q 3469 3094 3486 3111 
Q 3503 3128 3525 3128 
L 3584 3128 
Q 3647 3128 3647 3047 
L 3250 1466 
Q 3238 1409 3188 1409 
L 3128 1409 
Q 3066 1409 3066 1491 
Q 3128 1747 3128 1869 
Q 3128 2056 2959 2106 
Q 2791 2156 2509 2156 
L 1978 2156 
L 1544 416 
Q 1516 338 1516 275 
Q 1516 225 1734 225 
L 2509 225 
Q 2972 225 3259 297 
Q 3547 369 3736 526 
Q 3925 684 4062 928 
Q 4200 1172 4397 1638 
Q 4409 1678 4453 1678 
L 4513 1678 
Q 4538 1678 4556 1656 
Q 4575 1634 4575 1606 
Q 4575 1594 4569 1581 
L 3909 38 
Q 3897 0 3859 0 
L 300 0 
z
" transform="scale(0.015625)"/>
       <path id="Cmr10-28" d="M 1984 -1588 
Q 1628 -1306 1370 -942 
Q 1113 -578 948 -165 
Q 784 247 703 697 
Q 622 1147 622 1600 
Q 622 2059 703 2509 
Q 784 2959 951 3375 
Q 1119 3791 1378 4153 
Q 1638 4516 1984 4788 
Q 1984 4800 2016 4800 
L 2075 4800 
Q 2094 4800 2109 4783 
Q 2125 4766 2125 4744 
Q 2125 4716 2113 4703 
Q 1800 4397 1592 4047 
Q 1384 3697 1257 3301 
Q 1131 2906 1075 2482 
Q 1019 2059 1019 1600 
Q 1019 -434 2106 -1491 
Q 2125 -1509 2125 -1544 
Q 2125 -1559 2108 -1579 
Q 2091 -1600 2075 -1600 
L 2016 -1600 
Q 1984 -1600 1984 -1588 
z
" transform="scale(0.015625)"/>
       <path id="Cmr10-29" d="M 416 -1600 
Q 359 -1600 359 -1544 
Q 359 -1516 372 -1503 
Q 1466 -434 1466 1600 
Q 1466 3634 384 4691 
Q 359 4706 359 4744 
Q 359 4766 376 4783 
Q 394 4800 416 4800 
L 475 4800 
Q 494 4800 506 4788 
Q 966 4425 1272 3906 
Q 1578 3388 1720 2800 
Q 1863 2213 1863 1600 
Q 1863 1147 1786 708 
Q 1709 269 1542 -157 
Q 1375 -584 1119 -945 
Q 863 -1306 506 -1588 
Q 494 -1600 475 -1600 
L 416 -1600 
z
" transform="scale(0.015625)"/>
      </defs>
      <use xlink:href="#Cmmi10-45" transform="translate(0 0.015625)"/>
      <use xlink:href="#Cmr10-28" transform="translate(73.779297 0.015625)"/>
      <use xlink:href="#Cmmi10-74" transform="translate(112.597656 0.015625)"/>
      <use xlink:href="#Cmr10-29" transform="translate(148.681641 0.015625)"/>
      <use xlink:href="#DejaVuSerif-20" transform="translate(187.5 0.015625)"/>
      <use xlink:href="#DejaVuSerif-28" transform="translate(219.287109 0.015625)"/>
      <use xlink:href="#DejaVuSerif-61" transform="translate(258.300781 0.015625)"/>
      <use xlink:href="#DejaVuSerif-2e" transform="translate(317.919922 0.015625)"/>
      <use xlink:href="#DejaVuSerif-75" transform="translate(349.707031 0.015625)"/>
      <use xlink:href="#DejaVuSerif-2e" transform="translate(414.111328 0.015625)"/>
      <use xlink:href="#DejaVuSerif-29" transform="translate(445.898438 0.015625)"/>
     </g>
    </g>
    <g id="text_11">
     <!-- −1.5544e1 -->
     <g transform="translate(177.96 47.52) scale(0.26 -0.26)">
      <defs>
       <path id="DejaVuSerif-31" d="M 909 0 
L 909 331 
L 1722 331 
L 1722 4213 
L 781 3603 
L 781 4013 
L 1919 4750 
L 2350 4750 
L 2350 331 
L 3163 331 
L 3163 0 
L 909 0 
z
" transform="scale(0.015625)"/>
       <path id="DejaVuSerif-35" d="M 3219 4666 
L 3219 4153 
L 1081 4153 
L 1081 2816 
Q 1244 2928 1461 2984 
Q 1678 3041 1947 3041 
Q 2703 3041 3140 2622 
Q 3578 2203 3578 1478 
Q 3578 738 3136 323 
Q 2694 -91 1894 -91 
Q 1572 -91 1234 -12 
Q 897 66 544 225 
L 544 1131 
L 897 1131 
Q 925 688 1179 453 
Q 1434 219 1894 219 
Q 2388 219 2653 544 
Q 2919 869 2919 1478 
Q 2919 2084 2655 2407 
Q 2391 2731 1894 2731 
Q 1613 2731 1398 2631 
Q 1184 2531 1019 2322 
L 750 2322 
L 750 4666 
L 3219 4666 
z
" transform="scale(0.015625)"/>
       <path id="DejaVuSerif-65" d="M 3469 1600 
L 991 1600 
L 991 1575 
Q 991 903 1244 561 
Q 1497 219 1991 219 
Q 2369 219 2611 417 
Q 2853 616 2950 1006 
L 3413 1006 
Q 3275 459 2904 184 
Q 2534 -91 1931 -91 
Q 1203 -91 761 389 
Q 319 869 319 1663 
Q 319 2450 753 2931 
Q 1188 3413 1894 3413 
Q 2647 3413 3050 2948 
Q 3453 2484 3469 1600 
z
M 2791 1931 
Q 2772 2513 2545 2808 
Q 2319 3103 1894 3103 
Q 1497 3103 1269 2806 
Q 1041 2509 991 1931 
L 2791 1931 
z
" transform="scale(0.015625)"/>
      </defs>
      <use xlink:href="#DejaVuSerif-2212"/>
      <use xlink:href="#DejaVuSerif-31" x="83.789062"/>
      <use xlink:href="#DejaVuSerif-2e" x="147.412109"/>
      <use xlink:href="#DejaVuSerif-35" x="179.199219"/>
      <use xlink:href="#DejaVuSerif-35" x="242.822266"/>
      <use xlink:href="#DejaVuSerif-34" x="306.445312"/>
      <use xlink:href="#DejaVuSerif-34" x="370.068359"/>
      <use xlink:href="#DejaVuSerif-65" x="433.691406"/>
      <use xlink:href="#DejaVuSerif-31" x="492.871094"/>
     </g>
    </g>
   </g>
   <g id="line2d_25">
    <path d="M 189.888799 127.502951 
L 190.127614 86.989222 
L 190.844058 169.876322 
L 191.082873 121.759454 
L 191.321688 189.522854 
L 191.560503 189.952886 
L 191.799318 139.960633 
L 192.038132 171.454814 
L 192.276947 185.821745 
L 192.515762 140.629118 
L 192.993392 210.078677 
L 193.232206 157.3691 
L 193.709836 206.943804 
L 193.948651 149.075699 
L 194.187466 202.603414 
L 194.665095 137.65926 
L 194.90391 131.592805 
L 195.142725 70.661377 
L 195.38154 126.048914 
L 195.620354 98.524462 
L 195.859169 148.070994 
L 196.097984 103.927306 
L 196.336799 127.622324 
L 196.575614 98.619184 
L 196.814428 96.096286 
L 197.053243 116.977163 
L 197.292058 124.890352 
L 197.530873 118.802959 
L 197.769688 118.559353 
L 198.008502 121.800152 
L 198.247317 120.558016 
L 198.486132 140.500673 
L 198.724947 176.452734 
L 198.963762 157.093946 
L 199.202576 94.432163 
L 199.441391 126.619957 
L 199.680206 90.626805 
L 199.919021 138.584103 
L 200.157836 98.814196 
L 200.39665 182.797052 
L 200.635465 119.948873 
L 200.87428 192.994478 
L 201.113095 144.370333 
L 201.35191 162.657531 
L 201.590724 146.840094 
L 201.829539 91.832613 
L 202.068354 178.685478 
L 202.307169 177.454923 
L 202.545984 103.913861 
L 203.023613 155.526665 
L 203.262428 142.595699 
L 203.501243 136.247864 
L 203.740058 135.108133 
L 203.978873 142.561387 
L 204.456502 190.672459 
L 204.934132 107.523992 
L 205.411761 211.087298 
L 205.650576 176.03782 
L 205.889391 180.219051 
L 206.128206 174.058901 
L 206.367021 96.452458 
L 206.605835 130.546213 
L 206.84465 129.434584 
L 207.083465 111.7296 
L 207.32228 139.042064 
L 207.561095 91.007881 
L 207.799909 150.469388 
L 208.038724 124.774892 
L 208.277539 152.265711 
L 208.516354 165.751467 
L 208.755169 136.616432 
L 208.993983 142.084457 
L 209.232798 139.957628 
L 209.471613 131.736716 
L 209.710428 136.526422 
L 209.949243 134.728873 
L 210.188057 127.877621 
L 210.426872 141.453188 
L 210.665687 166.306189 
L 210.904502 177.800601 
L 211.382131 172.822872 
L 211.859761 177.642142 
L 212.098576 174.572429 
L 212.337391 172.983418 
L 212.576205 165.674379 
L 212.81502 120.161253 
L 213.053835 143.305949 
L 213.29265 179.707852 
L 213.531465 142.59466 
L 213.770279 141.276757 
L 214.009094 186.785112 
L 214.247909 164.116051 
L 214.486724 117.907422 
L 214.964353 171.579263 
L 215.203168 153.208026 
L 215.441983 120.912104 
L 215.680798 162.647478 
L 215.919613 182.25351 
L 216.158427 151.880355 
L 216.397242 107.055991 
L 216.636057 118.140171 
L 216.874872 155.738252 
L 217.113687 165.626058 
L 217.352501 152.663939 
L 218.068946 82.910039 
L 218.307761 79.62873 
L 218.546575 117.21231 
L 218.78539 118.277439 
L 219.024205 82.581058 
L 219.26302 100.695936 
L 219.740649 191.503744 
L 220.218279 79.818046 
L 220.457094 115.906141 
L 220.695909 103.333904 
L 220.934723 84.68025 
L 221.173538 130.270079 
L 221.412353 112.374487 
L 221.651168 63.916023 
L 221.889983 77.893017 
L 222.128797 113.761166 
L 222.367612 126.765932 
L 222.606427 115.656155 
L 222.845242 112.811042 
L 223.322871 178.96407 
L 223.561686 168.46512 
L 223.800501 143.942497 
L 224.039316 140.618153 
L 224.516945 165.14665 
L 224.75576 163.93028 
L 225.23339 115.5423 
L 225.472205 115.517925 
L 225.949834 162.576898 
L 226.905093 217.685465 
L 227.143908 219.223894 
L 227.382723 209.908396 
L 228.337982 135.989674 
L 228.576797 146.663551 
L 229.054427 189.456313 
L 229.293241 189.676282 
L 229.532056 148.013587 
L 229.770871 146.984399 
L 230.009686 117.965125 
L 230.248501 108.443855 
L 230.487315 150.881658 
L 230.72613 127.133451 
L 230.964945 122.605727 
L 231.20376 155.100261 
L 231.442575 149.493176 
L 231.920204 174.751449 
L 232.159019 126.964097 
L 232.397834 137.384418 
L 232.636649 186.785668 
L 232.875463 148.60594 
L 233.114278 138.05935 
L 233.353093 173.778594 
L 233.591908 155.744091 
L 233.830723 163.445735 
L 234.069537 141.24148 
L 234.308352 191.531594 
L 234.547167 164.205703 
L 234.785982 188.368151 
L 235.024797 128.32951 
L 235.263611 188.083005 
L 235.502426 130.520827 
L 235.741241 183.933378 
L 235.980056 163.038949 
L 236.218871 190.223807 
L 236.457685 137.192321 
L 236.6965 178.288848 
L 236.935315 135.761472 
L 237.17413 223.470066 
L 237.412945 154.991374 
L 237.651759 189.442209 
L 237.890574 148.937111 
L 238.368204 200.454695 
L 238.607019 144.52964 
L 238.845833 138.466166 
L 239.084648 162.98263 
L 239.323463 128.42755 
L 239.562278 133.413123 
L 239.801093 148.694486 
L 240.039907 91.580257 
L 240.278722 191.570516 
L 240.517537 63.97879 
L 240.756352 169.672733 
L 240.995167 144.888441 
L 241.233981 134.519444 
L 241.472796 145.256877 
L 241.711611 186.848782 
L 241.950426 117.383984 
L 242.189241 218.443463 
L 242.428055 121.821841 
L 242.66687 181.306813 
L 242.905685 178.308309 
L 243.1445 132.560841 
L 243.383315 214.069641 
L 243.622129 108.772797 
L 243.860944 188.018199 
L 244.338574 133.81343 
L 244.816203 179.002021 
L 245.055018 128.353274 
L 245.293833 214.88755 
L 245.532648 120.857977 
L 245.771463 215.001322 
L 246.010277 133.058635 
L 246.249092 206.827503 
L 246.487907 154.798959 
L 246.726722 188.905534 
L 246.965537 173.755321 
L 247.204351 166.267603 
L 247.443166 185.339153 
L 247.681981 154.9926 
L 247.920796 192.595545 
L 248.159611 147.758244 
L 248.398425 194.249079 
L 248.63724 123.205282 
L 248.876055 180.516878 
L 249.353685 130.84193 
L 249.592499 184.391681 
L 249.831314 140.03614 
L 250.070129 133.010553 
L 250.308944 197.985958 
L 250.547759 101.264757 
L 250.786573 181.47637 
L 251.264203 133.238301 
L 251.503018 150.157014 
L 251.741833 191.13318 
L 251.980647 92.971389 
L 252.219462 202.350645 
L 252.458277 156.750281 
L 252.697092 150.069819 
L 252.935907 178.651631 
L 253.174721 179.654646 
L 253.413536 142.786629 
L 253.652351 228.883003 
L 253.891166 114.465075 
L 254.129981 231.29943 
L 254.368795 112.843587 
L 254.60761 221.404112 
L 254.846425 124.85135 
L 255.08524 211.310353 
L 255.324055 140.194161 
L 255.562869 202.229363 
L 255.801684 159.904251 
L 256.040499 184.925491 
L 256.279314 192.809824 
L 256.518129 141.521794 
L 256.756943 221.855567 
L 256.995758 122.538875 
L 257.234573 198.315894 
L 257.473388 150.829943 
L 257.712203 188.21878 
L 257.951017 118.244345 
L 258.189832 173.985965 
L 258.428647 127.862987 
L 258.667462 189.733999 
L 258.906277 203.75882 
L 259.145091 233.192384 
L 259.383906 246.559785 
L 259.622721 177.008479 
L 259.861536 192.526149 
L 260.100351 137.202676 
L 260.339165 235.457626 
L 260.57798 237.504335 
L 260.816795 231.843861 
L 261.05561 263.643208 
L 261.294425 192.814348 
L 261.533239 235.437482 
L 261.772054 176.817966 
L 262.010869 192.434958 
L 262.249684 245.441644 
L 262.488499 196.396607 
L 262.727313 241.519504 
L 262.966128 157.985483 
L 263.204943 166.067442 
L 263.443758 228.169812 
L 263.682573 175.404 
L 263.921387 215.875348 
L 264.160202 157.483045 
L 264.399017 131.849934 
L 264.637832 182.456085 
L 264.876647 143.409804 
L 265.354276 206.85198 
L 265.593091 130.584911 
L 265.831906 208.731097 
L 266.309535 149.854153 
L 266.54835 208.927698 
L 266.787165 184.265138 
L 267.02598 175.85402 
L 267.264795 197.703219 
L 267.503609 202.891648 
L 267.742424 170.383721 
L 267.981239 223.908343 
L 268.220054 180.183377 
L 268.458869 189.168433 
L 268.697683 230.918205 
L 268.936498 143.038611 
L 269.175313 221.979015 
L 269.414128 199.166681 
L 269.652943 149.034384 
L 269.891757 225.276113 
L 270.130572 122.338344 
L 270.369387 214.506388 
L 270.608202 118.968834 
L 270.847017 192.361399 
L 271.085831 109.228286 
L 271.324646 170.618188 
L 271.563461 131.622946 
L 271.802276 185.038089 
L 272.041091 141.084837 
L 272.279905 186.384975 
L 272.51872 187.235738 
L 272.757535 190.301722 
L 272.99635 146.308012 
L 273.235165 142.93804 
L 273.473979 149.412242 
L 273.712794 147.351291 
L 273.951609 183.841799 
L 274.190424 199.358247 
L 274.429239 150.739272 
L 274.668053 136.059643 
L 274.906868 193.698773 
L 275.145683 196.827655 
L 275.384498 153.902948 
L 275.623313 163.461601 
L 275.862127 211.86511 
L 276.100942 162.58376 
L 276.339757 178.063975 
L 276.578572 217.784041 
L 276.817387 150.40845 
L 277.056201 223.587433 
L 277.295016 218.109694 
L 277.533831 168.962743 
L 277.772646 247.478639 
L 278.011461 165.002156 
L 278.250275 255.713804 
L 278.48909 165.704807 
L 278.727905 236.462202 
L 278.96672 156.211847 
L 279.205535 231.196819 
L 279.444349 157.323583 
L 279.683164 235.522395 
L 279.921979 141.67147 
L 280.160794 226.739938 
L 280.399609 143.802946 
L 280.638423 213.149057 
L 280.877238 180.370186 
L 281.116053 163.965396 
L 281.354868 204.716361 
L 281.593683 119.726051 
L 281.832497 211.232636 
L 282.071312 158.130775 
L 282.310127 154.55182 
L 282.548942 185.123769 
L 282.787757 106.654119 
L 283.026571 195.52736 
L 283.265386 141.950922 
L 283.504201 207.645934 
L 283.743016 189.174406 
L 283.981831 191.163746 
L 284.220645 161.22485 
L 284.45946 230.183762 
L 284.698275 133.72556 
L 284.93709 196.289522 
L 285.175905 205.233985 
L 285.414719 164.088033 
L 285.653534 191.082392 
L 285.892349 199.807614 
L 286.131164 248.659458 
L 286.369979 221.633876 
L 286.608793 270.146173 
L 286.847608 225.468578 
L 287.086423 248.465118 
L 287.325238 233.178302 
L 287.564053 168.69317 
L 287.802867 178.431052 
L 288.041682 175.738331 
L 288.519312 266.861457 
L 288.758127 230.407127 
L 288.996941 222.998314 
L 289.235756 193.770702 
L 289.474571 120.001596 
L 289.713386 112.461311 
L 289.952201 128.584069 
L 290.191015 86.844972 
L 290.42983 175.482108 
L 290.668645 181.96486 
L 290.90746 234.763638 
L 291.146275 143.005576 
L 291.385089 169.718582 
L 291.623904 219.996228 
L 291.862719 223.014265 
L 292.101534 192.104023 
L 292.340349 181.220198 
L 292.817978 255.211923 
L 293.056793 160.374458 
L 293.534423 261.151944 
L 293.773237 187.040105 
L 294.012052 191.878177 
L 294.250867 249.599247 
L 294.489682 227.412874 
L 294.728497 179.868733 
L 294.967311 239.704664 
L 295.206126 240.231817 
L 295.444941 168.708275 
L 295.683756 240.215471 
L 295.922571 234.778064 
L 296.161385 152.573375 
L 296.4002 211.989545 
L 296.639015 192.786425 
L 296.87783 133.061841 
L 297.116645 199.340415 
L 297.355459 114.132473 
L 297.594274 196.16761 
L 297.833089 179.27493 
L 298.071904 179.277304 
L 298.310719 208.158382 
L 298.549533 157.284859 
L 298.788348 243.073745 
L 299.027163 185.171096 
L 299.743607 259.216913 
L 300.221237 177.516326 
L 300.460052 260.322989 
L 300.698867 273.725917 
L 300.937681 229.129799 
L 301.176496 214.99738 
L 301.415311 207.602414 
L 301.654126 257.236087 
L 301.892941 281.365816 
L 302.131755 246.668281 
L 302.37057 263.597583 
L 302.609385 208.909247 
L 302.8482 243.163915 
L 303.087015 212.534359 
L 303.325829 254.751415 
L 303.564644 220.935277 
L 303.803459 237.741339 
L 304.042274 238.762656 
L 304.519903 188.015353 
L 304.758718 179.50093 
L 304.997533 236.783649 
L 305.475163 174.07357 
L 305.713977 233.317164 
L 305.952792 180.691016 
L 306.191607 221.698556 
L 306.430422 193.082497 
L 306.669237 216.37358 
L 306.908051 210.298314 
L 307.146866 213.090128 
L 307.385681 198.204701 
L 307.624496 243.015567 
L 307.863311 193.169057 
L 308.102125 206.948569 
L 308.34094 257.394594 
L 308.579755 200.487559 
L 308.81857 222.634863 
L 309.057385 220.750151 
L 309.535014 250.932995 
L 309.773829 194.336616 
L 310.012644 245.118645 
L 310.251459 208.085118 
L 310.490273 268.670087 
L 310.729088 229.440806 
L 310.967903 253.651542 
L 311.206718 199.426028 
L 311.445533 260.247069 
L 311.684347 217.046024 
L 311.923162 275.446126 
L 312.161977 220.547294 
L 312.400792 267.125508 
L 312.639607 220.027857 
L 312.878421 255.217676 
L 313.117236 231.004466 
L 313.356051 243.227072 
L 313.594866 246.516471 
L 313.833681 228.997882 
L 314.072495 256.625836 
L 314.31131 212.664467 
L 314.550125 260.610711 
L 314.78894 206.478727 
L 315.027755 258.251879 
L 315.266569 211.423819 
L 315.505384 251.755997 
L 315.744199 232.138837 
L 315.983014 244.907686 
L 316.221829 244.879983 
L 316.460643 218.909745 
L 316.699458 244.493872 
L 316.938273 210.415293 
L 317.177088 258.509065 
L 317.415903 205.4548 
L 317.654717 243.325747 
L 317.893532 200.524897 
L 318.132347 243.182386 
L 318.609977 198.128329 
L 318.848791 233.076528 
L 319.326421 185.906138 
L 319.804051 218.155838 
L 320.042865 214.121452 
L 320.520495 156.331112 
L 320.998125 198.621179 
L 321.236939 206.600868 
L 321.475754 202.691595 
L 321.714569 181.980418 
L 321.953384 194.982066 
L 322.192199 200.550684 
L 322.431013 177.139243 
L 322.669828 202.971054 
L 322.908643 195.472211 
L 323.147458 179.683453 
L 323.386273 200.545282 
L 323.625087 250.348787 
L 323.863902 276.14452 
L 324.102717 258.599391 
L 324.341532 195.328453 
L 324.580347 228.944983 
L 324.819161 288.558005 
L 325.057976 255.910145 
L 325.296791 171.147616 
L 325.535606 255.224246 
L 325.774421 226.564305 
L 326.013235 168.16037 
L 326.490865 253.787762 
L 326.72968 251.382598 
L 327.207309 209.450317 
L 327.446124 210.83877 
L 327.923754 251.03768 
L 328.162569 255.862363 
L 328.401383 244.00762 
L 328.879013 209.833894 
L 329.117828 216.656897 
L 329.595457 254.016637 
L 329.834272 261.004073 
L 330.073087 258.252493 
L 330.550717 199.673944 
L 331.028346 268.744846 
L 331.267161 262.498202 
L 331.505976 248.838957 
L 331.983606 197.271143 
L 332.22242 241.97699 
L 332.461235 250.617088 
L 332.70005 272.806313 
L 333.17768 242.887582 
L 333.416494 243.855016 
L 333.655309 223.174726 
L 333.894124 240.273351 
L 334.132939 236.795117 
L 334.371754 239.867028 
L 334.610568 262.068149 
L 334.849383 249.644375 
L 335.088198 257.802647 
L 335.327013 202.838413 
L 335.565828 204.149798 
L 335.804642 211.900239 
L 336.043457 224.721057 
L 336.282272 173.380997 
L 336.521087 192.757442 
L 336.759902 180.290271 
L 337.237531 225.632417 
L 337.476346 241.782604 
L 337.715161 223.453928 
L 337.953976 225.92864 
L 338.19279 249.043215 
L 338.431605 218.967354 
L 338.67042 239.006983 
L 338.909235 202.62849 
L 339.14805 234.498262 
L 339.386864 224.742184 
L 339.625679 183.174272 
L 339.864494 249.933055 
L 340.342124 197.649749 
L 340.580938 241.74766 
L 340.819753 204.864744 
L 341.058568 247.877653 
L 341.297383 205.016084 
L 341.775012 224.841741 
L 342.013827 193.178822 
L 342.252642 231.471448 
L 342.491457 183.688734 
L 342.730272 244.832622 
L 342.969086 225.965018 
L 343.207901 282.675839 
L 343.446716 260.692017 
L 343.685531 296.44348 
L 343.924346 239.695984 
L 344.16316 256.750581 
L 344.401975 189.33863 
L 344.64079 267.029167 
L 344.879605 259.824249 
L 345.11842 313.433226 
L 345.357234 290.959328 
L 345.596049 291.49138 
L 345.834864 274.326904 
L 346.073679 244.793757 
L 346.312494 252.457194 
L 346.551308 251.049721 
L 346.790123 256.449845 
L 347.028938 287.747277 
L 347.267753 252.253482 
L 347.506568 299.496513 
L 347.745382 261.741133 
L 347.984197 295.017046 
L 348.223012 264.179456 
L 348.461827 294.770117 
L 348.700642 262.771436 
L 348.939456 260.374285 
L 349.178271 301.794648 
L 349.417086 320.305606 
L 349.894716 284.049945 
L 350.13353 314.191446 
L 350.372345 311.483555 
L 350.61116 266.89716 
L 350.849975 262.834959 
L 351.08879 274.659089 
L 351.327604 241.293871 
L 351.566419 240.028077 
L 351.805234 298.01143 
L 352.044049 290.973123 
L 352.282864 240.828949 
L 352.521678 217.274556 
L 352.760493 223.049173 
L 352.999308 251.699841 
L 353.238123 224.615378 
L 353.476938 177.313061 
L 353.715752 266.111005 
L 353.954567 237.316879 
L 354.193382 170.719491 
L 354.432197 217.453422 
L 354.671012 230.14215 
L 354.909826 254.694185 
L 355.148641 177.791107 
L 355.387456 191.356812 
L 355.626271 164.355241 
L 355.865086 195.319058 
L 356.1039 167.889583 
L 356.342715 173.611253 
L 356.58153 204.198665 
L 356.820345 158.383527 
L 357.05916 178.358128 
L 357.297974 144.872041 
L 357.775604 237.730263 
L 358.014419 205.360945 
L 358.253234 149.315116 
L 358.969678 295.841594 
L 359.208493 288.032358 
L 359.447308 266.750307 
L 359.686122 257.434557 
L 360.163752 222.7883 
L 361.119011 315.801615 
L 361.357826 323.641178 
L 361.596641 310.241895 
L 362.07427 244.733915 
L 362.313085 247.234261 
L 362.5519 260.851985 
L 362.790715 260.780522 
L 363.02953 256.338403 
L 363.268344 263.250655 
L 363.507159 281.225583 
L 363.745974 288.535053 
L 363.984789 270.030441 
L 364.223604 237.607099 
L 364.462418 222.857036 
L 364.701233 217.058049 
L 364.940048 182.104558 
L 365.178863 182.568059 
L 365.417678 238.784342 
L 365.656492 268.589601 
L 365.895307 231.575585 
L 366.134122 174.184794 
L 366.611752 269.278271 
L 366.850566 249.130838 
L 367.089381 161.788694 
L 367.567011 253.197721 
L 367.805826 255.182265 
L 368.04464 152.144871 
L 368.52227 300.390261 
L 368.9999 173.531838 
L 369.238714 280.170716 
L 369.477529 270.969518 
L 369.716344 251.587696 
L 369.955159 268.413626 
L 370.193974 227.015941 
L 370.432788 226.325956 
L 370.671603 299.719949 
L 370.910418 268.50313 
L 371.149233 261.142144 
L 371.388048 284.45078 
L 371.626862 177.061627 
L 371.865677 246.694153 
L 372.104492 233.351303 
L 372.343307 271.980979 
L 372.582122 204.272111 
L 372.820936 217.113564 
L 373.059751 264.608923 
L 373.298566 288.586287 
L 373.537381 228.599313 
L 373.776196 241.388604 
L 374.01501 219.601014 
L 374.253825 318.725325 
L 374.49264 251.996942 
L 374.731455 247.677627 
L 374.97027 231.805145 
L 375.209084 224.19767 
L 375.447899 290.157868 
L 375.925529 212.96245 
L 376.164344 236.619129 
L 376.403158 175.959023 
L 376.641973 183.055933 
L 376.880788 225.186748 
L 377.119603 188.306632 
L 377.358418 266.198212 
L 377.597232 215.488571 
L 377.836047 260.495986 
L 378.074862 223.949661 
L 378.552492 294.758285 
L 378.791306 219.517847 
L 379.030121 277.799182 
L 379.268936 257.973936 
L 379.507751 265.629315 
L 379.746566 263.869924 
L 379.98538 248.455593 
L 380.224195 281.665269 
L 380.46301 219.004775 
L 380.701825 250.838043 
L 380.94064 260.153777 
L 381.179454 199.783118 
L 381.418269 290.651527 
L 381.657084 208.085465 
L 381.895899 274.539849 
L 382.134714 235.848472 
L 382.373528 260.957063 
L 382.612343 251.0846 
L 382.851158 265.425705 
L 383.089973 272.276942 
L 383.328788 247.967773 
L 383.567602 274.544419 
L 383.806417 277.566091 
L 384.045232 256.509897 
L 384.284047 263.767824 
L 384.522862 297.626598 
L 384.761676 242.865465 
L 385.239306 298.056735 
L 385.478121 232.198986 
L 385.716936 275.894912 
L 385.95575 267.769152 
L 386.194565 238.029775 
L 386.43338 256.606474 
L 386.672195 237.202736 
L 386.91101 229.088548 
L 387.149824 255.091059 
L 387.388639 193.100501 
L 387.866269 241.157729 
L 388.105084 193.868423 
L 388.343898 221.844544 
L 388.582713 229.094346 
L 388.821528 214.292815 
L 389.060343 274.94273 
L 389.299158 276.98157 
L 389.537972 266.456398 
L 389.776787 313.231061 
L 390.015602 315.802494 
L 390.254417 271.317672 
L 390.732046 296.507633 
L 390.970861 273.681604 
L 391.209676 278.47805 
L 391.448491 308.888108 
L 391.687306 300.759036 
L 391.92612 260.18328 
L 392.164935 299.202299 
L 392.40375 315.038687 
L 392.642565 278.327015 
L 392.88138 259.649075 
L 393.120194 326.456029 
L 393.359009 305.712339 
L 393.597824 245.98763 
L 393.836639 310.545212 
L 394.075454 299.909398 
L 394.314268 225.912312 
L 394.553083 286.124353 
L 394.791898 278.419348 
L 395.030713 221.503277 
L 395.269528 301.828829 
L 395.508342 277.780414 
L 395.747157 236.529341 
L 395.985972 269.101232 
L 396.224787 197.185092 
L 396.463602 252.182003 
L 396.702416 260.203375 
L 396.941231 225.486323 
L 397.180046 286.602089 
L 397.418861 193.368083 
L 397.657676 268.499306 
L 397.89649 222.38732 
L 398.135305 293.119561 
L 398.37412 232.808141 
L 398.612935 299.98318 
L 398.85175 206.397089 
L 399.090564 294.330797 
L 399.329379 238.506163 
L 399.568194 295.493019 
L 399.807009 294.695336 
L 400.045824 237.023759 
L 400.284638 306.132934 
L 400.523453 220.783554 
L 400.762268 290.20135 
L 401.001083 272.446281 
L 401.239898 244.325277 
L 401.478712 309.687607 
L 401.717527 226.042733 
L 401.956342 301.874541 
L 402.195157 259.53946 
L 402.433972 246.816175 
L 402.672786 289.793913 
L 402.911601 207.884365 
L 403.150416 299.315422 
L 403.389231 251.270242 
L 403.628046 262.621232 
L 403.86686 282.881135 
L 404.105675 200.382189 
L 404.34449 289.67082 
L 404.583305 236.590647 
L 405.060934 286.71534 
L 405.299749 198.132231 
L 405.538564 278.758645 
L 405.777379 257.549155 
L 406.016194 225.176321 
L 406.255008 279.879355 
L 406.493823 236.297289 
L 406.732638 243.227609 
L 406.971453 278.6116 
L 407.210268 236.66264 
L 407.449082 236.470357 
L 407.687897 274.072219 
L 408.165527 233.634776 
L 408.643156 250.548604 
L 408.881971 255.753027 
L 409.120786 242.009884 
L 409.359601 209.974002 
L 409.598416 202.757897 
L 410.076045 210.410044 
L 410.553675 261.644611 
L 410.79249 283.250004 
L 411.031304 286.871592 
L 411.270119 261.783649 
L 411.508934 210.887968 
L 411.747749 240.819059 
L 411.986564 297.294416 
L 412.225378 320.600649 
L 412.464193 307.470758 
L 412.941823 216.536315 
L 413.419452 313.077046 
L 413.658267 331.836477 
L 413.897082 325.493762 
L 414.135897 299.901854 
L 414.613526 238.167662 
L 414.852341 246.82714 
L 415.329971 300.340198 
L 415.8076 260.496946 
L 416.046415 300.42369 
L 416.28523 294.196159 
L 416.524045 211.034379 
L 416.76286 212.057478 
L 417.001674 292.736289 
L 417.479304 179.456346 
L 417.718119 277.186733 
L 417.956934 236.887241 
L 418.195748 172.754575 
L 418.434563 253.900374 
L 418.673378 224.363658 
L 418.912193 241.145983 
L 419.151008 306.101263 
L 419.389822 232.269981 
L 419.867452 284.108438 
L 420.106267 235.611543 
L 420.345082 291.57129 
L 420.822711 235.918663 
L 421.061526 273.73638 
L 421.300341 263.347911 
L 421.539156 217.788394 
L 421.77797 307.368149 
L 422.016785 198.602541 
L 422.2556 286.180107 
L 422.73323 221.765615 
L 423.210859 282.051137 
L 423.449674 178.2928 
L 423.688489 307.906414 
L 423.927304 190.668591 
L 424.166118 280.91939 
L 424.404933 214.793337 
L 424.643748 226.428468 
L 424.882563 225.018386 
L 425.121378 206.042982 
L 425.360192 227.606952 
L 425.599007 229.34836 
L 425.837822 173.841704 
L 426.076637 257.713895 
L 426.315452 210.669512 
L 426.554266 243.585714 
L 426.793081 186.28595 
L 427.031896 250.058587 
L 427.270711 216.050548 
L 427.509526 240.889092 
L 427.74834 193.906301 
L 427.987155 246.612976 
L 428.22597 268.950179 
L 428.464785 179.099243 
L 428.464785 179.099243 
" clip-path="url(#pe27b5ecad1)" style="fill: none; stroke: #1f77b4; stroke-width: 3; stroke-linecap: square"/>
   </g>
   <g id="patch_3">
    <path d="M 177.96 345.2325 
L 177.96 50.52 
" style="fill: none; stroke: #000000; stroke-width: 2; stroke-linejoin: miter; stroke-linecap: square"/>
   </g>
   <g id="patch_4">
    <path d="M 440.393584 345.2325 
L 440.393584 50.52 
" style="fill: none; stroke: #000000; stroke-width: 2; stroke-linejoin: miter; stroke-linecap: square"/>
   </g>
   <g id="patch_5">
    <path d="M 177.96 345.2325 
L 440.393584 345.2325 
" style="fill: none; stroke: #000000; stroke-width: 2; stroke-linejoin: miter; stroke-linecap: square"/>
   </g>
   <g id="patch_6">
    <path d="M 177.96 50.52 
L 440.393584 50.52 
" style="fill: none; stroke: #000000; stroke-width: 2; stroke-linejoin: miter; stroke-linecap: square"/>
   </g>
  </g>
  <g id="axes_2">
   <g id="patch_7">
    <path d="M 573.486416 345.2325 
L 835.92 345.2325 
L 835.92 50.52 
L 573.486416 50.52 
z
" style="fill: #ffffff"/>
   </g>
   <g id="matplotlib.axis_3">
    <g id="xtick_4">
     <g id="line2d_26">
      <path d="M 585.415215 345.2325 
L 585.415215 50.52 
" clip-path="url(#p13eef4785a)" style="fill: none; stroke-dasharray: 3.7,1.6; stroke-dashoffset: 0; stroke: #b0b0b0; stroke-opacity: 0.5"/>
     </g>
     <g id="line2d_27">
      <g>
       <use xlink:href="#me8fc768259" x="585.415215" y="345.2325" style="stroke: #000000; stroke-width: 2"/>
      </g>
     </g>
     <g id="line2d_28">
      <g>
       <use xlink:href="#m4ea31c4260" x="585.415215" y="50.52" style="stroke: #000000; stroke-width: 2"/>
      </g>
     </g>
     <g id="text_12">
      <!-- 0 -->
      <g transform="translate(577.143965 368.488437) scale(0.26 -0.26)">
       <use xlink:href="#DejaVuSerif-30"/>
      </g>
     </g>
    </g>
    <g id="xtick_5">
     <g id="line2d_29">
      <path d="M 680.845609 345.2325 
L 680.845609 50.52 
" clip-path="url(#p13eef4785a)" style="fill: none; stroke-dasharray: 3.7,1.6; stroke-dashoffset: 0; stroke: #b0b0b0; stroke-opacity: 0.5"/>
     </g>
     <g id="line2d_30">
      <g>
       <use xlink:href="#me8fc768259" x="680.845609" y="345.2325" style="stroke: #000000; stroke-width: 2"/>
      </g>
     </g>
     <g id="line2d_31">
      <g>
       <use xlink:href="#m4ea31c4260" x="680.845609" y="50.52" style="stroke: #000000; stroke-width: 2"/>
      </g>
     </g>
     <g id="text_13">
      <!-- 20 -->
      <g transform="translate(664.303109 368.488437) scale(0.26 -0.26)">
       <use xlink:href="#DejaVuSerif-32"/>
       <use xlink:href="#DejaVuSerif-30" x="63.623047"/>
      </g>
     </g>
    </g>
    <g id="xtick_6">
     <g id="line2d_32">
      <path d="M 776.276004 345.2325 
L 776.276004 50.52 
" clip-path="url(#p13eef4785a)" style="fill: none; stroke-dasharray: 3.7,1.6; stroke-dashoffset: 0; stroke: #b0b0b0; stroke-opacity: 0.5"/>
     </g>
     <g id="line2d_33">
      <g>
       <use xlink:href="#me8fc768259" x="776.276004" y="345.2325" style="stroke: #000000; stroke-width: 2"/>
      </g>
     </g>
     <g id="line2d_34">
      <g>
       <use xlink:href="#m4ea31c4260" x="776.276004" y="50.52" style="stroke: #000000; stroke-width: 2"/>
      </g>
     </g>
     <g id="text_14">
      <!-- 40 -->
      <g transform="translate(759.733504 368.488437) scale(0.26 -0.26)">
       <use xlink:href="#DejaVuSerif-34"/>
       <use xlink:href="#DejaVuSerif-30" x="63.623047"/>
      </g>
     </g>
    </g>
    <g id="text_15">
     <!-- $t$ (a.u.) -->
     <g transform="translate(661.283208 397.651563) scale(0.26 -0.26)">
      <use xlink:href="#Cmmi10-74" transform="translate(0 0.015625)"/>
      <use xlink:href="#DejaVuSerif-20" transform="translate(36.083984 0.015625)"/>
      <use xlink:href="#DejaVuSerif-28" transform="translate(67.871094 0.015625)"/>
      <use xlink:href="#DejaVuSerif-61" transform="translate(106.884766 0.015625)"/>
      <use xlink:href="#DejaVuSerif-2e" transform="translate(166.503906 0.015625)"/>
      <use xlink:href="#DejaVuSerif-75" transform="translate(198.291016 0.015625)"/>
      <use xlink:href="#DejaVuSerif-2e" transform="translate(262.695312 0.015625)"/>
      <use xlink:href="#DejaVuSerif-29" transform="translate(294.482422 0.015625)"/>
     </g>
    </g>
   </g>
   <g id="matplotlib.axis_4">
    <g id="ytick_6">
     <g id="line2d_35">
      <path d="M 573.486416 331.836477 
L 835.92 331.836477 
" clip-path="url(#p13eef4785a)" style="fill: none; stroke-dasharray: 3.7,1.6; stroke-dashoffset: 0; stroke: #b0b0b0; stroke-opacity: 0.5"/>
     </g>
     <g id="line2d_36">
      <g>
       <use xlink:href="#mb75eee9246" x="573.486416" y="331.836477" style="stroke: #000000; stroke-width: 2"/>
      </g>
     </g>
     <g id="line2d_37">
      <g>
       <use xlink:href="#mc186b81563" x="835.92" y="331.836477" style="stroke: #000000; stroke-width: 2"/>
      </g>
     </g>
     <g id="text_16">
      <!-- $\mathdefault{0}$ -->
      <g transform="translate(553.346416 341.714446) scale(0.26 -0.26)">
       <use xlink:href="#DejaVuSerif-30" transform="translate(0 0.78125)"/>
      </g>
     </g>
    </g>
    <g id="ytick_7">
     <g id="line2d_38">
      <path d="M 573.486416 287.559785 
L 835.92 287.559785 
" clip-path="url(#p13eef4785a)" style="fill: none; stroke-dasharray: 3.7,1.6; stroke-dashoffset: 0; stroke: #b0b0b0; stroke-opacity: 0.5"/>
     </g>
     <g id="line2d_39">
      <g>
       <use xlink:href="#mb75eee9246" x="573.486416" y="287.559785" style="stroke: #000000; stroke-width: 2"/>
      </g>
     </g>
     <g id="line2d_40">
      <g>
       <use xlink:href="#mc186b81563" x="835.92" y="287.559785" style="stroke: #000000; stroke-width: 2"/>
      </g>
     </g>
     <g id="text_17">
      <!-- $\mathdefault{10^{-10}}$ -->
      <g transform="translate(497.446416 297.437753) scale(0.26 -0.26)">
       <use xlink:href="#DejaVuSerif-31" transform="translate(0 0.7125)"/>
       <use xlink:href="#DejaVuSerif-30" transform="translate(63.623047 0.7125)"/>
       <use xlink:href="#DejaVuSerif-2212" transform="translate(128.154453 37.046875) scale(0.7)"/>
       <use xlink:href="#DejaVuSerif-31" transform="translate(186.806797 37.046875) scale(0.7)"/>
       <use xlink:href="#DejaVuSerif-30" transform="translate(231.34293 37.046875) scale(0.7)"/>
      </g>
     </g>
    </g>
    <g id="ytick_8">
     <g id="line2d_41">
      <path d="M 573.486416 247.710761 
L 835.92 247.710761 
" clip-path="url(#p13eef4785a)" style="fill: none; stroke-dasharray: 3.7,1.6; stroke-dashoffset: 0; stroke: #b0b0b0; stroke-opacity: 0.5"/>
     </g>
     <g id="line2d_42">
      <g>
       <use xlink:href="#mb75eee9246" x="573.486416" y="247.710761" style="stroke: #000000; stroke-width: 2"/>
      </g>
     </g>
     <g id="line2d_43">
      <g>
       <use xlink:href="#mc186b81563" x="835.92" y="247.710761" style="stroke: #000000; stroke-width: 2"/>
      </g>
     </g>
     <g id="text_18">
      <!-- $\mathdefault{10^{-9}}$ -->
      <g transform="translate(509.146416 257.58873) scale(0.26 -0.26)">
       <defs>
        <path id="DejaVuSerif-39" d="M 2994 2091 
Q 2784 1856 2512 1740 
Q 2241 1625 1900 1625 
Q 1206 1625 804 2044 
Q 403 2463 403 3188 
Q 403 3897 839 4323 
Q 1275 4750 2003 4750 
Q 2794 4750 3217 4161 
Q 3641 3572 3641 2478 
Q 3641 1253 3137 581 
Q 2634 -91 1722 -91 
Q 1475 -91 1203 -44 
Q 931 3 647 97 
L 647 872 
L 997 872 
Q 1038 556 1241 387 
Q 1444 219 1784 219 
Q 2391 219 2687 676 
Q 2984 1134 2994 2091 
z
M 1978 4441 
Q 1534 4441 1298 4117 
Q 1063 3794 1063 3188 
Q 1063 2581 1298 2256 
Q 1534 1931 1978 1931 
Q 2422 1931 2658 2245 
Q 2894 2559 2894 3150 
Q 2894 3772 2656 4106 
Q 2419 4441 1978 4441 
z
" transform="scale(0.015625)"/>
       </defs>
       <use xlink:href="#DejaVuSerif-31" transform="translate(0 0.7125)"/>
       <use xlink:href="#DejaVuSerif-30" transform="translate(63.623047 0.7125)"/>
       <use xlink:href="#DejaVuSerif-2212" transform="translate(128.154453 37.046875) scale(0.7)"/>
       <use xlink:href="#DejaVuSerif-39" transform="translate(186.806797 37.046875) scale(0.7)"/>
      </g>
     </g>
    </g>
    <g id="ytick_9">
     <g id="line2d_44">
      <path d="M 573.486416 207.861738 
L 835.92 207.861738 
" clip-path="url(#p13eef4785a)" style="fill: none; stroke-dasharray: 3.7,1.6; stroke-dashoffset: 0; stroke: #b0b0b0; stroke-opacity: 0.5"/>
     </g>
     <g id="line2d_45">
      <g>
       <use xlink:href="#mb75eee9246" x="573.486416" y="207.861738" style="stroke: #000000; stroke-width: 2"/>
      </g>
     </g>
     <g id="line2d_46">
      <g>
       <use xlink:href="#mc186b81563" x="835.92" y="207.861738" style="stroke: #000000; stroke-width: 2"/>
      </g>
     </g>
     <g id="text_19">
      <!-- $\mathdefault{10^{-8}}$ -->
      <g transform="translate(509.146416 217.739707) scale(0.26 -0.26)">
       <use xlink:href="#DejaVuSerif-31" transform="translate(0 0.7125)"/>
       <use xlink:href="#DejaVuSerif-30" transform="translate(63.623047 0.7125)"/>
       <use xlink:href="#DejaVuSerif-2212" transform="translate(128.154453 37.046875) scale(0.7)"/>
       <use xlink:href="#DejaVuSerif-38" transform="translate(186.806797 37.046875) scale(0.7)"/>
      </g>
     </g>
    </g>
    <g id="ytick_10">
     <g id="line2d_47">
      <path d="M 573.486416 168.012715 
L 835.92 168.012715 
" clip-path="url(#p13eef4785a)" style="fill: none; stroke-dasharray: 3.7,1.6; stroke-dashoffset: 0; stroke: #b0b0b0; stroke-opacity: 0.5"/>
     </g>
     <g id="line2d_48">
      <g>
       <use xlink:href="#mb75eee9246" x="573.486416" y="168.012715" style="stroke: #000000; stroke-width: 2"/>
      </g>
     </g>
     <g id="line2d_49">
      <g>
       <use xlink:href="#mc186b81563" x="835.92" y="168.012715" style="stroke: #000000; stroke-width: 2"/>
      </g>
     </g>
     <g id="text_20">
      <!-- $\mathdefault{10^{-7}}$ -->
      <g transform="translate(509.146416 177.890683) scale(0.26 -0.26)">
       <defs>
        <path id="DejaVuSerif-37" d="M 3609 4347 
L 1784 0 
L 1319 0 
L 3059 4153 
L 903 4153 
L 903 3578 
L 538 3578 
L 538 4666 
L 3609 4666 
L 3609 4347 
z
" transform="scale(0.015625)"/>
       </defs>
       <use xlink:href="#DejaVuSerif-31" transform="translate(0 0.63125)"/>
       <use xlink:href="#DejaVuSerif-30" transform="translate(63.623047 0.63125)"/>
       <use xlink:href="#DejaVuSerif-2212" transform="translate(128.154453 36.965625) scale(0.7)"/>
       <use xlink:href="#DejaVuSerif-37" transform="translate(186.806797 36.965625) scale(0.7)"/>
      </g>
     </g>
    </g>
    <g id="ytick_11">
     <g id="line2d_50">
      <path d="M 573.486416 128.163691 
L 835.92 128.163691 
" clip-path="url(#p13eef4785a)" style="fill: none; stroke-dasharray: 3.7,1.6; stroke-dashoffset: 0; stroke: #b0b0b0; stroke-opacity: 0.5"/>
     </g>
     <g id="line2d_51">
      <g>
       <use xlink:href="#mb75eee9246" x="573.486416" y="128.163691" style="stroke: #000000; stroke-width: 2"/>
      </g>
     </g>
     <g id="line2d_52">
      <g>
       <use xlink:href="#mc186b81563" x="835.92" y="128.163691" style="stroke: #000000; stroke-width: 2"/>
      </g>
     </g>
     <g id="text_21">
      <!-- $\mathdefault{10^{-6}}$ -->
      <g transform="translate(509.146416 138.04166) scale(0.26 -0.26)">
       <use xlink:href="#DejaVuSerif-31" transform="translate(0 0.7125)"/>
       <use xlink:href="#DejaVuSerif-30" transform="translate(63.623047 0.7125)"/>
       <use xlink:href="#DejaVuSerif-2212" transform="translate(128.154453 37.046875) scale(0.7)"/>
       <use xlink:href="#DejaVuSerif-36" transform="translate(186.806797 37.046875) scale(0.7)"/>
      </g>
     </g>
    </g>
    <g id="ytick_12">
     <g id="line2d_53">
      <path d="M 573.486416 88.314668 
L 835.92 88.314668 
" clip-path="url(#p13eef4785a)" style="fill: none; stroke-dasharray: 3.7,1.6; stroke-dashoffset: 0; stroke: #b0b0b0; stroke-opacity: 0.5"/>
     </g>
     <g id="line2d_54">
      <g>
       <use xlink:href="#mb75eee9246" x="573.486416" y="88.314668" style="stroke: #000000; stroke-width: 2"/>
      </g>
     </g>
     <g id="line2d_55">
      <g>
       <use xlink:href="#mc186b81563" x="835.92" y="88.314668" style="stroke: #000000; stroke-width: 2"/>
      </g>
     </g>
     <g id="text_22">
      <!-- $\mathdefault{10^{-5}}$ -->
      <g transform="translate(509.146416 98.192637) scale(0.26 -0.26)">
       <use xlink:href="#DejaVuSerif-31" transform="translate(0 0.63125)"/>
       <use xlink:href="#DejaVuSerif-30" transform="translate(63.623047 0.63125)"/>
       <use xlink:href="#DejaVuSerif-2212" transform="translate(128.154453 36.965625) scale(0.7)"/>
       <use xlink:href="#DejaVuSerif-35" transform="translate(186.806797 36.965625) scale(0.7)"/>
      </g>
     </g>
    </g>
    <g id="text_23">
     <!-- |E(t) - E(0)| / |E(0)| -->
     <g transform="translate(487.316103 321.362031) rotate(-90) scale(0.26 -0.26)">
      <defs>
       <path id="DejaVuSerif-7c" d="M 1331 4891 
L 1331 -1509 
L 825 -1509 
L 825 4891 
L 1331 4891 
z
" transform="scale(0.015625)"/>
       <path id="DejaVuSerif-45" d="M 353 0 
L 353 331 
L 947 331 
L 947 4331 
L 353 4331 
L 353 4666 
L 4109 4666 
L 4109 3628 
L 3725 3628 
L 3725 4281 
L 1581 4281 
L 1581 2719 
L 3109 2719 
L 3109 3303 
L 3494 3303 
L 3494 1753 
L 3109 1753 
L 3109 2338 
L 1581 2338 
L 1581 384 
L 3775 384 
L 3775 1038 
L 4159 1038 
L 4159 0 
L 353 0 
z
" transform="scale(0.015625)"/>
       <path id="DejaVuSerif-74" d="M 691 2988 
L 184 2988 
L 184 3322 
L 691 3322 
L 691 4353 
L 1269 4353 
L 1269 3322 
L 2350 3322 
L 2350 2988 
L 1269 2988 
L 1269 878 
Q 1269 456 1350 337 
Q 1431 219 1650 219 
Q 1875 219 1978 351 
Q 2081 484 2088 781 
L 2522 781 
Q 2497 328 2275 118 
Q 2053 -91 1600 -91 
Q 1103 -91 897 129 
Q 691 350 691 878 
L 691 2988 
z
" transform="scale(0.015625)"/>
       <path id="DejaVuSerif-2d" d="M 281 1959 
L 1881 1959 
L 1881 1472 
L 281 1472 
L 281 1959 
z
" transform="scale(0.015625)"/>
       <path id="DejaVuSerif-2f" d="M 1656 4666 
L 2156 4666 
L 500 -594 
L 0 -594 
L 1656 4666 
z
" transform="scale(0.015625)"/>
      </defs>
      <use xlink:href="#DejaVuSerif-7c"/>
      <use xlink:href="#DejaVuSerif-45" x="33.691406"/>
      <use xlink:href="#DejaVuSerif-28" x="106.689453"/>
      <use xlink:href="#DejaVuSerif-74" x="145.703125"/>
      <use xlink:href="#DejaVuSerif-29" x="185.888672"/>
      <use xlink:href="#DejaVuSerif-20" x="224.902344"/>
      <use xlink:href="#DejaVuSerif-2d" x="256.689453"/>
      <use xlink:href="#DejaVuSerif-20" x="290.478516"/>
      <use xlink:href="#DejaVuSerif-45" x="322.265625"/>
      <use xlink:href="#DejaVuSerif-28" x="395.263672"/>
      <use xlink:href="#DejaVuSerif-30" x="434.277344"/>
      <use xlink:href="#DejaVuSerif-29" x="497.900391"/>
      <use xlink:href="#DejaVuSerif-7c" x="536.914062"/>
      <use xlink:href="#DejaVuSerif-20" x="570.605469"/>
      <use xlink:href="#DejaVuSerif-2f" x="602.392578"/>
      <use xlink:href="#DejaVuSerif-20" x="636.083984"/>
      <use xlink:href="#DejaVuSerif-7c" x="667.871094"/>
      <use xlink:href="#DejaVuSerif-45" x="701.5625"/>
      <use xlink:href="#DejaVuSerif-28" x="774.560547"/>
      <use xlink:href="#DejaVuSerif-30" x="813.574219"/>
      <use xlink:href="#DejaVuSerif-29" x="877.197266"/>
      <use xlink:href="#DejaVuSerif-7c" x="916.210938"/>
     </g>
    </g>
   </g>
   <g id="line2d_56">
    <path d="M 585.415215 331.836477 
L 585.65403 91.919422 
L 585.892845 115.166166 
L 586.13166 98.174557 
L 586.370474 91.142733 
L 586.609289 125.728362 
L 586.848104 84.550187 
L 587.086919 84.430604 
L 587.325734 112.328696 
L 587.564548 90.50976 
L 587.803363 85.615055 
L 588.042178 111.424096 
L 588.519808 79.596104 
L 588.758622 97.196349 
L 589.236252 80.265907 
L 589.475067 102.82597 
L 589.713882 81.238274 
L 589.952696 92.158556 
L 590.430326 131.604839 
L 590.669141 86.05907 
L 590.907956 149.502326 
L 591.14677 97.71851 
L 591.385585 103.651343 
L 591.6244 101.289467 
L 591.863215 192.765202 
L 592.10203 97.775172 
L 592.340844 96.325943 
L 592.818474 139.360857 
L 593.057289 118.541892 
L 593.296104 118.063966 
L 593.534918 125.851431 
L 593.773733 122.441145 
L 594.012548 111.594279 
L 594.251363 88.645883 
L 594.490178 97.356528 
L 594.728992 95.43242 
L 594.967807 158.134343 
L 595.206622 93.547521 
L 595.445437 114.355111 
L 595.923066 86.536752 
L 596.161881 120.986128 
L 596.400696 83.607597 
L 596.639511 107.084148 
L 596.878326 94.374931 
L 597.11714 104.719323 
L 597.59477 87.873969 
L 597.833585 88.295137 
L 598.0724 101.2796 
L 598.311214 134.434301 
L 598.550029 98.298315 
L 599.027659 118.452762 
L 599.266474 120.869441 
L 599.505288 109.047423 
L 599.744103 90.869681 
L 599.982918 84.232335 
L 600.221733 105.764084 
L 600.460548 104.154242 
L 600.938177 79.385998 
L 601.176992 88.793201 
L 601.415807 87.363043 
L 601.654622 89.513618 
L 601.893436 96.523328 
L 602.132251 136.720201 
L 602.371066 144.586984 
L 602.609881 108.244701 
L 602.848696 113.654266 
L 603.08751 93.727293 
L 603.326325 101.742549 
L 603.56514 138.612458 
L 603.803955 100.43927 
L 604.04277 92.915155 
L 604.281584 117.738318 
L 604.520399 109.604411 
L 604.759214 112.33287 
L 604.998029 131.006351 
L 605.236844 117.910095 
L 605.475658 121.754742 
L 605.714473 172.970439 
L 605.953288 110.370342 
L 606.192103 92.665964 
L 606.430918 88.175787 
L 606.908547 89.979296 
L 607.386177 88.230395 
L 607.863806 89.918097 
L 608.102621 92.95007 
L 608.341436 121.479656 
L 608.580251 108.212202 
L 608.819066 87.531684 
L 609.05788 109.009225 
L 609.296695 110.590612 
L 609.53551 85.33151 
L 609.774325 93.671413 
L 610.01314 116.846313 
L 610.490769 90.460827 
L 610.729584 99.792925 
L 610.968399 123.346794 
L 611.207214 94.379881 
L 611.446028 86.707714 
L 611.684843 100.710705 
L 611.923658 103.753525 
L 612.162473 117.271267 
L 612.401288 98.168139 
L 612.640102 92.971992 
L 612.878917 100.16317 
L 613.117732 145.877996 
L 613.356547 103.403469 
L 613.595362 90.259168 
L 613.834176 89.030388 
L 614.072991 115.635959 
L 614.311806 117.526874 
L 614.550621 90.131961 
L 614.789436 99.066495 
L 615.02825 97.420545 
L 615.267065 84.006078 
L 615.50588 157.366563 
L 615.744695 89.09896 
L 615.98351 113.567949 
L 616.461139 90.960183 
L 616.699954 138.366365 
L 617.177584 84.118353 
L 617.416398 88.414046 
L 617.655213 110.630893 
L 617.894028 161.261656 
L 618.132843 113.198853 
L 618.371658 109.473873 
L 618.849287 87.780025 
L 619.088102 91.728915 
L 619.326917 107.528779 
L 619.565732 111.438559 
L 619.804546 98.64908 
L 620.043361 93.191001 
L 620.282176 93.759446 
L 620.520991 109.441847 
L 620.759806 113.033325 
L 620.99862 112.99809 
L 621.237435 111.411992 
L 621.47625 94.414671 
L 622.192694 80.492048 
L 622.431509 78.071085 
L 622.670324 77.778347 
L 622.909139 79.631829 
L 623.147954 84.564082 
L 623.625583 107.914201 
L 623.864398 118.971416 
L 624.342028 89.879786 
L 624.580842 84.568765 
L 624.819657 84.507428 
L 625.058472 103.699714 
L 625.297287 104.590654 
L 625.536102 116.9507 
L 625.774916 104.969974 
L 626.013731 101.434641 
L 626.252546 173.210941 
L 626.730176 98.563667 
L 626.96899 102.494259 
L 627.207805 93.638232 
L 627.44662 89.258074 
L 627.685435 166.681433 
L 628.163064 85.331347 
L 628.640694 115.194695 
L 628.879509 89.618131 
L 629.118324 98.164561 
L 629.357138 93.991193 
L 629.595953 110.634993 
L 629.834768 83.998549 
L 630.073583 93.629088 
L 630.312398 84.875437 
L 630.551212 159.277359 
L 630.790027 84.956705 
L 631.028842 136.865166 
L 631.267657 86.184705 
L 631.506472 94.188175 
L 631.745286 84.355689 
L 631.984101 116.677885 
L 632.222916 88.008603 
L 632.461731 119.443139 
L 632.700546 76.995157 
L 632.93936 98.632085 
L 633.178175 84.572705 
L 633.41699 102.937508 
L 633.89462 81.740648 
L 634.133434 106.921464 
L 634.372249 114.540289 
L 634.611064 94.215624 
L 634.849879 157.337523 
L 635.327508 103.134524 
L 635.805138 83.988032 
L 636.043953 84.135445 
L 636.282768 91.226083 
L 636.760397 122.263741 
L 637.238027 85.312932 
L 637.476842 115.927106 
L 637.715656 77.926231 
L 637.954471 125.917376 
L 638.193286 87.009575 
L 638.432101 88.001972 
L 638.670916 127.928307 
L 638.90973 78.779263 
L 639.148545 105.271271 
L 639.38736 84.975228 
L 639.626175 97.548428 
L 639.86499 124.099098 
L 640.103804 95.956456 
L 640.342619 87.767267 
L 640.581434 158.786799 
L 640.820249 78.616516 
L 641.059064 123.205247 
L 641.297878 78.593998 
L 641.536693 126.303738 
L 641.775508 80.291262 
L 642.014323 98.753652 
L 642.253138 84.723309 
L 642.730767 92.683182 
L 642.969582 85.758861 
L 643.208397 98.631314 
L 643.447212 83.713338 
L 643.686026 103.916516 
L 643.924841 83.279203 
L 644.163656 130.747087 
L 644.402471 87.265544 
L 644.641286 101.201054 
L 644.8801 135.115302 
L 645.118915 86.044719 
L 645.596545 126.454165 
L 645.83536 82.336441 
L 646.074174 99.437669 
L 646.312989 86.955122 
L 646.551804 95.807839 
L 646.790619 125.752928 
L 647.268248 84.106572 
L 647.507063 94.684387 
L 647.745878 81.296621 
L 647.984693 97.558696 
L 648.223508 102.046291 
L 648.462322 87.885417 
L 648.701137 87.549331 
L 648.939952 108.790476 
L 649.178767 76.045552 
L 649.417582 111.540898 
L 649.656396 75.637892 
L 649.895211 109.512252 
L 650.134026 77.371789 
L 650.372841 139.104418 
L 650.611656 79.339876 
L 650.85047 112.007283 
L 651.089285 81.324686 
L 651.3281 95.786363 
L 651.566915 85.883085 
L 651.80573 83.656461 
L 652.044544 110.28544 
L 652.283359 77.288784 
L 652.522174 128.252321 
L 652.760989 82.255619 
L 652.999804 101.472965 
L 653.238618 84.91796 
L 653.477433 117.464904 
L 653.716248 89.540752 
L 653.955063 173.659975 
L 654.193878 84.491369 
L 654.432692 80.974049 
L 654.671507 75.325119 
L 654.910322 73.264018 
L 655.149137 88.450506 
L 655.387952 83.731799 
L 655.626766 116.6594 
L 655.865581 74.958114 
L 656.104396 74.633078 
L 656.343211 75.547355 
L 656.582026 70.94352 
L 656.82084 83.655263 
L 657.059655 74.961344 
L 657.29847 88.517234 
L 657.537285 83.756086 
L 657.7761 73.42732 
L 658.014914 82.731153 
L 658.253729 74.012638 
L 658.492544 96.842816 
L 658.731359 92.772774 
L 658.970174 76.167729 
L 659.208988 89.020692 
L 659.447803 78.421984 
L 659.686618 97.130448 
L 659.925433 130.549633 
L 660.164248 86.6438 
L 660.403062 108.098841 
L 660.641877 86.721837 
L 660.880692 80.285922 
L 661.119507 136.501519 
L 661.358322 79.88086 
L 661.597136 86.556758 
L 661.835951 102.212478 
L 662.074766 79.839023 
L 662.313581 86.083258 
L 662.552396 88.858863 
L 662.79121 82.406004 
L 663.030025 81.17198 
L 663.26884 90.936731 
L 663.507655 76.916301 
L 663.74647 87.374758 
L 663.985284 84.64937 
L 664.224099 75.701572 
L 664.462914 108.507475 
L 664.701729 77.266156 
L 664.940544 82.048931 
L 665.179358 102.859146 
L 665.418173 76.672491 
L 665.656988 127.566964 
L 665.895803 78.692169 
L 666.134618 118.87504 
L 666.373432 83.775703 
L 666.612247 105.697334 
L 666.851062 90.84236 
L 667.089877 131.477765 
L 667.328692 85.849183 
L 667.567506 110.833447 
L 667.806321 85.448717 
L 668.045136 85.200456 
L 668.283951 84.334203 
L 668.522766 105.202196 
L 668.76158 108.619871 
L 669.000395 102.558071 
L 669.23921 104.267759 
L 669.478025 86.212813 
L 669.71684 82.002731 
L 670.194469 118.829321 
L 670.433284 83.42248 
L 670.672099 82.623211 
L 670.910914 99.331274 
L 671.149728 93.983555 
L 671.388543 79.225696 
L 671.627358 94.411286 
L 671.866173 88.085403 
L 672.104988 78.052178 
L 672.343802 101.788529 
L 672.582617 76.974005 
L 672.821432 77.989865 
L 673.060247 91.51994 
L 673.299062 73.130965 
L 673.537876 93.257558 
L 673.776691 71.982056 
L 674.015506 92.93628 
L 674.254321 74.797816 
L 674.493136 97.880267 
L 674.73195 75.655009 
L 674.970765 97.222745 
L 675.20958 74.947734 
L 675.448395 110.101645 
L 675.68721 76.415309 
L 675.926024 107.676313 
L 676.164839 78.964289 
L 676.642469 93.742771 
L 676.881284 80.758089 
L 677.120098 120.483031 
L 677.358913 79.355932 
L 677.597728 96.760523 
L 677.836543 98.911057 
L 678.075358 85.82343 
L 678.314172 103.416682 
L 678.552987 82.950899 
L 678.791802 109.76363 
L 679.030617 80.11362 
L 679.269432 84.647694 
L 679.508246 84.098261 
L 679.747061 95.094999 
L 679.985876 75.824917 
L 680.224691 124.34177 
L 680.463506 82.758074 
L 680.70232 80.642458 
L 680.941135 93.684661 
L 681.17995 84.120391 
L 681.418765 81.894839 
L 681.65758 72.961467 
L 681.896394 77.329495 
L 682.135209 70.135997 
L 682.374024 76.638457 
L 682.612839 72.98925 
L 682.851654 75.327425 
L 683.090469 91.632833 
L 683.329283 87.960212 
L 683.568098 88.900321 
L 684.045728 70.539175 
L 684.284543 75.787311 
L 684.523357 77.08044 
L 684.762172 83.403685 
L 685.000987 121.107339 
L 685.239802 109.066737 
L 685.478617 154.630992 
L 685.717431 91.857913 
L 686.195061 86.799195 
L 686.433876 75.069727 
L 686.672691 108.544314 
L 687.15032 77.633231 
L 687.389135 77.07755 
L 687.62795 83.844515 
L 687.866765 87.037457 
L 688.105579 76.675931 
L 688.344394 72.049934 
L 688.583209 95.53702 
L 689.060839 71.263144 
L 689.299653 85.257229 
L 689.538468 83.905124 
L 689.777283 72.827744 
L 690.016098 76.29835 
L 690.254913 87.478433 
L 690.493727 74.290323 
L 690.732542 74.209204 
L 690.971357 91.626487 
L 691.210172 74.211714 
L 691.448987 75.067399 
L 691.687801 100.225574 
L 691.926616 79.200188 
L 692.165431 83.662663 
L 692.404246 126.293752 
L 692.643061 82.007026 
L 692.881875 111.104946 
L 693.12069 82.788774 
L 693.359505 87.675798 
L 693.59832 87.675005 
L 693.837135 80.003313 
L 694.075949 97.245232 
L 694.314764 73.778319 
L 694.553579 85.809221 
L 695.031209 74.739681 
L 695.270023 71.515543 
L 695.508838 77.272703 
L 695.747653 88.273876 
L 695.986468 71.37082 
L 696.225283 69.707044 
L 696.464097 76.003474 
L 696.941727 80.12302 
L 697.180542 71.777785 
L 697.419357 68.825654 
L 697.658171 73.248254 
L 697.896986 70.949321 
L 698.135801 79.842945 
L 698.374616 73.764821 
L 698.613431 79.088947 
L 698.852245 72.112452 
L 699.09106 77.458413 
L 699.329875 74.595831 
L 699.56869 74.436234 
L 700.046319 84.976042 
L 700.285134 87.600416 
L 700.523949 74.746835 
L 701.001579 89.508166 
L 701.240393 75.304699 
L 701.479208 87.20879 
L 701.718023 77.317608 
L 701.956838 83.584354 
L 702.195653 78.324687 
L 702.434467 79.550134 
L 702.673282 78.976201 
L 702.912097 82.282815 
L 703.150912 73.787033 
L 703.389727 83.561526 
L 703.628541 80.264869 
L 703.867356 71.756654 
L 704.106171 81.732854 
L 704.344986 77.146433 
L 704.583801 77.492738 
L 705.06143 72.639721 
L 705.300245 83.256521 
L 705.53906 73.474781 
L 705.777875 80.01904 
L 706.016689 70.316016 
L 706.255504 75.950593 
L 706.494319 72.262689 
L 706.733134 81.986414 
L 706.971949 71.380715 
L 707.210763 78.194232 
L 707.449578 69.504637 
L 707.688393 77.530428 
L 707.927208 70.506415 
L 708.166023 77.627314 
L 708.404837 72.049155 
L 708.643652 75.687142 
L 708.882467 73.755374 
L 709.121282 73.270315 
L 709.360097 76.025953 
L 709.598911 71.859384 
L 709.837726 79.062487 
L 710.076541 71.333371 
L 710.315356 80.367522 
L 710.554171 71.642808 
L 710.792985 79.316461 
L 711.0318 72.52471 
L 711.270615 75.498499 
L 711.50943 73.50585 
L 711.748245 73.509934 
L 711.987059 77.837723 
L 712.225874 73.566957 
L 712.464689 79.5257 
L 712.703504 71.6088 
L 712.942319 80.593365 
L 713.181133 73.740624 
L 713.419948 81.724002 
L 713.658763 73.762058 
L 713.897578 77.190008 
L 714.136393 82.301519 
L 714.375207 75.344101 
L 714.852837 85.590029 
L 715.330467 77.981054 
L 715.569281 78.768908 
L 716.046911 97.808521 
L 716.524541 82.181169 
L 716.763355 80.340777 
L 717.00217 81.217966 
L 717.240985 86.794253 
L 717.4798 83.090187 
L 717.718615 81.717892 
L 717.957429 88.404853 
L 718.196244 81.153762 
L 718.435059 82.964935 
L 718.673874 87.539774 
L 718.912689 81.719172 
L 719.151503 72.721828 
L 719.390318 69.423132 
L 719.629133 71.596871 
L 719.867948 83.001577 
L 720.345577 68.035028 
L 720.584392 71.955574 
L 720.823207 90.631145 
L 721.062022 72.048265 
L 721.300837 76.445965 
L 721.539651 91.858151 
L 721.778466 78.457792 
L 722.017281 72.244011 
L 722.256096 72.576796 
L 722.733725 79.7283 
L 722.97254 79.437533 
L 723.45017 72.625049 
L 723.688985 71.962015 
L 723.927799 73.639037 
L 724.405429 79.647482 
L 724.644244 78.269603 
L 724.883059 74.169289 
L 725.121873 72.212674 
L 725.360688 71.282303 
L 725.599503 71.642727 
L 726.077133 81.926863 
L 726.554762 70.306853 
L 726.793577 71.089689 
L 727.032392 72.935846 
L 727.510021 82.512851 
L 727.748836 73.943337 
L 727.987651 72.684071 
L 728.226466 69.816227 
L 728.704095 73.806218 
L 728.94291 73.66172 
L 729.181725 77.048499 
L 729.42054 74.202829 
L 729.659355 74.745019 
L 729.898169 74.265298 
L 730.136984 71.14491 
L 730.375799 72.821349 
L 730.614614 71.702371 
L 730.853429 81.184205 
L 731.092243 80.885543 
L 731.569873 76.771018 
L 731.808688 89.767467 
L 732.047503 83.670348 
L 732.286317 87.339678 
L 732.525132 79.787696 
L 733.002762 73.972749 
L 733.241577 76.998068 
L 733.480391 76.557375 
L 733.719206 72.906738 
L 733.958021 77.82682 
L 734.196836 74.398271 
L 734.435651 81.232497 
L 734.674465 75.112597 
L 734.91328 76.767257 
L 735.152095 86.419089 
L 735.39091 72.780494 
L 735.868539 82.41919 
L 736.107354 73.978042 
L 736.346169 80.724863 
L 736.584984 73.073504 
L 736.823799 80.691041 
L 737.301428 76.749547 
L 737.540243 83.558953 
L 737.779058 75.609235 
L 738.017873 86.259896 
L 738.256687 73.516919 
L 738.495502 76.55098 
L 738.734317 68.678929 
L 738.973132 71.322803 
L 739.211947 67.207782 
L 739.450761 74.291662 
L 739.689576 71.842673 
L 739.928391 84.60167 
L 740.167206 70.518361 
L 740.406021 71.435927 
L 740.644835 65.549415 
L 740.88365 67.778898 
L 741.122465 67.722657 
L 741.36128 69.63606 
L 741.600095 73.522652 
L 741.838909 72.427321 
L 742.077724 72.623362 
L 742.316539 71.882988 
L 742.555354 68.122365 
L 742.794169 72.455558 
L 743.032983 66.897823 
L 743.271798 71.187018 
L 743.510613 67.354526 
L 743.749428 70.875486 
L 743.988243 67.380056 
L 744.227057 71.054696 
L 744.465872 71.364137 
L 744.704687 66.668113 
L 744.943502 64.921279 
L 745.421131 68.526351 
L 745.659946 65.478984 
L 745.898761 65.731847 
L 746.137576 70.534742 
L 746.376391 71.046571 
L 746.615205 69.596949 
L 746.85402 74.04692 
L 747.092835 74.240511 
L 747.33165 67.047903 
L 747.570465 67.777437 
L 748.048094 78.150119 
L 748.286909 77.071226 
L 748.525724 72.532534 
L 748.764539 76.78984 
L 749.003353 88.344356 
L 749.242168 70.632622 
L 749.480983 74.662595 
L 749.719798 90.801746 
L 749.958613 78.115672 
L 750.197427 75.831932 
L 750.436242 72.120237 
L 750.675057 88.179054 
L 750.913872 84.045855 
L 751.152687 93.558721 
L 751.391501 83.003975 
L 751.630316 91.973799 
L 751.869131 89.680827 
L 752.107946 80.874513 
L 752.346761 96.618292 
L 752.585575 87.98501 
L 752.82439 106.576895 
L 753.063205 82.664944 
L 753.30202 74.59757 
L 753.540835 80.614215 
L 753.779649 102.634961 
L 754.018464 81.009706 
L 754.257279 70.626913 
L 754.496094 67.269549 
L 754.734909 68.091604 
L 754.973723 70.552984 
L 755.212538 71.75133 
L 755.690168 77.118542 
L 756.406612 67.041763 
L 756.645427 65.33036 
L 756.884242 64.624434 
L 757.123057 65.84904 
L 757.600686 73.531484 
L 757.839501 73.166252 
L 758.078316 71.302029 
L 758.317131 71.311307 
L 758.555945 71.897951 
L 758.79476 70.993494 
L 759.033575 68.841434 
L 759.27239 68.037494 
L 759.511205 70.150044 
L 759.988834 77.106062 
L 760.227649 78.191908 
L 760.466464 86.754861 
L 760.705279 86.608572 
L 760.944093 74.432861 
L 761.182908 70.325886 
L 761.421723 75.591909 
L 761.660538 89.466883 
L 761.899353 75.868517 
L 762.138167 70.241617 
L 762.376982 72.894265 
L 762.615797 94.808024 
L 763.093427 72.32506 
L 763.332241 72.053954 
L 763.571056 100.523929 
L 763.809871 78.370789 
L 764.048686 66.808126 
L 764.526315 89.71066 
L 764.76513 68.960601 
L 765.003945 70.036391 
L 765.24276 72.548167 
L 765.481575 70.347485 
L 765.720389 76.367243 
L 765.959204 76.487655 
L 766.198019 66.875355 
L 766.436834 70.336496 
L 766.675649 71.264413 
L 766.914463 68.482096 
L 767.153278 88.431936 
L 767.392093 73.244497 
L 767.630908 75.299116 
L 767.869723 69.914808 
L 768.108537 80.857948 
L 768.347352 78.181183 
L 768.586167 70.821191 
L 768.824982 68.031989 
L 769.063797 76.094048 
L 769.302611 74.032519 
L 769.541426 77.707337 
L 769.780241 65.063711 
L 770.019056 72.491184 
L 770.257871 73.102285 
L 770.7355 76.86444 
L 770.974315 67.863962 
L 771.451945 79.002038 
L 771.690759 74.772908 
L 771.929574 88.82132 
L 772.168389 86.455916 
L 772.407204 76.688316 
L 772.646019 84.892937 
L 772.884833 70.621737 
L 773.123648 78.497893 
L 773.362463 71.348293 
L 773.601278 76.908885 
L 774.078907 67.38128 
L 774.317722 77.722972 
L 774.556537 69.231545 
L 774.795352 71.679636 
L 775.034167 70.692869 
L 775.272981 70.914724 
L 775.511796 72.990612 
L 775.750611 68.792005 
L 775.989426 77.819741 
L 776.228241 72.653039 
L 776.467055 71.392882 
L 776.70587 81.900703 
L 776.944685 67.811517 
L 777.1835 80.018966 
L 777.422315 69.610978 
L 777.661129 74.895571 
L 777.899944 71.288398 
L 778.138759 72.618477 
L 778.377574 70.718399 
L 778.616389 69.879393 
L 778.855203 73.060552 
L 779.094018 69.61044 
L 779.332833 69.258406 
L 779.571648 71.87493 
L 779.810463 70.927686 
L 780.049277 67.087007 
L 780.288092 73.809536 
L 780.765722 67.043305 
L 781.004537 75.488554 
L 781.243351 69.452218 
L 781.482166 70.426819 
L 781.720981 74.550609 
L 781.959796 71.861979 
L 782.198611 74.680593 
L 782.437425 76.0105 
L 782.67624 72.066321 
L 782.915055 83.579603 
L 783.392685 74.067638 
L 783.631499 83.378184 
L 783.870314 77.290806 
L 784.109129 76.009512 
L 784.347944 78.734704 
L 784.586759 69.563624 
L 784.825573 69.325948 
L 785.064388 70.589551 
L 785.303203 65.568243 
L 785.542018 65.330279 
L 785.780833 69.994445 
L 786.258462 67.201212 
L 786.497277 69.712289 
L 786.736092 69.153552 
L 786.974907 65.977727 
L 787.213721 66.77125 
L 787.452536 71.389033 
L 787.691351 66.927453 
L 787.930166 65.400622 
L 788.407795 71.458853 
L 788.64661 64.377832 
L 788.885425 66.283415 
L 789.12424 73.347387 
L 789.363055 65.820338 
L 789.601869 66.856328 
L 789.840684 76.560246 
L 790.079499 68.298532 
L 790.318314 69.160282 
L 790.557129 77.353523 
L 790.795943 66.664719 
L 791.034758 69.233707 
L 791.273573 74.787155 
L 791.512388 70.263241 
L 791.751203 82.534209 
L 791.990017 72.465477 
L 792.228832 71.386412 
L 792.467647 76.635323 
L 792.706462 68.246488 
L 792.945277 83.509152 
L 793.184091 70.336965 
L 793.422906 77.191524 
L 793.661721 67.551678 
L 793.900536 75.388152 
L 794.139351 66.848923 
L 794.378165 80.385421 
L 794.61698 67.425569 
L 794.855795 74.476177 
L 795.09461 67.305422 
L 795.333425 67.387795 
L 795.572239 74.708851 
L 795.811054 66.242619 
L 796.049869 77.486539 
L 796.288684 67.859337 
L 796.527499 69.859162 
L 796.766313 73.591915 
L 797.005128 65.901613 
L 797.243943 76.537326 
L 797.482758 66.660182 
L 797.721573 71.473215 
L 797.960387 73.226789 
L 798.199202 67.90273 
L 798.438017 80.062209 
L 798.676832 66.916054 
L 798.915647 72.5925 
L 799.154461 71.073924 
L 799.393276 68.656048 
L 799.632091 81.757857 
L 799.870906 67.915861 
L 800.109721 74.777426 
L 800.58735 68.234173 
L 800.826165 82.300563 
L 801.06498 69.121417 
L 801.303795 71.736073 
L 801.542609 76.690163 
L 801.781424 68.993661 
L 802.020239 74.824029 
L 802.259054 73.755293 
L 802.497869 69.138249 
L 802.736683 74.766009 
L 802.975498 74.79652 
L 803.214313 69.666106 
L 803.691943 75.252831 
L 803.930757 73.54941 
L 804.408387 71.976763 
L 804.647202 73.938365 
L 804.886017 79.618056 
L 805.124831 81.202711 
L 805.602461 79.526796 
L 806.318905 68.615011 
L 806.55772 68.217197 
L 806.796535 71.181537 
L 807.03535 79.427319 
L 807.751794 64.894816 
L 807.990609 66.113489 
L 808.468239 78.293026 
L 808.945868 65.5826 
L 809.184683 63.916023 
L 809.423498 64.461739 
L 809.662313 66.857085 
L 810.139942 74.529032 
L 810.378757 73.225198 
L 810.856387 66.813138 
L 811.334016 71.348168 
L 811.572831 66.80478 
L 811.811646 67.439542 
L 812.050461 79.396959 
L 812.289276 79.186279 
L 812.52809 67.591775 
L 812.766905 75.561106 
L 813.00572 87.615261 
L 813.244535 69.302211 
L 813.48335 74.730437 
L 813.722164 90.005396 
L 813.960979 72.228585 
L 814.199794 76.834757 
L 814.438609 74.069427 
L 814.677424 66.245688 
L 814.916238 75.476822 
L 815.393868 68.519886 
L 815.632683 74.933457 
L 815.871498 67.714226 
L 816.349127 74.884363 
L 816.587942 69.705805 
L 816.826757 70.981099 
L 817.065572 78.051344 
L 817.304386 66.123359 
L 817.543201 82.185705 
L 817.782016 68.292451 
L 818.259646 77.305291 
L 818.49846 71.541996 
L 818.737275 68.748742 
L 818.97609 88.007256 
L 819.214905 66.071646 
L 819.45372 84.233395 
L 819.692534 68.87594 
L 819.931349 78.635185 
L 820.170164 76.469712 
L 820.408979 76.71817 
L 820.647794 80.463272 
L 820.886608 76.264764 
L 821.125423 75.966295 
L 821.364238 89.594545 
L 821.603053 71.714163 
L 821.841868 79.472718 
L 822.080682 73.701823 
L 822.319497 85.477847 
L 822.558312 72.762759 
L 822.797127 78.387708 
L 823.035942 74.108592 
L 823.274756 83.368309 
L 823.513571 73.256288 
L 823.752386 70.281712 
L 823.991201 87.734626 
L 823.991201 87.734626 
" clip-path="url(#p13eef4785a)" style="fill: none; stroke: #1f77b4; stroke-width: 3; stroke-linecap: square"/>
   </g>
   <g id="patch_8">
    <path d="M 573.486416 345.2325 
L 573.486416 50.52 
" style="fill: none; stroke: #000000; stroke-width: 2; stroke-linejoin: miter; stroke-linecap: square"/>
   </g>
   <g id="patch_9">
    <path d="M 835.92 345.2325 
L 835.92 50.52 
" style="fill: none; stroke: #000000; stroke-width: 2; stroke-linejoin: miter; stroke-linecap: square"/>
   </g>
   <g id="patch_10">
    <path d="M 573.486416 345.2325 
L 835.92 345.2325 
" style="fill: none; stroke: #000000; stroke-width: 2; stroke-linejoin: miter; stroke-linecap: square"/>
   </g>
   <g id="patch_11">
    <path d="M 573.486416 50.52 
L 835.92 50.52 
" style="fill: none; stroke: #000000; stroke-width: 2; stroke-linejoin: miter; stroke-linecap: square"/>
   </g>
  </g>
 </g>
 <defs>
  <clipPath id="pe27b5ecad1">
   <rect x="177.96" y="50.52" width="262.433584" height="294.7125"/>
  </clipPath>
  <clipPath id="p13eef4785a">
   <rect x="573.486416" y="50.52" width="262.433584" height="294.7125"/>
  </clipPath>
 </defs>
</svg>
