<?xml version="1.0" encoding="utf-8" standalone="no"?>
<!DOCTYPE svg PUBLIC "-//W3C//DTD SVG 1.1//EN"
  "http://www.w3.org/Graphics/SVG/1.1/DTD/svg11.dtd">
<svg xmlns:xlink="http://www.w3.org/1999/xlink" width="720pt" height="504pt" viewBox="0 0 720 504" xmlns="http://www.w3.org/2000/svg" version="1.1">
 <metadata>
  <rdf:RDF xmlns:dc="http://purl.org/dc/elements/1.1/" xmlns:cc="http://creativecommons.org/ns#" xmlns:rdf="http://www.w3.org/1999/02/22-rdf-syntax-ns#">
   <cc:Work>
    <dc:type rdf:resource="http://purl.org/dc/dcmitype/StillImage"/>
    <dc:date>2025-06-01T12:22:02.633822</dc:date>
    <dc:format>image/svg+xml</dc:format>
    <dc:creator>
     <cc:Agent>
      <dc:title>Matplotlib v3.7.2, https://matplotlib.org/</dc:title>
     </cc:Agent>
    </dc:creator>
   </cc:Work>
  </rdf:RDF>
 </metadata>
 <defs>
  <style type="text/css">*{stroke-linejoin: round; stroke-linecap: butt}</style>
 </defs>
 <g id="figure_1">
  <g id="patch_1">
   <path d="M 0 504 
L 720 504 
L 720 0 
L 0 0 
z
" style="fill: #ffffff"/>
  </g>
  <g id="axes_1">
   <g id="patch_2">
    <path d="M 115.455 419.46 
L 691.92 419.46 
L 691.92 58.32 
L 115.455 58.32 
z
" style="fill: #ffffff"/>
   </g>
   <g id="matplotlib.axis_1">
    <g id="xtick_1">
     <g id="line2d_1">
      <path d="M 141.657955 419.46 
L 141.657955 58.32 
" clip-path="url(#p9aac7d51b1)" style="fill: none; stroke-dasharray: 3.7,1.6; stroke-dashoffset: 0; stroke: #b0b0b0"/>
     </g>
     <g id="line2d_2">
      <defs>
       <path id="m1193c13a5c" d="M 0 0 
L 0 -10 
" style="stroke: #000000; stroke-width: 2"/>
      </defs>
      <g>
       <use xlink:href="#m1193c13a5c" x="141.657955" y="419.46" style="stroke: #000000; stroke-width: 2"/>
      </g>
     </g>
     <g id="text_1">
      <!-- 0 -->
      <g transform="translate(133.386705 442.715937) scale(0.26 -0.26)">
       <defs>
        <path id="DejaVuSerif-30" d="M 2034 219 
Q 2513 219 2750 744 
Q 2988 1269 2988 2328 
Q 2988 3391 2750 3916 
Q 2513 4441 2034 4441 
Q 1556 4441 1318 3916 
Q 1081 3391 1081 2328 
Q 1081 1269 1318 744 
Q 1556 219 2034 219 
z
M 2034 -91 
Q 1275 -91 848 546 
Q 422 1184 422 2328 
Q 422 3475 848 4112 
Q 1275 4750 2034 4750 
Q 2797 4750 3222 4112 
Q 3647 3475 3647 2328 
Q 3647 1184 3222 546 
Q 2797 -91 2034 -91 
z
" transform="scale(0.015625)"/>
       </defs>
       <use xlink:href="#DejaVuSerif-30"/>
      </g>
     </g>
    </g>
    <g id="xtick_2">
     <g id="line2d_3">
      <path d="M 246.469773 419.46 
L 246.469773 58.32 
" clip-path="url(#p9aac7d51b1)" style="fill: none; stroke-dasharray: 3.7,1.6; stroke-dashoffset: 0; stroke: #b0b0b0"/>
     </g>
     <g id="line2d_4">
      <g>
       <use xlink:href="#m1193c13a5c" x="246.469773" y="419.46" style="stroke: #000000; stroke-width: 2"/>
      </g>
     </g>
     <g id="text_2">
      <!-- 10 -->
      <g transform="translate(229.927273 442.715937) scale(0.26 -0.26)">
       <defs>
        <path id="DejaVuSerif-31" d="M 909 0 
L 909 331 
L 1722 331 
L 1722 4213 
L 781 3603 
L 781 4013 
L 1919 4750 
L 2350 4750 
L 2350 331 
L 3163 331 
L 3163 0 
L 909 0 
z
" transform="scale(0.015625)"/>
       </defs>
       <use xlink:href="#DejaVuSerif-31"/>
       <use xlink:href="#DejaVuSerif-30" x="63.623047"/>
      </g>
     </g>
    </g>
    <g id="xtick_3">
     <g id="line2d_5">
      <path d="M 351.281591 419.46 
L 351.281591 58.32 
" clip-path="url(#p9aac7d51b1)" style="fill: none; stroke-dasharray: 3.7,1.6; stroke-dashoffset: 0; stroke: #b0b0b0"/>
     </g>
     <g id="line2d_6">
      <g>
       <use xlink:href="#m1193c13a5c" x="351.281591" y="419.46" style="stroke: #000000; stroke-width: 2"/>
      </g>
     </g>
     <g id="text_3">
      <!-- 20 -->
      <g transform="translate(334.739091 442.715937) scale(0.26 -0.26)">
       <defs>
        <path id="DejaVuSerif-32" d="M 819 3553 
L 469 3553 
L 469 4384 
Q 803 4563 1142 4656 
Q 1481 4750 1806 4750 
Q 2534 4750 2956 4397 
Q 3378 4044 3378 3438 
Q 3378 2753 2422 1800 
Q 2347 1728 2309 1691 
L 1131 513 
L 3078 513 
L 3078 1088 
L 3444 1088 
L 3444 0 
L 434 0 
L 434 341 
L 1850 1753 
Q 2319 2222 2519 2614 
Q 2719 3006 2719 3438 
Q 2719 3909 2473 4175 
Q 2228 4441 1797 4441 
Q 1350 4441 1106 4219 
Q 863 3997 819 3553 
z
" transform="scale(0.015625)"/>
       </defs>
       <use xlink:href="#DejaVuSerif-32"/>
       <use xlink:href="#DejaVuSerif-30" x="63.623047"/>
      </g>
     </g>
    </g>
    <g id="xtick_4">
     <g id="line2d_7">
      <path d="M 456.093409 419.46 
L 456.093409 58.32 
" clip-path="url(#p9aac7d51b1)" style="fill: none; stroke-dasharray: 3.7,1.6; stroke-dashoffset: 0; stroke: #b0b0b0"/>
     </g>
     <g id="line2d_8">
      <g>
       <use xlink:href="#m1193c13a5c" x="456.093409" y="419.46" style="stroke: #000000; stroke-width: 2"/>
      </g>
     </g>
     <g id="text_4">
      <!-- 30 -->
      <g transform="translate(439.550909 442.715937) scale(0.26 -0.26)">
       <defs>
        <path id="DejaVuSerif-33" d="M 622 4469 
Q 988 4606 1323 4678 
Q 1659 4750 1953 4750 
Q 2638 4750 3022 4454 
Q 3406 4159 3406 3634 
Q 3406 3213 3140 2930 
Q 2875 2647 2388 2547 
Q 2963 2466 3280 2130 
Q 3597 1794 3597 1259 
Q 3597 606 3158 257 
Q 2719 -91 1894 -91 
Q 1528 -91 1179 -12 
Q 831 66 488 225 
L 488 1131 
L 838 1131 
Q 869 681 1141 450 
Q 1413 219 1906 219 
Q 2384 219 2661 495 
Q 2938 772 2938 1253 
Q 2938 1803 2653 2086 
Q 2369 2369 1819 2369 
L 1522 2369 
L 1522 2688 
L 1678 2688 
Q 2225 2688 2498 2914 
Q 2772 3141 2772 3597 
Q 2772 4006 2547 4223 
Q 2322 4441 1900 4441 
Q 1478 4441 1245 4241 
Q 1013 4041 972 3647 
L 622 3647 
L 622 4469 
z
" transform="scale(0.015625)"/>
       </defs>
       <use xlink:href="#DejaVuSerif-33"/>
       <use xlink:href="#DejaVuSerif-30" x="63.623047"/>
      </g>
     </g>
    </g>
    <g id="xtick_5">
     <g id="line2d_9">
      <path d="M 560.905227 419.46 
L 560.905227 58.32 
" clip-path="url(#p9aac7d51b1)" style="fill: none; stroke-dasharray: 3.7,1.6; stroke-dashoffset: 0; stroke: #b0b0b0"/>
     </g>
     <g id="line2d_10">
      <g>
       <use xlink:href="#m1193c13a5c" x="560.905227" y="419.46" style="stroke: #000000; stroke-width: 2"/>
      </g>
     </g>
     <g id="text_5">
      <!-- 40 -->
      <g transform="translate(544.362727 442.715937) scale(0.26 -0.26)">
       <defs>
        <path id="DejaVuSerif-34" d="M 2234 1581 
L 2234 4063 
L 641 1581 
L 2234 1581 
z
M 3609 0 
L 1484 0 
L 1484 331 
L 2234 331 
L 2234 1247 
L 197 1247 
L 197 1588 
L 2241 4750 
L 2859 4750 
L 2859 1581 
L 3750 1581 
L 3750 1247 
L 2859 1247 
L 2859 331 
L 3609 331 
L 3609 0 
z
" transform="scale(0.015625)"/>
       </defs>
       <use xlink:href="#DejaVuSerif-34"/>
       <use xlink:href="#DejaVuSerif-30" x="63.623047"/>
      </g>
     </g>
    </g>
    <g id="xtick_6">
     <g id="line2d_11">
      <path d="M 665.717045 419.46 
L 665.717045 58.32 
" clip-path="url(#p9aac7d51b1)" style="fill: none; stroke-dasharray: 3.7,1.6; stroke-dashoffset: 0; stroke: #b0b0b0"/>
     </g>
     <g id="line2d_12">
      <g>
       <use xlink:href="#m1193c13a5c" x="665.717045" y="419.46" style="stroke: #000000; stroke-width: 2"/>
      </g>
     </g>
     <g id="text_6">
      <!-- 50 -->
      <g transform="translate(649.174545 442.715937) scale(0.26 -0.26)">
       <defs>
        <path id="DejaVuSerif-35" d="M 3219 4666 
L 3219 4153 
L 1081 4153 
L 1081 2816 
Q 1244 2928 1461 2984 
Q 1678 3041 1947 3041 
Q 2703 3041 3140 2622 
Q 3578 2203 3578 1478 
Q 3578 738 3136 323 
Q 2694 -91 1894 -91 
Q 1572 -91 1234 -12 
Q 897 66 544 225 
L 544 1131 
L 897 1131 
Q 925 688 1179 453 
Q 1434 219 1894 219 
Q 2388 219 2653 544 
Q 2919 869 2919 1478 
Q 2919 2084 2655 2407 
Q 2391 2731 1894 2731 
Q 1613 2731 1398 2631 
Q 1184 2531 1019 2322 
L 750 2322 
L 750 4666 
L 3219 4666 
z
" transform="scale(0.015625)"/>
       </defs>
       <use xlink:href="#DejaVuSerif-35"/>
       <use xlink:href="#DejaVuSerif-30" x="63.623047"/>
      </g>
     </g>
    </g>
    <g id="text_7">
     <!-- Time (a.u.) -->
     <g transform="translate(332.173281 471.879062) scale(0.26 -0.26)">
      <defs>
       <path id="DejaVuSerif-54" d="M 1222 0 
L 1222 331 
L 1819 331 
L 1819 4294 
L 447 4294 
L 447 3566 
L 63 3566 
L 63 4666 
L 4206 4666 
L 4206 3566 
L 3822 3566 
L 3822 4294 
L 2450 4294 
L 2450 331 
L 3047 331 
L 3047 0 
L 1222 0 
z
" transform="scale(0.015625)"/>
       <path id="DejaVuSerif-69" d="M 622 4353 
Q 622 4497 726 4603 
Q 831 4709 978 4709 
Q 1122 4709 1226 4603 
Q 1331 4497 1331 4353 
Q 1331 4206 1228 4103 
Q 1125 4000 978 4000 
Q 831 4000 726 4103 
Q 622 4206 622 4353 
z
M 1356 331 
L 1900 331 
L 1900 0 
L 231 0 
L 231 331 
L 781 331 
L 781 2988 
L 231 2988 
L 231 3322 
L 1356 3322 
L 1356 331 
z
" transform="scale(0.015625)"/>
       <path id="DejaVuSerif-6d" d="M 3316 2675 
Q 3481 3041 3739 3227 
Q 3997 3413 4341 3413 
Q 4863 3413 5119 3089 
Q 5375 2766 5375 2113 
L 5375 331 
L 5894 331 
L 5894 0 
L 4300 0 
L 4300 331 
L 4800 331 
L 4800 2047 
Q 4800 2556 4650 2772 
Q 4500 2988 4153 2988 
Q 3769 2988 3567 2697 
Q 3366 2406 3366 1850 
L 3366 331 
L 3866 331 
L 3866 0 
L 2291 0 
L 2291 331 
L 2791 331 
L 2791 2069 
Q 2791 2566 2641 2777 
Q 2491 2988 2144 2988 
Q 1759 2988 1557 2697 
Q 1356 2406 1356 1850 
L 1356 331 
L 1856 331 
L 1856 0 
L 263 0 
L 263 331 
L 781 331 
L 781 2994 
L 231 2994 
L 231 3322 
L 1356 3322 
L 1356 2731 
Q 1516 3063 1762 3238 
Q 2009 3413 2322 3413 
Q 2709 3413 2968 3220 
Q 3228 3028 3316 2675 
z
" transform="scale(0.015625)"/>
       <path id="DejaVuSerif-65" d="M 3469 1600 
L 991 1600 
L 991 1575 
Q 991 903 1244 561 
Q 1497 219 1991 219 
Q 2369 219 2611 417 
Q 2853 616 2950 1006 
L 3413 1006 
Q 3275 459 2904 184 
Q 2534 -91 1931 -91 
Q 1203 -91 761 389 
Q 319 869 319 1663 
Q 319 2450 753 2931 
Q 1188 3413 1894 3413 
Q 2647 3413 3050 2948 
Q 3453 2484 3469 1600 
z
M 2791 1931 
Q 2772 2513 2545 2808 
Q 2319 3103 1894 3103 
Q 1497 3103 1269 2806 
Q 1041 2509 991 1931 
L 2791 1931 
z
" transform="scale(0.015625)"/>
       <path id="DejaVuSerif-20" transform="scale(0.015625)"/>
       <path id="DejaVuSerif-28" d="M 2041 -997 
Q 1281 -656 893 83 
Q 506 822 506 1931 
Q 506 3044 893 3783 
Q 1281 4522 2041 4863 
L 2041 4556 
Q 1559 4225 1350 3623 
Q 1141 3022 1141 1931 
Q 1141 844 1350 242 
Q 1559 -359 2041 -691 
L 2041 -997 
z
" transform="scale(0.015625)"/>
       <path id="DejaVuSerif-61" d="M 2547 1044 
L 2547 1747 
L 1806 1747 
Q 1378 1747 1168 1562 
Q 959 1378 959 997 
Q 959 650 1171 447 
Q 1384 244 1747 244 
Q 2106 244 2326 466 
Q 2547 688 2547 1044 
z
M 3122 2075 
L 3122 331 
L 3634 331 
L 3634 0 
L 2547 0 
L 2547 359 
Q 2356 128 2106 18 
Q 1856 -91 1522 -91 
Q 969 -91 644 203 
Q 319 497 319 997 
Q 319 1513 691 1797 
Q 1063 2081 1741 2081 
L 2547 2081 
L 2547 2309 
Q 2547 2688 2317 2895 
Q 2088 3103 1672 3103 
Q 1328 3103 1125 2947 
Q 922 2791 872 2484 
L 575 2484 
L 575 3156 
Q 875 3284 1158 3348 
Q 1441 3413 1709 3413 
Q 2400 3413 2761 3070 
Q 3122 2728 3122 2075 
z
" transform="scale(0.015625)"/>
       <path id="DejaVuSerif-2e" d="M 603 325 
Q 603 500 722 622 
Q 841 744 1019 744 
Q 1191 744 1312 622 
Q 1434 500 1434 325 
Q 1434 153 1312 31 
Q 1191 -91 1019 -91 
Q 841 -91 722 29 
Q 603 150 603 325 
z
" transform="scale(0.015625)"/>
       <path id="DejaVuSerif-75" d="M 2266 3322 
L 3341 3322 
L 3341 331 
L 3884 331 
L 3884 0 
L 2766 0 
L 2766 588 
Q 2606 256 2353 82 
Q 2100 -91 1766 -91 
Q 1213 -91 952 223 
Q 691 538 691 1209 
L 691 2988 
L 172 2988 
L 172 3322 
L 1269 3322 
L 1269 1388 
Q 1269 781 1417 556 
Q 1566 331 1947 331 
Q 2347 331 2556 625 
Q 2766 919 2766 1478 
L 2766 2988 
L 2266 2988 
L 2266 3322 
z
" transform="scale(0.015625)"/>
       <path id="DejaVuSerif-29" d="M 453 -997 
L 453 -691 
Q 934 -359 1145 242 
Q 1356 844 1356 1931 
Q 1356 3022 1145 3623 
Q 934 4225 453 4556 
L 453 4863 
Q 1216 4522 1603 3783 
Q 1991 3044 1991 1931 
Q 1991 822 1603 83 
Q 1216 -656 453 -997 
z
" transform="scale(0.015625)"/>
      </defs>
      <use xlink:href="#DejaVuSerif-54"/>
      <use xlink:href="#DejaVuSerif-69" x="66.699219"/>
      <use xlink:href="#DejaVuSerif-6d" x="98.681641"/>
      <use xlink:href="#DejaVuSerif-65" x="193.505859"/>
      <use xlink:href="#DejaVuSerif-20" x="252.685547"/>
      <use xlink:href="#DejaVuSerif-28" x="284.472656"/>
      <use xlink:href="#DejaVuSerif-61" x="323.486328"/>
      <use xlink:href="#DejaVuSerif-2e" x="383.105469"/>
      <use xlink:href="#DejaVuSerif-75" x="414.892578"/>
      <use xlink:href="#DejaVuSerif-2e" x="479.296875"/>
      <use xlink:href="#DejaVuSerif-29" x="511.083984"/>
     </g>
    </g>
   </g>
   <g id="matplotlib.axis_2">
    <g id="ytick_1">
     <g id="line2d_13">
      <path d="M 115.455 414.939479 
L 691.92 414.939479 
" clip-path="url(#p9aac7d51b1)" style="fill: none; stroke-dasharray: 3.7,1.6; stroke-dashoffset: 0; stroke: #b0b0b0"/>
     </g>
     <g id="line2d_14">
      <defs>
       <path id="m2962fac0f4" d="M 0 0 
L 10 0 
" style="stroke: #000000; stroke-width: 2"/>
      </defs>
      <g>
       <use xlink:href="#m2962fac0f4" x="115.455" y="414.939479" style="stroke: #000000; stroke-width: 2"/>
      </g>
     </g>
     <g id="text_8">
      <!-- −20 -->
      <g transform="translate(57.082813 424.817448) scale(0.26 -0.26)">
       <defs>
        <path id="DejaVuSerif-2212" d="M 678 2259 
L 4684 2259 
L 4684 1753 
L 678 1753 
L 678 2259 
z
" transform="scale(0.015625)"/>
       </defs>
       <use xlink:href="#DejaVuSerif-2212"/>
       <use xlink:href="#DejaVuSerif-32" x="83.789062"/>
       <use xlink:href="#DejaVuSerif-30" x="147.412109"/>
      </g>
     </g>
    </g>
    <g id="ytick_2">
     <g id="line2d_15">
      <path d="M 115.455 353.258621 
L 691.92 353.258621 
" clip-path="url(#p9aac7d51b1)" style="fill: none; stroke-dasharray: 3.7,1.6; stroke-dashoffset: 0; stroke: #b0b0b0"/>
     </g>
     <g id="line2d_16">
      <g>
       <use xlink:href="#m2962fac0f4" x="115.455" y="353.258621" style="stroke: #000000; stroke-width: 2"/>
      </g>
     </g>
     <g id="text_9">
      <!-- −15 -->
      <g transform="translate(57.082813 363.13659) scale(0.26 -0.26)">
       <use xlink:href="#DejaVuSerif-2212"/>
       <use xlink:href="#DejaVuSerif-31" x="83.789062"/>
       <use xlink:href="#DejaVuSerif-35" x="147.412109"/>
      </g>
     </g>
    </g>
    <g id="ytick_3">
     <g id="line2d_17">
      <path d="M 115.455 291.577763 
L 691.92 291.577763 
" clip-path="url(#p9aac7d51b1)" style="fill: none; stroke-dasharray: 3.7,1.6; stroke-dashoffset: 0; stroke: #b0b0b0"/>
     </g>
     <g id="line2d_18">
      <g>
       <use xlink:href="#m2962fac0f4" x="115.455" y="291.577763" style="stroke: #000000; stroke-width: 2"/>
      </g>
     </g>
     <g id="text_10">
      <!-- −10 -->
      <g transform="translate(57.082813 301.455732) scale(0.26 -0.26)">
       <use xlink:href="#DejaVuSerif-2212"/>
       <use xlink:href="#DejaVuSerif-31" x="83.789062"/>
       <use xlink:href="#DejaVuSerif-30" x="147.412109"/>
      </g>
     </g>
    </g>
    <g id="ytick_4">
     <g id="line2d_19">
      <path d="M 115.455 229.896905 
L 691.92 229.896905 
" clip-path="url(#p9aac7d51b1)" style="fill: none; stroke-dasharray: 3.7,1.6; stroke-dashoffset: 0; stroke: #b0b0b0"/>
     </g>
     <g id="line2d_20">
      <g>
       <use xlink:href="#m2962fac0f4" x="115.455" y="229.896905" style="stroke: #000000; stroke-width: 2"/>
      </g>
     </g>
     <g id="text_11">
      <!-- −5 -->
      <g transform="translate(73.625313 239.774874) scale(0.26 -0.26)">
       <use xlink:href="#DejaVuSerif-2212"/>
       <use xlink:href="#DejaVuSerif-35" x="83.789062"/>
      </g>
     </g>
    </g>
    <g id="ytick_5">
     <g id="line2d_21">
      <path d="M 115.455 168.216047 
L 691.92 168.216047 
" clip-path="url(#p9aac7d51b1)" style="fill: none; stroke-dasharray: 3.7,1.6; stroke-dashoffset: 0; stroke: #b0b0b0"/>
     </g>
     <g id="line2d_22">
      <g>
       <use xlink:href="#m2962fac0f4" x="115.455" y="168.216047" style="stroke: #000000; stroke-width: 2"/>
      </g>
     </g>
     <g id="text_12">
      <!-- 0 -->
      <g transform="translate(95.4125 178.094015) scale(0.26 -0.26)">
       <use xlink:href="#DejaVuSerif-30"/>
      </g>
     </g>
    </g>
    <g id="ytick_6">
     <g id="line2d_23">
      <path d="M 115.455 106.535189 
L 691.92 106.535189 
" clip-path="url(#p9aac7d51b1)" style="fill: none; stroke-dasharray: 3.7,1.6; stroke-dashoffset: 0; stroke: #b0b0b0"/>
     </g>
     <g id="line2d_24">
      <g>
       <use xlink:href="#m2962fac0f4" x="115.455" y="106.535189" style="stroke: #000000; stroke-width: 2"/>
      </g>
     </g>
     <g id="text_13">
      <!-- 5 -->
      <g transform="translate(95.4125 116.413157) scale(0.26 -0.26)">
       <use xlink:href="#DejaVuSerif-35"/>
      </g>
     </g>
    </g>
    <g id="text_14">
     <!-- Energy Components (a.u.) -->
     <g transform="translate(47.305937 411.706719) rotate(-90) scale(0.26 -0.26)">
      <defs>
       <path id="DejaVuSerif-45" d="M 353 0 
L 353 331 
L 947 331 
L 947 4331 
L 353 4331 
L 353 4666 
L 4109 4666 
L 4109 3628 
L 3725 3628 
L 3725 4281 
L 1581 4281 
L 1581 2719 
L 3109 2719 
L 3109 3303 
L 3494 3303 
L 3494 1753 
L 3109 1753 
L 3109 2338 
L 1581 2338 
L 1581 384 
L 3775 384 
L 3775 1038 
L 4159 1038 
L 4159 0 
L 353 0 
z
" transform="scale(0.015625)"/>
       <path id="DejaVuSerif-6e" d="M 263 0 
L 263 331 
L 781 331 
L 781 2988 
L 231 2988 
L 231 3322 
L 1356 3322 
L 1356 2731 
Q 1516 3069 1770 3241 
Q 2025 3413 2363 3413 
Q 2913 3413 3172 3097 
Q 3431 2781 3431 2113 
L 3431 331 
L 3944 331 
L 3944 0 
L 2356 0 
L 2356 331 
L 2853 331 
L 2853 1931 
Q 2853 2541 2703 2767 
Q 2553 2994 2175 2994 
Q 1775 2994 1565 2701 
Q 1356 2409 1356 1850 
L 1356 331 
L 1856 331 
L 1856 0 
L 263 0 
z
" transform="scale(0.015625)"/>
       <path id="DejaVuSerif-72" d="M 3059 3328 
L 3059 2497 
L 2728 2497 
Q 2713 2744 2591 2866 
Q 2469 2988 2234 2988 
Q 1809 2988 1582 2694 
Q 1356 2400 1356 1850 
L 1356 331 
L 2022 331 
L 2022 0 
L 263 0 
L 263 331 
L 781 331 
L 781 2994 
L 231 2994 
L 231 3322 
L 1356 3322 
L 1356 2731 
Q 1525 3078 1790 3245 
Q 2056 3413 2438 3413 
Q 2578 3413 2733 3391 
Q 2888 3369 3059 3328 
z
" transform="scale(0.015625)"/>
       <path id="DejaVuSerif-67" d="M 3359 2988 
L 3359 72 
Q 3359 -644 2965 -1033 
Q 2572 -1422 1844 -1422 
Q 1516 -1422 1216 -1362 
Q 916 -1303 641 -1184 
L 641 -488 
L 941 -488 
Q 997 -813 1206 -963 
Q 1416 -1113 1806 -1113 
Q 2313 -1113 2548 -827 
Q 2784 -541 2784 72 
L 2784 519 
Q 2616 206 2355 57 
Q 2094 -91 1709 -91 
Q 1097 -91 708 395 
Q 319 881 319 1663 
Q 319 2444 706 2928 
Q 1094 3413 1709 3413 
Q 2094 3413 2355 3264 
Q 2616 3116 2784 2803 
L 2784 3322 
L 3909 3322 
L 3909 2988 
L 3359 2988 
z
M 2784 1825 
Q 2784 2422 2554 2737 
Q 2325 3053 1888 3053 
Q 1444 3053 1217 2703 
Q 991 2353 991 1663 
Q 991 975 1217 622 
Q 1444 269 1888 269 
Q 2325 269 2554 583 
Q 2784 897 2784 1497 
L 2784 1825 
z
" transform="scale(0.015625)"/>
       <path id="DejaVuSerif-79" d="M 1381 -609 
L 1600 -56 
L 359 2988 
L -19 2988 
L -19 3322 
L 1509 3322 
L 1509 2988 
L 978 2988 
L 1913 703 
L 2847 2988 
L 2350 2988 
L 2350 3322 
L 3597 3322 
L 3597 2988 
L 3225 2988 
L 1703 -750 
Q 1547 -1138 1356 -1280 
Q 1166 -1422 819 -1422 
Q 672 -1422 517 -1397 
Q 363 -1372 206 -1325 
L 206 -691 
L 500 -691 
Q 519 -903 608 -995 
Q 697 -1088 884 -1088 
Q 1056 -1088 1161 -992 
Q 1266 -897 1381 -609 
z
" transform="scale(0.015625)"/>
       <path id="DejaVuSerif-43" d="M 4513 1234 
Q 4306 581 3820 245 
Q 3334 -91 2591 -91 
Q 2134 -91 1743 65 
Q 1353 222 1050 525 
Q 700 875 529 1320 
Q 359 1766 359 2328 
Q 359 3416 987 4083 
Q 1616 4750 2644 4750 
Q 3025 4750 3456 4650 
Q 3888 4550 4384 4347 
L 4384 3272 
L 4031 3272 
Q 3916 3859 3567 4137 
Q 3219 4416 2591 4416 
Q 1844 4416 1459 3886 
Q 1075 3356 1075 2328 
Q 1075 1303 1459 773 
Q 1844 244 2591 244 
Q 3113 244 3450 492 
Q 3788 741 3938 1234 
L 4513 1234 
z
" transform="scale(0.015625)"/>
       <path id="DejaVuSerif-6f" d="M 1925 219 
Q 2388 219 2623 584 
Q 2859 950 2859 1663 
Q 2859 2375 2623 2739 
Q 2388 3103 1925 3103 
Q 1463 3103 1227 2739 
Q 991 2375 991 1663 
Q 991 950 1228 584 
Q 1466 219 1925 219 
z
M 1925 -91 
Q 1200 -91 759 389 
Q 319 869 319 1663 
Q 319 2456 758 2934 
Q 1197 3413 1925 3413 
Q 2653 3413 3092 2934 
Q 3531 2456 3531 1663 
Q 3531 869 3092 389 
Q 2653 -91 1925 -91 
z
" transform="scale(0.015625)"/>
       <path id="DejaVuSerif-70" d="M 1313 1825 
L 1313 1497 
Q 1313 897 1542 583 
Q 1772 269 2209 269 
Q 2650 269 2876 622 
Q 3103 975 3103 1663 
Q 3103 2353 2876 2703 
Q 2650 3053 2209 3053 
Q 1772 3053 1542 2737 
Q 1313 2422 1313 1825 
z
M 738 2988 
L 184 2988 
L 184 3322 
L 1313 3322 
L 1313 2803 
Q 1481 3116 1742 3264 
Q 2003 3413 2388 3413 
Q 3000 3413 3387 2928 
Q 3775 2444 3775 1663 
Q 3775 881 3387 395 
Q 3000 -91 2388 -91 
Q 2003 -91 1742 57 
Q 1481 206 1313 519 
L 1313 -997 
L 1856 -997 
L 1856 -1331 
L 184 -1331 
L 184 -997 
L 738 -997 
L 738 2988 
z
" transform="scale(0.015625)"/>
       <path id="DejaVuSerif-74" d="M 691 2988 
L 184 2988 
L 184 3322 
L 691 3322 
L 691 4353 
L 1269 4353 
L 1269 3322 
L 2350 3322 
L 2350 2988 
L 1269 2988 
L 1269 878 
Q 1269 456 1350 337 
Q 1431 219 1650 219 
Q 1875 219 1978 351 
Q 2081 484 2088 781 
L 2522 781 
Q 2497 328 2275 118 
Q 2053 -91 1600 -91 
Q 1103 -91 897 129 
Q 691 350 691 878 
L 691 2988 
z
" transform="scale(0.015625)"/>
       <path id="DejaVuSerif-73" d="M 359 184 
L 359 959 
L 691 959 
Q 703 588 923 403 
Q 1144 219 1575 219 
Q 1963 219 2166 364 
Q 2369 509 2369 788 
Q 2369 1006 2220 1140 
Q 2072 1275 1594 1428 
L 1178 1569 
Q 750 1706 558 1912 
Q 366 2119 366 2438 
Q 366 2894 700 3153 
Q 1034 3413 1625 3413 
Q 1888 3413 2178 3344 
Q 2469 3275 2778 3144 
L 2778 2419 
L 2447 2419 
Q 2434 2741 2221 2922 
Q 2009 3103 1644 3103 
Q 1281 3103 1095 2975 
Q 909 2847 909 2591 
Q 909 2381 1050 2254 
Q 1191 2128 1613 1997 
L 2069 1856 
Q 2541 1709 2748 1489 
Q 2956 1269 2956 922 
Q 2956 450 2595 179 
Q 2234 -91 1600 -91 
Q 1278 -91 972 -22 
Q 666 47 359 184 
z
" transform="scale(0.015625)"/>
      </defs>
      <use xlink:href="#DejaVuSerif-45"/>
      <use xlink:href="#DejaVuSerif-6e" x="72.998047"/>
      <use xlink:href="#DejaVuSerif-65" x="137.402344"/>
      <use xlink:href="#DejaVuSerif-72" x="196.582031"/>
      <use xlink:href="#DejaVuSerif-67" x="244.384766"/>
      <use xlink:href="#DejaVuSerif-79" x="308.398438"/>
      <use xlink:href="#DejaVuSerif-20" x="364.892578"/>
      <use xlink:href="#DejaVuSerif-43" x="396.679688"/>
      <use xlink:href="#DejaVuSerif-6f" x="473.193359"/>
      <use xlink:href="#DejaVuSerif-6d" x="533.398438"/>
      <use xlink:href="#DejaVuSerif-70" x="628.222656"/>
      <use xlink:href="#DejaVuSerif-6f" x="692.236328"/>
      <use xlink:href="#DejaVuSerif-6e" x="752.441406"/>
      <use xlink:href="#DejaVuSerif-65" x="816.845703"/>
      <use xlink:href="#DejaVuSerif-6e" x="876.025391"/>
      <use xlink:href="#DejaVuSerif-74" x="940.429688"/>
      <use xlink:href="#DejaVuSerif-73" x="980.615234"/>
      <use xlink:href="#DejaVuSerif-20" x="1031.933594"/>
      <use xlink:href="#DejaVuSerif-28" x="1063.720703"/>
      <use xlink:href="#DejaVuSerif-61" x="1102.734375"/>
      <use xlink:href="#DejaVuSerif-2e" x="1162.353516"/>
      <use xlink:href="#DejaVuSerif-75" x="1194.140625"/>
      <use xlink:href="#DejaVuSerif-2e" x="1258.544922"/>
      <use xlink:href="#DejaVuSerif-29" x="1290.332031"/>
     </g>
    </g>
   </g>
   <g id="line2d_25">
    <path d="M 141.657955 77.912457 
L 146.951481 77.701567 
L 152.245007 78.064335 
L 157.538533 77.870595 
L 162.832059 77.938848 
L 168.125585 78.069924 
L 173.419112 78.813726 
L 178.712638 78.704572 
L 184.006164 78.16808 
L 189.29969 78.830788 
L 194.593216 78.555458 
L 199.886742 77.338326 
L 205.180269 77.395094 
L 210.473795 78.386985 
L 215.767321 79.337508 
L 221.060847 79.318807 
L 226.354373 78.312034 
L 231.647899 77.934848 
L 236.941426 78.891085 
L 242.234952 80.005444 
L 247.528478 79.223779 
L 252.822004 79.441616 
L 258.11553 79.987237 
L 263.409056 78.856437 
L 268.702583 78.218262 
L 273.996109 78.283075 
L 279.289635 78.628269 
L 284.583161 78.425143 
L 289.876687 78.762162 
L 295.170213 78.569006 
L 300.46374 79.235035 
L 305.757266 80.077065 
L 311.050792 79.886546 
L 316.344318 79.516642 
L 321.637844 79.404864 
L 326.931371 79.788859 
L 332.224897 78.750574 
L 337.518423 77.343754 
L 342.811949 77.811181 
L 348.105475 77.541458 
L 353.399001 78.343571 
L 358.692528 78.71456 
L 363.986054 79.32131 
L 369.27958 77.877004 
L 374.573106 76.468783 
L 379.866632 76.956465 
L 385.160158 78.309587 
L 390.453685 79.609662 
L 395.747211 79.532584 
L 401.040737 78.551891 
L 406.334263 76.458659 
L 411.627789 77.48085 
L 416.921315 76.217109 
L 422.214842 78.319625 
L 427.508368 76.381612 
L 432.801894 77.478254 
L 438.09542 76.809908 
L 443.388946 76.491528 
L 448.682472 75.383605 
L 453.975999 76.135352 
L 459.269525 77.1419 
L 464.563051 77.096188 
L 469.856577 76.16407 
L 475.150103 75.981166 
L 480.443629 76.400404 
L 485.737156 76.698869 
L 491.030682 78.313207 
L 496.324208 77.792906 
L 501.617734 78.179848 
L 506.91126 78.722484 
L 512.204787 78.433896 
L 517.498313 78.029403 
L 522.791839 77.340673 
L 528.085365 77.40662 
L 533.378891 77.117648 
L 538.672417 75.553986 
L 543.965944 75.256517 
L 549.25947 74.735455 
L 554.552996 76.053273 
L 559.846522 76.690376 
L 565.140048 76.482916 
L 570.433574 76.553064 
L 575.727101 77.664169 
L 581.020627 77.979026 
L 586.314153 78.164414 
L 591.607679 78.908155 
L 596.901205 78.679108 
L 602.194731 76.775545 
L 607.488258 78.147709 
L 612.781784 77.87119 
L 618.07531 76.717779 
L 623.368836 77.097003 
L 628.662362 77.055256 
L 633.955888 77.350344 
L 639.249415 76.54435 
L 644.542941 76.132759 
L 649.836467 76.80517 
L 655.129993 77.523016 
L 660.423519 78.265359 
L 665.717045 79.106276 
" clip-path="url(#p9aac7d51b1)" style="fill: none; stroke: #1f77b4; stroke-width: 3; stroke-linecap: square"/>
   </g>
   <g id="line2d_26">
    <path d="M 141.657955 400.206763 
L 146.951481 399.674484 
L 152.245007 398.600618 
L 157.538533 398.992567 
L 162.832059 399.434175 
L 168.125585 399.836821 
L 173.419112 398.740242 
L 178.712638 397.819516 
L 184.006164 398.672076 
L 189.29969 398.867878 
L 194.593216 399.299104 
L 199.886742 399.800106 
L 205.180269 399.35324 
L 210.473795 398.968015 
L 215.767321 398.091227 
L 221.060847 398.083907 
L 226.354373 398.616261 
L 231.647899 398.598108 
L 236.941426 397.899368 
L 242.234952 396.21083 
L 247.528478 396.857401 
L 252.822004 397.316501 
L 258.11553 396.880426 
L 263.409056 397.793702 
L 268.702583 398.182326 
L 273.996109 397.846747 
L 279.289635 397.587937 
L 284.583161 398.294888 
L 289.876687 398.026549 
L 295.170213 397.708604 
L 300.46374 397.257643 
L 305.757266 396.812781 
L 311.050792 396.853759 
L 316.344318 397.222369 
L 321.637844 397.34795 
L 326.931371 397.143861 
L 332.224897 398.012383 
L 337.518423 399.913062 
L 342.811949 399.885389 
L 348.105475 400.057345 
L 353.399001 398.81031 
L 358.692528 398.916723 
L 363.986054 397.654094 
L 369.27958 399.423031 
L 374.573106 401.079247 
L 379.866632 401.377 
L 385.160158 399.585897 
L 390.453685 398.029362 
L 395.747211 397.396687 
L 401.040737 398.616167 
L 406.334263 400.977123 
L 411.627789 400.825762 
L 416.921315 401.357283 
L 422.214842 399.515729 
L 427.508368 400.879433 
L 432.801894 400.106694 
L 438.09542 400.492759 
L 443.388946 401.022886 
L 448.682472 402.410745 
L 453.975999 401.941308 
L 459.269525 400.772008 
L 464.563051 400.441314 
L 469.856577 401.196425 
L 475.150103 401.320194 
L 480.443629 400.827207 
L 485.737156 400.704633 
L 491.030682 398.686683 
L 496.324208 399.123573 
L 501.617734 399.046578 
L 506.91126 398.616147 
L 512.204787 398.951578 
L 517.498313 399.351391 
L 522.791839 400.069195 
L 528.085365 400.151425 
L 533.378891 400.761024 
L 538.672417 402.640273 
L 543.965944 402.858235 
L 549.25947 403.044545 
L 554.552996 401.351338 
L 559.846522 401.075617 
L 565.140048 400.934344 
L 570.433574 401.333279 
L 575.727101 400.012518 
L 581.020627 398.943084 
L 586.314153 398.651519 
L 591.607679 397.965027 
L 596.901205 398.527626 
L 602.194731 400.68498 
L 607.488258 398.831118 
L 612.781784 399.97079 
L 618.07531 401.621048 
L 623.368836 400.675948 
L 628.662362 400.738351 
L 633.955888 400.775219 
L 639.249415 401.872057 
L 644.542941 401.960144 
L 649.836467 400.520486 
L 655.129993 399.214354 
L 660.423519 398.254539 
L 665.717045 397.318108 
" clip-path="url(#p9aac7d51b1)" style="fill: none; stroke: #ff7f0e; stroke-width: 3; stroke-linecap: square"/>
   </g>
   <g id="line2d_27">
    <path d="M 141.657955 134.48093 
L 146.951481 134.694479 
L 152.245007 135.248584 
L 157.538533 135.383103 
L 162.832059 135.162126 
L 168.125585 134.787122 
L 173.419112 134.972293 
L 178.712638 135.47913 
L 184.006164 135.508245 
L 189.29969 135.193615 
L 194.593216 134.806808 
L 199.886742 134.993228 
L 205.180269 135.416482 
L 210.473795 135.496968 
L 215.767321 135.416723 
L 221.060847 135.228352 
L 226.354373 135.155246 
L 231.647899 135.474365 
L 236.941426 135.845321 
L 242.234952 136.046488 
L 247.528478 135.952522 
L 252.822004 135.791179 
L 258.11553 135.712259 
L 263.409056 135.633967 
L 268.702583 135.740462 
L 273.996109 135.875342 
L 279.289635 135.921162 
L 284.583161 135.846008 
L 289.876687 135.834683 
L 295.170213 135.795445 
L 300.46374 135.760332 
L 305.757266 135.764573 
L 311.050792 135.764826 
L 316.344318 135.764535 
L 321.637844 135.744298 
L 326.931371 135.667627 
L 332.224897 135.405931 
L 337.518423 135.020901 
L 342.811949 134.915233 
L 348.105475 134.935656 
L 353.399001 135.144513 
L 358.692528 135.210694 
L 363.986054 135.268539 
L 369.27958 134.903616 
L 374.573106 134.511464 
L 379.866632 134.4464 
L 385.160158 134.802876 
L 390.453685 135.121496 
L 395.747211 135.202141 
L 401.040737 134.960623 
L 406.334263 134.573407 
L 411.627789 134.540976 
L 416.921315 134.60844 
L 422.214842 134.902497 
L 427.508368 134.907325 
L 432.801894 135.065634 
L 438.09542 135.084737 
L 443.388946 135.04273 
L 448.682472 134.899903 
L 453.975999 134.915377 
L 459.269525 134.990045 
L 464.563051 134.981634 
L 469.856577 134.951209 
L 475.150103 135.111879 
L 480.443629 135.354638 
L 485.737156 135.490876 
L 491.030682 135.636286 
L 496.324208 135.562412 
L 501.617734 135.466753 
L 506.91126 135.403803 
L 512.204787 135.440298 
L 517.498313 135.526795 
L 522.791839 135.491128 
L 528.085365 135.347849 
L 533.378891 135.030219 
L 538.672417 134.602675 
L 543.965944 134.46477 
L 549.25947 134.655691 
L 554.552996 134.876281 
L 559.846522 134.902387 
L 565.140048 134.755484 
L 570.433574 134.521672 
L 575.727101 134.753023 
L 581.020627 135.186594 
L 586.314153 135.431855 
L 591.607679 135.364576 
L 596.901205 134.988024 
L 602.194731 134.937365 
L 607.488258 135.330258 
L 612.781784 135.01835 
L 618.07531 134.416059 
L 623.368836 134.69744 
L 628.662362 134.976827 
L 633.955888 134.858901 
L 639.249415 134.559139 
L 644.542941 134.575669 
L 649.836467 135.051985 
L 655.129993 135.52142 
L 660.423519 135.719842 
L 665.717045 135.687888 
" clip-path="url(#p9aac7d51b1)" style="fill: none; stroke: #2ca02c; stroke-width: 3; stroke-linecap: square"/>
   </g>
   <g id="line2d_28">
    <path d="M 141.657955 159.614891 
L 146.951481 159.977709 
L 152.245007 159.998576 
L 157.538533 159.667506 
L 162.832059 159.471192 
L 168.125585 159.479922 
L 173.419112 159.539001 
L 178.712638 159.89538 
L 184.006164 159.559851 
L 189.29969 159.142541 
L 194.593216 159.515843 
L 199.886742 159.850413 
L 205.180269 159.72606 
L 210.473795 159.066208 
L 215.767321 159.170795 
L 221.060847 159.493247 
L 226.354373 160.014425 
L 231.647899 159.95511 
L 236.941426 159.26986 
L 242.234952 159.650774 
L 247.528478 159.904678 
L 252.822004 159.473933 
L 258.11553 159.48696 
L 263.409056 159.707635 
L 268.702583 159.788018 
L 273.996109 159.898254 
L 279.289635 159.776709 
L 284.583161 159.361432 
L 289.876687 159.286103 
L 295.170213 159.861472 
L 300.46374 159.769171 
L 305.757266 159.385386 
L 311.050792 159.473321 
L 316.344318 159.436077 
L 321.637844 159.434992 
L 326.931371 159.38246 
L 332.224897 159.878615 
L 337.518423 159.69385 
L 342.811949 159.452801 
L 348.105475 159.508194 
L 353.399001 159.632401 
L 358.692528 159.109484 
L 363.986054 159.748983 
L 369.27958 159.793902 
L 374.573106 159.935966 
L 379.866632 159.242818 
L 385.160158 159.337283 
L 390.453685 159.264162 
L 395.747211 159.883472 
L 401.040737 159.895333 
L 406.334263 159.999567 
L 411.627789 159.256567 
L 416.921315 159.950224 
L 422.214842 159.299436 
L 427.508368 159.857454 
L 432.801894 159.381339 
L 438.09542 159.552535 
L 443.388946 159.452556 
L 448.682472 159.357235 
L 453.975999 159.080828 
L 459.269525 159.17602 
L 464.563051 159.560856 
L 469.856577 159.737872 
L 475.150103 159.586302 
L 480.443629 159.393604 
L 485.737156 159.052851 
L 491.030682 159.314411 
L 496.324208 159.531255 
L 501.617734 159.428057 
L 506.91126 159.341574 
L 512.204787 159.179959 
L 517.498313 159.079531 
L 522.791839 159.095348 
L 528.085365 159.063265 
L 533.378891 159.113952 
L 538.672417 159.339016 
L 543.965944 159.485424 
L 549.25947 159.531739 
L 554.552996 159.66461 
L 559.846522 159.305344 
L 565.140048 159.876936 
L 570.433574 159.7463 
L 575.727101 159.635979 
L 581.020627 159.867221 
L 586.314153 159.70016 
L 591.607679 159.780679 
L 596.901205 159.948996 
L 602.194731 159.576995 
L 607.488258 159.63236 
L 612.781784 159.146165 
L 618.07531 159.363558 
L 623.368836 159.518917 
L 628.662362 159.139783 
L 633.955888 158.999749 
L 639.249415 159.102809 
L 644.542941 159.402476 
L 649.836467 159.601381 
L 655.129993 159.670635 
L 660.423519 159.717719 
L 665.717045 159.927486 
" clip-path="url(#p9aac7d51b1)" style="fill: none; stroke: #d62728; stroke-width: 3; stroke-linecap: square"/>
   </g>
   <g id="line2d_29">
    <path d="M 141.657955 168.001235 
L 146.951481 168.084626 
L 152.245007 168.152706 
L 157.538533 168.151868 
L 162.832059 168.105586 
L 168.125585 168.021868 
L 173.419112 168.076171 
L 178.712638 168.159493 
L 184.006164 168.154641 
L 189.29969 168.091386 
L 194.593216 168.020179 
L 199.886742 168.117694 
L 205.180269 168.163294 
L 210.473795 168.14969 
L 215.767321 168.100694 
L 221.060847 168.046663 
L 226.354373 168.059791 
L 231.647899 168.127542 
L 236.941426 168.155984 
L 242.234952 168.152084 
L 247.528478 168.139626 
L 252.822004 168.097211 
L 258.11553 168.075409 
L 263.409056 168.112929 
L 268.702583 168.144237 
L 273.996109 168.157064 
L 279.289635 168.15175 
L 284.583161 168.145044 
L 289.876687 168.154047 
L 295.170213 168.141523 
L 300.46374 168.097726 
L 305.757266 168.088952 
L 311.050792 168.11962 
L 316.344318 168.139018 
L 321.637844 168.142772 
L 326.931371 168.117438 
L 332.224897 168.085043 
L 337.518423 168.122947 
L 342.811949 168.07645 
L 348.105475 168.087414 
L 353.399001 168.143379 
L 358.692528 168.133063 
L 363.986054 168.112358 
L 369.27958 168.109979 
L 374.573106 168.110962 
L 379.866632 168.097372 
L 385.160158 168.090953 
L 390.453685 168.096493 
L 395.747211 168.101389 
L 401.040737 168.096779 
L 406.334263 168.104313 
L 411.627789 168.05666 
L 416.921315 168.042152 
L 422.214842 168.090133 
L 427.508368 168.095776 
L 432.801894 168.092778 
L 438.09542 168.138738 
L 443.388946 168.103843 
L 448.682472 168.082899 
L 453.975999 168.072245 
L 459.269525 168.068736 
L 464.563051 168.068725 
L 469.856577 168.083891 
L 475.150103 168.1089 
L 480.443629 168.120763 
L 485.737156 168.135089 
L 491.030682 168.133482 
L 496.324208 168.10368 
L 501.617734 168.048152 
L 506.91126 168.066791 
L 512.204787 168.105917 
L 517.498313 168.115203 
L 522.791839 168.11056 
L 528.085365 168.124156 
L 533.378891 168.097301 
L 538.672417 168.040676 
L 543.965944 168.076164 
L 549.25947 168.124899 
L 554.552996 168.135923 
L 559.846522 168.121841 
L 565.140048 168.083853 
L 570.433574 168.031539 
L 575.727101 168.075903 
L 581.020627 168.120799 
L 586.314153 168.134796 
L 591.607679 168.099585 
L 596.901205 168.036916 
L 602.194731 168.121264 
L 607.488258 168.138047 
L 612.781784 168.105509 
L 618.07531 168.049482 
L 623.368836 168.114068 
L 628.662362 168.153611 
L 633.955888 168.116626 
L 639.249415 168.069519 
L 644.542941 168.073153 
L 649.836467 168.119197 
L 655.129993 168.144028 
L 660.423519 168.130045 
L 665.717045 168.088934 
" clip-path="url(#p9aac7d51b1)" style="fill: none; stroke: #9467bd; stroke-width: 3; stroke-linecap: square"/>
   </g>
   <g id="line2d_30">
    <path d="M 141.657955 267.35209 
L 146.951481 267.268679 
L 152.245007 267.200632 
L 157.538533 267.201453 
L 162.832059 267.247741 
L 168.125585 267.331471 
L 173.419112 267.277247 
L 178.712638 267.193904 
L 184.006164 267.198708 
L 189.29969 267.262022 
L 194.593216 267.333205 
L 199.886742 267.23558 
L 205.180269 267.189984 
L 210.473795 267.203679 
L 215.767321 267.252761 
L 221.060847 267.30679 
L 226.354373 267.293571 
L 231.647899 267.225786 
L 236.941426 267.19743 
L 242.234952 267.201432 
L 247.528478 267.213819 
L 252.822004 267.256253 
L 258.11553 267.278105 
L 263.409056 267.240482 
L 268.702583 267.209117 
L 273.996109 267.196296 
L 279.289635 267.201641 
L 284.583161 267.208328 
L 289.876687 267.199356 
L 295.170213 267.211863 
L 300.46374 267.25572 
L 305.757266 267.264571 
L 311.050792 267.233886 
L 316.344318 267.214454 
L 321.637844 267.210689 
L 326.931371 267.236058 
L 332.224897 267.26836 
L 337.518423 267.230328 
L 342.811949 267.276867 
L 348.105475 267.26588 
L 353.399001 267.209988 
L 358.692528 267.220337 
L 363.986054 267.241097 
L 369.27958 267.243345 
L 374.573106 267.242235 
L 379.866632 267.255868 
L 385.160158 267.26241 
L 390.453685 267.256988 
L 395.747211 267.252086 
L 401.040737 267.256606 
L 406.334263 267.248883 
L 411.627789 267.296628 
L 416.921315 267.311022 
L 422.214842 267.263233 
L 427.508368 267.257414 
L 432.801894 267.260512 
L 438.09542 267.214491 
L 443.388946 267.249357 
L 448.682472 267.2702 
L 453.975999 267.280923 
L 459.269525 267.284523 
L 464.563051 267.28453 
L 469.856577 267.26928 
L 475.150103 267.244254 
L 480.443629 267.232429 
L 485.737156 267.218131 
L 491.030682 267.219884 
L 496.324208 267.249639 
L 501.617734 267.305202 
L 506.91126 267.286613 
L 512.204787 267.247461 
L 517.498313 267.238137 
L 522.791839 267.242718 
L 528.085365 267.229128 
L 533.378891 267.255957 
L 538.672417 267.31244 
L 543.965944 267.276924 
L 549.25947 267.228143 
L 554.552996 267.217238 
L 559.846522 267.231378 
L 565.140048 267.269347 
L 570.433574 267.321667 
L 575.727101 267.277405 
L 581.020627 267.232537 
L 586.314153 267.218557 
L 591.607679 267.253835 
L 596.901205 267.316483 
L 602.194731 267.231963 
L 607.488258 267.215304 
L 612.781784 267.247817 
L 618.07531 267.303739 
L 623.368836 267.239188 
L 628.662362 267.199641 
L 633.955888 267.236653 
L 639.249415 267.283687 
L 644.542941 267.280015 
L 649.836467 267.234032 
L 655.129993 267.209267 
L 660.423519 267.223317 
L 665.717045 267.264504 
" clip-path="url(#p9aac7d51b1)" style="fill: none; stroke-dasharray: 11.1,4.8; stroke-dashoffset: 0; stroke: #000000; stroke-width: 3"/>
   </g>
   <g id="patch_3">
    <path d="M 115.455 419.46 
L 115.455 58.32 
" style="fill: none; stroke: #000000; stroke-width: 2; stroke-linejoin: miter; stroke-linecap: square"/>
   </g>
   <g id="patch_4">
    <path d="M 691.92 419.46 
L 691.92 58.32 
" style="fill: none; stroke: #000000; stroke-width: 2; stroke-linejoin: miter; stroke-linecap: square"/>
   </g>
   <g id="patch_5">
    <path d="M 115.455 419.46 
L 691.92 419.46 
" style="fill: none; stroke: #000000; stroke-width: 2; stroke-linejoin: miter; stroke-linecap: square"/>
   </g>
   <g id="patch_6">
    <path d="M 115.455 58.32 
L 691.92 58.32 
" style="fill: none; stroke: #000000; stroke-width: 2; stroke-linejoin: miter; stroke-linecap: square"/>
   </g>
   <g id="text_15">
    <!-- Energy Components vs. Time -->
    <g transform="translate(171.58875 51.38775) scale(0.312 -0.312)">
     <defs>
      <path id="DejaVuSerif-76" d="M 1581 0 
L 359 2988 
L -19 2988 
L -19 3322 
L 1509 3322 
L 1509 2988 
L 978 2988 
L 1913 703 
L 2847 2988 
L 2350 2988 
L 2350 3322 
L 3597 3322 
L 3597 2988 
L 3225 2988 
L 2003 0 
L 1581 0 
z
" transform="scale(0.015625)"/>
     </defs>
     <use xlink:href="#DejaVuSerif-45"/>
     <use xlink:href="#DejaVuSerif-6e" x="72.998047"/>
     <use xlink:href="#DejaVuSerif-65" x="137.402344"/>
     <use xlink:href="#DejaVuSerif-72" x="196.582031"/>
     <use xlink:href="#DejaVuSerif-67" x="244.384766"/>
     <use xlink:href="#DejaVuSerif-79" x="308.398438"/>
     <use xlink:href="#DejaVuSerif-20" x="364.892578"/>
     <use xlink:href="#DejaVuSerif-43" x="396.679688"/>
     <use xlink:href="#DejaVuSerif-6f" x="473.193359"/>
     <use xlink:href="#DejaVuSerif-6d" x="533.398438"/>
     <use xlink:href="#DejaVuSerif-70" x="628.222656"/>
     <use xlink:href="#DejaVuSerif-6f" x="692.236328"/>
     <use xlink:href="#DejaVuSerif-6e" x="752.441406"/>
     <use xlink:href="#DejaVuSerif-65" x="816.845703"/>
     <use xlink:href="#DejaVuSerif-6e" x="876.025391"/>
     <use xlink:href="#DejaVuSerif-74" x="940.429688"/>
     <use xlink:href="#DejaVuSerif-73" x="980.615234"/>
     <use xlink:href="#DejaVuSerif-20" x="1031.933594"/>
     <use xlink:href="#DejaVuSerif-76" x="1063.720703"/>
     <use xlink:href="#DejaVuSerif-73" x="1120.214844"/>
     <use xlink:href="#DejaVuSerif-2e" x="1171.533203"/>
     <use xlink:href="#DejaVuSerif-20" x="1203.320312"/>
     <use xlink:href="#DejaVuSerif-54" x="1235.107422"/>
     <use xlink:href="#DejaVuSerif-69" x="1301.806641"/>
     <use xlink:href="#DejaVuSerif-6d" x="1333.789062"/>
     <use xlink:href="#DejaVuSerif-65" x="1428.613281"/>
    </g>
   </g>
   <g id="legend_1">
    <g id="patch_7">
     <path d="M 129.455 409.46 
L 345.526875 409.46 
Q 349.526875 409.46 349.526875 405.46 
L 349.526875 231.038125 
Q 349.526875 227.038125 345.526875 227.038125 
L 129.455 227.038125 
Q 125.455 227.038125 125.455 231.038125 
L 125.455 405.46 
Q 125.455 409.46 129.455 409.46 
z
" style="fill: #ffffff; opacity: 0.8; stroke: #cccccc; stroke-linejoin: miter"/>
    </g>
    <g id="line2d_31">
     <path d="M 133.455 243.235 
L 153.455 243.235 
L 173.455 243.235 
" style="fill: none; stroke: #1f77b4; stroke-width: 3; stroke-linecap: square"/>
    </g>
    <g id="text_16">
     <!-- Kinetic E -->
     <g transform="translate(189.455 250.235) scale(0.2 -0.2)">
      <defs>
       <path id="DejaVuSerif-4b" d="M 353 0 
L 353 331 
L 947 331 
L 947 4331 
L 353 4331 
L 353 4666 
L 2175 4666 
L 2175 4331 
L 1581 4331 
L 1581 2566 
L 3591 4331 
L 3084 4331 
L 3084 4666 
L 4634 4666 
L 4634 4331 
L 4109 4331 
L 2106 2572 
L 4347 331 
L 4878 331 
L 4878 0 
L 3794 0 
L 1581 2216 
L 1581 331 
L 2175 331 
L 2175 0 
L 353 0 
z
" transform="scale(0.015625)"/>
       <path id="DejaVuSerif-63" d="M 3291 997 
Q 3169 466 2822 187 
Q 2475 -91 1925 -91 
Q 1200 -91 759 389 
Q 319 869 319 1663 
Q 319 2459 759 2936 
Q 1200 3413 1925 3413 
Q 2241 3413 2553 3339 
Q 2866 3266 3181 3116 
L 3181 2266 
L 2847 2266 
Q 2781 2703 2561 2903 
Q 2341 3103 1931 3103 
Q 1466 3103 1228 2742 
Q 991 2381 991 1663 
Q 991 944 1227 581 
Q 1463 219 1931 219 
Q 2303 219 2525 412 
Q 2747 606 2828 997 
L 3291 997 
z
" transform="scale(0.015625)"/>
      </defs>
      <use xlink:href="#DejaVuSerif-4b"/>
      <use xlink:href="#DejaVuSerif-69" x="74.707031"/>
      <use xlink:href="#DejaVuSerif-6e" x="106.689453"/>
      <use xlink:href="#DejaVuSerif-65" x="171.09375"/>
      <use xlink:href="#DejaVuSerif-74" x="230.273438"/>
      <use xlink:href="#DejaVuSerif-69" x="270.458984"/>
      <use xlink:href="#DejaVuSerif-63" x="302.441406"/>
      <use xlink:href="#DejaVuSerif-20" x="358.447266"/>
      <use xlink:href="#DejaVuSerif-45" x="390.234375"/>
     </g>
    </g>
    <g id="line2d_32">
     <path d="M 133.455 272.59125 
L 153.455 272.59125 
L 173.455 272.59125 
" style="fill: none; stroke: #ff7f0e; stroke-width: 3; stroke-linecap: square"/>
    </g>
    <g id="text_17">
     <!-- PE e-N -->
     <g transform="translate(189.455 279.59125) scale(0.2 -0.2)">
      <defs>
       <path id="DejaVuSerif-50" d="M 1581 2375 
L 2406 2375 
Q 2872 2375 3115 2626 
Q 3359 2878 3359 3353 
Q 3359 3831 3115 4081 
Q 2872 4331 2406 4331 
L 1581 4331 
L 1581 2375 
z
M 353 0 
L 353 331 
L 947 331 
L 947 4331 
L 353 4331 
L 353 4666 
L 2559 4666 
Q 3259 4666 3668 4311 
Q 4078 3956 4078 3353 
Q 4078 2753 3668 2397 
Q 3259 2041 2559 2041 
L 1581 2041 
L 1581 331 
L 2303 331 
L 2303 0 
L 353 0 
z
" transform="scale(0.015625)"/>
       <path id="DejaVuSerif-2d" d="M 281 1959 
L 1881 1959 
L 1881 1472 
L 281 1472 
L 281 1959 
z
" transform="scale(0.015625)"/>
       <path id="DejaVuSerif-4e" d="M 313 0 
L 313 331 
L 941 331 
L 941 4331 
L 313 4331 
L 313 4666 
L 1509 4666 
L 4306 984 
L 4306 4331 
L 3681 4331 
L 3681 4666 
L 5319 4666 
L 5319 4331 
L 4691 4331 
L 4691 -91 
L 4313 -91 
L 1325 3841 
L 1325 331 
L 1953 331 
L 1953 0 
L 313 0 
z
" transform="scale(0.015625)"/>
      </defs>
      <use xlink:href="#DejaVuSerif-50"/>
      <use xlink:href="#DejaVuSerif-45" x="67.285156"/>
      <use xlink:href="#DejaVuSerif-20" x="140.283203"/>
      <use xlink:href="#DejaVuSerif-65" x="172.070312"/>
      <use xlink:href="#DejaVuSerif-2d" x="231.25"/>
      <use xlink:href="#DejaVuSerif-4e" x="265.039062"/>
     </g>
    </g>
    <g id="line2d_33">
     <path d="M 133.455 301.9475 
L 153.455 301.9475 
L 173.455 301.9475 
" style="fill: none; stroke: #2ca02c; stroke-width: 3; stroke-linecap: square"/>
    </g>
    <g id="text_18">
     <!-- PE e-e -->
     <g transform="translate(189.455 308.9475) scale(0.2 -0.2)">
      <use xlink:href="#DejaVuSerif-50"/>
      <use xlink:href="#DejaVuSerif-45" x="67.285156"/>
      <use xlink:href="#DejaVuSerif-20" x="140.283203"/>
      <use xlink:href="#DejaVuSerif-65" x="172.070312"/>
      <use xlink:href="#DejaVuSerif-2d" x="231.25"/>
      <use xlink:href="#DejaVuSerif-65" x="265.039062"/>
     </g>
    </g>
    <g id="line2d_34">
     <path d="M 133.455 331.30375 
L 153.455 331.30375 
L 173.455 331.30375 
" style="fill: none; stroke: #d62728; stroke-width: 3; stroke-linecap: square"/>
    </g>
    <g id="text_19">
     <!-- PE Heisenberg -->
     <g transform="translate(189.455 338.30375) scale(0.2 -0.2)">
      <defs>
       <path id="DejaVuSerif-48" d="M 353 0 
L 353 331 
L 947 331 
L 947 4331 
L 353 4331 
L 353 4666 
L 2175 4666 
L 2175 4331 
L 1581 4331 
L 1581 2719 
L 4000 2719 
L 4000 4331 
L 3406 4331 
L 3406 4666 
L 5228 4666 
L 5228 4331 
L 4634 4331 
L 4634 331 
L 5228 331 
L 5228 0 
L 3406 0 
L 3406 331 
L 4000 331 
L 4000 2338 
L 1581 2338 
L 1581 331 
L 2175 331 
L 2175 0 
L 353 0 
z
" transform="scale(0.015625)"/>
       <path id="DejaVuSerif-62" d="M 738 331 
L 738 4531 
L 184 4531 
L 184 4863 
L 1313 4863 
L 1313 2803 
Q 1481 3116 1742 3264 
Q 2003 3413 2388 3413 
Q 3000 3413 3387 2928 
Q 3775 2444 3775 1663 
Q 3775 881 3387 395 
Q 3000 -91 2388 -91 
Q 2003 -91 1742 57 
Q 1481 206 1313 519 
L 1313 0 
L 184 0 
L 184 331 
L 738 331 
z
M 1313 1497 
Q 1313 897 1542 583 
Q 1772 269 2209 269 
Q 2650 269 2876 622 
Q 3103 975 3103 1663 
Q 3103 2353 2876 2703 
Q 2650 3053 2209 3053 
Q 1772 3053 1542 2737 
Q 1313 2422 1313 1825 
L 1313 1497 
z
" transform="scale(0.015625)"/>
      </defs>
      <use xlink:href="#DejaVuSerif-50"/>
      <use xlink:href="#DejaVuSerif-45" x="67.285156"/>
      <use xlink:href="#DejaVuSerif-20" x="140.283203"/>
      <use xlink:href="#DejaVuSerif-48" x="172.070312"/>
      <use xlink:href="#DejaVuSerif-65" x="259.277344"/>
      <use xlink:href="#DejaVuSerif-69" x="318.457031"/>
      <use xlink:href="#DejaVuSerif-73" x="350.439453"/>
      <use xlink:href="#DejaVuSerif-65" x="401.757812"/>
      <use xlink:href="#DejaVuSerif-6e" x="460.9375"/>
      <use xlink:href="#DejaVuSerif-62" x="525.341797"/>
      <use xlink:href="#DejaVuSerif-65" x="589.355469"/>
      <use xlink:href="#DejaVuSerif-72" x="648.535156"/>
      <use xlink:href="#DejaVuSerif-67" x="696.337891"/>
     </g>
    </g>
    <g id="line2d_35">
     <path d="M 133.455 360.944375 
L 153.455 360.944375 
L 173.455 360.944375 
" style="fill: none; stroke: #9467bd; stroke-width: 3; stroke-linecap: square"/>
    </g>
    <g id="text_20">
     <!-- PE Pauli -->
     <g transform="translate(189.455 367.944375) scale(0.2 -0.2)">
      <defs>
       <path id="DejaVuSerif-6c" d="M 1313 331 
L 1856 331 
L 1856 0 
L 184 0 
L 184 331 
L 738 331 
L 738 4531 
L 184 4531 
L 184 4863 
L 1313 4863 
L 1313 331 
z
" transform="scale(0.015625)"/>
      </defs>
      <use xlink:href="#DejaVuSerif-50"/>
      <use xlink:href="#DejaVuSerif-45" x="67.285156"/>
      <use xlink:href="#DejaVuSerif-20" x="140.283203"/>
      <use xlink:href="#DejaVuSerif-50" x="172.070312"/>
      <use xlink:href="#DejaVuSerif-61" x="234.855469"/>
      <use xlink:href="#DejaVuSerif-75" x="294.474609"/>
      <use xlink:href="#DejaVuSerif-6c" x="358.878906"/>
      <use xlink:href="#DejaVuSerif-69" x="390.861328"/>
     </g>
    </g>
    <g id="line2d_36">
     <path d="M 133.455 390.300625 
L 153.455 390.300625 
L 173.455 390.300625 
" style="fill: none; stroke-dasharray: 11.1,4.8; stroke-dashoffset: 0; stroke: #000000; stroke-width: 3"/>
    </g>
    <g id="text_21">
     <!-- Total E -->
     <g transform="translate(189.455 397.300625) scale(0.2 -0.2)">
      <use xlink:href="#DejaVuSerif-54"/>
      <use xlink:href="#DejaVuSerif-6f" x="58.949219"/>
      <use xlink:href="#DejaVuSerif-74" x="119.154297"/>
      <use xlink:href="#DejaVuSerif-61" x="159.339844"/>
      <use xlink:href="#DejaVuSerif-6c" x="218.958984"/>
      <use xlink:href="#DejaVuSerif-20" x="250.941406"/>
      <use xlink:href="#DejaVuSerif-45" x="282.728516"/>
     </g>
    </g>
   </g>
  </g>
 </g>
 <defs>
  <clipPath id="p9aac7d51b1">
   <rect x="115.455" y="58.32" width="576.465" height="361.14"/>
  </clipPath>
 </defs>
</svg>
