<?xml version="1.0" encoding="utf-8" standalone="no"?>
<!DOCTYPE svg PUBLIC "-//W3C//DTD SVG 1.1//EN"
  "http://www.w3.org/Graphics/SVG/1.1/DTD/svg11.dtd">
<svg xmlns:xlink="http://www.w3.org/1999/xlink" width="720pt" height="504pt" viewBox="0 0 720 504" xmlns="http://www.w3.org/2000/svg" version="1.1">
 <metadata>
  <rdf:RDF xmlns:dc="http://purl.org/dc/elements/1.1/" xmlns:cc="http://creativecommons.org/ns#" xmlns:rdf="http://www.w3.org/1999/02/22-rdf-syntax-ns#">
   <cc:Work>
    <dc:type rdf:resource="http://purl.org/dc/dcmitype/StillImage"/>
    <dc:date>2025-06-01T11:35:54.554373</dc:date>
    <dc:format>image/svg+xml</dc:format>
    <dc:creator>
     <cc:Agent>
      <dc:title>Matplotlib v3.7.2, https://matplotlib.org/</dc:title>
     </cc:Agent>
    </dc:creator>
   </cc:Work>
  </rdf:RDF>
 </metadata>
 <defs>
  <style type="text/css">*{stroke-linejoin: round; stroke-linecap: butt}</style>
 </defs>
 <g id="figure_1">
  <g id="patch_1">
   <path d="M 0 504 
L 720 504 
L 720 0 
L 0 0 
z
" style="fill: #ffffff"/>
  </g>
  <g id="axes_1">
   <g id="patch_2">
    <path d="M 115.455 419.46 
L 691.92 419.46 
L 691.92 58.32 
L 115.455 58.32 
z
" style="fill: #ffffff"/>
   </g>
   <g id="matplotlib.axis_1">
    <g id="xtick_1">
     <g id="line2d_1">
      <path d="M 141.657955 419.46 
L 141.657955 58.32 
" clip-path="url(#p273dba22d6)" style="fill: none; stroke-dasharray: 3.7,1.6; stroke-dashoffset: 0; stroke: #b0b0b0"/>
     </g>
     <g id="line2d_2">
      <defs>
       <path id="m1afe12be58" d="M 0 0 
L 0 -10 
" style="stroke: #000000; stroke-width: 2"/>
      </defs>
      <g>
       <use xlink:href="#m1afe12be58" x="141.657955" y="419.46" style="stroke: #000000; stroke-width: 2"/>
      </g>
     </g>
     <g id="text_1">
      <!-- 0 -->
      <g transform="translate(133.386705 442.715937) scale(0.26 -0.26)">
       <defs>
        <path id="DejaVuSerif-30" d="M 2034 219 
Q 2513 219 2750 744 
Q 2988 1269 2988 2328 
Q 2988 3391 2750 3916 
Q 2513 4441 2034 4441 
Q 1556 4441 1318 3916 
Q 1081 3391 1081 2328 
Q 1081 1269 1318 744 
Q 1556 219 2034 219 
z
M 2034 -91 
Q 1275 -91 848 546 
Q 422 1184 422 2328 
Q 422 3475 848 4112 
Q 1275 4750 2034 4750 
Q 2797 4750 3222 4112 
Q 3647 3475 3647 2328 
Q 3647 1184 3222 546 
Q 2797 -91 2034 -91 
z
" transform="scale(0.015625)"/>
       </defs>
       <use xlink:href="#DejaVuSerif-30"/>
      </g>
     </g>
    </g>
    <g id="xtick_2">
     <g id="line2d_3">
      <path d="M 272.672727 419.46 
L 272.672727 58.32 
" clip-path="url(#p273dba22d6)" style="fill: none; stroke-dasharray: 3.7,1.6; stroke-dashoffset: 0; stroke: #b0b0b0"/>
     </g>
     <g id="line2d_4">
      <g>
       <use xlink:href="#m1afe12be58" x="272.672727" y="419.46" style="stroke: #000000; stroke-width: 2"/>
      </g>
     </g>
     <g id="text_2">
      <!-- 5 -->
      <g transform="translate(264.401477 442.715937) scale(0.26 -0.26)">
       <defs>
        <path id="DejaVuSerif-35" d="M 3219 4666 
L 3219 4153 
L 1081 4153 
L 1081 2816 
Q 1244 2928 1461 2984 
Q 1678 3041 1947 3041 
Q 2703 3041 3140 2622 
Q 3578 2203 3578 1478 
Q 3578 738 3136 323 
Q 2694 -91 1894 -91 
Q 1572 -91 1234 -12 
Q 897 66 544 225 
L 544 1131 
L 897 1131 
Q 925 688 1179 453 
Q 1434 219 1894 219 
Q 2388 219 2653 544 
Q 2919 869 2919 1478 
Q 2919 2084 2655 2407 
Q 2391 2731 1894 2731 
Q 1613 2731 1398 2631 
Q 1184 2531 1019 2322 
L 750 2322 
L 750 4666 
L 3219 4666 
z
" transform="scale(0.015625)"/>
       </defs>
       <use xlink:href="#DejaVuSerif-35"/>
      </g>
     </g>
    </g>
    <g id="xtick_3">
     <g id="line2d_5">
      <path d="M 403.6875 419.46 
L 403.6875 58.32 
" clip-path="url(#p273dba22d6)" style="fill: none; stroke-dasharray: 3.7,1.6; stroke-dashoffset: 0; stroke: #b0b0b0"/>
     </g>
     <g id="line2d_6">
      <g>
       <use xlink:href="#m1afe12be58" x="403.6875" y="419.46" style="stroke: #000000; stroke-width: 2"/>
      </g>
     </g>
     <g id="text_3">
      <!-- 10 -->
      <g transform="translate(387.145 442.715937) scale(0.26 -0.26)">
       <defs>
        <path id="DejaVuSerif-31" d="M 909 0 
L 909 331 
L 1722 331 
L 1722 4213 
L 781 3603 
L 781 4013 
L 1919 4750 
L 2350 4750 
L 2350 331 
L 3163 331 
L 3163 0 
L 909 0 
z
" transform="scale(0.015625)"/>
       </defs>
       <use xlink:href="#DejaVuSerif-31"/>
       <use xlink:href="#DejaVuSerif-30" x="63.623047"/>
      </g>
     </g>
    </g>
    <g id="xtick_4">
     <g id="line2d_7">
      <path d="M 534.702273 419.46 
L 534.702273 58.32 
" clip-path="url(#p273dba22d6)" style="fill: none; stroke-dasharray: 3.7,1.6; stroke-dashoffset: 0; stroke: #b0b0b0"/>
     </g>
     <g id="line2d_8">
      <g>
       <use xlink:href="#m1afe12be58" x="534.702273" y="419.46" style="stroke: #000000; stroke-width: 2"/>
      </g>
     </g>
     <g id="text_4">
      <!-- 15 -->
      <g transform="translate(518.159773 442.715937) scale(0.26 -0.26)">
       <use xlink:href="#DejaVuSerif-31"/>
       <use xlink:href="#DejaVuSerif-35" x="63.623047"/>
      </g>
     </g>
    </g>
    <g id="xtick_5">
     <g id="line2d_9">
      <path d="M 665.717045 419.46 
L 665.717045 58.32 
" clip-path="url(#p273dba22d6)" style="fill: none; stroke-dasharray: 3.7,1.6; stroke-dashoffset: 0; stroke: #b0b0b0"/>
     </g>
     <g id="line2d_10">
      <g>
       <use xlink:href="#m1afe12be58" x="665.717045" y="419.46" style="stroke: #000000; stroke-width: 2"/>
      </g>
     </g>
     <g id="text_5">
      <!-- 20 -->
      <g transform="translate(649.174545 442.715937) scale(0.26 -0.26)">
       <defs>
        <path id="DejaVuSerif-32" d="M 819 3553 
L 469 3553 
L 469 4384 
Q 803 4563 1142 4656 
Q 1481 4750 1806 4750 
Q 2534 4750 2956 4397 
Q 3378 4044 3378 3438 
Q 3378 2753 2422 1800 
Q 2347 1728 2309 1691 
L 1131 513 
L 3078 513 
L 3078 1088 
L 3444 1088 
L 3444 0 
L 434 0 
L 434 341 
L 1850 1753 
Q 2319 2222 2519 2614 
Q 2719 3006 2719 3438 
Q 2719 3909 2473 4175 
Q 2228 4441 1797 4441 
Q 1350 4441 1106 4219 
Q 863 3997 819 3553 
z
" transform="scale(0.015625)"/>
       </defs>
       <use xlink:href="#DejaVuSerif-32"/>
       <use xlink:href="#DejaVuSerif-30" x="63.623047"/>
      </g>
     </g>
    </g>
    <g id="text_6">
     <!-- Time (a.u.) -->
     <g transform="translate(332.173281 471.879062) scale(0.26 -0.26)">
      <defs>
       <path id="DejaVuSerif-54" d="M 1222 0 
L 1222 331 
L 1819 331 
L 1819 4294 
L 447 4294 
L 447 3566 
L 63 3566 
L 63 4666 
L 4206 4666 
L 4206 3566 
L 3822 3566 
L 3822 4294 
L 2450 4294 
L 2450 331 
L 3047 331 
L 3047 0 
L 1222 0 
z
" transform="scale(0.015625)"/>
       <path id="DejaVuSerif-69" d="M 622 4353 
Q 622 4497 726 4603 
Q 831 4709 978 4709 
Q 1122 4709 1226 4603 
Q 1331 4497 1331 4353 
Q 1331 4206 1228 4103 
Q 1125 4000 978 4000 
Q 831 4000 726 4103 
Q 622 4206 622 4353 
z
M 1356 331 
L 1900 331 
L 1900 0 
L 231 0 
L 231 331 
L 781 331 
L 781 2988 
L 231 2988 
L 231 3322 
L 1356 3322 
L 1356 331 
z
" transform="scale(0.015625)"/>
       <path id="DejaVuSerif-6d" d="M 3316 2675 
Q 3481 3041 3739 3227 
Q 3997 3413 4341 3413 
Q 4863 3413 5119 3089 
Q 5375 2766 5375 2113 
L 5375 331 
L 5894 331 
L 5894 0 
L 4300 0 
L 4300 331 
L 4800 331 
L 4800 2047 
Q 4800 2556 4650 2772 
Q 4500 2988 4153 2988 
Q 3769 2988 3567 2697 
Q 3366 2406 3366 1850 
L 3366 331 
L 3866 331 
L 3866 0 
L 2291 0 
L 2291 331 
L 2791 331 
L 2791 2069 
Q 2791 2566 2641 2777 
Q 2491 2988 2144 2988 
Q 1759 2988 1557 2697 
Q 1356 2406 1356 1850 
L 1356 331 
L 1856 331 
L 1856 0 
L 263 0 
L 263 331 
L 781 331 
L 781 2994 
L 231 2994 
L 231 3322 
L 1356 3322 
L 1356 2731 
Q 1516 3063 1762 3238 
Q 2009 3413 2322 3413 
Q 2709 3413 2968 3220 
Q 3228 3028 3316 2675 
z
" transform="scale(0.015625)"/>
       <path id="DejaVuSerif-65" d="M 3469 1600 
L 991 1600 
L 991 1575 
Q 991 903 1244 561 
Q 1497 219 1991 219 
Q 2369 219 2611 417 
Q 2853 616 2950 1006 
L 3413 1006 
Q 3275 459 2904 184 
Q 2534 -91 1931 -91 
Q 1203 -91 761 389 
Q 319 869 319 1663 
Q 319 2450 753 2931 
Q 1188 3413 1894 3413 
Q 2647 3413 3050 2948 
Q 3453 2484 3469 1600 
z
M 2791 1931 
Q 2772 2513 2545 2808 
Q 2319 3103 1894 3103 
Q 1497 3103 1269 2806 
Q 1041 2509 991 1931 
L 2791 1931 
z
" transform="scale(0.015625)"/>
       <path id="DejaVuSerif-20" transform="scale(0.015625)"/>
       <path id="DejaVuSerif-28" d="M 2041 -997 
Q 1281 -656 893 83 
Q 506 822 506 1931 
Q 506 3044 893 3783 
Q 1281 4522 2041 4863 
L 2041 4556 
Q 1559 4225 1350 3623 
Q 1141 3022 1141 1931 
Q 1141 844 1350 242 
Q 1559 -359 2041 -691 
L 2041 -997 
z
" transform="scale(0.015625)"/>
       <path id="DejaVuSerif-61" d="M 2547 1044 
L 2547 1747 
L 1806 1747 
Q 1378 1747 1168 1562 
Q 959 1378 959 997 
Q 959 650 1171 447 
Q 1384 244 1747 244 
Q 2106 244 2326 466 
Q 2547 688 2547 1044 
z
M 3122 2075 
L 3122 331 
L 3634 331 
L 3634 0 
L 2547 0 
L 2547 359 
Q 2356 128 2106 18 
Q 1856 -91 1522 -91 
Q 969 -91 644 203 
Q 319 497 319 997 
Q 319 1513 691 1797 
Q 1063 2081 1741 2081 
L 2547 2081 
L 2547 2309 
Q 2547 2688 2317 2895 
Q 2088 3103 1672 3103 
Q 1328 3103 1125 2947 
Q 922 2791 872 2484 
L 575 2484 
L 575 3156 
Q 875 3284 1158 3348 
Q 1441 3413 1709 3413 
Q 2400 3413 2761 3070 
Q 3122 2728 3122 2075 
z
" transform="scale(0.015625)"/>
       <path id="DejaVuSerif-2e" d="M 603 325 
Q 603 500 722 622 
Q 841 744 1019 744 
Q 1191 744 1312 622 
Q 1434 500 1434 325 
Q 1434 153 1312 31 
Q 1191 -91 1019 -91 
Q 841 -91 722 29 
Q 603 150 603 325 
z
" transform="scale(0.015625)"/>
       <path id="DejaVuSerif-75" d="M 2266 3322 
L 3341 3322 
L 3341 331 
L 3884 331 
L 3884 0 
L 2766 0 
L 2766 588 
Q 2606 256 2353 82 
Q 2100 -91 1766 -91 
Q 1213 -91 952 223 
Q 691 538 691 1209 
L 691 2988 
L 172 2988 
L 172 3322 
L 1269 3322 
L 1269 1388 
Q 1269 781 1417 556 
Q 1566 331 1947 331 
Q 2347 331 2556 625 
Q 2766 919 2766 1478 
L 2766 2988 
L 2266 2988 
L 2266 3322 
z
" transform="scale(0.015625)"/>
       <path id="DejaVuSerif-29" d="M 453 -997 
L 453 -691 
Q 934 -359 1145 242 
Q 1356 844 1356 1931 
Q 1356 3022 1145 3623 
Q 934 4225 453 4556 
L 453 4863 
Q 1216 4522 1603 3783 
Q 1991 3044 1991 1931 
Q 1991 822 1603 83 
Q 1216 -656 453 -997 
z
" transform="scale(0.015625)"/>
      </defs>
      <use xlink:href="#DejaVuSerif-54"/>
      <use xlink:href="#DejaVuSerif-69" x="66.699219"/>
      <use xlink:href="#DejaVuSerif-6d" x="98.681641"/>
      <use xlink:href="#DejaVuSerif-65" x="193.505859"/>
      <use xlink:href="#DejaVuSerif-20" x="252.685547"/>
      <use xlink:href="#DejaVuSerif-28" x="284.472656"/>
      <use xlink:href="#DejaVuSerif-61" x="323.486328"/>
      <use xlink:href="#DejaVuSerif-2e" x="383.105469"/>
      <use xlink:href="#DejaVuSerif-75" x="414.892578"/>
      <use xlink:href="#DejaVuSerif-2e" x="479.296875"/>
      <use xlink:href="#DejaVuSerif-29" x="511.083984"/>
     </g>
    </g>
   </g>
   <g id="matplotlib.axis_2">
    <g id="ytick_1">
     <g id="line2d_11">
      <path d="M 115.455 411.621938 
L 691.92 411.621938 
" clip-path="url(#p273dba22d6)" style="fill: none; stroke-dasharray: 3.7,1.6; stroke-dashoffset: 0; stroke: #b0b0b0"/>
     </g>
     <g id="line2d_12">
      <defs>
       <path id="m65b140f4c6" d="M 0 0 
L 10 0 
" style="stroke: #000000; stroke-width: 2"/>
      </defs>
      <g>
       <use xlink:href="#m65b140f4c6" x="115.455" y="411.621938" style="stroke: #000000; stroke-width: 2"/>
      </g>
     </g>
     <g id="text_7">
      <!-- −20 -->
      <g transform="translate(57.082813 421.499906) scale(0.26 -0.26)">
       <defs>
        <path id="DejaVuSerif-2212" d="M 678 2259 
L 4684 2259 
L 4684 1753 
L 678 1753 
L 678 2259 
z
" transform="scale(0.015625)"/>
       </defs>
       <use xlink:href="#DejaVuSerif-2212"/>
       <use xlink:href="#DejaVuSerif-32" x="83.789062"/>
       <use xlink:href="#DejaVuSerif-30" x="147.412109"/>
      </g>
     </g>
    </g>
    <g id="ytick_2">
     <g id="line2d_13">
      <path d="M 115.455 351.045653 
L 691.92 351.045653 
" clip-path="url(#p273dba22d6)" style="fill: none; stroke-dasharray: 3.7,1.6; stroke-dashoffset: 0; stroke: #b0b0b0"/>
     </g>
     <g id="line2d_14">
      <g>
       <use xlink:href="#m65b140f4c6" x="115.455" y="351.045653" style="stroke: #000000; stroke-width: 2"/>
      </g>
     </g>
     <g id="text_8">
      <!-- −15 -->
      <g transform="translate(57.082813 360.923622) scale(0.26 -0.26)">
       <use xlink:href="#DejaVuSerif-2212"/>
       <use xlink:href="#DejaVuSerif-31" x="83.789062"/>
       <use xlink:href="#DejaVuSerif-35" x="147.412109"/>
      </g>
     </g>
    </g>
    <g id="ytick_3">
     <g id="line2d_15">
      <path d="M 115.455 290.469368 
L 691.92 290.469368 
" clip-path="url(#p273dba22d6)" style="fill: none; stroke-dasharray: 3.7,1.6; stroke-dashoffset: 0; stroke: #b0b0b0"/>
     </g>
     <g id="line2d_16">
      <g>
       <use xlink:href="#m65b140f4c6" x="115.455" y="290.469368" style="stroke: #000000; stroke-width: 2"/>
      </g>
     </g>
     <g id="text_9">
      <!-- −10 -->
      <g transform="translate(57.082813 300.347337) scale(0.26 -0.26)">
       <use xlink:href="#DejaVuSerif-2212"/>
       <use xlink:href="#DejaVuSerif-31" x="83.789062"/>
       <use xlink:href="#DejaVuSerif-30" x="147.412109"/>
      </g>
     </g>
    </g>
    <g id="ytick_4">
     <g id="line2d_17">
      <path d="M 115.455 229.893084 
L 691.92 229.893084 
" clip-path="url(#p273dba22d6)" style="fill: none; stroke-dasharray: 3.7,1.6; stroke-dashoffset: 0; stroke: #b0b0b0"/>
     </g>
     <g id="line2d_18">
      <g>
       <use xlink:href="#m65b140f4c6" x="115.455" y="229.893084" style="stroke: #000000; stroke-width: 2"/>
      </g>
     </g>
     <g id="text_10">
      <!-- −5 -->
      <g transform="translate(73.625313 239.771052) scale(0.26 -0.26)">
       <use xlink:href="#DejaVuSerif-2212"/>
       <use xlink:href="#DejaVuSerif-35" x="83.789062"/>
      </g>
     </g>
    </g>
    <g id="ytick_5">
     <g id="line2d_19">
      <path d="M 115.455 169.316799 
L 691.92 169.316799 
" clip-path="url(#p273dba22d6)" style="fill: none; stroke-dasharray: 3.7,1.6; stroke-dashoffset: 0; stroke: #b0b0b0"/>
     </g>
     <g id="line2d_20">
      <g>
       <use xlink:href="#m65b140f4c6" x="115.455" y="169.316799" style="stroke: #000000; stroke-width: 2"/>
      </g>
     </g>
     <g id="text_11">
      <!-- 0 -->
      <g transform="translate(95.4125 179.194768) scale(0.26 -0.26)">
       <use xlink:href="#DejaVuSerif-30"/>
      </g>
     </g>
    </g>
    <g id="ytick_6">
     <g id="line2d_21">
      <path d="M 115.455 108.740514 
L 691.92 108.740514 
" clip-path="url(#p273dba22d6)" style="fill: none; stroke-dasharray: 3.7,1.6; stroke-dashoffset: 0; stroke: #b0b0b0"/>
     </g>
     <g id="line2d_22">
      <g>
       <use xlink:href="#m65b140f4c6" x="115.455" y="108.740514" style="stroke: #000000; stroke-width: 2"/>
      </g>
     </g>
     <g id="text_12">
      <!-- 5 -->
      <g transform="translate(95.4125 118.618483) scale(0.26 -0.26)">
       <use xlink:href="#DejaVuSerif-35"/>
      </g>
     </g>
    </g>
    <g id="text_13">
     <!-- Energy Components (a.u.) -->
     <g transform="translate(47.305937 411.706719) rotate(-90) scale(0.26 -0.26)">
      <defs>
       <path id="DejaVuSerif-45" d="M 353 0 
L 353 331 
L 947 331 
L 947 4331 
L 353 4331 
L 353 4666 
L 4109 4666 
L 4109 3628 
L 3725 3628 
L 3725 4281 
L 1581 4281 
L 1581 2719 
L 3109 2719 
L 3109 3303 
L 3494 3303 
L 3494 1753 
L 3109 1753 
L 3109 2338 
L 1581 2338 
L 1581 384 
L 3775 384 
L 3775 1038 
L 4159 1038 
L 4159 0 
L 353 0 
z
" transform="scale(0.015625)"/>
       <path id="DejaVuSerif-6e" d="M 263 0 
L 263 331 
L 781 331 
L 781 2988 
L 231 2988 
L 231 3322 
L 1356 3322 
L 1356 2731 
Q 1516 3069 1770 3241 
Q 2025 3413 2363 3413 
Q 2913 3413 3172 3097 
Q 3431 2781 3431 2113 
L 3431 331 
L 3944 331 
L 3944 0 
L 2356 0 
L 2356 331 
L 2853 331 
L 2853 1931 
Q 2853 2541 2703 2767 
Q 2553 2994 2175 2994 
Q 1775 2994 1565 2701 
Q 1356 2409 1356 1850 
L 1356 331 
L 1856 331 
L 1856 0 
L 263 0 
z
" transform="scale(0.015625)"/>
       <path id="DejaVuSerif-72" d="M 3059 3328 
L 3059 2497 
L 2728 2497 
Q 2713 2744 2591 2866 
Q 2469 2988 2234 2988 
Q 1809 2988 1582 2694 
Q 1356 2400 1356 1850 
L 1356 331 
L 2022 331 
L 2022 0 
L 263 0 
L 263 331 
L 781 331 
L 781 2994 
L 231 2994 
L 231 3322 
L 1356 3322 
L 1356 2731 
Q 1525 3078 1790 3245 
Q 2056 3413 2438 3413 
Q 2578 3413 2733 3391 
Q 2888 3369 3059 3328 
z
" transform="scale(0.015625)"/>
       <path id="DejaVuSerif-67" d="M 3359 2988 
L 3359 72 
Q 3359 -644 2965 -1033 
Q 2572 -1422 1844 -1422 
Q 1516 -1422 1216 -1362 
Q 916 -1303 641 -1184 
L 641 -488 
L 941 -488 
Q 997 -813 1206 -963 
Q 1416 -1113 1806 -1113 
Q 2313 -1113 2548 -827 
Q 2784 -541 2784 72 
L 2784 519 
Q 2616 206 2355 57 
Q 2094 -91 1709 -91 
Q 1097 -91 708 395 
Q 319 881 319 1663 
Q 319 2444 706 2928 
Q 1094 3413 1709 3413 
Q 2094 3413 2355 3264 
Q 2616 3116 2784 2803 
L 2784 3322 
L 3909 3322 
L 3909 2988 
L 3359 2988 
z
M 2784 1825 
Q 2784 2422 2554 2737 
Q 2325 3053 1888 3053 
Q 1444 3053 1217 2703 
Q 991 2353 991 1663 
Q 991 975 1217 622 
Q 1444 269 1888 269 
Q 2325 269 2554 583 
Q 2784 897 2784 1497 
L 2784 1825 
z
" transform="scale(0.015625)"/>
       <path id="DejaVuSerif-79" d="M 1381 -609 
L 1600 -56 
L 359 2988 
L -19 2988 
L -19 3322 
L 1509 3322 
L 1509 2988 
L 978 2988 
L 1913 703 
L 2847 2988 
L 2350 2988 
L 2350 3322 
L 3597 3322 
L 3597 2988 
L 3225 2988 
L 1703 -750 
Q 1547 -1138 1356 -1280 
Q 1166 -1422 819 -1422 
Q 672 -1422 517 -1397 
Q 363 -1372 206 -1325 
L 206 -691 
L 500 -691 
Q 519 -903 608 -995 
Q 697 -1088 884 -1088 
Q 1056 -1088 1161 -992 
Q 1266 -897 1381 -609 
z
" transform="scale(0.015625)"/>
       <path id="DejaVuSerif-43" d="M 4513 1234 
Q 4306 581 3820 245 
Q 3334 -91 2591 -91 
Q 2134 -91 1743 65 
Q 1353 222 1050 525 
Q 700 875 529 1320 
Q 359 1766 359 2328 
Q 359 3416 987 4083 
Q 1616 4750 2644 4750 
Q 3025 4750 3456 4650 
Q 3888 4550 4384 4347 
L 4384 3272 
L 4031 3272 
Q 3916 3859 3567 4137 
Q 3219 4416 2591 4416 
Q 1844 4416 1459 3886 
Q 1075 3356 1075 2328 
Q 1075 1303 1459 773 
Q 1844 244 2591 244 
Q 3113 244 3450 492 
Q 3788 741 3938 1234 
L 4513 1234 
z
" transform="scale(0.015625)"/>
       <path id="DejaVuSerif-6f" d="M 1925 219 
Q 2388 219 2623 584 
Q 2859 950 2859 1663 
Q 2859 2375 2623 2739 
Q 2388 3103 1925 3103 
Q 1463 3103 1227 2739 
Q 991 2375 991 1663 
Q 991 950 1228 584 
Q 1466 219 1925 219 
z
M 1925 -91 
Q 1200 -91 759 389 
Q 319 869 319 1663 
Q 319 2456 758 2934 
Q 1197 3413 1925 3413 
Q 2653 3413 3092 2934 
Q 3531 2456 3531 1663 
Q 3531 869 3092 389 
Q 2653 -91 1925 -91 
z
" transform="scale(0.015625)"/>
       <path id="DejaVuSerif-70" d="M 1313 1825 
L 1313 1497 
Q 1313 897 1542 583 
Q 1772 269 2209 269 
Q 2650 269 2876 622 
Q 3103 975 3103 1663 
Q 3103 2353 2876 2703 
Q 2650 3053 2209 3053 
Q 1772 3053 1542 2737 
Q 1313 2422 1313 1825 
z
M 738 2988 
L 184 2988 
L 184 3322 
L 1313 3322 
L 1313 2803 
Q 1481 3116 1742 3264 
Q 2003 3413 2388 3413 
Q 3000 3413 3387 2928 
Q 3775 2444 3775 1663 
Q 3775 881 3387 395 
Q 3000 -91 2388 -91 
Q 2003 -91 1742 57 
Q 1481 206 1313 519 
L 1313 -997 
L 1856 -997 
L 1856 -1331 
L 184 -1331 
L 184 -997 
L 738 -997 
L 738 2988 
z
" transform="scale(0.015625)"/>
       <path id="DejaVuSerif-74" d="M 691 2988 
L 184 2988 
L 184 3322 
L 691 3322 
L 691 4353 
L 1269 4353 
L 1269 3322 
L 2350 3322 
L 2350 2988 
L 1269 2988 
L 1269 878 
Q 1269 456 1350 337 
Q 1431 219 1650 219 
Q 1875 219 1978 351 
Q 2081 484 2088 781 
L 2522 781 
Q 2497 328 2275 118 
Q 2053 -91 1600 -91 
Q 1103 -91 897 129 
Q 691 350 691 878 
L 691 2988 
z
" transform="scale(0.015625)"/>
       <path id="DejaVuSerif-73" d="M 359 184 
L 359 959 
L 691 959 
Q 703 588 923 403 
Q 1144 219 1575 219 
Q 1963 219 2166 364 
Q 2369 509 2369 788 
Q 2369 1006 2220 1140 
Q 2072 1275 1594 1428 
L 1178 1569 
Q 750 1706 558 1912 
Q 366 2119 366 2438 
Q 366 2894 700 3153 
Q 1034 3413 1625 3413 
Q 1888 3413 2178 3344 
Q 2469 3275 2778 3144 
L 2778 2419 
L 2447 2419 
Q 2434 2741 2221 2922 
Q 2009 3103 1644 3103 
Q 1281 3103 1095 2975 
Q 909 2847 909 2591 
Q 909 2381 1050 2254 
Q 1191 2128 1613 1997 
L 2069 1856 
Q 2541 1709 2748 1489 
Q 2956 1269 2956 922 
Q 2956 450 2595 179 
Q 2234 -91 1600 -91 
Q 1278 -91 972 -22 
Q 666 47 359 184 
z
" transform="scale(0.015625)"/>
      </defs>
      <use xlink:href="#DejaVuSerif-45"/>
      <use xlink:href="#DejaVuSerif-6e" x="72.998047"/>
      <use xlink:href="#DejaVuSerif-65" x="137.402344"/>
      <use xlink:href="#DejaVuSerif-72" x="196.582031"/>
      <use xlink:href="#DejaVuSerif-67" x="244.384766"/>
      <use xlink:href="#DejaVuSerif-79" x="308.398438"/>
      <use xlink:href="#DejaVuSerif-20" x="364.892578"/>
      <use xlink:href="#DejaVuSerif-43" x="396.679688"/>
      <use xlink:href="#DejaVuSerif-6f" x="473.193359"/>
      <use xlink:href="#DejaVuSerif-6d" x="533.398438"/>
      <use xlink:href="#DejaVuSerif-70" x="628.222656"/>
      <use xlink:href="#DejaVuSerif-6f" x="692.236328"/>
      <use xlink:href="#DejaVuSerif-6e" x="752.441406"/>
      <use xlink:href="#DejaVuSerif-65" x="816.845703"/>
      <use xlink:href="#DejaVuSerif-6e" x="876.025391"/>
      <use xlink:href="#DejaVuSerif-74" x="940.429688"/>
      <use xlink:href="#DejaVuSerif-73" x="980.615234"/>
      <use xlink:href="#DejaVuSerif-20" x="1031.933594"/>
      <use xlink:href="#DejaVuSerif-28" x="1063.720703"/>
      <use xlink:href="#DejaVuSerif-61" x="1102.734375"/>
      <use xlink:href="#DejaVuSerif-2e" x="1162.353516"/>
      <use xlink:href="#DejaVuSerif-75" x="1194.140625"/>
      <use xlink:href="#DejaVuSerif-2e" x="1258.544922"/>
      <use xlink:href="#DejaVuSerif-29" x="1290.332031"/>
     </g>
    </g>
   </g>
   <g id="line2d_23">
    <path d="M 141.657955 80.630355 
L 146.951481 79.033842 
L 152.245007 77.909597 
L 157.538533 81.999246 
L 162.832059 81.586766 
L 168.125585 83.848026 
L 173.419112 83.366113 
L 178.712638 84.63694 
L 184.006164 85.070233 
L 189.29969 83.279408 
L 194.593216 85.2472 
L 199.886742 82.128256 
L 205.180269 81.264429 
L 210.473795 80.145498 
L 215.767321 76.744212 
L 221.060847 77.198661 
L 226.354373 78.613815 
L 231.647899 77.022377 
L 236.941426 82.400595 
L 242.234952 80.025523 
L 247.528478 83.229918 
L 252.822004 82.87491 
L 258.11553 83.701204 
L 263.409056 83.033604 
L 268.702583 83.620642 
L 273.996109 84.45065 
L 279.289635 81.360495 
L 284.583161 83.83715 
L 289.876687 84.364367 
L 295.170213 83.06022 
L 300.46374 81.542849 
L 305.757266 82.380834 
L 311.050792 86.056596 
L 316.344318 85.42009 
L 321.637844 79.987485 
L 326.931371 79.248018 
L 332.224897 81.412379 
L 337.518423 79.677986 
L 342.811949 76.185916 
L 348.105475 77.477797 
L 353.399001 79.150323 
L 358.692528 77.068878 
L 363.986054 76.053279 
L 369.27958 79.312 
L 374.573106 80.172165 
L 379.866632 77.329995 
L 385.160158 78.723684 
L 390.453685 83.316643 
L 395.747211 83.879039 
L 401.040737 80.247413 
L 406.334263 79.139086 
L 411.627789 80.983041 
L 416.921315 81.844979 
L 422.214842 80.128007 
L 427.508368 77.724923 
L 432.801894 78.087758 
L 438.09542 80.126753 
L 443.388946 81.422859 
L 448.682472 80.850767 
L 453.975999 78.987111 
L 459.269525 78.62757 
L 464.563051 80.686112 
L 469.856577 83.267111 
L 475.150103 84.358832 
L 480.443629 82.133222 
L 485.737156 78.061833 
L 491.030682 76.940534 
L 496.324208 78.231361 
L 501.617734 81.478597 
L 506.91126 84.250228 
L 512.204787 84.069229 
L 517.498313 81.655561 
L 522.791839 79.891316 
L 528.085365 79.527847 
L 533.378891 83.023465 
L 538.672417 84.311458 
L 543.965944 85.214858 
L 549.25947 81.61306 
L 554.552996 77.884995 
L 559.846522 74.735455 
L 565.140048 75.68378 
L 570.433574 78.391444 
L 575.727101 80.039234 
L 581.020627 79.765553 
L 586.314153 78.879886 
L 591.607679 79.446181 
L 596.901205 81.15789 
L 602.194731 84.054866 
L 607.488258 87.140412 
L 612.781784 86.382748 
L 618.07531 83.429887 
L 623.368836 82.254078 
L 628.662362 82.01947 
L 633.955888 80.713157 
L 639.249415 80.268337 
L 644.542941 82.064674 
L 649.836467 84.837311 
L 655.129993 85.75884 
L 660.423519 85.122199 
L 665.717045 84.230261 
" clip-path="url(#p273dba22d6)" style="fill: none; stroke: #1f77b4; stroke-width: 3; stroke-linecap: square"/>
   </g>
   <g id="line2d_24">
    <path d="M 141.657955 397.153053 
L 146.951481 397.483301 
L 152.245007 399.582477 
L 157.538533 393.858579 
L 162.832059 394.197296 
L 168.125585 391.146033 
L 173.419112 391.970056 
L 178.712638 389.624004 
L 184.006164 390.173058 
L 189.29969 391.865883 
L 194.593216 389.913432 
L 199.886742 395.001119 
L 205.180269 394.903525 
L 210.473795 398.249775 
L 215.767321 400.311408 
L 221.060847 400.439405 
L 226.354373 398.001553 
L 231.647899 399.138725 
L 236.941426 393.470673 
L 242.234952 395.067139 
L 247.528478 392.322976 
L 252.822004 391.305556 
L 258.11553 392.155645 
L 263.409056 391.013501 
L 268.702583 392.153274 
L 273.996109 390.320181 
L 279.289635 393.617603 
L 284.583161 392.356048 
L 289.876687 389.978369 
L 295.170213 391.359929 
L 300.46374 394.687475 
L 305.757266 392.670028 
L 311.050792 387.666976 
L 316.344318 389.429576 
L 321.637844 395.617496 
L 326.931371 395.813204 
L 332.224897 394.593763 
L 337.518423 398.077153 
L 342.811949 401.631725 
L 348.105475 399.734019 
L 353.399001 398.723644 
L 358.692528 401.559663 
L 363.986054 401.339268 
L 369.27958 397.027051 
L 374.573106 396.618435 
L 379.866632 399.402683 
L 385.160158 396.368368 
L 390.453685 391.334282 
L 395.747211 392.124755 
L 401.040737 396.591101 
L 406.334263 396.838884 
L 411.627789 394.428439 
L 416.921315 394.104317 
L 422.214842 396.642767 
L 427.508368 398.807416 
L 432.801894 397.578545 
L 438.09542 395.423395 
L 443.388946 394.992239 
L 448.682472 396.695813 
L 453.975999 398.819575 
L 459.269525 398.372812 
L 464.563051 395.591031 
L 469.856577 393.044495 
L 475.150103 392.462707 
L 480.443629 395.354457 
L 485.737156 400.373062 
L 491.030682 401.377762 
L 496.324208 398.249391 
L 501.617734 394.63022 
L 506.91126 391.247196 
L 512.204787 392.493963 
L 517.498313 394.992654 
L 522.791839 396.893831 
L 528.085365 396.214244 
L 533.378891 392.180115 
L 538.672417 391.335725 
L 543.965944 391.065678 
L 549.25947 396.272215 
L 554.552996 400.86319 
L 559.846522 403.044545 
L 565.140048 401.227853 
L 570.433574 398.383314 
L 575.727101 397.279171 
L 581.020627 398.012767 
L 586.314153 398.071314 
L 591.607679 395.829085 
L 596.901205 393.473407 
L 602.194731 391.118587 
L 607.488258 387.927613 
L 612.781784 388.06695 
L 618.07531 391.693173 
L 623.368836 394.277077 
L 628.662362 394.41 
L 633.955888 394.493565 
L 639.249415 394.727897 
L 644.542941 393.681455 
L 649.836467 391.115077 
L 655.129993 389.522438 
L 660.423519 389.659736 
L 665.717045 390.915973 
" clip-path="url(#p273dba22d6)" style="fill: none; stroke: #ff7f0e; stroke-width: 3; stroke-linecap: square"/>
   </g>
   <g id="line2d_25">
    <path d="M 141.657955 136.248302 
L 146.951481 136.227178 
L 152.245007 136.164107 
L 157.538533 137.076739 
L 162.832059 137.332709 
L 168.125585 137.960538 
L 173.419112 138.091503 
L 178.712638 138.468754 
L 184.006164 138.456102 
L 189.29969 138.198806 
L 194.593216 138.235419 
L 199.886742 137.49667 
L 205.180269 137.221405 
L 210.473795 136.605153 
L 215.767321 136.267409 
L 221.060847 136.291859 
L 226.354373 136.758933 
L 231.647899 136.943948 
L 236.941426 137.697963 
L 242.234952 137.814935 
L 247.528478 138.207567 
L 252.822004 138.433965 
L 258.11553 138.397428 
L 263.409056 138.500947 
L 268.702583 138.393953 
L 273.996109 138.496133 
L 279.289635 138.227041 
L 284.583161 138.33237 
L 289.876687 138.554686 
L 295.170213 138.512201 
L 300.46374 138.237983 
L 305.757266 138.410093 
L 311.050792 138.845 
L 316.344318 138.612745 
L 321.637844 137.910125 
L 326.931371 137.707137 
L 332.224897 137.582549 
L 337.518423 136.969749 
L 342.811949 136.359148 
L 348.105475 136.345521 
L 353.399001 136.405462 
L 358.692528 136.239656 
L 363.986054 136.453274 
L 369.27958 137.097356 
L 374.573106 137.298856 
L 379.866632 137.103914 
L 385.160158 137.485014 
L 390.453685 138.051445 
L 395.747211 138.004762 
L 401.040737 137.585996 
L 406.334263 137.585115 
L 411.627789 137.837382 
L 416.921315 137.844743 
L 422.214842 137.533873 
L 427.508368 137.254591 
L 432.801894 137.28362 
L 438.09542 137.378196 
L 443.388946 137.28133 
L 448.682472 136.962079 
L 453.975999 136.610451 
L 459.269525 136.496456 
L 464.563051 136.590871 
L 469.856577 136.682598 
L 475.150103 136.628027 
L 480.443629 136.262269 
L 485.737156 135.685376 
L 491.030682 135.626607 
L 496.324208 136.046452 
L 501.617734 136.542655 
L 506.91126 137.104901 
L 512.204787 137.201133 
L 517.498313 137.178875 
L 522.791839 137.137325 
L 528.085365 137.238016 
L 533.378891 137.567886 
L 538.672417 137.548122 
L 543.965944 137.45351 
L 549.25947 136.8385 
L 554.552996 136.285876 
L 559.846522 135.98757 
L 565.140048 136.171592 
L 570.433574 136.551769 
L 575.727101 136.793328 
L 581.020627 136.869255 
L 586.314153 137.032246 
L 591.607679 137.399933 
L 596.901205 137.744997 
L 602.194731 138.043607 
L 607.488258 138.366769 
L 612.781784 138.382659 
L 618.07531 138.06298 
L 623.368836 137.819462 
L 628.662362 137.808209 
L 633.955888 137.770148 
L 639.249415 137.669218 
L 644.542941 137.686665 
L 649.836467 137.841115 
L 655.129993 137.898114 
L 660.423519 137.769527 
L 665.717045 137.539571 
" clip-path="url(#p273dba22d6)" style="fill: none; stroke: #2ca02c; stroke-width: 3; stroke-linecap: square"/>
   </g>
   <g id="line2d_26">
    <path d="M 141.657955 160.869672 
L 146.951481 161.884698 
L 152.245007 160.769615 
L 157.538533 161.586216 
L 162.832059 161.143731 
L 168.125585 161.340156 
L 173.419112 160.78739 
L 178.712638 161.473923 
L 184.006164 160.541387 
L 189.29969 160.863036 
L 194.593216 160.896261 
L 199.886742 159.704231 
L 205.180269 161.012578 
L 210.473795 159.538494 
L 215.767321 161.23763 
L 221.060847 160.519696 
L 226.354373 161.197521 
L 231.647899 161.169239 
L 236.941426 160.813656 
L 242.234952 161.302828 
L 247.528478 160.486173 
L 252.822004 161.577601 
L 258.11553 159.953486 
L 263.409056 161.652402 
L 268.702583 160.026947 
L 273.996109 160.98868 
L 279.289635 160.984918 
L 284.583161 159.714008 
L 289.876687 161.38382 
L 295.170213 161.269198 
L 300.46374 159.736988 
L 305.757266 160.795829 
L 311.050792 161.684555 
L 316.344318 160.778738 
L 321.637844 160.72489 
L 326.931371 161.469374 
L 332.224897 160.680416 
L 337.518423 159.635451 
L 342.811949 160.271069 
L 348.105475 160.90634 
L 353.399001 160.174386 
L 358.692528 159.571977 
L 363.986054 160.547667 
L 369.27958 160.904697 
L 374.573106 160.244213 
L 379.866632 160.524338 
L 385.160158 161.826112 
L 390.453685 161.767323 
L 395.747211 160.512076 
L 401.040737 160.045702 
L 406.334263 160.802394 
L 411.627789 161.043689 
L 416.921315 160.475639 
L 422.214842 159.971288 
L 427.508368 160.496748 
L 432.801894 161.327637 
L 438.09542 161.34463 
L 443.388946 160.597541 
L 448.682472 159.847069 
L 453.975999 160.029296 
L 459.269525 161.020344 
L 464.563051 161.681521 
L 469.856577 161.596228 
L 475.150103 161.202406 
L 480.443629 160.864622 
L 485.737156 160.411028 
L 491.030682 160.667176 
L 496.324208 162.017573 
L 501.617734 161.795095 
L 506.91126 161.795385 
L 512.204787 160.550533 
L 517.498313 160.444876 
L 522.791839 160.345775 
L 528.085365 161.25258 
L 533.378891 161.505491 
L 538.672417 161.063172 
L 543.965944 160.602519 
L 549.25947 159.593978 
L 554.552996 159.405089 
L 559.846522 160.675471 
L 565.140048 161.312762 
L 570.433574 161.044021 
L 575.727101 160.248684 
L 581.020627 159.719081 
L 586.314153 160.377226 
L 591.607679 161.612048 
L 596.901205 161.840388 
L 602.194731 160.993039 
L 607.488258 160.821134 
L 612.781784 161.405187 
L 618.07531 161.007388 
L 623.368836 159.845673 
L 628.662362 159.999452 
L 633.955888 161.259351 
L 639.249415 161.543398 
L 644.542941 160.788389 
L 649.836467 160.507583 
L 655.129993 161.209256 
L 660.423519 161.820541 
L 665.717045 161.641016 
" clip-path="url(#p273dba22d6)" style="fill: none; stroke: #d62728; stroke-width: 3; stroke-linecap: square"/>
   </g>
   <g id="line2d_27">
    <path d="M 141.657955 168.947969 
L 146.951481 169.084079 
L 152.245007 169.185639 
L 157.538533 169.138333 
L 162.832059 169.268453 
L 168.125585 169.25143 
L 173.419112 169.291254 
L 178.712638 169.297032 
L 184.006164 169.278473 
L 189.29969 169.295214 
L 194.593216 169.252714 
L 199.886742 169.233591 
L 205.180269 169.197721 
L 210.473795 169.129179 
L 215.767321 169.118155 
L 221.060847 169.173695 
L 226.354373 169.112658 
L 231.647899 169.261353 
L 236.941426 169.207297 
L 242.234952 169.293421 
L 247.528478 169.275462 
L 252.822004 169.302747 
L 258.11553 169.294919 
L 263.409056 169.298543 
L 268.702583 169.301388 
L 273.996109 169.271013 
L 279.289635 169.303666 
L 284.583161 169.279018 
L 289.876687 169.25821 
L 295.170213 169.297997 
L 300.46374 169.296055 
L 305.757266 169.270349 
L 311.050792 169.272344 
L 316.344318 169.278304 
L 321.637844 169.278634 
L 326.931371 169.279733 
L 332.224897 169.264145 
L 337.518423 169.218452 
L 342.811949 169.174534 
L 348.105475 169.166682 
L 353.399001 169.171689 
L 358.692528 169.178416 
L 363.986054 169.201713 
L 369.27958 169.228051 
L 374.573106 169.231811 
L 379.866632 169.218052 
L 385.160158 169.196992 
L 390.453685 169.163942 
L 395.747211 169.1385 
L 401.040737 169.163532 
L 406.334263 169.215865 
L 411.627789 169.252416 
L 416.921315 169.263891 
L 422.214842 169.260691 
L 427.508368 169.256711 
L 432.801894 169.259785 
L 438.09542 169.262174 
L 443.388946 169.251736 
L 448.682472 169.220832 
L 453.975999 169.175393 
L 459.269525 169.140006 
L 464.563051 169.123923 
L 469.856577 169.103592 
L 475.150103 169.072872 
L 480.443629 169.091477 
L 485.737156 169.132928 
L 491.030682 169.092486 
L 496.324208 169.126201 
L 501.617734 169.175458 
L 506.91126 169.200014 
L 512.204787 169.241432 
L 517.498313 169.262782 
L 522.791839 169.26456 
L 528.085365 169.282323 
L 533.378891 169.260363 
L 538.672417 169.269661 
L 543.965944 169.230659 
L 549.25947 169.23991 
L 554.552996 169.179045 
L 559.846522 169.176945 
L 565.140048 169.200525 
L 570.433574 169.213368 
L 575.727101 169.21851 
L 581.020627 169.215378 
L 586.314153 169.218329 
L 591.607679 169.255076 
L 596.901205 169.290427 
L 602.194731 169.293856 
L 607.488258 169.271083 
L 612.781784 169.280241 
L 618.07531 169.302167 
L 623.368836 169.300683 
L 628.662362 169.280251 
L 633.955888 169.280647 
L 639.249415 169.294316 
L 644.542941 169.28823 
L 649.836467 169.248405 
L 655.129993 169.204665 
L 660.423519 169.212959 
L 665.717045 169.23551 
" clip-path="url(#p273dba22d6)" style="fill: none; stroke: #9467bd; stroke-width: 3; stroke-linecap: square"/>
   </g>
   <g id="line2d_28">
    <path d="M 141.657955 266.582156 
L 146.951481 266.445902 
L 152.245007 266.344239 
L 157.538533 266.391917 
L 162.832059 266.261759 
L 168.125585 266.278988 
L 173.419112 266.23912 
L 178.712638 266.233457 
L 184.006164 266.252057 
L 189.29969 266.235152 
L 194.593216 266.277831 
L 199.886742 266.296671 
L 205.180269 266.332463 
L 210.473795 266.400903 
L 215.767321 266.411618 
L 221.060847 266.35612 
L 226.354373 266.417285 
L 231.647899 266.268446 
L 236.941426 266.322989 
L 242.234952 266.236651 
L 247.528478 266.254901 
L 252.822004 266.227583 
L 258.11553 266.235486 
L 263.409056 266.231801 
L 268.702583 266.229009 
L 273.996109 266.259461 
L 279.289635 266.226527 
L 284.583161 266.251399 
L 289.876687 266.272256 
L 295.170213 266.23235 
L 300.46374 266.234155 
L 305.757266 266.259937 
L 311.050792 266.258276 
L 316.344318 266.252258 
L 321.637844 266.251434 
L 326.931371 266.250269 
L 332.224897 266.266056 
L 337.518423 266.311594 
L 342.811949 266.355195 
L 348.105475 266.363164 
L 353.399001 266.35831 
L 358.692528 266.351394 
L 363.986054 266.328006 
L 369.27958 266.30196 
L 374.573106 266.298285 
L 379.866632 266.311787 
L 385.160158 266.332974 
L 390.453685 266.36644 
L 395.747211 266.391937 
L 401.040737 266.36655 
L 406.334263 266.314149 
L 411.627789 266.277771 
L 416.921315 266.266374 
L 422.214842 266.269432 
L 427.508368 266.273193 
L 432.801894 266.270151 
L 438.09542 266.267951 
L 443.388946 266.278509 
L 448.682472 266.309365 
L 453.975999 266.354631 
L 459.269525 266.389992 
L 464.563051 266.406262 
L 469.856577 266.426828 
L 475.150103 266.457647 
L 480.443629 266.438851 
L 485.737156 266.397031 
L 491.030682 266.437369 
L 496.324208 266.403782 
L 501.617734 266.354829 
L 506.91126 266.330528 
L 512.204787 266.289095 
L 517.498313 266.267552 
L 522.791839 266.265612 
L 528.085365 266.247815 
L 533.378891 266.270125 
L 538.672417 266.260943 
L 543.965944 266.300029 
L 549.25947 266.290467 
L 554.552996 266.350999 
L 559.846522 266.352791 
L 565.140048 266.329318 
L 570.433574 266.316721 
L 575.727101 266.31173 
L 581.020627 266.314838 
L 586.314153 266.311805 
L 591.607679 266.275127 
L 596.901205 266.239913 
L 602.194731 266.236759 
L 607.488258 266.259815 
L 612.781784 266.25059 
L 618.07531 266.228399 
L 623.368836 266.229777 
L 628.662362 266.250188 
L 633.955888 266.249673 
L 639.249415 266.235968 
L 644.542941 266.242217 
L 649.836467 266.282294 
L 655.129993 266.326118 
L 660.423519 266.317767 
L 665.717045 266.295136 
" clip-path="url(#p273dba22d6)" style="fill: none; stroke-dasharray: 11.1,4.8; stroke-dashoffset: 0; stroke: #000000; stroke-width: 3"/>
   </g>
   <g id="patch_3">
    <path d="M 115.455 419.46 
L 115.455 58.32 
" style="fill: none; stroke: #000000; stroke-width: 2; stroke-linejoin: miter; stroke-linecap: square"/>
   </g>
   <g id="patch_4">
    <path d="M 691.92 419.46 
L 691.92 58.32 
" style="fill: none; stroke: #000000; stroke-width: 2; stroke-linejoin: miter; stroke-linecap: square"/>
   </g>
   <g id="patch_5">
    <path d="M 115.455 419.46 
L 691.92 419.46 
" style="fill: none; stroke: #000000; stroke-width: 2; stroke-linejoin: miter; stroke-linecap: square"/>
   </g>
   <g id="patch_6">
    <path d="M 115.455 58.32 
L 691.92 58.32 
" style="fill: none; stroke: #000000; stroke-width: 2; stroke-linejoin: miter; stroke-linecap: square"/>
   </g>
   <g id="text_14">
    <!-- Energy Components vs. Time -->
    <g transform="translate(171.58875 51.38775) scale(0.312 -0.312)">
     <defs>
      <path id="DejaVuSerif-76" d="M 1581 0 
L 359 2988 
L -19 2988 
L -19 3322 
L 1509 3322 
L 1509 2988 
L 978 2988 
L 1913 703 
L 2847 2988 
L 2350 2988 
L 2350 3322 
L 3597 3322 
L 3597 2988 
L 3225 2988 
L 2003 0 
L 1581 0 
z
" transform="scale(0.015625)"/>
     </defs>
     <use xlink:href="#DejaVuSerif-45"/>
     <use xlink:href="#DejaVuSerif-6e" x="72.998047"/>
     <use xlink:href="#DejaVuSerif-65" x="137.402344"/>
     <use xlink:href="#DejaVuSerif-72" x="196.582031"/>
     <use xlink:href="#DejaVuSerif-67" x="244.384766"/>
     <use xlink:href="#DejaVuSerif-79" x="308.398438"/>
     <use xlink:href="#DejaVuSerif-20" x="364.892578"/>
     <use xlink:href="#DejaVuSerif-43" x="396.679688"/>
     <use xlink:href="#DejaVuSerif-6f" x="473.193359"/>
     <use xlink:href="#DejaVuSerif-6d" x="533.398438"/>
     <use xlink:href="#DejaVuSerif-70" x="628.222656"/>
     <use xlink:href="#DejaVuSerif-6f" x="692.236328"/>
     <use xlink:href="#DejaVuSerif-6e" x="752.441406"/>
     <use xlink:href="#DejaVuSerif-65" x="816.845703"/>
     <use xlink:href="#DejaVuSerif-6e" x="876.025391"/>
     <use xlink:href="#DejaVuSerif-74" x="940.429688"/>
     <use xlink:href="#DejaVuSerif-73" x="980.615234"/>
     <use xlink:href="#DejaVuSerif-20" x="1031.933594"/>
     <use xlink:href="#DejaVuSerif-76" x="1063.720703"/>
     <use xlink:href="#DejaVuSerif-73" x="1120.214844"/>
     <use xlink:href="#DejaVuSerif-2e" x="1171.533203"/>
     <use xlink:href="#DejaVuSerif-20" x="1203.320312"/>
     <use xlink:href="#DejaVuSerif-54" x="1235.107422"/>
     <use xlink:href="#DejaVuSerif-69" x="1301.806641"/>
     <use xlink:href="#DejaVuSerif-6d" x="1333.789062"/>
     <use xlink:href="#DejaVuSerif-65" x="1428.613281"/>
    </g>
   </g>
   <g id="legend_1">
    <g id="patch_7">
     <path d="M 129.455 409.46 
L 345.526875 409.46 
Q 349.526875 409.46 349.526875 405.46 
L 349.526875 231.038125 
Q 349.526875 227.038125 345.526875 227.038125 
L 129.455 227.038125 
Q 125.455 227.038125 125.455 231.038125 
L 125.455 405.46 
Q 125.455 409.46 129.455 409.46 
z
" style="fill: #ffffff; opacity: 0.8; stroke: #cccccc; stroke-linejoin: miter"/>
    </g>
    <g id="line2d_29">
     <path d="M 133.455 243.235 
L 153.455 243.235 
L 173.455 243.235 
" style="fill: none; stroke: #1f77b4; stroke-width: 3; stroke-linecap: square"/>
    </g>
    <g id="text_15">
     <!-- Kinetic E -->
     <g transform="translate(189.455 250.235) scale(0.2 -0.2)">
      <defs>
       <path id="DejaVuSerif-4b" d="M 353 0 
L 353 331 
L 947 331 
L 947 4331 
L 353 4331 
L 353 4666 
L 2175 4666 
L 2175 4331 
L 1581 4331 
L 1581 2566 
L 3591 4331 
L 3084 4331 
L 3084 4666 
L 4634 4666 
L 4634 4331 
L 4109 4331 
L 2106 2572 
L 4347 331 
L 4878 331 
L 4878 0 
L 3794 0 
L 1581 2216 
L 1581 331 
L 2175 331 
L 2175 0 
L 353 0 
z
" transform="scale(0.015625)"/>
       <path id="DejaVuSerif-63" d="M 3291 997 
Q 3169 466 2822 187 
Q 2475 -91 1925 -91 
Q 1200 -91 759 389 
Q 319 869 319 1663 
Q 319 2459 759 2936 
Q 1200 3413 1925 3413 
Q 2241 3413 2553 3339 
Q 2866 3266 3181 3116 
L 3181 2266 
L 2847 2266 
Q 2781 2703 2561 2903 
Q 2341 3103 1931 3103 
Q 1466 3103 1228 2742 
Q 991 2381 991 1663 
Q 991 944 1227 581 
Q 1463 219 1931 219 
Q 2303 219 2525 412 
Q 2747 606 2828 997 
L 3291 997 
z
" transform="scale(0.015625)"/>
      </defs>
      <use xlink:href="#DejaVuSerif-4b"/>
      <use xlink:href="#DejaVuSerif-69" x="74.707031"/>
      <use xlink:href="#DejaVuSerif-6e" x="106.689453"/>
      <use xlink:href="#DejaVuSerif-65" x="171.09375"/>
      <use xlink:href="#DejaVuSerif-74" x="230.273438"/>
      <use xlink:href="#DejaVuSerif-69" x="270.458984"/>
      <use xlink:href="#DejaVuSerif-63" x="302.441406"/>
      <use xlink:href="#DejaVuSerif-20" x="358.447266"/>
      <use xlink:href="#DejaVuSerif-45" x="390.234375"/>
     </g>
    </g>
    <g id="line2d_30">
     <path d="M 133.455 272.59125 
L 153.455 272.59125 
L 173.455 272.59125 
" style="fill: none; stroke: #ff7f0e; stroke-width: 3; stroke-linecap: square"/>
    </g>
    <g id="text_16">
     <!-- PE e-N -->
     <g transform="translate(189.455 279.59125) scale(0.2 -0.2)">
      <defs>
       <path id="DejaVuSerif-50" d="M 1581 2375 
L 2406 2375 
Q 2872 2375 3115 2626 
Q 3359 2878 3359 3353 
Q 3359 3831 3115 4081 
Q 2872 4331 2406 4331 
L 1581 4331 
L 1581 2375 
z
M 353 0 
L 353 331 
L 947 331 
L 947 4331 
L 353 4331 
L 353 4666 
L 2559 4666 
Q 3259 4666 3668 4311 
Q 4078 3956 4078 3353 
Q 4078 2753 3668 2397 
Q 3259 2041 2559 2041 
L 1581 2041 
L 1581 331 
L 2303 331 
L 2303 0 
L 353 0 
z
" transform="scale(0.015625)"/>
       <path id="DejaVuSerif-2d" d="M 281 1959 
L 1881 1959 
L 1881 1472 
L 281 1472 
L 281 1959 
z
" transform="scale(0.015625)"/>
       <path id="DejaVuSerif-4e" d="M 313 0 
L 313 331 
L 941 331 
L 941 4331 
L 313 4331 
L 313 4666 
L 1509 4666 
L 4306 984 
L 4306 4331 
L 3681 4331 
L 3681 4666 
L 5319 4666 
L 5319 4331 
L 4691 4331 
L 4691 -91 
L 4313 -91 
L 1325 3841 
L 1325 331 
L 1953 331 
L 1953 0 
L 313 0 
z
" transform="scale(0.015625)"/>
      </defs>
      <use xlink:href="#DejaVuSerif-50"/>
      <use xlink:href="#DejaVuSerif-45" x="67.285156"/>
      <use xlink:href="#DejaVuSerif-20" x="140.283203"/>
      <use xlink:href="#DejaVuSerif-65" x="172.070312"/>
      <use xlink:href="#DejaVuSerif-2d" x="231.25"/>
      <use xlink:href="#DejaVuSerif-4e" x="265.039062"/>
     </g>
    </g>
    <g id="line2d_31">
     <path d="M 133.455 301.9475 
L 153.455 301.9475 
L 173.455 301.9475 
" style="fill: none; stroke: #2ca02c; stroke-width: 3; stroke-linecap: square"/>
    </g>
    <g id="text_17">
     <!-- PE e-e -->
     <g transform="translate(189.455 308.9475) scale(0.2 -0.2)">
      <use xlink:href="#DejaVuSerif-50"/>
      <use xlink:href="#DejaVuSerif-45" x="67.285156"/>
      <use xlink:href="#DejaVuSerif-20" x="140.283203"/>
      <use xlink:href="#DejaVuSerif-65" x="172.070312"/>
      <use xlink:href="#DejaVuSerif-2d" x="231.25"/>
      <use xlink:href="#DejaVuSerif-65" x="265.039062"/>
     </g>
    </g>
    <g id="line2d_32">
     <path d="M 133.455 331.30375 
L 153.455 331.30375 
L 173.455 331.30375 
" style="fill: none; stroke: #d62728; stroke-width: 3; stroke-linecap: square"/>
    </g>
    <g id="text_18">
     <!-- PE Heisenberg -->
     <g transform="translate(189.455 338.30375) scale(0.2 -0.2)">
      <defs>
       <path id="DejaVuSerif-48" d="M 353 0 
L 353 331 
L 947 331 
L 947 4331 
L 353 4331 
L 353 4666 
L 2175 4666 
L 2175 4331 
L 1581 4331 
L 1581 2719 
L 4000 2719 
L 4000 4331 
L 3406 4331 
L 3406 4666 
L 5228 4666 
L 5228 4331 
L 4634 4331 
L 4634 331 
L 5228 331 
L 5228 0 
L 3406 0 
L 3406 331 
L 4000 331 
L 4000 2338 
L 1581 2338 
L 1581 331 
L 2175 331 
L 2175 0 
L 353 0 
z
" transform="scale(0.015625)"/>
       <path id="DejaVuSerif-62" d="M 738 331 
L 738 4531 
L 184 4531 
L 184 4863 
L 1313 4863 
L 1313 2803 
Q 1481 3116 1742 3264 
Q 2003 3413 2388 3413 
Q 3000 3413 3387 2928 
Q 3775 2444 3775 1663 
Q 3775 881 3387 395 
Q 3000 -91 2388 -91 
Q 2003 -91 1742 57 
Q 1481 206 1313 519 
L 1313 0 
L 184 0 
L 184 331 
L 738 331 
z
M 1313 1497 
Q 1313 897 1542 583 
Q 1772 269 2209 269 
Q 2650 269 2876 622 
Q 3103 975 3103 1663 
Q 3103 2353 2876 2703 
Q 2650 3053 2209 3053 
Q 1772 3053 1542 2737 
Q 1313 2422 1313 1825 
L 1313 1497 
z
" transform="scale(0.015625)"/>
      </defs>
      <use xlink:href="#DejaVuSerif-50"/>
      <use xlink:href="#DejaVuSerif-45" x="67.285156"/>
      <use xlink:href="#DejaVuSerif-20" x="140.283203"/>
      <use xlink:href="#DejaVuSerif-48" x="172.070312"/>
      <use xlink:href="#DejaVuSerif-65" x="259.277344"/>
      <use xlink:href="#DejaVuSerif-69" x="318.457031"/>
      <use xlink:href="#DejaVuSerif-73" x="350.439453"/>
      <use xlink:href="#DejaVuSerif-65" x="401.757812"/>
      <use xlink:href="#DejaVuSerif-6e" x="460.9375"/>
      <use xlink:href="#DejaVuSerif-62" x="525.341797"/>
      <use xlink:href="#DejaVuSerif-65" x="589.355469"/>
      <use xlink:href="#DejaVuSerif-72" x="648.535156"/>
      <use xlink:href="#DejaVuSerif-67" x="696.337891"/>
     </g>
    </g>
    <g id="line2d_33">
     <path d="M 133.455 360.944375 
L 153.455 360.944375 
L 173.455 360.944375 
" style="fill: none; stroke: #9467bd; stroke-width: 3; stroke-linecap: square"/>
    </g>
    <g id="text_19">
     <!-- PE Pauli -->
     <g transform="translate(189.455 367.944375) scale(0.2 -0.2)">
      <defs>
       <path id="DejaVuSerif-6c" d="M 1313 331 
L 1856 331 
L 1856 0 
L 184 0 
L 184 331 
L 738 331 
L 738 4531 
L 184 4531 
L 184 4863 
L 1313 4863 
L 1313 331 
z
" transform="scale(0.015625)"/>
      </defs>
      <use xlink:href="#DejaVuSerif-50"/>
      <use xlink:href="#DejaVuSerif-45" x="67.285156"/>
      <use xlink:href="#DejaVuSerif-20" x="140.283203"/>
      <use xlink:href="#DejaVuSerif-50" x="172.070312"/>
      <use xlink:href="#DejaVuSerif-61" x="234.855469"/>
      <use xlink:href="#DejaVuSerif-75" x="294.474609"/>
      <use xlink:href="#DejaVuSerif-6c" x="358.878906"/>
      <use xlink:href="#DejaVuSerif-69" x="390.861328"/>
     </g>
    </g>
    <g id="line2d_34">
     <path d="M 133.455 390.300625 
L 153.455 390.300625 
L 173.455 390.300625 
" style="fill: none; stroke-dasharray: 11.1,4.8; stroke-dashoffset: 0; stroke: #000000; stroke-width: 3"/>
    </g>
    <g id="text_20">
     <!-- Total E -->
     <g transform="translate(189.455 397.300625) scale(0.2 -0.2)">
      <use xlink:href="#DejaVuSerif-54"/>
      <use xlink:href="#DejaVuSerif-6f" x="58.949219"/>
      <use xlink:href="#DejaVuSerif-74" x="119.154297"/>
      <use xlink:href="#DejaVuSerif-61" x="159.339844"/>
      <use xlink:href="#DejaVuSerif-6c" x="218.958984"/>
      <use xlink:href="#DejaVuSerif-20" x="250.941406"/>
      <use xlink:href="#DejaVuSerif-45" x="282.728516"/>
     </g>
    </g>
   </g>
  </g>
 </g>
 <defs>
  <clipPath id="p273dba22d6">
   <rect x="115.455" y="58.32" width="576.465" height="361.14"/>
  </clipPath>
 </defs>
</svg>
