<?xml version="1.0" encoding="utf-8" standalone="no"?>
<!DOCTYPE svg PUBLIC "-//W3C//DTD SVG 1.1//EN"
  "http://www.w3.org/Graphics/SVG/1.1/DTD/svg11.dtd">
<svg xmlns:xlink="http://www.w3.org/1999/xlink" width="720pt" height="504pt" viewBox="0 0 720 504" xmlns="http://www.w3.org/2000/svg" version="1.1">
 <metadata>
  <rdf:RDF xmlns:dc="http://purl.org/dc/elements/1.1/" xmlns:cc="http://creativecommons.org/ns#" xmlns:rdf="http://www.w3.org/1999/02/22-rdf-syntax-ns#">
   <cc:Work>
    <dc:type rdf:resource="http://purl.org/dc/dcmitype/StillImage"/>
    <dc:date>2025-07-11T14:31:42.972498</dc:date>
    <dc:format>image/svg+xml</dc:format>
    <dc:creator>
     <cc:Agent>
      <dc:title>Matplotlib v3.7.2, https://matplotlib.org/</dc:title>
     </cc:Agent>
    </dc:creator>
   </cc:Work>
  </rdf:RDF>
 </metadata>
 <defs>
  <style type="text/css">*{stroke-linejoin: round; stroke-linecap: butt}</style>
 </defs>
 <g id="figure_1">
  <g id="patch_1">
   <path d="M 0 504 
L 720 504 
L 720 0 
L 0 0 
z
" style="fill: #ffffff"/>
  </g>
  <g id="axes_1">
   <g id="patch_2">
    <path d="M 103.44 417.2325 
L 691.92 417.2325 
L 691.92 28.08 
L 103.44 28.08 
z
" style="fill: #ffffff"/>
   </g>
   <g id="matplotlib.axis_1">
    <g id="xtick_1">
     <g id="line2d_1">
      <path d="M 130.189091 417.2325 
L 130.189091 28.08 
" clip-path="url(#paaf3e169bd)" style="fill: none; stroke-dasharray: 3.7,1.6; stroke-dashoffset: 0; stroke: #b0b0b0; stroke-opacity: 0.5"/>
     </g>
     <g id="line2d_2">
      <defs>
       <path id="m8b369e46fc" d="M 0 0 
L 0 -10 
" style="stroke: #000000; stroke-width: 2"/>
      </defs>
      <g>
       <use xlink:href="#m8b369e46fc" x="130.189091" y="417.2325" style="stroke: #000000; stroke-width: 2"/>
      </g>
     </g>
     <g id="line2d_3">
      <defs>
       <path id="me185618823" d="M 0 0 
L 0 10 
" style="stroke: #000000; stroke-width: 2"/>
      </defs>
      <g>
       <use xlink:href="#me185618823" x="130.189091" y="28.08" style="stroke: #000000; stroke-width: 2"/>
      </g>
     </g>
     <g id="text_1">
      <!-- 0 -->
      <g transform="translate(121.917841 440.488438) scale(0.26 -0.26)">
       <defs>
        <path id="DejaVuSerif-30" d="M 2034 219 
Q 2513 219 2750 744 
Q 2988 1269 2988 2328 
Q 2988 3391 2750 3916 
Q 2513 4441 2034 4441 
Q 1556 4441 1318 3916 
Q 1081 3391 1081 2328 
Q 1081 1269 1318 744 
Q 1556 219 2034 219 
z
M 2034 -91 
Q 1275 -91 848 546 
Q 422 1184 422 2328 
Q 422 3475 848 4112 
Q 1275 4750 2034 4750 
Q 2797 4750 3222 4112 
Q 3647 3475 3647 2328 
Q 3647 1184 3222 546 
Q 2797 -91 2034 -91 
z
" transform="scale(0.015625)"/>
       </defs>
       <use xlink:href="#DejaVuSerif-30"/>
      </g>
     </g>
    </g>
    <g id="xtick_2">
     <g id="line2d_4">
      <path d="M 237.185455 417.2325 
L 237.185455 28.08 
" clip-path="url(#paaf3e169bd)" style="fill: none; stroke-dasharray: 3.7,1.6; stroke-dashoffset: 0; stroke: #b0b0b0; stroke-opacity: 0.5"/>
     </g>
     <g id="line2d_5">
      <g>
       <use xlink:href="#m8b369e46fc" x="237.185455" y="417.2325" style="stroke: #000000; stroke-width: 2"/>
      </g>
     </g>
     <g id="line2d_6">
      <g>
       <use xlink:href="#me185618823" x="237.185455" y="28.08" style="stroke: #000000; stroke-width: 2"/>
      </g>
     </g>
     <g id="text_2">
      <!-- 10 -->
      <g transform="translate(220.642955 440.488438) scale(0.26 -0.26)">
       <defs>
        <path id="DejaVuSerif-31" d="M 909 0 
L 909 331 
L 1722 331 
L 1722 4213 
L 781 3603 
L 781 4013 
L 1919 4750 
L 2350 4750 
L 2350 331 
L 3163 331 
L 3163 0 
L 909 0 
z
" transform="scale(0.015625)"/>
       </defs>
       <use xlink:href="#DejaVuSerif-31"/>
       <use xlink:href="#DejaVuSerif-30" x="63.623047"/>
      </g>
     </g>
    </g>
    <g id="xtick_3">
     <g id="line2d_7">
      <path d="M 344.181818 417.2325 
L 344.181818 28.08 
" clip-path="url(#paaf3e169bd)" style="fill: none; stroke-dasharray: 3.7,1.6; stroke-dashoffset: 0; stroke: #b0b0b0; stroke-opacity: 0.5"/>
     </g>
     <g id="line2d_8">
      <g>
       <use xlink:href="#m8b369e46fc" x="344.181818" y="417.2325" style="stroke: #000000; stroke-width: 2"/>
      </g>
     </g>
     <g id="line2d_9">
      <g>
       <use xlink:href="#me185618823" x="344.181818" y="28.08" style="stroke: #000000; stroke-width: 2"/>
      </g>
     </g>
     <g id="text_3">
      <!-- 20 -->
      <g transform="translate(327.639318 440.488438) scale(0.26 -0.26)">
       <defs>
        <path id="DejaVuSerif-32" d="M 819 3553 
L 469 3553 
L 469 4384 
Q 803 4563 1142 4656 
Q 1481 4750 1806 4750 
Q 2534 4750 2956 4397 
Q 3378 4044 3378 3438 
Q 3378 2753 2422 1800 
Q 2347 1728 2309 1691 
L 1131 513 
L 3078 513 
L 3078 1088 
L 3444 1088 
L 3444 0 
L 434 0 
L 434 341 
L 1850 1753 
Q 2319 2222 2519 2614 
Q 2719 3006 2719 3438 
Q 2719 3909 2473 4175 
Q 2228 4441 1797 4441 
Q 1350 4441 1106 4219 
Q 863 3997 819 3553 
z
" transform="scale(0.015625)"/>
       </defs>
       <use xlink:href="#DejaVuSerif-32"/>
       <use xlink:href="#DejaVuSerif-30" x="63.623047"/>
      </g>
     </g>
    </g>
    <g id="xtick_4">
     <g id="line2d_10">
      <path d="M 451.178182 417.2325 
L 451.178182 28.08 
" clip-path="url(#paaf3e169bd)" style="fill: none; stroke-dasharray: 3.7,1.6; stroke-dashoffset: 0; stroke: #b0b0b0; stroke-opacity: 0.5"/>
     </g>
     <g id="line2d_11">
      <g>
       <use xlink:href="#m8b369e46fc" x="451.178182" y="417.2325" style="stroke: #000000; stroke-width: 2"/>
      </g>
     </g>
     <g id="line2d_12">
      <g>
       <use xlink:href="#me185618823" x="451.178182" y="28.08" style="stroke: #000000; stroke-width: 2"/>
      </g>
     </g>
     <g id="text_4">
      <!-- 30 -->
      <g transform="translate(434.635682 440.488438) scale(0.26 -0.26)">
       <defs>
        <path id="DejaVuSerif-33" d="M 622 4469 
Q 988 4606 1323 4678 
Q 1659 4750 1953 4750 
Q 2638 4750 3022 4454 
Q 3406 4159 3406 3634 
Q 3406 3213 3140 2930 
Q 2875 2647 2388 2547 
Q 2963 2466 3280 2130 
Q 3597 1794 3597 1259 
Q 3597 606 3158 257 
Q 2719 -91 1894 -91 
Q 1528 -91 1179 -12 
Q 831 66 488 225 
L 488 1131 
L 838 1131 
Q 869 681 1141 450 
Q 1413 219 1906 219 
Q 2384 219 2661 495 
Q 2938 772 2938 1253 
Q 2938 1803 2653 2086 
Q 2369 2369 1819 2369 
L 1522 2369 
L 1522 2688 
L 1678 2688 
Q 2225 2688 2498 2914 
Q 2772 3141 2772 3597 
Q 2772 4006 2547 4223 
Q 2322 4441 1900 4441 
Q 1478 4441 1245 4241 
Q 1013 4041 972 3647 
L 622 3647 
L 622 4469 
z
" transform="scale(0.015625)"/>
       </defs>
       <use xlink:href="#DejaVuSerif-33"/>
       <use xlink:href="#DejaVuSerif-30" x="63.623047"/>
      </g>
     </g>
    </g>
    <g id="xtick_5">
     <g id="line2d_13">
      <path d="M 558.174545 417.2325 
L 558.174545 28.08 
" clip-path="url(#paaf3e169bd)" style="fill: none; stroke-dasharray: 3.7,1.6; stroke-dashoffset: 0; stroke: #b0b0b0; stroke-opacity: 0.5"/>
     </g>
     <g id="line2d_14">
      <g>
       <use xlink:href="#m8b369e46fc" x="558.174545" y="417.2325" style="stroke: #000000; stroke-width: 2"/>
      </g>
     </g>
     <g id="line2d_15">
      <g>
       <use xlink:href="#me185618823" x="558.174545" y="28.08" style="stroke: #000000; stroke-width: 2"/>
      </g>
     </g>
     <g id="text_5">
      <!-- 40 -->
      <g transform="translate(541.632045 440.488438) scale(0.26 -0.26)">
       <defs>
        <path id="DejaVuSerif-34" d="M 2234 1581 
L 2234 4063 
L 641 1581 
L 2234 1581 
z
M 3609 0 
L 1484 0 
L 1484 331 
L 2234 331 
L 2234 1247 
L 197 1247 
L 197 1588 
L 2241 4750 
L 2859 4750 
L 2859 1581 
L 3750 1581 
L 3750 1247 
L 2859 1247 
L 2859 331 
L 3609 331 
L 3609 0 
z
" transform="scale(0.015625)"/>
       </defs>
       <use xlink:href="#DejaVuSerif-34"/>
       <use xlink:href="#DejaVuSerif-30" x="63.623047"/>
      </g>
     </g>
    </g>
    <g id="xtick_6">
     <g id="line2d_16">
      <path d="M 665.170909 417.2325 
L 665.170909 28.08 
" clip-path="url(#paaf3e169bd)" style="fill: none; stroke-dasharray: 3.7,1.6; stroke-dashoffset: 0; stroke: #b0b0b0; stroke-opacity: 0.5"/>
     </g>
     <g id="line2d_17">
      <g>
       <use xlink:href="#m8b369e46fc" x="665.170909" y="417.2325" style="stroke: #000000; stroke-width: 2"/>
      </g>
     </g>
     <g id="line2d_18">
      <g>
       <use xlink:href="#me185618823" x="665.170909" y="28.08" style="stroke: #000000; stroke-width: 2"/>
      </g>
     </g>
     <g id="text_6">
      <!-- 50 -->
      <g transform="translate(648.628409 440.488438) scale(0.26 -0.26)">
       <defs>
        <path id="DejaVuSerif-35" d="M 3219 4666 
L 3219 4153 
L 1081 4153 
L 1081 2816 
Q 1244 2928 1461 2984 
Q 1678 3041 1947 3041 
Q 2703 3041 3140 2622 
Q 3578 2203 3578 1478 
Q 3578 738 3136 323 
Q 2694 -91 1894 -91 
Q 1572 -91 1234 -12 
Q 897 66 544 225 
L 544 1131 
L 897 1131 
Q 925 688 1179 453 
Q 1434 219 1894 219 
Q 2388 219 2653 544 
Q 2919 869 2919 1478 
Q 2919 2084 2655 2407 
Q 2391 2731 1894 2731 
Q 1613 2731 1398 2631 
Q 1184 2531 1019 2322 
L 750 2322 
L 750 4666 
L 3219 4666 
z
" transform="scale(0.015625)"/>
       </defs>
       <use xlink:href="#DejaVuSerif-35"/>
       <use xlink:href="#DejaVuSerif-30" x="63.623047"/>
      </g>
     </g>
    </g>
    <g id="text_7">
     <!-- $t$ (a.u.) -->
     <g transform="translate(354.26 469.651563) scale(0.26 -0.26)">
      <defs>
       <path id="Cmmi10-74" d="M 397 519 
Q 397 613 416 697 
L 878 2534 
L 206 2534 
Q 141 2534 141 2619 
Q 166 2759 225 2759 
L 934 2759 
L 1191 3803 
Q 1216 3888 1291 3947 
Q 1366 4006 1459 4006 
Q 1541 4006 1595 3957 
Q 1650 3909 1650 3828 
Q 1650 3809 1648 3798 
Q 1647 3788 1644 3775 
L 1388 2759 
L 2047 2759 
Q 2113 2759 2113 2675 
Q 2109 2659 2100 2621 
Q 2091 2584 2075 2559 
Q 2059 2534 2028 2534 
L 1331 2534 
L 872 684 
Q 825 503 825 372 
Q 825 97 1013 97 
Q 1294 97 1511 361 
Q 1728 625 1844 941 
Q 1869 978 1894 978 
L 1972 978 
Q 1997 978 2012 961 
Q 2028 944 2028 922 
Q 2028 909 2022 903 
Q 1881 516 1612 222 
Q 1344 -72 997 -72 
Q 744 -72 570 93 
Q 397 259 397 519 
z
" transform="scale(0.015625)"/>
       <path id="DejaVuSerif-20" transform="scale(0.015625)"/>
       <path id="DejaVuSerif-28" d="M 2041 -997 
Q 1281 -656 893 83 
Q 506 822 506 1931 
Q 506 3044 893 3783 
Q 1281 4522 2041 4863 
L 2041 4556 
Q 1559 4225 1350 3623 
Q 1141 3022 1141 1931 
Q 1141 844 1350 242 
Q 1559 -359 2041 -691 
L 2041 -997 
z
" transform="scale(0.015625)"/>
       <path id="DejaVuSerif-61" d="M 2547 1044 
L 2547 1747 
L 1806 1747 
Q 1378 1747 1168 1562 
Q 959 1378 959 997 
Q 959 650 1171 447 
Q 1384 244 1747 244 
Q 2106 244 2326 466 
Q 2547 688 2547 1044 
z
M 3122 2075 
L 3122 331 
L 3634 331 
L 3634 0 
L 2547 0 
L 2547 359 
Q 2356 128 2106 18 
Q 1856 -91 1522 -91 
Q 969 -91 644 203 
Q 319 497 319 997 
Q 319 1513 691 1797 
Q 1063 2081 1741 2081 
L 2547 2081 
L 2547 2309 
Q 2547 2688 2317 2895 
Q 2088 3103 1672 3103 
Q 1328 3103 1125 2947 
Q 922 2791 872 2484 
L 575 2484 
L 575 3156 
Q 875 3284 1158 3348 
Q 1441 3413 1709 3413 
Q 2400 3413 2761 3070 
Q 3122 2728 3122 2075 
z
" transform="scale(0.015625)"/>
       <path id="DejaVuSerif-2e" d="M 603 325 
Q 603 500 722 622 
Q 841 744 1019 744 
Q 1191 744 1312 622 
Q 1434 500 1434 325 
Q 1434 153 1312 31 
Q 1191 -91 1019 -91 
Q 841 -91 722 29 
Q 603 150 603 325 
z
" transform="scale(0.015625)"/>
       <path id="DejaVuSerif-75" d="M 2266 3322 
L 3341 3322 
L 3341 331 
L 3884 331 
L 3884 0 
L 2766 0 
L 2766 588 
Q 2606 256 2353 82 
Q 2100 -91 1766 -91 
Q 1213 -91 952 223 
Q 691 538 691 1209 
L 691 2988 
L 172 2988 
L 172 3322 
L 1269 3322 
L 1269 1388 
Q 1269 781 1417 556 
Q 1566 331 1947 331 
Q 2347 331 2556 625 
Q 2766 919 2766 1478 
L 2766 2988 
L 2266 2988 
L 2266 3322 
z
" transform="scale(0.015625)"/>
       <path id="DejaVuSerif-29" d="M 453 -997 
L 453 -691 
Q 934 -359 1145 242 
Q 1356 844 1356 1931 
Q 1356 3022 1145 3623 
Q 934 4225 453 4556 
L 453 4863 
Q 1216 4522 1603 3783 
Q 1991 3044 1991 1931 
Q 1991 822 1603 83 
Q 1216 -656 453 -997 
z
" transform="scale(0.015625)"/>
      </defs>
      <use xlink:href="#Cmmi10-74" transform="translate(0 0.015625)"/>
      <use xlink:href="#DejaVuSerif-20" transform="translate(36.083984 0.015625)"/>
      <use xlink:href="#DejaVuSerif-28" transform="translate(67.871094 0.015625)"/>
      <use xlink:href="#DejaVuSerif-61" transform="translate(106.884766 0.015625)"/>
      <use xlink:href="#DejaVuSerif-2e" transform="translate(166.503906 0.015625)"/>
      <use xlink:href="#DejaVuSerif-75" transform="translate(198.291016 0.015625)"/>
      <use xlink:href="#DejaVuSerif-2e" transform="translate(262.695312 0.015625)"/>
      <use xlink:href="#DejaVuSerif-29" transform="translate(294.482422 0.015625)"/>
     </g>
    </g>
   </g>
   <g id="matplotlib.axis_2">
    <g id="ytick_1">
     <g id="line2d_19">
      <path d="M 103.44 355.825495 
L 691.92 355.825495 
" clip-path="url(#paaf3e169bd)" style="fill: none; stroke-dasharray: 3.7,1.6; stroke-dashoffset: 0; stroke: #b0b0b0; stroke-opacity: 0.5"/>
     </g>
     <g id="line2d_20">
      <defs>
       <path id="mebd2068248" d="M 0 0 
L 10 0 
" style="stroke: #000000; stroke-width: 2"/>
      </defs>
      <g>
       <use xlink:href="#mebd2068248" x="103.44" y="355.825495" style="stroke: #000000; stroke-width: 2"/>
      </g>
     </g>
     <g id="line2d_21">
      <defs>
       <path id="mf081806e21" d="M 0 0 
L -10 0 
" style="stroke: #000000; stroke-width: 2"/>
      </defs>
      <g>
       <use xlink:href="#mf081806e21" x="691.92" y="355.825495" style="stroke: #000000; stroke-width: 2"/>
      </g>
     </g>
     <g id="text_8">
      <!-- −6 -->
      <g transform="translate(61.610313 365.703464) scale(0.26 -0.26)">
       <defs>
        <path id="DejaVuSerif-2212" d="M 678 2259 
L 4684 2259 
L 4684 1753 
L 678 1753 
L 678 2259 
z
" transform="scale(0.015625)"/>
        <path id="DejaVuSerif-36" d="M 2094 219 
Q 2534 219 2771 542 
Q 3009 866 3009 1472 
Q 3009 2078 2771 2401 
Q 2534 2725 2094 2725 
Q 1647 2725 1412 2412 
Q 1178 2100 1178 1509 
Q 1178 888 1415 553 
Q 1653 219 2094 219 
z
M 1075 2569 
Q 1288 2803 1556 2918 
Q 1825 3034 2163 3034 
Q 2859 3034 3264 2615 
Q 3669 2197 3669 1472 
Q 3669 763 3233 336 
Q 2797 -91 2069 -91 
Q 1278 -91 853 498 
Q 428 1088 428 2181 
Q 428 3406 931 4078 
Q 1434 4750 2350 4750 
Q 2597 4750 2869 4703 
Q 3141 4656 3425 4563 
L 3425 3794 
L 3072 3794 
Q 3034 4109 2831 4275 
Q 2628 4441 2284 4441 
Q 1678 4441 1381 3981 
Q 1084 3522 1075 2569 
z
" transform="scale(0.015625)"/>
       </defs>
       <use xlink:href="#DejaVuSerif-2212"/>
       <use xlink:href="#DejaVuSerif-36" x="83.789062"/>
      </g>
     </g>
    </g>
    <g id="ytick_2">
     <g id="line2d_22">
      <path d="M 103.44 286.747717 
L 691.92 286.747717 
" clip-path="url(#paaf3e169bd)" style="fill: none; stroke-dasharray: 3.7,1.6; stroke-dashoffset: 0; stroke: #b0b0b0; stroke-opacity: 0.5"/>
     </g>
     <g id="line2d_23">
      <g>
       <use xlink:href="#mebd2068248" x="103.44" y="286.747717" style="stroke: #000000; stroke-width: 2"/>
      </g>
     </g>
     <g id="line2d_24">
      <g>
       <use xlink:href="#mf081806e21" x="691.92" y="286.747717" style="stroke: #000000; stroke-width: 2"/>
      </g>
     </g>
     <g id="text_9">
      <!-- −4 -->
      <g transform="translate(61.610313 296.625686) scale(0.26 -0.26)">
       <use xlink:href="#DejaVuSerif-2212"/>
       <use xlink:href="#DejaVuSerif-34" x="83.789062"/>
      </g>
     </g>
    </g>
    <g id="ytick_3">
     <g id="line2d_25">
      <path d="M 103.44 217.669939 
L 691.92 217.669939 
" clip-path="url(#paaf3e169bd)" style="fill: none; stroke-dasharray: 3.7,1.6; stroke-dashoffset: 0; stroke: #b0b0b0; stroke-opacity: 0.5"/>
     </g>
     <g id="line2d_26">
      <g>
       <use xlink:href="#mebd2068248" x="103.44" y="217.669939" style="stroke: #000000; stroke-width: 2"/>
      </g>
     </g>
     <g id="line2d_27">
      <g>
       <use xlink:href="#mf081806e21" x="691.92" y="217.669939" style="stroke: #000000; stroke-width: 2"/>
      </g>
     </g>
     <g id="text_10">
      <!-- −2 -->
      <g transform="translate(61.610313 227.547908) scale(0.26 -0.26)">
       <use xlink:href="#DejaVuSerif-2212"/>
       <use xlink:href="#DejaVuSerif-32" x="83.789062"/>
      </g>
     </g>
    </g>
    <g id="ytick_4">
     <g id="line2d_28">
      <path d="M 103.44 148.592161 
L 691.92 148.592161 
" clip-path="url(#paaf3e169bd)" style="fill: none; stroke-dasharray: 3.7,1.6; stroke-dashoffset: 0; stroke: #b0b0b0; stroke-opacity: 0.5"/>
     </g>
     <g id="line2d_29">
      <g>
       <use xlink:href="#mebd2068248" x="103.44" y="148.592161" style="stroke: #000000; stroke-width: 2"/>
      </g>
     </g>
     <g id="line2d_30">
      <g>
       <use xlink:href="#mf081806e21" x="691.92" y="148.592161" style="stroke: #000000; stroke-width: 2"/>
      </g>
     </g>
     <g id="text_11">
      <!-- 0 -->
      <g transform="translate(83.3975 158.47013) scale(0.26 -0.26)">
       <use xlink:href="#DejaVuSerif-30"/>
      </g>
     </g>
    </g>
    <g id="ytick_5">
     <g id="line2d_31">
      <path d="M 103.44 79.514384 
L 691.92 79.514384 
" clip-path="url(#paaf3e169bd)" style="fill: none; stroke-dasharray: 3.7,1.6; stroke-dashoffset: 0; stroke: #b0b0b0; stroke-opacity: 0.5"/>
     </g>
     <g id="line2d_32">
      <g>
       <use xlink:href="#mebd2068248" x="103.44" y="79.514384" style="stroke: #000000; stroke-width: 2"/>
      </g>
     </g>
     <g id="line2d_33">
      <g>
       <use xlink:href="#mf081806e21" x="691.92" y="79.514384" style="stroke: #000000; stroke-width: 2"/>
      </g>
     </g>
     <g id="text_12">
      <!-- 2 -->
      <g transform="translate(83.3975 89.392352) scale(0.26 -0.26)">
       <use xlink:href="#DejaVuSerif-32"/>
      </g>
     </g>
    </g>
    <g id="text_13">
     <!-- $E_i(t)$ (a.u.) -->
     <g transform="translate(51.110313 289.73625) rotate(-90) scale(0.26 -0.26)">
      <defs>
       <path id="Cmmi10-45" d="M 300 0 
Q 238 0 238 84 
Q 241 100 250 139 
Q 259 178 276 201 
Q 294 225 319 225 
Q 709 225 863 269 
Q 947 297 984 441 
L 1863 3956 
Q 1875 4019 1875 4044 
Q 1875 4113 1797 4122 
Q 1678 4147 1338 4147 
Q 1275 4147 1275 4231 
Q 1278 4247 1287 4286 
Q 1297 4325 1314 4348 
Q 1331 4372 1356 4372 
L 4825 4372 
Q 4891 4372 4891 4288 
L 4738 2963 
Q 4738 2947 4714 2926 
Q 4691 2906 4672 2906 
L 4616 2906 
Q 4550 2906 4550 2988 
Q 4588 3300 4588 3450 
Q 4588 3706 4500 3848 
Q 4413 3991 4267 4053 
Q 4122 4116 3945 4131 
Q 3769 4147 3481 4147 
L 2753 4147 
Q 2578 4147 2522 4117 
Q 2466 4088 2419 3928 
L 2034 2381 
L 2534 2381 
Q 2859 2381 3025 2426 
Q 3191 2472 3287 2615 
Q 3384 2759 3463 3072 
Q 3469 3094 3486 3111 
Q 3503 3128 3525 3128 
L 3584 3128 
Q 3647 3128 3647 3047 
L 3250 1466 
Q 3238 1409 3188 1409 
L 3128 1409 
Q 3066 1409 3066 1491 
Q 3128 1747 3128 1869 
Q 3128 2056 2959 2106 
Q 2791 2156 2509 2156 
L 1978 2156 
L 1544 416 
Q 1516 338 1516 275 
Q 1516 225 1734 225 
L 2509 225 
Q 2972 225 3259 297 
Q 3547 369 3736 526 
Q 3925 684 4062 928 
Q 4200 1172 4397 1638 
Q 4409 1678 4453 1678 
L 4513 1678 
Q 4538 1678 4556 1656 
Q 4575 1634 4575 1606 
Q 4575 1594 4569 1581 
L 3909 38 
Q 3897 0 3859 0 
L 300 0 
z
" transform="scale(0.015625)"/>
       <path id="Cmmi10-69" d="M 500 459 
Q 500 578 550 709 
L 1069 2088 
Q 1153 2322 1153 2472 
Q 1153 2663 1013 2663 
Q 759 2663 595 2402 
Q 431 2141 353 1819 
Q 341 1778 300 1778 
L 225 1778 
Q 172 1778 172 1838 
L 172 1856 
Q 275 2238 487 2533 
Q 700 2828 1025 2828 
Q 1253 2828 1411 2678 
Q 1569 2528 1569 2297 
Q 1569 2178 1516 2047 
L 997 672 
Q 909 459 909 288 
Q 909 97 1056 97 
Q 1306 97 1473 364 
Q 1641 631 1709 941 
Q 1722 978 1759 978 
L 1838 978 
Q 1863 978 1878 961 
Q 1894 944 1894 922 
Q 1894 916 1888 903 
Q 1800 541 1583 234 
Q 1366 -72 1044 -72 
Q 819 -72 659 83 
Q 500 238 500 459 
z
M 1222 3878 
Q 1222 4013 1334 4122 
Q 1447 4231 1581 4231 
Q 1691 4231 1761 4164 
Q 1831 4097 1831 3994 
Q 1831 3850 1717 3742 
Q 1603 3634 1466 3634 
Q 1363 3634 1292 3704 
Q 1222 3775 1222 3878 
z
" transform="scale(0.015625)"/>
       <path id="Cmr10-28" d="M 1984 -1588 
Q 1628 -1306 1370 -942 
Q 1113 -578 948 -165 
Q 784 247 703 697 
Q 622 1147 622 1600 
Q 622 2059 703 2509 
Q 784 2959 951 3375 
Q 1119 3791 1378 4153 
Q 1638 4516 1984 4788 
Q 1984 4800 2016 4800 
L 2075 4800 
Q 2094 4800 2109 4783 
Q 2125 4766 2125 4744 
Q 2125 4716 2113 4703 
Q 1800 4397 1592 4047 
Q 1384 3697 1257 3301 
Q 1131 2906 1075 2482 
Q 1019 2059 1019 1600 
Q 1019 -434 2106 -1491 
Q 2125 -1509 2125 -1544 
Q 2125 -1559 2108 -1579 
Q 2091 -1600 2075 -1600 
L 2016 -1600 
Q 1984 -1600 1984 -1588 
z
" transform="scale(0.015625)"/>
       <path id="Cmr10-29" d="M 416 -1600 
Q 359 -1600 359 -1544 
Q 359 -1516 372 -1503 
Q 1466 -434 1466 1600 
Q 1466 3634 384 4691 
Q 359 4706 359 4744 
Q 359 4766 376 4783 
Q 394 4800 416 4800 
L 475 4800 
Q 494 4800 506 4788 
Q 966 4425 1272 3906 
Q 1578 3388 1720 2800 
Q 1863 2213 1863 1600 
Q 1863 1147 1786 708 
Q 1709 269 1542 -157 
Q 1375 -584 1119 -945 
Q 863 -1306 506 -1588 
Q 494 -1600 475 -1600 
L 416 -1600 
z
" transform="scale(0.015625)"/>
      </defs>
      <use xlink:href="#Cmmi10-45" transform="translate(0 0.015625)"/>
      <use xlink:href="#Cmmi10-69" transform="translate(73.779297 -16.990625) scale(0.7)"/>
      <use xlink:href="#Cmr10-28" transform="translate(104.25332 0.015625)"/>
      <use xlink:href="#Cmmi10-74" transform="translate(143.07168 0.015625)"/>
      <use xlink:href="#Cmr10-29" transform="translate(179.155664 0.015625)"/>
      <use xlink:href="#DejaVuSerif-20" transform="translate(217.974023 0.015625)"/>
      <use xlink:href="#DejaVuSerif-28" transform="translate(249.761133 0.015625)"/>
      <use xlink:href="#DejaVuSerif-61" transform="translate(288.774805 0.015625)"/>
      <use xlink:href="#DejaVuSerif-2e" transform="translate(348.393945 0.015625)"/>
      <use xlink:href="#DejaVuSerif-75" transform="translate(380.181055 0.015625)"/>
      <use xlink:href="#DejaVuSerif-2e" transform="translate(444.585352 0.015625)"/>
      <use xlink:href="#DejaVuSerif-29" transform="translate(476.372461 0.015625)"/>
     </g>
    </g>
   </g>
   <g id="line2d_34">
    <path d="M 130.189091 71.029825 
L 130.724608 70.874099 
L 131.260126 70.901272 
L 131.795643 71.115112 
L 132.866678 72.01205 
L 135.008747 74.356451 
L 135.544264 74.76189 
L 136.079782 75.02147 
L 136.615299 75.119513 
L 137.150816 75.054211 
L 137.686334 74.838282 
L 138.757368 74.07336 
L 140.36392 72.800971 
L 140.899438 72.551265 
L 141.434955 72.455566 
L 141.970472 72.530536 
L 142.50599 72.773614 
L 143.577024 73.666522 
L 145.719094 75.875744 
L 146.790128 76.517568 
L 147.325646 76.631837 
L 147.861163 76.602175 
L 148.932198 76.161415 
L 151.609784 74.374959 
L 152.145302 74.224907 
L 152.680819 74.214099 
L 153.216336 74.348647 
L 154.287371 75.008074 
L 157.500475 77.873961 
L 158.57151 78.299538 
L 159.642544 78.271211 
L 160.713579 77.860037 
L 163.391166 76.461549 
L 164.4622 76.3386 
L 165.533235 76.642052 
L 166.60427 77.31426 
L 169.817374 79.864642 
L 170.888408 80.361888 
L 171.959443 80.55404 
L 173.030478 80.465848 
L 174.63703 79.99887 
L 176.243582 79.505782 
L 177.314616 79.363607 
L 178.385651 79.457788 
L 179.456686 79.800645 
L 181.063238 80.685224 
L 184.811859 83.12034 
L 186.418411 83.83171 
L 188.024963 84.256532 
L 190.167032 84.496112 
L 194.451171 84.794761 
L 196.593241 85.176384 
L 204.090483 86.782118 
L 205.697035 86.788718 
L 207.303587 86.56263 
L 208.910139 86.076543 
L 210.516691 85.328411 
L 212.658761 83.998597 
L 215.871865 81.926039 
L 216.942899 81.481776 
L 218.013934 81.296381 
L 219.084969 81.435754 
L 220.156003 81.930578 
L 221.227038 82.760972 
L 222.83359 84.457092 
L 224.975659 86.839994 
L 226.046694 87.728176 
L 227.117729 88.217345 
L 227.653246 88.273549 
L 228.188763 88.186995 
L 228.724281 87.94731 
L 229.259798 87.546518 
L 229.795315 86.979608 
L 230.86635 85.34576 
L 231.937385 83.091975 
L 233.543937 78.929548 
L 234.614971 76.151046 
L 235.686006 74.004315 
L 236.221523 73.362307 
L 236.757041 73.095173 
L 237.292558 73.240088 
L 237.828075 73.800771 
L 238.363593 74.743853 
L 239.434627 77.480273 
L 241.576697 83.537912 
L 242.112214 84.650142 
L 242.647731 85.481499 
L 243.183249 85.998791 
L 243.718766 86.180549 
L 244.254283 86.014893 
L 244.789801 85.498384 
L 245.325318 84.63593 
L 245.860835 83.442026 
L 246.93187 80.182209 
L 249.609457 70.590495 
L 250.144974 69.49633 
L 250.680491 69.040376 
L 251.216009 69.306848 
L 251.751526 70.29094 
L 252.287043 71.891847 
L 253.358078 76.190161 
L 254.429113 80.53351 
L 254.96463 82.293247 
L 255.500147 83.637573 
L 256.035665 84.509635 
L 256.571182 84.880442 
L 257.106699 84.740756 
L 257.642217 84.096075 
L 258.177734 82.965234 
L 258.713251 81.38235 
L 259.784286 77.107009 
L 261.390838 69.778563 
L 261.926355 67.896858 
L 262.461873 66.714401 
L 262.99739 66.436275 
L 263.532907 67.145506 
L 264.068425 68.767795 
L 265.139459 73.767832 
L 266.210494 79.011123 
L 266.746011 81.094843 
L 267.281529 82.630876 
L 267.817046 83.555874 
L 268.352563 83.84546 
L 268.888081 83.501986 
L 269.423598 82.546161 
L 269.959115 81.016091 
L 271.03015 76.506518 
L 272.636702 68.260219 
L 273.172219 66.094877 
L 273.707737 64.752742 
L 274.243254 64.494269 
L 274.778771 65.414904 
L 275.314289 67.392501 
L 276.385324 73.163526 
L 277.456358 78.76096 
L 277.991876 80.801135 
L 278.527393 82.162554 
L 279.06291 82.801423 
L 279.598428 82.714549 
L 280.133945 81.923671 
L 280.669462 80.470223 
L 281.20498 78.418717 
L 282.276014 72.962138 
L 283.347049 67.027471 
L 283.882566 64.651202 
L 284.418084 63.167922 
L 284.953601 62.880391 
L 285.489118 63.896415 
L 286.024636 66.064792 
L 288.166705 78.057532 
L 288.702222 80.069727 
L 289.23774 81.330275 
L 289.773257 81.809063 
L 290.308774 81.514136 
L 290.844292 80.479231 
L 291.379809 78.75932 
L 292.450844 73.634383 
L 294.057396 64.580519 
L 294.592913 62.468982 
L 295.12843 61.44855 
L 295.663948 61.758423 
L 296.199465 63.387227 
L 296.734982 66.048894 
L 298.341534 75.578275 
L 298.877052 77.974232 
L 299.412569 79.635124 
L 299.948086 80.503072 
L 300.483604 80.573062 
L 301.019121 79.871176 
L 301.554638 78.445583 
L 302.090156 76.368071 
L 303.16119 70.732001 
L 304.232225 64.5252 
L 304.767742 62.017304 
L 305.30326 60.429361 
L 305.838777 60.071817 
L 306.374294 61.05549 
L 306.909812 63.225452 
L 309.051881 75.330887 
L 309.587398 77.379002 
L 310.122916 78.678497 
L 310.658433 79.200249 
L 311.19395 78.955198 
L 311.729468 77.979057 
L 312.264985 76.328252 
L 313.33602 71.366049 
L 314.942572 62.404468 
L 315.478089 60.15342 
L 316.013606 58.848296 
L 316.549124 58.732141 
L 317.084641 59.851488 
L 317.620158 62.018442 
L 319.762228 73.48732 
L 320.297745 75.444326 
L 320.833262 76.72051 
L 321.36878 77.286705 
L 321.904297 77.150029 
L 322.439814 76.340683 
L 322.975332 74.907241 
L 323.510849 72.919039 
L 324.581884 67.706585 
L 326.188436 59.586314 
L 326.723953 57.847032 
L 327.25947 57.031009 
L 327.794988 57.266907 
L 328.330505 58.515408 
L 328.866022 60.575628 
L 331.008092 70.735262 
L 331.543609 72.514448 
L 332.079126 73.735632 
L 332.614644 74.368924 
L 333.150161 74.41438 
L 333.685678 73.891913 
L 334.221196 72.836636 
L 334.756713 71.298396 
L 335.827748 67.064808 
L 337.969817 57.467579 
L 338.505334 55.846669 
L 339.040852 54.886852 
L 339.576369 54.678166 
L 340.111886 55.218495 
L 340.647404 56.411906 
L 341.718438 60.048484 
L 343.32499 65.744254 
L 343.860508 67.143422 
L 344.396025 68.171244 
L 344.931542 68.800812 
L 345.46706 69.025324 
L 346.002577 68.85245 
L 346.538094 68.300734 
L 347.073612 67.397744 
L 348.144646 64.690694 
L 349.215681 61.126667 
L 351.35775 53.699052 
L 352.428785 51.094495 
L 352.964302 50.275832 
L 353.49982 49.800743 
L 354.035337 49.650764 
L 354.570854 49.783029 
L 355.106372 50.136635 
L 356.177406 51.222161 
L 357.248441 52.353746 
L 358.319476 53.107303 
L 358.854993 53.261325 
L 359.390511 53.246647 
L 359.926028 53.060703 
L 360.461545 52.709645 
L 361.53258 51.574888 
L 363.139132 49.192227 
L 364.745684 46.883068 
L 365.281201 46.326498 
L 365.816719 45.943783 
L 366.352236 45.76875 
L 366.887753 45.828116 
L 367.423271 46.139776 
L 367.958788 46.71152 
L 368.494305 47.540306 
L 369.56534 49.903099 
L 370.636375 53.001653 
L 373.849479 63.088561 
L 374.920513 65.445891 
L 375.456031 66.251315 
L 375.991548 66.764834 
L 376.527065 66.95895 
L 377.062583 66.8095 
L 377.5981 66.29649 
L 378.133617 65.40596 
L 378.669135 64.132744 
L 379.740169 60.493774 
L 382.417756 49.042753 
L 382.953273 47.772124 
L 383.488791 47.336554 
L 384.024308 47.840291 
L 384.559825 49.274302 
L 385.095343 51.521935 
L 386.166377 57.653103 
L 387.772929 67.718361 
L 388.843964 73.160299 
L 389.379481 75.224519 
L 389.914999 76.78149 
L 390.450516 77.793663 
L 390.986033 78.228493 
L 391.521551 78.054931 
L 392.057068 77.242117 
L 392.592585 75.761333 
L 393.128103 73.592961 
L 393.66362 70.741125 
L 394.734655 63.280965 
L 395.805689 55.02528 
L 396.341207 51.668174 
L 396.876724 49.520178 
L 397.412241 48.949873 
L 397.947759 50.043862 
L 398.483276 52.592349 
L 399.554311 60.371759 
L 401.160863 72.724544 
L 402.231897 78.65816 
L 402.767415 80.627877 
L 403.302932 81.869438 
L 403.838449 82.344334 
L 404.373967 82.011546 
L 404.909484 80.825163 
L 405.445001 78.739184 
L 405.980519 75.724138 
L 407.051553 67.103001 
L 408.122588 56.904863 
L 408.658105 52.743531 
L 409.193623 50.244911 
L 409.72914 49.89267 
L 410.264657 51.675165 
L 410.800175 55.140734 
L 413.477761 77.472805 
L 414.013279 80.499044 
L 414.548796 82.719935 
L 415.084313 84.088497 
L 415.619831 84.561273 
L 416.155348 84.087775 
L 416.690865 82.607437 
L 417.226383 80.058289 
L 417.7619 76.404925 
L 418.832935 66.176698 
L 419.903969 55.16601 
L 420.439487 51.578994 
L 420.975004 50.393741 
L 421.510521 51.766416 
L 422.046039 55.222709 
L 424.723625 78.97977 
L 425.259143 82.116155 
L 425.79466 84.358062 
L 426.330177 85.658018 
L 426.865695 85.96819 
L 427.401212 85.22839 
L 427.936729 83.364829 
L 428.472247 80.305457 
L 429.007764 76.024943 
L 430.078799 64.529894 
L 431.149833 53.683046 
L 431.685351 51.182154 
L 432.220868 51.516444 
L 432.756385 54.395428 
L 433.82742 64.36659 
L 434.898455 74.795496 
L 435.969489 82.515049 
L 436.505007 85.010785 
L 437.040524 86.521457 
L 437.576041 86.998727 
L 438.111559 86.380379 
L 438.647076 84.58697 
L 439.182594 81.536266 
L 439.718111 77.190326 
L 440.789146 65.340432 
L 441.324663 59.100071 
L 441.86018 54.172045 
L 442.395698 51.730481 
L 442.931215 52.278255 
L 443.466732 55.430938 
L 444.537767 65.793102 
L 445.608802 76.269378 
L 446.144319 80.484995 
L 446.679836 83.798973 
L 447.215354 86.141952 
L 447.750871 87.466872 
L 448.286388 87.723173 
L 448.821906 86.84325 
L 449.357423 84.74203 
L 449.89294 81.338434 
L 450.428458 76.616597 
L 452.570527 53.833857 
L 453.106044 52.259278 
L 453.641562 53.691924 
L 454.177079 57.501739 
L 456.854666 82.317545 
L 457.390183 85.306892 
L 457.9257 87.307507 
L 458.461218 88.275179 
L 458.996735 88.156213 
L 459.532252 86.877901 
L 460.06777 84.354335 
L 460.603287 80.518958 
L 461.674322 69.284429 
L 462.745356 57.242158 
L 463.280874 53.755902 
L 463.816391 53.197559 
L 464.351908 55.475263 
L 464.887426 59.781625 
L 467.029495 80.206725 
L 467.565012 83.80804 
L 468.10053 86.477395 
L 468.636047 88.168106 
L 469.171564 88.838386 
L 469.707082 88.434105 
L 470.242599 86.883438 
L 470.778116 84.107632 
L 471.313634 80.060691 
L 472.384668 68.715632 
L 473.455703 57.341812 
L 473.99122 54.39715 
L 474.526738 54.302448 
L 475.062255 56.838963 
L 476.13329 66.406658 
L 477.204324 76.676541 
L 478.275359 84.399356 
L 478.810876 86.959943 
L 479.346394 88.587031 
L 479.881911 89.243716 
L 480.417428 88.882954 
L 480.952946 87.442827 
L 481.488463 84.855825 
L 482.02398 81.08222 
L 483.095015 70.437167 
L 484.16605 59.28819 
L 484.701567 55.968356 
L 485.237084 55.219266 
L 485.772602 57.020028 
L 486.308119 60.738129 
L 488.450188 79.835588 
L 488.985706 83.465636 
L 489.521223 86.29439 
L 490.05674 88.275811 
L 490.592258 89.379047 
L 491.127775 89.571425 
L 491.663292 88.810148 
L 492.19881 87.043207 
L 492.734327 84.22407 
L 493.269844 80.349102 
L 494.340879 70.080735 
L 495.411914 60.055456 
L 495.947431 57.253578 
L 496.482948 56.748789 
L 497.018466 58.475614 
L 497.553983 61.890509 
L 500.23157 83.200527 
L 500.767087 86.023371 
L 501.302604 88.103211 
L 501.838122 89.413986 
L 502.373639 89.93385 
L 502.909156 89.636657 
L 503.444674 88.489874 
L 503.980191 86.460368 
L 504.515708 83.532142 
L 505.586743 75.234705 
L 506.657778 65.57414 
L 507.193295 61.656695 
L 507.728812 59.247736 
L 508.26433 58.73283 
L 508.799847 60.076085 
L 509.335364 62.889081 
L 510.406399 70.77008 
L 511.477434 78.772362 
L 512.548468 85.045525 
L 513.083986 87.307994 
L 513.619503 88.94451 
L 514.15502 89.940761 
L 514.690538 90.285585 
L 515.226055 89.966489 
L 515.761572 88.969139 
L 516.29709 87.281518 
L 516.832607 84.904403 
L 517.903642 78.271927 
L 519.510194 66.552938 
L 520.045711 63.670071 
L 520.581229 61.992539 
L 521.116746 61.716605 
L 521.652263 62.793374 
L 522.187781 64.973392 
L 523.258815 71.245273 
L 524.865367 81.082918 
L 525.936402 86.073578 
L 526.471919 87.915085 
L 527.007437 89.297667 
L 527.542954 90.217136 
L 528.078471 90.673839 
L 528.613989 90.669993 
L 529.149506 90.208812 
L 529.685023 89.29528 
L 530.220541 87.938654 
L 530.756058 86.157143 
L 531.827093 81.481414 
L 533.969162 70.631359 
L 534.504679 68.627111 
L 535.040197 67.284221 
L 535.575714 66.708008 
L 536.111231 66.915727 
L 536.646749 67.839474 
L 537.182266 69.353051 
L 538.253301 73.514683 
L 540.39537 82.597426 
L 541.466405 86.228113 
L 542.537439 88.922039 
L 543.072957 89.906007 
L 543.608474 90.653403 
L 544.143991 91.172608 
L 544.679509 91.474111 
L 545.215026 91.56984 
L 545.750543 91.472828 
L 546.286061 91.196987 
L 546.821578 90.757102 
L 547.892613 89.449436 
L 548.963647 87.6911 
L 553.247786 79.811047 
L 554.318821 78.596059 
L 554.854338 78.194558 
L 555.389855 77.933743 
L 555.925373 77.809407 
L 556.46089 77.812827 
L 557.531925 78.151582 
L 558.602959 78.829866 
L 560.209511 80.209314 
L 563.422615 83.118605 
L 565.029167 84.322548 
L 567.171237 85.608939 
L 569.848823 86.87816 
L 573.597445 88.389993 
L 575.203997 88.873483 
L 576.810549 89.091646 
L 577.881583 89.003474 
L 578.952618 88.663944 
L 580.023653 88.023019 
L 581.094687 87.04424 
L 582.165722 85.71605 
L 583.236757 84.065746 
L 586.985378 77.650296 
L 587.520895 77.052426 
L 588.056413 76.645092 
L 588.59193 76.457895 
L 589.127447 76.509674 
L 589.662965 76.805351 
L 590.198482 77.333968 
L 591.269517 78.969137 
L 594.482621 84.834401 
L 595.018138 85.42168 
L 595.553655 85.799869 
L 596.089173 85.948343 
L 596.62469 85.852999 
L 597.160207 85.506073 
L 597.695725 84.90622 
L 598.231242 84.059321 
L 599.302277 81.692053 
L 600.908829 77.031296 
L 601.979863 73.998358 
L 602.515381 72.806166 
L 603.050898 71.977431 
L 603.586416 71.60335 
L 604.121933 71.738348 
L 604.65745 72.385279 
L 605.192968 73.490331 
L 606.264002 76.62706 
L 607.870554 81.55281 
L 608.406072 82.775666 
L 608.941589 83.661222 
L 609.477106 84.16877 
L 610.012624 84.276067 
L 610.548141 83.975784 
L 611.083658 83.273687 
L 611.619176 82.188715 
L 612.69021 79.02636 
L 614.83228 71.174039 
L 615.367797 69.737203 
L 615.903314 68.866596 
L 616.438832 68.696431 
L 616.974349 69.274966 
L 617.509866 70.545439 
L 618.580901 74.477777 
L 619.651936 78.744576 
L 620.187453 80.507622 
L 620.72297 81.852507 
L 621.258488 82.709057 
L 621.794005 83.042353 
L 622.329522 82.843952 
L 622.86504 82.124424 
L 623.400557 80.913211 
L 623.936074 79.260379 
L 625.007109 74.971151 
L 626.078144 70.332608 
L 626.613661 68.406441 
L 627.149178 67.074361 
L 627.684696 66.548897 
L 628.220213 66.943635 
L 628.75573 68.226218 
L 629.826765 72.620573 
L 630.8978 77.471588 
L 631.433317 79.426589 
L 631.968834 80.862627 
L 632.504352 81.705959 
L 633.039869 81.927554 
L 633.575386 81.529526 
L 634.110904 80.537671 
L 634.646421 79.000454 
L 635.717456 74.631118 
L 637.324008 67.294891 
L 637.859525 65.645796 
L 638.395042 64.859181 
L 638.93056 65.101171 
L 639.466077 66.364653 
L 640.001594 68.451661 
L 642.143664 78.323886 
L 642.679181 79.812269 
L 643.214698 80.642013 
L 643.750216 80.789266 
L 644.285733 80.264594 
L 644.82125 79.104458 
L 645.356768 77.370925 
L 646.427802 72.605274 
L 647.498837 67.317406 
L 648.034354 65.150546 
L 648.569872 63.727687 
L 649.105389 63.306826 
L 649.640906 63.996922 
L 650.176424 65.703162 
L 651.247458 70.913037 
L 652.318493 76.044536 
L 652.85401 77.894762 
L 653.389528 79.089002 
L 653.925045 79.581533 
L 654.460562 79.370457 
L 654.99608 78.484105 
L 655.531597 76.976449 
L 656.602632 72.469027 
L 658.209184 64.628539 
L 658.744701 62.817525 
L 659.280218 61.916428 
L 659.815736 62.104441 
L 660.351253 63.377214 
L 660.88677 65.518871 
L 663.02884 75.642766 
L 663.564357 77.150923 
L 664.099874 77.983332 
L 664.635392 78.12093 
L 665.170909 77.5794 
L 665.170909 77.5794 
" clip-path="url(#paaf3e169bd)" style="fill: none; stroke: #1f77b4; stroke-width: 3; stroke-linecap: square"/>
   </g>
   <g id="line2d_35">
    <path d="M 130.189091 370.168661 
L 130.724608 370.04876 
L 131.260126 369.687631 
L 132.33116 368.382352 
L 134.47323 365.282364 
L 135.008747 364.797958 
L 135.544264 364.519723 
L 136.079782 364.46111 
L 136.615299 364.61553 
L 137.150816 364.957615 
L 138.221851 366.018497 
L 139.292886 367.156767 
L 139.828403 367.582491 
L 140.36392 367.833809 
L 140.899438 367.872385 
L 141.434955 367.683383 
L 141.970472 367.276941 
L 143.041507 365.962776 
L 144.648059 363.640375 
L 145.719094 362.563412 
L 146.254611 362.289718 
L 146.790128 362.212101 
L 147.325646 362.324616 
L 147.861163 362.605628 
L 148.932198 363.519212 
L 150.53875 364.965708 
L 151.074267 365.245882 
L 151.609784 365.353729 
L 152.145302 365.269325 
L 152.680819 364.99145 
L 153.751854 363.942019 
L 156.42944 360.536591 
L 156.964958 360.093148 
L 157.500475 359.800467 
L 158.035992 359.666909 
L 158.57151 359.689126 
L 159.107027 359.852581 
L 160.178062 360.496877 
L 161.784614 361.693855 
L 162.855648 362.175366 
L 163.391166 362.225954 
L 163.926683 362.129223 
L 164.4622 361.88456 
L 165.533235 361.005721 
L 167.139787 359.128127 
L 168.746339 357.373328 
L 169.817374 356.616449 
L 170.888408 356.289462 
L 171.959443 356.359764 
L 173.030478 356.709547 
L 175.172547 357.546552 
L 176.243582 357.687571 
L 177.314616 357.491749 
L 178.385651 356.939944 
L 179.456686 356.088121 
L 181.598755 353.934076 
L 183.205307 352.392459 
L 184.811859 351.211146 
L 185.882894 350.660819 
L 187.489446 350.133736 
L 192.844619 348.860817 
L 194.451171 348.094821 
L 196.057723 347.101156 
L 199.270827 344.745422 
L 201.948414 342.883182 
L 203.554966 342.002753 
L 205.161518 341.398565 
L 206.232553 341.186823 
L 207.303587 341.153813 
L 208.374622 341.3209 
L 209.445657 341.707279 
L 210.516691 342.32755 
L 211.587726 343.188196 
L 212.658761 344.282938 
L 214.265313 346.303669 
L 218.013934 351.484663 
L 219.084969 352.539861 
L 220.156003 353.150948 
L 220.691521 353.257098 
L 221.227038 353.220208 
L 221.762555 353.038609 
L 222.298073 352.715844 
L 223.369107 351.687489 
L 224.440142 350.265642 
L 227.117729 346.382466 
L 228.188763 345.362712 
L 228.724281 345.095122 
L 229.259798 345.027364 
L 229.795315 345.184354 
L 230.330833 345.586791 
L 230.86635 346.249982 
L 231.401867 347.182411 
L 232.472902 349.844243 
L 233.543937 353.433509 
L 236.221523 363.324498 
L 236.757041 364.681374 
L 237.292558 365.583446 
L 237.828075 365.959366 
L 238.363593 365.77661 
L 238.89911 365.047509 
L 239.434627 363.827393 
L 240.505662 360.301331 
L 242.647731 352.294159 
L 243.183249 350.751108 
L 243.718766 349.56798 
L 244.254283 348.807888 
L 244.789801 348.519735 
L 245.325318 348.738031 
L 245.860835 349.481676 
L 246.396353 350.751503 
L 246.93187 352.526691 
L 248.002905 357.36933 
L 250.144974 368.528429 
L 250.680491 370.42911 
L 251.216009 371.533123 
L 251.751526 371.711286 
L 252.287043 370.941917 
L 252.822561 369.315983 
L 253.893595 364.280214 
L 255.500147 355.864801 
L 256.035665 353.657217 
L 256.571182 351.988761 
L 257.106699 350.951425 
L 257.642217 350.607799 
L 258.177734 350.993409 
L 258.713251 352.11636 
L 259.248769 353.953736 
L 259.784286 356.44449 
L 260.855321 362.88713 
L 261.926355 369.794435 
L 262.461873 372.630443 
L 262.99739 374.58509 
L 263.532907 375.390827 
L 264.068425 374.930977 
L 264.603942 373.275043 
L 265.139459 370.664034 
L 267.817046 355.083942 
L 268.352563 353.342352 
L 268.888081 352.418243 
L 269.423598 352.369409 
L 269.959115 353.216302 
L 270.494633 354.941011 
L 271.03015 357.480193 
L 272.101185 364.44077 
L 273.172219 372.144678 
L 273.707737 375.294676 
L 274.243254 377.387572 
L 274.778771 378.097445 
L 275.314289 377.31156 
L 275.849806 375.168033 
L 276.920841 368.299758 
L 277.991876 360.8951 
L 278.527393 357.876612 
L 279.06291 355.615876 
L 279.598428 354.247337 
L 280.133945 353.849391 
L 280.669462 354.453572 
L 281.20498 356.04696 
L 281.740497 358.566334 
L 282.811532 365.791181 
L 283.882566 374.001555 
L 284.418084 377.377219 
L 284.953601 379.596415 
L 285.489118 380.292186 
L 286.024636 379.352067 
L 286.560153 376.95661 
L 287.631188 369.556048 
L 288.702222 361.907043 
L 289.23774 358.921367 
L 289.773257 356.793128 
L 290.308774 355.646198 
L 290.844292 355.544972 
L 291.379809 356.504046 
L 291.915326 358.488144 
L 292.450844 361.404267 
L 293.521878 369.25965 
L 294.592913 377.46364 
L 295.12843 380.457629 
L 295.663948 382.053153 
L 296.199465 381.980531 
L 296.734982 380.275523 
L 297.2705 377.263327 
L 299.412569 362.072259 
L 299.948086 359.493507 
L 300.483604 357.85991 
L 301.019121 357.260032 
L 301.554638 357.727954 
L 302.090156 359.248274 
L 302.625673 361.752475 
L 303.696708 369.085867 
L 304.767742 377.505755 
L 305.30326 380.985234 
L 305.838777 383.294789 
L 306.374294 384.063072 
L 306.909812 383.177834 
L 307.445329 380.834739 
L 308.516364 373.532743 
L 309.587398 365.959335 
L 310.122916 362.98614 
L 310.658433 360.844762 
L 311.19395 359.653275 
L 311.729468 359.471428 
L 312.264985 360.310589 
L 312.800502 362.135392 
L 313.33602 364.857395 
L 314.407054 372.289462 
L 315.478089 380.30176 
L 316.013606 383.442962 
L 316.549124 385.412088 
L 317.084641 385.924781 
L 317.620158 384.938213 
L 318.155676 382.658785 
L 319.22671 375.82066 
L 320.297745 368.751499 
L 320.833262 365.929856 
L 321.36878 363.841882 
L 321.904297 362.596344 
L 322.439814 362.251053 
L 322.975332 362.821508 
L 323.510849 364.283545 
L 324.046366 366.570069 
L 325.117401 373.08126 
L 326.723953 383.93179 
L 327.25947 386.450765 
L 327.794988 387.870052 
L 328.330505 388.037974 
L 328.866022 386.98669 
L 329.40154 384.918946 
L 330.472574 379.009667 
L 331.543609 372.875895 
L 332.079126 370.342457 
L 332.614644 368.373946 
L 333.150161 367.064355 
L 333.685678 366.46849 
L 334.221196 366.60854 
L 334.756713 367.477186 
L 335.29223 369.037522 
L 335.827748 371.220313 
L 336.898782 376.987974 
L 338.505334 386.340004 
L 339.040852 388.706832 
L 339.576369 390.339261 
L 340.111886 391.119327 
L 340.647404 391.028805 
L 341.182921 390.147302 
L 341.718438 388.629018 
L 342.789473 384.469158 
L 344.396025 378.14789 
L 344.931542 376.550552 
L 345.46706 375.341931 
L 346.002577 374.565293 
L 346.538094 374.244376 
L 347.073612 374.385822 
L 347.609129 374.98058 
L 348.144646 376.004511 
L 348.680164 377.418482 
L 349.751198 381.185585 
L 352.428785 392.148503 
L 353.49982 395.270998 
L 354.035337 396.326389 
L 354.570854 397.038759 
L 355.106372 397.434955 
L 355.641889 397.56053 
L 356.177406 397.472249 
L 357.248441 396.897856 
L 358.854993 395.834294 
L 359.926028 395.398933 
L 360.997063 395.302129 
L 362.068097 395.489876 
L 364.210167 396.001282 
L 364.745684 395.978989 
L 365.281201 395.833324 
L 365.816719 395.537548 
L 366.352236 395.07088 
L 366.887753 394.420268 
L 367.958788 392.561579 
L 369.029823 390.050921 
L 372.242927 381.485801 
L 373.313961 379.524956 
L 373.849479 378.902774 
L 374.384996 378.559754 
L 374.920513 378.518172 
L 375.456031 378.793837 
L 375.991548 379.395977 
L 376.527065 380.326369 
L 377.062583 381.579574 
L 378.133617 384.984866 
L 379.204652 389.333131 
L 380.811204 396.159521 
L 381.346721 397.932493 
L 381.882239 399.127355 
L 382.417756 399.54375 
L 382.953273 399.025103 
L 383.488791 397.497489 
L 384.024308 394.995141 
L 385.095343 387.722866 
L 387.237412 371.163732 
L 388.308447 365.280507 
L 388.843964 363.365552 
L 389.379481 362.20588 
L 389.914999 361.8266 
L 390.450516 362.236142 
L 390.986033 363.428716 
L 391.521551 365.384576 
L 392.057068 368.067545 
L 393.128103 375.346724 
L 395.270172 392.799729 
L 395.805689 395.833863 
L 396.341207 397.415267 
L 396.876724 397.197799 
L 397.412241 395.093734 
L 397.947759 391.322702 
L 399.018793 380.733682 
L 400.089828 369.647593 
L 401.160863 361.05844 
L 401.69638 358.175243 
L 402.231897 356.345448 
L 402.767415 355.603465 
L 403.302932 355.959423 
L 403.838449 357.404908 
L 404.373967 359.912972 
L 404.909484 363.431916 
L 405.980519 373.074975 
L 407.587071 389.946918 
L 408.122588 394.08175 
L 408.658105 396.266881 
L 409.193623 395.992045 
L 409.72914 393.209188 
L 410.264657 388.371971 
L 412.942244 358.936115 
L 413.477761 355.421502 
L 414.013279 353.163405 
L 414.548796 352.202637 
L 415.084313 352.550672 
L 415.619831 354.198273 
L 416.155348 357.114728 
L 416.690865 361.237215 
L 417.7619 372.527683 
L 419.368452 391.108192 
L 419.903969 394.709252 
L 420.439487 395.567302 
L 420.975004 393.399546 
L 421.510521 388.627054 
L 424.188108 356.885342 
L 424.723625 353.154562 
L 425.259143 350.828361 
L 425.79466 349.945287 
L 426.330177 350.513845 
L 426.865695 352.521236 
L 427.401212 355.93008 
L 427.936729 360.661254 
L 429.007764 373.327363 
L 430.078799 387.122949 
L 430.614316 392.258179 
L 431.149833 394.756107 
L 431.685351 393.951158 
L 432.220868 389.98295 
L 433.291903 376.368571 
L 434.362937 362.217997 
L 434.898455 356.615161 
L 435.433972 352.380415 
L 435.969489 349.627876 
L 436.505007 348.404954 
L 437.040524 348.7241 
L 437.576041 350.575407 
L 438.111559 353.924777 
L 438.647076 358.696387 
L 439.718111 371.73725 
L 440.789146 386.131479 
L 441.324663 391.474493 
L 441.86018 393.994478 
L 442.395698 393.001892 
L 442.931215 388.712252 
L 444.00225 374.516752 
L 445.073284 360.221856 
L 445.608802 354.699392 
L 446.144319 350.620867 
L 446.679836 348.085442 
L 447.215354 347.131139 
L 447.750871 347.764111 
L 448.286388 349.968897 
L 448.821906 353.702967 
L 449.357423 358.873833 
L 450.428458 372.59239 
L 451.499492 386.90091 
L 452.03501 391.64059 
L 452.570527 393.204506 
L 453.106044 391.140025 
L 453.641562 385.963758 
L 455.783631 357.301325 
L 456.319148 352.219103 
L 456.854666 348.635769 
L 457.390183 346.622572 
L 457.9257 346.201988 
L 458.461218 347.370218 
L 458.996735 350.101849 
L 459.532252 354.338819 
L 460.603287 366.724997 
L 462.209839 387.787829 
L 462.745356 391.55193 
L 463.280874 391.91007 
L 463.816391 388.740371 
L 464.351908 382.835328 
L 466.493978 354.764778 
L 467.029495 350.173357 
L 467.565012 347.084051 
L 468.10053 345.546053 
L 468.636047 345.569455 
L 469.171564 347.141398 
L 469.707082 350.226492 
L 470.242599 354.751994 
L 471.313634 367.4164 
L 472.384668 381.870634 
L 472.920186 387.565151 
L 473.455703 390.677673 
L 473.99122 390.4224 
L 474.526738 386.848197 
L 475.597772 373.534046 
L 476.668807 359.308204 
L 477.204324 353.60025 
L 477.739842 349.225234 
L 478.275359 346.294343 
L 478.810876 344.848798 
L 479.346394 344.893399 
L 479.881911 346.410904 
L 480.417428 349.362385 
L 480.952946 353.67456 
L 482.02398 365.719695 
L 483.095015 379.634395 
L 483.630532 385.356688 
L 484.16605 388.843135 
L 484.701567 389.287452 
L 485.237084 386.56673 
L 485.772602 381.314774 
L 487.914671 354.817433 
L 488.450188 350.119885 
L 488.985706 346.734162 
L 489.521223 344.717104 
L 490.05674 344.081304 
L 490.592258 344.81415 
L 491.127775 346.88387 
L 491.663292 350.235155 
L 492.19881 354.773614 
L 493.269844 366.645458 
L 494.340879 379.460257 
L 494.876396 384.410307 
L 495.411914 387.196853 
L 495.947431 387.219921 
L 496.482948 384.464233 
L 497.018466 379.511471 
L 499.160535 354.69904 
L 499.696052 350.133375 
L 500.23157 346.723241 
L 500.767087 344.52663 
L 501.302604 343.557201 
L 501.838122 343.802673 
L 502.373639 345.23259 
L 502.909156 347.798322 
L 503.444674 351.425805 
L 504.515708 361.339098 
L 506.12226 378.372317 
L 506.657778 382.479661 
L 507.193295 384.684411 
L 507.728812 384.57121 
L 508.26433 382.154407 
L 508.799847 377.876138 
L 511.477434 350.994523 
L 512.012951 347.454524 
L 512.548468 344.913548 
L 513.083986 343.393877 
L 513.619503 342.889419 
L 514.15502 343.375484 
L 514.690538 344.812818 
L 515.226055 347.147307 
L 515.761572 350.305627 
L 516.832607 358.647267 
L 518.974676 377.018827 
L 519.510194 379.774556 
L 520.045711 380.966303 
L 520.581229 380.411565 
L 521.116746 378.191038 
L 521.652263 374.623379 
L 523.258815 360.408483 
L 524.32985 351.773638 
L 524.865367 348.362619 
L 525.400885 345.671173 
L 525.936402 343.729823 
L 526.471919 342.541436 
L 527.007437 342.090151 
L 527.542954 342.346877 
L 528.078471 343.272196 
L 528.613989 344.817562 
L 529.149506 346.924892 
L 530.220541 352.53372 
L 532.898127 369.255999 
L 533.433645 371.692272 
L 533.969162 373.353324 
L 534.504679 374.090235 
L 535.040197 373.833375 
L 535.575714 372.609114 
L 536.111231 370.536913 
L 537.182266 364.634099 
L 539.324335 351.452182 
L 540.39537 346.361195 
L 541.466405 342.865847 
L 542.001922 341.732674 
L 542.537439 340.992761 
L 543.072957 340.623591 
L 543.608474 340.597003 
L 544.143991 340.880665 
L 544.679509 341.439277 
L 545.750543 343.230546 
L 546.821578 345.65891 
L 550.034682 353.63281 
L 551.105717 355.564022 
L 551.641234 356.264685 
L 552.176751 356.76625 
L 552.712269 357.06023 
L 553.247786 357.145423 
L 553.783303 357.027909 
L 554.318821 356.720559 
L 555.389855 355.615509 
L 556.46089 354.024296 
L 560.745029 346.80135 
L 561.816063 345.474993 
L 562.887098 344.467268 
L 563.958133 343.779851 
L 565.029167 343.390068 
L 566.100202 343.256387 
L 567.171237 343.32311 
L 568.777789 343.654645 
L 571.455375 344.252889 
L 573.061927 344.33347 
L 574.668479 344.113502 
L 578.417101 343.219977 
L 579.488135 343.281884 
L 580.55917 343.703471 
L 581.630205 344.597173 
L 582.701239 346.043923 
L 583.772274 348.068699 
L 584.843309 350.611623 
L 588.056413 358.974894 
L 588.59193 359.960356 
L 589.127447 360.681825 
L 589.662965 361.098008 
L 590.198482 361.18334 
L 590.733999 360.931228 
L 591.269517 360.355402 
L 591.805034 359.489253 
L 592.876069 357.096928 
L 595.018138 351.595273 
L 596.089173 349.594743 
L 596.62469 348.987468 
L 597.160207 348.700494 
L 597.695725 348.766173 
L 598.231242 349.206318 
L 598.766759 350.030586 
L 599.302277 351.234326 
L 600.373311 354.671988 
L 603.586416 367.057751 
L 604.121933 368.008472 
L 604.65745 368.304107 
L 605.192968 367.914787 
L 605.728485 366.879342 
L 606.264002 365.298549 
L 607.335037 361.107431 
L 608.941589 354.744172 
L 609.477106 353.176141 
L 610.012624 352.058117 
L 610.548141 351.458843 
L 611.083658 351.424514 
L 611.619176 351.978773 
L 612.154693 353.120843 
L 612.69021 354.822012 
L 613.761245 359.612516 
L 615.367797 368.025777 
L 615.903314 370.260044 
L 616.438832 371.787941 
L 616.974349 372.424475 
L 617.509866 372.089349 
L 618.045384 370.829308 
L 618.580901 368.801276 
L 621.258488 355.995702 
L 621.794005 354.43602 
L 622.329522 353.537789 
L 622.86504 353.362524 
L 623.400557 353.936954 
L 623.936074 355.252752 
L 624.471592 357.261953 
L 625.542626 362.920115 
L 627.149178 372.213125 
L 627.684696 374.273542 
L 628.220213 375.304005 
L 628.75573 375.155514 
L 629.291248 373.857579 
L 629.826765 371.608363 
L 632.504352 357.407066 
L 633.039869 355.870231 
L 633.575386 355.133772 
L 634.110904 355.250008 
L 634.646421 356.227793 
L 635.181938 358.030989 
L 635.717456 360.570897 
L 636.78849 367.171545 
L 637.859525 373.860087 
L 638.395042 376.279804 
L 638.93056 377.593553 
L 639.466077 377.59752 
L 640.001594 376.304611 
L 640.537112 373.934302 
L 643.214698 358.944927 
L 643.750216 357.438839 
L 644.285733 356.814316 
L 644.82125 357.115364 
L 645.356768 358.336973 
L 645.892285 360.422812 
L 646.96332 366.64349 
L 648.569872 376.921917 
L 649.105389 379.016376 
L 649.640906 379.836929 
L 650.176424 379.257557 
L 650.711941 377.399659 
L 651.782976 371.219585 
L 652.85401 364.533395 
L 653.389528 361.859405 
L 653.925045 359.924899 
L 654.460562 358.856351 
L 654.99608 358.720411 
L 655.531597 359.531553 
L 656.067114 361.25335 
L 656.602632 363.792306 
L 657.673666 370.589416 
L 658.744701 377.609118 
L 659.280218 380.17736 
L 659.815736 381.598365 
L 660.351253 381.654815 
L 660.88677 380.367878 
L 661.422288 377.974741 
L 664.099874 362.935257 
L 664.635392 361.448729 
L 665.170909 360.841304 
L 665.170909 360.841304 
" clip-path="url(#paaf3e169bd)" style="fill: none; stroke-dasharray: 11.1,4.8; stroke-dashoffset: 0; stroke: #ff7f0e; stroke-width: 3"/>
   </g>
   <g id="line2d_36">
    <path d="M 130.189091 118.923827 
L 131.795643 119.065907 
L 135.544264 119.693398 
L 137.150816 119.63233 
L 140.899438 119.221327 
L 142.50599 119.391974 
L 146.254611 120.03178 
L 147.861163 119.98483 
L 152.145302 119.58428 
L 153.751854 119.788672 
L 157.500475 120.433106 
L 159.107027 120.424662 
L 163.926683 120.057054 
L 165.533235 120.244075 
L 170.352891 121.020127 
L 172.49496 121.000608 
L 176.779099 120.800901 
L 178.921168 121.002677 
L 186.953928 122.193554 
L 194.451171 122.664528 
L 198.199793 123.27021 
L 204.090483 124.268772 
L 206.76807 124.493395 
L 208.910139 124.477603 
L 211.052209 124.234582 
L 213.194278 123.735141 
L 215.871865 122.815735 
L 218.549451 121.913176 
L 220.156003 121.629374 
L 221.762555 121.656063 
L 223.369107 121.971521 
L 228.188763 123.253432 
L 229.259798 123.314139 
L 230.330833 123.215232 
L 231.401867 122.934257 
L 232.472902 122.463106 
L 234.079454 121.449227 
L 236.221523 119.986722 
L 237.292558 119.556984 
L 238.363593 119.519975 
L 239.434627 119.885291 
L 241.041179 120.899157 
L 242.647731 121.927577 
L 243.718766 122.383011 
L 244.789801 122.554921 
L 245.860835 122.399328 
L 246.93187 121.90692 
L 248.002905 121.118875 
L 250.144974 119.272208 
L 250.680491 118.953496 
L 251.216009 118.768001 
L 251.751526 118.738057 
L 252.287043 118.866734 
L 253.358078 119.516176 
L 256.035665 121.652664 
L 257.106699 122.071314 
L 258.177734 122.065172 
L 259.248769 121.61453 
L 260.319803 120.772164 
L 262.461873 118.751989 
L 262.99739 118.450078 
L 263.532907 118.325636 
L 264.068425 118.396453 
L 264.603942 118.65058 
L 265.674977 119.538342 
L 267.281529 121.017988 
L 268.352563 121.636254 
L 268.888081 121.771186 
L 269.423598 121.778322 
L 269.959115 121.655519 
L 271.03015 121.038634 
L 272.101185 120.032304 
L 273.707737 118.462197 
L 274.243254 118.159596 
L 274.778771 118.057083 
L 275.314289 118.170206 
L 275.849806 118.477808 
L 276.920841 119.457163 
L 277.991876 120.503655 
L 279.06291 121.243504 
L 279.598428 121.434187 
L 280.133945 121.489482 
L 280.669462 121.405842 
L 281.20498 121.185731 
L 282.276014 120.381763 
L 284.418084 118.258596 
L 284.953601 117.955948 
L 285.489118 117.861258 
L 286.024636 117.988736 
L 286.560153 118.312678 
L 288.166705 119.845534 
L 289.23774 120.730029 
L 289.773257 121.012768 
L 290.308774 121.164745 
L 290.844292 121.178151 
L 291.379809 121.051782 
L 292.450844 120.408734 
L 294.057396 118.825752 
L 295.12843 117.93199 
L 295.663948 117.726562 
L 296.199465 117.73582 
L 296.734982 117.953823 
L 297.806017 118.823454 
L 299.412569 120.261598 
L 300.483604 120.791132 
L 301.019121 120.866264 
L 301.554638 120.80786 
L 302.090156 120.618542 
L 303.16119 119.892451 
L 305.30326 117.942639 
L 305.838777 117.661706 
L 306.374294 117.568574 
L 306.909812 117.675309 
L 307.980846 118.361898 
L 309.587398 119.726372 
L 310.658433 120.328535 
L 311.19395 120.468141 
L 311.729468 120.48941 
L 312.264985 120.391679 
L 313.33602 119.864257 
L 314.942572 118.531096 
L 316.013606 117.728108 
L 316.549124 117.504082 
L 317.084641 117.445966 
L 317.620158 117.556966 
L 318.691193 118.166191 
L 320.833262 119.644023 
L 321.904297 120.000814 
L 322.975332 119.977157 
L 324.046366 119.581758 
L 325.117401 118.896177 
L 326.723953 117.75512 
L 327.794988 117.342847 
L 328.330505 117.325345 
L 329.40154 117.64346 
L 332.614644 119.241489 
L 333.685678 119.4151 
L 334.756713 119.324837 
L 335.827748 118.989845 
L 337.4343 118.174464 
L 339.040852 117.396943 
L 340.111886 117.175429 
L 341.182921 117.261532 
L 342.789473 117.733543 
L 344.396025 118.198961 
L 346.002577 118.428897 
L 347.609129 118.406384 
L 349.215681 118.170018 
L 354.570854 117.016819 
L 356.712924 117.000054 
L 364.210167 117.29537 
L 369.56534 118.218892 
L 371.707409 118.167244 
L 374.920513 118.020568 
L 378.133617 117.957968 
L 379.740169 117.604613 
L 381.882239 116.99618 
L 382.953273 117.006924 
L 384.024308 117.394415 
L 385.63086 118.43649 
L 387.237412 119.430256 
L 388.308447 119.863085 
L 389.379481 120.077861 
L 390.450516 120.075638 
L 391.521551 119.851593 
L 392.592585 119.390387 
L 393.66362 118.694419 
L 395.805689 117.159415 
L 396.341207 116.996768 
L 396.876724 117.019542 
L 397.412241 117.239376 
L 398.483276 118.144067 
L 400.625345 120.276963 
L 401.69638 120.92231 
L 402.767415 121.164567 
L 403.838449 120.994832 
L 404.909484 120.417327 
L 405.980519 119.463171 
L 408.122588 117.263148 
L 408.658105 117.02476 
L 409.193623 117.055102 
L 409.72914 117.361974 
L 410.800175 118.566118 
L 412.406727 120.588489 
L 413.477761 121.466812 
L 414.013279 121.707507 
L 414.548796 121.80975 
L 415.084313 121.772706 
L 415.619831 121.597032 
L 416.155348 121.284892 
L 417.226383 120.276071 
L 419.368452 117.537005 
L 419.903969 117.127824 
L 420.439487 117.02985 
L 420.975004 117.278627 
L 421.510521 117.826965 
L 424.188108 121.466579 
L 424.723625 121.893006 
L 425.259143 122.158762 
L 425.79466 122.25964 
L 426.330177 122.194643 
L 426.865695 121.964903 
L 427.401212 121.574008 
L 428.472247 120.349381 
L 430.614316 117.350352 
L 431.149833 117.055464 
L 431.685351 117.150938 
L 432.220868 117.62235 
L 433.291903 119.243711 
L 434.362937 120.932736 
L 435.433972 122.109062 
L 435.969489 122.438601 
L 436.505007 122.585115 
L 437.040524 122.546834 
L 437.576041 122.324634 
L 438.111559 121.922219 
L 439.182594 120.620642 
L 441.324663 117.382439 
L 441.86018 117.075392 
L 442.395698 117.196754 
L 442.931215 117.722172 
L 444.00225 119.46672 
L 445.073284 121.230306 
L 446.144319 122.418697 
L 446.679836 122.733202 
L 447.215354 122.851704 
L 447.750871 122.772995 
L 448.286388 122.498615 
L 448.821906 122.033506 
L 449.89294 120.587864 
L 451.499492 117.884733 
L 452.03501 117.290069 
L 452.570527 117.093551 
L 453.106044 117.353648 
L 453.641562 118.006999 
L 456.319148 122.289403 
L 456.854666 122.746492 
L 457.390183 123.003633 
L 457.9257 123.057405 
L 458.461218 122.907782 
L 458.996735 122.557526 
L 459.532252 122.013586 
L 460.603287 120.420219 
L 462.209839 117.701022 
L 462.745356 117.213484 
L 463.280874 117.167078 
L 463.816391 117.579004 
L 464.887426 119.308484 
L 465.95846 121.229384 
L 467.029495 122.609153 
L 467.565012 123.013479 
L 468.10053 123.214995 
L 468.636047 123.211899 
L 469.171564 123.005274 
L 469.707082 122.599023 
L 470.242599 122.001836 
L 471.313634 120.32423 
L 472.384668 118.399146 
L 472.920186 117.637631 
L 473.455703 117.220508 
L 473.99122 117.254821 
L 474.526738 117.735 
L 475.597772 119.523172 
L 476.668807 121.431295 
L 477.739842 122.782398 
L 478.275359 123.175195 
L 478.810876 123.369071 
L 479.346394 123.363051 
L 479.881911 123.158744 
L 480.417428 122.760292 
L 480.952946 122.176115 
L 482.02398 120.533337 
L 483.630532 117.823103 
L 484.16605 117.337736 
L 484.701567 117.275785 
L 485.237084 117.655464 
L 485.772602 118.387316 
L 487.914671 122.053664 
L 488.450188 122.699255 
L 488.985706 123.163972 
L 489.521223 123.440752 
L 490.05674 123.528052 
L 490.592258 123.427144 
L 491.127775 123.14125 
L 491.663292 122.676171 
L 492.734327 121.260397 
L 494.876396 117.808229 
L 495.411914 117.40165 
L 495.947431 117.398298 
L 496.482948 117.800938 
L 497.553983 119.426046 
L 499.160535 122.081122 
L 500.23157 123.207344 
L 500.767087 123.516364 
L 501.302604 123.652726 
L 501.838122 123.618087 
L 502.373639 123.415691 
L 502.909156 123.050382 
L 503.980191 121.866704 
L 505.586743 119.335469 
L 506.657778 117.889328 
L 507.193295 117.547542 
L 507.728812 117.565148 
L 508.26433 117.939993 
L 509.335364 119.432017 
L 510.941916 121.969504 
L 512.012951 123.141189 
L 512.548468 123.509673 
L 513.083986 123.729534 
L 513.619503 123.802517 
L 514.15502 123.731902 
L 514.690538 123.521901 
L 515.761572 122.706633 
L 516.832607 121.432381 
L 518.974676 118.47168 
L 519.510194 118.008955 
L 520.045711 117.807304 
L 520.581229 117.901332 
L 521.116746 118.275977 
L 522.187781 119.606875 
L 523.794333 121.89516 
L 524.865367 123.045019 
L 525.936402 123.744557 
L 527.007437 123.990278 
L 528.078471 123.811257 
L 529.149506 123.24572 
L 530.220541 122.3435 
L 531.827093 120.568939 
L 532.898127 119.396462 
L 533.969162 118.610929 
L 534.504679 118.466725 
L 535.040197 118.517185 
L 535.575714 118.756631 
L 536.646749 119.677369 
L 539.324335 122.59272 
L 540.39537 123.433018 
L 541.466405 123.992263 
L 542.537439 124.286749 
L 543.608474 124.348756 
L 544.679509 124.213412 
L 546.286061 123.713042 
L 547.892613 122.956343 
L 551.105717 121.322667 
L 552.176751 120.995435 
L 553.247786 120.886482 
L 554.318821 121.014472 
L 555.389855 121.349377 
L 557.531925 122.358574 
L 559.673994 123.338514 
L 561.280546 123.843062 
L 562.887098 124.107474 
L 564.49365 124.158219 
L 566.635719 123.996308 
L 571.455375 123.496416 
L 574.132962 123.501691 
L 580.023653 123.683562 
L 581.630205 123.463933 
L 583.236757 123.012544 
L 584.843309 122.317845 
L 588.59193 120.456068 
L 589.662965 120.224068 
L 590.733999 120.257509 
L 591.805034 120.543271 
L 593.411586 121.266553 
L 595.553655 122.210206 
L 596.62469 122.468754 
L 597.695725 122.506605 
L 598.766759 122.293877 
L 599.837794 121.828582 
L 601.444346 120.761253 
L 603.050898 119.645081 
L 604.121933 119.215435 
L 604.65745 119.163863 
L 605.728485 119.410287 
L 606.79952 120.016968 
L 608.941589 121.432181 
L 610.012624 121.862282 
L 611.083658 121.962588 
L 612.154693 121.696814 
L 613.225728 121.086082 
L 616.438832 118.753604 
L 616.974349 118.652533 
L 617.509866 118.705571 
L 618.045384 118.904264 
L 619.116418 119.619437 
L 620.72297 120.867245 
L 621.794005 121.422683 
L 622.86504 121.5831 
L 623.936074 121.303082 
L 625.007109 120.620635 
L 627.684696 118.490112 
L 628.220213 118.33785 
L 628.75573 118.359699 
L 629.291248 118.550375 
L 630.362282 119.300043 
L 631.968834 120.609082 
L 633.039869 121.147362 
L 633.575386 121.25175 
L 634.110904 121.235362 
L 634.646421 121.097649 
L 635.717456 120.487954 
L 638.395042 118.294577 
L 638.93056 118.112181 
L 639.466077 118.111589 
L 640.001594 118.290015 
L 641.072629 119.03907 
L 642.679181 120.348542 
L 643.750216 120.861647 
L 644.285733 120.945662 
L 644.82125 120.90532 
L 645.892285 120.463812 
L 646.96332 119.637698 
L 648.569872 118.282088 
L 649.105389 118.007584 
L 649.640906 117.900355 
L 650.176424 117.97574 
L 650.711941 118.216824 
L 651.782976 119.015072 
L 653.389528 120.216013 
L 654.460562 120.598819 
L 654.99608 120.616096 
L 655.531597 120.51349 
L 656.602632 119.977008 
L 659.280218 117.937111 
L 659.815736 117.762232 
L 660.351253 117.755258 
L 660.88677 117.912292 
L 661.957805 118.580703 
L 663.564357 119.740945 
L 664.635392 120.189815 
L 665.170909 120.261938 
L 665.170909 120.261938 
" clip-path="url(#paaf3e169bd)" style="fill: none; stroke-dasharray: 19.2,4.8,3,4.8; stroke-dashoffset: 0; stroke: #2ca02c; stroke-width: 3"/>
   </g>
   <g id="line2d_37">
    <path d="M 130.189091 129.201579 
L 132.866678 130.47582 
L 133.937712 130.65076 
L 135.008747 130.51495 
L 136.615299 129.909366 
L 138.221851 129.324003 
L 139.292886 129.231793 
L 140.36392 129.462525 
L 141.970472 130.209795 
L 143.577024 130.876427 
L 144.648059 131.0248 
L 145.719094 130.89384 
L 147.325646 130.341639 
L 148.932198 129.795584 
L 150.003232 129.680477 
L 151.074267 129.846674 
L 152.680819 130.491848 
L 154.287371 131.170992 
L 155.358406 131.413672 
L 156.42944 131.420703 
L 157.500475 131.21729 
L 160.713579 130.302536 
L 161.784614 130.258393 
L 162.855648 130.435768 
L 164.4622 131.003814 
L 166.60427 131.777989 
L 167.675304 131.970989 
L 168.746339 131.991106 
L 170.352891 131.755702 
L 173.565995 131.122362 
L 175.172547 131.146276 
L 176.779099 131.481067 
L 181.598755 132.857371 
L 183.205307 133.003693 
L 185.347376 132.953401 
L 189.095998 132.814185 
L 191.238067 133.016826 
L 193.380137 133.473451 
L 196.593241 134.434661 
L 201.412897 135.863279 
L 205.161518 136.731305 
L 208.374622 137.235772 
L 210.516691 137.350979 
L 212.123243 137.244471 
L 213.729795 136.904639 
L 215.336347 136.269196 
L 216.942899 135.300286 
L 218.549451 134.02982 
L 221.762555 131.35044 
L 222.83359 130.767489 
L 223.904625 130.492978 
L 224.975659 130.567049 
L 226.046694 130.977427 
L 227.117729 131.662493 
L 231.401867 134.919326 
L 232.472902 135.242341 
L 233.008419 135.251261 
L 233.543937 135.142616 
L 234.079454 134.906673 
L 234.614971 134.537006 
L 235.686006 133.398025 
L 236.757041 131.818684 
L 238.363593 129.283964 
L 238.89911 128.618191 
L 239.434627 128.131816 
L 239.970145 127.859504 
L 240.505662 127.816527 
L 241.041179 127.998454 
L 241.576697 128.383956 
L 242.647731 129.622627 
L 245.325318 133.432232 
L 246.396353 134.436442 
L 246.93187 134.709319 
L 247.467387 134.798869 
L 248.002905 134.685314 
L 248.538422 134.352708 
L 249.073939 133.792339 
L 249.609457 133.008573 
L 250.680491 130.90064 
L 251.751526 128.583512 
L 252.287043 127.623516 
L 252.822561 126.940273 
L 253.358078 126.601889 
L 253.893595 126.629275 
L 254.429113 126.998639 
L 254.96463 127.652841 
L 256.035665 129.506215 
L 257.642217 132.497806 
L 258.713251 133.932426 
L 259.248769 134.354812 
L 259.784286 134.538051 
L 260.319803 134.454873 
L 260.855321 134.082745 
L 261.390838 133.409278 
L 261.926355 132.442725 
L 262.99739 129.851826 
L 264.068425 127.228345 
L 264.603942 126.317282 
L 265.139459 125.843261 
L 265.674977 125.845533 
L 266.210494 126.289542 
L 266.746011 127.08917 
L 267.817046 129.30499 
L 269.423598 132.63158 
L 269.959115 133.437351 
L 270.494633 134.006002 
L 271.03015 134.299303 
L 271.565667 134.283615 
L 272.101185 133.930435 
L 272.636702 133.222165 
L 273.172219 132.165772 
L 274.243254 129.281576 
L 275.314289 126.44913 
L 275.849806 125.56402 
L 276.385324 125.216394 
L 276.920841 125.419185 
L 277.456358 126.097616 
L 278.527393 128.358863 
L 280.133945 132.06285 
L 280.669462 132.995559 
L 281.20498 133.673508 
L 281.740497 134.052848 
L 282.276014 134.095651 
L 282.811532 133.769376 
L 283.347049 133.052594 
L 283.882566 131.950376 
L 284.953601 128.890043 
L 286.024636 125.917622 
L 286.560153 125.039947 
L 287.09567 124.758362 
L 287.631188 125.068839 
L 288.166705 125.871298 
L 289.23774 128.343674 
L 290.308774 131.000266 
L 291.379809 133.009828 
L 291.915326 133.608958 
L 292.450844 133.876888 
L 292.986361 133.776259 
L 293.521878 133.277091 
L 294.057396 132.366797 
L 294.592913 131.071453 
L 296.734982 125.045012 
L 297.2705 124.441241 
L 297.806017 124.465678 
L 298.341534 125.056135 
L 298.877052 126.074738 
L 301.554638 132.343544 
L 302.090156 133.089767 
L 302.625673 133.519589 
L 303.16119 133.593959 
L 303.696708 133.280071 
L 304.232225 132.557114 
L 304.767742 131.432164 
L 305.838777 128.294131 
L 306.909812 125.244272 
L 307.445329 124.339208 
L 307.980846 124.037177 
L 308.516364 124.33239 
L 309.051881 125.123519 
L 310.122916 127.583443 
L 311.729468 131.384981 
L 312.264985 132.294132 
L 312.800502 132.924806 
L 313.33602 133.236275 
L 313.871537 133.194644 
L 314.407054 132.773569 
L 314.942572 131.962002 
L 315.478089 130.780409 
L 317.620158 124.809087 
L 318.155676 123.984482 
L 318.691193 123.717843 
L 319.22671 123.997223 
L 319.762228 124.731585 
L 320.833262 127.03032 
L 322.439814 130.695408 
L 322.975332 131.618556 
L 323.510849 132.29881 
L 324.046366 132.698551 
L 324.581884 132.787511 
L 325.117401 132.542292 
L 325.652918 131.950149 
L 326.188436 131.018286 
L 327.25947 128.349157 
L 328.330505 125.4435 
L 328.866022 124.326844 
L 329.40154 123.62209 
L 329.937057 123.387779 
L 330.472574 123.609381 
L 331.008092 124.217389 
L 332.079126 126.18687 
L 333.685678 129.548822 
L 334.756713 131.223552 
L 335.29223 131.756265 
L 335.827748 132.048429 
L 336.363265 132.080265 
L 336.898782 131.838791 
L 337.4343 131.320548 
L 337.969817 130.536788 
L 339.040852 128.331109 
L 340.647404 124.697727 
L 341.182921 123.823445 
L 341.718438 123.252318 
L 342.253956 123.01169 
L 342.789473 123.092028 
L 343.32499 123.455592 
L 343.860508 124.047485 
L 344.931542 125.667153 
L 347.073612 129.100145 
L 348.144646 130.278656 
L 348.680164 130.649292 
L 349.215681 130.857508 
L 349.751198 130.896938 
L 350.286716 130.766208 
L 350.822233 130.469449 
L 351.893268 129.426632 
L 352.964302 127.938262 
L 355.106372 124.759317 
L 356.177406 123.639582 
L 356.712924 123.276894 
L 357.248441 123.054532 
L 357.783959 122.970458 
L 358.319476 123.017463 
L 359.390511 123.459173 
L 360.461545 124.271928 
L 362.068097 125.934525 
L 366.352236 130.737951 
L 367.423271 131.634147 
L 368.494305 132.272588 
L 369.56534 132.577775 
L 370.636375 132.476926 
L 371.171892 132.254789 
L 372.242927 131.441353 
L 373.313961 130.129538 
L 374.384996 128.361291 
L 375.991548 125.125561 
L 377.5981 121.874563 
L 378.669135 120.24825 
L 379.204652 119.750521 
L 379.740169 119.535622 
L 380.275687 119.653057 
L 380.811204 120.139632 
L 381.346721 121.009237 
L 381.882239 122.242153 
L 382.953273 125.51662 
L 384.559825 130.679328 
L 385.095343 132.013543 
L 385.63086 133.045652 
L 386.166377 133.757289 
L 386.701895 134.149716 
L 387.237412 134.234507 
L 387.772929 134.027072 
L 388.308447 133.543598 
L 388.843964 132.800614 
L 389.914999 130.612779 
L 390.986033 127.675513 
L 393.128103 121.315372 
L 393.66362 120.179367 
L 394.199137 119.491335 
L 394.734655 119.39276 
L 395.270172 119.988647 
L 395.805689 121.303196 
L 396.876724 125.583488 
L 397.947759 130.322943 
L 398.483276 132.237776 
L 399.018793 133.683711 
L 399.554311 134.641824 
L 400.089828 135.136863 
L 400.625345 135.207937 
L 401.160863 134.892894 
L 401.69638 134.223397 
L 402.231897 133.226485 
L 403.302932 130.365415 
L 404.909484 124.65087 
L 405.980519 121.062276 
L 406.516036 119.854237 
L 407.051553 119.339624 
L 407.587071 119.71784 
L 408.122588 121.072254 
L 408.658105 123.286274 
L 410.264657 131.379517 
L 410.800175 133.364083 
L 411.335692 134.738506 
L 411.871209 135.527594 
L 412.406727 135.790818 
L 412.942244 135.587329 
L 413.477761 134.9637 
L 414.013279 133.955275 
L 414.548796 132.593211 
L 415.619831 128.969206 
L 417.7619 120.781534 
L 418.297417 119.636996 
L 418.832935 119.406474 
L 419.368452 120.302414 
L 419.903969 122.318697 
L 422.046039 133.366913 
L 422.581556 134.937112 
L 423.117073 135.840693 
L 423.652591 136.155178 
L 424.188108 135.955417 
L 424.723625 135.297687 
L 425.259143 134.222175 
L 425.79466 132.762767 
L 426.865695 128.871648 
L 428.472247 122.111965 
L 429.007764 120.407519 
L 429.543281 119.50015 
L 430.078799 119.716002 
L 430.614316 121.214634 
L 431.149833 123.826967 
L 432.756385 132.830165 
L 433.291903 134.722749 
L 433.82742 135.876781 
L 434.362937 136.376145 
L 434.898455 136.311346 
L 435.433972 135.751496 
L 435.969489 134.743983 
L 436.505007 133.324994 
L 437.576041 129.427351 
L 439.182594 122.433843 
L 439.718111 120.621901 
L 440.253628 119.630749 
L 440.789146 119.819322 
L 441.324663 121.365321 
L 441.86018 124.079735 
L 442.931215 130.608716 
L 443.466732 133.233599 
L 444.00225 135.078207 
L 444.537767 136.163541 
L 445.073284 136.586475 
L 445.608802 136.442443 
L 446.144319 135.800677 
L 446.679836 134.70807 
L 447.215354 133.201211 
L 448.286388 129.135536 
L 449.89294 122.10699 
L 450.428458 120.439925 
L 450.963975 119.713593 
L 451.499492 120.269679 
L 452.03501 122.20203 
L 454.177079 134.054736 
L 454.712596 135.650803 
L 455.248114 136.509449 
L 455.783631 136.73621 
L 456.319148 136.420934 
L 456.854666 135.62568 
L 457.390183 134.392796 
L 458.461218 130.773119 
L 460.603287 121.661075 
L 461.138804 120.277953 
L 461.674322 119.960545 
L 462.209839 120.985662 
L 462.745356 123.314502 
L 464.351908 132.663883 
L 464.887426 134.775258 
L 465.422943 136.107439 
L 465.95846 136.746809 
L 466.493978 136.796265 
L 467.029495 136.335966 
L 467.565012 135.42012 
L 468.10053 134.087612 
L 469.171564 130.341319 
L 471.313634 121.52387 
L 471.849151 120.379282 
L 472.384668 120.338225 
L 472.920186 121.612206 
L 473.455703 124.082097 
L 475.062255 133.123226 
L 475.597772 135.07699 
L 476.13329 136.290051 
L 476.668807 136.849539 
L 477.204324 136.851714 
L 477.739842 136.37056 
L 478.275359 135.45688 
L 478.810876 134.14831 
L 479.881911 130.51307 
L 482.02398 121.99008 
L 482.559498 120.813772 
L 483.095015 120.6354 
L 483.630532 121.668159 
L 484.16605 123.853296 
L 485.772602 132.599931 
L 486.308119 134.671781 
L 486.843636 136.043122 
L 487.379154 136.77619 
L 487.914671 136.960036 
L 488.450188 136.670425 
L 488.985706 135.961878 
L 489.521223 134.873787 
L 490.592258 131.706112 
L 493.269844 121.964514 
L 493.805362 121.128418 
L 494.340879 121.255983 
L 494.876396 122.475379 
L 495.411914 124.668504 
L 497.018466 132.813215 
L 497.553983 134.739643 
L 498.0895 136.041205 
L 498.625018 136.767149 
L 499.160535 136.992634 
L 499.696052 136.784823 
L 500.23157 136.194502 
L 500.767087 135.259634 
L 501.838122 132.491714 
L 503.444674 126.880896 
L 504.515708 123.370692 
L 505.051226 122.205499 
L 505.586743 121.722722 
L 506.12226 122.09698 
L 506.657778 123.380087 
L 507.193295 125.434035 
L 508.799847 132.77079 
L 509.335364 134.576117 
L 509.870882 135.856808 
L 510.406399 136.639158 
L 510.941916 136.979006 
L 511.477434 136.932728 
L 512.012951 136.546629 
L 512.548468 135.857119 
L 513.083986 134.894769 
L 514.15502 132.278386 
L 516.832607 124.341795 
L 517.368124 123.296366 
L 517.903642 122.7493 
L 518.439159 122.824332 
L 518.974676 123.583293 
L 519.510194 124.986898 
L 520.581229 129.017292 
L 521.652263 133.034062 
L 522.187781 134.578376 
L 522.723298 135.728536 
L 523.258815 136.493696 
L 523.794333 136.90742 
L 524.32985 137.009026 
L 524.865367 136.834771 
L 525.400885 136.415559 
L 525.936402 135.778049 
L 527.007437 133.948349 
L 528.078471 131.56934 
L 530.220541 126.510388 
L 530.756058 125.528643 
L 531.291575 124.802705 
L 531.827093 124.402441 
L 532.36261 124.384003 
L 532.898127 124.777568 
L 533.433645 125.57622 
L 534.504679 128.139559 
L 536.646749 134.000072 
L 537.717783 135.899181 
L 538.253301 136.499584 
L 538.788818 136.883505 
L 539.324335 137.070538 
L 539.859853 137.08085 
L 540.39537 136.933905 
L 541.466405 136.239815 
L 542.537439 135.124856 
L 544.143991 132.969827 
L 546.286061 130.031718 
L 547.357095 128.915779 
L 548.42813 128.236811 
L 548.963647 128.094563 
L 549.499165 128.093629 
L 550.034682 128.235226 
L 550.570199 128.515145 
L 551.641234 129.445436 
L 552.712269 130.748352 
L 555.925373 135.074133 
L 556.996407 136.18957 
L 558.067442 137.044113 
L 559.138477 137.642622 
L 560.209511 138.007709 
L 561.280546 138.16743 
L 562.351581 138.149077 
L 563.958133 137.839747 
L 565.564685 137.254313 
L 567.706754 136.163736 
L 571.990893 133.759568 
L 573.597445 133.161772 
L 574.668479 132.951 
L 575.739514 132.911457 
L 576.810549 133.042488 
L 578.417101 133.511752 
L 582.701239 135.163658 
L 583.772274 135.306894 
L 584.843309 135.204544 
L 585.914343 134.803247 
L 586.985378 134.076126 
L 588.056413 133.048087 
L 591.269517 129.628054 
L 591.805034 129.308527 
L 592.340551 129.127191 
L 592.876069 129.093153 
L 593.411586 129.205933 
L 594.482621 129.826707 
L 595.553655 130.835213 
L 598.231242 133.62765 
L 599.302277 134.307527 
L 599.837794 134.467402 
L 600.373311 134.484623 
L 600.908829 134.345554 
L 601.444346 134.04076 
L 601.979863 133.567369 
L 603.050898 132.157673 
L 605.192968 128.687713 
L 605.728485 128.085182 
L 606.264002 127.718046 
L 606.79952 127.614438 
L 607.335037 127.773822 
L 607.870554 128.170375 
L 608.941589 129.488115 
L 611.083658 132.664849 
L 612.154693 133.752518 
L 612.69021 134.046181 
L 613.225728 134.138324 
L 613.761245 134.008535 
L 614.296762 133.642776 
L 614.83228 133.038129 
L 615.903314 131.200724 
L 617.509866 127.983522 
L 618.045384 127.23888 
L 618.580901 126.823123 
L 619.116418 126.772841 
L 619.651936 127.073902 
L 620.187453 127.671318 
L 621.258488 129.432504 
L 622.86504 132.255445 
L 623.400557 132.977272 
L 623.936074 133.508889 
L 624.471592 133.814362 
L 625.007109 133.8638 
L 625.542626 133.633712 
L 626.078144 133.110993 
L 626.613661 132.301265 
L 627.684696 130.010822 
L 628.75573 127.582173 
L 629.291248 126.702537 
L 629.826765 126.215763 
L 630.362282 126.170379 
L 630.8978 126.543307 
L 631.433317 127.257765 
L 632.504352 129.283654 
L 633.575386 131.410365 
L 634.646421 132.999173 
L 635.181938 133.455599 
L 635.717456 133.634505 
L 636.252973 133.506151 
L 636.78849 133.050794 
L 637.324008 132.267008 
L 638.395042 129.88957 
L 639.466077 127.249584 
L 640.001594 126.277339 
L 640.537112 125.739689 
L 641.072629 125.69369 
L 641.608146 126.11009 
L 642.143664 126.896228 
L 643.214698 129.079863 
L 644.285733 131.300665 
L 644.82125 132.199941 
L 645.356768 132.874969 
L 645.892285 133.279426 
L 646.427802 133.376251 
L 646.96332 133.136899 
L 647.498837 132.546055 
L 648.034354 131.613368 
L 649.105389 128.992149 
L 650.176424 126.386797 
L 650.711941 125.570139 
L 651.247458 125.249744 
L 651.782976 125.439672 
L 652.318493 126.070578 
L 653.389528 128.16066 
L 654.99608 131.504385 
L 655.531597 132.303299 
L 656.067114 132.844127 
L 656.602632 133.085836 
L 657.138149 132.996284 
L 657.673666 132.554312 
L 658.209184 131.75834 
L 659.280218 129.291871 
L 660.351253 126.53565 
L 660.88677 125.524189 
L 661.422288 124.968738 
L 661.957805 124.924862 
L 662.493322 125.357152 
L 663.02884 126.165849 
L 664.635392 129.56547 
L 665.170909 130.642231 
L 665.170909 130.642231 
" clip-path="url(#paaf3e169bd)" style="fill: none; stroke-dasharray: 3,4.95; stroke-dashoffset: 0; stroke: #d62728; stroke-width: 3"/>
   </g>
   <g id="line2d_38">
    <path d="M 130.189091 148.592161 
L 665.170909 148.592161 
L 665.170909 148.592161 
" clip-path="url(#paaf3e169bd)" style="fill: none; stroke-dasharray: 9,3,3,3; stroke-dashoffset: 0; stroke: #9467bd; stroke-width: 3"/>
   </g>
   <g id="line2d_39">
    <path d="M 130.189091 243.547408 
L 665.170909 243.548388 
L 665.170909 243.548388 
" clip-path="url(#paaf3e169bd)" style="fill: none; stroke: #808080; stroke-width: 3; stroke-linecap: square"/>
   </g>
   <g id="patch_3">
    <path d="M 103.44 417.2325 
L 103.44 28.08 
" style="fill: none; stroke: #000000; stroke-width: 2; stroke-linejoin: miter; stroke-linecap: square"/>
   </g>
   <g id="patch_4">
    <path d="M 691.92 417.2325 
L 691.92 28.08 
" style="fill: none; stroke: #000000; stroke-width: 2; stroke-linejoin: miter; stroke-linecap: square"/>
   </g>
   <g id="patch_5">
    <path d="M 103.44 417.2325 
L 691.92 417.2325 
" style="fill: none; stroke: #000000; stroke-width: 2; stroke-linejoin: miter; stroke-linecap: square"/>
   </g>
   <g id="patch_6">
    <path d="M 103.44 28.08 
L 691.92 28.08 
" style="fill: none; stroke: #000000; stroke-width: 2; stroke-linejoin: miter; stroke-linecap: square"/>
   </g>
   <g id="legend_1">
    <g id="patch_7">
     <path d="M 114.64 409.2325 
L 259.9675 409.2325 
Q 263.1675 409.2325 263.1675 406.0325 
L 263.1675 266.495 
Q 263.1675 263.295 259.9675 263.295 
L 114.64 263.295 
Q 111.44 263.295 111.44 266.495 
L 111.44 406.0325 
Q 111.44 409.2325 114.64 409.2325 
z
" style="fill: #ffffff; opacity: 0.8; stroke: #cccccc; stroke-linejoin: miter"/>
    </g>
    <g id="line2d_40">
     <path d="M 117.84 276.2525 
L 133.84 276.2525 
L 149.84 276.2525 
" style="fill: none; stroke: #1f77b4; stroke-width: 3; stroke-linecap: square"/>
    </g>
    <g id="text_14">
     <!-- Kinetic -->
     <g transform="translate(162.64 281.8525) scale(0.16 -0.16)">
      <defs>
       <path id="DejaVuSerif-4b" d="M 353 0 
L 353 331 
L 947 331 
L 947 4331 
L 353 4331 
L 353 4666 
L 2175 4666 
L 2175 4331 
L 1581 4331 
L 1581 2566 
L 3591 4331 
L 3084 4331 
L 3084 4666 
L 4634 4666 
L 4634 4331 
L 4109 4331 
L 2106 2572 
L 4347 331 
L 4878 331 
L 4878 0 
L 3794 0 
L 1581 2216 
L 1581 331 
L 2175 331 
L 2175 0 
L 353 0 
z
" transform="scale(0.015625)"/>
       <path id="DejaVuSerif-69" d="M 622 4353 
Q 622 4497 726 4603 
Q 831 4709 978 4709 
Q 1122 4709 1226 4603 
Q 1331 4497 1331 4353 
Q 1331 4206 1228 4103 
Q 1125 4000 978 4000 
Q 831 4000 726 4103 
Q 622 4206 622 4353 
z
M 1356 331 
L 1900 331 
L 1900 0 
L 231 0 
L 231 331 
L 781 331 
L 781 2988 
L 231 2988 
L 231 3322 
L 1356 3322 
L 1356 331 
z
" transform="scale(0.015625)"/>
       <path id="DejaVuSerif-6e" d="M 263 0 
L 263 331 
L 781 331 
L 781 2988 
L 231 2988 
L 231 3322 
L 1356 3322 
L 1356 2731 
Q 1516 3069 1770 3241 
Q 2025 3413 2363 3413 
Q 2913 3413 3172 3097 
Q 3431 2781 3431 2113 
L 3431 331 
L 3944 331 
L 3944 0 
L 2356 0 
L 2356 331 
L 2853 331 
L 2853 1931 
Q 2853 2541 2703 2767 
Q 2553 2994 2175 2994 
Q 1775 2994 1565 2701 
Q 1356 2409 1356 1850 
L 1356 331 
L 1856 331 
L 1856 0 
L 263 0 
z
" transform="scale(0.015625)"/>
       <path id="DejaVuSerif-65" d="M 3469 1600 
L 991 1600 
L 991 1575 
Q 991 903 1244 561 
Q 1497 219 1991 219 
Q 2369 219 2611 417 
Q 2853 616 2950 1006 
L 3413 1006 
Q 3275 459 2904 184 
Q 2534 -91 1931 -91 
Q 1203 -91 761 389 
Q 319 869 319 1663 
Q 319 2450 753 2931 
Q 1188 3413 1894 3413 
Q 2647 3413 3050 2948 
Q 3453 2484 3469 1600 
z
M 2791 1931 
Q 2772 2513 2545 2808 
Q 2319 3103 1894 3103 
Q 1497 3103 1269 2806 
Q 1041 2509 991 1931 
L 2791 1931 
z
" transform="scale(0.015625)"/>
       <path id="DejaVuSerif-74" d="M 691 2988 
L 184 2988 
L 184 3322 
L 691 3322 
L 691 4353 
L 1269 4353 
L 1269 3322 
L 2350 3322 
L 2350 2988 
L 1269 2988 
L 1269 878 
Q 1269 456 1350 337 
Q 1431 219 1650 219 
Q 1875 219 1978 351 
Q 2081 484 2088 781 
L 2522 781 
Q 2497 328 2275 118 
Q 2053 -91 1600 -91 
Q 1103 -91 897 129 
Q 691 350 691 878 
L 691 2988 
z
" transform="scale(0.015625)"/>
       <path id="DejaVuSerif-63" d="M 3291 997 
Q 3169 466 2822 187 
Q 2475 -91 1925 -91 
Q 1200 -91 759 389 
Q 319 869 319 1663 
Q 319 2459 759 2936 
Q 1200 3413 1925 3413 
Q 2241 3413 2553 3339 
Q 2866 3266 3181 3116 
L 3181 2266 
L 2847 2266 
Q 2781 2703 2561 2903 
Q 2341 3103 1931 3103 
Q 1466 3103 1228 2742 
Q 991 2381 991 1663 
Q 991 944 1227 581 
Q 1463 219 1931 219 
Q 2303 219 2525 412 
Q 2747 606 2828 997 
L 3291 997 
z
" transform="scale(0.015625)"/>
      </defs>
      <use xlink:href="#DejaVuSerif-4b"/>
      <use xlink:href="#DejaVuSerif-69" x="74.707031"/>
      <use xlink:href="#DejaVuSerif-6e" x="106.689453"/>
      <use xlink:href="#DejaVuSerif-65" x="171.09375"/>
      <use xlink:href="#DejaVuSerif-74" x="230.273438"/>
      <use xlink:href="#DejaVuSerif-69" x="270.458984"/>
      <use xlink:href="#DejaVuSerif-63" x="302.441406"/>
     </g>
    </g>
    <g id="line2d_41">
     <path d="M 117.84 299.7375 
L 133.84 299.7375 
L 149.84 299.7375 
" style="fill: none; stroke-dasharray: 11.1,4.8; stroke-dashoffset: 0; stroke: #ff7f0e; stroke-width: 3"/>
    </g>
    <g id="text_15">
     <!-- $e^-$-nucleus -->
     <g transform="translate(162.64 305.3375) scale(0.16 -0.16)">
      <defs>
       <path id="Cmmi10-65" d="M 1288 -72 
Q 981 -72 751 87 
Q 522 247 401 517 
Q 281 788 281 1088 
Q 281 1544 511 1945 
Q 741 2347 1134 2587 
Q 1528 2828 1978 2828 
Q 2253 2828 2458 2686 
Q 2663 2544 2663 2278 
Q 2663 1909 2369 1729 
Q 2075 1550 1706 1508 
Q 1338 1466 891 1466 
L 872 1466 
Q 769 1084 769 813 
Q 769 528 900 312 
Q 1031 97 1300 97 
Q 1681 97 2032 272 
Q 2384 447 2606 756 
Q 2625 775 2656 775 
Q 2688 775 2720 739 
Q 2753 703 2753 672 
Q 2753 647 2741 634 
Q 2506 306 2109 117 
Q 1713 -72 1288 -72 
z
M 909 1631 
Q 1281 1631 1597 1665 
Q 1913 1700 2169 1839 
Q 2425 1978 2425 2272 
Q 2425 2391 2359 2480 
Q 2294 2569 2189 2616 
Q 2084 2663 1972 2663 
Q 1700 2663 1483 2516 
Q 1266 2369 1125 2133 
Q 984 1897 909 1631 
z
" transform="scale(0.015625)"/>
       <path id="Cmsy10-a1" d="M 653 1472 
Q 600 1472 565 1512 
Q 531 1553 531 1600 
Q 531 1647 565 1687 
Q 600 1728 653 1728 
L 4325 1728 
Q 4375 1728 4408 1687 
Q 4441 1647 4441 1600 
Q 4441 1553 4408 1512 
Q 4375 1472 4325 1472 
L 653 1472 
z
" transform="scale(0.015625)"/>
       <path id="DejaVuSerif-2d" d="M 281 1959 
L 1881 1959 
L 1881 1472 
L 281 1472 
L 281 1959 
z
" transform="scale(0.015625)"/>
       <path id="DejaVuSerif-6c" d="M 1313 331 
L 1856 331 
L 1856 0 
L 184 0 
L 184 331 
L 738 331 
L 738 4531 
L 184 4531 
L 184 4863 
L 1313 4863 
L 1313 331 
z
" transform="scale(0.015625)"/>
       <path id="DejaVuSerif-73" d="M 359 184 
L 359 959 
L 691 959 
Q 703 588 923 403 
Q 1144 219 1575 219 
Q 1963 219 2166 364 
Q 2369 509 2369 788 
Q 2369 1006 2220 1140 
Q 2072 1275 1594 1428 
L 1178 1569 
Q 750 1706 558 1912 
Q 366 2119 366 2438 
Q 366 2894 700 3153 
Q 1034 3413 1625 3413 
Q 1888 3413 2178 3344 
Q 2469 3275 2778 3144 
L 2778 2419 
L 2447 2419 
Q 2434 2741 2221 2922 
Q 2009 3103 1644 3103 
Q 1281 3103 1095 2975 
Q 909 2847 909 2591 
Q 909 2381 1050 2254 
Q 1191 2128 1613 1997 
L 2069 1856 
Q 2541 1709 2748 1489 
Q 2956 1269 2956 922 
Q 2956 450 2595 179 
Q 2234 -91 1600 -91 
Q 1278 -91 972 -22 
Q 666 47 359 184 
z
" transform="scale(0.015625)"/>
      </defs>
      <use xlink:href="#Cmmi10-65" transform="translate(0 0.015625)"/>
      <use xlink:href="#Cmsy10-a1" transform="translate(65.078672 38.279688) scale(0.7)"/>
      <use xlink:href="#DejaVuSerif-2d" transform="translate(138.126914 0.015625)"/>
      <use xlink:href="#DejaVuSerif-6e" transform="translate(171.915977 0.015625)"/>
      <use xlink:href="#DejaVuSerif-75" transform="translate(236.320273 0.015625)"/>
      <use xlink:href="#DejaVuSerif-63" transform="translate(300.72457 0.015625)"/>
      <use xlink:href="#DejaVuSerif-6c" transform="translate(356.73043 0.015625)"/>
      <use xlink:href="#DejaVuSerif-65" transform="translate(388.712852 0.015625)"/>
      <use xlink:href="#DejaVuSerif-75" transform="translate(447.892539 0.015625)"/>
      <use xlink:href="#DejaVuSerif-73" transform="translate(512.296836 0.015625)"/>
     </g>
    </g>
    <g id="line2d_42">
     <path d="M 117.84 323.2225 
L 133.84 323.2225 
L 149.84 323.2225 
" style="fill: none; stroke-dasharray: 19.2,4.8,3,4.8; stroke-dashoffset: 0; stroke: #2ca02c; stroke-width: 3"/>
    </g>
    <g id="text_16">
     <!-- $e^-$-$e^-$ -->
     <g transform="translate(162.64 328.8225) scale(0.16 -0.16)">
      <use xlink:href="#Cmmi10-65" transform="translate(0 0.835938)"/>
      <use xlink:href="#Cmsy10-a1" transform="translate(65.078672 39.1) scale(0.7)"/>
      <use xlink:href="#DejaVuSerif-2d" transform="translate(138.126914 0.835938)"/>
      <use xlink:href="#Cmmi10-65" transform="translate(171.915977 0.835938)"/>
      <use xlink:href="#Cmsy10-a1" transform="translate(236.994648 39.1) scale(0.7)"/>
     </g>
    </g>
    <g id="line2d_43">
     <path d="M 117.84 346.7075 
L 133.84 346.7075 
L 149.84 346.7075 
" style="fill: none; stroke-dasharray: 3,4.95; stroke-dashoffset: 0; stroke: #d62728; stroke-width: 3"/>
    </g>
    <g id="text_17">
     <!-- Heisenberg -->
     <g transform="translate(162.64 352.3075) scale(0.16 -0.16)">
      <defs>
       <path id="DejaVuSerif-48" d="M 353 0 
L 353 331 
L 947 331 
L 947 4331 
L 353 4331 
L 353 4666 
L 2175 4666 
L 2175 4331 
L 1581 4331 
L 1581 2719 
L 4000 2719 
L 4000 4331 
L 3406 4331 
L 3406 4666 
L 5228 4666 
L 5228 4331 
L 4634 4331 
L 4634 331 
L 5228 331 
L 5228 0 
L 3406 0 
L 3406 331 
L 4000 331 
L 4000 2338 
L 1581 2338 
L 1581 331 
L 2175 331 
L 2175 0 
L 353 0 
z
" transform="scale(0.015625)"/>
       <path id="DejaVuSerif-62" d="M 738 331 
L 738 4531 
L 184 4531 
L 184 4863 
L 1313 4863 
L 1313 2803 
Q 1481 3116 1742 3264 
Q 2003 3413 2388 3413 
Q 3000 3413 3387 2928 
Q 3775 2444 3775 1663 
Q 3775 881 3387 395 
Q 3000 -91 2388 -91 
Q 2003 -91 1742 57 
Q 1481 206 1313 519 
L 1313 0 
L 184 0 
L 184 331 
L 738 331 
z
M 1313 1497 
Q 1313 897 1542 583 
Q 1772 269 2209 269 
Q 2650 269 2876 622 
Q 3103 975 3103 1663 
Q 3103 2353 2876 2703 
Q 2650 3053 2209 3053 
Q 1772 3053 1542 2737 
Q 1313 2422 1313 1825 
L 1313 1497 
z
" transform="scale(0.015625)"/>
       <path id="DejaVuSerif-72" d="M 3059 3328 
L 3059 2497 
L 2728 2497 
Q 2713 2744 2591 2866 
Q 2469 2988 2234 2988 
Q 1809 2988 1582 2694 
Q 1356 2400 1356 1850 
L 1356 331 
L 2022 331 
L 2022 0 
L 263 0 
L 263 331 
L 781 331 
L 781 2994 
L 231 2994 
L 231 3322 
L 1356 3322 
L 1356 2731 
Q 1525 3078 1790 3245 
Q 2056 3413 2438 3413 
Q 2578 3413 2733 3391 
Q 2888 3369 3059 3328 
z
" transform="scale(0.015625)"/>
       <path id="DejaVuSerif-67" d="M 3359 2988 
L 3359 72 
Q 3359 -644 2965 -1033 
Q 2572 -1422 1844 -1422 
Q 1516 -1422 1216 -1362 
Q 916 -1303 641 -1184 
L 641 -488 
L 941 -488 
Q 997 -813 1206 -963 
Q 1416 -1113 1806 -1113 
Q 2313 -1113 2548 -827 
Q 2784 -541 2784 72 
L 2784 519 
Q 2616 206 2355 57 
Q 2094 -91 1709 -91 
Q 1097 -91 708 395 
Q 319 881 319 1663 
Q 319 2444 706 2928 
Q 1094 3413 1709 3413 
Q 2094 3413 2355 3264 
Q 2616 3116 2784 2803 
L 2784 3322 
L 3909 3322 
L 3909 2988 
L 3359 2988 
z
M 2784 1825 
Q 2784 2422 2554 2737 
Q 2325 3053 1888 3053 
Q 1444 3053 1217 2703 
Q 991 2353 991 1663 
Q 991 975 1217 622 
Q 1444 269 1888 269 
Q 2325 269 2554 583 
Q 2784 897 2784 1497 
L 2784 1825 
z
" transform="scale(0.015625)"/>
      </defs>
      <use xlink:href="#DejaVuSerif-48"/>
      <use xlink:href="#DejaVuSerif-65" x="87.207031"/>
      <use xlink:href="#DejaVuSerif-69" x="146.386719"/>
      <use xlink:href="#DejaVuSerif-73" x="178.369141"/>
      <use xlink:href="#DejaVuSerif-65" x="229.6875"/>
      <use xlink:href="#DejaVuSerif-6e" x="288.867188"/>
      <use xlink:href="#DejaVuSerif-62" x="353.271484"/>
      <use xlink:href="#DejaVuSerif-65" x="417.285156"/>
      <use xlink:href="#DejaVuSerif-72" x="476.464844"/>
      <use xlink:href="#DejaVuSerif-67" x="524.267578"/>
     </g>
    </g>
    <g id="line2d_44">
     <path d="M 117.84 370.42 
L 133.84 370.42 
L 149.84 370.42 
" style="fill: none; stroke-dasharray: 9,3,3,3; stroke-dashoffset: 0; stroke: #9467bd; stroke-width: 3"/>
    </g>
    <g id="text_18">
     <!-- Pauli -->
     <g transform="translate(162.64 376.02) scale(0.16 -0.16)">
      <defs>
       <path id="DejaVuSerif-50" d="M 1581 2375 
L 2406 2375 
Q 2872 2375 3115 2626 
Q 3359 2878 3359 3353 
Q 3359 3831 3115 4081 
Q 2872 4331 2406 4331 
L 1581 4331 
L 1581 2375 
z
M 353 0 
L 353 331 
L 947 331 
L 947 4331 
L 353 4331 
L 353 4666 
L 2559 4666 
Q 3259 4666 3668 4311 
Q 4078 3956 4078 3353 
Q 4078 2753 3668 2397 
Q 3259 2041 2559 2041 
L 1581 2041 
L 1581 331 
L 2303 331 
L 2303 0 
L 353 0 
z
" transform="scale(0.015625)"/>
      </defs>
      <use xlink:href="#DejaVuSerif-50"/>
      <use xlink:href="#DejaVuSerif-61" x="62.785156"/>
      <use xlink:href="#DejaVuSerif-75" x="122.404297"/>
      <use xlink:href="#DejaVuSerif-6c" x="186.808594"/>
      <use xlink:href="#DejaVuSerif-69" x="218.791016"/>
     </g>
    </g>
    <g id="line2d_45">
     <path d="M 117.84 393.905 
L 133.84 393.905 
L 149.84 393.905 
" style="fill: none; stroke: #808080; stroke-width: 3; stroke-linecap: square"/>
    </g>
    <g id="text_19">
     <!-- Total -->
     <g transform="translate(162.64 399.505) scale(0.16 -0.16)">
      <defs>
       <path id="DejaVuSerif-54" d="M 1222 0 
L 1222 331 
L 1819 331 
L 1819 4294 
L 447 4294 
L 447 3566 
L 63 3566 
L 63 4666 
L 4206 4666 
L 4206 3566 
L 3822 3566 
L 3822 4294 
L 2450 4294 
L 2450 331 
L 3047 331 
L 3047 0 
L 1222 0 
z
" transform="scale(0.015625)"/>
       <path id="DejaVuSerif-6f" d="M 1925 219 
Q 2388 219 2623 584 
Q 2859 950 2859 1663 
Q 2859 2375 2623 2739 
Q 2388 3103 1925 3103 
Q 1463 3103 1227 2739 
Q 991 2375 991 1663 
Q 991 950 1228 584 
Q 1466 219 1925 219 
z
M 1925 -91 
Q 1200 -91 759 389 
Q 319 869 319 1663 
Q 319 2456 758 2934 
Q 1197 3413 1925 3413 
Q 2653 3413 3092 2934 
Q 3531 2456 3531 1663 
Q 3531 869 3092 389 
Q 2653 -91 1925 -91 
z
" transform="scale(0.015625)"/>
      </defs>
      <use xlink:href="#DejaVuSerif-54"/>
      <use xlink:href="#DejaVuSerif-6f" x="58.949219"/>
      <use xlink:href="#DejaVuSerif-74" x="119.154297"/>
      <use xlink:href="#DejaVuSerif-61" x="159.339844"/>
      <use xlink:href="#DejaVuSerif-6c" x="218.958984"/>
     </g>
    </g>
   </g>
  </g>
 </g>
 <defs>
  <clipPath id="paaf3e169bd">
   <rect x="103.44" y="28.08" width="588.48" height="389.1525"/>
  </clipPath>
 </defs>
</svg>
