<?xml version="1.0" encoding="utf-8" standalone="no"?>
<!DOCTYPE svg PUBLIC "-//W3C//DTD SVG 1.1//EN"
  "http://www.w3.org/Graphics/SVG/1.1/DTD/svg11.dtd">
<svg xmlns:xlink="http://www.w3.org/1999/xlink" width="864pt" height="432pt" viewBox="0 0 864 432" xmlns="http://www.w3.org/2000/svg" version="1.1">
 <metadata>
  <rdf:RDF xmlns:dc="http://purl.org/dc/elements/1.1/" xmlns:cc="http://creativecommons.org/ns#" xmlns:rdf="http://www.w3.org/1999/02/22-rdf-syntax-ns#">
   <cc:Work>
    <dc:type rdf:resource="http://purl.org/dc/dcmitype/StillImage"/>
    <dc:date>2025-07-11T14:31:41.865829</dc:date>
    <dc:format>image/svg+xml</dc:format>
    <dc:creator>
     <cc:Agent>
      <dc:title>Matplotlib v3.7.2, https://matplotlib.org/</dc:title>
     </cc:Agent>
    </dc:creator>
   </cc:Work>
  </rdf:RDF>
 </metadata>
 <defs>
  <style type="text/css">*{stroke-linejoin: round; stroke-linecap: butt}</style>
 </defs>
 <g id="figure_1">
  <g id="patch_1">
   <path d="M 0 432 
L 864 432 
L 864 0 
L 0 0 
z
" style="fill: #ffffff"/>
  </g>
  <g id="axes_1">
   <g id="patch_2">
    <path d="M 194.61 345.2325 
L 448.718584 345.2325 
L 448.718584 50.52 
L 194.61 50.52 
z
" style="fill: #ffffff"/>
   </g>
   <g id="matplotlib.axis_1">
    <g id="xtick_1">
     <g id="line2d_1">
      <path d="M 206.16039 345.2325 
L 206.16039 50.52 
" clip-path="url(#p7f64148c58)" style="fill: none; stroke-dasharray: 3.7,1.6; stroke-dashoffset: 0; stroke: #b0b0b0; stroke-opacity: 0.5"/>
     </g>
     <g id="line2d_2">
      <defs>
       <path id="m4e39cea2f7" d="M 0 0 
L 0 -10 
" style="stroke: #000000; stroke-width: 2"/>
      </defs>
      <g>
       <use xlink:href="#m4e39cea2f7" x="206.16039" y="345.2325" style="stroke: #000000; stroke-width: 2"/>
      </g>
     </g>
     <g id="line2d_3">
      <defs>
       <path id="mbf2b65bd64" d="M 0 0 
L 0 10 
" style="stroke: #000000; stroke-width: 2"/>
      </defs>
      <g>
       <use xlink:href="#mbf2b65bd64" x="206.16039" y="50.52" style="stroke: #000000; stroke-width: 2"/>
      </g>
     </g>
     <g id="text_1">
      <!-- 0 -->
      <g transform="translate(197.88914 368.488437) scale(0.26 -0.26)">
       <defs>
        <path id="DejaVuSerif-30" d="M 2034 219 
Q 2513 219 2750 744 
Q 2988 1269 2988 2328 
Q 2988 3391 2750 3916 
Q 2513 4441 2034 4441 
Q 1556 4441 1318 3916 
Q 1081 3391 1081 2328 
Q 1081 1269 1318 744 
Q 1556 219 2034 219 
z
M 2034 -91 
Q 1275 -91 848 546 
Q 422 1184 422 2328 
Q 422 3475 848 4112 
Q 1275 4750 2034 4750 
Q 2797 4750 3222 4112 
Q 3647 3475 3647 2328 
Q 3647 1184 3222 546 
Q 2797 -91 2034 -91 
z
" transform="scale(0.015625)"/>
       </defs>
       <use xlink:href="#DejaVuSerif-30"/>
      </g>
     </g>
    </g>
    <g id="xtick_2">
     <g id="line2d_4">
      <path d="M 298.563512 345.2325 
L 298.563512 50.52 
" clip-path="url(#p7f64148c58)" style="fill: none; stroke-dasharray: 3.7,1.6; stroke-dashoffset: 0; stroke: #b0b0b0; stroke-opacity: 0.5"/>
     </g>
     <g id="line2d_5">
      <g>
       <use xlink:href="#m4e39cea2f7" x="298.563512" y="345.2325" style="stroke: #000000; stroke-width: 2"/>
      </g>
     </g>
     <g id="line2d_6">
      <g>
       <use xlink:href="#mbf2b65bd64" x="298.563512" y="50.52" style="stroke: #000000; stroke-width: 2"/>
      </g>
     </g>
     <g id="text_2">
      <!-- 20 -->
      <g transform="translate(282.021012 368.488437) scale(0.26 -0.26)">
       <defs>
        <path id="DejaVuSerif-32" d="M 819 3553 
L 469 3553 
L 469 4384 
Q 803 4563 1142 4656 
Q 1481 4750 1806 4750 
Q 2534 4750 2956 4397 
Q 3378 4044 3378 3438 
Q 3378 2753 2422 1800 
Q 2347 1728 2309 1691 
L 1131 513 
L 3078 513 
L 3078 1088 
L 3444 1088 
L 3444 0 
L 434 0 
L 434 341 
L 1850 1753 
Q 2319 2222 2519 2614 
Q 2719 3006 2719 3438 
Q 2719 3909 2473 4175 
Q 2228 4441 1797 4441 
Q 1350 4441 1106 4219 
Q 863 3997 819 3553 
z
" transform="scale(0.015625)"/>
       </defs>
       <use xlink:href="#DejaVuSerif-32"/>
       <use xlink:href="#DejaVuSerif-30" x="63.623047"/>
      </g>
     </g>
    </g>
    <g id="xtick_3">
     <g id="line2d_7">
      <path d="M 390.966633 345.2325 
L 390.966633 50.52 
" clip-path="url(#p7f64148c58)" style="fill: none; stroke-dasharray: 3.7,1.6; stroke-dashoffset: 0; stroke: #b0b0b0; stroke-opacity: 0.5"/>
     </g>
     <g id="line2d_8">
      <g>
       <use xlink:href="#m4e39cea2f7" x="390.966633" y="345.2325" style="stroke: #000000; stroke-width: 2"/>
      </g>
     </g>
     <g id="line2d_9">
      <g>
       <use xlink:href="#mbf2b65bd64" x="390.966633" y="50.52" style="stroke: #000000; stroke-width: 2"/>
      </g>
     </g>
     <g id="text_3">
      <!-- 40 -->
      <g transform="translate(374.424133 368.488437) scale(0.26 -0.26)">
       <defs>
        <path id="DejaVuSerif-34" d="M 2234 1581 
L 2234 4063 
L 641 1581 
L 2234 1581 
z
M 3609 0 
L 1484 0 
L 1484 331 
L 2234 331 
L 2234 1247 
L 197 1247 
L 197 1588 
L 2241 4750 
L 2859 4750 
L 2859 1581 
L 3750 1581 
L 3750 1247 
L 2859 1247 
L 2859 331 
L 3609 331 
L 3609 0 
z
" transform="scale(0.015625)"/>
       </defs>
       <use xlink:href="#DejaVuSerif-34"/>
       <use xlink:href="#DejaVuSerif-30" x="63.623047"/>
      </g>
     </g>
    </g>
    <g id="text_4">
     <!-- $t$ (a.u.) -->
     <g transform="translate(278.244292 397.651563) scale(0.26 -0.26)">
      <defs>
       <path id="Cmmi10-74" d="M 397 519 
Q 397 613 416 697 
L 878 2534 
L 206 2534 
Q 141 2534 141 2619 
Q 166 2759 225 2759 
L 934 2759 
L 1191 3803 
Q 1216 3888 1291 3947 
Q 1366 4006 1459 4006 
Q 1541 4006 1595 3957 
Q 1650 3909 1650 3828 
Q 1650 3809 1648 3798 
Q 1647 3788 1644 3775 
L 1388 2759 
L 2047 2759 
Q 2113 2759 2113 2675 
Q 2109 2659 2100 2621 
Q 2091 2584 2075 2559 
Q 2059 2534 2028 2534 
L 1331 2534 
L 872 684 
Q 825 503 825 372 
Q 825 97 1013 97 
Q 1294 97 1511 361 
Q 1728 625 1844 941 
Q 1869 978 1894 978 
L 1972 978 
Q 1997 978 2012 961 
Q 2028 944 2028 922 
Q 2028 909 2022 903 
Q 1881 516 1612 222 
Q 1344 -72 997 -72 
Q 744 -72 570 93 
Q 397 259 397 519 
z
" transform="scale(0.015625)"/>
       <path id="DejaVuSerif-20" transform="scale(0.015625)"/>
       <path id="DejaVuSerif-28" d="M 2041 -997 
Q 1281 -656 893 83 
Q 506 822 506 1931 
Q 506 3044 893 3783 
Q 1281 4522 2041 4863 
L 2041 4556 
Q 1559 4225 1350 3623 
Q 1141 3022 1141 1931 
Q 1141 844 1350 242 
Q 1559 -359 2041 -691 
L 2041 -997 
z
" transform="scale(0.015625)"/>
       <path id="DejaVuSerif-61" d="M 2547 1044 
L 2547 1747 
L 1806 1747 
Q 1378 1747 1168 1562 
Q 959 1378 959 997 
Q 959 650 1171 447 
Q 1384 244 1747 244 
Q 2106 244 2326 466 
Q 2547 688 2547 1044 
z
M 3122 2075 
L 3122 331 
L 3634 331 
L 3634 0 
L 2547 0 
L 2547 359 
Q 2356 128 2106 18 
Q 1856 -91 1522 -91 
Q 969 -91 644 203 
Q 319 497 319 997 
Q 319 1513 691 1797 
Q 1063 2081 1741 2081 
L 2547 2081 
L 2547 2309 
Q 2547 2688 2317 2895 
Q 2088 3103 1672 3103 
Q 1328 3103 1125 2947 
Q 922 2791 872 2484 
L 575 2484 
L 575 3156 
Q 875 3284 1158 3348 
Q 1441 3413 1709 3413 
Q 2400 3413 2761 3070 
Q 3122 2728 3122 2075 
z
" transform="scale(0.015625)"/>
       <path id="DejaVuSerif-2e" d="M 603 325 
Q 603 500 722 622 
Q 841 744 1019 744 
Q 1191 744 1312 622 
Q 1434 500 1434 325 
Q 1434 153 1312 31 
Q 1191 -91 1019 -91 
Q 841 -91 722 29 
Q 603 150 603 325 
z
" transform="scale(0.015625)"/>
       <path id="DejaVuSerif-75" d="M 2266 3322 
L 3341 3322 
L 3341 331 
L 3884 331 
L 3884 0 
L 2766 0 
L 2766 588 
Q 2606 256 2353 82 
Q 2100 -91 1766 -91 
Q 1213 -91 952 223 
Q 691 538 691 1209 
L 691 2988 
L 172 2988 
L 172 3322 
L 1269 3322 
L 1269 1388 
Q 1269 781 1417 556 
Q 1566 331 1947 331 
Q 2347 331 2556 625 
Q 2766 919 2766 1478 
L 2766 2988 
L 2266 2988 
L 2266 3322 
z
" transform="scale(0.015625)"/>
       <path id="DejaVuSerif-29" d="M 453 -997 
L 453 -691 
Q 934 -359 1145 242 
Q 1356 844 1356 1931 
Q 1356 3022 1145 3623 
Q 934 4225 453 4556 
L 453 4863 
Q 1216 4522 1603 3783 
Q 1991 3044 1991 1931 
Q 1991 822 1603 83 
Q 1216 -656 453 -997 
z
" transform="scale(0.015625)"/>
      </defs>
      <use xlink:href="#Cmmi10-74" transform="translate(0 0.015625)"/>
      <use xlink:href="#DejaVuSerif-20" transform="translate(36.083984 0.015625)"/>
      <use xlink:href="#DejaVuSerif-28" transform="translate(67.871094 0.015625)"/>
      <use xlink:href="#DejaVuSerif-61" transform="translate(106.884766 0.015625)"/>
      <use xlink:href="#DejaVuSerif-2e" transform="translate(166.503906 0.015625)"/>
      <use xlink:href="#DejaVuSerif-75" transform="translate(198.291016 0.015625)"/>
      <use xlink:href="#DejaVuSerif-2e" transform="translate(262.695312 0.015625)"/>
      <use xlink:href="#DejaVuSerif-29" transform="translate(294.482422 0.015625)"/>
     </g>
    </g>
   </g>
   <g id="matplotlib.axis_2">
    <g id="ytick_1">
     <g id="line2d_10">
      <path d="M 194.61 316.779314 
L 448.718584 316.779314 
" clip-path="url(#p7f64148c58)" style="fill: none; stroke-dasharray: 3.7,1.6; stroke-dashoffset: 0; stroke: #b0b0b0; stroke-opacity: 0.5"/>
     </g>
     <g id="line2d_11">
      <defs>
       <path id="mec43cbeb32" d="M 0 0 
L 10 0 
" style="stroke: #000000; stroke-width: 2"/>
      </defs>
      <g>
       <use xlink:href="#mec43cbeb32" x="194.61" y="316.779314" style="stroke: #000000; stroke-width: 2"/>
      </g>
     </g>
     <g id="line2d_12">
      <defs>
       <path id="me5b2f1c207" d="M 0 0 
L -10 0 
" style="stroke: #000000; stroke-width: 2"/>
      </defs>
      <g>
       <use xlink:href="#me5b2f1c207" x="448.718584" y="316.779314" style="stroke: #000000; stroke-width: 2"/>
      </g>
     </g>
     <g id="text_5">
      <!-- −0.00030 -->
      <g transform="translate(61.804688 326.657283) scale(0.26 -0.26)">
       <defs>
        <path id="DejaVuSerif-2212" d="M 678 2259 
L 4684 2259 
L 4684 1753 
L 678 1753 
L 678 2259 
z
" transform="scale(0.015625)"/>
        <path id="DejaVuSerif-33" d="M 622 4469 
Q 988 4606 1323 4678 
Q 1659 4750 1953 4750 
Q 2638 4750 3022 4454 
Q 3406 4159 3406 3634 
Q 3406 3213 3140 2930 
Q 2875 2647 2388 2547 
Q 2963 2466 3280 2130 
Q 3597 1794 3597 1259 
Q 3597 606 3158 257 
Q 2719 -91 1894 -91 
Q 1528 -91 1179 -12 
Q 831 66 488 225 
L 488 1131 
L 838 1131 
Q 869 681 1141 450 
Q 1413 219 1906 219 
Q 2384 219 2661 495 
Q 2938 772 2938 1253 
Q 2938 1803 2653 2086 
Q 2369 2369 1819 2369 
L 1522 2369 
L 1522 2688 
L 1678 2688 
Q 2225 2688 2498 2914 
Q 2772 3141 2772 3597 
Q 2772 4006 2547 4223 
Q 2322 4441 1900 4441 
Q 1478 4441 1245 4241 
Q 1013 4041 972 3647 
L 622 3647 
L 622 4469 
z
" transform="scale(0.015625)"/>
       </defs>
       <use xlink:href="#DejaVuSerif-2212"/>
       <use xlink:href="#DejaVuSerif-30" x="83.789062"/>
       <use xlink:href="#DejaVuSerif-2e" x="147.412109"/>
       <use xlink:href="#DejaVuSerif-30" x="179.199219"/>
       <use xlink:href="#DejaVuSerif-30" x="242.822266"/>
       <use xlink:href="#DejaVuSerif-30" x="306.445312"/>
       <use xlink:href="#DejaVuSerif-33" x="370.068359"/>
       <use xlink:href="#DejaVuSerif-30" x="433.691406"/>
      </g>
     </g>
    </g>
    <g id="ytick_2">
     <g id="line2d_13">
      <path d="M 194.61 242.965625 
L 448.718584 242.965625 
" clip-path="url(#p7f64148c58)" style="fill: none; stroke-dasharray: 3.7,1.6; stroke-dashoffset: 0; stroke: #b0b0b0; stroke-opacity: 0.5"/>
     </g>
     <g id="line2d_14">
      <g>
       <use xlink:href="#mec43cbeb32" x="194.61" y="242.965625" style="stroke: #000000; stroke-width: 2"/>
      </g>
     </g>
     <g id="line2d_15">
      <g>
       <use xlink:href="#me5b2f1c207" x="448.718584" y="242.965625" style="stroke: #000000; stroke-width: 2"/>
      </g>
     </g>
     <g id="text_6">
      <!-- −0.00025 -->
      <g transform="translate(61.804688 252.843594) scale(0.26 -0.26)">
       <defs>
        <path id="DejaVuSerif-35" d="M 3219 4666 
L 3219 4153 
L 1081 4153 
L 1081 2816 
Q 1244 2928 1461 2984 
Q 1678 3041 1947 3041 
Q 2703 3041 3140 2622 
Q 3578 2203 3578 1478 
Q 3578 738 3136 323 
Q 2694 -91 1894 -91 
Q 1572 -91 1234 -12 
Q 897 66 544 225 
L 544 1131 
L 897 1131 
Q 925 688 1179 453 
Q 1434 219 1894 219 
Q 2388 219 2653 544 
Q 2919 869 2919 1478 
Q 2919 2084 2655 2407 
Q 2391 2731 1894 2731 
Q 1613 2731 1398 2631 
Q 1184 2531 1019 2322 
L 750 2322 
L 750 4666 
L 3219 4666 
z
" transform="scale(0.015625)"/>
       </defs>
       <use xlink:href="#DejaVuSerif-2212"/>
       <use xlink:href="#DejaVuSerif-30" x="83.789062"/>
       <use xlink:href="#DejaVuSerif-2e" x="147.412109"/>
       <use xlink:href="#DejaVuSerif-30" x="179.199219"/>
       <use xlink:href="#DejaVuSerif-30" x="242.822266"/>
       <use xlink:href="#DejaVuSerif-30" x="306.445312"/>
       <use xlink:href="#DejaVuSerif-32" x="370.068359"/>
       <use xlink:href="#DejaVuSerif-35" x="433.691406"/>
      </g>
     </g>
    </g>
    <g id="ytick_3">
     <g id="line2d_16">
      <path d="M 194.61 169.151936 
L 448.718584 169.151936 
" clip-path="url(#p7f64148c58)" style="fill: none; stroke-dasharray: 3.7,1.6; stroke-dashoffset: 0; stroke: #b0b0b0; stroke-opacity: 0.5"/>
     </g>
     <g id="line2d_17">
      <g>
       <use xlink:href="#mec43cbeb32" x="194.61" y="169.151936" style="stroke: #000000; stroke-width: 2"/>
      </g>
     </g>
     <g id="line2d_18">
      <g>
       <use xlink:href="#me5b2f1c207" x="448.718584" y="169.151936" style="stroke: #000000; stroke-width: 2"/>
      </g>
     </g>
     <g id="text_7">
      <!-- −0.00020 -->
      <g transform="translate(61.804688 179.029905) scale(0.26 -0.26)">
       <use xlink:href="#DejaVuSerif-2212"/>
       <use xlink:href="#DejaVuSerif-30" x="83.789062"/>
       <use xlink:href="#DejaVuSerif-2e" x="147.412109"/>
       <use xlink:href="#DejaVuSerif-30" x="179.199219"/>
       <use xlink:href="#DejaVuSerif-30" x="242.822266"/>
       <use xlink:href="#DejaVuSerif-30" x="306.445312"/>
       <use xlink:href="#DejaVuSerif-32" x="370.068359"/>
       <use xlink:href="#DejaVuSerif-30" x="433.691406"/>
      </g>
     </g>
    </g>
    <g id="ytick_4">
     <g id="line2d_19">
      <path d="M 194.61 95.338247 
L 448.718584 95.338247 
" clip-path="url(#p7f64148c58)" style="fill: none; stroke-dasharray: 3.7,1.6; stroke-dashoffset: 0; stroke: #b0b0b0; stroke-opacity: 0.5"/>
     </g>
     <g id="line2d_20">
      <g>
       <use xlink:href="#mec43cbeb32" x="194.61" y="95.338247" style="stroke: #000000; stroke-width: 2"/>
      </g>
     </g>
     <g id="line2d_21">
      <g>
       <use xlink:href="#me5b2f1c207" x="448.718584" y="95.338247" style="stroke: #000000; stroke-width: 2"/>
      </g>
     </g>
     <g id="text_8">
      <!-- −0.00015 -->
      <g transform="translate(61.804688 105.216216) scale(0.26 -0.26)">
       <defs>
        <path id="DejaVuSerif-31" d="M 909 0 
L 909 331 
L 1722 331 
L 1722 4213 
L 781 3603 
L 781 4013 
L 1919 4750 
L 2350 4750 
L 2350 331 
L 3163 331 
L 3163 0 
L 909 0 
z
" transform="scale(0.015625)"/>
       </defs>
       <use xlink:href="#DejaVuSerif-2212"/>
       <use xlink:href="#DejaVuSerif-30" x="83.789062"/>
       <use xlink:href="#DejaVuSerif-2e" x="147.412109"/>
       <use xlink:href="#DejaVuSerif-30" x="179.199219"/>
       <use xlink:href="#DejaVuSerif-30" x="242.822266"/>
       <use xlink:href="#DejaVuSerif-30" x="306.445312"/>
       <use xlink:href="#DejaVuSerif-31" x="370.068359"/>
       <use xlink:href="#DejaVuSerif-35" x="433.691406"/>
      </g>
     </g>
    </g>
    <g id="text_9">
     <!-- $E(t)$ (a.u.) -->
     <g transform="translate(51.304688 260.92625) rotate(-90) scale(0.26 -0.26)">
      <defs>
       <path id="Cmmi10-45" d="M 300 0 
Q 238 0 238 84 
Q 241 100 250 139 
Q 259 178 276 201 
Q 294 225 319 225 
Q 709 225 863 269 
Q 947 297 984 441 
L 1863 3956 
Q 1875 4019 1875 4044 
Q 1875 4113 1797 4122 
Q 1678 4147 1338 4147 
Q 1275 4147 1275 4231 
Q 1278 4247 1287 4286 
Q 1297 4325 1314 4348 
Q 1331 4372 1356 4372 
L 4825 4372 
Q 4891 4372 4891 4288 
L 4738 2963 
Q 4738 2947 4714 2926 
Q 4691 2906 4672 2906 
L 4616 2906 
Q 4550 2906 4550 2988 
Q 4588 3300 4588 3450 
Q 4588 3706 4500 3848 
Q 4413 3991 4267 4053 
Q 4122 4116 3945 4131 
Q 3769 4147 3481 4147 
L 2753 4147 
Q 2578 4147 2522 4117 
Q 2466 4088 2419 3928 
L 2034 2381 
L 2534 2381 
Q 2859 2381 3025 2426 
Q 3191 2472 3287 2615 
Q 3384 2759 3463 3072 
Q 3469 3094 3486 3111 
Q 3503 3128 3525 3128 
L 3584 3128 
Q 3647 3128 3647 3047 
L 3250 1466 
Q 3238 1409 3188 1409 
L 3128 1409 
Q 3066 1409 3066 1491 
Q 3128 1747 3128 1869 
Q 3128 2056 2959 2106 
Q 2791 2156 2509 2156 
L 1978 2156 
L 1544 416 
Q 1516 338 1516 275 
Q 1516 225 1734 225 
L 2509 225 
Q 2972 225 3259 297 
Q 3547 369 3736 526 
Q 3925 684 4062 928 
Q 4200 1172 4397 1638 
Q 4409 1678 4453 1678 
L 4513 1678 
Q 4538 1678 4556 1656 
Q 4575 1634 4575 1606 
Q 4575 1594 4569 1581 
L 3909 38 
Q 3897 0 3859 0 
L 300 0 
z
" transform="scale(0.015625)"/>
       <path id="Cmr10-28" d="M 1984 -1588 
Q 1628 -1306 1370 -942 
Q 1113 -578 948 -165 
Q 784 247 703 697 
Q 622 1147 622 1600 
Q 622 2059 703 2509 
Q 784 2959 951 3375 
Q 1119 3791 1378 4153 
Q 1638 4516 1984 4788 
Q 1984 4800 2016 4800 
L 2075 4800 
Q 2094 4800 2109 4783 
Q 2125 4766 2125 4744 
Q 2125 4716 2113 4703 
Q 1800 4397 1592 4047 
Q 1384 3697 1257 3301 
Q 1131 2906 1075 2482 
Q 1019 2059 1019 1600 
Q 1019 -434 2106 -1491 
Q 2125 -1509 2125 -1544 
Q 2125 -1559 2108 -1579 
Q 2091 -1600 2075 -1600 
L 2016 -1600 
Q 1984 -1600 1984 -1588 
z
" transform="scale(0.015625)"/>
       <path id="Cmr10-29" d="M 416 -1600 
Q 359 -1600 359 -1544 
Q 359 -1516 372 -1503 
Q 1466 -434 1466 1600 
Q 1466 3634 384 4691 
Q 359 4706 359 4744 
Q 359 4766 376 4783 
Q 394 4800 416 4800 
L 475 4800 
Q 494 4800 506 4788 
Q 966 4425 1272 3906 
Q 1578 3388 1720 2800 
Q 1863 2213 1863 1600 
Q 1863 1147 1786 708 
Q 1709 269 1542 -157 
Q 1375 -584 1119 -945 
Q 863 -1306 506 -1588 
Q 494 -1600 475 -1600 
L 416 -1600 
z
" transform="scale(0.015625)"/>
      </defs>
      <use xlink:href="#Cmmi10-45" transform="translate(0 0.015625)"/>
      <use xlink:href="#Cmr10-28" transform="translate(73.779297 0.015625)"/>
      <use xlink:href="#Cmmi10-74" transform="translate(112.597656 0.015625)"/>
      <use xlink:href="#Cmr10-29" transform="translate(148.681641 0.015625)"/>
      <use xlink:href="#DejaVuSerif-20" transform="translate(187.5 0.015625)"/>
      <use xlink:href="#DejaVuSerif-28" transform="translate(219.287109 0.015625)"/>
      <use xlink:href="#DejaVuSerif-61" transform="translate(258.300781 0.015625)"/>
      <use xlink:href="#DejaVuSerif-2e" transform="translate(317.919922 0.015625)"/>
      <use xlink:href="#DejaVuSerif-75" transform="translate(349.707031 0.015625)"/>
      <use xlink:href="#DejaVuSerif-2e" transform="translate(414.111328 0.015625)"/>
      <use xlink:href="#DejaVuSerif-29" transform="translate(445.898438 0.015625)"/>
     </g>
    </g>
    <g id="text_10">
     <!-- −2.749 -->
     <g transform="translate(194.61 47.52) scale(0.26 -0.26)">
      <defs>
       <path id="DejaVuSerif-37" d="M 3609 4347 
L 1784 0 
L 1319 0 
L 3059 4153 
L 903 4153 
L 903 3578 
L 538 3578 
L 538 4666 
L 3609 4666 
L 3609 4347 
z
" transform="scale(0.015625)"/>
       <path id="DejaVuSerif-39" d="M 2994 2091 
Q 2784 1856 2512 1740 
Q 2241 1625 1900 1625 
Q 1206 1625 804 2044 
Q 403 2463 403 3188 
Q 403 3897 839 4323 
Q 1275 4750 2003 4750 
Q 2794 4750 3217 4161 
Q 3641 3572 3641 2478 
Q 3641 1253 3137 581 
Q 2634 -91 1722 -91 
Q 1475 -91 1203 -44 
Q 931 3 647 97 
L 647 872 
L 997 872 
Q 1038 556 1241 387 
Q 1444 219 1784 219 
Q 2391 219 2687 676 
Q 2984 1134 2994 2091 
z
M 1978 4441 
Q 1534 4441 1298 4117 
Q 1063 3794 1063 3188 
Q 1063 2581 1298 2256 
Q 1534 1931 1978 1931 
Q 2422 1931 2658 2245 
Q 2894 2559 2894 3150 
Q 2894 3772 2656 4106 
Q 2419 4441 1978 4441 
z
" transform="scale(0.015625)"/>
      </defs>
      <use xlink:href="#DejaVuSerif-2212"/>
      <use xlink:href="#DejaVuSerif-32" x="83.789062"/>
      <use xlink:href="#DejaVuSerif-2e" x="147.412109"/>
      <use xlink:href="#DejaVuSerif-37" x="179.199219"/>
      <use xlink:href="#DejaVuSerif-34" x="242.822266"/>
      <use xlink:href="#DejaVuSerif-39" x="306.445312"/>
     </g>
    </g>
   </g>
   <g id="line2d_22">
    <path d="M 206.16039 209.023611 
L 206.391629 208.117471 
L 206.622868 208.273621 
L 206.854107 209.519311 
L 207.316585 214.719449 
L 208.241542 228.371796 
L 208.70402 232.276021 
L 208.935259 232.825448 
L 209.166498 232.445528 
L 209.397737 231.178705 
L 209.860215 226.745627 
L 210.553932 219.308385 
L 210.785171 217.893513 
L 211.01641 217.341791 
L 211.247649 217.765579 
L 211.478888 219.176161 
L 211.941366 224.393121 
L 213.097561 239.475016 
L 213.328801 240.965568 
L 213.56004 241.624877 
L 213.791279 241.444035 
L 214.022518 240.507745 
L 214.484996 236.806914 
L 215.409952 228.531471 
L 215.641191 227.635333 
L 215.87243 227.572272 
L 216.103669 228.345126 
L 216.566147 232.197867 
L 218.18482 250.424164 
L 218.416059 251.340333 
L 218.647298 251.593236 
L 218.878538 251.181646 
L 219.341016 248.787566 
L 220.497211 240.652832 
L 220.72845 239.993884 
L 220.959689 239.93632 
L 221.190928 240.508593 
L 221.653406 243.448833 
L 222.347123 250.760326 
L 223.272079 260.45394 
L 223.734557 263.343697 
L 223.965796 264.132631 
L 224.197036 264.466818 
L 224.428275 264.389829 
L 224.659514 263.951899 
L 225.121992 262.28882 
L 226.046948 258.364302 
L 226.278187 257.801015 
L 226.509426 257.539661 
L 226.740665 257.627983 
L 226.971904 258.084539 
L 227.434382 260.078721 
L 228.128099 265.229054 
L 229.978012 280.967491 
L 230.671729 284.537005 
L 231.134207 286.010081 
L 231.596685 286.906309 
L 232.059163 287.404278 
L 233.446597 288.45681 
L 233.909075 289.140172 
L 234.602792 290.70605 
L 235.527749 293.624306 
L 237.146422 298.991417 
L 237.840139 300.434883 
L 238.302617 300.859362 
L 238.533856 300.869367 
L 238.765095 300.74422 
L 239.227573 300.035963 
L 239.690051 298.648972 
L 240.152529 296.605036 
L 240.846247 292.277766 
L 242.002442 282.32439 
L 243.158637 272.449487 
L 243.621115 269.848183 
L 244.083593 268.786806 
L 244.314832 268.938171 
L 244.546071 269.592204 
L 245.008549 272.489403 
L 245.471027 277.309964 
L 246.164745 287.203785 
L 247.32094 303.872137 
L 247.783418 307.970452 
L 248.014657 309.054332 
L 248.245896 309.38424 
L 248.477135 308.850736 
L 248.708374 307.483086 
L 249.170852 301.863344 
L 249.63333 292.379977 
L 250.327047 271.749608 
L 251.483243 231.981158 
L 251.945721 222.726898 
L 252.17696 221.151443 
L 252.408199 221.990287 
L 252.639438 225.208106 
L 253.101916 238.072374 
L 254.48935 288.386888 
L 254.951828 296.252686 
L 255.183067 297.298602 
L 255.414306 296.336383 
L 255.645545 293.276075 
L 256.108023 281.378924 
L 256.570502 262.343078 
L 257.726697 206.528684 
L 257.957936 200.12417 
L 258.189175 197.47925 
L 258.420414 199.114414 
L 258.651653 204.848345 
L 259.114131 226.028606 
L 260.039087 274.759282 
L 260.501565 287.622813 
L 260.732804 289.780332 
L 260.964043 288.933042 
L 261.195282 285.20697 
L 261.65776 269.399782 
L 262.351478 230.037454 
L 263.045195 191.310629 
L 263.276434 182.202366 
L 263.507673 182.413347 
L 263.738912 186.453622 
L 263.970151 195.214594 
L 265.357585 277.849365 
L 265.588824 282.414578 
L 265.820063 284.10105 
L 266.051302 282.089853 
L 266.282541 276.557973 
L 266.745019 255.733908 
L 268.132454 172.207695 
L 268.363693 171.43147 
L 268.594932 176.663352 
L 269.05741 204.254049 
L 269.982366 267.497204 
L 270.444844 278.31087 
L 270.676083 277.801964 
L 270.907322 273.219848 
L 271.3698 252.80524 
L 272.757235 163.249686 
L 272.988474 162.234916 
L 273.219713 168.125345 
L 273.450952 180.104981 
L 274.607147 262.437931 
L 274.838386 271.099078 
L 275.069625 272.845512 
L 275.300864 271.11656 
L 275.532103 264.960807 
L 275.994581 241.651915 
L 277.150776 160.270185 
L 277.382015 154.136834 
L 277.613254 156.323389 
L 277.844493 165.617972 
L 279.231928 260.66262 
L 279.463167 265.709873 
L 279.694406 266.117291 
L 279.925645 261.996617 
L 280.156884 253.853845 
L 280.619362 226.36777 
L 281.544318 158.204695 
L 281.775557 150.884578 
L 282.006796 147.088567 
L 282.238035 149.165041 
L 283.856709 255.168444 
L 284.087948 258.218002 
L 284.319187 256.765888 
L 284.550426 251.089516 
L 285.012904 228.422858 
L 286.400338 139.782268 
L 286.631577 138.788243 
L 286.862816 145.885222 
L 287.325294 174.979243 
L 288.019011 225.140477 
L 288.481489 243.956392 
L 288.712728 247.250077 
L 288.943968 246.459635 
L 289.175207 241.746038 
L 289.637685 221.830996 
L 291.256358 128.035772 
L 291.487597 130.730581 
L 291.718836 137.834722 
L 292.181314 165.012536 
L 292.875031 209.240604 
L 293.337509 226.610923 
L 293.568748 230.305777 
L 293.799987 230.544503 
L 294.031226 227.513554 
L 294.493705 212.42344 
L 295.187422 173.306201 
L 295.881139 131.948074 
L 296.343617 116.866486 
L 296.574856 115.801658 
L 296.806095 118.875382 
L 297.268573 135.564877 
L 298.424768 188.264799 
L 298.887246 197.910257 
L 299.118485 199.21578 
L 299.349724 198.208909 
L 299.580963 194.998455 
L 300.043442 182.653244 
L 300.737159 153.254054 
L 301.893354 101.543843 
L 302.355832 90.144813 
L 302.587071 87.367543 
L 302.81831 86.477279 
L 303.049549 87.254887 
L 303.512027 92.252133 
L 304.436983 104.800289 
L 304.668222 106.606702 
L 304.899461 107.507248 
L 305.130701 107.411668 
L 305.36194 106.313909 
L 305.824418 101.370174 
L 306.518135 88.723053 
L 307.443091 70.398262 
L 307.905569 64.929323 
L 308.136808 63.916023 
L 308.368047 64.255056 
L 308.599286 66.06303 
L 309.061764 74.17025 
L 309.524242 87.973979 
L 310.449198 126.328278 
L 311.374155 164.694381 
L 311.836633 178.276061 
L 312.299111 186.547775 
L 312.53035 187.615826 
L 312.761589 186.36367 
L 312.992828 183.388296 
L 313.455306 170.857555 
L 313.917784 149.602939 
L 315.305218 75.622835 
L 315.536457 73.070175 
L 315.767696 75.991331 
L 315.998936 84.334941 
L 316.461414 114.11472 
L 317.848848 223.25263 
L 318.311326 244.392764 
L 318.542565 250.28406 
L 318.773804 252.811235 
L 319.005043 251.808907 
L 319.236282 247.09667 
L 319.69876 225.989078 
L 320.161238 188.90391 
L 321.086194 98.300317 
L 321.317434 85.698827 
L 321.548673 82.340174 
L 321.779912 89.195137 
L 322.24239 124.61176 
L 323.398585 239.90843 
L 323.861063 266.841255 
L 324.092302 274.050735 
L 324.323541 276.798842 
L 324.55478 274.902859 
L 324.786019 268.138658 
L 325.017258 256.101783 
L 325.479736 215.499724 
L 326.635931 90.31455 
L 326.867171 88.052387 
L 327.09841 98.283748 
L 327.560888 145.1041 
L 328.485844 248.618052 
L 328.948322 279.156374 
L 329.179561 287.097181 
L 329.4108 289.87423 
L 329.642039 287.132545 
L 329.873278 278.624867 
L 330.335756 242.435198 
L 331.029473 148.427187 
L 331.491951 96.528266 
L 331.72319 93.143421 
L 331.954429 99.119453 
L 332.416908 146.757576 
L 333.341864 257.464897 
L 333.804342 288.729238 
L 334.035581 296.33971 
L 334.26682 298.160597 
L 334.498059 293.828035 
L 334.729298 283.012365 
L 335.191776 240.374694 
L 336.347971 95.74828 
L 336.57921 97.746848 
L 336.810449 114.501063 
L 338.429123 292.617872 
L 338.660362 301.454004 
L 338.891601 304.239054 
L 339.12284 300.637548 
L 339.354079 290.212338 
L 339.816557 247.163535 
L 340.972752 99.258212 
L 341.203991 102.26381 
L 341.43523 120.556888 
L 342.822664 285.714157 
L 343.285143 307.066287 
L 343.516382 308.571705 
L 343.747621 303.481335 
L 343.97886 291.196633 
L 344.441338 244.012063 
L 345.366294 111.34184 
L 345.597533 102.302405 
L 345.828772 110.566668 
L 346.29125 162.886091 
L 346.984967 254.16726 
L 347.447445 294.554963 
L 347.678684 306.210023 
L 347.909923 311.84839 
L 348.141162 311.188617 
L 348.372402 303.672897 
L 348.603641 289.068012 
L 349.066119 236.452983 
L 349.991075 110.944385 
L 350.222314 107.852924 
L 350.453553 121.045089 
L 350.916031 177.096304 
L 351.609748 264.954578 
L 352.072226 301.435817 
L 352.303465 311.298097 
L 352.534704 315.200829 
L 352.765943 312.872854 
L 352.997182 303.823272 
L 353.45966 264.528272 
L 354.615856 114.850597 
L 354.847095 114.310067 
L 355.078334 129.054397 
L 355.772051 215.98523 
L 356.465768 289.443089 
L 356.928246 313.824974 
L 357.159485 317.653727 
L 357.390724 315.604335 
L 357.621963 307.097244 
L 358.084441 270.55636 
L 359.240637 124.030688 
L 359.471876 119.997733 
L 359.703115 130.209688 
L 360.165593 179.671829 
L 361.090549 284.078106 
L 361.553027 312.085299 
L 361.784266 318.511252 
L 362.015505 319.656018 
L 362.246744 315.165732 
L 362.477983 304.951002 
L 362.940461 265.860215 
L 364.096656 131.606688 
L 364.327895 128.697181 
L 364.559135 138.722384 
L 365.021613 184.152277 
L 365.946569 282.62086 
L 366.409047 311.143678 
L 366.640286 318.779682 
L 366.871525 321.811757 
L 367.102764 320.086924 
L 367.334003 313.376617 
L 367.796481 284.777377 
L 368.490198 207.730828 
L 368.952676 157.308698 
L 369.183915 143.213447 
L 369.415154 140.336436 
L 369.646393 148.107369 
L 370.108872 186.239857 
L 371.033828 276.742256 
L 371.496306 306.560897 
L 371.958784 321.885379 
L 372.190023 323.894038 
L 372.421262 322.028762 
L 372.652501 316.233435 
L 373.114979 292.564297 
L 373.577457 253.986837 
L 374.502413 169.07233 
L 374.733652 159.274719 
L 374.964891 157.589963 
L 375.19613 164.061407 
L 375.658609 193.696108 
L 376.814804 286.08785 
L 377.277282 310.111277 
L 377.73976 323.508499 
L 377.970999 326.171669 
L 378.202238 326.139862 
L 378.433477 323.375163 
L 378.895955 310.312862 
L 379.358433 287.122196 
L 380.05215 239.378572 
L 380.514628 209.488519 
L 380.977107 188.73821 
L 381.208346 186.534899 
L 381.439585 189.303262 
L 381.670824 193.756295 
L 382.133302 213.618657 
L 383.751975 300.744315 
L 384.214453 316.431434 
L 384.676931 326.519958 
L 385.139409 331.278235 
L 385.370648 331.836477 
L 385.601887 331.254353 
L 385.833126 329.657678 
L 386.295605 323.70065 
L 386.989322 309.325697 
L 388.839234 263.42625 
L 389.301712 256.349124 
L 389.76419 252.515242 
L 389.995429 251.75948 
L 390.226668 251.79967 
L 390.457907 252.488252 
L 390.689146 253.674677 
L 391.382863 260.191511 
L 394.157732 291.709675 
L 395.082688 298.762839 
L 396.470122 307.172949 
L 397.626318 313.309413 
L 398.320035 316.126933 
L 398.782513 317.200548 
L 399.013752 317.393542 
L 399.244991 317.297142 
L 399.47623 316.877366 
L 399.707469 316.112354 
L 400.169947 313.312025 
L 400.632425 308.589379 
L 401.326142 298.078317 
L 401.78862 287.967528 
L 402.944816 260.331363 
L 403.638533 247.434737 
L 403.869772 245.054809 
L 404.101011 243.996326 
L 404.33225 244.283122 
L 404.563489 246.003588 
L 405.025967 253.318401 
L 405.950923 276.984711 
L 406.64464 292.722516 
L 407.107118 298.328009 
L 407.338357 299.196757 
L 407.569596 298.669933 
L 407.800836 296.633226 
L 408.263314 288.202972 
L 408.725792 274.439675 
L 410.344465 217.904094 
L 410.575704 215.705848 
L 410.806943 216.547602 
L 411.038182 220.286437 
L 411.50066 235.177189 
L 412.656855 280.783732 
L 413.119333 288.852142 
L 413.350573 289.461756 
L 413.581812 287.733855 
L 413.813051 283.641592 
L 414.275529 268.95222 
L 415.200485 223.826905 
L 415.662963 205.188376 
L 415.894202 199.035364 
L 416.125441 198.702209 
L 416.35668 201.943426 
L 416.819158 218.313216 
L 417.512875 257.726902 
L 417.975353 275.471187 
L 418.206592 280.520099 
L 418.437831 283.073342 
L 418.669071 281.605965 
L 418.90031 277.420949 
L 419.362788 260.753731 
L 420.750222 189.864904 
L 420.981461 186.788466 
L 421.2127 188.995736 
L 421.443939 196.713968 
L 421.906417 222.173358 
L 422.600134 261.801297 
L 423.062612 275.081572 
L 423.293851 276.370838 
L 423.52509 274.031752 
L 423.756329 268.331106 
L 424.218808 247.649256 
L 425.375003 182.794848 
L 425.606242 176.541246 
L 425.837481 176.780421 
L 426.299959 197.657956 
L 427.224915 255.174958 
L 427.687393 268.762991 
L 427.918632 269.619683 
L 428.149871 266.533068 
L 428.38111 259.909804 
L 428.843588 236.834993 
L 429.768545 178.639663 
L 429.999784 171.557533 
L 430.231023 168.121333 
L 430.462262 169.625404 
L 430.92474 195.913523 
L 431.618457 242.001606 
L 432.080935 259.746462 
L 432.312174 262.599957 
L 432.543413 261.361423 
L 432.774652 256.229587 
L 433.23713 235.52663 
L 434.393325 165.844554 
L 434.855804 158.518169 
L 435.318282 180.710774 
L 436.243238 239.626137 
L 436.705716 253.256178 
L 436.936955 254.055102 
L 437.168194 250.904304 
L 437.168194 250.904304 
" clip-path="url(#p7f64148c58)" style="fill: none; stroke: #1f77b4; stroke-width: 3; stroke-linecap: square"/>
   </g>
   <g id="patch_3">
    <path d="M 194.61 345.2325 
L 194.61 50.52 
" style="fill: none; stroke: #000000; stroke-width: 2; stroke-linejoin: miter; stroke-linecap: square"/>
   </g>
   <g id="patch_4">
    <path d="M 448.718584 345.2325 
L 448.718584 50.52 
" style="fill: none; stroke: #000000; stroke-width: 2; stroke-linejoin: miter; stroke-linecap: square"/>
   </g>
   <g id="patch_5">
    <path d="M 194.61 345.2325 
L 448.718584 345.2325 
" style="fill: none; stroke: #000000; stroke-width: 2; stroke-linejoin: miter; stroke-linecap: square"/>
   </g>
   <g id="patch_6">
    <path d="M 194.61 50.52 
L 448.718584 50.52 
" style="fill: none; stroke: #000000; stroke-width: 2; stroke-linejoin: miter; stroke-linecap: square"/>
   </g>
  </g>
  <g id="axes_2">
   <g id="patch_7">
    <path d="M 581.811416 345.2325 
L 835.92 345.2325 
L 835.92 50.52 
L 581.811416 50.52 
z
" style="fill: #ffffff"/>
   </g>
   <g id="matplotlib.axis_3">
    <g id="xtick_4">
     <g id="line2d_23">
      <path d="M 593.361806 345.2325 
L 593.361806 50.52 
" clip-path="url(#p363f434923)" style="fill: none; stroke-dasharray: 3.7,1.6; stroke-dashoffset: 0; stroke: #b0b0b0; stroke-opacity: 0.5"/>
     </g>
     <g id="line2d_24">
      <g>
       <use xlink:href="#m4e39cea2f7" x="593.361806" y="345.2325" style="stroke: #000000; stroke-width: 2"/>
      </g>
     </g>
     <g id="line2d_25">
      <g>
       <use xlink:href="#mbf2b65bd64" x="593.361806" y="50.52" style="stroke: #000000; stroke-width: 2"/>
      </g>
     </g>
     <g id="text_11">
      <!-- 0 -->
      <g transform="translate(585.090556 368.488437) scale(0.26 -0.26)">
       <use xlink:href="#DejaVuSerif-30"/>
      </g>
     </g>
    </g>
    <g id="xtick_5">
     <g id="line2d_26">
      <path d="M 685.764928 345.2325 
L 685.764928 50.52 
" clip-path="url(#p363f434923)" style="fill: none; stroke-dasharray: 3.7,1.6; stroke-dashoffset: 0; stroke: #b0b0b0; stroke-opacity: 0.5"/>
     </g>
     <g id="line2d_27">
      <g>
       <use xlink:href="#m4e39cea2f7" x="685.764928" y="345.2325" style="stroke: #000000; stroke-width: 2"/>
      </g>
     </g>
     <g id="line2d_28">
      <g>
       <use xlink:href="#mbf2b65bd64" x="685.764928" y="50.52" style="stroke: #000000; stroke-width: 2"/>
      </g>
     </g>
     <g id="text_12">
      <!-- 20 -->
      <g transform="translate(669.222428 368.488437) scale(0.26 -0.26)">
       <use xlink:href="#DejaVuSerif-32"/>
       <use xlink:href="#DejaVuSerif-30" x="63.623047"/>
      </g>
     </g>
    </g>
    <g id="xtick_6">
     <g id="line2d_29">
      <path d="M 778.168049 345.2325 
L 778.168049 50.52 
" clip-path="url(#p363f434923)" style="fill: none; stroke-dasharray: 3.7,1.6; stroke-dashoffset: 0; stroke: #b0b0b0; stroke-opacity: 0.5"/>
     </g>
     <g id="line2d_30">
      <g>
       <use xlink:href="#m4e39cea2f7" x="778.168049" y="345.2325" style="stroke: #000000; stroke-width: 2"/>
      </g>
     </g>
     <g id="line2d_31">
      <g>
       <use xlink:href="#mbf2b65bd64" x="778.168049" y="50.52" style="stroke: #000000; stroke-width: 2"/>
      </g>
     </g>
     <g id="text_13">
      <!-- 40 -->
      <g transform="translate(761.625549 368.488437) scale(0.26 -0.26)">
       <use xlink:href="#DejaVuSerif-34"/>
       <use xlink:href="#DejaVuSerif-30" x="63.623047"/>
      </g>
     </g>
    </g>
    <g id="text_14">
     <!-- $t$ (a.u.) -->
     <g transform="translate(665.445708 397.651563) scale(0.26 -0.26)">
      <use xlink:href="#Cmmi10-74" transform="translate(0 0.015625)"/>
      <use xlink:href="#DejaVuSerif-20" transform="translate(36.083984 0.015625)"/>
      <use xlink:href="#DejaVuSerif-28" transform="translate(67.871094 0.015625)"/>
      <use xlink:href="#DejaVuSerif-61" transform="translate(106.884766 0.015625)"/>
      <use xlink:href="#DejaVuSerif-2e" transform="translate(166.503906 0.015625)"/>
      <use xlink:href="#DejaVuSerif-75" transform="translate(198.291016 0.015625)"/>
      <use xlink:href="#DejaVuSerif-2e" transform="translate(262.695312 0.015625)"/>
      <use xlink:href="#DejaVuSerif-29" transform="translate(294.482422 0.015625)"/>
     </g>
    </g>
   </g>
   <g id="matplotlib.axis_4">
    <g id="ytick_5">
     <g id="line2d_32">
      <path d="M 581.811416 331.836477 
L 835.92 331.836477 
" clip-path="url(#p363f434923)" style="fill: none; stroke-dasharray: 3.7,1.6; stroke-dashoffset: 0; stroke: #b0b0b0; stroke-opacity: 0.5"/>
     </g>
     <g id="line2d_33">
      <g>
       <use xlink:href="#mec43cbeb32" x="581.811416" y="331.836477" style="stroke: #000000; stroke-width: 2"/>
      </g>
     </g>
     <g id="line2d_34">
      <g>
       <use xlink:href="#me5b2f1c207" x="835.92" y="331.836477" style="stroke: #000000; stroke-width: 2"/>
      </g>
     </g>
     <g id="text_15">
      <!-- $\mathdefault{0}$ -->
      <g transform="translate(561.671416 341.714446) scale(0.26 -0.26)">
       <use xlink:href="#DejaVuSerif-30" transform="translate(0 0.78125)"/>
      </g>
     </g>
    </g>
    <g id="ytick_6">
     <g id="line2d_35">
      <path d="M 581.811416 287.16804 
L 835.92 287.16804 
" clip-path="url(#p363f434923)" style="fill: none; stroke-dasharray: 3.7,1.6; stroke-dashoffset: 0; stroke: #b0b0b0; stroke-opacity: 0.5"/>
     </g>
     <g id="line2d_36">
      <g>
       <use xlink:href="#mec43cbeb32" x="581.811416" y="287.16804" style="stroke: #000000; stroke-width: 2"/>
      </g>
     </g>
     <g id="line2d_37">
      <g>
       <use xlink:href="#me5b2f1c207" x="835.92" y="287.16804" style="stroke: #000000; stroke-width: 2"/>
      </g>
     </g>
     <g id="text_16">
      <!-- $\mathdefault{10^{-10}}$ -->
      <g transform="translate(505.771416 297.046009) scale(0.26 -0.26)">
       <use xlink:href="#DejaVuSerif-31" transform="translate(0 0.7125)"/>
       <use xlink:href="#DejaVuSerif-30" transform="translate(63.623047 0.7125)"/>
       <use xlink:href="#DejaVuSerif-2212" transform="translate(128.154453 37.046875) scale(0.7)"/>
       <use xlink:href="#DejaVuSerif-31" transform="translate(186.806797 37.046875) scale(0.7)"/>
       <use xlink:href="#DejaVuSerif-30" transform="translate(231.34293 37.046875) scale(0.7)"/>
      </g>
     </g>
    </g>
    <g id="ytick_7">
     <g id="line2d_38">
      <path d="M 581.811416 246.966446 
L 835.92 246.966446 
" clip-path="url(#p363f434923)" style="fill: none; stroke-dasharray: 3.7,1.6; stroke-dashoffset: 0; stroke: #b0b0b0; stroke-opacity: 0.5"/>
     </g>
     <g id="line2d_39">
      <g>
       <use xlink:href="#mec43cbeb32" x="581.811416" y="246.966446" style="stroke: #000000; stroke-width: 2"/>
      </g>
     </g>
     <g id="line2d_40">
      <g>
       <use xlink:href="#me5b2f1c207" x="835.92" y="246.966446" style="stroke: #000000; stroke-width: 2"/>
      </g>
     </g>
     <g id="text_17">
      <!-- $\mathdefault{10^{-9}}$ -->
      <g transform="translate(517.471416 256.844415) scale(0.26 -0.26)">
       <use xlink:href="#DejaVuSerif-31" transform="translate(0 0.7125)"/>
       <use xlink:href="#DejaVuSerif-30" transform="translate(63.623047 0.7125)"/>
       <use xlink:href="#DejaVuSerif-2212" transform="translate(128.154453 37.046875) scale(0.7)"/>
       <use xlink:href="#DejaVuSerif-39" transform="translate(186.806797 37.046875) scale(0.7)"/>
      </g>
     </g>
    </g>
    <g id="ytick_8">
     <g id="line2d_41">
      <path d="M 581.811416 206.764853 
L 835.92 206.764853 
" clip-path="url(#p363f434923)" style="fill: none; stroke-dasharray: 3.7,1.6; stroke-dashoffset: 0; stroke: #b0b0b0; stroke-opacity: 0.5"/>
     </g>
     <g id="line2d_42">
      <g>
       <use xlink:href="#mec43cbeb32" x="581.811416" y="206.764853" style="stroke: #000000; stroke-width: 2"/>
      </g>
     </g>
     <g id="line2d_43">
      <g>
       <use xlink:href="#me5b2f1c207" x="835.92" y="206.764853" style="stroke: #000000; stroke-width: 2"/>
      </g>
     </g>
     <g id="text_18">
      <!-- $\mathdefault{10^{-8}}$ -->
      <g transform="translate(517.471416 216.642821) scale(0.26 -0.26)">
       <defs>
        <path id="DejaVuSerif-38" d="M 2981 1275 
Q 2981 1775 2732 2051 
Q 2484 2328 2034 2328 
Q 1584 2328 1336 2051 
Q 1088 1775 1088 1275 
Q 1088 772 1336 495 
Q 1584 219 2034 219 
Q 2484 219 2732 495 
Q 2981 772 2981 1275 
z
M 2853 3541 
Q 2853 3966 2637 4203 
Q 2422 4441 2034 4441 
Q 1650 4441 1433 4203 
Q 1216 3966 1216 3541 
Q 1216 3113 1433 2875 
Q 1650 2638 2034 2638 
Q 2422 2638 2637 2875 
Q 2853 3113 2853 3541 
z
M 2516 2484 
Q 3047 2413 3344 2092 
Q 3641 1772 3641 1275 
Q 3641 619 3225 264 
Q 2809 -91 2034 -91 
Q 1263 -91 845 264 
Q 428 619 428 1275 
Q 428 1772 725 2092 
Q 1022 2413 1556 2484 
Q 1084 2569 832 2842 
Q 581 3116 581 3541 
Q 581 4103 968 4426 
Q 1356 4750 2034 4750 
Q 2713 4750 3100 4426 
Q 3488 4103 3488 3541 
Q 3488 3116 3236 2842 
Q 2984 2569 2516 2484 
z
" transform="scale(0.015625)"/>
       </defs>
       <use xlink:href="#DejaVuSerif-31" transform="translate(0 0.7125)"/>
       <use xlink:href="#DejaVuSerif-30" transform="translate(63.623047 0.7125)"/>
       <use xlink:href="#DejaVuSerif-2212" transform="translate(128.154453 37.046875) scale(0.7)"/>
       <use xlink:href="#DejaVuSerif-38" transform="translate(186.806797 37.046875) scale(0.7)"/>
      </g>
     </g>
    </g>
    <g id="ytick_9">
     <g id="line2d_44">
      <path d="M 581.811416 166.563259 
L 835.92 166.563259 
" clip-path="url(#p363f434923)" style="fill: none; stroke-dasharray: 3.7,1.6; stroke-dashoffset: 0; stroke: #b0b0b0; stroke-opacity: 0.5"/>
     </g>
     <g id="line2d_45">
      <g>
       <use xlink:href="#mec43cbeb32" x="581.811416" y="166.563259" style="stroke: #000000; stroke-width: 2"/>
      </g>
     </g>
     <g id="line2d_46">
      <g>
       <use xlink:href="#me5b2f1c207" x="835.92" y="166.563259" style="stroke: #000000; stroke-width: 2"/>
      </g>
     </g>
     <g id="text_19">
      <!-- $\mathdefault{10^{-7}}$ -->
      <g transform="translate(517.471416 176.441228) scale(0.26 -0.26)">
       <use xlink:href="#DejaVuSerif-31" transform="translate(0 0.63125)"/>
       <use xlink:href="#DejaVuSerif-30" transform="translate(63.623047 0.63125)"/>
       <use xlink:href="#DejaVuSerif-2212" transform="translate(128.154453 36.965625) scale(0.7)"/>
       <use xlink:href="#DejaVuSerif-37" transform="translate(186.806797 36.965625) scale(0.7)"/>
      </g>
     </g>
    </g>
    <g id="ytick_10">
     <g id="line2d_47">
      <path d="M 581.811416 126.361665 
L 835.92 126.361665 
" clip-path="url(#p363f434923)" style="fill: none; stroke-dasharray: 3.7,1.6; stroke-dashoffset: 0; stroke: #b0b0b0; stroke-opacity: 0.5"/>
     </g>
     <g id="line2d_48">
      <g>
       <use xlink:href="#mec43cbeb32" x="581.811416" y="126.361665" style="stroke: #000000; stroke-width: 2"/>
      </g>
     </g>
     <g id="line2d_49">
      <g>
       <use xlink:href="#me5b2f1c207" x="835.92" y="126.361665" style="stroke: #000000; stroke-width: 2"/>
      </g>
     </g>
     <g id="text_20">
      <!-- $\mathdefault{10^{-6}}$ -->
      <g transform="translate(517.471416 136.239634) scale(0.26 -0.26)">
       <defs>
        <path id="DejaVuSerif-36" d="M 2094 219 
Q 2534 219 2771 542 
Q 3009 866 3009 1472 
Q 3009 2078 2771 2401 
Q 2534 2725 2094 2725 
Q 1647 2725 1412 2412 
Q 1178 2100 1178 1509 
Q 1178 888 1415 553 
Q 1653 219 2094 219 
z
M 1075 2569 
Q 1288 2803 1556 2918 
Q 1825 3034 2163 3034 
Q 2859 3034 3264 2615 
Q 3669 2197 3669 1472 
Q 3669 763 3233 336 
Q 2797 -91 2069 -91 
Q 1278 -91 853 498 
Q 428 1088 428 2181 
Q 428 3406 931 4078 
Q 1434 4750 2350 4750 
Q 2597 4750 2869 4703 
Q 3141 4656 3425 4563 
L 3425 3794 
L 3072 3794 
Q 3034 4109 2831 4275 
Q 2628 4441 2284 4441 
Q 1678 4441 1381 3981 
Q 1084 3522 1075 2569 
z
" transform="scale(0.015625)"/>
       </defs>
       <use xlink:href="#DejaVuSerif-31" transform="translate(0 0.7125)"/>
       <use xlink:href="#DejaVuSerif-30" transform="translate(63.623047 0.7125)"/>
       <use xlink:href="#DejaVuSerif-2212" transform="translate(128.154453 37.046875) scale(0.7)"/>
       <use xlink:href="#DejaVuSerif-36" transform="translate(186.806797 37.046875) scale(0.7)"/>
      </g>
     </g>
    </g>
    <g id="ytick_11">
     <g id="line2d_50">
      <path d="M 581.811416 86.160072 
L 835.92 86.160072 
" clip-path="url(#p363f434923)" style="fill: none; stroke-dasharray: 3.7,1.6; stroke-dashoffset: 0; stroke: #b0b0b0; stroke-opacity: 0.5"/>
     </g>
     <g id="line2d_51">
      <g>
       <use xlink:href="#mec43cbeb32" x="581.811416" y="86.160072" style="stroke: #000000; stroke-width: 2"/>
      </g>
     </g>
     <g id="line2d_52">
      <g>
       <use xlink:href="#me5b2f1c207" x="835.92" y="86.160072" style="stroke: #000000; stroke-width: 2"/>
      </g>
     </g>
     <g id="text_21">
      <!-- $\mathdefault{10^{-5}}$ -->
      <g transform="translate(517.471416 96.03804) scale(0.26 -0.26)">
       <use xlink:href="#DejaVuSerif-31" transform="translate(0 0.63125)"/>
       <use xlink:href="#DejaVuSerif-30" transform="translate(63.623047 0.63125)"/>
       <use xlink:href="#DejaVuSerif-2212" transform="translate(128.154453 36.965625) scale(0.7)"/>
       <use xlink:href="#DejaVuSerif-35" transform="translate(186.806797 36.965625) scale(0.7)"/>
      </g>
     </g>
    </g>
    <g id="text_22">
     <!-- |E(t) - E(0)| / |E(0)| -->
     <g transform="translate(495.641103 321.362031) rotate(-90) scale(0.26 -0.26)">
      <defs>
       <path id="DejaVuSerif-7c" d="M 1331 4891 
L 1331 -1509 
L 825 -1509 
L 825 4891 
L 1331 4891 
z
" transform="scale(0.015625)"/>
       <path id="DejaVuSerif-45" d="M 353 0 
L 353 331 
L 947 331 
L 947 4331 
L 353 4331 
L 353 4666 
L 4109 4666 
L 4109 3628 
L 3725 3628 
L 3725 4281 
L 1581 4281 
L 1581 2719 
L 3109 2719 
L 3109 3303 
L 3494 3303 
L 3494 1753 
L 3109 1753 
L 3109 2338 
L 1581 2338 
L 1581 384 
L 3775 384 
L 3775 1038 
L 4159 1038 
L 4159 0 
L 353 0 
z
" transform="scale(0.015625)"/>
       <path id="DejaVuSerif-74" d="M 691 2988 
L 184 2988 
L 184 3322 
L 691 3322 
L 691 4353 
L 1269 4353 
L 1269 3322 
L 2350 3322 
L 2350 2988 
L 1269 2988 
L 1269 878 
Q 1269 456 1350 337 
Q 1431 219 1650 219 
Q 1875 219 1978 351 
Q 2081 484 2088 781 
L 2522 781 
Q 2497 328 2275 118 
Q 2053 -91 1600 -91 
Q 1103 -91 897 129 
Q 691 350 691 878 
L 691 2988 
z
" transform="scale(0.015625)"/>
       <path id="DejaVuSerif-2d" d="M 281 1959 
L 1881 1959 
L 1881 1472 
L 281 1472 
L 281 1959 
z
" transform="scale(0.015625)"/>
       <path id="DejaVuSerif-2f" d="M 1656 4666 
L 2156 4666 
L 500 -594 
L 0 -594 
L 1656 4666 
z
" transform="scale(0.015625)"/>
      </defs>
      <use xlink:href="#DejaVuSerif-7c"/>
      <use xlink:href="#DejaVuSerif-45" x="33.691406"/>
      <use xlink:href="#DejaVuSerif-28" x="106.689453"/>
      <use xlink:href="#DejaVuSerif-74" x="145.703125"/>
      <use xlink:href="#DejaVuSerif-29" x="185.888672"/>
      <use xlink:href="#DejaVuSerif-20" x="224.902344"/>
      <use xlink:href="#DejaVuSerif-2d" x="256.689453"/>
      <use xlink:href="#DejaVuSerif-20" x="290.478516"/>
      <use xlink:href="#DejaVuSerif-45" x="322.265625"/>
      <use xlink:href="#DejaVuSerif-28" x="395.263672"/>
      <use xlink:href="#DejaVuSerif-30" x="434.277344"/>
      <use xlink:href="#DejaVuSerif-29" x="497.900391"/>
      <use xlink:href="#DejaVuSerif-7c" x="536.914062"/>
      <use xlink:href="#DejaVuSerif-20" x="570.605469"/>
      <use xlink:href="#DejaVuSerif-2f" x="602.392578"/>
      <use xlink:href="#DejaVuSerif-20" x="636.083984"/>
      <use xlink:href="#DejaVuSerif-7c" x="667.871094"/>
      <use xlink:href="#DejaVuSerif-45" x="701.5625"/>
      <use xlink:href="#DejaVuSerif-28" x="774.560547"/>
      <use xlink:href="#DejaVuSerif-30" x="813.574219"/>
      <use xlink:href="#DejaVuSerif-29" x="877.197266"/>
      <use xlink:href="#DejaVuSerif-7c" x="916.210938"/>
     </g>
    </g>
   </g>
   <g id="line2d_53">
    <path d="M 593.361806 331.836477 
L 593.593045 152.540221 
L 593.824284 155.842376 
L 594.055523 163.072102 
L 594.286762 133.716948 
L 594.74924 111.937686 
L 595.211718 102.063519 
L 595.674196 97.07949 
L 595.905436 95.885221 
L 596.136675 95.477476 
L 596.367914 95.758406 
L 596.599153 96.729228 
L 597.061631 100.627193 
L 598.217826 113.832807 
L 598.449065 112.96522 
L 598.911543 106.836778 
L 599.60526 96.776521 
L 600.067738 92.510105 
L 600.530216 90.34168 
L 600.761455 89.984974 
L 600.992694 90.082091 
L 601.223934 90.593735 
L 601.686412 92.776998 
L 602.842607 99.771968 
L 603.073846 99.831225 
L 603.305085 99.118506 
L 603.767563 95.944002 
L 604.692519 88.718676 
L 605.154997 86.481924 
L 605.617475 85.431036 
L 605.848714 85.327002 
L 606.079953 85.496631 
L 606.542431 86.517381 
L 607.929866 90.881044 
L 608.161105 90.913526 
L 608.392344 90.593265 
L 608.854822 89.034516 
L 610.473495 82.025668 
L 610.935973 81.071236 
L 611.398451 80.713928 
L 611.62969 80.738189 
L 612.092169 81.110364 
L 613.479603 82.950329 
L 613.710842 83.04413 
L 613.942081 83.012374 
L 614.404559 82.56194 
L 614.867037 81.64838 
L 617.179427 76.165298 
L 617.873145 75.319853 
L 618.566862 74.867391 
L 619.491818 74.632581 
L 620.879252 74.368924 
L 621.804208 73.94879 
L 623.422882 72.837436 
L 624.579077 72.151197 
L 625.272794 71.932049 
L 625.966511 71.925113 
L 626.660228 72.17403 
L 627.353945 72.731352 
L 628.047662 73.616032 
L 628.972619 75.324786 
L 630.591292 78.774582 
L 631.05377 79.30156 
L 631.285009 79.403941 
L 631.516248 79.359777 
L 631.747487 79.170222 
L 632.209965 78.354442 
L 632.903682 76.322653 
L 634.291117 71.866656 
L 634.753595 70.916557 
L 635.216073 70.410861 
L 635.447312 70.353373 
L 635.678551 70.446432 
L 635.90979 70.687282 
L 636.372268 71.713373 
L 636.834746 73.594611 
L 637.297224 76.575891 
L 637.759702 81.020701 
L 638.453419 91.493689 
L 639.147137 105.117244 
L 639.378376 107.2496 
L 639.609615 106.081926 
L 640.072093 97.030104 
L 640.76581 83.638723 
L 641.228288 77.911727 
L 641.690766 74.451676 
L 642.153244 72.801735 
L 642.384483 72.593635 
L 642.615722 72.784991 
L 642.846961 73.407921 
L 643.309439 76.065736 
L 643.771917 81.39585 
L 644.234395 91.50277 
L 644.465635 100.507689 
L 644.928113 134.857052 
L 645.159352 112.653515 
L 645.390591 108.110448 
L 645.62183 110.777078 
L 645.853069 125.866919 
L 646.084308 122.125251 
L 646.315547 101.348274 
L 646.778025 85.008944 
L 647.240503 77.74091 
L 647.702981 74.620581 
L 647.93422 74.147789 
L 648.165459 74.331937 
L 648.396698 75.165635 
L 648.627937 76.743342 
L 648.859176 79.225777 
L 649.090415 82.936635 
L 649.321654 88.448022 
L 649.552893 97.652582 
L 649.784132 118.53789 
L 650.015372 117.85268 
L 650.246611 100.636095 
L 650.47785 93.392281 
L 650.709089 93.530162 
L 650.940328 96.405294 
L 651.171567 104.98305 
L 651.402806 156.609258 
L 651.634045 102.463445 
L 651.865284 90.146083 
L 652.327762 79.709946 
L 652.559001 76.938893 
L 652.79024 75.817605 
L 653.021479 75.420942 
L 653.252718 75.895026 
L 653.483957 77.269598 
L 653.715196 79.745106 
L 653.946435 83.706363 
L 654.177674 90.125515 
L 654.408913 101.937361 
L 654.640152 183.450663 
L 654.871391 102.84469 
L 655.10263 92.737864 
L 655.33387 87.862283 
L 655.565109 87.497999 
L 655.796348 90.114522 
L 656.027587 97.513689 
L 656.258826 123.543494 
L 656.721304 91.171967 
L 657.183782 79.784812 
L 657.415021 77.781907 
L 657.64626 76.822212 
L 657.877499 76.950921 
L 658.108738 78.154646 
L 658.339977 80.630589 
L 658.571216 84.83686 
L 658.802455 92.085391 
L 659.264933 120.44424 
L 659.496172 96.435803 
L 659.95865 84.059914 
L 660.189889 83.677084 
L 660.421128 86.026305 
L 660.652368 92.077738 
L 660.883607 109.242053 
L 661.114846 114.287896 
L 661.346085 93.685228 
L 661.808563 81.364818 
L 662.039802 78.74117 
L 662.271041 78.256751 
L 662.50228 78.736253 
L 662.733519 80.559058 
L 662.964758 83.844533 
L 663.195997 89.970499 
L 663.427236 102.200403 
L 663.658475 141.480742 
L 663.889714 98.45753 
L 664.120953 87.885234 
L 664.352192 82.958914 
L 664.583431 80.890036 
L 664.81467 81.599806 
L 665.045909 84.987446 
L 665.277148 93.003622 
L 665.508387 112.902267 
L 665.739626 109.041745 
L 665.970865 92.626 
L 666.202105 85.582433 
L 666.433344 81.954969 
L 666.664583 80.326808 
L 666.895822 80.201772 
L 667.127061 81.509668 
L 667.3583 84.423624 
L 667.589539 89.986416 
L 667.820778 101.003476 
L 668.052017 181.751027 
L 668.283256 99.703162 
L 668.514495 88.109928 
L 668.745734 82.234471 
L 668.976973 79.884993 
L 669.208212 78.78071 
L 669.439451 79.3761 
L 669.67069 84.839028 
L 669.901929 93.548066 
L 670.133168 116.183373 
L 670.364407 109.033737 
L 670.595646 93.513679 
L 670.826885 87.028764 
L 671.058124 83.919011 
L 671.289363 82.801708 
L 671.520603 83.324829 
L 671.751842 85.534827 
L 671.983081 90.059727 
L 672.21432 99.048406 
L 672.445559 128.425023 
L 672.908037 90.353979 
L 673.370515 78.804931 
L 673.601754 76.833785 
L 673.832993 76.584922 
L 674.064232 78.444743 
L 674.295471 82.30179 
L 674.52671 89.228749 
L 674.757949 102.400779 
L 674.989188 146.103861 
L 675.220427 102.284807 
L 675.451666 92.956295 
L 675.682905 88.778978 
L 675.914144 87.20585 
L 676.145383 87.570657 
L 676.376622 89.920207 
L 676.607861 95.062713 
L 676.839101 106.297735 
L 677.07034 144.646499 
L 677.301579 100.825788 
L 677.764057 82.280833 
L 678.226535 75.332872 
L 678.457774 74.097893 
L 678.689013 74.688724 
L 678.920252 76.349487 
L 679.151491 79.634243 
L 679.38273 84.7456 
L 679.613969 92.523958 
L 679.845208 105.89917 
L 680.076447 177.495396 
L 680.307686 109.801068 
L 680.538925 100.760407 
L 680.770164 97.431058 
L 681.001403 97.236304 
L 681.232642 99.886582 
L 681.463881 106.932704 
L 681.69512 129.453989 
L 682.388838 88.391162 
L 682.851316 78.003539 
L 683.313794 72.945253 
L 683.545033 71.842217 
L 683.776272 71.64164 
L 684.007511 72.227016 
L 684.23875 73.625687 
L 684.701228 78.764317 
L 685.163706 86.908642 
L 686.319901 110.956597 
L 686.55114 109.250378 
L 687.244857 93.688275 
L 687.938575 80.61146 
L 688.632292 72.422787 
L 689.09477 69.156839 
L 689.557248 67.396907 
L 689.788487 66.99371 
L 690.019726 66.86641 
L 690.250965 66.97755 
L 690.713443 67.709178 
L 691.638399 69.694005 
L 692.100877 70.153464 
L 692.332116 70.137033 
L 692.563355 69.949424 
L 693.025834 69.128651 
L 693.95079 66.492794 
L 694.644507 64.713923 
L 695.106985 64.038371 
L 695.338224 63.916023 
L 695.569463 63.956863 
L 695.800702 64.176281 
L 696.26318 65.195573 
L 696.725658 67.08096 
L 697.188136 69.888519 
L 697.881853 76.057736 
L 698.575571 84.619841 
L 699.500527 96.478279 
L 699.731766 97.328307 
L 699.963005 96.335848 
L 700.425483 91.018018 
L 701.581678 72.854708 
L 702.044156 67.988713 
L 702.506634 65.384658 
L 702.737873 65.053725 
L 702.969112 65.432953 
L 703.200351 66.563826 
L 703.662829 71.328522 
L 704.125308 80.567603 
L 704.356547 88.201312 
L 704.587786 101.017113 
L 704.819025 169.020778 
L 705.050264 104.45994 
L 705.281503 93.730495 
L 705.743981 85.872372 
L 705.97522 84.83447 
L 706.206459 85.238771 
L 706.437698 87.276058 
L 706.668937 91.737693 
L 706.900176 101.388906 
L 707.131415 184.732798 
L 707.362654 98.411748 
L 707.825132 77.25771 
L 708.28761 68.637745 
L 708.518849 66.755854 
L 708.750088 66.286722 
L 708.981327 67.257985 
L 709.212566 69.511949 
L 709.443806 73.374923 
L 709.675045 79.325019 
L 709.906284 88.872757 
L 710.137523 110.051922 
L 710.368762 107.696087 
L 710.600001 90.929285 
L 711.062479 79.981775 
L 711.293718 77.930121 
L 711.524957 77.207438 
L 711.756196 77.702817 
L 711.987435 79.594326 
L 712.218674 83.569397 
L 712.449913 92.285572 
L 712.681152 118.203279 
L 713.14363 82.217184 
L 713.606108 69.63595 
L 713.837347 67.421853 
L 714.068586 67.092272 
L 714.299825 68.635133 
L 714.531064 72.102426 
L 714.762304 78.230069 
L 714.993543 88.380288 
L 715.224782 115.111831 
L 715.68726 86.591969 
L 716.149738 76.610447 
L 716.380977 74.737732 
L 716.612216 74.1275 
L 716.843455 74.729826 
L 717.074694 76.743268 
L 717.305933 81.045718 
L 717.537172 89.556319 
L 717.768411 119.038798 
L 718.230889 79.162201 
L 718.693367 68.360533 
L 718.924606 67.842952 
L 719.155845 68.76739 
L 719.387084 72.29614 
L 719.618323 78.687653 
L 719.849562 90.469159 
L 720.080802 140.891147 
L 720.312041 94.352358 
L 720.54328 83.071055 
L 721.005758 74.376523 
L 721.236997 72.784325 
L 721.468236 72.423974 
L 721.699475 73.293914 
L 721.930714 75.67597 
L 722.161953 80.448975 
L 722.393192 90.667674 
L 722.624431 164.378724 
L 722.85567 88.445005 
L 723.086909 76.5019 
L 723.318148 70.651576 
L 723.549387 68.239896 
L 723.780626 68.550689 
L 724.011865 71.399738 
L 724.243104 77.173259 
L 724.474343 88.012796 
L 724.705582 123.147167 
L 724.936821 95.203689 
L 725.16806 82.823054 
L 725.630539 73.544854 
L 725.861778 71.790523 
L 726.093017 71.27222 
L 726.324256 71.94543 
L 726.555495 74.054639 
L 726.786734 78.332054 
L 727.017973 87.245422 
L 727.249212 120.096382 
L 727.480451 90.968681 
L 727.71169 77.403327 
L 727.942929 71.169093 
L 728.174168 68.789447 
L 728.405407 69.274186 
L 728.636646 72.555755 
L 728.867885 79.249446 
L 729.099124 92.613217 
L 729.330363 124.352589 
L 729.561602 90.170536 
L 729.792841 80.103308 
L 730.255319 72.191144 
L 730.486558 70.761348 
L 730.717797 70.495302 
L 730.949037 71.411716 
L 731.180276 73.844243 
L 731.411515 78.645886 
L 731.642754 88.751176 
L 731.873993 156.100464 
L 732.105232 87.7925 
L 732.336471 76.08931 
L 732.56771 70.825736 
L 732.798949 69.280499 
L 733.030188 70.687731 
L 733.261427 75.136878 
L 733.492666 83.921778 
L 733.723905 105.709102 
L 733.955144 100.634635 
L 734.186383 84.301988 
L 734.648861 73.144893 
L 734.8801 70.9145 
L 735.111339 69.929873 
L 735.342578 70.042262 
L 735.573817 71.376344 
L 735.805056 74.302473 
L 736.036295 79.930607 
L 736.267535 93.000841 
L 736.498774 115.299129 
L 736.730013 84.296729 
L 736.961252 74.824151 
L 737.192491 70.75484 
L 737.42373 70.213016 
L 737.654969 72.65237 
L 737.886208 78.476415 
L 738.117447 90.34969 
L 738.348686 180.135427 
L 738.579925 91.449295 
L 738.811164 80.561002 
L 739.273642 71.793959 
L 739.504881 70.023562 
L 739.73612 69.369722 
L 739.967359 69.756783 
L 740.198598 71.348628 
L 740.429837 74.599727 
L 740.661076 80.694587 
L 741.123554 109.158951 
L 741.354793 83.636812 
L 741.586032 74.974359 
L 741.817272 71.464421 
L 742.048511 71.364495 
L 742.27975 74.318881 
L 742.510989 80.946902 
L 742.742228 95.139233 
L 742.973467 116.941116 
L 743.204706 88.604451 
L 743.667184 74.220852 
L 744.129662 69.59744 
L 744.360901 68.970966 
L 744.59214 69.303497 
L 744.823379 70.755836 
L 745.054618 73.642826 
L 745.285857 78.894486 
L 745.517096 90.337797 
L 745.748335 155.282679 
L 745.979574 88.474926 
L 746.210813 77.779593 
L 746.442052 73.255149 
L 746.673291 72.44575 
L 746.90453 74.57295 
L 747.13577 80.167198 
L 747.367009 91.818166 
L 747.598248 171.123421 
L 747.829487 92.238236 
L 748.291965 75.426278 
L 748.754443 69.889693 
L 748.985682 68.833684 
L 749.216921 68.652083 
L 749.44816 69.375494 
L 749.679399 71.142158 
L 749.910638 74.373938 
L 750.141877 80.280564 
L 750.373116 92.206855 
L 750.604355 132.908163 
L 750.835594 89.043804 
L 751.066833 79.022543 
L 751.298072 74.885197 
L 751.529311 74.241065 
L 751.76055 76.568558 
L 751.991789 82.375439 
L 752.223028 94.710083 
L 752.454268 133.712216 
L 752.685507 91.987203 
L 753.147985 75.7686 
L 753.610463 70.049943 
L 753.841702 68.790931 
L 754.072941 68.315149 
L 754.30418 68.584212 
L 754.535419 69.672294 
L 754.766658 71.762046 
L 754.997897 75.264366 
L 755.229136 81.452595 
L 755.460375 93.100771 
L 755.691614 146.335902 
L 755.922853 92.109497 
L 756.154092 81.929325 
L 756.385331 77.721135 
L 756.61657 76.974082 
L 756.847809 79.070296 
L 757.079048 84.531609 
L 757.310287 96.240711 
L 757.541526 145.562987 
L 757.772765 94.229331 
L 758.235244 77.222021 
L 758.697722 70.85158 
L 759.1602 68.303756 
L 759.391439 67.995756 
L 759.622678 68.28159 
L 759.853917 69.200745 
L 760.085156 70.876191 
L 760.316395 73.556047 
L 760.547634 77.696485 
L 760.778873 84.371907 
L 761.010112 96.986722 
L 761.241351 141.410487 
L 761.47259 95.879662 
L 761.703829 86.435324 
L 761.935068 82.606013 
L 762.166307 82.024541 
L 762.397546 84.372303 
L 762.628785 90.091495 
L 762.860024 103.161571 
L 763.091263 126.235594 
L 763.322503 95.237673 
L 763.784981 78.954876 
L 764.247459 72.183325 
L 764.709937 68.894147 
L 764.941176 68.054454 
L 765.172415 67.652963 
L 765.403654 67.657704 
L 765.634893 68.0748 
L 765.866132 68.909647 
L 766.097371 70.192567 
L 766.559849 74.732139 
L 767.022327 83.084154 
L 767.253566 91.231415 
L 767.484805 105.751964 
L 767.716044 164.191795 
L 767.947283 108.6345 
L 768.178522 98.268547 
L 768.409761 96.46828 
L 768.641 98.76178 
L 768.87224 103.230263 
L 769.103479 118.284621 
L 769.334718 124.194304 
L 769.565957 100.643816 
L 770.028435 84.327268 
L 770.490913 76.487855 
L 770.953391 71.925095 
L 771.415869 69.16853 
L 771.878347 67.601132 
L 772.340825 66.90802 
L 772.572064 66.828478 
L 772.803303 66.91143 
L 773.265781 67.507213 
L 773.728259 68.676439 
L 774.421977 71.413002 
L 775.346933 76.661447 
L 776.503128 83.477909 
L 776.965606 84.952891 
L 777.196845 85.258952 
L 777.428084 85.24254 
L 777.659323 84.963729 
L 777.890562 84.493542 
L 778.584279 82.114984 
L 779.971714 77.059192 
L 780.89667 74.700112 
L 781.821626 72.961273 
L 782.746582 71.736975 
L 784.134016 70.283756 
L 785.290212 69.351498 
L 785.983929 69.043955 
L 786.446407 69.028372 
L 786.908885 69.220475 
L 787.371363 69.683105 
L 787.833841 70.492202 
L 788.527558 72.440097 
L 788.990036 74.544176 
L 789.914992 80.295994 
L 790.839949 87.121713 
L 791.071188 88.238446 
L 791.302427 88.759031 
L 791.533666 88.616438 
L 791.764905 87.784653 
L 792.227383 84.633411 
L 793.152339 77.159623 
L 793.614817 74.476718 
L 794.077295 72.824075 
L 794.308534 72.391213 
L 794.539773 72.222191 
L 794.771012 72.324494 
L 795.002251 72.725734 
L 795.464729 74.492183 
L 795.927208 77.826004 
L 796.389686 83.322743 
L 796.852164 91.995591 
L 797.77712 117.656236 
L 798.008359 115.584794 
L 798.933315 88.253011 
L 799.395793 80.575124 
L 799.858271 76.20995 
L 800.320749 74.349622 
L 800.551988 74.2168 
L 800.783227 74.595933 
L 801.014466 75.528118 
L 801.476945 79.355683 
L 801.939423 86.990126 
L 802.170662 93.515243 
L 802.401901 103.76914 
L 802.63314 125.151484 
L 802.864379 127.350043 
L 803.095618 110.638349 
L 803.326857 110.065499 
L 803.558096 116.646262 
L 803.789335 163.85163 
L 804.020574 111.904379 
L 804.251813 95.394997 
L 804.714291 82.976877 
L 805.176769 77.552845 
L 805.408008 76.27421 
L 805.639247 75.661587 
L 805.870486 76.011037 
L 806.101725 77.04791 
L 806.332964 78.957715 
L 806.564204 81.924192 
L 806.795443 86.382393 
L 807.026682 93.433685 
L 807.257921 106.009675 
L 807.48916 206.151351 
L 807.720399 107.574259 
L 807.951638 99.266246 
L 808.182877 96.666257 
L 808.414116 98.491614 
L 808.645355 106.989806 
L 808.876594 154.318581 
L 809.107833 105.837148 
L 809.570311 85.806848 
L 810.032789 78.998757 
L 810.264028 77.655519 
L 810.495267 77.318044 
L 810.726506 77.935218 
L 810.957745 79.53758 
L 811.188984 82.41392 
L 811.420223 87.024477 
L 811.651462 94.713855 
L 812.113941 123.608918 
L 812.34518 100.573765 
L 812.807658 90.048766 
L 813.038897 90.177799 
L 813.270136 95.797141 
L 813.732614 126.922178 
L 813.963853 98.890234 
L 814.426331 83.916546 
L 814.65757 80.841326 
L 814.888809 79.410899 
L 815.120048 79.162302 
L 815.351287 80.075088 
L 815.582526 82.211373 
L 815.813765 86.119637 
L 816.045004 92.759362 
L 816.276243 106.104839 
L 816.507482 133.179061 
L 816.738721 100.538051 
L 816.96996 91.214751 
L 817.201199 87.556646 
L 817.432439 86.024593 
L 817.663678 86.678715 
L 817.894917 93.156316 
L 818.126156 105.889884 
L 818.357395 130.311634 
L 818.588634 99.359544 
L 818.819873 89.784376 
L 819.282351 82.267506 
L 819.51359 81.311937 
L 819.744829 81.720286 
L 819.976068 83.522064 
L 820.207307 87.115326 
L 820.438546 93.600669 
L 820.669785 107.17342 
L 820.901024 128.641434 
L 821.132263 99.102502 
L 821.363502 89.558409 
L 821.594741 85.078824 
L 821.82598 83.253206 
L 822.057219 82.342502 
L 822.288458 86.063718 
L 822.519697 92.447364 
L 822.750937 106.257131 
L 822.982176 129.590834 
L 823.213415 100.055226 
L 823.444654 91.0896 
L 823.675893 86.680755 
L 823.907132 84.657954 
L 824.138371 84.345419 
L 824.36961 85.611869 
L 824.36961 85.611869 
" clip-path="url(#p363f434923)" style="fill: none; stroke: #1f77b4; stroke-width: 3; stroke-linecap: square"/>
   </g>
   <g id="patch_8">
    <path d="M 581.811416 345.2325 
L 581.811416 50.52 
" style="fill: none; stroke: #000000; stroke-width: 2; stroke-linejoin: miter; stroke-linecap: square"/>
   </g>
   <g id="patch_9">
    <path d="M 835.92 345.2325 
L 835.92 50.52 
" style="fill: none; stroke: #000000; stroke-width: 2; stroke-linejoin: miter; stroke-linecap: square"/>
   </g>
   <g id="patch_10">
    <path d="M 581.811416 345.2325 
L 835.92 345.2325 
" style="fill: none; stroke: #000000; stroke-width: 2; stroke-linejoin: miter; stroke-linecap: square"/>
   </g>
   <g id="patch_11">
    <path d="M 581.811416 50.52 
L 835.92 50.52 
" style="fill: none; stroke: #000000; stroke-width: 2; stroke-linejoin: miter; stroke-linecap: square"/>
   </g>
  </g>
 </g>
 <defs>
  <clipPath id="p7f64148c58">
   <rect x="194.61" y="50.52" width="254.108584" height="294.7125"/>
  </clipPath>
  <clipPath id="p363f434923">
   <rect x="581.811416" y="50.52" width="254.108584" height="294.7125"/>
  </clipPath>
 </defs>
</svg>
