<?xml version="1.0" encoding="utf-8" standalone="no"?>
<!DOCTYPE svg PUBLIC "-//W3C//DTD SVG 1.1//EN"
  "http://www.w3.org/Graphics/SVG/1.1/DTD/svg11.dtd">
<svg xmlns:xlink="http://www.w3.org/1999/xlink" width="864pt" height="576pt" viewBox="0 0 864 576" xmlns="http://www.w3.org/2000/svg" version="1.1">
 <metadata>
  <rdf:RDF xmlns:dc="http://purl.org/dc/elements/1.1/" xmlns:cc="http://creativecommons.org/ns#" xmlns:rdf="http://www.w3.org/1999/02/22-rdf-syntax-ns#">
   <cc:Work>
    <dc:type rdf:resource="http://purl.org/dc/dcmitype/StillImage"/>
    <dc:date>2025-07-11T14:31:40.020321</dc:date>
    <dc:format>image/svg+xml</dc:format>
    <dc:creator>
     <cc:Agent>
      <dc:title>Matplotlib v3.7.2, https://matplotlib.org/</dc:title>
     </cc:Agent>
    </dc:creator>
   </cc:Work>
  </rdf:RDF>
 </metadata>
 <defs>
  <style type="text/css">*{stroke-linejoin: round; stroke-linecap: butt}</style>
 </defs>
 <g id="figure_1">
  <g id="patch_1">
   <path d="M 0 576 
L 864 576 
L 864 0 
L 0 0 
z
" style="fill: #ffffff"/>
  </g>
  <g id="axes_1">
   <g id="patch_2">
    <path d="M 105.15 489.2325 
L 835.92 489.2325 
L 835.92 28.08 
L 105.15 28.08 
z
" style="fill: #ffffff"/>
   </g>
   <g id="matplotlib.axis_1">
    <g id="xtick_1">
     <g id="line2d_1">
      <path d="M 138.366818 489.2325 
L 138.366818 28.08 
" clip-path="url(#p49389457b5)" style="fill: none; stroke-dasharray: 3.7,1.6; stroke-dashoffset: 0; stroke: #b0b0b0; stroke-opacity: 0.5"/>
     </g>
     <g id="line2d_2">
      <defs>
       <path id="mc8bd83fc8a" d="M 0 0 
L 0 -10 
" style="stroke: #000000; stroke-width: 2"/>
      </defs>
      <g>
       <use xlink:href="#mc8bd83fc8a" x="138.366818" y="489.2325" style="stroke: #000000; stroke-width: 2"/>
      </g>
     </g>
     <g id="line2d_3">
      <defs>
       <path id="m30ae3f8add" d="M 0 0 
L 0 10 
" style="stroke: #000000; stroke-width: 2"/>
      </defs>
      <g>
       <use xlink:href="#m30ae3f8add" x="138.366818" y="28.08" style="stroke: #000000; stroke-width: 2"/>
      </g>
     </g>
     <g id="text_1">
      <!-- 0 -->
      <g transform="translate(130.095568 512.488438) scale(0.26 -0.26)">
       <defs>
        <path id="DejaVuSerif-30" d="M 2034 219 
Q 2513 219 2750 744 
Q 2988 1269 2988 2328 
Q 2988 3391 2750 3916 
Q 2513 4441 2034 4441 
Q 1556 4441 1318 3916 
Q 1081 3391 1081 2328 
Q 1081 1269 1318 744 
Q 1556 219 2034 219 
z
M 2034 -91 
Q 1275 -91 848 546 
Q 422 1184 422 2328 
Q 422 3475 848 4112 
Q 1275 4750 2034 4750 
Q 2797 4750 3222 4112 
Q 3647 3475 3647 2328 
Q 3647 1184 3222 546 
Q 2797 -91 2034 -91 
z
" transform="scale(0.015625)"/>
       </defs>
       <use xlink:href="#DejaVuSerif-30"/>
      </g>
     </g>
    </g>
    <g id="xtick_2">
     <g id="line2d_4">
      <path d="M 271.234091 489.2325 
L 271.234091 28.08 
" clip-path="url(#p49389457b5)" style="fill: none; stroke-dasharray: 3.7,1.6; stroke-dashoffset: 0; stroke: #b0b0b0; stroke-opacity: 0.5"/>
     </g>
     <g id="line2d_5">
      <g>
       <use xlink:href="#mc8bd83fc8a" x="271.234091" y="489.2325" style="stroke: #000000; stroke-width: 2"/>
      </g>
     </g>
     <g id="line2d_6">
      <g>
       <use xlink:href="#m30ae3f8add" x="271.234091" y="28.08" style="stroke: #000000; stroke-width: 2"/>
      </g>
     </g>
     <g id="text_2">
      <!-- 10 -->
      <g transform="translate(254.691591 512.488438) scale(0.26 -0.26)">
       <defs>
        <path id="DejaVuSerif-31" d="M 909 0 
L 909 331 
L 1722 331 
L 1722 4213 
L 781 3603 
L 781 4013 
L 1919 4750 
L 2350 4750 
L 2350 331 
L 3163 331 
L 3163 0 
L 909 0 
z
" transform="scale(0.015625)"/>
       </defs>
       <use xlink:href="#DejaVuSerif-31"/>
       <use xlink:href="#DejaVuSerif-30" x="63.623047"/>
      </g>
     </g>
    </g>
    <g id="xtick_3">
     <g id="line2d_7">
      <path d="M 404.101364 489.2325 
L 404.101364 28.08 
" clip-path="url(#p49389457b5)" style="fill: none; stroke-dasharray: 3.7,1.6; stroke-dashoffset: 0; stroke: #b0b0b0; stroke-opacity: 0.5"/>
     </g>
     <g id="line2d_8">
      <g>
       <use xlink:href="#mc8bd83fc8a" x="404.101364" y="489.2325" style="stroke: #000000; stroke-width: 2"/>
      </g>
     </g>
     <g id="line2d_9">
      <g>
       <use xlink:href="#m30ae3f8add" x="404.101364" y="28.08" style="stroke: #000000; stroke-width: 2"/>
      </g>
     </g>
     <g id="text_3">
      <!-- 20 -->
      <g transform="translate(387.558864 512.488438) scale(0.26 -0.26)">
       <defs>
        <path id="DejaVuSerif-32" d="M 819 3553 
L 469 3553 
L 469 4384 
Q 803 4563 1142 4656 
Q 1481 4750 1806 4750 
Q 2534 4750 2956 4397 
Q 3378 4044 3378 3438 
Q 3378 2753 2422 1800 
Q 2347 1728 2309 1691 
L 1131 513 
L 3078 513 
L 3078 1088 
L 3444 1088 
L 3444 0 
L 434 0 
L 434 341 
L 1850 1753 
Q 2319 2222 2519 2614 
Q 2719 3006 2719 3438 
Q 2719 3909 2473 4175 
Q 2228 4441 1797 4441 
Q 1350 4441 1106 4219 
Q 863 3997 819 3553 
z
" transform="scale(0.015625)"/>
       </defs>
       <use xlink:href="#DejaVuSerif-32"/>
       <use xlink:href="#DejaVuSerif-30" x="63.623047"/>
      </g>
     </g>
    </g>
    <g id="xtick_4">
     <g id="line2d_10">
      <path d="M 536.968636 489.2325 
L 536.968636 28.08 
" clip-path="url(#p49389457b5)" style="fill: none; stroke-dasharray: 3.7,1.6; stroke-dashoffset: 0; stroke: #b0b0b0; stroke-opacity: 0.5"/>
     </g>
     <g id="line2d_11">
      <g>
       <use xlink:href="#mc8bd83fc8a" x="536.968636" y="489.2325" style="stroke: #000000; stroke-width: 2"/>
      </g>
     </g>
     <g id="line2d_12">
      <g>
       <use xlink:href="#m30ae3f8add" x="536.968636" y="28.08" style="stroke: #000000; stroke-width: 2"/>
      </g>
     </g>
     <g id="text_4">
      <!-- 30 -->
      <g transform="translate(520.426136 512.488438) scale(0.26 -0.26)">
       <defs>
        <path id="DejaVuSerif-33" d="M 622 4469 
Q 988 4606 1323 4678 
Q 1659 4750 1953 4750 
Q 2638 4750 3022 4454 
Q 3406 4159 3406 3634 
Q 3406 3213 3140 2930 
Q 2875 2647 2388 2547 
Q 2963 2466 3280 2130 
Q 3597 1794 3597 1259 
Q 3597 606 3158 257 
Q 2719 -91 1894 -91 
Q 1528 -91 1179 -12 
Q 831 66 488 225 
L 488 1131 
L 838 1131 
Q 869 681 1141 450 
Q 1413 219 1906 219 
Q 2384 219 2661 495 
Q 2938 772 2938 1253 
Q 2938 1803 2653 2086 
Q 2369 2369 1819 2369 
L 1522 2369 
L 1522 2688 
L 1678 2688 
Q 2225 2688 2498 2914 
Q 2772 3141 2772 3597 
Q 2772 4006 2547 4223 
Q 2322 4441 1900 4441 
Q 1478 4441 1245 4241 
Q 1013 4041 972 3647 
L 622 3647 
L 622 4469 
z
" transform="scale(0.015625)"/>
       </defs>
       <use xlink:href="#DejaVuSerif-33"/>
       <use xlink:href="#DejaVuSerif-30" x="63.623047"/>
      </g>
     </g>
    </g>
    <g id="xtick_5">
     <g id="line2d_13">
      <path d="M 669.835909 489.2325 
L 669.835909 28.08 
" clip-path="url(#p49389457b5)" style="fill: none; stroke-dasharray: 3.7,1.6; stroke-dashoffset: 0; stroke: #b0b0b0; stroke-opacity: 0.5"/>
     </g>
     <g id="line2d_14">
      <g>
       <use xlink:href="#mc8bd83fc8a" x="669.835909" y="489.2325" style="stroke: #000000; stroke-width: 2"/>
      </g>
     </g>
     <g id="line2d_15">
      <g>
       <use xlink:href="#m30ae3f8add" x="669.835909" y="28.08" style="stroke: #000000; stroke-width: 2"/>
      </g>
     </g>
     <g id="text_5">
      <!-- 40 -->
      <g transform="translate(653.293409 512.488438) scale(0.26 -0.26)">
       <defs>
        <path id="DejaVuSerif-34" d="M 2234 1581 
L 2234 4063 
L 641 1581 
L 2234 1581 
z
M 3609 0 
L 1484 0 
L 1484 331 
L 2234 331 
L 2234 1247 
L 197 1247 
L 197 1588 
L 2241 4750 
L 2859 4750 
L 2859 1581 
L 3750 1581 
L 3750 1247 
L 2859 1247 
L 2859 331 
L 3609 331 
L 3609 0 
z
" transform="scale(0.015625)"/>
       </defs>
       <use xlink:href="#DejaVuSerif-34"/>
       <use xlink:href="#DejaVuSerif-30" x="63.623047"/>
      </g>
     </g>
    </g>
    <g id="xtick_6">
     <g id="line2d_16">
      <path d="M 802.703182 489.2325 
L 802.703182 28.08 
" clip-path="url(#p49389457b5)" style="fill: none; stroke-dasharray: 3.7,1.6; stroke-dashoffset: 0; stroke: #b0b0b0; stroke-opacity: 0.5"/>
     </g>
     <g id="line2d_17">
      <g>
       <use xlink:href="#mc8bd83fc8a" x="802.703182" y="489.2325" style="stroke: #000000; stroke-width: 2"/>
      </g>
     </g>
     <g id="line2d_18">
      <g>
       <use xlink:href="#m30ae3f8add" x="802.703182" y="28.08" style="stroke: #000000; stroke-width: 2"/>
      </g>
     </g>
     <g id="text_6">
      <!-- 50 -->
      <g transform="translate(786.160682 512.488438) scale(0.26 -0.26)">
       <defs>
        <path id="DejaVuSerif-35" d="M 3219 4666 
L 3219 4153 
L 1081 4153 
L 1081 2816 
Q 1244 2928 1461 2984 
Q 1678 3041 1947 3041 
Q 2703 3041 3140 2622 
Q 3578 2203 3578 1478 
Q 3578 738 3136 323 
Q 2694 -91 1894 -91 
Q 1572 -91 1234 -12 
Q 897 66 544 225 
L 544 1131 
L 897 1131 
Q 925 688 1179 453 
Q 1434 219 1894 219 
Q 2388 219 2653 544 
Q 2919 869 2919 1478 
Q 2919 2084 2655 2407 
Q 2391 2731 1894 2731 
Q 1613 2731 1398 2631 
Q 1184 2531 1019 2322 
L 750 2322 
L 750 4666 
L 3219 4666 
z
" transform="scale(0.015625)"/>
       </defs>
       <use xlink:href="#DejaVuSerif-35"/>
       <use xlink:href="#DejaVuSerif-30" x="63.623047"/>
      </g>
     </g>
    </g>
    <g id="text_7">
     <!-- $t$ (a.u.) -->
     <g transform="translate(427.115 541.651562) scale(0.26 -0.26)">
      <defs>
       <path id="Cmmi10-74" d="M 397 519 
Q 397 613 416 697 
L 878 2534 
L 206 2534 
Q 141 2534 141 2619 
Q 166 2759 225 2759 
L 934 2759 
L 1191 3803 
Q 1216 3888 1291 3947 
Q 1366 4006 1459 4006 
Q 1541 4006 1595 3957 
Q 1650 3909 1650 3828 
Q 1650 3809 1648 3798 
Q 1647 3788 1644 3775 
L 1388 2759 
L 2047 2759 
Q 2113 2759 2113 2675 
Q 2109 2659 2100 2621 
Q 2091 2584 2075 2559 
Q 2059 2534 2028 2534 
L 1331 2534 
L 872 684 
Q 825 503 825 372 
Q 825 97 1013 97 
Q 1294 97 1511 361 
Q 1728 625 1844 941 
Q 1869 978 1894 978 
L 1972 978 
Q 1997 978 2012 961 
Q 2028 944 2028 922 
Q 2028 909 2022 903 
Q 1881 516 1612 222 
Q 1344 -72 997 -72 
Q 744 -72 570 93 
Q 397 259 397 519 
z
" transform="scale(0.015625)"/>
       <path id="DejaVuSerif-20" transform="scale(0.015625)"/>
       <path id="DejaVuSerif-28" d="M 2041 -997 
Q 1281 -656 893 83 
Q 506 822 506 1931 
Q 506 3044 893 3783 
Q 1281 4522 2041 4863 
L 2041 4556 
Q 1559 4225 1350 3623 
Q 1141 3022 1141 1931 
Q 1141 844 1350 242 
Q 1559 -359 2041 -691 
L 2041 -997 
z
" transform="scale(0.015625)"/>
       <path id="DejaVuSerif-61" d="M 2547 1044 
L 2547 1747 
L 1806 1747 
Q 1378 1747 1168 1562 
Q 959 1378 959 997 
Q 959 650 1171 447 
Q 1384 244 1747 244 
Q 2106 244 2326 466 
Q 2547 688 2547 1044 
z
M 3122 2075 
L 3122 331 
L 3634 331 
L 3634 0 
L 2547 0 
L 2547 359 
Q 2356 128 2106 18 
Q 1856 -91 1522 -91 
Q 969 -91 644 203 
Q 319 497 319 997 
Q 319 1513 691 1797 
Q 1063 2081 1741 2081 
L 2547 2081 
L 2547 2309 
Q 2547 2688 2317 2895 
Q 2088 3103 1672 3103 
Q 1328 3103 1125 2947 
Q 922 2791 872 2484 
L 575 2484 
L 575 3156 
Q 875 3284 1158 3348 
Q 1441 3413 1709 3413 
Q 2400 3413 2761 3070 
Q 3122 2728 3122 2075 
z
" transform="scale(0.015625)"/>
       <path id="DejaVuSerif-2e" d="M 603 325 
Q 603 500 722 622 
Q 841 744 1019 744 
Q 1191 744 1312 622 
Q 1434 500 1434 325 
Q 1434 153 1312 31 
Q 1191 -91 1019 -91 
Q 841 -91 722 29 
Q 603 150 603 325 
z
" transform="scale(0.015625)"/>
       <path id="DejaVuSerif-75" d="M 2266 3322 
L 3341 3322 
L 3341 331 
L 3884 331 
L 3884 0 
L 2766 0 
L 2766 588 
Q 2606 256 2353 82 
Q 2100 -91 1766 -91 
Q 1213 -91 952 223 
Q 691 538 691 1209 
L 691 2988 
L 172 2988 
L 172 3322 
L 1269 3322 
L 1269 1388 
Q 1269 781 1417 556 
Q 1566 331 1947 331 
Q 2347 331 2556 625 
Q 2766 919 2766 1478 
L 2766 2988 
L 2266 2988 
L 2266 3322 
z
" transform="scale(0.015625)"/>
       <path id="DejaVuSerif-29" d="M 453 -997 
L 453 -691 
Q 934 -359 1145 242 
Q 1356 844 1356 1931 
Q 1356 3022 1145 3623 
Q 934 4225 453 4556 
L 453 4863 
Q 1216 4522 1603 3783 
Q 1991 3044 1991 1931 
Q 1991 822 1603 83 
Q 1216 -656 453 -997 
z
" transform="scale(0.015625)"/>
      </defs>
      <use xlink:href="#Cmmi10-74" transform="translate(0 0.015625)"/>
      <use xlink:href="#DejaVuSerif-20" transform="translate(36.083984 0.015625)"/>
      <use xlink:href="#DejaVuSerif-28" transform="translate(67.871094 0.015625)"/>
      <use xlink:href="#DejaVuSerif-61" transform="translate(106.884766 0.015625)"/>
      <use xlink:href="#DejaVuSerif-2e" transform="translate(166.503906 0.015625)"/>
      <use xlink:href="#DejaVuSerif-75" transform="translate(198.291016 0.015625)"/>
      <use xlink:href="#DejaVuSerif-2e" transform="translate(262.695312 0.015625)"/>
      <use xlink:href="#DejaVuSerif-29" transform="translate(294.482422 0.015625)"/>
     </g>
    </g>
   </g>
   <g id="matplotlib.axis_2">
    <g id="ytick_1">
     <g id="line2d_19">
      <path d="M 105.15 453.812549 
L 835.92 453.812549 
" clip-path="url(#p49389457b5)" style="fill: none; stroke-dasharray: 3.7,1.6; stroke-dashoffset: 0; stroke: #b0b0b0; stroke-opacity: 0.5"/>
     </g>
     <g id="line2d_20">
      <defs>
       <path id="mf99f1647ef" d="M 0 0 
L 10 0 
" style="stroke: #000000; stroke-width: 2"/>
      </defs>
      <g>
       <use xlink:href="#mf99f1647ef" x="105.15" y="453.812549" style="stroke: #000000; stroke-width: 2"/>
      </g>
     </g>
     <g id="line2d_21">
      <defs>
       <path id="m06141e7e87" d="M 0 0 
L -10 0 
" style="stroke: #000000; stroke-width: 2"/>
      </defs>
      <g>
       <use xlink:href="#m06141e7e87" x="835.92" y="453.812549" style="stroke: #000000; stroke-width: 2"/>
      </g>
     </g>
     <g id="text_8">
      <!-- 1.3 -->
      <g transform="translate(60.301875 463.690517) scale(0.26 -0.26)">
       <use xlink:href="#DejaVuSerif-31"/>
       <use xlink:href="#DejaVuSerif-2e" x="63.623047"/>
       <use xlink:href="#DejaVuSerif-33" x="95.410156"/>
      </g>
     </g>
    </g>
    <g id="ytick_2">
     <g id="line2d_22">
      <path d="M 105.15 358.63742 
L 835.92 358.63742 
" clip-path="url(#p49389457b5)" style="fill: none; stroke-dasharray: 3.7,1.6; stroke-dashoffset: 0; stroke: #b0b0b0; stroke-opacity: 0.5"/>
     </g>
     <g id="line2d_23">
      <g>
       <use xlink:href="#mf99f1647ef" x="105.15" y="358.63742" style="stroke: #000000; stroke-width: 2"/>
      </g>
     </g>
     <g id="line2d_24">
      <g>
       <use xlink:href="#m06141e7e87" x="835.92" y="358.63742" style="stroke: #000000; stroke-width: 2"/>
      </g>
     </g>
     <g id="text_9">
      <!-- 1.4 -->
      <g transform="translate(60.301875 368.515388) scale(0.26 -0.26)">
       <use xlink:href="#DejaVuSerif-31"/>
       <use xlink:href="#DejaVuSerif-2e" x="63.623047"/>
       <use xlink:href="#DejaVuSerif-34" x="95.410156"/>
      </g>
     </g>
    </g>
    <g id="ytick_3">
     <g id="line2d_25">
      <path d="M 105.15 263.462291 
L 835.92 263.462291 
" clip-path="url(#p49389457b5)" style="fill: none; stroke-dasharray: 3.7,1.6; stroke-dashoffset: 0; stroke: #b0b0b0; stroke-opacity: 0.5"/>
     </g>
     <g id="line2d_26">
      <g>
       <use xlink:href="#mf99f1647ef" x="105.15" y="263.462291" style="stroke: #000000; stroke-width: 2"/>
      </g>
     </g>
     <g id="line2d_27">
      <g>
       <use xlink:href="#m06141e7e87" x="835.92" y="263.462291" style="stroke: #000000; stroke-width: 2"/>
      </g>
     </g>
     <g id="text_10">
      <!-- 1.5 -->
      <g transform="translate(60.301875 273.340259) scale(0.26 -0.26)">
       <use xlink:href="#DejaVuSerif-31"/>
       <use xlink:href="#DejaVuSerif-2e" x="63.623047"/>
       <use xlink:href="#DejaVuSerif-35" x="95.410156"/>
      </g>
     </g>
    </g>
    <g id="ytick_4">
     <g id="line2d_28">
      <path d="M 105.15 168.287162 
L 835.92 168.287162 
" clip-path="url(#p49389457b5)" style="fill: none; stroke-dasharray: 3.7,1.6; stroke-dashoffset: 0; stroke: #b0b0b0; stroke-opacity: 0.5"/>
     </g>
     <g id="line2d_29">
      <g>
       <use xlink:href="#mf99f1647ef" x="105.15" y="168.287162" style="stroke: #000000; stroke-width: 2"/>
      </g>
     </g>
     <g id="line2d_30">
      <g>
       <use xlink:href="#m06141e7e87" x="835.92" y="168.287162" style="stroke: #000000; stroke-width: 2"/>
      </g>
     </g>
     <g id="text_11">
      <!-- 1.6 -->
      <g transform="translate(60.301875 178.16513) scale(0.26 -0.26)">
       <defs>
        <path id="DejaVuSerif-36" d="M 2094 219 
Q 2534 219 2771 542 
Q 3009 866 3009 1472 
Q 3009 2078 2771 2401 
Q 2534 2725 2094 2725 
Q 1647 2725 1412 2412 
Q 1178 2100 1178 1509 
Q 1178 888 1415 553 
Q 1653 219 2094 219 
z
M 1075 2569 
Q 1288 2803 1556 2918 
Q 1825 3034 2163 3034 
Q 2859 3034 3264 2615 
Q 3669 2197 3669 1472 
Q 3669 763 3233 336 
Q 2797 -91 2069 -91 
Q 1278 -91 853 498 
Q 428 1088 428 2181 
Q 428 3406 931 4078 
Q 1434 4750 2350 4750 
Q 2597 4750 2869 4703 
Q 3141 4656 3425 4563 
L 3425 3794 
L 3072 3794 
Q 3034 4109 2831 4275 
Q 2628 4441 2284 4441 
Q 1678 4441 1381 3981 
Q 1084 3522 1075 2569 
z
" transform="scale(0.015625)"/>
       </defs>
       <use xlink:href="#DejaVuSerif-31"/>
       <use xlink:href="#DejaVuSerif-2e" x="63.623047"/>
       <use xlink:href="#DejaVuSerif-36" x="95.410156"/>
      </g>
     </g>
    </g>
    <g id="ytick_5">
     <g id="line2d_31">
      <path d="M 105.15 73.112033 
L 835.92 73.112033 
" clip-path="url(#p49389457b5)" style="fill: none; stroke-dasharray: 3.7,1.6; stroke-dashoffset: 0; stroke: #b0b0b0; stroke-opacity: 0.5"/>
     </g>
     <g id="line2d_32">
      <g>
       <use xlink:href="#mf99f1647ef" x="105.15" y="73.112033" style="stroke: #000000; stroke-width: 2"/>
      </g>
     </g>
     <g id="line2d_33">
      <g>
       <use xlink:href="#m06141e7e87" x="835.92" y="73.112033" style="stroke: #000000; stroke-width: 2"/>
      </g>
     </g>
     <g id="text_12">
      <!-- 1.7 -->
      <g transform="translate(60.301875 82.990001) scale(0.26 -0.26)">
       <defs>
        <path id="DejaVuSerif-37" d="M 3609 4347 
L 1784 0 
L 1319 0 
L 3059 4153 
L 903 4153 
L 903 3578 
L 538 3578 
L 538 4666 
L 3609 4666 
L 3609 4347 
z
" transform="scale(0.015625)"/>
       </defs>
       <use xlink:href="#DejaVuSerif-31"/>
       <use xlink:href="#DejaVuSerif-2e" x="63.623047"/>
       <use xlink:href="#DejaVuSerif-37" x="95.410156"/>
      </g>
     </g>
    </g>
    <g id="text_13">
     <!-- $p_i$ (a.u.) -->
     <g transform="translate(50.894688 307.92625) rotate(-90) scale(0.26 -0.26)">
      <defs>
       <path id="Cmmi10-70" d="M -159 -1241 
Q -219 -1241 -219 -1159 
Q -197 -1019 -134 -1019 
Q 66 -1019 145 -983 
Q 225 -947 269 -800 
L 991 2081 
Q 1038 2200 1038 2388 
Q 1038 2663 850 2663 
Q 650 2663 553 2423 
Q 456 2184 366 1819 
Q 366 1778 313 1778 
L 238 1778 
Q 222 1778 203 1801 
Q 184 1825 184 1844 
Q 253 2122 317 2315 
Q 381 2509 517 2668 
Q 653 2828 856 2828 
Q 1075 2828 1240 2704 
Q 1406 2581 1453 2369 
Q 1628 2572 1840 2700 
Q 2053 2828 2278 2828 
Q 2547 2828 2745 2684 
Q 2944 2541 3044 2308 
Q 3144 2075 3144 1806 
Q 3144 1394 2933 953 
Q 2722 513 2361 220 
Q 2000 -72 1588 -72 
Q 1400 -72 1248 34 
Q 1097 141 1013 313 
L 722 -825 
Q 706 -919 703 -934 
Q 703 -1019 1125 -1019 
Q 1191 -1019 1191 -1100 
Q 1169 -1184 1155 -1212 
Q 1141 -1241 1081 -1241 
L -159 -1241 
z
M 1594 97 
Q 1816 97 2006 280 
Q 2197 463 2316 691 
Q 2403 863 2479 1111 
Q 2556 1359 2612 1640 
Q 2669 1922 2669 2088 
Q 2669 2234 2630 2362 
Q 2591 2491 2502 2577 
Q 2413 2663 2266 2663 
Q 2031 2663 1823 2495 
Q 1616 2328 1447 2081 
L 1447 2059 
L 1094 647 
Q 1138 419 1263 258 
Q 1388 97 1594 97 
z
" transform="scale(0.015625)"/>
       <path id="Cmmi10-69" d="M 500 459 
Q 500 578 550 709 
L 1069 2088 
Q 1153 2322 1153 2472 
Q 1153 2663 1013 2663 
Q 759 2663 595 2402 
Q 431 2141 353 1819 
Q 341 1778 300 1778 
L 225 1778 
Q 172 1778 172 1838 
L 172 1856 
Q 275 2238 487 2533 
Q 700 2828 1025 2828 
Q 1253 2828 1411 2678 
Q 1569 2528 1569 2297 
Q 1569 2178 1516 2047 
L 997 672 
Q 909 459 909 288 
Q 909 97 1056 97 
Q 1306 97 1473 364 
Q 1641 631 1709 941 
Q 1722 978 1759 978 
L 1838 978 
Q 1863 978 1878 961 
Q 1894 944 1894 922 
Q 1894 916 1888 903 
Q 1800 541 1583 234 
Q 1366 -72 1044 -72 
Q 819 -72 659 83 
Q 500 238 500 459 
z
M 1222 3878 
Q 1222 4013 1334 4122 
Q 1447 4231 1581 4231 
Q 1691 4231 1761 4164 
Q 1831 4097 1831 3994 
Q 1831 3850 1717 3742 
Q 1603 3634 1466 3634 
Q 1363 3634 1292 3704 
Q 1222 3775 1222 3878 
z
" transform="scale(0.015625)"/>
      </defs>
      <use xlink:href="#Cmmi10-70" transform="translate(0 0.015625)"/>
      <use xlink:href="#Cmmi10-69" transform="translate(50.292969 -16.990625) scale(0.7)"/>
      <use xlink:href="#DejaVuSerif-20" transform="translate(80.766992 0.015625)"/>
      <use xlink:href="#DejaVuSerif-28" transform="translate(112.554102 0.015625)"/>
      <use xlink:href="#DejaVuSerif-61" transform="translate(151.567773 0.015625)"/>
      <use xlink:href="#DejaVuSerif-2e" transform="translate(211.186914 0.015625)"/>
      <use xlink:href="#DejaVuSerif-75" transform="translate(242.974023 0.015625)"/>
      <use xlink:href="#DejaVuSerif-2e" transform="translate(307.37832 0.015625)"/>
      <use xlink:href="#DejaVuSerif-29" transform="translate(339.16543 0.015625)"/>
     </g>
    </g>
   </g>
   <g id="line2d_34">
    <path d="M 138.366818 264.939332 
L 139.03182 263.508362 
L 139.696821 263.757936 
L 140.361822 265.723611 
L 141.026824 269.244891 
L 142.356826 279.540161 
L 143.686829 290.957799 
L 144.35183 295.858053 
L 145.016832 299.673309 
L 145.681833 302.121511 
L 146.346835 303.04733 
L 147.011836 302.430628 
L 147.676837 300.393379 
L 148.341839 297.191343 
L 151.001844 281.316572 
L 151.666845 278.996114 
L 152.331847 278.107816 
L 152.996848 278.803643 
L 153.66185 281.062128 
L 154.326851 284.697023 
L 155.656854 294.730204 
L 156.986856 305.564364 
L 157.651858 310.209094 
L 158.316859 313.873017 
L 158.98186 316.316704 
L 159.646862 317.406937 
L 160.311863 317.123858 
L 160.976865 315.561098 
L 161.641866 312.92422 
L 162.971869 305.705238 
L 164.301871 298.563202 
L 164.966873 296.032034 
L 165.631874 294.622492 
L 166.296876 294.521025 
L 166.961877 295.784778 
L 167.626878 298.339878 
L 168.29188 301.995105 
L 169.621882 311.433397 
L 170.951885 321.401079 
L 171.616886 325.749432 
L 172.281888 329.314307 
L 172.946889 331.907822 
L 173.611891 333.418003 
L 174.276892 333.813572 
L 174.941893 333.144455 
L 175.606895 331.535344 
L 176.271896 329.180209 
L 178.931901 317.715358 
L 179.596903 315.782554 
L 180.261904 314.70361 
L 180.926906 314.610942 
L 181.591907 315.555072 
L 182.256908 317.504475 
L 182.92191 320.353615 
L 184.251912 328.045001 
L 186.911918 345.18275 
L 187.576919 348.617791 
L 188.241921 351.411054 
L 188.906922 353.483019 
L 189.571923 354.798837 
L 190.236925 355.367841 
L 190.901926 355.239976 
L 191.566927 354.502424 
L 192.231929 353.273689 
L 193.561931 349.929351 
L 194.891934 346.48387 
L 195.556936 345.117444 
L 196.221937 344.167099 
L 196.886938 343.733196 
L 197.55194 343.883328 
L 198.216941 344.649997 
L 198.881942 346.030993 
L 199.546944 347.992826 
L 200.211945 350.474626 
L 201.541948 356.656095 
L 206.196957 380.800662 
L 207.52696 385.885482 
L 208.856963 389.666556 
L 209.521964 391.085313 
L 210.186966 392.219758 
L 210.851967 393.102534 
L 211.516968 393.771913 
L 212.846971 394.640456 
L 216.836979 396.467998 
L 218.166982 397.66432 
L 219.496985 399.359854 
L 220.826987 401.538616 
L 222.821992 405.495262 
L 226.146998 412.534025 
L 227.477001 414.935236 
L 228.807004 416.806819 
L 229.472005 417.487316 
L 230.137007 417.969476 
L 230.802008 418.233735 
L 231.467009 418.261917 
L 232.132011 418.037457 
L 232.797012 417.54556 
L 233.462013 416.773524 
L 234.127015 415.711065 
L 234.792016 414.350684 
L 235.457017 412.6883 
L 236.78702 408.460951 
L 238.117023 403.085299 
L 239.447026 396.71351 
L 242.107031 382.216123 
L 244.102035 371.819119 
L 245.432038 366.432007 
L 246.097039 364.505821 
L 246.762041 363.223814 
L 247.427042 362.674728 
L 248.092043 362.932693 
L 248.757045 364.051055 
L 249.422046 366.057403 
L 250.087048 368.949071 
L 250.752049 372.689979 
L 252.082052 382.403941 
L 254.077056 400.547019 
L 256.07206 418.56579 
L 257.402063 427.750266 
L 258.067064 430.894833 
L 258.732065 432.837268 
L 259.397067 433.423058 
L 260.062068 432.521027 
L 260.727069 430.026501 
L 261.392071 425.866266 
L 262.057072 420.004982 
L 262.722073 412.451148 
L 264.052076 392.5546 
L 265.382079 367.413501 
L 268.042084 312.825402 
L 268.707086 301.533902 
L 269.372087 292.552637 
L 270.037088 286.546645 
L 270.70209 284.055164 
L 271.367091 285.406216 
L 272.032093 290.64573 
L 272.697094 299.503218 
L 273.362095 311.402533 
L 274.692098 340.921636 
L 276.022101 371.546932 
L 277.352103 396.199266 
L 278.017105 404.644749 
L 278.682106 409.927849 
L 279.347108 411.789334 
L 280.012109 410.092697 
L 280.67711 404.816938 
L 281.342112 396.055508 
L 282.007113 384.023873 
L 283.337116 351.72318 
L 285.997121 275.533715 
L 286.662123 260.906159 
L 287.327124 250.910107 
L 287.992125 246.764991 
L 288.657127 249.185948 
L 289.322128 258.162295 
L 289.987129 272.886331 
L 291.317132 313.19746 
L 292.647135 355.166003 
L 293.312136 372.550058 
L 293.977138 385.986373 
L 294.642139 394.776965 
L 295.30714 398.532925 
L 295.972142 397.116787 
L 296.637143 390.600882 
L 297.302144 379.249425 
L 297.967146 363.523316 
L 299.297149 321.949898 
L 301.292153 253.481974 
L 301.957154 236.421536 
L 302.622155 225.802432 
L 303.287157 223.31588 
L 303.952158 229.66505 
L 304.617159 244.292859 
L 305.282161 265.410085 
L 307.277165 340.307435 
L 307.942166 360.68682 
L 308.607168 375.911832 
L 309.272169 385.165943 
L 309.93717 388.076578 
L 310.602172 384.624959 
L 311.267173 375.067423 
L 311.932174 359.910732 
L 312.597176 339.928685 
L 313.927179 290.235773 
L 315.257181 239.699922 
L 315.922183 220.269018 
L 316.587184 208.353112 
L 317.252185 206.069362 
L 317.917187 214.220216 
L 318.582188 231.882703 
L 319.912191 284.692792 
L 321.242194 337.881736 
L 321.907195 357.795765 
L 322.572196 371.25161 
L 323.237198 377.613483 
L 323.902199 376.74652 
L 324.5672 368.880479 
L 325.232202 354.545313 
L 325.897203 334.569385 
L 327.227206 282.816064 
L 328.557209 228.605959 
L 329.22221 207.455226 
L 329.887211 194.404352 
L 330.552213 191.887653 
L 331.217214 200.79995 
L 331.882215 220.000886 
L 333.212218 276.370332 
L 334.542221 331.083155 
L 335.207222 350.622522 
L 335.872224 363.009481 
L 336.537225 367.744747 
L 337.202226 364.825893 
L 337.867228 354.633988 
L 338.532229 337.865831 
L 339.19723 315.544504 
L 341.857236 206.830968 
L 342.522237 188.294058 
L 343.187239 179.417235 
L 343.85224 182.107238 
L 344.517241 196.326729 
L 345.182243 219.858963 
L 347.177247 307.387412 
L 347.842248 330.279994 
L 348.50725 346.377992 
L 349.172251 354.867657 
L 349.837252 355.554663 
L 350.502254 348.681745 
L 351.167255 334.829369 
L 351.832256 314.891962 
L 353.162259 262.204196 
L 354.492262 206.342669 
L 355.157263 184.358798 
L 355.822265 170.603391 
L 356.487266 167.523247 
L 357.152267 176.012016 
L 357.817269 194.908519 
L 359.147271 250.718795 
L 360.477274 305.045062 
L 361.142275 324.556758 
L 361.807277 337.082409 
L 362.472278 342.144251 
L 363.13728 339.764563 
L 363.802281 330.326434 
L 364.467282 314.512314 
L 365.132284 293.304475 
L 366.462286 240.451832 
L 367.792289 187.731634 
L 368.45729 168.225884 
L 369.122292 157.030316 
L 369.787293 156.037851 
L 370.452295 165.628502 
L 371.117296 184.368614 
L 372.447299 237.077626 
L 373.777301 287.71419 
L 374.442303 306.118687 
L 375.107304 318.253341 
L 375.772305 323.671517 
L 376.437307 322.361621 
L 377.102308 314.630507 
L 377.76731 301.043358 
L 378.432311 282.414764 
L 379.762314 234.707122 
L 381.092316 184.228599 
L 381.757318 163.350793 
L 382.422319 148.496168 
L 383.087321 141.575908 
L 383.752322 143.573342 
L 384.417323 154.187784 
L 385.082325 171.865347 
L 387.74233 262.233986 
L 388.407331 278.654393 
L 389.072333 290.036255 
L 389.737334 295.975299 
L 390.402336 296.402517 
L 391.067337 291.499387 
L 391.732338 281.648132 
L 392.39734 267.410433 
L 393.727342 228.940763 
L 395.722346 163.395069 
L 396.387348 145.27403 
L 397.052349 131.586303 
L 397.717351 123.53753 
L 398.382352 121.793054 
L 399.047353 126.31406 
L 399.712355 136.345995 
L 400.377356 150.561801 
L 403.037361 217.147083 
L 403.702363 229.646344 
L 404.367364 238.896784 
L 405.032366 244.59213 
L 405.697367 246.628588 
L 406.362368 245.060241 
L 407.02737 240.066333 
L 407.692371 231.929729 
L 408.357372 221.023713 
L 409.687375 192.80553 
L 413.012382 113.633836 
L 413.677383 101.615182 
L 414.342385 92.131898 
L 415.007386 85.432887 
L 415.672387 81.558081 
L 416.337389 80.336787 
L 417.00239 81.413768 
L 417.667391 84.296596 
L 418.997394 93.179029 
L 420.327397 102.491221 
L 420.992398 106.153658 
L 421.6574 108.722899 
L 422.322401 109.999637 
L 422.987402 109.877921 
L 423.652404 108.336823 
L 424.317405 105.431344 
L 424.982406 101.283979 
L 426.312409 90.039026 
L 429.637416 57.963294 
L 430.302417 53.501022 
L 430.967419 50.439664 
L 431.63242 49.041477 
L 432.297422 49.515581 
L 432.962423 52.006749 
L 433.627424 56.586688 
L 434.292426 63.248521 
L 434.957427 71.905365 
L 436.28743 94.472732 
L 437.617432 122.168119 
L 440.277438 180.821518 
L 441.607441 205.060804 
L 442.272442 214.495491 
L 442.937443 221.664695 
L 443.602445 226.253935 
L 444.267446 227.992493 
L 444.932447 226.653868 
L 445.597449 222.068003 
L 446.26245 214.141212 
L 446.927452 202.88138 
L 447.592453 188.438479 
L 448.922456 151.656509 
L 450.91746 90.99347 
L 451.582461 75.395953 
L 452.247462 65.11732 
L 452.912464 61.60862 
L 453.577465 65.666746 
L 454.242467 77.275399 
L 454.907468 95.640583 
L 456.237471 146.848068 
L 458.897476 261.328736 
L 459.562477 284.66148 
L 460.227479 304.038638 
L 460.89248 318.835201 
L 461.557482 328.540502 
L 462.222483 332.731216 
L 462.887484 331.056992 
L 463.552486 323.243534 
L 464.217487 309.122501 
L 464.882488 288.701028 
L 465.54749 262.287078 
L 466.877492 195.395009 
L 468.207495 124.696176 
L 468.872497 96.843563 
L 469.537498 79.275003 
L 470.202499 74.642612 
L 470.867501 83.540789 
L 471.532502 104.462762 
L 472.197503 134.474141 
L 475.52251 311.424308 
L 476.187512 336.885651 
L 476.852513 356.092534 
L 477.517514 368.342354 
L 478.182516 373.057912 
L 478.847517 369.751437 
L 479.512518 358.030988 
L 480.17752 337.669512 
L 480.842521 308.76932 
L 482.172524 229.282329 
L 483.502527 140.507741 
L 484.167528 105.71104 
L 484.832529 85.180232 
L 485.497531 82.307341 
L 486.162532 96.901059 
L 486.827533 125.663388 
L 488.157536 206.345619 
L 489.487539 289.79554 
L 490.15254 325.458372 
L 490.817542 354.829027 
L 491.482543 376.800992 
L 492.147544 390.5254 
L 492.812546 395.300263 
L 493.477547 390.517876 
L 494.142548 375.678705 
L 494.80755 350.510565 
L 495.472551 315.24286 
L 496.802554 220.998208 
L 498.132557 125.873506 
L 498.797558 96.108928 
L 499.462559 86.395301 
L 500.127561 97.650631 
L 500.792562 126.348993 
L 502.122565 212.35043 
L 503.452568 302.081173 
L 504.117569 340.003787 
L 504.78257 370.791265 
L 505.447572 393.245887 
L 506.112573 406.445858 
L 506.777574 409.615553 
L 507.442576 402.068583 
L 508.107577 383.250612 
L 508.772578 352.931142 
L 509.43758 311.627682 
L 512.097585 113.50096 
L 512.762587 92.850616 
L 513.427588 95.59501 
L 514.092589 119.43169 
L 514.757591 158.217261 
L 517.417596 341.015054 
L 518.082598 374.757268 
L 518.747599 399.855671 
L 519.4126 415.287695 
L 520.077602 420.20225 
L 520.742603 413.839041 
L 521.407604 395.560105 
L 522.072606 365.045056 
L 522.737607 322.748886 
L 525.397613 117.571222 
L 526.062614 97.35627 
L 526.727615 101.86867 
L 527.392617 128.094977 
L 528.057618 169.149887 
L 530.052622 313.950732 
L 530.717624 354.689177 
L 531.382625 387.608047 
L 532.047626 411.392545 
L 532.712628 425.040112 
L 533.377629 427.697232 
L 534.04263 418.59826 
L 534.707632 397.129027 
L 535.372633 363.088993 
L 536.037634 317.260967 
L 538.032639 151.410175 
L 538.69764 114.755452 
L 539.362641 101.712781 
L 540.027643 113.575558 
L 540.692644 145.564847 
L 542.022647 239.820578 
L 543.352649 334.345205 
L 544.017651 372.791869 
L 544.682652 402.865936 
L 545.347654 423.39136 
L 546.012655 433.439353 
L 546.677656 432.199533 
L 547.342658 418.955322 
L 548.007659 393.206267 
L 548.67266 355.02222 
L 550.002663 248.980837 
L 551.332666 143.362638 
L 551.997667 114.106164 
L 552.662669 109.471308 
L 553.32767 128.467686 
L 553.992671 165.028859 
L 556.652677 351.963991 
L 557.317678 387.701316 
L 557.982679 414.835982 
L 558.647681 432.32497 
L 559.312682 439.326004 
L 559.977684 435.098423 
L 560.642685 419.013675 
L 561.307686 390.717676 
L 561.972688 350.533742 
L 563.30269 243.819373 
L 563.967692 188.632074 
L 564.632693 144.206921 
L 565.297695 119.446084 
L 565.962696 118.656415 
L 566.627697 139.951088 
L 567.292699 177.162552 
L 569.952704 359.232396 
L 570.617705 393.663027 
L 571.282707 419.802998 
L 571.947708 436.696298 
L 572.61271 443.579195 
L 573.277711 439.793398 
L 573.942712 424.793354 
L 574.607714 398.284701 
L 575.272715 360.563758 
L 576.602718 259.502086 
L 577.93272 160.794713 
L 578.597722 132.609803 
L 579.262723 126.320013 
L 579.927725 141.482004 
L 580.592726 173.267136 
L 581.922729 261.126345 
L 583.252731 348.333195 
L 583.917733 384.259755 
L 584.582734 412.955847 
L 585.247735 433.446146 
L 585.912737 445.001045 
L 586.577738 447.027066 
L 587.24274 439.029702 
L 587.907741 420.66143 
L 588.572742 391.892565 
L 589.237744 353.358309 
L 591.897749 167.383449 
L 592.56275 143.461059 
L 593.227752 139.190129 
L 593.892753 153.848333 
L 594.557755 183.255576 
L 595.887757 264.523375 
L 597.21776 346.816711 
L 597.882761 381.602448 
L 598.547763 410.178299 
L 599.212764 431.647445 
L 599.877765 445.367969 
L 600.542767 450.851656 
L 601.207768 447.713765 
L 601.87277 435.67914 
L 602.537771 414.659093 
L 603.202772 384.926829 
L 604.532775 304.134997 
L 605.862778 215.634033 
L 606.527779 181.22382 
L 607.192781 160.448111 
L 607.857782 156.044072 
L 608.522783 167.560735 
L 609.187785 191.964793 
L 610.517787 262.554277 
L 611.84779 337.992686 
L 613.177793 400.209363 
L 613.842794 423.397303 
L 614.507796 440.437772 
L 615.172797 450.925988 
L 615.837798 454.57683 
L 616.5028 451.197772 
L 617.167801 440.695499 
L 617.832802 423.12273 
L 618.497804 398.775759 
L 619.827806 333.150648 
L 621.822811 224.357169 
L 622.487812 198.809184 
L 623.152813 184.142308 
L 623.817815 181.743602 
L 624.482816 191.126684 
L 625.147817 210.305402 
L 626.47782 266.921688 
L 628.472824 360.570022 
L 629.802827 410.694053 
L 630.467828 429.692313 
L 631.13283 444.146224 
L 631.797831 453.852113 
L 632.462832 458.701485 
L 633.127834 458.660601 
L 633.792835 453.764003 
L 634.457836 444.121296 
L 635.122838 429.937557 
L 635.787839 411.550354 
L 637.117842 364.503156 
L 639.777847 261.281286 
L 640.442849 243.018679 
L 641.10785 230.910032 
L 641.772851 225.744961 
L 642.437853 227.604539 
L 643.102854 235.903775 
L 643.767856 249.60567 
L 645.097858 287.969255 
L 648.422865 394.915876 
L 649.752868 427.418388 
L 650.417869 440.201001 
L 651.082871 450.557537 
L 651.747872 458.482244 
L 652.412873 464.017558 
L 653.077875 467.243414 
L 653.742876 468.269431 
L 654.407877 467.22971 
L 655.072879 464.278149 
L 655.73788 459.58591 
L 656.402882 453.33992 
L 657.732884 437.006436 
L 659.062887 417.06019 
L 662.387894 364.709356 
L 663.717897 348.093968 
L 664.382898 341.530981 
L 665.047899 336.284273 
L 665.712901 332.404261 
L 666.377902 329.889753 
L 667.042903 328.692695 
L 667.707905 328.725658 
L 668.372906 329.870812 
L 669.037907 331.989853 
L 669.702909 334.933557 
L 671.032912 342.688178 
L 673.027916 356.909101 
L 675.687921 376.302476 
L 677.682925 389.084765 
L 679.012928 396.459596 
L 680.342931 402.96958 
L 682.337935 411.451039 
L 684.99794 421.341694 
L 687.657946 430.466617 
L 689.65295 436.530022 
L 690.982952 439.693676 
L 691.647954 440.850247 
L 692.312955 441.636428 
L 692.977957 441.981539 
L 693.642958 441.812629 
L 694.307959 441.056345 
L 694.972961 439.641137 
L 695.637962 437.500087 
L 696.302963 434.574002 
L 696.967965 430.814361 
L 697.632966 426.186062 
L 698.962969 414.278827 
L 700.292972 399.010557 
L 702.287976 371.405884 
L 704.28298 342.811192 
L 705.612983 327.162142 
L 706.277984 321.426798 
L 706.942985 317.532952 
L 707.607987 315.747125 
L 708.272988 316.24077 
L 708.937989 319.063384 
L 709.602991 324.124276 
L 710.267992 331.190405 
L 711.597995 349.784593 
L 714.258 390.293413 
L 714.923002 398.06578 
L 715.588003 404.034722 
L 716.253004 407.893269 
L 716.918006 409.41134 
L 717.583007 408.436464 
L 718.248008 404.895142 
L 718.91301 398.794831 
L 719.578011 390.23082 
L 720.243013 379.394739 
L 721.573015 352.226935 
L 724.233021 292.497826 
L 724.898022 281.365662 
L 725.563023 273.678766 
L 726.228025 270.222559 
L 726.893026 271.468706 
L 727.558028 277.456141 
L 728.223029 287.742723 
L 729.553032 317.361243 
L 731.548036 365.207344 
L 732.213037 377.355498 
L 732.878038 386.223424 
L 733.54304 391.333247 
L 734.208041 392.416027 
L 734.873043 389.38787 
L 735.538044 382.335079 
L 736.203045 371.510346 
L 736.868047 357.342143 
L 738.198049 321.693438 
L 740.193054 266.26558 
L 740.858055 253.104652 
L 741.523056 245.188577 
L 742.188058 243.646597 
L 742.853059 248.896895 
L 743.51806 260.493938 
L 744.183062 277.14492 
L 746.843067 354.913034 
L 747.508069 368.175563 
L 748.17307 376.692089 
L 748.838071 380.020829 
L 749.503073 378.038023 
L 750.168074 370.872575 
L 750.833075 358.897838 
L 751.498077 342.728624 
L 752.828079 301.64586 
L 754.158082 258.542825 
L 754.823084 241.020676 
L 755.488085 229.025774 
L 756.153086 224.321254 
L 756.818088 227.854289 
L 757.483089 239.392721 
L 758.14809 257.453 
L 760.808096 344.347174 
L 761.473097 358.40135 
L 762.138099 366.724357 
L 762.8031 368.920002 
L 763.468101 364.978765 
L 764.133103 355.208112 
L 764.798104 340.204791 
L 766.128107 298.44214 
L 767.458109 251.281411 
L 768.123111 231.005462 
L 768.788112 216.270801 
L 769.453114 209.293894 
L 770.118115 211.436459 
L 770.783116 222.67494 
L 771.448118 241.429543 
L 774.108123 333.652892 
L 774.773124 348.106304 
L 775.438126 356.231816 
L 776.103127 357.679182 
L 776.768129 352.530218 
L 777.43313 341.214483 
L 778.098131 324.480445 
L 779.428134 279.498678 
L 780.758137 231.20879 
L 781.423138 211.875737 
L 782.08814 199.3169 
L 782.753141 195.622136 
L 783.418142 201.684441 
L 784.083144 216.780848 
L 785.413146 263.865035 
L 786.743149 311.811614 
L 787.40815 329.51352 
L 788.073152 341.062653 
L 788.738153 345.854749 
L 789.403155 343.799214 
L 790.068156 335.201132 
L 790.733157 320.699879 
L 791.398159 301.265241 
L 794.058164 207.256056 
L 794.723165 191.339121 
L 795.388167 183.481981 
L 796.053168 185.117915 
L 796.71817 196.239919 
L 797.383171 215.143783 
L 800.043176 307.998177 
L 800.708178 322.369684 
L 801.373179 330.366848 
L 802.03818 331.693261 
L 802.703182 326.480136 
L 802.703182 326.480136 
" clip-path="url(#p49389457b5)" style="fill: none; stroke: #1f77b4; stroke-width: 3; stroke-linecap: square"/>
   </g>
   <g id="line2d_35">
    <path d="M 138.366818 264.939352 
L 139.03182 263.508404 
L 139.696821 263.757997 
L 140.361822 265.723688 
L 141.026824 269.244978 
L 142.356826 279.540249 
L 143.686829 290.957867 
L 144.35183 295.858106 
L 145.016832 299.673343 
L 145.681833 302.121525 
L 146.346835 303.047323 
L 147.011836 302.430601 
L 147.676837 300.393334 
L 148.341839 297.191283 
L 151.001844 281.316501 
L 151.666845 278.996053 
L 152.331847 278.107771 
L 152.996848 278.803616 
L 153.66185 281.062122 
L 154.326851 284.697038 
L 155.656854 294.730256 
L 156.986856 305.564443 
L 157.651858 310.209179 
L 158.316859 313.873105 
L 158.98186 316.316792 
L 159.646862 317.407018 
L 160.311863 317.12393 
L 160.976865 315.561158 
L 161.641866 312.924264 
L 162.971869 305.705245 
L 164.301871 298.563173 
L 164.966873 296.031989 
L 165.631874 294.622435 
L 166.296876 294.520959 
L 166.961877 295.784708 
L 167.626878 298.339809 
L 168.29188 301.99504 
L 169.621882 311.433351 
L 170.951885 321.401062 
L 171.616886 325.749431 
L 172.281888 329.314322 
L 172.946889 331.907854 
L 173.611891 333.418049 
L 174.276892 333.813632 
L 174.941893 333.144526 
L 175.606895 331.535424 
L 176.271896 329.180295 
L 178.931901 317.715434 
L 179.596903 315.782619 
L 180.261904 314.703663 
L 180.926906 314.61098 
L 181.591907 315.555094 
L 182.256908 317.504481 
L 182.92191 320.353606 
L 184.251912 328.044966 
L 186.911918 345.182686 
L 187.576919 348.617726 
L 188.241921 351.41099 
L 188.906922 353.482958 
L 189.571923 354.798783 
L 190.236925 355.367794 
L 190.901926 355.239939 
L 191.566927 354.502397 
L 192.231929 353.273674 
L 193.561931 349.929361 
L 194.891934 346.483905 
L 195.556936 345.11749 
L 196.221937 344.167156 
L 196.886938 343.733261 
L 197.55194 343.883401 
L 198.216941 344.650076 
L 198.881942 346.031076 
L 199.546944 347.992911 
L 200.211945 350.474713 
L 201.541948 356.656179 
L 206.196957 380.800709 
L 207.52696 385.885517 
L 208.856963 389.666579 
L 209.521964 391.085331 
L 210.186966 392.219772 
L 210.851967 393.102543 
L 211.516968 393.771919 
L 212.846971 394.640457 
L 216.836979 396.467992 
L 218.166982 397.664315 
L 219.496985 399.35985 
L 220.826987 401.538614 
L 222.821992 405.495262 
L 226.146998 412.534028 
L 227.477001 414.935239 
L 228.807004 416.80682 
L 229.472005 417.487316 
L 230.137007 417.969474 
L 230.802008 418.233731 
L 231.467009 418.26191 
L 232.132011 418.037446 
L 232.797012 417.545545 
L 233.462013 416.773504 
L 234.127015 415.711041 
L 234.792016 414.350654 
L 235.457017 412.688264 
L 236.78702 408.460901 
L 238.117023 403.085232 
L 239.447026 396.713422 
L 242.107031 382.215988 
L 244.102035 371.818944 
L 245.432038 366.431803 
L 246.097039 364.505603 
L 246.762041 363.223584 
L 247.427042 362.674485 
L 248.092043 362.932438 
L 248.757045 364.05079 
L 249.422046 366.05713 
L 250.087048 368.94879 
L 250.752049 372.689693 
L 252.082052 382.403651 
L 254.077056 400.546741 
L 256.07206 418.565548 
L 257.402063 427.750062 
L 258.067064 430.894652 
L 258.732065 432.837112 
L 259.397067 433.42293 
L 260.062068 432.52093 
L 260.727069 430.026438 
L 261.392071 425.866239 
L 262.057072 420.004993 
L 262.722073 412.451201 
L 264.052076 392.55474 
L 265.382079 367.413736 
L 268.042084 312.825806 
L 268.707086 301.534333 
L 269.372087 292.553085 
L 270.037088 286.547096 
L 270.70209 284.055603 
L 271.367091 285.406626 
L 272.032093 290.646094 
L 272.697094 299.503522 
L 273.362095 311.402766 
L 274.692098 340.921707 
L 276.022101 371.546839 
L 277.352103 396.199026 
L 278.017105 404.644446 
L 278.682106 409.927489 
L 279.347108 411.788924 
L 280.012109 410.092243 
L 280.67711 404.816449 
L 281.342112 396.05499 
L 282.007113 384.023337 
L 283.337116 351.722638 
L 285.997121 275.533366 
L 286.662123 260.905914 
L 287.327124 250.909986 
L 287.992125 246.76501 
L 288.657127 249.186112 
L 289.322128 258.162598 
L 289.987129 272.886754 
L 291.317132 313.198039 
L 292.647135 355.166618 
L 293.312136 372.550654 
L 293.977138 385.986933 
L 294.642139 394.777476 
L 295.30714 398.533377 
L 295.972142 397.117171 
L 296.637143 390.60119 
L 297.302144 379.249652 
L 297.967146 363.523455 
L 299.297149 321.949842 
L 301.292153 253.481616 
L 301.957154 236.421099 
L 302.622155 225.801942 
L 303.287157 223.315375 
L 303.952158 229.664574 
L 304.617159 244.292454 
L 305.282161 265.409786 
L 307.277165 340.307519 
L 307.942166 360.68702 
L 308.607168 375.912133 
L 309.272169 385.16633 
L 309.93717 388.077037 
L 310.602172 384.625476 
L 311.267173 375.067982 
L 311.932174 359.911319 
L 312.597176 339.92928 
L 313.927179 290.236316 
L 315.257181 239.700282 
L 315.922183 220.269231 
L 316.587184 208.353145 
L 317.252185 206.0692 
L 317.917187 214.219867 
L 318.582188 231.882201 
L 319.912191 284.692145 
L 321.242194 337.881143 
L 321.907195 357.795248 
L 322.572196 371.251186 
L 323.237198 377.613164 
L 323.902199 376.746311 
L 324.5672 368.880385 
L 325.232202 354.545336 
L 325.897203 334.569526 
L 327.227206 282.816431 
L 328.557209 228.606494 
L 329.22221 207.455793 
L 329.887211 194.404897 
L 330.552213 191.888115 
L 331.217214 200.800272 
L 331.882215 220.00103 
L 333.212218 276.370112 
L 334.542221 331.082679 
L 335.207222 350.62197 
L 335.872224 363.008883 
L 336.537225 367.744129 
L 337.202226 364.825278 
L 337.867228 354.633397 
L 338.532229 337.865285 
L 339.19723 315.544025 
L 341.857236 206.831021 
L 342.522237 188.294293 
L 343.187239 179.417641 
L 343.85224 182.107777 
L 344.517241 196.327342 
L 345.182243 219.859578 
L 347.177247 307.387724 
L 347.842248 330.280165 
L 348.50725 346.378022 
L 349.172251 354.867556 
L 349.837252 355.554441 
L 350.502254 348.681414 
L 351.167255 334.828943 
L 351.832256 314.891458 
L 353.162259 262.203602 
L 354.492262 206.342129 
L 355.157263 184.358363 
L 355.822265 170.603116 
L 356.487266 167.523173 
L 357.152267 176.012161 
L 357.817269 194.908869 
L 359.147271 250.71941 
L 360.477274 305.045723 
L 361.142275 324.557381 
L 361.807277 337.082967 
L 362.472278 342.144727 
L 363.13728 339.764943 
L 363.802281 330.326708 
L 364.467282 314.512472 
L 365.132284 293.304511 
L 366.462286 240.451611 
L 367.792289 187.731187 
L 368.45729 168.225365 
L 369.122292 157.029773 
L 369.787293 156.037343 
L 370.452295 165.628087 
L 371.117296 184.368339 
L 372.447299 237.077679 
L 373.777301 287.714519 
L 374.442303 306.119116 
L 375.107304 318.253844 
L 375.772305 323.672071 
L 376.437307 322.362205 
L 377.102308 314.631101 
L 377.76731 301.043941 
L 378.432311 282.415315 
L 379.762314 234.707539 
L 381.092316 184.228778 
L 381.757318 163.350819 
L 382.422319 148.49603 
L 383.087321 141.575611 
L 383.752322 143.572911 
L 384.417323 154.187262 
L 385.082325 171.864784 
L 387.74233 262.233657 
L 388.407331 278.654169 
L 389.072333 290.036139 
L 389.737334 295.975287 
L 390.402336 296.402606 
L 391.067337 291.499571 
L 391.732338 281.648403 
L 392.39734 267.410784 
L 393.727342 228.941238 
L 395.722346 163.395587 
L 396.387348 145.27451 
L 397.052349 131.586713 
L 397.717351 123.537843 
L 398.382352 121.793248 
L 399.047353 126.314125 
L 399.712355 136.34593 
L 400.377356 150.56162 
L 403.037361 217.14664 
L 403.702363 229.645885 
L 404.367364 238.896323 
L 405.032366 244.591678 
L 405.697367 246.628155 
L 406.362368 245.059835 
L 407.02737 240.06596 
L 407.692371 231.929396 
L 408.357372 221.023424 
L 409.687375 192.805347 
L 413.012382 113.633971 
L 413.677383 101.615378 
L 414.342385 92.132147 
L 415.007386 85.433182 
L 415.672387 81.558413 
L 416.337389 80.337145 
L 417.00239 81.414142 
L 417.667391 84.296979 
L 418.997394 93.179411 
L 420.327397 102.491589 
L 420.992398 106.154019 
L 421.6574 108.723254 
L 422.322401 109.999988 
L 422.987402 109.878271 
L 423.652404 108.337173 
L 424.317405 105.431698 
L 424.982406 101.284338 
L 426.312409 90.0394 
L 429.637416 57.963693 
L 430.302417 53.501414 
L 430.967419 50.440045 
L 431.63242 49.041839 
L 432.297422 49.515915 
L 432.962423 52.007049 
L 433.627424 56.586944 
L 434.292426 63.248726 
L 434.957427 71.905512 
L 436.28743 94.472745 
L 437.617432 122.167985 
L 440.277438 180.821082 
L 441.607441 205.060221 
L 442.272442 214.494836 
L 442.937443 221.663965 
L 443.602445 226.25313 
L 444.267446 227.991609 
L 444.932447 226.652902 
L 445.597449 222.06695 
L 446.26245 214.140071 
L 446.927452 202.880149 
L 447.592453 188.437162 
L 448.922456 151.655064 
L 450.91746 90.99214 
L 451.582461 75.394802 
L 452.247462 65.116428 
L 452.912464 61.608056 
L 453.577465 65.666555 
L 454.242467 77.275598 
L 454.907468 95.641154 
L 456.237471 146.849257 
L 458.897476 261.330519 
L 459.562477 284.663306 
L 460.227479 304.040479 
L 460.89248 318.837033 
L 461.557482 328.542305 
L 462.222483 332.73297 
L 462.887484 331.058677 
L 463.552486 323.245126 
L 464.217487 309.123969 
L 464.882488 288.702333 
L 465.54749 262.288169 
L 466.877492 195.395473 
L 468.207495 124.695755 
L 468.872497 96.842674 
L 469.537498 79.27371 
L 470.202499 74.641038 
L 470.867501 83.539092 
L 471.532502 104.461098 
L 472.197503 134.472633 
L 475.52251 311.424248 
L 476.187512 336.885887 
L 476.852513 356.09306 
L 477.517514 368.343162 
L 478.182516 373.059001 
L 478.847517 369.752804 
L 479.512518 358.032629 
L 480.17752 337.671418 
L 480.842521 308.771463 
L 482.172524 229.284725 
L 483.502527 140.509719 
L 484.167528 105.712453 
L 484.832529 85.180894 
L 485.497531 82.307191 
L 486.162532 96.900171 
L 486.827533 125.661928 
L 488.157536 206.343571 
L 489.487539 289.793442 
L 490.15254 325.456363 
L 490.817542 354.827153 
L 491.482543 376.799286 
L 492.147544 390.52389 
L 492.812546 395.298977 
L 493.477547 390.516846 
L 494.142548 375.677971 
L 494.80755 350.510176 
L 495.472551 315.242875 
L 496.802554 220.999172 
L 498.132557 125.875256 
L 498.797558 96.110779 
L 499.462559 86.396988 
L 500.127561 97.651938 
L 500.792562 126.349808 
L 502.122565 212.350268 
L 503.452568 302.080267 
L 504.117569 340.002594 
L 504.78257 370.789825 
L 505.447572 393.244231 
L 506.112573 406.444006 
L 506.777574 409.613524 
L 507.442576 402.066398 
L 508.107577 383.248303 
L 508.772578 352.928765 
L 509.43758 311.625337 
L 512.097585 113.500782 
L 512.762587 92.851346 
L 513.427588 95.596483 
L 514.092589 119.433625 
L 514.757591 158.219374 
L 517.417596 341.016389 
L 518.082598 374.758278 
L 518.747599 399.856339 
L 519.4126 415.288007 
L 520.077602 420.202186 
L 520.742603 413.838576 
L 521.407604 395.559211 
L 522.072606 365.043707 
L 522.737607 322.747079 
L 525.397613 117.569202 
L 526.062614 97.354981 
L 526.727615 101.868265 
L 527.392617 128.095408 
L 528.057618 169.150983 
L 530.052622 313.952772 
L 530.717624 354.691305 
L 531.382625 387.610203 
L 532.047626 411.394687 
L 532.712628 425.042208 
L 533.377629 427.699251 
L 534.04263 418.600162 
L 534.707632 397.130756 
L 535.372633 363.090469 
L 536.037634 317.262074 
L 538.032639 151.409421 
L 538.69764 114.754082 
L 539.362641 101.711039 
L 540.027643 113.573749 
L 540.692644 145.563221 
L 542.022647 239.819677 
L 543.352649 334.345088 
L 544.017651 372.792117 
L 544.682652 402.866532 
L 545.347654 423.392295 
L 546.012655 433.440624 
L 546.677656 432.201141 
L 547.342658 418.957267 
L 548.007659 393.208539 
L 548.67266 355.024775 
L 550.002663 248.983539 
L 551.332666 143.364281 
L 551.997667 114.106818 
L 552.662669 109.47092 
L 553.32767 128.466426 
L 553.992671 165.027007 
L 556.652677 351.961851 
L 557.317678 387.699347 
L 557.982679 414.834219 
L 558.647681 432.323442 
L 559.312682 439.32474 
L 559.977684 435.097457 
L 560.642685 419.013051 
L 561.307686 390.717452 
L 561.972688 350.533983 
L 563.30269 243.820661 
L 563.967692 188.633803 
L 564.632693 144.208877 
L 565.297695 119.447964 
L 565.962696 118.657936 
L 566.627697 139.952082 
L 567.292699 177.162979 
L 569.952704 359.231192 
L 570.617705 393.661569 
L 571.282707 419.80132 
L 571.947708 436.694421 
L 572.61271 443.577137 
L 573.277711 439.791176 
L 573.942712 424.790991 
L 574.607714 398.282241 
L 575.272715 360.561279 
L 576.602718 259.500041 
L 577.93272 160.794041 
L 578.597722 132.610044 
L 579.262723 126.321088 
L 579.927725 141.483689 
L 580.592726 173.269159 
L 581.922729 261.128408 
L 583.252731 348.334867 
L 583.917733 384.261169 
L 584.582734 412.956985 
L 585.247735 433.446993 
L 585.912737 445.001588 
L 586.577738 447.027287 
L 587.24274 439.02958 
L 587.907741 420.660938 
L 588.572742 391.891676 
L 589.237744 353.357009 
L 591.897749 167.381384 
L 592.56275 143.459351 
L 593.227752 139.188978 
L 593.892753 153.847823 
L 594.557755 183.255677 
L 595.887757 264.524406 
L 597.21776 346.818289 
L 597.882761 381.604201 
L 598.547763 410.180185 
L 599.212764 431.649436 
L 599.877765 445.370044 
L 600.542767 450.853796 
L 601.207768 447.715953 
L 601.87277 435.68135 
L 602.537771 414.661291 
L 603.202772 384.928958 
L 604.532775 304.136701 
L 605.862778 215.634761 
L 606.527779 181.223887 
L 607.192781 160.447507 
L 607.857782 156.04289 
L 608.522783 167.559141 
L 609.187785 191.962969 
L 610.517787 262.552436 
L 611.84779 337.991154 
L 613.177793 400.208258 
L 613.842794 423.396427 
L 614.507796 440.43713 
L 615.172797 450.925587 
L 615.837798 454.576676 
L 616.5028 451.197874 
L 617.167801 440.69587 
L 617.832802 423.123381 
L 618.497804 398.7767 
L 619.827806 333.152157 
L 621.822811 224.359096 
L 622.487812 198.810999 
L 623.152813 184.143868 
L 623.817815 181.744792 
L 624.482816 191.127444 
L 625.147817 210.30572 
L 626.47782 266.921226 
L 628.472824 360.568777 
L 629.802827 410.692486 
L 630.467828 429.690623 
L 631.13283 444.144429 
L 631.797831 453.850228 
L 632.462832 458.699521 
L 633.127834 458.658569 
L 633.792835 453.761916 
L 634.457836 444.119165 
L 635.122838 429.935401 
L 635.787839 411.548197 
L 637.117842 364.501102 
L 639.777847 261.280131 
L 640.442849 243.017904 
L 641.10785 230.90967 
L 641.772851 225.745019 
L 642.437853 227.604995 
L 643.102854 235.904589 
L 643.767856 249.606786 
L 645.097858 287.970797 
L 648.422865 394.917722 
L 649.752868 427.4202 
L 650.417869 440.202783 
L 651.082871 450.559284 
L 651.747872 458.483953 
L 652.412873 464.019228 
L 653.077875 467.245045 
L 653.742876 468.271023 
L 654.407877 467.231264 
L 655.072879 464.279666 
L 655.73788 459.587392 
L 656.402882 453.341368 
L 657.732884 437.007816 
L 659.062887 417.061497 
L 662.387894 364.710411 
L 663.717897 348.094876 
L 664.382898 341.531806 
L 665.047899 336.28501 
L 665.712901 332.404903 
L 666.377902 329.890297 
L 667.042903 328.693137 
L 667.707905 328.725996 
L 668.372906 329.871047 
L 669.037907 331.989985 
L 669.702909 334.933588 
L 671.032912 342.688014 
L 673.027916 356.908675 
L 675.687921 376.301768 
L 677.682925 389.083893 
L 679.012928 396.458636 
L 680.342931 402.968545 
L 682.337935 411.449916 
L 684.99794 421.340488 
L 687.657946 430.465363 
L 689.65295 436.528758 
L 690.982952 439.69242 
L 691.647954 440.849001 
L 692.312955 441.635196 
L 692.977957 441.980325 
L 693.642958 441.811439 
L 694.307959 441.055185 
L 694.972961 439.640013 
L 695.637962 437.499006 
L 696.302963 434.572972 
L 696.967965 430.813391 
L 697.632966 426.18516 
L 698.962969 414.278094 
L 700.292972 399.010036 
L 702.287976 371.405772 
L 704.28298 342.811586 
L 705.612983 327.162899 
L 706.277984 321.427733 
L 706.942985 317.534055 
L 707.607987 315.748378 
L 708.272988 316.242149 
L 708.937989 319.064861 
L 709.602991 324.125816 
L 710.267992 331.191972 
L 711.597995 349.786103 
L 714.258 390.294446 
L 714.923002 398.066643 
L 715.588003 404.035402 
L 716.253004 407.893756 
L 716.918006 409.411627 
L 717.583007 408.436546 
L 718.248008 404.895014 
L 718.91301 398.794492 
L 719.578011 390.230271 
L 720.243013 379.393982 
L 721.573015 352.225786 
L 724.233021 292.496201 
L 724.898022 281.364045 
L 725.563023 273.677231 
L 726.228025 270.221184 
L 726.893026 271.467571 
L 727.558028 277.455311 
L 728.223029 287.742247 
L 729.553032 317.361524 
L 731.548036 365.208588 
L 732.213037 377.356975 
L 732.878038 386.225087 
L 733.54304 391.33505 
L 734.208041 392.417927 
L 734.873043 389.389823 
L 735.538044 382.337042 
L 736.203045 371.512272 
L 736.868047 357.343981 
L 738.198049 321.694925 
L 740.193054 266.266017 
L 740.858055 253.104612 
L 741.523056 245.188032 
L 742.188058 243.645559 
L 742.853059 248.895424 
L 743.51806 260.492138 
L 744.183062 277.142923 
L 746.843067 354.911479 
L 747.508069 368.17431 
L 748.17307 376.691172 
L 748.838071 380.020266 
L 749.503073 378.037823 
L 750.168074 370.87274 
L 750.833075 358.898364 
L 751.498077 342.7295 
L 752.828079 301.647358 
L 754.158082 258.544703 
L 754.823084 241.02258 
L 755.488085 229.027555 
L 756.153086 224.32275 
L 756.818088 227.855348 
L 757.483089 239.393234 
L 758.14809 257.452923 
L 760.808096 344.345343 
L 761.473097 358.399334 
L 762.138099 366.722248 
L 762.8031 368.917882 
L 763.468101 364.976709 
L 764.133103 355.206188 
L 764.798104 340.203071 
L 766.128107 298.441053 
L 767.458109 251.281265 
L 768.123111 231.005874 
L 768.788112 216.271777 
L 769.453114 209.295379 
L 770.118115 211.438325 
L 770.783116 222.677 
L 771.448118 241.431589 
L 774.108123 333.653462 
L 774.773124 348.106399 
L 775.438126 356.231457 
L 776.103127 357.678403 
L 776.768129 352.529063 
L 777.43313 341.213 
L 778.098131 324.478692 
L 779.428134 279.496628 
L 780.758137 231.206929 
L 781.423138 211.874218 
L 782.08814 199.315897 
L 782.753141 195.621788 
L 783.418142 201.684813 
L 784.083144 216.781908 
L 785.413146 263.867054 
L 786.743149 311.81387 
L 787.40815 329.515674 
L 788.073152 341.064601 
L 788.738153 345.856418 
L 789.403155 343.800546 
L 790.068156 335.202083 
L 790.733157 320.700413 
L 791.398159 301.265329 
L 794.058164 207.254422 
L 794.723165 191.337252 
L 795.388167 183.480057 
L 796.053168 185.116145 
L 796.71817 196.238508 
L 797.383171 215.142883 
L 800.043176 307.999411 
L 800.708178 322.371262 
L 801.373179 330.368677 
L 802.03818 331.695251 
L 802.703182 326.482204 
L 802.703182 326.482204 
" clip-path="url(#p49389457b5)" style="fill: none; stroke-dasharray: 11.1,4.8; stroke-dashoffset: 0; stroke: #ff7f0e; stroke-width: 3"/>
   </g>
   <g id="patch_3">
    <path d="M 105.15 489.2325 
L 105.15 28.08 
" style="fill: none; stroke: #000000; stroke-width: 2; stroke-linejoin: miter; stroke-linecap: square"/>
   </g>
   <g id="patch_4">
    <path d="M 835.92 489.2325 
L 835.92 28.08 
" style="fill: none; stroke: #000000; stroke-width: 2; stroke-linejoin: miter; stroke-linecap: square"/>
   </g>
   <g id="patch_5">
    <path d="M 105.15 489.2325 
L 835.92 489.2325 
" style="fill: none; stroke: #000000; stroke-width: 2; stroke-linejoin: miter; stroke-linecap: square"/>
   </g>
   <g id="patch_6">
    <path d="M 105.15 28.08 
L 835.92 28.08 
" style="fill: none; stroke: #000000; stroke-width: 2; stroke-linejoin: miter; stroke-linecap: square"/>
   </g>
  </g>
 </g>
 <defs>
  <clipPath id="p49389457b5">
   <rect x="105.15" y="28.08" width="730.77" height="461.1525"/>
  </clipPath>
 </defs>
</svg>
