<?xml version="1.0" encoding="utf-8" standalone="no"?>
<!DOCTYPE svg PUBLIC "-//W3C//DTD SVG 1.1//EN"
  "http://www.w3.org/Graphics/SVG/1.1/DTD/svg11.dtd">
<svg xmlns:xlink="http://www.w3.org/1999/xlink" width="864pt" height="576pt" viewBox="0 0 864 576" xmlns="http://www.w3.org/2000/svg" version="1.1">
 <metadata>
  <rdf:RDF xmlns:dc="http://purl.org/dc/elements/1.1/" xmlns:cc="http://creativecommons.org/ns#" xmlns:rdf="http://www.w3.org/1999/02/22-rdf-syntax-ns#">
   <cc:Work>
    <dc:type rdf:resource="http://purl.org/dc/dcmitype/StillImage"/>
    <dc:date>2025-07-11T14:31:39.523404</dc:date>
    <dc:format>image/svg+xml</dc:format>
    <dc:creator>
     <cc:Agent>
      <dc:title>Matplotlib v3.7.2, https://matplotlib.org/</dc:title>
     </cc:Agent>
    </dc:creator>
   </cc:Work>
  </rdf:RDF>
 </metadata>
 <defs>
  <style type="text/css">*{stroke-linejoin: round; stroke-linecap: butt}</style>
 </defs>
 <g id="figure_1">
  <g id="patch_1">
   <path d="M 0 576 
L 864 576 
L 864 0 
L 0 0 
z
" style="fill: #ffffff"/>
  </g>
  <g id="axes_1">
   <g id="patch_2">
    <path d="M 137.741625 489.2325 
L 835.92 489.2325 
L 835.92 30.659351 
L 137.741625 30.659351 
z
" style="fill: #ffffff"/>
   </g>
   <g id="matplotlib.axis_1">
    <g id="xtick_1">
     <g id="line2d_1">
      <path d="M 169.477006 489.2325 
L 169.477006 30.659351 
" clip-path="url(#p18f4998000)" style="fill: none; stroke-dasharray: 3.7,1.6; stroke-dashoffset: 0; stroke: #b0b0b0; stroke-opacity: 0.5"/>
     </g>
     <g id="line2d_2">
      <defs>
       <path id="m5dc33b23a1" d="M 0 0 
L 0 -10 
" style="stroke: #000000; stroke-width: 2"/>
      </defs>
      <g>
       <use xlink:href="#m5dc33b23a1" x="169.477006" y="489.2325" style="stroke: #000000; stroke-width: 2"/>
      </g>
     </g>
     <g id="line2d_3">
      <defs>
       <path id="mfafff14f2d" d="M 0 0 
L 0 10 
" style="stroke: #000000; stroke-width: 2"/>
      </defs>
      <g>
       <use xlink:href="#mfafff14f2d" x="169.477006" y="30.659351" style="stroke: #000000; stroke-width: 2"/>
      </g>
     </g>
     <g id="text_1">
      <!-- 0 -->
      <g transform="translate(161.205756 512.488438) scale(0.26 -0.26)">
       <defs>
        <path id="DejaVuSerif-30" d="M 2034 219 
Q 2513 219 2750 744 
Q 2988 1269 2988 2328 
Q 2988 3391 2750 3916 
Q 2513 4441 2034 4441 
Q 1556 4441 1318 3916 
Q 1081 3391 1081 2328 
Q 1081 1269 1318 744 
Q 1556 219 2034 219 
z
M 2034 -91 
Q 1275 -91 848 546 
Q 422 1184 422 2328 
Q 422 3475 848 4112 
Q 1275 4750 2034 4750 
Q 2797 4750 3222 4112 
Q 3647 3475 3647 2328 
Q 3647 1184 3222 546 
Q 2797 -91 2034 -91 
z
" transform="scale(0.015625)"/>
       </defs>
       <use xlink:href="#DejaVuSerif-30"/>
      </g>
     </g>
    </g>
    <g id="xtick_2">
     <g id="line2d_4">
      <path d="M 296.418528 489.2325 
L 296.418528 30.659351 
" clip-path="url(#p18f4998000)" style="fill: none; stroke-dasharray: 3.7,1.6; stroke-dashoffset: 0; stroke: #b0b0b0; stroke-opacity: 0.5"/>
     </g>
     <g id="line2d_5">
      <g>
       <use xlink:href="#m5dc33b23a1" x="296.418528" y="489.2325" style="stroke: #000000; stroke-width: 2"/>
      </g>
     </g>
     <g id="line2d_6">
      <g>
       <use xlink:href="#mfafff14f2d" x="296.418528" y="30.659351" style="stroke: #000000; stroke-width: 2"/>
      </g>
     </g>
     <g id="text_2">
      <!-- 10 -->
      <g transform="translate(279.876028 512.488438) scale(0.26 -0.26)">
       <defs>
        <path id="DejaVuSerif-31" d="M 909 0 
L 909 331 
L 1722 331 
L 1722 4213 
L 781 3603 
L 781 4013 
L 1919 4750 
L 2350 4750 
L 2350 331 
L 3163 331 
L 3163 0 
L 909 0 
z
" transform="scale(0.015625)"/>
       </defs>
       <use xlink:href="#DejaVuSerif-31"/>
       <use xlink:href="#DejaVuSerif-30" x="63.623047"/>
      </g>
     </g>
    </g>
    <g id="xtick_3">
     <g id="line2d_7">
      <path d="M 423.360051 489.2325 
L 423.360051 30.659351 
" clip-path="url(#p18f4998000)" style="fill: none; stroke-dasharray: 3.7,1.6; stroke-dashoffset: 0; stroke: #b0b0b0; stroke-opacity: 0.5"/>
     </g>
     <g id="line2d_8">
      <g>
       <use xlink:href="#m5dc33b23a1" x="423.360051" y="489.2325" style="stroke: #000000; stroke-width: 2"/>
      </g>
     </g>
     <g id="line2d_9">
      <g>
       <use xlink:href="#mfafff14f2d" x="423.360051" y="30.659351" style="stroke: #000000; stroke-width: 2"/>
      </g>
     </g>
     <g id="text_3">
      <!-- 20 -->
      <g transform="translate(406.817551 512.488438) scale(0.26 -0.26)">
       <defs>
        <path id="DejaVuSerif-32" d="M 819 3553 
L 469 3553 
L 469 4384 
Q 803 4563 1142 4656 
Q 1481 4750 1806 4750 
Q 2534 4750 2956 4397 
Q 3378 4044 3378 3438 
Q 3378 2753 2422 1800 
Q 2347 1728 2309 1691 
L 1131 513 
L 3078 513 
L 3078 1088 
L 3444 1088 
L 3444 0 
L 434 0 
L 434 341 
L 1850 1753 
Q 2319 2222 2519 2614 
Q 2719 3006 2719 3438 
Q 2719 3909 2473 4175 
Q 2228 4441 1797 4441 
Q 1350 4441 1106 4219 
Q 863 3997 819 3553 
z
" transform="scale(0.015625)"/>
       </defs>
       <use xlink:href="#DejaVuSerif-32"/>
       <use xlink:href="#DejaVuSerif-30" x="63.623047"/>
      </g>
     </g>
    </g>
    <g id="xtick_4">
     <g id="line2d_10">
      <path d="M 550.301574 489.2325 
L 550.301574 30.659351 
" clip-path="url(#p18f4998000)" style="fill: none; stroke-dasharray: 3.7,1.6; stroke-dashoffset: 0; stroke: #b0b0b0; stroke-opacity: 0.5"/>
     </g>
     <g id="line2d_11">
      <g>
       <use xlink:href="#m5dc33b23a1" x="550.301574" y="489.2325" style="stroke: #000000; stroke-width: 2"/>
      </g>
     </g>
     <g id="line2d_12">
      <g>
       <use xlink:href="#mfafff14f2d" x="550.301574" y="30.659351" style="stroke: #000000; stroke-width: 2"/>
      </g>
     </g>
     <g id="text_4">
      <!-- 30 -->
      <g transform="translate(533.759074 512.488438) scale(0.26 -0.26)">
       <defs>
        <path id="DejaVuSerif-33" d="M 622 4469 
Q 988 4606 1323 4678 
Q 1659 4750 1953 4750 
Q 2638 4750 3022 4454 
Q 3406 4159 3406 3634 
Q 3406 3213 3140 2930 
Q 2875 2647 2388 2547 
Q 2963 2466 3280 2130 
Q 3597 1794 3597 1259 
Q 3597 606 3158 257 
Q 2719 -91 1894 -91 
Q 1528 -91 1179 -12 
Q 831 66 488 225 
L 488 1131 
L 838 1131 
Q 869 681 1141 450 
Q 1413 219 1906 219 
Q 2384 219 2661 495 
Q 2938 772 2938 1253 
Q 2938 1803 2653 2086 
Q 2369 2369 1819 2369 
L 1522 2369 
L 1522 2688 
L 1678 2688 
Q 2225 2688 2498 2914 
Q 2772 3141 2772 3597 
Q 2772 4006 2547 4223 
Q 2322 4441 1900 4441 
Q 1478 4441 1245 4241 
Q 1013 4041 972 3647 
L 622 3647 
L 622 4469 
z
" transform="scale(0.015625)"/>
       </defs>
       <use xlink:href="#DejaVuSerif-33"/>
       <use xlink:href="#DejaVuSerif-30" x="63.623047"/>
      </g>
     </g>
    </g>
    <g id="xtick_5">
     <g id="line2d_13">
      <path d="M 677.243097 489.2325 
L 677.243097 30.659351 
" clip-path="url(#p18f4998000)" style="fill: none; stroke-dasharray: 3.7,1.6; stroke-dashoffset: 0; stroke: #b0b0b0; stroke-opacity: 0.5"/>
     </g>
     <g id="line2d_14">
      <g>
       <use xlink:href="#m5dc33b23a1" x="677.243097" y="489.2325" style="stroke: #000000; stroke-width: 2"/>
      </g>
     </g>
     <g id="line2d_15">
      <g>
       <use xlink:href="#mfafff14f2d" x="677.243097" y="30.659351" style="stroke: #000000; stroke-width: 2"/>
      </g>
     </g>
     <g id="text_5">
      <!-- 40 -->
      <g transform="translate(660.700597 512.488438) scale(0.26 -0.26)">
       <defs>
        <path id="DejaVuSerif-34" d="M 2234 1581 
L 2234 4063 
L 641 1581 
L 2234 1581 
z
M 3609 0 
L 1484 0 
L 1484 331 
L 2234 331 
L 2234 1247 
L 197 1247 
L 197 1588 
L 2241 4750 
L 2859 4750 
L 2859 1581 
L 3750 1581 
L 3750 1247 
L 2859 1247 
L 2859 331 
L 3609 331 
L 3609 0 
z
" transform="scale(0.015625)"/>
       </defs>
       <use xlink:href="#DejaVuSerif-34"/>
       <use xlink:href="#DejaVuSerif-30" x="63.623047"/>
      </g>
     </g>
    </g>
    <g id="xtick_6">
     <g id="line2d_16">
      <path d="M 804.184619 489.2325 
L 804.184619 30.659351 
" clip-path="url(#p18f4998000)" style="fill: none; stroke-dasharray: 3.7,1.6; stroke-dashoffset: 0; stroke: #b0b0b0; stroke-opacity: 0.5"/>
     </g>
     <g id="line2d_17">
      <g>
       <use xlink:href="#m5dc33b23a1" x="804.184619" y="489.2325" style="stroke: #000000; stroke-width: 2"/>
      </g>
     </g>
     <g id="line2d_18">
      <g>
       <use xlink:href="#mfafff14f2d" x="804.184619" y="30.659351" style="stroke: #000000; stroke-width: 2"/>
      </g>
     </g>
     <g id="text_6">
      <!-- 50 -->
      <g transform="translate(787.642119 512.488438) scale(0.26 -0.26)">
       <defs>
        <path id="DejaVuSerif-35" d="M 3219 4666 
L 3219 4153 
L 1081 4153 
L 1081 2816 
Q 1244 2928 1461 2984 
Q 1678 3041 1947 3041 
Q 2703 3041 3140 2622 
Q 3578 2203 3578 1478 
Q 3578 738 3136 323 
Q 2694 -91 1894 -91 
Q 1572 -91 1234 -12 
Q 897 66 544 225 
L 544 1131 
L 897 1131 
Q 925 688 1179 453 
Q 1434 219 1894 219 
Q 2388 219 2653 544 
Q 2919 869 2919 1478 
Q 2919 2084 2655 2407 
Q 2391 2731 1894 2731 
Q 1613 2731 1398 2631 
Q 1184 2531 1019 2322 
L 750 2322 
L 750 4666 
L 3219 4666 
z
" transform="scale(0.015625)"/>
       </defs>
       <use xlink:href="#DejaVuSerif-35"/>
       <use xlink:href="#DejaVuSerif-30" x="63.623047"/>
      </g>
     </g>
    </g>
    <g id="text_7">
     <!-- $t$ (a.u.) -->
     <g transform="translate(443.410813 541.651562) scale(0.26 -0.26)">
      <defs>
       <path id="Cmmi10-74" d="M 397 519 
Q 397 613 416 697 
L 878 2534 
L 206 2534 
Q 141 2534 141 2619 
Q 166 2759 225 2759 
L 934 2759 
L 1191 3803 
Q 1216 3888 1291 3947 
Q 1366 4006 1459 4006 
Q 1541 4006 1595 3957 
Q 1650 3909 1650 3828 
Q 1650 3809 1648 3798 
Q 1647 3788 1644 3775 
L 1388 2759 
L 2047 2759 
Q 2113 2759 2113 2675 
Q 2109 2659 2100 2621 
Q 2091 2584 2075 2559 
Q 2059 2534 2028 2534 
L 1331 2534 
L 872 684 
Q 825 503 825 372 
Q 825 97 1013 97 
Q 1294 97 1511 361 
Q 1728 625 1844 941 
Q 1869 978 1894 978 
L 1972 978 
Q 1997 978 2012 961 
Q 2028 944 2028 922 
Q 2028 909 2022 903 
Q 1881 516 1612 222 
Q 1344 -72 997 -72 
Q 744 -72 570 93 
Q 397 259 397 519 
z
" transform="scale(0.015625)"/>
       <path id="DejaVuSerif-20" transform="scale(0.015625)"/>
       <path id="DejaVuSerif-28" d="M 2041 -997 
Q 1281 -656 893 83 
Q 506 822 506 1931 
Q 506 3044 893 3783 
Q 1281 4522 2041 4863 
L 2041 4556 
Q 1559 4225 1350 3623 
Q 1141 3022 1141 1931 
Q 1141 844 1350 242 
Q 1559 -359 2041 -691 
L 2041 -997 
z
" transform="scale(0.015625)"/>
       <path id="DejaVuSerif-61" d="M 2547 1044 
L 2547 1747 
L 1806 1747 
Q 1378 1747 1168 1562 
Q 959 1378 959 997 
Q 959 650 1171 447 
Q 1384 244 1747 244 
Q 2106 244 2326 466 
Q 2547 688 2547 1044 
z
M 3122 2075 
L 3122 331 
L 3634 331 
L 3634 0 
L 2547 0 
L 2547 359 
Q 2356 128 2106 18 
Q 1856 -91 1522 -91 
Q 969 -91 644 203 
Q 319 497 319 997 
Q 319 1513 691 1797 
Q 1063 2081 1741 2081 
L 2547 2081 
L 2547 2309 
Q 2547 2688 2317 2895 
Q 2088 3103 1672 3103 
Q 1328 3103 1125 2947 
Q 922 2791 872 2484 
L 575 2484 
L 575 3156 
Q 875 3284 1158 3348 
Q 1441 3413 1709 3413 
Q 2400 3413 2761 3070 
Q 3122 2728 3122 2075 
z
" transform="scale(0.015625)"/>
       <path id="DejaVuSerif-2e" d="M 603 325 
Q 603 500 722 622 
Q 841 744 1019 744 
Q 1191 744 1312 622 
Q 1434 500 1434 325 
Q 1434 153 1312 31 
Q 1191 -91 1019 -91 
Q 841 -91 722 29 
Q 603 150 603 325 
z
" transform="scale(0.015625)"/>
       <path id="DejaVuSerif-75" d="M 2266 3322 
L 3341 3322 
L 3341 331 
L 3884 331 
L 3884 0 
L 2766 0 
L 2766 588 
Q 2606 256 2353 82 
Q 2100 -91 1766 -91 
Q 1213 -91 952 223 
Q 691 538 691 1209 
L 691 2988 
L 172 2988 
L 172 3322 
L 1269 3322 
L 1269 1388 
Q 1269 781 1417 556 
Q 1566 331 1947 331 
Q 2347 331 2556 625 
Q 2766 919 2766 1478 
L 2766 2988 
L 2266 2988 
L 2266 3322 
z
" transform="scale(0.015625)"/>
       <path id="DejaVuSerif-29" d="M 453 -997 
L 453 -691 
Q 934 -359 1145 242 
Q 1356 844 1356 1931 
Q 1356 3022 1145 3623 
Q 934 4225 453 4556 
L 453 4863 
Q 1216 4522 1603 3783 
Q 1991 3044 1991 1931 
Q 1991 822 1603 83 
Q 1216 -656 453 -997 
z
" transform="scale(0.015625)"/>
      </defs>
      <use xlink:href="#Cmmi10-74" transform="translate(0 0.015625)"/>
      <use xlink:href="#DejaVuSerif-20" transform="translate(36.083984 0.015625)"/>
      <use xlink:href="#DejaVuSerif-28" transform="translate(67.871094 0.015625)"/>
      <use xlink:href="#DejaVuSerif-61" transform="translate(106.884766 0.015625)"/>
      <use xlink:href="#DejaVuSerif-2e" transform="translate(166.503906 0.015625)"/>
      <use xlink:href="#DejaVuSerif-75" transform="translate(198.291016 0.015625)"/>
      <use xlink:href="#DejaVuSerif-2e" transform="translate(262.695312 0.015625)"/>
      <use xlink:href="#DejaVuSerif-29" transform="translate(294.482422 0.015625)"/>
     </g>
    </g>
   </g>
   <g id="matplotlib.axis_2">
    <g id="ytick_1">
     <g id="line2d_19">
      <path d="M 137.741625 469.687239 
L 835.92 469.687239 
" clip-path="url(#p18f4998000)" style="fill: none; stroke-dasharray: 3.7,1.6; stroke-dashoffset: 0; stroke: #b0b0b0; stroke-opacity: 0.5"/>
     </g>
     <g id="line2d_20">
      <defs>
       <path id="m0af4b95dc3" d="M 0 0 
L 10 0 
" style="stroke: #000000; stroke-width: 2"/>
      </defs>
      <g>
       <use xlink:href="#m0af4b95dc3" x="137.741625" y="469.687239" style="stroke: #000000; stroke-width: 2"/>
      </g>
     </g>
     <g id="line2d_21">
      <defs>
       <path id="m004edc9948" d="M 0 0 
L -10 0 
" style="stroke: #000000; stroke-width: 2"/>
      </defs>
      <g>
       <use xlink:href="#m004edc9948" x="835.92" y="469.687239" style="stroke: #000000; stroke-width: 2"/>
      </g>
     </g>
     <g id="text_8">
      <!-- 0.550 -->
      <g transform="translate(59.8085 479.565207) scale(0.26 -0.26)">
       <use xlink:href="#DejaVuSerif-30"/>
       <use xlink:href="#DejaVuSerif-2e" x="63.623047"/>
       <use xlink:href="#DejaVuSerif-35" x="95.410156"/>
       <use xlink:href="#DejaVuSerif-35" x="159.033203"/>
       <use xlink:href="#DejaVuSerif-30" x="222.65625"/>
      </g>
     </g>
    </g>
    <g id="ytick_2">
     <g id="line2d_22">
      <path d="M 137.741625 408.023684 
L 835.92 408.023684 
" clip-path="url(#p18f4998000)" style="fill: none; stroke-dasharray: 3.7,1.6; stroke-dashoffset: 0; stroke: #b0b0b0; stroke-opacity: 0.5"/>
     </g>
     <g id="line2d_23">
      <g>
       <use xlink:href="#m0af4b95dc3" x="137.741625" y="408.023684" style="stroke: #000000; stroke-width: 2"/>
      </g>
     </g>
     <g id="line2d_24">
      <g>
       <use xlink:href="#m004edc9948" x="835.92" y="408.023684" style="stroke: #000000; stroke-width: 2"/>
      </g>
     </g>
     <g id="text_9">
      <!-- 0.575 -->
      <g transform="translate(59.8085 417.901653) scale(0.26 -0.26)">
       <defs>
        <path id="DejaVuSerif-37" d="M 3609 4347 
L 1784 0 
L 1319 0 
L 3059 4153 
L 903 4153 
L 903 3578 
L 538 3578 
L 538 4666 
L 3609 4666 
L 3609 4347 
z
" transform="scale(0.015625)"/>
       </defs>
       <use xlink:href="#DejaVuSerif-30"/>
       <use xlink:href="#DejaVuSerif-2e" x="63.623047"/>
       <use xlink:href="#DejaVuSerif-35" x="95.410156"/>
       <use xlink:href="#DejaVuSerif-37" x="159.033203"/>
       <use xlink:href="#DejaVuSerif-35" x="222.65625"/>
      </g>
     </g>
    </g>
    <g id="ytick_3">
     <g id="line2d_25">
      <path d="M 137.741625 346.360129 
L 835.92 346.360129 
" clip-path="url(#p18f4998000)" style="fill: none; stroke-dasharray: 3.7,1.6; stroke-dashoffset: 0; stroke: #b0b0b0; stroke-opacity: 0.5"/>
     </g>
     <g id="line2d_26">
      <g>
       <use xlink:href="#m0af4b95dc3" x="137.741625" y="346.360129" style="stroke: #000000; stroke-width: 2"/>
      </g>
     </g>
     <g id="line2d_27">
      <g>
       <use xlink:href="#m004edc9948" x="835.92" y="346.360129" style="stroke: #000000; stroke-width: 2"/>
      </g>
     </g>
     <g id="text_10">
      <!-- 0.600 -->
      <g transform="translate(59.8085 356.238098) scale(0.26 -0.26)">
       <defs>
        <path id="DejaVuSerif-36" d="M 2094 219 
Q 2534 219 2771 542 
Q 3009 866 3009 1472 
Q 3009 2078 2771 2401 
Q 2534 2725 2094 2725 
Q 1647 2725 1412 2412 
Q 1178 2100 1178 1509 
Q 1178 888 1415 553 
Q 1653 219 2094 219 
z
M 1075 2569 
Q 1288 2803 1556 2918 
Q 1825 3034 2163 3034 
Q 2859 3034 3264 2615 
Q 3669 2197 3669 1472 
Q 3669 763 3233 336 
Q 2797 -91 2069 -91 
Q 1278 -91 853 498 
Q 428 1088 428 2181 
Q 428 3406 931 4078 
Q 1434 4750 2350 4750 
Q 2597 4750 2869 4703 
Q 3141 4656 3425 4563 
L 3425 3794 
L 3072 3794 
Q 3034 4109 2831 4275 
Q 2628 4441 2284 4441 
Q 1678 4441 1381 3981 
Q 1084 3522 1075 2569 
z
" transform="scale(0.015625)"/>
       </defs>
       <use xlink:href="#DejaVuSerif-30"/>
       <use xlink:href="#DejaVuSerif-2e" x="63.623047"/>
       <use xlink:href="#DejaVuSerif-36" x="95.410156"/>
       <use xlink:href="#DejaVuSerif-30" x="159.033203"/>
       <use xlink:href="#DejaVuSerif-30" x="222.65625"/>
      </g>
     </g>
    </g>
    <g id="ytick_4">
     <g id="line2d_28">
      <path d="M 137.741625 284.696574 
L 835.92 284.696574 
" clip-path="url(#p18f4998000)" style="fill: none; stroke-dasharray: 3.7,1.6; stroke-dashoffset: 0; stroke: #b0b0b0; stroke-opacity: 0.5"/>
     </g>
     <g id="line2d_29">
      <g>
       <use xlink:href="#m0af4b95dc3" x="137.741625" y="284.696574" style="stroke: #000000; stroke-width: 2"/>
      </g>
     </g>
     <g id="line2d_30">
      <g>
       <use xlink:href="#m004edc9948" x="835.92" y="284.696574" style="stroke: #000000; stroke-width: 2"/>
      </g>
     </g>
     <g id="text_11">
      <!-- 0.625 -->
      <g transform="translate(59.8085 294.574543) scale(0.26 -0.26)">
       <use xlink:href="#DejaVuSerif-30"/>
       <use xlink:href="#DejaVuSerif-2e" x="63.623047"/>
       <use xlink:href="#DejaVuSerif-36" x="95.410156"/>
       <use xlink:href="#DejaVuSerif-32" x="159.033203"/>
       <use xlink:href="#DejaVuSerif-35" x="222.65625"/>
      </g>
     </g>
    </g>
    <g id="ytick_5">
     <g id="line2d_31">
      <path d="M 137.741625 223.033019 
L 835.92 223.033019 
" clip-path="url(#p18f4998000)" style="fill: none; stroke-dasharray: 3.7,1.6; stroke-dashoffset: 0; stroke: #b0b0b0; stroke-opacity: 0.5"/>
     </g>
     <g id="line2d_32">
      <g>
       <use xlink:href="#m0af4b95dc3" x="137.741625" y="223.033019" style="stroke: #000000; stroke-width: 2"/>
      </g>
     </g>
     <g id="line2d_33">
      <g>
       <use xlink:href="#m004edc9948" x="835.92" y="223.033019" style="stroke: #000000; stroke-width: 2"/>
      </g>
     </g>
     <g id="text_12">
      <!-- 0.650 -->
      <g transform="translate(59.8085 232.910988) scale(0.26 -0.26)">
       <use xlink:href="#DejaVuSerif-30"/>
       <use xlink:href="#DejaVuSerif-2e" x="63.623047"/>
       <use xlink:href="#DejaVuSerif-36" x="95.410156"/>
       <use xlink:href="#DejaVuSerif-35" x="159.033203"/>
       <use xlink:href="#DejaVuSerif-30" x="222.65625"/>
      </g>
     </g>
    </g>
    <g id="ytick_6">
     <g id="line2d_34">
      <path d="M 137.741625 161.369465 
L 835.92 161.369465 
" clip-path="url(#p18f4998000)" style="fill: none; stroke-dasharray: 3.7,1.6; stroke-dashoffset: 0; stroke: #b0b0b0; stroke-opacity: 0.5"/>
     </g>
     <g id="line2d_35">
      <g>
       <use xlink:href="#m0af4b95dc3" x="137.741625" y="161.369465" style="stroke: #000000; stroke-width: 2"/>
      </g>
     </g>
     <g id="line2d_36">
      <g>
       <use xlink:href="#m004edc9948" x="835.92" y="161.369465" style="stroke: #000000; stroke-width: 2"/>
      </g>
     </g>
     <g id="text_13">
      <!-- 0.675 -->
      <g transform="translate(59.8085 171.247433) scale(0.26 -0.26)">
       <use xlink:href="#DejaVuSerif-30"/>
       <use xlink:href="#DejaVuSerif-2e" x="63.623047"/>
       <use xlink:href="#DejaVuSerif-36" x="95.410156"/>
       <use xlink:href="#DejaVuSerif-37" x="159.033203"/>
       <use xlink:href="#DejaVuSerif-35" x="222.65625"/>
      </g>
     </g>
    </g>
    <g id="ytick_7">
     <g id="line2d_37">
      <path d="M 137.741625 99.70591 
L 835.92 99.70591 
" clip-path="url(#p18f4998000)" style="fill: none; stroke-dasharray: 3.7,1.6; stroke-dashoffset: 0; stroke: #b0b0b0; stroke-opacity: 0.5"/>
     </g>
     <g id="line2d_38">
      <g>
       <use xlink:href="#m0af4b95dc3" x="137.741625" y="99.70591" style="stroke: #000000; stroke-width: 2"/>
      </g>
     </g>
     <g id="line2d_39">
      <g>
       <use xlink:href="#m004edc9948" x="835.92" y="99.70591" style="stroke: #000000; stroke-width: 2"/>
      </g>
     </g>
     <g id="text_14">
      <!-- 0.700 -->
      <g transform="translate(59.8085 109.583878) scale(0.26 -0.26)">
       <use xlink:href="#DejaVuSerif-30"/>
       <use xlink:href="#DejaVuSerif-2e" x="63.623047"/>
       <use xlink:href="#DejaVuSerif-37" x="95.410156"/>
       <use xlink:href="#DejaVuSerif-30" x="159.033203"/>
       <use xlink:href="#DejaVuSerif-30" x="222.65625"/>
      </g>
     </g>
    </g>
    <g id="ytick_8">
     <g id="line2d_40">
      <path d="M 137.741625 38.042355 
L 835.92 38.042355 
" clip-path="url(#p18f4998000)" style="fill: none; stroke-dasharray: 3.7,1.6; stroke-dashoffset: 0; stroke: #b0b0b0; stroke-opacity: 0.5"/>
     </g>
     <g id="line2d_41">
      <g>
       <use xlink:href="#m0af4b95dc3" x="137.741625" y="38.042355" style="stroke: #000000; stroke-width: 2"/>
      </g>
     </g>
     <g id="line2d_42">
      <g>
       <use xlink:href="#m004edc9948" x="835.92" y="38.042355" style="stroke: #000000; stroke-width: 2"/>
      </g>
     </g>
     <g id="text_15">
      <!-- 0.725 -->
      <g transform="translate(59.8085 47.920324) scale(0.26 -0.26)">
       <use xlink:href="#DejaVuSerif-30"/>
       <use xlink:href="#DejaVuSerif-2e" x="63.623047"/>
       <use xlink:href="#DejaVuSerif-37" x="95.410156"/>
       <use xlink:href="#DejaVuSerif-32" x="159.033203"/>
       <use xlink:href="#DejaVuSerif-35" x="222.65625"/>
      </g>
     </g>
    </g>
    <g id="text_16">
     <!-- $r_i$ (a.u.) -->
     <g transform="translate(50.401312 308.565926) rotate(-90) scale(0.26 -0.26)">
      <defs>
       <path id="Cmmi10-72" d="M 494 109 
Q 494 147 500 166 
L 978 2075 
Q 1025 2253 1025 2388 
Q 1025 2663 838 2663 
Q 638 2663 541 2423 
Q 444 2184 353 1819 
Q 353 1800 334 1789 
Q 316 1778 300 1778 
L 225 1778 
Q 203 1778 187 1801 
Q 172 1825 172 1844 
Q 241 2122 305 2315 
Q 369 2509 505 2668 
Q 641 2828 844 2828 
Q 1066 2828 1233 2700 
Q 1400 2572 1441 2363 
Q 1603 2575 1811 2701 
Q 2019 2828 2266 2828 
Q 2469 2828 2623 2709 
Q 2778 2591 2778 2388 
Q 2778 2225 2676 2104 
Q 2575 1984 2406 1984 
Q 2303 1984 2233 2048 
Q 2163 2113 2163 2216 
Q 2163 2356 2266 2467 
Q 2369 2578 2503 2578 
Q 2400 2663 2253 2663 
Q 1978 2663 1775 2467 
Q 1572 2272 1409 1972 
L 953 141 
Q 931 53 854 -9 
Q 778 -72 684 -72 
Q 606 -72 550 -22 
Q 494 28 494 109 
z
" transform="scale(0.015625)"/>
       <path id="Cmmi10-69" d="M 500 459 
Q 500 578 550 709 
L 1069 2088 
Q 1153 2322 1153 2472 
Q 1153 2663 1013 2663 
Q 759 2663 595 2402 
Q 431 2141 353 1819 
Q 341 1778 300 1778 
L 225 1778 
Q 172 1778 172 1838 
L 172 1856 
Q 275 2238 487 2533 
Q 700 2828 1025 2828 
Q 1253 2828 1411 2678 
Q 1569 2528 1569 2297 
Q 1569 2178 1516 2047 
L 997 672 
Q 909 459 909 288 
Q 909 97 1056 97 
Q 1306 97 1473 364 
Q 1641 631 1709 941 
Q 1722 978 1759 978 
L 1838 978 
Q 1863 978 1878 961 
Q 1894 944 1894 922 
Q 1894 916 1888 903 
Q 1800 541 1583 234 
Q 1366 -72 1044 -72 
Q 819 -72 659 83 
Q 500 238 500 459 
z
M 1222 3878 
Q 1222 4013 1334 4122 
Q 1447 4231 1581 4231 
Q 1691 4231 1761 4164 
Q 1831 4097 1831 3994 
Q 1831 3850 1717 3742 
Q 1603 3634 1466 3634 
Q 1363 3634 1292 3704 
Q 1222 3775 1222 3878 
z
" transform="scale(0.015625)"/>
      </defs>
      <use xlink:href="#Cmmi10-72" transform="translate(0 0.015625)"/>
      <use xlink:href="#Cmmi10-69" transform="translate(45.117188 -16.990625) scale(0.7)"/>
      <use xlink:href="#DejaVuSerif-20" transform="translate(75.591211 0.015625)"/>
      <use xlink:href="#DejaVuSerif-28" transform="translate(107.37832 0.015625)"/>
      <use xlink:href="#DejaVuSerif-61" transform="translate(146.391992 0.015625)"/>
      <use xlink:href="#DejaVuSerif-2e" transform="translate(206.011133 0.015625)"/>
      <use xlink:href="#DejaVuSerif-75" transform="translate(237.798242 0.015625)"/>
      <use xlink:href="#DejaVuSerif-2e" transform="translate(302.202539 0.015625)"/>
      <use xlink:href="#DejaVuSerif-29" transform="translate(333.989648 0.015625)"/>
     </g>
    </g>
   </g>
   <g id="line2d_43">
    <path d="M 169.477006 288.367381 
L 170.112349 287.534731 
L 170.747692 285.021398 
L 171.383035 281.016305 
L 172.65372 270.039598 
L 173.924406 258.446269 
L 174.559749 253.687805 
L 175.195092 250.164407 
L 175.830435 248.133479 
L 176.465778 247.704966 
L 177.101121 248.833371 
L 177.736464 251.327393 
L 179.00715 259.012028 
L 180.277836 267.174289 
L 180.913179 270.205252 
L 181.548522 271.988997 
L 182.183865 272.26244 
L 182.819208 270.921854 
L 183.454551 268.031105 
L 184.089894 263.810049 
L 185.36058 252.8709 
L 186.631266 241.680336 
L 187.266608 237.115105 
L 187.901951 233.704685 
L 188.537294 231.664976 
L 189.172637 231.085581 
L 189.80798 231.925339 
L 190.443323 234.018812 
L 191.078666 237.09319 
L 193.620038 251.386312 
L 194.255381 253.422943 
L 194.890724 254.205496 
L 195.526067 253.593105 
L 196.16141 251.573637 
L 196.796753 248.265516 
L 198.067439 238.795566 
L 199.973468 222.816042 
L 200.608811 218.474815 
L 201.244154 215.103817 
L 201.879496 212.871135 
L 202.514839 211.850257 
L 203.150182 212.020171 
L 203.785525 213.269159 
L 204.420868 215.404769 
L 205.691554 221.276295 
L 206.96224 227.206188 
L 207.597583 229.42586 
L 208.232926 230.811204 
L 208.868269 231.189005 
L 209.503612 230.466423 
L 210.138955 228.635889 
L 210.774298 225.772787 
L 211.409641 222.025764 
L 212.680327 212.744616 
L 214.586356 198.181047 
L 215.857042 190.744148 
L 216.492384 188.176174 
L 217.127727 186.461744 
L 217.76307 185.597233 
L 218.398413 185.527698 
L 219.033756 186.152403 
L 219.669099 187.334429 
L 220.939785 190.694237 
L 222.210471 194.149627 
L 222.845814 195.467826 
L 223.481157 196.311895 
L 224.1165 196.567701 
L 224.751843 196.156899 
L 225.387186 195.040013 
L 226.022529 193.215874 
L 226.657872 190.7197 
L 227.928558 184.00529 
L 229.834587 171.253384 
L 231.740615 158.173046 
L 233.011301 150.60121 
L 234.281987 144.476095 
L 235.552673 139.895738 
L 236.823359 136.686088 
L 238.094045 134.479198 
L 241.906103 129.159991 
L 243.176789 126.434269 
L 244.447475 122.802803 
L 245.71816 118.205425 
L 246.988846 112.701736 
L 248.894875 103.103033 
L 254.612962 72.388121 
L 255.883648 66.829357 
L 257.154334 62.252824 
L 258.42502 58.883043 
L 259.060363 57.71961 
L 259.695706 56.939931 
L 260.331048 56.570423 
L 260.966391 56.636609 
L 261.601734 57.162652 
L 262.237077 58.170813 
L 262.87242 59.680701 
L 263.507763 61.708393 
L 264.143106 64.265485 
L 265.413792 70.984822 
L 266.684478 79.79651 
L 267.955164 90.506862 
L 269.861193 109.230862 
L 273.037908 141.328033 
L 274.308594 151.490575 
L 274.943936 155.432906 
L 275.579279 158.445863 
L 276.214622 160.424296 
L 276.849965 161.288287 
L 277.485308 160.988122 
L 278.120651 159.508919 
L 278.755994 156.873369 
L 279.391337 153.143363 
L 280.02668 148.42044 
L 281.297366 136.591091 
L 284.474081 103.417702 
L 285.109424 98.346552 
L 285.744767 94.489044 
L 286.38011 92.130773 
L 287.015453 91.532616 
L 287.650796 92.917936 
L 288.286139 96.459024 
L 288.921482 102.263048 
L 289.556824 110.35777 
L 290.192167 120.677622 
L 291.462853 147.202482 
L 295.274911 239.349537 
L 295.910254 249.314299 
L 296.545597 255.870045 
L 297.18094 258.58595 
L 297.816283 257.26675 
L 298.451626 251.981695 
L 299.086969 243.057319 
L 299.722312 231.048784 
L 300.992998 200.827244 
L 302.899027 153.417577 
L 303.53437 140.648769 
L 304.169712 130.725529 
L 304.805055 124.288527 
L 305.440398 121.835418 
L 306.075741 123.694411 
L 306.711084 129.996965 
L 307.346427 140.651874 
L 307.98177 155.32479 
L 309.252456 194.083147 
L 311.158485 259.140717 
L 311.793828 276.897763 
L 312.429171 290.172852 
L 313.064514 297.779819 
L 313.699857 299.000419 
L 314.3352 293.715819 
L 314.970543 282.426401 
L 315.605886 266.172434 
L 316.876572 224.686213 
L 318.147258 182.23615 
L 318.7826 164.537485 
L 319.417943 150.906197 
L 320.053286 142.317832 
L 320.688629 139.453394 
L 321.323972 142.667059 
L 321.959315 151.95643 
L 322.594658 166.936649 
L 323.230001 186.821051 
L 324.500687 236.110366 
L 325.771373 285.765369 
L 326.406716 305.266128 
L 327.042059 318.42163 
L 327.677402 323.778533 
L 328.312745 320.725914 
L 328.948088 309.629827 
L 329.583431 291.797803 
L 330.854117 244.051412 
L 332.124803 195.446629 
L 332.760146 176.018891 
L 333.395488 161.9819 
L 334.030831 154.436316 
L 334.666174 154.035713 
L 335.301517 160.956811 
L 335.93686 174.876018 
L 336.572203 194.950078 
L 337.842889 247.556536 
L 339.113575 301.961476 
L 339.748918 323.141654 
L 340.384261 336.891509 
L 341.019604 341.498197 
L 341.654947 336.396341 
L 342.29029 322.301129 
L 342.925633 301.082569 
L 345.467005 198.039437 
L 346.102348 180.258741 
L 346.737691 169.305254 
L 347.373034 166.092813 
L 348.008376 170.965362 
L 348.643719 183.679373 
L 349.279062 203.388239 
L 350.549748 257.371971 
L 351.820434 314.518596 
L 352.455777 336.824342 
L 353.09112 351.133183 
L 353.726463 355.562879 
L 354.361806 349.571069 
L 354.997149 334.080811 
L 355.632492 311.293467 
L 358.173864 206.127339 
L 358.809207 189.565981 
L 359.44455 180.499709 
L 360.079893 179.694704 
L 360.715236 187.290243 
L 361.350579 202.783302 
L 361.985922 225.029871 
L 363.256607 282.031932 
L 364.527293 337.38648 
L 365.162636 356.612145 
L 365.797979 366.656302 
L 366.433322 366.202181 
L 367.068665 355.457146 
L 367.704008 336.082505 
L 368.974694 282.646242 
L 370.24538 230.040713 
L 370.880723 210.522895 
L 371.516066 197.90977 
L 372.151409 193.228448 
L 372.786752 196.882192 
L 373.422095 208.641653 
L 374.057438 227.645634 
L 375.328124 280.814678 
L 376.59881 337.660127 
L 377.234152 359.948453 
L 377.869495 374.377791 
L 378.504838 379.115098 
L 379.140181 373.654122 
L 379.775524 358.998617 
L 380.410867 337.293348 
L 382.952239 236.845116 
L 383.587582 220.809524 
L 384.222925 211.746219 
L 384.858268 210.353917 
L 385.493611 216.758719 
L 386.128954 230.512636 
L 386.764297 250.597623 
L 388.034983 302.94777 
L 389.305669 355.623225 
L 389.941012 375.293748 
L 390.576355 387.358539 
L 391.211698 390.466967 
L 391.84704 384.473531 
L 392.482383 370.432689 
L 393.117726 350.324011 
L 395.659098 258.37305 
L 396.294441 243.163969 
L 396.929784 233.949993 
L 397.565127 231.376671 
L 398.20047 235.623648 
L 398.835813 246.405749 
L 399.471156 262.978209 
L 400.741842 308.321071 
L 402.012528 357.60345 
L 402.647871 378.307903 
L 403.283214 393.642225 
L 403.918557 402.139939 
L 404.5539 403.138624 
L 405.189243 396.862721 
L 405.824586 384.355944 
L 407.095271 347.376278 
L 408.365957 306.930731 
L 409.0013 289.572548 
L 409.636643 275.808783 
L 410.271986 266.514788 
L 410.907329 262.249055 
L 411.542672 263.253819 
L 412.178015 269.456764 
L 412.813358 280.476209 
L 413.448701 295.632368 
L 414.719387 334.285882 
L 415.990073 375.250951 
L 416.625416 392.975055 
L 417.260759 407.103278 
L 417.896102 416.686449 
L 418.531445 421.220249 
L 419.166788 420.69557 
L 419.802131 415.566122 
L 420.437474 406.642976 
L 421.708159 381.606479 
L 423.614188 341.824332 
L 424.249531 331.422484 
L 424.884874 323.454564 
L 425.520217 318.289545 
L 426.15556 316.144915 
L 426.790903 317.090936 
L 427.426246 321.055844 
L 428.061589 327.833197 
L 428.696932 337.092502 
L 429.967618 361.211649 
L 432.50899 415.627973 
L 433.779676 436.977848 
L 434.415019 444.867854 
L 435.050362 450.752948 
L 435.685704 454.697022 
L 436.321047 456.880816 
L 436.95639 457.571523 
L 437.591733 457.086031 
L 438.227076 455.759965 
L 439.497762 451.856657 
L 440.768448 448.015223 
L 441.403791 446.573625 
L 442.039134 445.58399 
L 442.674477 445.079021 
L 443.30982 445.04223 
L 443.945163 445.413095 
L 444.580506 446.092562 
L 446.486535 448.553686 
L 447.121878 448.945464 
L 447.757221 448.82134 
L 448.392564 448.009778 
L 449.027907 446.358947 
L 449.66325 443.746258 
L 450.298592 440.087189 
L 450.933935 435.342972 
L 452.204621 422.705085 
L 453.475307 406.597233 
L 456.652022 363.100038 
L 457.287365 356.230925 
L 457.922708 350.676096 
L 458.558051 346.68972 
L 459.193394 344.482725 
L 459.828737 344.214716 
L 460.46408 345.989456 
L 461.099423 349.851355 
L 461.734766 355.779081 
L 462.370109 363.688701 
L 463.640795 384.757712 
L 465.546823 424.509301 
L 466.817509 449.825219 
L 467.452852 459.612804 
L 468.088195 466.130875 
L 468.723538 468.387844 
L 469.358881 465.575768 
L 469.994224 457.224796 
L 470.629567 443.321448 
L 471.26491 424.3536 
L 472.535596 375.332619 
L 474.441625 295.244024 
L 475.712311 253.675314 
L 476.347654 239.653644 
L 476.982997 231.040068 
L 477.61834 228.202557 
L 478.253683 231.265918 
L 478.889026 240.11992 
L 479.524368 254.429921 
L 480.159711 273.644921 
L 481.430397 323.486899 
L 483.336426 407.605375 
L 483.971769 430.888172 
L 484.607112 448.012235 
L 485.242455 456.771757 
L 485.877798 455.573675 
L 486.513141 443.87364 
L 487.148484 422.396684 
L 487.783827 393.017782 
L 490.960542 222.423966 
L 491.595885 200.360105 
L 492.231228 186.039866 
L 492.866571 180.160953 
L 493.501914 182.986763 
L 494.137257 194.362449 
L 494.772599 213.731055 
L 495.407942 240.143792 
L 496.678628 308.279405 
L 497.949314 382.439936 
L 498.584657 414.395585 
L 499.22 438.176107 
L 499.855343 450.422517 
L 500.490686 448.893748 
L 501.126029 433.223692 
L 501.761372 405.120379 
L 503.032058 325.591353 
L 504.302744 241.510813 
L 504.938087 206.240082 
L 505.57343 178.711047 
L 506.208773 160.524931 
L 506.844116 152.664931 
L 507.479459 155.520958 
L 508.114802 168.909611 
L 508.750145 192.090321 
L 509.385487 223.772168 
L 510.656173 304.568681 
L 511.926859 388.377857 
L 512.562202 421.156338 
L 513.197545 441.715497 
L 513.832888 446.525755 
L 514.468231 434.307895 
L 515.103574 406.63169 
L 516.37426 321.412352 
L 517.644946 228.963597 
L 518.280289 190.290053 
L 518.915632 160.452867 
L 519.550975 141.291685 
L 520.186318 133.901726 
L 520.821661 138.666975 
L 521.457004 155.279137 
L 522.092347 182.752159 
L 522.72769 219.418752 
L 525.269061 397.679105 
L 525.904404 427.787137 
L 526.539747 441.978643 
L 527.17509 437.43747 
L 527.810433 414.606509 
L 528.445776 377.063572 
L 530.987148 188.166748 
L 531.622491 154.126216 
L 532.257834 131.231139 
L 532.893177 120.856596 
L 533.52852 123.575975 
L 534.163863 139.182183 
L 534.799206 166.701871 
L 535.434549 204.391945 
L 536.705235 299.177044 
L 537.975921 391.715606 
L 538.611263 423.273969 
L 539.246606 437.681491 
L 539.881949 432.042527 
L 540.517292 407.135383 
L 541.152635 367.116504 
L 543.694007 172.941081 
L 544.32935 139.563614 
L 544.964693 118.126474 
L 545.600036 109.915921 
L 546.235379 115.370474 
L 546.870722 134.102414 
L 547.506065 164.908681 
L 548.776751 253.758627 
L 550.047437 354.526562 
L 550.68278 396.34806 
L 551.318123 424.232989 
L 551.953466 433.196776 
L 552.588809 421.339258 
L 553.224151 390.702233 
L 554.494837 294.88075 
L 555.765523 193.551711 
L 556.400866 152.801375 
L 557.036209 122.824866 
L 557.671552 105.507527 
L 558.306895 101.845287 
L 558.942238 111.980082 
L 559.577581 135.219058 
L 560.212924 170.043535 
L 561.48361 264.089537 
L 562.754296 363.656393 
L 563.389639 401.65114 
L 564.024982 423.722163 
L 564.660325 425.78615 
L 565.295668 407.300649 
L 565.931011 371.529107 
L 567.201697 271.761963 
L 568.472382 173.462782 
L 569.107725 135.816517 
L 569.743068 109.50641 
L 570.378411 96.100391 
L 571.013754 96.306145 
L 571.649097 110.002852 
L 572.28444 136.262954 
L 572.919783 173.361583 
L 574.190469 269.024633 
L 575.461155 365.514862 
L 576.096498 400.323822 
L 576.731841 418.657543 
L 577.367184 417.171523 
L 578.002527 396.032432 
L 578.63787 358.868885 
L 581.814585 127.82807 
L 582.449927 102.648696 
L 583.08527 89.953007 
L 583.720613 90.347439 
L 584.355956 103.664108 
L 584.991299 128.987991 
L 585.626642 164.676327 
L 586.897328 256.854163 
L 588.168014 351.374844 
L 588.803357 387.021866 
L 589.4387 407.908387 
L 590.074043 410.527033 
L 590.709386 394.341205 
L 591.344729 362.026058 
L 592.615415 269.25371 
L 593.886101 173.887025 
L 594.521444 135.369959 
L 595.156787 106.476486 
L 595.79213 88.788806 
L 596.427473 83.137637 
L 597.062815 89.647704 
L 597.698158 107.774086 
L 598.333501 136.335361 
L 599.604187 216.954625 
L 601.510216 350.261988 
L 602.145559 381.245204 
L 602.780902 398.121274 
L 603.416245 398.259583 
L 604.051588 381.576291 
L 604.686931 350.590452 
L 605.957617 263.379499 
L 607.228303 172.938002 
L 607.863646 135.48358 
L 608.498989 106.382414 
L 609.134332 87.100707 
L 609.769675 78.452937 
L 610.405018 80.650788 
L 611.040361 93.344557 
L 611.675703 115.664413 
L 612.311046 146.257131 
L 613.581732 224.540582 
L 614.852418 307.985681 
L 615.487761 343.274624 
L 616.123104 369.31778 
L 616.758447 382.923404 
L 617.39379 382.230759 
L 618.029133 367.288095 
L 618.664476 340.064173 
L 619.935162 262.571931 
L 621.205848 179.058464 
L 621.841191 142.675376 
L 622.476534 112.705167 
L 623.111877 90.52657 
L 623.74722 76.985876 
L 624.382563 72.4443 
L 625.017906 76.821025 
L 625.653249 89.636176 
L 626.288591 110.05478 
L 626.923934 136.926736 
L 628.19462 204.014244 
L 630.100649 308.308009 
L 630.735992 334.488014 
L 631.371335 352.270389 
L 632.006678 359.829844 
L 632.642021 356.320469 
L 633.277364 342.103736 
L 633.912707 318.677292 
L 635.183393 253.738072 
L 637.089422 149.13108 
L 637.724765 120.494083 
L 638.360108 97.198543 
L 638.995451 79.99646 
L 639.630794 69.296361 
L 640.266137 65.198597 
L 640.901479 67.532035 
L 641.536822 75.891431 
L 642.172165 89.676605 
L 642.807508 108.128482 
L 644.078194 155.381556 
L 646.619566 260.63589 
L 647.254909 282.006007 
L 647.890252 298.86985 
L 648.525595 310.158099 
L 649.160938 315.11289 
L 649.796281 313.389792 
L 650.431624 305.121958 
L 651.066967 290.919697 
L 651.70231 271.797028 
L 652.972996 223.778725 
L 654.879025 146.475592 
L 656.14971 103.233785 
L 656.785053 86.039436 
L 657.420396 72.232799 
L 658.055739 61.941569 
L 658.691082 55.156409 
L 659.326425 51.751467 
L 659.961768 51.505689 
L 660.597111 54.12378 
L 661.232454 59.257082 
L 661.867797 66.522542 
L 663.138483 85.841793 
L 665.679855 132.700626 
L 666.950541 154.69829 
L 668.221227 172.781436 
L 668.85657 179.847083 
L 669.491913 185.401934 
L 670.127255 189.355367 
L 670.762598 191.663708 
L 671.397941 192.331396 
L 672.033284 191.410141 
L 672.668627 188.995818 
L 673.30397 185.222775 
L 673.939313 180.256182 
L 675.209999 167.506443 
L 677.116028 144.379478 
L 679.6574 113.74453 
L 680.928086 100.949762 
L 682.198772 90.676847 
L 683.469458 83.164826 
L 684.104801 80.44472 
L 684.740143 78.386091 
L 685.375486 76.951323 
L 686.010829 76.091981 
L 686.646172 75.749974 
L 687.281515 75.859821 
L 687.916858 76.349754 
L 688.552201 77.143342 
L 689.822887 79.323977 
L 691.728916 82.900749 
L 692.999602 84.665358 
L 693.634945 85.194799 
L 694.270288 85.440393 
L 694.905631 85.382299 
L 695.540974 85.01608 
L 696.176317 84.353587 
L 696.81166 83.423699 
L 698.082346 80.964596 
L 699.988374 76.984263 
L 700.623717 76.008459 
L 701.25906 75.422304 
L 701.894403 75.365409 
L 702.529746 75.979065 
L 703.165089 77.401268 
L 703.800432 79.761093 
L 704.435775 83.171924 
L 705.071118 87.724595 
L 705.706461 93.480276 
L 706.977147 108.653854 
L 708.247833 128.319688 
L 710.153862 163.257338 
L 712.059891 197.270838 
L 712.695234 206.540217 
L 713.330577 214.092057 
L 713.965919 219.576379 
L 714.601262 222.723132 
L 715.236605 223.366862 
L 715.871948 221.463756 
L 716.507291 217.099973 
L 717.142634 210.491109 
L 718.41332 191.951926 
L 721.590035 138.39168 
L 722.225378 130.951918 
L 722.860721 125.814293 
L 723.496064 123.375536 
L 724.131407 123.934151 
L 724.76675 127.668948 
L 725.402093 134.619402 
L 726.037436 144.668134 
L 726.672779 157.525208 
L 727.943465 189.597966 
L 729.849493 241.408082 
L 730.484836 255.582774 
L 731.120179 266.466827 
L 731.755522 273.225519 
L 732.390865 275.315355 
L 733.026208 272.562365 
L 733.661551 265.19245 
L 734.296894 253.805038 
L 735.56758 222.793775 
L 737.473609 173.299595 
L 738.108952 160.630446 
L 738.744295 151.477964 
L 739.379638 146.530631 
L 740.014981 146.246399 
L 740.650324 150.824799 
L 741.285667 160.180431 
L 741.92101 173.923934 
L 743.191695 211.435045 
L 745.097724 273.349146 
L 745.733067 289.001475 
L 746.36841 299.52476 
L 747.003753 303.866302 
L 747.639096 301.583264 
L 748.274439 292.93832 
L 748.909782 278.81672 
L 750.180468 240.311019 
L 751.451154 199.923511 
L 752.086497 183.27263 
L 752.72184 170.823664 
L 753.357183 163.568325 
L 753.992526 162.145399 
L 754.627869 166.800862 
L 755.263212 177.366943 
L 755.898555 193.243964 
L 757.169241 236.355907 
L 758.439926 283.053586 
L 759.075269 302.428815 
L 759.710612 316.341204 
L 760.345955 323.204152 
L 760.981298 322.218827 
L 761.616641 313.552435 
L 762.251984 298.295587 
L 763.52267 255.630167 
L 764.793356 211.68334 
L 765.428699 194.377357 
L 766.064042 182.277699 
L 766.699385 176.415666 
L 767.334728 177.343646 
L 767.970071 185.108785 
L 768.605414 199.23884 
L 769.240757 218.734097 
L 771.782129 313.569056 
L 772.417471 329.645518 
L 773.052814 338.231787 
L 773.688157 338.257756 
L 774.3235 329.809115 
L 774.958843 314.068132 
L 776.229529 269.343924 
L 777.500215 223.761613 
L 778.135558 206.309256 
L 778.770901 194.626619 
L 779.406244 189.732526 
L 780.041587 192.095005 
L 780.67693 201.612752 
L 781.312273 217.610293 
L 782.582959 263.50319 
L 783.853645 313.680518 
L 784.488988 333.853199 
L 785.124331 347.419031 
L 785.759674 352.666974 
L 786.395017 348.965958 
L 787.030359 336.970568 
L 787.665702 318.385377 
L 790.207074 228.448602 
L 790.842417 213.822198 
L 791.47776 205.627661 
L 792.113103 204.579034 
L 792.748446 210.814918 
L 793.383789 223.89424 
L 794.019132 242.799192 
L 797.195847 354.832572 
L 797.83119 363.806301 
L 798.466533 364.160589 
L 799.101876 356.042274 
L 799.737219 340.703514 
L 801.007905 297.171167 
L 802.27859 253.172697 
L 802.913933 236.468216 
L 803.549276 225.36557 
L 804.184619 220.784099 
L 804.184619 220.784099 
" clip-path="url(#p18f4998000)" style="fill: none; stroke: #1f77b4; stroke-width: 3; stroke-linecap: square"/>
   </g>
   <g id="line2d_44">
    <path d="M 169.477006 288.367332 
L 170.112349 287.534663 
L 170.747692 285.021315 
L 171.383035 281.016214 
L 172.65372 270.039508 
L 173.924406 258.446202 
L 174.559749 253.687756 
L 175.195092 250.164379 
L 175.830435 248.133473 
L 176.465778 247.704981 
L 177.101121 248.833406 
L 177.736464 251.327447 
L 179.00715 259.012104 
L 180.277836 267.174366 
L 180.913179 270.205321 
L 181.548522 271.989054 
L 182.183865 272.262479 
L 182.819208 270.921873 
L 183.454551 268.031102 
L 184.089894 263.810024 
L 185.36058 252.870836 
L 186.631266 241.680246 
L 187.266608 237.115009 
L 187.901951 233.704588 
L 188.537294 231.664883 
L 189.172637 231.085496 
L 189.80798 231.925267 
L 190.443323 234.018755 
L 191.078666 237.093152 
L 193.620038 251.38635 
L 194.255381 253.422996 
L 194.890724 254.205561 
L 195.526067 253.593177 
L 196.16141 251.573711 
L 196.796753 248.265588 
L 198.067439 238.795621 
L 199.973468 222.81605 
L 200.608811 218.474804 
L 201.244154 215.103788 
L 201.879496 212.871088 
L 202.514839 211.850194 
L 203.150182 212.020095 
L 203.785525 213.269073 
L 204.420868 215.404676 
L 205.691554 221.276197 
L 206.96224 227.206101 
L 207.597583 229.425784 
L 208.232926 230.811141 
L 208.868269 231.188958 
L 209.503612 230.466393 
L 210.138955 228.635876 
L 210.774298 225.772791 
L 211.409641 222.025785 
L 212.680327 212.744665 
L 214.586356 198.18112 
L 215.857042 190.744221 
L 216.492384 188.176243 
L 217.127727 186.461807 
L 217.76307 185.597286 
L 218.398413 185.527741 
L 219.033756 186.152433 
L 219.669099 187.334445 
L 220.939785 190.694224 
L 222.210471 194.149585 
L 222.845814 195.467772 
L 223.481157 196.311828 
L 224.1165 196.567624 
L 224.751843 196.156812 
L 225.387186 195.039919 
L 226.022529 193.215775 
L 226.657872 190.719598 
L 227.928558 184.005187 
L 229.834587 171.253293 
L 231.740615 158.172975 
L 233.011301 150.601154 
L 234.281987 144.476055 
L 235.552673 139.895711 
L 236.823359 136.686073 
L 238.094045 134.479192 
L 241.906103 129.159992 
L 243.176789 126.434268 
L 244.447475 122.802797 
L 245.71816 118.205413 
L 246.988846 112.701718 
L 248.894875 103.103004 
L 254.612962 72.388062 
L 255.883648 66.829294 
L 257.154334 62.25276 
L 258.42502 58.882979 
L 259.060363 57.719547 
L 259.695706 56.93987 
L 260.331048 56.570365 
L 260.966391 56.636554 
L 261.601734 57.162601 
L 262.237077 58.170768 
L 262.87242 59.680662 
L 263.507763 61.708361 
L 264.143106 64.265461 
L 265.413792 70.984818 
L 266.684478 79.79653 
L 267.955164 90.506911 
L 269.861193 109.230959 
L 273.037908 141.328222 
L 274.308594 151.490802 
L 274.943936 155.433151 
L 275.579279 158.446125 
L 276.214622 160.424574 
L 276.849965 161.28858 
L 277.485308 160.988429 
L 278.120651 159.509239 
L 278.755994 156.873699 
L 279.391337 153.1437 
L 280.02668 148.420784 
L 281.297366 136.591437 
L 284.474081 103.417996 
L 285.109424 98.346821 
L 285.744767 94.489286 
L 286.38011 92.130981 
L 287.015453 91.532787 
L 287.650796 92.918063 
L 288.286139 96.459104 
L 288.921482 102.263075 
L 289.556824 110.357742 
L 290.192167 120.677536 
L 291.462853 147.202275 
L 295.274911 239.349055 
L 295.910254 249.313807 
L 296.545597 255.869557 
L 297.18094 258.585482 
L 297.816283 257.266317 
L 298.451626 251.981312 
L 299.086969 243.056998 
L 299.722312 231.048535 
L 300.992998 200.82716 
L 302.899027 153.417761 
L 303.53437 140.64904 
L 304.169712 130.725883 
L 304.805055 124.288958 
L 305.440398 121.83592 
L 306.075741 123.694973 
L 306.711084 129.997576 
L 307.346427 140.65252 
L 307.98177 155.325456 
L 309.252456 194.083795 
L 311.158485 259.141167 
L 311.793828 276.898101 
L 312.429171 290.173059 
L 313.064514 297.779885 
L 313.699857 299.000337 
L 314.3352 293.715595 
L 314.970543 282.426046 
L 315.605886 266.171968 
L 316.876572 224.685593 
L 318.147258 182.235472 
L 318.7826 164.536812 
L 319.417943 150.905551 
L 320.053286 142.317231 
L 320.688629 139.452858 
L 321.323972 142.666603 
L 321.959315 151.956068 
L 322.594658 166.936393 
L 323.230001 186.820911 
L 324.500687 236.11047 
L 325.771373 285.765696 
L 326.406716 305.26654 
L 327.042059 318.422097 
L 327.677402 323.77902 
L 328.312745 320.726384 
L 328.948088 309.630244 
L 329.583431 291.798136 
L 330.854117 244.051518 
L 332.124803 195.446478 
L 332.760146 176.018617 
L 333.395488 161.981511 
L 334.030831 154.435824 
L 334.666174 154.035133 
L 335.301517 160.956164 
L 335.93686 174.875328 
L 336.572203 194.949372 
L 337.842889 247.555896 
L 339.113575 301.96105 
L 339.748918 323.141385 
L 340.384261 336.891422 
L 341.019604 341.498299 
L 341.654947 336.396623 
L 342.29029 322.301565 
L 342.925633 301.08312 
L 345.467005 198.040043 
L 346.102348 180.259275 
L 346.737691 169.305691 
L 347.373034 166.093134 
L 348.008376 170.965553 
L 348.643719 183.679425 
L 349.279062 203.388149 
L 350.549748 257.371619 
L 351.820434 314.518071 
L 352.455777 336.823792 
L 353.09112 351.132658 
L 353.726463 355.562432 
L 354.361806 349.570745 
L 354.997149 334.08064 
L 355.632492 311.293464 
L 358.173864 206.127904 
L 358.809207 189.566628 
L 359.44455 180.500409 
L 360.079893 179.695426 
L 360.715236 187.290954 
L 361.350579 202.78397 
L 361.985922 225.030463 
L 363.256607 282.032275 
L 364.527293 337.386481 
L 365.162636 356.611965 
L 365.797979 366.655961 
L 366.433322 366.201714 
L 367.068665 355.456603 
L 367.704008 336.08194 
L 368.974694 282.645775 
L 370.24538 230.040474 
L 370.880723 210.522793 
L 371.516066 197.909812 
L 372.151409 193.228631 
L 372.786752 196.882509 
L 373.422095 208.642087 
L 374.057438 227.646164 
L 375.328124 280.815306 
L 376.59881 337.660681 
L 377.234152 359.948897 
L 377.869495 374.378081 
L 378.504838 379.115203 
L 379.140181 373.654032 
L 379.775524 358.998343 
L 380.410867 337.292917 
L 382.952239 236.844447 
L 383.587582 220.808887 
L 384.222925 211.745645 
L 384.858268 210.353431 
L 385.493611 216.758343 
L 386.128954 230.512385 
L 386.764297 250.597509 
L 388.034983 302.947938 
L 389.305669 355.623621 
L 389.941012 375.29421 
L 390.576355 387.359022 
L 391.211698 390.467423 
L 391.84704 384.473915 
L 392.482383 370.432965 
L 393.117726 350.324156 
L 395.659098 258.372666 
L 396.294441 243.163486 
L 396.929784 233.949431 
L 397.565127 231.376055 
L 398.20047 235.623003 
L 398.835813 246.405101 
L 399.471156 262.977589 
L 400.741842 308.320592 
L 402.012528 357.603215 
L 402.647871 378.307817 
L 403.283214 393.642291 
L 403.918557 402.140147 
L 404.5539 403.138953 
L 405.189243 396.863139 
L 405.824586 384.356415 
L 407.095271 347.376751 
L 408.365957 306.931097 
L 409.0013 289.572832 
L 409.636643 275.808975 
L 410.271986 266.514881 
L 410.907329 262.249045 
L 411.542672 263.253706 
L 412.178015 269.456554 
L 412.813358 280.475909 
L 413.448701 295.63199 
L 414.719387 334.285402 
L 415.990073 375.250459 
L 416.625416 392.974597 
L 417.260759 407.102877 
L 417.896102 416.686127 
L 418.531445 421.220021 
L 419.166788 420.695445 
L 419.802131 415.5661 
L 420.437474 406.643052 
L 421.708159 381.60672 
L 423.614188 341.824722 
L 424.249531 331.422897 
L 424.884874 323.45499 
L 425.520217 318.289973 
L 426.15556 316.145335 
L 426.790903 317.091337 
L 427.426246 321.056218 
L 428.061589 327.833536 
L 428.696932 337.092799 
L 429.967618 361.211843 
L 432.50899 415.627934 
L 433.779676 436.977706 
L 434.415019 444.867671 
L 435.050362 450.752729 
L 435.685704 454.696775 
L 436.321047 456.880547 
L 436.95639 457.571238 
L 437.591733 457.085735 
L 438.227076 455.759662 
L 439.497762 451.856348 
L 440.768448 448.014911 
L 441.403791 446.573312 
L 442.039134 445.583677 
L 442.674477 445.078708 
L 443.30982 445.041918 
L 443.945163 445.412783 
L 444.580506 446.092253 
L 446.486535 448.553397 
L 447.121878 448.945189 
L 447.757221 448.821083 
L 448.392564 448.009545 
L 449.027907 446.358743 
L 449.66325 443.746091 
L 450.298592 440.087065 
L 450.933935 435.342898 
L 452.204621 422.70513 
L 453.475307 406.597419 
L 456.652022 363.100612 
L 457.287365 356.231572 
L 457.922708 350.676813 
L 458.558051 346.690502 
L 459.193394 344.483568 
L 459.828737 344.215615 
L 460.46408 345.990404 
L 461.099423 349.852349 
L 461.734766 355.780114 
L 462.370109 363.689768 
L 463.640795 384.758825 
L 465.546823 424.510388 
L 466.817509 449.826166 
L 467.452852 459.613623 
L 468.088195 466.13152 
L 468.723538 468.388266 
L 469.358881 465.575923 
L 469.994224 457.224648 
L 470.629567 443.320978 
L 471.26491 424.352807 
L 472.535596 375.331248 
L 474.441625 295.242111 
L 475.712311 253.673287 
L 476.347654 239.65163 
L 476.982997 231.038107 
L 477.61834 228.200686 
L 478.253683 231.26417 
L 478.889026 240.118325 
L 479.524368 254.428508 
L 480.159711 273.643717 
L 481.430397 323.486189 
L 483.336426 407.605588 
L 483.971769 430.888719 
L 484.607112 448.013101 
L 485.242455 456.772896 
L 485.877798 455.57501 
L 486.513141 443.875068 
L 487.148484 422.398091 
L 487.783827 393.019059 
L 490.960542 222.423706 
L 491.595885 200.359494 
L 492.231228 186.038921 
L 492.866571 180.159698 
L 493.501914 182.985232 
L 494.137257 194.360682 
L 494.772599 213.729101 
L 495.407942 240.141706 
L 496.678628 308.277268 
L 497.949314 382.438138 
L 498.584657 414.394144 
L 499.22 438.175158 
L 499.855343 450.422171 
L 500.490686 448.894061 
L 501.126029 433.224648 
L 501.761372 405.12189 
L 503.032058 325.593565 
L 504.302744 241.513179 
L 504.938087 206.242363 
L 505.57343 178.713161 
L 506.208773 160.52681 
L 506.844116 152.666522 
L 507.479459 155.522221 
L 508.114802 168.910516 
L 508.750145 192.090848 
L 509.385487 223.772307 
L 510.656173 304.568055 
L 511.926859 388.376605 
L 512.562202 421.154907 
L 513.197545 441.714032 
L 513.832888 446.524431 
L 514.468231 434.306879 
L 515.103574 406.631106 
L 516.37426 321.412767 
L 517.644946 228.964916 
L 518.280289 190.291744 
L 518.915632 160.454868 
L 519.550975 141.293934 
L 520.186318 133.904155 
L 520.821661 138.669514 
L 521.457004 155.281714 
L 522.092347 182.754692 
L 522.72769 219.421153 
L 525.269061 397.679847 
L 525.904404 427.787182 
L 526.539747 441.977969 
L 527.17509 437.436153 
L 527.810433 414.60472 
L 528.445776 377.061526 
L 530.987148 188.165373 
L 531.622491 154.125245 
L 532.257834 131.230612 
L 532.893177 120.856531 
L 533.52852 123.576373 
L 534.163863 139.183028 
L 534.799206 166.70313 
L 535.434549 204.393566 
L 536.705235 299.17913 
L 537.975921 391.717566 
L 538.611263 423.275547 
L 539.246606 437.68247 
L 539.881949 432.042761 
L 540.517292 407.134836 
L 541.152635 367.115245 
L 543.694007 172.938371 
L 544.32935 139.560855 
L 544.964693 118.123761 
L 545.600036 109.913338 
L 546.235379 115.368097 
L 546.870722 134.100311 
L 547.506065 164.906917 
L 548.776751 253.75772 
L 550.047437 354.526707 
L 550.68278 396.348741 
L 551.318123 424.234132 
L 551.953466 433.198231 
L 552.588809 421.340818 
L 553.224151 390.703683 
L 554.494837 294.881525 
L 555.765523 193.551558 
L 556.400866 152.800748 
L 557.036209 122.823785 
L 557.671552 105.506022 
L 558.306895 101.843403 
L 558.942238 111.977875 
L 559.577581 135.2166 
L 560.212924 170.040913 
L 561.48361 264.086934 
L 562.754296 363.65447 
L 563.389639 401.649862 
L 564.024982 423.7217 
L 564.660325 425.786576 
L 565.295668 407.301904 
L 565.931011 371.531024 
L 567.201697 271.764564 
L 568.472382 173.465355 
L 569.107725 135.818894 
L 569.743068 109.508505 
L 570.378411 96.102137 
L 571.013754 96.307493 
L 571.649097 110.003767 
L 572.28444 136.263415 
L 572.919783 173.361583 
L 574.190469 269.023755 
L 575.461155 365.513349 
L 576.096498 400.322195 
L 576.731841 418.656002 
L 577.367184 417.170275 
L 578.002527 396.031643 
L 578.63787 358.868648 
L 581.814585 127.8302 
L 582.449927 102.651107 
L 583.08527 89.955631 
L 583.720613 90.350202 
L 584.355956 103.666935 
L 584.991299 128.9908 
L 585.626642 164.679029 
L 586.897328 256.856337 
L 588.168014 351.375988 
L 588.803357 387.022312 
L 589.4387 407.908075 
L 590.074043 410.525995 
L 590.709386 394.339568 
L 591.344729 362.024016 
L 592.615415 269.251454 
L 593.886101 173.885137 
L 594.521444 135.368387 
L 595.156787 106.475282 
L 595.79213 88.788005 
L 596.427473 83.137259 
L 597.062815 89.647751 
L 597.698158 107.774548 
L 598.333501 136.336217 
L 599.604187 216.956143 
L 601.510216 350.263868 
L 602.145559 381.246919 
L 602.780902 398.122647 
L 603.416245 398.260459 
L 604.051588 381.576574 
L 604.686931 350.590116 
L 605.957617 263.378064 
L 607.228303 172.935799 
L 607.863646 135.481118 
L 608.498989 106.379768 
L 609.134332 87.097947 
L 609.769675 78.450127 
L 610.405018 80.64799 
L 611.040361 93.341831 
L 611.675703 115.661818 
L 612.311046 146.254727 
L 613.581732 224.538754 
L 614.852418 307.984714 
L 615.487761 343.27419 
L 616.123104 369.31792 
L 616.758447 382.924114 
L 617.39379 382.231981 
L 618.029133 367.289719 
L 618.664476 340.066061 
L 619.935162 262.573932 
L 621.205848 179.060162 
L 621.841191 142.676825 
L 622.476534 112.706326 
L 623.111877 90.527412 
L 623.74722 76.986387 
L 624.382563 72.444475 
L 625.017906 76.820868 
L 625.653249 89.635699 
L 626.288591 110.054 
L 626.923934 136.925679 
L 628.19462 204.012736 
L 630.100649 308.306229 
L 630.735992 334.486307 
L 631.371335 352.268856 
L 632.006678 359.828587 
L 632.642021 356.319575 
L 633.277364 342.103268 
L 633.912707 318.677279 
L 635.183393 253.738941 
L 637.089422 149.132974 
L 637.724765 120.49622 
L 638.360108 97.200876 
L 638.995451 79.998943 
L 639.630794 69.298952 
L 640.266137 65.201254 
L 640.901479 67.534721 
L 641.536822 75.894109 
L 642.172165 89.679242 
L 642.807508 108.131044 
L 644.078194 155.383872 
L 646.619566 260.637296 
L 647.254909 282.007089 
L 647.890252 298.870572 
L 648.525595 310.158434 
L 649.160938 315.112819 
L 649.796281 313.389314 
L 650.431624 305.121085 
L 651.066967 290.91846 
L 651.70231 271.795469 
L 652.972996 223.77667 
L 654.879025 146.473165 
L 656.14971 103.23131 
L 656.785053 86.036981 
L 657.420396 72.230386 
L 658.055739 61.939217 
L 658.691082 55.154131 
L 659.326425 51.749273 
L 659.961768 51.503585 
L 660.597111 54.121769 
L 661.232454 59.255166 
L 661.867797 66.52072 
L 663.138483 85.840154 
L 665.679855 132.699314 
L 666.950541 154.69713 
L 668.221227 172.780428 
L 668.85657 179.846153 
L 669.491913 185.401086 
L 670.127255 189.354603 
L 670.762598 191.663033 
L 671.397941 192.330815 
L 672.033284 191.409656 
L 672.668627 188.995433 
L 673.30397 185.222493 
L 673.939313 180.256005 
L 675.209999 167.506478 
L 677.116028 144.379823 
L 679.6574 113.745237 
L 680.928086 100.95062 
L 682.198772 90.677832 
L 683.469458 83.165916 
L 684.104801 80.445856 
L 684.740143 78.387268 
L 685.375486 76.952536 
L 686.010829 76.093227 
L 686.646172 75.75125 
L 687.281515 75.861123 
L 687.916858 76.351081 
L 688.552201 77.144692 
L 689.822887 79.32537 
L 691.728916 82.902201 
L 692.999602 84.66685 
L 693.634945 85.196311 
L 694.270288 85.441925 
L 694.905631 85.383851 
L 695.540974 85.017652 
L 696.176317 84.35518 
L 696.81166 83.42531 
L 698.082346 80.966239 
L 699.988374 76.985928 
L 700.623717 76.01012 
L 701.25906 75.423954 
L 701.894403 75.367039 
L 702.529746 75.980666 
L 703.165089 77.402827 
L 703.800432 79.762599 
L 704.435775 83.173362 
L 705.071118 87.72595 
L 705.706461 93.481533 
L 706.977147 108.654864 
L 708.247833 128.320384 
L 710.153862 163.257452 
L 712.059891 197.270297 
L 712.695234 206.53946 
L 713.330577 214.091094 
L 713.965919 219.575225 
L 714.601262 222.721807 
L 715.236605 223.365392 
L 715.871948 221.462172 
L 716.507291 217.098306 
L 717.142634 210.489394 
L 718.41332 191.950219 
L 721.590035 138.390564 
L 722.225378 130.951004 
L 722.860721 125.813604 
L 723.496064 123.37509 
L 724.131407 123.933964 
L 724.76675 127.66903 
L 725.402093 134.619759 
L 726.037436 144.668764 
L 726.672779 157.526104 
L 727.943465 189.599332 
L 729.849493 241.409847 
L 730.484836 255.584549 
L 731.120179 266.468537 
L 731.755522 273.227088 
L 732.390865 275.316709 
L 733.026208 272.563441 
L 733.661551 265.193196 
L 734.296894 253.805418 
L 735.56758 222.793381 
L 737.473609 173.298136 
L 738.108952 160.628697 
L 738.744295 151.47597 
L 739.379638 146.528443 
L 740.014981 146.244075 
L 740.650324 150.822404 
L 741.285667 160.178036 
L 741.92101 173.921613 
L 743.191695 211.43312 
L 745.097724 273.348409 
L 745.733067 289.001251 
L 746.36841 299.525065 
L 747.003753 303.867117 
L 747.639096 301.584536 
L 748.274439 292.939965 
L 748.909782 278.818632 
L 750.180468 240.313121 
L 751.451154 199.925379 
L 752.086497 183.27425 
L 752.72184 170.824969 
L 753.357183 163.569259 
L 753.992526 162.145924 
L 754.627869 166.800955 
L 755.263212 177.366595 
L 755.898555 193.243187 
L 757.169241 236.354389 
L 758.439926 283.051652 
L 759.075269 302.426858 
L 759.710612 316.339372 
L 760.345955 323.202593 
L 760.981298 322.217669 
L 761.616641 313.551775 
L 762.251984 298.295475 
L 763.52267 255.631141 
L 764.793356 211.685178 
L 765.428699 194.379501 
L 766.064042 182.280052 
L 766.699385 176.418128 
L 767.334728 177.34611 
L 767.970071 185.111147 
L 768.605414 199.240993 
L 769.240757 218.735935 
L 771.782129 313.568835 
L 772.417471 329.644724 
L 773.052814 338.23049 
L 773.688157 338.256077 
L 774.3235 329.807211 
L 774.958843 314.066175 
L 776.229529 269.342324 
L 777.500215 223.7608 
L 778.135558 206.308922 
L 778.770901 194.626783 
L 779.406244 189.733181 
L 780.041587 192.096123 
L 780.67693 201.61428 
L 781.312273 217.612155 
L 782.582959 263.505396 
L 783.853645 313.682484 
L 784.488988 333.854799 
L 785.124331 347.420116 
L 785.759674 352.667438 
L 786.395017 348.965758 
L 787.030359 336.969725 
L 787.665702 318.383971 
L 790.207074 228.446268 
L 790.842417 213.819968 
L 791.47776 205.625648 
L 792.113103 204.577336 
L 792.748446 210.813618 
L 793.383789 223.893399 
L 794.019132 242.798855 
L 797.195847 354.83429 
L 797.83119 363.808073 
L 798.466533 364.162235 
L 799.101876 356.043632 
L 799.737219 340.704456 
L 801.007905 297.171085 
L 802.27859 253.171611 
L 802.913933 236.466708 
L 803.549276 225.363718 
L 804.184619 220.781992 
L 804.184619 220.781992 
" clip-path="url(#p18f4998000)" style="fill: none; stroke-dasharray: 11.1,4.8; stroke-dashoffset: 0; stroke: #ff7f0e; stroke-width: 3"/>
   </g>
   <g id="patch_3">
    <path d="M 137.741625 489.2325 
L 137.741625 30.659351 
" style="fill: none; stroke: #000000; stroke-width: 2; stroke-linejoin: miter; stroke-linecap: square"/>
   </g>
   <g id="patch_4">
    <path d="M 835.92 489.2325 
L 835.92 30.659351 
" style="fill: none; stroke: #000000; stroke-width: 2; stroke-linejoin: miter; stroke-linecap: square"/>
   </g>
   <g id="patch_5">
    <path d="M 137.741625 489.2325 
L 835.92 489.2325 
" style="fill: none; stroke: #000000; stroke-width: 2; stroke-linejoin: miter; stroke-linecap: square"/>
   </g>
   <g id="patch_6">
    <path d="M 137.741625 30.659351 
L 835.92 30.659351 
" style="fill: none; stroke: #000000; stroke-width: 2; stroke-linejoin: miter; stroke-linecap: square"/>
   </g>
  </g>
 </g>
 <defs>
  <clipPath id="p18f4998000">
   <rect x="137.741625" y="30.659351" width="698.178375" height="458.573149"/>
  </clipPath>
 </defs>
</svg>
