<?xml version="1.0" encoding="utf-8" standalone="no"?>
<!DOCTYPE svg PUBLIC "-//W3C//DTD SVG 1.1//EN"
  "http://www.w3.org/Graphics/SVG/1.1/DTD/svg11.dtd">
<svg xmlns:xlink="http://www.w3.org/1999/xlink" width="720pt" height="504pt" viewBox="0 0 720 504" xmlns="http://www.w3.org/2000/svg" version="1.1">
 <metadata>
  <rdf:RDF xmlns:dc="http://purl.org/dc/elements/1.1/" xmlns:cc="http://creativecommons.org/ns#" xmlns:rdf="http://www.w3.org/1999/02/22-rdf-syntax-ns#">
   <cc:Work>
    <dc:type rdf:resource="http://purl.org/dc/dcmitype/StillImage"/>
    <dc:date>2025-06-03T09:02:26.493709</dc:date>
    <dc:format>image/svg+xml</dc:format>
    <dc:creator>
     <cc:Agent>
      <dc:title>Matplotlib v3.7.2, https://matplotlib.org/</dc:title>
     </cc:Agent>
    </dc:creator>
   </cc:Work>
  </rdf:RDF>
 </metadata>
 <defs>
  <style type="text/css">*{stroke-linejoin: round; stroke-linecap: butt}</style>
 </defs>
 <g id="figure_1">
  <g id="patch_1">
   <path d="M 0 504 
L 720 504 
L 720 0 
L 0 0 
z
" style="fill: #ffffff"/>
  </g>
  <g id="axes_1">
   <g id="patch_2">
    <path d="M 120.09 417.2325 
L 415.35 417.2325 
L 415.35 28.08 
L 120.09 28.08 
z
" style="fill: #ffffff"/>
   </g>
   <g id="matplotlib.axis_1">
    <g id="xtick_1">
     <g id="line2d_1">
      <path d="M 133.510909 417.2325 
L 133.510909 28.08 
" clip-path="url(#p102c0804c1)" style="fill: none; stroke-dasharray: 3.7,1.6; stroke-dashoffset: 0; stroke: #b0b0b0; stroke-opacity: 0.5"/>
     </g>
     <g id="line2d_2">
      <defs>
       <path id="m618077dd1c" d="M 0 0 
L 0 -10 
" style="stroke: #000000; stroke-width: 2"/>
      </defs>
      <g>
       <use xlink:href="#m618077dd1c" x="133.510909" y="417.2325" style="stroke: #000000; stroke-width: 2"/>
      </g>
     </g>
     <g id="line2d_3">
      <defs>
       <path id="me7df488a71" d="M 0 0 
L 0 10 
" style="stroke: #000000; stroke-width: 2"/>
      </defs>
      <g>
       <use xlink:href="#me7df488a71" x="133.510909" y="28.08" style="stroke: #000000; stroke-width: 2"/>
      </g>
     </g>
     <g id="text_1">
      <!-- 0 -->
      <g transform="translate(125.239659 440.488438) scale(0.26 -0.26)">
       <defs>
        <path id="DejaVuSerif-30" d="M 2034 219 
Q 2513 219 2750 744 
Q 2988 1269 2988 2328 
Q 2988 3391 2750 3916 
Q 2513 4441 2034 4441 
Q 1556 4441 1318 3916 
Q 1081 3391 1081 2328 
Q 1081 1269 1318 744 
Q 1556 219 2034 219 
z
M 2034 -91 
Q 1275 -91 848 546 
Q 422 1184 422 2328 
Q 422 3475 848 4112 
Q 1275 4750 2034 4750 
Q 2797 4750 3222 4112 
Q 3647 3475 3647 2328 
Q 3647 1184 3222 546 
Q 2797 -91 2034 -91 
z
" transform="scale(0.015625)"/>
       </defs>
       <use xlink:href="#DejaVuSerif-30"/>
      </g>
     </g>
    </g>
    <g id="xtick_2">
     <g id="line2d_4">
      <path d="M 240.878182 417.2325 
L 240.878182 28.08 
" clip-path="url(#p102c0804c1)" style="fill: none; stroke-dasharray: 3.7,1.6; stroke-dashoffset: 0; stroke: #b0b0b0; stroke-opacity: 0.5"/>
     </g>
     <g id="line2d_5">
      <g>
       <use xlink:href="#m618077dd1c" x="240.878182" y="417.2325" style="stroke: #000000; stroke-width: 2"/>
      </g>
     </g>
     <g id="line2d_6">
      <g>
       <use xlink:href="#me7df488a71" x="240.878182" y="28.08" style="stroke: #000000; stroke-width: 2"/>
      </g>
     </g>
     <g id="text_2">
      <!-- 10000 -->
      <g transform="translate(199.521932 440.488438) scale(0.26 -0.26)">
       <defs>
        <path id="DejaVuSerif-31" d="M 909 0 
L 909 331 
L 1722 331 
L 1722 4213 
L 781 3603 
L 781 4013 
L 1919 4750 
L 2350 4750 
L 2350 331 
L 3163 331 
L 3163 0 
L 909 0 
z
" transform="scale(0.015625)"/>
       </defs>
       <use xlink:href="#DejaVuSerif-31"/>
       <use xlink:href="#DejaVuSerif-30" x="63.623047"/>
       <use xlink:href="#DejaVuSerif-30" x="127.246094"/>
       <use xlink:href="#DejaVuSerif-30" x="190.869141"/>
       <use xlink:href="#DejaVuSerif-30" x="254.492188"/>
      </g>
     </g>
    </g>
    <g id="xtick_3">
     <g id="line2d_7">
      <path d="M 348.245455 417.2325 
L 348.245455 28.08 
" clip-path="url(#p102c0804c1)" style="fill: none; stroke-dasharray: 3.7,1.6; stroke-dashoffset: 0; stroke: #b0b0b0; stroke-opacity: 0.5"/>
     </g>
     <g id="line2d_8">
      <g>
       <use xlink:href="#m618077dd1c" x="348.245455" y="417.2325" style="stroke: #000000; stroke-width: 2"/>
      </g>
     </g>
     <g id="line2d_9">
      <g>
       <use xlink:href="#me7df488a71" x="348.245455" y="28.08" style="stroke: #000000; stroke-width: 2"/>
      </g>
     </g>
     <g id="text_3">
      <!-- 20000 -->
      <g transform="translate(306.889205 440.488438) scale(0.26 -0.26)">
       <defs>
        <path id="DejaVuSerif-32" d="M 819 3553 
L 469 3553 
L 469 4384 
Q 803 4563 1142 4656 
Q 1481 4750 1806 4750 
Q 2534 4750 2956 4397 
Q 3378 4044 3378 3438 
Q 3378 2753 2422 1800 
Q 2347 1728 2309 1691 
L 1131 513 
L 3078 513 
L 3078 1088 
L 3444 1088 
L 3444 0 
L 434 0 
L 434 341 
L 1850 1753 
Q 2319 2222 2519 2614 
Q 2719 3006 2719 3438 
Q 2719 3909 2473 4175 
Q 2228 4441 1797 4441 
Q 1350 4441 1106 4219 
Q 863 3997 819 3553 
z
" transform="scale(0.015625)"/>
       </defs>
       <use xlink:href="#DejaVuSerif-32"/>
       <use xlink:href="#DejaVuSerif-30" x="63.623047"/>
       <use xlink:href="#DejaVuSerif-30" x="127.246094"/>
       <use xlink:href="#DejaVuSerif-30" x="190.869141"/>
       <use xlink:href="#DejaVuSerif-30" x="254.492188"/>
      </g>
     </g>
    </g>
    <g id="text_4">
     <!-- $t$ (a.u.) -->
     <g transform="translate(224.3 469.651563) scale(0.26 -0.26)">
      <defs>
       <path id="Cmmi10-74" d="M 397 519 
Q 397 613 416 697 
L 878 2534 
L 206 2534 
Q 141 2534 141 2619 
Q 166 2759 225 2759 
L 934 2759 
L 1191 3803 
Q 1216 3888 1291 3947 
Q 1366 4006 1459 4006 
Q 1541 4006 1595 3957 
Q 1650 3909 1650 3828 
Q 1650 3809 1648 3798 
Q 1647 3788 1644 3775 
L 1388 2759 
L 2047 2759 
Q 2113 2759 2113 2675 
Q 2109 2659 2100 2621 
Q 2091 2584 2075 2559 
Q 2059 2534 2028 2534 
L 1331 2534 
L 872 684 
Q 825 503 825 372 
Q 825 97 1013 97 
Q 1294 97 1511 361 
Q 1728 625 1844 941 
Q 1869 978 1894 978 
L 1972 978 
Q 1997 978 2012 961 
Q 2028 944 2028 922 
Q 2028 909 2022 903 
Q 1881 516 1612 222 
Q 1344 -72 997 -72 
Q 744 -72 570 93 
Q 397 259 397 519 
z
" transform="scale(0.015625)"/>
       <path id="DejaVuSerif-20" transform="scale(0.015625)"/>
       <path id="DejaVuSerif-28" d="M 2041 -997 
Q 1281 -656 893 83 
Q 506 822 506 1931 
Q 506 3044 893 3783 
Q 1281 4522 2041 4863 
L 2041 4556 
Q 1559 4225 1350 3623 
Q 1141 3022 1141 1931 
Q 1141 844 1350 242 
Q 1559 -359 2041 -691 
L 2041 -997 
z
" transform="scale(0.015625)"/>
       <path id="DejaVuSerif-61" d="M 2547 1044 
L 2547 1747 
L 1806 1747 
Q 1378 1747 1168 1562 
Q 959 1378 959 997 
Q 959 650 1171 447 
Q 1384 244 1747 244 
Q 2106 244 2326 466 
Q 2547 688 2547 1044 
z
M 3122 2075 
L 3122 331 
L 3634 331 
L 3634 0 
L 2547 0 
L 2547 359 
Q 2356 128 2106 18 
Q 1856 -91 1522 -91 
Q 969 -91 644 203 
Q 319 497 319 997 
Q 319 1513 691 1797 
Q 1063 2081 1741 2081 
L 2547 2081 
L 2547 2309 
Q 2547 2688 2317 2895 
Q 2088 3103 1672 3103 
Q 1328 3103 1125 2947 
Q 922 2791 872 2484 
L 575 2484 
L 575 3156 
Q 875 3284 1158 3348 
Q 1441 3413 1709 3413 
Q 2400 3413 2761 3070 
Q 3122 2728 3122 2075 
z
" transform="scale(0.015625)"/>
       <path id="DejaVuSerif-2e" d="M 603 325 
Q 603 500 722 622 
Q 841 744 1019 744 
Q 1191 744 1312 622 
Q 1434 500 1434 325 
Q 1434 153 1312 31 
Q 1191 -91 1019 -91 
Q 841 -91 722 29 
Q 603 150 603 325 
z
" transform="scale(0.015625)"/>
       <path id="DejaVuSerif-75" d="M 2266 3322 
L 3341 3322 
L 3341 331 
L 3884 331 
L 3884 0 
L 2766 0 
L 2766 588 
Q 2606 256 2353 82 
Q 2100 -91 1766 -91 
Q 1213 -91 952 223 
Q 691 538 691 1209 
L 691 2988 
L 172 2988 
L 172 3322 
L 1269 3322 
L 1269 1388 
Q 1269 781 1417 556 
Q 1566 331 1947 331 
Q 2347 331 2556 625 
Q 2766 919 2766 1478 
L 2766 2988 
L 2266 2988 
L 2266 3322 
z
" transform="scale(0.015625)"/>
       <path id="DejaVuSerif-29" d="M 453 -997 
L 453 -691 
Q 934 -359 1145 242 
Q 1356 844 1356 1931 
Q 1356 3022 1145 3623 
Q 934 4225 453 4556 
L 453 4863 
Q 1216 4522 1603 3783 
Q 1991 3044 1991 1931 
Q 1991 822 1603 83 
Q 1216 -656 453 -997 
z
" transform="scale(0.015625)"/>
      </defs>
      <use xlink:href="#Cmmi10-74" transform="translate(0 0.015625)"/>
      <use xlink:href="#DejaVuSerif-20" transform="translate(36.083984 0.015625)"/>
      <use xlink:href="#DejaVuSerif-28" transform="translate(67.871094 0.015625)"/>
      <use xlink:href="#DejaVuSerif-61" transform="translate(106.884766 0.015625)"/>
      <use xlink:href="#DejaVuSerif-2e" transform="translate(166.503906 0.015625)"/>
      <use xlink:href="#DejaVuSerif-75" transform="translate(198.291016 0.015625)"/>
      <use xlink:href="#DejaVuSerif-2e" transform="translate(262.695312 0.015625)"/>
      <use xlink:href="#DejaVuSerif-29" transform="translate(294.482422 0.015625)"/>
     </g>
    </g>
   </g>
   <g id="matplotlib.axis_2">
    <g id="ytick_1">
     <g id="line2d_10">
      <path d="M 120.09 403.635117 
L 415.35 403.635117 
" clip-path="url(#p102c0804c1)" style="fill: none; stroke-dasharray: 3.7,1.6; stroke-dashoffset: 0; stroke: #b0b0b0; stroke-opacity: 0.5"/>
     </g>
     <g id="line2d_11">
      <defs>
       <path id="m6d15aa6455" d="M 0 0 
L 10 0 
" style="stroke: #000000; stroke-width: 2"/>
      </defs>
      <g>
       <use xlink:href="#m6d15aa6455" x="120.09" y="403.635117" style="stroke: #000000; stroke-width: 2"/>
      </g>
     </g>
     <g id="line2d_12">
      <defs>
       <path id="m93b3d4efbe" d="M 0 0 
L -10 0 
" style="stroke: #000000; stroke-width: 2"/>
      </defs>
      <g>
       <use xlink:href="#m93b3d4efbe" x="415.35" y="403.635117" style="stroke: #000000; stroke-width: 2"/>
      </g>
     </g>
     <g id="text_5">
      <!-- −20 -->
      <g transform="translate(61.717813 413.513086) scale(0.26 -0.26)">
       <defs>
        <path id="DejaVuSerif-2212" d="M 678 2259 
L 4684 2259 
L 4684 1753 
L 678 1753 
L 678 2259 
z
" transform="scale(0.015625)"/>
       </defs>
       <use xlink:href="#DejaVuSerif-2212"/>
       <use xlink:href="#DejaVuSerif-32" x="83.789062"/>
       <use xlink:href="#DejaVuSerif-30" x="147.412109"/>
      </g>
     </g>
    </g>
    <g id="ytick_2">
     <g id="line2d_13">
      <path d="M 120.09 340.068165 
L 415.35 340.068165 
" clip-path="url(#p102c0804c1)" style="fill: none; stroke-dasharray: 3.7,1.6; stroke-dashoffset: 0; stroke: #b0b0b0; stroke-opacity: 0.5"/>
     </g>
     <g id="line2d_14">
      <g>
       <use xlink:href="#m6d15aa6455" x="120.09" y="340.068165" style="stroke: #000000; stroke-width: 2"/>
      </g>
     </g>
     <g id="line2d_15">
      <g>
       <use xlink:href="#m93b3d4efbe" x="415.35" y="340.068165" style="stroke: #000000; stroke-width: 2"/>
      </g>
     </g>
     <g id="text_6">
      <!-- −15 -->
      <g transform="translate(61.717813 349.946133) scale(0.26 -0.26)">
       <defs>
        <path id="DejaVuSerif-35" d="M 3219 4666 
L 3219 4153 
L 1081 4153 
L 1081 2816 
Q 1244 2928 1461 2984 
Q 1678 3041 1947 3041 
Q 2703 3041 3140 2622 
Q 3578 2203 3578 1478 
Q 3578 738 3136 323 
Q 2694 -91 1894 -91 
Q 1572 -91 1234 -12 
Q 897 66 544 225 
L 544 1131 
L 897 1131 
Q 925 688 1179 453 
Q 1434 219 1894 219 
Q 2388 219 2653 544 
Q 2919 869 2919 1478 
Q 2919 2084 2655 2407 
Q 2391 2731 1894 2731 
Q 1613 2731 1398 2631 
Q 1184 2531 1019 2322 
L 750 2322 
L 750 4666 
L 3219 4666 
z
" transform="scale(0.015625)"/>
       </defs>
       <use xlink:href="#DejaVuSerif-2212"/>
       <use xlink:href="#DejaVuSerif-31" x="83.789062"/>
       <use xlink:href="#DejaVuSerif-35" x="147.412109"/>
      </g>
     </g>
    </g>
    <g id="ytick_3">
     <g id="line2d_16">
      <path d="M 120.09 276.501212 
L 415.35 276.501212 
" clip-path="url(#p102c0804c1)" style="fill: none; stroke-dasharray: 3.7,1.6; stroke-dashoffset: 0; stroke: #b0b0b0; stroke-opacity: 0.5"/>
     </g>
     <g id="line2d_17">
      <g>
       <use xlink:href="#m6d15aa6455" x="120.09" y="276.501212" style="stroke: #000000; stroke-width: 2"/>
      </g>
     </g>
     <g id="line2d_18">
      <g>
       <use xlink:href="#m93b3d4efbe" x="415.35" y="276.501212" style="stroke: #000000; stroke-width: 2"/>
      </g>
     </g>
     <g id="text_7">
      <!-- −10 -->
      <g transform="translate(61.717813 286.379181) scale(0.26 -0.26)">
       <use xlink:href="#DejaVuSerif-2212"/>
       <use xlink:href="#DejaVuSerif-31" x="83.789062"/>
       <use xlink:href="#DejaVuSerif-30" x="147.412109"/>
      </g>
     </g>
    </g>
    <g id="ytick_4">
     <g id="line2d_19">
      <path d="M 120.09 212.93426 
L 415.35 212.93426 
" clip-path="url(#p102c0804c1)" style="fill: none; stroke-dasharray: 3.7,1.6; stroke-dashoffset: 0; stroke: #b0b0b0; stroke-opacity: 0.5"/>
     </g>
     <g id="line2d_20">
      <g>
       <use xlink:href="#m6d15aa6455" x="120.09" y="212.93426" style="stroke: #000000; stroke-width: 2"/>
      </g>
     </g>
     <g id="line2d_21">
      <g>
       <use xlink:href="#m93b3d4efbe" x="415.35" y="212.93426" style="stroke: #000000; stroke-width: 2"/>
      </g>
     </g>
     <g id="text_8">
      <!-- −5 -->
      <g transform="translate(78.260313 222.812228) scale(0.26 -0.26)">
       <use xlink:href="#DejaVuSerif-2212"/>
       <use xlink:href="#DejaVuSerif-35" x="83.789062"/>
      </g>
     </g>
    </g>
    <g id="ytick_5">
     <g id="line2d_22">
      <path d="M 120.09 149.367307 
L 415.35 149.367307 
" clip-path="url(#p102c0804c1)" style="fill: none; stroke-dasharray: 3.7,1.6; stroke-dashoffset: 0; stroke: #b0b0b0; stroke-opacity: 0.5"/>
     </g>
     <g id="line2d_23">
      <g>
       <use xlink:href="#m6d15aa6455" x="120.09" y="149.367307" style="stroke: #000000; stroke-width: 2"/>
      </g>
     </g>
     <g id="line2d_24">
      <g>
       <use xlink:href="#m93b3d4efbe" x="415.35" y="149.367307" style="stroke: #000000; stroke-width: 2"/>
      </g>
     </g>
     <g id="text_9">
      <!-- 0 -->
      <g transform="translate(100.0475 159.245276) scale(0.26 -0.26)">
       <use xlink:href="#DejaVuSerif-30"/>
      </g>
     </g>
    </g>
    <g id="ytick_6">
     <g id="line2d_25">
      <path d="M 120.09 85.800355 
L 415.35 85.800355 
" clip-path="url(#p102c0804c1)" style="fill: none; stroke-dasharray: 3.7,1.6; stroke-dashoffset: 0; stroke: #b0b0b0; stroke-opacity: 0.5"/>
     </g>
     <g id="line2d_26">
      <g>
       <use xlink:href="#m6d15aa6455" x="120.09" y="85.800355" style="stroke: #000000; stroke-width: 2"/>
      </g>
     </g>
     <g id="line2d_27">
      <g>
       <use xlink:href="#m93b3d4efbe" x="415.35" y="85.800355" style="stroke: #000000; stroke-width: 2"/>
      </g>
     </g>
     <g id="text_10">
      <!-- 5 -->
      <g transform="translate(100.0475 95.678324) scale(0.26 -0.26)">
       <use xlink:href="#DejaVuSerif-35"/>
      </g>
     </g>
    </g>
    <g id="text_11">
     <!-- $E_i(t)$ (a.u.) -->
     <g transform="translate(51.217813 289.73625) rotate(-90) scale(0.26 -0.26)">
      <defs>
       <path id="Cmmi10-45" d="M 300 0 
Q 238 0 238 84 
Q 241 100 250 139 
Q 259 178 276 201 
Q 294 225 319 225 
Q 709 225 863 269 
Q 947 297 984 441 
L 1863 3956 
Q 1875 4019 1875 4044 
Q 1875 4113 1797 4122 
Q 1678 4147 1338 4147 
Q 1275 4147 1275 4231 
Q 1278 4247 1287 4286 
Q 1297 4325 1314 4348 
Q 1331 4372 1356 4372 
L 4825 4372 
Q 4891 4372 4891 4288 
L 4738 2963 
Q 4738 2947 4714 2926 
Q 4691 2906 4672 2906 
L 4616 2906 
Q 4550 2906 4550 2988 
Q 4588 3300 4588 3450 
Q 4588 3706 4500 3848 
Q 4413 3991 4267 4053 
Q 4122 4116 3945 4131 
Q 3769 4147 3481 4147 
L 2753 4147 
Q 2578 4147 2522 4117 
Q 2466 4088 2419 3928 
L 2034 2381 
L 2534 2381 
Q 2859 2381 3025 2426 
Q 3191 2472 3287 2615 
Q 3384 2759 3463 3072 
Q 3469 3094 3486 3111 
Q 3503 3128 3525 3128 
L 3584 3128 
Q 3647 3128 3647 3047 
L 3250 1466 
Q 3238 1409 3188 1409 
L 3128 1409 
Q 3066 1409 3066 1491 
Q 3128 1747 3128 1869 
Q 3128 2056 2959 2106 
Q 2791 2156 2509 2156 
L 1978 2156 
L 1544 416 
Q 1516 338 1516 275 
Q 1516 225 1734 225 
L 2509 225 
Q 2972 225 3259 297 
Q 3547 369 3736 526 
Q 3925 684 4062 928 
Q 4200 1172 4397 1638 
Q 4409 1678 4453 1678 
L 4513 1678 
Q 4538 1678 4556 1656 
Q 4575 1634 4575 1606 
Q 4575 1594 4569 1581 
L 3909 38 
Q 3897 0 3859 0 
L 300 0 
z
" transform="scale(0.015625)"/>
       <path id="Cmmi10-69" d="M 500 459 
Q 500 578 550 709 
L 1069 2088 
Q 1153 2322 1153 2472 
Q 1153 2663 1013 2663 
Q 759 2663 595 2402 
Q 431 2141 353 1819 
Q 341 1778 300 1778 
L 225 1778 
Q 172 1778 172 1838 
L 172 1856 
Q 275 2238 487 2533 
Q 700 2828 1025 2828 
Q 1253 2828 1411 2678 
Q 1569 2528 1569 2297 
Q 1569 2178 1516 2047 
L 997 672 
Q 909 459 909 288 
Q 909 97 1056 97 
Q 1306 97 1473 364 
Q 1641 631 1709 941 
Q 1722 978 1759 978 
L 1838 978 
Q 1863 978 1878 961 
Q 1894 944 1894 922 
Q 1894 916 1888 903 
Q 1800 541 1583 234 
Q 1366 -72 1044 -72 
Q 819 -72 659 83 
Q 500 238 500 459 
z
M 1222 3878 
Q 1222 4013 1334 4122 
Q 1447 4231 1581 4231 
Q 1691 4231 1761 4164 
Q 1831 4097 1831 3994 
Q 1831 3850 1717 3742 
Q 1603 3634 1466 3634 
Q 1363 3634 1292 3704 
Q 1222 3775 1222 3878 
z
" transform="scale(0.015625)"/>
       <path id="Cmr10-28" d="M 1984 -1588 
Q 1628 -1306 1370 -942 
Q 1113 -578 948 -165 
Q 784 247 703 697 
Q 622 1147 622 1600 
Q 622 2059 703 2509 
Q 784 2959 951 3375 
Q 1119 3791 1378 4153 
Q 1638 4516 1984 4788 
Q 1984 4800 2016 4800 
L 2075 4800 
Q 2094 4800 2109 4783 
Q 2125 4766 2125 4744 
Q 2125 4716 2113 4703 
Q 1800 4397 1592 4047 
Q 1384 3697 1257 3301 
Q 1131 2906 1075 2482 
Q 1019 2059 1019 1600 
Q 1019 -434 2106 -1491 
Q 2125 -1509 2125 -1544 
Q 2125 -1559 2108 -1579 
Q 2091 -1600 2075 -1600 
L 2016 -1600 
Q 1984 -1600 1984 -1588 
z
" transform="scale(0.015625)"/>
       <path id="Cmr10-29" d="M 416 -1600 
Q 359 -1600 359 -1544 
Q 359 -1516 372 -1503 
Q 1466 -434 1466 1600 
Q 1466 3634 384 4691 
Q 359 4706 359 4744 
Q 359 4766 376 4783 
Q 394 4800 416 4800 
L 475 4800 
Q 494 4800 506 4788 
Q 966 4425 1272 3906 
Q 1578 3388 1720 2800 
Q 1863 2213 1863 1600 
Q 1863 1147 1786 708 
Q 1709 269 1542 -157 
Q 1375 -584 1119 -945 
Q 863 -1306 506 -1588 
Q 494 -1600 475 -1600 
L 416 -1600 
z
" transform="scale(0.015625)"/>
      </defs>
      <use xlink:href="#Cmmi10-45" transform="translate(0 0.015625)"/>
      <use xlink:href="#Cmmi10-69" transform="translate(73.779297 -16.990625) scale(0.7)"/>
      <use xlink:href="#Cmr10-28" transform="translate(104.25332 0.015625)"/>
      <use xlink:href="#Cmmi10-74" transform="translate(143.07168 0.015625)"/>
      <use xlink:href="#Cmr10-29" transform="translate(179.155664 0.015625)"/>
      <use xlink:href="#DejaVuSerif-20" transform="translate(217.974023 0.015625)"/>
      <use xlink:href="#DejaVuSerif-28" transform="translate(249.761133 0.015625)"/>
      <use xlink:href="#DejaVuSerif-61" transform="translate(288.774805 0.015625)"/>
      <use xlink:href="#DejaVuSerif-2e" transform="translate(348.393945 0.015625)"/>
      <use xlink:href="#DejaVuSerif-75" transform="translate(380.181055 0.015625)"/>
      <use xlink:href="#DejaVuSerif-2e" transform="translate(444.585352 0.015625)"/>
      <use xlink:href="#DejaVuSerif-29" transform="translate(476.372461 0.015625)"/>
     </g>
    </g>
   </g>
   <g id="line2d_28">
    <path d="M 133.510909 56.302389 
L 136.222204 56.531214 
L 138.933499 51.462614 
L 141.644793 51.871528 
L 144.356088 58.89376 
L 147.067383 58.297139 
L 149.778678 57.960348 
L 152.489972 62.935886 
L 155.201267 58.339724 
L 157.912562 59.907213 
L 160.623857 57.685837 
L 163.335152 62.222227 
L 166.046446 65.834866 
L 168.757741 58.304264 
L 171.469036 61.511431 
L 174.180331 54.093705 
L 176.891625 60.125333 
L 179.60292 55.191532 
L 182.314215 55.361774 
L 185.02551 59.221538 
L 187.736804 64.962916 
L 190.448099 61.121822 
L 193.159394 54.150739 
L 195.870689 47.505387 
L 198.581983 54.039898 
L 201.293278 54.147558 
L 204.004573 63.529451 
L 206.715868 49.4831 
L 209.427163 63.990359 
L 212.138457 61.921974 
L 214.849752 54.303078 
L 217.561047 50.439386 
L 220.272342 55.079839 
L 222.983636 51.279374 
L 225.694931 59.71166 
L 228.406226 56.9366 
L 231.117521 55.583591 
L 233.828815 57.682234 
L 236.54011 54.687558 
L 239.251405 59.103704 
L 241.9627 56.623718 
L 244.673994 61.135319 
L 247.385289 53.93868 
L 250.096584 49.914893 
L 252.807879 60.516686 
L 255.519174 51.266067 
L 258.230468 64.869345 
L 260.941763 60.036203 
L 263.653058 55.496904 
L 266.364353 54.648559 
L 269.075647 57.520487 
L 271.786942 62.371867 
L 274.498237 56.17929 
L 277.209532 52.742776 
L 279.920826 61.773516 
L 282.632121 58.779425 
L 285.343416 48.738274 
L 288.054711 59.094008 
L 290.766006 59.008675 
L 293.4773 56.020126 
L 296.188595 55.240834 
L 298.89989 53.007511 
L 301.611185 54.982318 
L 304.322479 61.481142 
L 307.033774 54.401233 
L 309.745069 57.154973 
L 312.456364 54.452833 
L 315.167658 57.026096 
L 317.878953 61.616467 
L 320.590248 61.825934 
L 323.301543 58.38135 
L 326.012837 59.934202 
L 328.724132 55.619207 
L 331.435427 59.848917 
L 334.146722 58.699587 
L 336.858017 61.538459 
L 339.569311 60.284334 
L 342.280606 57.452994 
L 344.991901 54.221325 
L 347.703196 59.682544 
L 350.41449 56.458492 
L 353.125785 53.393153 
L 355.83708 53.694476 
L 358.548375 56.111853 
L 361.259669 59.138083 
L 363.970964 54.325417 
L 366.682259 61.050157 
L 369.393554 56.081054 
L 372.104848 45.76875 
L 374.816143 61.950043 
L 377.527438 59.59871 
L 380.238733 52.874491 
L 382.950028 59.779409 
L 385.661322 54.779747 
L 388.372617 52.036694 
L 391.083912 57.118695 
L 393.795207 55.957855 
L 396.506501 54.074044 
L 399.217796 56.628763 
L 401.929091 59.110201 
" clip-path="url(#p102c0804c1)" style="fill: none; stroke: #1f77b4; stroke-width: 3; stroke-linecap: square"/>
   </g>
   <g id="line2d_29">
    <path d="M 133.510909 388.4519 
L 136.222204 383.835829 
L 138.933499 390.408441 
L 141.644793 392.745547 
L 144.356088 382.903112 
L 147.067383 382.33763 
L 149.778678 382.366934 
L 152.489972 378.394326 
L 155.201267 382.241729 
L 157.912562 383.984822 
L 160.623857 384.633231 
L 163.335152 380.093236 
L 166.046446 372.718998 
L 168.757741 381.982082 
L 171.469036 379.040907 
L 174.180331 387.701841 
L 176.891625 384.458379 
L 179.60292 384.841408 
L 182.314215 385.81981 
L 185.02551 384.228646 
L 187.736804 376.151488 
L 190.448099 378.013685 
L 193.159394 387.165416 
L 195.870689 397.166151 
L 198.581983 390.577138 
L 201.293278 388.59475 
L 204.004573 378.223717 
L 206.715868 395.952894 
L 209.427163 377.460046 
L 212.138457 378.77593 
L 214.849752 388.701849 
L 217.561047 392.469547 
L 220.272342 387.89595 
L 222.983636 392.864894 
L 225.694931 381.104 
L 228.406226 383.338085 
L 231.117521 387.203535 
L 233.828815 384.482064 
L 236.54011 391.680074 
L 239.251405 383.010552 
L 241.9627 386.7108 
L 244.673994 382.565283 
L 247.385289 391.52013 
L 250.096584 391.929457 
L 252.807879 381.33644 
L 255.519174 392.506598 
L 258.230468 377.041601 
L 260.941763 383.90578 
L 263.653058 386.476036 
L 266.364353 389.943969 
L 269.075647 384.828033 
L 271.786942 380.306425 
L 274.498237 387.241506 
L 277.209532 390.149119 
L 279.920826 378.641727 
L 282.632121 385.029217 
L 285.343416 397.977213 
L 288.054711 382.758637 
L 290.766006 385.954356 
L 293.4773 385.20789 
L 296.188595 387.790792 
L 298.89989 390.821813 
L 301.611185 390.833527 
L 304.322479 380.76243 
L 307.033774 391.707114 
L 309.745069 384.399258 
L 312.456364 390.524058 
L 315.167658 384.929861 
L 317.878953 379.8153 
L 320.590248 382.471126 
L 323.301543 384.377028 
L 326.012837 380.745278 
L 328.724132 388.634531 
L 331.435427 380.746437 
L 334.146722 382.903085 
L 336.858017 378.285056 
L 339.569311 382.489 
L 342.280606 385.319802 
L 344.991901 390.154412 
L 347.703196 382.015782 
L 350.41449 387.168252 
L 353.125785 391.353304 
L 355.83708 390.092865 
L 358.548375 387.894058 
L 361.259669 381.770682 
L 363.970964 387.792324 
L 366.682259 381.95587 
L 369.393554 386.017459 
L 372.104848 399.54375 
L 374.816143 380.028524 
L 377.527438 382.27182 
L 380.238733 390.922923 
L 382.950028 382.327207 
L 385.661322 387.083793 
L 388.372617 393.054254 
L 391.083912 386.1532 
L 393.795207 389.70073 
L 396.506501 389.252907 
L 399.217796 384.898909 
L 401.929091 384.788092 
" clip-path="url(#p102c0804c1)" style="fill: none; stroke-dasharray: 11.1,4.8; stroke-dashoffset: 0; stroke: #ff7f0e; stroke-width: 3"/>
   </g>
   <g id="line2d_30">
    <path d="M 133.510909 113.742208 
L 136.222204 116.98593 
L 138.933499 115.715292 
L 141.644793 115.478723 
L 144.356088 117.458605 
L 147.067383 118.285722 
L 149.778678 117.940282 
L 152.489972 116.801203 
L 155.201267 117.283303 
L 157.912562 115.485476 
L 160.623857 117.205276 
L 163.335152 117.437909 
L 166.046446 118.293528 
L 168.757741 117.412539 
L 171.469036 116.056995 
L 174.180331 116.43381 
L 176.891625 114.848231 
L 179.60292 117.518874 
L 182.314215 116.750044 
L 185.02551 115.412632 
L 187.736804 116.481957 
L 190.448099 117.760919 
L 193.159394 115.981652 
L 195.870689 113.867837 
L 198.581983 114.575533 
L 201.293278 116.300853 
L 204.004573 116.831067 
L 206.715868 113.885171 
L 209.427163 117.844995 
L 212.138457 117.341803 
L 214.849752 115.076239 
L 217.561047 115.219006 
L 220.272342 115.868693 
L 222.983636 114.472235 
L 225.694931 116.718194 
L 228.406226 117.470932 
L 231.117521 115.033773 
L 233.828815 115.414899 
L 236.54011 115.120551 
L 239.251405 117.067661 
L 241.9627 116.787373 
L 244.673994 115.967032 
L 247.385289 114.872153 
L 250.096584 114.956674 
L 252.807879 116.139523 
L 255.519174 114.188124 
L 258.230468 116.840714 
L 260.941763 115.5767 
L 263.653058 116.04334 
L 266.364353 115.103719 
L 269.075647 115.325688 
L 271.786942 117.175264 
L 274.498237 116.278734 
L 277.209532 116.163266 
L 279.920826 117.408974 
L 282.632121 116.014528 
L 285.343416 112.982354 
L 288.054711 115.704796 
L 290.766006 115.689806 
L 293.4773 115.93796 
L 296.188595 116.563051 
L 298.89989 114.757528 
L 301.611185 113.083966 
L 304.322479 116.588647 
L 307.033774 113.083322 
L 309.745069 116.501097 
L 312.456364 115.534693 
L 315.167658 115.829229 
L 317.878953 116.037737 
L 320.590248 114.876464 
L 323.301543 116.681972 
L 326.012837 116.559709 
L 328.724132 114.522814 
L 331.435427 116.430542 
L 334.146722 116.194101 
L 336.858017 117.38493 
L 339.569311 116.413309 
L 342.280606 115.029612 
L 344.991901 114.616471 
L 347.703196 116.832432 
L 350.41449 115.93486 
L 353.125785 114.498639 
L 355.83708 114.412392 
L 358.548375 115.367707 
L 361.259669 117.088169 
L 363.970964 115.90109 
L 366.682259 115.553105 
L 369.393554 115.039276 
L 372.104848 113.899892 
L 374.816143 116.515864 
L 377.527438 117.148825 
L 380.238733 115.004755 
L 382.950028 115.661125 
L 385.661322 115.218378 
L 388.372617 114.463088 
L 391.083912 115.666368 
L 393.795207 114.177134 
L 396.506501 115.437341 
L 399.217796 116.708854 
L 401.929091 115.641991 
" clip-path="url(#p102c0804c1)" style="fill: none; stroke-dasharray: 19.2,4.8,3,4.8; stroke-dashoffset: 0; stroke: #2ca02c; stroke-width: 3"/>
   </g>
   <g id="line2d_31">
    <path d="M 133.510909 140.503143 
L 136.222204 141.517956 
L 138.933499 141.387548 
L 141.644793 138.894243 
L 144.356088 139.878457 
L 147.067383 140.014658 
L 149.778678 140.794355 
L 152.489972 141.038941 
L 155.201267 141.058466 
L 157.912562 139.987696 
L 160.623857 139.441744 
L 163.335152 139.425281 
L 166.046446 142.111032 
L 168.757741 141.201183 
L 171.469036 142.357723 
L 174.180331 140.751666 
L 176.891625 140.100637 
L 179.60292 141.365972 
L 182.314215 141.044988 
L 185.02551 140.96313 
L 187.736804 141.463606 
L 190.448099 142.165983 
L 193.159394 141.7947 
L 195.870689 140.530509 
L 198.581983 139.86314 
L 201.293278 140.014727 
L 204.004573 140.590402 
L 206.715868 139.859478 
L 209.427163 139.69908 
L 212.138457 140.951657 
L 214.849752 140.976775 
L 217.561047 140.946079 
L 220.272342 140.293306 
L 222.983636 140.677033 
L 225.694931 141.541512 
L 228.406226 141.248968 
L 231.117521 141.558026 
L 233.828815 141.410383 
L 236.54011 137.895704 
L 239.251405 139.793207 
L 241.9627 138.893277 
L 244.673994 139.355623 
L 247.385289 138.710326 
L 250.096584 142.39843 
L 252.807879 141.069996 
L 255.519174 141.143748 
L 258.230468 140.391055 
L 260.941763 139.959987 
L 263.653058 140.987739 
L 266.364353 139.520726 
L 269.075647 141.466324 
L 271.786942 139.289776 
L 274.498237 139.619782 
L 277.209532 140.098516 
L 279.920826 141.24329 
L 282.632121 139.258194 
L 285.343416 139.542902 
L 288.054711 141.548613 
L 290.766006 138.70751 
L 293.4773 141.952882 
L 296.188595 139.488838 
L 298.89989 140.841579 
L 301.611185 140.833567 
L 304.322479 140.337102 
L 307.033774 140.346525 
L 309.745069 141.051239 
L 312.456364 138.797147 
L 315.167658 141.405298 
L 317.878953 141.681942 
L 320.590248 140.589305 
L 323.301543 139.656793 
L 326.012837 142.023985 
L 328.724132 140.445863 
L 331.435427 142.212872 
L 334.146722 141.524613 
L 336.858017 141.920886 
L 339.569311 140.022646 
L 342.280606 141.564067 
L 344.991901 140.15927 
L 347.703196 140.915427 
L 350.41449 139.743118 
L 353.125785 139.85161 
L 355.83708 140.972966 
L 358.548375 139.910321 
L 361.259669 141.10073 
L 363.970964 141.249195 
L 366.682259 140.816863 
L 369.393554 142.070504 
L 372.104848 140.036129 
L 374.816143 140.842466 
L 377.527438 140.281898 
L 380.238733 140.436958 
L 382.950028 141.416532 
L 385.661322 142.32019 
L 388.372617 139.574778 
L 391.083912 140.245719 
L 393.795207 140.029088 
L 396.506501 140.465526 
L 399.217796 140.891853 
L 401.929091 139.707806 
" clip-path="url(#p102c0804c1)" style="fill: none; stroke-dasharray: 3,4.95; stroke-dashoffset: 0; stroke: #d62728; stroke-width: 3"/>
   </g>
   <g id="line2d_32">
    <path d="M 133.510909 149.222359 
L 136.222204 149.353121 
L 138.933499 149.252465 
L 141.644793 149.243767 
L 144.356088 149.103414 
L 147.067383 149.304125 
L 149.778678 149.179071 
L 152.489972 149.073591 
L 155.201267 149.323387 
L 157.912562 148.883825 
L 160.623857 149.285261 
L 163.335152 149.074842 
L 166.046446 149.297157 
L 168.757741 149.356161 
L 171.469036 149.290507 
L 174.180331 149.278391 
L 176.891625 148.729368 
L 179.60292 149.345181 
L 182.314215 149.28841 
L 185.02551 148.440374 
L 187.736804 149.209614 
L 190.448099 149.209346 
L 193.159394 149.1803 
L 195.870689 149.203759 
L 198.581983 149.219737 
L 201.293278 149.219287 
L 204.004573 149.106415 
L 206.715868 149.102581 
L 209.427163 149.292739 
L 212.138457 149.299022 
L 214.849752 149.235005 
L 217.561047 149.220348 
L 220.272342 149.159255 
L 222.983636 149.004273 
L 225.694931 149.225643 
L 228.406226 149.30848 
L 231.117521 148.925462 
L 233.828815 149.315945 
L 236.54011 148.923859 
L 239.251405 149.335105 
L 241.9627 149.29625 
L 244.673994 149.290859 
L 247.385289 149.275649 
L 250.096584 149.12041 
L 252.807879 149.263006 
L 255.519174 149.223198 
L 258.230468 149.190143 
L 260.941763 148.856248 
L 263.653058 149.333409 
L 266.364353 149.122887 
L 269.075647 149.200875 
L 271.786942 149.201784 
L 274.498237 149.027147 
L 277.209532 149.193412 
L 279.920826 149.282085 
L 282.632121 149.270007 
L 285.343416 149.112106 
L 288.054711 149.248975 
L 290.766006 148.996549 
L 293.4773 149.242912 
L 296.188595 149.279334 
L 298.89989 148.935599 
L 301.611185 148.631887 
L 304.322479 149.198693 
L 307.033774 148.83073 
L 309.745069 149.263663 
L 312.456364 149.06369 
L 315.167658 149.184641 
L 317.878953 149.226653 
L 320.590248 148.616126 
L 323.301543 149.283082 
L 326.012837 149.118667 
L 328.724132 149.161571 
L 331.435427 149.147936 
L 334.146722 149.068006 
L 336.858017 149.263929 
L 339.569311 149.186263 
L 342.280606 149.031661 
L 344.991901 149.247975 
L 347.703196 148.956236 
L 350.41449 149.09911 
L 353.125785 149.308994 
L 355.83708 149.234683 
L 358.548375 149.125391 
L 361.259669 149.313087 
L 363.970964 149.14511 
L 366.682259 149.038687 
L 369.393554 149.208554 
L 372.104848 149.169637 
L 374.816143 149.084321 
L 377.527438 149.120887 
L 380.238733 149.183919 
L 382.950028 149.241055 
L 385.661322 149.025264 
L 388.372617 149.299285 
L 391.083912 149.247321 
L 393.795207 148.566994 
L 396.506501 149.202489 
L 399.217796 149.306745 
L 401.929091 149.188716 
" clip-path="url(#p102c0804c1)" style="fill: none; stroke-dasharray: 9,3,3,3; stroke-dashoffset: 0; stroke: #9467bd; stroke-width: 3"/>
   </g>
   <g id="line2d_33">
    <path d="M 133.510909 250.752771 
L 136.222204 250.754821 
L 138.933499 250.75713 
L 141.644793 250.764579 
L 144.356088 250.768118 
L 147.067383 250.770045 
L 149.778678 250.77176 
L 152.489972 250.774718 
L 155.201267 250.77738 
L 157.912562 250.779803 
L 160.623857 250.78212 
L 163.335152 250.784266 
L 166.046446 250.786353 
L 168.757741 250.787 
L 171.469036 250.788334 
L 174.180331 250.790183 
L 176.891625 250.79272 
L 179.60292 250.793738 
L 182.314215 250.795797 
L 185.02551 250.79709 
L 187.736804 250.800353 
L 190.448099 250.802525 
L 193.159394 250.803578 
L 195.870689 250.804414 
L 198.581983 250.806217 
L 201.293278 250.807945 
L 204.004573 250.811823 
L 206.715868 250.813996 
L 209.427163 250.81799 
L 212.138457 250.821157 
L 214.849752 250.823717 
L 217.561047 250.825138 
L 220.272342 250.827814 
L 222.983636 250.828581 
L 225.694931 250.831779 
L 228.406226 250.833836 
L 231.117521 250.835158 
L 233.828815 250.836297 
L 236.54011 250.838517 
L 239.251405 250.840999 
L 241.9627 250.842188 
L 244.673994 250.844887 
L 247.385289 250.847709 
L 250.096584 250.850636 
L 252.807879 250.856422 
L 255.519174 250.858506 
L 258.230468 250.863629 
L 260.941763 250.865688 
L 263.653058 250.868199 
L 266.364353 250.87063 
L 269.075647 250.872176 
L 271.786942 250.875887 
L 274.498237 250.877229 
L 277.209532 250.87786 
L 279.920826 250.880362 
L 282.632121 250.882142 
L 285.343416 250.883619 
L 288.054711 250.8858 
L 290.766006 250.887666 
L 293.4773 250.892541 
L 296.188595 250.893619 
L 298.89989 250.8948 
L 301.611185 250.896035 
L 304.322479 250.898785 
L 307.033774 250.899695 
L 309.745069 250.901 
L 312.456364 250.903192 
L 315.167658 250.905896 
L 317.878953 250.908871 
L 320.590248 250.909726 
L 323.301543 250.910996 
L 326.012837 250.912611 
L 328.724132 250.914758 
L 331.435427 250.917475 
L 334.146722 250.920163 
L 336.858017 250.924031 
L 339.569311 250.926322 
L 342.280606 250.928908 
L 344.991901 250.930225 
L 347.703196 250.933192 
L 350.41449 250.934603 
L 353.125785 250.936471 
L 355.83708 250.938153 
L 358.548375 250.9401 
L 361.259669 250.941521 
L 363.970964 250.943908 
L 366.682259 250.945454 
L 369.393554 250.947618 
L 372.104848 250.948929 
L 374.816143 250.951988 
L 377.527438 250.952911 
L 380.238733 250.953818 
L 382.950028 250.956098 
L 385.661322 250.958143 
L 388.372617 250.958869 
L 391.083912 250.962075 
L 393.795207 250.962573 
L 396.506501 250.963078 
L 399.217796 250.965897 
L 401.929091 250.967577 
" clip-path="url(#p102c0804c1)" style="fill: none; stroke: #808080; stroke-width: 2; stroke-linecap: square"/>
   </g>
   <g id="patch_3">
    <path d="M 120.09 417.2325 
L 120.09 28.08 
" style="fill: none; stroke: #000000; stroke-width: 2; stroke-linejoin: miter; stroke-linecap: square"/>
   </g>
   <g id="patch_4">
    <path d="M 415.35 417.2325 
L 415.35 28.08 
" style="fill: none; stroke: #000000; stroke-width: 2; stroke-linejoin: miter; stroke-linecap: square"/>
   </g>
   <g id="patch_5">
    <path d="M 120.09 417.2325 
L 415.35 417.2325 
" style="fill: none; stroke: #000000; stroke-width: 2; stroke-linejoin: miter; stroke-linecap: square"/>
   </g>
   <g id="patch_6">
    <path d="M 120.09 28.08 
L 415.35 28.08 
" style="fill: none; stroke: #000000; stroke-width: 2; stroke-linejoin: miter; stroke-linecap: square"/>
   </g>
   <g id="legend_1">
    <g id="patch_7">
     <path d="M 434.113 210.501875 
L 675.216125 210.501875 
Q 679.216125 210.501875 679.216125 206.501875 
L 679.216125 32.08 
Q 679.216125 28.08 675.216125 28.08 
L 434.113 28.08 
Q 430.113 28.08 430.113 32.08 
L 430.113 206.501875 
Q 430.113 210.501875 434.113 210.501875 
z
" style="fill: #ffffff; opacity: 0.8; stroke: #cccccc; stroke-linejoin: miter"/>
    </g>
    <g id="line2d_34">
     <path d="M 438.113 44.276875 
L 458.113 44.276875 
L 478.113 44.276875 
" style="fill: none; stroke: #1f77b4; stroke-width: 3; stroke-linecap: square"/>
    </g>
    <g id="text_12">
     <!-- Kinetic -->
     <g transform="translate(494.113 51.276875) scale(0.2 -0.2)">
      <defs>
       <path id="DejaVuSerif-4b" d="M 353 0 
L 353 331 
L 947 331 
L 947 4331 
L 353 4331 
L 353 4666 
L 2175 4666 
L 2175 4331 
L 1581 4331 
L 1581 2566 
L 3591 4331 
L 3084 4331 
L 3084 4666 
L 4634 4666 
L 4634 4331 
L 4109 4331 
L 2106 2572 
L 4347 331 
L 4878 331 
L 4878 0 
L 3794 0 
L 1581 2216 
L 1581 331 
L 2175 331 
L 2175 0 
L 353 0 
z
" transform="scale(0.015625)"/>
       <path id="DejaVuSerif-69" d="M 622 4353 
Q 622 4497 726 4603 
Q 831 4709 978 4709 
Q 1122 4709 1226 4603 
Q 1331 4497 1331 4353 
Q 1331 4206 1228 4103 
Q 1125 4000 978 4000 
Q 831 4000 726 4103 
Q 622 4206 622 4353 
z
M 1356 331 
L 1900 331 
L 1900 0 
L 231 0 
L 231 331 
L 781 331 
L 781 2988 
L 231 2988 
L 231 3322 
L 1356 3322 
L 1356 331 
z
" transform="scale(0.015625)"/>
       <path id="DejaVuSerif-6e" d="M 263 0 
L 263 331 
L 781 331 
L 781 2988 
L 231 2988 
L 231 3322 
L 1356 3322 
L 1356 2731 
Q 1516 3069 1770 3241 
Q 2025 3413 2363 3413 
Q 2913 3413 3172 3097 
Q 3431 2781 3431 2113 
L 3431 331 
L 3944 331 
L 3944 0 
L 2356 0 
L 2356 331 
L 2853 331 
L 2853 1931 
Q 2853 2541 2703 2767 
Q 2553 2994 2175 2994 
Q 1775 2994 1565 2701 
Q 1356 2409 1356 1850 
L 1356 331 
L 1856 331 
L 1856 0 
L 263 0 
z
" transform="scale(0.015625)"/>
       <path id="DejaVuSerif-65" d="M 3469 1600 
L 991 1600 
L 991 1575 
Q 991 903 1244 561 
Q 1497 219 1991 219 
Q 2369 219 2611 417 
Q 2853 616 2950 1006 
L 3413 1006 
Q 3275 459 2904 184 
Q 2534 -91 1931 -91 
Q 1203 -91 761 389 
Q 319 869 319 1663 
Q 319 2450 753 2931 
Q 1188 3413 1894 3413 
Q 2647 3413 3050 2948 
Q 3453 2484 3469 1600 
z
M 2791 1931 
Q 2772 2513 2545 2808 
Q 2319 3103 1894 3103 
Q 1497 3103 1269 2806 
Q 1041 2509 991 1931 
L 2791 1931 
z
" transform="scale(0.015625)"/>
       <path id="DejaVuSerif-74" d="M 691 2988 
L 184 2988 
L 184 3322 
L 691 3322 
L 691 4353 
L 1269 4353 
L 1269 3322 
L 2350 3322 
L 2350 2988 
L 1269 2988 
L 1269 878 
Q 1269 456 1350 337 
Q 1431 219 1650 219 
Q 1875 219 1978 351 
Q 2081 484 2088 781 
L 2522 781 
Q 2497 328 2275 118 
Q 2053 -91 1600 -91 
Q 1103 -91 897 129 
Q 691 350 691 878 
L 691 2988 
z
" transform="scale(0.015625)"/>
       <path id="DejaVuSerif-63" d="M 3291 997 
Q 3169 466 2822 187 
Q 2475 -91 1925 -91 
Q 1200 -91 759 389 
Q 319 869 319 1663 
Q 319 2459 759 2936 
Q 1200 3413 1925 3413 
Q 2241 3413 2553 3339 
Q 2866 3266 3181 3116 
L 3181 2266 
L 2847 2266 
Q 2781 2703 2561 2903 
Q 2341 3103 1931 3103 
Q 1466 3103 1228 2742 
Q 991 2381 991 1663 
Q 991 944 1227 581 
Q 1463 219 1931 219 
Q 2303 219 2525 412 
Q 2747 606 2828 997 
L 3291 997 
z
" transform="scale(0.015625)"/>
      </defs>
      <use xlink:href="#DejaVuSerif-4b"/>
      <use xlink:href="#DejaVuSerif-69" x="74.707031"/>
      <use xlink:href="#DejaVuSerif-6e" x="106.689453"/>
      <use xlink:href="#DejaVuSerif-65" x="171.09375"/>
      <use xlink:href="#DejaVuSerif-74" x="230.273438"/>
      <use xlink:href="#DejaVuSerif-69" x="270.458984"/>
      <use xlink:href="#DejaVuSerif-63" x="302.441406"/>
     </g>
    </g>
    <g id="line2d_35">
     <path d="M 438.113 73.633125 
L 458.113 73.633125 
L 478.113 73.633125 
" style="fill: none; stroke-dasharray: 11.1,4.8; stroke-dashoffset: 0; stroke: #ff7f0e; stroke-width: 3"/>
    </g>
    <g id="text_13">
     <!-- Electron-nucleus -->
     <g transform="translate(494.113 80.633125) scale(0.2 -0.2)">
      <defs>
       <path id="DejaVuSerif-45" d="M 353 0 
L 353 331 
L 947 331 
L 947 4331 
L 353 4331 
L 353 4666 
L 4109 4666 
L 4109 3628 
L 3725 3628 
L 3725 4281 
L 1581 4281 
L 1581 2719 
L 3109 2719 
L 3109 3303 
L 3494 3303 
L 3494 1753 
L 3109 1753 
L 3109 2338 
L 1581 2338 
L 1581 384 
L 3775 384 
L 3775 1038 
L 4159 1038 
L 4159 0 
L 353 0 
z
" transform="scale(0.015625)"/>
       <path id="DejaVuSerif-6c" d="M 1313 331 
L 1856 331 
L 1856 0 
L 184 0 
L 184 331 
L 738 331 
L 738 4531 
L 184 4531 
L 184 4863 
L 1313 4863 
L 1313 331 
z
" transform="scale(0.015625)"/>
       <path id="DejaVuSerif-72" d="M 3059 3328 
L 3059 2497 
L 2728 2497 
Q 2713 2744 2591 2866 
Q 2469 2988 2234 2988 
Q 1809 2988 1582 2694 
Q 1356 2400 1356 1850 
L 1356 331 
L 2022 331 
L 2022 0 
L 263 0 
L 263 331 
L 781 331 
L 781 2994 
L 231 2994 
L 231 3322 
L 1356 3322 
L 1356 2731 
Q 1525 3078 1790 3245 
Q 2056 3413 2438 3413 
Q 2578 3413 2733 3391 
Q 2888 3369 3059 3328 
z
" transform="scale(0.015625)"/>
       <path id="DejaVuSerif-6f" d="M 1925 219 
Q 2388 219 2623 584 
Q 2859 950 2859 1663 
Q 2859 2375 2623 2739 
Q 2388 3103 1925 3103 
Q 1463 3103 1227 2739 
Q 991 2375 991 1663 
Q 991 950 1228 584 
Q 1466 219 1925 219 
z
M 1925 -91 
Q 1200 -91 759 389 
Q 319 869 319 1663 
Q 319 2456 758 2934 
Q 1197 3413 1925 3413 
Q 2653 3413 3092 2934 
Q 3531 2456 3531 1663 
Q 3531 869 3092 389 
Q 2653 -91 1925 -91 
z
" transform="scale(0.015625)"/>
       <path id="DejaVuSerif-2d" d="M 281 1959 
L 1881 1959 
L 1881 1472 
L 281 1472 
L 281 1959 
z
" transform="scale(0.015625)"/>
       <path id="DejaVuSerif-73" d="M 359 184 
L 359 959 
L 691 959 
Q 703 588 923 403 
Q 1144 219 1575 219 
Q 1963 219 2166 364 
Q 2369 509 2369 788 
Q 2369 1006 2220 1140 
Q 2072 1275 1594 1428 
L 1178 1569 
Q 750 1706 558 1912 
Q 366 2119 366 2438 
Q 366 2894 700 3153 
Q 1034 3413 1625 3413 
Q 1888 3413 2178 3344 
Q 2469 3275 2778 3144 
L 2778 2419 
L 2447 2419 
Q 2434 2741 2221 2922 
Q 2009 3103 1644 3103 
Q 1281 3103 1095 2975 
Q 909 2847 909 2591 
Q 909 2381 1050 2254 
Q 1191 2128 1613 1997 
L 2069 1856 
Q 2541 1709 2748 1489 
Q 2956 1269 2956 922 
Q 2956 450 2595 179 
Q 2234 -91 1600 -91 
Q 1278 -91 972 -22 
Q 666 47 359 184 
z
" transform="scale(0.015625)"/>
      </defs>
      <use xlink:href="#DejaVuSerif-45"/>
      <use xlink:href="#DejaVuSerif-6c" x="72.998047"/>
      <use xlink:href="#DejaVuSerif-65" x="104.980469"/>
      <use xlink:href="#DejaVuSerif-63" x="164.160156"/>
      <use xlink:href="#DejaVuSerif-74" x="220.166016"/>
      <use xlink:href="#DejaVuSerif-72" x="260.351562"/>
      <use xlink:href="#DejaVuSerif-6f" x="308.154297"/>
      <use xlink:href="#DejaVuSerif-6e" x="368.359375"/>
      <use xlink:href="#DejaVuSerif-2d" x="432.763672"/>
      <use xlink:href="#DejaVuSerif-6e" x="466.552734"/>
      <use xlink:href="#DejaVuSerif-75" x="530.957031"/>
      <use xlink:href="#DejaVuSerif-63" x="595.361328"/>
      <use xlink:href="#DejaVuSerif-6c" x="651.367188"/>
      <use xlink:href="#DejaVuSerif-65" x="683.349609"/>
      <use xlink:href="#DejaVuSerif-75" x="742.529297"/>
      <use xlink:href="#DejaVuSerif-73" x="806.933594"/>
     </g>
    </g>
    <g id="line2d_36">
     <path d="M 438.113 102.989375 
L 458.113 102.989375 
L 478.113 102.989375 
" style="fill: none; stroke-dasharray: 19.2,4.8,3,4.8; stroke-dashoffset: 0; stroke: #2ca02c; stroke-width: 3"/>
    </g>
    <g id="text_14">
     <!-- Electron-electron -->
     <g transform="translate(494.113 109.989375) scale(0.2 -0.2)">
      <use xlink:href="#DejaVuSerif-45"/>
      <use xlink:href="#DejaVuSerif-6c" x="72.998047"/>
      <use xlink:href="#DejaVuSerif-65" x="104.980469"/>
      <use xlink:href="#DejaVuSerif-63" x="164.160156"/>
      <use xlink:href="#DejaVuSerif-74" x="220.166016"/>
      <use xlink:href="#DejaVuSerif-72" x="260.351562"/>
      <use xlink:href="#DejaVuSerif-6f" x="308.154297"/>
      <use xlink:href="#DejaVuSerif-6e" x="368.359375"/>
      <use xlink:href="#DejaVuSerif-2d" x="432.763672"/>
      <use xlink:href="#DejaVuSerif-65" x="466.552734"/>
      <use xlink:href="#DejaVuSerif-6c" x="525.732422"/>
      <use xlink:href="#DejaVuSerif-65" x="557.714844"/>
      <use xlink:href="#DejaVuSerif-63" x="616.894531"/>
      <use xlink:href="#DejaVuSerif-74" x="672.900391"/>
      <use xlink:href="#DejaVuSerif-72" x="713.085938"/>
      <use xlink:href="#DejaVuSerif-6f" x="760.888672"/>
      <use xlink:href="#DejaVuSerif-6e" x="821.09375"/>
     </g>
    </g>
    <g id="line2d_37">
     <path d="M 438.113 132.345625 
L 458.113 132.345625 
L 478.113 132.345625 
" style="fill: none; stroke-dasharray: 3,4.95; stroke-dashoffset: 0; stroke: #d62728; stroke-width: 3"/>
    </g>
    <g id="text_15">
     <!-- Heisenberg -->
     <g transform="translate(494.113 139.345625) scale(0.2 -0.2)">
      <defs>
       <path id="DejaVuSerif-48" d="M 353 0 
L 353 331 
L 947 331 
L 947 4331 
L 353 4331 
L 353 4666 
L 2175 4666 
L 2175 4331 
L 1581 4331 
L 1581 2719 
L 4000 2719 
L 4000 4331 
L 3406 4331 
L 3406 4666 
L 5228 4666 
L 5228 4331 
L 4634 4331 
L 4634 331 
L 5228 331 
L 5228 0 
L 3406 0 
L 3406 331 
L 4000 331 
L 4000 2338 
L 1581 2338 
L 1581 331 
L 2175 331 
L 2175 0 
L 353 0 
z
" transform="scale(0.015625)"/>
       <path id="DejaVuSerif-62" d="M 738 331 
L 738 4531 
L 184 4531 
L 184 4863 
L 1313 4863 
L 1313 2803 
Q 1481 3116 1742 3264 
Q 2003 3413 2388 3413 
Q 3000 3413 3387 2928 
Q 3775 2444 3775 1663 
Q 3775 881 3387 395 
Q 3000 -91 2388 -91 
Q 2003 -91 1742 57 
Q 1481 206 1313 519 
L 1313 0 
L 184 0 
L 184 331 
L 738 331 
z
M 1313 1497 
Q 1313 897 1542 583 
Q 1772 269 2209 269 
Q 2650 269 2876 622 
Q 3103 975 3103 1663 
Q 3103 2353 2876 2703 
Q 2650 3053 2209 3053 
Q 1772 3053 1542 2737 
Q 1313 2422 1313 1825 
L 1313 1497 
z
" transform="scale(0.015625)"/>
       <path id="DejaVuSerif-67" d="M 3359 2988 
L 3359 72 
Q 3359 -644 2965 -1033 
Q 2572 -1422 1844 -1422 
Q 1516 -1422 1216 -1362 
Q 916 -1303 641 -1184 
L 641 -488 
L 941 -488 
Q 997 -813 1206 -963 
Q 1416 -1113 1806 -1113 
Q 2313 -1113 2548 -827 
Q 2784 -541 2784 72 
L 2784 519 
Q 2616 206 2355 57 
Q 2094 -91 1709 -91 
Q 1097 -91 708 395 
Q 319 881 319 1663 
Q 319 2444 706 2928 
Q 1094 3413 1709 3413 
Q 2094 3413 2355 3264 
Q 2616 3116 2784 2803 
L 2784 3322 
L 3909 3322 
L 3909 2988 
L 3359 2988 
z
M 2784 1825 
Q 2784 2422 2554 2737 
Q 2325 3053 1888 3053 
Q 1444 3053 1217 2703 
Q 991 2353 991 1663 
Q 991 975 1217 622 
Q 1444 269 1888 269 
Q 2325 269 2554 583 
Q 2784 897 2784 1497 
L 2784 1825 
z
" transform="scale(0.015625)"/>
      </defs>
      <use xlink:href="#DejaVuSerif-48"/>
      <use xlink:href="#DejaVuSerif-65" x="87.207031"/>
      <use xlink:href="#DejaVuSerif-69" x="146.386719"/>
      <use xlink:href="#DejaVuSerif-73" x="178.369141"/>
      <use xlink:href="#DejaVuSerif-65" x="229.6875"/>
      <use xlink:href="#DejaVuSerif-6e" x="288.867188"/>
      <use xlink:href="#DejaVuSerif-62" x="353.271484"/>
      <use xlink:href="#DejaVuSerif-65" x="417.285156"/>
      <use xlink:href="#DejaVuSerif-72" x="476.464844"/>
      <use xlink:href="#DejaVuSerif-67" x="524.267578"/>
     </g>
    </g>
    <g id="line2d_38">
     <path d="M 438.113 161.98625 
L 458.113 161.98625 
L 478.113 161.98625 
" style="fill: none; stroke-dasharray: 9,3,3,3; stroke-dashoffset: 0; stroke: #9467bd; stroke-width: 3"/>
    </g>
    <g id="text_16">
     <!-- Pauli -->
     <g transform="translate(494.113 168.98625) scale(0.2 -0.2)">
      <defs>
       <path id="DejaVuSerif-50" d="M 1581 2375 
L 2406 2375 
Q 2872 2375 3115 2626 
Q 3359 2878 3359 3353 
Q 3359 3831 3115 4081 
Q 2872 4331 2406 4331 
L 1581 4331 
L 1581 2375 
z
M 353 0 
L 353 331 
L 947 331 
L 947 4331 
L 353 4331 
L 353 4666 
L 2559 4666 
Q 3259 4666 3668 4311 
Q 4078 3956 4078 3353 
Q 4078 2753 3668 2397 
Q 3259 2041 2559 2041 
L 1581 2041 
L 1581 331 
L 2303 331 
L 2303 0 
L 353 0 
z
" transform="scale(0.015625)"/>
      </defs>
      <use xlink:href="#DejaVuSerif-50"/>
      <use xlink:href="#DejaVuSerif-61" x="62.785156"/>
      <use xlink:href="#DejaVuSerif-75" x="122.404297"/>
      <use xlink:href="#DejaVuSerif-6c" x="186.808594"/>
      <use xlink:href="#DejaVuSerif-69" x="218.791016"/>
     </g>
    </g>
    <g id="line2d_39">
     <path d="M 438.113 191.3425 
L 458.113 191.3425 
L 478.113 191.3425 
" style="fill: none; stroke: #808080; stroke-width: 2; stroke-linecap: square"/>
    </g>
    <g id="text_17">
     <!-- Total -->
     <g transform="translate(494.113 198.3425) scale(0.2 -0.2)">
      <defs>
       <path id="DejaVuSerif-54" d="M 1222 0 
L 1222 331 
L 1819 331 
L 1819 4294 
L 447 4294 
L 447 3566 
L 63 3566 
L 63 4666 
L 4206 4666 
L 4206 3566 
L 3822 3566 
L 3822 4294 
L 2450 4294 
L 2450 331 
L 3047 331 
L 3047 0 
L 1222 0 
z
" transform="scale(0.015625)"/>
      </defs>
      <use xlink:href="#DejaVuSerif-54"/>
      <use xlink:href="#DejaVuSerif-6f" x="58.949219"/>
      <use xlink:href="#DejaVuSerif-74" x="119.154297"/>
      <use xlink:href="#DejaVuSerif-61" x="159.339844"/>
      <use xlink:href="#DejaVuSerif-6c" x="218.958984"/>
     </g>
    </g>
   </g>
  </g>
 </g>
 <defs>
  <clipPath id="p102c0804c1">
   <rect x="120.09" y="28.08" width="295.26" height="389.1525"/>
  </clipPath>
 </defs>
</svg>
