<?xml version="1.0" encoding="utf-8" standalone="no"?>
<!DOCTYPE svg PUBLIC "-//W3C//DTD SVG 1.1//EN"
  "http://www.w3.org/Graphics/SVG/1.1/DTD/svg11.dtd">
<svg xmlns:xlink="http://www.w3.org/1999/xlink" width="864pt" height="576pt" viewBox="0 0 864 576" xmlns="http://www.w3.org/2000/svg" version="1.1">
 <metadata>
  <rdf:RDF xmlns:dc="http://purl.org/dc/elements/1.1/" xmlns:cc="http://creativecommons.org/ns#" xmlns:rdf="http://www.w3.org/1999/02/22-rdf-syntax-ns#">
   <cc:Work>
    <dc:type rdf:resource="http://purl.org/dc/dcmitype/StillImage"/>
    <dc:date>2025-06-03T09:02:25.233456</dc:date>
    <dc:format>image/svg+xml</dc:format>
    <dc:creator>
     <cc:Agent>
      <dc:title>Matplotlib v3.7.2, https://matplotlib.org/</dc:title>
     </cc:Agent>
    </dc:creator>
   </cc:Work>
  </rdf:RDF>
 </metadata>
 <defs>
  <style type="text/css">*{stroke-linejoin: round; stroke-linecap: butt}</style>
 </defs>
 <g id="figure_1">
  <g id="patch_1">
   <path d="M 0 576 
L 864 576 
L 864 0 
L 0 0 
z
" style="fill: #ffffff"/>
  </g>
  <g id="axes_1">
   <g id="patch_2">
    <path d="M 105.15 489.2325 
L 824.911364 489.2325 
L 824.911364 28.08 
L 105.15 28.08 
z
" style="fill: #ffffff"/>
   </g>
   <g id="matplotlib.axis_1">
    <g id="xtick_1">
     <g id="line2d_1">
      <path d="M 137.866426 489.2325 
L 137.866426 28.08 
" clip-path="url(#p8c2d4ee9e0)" style="fill: none; stroke-dasharray: 3.7,1.6; stroke-dashoffset: 0; stroke: #b0b0b0; stroke-opacity: 0.5"/>
     </g>
     <g id="line2d_2">
      <defs>
       <path id="m697ad479a9" d="M 0 0 
L 0 -10 
" style="stroke: #000000; stroke-width: 2"/>
      </defs>
      <g>
       <use xlink:href="#m697ad479a9" x="137.866426" y="489.2325" style="stroke: #000000; stroke-width: 2"/>
      </g>
     </g>
     <g id="line2d_3">
      <defs>
       <path id="mbe059a4c26" d="M 0 0 
L 0 10 
" style="stroke: #000000; stroke-width: 2"/>
      </defs>
      <g>
       <use xlink:href="#mbe059a4c26" x="137.866426" y="28.08" style="stroke: #000000; stroke-width: 2"/>
      </g>
     </g>
     <g id="text_1">
      <!-- 0 -->
      <g transform="translate(129.595176 512.488438) scale(0.26 -0.26)">
       <defs>
        <path id="DejaVuSerif-30" d="M 2034 219 
Q 2513 219 2750 744 
Q 2988 1269 2988 2328 
Q 2988 3391 2750 3916 
Q 2513 4441 2034 4441 
Q 1556 4441 1318 3916 
Q 1081 3391 1081 2328 
Q 1081 1269 1318 744 
Q 1556 219 2034 219 
z
M 2034 -91 
Q 1275 -91 848 546 
Q 422 1184 422 2328 
Q 422 3475 848 4112 
Q 1275 4750 2034 4750 
Q 2797 4750 3222 4112 
Q 3647 3475 3647 2328 
Q 3647 1184 3222 546 
Q 2797 -91 2034 -91 
z
" transform="scale(0.015625)"/>
       </defs>
       <use xlink:href="#DejaVuSerif-30"/>
      </g>
     </g>
    </g>
    <g id="xtick_2">
     <g id="line2d_4">
      <path d="M 268.732128 489.2325 
L 268.732128 28.08 
" clip-path="url(#p8c2d4ee9e0)" style="fill: none; stroke-dasharray: 3.7,1.6; stroke-dashoffset: 0; stroke: #b0b0b0; stroke-opacity: 0.5"/>
     </g>
     <g id="line2d_5">
      <g>
       <use xlink:href="#m697ad479a9" x="268.732128" y="489.2325" style="stroke: #000000; stroke-width: 2"/>
      </g>
     </g>
     <g id="line2d_6">
      <g>
       <use xlink:href="#mbe059a4c26" x="268.732128" y="28.08" style="stroke: #000000; stroke-width: 2"/>
      </g>
     </g>
     <g id="text_2">
      <!-- 5000 -->
      <g transform="translate(235.647128 512.488438) scale(0.26 -0.26)">
       <defs>
        <path id="DejaVuSerif-35" d="M 3219 4666 
L 3219 4153 
L 1081 4153 
L 1081 2816 
Q 1244 2928 1461 2984 
Q 1678 3041 1947 3041 
Q 2703 3041 3140 2622 
Q 3578 2203 3578 1478 
Q 3578 738 3136 323 
Q 2694 -91 1894 -91 
Q 1572 -91 1234 -12 
Q 897 66 544 225 
L 544 1131 
L 897 1131 
Q 925 688 1179 453 
Q 1434 219 1894 219 
Q 2388 219 2653 544 
Q 2919 869 2919 1478 
Q 2919 2084 2655 2407 
Q 2391 2731 1894 2731 
Q 1613 2731 1398 2631 
Q 1184 2531 1019 2322 
L 750 2322 
L 750 4666 
L 3219 4666 
z
" transform="scale(0.015625)"/>
       </defs>
       <use xlink:href="#DejaVuSerif-35"/>
       <use xlink:href="#DejaVuSerif-30" x="63.623047"/>
       <use xlink:href="#DejaVuSerif-30" x="127.246094"/>
       <use xlink:href="#DejaVuSerif-30" x="190.869141"/>
      </g>
     </g>
    </g>
    <g id="xtick_3">
     <g id="line2d_7">
      <path d="M 399.597831 489.2325 
L 399.597831 28.08 
" clip-path="url(#p8c2d4ee9e0)" style="fill: none; stroke-dasharray: 3.7,1.6; stroke-dashoffset: 0; stroke: #b0b0b0; stroke-opacity: 0.5"/>
     </g>
     <g id="line2d_8">
      <g>
       <use xlink:href="#m697ad479a9" x="399.597831" y="489.2325" style="stroke: #000000; stroke-width: 2"/>
      </g>
     </g>
     <g id="line2d_9">
      <g>
       <use xlink:href="#mbe059a4c26" x="399.597831" y="28.08" style="stroke: #000000; stroke-width: 2"/>
      </g>
     </g>
     <g id="text_3">
      <!-- 10000 -->
      <g transform="translate(358.241581 512.488438) scale(0.26 -0.26)">
       <defs>
        <path id="DejaVuSerif-31" d="M 909 0 
L 909 331 
L 1722 331 
L 1722 4213 
L 781 3603 
L 781 4013 
L 1919 4750 
L 2350 4750 
L 2350 331 
L 3163 331 
L 3163 0 
L 909 0 
z
" transform="scale(0.015625)"/>
       </defs>
       <use xlink:href="#DejaVuSerif-31"/>
       <use xlink:href="#DejaVuSerif-30" x="63.623047"/>
       <use xlink:href="#DejaVuSerif-30" x="127.246094"/>
       <use xlink:href="#DejaVuSerif-30" x="190.869141"/>
       <use xlink:href="#DejaVuSerif-30" x="254.492188"/>
      </g>
     </g>
    </g>
    <g id="xtick_4">
     <g id="line2d_10">
      <path d="M 530.463533 489.2325 
L 530.463533 28.08 
" clip-path="url(#p8c2d4ee9e0)" style="fill: none; stroke-dasharray: 3.7,1.6; stroke-dashoffset: 0; stroke: #b0b0b0; stroke-opacity: 0.5"/>
     </g>
     <g id="line2d_11">
      <g>
       <use xlink:href="#m697ad479a9" x="530.463533" y="489.2325" style="stroke: #000000; stroke-width: 2"/>
      </g>
     </g>
     <g id="line2d_12">
      <g>
       <use xlink:href="#mbe059a4c26" x="530.463533" y="28.08" style="stroke: #000000; stroke-width: 2"/>
      </g>
     </g>
     <g id="text_4">
      <!-- 15000 -->
      <g transform="translate(489.107283 512.488438) scale(0.26 -0.26)">
       <use xlink:href="#DejaVuSerif-31"/>
       <use xlink:href="#DejaVuSerif-35" x="63.623047"/>
       <use xlink:href="#DejaVuSerif-30" x="127.246094"/>
       <use xlink:href="#DejaVuSerif-30" x="190.869141"/>
       <use xlink:href="#DejaVuSerif-30" x="254.492188"/>
      </g>
     </g>
    </g>
    <g id="xtick_5">
     <g id="line2d_13">
      <path d="M 661.329236 489.2325 
L 661.329236 28.08 
" clip-path="url(#p8c2d4ee9e0)" style="fill: none; stroke-dasharray: 3.7,1.6; stroke-dashoffset: 0; stroke: #b0b0b0; stroke-opacity: 0.5"/>
     </g>
     <g id="line2d_14">
      <g>
       <use xlink:href="#m697ad479a9" x="661.329236" y="489.2325" style="stroke: #000000; stroke-width: 2"/>
      </g>
     </g>
     <g id="line2d_15">
      <g>
       <use xlink:href="#mbe059a4c26" x="661.329236" y="28.08" style="stroke: #000000; stroke-width: 2"/>
      </g>
     </g>
     <g id="text_5">
      <!-- 20000 -->
      <g transform="translate(619.972986 512.488438) scale(0.26 -0.26)">
       <defs>
        <path id="DejaVuSerif-32" d="M 819 3553 
L 469 3553 
L 469 4384 
Q 803 4563 1142 4656 
Q 1481 4750 1806 4750 
Q 2534 4750 2956 4397 
Q 3378 4044 3378 3438 
Q 3378 2753 2422 1800 
Q 2347 1728 2309 1691 
L 1131 513 
L 3078 513 
L 3078 1088 
L 3444 1088 
L 3444 0 
L 434 0 
L 434 341 
L 1850 1753 
Q 2319 2222 2519 2614 
Q 2719 3006 2719 3438 
Q 2719 3909 2473 4175 
Q 2228 4441 1797 4441 
Q 1350 4441 1106 4219 
Q 863 3997 819 3553 
z
" transform="scale(0.015625)"/>
       </defs>
       <use xlink:href="#DejaVuSerif-32"/>
       <use xlink:href="#DejaVuSerif-30" x="63.623047"/>
       <use xlink:href="#DejaVuSerif-30" x="127.246094"/>
       <use xlink:href="#DejaVuSerif-30" x="190.869141"/>
       <use xlink:href="#DejaVuSerif-30" x="254.492188"/>
      </g>
     </g>
    </g>
    <g id="xtick_6">
     <g id="line2d_16">
      <path d="M 792.194938 489.2325 
L 792.194938 28.08 
" clip-path="url(#p8c2d4ee9e0)" style="fill: none; stroke-dasharray: 3.7,1.6; stroke-dashoffset: 0; stroke: #b0b0b0; stroke-opacity: 0.5"/>
     </g>
     <g id="line2d_17">
      <g>
       <use xlink:href="#m697ad479a9" x="792.194938" y="489.2325" style="stroke: #000000; stroke-width: 2"/>
      </g>
     </g>
     <g id="line2d_18">
      <g>
       <use xlink:href="#mbe059a4c26" x="792.194938" y="28.08" style="stroke: #000000; stroke-width: 2"/>
      </g>
     </g>
     <g id="text_6">
      <!-- 25000 -->
      <g transform="translate(750.838688 512.488438) scale(0.26 -0.26)">
       <use xlink:href="#DejaVuSerif-32"/>
       <use xlink:href="#DejaVuSerif-35" x="63.623047"/>
       <use xlink:href="#DejaVuSerif-30" x="127.246094"/>
       <use xlink:href="#DejaVuSerif-30" x="190.869141"/>
       <use xlink:href="#DejaVuSerif-30" x="254.492188"/>
      </g>
     </g>
    </g>
    <g id="text_7">
     <!-- $t$ (a.u.) -->
     <g transform="translate(421.610682 541.651562) scale(0.26 -0.26)">
      <defs>
       <path id="Cmmi10-74" d="M 397 519 
Q 397 613 416 697 
L 878 2534 
L 206 2534 
Q 141 2534 141 2619 
Q 166 2759 225 2759 
L 934 2759 
L 1191 3803 
Q 1216 3888 1291 3947 
Q 1366 4006 1459 4006 
Q 1541 4006 1595 3957 
Q 1650 3909 1650 3828 
Q 1650 3809 1648 3798 
Q 1647 3788 1644 3775 
L 1388 2759 
L 2047 2759 
Q 2113 2759 2113 2675 
Q 2109 2659 2100 2621 
Q 2091 2584 2075 2559 
Q 2059 2534 2028 2534 
L 1331 2534 
L 872 684 
Q 825 503 825 372 
Q 825 97 1013 97 
Q 1294 97 1511 361 
Q 1728 625 1844 941 
Q 1869 978 1894 978 
L 1972 978 
Q 1997 978 2012 961 
Q 2028 944 2028 922 
Q 2028 909 2022 903 
Q 1881 516 1612 222 
Q 1344 -72 997 -72 
Q 744 -72 570 93 
Q 397 259 397 519 
z
" transform="scale(0.015625)"/>
       <path id="DejaVuSerif-20" transform="scale(0.015625)"/>
       <path id="DejaVuSerif-28" d="M 2041 -997 
Q 1281 -656 893 83 
Q 506 822 506 1931 
Q 506 3044 893 3783 
Q 1281 4522 2041 4863 
L 2041 4556 
Q 1559 4225 1350 3623 
Q 1141 3022 1141 1931 
Q 1141 844 1350 242 
Q 1559 -359 2041 -691 
L 2041 -997 
z
" transform="scale(0.015625)"/>
       <path id="DejaVuSerif-61" d="M 2547 1044 
L 2547 1747 
L 1806 1747 
Q 1378 1747 1168 1562 
Q 959 1378 959 997 
Q 959 650 1171 447 
Q 1384 244 1747 244 
Q 2106 244 2326 466 
Q 2547 688 2547 1044 
z
M 3122 2075 
L 3122 331 
L 3634 331 
L 3634 0 
L 2547 0 
L 2547 359 
Q 2356 128 2106 18 
Q 1856 -91 1522 -91 
Q 969 -91 644 203 
Q 319 497 319 997 
Q 319 1513 691 1797 
Q 1063 2081 1741 2081 
L 2547 2081 
L 2547 2309 
Q 2547 2688 2317 2895 
Q 2088 3103 1672 3103 
Q 1328 3103 1125 2947 
Q 922 2791 872 2484 
L 575 2484 
L 575 3156 
Q 875 3284 1158 3348 
Q 1441 3413 1709 3413 
Q 2400 3413 2761 3070 
Q 3122 2728 3122 2075 
z
" transform="scale(0.015625)"/>
       <path id="DejaVuSerif-2e" d="M 603 325 
Q 603 500 722 622 
Q 841 744 1019 744 
Q 1191 744 1312 622 
Q 1434 500 1434 325 
Q 1434 153 1312 31 
Q 1191 -91 1019 -91 
Q 841 -91 722 29 
Q 603 150 603 325 
z
" transform="scale(0.015625)"/>
       <path id="DejaVuSerif-75" d="M 2266 3322 
L 3341 3322 
L 3341 331 
L 3884 331 
L 3884 0 
L 2766 0 
L 2766 588 
Q 2606 256 2353 82 
Q 2100 -91 1766 -91 
Q 1213 -91 952 223 
Q 691 538 691 1209 
L 691 2988 
L 172 2988 
L 172 3322 
L 1269 3322 
L 1269 1388 
Q 1269 781 1417 556 
Q 1566 331 1947 331 
Q 2347 331 2556 625 
Q 2766 919 2766 1478 
L 2766 2988 
L 2266 2988 
L 2266 3322 
z
" transform="scale(0.015625)"/>
       <path id="DejaVuSerif-29" d="M 453 -997 
L 453 -691 
Q 934 -359 1145 242 
Q 1356 844 1356 1931 
Q 1356 3022 1145 3623 
Q 934 4225 453 4556 
L 453 4863 
Q 1216 4522 1603 3783 
Q 1991 3044 1991 1931 
Q 1991 822 1603 83 
Q 1216 -656 453 -997 
z
" transform="scale(0.015625)"/>
      </defs>
      <use xlink:href="#Cmmi10-74" transform="translate(0 0.015625)"/>
      <use xlink:href="#DejaVuSerif-20" transform="translate(36.083984 0.015625)"/>
      <use xlink:href="#DejaVuSerif-28" transform="translate(67.871094 0.015625)"/>
      <use xlink:href="#DejaVuSerif-61" transform="translate(106.884766 0.015625)"/>
      <use xlink:href="#DejaVuSerif-2e" transform="translate(166.503906 0.015625)"/>
      <use xlink:href="#DejaVuSerif-75" transform="translate(198.291016 0.015625)"/>
      <use xlink:href="#DejaVuSerif-2e" transform="translate(262.695312 0.015625)"/>
      <use xlink:href="#DejaVuSerif-29" transform="translate(294.482422 0.015625)"/>
     </g>
    </g>
   </g>
   <g id="matplotlib.axis_2">
    <g id="ytick_1">
     <g id="line2d_19">
      <path d="M 105.15 472.137046 
L 824.911364 472.137046 
" clip-path="url(#p8c2d4ee9e0)" style="fill: none; stroke-dasharray: 3.7,1.6; stroke-dashoffset: 0; stroke: #b0b0b0; stroke-opacity: 0.5"/>
     </g>
     <g id="line2d_20">
      <defs>
       <path id="me0b81df345" d="M 0 0 
L 10 0 
" style="stroke: #000000; stroke-width: 2"/>
      </defs>
      <g>
       <use xlink:href="#me0b81df345" x="105.15" y="472.137046" style="stroke: #000000; stroke-width: 2"/>
      </g>
     </g>
     <g id="line2d_21">
      <defs>
       <path id="mdebbaeeba8" d="M 0 0 
L -10 0 
" style="stroke: #000000; stroke-width: 2"/>
      </defs>
      <g>
       <use xlink:href="#mdebbaeeba8" x="824.911364" y="472.137046" style="stroke: #000000; stroke-width: 2"/>
      </g>
     </g>
     <g id="text_8">
      <!-- 0.5 -->
      <g transform="translate(60.301875 482.015015) scale(0.26 -0.26)">
       <use xlink:href="#DejaVuSerif-30"/>
       <use xlink:href="#DejaVuSerif-2e" x="63.623047"/>
       <use xlink:href="#DejaVuSerif-35" x="95.410156"/>
      </g>
     </g>
    </g>
    <g id="ytick_2">
     <g id="line2d_22">
      <path d="M 105.15 385.431005 
L 824.911364 385.431005 
" clip-path="url(#p8c2d4ee9e0)" style="fill: none; stroke-dasharray: 3.7,1.6; stroke-dashoffset: 0; stroke: #b0b0b0; stroke-opacity: 0.5"/>
     </g>
     <g id="line2d_23">
      <g>
       <use xlink:href="#me0b81df345" x="105.15" y="385.431005" style="stroke: #000000; stroke-width: 2"/>
      </g>
     </g>
     <g id="line2d_24">
      <g>
       <use xlink:href="#mdebbaeeba8" x="824.911364" y="385.431005" style="stroke: #000000; stroke-width: 2"/>
      </g>
     </g>
     <g id="text_9">
      <!-- 1.0 -->
      <g transform="translate(60.301875 395.308973) scale(0.26 -0.26)">
       <use xlink:href="#DejaVuSerif-31"/>
       <use xlink:href="#DejaVuSerif-2e" x="63.623047"/>
       <use xlink:href="#DejaVuSerif-30" x="95.410156"/>
      </g>
     </g>
    </g>
    <g id="ytick_3">
     <g id="line2d_25">
      <path d="M 105.15 298.724963 
L 824.911364 298.724963 
" clip-path="url(#p8c2d4ee9e0)" style="fill: none; stroke-dasharray: 3.7,1.6; stroke-dashoffset: 0; stroke: #b0b0b0; stroke-opacity: 0.5"/>
     </g>
     <g id="line2d_26">
      <g>
       <use xlink:href="#me0b81df345" x="105.15" y="298.724963" style="stroke: #000000; stroke-width: 2"/>
      </g>
     </g>
     <g id="line2d_27">
      <g>
       <use xlink:href="#mdebbaeeba8" x="824.911364" y="298.724963" style="stroke: #000000; stroke-width: 2"/>
      </g>
     </g>
     <g id="text_10">
      <!-- 1.5 -->
      <g transform="translate(60.301875 308.602932) scale(0.26 -0.26)">
       <use xlink:href="#DejaVuSerif-31"/>
       <use xlink:href="#DejaVuSerif-2e" x="63.623047"/>
       <use xlink:href="#DejaVuSerif-35" x="95.410156"/>
      </g>
     </g>
    </g>
    <g id="ytick_4">
     <g id="line2d_28">
      <path d="M 105.15 212.018921 
L 824.911364 212.018921 
" clip-path="url(#p8c2d4ee9e0)" style="fill: none; stroke-dasharray: 3.7,1.6; stroke-dashoffset: 0; stroke: #b0b0b0; stroke-opacity: 0.5"/>
     </g>
     <g id="line2d_29">
      <g>
       <use xlink:href="#me0b81df345" x="105.15" y="212.018921" style="stroke: #000000; stroke-width: 2"/>
      </g>
     </g>
     <g id="line2d_30">
      <g>
       <use xlink:href="#mdebbaeeba8" x="824.911364" y="212.018921" style="stroke: #000000; stroke-width: 2"/>
      </g>
     </g>
     <g id="text_11">
      <!-- 2.0 -->
      <g transform="translate(60.301875 221.89689) scale(0.26 -0.26)">
       <use xlink:href="#DejaVuSerif-32"/>
       <use xlink:href="#DejaVuSerif-2e" x="63.623047"/>
       <use xlink:href="#DejaVuSerif-30" x="95.410156"/>
      </g>
     </g>
    </g>
    <g id="ytick_5">
     <g id="line2d_31">
      <path d="M 105.15 125.31288 
L 824.911364 125.31288 
" clip-path="url(#p8c2d4ee9e0)" style="fill: none; stroke-dasharray: 3.7,1.6; stroke-dashoffset: 0; stroke: #b0b0b0; stroke-opacity: 0.5"/>
     </g>
     <g id="line2d_32">
      <g>
       <use xlink:href="#me0b81df345" x="105.15" y="125.31288" style="stroke: #000000; stroke-width: 2"/>
      </g>
     </g>
     <g id="line2d_33">
      <g>
       <use xlink:href="#mdebbaeeba8" x="824.911364" y="125.31288" style="stroke: #000000; stroke-width: 2"/>
      </g>
     </g>
     <g id="text_12">
      <!-- 2.5 -->
      <g transform="translate(60.301875 135.190848) scale(0.26 -0.26)">
       <use xlink:href="#DejaVuSerif-32"/>
       <use xlink:href="#DejaVuSerif-2e" x="63.623047"/>
       <use xlink:href="#DejaVuSerif-35" x="95.410156"/>
      </g>
     </g>
    </g>
    <g id="ytick_6">
     <g id="line2d_34">
      <path d="M 105.15 38.606838 
L 824.911364 38.606838 
" clip-path="url(#p8c2d4ee9e0)" style="fill: none; stroke-dasharray: 3.7,1.6; stroke-dashoffset: 0; stroke: #b0b0b0; stroke-opacity: 0.5"/>
     </g>
     <g id="line2d_35">
      <g>
       <use xlink:href="#me0b81df345" x="105.15" y="38.606838" style="stroke: #000000; stroke-width: 2"/>
      </g>
     </g>
     <g id="line2d_36">
      <g>
       <use xlink:href="#mdebbaeeba8" x="824.911364" y="38.606838" style="stroke: #000000; stroke-width: 2"/>
      </g>
     </g>
     <g id="text_13">
      <!-- 3.0 -->
      <g transform="translate(60.301875 48.484807) scale(0.26 -0.26)">
       <defs>
        <path id="DejaVuSerif-33" d="M 622 4469 
Q 988 4606 1323 4678 
Q 1659 4750 1953 4750 
Q 2638 4750 3022 4454 
Q 3406 4159 3406 3634 
Q 3406 3213 3140 2930 
Q 2875 2647 2388 2547 
Q 2963 2466 3280 2130 
Q 3597 1794 3597 1259 
Q 3597 606 3158 257 
Q 2719 -91 1894 -91 
Q 1528 -91 1179 -12 
Q 831 66 488 225 
L 488 1131 
L 838 1131 
Q 869 681 1141 450 
Q 1413 219 1906 219 
Q 2384 219 2661 495 
Q 2938 772 2938 1253 
Q 2938 1803 2653 2086 
Q 2369 2369 1819 2369 
L 1522 2369 
L 1522 2688 
L 1678 2688 
Q 2225 2688 2498 2914 
Q 2772 3141 2772 3597 
Q 2772 4006 2547 4223 
Q 2322 4441 1900 4441 
Q 1478 4441 1245 4241 
Q 1013 4041 972 3647 
L 622 3647 
L 622 4469 
z
" transform="scale(0.015625)"/>
       </defs>
       <use xlink:href="#DejaVuSerif-33"/>
       <use xlink:href="#DejaVuSerif-2e" x="63.623047"/>
       <use xlink:href="#DejaVuSerif-30" x="95.410156"/>
      </g>
     </g>
    </g>
    <g id="text_14">
     <!-- $p_i$ (a.u.) -->
     <g transform="translate(50.894688 307.92625) rotate(-90) scale(0.26 -0.26)">
      <defs>
       <path id="Cmmi10-70" d="M -159 -1241 
Q -219 -1241 -219 -1159 
Q -197 -1019 -134 -1019 
Q 66 -1019 145 -983 
Q 225 -947 269 -800 
L 991 2081 
Q 1038 2200 1038 2388 
Q 1038 2663 850 2663 
Q 650 2663 553 2423 
Q 456 2184 366 1819 
Q 366 1778 313 1778 
L 238 1778 
Q 222 1778 203 1801 
Q 184 1825 184 1844 
Q 253 2122 317 2315 
Q 381 2509 517 2668 
Q 653 2828 856 2828 
Q 1075 2828 1240 2704 
Q 1406 2581 1453 2369 
Q 1628 2572 1840 2700 
Q 2053 2828 2278 2828 
Q 2547 2828 2745 2684 
Q 2944 2541 3044 2308 
Q 3144 2075 3144 1806 
Q 3144 1394 2933 953 
Q 2722 513 2361 220 
Q 2000 -72 1588 -72 
Q 1400 -72 1248 34 
Q 1097 141 1013 313 
L 722 -825 
Q 706 -919 703 -934 
Q 703 -1019 1125 -1019 
Q 1191 -1019 1191 -1100 
Q 1169 -1184 1155 -1212 
Q 1141 -1241 1081 -1241 
L -159 -1241 
z
M 1594 97 
Q 1816 97 2006 280 
Q 2197 463 2316 691 
Q 2403 863 2479 1111 
Q 2556 1359 2612 1640 
Q 2669 1922 2669 2088 
Q 2669 2234 2630 2362 
Q 2591 2491 2502 2577 
Q 2413 2663 2266 2663 
Q 2031 2663 1823 2495 
Q 1616 2328 1447 2081 
L 1447 2059 
L 1094 647 
Q 1138 419 1263 258 
Q 1388 97 1594 97 
z
" transform="scale(0.015625)"/>
       <path id="Cmmi10-69" d="M 500 459 
Q 500 578 550 709 
L 1069 2088 
Q 1153 2322 1153 2472 
Q 1153 2663 1013 2663 
Q 759 2663 595 2402 
Q 431 2141 353 1819 
Q 341 1778 300 1778 
L 225 1778 
Q 172 1778 172 1838 
L 172 1856 
Q 275 2238 487 2533 
Q 700 2828 1025 2828 
Q 1253 2828 1411 2678 
Q 1569 2528 1569 2297 
Q 1569 2178 1516 2047 
L 997 672 
Q 909 459 909 288 
Q 909 97 1056 97 
Q 1306 97 1473 364 
Q 1641 631 1709 941 
Q 1722 978 1759 978 
L 1838 978 
Q 1863 978 1878 961 
Q 1894 944 1894 922 
Q 1894 916 1888 903 
Q 1800 541 1583 234 
Q 1366 -72 1044 -72 
Q 819 -72 659 83 
Q 500 238 500 459 
z
M 1222 3878 
Q 1222 4013 1334 4122 
Q 1447 4231 1581 4231 
Q 1691 4231 1761 4164 
Q 1831 4097 1831 3994 
Q 1831 3850 1717 3742 
Q 1603 3634 1466 3634 
Q 1363 3634 1292 3704 
Q 1222 3775 1222 3878 
z
" transform="scale(0.015625)"/>
      </defs>
      <use xlink:href="#Cmmi10-70" transform="translate(0 0.015625)"/>
      <use xlink:href="#Cmmi10-69" transform="translate(50.292969 -16.990625) scale(0.7)"/>
      <use xlink:href="#DejaVuSerif-20" transform="translate(80.766992 0.015625)"/>
      <use xlink:href="#DejaVuSerif-28" transform="translate(112.554102 0.015625)"/>
      <use xlink:href="#DejaVuSerif-61" transform="translate(151.567773 0.015625)"/>
      <use xlink:href="#DejaVuSerif-2e" transform="translate(211.186914 0.015625)"/>
      <use xlink:href="#DejaVuSerif-75" transform="translate(242.974023 0.015625)"/>
      <use xlink:href="#DejaVuSerif-2e" transform="translate(307.37832 0.015625)"/>
      <use xlink:href="#DejaVuSerif-29" transform="translate(339.16543 0.015625)"/>
     </g>
    </g>
   </g>
   <g id="line2d_37">
    <path d="M 137.866426 85.591519 
L 144.475805 74.050148 
L 151.085183 65.556199 
L 157.694562 63.505947 
L 164.303941 105.834726 
L 170.91332 98.252691 
L 177.522699 103.463892 
L 184.132078 98.09595 
L 190.741457 104.874373 
L 197.350836 109.413463 
L 203.960215 76.530686 
L 210.569594 95.768896 
L 217.178973 107.305849 
L 223.788351 93.438362 
L 230.39773 96.034123 
L 237.007109 67.42088 
L 243.616488 96.64445 
L 250.225867 86.83644 
L 256.835246 85.491589 
L 263.444625 112.677327 
L 270.054004 95.369788 
L 276.663383 98.043085 
L 283.272762 81.498411 
L 289.882141 53.507546 
L 296.49152 74.484063 
L 303.100898 116.25731 
L 309.710277 103.088234 
L 316.319656 54.470738 
L 322.929035 115.307257 
L 329.538414 103.999428 
L 336.147793 63.583226 
L 342.757172 97.809117 
L 349.366551 89.933754 
L 355.97593 58.718691 
L 362.585309 89.689351 
L 369.194688 70.891808 
L 375.804066 85.385117 
L 382.413445 87.039839 
L 389.022824 93.187093 
L 395.632203 105.291222 
L 402.241582 76.190322 
L 408.850961 101.335712 
L 415.46034 80.613601 
L 422.069719 83.317402 
L 428.679098 97.836642 
L 435.288477 75.941444 
L 441.897856 100.592733 
L 448.507235 89.755486 
L 455.116613 86.705538 
L 461.725992 67.67785 
L 468.335371 96.652561 
L 474.94475 99.873128 
L 481.554129 97.122398 
L 488.163508 70.540126 
L 494.772887 96.330009 
L 501.382266 96.598845 
L 507.991645 51.069266 
L 514.601024 100.023342 
L 521.210403 93.229004 
L 527.819781 70.941191 
L 534.42916 92.855036 
L 541.038539 91.842342 
L 547.647918 77.520871 
L 554.257297 103.838176 
L 560.866676 77.241078 
L 567.476055 102.379383 
L 574.085434 95.358481 
L 580.694813 74.165607 
L 587.304192 107.595034 
L 593.913571 92.123746 
L 600.52295 90.012773 
L 607.132328 114.199483 
L 613.741707 82.298392 
L 620.351086 92.086497 
L 626.960465 95.916569 
L 633.569844 95.618898 
L 640.179223 79.62185 
L 646.788602 79.115708 
L 653.397981 72.564994 
L 660.00736 98.35997 
L 666.616739 92.903328 
L 673.226118 65.899259 
L 679.835496 71.438509 
L 686.444875 63.095656 
L 693.054254 103.164805 
L 699.663633 103.791132 
L 706.273012 109.797761 
L 712.882391 96.930866 
L 719.49177 49.041477 
L 726.101149 85.488052 
L 732.710528 102.341416 
L 739.319907 86.704005 
L 745.929286 83.581343 
L 752.538665 78.533271 
L 759.148043 62.124913 
L 765.757422 87.857995 
L 772.366801 98.760471 
L 778.97618 96.422671 
L 785.585559 73.431538 
L 792.194938 93.034542 
" clip-path="url(#p8c2d4ee9e0)" style="fill: none; stroke: #1f77b4; stroke-width: 3; stroke-linecap: square"/>
   </g>
   <g id="line2d_38">
    <path d="M 137.866426 108.630601 
L 144.475805 118.104624 
L 151.085183 101.609721 
L 157.694562 106.23515 
L 164.303941 97.719417 
L 170.91332 100.152311 
L 177.522699 93.216574 
L 184.132078 127.943087 
L 190.741457 96.214571 
L 197.350836 100.01606 
L 203.960215 121.712461 
L 210.569594 126.119012 
L 217.178973 132.015954 
L 223.788351 105.790834 
L 230.39773 122.961621 
L 237.007109 113.663552 
L 243.616488 116.946684 
L 250.225867 97.25609 
L 256.835246 102.797844 
L 263.444625 94.956105 
L 270.054004 143.876081 
L 276.663383 116.531414 
L 283.272762 98.601817 
L 289.882141 96.159984 
L 296.49152 108.929868 
L 303.100898 65.546974 
L 309.710277 127.773671 
L 316.319656 105.208969 
L 322.929035 114.886166 
L 329.538414 115.000666 
L 336.147793 121.661718 
L 342.757172 64.807331 
L 349.366551 95.731933 
L 355.97593 111.841057 
L 362.585309 117.798076 
L 369.194688 123.319389 
L 375.804066 103.123879 
L 382.413445 115.502856 
L 389.022824 89.658269 
L 395.632203 99.906065 
L 402.241582 115.458725 
L 408.850961 115.344763 
L 415.46034 98.544378 
L 422.069719 77.198909 
L 428.679098 114.837955 
L 435.288477 93.251337 
L 441.897856 135.764066 
L 448.507235 122.622995 
L 455.116613 101.259314 
L 461.725992 116.936462 
L 468.335371 101.147466 
L 474.94475 120.844759 
L 481.554129 92.466828 
L 488.163508 104.317175 
L 494.772887 123.56559 
L 501.382266 106.83785 
L 507.991645 107.531428 
L 514.601024 108.680593 
L 521.210403 114.429136 
L 527.819781 120.860718 
L 534.42916 90.854415 
L 541.038539 84.7444 
L 547.647918 114.001096 
L 554.257297 113.427459 
L 560.866676 109.795013 
L 567.476055 92.764064 
L 574.085434 86.302911 
L 580.694813 123.336179 
L 587.304192 111.039096 
L 593.913571 132.079384 
L 600.52295 110.686802 
L 607.132328 95.430961 
L 613.741707 107.785794 
L 620.351086 118.03256 
L 626.960465 107.61936 
L 633.569844 122.010673 
L 640.179223 134.055453 
L 646.788602 122.877629 
L 653.397981 112.765853 
L 660.00736 110.332797 
L 666.616739 99.265883 
L 673.226118 115.02197 
L 679.835496 108.143783 
L 686.444875 131.302552 
L 693.054254 101.493889 
L 699.663633 77.617539 
L 706.273012 109.989027 
L 712.882391 94.975697 
L 719.49177 93.241409 
L 726.101149 137.387003 
L 732.710528 105.921592 
L 739.319907 88.219017 
L 745.929286 127.200713 
L 752.538665 107.604263 
L 759.148043 110.053268 
L 765.757422 110.800277 
L 772.366801 95.095489 
L 778.97618 84.391144 
L 785.585559 120.540138 
L 792.194938 113.228926 
" clip-path="url(#p8c2d4ee9e0)" style="fill: none; stroke-dasharray: 11.1,4.8; stroke-dashoffset: 0; stroke: #ff7f0e; stroke-width: 3"/>
   </g>
   <g id="line2d_39">
    <path d="M 137.866426 442.370536 
L 144.475805 459.509359 
L 151.085183 455.289092 
L 157.694562 454.102349 
L 164.303941 458.271548 
L 170.91332 468.026264 
L 177.522699 468.271023 
L 184.132078 454.521104 
L 190.741457 456.499248 
L 197.350836 455.580844 
L 203.960215 458.984989 
L 210.569594 456.208807 
L 217.178973 463.630106 
L 223.788351 464.520056 
L 230.39773 452.076471 
L 237.007109 454.003673 
L 243.616488 443.775555 
L 250.225867 460.730745 
L 256.835246 446.439061 
L 263.444625 448.56732 
L 270.054004 448.153189 
L 276.663383 461.628868 
L 283.272762 455.29526 
L 289.882141 447.501686 
L 296.49152 440.941183 
L 303.100898 453.041661 
L 309.710277 447.018459 
L 316.319656 447.910522 
L 322.929035 458.662901 
L 329.538414 460.03488 
L 336.147793 443.640523 
L 342.757172 452.38066 
L 349.366551 450.864834 
L 355.97593 440.313406 
L 362.585309 461.521913 
L 369.194688 461.64822 
L 375.804066 450.2988 
L 382.413445 438.226957 
L 389.022824 454.47399 
L 395.632203 455.689484 
L 402.241582 463.130892 
L 408.850961 452.263268 
L 415.46034 454.790802 
L 422.069719 447.788533 
L 428.679098 455.780798 
L 435.288477 440.19326 
L 441.897856 455.350358 
L 448.507235 448.249168 
L 455.116613 450.502915 
L 461.725992 451.500034 
L 468.335371 452.274494 
L 474.94475 463.880835 
L 481.554129 458.276339 
L 488.163508 449.168089 
L 494.772887 454.156328 
L 501.382266 456.234073 
L 507.991645 438.4762 
L 514.601024 441.126547 
L 521.210403 444.289918 
L 527.819781 450.757205 
L 534.42916 463.515275 
L 541.038539 445.042116 
L 547.647918 428.792954 
L 554.257297 457.341234 
L 560.866676 433.812922 
L 567.476055 455.874894 
L 574.085434 454.627318 
L 580.694813 448.288505 
L 587.304192 454.278132 
L 593.913571 439.922915 
L 600.52295 460.130501 
L 607.132328 455.955183 
L 613.741707 445.228359 
L 620.351086 452.671342 
L 626.960465 454.053164 
L 633.569844 458.559273 
L 640.179223 452.584442 
L 646.788602 438.106796 
L 653.397981 437.942544 
L 660.00736 453.824567 
L 666.616739 453.132594 
L 673.226118 440.458461 
L 679.835496 449.905999 
L 686.444875 446.731291 
L 693.054254 458.845369 
L 699.663633 454.317823 
L 706.273012 437.788613 
L 712.882391 445.992256 
L 719.49177 443.21971 
L 726.101149 450.128236 
L 732.710528 453.486688 
L 739.319907 449.130671 
L 745.929286 451.195492 
L 752.538665 444.33226 
L 759.148043 448.114044 
L 765.757422 441.397342 
L 772.366801 435.895601 
L 778.97618 450.088217 
L 785.585559 454.217593 
L 792.194938 452.105865 
" clip-path="url(#p8c2d4ee9e0)" style="fill: none; stroke-dasharray: 19.2,4.8,3,4.8; stroke-dashoffset: 0; stroke: #2ca02c; stroke-width: 3"/>
   </g>
   <g id="patch_3">
    <path d="M 105.15 489.2325 
L 105.15 28.08 
" style="fill: none; stroke: #000000; stroke-width: 2; stroke-linejoin: miter; stroke-linecap: square"/>
   </g>
   <g id="patch_4">
    <path d="M 824.911364 489.2325 
L 824.911364 28.08 
" style="fill: none; stroke: #000000; stroke-width: 2; stroke-linejoin: miter; stroke-linecap: square"/>
   </g>
   <g id="patch_5">
    <path d="M 105.15 489.2325 
L 824.911364 489.2325 
" style="fill: none; stroke: #000000; stroke-width: 2; stroke-linejoin: miter; stroke-linecap: square"/>
   </g>
   <g id="patch_6">
    <path d="M 105.15 28.08 
L 824.911364 28.08 
" style="fill: none; stroke: #000000; stroke-width: 2; stroke-linejoin: miter; stroke-linecap: square"/>
   </g>
  </g>
 </g>
 <defs>
  <clipPath id="p8c2d4ee9e0">
   <rect x="105.15" y="28.08" width="719.761364" height="461.1525"/>
  </clipPath>
 </defs>
</svg>
