<?xml version="1.0" encoding="utf-8" standalone="no"?>
<!DOCTYPE svg PUBLIC "-//W3C//DTD SVG 1.1//EN"
  "http://www.w3.org/Graphics/SVG/1.1/DTD/svg11.dtd">
<svg xmlns:xlink="http://www.w3.org/1999/xlink" width="864pt" height="576pt" viewBox="0 0 864 576" xmlns="http://www.w3.org/2000/svg" version="1.1">
 <metadata>
  <rdf:RDF xmlns:dc="http://purl.org/dc/elements/1.1/" xmlns:cc="http://creativecommons.org/ns#" xmlns:rdf="http://www.w3.org/1999/02/22-rdf-syntax-ns#">
   <cc:Work>
    <dc:type rdf:resource="http://purl.org/dc/dcmitype/StillImage"/>
    <dc:date>2025-06-03T09:02:24.930163</dc:date>
    <dc:format>image/svg+xml</dc:format>
    <dc:creator>
     <cc:Agent>
      <dc:title>Matplotlib v3.7.2, https://matplotlib.org/</dc:title>
     </cc:Agent>
    </dc:creator>
   </cc:Work>
  </rdf:RDF>
 </metadata>
 <defs>
  <style type="text/css">*{stroke-linejoin: round; stroke-linecap: butt}</style>
 </defs>
 <g id="figure_1">
  <g id="patch_1">
   <path d="M 0 576 
L 864 576 
L 864 0 
L 0 0 
z
" style="fill: #ffffff"/>
  </g>
  <g id="axes_1">
   <g id="patch_2">
    <path d="M 121.091625 489.2325 
L 824.911364 489.2325 
L 824.911364 28.08 
L 121.091625 28.08 
z
" style="fill: #ffffff"/>
   </g>
   <g id="matplotlib.axis_1">
    <g id="xtick_1">
     <g id="line2d_1">
      <path d="M 153.083431 489.2325 
L 153.083431 28.08 
" clip-path="url(#p0531d5e487)" style="fill: none; stroke-dasharray: 3.7,1.6; stroke-dashoffset: 0; stroke: #b0b0b0; stroke-opacity: 0.5"/>
     </g>
     <g id="line2d_2">
      <defs>
       <path id="m7972dec5fb" d="M 0 0 
L 0 -10 
" style="stroke: #000000; stroke-width: 2"/>
      </defs>
      <g>
       <use xlink:href="#m7972dec5fb" x="153.083431" y="489.2325" style="stroke: #000000; stroke-width: 2"/>
      </g>
     </g>
     <g id="line2d_3">
      <defs>
       <path id="m6f004b6332" d="M 0 0 
L 0 10 
" style="stroke: #000000; stroke-width: 2"/>
      </defs>
      <g>
       <use xlink:href="#m6f004b6332" x="153.083431" y="28.08" style="stroke: #000000; stroke-width: 2"/>
      </g>
     </g>
     <g id="text_1">
      <!-- 0 -->
      <g transform="translate(144.812181 512.488438) scale(0.26 -0.26)">
       <defs>
        <path id="DejaVuSerif-30" d="M 2034 219 
Q 2513 219 2750 744 
Q 2988 1269 2988 2328 
Q 2988 3391 2750 3916 
Q 2513 4441 2034 4441 
Q 1556 4441 1318 3916 
Q 1081 3391 1081 2328 
Q 1081 1269 1318 744 
Q 1556 219 2034 219 
z
M 2034 -91 
Q 1275 -91 848 546 
Q 422 1184 422 2328 
Q 422 3475 848 4112 
Q 1275 4750 2034 4750 
Q 2797 4750 3222 4112 
Q 3647 3475 3647 2328 
Q 3647 1184 3222 546 
Q 2797 -91 2034 -91 
z
" transform="scale(0.015625)"/>
       </defs>
       <use xlink:href="#DejaVuSerif-30"/>
      </g>
     </g>
    </g>
    <g id="xtick_2">
     <g id="line2d_4">
      <path d="M 281.050657 489.2325 
L 281.050657 28.08 
" clip-path="url(#p0531d5e487)" style="fill: none; stroke-dasharray: 3.7,1.6; stroke-dashoffset: 0; stroke: #b0b0b0; stroke-opacity: 0.5"/>
     </g>
     <g id="line2d_5">
      <g>
       <use xlink:href="#m7972dec5fb" x="281.050657" y="489.2325" style="stroke: #000000; stroke-width: 2"/>
      </g>
     </g>
     <g id="line2d_6">
      <g>
       <use xlink:href="#m6f004b6332" x="281.050657" y="28.08" style="stroke: #000000; stroke-width: 2"/>
      </g>
     </g>
     <g id="text_2">
      <!-- 5000 -->
      <g transform="translate(247.965657 512.488438) scale(0.26 -0.26)">
       <defs>
        <path id="DejaVuSerif-35" d="M 3219 4666 
L 3219 4153 
L 1081 4153 
L 1081 2816 
Q 1244 2928 1461 2984 
Q 1678 3041 1947 3041 
Q 2703 3041 3140 2622 
Q 3578 2203 3578 1478 
Q 3578 738 3136 323 
Q 2694 -91 1894 -91 
Q 1572 -91 1234 -12 
Q 897 66 544 225 
L 544 1131 
L 897 1131 
Q 925 688 1179 453 
Q 1434 219 1894 219 
Q 2388 219 2653 544 
Q 2919 869 2919 1478 
Q 2919 2084 2655 2407 
Q 2391 2731 1894 2731 
Q 1613 2731 1398 2631 
Q 1184 2531 1019 2322 
L 750 2322 
L 750 4666 
L 3219 4666 
z
" transform="scale(0.015625)"/>
       </defs>
       <use xlink:href="#DejaVuSerif-35"/>
       <use xlink:href="#DejaVuSerif-30" x="63.623047"/>
       <use xlink:href="#DejaVuSerif-30" x="127.246094"/>
       <use xlink:href="#DejaVuSerif-30" x="190.869141"/>
      </g>
     </g>
    </g>
    <g id="xtick_3">
     <g id="line2d_7">
      <path d="M 409.017882 489.2325 
L 409.017882 28.08 
" clip-path="url(#p0531d5e487)" style="fill: none; stroke-dasharray: 3.7,1.6; stroke-dashoffset: 0; stroke: #b0b0b0; stroke-opacity: 0.5"/>
     </g>
     <g id="line2d_8">
      <g>
       <use xlink:href="#m7972dec5fb" x="409.017882" y="489.2325" style="stroke: #000000; stroke-width: 2"/>
      </g>
     </g>
     <g id="line2d_9">
      <g>
       <use xlink:href="#m6f004b6332" x="409.017882" y="28.08" style="stroke: #000000; stroke-width: 2"/>
      </g>
     </g>
     <g id="text_3">
      <!-- 10000 -->
      <g transform="translate(367.661632 512.488438) scale(0.26 -0.26)">
       <defs>
        <path id="DejaVuSerif-31" d="M 909 0 
L 909 331 
L 1722 331 
L 1722 4213 
L 781 3603 
L 781 4013 
L 1919 4750 
L 2350 4750 
L 2350 331 
L 3163 331 
L 3163 0 
L 909 0 
z
" transform="scale(0.015625)"/>
       </defs>
       <use xlink:href="#DejaVuSerif-31"/>
       <use xlink:href="#DejaVuSerif-30" x="63.623047"/>
       <use xlink:href="#DejaVuSerif-30" x="127.246094"/>
       <use xlink:href="#DejaVuSerif-30" x="190.869141"/>
       <use xlink:href="#DejaVuSerif-30" x="254.492188"/>
      </g>
     </g>
    </g>
    <g id="xtick_4">
     <g id="line2d_10">
      <path d="M 536.985107 489.2325 
L 536.985107 28.08 
" clip-path="url(#p0531d5e487)" style="fill: none; stroke-dasharray: 3.7,1.6; stroke-dashoffset: 0; stroke: #b0b0b0; stroke-opacity: 0.5"/>
     </g>
     <g id="line2d_11">
      <g>
       <use xlink:href="#m7972dec5fb" x="536.985107" y="489.2325" style="stroke: #000000; stroke-width: 2"/>
      </g>
     </g>
     <g id="line2d_12">
      <g>
       <use xlink:href="#m6f004b6332" x="536.985107" y="28.08" style="stroke: #000000; stroke-width: 2"/>
      </g>
     </g>
     <g id="text_4">
      <!-- 15000 -->
      <g transform="translate(495.628857 512.488438) scale(0.26 -0.26)">
       <use xlink:href="#DejaVuSerif-31"/>
       <use xlink:href="#DejaVuSerif-35" x="63.623047"/>
       <use xlink:href="#DejaVuSerif-30" x="127.246094"/>
       <use xlink:href="#DejaVuSerif-30" x="190.869141"/>
       <use xlink:href="#DejaVuSerif-30" x="254.492188"/>
      </g>
     </g>
    </g>
    <g id="xtick_5">
     <g id="line2d_13">
      <path d="M 664.952332 489.2325 
L 664.952332 28.08 
" clip-path="url(#p0531d5e487)" style="fill: none; stroke-dasharray: 3.7,1.6; stroke-dashoffset: 0; stroke: #b0b0b0; stroke-opacity: 0.5"/>
     </g>
     <g id="line2d_14">
      <g>
       <use xlink:href="#m7972dec5fb" x="664.952332" y="489.2325" style="stroke: #000000; stroke-width: 2"/>
      </g>
     </g>
     <g id="line2d_15">
      <g>
       <use xlink:href="#m6f004b6332" x="664.952332" y="28.08" style="stroke: #000000; stroke-width: 2"/>
      </g>
     </g>
     <g id="text_5">
      <!-- 20000 -->
      <g transform="translate(623.596082 512.488438) scale(0.26 -0.26)">
       <defs>
        <path id="DejaVuSerif-32" d="M 819 3553 
L 469 3553 
L 469 4384 
Q 803 4563 1142 4656 
Q 1481 4750 1806 4750 
Q 2534 4750 2956 4397 
Q 3378 4044 3378 3438 
Q 3378 2753 2422 1800 
Q 2347 1728 2309 1691 
L 1131 513 
L 3078 513 
L 3078 1088 
L 3444 1088 
L 3444 0 
L 434 0 
L 434 341 
L 1850 1753 
Q 2319 2222 2519 2614 
Q 2719 3006 2719 3438 
Q 2719 3909 2473 4175 
Q 2228 4441 1797 4441 
Q 1350 4441 1106 4219 
Q 863 3997 819 3553 
z
" transform="scale(0.015625)"/>
       </defs>
       <use xlink:href="#DejaVuSerif-32"/>
       <use xlink:href="#DejaVuSerif-30" x="63.623047"/>
       <use xlink:href="#DejaVuSerif-30" x="127.246094"/>
       <use xlink:href="#DejaVuSerif-30" x="190.869141"/>
       <use xlink:href="#DejaVuSerif-30" x="254.492188"/>
      </g>
     </g>
    </g>
    <g id="xtick_6">
     <g id="line2d_16">
      <path d="M 792.919557 489.2325 
L 792.919557 28.08 
" clip-path="url(#p0531d5e487)" style="fill: none; stroke-dasharray: 3.7,1.6; stroke-dashoffset: 0; stroke: #b0b0b0; stroke-opacity: 0.5"/>
     </g>
     <g id="line2d_17">
      <g>
       <use xlink:href="#m7972dec5fb" x="792.919557" y="489.2325" style="stroke: #000000; stroke-width: 2"/>
      </g>
     </g>
     <g id="line2d_18">
      <g>
       <use xlink:href="#m6f004b6332" x="792.919557" y="28.08" style="stroke: #000000; stroke-width: 2"/>
      </g>
     </g>
     <g id="text_6">
      <!-- 25000 -->
      <g transform="translate(751.563307 512.488438) scale(0.26 -0.26)">
       <use xlink:href="#DejaVuSerif-32"/>
       <use xlink:href="#DejaVuSerif-35" x="63.623047"/>
       <use xlink:href="#DejaVuSerif-30" x="127.246094"/>
       <use xlink:href="#DejaVuSerif-30" x="190.869141"/>
       <use xlink:href="#DejaVuSerif-30" x="254.492188"/>
      </g>
     </g>
    </g>
    <g id="text_7">
     <!-- $t$ (a.u.) -->
     <g transform="translate(429.581494 541.651562) scale(0.26 -0.26)">
      <defs>
       <path id="Cmmi10-74" d="M 397 519 
Q 397 613 416 697 
L 878 2534 
L 206 2534 
Q 141 2534 141 2619 
Q 166 2759 225 2759 
L 934 2759 
L 1191 3803 
Q 1216 3888 1291 3947 
Q 1366 4006 1459 4006 
Q 1541 4006 1595 3957 
Q 1650 3909 1650 3828 
Q 1650 3809 1648 3798 
Q 1647 3788 1644 3775 
L 1388 2759 
L 2047 2759 
Q 2113 2759 2113 2675 
Q 2109 2659 2100 2621 
Q 2091 2584 2075 2559 
Q 2059 2534 2028 2534 
L 1331 2534 
L 872 684 
Q 825 503 825 372 
Q 825 97 1013 97 
Q 1294 97 1511 361 
Q 1728 625 1844 941 
Q 1869 978 1894 978 
L 1972 978 
Q 1997 978 2012 961 
Q 2028 944 2028 922 
Q 2028 909 2022 903 
Q 1881 516 1612 222 
Q 1344 -72 997 -72 
Q 744 -72 570 93 
Q 397 259 397 519 
z
" transform="scale(0.015625)"/>
       <path id="DejaVuSerif-20" transform="scale(0.015625)"/>
       <path id="DejaVuSerif-28" d="M 2041 -997 
Q 1281 -656 893 83 
Q 506 822 506 1931 
Q 506 3044 893 3783 
Q 1281 4522 2041 4863 
L 2041 4556 
Q 1559 4225 1350 3623 
Q 1141 3022 1141 1931 
Q 1141 844 1350 242 
Q 1559 -359 2041 -691 
L 2041 -997 
z
" transform="scale(0.015625)"/>
       <path id="DejaVuSerif-61" d="M 2547 1044 
L 2547 1747 
L 1806 1747 
Q 1378 1747 1168 1562 
Q 959 1378 959 997 
Q 959 650 1171 447 
Q 1384 244 1747 244 
Q 2106 244 2326 466 
Q 2547 688 2547 1044 
z
M 3122 2075 
L 3122 331 
L 3634 331 
L 3634 0 
L 2547 0 
L 2547 359 
Q 2356 128 2106 18 
Q 1856 -91 1522 -91 
Q 969 -91 644 203 
Q 319 497 319 997 
Q 319 1513 691 1797 
Q 1063 2081 1741 2081 
L 2547 2081 
L 2547 2309 
Q 2547 2688 2317 2895 
Q 2088 3103 1672 3103 
Q 1328 3103 1125 2947 
Q 922 2791 872 2484 
L 575 2484 
L 575 3156 
Q 875 3284 1158 3348 
Q 1441 3413 1709 3413 
Q 2400 3413 2761 3070 
Q 3122 2728 3122 2075 
z
" transform="scale(0.015625)"/>
       <path id="DejaVuSerif-2e" d="M 603 325 
Q 603 500 722 622 
Q 841 744 1019 744 
Q 1191 744 1312 622 
Q 1434 500 1434 325 
Q 1434 153 1312 31 
Q 1191 -91 1019 -91 
Q 841 -91 722 29 
Q 603 150 603 325 
z
" transform="scale(0.015625)"/>
       <path id="DejaVuSerif-75" d="M 2266 3322 
L 3341 3322 
L 3341 331 
L 3884 331 
L 3884 0 
L 2766 0 
L 2766 588 
Q 2606 256 2353 82 
Q 2100 -91 1766 -91 
Q 1213 -91 952 223 
Q 691 538 691 1209 
L 691 2988 
L 172 2988 
L 172 3322 
L 1269 3322 
L 1269 1388 
Q 1269 781 1417 556 
Q 1566 331 1947 331 
Q 2347 331 2556 625 
Q 2766 919 2766 1478 
L 2766 2988 
L 2266 2988 
L 2266 3322 
z
" transform="scale(0.015625)"/>
       <path id="DejaVuSerif-29" d="M 453 -997 
L 453 -691 
Q 934 -359 1145 242 
Q 1356 844 1356 1931 
Q 1356 3022 1145 3623 
Q 934 4225 453 4556 
L 453 4863 
Q 1216 4522 1603 3783 
Q 1991 3044 1991 1931 
Q 1991 822 1603 83 
Q 1216 -656 453 -997 
z
" transform="scale(0.015625)"/>
      </defs>
      <use xlink:href="#Cmmi10-74" transform="translate(0 0.015625)"/>
      <use xlink:href="#DejaVuSerif-20" transform="translate(36.083984 0.015625)"/>
      <use xlink:href="#DejaVuSerif-28" transform="translate(67.871094 0.015625)"/>
      <use xlink:href="#DejaVuSerif-61" transform="translate(106.884766 0.015625)"/>
      <use xlink:href="#DejaVuSerif-2e" transform="translate(166.503906 0.015625)"/>
      <use xlink:href="#DejaVuSerif-75" transform="translate(198.291016 0.015625)"/>
      <use xlink:href="#DejaVuSerif-2e" transform="translate(262.695312 0.015625)"/>
      <use xlink:href="#DejaVuSerif-29" transform="translate(294.482422 0.015625)"/>
     </g>
    </g>
   </g>
   <g id="matplotlib.axis_2">
    <g id="ytick_1">
     <g id="line2d_19">
      <path d="M 121.091625 420.342886 
L 824.911364 420.342886 
" clip-path="url(#p0531d5e487)" style="fill: none; stroke-dasharray: 3.7,1.6; stroke-dashoffset: 0; stroke: #b0b0b0; stroke-opacity: 0.5"/>
     </g>
     <g id="line2d_20">
      <defs>
       <path id="me490851c32" d="M 0 0 
L 10 0 
" style="stroke: #000000; stroke-width: 2"/>
      </defs>
      <g>
       <use xlink:href="#me490851c32" x="121.091625" y="420.342886" style="stroke: #000000; stroke-width: 2"/>
      </g>
     </g>
     <g id="line2d_21">
      <defs>
       <path id="m85405214d3" d="M 0 0 
L -10 0 
" style="stroke: #000000; stroke-width: 2"/>
      </defs>
      <g>
       <use xlink:href="#m85405214d3" x="824.911364" y="420.342886" style="stroke: #000000; stroke-width: 2"/>
      </g>
     </g>
     <g id="text_8">
      <!-- 0.50 -->
      <g transform="translate(59.701 430.220854) scale(0.26 -0.26)">
       <use xlink:href="#DejaVuSerif-30"/>
       <use xlink:href="#DejaVuSerif-2e" x="63.623047"/>
       <use xlink:href="#DejaVuSerif-35" x="95.410156"/>
       <use xlink:href="#DejaVuSerif-30" x="159.033203"/>
      </g>
     </g>
    </g>
    <g id="ytick_2">
     <g id="line2d_22">
      <path d="M 121.091625 351.30335 
L 824.911364 351.30335 
" clip-path="url(#p0531d5e487)" style="fill: none; stroke-dasharray: 3.7,1.6; stroke-dashoffset: 0; stroke: #b0b0b0; stroke-opacity: 0.5"/>
     </g>
     <g id="line2d_23">
      <g>
       <use xlink:href="#me490851c32" x="121.091625" y="351.30335" style="stroke: #000000; stroke-width: 2"/>
      </g>
     </g>
     <g id="line2d_24">
      <g>
       <use xlink:href="#m85405214d3" x="824.911364" y="351.30335" style="stroke: #000000; stroke-width: 2"/>
      </g>
     </g>
     <g id="text_9">
      <!-- 0.75 -->
      <g transform="translate(59.701 361.181319) scale(0.26 -0.26)">
       <defs>
        <path id="DejaVuSerif-37" d="M 3609 4347 
L 1784 0 
L 1319 0 
L 3059 4153 
L 903 4153 
L 903 3578 
L 538 3578 
L 538 4666 
L 3609 4666 
L 3609 4347 
z
" transform="scale(0.015625)"/>
       </defs>
       <use xlink:href="#DejaVuSerif-30"/>
       <use xlink:href="#DejaVuSerif-2e" x="63.623047"/>
       <use xlink:href="#DejaVuSerif-37" x="95.410156"/>
       <use xlink:href="#DejaVuSerif-35" x="159.033203"/>
      </g>
     </g>
    </g>
    <g id="ytick_3">
     <g id="line2d_25">
      <path d="M 121.091625 282.263815 
L 824.911364 282.263815 
" clip-path="url(#p0531d5e487)" style="fill: none; stroke-dasharray: 3.7,1.6; stroke-dashoffset: 0; stroke: #b0b0b0; stroke-opacity: 0.5"/>
     </g>
     <g id="line2d_26">
      <g>
       <use xlink:href="#me490851c32" x="121.091625" y="282.263815" style="stroke: #000000; stroke-width: 2"/>
      </g>
     </g>
     <g id="line2d_27">
      <g>
       <use xlink:href="#m85405214d3" x="824.911364" y="282.263815" style="stroke: #000000; stroke-width: 2"/>
      </g>
     </g>
     <g id="text_10">
      <!-- 1.00 -->
      <g transform="translate(59.701 292.141784) scale(0.26 -0.26)">
       <use xlink:href="#DejaVuSerif-31"/>
       <use xlink:href="#DejaVuSerif-2e" x="63.623047"/>
       <use xlink:href="#DejaVuSerif-30" x="95.410156"/>
       <use xlink:href="#DejaVuSerif-30" x="159.033203"/>
      </g>
     </g>
    </g>
    <g id="ytick_4">
     <g id="line2d_28">
      <path d="M 121.091625 213.22428 
L 824.911364 213.22428 
" clip-path="url(#p0531d5e487)" style="fill: none; stroke-dasharray: 3.7,1.6; stroke-dashoffset: 0; stroke: #b0b0b0; stroke-opacity: 0.5"/>
     </g>
     <g id="line2d_29">
      <g>
       <use xlink:href="#me490851c32" x="121.091625" y="213.22428" style="stroke: #000000; stroke-width: 2"/>
      </g>
     </g>
     <g id="line2d_30">
      <g>
       <use xlink:href="#m85405214d3" x="824.911364" y="213.22428" style="stroke: #000000; stroke-width: 2"/>
      </g>
     </g>
     <g id="text_11">
      <!-- 1.25 -->
      <g transform="translate(59.701 223.102249) scale(0.26 -0.26)">
       <use xlink:href="#DejaVuSerif-31"/>
       <use xlink:href="#DejaVuSerif-2e" x="63.623047"/>
       <use xlink:href="#DejaVuSerif-32" x="95.410156"/>
       <use xlink:href="#DejaVuSerif-35" x="159.033203"/>
      </g>
     </g>
    </g>
    <g id="ytick_5">
     <g id="line2d_31">
      <path d="M 121.091625 144.184745 
L 824.911364 144.184745 
" clip-path="url(#p0531d5e487)" style="fill: none; stroke-dasharray: 3.7,1.6; stroke-dashoffset: 0; stroke: #b0b0b0; stroke-opacity: 0.5"/>
     </g>
     <g id="line2d_32">
      <g>
       <use xlink:href="#me490851c32" x="121.091625" y="144.184745" style="stroke: #000000; stroke-width: 2"/>
      </g>
     </g>
     <g id="line2d_33">
      <g>
       <use xlink:href="#m85405214d3" x="824.911364" y="144.184745" style="stroke: #000000; stroke-width: 2"/>
      </g>
     </g>
     <g id="text_12">
      <!-- 1.50 -->
      <g transform="translate(59.701 154.062714) scale(0.26 -0.26)">
       <use xlink:href="#DejaVuSerif-31"/>
       <use xlink:href="#DejaVuSerif-2e" x="63.623047"/>
       <use xlink:href="#DejaVuSerif-35" x="95.410156"/>
       <use xlink:href="#DejaVuSerif-30" x="159.033203"/>
      </g>
     </g>
    </g>
    <g id="ytick_6">
     <g id="line2d_34">
      <path d="M 121.091625 75.14521 
L 824.911364 75.14521 
" clip-path="url(#p0531d5e487)" style="fill: none; stroke-dasharray: 3.7,1.6; stroke-dashoffset: 0; stroke: #b0b0b0; stroke-opacity: 0.5"/>
     </g>
     <g id="line2d_35">
      <g>
       <use xlink:href="#me490851c32" x="121.091625" y="75.14521" style="stroke: #000000; stroke-width: 2"/>
      </g>
     </g>
     <g id="line2d_36">
      <g>
       <use xlink:href="#m85405214d3" x="824.911364" y="75.14521" style="stroke: #000000; stroke-width: 2"/>
      </g>
     </g>
     <g id="text_13">
      <!-- 1.75 -->
      <g transform="translate(59.701 85.023178) scale(0.26 -0.26)">
       <use xlink:href="#DejaVuSerif-31"/>
       <use xlink:href="#DejaVuSerif-2e" x="63.623047"/>
       <use xlink:href="#DejaVuSerif-37" x="95.410156"/>
       <use xlink:href="#DejaVuSerif-35" x="159.033203"/>
      </g>
     </g>
    </g>
    <g id="text_14">
     <!-- $r_i$ (a.u.) -->
     <g transform="translate(50.293813 307.27625) rotate(-90) scale(0.26 -0.26)">
      <defs>
       <path id="Cmmi10-72" d="M 494 109 
Q 494 147 500 166 
L 978 2075 
Q 1025 2253 1025 2388 
Q 1025 2663 838 2663 
Q 638 2663 541 2423 
Q 444 2184 353 1819 
Q 353 1800 334 1789 
Q 316 1778 300 1778 
L 225 1778 
Q 203 1778 187 1801 
Q 172 1825 172 1844 
Q 241 2122 305 2315 
Q 369 2509 505 2668 
Q 641 2828 844 2828 
Q 1066 2828 1233 2700 
Q 1400 2572 1441 2363 
Q 1603 2575 1811 2701 
Q 2019 2828 2266 2828 
Q 2469 2828 2623 2709 
Q 2778 2591 2778 2388 
Q 2778 2225 2676 2104 
Q 2575 1984 2406 1984 
Q 2303 1984 2233 2048 
Q 2163 2113 2163 2216 
Q 2163 2356 2266 2467 
Q 2369 2578 2503 2578 
Q 2400 2663 2253 2663 
Q 1978 2663 1775 2467 
Q 1572 2272 1409 1972 
L 953 141 
Q 931 53 854 -9 
Q 778 -72 684 -72 
Q 606 -72 550 -22 
Q 494 28 494 109 
z
" transform="scale(0.015625)"/>
       <path id="Cmmi10-69" d="M 500 459 
Q 500 578 550 709 
L 1069 2088 
Q 1153 2322 1153 2472 
Q 1153 2663 1013 2663 
Q 759 2663 595 2402 
Q 431 2141 353 1819 
Q 341 1778 300 1778 
L 225 1778 
Q 172 1778 172 1838 
L 172 1856 
Q 275 2238 487 2533 
Q 700 2828 1025 2828 
Q 1253 2828 1411 2678 
Q 1569 2528 1569 2297 
Q 1569 2178 1516 2047 
L 997 672 
Q 909 459 909 288 
Q 909 97 1056 97 
Q 1306 97 1473 364 
Q 1641 631 1709 941 
Q 1722 978 1759 978 
L 1838 978 
Q 1863 978 1878 961 
Q 1894 944 1894 922 
Q 1894 916 1888 903 
Q 1800 541 1583 234 
Q 1366 -72 1044 -72 
Q 819 -72 659 83 
Q 500 238 500 459 
z
M 1222 3878 
Q 1222 4013 1334 4122 
Q 1447 4231 1581 4231 
Q 1691 4231 1761 4164 
Q 1831 4097 1831 3994 
Q 1831 3850 1717 3742 
Q 1603 3634 1466 3634 
Q 1363 3634 1292 3704 
Q 1222 3775 1222 3878 
z
" transform="scale(0.015625)"/>
      </defs>
      <use xlink:href="#Cmmi10-72" transform="translate(0 0.015625)"/>
      <use xlink:href="#Cmmi10-69" transform="translate(45.117188 -16.990625) scale(0.7)"/>
      <use xlink:href="#DejaVuSerif-20" transform="translate(75.591211 0.015625)"/>
      <use xlink:href="#DejaVuSerif-28" transform="translate(107.37832 0.015625)"/>
      <use xlink:href="#DejaVuSerif-61" transform="translate(146.391992 0.015625)"/>
      <use xlink:href="#DejaVuSerif-2e" transform="translate(206.011133 0.015625)"/>
      <use xlink:href="#DejaVuSerif-75" transform="translate(237.798242 0.015625)"/>
      <use xlink:href="#DejaVuSerif-2e" transform="translate(302.202539 0.015625)"/>
      <use xlink:href="#DejaVuSerif-29" transform="translate(333.989648 0.015625)"/>
     </g>
    </g>
   </g>
   <g id="line2d_37">
    <path d="M 153.083431 461.597333 
L 159.546422 463.584296 
L 166.009414 465.016244 
L 172.472405 466.400124 
L 178.935396 458.6207 
L 185.398387 458.766796 
L 191.861378 458.199176 
L 198.32437 458.306747 
L 204.787361 456.793028 
L 211.250352 456.804722 
L 217.713343 463.49447 
L 224.176334 460.057054 
L 230.639325 456.62158 
L 237.102317 458.938512 
L 243.565308 459.342748 
L 250.028299 464.094922 
L 256.49129 459.644988 
L 262.954281 461.20004 
L 269.417272 461.873885 
L 275.880264 455.630662 
L 282.343255 459.171491 
L 288.806246 457.269121 
L 295.269237 460.589592 
L 301.732228 467.824584 
L 308.195219 464.725845 
L 314.658211 455.505002 
L 321.121202 457.604628 
L 327.584193 467.093473 
L 334.047184 456.426712 
L 340.510175 457.458065 
L 346.973166 465.528093 
L 353.436158 458.745839 
L 359.899149 460.620987 
L 366.36214 466.095824 
L 372.825131 460.416626 
L 379.288122 464.213383 
L 385.751113 460.568006 
L 392.214105 460.839529 
L 398.677096 461.478842 
L 405.140087 457.973451 
L 411.603078 464.116069 
L 418.066069 459.74976 
L 424.529061 462.593306 
L 430.992052 460.300307 
L 437.455043 458.524961 
L 443.918034 462.811745 
L 450.381025 459.646115 
L 456.844016 461.16471 
L 463.307008 460.507673 
L 469.769999 466.211897 
L 476.23299 458.940179 
L 482.695981 458.728815 
L 489.158972 459.122683 
L 495.621963 464.796053 
L 502.084955 459.671949 
L 508.547946 459.141712 
L 515.010937 467.763601 
L 521.473928 458.466308 
L 527.936919 461.169067 
L 534.39991 462.945654 
L 540.862902 460.057313 
L 547.325893 459.442408 
L 553.788884 463.376824 
L 560.251875 457.796707 
L 566.714866 464.064579 
L 573.177857 458.389962 
L 579.640849 460.104092 
L 586.10384 462.839915 
L 592.566831 456.242127 
L 599.029822 460.029807 
L 605.492813 461.486928 
L 611.955805 454.913316 
L 618.418796 462.961552 
L 624.881787 459.150683 
L 631.344778 458.195617 
L 637.807769 458.204838 
L 644.27076 462.921349 
L 650.733752 462.261677 
L 657.196743 463.819081 
L 663.659734 458.728359 
L 670.122725 460.234063 
L 676.585716 465.210053 
L 683.048707 464.233486 
L 689.511699 465.863412 
L 695.97469 458.571763 
L 702.437681 456.588953 
L 708.900672 456.912945 
L 715.363663 458.952327 
L 721.826654 468.271023 
L 728.289646 461.960069 
L 734.752637 458.661504 
L 741.215628 461.326934 
L 747.678619 461.585142 
L 754.14161 462.600867 
L 760.604601 466.206878 
L 767.067593 462.064292 
L 773.530584 459.603534 
L 779.993575 458.60775 
L 786.456566 464.260517 
L 792.919557 460.842332 
" clip-path="url(#p0531d5e487)" style="fill: none; stroke: #1f77b4; stroke-width: 3; stroke-linecap: square"/>
   </g>
   <g id="line2d_38">
    <path d="M 153.083431 457.002014 
L 159.546422 454.003953 
L 166.009414 457.599484 
L 172.472405 458.11032 
L 178.935396 458.931909 
L 185.398387 459.617038 
L 191.861378 459.629549 
L 198.32437 453.220495 
L 204.787361 459.99527 
L 211.250352 458.95053 
L 217.713343 455.181234 
L 224.176334 454.121303 
L 230.639325 450.742036 
L 237.102317 457.895948 
L 243.565308 451.719855 
L 250.028299 456.587632 
L 256.49129 455.555126 
L 262.954281 458.65393 
L 269.417272 457.482906 
L 275.880264 459.706731 
L 282.343255 448.795731 
L 288.806246 455.262094 
L 295.269237 459.17759 
L 301.732228 458.383481 
L 308.195219 456.359025 
L 314.658211 465.658624 
L 321.121202 453.596687 
L 327.584193 458.039269 
L 334.047184 455.951586 
L 340.510175 455.828515 
L 346.973166 453.846407 
L 353.436158 465.262988 
L 359.899149 460.059474 
L 366.36214 456.556193 
L 372.825131 453.9485 
L 379.288122 453.115662 
L 385.751113 457.84947 
L 392.214105 455.282679 
L 398.677096 461.533214 
L 405.140087 459.417823 
L 411.603078 456.19328 
L 418.066069 455.516803 
L 424.529061 460.355219 
L 430.992052 462.603275 
L 437.455043 455.758866 
L 443.918034 460.075138 
L 450.381025 449.932908 
L 456.844016 454.27343 
L 463.307008 458.955288 
L 469.769999 454.14748 
L 476.23299 457.906082 
L 482.695981 455.492591 
L 489.158972 461.206266 
L 495.621963 457.922046 
L 502.084955 452.987658 
L 508.547946 458.788316 
L 515.010937 457.95549 
L 521.473928 456.387175 
L 527.936919 456.637053 
L 534.39991 454.179227 
L 540.862902 461.44039 
L 547.325893 462.228962 
L 553.788884 455.242735 
L 560.251875 456.426606 
L 566.714866 455.683983 
L 573.177857 459.607628 
L 579.640849 462.519354 
L 586.10384 453.876591 
L 592.566831 456.096318 
L 599.029822 452.233874 
L 605.492813 456.630783 
L 611.955805 458.864786 
L 618.418796 456.282491 
L 624.881787 454.330054 
L 631.344778 457.385341 
L 637.807769 454.040556 
L 644.27076 451.836779 
L 650.733752 453.522103 
L 657.196743 456.811918 
L 663.659734 456.743881 
L 670.122725 459.656473 
L 676.585716 456.385151 
L 683.048707 456.123126 
L 689.511699 452.524579 
L 695.97469 457.387353 
L 702.437681 463.402433 
L 708.900672 456.514998 
L 715.363663 458.473871 
L 721.826654 460.174033 
L 728.289646 449.956819 
L 734.752637 457.64417 
L 741.215628 461.188855 
L 747.678619 452.315429 
L 754.14161 455.343255 
L 760.604601 457.119976 
L 767.067593 455.930797 
L 773.530584 459.738133 
L 779.993575 462.585633 
L 786.456566 453.563088 
L 792.919557 456.154327 
" clip-path="url(#p0531d5e487)" style="fill: none; stroke-dasharray: 11.1,4.8; stroke-dashoffset: 0; stroke: #ff7f0e; stroke-width: 3"/>
   </g>
   <g id="line2d_39">
    <path d="M 153.083431 160.219185 
L 159.546422 91.075749 
L 166.009414 116.057593 
L 172.472405 118.079034 
L 178.935396 82.513293 
L 185.398387 49.041477 
L 191.861378 63.740109 
L 198.32437 114.032037 
L 204.787361 84.501028 
L 211.250352 138.452494 
L 217.713343 85.880944 
L 224.176334 93.682393 
L 230.639325 81.227656 
L 237.102317 78.891036 
L 243.565308 131.23695 
L 250.028299 105.262728 
L 256.49129 154.37347 
L 262.954281 70.007704 
L 269.417272 100.72017 
L 275.880264 148.529327 
L 282.343255 129.968419 
L 288.806246 88.602658 
L 295.269237 119.706494 
L 301.732228 157.230812 
L 308.195219 146.954402 
L 314.658211 107.178248 
L 321.121202 117.801606 
L 327.584193 158.426119 
L 334.047184 80.488125 
L 340.510175 88.679764 
L 346.973166 140.976174 
L 353.436158 126.239944 
L 359.899149 114.986579 
L 366.36214 153.596032 
L 372.825131 109.239418 
L 379.288122 82.878607 
L 385.751113 144.911251 
L 392.214105 138.068305 
L 398.677096 136.351773 
L 405.140087 88.2047 
L 411.603078 92.903289 
L 418.066069 121.375524 
L 424.529061 134.352315 
L 430.992052 142.030534 
L 437.455043 118.428398 
L 443.918034 151.414862 
L 450.381025 118.756345 
L 456.844016 138.946089 
L 463.307008 112.988035 
L 469.769999 142.796171 
L 476.23299 133.685441 
L 482.695981 99.642822 
L 489.158972 109.455596 
L 495.621963 109.851418 
L 502.084955 94.743603 
L 508.547946 116.921486 
L 515.010937 176.682863 
L 521.473928 133.555461 
L 527.936919 133.792686 
L 534.39991 128.210164 
L 540.862902 95.237902 
L 547.325893 146.113502 
L 553.788884 189.711367 
L 560.251875 109.37544 
L 566.714866 184.838915 
L 573.177857 103.394611 
L 579.640849 123.190194 
L 586.10384 130.595495 
L 592.566831 127.361678 
L 599.029822 166.378127 
L 605.492813 98.043994 
L 611.955805 116.342216 
L 618.418796 150.339533 
L 624.881787 121.235127 
L 631.344778 123.183736 
L 637.807769 98.732032 
L 644.27076 119.785461 
L 650.733752 153.506943 
L 657.196743 150.061717 
L 663.659734 108.472674 
L 670.122725 117.46718 
L 676.585716 149.602145 
L 683.048707 152.368821 
L 689.511699 141.614327 
L 695.97469 93.80194 
L 702.437681 122.208329 
L 708.900672 144.902528 
L 715.363663 143.412424 
L 721.826654 155.435487 
L 728.289646 126.111668 
L 734.752637 96.66551 
L 741.215628 132.904579 
L 747.678619 135.87384 
L 754.14161 147.220186 
L 760.604601 145.283735 
L 767.067593 132.172495 
L 773.530584 168.535844 
L 779.993575 127.797117 
L 786.456566 104.951064 
L 792.919557 128.327768 
" clip-path="url(#p0531d5e487)" style="fill: none; stroke-dasharray: 19.2,4.8,3,4.8; stroke-dashoffset: 0; stroke: #2ca02c; stroke-width: 3"/>
   </g>
   <g id="patch_3">
    <path d="M 121.091625 489.2325 
L 121.091625 28.08 
" style="fill: none; stroke: #000000; stroke-width: 2; stroke-linejoin: miter; stroke-linecap: square"/>
   </g>
   <g id="patch_4">
    <path d="M 824.911364 489.2325 
L 824.911364 28.08 
" style="fill: none; stroke: #000000; stroke-width: 2; stroke-linejoin: miter; stroke-linecap: square"/>
   </g>
   <g id="patch_5">
    <path d="M 121.091625 489.2325 
L 824.911364 489.2325 
" style="fill: none; stroke: #000000; stroke-width: 2; stroke-linejoin: miter; stroke-linecap: square"/>
   </g>
   <g id="patch_6">
    <path d="M 121.091625 28.08 
L 824.911364 28.08 
" style="fill: none; stroke: #000000; stroke-width: 2; stroke-linejoin: miter; stroke-linecap: square"/>
   </g>
  </g>
 </g>
 <defs>
  <clipPath id="p0531d5e487">
   <rect x="121.091625" y="28.08" width="703.819739" height="461.1525"/>
  </clipPath>
 </defs>
</svg>
