<?xml version="1.0" encoding="utf-8" standalone="no"?>
<!DOCTYPE svg PUBLIC "-//W3C//DTD SVG 1.1//EN"
  "http://www.w3.org/Graphics/SVG/1.1/DTD/svg11.dtd">
<svg xmlns:xlink="http://www.w3.org/1999/xlink" width="720pt" height="504pt" viewBox="0 0 720 504" xmlns="http://www.w3.org/2000/svg" version="1.1">
 <metadata>
  <rdf:RDF xmlns:dc="http://purl.org/dc/elements/1.1/" xmlns:cc="http://creativecommons.org/ns#" xmlns:rdf="http://www.w3.org/1999/02/22-rdf-syntax-ns#">
   <cc:Work>
    <dc:type rdf:resource="http://purl.org/dc/dcmitype/StillImage"/>
    <dc:date>2025-06-05T17:19:03.694185</dc:date>
    <dc:format>image/svg+xml</dc:format>
    <dc:creator>
     <cc:Agent>
      <dc:title>Matplotlib v3.7.2, https://matplotlib.org/</dc:title>
     </cc:Agent>
    </dc:creator>
   </cc:Work>
  </rdf:RDF>
 </metadata>
 <defs>
  <style type="text/css">*{stroke-linejoin: round; stroke-linecap: butt}</style>
 </defs>
 <g id="figure_1">
  <g id="patch_1">
   <path d="M 0 504 
L 720 504 
L 720 0 
L 0 0 
z
" style="fill: #ffffff"/>
  </g>
  <g id="axes_1">
   <g id="patch_2">
    <path d="M 120 417.2325 
L 691.92 417.2325 
L 691.92 28.875915 
L 120 28.875915 
z
" style="fill: #ffffff"/>
   </g>
   <g id="matplotlib.axis_1">
    <g id="xtick_1">
     <g id="line2d_1">
      <path d="M 145.996364 417.2325 
L 145.996364 28.875915 
" clip-path="url(#pf213bc0e75)" style="fill: none; stroke-dasharray: 3.7,1.6; stroke-dashoffset: 0; stroke: #b0b0b0; stroke-opacity: 0.5"/>
     </g>
     <g id="line2d_2">
      <defs>
       <path id="m0c68d080b6" d="M 0 0 
L 0 -10 
" style="stroke: #000000; stroke-width: 2"/>
      </defs>
      <g>
       <use xlink:href="#m0c68d080b6" x="145.996364" y="417.2325" style="stroke: #000000; stroke-width: 2"/>
      </g>
     </g>
     <g id="line2d_3">
      <defs>
       <path id="m7c681db5ce" d="M 0 0 
L 0 10 
" style="stroke: #000000; stroke-width: 2"/>
      </defs>
      <g>
       <use xlink:href="#m7c681db5ce" x="145.996364" y="28.875915" style="stroke: #000000; stroke-width: 2"/>
      </g>
     </g>
     <g id="text_1">
      <!-- 0 -->
      <g transform="translate(137.725114 440.488438) scale(0.26 -0.26)">
       <defs>
        <path id="DejaVuSerif-30" d="M 2034 219 
Q 2513 219 2750 744 
Q 2988 1269 2988 2328 
Q 2988 3391 2750 3916 
Q 2513 4441 2034 4441 
Q 1556 4441 1318 3916 
Q 1081 3391 1081 2328 
Q 1081 1269 1318 744 
Q 1556 219 2034 219 
z
M 2034 -91 
Q 1275 -91 848 546 
Q 422 1184 422 2328 
Q 422 3475 848 4112 
Q 1275 4750 2034 4750 
Q 2797 4750 3222 4112 
Q 3647 3475 3647 2328 
Q 3647 1184 3222 546 
Q 2797 -91 2034 -91 
z
" transform="scale(0.015625)"/>
       </defs>
       <use xlink:href="#DejaVuSerif-30"/>
      </g>
     </g>
    </g>
    <g id="xtick_2">
     <g id="line2d_4">
      <path d="M 249.981818 417.2325 
L 249.981818 28.875915 
" clip-path="url(#pf213bc0e75)" style="fill: none; stroke-dasharray: 3.7,1.6; stroke-dashoffset: 0; stroke: #b0b0b0; stroke-opacity: 0.5"/>
     </g>
     <g id="line2d_5">
      <g>
       <use xlink:href="#m0c68d080b6" x="249.981818" y="417.2325" style="stroke: #000000; stroke-width: 2"/>
      </g>
     </g>
     <g id="line2d_6">
      <g>
       <use xlink:href="#m7c681db5ce" x="249.981818" y="28.875915" style="stroke: #000000; stroke-width: 2"/>
      </g>
     </g>
     <g id="text_2">
      <!-- 10 -->
      <g transform="translate(233.439318 440.488438) scale(0.26 -0.26)">
       <defs>
        <path id="DejaVuSerif-31" d="M 909 0 
L 909 331 
L 1722 331 
L 1722 4213 
L 781 3603 
L 781 4013 
L 1919 4750 
L 2350 4750 
L 2350 331 
L 3163 331 
L 3163 0 
L 909 0 
z
" transform="scale(0.015625)"/>
       </defs>
       <use xlink:href="#DejaVuSerif-31"/>
       <use xlink:href="#DejaVuSerif-30" x="63.623047"/>
      </g>
     </g>
    </g>
    <g id="xtick_3">
     <g id="line2d_7">
      <path d="M 353.967273 417.2325 
L 353.967273 28.875915 
" clip-path="url(#pf213bc0e75)" style="fill: none; stroke-dasharray: 3.7,1.6; stroke-dashoffset: 0; stroke: #b0b0b0; stroke-opacity: 0.5"/>
     </g>
     <g id="line2d_8">
      <g>
       <use xlink:href="#m0c68d080b6" x="353.967273" y="417.2325" style="stroke: #000000; stroke-width: 2"/>
      </g>
     </g>
     <g id="line2d_9">
      <g>
       <use xlink:href="#m7c681db5ce" x="353.967273" y="28.875915" style="stroke: #000000; stroke-width: 2"/>
      </g>
     </g>
     <g id="text_3">
      <!-- 20 -->
      <g transform="translate(337.424773 440.488438) scale(0.26 -0.26)">
       <defs>
        <path id="DejaVuSerif-32" d="M 819 3553 
L 469 3553 
L 469 4384 
Q 803 4563 1142 4656 
Q 1481 4750 1806 4750 
Q 2534 4750 2956 4397 
Q 3378 4044 3378 3438 
Q 3378 2753 2422 1800 
Q 2347 1728 2309 1691 
L 1131 513 
L 3078 513 
L 3078 1088 
L 3444 1088 
L 3444 0 
L 434 0 
L 434 341 
L 1850 1753 
Q 2319 2222 2519 2614 
Q 2719 3006 2719 3438 
Q 2719 3909 2473 4175 
Q 2228 4441 1797 4441 
Q 1350 4441 1106 4219 
Q 863 3997 819 3553 
z
" transform="scale(0.015625)"/>
       </defs>
       <use xlink:href="#DejaVuSerif-32"/>
       <use xlink:href="#DejaVuSerif-30" x="63.623047"/>
      </g>
     </g>
    </g>
    <g id="xtick_4">
     <g id="line2d_10">
      <path d="M 457.952727 417.2325 
L 457.952727 28.875915 
" clip-path="url(#pf213bc0e75)" style="fill: none; stroke-dasharray: 3.7,1.6; stroke-dashoffset: 0; stroke: #b0b0b0; stroke-opacity: 0.5"/>
     </g>
     <g id="line2d_11">
      <g>
       <use xlink:href="#m0c68d080b6" x="457.952727" y="417.2325" style="stroke: #000000; stroke-width: 2"/>
      </g>
     </g>
     <g id="line2d_12">
      <g>
       <use xlink:href="#m7c681db5ce" x="457.952727" y="28.875915" style="stroke: #000000; stroke-width: 2"/>
      </g>
     </g>
     <g id="text_4">
      <!-- 30 -->
      <g transform="translate(441.410227 440.488438) scale(0.26 -0.26)">
       <defs>
        <path id="DejaVuSerif-33" d="M 622 4469 
Q 988 4606 1323 4678 
Q 1659 4750 1953 4750 
Q 2638 4750 3022 4454 
Q 3406 4159 3406 3634 
Q 3406 3213 3140 2930 
Q 2875 2647 2388 2547 
Q 2963 2466 3280 2130 
Q 3597 1794 3597 1259 
Q 3597 606 3158 257 
Q 2719 -91 1894 -91 
Q 1528 -91 1179 -12 
Q 831 66 488 225 
L 488 1131 
L 838 1131 
Q 869 681 1141 450 
Q 1413 219 1906 219 
Q 2384 219 2661 495 
Q 2938 772 2938 1253 
Q 2938 1803 2653 2086 
Q 2369 2369 1819 2369 
L 1522 2369 
L 1522 2688 
L 1678 2688 
Q 2225 2688 2498 2914 
Q 2772 3141 2772 3597 
Q 2772 4006 2547 4223 
Q 2322 4441 1900 4441 
Q 1478 4441 1245 4241 
Q 1013 4041 972 3647 
L 622 3647 
L 622 4469 
z
" transform="scale(0.015625)"/>
       </defs>
       <use xlink:href="#DejaVuSerif-33"/>
       <use xlink:href="#DejaVuSerif-30" x="63.623047"/>
      </g>
     </g>
    </g>
    <g id="xtick_5">
     <g id="line2d_13">
      <path d="M 561.938182 417.2325 
L 561.938182 28.875915 
" clip-path="url(#pf213bc0e75)" style="fill: none; stroke-dasharray: 3.7,1.6; stroke-dashoffset: 0; stroke: #b0b0b0; stroke-opacity: 0.5"/>
     </g>
     <g id="line2d_14">
      <g>
       <use xlink:href="#m0c68d080b6" x="561.938182" y="417.2325" style="stroke: #000000; stroke-width: 2"/>
      </g>
     </g>
     <g id="line2d_15">
      <g>
       <use xlink:href="#m7c681db5ce" x="561.938182" y="28.875915" style="stroke: #000000; stroke-width: 2"/>
      </g>
     </g>
     <g id="text_5">
      <!-- 40 -->
      <g transform="translate(545.395682 440.488438) scale(0.26 -0.26)">
       <defs>
        <path id="DejaVuSerif-34" d="M 2234 1581 
L 2234 4063 
L 641 1581 
L 2234 1581 
z
M 3609 0 
L 1484 0 
L 1484 331 
L 2234 331 
L 2234 1247 
L 197 1247 
L 197 1588 
L 2241 4750 
L 2859 4750 
L 2859 1581 
L 3750 1581 
L 3750 1247 
L 2859 1247 
L 2859 331 
L 3609 331 
L 3609 0 
z
" transform="scale(0.015625)"/>
       </defs>
       <use xlink:href="#DejaVuSerif-34"/>
       <use xlink:href="#DejaVuSerif-30" x="63.623047"/>
      </g>
     </g>
    </g>
    <g id="xtick_6">
     <g id="line2d_16">
      <path d="M 665.923636 417.2325 
L 665.923636 28.875915 
" clip-path="url(#pf213bc0e75)" style="fill: none; stroke-dasharray: 3.7,1.6; stroke-dashoffset: 0; stroke: #b0b0b0; stroke-opacity: 0.5"/>
     </g>
     <g id="line2d_17">
      <g>
       <use xlink:href="#m0c68d080b6" x="665.923636" y="417.2325" style="stroke: #000000; stroke-width: 2"/>
      </g>
     </g>
     <g id="line2d_18">
      <g>
       <use xlink:href="#m7c681db5ce" x="665.923636" y="28.875915" style="stroke: #000000; stroke-width: 2"/>
      </g>
     </g>
     <g id="text_6">
      <!-- 50 -->
      <g transform="translate(649.381136 440.488438) scale(0.26 -0.26)">
       <defs>
        <path id="DejaVuSerif-35" d="M 3219 4666 
L 3219 4153 
L 1081 4153 
L 1081 2816 
Q 1244 2928 1461 2984 
Q 1678 3041 1947 3041 
Q 2703 3041 3140 2622 
Q 3578 2203 3578 1478 
Q 3578 738 3136 323 
Q 2694 -91 1894 -91 
Q 1572 -91 1234 -12 
Q 897 66 544 225 
L 544 1131 
L 897 1131 
Q 925 688 1179 453 
Q 1434 219 1894 219 
Q 2388 219 2653 544 
Q 2919 869 2919 1478 
Q 2919 2084 2655 2407 
Q 2391 2731 1894 2731 
Q 1613 2731 1398 2631 
Q 1184 2531 1019 2322 
L 750 2322 
L 750 4666 
L 3219 4666 
z
" transform="scale(0.015625)"/>
       </defs>
       <use xlink:href="#DejaVuSerif-35"/>
       <use xlink:href="#DejaVuSerif-30" x="63.623047"/>
      </g>
     </g>
    </g>
    <g id="text_7">
     <!-- $t$ (a.u.) -->
     <g transform="translate(362.54 469.651563) scale(0.26 -0.26)">
      <defs>
       <path id="Cmmi10-74" d="M 397 519 
Q 397 613 416 697 
L 878 2534 
L 206 2534 
Q 141 2534 141 2619 
Q 166 2759 225 2759 
L 934 2759 
L 1191 3803 
Q 1216 3888 1291 3947 
Q 1366 4006 1459 4006 
Q 1541 4006 1595 3957 
Q 1650 3909 1650 3828 
Q 1650 3809 1648 3798 
Q 1647 3788 1644 3775 
L 1388 2759 
L 2047 2759 
Q 2113 2759 2113 2675 
Q 2109 2659 2100 2621 
Q 2091 2584 2075 2559 
Q 2059 2534 2028 2534 
L 1331 2534 
L 872 684 
Q 825 503 825 372 
Q 825 97 1013 97 
Q 1294 97 1511 361 
Q 1728 625 1844 941 
Q 1869 978 1894 978 
L 1972 978 
Q 1997 978 2012 961 
Q 2028 944 2028 922 
Q 2028 909 2022 903 
Q 1881 516 1612 222 
Q 1344 -72 997 -72 
Q 744 -72 570 93 
Q 397 259 397 519 
z
" transform="scale(0.015625)"/>
       <path id="DejaVuSerif-20" transform="scale(0.015625)"/>
       <path id="DejaVuSerif-28" d="M 2041 -997 
Q 1281 -656 893 83 
Q 506 822 506 1931 
Q 506 3044 893 3783 
Q 1281 4522 2041 4863 
L 2041 4556 
Q 1559 4225 1350 3623 
Q 1141 3022 1141 1931 
Q 1141 844 1350 242 
Q 1559 -359 2041 -691 
L 2041 -997 
z
" transform="scale(0.015625)"/>
       <path id="DejaVuSerif-61" d="M 2547 1044 
L 2547 1747 
L 1806 1747 
Q 1378 1747 1168 1562 
Q 959 1378 959 997 
Q 959 650 1171 447 
Q 1384 244 1747 244 
Q 2106 244 2326 466 
Q 2547 688 2547 1044 
z
M 3122 2075 
L 3122 331 
L 3634 331 
L 3634 0 
L 2547 0 
L 2547 359 
Q 2356 128 2106 18 
Q 1856 -91 1522 -91 
Q 969 -91 644 203 
Q 319 497 319 997 
Q 319 1513 691 1797 
Q 1063 2081 1741 2081 
L 2547 2081 
L 2547 2309 
Q 2547 2688 2317 2895 
Q 2088 3103 1672 3103 
Q 1328 3103 1125 2947 
Q 922 2791 872 2484 
L 575 2484 
L 575 3156 
Q 875 3284 1158 3348 
Q 1441 3413 1709 3413 
Q 2400 3413 2761 3070 
Q 3122 2728 3122 2075 
z
" transform="scale(0.015625)"/>
       <path id="DejaVuSerif-2e" d="M 603 325 
Q 603 500 722 622 
Q 841 744 1019 744 
Q 1191 744 1312 622 
Q 1434 500 1434 325 
Q 1434 153 1312 31 
Q 1191 -91 1019 -91 
Q 841 -91 722 29 
Q 603 150 603 325 
z
" transform="scale(0.015625)"/>
       <path id="DejaVuSerif-75" d="M 2266 3322 
L 3341 3322 
L 3341 331 
L 3884 331 
L 3884 0 
L 2766 0 
L 2766 588 
Q 2606 256 2353 82 
Q 2100 -91 1766 -91 
Q 1213 -91 952 223 
Q 691 538 691 1209 
L 691 2988 
L 172 2988 
L 172 3322 
L 1269 3322 
L 1269 1388 
Q 1269 781 1417 556 
Q 1566 331 1947 331 
Q 2347 331 2556 625 
Q 2766 919 2766 1478 
L 2766 2988 
L 2266 2988 
L 2266 3322 
z
" transform="scale(0.015625)"/>
       <path id="DejaVuSerif-29" d="M 453 -997 
L 453 -691 
Q 934 -359 1145 242 
Q 1356 844 1356 1931 
Q 1356 3022 1145 3623 
Q 934 4225 453 4556 
L 453 4863 
Q 1216 4522 1603 3783 
Q 1991 3044 1991 1931 
Q 1991 822 1603 83 
Q 1216 -656 453 -997 
z
" transform="scale(0.015625)"/>
      </defs>
      <use xlink:href="#Cmmi10-74" transform="translate(0 0.015625)"/>
      <use xlink:href="#DejaVuSerif-20" transform="translate(36.083984 0.015625)"/>
      <use xlink:href="#DejaVuSerif-28" transform="translate(67.871094 0.015625)"/>
      <use xlink:href="#DejaVuSerif-61" transform="translate(106.884766 0.015625)"/>
      <use xlink:href="#DejaVuSerif-2e" transform="translate(166.503906 0.015625)"/>
      <use xlink:href="#DejaVuSerif-75" transform="translate(198.291016 0.015625)"/>
      <use xlink:href="#DejaVuSerif-2e" transform="translate(262.695312 0.015625)"/>
      <use xlink:href="#DejaVuSerif-29" transform="translate(294.482422 0.015625)"/>
     </g>
    </g>
   </g>
   <g id="matplotlib.axis_2">
    <g id="ytick_1">
     <g id="line2d_19">
      <path d="M 120 398.374177 
L 691.92 398.374177 
" clip-path="url(#pf213bc0e75)" style="fill: none; stroke-dasharray: 3.7,1.6; stroke-dashoffset: 0; stroke: #b0b0b0; stroke-opacity: 0.5"/>
     </g>
     <g id="line2d_20">
      <defs>
       <path id="m9578bf437e" d="M 0 0 
L 10 0 
" style="stroke: #000000; stroke-width: 2"/>
      </defs>
      <g>
       <use xlink:href="#m9578bf437e" x="120" y="398.374177" style="stroke: #000000; stroke-width: 2"/>
      </g>
     </g>
     <g id="line2d_21">
      <defs>
       <path id="m2b576639e8" d="M 0 0 
L -10 0 
" style="stroke: #000000; stroke-width: 2"/>
      </defs>
      <g>
       <use xlink:href="#m2b576639e8" x="691.92" y="398.374177" style="stroke: #000000; stroke-width: 2"/>
      </g>
     </g>
     <g id="text_8">
      <!-- −20 -->
      <g transform="translate(61.627813 408.252145) scale(0.26 -0.26)">
       <defs>
        <path id="DejaVuSerif-2212" d="M 678 2259 
L 4684 2259 
L 4684 1753 
L 678 1753 
L 678 2259 
z
" transform="scale(0.015625)"/>
       </defs>
       <use xlink:href="#DejaVuSerif-2212"/>
       <use xlink:href="#DejaVuSerif-32" x="83.789062"/>
       <use xlink:href="#DejaVuSerif-30" x="147.412109"/>
      </g>
     </g>
    </g>
    <g id="ytick_2">
     <g id="line2d_22">
      <path d="M 120 326.260613 
L 691.92 326.260613 
" clip-path="url(#pf213bc0e75)" style="fill: none; stroke-dasharray: 3.7,1.6; stroke-dashoffset: 0; stroke: #b0b0b0; stroke-opacity: 0.5"/>
     </g>
     <g id="line2d_23">
      <g>
       <use xlink:href="#m9578bf437e" x="120" y="326.260613" style="stroke: #000000; stroke-width: 2"/>
      </g>
     </g>
     <g id="line2d_24">
      <g>
       <use xlink:href="#m2b576639e8" x="691.92" y="326.260613" style="stroke: #000000; stroke-width: 2"/>
      </g>
     </g>
     <g id="text_9">
      <!-- −10 -->
      <g transform="translate(61.627813 336.138582) scale(0.26 -0.26)">
       <use xlink:href="#DejaVuSerif-2212"/>
       <use xlink:href="#DejaVuSerif-31" x="83.789062"/>
       <use xlink:href="#DejaVuSerif-30" x="147.412109"/>
      </g>
     </g>
    </g>
    <g id="ytick_3">
     <g id="line2d_25">
      <path d="M 120 254.14705 
L 691.92 254.14705 
" clip-path="url(#pf213bc0e75)" style="fill: none; stroke-dasharray: 3.7,1.6; stroke-dashoffset: 0; stroke: #b0b0b0; stroke-opacity: 0.5"/>
     </g>
     <g id="line2d_26">
      <g>
       <use xlink:href="#m9578bf437e" x="120" y="254.14705" style="stroke: #000000; stroke-width: 2"/>
      </g>
     </g>
     <g id="line2d_27">
      <g>
       <use xlink:href="#m2b576639e8" x="691.92" y="254.14705" style="stroke: #000000; stroke-width: 2"/>
      </g>
     </g>
     <g id="text_10">
      <!-- 0 -->
      <g transform="translate(99.9575 264.025019) scale(0.26 -0.26)">
       <use xlink:href="#DejaVuSerif-30"/>
      </g>
     </g>
    </g>
    <g id="ytick_4">
     <g id="line2d_28">
      <path d="M 120 182.033487 
L 691.92 182.033487 
" clip-path="url(#pf213bc0e75)" style="fill: none; stroke-dasharray: 3.7,1.6; stroke-dashoffset: 0; stroke: #b0b0b0; stroke-opacity: 0.5"/>
     </g>
     <g id="line2d_29">
      <g>
       <use xlink:href="#m9578bf437e" x="120" y="182.033487" style="stroke: #000000; stroke-width: 2"/>
      </g>
     </g>
     <g id="line2d_30">
      <g>
       <use xlink:href="#m2b576639e8" x="691.92" y="182.033487" style="stroke: #000000; stroke-width: 2"/>
      </g>
     </g>
     <g id="text_11">
      <!-- 10 -->
      <g transform="translate(83.415 191.911456) scale(0.26 -0.26)">
       <use xlink:href="#DejaVuSerif-31"/>
       <use xlink:href="#DejaVuSerif-30" x="63.623047"/>
      </g>
     </g>
    </g>
    <g id="ytick_5">
     <g id="line2d_31">
      <path d="M 120 109.919923 
L 691.92 109.919923 
" clip-path="url(#pf213bc0e75)" style="fill: none; stroke-dasharray: 3.7,1.6; stroke-dashoffset: 0; stroke: #b0b0b0; stroke-opacity: 0.5"/>
     </g>
     <g id="line2d_32">
      <g>
       <use xlink:href="#m9578bf437e" x="120" y="109.919923" style="stroke: #000000; stroke-width: 2"/>
      </g>
     </g>
     <g id="line2d_33">
      <g>
       <use xlink:href="#m2b576639e8" x="691.92" y="109.919923" style="stroke: #000000; stroke-width: 2"/>
      </g>
     </g>
     <g id="text_12">
      <!-- 20 -->
      <g transform="translate(83.415 119.797892) scale(0.26 -0.26)">
       <use xlink:href="#DejaVuSerif-32"/>
       <use xlink:href="#DejaVuSerif-30" x="63.623047"/>
      </g>
     </g>
    </g>
    <g id="ytick_6">
     <g id="line2d_34">
      <path d="M 120 37.80636 
L 691.92 37.80636 
" clip-path="url(#pf213bc0e75)" style="fill: none; stroke-dasharray: 3.7,1.6; stroke-dashoffset: 0; stroke: #b0b0b0; stroke-opacity: 0.5"/>
     </g>
     <g id="line2d_35">
      <g>
       <use xlink:href="#m9578bf437e" x="120" y="37.80636" style="stroke: #000000; stroke-width: 2"/>
      </g>
     </g>
     <g id="line2d_36">
      <g>
       <use xlink:href="#m2b576639e8" x="691.92" y="37.80636" style="stroke: #000000; stroke-width: 2"/>
      </g>
     </g>
     <g id="text_13">
      <!-- 30 -->
      <g transform="translate(83.415 47.684329) scale(0.26 -0.26)">
       <use xlink:href="#DejaVuSerif-33"/>
       <use xlink:href="#DejaVuSerif-30" x="63.623047"/>
      </g>
     </g>
    </g>
    <g id="text_14">
     <!-- $E_i(t)$ (a.u.) -->
     <g transform="translate(51.127813 290.134208) rotate(-90) scale(0.26 -0.26)">
      <defs>
       <path id="Cmmi10-45" d="M 300 0 
Q 238 0 238 84 
Q 241 100 250 139 
Q 259 178 276 201 
Q 294 225 319 225 
Q 709 225 863 269 
Q 947 297 984 441 
L 1863 3956 
Q 1875 4019 1875 4044 
Q 1875 4113 1797 4122 
Q 1678 4147 1338 4147 
Q 1275 4147 1275 4231 
Q 1278 4247 1287 4286 
Q 1297 4325 1314 4348 
Q 1331 4372 1356 4372 
L 4825 4372 
Q 4891 4372 4891 4288 
L 4738 2963 
Q 4738 2947 4714 2926 
Q 4691 2906 4672 2906 
L 4616 2906 
Q 4550 2906 4550 2988 
Q 4588 3300 4588 3450 
Q 4588 3706 4500 3848 
Q 4413 3991 4267 4053 
Q 4122 4116 3945 4131 
Q 3769 4147 3481 4147 
L 2753 4147 
Q 2578 4147 2522 4117 
Q 2466 4088 2419 3928 
L 2034 2381 
L 2534 2381 
Q 2859 2381 3025 2426 
Q 3191 2472 3287 2615 
Q 3384 2759 3463 3072 
Q 3469 3094 3486 3111 
Q 3503 3128 3525 3128 
L 3584 3128 
Q 3647 3128 3647 3047 
L 3250 1466 
Q 3238 1409 3188 1409 
L 3128 1409 
Q 3066 1409 3066 1491 
Q 3128 1747 3128 1869 
Q 3128 2056 2959 2106 
Q 2791 2156 2509 2156 
L 1978 2156 
L 1544 416 
Q 1516 338 1516 275 
Q 1516 225 1734 225 
L 2509 225 
Q 2972 225 3259 297 
Q 3547 369 3736 526 
Q 3925 684 4062 928 
Q 4200 1172 4397 1638 
Q 4409 1678 4453 1678 
L 4513 1678 
Q 4538 1678 4556 1656 
Q 4575 1634 4575 1606 
Q 4575 1594 4569 1581 
L 3909 38 
Q 3897 0 3859 0 
L 300 0 
z
" transform="scale(0.015625)"/>
       <path id="Cmmi10-69" d="M 500 459 
Q 500 578 550 709 
L 1069 2088 
Q 1153 2322 1153 2472 
Q 1153 2663 1013 2663 
Q 759 2663 595 2402 
Q 431 2141 353 1819 
Q 341 1778 300 1778 
L 225 1778 
Q 172 1778 172 1838 
L 172 1856 
Q 275 2238 487 2533 
Q 700 2828 1025 2828 
Q 1253 2828 1411 2678 
Q 1569 2528 1569 2297 
Q 1569 2178 1516 2047 
L 997 672 
Q 909 459 909 288 
Q 909 97 1056 97 
Q 1306 97 1473 364 
Q 1641 631 1709 941 
Q 1722 978 1759 978 
L 1838 978 
Q 1863 978 1878 961 
Q 1894 944 1894 922 
Q 1894 916 1888 903 
Q 1800 541 1583 234 
Q 1366 -72 1044 -72 
Q 819 -72 659 83 
Q 500 238 500 459 
z
M 1222 3878 
Q 1222 4013 1334 4122 
Q 1447 4231 1581 4231 
Q 1691 4231 1761 4164 
Q 1831 4097 1831 3994 
Q 1831 3850 1717 3742 
Q 1603 3634 1466 3634 
Q 1363 3634 1292 3704 
Q 1222 3775 1222 3878 
z
" transform="scale(0.015625)"/>
       <path id="Cmr10-28" d="M 1984 -1588 
Q 1628 -1306 1370 -942 
Q 1113 -578 948 -165 
Q 784 247 703 697 
Q 622 1147 622 1600 
Q 622 2059 703 2509 
Q 784 2959 951 3375 
Q 1119 3791 1378 4153 
Q 1638 4516 1984 4788 
Q 1984 4800 2016 4800 
L 2075 4800 
Q 2094 4800 2109 4783 
Q 2125 4766 2125 4744 
Q 2125 4716 2113 4703 
Q 1800 4397 1592 4047 
Q 1384 3697 1257 3301 
Q 1131 2906 1075 2482 
Q 1019 2059 1019 1600 
Q 1019 -434 2106 -1491 
Q 2125 -1509 2125 -1544 
Q 2125 -1559 2108 -1579 
Q 2091 -1600 2075 -1600 
L 2016 -1600 
Q 1984 -1600 1984 -1588 
z
" transform="scale(0.015625)"/>
       <path id="Cmr10-29" d="M 416 -1600 
Q 359 -1600 359 -1544 
Q 359 -1516 372 -1503 
Q 1466 -434 1466 1600 
Q 1466 3634 384 4691 
Q 359 4706 359 4744 
Q 359 4766 376 4783 
Q 394 4800 416 4800 
L 475 4800 
Q 494 4800 506 4788 
Q 966 4425 1272 3906 
Q 1578 3388 1720 2800 
Q 1863 2213 1863 1600 
Q 1863 1147 1786 708 
Q 1709 269 1542 -157 
Q 1375 -584 1119 -945 
Q 863 -1306 506 -1588 
Q 494 -1600 475 -1600 
L 416 -1600 
z
" transform="scale(0.015625)"/>
      </defs>
      <use xlink:href="#Cmmi10-45" transform="translate(0 0.015625)"/>
      <use xlink:href="#Cmmi10-69" transform="translate(73.779297 -16.990625) scale(0.7)"/>
      <use xlink:href="#Cmr10-28" transform="translate(104.25332 0.015625)"/>
      <use xlink:href="#Cmmi10-74" transform="translate(143.07168 0.015625)"/>
      <use xlink:href="#Cmr10-29" transform="translate(179.155664 0.015625)"/>
      <use xlink:href="#DejaVuSerif-20" transform="translate(217.974023 0.015625)"/>
      <use xlink:href="#DejaVuSerif-28" transform="translate(249.761133 0.015625)"/>
      <use xlink:href="#DejaVuSerif-61" transform="translate(288.774805 0.015625)"/>
      <use xlink:href="#DejaVuSerif-2e" transform="translate(348.393945 0.015625)"/>
      <use xlink:href="#DejaVuSerif-75" transform="translate(380.181055 0.015625)"/>
      <use xlink:href="#DejaVuSerif-2e" transform="translate(444.585352 0.015625)"/>
      <use xlink:href="#DejaVuSerif-29" transform="translate(476.372461 0.015625)"/>
     </g>
    </g>
   </g>
   <g id="line2d_37">
    <path d="M 145.996364 200.849668 
L 146.516811 100.772763 
L 147.037259 130.268829 
L 147.557707 87.166964 
L 148.078155 75.842923 
L 149.11905 85.808874 
L 150.159945 92.438733 
L 151.200841 96.672889 
L 152.241736 99.486891 
L 153.282632 101.463523 
L 154.323527 102.909976 
L 155.364423 103.997352 
L 156.405318 104.826739 
L 157.966661 105.717374 
L 159.528004 106.287116 
L 161.089348 106.59865 
L 162.650691 106.678049 
L 164.212034 106.523839 
L 165.773377 106.106614 
L 166.814272 105.651286 
L 167.855168 105.016436 
L 168.896063 104.149272 
L 169.936959 102.965653 
L 170.977854 101.325393 
L 172.01875 98.979261 
L 172.539197 97.405945 
L 173.059645 95.443113 
L 173.580093 92.93962 
L 174.100541 89.658443 
L 174.620988 85.215183 
L 175.141436 78.978999 
L 175.661884 70.006301 
L 176.702779 46.528487 
L 177.223227 48.687199 
L 178.264122 72.851521 
L 178.78457 81.095782 
L 179.305018 86.871306 
L 179.825465 91.048536 
L 180.345913 94.1834 
L 181.386809 98.551358 
L 182.427704 101.441128 
L 183.4686 103.490931 
L 184.509495 105.017227 
L 185.55039 106.193741 
L 187.111734 107.517182 
L 188.673077 108.480528 
L 190.23442 109.19512 
L 192.316211 109.869963 
L 194.398002 110.305408 
L 197.00024 110.581703 
L 199.602479 110.591858 
L 201.68427 110.403285 
L 203.766061 110.011144 
L 205.847851 109.357663 
L 207.409195 108.632681 
L 208.970538 107.618279 
L 210.011433 106.714049 
L 211.052329 105.549311 
L 212.093224 104.011574 
L 213.13412 101.908869 
L 214.175015 98.885926 
L 214.695463 96.827252 
L 215.21591 94.212106 
L 215.736358 90.793874 
L 216.256806 86.1732 
L 216.777254 79.700718 
L 217.297701 70.444101 
L 218.338597 47.873633 
L 218.859044 51.449954 
L 219.89994 75.089347 
L 220.420388 82.974184 
L 220.940835 88.520637 
L 221.461283 92.547841 
L 221.981731 95.578381 
L 223.022626 99.809277 
L 224.063522 102.609034 
L 225.104417 104.59137 
L 226.145313 106.06269 
L 227.186208 107.191986 
L 228.747551 108.454033 
L 230.308894 109.363641 
L 231.870238 110.029905 
L 233.952028 110.64654 
L 236.033819 111.029173 
L 238.636058 111.245063 
L 241.238296 111.199109 
L 243.320087 110.967329 
L 245.401878 110.531947 
L 247.483669 109.83297 
L 249.045012 109.070065 
L 250.606355 108.011026 
L 251.647251 107.070397 
L 252.688146 105.860144 
L 253.729042 104.261561 
L 254.769937 102.070504 
L 255.810833 98.905384 
L 256.33128 96.738192 
L 256.851728 93.970991 
L 257.372176 90.330864 
L 257.892624 85.373564 
L 258.413071 78.382281 
L 258.933519 68.403365 
L 259.453967 55.677811 
L 259.974414 47.571476 
L 260.494862 54.208203 
L 261.535758 77.385193 
L 262.056205 84.687646 
L 262.576653 89.849394 
L 263.097101 93.624911 
L 263.617548 96.485402 
L 264.658444 100.509837 
L 265.699339 103.19335 
L 266.740235 105.102678 
L 267.78113 106.52412 
L 268.822026 107.617015 
L 270.383369 108.83923 
L 271.944712 109.719385 
L 273.506055 110.362262 
L 275.587846 110.95331 
L 277.669637 111.314103 
L 280.271876 111.505371 
L 282.874114 111.435628 
L 284.955905 111.183946 
L 287.037696 110.726286 
L 289.119487 110.000152 
L 290.68083 109.210966 
L 292.242173 108.116419 
L 293.283069 107.143414 
L 294.323964 105.88911 
L 295.364859 104.226961 
L 296.405755 101.937344 
L 296.926203 100.440309 
L 297.44665 98.604715 
L 297.967098 96.305294 
L 298.487546 93.349057 
L 299.007993 89.428037 
L 299.528441 84.038696 
L 300.048889 76.382771 
L 301.089784 52.797991 
L 301.610232 47.964852 
L 302.13068 57.502124 
L 302.651127 70.082764 
L 303.171575 79.640125 
L 303.692023 86.321409 
L 304.212471 91.078413 
L 304.732918 94.588723 
L 305.773814 99.377188 
L 306.814709 102.47037 
L 307.855605 104.623451 
L 308.8965 106.201593 
L 309.937396 107.401352 
L 310.978291 108.337547 
L 312.539634 109.396845 
L 314.100977 110.165044 
L 316.182768 110.875614 
L 318.264559 111.32563 
L 320.34635 111.573791 
L 322.948589 111.641448 
L 325.550827 111.447413 
L 327.632618 111.081325 
L 329.714409 110.479008 
L 331.275752 109.820615 
L 332.837095 108.914347 
L 333.877991 108.11981 
L 334.918886 107.113479 
L 335.959782 105.81259 
L 337.000677 104.081612 
L 338.041572 101.682886 
L 338.56202 100.105207 
L 339.082468 98.160621 
L 339.602916 95.709133 
L 340.123363 92.532872 
L 340.643811 88.281181 
L 341.164259 82.38009 
L 341.684707 73.948917 
L 342.725602 50.187922 
L 343.24605 49.466864 
L 344.286945 73.043485 
L 344.807393 81.752053 
L 345.327841 87.840851 
L 345.848288 92.214381 
L 346.368736 95.471953 
L 347.409631 99.965325 
L 348.450527 102.901228 
L 349.491422 104.960768 
L 350.532318 106.4785 
L 351.573213 107.636681 
L 352.614109 108.542772 
L 354.175452 109.56994 
L 355.736795 110.31539 
L 357.818586 111.003857 
L 359.900377 111.437015 
L 361.982168 111.671037 
L 364.584406 111.722465 
L 367.186645 111.511527 
L 369.268436 111.129579 
L 371.350227 110.506994 
L 372.91157 109.828184 
L 374.472913 108.893685 
L 375.513808 108.073231 
L 376.554704 107.03183 
L 377.595599 105.681272 
L 378.636495 103.875893 
L 379.67739 101.357461 
L 380.197838 99.69029 
L 380.718286 97.623637 
L 381.238733 95.000076 
L 381.759181 91.572177 
L 382.279629 86.938555 
L 382.800076 80.444505 
L 383.320524 71.143411 
L 384.36142 48.365559 
L 384.881867 52.00252 
L 385.922763 75.803834 
L 386.44321 83.699162 
L 386.963658 89.243778 
L 387.484106 93.265237 
L 388.004554 96.288888 
L 389.045449 100.505667 
L 390.086345 103.292002 
L 391.12724 105.261712 
L 392.168135 106.721067 
L 393.209031 107.838932 
L 394.770374 109.084621 
L 396.331717 109.978634 
L 397.89306 110.62992 
L 399.974851 111.227376 
L 402.056642 111.591572 
L 404.658881 111.785226 
L 407.261119 111.717645 
L 409.34291 111.468724 
L 411.424701 111.015986 
L 413.506492 110.29887 
L 415.067835 109.521177 
L 416.629178 108.445344 
L 417.670074 107.491532 
L 418.710969 106.265345 
L 419.751865 104.646139 
L 420.79276 102.425912 
L 421.833655 99.214458 
L 422.354103 97.011852 
L 422.874551 94.194693 
L 423.394999 90.480631 
L 423.915446 85.408753 
L 424.435894 78.235708 
L 424.956342 67.994823 
L 425.47679 55.129143 
L 425.997237 47.728632 
L 426.517685 55.276951 
L 427.55858 78.338681 
L 428.079028 85.482537 
L 428.599476 90.53588 
L 429.119924 94.238231 
L 429.640371 97.047861 
L 430.681267 101.008196 
L 431.722162 103.653735 
L 432.763058 105.537962 
L 433.803953 106.941337 
L 434.844848 108.020333 
L 436.406192 109.226336 
L 437.967535 110.093591 
L 439.528878 110.725531 
L 441.610669 111.303841 
L 443.69246 111.653144 
L 446.294698 111.830956 
L 448.896937 111.748037 
L 450.978728 111.485492 
L 453.060519 111.016083 
L 455.14231 110.276406 
L 456.703653 109.474816 
L 458.264996 108.364342 
L 459.305891 107.377362 
L 460.346787 106.104503 
L 461.387682 104.41609 
L 462.428578 102.08618 
L 462.949025 100.559858 
L 463.469473 98.685024 
L 463.989921 96.331191 
L 464.510369 93.29645 
L 465.030816 89.257324 
L 465.551264 83.683832 
L 466.071712 75.741389 
L 467.112607 51.879875 
L 467.633055 48.463828 
L 469.194398 80.648834 
L 469.714846 87.11245 
L 470.235293 91.725874 
L 470.755741 95.140494 
L 471.796637 99.8158 
L 472.837532 102.847488 
L 473.878428 104.963115 
L 474.919323 106.516356 
L 475.960218 107.698376 
L 477.001114 108.621215 
L 478.562457 109.665479 
L 480.1238 110.422269 
L 482.205591 111.120838 
L 484.287382 111.56093 
L 486.369173 111.800269 
L 488.971411 111.857528 
L 491.57365 111.652887 
L 493.655441 111.277425 
L 495.737232 110.664013 
L 497.298575 109.995223 
L 498.859918 109.075426 
L 499.900814 108.269013 
L 500.941709 107.247109 
L 501.982604 105.924735 
L 503.0235 104.162238 
L 504.064395 101.71358 
L 504.584843 100.098875 
L 505.105291 98.103987 
L 505.625738 95.58179 
L 506.146186 92.302247 
L 506.666634 87.893568 
L 507.187082 81.746876 
L 507.707529 72.944887 
L 508.748425 49.344394 
L 509.268873 50.485499 
L 510.309768 74.379323 
L 510.830216 82.747332 
L 511.350663 88.602303 
L 511.871111 92.823145 
L 512.391559 95.97875 
L 513.432454 100.350849 
L 514.47335 103.22056 
L 515.514245 105.239863 
L 516.555141 106.731044 
L 517.596036 107.870543 
L 519.157379 109.137704 
L 520.718722 110.045633 
L 522.280066 110.706541 
L 524.361856 111.313001 
L 526.443647 111.683769 
L 529.045886 111.884051 
L 531.648124 111.822781 
L 533.729915 111.579621 
L 535.811706 111.134266 
L 537.893497 110.427651 
L 539.45484 109.66151 
L 541.016183 108.602841 
L 542.057079 107.665694 
L 543.097974 106.463115 
L 544.13887 104.878996 
L 545.179765 102.714233 
L 546.220661 99.597935 
L 546.741108 97.470472 
L 547.261556 94.760477 
L 547.782004 91.204916 
L 548.302452 86.375471 
L 548.822899 79.575442 
L 549.343347 69.835212 
L 549.863795 57.101382 
L 550.384242 47.93486 
L 550.90469 53.488141 
L 551.945586 77.104905 
L 552.466033 84.652045 
L 552.986481 89.965856 
L 553.506929 93.836695 
L 554.027376 96.759089 
L 555.068272 100.854212 
L 556.109167 103.573432 
L 557.150063 105.502115 
L 558.190958 106.934361 
L 559.231854 108.033187 
L 560.793197 109.259109 
L 562.35454 110.139463 
L 563.915883 110.780601 
L 565.997674 111.367682 
L 568.079465 111.723533 
L 570.681704 111.908095 
L 573.283942 111.831692 
L 575.365733 111.575097 
L 577.447524 111.113265 
L 579.529315 110.384291 
L 581.090658 109.594422 
L 582.652001 108.501345 
L 583.692897 107.531284 
L 584.733792 106.282473 
L 585.774687 104.630007 
L 586.815583 102.357427 
L 587.856478 99.055906 
L 588.376926 96.781718 
L 588.897374 93.861724 
L 589.417821 89.994126 
L 589.938269 84.684882 
L 590.458717 77.143909 
L 591.499612 53.524546 
L 592.02006 47.931478 
L 592.540508 57.07948 
L 593.060956 69.823349 
L 593.581403 79.574795 
L 594.101851 86.382136 
L 594.622299 91.216197 
L 595.142746 94.774812 
L 596.183642 99.616074 
L 597.224537 102.734737 
L 598.265433 104.901261 
L 599.306328 106.486826 
L 600.347224 107.690688 
L 601.388119 108.629022 
L 602.949462 109.689365 
L 604.510805 110.457104 
L 606.592596 111.165805 
L 608.674387 111.613196 
L 610.756178 111.858379 
L 613.358417 111.922174 
L 615.960655 111.72442 
L 618.042446 111.355683 
L 620.124237 110.751286 
L 621.68558 110.091941 
L 623.246923 109.185593 
L 624.287819 108.391766 
L 625.328714 107.387095 
L 626.36961 106.089335 
L 627.410505 104.363889 
L 628.4514 101.974914 
L 628.971848 100.404769 
L 629.492296 98.470521 
L 630.012744 96.033517 
L 630.533191 92.878019 
L 631.053639 88.656695 
L 631.574087 82.799895 
L 632.094535 74.426543 
L 633.13543 50.497797 
L 633.655878 49.361065 
L 635.217221 81.808145 
L 635.737669 87.956195 
L 636.258116 92.365268 
L 636.778564 95.644966 
L 637.819459 100.16233 
L 638.860355 103.109604 
L 639.90125 105.174947 
L 640.942146 106.695692 
L 641.983041 107.855351 
L 643.023937 108.762012 
L 644.58528 109.78904 
L 646.146623 110.533661 
L 648.228414 111.220453 
L 650.310205 111.651599 
L 652.391996 111.883456 
L 654.994234 111.932125 
L 657.596473 111.718506 
L 659.678264 111.334572 
L 661.760055 110.710255 
L 663.321398 110.030421 
L 664.882741 109.095282 
L 665.923636 108.274732 
L 665.923636 108.274732 
" clip-path="url(#pf213bc0e75)" style="fill: none; stroke: #1f77b4; stroke-width: 3; stroke-linecap: square"/>
   </g>
   <g id="line2d_38">
    <path d="M 145.996364 399.579928 
L 147.037259 336.373826 
L 147.557707 337.916976 
L 148.598602 320.479615 
L 149.639498 308.485322 
L 150.680393 300.442977 
L 151.721289 294.872912 
L 152.762184 290.829131 
L 153.803079 287.778151 
L 154.843975 285.408939 
L 155.88487 283.531127 
L 156.925766 282.022879 
L 157.966661 280.803343 
L 159.528004 279.39989 
L 161.089348 278.407838 
L 162.650691 277.763368 
L 164.212034 277.441571 
L 165.252929 277.409872 
L 166.293825 277.538356 
L 167.33472 277.850756 
L 168.375616 278.386391 
L 169.416511 279.209148 
L 170.457406 280.424806 
L 171.498302 282.216711 
L 172.01875 283.425203 
L 172.539197 284.926174 
L 173.059645 286.819353 
L 173.580093 289.255659 
L 174.100541 292.47187 
L 174.620988 296.852119 
L 175.141436 303.026784 
L 175.661884 311.93887 
L 176.702779 335.294678 
L 177.223227 333.072928 
L 178.264122 308.786529 
L 178.78457 300.484094 
L 179.305018 294.652235 
L 179.825465 290.420454 
L 180.345913 287.232722 
L 181.386809 282.763782 
L 182.427704 279.778892 
L 183.4686 277.639341 
L 184.509495 276.028249 
L 185.55039 274.771511 
L 187.111734 273.335569 
L 188.673077 272.268234 
L 190.23442 271.457281 
L 192.316211 270.664507 
L 194.398002 270.121775 
L 196.479793 269.781034 
L 199.082031 269.607292 
L 201.163822 269.669447 
L 203.245613 269.932241 
L 205.327404 270.443866 
L 206.888747 271.044416 
L 208.45009 271.904641 
L 209.490986 272.677696 
L 210.531881 273.673335 
L 211.572776 274.979723 
L 212.613672 276.742464 
L 213.654567 279.219649 
L 214.175015 280.86658 
L 214.695463 282.913052 
L 215.21591 285.51614 
L 215.736358 288.922391 
L 216.256806 293.531119 
L 216.777254 299.991566 
L 217.297701 309.235898 
L 218.338597 331.781324 
L 218.859044 328.191914 
L 219.89994 304.528825 
L 220.420388 296.632272 
L 220.940835 291.074189 
L 221.461283 287.035491 
L 221.981731 283.993615 
L 223.022626 279.740557 
L 224.063522 276.919312 
L 225.104417 274.916136 
L 226.145313 273.4246 
L 227.186208 272.275677 
L 228.747551 270.985243 
L 230.308894 270.048435 
L 231.870238 269.356086 
L 233.952028 268.706291 
L 236.033819 268.292223 
L 238.636058 268.039294 
L 241.238296 268.050466 
L 243.320087 268.255943 
L 245.401878 268.666286 
L 247.483669 269.341399 
L 249.045012 270.087135 
L 250.606355 271.129587 
L 251.647251 272.059465 
L 252.688146 273.259196 
L 253.729042 274.847465 
L 254.769937 277.028394 
L 255.810833 280.183507 
L 256.33128 282.345742 
L 256.851728 285.107954 
L 257.372176 288.743038 
L 257.892624 293.695248 
L 258.413071 300.681211 
L 258.933519 310.654508 
L 259.453967 323.374052 
L 259.974414 331.475111 
L 260.494862 324.833259 
L 261.535758 301.647473 
L 262.056205 294.340441 
L 262.576653 289.174029 
L 263.097101 285.393815 
L 263.617548 282.528636 
L 264.658444 278.494897 
L 265.699339 275.802232 
L 266.740235 273.883923 
L 267.78113 272.453676 
L 268.822026 271.352151 
L 270.383369 270.117314 
L 271.944712 269.224907 
L 273.506055 268.570135 
L 275.587846 267.963754 
L 277.669637 267.588204 
L 280.271876 267.379266 
L 282.874114 267.4321 
L 284.955905 267.670798 
L 287.037696 268.115939 
L 289.119487 268.829973 
L 290.68083 269.610351 
L 292.242173 270.6963 
L 293.283069 271.663678 
L 294.323964 272.912438 
L 295.364859 274.569096 
L 296.405755 276.853258 
L 296.926203 278.347578 
L 297.44665 280.180438 
L 297.967098 282.477101 
L 298.487546 285.430536 
L 299.007993 289.348691 
L 299.528441 294.734983 
L 300.048889 302.387788 
L 301.089784 325.965328 
L 301.610232 330.795898 
L 302.13068 321.255691 
L 302.651127 308.673248 
L 303.171575 299.113788 
L 303.692023 292.430241 
L 304.212471 287.670853 
L 304.732918 284.158093 
L 305.773814 279.364648 
L 306.814709 276.26647 
L 307.855605 274.108433 
L 308.8965 272.525388 
L 309.937396 271.320793 
L 310.978291 270.37983 
L 312.539634 269.313511 
L 314.100977 268.538446 
L 316.182768 267.818958 
L 318.264559 267.360287 
L 320.34635 267.103731 
L 322.948589 267.025915 
L 325.550827 267.210121 
L 327.632618 267.568602 
L 329.714409 268.163516 
L 331.275752 268.816483 
L 332.837095 269.717421 
L 333.877991 270.508453 
L 334.918886 271.511313 
L 335.959782 272.808754 
L 337.000677 274.536292 
L 338.041572 276.931574 
L 338.56202 278.50751 
L 339.082468 280.450322 
L 339.602916 282.900023 
L 340.123363 286.074417 
L 340.643811 290.32413 
L 341.164259 296.22315 
L 341.684707 304.651973 
L 342.725602 328.407936 
L 343.24605 329.127275 
L 344.286945 305.548514 
L 344.807393 296.838898 
L 345.327841 290.748845 
L 345.848288 286.373941 
L 346.368736 283.114916 
L 347.409631 278.618532 
L 348.450527 275.679555 
L 349.491422 273.616928 
L 350.532318 272.096122 
L 351.573213 270.934889 
L 352.614109 270.025775 
L 354.175452 268.994133 
L 355.736795 268.244285 
L 357.818586 267.550074 
L 359.900377 267.111306 
L 361.982168 266.871818 
L 364.584406 266.813732 
L 367.186645 267.018172 
L 369.268436 267.395063 
L 371.350227 268.012699 
L 372.91157 268.687862 
L 374.472913 269.618764 
L 375.513808 270.436838 
L 376.554704 271.475869 
L 377.595599 272.824058 
L 378.636495 274.627054 
L 379.67739 277.143071 
L 380.197838 278.809003 
L 380.718286 280.874385 
L 381.238733 283.496645 
L 381.759181 286.923157 
L 382.279629 291.555286 
L 382.800076 298.047681 
L 383.320524 307.346864 
L 384.36142 330.121259 
L 384.881867 326.482675 
L 385.922763 302.680768 
L 386.44321 294.784897 
L 386.963658 289.239548 
L 387.484106 285.217235 
L 388.004554 282.192658 
L 389.045449 277.973906 
L 390.086345 275.185522 
L 391.12724 273.213729 
L 392.168135 271.752284 
L 393.209031 270.632334 
L 394.770374 269.383536 
L 396.331717 268.48645 
L 397.89306 267.832129 
L 399.974851 267.230694 
L 402.056642 266.862595 
L 404.658881 266.664186 
L 407.261119 266.727091 
L 409.34291 266.972352 
L 411.424701 267.421499 
L 413.506492 268.135082 
L 415.067835 268.910159 
L 416.629178 269.98339 
L 417.670074 270.935471 
L 418.710969 272.15992 
L 419.751865 273.777368 
L 420.79276 275.995811 
L 421.833655 279.205395 
L 422.354103 281.407024 
L 422.874551 284.223153 
L 423.394999 287.936088 
L 423.915446 293.00676 
L 424.435894 300.178357 
L 424.956342 310.417515 
L 425.47679 323.28111 
L 425.997237 330.681172 
L 426.517685 323.131696 
L 427.55858 300.070152 
L 428.079028 292.926028 
L 428.599476 287.872245 
L 429.119924 284.169341 
L 429.640371 281.359093 
L 430.681267 277.397397 
L 431.722162 274.750416 
L 432.763058 272.864706 
L 433.803953 271.45983 
L 434.844848 270.379329 
L 436.406192 269.171069 
L 437.967535 268.301571 
L 439.528878 267.667408 
L 441.610669 267.086172 
L 443.69246 266.733988 
L 446.294698 266.552658 
L 448.896937 266.632089 
L 450.978728 266.891895 
L 453.060519 267.358609 
L 455.14231 268.095619 
L 456.703653 268.895227 
L 458.264996 270.003718 
L 459.305891 270.98937 
L 460.346787 272.260889 
L 461.387682 273.947932 
L 462.428578 276.276437 
L 462.949025 277.802023 
L 463.469473 279.676086 
L 463.989921 282.029127 
L 464.510369 285.062999 
L 465.030816 289.101144 
L 465.551264 294.673581 
L 466.071712 302.614696 
L 467.112607 326.473051 
L 467.633055 329.888687 
L 469.194398 297.703692 
L 469.714846 291.239966 
L 470.235293 286.62628 
L 470.755741 283.211294 
L 471.796637 278.535092 
L 472.837532 275.502385 
L 473.878428 273.385676 
L 474.919323 271.831324 
L 475.960218 270.648176 
L 477.001114 269.724202 
L 478.562457 268.678234 
L 480.1238 267.919744 
L 482.205591 267.218924 
L 484.287382 266.776607 
L 486.369173 266.535078 
L 488.971411 266.475121 
L 491.57365 266.67707 
L 493.655441 267.050418 
L 495.737232 267.661737 
L 497.298575 268.328963 
L 498.859918 269.247198 
L 499.900814 270.052562 
L 500.941709 271.073409 
L 501.982604 272.394706 
L 503.0235 274.156094 
L 504.064395 276.603596 
L 504.584843 278.217688 
L 505.105291 280.211922 
L 505.625738 282.733442 
L 506.146186 286.01222 
L 506.666634 290.42002 
L 507.187082 296.565712 
L 507.707529 305.36644 
L 508.748425 328.964413 
L 509.268873 327.822712 
L 510.309768 303.92952 
L 510.830216 295.561717 
L 511.350663 289.70673 
L 511.871111 285.485737 
L 512.391559 282.329888 
L 513.432454 277.957148 
L 514.47335 275.08668 
L 515.514245 273.066557 
L 516.555141 271.574525 
L 517.596036 270.434155 
L 519.157379 269.16567 
L 520.718722 268.25641 
L 522.280066 267.59417 
L 524.361856 266.985942 
L 526.443647 266.613422 
L 529.045886 266.41099 
L 531.648124 266.4701 
L 533.729915 266.71155 
L 535.811706 267.155214 
L 537.893497 267.860143 
L 539.45484 268.625022 
L 541.016183 269.682415 
L 542.057079 270.618701 
L 543.097974 271.8204 
L 544.13887 273.403609 
L 545.179765 275.567425 
L 546.220661 278.682685 
L 546.741108 280.809581 
L 547.261556 283.518965 
L 547.782004 287.073823 
L 548.302452 291.902472 
L 548.822899 298.701504 
L 549.343347 308.440487 
L 549.863795 321.172758 
L 550.384242 330.339143 
L 550.90469 324.784909 
L 551.945586 301.169326 
L 552.466033 293.622425 
L 552.986481 288.308659 
L 553.506929 284.437739 
L 554.027376 281.515184 
L 555.068272 277.419593 
L 556.109167 274.6998 
L 557.150063 272.770482 
L 558.190958 271.33757 
L 559.231854 270.238055 
L 560.793197 269.011081 
L 562.35454 268.12966 
L 563.915883 267.487453 
L 565.997674 266.898946 
L 568.079465 266.541677 
L 570.681704 266.355372 
L 573.283942 266.430009 
L 575.365733 266.685204 
L 577.447524 267.145646 
L 579.529315 267.873229 
L 581.090658 268.662052 
L 582.652001 269.754064 
L 583.692897 270.723401 
L 584.733792 271.971467 
L 585.774687 273.623153 
L 586.815583 275.894913 
L 587.856478 279.195509 
L 588.376926 281.469194 
L 588.897374 284.388616 
L 589.417821 288.255536 
L 589.938269 293.564032 
L 590.458717 301.103995 
L 591.499612 324.720549 
L 592.02006 330.313653 
L 592.540508 321.165358 
L 593.060956 308.422197 
L 593.581403 298.67127 
L 594.101851 291.86418 
L 594.622299 287.030201 
L 595.142746 283.471552 
L 596.183642 278.630034 
L 597.224537 275.510971 
L 598.265433 273.343971 
L 599.306328 271.757888 
L 600.347224 270.553482 
L 601.388119 269.614586 
L 602.949462 268.553384 
L 604.510805 267.784772 
L 606.592596 267.0749 
L 608.674387 266.626336 
L 610.756178 266.379992 
L 613.358417 266.314753 
L 615.960655 266.511031 
L 618.042446 266.878602 
L 620.124237 267.481834 
L 621.68558 268.140297 
L 623.246923 269.045754 
L 624.287819 269.838973 
L 625.328714 270.843023 
L 626.36961 272.140138 
L 627.410505 273.864902 
L 628.4514 276.253146 
L 628.971848 277.822891 
L 629.492296 279.756697 
L 630.012744 282.193238 
L 630.533191 285.348188 
L 631.053639 289.568849 
L 631.574087 295.424891 
L 632.094535 303.797221 
L 633.13543 327.723675 
L 633.655878 328.860238 
L 635.217221 296.414559 
L 635.737669 290.266757 
L 636.258116 285.857787 
L 636.778564 282.578089 
L 637.819459 278.060554 
L 638.860355 275.112976 
L 639.90125 273.047256 
L 640.942146 271.526095 
L 641.983041 270.365992 
L 643.023937 269.45887 
L 644.58528 268.431133 
L 646.146623 267.685788 
L 648.228414 266.998021 
L 650.310205 266.565892 
L 652.391996 266.333063 
L 654.994234 266.283175 
L 657.596473 266.495542 
L 659.678264 266.878485 
L 661.760055 267.501807 
L 663.321398 268.180885 
L 664.882741 269.115255 
L 665.923636 269.935277 
L 665.923636 269.935277 
" clip-path="url(#pf213bc0e75)" style="fill: none; stroke-dasharray: 11.1,4.8; stroke-dashoffset: 0; stroke: #ff7f0e; stroke-width: 3"/>
   </g>
   <g id="line2d_39">
    <path d="M 145.996364 225.776332 
L 146.516811 232.049372 
L 147.037259 231.404781 
L 147.557707 225.585791 
L 148.598602 230.587893 
L 149.639498 234.154744 
L 150.680393 236.886225 
L 151.721289 239.030904 
L 152.762184 240.730679 
L 153.803079 242.097923 
L 155.364423 243.701407 
L 156.925766 244.928003 
L 158.487109 245.893299 
L 160.5689 246.897243 
L 163.171138 247.842261 
L 166.293825 248.678824 
L 169.936959 249.39134 
L 174.620988 250.046934 
L 183.4686 250.985737 
L 191.275315 251.524547 
L 201.68427 251.998353 
L 215.736358 252.398591 
L 242.279192 252.880504 
L 277.669637 253.214566 
L 332.316648 253.483176 
L 436.406192 253.719475 
L 620.644685 253.884408 
L 665.923636 253.90708 
L 665.923636 253.90708 
" clip-path="url(#pf213bc0e75)" style="fill: none; stroke-dasharray: 19.2,4.8,3,4.8; stroke-dashoffset: 0; stroke: #2ca02c; stroke-width: 3"/>
   </g>
   <g id="line2d_40">
    <path d="M 145.996364 248.988919 
L 146.516811 254.064237 
L 153.803079 254.146597 
L 665.923636 254.14705 
L 665.923636 254.14705 
" clip-path="url(#pf213bc0e75)" style="fill: none; stroke-dasharray: 3,4.95; stroke-dashoffset: 0; stroke: #d62728; stroke-width: 3"/>
   </g>
   <g id="line2d_41">
    <path d="M 145.996364 65.223279 
L 146.516811 183.138755 
L 147.037259 188.302543 
L 147.557707 235.666364 
L 148.078155 253.912592 
L 148.598602 253.854357 
L 149.639498 254.140011 
L 157.966661 254.14705 
L 665.923636 254.14705 
L 665.923636 254.14705 
" clip-path="url(#pf213bc0e75)" style="fill: none; stroke-dasharray: 9,3,3,3; stroke-dashoffset: 0; stroke: #9467bd; stroke-width: 3"/>
   </g>
   <g id="line2d_42">
    <path d="M 145.996364 123.829925 
L 152.762184 123.821519 
L 665.923636 123.822989 
L 665.923636 123.822989 
" clip-path="url(#pf213bc0e75)" style="fill: none; stroke: #808080; stroke-width: 3; stroke-linecap: square"/>
   </g>
   <g id="patch_3">
    <path d="M 120 417.2325 
L 120 28.875915 
" style="fill: none; stroke: #000000; stroke-width: 2; stroke-linejoin: miter; stroke-linecap: square"/>
   </g>
   <g id="patch_4">
    <path d="M 691.92 417.2325 
L 691.92 28.875915 
" style="fill: none; stroke: #000000; stroke-width: 2; stroke-linejoin: miter; stroke-linecap: square"/>
   </g>
   <g id="patch_5">
    <path d="M 120 417.2325 
L 691.92 417.2325 
" style="fill: none; stroke: #000000; stroke-width: 2; stroke-linejoin: miter; stroke-linecap: square"/>
   </g>
   <g id="patch_6">
    <path d="M 120 28.875915 
L 691.92 28.875915 
" style="fill: none; stroke: #000000; stroke-width: 2; stroke-linejoin: miter; stroke-linecap: square"/>
   </g>
   <g id="legend_1">
    <g id="patch_7">
     <path d="M 131.2 409.2325 
L 276.5275 409.2325 
Q 279.7275 409.2325 279.7275 406.0325 
L 279.7275 266.495 
Q 279.7275 263.295 276.5275 263.295 
L 131.2 263.295 
Q 128 263.295 128 266.495 
L 128 406.0325 
Q 128 409.2325 131.2 409.2325 
z
" style="fill: #ffffff; opacity: 0.8; stroke: #cccccc; stroke-linejoin: miter"/>
    </g>
    <g id="line2d_43">
     <path d="M 134.4 276.2525 
L 150.4 276.2525 
L 166.4 276.2525 
" style="fill: none; stroke: #1f77b4; stroke-width: 3; stroke-linecap: square"/>
    </g>
    <g id="text_15">
     <!-- Kinetic -->
     <g transform="translate(179.2 281.8525) scale(0.16 -0.16)">
      <defs>
       <path id="DejaVuSerif-4b" d="M 353 0 
L 353 331 
L 947 331 
L 947 4331 
L 353 4331 
L 353 4666 
L 2175 4666 
L 2175 4331 
L 1581 4331 
L 1581 2566 
L 3591 4331 
L 3084 4331 
L 3084 4666 
L 4634 4666 
L 4634 4331 
L 4109 4331 
L 2106 2572 
L 4347 331 
L 4878 331 
L 4878 0 
L 3794 0 
L 1581 2216 
L 1581 331 
L 2175 331 
L 2175 0 
L 353 0 
z
" transform="scale(0.015625)"/>
       <path id="DejaVuSerif-69" d="M 622 4353 
Q 622 4497 726 4603 
Q 831 4709 978 4709 
Q 1122 4709 1226 4603 
Q 1331 4497 1331 4353 
Q 1331 4206 1228 4103 
Q 1125 4000 978 4000 
Q 831 4000 726 4103 
Q 622 4206 622 4353 
z
M 1356 331 
L 1900 331 
L 1900 0 
L 231 0 
L 231 331 
L 781 331 
L 781 2988 
L 231 2988 
L 231 3322 
L 1356 3322 
L 1356 331 
z
" transform="scale(0.015625)"/>
       <path id="DejaVuSerif-6e" d="M 263 0 
L 263 331 
L 781 331 
L 781 2988 
L 231 2988 
L 231 3322 
L 1356 3322 
L 1356 2731 
Q 1516 3069 1770 3241 
Q 2025 3413 2363 3413 
Q 2913 3413 3172 3097 
Q 3431 2781 3431 2113 
L 3431 331 
L 3944 331 
L 3944 0 
L 2356 0 
L 2356 331 
L 2853 331 
L 2853 1931 
Q 2853 2541 2703 2767 
Q 2553 2994 2175 2994 
Q 1775 2994 1565 2701 
Q 1356 2409 1356 1850 
L 1356 331 
L 1856 331 
L 1856 0 
L 263 0 
z
" transform="scale(0.015625)"/>
       <path id="DejaVuSerif-65" d="M 3469 1600 
L 991 1600 
L 991 1575 
Q 991 903 1244 561 
Q 1497 219 1991 219 
Q 2369 219 2611 417 
Q 2853 616 2950 1006 
L 3413 1006 
Q 3275 459 2904 184 
Q 2534 -91 1931 -91 
Q 1203 -91 761 389 
Q 319 869 319 1663 
Q 319 2450 753 2931 
Q 1188 3413 1894 3413 
Q 2647 3413 3050 2948 
Q 3453 2484 3469 1600 
z
M 2791 1931 
Q 2772 2513 2545 2808 
Q 2319 3103 1894 3103 
Q 1497 3103 1269 2806 
Q 1041 2509 991 1931 
L 2791 1931 
z
" transform="scale(0.015625)"/>
       <path id="DejaVuSerif-74" d="M 691 2988 
L 184 2988 
L 184 3322 
L 691 3322 
L 691 4353 
L 1269 4353 
L 1269 3322 
L 2350 3322 
L 2350 2988 
L 1269 2988 
L 1269 878 
Q 1269 456 1350 337 
Q 1431 219 1650 219 
Q 1875 219 1978 351 
Q 2081 484 2088 781 
L 2522 781 
Q 2497 328 2275 118 
Q 2053 -91 1600 -91 
Q 1103 -91 897 129 
Q 691 350 691 878 
L 691 2988 
z
" transform="scale(0.015625)"/>
       <path id="DejaVuSerif-63" d="M 3291 997 
Q 3169 466 2822 187 
Q 2475 -91 1925 -91 
Q 1200 -91 759 389 
Q 319 869 319 1663 
Q 319 2459 759 2936 
Q 1200 3413 1925 3413 
Q 2241 3413 2553 3339 
Q 2866 3266 3181 3116 
L 3181 2266 
L 2847 2266 
Q 2781 2703 2561 2903 
Q 2341 3103 1931 3103 
Q 1466 3103 1228 2742 
Q 991 2381 991 1663 
Q 991 944 1227 581 
Q 1463 219 1931 219 
Q 2303 219 2525 412 
Q 2747 606 2828 997 
L 3291 997 
z
" transform="scale(0.015625)"/>
      </defs>
      <use xlink:href="#DejaVuSerif-4b"/>
      <use xlink:href="#DejaVuSerif-69" x="74.707031"/>
      <use xlink:href="#DejaVuSerif-6e" x="106.689453"/>
      <use xlink:href="#DejaVuSerif-65" x="171.09375"/>
      <use xlink:href="#DejaVuSerif-74" x="230.273438"/>
      <use xlink:href="#DejaVuSerif-69" x="270.458984"/>
      <use xlink:href="#DejaVuSerif-63" x="302.441406"/>
     </g>
    </g>
    <g id="line2d_44">
     <path d="M 134.4 299.7375 
L 150.4 299.7375 
L 166.4 299.7375 
" style="fill: none; stroke-dasharray: 11.1,4.8; stroke-dashoffset: 0; stroke: #ff7f0e; stroke-width: 3"/>
    </g>
    <g id="text_16">
     <!-- $e^-$-nucleus -->
     <g transform="translate(179.2 305.3375) scale(0.16 -0.16)">
      <defs>
       <path id="Cmmi10-65" d="M 1288 -72 
Q 981 -72 751 87 
Q 522 247 401 517 
Q 281 788 281 1088 
Q 281 1544 511 1945 
Q 741 2347 1134 2587 
Q 1528 2828 1978 2828 
Q 2253 2828 2458 2686 
Q 2663 2544 2663 2278 
Q 2663 1909 2369 1729 
Q 2075 1550 1706 1508 
Q 1338 1466 891 1466 
L 872 1466 
Q 769 1084 769 813 
Q 769 528 900 312 
Q 1031 97 1300 97 
Q 1681 97 2032 272 
Q 2384 447 2606 756 
Q 2625 775 2656 775 
Q 2688 775 2720 739 
Q 2753 703 2753 672 
Q 2753 647 2741 634 
Q 2506 306 2109 117 
Q 1713 -72 1288 -72 
z
M 909 1631 
Q 1281 1631 1597 1665 
Q 1913 1700 2169 1839 
Q 2425 1978 2425 2272 
Q 2425 2391 2359 2480 
Q 2294 2569 2189 2616 
Q 2084 2663 1972 2663 
Q 1700 2663 1483 2516 
Q 1266 2369 1125 2133 
Q 984 1897 909 1631 
z
" transform="scale(0.015625)"/>
       <path id="Cmsy10-a1" d="M 653 1472 
Q 600 1472 565 1512 
Q 531 1553 531 1600 
Q 531 1647 565 1687 
Q 600 1728 653 1728 
L 4325 1728 
Q 4375 1728 4408 1687 
Q 4441 1647 4441 1600 
Q 4441 1553 4408 1512 
Q 4375 1472 4325 1472 
L 653 1472 
z
" transform="scale(0.015625)"/>
       <path id="DejaVuSerif-2d" d="M 281 1959 
L 1881 1959 
L 1881 1472 
L 281 1472 
L 281 1959 
z
" transform="scale(0.015625)"/>
       <path id="DejaVuSerif-6c" d="M 1313 331 
L 1856 331 
L 1856 0 
L 184 0 
L 184 331 
L 738 331 
L 738 4531 
L 184 4531 
L 184 4863 
L 1313 4863 
L 1313 331 
z
" transform="scale(0.015625)"/>
       <path id="DejaVuSerif-73" d="M 359 184 
L 359 959 
L 691 959 
Q 703 588 923 403 
Q 1144 219 1575 219 
Q 1963 219 2166 364 
Q 2369 509 2369 788 
Q 2369 1006 2220 1140 
Q 2072 1275 1594 1428 
L 1178 1569 
Q 750 1706 558 1912 
Q 366 2119 366 2438 
Q 366 2894 700 3153 
Q 1034 3413 1625 3413 
Q 1888 3413 2178 3344 
Q 2469 3275 2778 3144 
L 2778 2419 
L 2447 2419 
Q 2434 2741 2221 2922 
Q 2009 3103 1644 3103 
Q 1281 3103 1095 2975 
Q 909 2847 909 2591 
Q 909 2381 1050 2254 
Q 1191 2128 1613 1997 
L 2069 1856 
Q 2541 1709 2748 1489 
Q 2956 1269 2956 922 
Q 2956 450 2595 179 
Q 2234 -91 1600 -91 
Q 1278 -91 972 -22 
Q 666 47 359 184 
z
" transform="scale(0.015625)"/>
      </defs>
      <use xlink:href="#Cmmi10-65" transform="translate(0 0.015625)"/>
      <use xlink:href="#Cmsy10-a1" transform="translate(65.078672 38.279688) scale(0.7)"/>
      <use xlink:href="#DejaVuSerif-2d" transform="translate(138.126914 0.015625)"/>
      <use xlink:href="#DejaVuSerif-6e" transform="translate(171.915977 0.015625)"/>
      <use xlink:href="#DejaVuSerif-75" transform="translate(236.320273 0.015625)"/>
      <use xlink:href="#DejaVuSerif-63" transform="translate(300.72457 0.015625)"/>
      <use xlink:href="#DejaVuSerif-6c" transform="translate(356.73043 0.015625)"/>
      <use xlink:href="#DejaVuSerif-65" transform="translate(388.712852 0.015625)"/>
      <use xlink:href="#DejaVuSerif-75" transform="translate(447.892539 0.015625)"/>
      <use xlink:href="#DejaVuSerif-73" transform="translate(512.296836 0.015625)"/>
     </g>
    </g>
    <g id="line2d_45">
     <path d="M 134.4 323.2225 
L 150.4 323.2225 
L 166.4 323.2225 
" style="fill: none; stroke-dasharray: 19.2,4.8,3,4.8; stroke-dashoffset: 0; stroke: #2ca02c; stroke-width: 3"/>
    </g>
    <g id="text_17">
     <!-- $e^-$-$e^-$ -->
     <g transform="translate(179.2 328.8225) scale(0.16 -0.16)">
      <use xlink:href="#Cmmi10-65" transform="translate(0 0.835938)"/>
      <use xlink:href="#Cmsy10-a1" transform="translate(65.078672 39.1) scale(0.7)"/>
      <use xlink:href="#DejaVuSerif-2d" transform="translate(138.126914 0.835938)"/>
      <use xlink:href="#Cmmi10-65" transform="translate(171.915977 0.835938)"/>
      <use xlink:href="#Cmsy10-a1" transform="translate(236.994648 39.1) scale(0.7)"/>
     </g>
    </g>
    <g id="line2d_46">
     <path d="M 134.4 346.7075 
L 150.4 346.7075 
L 166.4 346.7075 
" style="fill: none; stroke-dasharray: 3,4.95; stroke-dashoffset: 0; stroke: #d62728; stroke-width: 3"/>
    </g>
    <g id="text_18">
     <!-- Heisenberg -->
     <g transform="translate(179.2 352.3075) scale(0.16 -0.16)">
      <defs>
       <path id="DejaVuSerif-48" d="M 353 0 
L 353 331 
L 947 331 
L 947 4331 
L 353 4331 
L 353 4666 
L 2175 4666 
L 2175 4331 
L 1581 4331 
L 1581 2719 
L 4000 2719 
L 4000 4331 
L 3406 4331 
L 3406 4666 
L 5228 4666 
L 5228 4331 
L 4634 4331 
L 4634 331 
L 5228 331 
L 5228 0 
L 3406 0 
L 3406 331 
L 4000 331 
L 4000 2338 
L 1581 2338 
L 1581 331 
L 2175 331 
L 2175 0 
L 353 0 
z
" transform="scale(0.015625)"/>
       <path id="DejaVuSerif-62" d="M 738 331 
L 738 4531 
L 184 4531 
L 184 4863 
L 1313 4863 
L 1313 2803 
Q 1481 3116 1742 3264 
Q 2003 3413 2388 3413 
Q 3000 3413 3387 2928 
Q 3775 2444 3775 1663 
Q 3775 881 3387 395 
Q 3000 -91 2388 -91 
Q 2003 -91 1742 57 
Q 1481 206 1313 519 
L 1313 0 
L 184 0 
L 184 331 
L 738 331 
z
M 1313 1497 
Q 1313 897 1542 583 
Q 1772 269 2209 269 
Q 2650 269 2876 622 
Q 3103 975 3103 1663 
Q 3103 2353 2876 2703 
Q 2650 3053 2209 3053 
Q 1772 3053 1542 2737 
Q 1313 2422 1313 1825 
L 1313 1497 
z
" transform="scale(0.015625)"/>
       <path id="DejaVuSerif-72" d="M 3059 3328 
L 3059 2497 
L 2728 2497 
Q 2713 2744 2591 2866 
Q 2469 2988 2234 2988 
Q 1809 2988 1582 2694 
Q 1356 2400 1356 1850 
L 1356 331 
L 2022 331 
L 2022 0 
L 263 0 
L 263 331 
L 781 331 
L 781 2994 
L 231 2994 
L 231 3322 
L 1356 3322 
L 1356 2731 
Q 1525 3078 1790 3245 
Q 2056 3413 2438 3413 
Q 2578 3413 2733 3391 
Q 2888 3369 3059 3328 
z
" transform="scale(0.015625)"/>
       <path id="DejaVuSerif-67" d="M 3359 2988 
L 3359 72 
Q 3359 -644 2965 -1033 
Q 2572 -1422 1844 -1422 
Q 1516 -1422 1216 -1362 
Q 916 -1303 641 -1184 
L 641 -488 
L 941 -488 
Q 997 -813 1206 -963 
Q 1416 -1113 1806 -1113 
Q 2313 -1113 2548 -827 
Q 2784 -541 2784 72 
L 2784 519 
Q 2616 206 2355 57 
Q 2094 -91 1709 -91 
Q 1097 -91 708 395 
Q 319 881 319 1663 
Q 319 2444 706 2928 
Q 1094 3413 1709 3413 
Q 2094 3413 2355 3264 
Q 2616 3116 2784 2803 
L 2784 3322 
L 3909 3322 
L 3909 2988 
L 3359 2988 
z
M 2784 1825 
Q 2784 2422 2554 2737 
Q 2325 3053 1888 3053 
Q 1444 3053 1217 2703 
Q 991 2353 991 1663 
Q 991 975 1217 622 
Q 1444 269 1888 269 
Q 2325 269 2554 583 
Q 2784 897 2784 1497 
L 2784 1825 
z
" transform="scale(0.015625)"/>
      </defs>
      <use xlink:href="#DejaVuSerif-48"/>
      <use xlink:href="#DejaVuSerif-65" x="87.207031"/>
      <use xlink:href="#DejaVuSerif-69" x="146.386719"/>
      <use xlink:href="#DejaVuSerif-73" x="178.369141"/>
      <use xlink:href="#DejaVuSerif-65" x="229.6875"/>
      <use xlink:href="#DejaVuSerif-6e" x="288.867188"/>
      <use xlink:href="#DejaVuSerif-62" x="353.271484"/>
      <use xlink:href="#DejaVuSerif-65" x="417.285156"/>
      <use xlink:href="#DejaVuSerif-72" x="476.464844"/>
      <use xlink:href="#DejaVuSerif-67" x="524.267578"/>
     </g>
    </g>
    <g id="line2d_47">
     <path d="M 134.4 370.42 
L 150.4 370.42 
L 166.4 370.42 
" style="fill: none; stroke-dasharray: 9,3,3,3; stroke-dashoffset: 0; stroke: #9467bd; stroke-width: 3"/>
    </g>
    <g id="text_19">
     <!-- Pauli -->
     <g transform="translate(179.2 376.02) scale(0.16 -0.16)">
      <defs>
       <path id="DejaVuSerif-50" d="M 1581 2375 
L 2406 2375 
Q 2872 2375 3115 2626 
Q 3359 2878 3359 3353 
Q 3359 3831 3115 4081 
Q 2872 4331 2406 4331 
L 1581 4331 
L 1581 2375 
z
M 353 0 
L 353 331 
L 947 331 
L 947 4331 
L 353 4331 
L 353 4666 
L 2559 4666 
Q 3259 4666 3668 4311 
Q 4078 3956 4078 3353 
Q 4078 2753 3668 2397 
Q 3259 2041 2559 2041 
L 1581 2041 
L 1581 331 
L 2303 331 
L 2303 0 
L 353 0 
z
" transform="scale(0.015625)"/>
      </defs>
      <use xlink:href="#DejaVuSerif-50"/>
      <use xlink:href="#DejaVuSerif-61" x="62.785156"/>
      <use xlink:href="#DejaVuSerif-75" x="122.404297"/>
      <use xlink:href="#DejaVuSerif-6c" x="186.808594"/>
      <use xlink:href="#DejaVuSerif-69" x="218.791016"/>
     </g>
    </g>
    <g id="line2d_48">
     <path d="M 134.4 393.905 
L 150.4 393.905 
L 166.4 393.905 
" style="fill: none; stroke: #808080; stroke-width: 3; stroke-linecap: square"/>
    </g>
    <g id="text_20">
     <!-- Total -->
     <g transform="translate(179.2 399.505) scale(0.16 -0.16)">
      <defs>
       <path id="DejaVuSerif-54" d="M 1222 0 
L 1222 331 
L 1819 331 
L 1819 4294 
L 447 4294 
L 447 3566 
L 63 3566 
L 63 4666 
L 4206 4666 
L 4206 3566 
L 3822 3566 
L 3822 4294 
L 2450 4294 
L 2450 331 
L 3047 331 
L 3047 0 
L 1222 0 
z
" transform="scale(0.015625)"/>
       <path id="DejaVuSerif-6f" d="M 1925 219 
Q 2388 219 2623 584 
Q 2859 950 2859 1663 
Q 2859 2375 2623 2739 
Q 2388 3103 1925 3103 
Q 1463 3103 1227 2739 
Q 991 2375 991 1663 
Q 991 950 1228 584 
Q 1466 219 1925 219 
z
M 1925 -91 
Q 1200 -91 759 389 
Q 319 869 319 1663 
Q 319 2456 758 2934 
Q 1197 3413 1925 3413 
Q 2653 3413 3092 2934 
Q 3531 2456 3531 1663 
Q 3531 869 3092 389 
Q 2653 -91 1925 -91 
z
" transform="scale(0.015625)"/>
      </defs>
      <use xlink:href="#DejaVuSerif-54"/>
      <use xlink:href="#DejaVuSerif-6f" x="58.949219"/>
      <use xlink:href="#DejaVuSerif-74" x="119.154297"/>
      <use xlink:href="#DejaVuSerif-61" x="159.339844"/>
      <use xlink:href="#DejaVuSerif-6c" x="218.958984"/>
     </g>
    </g>
   </g>
  </g>
 </g>
 <defs>
  <clipPath id="pf213bc0e75">
   <rect x="120" y="28.875915" width="571.92" height="388.356585"/>
  </clipPath>
 </defs>
</svg>
