<?xml version="1.0" encoding="utf-8" standalone="no"?>
<!DOCTYPE svg PUBLIC "-//W3C//DTD SVG 1.1//EN"
  "http://www.w3.org/Graphics/SVG/1.1/DTD/svg11.dtd">
<svg xmlns:xlink="http://www.w3.org/1999/xlink" width="864pt" height="432pt" viewBox="0 0 864 432" xmlns="http://www.w3.org/2000/svg" version="1.1">
 <metadata>
  <rdf:RDF xmlns:dc="http://purl.org/dc/elements/1.1/" xmlns:cc="http://creativecommons.org/ns#" xmlns:rdf="http://www.w3.org/1999/02/22-rdf-syntax-ns#">
   <cc:Work>
    <dc:type rdf:resource="http://purl.org/dc/dcmitype/StillImage"/>
    <dc:date>2025-06-05T17:19:02.501533</dc:date>
    <dc:format>image/svg+xml</dc:format>
    <dc:creator>
     <cc:Agent>
      <dc:title>Matplotlib v3.7.2, https://matplotlib.org/</dc:title>
     </cc:Agent>
    </dc:creator>
   </cc:Work>
  </rdf:RDF>
 </metadata>
 <defs>
  <style type="text/css">*{stroke-linejoin: round; stroke-linecap: butt}</style>
 </defs>
 <g id="figure_1">
  <g id="patch_1">
   <path d="M 0 432 
L 864 432 
L 864 0 
L 0 0 
z
" style="fill: #ffffff"/>
  </g>
  <g id="axes_1">
   <g id="patch_2">
    <path d="M 156.27 345.2325 
L 429.548584 345.2325 
L 429.548584 50.52 
L 156.27 50.52 
z
" style="fill: #ffffff"/>
   </g>
   <g id="matplotlib.axis_1">
    <g id="xtick_1">
     <g id="line2d_1">
      <path d="M 168.691754 345.2325 
L 168.691754 50.52 
" clip-path="url(#p48bebde492)" style="fill: none; stroke-dasharray: 3.7,1.6; stroke-dashoffset: 0; stroke: #b0b0b0; stroke-opacity: 0.5"/>
     </g>
     <g id="line2d_2">
      <defs>
       <path id="m04d83324b6" d="M 0 0 
L 0 -10 
" style="stroke: #000000; stroke-width: 2"/>
      </defs>
      <g>
       <use xlink:href="#m04d83324b6" x="168.691754" y="345.2325" style="stroke: #000000; stroke-width: 2"/>
      </g>
     </g>
     <g id="line2d_3">
      <defs>
       <path id="mebac258b5e" d="M 0 0 
L 0 10 
" style="stroke: #000000; stroke-width: 2"/>
      </defs>
      <g>
       <use xlink:href="#mebac258b5e" x="168.691754" y="50.52" style="stroke: #000000; stroke-width: 2"/>
      </g>
     </g>
     <g id="text_1">
      <!-- 0 -->
      <g transform="translate(160.420504 368.488437) scale(0.26 -0.26)">
       <defs>
        <path id="DejaVuSerif-30" d="M 2034 219 
Q 2513 219 2750 744 
Q 2988 1269 2988 2328 
Q 2988 3391 2750 3916 
Q 2513 4441 2034 4441 
Q 1556 4441 1318 3916 
Q 1081 3391 1081 2328 
Q 1081 1269 1318 744 
Q 1556 219 2034 219 
z
M 2034 -91 
Q 1275 -91 848 546 
Q 422 1184 422 2328 
Q 422 3475 848 4112 
Q 1275 4750 2034 4750 
Q 2797 4750 3222 4112 
Q 3647 3475 3647 2328 
Q 3647 1184 3222 546 
Q 2797 -91 2034 -91 
z
" transform="scale(0.015625)"/>
       </defs>
       <use xlink:href="#DejaVuSerif-30"/>
      </g>
     </g>
    </g>
    <g id="xtick_2">
     <g id="line2d_4">
      <path d="M 268.065784 345.2325 
L 268.065784 50.52 
" clip-path="url(#p48bebde492)" style="fill: none; stroke-dasharray: 3.7,1.6; stroke-dashoffset: 0; stroke: #b0b0b0; stroke-opacity: 0.5"/>
     </g>
     <g id="line2d_5">
      <g>
       <use xlink:href="#m04d83324b6" x="268.065784" y="345.2325" style="stroke: #000000; stroke-width: 2"/>
      </g>
     </g>
     <g id="line2d_6">
      <g>
       <use xlink:href="#mebac258b5e" x="268.065784" y="50.52" style="stroke: #000000; stroke-width: 2"/>
      </g>
     </g>
     <g id="text_2">
      <!-- 20 -->
      <g transform="translate(251.523284 368.488437) scale(0.26 -0.26)">
       <defs>
        <path id="DejaVuSerif-32" d="M 819 3553 
L 469 3553 
L 469 4384 
Q 803 4563 1142 4656 
Q 1481 4750 1806 4750 
Q 2534 4750 2956 4397 
Q 3378 4044 3378 3438 
Q 3378 2753 2422 1800 
Q 2347 1728 2309 1691 
L 1131 513 
L 3078 513 
L 3078 1088 
L 3444 1088 
L 3444 0 
L 434 0 
L 434 341 
L 1850 1753 
Q 2319 2222 2519 2614 
Q 2719 3006 2719 3438 
Q 2719 3909 2473 4175 
Q 2228 4441 1797 4441 
Q 1350 4441 1106 4219 
Q 863 3997 819 3553 
z
" transform="scale(0.015625)"/>
       </defs>
       <use xlink:href="#DejaVuSerif-32"/>
       <use xlink:href="#DejaVuSerif-30" x="63.623047"/>
      </g>
     </g>
    </g>
    <g id="xtick_3">
     <g id="line2d_7">
      <path d="M 367.439815 345.2325 
L 367.439815 50.52 
" clip-path="url(#p48bebde492)" style="fill: none; stroke-dasharray: 3.7,1.6; stroke-dashoffset: 0; stroke: #b0b0b0; stroke-opacity: 0.5"/>
     </g>
     <g id="line2d_8">
      <g>
       <use xlink:href="#m04d83324b6" x="367.439815" y="345.2325" style="stroke: #000000; stroke-width: 2"/>
      </g>
     </g>
     <g id="line2d_9">
      <g>
       <use xlink:href="#mebac258b5e" x="367.439815" y="50.52" style="stroke: #000000; stroke-width: 2"/>
      </g>
     </g>
     <g id="text_3">
      <!-- 40 -->
      <g transform="translate(350.897315 368.488437) scale(0.26 -0.26)">
       <defs>
        <path id="DejaVuSerif-34" d="M 2234 1581 
L 2234 4063 
L 641 1581 
L 2234 1581 
z
M 3609 0 
L 1484 0 
L 1484 331 
L 2234 331 
L 2234 1247 
L 197 1247 
L 197 1588 
L 2241 4750 
L 2859 4750 
L 2859 1581 
L 3750 1581 
L 3750 1247 
L 2859 1247 
L 2859 331 
L 3609 331 
L 3609 0 
z
" transform="scale(0.015625)"/>
       </defs>
       <use xlink:href="#DejaVuSerif-34"/>
       <use xlink:href="#DejaVuSerif-30" x="63.623047"/>
      </g>
     </g>
    </g>
    <g id="text_4">
     <!-- $t$ (a.u.) -->
     <g transform="translate(249.489292 397.651563) scale(0.26 -0.26)">
      <defs>
       <path id="Cmmi10-74" d="M 397 519 
Q 397 613 416 697 
L 878 2534 
L 206 2534 
Q 141 2534 141 2619 
Q 166 2759 225 2759 
L 934 2759 
L 1191 3803 
Q 1216 3888 1291 3947 
Q 1366 4006 1459 4006 
Q 1541 4006 1595 3957 
Q 1650 3909 1650 3828 
Q 1650 3809 1648 3798 
Q 1647 3788 1644 3775 
L 1388 2759 
L 2047 2759 
Q 2113 2759 2113 2675 
Q 2109 2659 2100 2621 
Q 2091 2584 2075 2559 
Q 2059 2534 2028 2534 
L 1331 2534 
L 872 684 
Q 825 503 825 372 
Q 825 97 1013 97 
Q 1294 97 1511 361 
Q 1728 625 1844 941 
Q 1869 978 1894 978 
L 1972 978 
Q 1997 978 2012 961 
Q 2028 944 2028 922 
Q 2028 909 2022 903 
Q 1881 516 1612 222 
Q 1344 -72 997 -72 
Q 744 -72 570 93 
Q 397 259 397 519 
z
" transform="scale(0.015625)"/>
       <path id="DejaVuSerif-20" transform="scale(0.015625)"/>
       <path id="DejaVuSerif-28" d="M 2041 -997 
Q 1281 -656 893 83 
Q 506 822 506 1931 
Q 506 3044 893 3783 
Q 1281 4522 2041 4863 
L 2041 4556 
Q 1559 4225 1350 3623 
Q 1141 3022 1141 1931 
Q 1141 844 1350 242 
Q 1559 -359 2041 -691 
L 2041 -997 
z
" transform="scale(0.015625)"/>
       <path id="DejaVuSerif-61" d="M 2547 1044 
L 2547 1747 
L 1806 1747 
Q 1378 1747 1168 1562 
Q 959 1378 959 997 
Q 959 650 1171 447 
Q 1384 244 1747 244 
Q 2106 244 2326 466 
Q 2547 688 2547 1044 
z
M 3122 2075 
L 3122 331 
L 3634 331 
L 3634 0 
L 2547 0 
L 2547 359 
Q 2356 128 2106 18 
Q 1856 -91 1522 -91 
Q 969 -91 644 203 
Q 319 497 319 997 
Q 319 1513 691 1797 
Q 1063 2081 1741 2081 
L 2547 2081 
L 2547 2309 
Q 2547 2688 2317 2895 
Q 2088 3103 1672 3103 
Q 1328 3103 1125 2947 
Q 922 2791 872 2484 
L 575 2484 
L 575 3156 
Q 875 3284 1158 3348 
Q 1441 3413 1709 3413 
Q 2400 3413 2761 3070 
Q 3122 2728 3122 2075 
z
" transform="scale(0.015625)"/>
       <path id="DejaVuSerif-2e" d="M 603 325 
Q 603 500 722 622 
Q 841 744 1019 744 
Q 1191 744 1312 622 
Q 1434 500 1434 325 
Q 1434 153 1312 31 
Q 1191 -91 1019 -91 
Q 841 -91 722 29 
Q 603 150 603 325 
z
" transform="scale(0.015625)"/>
       <path id="DejaVuSerif-75" d="M 2266 3322 
L 3341 3322 
L 3341 331 
L 3884 331 
L 3884 0 
L 2766 0 
L 2766 588 
Q 2606 256 2353 82 
Q 2100 -91 1766 -91 
Q 1213 -91 952 223 
Q 691 538 691 1209 
L 691 2988 
L 172 2988 
L 172 3322 
L 1269 3322 
L 1269 1388 
Q 1269 781 1417 556 
Q 1566 331 1947 331 
Q 2347 331 2556 625 
Q 2766 919 2766 1478 
L 2766 2988 
L 2266 2988 
L 2266 3322 
z
" transform="scale(0.015625)"/>
       <path id="DejaVuSerif-29" d="M 453 -997 
L 453 -691 
Q 934 -359 1145 242 
Q 1356 844 1356 1931 
Q 1356 3022 1145 3623 
Q 934 4225 453 4556 
L 453 4863 
Q 1216 4522 1603 3783 
Q 1991 3044 1991 1931 
Q 1991 822 1603 83 
Q 1216 -656 453 -997 
z
" transform="scale(0.015625)"/>
      </defs>
      <use xlink:href="#Cmmi10-74" transform="translate(0 0.015625)"/>
      <use xlink:href="#DejaVuSerif-20" transform="translate(36.083984 0.015625)"/>
      <use xlink:href="#DejaVuSerif-28" transform="translate(67.871094 0.015625)"/>
      <use xlink:href="#DejaVuSerif-61" transform="translate(106.884766 0.015625)"/>
      <use xlink:href="#DejaVuSerif-2e" transform="translate(166.503906 0.015625)"/>
      <use xlink:href="#DejaVuSerif-75" transform="translate(198.291016 0.015625)"/>
      <use xlink:href="#DejaVuSerif-2e" transform="translate(262.695312 0.015625)"/>
      <use xlink:href="#DejaVuSerif-29" transform="translate(294.482422 0.015625)"/>
     </g>
    </g>
   </g>
   <g id="matplotlib.axis_2">
    <g id="ytick_1">
     <g id="line2d_10">
      <path d="M 156.27 273.773925 
L 429.548584 273.773925 
" clip-path="url(#p48bebde492)" style="fill: none; stroke-dasharray: 3.7,1.6; stroke-dashoffset: 0; stroke: #b0b0b0; stroke-opacity: 0.5"/>
     </g>
     <g id="line2d_11">
      <defs>
       <path id="m7854278465" d="M 0 0 
L 10 0 
" style="stroke: #000000; stroke-width: 2"/>
      </defs>
      <g>
       <use xlink:href="#m7854278465" x="156.27" y="273.773925" style="stroke: #000000; stroke-width: 2"/>
      </g>
     </g>
     <g id="line2d_12">
      <defs>
       <path id="m89ac799b2d" d="M 0 0 
L -10 0 
" style="stroke: #000000; stroke-width: 2"/>
      </defs>
      <g>
       <use xlink:href="#m89ac799b2d" x="429.548584" y="273.773925" style="stroke: #000000; stroke-width: 2"/>
      </g>
     </g>
     <g id="text_5">
      <!-- 0.0015 -->
      <g transform="translate(61.794375 283.651894) scale(0.26 -0.26)">
       <defs>
        <path id="DejaVuSerif-31" d="M 909 0 
L 909 331 
L 1722 331 
L 1722 4213 
L 781 3603 
L 781 4013 
L 1919 4750 
L 2350 4750 
L 2350 331 
L 3163 331 
L 3163 0 
L 909 0 
z
" transform="scale(0.015625)"/>
        <path id="DejaVuSerif-35" d="M 3219 4666 
L 3219 4153 
L 1081 4153 
L 1081 2816 
Q 1244 2928 1461 2984 
Q 1678 3041 1947 3041 
Q 2703 3041 3140 2622 
Q 3578 2203 3578 1478 
Q 3578 738 3136 323 
Q 2694 -91 1894 -91 
Q 1572 -91 1234 -12 
Q 897 66 544 225 
L 544 1131 
L 897 1131 
Q 925 688 1179 453 
Q 1434 219 1894 219 
Q 2388 219 2653 544 
Q 2919 869 2919 1478 
Q 2919 2084 2655 2407 
Q 2391 2731 1894 2731 
Q 1613 2731 1398 2631 
Q 1184 2531 1019 2322 
L 750 2322 
L 750 4666 
L 3219 4666 
z
" transform="scale(0.015625)"/>
       </defs>
       <use xlink:href="#DejaVuSerif-30"/>
       <use xlink:href="#DejaVuSerif-2e" x="63.623047"/>
       <use xlink:href="#DejaVuSerif-30" x="95.410156"/>
       <use xlink:href="#DejaVuSerif-30" x="159.033203"/>
       <use xlink:href="#DejaVuSerif-31" x="222.65625"/>
       <use xlink:href="#DejaVuSerif-35" x="286.279297"/>
      </g>
     </g>
    </g>
    <g id="ytick_2">
     <g id="line2d_13">
      <path d="M 156.27 201.610308 
L 429.548584 201.610308 
" clip-path="url(#p48bebde492)" style="fill: none; stroke-dasharray: 3.7,1.6; stroke-dashoffset: 0; stroke: #b0b0b0; stroke-opacity: 0.5"/>
     </g>
     <g id="line2d_14">
      <g>
       <use xlink:href="#m7854278465" x="156.27" y="201.610308" style="stroke: #000000; stroke-width: 2"/>
      </g>
     </g>
     <g id="line2d_15">
      <g>
       <use xlink:href="#m89ac799b2d" x="429.548584" y="201.610308" style="stroke: #000000; stroke-width: 2"/>
      </g>
     </g>
     <g id="text_6">
      <!-- 0.0020 -->
      <g transform="translate(61.794375 211.488276) scale(0.26 -0.26)">
       <use xlink:href="#DejaVuSerif-30"/>
       <use xlink:href="#DejaVuSerif-2e" x="63.623047"/>
       <use xlink:href="#DejaVuSerif-30" x="95.410156"/>
       <use xlink:href="#DejaVuSerif-30" x="159.033203"/>
       <use xlink:href="#DejaVuSerif-32" x="222.65625"/>
       <use xlink:href="#DejaVuSerif-30" x="286.279297"/>
      </g>
     </g>
    </g>
    <g id="ytick_3">
     <g id="line2d_16">
      <path d="M 156.27 129.44669 
L 429.548584 129.44669 
" clip-path="url(#p48bebde492)" style="fill: none; stroke-dasharray: 3.7,1.6; stroke-dashoffset: 0; stroke: #b0b0b0; stroke-opacity: 0.5"/>
     </g>
     <g id="line2d_17">
      <g>
       <use xlink:href="#m7854278465" x="156.27" y="129.44669" style="stroke: #000000; stroke-width: 2"/>
      </g>
     </g>
     <g id="line2d_18">
      <g>
       <use xlink:href="#m89ac799b2d" x="429.548584" y="129.44669" style="stroke: #000000; stroke-width: 2"/>
      </g>
     </g>
     <g id="text_7">
      <!-- 0.0025 -->
      <g transform="translate(61.794375 139.324659) scale(0.26 -0.26)">
       <use xlink:href="#DejaVuSerif-30"/>
       <use xlink:href="#DejaVuSerif-2e" x="63.623047"/>
       <use xlink:href="#DejaVuSerif-30" x="95.410156"/>
       <use xlink:href="#DejaVuSerif-30" x="159.033203"/>
       <use xlink:href="#DejaVuSerif-32" x="222.65625"/>
       <use xlink:href="#DejaVuSerif-35" x="286.279297"/>
      </g>
     </g>
    </g>
    <g id="ytick_4">
     <g id="line2d_19">
      <path d="M 156.27 57.283073 
L 429.548584 57.283073 
" clip-path="url(#p48bebde492)" style="fill: none; stroke-dasharray: 3.7,1.6; stroke-dashoffset: 0; stroke: #b0b0b0; stroke-opacity: 0.5"/>
     </g>
     <g id="line2d_20">
      <g>
       <use xlink:href="#m7854278465" x="156.27" y="57.283073" style="stroke: #000000; stroke-width: 2"/>
      </g>
     </g>
     <g id="line2d_21">
      <g>
       <use xlink:href="#m89ac799b2d" x="429.548584" y="57.283073" style="stroke: #000000; stroke-width: 2"/>
      </g>
     </g>
     <g id="text_8">
      <!-- 0.0030 -->
      <g transform="translate(61.794375 67.161042) scale(0.26 -0.26)">
       <defs>
        <path id="DejaVuSerif-33" d="M 622 4469 
Q 988 4606 1323 4678 
Q 1659 4750 1953 4750 
Q 2638 4750 3022 4454 
Q 3406 4159 3406 3634 
Q 3406 3213 3140 2930 
Q 2875 2647 2388 2547 
Q 2963 2466 3280 2130 
Q 3597 1794 3597 1259 
Q 3597 606 3158 257 
Q 2719 -91 1894 -91 
Q 1528 -91 1179 -12 
Q 831 66 488 225 
L 488 1131 
L 838 1131 
Q 869 681 1141 450 
Q 1413 219 1906 219 
Q 2384 219 2661 495 
Q 2938 772 2938 1253 
Q 2938 1803 2653 2086 
Q 2369 2369 1819 2369 
L 1522 2369 
L 1522 2688 
L 1678 2688 
Q 2225 2688 2498 2914 
Q 2772 3141 2772 3597 
Q 2772 4006 2547 4223 
Q 2322 4441 1900 4441 
Q 1478 4441 1245 4241 
Q 1013 4041 972 3647 
L 622 3647 
L 622 4469 
z
" transform="scale(0.015625)"/>
       </defs>
       <use xlink:href="#DejaVuSerif-30"/>
       <use xlink:href="#DejaVuSerif-2e" x="63.623047"/>
       <use xlink:href="#DejaVuSerif-30" x="95.410156"/>
       <use xlink:href="#DejaVuSerif-30" x="159.033203"/>
       <use xlink:href="#DejaVuSerif-33" x="222.65625"/>
       <use xlink:href="#DejaVuSerif-30" x="286.279297"/>
      </g>
     </g>
    </g>
    <g id="text_9">
     <!-- $E(t)$ (a.u.) -->
     <g transform="translate(51.294375 260.92625) rotate(-90) scale(0.26 -0.26)">
      <defs>
       <path id="Cmmi10-45" d="M 300 0 
Q 238 0 238 84 
Q 241 100 250 139 
Q 259 178 276 201 
Q 294 225 319 225 
Q 709 225 863 269 
Q 947 297 984 441 
L 1863 3956 
Q 1875 4019 1875 4044 
Q 1875 4113 1797 4122 
Q 1678 4147 1338 4147 
Q 1275 4147 1275 4231 
Q 1278 4247 1287 4286 
Q 1297 4325 1314 4348 
Q 1331 4372 1356 4372 
L 4825 4372 
Q 4891 4372 4891 4288 
L 4738 2963 
Q 4738 2947 4714 2926 
Q 4691 2906 4672 2906 
L 4616 2906 
Q 4550 2906 4550 2988 
Q 4588 3300 4588 3450 
Q 4588 3706 4500 3848 
Q 4413 3991 4267 4053 
Q 4122 4116 3945 4131 
Q 3769 4147 3481 4147 
L 2753 4147 
Q 2578 4147 2522 4117 
Q 2466 4088 2419 3928 
L 2034 2381 
L 2534 2381 
Q 2859 2381 3025 2426 
Q 3191 2472 3287 2615 
Q 3384 2759 3463 3072 
Q 3469 3094 3486 3111 
Q 3503 3128 3525 3128 
L 3584 3128 
Q 3647 3128 3647 3047 
L 3250 1466 
Q 3238 1409 3188 1409 
L 3128 1409 
Q 3066 1409 3066 1491 
Q 3128 1747 3128 1869 
Q 3128 2056 2959 2106 
Q 2791 2156 2509 2156 
L 1978 2156 
L 1544 416 
Q 1516 338 1516 275 
Q 1516 225 1734 225 
L 2509 225 
Q 2972 225 3259 297 
Q 3547 369 3736 526 
Q 3925 684 4062 928 
Q 4200 1172 4397 1638 
Q 4409 1678 4453 1678 
L 4513 1678 
Q 4538 1678 4556 1656 
Q 4575 1634 4575 1606 
Q 4575 1594 4569 1581 
L 3909 38 
Q 3897 0 3859 0 
L 300 0 
z
" transform="scale(0.015625)"/>
       <path id="Cmr10-28" d="M 1984 -1588 
Q 1628 -1306 1370 -942 
Q 1113 -578 948 -165 
Q 784 247 703 697 
Q 622 1147 622 1600 
Q 622 2059 703 2509 
Q 784 2959 951 3375 
Q 1119 3791 1378 4153 
Q 1638 4516 1984 4788 
Q 1984 4800 2016 4800 
L 2075 4800 
Q 2094 4800 2109 4783 
Q 2125 4766 2125 4744 
Q 2125 4716 2113 4703 
Q 1800 4397 1592 4047 
Q 1384 3697 1257 3301 
Q 1131 2906 1075 2482 
Q 1019 2059 1019 1600 
Q 1019 -434 2106 -1491 
Q 2125 -1509 2125 -1544 
Q 2125 -1559 2108 -1579 
Q 2091 -1600 2075 -1600 
L 2016 -1600 
Q 1984 -1600 1984 -1588 
z
" transform="scale(0.015625)"/>
       <path id="Cmr10-29" d="M 416 -1600 
Q 359 -1600 359 -1544 
Q 359 -1516 372 -1503 
Q 1466 -434 1466 1600 
Q 1466 3634 384 4691 
Q 359 4706 359 4744 
Q 359 4766 376 4783 
Q 394 4800 416 4800 
L 475 4800 
Q 494 4800 506 4788 
Q 966 4425 1272 3906 
Q 1578 3388 1720 2800 
Q 1863 2213 1863 1600 
Q 1863 1147 1786 708 
Q 1709 269 1542 -157 
Q 1375 -584 1119 -945 
Q 863 -1306 506 -1588 
Q 494 -1600 475 -1600 
L 416 -1600 
z
" transform="scale(0.015625)"/>
      </defs>
      <use xlink:href="#Cmmi10-45" transform="translate(0 0.015625)"/>
      <use xlink:href="#Cmr10-28" transform="translate(73.779297 0.015625)"/>
      <use xlink:href="#Cmmi10-74" transform="translate(112.597656 0.015625)"/>
      <use xlink:href="#Cmr10-29" transform="translate(148.681641 0.015625)"/>
      <use xlink:href="#DejaVuSerif-20" transform="translate(187.5 0.015625)"/>
      <use xlink:href="#DejaVuSerif-28" transform="translate(219.287109 0.015625)"/>
      <use xlink:href="#DejaVuSerif-61" transform="translate(258.300781 0.015625)"/>
      <use xlink:href="#DejaVuSerif-2e" transform="translate(317.919922 0.015625)"/>
      <use xlink:href="#DejaVuSerif-75" transform="translate(349.707031 0.015625)"/>
      <use xlink:href="#DejaVuSerif-2e" transform="translate(414.111328 0.015625)"/>
      <use xlink:href="#DejaVuSerif-29" transform="translate(445.898438 0.015625)"/>
     </g>
    </g>
    <g id="text_10">
     <!-- +1.807e1 -->
     <g transform="translate(156.27 47.52) scale(0.26 -0.26)">
      <defs>
       <path id="DejaVuSerif-2b" d="M 2931 4013 
L 2931 2259 
L 4684 2259 
L 4684 1753 
L 2931 1753 
L 2931 0 
L 2431 0 
L 2431 1753 
L 678 1753 
L 678 2259 
L 2431 2259 
L 2431 4013 
L 2931 4013 
z
" transform="scale(0.015625)"/>
       <path id="DejaVuSerif-38" d="M 2981 1275 
Q 2981 1775 2732 2051 
Q 2484 2328 2034 2328 
Q 1584 2328 1336 2051 
Q 1088 1775 1088 1275 
Q 1088 772 1336 495 
Q 1584 219 2034 219 
Q 2484 219 2732 495 
Q 2981 772 2981 1275 
z
M 2853 3541 
Q 2853 3966 2637 4203 
Q 2422 4441 2034 4441 
Q 1650 4441 1433 4203 
Q 1216 3966 1216 3541 
Q 1216 3113 1433 2875 
Q 1650 2638 2034 2638 
Q 2422 2638 2637 2875 
Q 2853 3113 2853 3541 
z
M 2516 2484 
Q 3047 2413 3344 2092 
Q 3641 1772 3641 1275 
Q 3641 619 3225 264 
Q 2809 -91 2034 -91 
Q 1263 -91 845 264 
Q 428 619 428 1275 
Q 428 1772 725 2092 
Q 1022 2413 1556 2484 
Q 1084 2569 832 2842 
Q 581 3116 581 3541 
Q 581 4103 968 4426 
Q 1356 4750 2034 4750 
Q 2713 4750 3100 4426 
Q 3488 4103 3488 3541 
Q 3488 3116 3236 2842 
Q 2984 2569 2516 2484 
z
" transform="scale(0.015625)"/>
       <path id="DejaVuSerif-37" d="M 3609 4347 
L 1784 0 
L 1319 0 
L 3059 4153 
L 903 4153 
L 903 3578 
L 538 3578 
L 538 4666 
L 3609 4666 
L 3609 4347 
z
" transform="scale(0.015625)"/>
       <path id="DejaVuSerif-65" d="M 3469 1600 
L 991 1600 
L 991 1575 
Q 991 903 1244 561 
Q 1497 219 1991 219 
Q 2369 219 2611 417 
Q 2853 616 2950 1006 
L 3413 1006 
Q 3275 459 2904 184 
Q 2534 -91 1931 -91 
Q 1203 -91 761 389 
Q 319 869 319 1663 
Q 319 2450 753 2931 
Q 1188 3413 1894 3413 
Q 2647 3413 3050 2948 
Q 3453 2484 3469 1600 
z
M 2791 1931 
Q 2772 2513 2545 2808 
Q 2319 3103 1894 3103 
Q 1497 3103 1269 2806 
Q 1041 2509 991 1931 
L 2791 1931 
z
" transform="scale(0.015625)"/>
      </defs>
      <use xlink:href="#DejaVuSerif-2b"/>
      <use xlink:href="#DejaVuSerif-31" x="83.789062"/>
      <use xlink:href="#DejaVuSerif-2e" x="147.412109"/>
      <use xlink:href="#DejaVuSerif-38" x="179.199219"/>
      <use xlink:href="#DejaVuSerif-30" x="242.822266"/>
      <use xlink:href="#DejaVuSerif-37" x="306.445312"/>
      <use xlink:href="#DejaVuSerif-65" x="370.068359"/>
      <use xlink:href="#DejaVuSerif-31" x="429.248047"/>
     </g>
    </g>
   </g>
   <g id="line2d_22">
    <path d="M 168.691754 331.836477 
L 168.940438 160.314098 
L 169.189121 213.977675 
L 169.437805 141.412023 
L 169.686489 118.638155 
L 170.183856 136.812006 
L 170.681224 148.872458 
L 171.178591 156.553431 
L 171.675959 161.657076 
L 172.42201 166.665326 
L 173.168062 169.864613 
L 173.914113 171.979784 
L 174.660164 173.390992 
L 175.406215 174.255817 
L 175.903583 174.5848 
L 176.40095 174.72204 
L 176.898318 174.684293 
L 177.395685 174.476506 
L 177.893053 174.005138 
L 178.39042 173.312424 
L 178.887788 172.325494 
L 179.385156 170.987778 
L 179.882523 169.141981 
L 180.628574 165.027272 
L 181.125942 160.728346 
L 181.623309 154.285696 
L 182.120677 143.717727 
L 182.369361 135.902667 
L 182.866728 109.091715 
L 183.364096 68.351559 
L 183.612779 72.269576 
L 184.358831 130.759987 
L 184.856198 148.826651 
L 185.353566 158.953609 
L 185.850933 165.281056 
L 186.348301 169.707632 
L 187.094352 174.194843 
L 187.840403 177.224665 
L 188.586455 179.379547 
L 189.332506 180.962192 
L 190.078557 182.134223 
L 191.073292 183.254247 
L 192.068027 183.938651 
L 192.814079 184.211001 
L 194.057497 184.410994 
L 194.803549 184.210311 
L 195.5496 183.856016 
L 196.295651 183.252305 
L 197.041702 182.463065 
L 197.787754 181.272113 
L 198.533805 179.614227 
L 199.279856 177.295202 
L 200.025908 173.862125 
L 200.771959 168.607165 
L 201.269326 162.996871 
L 201.766694 154.64932 
L 202.264061 140.012927 
L 202.761429 111.954498 
L 203.258796 73.292147 
L 203.50748 77.334767 
L 204.004848 121.040698 
L 204.502215 145.422236 
L 204.999583 158.219907 
L 205.49695 165.912755 
L 205.994318 171.032527 
L 206.740369 176.037492 
L 207.48642 179.338044 
L 208.232472 181.631017 
L 208.978523 183.282465 
L 209.724574 184.486029 
L 210.719309 185.622576 
L 211.714044 186.306956 
L 212.708779 186.672036 
L 213.454831 186.783541 
L 214.200882 186.618456 
L 214.946933 186.337014 
L 215.692985 185.842415 
L 216.439036 185.122175 
L 217.433771 183.702606 
L 218.179822 182.171097 
L 218.925873 180.02338 
L 219.671925 176.904879 
L 220.417976 172.228858 
L 220.915343 167.424025 
L 221.412711 160.452632 
L 221.910079 148.339278 
L 222.158762 139.914816 
L 222.65613 108.798363 
L 223.153497 63.916023 
L 223.899549 127.023254 
L 224.396916 149.665313 
L 224.894284 161.720639 
L 225.391651 169.01547 
L 225.889019 173.902037 
L 226.63507 178.750707 
L 227.381121 181.925633 
L 228.127173 184.158016 
L 228.873224 185.751129 
L 229.867959 187.249327 
L 230.862694 188.198231 
L 231.857429 188.756442 
L 232.852164 188.998627 
L 233.598215 188.975921 
L 234.344267 188.747578 
L 235.836369 187.949018 
L 236.831104 186.659796 
L 237.577155 185.370621 
L 238.323207 183.586624 
L 238.820574 181.992326 
L 239.566625 178.846172 
L 240.063993 175.781343 
L 240.561361 171.510806 
L 241.058728 165.587752 
L 241.556096 155.909032 
L 241.804779 148.948693 
L 242.302147 126.317388 
L 243.048198 74.121922 
L 244.042933 143.774224 
L 244.540301 158.78897 
L 245.037668 167.48533 
L 245.535036 173.069578 
L 246.032403 177.013407 
L 246.778455 181.047223 
L 247.524506 183.760179 
L 248.270557 185.687621 
L 249.016608 187.080216 
L 249.76266 188.09368 
L 250.757395 189.03102 
L 251.75213 189.554309 
L 252.498181 189.70359 
L 253.7416 189.686418 
L 254.736335 189.294291 
L 255.482386 188.750681 
L 256.477121 187.666105 
L 257.223172 186.489877 
L 257.969224 184.819979 
L 258.715275 182.52092 
L 259.461326 179.183115 
L 260.207378 174.096317 
L 260.704745 168.813962 
L 261.202113 160.934624 
L 261.69948 146.807907 
L 261.948164 136.766707 
L 262.445531 100.516767 
L 262.694215 78.65907 
L 262.942899 78.037982 
L 263.68895 136.614885 
L 264.186318 155.605133 
L 264.683685 166.079851 
L 265.181053 172.56335 
L 265.67842 177.037586 
L 266.424472 181.523173 
L 267.170523 184.483323 
L 267.916574 186.58598 
L 268.662625 188.078772 
L 269.408677 189.167841 
L 270.154728 189.978066 
L 271.149463 190.658031 
L 272.144198 191.019349 
L 272.890249 191.105857 
L 273.636301 190.94101 
L 274.382352 190.659836 
L 275.128403 190.136436 
L 275.874454 189.421773 
L 276.620506 188.341916 
L 277.615241 186.506912 
L 278.361292 184.383632 
L 279.107343 181.346774 
L 279.604711 178.445368 
L 280.102078 174.736821 
L 280.599446 169.124422 
L 281.096813 160.721828 
L 281.594181 145.916563 
L 282.091548 117.784147 
L 282.588916 78.7632 
L 282.8376 82.925066 
L 283.334967 126.973935 
L 283.832335 151.374457 
L 284.329702 164.15138 
L 284.82707 171.809247 
L 285.324437 176.90507 
L 286.070489 181.880195 
L 286.81654 185.148109 
L 287.562591 187.412773 
L 288.308643 189.034596 
L 289.054694 190.210611 
L 290.049429 191.311937 
L 291.044164 191.963804 
L 292.038899 192.30007 
L 292.78495 192.384342 
L 293.531001 192.192829 
L 294.277053 191.892038 
L 295.023104 191.345674 
L 296.017839 190.306855 
L 296.76389 189.110692 
L 297.509942 187.603974 
L 298.255993 185.41352 
L 299.002044 182.263921 
L 299.499412 179.236132 
L 299.996779 175.341937 
L 300.494147 169.359085 
L 300.991514 160.375823 
L 301.488882 144.757708 
L 301.986249 112.781555 
L 302.234933 86.219813 
L 302.483617 76.233663 
L 302.732301 90.314562 
L 303.229668 132.75194 
L 303.727036 154.920611 
L 304.224403 166.729035 
L 304.721771 173.862224 
L 305.219138 178.706706 
L 305.965189 183.493994 
L 306.711241 186.637568 
L 307.457292 188.836418 
L 308.203343 190.404561 
L 308.949395 191.544254 
L 309.94413 192.609471 
L 310.938865 193.237382 
L 311.9336 193.552863 
L 312.679651 193.615227 
L 313.674386 193.323139 
L 314.420437 192.923188 
L 315.415172 192.04776 
L 316.161224 191.062735 
L 317.155959 189.261384 
L 317.90201 187.237111 
L 318.648061 184.372172 
L 319.145429 181.670846 
L 319.642796 178.173649 
L 320.140164 173.06159 
L 320.637531 165.463053 
L 321.134899 152.013394 
L 321.383583 142.703318 
L 321.88095 107.760256 
L 322.129634 84.957818 
L 322.378318 79.303152 
L 323.373053 149.78107 
L 323.87042 164.383346 
L 324.367788 172.913036 
L 325.113839 180.498025 
L 325.85989 185.090861 
L 326.605942 188.115716 
L 327.351993 190.249917 
L 328.098044 191.767777 
L 328.844095 192.872758 
L 329.590147 193.696097 
L 330.584882 194.385838 
L 331.579617 194.753071 
L 332.574352 194.843905 
L 333.817771 194.420611 
L 334.563822 193.909774 
L 335.558557 192.915647 
L 336.304608 191.765724 
L 337.05066 190.331405 
L 337.796711 188.242799 
L 338.542762 185.267926 
L 339.04013 182.437699 
L 339.537497 178.814563 
L 340.034865 173.39422 
L 340.532232 165.305244 
L 341.0296 150.881021 
L 341.278283 140.161235 
L 341.775651 103.331536 
L 342.024335 81.851902 
L 342.273018 84.69777 
L 343.01907 143.100659 
L 343.516437 161.393332 
L 344.013805 171.55317 
L 344.511172 177.880737 
L 345.00854 182.258928 
L 345.754591 186.663759 
L 346.500642 189.576775 
L 347.246694 191.647959 
L 347.992745 193.118473 
L 348.738796 194.19023 
L 349.484848 194.986801 
L 350.479583 195.649723 
L 351.474318 195.995378 
L 352.220369 196.087226 
L 352.96642 195.903066 
L 353.712471 195.609895 
L 354.458523 195.07677 
L 355.204574 194.354298 
L 355.950625 193.294093 
L 356.94536 191.387402 
L 357.691412 189.232211 
L 358.437463 186.142217 
L 358.93483 183.182768 
L 359.432198 179.390621 
L 359.929565 173.607791 
L 360.426933 164.944763 
L 360.9243 149.841476 
L 361.421668 120.046081 
L 361.670352 96.134 
L 361.919036 83.208969 
L 362.167719 89.579677 
L 362.665087 134.052102 
L 363.162454 157.423044 
L 363.659822 169.730046 
L 364.157189 177.139337 
L 364.654557 182.111984 
L 365.400608 186.999076 
L 366.146659 190.206992 
L 366.892711 192.438301 
L 367.638762 194.033108 
L 368.384813 195.190191 
L 369.379548 196.272262 
L 370.374283 196.909951 
L 371.369018 197.234188 
L 372.11507 197.309573 
L 373.109805 197.022629 
L 373.855856 196.635247 
L 374.850591 195.771182 
L 375.596642 194.809026 
L 376.591377 193.025488 
L 377.337429 191.032517 
L 378.08348 188.218507 
L 378.580847 185.581629 
L 379.326899 179.91078 
L 379.824266 173.732282 
L 380.321634 164.470082 
L 380.819001 148.176942 
L 381.316369 114.720375 
L 381.565053 88.209901 
L 381.813736 79.323652 
L 382.808471 152.042514 
L 383.305839 167.292038 
L 383.803206 176.109849 
L 384.300574 181.796272 
L 385.046625 187.24294 
L 385.792677 190.775957 
L 386.538728 193.18737 
L 387.284779 194.921656 
L 388.03083 196.172421 
L 389.025565 197.341206 
L 390.0203 198.043514 
L 391.015035 198.420318 
L 392.009771 198.524491 
L 393.253189 198.110443 
L 393.999241 197.612061 
L 394.993976 196.630826 
L 395.740027 195.496378 
L 396.486078 194.082951 
L 397.232129 192.025851 
L 397.978181 189.105578 
L 398.475548 186.337606 
L 398.972916 182.782842 
L 399.470283 177.518556 
L 399.967651 169.68767 
L 400.465018 155.693103 
L 400.713702 145.663129 
L 401.21107 109.552476 
L 401.459753 87.374729 
L 401.708437 86.098958 
L 402.454488 144.971635 
L 402.951856 164.135616 
L 403.449223 174.681361 
L 403.946591 181.184392 
L 404.443959 185.677905 
L 405.19001 190.172998 
L 405.936061 193.1387 
L 406.682112 195.239438 
L 407.428164 196.731673 
L 408.174215 197.818458 
L 408.920266 198.627272 
L 409.915001 199.301716 
L 410.909736 199.656655 
L 411.904471 199.733467 
L 413.14789 199.294626 
L 413.893941 198.773023 
L 414.888676 197.75993 
L 415.634728 196.592084 
L 416.380779 195.134251 
L 417.12683 193.015231 
L 417.12683 193.015231 
" clip-path="url(#p48bebde492)" style="fill: none; stroke: #1f77b4; stroke-width: 3; stroke-linecap: square"/>
   </g>
   <g id="patch_3">
    <path d="M 156.27 345.2325 
L 156.27 50.52 
" style="fill: none; stroke: #000000; stroke-width: 2; stroke-linejoin: miter; stroke-linecap: square"/>
   </g>
   <g id="patch_4">
    <path d="M 429.548584 345.2325 
L 429.548584 50.52 
" style="fill: none; stroke: #000000; stroke-width: 2; stroke-linejoin: miter; stroke-linecap: square"/>
   </g>
   <g id="patch_5">
    <path d="M 156.27 345.2325 
L 429.548584 345.2325 
" style="fill: none; stroke: #000000; stroke-width: 2; stroke-linejoin: miter; stroke-linecap: square"/>
   </g>
   <g id="patch_6">
    <path d="M 156.27 50.52 
L 429.548584 50.52 
" style="fill: none; stroke: #000000; stroke-width: 2; stroke-linejoin: miter; stroke-linecap: square"/>
   </g>
  </g>
  <g id="axes_2">
   <g id="patch_7">
    <path d="M 562.641416 345.2325 
L 835.92 345.2325 
L 835.92 50.52 
L 562.641416 50.52 
z
" style="fill: #ffffff"/>
   </g>
   <g id="matplotlib.axis_3">
    <g id="xtick_4">
     <g id="line2d_23">
      <path d="M 575.06317 345.2325 
L 575.06317 50.52 
" clip-path="url(#p4648e0b2d7)" style="fill: none; stroke-dasharray: 3.7,1.6; stroke-dashoffset: 0; stroke: #b0b0b0; stroke-opacity: 0.5"/>
     </g>
     <g id="line2d_24">
      <g>
       <use xlink:href="#m04d83324b6" x="575.06317" y="345.2325" style="stroke: #000000; stroke-width: 2"/>
      </g>
     </g>
     <g id="line2d_25">
      <g>
       <use xlink:href="#mebac258b5e" x="575.06317" y="50.52" style="stroke: #000000; stroke-width: 2"/>
      </g>
     </g>
     <g id="text_11">
      <!-- 0 -->
      <g transform="translate(566.79192 368.488437) scale(0.26 -0.26)">
       <use xlink:href="#DejaVuSerif-30"/>
      </g>
     </g>
    </g>
    <g id="xtick_5">
     <g id="line2d_26">
      <path d="M 674.4372 345.2325 
L 674.4372 50.52 
" clip-path="url(#p4648e0b2d7)" style="fill: none; stroke-dasharray: 3.7,1.6; stroke-dashoffset: 0; stroke: #b0b0b0; stroke-opacity: 0.5"/>
     </g>
     <g id="line2d_27">
      <g>
       <use xlink:href="#m04d83324b6" x="674.4372" y="345.2325" style="stroke: #000000; stroke-width: 2"/>
      </g>
     </g>
     <g id="line2d_28">
      <g>
       <use xlink:href="#mebac258b5e" x="674.4372" y="50.52" style="stroke: #000000; stroke-width: 2"/>
      </g>
     </g>
     <g id="text_12">
      <!-- 20 -->
      <g transform="translate(657.8947 368.488437) scale(0.26 -0.26)">
       <use xlink:href="#DejaVuSerif-32"/>
       <use xlink:href="#DejaVuSerif-30" x="63.623047"/>
      </g>
     </g>
    </g>
    <g id="xtick_6">
     <g id="line2d_29">
      <path d="M 773.811231 345.2325 
L 773.811231 50.52 
" clip-path="url(#p4648e0b2d7)" style="fill: none; stroke-dasharray: 3.7,1.6; stroke-dashoffset: 0; stroke: #b0b0b0; stroke-opacity: 0.5"/>
     </g>
     <g id="line2d_30">
      <g>
       <use xlink:href="#m04d83324b6" x="773.811231" y="345.2325" style="stroke: #000000; stroke-width: 2"/>
      </g>
     </g>
     <g id="line2d_31">
      <g>
       <use xlink:href="#mebac258b5e" x="773.811231" y="50.52" style="stroke: #000000; stroke-width: 2"/>
      </g>
     </g>
     <g id="text_13">
      <!-- 40 -->
      <g transform="translate(757.268731 368.488437) scale(0.26 -0.26)">
       <use xlink:href="#DejaVuSerif-34"/>
       <use xlink:href="#DejaVuSerif-30" x="63.623047"/>
      </g>
     </g>
    </g>
    <g id="text_14">
     <!-- $t$ (a.u.) -->
     <g transform="translate(655.860708 397.651563) scale(0.26 -0.26)">
      <use xlink:href="#Cmmi10-74" transform="translate(0 0.015625)"/>
      <use xlink:href="#DejaVuSerif-20" transform="translate(36.083984 0.015625)"/>
      <use xlink:href="#DejaVuSerif-28" transform="translate(67.871094 0.015625)"/>
      <use xlink:href="#DejaVuSerif-61" transform="translate(106.884766 0.015625)"/>
      <use xlink:href="#DejaVuSerif-2e" transform="translate(166.503906 0.015625)"/>
      <use xlink:href="#DejaVuSerif-75" transform="translate(198.291016 0.015625)"/>
      <use xlink:href="#DejaVuSerif-2e" transform="translate(262.695312 0.015625)"/>
      <use xlink:href="#DejaVuSerif-29" transform="translate(294.482422 0.015625)"/>
     </g>
    </g>
   </g>
   <g id="matplotlib.axis_4">
    <g id="ytick_5">
     <g id="line2d_32">
      <path d="M 562.641416 331.836477 
L 835.92 331.836477 
" clip-path="url(#p4648e0b2d7)" style="fill: none; stroke-dasharray: 3.7,1.6; stroke-dashoffset: 0; stroke: #b0b0b0; stroke-opacity: 0.5"/>
     </g>
     <g id="line2d_33">
      <g>
       <use xlink:href="#m7854278465" x="562.641416" y="331.836477" style="stroke: #000000; stroke-width: 2"/>
      </g>
     </g>
     <g id="line2d_34">
      <g>
       <use xlink:href="#m89ac799b2d" x="835.92" y="331.836477" style="stroke: #000000; stroke-width: 2"/>
      </g>
     </g>
     <g id="text_15">
      <!-- $\mathdefault{0}$ -->
      <g transform="translate(542.501416 341.714446) scale(0.26 -0.26)">
       <use xlink:href="#DejaVuSerif-30" transform="translate(0 0.78125)"/>
      </g>
     </g>
    </g>
    <g id="ytick_6">
     <g id="line2d_35">
      <path d="M 562.641416 290.042512 
L 835.92 290.042512 
" clip-path="url(#p4648e0b2d7)" style="fill: none; stroke-dasharray: 3.7,1.6; stroke-dashoffset: 0; stroke: #b0b0b0; stroke-opacity: 0.5"/>
     </g>
     <g id="line2d_36">
      <g>
       <use xlink:href="#m7854278465" x="562.641416" y="290.042512" style="stroke: #000000; stroke-width: 2"/>
      </g>
     </g>
     <g id="line2d_37">
      <g>
       <use xlink:href="#m89ac799b2d" x="835.92" y="290.042512" style="stroke: #000000; stroke-width: 2"/>
      </g>
     </g>
     <g id="text_16">
      <!-- $\mathdefault{10^{-10}}$ -->
      <g transform="translate(486.601416 299.920481) scale(0.26 -0.26)">
       <defs>
        <path id="DejaVuSerif-2212" d="M 678 2259 
L 4684 2259 
L 4684 1753 
L 678 1753 
L 678 2259 
z
" transform="scale(0.015625)"/>
       </defs>
       <use xlink:href="#DejaVuSerif-31" transform="translate(0 0.7125)"/>
       <use xlink:href="#DejaVuSerif-30" transform="translate(63.623047 0.7125)"/>
       <use xlink:href="#DejaVuSerif-2212" transform="translate(128.154453 37.046875) scale(0.7)"/>
       <use xlink:href="#DejaVuSerif-31" transform="translate(186.806797 37.046875) scale(0.7)"/>
       <use xlink:href="#DejaVuSerif-30" transform="translate(231.34293 37.046875) scale(0.7)"/>
      </g>
     </g>
    </g>
    <g id="ytick_7">
     <g id="line2d_38">
      <path d="M 562.641416 252.427943 
L 835.92 252.427943 
" clip-path="url(#p4648e0b2d7)" style="fill: none; stroke-dasharray: 3.7,1.6; stroke-dashoffset: 0; stroke: #b0b0b0; stroke-opacity: 0.5"/>
     </g>
     <g id="line2d_39">
      <g>
       <use xlink:href="#m7854278465" x="562.641416" y="252.427943" style="stroke: #000000; stroke-width: 2"/>
      </g>
     </g>
     <g id="line2d_40">
      <g>
       <use xlink:href="#m89ac799b2d" x="835.92" y="252.427943" style="stroke: #000000; stroke-width: 2"/>
      </g>
     </g>
     <g id="text_17">
      <!-- $\mathdefault{10^{-9}}$ -->
      <g transform="translate(498.301416 262.305912) scale(0.26 -0.26)">
       <defs>
        <path id="DejaVuSerif-39" d="M 2994 2091 
Q 2784 1856 2512 1740 
Q 2241 1625 1900 1625 
Q 1206 1625 804 2044 
Q 403 2463 403 3188 
Q 403 3897 839 4323 
Q 1275 4750 2003 4750 
Q 2794 4750 3217 4161 
Q 3641 3572 3641 2478 
Q 3641 1253 3137 581 
Q 2634 -91 1722 -91 
Q 1475 -91 1203 -44 
Q 931 3 647 97 
L 647 872 
L 997 872 
Q 1038 556 1241 387 
Q 1444 219 1784 219 
Q 2391 219 2687 676 
Q 2984 1134 2994 2091 
z
M 1978 4441 
Q 1534 4441 1298 4117 
Q 1063 3794 1063 3188 
Q 1063 2581 1298 2256 
Q 1534 1931 1978 1931 
Q 2422 1931 2658 2245 
Q 2894 2559 2894 3150 
Q 2894 3772 2656 4106 
Q 2419 4441 1978 4441 
z
" transform="scale(0.015625)"/>
       </defs>
       <use xlink:href="#DejaVuSerif-31" transform="translate(0 0.7125)"/>
       <use xlink:href="#DejaVuSerif-30" transform="translate(63.623047 0.7125)"/>
       <use xlink:href="#DejaVuSerif-2212" transform="translate(128.154453 37.046875) scale(0.7)"/>
       <use xlink:href="#DejaVuSerif-39" transform="translate(186.806797 37.046875) scale(0.7)"/>
      </g>
     </g>
    </g>
    <g id="ytick_8">
     <g id="line2d_41">
      <path d="M 562.641416 214.813374 
L 835.92 214.813374 
" clip-path="url(#p4648e0b2d7)" style="fill: none; stroke-dasharray: 3.7,1.6; stroke-dashoffset: 0; stroke: #b0b0b0; stroke-opacity: 0.5"/>
     </g>
     <g id="line2d_42">
      <g>
       <use xlink:href="#m7854278465" x="562.641416" y="214.813374" style="stroke: #000000; stroke-width: 2"/>
      </g>
     </g>
     <g id="line2d_43">
      <g>
       <use xlink:href="#m89ac799b2d" x="835.92" y="214.813374" style="stroke: #000000; stroke-width: 2"/>
      </g>
     </g>
     <g id="text_18">
      <!-- $\mathdefault{10^{-8}}$ -->
      <g transform="translate(498.301416 224.691343) scale(0.26 -0.26)">
       <use xlink:href="#DejaVuSerif-31" transform="translate(0 0.7125)"/>
       <use xlink:href="#DejaVuSerif-30" transform="translate(63.623047 0.7125)"/>
       <use xlink:href="#DejaVuSerif-2212" transform="translate(128.154453 37.046875) scale(0.7)"/>
       <use xlink:href="#DejaVuSerif-38" transform="translate(186.806797 37.046875) scale(0.7)"/>
      </g>
     </g>
    </g>
    <g id="ytick_9">
     <g id="line2d_44">
      <path d="M 562.641416 177.198806 
L 835.92 177.198806 
" clip-path="url(#p4648e0b2d7)" style="fill: none; stroke-dasharray: 3.7,1.6; stroke-dashoffset: 0; stroke: #b0b0b0; stroke-opacity: 0.5"/>
     </g>
     <g id="line2d_45">
      <g>
       <use xlink:href="#m7854278465" x="562.641416" y="177.198806" style="stroke: #000000; stroke-width: 2"/>
      </g>
     </g>
     <g id="line2d_46">
      <g>
       <use xlink:href="#m89ac799b2d" x="835.92" y="177.198806" style="stroke: #000000; stroke-width: 2"/>
      </g>
     </g>
     <g id="text_19">
      <!-- $\mathdefault{10^{-7}}$ -->
      <g transform="translate(498.301416 187.076774) scale(0.26 -0.26)">
       <use xlink:href="#DejaVuSerif-31" transform="translate(0 0.63125)"/>
       <use xlink:href="#DejaVuSerif-30" transform="translate(63.623047 0.63125)"/>
       <use xlink:href="#DejaVuSerif-2212" transform="translate(128.154453 36.965625) scale(0.7)"/>
       <use xlink:href="#DejaVuSerif-37" transform="translate(186.806797 36.965625) scale(0.7)"/>
      </g>
     </g>
    </g>
    <g id="ytick_10">
     <g id="line2d_47">
      <path d="M 562.641416 139.584237 
L 835.92 139.584237 
" clip-path="url(#p4648e0b2d7)" style="fill: none; stroke-dasharray: 3.7,1.6; stroke-dashoffset: 0; stroke: #b0b0b0; stroke-opacity: 0.5"/>
     </g>
     <g id="line2d_48">
      <g>
       <use xlink:href="#m7854278465" x="562.641416" y="139.584237" style="stroke: #000000; stroke-width: 2"/>
      </g>
     </g>
     <g id="line2d_49">
      <g>
       <use xlink:href="#m89ac799b2d" x="835.92" y="139.584237" style="stroke: #000000; stroke-width: 2"/>
      </g>
     </g>
     <g id="text_20">
      <!-- $\mathdefault{10^{-6}}$ -->
      <g transform="translate(498.301416 149.462206) scale(0.26 -0.26)">
       <defs>
        <path id="DejaVuSerif-36" d="M 2094 219 
Q 2534 219 2771 542 
Q 3009 866 3009 1472 
Q 3009 2078 2771 2401 
Q 2534 2725 2094 2725 
Q 1647 2725 1412 2412 
Q 1178 2100 1178 1509 
Q 1178 888 1415 553 
Q 1653 219 2094 219 
z
M 1075 2569 
Q 1288 2803 1556 2918 
Q 1825 3034 2163 3034 
Q 2859 3034 3264 2615 
Q 3669 2197 3669 1472 
Q 3669 763 3233 336 
Q 2797 -91 2069 -91 
Q 1278 -91 853 498 
Q 428 1088 428 2181 
Q 428 3406 931 4078 
Q 1434 4750 2350 4750 
Q 2597 4750 2869 4703 
Q 3141 4656 3425 4563 
L 3425 3794 
L 3072 3794 
Q 3034 4109 2831 4275 
Q 2628 4441 2284 4441 
Q 1678 4441 1381 3981 
Q 1084 3522 1075 2569 
z
" transform="scale(0.015625)"/>
       </defs>
       <use xlink:href="#DejaVuSerif-31" transform="translate(0 0.7125)"/>
       <use xlink:href="#DejaVuSerif-30" transform="translate(63.623047 0.7125)"/>
       <use xlink:href="#DejaVuSerif-2212" transform="translate(128.154453 37.046875) scale(0.7)"/>
       <use xlink:href="#DejaVuSerif-36" transform="translate(186.806797 37.046875) scale(0.7)"/>
      </g>
     </g>
    </g>
    <g id="ytick_11">
     <g id="line2d_50">
      <path d="M 562.641416 101.969668 
L 835.92 101.969668 
" clip-path="url(#p4648e0b2d7)" style="fill: none; stroke-dasharray: 3.7,1.6; stroke-dashoffset: 0; stroke: #b0b0b0; stroke-opacity: 0.5"/>
     </g>
     <g id="line2d_51">
      <g>
       <use xlink:href="#m7854278465" x="562.641416" y="101.969668" style="stroke: #000000; stroke-width: 2"/>
      </g>
     </g>
     <g id="line2d_52">
      <g>
       <use xlink:href="#m89ac799b2d" x="835.92" y="101.969668" style="stroke: #000000; stroke-width: 2"/>
      </g>
     </g>
     <g id="text_21">
      <!-- $\mathdefault{10^{-5}}$ -->
      <g transform="translate(498.301416 111.847637) scale(0.26 -0.26)">
       <use xlink:href="#DejaVuSerif-31" transform="translate(0 0.63125)"/>
       <use xlink:href="#DejaVuSerif-30" transform="translate(63.623047 0.63125)"/>
       <use xlink:href="#DejaVuSerif-2212" transform="translate(128.154453 36.965625) scale(0.7)"/>
       <use xlink:href="#DejaVuSerif-35" transform="translate(186.806797 36.965625) scale(0.7)"/>
      </g>
     </g>
    </g>
    <g id="ytick_12">
     <g id="line2d_53">
      <path d="M 562.641416 64.355099 
L 835.92 64.355099 
" clip-path="url(#p4648e0b2d7)" style="fill: none; stroke-dasharray: 3.7,1.6; stroke-dashoffset: 0; stroke: #b0b0b0; stroke-opacity: 0.5"/>
     </g>
     <g id="line2d_54">
      <g>
       <use xlink:href="#m7854278465" x="562.641416" y="64.355099" style="stroke: #000000; stroke-width: 2"/>
      </g>
     </g>
     <g id="line2d_55">
      <g>
       <use xlink:href="#m89ac799b2d" x="835.92" y="64.355099" style="stroke: #000000; stroke-width: 2"/>
      </g>
     </g>
     <g id="text_22">
      <!-- $\mathdefault{10^{-4}}$ -->
      <g transform="translate(498.301416 74.233068) scale(0.26 -0.26)">
       <use xlink:href="#DejaVuSerif-31" transform="translate(0 0.7125)"/>
       <use xlink:href="#DejaVuSerif-30" transform="translate(63.623047 0.7125)"/>
       <use xlink:href="#DejaVuSerif-2212" transform="translate(128.154453 37.046875) scale(0.7)"/>
       <use xlink:href="#DejaVuSerif-34" transform="translate(186.806797 37.046875) scale(0.7)"/>
      </g>
     </g>
    </g>
    <g id="text_23">
     <!-- |E(t) - E(0)| / |E(0)| -->
     <g transform="translate(476.471103 321.362031) rotate(-90) scale(0.26 -0.26)">
      <defs>
       <path id="DejaVuSerif-7c" d="M 1331 4891 
L 1331 -1509 
L 825 -1509 
L 825 4891 
L 1331 4891 
z
" transform="scale(0.015625)"/>
       <path id="DejaVuSerif-45" d="M 353 0 
L 353 331 
L 947 331 
L 947 4331 
L 353 4331 
L 353 4666 
L 4109 4666 
L 4109 3628 
L 3725 3628 
L 3725 4281 
L 1581 4281 
L 1581 2719 
L 3109 2719 
L 3109 3303 
L 3494 3303 
L 3494 1753 
L 3109 1753 
L 3109 2338 
L 1581 2338 
L 1581 384 
L 3775 384 
L 3775 1038 
L 4159 1038 
L 4159 0 
L 353 0 
z
" transform="scale(0.015625)"/>
       <path id="DejaVuSerif-74" d="M 691 2988 
L 184 2988 
L 184 3322 
L 691 3322 
L 691 4353 
L 1269 4353 
L 1269 3322 
L 2350 3322 
L 2350 2988 
L 1269 2988 
L 1269 878 
Q 1269 456 1350 337 
Q 1431 219 1650 219 
Q 1875 219 1978 351 
Q 2081 484 2088 781 
L 2522 781 
Q 2497 328 2275 118 
Q 2053 -91 1600 -91 
Q 1103 -91 897 129 
Q 691 350 691 878 
L 691 2988 
z
" transform="scale(0.015625)"/>
       <path id="DejaVuSerif-2d" d="M 281 1959 
L 1881 1959 
L 1881 1472 
L 281 1472 
L 281 1959 
z
" transform="scale(0.015625)"/>
       <path id="DejaVuSerif-2f" d="M 1656 4666 
L 2156 4666 
L 500 -594 
L 0 -594 
L 1656 4666 
z
" transform="scale(0.015625)"/>
      </defs>
      <use xlink:href="#DejaVuSerif-7c"/>
      <use xlink:href="#DejaVuSerif-45" x="33.691406"/>
      <use xlink:href="#DejaVuSerif-28" x="106.689453"/>
      <use xlink:href="#DejaVuSerif-74" x="145.703125"/>
      <use xlink:href="#DejaVuSerif-29" x="185.888672"/>
      <use xlink:href="#DejaVuSerif-20" x="224.902344"/>
      <use xlink:href="#DejaVuSerif-2d" x="256.689453"/>
      <use xlink:href="#DejaVuSerif-20" x="290.478516"/>
      <use xlink:href="#DejaVuSerif-45" x="322.265625"/>
      <use xlink:href="#DejaVuSerif-28" x="395.263672"/>
      <use xlink:href="#DejaVuSerif-30" x="434.277344"/>
      <use xlink:href="#DejaVuSerif-29" x="497.900391"/>
      <use xlink:href="#DejaVuSerif-7c" x="536.914062"/>
      <use xlink:href="#DejaVuSerif-20" x="570.605469"/>
      <use xlink:href="#DejaVuSerif-2f" x="602.392578"/>
      <use xlink:href="#DejaVuSerif-20" x="636.083984"/>
      <use xlink:href="#DejaVuSerif-7c" x="667.871094"/>
      <use xlink:href="#DejaVuSerif-45" x="701.5625"/>
      <use xlink:href="#DejaVuSerif-28" x="774.560547"/>
      <use xlink:href="#DejaVuSerif-30" x="813.574219"/>
      <use xlink:href="#DejaVuSerif-29" x="877.197266"/>
      <use xlink:href="#DejaVuSerif-7c" x="916.210938"/>
     </g>
    </g>
   </g>
   <g id="line2d_56">
    <path d="M 575.06317 331.836477 
L 575.311853 71.201403 
L 575.560537 77.331027 
L 575.809221 69.493629 
L 576.057905 67.648219 
L 576.803956 69.673109 
L 577.301324 70.530822 
L 578.047375 71.329812 
L 578.793426 71.817778 
L 579.788161 72.2181 
L 581.280264 72.532528 
L 583.02105 72.63477 
L 584.513153 72.527692 
L 585.756571 72.250972 
L 586.751306 71.807379 
L 587.497358 71.240904 
L 588.243409 70.231273 
L 588.740777 69.02771 
L 589.238144 66.93265 
L 589.735512 64.188732 
L 589.984195 64.43347 
L 590.730247 68.604475 
L 591.227614 70.142417 
L 591.724982 71.072342 
L 592.471033 71.921986 
L 593.465768 72.579972 
L 594.709187 73.056315 
L 596.201289 73.385974 
L 598.439443 73.62224 
L 600.926281 73.661299 
L 603.413118 73.460064 
L 604.905221 73.151443 
L 606.14864 72.680962 
L 606.894691 72.21312 
L 607.392059 71.759556 
L 607.889426 71.097482 
L 608.386794 70.097094 
L 608.884161 68.405079 
L 609.630212 64.497952 
L 609.878896 64.755398 
L 610.624947 68.981828 
L 611.122315 70.495626 
L 611.619682 71.412692 
L 612.365734 72.255517 
L 613.360469 72.904509 
L 614.603888 73.369322 
L 616.09599 73.682811 
L 618.334144 73.899457 
L 620.820982 73.912645 
L 623.059135 73.718766 
L 624.799922 73.35821 
L 626.043341 72.863245 
L 627.038076 72.154161 
L 627.784127 71.214603 
L 628.281494 70.098971 
L 628.778862 68.292659 
L 629.524913 63.916023 
L 630.768332 70.21745 
L 631.2657 71.335915 
L 632.011751 72.322355 
L 632.757802 72.913136 
L 633.752537 73.401395 
L 634.995956 73.77093 
L 636.736742 74.051429 
L 638.974896 74.186895 
L 641.461734 74.122773 
L 643.20252 73.925598 
L 644.694623 73.583403 
L 645.938041 73.069226 
L 646.684093 72.546364 
L 647.430144 71.71155 
L 647.927511 70.787162 
L 648.424879 69.221941 
L 648.673563 68.24748 
L 649.17093 65.123209 
L 649.419614 64.550465 
L 649.668298 65.678822 
L 650.165665 68.676768 
L 650.663033 70.466229 
L 651.1604 71.521403 
L 651.906452 72.46378 
L 652.652503 73.037432 
L 653.647238 73.51453 
L 655.13934 73.926072 
L 657.128811 74.19462 
L 659.615648 74.27569 
L 661.853802 74.162583 
L 663.843272 73.849161 
L 665.086691 73.466392 
L 666.081426 72.944738 
L 666.827477 72.32331 
L 667.324845 71.663567 
L 667.822212 70.70647 
L 668.31958 69.099908 
L 669.065631 64.840624 
L 669.314315 64.800598 
L 670.30905 70.033765 
L 670.806417 71.312749 
L 671.303785 72.118441 
L 672.049836 72.877243 
L 673.044571 73.478584 
L 674.28799 73.917294 
L 676.028776 74.244821 
L 678.26693 74.416805 
L 680.753768 74.382014 
L 682.743238 74.162365 
L 684.484024 73.758837 
L 685.478759 73.338438 
L 686.224811 72.844366 
L 686.722178 72.373794 
L 687.219546 71.680507 
L 687.716913 70.64643 
L 688.214281 68.893103 
L 688.960332 64.847344 
L 689.209016 65.118224 
L 689.955067 69.484308 
L 690.452434 71.046436 
L 690.949802 71.993266 
L 691.695853 72.863265 
L 692.690588 73.532738 
L 693.934007 74.010546 
L 695.42611 74.330116 
L 697.41558 74.5336 
L 699.902417 74.56037 
L 702.140571 74.376868 
L 703.881357 74.032188 
L 705.124776 73.56928 
L 706.119511 72.924057 
L 706.616879 72.421584 
L 707.114246 71.696016 
L 707.611614 70.550582 
L 708.108981 68.659962 
L 708.855033 64.684874 
L 709.103716 65.610534 
L 709.601084 68.767111 
L 710.098452 70.695638 
L 710.595819 71.82408 
L 711.34187 72.824111 
L 712.087922 73.42242 
L 713.082657 73.923097 
L 714.574759 74.352503 
L 716.564229 74.631224 
L 719.051067 74.727618 
L 721.537904 74.572396 
L 723.278691 74.280018 
L 724.52211 73.896714 
L 725.516845 73.373654 
L 726.262896 72.75362 
L 726.760263 72.099426 
L 727.257631 71.158223 
L 727.754998 69.604782 
L 728.252366 66.835293 
L 728.50105 65.25218 
L 728.749734 64.882235 
L 729.993152 71.003492 
L 730.49052 72.069511 
L 731.236571 73.027058 
L 731.982622 73.602878 
L 732.977357 74.090251 
L 734.46946 74.510722 
L 736.45893 74.783233 
L 738.945768 74.87348 
L 741.681289 74.679441 
L 743.422075 74.344055 
L 744.665494 73.896011 
L 745.660229 73.271857 
L 746.157597 72.804427 
L 746.654964 72.111809 
L 747.152332 71.099185 
L 747.649699 69.38668 
L 748.395751 65.047945 
L 748.644434 65.234981 
L 749.390486 69.639137 
L 749.887853 71.304515 
L 750.385221 72.308494 
L 751.131272 73.225867 
L 751.877323 73.783116 
L 752.872058 74.257169 
L 754.364161 74.669014 
L 756.353631 74.93538 
L 758.840469 75.018747 
L 761.57599 74.8152 
L 763.316776 74.46642 
L 764.560195 73.999446 
L 765.55493 73.349856 
L 766.052298 72.85026 
L 766.549665 72.123538 
L 767.047033 71.012766 
L 767.5444 69.151534 
L 768.290451 65.136867 
L 768.539135 65.560904 
L 769.036503 68.874145 
L 769.53387 70.928354 
L 770.031238 72.123733 
L 770.777289 73.177405 
L 771.52334 73.806802 
L 772.518075 74.329699 
L 773.761494 74.720631 
L 775.50228 75.018008 
L 777.740434 75.161027 
L 779.978588 75.107764 
L 781.968058 74.869321 
L 783.708845 74.425195 
L 784.70358 73.964503 
L 785.449631 73.424816 
L 785.946998 72.891565 
L 786.444366 72.129333 
L 786.941733 70.88886 
L 787.190417 70.084526 
L 787.687785 67.350753 
L 787.936468 65.468798 
L 788.185152 64.883561 
L 789.428571 71.254751 
L 789.925939 72.381613 
L 790.67199 73.387304 
L 791.418041 73.991348 
L 792.412776 74.500241 
L 793.904879 74.938119 
L 795.645665 75.199646 
L 798.132503 75.319488 
L 800.370656 75.206951 
L 802.360127 74.899672 
L 803.603545 74.540848 
L 804.59828 74.059787 
L 805.344332 73.495073 
L 805.841699 72.928079 
L 806.339067 72.119464 
L 806.836434 70.767124 
L 807.333802 68.577121 
L 807.831169 65.412893 
L 808.079853 65.327863 
L 809.074588 70.801162 
L 809.571956 72.156072 
L 810.069323 73.010444 
L 810.815374 73.815484 
L 811.810109 74.454467 
L 813.053528 74.920713 
L 814.794315 75.268544 
L 816.783785 75.440656 
L 819.270622 75.427227 
L 821.260092 75.224958 
L 823.000879 74.833197 
L 823.498246 74.65686 
L 823.498246 74.65686 
" clip-path="url(#p4648e0b2d7)" style="fill: none; stroke: #1f77b4; stroke-width: 3; stroke-linecap: square"/>
   </g>
   <g id="patch_8">
    <path d="M 562.641416 345.2325 
L 562.641416 50.52 
" style="fill: none; stroke: #000000; stroke-width: 2; stroke-linejoin: miter; stroke-linecap: square"/>
   </g>
   <g id="patch_9">
    <path d="M 835.92 345.2325 
L 835.92 50.52 
" style="fill: none; stroke: #000000; stroke-width: 2; stroke-linejoin: miter; stroke-linecap: square"/>
   </g>
   <g id="patch_10">
    <path d="M 562.641416 345.2325 
L 835.92 345.2325 
" style="fill: none; stroke: #000000; stroke-width: 2; stroke-linejoin: miter; stroke-linecap: square"/>
   </g>
   <g id="patch_11">
    <path d="M 562.641416 50.52 
L 835.92 50.52 
" style="fill: none; stroke: #000000; stroke-width: 2; stroke-linejoin: miter; stroke-linecap: square"/>
   </g>
  </g>
 </g>
 <defs>
  <clipPath id="p48bebde492">
   <rect x="156.27" y="50.52" width="273.278584" height="294.7125"/>
  </clipPath>
  <clipPath id="p4648e0b2d7">
   <rect x="562.641416" y="50.52" width="273.278584" height="294.7125"/>
  </clipPath>
 </defs>
</svg>
