<?xml version="1.0" encoding="utf-8" standalone="no"?>
<!DOCTYPE svg PUBLIC "-//W3C//DTD SVG 1.1//EN"
  "http://www.w3.org/Graphics/SVG/1.1/DTD/svg11.dtd">
<svg xmlns:xlink="http://www.w3.org/1999/xlink" width="720pt" height="432pt" viewBox="0 0 720 432" xmlns="http://www.w3.org/2000/svg" version="1.1">
 <metadata>
  <rdf:RDF xmlns:dc="http://purl.org/dc/elements/1.1/" xmlns:cc="http://creativecommons.org/ns#" xmlns:rdf="http://www.w3.org/1999/02/22-rdf-syntax-ns#">
   <cc:Work>
    <dc:type rdf:resource="http://purl.org/dc/dcmitype/StillImage"/>
    <dc:date>2025-03-28T14:40:04.530869</dc:date>
    <dc:format>image/svg+xml</dc:format>
    <dc:creator>
     <cc:Agent>
      <dc:title>Matplotlib v3.7.2, https://matplotlib.org/</dc:title>
     </cc:Agent>
    </dc:creator>
   </cc:Work>
  </rdf:RDF>
 </metadata>
 <defs>
  <style type="text/css">*{stroke-linejoin: round; stroke-linecap: butt}</style>
 </defs>
 <g id="figure_1">
  <g id="patch_1">
   <path d="M 0 432 
L 720 432 
L 720 0 
L 0 0 
z
" style="fill: #ffffff"/>
  </g>
  <g id="axes_1">
   <g id="patch_2">
    <path d="M 90 384.48 
L 648 384.48 
L 648 51.84 
L 90 51.84 
z
" style="fill: #ffffff"/>
   </g>
   <g id="matplotlib.axis_1">
    <g id="xtick_1">
     <g id="line2d_1">
      <path d="M 109.789211 384.48 
L 109.789211 51.84 
" clip-path="url(#p920d1cc2dd)" style="fill: none; stroke: #b0b0b0; stroke-width: 0.8; stroke-linecap: square"/>
     </g>
     <g id="line2d_2">
      <defs>
       <path id="maa981a7a04" d="M 0 0 
L 0 3.5 
" style="stroke: #000000; stroke-width: 0.8"/>
      </defs>
      <g>
       <use xlink:href="#maa981a7a04" x="109.789211" y="384.48" style="stroke: #000000; stroke-width: 0.8"/>
      </g>
     </g>
     <g id="text_1">
      <!-- 0 -->
      <g transform="translate(105.335461 402.117813) scale(0.14 -0.14)">
       <defs>
        <path id="DejaVuSans-30" d="M 2034 4250 
Q 1547 4250 1301 3770 
Q 1056 3291 1056 2328 
Q 1056 1369 1301 889 
Q 1547 409 2034 409 
Q 2525 409 2770 889 
Q 3016 1369 3016 2328 
Q 3016 3291 2770 3770 
Q 2525 4250 2034 4250 
z
M 2034 4750 
Q 2819 4750 3233 4129 
Q 3647 3509 3647 2328 
Q 3647 1150 3233 529 
Q 2819 -91 2034 -91 
Q 1250 -91 836 529 
Q 422 1150 422 2328 
Q 422 3509 836 4129 
Q 1250 4750 2034 4750 
z
" transform="scale(0.015625)"/>
       </defs>
       <use xlink:href="#DejaVuSans-30"/>
      </g>
     </g>
    </g>
    <g id="xtick_2">
     <g id="line2d_3">
      <path d="M 221.277722 384.48 
L 221.277722 51.84 
" clip-path="url(#p920d1cc2dd)" style="fill: none; stroke: #b0b0b0; stroke-width: 0.8; stroke-linecap: square"/>
     </g>
     <g id="line2d_4">
      <g>
       <use xlink:href="#maa981a7a04" x="221.277722" y="384.48" style="stroke: #000000; stroke-width: 0.8"/>
      </g>
     </g>
     <g id="text_2">
      <!-- 20 -->
      <g transform="translate(212.370222 402.117813) scale(0.14 -0.14)">
       <defs>
        <path id="DejaVuSans-32" d="M 1228 531 
L 3431 531 
L 3431 0 
L 469 0 
L 469 531 
Q 828 903 1448 1529 
Q 2069 2156 2228 2338 
Q 2531 2678 2651 2914 
Q 2772 3150 2772 3378 
Q 2772 3750 2511 3984 
Q 2250 4219 1831 4219 
Q 1534 4219 1204 4116 
Q 875 4013 500 3803 
L 500 4441 
Q 881 4594 1212 4672 
Q 1544 4750 1819 4750 
Q 2544 4750 2975 4387 
Q 3406 4025 3406 3419 
Q 3406 3131 3298 2873 
Q 3191 2616 2906 2266 
Q 2828 2175 2409 1742 
Q 1991 1309 1228 531 
z
" transform="scale(0.015625)"/>
       </defs>
       <use xlink:href="#DejaVuSans-32"/>
       <use xlink:href="#DejaVuSans-30" x="63.623047"/>
      </g>
     </g>
    </g>
    <g id="xtick_3">
     <g id="line2d_5">
      <path d="M 332.766234 384.48 
L 332.766234 51.84 
" clip-path="url(#p920d1cc2dd)" style="fill: none; stroke: #b0b0b0; stroke-width: 0.8; stroke-linecap: square"/>
     </g>
     <g id="line2d_6">
      <g>
       <use xlink:href="#maa981a7a04" x="332.766234" y="384.48" style="stroke: #000000; stroke-width: 0.8"/>
      </g>
     </g>
     <g id="text_3">
      <!-- 40 -->
      <g transform="translate(323.858734 402.117813) scale(0.14 -0.14)">
       <defs>
        <path id="DejaVuSans-34" d="M 2419 4116 
L 825 1625 
L 2419 1625 
L 2419 4116 
z
M 2253 4666 
L 3047 4666 
L 3047 1625 
L 3713 1625 
L 3713 1100 
L 3047 1100 
L 3047 0 
L 2419 0 
L 2419 1100 
L 313 1100 
L 313 1709 
L 2253 4666 
z
" transform="scale(0.015625)"/>
       </defs>
       <use xlink:href="#DejaVuSans-34"/>
       <use xlink:href="#DejaVuSans-30" x="63.623047"/>
      </g>
     </g>
    </g>
    <g id="xtick_4">
     <g id="line2d_7">
      <path d="M 444.254745 384.48 
L 444.254745 51.84 
" clip-path="url(#p920d1cc2dd)" style="fill: none; stroke: #b0b0b0; stroke-width: 0.8; stroke-linecap: square"/>
     </g>
     <g id="line2d_8">
      <g>
       <use xlink:href="#maa981a7a04" x="444.254745" y="384.48" style="stroke: #000000; stroke-width: 0.8"/>
      </g>
     </g>
     <g id="text_4">
      <!-- 60 -->
      <g transform="translate(435.347245 402.117813) scale(0.14 -0.14)">
       <defs>
        <path id="DejaVuSans-36" d="M 2113 2584 
Q 1688 2584 1439 2293 
Q 1191 2003 1191 1497 
Q 1191 994 1439 701 
Q 1688 409 2113 409 
Q 2538 409 2786 701 
Q 3034 994 3034 1497 
Q 3034 2003 2786 2293 
Q 2538 2584 2113 2584 
z
M 3366 4563 
L 3366 3988 
Q 3128 4100 2886 4159 
Q 2644 4219 2406 4219 
Q 1781 4219 1451 3797 
Q 1122 3375 1075 2522 
Q 1259 2794 1537 2939 
Q 1816 3084 2150 3084 
Q 2853 3084 3261 2657 
Q 3669 2231 3669 1497 
Q 3669 778 3244 343 
Q 2819 -91 2113 -91 
Q 1303 -91 875 529 
Q 447 1150 447 2328 
Q 447 3434 972 4092 
Q 1497 4750 2381 4750 
Q 2619 4750 2861 4703 
Q 3103 4656 3366 4563 
z
" transform="scale(0.015625)"/>
       </defs>
       <use xlink:href="#DejaVuSans-36"/>
       <use xlink:href="#DejaVuSans-30" x="63.623047"/>
      </g>
     </g>
    </g>
    <g id="xtick_5">
     <g id="line2d_9">
      <path d="M 555.743257 384.48 
L 555.743257 51.84 
" clip-path="url(#p920d1cc2dd)" style="fill: none; stroke: #b0b0b0; stroke-width: 0.8; stroke-linecap: square"/>
     </g>
     <g id="line2d_10">
      <g>
       <use xlink:href="#maa981a7a04" x="555.743257" y="384.48" style="stroke: #000000; stroke-width: 0.8"/>
      </g>
     </g>
     <g id="text_5">
      <!-- 80 -->
      <g transform="translate(546.835757 402.117813) scale(0.14 -0.14)">
       <defs>
        <path id="DejaVuSans-38" d="M 2034 2216 
Q 1584 2216 1326 1975 
Q 1069 1734 1069 1313 
Q 1069 891 1326 650 
Q 1584 409 2034 409 
Q 2484 409 2743 651 
Q 3003 894 3003 1313 
Q 3003 1734 2745 1975 
Q 2488 2216 2034 2216 
z
M 1403 2484 
Q 997 2584 770 2862 
Q 544 3141 544 3541 
Q 544 4100 942 4425 
Q 1341 4750 2034 4750 
Q 2731 4750 3128 4425 
Q 3525 4100 3525 3541 
Q 3525 3141 3298 2862 
Q 3072 2584 2669 2484 
Q 3125 2378 3379 2068 
Q 3634 1759 3634 1313 
Q 3634 634 3220 271 
Q 2806 -91 2034 -91 
Q 1263 -91 848 271 
Q 434 634 434 1313 
Q 434 1759 690 2068 
Q 947 2378 1403 2484 
z
M 1172 3481 
Q 1172 3119 1398 2916 
Q 1625 2713 2034 2713 
Q 2441 2713 2670 2916 
Q 2900 3119 2900 3481 
Q 2900 3844 2670 4047 
Q 2441 4250 2034 4250 
Q 1625 4250 1398 4047 
Q 1172 3844 1172 3481 
z
" transform="scale(0.015625)"/>
       </defs>
       <use xlink:href="#DejaVuSans-38"/>
       <use xlink:href="#DejaVuSans-30" x="63.623047"/>
      </g>
     </g>
    </g>
    <g id="text_6">
     <!-- $Z$ -->
     <g transform="translate(362.79 422.706563) scale(0.18 -0.18)">
      <defs>
       <path id="DejaVuSans-Oblique-5a" d="M 838 4666 
L 4500 4666 
L 4409 4184 
L 794 531 
L 3769 531 
L 3669 0 
L -141 0 
L -50 481 
L 3566 4134 
L 738 4134 
L 838 4666 
z
" transform="scale(0.015625)"/>
      </defs>
      <use xlink:href="#DejaVuSans-Oblique-5a" transform="translate(0 0.09375)"/>
     </g>
    </g>
   </g>
   <g id="matplotlib.axis_2">
    <g id="ytick_1">
     <g id="line2d_11">
      <path d="M 90 347.063099 
L 648 347.063099 
" clip-path="url(#p920d1cc2dd)" style="fill: none; stroke: #b0b0b0; stroke-width: 0.8; stroke-linecap: square"/>
     </g>
     <g id="line2d_12">
      <defs>
       <path id="m08c8c9fda6" d="M 0 0 
L -3.5 0 
" style="stroke: #000000; stroke-width: 0.8"/>
      </defs>
      <g>
       <use xlink:href="#m08c8c9fda6" x="90" y="347.063099" style="stroke: #000000; stroke-width: 0.8"/>
      </g>
     </g>
     <g id="text_7">
      <!-- $\mathdefault{10^{0}}$ -->
      <g transform="translate(58.36 352.382005) scale(0.14 -0.14)">
       <defs>
        <path id="DejaVuSans-31" d="M 794 531 
L 1825 531 
L 1825 4091 
L 703 3866 
L 703 4441 
L 1819 4666 
L 2450 4666 
L 2450 531 
L 3481 531 
L 3481 0 
L 794 0 
L 794 531 
z
" transform="scale(0.015625)"/>
       </defs>
       <use xlink:href="#DejaVuSans-31" transform="translate(0 0.765625)"/>
       <use xlink:href="#DejaVuSans-30" transform="translate(63.623047 0.765625)"/>
       <use xlink:href="#DejaVuSans-30" transform="translate(128.203125 39.046875) scale(0.7)"/>
      </g>
     </g>
    </g>
    <g id="ytick_2">
     <g id="line2d_13">
      <path d="M 90 283.536563 
L 648 283.536563 
" clip-path="url(#p920d1cc2dd)" style="fill: none; stroke: #b0b0b0; stroke-width: 0.8; stroke-linecap: square"/>
     </g>
     <g id="line2d_14">
      <g>
       <use xlink:href="#m08c8c9fda6" x="90" y="283.536563" style="stroke: #000000; stroke-width: 0.8"/>
      </g>
     </g>
     <g id="text_8">
      <!-- $\mathdefault{10^{1}}$ -->
      <g transform="translate(58.36 288.85547) scale(0.14 -0.14)">
       <use xlink:href="#DejaVuSans-31" transform="translate(0 0.684375)"/>
       <use xlink:href="#DejaVuSans-30" transform="translate(63.623047 0.684375)"/>
       <use xlink:href="#DejaVuSans-31" transform="translate(128.203125 38.965625) scale(0.7)"/>
      </g>
     </g>
    </g>
    <g id="ytick_3">
     <g id="line2d_15">
      <path d="M 90 220.010028 
L 648 220.010028 
" clip-path="url(#p920d1cc2dd)" style="fill: none; stroke: #b0b0b0; stroke-width: 0.8; stroke-linecap: square"/>
     </g>
     <g id="line2d_16">
      <g>
       <use xlink:href="#m08c8c9fda6" x="90" y="220.010028" style="stroke: #000000; stroke-width: 0.8"/>
      </g>
     </g>
     <g id="text_9">
      <!-- $\mathdefault{10^{2}}$ -->
      <g transform="translate(58.36 225.328934) scale(0.14 -0.14)">
       <use xlink:href="#DejaVuSans-31" transform="translate(0 0.765625)"/>
       <use xlink:href="#DejaVuSans-30" transform="translate(63.623047 0.765625)"/>
       <use xlink:href="#DejaVuSans-32" transform="translate(128.203125 39.046875) scale(0.7)"/>
      </g>
     </g>
    </g>
    <g id="ytick_4">
     <g id="line2d_17">
      <path d="M 90 156.483492 
L 648 156.483492 
" clip-path="url(#p920d1cc2dd)" style="fill: none; stroke: #b0b0b0; stroke-width: 0.8; stroke-linecap: square"/>
     </g>
     <g id="line2d_18">
      <g>
       <use xlink:href="#m08c8c9fda6" x="90" y="156.483492" style="stroke: #000000; stroke-width: 0.8"/>
      </g>
     </g>
     <g id="text_10">
      <!-- $\mathdefault{10^{3}}$ -->
      <g transform="translate(58.36 161.802398) scale(0.14 -0.14)">
       <defs>
        <path id="DejaVuSans-33" d="M 2597 2516 
Q 3050 2419 3304 2112 
Q 3559 1806 3559 1356 
Q 3559 666 3084 287 
Q 2609 -91 1734 -91 
Q 1441 -91 1130 -33 
Q 819 25 488 141 
L 488 750 
Q 750 597 1062 519 
Q 1375 441 1716 441 
Q 2309 441 2620 675 
Q 2931 909 2931 1356 
Q 2931 1769 2642 2001 
Q 2353 2234 1838 2234 
L 1294 2234 
L 1294 2753 
L 1863 2753 
Q 2328 2753 2575 2939 
Q 2822 3125 2822 3475 
Q 2822 3834 2567 4026 
Q 2313 4219 1838 4219 
Q 1578 4219 1281 4162 
Q 984 4106 628 3988 
L 628 4550 
Q 988 4650 1302 4700 
Q 1616 4750 1894 4750 
Q 2613 4750 3031 4423 
Q 3450 4097 3450 3541 
Q 3450 3153 3228 2886 
Q 3006 2619 2597 2516 
z
" transform="scale(0.015625)"/>
       </defs>
       <use xlink:href="#DejaVuSans-31" transform="translate(0 0.765625)"/>
       <use xlink:href="#DejaVuSans-30" transform="translate(63.623047 0.765625)"/>
       <use xlink:href="#DejaVuSans-33" transform="translate(128.203125 39.046875) scale(0.7)"/>
      </g>
     </g>
    </g>
    <g id="ytick_5">
     <g id="line2d_19">
      <path d="M 90 92.956956 
L 648 92.956956 
" clip-path="url(#p920d1cc2dd)" style="fill: none; stroke: #b0b0b0; stroke-width: 0.8; stroke-linecap: square"/>
     </g>
     <g id="line2d_20">
      <g>
       <use xlink:href="#m08c8c9fda6" x="90" y="92.956956" style="stroke: #000000; stroke-width: 0.8"/>
      </g>
     </g>
     <g id="text_11">
      <!-- $\mathdefault{10^{4}}$ -->
      <g transform="translate(58.36 98.275862) scale(0.14 -0.14)">
       <use xlink:href="#DejaVuSans-31" transform="translate(0 0.684375)"/>
       <use xlink:href="#DejaVuSans-30" transform="translate(63.623047 0.684375)"/>
       <use xlink:href="#DejaVuSans-34" transform="translate(128.203125 38.965625) scale(0.7)"/>
      </g>
     </g>
    </g>
    <g id="ytick_6">
     <g id="line2d_21">
      <defs>
       <path id="m0fd6155a30" d="M 0 0 
L -2 0 
" style="stroke: #000000; stroke-width: 0.6"/>
      </defs>
      <g>
       <use xlink:href="#m0fd6155a30" x="90" y="380.279774" style="stroke: #000000; stroke-width: 0.6"/>
      </g>
     </g>
    </g>
    <g id="ytick_7">
     <g id="line2d_22">
      <g>
       <use xlink:href="#m0fd6155a30" x="90" y="372.342849" style="stroke: #000000; stroke-width: 0.6"/>
      </g>
     </g>
    </g>
    <g id="ytick_8">
     <g id="line2d_23">
      <g>
       <use xlink:href="#m0fd6155a30" x="90" y="366.186492" style="stroke: #000000; stroke-width: 0.6"/>
      </g>
     </g>
    </g>
    <g id="ytick_9">
     <g id="line2d_24">
      <g>
       <use xlink:href="#m0fd6155a30" x="90" y="361.156382" style="stroke: #000000; stroke-width: 0.6"/>
      </g>
     </g>
    </g>
    <g id="ytick_10">
     <g id="line2d_25">
      <g>
       <use xlink:href="#m0fd6155a30" x="90" y="356.903484" style="stroke: #000000; stroke-width: 0.6"/>
      </g>
     </g>
    </g>
    <g id="ytick_11">
     <g id="line2d_26">
      <g>
       <use xlink:href="#m0fd6155a30" x="90" y="353.219457" style="stroke: #000000; stroke-width: 0.6"/>
      </g>
     </g>
    </g>
    <g id="ytick_12">
     <g id="line2d_27">
      <g>
       <use xlink:href="#m0fd6155a30" x="90" y="349.969914" style="stroke: #000000; stroke-width: 0.6"/>
      </g>
     </g>
    </g>
    <g id="ytick_13">
     <g id="line2d_28">
      <g>
       <use xlink:href="#m0fd6155a30" x="90" y="327.939706" style="stroke: #000000; stroke-width: 0.6"/>
      </g>
     </g>
    </g>
    <g id="ytick_14">
     <g id="line2d_29">
      <g>
       <use xlink:href="#m0fd6155a30" x="90" y="316.753239" style="stroke: #000000; stroke-width: 0.6"/>
      </g>
     </g>
    </g>
    <g id="ytick_15">
     <g id="line2d_30">
      <g>
       <use xlink:href="#m0fd6155a30" x="90" y="308.816314" style="stroke: #000000; stroke-width: 0.6"/>
      </g>
     </g>
    </g>
    <g id="ytick_16">
     <g id="line2d_31">
      <g>
       <use xlink:href="#m0fd6155a30" x="90" y="302.659956" style="stroke: #000000; stroke-width: 0.6"/>
      </g>
     </g>
    </g>
    <g id="ytick_17">
     <g id="line2d_32">
      <g>
       <use xlink:href="#m0fd6155a30" x="90" y="297.629846" style="stroke: #000000; stroke-width: 0.6"/>
      </g>
     </g>
    </g>
    <g id="ytick_18">
     <g id="line2d_33">
      <g>
       <use xlink:href="#m0fd6155a30" x="90" y="293.376948" style="stroke: #000000; stroke-width: 0.6"/>
      </g>
     </g>
    </g>
    <g id="ytick_19">
     <g id="line2d_34">
      <g>
       <use xlink:href="#m0fd6155a30" x="90" y="289.692921" style="stroke: #000000; stroke-width: 0.6"/>
      </g>
     </g>
    </g>
    <g id="ytick_20">
     <g id="line2d_35">
      <g>
       <use xlink:href="#m0fd6155a30" x="90" y="286.443378" style="stroke: #000000; stroke-width: 0.6"/>
      </g>
     </g>
    </g>
    <g id="ytick_21">
     <g id="line2d_36">
      <g>
       <use xlink:href="#m0fd6155a30" x="90" y="264.413171" style="stroke: #000000; stroke-width: 0.6"/>
      </g>
     </g>
    </g>
    <g id="ytick_22">
     <g id="line2d_37">
      <g>
       <use xlink:href="#m0fd6155a30" x="90" y="253.226703" style="stroke: #000000; stroke-width: 0.6"/>
      </g>
     </g>
    </g>
    <g id="ytick_23">
     <g id="line2d_38">
      <g>
       <use xlink:href="#m0fd6155a30" x="90" y="245.289778" style="stroke: #000000; stroke-width: 0.6"/>
      </g>
     </g>
    </g>
    <g id="ytick_24">
     <g id="line2d_39">
      <g>
       <use xlink:href="#m0fd6155a30" x="90" y="239.13342" style="stroke: #000000; stroke-width: 0.6"/>
      </g>
     </g>
    </g>
    <g id="ytick_25">
     <g id="line2d_40">
      <g>
       <use xlink:href="#m0fd6155a30" x="90" y="234.10331" style="stroke: #000000; stroke-width: 0.6"/>
      </g>
     </g>
    </g>
    <g id="ytick_26">
     <g id="line2d_41">
      <g>
       <use xlink:href="#m0fd6155a30" x="90" y="229.850413" style="stroke: #000000; stroke-width: 0.6"/>
      </g>
     </g>
    </g>
    <g id="ytick_27">
     <g id="line2d_42">
      <g>
       <use xlink:href="#m0fd6155a30" x="90" y="226.166385" style="stroke: #000000; stroke-width: 0.6"/>
      </g>
     </g>
    </g>
    <g id="ytick_28">
     <g id="line2d_43">
      <g>
       <use xlink:href="#m0fd6155a30" x="90" y="222.916843" style="stroke: #000000; stroke-width: 0.6"/>
      </g>
     </g>
    </g>
    <g id="ytick_29">
     <g id="line2d_44">
      <g>
       <use xlink:href="#m0fd6155a30" x="90" y="200.886635" style="stroke: #000000; stroke-width: 0.6"/>
      </g>
     </g>
    </g>
    <g id="ytick_30">
     <g id="line2d_45">
      <g>
       <use xlink:href="#m0fd6155a30" x="90" y="189.700167" style="stroke: #000000; stroke-width: 0.6"/>
      </g>
     </g>
    </g>
    <g id="ytick_31">
     <g id="line2d_46">
      <g>
       <use xlink:href="#m0fd6155a30" x="90" y="181.763242" style="stroke: #000000; stroke-width: 0.6"/>
      </g>
     </g>
    </g>
    <g id="ytick_32">
     <g id="line2d_47">
      <g>
       <use xlink:href="#m0fd6155a30" x="90" y="175.606885" style="stroke: #000000; stroke-width: 0.6"/>
      </g>
     </g>
    </g>
    <g id="ytick_33">
     <g id="line2d_48">
      <g>
       <use xlink:href="#m0fd6155a30" x="90" y="170.576774" style="stroke: #000000; stroke-width: 0.6"/>
      </g>
     </g>
    </g>
    <g id="ytick_34">
     <g id="line2d_49">
      <g>
       <use xlink:href="#m0fd6155a30" x="90" y="166.323877" style="stroke: #000000; stroke-width: 0.6"/>
      </g>
     </g>
    </g>
    <g id="ytick_35">
     <g id="line2d_50">
      <g>
       <use xlink:href="#m0fd6155a30" x="90" y="162.639849" style="stroke: #000000; stroke-width: 0.6"/>
      </g>
     </g>
    </g>
    <g id="ytick_36">
     <g id="line2d_51">
      <g>
       <use xlink:href="#m0fd6155a30" x="90" y="159.390307" style="stroke: #000000; stroke-width: 0.6"/>
      </g>
     </g>
    </g>
    <g id="ytick_37">
     <g id="line2d_52">
      <g>
       <use xlink:href="#m0fd6155a30" x="90" y="137.360099" style="stroke: #000000; stroke-width: 0.6"/>
      </g>
     </g>
    </g>
    <g id="ytick_38">
     <g id="line2d_53">
      <g>
       <use xlink:href="#m0fd6155a30" x="90" y="126.173632" style="stroke: #000000; stroke-width: 0.6"/>
      </g>
     </g>
    </g>
    <g id="ytick_39">
     <g id="line2d_54">
      <g>
       <use xlink:href="#m0fd6155a30" x="90" y="118.236706" style="stroke: #000000; stroke-width: 0.6"/>
      </g>
     </g>
    </g>
    <g id="ytick_40">
     <g id="line2d_55">
      <g>
       <use xlink:href="#m0fd6155a30" x="90" y="112.080349" style="stroke: #000000; stroke-width: 0.6"/>
      </g>
     </g>
    </g>
    <g id="ytick_41">
     <g id="line2d_56">
      <g>
       <use xlink:href="#m0fd6155a30" x="90" y="107.050239" style="stroke: #000000; stroke-width: 0.6"/>
      </g>
     </g>
    </g>
    <g id="ytick_42">
     <g id="line2d_57">
      <g>
       <use xlink:href="#m0fd6155a30" x="90" y="102.797341" style="stroke: #000000; stroke-width: 0.6"/>
      </g>
     </g>
    </g>
    <g id="ytick_43">
     <g id="line2d_58">
      <g>
       <use xlink:href="#m0fd6155a30" x="90" y="99.113314" style="stroke: #000000; stroke-width: 0.6"/>
      </g>
     </g>
    </g>
    <g id="ytick_44">
     <g id="line2d_59">
      <g>
       <use xlink:href="#m0fd6155a30" x="90" y="95.863771" style="stroke: #000000; stroke-width: 0.6"/>
      </g>
     </g>
    </g>
    <g id="ytick_45">
     <g id="line2d_60">
      <g>
       <use xlink:href="#m0fd6155a30" x="90" y="73.833563" style="stroke: #000000; stroke-width: 0.6"/>
      </g>
     </g>
    </g>
    <g id="ytick_46">
     <g id="line2d_61">
      <g>
       <use xlink:href="#m0fd6155a30" x="90" y="62.647096" style="stroke: #000000; stroke-width: 0.6"/>
      </g>
     </g>
    </g>
    <g id="ytick_47">
     <g id="line2d_62">
      <g>
       <use xlink:href="#m0fd6155a30" x="90" y="54.710171" style="stroke: #000000; stroke-width: 0.6"/>
      </g>
     </g>
    </g>
    <g id="text_12">
     <!-- $-E_{GS}$ (a.u.) -->
     <g transform="translate(50.616563 267.39) rotate(-90) scale(0.18 -0.18)">
      <defs>
       <path id="DejaVuSans-2212" d="M 678 2272 
L 4684 2272 
L 4684 1741 
L 678 1741 
L 678 2272 
z
" transform="scale(0.015625)"/>
       <path id="DejaVuSans-Oblique-45" d="M 1081 4666 
L 4031 4666 
L 3928 4134 
L 1606 4134 
L 1338 2753 
L 3566 2753 
L 3463 2222 
L 1234 2222 
L 909 531 
L 3284 531 
L 3181 0 
L 172 0 
L 1081 4666 
z
" transform="scale(0.015625)"/>
       <path id="DejaVuSans-Oblique-47" d="M 3494 697 
L 3738 1919 
L 2700 1919 
L 2797 2438 
L 4453 2438 
L 4050 384 
Q 3634 156 3143 32 
Q 2653 -91 2156 -91 
Q 1278 -91 783 396 
Q 288 884 288 1753 
Q 288 2475 589 3126 
Q 891 3778 1422 4213 
Q 1756 4484 2153 4617 
Q 2550 4750 3034 4750 
Q 3472 4750 3873 4639 
Q 4275 4528 4641 4306 
L 4513 3634 
Q 4231 3928 3853 4083 
Q 3475 4238 3047 4238 
Q 2550 4238 2172 4048 
Q 1794 3859 1497 3463 
Q 1244 3125 1098 2667 
Q 953 2209 953 1734 
Q 953 1081 1287 751 
Q 1622 422 2284 422 
Q 2616 422 2925 492 
Q 3234 563 3494 697 
z
" transform="scale(0.015625)"/>
       <path id="DejaVuSans-Oblique-53" d="M 3859 4513 
L 3738 3897 
Q 3422 4066 3111 4152 
Q 2800 4238 2509 4238 
Q 1944 4238 1609 3991 
Q 1275 3744 1275 3334 
Q 1275 3109 1398 2989 
Q 1522 2869 2034 2731 
L 2413 2638 
Q 3053 2472 3303 2217 
Q 3553 1963 3553 1503 
Q 3553 797 2998 353 
Q 2444 -91 1538 -91 
Q 1166 -91 791 -17 
Q 416 56 38 206 
L 166 856 
Q 513 641 861 531 
Q 1209 422 1556 422 
Q 2147 422 2503 684 
Q 2859 947 2859 1369 
Q 2859 1650 2717 1795 
Q 2575 1941 2106 2059 
L 1728 2156 
Q 1081 2325 845 2545 
Q 609 2766 609 3163 
Q 609 3859 1145 4304 
Q 1681 4750 2541 4750 
Q 2875 4750 3203 4690 
Q 3531 4631 3859 4513 
z
" transform="scale(0.015625)"/>
       <path id="DejaVuSans-20" transform="scale(0.015625)"/>
       <path id="DejaVuSans-28" d="M 1984 4856 
Q 1566 4138 1362 3434 
Q 1159 2731 1159 2009 
Q 1159 1288 1364 580 
Q 1569 -128 1984 -844 
L 1484 -844 
Q 1016 -109 783 600 
Q 550 1309 550 2009 
Q 550 2706 781 3412 
Q 1013 4119 1484 4856 
L 1984 4856 
z
" transform="scale(0.015625)"/>
       <path id="DejaVuSans-61" d="M 2194 1759 
Q 1497 1759 1228 1600 
Q 959 1441 959 1056 
Q 959 750 1161 570 
Q 1363 391 1709 391 
Q 2188 391 2477 730 
Q 2766 1069 2766 1631 
L 2766 1759 
L 2194 1759 
z
M 3341 1997 
L 3341 0 
L 2766 0 
L 2766 531 
Q 2569 213 2275 61 
Q 1981 -91 1556 -91 
Q 1019 -91 701 211 
Q 384 513 384 1019 
Q 384 1609 779 1909 
Q 1175 2209 1959 2209 
L 2766 2209 
L 2766 2266 
Q 2766 2663 2505 2880 
Q 2244 3097 1772 3097 
Q 1472 3097 1187 3025 
Q 903 2953 641 2809 
L 641 3341 
Q 956 3463 1253 3523 
Q 1550 3584 1831 3584 
Q 2591 3584 2966 3190 
Q 3341 2797 3341 1997 
z
" transform="scale(0.015625)"/>
       <path id="DejaVuSans-2e" d="M 684 794 
L 1344 794 
L 1344 0 
L 684 0 
L 684 794 
z
" transform="scale(0.015625)"/>
       <path id="DejaVuSans-75" d="M 544 1381 
L 544 3500 
L 1119 3500 
L 1119 1403 
Q 1119 906 1312 657 
Q 1506 409 1894 409 
Q 2359 409 2629 706 
Q 2900 1003 2900 1516 
L 2900 3500 
L 3475 3500 
L 3475 0 
L 2900 0 
L 2900 538 
Q 2691 219 2414 64 
Q 2138 -91 1772 -91 
Q 1169 -91 856 284 
Q 544 659 544 1381 
z
M 1991 3584 
L 1991 3584 
z
" transform="scale(0.015625)"/>
       <path id="DejaVuSans-29" d="M 513 4856 
L 1013 4856 
Q 1481 4119 1714 3412 
Q 1947 2706 1947 2009 
Q 1947 1309 1714 600 
Q 1481 -109 1013 -844 
L 513 -844 
Q 928 -128 1133 580 
Q 1338 1288 1338 2009 
Q 1338 2731 1133 3434 
Q 928 4138 513 4856 
z
" transform="scale(0.015625)"/>
      </defs>
      <use xlink:href="#DejaVuSans-2212" transform="translate(0 0.125)"/>
      <use xlink:href="#DejaVuSans-Oblique-45" transform="translate(83.789062 0.125)"/>
      <use xlink:href="#DejaVuSans-Oblique-47" transform="translate(146.972656 -16.28125) scale(0.7)"/>
      <use xlink:href="#DejaVuSans-Oblique-53" transform="translate(201.21582 -16.28125) scale(0.7)"/>
      <use xlink:href="#DejaVuSans-20" transform="translate(248.383789 0.125)"/>
      <use xlink:href="#DejaVuSans-28" transform="translate(280.170898 0.125)"/>
      <use xlink:href="#DejaVuSans-61" transform="translate(319.18457 0.125)"/>
      <use xlink:href="#DejaVuSans-2e" transform="translate(380.463867 0.125)"/>
      <use xlink:href="#DejaVuSans-75" transform="translate(412.250977 0.125)"/>
      <use xlink:href="#DejaVuSans-2e" transform="translate(475.629883 0.125)"/>
      <use xlink:href="#DejaVuSans-29" transform="translate(507.416992 0.125)"/>
     </g>
    </g>
   </g>
   <g id="line2d_63">
    <defs>
     <path id="m7acf17ecee" d="M 0 2.5 
C 0.663008 2.5 1.29895 2.236584 1.767767 1.767767 
C 2.236584 1.29895 2.5 0.663008 2.5 0 
C 2.5 -0.663008 2.236584 -1.29895 1.767767 -1.767767 
C 1.29895 -2.236584 0.663008 -2.5 0 -2.5 
C -0.663008 -2.5 -1.29895 -2.236584 -1.767767 -1.767767 
C -2.236584 -1.29895 -2.5 -0.663008 -2.5 0 
C -2.5 0.663008 -2.236584 1.29895 -1.767767 1.767767 
C -1.29895 2.236584 -0.663008 2.5 0 2.5 
z
" style="stroke: #ffa500"/>
    </defs>
    <g clip-path="url(#p920d1cc2dd)">
     <use xlink:href="#m7acf17ecee" x="115.363636" y="369.36" style="fill: #ffa500; stroke: #ffa500"/>
     <use xlink:href="#m7acf17ecee" x="120.938062" y="318.315567" style="fill: #ffa500; stroke: #ffa500"/>
     <use xlink:href="#m7acf17ecee" x="126.512488" y="292.086494" style="fill: #ffa500; stroke: #ffa500"/>
     <use xlink:href="#m7acf17ecee" x="132.086913" y="273.386042" style="fill: #ffa500; stroke: #ffa500"/>
     <use xlink:href="#m7acf17ecee" x="137.661339" y="258.990198" style="fill: #ffa500; stroke: #ffa500"/>
     <use xlink:href="#m7acf17ecee" x="143.235764" y="247.125027" style="fill: #ffa500; stroke: #ffa500"/>
     <use xlink:href="#m7acf17ecee" x="148.81019" y="236.997347" style="fill: #ffa500; stroke: #ffa500"/>
     <use xlink:href="#m7acf17ecee" x="154.384615" y="228.141469" style="fill: #ffa500; stroke: #ffa500"/>
     <use xlink:href="#m7acf17ecee" x="159.959041" y="220.259553" style="fill: #ffa500; stroke: #ffa500"/>
     <use xlink:href="#m7acf17ecee" x="165.533467" y="213.149071" style="fill: #ffa500; stroke: #ffa500"/>
     <use xlink:href="#m7acf17ecee" x="171.107892" y="206.79579" style="fill: #ffa500; stroke: #ffa500"/>
     <use xlink:href="#m7acf17ecee" x="176.682318" y="201.005607" style="fill: #ffa500; stroke: #ffa500"/>
     <use xlink:href="#m7acf17ecee" x="182.256743" y="195.705706" style="fill: #ffa500; stroke: #ffa500"/>
     <use xlink:href="#m7acf17ecee" x="187.831169" y="190.807415" style="fill: #ffa500; stroke: #ffa500"/>
     <use xlink:href="#m7acf17ecee" x="193.405594" y="186.251378" style="fill: #ffa500; stroke: #ffa500"/>
     <use xlink:href="#m7acf17ecee" x="198.98002" y="181.990679" style="fill: #ffa500; stroke: #ffa500"/>
     <use xlink:href="#m7acf17ecee" x="204.554446" y="177.987553" style="fill: #ffa500; stroke: #ffa500"/>
     <use xlink:href="#m7acf17ecee" x="210.128871" y="174.211123" style="fill: #ffa500; stroke: #ffa500"/>
     <use xlink:href="#m7acf17ecee" x="215.703297" y="170.659639" style="fill: #ffa500; stroke: #ffa500"/>
     <use xlink:href="#m7acf17ecee" x="221.277722" y="167.296909" style="fill: #ffa500; stroke: #ffa500"/>
     <use xlink:href="#m7acf17ecee" x="226.852148" y="164.102978" style="fill: #ffa500; stroke: #ffa500"/>
     <use xlink:href="#m7acf17ecee" x="232.426573" y="161.055781" style="fill: #ffa500; stroke: #ffa500"/>
     <use xlink:href="#m7acf17ecee" x="238.000999" y="158.141354" style="fill: #ffa500; stroke: #ffa500"/>
     <use xlink:href="#m7acf17ecee" x="243.575425" y="155.347617" style="fill: #ffa500; stroke: #ffa500"/>
     <use xlink:href="#m7acf17ecee" x="249.14985" y="152.664794" style="fill: #ffa500; stroke: #ffa500"/>
     <use xlink:href="#m7acf17ecee" x="254.724276" y="150.083376" style="fill: #ffa500; stroke: #ffa500"/>
     <use xlink:href="#m7acf17ecee" x="260.298701" y="147.595634" style="fill: #ffa500; stroke: #ffa500"/>
     <use xlink:href="#m7acf17ecee" x="265.873127" y="145.194579" style="fill: #ffa500; stroke: #ffa500"/>
     <use xlink:href="#m7acf17ecee" x="271.447552" y="142.87248" style="fill: #ffa500; stroke: #ffa500"/>
     <use xlink:href="#m7acf17ecee" x="277.021978" y="140.628332" style="fill: #ffa500; stroke: #ffa500"/>
     <use xlink:href="#m7acf17ecee" x="282.596404" y="138.459827" style="fill: #ffa500; stroke: #ffa500"/>
     <use xlink:href="#m7acf17ecee" x="288.170829" y="136.360293" style="fill: #ffa500; stroke: #ffa500"/>
     <use xlink:href="#m7acf17ecee" x="293.745255" y="134.325546" style="fill: #ffa500; stroke: #ffa500"/>
     <use xlink:href="#m7acf17ecee" x="299.31968" y="132.351707" style="fill: #ffa500; stroke: #ffa500"/>
     <use xlink:href="#m7acf17ecee" x="304.894106" y="130.435198" style="fill: #ffa500; stroke: #ffa500"/>
     <use xlink:href="#m7acf17ecee" x="310.468531" y="128.572724" style="fill: #ffa500; stroke: #ffa500"/>
     <use xlink:href="#m7acf17ecee" x="316.042957" y="126.765401" style="fill: #ffa500; stroke: #ffa500"/>
     <use xlink:href="#m7acf17ecee" x="321.617383" y="125.008097" style="fill: #ffa500; stroke: #ffa500"/>
     <use xlink:href="#m7acf17ecee" x="327.191808" y="123.298392" style="fill: #ffa500; stroke: #ffa500"/>
     <use xlink:href="#m7acf17ecee" x="332.766234" y="121.632653" style="fill: #ffa500; stroke: #ffa500"/>
     <use xlink:href="#m7acf17ecee" x="338.340659" y="120.008475" style="fill: #ffa500; stroke: #ffa500"/>
     <use xlink:href="#m7acf17ecee" x="343.915085" y="118.423473" style="fill: #ffa500; stroke: #ffa500"/>
     <use xlink:href="#m7acf17ecee" x="349.48951" y="116.876249" style="fill: #ffa500; stroke: #ffa500"/>
     <use xlink:href="#m7acf17ecee" x="355.063936" y="115.363826" style="fill: #ffa500; stroke: #ffa500"/>
     <use xlink:href="#m7acf17ecee" x="360.638362" y="113.885642" style="fill: #ffa500; stroke: #ffa500"/>
     <use xlink:href="#m7acf17ecee" x="366.212787" y="112.439301" style="fill: #ffa500; stroke: #ffa500"/>
     <use xlink:href="#m7acf17ecee" x="371.787213" y="111.024655" style="fill: #ffa500; stroke: #ffa500"/>
     <use xlink:href="#m7acf17ecee" x="377.361638" y="109.640118" style="fill: #ffa500; stroke: #ffa500"/>
     <use xlink:href="#m7acf17ecee" x="382.936064" y="108.285385" style="fill: #ffa500; stroke: #ffa500"/>
     <use xlink:href="#m7acf17ecee" x="388.51049" y="106.958641" style="fill: #ffa500; stroke: #ffa500"/>
     <use xlink:href="#m7acf17ecee" x="394.084915" y="105.658753" style="fill: #ffa500; stroke: #ffa500"/>
     <use xlink:href="#m7acf17ecee" x="399.659341" y="104.384648" style="fill: #ffa500; stroke: #ffa500"/>
     <use xlink:href="#m7acf17ecee" x="405.233766" y="103.135309" style="fill: #ffa500; stroke: #ffa500"/>
     <use xlink:href="#m7acf17ecee" x="410.808192" y="101.909778" style="fill: #ffa500; stroke: #ffa500"/>
     <use xlink:href="#m7acf17ecee" x="416.382617" y="100.708526" style="fill: #ffa500; stroke: #ffa500"/>
     <use xlink:href="#m7acf17ecee" x="421.957043" y="99.529897" style="fill: #ffa500; stroke: #ffa500"/>
     <use xlink:href="#m7acf17ecee" x="427.531469" y="98.372994" style="fill: #ffa500; stroke: #ffa500"/>
     <use xlink:href="#m7acf17ecee" x="433.105894" y="97.235836" style="fill: #ffa500; stroke: #ffa500"/>
     <use xlink:href="#m7acf17ecee" x="438.68032" y="96.11733" style="fill: #ffa500; stroke: #ffa500"/>
     <use xlink:href="#m7acf17ecee" x="444.254745" y="95.017596" style="fill: #ffa500; stroke: #ffa500"/>
     <use xlink:href="#m7acf17ecee" x="449.829171" y="93.93564" style="fill: #ffa500; stroke: #ffa500"/>
     <use xlink:href="#m7acf17ecee" x="455.403596" y="92.870849" style="fill: #ffa500; stroke: #ffa500"/>
     <use xlink:href="#m7acf17ecee" x="460.978022" y="91.822648" style="fill: #ffa500; stroke: #ffa500"/>
     <use xlink:href="#m7acf17ecee" x="466.552448" y="90.79115" style="fill: #ffa500; stroke: #ffa500"/>
     <use xlink:href="#m7acf17ecee" x="472.126873" y="89.77385" style="fill: #ffa500; stroke: #ffa500"/>
     <use xlink:href="#m7acf17ecee" x="477.701299" y="88.772242" style="fill: #ffa500; stroke: #ffa500"/>
     <use xlink:href="#m7acf17ecee" x="483.275724" y="87.785193" style="fill: #ffa500; stroke: #ffa500"/>
     <use xlink:href="#m7acf17ecee" x="488.85015" y="86.812259" style="fill: #ffa500; stroke: #ffa500"/>
     <use xlink:href="#m7acf17ecee" x="494.424575" y="85.853012" style="fill: #ffa500; stroke: #ffa500"/>
     <use xlink:href="#m7acf17ecee" x="499.999001" y="84.907046" style="fill: #ffa500; stroke: #ffa500"/>
     <use xlink:href="#m7acf17ecee" x="505.573427" y="83.974667" style="fill: #ffa500; stroke: #ffa500"/>
     <use xlink:href="#m7acf17ecee" x="511.147852" y="83.055266" style="fill: #ffa500; stroke: #ffa500"/>
     <use xlink:href="#m7acf17ecee" x="516.722278" y="82.148493" style="fill: #ffa500; stroke: #ffa500"/>
     <use xlink:href="#m7acf17ecee" x="522.296703" y="81.254011" style="fill: #ffa500; stroke: #ffa500"/>
     <use xlink:href="#m7acf17ecee" x="527.871129" y="80.371492" style="fill: #ffa500; stroke: #ffa500"/>
     <use xlink:href="#m7acf17ecee" x="533.445554" y="79.500619" style="fill: #ffa500; stroke: #ffa500"/>
     <use xlink:href="#m7acf17ecee" x="539.01998" y="78.641083" style="fill: #ffa500; stroke: #ffa500"/>
     <use xlink:href="#m7acf17ecee" x="544.594406" y="77.792362" style="fill: #ffa500; stroke: #ffa500"/>
     <use xlink:href="#m7acf17ecee" x="550.168831" y="76.954578" style="fill: #ffa500; stroke: #ffa500"/>
     <use xlink:href="#m7acf17ecee" x="555.743257" y="76.127589" style="fill: #ffa500; stroke: #ffa500"/>
     <use xlink:href="#m7acf17ecee" x="561.317682" y="75.311277" style="fill: #ffa500; stroke: #ffa500"/>
     <use xlink:href="#m7acf17ecee" x="566.892108" y="74.505203" style="fill: #ffa500; stroke: #ffa500"/>
     <use xlink:href="#m7acf17ecee" x="572.466533" y="73.709121" style="fill: #ffa500; stroke: #ffa500"/>
     <use xlink:href="#m7acf17ecee" x="578.040959" y="72.922791" style="fill: #ffa500; stroke: #ffa500"/>
     <use xlink:href="#m7acf17ecee" x="583.615385" y="72.145979" style="fill: #ffa500; stroke: #ffa500"/>
     <use xlink:href="#m7acf17ecee" x="589.18981" y="71.378459" style="fill: #ffa500; stroke: #ffa500"/>
     <use xlink:href="#m7acf17ecee" x="594.764236" y="70.620439" style="fill: #ffa500; stroke: #ffa500"/>
     <use xlink:href="#m7acf17ecee" x="600.338661" y="69.87146" style="fill: #ffa500; stroke: #ffa500"/>
     <use xlink:href="#m7acf17ecee" x="605.913087" y="69.131295" style="fill: #ffa500; stroke: #ffa500"/>
     <use xlink:href="#m7acf17ecee" x="611.487512" y="68.399674" style="fill: #ffa500; stroke: #ffa500"/>
     <use xlink:href="#m7acf17ecee" x="617.061938" y="67.675781" style="fill: #ffa500; stroke: #ffa500"/>
     <use xlink:href="#m7acf17ecee" x="622.636364" y="66.96" style="fill: #ffa500; stroke: #ffa500"/>
    </g>
   </g>
   <g id="line2d_64">
    <defs>
     <path id="mab2bc0087f" d="M 0 2.5 
C 0.663008 2.5 1.29895 2.236584 1.767767 1.767767 
C 2.236584 1.29895 2.5 0.663008 2.5 0 
C 2.5 -0.663008 2.236584 -1.29895 1.767767 -1.767767 
C 1.29895 -2.236584 0.663008 -2.5 0 -2.5 
C -0.663008 -2.5 -1.29895 -2.236584 -1.767767 -1.767767 
C -2.236584 -1.29895 -2.5 -0.663008 -2.5 0 
C -2.5 0.663008 -2.236584 1.29895 -1.767767 1.767767 
C -1.29895 2.236584 -0.663008 2.5 0 2.5 
z
" style="stroke: #00008b"/>
    </defs>
    <g clip-path="url(#p920d1cc2dd)">
     <use xlink:href="#mab2bc0087f" x="115.363636" y="368.78845" style="fill-opacity: 0; stroke: #00008b"/>
     <use xlink:href="#mab2bc0087f" x="120.938062" y="318.814803" style="fill-opacity: 0; stroke: #00008b"/>
     <use xlink:href="#mab2bc0087f" x="126.512488" y="292.192746" style="fill-opacity: 0; stroke: #00008b"/>
     <use xlink:href="#mab2bc0087f" x="132.086913" y="272.469909" style="fill-opacity: 0; stroke: #00008b"/>
     <use xlink:href="#mab2bc0087f" x="137.661339" y="257.444523" style="fill-opacity: 0; stroke: #00008b"/>
     <use xlink:href="#mab2bc0087f" x="143.235764" y="245.191322" style="fill-opacity: 0; stroke: #00008b"/>
     <use xlink:href="#mab2bc0087f" x="148.81019" y="234.991101" style="fill-opacity: 0; stroke: #00008b"/>
     <use xlink:href="#mab2bc0087f" x="154.384615" y="226.219891" style="fill-opacity: 0; stroke: #00008b"/>
     <use xlink:href="#mab2bc0087f" x="159.959041" y="218.615116" style="fill-opacity: 0; stroke: #00008b"/>
     <use xlink:href="#mab2bc0087f" x="165.533467" y="211.850598" style="fill-opacity: 0; stroke: #00008b"/>
     <use xlink:href="#mab2bc0087f" x="171.107892" y="205.750498" style="fill-opacity: 0; stroke: #00008b"/>
     <use xlink:href="#mab2bc0087f" x="176.682318" y="200.186012" style="fill-opacity: 0; stroke: #00008b"/>
     <use xlink:href="#mab2bc0087f" x="182.256743" y="195.095762" style="fill-opacity: 0; stroke: #00008b"/>
     <use xlink:href="#mab2bc0087f" x="187.831169" y="190.33479" style="fill-opacity: 0; stroke: #00008b"/>
     <use xlink:href="#mab2bc0087f" x="193.405594" y="185.892747" style="fill-opacity: 0; stroke: #00008b"/>
     <use xlink:href="#mab2bc0087f" x="198.98002" y="181.753381" style="fill-opacity: 0; stroke: #00008b"/>
     <use xlink:href="#mab2bc0087f" x="204.554446" y="177.849203" style="fill-opacity: 0; stroke: #00008b"/>
     <use xlink:href="#mab2bc0087f" x="210.128871" y="174.18932" style="fill-opacity: 0; stroke: #00008b"/>
     <use xlink:href="#mab2bc0087f" x="215.703297" y="170.73046" style="fill-opacity: 0; stroke: #00008b"/>
     <use xlink:href="#mab2bc0087f" x="221.277722" y="167.422508" style="fill-opacity: 0; stroke: #00008b"/>
     <use xlink:href="#mab2bc0087f" x="226.852148" y="164.312882" style="fill-opacity: 0; stroke: #00008b"/>
     <use xlink:href="#mab2bc0087f" x="232.426573" y="161.34798" style="fill-opacity: 0; stroke: #00008b"/>
     <use xlink:href="#mab2bc0087f" x="238.000999" y="158.503615" style="fill-opacity: 0; stroke: #00008b"/>
     <use xlink:href="#mab2bc0087f" x="243.575425" y="155.763026" style="fill-opacity: 0; stroke: #00008b"/>
     <use xlink:href="#mab2bc0087f" x="249.14985" y="153.168402" style="fill-opacity: 0; stroke: #00008b"/>
     <use xlink:href="#mab2bc0087f" x="254.724276" y="150.662643" style="fill-opacity: 0; stroke: #00008b"/>
     <use xlink:href="#mab2bc0087f" x="260.298701" y="148.245295" style="fill-opacity: 0; stroke: #00008b"/>
     <use xlink:href="#mab2bc0087f" x="265.873127" y="145.944824" style="fill-opacity: 0; stroke: #00008b"/>
     <use xlink:href="#mab2bc0087f" x="271.447552" y="143.701058" style="fill-opacity: 0; stroke: #00008b"/>
     <use xlink:href="#mab2bc0087f" x="277.021978" y="141.496399" style="fill-opacity: 0; stroke: #00008b"/>
     <use xlink:href="#mab2bc0087f" x="282.596404" y="139.404604" style="fill-opacity: 0; stroke: #00008b"/>
     <use xlink:href="#mab2bc0087f" x="288.170829" y="137.387854" style="fill-opacity: 0; stroke: #00008b"/>
     <use xlink:href="#mab2bc0087f" x="293.745255" y="135.422685" style="fill-opacity: 0; stroke: #00008b"/>
     <use xlink:href="#mab2bc0087f" x="299.31968" y="133.522186" style="fill-opacity: 0; stroke: #00008b"/>
     <use xlink:href="#mab2bc0087f" x="304.894106" y="131.685875" style="fill-opacity: 0; stroke: #00008b"/>
     <use xlink:href="#mab2bc0087f" x="310.468531" y="129.880065" style="fill-opacity: 0; stroke: #00008b"/>
     <use xlink:href="#mab2bc0087f" x="316.042957" y="128.115171" style="fill-opacity: 0; stroke: #00008b"/>
     <use xlink:href="#mab2bc0087f" x="321.617383" y="126.426956" style="fill-opacity: 0; stroke: #00008b"/>
     <use xlink:href="#mab2bc0087f" x="327.191808" y="124.798521" style="fill-opacity: 0; stroke: #00008b"/>
     <use xlink:href="#mab2bc0087f" x="332.766234" y="123.141603" style="fill-opacity: 0; stroke: #00008b"/>
    </g>
   </g>
   <g id="patch_3">
    <path d="M 90 384.48 
L 90 51.84 
" style="fill: none; stroke: #000000; stroke-width: 0.8; stroke-linejoin: miter; stroke-linecap: square"/>
   </g>
   <g id="patch_4">
    <path d="M 648 384.48 
L 648 51.84 
" style="fill: none; stroke: #000000; stroke-width: 0.8; stroke-linejoin: miter; stroke-linecap: square"/>
   </g>
   <g id="patch_5">
    <path d="M 90 384.48 
L 648 384.48 
" style="fill: none; stroke: #000000; stroke-width: 0.8; stroke-linejoin: miter; stroke-linecap: square"/>
   </g>
   <g id="patch_6">
    <path d="M 90 51.84 
L 648 51.84 
" style="fill: none; stroke: #000000; stroke-width: 0.8; stroke-linejoin: miter; stroke-linecap: square"/>
   </g>
   <g id="legend_1">
    <g id="patch_7">
     <path d="M 97 89.19625 
L 174.520312 89.19625 
Q 176.520312 89.19625 176.520312 87.19625 
L 176.520312 58.84 
Q 176.520312 56.84 174.520312 56.84 
L 97 56.84 
Q 95 56.84 95 58.84 
L 95 87.19625 
Q 95 89.19625 97 89.19625 
z
" style="fill: #ffffff; opacity: 0.8; stroke: #cccccc; stroke-linejoin: miter"/>
    </g>
    <g id="line2d_65">
     <g>
      <use xlink:href="#m7acf17ecee" x="109" y="64.938437" style="fill: #ffa500; stroke: #ffa500"/>
     </g>
    </g>
    <g id="text_13">
     <!-- NIST-LDA -->
     <g transform="translate(127 68.438437) scale(0.1 -0.1)">
      <defs>
       <path id="DejaVuSans-4e" d="M 628 4666 
L 1478 4666 
L 3547 763 
L 3547 4666 
L 4159 4666 
L 4159 0 
L 3309 0 
L 1241 3903 
L 1241 0 
L 628 0 
L 628 4666 
z
" transform="scale(0.015625)"/>
       <path id="DejaVuSans-49" d="M 628 4666 
L 1259 4666 
L 1259 0 
L 628 0 
L 628 4666 
z
" transform="scale(0.015625)"/>
       <path id="DejaVuSans-53" d="M 3425 4513 
L 3425 3897 
Q 3066 4069 2747 4153 
Q 2428 4238 2131 4238 
Q 1616 4238 1336 4038 
Q 1056 3838 1056 3469 
Q 1056 3159 1242 3001 
Q 1428 2844 1947 2747 
L 2328 2669 
Q 3034 2534 3370 2195 
Q 3706 1856 3706 1288 
Q 3706 609 3251 259 
Q 2797 -91 1919 -91 
Q 1588 -91 1214 -16 
Q 841 59 441 206 
L 441 856 
Q 825 641 1194 531 
Q 1563 422 1919 422 
Q 2459 422 2753 634 
Q 3047 847 3047 1241 
Q 3047 1584 2836 1778 
Q 2625 1972 2144 2069 
L 1759 2144 
Q 1053 2284 737 2584 
Q 422 2884 422 3419 
Q 422 4038 858 4394 
Q 1294 4750 2059 4750 
Q 2388 4750 2728 4690 
Q 3069 4631 3425 4513 
z
" transform="scale(0.015625)"/>
       <path id="DejaVuSans-54" d="M -19 4666 
L 3928 4666 
L 3928 4134 
L 2272 4134 
L 2272 0 
L 1638 0 
L 1638 4134 
L -19 4134 
L -19 4666 
z
" transform="scale(0.015625)"/>
       <path id="DejaVuSans-2d" d="M 313 2009 
L 1997 2009 
L 1997 1497 
L 313 1497 
L 313 2009 
z
" transform="scale(0.015625)"/>
       <path id="DejaVuSans-4c" d="M 628 4666 
L 1259 4666 
L 1259 531 
L 3531 531 
L 3531 0 
L 628 0 
L 628 4666 
z
" transform="scale(0.015625)"/>
       <path id="DejaVuSans-44" d="M 1259 4147 
L 1259 519 
L 2022 519 
Q 2988 519 3436 956 
Q 3884 1394 3884 2338 
Q 3884 3275 3436 3711 
Q 2988 4147 2022 4147 
L 1259 4147 
z
M 628 4666 
L 1925 4666 
Q 3281 4666 3915 4102 
Q 4550 3538 4550 2338 
Q 4550 1131 3912 565 
Q 3275 0 1925 0 
L 628 0 
L 628 4666 
z
" transform="scale(0.015625)"/>
       <path id="DejaVuSans-41" d="M 2188 4044 
L 1331 1722 
L 3047 1722 
L 2188 4044 
z
M 1831 4666 
L 2547 4666 
L 4325 0 
L 3669 0 
L 3244 1197 
L 1141 1197 
L 716 0 
L 50 0 
L 1831 4666 
z
" transform="scale(0.015625)"/>
      </defs>
      <use xlink:href="#DejaVuSans-4e"/>
      <use xlink:href="#DejaVuSans-49" x="74.804688"/>
      <use xlink:href="#DejaVuSans-53" x="104.296875"/>
      <use xlink:href="#DejaVuSans-54" x="167.773438"/>
      <use xlink:href="#DejaVuSans-2d" x="219.732422"/>
      <use xlink:href="#DejaVuSans-4c" x="255.816406"/>
      <use xlink:href="#DejaVuSans-44" x="311.529297"/>
      <use xlink:href="#DejaVuSans-41" x="386.78125"/>
     </g>
    </g>
    <g id="line2d_66">
     <g>
      <use xlink:href="#mab2bc0087f" x="109" y="79.616562" style="fill-opacity: 0; stroke: #00008b"/>
     </g>
    </g>
    <g id="text_14">
     <!-- BFGS -->
     <g transform="translate(127 83.116562) scale(0.1 -0.1)">
      <defs>
       <path id="DejaVuSans-42" d="M 1259 2228 
L 1259 519 
L 2272 519 
Q 2781 519 3026 730 
Q 3272 941 3272 1375 
Q 3272 1813 3026 2020 
Q 2781 2228 2272 2228 
L 1259 2228 
z
M 1259 4147 
L 1259 2741 
L 2194 2741 
Q 2656 2741 2882 2914 
Q 3109 3088 3109 3444 
Q 3109 3797 2882 3972 
Q 2656 4147 2194 4147 
L 1259 4147 
z
M 628 4666 
L 2241 4666 
Q 2963 4666 3353 4366 
Q 3744 4066 3744 3513 
Q 3744 3084 3544 2831 
Q 3344 2578 2956 2516 
Q 3422 2416 3680 2098 
Q 3938 1781 3938 1306 
Q 3938 681 3513 340 
Q 3088 0 2303 0 
L 628 0 
L 628 4666 
z
" transform="scale(0.015625)"/>
       <path id="DejaVuSans-46" d="M 628 4666 
L 3309 4666 
L 3309 4134 
L 1259 4134 
L 1259 2759 
L 3109 2759 
L 3109 2228 
L 1259 2228 
L 1259 0 
L 628 0 
L 628 4666 
z
" transform="scale(0.015625)"/>
       <path id="DejaVuSans-47" d="M 3809 666 
L 3809 1919 
L 2778 1919 
L 2778 2438 
L 4434 2438 
L 4434 434 
Q 4069 175 3628 42 
Q 3188 -91 2688 -91 
Q 1594 -91 976 548 
Q 359 1188 359 2328 
Q 359 3472 976 4111 
Q 1594 4750 2688 4750 
Q 3144 4750 3555 4637 
Q 3966 4525 4313 4306 
L 4313 3634 
Q 3963 3931 3569 4081 
Q 3175 4231 2741 4231 
Q 1884 4231 1454 3753 
Q 1025 3275 1025 2328 
Q 1025 1384 1454 906 
Q 1884 428 2741 428 
Q 3075 428 3337 486 
Q 3600 544 3809 666 
z
" transform="scale(0.015625)"/>
      </defs>
      <use xlink:href="#DejaVuSans-42"/>
      <use xlink:href="#DejaVuSans-46" x="68.603516"/>
      <use xlink:href="#DejaVuSans-47" x="126.123047"/>
      <use xlink:href="#DejaVuSans-53" x="203.613281"/>
     </g>
    </g>
   </g>
  </g>
 </g>
 <defs>
  <clipPath id="p920d1cc2dd">
   <rect x="90" y="51.84" width="558" height="332.64"/>
  </clipPath>
 </defs>
</svg>
