<?xml version="1.0" encoding="utf-8" standalone="no"?>
<!DOCTYPE svg PUBLIC "-//W3C//DTD SVG 1.1//EN"
  "http://www.w3.org/Graphics/SVG/1.1/DTD/svg11.dtd">
<svg xmlns:xlink="http://www.w3.org/1999/xlink" width="864pt" height="432pt" viewBox="0 0 864 432" xmlns="http://www.w3.org/2000/svg" version="1.1">
 <metadata>
  <rdf:RDF xmlns:dc="http://purl.org/dc/elements/1.1/" xmlns:cc="http://creativecommons.org/ns#" xmlns:rdf="http://www.w3.org/1999/02/22-rdf-syntax-ns#">
   <cc:Work>
    <dc:type rdf:resource="http://purl.org/dc/dcmitype/StillImage"/>
    <dc:date>2025-07-11T15:31:07.042704</dc:date>
    <dc:format>image/svg+xml</dc:format>
    <dc:creator>
     <cc:Agent>
      <dc:title>Matplotlib v3.7.2, https://matplotlib.org/</dc:title>
     </cc:Agent>
    </dc:creator>
   </cc:Work>
  </rdf:RDF>
 </metadata>
 <defs>
  <style type="text/css">*{stroke-linejoin: round; stroke-linecap: butt}</style>
 </defs>
 <g id="figure_1">
  <g id="patch_1">
   <path d="M 0 432 
L 864 432 
L 864 0 
L 0 0 
z
" style="fill: #ffffff"/>
  </g>
  <g id="axes_1">
   <g id="patch_2">
    <path d="M 103.44 345.2325 
L 403.133584 345.2325 
L 403.133584 50.52 
L 103.44 50.52 
z
" style="fill: #ffffff"/>
   </g>
   <g id="matplotlib.axis_1">
    <g id="xtick_1">
     <g id="line2d_1">
      <path d="M 117.062436 345.2325 
L 117.062436 50.52 
" clip-path="url(#p4a6c52960e)" style="fill: none; stroke-dasharray: 3.7,1.6; stroke-dashoffset: 0; stroke: #b0b0b0; stroke-opacity: 0.5"/>
     </g>
     <g id="line2d_2">
      <defs>
       <path id="m98f4b309ae" d="M 0 0 
L 0 -10 
" style="stroke: #000000; stroke-width: 2"/>
      </defs>
      <g>
       <use xlink:href="#m98f4b309ae" x="117.062436" y="345.2325" style="stroke: #000000; stroke-width: 2"/>
      </g>
     </g>
     <g id="line2d_3">
      <defs>
       <path id="mf19a2ee352" d="M 0 0 
L 0 10 
" style="stroke: #000000; stroke-width: 2"/>
      </defs>
      <g>
       <use xlink:href="#mf19a2ee352" x="117.062436" y="50.52" style="stroke: #000000; stroke-width: 2"/>
      </g>
     </g>
     <g id="text_1">
      <!-- 0 -->
      <g transform="translate(108.791186 368.488437) scale(0.26 -0.26)">
       <defs>
        <path id="DejaVuSerif-30" d="M 2034 219 
Q 2513 219 2750 744 
Q 2988 1269 2988 2328 
Q 2988 3391 2750 3916 
Q 2513 4441 2034 4441 
Q 1556 4441 1318 3916 
Q 1081 3391 1081 2328 
Q 1081 1269 1318 744 
Q 1556 219 2034 219 
z
M 2034 -91 
Q 1275 -91 848 546 
Q 422 1184 422 2328 
Q 422 3475 848 4112 
Q 1275 4750 2034 4750 
Q 2797 4750 3222 4112 
Q 3647 3475 3647 2328 
Q 3647 1184 3222 546 
Q 2797 -91 2034 -91 
z
" transform="scale(0.015625)"/>
       </defs>
       <use xlink:href="#DejaVuSerif-30"/>
      </g>
     </g>
    </g>
    <g id="xtick_2">
     <g id="line2d_4">
      <path d="M 226.041921 345.2325 
L 226.041921 50.52 
" clip-path="url(#p4a6c52960e)" style="fill: none; stroke-dasharray: 3.7,1.6; stroke-dashoffset: 0; stroke: #b0b0b0; stroke-opacity: 0.5"/>
     </g>
     <g id="line2d_5">
      <g>
       <use xlink:href="#m98f4b309ae" x="226.041921" y="345.2325" style="stroke: #000000; stroke-width: 2"/>
      </g>
     </g>
     <g id="line2d_6">
      <g>
       <use xlink:href="#mf19a2ee352" x="226.041921" y="50.52" style="stroke: #000000; stroke-width: 2"/>
      </g>
     </g>
     <g id="text_2">
      <!-- 10000 -->
      <g transform="translate(184.685671 368.488437) scale(0.26 -0.26)">
       <defs>
        <path id="DejaVuSerif-31" d="M 909 0 
L 909 331 
L 1722 331 
L 1722 4213 
L 781 3603 
L 781 4013 
L 1919 4750 
L 2350 4750 
L 2350 331 
L 3163 331 
L 3163 0 
L 909 0 
z
" transform="scale(0.015625)"/>
       </defs>
       <use xlink:href="#DejaVuSerif-31"/>
       <use xlink:href="#DejaVuSerif-30" x="63.623047"/>
       <use xlink:href="#DejaVuSerif-30" x="127.246094"/>
       <use xlink:href="#DejaVuSerif-30" x="190.869141"/>
       <use xlink:href="#DejaVuSerif-30" x="254.492188"/>
      </g>
     </g>
    </g>
    <g id="xtick_3">
     <g id="line2d_7">
      <path d="M 335.021406 345.2325 
L 335.021406 50.52 
" clip-path="url(#p4a6c52960e)" style="fill: none; stroke-dasharray: 3.7,1.6; stroke-dashoffset: 0; stroke: #b0b0b0; stroke-opacity: 0.5"/>
     </g>
     <g id="line2d_8">
      <g>
       <use xlink:href="#m98f4b309ae" x="335.021406" y="345.2325" style="stroke: #000000; stroke-width: 2"/>
      </g>
     </g>
     <g id="line2d_9">
      <g>
       <use xlink:href="#mf19a2ee352" x="335.021406" y="50.52" style="stroke: #000000; stroke-width: 2"/>
      </g>
     </g>
     <g id="text_3">
      <!-- 20000 -->
      <g transform="translate(293.665156 368.488437) scale(0.26 -0.26)">
       <defs>
        <path id="DejaVuSerif-32" d="M 819 3553 
L 469 3553 
L 469 4384 
Q 803 4563 1142 4656 
Q 1481 4750 1806 4750 
Q 2534 4750 2956 4397 
Q 3378 4044 3378 3438 
Q 3378 2753 2422 1800 
Q 2347 1728 2309 1691 
L 1131 513 
L 3078 513 
L 3078 1088 
L 3444 1088 
L 3444 0 
L 434 0 
L 434 341 
L 1850 1753 
Q 2319 2222 2519 2614 
Q 2719 3006 2719 3438 
Q 2719 3909 2473 4175 
Q 2228 4441 1797 4441 
Q 1350 4441 1106 4219 
Q 863 3997 819 3553 
z
" transform="scale(0.015625)"/>
       </defs>
       <use xlink:href="#DejaVuSerif-32"/>
       <use xlink:href="#DejaVuSerif-30" x="63.623047"/>
       <use xlink:href="#DejaVuSerif-30" x="127.246094"/>
       <use xlink:href="#DejaVuSerif-30" x="190.869141"/>
       <use xlink:href="#DejaVuSerif-30" x="254.492188"/>
      </g>
     </g>
    </g>
    <g id="text_4">
     <!-- $t$ (a.u.) -->
     <g transform="translate(209.866792 397.651563) scale(0.26 -0.26)">
      <defs>
       <path id="Cmmi10-74" d="M 397 519 
Q 397 613 416 697 
L 878 2534 
L 206 2534 
Q 141 2534 141 2619 
Q 166 2759 225 2759 
L 934 2759 
L 1191 3803 
Q 1216 3888 1291 3947 
Q 1366 4006 1459 4006 
Q 1541 4006 1595 3957 
Q 1650 3909 1650 3828 
Q 1650 3809 1648 3798 
Q 1647 3788 1644 3775 
L 1388 2759 
L 2047 2759 
Q 2113 2759 2113 2675 
Q 2109 2659 2100 2621 
Q 2091 2584 2075 2559 
Q 2059 2534 2028 2534 
L 1331 2534 
L 872 684 
Q 825 503 825 372 
Q 825 97 1013 97 
Q 1294 97 1511 361 
Q 1728 625 1844 941 
Q 1869 978 1894 978 
L 1972 978 
Q 1997 978 2012 961 
Q 2028 944 2028 922 
Q 2028 909 2022 903 
Q 1881 516 1612 222 
Q 1344 -72 997 -72 
Q 744 -72 570 93 
Q 397 259 397 519 
z
" transform="scale(0.015625)"/>
       <path id="DejaVuSerif-20" transform="scale(0.015625)"/>
       <path id="DejaVuSerif-28" d="M 2041 -997 
Q 1281 -656 893 83 
Q 506 822 506 1931 
Q 506 3044 893 3783 
Q 1281 4522 2041 4863 
L 2041 4556 
Q 1559 4225 1350 3623 
Q 1141 3022 1141 1931 
Q 1141 844 1350 242 
Q 1559 -359 2041 -691 
L 2041 -997 
z
" transform="scale(0.015625)"/>
       <path id="DejaVuSerif-61" d="M 2547 1044 
L 2547 1747 
L 1806 1747 
Q 1378 1747 1168 1562 
Q 959 1378 959 997 
Q 959 650 1171 447 
Q 1384 244 1747 244 
Q 2106 244 2326 466 
Q 2547 688 2547 1044 
z
M 3122 2075 
L 3122 331 
L 3634 331 
L 3634 0 
L 2547 0 
L 2547 359 
Q 2356 128 2106 18 
Q 1856 -91 1522 -91 
Q 969 -91 644 203 
Q 319 497 319 997 
Q 319 1513 691 1797 
Q 1063 2081 1741 2081 
L 2547 2081 
L 2547 2309 
Q 2547 2688 2317 2895 
Q 2088 3103 1672 3103 
Q 1328 3103 1125 2947 
Q 922 2791 872 2484 
L 575 2484 
L 575 3156 
Q 875 3284 1158 3348 
Q 1441 3413 1709 3413 
Q 2400 3413 2761 3070 
Q 3122 2728 3122 2075 
z
" transform="scale(0.015625)"/>
       <path id="DejaVuSerif-2e" d="M 603 325 
Q 603 500 722 622 
Q 841 744 1019 744 
Q 1191 744 1312 622 
Q 1434 500 1434 325 
Q 1434 153 1312 31 
Q 1191 -91 1019 -91 
Q 841 -91 722 29 
Q 603 150 603 325 
z
" transform="scale(0.015625)"/>
       <path id="DejaVuSerif-75" d="M 2266 3322 
L 3341 3322 
L 3341 331 
L 3884 331 
L 3884 0 
L 2766 0 
L 2766 588 
Q 2606 256 2353 82 
Q 2100 -91 1766 -91 
Q 1213 -91 952 223 
Q 691 538 691 1209 
L 691 2988 
L 172 2988 
L 172 3322 
L 1269 3322 
L 1269 1388 
Q 1269 781 1417 556 
Q 1566 331 1947 331 
Q 2347 331 2556 625 
Q 2766 919 2766 1478 
L 2766 2988 
L 2266 2988 
L 2266 3322 
z
" transform="scale(0.015625)"/>
       <path id="DejaVuSerif-29" d="M 453 -997 
L 453 -691 
Q 934 -359 1145 242 
Q 1356 844 1356 1931 
Q 1356 3022 1145 3623 
Q 934 4225 453 4556 
L 453 4863 
Q 1216 4522 1603 3783 
Q 1991 3044 1991 1931 
Q 1991 822 1603 83 
Q 1216 -656 453 -997 
z
" transform="scale(0.015625)"/>
      </defs>
      <use xlink:href="#Cmmi10-74" transform="translate(0 0.015625)"/>
      <use xlink:href="#DejaVuSerif-20" transform="translate(36.083984 0.015625)"/>
      <use xlink:href="#DejaVuSerif-28" transform="translate(67.871094 0.015625)"/>
      <use xlink:href="#DejaVuSerif-61" transform="translate(106.884766 0.015625)"/>
      <use xlink:href="#DejaVuSerif-2e" transform="translate(166.503906 0.015625)"/>
      <use xlink:href="#DejaVuSerif-75" transform="translate(198.291016 0.015625)"/>
      <use xlink:href="#DejaVuSerif-2e" transform="translate(262.695312 0.015625)"/>
      <use xlink:href="#DejaVuSerif-29" transform="translate(294.482422 0.015625)"/>
     </g>
    </g>
   </g>
   <g id="matplotlib.axis_2">
    <g id="ytick_1">
     <g id="line2d_10">
      <path d="M 103.44 304.019827 
L 403.133584 304.019827 
" clip-path="url(#p4a6c52960e)" style="fill: none; stroke-dasharray: 3.7,1.6; stroke-dashoffset: 0; stroke: #b0b0b0; stroke-opacity: 0.5"/>
     </g>
     <g id="line2d_11">
      <defs>
       <path id="mf53d024491" d="M 0 0 
L 10 0 
" style="stroke: #000000; stroke-width: 2"/>
      </defs>
      <g>
       <use xlink:href="#mf53d024491" x="103.44" y="304.019827" style="stroke: #000000; stroke-width: 2"/>
      </g>
     </g>
     <g id="line2d_12">
      <defs>
       <path id="m43a09007ce" d="M 0 0 
L -10 0 
" style="stroke: #000000; stroke-width: 2"/>
      </defs>
      <g>
       <use xlink:href="#m43a09007ce" x="403.133584" y="304.019827" style="stroke: #000000; stroke-width: 2"/>
      </g>
     </g>
     <g id="text_5">
      <!-- −8 -->
      <g transform="translate(61.610313 313.897796) scale(0.26 -0.26)">
       <defs>
        <path id="DejaVuSerif-2212" d="M 678 2259 
L 4684 2259 
L 4684 1753 
L 678 1753 
L 678 2259 
z
" transform="scale(0.015625)"/>
        <path id="DejaVuSerif-38" d="M 2981 1275 
Q 2981 1775 2732 2051 
Q 2484 2328 2034 2328 
Q 1584 2328 1336 2051 
Q 1088 1775 1088 1275 
Q 1088 772 1336 495 
Q 1584 219 2034 219 
Q 2484 219 2732 495 
Q 2981 772 2981 1275 
z
M 2853 3541 
Q 2853 3966 2637 4203 
Q 2422 4441 2034 4441 
Q 1650 4441 1433 4203 
Q 1216 3966 1216 3541 
Q 1216 3113 1433 2875 
Q 1650 2638 2034 2638 
Q 2422 2638 2637 2875 
Q 2853 3113 2853 3541 
z
M 2516 2484 
Q 3047 2413 3344 2092 
Q 3641 1772 3641 1275 
Q 3641 619 3225 264 
Q 2809 -91 2034 -91 
Q 1263 -91 845 264 
Q 428 619 428 1275 
Q 428 1772 725 2092 
Q 1022 2413 1556 2484 
Q 1084 2569 832 2842 
Q 581 3116 581 3541 
Q 581 4103 968 4426 
Q 1356 4750 2034 4750 
Q 2713 4750 3100 4426 
Q 3488 4103 3488 3541 
Q 3488 3116 3236 2842 
Q 2984 2569 2516 2484 
z
" transform="scale(0.015625)"/>
       </defs>
       <use xlink:href="#DejaVuSerif-2212"/>
       <use xlink:href="#DejaVuSerif-38" x="83.789062"/>
      </g>
     </g>
    </g>
    <g id="ytick_2">
     <g id="line2d_13">
      <path d="M 103.44 240.392248 
L 403.133584 240.392248 
" clip-path="url(#p4a6c52960e)" style="fill: none; stroke-dasharray: 3.7,1.6; stroke-dashoffset: 0; stroke: #b0b0b0; stroke-opacity: 0.5"/>
     </g>
     <g id="line2d_14">
      <g>
       <use xlink:href="#mf53d024491" x="103.44" y="240.392248" style="stroke: #000000; stroke-width: 2"/>
      </g>
     </g>
     <g id="line2d_15">
      <g>
       <use xlink:href="#m43a09007ce" x="403.133584" y="240.392248" style="stroke: #000000; stroke-width: 2"/>
      </g>
     </g>
     <g id="text_6">
      <!-- −6 -->
      <g transform="translate(61.610313 250.270217) scale(0.26 -0.26)">
       <defs>
        <path id="DejaVuSerif-36" d="M 2094 219 
Q 2534 219 2771 542 
Q 3009 866 3009 1472 
Q 3009 2078 2771 2401 
Q 2534 2725 2094 2725 
Q 1647 2725 1412 2412 
Q 1178 2100 1178 1509 
Q 1178 888 1415 553 
Q 1653 219 2094 219 
z
M 1075 2569 
Q 1288 2803 1556 2918 
Q 1825 3034 2163 3034 
Q 2859 3034 3264 2615 
Q 3669 2197 3669 1472 
Q 3669 763 3233 336 
Q 2797 -91 2069 -91 
Q 1278 -91 853 498 
Q 428 1088 428 2181 
Q 428 3406 931 4078 
Q 1434 4750 2350 4750 
Q 2597 4750 2869 4703 
Q 3141 4656 3425 4563 
L 3425 3794 
L 3072 3794 
Q 3034 4109 2831 4275 
Q 2628 4441 2284 4441 
Q 1678 4441 1381 3981 
Q 1084 3522 1075 2569 
z
" transform="scale(0.015625)"/>
       </defs>
       <use xlink:href="#DejaVuSerif-2212"/>
       <use xlink:href="#DejaVuSerif-36" x="83.789062"/>
      </g>
     </g>
    </g>
    <g id="ytick_3">
     <g id="line2d_16">
      <path d="M 103.44 176.764669 
L 403.133584 176.764669 
" clip-path="url(#p4a6c52960e)" style="fill: none; stroke-dasharray: 3.7,1.6; stroke-dashoffset: 0; stroke: #b0b0b0; stroke-opacity: 0.5"/>
     </g>
     <g id="line2d_17">
      <g>
       <use xlink:href="#mf53d024491" x="103.44" y="176.764669" style="stroke: #000000; stroke-width: 2"/>
      </g>
     </g>
     <g id="line2d_18">
      <g>
       <use xlink:href="#m43a09007ce" x="403.133584" y="176.764669" style="stroke: #000000; stroke-width: 2"/>
      </g>
     </g>
     <g id="text_7">
      <!-- −4 -->
      <g transform="translate(61.610313 186.642638) scale(0.26 -0.26)">
       <defs>
        <path id="DejaVuSerif-34" d="M 2234 1581 
L 2234 4063 
L 641 1581 
L 2234 1581 
z
M 3609 0 
L 1484 0 
L 1484 331 
L 2234 331 
L 2234 1247 
L 197 1247 
L 197 1588 
L 2241 4750 
L 2859 4750 
L 2859 1581 
L 3750 1581 
L 3750 1247 
L 2859 1247 
L 2859 331 
L 3609 331 
L 3609 0 
z
" transform="scale(0.015625)"/>
       </defs>
       <use xlink:href="#DejaVuSerif-2212"/>
       <use xlink:href="#DejaVuSerif-34" x="83.789062"/>
      </g>
     </g>
    </g>
    <g id="ytick_4">
     <g id="line2d_19">
      <path d="M 103.44 113.13709 
L 403.133584 113.13709 
" clip-path="url(#p4a6c52960e)" style="fill: none; stroke-dasharray: 3.7,1.6; stroke-dashoffset: 0; stroke: #b0b0b0; stroke-opacity: 0.5"/>
     </g>
     <g id="line2d_20">
      <g>
       <use xlink:href="#mf53d024491" x="103.44" y="113.13709" style="stroke: #000000; stroke-width: 2"/>
      </g>
     </g>
     <g id="line2d_21">
      <g>
       <use xlink:href="#m43a09007ce" x="403.133584" y="113.13709" style="stroke: #000000; stroke-width: 2"/>
      </g>
     </g>
     <g id="text_8">
      <!-- −2 -->
      <g transform="translate(61.610313 123.015059) scale(0.26 -0.26)">
       <use xlink:href="#DejaVuSerif-2212"/>
       <use xlink:href="#DejaVuSerif-32" x="83.789062"/>
      </g>
     </g>
    </g>
    <g id="text_9">
     <!-- $E(t)$ (a.u.) -->
     <g transform="translate(51.110313 260.92625) rotate(-90) scale(0.26 -0.26)">
      <defs>
       <path id="Cmmi10-45" d="M 300 0 
Q 238 0 238 84 
Q 241 100 250 139 
Q 259 178 276 201 
Q 294 225 319 225 
Q 709 225 863 269 
Q 947 297 984 441 
L 1863 3956 
Q 1875 4019 1875 4044 
Q 1875 4113 1797 4122 
Q 1678 4147 1338 4147 
Q 1275 4147 1275 4231 
Q 1278 4247 1287 4286 
Q 1297 4325 1314 4348 
Q 1331 4372 1356 4372 
L 4825 4372 
Q 4891 4372 4891 4288 
L 4738 2963 
Q 4738 2947 4714 2926 
Q 4691 2906 4672 2906 
L 4616 2906 
Q 4550 2906 4550 2988 
Q 4588 3300 4588 3450 
Q 4588 3706 4500 3848 
Q 4413 3991 4267 4053 
Q 4122 4116 3945 4131 
Q 3769 4147 3481 4147 
L 2753 4147 
Q 2578 4147 2522 4117 
Q 2466 4088 2419 3928 
L 2034 2381 
L 2534 2381 
Q 2859 2381 3025 2426 
Q 3191 2472 3287 2615 
Q 3384 2759 3463 3072 
Q 3469 3094 3486 3111 
Q 3503 3128 3525 3128 
L 3584 3128 
Q 3647 3128 3647 3047 
L 3250 1466 
Q 3238 1409 3188 1409 
L 3128 1409 
Q 3066 1409 3066 1491 
Q 3128 1747 3128 1869 
Q 3128 2056 2959 2106 
Q 2791 2156 2509 2156 
L 1978 2156 
L 1544 416 
Q 1516 338 1516 275 
Q 1516 225 1734 225 
L 2509 225 
Q 2972 225 3259 297 
Q 3547 369 3736 526 
Q 3925 684 4062 928 
Q 4200 1172 4397 1638 
Q 4409 1678 4453 1678 
L 4513 1678 
Q 4538 1678 4556 1656 
Q 4575 1634 4575 1606 
Q 4575 1594 4569 1581 
L 3909 38 
Q 3897 0 3859 0 
L 300 0 
z
" transform="scale(0.015625)"/>
       <path id="Cmr10-28" d="M 1984 -1588 
Q 1628 -1306 1370 -942 
Q 1113 -578 948 -165 
Q 784 247 703 697 
Q 622 1147 622 1600 
Q 622 2059 703 2509 
Q 784 2959 951 3375 
Q 1119 3791 1378 4153 
Q 1638 4516 1984 4788 
Q 1984 4800 2016 4800 
L 2075 4800 
Q 2094 4800 2109 4783 
Q 2125 4766 2125 4744 
Q 2125 4716 2113 4703 
Q 1800 4397 1592 4047 
Q 1384 3697 1257 3301 
Q 1131 2906 1075 2482 
Q 1019 2059 1019 1600 
Q 1019 -434 2106 -1491 
Q 2125 -1509 2125 -1544 
Q 2125 -1559 2108 -1579 
Q 2091 -1600 2075 -1600 
L 2016 -1600 
Q 1984 -1600 1984 -1588 
z
" transform="scale(0.015625)"/>
       <path id="Cmr10-29" d="M 416 -1600 
Q 359 -1600 359 -1544 
Q 359 -1516 372 -1503 
Q 1466 -434 1466 1600 
Q 1466 3634 384 4691 
Q 359 4706 359 4744 
Q 359 4766 376 4783 
Q 394 4800 416 4800 
L 475 4800 
Q 494 4800 506 4788 
Q 966 4425 1272 3906 
Q 1578 3388 1720 2800 
Q 1863 2213 1863 1600 
Q 1863 1147 1786 708 
Q 1709 269 1542 -157 
Q 1375 -584 1119 -945 
Q 863 -1306 506 -1588 
Q 494 -1600 475 -1600 
L 416 -1600 
z
" transform="scale(0.015625)"/>
      </defs>
      <use xlink:href="#Cmmi10-45" transform="translate(0 0.015625)"/>
      <use xlink:href="#Cmr10-28" transform="translate(73.779297 0.015625)"/>
      <use xlink:href="#Cmmi10-74" transform="translate(112.597656 0.015625)"/>
      <use xlink:href="#Cmr10-29" transform="translate(148.681641 0.015625)"/>
      <use xlink:href="#DejaVuSerif-20" transform="translate(187.5 0.015625)"/>
      <use xlink:href="#DejaVuSerif-28" transform="translate(219.287109 0.015625)"/>
      <use xlink:href="#DejaVuSerif-61" transform="translate(258.300781 0.015625)"/>
      <use xlink:href="#DejaVuSerif-2e" transform="translate(317.919922 0.015625)"/>
      <use xlink:href="#DejaVuSerif-75" transform="translate(349.707031 0.015625)"/>
      <use xlink:href="#DejaVuSerif-2e" transform="translate(414.111328 0.015625)"/>
      <use xlink:href="#DejaVuSerif-29" transform="translate(445.898438 0.015625)"/>
     </g>
    </g>
    <g id="text_10">
     <!-- 1e−5−2.7993 -->
     <g transform="translate(103.44 47.52) scale(0.26 -0.26)">
      <defs>
       <path id="DejaVuSerif-65" d="M 3469 1600 
L 991 1600 
L 991 1575 
Q 991 903 1244 561 
Q 1497 219 1991 219 
Q 2369 219 2611 417 
Q 2853 616 2950 1006 
L 3413 1006 
Q 3275 459 2904 184 
Q 2534 -91 1931 -91 
Q 1203 -91 761 389 
Q 319 869 319 1663 
Q 319 2450 753 2931 
Q 1188 3413 1894 3413 
Q 2647 3413 3050 2948 
Q 3453 2484 3469 1600 
z
M 2791 1931 
Q 2772 2513 2545 2808 
Q 2319 3103 1894 3103 
Q 1497 3103 1269 2806 
Q 1041 2509 991 1931 
L 2791 1931 
z
" transform="scale(0.015625)"/>
       <path id="DejaVuSerif-35" d="M 3219 4666 
L 3219 4153 
L 1081 4153 
L 1081 2816 
Q 1244 2928 1461 2984 
Q 1678 3041 1947 3041 
Q 2703 3041 3140 2622 
Q 3578 2203 3578 1478 
Q 3578 738 3136 323 
Q 2694 -91 1894 -91 
Q 1572 -91 1234 -12 
Q 897 66 544 225 
L 544 1131 
L 897 1131 
Q 925 688 1179 453 
Q 1434 219 1894 219 
Q 2388 219 2653 544 
Q 2919 869 2919 1478 
Q 2919 2084 2655 2407 
Q 2391 2731 1894 2731 
Q 1613 2731 1398 2631 
Q 1184 2531 1019 2322 
L 750 2322 
L 750 4666 
L 3219 4666 
z
" transform="scale(0.015625)"/>
       <path id="DejaVuSerif-37" d="M 3609 4347 
L 1784 0 
L 1319 0 
L 3059 4153 
L 903 4153 
L 903 3578 
L 538 3578 
L 538 4666 
L 3609 4666 
L 3609 4347 
z
" transform="scale(0.015625)"/>
       <path id="DejaVuSerif-39" d="M 2994 2091 
Q 2784 1856 2512 1740 
Q 2241 1625 1900 1625 
Q 1206 1625 804 2044 
Q 403 2463 403 3188 
Q 403 3897 839 4323 
Q 1275 4750 2003 4750 
Q 2794 4750 3217 4161 
Q 3641 3572 3641 2478 
Q 3641 1253 3137 581 
Q 2634 -91 1722 -91 
Q 1475 -91 1203 -44 
Q 931 3 647 97 
L 647 872 
L 997 872 
Q 1038 556 1241 387 
Q 1444 219 1784 219 
Q 2391 219 2687 676 
Q 2984 1134 2994 2091 
z
M 1978 4441 
Q 1534 4441 1298 4117 
Q 1063 3794 1063 3188 
Q 1063 2581 1298 2256 
Q 1534 1931 1978 1931 
Q 2422 1931 2658 2245 
Q 2894 2559 2894 3150 
Q 2894 3772 2656 4106 
Q 2419 4441 1978 4441 
z
" transform="scale(0.015625)"/>
       <path id="DejaVuSerif-33" d="M 622 4469 
Q 988 4606 1323 4678 
Q 1659 4750 1953 4750 
Q 2638 4750 3022 4454 
Q 3406 4159 3406 3634 
Q 3406 3213 3140 2930 
Q 2875 2647 2388 2547 
Q 2963 2466 3280 2130 
Q 3597 1794 3597 1259 
Q 3597 606 3158 257 
Q 2719 -91 1894 -91 
Q 1528 -91 1179 -12 
Q 831 66 488 225 
L 488 1131 
L 838 1131 
Q 869 681 1141 450 
Q 1413 219 1906 219 
Q 2384 219 2661 495 
Q 2938 772 2938 1253 
Q 2938 1803 2653 2086 
Q 2369 2369 1819 2369 
L 1522 2369 
L 1522 2688 
L 1678 2688 
Q 2225 2688 2498 2914 
Q 2772 3141 2772 3597 
Q 2772 4006 2547 4223 
Q 2322 4441 1900 4441 
Q 1478 4441 1245 4241 
Q 1013 4041 972 3647 
L 622 3647 
L 622 4469 
z
" transform="scale(0.015625)"/>
      </defs>
      <use xlink:href="#DejaVuSerif-31"/>
      <use xlink:href="#DejaVuSerif-65" x="63.623047"/>
      <use xlink:href="#DejaVuSerif-2212" x="122.802734"/>
      <use xlink:href="#DejaVuSerif-35" x="206.591797"/>
      <use xlink:href="#DejaVuSerif-2212" x="270.214844"/>
      <use xlink:href="#DejaVuSerif-32" x="354.003906"/>
      <use xlink:href="#DejaVuSerif-2e" x="417.626953"/>
      <use xlink:href="#DejaVuSerif-37" x="449.414062"/>
      <use xlink:href="#DejaVuSerif-39" x="513.037109"/>
      <use xlink:href="#DejaVuSerif-39" x="576.660156"/>
      <use xlink:href="#DejaVuSerif-33" x="640.283203"/>
     </g>
    </g>
   </g>
   <g id="line2d_22">
    <path d="M 117.062436 161.462572 
L 117.335157 212.285783 
L 117.607879 142.99852 
L 117.8806 154.859209 
L 118.153321 246.835248 
L 118.426043 160.215012 
L 118.698764 143.983411 
L 118.971486 208.873748 
L 119.516929 112.545617 
L 119.78965 187.097045 
L 120.062371 176.784178 
L 120.335093 68.723314 
L 120.607814 174.097304 
L 120.880536 191.285062 
L 121.153257 122.281538 
L 121.425979 162.822028 
L 121.6987 224.861533 
L 121.971421 149.797178 
L 122.244143 159.341826 
L 122.516864 244.237784 
L 122.789586 165.545795 
L 123.062307 137.232626 
L 123.335029 203.962169 
L 123.60775 168.909144 
L 123.880471 101.776592 
L 124.153193 185.966846 
L 124.425914 181.757078 
L 124.698636 81.901329 
L 124.971357 171.679219 
L 125.244079 200.28525 
L 125.5168 137.387832 
L 125.789522 157.770881 
L 126.062243 229.524569 
L 126.334964 147.737492 
L 126.607686 152.768254 
L 126.880407 235.013317 
L 127.153129 164.238047 
L 127.42585 134.191207 
L 127.698572 199.897008 
L 127.971293 167.88379 
L 128.244014 88.620175 
L 128.516736 190.779524 
L 128.789457 179.908613 
L 129.062179 104.294576 
L 129.3349 175.436677 
L 129.607622 206.409344 
L 129.880343 137.27992 
L 130.153064 160.928877 
L 130.425786 243.218229 
L 130.698507 154.557684 
L 130.971229 154.537115 
L 131.24395 230.111374 
L 131.789393 123.867966 
L 132.062115 196.652874 
L 132.334836 173.396397 
L 132.607557 75.25551 
L 132.880279 187.577842 
L 133.153 189.711035 
L 133.425722 110.355823 
L 133.971165 210.205261 
L 134.243886 142.858276 
L 134.516607 160.051169 
L 134.789329 249.851511 
L 135.06205 154.435439 
L 135.334772 149.881904 
L 135.607493 220.663259 
L 136.152936 127.217201 
L 136.425657 199.609786 
L 136.698379 179.797812 
L 136.9711 63.916023 
L 137.243822 186.453104 
L 137.516543 191.577564 
L 137.789265 118.146945 
L 138.334708 218.453349 
L 138.607429 141.240677 
L 138.88015 156.417151 
L 139.152872 253.910295 
L 139.425593 159.088794 
L 139.698315 146.115369 
L 139.971036 218.041069 
L 140.516479 124.086552 
L 140.7892 199.910363 
L 141.061922 179.494708 
L 141.334643 70.767688 
L 141.607365 188.800418 
L 141.880086 204.658691 
L 142.152808 135.08545 
L 142.425529 172.519448 
L 142.69825 227.253212 
L 142.970972 150.553293 
L 143.243693 160.125991 
L 143.516415 253.253257 
L 143.789136 165.829249 
L 144.061858 141.402958 
L 144.334579 210.472341 
L 144.607301 183.109165 
L 144.880022 107.626417 
L 145.152743 196.976026 
L 145.425465 188.993698 
L 145.698186 87.055825 
L 145.970908 183.076214 
L 146.243629 206.855122 
L 146.516351 137.993557 
L 146.789072 167.477933 
L 147.061793 232.411297 
L 147.334515 150.334632 
L 147.607236 155.967433 
L 147.879958 246.197672 
L 148.152679 166.995088 
L 148.425401 138.264145 
L 148.698122 209.479604 
L 148.970843 183.512367 
L 149.243565 101.907077 
L 149.516286 193.489974 
L 149.789008 190.489216 
L 150.061729 104.722216 
L 150.334451 186.638313 
L 150.607172 211.222593 
L 150.879893 139.298547 
L 151.152615 165.315613 
L 151.425336 248.016755 
L 151.698058 157.200689 
L 151.970779 154.633674 
L 152.243501 235.221491 
L 152.516222 173.376254 
L 152.788944 136.909702 
L 153.061665 207.808114 
L 153.334386 184.716137 
L 153.607108 88.055495 
L 153.879829 193.610882 
L 154.152551 198.805686 
L 154.425272 112.298967 
L 154.697994 186.436522 
L 154.970715 215.781284 
L 155.243436 146.503649 
L 155.516158 168.264936 
L 155.788879 256.868459 
L 156.061601 162.2954 
L 156.334322 155.23471 
L 156.607044 229.939079 
L 157.152486 139.664108 
L 157.425208 211.097026 
L 157.697929 191.567138 
L 157.970651 74.034589 
L 158.243372 189.016131 
L 158.516094 203.682348 
L 158.788815 128.570975 
L 159.334258 224.209468 
L 159.606979 149.713467 
L 159.879701 162.58042 
L 160.152422 260.522778 
L 160.425144 161.65465 
L 160.697865 148.571708 
L 160.970587 225.916512 
L 161.516029 127.933306 
L 161.788751 203.355474 
L 162.061472 191.382424 
L 162.334194 75.035989 
L 162.606915 192.884365 
L 162.879637 211.390432 
L 163.152358 141.258656 
L 163.697801 233.197992 
L 163.970522 155.925769 
L 164.243244 162.827087 
L 164.515965 259.214989 
L 164.788687 170.503946 
L 165.061408 150.962416 
L 165.33413 219.961976 
L 165.606851 187.541886 
L 165.879572 117.433595 
L 166.152294 204.447186 
L 166.425015 195.616708 
L 166.697737 91.253211 
L 166.970458 191.884063 
L 167.24318 213.887445 
L 167.515901 141.57708 
L 167.788622 179.93345 
L 168.061344 242.201609 
L 168.334065 162.108476 
L 168.606787 165.29761 
L 168.879508 253.065318 
L 169.15223 174.739711 
L 169.424951 143.986182 
L 169.697672 215.4188 
L 169.970394 194.343825 
L 170.243115 112.152662 
L 170.515837 198.104669 
L 170.788558 201.985054 
L 171.06128 110.341167 
L 171.334001 189.733938 
L 171.606722 218.927848 
L 171.879444 149.110132 
L 172.152165 172.96651 
L 172.424887 256.179605 
L 172.697608 161.773817 
L 172.97033 159.864792 
L 173.243051 241.251135 
L 173.515773 178.417059 
L 173.788494 147.112792 
L 174.061215 217.211657 
L 174.333937 192.340619 
L 174.606658 95.619236 
L 174.87938 200.955687 
L 175.152101 203.10891 
L 175.424823 120.421582 
L 175.697544 194.36037 
L 175.970265 219.633679 
L 176.242987 150.21783 
L 176.515708 172.245967 
L 176.78843 265.919291 
L 177.061151 170.117061 
L 177.333873 162.518753 
L 177.606594 238.066723 
L 178.152037 143.399555 
L 178.424758 216.39129 
L 178.69748 194.758392 
L 178.970201 80.763446 
L 179.242923 199.424017 
L 179.515644 213.025209 
L 179.788366 138.116585 
L 180.333808 232.615879 
L 180.60653 160.255158 
L 180.879251 174.222619 
L 181.151973 268.976975 
L 181.424694 172.434603 
L 181.697416 158.645606 
L 181.970137 235.841571 
L 182.242858 194.715151 
L 182.51558 136.194155 
L 182.788301 213.164267 
L 183.061023 200.246128 
L 183.333744 83.360905 
L 183.606466 197.807208 
L 183.879187 214.872156 
L 184.151908 145.852773 
L 184.42463 183.57963 
L 184.697351 243.87245 
L 184.970073 159.961032 
L 185.242794 170.188834 
L 185.515516 266.554566 
L 185.788237 176.243176 
L 186.060959 155.834649 
L 186.33368 224.788684 
L 186.606401 192.65055 
L 186.879123 125.807168 
L 187.151844 211.026074 
L 187.424566 198.645347 
L 187.697287 98.790138 
L 187.970009 202.605956 
L 188.24273 225.343471 
L 188.515451 154.134124 
L 188.788173 181.910561 
L 189.060894 250.884182 
L 189.333616 168.553547 
L 189.606337 172.88364 
L 189.879059 258.775418 
L 190.15178 186.54879 
L 190.424501 152.766583 
L 190.697223 219.740466 
L 190.969944 194.204619 
L 191.242666 115.449063 
L 191.515387 211.771336 
L 191.788109 205.09391 
L 192.06083 122.240731 
L 192.333552 198.234847 
L 192.606273 226.644144 
L 192.878994 158.232547 
L 193.151716 182.411211 
L 193.424437 264.840969 
L 193.697159 172.651119 
L 193.96988 175.288221 
L 194.242602 250.193367 
L 194.788044 148.636751 
L 195.060766 221.830519 
L 195.333487 198.634071 
L 195.606209 98.221779 
L 195.87893 206.778762 
L 196.151652 209.237123 
L 196.424373 132.916289 
L 196.969816 229.941569 
L 197.242537 163.097651 
L 197.515259 179.994644 
L 197.78798 273.521805 
L 198.060702 176.746016 
L 198.333423 169.994249 
L 198.606144 242.609221 
L 199.151587 144.631365 
L 199.424309 217.287638 
L 199.69703 197.722152 
L 199.969752 84.125773 
L 200.242473 210.109777 
L 200.515195 212.693265 
L 200.787916 141.138931 
L 201.333359 240.754633 
L 201.60608 167.789541 
L 201.878802 182.975384 
L 202.151523 275.967598 
L 202.424245 187.20382 
L 202.696966 172.561282 
L 202.969687 239.838946 
L 203.51513 143.869784 
L 203.787852 219.580876 
L 204.060573 202.969869 
L 204.333295 95.913409 
L 204.606016 205.053326 
L 204.878737 220.820392 
L 205.151459 152.022145 
L 205.42418 190.769102 
L 205.696902 252.689973 
L 205.969623 176.984276 
L 206.242345 187.412261 
L 206.515066 272.98421 
L 206.787788 193.93893 
L 207.060509 166.068189 
L 207.33323 232.647183 
L 207.605952 197.72344 
L 207.878673 130.178518 
L 208.151395 213.895527 
L 208.424116 212.452979 
L 208.696838 112.409392 
L 208.969559 197.575168 
L 209.24228 226.740123 
L 209.515002 164.621226 
L 209.787723 190.726274 
L 210.060445 259.797906 
L 210.333166 179.855144 
L 210.605888 180.682988 
L 210.878609 261.428333 
L 211.15133 190.608443 
L 211.424052 164.600298 
L 211.696773 230.044318 
L 211.969495 200.243834 
L 212.242216 112.357411 
L 212.514938 211.740694 
L 212.787659 215.054931 
L 213.060381 133.807332 
L 213.333102 197.663168 
L 213.605823 235.47125 
L 213.878545 167.8362 
L 214.151266 192.278285 
L 214.423988 273.760012 
L 214.696709 187.476881 
L 214.969431 177.14906 
L 215.242152 257.012094 
L 215.514873 190.255532 
L 215.787595 154.838078 
L 216.060316 221.46684 
L 216.333038 206.396307 
L 216.605759 98.400262 
L 216.878481 210.292468 
L 217.151202 222.907059 
L 217.423923 145.841063 
L 217.969366 246.412972 
L 218.242088 176.775327 
L 218.514809 192.955324 
L 218.787531 280.739036 
L 219.060252 191.335054 
L 219.332973 175.646194 
L 219.605695 244.503931 
L 220.151138 149.782249 
L 220.423859 222.803544 
L 220.696581 216.201163 
L 220.969302 91.557501 
L 221.242024 203.610163 
L 221.514745 227.159466 
L 221.787466 153.16479 
L 222.332909 249.878759 
L 222.605631 179.275176 
L 222.878352 185.984518 
L 223.151074 281.175824 
L 223.423795 187.39261 
L 223.696516 167.753969 
L 223.969238 236.793902 
L 224.241959 206.446092 
L 224.514681 138.594353 
L 224.787402 216.729918 
L 225.060124 218.626472 
L 225.332845 110.998392 
L 225.605566 207.571479 
L 225.878288 232.684347 
L 226.151009 162.4323 
L 226.423731 198.094428 
L 226.696452 258.460166 
L 226.969174 179.498826 
L 227.241895 179.325944 
L 227.514617 274.869319 
L 227.787338 190.530864 
L 228.060059 168.390686 
L 228.332781 238.164367 
L 228.605502 208.281221 
L 228.878224 129.402571 
L 229.150945 220.866973 
L 229.423667 217.227996 
L 229.696388 131.597065 
L 229.969109 213.702446 
L 230.241831 235.691287 
L 230.514552 164.862244 
L 230.787274 194.413278 
L 231.059995 273.971736 
L 231.332717 185.763882 
L 231.605438 183.857116 
L 231.878159 263.044829 
L 232.423602 160.859831 
L 232.696324 233.543083 
L 232.969045 209.912452 
L 233.241767 111.435789 
L 233.514488 220.641542 
L 233.78721 224.123563 
L 234.059931 141.926062 
L 234.332652 208.286788 
L 234.605374 243.842223 
L 234.878095 175.696831 
L 235.150817 194.580489 
L 235.423538 283.085718 
L 235.69626 189.448222 
L 235.968981 184.789303 
L 236.241702 253.373301 
L 236.787145 160.457632 
L 237.059867 233.326289 
L 237.332588 213.976531 
L 237.60531 96.97011 
L 237.878031 217.930933 
L 238.150752 224.635857 
L 238.423474 152.145617 
L 238.968917 250.196348 
L 239.241638 179.812141 
L 239.51436 195.274284 
L 239.787081 286.885019 
L 240.059803 196.39938 
L 240.332524 180.516043 
L 240.605245 249.792918 
L 241.150688 153.275121 
L 241.42341 227.176458 
L 241.696131 216.50477 
L 241.968853 109.723252 
L 242.241574 216.552172 
L 242.514295 232.991391 
L 242.787017 166.897691 
L 243.059738 202.325662 
L 243.33246 263.377416 
L 243.605181 188.457574 
L 243.877903 194.394476 
L 244.150624 284.011846 
L 244.423345 203.151617 
L 244.696067 182.212552 
L 244.968788 248.550898 
L 245.24151 206.394904 
L 245.514231 139.869388 
L 245.786953 226.625017 
L 246.059674 224.446311 
L 246.332395 127.780727 
L 246.605117 211.85334 
L 246.877838 236.61597 
L 247.15056 171.00283 
L 247.423281 209.343789 
L 247.696003 273.524185 
L 247.968724 197.77261 
L 248.241446 191.871875 
L 248.514167 270.191531 
L 248.786888 203.523859 
L 249.05961 173.229929 
L 249.332331 241.260327 
L 249.605053 219.009771 
L 249.877774 122.871751 
L 250.150496 219.311852 
L 250.423217 234.459523 
L 250.695938 143.74615 
L 250.96866 211.255481 
L 251.241381 248.719569 
L 251.514103 181.156844 
L 251.786824 202.870344 
L 252.059546 287.396546 
L 252.332267 194.51375 
L 252.604988 184.772011 
L 252.87771 264.321801 
L 253.423153 172.016954 
L 253.695874 240.132671 
L 253.968596 224.554184 
L 254.241317 106.842347 
L 254.514039 220.213586 
L 254.78676 234.40962 
L 255.059481 159.117212 
L 255.604924 256.408712 
L 255.877646 180.832775 
L 256.150367 193.986507 
L 256.423089 292.326219 
L 256.69581 194.827652 
L 256.968531 182.12281 
L 257.241253 256.740943 
L 257.786696 160.813568 
L 258.059417 236.20068 
L 258.332139 220.201675 
L 258.60486 108.849236 
L 258.877581 226.982005 
L 259.150303 242.097681 
L 259.423024 174.35578 
L 259.695746 209.086895 
L 259.968467 266.846752 
L 260.241189 188.6667 
L 260.51391 198.712578 
L 260.786632 290.573503 
L 261.059353 207.495098 
L 261.332074 184.766895 
L 261.604796 252.114112 
L 261.877517 214.291616 
L 262.150239 146.838495 
L 262.42296 238.000669 
L 262.695682 224.76735 
L 262.968403 128.464301 
L 263.241124 221.840643 
L 263.513846 244.922189 
L 263.786567 178.347643 
L 264.059289 209.123872 
L 264.33201 275.400994 
L 264.604732 198.606227 
L 264.877453 203.280946 
L 265.150174 278.72493 
L 265.422896 214.094349 
L 265.695617 177.971641 
L 265.968339 244.243258 
L 266.24106 219.464478 
L 266.513782 132.754768 
L 266.786503 229.167942 
L 267.059224 235.201463 
L 267.331946 147.910518 
L 267.877389 255.747992 
L 268.15011 189.661499 
L 268.422832 211.331523 
L 268.695553 292.182756 
L 268.968275 202.813218 
L 269.240996 194.165213 
L 269.513717 271.671644 
L 269.786439 209.046442 
L 270.05916 176.819954 
L 270.331882 242.369664 
L 270.604603 229.004308 
L 270.877325 116.320869 
L 271.150046 224.404007 
L 271.422767 239.364465 
L 271.695489 164.343835 
L 272.240932 261.594697 
L 272.513653 189.329909 
L 272.786375 203.282794 
L 273.059096 297.65279 
L 273.331817 202.469176 
L 273.604539 187.495049 
L 273.87726 261.459308 
L 274.422703 165.31215 
L 274.695425 239.574764 
L 274.968146 228.879139 
L 275.240868 111.464265 
L 275.513589 228.978226 
L 275.78631 248.530473 
L 276.059032 177.763019 
L 276.604475 270.061984 
L 276.877196 194.011042 
L 277.149918 201.580022 
L 277.422639 296.280189 
L 277.69536 209.322606 
L 277.968082 188.276047 
L 278.240803 256.884054 
L 278.513525 223.599183 
L 278.786246 153.190835 
L 279.058968 243.220494 
L 279.331689 229.763423 
L 279.60441 131.485216 
L 279.877132 229.544226 
L 280.149853 251.35182 
L 280.422575 182.629607 
L 280.695296 213.254222 
L 280.968018 279.819706 
L 281.240739 200.441935 
L 281.513461 207.781439 
L 281.786182 285.790166 
L 282.058903 220.227141 
L 282.331625 181.890019 
L 282.604346 248.709268 
L 282.877068 224.100497 
L 283.149789 140.446158 
L 283.422511 236.798413 
L 283.695232 238.14312 
L 283.967953 152.327532 
L 284.513396 261.250103 
L 284.786118 194.960728 
L 285.058839 215.748968 
L 285.331561 297.209282 
L 285.604282 207.859298 
L 285.877003 201.657482 
L 286.149725 277.337206 
L 286.422446 215.78104 
L 286.695168 181.40482 
L 286.967889 247.365926 
L 287.240611 232.24856 
L 287.513332 123.403135 
L 287.786054 230.74224 
L 288.058775 243.630339 
L 288.331496 169.248318 
L 288.876939 266.350344 
L 289.149661 195.662777 
L 289.422382 210.346058 
L 289.695104 303.091168 
L 289.967825 209.198561 
L 290.240546 193.629711 
L 290.513268 266.925121 
L 291.058711 170.225329 
L 291.331432 244.034496 
L 291.604154 235.037992 
L 291.876875 116.280949 
L 292.149596 233.473568 
L 292.422318 253.340665 
L 292.695039 182.220241 
L 293.240482 275.079278 
L 293.513204 199.326332 
L 293.785925 206.276456 
L 294.058646 301.534916 
L 294.331368 213.921573 
L 294.604089 193.590509 
L 294.876811 262.194328 
L 295.149532 228.629028 
L 295.422254 158.991655 
L 295.694975 248.311881 
L 295.967697 234.761216 
L 296.240418 136.366934 
L 296.513139 235.328548 
L 296.785861 256.958516 
L 297.058582 187.87664 
L 297.331304 218.743812 
L 297.604025 285.463556 
L 297.876747 206.155652 
L 298.149468 212.975518 
L 298.422189 290.816258 
L 298.694911 225.589148 
L 298.967632 187.415444 
L 299.240354 253.689669 
L 299.513075 228.964199 
L 299.785797 145.459044 
L 300.058518 242.048519 
L 300.331239 244.020346 
L 300.603961 157.679658 
L 301.149404 266.151622 
L 301.422125 200.205569 
L 301.694847 222.131894 
L 301.967568 302.822793 
L 302.24029 213.952392 
L 302.513011 206.597212 
L 302.785732 282.282377 
L 303.058454 221.10461 
L 303.331175 187.047411 
L 303.603897 253.374553 
L 303.876618 239.261777 
L 304.14934 127.63114 
L 304.422061 234.538729 
L 304.694782 250.200757 
L 304.967504 175.463054 
L 305.512947 271.754062 
L 305.785668 200.369282 
L 306.05839 213.915737 
L 306.331111 308.510683 
L 306.603832 212.233251 
L 306.876554 197.424912 
L 307.149275 272.749001 
L 307.694718 175.567473 
L 307.96744 250.071372 
L 308.240161 239.456036 
L 308.512883 122.625812 
L 308.785604 240.080869 
L 309.058325 257.935375 
L 309.331047 188.619699 
L 309.87649 282.000707 
L 310.149211 203.029766 
L 310.421933 212.096501 
L 310.694654 306.197319 
L 310.967375 220.592029 
L 311.240097 199.751588 
L 311.512818 267.725371 
L 311.78554 230.753221 
L 312.058261 163.970596 
L 312.330983 253.791498 
L 312.603704 239.317931 
L 312.876425 143.245912 
L 313.149147 239.193898 
L 313.421868 261.882195 
L 313.69459 194.279086 
L 313.967311 225.091415 
L 314.240033 292.27583 
L 314.512754 214.986584 
L 314.785475 218.0395 
L 315.058197 293.875006 
L 315.330918 229.041559 
L 315.60364 194.638086 
L 315.876361 259.584751 
L 316.149083 234.852548 
L 316.421804 148.017824 
L 316.694526 244.882834 
L 316.967247 252.405979 
L 317.239968 163.678872 
L 317.785411 269.948121 
L 318.058133 203.953045 
L 318.330854 227.920349 
L 318.603576 308.954383 
L 318.876297 219.220207 
L 319.149018 209.061281 
L 319.42174 286.092413 
L 319.967183 192.970549 
L 320.239904 261.139155 
L 320.512626 246.429795 
L 320.785347 129.382988 
L 321.058068 239.720922 
L 321.33079 257.005961 
L 321.603511 181.867353 
L 322.148954 276.902238 
L 322.421676 203.924649 
L 322.694397 217.013644 
L 322.967119 313.746626 
L 323.23984 216.249416 
L 323.512561 203.309651 
L 323.785283 278.932474 
L 324.330726 180.718822 
L 324.603447 256.539196 
L 324.876169 242.649808 
L 325.14889 131.102525 
L 325.421611 246.211666 
L 325.694333 259.638532 
L 325.967054 194.244518 
L 326.239776 225.988707 
L 326.512497 289.907511 
L 326.785219 210.417755 
L 327.05794 220.324631 
L 327.330661 310.159332 
L 327.603383 228.320904 
L 327.876104 207.338389 
L 328.148826 274.305413 
L 328.421547 231.909955 
L 328.694269 168.395033 
L 328.96699 253.754435 
L 329.239712 249.134529 
L 329.512433 152.748149 
L 329.785154 239.468146 
L 330.057876 265.412688 
L 330.330597 198.365779 
L 330.603319 233.648931 
L 330.87604 301.216886 
L 331.148762 222.98118 
L 331.421483 215.668092 
L 331.694204 295.209547 
L 331.966926 228.051505 
L 332.239647 199.837155 
L 332.512369 267.013205 
L 332.78509 244.007029 
L 333.057812 148.843687 
L 333.330533 248.890454 
L 333.603254 258.555367 
L 333.875976 170.14863 
L 334.148697 243.291139 
L 334.421419 273.440209 
L 334.69414 204.781869 
L 334.966862 226.94283 
L 335.239583 315.234471 
L 335.512305 221.586205 
L 335.785026 215.012126 
L 336.057747 287.02641 
L 336.60319 194.117091 
L 336.875912 267.341276 
L 337.148633 245.18676 
L 337.421355 129.921151 
L 337.694076 249.972225 
L 337.966797 259.555162 
L 338.239519 186.460428 
L 338.784962 281.008872 
L 339.057683 214.080864 
L 339.330405 229.879045 
L 339.603126 318.195418 
L 339.875847 230.762121 
L 340.148569 212.72874 
L 340.42129 282.057033 
L 340.966733 181.643809 
L 341.239455 256.869698 
L 341.512176 254.424485 
L 341.784897 142.908701 
L 342.057619 241.83396 
L 342.33034 263.406572 
L 342.603062 196.231189 
L 342.875783 236.101276 
L 343.148505 296.372412 
L 343.421226 219.837234 
L 343.693948 220.780489 
L 343.966669 312.508826 
L 344.23939 227.114689 
L 344.512112 206.894907 
L 344.784833 277.326811 
L 345.057555 246.894314 
L 345.330276 168.931495 
L 345.602998 254.280379 
L 345.875719 256.442133 
L 346.14844 165.765326 
L 346.421162 247.703255 
L 346.693883 274.510741 
L 346.966605 203.765504 
L 347.239326 229.129151 
L 347.512048 311.852898 
L 347.784769 220.308846 
L 348.05749 219.166737 
L 348.330212 298.030476 
L 348.875655 198.699765 
L 349.148376 268.157512 
L 349.421098 243.249512 
L 349.693819 148.172172 
L 349.966541 259.824876 
L 350.239262 257.558922 
L 350.511983 181.376588 
L 351.057426 282.773739 
L 351.330148 214.570324 
L 351.602869 234.662517 
L 351.875591 321.419895 
L 352.148312 234.301725 
L 352.421033 222.023766 
L 352.693755 286.02105 
L 353.239198 191.311051 
L 353.511919 264.228174 
L 353.784641 253.87116 
L 354.057362 133.623129 
L 354.330083 249.734729 
L 354.602805 269.908229 
L 354.875526 196.45652 
L 355.420969 290.726876 
L 355.693691 223.238669 
L 355.966412 229.005351 
L 356.239134 321.867845 
L 356.511855 232.686753 
L 356.784576 211.671761 
L 357.057298 280.827435 
L 357.330019 250.458152 
L 357.602741 178.50098 
L 357.875462 263.83007 
L 358.148184 257.960724 
L 358.420905 155.097697 
L 358.693626 251.756146 
L 358.966348 275.048778 
L 359.239069 206.540776 
L 359.511791 236.468082 
L 359.784512 302.917015 
L 360.057234 222.247782 
L 360.329955 230.197503 
L 360.602676 311.394073 
L 360.875398 242.292771 
L 361.148119 207.066908 
L 361.420841 274.755652 
L 361.693562 248.535471 
L 361.966284 163.81211 
L 362.239005 260.47969 
L 362.511726 262.192977 
L 362.784448 178.187043 
L 363.329891 284.808185 
L 363.602612 218.043251 
L 363.875334 239.251225 
L 364.148055 321.055898 
L 364.420777 231.787623 
L 364.693498 222.42803 
L 364.966219 301.449941 
L 365.238941 237.885381 
L 365.511662 205.781879 
L 365.784384 271.639329 
L 366.057105 258.153888 
L 366.329827 143.51767 
L 366.602548 255.226478 
L 366.875269 269.308621 
L 367.147991 193.702759 
L 367.693434 291.788428 
L 367.966155 216.575154 
L 368.238877 229.730473 
L 368.511598 327.506288 
L 368.784319 231.132682 
L 369.057041 218.38895 
L 369.329762 291.274599 
L 369.875205 196.018716 
L 370.147927 271.439085 
L 370.420648 254.047938 
L 370.69337 145.771821 
L 370.966091 260.946008 
L 371.238812 274.781725 
L 371.511534 207.867103 
L 371.784255 242.271263 
L 372.056977 302.896195 
L 372.329698 227.057491 
L 372.60242 235.741011 
L 372.875141 324.362092 
L 373.147862 244.15185 
L 373.420584 221.321943 
L 373.693305 287.50075 
L 373.966027 247.6065 
L 374.238748 180.282589 
L 374.51147 266.104716 
L 374.784191 265.514403 
L 375.056912 169.12731 
L 375.329634 251.900623 
L 375.602355 277.132889 
L 375.875077 210.646297 
L 376.147798 247.727599 
L 376.42052 315.970545 
L 376.693241 234.813377 
L 376.965963 228.768118 
L 377.238684 309.248881 
L 377.511405 244.110425 
L 377.784127 210.197118 
L 378.056848 281.365784 
L 378.32957 258.812571 
L 378.602291 158.879802 
L 378.875013 263.316552 
L 379.147734 270.321295 
L 379.420455 187.063757 
L 379.693177 253.929897 
L 379.965898 288.965669 
L 380.23862 220.884127 
L 380.511341 240.12006 
L 380.784063 329.016156 
L 381.056784 236.520471 
L 381.329505 230.628175 
L 381.602227 297.980127 
L 382.14767 203.071139 
L 382.420391 275.615904 
L 382.693113 260.735757 
L 382.965834 141.500242 
L 383.238556 259.764417 
L 383.511277 272.19455 
L 383.783998 199.654566 
L 384.329441 297.980171 
L 384.602163 230.589143 
L 384.874884 239.609778 
L 385.147606 331.836477 
L 385.420327 240.509938 
L 385.693048 221.032914 
L 385.96577 289.344985 
L 386.238491 254.938744 
L 386.511213 190.156451 
L 386.783934 267.975297 
L 387.056656 268.370412 
L 387.329377 161.683241 
L 387.602098 258.952864 
L 387.87482 284.031071 
L 388.147541 214.408474 
L 388.420263 245.641053 
L 388.692984 310.319836 
L 388.965706 228.625013 
L 389.238427 233.578301 
L 389.511148 322.38309 
L 389.511148 322.38309 
" clip-path="url(#p4a6c52960e)" style="fill: none; stroke: #1f77b4; stroke-width: 3; stroke-linecap: square"/>
   </g>
   <g id="patch_3">
    <path d="M 103.44 345.2325 
L 103.44 50.52 
" style="fill: none; stroke: #000000; stroke-width: 2; stroke-linejoin: miter; stroke-linecap: square"/>
   </g>
   <g id="patch_4">
    <path d="M 403.133584 345.2325 
L 403.133584 50.52 
" style="fill: none; stroke: #000000; stroke-width: 2; stroke-linejoin: miter; stroke-linecap: square"/>
   </g>
   <g id="patch_5">
    <path d="M 103.44 345.2325 
L 403.133584 345.2325 
" style="fill: none; stroke: #000000; stroke-width: 2; stroke-linejoin: miter; stroke-linecap: square"/>
   </g>
   <g id="patch_6">
    <path d="M 103.44 50.52 
L 403.133584 50.52 
" style="fill: none; stroke: #000000; stroke-width: 2; stroke-linejoin: miter; stroke-linecap: square"/>
   </g>
  </g>
  <g id="axes_2">
   <g id="patch_7">
    <path d="M 536.226416 345.2325 
L 835.92 345.2325 
L 835.92 50.52 
L 536.226416 50.52 
z
" style="fill: #ffffff"/>
   </g>
   <g id="matplotlib.axis_3">
    <g id="xtick_4">
     <g id="line2d_23">
      <path d="M 549.848852 345.2325 
L 549.848852 50.52 
" clip-path="url(#p75abe6fdb9)" style="fill: none; stroke-dasharray: 3.7,1.6; stroke-dashoffset: 0; stroke: #b0b0b0; stroke-opacity: 0.5"/>
     </g>
     <g id="line2d_24">
      <g>
       <use xlink:href="#m98f4b309ae" x="549.848852" y="345.2325" style="stroke: #000000; stroke-width: 2"/>
      </g>
     </g>
     <g id="line2d_25">
      <g>
       <use xlink:href="#mf19a2ee352" x="549.848852" y="50.52" style="stroke: #000000; stroke-width: 2"/>
      </g>
     </g>
     <g id="text_11">
      <!-- 0 -->
      <g transform="translate(541.577602 368.488437) scale(0.26 -0.26)">
       <use xlink:href="#DejaVuSerif-30"/>
      </g>
     </g>
    </g>
    <g id="xtick_5">
     <g id="line2d_26">
      <path d="M 658.828337 345.2325 
L 658.828337 50.52 
" clip-path="url(#p75abe6fdb9)" style="fill: none; stroke-dasharray: 3.7,1.6; stroke-dashoffset: 0; stroke: #b0b0b0; stroke-opacity: 0.5"/>
     </g>
     <g id="line2d_27">
      <g>
       <use xlink:href="#m98f4b309ae" x="658.828337" y="345.2325" style="stroke: #000000; stroke-width: 2"/>
      </g>
     </g>
     <g id="line2d_28">
      <g>
       <use xlink:href="#mf19a2ee352" x="658.828337" y="50.52" style="stroke: #000000; stroke-width: 2"/>
      </g>
     </g>
     <g id="text_12">
      <!-- 10000 -->
      <g transform="translate(617.472087 368.488437) scale(0.26 -0.26)">
       <use xlink:href="#DejaVuSerif-31"/>
       <use xlink:href="#DejaVuSerif-30" x="63.623047"/>
       <use xlink:href="#DejaVuSerif-30" x="127.246094"/>
       <use xlink:href="#DejaVuSerif-30" x="190.869141"/>
       <use xlink:href="#DejaVuSerif-30" x="254.492188"/>
      </g>
     </g>
    </g>
    <g id="xtick_6">
     <g id="line2d_29">
      <path d="M 767.807822 345.2325 
L 767.807822 50.52 
" clip-path="url(#p75abe6fdb9)" style="fill: none; stroke-dasharray: 3.7,1.6; stroke-dashoffset: 0; stroke: #b0b0b0; stroke-opacity: 0.5"/>
     </g>
     <g id="line2d_30">
      <g>
       <use xlink:href="#m98f4b309ae" x="767.807822" y="345.2325" style="stroke: #000000; stroke-width: 2"/>
      </g>
     </g>
     <g id="line2d_31">
      <g>
       <use xlink:href="#mf19a2ee352" x="767.807822" y="50.52" style="stroke: #000000; stroke-width: 2"/>
      </g>
     </g>
     <g id="text_13">
      <!-- 20000 -->
      <g transform="translate(726.451572 368.488437) scale(0.26 -0.26)">
       <use xlink:href="#DejaVuSerif-32"/>
       <use xlink:href="#DejaVuSerif-30" x="63.623047"/>
       <use xlink:href="#DejaVuSerif-30" x="127.246094"/>
       <use xlink:href="#DejaVuSerif-30" x="190.869141"/>
       <use xlink:href="#DejaVuSerif-30" x="254.492188"/>
      </g>
     </g>
    </g>
    <g id="text_14">
     <!-- $t$ (a.u.) -->
     <g transform="translate(642.653208 397.651563) scale(0.26 -0.26)">
      <use xlink:href="#Cmmi10-74" transform="translate(0 0.015625)"/>
      <use xlink:href="#DejaVuSerif-20" transform="translate(36.083984 0.015625)"/>
      <use xlink:href="#DejaVuSerif-28" transform="translate(67.871094 0.015625)"/>
      <use xlink:href="#DejaVuSerif-61" transform="translate(106.884766 0.015625)"/>
      <use xlink:href="#DejaVuSerif-2e" transform="translate(166.503906 0.015625)"/>
      <use xlink:href="#DejaVuSerif-75" transform="translate(198.291016 0.015625)"/>
      <use xlink:href="#DejaVuSerif-2e" transform="translate(262.695312 0.015625)"/>
      <use xlink:href="#DejaVuSerif-29" transform="translate(294.482422 0.015625)"/>
     </g>
    </g>
   </g>
   <g id="matplotlib.axis_4">
    <g id="ytick_5">
     <g id="line2d_32">
      <path d="M 536.226416 331.836477 
L 835.92 331.836477 
" clip-path="url(#p75abe6fdb9)" style="fill: none; stroke-dasharray: 3.7,1.6; stroke-dashoffset: 0; stroke: #b0b0b0; stroke-opacity: 0.5"/>
     </g>
     <g id="line2d_33">
      <g>
       <use xlink:href="#mf53d024491" x="536.226416" y="331.836477" style="stroke: #000000; stroke-width: 2"/>
      </g>
     </g>
     <g id="line2d_34">
      <g>
       <use xlink:href="#m43a09007ce" x="835.92" y="331.836477" style="stroke: #000000; stroke-width: 2"/>
      </g>
     </g>
     <g id="text_15">
      <!-- $\mathdefault{0}$ -->
      <g transform="translate(516.086416 341.714446) scale(0.26 -0.26)">
       <use xlink:href="#DejaVuSerif-30" transform="translate(0 0.78125)"/>
      </g>
     </g>
    </g>
    <g id="ytick_6">
     <g id="line2d_35">
      <path d="M 536.226416 285.270442 
L 835.92 285.270442 
" clip-path="url(#p75abe6fdb9)" style="fill: none; stroke-dasharray: 3.7,1.6; stroke-dashoffset: 0; stroke: #b0b0b0; stroke-opacity: 0.5"/>
     </g>
     <g id="line2d_36">
      <g>
       <use xlink:href="#mf53d024491" x="536.226416" y="285.270442" style="stroke: #000000; stroke-width: 2"/>
      </g>
     </g>
     <g id="line2d_37">
      <g>
       <use xlink:href="#m43a09007ce" x="835.92" y="285.270442" style="stroke: #000000; stroke-width: 2"/>
      </g>
     </g>
     <g id="text_16">
      <!-- $\mathdefault{10^{-10}}$ -->
      <g transform="translate(460.186416 295.148411) scale(0.26 -0.26)">
       <use xlink:href="#DejaVuSerif-31" transform="translate(0 0.7125)"/>
       <use xlink:href="#DejaVuSerif-30" transform="translate(63.623047 0.7125)"/>
       <use xlink:href="#DejaVuSerif-2212" transform="translate(128.154453 37.046875) scale(0.7)"/>
       <use xlink:href="#DejaVuSerif-31" transform="translate(186.806797 37.046875) scale(0.7)"/>
       <use xlink:href="#DejaVuSerif-30" transform="translate(231.34293 37.046875) scale(0.7)"/>
      </g>
     </g>
    </g>
    <g id="ytick_7">
     <g id="line2d_38">
      <path d="M 536.226416 243.36101 
L 835.92 243.36101 
" clip-path="url(#p75abe6fdb9)" style="fill: none; stroke-dasharray: 3.7,1.6; stroke-dashoffset: 0; stroke: #b0b0b0; stroke-opacity: 0.5"/>
     </g>
     <g id="line2d_39">
      <g>
       <use xlink:href="#mf53d024491" x="536.226416" y="243.36101" style="stroke: #000000; stroke-width: 2"/>
      </g>
     </g>
     <g id="line2d_40">
      <g>
       <use xlink:href="#m43a09007ce" x="835.92" y="243.36101" style="stroke: #000000; stroke-width: 2"/>
      </g>
     </g>
     <g id="text_17">
      <!-- $\mathdefault{10^{-9}}$ -->
      <g transform="translate(471.886416 253.238979) scale(0.26 -0.26)">
       <use xlink:href="#DejaVuSerif-31" transform="translate(0 0.7125)"/>
       <use xlink:href="#DejaVuSerif-30" transform="translate(63.623047 0.7125)"/>
       <use xlink:href="#DejaVuSerif-2212" transform="translate(128.154453 37.046875) scale(0.7)"/>
       <use xlink:href="#DejaVuSerif-39" transform="translate(186.806797 37.046875) scale(0.7)"/>
      </g>
     </g>
    </g>
    <g id="ytick_8">
     <g id="line2d_41">
      <path d="M 536.226416 201.451578 
L 835.92 201.451578 
" clip-path="url(#p75abe6fdb9)" style="fill: none; stroke-dasharray: 3.7,1.6; stroke-dashoffset: 0; stroke: #b0b0b0; stroke-opacity: 0.5"/>
     </g>
     <g id="line2d_42">
      <g>
       <use xlink:href="#mf53d024491" x="536.226416" y="201.451578" style="stroke: #000000; stroke-width: 2"/>
      </g>
     </g>
     <g id="line2d_43">
      <g>
       <use xlink:href="#m43a09007ce" x="835.92" y="201.451578" style="stroke: #000000; stroke-width: 2"/>
      </g>
     </g>
     <g id="text_18">
      <!-- $\mathdefault{10^{-8}}$ -->
      <g transform="translate(471.886416 211.329547) scale(0.26 -0.26)">
       <use xlink:href="#DejaVuSerif-31" transform="translate(0 0.7125)"/>
       <use xlink:href="#DejaVuSerif-30" transform="translate(63.623047 0.7125)"/>
       <use xlink:href="#DejaVuSerif-2212" transform="translate(128.154453 37.046875) scale(0.7)"/>
       <use xlink:href="#DejaVuSerif-38" transform="translate(186.806797 37.046875) scale(0.7)"/>
      </g>
     </g>
    </g>
    <g id="ytick_9">
     <g id="line2d_44">
      <path d="M 536.226416 159.542147 
L 835.92 159.542147 
" clip-path="url(#p75abe6fdb9)" style="fill: none; stroke-dasharray: 3.7,1.6; stroke-dashoffset: 0; stroke: #b0b0b0; stroke-opacity: 0.5"/>
     </g>
     <g id="line2d_45">
      <g>
       <use xlink:href="#mf53d024491" x="536.226416" y="159.542147" style="stroke: #000000; stroke-width: 2"/>
      </g>
     </g>
     <g id="line2d_46">
      <g>
       <use xlink:href="#m43a09007ce" x="835.92" y="159.542147" style="stroke: #000000; stroke-width: 2"/>
      </g>
     </g>
     <g id="text_19">
      <!-- $\mathdefault{10^{-7}}$ -->
      <g transform="translate(471.886416 169.420115) scale(0.26 -0.26)">
       <use xlink:href="#DejaVuSerif-31" transform="translate(0 0.63125)"/>
       <use xlink:href="#DejaVuSerif-30" transform="translate(63.623047 0.63125)"/>
       <use xlink:href="#DejaVuSerif-2212" transform="translate(128.154453 36.965625) scale(0.7)"/>
       <use xlink:href="#DejaVuSerif-37" transform="translate(186.806797 36.965625) scale(0.7)"/>
      </g>
     </g>
    </g>
    <g id="ytick_10">
     <g id="line2d_47">
      <path d="M 536.226416 117.632715 
L 835.92 117.632715 
" clip-path="url(#p75abe6fdb9)" style="fill: none; stroke-dasharray: 3.7,1.6; stroke-dashoffset: 0; stroke: #b0b0b0; stroke-opacity: 0.5"/>
     </g>
     <g id="line2d_48">
      <g>
       <use xlink:href="#mf53d024491" x="536.226416" y="117.632715" style="stroke: #000000; stroke-width: 2"/>
      </g>
     </g>
     <g id="line2d_49">
      <g>
       <use xlink:href="#m43a09007ce" x="835.92" y="117.632715" style="stroke: #000000; stroke-width: 2"/>
      </g>
     </g>
     <g id="text_20">
      <!-- $\mathdefault{10^{-6}}$ -->
      <g transform="translate(471.886416 127.510684) scale(0.26 -0.26)">
       <use xlink:href="#DejaVuSerif-31" transform="translate(0 0.7125)"/>
       <use xlink:href="#DejaVuSerif-30" transform="translate(63.623047 0.7125)"/>
       <use xlink:href="#DejaVuSerif-2212" transform="translate(128.154453 37.046875) scale(0.7)"/>
       <use xlink:href="#DejaVuSerif-36" transform="translate(186.806797 37.046875) scale(0.7)"/>
      </g>
     </g>
    </g>
    <g id="ytick_11">
     <g id="line2d_50">
      <path d="M 536.226416 75.723283 
L 835.92 75.723283 
" clip-path="url(#p75abe6fdb9)" style="fill: none; stroke-dasharray: 3.7,1.6; stroke-dashoffset: 0; stroke: #b0b0b0; stroke-opacity: 0.5"/>
     </g>
     <g id="line2d_51">
      <g>
       <use xlink:href="#mf53d024491" x="536.226416" y="75.723283" style="stroke: #000000; stroke-width: 2"/>
      </g>
     </g>
     <g id="line2d_52">
      <g>
       <use xlink:href="#m43a09007ce" x="835.92" y="75.723283" style="stroke: #000000; stroke-width: 2"/>
      </g>
     </g>
     <g id="text_21">
      <!-- $\mathdefault{10^{-5}}$ -->
      <g transform="translate(471.886416 85.601252) scale(0.26 -0.26)">
       <use xlink:href="#DejaVuSerif-31" transform="translate(0 0.63125)"/>
       <use xlink:href="#DejaVuSerif-30" transform="translate(63.623047 0.63125)"/>
       <use xlink:href="#DejaVuSerif-2212" transform="translate(128.154453 36.965625) scale(0.7)"/>
       <use xlink:href="#DejaVuSerif-35" transform="translate(186.806797 36.965625) scale(0.7)"/>
      </g>
     </g>
    </g>
    <g id="text_22">
     <!-- |E(t) - E(0)| / |E(0)| -->
     <g transform="translate(450.056103 321.362031) rotate(-90) scale(0.26 -0.26)">
      <defs>
       <path id="DejaVuSerif-7c" d="M 1331 4891 
L 1331 -1509 
L 825 -1509 
L 825 4891 
L 1331 4891 
z
" transform="scale(0.015625)"/>
       <path id="DejaVuSerif-45" d="M 353 0 
L 353 331 
L 947 331 
L 947 4331 
L 353 4331 
L 353 4666 
L 4109 4666 
L 4109 3628 
L 3725 3628 
L 3725 4281 
L 1581 4281 
L 1581 2719 
L 3109 2719 
L 3109 3303 
L 3494 3303 
L 3494 1753 
L 3109 1753 
L 3109 2338 
L 1581 2338 
L 1581 384 
L 3775 384 
L 3775 1038 
L 4159 1038 
L 4159 0 
L 353 0 
z
" transform="scale(0.015625)"/>
       <path id="DejaVuSerif-74" d="M 691 2988 
L 184 2988 
L 184 3322 
L 691 3322 
L 691 4353 
L 1269 4353 
L 1269 3322 
L 2350 3322 
L 2350 2988 
L 1269 2988 
L 1269 878 
Q 1269 456 1350 337 
Q 1431 219 1650 219 
Q 1875 219 1978 351 
Q 2081 484 2088 781 
L 2522 781 
Q 2497 328 2275 118 
Q 2053 -91 1600 -91 
Q 1103 -91 897 129 
Q 691 350 691 878 
L 691 2988 
z
" transform="scale(0.015625)"/>
       <path id="DejaVuSerif-2d" d="M 281 1959 
L 1881 1959 
L 1881 1472 
L 281 1472 
L 281 1959 
z
" transform="scale(0.015625)"/>
       <path id="DejaVuSerif-2f" d="M 1656 4666 
L 2156 4666 
L 500 -594 
L 0 -594 
L 1656 4666 
z
" transform="scale(0.015625)"/>
      </defs>
      <use xlink:href="#DejaVuSerif-7c"/>
      <use xlink:href="#DejaVuSerif-45" x="33.691406"/>
      <use xlink:href="#DejaVuSerif-28" x="106.689453"/>
      <use xlink:href="#DejaVuSerif-74" x="145.703125"/>
      <use xlink:href="#DejaVuSerif-29" x="185.888672"/>
      <use xlink:href="#DejaVuSerif-20" x="224.902344"/>
      <use xlink:href="#DejaVuSerif-2d" x="256.689453"/>
      <use xlink:href="#DejaVuSerif-20" x="290.478516"/>
      <use xlink:href="#DejaVuSerif-45" x="322.265625"/>
      <use xlink:href="#DejaVuSerif-28" x="395.263672"/>
      <use xlink:href="#DejaVuSerif-30" x="434.277344"/>
      <use xlink:href="#DejaVuSerif-29" x="497.900391"/>
      <use xlink:href="#DejaVuSerif-7c" x="536.914062"/>
      <use xlink:href="#DejaVuSerif-20" x="570.605469"/>
      <use xlink:href="#DejaVuSerif-2f" x="602.392578"/>
      <use xlink:href="#DejaVuSerif-20" x="636.083984"/>
      <use xlink:href="#DejaVuSerif-7c" x="667.871094"/>
      <use xlink:href="#DejaVuSerif-45" x="701.5625"/>
      <use xlink:href="#DejaVuSerif-28" x="774.560547"/>
      <use xlink:href="#DejaVuSerif-30" x="813.574219"/>
      <use xlink:href="#DejaVuSerif-29" x="877.197266"/>
      <use xlink:href="#DejaVuSerif-7c" x="916.210938"/>
     </g>
    </g>
   </g>
   <g id="line2d_53">
    <path d="M 549.848852 331.836477 
L 550.121573 85.932765 
L 550.667016 123.076965 
L 550.939737 76.49238 
L 551.212459 153.40697 
L 551.48518 105.359526 
L 551.757902 87.197649 
L 552.030623 151.372248 
L 552.303344 86.628574 
L 552.848787 107.757429 
L 553.121509 74.985957 
L 553.39423 111.266852 
L 553.666952 95.635561 
L 553.939673 90.667952 
L 554.212394 151.843605 
L 554.485116 81.908619 
L 555.030559 143.749903 
L 555.30328 77.054746 
L 555.576002 131.826069 
L 555.848723 99.415433 
L 556.121444 89.188176 
L 556.394166 120.889662 
L 556.666887 83.007057 
L 556.939609 99.210522 
L 557.21233 102.641369 
L 557.485052 77.775535 
L 557.757773 115.133317 
L 558.030495 90.835188 
L 558.303216 99.532395 
L 558.575937 133.660766 
L 558.848659 80.616864 
L 559.12138 109.760255 
L 559.394102 118.070031 
L 559.666823 79.205254 
L 559.939545 138.852847 
L 560.212266 97.263198 
L 560.484987 91.018122 
L 560.757709 123.586071 
L 561.03043 79.381393 
L 561.303152 95.946742 
L 561.575873 104.379575 
L 561.848595 83.791575 
L 562.121316 109.432981 
L 562.394037 88.169203 
L 562.666759 99.450994 
L 562.93948 168.861834 
L 563.212202 77.280323 
L 563.484923 122.26428 
L 563.757645 122.210141 
L 564.030366 80.460614 
L 564.303088 113.067762 
L 564.575809 91.420241 
L 564.84853 92.623149 
L 565.121252 112.305635 
L 565.393973 76.315357 
L 565.666695 98.051614 
L 565.939416 96.622489 
L 566.212138 85.831505 
L 566.484859 114.736968 
L 566.75758 86.69353 
L 567.030302 104.224088 
L 567.303023 151.161061 
L 567.575745 75.860427 
L 567.848466 121.944864 
L 568.121188 112.852386 
L 568.393909 83.155651 
L 568.66663 109.951001 
L 568.939352 93.118565 
L 569.212073 91.15465 
L 569.484795 104.489234 
L 569.757516 74.066117 
L 570.030238 98.852881 
L 570.302959 95.457913 
L 570.575681 88.842012 
L 570.848402 116.904461 
L 571.121123 83.848086 
L 571.666566 127.974825 
L 571.939288 75.043264 
L 572.212009 141.69837 
L 572.757452 83.980233 
L 573.030173 109.89766 
L 573.302895 91.526376 
L 573.575616 91.011799 
L 573.848338 104.792635 
L 574.121059 75.391675 
L 574.393781 97.218883 
L 574.666502 88.892298 
L 574.939223 97.870024 
L 575.211945 113.694815 
L 575.484666 81.234633 
L 576.030109 152.152467 
L 576.302831 75.173083 
L 576.575552 130.604491 
L 576.848274 102.853259 
L 577.120995 86.594072 
L 577.393716 101.467441 
L 577.666438 84.884529 
L 578.211881 97.090654 
L 578.484602 78.994649 
L 578.757324 101.495168 
L 579.030045 87.989575 
L 579.302766 99.996196 
L 579.575488 124.774444 
L 579.848209 79.860821 
L 580.120931 113.578209 
L 580.393652 126.42077 
L 580.666374 76.628819 
L 580.939095 126.297393 
L 581.211816 100.207266 
L 581.484538 86.966536 
L 581.757259 101.131537 
L 582.029981 83.046892 
L 582.302702 94.337299 
L 582.575424 96.127874 
L 582.848145 83.928238 
L 583.120866 98.718488 
L 583.393588 86.317558 
L 583.666309 101.037488 
L 583.939031 132.882161 
L 584.211752 76.242216 
L 584.484474 131.046614 
L 584.757195 122.465697 
L 585.029917 79.153812 
L 585.302638 112.336381 
L 585.848081 87.611411 
L 586.120802 100.164058 
L 586.393524 79.240841 
L 586.666245 94.268716 
L 586.938967 91.542408 
L 587.211688 86.53703 
L 587.484409 98.864962 
L 587.757131 84.722112 
L 588.302574 122.536556 
L 588.575295 74.469987 
L 588.848017 160.762352 
L 589.393459 80.506352 
L 589.666181 102.924643 
L 589.938902 101.340189 
L 590.211624 86.363546 
L 590.484345 95.464215 
L 590.757067 76.05939 
L 591.029788 97.075829 
L 591.30251 89.308409 
L 591.575231 93.852689 
L 591.847952 103.385247 
L 592.120674 82.096788 
L 592.666117 155.405175 
L 592.938838 73.785855 
L 593.21156 187.461953 
L 593.484281 110.901569 
L 593.757002 81.608241 
L 594.029724 101.679378 
L 594.302445 93.503203 
L 594.575167 89.449874 
L 594.847888 95.576237 
L 595.12061 76.269068 
L 595.393331 94.684759 
L 595.666052 86.25627 
L 595.938774 102.722795 
L 596.211495 101.843097 
L 596.484217 79.660115 
L 596.756938 126.283292 
L 597.02966 151.776001 
L 597.302381 74.027745 
L 597.575103 117.357617 
L 597.847824 114.635123 
L 598.120545 83.372545 
L 598.393267 98.076691 
L 598.665988 88.544707 
L 598.93871 88.981637 
L 599.211431 93.167121 
L 599.484153 80.051491 
L 599.756874 95.273606 
L 600.029595 85.368023 
L 600.302317 103.011937 
L 600.575038 104.355085 
L 600.84776 77.508069 
L 601.120481 165.38862 
L 601.393203 132.967402 
L 601.665924 75.210388 
L 601.938645 110.364186 
L 602.211367 105.362411 
L 602.484088 84.843979 
L 602.75681 93.858414 
L 603.029531 86.482947 
L 603.302253 91.887332 
L 603.574974 90.05523 
L 603.847695 85.826286 
L 604.120417 96.607739 
L 604.393138 83.697173 
L 604.66586 111.67812 
L 604.938581 112.973383 
L 605.211303 74.60188 
L 605.484024 178.676655 
L 605.756746 148.903567 
L 606.029467 77.723606 
L 606.302188 105.914236 
L 606.57491 108.950131 
L 606.847631 84.249026 
L 607.120353 95.002481 
L 607.393074 81.22006 
L 607.665796 90.523554 
L 607.938517 89.557314 
L 608.211238 89.823815 
L 608.48396 93.849258 
L 608.756681 83.474976 
L 609.029403 113.388162 
L 609.302124 114.150661 
L 609.574846 72.820381 
L 610.120288 156.438003 
L 610.39301 78.464914 
L 610.665731 98.352804 
L 610.938453 104.761491 
L 611.211174 84.518851 
L 611.483896 93.63037 
L 611.756617 77.517068 
L 612.029339 91.243501 
L 612.30206 85.669866 
L 612.574781 100.09186 
L 612.847503 96.28922 
L 613.120224 79.808414 
L 613.392946 154.002311 
L 613.938389 72.295245 
L 614.483831 138.582762 
L 614.756553 79.001438 
L 615.029274 93.654023 
L 615.301996 98.651609 
L 615.574717 85.620846 
L 615.847439 90.853539 
L 616.12016 78.11254 
L 616.392881 92.03569 
L 616.665603 85.029319 
L 616.938324 107.418254 
L 617.211046 101.076099 
L 617.483767 77.135255 
L 617.756489 150.034286 
L 618.02921 118.003282 
L 618.301932 72.710023 
L 618.574653 108.411723 
L 618.847374 125.986192 
L 619.120096 81.929545 
L 619.392817 94.820703 
L 619.665539 92.384165 
L 619.93826 86.389582 
L 620.210982 91.620726 
L 620.483703 82.1184 
L 620.756424 89.778462 
L 621.029146 81.770784 
L 621.301867 121.180695 
L 621.574589 102.504236 
L 621.84731 75.649012 
L 622.120032 121.780257 
L 622.392753 113.104971 
L 622.665474 74.109775 
L 623.210917 118.066533 
L 623.483639 83.441595 
L 623.75636 93.935634 
L 624.029082 87.742277 
L 624.301803 86.11794 
L 624.847246 90.649006 
L 625.119967 91.822783 
L 625.392689 81.403917 
L 625.66541 136.092325 
L 626.210853 73.00925 
L 626.483575 113.479349 
L 626.756296 109.627376 
L 627.029017 75.790168 
L 627.57446 110.993638 
L 627.847182 82.800273 
L 628.119903 91.626246 
L 628.392625 81.954084 
L 628.665346 88.020219 
L 628.938067 87.058682 
L 629.210789 96.431602 
L 629.48351 95.231839 
L 629.756232 80.505691 
L 630.028953 148.483575 
L 630.574396 71.541672 
L 630.847117 107.80282 
L 631.119839 118.413736 
L 631.39256 77.416412 
L 631.938003 106.047063 
L 632.210725 84.224237 
L 632.483446 92.078336 
L 632.756168 78.291665 
L 633.028889 86.72922 
L 633.30161 85.787417 
L 633.574332 102.615257 
L 633.847053 96.310439 
L 634.119775 77.83722 
L 634.392496 123.855202 
L 634.937939 71.148691 
L 635.21066 98.314173 
L 635.483382 113.626081 
L 635.756103 78.048634 
L 636.301546 105.241589 
L 636.574268 83.491505 
L 636.846989 89.618182 
L 637.11971 81.301561 
L 637.392432 88.726771 
L 637.665153 83.107405 
L 637.937875 116.571512 
L 638.483318 75.28512 
L 638.756039 107.521265 
L 639.028761 98.167383 
L 639.301482 71.6292 
L 639.574203 94.083931 
L 639.846925 129.634844 
L 640.119646 79.800408 
L 640.392368 92.077689 
L 640.665089 94.764719 
L 640.937811 85.365218 
L 641.483253 86.577957 
L 641.755975 92.152267 
L 642.028696 81.377136 
L 642.301418 136.499015 
L 642.574139 95.979832 
L 642.846861 73.919531 
L 643.119582 104.432411 
L 643.392303 103.63109 
L 643.665025 73.620227 
L 643.937746 96.053267 
L 644.210468 136.620007 
L 644.483189 80.478401 
L 644.755911 90.854615 
L 645.028632 86.55868 
L 645.301354 86.129029 
L 645.574075 84.967139 
L 645.846796 97.008785 
L 646.119518 92.107968 
L 646.392239 79.092284 
L 646.664961 123.72147 
L 647.210404 71.503022 
L 647.483125 98.122115 
L 647.755846 107.329055 
L 648.028568 74.442606 
L 648.574011 123.018812 
L 648.846732 82.910255 
L 649.119454 88.174483 
L 649.392175 82.005525 
L 649.664896 86.660996 
L 649.937618 82.478555 
L 650.210339 107.404606 
L 650.755782 76.582631 
L 651.028504 107.767946 
L 651.301225 94.643703 
L 651.573946 70.405628 
L 651.846668 95.605076 
L 652.119389 109.162114 
L 652.392111 76.996318 
L 652.664832 91.648697 
L 652.937554 112.696431 
L 653.210275 82.509244 
L 653.482997 84.58196 
L 653.755718 80.130547 
L 654.028439 89.339555 
L 654.301161 81.260586 
L 654.573882 118.919681 
L 654.846604 90.234282 
L 655.119325 75.854817 
L 655.392047 105.015583 
L 655.664768 99.197401 
L 655.937489 70.339098 
L 656.482932 123.957823 
L 656.755654 78.769876 
L 657.301097 100.468202 
L 657.573818 84.406989 
L 657.846539 83.79288 
L 658.391982 87.704581 
L 658.664704 79.790908 
L 658.937425 157.99235 
L 659.210147 91.892419 
L 659.482868 74.168835 
L 659.75559 104.788479 
L 660.028311 104.963782 
L 660.301032 71.324109 
L 660.846475 122.203161 
L 661.119197 78.441729 
L 661.66464 94.318782 
L 661.937361 83.093127 
L 662.210082 84.243693 
L 662.482804 95.609325 
L 663.028247 79.038251 
L 663.300968 135.160639 
L 663.57369 93.82001 
L 663.846411 71.468739 
L 664.119132 99.361905 
L 664.391854 100.849165 
L 664.664575 73.328262 
L 664.937297 89.691326 
L 665.210018 166.647435 
L 665.48274 79.572767 
L 665.755461 86.803198 
L 666.028183 86.220243 
L 666.300904 83.162329 
L 666.573625 82.121724 
L 666.846347 103.334194 
L 667.39179 77.141932 
L 667.664511 109.097249 
L 667.937233 93.727881 
L 668.209954 70.051012 
L 668.482675 96.792618 
L 668.755397 100.106879 
L 669.028118 75.149296 
L 669.30084 87.091855 
L 669.573561 157.343168 
L 669.846283 79.627592 
L 670.119004 85.33712 
L 670.391725 81.597365 
L 670.664447 84.015698 
L 670.937168 81.973524 
L 671.20989 116.811135 
L 671.755333 75.789556 
L 672.028054 104.475016 
L 672.300776 93.350522 
L 672.573497 69.491143 
L 672.846218 92.754735 
L 673.11894 103.789871 
L 673.391661 75.872496 
L 673.664383 89.096433 
L 673.937104 119.163312 
L 674.209826 81.25588 
L 674.482547 84.481287 
L 674.755268 85.607605 
L 675.02799 84.465619 
L 675.300711 79.712611 
L 675.573433 126.620665 
L 675.846154 89.902883 
L 676.118876 73.268768 
L 676.391597 97.448586 
L 676.664318 93.830398 
L 676.93704 69.912941 
L 677.482483 102.237396 
L 677.755204 76.130239 
L 678.300647 101.512403 
L 678.573368 81.409259 
L 678.84609 82.028217 
L 679.118811 93.420565 
L 679.664254 78.812917 
L 679.936976 116.380051 
L 680.209697 87.01809 
L 680.482419 71.541285 
L 680.75514 92.053025 
L 681.027861 95.2809 
L 681.300583 72.090786 
L 681.846026 112.561312 
L 682.118747 77.721509 
L 682.66419 90.944214 
L 682.936911 83.575952 
L 683.209633 79.342816 
L 683.482354 105.114128 
L 683.755076 86.305532 
L 684.027797 76.095022 
L 684.300519 103.187807 
L 684.57324 89.661876 
L 684.845961 69.417062 
L 685.118683 93.764596 
L 685.391404 100.120376 
L 685.664126 73.100886 
L 685.936847 87.955052 
L 686.209569 114.54137 
L 686.48229 77.980551 
L 687.027733 84.62136 
L 687.300454 83.294429 
L 687.573176 79.355263 
L 687.845897 141.917584 
L 688.118619 85.538954 
L 688.39134 74.557907 
L 688.664062 103.489796 
L 688.936783 94.057286 
L 689.209504 68.718175 
L 689.482226 93.592549 
L 689.754947 102.316284 
L 690.027669 74.49433 
L 690.30039 85.383961 
L 690.573112 165.301463 
L 690.845833 78.913773 
L 691.118554 83.298119 
L 691.391276 85.302709 
L 691.936719 77.531513 
L 692.20944 110.89826 
L 692.754883 72.659489 
L 693.027605 97.308129 
L 693.300326 91.587846 
L 693.573047 68.963597 
L 694.11849 100.124371 
L 694.391212 75.400376 
L 694.663933 85.22824 
L 694.936655 108.605499 
L 695.209376 78.480616 
L 695.482097 81.935678 
L 695.754819 93.793755 
L 696.02754 82.797221 
L 696.300262 76.904874 
L 696.572983 105.988909 
L 697.118426 71.238978 
L 697.391147 91.639885 
L 697.663869 89.482282 
L 697.93659 70.715596 
L 698.209312 85.296331 
L 698.482033 106.398797 
L 698.754755 77.053542 
L 699.027476 83.527995 
L 699.300197 96.328907 
L 699.572919 80.712483 
L 699.84564 79.158755 
L 700.118362 109.991166 
L 700.391083 85.876614 
L 700.663805 74.685009 
L 700.936526 96.654435 
L 701.209248 86.277757 
L 701.481969 68.73814 
L 701.75469 89.687003 
L 702.027412 93.957552 
L 702.300133 71.844689 
L 702.845576 107.714979 
L 703.118298 77.470224 
L 703.391019 80.756526 
L 703.66374 88.090436 
L 704.209183 78.159156 
L 704.481905 138.172 
L 704.754626 84.095475 
L 705.027348 73.589962 
L 705.300069 96.869728 
L 705.57279 89.481478 
L 705.845512 67.992015 
L 706.118233 89.839072 
L 706.390955 98.109408 
L 706.663676 73.614588 
L 706.936398 84.626783 
L 707.209119 132.898528 
L 707.481841 78.110087 
L 707.754562 80.790287 
L 708.027283 86.230606 
L 708.572726 76.134508 
L 708.845448 106.630265 
L 709.118169 83.37282 
L 709.390891 72.112485 
L 709.663612 94.043561 
L 709.936333 90.238069 
L 710.209055 68.176386 
L 710.481776 87.026144 
L 710.754498 97.571391 
L 711.027219 74.467012 
L 711.299941 82.27468 
L 711.572662 118.976899 
L 711.845383 77.279819 
L 712.118105 80.553102 
L 712.390826 95.541288 
L 712.663548 80.611608 
L 712.936269 75.554076 
L 713.208991 101.8752 
L 713.754434 70.546457 
L 714.027155 90.761878 
L 714.299876 87.62189 
L 714.572598 69.650723 
L 714.845319 83.29023 
L 715.118041 102.52253 
L 715.390762 76.09717 
L 715.663484 82.128425 
L 715.936205 102.005177 
L 716.208926 78.768786 
L 716.481648 78.446772 
L 716.754369 117.170029 
L 717.027091 83.523708 
L 717.299812 73.652707 
L 717.572534 93.520099 
L 717.845255 84.732943 
L 718.117976 68.051384 
L 718.390698 87.591321 
L 718.663419 90.20296 
L 718.936141 70.932278 
L 719.481584 102.960064 
L 719.754305 76.379593 
L 720.027027 79.902618 
L 720.299748 91.196578 
L 720.572469 80.294115 
L 720.845191 77.188807 
L 721.117912 120.078972 
L 721.390634 82.896291 
L 721.663355 72.745427 
L 721.936077 93.142586 
L 722.208798 86.641031 
L 722.481519 67.279344 
L 722.754241 87.073379 
L 723.026962 94.25806 
L 723.299684 72.645959 
L 723.572405 83.351594 
L 723.845127 117.92732 
L 724.117848 77.099501 
L 724.390569 79.199149 
L 724.663291 88.074348 
L 724.936012 79.590329 
L 725.208734 75.15576 
L 725.481455 102.230652 
L 725.754177 81.627094 
L 726.026898 71.290443 
L 726.299619 91.290398 
L 726.572341 88.223095 
L 726.845062 67.480448 
L 727.117784 85.356178 
L 727.390505 94.280254 
L 727.663227 73.481292 
L 727.935948 80.857938 
L 728.20867 140.968395 
L 728.481391 76.180261 
L 728.754112 79.267747 
L 729.026834 98.77649 
L 729.299555 79.127413 
L 729.572277 74.452815 
L 729.844998 97.844549 
L 730.390441 69.6986 
L 730.663162 88.272225 
L 730.935884 85.687415 
L 731.208605 68.929408 
L 731.754048 98.16515 
L 732.02677 75.086753 
L 732.299491 80.767337 
L 732.572212 106.96486 
L 732.844934 77.542613 
L 733.117655 77.10262 
L 733.390377 133.216479 
L 733.663098 81.992418 
L 733.93582 72.779944 
L 734.208541 90.872583 
L 734.481263 82.709634 
L 734.753984 67.313866 
L 735.026705 85.345489 
L 735.299427 88.093285 
L 735.572148 70.171632 
L 736.117591 98.425104 
L 736.390313 75.149048 
L 736.663034 78.183163 
L 736.935755 93.339909 
L 737.208477 79.323077 
L 737.481198 75.788652 
L 737.75392 109.398657 
L 738.026641 81.172257 
L 738.299363 71.831083 
L 738.572084 90.795834 
L 738.844805 85.358203 
L 739.117527 66.595864 
L 739.390248 85.951587 
L 739.66297 92.228155 
L 739.935691 71.667628 
L 740.208413 81.063052 
L 740.481134 109.263412 
L 740.753856 75.815209 
L 741.026577 78.137773 
L 741.299298 90.828587 
L 741.57202 77.992539 
L 741.844741 74.267576 
L 742.117463 97.339602 
L 742.662906 70.214114 
L 742.935627 89.591935 
L 743.208348 86.000678 
L 743.48107 66.884479 
L 743.753791 83.177564 
L 744.026513 91.087117 
L 744.299234 72.508371 
L 744.571956 80.29123 
L 744.844677 140.697096 
L 745.117398 75.066668 
L 745.39012 78.170031 
L 745.662841 104.607328 
L 745.935563 78.199051 
L 746.208284 73.537778 
L 746.481006 93.894285 
L 747.026448 68.725185 
L 747.29917 84.990366 
L 747.571891 83.980738 
L 747.844613 68.504029 
L 748.390056 93.696254 
L 748.662777 73.959027 
L 748.935499 79.245082 
L 749.20822 110.135857 
L 749.480941 76.913459 
L 749.753663 75.341869 
L 750.026384 142.947764 
L 750.299106 80.429116 
L 750.571827 72.131578 
L 750.844549 89.192084 
L 751.11727 81.050999 
L 751.389991 66.541027 
L 751.662713 83.604809 
L 751.935434 87.125798 
L 752.208156 69.606529 
L 752.753599 94.634906 
L 753.02632 73.672955 
L 753.299041 76.579027 
L 753.571763 94.307668 
L 753.844484 78.076063 
L 754.117206 74.443774 
L 754.389927 102.542737 
L 754.662649 79.478811 
L 754.93537 71.000729 
L 755.208092 89.204251 
L 755.480813 84.313789 
L 755.753534 65.959051 
L 756.026256 84.565923 
L 756.298977 89.469793 
L 756.571699 70.68341 
L 756.84442 78.83455 
L 757.117142 103.597187 
L 757.389863 74.532911 
L 757.662584 77.407311 
L 757.935306 95.310405 
L 758.208027 76.625813 
L 758.480749 73.949054 
L 758.75347 93.913468 
L 759.298913 69.057727 
L 759.571634 86.614355 
L 759.844356 83.26006 
L 760.117077 66.392936 
L 760.389799 80.941627 
L 760.66252 87.796824 
L 760.935242 71.414838 
L 761.207963 79.989891 
L 761.480685 122.191743 
L 761.753406 75.073976 
L 762.026127 76.00867 
L 762.298849 118.02799 
L 762.57157 78.134948 
L 762.844292 72.908869 
L 763.117013 91.758092 
L 763.662456 67.52182 
L 763.935177 82.456612 
L 764.207899 84.760079 
L 764.48062 68.321505 
L 765.026063 91.046488 
L 765.298785 72.630764 
L 765.571506 77.105556 
L 765.844227 111.289694 
L 766.116949 76.059411 
L 766.38967 74.15098 
L 766.662392 118.087331 
L 766.935113 77.264099 
L 767.207835 71.554929 
L 767.480556 88.840471 
L 767.753278 81.320704 
L 768.025999 65.782086 
L 768.29872 82.874084 
L 768.571442 84.981682 
L 768.844163 69.470636 
L 769.116885 77.816973 
L 769.389606 93.984355 
L 769.662328 72.574279 
L 769.935049 76.847267 
L 770.20777 94.615596 
L 770.480492 75.835586 
L 770.753213 73.964516 
L 771.025935 98.847547 
L 771.298656 79.550303 
L 771.571378 70.364499 
L 771.844099 85.300995 
L 772.11682 80.522316 
L 772.389542 65.434949 
L 772.662263 80.288892 
L 772.934985 85.774818 
L 773.207706 70.205611 
L 773.480428 78.468597 
L 773.753149 102.743238 
L 774.02587 74.469751 
L 774.298592 74.942311 
L 774.571313 104.273487 
L 774.844035 77.591138 
L 775.116756 73.263561 
L 775.389478 92.842569 
L 775.934921 68.16394 
L 776.207642 83.411398 
L 776.480363 83.119645 
L 776.753085 66.107598 
L 777.025806 81.272996 
L 777.298528 87.97363 
L 777.571249 70.933911 
L 777.843971 76.479792 
L 778.116692 120.835112 
L 778.389413 74.970548 
L 778.662135 74.551502 
L 778.934856 130.872903 
L 779.207578 76.30826 
L 779.480299 71.38175 
L 779.753021 89.272596 
L 780.025742 80.722914 
L 780.298463 66.186809 
L 780.571185 83.264941 
L 780.843906 83.621667 
L 781.116628 67.941609 
L 781.662071 91.594107 
L 781.934792 72.434503 
L 782.207514 77.27336 
L 782.480235 110.346016 
L 782.752956 73.91454 
L 783.025678 74.338739 
L 783.298399 102.985849 
L 783.571121 77.48691 
L 783.843842 70.09776 
L 784.116564 85.13247 
L 784.389285 79.292272 
L 784.662006 65.064297 
L 784.934728 79.382204 
L 785.207449 82.742102 
L 785.480171 69.616954 
L 785.752892 78.521639 
L 786.025614 95.619707 
L 786.298335 73.117461 
L 786.571056 75.050971 
L 786.843778 96.887955 
L 787.116499 75.884491 
L 787.389221 72.138272 
L 787.661942 92.724991 
L 787.934664 76.710642 
L 788.207385 68.941989 
L 788.480107 82.38059 
L 788.752828 80.756245 
L 789.025549 65.013398 
L 789.298271 79.790293 
L 789.570992 86.154 
L 789.843714 70.392144 
L 790.116435 75.735934 
L 790.389157 105.824367 
L 790.661878 73.188107 
L 790.934599 74.262794 
L 791.207321 123.74648 
L 791.480042 75.472391 
L 791.752764 71.29533 
L 792.025485 88.116057 
L 792.570928 67.301738 
L 792.843649 82.674901 
L 793.116371 80.437793 
L 793.389092 66.242423 
L 793.934535 87.904854 
L 794.207257 71.342361 
L 794.479978 76.133463 
L 794.752699 141.885193 
L 795.025421 73.793774 
L 795.298142 73.481536 
L 795.570864 106.162855 
L 795.843585 77.280493 
L 796.116307 69.795051 
L 796.389028 83.979531 
L 796.66175 78.185632 
L 796.934471 65.105762 
L 797.207192 80.021525 
L 797.479914 82.621009 
L 797.752635 67.491493 
L 798.298078 88.425082 
L 798.5708 71.850027 
L 798.843521 74.226397 
L 799.116242 104.880899 
L 799.388964 74.785963 
L 799.661685 72.239187 
L 799.934407 94.216774 
L 800.207128 75.977604 
L 800.47985 68.793128 
L 800.752571 84.458028 
L 801.025292 80.561885 
L 801.298014 64.384597 
L 801.570735 80.191826 
L 801.843457 83.868664 
L 802.116178 68.86503 
L 802.3889 76.167397 
L 802.661621 92.954138 
L 802.934343 71.883137 
L 803.207064 75.016186 
L 803.479785 107.324108 
L 803.752507 73.708258 
L 804.025228 71.338173 
L 804.29795 87.588259 
L 804.843393 67.304418 
L 805.116114 81.28886 
L 805.388835 79.026062 
L 805.661557 64.732556 
L 805.934278 77.073651 
L 806.207 82.954259 
L 806.479721 69.402008 
L 806.752443 76.328692 
L 807.025164 104.014258 
L 807.297885 72.788101 
L 807.570607 72.891068 
L 807.843328 120.36408 
L 808.11605 75.443291 
L 808.388771 70.964399 
L 808.661493 86.529584 
L 809.206936 65.69517 
L 809.479657 79.254799 
L 809.752378 80.820285 
L 810.0251 66.504721 
L 810.570543 86.696572 
L 810.843264 70.31024 
L 811.115986 74.102828 
L 811.388707 140.162576 
L 811.661428 73.279641 
L 811.93415 72.069077 
L 812.206871 98.413479 
L 812.479593 75.039406 
L 812.752314 69.19168 
L 813.025036 83.087872 
L 813.297757 77.983469 
L 813.570478 64.219839 
L 813.8432 78.83606 
L 814.115921 80.324107 
L 814.388643 67.948321 
L 814.661364 75.476406 
L 814.934086 89.573829 
L 815.206807 71.20468 
L 815.479529 73.746765 
L 815.75225 102.941744 
L 816.024971 73.925731 
L 816.297693 71.758535 
L 816.570414 91.133296 
L 816.843136 76.401536 
L 817.115857 67.948315 
L 817.388579 80.334381 
L 817.6613 78.10193 
L 817.934021 63.916023 
L 818.206743 77.893475 
L 818.479464 83.042355 
L 818.752186 69.137613 
L 819.024907 74.841902 
L 819.297629 96.337738 
L 819.57035 72.465613 
L 819.843071 72.39822 
L 820.115793 184.93631 
L 820.388514 74.076617 
L 820.661236 69.910086 
L 820.933957 85.188024 
L 821.4794 66.3733 
L 821.752121 80.859026 
L 822.024843 79.563876 
L 822.297564 64.955027 
L 822.297564 64.955027 
" clip-path="url(#p75abe6fdb9)" style="fill: none; stroke: #1f77b4; stroke-width: 3; stroke-linecap: square"/>
   </g>
   <g id="patch_8">
    <path d="M 536.226416 345.2325 
L 536.226416 50.52 
" style="fill: none; stroke: #000000; stroke-width: 2; stroke-linejoin: miter; stroke-linecap: square"/>
   </g>
   <g id="patch_9">
    <path d="M 835.92 345.2325 
L 835.92 50.52 
" style="fill: none; stroke: #000000; stroke-width: 2; stroke-linejoin: miter; stroke-linecap: square"/>
   </g>
   <g id="patch_10">
    <path d="M 536.226416 345.2325 
L 835.92 345.2325 
" style="fill: none; stroke: #000000; stroke-width: 2; stroke-linejoin: miter; stroke-linecap: square"/>
   </g>
   <g id="patch_11">
    <path d="M 536.226416 50.52 
L 835.92 50.52 
" style="fill: none; stroke: #000000; stroke-width: 2; stroke-linejoin: miter; stroke-linecap: square"/>
   </g>
  </g>
 </g>
 <defs>
  <clipPath id="p4a6c52960e">
   <rect x="103.44" y="50.52" width="299.693584" height="294.7125"/>
  </clipPath>
  <clipPath id="p75abe6fdb9">
   <rect x="536.226416" y="50.52" width="299.693584" height="294.7125"/>
  </clipPath>
 </defs>
</svg>
