<?xml version="1.0" encoding="utf-8" standalone="no"?>
<!DOCTYPE svg PUBLIC "-//W3C//DTD SVG 1.1//EN"
  "http://www.w3.org/Graphics/SVG/1.1/DTD/svg11.dtd">
<svg xmlns:xlink="http://www.w3.org/1999/xlink" width="864pt" height="576pt" viewBox="0 0 864 576" xmlns="http://www.w3.org/2000/svg" version="1.1">
 <metadata>
  <rdf:RDF xmlns:dc="http://purl.org/dc/elements/1.1/" xmlns:cc="http://creativecommons.org/ns#" xmlns:rdf="http://www.w3.org/1999/02/22-rdf-syntax-ns#">
   <cc:Work>
    <dc:type rdf:resource="http://purl.org/dc/dcmitype/StillImage"/>
    <dc:date>2025-07-11T15:31:05.489573</dc:date>
    <dc:format>image/svg+xml</dc:format>
    <dc:creator>
     <cc:Agent>
      <dc:title>Matplotlib v3.7.2, https://matplotlib.org/</dc:title>
     </cc:Agent>
    </dc:creator>
   </cc:Work>
  </rdf:RDF>
 </metadata>
 <defs>
  <style type="text/css">*{stroke-linejoin: round; stroke-linecap: butt}</style>
 </defs>
 <g id="figure_1">
  <g id="patch_1">
   <path d="M 0 576 
L 864 576 
L 864 0 
L 0 0 
z
" style="fill: #ffffff"/>
  </g>
  <g id="axes_1">
   <g id="patch_2">
    <path d="M 138.36 489.2325 
L 824.911364 489.2325 
L 824.911364 28.08 
L 138.36 28.08 
z
" style="fill: #ffffff"/>
   </g>
   <g id="matplotlib.axis_1">
    <g id="xtick_1">
     <g id="line2d_1">
      <path d="M 169.56688 489.2325 
L 169.56688 28.08 
" clip-path="url(#p0cc374083d)" style="fill: none; stroke-dasharray: 3.7,1.6; stroke-dashoffset: 0; stroke: #b0b0b0; stroke-opacity: 0.5"/>
     </g>
     <g id="line2d_2">
      <defs>
       <path id="m96f65e4a00" d="M 0 0 
L 0 -10 
" style="stroke: #000000; stroke-width: 2"/>
      </defs>
      <g>
       <use xlink:href="#m96f65e4a00" x="169.56688" y="489.2325" style="stroke: #000000; stroke-width: 2"/>
      </g>
     </g>
     <g id="line2d_3">
      <defs>
       <path id="m625438ee01" d="M 0 0 
L 0 10 
" style="stroke: #000000; stroke-width: 2"/>
      </defs>
      <g>
       <use xlink:href="#m625438ee01" x="169.56688" y="28.08" style="stroke: #000000; stroke-width: 2"/>
      </g>
     </g>
     <g id="text_1">
      <!-- 0 -->
      <g transform="translate(161.29563 512.488438) scale(0.26 -0.26)">
       <defs>
        <path id="DejaVuSerif-30" d="M 2034 219 
Q 2513 219 2750 744 
Q 2988 1269 2988 2328 
Q 2988 3391 2750 3916 
Q 2513 4441 2034 4441 
Q 1556 4441 1318 3916 
Q 1081 3391 1081 2328 
Q 1081 1269 1318 744 
Q 1556 219 2034 219 
z
M 2034 -91 
Q 1275 -91 848 546 
Q 422 1184 422 2328 
Q 422 3475 848 4112 
Q 1275 4750 2034 4750 
Q 2797 4750 3222 4112 
Q 3647 3475 3647 2328 
Q 3647 1184 3222 546 
Q 2797 -91 2034 -91 
z
" transform="scale(0.015625)"/>
       </defs>
       <use xlink:href="#DejaVuSerif-30"/>
      </g>
     </g>
    </g>
    <g id="xtick_2">
     <g id="line2d_4">
      <path d="M 294.394401 489.2325 
L 294.394401 28.08 
" clip-path="url(#p0cc374083d)" style="fill: none; stroke-dasharray: 3.7,1.6; stroke-dashoffset: 0; stroke: #b0b0b0; stroke-opacity: 0.5"/>
     </g>
     <g id="line2d_5">
      <g>
       <use xlink:href="#m96f65e4a00" x="294.394401" y="489.2325" style="stroke: #000000; stroke-width: 2"/>
      </g>
     </g>
     <g id="line2d_6">
      <g>
       <use xlink:href="#m625438ee01" x="294.394401" y="28.08" style="stroke: #000000; stroke-width: 2"/>
      </g>
     </g>
     <g id="text_2">
      <!-- 5000 -->
      <g transform="translate(261.309401 512.488438) scale(0.26 -0.26)">
       <defs>
        <path id="DejaVuSerif-35" d="M 3219 4666 
L 3219 4153 
L 1081 4153 
L 1081 2816 
Q 1244 2928 1461 2984 
Q 1678 3041 1947 3041 
Q 2703 3041 3140 2622 
Q 3578 2203 3578 1478 
Q 3578 738 3136 323 
Q 2694 -91 1894 -91 
Q 1572 -91 1234 -12 
Q 897 66 544 225 
L 544 1131 
L 897 1131 
Q 925 688 1179 453 
Q 1434 219 1894 219 
Q 2388 219 2653 544 
Q 2919 869 2919 1478 
Q 2919 2084 2655 2407 
Q 2391 2731 1894 2731 
Q 1613 2731 1398 2631 
Q 1184 2531 1019 2322 
L 750 2322 
L 750 4666 
L 3219 4666 
z
" transform="scale(0.015625)"/>
       </defs>
       <use xlink:href="#DejaVuSerif-35"/>
       <use xlink:href="#DejaVuSerif-30" x="63.623047"/>
       <use xlink:href="#DejaVuSerif-30" x="127.246094"/>
       <use xlink:href="#DejaVuSerif-30" x="190.869141"/>
      </g>
     </g>
    </g>
    <g id="xtick_3">
     <g id="line2d_7">
      <path d="M 419.221921 489.2325 
L 419.221921 28.08 
" clip-path="url(#p0cc374083d)" style="fill: none; stroke-dasharray: 3.7,1.6; stroke-dashoffset: 0; stroke: #b0b0b0; stroke-opacity: 0.5"/>
     </g>
     <g id="line2d_8">
      <g>
       <use xlink:href="#m96f65e4a00" x="419.221921" y="489.2325" style="stroke: #000000; stroke-width: 2"/>
      </g>
     </g>
     <g id="line2d_9">
      <g>
       <use xlink:href="#m625438ee01" x="419.221921" y="28.08" style="stroke: #000000; stroke-width: 2"/>
      </g>
     </g>
     <g id="text_3">
      <!-- 10000 -->
      <g transform="translate(377.865671 512.488438) scale(0.26 -0.26)">
       <defs>
        <path id="DejaVuSerif-31" d="M 909 0 
L 909 331 
L 1722 331 
L 1722 4213 
L 781 3603 
L 781 4013 
L 1919 4750 
L 2350 4750 
L 2350 331 
L 3163 331 
L 3163 0 
L 909 0 
z
" transform="scale(0.015625)"/>
       </defs>
       <use xlink:href="#DejaVuSerif-31"/>
       <use xlink:href="#DejaVuSerif-30" x="63.623047"/>
       <use xlink:href="#DejaVuSerif-30" x="127.246094"/>
       <use xlink:href="#DejaVuSerif-30" x="190.869141"/>
       <use xlink:href="#DejaVuSerif-30" x="254.492188"/>
      </g>
     </g>
    </g>
    <g id="xtick_4">
     <g id="line2d_10">
      <path d="M 544.049442 489.2325 
L 544.049442 28.08 
" clip-path="url(#p0cc374083d)" style="fill: none; stroke-dasharray: 3.7,1.6; stroke-dashoffset: 0; stroke: #b0b0b0; stroke-opacity: 0.5"/>
     </g>
     <g id="line2d_11">
      <g>
       <use xlink:href="#m96f65e4a00" x="544.049442" y="489.2325" style="stroke: #000000; stroke-width: 2"/>
      </g>
     </g>
     <g id="line2d_12">
      <g>
       <use xlink:href="#m625438ee01" x="544.049442" y="28.08" style="stroke: #000000; stroke-width: 2"/>
      </g>
     </g>
     <g id="text_4">
      <!-- 15000 -->
      <g transform="translate(502.693192 512.488438) scale(0.26 -0.26)">
       <use xlink:href="#DejaVuSerif-31"/>
       <use xlink:href="#DejaVuSerif-35" x="63.623047"/>
       <use xlink:href="#DejaVuSerif-30" x="127.246094"/>
       <use xlink:href="#DejaVuSerif-30" x="190.869141"/>
       <use xlink:href="#DejaVuSerif-30" x="254.492188"/>
      </g>
     </g>
    </g>
    <g id="xtick_5">
     <g id="line2d_13">
      <path d="M 668.876963 489.2325 
L 668.876963 28.08 
" clip-path="url(#p0cc374083d)" style="fill: none; stroke-dasharray: 3.7,1.6; stroke-dashoffset: 0; stroke: #b0b0b0; stroke-opacity: 0.5"/>
     </g>
     <g id="line2d_14">
      <g>
       <use xlink:href="#m96f65e4a00" x="668.876963" y="489.2325" style="stroke: #000000; stroke-width: 2"/>
      </g>
     </g>
     <g id="line2d_15">
      <g>
       <use xlink:href="#m625438ee01" x="668.876963" y="28.08" style="stroke: #000000; stroke-width: 2"/>
      </g>
     </g>
     <g id="text_5">
      <!-- 20000 -->
      <g transform="translate(627.520713 512.488438) scale(0.26 -0.26)">
       <defs>
        <path id="DejaVuSerif-32" d="M 819 3553 
L 469 3553 
L 469 4384 
Q 803 4563 1142 4656 
Q 1481 4750 1806 4750 
Q 2534 4750 2956 4397 
Q 3378 4044 3378 3438 
Q 3378 2753 2422 1800 
Q 2347 1728 2309 1691 
L 1131 513 
L 3078 513 
L 3078 1088 
L 3444 1088 
L 3444 0 
L 434 0 
L 434 341 
L 1850 1753 
Q 2319 2222 2519 2614 
Q 2719 3006 2719 3438 
Q 2719 3909 2473 4175 
Q 2228 4441 1797 4441 
Q 1350 4441 1106 4219 
Q 863 3997 819 3553 
z
" transform="scale(0.015625)"/>
       </defs>
       <use xlink:href="#DejaVuSerif-32"/>
       <use xlink:href="#DejaVuSerif-30" x="63.623047"/>
       <use xlink:href="#DejaVuSerif-30" x="127.246094"/>
       <use xlink:href="#DejaVuSerif-30" x="190.869141"/>
       <use xlink:href="#DejaVuSerif-30" x="254.492188"/>
      </g>
     </g>
    </g>
    <g id="xtick_6">
     <g id="line2d_16">
      <path d="M 793.704483 489.2325 
L 793.704483 28.08 
" clip-path="url(#p0cc374083d)" style="fill: none; stroke-dasharray: 3.7,1.6; stroke-dashoffset: 0; stroke: #b0b0b0; stroke-opacity: 0.5"/>
     </g>
     <g id="line2d_17">
      <g>
       <use xlink:href="#m96f65e4a00" x="793.704483" y="489.2325" style="stroke: #000000; stroke-width: 2"/>
      </g>
     </g>
     <g id="line2d_18">
      <g>
       <use xlink:href="#m625438ee01" x="793.704483" y="28.08" style="stroke: #000000; stroke-width: 2"/>
      </g>
     </g>
     <g id="text_6">
      <!-- 25000 -->
      <g transform="translate(752.348233 512.488438) scale(0.26 -0.26)">
       <use xlink:href="#DejaVuSerif-32"/>
       <use xlink:href="#DejaVuSerif-35" x="63.623047"/>
       <use xlink:href="#DejaVuSerif-30" x="127.246094"/>
       <use xlink:href="#DejaVuSerif-30" x="190.869141"/>
       <use xlink:href="#DejaVuSerif-30" x="254.492188"/>
      </g>
     </g>
    </g>
    <g id="text_7">
     <!-- $t$ (a.u.) -->
     <g transform="translate(438.215682 541.651562) scale(0.26 -0.26)">
      <defs>
       <path id="Cmmi10-74" d="M 397 519 
Q 397 613 416 697 
L 878 2534 
L 206 2534 
Q 141 2534 141 2619 
Q 166 2759 225 2759 
L 934 2759 
L 1191 3803 
Q 1216 3888 1291 3947 
Q 1366 4006 1459 4006 
Q 1541 4006 1595 3957 
Q 1650 3909 1650 3828 
Q 1650 3809 1648 3798 
Q 1647 3788 1644 3775 
L 1388 2759 
L 2047 2759 
Q 2113 2759 2113 2675 
Q 2109 2659 2100 2621 
Q 2091 2584 2075 2559 
Q 2059 2534 2028 2534 
L 1331 2534 
L 872 684 
Q 825 503 825 372 
Q 825 97 1013 97 
Q 1294 97 1511 361 
Q 1728 625 1844 941 
Q 1869 978 1894 978 
L 1972 978 
Q 1997 978 2012 961 
Q 2028 944 2028 922 
Q 2028 909 2022 903 
Q 1881 516 1612 222 
Q 1344 -72 997 -72 
Q 744 -72 570 93 
Q 397 259 397 519 
z
" transform="scale(0.015625)"/>
       <path id="DejaVuSerif-20" transform="scale(0.015625)"/>
       <path id="DejaVuSerif-28" d="M 2041 -997 
Q 1281 -656 893 83 
Q 506 822 506 1931 
Q 506 3044 893 3783 
Q 1281 4522 2041 4863 
L 2041 4556 
Q 1559 4225 1350 3623 
Q 1141 3022 1141 1931 
Q 1141 844 1350 242 
Q 1559 -359 2041 -691 
L 2041 -997 
z
" transform="scale(0.015625)"/>
       <path id="DejaVuSerif-61" d="M 2547 1044 
L 2547 1747 
L 1806 1747 
Q 1378 1747 1168 1562 
Q 959 1378 959 997 
Q 959 650 1171 447 
Q 1384 244 1747 244 
Q 2106 244 2326 466 
Q 2547 688 2547 1044 
z
M 3122 2075 
L 3122 331 
L 3634 331 
L 3634 0 
L 2547 0 
L 2547 359 
Q 2356 128 2106 18 
Q 1856 -91 1522 -91 
Q 969 -91 644 203 
Q 319 497 319 997 
Q 319 1513 691 1797 
Q 1063 2081 1741 2081 
L 2547 2081 
L 2547 2309 
Q 2547 2688 2317 2895 
Q 2088 3103 1672 3103 
Q 1328 3103 1125 2947 
Q 922 2791 872 2484 
L 575 2484 
L 575 3156 
Q 875 3284 1158 3348 
Q 1441 3413 1709 3413 
Q 2400 3413 2761 3070 
Q 3122 2728 3122 2075 
z
" transform="scale(0.015625)"/>
       <path id="DejaVuSerif-2e" d="M 603 325 
Q 603 500 722 622 
Q 841 744 1019 744 
Q 1191 744 1312 622 
Q 1434 500 1434 325 
Q 1434 153 1312 31 
Q 1191 -91 1019 -91 
Q 841 -91 722 29 
Q 603 150 603 325 
z
" transform="scale(0.015625)"/>
       <path id="DejaVuSerif-75" d="M 2266 3322 
L 3341 3322 
L 3341 331 
L 3884 331 
L 3884 0 
L 2766 0 
L 2766 588 
Q 2606 256 2353 82 
Q 2100 -91 1766 -91 
Q 1213 -91 952 223 
Q 691 538 691 1209 
L 691 2988 
L 172 2988 
L 172 3322 
L 1269 3322 
L 1269 1388 
Q 1269 781 1417 556 
Q 1566 331 1947 331 
Q 2347 331 2556 625 
Q 2766 919 2766 1478 
L 2766 2988 
L 2266 2988 
L 2266 3322 
z
" transform="scale(0.015625)"/>
       <path id="DejaVuSerif-29" d="M 453 -997 
L 453 -691 
Q 934 -359 1145 242 
Q 1356 844 1356 1931 
Q 1356 3022 1145 3623 
Q 934 4225 453 4556 
L 453 4863 
Q 1216 4522 1603 3783 
Q 1991 3044 1991 1931 
Q 1991 822 1603 83 
Q 1216 -656 453 -997 
z
" transform="scale(0.015625)"/>
      </defs>
      <use xlink:href="#Cmmi10-74" transform="translate(0 0.015625)"/>
      <use xlink:href="#DejaVuSerif-20" transform="translate(36.083984 0.015625)"/>
      <use xlink:href="#DejaVuSerif-28" transform="translate(67.871094 0.015625)"/>
      <use xlink:href="#DejaVuSerif-61" transform="translate(106.884766 0.015625)"/>
      <use xlink:href="#DejaVuSerif-2e" transform="translate(166.503906 0.015625)"/>
      <use xlink:href="#DejaVuSerif-75" transform="translate(198.291016 0.015625)"/>
      <use xlink:href="#DejaVuSerif-2e" transform="translate(262.695312 0.015625)"/>
      <use xlink:href="#DejaVuSerif-29" transform="translate(294.482422 0.015625)"/>
     </g>
    </g>
   </g>
   <g id="matplotlib.axis_2">
    <g id="ytick_1">
     <g id="line2d_19">
      <path d="M 138.36 485.842768 
L 824.911364 485.842768 
" clip-path="url(#p0cc374083d)" style="fill: none; stroke-dasharray: 3.7,1.6; stroke-dashoffset: 0; stroke: #b0b0b0; stroke-opacity: 0.5"/>
     </g>
     <g id="line2d_20">
      <defs>
       <path id="m368a12608c" d="M 0 0 
L 10 0 
" style="stroke: #000000; stroke-width: 2"/>
      </defs>
      <g>
       <use xlink:href="#m368a12608c" x="138.36" y="485.842768" style="stroke: #000000; stroke-width: 2"/>
      </g>
     </g>
     <g id="line2d_21">
      <defs>
       <path id="m2787831683" d="M 0 0 
L -10 0 
" style="stroke: #000000; stroke-width: 2"/>
      </defs>
      <g>
       <use xlink:href="#m2787831683" x="824.911364" y="485.842768" style="stroke: #000000; stroke-width: 2"/>
      </g>
     </g>
     <g id="text_8">
      <!-- 1.425 -->
      <g transform="translate(60.426875 495.720737) scale(0.26 -0.26)">
       <defs>
        <path id="DejaVuSerif-34" d="M 2234 1581 
L 2234 4063 
L 641 1581 
L 2234 1581 
z
M 3609 0 
L 1484 0 
L 1484 331 
L 2234 331 
L 2234 1247 
L 197 1247 
L 197 1588 
L 2241 4750 
L 2859 4750 
L 2859 1581 
L 3750 1581 
L 3750 1247 
L 2859 1247 
L 2859 331 
L 3609 331 
L 3609 0 
z
" transform="scale(0.015625)"/>
       </defs>
       <use xlink:href="#DejaVuSerif-31"/>
       <use xlink:href="#DejaVuSerif-2e" x="63.623047"/>
       <use xlink:href="#DejaVuSerif-34" x="95.410156"/>
       <use xlink:href="#DejaVuSerif-32" x="159.033203"/>
       <use xlink:href="#DejaVuSerif-35" x="222.65625"/>
      </g>
     </g>
    </g>
    <g id="ytick_2">
     <g id="line2d_22">
      <path d="M 138.36 414.42469 
L 824.911364 414.42469 
" clip-path="url(#p0cc374083d)" style="fill: none; stroke-dasharray: 3.7,1.6; stroke-dashoffset: 0; stroke: #b0b0b0; stroke-opacity: 0.5"/>
     </g>
     <g id="line2d_23">
      <g>
       <use xlink:href="#m368a12608c" x="138.36" y="414.42469" style="stroke: #000000; stroke-width: 2"/>
      </g>
     </g>
     <g id="line2d_24">
      <g>
       <use xlink:href="#m2787831683" x="824.911364" y="414.42469" style="stroke: #000000; stroke-width: 2"/>
      </g>
     </g>
     <g id="text_9">
      <!-- 1.450 -->
      <g transform="translate(60.426875 424.302659) scale(0.26 -0.26)">
       <use xlink:href="#DejaVuSerif-31"/>
       <use xlink:href="#DejaVuSerif-2e" x="63.623047"/>
       <use xlink:href="#DejaVuSerif-34" x="95.410156"/>
       <use xlink:href="#DejaVuSerif-35" x="159.033203"/>
       <use xlink:href="#DejaVuSerif-30" x="222.65625"/>
      </g>
     </g>
    </g>
    <g id="ytick_3">
     <g id="line2d_25">
      <path d="M 138.36 343.006612 
L 824.911364 343.006612 
" clip-path="url(#p0cc374083d)" style="fill: none; stroke-dasharray: 3.7,1.6; stroke-dashoffset: 0; stroke: #b0b0b0; stroke-opacity: 0.5"/>
     </g>
     <g id="line2d_26">
      <g>
       <use xlink:href="#m368a12608c" x="138.36" y="343.006612" style="stroke: #000000; stroke-width: 2"/>
      </g>
     </g>
     <g id="line2d_27">
      <g>
       <use xlink:href="#m2787831683" x="824.911364" y="343.006612" style="stroke: #000000; stroke-width: 2"/>
      </g>
     </g>
     <g id="text_10">
      <!-- 1.475 -->
      <g transform="translate(60.426875 352.88458) scale(0.26 -0.26)">
       <defs>
        <path id="DejaVuSerif-37" d="M 3609 4347 
L 1784 0 
L 1319 0 
L 3059 4153 
L 903 4153 
L 903 3578 
L 538 3578 
L 538 4666 
L 3609 4666 
L 3609 4347 
z
" transform="scale(0.015625)"/>
       </defs>
       <use xlink:href="#DejaVuSerif-31"/>
       <use xlink:href="#DejaVuSerif-2e" x="63.623047"/>
       <use xlink:href="#DejaVuSerif-34" x="95.410156"/>
       <use xlink:href="#DejaVuSerif-37" x="159.033203"/>
       <use xlink:href="#DejaVuSerif-35" x="222.65625"/>
      </g>
     </g>
    </g>
    <g id="ytick_4">
     <g id="line2d_28">
      <path d="M 138.36 271.588534 
L 824.911364 271.588534 
" clip-path="url(#p0cc374083d)" style="fill: none; stroke-dasharray: 3.7,1.6; stroke-dashoffset: 0; stroke: #b0b0b0; stroke-opacity: 0.5"/>
     </g>
     <g id="line2d_29">
      <g>
       <use xlink:href="#m368a12608c" x="138.36" y="271.588534" style="stroke: #000000; stroke-width: 2"/>
      </g>
     </g>
     <g id="line2d_30">
      <g>
       <use xlink:href="#m2787831683" x="824.911364" y="271.588534" style="stroke: #000000; stroke-width: 2"/>
      </g>
     </g>
     <g id="text_11">
      <!-- 1.500 -->
      <g transform="translate(60.426875 281.466502) scale(0.26 -0.26)">
       <use xlink:href="#DejaVuSerif-31"/>
       <use xlink:href="#DejaVuSerif-2e" x="63.623047"/>
       <use xlink:href="#DejaVuSerif-35" x="95.410156"/>
       <use xlink:href="#DejaVuSerif-30" x="159.033203"/>
       <use xlink:href="#DejaVuSerif-30" x="222.65625"/>
      </g>
     </g>
    </g>
    <g id="ytick_5">
     <g id="line2d_31">
      <path d="M 138.36 200.170455 
L 824.911364 200.170455 
" clip-path="url(#p0cc374083d)" style="fill: none; stroke-dasharray: 3.7,1.6; stroke-dashoffset: 0; stroke: #b0b0b0; stroke-opacity: 0.5"/>
     </g>
     <g id="line2d_32">
      <g>
       <use xlink:href="#m368a12608c" x="138.36" y="200.170455" style="stroke: #000000; stroke-width: 2"/>
      </g>
     </g>
     <g id="line2d_33">
      <g>
       <use xlink:href="#m2787831683" x="824.911364" y="200.170455" style="stroke: #000000; stroke-width: 2"/>
      </g>
     </g>
     <g id="text_12">
      <!-- 1.525 -->
      <g transform="translate(60.426875 210.048424) scale(0.26 -0.26)">
       <use xlink:href="#DejaVuSerif-31"/>
       <use xlink:href="#DejaVuSerif-2e" x="63.623047"/>
       <use xlink:href="#DejaVuSerif-35" x="95.410156"/>
       <use xlink:href="#DejaVuSerif-32" x="159.033203"/>
       <use xlink:href="#DejaVuSerif-35" x="222.65625"/>
      </g>
     </g>
    </g>
    <g id="ytick_6">
     <g id="line2d_34">
      <path d="M 138.36 128.752377 
L 824.911364 128.752377 
" clip-path="url(#p0cc374083d)" style="fill: none; stroke-dasharray: 3.7,1.6; stroke-dashoffset: 0; stroke: #b0b0b0; stroke-opacity: 0.5"/>
     </g>
     <g id="line2d_35">
      <g>
       <use xlink:href="#m368a12608c" x="138.36" y="128.752377" style="stroke: #000000; stroke-width: 2"/>
      </g>
     </g>
     <g id="line2d_36">
      <g>
       <use xlink:href="#m2787831683" x="824.911364" y="128.752377" style="stroke: #000000; stroke-width: 2"/>
      </g>
     </g>
     <g id="text_13">
      <!-- 1.550 -->
      <g transform="translate(60.426875 138.630346) scale(0.26 -0.26)">
       <use xlink:href="#DejaVuSerif-31"/>
       <use xlink:href="#DejaVuSerif-2e" x="63.623047"/>
       <use xlink:href="#DejaVuSerif-35" x="95.410156"/>
       <use xlink:href="#DejaVuSerif-35" x="159.033203"/>
       <use xlink:href="#DejaVuSerif-30" x="222.65625"/>
      </g>
     </g>
    </g>
    <g id="ytick_7">
     <g id="line2d_37">
      <path d="M 138.36 57.334299 
L 824.911364 57.334299 
" clip-path="url(#p0cc374083d)" style="fill: none; stroke-dasharray: 3.7,1.6; stroke-dashoffset: 0; stroke: #b0b0b0; stroke-opacity: 0.5"/>
     </g>
     <g id="line2d_38">
      <g>
       <use xlink:href="#m368a12608c" x="138.36" y="57.334299" style="stroke: #000000; stroke-width: 2"/>
      </g>
     </g>
     <g id="line2d_39">
      <g>
       <use xlink:href="#m2787831683" x="824.911364" y="57.334299" style="stroke: #000000; stroke-width: 2"/>
      </g>
     </g>
     <g id="text_14">
      <!-- 1.575 -->
      <g transform="translate(60.426875 67.212268) scale(0.26 -0.26)">
       <use xlink:href="#DejaVuSerif-31"/>
       <use xlink:href="#DejaVuSerif-2e" x="63.623047"/>
       <use xlink:href="#DejaVuSerif-35" x="95.410156"/>
       <use xlink:href="#DejaVuSerif-37" x="159.033203"/>
       <use xlink:href="#DejaVuSerif-35" x="222.65625"/>
      </g>
     </g>
    </g>
    <g id="text_15">
     <!-- $p_i$ (a.u.) -->
     <g transform="translate(51.019688 307.92625) rotate(-90) scale(0.26 -0.26)">
      <defs>
       <path id="Cmmi10-70" d="M -159 -1241 
Q -219 -1241 -219 -1159 
Q -197 -1019 -134 -1019 
Q 66 -1019 145 -983 
Q 225 -947 269 -800 
L 991 2081 
Q 1038 2200 1038 2388 
Q 1038 2663 850 2663 
Q 650 2663 553 2423 
Q 456 2184 366 1819 
Q 366 1778 313 1778 
L 238 1778 
Q 222 1778 203 1801 
Q 184 1825 184 1844 
Q 253 2122 317 2315 
Q 381 2509 517 2668 
Q 653 2828 856 2828 
Q 1075 2828 1240 2704 
Q 1406 2581 1453 2369 
Q 1628 2572 1840 2700 
Q 2053 2828 2278 2828 
Q 2547 2828 2745 2684 
Q 2944 2541 3044 2308 
Q 3144 2075 3144 1806 
Q 3144 1394 2933 953 
Q 2722 513 2361 220 
Q 2000 -72 1588 -72 
Q 1400 -72 1248 34 
Q 1097 141 1013 313 
L 722 -825 
Q 706 -919 703 -934 
Q 703 -1019 1125 -1019 
Q 1191 -1019 1191 -1100 
Q 1169 -1184 1155 -1212 
Q 1141 -1241 1081 -1241 
L -159 -1241 
z
M 1594 97 
Q 1816 97 2006 280 
Q 2197 463 2316 691 
Q 2403 863 2479 1111 
Q 2556 1359 2612 1640 
Q 2669 1922 2669 2088 
Q 2669 2234 2630 2362 
Q 2591 2491 2502 2577 
Q 2413 2663 2266 2663 
Q 2031 2663 1823 2495 
Q 1616 2328 1447 2081 
L 1447 2059 
L 1094 647 
Q 1138 419 1263 258 
Q 1388 97 1594 97 
z
" transform="scale(0.015625)"/>
       <path id="Cmmi10-69" d="M 500 459 
Q 500 578 550 709 
L 1069 2088 
Q 1153 2322 1153 2472 
Q 1153 2663 1013 2663 
Q 759 2663 595 2402 
Q 431 2141 353 1819 
Q 341 1778 300 1778 
L 225 1778 
Q 172 1778 172 1838 
L 172 1856 
Q 275 2238 487 2533 
Q 700 2828 1025 2828 
Q 1253 2828 1411 2678 
Q 1569 2528 1569 2297 
Q 1569 2178 1516 2047 
L 997 672 
Q 909 459 909 288 
Q 909 97 1056 97 
Q 1306 97 1473 364 
Q 1641 631 1709 941 
Q 1722 978 1759 978 
L 1838 978 
Q 1863 978 1878 961 
Q 1894 944 1894 922 
Q 1894 916 1888 903 
Q 1800 541 1583 234 
Q 1366 -72 1044 -72 
Q 819 -72 659 83 
Q 500 238 500 459 
z
M 1222 3878 
Q 1222 4013 1334 4122 
Q 1447 4231 1581 4231 
Q 1691 4231 1761 4164 
Q 1831 4097 1831 3994 
Q 1831 3850 1717 3742 
Q 1603 3634 1466 3634 
Q 1363 3634 1292 3704 
Q 1222 3775 1222 3878 
z
" transform="scale(0.015625)"/>
      </defs>
      <use xlink:href="#Cmmi10-70" transform="translate(0 0.015625)"/>
      <use xlink:href="#Cmmi10-69" transform="translate(50.292969 -16.990625) scale(0.7)"/>
      <use xlink:href="#DejaVuSerif-20" transform="translate(80.766992 0.015625)"/>
      <use xlink:href="#DejaVuSerif-28" transform="translate(112.554102 0.015625)"/>
      <use xlink:href="#DejaVuSerif-61" transform="translate(151.567773 0.015625)"/>
      <use xlink:href="#DejaVuSerif-2e" transform="translate(211.186914 0.015625)"/>
      <use xlink:href="#DejaVuSerif-75" transform="translate(242.974023 0.015625)"/>
      <use xlink:href="#DejaVuSerif-2e" transform="translate(307.37832 0.015625)"/>
      <use xlink:href="#DejaVuSerif-29" transform="translate(339.16543 0.015625)"/>
     </g>
    </g>
   </g>
   <g id="line2d_40">
    <path d="M 169.56688 276.021939 
L 170.191643 389.289091 
L 170.816405 235.323577 
L 171.441167 261.123716 
L 172.06593 467.572823 
L 172.690692 272.374729 
L 173.315454 236.606798 
L 173.940217 380.08181 
L 175.189741 167.741641 
L 175.814504 330.451427 
L 176.439266 307.491403 
L 177.064029 74.098418 
L 177.688791 301.067968 
L 178.313553 339.183149 
L 178.938316 187.541227 
L 179.563078 275.695431 
L 180.18784 414.264311 
L 180.812603 246.629577 
L 181.437365 267.374842 
L 182.062127 457.747774 
L 182.68689 280.510596 
L 183.311652 218.413496 
L 183.936415 365.556009 
L 184.561177 287.400737 
L 185.185939 141.629294 
L 185.810702 324.884779 
L 186.435464 315.456245 
L 187.060226 98.939326 
L 187.684989 292.582504 
L 188.309751 356.0542 
L 188.934514 216.955034 
L 189.559276 261.274828 
L 190.184038 421.244491 
L 190.808801 238.691818 
L 191.433563 249.539228 
L 192.058325 433.103217 
L 192.683088 274.421594 
L 193.30785 208.653136 
L 193.932612 353.106301 
L 194.557375 281.868382 
L 195.182137 110.364176 
L 195.8069 331.865145 
L 196.431662 307.58836 
L 197.056424 142.803621 
L 197.681187 297.00209 
L 198.305949 366.001809 
L 198.930711 213.036108 
L 199.555474 264.502337 
L 200.180236 448.957899 
L 200.804998 250.235834 
L 201.429761 250.037732 
L 202.054523 418.358314 
L 203.304048 182.781421 
L 203.92881 342.041489 
L 204.553573 290.28428 
L 205.178335 78.536296 
L 205.803097 321.151301 
L 206.42786 325.836686 
L 207.052622 152.516542 
L 207.677384 286.050786 
L 208.302147 371.274964 
L 208.926909 222.072347 
L 209.551672 259.396454 
L 210.176434 460.734202 
L 210.801196 246.576129 
L 211.425959 236.451249 
L 212.050721 393.322807 
L 213.300246 186.65121 
L 213.925008 345.330226 
L 214.54977 301.180945 
L 215.174533 51.878792 
L 215.799295 315.448797 
L 216.424058 326.777188 
L 217.04882 165.970916 
L 218.298345 386.118922 
L 218.923107 214.847981 
L 219.547869 247.738705 
L 220.172632 466.18664 
L 220.797394 253.103797 
L 221.422157 224.691313 
L 222.046919 383.876582 
L 223.296444 176.612464 
L 223.921206 342.542426 
L 224.545968 297.083518 
L 225.170731 62.799948 
L 225.795493 316.98787 
L 226.420255 352.260442 
L 227.045018 198.880775 
L 227.66978 280.448459 
L 228.294543 402.582199 
L 228.919305 231.954746 
L 229.544067 252.735091 
L 230.16883 461.480229 
L 230.793592 264.85828 
L 231.418354 211.404417 
L 232.043117 363.47853 
L 232.667879 302.270234 
L 233.292641 138.086026 
L 233.917404 332.515648 
L 234.542166 314.677724 
L 235.166929 93.825456 
L 235.791691 301.117199 
L 236.416453 354.00396 
L 237.041216 202.17551 
L 237.665978 266.232412 
L 238.29074 411.071471 
L 238.915503 228.296133 
L 239.540265 240.333073 
L 240.165027 441.603451 
L 240.78979 263.968206 
L 241.414552 201.18277 
L 242.039315 357.731344 
L 242.664077 299.751745 
L 243.288839 122.657448 
L 243.913602 321.542797 
L 244.538364 314.81356 
L 245.163126 128.128214 
L 245.787889 305.665536 
L 246.412651 360.391249 
L 247.037414 201.53542 
L 247.662176 258.022972 
L 248.286938 442.942758 
L 248.911701 239.76514 
L 249.536463 234.010967 
L 250.161225 413.084796 
L 250.785988 274.671005 
L 251.41075 195.056741 
L 252.035512 350.668232 
L 252.660275 299.177584 
L 253.285037 90.180777 
L 253.9098 318.280857 
L 254.534562 329.750078 
L 255.159324 140.824131 
L 255.784087 301.632633 
L 256.408849 366.958638 
L 257.033611 213.734602 
L 257.658374 261.072577 
L 258.283136 459.860765 
L 258.907898 247.702379 
L 259.532661 232.180202 
L 260.157423 397.79489 
L 261.406948 197.717666 
L 262.03171 354.4888 
L 262.656473 310.890134 
L 263.281235 57.196077 
L 263.905997 304.647814 
L 264.53076 337.135192 
L 265.155522 172.494623 
L 266.405047 382.810038 
L 267.029809 217.690727 
L 267.654572 245.480298 
L 268.279334 464.775618 
L 268.904096 242.85501 
L 269.528859 214.268666 
L 270.153621 385.015309 
L 270.778383 288.784299 
L 271.403146 169.02532 
L 272.027908 333.861712 
L 272.652671 307.182483 
L 273.277433 56.515611 
L 273.902195 310.075485 
L 274.526958 351.216648 
L 275.15172 196.618772 
L 275.776482 286.858676 
L 276.401245 399.531855 
L 277.026007 227.734584 
L 277.650769 242.524326 
L 278.275532 458.166801 
L 278.900294 258.94334 
L 279.525057 216.21028 
L 280.149819 368.464762 
L 280.774581 296.050292 
L 281.399344 143.578472 
L 282.024106 333.06666 
L 282.648868 313.339969 
L 283.273631 87.349592 
L 283.898393 304.400264 
L 284.523155 353.38768 
L 285.147918 194.069323 
L 285.77268 277.521378 
L 286.397443 416.715443 
L 287.022205 238.174106 
L 287.646967 245.005845 
L 288.27173 440.956053 
L 288.896492 265.178689 
L 289.521254 198.073696 
L 290.146017 354.89423 
L 290.770779 307.740497 
L 291.395541 128.967994 
L 292.020304 315.467972 
L 292.645066 324.018893 
L 293.269829 124.544967 
L 293.894591 296.45753 
L 294.519353 361.449097 
L 295.144116 207.214469 
L 295.768878 259.001505 
L 296.39364 445.237474 
L 297.018403 234.064844 
L 297.643165 229.708745 
L 298.267927 410.335001 
L 298.89269 269.742165 
L 299.517452 201.369632 
L 300.142215 355.424409 
L 300.766977 299.950846 
L 301.391739 90.894583 
L 302.016502 318.590249 
L 302.641264 323.290369 
L 303.266026 142.868394 
L 303.890789 303.327551 
L 304.515551 359.491324 
L 305.140314 206.198557 
L 305.765076 253.972514 
L 306.389838 463.924146 
L 307.014601 248.886072 
L 307.639363 232.177069 
L 308.264125 399.72862 
L 309.51365 190.254805 
L 310.138412 350.382232 
L 310.763175 302.126707 
L 311.387937 56.467312 
L 312.0127 311.81492 
L 312.637462 341.964696 
L 313.262224 177.472598 
L 314.511749 385.326096 
L 315.136511 224.855023 
L 315.761274 255.164151 
L 316.386036 467.769723 
L 317.010798 250.837767 
L 317.635561 220.679708 
L 318.260323 391.417744 
L 318.885086 299.249629 
L 319.509848 171.446697 
L 320.13461 339.693158 
L 320.759373 310.865699 
L 321.384135 58.823388 
L 322.008897 305.045832 
L 322.63366 342.950292 
L 323.258422 191.163776 
L 323.883184 273.173278 
L 324.507947 407.696672 
L 325.132709 221.03253 
L 325.757472 243.154516 
L 326.382234 458.723297 
L 327.006996 255.92905 
L 327.631759 211.302545 
L 328.256521 363.170164 
L 328.881283 291.495992 
L 329.506046 146.248422 
L 330.130808 331.969803 
L 330.755571 304.374917 
L 331.380333 88.387424 
L 332.005095 312.655342 
L 332.629858 363.291877 
L 333.25462 205.967443 
L 333.879382 266.315456 
L 334.504145 420.325635 
L 335.128907 236.684087 
L 335.753669 246.025062 
L 336.378432 437.853803 
L 337.003194 275.662531 
L 337.627957 201.857655 
L 338.252719 348.944065 
L 338.877481 292.03639 
L 339.502244 121.252767 
L 340.127006 330.373497 
L 340.751768 315.426614 
L 341.376531 134.971968 
L 342.001293 299.720863 
L 342.626055 362.950517 
L 343.250818 211.852051 
L 343.87558 264.441002 
L 344.500343 449.143027 
L 345.125105 242.598468 
L 345.749867 248.249948 
L 346.37463 414.924663 
L 346.999392 289.092845 
L 347.624154 189.656719 
L 348.248917 350.210843 
L 348.873679 298.50564 
L 349.498441 81.754448 
L 350.123204 316.212524 
L 350.747966 321.594709 
L 351.372729 154.849293 
L 351.997491 282.85939 
L 352.622253 367.282691 
L 353.247016 219.280414 
L 353.871778 255.973629 
L 354.49654 465.671255 
L 355.121303 248.359384 
L 355.746065 233.494591 
L 356.370828 394.484086 
L 357.620352 178.163252 
L 358.245115 337.102111 
L 358.869877 293.514303 
L 359.494639 49.242105 
L 360.119402 320.379179 
L 360.744164 326.083417 
L 361.368926 169.32622 
L 362.618451 388.362457 
L 363.243214 226.413619 
L 363.867976 259.43559 
L 364.492738 468.270635 
L 365.117501 268.363216 
L 365.742263 236.178402 
L 366.367025 385.098366 
L 367.61655 173.467588 
L 368.241312 338.931776 
L 368.866075 301.908054 
L 369.490837 70.897106 
L 370.1156 306.110461 
L 370.740362 341.119029 
L 371.365124 189.914502 
L 371.989887 274.13061 
L 372.614649 412.379759 
L 373.239411 243.427624 
L 373.864174 266.02632 
L 374.488936 457.872696 
L 375.113698 279.802703 
L 375.738461 218.715084 
L 376.363223 365.516337 
L 376.987986 287.638051 
L 377.612748 140.99506 
L 378.23751 323.175811 
L 378.862273 319.89198 
L 379.487035 102.767242 
L 380.111797 286.356923 
L 380.73656 351.114471 
L 381.361322 213.910463 
L 381.986084 270.752125 
L 382.610847 425.150911 
L 383.235609 246.515348 
L 383.860372 248.210095 
L 384.485134 428.38712 
L 385.109896 269.699739 
L 385.734659 212.806334 
L 386.359421 356.83617 
L 386.984183 290.388762 
L 387.608946 100.299621 
L 388.233708 315.186195 
L 388.858471 322.460502 
L 389.483233 145.135863 
L 390.107995 283.396882 
L 390.732758 367.442554 
L 391.35752 217.868378 
L 391.982282 271.172555 
L 392.607045 454.023167 
L 393.231807 260.222907 
L 393.856569 237.566623 
L 394.481332 415.114256 
L 395.106094 265.784384 
L 395.730857 188.501414 
L 396.355619 334.316613 
L 396.980381 300.750379 
L 397.605144 67.703174 
L 398.229906 308.987943 
L 398.854668 336.982946 
L 399.479431 168.067429 
L 400.728955 389.171352 
L 401.353718 234.334235 
L 401.97848 269.577139 
L 402.603243 466.678452 
L 403.228005 265.527213 
L 403.852767 231.093147 
L 404.47753 383.519596 
L 405.727054 174.755582 
L 406.351817 334.372125 
L 406.976579 319.587509 
L 407.601341 50.730381 
L 408.226104 291.080914 
L 408.850866 343.284093 
L 409.475629 180.640692 
L 410.725153 393.693089 
L 411.349916 236.722161 
L 411.974678 251.231981 
L 412.59944 464.66842 
L 413.224203 253.944959 
L 413.848965 211.044551 
L 414.473728 363.061985 
L 415.09849 295.30721 
L 415.723252 147.658151 
L 416.348015 317.533511 
L 416.972777 321.685407 
L 417.597539 88.424948 
L 418.222302 296.731599 
L 418.847064 352.537333 
L 419.471826 197.772046 
L 420.096589 275.37821 
L 420.721351 410.137724 
L 421.346114 234.192786 
L 421.970876 233.631917 
L 422.595638 446.773174 
L 423.220401 257.55209 
L 423.845163 209.156889 
L 424.469925 362.820867 
L 425.094688 296.152506 
L 425.71945 125.098066 
L 426.344212 323.748387 
L 426.968975 315.594299 
L 427.593737 129.20148 
L 428.2185 307.205744 
L 428.843262 356.09359 
L 429.468024 199.849159 
L 430.092787 264.034145 
L 430.717549 442.161119 
L 431.342311 244.74028 
L 431.967074 240.451926 
L 432.591836 416.739716 
L 433.216598 281.642557 
L 433.841361 190.01033 
L 434.466123 349.414225 
L 435.090886 296.753697 
L 435.715648 84.033558 
L 436.34041 319.886062 
L 436.965173 327.564935 
L 437.589935 148.039129 
L 438.214697 291.967938 
L 438.83946 371.155335 
L 439.464222 220.302374 
L 440.088985 261.312503 
L 440.713747 459.840497 
L 441.338509 249.617489 
L 441.963272 239.315843 
L 442.588034 391.272818 
L 443.837559 185.823938 
L 444.462321 345.486662 
L 445.087083 302.370824 
L 445.711846 50.725162 
L 446.336608 310.886542 
L 446.961371 325.67048 
L 447.586133 166.948468 
L 448.835658 382.250176 
L 449.46042 226.035726 
L 450.085182 259.640882 
L 450.709945 465.148422 
L 451.334707 261.729519 
L 451.959469 226.981373 
L 452.584232 380.165935 
L 453.833757 167.536134 
L 454.458519 328.820993 
L 455.083281 305.022269 
L 455.708044 74.397934 
L 456.332806 304.488134 
L 456.957568 340.993105 
L 457.582331 195.539792 
L 458.207093 272.626272 
L 458.831855 408.933478 
L 459.456618 241.936643 
L 460.08138 254.948692 
L 460.706143 455.405485 
L 461.330905 273.445072 
L 461.955667 227.464239 
L 462.58043 373.933098 
L 463.205192 279.941606 
L 463.829954 135.571933 
L 464.454717 324.125673 
L 465.079479 319.215671 
L 465.704241 109.410066 
L 466.329004 290.981381 
L 466.953766 345.937008 
L 467.578529 201.360624 
L 468.203291 284.919251 
L 468.828053 428.629059 
L 469.452816 258.951269 
L 470.077578 245.881342 
L 470.70234 420.279156 
L 471.327103 271.029218 
L 471.951865 204.833082 
L 472.576628 354.49936 
L 473.20139 304.79751 
L 473.826152 96.659617 
L 474.450915 304.886239 
L 475.075677 338.476752 
L 475.700439 140.25922 
L 476.325202 286.538537 
L 476.949964 369.73966 
L 477.574726 220.067607 
L 478.199489 267.432524 
L 478.824251 457.130487 
L 479.449014 248.805701 
L 480.073776 227.475788 
L 480.698538 403.938339 
L 481.323301 275.565665 
L 481.948063 199.098343 
L 482.572825 348.536148 
L 483.197588 313.720067 
L 483.82235 59.646513 
L 484.447112 303.556742 
L 485.071875 335.059277 
L 485.696637 170.14306 
L 486.3214 288.190963 
L 486.946162 383.990441 
L 487.570924 216.445546 
L 488.195687 244.835029 
L 488.820449 465.078591 
L 489.445211 246.165249 
L 490.069974 218.339254 
L 490.694736 383.183547 
L 491.319498 287.331388 
L 491.944261 171.74836 
L 492.569023 336.637188 
L 493.193786 300.980957 
L 493.818548 61.07737 
L 494.44331 315.399804 
L 495.068073 349.031382 
L 495.692835 199.689491 
L 496.317597 275.240238 
L 496.94236 404.027967 
L 497.567122 230.090597 
L 498.191885 251.892648 
L 498.816647 457.72633 
L 499.441409 270.851376 
L 500.066172 221.070788 
L 500.690934 369.655542 
L 501.315696 285.263465 
L 501.940459 138.73087 
L 502.565221 337.234998 
L 503.189983 307.709425 
L 503.814746 99.081233 
L 504.439508 300.838909 
L 505.064271 352.153593 
L 505.689033 205.392237 
L 506.313795 272.39454 
L 506.938558 420.518388 
L 507.56332 248.868688 
L 508.188082 258.880041 
L 508.812845 427.259098 
L 509.437607 282.134233 
L 510.062369 203.148392 
L 510.687132 348.701293 
L 511.311894 293.529737 
L 511.936657 105.805871 
L 512.561419 314.693326 
L 513.186181 328.040494 
L 513.810944 137.605483 
L 514.435706 277.114024 
L 515.060468 373.369399 
L 515.685231 226.783363 
L 516.309993 274.017192 
L 516.934755 455.520665 
L 517.559518 254.98685 
L 518.18428 235.96419 
L 518.809043 408.208796 
L 519.433805 268.222304 
L 520.058567 197.8037 
L 520.68333 341.492265 
L 521.308092 311.645252 
L 521.932854 68.203087 
L 522.557617 300.74427 
L 523.182379 333.903615 
L 523.807142 169.542454 
L 525.056666 383.360705 
L 525.681429 223.104368 
L 526.306191 253.36597 
L 526.930953 464.933604 
L 527.555716 251.112509 
L 528.180478 218.325293 
L 528.80524 381.692561 
L 530.054765 169.791954 
L 530.679528 332.063898 
L 531.30429 308.2208 
L 531.929052 55.262838 
L 532.553815 307.948236 
L 533.178577 351.40892 
L 533.803339 195.474326 
L 534.428102 287.305778 
L 535.052864 399.16765 
L 535.677626 229.987402 
L 536.302389 246.366091 
L 536.927151 458.333438 
L 537.551914 263.017856 
L 538.176676 217.008878 
L 538.801438 368.309754 
L 539.426201 293.954648 
L 540.050963 140.96063 
L 540.675725 337.04133 
L 541.300488 307.013428 
L 541.92525 94.208103 
L 542.550012 306.029658 
L 543.174775 354.535539 
L 543.799537 203.036486 
L 544.4243 269.640108 
L 545.049062 418.370427 
L 545.673824 241.248158 
L 546.298587 257.105551 
L 546.923349 431.29111 
L 547.548111 283.949966 
L 548.172874 200.077697 
L 548.797636 346.760484 
L 549.422398 291.934491 
L 550.047161 110.861759 
L 550.671923 319.760763 
L 551.296686 322.686629 
L 551.921448 135.626512 
L 552.54621 280.84347 
L 553.170973 373.778015 
L 553.795735 226.718239 
L 554.420497 271.979933 
L 555.04526 454.740134 
L 555.670022 254.17995 
L 556.294785 240.5262 
L 556.919547 408.799056 
L 557.544309 271.136267 
L 558.169072 196.103073 
L 558.793834 340.723395 
L 559.418596 307.005399 
L 560.043359 71.894014 
L 560.668121 303.000282 
L 561.292883 331.55104 
L 561.917646 168.587143 
L 563.167171 381.981444 
L 563.791933 225.241996 
L 564.416695 257.154849 
L 565.041458 465.16516 
L 565.66622 254.164381 
L 566.290982 220.063629 
L 566.915745 381.945667 
L 568.165269 168.828455 
L 568.790032 329.976022 
L 569.414794 309.920601 
L 570.039557 54.073581 
L 570.664319 306.022922 
L 571.289081 350.199006 
L 571.913844 193.566253 
L 573.163368 398.544999 
L 573.788131 230.051118 
L 574.412893 245.020311 
L 575.037655 458.219663 
L 575.662418 261.437765 
L 576.28718 217.001387 
L 576.911943 368.393601 
L 577.536705 293.480596 
L 578.161467 142.046428 
L 578.78623 336.623051 
L 579.410992 306.404139 
L 580.035754 93.374311 
L 580.660517 307.096201 
L 581.285279 355.244283 
L 581.910042 202.925768 
L 582.534804 270.092477 
L 583.159566 419.215485 
L 583.784329 242.167048 
L 584.409091 256.943962 
L 585.033853 430.803268 
L 585.658616 284.209142 
L 586.283378 200.69762 
L 586.90814 346.161126 
L 587.532903 291.100025 
L 588.157665 110.35661 
L 588.782428 319.723183 
L 589.40719 324.039013 
L 590.031952 135.832476 
L 590.656715 280.469359 
L 591.281477 372.955941 
L 591.906239 226.711314 
L 592.531002 274.473973 
L 593.155764 455.581921 
L 593.780526 256.012903 
L 594.405289 239.893058 
L 595.030051 408.125349 
L 595.654814 271.346037 
L 596.279576 197.028461 
L 596.904338 342.505686 
L 597.529101 310.972429 
L 598.153863 69.849817 
L 598.778625 299.870352 
L 599.403388 334.578081 
L 600.02815 170.755146 
L 601.277675 382.430356 
L 601.902437 224.14749 
L 602.5272 253.520893 
L 603.151962 465.597964 
L 603.776724 249.365038 
L 604.401487 216.900673 
L 605.026249 383.290966 
L 606.275774 169.100266 
L 606.900536 331.872757 
L 607.525299 308.225582 
L 608.150061 56.380745 
L 608.774823 309.202673 
L 609.399586 348.905367 
L 610.024348 196.196514 
L 610.64911 280.665849 
L 611.273873 402.517271 
L 611.898635 226.851075 
L 612.523397 246.507225 
L 613.14816 457.097344 
L 613.772922 264.75115 
L 614.397685 219.142388 
L 615.022447 369.129493 
L 615.647209 286.634545 
L 616.271972 141.58315 
L 616.896734 337.227733 
L 617.521496 304.94663 
L 618.146259 96.930264 
L 618.771021 304.035428 
L 619.395783 354.549299 
L 620.020546 205.497217 
L 620.645308 272.623645 
L 621.270071 422.854368 
L 621.894833 250.083066 
L 622.519595 256.649893 
L 623.144358 425.699504 
L 623.76912 280.510403 
L 624.393882 205.061212 
L 625.018645 347.739216 
L 625.643407 292.687129 
L 626.268169 104.560801 
L 626.892932 314.5343 
L 627.517694 331.193758 
L 628.142457 137.581216 
L 628.767219 281.464778 
L 629.391981 369.785822 
L 630.016744 223.543553 
L 630.641506 275.799736 
L 631.266268 457.783332 
L 631.891031 256.314681 
L 632.515793 234.009123 
L 633.140555 405.148103 
L 633.765318 274.620569 
L 634.39008 198.578434 
L 635.014843 348.210755 
L 635.639605 315.320335 
L 636.264367 62.448782 
L 636.88913 299.870004 
L 637.513892 338.234122 
L 638.138654 173.444567 
L 639.388179 382.37781 
L 640.012942 220.560975 
L 640.637704 248.932415 
L 641.262466 465.698349 
L 641.887229 246.764082 
L 642.511991 218.450816 
L 643.136753 385.571698 
L 643.761516 290.758687 
L 644.386278 169.100033 
L 645.01104 334.850855 
L 645.635803 303.928434 
L 646.260565 63.413315 
L 646.885328 311.283908 
L 647.51009 341.114065 
L 648.134852 197.124365 
L 648.759615 266.074221 
L 649.384377 408.62982 
L 650.009139 231.597978 
L 650.633902 253.13121 
L 651.258664 454.368917 
L 651.883426 270.404909 
L 652.508189 224.439732 
L 653.132951 372.337955 
L 653.757714 277.775665 
L 654.382476 139.992024 
L 655.007238 325.644093 
L 655.632001 315.284605 
L 656.256763 106.055212 
L 656.881525 293.404519 
L 657.506288 351.095515 
L 658.13105 203.295374 
L 658.755812 280.188243 
L 659.380575 431.528875 
L 660.005337 256.30957 
L 660.6301 240.07314 
L 661.254862 417.090961 
L 661.879624 266.772173 
L 662.504387 205.107139 
L 663.129149 352.834236 
L 663.753911 301.507402 
L 664.378674 95.807037 
L 665.003436 311.852136 
L 665.628199 333.287111 
L 666.252961 140.21768 
L 666.877723 298.787433 
L 667.502486 365.898994 
L 668.127248 214.036807 
L 668.75201 262.200661 
L 669.376773 460.270922 
L 670.001535 250.174739 
L 670.626297 235.71351 
L 671.25106 395.399222 
L 672.500585 189.742857 
L 673.125347 350.346301 
L 673.750109 300.928197 
L 674.374872 52.540953 
L 674.999634 311.11077 
L 675.624396 332.377228 
L 676.249159 172.264169 
L 677.498683 379.995632 
L 678.123446 231.371069 
L 678.748208 265.732487 
L 679.372971 464.004702 
L 679.997733 267.236393 
L 680.622495 227.70684 
L 681.247258 381.096423 
L 681.87202 282.869087 
L 682.496782 160.209469 
L 683.121545 324.180787 
L 683.746307 318.65929 
L 684.371069 77.344817 
L 684.995832 290.154274 
L 685.620594 337.973299 
L 686.245357 190.295986 
L 686.870119 277.047123 
L 687.494881 411.712026 
L 688.119644 241.17404 
L 688.744406 243.081863 
L 689.369168 448.062464 
L 689.993931 256.539334 
L 690.618693 212.319559 
L 691.243456 367.509484 
L 691.868218 299.514032 
L 692.49298 130.126147 
L 693.117743 315.437658 
L 693.742505 320.1962 
L 694.367267 123.027244 
L 694.99203 300.478649 
L 695.616792 360.124402 
L 696.241554 203.91469 
L 696.866317 258.976237 
L 697.491079 444.108928 
L 698.115842 239.260743 
L 698.740604 236.711446 
L 699.365366 411.967818 
L 699.990129 277.629906 
L 700.614891 191.872919 
L 701.239653 344.158533 
L 701.864416 288.748835 
L 702.489178 83.553097 
L 703.11394 324.928453 
L 703.738703 319.801777 
L 704.363465 153.430992 
L 704.988228 285.538546 
L 705.61299 375.662737 
L 706.237752 224.536357 
L 706.862515 268.279934 
L 707.487277 463.075966 
L 708.112039 267.057139 
L 708.736802 239.955047 
L 709.361564 381.692959 
L 710.611089 172.914287 
L 711.235851 332.209902 
L 711.860614 309.143878 
L 712.485376 50.258138 
L 713.110138 299.604101 
L 713.734901 344.374182 
L 714.359663 182.925407 
L 715.609188 390.579002 
L 716.23395 240.462055 
L 716.858712 252.907873 
L 717.483475 461.014751 
L 718.108237 260.665864 
L 718.733 214.775499 
L 719.357762 367.236604 
L 719.982524 299.379265 
L 720.607287 142.854297 
L 721.232049 328.598111 
L 721.856811 315.471355 
L 722.481574 92.587764 
L 723.106336 301.255485 
L 723.731099 353.039083 
L 724.355861 202.091011 
L 724.980623 267.183255 
L 725.605386 415.526005 
L 726.230148 235.642539 
L 726.85491 252.915584 
L 727.479673 434.251322 
L 728.104435 279.031332 
L 728.729197 202.03253 
L 729.35396 350.79056 
L 729.978722 292.394879 
L 730.603485 108.972048 
L 731.228247 318.503644 
L 731.853009 322.222242 
L 732.477772 139.037809 
L 733.102534 279.734293 
L 733.727296 372.228419 
L 734.352059 224.273624 
L 734.976821 270.463239 
L 735.601583 454.024928 
L 736.226346 253.811781 
L 736.851108 233.29963 
L 737.475871 408.807862 
L 738.100633 266.705766 
L 738.725395 196.65254 
L 739.350158 341.013597 
L 739.97492 310.908175 
L 740.599682 63.569918 
L 741.224445 303.944169 
L 741.849207 335.197564 
L 742.473969 169.590015 
L 743.098732 290.40496 
L 743.723494 385.210169 
L 744.348257 218.413489 
L 744.973019 246.951314 
L 745.597781 466.023038 
L 746.222544 249.578603 
L 746.847306 221.674853 
L 747.472068 382.857441 
L 748.096831 287.014308 
L 748.721593 172.937364 
L 749.346356 337.827489 
L 749.971118 299.093258 
L 750.59588 65.678539 
L 751.220643 313.846575 
L 751.845405 344.632271 
L 752.470167 197.258625 
L 753.09493 272.114213 
L 753.719692 407.417778 
L 754.344454 238.531634 
L 754.969217 257.302435 
L 755.593979 455.889163 
L 756.218742 275.31519 
L 756.843504 225.204555 
L 757.468266 371.314013 
L 758.093029 282.31578 
L 758.717791 136.254792 
L 759.342553 322.897866 
L 759.967316 321.539586 
L 760.592078 112.179854 
L 761.21684 290.88783 
L 761.841603 346.876336 
L 762.466365 200.361031 
L 763.091128 281.101577 
L 763.71589 434.037015 
L 764.340652 252.363305 
L 764.965415 239.021522 
L 765.590177 418.218599 
L 766.214939 272.367532 
L 766.839702 198.332998 
L 767.464464 354.659182 
L 768.089226 304.341985 
L 768.713989 88.131858 
L 769.338751 313.747333 
L 769.963514 329.25906 
L 770.588276 147.333189 
L 771.213038 292.425982 
L 771.837801 370.475086 
L 772.462563 219.809261 
L 773.087325 261.662997 
L 773.712088 461.066125 
L 774.33685 253.347885 
L 774.961613 240.341511 
L 775.586375 389.636718 
L 776.8359 180.01558 
L 777.460662 338.885912 
L 778.085424 305.674111 
L 778.710187 49.041477 
L 779.334949 303.079942 
L 779.959711 330.608559 
L 780.584474 171.622941 
L 781.833999 387.89397 
L 782.458761 238.066684 
L 783.083523 257.671833 
L 783.708286 464.641519 
L 784.333048 259.378148 
L 784.95781 216.806512 
L 785.582573 367.424539 
L 786.207335 290.611002 
L 786.832097 149.672712 
L 787.45686 319.028056 
L 788.081622 319.82586 
L 788.706385 88.69999 
L 789.331147 298.555783 
L 789.955909 354.337515 
L 790.580672 200.839476 
L 791.205434 268.768855 
L 791.830196 413.138228 
L 792.454959 231.117218 
L 793.079721 241.79681 
L 793.704483 439.982333 
L 793.704483 439.982333 
" clip-path="url(#p0cc374083d)" style="fill: none; stroke: #1f77b4; stroke-width: 3; stroke-linecap: square"/>
   </g>
   <g id="line2d_41">
    <path d="M 169.56688 276.021996 
L 170.191643 389.288124 
L 170.816405 235.322393 
L 171.441167 261.123158 
L 172.06593 467.57269 
L 172.690692 272.373478 
L 173.315454 236.603756 
L 173.940217 380.08222 
L 175.189741 167.74133 
L 175.814504 330.452672 
L 176.439266 307.48968 
L 177.064029 74.098484 
L 177.688791 301.067955 
L 178.313553 339.181234 
L 178.938316 187.539773 
L 179.563078 275.694585 
L 180.18784 414.26537 
L 180.812603 246.631034 
L 181.437365 267.377478 
L 182.062127 457.746764 
L 182.68689 280.509621 
L 183.311652 218.41439 
L 183.936415 365.556096 
L 184.561177 287.403421 
L 185.185939 141.629385 
L 185.810702 324.884696 
L 186.435464 315.455121 
L 187.060226 98.937958 
L 187.684989 292.583569 
L 188.309751 356.055203 
L 188.934514 216.955926 
L 189.559276 261.271305 
L 190.184038 421.244031 
L 190.808801 238.692697 
L 191.433563 249.540132 
L 192.058325 433.102353 
L 192.683088 274.420124 
L 193.30785 208.652813 
L 193.932612 353.10599 
L 194.557375 281.869439 
L 195.182137 110.363368 
L 195.8069 331.863556 
L 196.431662 307.589114 
L 197.056424 142.80329 
L 197.681187 297.001882 
L 198.305949 366.001755 
L 198.930711 213.036384 
L 199.555474 264.502894 
L 200.180236 448.956685 
L 200.804998 250.234244 
L 201.429761 250.037846 
L 202.054523 418.358122 
L 203.304048 182.779344 
L 203.92881 342.039379 
L 204.553573 290.284025 
L 205.178335 78.536138 
L 205.803097 321.152555 
L 206.42786 325.837572 
L 207.052622 152.516463 
L 207.677384 286.049347 
L 208.302147 371.27728 
L 208.926909 222.07134 
L 209.551672 259.396321 
L 210.176434 460.733752 
L 210.801196 246.573526 
L 211.425959 236.448247 
L 212.050721 393.323109 
L 213.300246 186.65391 
L 213.925008 345.333177 
L 214.54977 301.179956 
L 215.174533 51.879011 
L 215.799295 315.449421 
L 216.424058 326.774068 
L 217.04882 165.968817 
L 218.298345 386.117374 
L 218.923107 214.849974 
L 219.547869 247.742025 
L 220.172632 466.186628 
L 220.797394 253.103881 
L 221.422157 224.692588 
L 222.046919 383.874619 
L 223.296444 176.61163 
L 223.921206 342.541482 
L 224.545968 297.08285 
L 225.170731 62.800645 
L 225.795493 316.988607 
L 226.420255 352.261267 
L 227.045018 198.881622 
L 227.66978 280.44698 
L 228.294543 402.582255 
L 228.919305 231.954846 
L 229.544067 252.735406 
L 230.16883 461.479895 
L 230.793592 264.858758 
L 231.418354 211.404949 
L 232.043117 363.47953 
L 232.667879 302.269962 
L 233.292641 138.086932 
L 233.917404 332.514216 
L 234.542166 314.678676 
L 235.166929 93.825455 
L 235.791691 301.115303 
L 236.416453 354.004083 
L 237.041216 202.17563 
L 237.665978 266.234859 
L 238.29074 411.071078 
L 238.915503 228.294877 
L 239.540265 240.332202 
L 240.165027 441.603074 
L 240.78979 263.971159 
L 241.414552 201.182514 
L 242.039315 357.731235 
L 242.664077 299.750873 
L 243.288839 122.655938 
L 243.913602 321.5437 
L 244.538364 314.813642 
L 245.163126 128.128365 
L 245.787889 305.663127 
L 246.412651 360.389302 
L 247.037414 201.533272 
L 247.662176 258.023539 
L 248.286938 442.941291 
L 248.911701 239.762352 
L 249.536463 234.009398 
L 250.161225 413.085367 
L 250.785988 274.671457 
L 251.41075 195.056276 
L 252.035512 350.668388 
L 252.660275 299.177329 
L 253.285037 90.180079 
L 253.9098 318.282964 
L 254.534562 329.748759 
L 255.159324 140.826291 
L 255.784087 301.632297 
L 256.408849 366.960506 
L 257.033611 213.735937 
L 257.658374 261.074815 
L 258.283136 459.860698 
L 258.907898 247.702744 
L 259.532661 232.180273 
L 260.157423 397.797134 
L 261.406948 197.718314 
L 262.03171 354.489471 
L 262.656473 310.887449 
L 263.281235 57.196637 
L 263.905997 304.64836 
L 264.53076 337.134203 
L 265.155522 172.493106 
L 266.405047 382.810221 
L 267.029809 217.690498 
L 267.654572 245.480635 
L 268.279334 464.776131 
L 268.904096 242.855175 
L 269.528859 214.269128 
L 270.153621 385.015015 
L 270.778383 288.784814 
L 271.403146 169.024699 
L 272.027908 333.861618 
L 272.652671 307.183641 
L 273.277433 56.516296 
L 273.902195 310.073546 
L 274.526958 351.216711 
L 275.15172 196.618846 
L 275.776482 286.860858 
L 276.401245 399.534063 
L 277.026007 227.735005 
L 277.650769 242.524398 
L 278.275532 458.166937 
L 278.900294 258.946093 
L 279.525057 216.211535 
L 280.149819 368.465829 
L 280.774581 296.049438 
L 281.399344 143.580925 
L 282.024106 333.064956 
L 282.648868 313.340873 
L 283.273631 87.349287 
L 283.898393 304.398804 
L 284.523155 353.388659 
L 285.147918 194.069587 
L 285.77268 277.521252 
L 286.397443 416.715899 
L 287.022205 238.171706 
L 287.646967 245.004075 
L 288.27173 440.954955 
L 288.896492 265.179009 
L 289.521254 198.070906 
L 290.146017 354.891755 
L 290.770779 307.738976 
L 291.395541 128.968019 
L 292.020304 315.468402 
L 292.645066 324.020965 
L 293.269829 124.54365 
L 293.894591 296.456761 
L 294.519353 361.448526 
L 295.144116 207.21364 
L 295.768878 259.004452 
L 296.39364 445.237233 
L 297.018403 234.064248 
L 297.643165 229.706633 
L 298.267927 410.334648 
L 298.89269 269.74512 
L 299.517452 201.369696 
L 300.142215 355.424484 
L 300.766977 299.947908 
L 301.391739 90.894662 
L 302.016502 318.591454 
L 302.641264 323.28916 
L 303.266026 142.869305 
L 303.890789 303.325728 
L 304.515551 359.492425 
L 305.140314 206.198658 
L 305.765076 253.973698 
L 306.389838 463.923928 
L 307.014601 248.884275 
L 307.639363 232.176904 
L 308.264125 399.728751 
L 309.51365 190.256334 
L 310.138412 350.383906 
L 310.763175 302.126419 
L 311.387937 56.467943 
L 312.0127 311.816542 
L 312.637462 341.962794 
L 313.262224 177.471453 
L 314.511749 385.323732 
L 315.136511 224.857938 
L 315.761274 255.164639 
L 316.386036 467.769698 
L 317.010798 250.839029 
L 317.635561 220.68151 
L 318.260323 391.415769 
L 318.885086 299.250197 
L 319.509848 171.445068 
L 320.13461 339.692108 
L 320.759373 310.86472 
L 321.384135 58.823728 
L 322.008897 305.045597 
L 322.63366 342.952355 
L 323.258422 191.165697 
L 323.883184 273.173127 
L 324.507947 407.697407 
L 325.132709 221.032226 
L 325.757472 243.155776 
L 326.382234 458.722801 
L 327.006996 255.928762 
L 327.631759 211.303405 
L 328.256521 363.171164 
L 328.881283 291.496506 
L 329.506046 146.248502 
L 330.130808 331.969755 
L 330.755571 304.377468 
L 331.380333 88.387071 
L 332.005095 312.654132 
L 332.629858 363.292157 
L 333.25462 205.967619 
L 333.879382 266.316043 
L 334.504145 420.324912 
L 335.128907 236.68409 
L 335.753669 246.024529 
L 336.378432 437.853632 
L 337.003194 275.665271 
L 337.627957 201.857736 
L 338.252719 348.94419 
L 338.877481 292.034999 
L 339.502244 121.250787 
L 340.127006 330.372206 
L 340.751768 315.427153 
L 341.376531 134.97224 
L 342.001293 299.719171 
L 342.626055 362.948072 
L 343.250818 211.849684 
L 343.87558 264.44103 
L 344.500343 449.141361 
L 345.125105 242.595231 
L 345.749867 248.2487 
L 346.37463 414.925576 
L 346.999392 289.093329 
L 347.624154 189.654317 
L 348.248917 350.208765 
L 348.873679 298.505632 
L 349.498441 81.754305 
L 350.123204 316.213352 
L 350.747966 321.595577 
L 351.372729 154.851148 
L 351.997491 282.859226 
L 352.622253 367.284404 
L 353.247016 219.280385 
L 353.871778 255.975185 
L 354.49654 465.671606 
L 355.121303 248.359376 
L 355.746065 233.492677 
L 356.370828 394.484905 
L 357.620352 178.163073 
L 358.245115 337.10195 
L 358.869877 293.510776 
L 359.494639 49.24305 
L 360.119402 320.380987 
L 360.744164 326.083127 
L 361.368926 169.325976 
L 362.618451 388.362167 
L 363.243214 226.413367 
L 363.867976 259.436474 
L 364.492738 468.271023 
L 365.117501 268.359511 
L 365.742263 236.177976 
L 366.367025 385.09867 
L 367.61655 173.466732 
L 368.241312 338.93499 
L 368.866075 301.908207 
L 369.490837 70.897142 
L 370.1156 306.112518 
L 370.740362 341.116992 
L 371.365124 189.9129 
L 371.989887 274.131157 
L 372.614649 412.382315 
L 373.239411 243.431201 
L 373.864174 266.028134 
L 374.488936 457.871676 
L 375.113698 279.80287 
L 375.738461 218.716504 
L 376.363223 365.515815 
L 376.987986 287.639022 
L 377.612748 140.995654 
L 378.23751 323.17504 
L 378.862273 319.889122 
L 379.487035 102.765342 
L 380.111797 286.357505 
L 380.73656 351.115939 
L 381.361322 213.911894 
L 381.986084 270.748288 
L 382.610847 425.150772 
L 383.235609 246.515339 
L 383.860372 248.211996 
L 384.485134 428.386018 
L 385.109896 269.69636 
L 385.734659 212.805802 
L 386.359421 356.835665 
L 386.984183 290.392295 
L 387.608946 100.298398 
L 388.233708 315.184244 
L 388.858471 322.460652 
L 389.483233 145.135773 
L 390.107995 283.400002 
L 390.732758 367.443046 
L 391.35752 217.869969 
L 391.982282 271.172594 
L 392.607045 454.021768 
L 393.231807 260.226117 
L 393.856569 237.567772 
L 394.481332 415.115099 
L 395.106094 265.783768 
L 395.730857 188.500381 
L 396.355619 334.314855 
L 396.980381 300.750469 
L 397.605144 67.703128 
L 398.229906 308.98665 
L 398.854668 336.985351 
L 399.479431 168.065831 
L 400.728955 389.171466 
L 401.353718 234.331915 
L 401.97848 269.57385 
L 402.603243 466.67867 
L 403.228005 265.526814 
L 403.852767 231.094361 
L 404.47753 383.518174 
L 405.727054 174.756154 
L 406.351817 334.372829 
L 406.976579 319.59127 
L 407.601341 50.731423 
L 408.226104 291.078763 
L 408.850866 343.283866 
L 409.475629 180.640537 
L 410.725153 393.694068 
L 411.349916 236.721686 
L 411.974678 251.231299 
L 412.59944 464.66889 
L 413.224203 253.948337 
L 413.848965 211.045104 
L 414.473728 363.06219 
L 415.09849 295.305434 
L 415.723252 147.661066 
L 416.348015 317.532318 
L 416.972777 321.685354 
L 417.597539 88.424864 
L 418.222302 296.730068 
L 418.847064 352.536775 
L 419.471826 197.770862 
L 420.096589 275.377379 
L 420.721351 410.138705 
L 421.346114 234.189663 
L 421.970876 233.62907 
L 422.595638 446.771376 
L 423.220401 257.551435 
L 423.845163 209.153974 
L 424.469925 362.818282 
L 425.094688 296.150776 
L 425.71945 125.098619 
L 426.344212 323.748622 
L 426.968975 315.595763 
L 427.593737 129.199286 
L 428.2185 307.204167 
L 428.843262 356.093748 
L 429.468024 199.849208 
L 430.092787 264.038176 
L 430.717549 442.161057 
L 431.342311 244.739585 
L 431.967074 240.451124 
L 432.591836 416.739182 
L 433.216598 281.646769 
L 433.841361 190.010122 
L 434.466123 349.413886 
L 435.090886 296.751332 
L 435.715648 84.03357 
L 436.34041 319.889291 
L 436.965173 327.565516 
L 437.589935 148.038599 
L 438.214697 291.965737 
L 438.83946 371.157726 
L 439.464222 220.301314 
L 440.088985 261.31169 
L 440.713747 459.83987 
L 441.338509 249.614313 
L 441.963272 239.312727 
L 442.588034 391.273042 
L 443.837559 185.826762 
L 444.462321 345.489689 
L 445.087083 302.369423 
L 445.711846 50.725294 
L 446.336608 310.886214 
L 446.961371 325.66661 
L 447.586133 166.946377 
L 448.835658 382.249682 
L 449.46042 226.036524 
L 450.085182 259.643607 
L 450.709945 465.148669 
L 451.334707 261.729057 
L 451.959469 226.981692 
L 452.584232 380.165038 
L 453.833757 167.536702 
L 454.458519 328.820988 
L 455.083281 305.020094 
L 455.708044 74.398863 
L 456.332806 304.492147 
L 456.957568 340.993204 
L 457.582331 195.539732 
L 458.207093 272.623964 
L 458.831855 408.935432 
L 459.456618 241.938834 
L 460.08138 254.947949 
L 460.706143 455.406022 
L 461.330905 273.441233 
L 461.955667 227.463101 
L 462.58043 373.930759 
L 463.205192 279.941122 
L 463.829954 135.572857 
L 464.454717 324.126397 
L 465.079479 319.21337 
L 465.704241 109.408703 
L 466.329004 290.980795 
L 466.953766 345.939959 
L 467.578529 201.363903 
L 468.203291 284.919426 
L 468.828053 428.629413 
L 469.452816 258.951523 
L 470.077578 245.883328 
L 470.70234 420.277404 
L 471.327103 271.029509 
L 471.951865 204.833512 
L 472.576628 354.499642 
L 473.20139 304.799291 
L 473.826152 96.660104 
L 474.450915 304.887118 
L 475.075677 338.476152 
L 475.700439 140.259444 
L 476.325202 286.540937 
L 476.949964 369.740255 
L 477.574726 220.067378 
L 478.199489 267.431284 
L 478.824251 457.129853 
L 479.449014 248.808323 
L 480.073776 227.474763 
L 480.698538 403.937486 
L 481.323301 275.563308 
L 481.948063 199.101158 
L 482.572825 348.538962 
L 483.197588 313.719679 
L 483.82235 59.646658 
L 484.447112 303.555703 
L 485.071875 335.056668 
L 485.696637 170.140363 
L 486.3214 288.190739 
L 486.946162 383.987747 
L 487.570924 216.447766 
L 488.195687 244.837508 
L 488.820449 465.078461 
L 489.445211 246.165211 
L 490.069974 218.342258 
L 490.694736 383.180614 
L 491.319498 287.333621 
L 491.944261 171.749142 
L 492.569023 336.637015 
L 493.193786 300.981295 
L 493.818548 61.078412 
L 494.44331 315.401169 
L 495.068073 349.032154 
L 495.692835 199.690152 
L 496.317597 275.237847 
L 496.94236 404.028742 
L 497.567122 230.092149 
L 498.191885 251.891733 
L 498.816647 457.727008 
L 499.441409 270.850752 
L 500.066172 221.070117 
L 500.690934 369.654609 
L 501.315696 285.263394 
L 501.940459 138.733449 
L 502.565221 337.231081 
L 503.189983 307.708419 
L 503.814746 99.081147 
L 504.439508 300.838198 
L 505.064271 352.15793 
L 505.689033 205.396524 
L 506.313795 272.39569 
L 506.938558 420.517932 
L 507.56332 248.869357 
L 508.188082 258.884904 
L 508.812845 427.256752 
L 509.437607 282.134936 
L 510.062369 203.149533 
L 510.687132 348.702171 
L 511.311894 293.534064 
L 511.936657 105.807088 
L 512.561419 314.695264 
L 513.186181 328.042228 
L 513.810944 137.605475 
L 514.435706 277.117799 
L 515.060468 373.369604 
L 515.685231 226.782706 
L 516.309993 274.013163 
L 516.934755 455.520418 
L 517.559518 254.990202 
L 518.18428 235.962316 
L 518.809043 408.207516 
L 519.433805 268.217047 
L 520.058567 197.804536 
L 520.68333 341.492794 
L 521.308092 311.644705 
L 521.932854 68.203625 
L 522.557617 300.739554 
L 523.182379 333.902526 
L 523.807142 169.54071 
L 525.056666 383.358361 
L 525.681429 223.103384 
L 526.306191 253.367106 
L 526.930953 464.933129 
L 527.555716 251.1128 
L 528.180478 218.330778 
L 528.80524 381.688253 
L 530.054765 169.792719 
L 530.679528 332.063723 
L 531.30429 308.224975 
L 531.929052 55.263649 
L 532.553815 307.950122 
L 533.178577 351.410933 
L 533.803339 195.47614 
L 534.428102 287.308308 
L 535.052864 399.167606 
L 535.677626 229.988742 
L 536.302389 246.364422 
L 536.927151 458.334173 
L 537.551914 263.020846 
L 538.176676 217.007395 
L 538.801438 368.307889 
L 539.426201 293.952385 
L 540.050963 140.963879 
L 540.675725 337.036288 
L 541.300488 307.01199 
L 541.92525 94.208478 
L 542.550012 306.027578 
L 543.174775 354.539668 
L 543.799537 203.04021 
L 544.4243 269.640748 
L 545.049062 418.370033 
L 545.673824 241.246545 
L 546.298587 257.108614 
L 546.923349 431.289201 
L 547.548111 283.950368 
L 548.172874 200.078319 
L 548.797636 346.76081 
L 549.422398 291.938635 
L 550.047161 110.863341 
L 550.671923 319.763346 
L 551.296686 322.690655 
L 551.921448 135.625938 
L 552.54621 280.845928 
L 553.170973 373.7783 
L 553.795735 226.717672 
L 554.420497 271.975047 
L 555.04526 454.7401 
L 555.670022 254.183193 
L 556.294785 240.523845 
L 556.919547 408.797423 
L 557.544309 271.131363 
L 558.169072 196.103977 
L 558.793834 340.724038 
L 559.418596 307.004304 
L 560.043359 71.89464 
L 560.668121 302.994218 
L 561.292883 331.550194 
L 561.917646 168.585298 
L 563.167171 381.979535 
L 563.791933 225.239325 
L 564.416695 257.156235 
L 565.041458 465.164541 
L 565.66622 254.16387 
L 566.290982 220.069147 
L 566.915745 381.941136 
L 568.165269 168.829826 
L 568.790032 329.976678 
L 569.414794 309.926181 
L 570.039557 54.074519 
L 570.664319 306.02504 
L 571.289081 350.200431 
L 571.913844 193.567573 
L 573.163368 398.545242 
L 573.788131 230.052878 
L 574.412893 245.018401 
L 575.037655 458.220614 
L 575.662418 261.441978 
L 576.28718 217.000315 
L 576.911943 368.391595 
L 577.536705 293.478008 
L 578.161467 142.050313 
L 578.78623 336.617413 
L 579.410992 306.40234 
L 580.035754 93.374416 
L 580.660517 307.094008 
L 581.285279 355.249035 
L 581.910042 202.92994 
L 582.534804 270.092596 
L 583.159566 419.215594 
L 583.784329 242.165203 
L 584.409091 256.947367 
L 585.033853 430.800652 
L 585.658616 284.20896 
L 586.283378 200.697504 
L 586.90814 346.16077 
L 587.532903 291.105378 
L 588.157665 110.358326 
L 588.782428 319.725859 
L 589.40719 324.042409 
L 590.031952 135.831686 
L 590.656715 280.472737 
L 591.281477 372.956869 
L 591.906239 226.711306 
L 592.531002 274.470353 
L 593.155764 455.581194 
L 593.780526 256.017706 
L 594.405289 239.89048 
L 595.030051 408.123558 
L 595.654814 271.341777 
L 596.279576 197.02859 
L 596.904338 342.505195 
L 597.529101 310.970434 
L 598.153863 69.849998 
L 598.778625 299.86562 
L 599.403388 334.57764 
L 600.02815 170.751956 
L 601.277675 382.428778 
L 601.902437 224.145802 
L 602.5272 253.520729 
L 603.151962 465.597621 
L 603.776724 249.363211 
L 604.401487 216.905518 
L 605.026249 383.287242 
L 606.275774 169.102457 
L 606.900536 331.874697 
L 607.525299 308.229631 
L 608.150061 56.382078 
L 608.774823 309.203115 
L 609.399586 348.904669 
L 610.024348 196.195835 
L 610.64911 280.668139 
L 611.273873 402.519728 
L 611.898635 226.85403 
L 612.523397 246.505263 
L 613.14816 457.098331 
L 613.772922 264.753364 
L 614.397685 219.143835 
L 615.022447 369.129101 
L 615.647209 286.632735 
L 616.271972 141.586987 
L 616.896734 337.222037 
L 617.521496 304.944228 
L 618.146259 96.928638 
L 618.771021 304.033515 
L 619.395783 354.554207 
L 620.020546 205.501824 
L 620.645308 272.621689 
L 621.270071 422.855517 
L 621.894833 250.081318 
L 622.519595 256.655325 
L 623.144358 425.696122 
L 623.76912 280.507495 
L 624.393882 205.05934 
L 625.018645 347.737362 
L 625.643407 292.692908 
L 626.268169 104.560724 
L 626.892932 314.534406 
L 627.517694 331.195232 
L 628.142457 137.580184 
L 628.767219 281.470778 
L 629.391981 369.787657 
L 630.016744 223.546031 
L 630.641506 275.799928 
L 631.266268 457.781734 
L 631.891031 256.320155 
L 632.515793 234.009413 
L 633.140555 405.148896 
L 633.765318 274.62045 
L 634.39008 198.579102 
L 635.014843 348.210745 
L 635.639605 315.319007 
L 636.264367 62.448629 
L 636.88913 299.869315 
L 637.513892 338.232237 
L 638.138654 173.440618 
L 639.388179 382.378728 
L 640.012942 220.55968 
L 640.637704 248.934233 
L 641.262466 465.699128 
L 641.887229 246.762615 
L 642.511991 218.451048 
L 643.136753 385.572103 
L 643.761516 290.7619 
L 644.386278 169.099585 
L 645.01104 334.852166 
L 645.635803 303.929774 
L 646.260565 63.413947 
L 646.885328 311.286293 
L 647.51009 341.112451 
L 648.134852 197.123104 
L 648.759615 266.075412 
L 649.384377 408.633292 
L 650.009139 231.60283 
L 650.633902 253.132346 
L 651.258664 454.367997 
L 651.883426 270.406112 
L 652.508189 224.442869 
L 653.132951 372.338021 
L 653.757714 277.77639 
L 654.382476 139.992481 
L 655.007238 325.64322 
L 655.632001 315.279936 
L 656.256763 106.052702 
L 656.881525 293.405582 
L 657.506288 351.095672 
L 658.13105 203.29543 
L 658.755812 280.184635 
L 659.380575 431.527829 
L 660.005337 256.309706 
L 660.6301 240.073723 
L 661.254862 417.090917 
L 661.879624 266.7699 
L 662.504387 205.107226 
L 663.129149 352.834757 
L 663.753911 301.508456 
L 664.378674 95.805227 
L 665.003436 311.853936 
L 665.628199 333.28586 
L 666.252961 140.219115 
L 666.877723 298.788368 
L 667.502486 365.90238 
L 668.127248 214.040249 
L 668.75201 262.203209 
L 669.376773 460.27087 
L 670.001535 250.175847 
L 670.626297 235.712079 
L 671.25106 395.402295 
L 672.500585 189.742247 
L 673.125347 350.345624 
L 673.750109 300.923591 
L 674.374872 52.542096 
L 674.999634 311.113037 
L 675.624396 332.378022 
L 676.249159 172.264286 
L 677.498683 379.995279 
L 678.123446 231.370798 
L 678.748208 265.73254 
L 679.372971 464.005029 
L 679.997733 267.231894 
L 680.622495 227.704114 
L 681.247258 381.097729 
L 681.87202 282.869026 
L 682.496782 160.208551 
L 683.121545 324.18524 
L 683.746307 318.659194 
L 684.371069 77.344536 
L 684.995832 290.154394 
L 685.620594 337.969442 
L 686.245357 190.292455 
L 686.870119 277.049425 
L 687.494881 411.71181 
L 688.119644 241.17489 
L 688.744406 243.080053 
L 689.369168 448.060773 
L 689.993931 256.541263 
L 690.618693 212.320541 
L 691.243456 367.510344 
L 691.868218 299.510428 
L 692.49298 130.12429 
L 693.117743 315.439661 
L 693.742505 320.195574 
L 694.367267 123.028032 
L 694.99203 300.475826 
L 695.616792 360.121838 
L 696.241554 203.911931 
L 696.866317 258.97529 
L 697.491079 444.106875 
L 698.115842 239.257009 
L 698.740604 236.708842 
L 699.365366 411.969239 
L 699.990129 277.628419 
L 700.614891 191.870761 
L 701.239653 344.157201 
L 701.864416 288.748186 
L 702.489178 83.553278 
L 703.11394 324.928214 
L 703.738703 319.803473 
L 704.363465 153.432931 
L 704.988228 285.538063 
L 705.61299 375.662066 
L 706.237752 224.537736 
L 706.862515 268.280115 
L 707.487277 463.076629 
L 708.112039 267.057118 
L 708.736802 239.955467 
L 709.361564 381.693184 
L 710.611089 172.913051 
L 711.235851 332.207035 
L 711.860614 309.142989 
L 712.485376 50.258355 
L 713.110138 299.602917 
L 713.734901 344.377524 
L 714.359663 182.928535 
L 715.609188 390.57906 
L 716.23395 240.459366 
L 716.858712 252.904399 
L 717.483475 461.014044 
L 718.108237 260.664717 
L 718.733 214.774644 
L 719.357762 367.23873 
L 719.982524 299.37634 
L 720.607287 142.853977 
L 721.232049 328.598086 
L 721.856811 315.473637 
L 722.481574 92.588049 
L 723.106336 301.252674 
L 723.731099 353.039202 
L 724.355861 202.091361 
L 724.980623 267.185154 
L 725.605386 415.524472 
L 726.230148 235.642008 
L 726.85491 252.916291 
L 727.479673 434.251543 
L 728.104435 279.032445 
L 728.729197 202.034818 
L 729.35396 350.792547 
L 729.978722 292.395155 
L 730.603485 108.971228 
L 731.228247 318.502552 
L 731.853009 322.223674 
L 732.477772 139.038454 
L 733.102534 279.735271 
L 733.727296 372.227408 
L 734.352059 224.272946 
L 734.976821 270.45859 
L 735.601583 454.025406 
L 736.226346 253.81234 
L 736.851108 233.300275 
L 737.475871 408.808222 
L 738.100633 266.701013 
L 738.725395 196.653513 
L 739.350158 341.014463 
L 739.97492 310.909022 
L 740.599682 63.570659 
L 741.224445 303.941706 
L 741.849207 335.196375 
L 742.473969 169.589097 
L 743.098732 290.405961 
L 743.723494 385.207092 
L 744.348257 218.415987 
L 744.973019 246.953113 
L 745.597781 466.022877 
L 746.222544 249.579115 
L 746.847306 221.677472 
L 747.472068 382.854522 
L 748.096831 287.016298 
L 748.721593 172.93734 
L 749.346356 337.826872 
L 749.971118 299.091281 
L 750.59588 65.679627 
L 751.220643 313.849273 
L 751.845405 344.632542 
L 752.470167 197.258838 
L 753.09493 272.110751 
L 753.719692 407.419293 
L 754.344454 238.533915 
L 754.969217 257.30216 
L 755.593979 455.88956 
L 756.218742 275.311544 
L 756.843504 225.203979 
L 757.468266 371.312073 
L 758.093029 282.315399 
L 758.717791 136.255637 
L 759.342553 322.898379 
L 759.967316 321.536729 
L 760.592078 112.178025 
L 761.21684 290.887473 
L 761.841603 346.877853 
L 762.466365 200.362752 
L 763.091128 281.103395 
L 763.71589 434.037152 
L 764.340652 252.362702 
L 764.965415 239.021639 
L 765.590177 418.21764 
L 766.214939 272.369508 
L 766.839702 198.332608 
L 767.464464 354.658767 
L 768.089226 304.340671 
L 768.713989 88.131452 
L 769.338751 313.751751 
L 769.963514 329.259798 
L 770.588276 147.333279 
L 771.213038 292.425429 
L 771.837801 370.478466 
L 772.462563 219.808913 
L 773.087325 261.662895 
L 773.712088 461.065746 
L 774.33685 253.346821 
L 774.961613 240.337155 
L 775.586375 389.637523 
L 776.8359 180.016163 
L 777.460662 338.886658 
L 778.085424 305.672396 
L 778.710187 49.042416 
L 779.334949 303.079376 
L 779.959711 330.607853 
L 780.584474 171.62242 
L 781.833999 387.894952 
L 782.458761 238.064252 
L 783.083523 257.672676 
L 783.708286 464.641917 
L 784.333048 259.378784 
L 784.95781 216.806181 
L 785.582573 367.426522 
L 786.207335 290.611434 
L 786.832097 149.674711 
L 787.45686 319.028821 
L 788.081622 319.82921 
L 788.706385 88.699163 
L 789.331147 298.556766 
L 789.955909 354.336423 
L 790.580672 200.837659 
L 791.205434 268.77105 
L 791.830196 413.138288 
L 792.454959 231.117696 
L 793.079721 241.794907 
L 793.704483 439.980865 
L 793.704483 439.980865 
" clip-path="url(#p0cc374083d)" style="fill: none; stroke-dasharray: 11.1,4.8; stroke-dashoffset: 0; stroke: #ff7f0e; stroke-width: 3"/>
   </g>
   <g id="patch_3">
    <path d="M 138.36 489.2325 
L 138.36 28.08 
" style="fill: none; stroke: #000000; stroke-width: 2; stroke-linejoin: miter; stroke-linecap: square"/>
   </g>
   <g id="patch_4">
    <path d="M 824.911364 489.2325 
L 824.911364 28.08 
" style="fill: none; stroke: #000000; stroke-width: 2; stroke-linejoin: miter; stroke-linecap: square"/>
   </g>
   <g id="patch_5">
    <path d="M 138.36 489.2325 
L 824.911364 489.2325 
" style="fill: none; stroke: #000000; stroke-width: 2; stroke-linejoin: miter; stroke-linecap: square"/>
   </g>
   <g id="patch_6">
    <path d="M 138.36 28.08 
L 824.911364 28.08 
" style="fill: none; stroke: #000000; stroke-width: 2; stroke-linejoin: miter; stroke-linecap: square"/>
   </g>
  </g>
 </g>
 <defs>
  <clipPath id="p0cc374083d">
   <rect x="138.36" y="28.08" width="686.551364" height="461.1525"/>
  </clipPath>
 </defs>
</svg>
